$MeshFormat
2.2 0 8
$EndMeshFormat
$Nodes
1251
1 0 0 0
2 100 0 0
3 100 50 100
4 25 50 100
5 0 50 100
6 79.1 10.45 20.9
7 20.88 39.56 79.12
8 7.69230769230769 0 0
9 15.3846153846154 0 0
10 23.0769230769231 0 0
11 30.7692307692308 0 0
12 38.4615384615385 0 0
13 46.1538461538462 0 0
14 53.8461538461539 0 0
15 61.5384615384615 0 0
16 69.2307692307692 0 0
17 76.9230769230769 0 0
18 84.6153846153846 0 0
19 92.3076923076923 0 0
20 100 3.33333333333334 6.66666666666667
21 100 6.66666666666667 13.3333333333333
22 100 10 20
23 100 13.3333333333333 26.6666666666667
24 100 16.6666666666667 33.3333333333334
25 100 20 40
26 100 23.3333333333333 46.6666666666667
27 100 26.6666666666667 53.3333333333334
28 100 30 60
29 100 33.3333333333333 66.6666666666667
30 100 36.6666666666667 73.3333333333333
31 100 40 80
32 100 43.3333333333333 86.6666666666667
33 100 46.6666666666667 93.3333333333333
34 92.5 50 100
35 85 50 100
36 77.5 50 100
37 70 50 100
38 62.5 50 100
39 55 50 100
40 47.5 50 100
41 40 50 100
42 32.5 50 100
43 16.6666666666667 50 100
44 8.33333333333333 50 100
45 0 46.6666666666667 93.3333333333333
46 0 43.3333333333333 86.6666666666667
47 0 40 80
48 0 36.6666666666667 73.3333333333333
49 0 33.3333333333333 66.6666666666666
50 0 30 60
51 0 26.6666666666667 53.3333333333333
52 0 23.3333333333333 46.6666666666666
53 0 20 40
54 0 16.6666666666667 33.3333333333333
55 0 13.3333333333333 26.6666666666667
56 0 9.99999999999999 20
57 0 6.66666666666666 13.3333333333333
58 0 3.33333333333334 6.66666666666667
59 77.0924137931034 11.4537931034483 22.9075862068966
60 75.0848275862069 12.4575862068966 24.9151724137931
61 73.0772413793103 13.4613793103448 26.9227586206897
62 71.0696551724138 14.4651724137931 28.9303448275862
63 69.0620689655172 15.4689655172414 30.9379310344828
64 67.0544827586207 16.4727586206897 32.9455172413793
65 65.0468965517241 17.4765517241379 34.9531034482759
66 63.0393103448276 18.4803448275862 36.9606896551724
67 61.031724137931 19.4841379310345 38.968275862069
68 59.0241379310345 20.4879310344828 40.9758620689655
69 57.0165517241379 21.491724137931 42.9834482758621
70 55.0089655172414 22.4955172413793 44.9910344827586
71 53.0013793103448 23.4993103448276 46.9986206896552
72 50.9937931034483 24.5031034482759 49.0062068965517
73 48.9862068965517 25.5068965517241 51.0137931034483
74 46.9786206896552 26.5106896551724 53.0213793103448
75 44.9710344827586 27.5144827586207 55.0289655172414
76 42.9634482758621 28.518275862069 57.0365517241379
77 40.9558620689655 29.5220689655172 59.0441379310345
78 38.948275862069 30.5258620689655 61.051724137931
79 36.9406896551724 31.5296551724138 63.0593103448276
80 34.9331034482759 32.5334482758621 65.0668965517241
81 32.9255172413793 33.5372413793103 67.0744827586207
82 30.9179310344828 34.5410344827586 69.0820689655172
83 28.9103448275862 35.5448275862069 71.0896551724138
84 26.9027586206897 36.5486206896552 73.0972413793103
85 24.8951724137931 37.5524137931034 75.1048275862069
86 22.8875862068966 38.5562068965517 77.1124137931035
87 92.930226576485 36.9046829207583 73.8093658415165
88 7.28792054009345 13.3523219097061 26.7046438194122
89 63.1026237192028 46.9332918421673 93.8665836843347
90 92.5173513728434 30.4136922127182 60.8273844254364
91 7.0102215910704 19.8213952779444 39.6427905558888
92 39.942461674837 4.04763703777725 8.09527407555449
93 93.0869458604723 23.3779609245801 46.7559218491602
94 8.63352868668532 26.7867421691435 53.573484338287
95 47.1014104464464 46.3890601651097 92.7781203302194
96 54.5635679328953 3.00230500901698 6.00461001803396
97 85.1465076241654 46.7514756600846 93.5029513201692
98 15.3824243227694 3.38320633048671 6.76641266097343
99 32.2188246475206 46.9463758173116 93.8927516346232
100 92.0518483043379 16.8604541633984 33.7209083267968
101 7.09981459024073 33.2222660092685 66.4445320185369
102 76.9467303945279 2.90161907768484 5.80323815536968
103 25.0231266244938 46.2296778127849 92.4593556255698
104 93.3933514273823 13.2915156146244 26.5830312292489
105 93.5960422601202 10.248879053039 20.497758106078
106 7.10885644283355 40.2150519080983 80.4301038161966
107 83.5291264161671 3.02853145078855 6.0570629015771
108 16.0647186296652 46.2287947815328 92.4575895630655
109 7.12820101493796 43.3182755323311 86.6365510646622
110 93.1446212034793 7.27006803907753 14.5401360781551
111 61.6846628085519 3.0785916811345 6.157183362269
112 7.67201809521748 3.35572116352998 6.71144232705996
113 7.62352725686057 6.71306222925014 13.4261244585003
114 23.1367841571681 3.42800523769799 6.85601047539598
115 77.7716819543982 46.8132739269628 93.6265478539257
116 91.0030189504714 3.95545657710325 7.91091315420649
117 92.5698596824992 46.7061329238561 93.4122658477122
118 92.6760489649882 43.4243378588968 86.8486757177936
119 7.7567550736219 46.5698454353014 93.1396908706029
120 55.1488507825022 5.84030913827641 11.6806182765528
121 86.6676490386985 15.5221385856547 31.0442771713093
122 31.9699595992536 44.3483968428297 88.6967936856593
123 82.2269136794781 5.59059510354305 11.1811902070861
124 22.8009593346884 43.6995364463057 87.3990728926114
125 13.1066230880481 40.5205938822837 81.0411877645675
126 8.70696530031103 36.7122488820378 73.4244977640755
127 69.6287370563081 3.5462635830163 7.0925271660326
128 38.920163165682 46.9599742804959 93.9199485609918
129 6.97089807824274 30.1969291570055 60.3938583140111
130 93.2437843775279 20.3471848792106 40.6943697584211
131 91.2363903348985 26.7516843272816 53.5033686545632
132 7.31061831007683 23.0652098700086 46.1304197400171
133 47.5773090279192 3.14801358208275 6.29602716416551
134 55.7689773762934 46.9060342175674 93.8120684351349
135 92.9002695595237 33.6694604391929 67.3389208783858
136 7.08350946455808 16.6030843548074 33.2061687096149
137 15.4128661442491 6.81225920109143 13.6245184021829
138 31.0072520756976 3.56692158674779 7.13384317349558
139 70.4364051292637 46.8813525770361 93.7627051540722
140 85.4034873762543 43.5342101852072 87.0684203704145
141 92.8206380873596 40.1610652144839 80.3221304289679
142 7.50517327967895 10.0609255792861 20.1218511585723
143 13.3815989957001 43.0544549156806 86.1089098313613
144 87.6690783399251 13.1554258622405 26.3108517244809
145 87.1977914616528 7.85038004049492 15.7007600809898
146 86.5017392358126 5.91585313911852 11.831706278237
147 86.0046793434634 33.9855387217041 67.9710774434082
148 13.9977803450334 16.607029941267 33.214059882534
149 56.8143674872955 44.0537243131969 88.1074486263938
150 86.7670934294085 25.1938689320515 50.387737864103
151 13.9436406964337 22.5685702564034 45.1371405128068
152 30.9983055418091 6.95901832623353 13.9180366524671
153 12.9571002474179 30.3639497717446 60.7278995434891
154 61.5042827999753 5.91433725274197 11.8286745054839
155 48.9284499175673 5.8600757958979 11.7201515917958
156 76.7991508027828 5.34481608132445 10.6896321626489
157 85.7057890071498 40.3318142131268 80.6636284262535
158 14.913872777562 35.0830273974431 70.1660547948862
159 41.8472241673747 44.0905332928509 88.1810665857018
160 87.0803876190429 18.7035216787744 37.4070433575488
161 82.3885927825413 15.2276932300092 30.4553864600184
162 23.3234493083518 6.89961346491831 13.7992269298366
163 80.9761414756248 8.10715423367614 16.2143084673523
164 85.3268325919769 17.0526423793717 34.1052847587433
165 70.9310566247235 43.7706082914017 87.5412165828033
166 21.1063831974033 40.4492626883871 80.8985253767742
167 14.5908643302534 13.5086783027732 27.0173566055463
168 78.1902923117075 43.6611402587038 87.3222805174075
169 15.2169404448145 10.2449930255746 20.4899860511491
170 14.5982908580159 38.3269870776232 76.6539741552464
171 37.4495544679786 44.2606029391766 88.5212058783532
172 17.6673392248094 40.6682574057085 81.336514811417
173 44.5028344016049 6.05487880371354 12.1097576074271
174 28.1162104495077 44.3551880242797 88.7103760485593
175 43.9639081603433 7.92785413344895 15.8557082668979
176 55.3723495006187 8.47279543254087 16.9455908650817
177 20.5058644103074 16.7260980173194 33.4521960346388
178 36.424232515565 41.8444994620562 83.6889989241125
179 31.5021513298125 10.0063938471304 20.0127876942608
180 72.8645684069828 5.345910518086 10.691821036172
181 85.538396884753 30.9108851181566 61.8217702363132
182 75.7099935984061 7.39542837560467 14.7908567512093
183 46.5181478827234 43.2676372991356 86.5352745982713
184 87.2112908647142 23.2976812246049 46.5953624492098
185 15.1640235273466 25.2494056760838 50.4988113521677
186 13.7271569479877 19.6195706760863 39.2391413521726
187 82.8606996619694 13.2203743017018 26.4407486034036
188 18.4560320530937 39.0810826760134 78.1621653520269
189 13.3521594933111 32.8393129112529 65.6786258225057
190 24.0204807368774 10.7694914004373 21.5389828008747
191 85.9523423369516 37.1358854332395 74.271770866479
192 71.3744684671138 40.5903275405324 81.1806550810648
193 78.5850410780526 40.469795073697 80.939590147394
194 63.6443191985197 43.8851779178825 87.770355835765
195 82.0597355520612 17.079051585876 34.1581031717521
196 26.6921211129669 42.9354222668474 85.8708445336948
197 82.9187073509382 10.8123532894225 21.6247065788451
198 38.0044789420146 7.34036987038821 14.6807397407764
199 66.9806435710218 6.24689417138059 12.4937883427612
200 18.1254010212634 42.5174700885627 85.0349401771253
201 84.2717253330529 28.0899278115972 56.1798556231945
202 24.0252267647343 39.8723388534352 79.7446777068705
203 82.6877306331711 25.6380344370351 51.2760688740703
204 20.1915821121777 24.4429118652912 48.8858237305825
205 18.2455247210737 30.314865419369 60.629730838738
206 62.0095400594207 8.78329108320395 17.5665821664079
207 17.6075885203849 36.7097403543299 73.4194807086597
208 19.9797929745133 19.4608782416629 38.9217564833258
209 78.2333698697173 15.3305376992621 30.6610753985243
210 82.0637973192982 18.9390612621277 37.8781225242553
211 79.2047608041518 31.2378216645662 62.4756433291323
212 71.2061072775361 36.9413036033094 73.8826072066188
213 28.163725595937 12.6930228383999 25.3860456767998
214 63.1581636524659 40.4248457111625 80.8496914223249
215 49.5048014863978 8.28778282141144 16.5755656428229
216 22.9754770117868 36.7112877050345 73.4225754100689
217 41.3420081998387 41.7229875778957 83.4459751557913
218 79.3345864840119 34.1221253617404 68.2442507234808
219 21.4268490045598 13.9410668999595 27.8821337999189
220 78.9352741604001 37.2116514952101 74.4233029904203
221 37.817933575132 10.1138900028031 20.2277800056063
222 27.3547365709809 39.143399302967 78.2867986059341
223 30.8357656859611 41.8131185996519 83.6262371993039
224 71.3782798661009 6.86833576249711 13.7366715249942
225 87.7517981586705 10.4962298473472 20.9924596946944
226 25.2086715388525 41.3214404711658 82.6428809423317
227 19.3546318308796 44.006799328638 88.0135986572759
228 20.4294616052197 37.7701943594873 75.5403887189746
229 21.8508804708168 41.9485935438618 83.8971870877236
230 79.0336213755611 11.9864234226331 23.9728468452662
231 77.3279519759379 9.37634523122389 18.7526904624478
232 43.7499135094669 10.4277568246826 20.8555136493652
233 64.4498130846806 37.4599131940239 74.9198263880477
234 46.2016448232082 41.5894312136384 83.1788624272768
235 60.3448957402861 11.188865208869 22.377730417738
236 40.9075196503454 39.5561540995964 79.1123081991928
237 73.2305178345486 11.2533653027043 22.5067306054086
238 56.593702934881 41.385129131432 82.770258262864
239 81.9102242256112 23.3077719993302 46.6155439986603
240 73.4096923657977 31.2489420058902 62.4978840117803
241 20.9108766425844 26.0257356118215 52.051471223643
242 32.3483783750705 12.5649635032726 25.1299270065452
243 21.1817139394358 35.6077615652043 71.2155231304087
244 26.4402509725128 16.9111327967764 33.8222655935528
245 73.2256233317177 33.8702736646409 67.7405473292818
246 18.6181693020232 32.4417879351094 64.8835758702188
247 77.9894329183832 17.0937176218602 34.1874352437204
248 55.0685423337577 10.9075702142382 21.8151404284764
249 66.1253762280242 7.95536965668571 15.9107393133714
250 31.5584242783359 39.5649686996447 79.1299373992893
251 19.8506481370363 22.0759453775719 44.1518907551438
252 78.4247972941442 13.5426274417455 27.0852548834911
253 28.6213596418081 37.9178834439501 75.8357668879002
254 81.9968840868443 21.0091957309933 42.0183914619865
255 18.058564773584 27.6464203737484 55.2928407474968
256 78.3787198083231 28.5551893041946 57.1103786083892
257 27.6699141636351 40.7562374749857 81.5124749499713
258 75.9914269336056 10.7074755797143 21.4149511594287
259 25.0845751817113 36.0519491098052 72.1038982196104
260 59.1587117574482 38.8344503211115 77.6689006422231
261 72.880983860638 28.7440018949155 57.4880037898309
262 24.914045515755 24.0310672967699 48.0621345935398
263 77.1594612390051 20.8137860803003 41.6275721606005
264 23.5021503350845 28.0889507097663 56.1779014195326
265 45.7901660829641 39.4542981847852 78.9085963695703
266 59.6430853687323 13.2255923450407 26.4511846900814
267 31.1687073502352 37.9246265217172 75.8492530434343
268 25.7615544482214 19.3814799364973 38.7629598729945
269 65.465638199492 10.4452585602209 20.8905171204417
270 25.5334061690867 34.6117281461695 69.2234562923391
271 68.0769007971056 33.3778993398063 66.7557986796126
272 67.5372152559808 35.0663087016097 70.1326174032194
273 77.754566975222 18.8868915911526 37.7737831823051
274 36.0445060589742 39.6321031364588 79.2642062729175
275 49.4449033575103 10.6990734461311 21.3981468922623
276 74.060892372663 9.2733822052955 18.546764410591
277 23.8433371769029 32.4603771688041 64.9207543376083
278 77.2562967794942 26.0287835621917 52.0575671243834
279 51.2214940862174 41.5667246231587 83.1334492463175
280 73.799335662204 15.4042775668589 30.8085551337178
281 19.5841331610065 34.2081839998297 68.4163679996595
282 37.9513683417323 12.6754608146691 25.3509216293383
283 71.786530609863 12.5800094439917 25.1600188879835
284 74.9947747369295 14.1172142723454 28.2344285446908
285 27.2226327452219 14.4867885449871 28.9735770899742
286 87.3299363279044 20.7748423381202 41.5496846762405
287 13.2782577107449 28.3940025161636 56.7880050323271
288 30.33075931111 36.9159602311862 73.8319204623724
289 49.3582423213505 13.144289085549 26.2885781710979
290 72.039741727667 26.3749616763062 52.7499233526123
291 40.7164712506466 37.4998595822593 74.9997191645185
292 73.1778808567382 20.256054747434 40.512109494868
293 55.5181432035073 39.1226364344128 78.2452728688257
294 68.9713232136483 12.8093783114606 25.6187566229212
295 74.1384492319404 17.1549898472809 34.3099796945617
296 63.8628912148924 35.1312766275923 70.2625532551846
297 54.7205245525268 13.201383372983 26.4027667459661
298 31.9208529425181 36.2210495081071 72.4420990162142
299 43.6764917723617 12.9300424492504 25.8600848985007
300 32.4699258032878 14.8320822647074 29.6641645294148
301 75.7791163044826 23.2480449846431 46.4960899692863
302 24.3588028296941 26.0690487512412 52.1380975024825
303 64.746026482463 13.1794273624952 26.3588547249904
304 25.2676276329174 21.7823791609324 43.5647583218648
305 23.0893632151526 30.1403236563049 60.2806473126098
306 35.4050217912393 37.3776308062521 74.7552616125042
307 69.3254112224411 11.2368994539454 22.4737989078908
308 22.7892432007054 33.7214968119027 67.4429936238055
309 31.1980136291979 19.3737971569968 38.7475943139936
310 29.2689794976199 33.9907389705524 67.9814779411047
311 50.6633161481139 39.3229040671001 78.6458081342002
312 51.526886448748 44.2011869382122 88.4023738764244
313 70.9136024483642 16.0539611277324 32.1079222554648
314 68.130268596864 31.0622233443303 62.1244466886605
315 63.3157463110155 30.8681722557585 61.7363445115169
316 49.6244096944304 15.8426274809168 31.6852549618336
317 29.7613979762189 23.8599613999797 47.7199227999594
318 70.8721610863023 24.2427685756408 48.4855371512816
319 27.9875919185852 28.146159376258 56.2923187525161
320 59.3319452187323 15.4123834287256 30.8247668574513
321 30.5730673322401 32.8551681120626 65.7103362241251
322 50.0548538550237 37.2015801599141 74.4031603198283
323 71.5405989489914 21.7630408574595 43.526081714919
324 66.0284867569717 15.1054672264258 30.2109344528515
325 30.4385545990766 21.6253108253121 43.2506216506242
326 67.7987793768572 28.7690179132481 57.5380358264963
327 63.4458866812904 33.0089722857753 66.0179445715507
328 33.8156013100879 35.1820217790901 70.3640435581802
329 70.2504475120743 17.3331227237321 34.6662454474642
330 36.9411788631232 35.6515942542439 71.3031885084877
331 45.3892088879862 37.3893924094139 74.7787848188278
332 67.8878457710317 14.5427987397077 29.0855974794155
333 27.4715923355526 32.8238939859983 65.6477879719965
334 37.8107016827164 15.0490340663728 30.0980681327457
335 69.1603806607337 9.1181452032757 18.2362904065514
336 54.700355095065 37.0919809772855 74.183961954571
337 54.7803398904384 15.2601344938899 30.5202689877797
338 66.7963784189825 11.4613197637949 22.9226395275898
339 35.4195290759271 21.5411411899561 43.0822823799123
340 58.8814801884736 30.7001473182268 61.4002946364535
341 49.4168447514836 35.1497254935827 70.2994509871654
342 66.6635520852705 24.5302127829523 49.0604255659045
343 52.614077311983 17.1649091758047 34.3298183516094
344 40.6163115512633 35.6952831011017 71.3905662022034
345 63.0403253173963 28.7214528531546 57.4429057063092
346 70.1779805030198 19.4651756672895 38.9303513345791
347 27.1824824719905 30.0046488024237 60.0092976048475
348 28.9747332371729 26.0558344765757 52.1116689531514
349 43.3368828004851 15.3426438553212 30.6852877106424
350 37.4772851319015 34.689075120958 69.378150241916
351 37.2243809367734 17.2870800309942 34.5741600619885
352 62.543172296611 14.9861756717114 29.9723513434228
353 57.7492075854713 16.7389243755645 33.477848751129
354 63.6795718393487 16.0601713139323 32.1203426278647
355 58.7776501578552 32.7976501071922 65.5953002143843
356 67.6642642435119 18.5064377729091 37.0128755458182
357 32.2419195541714 31.8893971715772 63.7787943431544
358 74.0077466830185 18.7016787998533 37.4033575997065
359 69.7901057972541 22.8151571997921 45.6303143995841
360 63.5300951698393 11.459121606538 22.9182432130759
361 26.9124921062334 31.3693816296789 62.7387632593577
362 67.2710200011312 26.5740053492277 53.1480106984553
363 34.6188267256572 23.6782702942299 47.3565405884597
364 39.1892352686705 23.4317612876123 46.8635225752246
365 54.9529407863142 30.3415699369061 60.6831398738122
366 34.3345267545812 26.1052808512915 52.210561702583
367 62.5157328818502 24.5972107996253 49.1944215992506
368 42.4409142598024 17.5681683886521 35.1363367773042
369 66.1735750141876 22.3428338686667 44.6856677373333
370 39.7847143173385 34.2918310932188 68.5836621864376
371 34.6214996572307 30.4164742942188 60.8329485884375
372 44.8396101060581 35.4475993792703 70.8951987585406
373 58.7178899089101 28.7619387045126 57.5238774090253
374 36.3275526787054 19.4408860843892 38.8817721687784
375 37.7002149819554 33.3029600560572 66.6059201121143
376 54.1465188367339 34.9828191486188 69.9656382972376
377 31.863723351377 17.0966305522356 34.1932611044712
378 62.7150668968527 26.5973026102509 53.1946052205017
379 65.6318809051211 19.6363943851911 39.2727887703823
380 61.3744700341893 17.0096309022953 34.0192618045905
381 30.7528302687455 30.0636814342916 60.1273628685832
382 71.5045705628411 18.5473188471566 37.0946376943132
383 29.2504909409833 31.5059558181049 63.0119116362097
384 68.4218908027111 20.7286435041241 41.4572870082483
385 59.018535477807 35.0237623073572 70.0475246147145
386 32.1143575544568 28.3222732639386 56.6445465278772
387 35.5497180660563 34.1958466871699 68.3916933743397
388 55.7644168497904 28.9590158197602 57.9180316395204
389 62.0798885050017 22.8630912553885 45.726182510777
390 58.7438289347961 24.4112516899564 48.8225033799128
391 37.4804427579336 27.2461753285293 54.4923506570586
392 40.0711334617245 32.3174346075932 64.6348692151863
393 48.6608162531185 33.2845062615362 66.5690125230724
394 43.7458028849285 33.4267030322186 66.8534060644373
395 40.1199581880856 21.5372524234556 43.0745048469112
396 63.3650477382086 20.7072933644193 41.4145867288386
397 47.4135370056617 18.0434752931643 36.0869505863287
398 59.0077759276687 17.7378793741971 35.4757587483943
399 53.315582899176 32.512104306488 65.0242086129761
400 37.4409730741576 29.9505425363313 59.9010850726627
401 59.3065767393095 37.2123626956467 74.4247253912935
402 57.7184602588841 26.4743941236715 52.9487882473429
403 38.9658701366513 25.1681237668678 50.3362475337355
404 45.8872277248363 19.8984830972251 39.7969661944501
405 49.7816531788587 31.1833786371864 62.3667572743729
406 42.604264616591 24.8420990525185 49.684198105037
407 45.3949557629292 31.7581553122032 63.5163106244064
408 53.3159405586603 27.8173643501255 55.634728700251
409 54.6947868317396 24.9169483649334 49.8338967298669
410 43.31696820178 23.2766254094092 46.5532508188185
411 58.8576676315928 22.9254580998634 45.8509161997268
412 42.1319938993547 31.182401458494 62.3648029169881
413 56.3172811908096 18.1857485193136 36.3714970386272
414 60.8461298166824 21.5207173520733 43.0414347041465
415 35.6161341336913 28.6630448783237 57.3260897566474
416 41.2160039231978 19.608388777442 39.2167775548841
417 38.1811417994835 28.9565718819438 57.9131437638876
418 39.3746855125729 26.2936841388149 52.5873682776299
419 57.4422020875163 19.1108436656004 38.2216873312008
420 50.1818337211938 23.0948320123099 46.1896640246197
421 53.7258553314851 20.9276656386992 41.8553312773984
422 43.9064688735702 30.0261721580784 60.0523443161568
423 51.5103537527092 29.7437925391431 59.4875850782862
424 44.4306887167011 21.6293939855462 43.2587879710925
425 42.437872496151 26.4736368559953 52.9472737119906
426 52.4552344902614 18.6661541362065 37.332308272413
427 45.8686413960627 24.7394346530894 49.4788693061788
428 52.2691608255963 25.8742795039169 51.7485590078339
429 56.2663396103596 24.0593636009984 48.1187272019968
430 55.823626475789 19.8303739386272 39.6607478772544
431 58.8542511386128 21.9676985083354 43.9353970166708
432 40.2391660367487 27.8680216301923 55.7360432603847
433 55.2809980613307 16.8710040455646 33.7420080911292
434 48.3340847718696 21.8136336127628 43.6272672255256
435 46.9601382915691 23.2073587048319 46.4147174096639
436 45.4592785656138 28.926366572578 57.852733145156
437 49.2424671758299 27.8165950849433 55.6331901698867
438 45.2260524119189 25.9235068675337 51.8470137350675
439 48.3191878616439 29.2574235837396 58.5148471674792
440 49.2258235166374 24.0983811491269 48.1967622982539
441 51.8082023617568 22.1026106988648 44.2052213977296
442 50.046429243388 20.3537654617184 40.7075309234369
443 47.9888653674699 32.0934996816005 64.1869993632009
444 50.1778541103428 26.3678579430479 52.7357158860957
445 46.4054343776354 28.0883585495573 56.1767170991146
446 46.8473308031378 30.5289575003278 61.0579150006556
447 100 50 100
448 25 50 100
449 125 50 100
450 125 200 300
451 25 200 300
452 26.05 134.77 213.02
453 100 162.5 250
454 100.54 82.47 143.29
455 92.5 50 100
456 85 50 100
457 77.5 50 100
458 70 50 100
459 62.5 50 100
460 55 50 100
461 47.5 50 100
462 40 50 100
463 32.5 50 100
464 108.333333333333 50 100
465 116.666666666667 50 100
466 125 54.5454545454545 106.060606060606
467 125 59.0909090909091 112.121212121212
468 125 63.6363636363636 118.181818181818
469 125 68.1818181818182 124.242424242424
470 125 72.7272727272727 130.30303030303
471 125 77.2727272727273 136.363636363636
472 125 81.8181818181818 142.424242424242
473 125 86.3636363636364 148.484848484848
474 125 90.9090909090909 154.545454545455
475 125 95.4545454545455 160.606060606061
476 125 100 166.666666666667
477 125 104.545454545455 172.727272727273
478 125 109.090909090909 178.787878787879
479 125 113.636363636364 184.848484848485
480 125 118.181818181818 190.909090909091
481 125 122.727272727273 196.969696969697
482 125 127.272727272727 203.030303030303
483 125 131.818181818182 209.090909090909
484 125 136.363636363636 215.151515151515
485 125 140.909090909091 221.212121212121
486 125 145.454545454545 227.272727272727
487 125 150 233.333333333333
488 125 154.545454545455 239.393939393939
489 125 159.090909090909 245.454545454545
490 125 163.636363636364 251.515151515152
491 125 168.181818181818 257.575757575758
492 125 172.727272727273 263.636363636364
493 125 177.272727272727 269.69696969697
494 125 181.818181818182 275.757575757576
495 125 186.363636363636 281.818181818182
496 125 190.909090909091 287.878787878788
497 125 195.454545454545 293.939393939394
498 117.307692307692 200 300
499 109.615384615385 200 300
500 101.923076923077 200 300
501 94.2307692307692 200 300
502 86.5384615384615 200 300
503 78.8461538461538 200 300
504 71.1538461538461 200 300
505 63.4615384615385 200 300
506 55.7692307692308 200 300
507 48.0769230769231 200 300
508 40.3846153846154 200 300
509 32.6923076923077 200 300
510 25 195.454545454545 293.939393939394
511 25 190.909090909091 287.878787878788
512 25 186.363636363636 281.818181818182
513 25 181.818181818182 275.757575757576
514 25 177.272727272727 269.69696969697
515 25 172.727272727273 263.636363636364
516 25 168.181818181818 257.575757575758
517 25 163.636363636364 251.515151515152
518 25 159.090909090909 245.454545454545
519 25 154.545454545455 239.393939393939
520 25 150 233.333333333333
521 25 145.454545454545 227.272727272727
522 25 140.909090909091 221.212121212121
523 25 136.363636363636 215.151515151515
524 25 131.818181818182 209.090909090909
525 25 127.272727272727 203.030303030303
526 25 122.727272727273 196.969696969697
527 25 118.181818181818 190.909090909091
528 25 113.636363636364 184.848484848485
529 25 109.090909090909 178.787878787879
530 25 104.545454545455 172.727272727273
531 25 100 166.666666666667
532 25 95.4545454545455 160.606060606061
533 25 90.9090909090909 154.545454545455
534 25 86.3636363636364 148.484848484848
535 25 81.8181818181818 142.424242424242
536 25 77.2727272727273 136.363636363636
537 25 72.7272727272727 130.30303030303
538 25 68.1818181818182 124.242424242424
539 25 63.6363636363636 118.181818181818
540 25 59.0909090909091 112.121212121212
541 25 54.5454545454545 106.060606060606
542 28.6 135.726206896552 214.295172413793
543 31.15 136.682413793103 215.570344827586
544 33.7 137.638620689655 216.845517241379
545 36.25 138.594827586207 218.120689655172
546 38.8 139.551034482759 219.395862068966
547 41.35 140.50724137931 220.671034482759
548 43.9 141.463448275862 221.946206896552
549 46.45 142.419655172414 223.221379310345
550 49 143.375862068966 224.496551724138
551 51.55 144.332068965517 225.771724137931
552 54.1 145.288275862069 227.046896551724
553 56.65 146.244482758621 228.322068965517
554 59.2 147.200689655172 229.59724137931
555 61.75 148.156896551724 230.872413793103
556 64.3 149.113103448276 232.147586206897
557 66.85 150.069310344828 233.42275862069
558 69.4 151.025517241379 234.697931034483
559 71.95 151.981724137931 235.973103448276
560 74.5 152.937931034483 237.248275862069
561 77.05 153.894137931034 238.523448275862
562 79.6 154.850344827586 239.798620689655
563 82.15 155.806551724138 241.073793103448
564 84.7 156.76275862069 242.348965517241
565 87.25 157.718965517241 243.624137931034
566 89.8 158.675172413793 244.899310344828
567 92.35 159.631379310345 246.174482758621
568 94.9 160.587586206897 247.449655172414
569 97.45 161.543793103448 248.724827586207
570 117.785434472475 109.264892100792 179.01985613439
571 32.2491636986582 73.3297219258465 131.106295901129
572 32.1783158559782 100.169525878188 166.892701170918
573 32.240086323249 113.578447681448 184.771263575265
574 70.5842870967455 195.515828365321 294.021104487095
575 117.761482500116 122.825424147714 197.100565530285
576 92.8819608186413 54.6989049631201 106.265206617493
577 32.902932181751 168.122660614322 257.496880819096
578 116.060195842846 137.205733851071 216.274311801428
579 118.098003096389 145.821793518284 227.762391357712
580 118.297027758662 177.374480993733 269.832641324977
581 32.0911818873368 154.708553973885 239.611405298513
582 101.311677517972 195.415840354496 293.887787139328
583 47.7615212467023 54.4567793972977 105.94237252973
584 117.781720001355 95.7353413219317 160.980455095909
585 117.533062786398 59.16571176403 112.220949018707
586 116.564558417637 154.898698494865 239.864931326487
587 116.957240642102 163.91554703678 251.88739604904
588 117.817613602346 82.0520481981724 142.73606426423
589 118.220210869526 68.011757520533 124.015676694044
590 55.3676900337829 195.55251449625 294.070019328334
591 32.3949853205377 177.25457141989 269.672761893187
592 32.4384985167521 186.346193427233 281.794924569645
593 117.551844047233 185.971204342539 281.294939123386
594 32.0501490210095 82.3319244404011 143.109232587201
595 32.8914336974276 126.325636877572 201.767515836762
596 117.096197489667 195.292702887681 293.723603850242
597 62.7028271709779 54.2701734626491 105.693564616865
598 32.5824069405085 54.5744241798882 106.099232239851
599 40.2329598497765 195.464000362038 293.952000482718
600 116.568778980238 86.9191372198435 149.225516293125
601 117.738698375718 100.224997353286 166.966663137715
602 118.172915957858 168.847416875684 258.463222500913
603 31.3744209472314 145.57925721573 227.439009620973
604 32.1400812367679 159.06661235288 245.42214980384
605 118.174198810562 72.3422184478918 129.789624597189
606 100.976401562428 54.8097681184493 106.413024157932
607 77.4280518918422 54.2974130691307 105.729884092174
608 86.2011751493394 195.531771934938 294.042362579917
609 32.0458417774929 91.315518327735 155.087357770313
610 32.2245308811688 104.622088357862 172.829451143816
611 117.707387236078 127.341324058662 203.12176541155
612 32.8351413268076 64.0587218326752 118.744962443567
613 32.5353628881158 190.906605074619 287.875473432825
614 32.1569631436719 118.010857584879 190.681143446506
615 117.7647036265 113.793226261016 185.057635014688
616 32.6181790475753 195.454759695358 293.93967959381
617 117.081827427061 54.6029484790242 106.137264638699
618 33.0993855384933 132.628747931508 210.171663908678
619 28.8994546456482 138.537087765961 218.049450354615
620 29.0689501121961 133.137147248372 210.849529664495
621 39.219705106113 100.392313223876 167.189750965169
622 39.1581718274399 117.842913406537 190.457217875383
623 110.657321008089 122.903083903989 197.204111871985
624 109.591531359401 95.7485553053382 160.998073740451
625 38.49745264169 154.970722799627 239.960963732836
626 111.97997882985 71.7774169582514 129.036555944335
627 92.9702349139103 59.7677201605448 113.023626880726
628 110.988851095695 166.047770342951 254.730360457268
629 110.444269836462 85.454424364189 147.272565818919
630 32.1759894571736 122.305348607653 196.40713147687
631 33.0914850882559 149.858629260338 233.144839013784
632 117.833572740098 91.4248871618803 155.233182882507
633 118.084532836453 159.303445460917 245.737927281223
634 110.013567015579 59.3831799580851 112.51090661078
635 116.953578145646 77.1834823058094 136.244643074413
636 118.404937006608 173.146919612656 264.195892816875
637 117.775782327496 150.048507514359 233.398010019146
638 32.6732473970636 163.514158449104 251.352211265472
639 117.894107148462 141.714120353585 222.28549380478
640 118.035750748348 181.605964796813 275.474619729084
641 117.954763875251 63.643630166933 118.191506889244
642 117.324052799158 131.92929847877 209.23906463836
643 84.9882343003834 54.4616427296155 105.948856972821
644 31.4958003147579 142.163307733355 222.88441031114
645 32.6821396113363 172.736720441009 263.648960588013
646 32.0949903875426 95.7583929109016 161.011190547869
647 78.4186665519309 195.442566491173 293.923421988231
648 117.803883062852 104.756400118292 173.008533491056
649 70.0613736640011 54.2466650961754 105.662220128234
650 31.998808928214 86.8538720901392 149.138496120186
651 32.1158918793022 77.8571569274389 137.142875903252
652 109.077538445578 54.7254362464282 106.300581661904
653 62.909963501099 195.578063239252 294.104084319003
654 93.7606043684395 195.568555931238 294.091407908317
655 117.770706674852 118.312129934988 191.082839913317
656 32.5559081192149 68.7958338750152 125.061111833354
657 55.2773146701945 54.3437983879428 105.791731183924
658 109.083987252799 195.23424374775 293.645658330333
659 32.2453431768255 109.102625055579 178.803500074105
660 32.365099650005 181.803396413485 275.737861884646
661 47.8059323659704 195.504290270761 294.005720361014
662 117.090845737892 190.534473561681 287.379298082241
663 32.7921154382348 59.2760039991897 112.368005332253
664 40.2053593324698 54.5585301606774 106.078040214236
665 40.0341533204449 190.9453503683 287.9271338244
666 32.723697791277 134.671093984356 212.894791979141
667 32.6437330618386 139.229813294485 218.973084392647
668 38.8590904633498 87.444912707156 149.926550276208
669 78.2151348784419 190.147083458321 286.862777944428
670 40.3823100648126 173.098144549648 264.130859399531
671 70.1241754115863 58.3838956872711 111.178527583028
672 111.4097529015 139.843888445271 219.791851260361
673 111.354660276804 181.267920386222 275.023893848296
674 39.8284326847919 69.753889035266 126.338518713688
675 62.1648813536717 191.231360644751 288.308480859669
676 111.225042205556 149.769901490446 233.026535320594
677 109.194728593895 162.962076670916 250.616102227888
678 111.812312390503 82.1743497866195 142.899133048826
679 112.554600296082 159.501945455279 246.002593940372
680 37.1202961789412 147.808912204277 230.411882939036
681 93.2821910504317 191.343952373166 288.458603164221
682 111.772411027226 67.9001595335402 123.866879378054
683 55.771537766957 58.6599374606274 111.546583280837
684 111.733811063163 91.6507680032695 155.534357337693
685 47.467326403289 191.04224115136 288.056321535147
686 110.674799035876 105.075211912181 173.433615882908
687 40.7032869579747 59.2940272911386 112.392036388185
688 39.0958992963172 125.788081412791 201.050775217055
689 36.0231941061245 132.383777667918 209.845036890558
690 101.657687795786 60.1187455198752 113.491660693167
691 38.9983837338242 121.944036980775 195.925382641033
692 39.0690702268328 96.0896598461803 161.452879794907
693 41.0092127181333 162.930048556911 250.573398075882
694 38.7219801475747 158.76044495413 245.013926605507
695 111.042659345389 63.8049245493983 118.406566065864
696 39.6575976512828 181.925656948103 275.900875930804
697 110.641455503561 118.474102130883 191.298802841178
698 39.1340143166027 78.6038469915097 138.138462655346
699 110.1075513742 131.68840287638 208.91787050184
700 110.398034648679 100.63701863338 167.516024844507
701 107.978377495785 189.75969191698 286.346255889307
702 112.017764219817 89.1215797917075 152.162106388943
703 36.6332101007984 142.376908080942 223.169210774589
704 39.8112285583864 186.444078789191 281.925438385588
705 39.3790174291873 109.15630633231 178.875075109747
706 39.2995470603055 104.763916492339 173.018555323119
707 39.3019910680013 113.536853897728 184.71580519697
708 36.7145632398763 136.76957824931 215.69277099908
709 112.109349333488 173.529390994754 264.705854659672
710 110.575439972758 127.297332465765 203.063109954353
711 39.5563498855451 151.419214059926 235.225618746568
712 111.945912992943 169.658446402416 259.544595203221
713 110.275179616074 77.1056945261582 136.140926034878
714 34.4753385214743 136.451387248136 215.268516330849
715 36.114480604676 140.389368611481 220.519158148642
716 45.0742471411384 125.431462469891 200.575283293188
717 45.8747894741008 96.4411702509117 161.921560334549
718 46.3105189961441 109.244496455849 178.992661941132
719 103.733086645084 122.961212692472 197.281616923296
720 89.9213603150348 63.3958118514667 117.861082468622
721 47.5153959045695 163.882344743618 251.843126324824
722 43.9895614593682 155.137657040577 240.18354272077
723 106.260937726482 71.3674362970561 128.489915062741
724 106.203448912927 173.805447188648 265.073929584864
725 110.649450459252 114.015596463242 185.354128617656
726 40.9588796555904 148.427464933326 231.236619911102
727 104.913073161521 164.149903845604 252.199871794139
728 110.037903564563 153.321082673256 237.761443564341
729 107.063949059217 82.1293555246475 142.83914069953
730 108.306082554483 88.4322116875321 151.242948916709
731 77.243677630201 58.4003980455966 111.200530727462
732 111.711178961084 146.013646402142 228.018195202856
733 96.132740308528 62.4216213785963 116.562161838128
734 104.773823954845 64.2754565869735 119.033942115965
735 110.477486111414 185.220470002559 280.293960003413
736 86.301827105534 191.211196917271 288.281595889694
737 63.0065945385955 58.4733478330533 111.297797110738
738 108.79285515301 135.81076317572 214.41435090096
739 39.7848814714506 177.517902930797 270.023870574396
740 69.6125984877222 191.023014721363 288.03068629515
741 39.3379564745815 74.1768977165976 132.23586362213
742 36.7441192788376 145.567144362117 227.42285914949
743 103.2694715203 101.301492005042 168.401989340057
744 54.8204652152526 191.168028222213 288.224037629617
745 46.812110542684 182.250127040825 276.3335027211
746 42.0153169513653 64.8900309655749 119.853374620767
747 42.1236189349141 143.448819415039 224.598425886719
748 110.692808720641 109.551022439379 179.401363252505
749 106.374855103177 170.361341377903 260.481788503871
750 46.2203377304497 104.93469011687 173.24625348916
751 38.9546038112173 83.0527599032564 144.070346537675
752 47.0829969231529 186.636958123205 282.18261083094
753 45.4850235236363 121.66927557317 195.55903409756
754 100.182762257484 191.061194396008 288.081592528011
755 45.9029548288477 117.67332273066 190.231096974214
756 48.4342813593805 59.0064559933821 112.008607991176
757 103.365494176687 131.346366192564 208.461821590085
758 42.1439484075365 168.17083297566 257.561110634213
759 111.863991672892 177.373906184461 269.831874912614
760 36.7231877822704 134.718962248811 212.958616331748
761 42.5677122978531 138.447555167626 217.930073556834
762 112.613663561502 161.962149801416 249.282866401888
763 111.454867373466 79.054894425034 138.739859233379
764 38.9094795742347 91.7878914865106 155.717188648681
765 45.9138286073916 83.8370789688328 145.116105291777
766 74.449105495008 185.983965072734 281.311953430312
767 102.344190200019 97.4280305890203 163.237374118694
768 50.992231426128 125.175665401396 200.234220535194
769 52.9824706154689 105.107085316126 173.476113754834
770 103.719895487395 109.900405638381 179.867207517842
771 105.502155126132 149.345265365261 232.460353820348
772 101.183139892137 170.78971032135 261.052947095133
773 63.4465905993251 62.569600476254 116.759467301672
774 46.292782861817 74.921605190204 133.228806920272
775 103.664676012072 118.647150664265 191.52953421902
776 88.706776324803 66.7417156961756 122.322287594901
777 40.4156191957954 132.129939853331 209.506586471108
778 45.6597983389069 92.2747027082871 156.366270277716
779 86.7595716046994 187.380538643615 283.17405152482
780 103.485758837996 186.97940849271 282.639211323614
781 105.69682207143 93.6135221515146 158.151362868686
782 46.9415228365893 178.005573272592 270.674097696789
783 44.1806480763649 158.3235837044 244.4314449392
784 107.164436487598 139.36997953883 219.15997271844
785 102.482671252088 135.275682411587 213.700909882116
786 53.7682606419079 182.668579442379 276.891439256506
787 41.5035492071162 145.805774745971 227.741032994628
788 46.8032719473611 67.789822532537 123.719763376716
789 105.820092014915 84.7469070872774 146.329209449703
790 103.664137057827 105.564249696089 174.085666261453
791 105.976872935121 167.104470003871 256.139293338494
792 44.5674870373651 151.96682624106 235.955768321413
793 56.6228699302723 62.8611093141986 117.148145752265
794 51.7545393965876 121.445060819781 195.260081093042
795 105.764826452169 67.9078368195209 123.877115759361
796 61.2410140544724 187.022948659092 282.697264878789
797 49.779961753532 63.3905856090282 117.854114145371
798 46.1737277754607 113.506801820204 184.675735760272
799 46.0448956720904 100.662288579671 167.549718106228
800 54.2270536608023 186.872115196573 282.496153595431
801 103.713682917434 127.196208251082 202.928277668109
802 70.2243998144972 62.3744010149975 116.49920135333
803 44.9775799054314 128.807821317348 205.077095089797
804 105.755918041501 177.317268050737 269.756357400982
805 107.126767304647 79.5324970974163 139.376662796555
806 39.7140050617285 137.528310743039 216.704414324052
807 45.6577399048615 143.981286967196 225.308382622928
808 106.547096481598 74.4284016690754 132.571202225434
809 83.6722214686848 62.6007159234251 116.800954564567
810 112.204190031708 157.11570715101 242.820942868013
811 96.9282463379443 131.084918823863 208.113225098484
812 96.8252437233939 118.781464380583 191.708619174111
813 56.8208873949819 125.096732417179 200.128976556239
814 96.8765211417344 106.065541721013 174.754055628017
815 48.8939707896934 155.148180520105 240.197574026807
816 104.737992480184 152.58900881881 236.785345091747
817 43.6322485513102 136.937019366519 215.916025822025
818 63.9643646609488 66.5122040904282 122.016272120571
819 50.4067453948921 128.578510613617 204.771347484823
820 53.8063089502393 178.612550241341 271.483400321787
821 52.5111954915993 96.8014690992819 162.401958799043
822 101.419356643445 167.787488054387 257.049984072516
823 101.447705021246 74.3415072484182 132.455342997891
824 106.880927025388 159.797632361195 246.39684314826
825 82.7621971451049 66.1850072376817 121.580009650242
826 47.8275607397865 140.388509935503 220.518013247337
827 47.4710026890036 148.999569010756 231.999425347674
828 101.521203969033 94.1029018187917 158.803869091722
829 105.922174428042 145.959693912976 227.946258550635
830 51.3812397784347 67.3045235682084 123.072698090944
831 102.760433000836 87.5677039479875 150.09027193065
832 105.148457802969 180.881761101158 274.509014801544
833 99.0533354248883 187.326198207596 283.101597610128
834 52.748971697923 100.925994748647 167.90132633153
835 101.461672368262 138.937987004656 218.583982672875
836 46.2881712527778 79.3845235795829 139.179364772777
837 47.7744686983848 173.934505462269 265.246007283025
838 103.679302793765 114.282154190691 185.709538920921
839 96.4900768080691 101.983295934186 169.311061245581
840 68.1220039774889 186.830132361535 282.440176482047
841 60.4908440808641 182.989258597695 277.319011463593
842 46.3565578350754 70.7296821499444 127.639576199926
843 97.0803745495715 127.081363624309 202.775151499079
844 100.087514461599 67.886237337577 123.848316450103
845 52.8652676281591 113.473372549176 184.631163398902
846 52.998110565702 109.304327548374 179.072436731166
847 100.621711090183 173.949320662431 265.265760883241
848 45.7912435186729 145.903932114285 227.871909485714
849 102.804240282746 161.76276490713 249.017019876174
850 52.3849463118171 117.517179007747 190.022905343663
851 41.3314608002552 135.206517320363 213.608689760483
852 103.13673138051 79.7101563810197 139.61354184136
853 34.5865771880959 129.653292746271 206.204390328361
854 39.7128916599661 129.103902259772 205.471869679696
855 106.764802386501 77.0537560302564 136.071674707008
856 45.6401557213283 88.0959840686256 150.794645424834
857 108.409793735738 156.433128381664 241.910837842219
858 102.243328753488 84.1685287495972 145.558038332796
859 76.9448484637799 62.3408637799438 116.454485039925
860 47.9164567207756 144.215872383905 225.621163178539
861 82.0409991992545 187.126512823277 282.835350431036
862 111.956010394074 75.1392171993137 133.518956265752
863 106.282857072526 142.608981642561 223.478642190081
864 84.5722580860798 58.7433191713975 111.657758895197
865 101.094489796778 165.081121679854 253.441495573138
866 104.395073968868 184.393832400749 279.191776534332
867 52.7397271515194 84.7511723326378 146.334896443517
868 95.6137896739488 94.3778042667136 159.170405688951
869 60.3481578669227 179.126174295435 272.168232393913
870 58.9914306944201 97.1568680884319 162.875824117909
871 55.7989310041363 128.559465821101 204.745954428134
872 90.7041894169961 130.841276555057 207.788368740076
873 59.531820832844 105.284791426785 173.713055235714
874 58.7079281463897 117.427848466466 189.903797955288
875 96.1727183375935 170.98724406026 261.31632541368
876 90.0447157281309 102.418182500429 169.890910000572
877 100.331259247881 148.920998585606 231.894664780808
878 76.4696278002156 182.081054586859 276.108072782478
879 82.004127301594 69.5258954617605 126.034527282347
880 98.8181738001163 183.9785708464 278.638094461866
881 103.630038913133 155.605341576537 240.80712210205
882 96.830963758184 114.525689094969 186.034252126625
883 70.3117156735366 66.2028478829465 121.603797177262
884 100.821863439802 142.36989612014 223.15986149352
885 52.2875632843137 92.7644865260026 157.019315368004
886 49.3949608385944 170.23101052082 260.30801402776
887 46.0064754769674 134.550459290277 212.733945720369
888 99.9586767184566 177.236537001073 269.648716001431
889 49.1480999657374 158.028303288481 244.037737717975
890 98.2173073648916 165.590827261056 254.121103014742
891 66.8728899791871 183.017384210941 277.356512281254
892 48.4585805277144 152.3280413789 236.437388505201
893 102.053765485007 158.214692397215 244.28625652962
894 53.0940927902037 75.1135072271918 133.484676302922
895 96.9123073131842 110.273237030559 180.364316040746
896 100.898748904464 85.691185187727 147.588246916969
897 96.3468325824475 134.897741329992 213.196988439989
898 52.3863448542909 71.0287125224162 128.038283363222
899 59.2455623601906 113.443699433203 184.591599244271
900 100.551241743776 71.2071108751855 128.276147833581
901 51.1024376989571 146.654869796306 228.873159728408
902 96.9876885806522 122.960658830164 197.280878440219
903 76.5892321876863 66.0607778672756 121.414370489701
904 102.407294319642 77.1405358388387 136.187381118452
905 57.8237173044217 121.3313244187 195.108432558267
906 101.740963687104 91.0397727526155 154.719697003487
907 45.2493500874588 139.419050125935 219.225400167913
908 50.155698831929 131.63489728419 208.846529712254
909 45.3394445408378 131.821742759225 209.0956570123
910 99.6409350508418 64.7109767709014 119.614635694535
911 80.4201507789329 183.904372714757 278.539163619675
912 54.6045766075624 174.777539900693 266.370053200924
913 111.798693595662 142.407267999753 223.209690666337
914 99.3166410517741 180.620986923261 274.161315897681
915 49.0798592524513 145.317812258329 227.090416344438
916 30.7941476355889 130.892336925183 207.856449233577
917 55.9244880488023 171.12438868767 261.499184916893
918 95.3425105103114 142.024725555059 222.699634073412
919 54.9262784635932 131.58168383755 208.775578450067
920 54.6131448568212 143.468810195965 224.625080261287
921 60.9470523762475 129.016166771504 205.354889028672
922 63.7891190193033 121.509221685797 195.345628914396
923 90.2986370806148 110.539068109145 180.71875747886
924 90.1831048145838 118.826699832577 191.768933110103
925 55.082271777624 157.58638623221 243.44851497628
926 48.8081658813698 138.893388085497 218.524517447329
927 82.219726989333 180.041196856855 273.388262475807
928 66.4989081698478 179.399515781558 272.532687708744
929 96.4335333812421 74.7553112924018 133.007081723202
930 58.7169716030931 93.2192276949338 157.625636926578
931 52.7897306406694 153.112229370692 237.482972494256
932 90.3763506766234 134.574112499798 212.765483333063
933 97.7892626084089 85.6022496655001 147.469666220667
934 93.5629959995747 180.454749642838 273.93966619045
935 64.4759695835825 70.2864349497082 127.048579932944
936 96.2975572715518 90.9863576303107 154.648476840414
937 87.5794567666818 69.975351137944 126.633801517259
938 52.4803823977537 148.630593875248 231.50745850033
939 50.3432668013092 134.315658397634 212.420877863512
940 99.9279517417931 151.984941648743 235.979922198324
941 54.6536096057396 80.1576301004104 140.210173467214
942 99.6417496467883 80.1207189594432 140.160958612591
943 93.7827242858592 71.3599400641205 128.479920085494
944 95.8660674318147 98.0605658497806 164.080754466374
945 61.0388888994408 175.411728866923 267.215638489231
946 76.2689632896313 69.563162015457 126.084216020609
947 90.3405359044157 106.435742818132 175.247657090843
948 64.7613180632444 117.57163443185 190.0955125758
949 98.1924817269741 157.271690036276 243.028920048368
950 59.2831735895446 101.201311170043 168.268414893391
951 97.032569010416 168.155335528896 257.540447371862
952 90.6731458147368 126.945804831619 202.594406442159
953 95.250207504335 173.986033410849 265.314711214466
954 52.3001487149236 88.7567252383689 151.675633651159
955 94.425926046429 67.510175486226 123.346900648301
956 100.56887148544 145.674925346684 227.566567128912
957 59.4860811051113 109.389213426928 179.18561790257
958 51.3241427259639 167.054487419059 256.072649892079
959 59.4098006902176 74.6001291220678 132.800172162757
960 87.1760963983056 183.816401965939 278.421869287919
961 52.4428532674475 143.14196139664 224.189281862186
962 58.4409573495071 70.7239814593753 127.631975279167
963 54.1550897448284 147.54928993229 230.06571990972
964 106.734427496042 91.3295040236818 155.106005364909
965 99.1203290451771 83.6199685478524 144.82662473047
966 99.8741450866915 160.147650007223 246.863533342964
967 98.6680719511845 62.5539899657171 116.738653287623
968 72.5993372947287 182.629882544997 276.839843393329
969 48.6301447582739 160.922266764674 247.896355686233
970 97.7618081836735 163.92642379755 251.901898396734
971 91.0496953803606 90.5158459839254 154.021127978567
972 65.2779331053856 97.5548343778092 163.406445837079
973 84.578728970957 134.278563551272 212.371418068363
974 59.7329395224002 131.778806971199 209.038409294931
975 92.5226808682845 168.205210242331 257.606946989774
976 62.3658347182454 171.783112542909 262.377483390545
977 65.848454656491 105.569016371614 174.092021828819
978 89.4084261580633 98.4048101285858 164.539746838114
979 57.268182626825 167.60301243837 256.804016584494
980 69.7638324218953 122.223045741536 196.297394322048
981 81.4216066890428 72.6946069610588 130.259475948078
982 95.3998813465603 151.469898754571 235.293198339428
983 84.0435218953918 106.549502729836 175.399336973115
984 95.345681421913 145.327860766887 227.10381435585
985 65.1659549765829 73.8611433902587 131.814857853678
986 59.418305797429 82.7791635721697 143.70555142956
987 53.8179888947086 161.050742831189 248.067657108252
988 95.1480827782755 83.1589346287091 144.211912838279
989 72.0925365135924 179.463430467709 272.617907290279
990 58.6702912907442 89.3544710421698 152.472628056226
991 95.5005455156294 163.431351936031 251.241802581375
992 61.1830832143034 78.2728440536423 137.697125404856
993 54.9179392147539 141.40535882137 221.873811761827
994 95.7425027703749 138.526544809095 218.035393078793
995 67.1194110809621 175.871369989607 267.828493319476
996 54.7061162229681 149.484347035957 232.645796047943
997 53.4097181240086 154.828070575292 239.770760767057
998 98.1779768091476 77.5509725911044 136.734630121473
999 54.4345974535545 134.178307133306 212.237742844408
1000 70.4241813768339 69.8409291296071 126.45457217281
1001 90.4368047512353 122.927543255979 197.236724341305
1002 84.708632031874 130.571488555203 207.428651406937
1003 91.2278413644794 170.98535510146 261.313806801947
1004 90.1942933307688 114.656442836336 186.208590448448
1005 87.8272706800847 180.331688727064 273.775584969419
1006 94.3680122025754 177.159459910358 269.545946547144
1007 62.4102986674588 125.427054430908 200.569405907877
1008 65.3868660879399 113.601851695295 184.80246892706
1009 51.1012713289189 141.494422075475 221.9925627673
1010 96.5379708722243 80.7529130499876 141.00388406665
1011 97.1041843419503 88.0034767052468 150.671302273662
1012 90.338410950194 73.275120621576 131.033494162101
1013 77.1565369975337 179.646639851161 272.862186468215
1014 95.0657939478767 64.4185294307723 119.224705907696
1015 57.5770307187641 66.8516582657873 122.468877687716
1016 103.164553753095 82.0767520323516 142.769002709802
1017 93.1208950342411 183.906132600626 278.541510134168
1018 57.0378752199699 148.355484990151 231.140646653535
1019 51.8348248568892 150.776549626168 234.368732834891
1020 44.7641501989966 160.596878121324 247.462504161766
1021 52.7687022161805 164.083859347884 252.111812463845
1022 87.7814845841864 168.056777776108 257.409037034811
1023 64.4303281597126 167.765203955836 257.020271941114
1024 79.1097992102871 134.227567147228 212.30342286297
1025 90.1874098382634 144.98517856262 226.64690475016
1026 60.326327097653 158.361250737972 244.48166765063
1027 68.4781957012945 172.453161753638 263.270882338184
1028 93.4623473978009 81.4706017538891 141.960802338519
1029 65.8502132990302 129.988704516909 206.651606022545
1030 57.480878139034 134.214312973616 212.285750631488
1031 91.3364798450806 75.8144746463804 134.419299528507
1032 56.5049127148197 151.821082872855 235.761443830473
1033 67.9113022560634 126.263818816033 201.68509175471
1034 70.6633894080247 73.2770222597682 131.036029679691
1035 84.0495657692734 122.976057970361 197.301410627148
1036 60.3595985930777 145.497178874592 227.329571832789
1037 67.3504080354225 79.4459922762003 139.261323034934
1038 83.4272008076441 176.787260455335 269.049680607113
1039 95.4251133609971 148.483546223172 231.311394964229
1040 88.299606473141 94.2574649568839 159.009953275845
1041 83.8138088992744 102.522126673686 170.029502231582
1042 90.0738927539729 138.166435911852 217.55524788247
1043 76.0937708361296 72.889570740755 130.51942765434
1044 65.6145862775683 101.560306664416 168.747075552555
1045 84.6066402431472 126.857631041625 202.476841388834
1046 93.8788955029715 165.615238962136 254.153651949515
1047 64.7535439126159 89.8278991117754 153.103865482367
1048 64.9182614308593 93.6553740149858 158.207165353314
1049 78.1558361839744 176.513369670925 268.684492894566
1050 83.693827755784 118.806955867759 191.742607823679
1051 88.8707580375376 177.025959818107 269.367946424142
1052 65.7051978105086 109.612990682501 179.483987576667
1053 58.1977029844041 164.293877296514 252.391836395351
1054 83.9318805642176 110.542241890093 180.722989186791
1055 72.824240435724 176.216561244661 268.288748326214
1056 57.6524219916395 144.34751164056 225.796682187414
1057 70.8400832552467 118.08323891323 190.777651884306
1058 59.7754723589994 149.26493545062 232.353247267493
1059 54.8437397489211 138.999223885487 218.665631847316
1060 54.5372737670323 136.54352336081 215.391364481079
1061 92.9139146160396 84.7634021013031 146.351202801737
1062 58.946587310577 85.582433034782 147.443244046376
1063 90.011152009291 173.919759613968 265.226346151958
1064 66.2265563678339 77.1402854176481 136.187047223531
1065 86.5667411131027 72.8942988637464 130.525731818328
1066 94.4819423103496 78.3625764507961 137.816768601061
1067 99.1835336743124 154.799233529887 239.732311373183
1068 93.0449512083222 187.487850533141 283.317134044188
1069 47.1887214051594 166.190922367941 254.921229823922
1070 57.9211630782544 150.433621314388 233.91149508585
1071 51.2717560758321 138.962189582411 218.616252776548
1072 84.5903577279483 137.86290758732 217.15054344976
1073 62.1698183092332 144.08027654176 225.440368722346
1074 70.4261080706565 169.318388708092 259.091184944122
1075 70.687156662974 90.2352026538935 153.646936871858
1076 63.2901275802172 134.167571012696 212.223428016928
1077 85.3022089389497 91.5578189235135 155.410425231351
1078 71.3409142803514 98.006366093244 164.008488124325
1079 63.5402677642708 164.242384159798 252.32317887973
1080 71.7519745269677 101.987132201088 169.316176268117
1081 81.3172337636006 75.8117004193623 134.41560055915
1082 95.0625095282243 154.14372793927 238.858303919026
1083 89.2436159827134 164.907506896082 253.210009194776
1084 90.2271715374359 161.331950471499 248.442600628665
1085 84.7960267249569 173.728874785361 264.971833047149
1086 71.8956894024505 105.98144168741 174.641922249881
1087 71.4006218378366 113.981372037961 185.308496050615
1088 57.4168299799311 154.178819954027 238.905093272036
1089 90.5981961725086 148.187330482577 230.916440643436
1090 80.1410358340061 126.921065675738 202.561420900984
1091 89.6919089096336 77.7610090448377 137.01467872645
1092 90.0431833339093 141.63014359414 222.173524792187
1093 83.188318618853 98.5222864384155 164.696381917887
1094 76.1279526320121 76.1439586388279 134.858611518437
1095 78.2119448512711 130.158531437196 206.878041916262
1096 60.1585582819894 152.227019630999 236.302692841332
1097 59.0492951304703 161.214204772481 248.285606363308
1098 83.7790202558394 114.60338973229 186.137852976387
1099 92.330763517786 87.668130148125 150.224173530833
1100 76.9093001531918 123.755640086671 198.340853448895
1101 86.2262353187042 75.6252373424105 134.166983123214
1102 58.9931675646966 138.642673384239 218.190231178985
1103 59.4866628664838 141.89378087094 222.525041161254
1104 77.7260682951271 102.340379600489 169.787172800652
1105 94.6974868841305 158.56052486723 244.74736648964
1106 58.4007279712085 135.889681196505 214.519574928673
1107 86.2651236575775 170.828042677853 261.104056903804
1108 71.0404445516125 76.4877737477124 135.317031663617
1109 64.7591954698407 86.0685691191139 148.091425492152
1110 77.8907677555354 106.319619385761 175.092825847682
1111 90.214131041542 82.3039250126041 143.071900016805
1112 96.8011701518354 159.130232734302 245.50697697907
1113 62.4239834209479 150.238427757741 233.651237010321
1114 92.60744240369 162.519813445775 250.026417927701
1115 58.2311423510881 155.705443889009 240.940591852012
1116 50.8679982723802 136.695416314071 215.593888418762
1117 62.913688632646 146.535094481506 228.713459308675
1118 91.3557143813231 79.336277944845 139.115037259793
1119 79.5575307606377 173.436730110997 264.582306814663
1120 60.7914716380742 151.364167937184 235.152223916245
1121 68.4365119879302 166.039511123819 254.719348165092
1122 84.1846000205064 165.417688263958 253.890251018611
1123 85.0847624717272 144.691293078659 226.255057438212
1124 70.6619366750966 86.373759940216 148.498346586955
1125 91.0911150179737 151.152125155271 234.869500207028
1126 79.3723782738831 137.703987211778 216.938649615703
1127 62.0325046413837 155.578650654928 240.77153420657
1128 63.8327494295847 140.959083405391 221.278777873855
1129 82.1827117014268 79.3820981742496 139.176130898999
1130 71.0827348026426 79.5085688158073 139.344758421076
1131 69.2229745572861 134.47251110151 212.630014802014
1132 70.6662667960959 131.055219796702 208.073626395603
1133 88.2275826711055 80.2166327803591 140.288843707146
1134 63.5717009337745 138.132127657864 217.509503543819
1135 82.267744434866 94.7126009948183 159.616801326424
1136 64.8605386528495 158.702459783282 244.936613044377
1137 63.9516556194462 161.377168846858 248.502891795811
1138 70.8920781603478 94.1007554088193 158.801007211759
1139 94.1570075393717 156.753222765262 242.337630353683
1140 62.9924858040337 152.470219920598 236.62695989413
1141 83.0081352397716 167.819197032154 257.092262709539
1142 63.680995962702 145.303461042277 227.071281389703
1143 66.2117741353138 147.444170946527 229.925561262036
1144 64.5524175829931 81.8508501182911 142.467800157721
1145 74.1686379633688 134.47686871242 212.635824949893
1146 87.4895422368909 162.606087667309 250.141450223079
1147 88.9658709809534 85.1019392234585 146.802585631278
1148 86.5831191377277 89.5095709240019 152.679427898669
1149 73.1135817501107 127.75470769251 203.672943590013
1150 86.8078752108713 78.1133749703551 137.484499960473
1151 81.2206382174987 170.522923149978 260.697230866637
1152 77.2122069602321 118.627079035581 191.502772047442
1153 71.723629995951 109.971227461628 179.961636615505
1154 77.7656422051217 110.310204649545 180.413606199394
1155 87.9932709248318 86.9456381058931 149.260850807857
1156 84.7662532958037 141.33412023352 221.778826978026
1157 74.1836522003353 173.036078088559 264.048104118078
1158 47.1027849419592 136.99548216034 215.993976213786
1159 88.0096631545769 160.178539306601 246.904719075468
1160 77.2220969426788 98.3570218122638 164.476029083018
1161 92.1200617312325 157.767982350521 243.690643134028
1162 64.8727285018058 151.259132732299 235.012176976398
1163 79.4644668371053 144.796194137313 226.394925516418
1164 65.9782106198917 145.126674045196 226.835565393594
1165 69.0398581923356 158.989654054329 245.319538739105
1166 84.1150737542826 163.236029579309 250.981372772411
1167 85.4245659385158 148.060110461228 230.746813948304
1168 72.0869417346296 166.613604397724 255.484805863632
1169 83.9783407301409 85.9044983080115 147.872664410682
1170 91.3556796997764 153.666040603795 238.221387471726
1171 68.8501882077011 138.493997122906 217.991996163874
1172 81.6945211744751 91.3083212917831 155.077761722377
1173 85.6422839673988 159.216858112952 245.622477483936
1174 81.1570843283968 165.346795708719 253.795727611626
1175 79.6115002399547 141.096996241226 221.462661654968
1176 75.9617658665135 170.049607539565 260.066143386087
1177 70.5306623773773 149.366155474331 232.488207299108
1178 70.8038532798232 82.701592704812 143.602123606416
1179 86.0877355458358 83.3164648446559 144.421953126208
1180 86.5371102179379 161.273492078884 248.364656105179
1181 76.6747771743098 94.4932306457383 159.324307527651
1182 91.0233759276576 155.60106273181 240.801416975746
1183 64.922000779787 143.138089708598 224.184119611464
1184 67.1654349289174 152.230467751518 236.307290335358
1185 76.492918122101 90.7315403351114 154.308720446815
1186 76.2019135030708 79.4120559738303 139.216074631774
1187 65.0987836794 153.628792195474 238.171722927299
1188 90.3080768098495 157.1408031607 242.854404214267
1189 74.1576092241136 131.95558556896 209.274114091947
1190 74.4103783412345 137.832889776919 217.110519702558
1191 67.8158909189187 149.011114464964 232.014819286618
1192 78.4054911515358 167.280050850491 256.373401133989
1193 85.6305766312861 80.9631392233164 141.284185631089
1194 77.5241646322903 114.368161530306 185.824215373741
1195 66.2183323228919 156.356646947536 241.808862596714
1196 68.2406849496395 164.065655962127 252.087541282837
1197 80.5726427142555 163.656944346556 251.542592462074
1198 81.1971054050236 147.259418190948 229.679224254598
1199 74.7211432204209 143.61514315909 224.820190878787
1200 87.141958814119 151.446101799332 235.261469065776
1201 69.8866894517698 156.734029144189 242.312038858919
1202 67.9340766761837 142.288867867686 223.051823823582
1203 72.5876399748337 164.094155777623 252.125541036831
1204 76.1978750832728 82.7334788424519 143.644638456603
1205 77.3474543466036 86.6042251902616 148.805633587015
1206 74.9138936485537 140.969529440258 221.292705920344
1207 88.9465739405385 155.161868026072 240.215824034763
1208 66.7129376298962 140.67808422731 220.90411230308
1209 69.8520965862456 147.16705359146 229.556071455281
1210 81.103122446925 82.776316449715 143.701755266287
1211 88.2376929366448 153.756851534411 238.342468712548
1212 82.4386191563886 88.4011211532534 151.201494871005
1213 83.7077534908967 160.918356163925 247.8911415519
1214 68.8059333553871 152.959148291769 237.278864389025
1215 76.8091251337248 164.047407406669 252.063209875559
1216 68.458184615309 161.501116762582 248.668155683443
1217 83.1220975655631 158.27367332624 244.36489776832
1218 72.6098998267241 150.737969431286 234.317292575048
1219 67.8098806587709 154.497049957102 239.329399942802
1220 61.2546824292039 153.470345887366 237.960461183155
1221 73.6721966131982 148.43912984034 231.252173120453
1222 81.6068596135579 150.43943933878 233.919252451707
1223 72.6008491855176 161.599533185223 248.799377580298
1224 79.9757265448594 157.252283335641 243.003044447521
1225 79.9928475329692 161.460679777359 248.614239703145
1226 72.8550235672424 159.222217205343 245.629622940458
1227 75.6412196668547 150.593326573333 234.124435431111
1228 69.8389605560368 144.658344520618 226.21112602749
1229 85.3786788305398 154.720519752113 239.627359669484
1230 83.828838816238 152.385389327272 236.513852436363
1231 70.8389981194571 154.614011676987 239.48534890265
1232 82.0567411541701 159.467143586183 245.956191448244
1233 71.0686901875875 141.368860993721 221.825147991628
1234 76.4308112739867 161.61347230032 248.817963067093
1235 81.0157560407814 84.986650103736 146.648866804981
1236 76.2582003505782 147.025939173328 229.367918897771
1237 88.0071254965719 156.188115426514 241.584153902019
1238 73.288575164845 157.03115821352 242.70821095136
1239 78.987446849492 152.143481197856 236.191308263808
1240 76.3961628959401 159.353320984235 245.80442797898
1241 73.4384928594544 145.724131413401 227.632175217867
1242 73.8442511739995 154.978381331096 239.971175108128
1243 71.954687182996 143.139281736373 224.185708981831
1244 82.8400308977248 154.662249228911 239.549665638547
1245 78.6922294668255 155.774471935022 241.032629246697
1246 79.7045021733897 159.425781702861 245.901042270481
1247 72.2697331131612 147.101275927915 229.468367903887
1248 76.639172317868 155.47614596381 240.63486128508
1249 78.9155849126908 148.681537385958 231.575383181277
1250 76.484508110603 157.287179385223 243.049572513631
1251 81.3684071938239 153.564522011976 238.086029349302
$EndNodes
$Elements
1177
1 3 2 1 1 211 218 245 240
2 3 2 1 1 73 74 438 427
3 3 2 1 1 297 337 316 289
4 3 2 1 1 65 66 380 354
5 3 2 1 1 77 76 436 422
6 3 2 1 1 83 82 328 298
7 3 2 1 1 325 317 262 304
8 3 2 1 1 61 62 294 283
9 3 2 1 1 430 421 442 426
10 3 2 1 1 244 177 219 285
11 3 2 1 1 402 378 345 373
12 3 2 1 1 106 125 143 109
13 3 2 1 1 441 420 435 434
14 3 2 1 1 396 369 389 414
15 3 2 1 1 167 148 136 88
16 3 2 1 1 270 243 281 308
17 3 2 1 1 67 396 414 68
18 3 2 1 1 303 324 354 352
19 3 2 1 1 86 85 222 202
20 3 2 1 1 79 78 412 392
21 3 2 1 1 182 156 123 163
22 3 2 1 1 65 356 379 66
23 3 2 1 1 408 402 373 388
24 3 2 1 1 59 6 197 230
25 3 2 1 1 393 341 372 394
26 3 2 1 1 76 432 425 75
27 3 2 1 1 253 267 250 222
28 3 2 1 1 410 424 434 435
29 3 2 1 1 78 400 417 77
30 3 2 1 1 317 325 339 363
31 3 2 1 1 61 284 280 62
32 3 2 1 1 228 207 243 216
33 3 2 1 1 152 179 190 162
34 3 2 1 1 80 357 371 79
35 3 2 1 1 270 259 216 243
36 3 2 1 1 432 417 415 391
37 3 2 1 1 324 303 294 332
38 3 2 1 1 127 199 154 111
39 3 2 1 1 189 158 126 101
40 3 2 1 1 263 273 210 254
41 3 2 1 1 203 150 131 201
42 3 2 1 1 108 119 109 143
43 3 2 1 1 206 249 335 269
44 3 2 1 1 366 386 319 348
45 3 2 1 1 403 418 391 366
46 3 2 1 1 276 182 163 231
47 3 2 1 1 82 310 321 81
48 3 2 1 1 108 103 4 43
49 3 2 1 1 221 232 299 282
50 3 2 1 1 172 125 170 188
51 3 2 1 1 402 409 429 390
52 3 2 1 1 71 409 428 72
53 3 2 1 1 368 349 316 397
54 3 2 1 1 162 114 138 152
55 3 2 1 1 240 261 256 211
56 3 2 1 1 275 289 299 232
57 3 2 1 1 187 161 209 252
58 3 2 1 1 68 69 421 430
59 3 2 1 1 272 296 327 271
60 3 2 1 1 108 227 124 103
61 3 2 1 1 164 160 210 195
62 3 2 1 1 84 259 270 83
63 3 2 1 1 360 235 206 269
64 3 2 1 1 247 209 161 195
65 3 2 1 1 263 292 358 273
66 3 2 1 1 104 144 225 105
67 3 2 1 1 281 246 277 308
68 3 2 1 1 182 276 335 224
69 3 2 1 1 197 6 231 163
70 3 2 1 1 110 105 225 145
71 3 2 1 1 274 306 291 236
72 3 2 1 1 170 207 228 188
73 3 2 1 1 175 215 275 232
74 3 2 1 1 103 174 122 99
75 3 2 1 1 387 375 370 350
76 3 2 1 1 100 121 144 104
77 3 2 1 1 408 423 439 437
78 3 2 1 1 145 146 116 110
79 3 2 1 1 182 224 180 156
80 3 2 1 1 293 260 214 238
81 3 2 1 1 411 389 367 390
82 3 2 1 1 316 343 426 397
83 3 2 1 1 199 249 206 154
84 3 2 1 1 303 352 320 266
85 3 2 1 1 203 239 184 150
86 3 2 1 1 248 176 206 235
87 3 2 1 1 410 406 403 364
88 3 2 1 1 359 318 342 369
89 3 2 1 1 285 219 190 213
90 3 2 1 1 277 246 205 305
91 3 2 1 1 386 381 347 319
92 3 2 1 1 424 410 364 395
93 3 2 1 1 401 233 214 260
94 3 2 1 1 307 294 303 338
95 3 2 1 1 107 123 156 102
96 3 2 1 1 311 293 238 279
97 3 2 1 1 177 208 186 148
98 3 2 1 1 315 327 355 340
99 3 2 1 1 218 220 212 245
100 3 2 1 1 128 99 122 171
101 3 2 1 1 260 293 336 401
102 3 2 1 1 282 242 179 221
103 3 2 1 1 428 408 437 444
104 3 2 1 1 301 263 254 239
105 3 2 1 1 129 153 189 101
106 3 2 1 1 151 132 91 186
107 3 2 1 1 190 179 242 213
108 3 2 1 1 333 270 308 277
109 3 2 1 1 371 357 383 381
110 3 2 1 1 95 128 171 159
111 3 2 1 1 363 339 395 364
112 3 2 1 1 153 205 246 189
113 3 2 1 1 289 275 248 297
114 3 2 1 1 256 261 290 278
115 3 2 1 1 251 204 185 151
116 3 2 1 1 338 269 335 307
117 3 2 1 1 301 323 292 263
118 3 2 1 1 131 90 181 201
119 3 2 1 1 337 297 266 320
120 3 2 1 1 363 366 348 317
121 3 2 1 1 120 154 206 176
122 3 2 1 1 274 236 217 178
123 3 2 1 1 155 120 176 215
124 3 2 1 1 147 191 220 218
125 3 2 1 1 126 106 47 48
126 3 2 1 1 110 21 22 105
127 3 2 1 1 290 318 301 278
128 3 2 1 1 120 155 133 96
129 3 2 1 1 145 163 123 146
130 3 2 1 1 195 210 273 247
131 3 2 1 1 305 264 319 347
132 3 2 1 1 345 315 340 373
133 3 2 1 1 63 313 329 64
134 3 2 1 1 232 221 198 175
135 3 2 1 1 107 102 17 18
136 3 2 1 1 105 22 23 104
137 3 2 1 1 264 302 348 319
138 3 2 1 1 346 292 323 384
139 3 2 1 1 191 147 135 87
140 3 2 1 1 193 168 165 192
141 3 2 1 1 204 262 302 241
142 3 2 1 1 90 135 147 181
143 3 2 1 1 331 322 311 265
144 3 2 1 1 244 285 300 377
145 3 2 1 1 194 214 192 165
146 3 2 1 1 391 418 425 432
147 3 2 1 1 420 440 427 435
148 3 2 1 1 404 424 395 416
149 3 2 1 1 279 234 265 311
150 3 2 1 1 101 126 48 49
151 3 2 1 1 255 264 305 205
152 3 2 1 1 103 99 42 4
153 3 2 1 1 203 278 301 239
154 3 2 1 1 309 325 304 268
155 3 2 1 1 119 108 43 44
156 3 2 1 1 176 248 275 215
157 3 2 1 1 137 113 112 98
158 3 2 1 1 162 190 169 137
159 3 2 1 1 160 164 121 100
160 3 2 1 1 129 101 49 50
161 3 2 1 1 130 100 24 25
162 3 2 1 1 104 23 24 100
163 3 2 1 1 219 167 169 190
164 3 2 1 1 102 127 16 17
165 3 2 1 1 302 262 317 348
166 3 2 1 1 406 425 418 403
167 3 2 1 1 296 272 212 233
168 3 2 1 1 92 133 155 173
169 3 2 1 1 158 189 246 281
170 3 2 1 1 165 139 89 194
171 3 2 1 1 127 111 15 16
172 3 2 1 1 362 290 261 326
173 3 2 1 1 369 342 367 389
174 3 2 1 1 103 124 196 174
175 3 2 1 1 94 287 153 129
176 3 2 1 1 100 130 286 160
177 3 2 1 1 434 442 421 441
178 3 2 1 1 251 208 268 304
179 3 2 1 1 44 5 45 119
180 3 2 1 1 192 212 220 193
181 3 2 1 1 236 291 331 265
182 3 2 1 1 366 363 364 403
183 3 2 1 1 149 238 214 194
184 3 2 1 1 70 411 390 429
185 3 2 1 1 414 389 411 431
186 3 2 1 1 99 128 41 42
187 3 2 1 1 94 129 50 51
188 3 2 1 1 93 130 25 26
189 3 2 1 1 126 158 207 170
190 3 2 1 1 148 167 219 177
191 3 2 1 1 111 96 14 15
192 3 2 1 1 405 446 439 423
193 3 2 1 1 341 393 399 376
194 3 2 1 1 127 102 156 180
195 3 2 1 1 131 93 26 27
196 3 2 1 1 132 94 51 52
197 3 2 1 1 399 405 423 365
198 3 2 1 1 130 93 184 286
199 3 2 1 1 128 95 40 41
200 3 2 1 1 213 242 300 285
201 3 2 1 1 204 241 255 185
202 3 2 1 1 442 434 424 404
203 3 2 1 1 291 344 372 331
204 3 2 1 1 344 370 394 372
205 3 2 1 1 116 107 18 19
206 3 2 1 1 222 257 226 202
207 3 2 1 1 183 159 217 234
208 3 2 1 1 138 92 198 152
209 3 2 1 1 90 131 27 28
210 3 2 1 1 91 132 52 53
211 3 2 1 1 327 296 385 355
212 3 2 1 1 362 342 318 290
213 3 2 1 1 88 142 169 167
214 3 2 1 1 96 111 154 120
215 3 2 1 1 140 157 141 118
216 3 2 1 1 96 133 13 14
217 3 2 1 1 116 20 21 110
218 3 2 1 1 135 90 28 29
219 3 2 1 1 139 165 168 115
220 3 2 1 1 136 91 53 54
221 3 2 1 1 416 368 397 404
222 3 2 1 1 340 355 399 365
223 3 2 1 1 116 146 123 107
224 3 2 1 1 87 141 157 191
225 3 2 1 1 95 134 39 40
226 3 2 1 1 323 301 318 359
227 3 2 1 1 168 193 157 140
228 3 2 1 1 425 438 74 75
229 3 2 1 1 229 124 227 200
230 3 2 1 1 136 148 186 91
231 3 2 1 1 119 45 46 109
232 3 2 1 1 106 109 46 47
233 3 2 1 1 137 169 142 113
234 3 2 1 1 240 314 326 261
235 3 2 1 1 19 2 20 116
236 3 2 1 1 177 244 268 208
237 3 2 1 1 67 398 380 66
238 3 2 1 1 339 374 416 395
239 3 2 1 1 236 265 234 217
240 3 2 1 1 133 92 12 13
241 3 2 1 1 408 388 365 423
242 3 2 1 1 409 71 70 429
243 3 2 1 1 131 150 184 93
244 3 2 1 1 87 135 29 30
245 3 2 1 1 132 151 185 94
246 3 2 1 1 88 136 54 55
247 3 2 1 1 198 221 179 152
248 3 2 1 1 134 89 38 39
249 3 2 1 1 95 312 149 134
250 3 2 1 1 218 211 181 147
251 3 2 1 1 314 315 345 326
252 3 2 1 1 98 114 162 137
253 3 2 1 1 97 115 168 140
254 3 2 1 1 197 187 252 230
255 3 2 1 1 181 211 256 201
256 3 2 1 1 342 362 378 367
257 3 2 1 1 271 245 212 272
258 3 2 1 1 141 87 30 31
259 3 2 1 1 92 138 11 12
260 3 2 1 1 140 118 117 97
261 3 2 1 1 142 88 55 56
262 3 2 1 1 325 309 374 339
263 3 2 1 1 89 139 37 38
264 3 2 1 1 347 361 277 305
265 3 2 1 1 425 406 427 438
266 3 2 1 1 255 205 153 287
267 3 2 1 1 226 196 124 229
268 3 2 1 1 209 247 295 280
269 3 2 1 1 349 334 282 299
270 3 2 1 1 191 157 193 220
271 3 2 1 1 138 114 10 11
272 3 2 1 1 397 426 442 404
273 3 2 1 1 139 115 36 37
274 3 2 1 1 121 164 195 161
275 3 2 1 1 118 141 31 32
276 3 2 1 1 171 122 223 178
277 3 2 1 1 212 192 214 233
278 3 2 1 1 70 69 431 411
279 3 2 1 1 328 330 306 298
280 3 2 1 1 303 266 235 360
281 3 2 1 1 238 149 312 279
282 3 2 1 1 112 8 9 98
283 3 2 1 1 114 98 9 10
284 3 2 1 1 115 97 35 36
285 3 2 1 1 117 34 35 97
286 3 2 1 1 175 198 92 173
287 3 2 1 1 306 330 344 291
288 3 2 1 1 134 149 194 89
289 3 2 1 1 369 396 379 384
290 3 2 1 1 330 350 370 344
291 3 2 1 1 235 266 297 248
292 3 2 1 1 322 341 376 336
293 3 2 1 1 412 407 394 392
294 3 2 1 1 117 118 32 33
295 3 2 1 1 34 117 33 3
296 3 2 1 1 172 200 143 125
297 3 2 1 1 406 410 435 427
298 3 2 1 1 302 264 255 241
299 3 2 1 1 161 187 144 121
300 3 2 1 1 289 316 349 299
301 3 2 1 1 142 56 57 113
302 3 2 1 1 250 267 306 274
303 3 2 1 1 8 112 58 1
304 3 2 1 1 61 60 252 284
305 3 2 1 1 250 274 178 223
306 3 2 1 1 394 370 375 392
307 3 2 1 1 57 58 112 113
308 3 2 1 1 187 197 225 144
309 3 2 1 1 72 73 427 440
310 3 2 1 1 67 66 379 396
311 3 2 1 1 304 262 204 251
312 3 2 1 1 69 68 414 431
313 3 2 1 1 84 253 222 85
314 3 2 1 1 334 349 368 351
315 3 2 1 1 65 64 329 356
316 3 2 1 1 446 407 412 422
317 3 2 1 1 76 77 417 432
318 3 2 1 1 75 74 437 445
319 3 2 1 1 78 79 371 400
320 3 2 1 1 443 405 399 393
321 3 2 1 1 80 81 321 357
322 3 2 1 1 365 388 373 340
323 3 2 1 1 201 256 278 203
324 3 2 1 1 159 183 312 95
325 3 2 1 1 402 390 367 378
326 3 2 1 1 82 83 270 310
327 3 2 1 1 387 350 330 328
328 3 2 1 1 65 354 324 64
329 3 2 1 1 61 283 237 60
330 3 2 1 1 84 85 216 259
331 3 2 1 1 368 416 374 351
332 3 2 1 1 234 279 312 183
333 3 2 1 1 326 345 378 362
334 3 2 1 1 63 62 280 313
335 3 2 1 1 94 185 255 287
336 3 2 1 1 86 202 166 7
337 3 2 1 1 239 254 286 184
338 3 2 1 1 398 413 433 353
339 3 2 1 1 377 300 334 351
340 3 2 1 1 178 217 159 171
341 3 2 1 1 335 249 199 224
342 3 2 1 1 417 400 371 415
343 3 2 1 1 346 356 329 382
344 3 2 1 1 273 358 295 247
345 3 2 1 1 333 383 357 321
346 3 2 1 1 385 376 399 355
347 3 2 1 1 393 394 407 443
348 3 2 1 1 300 242 282 334
349 3 2 1 1 351 374 309 377
350 3 2 1 1 294 307 237 283
351 3 2 1 1 437 439 436 445
352 3 2 1 1 320 380 398 353
353 3 2 1 1 254 210 160 286
354 3 2 1 1 382 329 295 358
355 3 2 1 1 277 361 383 333
356 3 2 1 1 163 145 225 197
357 3 2 1 1 233 401 385 296
358 3 2 1 1 223 122 174 196
359 3 2 1 1 158 281 243 207
360 3 2 1 1 59 230 252 60
361 3 2 1 1 280 295 329 313
362 3 2 1 1 306 267 288 298
363 3 2 1 1 341 322 331 372
364 3 2 1 1 426 343 433 413
365 3 2 1 1 336 293 311 322
366 3 2 1 1 436 439 446 422
367 3 2 1 1 422 412 78 77
368 3 2 1 1 392 375 80 79
369 3 2 1 1 430 419 67 68
370 3 2 1 1 386 415 371 381
371 3 2 1 1 294 62 63 332
372 3 2 1 1 298 288 84 83
373 3 2 1 1 70 71 420 441
374 3 2 1 1 356 346 384 379
375 3 2 1 1 215 175 173 155
376 3 2 1 1 280 284 252 209
377 3 2 1 1 376 385 401 336
378 3 2 1 1 76 75 445 436
379 3 2 1 1 69 70 441 421
380 3 2 1 1 71 72 440 420
381 3 2 1 1 72 428 444 73
382 3 2 1 1 231 6 59 258
383 3 2 1 1 369 384 323 359
384 3 2 1 1 73 444 437 74
385 3 2 1 1 202 226 229 166
386 3 2 1 1 327 315 314 271
387 3 2 1 1 413 398 67 419
388 3 2 1 1 81 80 375 387
389 3 2 1 1 303 360 269 338
390 3 2 1 1 335 276 237 307
391 3 2 1 1 82 81 387 328
392 3 2 1 1 64 324 332 63
393 3 2 1 1 267 253 84 288
394 3 2 1 1 223 257 222 250
395 3 2 1 1 426 413 419 430
396 3 2 1 1 231 258 237 276
397 3 2 1 1 346 382 358 292
398 3 2 1 1 108 143 200 227
399 3 2 1 1 60 237 258 59
400 3 2 1 1 127 180 224 199
401 3 2 1 1 86 7 188 228
402 3 2 1 1 85 86 228 216
403 3 2 1 1 270 333 321 310
404 3 2 1 1 223 196 226 257
405 3 2 1 1 381 383 361 347
406 3 2 1 1 200 172 166 229
407 3 2 1 1 407 446 405 443
408 3 2 1 1 166 172 188 7
409 3 2 1 1 125 106 126 170
410 3 2 1 1 208 251 151 186
411 3 2 1 1 314 240 245 271
412 3 2 1 1 268 244 377 309
413 3 2 1 1 433 343 316 337
414 3 2 1 1 433 337 320 353
415 3 2 1 1 320 352 354 380
416 3 2 1 1 415 386 366 391
417 3 2 1 1 402 408 428 409
418 2 2 2 2 667 543 544 
419 2 2 2 2 544 545 667 
420 2 2 2 2 542 523 524 
421 2 2 2 2 524 452 542 
422 3 2 2 2 765 836 941 867
423 3 2 2 2 1179 1169 1235 1210
424 3 2 2 2 1014 720 627 733
425 3 2 2 2 1123 1163 1175 1156
426 3 2 2 2 1250 1224 1246 1240
427 3 2 2 2 551 552 901 915
428 3 2 2 2 1201 1165 1136 1195
429 3 2 2 2 835 785 738 784
430 3 2 2 2 1042 932 897 994
431 3 2 2 2 721 1069 758 693
432 3 2 2 2 1241 1199 1163 1236
433 3 2 2 2 1149 1033 980 1100
434 3 2 2 2 737 773 793 683
435 3 2 2 2 557 558 1184 1162
436 3 2 2 2 1228 1243 1199 1241
437 3 2 2 2 1027 995 945 976
438 3 2 2 2 1093 978 876 1041
439 3 2 2 2 815 722 792 892
440 3 2 2 2 1118 1028 1111 1133
441 3 2 2 2 822 865 727 791
442 3 2 2 2 1032 1088 997 931
443 3 2 2 2 942 852 1016 454
444 3 2 2 2 1128 1208 1202 1183
445 3 2 2 2 787 848 827 726
446 3 2 2 2 793 773 818 1015
447 3 2 2 2 867 1062 990 954
448 3 2 2 2 1031 1012 943 929
449 3 2 2 2 787 726 680 742
450 3 2 2 2 676 637 586 728
451 3 2 2 2 690 634 695 734
452 3 2 2 2 1171 1131 1145 1190
453 3 2 2 2 728 816 771 676
454 3 2 2 2 547 703 715 546
455 3 2 2 2 840 766 669 740
456 3 2 2 2 976 945 912 917
457 3 2 2 2 985 1064 992 959
458 3 2 2 2 1151 1119 1157 1176
459 3 2 2 2 548 547 761 907
460 3 2 2 2 1227 1249 1222 1239
461 3 2 2 2 546 545 708 806
462 3 2 2 2 827 848 915 901
463 3 2 2 2 550 549 826 1009
464 3 2 2 2 1172 1077 1040 1135
465 3 2 2 2 770 838 882 895
466 3 2 2 2 1171 1190 1206 1233
467 3 2 2 2 946 903 825 879
468 3 2 2 2 1241 1236 1221 1247
469 3 2 2 2 1216 1223 1203 1196
470 3 2 2 2 934 1017 960 1005
471 3 2 2 2 1104 1080 1078 1160
472 3 2 2 2 721 969 987 1021
473 3 2 2 2 553 552 920 1056
474 3 2 2 2 1100 1090 1095 1149
475 3 2 2 2 904 855 805 852
476 3 2 2 2 718 705 706 750
477 3 2 2 2 586 633 679 810
478 3 2 2 2 789 729 678 629
479 3 2 2 2 690 627 576 606
480 3 2 2 2 1185 1172 1135 1181
481 3 2 2 2 890 970 453 865
482 3 2 2 2 1230 1222 1167 1200
483 3 2 2 2 1119 1049 1055 1157
484 3 2 2 2 1169 1212 1205 1235
485 3 2 2 2 862 635 763 713
486 3 2 2 2 1102 1106 1076 1134
487 3 2 2 2 1085 1038 1049 1119
488 3 2 2 2 1200 1125 1170 1211
489 3 2 2 2 1249 1236 1163 1198
490 3 2 2 2 1200 1211 1229 1230
491 3 2 2 2 667 545 546 715
492 3 2 2 2 865 822 951 890
493 3 2 2 2 774 842 898 894
494 3 2 2 2 600 632 684 702
495 3 2 2 2 730 702 684 964
496 3 2 2 2 1144 992 1064 1037
497 3 2 2 2 885 930 870 821
498 3 2 2 2 1032 931 892 1019
499 3 2 2 2 618 916 853 689
500 3 2 2 2 1023 1121 1168 1074
501 3 2 2 2 679 633 587 762
502 3 2 2 2 1170 1082 1139 1182
503 3 2 2 2 703 547 548 747
504 3 2 2 2 677 628 791 727
505 3 2 2 2 941 894 959 992
506 3 2 2 2 1108 1064 985 1034
507 3 2 2 2 1074 1168 1192 1176
508 3 2 2 2 667 644 522 619
509 3 2 2 2 950 1044 977 873
510 3 2 2 2 632 584 624 684
511 3 2 2 2 792 722 625 711
512 3 2 2 2 1163 1123 1167 1198
513 3 2 2 2 838 770 748 725
514 3 2 2 2 742 680 631 603
515 3 2 2 2 831 906 936 1011
516 3 2 2 2 736 681 654 608
517 3 2 2 2 1196 1121 1023 1079
518 3 2 2 2 789 858 1016 729
519 3 2 2 2 603 521 522 644
520 3 2 2 2 559 560 1242 1231
521 3 2 2 2 1125 1200 1167 1089
522 3 2 2 2 901 552 553 963
523 3 2 2 2 968 891 928 989
524 3 2 2 2 824 677 727 849
525 3 2 2 2 695 682 795 734
526 3 2 2 2 1167 1222 1249 1198
527 3 2 2 2 984 956 877 1039
528 3 2 2 2 1039 1089 1025 984
529 3 2 2 2 1023 1074 1027 976
530 3 2 2 2 858 896 933 965
531 3 2 2 2 1178 1144 1037 1130
532 3 2 2 2 894 941 836 774
533 3 2 2 2 777 854 803 909
534 3 2 2 2 601 648 686 700
535 3 2 2 2 824 849 966 893
536 3 2 2 2 627 690 967 733
537 3 2 2 2 811 757 785 897
538 3 2 2 2 763 678 729 805
539 3 2 2 2 929 823 904 998
540 3 2 2 2 1124 1075 1047 1109
541 3 2 2 2 1089 1039 982 1125
542 3 2 2 2 1011 933 896 831
543 3 2 2 2 816 940 877 771
544 3 2 2 2 600 629 678 588
545 3 2 2 2 749 724 847 772
546 3 2 2 2 543 542 620 666
547 3 2 2 2 688 691 753 716
548 3 2 2 2 1125 982 1082 1170
549 3 2 2 2 1063 1051 1038 1085
550 3 2 2 2 1195 1136 1026 1127
551 3 2 2 2 830 788 746 797
552 3 2 2 2 623 697 655 575
553 3 2 2 2 693 638 604 694
554 3 2 2 2 835 784 863 884
555 3 2 2 2 1011 936 971 1099
556 3 2 2 2 1070 1120 1096 1032
557 3 2 2 2 791 749 772 822
558 3 2 2 2 734 795 844 910
559 3 2 2 2 936 906 828 868
560 3 2 2 2 1176 1157 1027 1074
561 3 2 2 2 634 690 606 652
562 3 2 2 2 945 995 928 869
563 3 2 2 2 629 730 831 789
564 3 2 2 2 900 943 955 844
565 3 2 2 2 641 695 634 585
566 3 2 2 2 858 789 831 896
567 3 2 2 2 1156 1175 1126 1072
568 3 2 2 2 1089 1167 1123 1025
569 3 2 2 2 1109 1047 990 1062
570 3 2 2 2 979 1023 976 917
571 3 2 2 2 595 525 526 630
572 3 2 2 2 695 641 589 682
573 3 2 2 2 892 931 997 815
574 3 2 2 2 974 1030 999 919
575 3 2 2 2 1042 994 918 1092
576 3 2 2 2 730 629 600 702
577 3 2 2 2 712 749 791 628
578 3 2 2 2 602 636 709 712
579 3 2 2 2 703 747 787 742
580 3 2 2 2 716 803 854 688
581 3 2 2 2 1226 1238 1250 1240
582 3 2 2 2 794 768 716 753
583 3 2 2 2 881 1067 940 816
584 3 2 2 2 890 951 975 1046
585 3 2 2 2 1072 973 932 1042
586 3 2 2 2 1106 1030 974 1076
587 3 2 2 2 1128 1134 1171 1208
588 3 2 2 2 786 841 796 800
589 3 2 2 2 827 792 711 726
590 3 2 2 2 1190 1145 1024 1126
591 3 2 2 2 827 901 963 938
592 3 2 2 2 737 683 657 597
593 3 2 2 2 1053 979 958 1021
594 3 2 2 2 797 793 1015 830
595 3 2 2 2 729 1016 852 805
596 3 2 2 2 588 472 473 600
597 3 2 2 2 632 600 473 474
598 3 2 2 2 602 587 490 491
599 3 2 2 2 1220 1127 1115 1088
600 3 2 2 2 723 900 844 795
601 3 2 2 2 662 596 658 701
602 3 2 2 2 1060 1106 1102 1059
603 3 2 2 2 883 1000 935 818
604 3 2 2 2 630 614 622 691
605 3 2 2 2 1225 1213 1166 1197
606 3 2 2 2 950 873 769 834
607 3 2 2 2 601 584 475 476
608 3 2 2 2 699 642 578 738
609 3 2 2 2 636 602 491 492
610 3 2 2 2 1019 996 1070 1032
611 3 2 2 2 1023 979 1053 1079
612 3 2 2 2 559 1231 1219 1214
613 3 2 2 2 635 862 626 605
614 3 2 2 2 1137 1097 1026 1136
615 3 2 2 2 780 833 880 866
616 3 2 2 2 633 586 488 489
617 3 2 2 2 1045 1090 1100 1035
618 3 2 2 2 637 676 732 579
619 3 2 2 2 692 764 778 717
620 3 2 2 2 1108 1130 1037 1064
621 3 2 2 2 603 631 520 521
622 3 2 2 2 770 790 686 748
623 3 2 2 2 587 602 712 628
624 3 2 2 2 584 632 474 475
625 3 2 2 2 1004 882 812 924
626 3 2 2 2 640 580 493 494
627 3 2 2 2 868 944 978 1040
628 3 2 2 2 738 785 757 699
629 3 2 2 2 587 633 489 490
630 3 2 2 2 636 580 759 709
631 3 2 2 2 705 659 610 706
632 3 2 2 2 1046 975 1022 1083
633 3 2 2 2 624 781 964 684
634 3 2 2 2 940 1067 1082 982
635 3 2 2 2 692 646 609 764
636 3 2 2 2 1141 1122 1083 1022
637 3 2 2 2 1019 892 792 827
638 3 2 2 2 588 635 471 472
639 3 2 2 2 580 636 492 493
640 3 2 2 2 739 782 745 696
641 3 2 2 2 635 605 470 471
642 3 2 2 2 589 469 470 605
643 3 2 2 2 776 825 809 720
644 3 2 2 2 779 736 669 861
645 3 2 2 2 740 669 647 574
646 3 2 2 2 953 875 772 847
647 3 2 2 2 1032 1096 1220 1088
648 3 2 2 2 1238 1201 1231 1242
649 3 2 2 2 927 911 878 1013
650 3 2 2 2 704 592 660 696
651 3 2 2 2 943 937 776 955
652 3 2 2 2 997 925 889 815
653 3 2 2 2 909 803 819 908
654 3 2 2 2 676 771 829 732
655 3 2 2 2 631 581 519 520
656 3 2 2 2 604 518 519 581
657 3 2 2 2 912 945 869 820
658 3 2 2 2 745 786 800 752
659 3 2 2 2 622 707 798 755
660 3 2 2 2 859 903 883 802
661 3 2 2 2 1156 1092 1025 1123
662 3 2 2 2 586 637 487 488
663 3 2 2 2 943 900 823 929
664 3 2 2 2 942 454 965 1010
665 3 2 2 2 894 898 962 959
666 3 2 2 2 782 820 786 745
667 3 2 2 2 1034 1000 946 1043
668 3 2 2 2 650 594 751 668
669 3 2 2 2 1021 987 1097 1053
670 3 2 2 2 741 774 836 698
671 3 2 2 2 643 576 627 864
672 3 2 2 2 659 705 707 573
673 3 2 2 2 1046 991 970 890
674 3 2 2 2 1205 1204 1210 1235
675 3 2 2 2 710 801 719 623
676 3 2 2 2 821 870 950 834
677 3 2 2 2 586 810 857 728
678 3 2 2 2 834 799 717 821
679 3 2 2 2 748 570 615 725
680 3 2 2 2 617 652 464 465
681 3 2 2 2 1090 1045 1002 1095
682 3 2 2 2 1001 924 812 902
683 3 2 2 2 1040 978 1093 1135
684 3 2 2 2 1035 1001 952 1045
685 3 2 2 2 765 751 698 836
686 3 2 2 2 650 668 764 609
687 3 2 2 2 614 630 526 527
688 3 2 2 2 637 579 486 487
689 3 2 2 2 1094 1043 981 1081
690 3 2 2 2 771 877 956 829
691 3 2 2 2 1101 1081 981 1065
692 3 2 2 2 698 651 571 741
693 3 2 2 2 751 765 856 668
694 3 2 2 2 758 670 645 577
695 3 2 2 2 646 692 621 572
696 3 2 2 2 648 601 476 477
697 3 2 2 2 1165 1201 1238 1226
698 3 2 2 2 574 653 675 740
699 3 2 2 2 887 939 1116 1158
700 3 2 2 2 964 781 828 906
701 3 2 2 2 998 1066 1031 929
702 3 2 2 2 696 745 752 704
703 3 2 2 2 799 834 769 750
704 3 2 2 2 1049 1038 927 1013
705 3 2 2 2 981 879 937 1065
706 3 2 2 2 1006 953 847 888
707 3 2 2 2 915 848 807 860
708 3 2 2 2 744 675 653 590
709 3 2 2 2 675 744 800 796
710 3 2 2 2 721 1021 958 1069
711 3 2 2 2 701 735 593 662
712 3 2 2 2 921 974 919 871
713 3 2 2 2 608 647 669 736
714 3 2 2 2 897 932 872 811
715 3 2 2 2 943 1012 1065 937
716 3 2 2 2 871 919 908 819
717 3 2 2 2 1068 833 754 681
718 3 2 2 2 785 835 994 897
719 3 2 2 2 649 607 731 671
720 3 2 2 2 867 954 856 765
721 3 2 2 2 1048 972 870 930
722 3 2 2 2 921 1007 1033 1029
723 3 2 2 2 631 680 726 711
724 3 2 2 2 604 638 517 518
725 3 2 2 2 465 449 466 617
726 3 2 2 2 1132 1131 1076 1029
727 3 2 2 2 775 838 725 697
728 3 2 2 2 799 750 706 621
729 3 2 2 2 593 640 494 495
730 3 2 2 2 852 942 998 904
731 3 2 2 2 671 731 859 802
732 3 2 2 2 845 798 718 846
733 3 2 2 2 579 639 485 486
734 3 2 2 2 1033 1149 1132 1029
735 3 2 2 2 672 913 863 784
736 3 2 2 2 918 884 956 984
737 3 2 2 2 843 952 1001 902
738 3 2 2 2 813 905 922 1007
739 3 2 2 2 743 767 624 700
740 3 2 2 2 1078 972 1048 1138
741 3 2 2 2 755 753 691 622
742 3 2 2 2 674 656 612 746
743 3 2 2 2 572 621 706 610
744 3 2 2 2 664 687 663 598
745 3 2 2 2 968 878 911 766
746 3 2 2 2 638 577 516 517
747 3 2 2 2 886 837 670 758
748 3 2 2 2 925 1026 1097 987
749 3 2 2 2 773 802 883 818
750 3 2 2 2 925 1115 1127 1026
751 3 2 2 2 639 578 484 485
752 3 2 2 2 843 801 757 811
753 3 2 2 2 549 807 747 548
754 3 2 2 2 627 720 809 864
755 3 2 2 2 1171 1233 1202 1208
756 3 2 2 2 606 576 455 447
757 3 2 2 2 875 951 822 772
758 3 2 2 2 642 699 710 611
759 3 2 2 2 648 570 748 686
760 3 2 2 2 965 454 1016 858
761 3 2 2 2 995 1027 1157 1055
762 3 2 2 2 701 754 833 780
763 3 2 2 2 644 703 742 603
764 3 2 2 2 1181 1138 1075 1185
765 3 2 2 2 984 1025 1092 918
766 3 2 2 2 589 641 468 469
767 3 2 2 2 814 839 743 790
768 3 2 2 2 578 639 913 672
769 3 2 2 2 768 819 803 716
770 3 2 2 2 578 642 483 484
771 3 2 2 2 810 679 824 857
772 3 2 2 2 652 617 585 634
773 3 2 2 2 576 643 456 455
774 3 2 2 2 1160 1093 1041 1104
775 3 2 2 2 856 954 885 778
776 3 2 2 2 1168 1121 1196 1203
777 3 2 2 2 758 1069 958 886
778 3 2 2 2 903 946 1000 883
779 3 2 2 2 797 756 683 793
780 3 2 2 2 973 1072 1126 1024
781 3 2 2 2 643 607 457 456
782 3 2 2 2 653 574 504 505
783 3 2 2 2 925 987 969 889
784 3 2 2 2 642 611 482 483
785 3 2 2 2 655 697 725 615
786 3 2 2 2 1001 1035 1050 924
787 3 2 2 2 925 997 1088 1115
788 3 2 2 2 756 797 746 687
789 3 2 2 2 544 543 666 714
790 3 2 2 2 724 804 888 847
791 3 2 2 2 837 912 820 782
792 3 2 2 2 610 530 531 572
793 3 2 2 2 646 572 531 532
794 3 2 2 2 1131 1171 1134 1076
795 3 2 2 2 1083 1114 991 1046
796 3 2 2 2 963 553 554 1018
797 3 2 2 2 447 464 652 606
798 3 2 2 2 808 823 900 723
799 3 2 2 2 1195 1219 1231 1201
800 3 2 2 2 1116 939 999 1060
801 3 2 2 2 774 741 674 842
802 3 2 2 2 477 478 570 648
803 3 2 2 2 643 864 731 607
804 3 2 2 2 886 958 979 917
805 3 2 2 2 1234 1240 1246 1225
806 3 2 2 2 577 645 515 516
807 3 2 2 2 654 681 754 582
808 3 2 2 2 650 609 533 534
809 3 2 2 2 1002 872 932 973
810 3 2 2 2 609 646 532 533
811 3 2 2 2 574 647 503 504
812 3 2 2 2 607 649 458 457
813 3 2 2 2 801 710 699 757
814 3 2 2 2 704 752 685 665
815 3 2 2 2 651 698 751 594
816 3 2 2 2 752 800 744 685
817 3 2 2 2 754 701 658 582
818 3 2 2 2 611 575 481 482
819 3 2 2 2 723 626 862 808
820 3 2 2 2 687 664 583 756
821 3 2 2 2 594 650 534 535
822 3 2 2 2 651 594 535 536
823 3 2 2 2 739 696 660 591
824 3 2 2 2 1051 1005 927 1038
825 3 2 2 2 825 776 937 879
826 3 2 2 2 799 621 692 717
827 3 2 2 2 872 1002 1045 952
828 3 2 2 2 1031 1101 1065 1012
829 3 2 2 2 647 608 502 503
830 3 2 2 2 571 651 536 537
831 3 2 2 2 656 571 537 538
832 3 2 2 2 649 597 459 458
833 3 2 2 2 662 496 497 596
834 3 2 2 2 597 649 671 737
835 3 2 2 2 801 843 902 719
836 3 2 2 2 888 914 934 1006
837 3 2 2 2 626 723 795 682
838 3 2 2 2 590 661 685 744
839 3 2 2 2 595 688 854 853
840 3 2 2 2 703 644 667 715
841 3 2 2 2 1204 1186 1129 1210
842 3 2 2 2 1040 971 936 868
843 3 2 2 2 590 653 505 506
844 3 2 2 2 923 947 814 895
845 3 2 2 2 628 677 762 587
846 3 2 2 2 614 573 707 622
847 3 2 2 2 815 889 783 722
848 3 2 2 2 1048 930 990 1047
849 3 2 2 2 663 687 746 612
850 3 2 2 2 640 673 759 580
851 3 2 2 2 1080 1044 972 1078
852 3 2 2 2 1162 1140 1120 1113
853 3 2 2 2 608 654 501 502
854 3 2 2 2 656 674 741 571
855 3 2 2 2 909 908 939 887
856 3 2 2 2 705 718 798 707
857 3 2 2 2 1098 1054 923 1004
858 3 2 2 2 928 995 1055 989
859 3 2 2 2 798 845 850 755
860 3 2 2 2 575 655 480 481
861 3 2 2 2 766 840 891 968
862 3 2 2 2 934 1005 1051 1006
863 3 2 2 2 866 735 701 780
864 3 2 2 2 720 1014 955 776
865 3 2 2 2 819 768 813 871
866 3 2 2 2 654 582 500 501
867 3 2 2 2 694 625 722 783
868 3 2 2 2 635 588 678 763
869 3 2 2 2 612 656 538 539
870 3 2 2 2 740 675 796 840
871 3 2 2 2 999 1030 1106 1060
872 3 2 2 2 1204 1205 1124 1178
873 3 2 2 2 1178 1130 1186 1204
874 3 2 2 2 982 1039 877 940
875 3 2 2 2 645 591 514 515
876 3 2 2 2 750 769 846 718
877 3 2 2 2 596 497 450 498
878 3 2 2 2 947 923 1054 983
879 3 2 2 2 1024 1145 1189 1095
880 3 2 2 2 581 625 694 604
881 3 2 2 2 1098 1004 924 1050
882 3 2 2 2 597 657 460 459
883 3 2 2 2 845 846 957 899
884 3 2 2 2 657 683 756 583
885 3 2 2 2 1044 1080 1086 977
886 3 2 2 2 874 899 1008 948
887 3 2 2 2 582 658 499 500
888 3 2 2 2 1133 1193 1129 1150
889 3 2 2 2 575 611 710 623
890 3 2 2 2 661 599 665 685
891 3 2 2 2 782 739 670 837
892 3 2 2 2 973 1024 1095 1002
893 3 2 2 2 1076 974 921 1029
894 3 2 2 2 746 788 842 674
895 3 2 2 2 1007 921 871 813
896 3 2 2 2 599 616 613 665
897 3 2 2 2 661 590 506 507
898 3 2 2 2 593 495 496 662
899 3 2 2 2 944 868 828 767
900 3 2 2 2 591 645 670 739
901 3 2 2 2 641 585 467 468
902 3 2 2 2 617 466 467 585
903 3 2 2 2 1131 1132 1189 1145
904 3 2 2 2 717 778 885 821
905 3 2 2 2 1085 1107 1003 1063
906 3 2 2 2 610 659 529 530
907 3 2 2 2 658 596 498 499
908 3 2 2 2 591 660 513 514
909 3 2 2 2 655 615 479 480
910 3 2 2 2 759 673 832 804
911 3 2 2 2 844 955 1014 910
912 3 2 2 2 784 738 578 672
913 3 2 2 2 599 661 507 508
914 3 2 2 2 1047 1075 1138 1048
915 3 2 2 2 704 665 613 592
916 3 2 2 2 663 612 539 540
917 3 2 2 2 448 463 598 541
918 3 2 2 2 509 451 510 616
919 3 2 2 2 1205 1185 1075 1124
920 3 2 2 2 1159 1084 1146 1180
921 3 2 2 2 1081 1129 1186 1094
922 3 2 2 2 1040 1077 1148 971
923 3 2 2 2 598 463 462 664
924 3 2 2 2 874 905 794 850
925 3 2 2 2 1003 975 951 875
926 3 2 2 2 775 812 882 838
927 3 2 2 2 911 861 669 766
928 3 2 2 2 598 663 540 541
929 3 2 2 2 1192 1168 1203 1215
930 3 2 2 2 895 882 1004 923
931 3 2 2 2 638 693 758 577
932 3 2 2 2 616 599 508 509
933 3 2 2 2 1110 1104 1041 983
934 3 2 2 2 870 972 1044 950
935 3 2 2 2 657 583 461 460
936 3 2 2 2 660 592 512 513
937 3 2 2 2 902 812 775 719
938 3 2 2 2 1153 1052 977 1086
939 3 2 2 2 605 626 682 589
940 3 2 2 2 568 569 991 1114
941 3 2 2 2 1054 1098 1194 1154
942 3 2 2 2 1052 1008 899 957
943 3 2 2 2 769 873 957 846
944 3 2 2 2 566 567 1084 1159
945 3 2 2 2 1117 1036 1073 1142
946 3 2 2 2 802 773 737 671
947 3 2 2 2 583 664 462 461
948 3 2 2 2 1122 1141 1192 1174
949 3 2 2 2 1055 1049 1013 989
950 3 2 2 2 879 981 1043 946
951 3 2 2 2 592 613 511 512
952 3 2 2 2 616 510 511 613
953 3 2 2 2 1122 1174 1197 1166
954 3 2 2 2 659 573 528 529
955 3 2 2 2 615 570 478 479
956 3 2 2 2 614 527 528 573
957 3 2 2 2 851 806 708 760
958 3 2 2 2 557 556 1143 1191
959 3 2 2 2 562 563 1224 1245
960 3 2 2 2 1052 957 873 977
961 3 2 2 2 1144 1109 1062 986
962 3 2 2 2 700 686 790 743
963 3 2 2 2 1228 1209 1143 1164
964 3 2 2 2 1066 998 942 1010
965 3 2 2 2 564 565 1173 1217
966 3 2 2 2 561 560 1227 1239
967 3 2 2 2 1008 1052 1153 1087
968 3 2 2 2 811 872 952 843
969 3 2 2 2 1050 1152 1194 1098
970 3 2 2 2 1154 1110 983 1054
971 3 2 2 2 899 874 850 845
972 3 2 2 2 922 948 1057 980
973 3 2 2 2 884 918 994 835
974 3 2 2 2 948 922 905 874
975 3 2 2 2 1154 1153 1086 1110
976 3 2 2 2 790 770 895 814
977 3 2 2 2 753 755 850 794
978 3 2 2 2 1152 1057 1087 1194
979 3 2 2 2 697 623 719 775
980 3 2 2 2 555 554 1036 1117
981 3 2 2 2 559 558 1177 1218
982 3 2 2 2 1035 1100 1152 1050
983 3 2 2 2 839 814 947 876
984 3 2 2 2 809 825 903 859
985 3 2 2 2 1144 1178 1124 1109
986 3 2 2 2 876 947 983 1041
987 3 2 2 2 1087 1057 948 1008
988 3 2 2 2 1000 1034 985 935
989 3 2 2 2 1022 1107 1151 1141
990 3 2 2 2 768 794 905 813
991 3 2 2 2 1148 1155 1099 971
992 3 2 2 2 584 601 700 624
993 3 2 2 2 639 579 732 913
994 3 2 2 2 1179 1210 1129 1193
995 3 2 2 2 919 999 939 908
996 3 2 2 2 1225 1197 1215 1234
997 3 2 2 2 1179 1147 1155 1169
998 3 2 2 2 1083 1122 1166 1146
999 3 2 2 2 930 885 954 990
1000 3 2 2 2 1148 1077 1172 1212
1001 3 2 2 2 561 1239 1251 562
1002 3 2 2 2 827 938 996 1019
1003 3 2 2 2 1116 1060 1059 1071
1004 3 2 2 2 562 1245 1248 561
1005 3 2 2 2 875 953 1063 1003
1006 3 2 2 2 1093 1160 1181 1135
1007 3 2 2 2 1237 1229 1211 1207
1008 3 2 2 2 944 767 743 839
1009 3 2 2 2 709 759 804 724
1010 3 2 2 2 975 1003 1107 1022
1011 3 2 2 2 978 944 839 876
1012 3 2 2 2 993 1009 1071 1059
1013 3 2 2 2 1139 1105 567 1161
1014 3 2 2 2 841 786 820 869
1015 3 2 2 2 564 1217 1224 563
1016 3 2 2 2 1031 1091 1150 1101
1017 3 2 2 2 911 927 1005 960
1018 3 2 2 2 1127 1220 1140 1187
1019 3 2 2 2 962 1015 818 935
1020 3 2 2 2 1155 1147 1061 1099
1021 3 2 2 2 566 1159 1173 565
1022 3 2 2 2 555 1058 1018 554
1023 3 2 2 2 829 863 913 732
1024 3 2 2 2 962 898 830 1015
1025 3 2 2 2 859 731 864 809
1026 3 2 2 2 889 969 1020 783
1027 3 2 2 2 559 1214 1184 558
1028 3 2 2 2 559 1218 1227 560
1029 3 2 2 2 989 1013 878 968
1030 3 2 2 2 855 713 763 805
1031 3 2 2 2 920 993 1103 1056
1032 3 2 2 2 851 760 689 777
1033 3 2 2 2 1205 1212 1172 1185
1034 3 2 2 2 1233 1243 1228 1202
1035 3 2 2 2 555 1117 1143 556
1036 3 2 2 2 525 595 853 916
1037 3 2 2 2 823 808 855 904
1038 3 2 2 2 1177 1221 1227 1218
1039 3 2 2 2 824 679 762 677
1040 3 2 2 2 1221 1177 1209 1247
1041 3 2 2 2 1214 1219 1187 1184
1042 3 2 2 2 1103 993 1059 1102
1043 3 2 2 2 761 817 1158 907
1044 3 2 2 2 1217 1232 1246 1224
1045 3 2 2 2 724 749 712 709
1046 3 2 2 2 1153 1154 1194 1087
1047 3 2 2 2 826 926 1071 1009
1048 3 2 2 2 906 831 730 964
1049 3 2 2 2 1143 1209 1177 1191
1050 3 2 2 2 747 807 848 787
1051 3 2 2 2 568 1114 1084 567
1052 3 2 2 2 666 760 708 714
1053 3 2 2 2 1188 1182 1139 1161
1054 3 2 2 2 778 764 668 856
1055 3 2 2 2 1079 1137 1216 1196
1056 3 2 2 2 965 933 1061 988
1057 3 2 2 2 1217 1173 1213 1232
1058 3 2 2 2 1138 1181 1160 1078
1059 3 2 2 2 563 562 1251 1244
1060 3 2 2 2 1082 1067 949 1139
1061 3 2 2 2 550 860 807 549
1062 3 2 2 2 1197 1174 1192 1215
1063 3 2 2 2 830 898 842 788
1064 3 2 2 2 560 561 1248 1242
1065 3 2 2 2 1103 1073 1036 1056
1066 3 2 2 2 1176 1192 1141 1151
1067 3 2 2 2 841 891 840 796
1068 3 2 2 2 1130 1108 1094 1186
1069 3 2 2 2 1183 1073 1103 1128
1070 3 2 2 2 693 1020 969 721
1071 3 2 2 2 1158 926 826 907
1072 3 2 2 2 1061 1147 1179 1111
1073 3 2 2 2 1080 1104 1110 1086
1074 3 2 2 2 1119 1151 1107 1085
1075 3 2 2 2 1129 1081 1101 1150
1076 3 2 2 2 1244 1229 564 563
1077 3 2 2 2 991 569 453 970
1078 3 2 2 2 1007 922 980 1033
1079 3 2 2 2 1221 1236 1249 1227
1080 3 2 2 2 832 914 888 804
1081 3 2 2 2 1056 1036 554 553
1082 3 2 2 2 884 863 829 956
1083 3 2 2 2 624 767 828 781
1084 3 2 2 2 1120 1140 1220 1096
1085 3 2 2 2 1215 1203 1223 1234
1086 3 2 2 2 1051 1063 953 1006
1087 3 2 2 2 808 862 713 855
1088 3 2 2 2 1009 961 551 550
1089 3 2 2 2 525 916 620 524
1090 3 2 2 2 1099 1061 933 1011
1091 3 2 2 2 960 1017 1068 779
1092 3 2 2 2 1095 1189 1132 1149
1093 3 2 2 2 1228 1164 1183 1202
1094 3 2 2 2 1158 817 851 887
1095 3 2 2 2 761 806 851 817
1096 3 2 2 2 907 826 549 548
1097 3 2 2 2 965 988 1028 1010
1098 3 2 2 2 556 1113 1058 555
1099 3 2 2 2 1226 1240 1234 1223
1100 3 2 2 2 1224 1250 1248 1245
1101 3 2 2 2 558 557 1191 1177
1102 3 2 2 2 1118 1091 1031 1066
1103 3 2 2 2 869 928 891 841
1104 3 2 2 2 806 761 547 546
1105 3 2 2 2 1223 1216 1165 1226
1106 3 2 2 2 880 833 1068 1017
1107 3 2 2 2 1009 993 920 961
1108 3 2 2 2 1127 1187 1219 1195
1109 3 2 2 2 1155 1148 1212 1169
1110 3 2 2 2 542 543 667 619
1111 3 2 2 2 1164 1143 1117 1142
1112 3 2 2 2 959 962 935 985
1113 3 2 2 2 1066 1010 1028 1118
1114 3 2 2 2 1111 1179 1193 1133
1115 3 2 2 2 1213 1225 1246 1232
1116 3 2 2 2 881 857 824 893
1117 3 2 2 2 565 564 1229 1237
1118 3 2 2 2 1100 980 1057 1152
1119 3 2 2 2 1213 1173 1159 1180
1120 3 2 2 2 837 886 917 912
1121 3 2 2 2 566 565 1237 1188
1122 3 2 2 2 568 1112 966 569
1123 3 2 2 2 567 566 1188 1161
1124 3 2 2 2 760 666 618 689
1125 3 2 2 2 1073 1183 1164 1142
1126 3 2 2 2 1028 988 1061 1111
1127 3 2 2 2 552 551 961 920
1128 3 2 2 2 551 915 860 550
1129 3 2 2 2 960 779 861 911
1130 3 2 2 2 1043 1094 1108 1034
1131 3 2 2 2 1018 996 938 963
1132 3 2 2 2 1146 1166 1213 1180
1133 3 2 2 2 1175 1206 1190 1126
1134 3 2 2 2 567 1105 1112 568
1135 3 2 2 2 1017 934 914 880
1136 3 2 2 2 1187 1140 1162 1184
1137 3 2 2 2 1084 1114 1083 1146
1138 3 2 2 2 524 620 542 452
1139 3 2 2 2 777 909 887 851
1140 3 2 2 2 1237 1207 1182 1188
1141 3 2 2 2 1241 1247 1209 1228
1142 3 2 2 2 853 854 777 689
1143 3 2 2 2 1211 1170 1182 1207
1144 3 2 2 2 557 1162 1113 556
1145 3 2 2 2 1139 949 1112 1105
1146 3 2 2 2 1058 1070 996 1018
1147 3 2 2 2 690 734 910 967
1148 3 2 2 2 545 544 714 708
1149 3 2 2 2 1229 1244 1251 1230
1150 3 2 2 2 880 914 832 866
1151 3 2 2 2 1150 1091 1118 1133
1152 3 2 2 2 1113 1120 1070 1058
1153 3 2 2 2 916 618 666 620
1154 3 2 2 2 967 910 1014 733
1155 3 2 2 2 1071 926 1158 1116
1156 3 2 2 2 849 453 569 966
1157 3 2 2 2 1242 1248 1250 1238
1158 3 2 2 2 727 865 453 849
1159 3 2 2 2 542 619 522 523
1160 3 2 2 2 625 581 631 711
1161 3 2 2 2 691 688 595 630
1162 3 2 2 2 593 735 673 640
1163 3 2 2 2 866 832 673 735
1164 3 2 2 2 779 1068 681 736
1165 3 2 2 2 783 1020 693 694
1166 3 2 2 2 728 857 881 816
1167 3 2 2 2 1062 867 941 986
1168 3 2 2 2 1067 881 893 949
1169 3 2 2 2 949 893 966 1112
1170 3 2 2 2 941 992 1144 986
1171 3 2 2 2 1072 1042 1092 1156
1172 3 2 2 2 1053 1097 1137 1079
1173 3 2 2 2 1103 1102 1134 1128
1174 3 2 2 2 1216 1137 1136 1165
1175 3 2 2 2 1206 1175 1163 1199
1176 3 2 2 2 1233 1206 1199 1243
1177 3 2 2 2 1251 1239 1222 1230
$EndElements
