$MeshFormat
2.2 0 8
$EndMeshFormat
$Nodes
1250
1 0 0 0
2 100 0 0
3 100 50 100
4 25 50 100
5 0 50 100
6 79.1 10.45 20.9
7 20.88 39.56 79.12
8 7.69230769230769 0 0
9 15.3846153846154 0 0
10 23.0769230769231 0 0
11 30.7692307692308 0 0
12 38.4615384615385 0 0
13 46.1538461538462 0 0
14 53.8461538461539 0 0
15 61.5384615384615 0 0
16 69.2307692307692 0 0
17 76.9230769230769 0 0
18 84.6153846153846 0 0
19 92.3076923076923 0 0
20 100 3.33333333333334 6.66666666666667
21 100 6.66666666666667 13.3333333333333
22 100 10 20
23 100 13.3333333333333 26.6666666666667
24 100 16.6666666666667 33.3333333333334
25 100 20 40
26 100 23.3333333333333 46.6666666666667
27 100 26.6666666666667 53.3333333333334
28 100 30 60
29 100 33.3333333333333 66.6666666666667
30 100 36.6666666666667 73.3333333333333
31 100 40 80
32 100 43.3333333333333 86.6666666666667
33 100 46.6666666666667 93.3333333333333
34 92.5 50 100
35 85 50 100
36 77.5 50 100
37 70 50 100
38 62.5 50 100
39 55 50 100
40 47.5 50 100
41 40 50 100
42 32.5 50 100
43 16.6666666666667 50 100
44 8.33333333333333 50 100
45 0 46.6666666666667 93.3333333333333
46 0 43.3333333333333 86.6666666666667
47 0 40 80
48 0 36.6666666666667 73.3333333333333
49 0 33.3333333333333 66.6666666666666
50 0 30 60
51 0 26.6666666666667 53.3333333333333
52 0 23.3333333333333 46.6666666666666
53 0 20 40
54 0 16.6666666666667 33.3333333333333
55 0 13.3333333333333 26.6666666666667
56 0 9.99999999999999 20
57 0 6.66666666666666 13.3333333333333
58 0 3.33333333333334 6.66666666666667
59 77.0924137931034 11.4537931034483 22.9075862068966
60 75.0848275862069 12.4575862068966 24.9151724137931
61 73.0772413793103 13.4613793103448 26.9227586206897
62 71.0696551724138 14.4651724137931 28.9303448275862
63 69.0620689655172 15.4689655172414 30.9379310344828
64 67.0544827586207 16.4727586206897 32.9455172413793
65 65.0468965517241 17.4765517241379 34.9531034482759
66 63.0393103448276 18.4803448275862 36.9606896551724
67 61.031724137931 19.4841379310345 38.968275862069
68 59.0241379310345 20.4879310344828 40.9758620689655
69 57.0165517241379 21.491724137931 42.9834482758621
70 55.0089655172414 22.4955172413793 44.9910344827586
71 53.0013793103448 23.4993103448276 46.9986206896552
72 50.9937931034483 24.5031034482759 49.0062068965517
73 48.9862068965517 25.5068965517241 51.0137931034483
74 46.9786206896552 26.5106896551724 53.0213793103448
75 44.9710344827586 27.5144827586207 55.0289655172414
76 42.9634482758621 28.518275862069 57.0365517241379
77 40.9558620689655 29.5220689655172 59.0441379310345
78 38.948275862069 30.5258620689655 61.051724137931
79 36.9406896551724 31.5296551724138 63.0593103448276
80 34.9331034482759 32.5334482758621 65.0668965517241
81 32.9255172413793 33.5372413793103 67.0744827586207
82 30.9179310344828 34.5410344827586 69.0820689655172
83 28.9103448275862 35.5448275862069 71.0896551724138
84 26.9027586206897 36.5486206896552 73.0972413793103
85 24.8951724137931 37.5524137931034 75.1048275862069
86 22.8875862068966 38.5562068965517 77.1124137931035
87 92.930226576485 36.9046829207583 73.8093658415165
88 7.28792054009345 13.3523219097061 26.7046438194122
89 63.1026237192028 46.9332918421673 93.8665836843347
90 92.5173513728434 30.4136922127182 60.8273844254364
91 7.0102215910704 19.8213952779444 39.6427905558888
92 39.942461674837 4.04763703777725 8.09527407555449
93 93.0869458604723 23.3779609245801 46.7559218491602
94 8.63352868668531 26.7867421691435 53.573484338287
95 47.1014104464464 46.3890601651097 92.7781203302194
96 54.5635679328953 3.00230500901698 6.00461001803396
97 85.1465076241654 46.7514756600846 93.5029513201692
98 15.3824243227694 3.38320633048671 6.76641266097343
99 32.2188246475206 46.9463758173116 93.8927516346232
100 92.0518483043379 16.8604541633984 33.7209083267968
101 7.09981459024073 33.2222660092685 66.4445320185369
102 76.9467303945279 2.90161907768484 5.80323815536968
103 25.0231266244938 46.2296778127849 92.4593556255698
104 93.3933514273823 13.2915156146244 26.5830312292489
105 93.5960422601202 10.248879053039 20.497758106078
106 7.10885644283355 40.2150519080983 80.4301038161966
107 83.5291264161671 3.02853145078855 6.0570629015771
108 16.0647186296652 46.2287947815328 92.4575895630655
109 7.12820101493796 43.3182755323311 86.6365510646622
110 93.1446212034793 7.27006803907753 14.5401360781551
111 61.6846628085519 3.0785916811345 6.157183362269
112 7.67201809521748 3.35572116352998 6.71144232705996
113 7.62352725686057 6.71306222925014 13.4261244585003
114 23.1367841571681 3.42800523769799 6.85601047539598
115 77.7716819543982 46.8132739269628 93.6265478539257
116 91.0030189504714 3.95545657710325 7.91091315420649
117 92.5698596824992 46.7061329238561 93.4122658477122
118 92.6760489649882 43.4243378588968 86.8486757177936
119 7.7567550736219 46.5698454353014 93.1396908706029
120 55.1488507825022 5.84030913827641 11.6806182765528
121 86.6676490386985 15.5221385856547 31.0442771713093
122 31.9699595992536 44.3483968428297 88.6967936856593
123 82.2269136794781 5.59059510354305 11.1811902070861
124 22.8009593346884 43.6995364463057 87.3990728926114
125 13.1066230880481 40.5205938822837 81.0411877645675
126 8.70696530031103 36.7122488820378 73.4244977640755
127 69.6287370563081 3.5462635830163 7.0925271660326
128 38.920163165682 46.9599742804959 93.9199485609918
129 6.97089807824273 30.1969291570055 60.3938583140111
130 93.2437843775279 20.3471848792106 40.6943697584211
131 91.2363903348985 26.7516843272816 53.5033686545632
132 7.31061831007683 23.0652098700086 46.1304197400171
133 47.5773090279192 3.14801358208275 6.29602716416551
134 55.7689773762934 46.9060342175674 93.8120684351349
135 92.9002695595237 33.6694604391929 67.3389208783858
136 7.08350946455808 16.6030843548074 33.2061687096149
137 15.4128661442491 6.81225920109143 13.6245184021829
138 31.0072520756976 3.56692158674779 7.13384317349558
139 70.4364051292637 46.8813525770361 93.7627051540722
140 85.4034873762543 43.5342101852072 87.0684203704145
141 92.8206380873596 40.1610652144839 80.3221304289679
142 7.50517327967895 10.0609255792861 20.1218511585723
143 13.3815989957001 43.0544549156806 86.1089098313613
144 87.6690783399251 13.1554258622405 26.3108517244809
145 87.1977914616527 7.85038004049492 15.7007600809898
146 86.5017392358126 5.91585313911852 11.831706278237
147 86.0046793434634 33.9855387217041 67.9710774434082
148 13.9977803450334 16.607029941267 33.214059882534
149 56.8143674872955 44.0537243131969 88.1074486263938
150 86.7670934294085 25.1938689320515 50.387737864103
151 13.9436406964337 22.5685702564034 45.1371405128068
152 30.9983055418091 6.95901832623353 13.9180366524671
153 12.9571002474179 30.3639497717446 60.7278995434891
154 61.5042827999753 5.91433725274197 11.8286745054839
155 48.9284499175673 5.8600757958979 11.7201515917958
156 76.7991508027828 5.34481608132445 10.6896321626489
157 85.7057890071498 40.3318142131268 80.6636284262535
158 14.913872777562 35.0830273974431 70.1660547948862
159 41.8472241673747 44.0905332928509 88.1810665857018
160 87.0803876190429 18.7035216787744 37.4070433575488
161 82.3885927825413 15.2276932300092 30.4553864600184
162 23.3234493083518 6.89961346491831 13.7992269298366
163 80.9761414756248 8.10715423367614 16.2143084673523
164 85.3268325919769 17.0526423793717 34.1052847587433
165 70.9310566247235 43.7706082914017 87.5412165828033
166 21.1063831974033 40.4492626883871 80.8985253767742
167 14.5908643302534 13.5086783027732 27.0173566055463
168 78.1902923117075 43.6611402587038 87.3222805174075
169 15.2169404448145 10.2449930255746 20.4899860511491
170 14.5982908580159 38.3269870776232 76.6539741552464
171 37.4495544679786 44.2606029391766 88.5212058783532
172 17.6673392248094 40.6682574057085 81.336514811417
173 44.5028344016049 6.05487880371354 12.1097576074271
174 28.1162104495077 44.3551880242797 88.7103760485593
175 43.9639081603433 7.92785413344895 15.8557082668979
176 55.3723495006187 8.47279543254087 16.9455908650817
177 20.5058644103074 16.7260980173194 33.4521960346388
178 36.424232515565 41.8444994620562 83.6889989241125
179 31.5021513298125 10.0063938471304 20.0127876942608
180 72.8645684069828 5.345910518086 10.691821036172
181 85.538396884753 30.9108851181566 61.8217702363132
182 75.7099935984061 7.39542837560467 14.7908567512093
183 46.5181478827234 43.2676372991356 86.5352745982713
184 87.2112908647142 23.2976812246049 46.5953624492098
185 15.1640235273466 25.2494056760838 50.4988113521677
186 13.7271569479876 19.6195706760863 39.2391413521726
187 82.8606996619694 13.2203743017018 26.4407486034036
188 18.4560320530937 39.0810826760134 78.1621653520269
189 13.3521594933111 32.8393129112529 65.6786258225057
190 24.0204807368774 10.7694914004373 21.5389828008747
191 85.9523423369516 37.1358854332395 74.271770866479
192 71.3744684671138 40.5903275405324 81.1806550810648
193 78.5850410780526 40.469795073697 80.939590147394
194 63.6443191985197 43.8851779178825 87.770355835765
195 82.0597355520612 17.079051585876 34.1581031717521
196 26.6921211129669 42.9354222668474 85.8708445336948
197 82.9187073509382 10.8123532894225 21.6247065788451
198 38.0044789420146 7.34036987038821 14.6807397407764
199 66.9806435710218 6.24689417138059 12.4937883427612
200 18.1254010212634 42.5174700885627 85.0349401771253
201 84.2717253330529 28.0899278115972 56.1798556231945
202 24.0252267647343 39.8723388534352 79.7446777068705
203 82.6877306331711 25.6380344370351 51.2760688740703
204 20.1915821121777 24.4429118652912 48.8858237305825
205 18.2455247210737 30.314865419369 60.629730838738
206 62.0095400594207 8.78329108320395 17.5665821664079
207 17.6075885203849 36.7097403543299 73.4194807086597
208 19.9797929745133 19.4608782416629 38.9217564833258
209 78.2333698697173 15.3305376992621 30.6610753985243
210 82.0637973192982 18.9390612621277 37.8781225242553
211 79.2047608041518 31.2378216645662 62.4756433291323
212 71.2061072775361 36.9413036033094 73.8826072066188
213 28.163725595937 12.6930228383999 25.3860456767998
214 63.1581636524659 40.4248457111625 80.8496914223249
215 49.5048014863978 8.28778282141144 16.5755656428229
216 22.9754770117868 36.7112877050345 73.4225754100689
217 41.3420081998387 41.7229875778957 83.4459751557913
218 79.3345864840119 34.1221253617404 68.2442507234808
219 21.4268490045598 13.9410668999595 27.8821337999189
220 78.9352741604001 37.2116514952101 74.4233029904203
221 37.817933575132 10.1138900028031 20.2277800056063
222 27.3547365709809 39.143399302967 78.2867986059341
223 30.8357656859611 41.8131185996519 83.6262371993039
224 71.3782798661009 6.86833576249711 13.7366715249942
225 87.7517981586705 10.4962298473472 20.9924596946944
226 25.2086715388525 41.3214404711658 82.6428809423317
227 19.3546318308796 44.006799328638 88.0135986572759
228 20.4294616052197 37.7701943594873 75.5403887189746
229 21.8508804708168 41.9485935438618 83.8971870877236
230 79.0336213755611 11.9864234226331 23.9728468452662
231 77.3279519759379 9.37634523122389 18.7526904624478
232 43.7499135094669 10.4277568246826 20.8555136493652
233 64.4498130846806 37.4599131940239 74.9198263880477
234 46.2016448232082 41.5894312136384 83.1788624272768
235 60.3448957402861 11.188865208869 22.377730417738
236 40.9075196503454 39.5561540995964 79.1123081991928
237 73.2305178345486 11.2533653027043 22.5067306054086
238 56.593702934881 41.385129131432 82.7702582628641
239 81.9102242256112 23.3077719993302 46.6155439986603
240 73.4096923657977 31.2489420058902 62.4978840117803
241 20.9108766425844 26.0257356118215 52.051471223643
242 32.3483783750705 12.5649635032726 25.1299270065452
243 21.1817139394358 35.6077615652043 71.2155231304087
244 26.4402509725128 16.9111327967764 33.8222655935528
245 73.2256233317177 33.8702736646409 67.7405473292818
246 18.6181693020232 32.4417879351094 64.8835758702188
247 77.9894329183832 17.0937176218602 34.1874352437204
248 55.0685423337577 10.9075702142382 21.8151404284764
249 66.1253762280242 7.95536965668571 15.9107393133714
250 31.5584242783359 39.5649686996447 79.1299373992893
251 19.8506481370363 22.0759453775719 44.1518907551438
252 78.4247972941442 13.5426274417455 27.0852548834911
253 28.6213596418081 37.9178834439501 75.8357668879002
254 81.9968840868443 21.0091957309933 42.0183914619865
255 18.058564773584 27.6464203737484 55.2928407474968
256 78.3787198083231 28.5551893041946 57.1103786083892
257 27.6699141636351 40.7562374749857 81.5124749499713
258 75.9914269336056 10.7074755797143 21.4149511594287
259 25.0845751817113 36.0519491098052 72.1038982196104
260 59.1587117574482 38.8344503211115 77.6689006422231
261 72.880983860638 28.7440018949155 57.4880037898309
262 24.914045515755 24.0310672967699 48.0621345935398
263 77.1594612390051 20.8137860803003 41.6275721606005
264 23.5021503350845 28.0889507097663 56.1779014195326
265 45.7901660829641 39.4542981847852 78.9085963695703
266 59.6430853687323 13.2255923450407 26.4511846900814
267 31.1687073502352 37.9246265217172 75.8492530434343
268 25.7615544482214 19.3814799364973 38.7629598729945
269 65.465638199492 10.4452585602209 20.8905171204417
270 25.5334061690867 34.6117281461695 69.2234562923391
271 68.0769007971056 33.3778993398063 66.7557986796126
272 67.5372152559808 35.0663087016097 70.1326174032194
273 77.754566975222 18.8868915911526 37.7737831823051
274 36.0445060589742 39.6321031364588 79.2642062729175
275 49.4449033575103 10.6990734461311 21.3981468922623
276 74.060892372663 9.2733822052955 18.546764410591
277 23.8433371769029 32.4603771688041 64.9207543376083
278 77.2562967794942 26.0287835621917 52.0575671243834
279 51.2214940862174 41.5667246231587 83.1334492463175
280 73.799335662204 15.4042775668589 30.8085551337178
281 19.5841331610065 34.2081839998297 68.4163679996595
282 37.9513683417323 12.6754608146691 25.3509216293383
283 71.786530609863 12.5800094439917 25.1600188879835
284 74.9947747369295 14.1172142723454 28.2344285446908
285 27.2226327452219 14.4867885449871 28.9735770899742
286 87.3299363279044 20.7748423381202 41.5496846762405
287 13.2782577107449 28.3940025161636 56.7880050323271
288 30.33075931111 36.9159602311862 73.8319204623724
289 49.3582423213505 13.144289085549 26.2885781710979
290 72.039741727667 26.3749616763062 52.7499233526123
291 40.7164712506466 37.4998595822593 74.9997191645185
292 73.1778808567382 20.256054747434 40.512109494868
293 55.5181432035073 39.1226364344128 78.2452728688257
294 68.9713232136483 12.8093783114606 25.6187566229212
295 74.1384492319404 17.1549898472809 34.3099796945617
296 63.8628912148924 35.1312766275923 70.2625532551846
297 54.7205245525268 13.201383372983 26.4027667459661
298 31.9208529425181 36.2210495081071 72.4420990162142
299 43.6764917723617 12.9300424492504 25.8600848985007
300 32.4699258032878 14.8320822647074 29.6641645294148
301 75.7791163044826 23.2480449846431 46.4960899692863
302 24.3588028296941 26.0690487512412 52.1380975024825
303 64.746026482463 13.1794273624952 26.3588547249904
304 25.2676276329174 21.7823791609324 43.5647583218648
305 23.0893632151526 30.1403236563049 60.2806473126098
306 35.4050217912393 37.3776308062521 74.7552616125042
307 69.3254112224411 11.2368994539454 22.4737989078908
308 22.7892432007054 33.7214968119027 67.4429936238055
309 31.1980136291979 19.3737971569968 38.7475943139936
310 29.2689794976199 33.9907389705524 67.9814779411047
311 50.6633161481139 39.3229040671001 78.6458081342002
312 51.526886448748 44.2011869382122 88.4023738764244
313 70.9136024483642 16.0539611277324 32.1079222554649
314 68.130268596864 31.0622233443303 62.1244466886605
315 63.3157463110155 30.8681722557585 61.7363445115169
316 49.6244096944304 15.8426274809168 31.6852549618336
317 29.7613979762189 23.8599613999797 47.7199227999594
318 70.8721610863023 24.2427685756408 48.4855371512816
319 27.9875919185851 28.146159376258 56.2923187525161
320 59.3319452187323 15.4123834287256 30.8247668574513
321 30.5730673322401 32.8551681120626 65.7103362241251
322 50.0548538550237 37.2015801599141 74.4031603198283
323 71.5405989489914 21.7630408574595 43.526081714919
324 66.0284867569717 15.1054672264258 30.2109344528515
325 30.4385545990766 21.6253108253121 43.2506216506242
326 67.7987793768572 28.7690179132481 57.5380358264963
327 63.4458866812904 33.0089722857753 66.0179445715507
328 33.8156013100879 35.1820217790901 70.3640435581802
329 70.2504475120743 17.3331227237321 34.6662454474642
330 36.9411788631232 35.6515942542439 71.3031885084877
331 45.3892088879862 37.3893924094139 74.7787848188278
332 67.8878457710317 14.5427987397077 29.0855974794155
333 27.4715923355526 32.8238939859983 65.6477879719965
334 37.8107016827164 15.0490340663728 30.0980681327457
335 69.1603806607337 9.1181452032757 18.2362904065514
336 54.700355095065 37.0919809772855 74.183961954571
337 54.7803398904384 15.2601344938899 30.5202689877797
338 66.7963784189825 11.4613197637949 22.9226395275898
339 35.4195290759271 21.5411411899561 43.0822823799123
340 58.8814801884736 30.7001473182268 61.4002946364535
341 49.4168447514836 35.1497254935827 70.2994509871654
342 66.6635520852705 24.5302127829523 49.0604255659045
343 52.614077311983 17.1649091758047 34.3298183516094
344 40.6163115512633 35.6952831011017 71.3905662022034
345 63.0403253173963 28.7214528531546 57.4429057063092
346 70.1779805030198 19.4651756672895 38.9303513345791
347 27.1824824719905 30.0046488024237 60.0092976048475
348 28.9747332371728 26.0558344765757 52.1116689531514
349 43.3368828004851 15.3426438553212 30.6852877106424
350 37.4772851319015 34.689075120958 69.378150241916
351 37.2243809367734 17.2870800309942 34.5741600619885
352 62.543172296611 14.9861756717114 29.9723513434228
353 57.7492075854713 16.7389243755645 33.477848751129
354 63.6795718393487 16.0601713139323 32.1203426278647
355 58.7776501578552 32.7976501071922 65.5953002143843
356 67.6642642435119 18.5064377729091 37.0128755458182
357 32.2419195541714 31.8893971715772 63.7787943431544
358 74.0077466830185 18.7016787998533 37.4033575997065
359 69.7901057972541 22.8151571997921 45.6303143995841
360 63.5300951698393 11.459121606538 22.9182432130759
361 26.9124921062334 31.3693816296789 62.7387632593577
362 67.2710200011312 26.5740053492277 53.1480106984553
363 34.6188267256572 23.6782702942299 47.3565405884597
364 39.1892352686705 23.4317612876123 46.8635225752246
365 54.9529407863142 30.3415699369061 60.6831398738122
366 34.3345267545812 26.1052808512915 52.210561702583
367 62.5157328818502 24.5972107996253 49.1944215992506
368 42.4409142598024 17.5681683886521 35.1363367773042
369 66.1735750141876 22.3428338686667 44.6856677373333
370 39.7847143173385 34.2918310932188 68.5836621864376
371 34.6214996572307 30.4164742942188 60.8329485884375
372 44.8396101060581 35.4475993792703 70.8951987585406
373 58.7178899089101 28.7619387045126 57.5238774090253
374 36.3275526787054 19.4408860843892 38.8817721687784
375 37.7002149819554 33.3029600560572 66.6059201121143
376 54.1465188367339 34.9828191486188 69.9656382972376
377 31.863723351377 17.0966305522356 34.1932611044712
378 62.7150668968527 26.5973026102509 53.1946052205017
379 65.6318809051211 19.6363943851911 39.2727887703823
380 61.3744700341893 17.0096309022953 34.0192618045905
381 30.7528302687455 30.0636814342916 60.1273628685832
382 71.5045705628411 18.5473188471566 37.0946376943132
383 29.2504909409833 31.5059558181049 63.0119116362097
384 68.4218908027111 20.7286435041241 41.4572870082483
385 59.018535477807 35.0237623073572 70.0475246147145
386 32.1143575544568 28.3222732639386 56.6445465278772
387 35.5497180660563 34.1958466871699 68.3916933743397
388 55.7644168497904 28.9590158197602 57.9180316395204
389 62.0798885050017 22.8630912553885 45.726182510777
390 58.7438289347961 24.4112516899564 48.8225033799128
391 37.4804427579336 27.2461753285293 54.4923506570586
392 40.0711334617245 32.3174346075932 64.6348692151863
393 48.6608162531185 33.2845062615362 66.5690125230724
394 43.7458028849285 33.4267030322186 66.8534060644373
395 40.1199581880856 21.5372524234556 43.0745048469112
396 63.3650477382086 20.7072933644193 41.4145867288386
397 47.4135370056617 18.0434752931643 36.0869505863287
398 59.0077759276687 17.7378793741971 35.4757587483943
399 53.315582899176 32.512104306488 65.0242086129761
400 37.4409730741576 29.9505425363313 59.9010850726627
401 59.3065767393095 37.2123626956467 74.4247253912935
402 57.7184602588841 26.4743941236715 52.9487882473429
403 38.9658701366513 25.1681237668678 50.3362475337355
404 45.8872277248363 19.8984830972251 39.7969661944501
405 49.7816531788587 31.1833786371864 62.3667572743729
406 42.604264616591 24.8420990525185 49.684198105037
407 45.3949557629292 31.7581553122032 63.5163106244064
408 53.3159405586603 27.8173643501255 55.634728700251
409 54.6947868317396 24.9169483649334 49.8338967298669
410 43.31696820178 23.2766254094092 46.5532508188185
411 58.8576676315928 22.9254580998634 45.8509161997268
412 42.1319938993547 31.182401458494 62.3648029169881
413 56.3172811908096 18.1857485193136 36.3714970386272
414 60.8461298166824 21.5207173520733 43.0414347041465
415 35.6161341336913 28.6630448783237 57.3260897566474
416 41.2160039231978 19.608388777442 39.2167775548841
417 38.1811417994835 28.9565718819438 57.9131437638876
418 39.3746855125729 26.2936841388149 52.5873682776299
419 57.4422020875163 19.1108436656004 38.2216873312008
420 50.1818337211938 23.0948320123099 46.1896640246197
421 53.7258553314851 20.9276656386992 41.8553312773984
422 43.9064688735702 30.0261721580784 60.0523443161568
423 51.5103537527092 29.7437925391431 59.4875850782862
424 44.4306887167011 21.6293939855462 43.2587879710925
425 42.437872496151 26.4736368559953 52.9472737119906
426 52.4552344902614 18.6661541362065 37.332308272413
427 45.8686413960627 24.7394346530894 49.4788693061788
428 52.2691608255963 25.8742795039169 51.7485590078339
429 56.2663396103596 24.0593636009984 48.1187272019968
430 55.823626475789 19.8303739386272 39.6607478772544
431 58.8542511386128 21.9676985083354 43.9353970166708
432 40.2391660367487 27.8680216301923 55.7360432603847
433 55.2809980613307 16.8710040455646 33.7420080911292
434 48.3340847718696 21.8136336127628 43.6272672255256
435 46.9601382915691 23.2073587048319 46.4147174096639
436 45.4592785656138 28.926366572578 57.852733145156
437 49.2424671758299 27.8165950849433 55.6331901698867
438 45.2260524119189 25.9235068675337 51.8470137350675
439 48.3191878616439 29.2574235837396 58.5148471674792
440 49.2258235166374 24.0983811491269 48.1967622982539
441 51.8082023617568 22.1026106988648 44.2052213977296
442 50.046429243388 20.3537654617184 40.7075309234369
443 47.9888653674699 32.0934996816005 64.1869993632009
444 50.1778541103428 26.3678579430479 52.7357158860957
445 46.4054343776354 28.0883585495573 56.1767170991146
446 46.8473308031378 30.5289575003278 61.0579150006556
447 100 50 100
448 25 50 100
449 125 50 100
450 125 200 300
451 25 200 300
452 26.05 134.77 213.02
453 100 162.5 250
454 100.54 82.47 143.29
455 92.5 50 100
456 85 50 100
457 77.5 50 100
458 70 50 100
459 62.5 50 100
460 55 50 100
461 47.5 50 100
462 40 50 100
463 32.5 50 100
464 108.333333333333 50 100
465 116.666666666667 50 100
466 125 54.5454545454545 106.060606060606
467 125 59.0909090909091 112.121212121212
468 125 63.6363636363636 118.181818181818
469 125 68.1818181818182 124.242424242424
470 125 72.7272727272727 130.30303030303
471 125 77.2727272727273 136.363636363636
472 125 81.8181818181818 142.424242424242
473 125 86.3636363636364 148.484848484848
474 125 90.9090909090909 154.545454545455
475 125 95.4545454545455 160.606060606061
476 125 100 166.666666666667
477 125 104.545454545455 172.727272727273
478 125 109.090909090909 178.787878787879
479 125 113.636363636364 184.848484848485
480 125 118.181818181818 190.909090909091
481 125 122.727272727273 196.969696969697
482 125 127.272727272727 203.030303030303
483 125 131.818181818182 209.090909090909
484 125 136.363636363636 215.151515151515
485 125 140.909090909091 221.212121212121
486 125 145.454545454545 227.272727272727
487 125 150 233.333333333333
488 125 154.545454545455 239.393939393939
489 125 159.090909090909 245.454545454545
490 125 163.636363636364 251.515151515152
491 125 168.181818181818 257.575757575758
492 125 172.727272727273 263.636363636364
493 125 177.272727272727 269.69696969697
494 125 181.818181818182 275.757575757576
495 125 186.363636363636 281.818181818182
496 125 190.909090909091 287.878787878788
497 125 195.454545454545 293.939393939394
498 117.307692307692 200 300
499 109.615384615385 200 300
500 101.923076923077 200 300
501 94.2307692307692 200 300
502 86.5384615384615 200 300
503 78.8461538461538 200 300
504 71.1538461538461 200 300
505 63.4615384615385 200 300
506 55.7692307692308 200 300
507 48.0769230769231 200 300
508 40.3846153846154 200 300
509 32.6923076923077 200 300
510 25 195.454545454545 293.939393939394
511 25 190.909090909091 287.878787878788
512 25 186.363636363636 281.818181818182
513 25 181.818181818182 275.757575757576
514 25 177.272727272727 269.69696969697
515 25 172.727272727273 263.636363636364
516 25 168.181818181818 257.575757575758
517 25 163.636363636364 251.515151515152
518 25 159.090909090909 245.454545454545
519 25 154.545454545455 239.393939393939
520 25 150 233.333333333333
521 25 145.454545454545 227.272727272727
522 25 140.909090909091 221.212121212121
523 25 136.363636363636 215.151515151515
524 25 131.818181818182 209.090909090909
525 25 127.272727272727 203.030303030303
526 25 122.727272727273 196.969696969697
527 25 118.181818181818 190.909090909091
528 25 113.636363636364 184.848484848485
529 25 109.090909090909 178.787878787879
530 25 104.545454545455 172.727272727273
531 25 100 166.666666666667
532 25 95.4545454545455 160.606060606061
533 25 90.9090909090909 154.545454545455
534 25 86.3636363636364 148.484848484848
535 25 81.8181818181818 142.424242424242
536 25 77.2727272727273 136.363636363636
537 25 72.7272727272727 130.30303030303
538 25 68.1818181818182 124.242424242424
539 25 63.6363636363636 118.181818181818
540 25 59.0909090909091 112.121212121212
541 25 54.5454545454545 106.060606060606
542 28.6 135.726206896552 214.295172413793
543 31.15 136.682413793103 215.570344827586
544 33.7 137.638620689655 216.845517241379
545 36.25 138.594827586207 218.120689655172
546 38.8 139.551034482759 219.395862068966
547 41.35 140.50724137931 220.671034482759
548 43.9 141.463448275862 221.946206896552
549 46.45 142.419655172414 223.221379310345
550 49 143.375862068966 224.496551724138
551 51.55 144.332068965517 225.771724137931
552 54.1 145.288275862069 227.046896551724
553 56.65 146.244482758621 228.322068965517
554 59.2 147.200689655172 229.59724137931
555 61.75 148.156896551724 230.872413793103
556 64.3 149.113103448276 232.147586206897
557 66.85 150.069310344828 233.42275862069
558 69.4 151.025517241379 234.697931034483
559 71.95 151.981724137931 235.973103448276
560 74.5 152.937931034483 237.248275862069
561 77.05 153.894137931034 238.523448275862
562 79.6 154.850344827586 239.798620689655
563 82.15 155.806551724138 241.073793103448
564 84.7 156.76275862069 242.348965517241
565 87.25 157.718965517241 243.624137931034
566 89.8 158.675172413793 244.899310344828
567 92.35 159.631379310345 246.174482758621
568 94.9 160.587586206897 247.449655172414
569 97.45 161.543793103448 248.724827586207
570 32.2437685903393 109.127587619744 178.836783492992
571 34.4401267772411 73.6749833883806 131.566644517841
572 32.0015893900877 91.232815455298 154.977087273731
573 117.83858189406 109.134311342146 178.845748456195
574 70.594385076238 195.461604373626 293.948805831502
575 117.919139920962 122.714570362319 196.952760483092
576 93.6177767399362 54.4571574487049 105.942876598273
577 33.880351338613 167.303460069569 256.404613426092
578 118.120882899931 136.131107438517 214.84147658469
579 116.611548412991 145.603139295053 227.470852393404
580 118.329197455369 177.352335706297 269.803114275062
581 32.0429541740009 154.522456199828 239.363274933103
582 101.266472672861 195.405826839581 293.874435786108
583 47.5803322599134 54.4559809959678 105.941307994624
584 117.777427964664 95.6520341770067 160.869378902676
585 31.6271020460021 122.296157611601 196.394876815468
586 117.539265426683 59.159497386213 112.212663181617
587 118.511265178 155.049515056245 240.066020074993
588 116.957462893368 163.877542796196 251.836723728261
589 117.739353780339 82.0157023548279 142.687603139771
590 118.239088533352 68.0014762369031 124.001968315871
591 55.3423744095474 195.550271167506 294.067028223341
592 32.3572452732255 177.2293958024 269.6391944032
593 32.4206768455832 186.356899108193 281.809198810924
594 117.54681132569 185.943048572129 281.257398096172
595 117.058990528468 195.267879237351 293.690505649801
596 62.7085604731903 54.4627485322927 105.95033137639
597 32.5109384703047 54.5162158826071 106.02162117681
598 40.2156597551781 195.470850119446 293.961133492594
599 32.0331994046354 128.328129928443 204.437506571257
600 116.543128165505 86.8616438565516 149.148858475402
601 117.749708520476 100.140630565351 166.854174087135
602 118.15332949534 168.813250147116 258.417666862822
603 31.3887810739336 145.564595745317 227.419460993756
604 31.7360988731819 158.723271283125 244.964361710833
605 118.176510189916 72.3259946168961 129.767992822528
606 101.183945564912 54.6597441038318 106.212992138442
607 79.0036478378358 55.525588472182 107.367451296243
608 86.2202116879111 195.501725760422 294.002301013896
609 31.9462559290185 82.5755875823605 143.434116776481
610 32.1103703507596 95.6582046458716 160.877606194495
611 117.981643369933 127.25506075546 203.006747673947
612 32.641075743992 63.5724041668004 118.096538889067
613 32.1993548124128 100.128835605406 166.838447473875
614 32.5207955447639 190.912558445492 287.883411260656
615 32.1521269314932 113.616754790211 184.822339720281
616 117.852498135929 113.633908450725 184.845211267633
617 32.6099585175141 195.458178421886 293.944237895848
618 117.090478554177 54.5982690495656 106.131025399421
619 28.9168837980407 138.549703896453 218.066271861937
620 29.9280224625987 133.375409643271 211.167212857694
621 38.8857371813613 91.5603002808437 155.413733707792
622 39.4091248693731 109.137166073382 178.849554764509
623 110.856596183064 122.751727255432 197.002303007242
624 109.751140036313 95.4899352921933 160.653247056258
625 37.9892973639872 158.45304127881 244.604055038413
626 112.010732788265 71.7658019480608 129.021069264081
627 94.0989467279458 58.5500644023439 111.400085869792
628 110.877712329586 166.022347933294 254.696463911058
629 110.40367253368 85.3397657702819 147.119687693709
630 33.093232365581 149.761086680979 233.014782241305
631 117.83658404937 91.3508950163257 155.134526688434
632 118.4260589172 159.17187236127 245.562496481694
633 110.015593132125 59.3414153530822 112.455220470776
634 116.876819569942 77.1528965903346 136.203862120446
635 118.414183196782 173.119333999734 264.159111999645
636 118.084437909665 150.76009125889 234.346788345186
637 32.0089064292935 118.072366617058 190.763155489411
638 31.9722290855611 162.810691798704 250.414255731605
639 117.952390661934 140.452174017001 220.602898689335
640 118.059164228363 181.588591686859 275.451455582479
641 117.96046534337 63.6351498126905 118.180199750254
642 118.06650531339 131.735743807848 208.980991743797
643 86.529362869581 54.4541977778749 105.9389303705
644 29.9859986648068 130.608001538284 207.477335384379
645 31.5320899863998 142.172302326175 222.896403101566
646 32.7071141059497 172.601434151795 263.46857886906
647 78.4517850173189 195.384275704333 293.84570093911
648 117.829193460769 104.652018328716 172.869357771621
649 70.3168873576614 54.714842219794 106.286456293059
650 31.9052955252236 86.8760648175853 149.168086423447
651 39.1089524323004 95.8797492369738 161.172998982632
652 32.3634556781413 78.3478380534181 137.797117404557
653 109.108074721504 54.6853542755391 106.247139034052
654 62.8981651938917 195.552061018967 294.069414691956
655 93.7508797263174 195.565178562892 294.086904750523
656 117.884321210281 118.166743241322 190.888990988429
657 33.0979255203911 68.2287684497512 124.305024599668
658 55.144274787908 54.4433336549376 105.92444487325
659 109.042545650268 195.212450317198 293.616600422931
660 32.3388920559752 181.80547037437 275.740627165827
661 47.7846002802918 195.508330114385 294.01110681918
662 32.2380796247903 104.622143771856 172.829525029142
663 117.065758381041 190.509273637847 287.345698183796
664 32.5348350512349 59.0341340462975 112.04551206173
665 40.0298099378972 54.4879587586749 105.983945011567
666 40.0095398306062 190.949885729393 287.933180972524
667 32.7034151327489 139.254763380371 219.006351173828
668 39.2993410665012 76.5345255961146 135.379367461486
669 45.6291715314463 91.8571416642139 155.809522218952
670 78.3005620301797 190.04157464157 286.722099522094
671 39.9694873211946 172.857616927738 263.810155903651
672 70.1959483369659 59.1347043813499 112.1796058418
673 111.458285454255 139.819293698325 219.759058264433
674 111.409506945054 181.263045684357 275.017394245809
675 62.1793430447047 191.153210488954 288.204280651939
676 110.619140181848 148.101803855271 230.802405140362
677 34.5269957310758 131.410539573629 208.547386098172
678 109.027921865217 162.936160947515 250.581547930021
679 37.9681520320534 162.032318708325 249.376424944434
680 111.687757948785 82.1031197414804 142.804159655307
681 36.921922922103 136.552246271907 215.40299502921
682 112.572063642762 159.195034064535 245.593378752713
683 87.8632253187223 58.2639598747342 111.018613166312
684 37.0776656201083 147.701093569096 230.268124758794
685 93.3191330254827 191.351464860726 288.468619814301
686 39.0536049441792 117.941304519547 190.588406026063
687 111.796603907505 67.8870489965518 123.849398662069
688 111.789159785338 91.4856208932739 155.314161191032
689 55.225314126742 59.0246026901635 112.032803586885
690 47.443620588029 191.032065305652 288.04275374087
691 39.4135042557592 104.69328552568 172.924380700907
692 110.730965985882 104.789423738161 173.052564984215
693 40.6405992900561 67.9223318480257 123.896442464034
694 40.0374518074964 58.9841606995039 111.978880932672
695 38.4357952069623 154.720483615713 239.627311487618
696 101.627472942028 59.8905685281709 113.187424704228
697 39.2363791360717 113.546961004924 184.729281339898
698 38.6924679092235 87.3446256978258 149.792834263768
699 111.039461461079 63.7704887972782 118.360651729704
700 39.6009200436495 181.884350007547 275.845800010062
701 110.768838887379 118.194744561781 190.926326082375
702 111.198140197655 131.729960384113 208.973280512151
703 110.531981201852 100.37410240842 167.165469877893
704 39.2915591378427 100.268543462517 167.02472461669
705 107.986565616757 189.75503259844 286.340043464587
706 112.0407855125 88.9937926047063 151.991723472942
707 36.720525401888 142.373718005344 223.164957340459
708 39.7839712669172 186.429950230967 281.906600307955
709 110.990405750658 127.304941747121 203.073255662828
710 112.120736235096 173.491276295723 264.655035060964
711 111.90047318334 169.617559542114 259.490079389486
712 33.9505236607439 135.799943236702 214.399924315603
713 110.155927264217 77.0786871400004 136.104916186667
714 38.3570586065619 164.626758222036 252.835677629382
715 36.1719497346692 140.401282014357 220.53504268581
716 103.843339770514 127.576444427869 203.435259237159
717 102.909468085339 96.8923904294405 162.523187239254
718 46.458826606138 109.106610331585 178.808813775446
719 88.3762418465682 61.6275459902401 115.503394653653
720 42.5284121067909 165.026401227139 253.368534969519
721 43.6957413146404 158.365661526661 244.487548702215
722 106.387266715189 71.414451586558 128.552602115411
723 106.221898804106 173.781013850482 265.041351800643
724 45.3348359605146 87.7308984468463 150.307864595795
725 39.0870637934287 122.633867840697 196.845157120929
726 110.713194030219 113.669258594187 184.892344792249
727 104.732810129696 164.144871479555 252.193161972739
728 111.790744415154 151.675907418547 235.567876558063
729 35.4515144466257 128.908205777065 205.210941036086
730 106.976324318125 82.0464789322461 142.728638576328
731 108.351393039448 88.2269113830749 150.969215177433
732 38.8244924210361 79.3398544156825 139.119805887577
733 76.9495975083995 59.9170698165222 113.222759755363
734 37.6032037520887 134.413899275423 212.551865700565
735 42.6291938238706 138.520194098882 218.026925465176
736 109.151159555856 145.691985546817 227.589314062423
737 93.9420529958971 62.0054666624261 116.007288883235
738 104.698740080941 64.2520942524239 119.002792336565
739 110.521871579711 185.22196871428 280.295958285707
740 86.3684007984631 191.182319574406 288.243092765874
741 45.9341439393963 117.668440539992 190.224587386656
742 62.8299633392963 58.9799636598284 111.973284879771
743 103.687634843581 122.982179005327 197.309572007103
744 111.421368679631 135.93366815152 214.578224202027
745 39.5936882925841 177.375818404979 269.834424539972
746 69.6650619609466 190.906158026163 287.874877368217
747 36.718153652474 145.50406735701 227.338756476013
748 42.0925398946705 72.2057166054596 129.607622140613
749 46.2933832753932 100.390851427825 167.187801903766
750 45.9613906527427 96.0878975232465 161.450530030995
751 54.8144868231608 191.125987569575 288.1679834261
752 46.735437536144 182.097527398897 276.130036531863
753 103.634394049025 100.749717066165 167.666289421553
754 42.0799331866069 143.399861924838 224.533149233118
755 110.721877887512 109.205274981744 178.940366642326
756 106.321038143655 170.32919189641 260.438922528547
757 47.0628217479909 186.572551164882 282.096734886509
758 34.0663022334968 133.732321761508 211.643095682011
759 100.208652075426 191.072842689583 288.097123586111
760 40.1310354368565 63.4638589027366 117.951811870316
761 47.5703640070474 59.0246977430909 112.032930324121
762 111.908672362697 177.357184107261 269.809578809681
763 41.1042666186952 168.664409618215 258.219212824286
764 112.562916575883 161.872068761835 249.162758349113
765 111.311836464692 79.0097042892176 138.679605718957
766 31.7753249962341 135.415055849038 213.886741132051
767 51.83809744145 88.0397241957583 150.719632261011
768 74.6131469525152 185.789179236817 281.052238982423
769 96.9231621757636 97.270880598533 163.027840798044
770 96.5173356996633 123.242234003889 197.656312005186
771 52.7050438991173 96.2226225604302 161.630163413907
772 105.328304722594 139.560859262426 219.414479016567
773 45.9175481595401 121.535633749566 195.380844999421
774 105.473770841136 149.084465161034 232.112620214712
775 101.158662682242 170.774787405335 261.03304987378
776 63.2913107120259 63.3196779303234 117.759570573764
777 44.1343352970503 154.997886799512 239.99718239935
778 43.8935971168237 76.0866684028586 134.782224537145
779 103.393220396205 113.820482129321 185.093976172428
780 88.3548966817934 65.0690174497399 120.09202326632
781 103.759309885456 104.943015810292 173.257354413723
782 86.8803905541351 187.367168807313 283.156225076418
783 103.57460721229 187.013584948683 282.684779931577
784 40.8109563104747 148.194817603546 230.926423471395
785 105.961463911787 93.2508011505353 157.66773486738
786 39.6803803489841 129.788590405723 206.38478720763
787 46.5822966164594 177.658969392089 270.211959189452
788 104.368886526479 131.967366470529 209.289821960706
789 53.724510863052 182.379338899095 276.505785198793
790 105.811076728427 84.5589417151761 146.078588953568
791 43.3519688795692 161.740148501679 248.986864668905
792 47.3452116160579 67.5617897857084 123.415719714278
793 105.858925283481 167.08473489927 256.112979865694
794 55.2030729957634 64.3533718501427 119.137829133524
795 103.536009333794 118.418115708553 191.22415427807
796 105.819309354674 67.9595361698032 123.946048226404
797 41.355764429539 145.651105594295 227.53480745906
798 61.3166763822917 186.836498563969 282.448664751959
799 47.3464461142705 63.500664400817 118.000885867756
800 54.23738453788 186.736773522911 282.315698030548
801 70.1504569129146 63.2459023457541 117.661203127672
802 46.2131161878368 113.422752536374 184.563670048499
803 46.4508347259987 104.740917993428 172.987890657904
804 105.815398601405 177.32063358461 269.76084477948
805 107.02211801652 79.5057220594674 139.340962745957
806 39.8996217292339 137.50508192907 216.673442572093
807 45.5679301091949 143.908710355415 225.21161380722
808 45.1403278635862 83.6978515626941 144.930468750259
809 47.4477309452682 169.163664925812 258.88488656775
810 30.8817876762023 125.467357023913 200.623142698551
811 106.617643426523 74.4603604650558 132.613813953408
812 82.8427711266267 60.9394867526098 114.585982336813
813 112.325673667641 155.505129022503 240.673505363338
814 38.456399845863 132.183398438455 209.577864584607
815 52.5661837566916 117.401251698383 189.868335597843
816 49.0584097719071 158.417280298607 244.556373731476
817 105.991847957792 152.447715813469 236.596954417959
818 64.4505445652522 67.2468343694288 122.995779159238
819 53.3975088532927 178.0078924069 270.677189875867
820 101.342169355009 167.777271862084 257.036362482778
821 101.799593800149 74.4474905052788 132.596654007038
822 43.7330489391243 137.032428154738 216.04323753965
823 106.386067568229 159.686026905606 246.248035874141
824 82.4757982206964 64.4344532944246 119.245937725899
825 51.5779944086807 84.036630624854 145.382174166472
826 48.2500308795692 165.343749727012 253.791666302683
827 53.4207122786285 104.7349261068 172.979901475733
828 47.9722320944222 140.478024615628 220.63736615417
829 46.0473782021987 124.804750805326 199.739667740435
830 105.250221815194 145.905074319263 227.873432425684
831 102.035719161892 93.5967419079303 158.128989210574
832 51.9277754517891 67.479259320496 123.305679093995
833 102.890516045362 87.1763979385804 149.568530584774
834 105.233452411585 180.908327915256 274.544437220341
835 99.1518305300845 187.363794185983 283.151725581311
836 96.5247980347025 118.904579813529 191.872773084706
837 97.9193364168263 132.599157375646 210.132209834195
838 52.2199106278141 92.0829981917206 156.110664255628
839 60.546624583165 182.595272544584 276.793696726113
840 68.2577859022271 186.60429044286 282.139053923813
841 95.5921627323743 128.357801352698 204.477068470264
842 45.5561093473738 145.698073243439 227.597430991252
843 46.8276879044164 173.3231130596 264.4308174128
844 100.260187574466 68.2299407353324 124.30658764711
845 103.530001360644 109.315019813017 179.086693084022
846 104.972370865153 135.95673420448 214.608978939307
847 53.082441327737 113.279902408011 184.373203210681
848 48.6397225524755 71.4853083822542 128.647077843006
849 100.668489014531 173.955731615684 265.274308820913
850 45.0467953238967 151.757450664947 235.676600886596
851 102.59937618681 161.796697013759 249.062262685012
852 97.1826713814486 101.007598894899 168.010131859865
853 53.1227853552656 100.446168758866 167.261558345155
854 44.8729646156397 79.806939670793 139.742586227724
855 41.0658013772163 127.111011069191 202.814681425588
856 102.98480788554 79.7288106283562 139.638414171142
857 41.7446410483154 135.219655642132 213.626207522843
858 106.729049713828 77.0618830217427 136.082510695657
859 106.499780723518 155.906619514358 241.208826019144
860 47.8315940308352 144.15090170599 225.534535607986
861 76.4787450503502 63.7003874447228 118.26718325963
862 102.376707855781 83.9044128235336 145.205883764711
863 38.6414347525177 83.2262309275297 144.301641236706
864 82.1707117167725 187.057818623917 282.743758165223
865 111.956482843139 75.1389641901619 133.518618920216
866 105.353421075552 142.798230718029 223.730974290705
867 83.4610230609572 58.3842264070805 111.178968542774
868 36.5340775083228 126.144180886331 201.525574515108
869 101.01094667022 165.082392144367 253.443189525822
870 104.485873597924 184.426800792072 279.235734389429
871 41.3695268302083 132.891457856978 210.521943809304
872 91.4789929047395 130.952628078369 207.936837437825
873 96.5453254002361 93.7244636151535 158.299284820205
874 60.1284563941354 178.309507570693 271.079343427591
875 58.6463456947404 92.1585055310532 156.211340708071
876 59.0722538388069 117.315601132228 189.754134842971
877 99.9049499583078 142.911614607287 223.882152809716
878 96.2147692012873 170.990581263116 261.320775017489
879 76.7826658277764 181.889784978216 275.853046637622
880 46.1097600574905 134.447344111864 212.596458815819
881 82.0246577283242 67.90420300726 123.872270676347
882 98.9393424347142 184.027556503777 278.703408671702
883 98.8513956614482 136.234295762991 214.979061017321
884 53.4280172218495 173.703378491913 264.937837989218
885 101.444606204595 156.349790765525 241.7997210207
886 70.5634221674136 67.0230386938236 122.697384925098
887 59.8850008873506 100.352042506413 167.136056675218
888 50.4637209995429 75.6372078538129 134.182943805084
889 100.049367369474 177.269193900666 269.692258534222
890 98.2174884742226 165.59098113745 254.121308183266
891 67.0553687702302 182.605668562043 276.807558082725
892 53.8141158643757 169.511229419092 259.348305892122
893 58.1331666200458 88.2702186503068 151.026958200409
894 100.253914531409 149.277524164078 232.370032218771
895 54.1977670617772 70.2213575870302 126.96181011604
896 101.4066547827 158.665514354725 244.887352472966
897 50.0248824960115 152.316698285823 236.422264381097
898 46.7509073713733 148.380562794545 231.17408372606
899 49.3325267764107 155.270711075787 240.360948101049
900 44.5204031974703 131.258338209984 208.344450946645
901 101.10467464434 85.2537585507645 147.005011401019
902 48.7788964588171 161.789478485844 249.052637981125
903 51.3497759586765 79.9125146846718 139.883352912896
904 97.0373136323789 104.989646131731 173.319528175641
905 101.073920786308 71.4737460124709 128.631661349961
906 53.3725034307291 109.022400189502 178.696533586002
907 51.9751774430982 121.222484588695 194.963312784927
908 89.666886509564 123.282322652113 197.709763536151
909 76.4054522674471 67.2768523385568 123.035803118076
910 91.2161290917024 97.3239486447557 163.098598193008
911 102.420178166911 77.1839061451751 136.245208193567
912 94.908234136942 114.242893448921 185.657191265228
913 45.2808612448993 139.518724913669 219.358299884892
914 102.051495355 90.5754549717504 154.100606629001
915 39.5667342985445 151.201529986228 234.935373314971
916 99.2597181522193 64.9091518467024 119.878869128937
917 58.9661655815452 68.4152383168972 124.553651089196
918 80.6421548608391 183.817170834041 278.422894445388
919 42.2565510673587 124.970881970347 199.961175960463
920 51.0307274244751 146.588262579437 228.784350105916
921 111.447079587298 142.519752138465 223.359669517953
922 99.4299750369719 180.667436485008 274.223248646678
923 48.9396227539293 145.201872875446 226.935830500595
924 92.3019578443254 133.363437201821 211.151249602429
925 58.0518263786115 121.172585312152 194.896780416202
926 63.9879465138945 88.3810360786567 151.174714771542
927 54.3388230627219 161.72671988785 248.968959850467
928 90.7627404423752 93.7887043090606 158.384939078747
929 50.3222820504901 131.101194757996 208.134926343995
930 54.1000294120944 155.45872419423 240.611632258973
931 48.9952585624713 139.01708645076 218.689448601013
932 82.5580164721709 180.022889656159 273.363852874878
933 97.2046477586567 74.8010131449147 133.068017526553
934 54.7538640967506 143.714729936327 224.952973248436
935 58.050131876419 80.3440121434863 140.458682857982
936 65.8746036846619 70.80610100768 127.74146801024
937 51.3750345685898 124.705570978224 199.607427970966
938 93.7286262968034 180.516443807195 274.021925076261
939 59.9856990090312 169.81835323038 259.757804307173
940 88.2562262655061 69.2052163990998 125.6069551988
941 98.3884632755963 84.9911485787986 146.654864771731
942 96.7342565762976 90.3237860591264 153.765048078835
943 66.6316830673971 178.606329172324 271.475105563098
944 90.2106431895723 116.641126786163 188.854835714884
945 99.4688596260994 139.651042421271 219.534723228361
946 98.731356787044 80.2605406214093 140.347387495212
947 95.944968846758 71.8781727170542 129.170896956072
948 99.5780543687317 153.126902995601 237.502537327468
949 76.5826115418968 70.5166100542402 127.35548007232
950 53.9569646110831 147.81470883103 230.419611774706
951 98.7347942315778 158.409154738302 244.545539651069
952 97.0287995609824 168.138673243029 257.518230990705
953 57.910861184534 84.4046394248576 145.872852566477
954 91.1207938297692 100.934971344483 167.913295125977
955 60.276213245904 104.601369004124 172.801825338832
956 59.874416801859 113.191677628039 184.255570170719
957 59.2620170194393 96.1706413969704 161.56085519596
958 95.3634115194524 174.021924748679 265.362566331572
959 94.7448658423299 68.6135924484544 124.818123264606
960 88.4947545782833 127.202087027765 202.936116037021
961 96.4218571173095 109.223099353955 178.96413247194
962 100.19177660076 146.036845967711 228.049127956948
963 46.9867412857667 137.359080845958 216.478774461277
964 45.6583272801435 127.761988790319 203.682651720425
965 87.3619628254125 183.82725864671 278.43634486228
966 59.3694942850053 74.9613153734545 133.281753831273
967 52.7035859784425 143.281296508413 224.375062011217
968 51.5928907012889 149.804743609427 233.072991479236
969 61.5396537268273 71.0976054496196 128.130140599493
970 106.903049459461 91.0309774964191 154.707969995225
971 98.101720282305 62.4143208071129 116.552427742817
972 99.7803604988368 160.334974293762 247.11329905835
973 99.6474183245872 83.2406440424819 144.320858723309
974 72.874555335915 182.319285554249 276.425714072332
975 90.2152384355681 119.399631505195 192.532842006927
976 54.2610667716466 165.472298485243 253.96306464699
977 97.7606079806782 163.916304684618 251.888406246157
978 60.0026104739805 173.98812168793 265.317495583907
979 87.0769976422726 133.772636039204 211.696848052272
980 61.168759227743 165.335120366872 253.780160489163
981 95.1617595350022 145.97697752983 227.969303373107
982 92.6134715529651 168.11907892112 257.49210522816
983 82.0244143493911 126.952447365471 202.603263153961
984 65.5497534892802 117.486739062358 189.982318749811
985 66.4407696591908 99.9859110863134 166.647881448418
986 81.5291581394219 70.9895550263377 127.98607336845
987 94.7587617704027 84.20007696193 145.600102615907
988 64.8033519040096 78.3385667812211 137.784755708295
989 84.3677690077731 119.305350774749 192.407134366332
990 90.2384505442774 89.6838091386836 152.911745518245
991 64.8015899499372 91.923988951255 155.898651935007
992 56.9886822489945 124.727463147678 199.636617530237
993 54.4300673456049 152.867645630731 237.156860840974
994 51.1777275548579 136.69677349121 215.59569798828
995 56.1502767437414 141.833026418268 222.444035224357
996 63.9126037870376 84.9258582507442 146.567811000992
997 72.4697769267711 178.973475321759 271.964633762345
998 95.509522830487 163.38946322124 251.185950961654
999 65.4402815602519 169.868712498536 259.824949998049
1000 67.4704852438418 74.2945330631568 132.392710750876
1001 54.1498316189714 158.412546474083 244.550061965444
1002 55.4459084197719 150.652090283824 234.202787045098
1003 98.2274894447873 77.4546894054701 136.606252540627
1004 60.2834459694141 108.908905027081 178.545206702775
1005 50.7456396873434 127.945602804892 203.927470406523
1006 86.9474956762801 97.3533659907647 163.13782132102
1007 95.2668859949126 148.989552357406 231.986069809875
1008 94.6073338848325 142.931104114873 223.90813881983
1009 71.4217513450031 70.4534449377041 127.271259916939
1010 88.2780624368386 112.415875062726 183.221166750302
1011 91.376170346113 170.938477379835 261.251303173114
1012 90.6084925156683 104.822408751126 173.096545001501
1013 88.0675874487556 180.374257687923 273.832343583898
1014 94.5251883405217 177.214678126066 269.619570834754
1015 51.4659329852514 141.620701109257 222.160934812343
1016 96.4957562777603 82.2456953077415 142.994260410322
1017 91.1187240585544 72.6564614386429 130.208615251524
1018 50.5688709640142 134.052978581363 212.070638108483
1019 97.506339773896 87.3215757015742 149.762100935432
1020 93.9052769260421 139.80358999725 219.738119996334
1021 93.9924076646874 65.2324550465107 120.309940062014
1022 77.564089771305 179.456347769781 272.608463693041
1023 57.1364233785119 148.810018850258 231.746691800343
1024 67.2469547284998 173.993490194381 265.324653592508
1025 103.350160559127 81.9957935355125 142.66105804735
1026 93.2710102794701 183.945378778305 278.593838371073
1027 57.4643875049066 144.635468124677 226.180624166236
1028 88.2990705393153 167.709051676292 256.945402235056
1029 90.334168534836 145.833963021122 227.778617361495
1030 68.0921858974061 88.2851946468462 151.046926195795
1031 70.7794358174658 171.954638156467 262.606184208623
1032 93.4471874831157 80.7995504231289 141.066067230838
1033 56.0323639012701 128.003665611456 204.004887481942
1034 58.4442020588689 155.486200043231 240.648266724307
1035 59.6858944598965 161.223210277777 248.297613703702
1036 85.0747845278924 90.7694478907772 154.35926385437
1037 92.8950532937871 75.4537200703823 133.938293427176
1038 69.5702853198344 77.9305937685412 137.240791691388
1039 55.1574261910985 133.913592757985 211.88479034398
1040 83.7777687846198 176.771481794889 269.028642393185
1041 93.099293969558 86.5441024844708 148.725469979294
1042 76.7958881590958 72.8649722052996 130.486629607066
1043 73.3195630434765 175.610108349375 267.480144465833
1044 89.5396623562928 142.926008171114 223.901344228152
1045 55.6227107588694 139.087757570566 218.783676760754
1046 65.6635476640639 95.8382727576104 161.117697010147
1047 66.7701187840523 113.262608036529 184.350144048706
1048 67.1627423073142 104.249277109675 172.332369479567
1049 94.4209447103421 151.854889048792 235.806518731723
1050 84.2044043628495 94.3117697984683 159.082359731291
1051 93.9392450538389 165.525881744977 254.034508993303
1052 87.3462126775791 130.648330589561 207.531107452749
1053 89.9269605867309 108.736049283956 178.314732378608
1054 89.1117015231175 177.070319700073 269.42709293343
1055 64.1432986387762 121.381433476003 195.175244634671
1056 85.516531199856 100.13983457077 166.853112761027
1057 86.0314224113175 115.820570039136 187.760760052182
1058 58.2494716766295 143.403500258648 224.538000344863
1059 58.8660053490352 151.286426255376 235.048568340501
1060 60.125602618375 145.569164387494 227.425552516658
1061 73.1296438275792 73.6125015511358 131.483335401514
1062 55.4002161115782 131.057999138537 208.077332184715
1063 64.372597559064 81.2423333292057 141.656444438941
1064 95.4451562115175 79.6048025827839 139.473070110378
1065 90.2107996730884 173.925236439175 265.233648585567
1066 83.0946736310169 123.063388161934 197.417850882579
1067 58.9140640011068 158.134026633117 244.17870217749
1068 85.257035654271 71.4271276264003 128.569503501867
1069 94.4316017074724 77.9138332426658 137.218444323554
1070 60.1095334328247 149.647951862489 232.863935816652
1071 93.1484190140781 187.507139635979 283.342852847972
1072 87.7075811692224 136.860697664891 215.814263553188
1073 51.7217050160221 139.074846239786 218.766461653048
1074 97.6490292287488 157.169218626243 242.892291501657
1075 65.267499765935 167.153084015822 256.204112021097
1076 61.2008299255391 143.575710783165 224.767614377554
1077 81.7002996032694 133.949887272603 211.933183030138
1078 70.1755241722761 169.548644032942 259.398192043923
1079 85.7570875419207 145.799410745618 227.732547660823
1080 64.4191737259678 160.21212002282 246.94949336376
1081 71.4301860398711 82.2711123421497 143.028149789533
1082 74.4033374564211 127.050259803133 202.733679737511
1083 86.6168199414158 86.6139497427611 148.818599657015
1084 70.2753767162698 121.931373737926 195.908498317235
1085 71.4000259483464 90.9360766245049 154.58143549934
1086 89.6249187987916 164.745147172997 252.993529563997
1087 90.2223906412431 161.299272361703 248.399029815604
1088 85.04565656323 173.572918828271 264.763891771028
1089 61.8265905777916 151.743425539633 235.657900719511
1090 72.6226946896261 99.3463917029185 165.795188937225
1091 92.4438796529704 154.230948192773 238.974597590364
1092 90.7394942228326 148.640039998475 231.520053331299
1093 74.5424761278664 172.49894926064 263.331932347521
1094 88.6738886037076 76.3321739354862 135.109565247315
1095 81.1672102414046 74.3414858521791 132.455314469572
1096 78.0365974702957 92.4180862297963 156.557448306395
1097 55.3357212670444 136.554791207999 215.406388277331
1098 71.9772435817906 117.989462139465 190.652616185954
1099 79.2708915395232 98.3924135533909 164.523218071188
1100 78.3033913055148 118.677238744505 191.56965165934
1101 83.2900038452725 104.738377882899 172.984503843865
1102 69.2341365061283 85.8983748005518 147.864499734069
1103 67.409731903301 108.744641588616 178.326188784821
1104 60.2977826656306 131.16281375898 208.217085011973
1105 78.5908310366584 176.272455214444 268.363273619259
1106 59.7858788793964 138.986993148207 218.649324197609
1107 60.4681764762955 141.292997186055 221.723996248073
1108 86.64467279983 73.5736321045328 131.43150947271
1109 82.7160438342784 110.947363424927 181.263151233236
1110 62.6510505643886 124.946351729247 199.92846897233
1111 58.3612213704773 153.231234888422 237.641646517896
1112 90.0129955461496 82.9112710910431 143.881694788058
1113 86.616833391745 170.473796593059 260.631728790745
1114 62.370050378894 155.244598668595 240.326131558127
1115 97.1229306790475 159.376110367977 245.83481382397
1116 94.8522724541432 158.349378618384 244.465838157845
1117 66.1824932618947 163.00322455213 250.670966069507
1118 92.6567992096223 162.46077966074 249.94770621432
1119 62.8064962014472 146.498734511281 228.664979348375
1120 93.1765033399424 136.56255818815 215.416744250866
1121 62.8026878971894 150.40098330611 233.86797774148
1122 89.9243862866791 85.5367434030059 147.382324537341
1123 76.5996826664625 77.2579779473249 136.343970596433
1124 90.8732577138247 78.8025803249406 138.403440433254
1125 59.6018930572513 136.532271695489 215.376362260652
1126 86.3676763856397 165.229704696968 253.639606262623
1127 70.0802731429753 161.563992007724 248.751989343632
1128 86.5262182027768 148.542586078364 231.390114771152
1129 82.4399425898622 137.08734601375 216.116461351666
1130 84.4412583104629 83.7038263503264 144.938435133769
1131 75.0681180971186 169.408238377809 259.210984503746
1132 84.7304675698543 142.99405756296 223.992076750613
1133 81.524273320403 78.5055378348904 138.007383779854
1134 75.3379178799811 84.7968396901354 146.395786253514
1135 64.4930711306154 141.048083830866 221.397445107822
1136 68.2629522683234 125.521102736669 200.694803648892
1137 73.8251598387642 103.407343849517 171.209791799357
1138 73.6872464953953 113.746638007027 184.995517342703
1139 71.7549156568263 95.4398501581228 160.586466877497
1140 81.5600507032083 130.609470468239 207.479293957652
1141 77.5974996202862 81.1870884694131 141.582784625884
1142 87.0538597804594 79.9462858366462 139.928381115528
1143 63.862450895918 151.983705417293 235.978273889724
1144 81.2912908597758 169.233023931767 258.977365242355
1145 76.5823410083668 122.605326563716 196.807102084954
1146 63.6843549417262 145.217617791372 226.956823721829
1147 59.7890398858957 133.937911828396 211.917215771195
1148 85.2088343174623 108.302241809544 177.736322412725
1149 65.4402180670926 147.444001529042 229.925335372056
1150 80.8400264380635 88.4081924949307 151.210923326574
1151 76.2820012932383 95.2139794591883 160.285305945584
1152 87.8020046702559 162.642517001508 250.190022668678
1153 61.3134660536539 128.178376850601 204.237835800802
1154 95.4377728790443 155.535400705757 240.713867607676
1155 78.5802249494615 102.343413349763 169.791217799684
1156 80.1881119778591 114.729962453464 186.306616604618
1157 61.7885702755322 153.320165376789 237.760220502386
1158 69.4016452166901 165.888827927183 254.518437236244
1159 84.487247643309 77.4036945473202 136.538259396427
1160 74.2328801214559 87.2784239551809 149.704565273575
1161 88.649545420219 139.924112941864 219.898817255818
1162 88.0927260789182 160.239797287047 246.986396382729
1163 65.1310793773108 151.185073506915 234.913431342553
1164 67.0830970400441 145.303417720407 227.071223627209
1165 64.4043817017119 134.145807458164 212.194409944219
1166 81.5243274050878 145.893154799379 227.857539732505
1167 84.4428996795827 163.742908520555 251.65721136074
1168 77.1614367783614 137.463907459216 216.618543278955
1169 74.9542455006374 166.279706734002 255.039608978669
1170 66.3499985794062 128.574842572626 204.766456763502
1171 85.7811839891286 159.417511736105 245.89001564814
1172 76.1414456840167 134.302258791633 212.403011722177
1173 89.3444429874721 153.277735645355 237.70364752714
1174 71.4741591563148 163.477053426195 251.302737901593
1175 75.6104552019807 130.965764377234 207.954352502978
1176 79.823103631888 166.067101817938 254.756135757251
1177 70.3870969393554 149.415542643029 232.554056857372
1178 65.2001323170855 131.392368025966 208.523157367954
1179 89.8712154369752 156.078934080709 241.438578774279
1180 76.0079122185149 108.41913037476 177.892173833014
1181 86.8176504786046 161.416326533203 248.55510204427
1182 83.5846095558292 140.10033330441 220.133777739213
1183 82.6590456176226 80.7282453625086 140.970993816678
1184 64.7515669557762 153.019394252448 237.359192336597
1185 65.5488969359614 143.186365873707 224.248487831609
1186 68.561919788439 159.143890914959 245.525187886613
1187 87.0100451217827 150.996077199501 234.661436266001
1188 85.0266055067126 166.773030341166 255.697373788221
1189 79.29905015689 84.4169966227907 145.889328830388
1190 63.8778126862779 138.837856488283 218.450475317711
1191 79.7894648334842 172.986514401458 263.982019201944
1192 67.9369247782414 148.431099621032 231.241466161376
1193 67.2611780733634 152.216038818951 236.288051758602
1194 90.4462785969975 151.176383376998 234.901844502664
1195 92.4778035140723 157.182532942578 242.910043923437
1196 70.0472971651997 129.097668541364 205.463558055152
1197 82.0002658835335 148.794688670476 231.726251560635
1198 74.2856474026855 160.485647452175 247.3141966029
1199 69.2115328087168 143.017680032078 224.023573376104
1200 78.6787740739044 140.464424132961 220.619232177282
1201 72.1754164957317 138.055505439768 217.407340586357
1202 70.1694187464525 131.402770434095 208.53702724546
1203 66.012280154256 154.70238362068 239.603178160907
1204 79.4085653542669 162.958492635472 250.611323513963
1205 74.7226167644021 163.414421982032 251.219229309376
1206 68.8002775615175 147.158657280432 229.54487637391
1207 63.8478923669161 136.598947511758 215.46526334901
1208 80.2646517621185 143.269144114981 224.358858819975
1209 87.0981227458677 152.621260369722 236.82834715963
1210 69.9527057769197 153.796170587746 238.394894116995
1211 84.6585366168547 161.235237585796 248.313650114395
1212 67.8461230608718 138.576350543 218.101800724
1213 63.2486685251383 157.58225643503 243.44300858004
1214 83.2342368072207 158.585149826357 244.780199768476
1215 83.0477496716763 165.652290793153 254.203054390871
1216 72.9080218566331 150.329999528412 233.77333270455
1217 71.5542921964128 147.495175290477 229.99356705397
1218 83.7554557577156 151.257451389689 235.009935186251
1219 75.5621895202454 151.218905840403 234.958541120537
1220 80.6113644945582 157.622711749887 243.496948999849
1221 72.0969252087585 158.165174216108 244.220232288144
1222 76.380666815191 143.843997554037 225.125330072049
1223 78.7693933544453 147.895340699942 230.527120933256
1224 81.7365857740597 160.540622986257 247.38749731501
1225 68.6024887381793 140.890327281524 221.187103042032
1226 84.3547748661771 153.561310054227 238.081746738969
1227 70.8680307521942 156.12284311769 241.497124156919
1228 73.6268102819902 149.015398587187 232.020531449583
1229 69.9049190574947 134.958553444183 213.27807125891
1230 70.2611934391668 145.061540126453 226.748720168604
1231 73.1348249241113 154.049223948224 238.732298597633
1232 67.032615355763 136.812661077298 215.750214769731
1233 77.5737559356172 160.923865596429 247.898487461905
1234 87.1568832460658 154.997343796033 239.99645839471
1235 67.2052856436662 156.848379367779 242.464505823706
1236 76.3865079524125 158.345295671757 244.46039422901
1237 79.6722210368999 150.572097134589 234.096129512786
1238 74.648514104656 155.600494580477 240.800659440636
1239 77.9107366092883 146.17796748681 228.237289982414
1240 73.5252685553326 141.273821126085 221.698428168114
1241 74.7869633674184 146.695131583144 228.926842110858
1242 71.9003417476021 143.041458778208 224.055278370945
1243 78.9645807134989 159.46646058572 245.95528078096
1244 76.5021990305625 149.054067459622 232.072089946162
1245 77.9398407044264 156.612517287952 242.150023050603
1246 78.2375033041533 152.170167944099 236.226890592131
1247 80.8767497037864 153.008369740663 237.344492987551
1248 81.4998214983842 151.590359263688 235.453812351584
1249 73.2351866801277 144.593121170371 226.124161560495
1250 74.3925793424371 157.474503784447 243.299338379263
$EndNodes
$Elements
1176
1 3 2 1 1 211 218 245 240
2 3 2 1 1 73 74 438 427
3 3 2 1 1 297 337 316 289
4 3 2 1 1 65 66 380 354
5 3 2 1 1 77 76 436 422
6 3 2 1 1 83 82 328 298
7 3 2 1 1 325 317 262 304
8 3 2 1 1 61 62 294 283
9 3 2 1 1 430 421 442 426
10 3 2 1 1 244 177 219 285
11 3 2 1 1 402 378 345 373
12 3 2 1 1 106 125 143 109
13 3 2 1 1 441 420 435 434
14 3 2 1 1 396 369 389 414
15 3 2 1 1 167 148 136 88
16 3 2 1 1 270 243 281 308
17 3 2 1 1 67 396 414 68
18 3 2 1 1 303 324 354 352
19 3 2 1 1 86 85 222 202
20 3 2 1 1 79 78 412 392
21 3 2 1 1 182 156 123 163
22 3 2 1 1 65 356 379 66
23 3 2 1 1 408 402 373 388
24 3 2 1 1 59 6 197 230
25 3 2 1 1 393 341 372 394
26 3 2 1 1 76 432 425 75
27 3 2 1 1 253 267 250 222
28 3 2 1 1 410 424 434 435
29 3 2 1 1 78 400 417 77
30 3 2 1 1 317 325 339 363
31 3 2 1 1 61 284 280 62
32 3 2 1 1 228 207 243 216
33 3 2 1 1 152 179 190 162
34 3 2 1 1 80 357 371 79
35 3 2 1 1 270 259 216 243
36 3 2 1 1 432 417 415 391
37 3 2 1 1 324 303 294 332
38 3 2 1 1 127 199 154 111
39 3 2 1 1 189 158 126 101
40 3 2 1 1 263 273 210 254
41 3 2 1 1 203 150 131 201
42 3 2 1 1 108 119 109 143
43 3 2 1 1 206 249 335 269
44 3 2 1 1 366 386 319 348
45 3 2 1 1 403 418 391 366
46 3 2 1 1 276 182 163 231
47 3 2 1 1 82 310 321 81
48 3 2 1 1 108 103 4 43
49 3 2 1 1 221 232 299 282
50 3 2 1 1 172 125 170 188
51 3 2 1 1 402 409 429 390
52 3 2 1 1 71 409 428 72
53 3 2 1 1 368 349 316 397
54 3 2 1 1 162 114 138 152
55 3 2 1 1 240 261 256 211
56 3 2 1 1 275 289 299 232
57 3 2 1 1 187 161 209 252
58 3 2 1 1 68 69 421 430
59 3 2 1 1 272 296 327 271
60 3 2 1 1 108 227 124 103
61 3 2 1 1 164 160 210 195
62 3 2 1 1 84 259 270 83
63 3 2 1 1 360 235 206 269
64 3 2 1 1 247 209 161 195
65 3 2 1 1 263 292 358 273
66 3 2 1 1 104 144 225 105
67 3 2 1 1 281 246 277 308
68 3 2 1 1 182 276 335 224
69 3 2 1 1 197 6 231 163
70 3 2 1 1 110 105 225 145
71 3 2 1 1 274 306 291 236
72 3 2 1 1 170 207 228 188
73 3 2 1 1 175 215 275 232
74 3 2 1 1 103 174 122 99
75 3 2 1 1 387 375 370 350
76 3 2 1 1 100 121 144 104
77 3 2 1 1 408 423 439 437
78 3 2 1 1 145 146 116 110
79 3 2 1 1 182 224 180 156
80 3 2 1 1 293 260 214 238
81 3 2 1 1 411 389 367 390
82 3 2 1 1 316 343 426 397
83 3 2 1 1 199 249 206 154
84 3 2 1 1 303 352 320 266
85 3 2 1 1 203 239 184 150
86 3 2 1 1 248 176 206 235
87 3 2 1 1 410 406 403 364
88 3 2 1 1 359 318 342 369
89 3 2 1 1 285 219 190 213
90 3 2 1 1 277 246 205 305
91 3 2 1 1 386 381 347 319
92 3 2 1 1 424 410 364 395
93 3 2 1 1 401 233 214 260
94 3 2 1 1 307 294 303 338
95 3 2 1 1 107 123 156 102
96 3 2 1 1 311 293 238 279
97 3 2 1 1 177 208 186 148
98 3 2 1 1 315 327 355 340
99 3 2 1 1 218 220 212 245
100 3 2 1 1 128 99 122 171
101 3 2 1 1 260 293 336 401
102 3 2 1 1 282 242 179 221
103 3 2 1 1 428 408 437 444
104 3 2 1 1 301 263 254 239
105 3 2 1 1 129 153 189 101
106 3 2 1 1 151 132 91 186
107 3 2 1 1 190 179 242 213
108 3 2 1 1 333 270 308 277
109 3 2 1 1 371 357 383 381
110 3 2 1 1 95 128 171 159
111 3 2 1 1 363 339 395 364
112 3 2 1 1 153 205 246 189
113 3 2 1 1 289 275 248 297
114 3 2 1 1 256 261 290 278
115 3 2 1 1 251 204 185 151
116 3 2 1 1 338 269 335 307
117 3 2 1 1 301 323 292 263
118 3 2 1 1 131 90 181 201
119 3 2 1 1 337 297 266 320
120 3 2 1 1 363 366 348 317
121 3 2 1 1 120 154 206 176
122 3 2 1 1 274 236 217 178
123 3 2 1 1 155 120 176 215
124 3 2 1 1 147 191 220 218
125 3 2 1 1 126 106 47 48
126 3 2 1 1 110 21 22 105
127 3 2 1 1 290 318 301 278
128 3 2 1 1 120 155 133 96
129 3 2 1 1 145 163 123 146
130 3 2 1 1 195 210 273 247
131 3 2 1 1 305 264 319 347
132 3 2 1 1 345 315 340 373
133 3 2 1 1 63 313 329 64
134 3 2 1 1 232 221 198 175
135 3 2 1 1 107 102 17 18
136 3 2 1 1 105 22 23 104
137 3 2 1 1 264 302 348 319
138 3 2 1 1 346 292 323 384
139 3 2 1 1 191 147 135 87
140 3 2 1 1 193 168 165 192
141 3 2 1 1 204 262 302 241
142 3 2 1 1 90 135 147 181
143 3 2 1 1 331 322 311 265
144 3 2 1 1 244 285 300 377
145 3 2 1 1 194 214 192 165
146 3 2 1 1 391 418 425 432
147 3 2 1 1 420 440 427 435
148 3 2 1 1 404 424 395 416
149 3 2 1 1 279 234 265 311
150 3 2 1 1 101 126 48 49
151 3 2 1 1 255 264 305 205
152 3 2 1 1 103 99 42 4
153 3 2 1 1 203 278 301 239
154 3 2 1 1 309 325 304 268
155 3 2 1 1 119 108 43 44
156 3 2 1 1 176 248 275 215
157 3 2 1 1 137 113 112 98
158 3 2 1 1 162 190 169 137
159 3 2 1 1 160 164 121 100
160 3 2 1 1 129 101 49 50
161 3 2 1 1 130 100 24 25
162 3 2 1 1 104 23 24 100
163 3 2 1 1 219 167 169 190
164 3 2 1 1 102 127 16 17
165 3 2 1 1 302 262 317 348
166 3 2 1 1 406 425 418 403
167 3 2 1 1 296 272 212 233
168 3 2 1 1 92 133 155 173
169 3 2 1 1 158 189 246 281
170 3 2 1 1 165 139 89 194
171 3 2 1 1 127 111 15 16
172 3 2 1 1 362 290 261 326
173 3 2 1 1 369 342 367 389
174 3 2 1 1 103 124 196 174
175 3 2 1 1 94 287 153 129
176 3 2 1 1 100 130 286 160
177 3 2 1 1 434 442 421 441
178 3 2 1 1 251 208 268 304
179 3 2 1 1 44 5 45 119
180 3 2 1 1 192 212 220 193
181 3 2 1 1 236 291 331 265
182 3 2 1 1 366 363 364 403
183 3 2 1 1 149 238 214 194
184 3 2 1 1 70 411 390 429
185 3 2 1 1 414 389 411 431
186 3 2 1 1 99 128 41 42
187 3 2 1 1 94 129 50 51
188 3 2 1 1 93 130 25 26
189 3 2 1 1 126 158 207 170
190 3 2 1 1 148 167 219 177
191 3 2 1 1 111 96 14 15
192 3 2 1 1 405 446 439 423
193 3 2 1 1 341 393 399 376
194 3 2 1 1 127 102 156 180
195 3 2 1 1 131 93 26 27
196 3 2 1 1 132 94 51 52
197 3 2 1 1 399 405 423 365
198 3 2 1 1 130 93 184 286
199 3 2 1 1 128 95 40 41
200 3 2 1 1 213 242 300 285
201 3 2 1 1 204 241 255 185
202 3 2 1 1 442 434 424 404
203 3 2 1 1 291 344 372 331
204 3 2 1 1 344 370 394 372
205 3 2 1 1 116 107 18 19
206 3 2 1 1 222 257 226 202
207 3 2 1 1 183 159 217 234
208 3 2 1 1 138 92 198 152
209 3 2 1 1 90 131 27 28
210 3 2 1 1 91 132 52 53
211 3 2 1 1 327 296 385 355
212 3 2 1 1 362 342 318 290
213 3 2 1 1 88 142 169 167
214 3 2 1 1 96 111 154 120
215 3 2 1 1 140 157 141 118
216 3 2 1 1 96 133 13 14
217 3 2 1 1 116 20 21 110
218 3 2 1 1 135 90 28 29
219 3 2 1 1 139 165 168 115
220 3 2 1 1 136 91 53 54
221 3 2 1 1 416 368 397 404
222 3 2 1 1 340 355 399 365
223 3 2 1 1 116 146 123 107
224 3 2 1 1 87 141 157 191
225 3 2 1 1 95 134 39 40
226 3 2 1 1 323 301 318 359
227 3 2 1 1 168 193 157 140
228 3 2 1 1 425 438 74 75
229 3 2 1 1 229 124 227 200
230 3 2 1 1 136 148 186 91
231 3 2 1 1 119 45 46 109
232 3 2 1 1 106 109 46 47
233 3 2 1 1 137 169 142 113
234 3 2 1 1 240 314 326 261
235 3 2 1 1 19 2 20 116
236 3 2 1 1 177 244 268 208
237 3 2 1 1 67 398 380 66
238 3 2 1 1 339 374 416 395
239 3 2 1 1 236 265 234 217
240 3 2 1 1 133 92 12 13
241 3 2 1 1 408 388 365 423
242 3 2 1 1 409 71 70 429
243 3 2 1 1 131 150 184 93
244 3 2 1 1 87 135 29 30
245 3 2 1 1 132 151 185 94
246 3 2 1 1 88 136 54 55
247 3 2 1 1 198 221 179 152
248 3 2 1 1 134 89 38 39
249 3 2 1 1 95 312 149 134
250 3 2 1 1 218 211 181 147
251 3 2 1 1 314 315 345 326
252 3 2 1 1 98 114 162 137
253 3 2 1 1 97 115 168 140
254 3 2 1 1 197 187 252 230
255 3 2 1 1 181 211 256 201
256 3 2 1 1 342 362 378 367
257 3 2 1 1 271 245 212 272
258 3 2 1 1 141 87 30 31
259 3 2 1 1 92 138 11 12
260 3 2 1 1 140 118 117 97
261 3 2 1 1 142 88 55 56
262 3 2 1 1 325 309 374 339
263 3 2 1 1 89 139 37 38
264 3 2 1 1 347 361 277 305
265 3 2 1 1 425 406 427 438
266 3 2 1 1 255 205 153 287
267 3 2 1 1 226 196 124 229
268 3 2 1 1 209 247 295 280
269 3 2 1 1 349 334 282 299
270 3 2 1 1 191 157 193 220
271 3 2 1 1 138 114 10 11
272 3 2 1 1 397 426 442 404
273 3 2 1 1 139 115 36 37
274 3 2 1 1 121 164 195 161
275 3 2 1 1 118 141 31 32
276 3 2 1 1 171 122 223 178
277 3 2 1 1 212 192 214 233
278 3 2 1 1 70 69 431 411
279 3 2 1 1 328 330 306 298
280 3 2 1 1 303 266 235 360
281 3 2 1 1 238 149 312 279
282 3 2 1 1 112 8 9 98
283 3 2 1 1 114 98 9 10
284 3 2 1 1 115 97 35 36
285 3 2 1 1 117 34 35 97
286 3 2 1 1 175 198 92 173
287 3 2 1 1 306 330 344 291
288 3 2 1 1 134 149 194 89
289 3 2 1 1 369 396 379 384
290 3 2 1 1 330 350 370 344
291 3 2 1 1 235 266 297 248
292 3 2 1 1 322 341 376 336
293 3 2 1 1 412 407 394 392
294 3 2 1 1 117 118 32 33
295 3 2 1 1 34 117 33 3
296 3 2 1 1 172 200 143 125
297 3 2 1 1 406 410 435 427
298 3 2 1 1 302 264 255 241
299 3 2 1 1 161 187 144 121
300 3 2 1 1 289 316 349 299
301 3 2 1 1 142 56 57 113
302 3 2 1 1 250 267 306 274
303 3 2 1 1 8 112 58 1
304 3 2 1 1 61 60 252 284
305 3 2 1 1 250 274 178 223
306 3 2 1 1 394 370 375 392
307 3 2 1 1 57 58 112 113
308 3 2 1 1 187 197 225 144
309 3 2 1 1 72 73 427 440
310 3 2 1 1 67 66 379 396
311 3 2 1 1 304 262 204 251
312 3 2 1 1 69 68 414 431
313 3 2 1 1 84 253 222 85
314 3 2 1 1 334 349 368 351
315 3 2 1 1 65 64 329 356
316 3 2 1 1 446 407 412 422
317 3 2 1 1 76 77 417 432
318 3 2 1 1 75 74 437 445
319 3 2 1 1 78 79 371 400
320 3 2 1 1 443 405 399 393
321 3 2 1 1 80 81 321 357
322 3 2 1 1 365 388 373 340
323 3 2 1 1 201 256 278 203
324 3 2 1 1 159 183 312 95
325 3 2 1 1 402 390 367 378
326 3 2 1 1 82 83 270 310
327 3 2 1 1 387 350 330 328
328 3 2 1 1 65 354 324 64
329 3 2 1 1 61 283 237 60
330 3 2 1 1 84 85 216 259
331 3 2 1 1 368 416 374 351
332 3 2 1 1 234 279 312 183
333 3 2 1 1 326 345 378 362
334 3 2 1 1 63 62 280 313
335 3 2 1 1 94 185 255 287
336 3 2 1 1 86 202 166 7
337 3 2 1 1 239 254 286 184
338 3 2 1 1 398 413 433 353
339 3 2 1 1 377 300 334 351
340 3 2 1 1 178 217 159 171
341 3 2 1 1 335 249 199 224
342 3 2 1 1 417 400 371 415
343 3 2 1 1 346 356 329 382
344 3 2 1 1 273 358 295 247
345 3 2 1 1 333 383 357 321
346 3 2 1 1 385 376 399 355
347 3 2 1 1 393 394 407 443
348 3 2 1 1 300 242 282 334
349 3 2 1 1 351 374 309 377
350 3 2 1 1 294 307 237 283
351 3 2 1 1 437 439 436 445
352 3 2 1 1 320 380 398 353
353 3 2 1 1 254 210 160 286
354 3 2 1 1 382 329 295 358
355 3 2 1 1 277 361 383 333
356 3 2 1 1 163 145 225 197
357 3 2 1 1 233 401 385 296
358 3 2 1 1 223 122 174 196
359 3 2 1 1 158 281 243 207
360 3 2 1 1 59 230 252 60
361 3 2 1 1 280 295 329 313
362 3 2 1 1 306 267 288 298
363 3 2 1 1 341 322 331 372
364 3 2 1 1 426 343 433 413
365 3 2 1 1 336 293 311 322
366 3 2 1 1 436 439 446 422
367 3 2 1 1 422 412 78 77
368 3 2 1 1 392 375 80 79
369 3 2 1 1 430 419 67 68
370 3 2 1 1 386 415 371 381
371 3 2 1 1 294 62 63 332
372 3 2 1 1 298 288 84 83
373 3 2 1 1 70 71 420 441
374 3 2 1 1 356 346 384 379
375 3 2 1 1 215 175 173 155
376 3 2 1 1 280 284 252 209
377 3 2 1 1 376 385 401 336
378 3 2 1 1 76 75 445 436
379 3 2 1 1 69 70 441 421
380 3 2 1 1 71 72 440 420
381 3 2 1 1 72 428 444 73
382 3 2 1 1 231 6 59 258
383 3 2 1 1 369 384 323 359
384 3 2 1 1 73 444 437 74
385 3 2 1 1 202 226 229 166
386 3 2 1 1 327 315 314 271
387 3 2 1 1 413 398 67 419
388 3 2 1 1 81 80 375 387
389 3 2 1 1 303 360 269 338
390 3 2 1 1 335 276 237 307
391 3 2 1 1 82 81 387 328
392 3 2 1 1 64 324 332 63
393 3 2 1 1 267 253 84 288
394 3 2 1 1 223 257 222 250
395 3 2 1 1 426 413 419 430
396 3 2 1 1 231 258 237 276
397 3 2 1 1 346 382 358 292
398 3 2 1 1 108 143 200 227
399 3 2 1 1 60 237 258 59
400 3 2 1 1 127 180 224 199
401 3 2 1 1 86 7 188 228
402 3 2 1 1 85 86 228 216
403 3 2 1 1 270 333 321 310
404 3 2 1 1 223 196 226 257
405 3 2 1 1 381 383 361 347
406 3 2 1 1 200 172 166 229
407 3 2 1 1 407 446 405 443
408 3 2 1 1 166 172 188 7
409 3 2 1 1 125 106 126 170
410 3 2 1 1 208 251 151 186
411 3 2 1 1 314 240 245 271
412 3 2 1 1 268 244 377 309
413 3 2 1 1 433 343 316 337
414 3 2 1 1 433 337 320 353
415 3 2 1 1 320 352 354 380
416 3 2 1 1 415 386 366 391
417 3 2 1 1 402 408 428 409
418 2 2 2 2 667 543 544 
419 2 2 2 2 544 545 667 
420 2 2 2 2 542 523 524 
421 2 2 2 2 524 452 542 
422 3 2 2 2 1035 927 1001 1067
423 3 2 2 2 1155 1101 1180 1137
424 3 2 2 2 1212 1201 1240 1225
425 3 2 2 2 1221 1186 1235 1227
426 3 2 2 2 939 999 1024 978
427 3 2 2 2 920 923 551 552
428 3 2 2 2 1237 1248 1247 1246
429 3 2 2 2 1229 1202 1175 1172
430 3 2 2 2 1189 1134 1081 1141
431 3 2 2 2 1038 988 966 1000
432 3 2 2 2 1180 1109 1156 1138
433 3 2 2 2 978 1024 943 874
434 3 2 2 2 742 776 794 689
435 3 2 2 2 966 888 848 895
436 3 2 2 2 1017 940 959 947
437 3 2 2 2 752 700 745 787
438 3 2 2 2 557 558 1193 1163
439 3 2 2 2 579 636 728 676
440 3 2 2 2 1198 1233 1204 1205
441 3 2 2 2 630 684 784 915
442 3 2 2 2 820 869 727 793
443 3 2 2 2 946 856 1025 454
444 3 2 2 2 737 1021 780 719
445 3 2 2 2 1191 1105 1043 1093
446 3 2 2 2 1205 1169 1158 1174
447 3 2 2 2 1037 1017 947 933
448 3 2 2 2 968 897 850 898
449 3 2 2 2 696 633 699 738
450 3 2 2 2 728 817 774 676
451 3 2 2 2 547 707 715 546
452 3 2 2 2 840 768 670 746
453 3 2 2 2 1236 1250 1238 1245
454 3 2 2 2 986 949 909 881
455 3 2 2 2 1112 1142 1124 1032
456 3 2 2 2 1090 985 1046 1139
457 3 2 2 2 548 547 735 913
458 3 2 2 2 1123 1038 1000 1061
459 3 2 2 2 546 545 681 806
460 3 2 2 2 1082 1136 1084 1145
461 3 2 2 2 938 1026 965 1013
462 3 2 2 2 636 587 813 728
463 3 2 2 2 1095 1123 1061 1042
464 3 2 2 2 1167 1215 1176 1204
465 3 2 2 2 911 858 805 856
466 3 2 2 2 968 1002 993 897
467 3 2 2 2 1045 1097 1125 1106
468 3 2 2 2 587 632 682 813
469 3 2 2 2 696 627 576 606
470 3 2 2 2 680 629 790 730
471 3 2 2 2 969 917 818 936
472 3 2 2 2 1117 1080 1186 1127
473 3 2 2 2 890 977 453 869
474 3 2 2 2 865 634 765 713
475 3 2 2 2 1080 1117 980 1035
476 3 2 2 2 874 819 884 978
477 3 2 2 2 667 545 546 715
478 3 2 2 2 869 820 952 890
479 3 2 2 2 1024 999 1078 1031
480 3 2 2 2 1202 1196 1082 1175
481 3 2 2 2 600 631 688 706
482 3 2 2 2 731 706 688 970
483 3 2 2 2 1114 1034 1111 1157
484 3 2 2 2 1066 1145 1100 989
485 3 2 2 2 899 777 850 897
486 3 2 2 2 1201 1168 1200 1240
487 3 2 2 2 1157 1184 1203 1114
488 3 2 2 2 682 632 588 764
489 3 2 2 2 1243 1233 1198 1236
490 3 2 2 2 678 628 793 727
491 3 2 2 2 707 547 548 754
492 3 2 2 2 1183 1141 1123 1133
493 3 2 2 2 948 885 1074 1154
494 3 2 2 2 778 668 571 748
495 3 2 2 2 525 644 620 524
496 3 2 2 2 1250 1236 1198 1221
497 3 2 2 2 1246 1219 1244 1237
498 3 2 2 2 667 645 522 619
499 3 2 2 2 1153 1110 1136 1170
500 3 2 2 2 1044 1008 981 1029
501 3 2 2 2 631 584 624 688
502 3 2 2 2 920 552 553 950
503 3 2 2 2 1245 1220 1243 1236
504 3 2 2 2 754 807 842 797
505 3 2 2 2 985 887 957 1046
506 3 2 2 2 980 1075 999 939
507 3 2 2 2 720 791 902 826
508 3 2 2 2 990 1083 1122 1041
509 3 2 2 2 740 685 655 608
510 3 2 2 2 1128 1092 1194 1187
511 3 2 2 2 747 684 630 603
512 3 2 2 2 1093 1031 1078 1131
513 3 2 2 2 603 521 522 645
514 3 2 2 2 897 993 930 899
515 3 2 2 2 790 862 1025 730
516 3 2 2 2 1142 1183 1133 1159
517 3 2 2 2 819 787 843 884
518 3 2 2 2 980 976 927 1035
519 3 2 2 2 699 687 796 738
520 3 2 2 2 823 678 727 851
521 3 2 2 2 833 914 942 1019
522 3 2 2 2 927 902 816 1001
523 3 2 2 2 684 747 797 784
524 3 2 2 2 1050 928 910 1006
525 3 2 2 2 725 686 741 773
526 3 2 2 2 788 716 709 702
527 3 2 2 2 862 901 941 973
528 3 2 2 2 1234 1226 1209 1173
529 3 2 2 2 627 696 971 737
530 3 2 2 2 1123 1141 1081 1038
531 3 2 2 2 823 851 972 896
532 3 2 2 2 787 819 789 752
533 3 2 2 2 1235 1213 1114 1203
534 3 2 2 2 1065 1054 1040 1088
535 3 2 2 2 765 680 730 805
536 3 2 2 2 933 821 911 1003
537 3 2 2 2 1098 1100 1145 1084
538 3 2 2 2 792 799 794 832
539 3 2 2 2 600 629 680 589
540 3 2 2 2 1182 1200 1168 1129
541 3 2 2 2 756 723 849 775
542 3 2 2 2 601 648 692 703
543 3 2 2 2 623 701 656 575
544 3 2 2 2 620 644 677 758
545 3 2 2 2 915 784 898 850
546 3 2 2 2 1175 1082 983 1140
547 3 2 2 2 926 893 953 996
548 3 2 2 2 966 935 903 888
549 3 2 2 2 1079 1029 1092 1128
550 3 2 2 2 788 837 841 716
551 3 2 2 2 1005 937 992 1033
552 3 2 2 2 816 721 777 899
553 3 2 2 2 1019 941 901 833
554 3 2 2 2 1128 1197 1166 1079
555 3 2 2 2 1029 1079 1132 1044
556 3 2 2 2 741 802 847 815
557 3 2 2 2 793 756 775 820
558 3 2 2 2 1034 930 993 1111
559 3 2 2 2 1248 1237 1197 1218
560 3 2 2 2 837 788 846 883
561 3 2 2 2 873 942 914 831
562 3 2 2 2 883 846 772 945
563 3 2 2 2 905 947 959 844
564 3 2 2 2 633 696 606 653
565 3 2 2 2 738 796 844 916
566 3 2 2 2 641 699 633 586
567 3 2 2 2 686 637 615 697
568 3 2 2 2 1061 1000 936 1009
569 3 2 2 2 629 731 833 790
570 3 2 2 2 1158 1117 1127 1174
571 3 2 2 2 862 790 833 901
572 3 2 2 2 699 641 590 687
573 3 2 2 2 625 679 638 604
574 3 2 2 2 731 629 600 706
575 3 2 2 2 902 927 976 826
576 3 2 2 2 625 695 777 721
577 3 2 2 2 1195 1179 1091 1154
578 3 2 2 2 711 756 793 628
579 3 2 2 2 602 635 710 711
580 3 2 2 2 981 962 894 1007
581 3 2 2 2 890 952 982 1051
582 3 2 2 2 1067 1001 930 1034
583 3 2 2 2 837 883 1120 924
584 3 2 2 2 572 621 651 610
585 3 2 2 2 1158 1078 999 1075
586 3 2 2 2 789 839 798 800
587 3 2 2 2 1024 1043 997 943
588 3 2 2 2 742 689 658 596
589 3 2 2 2 774 817 948 894
590 3 2 2 2 585 810 525 526
591 3 2 2 2 1007 1092 1029 981
592 3 2 2 2 730 1025 856 805
593 3 2 2 2 722 905 844 796
594 3 2 2 2 1110 1153 1033 992
595 3 2 2 2 589 472 473 600
596 3 2 2 2 631 600 473 474
597 3 2 2 2 602 588 490 491
598 3 2 2 2 663 595 659 705
599 3 2 2 2 1004 956 847 906
600 3 2 2 2 707 754 797 747
601 3 2 2 2 1077 979 1072 1129
602 3 2 2 2 1091 1049 948 1154
603 3 2 2 2 702 642 578 744
604 3 2 2 2 771 750 669 838
605 3 2 2 2 601 584 475 476
606 3 2 2 2 635 602 491 492
607 3 2 2 2 637 585 526 527
608 3 2 2 2 634 865 626 605
609 3 2 2 2 783 835 882 870
610 3 2 2 2 632 587 488 489
611 3 2 2 2 1125 1097 1039 1147
612 3 2 2 2 1140 983 960 1052
613 3 2 2 2 1204 1224 1211 1167
614 3 2 2 2 992 925 1055 1110
615 3 2 2 2 1045 1073 994 1097
616 3 2 2 2 603 630 520 521
617 3 2 2 2 588 602 711 628
618 3 2 2 2 624 785 970 688
619 3 2 2 2 997 974 891 943
620 3 2 2 2 1244 1223 1197 1237
621 3 2 2 2 1049 1007 894 948
622 3 2 2 2 584 631 474 475
623 3 2 2 2 1051 982 1028 1086
624 3 2 2 2 1110 1055 1084 1136
625 3 2 2 2 640 580 493 494
626 3 2 2 2 588 632 489 490
627 3 2 2 2 635 580 762 710
628 3 2 2 2 771 957 887 853
629 3 2 2 2 1020 945 877 1008
630 3 2 2 2 780 824 812 719
631 3 2 2 2 962 877 866 830
632 3 2 2 2 577 638 679 714
633 3 2 2 2 589 634 471 472
634 3 2 2 2 686 697 802 741
635 3 2 2 2 1197 1128 1187 1218
636 3 2 2 2 580 635 492 493
637 3 2 2 2 634 605 470 471
638 3 2 2 2 590 469 470 605
639 3 2 2 2 782 740 670 864
640 3 2 2 2 746 670 647 574
641 3 2 2 2 884 843 809 892
642 3 2 2 2 958 878 775 849
643 3 2 2 2 932 918 879 1022
644 3 2 2 2 676 774 830 736
645 3 2 2 2 966 988 1063 935
646 3 2 2 2 679 625 721 791
647 3 2 2 2 708 593 660 700
648 3 2 2 2 1108 1095 986 1068
649 3 2 2 2 935 1063 996 953
650 3 2 2 2 630 581 519 520
651 3 2 2 2 604 518 519 581
652 3 2 2 2 755 573 616 726
653 3 2 2 2 923 842 807 860
654 3 2 2 2 752 789 800 757
655 3 2 2 2 1005 964 829 937
656 3 2 2 2 799 792 693 760
657 3 2 2 2 692 755 845 781
658 3 2 2 2 749 704 651 750
659 3 2 2 2 1230 1249 1241 1217
660 3 2 2 2 947 905 821 933
661 3 2 2 2 587 636 487 488
662 3 2 2 2 861 909 886 801
663 3 2 2 2 737 719 683 627
664 3 2 2 2 907 937 829 773
665 3 2 2 2 643 576 627 683
666 3 2 2 2 1222 1208 1166 1239
667 3 2 2 2 721 816 902 791
668 3 2 2 2 838 875 957 771
669 3 2 2 2 986 881 940 1068
670 3 2 2 2 1051 998 977 890
671 3 2 2 2 817 728 813 859
672 3 2 2 2 1038 1081 1063 988
673 3 2 2 2 618 653 464 465
674 3 2 2 2 636 579 486 487
675 3 2 2 2 571 668 732 652
676 3 2 2 2 1205 1174 1127 1198
677 3 2 2 2 970 785 831 914
678 3 2 2 2 779 726 701 795
679 3 2 2 2 763 671 646 577
680 3 2 2 2 725 773 829 919
681 3 2 2 2 648 601 476 477
682 3 2 2 2 649 607 733 672
683 3 2 2 2 898 842 923 920
684 3 2 2 2 1187 1194 1173 1209
685 3 2 2 2 1105 1040 932 1022
686 3 2 2 2 650 698 621 572
687 3 2 2 2 691 662 613 704
688 3 2 2 2 574 654 675 746
689 3 2 2 2 946 454 973 1016
690 3 2 2 2 673 772 846 744
691 3 2 2 2 702 744 846 788
692 3 2 2 2 700 752 757 708
693 3 2 2 2 673 921 866 772
694 3 2 2 2 899 930 1001 816
695 3 2 2 2 926 1030 1085 991
696 3 2 2 2 615 637 527 528
697 3 2 2 2 990 1036 1150 1083
698 3 2 2 2 1014 958 849 889
699 3 2 2 2 904 852 753 781
700 3 2 2 2 751 675 654 591
701 3 2 2 2 675 751 800 798
702 3 2 2 2 705 739 594 663
703 3 2 2 2 608 647 670 740
704 3 2 2 2 1131 1144 1191 1093
705 3 2 2 2 1071 835 759 685
706 3 2 2 2 1175 1140 1077 1172
707 3 2 2 2 893 926 991 875
708 3 2 2 2 819 874 839 789
709 3 2 2 2 949 1042 1061 1009
710 3 2 2 2 888 903 854 778
711 3 2 2 2 571 657 693 748
712 3 2 2 2 1003 1069 1037 933
713 3 2 2 2 1198 1127 1186 1221
714 3 2 2 2 604 638 517 518
715 3 2 2 2 465 449 466 618
716 3 2 2 2 856 946 1003 911
717 3 2 2 2 1248 1218 1226 1247
718 3 2 2 2 594 640 494 495
719 3 2 2 2 672 733 861 801
720 3 2 2 2 579 639 485 486
721 3 2 2 2 841 837 924 872
722 3 2 2 2 1160 1102 1081 1134
723 3 2 2 2 1145 1066 983 1082
724 3 2 2 2 1123 1095 1159 1133
725 3 2 2 2 1062 1033 1153 1104
726 3 2 2 2 963 822 857 880
727 3 2 2 2 866 877 945 772
728 3 2 2 2 937 907 925 992
729 3 2 2 2 974 879 918 768
730 3 2 2 2 665 694 664 597
731 3 2 2 2 638 577 516 517
732 3 2 2 2 743 623 709 716
733 3 2 2 2 824 861 733 812
734 3 2 2 2 776 801 886 818
735 3 2 2 2 743 716 841 770
736 3 2 2 2 639 578 484 485
737 3 2 2 2 979 924 1120 1072
738 3 2 2 2 606 576 455 447
739 3 2 2 2 604 581 695 625
740 3 2 2 2 878 952 820 775
741 3 2 2 2 1049 1194 1092 1007
742 3 2 2 2 906 847 802 718
743 3 2 2 2 1008 877 962 981
744 3 2 2 2 656 701 726 616
745 3 2 2 2 753 717 624 703
746 3 2 2 2 1072 1120 1020 1161
747 3 2 2 2 973 454 1025 862
748 3 2 2 2 1102 1160 1085 1030
749 3 2 2 2 705 759 835 783
750 3 2 2 2 809 843 671 763
751 3 2 2 2 1101 1148 1109 1180
752 3 2 2 2 642 702 709 611
753 3 2 2 2 814 677 729 786
754 3 2 2 2 549 807 754 548
755 3 2 2 2 950 553 554 1023
756 3 2 2 2 590 641 468 469
757 3 2 2 2 799 761 689 794
758 3 2 2 2 875 838 767 893
759 3 2 2 2 578 642 483 484
760 3 2 2 2 813 682 823 859
761 3 2 2 2 653 618 586 633
762 3 2 2 2 576 643 456 455
763 3 2 2 2 717 753 852 769
764 3 2 2 2 645 707 747 603
765 3 2 2 2 657 612 760 693
766 3 2 2 2 1094 1108 1017 1037
767 3 2 2 2 850 777 695 915
768 3 2 2 2 761 799 760 694
769 3 2 2 2 1238 561 562 1245
770 3 2 2 2 1088 1040 1105 1191
771 3 2 2 2 579 921 673 639
772 3 2 2 2 643 607 457 456
773 3 2 2 2 1161 1182 1129 1072
774 3 2 2 2 926 996 1102 1030
775 3 2 2 2 654 574 504 505
776 3 2 2 2 642 611 482 483
777 3 2 2 2 648 573 755 692
778 3 2 2 2 1086 1118 998 1051
779 3 2 2 2 1247 562 561 1246
780 3 2 2 2 1172 1077 1129 1168
781 3 2 2 2 596 649 672 742
782 3 2 2 2 1009 936 818 886
783 3 2 2 2 694 665 583 761
784 3 2 2 2 827 803 749 853
785 3 2 2 2 723 804 889 849
786 3 2 2 2 650 572 533 534
787 3 2 2 2 610 532 533 572
788 3 2 2 2 811 821 905 722
789 3 2 2 2 447 464 653 606
790 3 2 2 2 803 827 906 718
791 3 2 2 2 477 478 573 648
792 3 2 2 2 610 651 704 613
793 3 2 2 2 910 954 1056 1006
794 3 2 2 2 637 686 725 585
795 3 2 2 2 577 646 515 516
796 3 2 2 2 792 848 748 693
797 3 2 2 2 655 685 759 582
798 3 2 2 2 1079 1166 1208 1132
799 3 2 2 2 574 647 503 504
800 3 2 2 2 607 649 458 457
801 3 2 2 2 708 757 690 666
802 3 2 2 2 609 650 534 535
803 3 2 2 2 1180 1103 1048 1137
804 3 2 2 2 759 705 659 582
805 3 2 2 2 757 800 751 690
806 3 2 2 2 611 575 481 482
807 3 2 2 2 652 609 535 536
808 3 2 2 2 1054 1013 932 1040
809 3 2 2 2 722 626 865 811
810 3 2 2 2 900 964 1005 929
811 3 2 2 2 964 900 786 855
812 3 2 2 2 852 904 1012 954
813 3 2 2 2 745 700 660 592
814 3 2 2 2 888 778 748 848
815 3 2 2 2 575 611 709 623
816 3 2 2 2 571 652 536 537
817 3 2 2 2 1019 942 990 1041
818 3 2 2 2 647 608 502 503
819 3 2 2 2 657 571 537 538
820 3 2 2 2 649 596 459 458
821 3 2 2 2 663 496 497 595
822 3 2 2 2 1096 1151 1139 1085
823 3 2 2 2 906 827 955 1004
824 3 2 2 2 626 722 796 687
825 3 2 2 2 889 922 938 1014
826 3 2 2 2 591 661 690 751
827 3 2 2 2 707 645 667 715
828 3 2 2 2 664 694 760 612
829 3 2 2 2 940 780 1021 959
830 3 2 2 2 741 815 907 773
831 3 2 2 2 909 949 1009 886
832 3 2 2 2 936 1000 966 969
833 3 2 2 2 613 531 532 610
834 3 2 2 2 824 780 940 881
835 3 2 2 2 591 654 505 506
836 3 2 2 2 838 669 724 767
837 3 2 2 2 628 678 764 588
838 3 2 2 2 935 953 825 903
839 3 2 2 2 960 908 770 841
840 3 2 2 2 621 669 750 651
841 3 2 2 2 1141 1183 1130 1189
842 3 2 2 2 640 674 762 580
843 3 2 2 2 608 655 501 502
844 3 2 2 2 954 910 769 852
845 3 2 2 2 854 903 825 808
846 3 2 2 2 794 917 895 832
847 3 2 2 2 938 1013 1054 1014
848 3 2 2 2 781 845 961 904
849 3 2 2 2 768 840 891 974
850 3 2 2 2 575 656 480 481
851 3 2 2 2 870 739 705 783
852 3 2 2 2 655 582 500 501
853 3 2 2 2 940 1017 1108 1068
854 3 2 2 2 658 689 761 583
855 3 2 2 2 634 589 680 765
856 3 2 2 2 1004 955 1048 1103
857 3 2 2 2 612 657 538 539
858 3 2 2 2 797 842 898 784
859 3 2 2 2 746 675 798 840
860 3 2 2 2 1099 1155 1137 1090
861 3 2 2 2 955 827 853 887
862 3 2 2 2 1240 1200 1208 1222
863 3 2 2 2 924 979 1052 872
864 3 2 2 2 646 592 514 515
865 3 2 2 2 595 497 450 498
866 3 2 2 2 726 779 845 755
867 3 2 2 2 960 983 1066 908
868 3 2 2 2 985 1090 1137 1048
869 3 2 2 2 596 658 460 459
870 3 2 2 2 979 1077 1140 1052
871 3 2 2 2 887 985 1048 955
872 3 2 2 2 1104 1178 1165 1147
873 3 2 2 2 582 659 499 500
874 3 2 2 2 1050 1096 1150 1036
875 3 2 2 2 661 598 666 690
876 3 2 2 2 717 769 873 831
877 3 2 2 2 570 622 697 615
878 3 2 2 2 598 617 614 666
879 3 2 2 2 661 591 506 507
880 3 2 2 2 1085 1139 1046 991
881 3 2 2 2 1088 1113 1011 1065
882 3 2 2 2 703 692 781 753
883 3 2 2 2 594 495 496 663
884 3 2 2 2 592 646 671 745
885 3 2 2 2 961 912 1010 1053
886 3 2 2 2 641 586 467 468
887 3 2 2 2 618 466 467 586
888 3 2 2 2 1098 1084 1055 984
889 3 2 2 2 659 595 498 499
890 3 2 2 2 639 673 744 578
891 3 2 2 2 844 959 1021 916
892 3 2 2 2 592 660 513 514
893 3 2 2 2 656 616 479 480
894 3 2 2 2 762 674 834 804
895 3 2 2 2 1047 984 876 956
896 3 2 2 2 691 803 718 622
897 3 2 2 2 598 661 507 508
898 3 2 2 2 995 1015 1073 1045
899 3 2 2 2 1033 1062 929 1005
900 3 2 2 2 708 666 614 593
901 3 2 2 2 664 612 539 540
902 3 2 2 2 1235 1186 1080 1213
903 3 2 2 2 1148 1053 1010 1109
904 3 2 2 2 448 463 597 541
905 3 2 2 2 900 929 1018 880
906 3 2 2 2 509 451 510 617
907 3 2 2 2 1162 1087 1152 1181
908 3 2 2 2 720 763 577 714
909 3 2 2 2 613 662 530 531
910 3 2 2 2 1053 1012 904 961
911 3 2 2 2 1011 982 952 878
912 3 2 2 2 787 745 671 843
913 3 2 2 2 597 463 462 665
914 3 2 2 2 1012 1053 1148 1101
915 3 2 2 2 912 944 1057 1010
916 3 2 2 2 976 892 809 826
917 3 2 2 2 912 836 975 944
918 3 2 2 2 918 864 670 768
919 3 2 2 2 779 912 961 845
920 3 2 2 2 597 664 540 541
921 3 2 2 2 734 758 677 814
922 3 2 2 2 963 913 735 822
923 3 2 2 2 617 598 508 509
924 3 2 2 2 1101 1056 954 1012
925 3 2 2 2 1147 1165 1207 1125
926 3 2 2 2 830 774 894 962
927 3 2 2 2 724 808 825 767
928 3 2 2 2 658 583 461 460
929 3 2 2 2 623 743 795 701
930 3 2 2 2 876 925 907 815
931 3 2 2 2 660 593 512 513
932 3 2 2 2 991 1046 957 875
933 3 2 2 2 1214 1171 1211 1224
934 3 2 2 2 605 626 687 590
935 3 2 2 2 568 569 998 1118
936 3 2 2 2 1180 1138 1047 1103
937 3 2 2 2 769 910 928 873
938 3 2 2 2 1081 1102 996 1063
939 3 2 2 2 795 836 912 779
940 3 2 2 2 1207 1190 1106 1125
941 3 2 2 2 566 567 1087 1162
942 3 2 2 2 919 829 964 855
943 3 2 2 2 1192 1149 1164 1206
944 3 2 2 2 815 847 956 876
945 3 2 2 2 697 622 718 802
946 3 2 2 2 583 665 462 461
947 3 2 2 2 874 943 891 839
948 3 2 2 2 801 776 742 672
949 3 2 2 2 1095 1042 949 986
950 3 2 2 2 617 510 511 614
951 3 2 2 2 593 614 511 512
952 3 2 2 2 662 570 529 530
953 3 2 2 2 615 528 529 570
954 3 2 2 2 616 573 478 479
955 3 2 2 2 1100 1098 1138 1156
956 3 2 2 2 557 556 1149 1192
957 3 2 2 2 1238 1227 1210 1231
958 3 2 2 2 562 563 1220 1245
959 3 2 2 2 868 855 786 729
960 3 2 2 2 564 565 1171 1214
961 3 2 2 2 555 554 1060 1119
962 3 2 2 2 561 560 1219 1246
963 3 2 2 2 848 792 832 895
964 3 2 2 2 1119 1060 1076 1146
965 3 2 2 2 900 880 857 871
966 3 2 2 2 1156 1109 1010 1057
967 3 2 2 2 662 691 622 570
968 3 2 2 2 559 1210 1193 558
969 3 2 2 2 1083 1150 1189 1130
970 3 2 2 2 956 1004 1103 1047
971 3 2 2 2 1197 1223 1239 1166
972 3 2 2 2 767 825 953 893
973 3 2 2 2 1050 1036 990 928
974 3 2 2 2 704 749 803 691
975 3 2 2 2 1027 934 995 1058
976 3 2 2 2 881 909 861 824
977 3 2 2 2 553 552 934 1027
978 3 2 2 2 984 1055 925 876
979 3 2 2 2 966 895 917 969
980 3 2 2 2 559 558 1177 1216
981 3 2 2 2 1069 1003 946 1064
982 3 2 2 2 1089 1143 1184 1157
983 3 2 2 2 984 1047 1138 1098
984 3 2 2 2 1052 960 841 872
985 3 2 2 2 1002 1059 1111 993
986 3 2 2 2 1086 1126 1167 1152
987 3 2 2 2 989 1100 1156 1057
988 3 2 2 2 750 771 853 749
989 3 2 2 2 620 758 712 766
990 3 2 2 2 676 736 921 579
991 3 2 2 2 854 808 863 732
992 3 2 2 2 584 601 703 624
993 3 2 2 2 724 698 863 808
994 3 2 2 2 1085 1160 1150 1096
995 3 2 2 2 878 958 1065 1011
996 3 2 2 2 1170 1178 1104 1153
997 3 2 2 2 1028 1113 1144 1188
998 3 2 2 2 763 720 826 809
999 3 2 2 2 555 1119 1149 556
1000 3 2 2 2 989 1057 944 975
1001 3 2 2 2 562 1247 1226 563
1002 3 2 2 2 710 762 804 723
1003 3 2 2 2 1045 1106 1107 995
1004 3 2 2 2 564 1214 1220 563
1005 3 2 2 2 982 1011 1113 1028
1006 3 2 2 2 1099 1151 1096 1050
1007 3 2 2 2 719 812 867 683
1008 3 2 2 2 1101 1155 1099 1056
1009 3 2 2 2 1226 1218 1187 1209
1010 3 2 2 2 566 1162 1171 565
1011 3 2 2 2 918 932 1013 965
1012 3 2 2 2 950 968 898 920
1013 3 2 2 2 1086 1028 1188 1126
1014 3 2 2 2 1091 1179 1234 1173
1015 3 2 2 2 644 599 729 677
1016 3 2 2 2 975 908 1066 989
1017 3 2 2 2 555 1070 1023 554
1018 3 2 2 2 607 867 812 733
1019 3 2 2 2 1216 1177 1217 1228
1020 3 2 2 2 830 866 921 736
1021 3 2 2 2 607 643 683 867
1022 3 2 2 2 1199 1242 1249 1230
1023 3 2 2 2 1229 1165 1178 1202
1024 3 2 2 2 995 1107 1076 1058
1025 3 2 2 2 559 1216 1219 560
1026 3 2 2 2 928 990 942 873
1027 3 2 2 2 1135 1225 1199 1185
1028 3 2 2 2 997 1022 879 974
1029 3 2 2 2 1188 1215 1167 1126
1030 3 2 2 2 858 713 765 805
1031 3 2 2 2 681 734 857 806
1032 3 2 2 2 1244 1219 1216 1228
1033 3 2 2 2 553 1027 1060 554
1034 3 2 2 2 828 931 1073 1015
1035 3 2 2 2 821 811 858 911
1036 3 2 2 2 1192 1206 1217 1177
1037 3 2 2 2 823 682 764 678
1038 3 2 2 2 1135 1190 1212 1225
1039 3 2 2 2 669 621 698 724
1040 3 2 2 2 1091 1173 1194 1049
1041 3 2 2 2 723 756 711 710
1042 3 2 2 2 568 1118 1087 567
1043 3 2 2 2 1244 1228 1217 1241
1044 3 2 2 2 732 668 778 854
1045 3 2 2 2 1043 1105 1022 997
1046 3 2 2 2 1059 1089 1157 1111
1047 3 2 2 2 914 833 731 970
1048 3 2 2 2 929 1062 1039 1018
1049 3 2 2 2 1160 1134 1189 1150
1050 3 2 2 2 1050 1006 1056 1099
1051 3 2 2 2 550 860 807 549
1052 3 2 2 2 839 891 840 798
1053 3 2 2 2 941 987 1016 973
1054 3 2 2 2 963 931 828 913
1055 3 2 2 2 1073 931 963 994
1056 3 2 2 2 1023 1002 968 950
1057 3 2 2 2 624 717 831 785
1058 3 2 2 2 1185 1076 1107 1135
1059 3 2 2 2 1191 1144 1113 1088
1060 3 2 2 2 1230 1164 1185 1199
1061 3 2 2 2 998 569 453 977
1062 3 2 2 2 834 922 889 804
1063 3 2 2 2 609 863 698 650
1064 3 2 2 2 1054 1065 958 1014
1065 3 2 2 2 1240 1242 1199 1225
1066 3 2 2 2 1200 1182 1132 1208
1067 3 2 2 2 652 732 863 609
1068 3 2 2 2 1015 967 551 550
1069 3 2 2 2 1097 994 1018 1039
1070 3 2 2 2 811 865 713 858
1071 3 2 2 2 644 525 810 599
1072 3 2 2 2 1241 1249 1222 1239
1073 3 2 2 2 1165 1229 1232 1207
1074 3 2 2 2 965 1026 1071 782
1075 3 2 2 2 1112 1122 1083 1130
1076 3 2 2 2 1182 1161 1044 1132
1077 3 2 2 2 913 828 549 548
1078 3 2 2 2 1144 1176 1215 1188
1079 3 2 2 2 1147 1039 1062 1104
1080 3 2 2 2 1131 1078 1158 1169
1081 3 2 2 2 857 822 735 806
1082 3 2 2 2 987 941 1019 1041
1083 3 2 2 2 556 1121 1070 555
1084 3 2 2 2 558 557 1192 1177
1085 3 2 2 2 1094 1159 1095 1108
1086 3 2 2 2 1070 1059 1002 1023
1087 3 2 2 2 1015 995 934 967
1088 3 2 2 2 1210 1227 1235 1203
1089 3 2 2 2 1124 1094 1037 1069
1090 3 2 2 2 806 735 547 546
1091 3 2 2 2 882 835 1071 1026
1092 3 2 2 2 1212 1232 1229 1201
1093 3 2 2 2 542 543 667 619
1094 3 2 2 2 868 729 599 810
1095 3 2 2 2 1164 1149 1119 1146
1096 3 2 2 2 1112 1032 1016 987
1097 3 2 2 2 1076 1060 1027 1058
1098 3 2 2 2 1211 1171 1162 1181
1099 3 2 2 2 766 712 544 543
1100 3 2 2 2 560 1231 1210 559
1101 3 2 2 2 946 1016 1032 1064
1102 3 2 2 2 1243 1220 1214 1224
1103 3 2 2 2 1121 1089 1059 1070
1104 3 2 2 2 1076 1185 1164 1146
1105 3 2 2 2 563 1226 1234 564
1106 3 2 2 2 885 859 823 896
1107 3 2 2 2 855 868 725 919
1108 3 2 2 2 564 1234 1179 565
1109 3 2 2 2 1164 1230 1217 1206
1110 3 2 2 2 814 871 857 734
1111 3 2 2 2 568 1115 972 569
1112 3 2 2 2 565 1179 1195 566
1113 3 2 2 2 1163 1193 1184 1143
1114 3 2 2 2 987 1041 1122 1112
1115 3 2 2 2 725 868 810 585
1116 3 2 2 2 524 620 542 452
1117 3 2 2 2 552 551 967 934
1118 3 2 2 2 965 782 864 918
1119 3 2 2 2 880 1018 994 963
1120 3 2 2 2 566 1195 1116 567
1121 3 2 2 2 1069 1064 1032 1124
1122 3 2 2 2 1195 1154 1074 1116
1123 3 2 2 2 551 923 860 550
1124 3 2 2 2 1152 1167 1211 1181
1125 3 2 2 2 791 720 714 679
1126 3 2 2 2 1087 1118 1086 1152
1127 3 2 2 2 758 734 681 712
1128 3 2 2 2 1106 1190 1135 1107
1129 3 2 2 2 1163 1143 1089 1121
1130 3 2 2 2 567 1116 1115 568
1131 3 2 2 2 1026 938 922 882
1132 3 2 2 2 1232 1212 1190 1207
1133 3 2 2 2 557 1163 1121 556
1134 3 2 2 2 900 871 814 786
1135 3 2 2 2 696 738 916 971
1136 3 2 2 2 1239 1223 1244 1241
1137 3 2 2 2 545 544 712 681
1138 3 2 2 2 882 922 834 870
1139 3 2 2 2 971 916 1021 737
1140 3 2 2 2 1204 1233 1243 1224
1141 3 2 2 2 1115 1116 1074 951
1142 3 2 2 2 1210 1203 1184 1193
1143 3 2 2 2 543 542 620 766
1144 3 2 2 2 1159 1094 1124 1142
1145 3 2 2 2 851 453 569 972
1146 3 2 2 2 1240 1222 1249 1242
1147 3 2 2 2 1178 1170 1196 1202
1148 3 2 2 2 727 869 453 851
1149 3 2 2 2 542 619 522 523
1150 3 2 2 2 828 1015 550 549
1151 3 2 2 2 1231 560 561 1238
1152 3 2 2 2 695 581 630 915
1153 3 2 2 2 594 739 674 640
1154 3 2 2 2 870 834 674 739
1155 3 2 2 2 782 1071 685 740
1156 3 2 2 2 743 770 836 795
1157 3 2 2 2 908 975 836 770
1158 3 2 2 2 776 818 917 794
1159 3 2 2 2 948 817 859 885
1160 3 2 2 2 1120 883 945 1020
1161 3 2 2 2 978 884 892 939
1162 3 2 2 2 1074 885 896 951
1163 3 2 2 2 951 896 972 1115
1164 3 2 2 2 892 976 980 939
1165 3 2 2 2 1161 1020 1008 1044
1166 3 2 2 2 1024 1031 1093 1043
1167 3 2 2 2 1213 1067 1034 1114
1168 3 2 2 2 1213 1080 1035 1067
1169 3 2 2 2 980 1117 1158 1075
1170 3 2 2 2 1170 1136 1082 1196
1171 3 2 2 2 1090 1139 1151 1099
1172 3 2 2 2 1183 1142 1112 1130
1173 3 2 2 2 1169 1176 1144 1131
1174 3 2 2 2 1205 1204 1176 1169
1175 3 2 2 2 1168 1201 1229 1172
1176 3 2 2 2 1250 1221 1227 1238
$EndElements
