$MeshFormat
2.2 0 8
$EndMeshFormat
$Nodes
139
1 -131.833399321 -24.163781259 33.614690782
2 -130.654441719 -23.940079563 33.615980154
3 -130.647523607 -23.97831992 33.574090343
4 -130.227116296 -24.281964706 33.16840969
5 -130.768889269 -24.638660329 32.898871778
6 -131.043005852 -24.422785847 33.182336682
7 -131.142901945 -24.434164037 33.190253129
8 -131.202089946 -24.62923634 32.995450298
9 -131.872239719 -24.572744503 33.189252073
10 -131.793581885 -24.382659994 33.374879499
11 -131.735152854167 -24.145139451 33.6147982296667
12 -131.636906387333 -24.126497643 33.6149056773333
13 -131.5386599205 -24.107855835 33.615013125
14 -131.440413453667 -24.089214027 33.6151205726667
15 -131.342166986833 -24.070572219 33.6152280203333
16 -131.24392052 -24.051930411 33.615335468
17 -131.145674053167 -24.033288603 33.6154429156667
18 -131.047427586333 -24.014646795 33.6155503633333
19 -130.9491811195 -23.996004987 33.615657811
20 -130.850934652667 -23.977363179 33.6157652586667
21 -130.752688185833 -23.958721371 33.6158727063333
22 -130.587465419714 -24.0216977465714 33.516135964
23 -130.527407232429 -24.0650755731429 33.458181585
24 -130.467349045143 -24.1084533997143 33.400227206
25 -130.407290857857 -24.1518312262857 33.342272827
26 -130.347232670571 -24.1952090528571 33.284318448
27 -130.287174483286 -24.2385868794286 33.226364069
28 -130.304512435 -24.3329212235714 33.129904274
29 -130.381908574 -24.3838777411429 33.091398858
30 -130.459304713 -24.4348342587143 33.052893442
31 -130.536700852 -24.4857907762857 33.014388026
32 -130.614096991 -24.5367472938571 32.97588261
33 -130.69149313 -24.5877038114286 32.937377194
34 -130.83741841475 -24.5846917085 32.969738004
35 -130.9059475605 -24.530723088 33.04060423
36 -130.97447670625 -24.4767544675 33.111470456
37 -131.162631278667 -24.499188138 33.125318852
38 -131.182360612333 -24.564212239 33.060384575
39 -131.297825627857 -24.6211660775714 33.0231362658571
40 -131.393561309714 -24.6130958151429 33.0508222337143
41 -131.489296991571 -24.6050255527143 33.0785082015714
42 -131.585032673429 -24.5969552902857 33.1061941694286
43 -131.680768355286 -24.5888850278571 33.1338801372857
44 -131.776504037143 -24.5808147654286 33.1615661051429
45 -131.846020441 -24.509383 33.2511278816667
46 -131.819801163 -24.446021497 33.3130036903333
47 -131.806854363667 -24.3097004156667 33.4548165933333
48 -131.820126842333 -24.2367408373333 33.5347536876667
49 -130.657304541659 -24.0595907792265 33.4899576836587
50 -130.920522671291 -24.4145805642712 33.1665441516529
51 -131.138835165721 -24.3692774271434 33.2581726806458
52 -130.54392067795 -24.1631554506465 33.3575894386955
53 -131.48726015377 -24.5467438839766 33.1398371121954
54 -131.428774115425 -24.1555293860744 33.5425479674682
55 -130.934361689953 -24.0616972117294 33.5431095800074
56 -131.133230851795 -24.0998664198294 33.5424316060766
57 -130.517889837523 -24.3892136937888 33.112929025905
58 -131.232071148697 -24.4472928788396 33.1941708792483
59 -131.730027436577 -24.4518581026833 33.2888755530663
60 -131.698888019181 -24.3278945663814 33.4139618006825
61 -131.721537315411 -24.2128118144608 33.5403931506282
62 -130.752223423421 -24.5121903624516 33.029506252863
63 -131.287030027674 -24.5378277208866 33.1092561352782
64 -130.724826489856 -24.0195234372695 33.5458973541409
65 -130.363717982514 -24.2900626169399 33.1871382172175
66 -131.671603512008 -24.5283449209876 33.1961764712858
67 -131.526914296108 -24.1745441404151 33.5420242222006
68 -131.232284269504 -24.1183321520787 33.5426719781705
69 -130.61688087542 -24.4388951749753 33.0800909966411
70 -130.481671740087 -24.2045200482545 33.3013296875561
71 -131.754400520662 -24.5172365074848 33.2244942486106
72 -131.573484015638 -24.5275447762596 33.1774101469735
73 -131.399479795175 -24.5443716607392 33.1248028180623
74 -131.224624431531 -24.4931115501235 33.1441479139557
75 -130.659252586985 -24.498300465525 33.0256347279952
76 -131.420528076786 -24.2209116770467 33.4716420480526
77 -131.496091590726 -24.4889088745223 33.2028654365531
78 -131.230667370823 -24.3826706158763 33.2623427438424
79 -131.122419049361 -24.1669048217405 33.469258525546
80 -130.633817938521 -24.3737861863443 33.1524447335534
81 -130.717870176676 -24.427658620043 33.1121811139391
82 -130.613570388734 -24.2147574227156 33.316851815934
83 -130.834041147742 -24.0414989927978 33.5444510847951
84 -131.056344169032 -24.3600609646437 33.2514456224387
85 -131.711547610066 -24.385923016796 33.3550245841423
86 -131.624321291879 -24.1928617694299 33.542092359222
87 -131.3310399735 -24.1367374167607 33.5429168894082
88 -131.317649577478 -24.4631732159702 33.1944562611578
89 -131.034200607479 -24.0809914797648 33.5426293281936
90 -131.622182598114 -24.4577204865419 33.261107729932
91 -130.62497168311 -24.1229419588594 33.416388353295
92 -130.438921874369 -24.3403668182135 33.1488855550494
93 -130.421982119806 -24.2470103298147 33.2443891348101
94 -130.846904308987 -24.4619902463726 33.1016082933712
95 -130.983102625251 -24.3756913233034 33.2202479992182
96 -131.40904954178 -24.4776737229865 33.1973669703307
97 -131.41740812645 -24.4132976122665 33.2672295701025
98 -130.868997878059 -24.3520508475233 33.2224803507619
99 -130.818285914253 -24.114326305689 33.4641577976827
100 -131.225911744166 -24.3166928512096 33.3312804238515
101 -131.518534548877 -24.2396391564867 33.471395876618
102 -131.021165914503 -24.147153043349 33.4699407054646
103 -130.94699161509 -24.318247600794 33.2738779379837
104 -131.224073691059 -24.1846024855838 33.4708324696422
105 -131.128575376325 -24.3036932597939 33.3255931632027
106 -131.615238246437 -24.3821795243014 33.3397379041852
107 -130.658042044431 -24.1834117252871 33.3589451948076
108 -130.49516552183 -24.2979372087326 33.2050729964458
109 -131.322639267854 -24.3975577478564 33.2649582407029
110 -131.323227735405 -24.2023988801783 33.4718019666446
111 -130.553792704164 -24.256314104127 33.2608825946986
112 -130.793722069474 -24.3948950018176 33.162049302582
113 -131.614380340641 -24.2563169467612 33.472888965346
114 -130.690300710886 -24.3796541204338 33.1575197973024
115 -131.511656393147 -24.4324640516044 33.2657671633962
116 -130.731193022585 -24.0812362808819 33.481799397479
117 -130.813735655747 -24.286789590976 33.2805628855358
118 -131.321680499427 -24.3325294351342 33.3336491784682
119 -131.515702091774 -24.367761995861 33.3351128897839
120 -130.625141055418 -24.3100569740083 33.2182167362585
121 -131.222168120172 -24.2508749093921 33.4002511055222
122 -131.610942925439 -24.3178221755355 33.4070511391208
123 -130.924655741408 -24.127641875622 33.4713161222535
124 -130.678387808312 -24.259750814438 33.2821485039447
125 -131.12000650124 -24.2355211427394 33.3960929957915
126 -131.320754715927 -24.2676412503918 33.4021982763766
127 -131.033353442055 -24.3020014693266 33.3083505501604
128 -131.515494161344 -24.3027383907204 33.4039489319836
129 -130.727446176029 -24.1348523304409 33.4242564938167
130 -130.727361792658 -24.3305205850671 33.216973954584
131 -130.559612637547 -24.3436658015009 33.1695168844337
132 -131.703601955025 -24.2695721968391 33.4766832909858
133 -130.996953135659 -24.2217756243058 33.3860550966128
134 -130.851743196123 -24.189382539385 33.391340964809
135 -130.898844484297 -24.2552008566205 33.3310369972301
136 -131.418607454666 -24.2852136411319 33.4031449256936
137 -130.74317848594 -24.2095375091143 33.3482895216788
138 -131.418366931246 -24.3496869387051 33.3348021631958
139 -130.920193175747 -24.1770908511742 33.4180442076213
$EndNodes
$Elements
118
1 2 2 1 1 49 116 64 
2 2 2 1 1 120 131 80 
3 2 2 1 1 116 129 99 
4 2 2 1 1 66 90 72 
5 2 2 1 1 120 130 124 
6 2 2 1 1 47 132 60 
7 2 2 1 1 72 77 53 
8 2 2 1 1 84 95 6 
9 3 2 1 1 25 70 52 24
10 3 2 1 1 61 11 12 86
11 3 2 1 1 86 12 13 67
12 3 2 1 1 54 14 15 87
13 3 2 1 1 87 15 16 68
14 3 2 1 1 16 17 56 68
15 3 2 1 1 13 14 54 67
16 3 2 1 1 56 89 102 79
17 3 2 1 1 56 17 18 89
18 3 2 1 1 56 79 104 68
19 3 2 1 1 18 19 55 89
20 3 2 1 1 89 55 123 102
21 3 2 1 1 87 68 104 110
22 3 2 1 1 110 76 54 87
23 3 2 1 1 54 76 101 67
24 3 2 1 1 93 70 25 26
25 3 2 1 1 1 11 61 48
26 3 2 1 1 71 45 46 59
27 3 2 1 1 110 126 136 76
28 3 2 1 1 101 76 136 128
29 3 2 1 1 93 108 111 70
30 3 2 1 1 104 79 125 121
31 3 2 1 1 9 45 71 44
32 3 2 1 1 121 126 110 104
33 3 2 1 1 123 139 133 102
34 3 2 1 1 59 46 10 85
35 3 2 1 1 86 67 101 113
36 3 2 1 1 106 90 59 85
37 3 2 1 1 51 78 100 105
38 3 2 1 1 32 75 69 31
39 3 2 1 1 134 139 123 99
40 3 2 1 1 134 137 117 135
41 3 2 1 1 58 88 109 78
42 3 2 1 1 82 52 70 111
43 3 2 1 1 102 133 125 79
44 3 2 1 1 133 135 103 127
45 3 2 1 1 129 116 49 91
46 3 2 1 1 93 26 27 65
47 3 2 1 1 27 4 28 65
48 3 2 1 1 113 101 128 122
49 3 2 1 1 132 47 48 61
50 3 2 1 1 65 28 29 92
51 3 2 1 1 109 118 100 78
52 3 2 1 1 103 135 117 98
53 3 2 1 1 88 96 97 109
54 3 2 1 1 37 74 58 7
55 3 2 1 1 132 61 86 113
56 3 2 1 1 23 24 52 91
57 3 2 1 1 51 84 6 7
58 3 2 1 1 7 58 78 51
59 3 2 1 1 92 29 30 57
60 3 2 1 1 2 3 64 21
61 3 2 1 1 91 52 82 107
62 3 2 1 1 105 127 84 51
63 3 2 1 1 49 64 3 22
64 3 2 1 1 31 69 57 30
65 3 2 1 1 99 123 55 83
66 3 2 1 1 50 36 6 95
67 3 2 1 1 34 62 33 5
68 3 2 1 1 21 64 83 20
69 3 2 1 1 55 19 20 83
70 3 2 1 1 124 82 111 120
71 3 2 1 1 39 63 38 8
72 3 2 1 1 62 34 35 94
73 3 2 1 1 66 43 44 71
74 3 2 1 1 73 40 41 53
75 3 2 1 1 138 118 109 97
76 3 2 1 1 60 132 113 122
77 3 2 1 1 72 42 43 66
78 3 2 1 1 53 41 42 72
79 3 2 1 1 138 119 128 136
80 3 2 1 1 36 50 94 35
81 3 2 1 1 117 137 124 130
82 3 2 1 1 90 115 77 72
83 3 2 1 1 112 94 50 98
84 3 2 1 1 63 39 40 73
85 3 2 1 1 103 95 84 127
86 3 2 1 1 10 47 60 85
87 3 2 1 1 59 90 66 71
88 3 2 1 1 94 112 81 62
89 3 2 1 1 122 106 85 60
90 3 2 1 1 105 100 121 125
91 3 2 1 1 119 138 97 115
92 3 2 1 1 122 128 119 106
93 3 2 1 1 126 121 100 118
94 3 2 1 1 96 73 53 77
95 3 2 1 1 92 57 131 108
96 3 2 1 1 49 22 23 91
97 3 2 1 1 114 80 69 81
98 3 2 1 1 73 96 88 63
99 3 2 1 1 130 112 98 117
100 3 2 1 1 129 137 134 99
101 3 2 1 1 108 93 65 92
102 3 2 1 1 107 82 124 137
103 3 2 1 1 136 126 118 138
104 3 2 1 1 114 81 112 130
105 3 2 1 1 97 96 77 115
106 3 2 1 1 120 80 114 130
107 3 2 1 1 111 108 131 120
108 3 2 1 1 75 32 33 62
109 3 2 1 1 83 64 116 99
110 3 2 1 1 127 105 125 133
111 3 2 1 1 57 69 80 131
112 3 2 1 1 88 58 74 63
113 3 2 1 1 74 37 38 63
114 3 2 1 1 75 62 81 69
115 3 2 1 1 106 119 115 90
116 3 2 1 1 98 50 95 103
117 3 2 1 1 107 137 129 91
118 3 2 1 1 139 134 135 133
$EndElements
