$MeshFormat
2.2 0 8
$EndMeshFormat
$Nodes
54
1 0 0 0
2 100 0 0
3 100 100 0
4 0 100 0
5 50 0 0
6 100 50 0
7 50 100 0
8 0 50 0
9 50 50 0
10 100 0 0
11 100 100 0
12 200 0 0
13 200 100 0
14 100 50 0
15 150 0 0
16 200 50 0
17 150 100 0
18 150 50 0
19 200 0 0
20 200 100 0
21 300 0 0
22 300 100 0
23 200 50 0
24 250 0 0
25 300 50 0
26 250 100 0
27 250 50 0
28 100 100 0
29 0 100 0
30 100 200 0
31 0 200 0
32 50 100 0
33 100 150 0
34 50 200 0
35 0 150 0
36 50 150 0
37 100 100 0
38 200 100 0
39 100 200 0
40 200 200 0
41 150 100 0
42 100 150 0
43 200 150 0
44 150 200 0
45 150 150 0
46 200 100 0
47 300 100 0
48 200 200 0
49 300 200 0
50 250 100 0
51 200 150 0
52 300 150 0
53 250 200 0
54 250 150 0
$EndNodes
$Elements
24
1 3 2 1 1 9 8 1 5
2 3 2 1 1 4 8 9 7
3 3 2 1 1 6 9 5 2
4 3 2 1 1 7 9 6 3
5 3 2 2 2 12 16 18 15
6 3 2 2 2 13 17 18 16
7 3 2 2 2 15 18 14 10
8 3 2 2 2 14 18 17 11
9 3 2 3 3 21 25 27 24
10 3 2 3 3 22 26 27 25
11 3 2 3 3 24 27 23 19
12 3 2 3 3 23 27 26 20
13 3 2 4 4 28 33 36 32
14 3 2 4 4 30 34 36 33
15 3 2 4 4 32 36 35 29
16 3 2 4 4 35 36 34 31
17 3 2 5 5 38 43 45 41
18 3 2 5 5 40 44 45 43
19 3 2 5 5 41 45 42 37
20 3 2 5 5 42 45 44 39
21 3 2 6 6 47 52 54 50
22 3 2 6 6 49 53 54 52
23 3 2 6 6 50 54 51 46
24 3 2 6 6 51 54 53 48
$EndElements
