$MeshFormat
2.2 0 8
$EndMeshFormat
$Nodes
907
1 -200 -100 0
2 0 -100 0
3 0 -50 0
4 0 100 0
5 -150 100 0
6 -200 100 0
7 -190 -100 0
8 -180 -100 0
9 -170 -100 0
10 -160 -100 0
11 -150 -100 0
12 -140 -100 0
13 -130 -100 0
14 -120 -100 0
15 -110 -100 0
16 -100 -100 0
17 -90 -100 0
18 -80 -100 0
19 -70 -100 0
20 -60 -100 0
21 -50 -100 0
22 -40 -100 0
23 -30 -100 0
24 -20 -100 0
25 -10 -100 0
26 0 -90 0
27 0 -80 0
28 0 -70 0
29 0 -60 0
30 0 -40 0
31 0 -30 0
32 0 -20 0
33 0 -10 0
34 0 0 0
35 0 10 0
36 0 20 0
37 0 30 0
38 0 40 0
39 0 50 0
40 0 60 0
41 0 70 0
42 0 80 0
43 0 90 0
44 -10 100 0
45 -20 100 0
46 -30 100 0
47 -40 100 0
48 -50 100 0
49 -60 100 0
50 -70 100 0
51 -80 100 0
52 -90 100 0
53 -100 100 0
54 -110 100 0
55 -120 100 0
56 -130 100 0
57 -140 100 0
58 -160 100 0
59 -170 100 0
60 -180 100 0
61 -190 100 0
62 -200 90 0
63 -200 80 0
64 -200 70 0
65 -200 60 0
66 -200 50 0
67 -200 40 0
68 -200 30 0
69 -200 20 0
70 -200 10 0
71 -200 0 0
72 -200 -10 0
73 -200 -20 0
74 -200 -30 0
75 -200 -40 0
76 -200 -50 0
77 -200 -60 0
78 -200 -70 0
79 -200 -80 0
80 -200 -90 0
81 -142.857142857143 92.8571428571428 0
82 -135.714285714286 85.7142857142857 0
83 -128.571428571429 78.5714285714286 0
84 -121.428571428571 71.4285714285714 0
85 -114.285714285714 64.2857142857142 0
86 -107.142857142857 57.1428571428571 0
87 -99.9999999999999 49.9999999999999 0
88 -92.8571428571428 42.8571428571428 0
89 -85.7142857142857 35.7142857142857 0
90 -78.5714285714285 28.5714285714285 0
91 -71.4285714285714 21.4285714285714 0
92 -64.2857142857143 14.2857142857143 0
93 -57.1428571428571 7.1428571428571 0
94 -50 -2.8421709430404E-14 0
95 -42.8571428571428 -7.14285714285717 0
96 -35.7142857142857 -14.2857142857143 0
97 -28.5714285714286 -21.4285714285714 0
98 -21.4285714285714 -28.5714285714286 0
99 -14.2857142857143 -35.7142857142857 0
100 -7.14285714285717 -42.8571428571428 0
101 -189.992481160384 -19.9959927896275 0
102 -109.999289274566 -89.9913187219457 0
103 -189.97228315525 20.0491371925617 0
104 -69.9715717223302 -89.9779472273628 0
105 -140.002515822014 -89.9952780647444 0
106 -50.6657146391878 89.3092756238375 0
107 -189.898343494731 60.2034986231322 0
108 -10.116499200881 42.8369955951208 0
109 -189.996890643342 -49.9992737513299 0
110 -160.000565151826 -89.998120145834 0
111 -6.61369878324527 59.4648654351336 0
112 -78.3574025725672 91.3426890350687 0
113 -9.60064965875577 14.3512313913781 0
114 -30.1157107499909 -89.9246246441482 0
115 -189.999159286814 -69.9996966815701 0
116 -29.9028821024092 89.9027828008768 0
117 -170.342056106968 89.8387776562896 0
118 -10.2390780052458 -78.9404581441895 0
119 -179.999900819889 -89.9996203260439 0
120 -106.963876840917 90.297164096911 0
121 -10.7971133830118 -14.8605755979677 0
122 -10.0157436605549 89.9826338119395 0
123 -189.946557772431 90.0556743822706 0
124 -10.282163027925 -89.5715583685149 0
125 -9.31078314244674 -68.9582263081145 0
126 -39.7452263470968 -89.7883531243543 0
127 -189.999668864432 -79.9997687835592 0
128 -189.999900866961 -89.999863544525 0
129 -49.7921635737041 -89.7276767057516 0
130 -10.9757111320888 67.8432179996991 0
131 -189.986797549471 0.0123811573168392 0
132 -189.993805824338 -29.9977739302943 0
133 -89.9940782220645 -89.9905243265856 0
134 -120.001652305886 -89.9921770358669 0
135 -189.955534176171 40.1360811629308 0
136 -70.9316832894647 93.5062266775881 0
137 -189.904190566723 80.1271484202239 0
138 -9.81782422798646 -5.29795876640668 0
139 -9.98678148251705 24.1338270726288 0
140 -97.0157924559 90.0388097554787 0
141 -148.961217015479 87.9220040198529 0
142 -8.37377155521708 -62.2960836320394 0
143 -8.88887429206697 -53.0628371325385 0
144 -128.468124109044 90.5969069365335 0
145 -137.58768905 94.725854786249 0
146 -110.00138551893 -79.9787873397504 0
147 -179.981466888197 -19.9908305087498 0
148 -84.5233103057831 80.7870925493206 0
149 -38.7455374517096 -77.8567093943506 0
150 -16.2537072610334 7.41046163588458 0
151 -18.2623793513471 -65.6542318036119 0
152 -17.2917619686782 57.8789228321686 0
153 -114.494611640225 84.0701595647053 0
154 -134.238231160263 71.9472342763901 0
155 -20.4765227964435 -89.5871556781943 0
156 -179.998097088364 -69.9985269822305 0
157 -179.99933625471 -79.999026351919 0
158 -170.000038016136 -89.9989670310778 0
159 -189.998085395715 -59.9994097304614 0
160 -150.001510636726 -89.9966873974419 0
161 -10.1046909470283 79.8358082650569 0
162 -179.983830438177 90.090275476375 0
163 -19.9369231267523 89.9581745117355 0
164 -189.99518031997 -39.9986684547238 0
165 -130.002873595524 -89.9934042545068 0
166 -59.9295774003426 -89.9070327354762 0
167 -189.989794062498 -9.99247980821327 0
168 -40.0438078315561 89.7128989879098 0
169 -99.9968675104946 -89.990193925581 0
170 -189.978575749191 10.0273418220255 0
171 -189.883082504628 70.1918684724831 0
172 -9.81991445590475 50.3759722556915 0
173 -79.986030504678 -89.9886280438699 0
174 -189.962044215167 30.095967231383 0
175 -189.926496614053 50.1899210049928 0
176 -63.6151028005229 88.5575149595853 0
177 -10.219988895112 33.3521762255187 0
178 -87.387676384532 90.4986176397297 0
179 -9.2947540285483 4.32327104370459 0
180 -116.988960154176 90.8175387332508 0
181 -13.994487863639 -58.2378287254463 0
182 -161.410872162703 87.1307251754582 0
183 -141.178086161655 79.5694662003867 0
184 -23.6745145401723 -16.2858184816673 0
185 -12.5210132784766 -26.2528393991795 0
186 -179.908205350672 20.126971858128 0
187 -69.9430591520173 -79.955841423074 0
188 -20.4272324999404 34.5951018388473 0
189 -179.73076374875 60.4761555155753 0
190 -140.005823284893 -79.9883929336212 0
191 -50.4167518265603 78.778168964717 0
192 -170.131576076485 80.3525973697988 0
193 -145.81570285794 72.4961065843866 0
194 -49.9269161875918 -79.4859956203363 0
195 -179.992448791468 -49.9970212141117 0
196 -179.98491495399 -29.9944396286331 0
197 -19.2632794743756 71.9883330397231 0
198 -103.613028036864 79.3263336479905 0
199 -30.561385841362 -32.3265902746784 0
200 -21.1135406688452 -8.29561069760778 0
201 -30.4569580991947 -82.0235165259293 0
202 -179.890942178512 80.2705701340677 0
203 -22.5120072313009 -77.0439240842094 0
204 -160.000474012504 -79.9952620370496 0
205 -169.999380651417 -79.9974625818766 0
206 -120.005530401479 -79.980723003505 0
207 -179.99558425238 -59.9975728650064 0
208 -179.962492385273 0.0308159600707676 0
209 -179.880140656471 40.3109772562713 0
210 -29.3869698914787 79.4947153915367 0
211 -19.6628327980875 79.8287171677129 0
212 -74.7487457920973 83.1664505836675 0
213 -89.9921435334116 -79.9785603581289 0
214 -179.974060204246 -9.98276643451375 0
215 -19.8153838898757 19.4076040379347 0
216 -21.9729340832832 46.2709597365993 0
217 -99.9986749283477 -79.9776801892378 0
218 -20.0458850271066 -0.0430219469436622 0
219 -94.3597869416409 80.0499832692793 0
220 -120.565356320047 81.6704829772695 0
221 -153.137215335187 80.5718213176112 0
222 -15.1113594836743 -46.7428531752086 0
223 -127.304342005165 64.5801652022571 0
224 -22.5336438709747 -39.7496715079736 0
225 -110.017133445843 -69.9606455646259 0
226 -169.916290793983 0.0426835541240784 0
227 -34.1638687912347 48.2847718959061 0
228 -29.8669334478341 -44.8808255534631 0
229 -50.2633289045443 -69.7990988424332 0
230 -82.0903481522632 70.9105107411564 0
231 -169.963713133411 -19.9833644648021 0
232 -169.993421852514 -59.9939187466339 0
233 -27.1074751079411 66.667099955492 0
234 -29.6740634934084 23.0968952307527 0
235 -27.9056612983041 10.5262942862265 0
236 -101.530416160442 72.138169783071 0
237 -156.559555520142 72.6684593686979 0
238 -120.152338722215 57.8930800820653 0
239 -169.458935383034 70.8631434932241 0
240 -21.7385257119326 -52.2400371131177 0
241 -59.9293544557912 -79.846837331559 0
242 -32.1826532042306 -68.4269856866279 0
243 -150.002846577194 -79.9919047629526 0
244 -179.821025552977 50.3915601135087 0
245 -179.932942469865 10.0663564877251 0
246 -79.9765198764072 -79.9748537049436 0
247 -169.997333070086 -69.9955578168639 0
248 -179.988465789986 -39.9959184614178 0
249 -20.0313447438285 29.9857489240778 0
250 -130.007149502258 -79.9839951490861 0
251 -61.1543919025426 76.5776990445476 0
252 -39.7152710807761 79.1270785130342 0
253 -179.885427933542 30.2174549663676 0
254 -90.0495734241209 -69.9747561284575 0
255 -179.761305670058 70.4319381669289 0
256 -139.435999385819 64.5134486753991 0
257 -163.162662220261 80.2582269534666 0
258 -38.6170422765705 -24.6589337884475 0
259 -30.5697344343083 -11.3685902074998 0
260 -113.603085863941 74.9874359960378 0
261 -169.799805177439 40.3550628967783 0
262 -133.021782094913 57.1513018497568 0
263 -159.864950394686 60.2321487944035 0
264 -140.008222556672 -69.9794725713643 0
265 -120.014339960222 -69.9635656780481 0
266 -30.1860976177282 40.0983509721622 0
267 -49.664229913298 68.6382444514935 0
268 -38.1501452657973 -51.669870720196 0
269 -39.2696693967344 18.5387765426202 0
270 -149.017318455814 64.8787190116575 0
271 -46.1883632314054 -16.3924933542776 0
272 -169.482260313602 60.6837522484914 0
273 -59.9639232989046 -69.8950585343413 0
274 -169.987514176426 -49.9925010247122 0
275 -169.97210473211 -29.9891340107977 0
276 -169.788384959939 20.1385959503874 0
277 -159.998552434697 -69.9914759193644 0
278 -71.8199928995624 73.2628146734772 0
279 -169.945104753263 -9.97190647643676 0
280 -100.037398787886 -69.9663344710629 0
281 -32.2608368836194 -2.24282555941315 0
282 -43.2963012641331 -69.6724991486314 0
283 -93.3049572357987 69.1240319857691 0
284 -169.852154552272 10.0685644539408 0
285 -70.0015367034754 -69.9525774581155 0
286 -80.0584013330204 -69.9763779417701 0
287 -31.2401122640679 54.7332712320264 0
288 -30.8433381699287 32.3507113015421 0
289 -39.5447722356954 68.2984658085375 0
290 -27.2588092465417 -59.7728777064638 0
291 -38.0391105050163 -37.7066771659818 0
292 -112.469756489803 51.9043896379476 0
293 -159.812658911409 0.0318460433770132 0
294 -110.049958800154 -59.9368901057779 0
295 -70.2650006056471 -60.0176890419689 0
296 -49.5565717834279 -30.1528658615553 0
297 -81.1702592006377 61.0913475641404 0
298 -159.932412920957 -19.9705775518478 0
299 -41.100504565225 49.1333220074483 0
300 -44.1267075624865 28.9375441706824 0
301 -144.912999543421 57.3053078805035 0
302 -160.19717072184 50.4520748710953 0
303 -50.1611050658366 -60.4307810236814 0
304 -150.00239635591 -69.9860870106994 0
305 -90.2247162540322 -60.0176642715365 0
306 -169.754009933028 30.223927034693 0
307 -159.993629836748 -59.9882868176621 0
308 -58.8980284974401 66.1970722449582 0
309 -169.980001682023 -39.9912974270368 0
310 -130.012005881088 -69.9709679928349 0
311 -169.808421886162 50.4410779468664 0
312 -159.601554158998 19.9224236844121 0
313 -36.45603649057 11.5624025670299 0
314 -40.3244558957253 58.1393573083059 0
315 -40.9835832088621 -62.9721619830687 0
316 -100.279835030709 62.3563268751419 0
317 -125.776315876572 50.6953543224191 0
318 -42.5737135187636 -42.6978730696263 0
319 -53.8175847819195 -8.11137664633651 0
320 -41.7616389535042 6.15027860700216 0
321 -105.937576195457 47.7679260079773 0
322 -153.587541559235 59.2244470009777 0
323 -107.018196941443 68.6452088732965 0
324 -140.00468482996 -59.9701749792475 0
325 -151.734428676412 52.3172748041925 0
326 -50.5806637503987 -41.2429232925264 0
327 -159.473220896969 30.0087606261817 0
328 -131.904136696402 42.9091065171803 0
329 -54.9675746467524 20.5676485433265 0
330 -56.6747349646572 -18.7230332879949 0
331 -100.124018444131 -59.9704084682972 0
332 -80.3206946135936 -60.0501689116882 0
333 -159.88588885577 -9.96092512822431 0
334 -69.4091514743187 60.2976870469649 0
335 -159.984691008159 -49.9863826259234 0
336 -159.953440959748 -29.979582198137 0
337 -159.687777955373 9.97190025482408 0
338 -120.023502537292 -59.9394711843825 0
339 -88.7138929037504 61.653737492769 0
340 -149.997298507247 -59.9808993836561 0
341 -60.1850346370092 -60.0736276270113 0
342 -159.621542756651 40.4014513328916 0
343 -41.7805822572238 40.2314605781223 0
344 -49.4848808235504 58.9052449135088 0
345 -105.329413770573 39.9807479068379 0
346 -117.274524708439 45.1287865741106 0
347 -50.2603112584141 -50.940281750039 0
348 -48.4044279247739 13.2730891673779 0
349 -93.052418866266 56.4251886686213 0
350 -56.0867195421254 -2.08642847708569 0
351 -149.613112537488 -0.0290724008699589 0
352 -110.042152059044 -49.9016119532325 0
353 -149.883781900305 -19.96134020304 0
354 -114.095091928303 31.9749946581802 0
355 -90.3435545453103 -50.1642970999828 0
356 -149.295130797569 19.6924722477166 0
357 -82.9023887768114 50.2989976190029 0
358 -123.175810302581 37.4670401676991 0
359 -60.6380410199562 -50.3541648679343 0
360 -62.5049511321752 27.2478533737597 0
361 -51.3168537610142 41.5771404719633 0
362 -63.3147640741493 -30.7741570573202 0
363 -70.7991142681543 -50.3097081542098 0
364 -55.2693378843064 34.0163030125447 0
365 -56.4148598062995 58.8805175544899 0
366 -130.011331032773 -59.9546796915697 0
367 -159.970917694929 -39.9839504374859 0
368 -149.985335815973 -49.9770000657836 0
369 -62.5285733090546 -9.12134278838605 0
370 -67.1610284298524 3.02149453145827 0
371 -50.1000776878502 49.9350417324367 0
372 -95.8739570120798 30.5622979891709 0
373 -147.697480373594 41.1933967449254 0
374 -139.225312696722 49.7439960241045 0
375 -72.3625807041621 -11.6530520447487 0
376 -121.239127703875 24.9686426454091 0
377 -149.930945183658 -29.9673928274903 0
378 -73.2134490549793 51.3044596779329 0
379 -86.5731011957813 20.9593751017457 0
380 -137.749938021777 34.9534373315647 0
381 -105.536634091241 25.1697777929855 0
382 -67.2120903879517 -21.2585917766123 0
383 -61.3865711366988 -40.6880048623747 0
384 -76.6324294881926 40.7303725067743 0
385 -120.008326096687 -49.9104502143606 0
386 -80.615688450689 -50.3383646470911 0
387 -149.78455961637 -9.98007005352514 0
388 -100.11591225847 -49.985595143561 0
389 -149.280066838422 9.90242160937413 0
390 -149.963459321694 -39.9722712534941 0
391 -139.988888250015 -49.9608373778685 0
392 -60.1737728416978 51.0173730599374 0
393 -69.9964737044994 33.7496587307436 0
394 -73.524702942874 11.7474239363135 0
395 -149.28791852978 29.4493702314465 0
396 -62.7033026160361 39.1824302677247 0
397 -98.7594264949085 17.0991114017437 0
398 -139.343874512204 -0.252337240815616 0
399 -109.957446028109 -39.852489013651 0
400 -81.2804827537882 -15.4481037863089 0
401 -139.847870183223 -20.0032927866797 0
402 -89.8924147296469 -40.4061696335234 0
403 -73.5380294108494 -32.5649856508071 0
404 -129.994003740736 -49.9372437761746 0
405 -137.238809996197 21.0432582496772 0
406 -113.783621824534 19.7843405297345 0
407 -139.960180622188 -39.9548651708915 0
408 -76.6841225977891 17.9762335970908 0
409 -129.512261247735 29.7607326564573 0
410 -80.1884356090559 -1.83601796891824 0
411 -71.5461991269526 -41.1576698950419 0
412 -68.7226813976545 45.7951342701045 0
413 -107.922399828132 13.1118463289063 0
414 -119.972419414721 -39.8981121705768 0
415 -77.1522936396391 -24.2521250099073 0
416 -94.3241643435052 8.10540519647738 0
417 -139.919177834685 -29.9676440467039 0
418 -139.678766847562 -10.1199839813023 0
419 -138.602344221153 9.64252627507985 0
420 -99.7862297703462 -39.8960958797949 0
421 -129.965401336497 -39.9350933665999 0
422 -84.5506863737995 -9.18491109716555 0
423 -119.1284283416 15.4807711514648 0
424 -80.6482936854969 -41.1938757770248 0
425 -83.6839240310772 9.73516062520482 0
426 -57.9941905304558 43.5202020796888 0
427 -109.957517289052 -29.8639111979994 0
428 -129.087281558947 -0.769701591988454 0
429 -116.857920979624 8.03502537175473 0
430 -129.884320822802 -20.127540912343 0
431 -103.759609284854 5.79187523798007 0
432 -129.937162772993 -29.9883172751171 0
433 -92.3315074900195 -1.0340078084209 0
434 -87.3846049356588 -29.4427680158095 0
435 -90.2876291023295 -18.3566358613995 0
436 -125.957238420638 17.373988185452 0
437 -141.73280107331 28.9198717438575 0
438 -101.739629673981 -1.96514797569157 0
439 -100.151859830781 -19.6628883466983 0
440 -129.670575372781 -10.4387512600054 0
441 -110.095878335832 3.65112680513466 0
442 -128.065924586955 8.64795041426998 0
443 -99.5944319946372 -29.679515001182 0
444 -119.979011921165 -29.9793043211438 0
445 -91.6383397965636 -9.63994206950853 0
446 -80.2381330023814 -34.616482787959 0
447 -110.15186718234 -20.1444369302184 0
448 -110.40132057183 -2.38795863812369 0
449 -119.897982147111 -10.7926892178583 0
450 -119.994851611277 -20.2532085198972 0
451 -100.93461723779 -10.4714746991311 0
452 -119.25702714834 -1.70750039035829 0
453 -110.347132079932 -10.9128929791976 0
454 0 -100 0
455 0 -50 0
456 0 100 0
457 200 -100 0
458 200 100 0
459 150 100 0
460 0 -90 0
461 0 -80 0
462 0 -70 0
463 0 -60 0
464 0 -40 0
465 0 -30 0
466 0 -20 0
467 0 -10 0
468 0 0 0
469 0 10 0
470 0 20 0
471 0 30 0
472 0 40 0
473 0 50 0
474 0 60 0
475 0 70 0
476 0 80 0
477 0 90 0
478 10 -100 0
479 20 -100 0
480 30 -100 0
481 40 -100 0
482 50 -100 0
483 60 -100 0
484 70 -100 0
485 80 -100 0
486 90 -100 0
487 100 -100 0
488 110 -100 0
489 120 -100 0
490 130 -100 0
491 140 -100 0
492 150 -100 0
493 160 -100 0
494 170 -100 0
495 180 -100 0
496 190 -100 0
497 200 -90 0
498 200 -80 0
499 200 -70 0
500 200 -60 0
501 200 -50 0
502 200 -40 0
503 200 -30 0
504 200 -20 0
505 200 -10 0
506 200 0 0
507 200 10 0
508 200 20 0
509 200 30 0
510 200 40 0
511 200 50 0
512 200 60 0
513 200 70 0
514 200 80 0
515 200 90 0
516 190 100 0
517 180 100 0
518 170 100 0
519 160 100 0
520 140 100 0
521 130 100 0
522 120 100 0
523 110 100 0
524 100 100 0
525 90 100 0
526 80 100 0
527 70 100 0
528 60 100 0
529 50 100 0
530 40 100 0
531 30 100 0
532 20 100 0
533 10 100 0
534 7.14285714285715 -42.8571428571428 0
535 14.2857142857143 -35.7142857142857 0
536 21.4285714285715 -28.5714285714285 0
537 28.5714285714286 -21.4285714285714 0
538 35.7142857142858 -14.2857142857142 0
539 42.8571428571429 -7.14285714285708 0
540 50.0000000000001 5.6843418860808E-14 0
541 57.1428571428572 7.1428571428572 0
542 64.2857142857143 14.2857142857143 0
543 71.4285714285715 21.4285714285715 0
544 78.5714285714286 28.5714285714286 0
545 85.7142857142857 35.7142857142857 0
546 92.8571428571429 42.8571428571429 0
547 100 50 0
548 107.142857142857 57.1428571428572 0
549 114.285714285714 64.2857142857143 0
550 121.428571428571 71.4285714285714 0
551 128.571428571429 78.5714285714286 0
552 135.714285714286 85.7142857142857 0
553 142.857142857143 92.8571428571428 0
554 129.99947107954 -89.9943631732003 0
555 189.992794662596 -20.0082524995951 0
556 100.004413617445 -89.982824950544 0
557 189.991018946572 9.99129096307655 0
558 70.035357785379 -89.9881092665235 0
559 10.0078445955333 60.0023096629593 0
560 189.998200380945 40.0032838790615 0
561 189.998167994383 -60.0017928217286 0
562 50.0400544200417 89.9307622331969 0
563 10.003286105242 29.9987917226784 0
564 70.3502781370736 89.6254203317175 0
565 190.003092808984 60.0594450950547 0
566 40.0339697747581 -89.9471231385774 0
567 179.999680934123 -89.9997223018556 0
568 159.998846480292 -89.9987012673571 0
569 169.92133399224 90.0766581639735 0
570 20.0027973646764 89.9979896339227 0
571 10.0413747992371 -70.3274855426788 0
572 10.1596268720837 10.2291003245147 0
573 89.5552333741658 89.5952515603448 0
574 6.75535666950231 -13.59436133359 0
575 113.031189183231 92.6858377549141 0
576 190.004909432426 90.0360092125956 0
577 9.99099233095443 -80.0587159300095 0
578 189.999854253265 -89.9999118719997 0
579 149.998199479847 -89.9976927586268 0
580 189.99694680874 -50.0037912923285 0
581 189.999527289514 -80.0000318188549 0
582 9.99893687839599 -90.0046771493676 0
583 189.995437867141 -40.0060501071722 0
584 10.0030221077852 79.9991415737025 0
585 10.0014173177963 89.9993048116522 0
586 190.005784307764 70.0751843726541 0
587 120.00194423288 -89.9906236656774 0
588 189.991378852125 -10.0083533633845 0
589 10.0113565527457 50.0046588030051 0
590 90.0084561986777 -89.9837520410643 0
591 189.992208274326 19.9882752850243 0
592 30.0046817425011 89.9938254525275 0
593 60.0504430967314 -89.9721093998986 0
594 30.0161951466359 -89.9586614589777 0
595 11.8574257039163 -48.8628395680135 0
596 147.184028414544 88.3355858620693 0
597 122.058810845004 89.7393404406713 0
598 8.83161638630594 -24.1257947465355 0
599 132.991148994402 91.3709539040524 0
600 9.04566106646176 -33.7037111897343 0
601 179.982675297701 -20.0192336369218 0
602 99.9756582906081 -79.8949125702488 0
603 179.989891418237 19.9454724695602 0
604 70.1816701392505 -80.0319655986852 0
605 159.99658863869 -79.9979855275799 0
606 20.0190222306468 59.9927847526798 0
607 179.998821496542 -79.9999359968158 0
608 179.9953052085 -60.0044284214896 0
609 180.004081098576 70.1374665148113 0
610 20.0063536407859 79.9956110545616 0
611 40.148418655616 -79.807008655625 0
612 28.1101898090356 -33.9086830209073 0
613 136.197851205308 74.8714053112093 0
614 157.063015810968 88.617298441049 0
615 169.999201964773 -89.9993800318409 0
616 180.00588573551 90.0784223385024 0
617 189.99882740585 -70.0007351829954 0
618 190.006779296729 80.0625740736471 0
619 179.992334550953 -50.0093772922497 0
620 139.998337761028 -89.9961856819527 0
621 189.993778623958 -30.0078541312833 0
622 10.0054468545346 69.9991930695486 0
623 20.0020129943423 -89.9872671496386 0
624 40.0124614616113 89.9757209352019 0
625 110.001639612424 -89.9815245299992 0
626 189.999658727696 50.0274040798392 0
627 189.990571310554 -0.00866950744936368 0
628 19.9125079407956 -70.2903103344354 0
629 80.0272061528531 -89.9917393307283 0
630 189.994988873519 29.9863544625526 0
631 60.1497716188403 89.7903740790127 0
632 50.0570682277052 -89.9476477180252 0
633 10.0117490159613 40.0039555257889 0
634 80.3376125881822 89.6616441879203 0
635 10.0050981227595 20.0148412284776 0
636 98.5227597078466 87.1717705689529 0
637 12.0472284523183 0.669975554173113 0
638 12.529378769535 -61.2996755607821 0
639 20.3963264881186 -41.0168485806503 0
640 107.674844819572 82.8763548891999 0
641 15.4664325635107 -9.16605498797977 0
642 115.53595621516 77.9876716038185 0
643 17.9817868247179 -18.9886972136437 0
644 142.706879305918 82.1827318932649 0
645 70.6764971964868 78.7611307494707 0
646 19.9903167665132 29.9262119716584 0
647 142.824153838288 69.5280162213271 0
648 180.000564581851 39.8976917707688 0
649 27.8942121582582 -45.6174723076557 0
650 169.991423744488 -60.0066118177462 0
651 130.003095156454 -79.9845329604254 0
652 179.985496294032 -30.0179713872334 0
653 50.0758162410034 79.783754552753 0
654 109.998814014069 -79.9306635208314 0
655 89.9571003796479 -79.9007344582723 0
656 60.3193259996552 -79.9452805463731 0
657 20.0590095478919 -63.3391939699444 0
658 162.45213917887 79.8400971538193 0
659 179.983420407772 60.0390588483703 0
660 170.048541816888 80.0654197651018 0
661 180.007616224729 80.1059661655478 0
662 149.996044068377 -79.9955161218219 0
663 169.997650940551 -79.9994593301234 0
664 179.99713933384 -70.0015097968301 0
665 179.983842722525 9.96939516935719 0
666 30.011426465563 79.9821123340502 0
667 179.979758560979 -10.0190944386952 0
668 19.984911000586 -80.0257405794977 0
669 20.0275329239647 49.9845625627016 0
670 179.98873255681 -40.0144926746615 0
671 30.0327687231547 -79.8889357524869 0
672 20.01201674586 69.992310300735 0
673 80.0317215123577 -79.9965002233588 0
674 179.998438283956 29.8997025016825 0
675 19.8609838538061 9.94501745467577 0
676 50.3192674521607 -79.8293368995039 0
677 89.2184298654078 81.8590919897933 0
678 19.5428375846556 2.47713577076319 0
679 94.8926998990727 77.2964674066254 0
680 19.6269822427359 -53.2413948341276 0
681 149.816909002595 77.4810966050567 0
682 128.874500778072 67.3028420036472 0
683 35.606657018555 -26.9053618074919 0
684 111.534135602277 70.6670465777056 0
685 24.832812916193 -15.7527944478834 0
686 169.967771641452 -20.0352416580258 0
687 99.8785687571645 -69.5367946266297 0
688 169.997572719675 19.8871542167895 0
689 70.5978021262495 -70.4816489857529 0
690 158.166241912791 70.0513310560391 0
691 29.1600255931829 -57.3216044692421 0
692 30.0449483154519 59.9404914823146 0
693 114.859302684161 52.8347468218111 0
694 89.6080836266703 69.0470524745592 0
695 29.0364947856562 9.19803832250052 0
696 169.873235393458 59.6326959728018 0
697 30.0333187716293 -69.7065016035049 0
698 27.3725028367093 -4.45212323853473 0
699 103.506345707587 69.7007224630884 0
700 42.462414775831 -20.0505351402536 0
701 179.991650235186 49.9005996746717 0
702 169.902853394412 69.9203536521209 0
703 169.986429166636 -50.0145966268892 0
704 139.998586285933 -79.9911954699264 0
705 159.993144799857 -69.9997432950822 0
706 169.994930468394 -70.0016921885114 0
707 20.0258258303921 39.9562205323564 0
708 40.0282045850398 79.9266734851385 0
709 179.979658810336 -0.0207190341380687 0
710 169.980542412214 -40.0228573122195 0
711 60.2985563897631 79.279291270157 0
712 120.007308950871 -79.9644765440374 0
713 40.5602033198025 -69.4503129204751 0
714 81.9613113146541 77.4990971793482 0
715 19.8774441726554 19.8593562908642 0
716 30.0262203066895 69.9596701350154 0
717 89.6205270601056 -69.4541555469453 0
718 170.069684015486 39.4952342036015 0
719 61.3165292336 -69.9618792430579 0
720 36.0281539697446 -38.4348677167023 0
721 49.0881100003089 -13.5099385166307 0
722 135.208985110739 61.8813162370985 0
723 121.666948428715 59.9453917188665 0
724 100.12048057687 -59.1544576907967 0
725 49.8067607900964 -24.4871610100952 0
726 70.9830740269616 66.1729499538478 0
727 29.9812674791412 29.5926228878724 0
728 71.2616658697198 -63.5526677773399 0
729 130.015646520551 -69.9691236283488 0
730 159.983171445949 -50.0142703514118 0
731 41.8838942403024 -59.4139936572779 0
732 160.033289688572 57.8128575843384 0
733 121.851646292626 47.9905188357086 0
734 170.06037567394 49.3283650836157 0
735 170.048627392307 29.6874778135599 0
736 149.994517408623 -69.9950442972493 0
737 169.95260233953 9.96577747956711 0
738 110.013320687131 -69.8003209623259 0
739 50.0680499816634 69.6251498982987 0
740 51.2440064913441 -69.5680374034853 0
741 30.0624607506064 49.884746815429 0
742 79.7614533045688 -70.1519202660947 0
743 169.958490216919 -10.0374015714373 0
744 169.973967806655 -30.0301049246834 0
745 40.0522408727697 69.8584718177519 0
746 159.989279770395 -60.0048999410155 0
747 36.8043439478968 -49.5227162576535 0
748 29.5430890418904 19.3094452670396 0
749 79.1047330019192 68.4320656015851 0
750 43.4696900209987 -31.3473133140831 0
751 38.6426790685195 1.94141323223289 0
752 95.2917840625718 60.2110631812812 0
753 147.873281385198 61.8776088156939 0
754 128.078338185791 54.8016521805807 0
755 107.827705466838 45.3769920653006 0
756 56.2024103163088 -7.00826340064839 0
757 159.950536225994 -20.0742836198759 0
758 160.268472755449 38.6811678199704 0
759 66.4528405800198 58.616432502978 0
760 39.781671324186 29.2183466876583 0
761 133.561730068025 48.5962929618575 0
762 159.868123785556 20.0314378285766 0
763 52.0546011100406 -35.440891311888 0
764 52.6222190066533 -59.3200375977766 0
765 88.6356517811664 -56.7527661263434 0
766 110.104466247523 -59.6983663172328 0
767 35.5563296142156 9.02472020825225 0
768 151.38328403753 53.2049151449591 0
769 100.50640835115 37.9347159061405 0
770 63.5192454496651 0.353263839598116 0
771 64.427008605091 -58.9051914364655 0
772 140.003161136647 -69.9852731166677 0
773 30.0302795613847 39.7677978763565 0
774 59.9950458752725 68.8445175905522 0
775 169.942757998707 -0.0315329960427909 0
776 159.975333327261 -40.026753893304 0
777 149.994188414696 -59.9972648657333 0
778 120.02810299346 -69.9149973045505 0
779 40.0982429941801 59.7893582830137 0
780 77.8524202613335 -60.9197446539571 0
781 53.4031110961683 -18.2824273832514 0
782 160.547994926507 47.9805712556488 0
783 115.461922215884 40.3109528181144 0
784 44.5919837278206 -42.5520801475065 0
785 140.052295266199 54.7279804209626 0
786 88.3830007697897 52.736548195901 0
787 83.3161020409514 61.8818566827983 0
788 45.6104569920699 8.39625599626246 0
789 43.6178465724199 -52.4122214932607 0
790 100.563954415746 -49.2257788980919 0
791 107.926649303788 32.1848120462645 0
792 61.9758392185009 -16.6901951466109 0
793 50.0764790611895 59.5239215935258 0
794 40.1179328467693 49.646856020329 0
795 73.5725274171834 -52.6704755205375 0
796 54.5647504332146 -47.3492378618477 0
797 57.8721968326594 -27.5811749049873 0
798 47.7008217344477 20.8181081338303 0
799 159.662212813239 10.0147113471704 0
800 159.918293215397 -10.1120081935287 0
801 81.0086605042466 45.8266087427872 0
802 160.159810588106 29.4653035432946 0
803 76.4282726651696 55.7138819575321 0
804 140.011478920555 -59.9812624228211 0
805 159.964596409012 -30.0478512868429 0
806 149.992398704705 -50.003814024247 0
807 93.3058551920787 -48.5060845189644 0
808 120.071536345081 -59.8788935062441 0
809 59.5390190427445 59.118497587042 0
810 39.9968256306104 39.4259669077778 0
811 39.8188470370699 17.3037846228873 0
812 126.919545028743 44.3090596176992 0
813 92.8086671682987 30.5340432871902 0
814 70.633706287595 8.23784838979009 0
815 143.934521155553 46.5721658326796 0
816 149.970990878091 -20.1691716035426 0
817 147.707756342505 21.4845263827111 0
818 100.734842624852 -39.4469863752586 0
819 71.7434911623435 -23.5607440623495 0
820 125.13746179513 35.3130976530459 0
821 140.020756456589 -49.9827983061871 0
822 60.5190106377862 -39.891539856278 0
823 71.3448602034586 38.1793943069438 0
824 68.5484813905006 51.1300331564055 0
825 48.9594887288625 28.3904722665212 0
826 99.4513324278532 24.2466156537563 0
827 120.138940092429 -49.8753055453202 0
828 110.273161754024 -49.6644539809806 0
829 149.9874548982 -40.0235378613506 0
830 159.810001853766 -0.129121240713327 0
831 81.1453651274647 -46.6856730275335 0
832 70.0546642550818 -7.03362800515409 0
833 130.041383890894 -59.946489548377 0
834 153.720176535021 46.6797611208649 0
835 50.1023141741901 49.3492965477802 0
836 136.143493198759 40.3156842440158 0
837 85.1422421986137 23.2172585282454 0
838 77.7577689888307 15.8135389194657 0
839 51.9910389935559 15.3689101344563 0
840 140.035420636232 -40.0115016941115 0
841 83.6176639885784 9.43946092477102 0
842 66.2350227469192 -32.2716290165443 0
843 89.5567414252377 -38.9447189413302 0
844 130.883249261997 24.972890210839 0
845 59.8973283718118 38.4548391036856 0
846 148.33613009436 37.2613908344986 0
847 59.0143973617522 25.139185169611 0
848 49.8171861885512 38.7664974726358 0
849 115.037407191326 25.6882335522415 0
850 148.994760006944 9.42566069924974 0
851 149.935925467394 -10.3424550688495 0
852 149.984982024015 -30.0784496253885 0
853 77.0477002730735 -14.5350402235644 0
854 110.494332042138 -39.8034176569995 0
855 130.0745802872 -49.9438309337224 0
856 91.1218608986349 16.7108780861059 0
857 76.7588446865791 1.34993659109816 0
858 59.6153285388874 49.2918727519912 0
859 67.4807668862043 27.9186836890432 0
860 67.6231110865789 -45.589080940898 0
861 152.598211506156 29.554711759843 0
862 62.3080634187106 -50.5383264457571 0
863 140.146384807019 -20.3210665127797 0
864 101.512237140343 -29.6330994691461 0
865 95.8032126865406 9.49075335911569 0
866 120.293768198831 -39.9364523872103 0
867 84.4093653505982 -21.6660217304175 0
868 82.7237947268897 -5.86111071998041 0
869 120.907613664423 18.4843869491083 0
870 149.68595804513 -0.593000317527261 0
871 140.087825498428 -30.1200314137678 0
872 130.147044359921 -39.9936856703025 0
873 106.050831977761 15.7154762308631 0
874 88.7711501813475 2.25465107674459 0
875 73.9825675256488 -38.7805534931364 0
876 135.646202880653 15.949732285926 0
877 140.367722575642 31.2519795691995 0
878 88.7628035179653 -12.8796497004233 0
879 105.191030296744 5.11590115196717 0
880 93.7630880006776 -4.60684098226834 0
881 120.605837559376 -30.1964966035858 0
882 111.080030894335 -30.1569915498769 0
883 138.878433375025 7.30233523603262 0
884 140.243622773632 -10.7153296606732 0
885 130.312418500189 -30.1727740059326 0
886 114.083193030213 13.5705889852102 0
887 92.5974577148338 -26.9973839867917 0
888 98.7035258494078 3.83900494891005 0
889 79.7762234685185 -30.5783510263343 0
890 121.179012237203 -20.7034620901996 0
891 114.134297341052 6.59762560920203 0
892 132.029711578311 4.72164198115833 0
893 103.171879775919 -20.4090770513713 0
894 104.709309753199 -3.55222177418133 0
895 140.141569913807 -1.51404919061983 0
896 130.599971900871 -20.5272177833879 0
897 125.257344218081 8.69368844603967 0
898 95.548191182687 -17.9351197743485 0
899 98.0716204847694 -11.9102566606985 0
900 130.969730484035 -11.0779175222849 0
901 113.746948440412 -2.58644063586086 0
902 112.00794790668 -20.811093069453 0
903 122.819911186615 -2.09611997231088 0
904 131.464004432888 -2.09773308248209 0
905 104.331401295867 -11.8588771064146 0
906 121.929405011811 -11.4208257987595 0
907 112.959345090663 -11.7045351288854 0
$EndNodes
$Elements
831
1 2 2 1 1 100 3 30 
2 2 2 1 1 3 143 29 
3 2 2 1 1 185 98 99 
4 2 2 1 1 99 100 185 
5 3 2 1 1 384 357 88 89
6 3 2 1 1 329 92 93 348
7 3 2 1 1 372 379 90 89
8 3 2 1 1 223 238 85 84
9 3 2 1 1 222 224 228 240
10 3 2 1 1 429 413 406 423
11 3 2 1 1 281 95 96 259
12 3 2 1 1 451 439 435 445
13 3 2 1 1 413 397 381 406
14 3 2 1 1 397 379 372 381
15 3 2 1 1 321 345 88 87
16 3 2 1 1 318 291 296 326
17 3 2 1 1 237 263 322 270
18 3 2 1 1 358 354 345 346
19 3 2 1 1 375 400 415 382
20 3 2 1 1 347 326 383 359
21 3 2 1 1 359 383 411 363
22 3 2 1 1 198 260 323 236
23 3 2 1 1 357 384 412 378
24 3 2 1 1 220 144 82 83
25 3 2 1 1 184 259 96 97
26 3 2 1 1 393 360 364 396
27 3 2 1 1 329 360 91 92
28 3 2 1 1 290 242 203 151
29 3 2 1 1 374 262 256 301
30 3 2 1 1 96 95 319 271
31 3 2 1 1 410 425 416 433
32 3 2 1 1 448 438 431 441
33 3 2 1 1 237 239 272 263
34 3 2 1 1 57 145 144 56
35 3 2 1 1 339 349 357 297
36 3 2 1 1 237 257 192 239
37 3 2 1 1 228 268 290 240
38 3 2 1 1 448 441 429 452
39 3 2 1 1 442 428 452 429
40 3 2 1 1 341 303 347 359
41 3 2 1 1 258 271 330 296
42 3 2 1 1 203 201 114 155
43 3 2 1 1 142 125 28 29
44 3 2 1 1 383 326 296 362
45 3 2 1 1 203 242 149 201
46 3 2 1 1 359 363 295 341
47 3 2 1 1 315 303 229 282
48 3 2 1 1 261 342 302 311
49 3 2 1 1 149 126 114 201
50 3 2 1 1 117 192 257 182
51 3 2 1 1 300 343 361 364
52 3 2 1 1 273 241 194 229
53 3 2 1 1 402 424 446 434
54 3 2 1 1 192 117 162 202
55 3 2 1 1 377 390 407 417
56 3 2 1 1 310 366 324 264
57 3 2 1 1 149 194 129 126
58 3 2 1 1 192 202 255 239
59 3 2 1 1 241 273 285 187
60 3 2 1 1 281 235 313 320
61 3 2 1 1 239 255 189 272
62 3 2 1 1 286 285 295 332
63 3 2 1 1 285 286 246 187
64 3 2 1 1 342 327 395 373
65 3 2 1 1 176 251 191 106
66 3 2 1 1 210 116 168 252
67 3 2 1 1 419 442 436 405
68 3 2 1 1 342 261 306 327
69 3 2 1 1 389 419 405 356
70 3 2 1 1 373 395 437 380
71 3 2 1 1 411 383 362 403
72 3 2 1 1 118 125 151 203
73 3 2 1 1 284 337 312 276
74 3 2 1 1 265 338 366 310
75 3 2 1 1 262 223 154 256
76 3 2 1 1 392 426 361 371
77 3 2 1 1 296 291 199 258
78 3 2 1 1 380 409 358 328
79 3 2 1 1 415 403 362 382
80 3 2 1 1 217 213 254 280
81 3 2 1 1 173 246 213 133
82 3 2 1 1 253 306 261 209
83 3 2 1 1 447 450 444 427
84 3 2 1 1 245 284 276 186
85 3 2 1 1 176 136 112 212
86 3 2 1 1 175 244 189 107
87 3 2 1 1 269 348 320 313
88 3 2 1 1 120 198 219 140
89 3 2 1 1 366 338 385 404
90 3 2 1 1 449 452 428 440
91 3 2 1 1 174 253 209 135
92 3 2 1 1 206 265 310 250
93 3 2 1 1 247 232 207 156
94 3 2 1 1 332 386 355 305
95 3 2 1 1 354 358 409 376
96 3 2 1 1 267 344 314 289
97 3 2 1 1 374 328 317 262
98 3 2 1 1 334 308 251 278
99 3 2 1 1 369 330 271 319
100 3 2 1 1 170 245 186 103
101 3 2 1 1 288 188 216 266
102 3 2 1 1 417 432 430 401
103 3 2 1 1 301 256 193 270
104 3 2 1 1 232 274 195 207
105 3 2 1 1 214 279 226 208
106 3 2 1 1 324 391 368 340
107 3 2 1 1 331 280 254 305
108 3 2 1 1 166 129 194 241
109 3 2 1 1 279 333 293 226
110 3 2 1 1 431 413 429 441
111 3 2 1 1 254 286 332 305
112 3 2 1 1 303 315 268 347
113 3 2 1 1 296 330 382 362
114 3 2 1 1 106 191 252 168
115 3 2 1 1 114 23 24 155
116 3 2 1 1 2 26 124 25
117 3 2 1 1 203 155 124 118
118 3 2 1 1 24 25 124 155
119 3 2 1 1 124 26 27 118
120 3 2 1 1 125 118 27 28
121 3 2 1 1 4 44 122 43
122 3 2 1 1 163 122 44 45
123 3 2 1 1 6 62 123 61
124 3 2 1 1 233 152 130 197
125 3 2 1 1 399 427 444 414
126 3 2 1 1 1 7 128 80
127 3 2 1 1 406 376 436 423
128 3 2 1 1 158 119 8 9
129 3 2 1 1 225 294 338 265
130 3 2 1 1 80 128 127 79
131 3 2 1 1 8 119 128 7
132 3 2 1 1 157 127 128 119
133 3 2 1 1 134 206 250 165
134 3 2 1 1 78 79 127 115
135 3 2 1 1 204 277 247 205
136 3 2 1 1 158 9 10 110
137 3 2 1 1 160 110 10 11
138 3 2 1 1 196 132 164 248
139 3 2 1 1 278 251 176 212
140 3 2 1 1 78 115 159 77
141 3 2 1 1 360 329 300 364
142 3 2 1 1 119 158 205 157
143 3 2 1 1 127 157 156 115
144 3 2 1 1 234 288 300 269
145 3 2 1 1 416 397 413 431
146 3 2 1 1 304 277 204 243
147 3 2 1 1 43 122 161 42
148 3 2 1 1 61 123 162 60
149 3 2 1 1 158 110 204 205
150 3 2 1 1 76 77 159 109
151 3 2 1 1 157 205 247 156
152 3 2 1 1 160 11 12 105
153 3 2 1 1 165 105 12 13
154 3 2 1 1 235 215 249 234
155 3 2 1 1 188 288 234 249
156 3 2 1 1 115 156 207 159
157 3 2 1 1 266 216 287 227
158 3 2 1 1 404 391 324 366
159 3 2 1 1 333 387 351 293
160 3 2 1 1 22 23 114 126
161 3 2 1 1 159 207 195 109
162 3 2 1 1 243 204 110 160
163 3 2 1 1 252 191 267 289
164 3 2 1 1 76 109 164 75
165 3 2 1 1 132 196 147 101
166 3 2 1 1 134 102 146 206
167 3 2 1 1 109 195 248 164
168 3 2 1 1 211 161 122 163
169 3 2 1 1 182 58 59 117
170 3 2 1 1 268 315 242 290
171 3 2 1 1 163 45 46 116
172 3 2 1 1 168 116 46 47
173 3 2 1 1 243 160 105 190
174 3 2 1 1 255 171 107 189
175 3 2 1 1 331 294 225 280
176 3 2 1 1 171 137 63 64
177 3 2 1 1 62 63 137 123
178 3 2 1 1 335 274 232 307
179 3 2 1 1 401 430 440 418
180 3 2 1 1 443 427 399 420
181 3 2 1 1 197 130 161 211
182 3 2 1 1 365 344 267 308
183 3 2 1 1 308 267 191 251
184 3 2 1 1 41 42 161 130
185 3 2 1 1 275 196 248 309
186 3 2 1 1 166 20 21 129
187 3 2 1 1 59 60 162 117
188 3 2 1 1 275 231 147 196
189 3 2 1 1 340 307 277 304
190 3 2 1 1 309 248 195 274
191 3 2 1 1 304 243 190 264
192 3 2 1 1 367 309 274 335
193 3 2 1 1 165 13 14 134
194 3 2 1 1 368 335 307 340
195 3 2 1 1 163 116 210 211
196 3 2 1 1 250 190 105 165
197 3 2 1 1 377 353 298 336
198 3 2 1 1 336 298 231 275
199 3 2 1 1 386 332 295 363
200 3 2 1 1 202 162 123 137
201 3 2 1 1 306 253 186 276
202 3 2 1 1 336 275 309 367
203 3 2 1 1 385 338 294 352
204 3 2 1 1 74 75 164 132
205 3 2 1 1 245 170 131 208
206 3 2 1 1 131 167 214 208
207 3 2 1 1 390 367 335 368
208 3 2 1 1 40 111 172 39
209 3 2 1 1 133 213 217 169
210 3 2 1 1 244 175 135 209
211 3 2 1 1 414 385 352 399
212 3 2 1 1 353 377 417 401
213 3 2 1 1 389 356 312 337
214 3 2 1 1 167 72 73 101
215 3 2 1 1 377 336 367 390
216 3 2 1 1 241 187 104 166
217 3 2 1 1 395 327 312 356
218 3 2 1 1 219 198 236 283
219 3 2 1 1 407 390 368 391
220 3 2 1 1 265 206 146 225
221 3 2 1 1 108 172 152 216
222 3 2 1 1 22 126 129 21
223 3 2 1 1 169 102 15 16
224 3 2 1 1 227 299 343 266
225 3 2 1 1 388 352 294 331
226 3 2 1 1 214 167 101 147
227 3 2 1 1 387 418 398 351
228 3 2 1 1 167 131 71 72
229 3 2 1 1 170 70 71 131
230 3 2 1 1 139 177 188 249
231 3 2 1 1 40 41 130 111
232 3 2 1 1 414 421 404 385
233 3 2 1 1 397 416 425 379
234 3 2 1 1 302 342 373 325
235 3 2 1 1 327 306 276 312
236 3 2 1 1 432 417 407 421
237 3 2 1 1 279 214 147 231
238 3 2 1 1 173 133 17 18
239 3 2 1 1 169 16 17 133
240 3 2 1 1 370 369 319 350
241 3 2 1 1 444 432 421 414
242 3 2 1 1 174 68 69 103
243 3 2 1 1 170 103 69 70
244 3 2 1 1 264 324 340 304
245 3 2 1 1 246 173 104 187
246 3 2 1 1 289 233 210 252
247 3 2 1 1 202 137 171 255
248 3 2 1 1 449 440 430 450
249 3 2 1 1 217 146 102 169
250 3 2 1 1 311 244 209 261
251 3 2 1 1 310 264 190 250
252 3 2 1 1 418 387 353 401
253 3 2 1 1 166 104 19 20
254 3 2 1 1 173 18 19 104
255 3 2 1 1 253 174 103 186
256 3 2 1 1 402 434 443 420
257 3 2 1 1 360 393 90 91
258 3 2 1 1 388 331 305 355
259 3 2 1 1 387 333 298 353
260 3 2 1 1 234 269 313 235
261 3 2 1 1 284 245 208 226
262 3 2 1 1 286 254 213 246
263 3 2 1 1 175 66 67 135
264 3 2 1 1 174 135 67 68
265 3 2 1 1 233 287 216 152
266 3 2 1 1 420 388 355 402
267 3 2 1 1 333 279 231 298
268 3 2 1 1 215 235 218 150
269 3 2 1 1 328 358 346 317
270 3 2 1 1 389 337 293 351
271 3 2 1 1 420 399 352 388
272 3 2 1 1 280 225 146 217
273 3 2 1 1 140 219 148 178
274 3 2 1 1 337 284 226 293
275 3 2 1 1 168 47 48 106
276 3 2 1 1 176 106 48 49
277 3 2 1 1 418 440 428 398
278 3 2 1 1 314 287 233 289
279 3 2 1 1 73 74 132 101
280 3 2 1 1 177 108 216 188
281 3 2 1 1 295 285 273 341
282 3 2 1 1 419 389 351 398
283 3 2 1 1 15 102 134 14
284 3 2 1 1 138 179 150 218
285 3 2 1 1 376 406 381 354
286 3 2 1 1 177 37 38 108
287 3 2 1 1 171 64 65 107
288 3 2 1 1 175 107 65 66
289 3 2 1 1 300 288 266 343
290 3 2 1 1 442 419 398 428
291 3 2 1 1 200 218 235 281
292 3 2 1 1 299 227 287 314
293 3 2 1 1 334 278 230 297
294 3 2 1 1 130 152 172 111
295 3 2 1 1 348 269 300 329
296 3 2 1 1 378 334 297 357
297 3 2 1 1 38 39 172 108
298 3 2 1 1 229 303 341 273
299 3 2 1 1 361 343 299 371
300 3 2 1 1 176 49 50 136
301 3 2 1 1 278 212 148 230
302 3 2 1 1 395 356 405 437
303 3 2 1 1 376 409 405 436
304 3 2 1 1 308 334 392 365
305 3 2 1 1 178 112 51 52
306 3 2 1 1 375 382 330 369
307 3 2 1 1 177 139 36 37
308 3 2 1 1 144 220 153 180
309 3 2 1 1 223 262 317 238
310 3 2 1 1 249 215 113 139
311 3 2 1 1 179 34 35 113
312 3 2 1 1 392 371 344 365
313 3 2 1 1 212 112 178 148
314 3 2 1 1 345 372 89 88
315 3 2 1 1 283 316 349 339
316 3 2 1 1 233 197 211 210
317 3 2 1 1 320 348 93 94
318 3 2 1 1 373 380 328 374
319 3 2 1 1 178 52 53 140
320 3 2 1 1 283 230 148 219
321 3 2 1 1 339 297 230 283
322 3 2 1 1 180 120 54 55
323 3 2 1 1 410 433 445 422
324 3 2 1 1 179 113 215 150
325 3 2 1 1 435 439 443 434
326 3 2 1 1 51 112 136 50
327 3 2 1 1 421 407 391 404
328 3 2 1 1 307 232 247 277
329 3 2 1 1 179 138 33 34
330 3 2 1 1 283 236 323 316
331 3 2 1 1 218 200 121 138
332 3 2 1 1 35 36 139 113
333 3 2 1 1 346 292 238 317
334 3 2 1 1 198 153 220 260
335 3 2 1 1 185 31 32 121
336 3 2 1 1 315 282 149 242
337 3 2 1 1 198 120 180 153
338 3 2 1 1 194 149 282 229
339 3 2 1 1 325 322 263 302
340 3 2 1 1 345 321 292 346
341 3 2 1 1 268 228 291 318
342 3 2 1 1 281 259 184 200
343 3 2 1 1 263 272 311 302
344 3 2 1 1 402 355 386 424
345 3 2 1 1 373 374 301 325
346 3 2 1 1 453 451 438 448
347 3 2 1 1 200 184 185 121
348 3 2 1 1 372 345 354 381
349 3 2 1 1 53 54 120 140
350 3 2 1 1 180 55 56 144
351 3 2 1 1 379 408 91 90
352 3 2 1 1 326 347 268 318
353 3 2 1 1 416 431 438 433
354 3 2 1 1 244 311 272 189
355 3 2 1 1 271 258 97 96
356 3 2 1 1 33 138 121 32
357 3 2 1 1 154 223 84 83
358 3 2 1 1 429 423 436 442
359 3 2 1 1 290 151 181 240
360 3 2 1 1 281 320 94 95
361 3 2 1 1 434 415 400 435
362 3 2 1 1 453 447 439 451
363 3 2 1 1 369 370 410 375
364 3 2 1 1 325 301 270 322
365 3 2 1 1 363 411 424 386
366 3 2 1 1 392 412 396 426
367 3 2 1 1 403 446 424 411
368 3 2 1 1 447 453 449 450
369 3 2 1 1 125 142 181 151
370 3 2 1 1 238 292 86 85
371 3 2 1 1 427 443 439 447
372 3 2 1 1 222 143 3 100
373 3 2 1 1 371 299 314 344
374 3 2 1 1 450 430 432 444
375 3 2 1 1 361 426 396 364
376 3 2 1 1 403 415 434 446
377 3 2 1 1 58 141 81 5
378 3 2 1 1 93 92 394 370
379 3 2 1 1 256 154 183 193
380 3 2 1 1 334 378 412 392
381 3 2 1 1 349 316 86 87
382 3 2 1 1 95 94 350 319
383 3 2 1 1 292 321 87 86
384 3 2 1 1 370 350 94 93
385 3 2 1 1 445 435 400 422
386 3 2 1 1 193 183 141 221
387 3 2 1 1 400 375 410 422
388 3 2 1 1 380 437 405 409
389 3 2 1 1 182 257 237 221
390 3 2 1 1 29 143 181 142
391 3 2 1 1 394 408 379 425
392 3 2 1 1 425 410 370 394
393 3 2 1 1 58 182 221 141
394 3 2 1 1 270 193 221 237
395 3 2 1 1 199 224 99 98
396 3 2 1 1 451 445 433 438
397 3 2 1 1 183 154 83 82
398 3 2 1 1 291 228 224 199
399 3 2 1 1 258 199 98 97
400 3 2 1 1 323 260 84 85
401 3 2 1 1 316 323 85 86
402 3 2 1 1 357 349 87 88
403 3 2 1 1 393 384 89 90
404 3 2 1 1 408 394 92 91
405 3 2 1 1 240 181 143 222
406 3 2 1 1 5 81 145 57
407 3 2 1 1 224 222 100 99
408 3 2 1 1 396 412 384 393
409 3 2 1 1 141 183 82 81
410 3 2 1 1 185 184 97 98
411 3 2 1 1 260 220 83 84
412 3 2 1 1 448 452 449 453
413 3 2 1 1 81 82 144 145
414 3 2 1 1 31 185 100 30
415 2 2 2 2 553 459 520 
416 2 2 2 2 459 614 519 
417 2 2 2 2 600 534 535 
418 2 2 2 2 535 536 600 
419 2 2 2 2 523 524 575 
420 2 2 2 2 575 522 523 
421 2 2 2 2 574 468 467 
422 2 2 2 2 467 466 574 
423 3 2 2 2 683 700 538 537
424 3 2 2 2 755 547 546 769
425 3 2 2 2 756 770 541 540
426 3 2 2 2 751 698 538 539
427 3 2 2 2 761 812 820 836
428 3 2 2 2 545 546 786 801
429 3 2 2 2 597 551 552 599
430 3 2 2 2 783 755 769 791
431 3 2 2 2 691 731 789 747
432 3 2 2 2 862 796 764 771
433 3 2 2 2 679 694 752 699
434 3 2 2 2 837 544 543 838
435 3 2 2 2 520 599 552 553
436 3 2 2 2 600 464 455 534
437 3 2 2 2 548 549 684 699
438 3 2 2 2 542 543 859 847
439 3 2 2 2 815 836 877 846
440 3 2 2 2 820 844 877 836
441 3 2 2 2 600 536 643 598
442 3 2 2 2 792 797 842 819
443 3 2 2 2 847 859 823 845
444 3 2 2 2 846 758 782 834
445 3 2 2 2 801 823 544 545
446 3 2 2 2 597 599 520 521
447 3 2 2 2 598 465 464 600
448 3 2 2 2 784 796 822 763
449 3 2 2 2 690 702 660 658
450 3 2 2 2 788 751 539 540
451 3 2 2 2 699 752 547 548
452 3 2 2 2 553 596 614 459
453 3 2 2 2 691 657 628 697
454 3 2 2 2 701 734 718 648
455 3 2 2 2 905 894 880 899
456 3 2 2 2 782 758 718 734
457 3 2 2 2 844 820 849 869
458 3 2 2 2 783 791 849 820
459 3 2 2 2 616 661 618 576
460 3 2 2 2 691 680 638 657
461 3 2 2 2 660 702 609 661
462 3 2 2 2 748 811 760 727
463 3 2 2 2 773 810 794 741
464 3 2 2 2 659 696 734 701
465 3 2 2 2 866 854 828 827
466 3 2 2 2 638 571 628 657
467 3 2 2 2 715 748 727 646
468 3 2 2 2 609 659 565 586
469 3 2 2 2 774 739 793 809
470 3 2 2 2 609 586 618 661
471 3 2 2 2 714 645 726 749
472 3 2 2 2 614 658 660 569
473 3 2 2 2 846 861 802 758
474 3 2 2 2 702 696 659 609
475 3 2 2 2 738 778 808 766
476 3 2 2 2 756 792 832 770
477 3 2 2 2 661 616 569 660
478 3 2 2 2 825 798 839 847
479 3 2 2 2 808 833 855 827
480 3 2 2 2 807 790 818 843
481 3 2 2 2 636 573 677 679
482 3 2 2 2 744 805 776 710
483 3 2 2 2 742 717 765 780
484 3 2 2 2 851 884 863 816
485 3 2 2 2 633 707 669 589
486 3 2 2 2 734 696 732 782
487 3 2 2 2 709 775 743 667
488 3 2 2 2 778 729 833 808
489 3 2 2 2 777 746 730 806
490 3 2 2 2 652 744 710 670
491 3 2 2 2 762 802 861 817
492 3 2 2 2 765 724 790 807
493 3 2 2 2 821 855 833 804
494 3 2 2 2 676 656 719 740
495 3 2 2 2 630 560 648 674
496 3 2 2 2 690 732 696 702
497 3 2 2 2 776 829 806 730
498 3 2 2 2 717 687 724 765
499 3 2 2 2 844 869 897 876
500 3 2 2 2 632 593 656 676
501 3 2 2 2 673 655 717 742
502 3 2 2 2 719 689 728 771
503 3 2 2 2 799 850 870 830
504 3 2 2 2 627 709 667 588
505 3 2 2 2 746 650 703 730
506 3 2 2 2 730 703 710 776
507 3 2 2 2 625 587 712 654
508 3 2 2 2 891 897 869 886
509 3 2 2 2 692 606 669 741
510 3 2 2 2 629 590 655 673
511 3 2 2 2 621 652 670 583
512 3 2 2 2 889 867 853 819
513 3 2 2 2 739 745 779 793
514 3 2 2 2 718 735 674 648
515 3 2 2 2 743 800 757 686
516 3 2 2 2 733 693 755 783
517 3 2 2 2 868 853 867 878
518 3 2 2 2 842 797 763 822
519 3 2 2 2 870 850 883 895
520 3 2 2 2 791 769 813 826
521 3 2 2 2 792 781 725 797
522 3 2 2 2 619 703 650 608
523 3 2 2 2 791 826 873 849
524 3 2 2 2 737 799 830 775
525 3 2 2 2 606 692 716 672
526 3 2 2 2 670 710 703 619
527 3 2 2 2 873 886 869 849
528 3 2 2 2 626 565 659 701
529 3 2 2 2 846 834 768 815
530 3 2 2 2 852 816 863 871
531 3 2 2 2 608 650 706 664
532 3 2 2 2 634 714 677 573
533 3 2 2 2 615 567 607 663
534 3 2 2 2 608 561 580 619
535 3 2 2 2 655 602 687 717
536 3 2 2 2 656 604 689 719
537 3 2 2 2 790 828 854 818
538 3 2 2 2 458 516 576 515
539 3 2 2 2 616 576 516 517
540 3 2 2 2 686 757 805 744
541 3 2 2 2 457 497 578 496
542 3 2 2 2 615 568 493 494
543 3 2 2 2 615 494 495 567
544 3 2 2 2 496 578 567 495
545 3 2 2 2 617 581 498 499
546 3 2 2 2 606 559 589 669
547 3 2 2 2 568 615 663 605
548 3 2 2 2 497 498 581 578
549 3 2 2 2 578 581 607 567
550 3 2 2 2 857 832 853 868
551 3 2 2 2 687 738 766 724
552 3 2 2 2 617 499 500 561
553 3 2 2 2 601 686 744 652
554 3 2 2 2 454 478 582 460
555 3 2 2 2 623 582 478 479
556 3 2 2 2 561 608 664 617
557 3 2 2 2 664 607 581 617
558 3 2 2 2 616 517 518 569
559 3 2 2 2 614 569 518 519
560 3 2 2 2 622 584 476 475
561 3 2 2 2 456 477 585 533
562 3 2 2 2 514 515 576 618
563 3 2 2 2 706 663 607 664
564 3 2 2 2 764 740 719 771
565 3 2 2 2 583 670 619 580
566 3 2 2 2 705 605 663 706
567 3 2 2 2 671 668 623 594
568 3 2 2 2 667 743 686 601
569 3 2 2 2 882 854 866 881
570 3 2 2 2 493 568 579 492
571 3 2 2 2 476 584 585 477
572 3 2 2 2 665 737 775 709
573 3 2 2 2 568 605 662 579
574 3 2 2 2 830 800 743 775
575 3 2 2 2 680 691 747 649
576 3 2 2 2 492 579 620 491
577 3 2 2 2 557 665 709 627
578 3 2 2 2 461 460 582 577
579 3 2 2 2 652 621 555 601
580 3 2 2 2 500 501 580 561
581 3 2 2 2 832 792 819 853
582 3 2 2 2 605 705 736 662
583 3 2 2 2 532 533 585 570
584 3 2 2 2 701 648 560 626
585 3 2 2 2 621 583 502 503
586 3 2 2 2 828 766 808 827
587 3 2 2 2 638 463 462 571
588 3 2 2 2 870 851 800 830
589 3 2 2 2 895 884 851 870
590 3 2 2 2 704 620 579 662
591 3 2 2 2 513 514 618 586
592 3 2 2 2 557 591 603 665
593 3 2 2 2 675 695 748 715
594 3 2 2 2 610 570 585 584
595 3 2 2 2 590 556 602 655
596 3 2 2 2 739 653 708 745
597 3 2 2 2 780 728 689 742
598 3 2 2 2 531 592 624 530
599 3 2 2 2 772 704 662 736
600 3 2 2 2 773 741 669 707
601 3 2 2 2 501 502 583 580
602 3 2 2 2 871 863 896 885
603 3 2 2 2 738 654 712 778
604 3 2 2 2 593 558 604 656
605 3 2 2 2 462 461 577 571
606 3 2 2 2 881 890 902 882
607 3 2 2 2 654 602 556 625
608 3 2 2 2 621 503 504 555
609 3 2 2 2 620 704 651 554
610 3 2 2 2 512 565 626 511
611 3 2 2 2 804 772 736 777
612 3 2 2 2 852 805 757 816
613 3 2 2 2 777 736 705 746
614 3 2 2 2 490 491 620 554
615 3 2 2 2 672 610 584 622
616 3 2 2 2 799 737 688 762
617 3 2 2 2 708 624 592 666
618 3 2 2 2 625 488 489 587
619 3 2 2 2 512 513 586 565
620 3 2 2 2 852 829 776 805
621 3 2 2 2 833 729 772 804
622 3 2 2 2 627 588 505 506
623 3 2 2 2 532 570 592 531
624 3 2 2 2 840 821 806 829
625 3 2 2 2 716 666 610 672
626 3 2 2 2 559 606 672 622
627 3 2 2 2 712 587 554 651
628 3 2 2 2 666 592 570 610
629 3 2 2 2 871 840 829 852
630 3 2 2 2 821 804 777 806
631 3 2 2 2 810 773 727 760
632 3 2 2 2 624 708 653 562
633 3 2 2 2 582 623 668 577
634 3 2 2 2 673 604 558 629
635 3 2 2 2 885 872 840 871
636 3 2 2 2 765 807 843 831
637 3 2 2 2 902 893 864 882
638 3 2 2 2 588 667 601 555
639 3 2 2 2 882 864 818 854
640 3 2 2 2 900 896 863 884
641 3 2 2 2 857 814 770 832
642 3 2 2 2 631 711 645 564
643 3 2 2 2 735 688 603 674
644 3 2 2 2 738 687 602 654
645 3 2 2 2 622 475 474 559
646 3 2 2 2 866 827 855 872
647 3 2 2 2 625 556 487 488
648 3 2 2 2 623 479 480 594
649 3 2 2 2 828 790 724 766
650 3 2 2 2 627 506 507 557
651 3 2 2 2 883 850 817 876
652 3 2 2 2 872 855 821 840
653 3 2 2 2 762 688 735 802
654 3 2 2 2 850 799 762 817
655 3 2 2 2 745 708 666 716
656 3 2 2 2 653 739 774 711
657 3 2 2 2 629 485 486 590
658 3 2 2 2 704 772 729 651
659 3 2 2 2 737 665 603 688
660 3 2 2 2 630 591 508 509
661 3 2 2 2 906 907 902 890
662 3 2 2 2 631 528 529 562
663 3 2 2 2 718 758 802 735
664 3 2 2 2 779 745 716 692
665 3 2 2 2 529 530 624 562
666 3 2 2 2 778 712 651 729
667 3 2 2 2 641 637 468 574
668 3 2 2 2 604 673 742 689
669 3 2 2 2 629 558 484 485
670 3 2 2 2 865 873 826 856
671 3 2 2 2 633 589 473 472
672 3 2 2 2 881 866 872 885
673 3 2 2 2 823 859 543 544
674 3 2 2 2 674 603 591 630
675 3 2 2 2 826 813 837 856
676 3 2 2 2 630 509 510 560
677 3 2 2 2 489 490 554 587
678 3 2 2 2 841 838 814 857
679 3 2 2 2 740 713 611 676
680 3 2 2 2 632 482 483 593
681 3 2 2 2 890 881 885 896
682 3 2 2 2 874 865 856 841
683 3 2 2 2 851 816 757 800
684 3 2 2 2 795 831 875 860
685 3 2 2 2 505 588 555 504
686 3 2 2 2 887 843 818 864
687 3 2 2 2 906 890 896 900
688 3 2 2 2 711 631 562 653
689 3 2 2 2 856 837 838 841
690 3 2 2 2 879 888 880 894
691 3 2 2 2 809 759 726 774
692 3 2 2 2 510 511 626 560
693 3 2 2 2 765 831 795 780
694 3 2 2 2 809 858 824 759
695 3 2 2 2 632 566 481 482
696 3 2 2 2 707 633 563 646
697 3 2 2 2 671 594 566 611
698 3 2 2 2 844 876 817 877
699 3 2 2 2 834 782 732 768
700 3 2 2 2 634 526 527 564
701 3 2 2 2 631 564 527 528
702 3 2 2 2 711 774 726 645
703 3 2 2 2 773 707 646 727
704 3 2 2 2 698 695 675 678
705 3 2 2 2 635 563 471 470
706 3 2 2 2 633 472 471 563
707 3 2 2 2 780 795 771 728
708 3 2 2 2 722 754 761 785
709 3 2 2 2 714 694 679 677
710 3 2 2 2 771 795 860 862
711 3 2 2 2 831 843 889 875
712 3 2 2 2 714 749 787 694
713 3 2 2 2 823 801 803 824
714 3 2 2 2 848 835 794 810
715 3 2 2 2 486 487 556 590
716 3 2 2 2 858 809 793 835
717 3 2 2 2 835 793 779 794
718 3 2 2 2 715 635 572 675
719 3 2 2 2 508 591 557 507
720 3 2 2 2 752 786 546 547
721 3 2 2 2 676 611 566 632
722 3 2 2 2 473 589 559 474
723 3 2 2 2 715 646 563 635
724 3 2 2 2 784 720 649 747
725 3 2 2 2 801 786 787 803
726 3 2 2 2 714 634 564 645
727 3 2 2 2 636 524 525 573
728 3 2 2 2 634 573 525 526
729 3 2 2 2 637 572 469 468
730 3 2 2 2 635 470 469 572
731 3 2 2 2 671 611 713 697
732 3 2 2 2 846 877 817 861
733 3 2 2 2 792 756 721 781
734 3 2 2 2 577 668 628 571
735 3 2 2 2 484 558 593 483
736 3 2 2 2 481 566 594 480
737 3 2 2 2 887 864 893 898
738 3 2 2 2 695 767 811 748
739 3 2 2 2 726 803 787 749
740 3 2 2 2 746 705 706 650
741 3 2 2 2 640 575 524 636
742 3 2 2 2 678 675 572 637
743 3 2 2 2 726 759 824 803
744 3 2 2 2 750 683 612 720
745 3 2 2 2 786 752 694 787
746 3 2 2 2 636 679 699 640
747 3 2 2 2 637 641 698 678
748 3 2 2 2 698 751 767 695
749 3 2 2 2 900 884 895 904
750 3 2 2 2 893 902 907 905
751 3 2 2 2 888 879 873 865
752 3 2 2 2 822 860 875 842
753 3 2 2 2 894 905 907 901
754 3 2 2 2 897 891 901 903
755 3 2 2 2 697 628 668 671
756 3 2 2 2 612 683 537 536
757 3 2 2 2 693 548 547 755
758 3 2 2 2 721 756 540 539
759 3 2 2 2 879 894 901 891
760 3 2 2 2 815 768 753 785
761 3 2 2 2 723 754 722 682
762 3 2 2 2 794 779 692 741
763 3 2 2 2 521 522 575 597
764 3 2 2 2 465 598 574 466
765 3 2 2 2 868 874 841 857
766 3 2 2 2 836 815 785 761
767 3 2 2 2 820 812 733 783
768 3 2 2 2 898 899 880 878
769 3 2 2 2 878 880 874 868
770 3 2 2 2 682 550 549 723
771 3 2 2 2 740 764 731 713
772 3 2 2 2 640 642 597 575
773 3 2 2 2 641 574 598 643
774 3 2 2 2 768 732 690 753
775 3 2 2 2 691 697 713 731
776 3 2 2 2 883 892 904 895
777 3 2 2 2 796 789 731 764
778 3 2 2 2 796 862 860 822
779 3 2 2 2 690 658 614 681
780 3 2 2 2 796 784 747 789
781 3 2 2 2 770 814 542 541
782 3 2 2 2 769 546 545 813
783 3 2 2 2 810 760 825 848
784 3 2 2 2 720 784 763 750
785 3 2 2 2 760 811 798 825
786 3 2 2 2 681 647 753 690
787 3 2 2 2 797 725 750 763
788 3 2 2 2 463 595 534 455
789 3 2 2 2 683 750 725 700
790 3 2 2 2 823 824 858 845
791 3 2 2 2 781 721 700 725
792 3 2 2 2 811 767 751 788
793 3 2 2 2 720 612 639 649
794 3 2 2 2 785 753 647 722
795 3 2 2 2 813 545 544 837
796 3 2 2 2 814 838 543 542
797 3 2 2 2 681 644 613 647
798 3 2 2 2 649 639 595 680
799 3 2 2 2 878 867 887 898
800 3 2 2 2 463 638 680 595
801 3 2 2 2 685 643 536 537
802 3 2 2 2 597 642 550 551
803 3 2 2 2 642 640 699 684
804 3 2 2 2 643 685 698 641
805 3 2 2 2 698 685 537 538
806 3 2 2 2 642 684 549 550
807 3 2 2 2 811 788 839 798
808 3 2 2 2 647 613 682 722
809 3 2 2 2 644 552 551 613
810 3 2 2 2 613 551 550 682
811 3 2 2 2 873 879 891 886
812 3 2 2 2 596 553 552 644
813 3 2 2 2 839 788 540 541
814 3 2 2 2 847 839 541 542
815 3 2 2 2 723 549 548 693
816 3 2 2 2 639 612 536 535
817 3 2 2 2 700 721 539 538
818 3 2 2 2 812 761 754 733
819 3 2 2 2 880 888 865 874
820 3 2 2 2 904 892 897 903
821 3 2 2 2 754 723 693 733
822 3 2 2 2 819 842 875 889
823 3 2 2 2 907 906 903 901
824 3 2 2 2 897 892 883 876
825 3 2 2 2 614 596 644 681
826 3 2 2 2 595 639 535 534
827 3 2 2 2 905 899 898 893
828 3 2 2 2 843 887 867 889
829 3 2 2 2 903 906 900 904
830 3 2 2 2 825 847 845 848
831 3 2 2 2 835 848 845 858
$EndElements
