$MeshFormat
2.2 0 8
$EndMeshFormat
$Nodes
50
1 -20 -10 0
2 0 -10 0
3 0 10 0
4 -20 10 0
5 -15 -10 0
6 -10 -10 0
7 -5 -10 0
8 0 -5 0
9 0 0 0
10 0 5 0
11 -5 10 0
12 -10 10 0
13 -15 10 0
14 -20 5 0
15 -20 0 0
16 -20 -5 0
17 -9.94925078034823 -4.92185449716187 0
18 -4.93656577330877 5.10333152634063 0
19 -14.9570677848385 5.0494852669032 0
20 -14.9673107864449 -4.96437372577171 0
21 -4.9633185300249 -4.92703722144405 0
22 -9.93890618594484 5.08688206431951 0
23 -4.94516394903173 0.0956796150846046 0
24 -14.9532184681721 0.0529100289558881 0
25 -9.9375370065832 0.0870910854856382 0
26 0 -10 0
27 0 10 0
28 20 -10 0
29 20 10 0
30 0 -5 0
31 0 0 0
32 0 5 0
33 5 -10 0
34 10 -10 0
35 15 -10 0
36 20 -5 0
37 20 0 0
38 20 5 0
39 15 10 0
40 10 10 0
41 5 10 0
42 5 -5 0
43 5 5 0
44 15 -5 0
45 15 5 0
46 5 1.40499235296601E-18 0
47 10 -5 0
48 15 2.16840434497101E-19 0
49 10 5 0
50 10 2.16840434497101E-19 0
$EndNodes
$Elements
32
1 3 2 1 1 18 22 25 23
2 3 2 1 1 1 5 20 16
3 3 2 1 1 5 6 17 20
4 3 2 1 1 7 21 17 6
5 3 2 1 1 2 8 21 7
6 3 2 1 1 23 21 8 9
7 3 2 1 1 4 14 19 13
8 3 2 1 1 16 20 24 15
9 3 2 1 1 25 24 20 17
10 3 2 1 1 25 22 19 24
11 3 2 1 1 10 3 11 18
12 3 2 1 1 18 11 12 22
13 3 2 1 1 19 22 12 13
14 3 2 1 1 15 24 19 14
15 3 2 1 1 23 25 17 21
16 3 2 1 1 9 10 18 23
17 3 2 2 2 42 47 50 46
18 3 2 2 2 44 48 50 47
19 3 2 2 2 26 33 42 30
20 3 2 2 2 30 42 46 31
21 3 2 2 2 27 32 43 41
22 3 2 2 2 35 44 47 34
23 3 2 2 2 28 36 44 35
24 3 2 2 2 38 45 48 37
25 3 2 2 2 29 39 45 38
26 3 2 2 2 41 43 49 40
27 3 2 2 2 43 32 31 46
28 3 2 2 2 42 33 34 47
29 3 2 2 2 44 36 37 48
30 3 2 2 2 45 39 40 49
31 3 2 2 2 49 43 46 50
32 3 2 2 2 48 45 49 50
$EndElements
