$MeshFormat
2.2 0 8
$EndMeshFormat
$Nodes
895
1 -200 -100 0
2 0 -100 0
3 0 -50 0
4 0 100 0
5 -200 100 0
6 -190 -100 0
7 -180 -100 0
8 -170 -100 0
9 -160 -100 0
10 -150 -100 0
11 -140 -100 0
12 -130 -100 0
13 -120 -100 0
14 -110 -100 0
15 -100 -100 0
16 -90 -100 0
17 -80 -100 0
18 -70 -100 0
19 -60 -100 0
20 -50 -100 0
21 -40 -100 0
22 -30 -100 0
23 -20 -100 0
24 -10 -100 0
25 0 -90 0
26 0 -80 0
27 0 -70 0
28 0 -60 0
29 0 -40 0
30 0 -30 0
31 0 -20 0
32 0 -10 0
33 0 0 0
34 0 10 0
35 0 20 0
36 0 30 0
37 0 40 0
38 0 50 0
39 0 60 0
40 0 70 0
41 0 80 0
42 0 90 0
43 -10 100 0
44 -20 100 0
45 -30 100 0
46 -40 100 0
47 -50 100 0
48 -60 100 0
49 -70 100 0
50 -80 100 0
51 -90 100 0
52 -100 100 0
53 -110 100 0
54 -120 100 0
55 -130 100 0
56 -140 100 0
57 -150 100 0
58 -160 100 0
59 -170 100 0
60 -180 100 0
61 -190 100 0
62 -200 90 0
63 -200 80 0
64 -200 70 0
65 -200 60 0
66 -200 50 0
67 -200 40 0
68 -200 30 0
69 -200 20 0
70 -200 10 0
71 -200 0 0
72 -200 -10 0
73 -200 -20 0
74 -200 -30 0
75 -200 -40 0
76 -200 -50 0
77 -200 -60 0
78 -200 -70 0
79 -200 -80 0
80 -200 -90 0
81 -100 -90 0
82 -10 -4.77048955893622E-17 0
83 -110 90 0
84 -190 -20 0
85 -190 40 0
86 -140 -90 0
87 -60 -90 0
88 -70 90 0
89 -10 50 0
90 -10 -60 0
91 -150 90 0
92 -190 -50 0
93 -40 90 0
94 -160 -90 0
95 -190 70 0
96 -20 -90 0
97 -190 -70 0
98 -10 70 0
99 -180 90 0
100 -190 20 0
101 -10 -40 0
102 -10 20 0
103 -180 -90 0
104 -10 90 0
105 -170 90 0
106 -30 -90 0
107 -80 -90 0
108 -190 -80 0
109 -130 90 0
110 -190 -1.0991207943789E-14 0
111 -10 -90 0
112 -190 90 0
113 -30 90 0
114 -60 90 0
115 -90 90 0
116 -190 60 0
117 -190 -90 0
118 -120 -90 0
119 -40 -90 0
120 -10 -80 0
121 -10 -30 0
122 -10 -20 0
123 -10 30 0
124 -190 -30 0
125 -180 -20 0
126 -20 20 0
127 -70 80 0
128 -20 -30 0
129 -30 -80 0
130 -180 70 0
131 -40 80 0
132 -180 80 0
133 -190 -60 0
134 -20 -80 0
135 -50 -90 0
136 -190 9.99999999999999 0
137 -10 60 0
138 -80 90 0
139 -190 30 0
140 -170 -90 0
141 -90 -90 0
142 -70 -90 0
143 -10 -70 0
144 -10 40 0
145 -120 90 0
146 -190 80 0
147 -190 50 0
148 -190 -10 0
149 -10 80 0
150 -100 90 0
151 -10 -50 0
152 -150 -90 0
153 -130 -90 0
154 -110 -90 0
155 -10 -10 0
156 -10 10 0
157 -20 90 0
158 -50 90 0
159 -140 90 0
160 -180 -70 0
161 -160 90 0
162 -190 -40 0
163 -180 -80 0
164 -120 80 0
165 -100 -80 0
166 -180 20 0
167 -130 -80 0
168 -70 -80 0
169 -20 50 0
170 -150 -80 0
171 -180 -40 0
172 -170 -70 0
173 -20 -60 0
174 -180 50 0
175 -30 80 0
176 -160 80 0
177 -100 80 0
178 -80 80 0
179 -20 -10 0
180 -20 10 0
181 -50 80 0
182 -20 -70 0
183 -50 -80 0
184 -40 -80 0
185 -180 40 0
186 -180 -50 0
187 -180 -60 0
188 -180 -1.67296732023203E-14 0
189 -20 60 0
190 -20 70 0
191 -20 -40 0
192 -180 60 0
193 -170 70 0
194 -80 -80 0
195 -20 30 0
196 -180 -10 0
197 -20 80 0
198 -150 80 0
199 -110 -80 0
200 -20 -20 0
201 -130 80 0
202 -60 80 0
203 -180 -30 0
204 -170 -80 0
205 -170 80 0
206 -170 -2.27595720048157E-14 0
207 -130 70 0
208 -100 -70 0
209 -30 -30 0
210 -30 10 0
211 -70 70 0
212 -170 -30 0
213 -170 50 0
214 -40 -70 0
215 -50 70 0
216 -30 50 0
217 -170 60 0
218 -160 -70 0
219 -30 -60 0
220 -170 -40 0
221 -90 80 0
222 -180 30 0
223 -110 80 0
224 -160 -80 0
225 -40 70 0
226 -30 60 0
227 -180 9.99999999999998 0
228 -20 -50 0
229 -30 70 0
230 -160 70 0
231 -20 0 0
232 -90 -80 0
233 -20 40 0
234 -140 -80 0
235 -120 -80 0
236 -170 -20 0
237 -30 20 0
238 -140 80 0
239 -60 -80 0
240 -30 -20 0
241 -30 -70 0
242 -170 -50 0
243 -170 -60 0
244 -160 -20 0
245 -40 -30 0
246 -40 10 0
247 -70 -70 0
248 -40 -60 0
249 -130 -70 0
250 -160 -40 0
251 -150 -70 0
252 -110 70 0
253 -150 70 0
254 -30 30 0
255 -90 -70 0
256 -90 70 0
257 -170 40 0
258 -160 60 0
259 -50 60 0
260 -40 50 0
261 -170 20 0
262 -120 70 0
263 -30 -10 0
264 -30 -40 0
265 -30 -50 0
266 -170 9.99999999999998 0
267 -140 70 0
268 -30 4.44089209850063E-16 0
269 -30 40 0
270 -40 60 0
271 -80 70 0
272 -50 -70 0
273 -110 -70 0
274 -170 -10 0
275 -60 70 0
276 -160 -50 0
277 -160 -60 0
278 -160 20 0
279 -100 -60 0
280 -90 60 0
281 -130 60 0
282 -50 50 0
283 -40 -40 0
284 -50 -60 0
285 -150 60 0
286 -150 -40 0
287 -150 -60 0
288 -160 -30 0
289 -140 -70 0
290 -40 -50 0
291 -100 70 0
292 -160 50 0
293 -170 30 0
294 -40 20 0
295 -40 -10 0
296 -40 -20 0
297 -120 60 0
298 -40 30 0
299 -40 40 0
300 -120 -70 0
301 -40 1.77635683940025E-15 0
302 -160 -2.94209101525666E-14 0
303 -80 60 0
304 -80 -70 0
305 -60 -70 0
306 -160 -10 0
307 -60 60 0
308 -150 -3.48521125154155E-14 0
309 -50 3.10862446895044E-15 0
310 -80 50 0
311 -50 -40 0
312 -130 50 0
313 -50 20 0
314 -100 60 0
315 -150 50 0
316 -160 40 0
317 -70 -60 0
318 -120 -60 0
319 -50 40 0
320 -140 -60 0
321 -90 -60 0
322 -110 60 0
323 -160 30 0
324 -50 -50 0
325 -60 -60 0
326 -140 60 0
327 -150 -20 0
328 -50 -20 0
329 -110 -60 0
330 -60 50 0
331 -150 -50 0
332 -160 9.99999999999997 0
333 -70 60 0
334 -150 -30 0
335 -100 -50 0
336 -140 -20 0
337 -150 20 0
338 -150 40 0
339 -110 50 0
340 -90 50 0
341 -60 40 0
342 -150 -10 0
343 -120 50 0
344 -140 50 0
345 -50 -30 0
346 -50 10 0
347 -140 -40 0
348 -50 -10 0
349 -50 30 0
350 -70 -50 0
351 -110 -50 0
352 -140 -50 0
353 -130 -60 0
354 -80 -60 0
355 -150 9.99999999999997 0
356 -70 50 0
357 -60 -50 0
358 -60 3.81183799802454E-15 0
359 -80 40 0
360 -120 40 0
361 -100 -40 0
362 -140 20 0
363 -140 40 0
364 -80 -50 0
365 -130 -40 0
366 -60 -30 0
367 -150 30 0
368 -120 -50 0
369 -90 -50 0
370 -70 -40 0
371 -140 -3.24304385429519E-14 0
372 -60 -40 0
373 -60 20 0
374 -60 -20 0
375 -130 -50 0
376 -100 50 0
377 -140 -30 0
378 -60 30 0
379 -70 40 0
380 -140 -10 0
381 -130 -20 0
382 -120 -40 0
383 -80 -40 0
384 -140 9.99999999999997 0
385 -130 40 0
386 -140 30 0
387 -110 -40 0
388 -70 -30 0
389 -90 -40 0
390 -60 10 0
391 -60 -10 0
392 -100 40 0
393 -90 40 0
394 -110 40 0
395 -70 20 0
396 -80 30 0
397 -70 30 0
398 -130 -30 0
399 -130 -2.57571741713036E-14 0
400 -80 20 0
401 -90 -30 0
402 -120 30 0
403 -70 -10 0
404 -130 20 0
405 -120 -20 0
406 -130 9.99999999999998 0
407 -80 -30 0
408 -70 3.81034002890051E-15 0
409 -70 -20 0
410 -120 -30 0
411 -130 30 0
412 -100 -30 0
413 -100 30 0
414 -130 -10 0
415 -70 10 0
416 -90 30 0
417 -120 -1.87627691161651E-14 0
418 -80 -10 0
419 -80 10 0
420 -110 -20 0
421 -120 20 0
422 -80 -20 0
423 -100 20 0
424 -110 30 0
425 -90 20 0
426 -90 -20 0
427 -110 -30 0
428 -120 -10 0
429 -90 -10 0
430 -110 -1.21291865440298E-14 0
431 -100 -20 0
432 -110 20 0
433 -110 -10 0
434 -80 1.72867185772834E-15 0
435 -100 10 0
436 -120 9.99999999999998 0
437 -90 10 0
438 -100 -5.6621374255883E-15 0
439 -90 -1.60199721614713E-15 0
440 -110 9.99999999999999 0
441 -100 -10 0
442 0 -100 0
443 0 -50 0
444 0 100 0
445 200 -100 0
446 200 100 0
447 150 100 0
448 0 -90 0
449 0 -80 0
450 0 -70 0
451 0 -60 0
452 0 -40 0
453 0 -30 0
454 0 -20 0
455 0 -10 0
456 0 0 0
457 0 10 0
458 0 20 0
459 0 30 0
460 0 40 0
461 0 50 0
462 0 60 0
463 0 70 0
464 0 80 0
465 0 90 0
466 10 -100 0
467 20 -100 0
468 30 -100 0
469 40 -100 0
470 50 -100 0
471 60 -100 0
472 70 -100 0
473 80 -100 0
474 90 -100 0
475 100 -100 0
476 110 -100 0
477 120 -100 0
478 130 -100 0
479 140 -100 0
480 150 -100 0
481 160 -100 0
482 170 -100 0
483 180 -100 0
484 190 -100 0
485 200 -90 0
486 200 -80 0
487 200 -70 0
488 200 -60 0
489 200 -50 0
490 200 -40 0
491 200 -30 0
492 200 -20 0
493 200 -10 0
494 200 0 0
495 200 10 0
496 200 20 0
497 200 30 0
498 200 40 0
499 200 50 0
500 200 60 0
501 200 70 0
502 200 80 0
503 200 90 0
504 190 100 0
505 180 100 0
506 170 100 0
507 160 100 0
508 140 100 0
509 130 100 0
510 120 100 0
511 110 100 0
512 100 100 0
513 90 100 0
514 80 100 0
515 70 100 0
516 60 100 0
517 50 100 0
518 40 100 0
519 30 100 0
520 20 100 0
521 10 100 0
522 7.14285714285715 -42.8571428571428 0
523 14.2857142857143 -35.7142857142857 0
524 21.4285714285715 -28.5714285714285 0
525 28.5714285714286 -21.4285714285714 0
526 35.7142857142858 -14.2857142857142 0
527 42.8571428571429 -7.14285714285708 0
528 50.0000000000001 5.6843418860808E-14 0
529 57.1428571428572 7.1428571428572 0
530 64.2857142857143 14.2857142857143 0
531 71.4285714285715 21.4285714285715 0
532 78.5714285714286 28.5714285714286 0
533 85.7142857142857 35.7142857142857 0
534 92.8571428571429 42.8571428571429 0
535 100 50 0
536 107.142857142857 57.1428571428572 0
537 114.285714285714 64.2857142857143 0
538 121.428571428571 71.4285714285714 0
539 128.571428571429 78.5714285714286 0
540 135.714285714286 85.7142857142857 0
541 142.857142857143 92.8571428571428 0
542 129.999410212368 -89.9943535919481 0
543 189.992794686868 -20.0082524818684 0
544 99.9988996847866 -89.983555172936 0
545 189.991018952261 9.99129096753202 0
546 70.0009039305131 -89.986624860986 0
547 10.0078445955333 60.0023096629593 0
548 189.998200380873 40.0032838792873 0
549 189.998167995 -60.0017928203839 0
550 50.0400544200417 89.9307622331969 0
551 10.003286105242 29.9987917226784 0
552 70.3502781370736 89.6254203317175 0
553 190.003092808905 60.0594450951052 0
554 39.9112047504254 -89.8956993404861 0
555 179.999680930624 -89.9997223020053 0
556 159.998846244872 -89.9987012833686 0
557 169.921333992227 90.0766581639788 0
558 20.0027973646764 89.9979896339227 0
559 10.2823555986092 -70.4273570310435 0
560 10.1596268720837 10.2291003245147 0
561 89.5552333741658 89.5952515603448 0
562 6.75535666950231 -13.59436133359 0
563 113.031189183231 92.6858377549141 0
564 190.004909432424 90.0360092125963 0
565 9.96187599139698 -89.9830100850634 0
566 189.999854252817 -89.9999118720187 0
567 149.998197520321 -89.9976927923817 0
568 189.996946815854 -50.0037912860485 0
569 189.999527288404 -80.0000318188814 0
570 189.995437885838 -40.0060500918877 0
571 10.0030221077852 79.9991415737025 0
572 10.0014173177963 89.9993048116522 0
573 190.005784307726 70.0751843726713 0
574 120.001562134183 -89.9905924433118 0
575 189.991378874433 -10.0083533475588 0
576 10.0113565527457 50.0046588030051 0
577 89.9915119316381 -89.9862796692511 0
578 189.992208276671 19.9882752871537 0
579 30.0046817425011 89.9938254525275 0
580 59.9938981178525 -89.9558131264043 0
581 29.8869342057209 -89.9026438827197 0
582 12.1178631545269 -48.9233030369594 0
583 147.184028414174 88.3355858622217 0
584 122.058810845004 89.7393404406713 0
585 8.83161638630594 -24.1257947465355 0
586 132.991148994402 91.3709539040524 0
587 9.04566106646176 -33.7037111897343 0
588 179.982675381672 -20.0192334825511 0
589 99.937869518634 -79.898138682009 0
590 179.989891434545 19.9454724990594 0
591 69.9947534637273 -80.025704417713 0
592 159.996586838146 -79.9979856201087 0
593 20.0190222306468 59.9927847526798 0
594 179.998821471972 -79.9999359982985 0
595 179.995305142765 -60.0044284196207 0
596 180.004081098695 70.1374665151515 0
597 20.0063536407859 79.9956110545616 0
598 39.7979703532251 -79.6286735844918 0
599 28.0241782364349 -33.8428074634836 0
600 136.197851194819 74.8714053164282 0
601 157.063015810451 88.6172984412602 0
602 169.999201813885 -89.9993800400349 0
603 180.005885735502 90.0784223385052 0
604 189.998827398518 -70.0007351828352 0
605 190.006779296728 80.062574073672 0
606 9.96348905817069 -80.0405445658503 0
607 179.992334455046 -50.0093772654697 0
608 139.998321645246 -89.9961837066958 0
609 189.993778654083 -30.0078541021738 0
610 19.9132395181494 -89.9463074604757 0
611 10.0054468545346 69.9991930695486 0
612 40.0124614616113 89.9757209352019 0
613 109.997947569448 -89.9817792047977 0
614 189.999658727537 50.0274040799765 0
615 189.990571326763 -0.00866949575157627 0
616 79.9891629578982 -89.9943667552695 0
617 189.994988874899 29.9863544649929 0
618 60.1497716188403 89.7903740790127 0
619 49.9589600671357 -89.9057517408606 0
620 10.0117490159613 40.0039555257889 0
621 80.3376125881822 89.6616441879203 0
622 10.0050981227595 20.0148412284776 0
623 98.5227597078466 87.1717705689529 0
624 12.0472284523183 0.669975554173113 0
625 13.0086196029824 -61.465913821967 0
626 20.4175226777618 -40.965778004266 0
627 107.674844819572 82.8763548891999 0
628 15.4664325635107 -9.16605498797977 0
629 115.53595621516 77.9876716038185 0
630 17.9817868247179 -18.9886972136437 0
631 142.706879303089 82.1827318945638 0
632 70.6764971964868 78.7611307494707 0
633 19.9903167665132 29.9262119716584 0
634 142.824153803613 69.5280162409138 0
635 180.000564586021 39.8976917779915 0
636 19.7868829025691 -70.182363140586 0
637 27.5638889815887 -45.3553967863055 0
638 169.991421246136 -60.0066119356749 0
639 130.00258755782 -79.9844777016289 0
640 179.985496269615 -30.0179712422764 0
641 50.0758162410034 79.783754552753 0
642 109.985915907086 -79.9310332092739 0
643 89.8537568315872 -79.9114383393329 0
644 60.0842584157833 -79.8871797817209 0
645 162.452139177846 79.8400971542848 0
646 19.827648230728 -79.9358546438811 0
647 179.983420409382 60.0390588499968 0
648 170.048541816455 80.0654197653836 0
649 180.007616224661 80.1059661656789 0
650 29.7178451824583 -79.715362091807 0
651 149.996028945203 -79.9955152665282 0
652 169.997650534694 -79.9994593528386 0
653 179.997139101046 -70.0015098080274 0
654 179.98384278298 9.96939523997437 0
655 30.011426465563 79.9821123340502 0
656 179.979758703055 -10.0190942788156 0
657 20.0275329239647 49.9845625627016 0
658 179.98873243417 -40.0144925855341 0
659 20.01201674586 69.992310300735 0
660 79.854985042128 -80.0083225514245 0
661 179.998438290455 29.899702519293 0
662 19.8609838538061 9.94501745467577 0
663 50.010817325796 -79.6977787038224 0
664 89.2184298654078 81.8590919897933 0
665 19.5428375846556 2.47713577076319 0
666 94.8926998990727 77.2964674066254 0
667 19.518131087481 -53.061661949778 0
668 149.81690899338 77.4810966103398 0
669 128.874500692002 67.302842053397 0
670 35.5323848582056 -26.8705381059434 0
671 111.534135602277 70.6670465777056 0
672 24.832812916193 -15.7527944478834 0
673 169.967760312222 -20.0352413588788 0
674 99.7710568368764 -69.5424433849459 0
675 169.997571406644 19.8871544948799 0
676 70.0642843654333 -70.4667134641961 0
677 158.16624190827 70.0513310658377 0
678 39.7763418398082 -69.0385501382974 0
679 30.0449483154519 59.9404914823146 0
680 114.859300854282 52.8347472851163 0
681 89.6080836266703 69.0470524745592 0
682 29.0364947856562 9.19803832250052 0
683 169.873235404197 59.6326959823109 0
684 27.4931903037846 -56.6836613565207 0
685 27.3725028367093 -4.45212323853473 0
686 103.506345707587 69.7007224630884 0
687 42.4302931109864 -20.0477275758994 0
688 29.3972704226295 -69.3493510356324 0
689 179.991650240306 49.9005996798944 0
690 169.902853396326 69.9203536559053 0
691 169.986423592936 -50.0145968132685 0
692 139.998466642913 -79.9911811861035 0
693 159.993135742137 -69.9997435382514 0
694 169.994928175447 -70.0016922789231 0
695 20.0258258303921 39.9562205323564 0
696 40.0282045850398 79.9266734851385 0
697 179.979658942862 -0.0207188969330617 0
698 169.980532373537 -40.0228574977615 0
699 60.2985563897631 79.279291270157 0
700 120.003413623093 -79.9644115214365 0
701 81.9613113146541 77.4990971793482 0
702 19.8774441726554 19.8593562908642 0
703 30.0262203066895 69.9596701350154 0
704 89.338466535188 -69.4731568714627 0
705 170.069683973356 39.4952342587484 0
706 60.7021504948133 -69.8424675869571 0
707 35.6306856362641 -38.2205517742866 0
708 19.8994469547165 -63.2099000878961 0
709 49.0678619179801 -13.5200047160727 0
710 135.208984960187 61.8813163238135 0
711 121.666947912064 59.9453919434345 0
712 99.9704707975074 -59.1579598163919 0
713 50.2255618339968 -25.8007828424393 0
714 70.9830740269616 66.1729499538478 0
715 29.9812674791412 29.5926228878724 0
716 70.4189461683951 -63.5358087664217 0
717 130.01389010924 -69.9689969244913 0
718 159.983117239639 -50.0142719128015 0
719 40.6557123491087 -58.8526140454604 0
720 160.033289709285 57.8128576166994 0
721 121.851641419908 47.9905195648915 0
722 35.7324549417722 -49.0076468701765 0
723 170.06037568926 49.3283651131423 0
724 170.048626892112 29.6874779706003 0
725 149.99445743381 -69.9950412356007 0
726 50.5395324726319 -69.3072681272364 0
727 169.952598162667 9.96577800428361 0
728 109.977346784446 -69.801122201713 0
729 50.0680499816634 69.6251498982987 0
730 30.0624607506064 49.884746815429 0
731 79.3135028093835 -70.1687105769943 0
732 169.958478830832 -10.0374010388882 0
733 169.973953202186 -30.030104985952 0
734 40.0522408727697 69.8584718177519 0
735 159.989246798429 -60.004900572229 0
736 29.5430890418904 19.3094452670396 0
737 79.1047330019192 68.4320656015851 0
738 43.2338257905596 -31.395182600284 0
739 38.6426790685195 1.94141323223289 0
740 95.2917840625718 60.2110631812812 0
741 147.873281287307 61.8776088819964 0
742 128.078336972865 54.8016525143706 0
743 56.1768587324873 -7.0145150621571 0
744 107.827695978947 45.3769880314451 0
745 159.950419692608 -20.0742848080047 0
746 160.268472254805 38.6811680229673 0
747 66.4528405800198 58.616432502978 0
748 39.781671324186 29.2183466876583 0
749 133.561730068017 48.5962929618597 0
750 159.868109851073 20.0314394055052 0
751 51.3633015177805 -35.3343443810526 0
752 51.3833289319195 -58.9049740855485 0
753 88.1971673650617 -56.7737328812806 0
754 110.056263878683 -59.6979903141361 0
755 35.5563296142156 9.02472020825225 0
756 151.383283941618 53.2049152592424 0
757 63.3262576792676 -58.7496265092149 0
758 100.506376789071 37.9346685524371 0
759 63.501358753616 0.351635241530558 0
760 140.002676553077 -69.9852362426201 0
761 30.0302795613847 39.7677978763565 0
762 59.9950458752725 68.8445175905522 0
763 169.942748280296 -0.0315323140932972 0
764 159.975235256086 -40.0267564427258 0
765 149.994024373702 -59.9972611672552 0
766 120.01684281069 -69.9149136993074 0
767 40.0982429941801 59.7893582830137 0
768 77.1168588330465 -60.9340359538242 0
769 53.4042325056718 -18.4940302341313 0
770 160.547994897159 47.9805713414791 0
771 115.461891658848 40.3109437146098 0
772 43.5966712591636 -42.1862287379387 0
773 140.052294593721 54.7279806237839 0
774 88.3830007697897 52.736548195901 0
775 83.3161020409514 61.8818566827983 0
776 45.6104569920699 8.39625599626246 0
777 42.1656348453705 -51.8196485152524 0
778 100.437648896846 -49.2201421788789 0
779 107.926526811304 32.1847408250015 0
780 61.8654469735663 -16.75309767722 0
781 50.0764790611895 59.5239215935258 0
782 40.1179328467693 49.646856020329 0
783 72.597137376676 -52.6671977617325 0
784 52.2700955325886 -46.6408762766026 0
785 57.5476857884229 -27.7178278295946 0
786 47.7008217344477 20.8181081338303 0
787 159.662170773756 10.0147139361832 0
788 159.918181504952 -10.1120075196855 0
789 81.0086605042466 45.8266087427872 0
790 160.159805877903 29.4653043165546 0
791 76.4282726651696 55.7138819575321 0
792 140.010669354181 -59.9812123509267 0
793 159.964460579484 -30.0478541402935 0
794 149.992085061919 -50.0038123983979 0
795 93.0436427743295 -48.5070772699389 0
796 120.056706364597 -59.878389629696 0
797 59.5390190427445 59.118497587042 0
798 39.9968256306104 39.4259669077778 0
799 39.8188470370699 17.3037846228873 0
800 126.919535639933 44.309059576583 0
801 92.8086067799137 30.5338129203818 0
802 70.6272856110339 8.23678432362537 0
803 143.934517832844 46.5721663808284 0
804 149.970458151436 -20.1691740851921 0
805 147.707679857464 21.4845323766559 0
806 100.658783932966 -39.4245495923705 0
807 71.4720836611517 -23.5432020602935 0
808 125.137395385778 35.3130916072361 0
809 140.019580256299 -49.9827377884221 0
810 59.3844736227875 -39.7249457589878 0
811 71.3448602034586 38.1793943069438 0
812 68.5484813905006 51.1300331564055 0
813 48.9594887288625 28.3904722665212 0
814 99.4510705130656 24.2463337967588 0
815 120.125246296587 -49.8738634881509 0
816 110.223476222914 -49.6603963929691 0
817 80.5134214068198 -46.703364940777 0
818 149.986970722961 -40.0235385946562 0
819 159.809912454634 -0.129118817129534 0
820 70.0016527267441 -7.0335058427957 0
821 130.036663376305 -59.9462370903102 0
822 153.720176237949 46.6797612802366 0
823 50.1023141741901 49.3492965477802 0
824 136.143471658207 40.3156848988715 0
825 61.0104724085229 -50.2258187105493 0
826 85.1421257992483 23.2165947363616 0
827 77.7562359913493 15.8127364625604 0
828 51.9910389935559 15.3689101344563 0
829 140.033878919381 -40.0114230398671 0
830 83.6149531057837 9.4404489178389 0
831 65.6100785299269 -32.2579157805267 0
832 89.3094843907647 -38.9196641186371 0
833 130.883045761735 24.9728966680896 0
834 59.8973283718118 38.4548391036856 0
835 148.336130000692 37.2613921315221 0
836 59.0143973617522 25.139185169611 0
837 49.8171861885512 38.7664974726358 0
838 115.037114888614 25.6881812557112 0
839 148.994559380154 9.42567035731287 0
840 149.935442343668 -10.3424506426665 0
841 149.98436907136 -30.0784490069195 0
842 76.9618858294441 -14.5122119120428 0
843 110.461693527117 -39.7938187696375 0
844 130.069356396679 -49.9433808594935 0
845 91.1210698617124 16.7108157024096 0
846 76.7408405725099 1.3537946194201 0
847 59.6153285388874 49.2918727519912 0
848 67.4807668862043 27.9186836890432 0
849 66.4472284506717 -45.5250150719948 0
850 152.598192235409 29.5547138583192 0
851 140.144851638357 -20.3209741763465 0
852 101.482320754565 -29.6025726903657 0
853 95.8020084847613 9.49131158843034 0
854 120.280225976774 -39.9334456674373 0
855 84.3187592702274 -21.6213320923353 0
856 82.6995709995201 -5.84618601317041 0
857 120.907028922174 18.4843842242021 0
858 149.685588357217 -0.592990713125223 0
859 140.08609034058 -30.1199191756432 0
860 130.141718055851 -39.9929153611529 0
861 106.049935502062 15.7154823778961 0
862 88.7661568306942 2.2602860535757 0
863 73.2944317767253 -38.7549653077837 0
864 135.645805389121 15.9497511001128 0
865 140.367645514632 31.2519832546381 0
866 88.7436815427596 -12.8517530838013 0
867 105.189269993632 5.1164053647923 0
868 93.7710279941279 -4.60304739805377 0
869 120.597405084398 -30.1929288116888 0
870 111.062358054988 -30.1449006763962 0
871 138.877835786345 7.30236613633348 0
872 140.242338825721 -10.7152442218664 0
873 130.307863580302 -30.1717621339202 0
874 114.082167683539 13.5706393883197 0
875 92.5246916988523 -26.9548714491584 0
876 98.703231383158 3.84056405688372 0
877 79.4505645970882 -30.5493839002067 0
878 121.173719151582 -20.7001864140612 0
879 114.132623456843 6.59797726051786 0
880 132.028633422315 4.72172618421244 0
881 103.162125197979 -20.3893438981971 0
882 104.7086776154 -3.54871564583696 0
883 140.140624258696 -1.51398852034395 0
884 130.596564137621 -20.5262161613224 0
885 125.256147560253 8.69384644079574 0
886 95.5289250064748 -17.9083753969705 0
887 98.0671721624547 -11.8959422467369 0
888 130.967297142155 -11.0772966632589 0
889 113.744834256676 -2.58440389595607 0
890 111.999744972292 -20.8012548364165 0
891 122.817787147637 -2.09521071508904 0
892 131.46237994755 -2.09738914586588 0
893 104.327478263016 -11.8487150091952 0
894 121.926014065031 -11.41849218563 0
895 112.955298999367 -11.6986289870711 0
$EndNodes
$Elements
817
1 3 2 1 1 385 411 402 360
2 3 2 1 1 432 421 436 440
3 3 2 1 1 402 411 404 421
4 3 2 1 1 384 406 404 362
5 3 2 1 1 420 431 441 433
6 3 2 1 1 265 264 283 290
7 3 2 1 1 106 119 21 22
8 3 2 1 1 438 441 429 439
9 3 2 1 1 105 161 58 59
10 3 2 1 1 112 146 132 99
11 3 2 1 1 283 311 324 290
12 3 2 1 1 133 97 160 187
13 3 2 1 1 134 120 143 182
14 3 2 1 1 134 129 106 96
15 3 2 1 1 132 130 193 205
16 3 2 1 1 284 325 305 272
17 3 2 1 1 435 440 430 438
18 3 2 1 1 92 133 187 186
19 3 2 1 1 171 186 242 220
20 3 2 1 1 161 105 205 176
21 3 2 1 1 87 239 168 142
22 3 2 1 1 338 316 323 367
23 3 2 1 1 334 377 336 327
24 3 2 1 1 317 350 364 354
25 3 2 1 1 422 409 403 418
26 3 2 1 1 77 78 97 133
27 3 2 1 1 360 343 312 385
28 3 2 1 1 315 338 363 344
29 3 2 1 1 124 203 125 84
30 3 2 1 1 217 192 174 213
31 3 2 1 1 205 193 230 176
32 3 2 1 1 174 185 257 213
33 3 2 1 1 217 213 292 258
34 3 2 1 1 193 217 258 230
35 3 2 1 1 304 247 317 354
36 3 2 1 1 230 258 285 253
37 3 2 1 1 388 407 383 370
38 3 2 1 1 383 407 401 389
39 3 2 1 1 87 19 20 135
40 3 2 1 1 96 23 24 111
41 3 2 1 1 99 60 61 112
42 3 2 1 1 108 79 80 117
43 3 2 1 1 222 185 85 139
44 3 2 1 1 105 99 132 205
45 3 2 1 1 183 135 119 184
46 3 2 1 1 185 222 293 257
47 3 2 1 1 306 244 327 342
48 3 2 1 1 323 316 257 293
49 3 2 1 1 295 348 328 296
50 3 2 1 1 370 372 366 388
51 3 2 1 1 364 383 389 369
52 3 2 1 1 407 388 409 422
53 3 2 1 1 135 183 239 87
54 3 2 1 1 96 111 120 134
55 3 2 1 1 134 182 241 129
56 3 2 1 1 100 136 227 166
57 3 2 1 1 110 188 227 136
58 3 2 1 1 129 241 214 184
59 3 2 1 1 226 270 260 216
60 3 2 1 1 292 315 285 258
61 3 2 1 1 309 346 390 358
62 3 2 1 1 49 50 138 88
63 3 2 1 1 173 219 241 182
64 3 2 1 1 326 281 207 267
65 3 2 1 1 297 281 312 343
66 3 2 1 1 246 346 309 301
67 3 2 1 1 380 414 399 371
68 3 2 1 1 16 141 81 15
69 3 2 1 1 18 19 87 142
70 3 2 1 1 89 144 37 38
71 3 2 1 1 114 48 49 88
72 3 2 1 1 139 85 67 68
73 3 2 1 1 71 72 148 110
74 3 2 1 1 72 73 84 148
75 3 2 1 1 138 178 127 88
76 3 2 1 1 139 100 166 222
77 3 2 1 1 108 117 103 163
78 3 2 1 1 110 148 196 188
79 3 2 1 1 219 173 228 265
80 3 2 1 1 206 266 227 188
81 3 2 1 1 188 196 274 206
82 3 2 1 1 125 236 274 196
83 3 2 1 1 274 306 302 206
84 3 2 1 1 266 206 302 332
85 3 2 1 1 248 284 272 214
86 3 2 1 1 166 227 266 261
87 3 2 1 1 236 244 306 274
88 3 2 1 1 278 323 293 261
89 3 2 1 1 244 288 334 327
90 3 2 1 1 355 308 371 384
91 3 2 1 1 367 386 363 338
92 3 2 1 1 312 344 363 385
93 3 2 1 1 311 345 366 372
94 3 2 1 1 382 368 351 387
95 3 2 1 1 390 415 408 358
96 3 2 1 1 410 398 365 382
97 3 2 1 1 409 374 391 403
98 3 2 1 1 362 404 411 386
99 3 2 1 1 421 432 424 402
100 3 2 1 1 438 439 437 435
101 3 2 1 1 117 6 7 103
102 3 2 1 1 1 6 117 80
103 3 2 1 1 7 8 140 103
104 3 2 1 1 17 107 141 16
105 3 2 1 1 107 17 18 142
106 3 2 1 1 119 135 20 21
107 3 2 1 1 2 25 111 24
108 3 2 1 1 120 111 25 26
109 3 2 1 1 26 27 143 120
110 3 2 1 1 39 40 98 137
111 3 2 1 1 46 93 113 45
112 3 2 1 1 46 47 158 93
113 3 2 1 1 48 114 158 47
114 3 2 1 1 51 115 138 50
115 3 2 1 1 54 145 83 53
116 3 2 1 1 54 55 109 145
117 3 2 1 1 56 159 109 55
118 3 2 1 1 5 62 112 61
119 3 2 1 1 62 63 146 112
120 3 2 1 1 67 85 147 66
121 3 2 1 1 136 100 69 70
122 3 2 1 1 68 69 100 139
123 3 2 1 1 70 71 110 136
124 3 2 1 1 223 177 150 83
125 3 2 1 1 196 148 84 125
126 3 2 1 1 185 174 147 85
127 3 2 1 1 137 189 169 89
128 3 2 1 1 182 143 90 173
129 3 2 1 1 132 146 95 130
130 3 2 1 1 137 98 190 189
131 3 2 1 1 121 128 191 101
132 3 2 1 1 163 103 140 204
133 3 2 1 1 142 168 194 107
134 3 2 1 1 141 107 194 232
135 3 2 1 1 93 131 175 113
136 3 2 1 1 88 127 202 114
137 3 2 1 1 178 138 115 221
138 3 2 1 1 147 174 192 116
139 3 2 1 1 121 122 200 128
140 3 2 1 1 200 240 209 128
141 3 2 1 1 192 217 193 130
142 3 2 1 1 93 158 181 131
143 3 2 1 1 181 215 225 131
144 3 2 1 1 81 141 232 165
145 3 2 1 1 89 169 233 144
146 3 2 1 1 123 144 233 195
147 3 2 1 1 83 145 164 223
148 3 2 1 1 98 149 197 190
149 3 2 1 1 115 150 177 221
150 3 2 1 1 90 151 228 173
151 3 2 1 1 101 191 228 151
152 3 2 1 1 114 202 181 158
153 3 2 1 1 243 187 160 172
154 3 2 1 1 160 163 204 172
155 3 2 1 1 201 207 262 164
156 3 2 1 1 252 223 164 262
157 3 2 1 1 261 293 222 166
158 3 2 1 1 251 170 234 289
159 3 2 1 1 220 212 203 171
160 3 2 1 1 224 218 172 204
161 3 2 1 1 197 175 229 190
162 3 2 1 1 131 225 229 175
163 3 2 1 1 256 221 177 291
164 3 2 1 1 223 252 291 177
165 3 2 1 1 127 178 271 211
166 3 2 1 1 221 256 271 178
167 3 2 1 1 187 243 242 186
168 3 2 1 1 169 189 226 216
169 3 2 1 1 189 190 229 226
170 3 2 1 1 128 209 264 191
171 3 2 1 1 265 228 191 264
172 3 2 1 1 168 247 304 194
173 3 2 1 1 176 230 253 198
174 3 2 1 1 127 211 275 202
175 3 2 1 1 181 202 275 215
176 3 2 1 1 125 203 212 236
177 3 2 1 1 201 238 267 207
178 3 2 1 1 297 262 207 281
179 3 2 1 1 246 301 268 210
180 3 2 1 1 288 244 236 212
181 3 2 1 1 270 225 215 259
182 3 2 1 1 169 216 269 233
183 3 2 1 1 172 218 277 243
184 3 2 1 1 212 220 250 288
185 3 2 1 1 226 229 225 270
186 3 2 1 1 195 233 269 254
187 3 2 1 1 167 249 289 234
188 3 2 1 1 210 237 294 246
189 3 2 1 1 198 253 267 238
190 3 2 1 1 168 239 305 247
191 3 2 1 1 295 296 240 263
192 3 2 1 1 220 242 276 250
193 3 2 1 1 243 277 276 242
194 3 2 1 1 311 283 245 345
195 3 2 1 1 325 317 247 305
196 3 2 1 1 300 318 353 249
197 3 2 1 1 289 249 353 320
198 3 2 1 1 334 288 250 286
199 3 2 1 1 276 331 286 250
200 3 2 1 1 218 251 287 277
201 3 2 1 1 314 291 252 322
202 3 2 1 1 262 297 322 252
203 3 2 1 1 267 253 285 326
204 3 2 1 1 237 254 298 294
205 3 2 1 1 291 314 280 256
206 3 2 1 1 213 257 316 292
207 3 2 1 1 215 275 307 259
208 3 2 1 1 282 259 307 330
209 3 2 1 1 216 260 299 269
210 3 2 1 1 259 282 260 270
211 3 2 1 1 332 278 261 266
212 3 2 1 1 263 268 301 295
213 3 2 1 1 254 269 299 298
214 3 2 1 1 256 280 303 271
215 3 2 1 1 300 273 329 318
216 3 2 1 1 211 333 307 275
217 3 2 1 1 276 277 287 331
218 3 2 1 1 321 369 335 279
219 3 2 1 1 303 280 340 310
220 3 2 1 1 326 344 312 281
221 3 2 1 1 260 282 319 299
222 3 2 1 1 344 326 285 315
223 3 2 1 1 251 289 320 287
224 3 2 1 1 315 292 316 338
225 3 2 1 1 246 294 313 346
226 3 2 1 1 339 322 297 343
227 3 2 1 1 294 298 349 313
228 3 2 1 1 298 299 319 349
229 3 2 1 1 295 301 309 348
230 3 2 1 1 330 307 333 356
231 3 2 1 1 303 310 356 333
232 3 2 1 1 324 311 372 357
233 3 2 1 1 349 378 373 313
234 3 2 1 1 346 313 373 390
235 3 2 1 1 322 339 376 314
236 3 2 1 1 280 314 376 340
237 3 2 1 1 375 353 318 368
238 3 2 1 1 282 330 341 319
239 3 2 1 1 287 320 352 331
240 3 2 1 1 352 320 353 375
241 3 2 1 1 284 324 357 325
242 3 2 1 1 317 325 357 350
243 3 2 1 1 374 366 345 328
244 3 2 1 1 286 331 352 347
245 3 2 1 1 278 332 355 337
246 3 2 1 1 286 347 377 334
247 3 2 1 1 351 335 361 387
248 3 2 1 1 361 335 369 389
249 3 2 1 1 343 360 394 339
250 3 2 1 1 310 340 393 359
251 3 2 1 1 319 341 378 349
252 3 2 1 1 330 356 379 341
253 3 2 1 1 309 358 391 348
254 3 2 1 1 328 348 391 374
255 3 2 1 1 347 352 375 365
256 3 2 1 1 310 359 379 356
257 3 2 1 1 408 403 391 358
258 3 2 1 1 368 382 365 375
259 3 2 1 1 347 365 398 377
260 3 2 1 1 340 376 392 393
261 3 2 1 1 341 379 397 378
262 3 2 1 1 373 378 397 395
263 3 2 1 1 382 387 427 410
264 3 2 1 1 373 395 415 390
265 3 2 1 1 392 394 424 413
266 3 2 1 1 405 420 433 428
267 3 2 1 1 418 429 426 422
268 3 2 1 1 441 438 430 433
269 3 2 1 1 15 81 154 14
270 3 2 1 1 144 123 36 37
271 3 2 1 1 149 98 40 41
272 3 2 1 1 150 115 51 52
273 3 2 1 1 53 83 150 52
274 3 2 1 1 155 82 231 179
275 3 2 1 1 156 180 231 82
276 3 2 1 1 204 140 94 224
277 3 2 1 1 192 130 95 116
278 3 2 1 1 126 180 156 102
279 3 2 1 1 197 157 113 175
280 3 2 1 1 154 199 235 118
281 3 2 1 1 102 123 195 126
282 3 2 1 1 124 162 171 203
283 3 2 1 1 232 255 208 165
284 3 2 1 1 300 249 167 235
285 3 2 1 1 268 263 179 231
286 3 2 1 1 210 268 231 180
287 3 2 1 1 273 208 279 329
288 3 2 1 1 283 264 209 245
289 3 2 1 1 170 251 218 224
290 3 2 1 1 194 304 255 232
291 3 2 1 1 199 273 300 235
292 3 2 1 1 354 321 255 304
293 3 2 1 1 351 329 279 335
294 3 2 1 1 364 369 321 354
295 3 2 1 1 318 329 351 368
296 3 2 1 1 407 422 426 401
297 3 2 1 1 401 426 431 412
298 3 2 1 1 420 427 412 431
299 3 2 1 1 28 3 151 90
300 3 2 1 1 29 101 151 3
301 3 2 1 1 140 8 9 94
302 3 2 1 1 11 86 152 10
303 3 2 1 1 9 10 152 94
304 3 2 1 1 11 12 153 86
305 3 2 1 1 13 118 153 12
306 3 2 1 1 13 14 154 118
307 3 2 1 1 143 27 28 90
308 3 2 1 1 29 30 121 101
309 3 2 1 1 30 31 122 121
310 3 2 1 1 32 155 122 31
311 3 2 1 1 155 32 33 82
312 3 2 1 1 34 156 82 33
313 3 2 1 1 156 34 35 102
314 3 2 1 1 123 102 35 36
315 3 2 1 1 42 104 149 41
316 3 2 1 1 4 43 104 42
317 3 2 1 1 43 44 157 104
318 3 2 1 1 45 113 157 44
319 3 2 1 1 57 91 159 56
320 3 2 1 1 161 91 57 58
321 3 2 1 1 146 63 64 95
322 3 2 1 1 147 116 65 66
323 3 2 1 1 64 65 116 95
324 3 2 1 1 76 92 162 75
325 3 2 1 1 74 75 162 124
326 3 2 1 1 133 92 76 77
327 3 2 1 1 154 81 165 199
328 3 2 1 1 153 167 234 86
329 3 2 1 1 152 86 234 170
330 3 2 1 1 161 176 198 91
331 3 2 1 1 186 171 162 92
332 3 2 1 1 224 94 152 170
333 3 2 1 1 163 160 97 108
334 3 2 1 1 197 149 104 157
335 3 2 1 1 153 118 235 167
336 3 2 1 1 106 129 184 119
337 3 2 1 1 195 254 237 126
338 3 2 1 1 109 201 164 145
339 3 2 1 1 122 155 179 200
340 3 2 1 1 91 198 238 159
341 3 2 1 1 109 159 238 201
342 3 2 1 1 208 273 199 165
343 3 2 1 1 240 200 179 263
344 3 2 1 1 126 237 210 180
345 3 2 1 1 184 214 272 183
346 3 2 1 1 305 239 183 272
347 3 2 1 1 321 279 208 255
348 3 2 1 1 240 296 245 209
349 3 2 1 1 333 211 271 303
350 3 2 1 1 214 241 219 248
351 3 2 1 1 290 248 219 265
352 3 2 1 1 245 296 328 345
353 3 2 1 1 342 308 302 306
354 3 2 1 1 302 308 355 332
355 3 2 1 1 278 337 367 323
356 3 2 1 1 327 336 380 342
357 3 2 1 1 414 380 336 381
358 3 2 1 1 384 362 337 355
359 3 2 1 1 386 367 337 362
360 3 2 1 1 394 392 376 339
361 3 2 1 1 308 342 380 371
362 3 2 1 1 383 364 350 370
363 3 2 1 1 379 359 396 397
364 3 2 1 1 424 394 360 402
365 3 2 1 1 427 387 361 412
366 3 2 1 1 385 363 386 411
367 3 2 1 1 406 384 371 399
368 3 2 1 1 366 374 409 388
369 3 2 1 1 410 405 381 398
370 3 2 1 1 361 389 401 412
371 3 2 1 1 359 393 416 396
372 3 2 1 1 392 413 416 393
373 3 2 1 1 419 415 395 400
374 3 2 1 1 395 397 396 400
375 3 2 1 1 400 396 416 425
376 3 2 1 1 381 405 428 414
377 3 2 1 1 399 417 436 406
378 3 2 1 1 403 408 434 418
379 3 2 1 1 405 410 427 420
380 3 2 1 1 413 423 425 416
381 3 2 1 1 433 430 417 428
382 3 2 1 1 440 436 417 430
383 3 2 1 1 429 418 434 439
384 3 2 1 1 400 425 437 419
385 3 2 1 1 413 424 432 423
386 3 2 1 1 423 435 437 425
387 3 2 1 1 431 426 429 441
388 3 2 1 1 423 432 440 435
389 3 2 1 1 106 22 23 96
390 3 2 1 1 137 89 38 39
391 3 2 1 1 324 284 248 290
392 3 2 1 1 404 406 436 421
393 3 2 1 1 408 415 419 434
394 3 2 1 1 434 419 437 439
395 3 2 1 1 105 59 60 99
396 3 2 1 1 124 84 73 74
397 3 2 1 1 108 97 78 79
398 3 2 1 1 372 370 350 357
399 3 2 1 1 428 417 399 414
400 3 2 1 1 398 381 336 377
401 2 2 2 2 541 447 508 
402 2 2 2 2 447 601 507 
403 2 2 2 2 587 522 523 
404 2 2 2 2 523 524 587 
405 2 2 2 2 511 512 563 
406 2 2 2 2 563 510 511 
407 2 2 2 2 562 456 455 
408 2 2 2 2 455 454 562 
409 3 2 2 2 670 687 526 525
410 3 2 2 2 744 535 534 758
411 3 2 2 2 743 759 529 528
412 3 2 2 2 739 685 526 527
413 3 2 2 2 784 825 849 810
414 3 2 2 2 749 800 808 824
415 3 2 2 2 533 534 774 789
416 3 2 2 2 584 539 540 586
417 3 2 2 2 784 752 757 825
418 3 2 2 2 771 744 758 779
419 3 2 2 2 666 681 740 686
420 3 2 2 2 826 532 531 827
421 3 2 2 2 508 586 540 541
422 3 2 2 2 684 719 777 722
423 3 2 2 2 587 452 443 522
424 3 2 2 2 536 537 671 686
425 3 2 2 2 530 531 848 836
426 3 2 2 2 803 824 865 835
427 3 2 2 2 808 833 865 824
428 3 2 2 2 587 524 630 585
429 3 2 2 2 780 785 831 807
430 3 2 2 2 836 848 811 834
431 3 2 2 2 835 746 770 822
432 3 2 2 2 789 811 532 533
433 3 2 2 2 584 586 508 509
434 3 2 2 2 585 453 452 587
435 3 2 2 2 677 690 648 645
436 3 2 2 2 776 739 527 528
437 3 2 2 2 684 688 678 719
438 3 2 2 2 686 740 535 536
439 3 2 2 2 541 583 601 447
440 3 2 2 2 684 708 636 688
441 3 2 2 2 689 723 705 635
442 3 2 2 2 893 882 868 887
443 3 2 2 2 770 746 705 723
444 3 2 2 2 833 808 838 857
445 3 2 2 2 771 779 838 808
446 3 2 2 2 603 649 605 564
447 3 2 2 2 719 678 726 752
448 3 2 2 2 636 646 650 688
449 3 2 2 2 648 690 596 649
450 3 2 2 2 784 777 719 752
451 3 2 2 2 559 636 708 625
452 3 2 2 2 736 799 748 715
453 3 2 2 2 761 798 782 730
454 3 2 2 2 647 683 723 689
455 3 2 2 2 650 646 610 581
456 3 2 2 2 636 559 606 646
457 3 2 2 2 854 843 816 815
458 3 2 2 2 702 736 715 633
459 3 2 2 2 596 647 553 573
460 3 2 2 2 762 729 781 797
461 3 2 2 2 596 573 605 649
462 3 2 2 2 701 632 714 737
463 3 2 2 2 601 645 648 557
464 3 2 2 2 835 850 790 746
465 3 2 2 2 690 683 647 596
466 3 2 2 2 688 650 598 678
467 3 2 2 2 728 766 796 754
468 3 2 2 2 743 780 820 759
469 3 2 2 2 649 603 557 648
470 3 2 2 2 813 786 828 836
471 3 2 2 2 796 821 844 815
472 3 2 2 2 623 561 664 666
473 3 2 2 2 733 793 764 698
474 3 2 2 2 795 778 806 832
475 3 2 2 2 840 872 851 804
476 3 2 2 2 731 704 753 768
477 3 2 2 2 620 695 657 576
478 3 2 2 2 723 683 720 770
479 3 2 2 2 697 763 732 656
480 3 2 2 2 766 717 821 796
481 3 2 2 2 765 735 718 794
482 3 2 2 2 640 733 698 658
483 3 2 2 2 663 644 706 726
484 3 2 2 2 750 790 850 805
485 3 2 2 2 809 844 821 792
486 3 2 2 2 753 712 778 795
487 3 2 2 2 617 548 635 661
488 3 2 2 2 677 720 683 690
489 3 2 2 2 764 818 794 718
490 3 2 2 2 704 674 712 753
491 3 2 2 2 660 643 704 731
492 3 2 2 2 833 857 885 864
493 3 2 2 2 619 580 644 663
494 3 2 2 2 787 839 858 819
495 3 2 2 2 706 676 716 757
496 3 2 2 2 615 697 656 575
497 3 2 2 2 735 638 691 718
498 3 2 2 2 718 691 698 764
499 3 2 2 2 613 574 700 642
500 3 2 2 2 879 885 857 874
501 3 2 2 2 679 593 657 730
502 3 2 2 2 616 577 643 660
503 3 2 2 2 609 640 658 570
504 3 2 2 2 729 734 767 781
505 3 2 2 2 877 855 842 807
506 3 2 2 2 705 724 661 635
507 3 2 2 2 732 788 745 673
508 3 2 2 2 721 680 744 771
509 3 2 2 2 738 670 599 707
510 3 2 2 2 856 842 855 866
511 3 2 2 2 644 591 676 706
512 3 2 2 2 858 839 871 883
513 3 2 2 2 779 758 801 814
514 3 2 2 2 779 814 861 838
515 3 2 2 2 607 691 638 595
516 3 2 2 2 752 726 706 757
517 3 2 2 2 727 787 819 763
518 3 2 2 2 593 679 703 659
519 3 2 2 2 831 785 751 810
520 3 2 2 2 658 698 691 607
521 3 2 2 2 780 769 713 785
522 3 2 2 2 861 874 857 838
523 3 2 2 2 614 553 647 689
524 3 2 2 2 835 822 756 803
525 3 2 2 2 841 804 851 859
526 3 2 2 2 595 638 694 653
527 3 2 2 2 643 589 674 704
528 3 2 2 2 621 701 664 561
529 3 2 2 2 602 555 594 652
530 3 2 2 2 595 549 568 607
531 3 2 2 2 772 707 637 722
532 3 2 2 2 446 504 564 503
533 3 2 2 2 603 564 504 505
534 3 2 2 2 442 466 565 448
535 3 2 2 2 610 565 466 467
536 3 2 2 2 673 745 793 733
537 3 2 2 2 445 485 566 484
538 3 2 2 2 602 556 481 482
539 3 2 2 2 602 482 483 555
540 3 2 2 2 484 566 555 483
541 3 2 2 2 604 569 486 487
542 3 2 2 2 593 547 576 657
543 3 2 2 2 556 602 652 592
544 3 2 2 2 485 486 569 566
545 3 2 2 2 566 569 594 555
546 3 2 2 2 843 806 778 816
547 3 2 2 2 604 487 488 549
548 3 2 2 2 588 673 733 640
549 3 2 2 2 549 595 653 604
550 3 2 2 2 653 594 569 604
551 3 2 2 2 603 505 506 557
552 3 2 2 2 601 557 506 507
553 3 2 2 2 754 712 674 728
554 3 2 2 2 611 571 464 463
555 3 2 2 2 444 465 572 521
556 3 2 2 2 846 820 842 856
557 3 2 2 2 726 678 598 663
558 3 2 2 2 502 503 564 605
559 3 2 2 2 694 652 594 653
560 3 2 2 2 570 658 607 568
561 3 2 2 2 693 592 652 694
562 3 2 2 2 448 565 606 449
563 3 2 2 2 656 732 673 588
564 3 2 2 2 870 843 854 869
565 3 2 2 2 481 556 567 480
566 3 2 2 2 464 571 572 465
567 3 2 2 2 654 727 763 697
568 3 2 2 2 556 592 651 567
569 3 2 2 2 819 788 732 763
570 3 2 2 2 480 567 608 479
571 3 2 2 2 545 654 697 615
572 3 2 2 2 640 609 543 588
573 3 2 2 2 488 489 568 549
574 3 2 2 2 592 693 725 651
575 3 2 2 2 520 521 572 558
576 3 2 2 2 689 635 548 614
577 3 2 2 2 609 570 490 491
578 3 2 2 2 816 754 796 815
579 3 2 2 2 820 780 807 842
580 3 2 2 2 625 451 450 559
581 3 2 2 2 858 840 788 819
582 3 2 2 2 883 872 840 858
583 3 2 2 2 692 608 567 651
584 3 2 2 2 501 502 605 573
585 3 2 2 2 545 578 590 654
586 3 2 2 2 662 682 736 702
587 3 2 2 2 597 558 572 571
588 3 2 2 2 577 544 589 643
589 3 2 2 2 729 641 696 734
590 3 2 2 2 519 579 612 518
591 3 2 2 2 760 692 651 725
592 3 2 2 2 761 730 657 695
593 3 2 2 2 489 490 570 568
594 3 2 2 2 859 851 884 873
595 3 2 2 2 728 642 700 766
596 3 2 2 2 580 546 591 644
597 3 2 2 2 450 449 606 559
598 3 2 2 2 869 878 890 870
599 3 2 2 2 753 795 832 817
600 3 2 2 2 642 589 544 613
601 3 2 2 2 609 491 492 543
602 3 2 2 2 608 692 639 542
603 3 2 2 2 500 553 614 499
604 3 2 2 2 792 760 725 765
605 3 2 2 2 841 793 745 804
606 3 2 2 2 765 725 693 735
607 3 2 2 2 478 479 608 542
608 3 2 2 2 659 597 571 611
609 3 2 2 2 787 727 675 750
610 3 2 2 2 696 612 579 655
611 3 2 2 2 613 476 477 574
612 3 2 2 2 500 501 573 553
613 3 2 2 2 646 606 565 610
614 3 2 2 2 841 818 764 793
615 3 2 2 2 821 717 760 792
616 3 2 2 2 615 575 493 494
617 3 2 2 2 520 558 579 519
618 3 2 2 2 829 809 794 818
619 3 2 2 2 703 655 597 659
620 3 2 2 2 547 593 659 611
621 3 2 2 2 700 574 542 639
622 3 2 2 2 655 579 558 597
623 3 2 2 2 859 829 818 841
624 3 2 2 2 809 792 765 794
625 3 2 2 2 798 761 715 748
626 3 2 2 2 612 696 641 550
627 3 2 2 2 873 860 829 859
628 3 2 2 2 660 591 546 616
629 3 2 2 2 890 881 852 870
630 3 2 2 2 591 660 731 676
631 3 2 2 2 870 852 806 843
632 3 2 2 2 575 656 588 543
633 3 2 2 2 888 884 851 872
634 3 2 2 2 618 699 632 552
635 3 2 2 2 724 675 590 661
636 3 2 2 2 728 674 589 642
637 3 2 2 2 854 815 844 860
638 3 2 2 2 611 463 462 547
639 3 2 2 2 816 778 712 754
640 3 2 2 2 613 544 475 476
641 3 2 2 2 615 494 495 545
642 3 2 2 2 860 844 809 829
643 3 2 2 2 871 839 805 864
644 3 2 2 2 768 716 676 731
645 3 2 2 2 750 675 724 790
646 3 2 2 2 839 787 750 805
647 3 2 2 2 846 802 759 820
648 3 2 2 2 734 696 655 703
649 3 2 2 2 641 729 762 699
650 3 2 2 2 616 473 474 577
651 3 2 2 2 610 467 468 581
652 3 2 2 2 692 760 717 639
653 3 2 2 2 727 654 590 675
654 3 2 2 2 617 578 496 497
655 3 2 2 2 768 783 757 716
656 3 2 2 2 618 516 517 550
657 3 2 2 2 894 895 890 878
658 3 2 2 2 705 746 790 724
659 3 2 2 2 767 734 703 679
660 3 2 2 2 517 518 612 550
661 3 2 2 2 766 700 639 717
662 3 2 2 2 753 817 783 768
663 3 2 2 2 628 624 456 562
664 3 2 2 2 853 861 814 845
665 3 2 2 2 616 546 472 473
666 3 2 2 2 620 576 461 460
667 3 2 2 2 869 854 860 873
668 3 2 2 2 811 848 531 532
669 3 2 2 2 661 590 578 617
670 3 2 2 2 814 801 826 845
671 3 2 2 2 617 497 498 548
672 3 2 2 2 477 478 542 574
673 3 2 2 2 878 869 873 884
674 3 2 2 2 619 470 471 580
675 3 2 2 2 757 783 849 825
676 3 2 2 2 862 853 845 830
677 3 2 2 2 840 804 745 788
678 3 2 2 2 783 817 863 849
679 3 2 2 2 830 827 802 846
680 3 2 2 2 493 575 543 492
681 3 2 2 2 894 878 884 888
682 3 2 2 2 845 826 827 830
683 3 2 2 2 699 618 550 641
684 3 2 2 2 875 832 806 852
685 3 2 2 2 797 747 714 762
686 3 2 2 2 498 499 614 548
687 3 2 2 2 867 876 868 882
688 3 2 2 2 797 847 812 747
689 3 2 2 2 619 554 469 470
690 3 2 2 2 650 581 554 598
691 3 2 2 2 695 620 551 633
692 3 2 2 2 833 864 805 865
693 3 2 2 2 822 770 720 756
694 3 2 2 2 621 514 515 552
695 3 2 2 2 618 552 515 516
696 3 2 2 2 699 762 714 632
697 3 2 2 2 761 695 633 715
698 3 2 2 2 685 682 662 665
699 3 2 2 2 622 551 459 458
700 3 2 2 2 620 460 459 551
701 3 2 2 2 710 742 749 773
702 3 2 2 2 701 681 666 664
703 3 2 2 2 701 737 775 681
704 3 2 2 2 811 789 791 812
705 3 2 2 2 837 823 782 798
706 3 2 2 2 817 832 877 863
707 3 2 2 2 474 475 544 577
708 3 2 2 2 847 797 781 823
709 3 2 2 2 823 781 767 782
710 3 2 2 2 663 598 554 619
711 3 2 2 2 702 622 560 662
712 3 2 2 2 496 578 545 495
713 3 2 2 2 740 774 534 535
714 3 2 2 2 461 576 547 462
715 3 2 2 2 702 633 551 622
716 3 2 2 2 789 774 775 791
717 3 2 2 2 701 621 552 632
718 3 2 2 2 623 512 513 561
719 3 2 2 2 621 561 513 514
720 3 2 2 2 624 560 457 456
721 3 2 2 2 622 458 457 560
722 3 2 2 2 835 865 805 850
723 3 2 2 2 472 546 580 471
724 3 2 2 2 875 852 881 886
725 3 2 2 2 469 554 581 468
726 3 2 2 2 682 755 799 736
727 3 2 2 2 714 791 775 737
728 3 2 2 2 735 693 694 638
729 3 2 2 2 627 563 512 623
730 3 2 2 2 665 662 560 624
731 3 2 2 2 714 747 812 791
732 3 2 2 2 780 743 709 769
733 3 2 2 2 774 740 681 775
734 3 2 2 2 623 666 686 627
735 3 2 2 2 624 628 685 665
736 3 2 2 2 685 739 755 682
737 3 2 2 2 599 670 525 524
738 3 2 2 2 888 872 883 892
739 3 2 2 2 881 890 895 893
740 3 2 2 2 876 867 861 853
741 3 2 2 2 810 849 863 831
742 3 2 2 2 882 893 895 889
743 3 2 2 2 885 879 889 891
744 3 2 2 2 680 536 535 744
745 3 2 2 2 867 882 889 879
746 3 2 2 2 803 756 741 773
747 3 2 2 2 711 742 710 669
748 3 2 2 2 782 767 679 730
749 3 2 2 2 509 510 563 584
750 3 2 2 2 453 585 562 454
751 3 2 2 2 709 743 528 527
752 3 2 2 2 856 862 830 846
753 3 2 2 2 824 803 773 749
754 3 2 2 2 808 800 721 771
755 3 2 2 2 886 887 868 866
756 3 2 2 2 866 868 862 856
757 3 2 2 2 669 538 537 711
758 3 2 2 2 784 772 722 777
759 3 2 2 2 627 629 584 563
760 3 2 2 2 628 562 585 630
761 3 2 2 2 756 720 677 741
762 3 2 2 2 871 880 892 883
763 3 2 2 2 707 772 751 738
764 3 2 2 2 677 645 601 668
765 3 2 2 2 759 802 530 529
766 3 2 2 2 758 534 533 801
767 3 2 2 2 798 748 813 837
768 3 2 2 2 810 751 772 784
769 3 2 2 2 748 799 786 813
770 3 2 2 2 668 634 741 677
771 3 2 2 2 785 713 738 751
772 3 2 2 2 451 582 522 443
773 3 2 2 2 670 738 713 687
774 3 2 2 2 811 812 847 834
775 3 2 2 2 769 709 687 713
776 3 2 2 2 799 755 739 776
777 3 2 2 2 707 599 626 637
778 3 2 2 2 773 741 634 710
779 3 2 2 2 802 827 531 530
780 3 2 2 2 801 533 532 826
781 3 2 2 2 668 631 600 634
782 3 2 2 2 637 626 582 667
783 3 2 2 2 866 855 875 886
784 3 2 2 2 625 708 684 667
785 3 2 2 2 672 630 524 525
786 3 2 2 2 584 629 538 539
787 3 2 2 2 629 627 686 671
788 3 2 2 2 630 672 685 628
789 3 2 2 2 685 672 525 526
790 3 2 2 2 629 671 537 538
791 3 2 2 2 799 776 828 786
792 3 2 2 2 451 625 667 582
793 3 2 2 2 722 637 667 684
794 3 2 2 2 634 600 669 710
795 3 2 2 2 631 540 539 600
796 3 2 2 2 861 867 879 874
797 3 2 2 2 600 539 538 669
798 3 2 2 2 583 541 540 631
799 3 2 2 2 828 776 528 529
800 3 2 2 2 687 709 527 526
801 3 2 2 2 836 828 529 530
802 3 2 2 2 711 537 536 680
803 3 2 2 2 626 599 524 523
804 3 2 2 2 800 749 742 721
805 3 2 2 2 868 876 853 862
806 3 2 2 2 892 880 885 891
807 3 2 2 2 742 711 680 721
808 3 2 2 2 807 831 863 877
809 3 2 2 2 895 894 891 889
810 3 2 2 2 885 880 871 864
811 3 2 2 2 601 583 631 668
812 3 2 2 2 582 626 523 522
813 3 2 2 2 893 887 886 881
814 3 2 2 2 832 875 855 877
815 3 2 2 2 891 894 888 892
816 3 2 2 2 813 836 834 837
817 3 2 2 2 823 837 834 847
$EndElements
