$MeshFormat
2.2 0 8
$EndMeshFormat
$Nodes
896
1 -200 -100 0
2 0 -100 0
3 0 -50 0
4 0 100 0
5 -150 100 0
6 -200 100 0
7 -190 -100 0
8 -180 -100 0
9 -170 -100 0
10 -160 -100 0
11 -150 -100 0
12 -140 -100 0
13 -130 -100 0
14 -120 -100 0
15 -110 -100 0
16 -100 -100 0
17 -90 -100 0
18 -80 -100 0
19 -70 -100 0
20 -60 -100 0
21 -50 -100 0
22 -40 -100 0
23 -30 -100 0
24 -20 -100 0
25 -10 -100 0
26 0 -90 0
27 0 -80 0
28 0 -70 0
29 0 -60 0
30 0 -40 0
31 0 -30 0
32 0 -20 0
33 0 -10 0
34 0 0 0
35 0 10 0
36 0 20 0
37 0 30 0
38 0 40 0
39 0 50 0
40 0 60 0
41 0 70 0
42 0 80 0
43 0 90 0
44 -10 100 0
45 -20 100 0
46 -30 100 0
47 -40 100 0
48 -50 100 0
49 -60 100 0
50 -70 100 0
51 -80 100 0
52 -90 100 0
53 -100 100 0
54 -110 100 0
55 -120 100 0
56 -130 100 0
57 -140 100 0
58 -160 100 0
59 -170 100 0
60 -180 100 0
61 -190 100 0
62 -200 90 0
63 -200 80 0
64 -200 70 0
65 -200 60 0
66 -200 50 0
67 -200 40 0
68 -200 30 0
69 -200 20 0
70 -200 10 0
71 -200 0 0
72 -200 -10 0
73 -200 -20 0
74 -200 -30 0
75 -200 -40 0
76 -200 -50 0
77 -200 -60 0
78 -200 -70 0
79 -200 -80 0
80 -200 -90 0
81 -142.857142857143 92.8571428571428 0
82 -135.714285714286 85.7142857142857 0
83 -128.571428571429 78.5714285714286 0
84 -121.428571428571 71.4285714285714 0
85 -114.285714285714 64.2857142857142 0
86 -107.142857142857 57.1428571428571 0
87 -99.9999999999999 49.9999999999999 0
88 -92.8571428571428 42.8571428571428 0
89 -85.7142857142857 35.7142857142857 0
90 -78.5714285714285 28.5714285714285 0
91 -71.4285714285714 21.4285714285714 0
92 -64.2857142857143 14.2857142857143 0
93 -57.1428571428571 7.1428571428571 0
94 -50 -2.8421709430404E-14 0
95 -42.8571428571428 -7.14285714285717 0
96 -35.7142857142857 -14.2857142857143 0
97 -28.5714285714286 -21.4285714285714 0
98 -21.4285714285714 -28.5714285714286 0
99 -14.2857142857143 -35.7142857142857 0
100 -7.14285714285717 -42.8571428571428 0
101 -189.992481035364 -19.995992743685 0
102 -109.997652906378 -89.9901489016638 0
103 -189.972283085124 20.0491372615476 0
104 -69.9428756955118 -89.9780052163892 0
105 -140.002510909515 -89.9952663513964 0
106 -50.6657146418895 89.3092756269071 0
107 -189.898343494773 60.2034986232803 0
108 -10.1165058954865 42.8370037095513 0
109 -189.996890618511 -49.9992737696904 0
110 -160.000565244231 -89.9981199929292 0
111 -6.61369885608643 59.4648653332048 0
112 -78.3574025725681 91.3426890350695 0
113 -9.60173316264789 14.3536041572267 0
114 -30.1962819857651 -90.1003075549634 0
115 -189.999159285606 -69.9996966826612 0
116 -29.9028821060342 89.9027828047282 0
117 -170.342056106938 89.8387776563223 0
118 -11.0584098981365 -79.7640987182662 0
119 -179.99990082175 -89.9996203248567 0
120 -106.963876840917 90.297164096911 0
121 -10.7503405511886 -14.8583960011334 0
122 -10.0157436608944 89.982633812227 0
123 -189.946557772431 90.0556743822706 0
124 -10.4714652180962 -89.8045699273549 0
125 -13.2102887974221 -70.3504174247244 0
126 -39.7447737541348 -89.8970277780191 0
127 -189.999668864394 -79.9997687836184 0
128 -189.999900867188 -89.9998635443836 0
129 -49.7583399863956 -89.7876338897225 0
130 -10.9757112047926 67.8432180058269 0
131 -189.986797378612 0.0123813065383729 0
132 -189.99380572429 -29.997773937469 0
133 -89.981879165209 -89.9864951183929 0
134 -120.001217333402 -89.9917797432649 0
135 -189.955534172861 40.1360811667015 0
136 -70.931683289467 93.5062266775901 0
137 -189.904190566724 80.1271484202286 0
138 -9.81437246951666 -5.28895013999622 0
139 -9.98717112034453 24.1347834274473 0
140 -97.0157924559 90.0388097554787 0
141 -148.961217009449 87.9220040257021 0
142 -7.11638346305655 -53.8623408323998 0
143 -128.468124109044 90.5969069365335 0
144 -9.02684640174583 -33.997444905023 0
145 -137.58768905 94.725854786249 0
146 -109.994515090114 -79.9736572358382 0
147 -179.981465578429 -19.9908301129312 0
148 -38.5884150735375 -78.5693168403594 0
149 -84.5233103057844 80.7870925493217 0
150 -16.2554628087282 7.41543882187948 0
151 -22.9945446533175 -78.5880537640471 0
152 -17.2917640958372 57.8789252089245 0
153 -114.494611640225 84.0701595647053 0
154 -134.238231032214 71.9472344637621 0
155 -20.6953321716134 -89.9235569039874 0
156 -179.998097089576 -69.9985269898479 0
157 -179.999336261466 -79.9990263503351 0
158 -170.000038042511 -89.9989670022734 0
159 -189.998085385737 -59.9994097394309 0
160 -150.001510290881 -89.9966850122175 0
161 -10.1046909579379 79.8358082673654 0
162 -179.983830438174 90.0902754763795 0
163 -19.9369231289246 89.9581745132396 0
164 -189.995180249013 -39.9986684866901 0
165 -130.00277997206 -89.9932949059033 0
166 -59.8880352865099 -89.927848944962 0
167 -189.98979381244 -9.9924796595526 0
168 -40.0438078378692 89.7128989950147 0
169 -99.990156877655 -89.9868598333959 0
170 -189.978575588501 10.0273419739548 0
171 -189.883082504638 70.1918684725462 0
172 -9.81991481773179 50.3759715804231 0
173 -79.9614839886189 -89.9851825136394 0
174 -189.962044190128 30.0959672570149 0
175 -189.926496613654 50.1899210058173 0
176 -63.6151028008543 88.5575149599441 0
177 -10.2200491012825 33.3523102008586 0
178 -87.3876763845324 90.49861763973 0
179 -9.29550248331277 4.32716722907241 0
180 -116.988960154176 90.8175387332508 0
181 -11.4345395778662 -58.6369364113882 0
182 -161.410872161489 87.1307251766299 0
183 -141.178086114431 79.5694662616213 0
184 -23.4623148494975 -16.3707177099051 0
185 -16.1773424162655 -46.5532712063016 0
186 -12.1103066844306 -26.4981603010156 0
187 -179.908204732638 20.1269726136236 0
188 -69.7841039261036 -79.9676221084581 0
189 -20.4274042771639 34.5953353668133 0
190 -179.730763740174 60.4761555343482 0
191 -140.005768785171 -79.9883559325538 0
192 -50.4167518460995 78.7781689871328 0
193 -170.131576076343 80.3525973699481 0
194 -145.815702839606 72.4961067221269 0
195 -179.992448498636 -49.9970213886251 0
196 -179.984913828348 -29.9944396780579 0
197 -19.2632797709702 71.9883333623735 0
198 -49.7414296363384 -79.7933286789434 0
199 -103.613028036864 79.3263336479905 0
200 -21.0628639525605 -8.31503290442769 0
201 -31.6464524986938 -30.7553240581061 0
202 -179.890942178494 80.2705701341051 0
203 -30.5627966211102 -82.7050487519363 0
204 -18.3506098393241 -61.466451127217 0
205 -160.00047414425 -79.9952613141206 0
206 -169.999380736471 -79.9974624415123 0
207 -120.003487085241 -79.9791745147607 0
208 -179.995584159446 -59.9975729406779 0
209 -179.962490933287 0.0308172160163214 0
210 -179.880140555569 40.3109774359133 0
211 -29.386970006295 79.4947155239878 0
212 -19.6628328949017 79.8287172712189 0
213 -74.7487457921496 83.1664505837216 0
214 -89.9354009319961 -79.9555364209073 0
215 -179.974058445269 -9.98276534133299 0
216 -19.8186922732163 19.4167386504171 0
217 -21.9729752957653 46.2710095700142 0
218 -99.9721772558533 -79.9622539071867 0
219 -20.0458850551805 -0.043021895421158 0
220 -94.3597869416411 80.0499832692794 0
221 -20.4590394655694 -70.8518659245784 0
222 -120.565356320047 81.6704829772695 0
223 -153.137215367563 80.5718213347344 0
224 -17.0648520064983 -52.3090005816384 0
225 -23.8569940796217 -37.4615954037142 0
226 -127.304341523458 64.580165779676 0
227 -109.998587536446 -69.9467444787782 0
228 -169.916283118422 0.042707344116632 0
229 -34.1638809460663 48.2847825135124 0
230 -42.6544393577226 -70.8544476802685 0
231 -82.0903481554638 70.9105107436999 0
232 -169.963699036221 -19.9833247296438 0
233 -169.993420295279 -59.993917580545 0
234 -27.1074778510738 66.6671032186113 0
235 -29.6760191062755 23.0986642563398 0
236 -24.4279722581469 -52.102680203504 0
237 -27.9098739894482 10.5319893295944 0
238 -101.530416160442 72.138169783071 0
239 -156.559555528398 72.668459370517 0
240 -25.6212575132021 -64.9414478358963 0
241 -120.152332281655 57.8930845047897 0
242 -169.458935381605 70.8631434986119 0
243 -33.7372314602759 -40.1858070029655 0
244 -150.002837471171 -79.9918974547213 0
245 -179.821025506933 50.3915602050283 0
246 -179.93294099785 10.0663590412133 0
247 -79.8602124640159 -79.9538576435916 0
248 -169.997332859074 -69.9955574555618 0
249 -179.988464993534 -39.9959187172764 0
250 -20.0313447460601 29.9857489281569 0
251 -130.006610793546 -79.9836334329416 0
252 -61.1543919089071 76.5776990506238 0
253 -59.7086703267893 -79.9684710206062 0
254 -39.7152713061276 79.127078779237 0
255 -179.885427601103 30.2174554552638 0
256 -31.6330893601429 -70.9116489393136 0
257 -89.8897929057613 -69.8963737513246 0
258 -179.761305668554 70.4319381707409 0
259 -139.435998375877 64.5134494366885 0
260 -163.16266222386 80.258226955993 0
261 -24.7798351121859 -47.5580278164911 0
262 -39.1052797478624 -23.7821505230322 0
263 -30.5446356027111 -11.3825874264363 0
264 -113.603085863941 74.9874359960378 0
265 -169.799804319057 40.3550645142925 0
266 -133.021775067715 57.1513036555837 0
267 -69.4632841286979 -69.9648532744086 0
268 -159.864950323369 60.2321490341756 0
269 -140.008157227961 -69.97874220076 0
270 -120.009144776035 -69.9590407774291 0
271 -30.1862725760231 40.0984705592555 0
272 -49.6642301484167 68.6382446913824 0
273 -39.2844258483923 -65.0125724322893 0
274 -39.272940370867 18.5391852299318 0
275 -149.017318997913 64.8787189726691 0
276 -46.1934302647482 -16.3402362841238 0
277 -33.6417574749561 -55.4218708368465 0
278 -169.482260260428 60.6837523712568 0
279 -169.987507287113 -49.9924935082782 0
280 -169.972087105244 -29.9890954910703 0
281 -169.788381445334 20.1386026145076 0
282 -159.998553746859 -69.9914338944568 0
283 -49.6338364712474 -70.6310284383193 0
284 -71.8199929072463 73.2628146797266 0
285 -169.94509240815 -9.97186301055724 0
286 -99.9695345551043 -69.9232069873162 0
287 -32.3452225624962 -2.28717871025035 0
288 -93.3049572361189 69.1240319860236 0
289 -169.852148428809 10.0685802703803 0
290 -31.2401312398174 54.7332877870419 0
291 -30.8439750203387 32.3511109779633 0
292 -39.5447740762664 68.2984675801566 0
293 -79.7108282668162 -69.8916043585942 0
294 -42.1836676887926 -34.1105963504682 0
295 -112.469713027468 51.9044190255896 0
296 -159.810542873736 0.0323160221586374 0
297 -110.035641442512 -59.90766022448 0
298 -68.9755655724888 -59.9944008872477 0
299 -49.6308503352065 -27.0455488327663 0
300 -81.1702592263278 61.0913475845526 0
301 -159.932061387523 -19.9677296422088 0
302 -41.1005341235071 49.1333427033946 0
303 -44.1275069894373 28.9377783815774 0
304 -144.912996510236 57.3053097297298 0
305 -160.1971693662 50.4520766038733 0
306 -150.002401861924 -69.9857658906544 0
307 -89.9147042908252 -59.859833730153 0
308 -169.754007725778 30.2239310782862 0
309 -59.2650438383646 -70.2249440337497 0
310 -159.993654835924 -59.9879940732707 0
311 -58.8980286282628 66.197072371406 0
312 -169.979985455752 -39.9912707713004 0
313 -130.010878784022 -69.9688873424245 0
314 -169.808421411451 50.4410787647319 0
315 -159.600754589118 19.9223064074958 0
316 -36.4688561836901 11.5590074257986 0
317 -40.3244643045286 58.1393639918779 0
318 -100.279835030749 62.3563268751737 0
319 -125.776258652343 50.6953672267685 0
320 -45.8991555755378 -52.2325876977425 0
321 -44.4033730904819 -44.7624697645222 0
322 -48.2157670450143 -61.8444620660215 0
323 -53.7738346082998 -8.12072521602673 0
324 -41.7774258242581 6.14381523360625 0
325 -105.937480167321 47.7679916998005 0
326 -153.587541136978 59.2244476449098 0
327 -107.018196941468 68.6452088733164 0
328 -140.00729236437 -59.9636526608137 0
329 -151.734425423232 52.3172775053929 0
330 -159.472948630913 30.0087199804837 0
331 -131.903600831432 42.9090379907892 0
332 -54.9683270314199 20.5676865028085 0
333 -56.9364565551385 -50.8802273741415 0
334 -54.0604318200118 -40.2508150054386 0
335 -56.1269532393262 -19.2213765650217 0
336 -100.023067829275 -59.8896111275554 0
337 -159.884081170266 -9.95884264641819 0
338 -69.40915180369 60.2976872471451 0
339 -79.5650463281626 -59.8829863725343 0
340 -159.984858054966 -49.9852737504795 0
341 -159.953801921412 -29.9760216831041 0
342 -159.68568259697 9.97181127534643 0
343 -120.030292509929 -59.9223413383377 0
344 -88.7138929128161 61.6537374999702 0
345 -149.998066733109 -59.9782670379069 0
346 -159.621487268789 40.4014474725095 0
347 -41.7807819432274 40.2315539018805 0
348 -49.4848856633764 58.9052484770387 0
349 -58.3584670233514 -60.6382683175836 0
350 -105.328298602854 39.9820821116951 0
351 -117.274129809134 45.1290002970273 0
352 -48.4084226972183 13.2720460189241 0
353 -93.0524188757207 56.4251886761303 0
354 -56.0845638506584 -2.2527864870672 0
355 -149.592467631589 -0.026254025027374 0
356 -110.13384278198 -49.8495083317261 0
357 -149.881534973924 -19.9397487084004 0
358 -114.090230557692 31.9764257211386 0
359 -89.9582070336247 -49.903797916897 0
360 -149.287336860163 19.6913006732312 0
361 -82.9023891963015 50.2989978813831 0
362 -60.1438246173793 -30.9413760894593 0
363 -123.173326383976 37.4670414633313 0
364 -62.505133518543 27.247889152168 0
365 -51.3169609332148 41.5771847558616 0
366 -55.2695659331798 34.0163662140379 0
367 -56.4148618066314 58.8805189966396 0
368 -130.019276733597 -59.9408584663763 0
369 -159.971407403276 -39.9809676625207 0
370 -149.988204871751 -49.9685146164119 0
371 -62.0442566325056 -10.453682570861 0
372 -67.2378312616141 2.73504194330517 0
373 -50.1001130813178 49.9350595740179 0
374 -68.286705492313 -50.2406999813363 0
375 -95.8730368807852 30.5792732026401 0
376 -147.697200032337 41.1933578865178 0
377 -139.225191181814 49.7439851612357 0
378 -73.6615906018131 -7.39704846497622 0
379 -121.217596902347 24.9662282034466 0
380 -149.936822292373 -29.941749479486 0
381 -73.2134501856465 51.3044603312114 0
382 -67.9763933688411 -33.9214204575553 0
383 -86.6056543080748 21.0646569115024 0
384 -137.747276020533 34.9529835325213 0
385 -105.524546467282 25.1911643679786 0
386 -76.6324345574328 40.7303750628436 0
387 -120.08940899625 -49.8584285457292 0
388 -79.3612757104197 -50.046362779915 0
389 -149.768357820068 -9.9663529915047 0
390 -100.121299659604 -49.8626694127627 0
391 -149.261229175185 9.90129436258719 0
392 -149.970316644783 -39.9523018287119 0
393 -140.004480139846 -49.9341078959779 0
394 -60.1737864357673 51.017379681357 0
395 -67.8353622482332 -40.8174224875705 0
396 -69.9965197726398 33.7496714943832 0
397 -73.6692841292758 11.9723100625947 0
398 -149.285081187114 29.4488908219439 0
399 -62.7033662255763 39.1824506023882 0
400 -98.7564222535053 17.2204220390852 0
401 -139.260330834318 -0.244487226804658 0
402 -110.282002407145 -39.7936879950188 0
403 -139.843083403355 -19.9359317360263 0
404 -70.5773300945391 -14.3032604575939 0
405 -130.041314581277 -49.8899390728374 0
406 -89.79221100188 -39.8437258852003 0
407 -137.210472978214 21.0395566346339 0
408 -113.731762063513 19.7923266606683 0
409 -139.995191626066 -39.8980971663568 0
410 -76.5713891502355 -28.9950475892135 0
411 -76.7388350340235 18.090083857839 0
412 -129.499087953515 29.7590280945164 0
413 -81.8051586072295 1.26084300824194 0
414 -78.7586698709898 -40.252256131473 0
415 -68.7226975106932 45.7951403848492 0
416 -107.805834825609 13.1621366295855 0
417 -81.2225882331165 -8.11708441534894 0
418 -120.171242345278 -39.8041807632835 0
419 -89.6835267522116 -29.4712427310116 0
420 -94.4077493129231 8.56376600030967 0
421 -139.952725578708 -29.8914280804001 0
422 -139.61838540004 -10.0820076911151 0
423 -138.532538892635 9.63890165794518 0
424 -100.192677561552 -39.7949893327689 0
425 -130.063223810707 -39.8452586883962 0
426 -119.021456367477 15.4765270988759 0
427 -83.9807915529996 10.3864371176483 0
428 -65.6976417274797 -23.0216878587561 0
429 -57.9942503933958 43.5202244789906 0
430 -128.903762484799 -0.758270012990525 0
431 -110.385217547335 -29.8426569846291 0
432 -79.93650208655 -17.5870462097812 0
433 -116.638516510552 8.03714160762367 0
434 -129.891591485047 -20.0226175130327 0
435 -103.570051136202 5.92385805523137 0
436 -130.035267929234 -29.8770330562293 0
437 -92.2131319257518 -0.339926562660147 0
438 -100.312464348899 -29.7436413134588 0
439 -125.879924588645 17.3688577677813 0
440 -141.724484106326 28.9186907544534 0
441 -110.358027879017 -20.1465337066109 0
442 -91.1305139069959 -9.49130644399203 0
443 -90.2319440721864 -19.1899326463628 0
444 -129.55185383961 -10.385237546372 0
445 -109.78496761869 3.69513079087808 0
446 -127.924300990691 8.64510345205794 0
447 -120.180918261173 -29.8879995694982 0
448 -101.504677944819 -1.8452926926852 0
449 -110.11580148936 -2.36583955458162 0
450 -119.757947925585 -10.7519280161433 0
451 -100.465170901795 -19.8878286017059 0
452 -120.063949589879 -20.1856660418356 0
453 -119.025490455747 -1.69328257642807 0
454 -100.80661808427 -10.5012739885034 0
455 -110.258643223727 -10.9146503522917 0
456 0 -100 0
457 0 -50 0
458 0 100 0
459 200 -100 0
460 200 100 0
461 0 -90 0
462 0 -80 0
463 0 -70 0
464 0 -60 0
465 0 -40 0
466 0 -30 0
467 0 -20 0
468 0 -10 0
469 0 0 0
470 0 10 0
471 0 20 0
472 0 30 0
473 0 40 0
474 0 50 0
475 0 60 0
476 0 70 0
477 0 80 0
478 0 90 0
479 10 -100 0
480 20 -100 0
481 30 -100 0
482 40 -100 0
483 50 -100 0
484 60 -100 0
485 70 -100 0
486 80 -100 0
487 90 -100 0
488 100 -100 0
489 110 -100 0
490 120 -100 0
491 130 -100 0
492 140 -100 0
493 150 -100 0
494 160 -100 0
495 170 -100 0
496 180 -100 0
497 190 -100 0
498 200 -90 0
499 200 -80 0
500 200 -70 0
501 200 -60 0
502 200 -50 0
503 200 -40 0
504 200 -30 0
505 200 -20 0
506 200 -10 0
507 200 0 0
508 200 10 0
509 200 20 0
510 200 30 0
511 200 40 0
512 200 50 0
513 200 60 0
514 200 70 0
515 200 80 0
516 200 90 0
517 190 100 0
518 180 100 0
519 170 100 0
520 160 100 0
521 150 100 0
522 140 100 0
523 130 100 0
524 120 100 0
525 110 100 0
526 100 100 0
527 90 100 0
528 80 100 0
529 70 100 0
530 60 100 0
531 50 100 0
532 40 100 0
533 30 100 0
534 20 100 0
535 10 100 0
536 10 4.33680868994202E-18 0
537 110 -90 0
538 190 1.21014309684142E-14 0
539 70 90 0
540 130 90 0
541 190 -40 0
542 70 -90 0
543 10 60 0
544 190 30 0
545 10 -50 0
546 150 -90 0
547 40 -90 0
548 190 -70 0
549 190 60 0
550 20 90 0
551 40 90 0
552 150 90 0
553 10 -70 0
554 170 90 0
555 180 -90 0
556 90 90 0
557 10 -20 0
558 10 40 0
559 190 80 0
560 10 -90 0
561 170 -90 0
562 10 80 0
563 130 -90 0
564 190 -90 0
565 190 -20 0
566 10 30 0
567 10 90 0
568 30 -90 0
569 60 -90 0
570 90 -90 0
571 190 -60 0
572 190 10 0
573 100 90 0
574 50 90 0
575 10 -30 0
576 10 20 0
577 190 40 0
578 190 90 0
579 110 90 0
580 90 80 0
581 180 2.03170813506404E-14 0
582 20 40 0
583 20 -20 0
584 70 -80 0
585 180 30 0
586 40 80 0
587 20 80 0
588 180 -70 0
589 40 -80 0
590 190 50 0
591 180 -80 0
592 30 90 0
593 10 70 0
594 180 80 0
595 80 90 0
596 190 -9.99999999999999 0
597 80 -90 0
598 190 -30 0
599 60 90 0
600 10 10 0
601 10 50 0
602 120 -90 0
603 190 -80 0
604 190 -50 0
605 190 20 0
606 190 70 0
607 180 90 0
608 20 30 0
609 100 80 0
610 100 -90 0
611 140 90 0
612 120 90 0
613 10 -80 0
614 10 -60 0
615 10 -40 0
616 10 -10 0
617 20 -90 0
618 50 -90 0
619 140 -90 0
620 160 90 0
621 160 -90 0
622 90 70 0
623 120 -80 0
624 30 40 0
625 180 -40 0
626 130 80 0
627 150 80 0
628 180 60 0
629 70 80 0
630 170 80 0
631 20 -50 0
632 160 -80 0
633 100 -80 0
634 80 -80 0
635 50 80 0
636 30 -80 0
637 180 10 0
638 50 -80 0
639 20 70 0
640 180 40 0
641 30 80 0
642 80 80 0
643 180 -20 0
644 20 60 0
645 180 -9.99999999999998 0
646 180 -60 0
647 110 80 0
648 20 50 0
649 170 -70 0
650 20 -1.47357419884267E-16 0
651 20 -10 0
652 150 -80 0
653 20 -70 0
654 20 -30 0
655 20 20 0
656 180 20 0
657 20 -80 0
658 130 -80 0
659 60 -80 0
660 170 -80 0
661 180 70 0
662 170 20 0
663 30 -1.18599852294098E-15 0
664 80 -70 0
665 170 -20 0
666 130 -70 0
667 40 70 0
668 60 -70 0
669 170 -60 0
670 30 -20 0
671 30 60 0
672 30 50 0
673 170 30 0
674 80 70 0
675 90 -80 0
676 180 -30 0
677 160 80 0
678 180 -50 0
679 30 70 0
680 40 -70 0
681 180 50 0
682 60 80 0
683 20 10 0
684 120 80 0
685 160 -70 0
686 110 -80 0
687 170 3.04686831320566E-14 0
688 30 -70 0
689 30 30 0
690 100 70 0
691 140 80 0
692 20 -60 0
693 20 -40 0
694 140 -80 0
695 170 60 0
696 170 70 0
697 160 20 0
698 80 60 0
699 130 70 0
700 40 50 0
701 160 -60 0
702 30 10 0
703 30 -40 0
704 110 -70 0
705 90 -70 0
706 150 -70 0
707 170 50 0
708 70 70 0
709 170 -40 0
710 170 -50 0
711 40 60 0
712 150 70 0
713 160 70 0
714 30 20 0
715 40 40 0
716 40 -60 0
717 170 -30 0
718 120 -70 0
719 30 -50 0
720 170 10 0
721 170 -9.99999999999997 0
722 30 -10 0
723 30 -60 0
724 90 60 0
725 50 70 0
726 50 -70 0
727 110 70 0
728 30 -30 0
729 70 -70 0
730 140 -70 0
731 170 40 0
732 40.0000024095348 -1.67897835445523E-06 0
733 90 -60 0
734 160 -20 0
735 79.9999990087338 49.9999991776109 0
736 130 -60 0
737 50 50 0
738 40 -30 0
739 70 -60 0
740 50 -60 0
741 160 40 0
742 150 60 0
743 160 4.17305079380981E-14 0
744 160 10 0
745 160 -50 0
746 100 -70 0
747 50 60 0
748 160 60 0
749 69.9999999380459 59.9999999486007 0
750 40.0000024095348 19.9999983210216 0
751 160 -40 0
752 120 70 0
753 140 70 0
754 150 -60 0
755 40 -40 0
756 40 -50 0
757 40.0000003011918 -10.0000002098723 0
758 40.0000003011918 29.9999997901277 0
759 100 60 0
760 120 -60 0
761 59.9999999961279 69.9999999967876 0
762 160 30 0
763 149.999942986531 -5.70134689417134E-05 0
764 50.0000483789408 -10.0000337107372 0
765 130 -50 0
766 50.0000463517064 29.9999660223953 0
767 150 30 0
768 120 60 0
769 69.9999998683475 49.9999998907765 0
770 100 -60 0
771 50 -30 0
772 50 -50 0
773 150 -50 0
774 59.9999999835434 59.9999999863471 0
775 110 -60 0
776 140 60 0
777 160 50 0
778 50.0000058127878 39.9999957396824 0
779 140 -60 0
780 40.0000054214533 9.99999622229871 0
781 159.999996436658 -10.0000035633418 0
782 80 -60 0
783 40.0000030613328 -20.0000021331551 0
784 160 -30 0
785 89.9999899634299 49.9999916733099 0
786 110 60 0
787 60 -60 0
788 149.999991228697 19.9999912286971 0
789 79.9974683467165 40.0001157637765 0
790 90 -50 0
791 109.999876711269 49.9998977153506 0
792 139.996490696398 19.9969951774253 0
793 149.999998903587 -30.0000010964128 0
794 149.999954053448 -10.0000459465516 0
795 59.999958529543 40.0000018817909 0
796 150 40 0
797 110 -50 0
798 120 -50 0
799 130 60 0
800 59.9999951571063 49.999999950382 0
801 140 -50 0
802 149.999999862948 -40.0000001370516 0
803 50 -40 0
804 50.0001756748523 -0.000122411294738229 0
805 149.999735167391 9.99976669745522 0
806 80 -50 0
807 50.0001858241879 19.9998669477419 0
808 60 -50 0
809 99.9999327797621 49.9999442317364 0
810 50.0000112679283 -20.0000078515603 0
811 139.999983148475 49.9999860193846 0
812 149.999997893559 49.9999982524231 0
813 60.0039972471984 -0.00221997210514735 0
814 90.0013262274864 -39.9991131968507 0
815 60.0015264091896 -20.0009794494013 0
816 129.999916238008 49.9999305081176 0
817 129.99996717992 -40.0000273765655 0
818 99.9886683299859 39.9988840802024 0
819 139.999696242598 39.9997469330025 0
820 149.999982932792 -20.000017067208 0
821 69.9992271203524 40.0000600851164 0
822 120.000248474229 -39.9997586056352 0
823 119.999827659081 49.9998570199379 0
824 139.999687962619 -30.0003089951289 0
825 139.999939196028 -40.0000597432507 0
826 60.000091080002 -40.0000315820333 0
827 50.0005162465539 9.99967348409395 0
828 89.9911380602575 39.9997570954184 0
829 60.0001178748724 29.9997700792694 0
830 100.000082889218 -49.9999445748032 0
831 70.0000056925001 -50.0000019738771 0
832 139.993521142562 9.99433217029026 0
833 139.996355105956 -10.0034057953196 0
834 139.998205665044 29.9984888662251 0
835 129.977855238702 19.9864796141211 0
836 79.987767808141 30.0018593575245 0
837 60.0039659408108 9.99836153982441 0
838 110.001094703842 -39.9990278344798 0
839 80.0009192724369 -39.9996469747223 0
840 129.997516156315 39.9986640154681 0
841 139.998191227672 -20.0017514843795 0
842 129.999191250332 -30.0006481532628 0
843 69.9977590256072 30.0000028296499 0
844 60.0018304034864 19.9991855709391 0
845 139.992611514318 -0.00663366507118527 0
846 109.987498584149 39.997591717542 0
847 89.9629691888243 30.0048170234513 0
848 60.0035726100362 -10.0023671531588 0
849 60.0007102934691 -30.0003955046417 0
850 100.001942219718 -39.9984311104453 0
851 70.0005279535445 -40.0000152272594 0
852 129.984111197912 -10.0117443547366 0
853 70.0266875617113 -0.00180855208261524 0
854 90.0179480559721 -29.9887992772207 0
855 79.9905678111082 20.0119848085037 0
856 129.994646437483 -20.0038080837574 0
857 120.00234408384 -29.9972595453378 0
858 70.0030099326769 20.0013890073451 0
859 99.9420714693383 30.0025108120135 0
860 119.991408575052 39.9972860356048 0
861 70.0252796597313 -10.0005401564519 0
862 129.966554717574 9.97881002144566 0
863 70.0143811411633 -19.9992199799669 0
864 80.0124311837974 -29.9949402809215 0
865 70.0061783960639 -29.9988788037741 0
866 110.012172689978 -29.9887857234834 0
867 129.98803205105 29.9936321117276 0
868 119.94307762868 19.9847431725207 0
869 80.0826369681672 0.0393966752688132 0
870 119.990909954091 -9.9917408940529 0
871 109.945513754607 29.9954304936027 0
872 80.0330902841538 10.0345017984643 0
873 89.9542264289582 20.0371970165825 0
874 129.970138779605 -0.01869230397621 0
875 100.022478083658 -29.9823610055391 0
876 80.081038512574 -9.9636550347916 0
877 90.0769505528372 -19.9496458488219 0
878 120.00637075117 -19.9889109824583 0
879 80.0470286321418 -19.9778277462534 0
880 70.0169400178279 10.00675095558 0
881 119.966396299877 29.9920747758966 0
882 119.96483640614 0.00490424593288974 0
883 109.914962880794 20.0123386815393 0
884 110.060336748129 -9.91521100559682 0
885 119.947995642064 9.99940164896292 0
886 99.9285615948625 20.0432782495215 0
887 110.043013666265 -19.9554256605981 0
888 90.0379546344444 10.0959564929101 0
889 90.1452509137735 -9.89230976449186 0
890 100.078846597649 -19.93192040174 0
891 110.02791189762 0.0978630207322788 0
892 100.010182410049 10.112329657602 0
893 109.97516582812 10.0595281598089 0
894 100.132291159015 -9.86752613486328 0
895 90.1237470064062 0.120357760675029 0
896 100.094679663819 0.138915439263076 0
$EndNodes
$Elements
815
1 2 2 1 1 100 3 30 
2 2 2 1 1 3 142 29 
3 3 2 1 1 386 361 88 89
4 3 2 1 1 332 92 93 352
5 3 2 1 1 375 383 90 89
6 3 2 1 1 226 241 85 84
7 3 2 1 1 433 416 408 426
8 3 2 1 1 287 95 96 263
9 3 2 1 1 334 362 382 395
10 3 2 1 1 416 400 385 408
11 3 2 1 1 333 374 298 349
12 3 2 1 1 400 383 375 385
13 3 2 1 1 432 404 378 417
14 3 2 1 1 325 350 88 87
15 3 2 1 1 333 320 321 334
16 3 2 1 1 239 268 326 275
17 3 2 1 1 432 417 442 443
18 3 2 1 1 363 358 350 351
19 3 2 1 1 374 333 334 395
20 3 2 1 1 199 264 327 238
21 3 2 1 1 361 386 415 381
22 3 2 1 1 222 143 82 83
23 3 2 1 1 184 263 96 97
24 3 2 1 1 396 364 366 399
25 3 2 1 1 332 364 91 92
26 3 2 1 1 236 261 243 277
27 3 2 1 1 449 448 435 445
28 3 2 1 1 377 266 259 304
29 3 2 1 1 96 95 323 276
30 3 2 1 1 420 437 413 427
31 3 2 1 1 428 335 371 404
32 3 2 1 1 372 378 404 371
33 3 2 1 1 404 432 410 428
34 3 2 1 1 239 242 278 268
35 3 2 1 1 57 145 143 56
36 3 2 1 1 344 353 361 300
37 3 2 1 1 239 260 193 242
38 3 2 1 1 148 256 273 230
39 3 2 1 1 30 31 186 144
40 3 2 1 1 449 445 433 453
41 3 2 1 1 446 430 453 433
42 3 2 1 1 262 276 335 299
43 3 2 1 1 294 299 362 334
44 3 2 1 1 428 362 299 335
45 3 2 1 1 438 451 441 431
46 3 2 1 1 265 346 305 314
47 3 2 1 1 117 193 260 182
48 3 2 1 1 303 347 365 366
49 3 2 1 1 424 438 431 402
50 3 2 1 1 193 117 162 202
51 3 2 1 1 388 414 406 359
52 3 2 1 1 380 392 409 421
53 3 2 1 1 313 368 328 269
54 3 2 1 1 193 202 258 242
55 3 2 1 1 287 237 316 324
56 3 2 1 1 28 29 142 181
57 3 2 1 1 242 258 190 278
58 3 2 1 1 148 203 151 256
59 3 2 1 1 346 330 398 376
60 3 2 1 1 176 252 192 106
61 3 2 1 1 293 267 298 339
62 3 2 1 1 423 446 439 407
63 3 2 1 1 211 116 168 254
64 3 2 1 1 346 265 308 330
65 3 2 1 1 391 423 407 360
66 3 2 1 1 376 398 440 384
67 3 2 1 1 289 342 315 281
68 3 2 1 1 270 343 368 313
69 3 2 1 1 266 226 154 259
70 3 2 1 1 394 429 365 373
71 3 2 1 1 384 412 363 331
72 3 2 1 1 218 214 257 286
73 3 2 1 1 173 247 214 133
74 3 2 1 1 255 308 265 210
75 3 2 1 1 246 289 281 187
76 3 2 1 1 176 136 112 213
77 3 2 1 1 175 245 190 107
78 3 2 1 1 253 309 267 188
79 3 2 1 1 274 352 324 316
80 3 2 1 1 118 125 221 151
81 3 2 1 1 120 199 220 140
82 3 2 1 1 368 343 387 405
83 3 2 1 1 174 255 210 135
84 3 2 1 1 430 444 450 453
85 3 2 1 1 207 270 313 251
86 3 2 1 1 248 233 208 156
87 3 2 1 1 299 294 201 262
88 3 2 1 1 358 363 412 379
89 3 2 1 1 272 348 317 292
90 3 2 1 1 377 331 319 266
91 3 2 1 1 338 311 252 284
92 3 2 1 1 170 246 187 103
93 3 2 1 1 276 323 371 335
94 3 2 1 1 291 189 217 271
95 3 2 1 1 421 436 434 403
96 3 2 1 1 304 259 194 275
97 3 2 1 1 233 279 195 208
98 3 2 1 1 215 285 228 209
99 3 2 1 1 328 393 370 345
100 3 2 1 1 285 337 296 228
101 3 2 1 1 435 416 433 445
102 3 2 1 1 106 192 254 168
103 3 2 1 1 114 23 24 155
104 3 2 1 1 2 26 124 25
105 3 2 1 1 151 155 124 118
106 3 2 1 1 24 25 124 155
107 3 2 1 1 124 26 27 118
108 3 2 1 1 125 118 27 28
109 3 2 1 1 4 44 122 43
110 3 2 1 1 163 122 44 45
111 3 2 1 1 6 62 123 61
112 3 2 1 1 234 152 130 197
113 3 2 1 1 1 7 128 80
114 3 2 1 1 406 419 438 424
115 3 2 1 1 158 119 8 9
116 3 2 1 1 227 297 343 270
117 3 2 1 1 80 128 127 79
118 3 2 1 1 8 119 128 7
119 3 2 1 1 408 379 439 426
120 3 2 1 1 157 127 128 119
121 3 2 1 1 134 207 251 165
122 3 2 1 1 78 79 127 115
123 3 2 1 1 205 282 248 206
124 3 2 1 1 158 9 10 110
125 3 2 1 1 160 110 10 11
126 3 2 1 1 196 132 164 249
127 3 2 1 1 284 252 176 213
128 3 2 1 1 78 115 159 77
129 3 2 1 1 364 332 303 366
130 3 2 1 1 119 158 206 157
131 3 2 1 1 127 157 156 115
132 3 2 1 1 235 291 303 274
133 3 2 1 1 307 359 390 336
134 3 2 1 1 306 282 205 244
135 3 2 1 1 43 122 161 42
136 3 2 1 1 61 123 162 60
137 3 2 1 1 158 110 205 206
138 3 2 1 1 420 400 416 435
139 3 2 1 1 76 77 159 109
140 3 2 1 1 157 206 248 156
141 3 2 1 1 160 11 12 105
142 3 2 1 1 165 105 12 13
143 3 2 1 1 237 216 250 235
144 3 2 1 1 189 291 235 250
145 3 2 1 1 115 156 208 159
146 3 2 1 1 166 253 188 104
147 3 2 1 1 271 217 290 229
148 3 2 1 1 337 389 355 296
149 3 2 1 1 405 393 328 368
150 3 2 1 1 22 23 114 126
151 3 2 1 1 159 208 195 109
152 3 2 1 1 244 205 110 160
153 3 2 1 1 254 192 272 292
154 3 2 1 1 76 109 164 75
155 3 2 1 1 132 196 147 101
156 3 2 1 1 134 102 146 207
157 3 2 1 1 109 195 249 164
158 3 2 1 1 212 161 122 163
159 3 2 1 1 182 58 59 117
160 3 2 1 1 163 45 46 116
161 3 2 1 1 168 116 46 47
162 3 2 1 1 240 256 151 221
163 3 2 1 1 244 160 105 191
164 3 2 1 1 258 171 107 190
165 3 2 1 1 198 283 309 253
166 3 2 1 1 336 297 227 286
167 3 2 1 1 171 137 63 64
168 3 2 1 1 62 63 137 123
169 3 2 1 1 340 279 233 310
170 3 2 1 1 197 130 161 212
171 3 2 1 1 403 434 444 422
172 3 2 1 1 367 348 272 311
173 3 2 1 1 311 272 192 252
174 3 2 1 1 41 42 161 130
175 3 2 1 1 280 196 249 312
176 3 2 1 1 59 60 162 117
177 3 2 1 1 21 129 166 20
178 3 2 1 1 280 232 147 196
179 3 2 1 1 345 310 282 306
180 3 2 1 1 312 249 195 279
181 3 2 1 1 306 244 191 269
182 3 2 1 1 388 359 307 339
183 3 2 1 1 369 312 279 340
184 3 2 1 1 165 13 14 134
185 3 2 1 1 129 198 253 166
186 3 2 1 1 370 340 310 345
187 3 2 1 1 163 116 211 212
188 3 2 1 1 251 191 105 165
189 3 2 1 1 341 301 232 280
190 3 2 1 1 380 357 301 341
191 3 2 1 1 202 162 123 137
192 3 2 1 1 308 255 187 281
193 3 2 1 1 341 280 312 369
194 3 2 1 1 74 75 164 132
195 3 2 1 1 246 170 131 209
196 3 2 1 1 131 167 215 209
197 3 2 1 1 387 343 297 356
198 3 2 1 1 392 369 340 370
199 3 2 1 1 40 111 172 39
200 3 2 1 1 133 214 218 169
201 3 2 1 1 245 175 135 210
202 3 2 1 1 447 418 402 431
203 3 2 1 1 418 387 356 402
204 3 2 1 1 336 286 257 307
205 3 2 1 1 391 360 315 342
206 3 2 1 1 167 72 73 101
207 3 2 1 1 357 380 421 403
208 3 2 1 1 406 414 410 419
209 3 2 1 1 380 341 369 392
210 3 2 1 1 451 438 419 443
211 3 2 1 1 398 330 315 360
212 3 2 1 1 220 199 238 288
213 3 2 1 1 424 390 359 406
214 3 2 1 1 270 207 146 227
215 3 2 1 1 409 392 370 393
216 3 2 1 1 108 172 152 217
217 3 2 1 1 22 126 129 21
218 3 2 1 1 169 102 15 16
219 3 2 1 1 229 302 347 271
220 3 2 1 1 293 247 188 267
221 3 2 1 1 389 422 401 355
222 3 2 1 1 203 148 126 114
223 3 2 1 1 388 339 298 374
224 3 2 1 1 215 167 101 147
225 3 2 1 1 167 131 71 72
226 3 2 1 1 170 70 71 131
227 3 2 1 1 139 177 189 250
228 3 2 1 1 40 41 130 111
229 3 2 1 1 410 432 443 419
230 3 2 1 1 305 346 376 329
231 3 2 1 1 330 308 281 315
232 3 2 1 1 283 198 148 230
233 3 2 1 1 151 203 114 155
234 3 2 1 1 418 425 405 387
235 3 2 1 1 285 215 147 232
236 3 2 1 1 173 133 17 18
237 3 2 1 1 169 16 17 133
238 3 2 1 1 436 421 409 425
239 3 2 1 1 174 68 69 103
240 3 2 1 1 170 103 69 70
241 3 2 1 1 269 328 345 306
242 3 2 1 1 247 173 104 188
243 3 2 1 1 447 436 425 418
244 3 2 1 1 292 234 211 254
245 3 2 1 1 400 420 427 383
246 3 2 1 1 202 137 171 258
247 3 2 1 1 450 444 434 452
248 3 2 1 1 218 146 102 169
249 3 2 1 1 314 245 210 265
250 3 2 1 1 313 269 191 251
251 3 2 1 1 173 18 19 104
252 3 2 1 1 19 20 166 104
253 3 2 1 1 339 307 257 293
254 3 2 1 1 422 389 357 403
255 3 2 1 1 442 454 451 443
256 3 2 1 1 255 174 103 187
257 3 2 1 1 364 396 90 91
258 3 2 1 1 372 371 323 354
259 3 2 1 1 389 337 301 357
260 3 2 1 1 235 274 316 237
261 3 2 1 1 289 246 209 228
262 3 2 1 1 293 257 214 247
263 3 2 1 1 175 66 67 135
264 3 2 1 1 174 135 67 68
265 3 2 1 1 234 290 217 152
266 3 2 1 1 337 285 232 301
267 3 2 1 1 216 237 219 150
268 3 2 1 1 331 363 351 319
269 3 2 1 1 391 342 296 355
270 3 2 1 1 286 227 146 218
271 3 2 1 1 140 220 149 178
272 3 2 1 1 342 289 228 296
273 3 2 1 1 168 47 48 106
274 3 2 1 1 176 106 48 49
275 3 2 1 1 317 290 234 292
276 3 2 1 1 422 444 430 401
277 3 2 1 1 73 74 132 101
278 3 2 1 1 177 108 217 189
279 3 2 1 1 390 356 297 336
280 3 2 1 1 423 391 355 401
281 3 2 1 1 198 129 126 148
282 3 2 1 1 15 102 134 14
283 3 2 1 1 138 179 150 219
284 3 2 1 1 177 37 38 108
285 3 2 1 1 171 64 65 107
286 3 2 1 1 175 107 65 66
287 3 2 1 1 303 291 271 347
288 3 2 1 1 446 423 401 430
289 3 2 1 1 200 219 237 287
290 3 2 1 1 379 408 385 358
291 3 2 1 1 302 229 290 317
292 3 2 1 1 424 402 356 390
293 3 2 1 1 338 284 231 300
294 3 2 1 1 130 152 172 111
295 3 2 1 1 349 298 267 309
296 3 2 1 1 352 274 303 332
297 3 2 1 1 381 338 300 361
298 3 2 1 1 38 39 172 108
299 3 2 1 1 365 347 302 373
300 3 2 1 1 176 49 50 136
301 3 2 1 1 284 213 149 231
302 3 2 1 1 398 360 407 440
303 3 2 1 1 379 412 407 439
304 3 2 1 1 311 338 394 367
305 3 2 1 1 178 112 51 52
306 3 2 1 1 414 388 374 395
307 3 2 1 1 177 139 36 37
308 3 2 1 1 143 222 153 180
309 3 2 1 1 226 266 319 241
310 3 2 1 1 250 216 113 139
311 3 2 1 1 179 34 35 113
312 3 2 1 1 394 373 348 367
313 3 2 1 1 213 112 178 149
314 3 2 1 1 350 375 89 88
315 3 2 1 1 288 318 353 344
316 3 2 1 1 431 441 452 447
317 3 2 1 1 234 197 212 211
318 3 2 1 1 324 352 93 94
319 3 2 1 1 376 384 331 377
320 3 2 1 1 178 52 53 140
321 3 2 1 1 288 231 149 220
322 3 2 1 1 344 300 231 288
323 3 2 1 1 180 120 54 55
324 3 2 1 1 179 113 216 150
325 3 2 1 1 277 320 322 273
326 3 2 1 1 51 112 136 50
327 3 2 1 1 310 233 248 282
328 3 2 1 1 179 138 33 34
329 3 2 1 1 425 409 393 405
330 3 2 1 1 288 238 327 318
331 3 2 1 1 219 200 121 138
332 3 2 1 1 35 36 139 113
333 3 2 1 1 441 451 454 455
334 3 2 1 1 351 295 241 319
335 3 2 1 1 199 153 222 264
336 3 2 1 1 186 31 32 121
337 3 2 1 1 199 120 180 153
338 3 2 1 1 329 326 268 305
339 3 2 1 1 350 325 295 351
340 3 2 1 1 287 263 184 200
341 3 2 1 1 268 278 314 305
342 3 2 1 1 376 377 304 329
343 3 2 1 1 186 121 200 184
344 3 2 1 1 375 350 358 385
345 3 2 1 1 53 54 120 140
346 3 2 1 1 180 55 56 143
347 3 2 1 1 383 411 91 90
348 3 2 1 1 420 435 448 437
349 3 2 1 1 243 321 320 277
350 3 2 1 1 245 314 278 190
351 3 2 1 1 334 321 243 294
352 3 2 1 1 455 450 452 441
353 3 2 1 1 33 138 121 32
354 3 2 1 1 154 226 84 83
355 3 2 1 1 276 262 97 96
356 3 2 1 1 433 426 439 446
357 3 2 1 1 287 324 94 95
358 3 2 1 1 349 322 320 333
359 3 2 1 1 309 283 322 349
360 3 2 1 1 329 304 275 326
361 3 2 1 1 125 204 240 221
362 3 2 1 1 394 415 399 429
363 3 2 1 1 277 240 204 236
364 3 2 1 1 413 437 442 417
365 3 2 1 1 414 395 382 410
366 3 2 1 1 410 382 362 428
367 3 2 1 1 455 454 448 449
368 3 2 1 1 28 181 204 125
369 3 2 1 1 241 295 86 85
370 3 2 1 1 277 273 256 240
371 3 2 1 1 185 142 3 100
372 3 2 1 1 373 302 317 348
373 3 2 1 1 185 225 243 261
374 3 2 1 1 452 434 436 447
375 3 2 1 1 365 429 399 366
376 3 2 1 1 283 230 273 322
377 3 2 1 1 58 141 81 5
378 3 2 1 1 259 154 183 194
379 3 2 1 1 93 92 397 372
380 3 2 1 1 338 381 415 394
381 3 2 1 1 353 318 86 87
382 3 2 1 1 95 94 354 323
383 3 2 1 1 295 325 87 86
384 3 2 1 1 372 354 94 93
385 3 2 1 1 194 183 141 223
386 3 2 1 1 372 413 417 378
387 3 2 1 1 384 440 407 412
388 3 2 1 1 182 260 239 223
389 3 2 1 1 397 411 383 427
390 3 2 1 1 181 224 236 204
391 3 2 1 1 427 413 372 397
392 3 2 1 1 58 182 223 141
393 3 2 1 1 275 194 223 239
394 3 2 1 1 99 98 201 225
395 3 2 1 1 183 154 83 82
396 3 2 1 1 181 142 185 224
397 3 2 1 1 262 201 98 97
398 3 2 1 1 327 264 84 85
399 3 2 1 1 318 327 85 86
400 3 2 1 1 361 353 87 88
401 3 2 1 1 396 386 89 90
402 3 2 1 1 411 397 92 91
403 3 2 1 1 185 261 236 224
404 3 2 1 1 294 243 225 201
405 3 2 1 1 225 185 100 99
406 3 2 1 1 5 81 145 57
407 3 2 1 1 399 415 386 396
408 3 2 1 1 141 183 82 81
409 3 2 1 1 449 453 450 455
410 3 2 1 1 186 184 97 98
411 3 2 1 1 264 222 83 84
412 3 2 1 1 30 144 99 100
413 3 2 1 1 437 448 454 442
414 3 2 1 1 81 82 143 145
415 3 2 1 1 98 99 144 186
416 3 2 2 2 749 774 800 769
417 3 2 2 2 667 679 671 711
418 3 2 2 2 793 820 841 824
419 3 2 2 2 749 708 761 774
420 3 2 2 2 561 621 494 495
421 3 2 2 2 564 603 591 555
422 3 2 2 2 673 762 697 662
423 3 2 2 2 710 709 751 745
424 3 2 2 2 892 893 883 886
425 3 2 2 2 629 708 674 642
426 3 2 2 2 533 592 551 532
427 3 2 2 2 881 871 883 868
428 3 2 2 2 591 588 649 660
429 3 2 2 2 842 857 822 817
430 3 2 2 2 671 672 700 711
431 3 2 2 2 821 843 836 789
432 3 2 2 2 858 855 836 843
433 3 2 2 2 556 595 642 580
434 3 2 2 2 629 642 595 539
435 3 2 2 2 587 639 679 641
436 3 2 2 2 671 644 648 672
437 3 2 2 2 885 893 891 882
438 3 2 2 2 639 593 543 644
439 3 2 2 2 621 561 660 632
440 3 2 2 2 641 679 667 586
441 3 2 2 2 799 768 823 816
442 3 2 2 2 896 894 884 891
443 3 2 2 2 869 872 880 853
444 3 2 2 2 710 678 625 709
445 3 2 2 2 660 649 685 632
446 3 2 2 2 697 744 720 662
447 3 2 2 2 731 741 762 673
448 3 2 2 2 707 695 748 777
449 3 2 2 2 711 700 737 747
450 3 2 2 2 713 712 742 748
451 3 2 2 2 761 725 747 774
452 3 2 2 2 821 789 735 769
453 3 2 2 2 796 819 834 767
454 3 2 2 2 892 896 891 893
455 3 2 2 2 677 630 554 620
456 3 2 2 2 476 475 543 593
457 3 2 2 2 555 496 497 564
458 3 2 2 2 513 514 606 549
459 3 2 2 2 559 515 516 578
460 3 2 2 2 528 529 539 595
461 3 2 2 2 550 534 535 567
462 3 2 2 2 561 555 591 660
463 3 2 2 2 593 639 587 562
464 3 2 2 2 683 702 714 655
465 3 2 2 2 624 715 700 672
466 3 2 2 2 872 888 873 855
467 3 2 2 2 507 508 572 538
468 3 2 2 2 676 625 541 598
469 3 2 2 2 550 567 562 587
470 3 2 2 2 565 596 645 643
471 3 2 2 2 539 599 682 629
472 3 2 2 2 677 713 696 630
473 3 2 2 2 625 676 717 709
474 3 2 2 2 767 834 792 788
475 3 2 2 2 769 800 795 821
476 3 2 2 2 841 856 842 824
477 3 2 2 2 896 892 888 895
478 3 2 2 2 485 486 597 542
479 3 2 2 2 556 527 528 595
480 3 2 2 2 474 473 558 601
481 3 2 2 2 474 601 543 475
482 3 2 2 2 569 484 485 542
483 3 2 2 2 598 541 503 504
484 3 2 2 2 509 605 572 508
485 3 2 2 2 510 511 577 544
486 3 2 2 2 521 522 611 552
487 3 2 2 2 527 556 573 526
488 3 2 2 2 539 529 530 599
489 3 2 2 2 597 634 584 542
490 3 2 2 2 601 558 582 648
491 3 2 2 2 558 566 608 582
492 3 2 2 2 556 580 609 573
493 3 2 2 2 599 574 635 682
494 3 2 2 2 566 576 655 608
495 3 2 2 2 559 578 607 594
496 3 2 2 2 624 672 648 582
497 3 2 2 2 673 662 656 585
498 3 2 2 2 577 590 681 640
499 3 2 2 2 559 594 661 606
500 3 2 2 2 582 608 689 624
501 3 2 2 2 608 655 714 689
502 3 2 2 2 629 682 761 708
503 3 2 2 2 635 725 761 682
504 3 2 2 2 626 684 752 699
505 3 2 2 2 751 784 793 802
506 3 2 2 2 825 802 793 824
507 3 2 2 2 821 795 829 843
508 3 2 2 2 816 823 860 840
509 3 2 2 2 857 842 856 878
510 3 2 2 2 864 854 877 879
511 3 2 2 2 896 895 889 894
512 3 2 2 2 472 471 576 566
513 3 2 2 2 473 472 566 558
514 3 2 2 2 593 562 477 476
515 3 2 2 2 567 478 477 562
516 3 2 2 2 458 478 567 535
517 3 2 2 2 482 547 568 481
518 3 2 2 2 482 483 618 547
519 3 2 2 2 484 569 618 483
520 3 2 2 2 487 570 597 486
521 3 2 2 2 490 602 537 489
522 3 2 2 2 490 491 563 602
523 3 2 2 2 492 619 563 491
524 3 2 2 2 459 498 564 497
525 3 2 2 2 498 499 603 564
526 3 2 2 2 503 541 604 502
527 3 2 2 2 504 505 565 598
528 3 2 2 2 590 577 511 512
529 3 2 2 2 512 513 549 590
530 3 2 2 2 514 515 559 606
531 3 2 2 2 460 517 578 516
532 3 2 2 2 517 518 607 578
533 3 2 2 2 525 579 612 524
534 3 2 2 2 531 574 599 530
535 3 2 2 2 651 650 536 616
536 3 2 2 2 600 536 650 683
537 3 2 2 2 610 537 686 633
538 3 2 2 2 625 678 604 541
539 3 2 2 2 648 644 543 601
540 3 2 2 2 640 585 544 577
541 3 2 2 2 591 603 548 588
542 3 2 2 2 681 590 549 628
543 3 2 2 2 606 661 628 549
544 3 2 2 2 641 592 550 587
545 3 2 2 2 574 551 586 635
546 3 2 2 2 592 641 586 551
547 3 2 2 2 598 565 643 676
548 3 2 2 2 547 589 636 568
549 3 2 2 2 542 584 659 569
550 3 2 2 2 634 597 570 675
551 3 2 2 2 678 646 571 604
552 3 2 2 2 538 572 637 581
553 3 2 2 2 605 656 637 572
554 3 2 2 2 579 573 609 647
555 3 2 2 2 683 655 576 600
556 3 2 2 2 612 579 647 684
557 3 2 2 2 642 674 622 580
558 3 2 2 2 659 584 729 668
559 3 2 2 2 635 586 667 725
560 3 2 2 2 646 669 649 588
561 3 2 2 2 547 618 638 589
562 3 2 2 2 554 630 594 607
563 3 2 2 2 537 602 623 686
564 3 2 2 2 580 622 690 609
565 3 2 2 2 570 610 633 675
566 3 2 2 2 569 659 638 618
567 3 2 2 2 690 622 724 759
568 3 2 2 2 686 623 718 704
569 3 2 2 2 713 677 627 712
570 3 2 2 2 661 696 695 628
571 3 2 2 2 594 630 696 661
572 3 2 2 2 705 675 633 746
573 3 2 2 2 675 705 664 634
574 3 2 2 2 584 634 664 729
575 3 2 2 2 589 680 688 636
576 3 2 2 2 656 662 720 637
577 3 2 2 2 581 637 720 687
578 3 2 2 2 589 638 726 680
579 3 2 2 2 644 671 679 639
580 3 2 2 2 585 640 731 673
581 3 2 2 2 681 707 731 640
582 3 2 2 2 665 717 676 643
583 3 2 2 2 643 645 721 665
584 3 2 2 2 678 710 669 646
585 3 2 2 2 609 690 727 647
586 3 2 2 2 684 647 727 752
587 3 2 2 2 663 702 683 650
588 3 2 2 2 650 651 722 663
589 3 2 2 2 632 685 706 652
590 3 2 2 2 638 659 668 726
591 3 2 2 2 729 664 782 739
592 3 2 2 2 718 666 736 760
593 3 2 2 2 711 747 725 667
594 3 2 2 2 729 739 787 668
595 3 2 2 2 649 669 701 685
596 3 2 2 2 628 695 707 681
597 3 2 2 2 744 743 687 720
598 3 2 2 2 721 687 743 781
599 3 2 2 2 680 716 723 688
600 3 2 2 2 626 699 753 691
601 3 2 2 2 627 691 753 712
602 3 2 2 2 713 748 695 696
603 3 2 2 2 762 767 788 697
604 3 2 2 2 735 698 749 769
605 3 2 2 2 776 753 699 799
606 3 2 2 2 752 768 799 699
607 3 2 2 2 685 701 754 706
608 3 2 2 2 669 710 745 701
609 3 2 2 2 773 754 701 745
610 3 2 2 2 663 732 780 702
611 3 2 2 2 714 702 780 750
612 3 2 2 2 728 703 755 738
613 3 2 2 2 770 746 704 775
614 3 2 2 2 746 770 733 705
615 3 2 2 2 664 705 733 782
616 3 2 2 2 742 712 753 776
617 3 2 2 2 689 714 750 758
618 3 2 2 2 700 715 778 737
619 3 2 2 2 766 778 715 758
620 3 2 2 2 723 716 756 719
621 3 2 2 2 680 726 740 716
622 3 2 2 2 665 734 784 717
623 3 2 2 2 709 717 784 751
624 3 2 2 2 703 719 756 755
625 3 2 2 2 665 721 781 734
626 3 2 2 2 698 735 785 724
627 3 2 2 2 668 787 740 726
628 3 2 2 2 690 759 786 727
629 3 2 2 2 706 754 779 730
630 3 2 2 2 707 777 741 731
631 3 2 2 2 747 737 800 774
632 3 2 2 2 795 800 737 778
633 3 2 2 2 716 740 772 756
634 3 2 2 2 762 741 796 767
635 3 2 2 2 777 812 796 741
636 3 2 2 2 748 742 812 777
637 3 2 2 2 776 811 812 742
638 3 2 2 2 763 794 781 743
639 3 2 2 2 743 744 805 763
640 3 2 2 2 780 827 807 750
641 3 2 2 2 745 751 802 773
642 3 2 2 2 773 801 779 754
643 3 2 2 2 738 755 803 771
644 3 2 2 2 756 772 803 755
645 3 2 2 2 736 765 798 760
646 3 2 2 2 797 775 760 798
647 3 2 2 2 805 832 845 763
648 3 2 2 2 736 779 801 765
649 3 2 2 2 822 798 765 817
650 3 2 2 2 803 826 849 771
651 3 2 2 2 740 787 808 772
652 3 2 2 2 801 773 802 825
653 3 2 2 2 799 816 811 776
654 3 2 2 2 766 829 795 778
655 3 2 2 2 734 781 794 820
656 3 2 2 2 735 789 828 785
657 3 2 2 2 847 828 789 836
658 3 2 2 2 788 792 832 805
659 3 2 2 2 820 794 833 841
660 3 2 2 2 763 845 833 794
661 3 2 2 2 765 801 825 817
662 3 2 2 2 772 808 826 803
663 3 2 2 2 804 813 837 827
664 3 2 2 2 848 861 853 813
665 3 2 2 2 839 814 854 864
666 3 2 2 2 811 816 840 819
667 3 2 2 2 824 842 817 825
668 3 2 2 2 828 847 859 818
669 3 2 2 2 846 818 859 871
670 3 2 2 2 834 819 840 867
671 3 2 2 2 838 822 857 866
672 3 2 2 2 843 829 844 858
673 3 2 2 2 856 841 833 852
674 3 2 2 2 813 853 880 837
675 3 2 2 2 860 881 867 840
676 3 2 2 2 881 860 846 871
677 3 2 2 2 836 855 873 847
678 3 2 2 2 826 851 865 849
679 3 2 2 2 866 857 878 887
680 3 2 2 2 883 871 859 886
681 3 2 2 2 847 873 886 859
682 3 2 2 2 865 864 879 863
683 3 2 2 2 872 869 895 888
684 3 2 2 2 870 884 887 878
685 3 2 2 2 870 882 891 884
686 3 2 2 2 884 894 890 887
687 3 2 2 2 576 471 470 600
688 3 2 2 2 610 570 487 488
689 3 2 2 2 489 537 610 488
690 3 2 2 2 596 565 505 506
691 3 2 2 2 538 596 506 507
692 3 2 2 2 573 579 525 526
693 3 2 2 2 574 531 532 551
694 3 2 2 2 646 588 548 571
695 3 2 2 2 616 557 583 651
696 3 2 2 2 687 721 645 581
697 3 2 2 2 651 583 670 722
698 3 2 2 2 686 704 746 633
699 3 2 2 2 728 738 783 670
700 3 2 2 2 757 764 804 732
701 3 2 2 2 787 739 831 808
702 3 2 2 2 727 786 768 752
703 3 2 2 2 757 783 810 764
704 3 2 2 2 813 804 764 848
705 3 2 2 2 775 797 830 770
706 3 2 2 2 818 846 791 809
707 3 2 2 2 846 860 823 791
708 3 2 2 2 798 822 838 797
709 3 2 2 2 785 828 818 809
710 3 2 2 2 875 866 887 890
711 3 2 2 2 889 895 869 876
712 3 2 2 2 888 892 886 873
713 3 2 2 2 456 479 560 461
714 3 2 2 2 463 462 613 553
715 3 2 2 2 461 560 613 462
716 3 2 2 2 457 464 614 545
717 3 2 2 2 463 553 614 464
718 3 2 2 2 457 545 615 465
719 3 2 2 2 466 465 615 575
720 3 2 2 2 467 466 575 557
721 3 2 2 2 616 468 467 557
722 3 2 2 2 600 470 469 536
723 3 2 2 2 468 616 536 469
724 3 2 2 2 479 480 617 560
725 3 2 2 2 481 568 617 480
726 3 2 2 2 493 546 619 492
727 3 2 2 2 621 546 493 494
728 3 2 2 2 603 499 500 548
729 3 2 2 2 604 571 501 502
730 3 2 2 2 500 501 571 548
731 3 2 2 2 607 518 519 554
732 3 2 2 2 521 552 620 520
733 3 2 2 2 519 520 620 554
734 3 2 2 2 611 522 523 540
735 3 2 2 2 523 524 612 540
736 3 2 2 2 596 538 581 645
737 3 2 2 2 684 626 540 612
738 3 2 2 2 605 544 585 656
739 3 2 2 2 621 632 652 546
740 3 2 2 2 677 620 552 627
741 3 2 2 2 557 575 654 583
742 3 2 2 2 563 658 623 602
743 3 2 2 2 540 626 691 611
744 3 2 2 2 552 611 691 627
745 3 2 2 2 560 617 657 613
746 3 2 2 2 553 613 657 653
747 3 2 2 2 545 614 692 631
748 3 2 2 2 553 653 692 614
749 3 2 2 2 545 631 693 615
750 3 2 2 2 575 615 693 654
751 3 2 2 2 568 636 657 617
752 3 2 2 2 546 652 694 619
753 3 2 2 2 563 619 694 658
754 3 2 2 2 718 623 658 666
755 3 2 2 2 758 715 624 689
756 3 2 2 2 719 703 693 631
757 3 2 2 2 657 636 688 653
758 3 2 2 2 583 654 728 670
759 3 2 2 2 693 703 728 654
760 3 2 2 2 722 757 732 663
761 3 2 2 2 658 694 730 666
762 3 2 2 2 779 736 666 730
763 3 2 2 2 722 670 783 757
764 3 2 2 2 622 674 698 724
765 3 2 2 2 708 749 698 674
766 3 2 2 2 653 688 723 692
767 3 2 2 2 631 692 723 719
768 3 2 2 2 652 706 730 694
769 3 2 2 2 775 704 718 760
770 3 2 2 2 809 759 724 785
771 3 2 2 2 827 780 732 804
772 3 2 2 2 820 793 784 734
773 3 2 2 2 771 810 783 738
774 3 2 2 2 697 788 805 744
775 3 2 2 2 810 815 848 764
776 3 2 2 2 733 770 830 790
777 3 2 2 2 733 790 806 782
778 3 2 2 2 739 782 806 831
779 3 2 2 2 759 809 791 786
780 3 2 2 2 768 786 791 823
781 3 2 2 2 850 814 790 830
782 3 2 2 2 806 790 814 839
783 3 2 2 2 830 797 838 850
784 3 2 2 2 831 806 839 851
785 3 2 2 2 837 844 807 827
786 3 2 2 2 766 807 844 829
787 3 2 2 2 771 849 815 810
788 3 2 2 2 861 848 815 863
789 3 2 2 2 865 863 815 849
790 3 2 2 2 808 831 851 826
791 3 2 2 2 792 835 862 832
792 3 2 2 2 792 834 867 835
793 3 2 2 2 844 837 880 858
794 3 2 2 2 866 875 850 838
795 3 2 2 2 864 865 851 839
796 3 2 2 2 833 845 874 852
797 3 2 2 2 832 862 874 845
798 3 2 2 2 814 850 875 854
799 3 2 2 2 870 852 874 882
800 3 2 2 2 890 877 854 875
801 3 2 2 2 852 870 878 856
802 3 2 2 2 855 858 880 872
803 3 2 2 2 853 861 876 869
804 3 2 2 2 863 879 876 861
805 3 2 2 2 835 868 885 862
806 3 2 2 2 882 874 862 885
807 3 2 2 2 835 867 881 868
808 3 2 2 2 877 889 876 879
809 3 2 2 2 890 894 889 877
810 3 2 2 2 868 883 893 885
811 3 2 2 2 544 605 509 510
812 3 2 2 2 561 495 496 555
813 3 2 2 2 758 750 807 766
814 3 2 2 2 534 550 592 533
815 3 2 2 2 819 796 812 811
$EndElements
