$MeshFormat
2.2 0 8
$EndMeshFormat
$Nodes
455
1 -200 -100 0
2 0 -100 0
3 0 100 0
4 -200 100 0
5 -100 -50 0
6 -25 -50 0
7 -25 50 0
8 -100 50 0
9 -190 -100 0
10 -180 -100 0
11 -170 -100 0
12 -160 -100 0
13 -150 -100 0
14 -140 -100 0
15 -130 -100 0
16 -120 -100 0
17 -110 -100 0
18 -100 -100 0
19 -90 -100 0
20 -80 -100 0
21 -70 -100 0
22 -60 -100 0
23 -50 -100 0
24 -40 -100 0
25 -30 -100 0
26 -20 -100 0
27 -10 -100 0
28 0 -90 0
29 0 -80 0
30 0 -70 0
31 0 -60 0
32 0 -50 0
33 0 -40 0
34 0 -30 0
35 0 -20 0
36 0 -10 0
37 0 0 0
38 0 10 0
39 0 20 0
40 0 30 0
41 0 40 0
42 0 50 0
43 0 60 0
44 0 70 0
45 0 80 0
46 0 90 0
47 -10 100 0
48 -20 100 0
49 -30 100 0
50 -40 100 0
51 -50 100 0
52 -60 100 0
53 -70 100 0
54 -80 100 0
55 -90 100 0
56 -100 100 0
57 -110 100 0
58 -120 100 0
59 -130 100 0
60 -140 100 0
61 -150 100 0
62 -160 100 0
63 -170 100 0
64 -180 100 0
65 -190 100 0
66 -200 90 0
67 -200 80 0
68 -200 70 0
69 -200 60 0
70 -200 50 0
71 -200 40 0
72 -200 30 0
73 -200 20 0
74 -200 10 0
75 -200 0 0
76 -200 -10 0
77 -200 -20 0
78 -200 -30 0
79 -200 -40 0
80 -200 -50 0
81 -200 -60 0
82 -200 -70 0
83 -200 -80 0
84 -200 -90 0
85 -90.625 -50 0
86 -81.25 -50 0
87 -71.875 -50 0
88 -62.5 -50 0
89 -53.125 -50 0
90 -43.75 -50 0
91 -34.375 -50 0
92 -25 -40 0
93 -25 -30 0
94 -25 -20 0
95 -25 -10 0
96 -25 0 0
97 -25 10 0
98 -25 20 0
99 -25 30 0
100 -25 40 0
101 -34.375 50 0
102 -43.75 50 0
103 -53.125 50 0
104 -62.5 50 0
105 -71.875 50 0
106 -81.25 50 0
107 -90.625 50 0
108 -100 40 0
109 -100 30 0
110 -100 20 0
111 -100 10 0
112 -100 0 0
113 -100 -10 0
114 -100 -20 0
115 -100 -30 0
116 -100 -40 0
117 -109.710783250865 -49.8977526383237 0
118 -109.911469976102 40.0964850286025 0
119 -190.012505769359 -9.99805546543942 0
120 -190.027568972969 -40.0005536762351 0
121 -189.999741462945 40.0000319981459 0
122 -150.002979432244 -90.0720565708049 0
123 -159.999186900893 90.0027848209263 0
124 -34.763871246064 -59.4668016314103 0
125 -23.6619210158094 58.4143771593575 0
126 -100.121794346178 -59.7607855088104 0
127 -90.6868209862874 59.82746025434 0
128 -119.982177560226 -89.9937117952766 0
129 -129.993910906902 90.0109773266253 0
130 -70.20776119769 -89.8930672538131 0
131 -70.3864715530263 89.8968434262646 0
132 -50.4608179237316 89.8941401966053 0
133 -190.021315984179 -60.00985135614 0
134 -20.314691197209 -89.2215323790797 0
135 -90.146278395769 -89.8955674371667 0
136 -40.6298404587458 -89.7225808552928 0
137 -30.3051227074382 89.6725565696745 0
138 -100.085745441974 89.9442084136566 0
139 -170.013338537595 -90.0260112116482 0
140 -190.000103320337 80.000354025125 0
141 -190.00146400438 19.9997817766239 0
142 -9.42180957909451 -69.4233095644213 0
143 -10.6913886983248 -58.5104011501767 0
144 -17.3338292883729 -43.6182494176723 0
145 -8.59324138182396 42.9888755028908 0
146 -10.655411820458 66.3192710969802 0
147 -10.0365076783014 89.7007179846095 0
148 -7.7993107578566 52.2663959701984 0
149 -9.2774401550856 22.8630109189284 0
150 -9.17064401260737 -29.5404121626549 0
151 -9.99999783871948 -6.93662060601211E-06 0
152 -5.82379754084278 -20.1841677511528 0
153 -90.191819017537 89.91781622269 0
154 -50.4926098277491 -89.8117385529 0
155 -100.095634820852 -89.8859449812519 0
156 -10.0592515828923 -89.5056671316113 0
157 -129.966838891908 -90.0587005006244 0
158 -190.015101589658 -70.0110826878857 0
159 -180.00870218466 -90.012293398141 0
160 -190.009168324172 -80.008735897203 0
161 -190.004286483745 -90.0048833279355 0
162 -180.00008330041 90.0005282331551 0
163 -189.999689487849 60.0005787446768 0
164 -120.002206603563 90.0011740157412 0
165 -190.00397528231 10.0000204938982 0
166 -149.996941986891 90.0059047730654 0
167 -190.000055502831 90.0001975831924 0
168 -190.019035034871 -19.9963842639508 0
169 -90.492882074476 -40.1333296629962 0
170 -34.4990529073504 -40.042559766844 0
171 -34.5005118866875 40.1036856133952 0
172 -90.5325076791675 40.0433082789117 0
173 -9.24884538200529 -48.1338087075076 0
174 -16.5101850403934 46.2613257360129 0
175 -180.047217341788 -19.9956397610266 0
176 -180.002716829829 20.0005229080952 0
177 -109.946258830089 50.0376198245748 0
178 -109.762410182144 -59.8263397529013 0
179 -129.977331904766 80.0232604271032 0
180 -159.99366507296 80.0075808896816 0
181 -119.870243469633 -79.9805661803449 0
182 -41.5379201902117 -79.5108773085701 0
183 -100.207438880721 79.8834059691911 0
184 -90.2768079030568 -79.7825653025166 0
185 -180.031443528961 -70.037687391086 0
186 -179.999862322627 80.001246522669 0
187 -28.6942770904989 -59.3236416982637 0
188 -14.9798668538756 55.6288085393018 0
189 -34.5616405567153 -30.0931624340821 0
190 -34.5808368929978 30.1250755496794 0
191 -90.4878332846575 30.0852334771887 0
192 -90.3807281058532 -30.2299361633761 0
193 -109.93459573052 30.1157541132031 0
194 -10.2883530430706 79.0169140104451 0
195 -20.6830724552179 -76.4765946324452 0
196 -80.1696153843133 -89.9027858395345 0
197 -80.3111467731845 89.8996080955538 0
198 -60.3301456860267 -89.851769868019 0
199 -60.46107961938 89.8992217156513 0
200 -40.4567173734494 89.8113268986202 0
201 -110.023902317265 -89.9193475153222 0
202 -30.6160267061063 -89.3619889943982 0
203 -20.1860853313745 89.5847831648408 0
204 -9.73120329134038 -79.1331686225934 0
205 -110.035029221474 89.9760222113821 0
206 -139.978152682978 -90.0828528039116 0
207 -190.026737106289 -50.0067840203504 0
208 -190.025543586518 -29.997548426645 0
209 -170.025625249696 -80.0587395021217 0
210 -160.010623001019 -90.0498696012629 0
211 -109.769874384291 -40.0068428566148 0
212 -180.01916352043 -80.0283345400472 0
213 -169.999506024639 90.0015536809549 0
214 -190.008220244847 0.000860155462793836 0
215 -9.11178960003102 -11.197774824122 0
216 -190.000244476958 29.9999165694129 0
217 -11.2035096821012 10.5135454414336 0
218 -139.993854498415 90.0093499287206 0
219 -189.999482087267 50.0003870841384 0
220 -8.71859653316668 33.1542214991384 0
221 -189.999866042106 70.0006192444504 0
222 -90.5244522177919 -59.7996261425094 0
223 -43.3709644068988 -59.7033057999248 0
224 -33.2428351727747 59.5268409603637 0
225 -81.1856838348689 59.8132678912169 0
226 -100.270905610108 59.8987820684109 0
227 -81.0511169709197 -40.2001560282498 0
228 -43.8962838905412 -40.0550924143777 0
229 -43.9476735167931 40.1392410701508 0
230 -81.1685923944601 40.0438655952401 0
231 -5.87159999568466 59.1963122555479 0
232 -9.9584216665061 -40.0415676855215 0
233 -17.7102974251431 -50.5187794424782 0
234 -16.106930254181 -68.9852163735913 0
235 -16.9968059657249 36.4965820393034 0
236 -17.0072835444536 -33.8108100505492 0
237 -119.500721633054 -50.0170338701014 0
238 -119.853147497894 40.1599397985058 0
239 -170.030720340211 -70.0897710659797 0
240 -80.8581112444628 -30.3498042114013 0
241 -44.0804877748152 30.1590454604618 0
242 -43.9401747382155 -30.1689260272481 0
243 -81.1367041108085 30.1254636935671 0
244 -60.7509055356912 -79.7329243617773 0
245 -61.0556937239754 79.8107300965396 0
246 -179.994654182487 50.002251045381 0
247 -80.3708050687424 -79.797450876112 0
248 -109.985437855157 -79.8381852149842 0
249 -110.031245129066 59.982997484087 0
250 -110.074772827035 79.9526699562748 0
251 -139.879852100157 -80.1679770354284 0
252 -180.054013332811 -50.0317659693762 0
253 -139.976284636852 80.022389998947 0
254 -179.998322554339 70.0021574484629 0
255 -109.885787221662 -69.8098632143256 0
256 -33.6742056066622 -68.7494577306408 0
257 -100.154127675915 -69.7431063583305 0
258 -41.1719170904556 79.689964484462 0
259 -20.697719315877 78.9806682617116 0
260 -90.6084542654267 69.7927706678472 0
261 -80.6629459663198 79.8000426555174 0
262 -31.8455522602186 -78.678240216533 0
263 -100.136516328897 -79.8019532377496 0
264 -51.144093837428 -79.6716644766066 0
265 -120.004530042765 80.0008767466543 0
266 -109.950285306725 20.0973688440534 0
267 -129.827497311448 -80.1094492856818 0
268 -109.841474477487 -30.0667373874642 0
269 -90.4201589840472 79.8405161721862 0
270 -180.041516840241 -60.0435067619707 0
271 -160.004342110646 -80.1073199246688 0
272 -180.058487404815 -30.0022261616494 0
273 -149.983986316432 80.015130812904 0
274 -169.997316751677 80.0036972647461 0
275 -180.03352441101 -9.99740668379058 0
276 -180.00992677766 10.0006984663759 0
277 -179.994494985337 40.0017445230115 0
278 -179.997177508156 30.0013303504929 0
279 -42.981539771543 59.8172131371557 0
280 -80.9281669087709 -59.8230416236031 0
281 -52.5317471113347 -59.7757127501023 0
282 -71.681136939244 59.81902814486 0
283 -34.5810429796585 20.023816238805 0
284 -90.3151983591313 -20.240407714876 0
285 -34.5441152908292 -20.1653816403348 0
286 -90.4637474253799 20.1087289355574 0
287 -53.1731221051387 -40.0960526543797 0
288 -71.6994000869407 -40.1949648537099 0
289 -53.3209529166889 40.1190304992357 0
290 -71.8978503346775 40.0581200458335 0
291 -21.9056582273208 68.3347003621549 0
292 -19.3042481776977 -62.0285299416041 0
293 -18.8080455269504 16.9016727313184 0
294 -18.3333348257441 3.33333462371379 0
295 -15.5726320945808 -20.3415453765964 0
296 -17.5198443771951 26.3777128682857 0
297 -170.091350667704 -30.0343919685244 0
298 -169.998907189158 20.0057575534805 0
299 -169.975876314263 50.0101873283609 0
300 -81.0756102753385 20.1936339984782 0
301 -80.7229652464982 -20.3627669816269 0
302 -43.8750541752041 -20.3345315930863 0
303 -44.0690742977338 19.9982930638104 0
304 -129.933880584426 70.043718549188 0
305 -129.626839073359 -70.1427042333758 0
306 -159.976672012415 -70.1570466377626 0
307 -149.955246390436 70.0287096884498 0
308 -169.991195703748 70.0065150469091 0
309 -52.6145051813158 59.8645639506957 0
310 -61.8814968547514 -59.8053810371627 0
311 -32.0624788519386 69.2625427679586 0
312 -80.9694093821803 69.7689903067651 0
313 -42.5915052760716 -69.4315932203112 0
314 -90.3958642049102 -69.7538835280304 0
315 -119.54882956361 -59.995996632709 0
316 -61.3022340908514 -69.7163503531359 0
317 -119.7131887818 -69.9841239238576 0
318 -100.293017907525 69.8741291379165 0
319 -34.5057214577932 -10.2166141398915 0
320 -70.8750217824575 79.8002885579026 0
321 -70.5314886405227 -79.7863059543355 0
322 -110.088191326763 69.9553137691388 0
323 -31.0582525133833 79.3800934518456 0
324 -51.1837121093303 79.8105645073331 0
325 -109.945600176741 10.0445389764766 0
326 -170.055674150834 -50.0919730910076 0
327 -119.742074061525 -30.1450813971266 0
328 -109.887515371353 -20.091065962095 0
329 -149.941754996879 -80.1481031857257 0
330 -170.030321552507 -60.1042474919206 0
331 -71.4981219082411 -30.350008887518 0
332 -53.1149060693368 -30.2551556770398 0
333 -180.056769057178 -40.0211202467594 0
334 -71.9270713832437 30.1418037331421 0
335 -53.4479225319842 30.13678229517 0
336 -34.5034275583918 -0.203934534050217 0
337 -34.5257655286949 9.8819174667354 0
338 -170.076961575609 -20.0210474630739 0
339 -180.02059787487 0.0012362399896239 0
340 -179.994720565636 60.0031845528736 0
341 -169.975682847567 40.0110678365978 0
342 -119.889776701266 30.1700416697955 0
343 -119.630955210534 -40.0788462739215 0
344 -90.3096042160571 -10.153616242995 0
345 -90.4120003435071 10.0664974820598 0
346 -119.868313907086 50.1021282123951 0
347 -62.1486288014476 59.850249073573 0
348 -71.3771458582558 -59.8326662615592 0
349 -62.4134921362179 -40.1531425107213 0
350 -62.6231567438731 40.0844170798821 0
351 -20.5972946918957 10.1449393027527 0
352 -17.3496005386862 -6.23227363946401 0
353 -26.0009133524412 -65.9852580392498 0
354 -129.489466783885 -50.1546127328838 0
355 -160.082178222746 -30.1082450007225 0
356 -129.836778539357 40.165709738414 0
357 -80.9426189390288 10.1472517609681 0
358 -119.816126009458 -20.1828769008063 0
359 -159.937756468702 50.0311494330275 0
360 -71.3249268814328 -20.4000061280914 0
361 -53.403795333634 20.002072997973 0
362 -109.928683378778 -0.0248860642815638 0
363 -149.855739465155 -70.2087829511021 0
364 -52.9972330178148 -20.4420453762423 0
365 -71.8405082543674 20.1853209389246 0
366 -80.6369704650845 -69.7684106885826 0
367 -71.3161960425379 69.7742969374326 0
368 -51.925210061897 69.8011064684059 0
369 -90.3557561883609 -0.0329630165813021 0
370 -70.9392907771215 -69.7663861080292 0
371 -129.524671363432 -60.1489767822676 0
372 -43.7953201399229 -10.4375005549204 0
373 -43.9297465481722 9.76385188021746 0
374 -109.911522417306 -10.0750285039337 0
375 -139.731429645061 -70.203584912339 0
376 -159.983579666173 -50.1729225763775 0
377 -119.925460260386 60.0488671033575 0
378 -170.068476923814 -40.0695482970399 0
379 -159.951139540142 -60.175292271628 0
380 -139.933961663233 70.0425051588201 0
381 -170.050682841505 -10.0139981950159 0
382 -170.027617235735 -0.00834631120914408 0
383 -170.011318320999 9.99905810998116 0
384 -169.980778495513 60.0101013676172 0
385 -159.974523371144 70.0158999961335 0
386 -119.91218302737 20.1246969816092 0
387 -169.984377733438 30.0105812186322 0
388 -80.7170553029062 -10.2101080038401 0
389 -129.642587290594 -40.1723371006894 0
390 -119.982409420446 70.0136593394033 0
391 -42.0574840402964 69.6707802399526 0
392 -62.2727876677982 -30.3082717243573 0
393 -62.6924900516929 30.1264883888024 0
394 -51.8756093549175 -69.6552854646906 0
395 -160.036734922815 -10.0634314339392 0
396 -159.997253175964 9.99409471594964 0
397 -71.6272682686094 10.0962395825657 0
398 -71.299773312588 -10.2906478197407 0
399 -139.646836893816 -50.2289817302407 0
400 -129.881219305902 60.076532468435 0
401 -53.2035471019836 9.78104068040779 0
402 -52.9331311599307 -10.5091087549828 0
403 -80.8269603749178 -0.0301047201263238 0
404 -149.833523644327 -50.2265007937883 0
405 -119.848275125786 -10.1604133928707 0
406 -139.651665899173 -60.2164012223899 0
407 -160.029578331362 -40.142115549991 0
408 -149.819917710715 -60.2138305052649 0
409 -160.062837791437 -20.0887847767392 0
410 -139.885251003568 60.0697460185388 0
411 -119.903150977308 10.0288735210463 0
412 -149.916809799177 60.0467375956137 0
413 -129.876539436246 30.1622846035263 0
414 -159.980327712001 20.020259999805 0
415 -159.940484172253 40.0366045257552 0
416 -159.952355725683 60.0253469769197 0
417 -129.769373396403 -30.2107097158201 0
418 -43.8135746235349 -0.36513572193959 0
419 -61.6275914237409 69.7998363228298 0
420 -129.847020465765 50.1178093325174 0
421 -62.1345824944531 -20.4135259663552 0
422 -62.6112927288594 20.0778373872224 0
423 -149.988071908325 -30.1898271715769 0
424 -139.859064853565 40.1249959568862 0
425 -149.960392979534 9.98778597550085 0
426 -53.012235207752 -0.382399449364161 0
427 -71.4436446614556 -0.112973212415957 0
428 -139.771173648043 -40.2172783731226 0
429 -119.87836814826 -0.0796818013162913 0
430 -149.912433233981 -40.1996400516235 0
431 -149.893474298525 50.0654829862607 0
432 -149.987622641631 -20.1695084310927 0
433 -160.006572549383 -0.0404787366740558 0
434 -129.901313255333 20.1052559866144 0
435 -159.958306133661 30.035092611917 0
436 -129.844458842414 -10.2097207733149 0
437 -129.829379972619 -20.2229066877604 0
438 -139.86435561537 50.0973305485364 0
439 -62.4064697248415 9.92724921413915 0
440 -62.1049847876609 -10.3929807880224 0
441 -129.872723291694 -0.111840312827955 0
442 -149.948076232465 20.0463532693875 0
443 -149.958929263266 -0.0842396042254971 0
444 -129.898174473452 10.0046940692758 0
445 -139.859033152858 -30.2181259523097 0
446 -139.891870220326 -20.2140591782697 0
447 -139.892894240576 30.117722357014 0
448 -149.903210547313 40.0751255038599 0
449 -149.967503657591 -10.1340260136185 0
450 -62.2221037004166 -0.251004311597711 0
451 -139.907346873603 -0.109037111251223 0
452 -139.921339385347 9.99272009257541 0
453 -139.916793977054 20.0698901783328 0
454 -149.924970647303 30.0691036725084 0
455 -139.90102626315 -10.1740792498896 0
$EndNodes
$Elements
414
1 3 2 1 1 426 401 439 450
2 3 2 1 1 428 430 404 399
3 3 2 1 1 357 345 369 403
4 3 2 1 1 406 399 404 408
5 3 2 1 1 315 371 305 317
6 3 2 1 1 257 255 248 263
7 3 2 1 1 370 366 247 321
8 3 2 1 1 426 418 373 401
9 3 2 1 1 262 256 313 182
10 3 2 1 1 291 259 323 311
11 3 2 1 1 419 368 324 245
12 3 2 1 1 312 367 320 261
13 3 2 1 1 394 264 182 313
14 3 2 1 1 391 311 323 258
15 3 2 1 1 257 263 184 314
16 3 2 1 1 247 366 314 184
17 3 2 1 1 260 312 261 269
18 3 2 1 1 269 183 318 260
19 3 2 1 1 367 419 245 320
20 3 2 1 1 368 391 258 324
21 3 2 1 1 310 316 394 281
22 3 2 1 1 371 354 399 406
23 3 2 1 1 256 262 195 353
24 3 2 1 1 441 444 452 451
25 3 2 1 1 372 302 285 319
26 3 2 1 1 428 445 423 430
27 3 2 1 1 446 432 423 445
28 3 2 1 1 369 345 111 112
29 3 2 1 1 455 451 443 449
30 3 2 1 1 446 455 449 432
31 3 2 1 1 370 321 244 316
32 3 2 1 1 405 374 362 429
33 3 2 1 1 394 316 244 264
34 3 2 1 1 406 408 363 375
35 3 2 1 1 318 183 250 322
36 3 2 1 1 291 146 194 259
37 3 2 1 1 195 234 292 353
38 3 2 1 1 174 7 100 235
39 3 2 1 1 317 305 267 181
40 3 2 1 1 438 431 448 424
41 3 2 1 1 5 116 211 117
42 3 2 1 1 376 407 378 326
43 3 2 1 1 320 245 199 131
44 3 2 1 1 373 337 283 303
45 3 2 1 1 371 315 237 354
46 3 2 1 1 116 5 85 169
47 3 2 1 1 92 170 91 6
48 3 2 1 1 100 7 101 171
49 3 2 1 1 108 172 107 8
50 3 2 1 1 292 234 142 143
51 3 2 1 1 234 195 204 142
52 3 2 1 1 346 377 400 420
53 3 2 1 1 143 233 6 292
54 3 2 1 1 244 198 154 264
55 3 2 1 1 258 200 132 324
56 3 2 1 1 247 196 130 321
57 3 2 1 1 445 417 437 446
58 3 2 1 1 376 379 408 404
59 3 2 1 1 248 201 155 263
60 3 2 1 1 262 202 134 195
61 3 2 1 1 427 403 388 398
62 3 2 1 1 259 203 137 323
63 3 2 1 1 146 188 148 231
64 3 2 1 1 379 376 326 330
65 3 2 1 1 420 356 238 346
66 3 2 1 1 85 86 227 169
67 3 2 1 1 91 170 228 90
68 3 2 1 1 101 102 229 171
69 3 2 1 1 107 172 230 106
70 3 2 1 1 268 211 116 115
71 3 2 1 1 251 206 157 267
72 3 2 1 1 427 398 440 450
73 3 2 1 1 157 128 181 267
74 3 2 1 1 252 270 330 326
75 3 2 1 1 203 259 194 147
76 3 2 1 1 204 195 134 156
77 3 2 1 1 197 153 269 261
78 3 2 1 1 240 331 360 301
79 3 2 1 1 326 378 333 252
80 3 2 1 1 397 365 300 357
81 3 2 1 1 430 423 355 407
82 3 2 1 1 451 452 425 443
83 3 2 1 1 196 247 184 135
84 3 2 1 1 362 374 113 112
85 3 2 1 1 131 197 261 320
86 3 2 1 1 201 248 181 128
87 3 2 1 1 136 182 264 154
88 3 2 1 1 328 268 115 114
89 3 2 1 1 441 429 411 444
90 3 2 1 1 199 245 324 132
91 3 2 1 1 198 244 321 130
92 3 2 1 1 452 444 434 453
93 3 2 1 1 135 184 263 155
94 3 2 1 1 442 453 447 454
95 3 2 1 1 363 329 251 375
96 3 2 1 1 200 258 323 137
97 3 2 1 1 148 42 43 231
98 3 2 1 1 173 143 31 32
99 3 2 1 1 255 317 181 248
100 3 2 1 1 202 262 182 136
101 3 2 1 1 231 43 44 146
102 3 2 1 1 194 146 44 45
103 3 2 1 1 271 210 122 329
104 3 2 1 1 377 390 304 400
105 3 2 1 1 227 240 192 169
106 3 2 1 1 229 241 190 171
107 3 2 1 1 230 172 191 243
108 3 2 1 1 228 170 189 242
109 3 2 1 1 250 205 164 265
110 3 2 1 1 174 188 125 7
111 3 2 1 1 400 304 380 410
112 3 2 1 1 138 183 269 153
113 3 2 1 1 360 398 388 301
114 3 2 1 1 436 441 451 455
115 3 2 1 1 242 302 364 332
116 3 2 1 1 147 194 45 46
117 3 2 1 1 240 301 284 192
118 3 2 1 1 329 363 306 271
119 3 2 1 1 202 136 24 25
120 3 2 1 1 196 135 19 20
121 3 2 1 1 155 18 19 135
122 3 2 1 1 205 138 56 57
123 3 2 1 1 199 132 51 52
124 3 2 1 1 198 130 21 22
125 3 2 1 1 197 131 53 54
126 3 2 1 1 200 137 49 50
127 3 2 1 1 154 23 24 136
128 3 2 1 1 138 153 55 56
129 3 2 1 1 154 198 22 23
130 3 2 1 1 132 200 50 51
131 3 2 1 1 153 197 54 55
132 3 2 1 1 131 199 52 53
133 3 2 1 1 130 196 20 21
134 3 2 1 1 143 142 30 31
135 3 2 1 1 243 300 365 334
136 3 2 1 1 227 288 331 240
137 3 2 1 1 395 381 338 409
138 3 2 1 1 239 209 271 306
139 3 2 1 1 185 212 209 239
140 3 2 1 1 155 201 17 18
141 3 2 1 1 410 438 420 400
142 3 2 1 1 379 306 363 408
143 3 2 1 1 201 128 16 17
144 3 2 1 1 134 202 25 26
145 3 2 1 1 300 286 345 357
146 3 2 1 1 407 376 404 430
147 3 2 1 1 306 379 330 239
148 3 2 1 1 241 335 361 303
149 3 2 1 1 206 251 329 122
150 3 2 1 1 137 203 48 49
151 3 2 1 1 396 383 382 433
152 3 2 1 1 128 157 15 16
153 3 2 1 1 333 378 297 272
154 3 2 1 1 252 207 133 270
155 3 2 1 1 443 433 395 449
156 3 2 1 1 328 114 113 374
157 3 2 1 1 448 431 359 415
158 3 2 1 1 382 339 275 381
159 3 2 1 1 432 409 355 423
160 3 2 1 1 355 297 378 407
161 3 2 1 1 267 305 375 251
162 3 2 1 1 142 204 29 30
163 3 2 1 1 411 429 362 325
164 3 2 1 1 272 208 120 333
165 3 2 1 1 438 410 412 431
166 3 2 1 1 164 205 57 58
167 3 2 1 1 336 418 372 319
168 3 2 1 1 322 249 226 318
169 3 2 1 1 210 271 209 139
170 3 2 1 1 239 330 270 185
171 3 2 1 1 230 243 334 290
172 3 2 1 1 157 206 14 15
173 3 2 1 1 448 415 435 454
174 3 2 1 1 203 147 47 48
175 3 2 1 1 325 362 112 111
176 3 2 1 1 242 189 285 302
177 3 2 1 1 360 421 440 398
178 3 2 1 1 386 411 325 266
179 3 2 1 1 185 158 160 212
180 3 2 1 1 285 94 95 319
181 3 2 1 1 336 319 95 96
182 3 2 1 1 337 336 96 97
183 3 2 1 1 207 120 79 80
184 3 2 1 1 288 349 392 331
185 3 2 1 1 328 358 327 268
186 3 2 1 1 433 443 425 396
187 3 2 1 1 164 129 179 265
188 3 2 1 1 206 122 13 14
189 3 2 1 1 228 242 332 287
190 3 2 1 1 297 355 409 338
191 3 2 1 1 241 303 283 190
192 3 2 1 1 243 191 286 300
193 3 2 1 1 265 179 304 390
194 3 2 1 1 365 397 439 422
195 3 2 1 1 335 393 422 361
196 3 2 1 1 134 26 27 156
197 3 2 1 1 204 156 28 29
198 3 2 1 1 139 209 212 159
199 3 2 1 1 58 59 129 164
200 3 2 1 1 338 381 275 175
201 3 2 1 1 133 207 80 81
202 3 2 1 1 208 272 175 168
203 3 2 1 1 120 208 78 79
204 3 2 1 1 205 250 183 138
205 3 2 1 1 359 416 384 299
206 3 2 1 1 338 175 272 297
207 3 2 1 1 386 342 413 434
208 3 2 1 1 158 185 270 133
209 3 2 1 1 229 289 335 241
210 3 2 1 1 122 210 12 13
211 3 2 1 1 339 382 383 276
212 3 2 1 1 409 432 449 395
213 3 2 1 1 381 395 433 382
214 3 2 1 1 86 87 288 227
215 3 2 1 1 90 228 287 89
216 3 2 1 1 102 103 289 229
217 3 2 1 1 106 230 290 105
218 3 2 1 1 159 212 160 161
219 3 2 1 1 434 444 411 386
220 3 2 1 1 453 442 425 452
221 3 2 1 1 276 165 214 339
222 3 2 1 1 380 304 179 253
223 3 2 1 1 414 298 383 396
224 3 2 1 1 158 133 81 82
225 3 2 1 1 359 431 412 416
226 3 2 1 1 77 168 119 76
227 3 2 1 1 208 168 77 78
228 3 2 1 1 337 373 418 336
229 3 2 1 1 178 117 237 315
230 3 2 1 1 273 180 385 307
231 3 2 1 1 253 273 307 380
232 3 2 1 1 253 218 166 273
233 3 2 1 1 207 252 333 120
234 3 2 1 1 159 10 11 139
235 3 2 1 1 210 139 11 12
236 3 2 1 1 160 158 82 83
237 3 2 1 1 447 453 434 413
238 3 2 1 1 396 425 442 414
239 3 2 1 1 435 415 341 387
240 3 2 1 1 180 273 166 123
241 3 2 1 1 111 110 266 325
242 3 2 1 1 308 385 180 274
243 3 2 1 1 414 435 387 298
244 3 2 1 1 161 9 10 159
245 3 2 1 1 403 427 397 357
246 3 2 1 1 356 424 447 413
247 3 2 1 1 307 385 416 412
248 3 2 1 1 214 119 275 339
249 3 2 1 1 218 253 179 129
250 3 2 1 1 385 308 384 416
251 3 2 1 1 274 186 254 308
252 3 2 1 1 383 298 176 276
253 3 2 1 1 168 175 275 119
254 3 2 1 1 384 340 246 299
255 3 2 1 1 160 83 84 161
256 3 2 1 1 340 384 308 254
257 3 2 1 1 415 359 299 341
258 3 2 1 1 331 392 421 360
259 3 2 1 1 386 266 193 342
260 3 2 1 1 254 221 163 340
261 3 2 1 1 180 123 213 274
262 3 2 1 1 246 277 341 299
263 3 2 1 1 417 389 343 327
264 3 2 1 1 387 341 277 278
265 3 2 1 1 274 213 162 186
266 3 2 1 1 162 167 140 186
267 3 2 1 1 186 140 221 254
268 3 2 1 1 246 340 163 219
269 3 2 1 1 277 246 219 121
270 3 2 1 1 278 277 121 216
271 3 2 1 1 413 342 238 356
272 3 2 1 1 176 278 216 141
273 3 2 1 1 342 193 118 238
274 3 2 1 1 161 84 1 9
275 3 2 1 1 156 27 2 28
276 3 2 1 1 147 46 3 47
277 3 2 1 1 295 352 95 94
278 3 2 1 1 63 213 123 62
279 3 2 1 1 173 32 33 232
280 3 2 1 1 162 64 65 167
281 3 2 1 1 37 38 217 151
282 3 2 1 1 232 33 34 150
283 3 2 1 1 149 217 38 39
284 3 2 1 1 129 59 60 218
285 3 2 1 1 216 121 71 72
286 3 2 1 1 217 149 296 293
287 3 2 1 1 34 35 152 150
288 3 2 1 1 40 41 145 220
289 3 2 1 1 61 166 218 60
290 3 2 1 1 71 121 219 70
291 3 2 1 1 72 73 141 216
292 3 2 1 1 214 165 74 75
293 3 2 1 1 75 76 119 214
294 3 2 1 1 276 176 141 165
295 3 2 1 1 295 215 151 352
296 3 2 1 1 293 351 294 217
297 3 2 1 1 221 68 69 163
298 3 2 1 1 219 163 69 70
299 3 2 1 1 141 73 74 165
300 3 2 1 1 95 352 294 96
301 3 2 1 1 217 294 352 151
302 3 2 1 1 215 152 35 36
303 3 2 1 1 151 215 36 37
304 3 2 1 1 220 149 39 40
305 3 2 1 1 148 145 41 42
306 3 2 1 1 166 61 62 123
307 3 2 1 1 4 66 167 65
308 3 2 1 1 67 140 167 66
309 3 2 1 1 67 68 221 140
310 3 2 1 1 97 351 293 98
311 3 2 1 1 215 295 150 152
312 3 2 1 1 96 294 351 97
313 3 2 1 1 213 63 64 162
314 3 2 1 1 278 176 298 387
315 3 2 1 1 435 414 442 454
316 3 2 1 1 412 410 380 307
317 3 2 1 1 454 447 424 448
318 3 2 1 1 422 439 401 361
319 3 2 1 1 350 290 334 393
320 3 2 1 1 149 220 235 296
321 3 2 1 1 100 99 296 235
322 3 2 1 1 117 178 126 5
323 3 2 1 1 349 287 332 392
324 3 2 1 1 372 402 364 302
325 3 2 1 1 392 332 364 421
326 3 2 1 1 389 354 237 343
327 3 2 1 1 437 436 455 446
328 3 2 1 1 249 322 390 377
329 3 2 1 1 327 358 437 417
330 3 2 1 1 250 265 390 322
331 3 2 1 1 388 403 369 344
332 3 2 1 1 109 108 118 193
333 3 2 1 1 110 109 193 266
334 3 2 1 1 93 92 144 236
335 3 2 1 1 94 93 236 295
336 3 2 1 1 301 388 344 284
337 3 2 1 1 232 150 295 236
338 3 2 1 1 437 358 405 436
339 3 2 1 1 92 6 233 144
340 3 2 1 1 289 350 393 335
341 3 2 1 1 236 144 173 232
342 3 2 1 1 8 226 249 177
343 3 2 1 1 268 327 343 211
344 3 2 1 1 393 334 365 422
345 3 2 1 1 93 189 170 92
346 3 2 1 1 99 100 171 190
347 3 2 1 1 109 191 172 108
348 3 2 1 1 115 116 169 192
349 3 2 1 1 424 356 420 438
350 3 2 1 1 354 389 428 399
351 3 2 1 1 89 88 310 281
352 3 2 1 1 102 279 309 103
353 3 2 1 1 86 280 348 87
354 3 2 1 1 105 104 347 282
355 3 2 1 1 88 87 348 310
356 3 2 1 1 104 103 309 347
357 3 2 1 1 85 222 280 86
358 3 2 1 1 90 89 281 223
359 3 2 1 1 101 224 279 102
360 3 2 1 1 106 105 282 225
361 3 2 1 1 347 309 368 419
362 3 2 1 1 347 419 367 282
363 3 2 1 1 117 211 343 237
364 3 2 1 1 445 428 389 417
365 3 2 1 1 374 405 358 328
366 3 2 1 1 377 346 177 249
367 3 2 1 1 88 349 288 87
368 3 2 1 1 89 287 349 88
369 3 2 1 1 104 350 289 103
370 3 2 1 1 105 290 350 104
371 3 2 1 1 429 441 436 405
372 3 2 1 1 317 255 178 315
373 3 2 1 1 222 85 5 126
374 3 2 1 1 224 101 7 125
375 3 2 1 1 223 124 91 90
376 3 2 1 1 225 127 107 106
377 3 2 1 1 370 348 280 366
378 3 2 1 1 391 279 224 311
379 3 2 1 1 94 285 189 93
380 3 2 1 1 110 286 191 109
381 3 2 1 1 98 99 190 283
382 3 2 1 1 114 115 192 284
383 3 2 1 1 6 187 353 292
384 3 2 1 1 316 310 348 370
385 3 2 1 1 373 303 361 401
386 3 2 1 1 113 114 284 344
387 3 2 1 1 146 291 125 188
388 3 2 1 1 97 98 283 337
389 3 2 1 1 91 124 187 6
390 3 2 1 1 112 113 344 369
391 3 2 1 1 391 368 309 279
392 3 2 1 1 220 145 174 235
393 3 2 1 1 111 345 286 110
394 3 2 1 1 108 8 177 118
395 3 2 1 1 178 255 257 126
396 3 2 1 1 238 118 177 346
397 3 2 1 1 280 222 314 366
398 3 2 1 1 282 367 312 225
399 3 2 1 1 353 187 124 256
400 3 2 1 1 126 257 314 222
401 3 2 1 1 124 223 313 256
402 3 2 1 1 127 225 312 260
403 3 2 1 1 107 127 226 8
404 3 2 1 1 313 223 281 394
405 3 2 1 1 224 125 291 311
406 3 2 1 1 421 364 402 440
407 3 2 1 1 450 439 397 427
408 3 2 1 1 375 305 371 406
409 3 2 1 1 145 148 188 174
410 3 2 1 1 318 226 127 260
411 3 2 1 1 99 98 293 296
412 3 2 1 1 143 173 144 233
413 3 2 1 1 418 426 402 372
414 3 2 1 1 450 440 402 426
$EndElements
