$MeshFormat
2.2 0 8
$EndMeshFormat
$Nodes
165
1 50 0 0
2 50 100 0
3 50 80 0
4 50 50 0
5 50 20 0
6 0 100 0
7 0 0 0
8 100 100 0
9 100 0 0
10 50 90 0
11 50 70 0
12 50 60 0
13 50 40 0
14 50 30 0
15 50 10 0
16 0 90 0
17 0 80 0
18 0 70 0
19 0 60 0
20 0 50 0
21 0 40 0
22 0 30 0
23 0 20 0
24 0 10 0
25 40 100 0
26 30 100 0
27 20 100 0
28 10 100 0
29 10 0 0
30 20 0 0
31 30 0 0
32 40 0 0
33 90 100 0
34 80 100 0
35 70 100 0
36 60 100 0
37 100 10 0
38 100 20 0
39 100 30 0
40 100 40 0
41 100 50 0
42 100 60 0
43 100 70 0
44 100 80 0
45 100 90 0
46 60 0 0
47 70 0 0
48 80 0 0
49 90 0 0
50 10.1020647144428 39.9917570052431 0
51 40.0682940245081 70.0158543664157 0
52 40.2854788959396 40.0787792613651 0
53 30.007350091185 9.99687033422114 0
54 10.0102406860292 80.000930892116 0
55 40.0029211305021 90.0006877796498 0
56 10.0035754935818 9.99841937322276 0
57 10.0944511844314 60.001253714674 0
58 40.0053011792448 9.99814066720417 0
59 10.0508394522616 29.9928577933243 0
60 40.305437807416 50.0757000395616 0
61 40.0349502687289 20.0008752334287 0
62 10.0019978369587 90.0002397346267 0
63 20.0036566929286 90.0006347238481 0
64 30.3545602729232 50.0407835050735 0
65 20.2084469270963 39.9975949340893 0
66 20.0228501266962 80.003158764887 0
67 30.0494100443192 19.9980803998787 0
68 10.126690785566 49.9980940782631 0
69 40.0193988560086 80.0042646854523 0
70 40.1142565365957 30.0180511204848 0
71 10.043413770051 70.002571362291 0
72 10.018831502346 19.9959414559367 0
73 30.0064900877565 90.0012665240381 0
74 20.0101737936067 9.9973219559724 0
75 40.1588279948174 60.0342704158147 0
76 30.2149304253442 60.0297073403726 0
77 20.2362578400416 50.0092535049813 0
78 30.2552024047969 40.0288854572882 0
79 20.1050262642903 29.9968619938327 0
80 30.0927103501905 70.0144244859465 0
81 30.0318516585165 80.0054780011679 0
82 20.0435482629281 19.9964175885592 0
83 20.0843122961708 70.008405612172 0
84 30.1390888366431 30.0122520903012 0
85 20.166285389927 60.0128152123223 0
86 89.8724227554307 60.0273093865518 0
87 89.9438385551723 30.0339586558273 0
88 59.752794965327 79.794752945981 0
89 59.6837907250936 59.9990340855639 0
90 59.9039190822417 30.0895978749775 0
91 59.9917686439097 10.0076183219191 0
92 79.9380814995378 89.9517733062137 0
93 89.9948775343823 10.0041175585985 0
94 89.883887201849 40.0594860765607 0
95 89.9056629227147 69.9965527511943 0
96 59.7578229838809 50.14172906812 0
97 59.9204931385516 89.9098698348219 0
98 89.9761523020014 89.9858055270934 0
99 79.988561758235 10.0097167198423 0
100 79.6795959659988 60.0657275932281 0
101 79.8739886403946 30.0949422475535 0
102 89.847087082566 50.0633240220254 0
103 89.9754182897599 20.0177951822319 0
104 69.5730834742438 60.0463960450072 0
105 59.9633536849992 20.0336706694732 0
106 59.6841158369003 69.8728821446629 0
107 59.8274963657464 40.1421094233295 0
108 69.8975902202252 89.9108590917155 0
109 89.9392920228155 79.9799286837108 0
110 69.9847628807188 10.0135173703445 0
111 79.7612704150598 40.1614200405119 0
112 79.6977287396077 50.1540858562837 0
113 69.8577165731185 30.118583928725 0
114 69.6613841372503 50.176624923196 0
115 69.6429822554314 69.9061994513141 0
116 79.8464646329772 79.9300004723457 0
117 79.9504888008083 20.0391664026214 0
118 79.7665046129111 69.9677357286868 0
119 69.941926445234 20.0493624737734 0
120 69.7781605628105 79.8739846289329 0
121 69.764460849726 40.1674923421312 0
122 50 0 0
123 50 0 30
124 50 100 30
125 50 100 0
126 50 80 0
127 50 50 0
128 50 20 0
129 50 0 10
130 50 0 20
131 50 10 30
132 50 20 30
133 50 30 30
134 50 40 30
135 50 50 30
136 50 60 30
137 50 70 30
138 50 80 30
139 50 90 30
140 50 100 20
141 50 100 10
142 50 90 0
143 50 70 0
144 50 60 0
145 50 40 0
146 50 30 0
147 50 10 0
148 50 59.8658588457439 19.9202109173458
149 50 29.9590502704338 20.1422630010203
150 50 79.9798624351869 19.9806928909605
151 50 9.99596506719423 20.018275572678
152 50 59.8554783825196 9.92676838026783
153 50 49.8607255322062 10.0338321725315
154 50 39.9246348224011 20.1278039505179
155 50 29.9469270447577 10.1261905973667
156 50 89.9960766349078 9.99596519778149
157 50 79.9781650920694 9.97940349374316
158 50 19.9837008513926 10.0536496206419
159 50 9.99563138510537 10.0173932094212
160 50 89.9948976005211 19.9950121223205
161 50 49.9027422288989 20.0271698485166
162 50 69.9405870740658 9.95590203906091
163 50 19.9851419796577 20.0531051786316
164 50 69.9446147125398 19.9594679605069
165 50 39.9204495254348 10.1063644242915
$EndNodes
$Elements
130
1 3 2 1 1 60 75 76 64
2 3 2 1 1 64 77 65 78
3 3 2 1 1 65 79 84 78
4 3 2 1 1 64 76 85 77
5 3 2 1 1 22 59 50 21
6 3 2 1 1 20 21 50 68
7 3 2 1 1 22 23 72 59
8 3 2 1 1 31 32 58 53
9 3 2 1 1 50 59 79 65
10 3 2 1 1 50 65 77 68
11 3 2 1 1 84 79 82 67
12 3 2 1 1 52 78 84 70
13 3 2 1 1 85 76 80 83
14 3 2 1 1 60 52 13 4
15 3 2 1 1 2 25 55 10
16 3 2 1 1 3 10 55 69
17 3 2 1 1 3 69 51 11
18 3 2 1 1 11 51 75 12
19 3 2 1 1 13 52 70 14
20 3 2 1 1 5 14 70 61
21 3 2 1 1 1 15 58 32
22 3 2 1 1 68 57 19 20
23 3 2 1 1 75 51 80 76
24 3 2 1 1 72 56 74 82
25 3 2 1 1 85 83 71 57
26 3 2 1 1 84 67 61 70
27 3 2 1 1 53 67 82 74
28 3 2 1 1 51 69 81 80
29 3 2 1 1 75 60 4 12
30 3 2 1 1 61 58 15 5
31 3 2 1 1 6 16 62 28
32 3 2 1 1 17 54 62 16
33 3 2 1 1 18 71 54 17
34 3 2 1 1 71 18 19 57
35 3 2 1 1 24 56 72 23
36 3 2 1 1 7 29 56 24
37 3 2 1 1 25 26 73 55
38 3 2 1 1 27 63 73 26
39 3 2 1 1 28 62 63 27
40 3 2 1 1 31 53 74 30
41 3 2 1 1 29 30 74 56
42 3 2 1 1 67 53 58 61
43 3 2 1 1 62 54 66 63
44 3 2 1 1 66 54 71 83
45 3 2 1 1 81 69 55 73
46 3 2 1 1 79 59 72 82
47 3 2 1 1 66 81 73 63
48 3 2 1 1 81 66 83 80
49 3 2 1 1 57 68 77 85
50 3 2 1 1 60 64 78 52
51 3 2 1 1 104 115 106 89
52 3 2 1 1 102 112 111 94
53 3 2 1 1 114 121 111 112
54 3 2 1 1 39 87 103 38
55 3 2 1 1 43 95 86 42
56 3 2 1 1 41 42 86 102
57 3 2 1 1 114 112 100 104
58 3 2 1 1 115 104 100 118
59 3 2 1 1 87 101 117 103
60 3 2 1 1 40 94 87 39
61 3 2 1 1 102 94 40 41
62 3 2 1 1 43 44 109 95
63 3 2 1 1 106 115 120 88
64 3 2 1 1 107 90 113 121
65 3 2 1 1 87 94 111 101
66 3 2 1 1 86 95 118 100
67 3 2 1 1 114 96 107 121
68 3 2 1 1 86 100 112 102
69 3 2 1 1 95 109 116 118
70 3 2 1 1 101 111 121 113
71 3 2 1 1 106 88 3 11
72 3 2 1 1 10 3 88 97
73 3 2 1 1 13 107 96 4
74 3 2 1 1 2 10 97 36
75 3 2 1 1 4 96 89 12
76 3 2 1 1 14 90 107 13
77 3 2 1 1 5 105 90 14
78 3 2 1 1 1 46 91 15
79 3 2 1 1 5 15 91 105
80 3 2 1 1 116 109 98 92
81 3 2 1 1 88 120 108 97
82 3 2 1 1 90 105 119 113
83 3 2 1 1 101 113 119 117
84 3 2 1 1 89 106 11 12
85 3 2 1 1 8 33 98 45
86 3 2 1 1 34 92 98 33
87 3 2 1 1 35 108 92 34
88 3 2 1 1 108 35 36 97
89 3 2 1 1 9 37 93 49
90 3 2 1 1 37 38 103 93
91 3 2 1 1 109 44 45 98
92 3 2 1 1 46 47 110 91
93 3 2 1 1 48 99 110 47
94 3 2 1 1 49 93 99 48
95 3 2 1 1 104 89 96 114
96 3 2 1 1 119 105 91 110
97 3 2 1 1 93 103 117 99
98 3 2 1 1 110 99 117 119
99 3 2 1 1 92 108 120 116
100 3 2 1 1 115 118 116 120
101 3 2 2 2 153 165 154 161
102 3 2 2 2 153 161 148 152
103 3 2 2 2 153 152 144 127
104 3 2 2 2 133 149 163 132
105 3 2 2 2 161 154 134 135
106 3 2 2 2 135 136 148 161
107 3 2 2 2 137 138 150 164
108 3 2 2 2 162 143 144 152
109 3 2 2 2 157 162 164 150
110 3 2 2 2 162 157 126 143
111 3 2 2 2 147 159 158 128
112 3 2 2 2 122 129 159 147
113 3 2 2 2 123 131 151 130
114 3 2 2 2 139 160 150 138
115 3 2 2 2 124 140 160 139
116 3 2 2 2 125 142 156 141
117 3 2 2 2 126 157 156 142
118 3 2 2 2 165 145 146 155
119 3 2 2 2 128 158 155 146
120 3 2 2 2 165 153 127 145
121 3 2 2 2 129 130 151 159
122 3 2 2 2 151 131 132 163
123 3 2 2 2 154 149 133 134
124 3 2 2 2 136 137 164 148
125 3 2 2 2 140 141 156 160
126 3 2 2 2 152 148 164 162
127 3 2 2 2 155 149 154 165
128 3 2 2 2 157 150 160 156
129 3 2 2 2 159 151 163 158
130 3 2 2 2 149 155 158 163
$EndElements
