$MeshFormat
2.2 0 8
$EndMeshFormat
$Nodes
633
1 100 50 0
2 150 50 0
3 200 50 0
4 250 100 0
5 200 150 0
6 150 150 0
7 100 150 0
8 50 100 0
9 105 50 0
10 110 50 0
11 115 50 0
12 120 50 0
13 125 50 0
14 130 50 0
15 135 50 0
16 140 50 0
17 145 50 0
18 155 50 0
19 160 50 0
20 165 50 0
21 170 50 0
22 175 50 0
23 180 50 0
24 185 50 0
25 190 50 0
26 195 50 0
27 203.571428571429 53.5714285714286 0
28 207.142857142857 57.1428571428571 0
29 210.714285714286 60.7142857142857 0
30 214.285714285714 64.2857142857143 0
31 217.857142857143 67.8571428571428 0
32 221.428571428571 71.4285714285714 0
33 225 75 0
34 228.571428571429 78.5714285714286 0
35 232.142857142857 82.1428571428571 0
36 235.714285714286 85.7142857142857 0
37 239.285714285714 89.2857142857143 0
38 242.857142857143 92.8571428571428 0
39 246.428571428571 96.4285714285714 0
40 246.428571428571 103.571428571429 0
41 242.857142857143 107.142857142857 0
42 239.285714285714 110.714285714286 0
43 235.714285714286 114.285714285714 0
44 232.142857142857 117.857142857143 0
45 228.571428571429 121.428571428571 0
46 225 125 0
47 221.428571428571 128.571428571429 0
48 217.857142857143 132.142857142857 0
49 214.285714285714 135.714285714286 0
50 210.714285714286 139.285714285714 0
51 207.142857142857 142.857142857143 0
52 203.571428571429 146.428571428571 0
53 195 150 0
54 190 150 0
55 185 150 0
56 180 150 0
57 175 150 0
58 170 150 0
59 165 150 0
60 160 150 0
61 155 150 0
62 145 150 0
63 140 150 0
64 135 150 0
65 130 150 0
66 125 150 0
67 120 150 0
68 115 150 0
69 110 150 0
70 105 150 0
71 96.4285714285714 146.428571428571 0
72 92.8571428571429 142.857142857143 0
73 89.2857142857143 139.285714285714 0
74 85.7142857142857 135.714285714286 0
75 82.1428571428572 132.142857142857 0
76 78.5714285714286 128.571428571429 0
77 75 125 0
78 71.4285714285714 121.428571428571 0
79 67.8571428571429 117.857142857143 0
80 64.2857142857143 114.285714285714 0
81 60.7142857142857 110.714285714286 0
82 57.1428571428572 107.142857142857 0
83 53.5714285714286 103.571428571429 0
84 53.5714285714286 96.4285714285714 0
85 57.1428571428571 92.8571428571429 0
86 60.7142857142857 89.2857142857143 0
87 64.2857142857143 85.7142857142857 0
88 67.8571428571428 82.1428571428572 0
89 71.4285714285714 78.5714285714286 0
90 75 75 0
91 78.5714285714286 71.4285714285714 0
92 82.1428571428571 67.8571428571429 0
93 85.7142857142857 64.2857142857143 0
94 89.2857142857143 60.7142857142857 0
95 92.8571428571428 57.1428571428572 0
96 96.4285714285714 53.5714285714286 0
97 150 145 0
98 150 140 0
99 150 135 0
100 150 130 0
101 150 125 0
102 150 120 0
103 150 115 0
104 150 110 0
105 150 105 0
106 150 100 0
107 150 95 0
108 150 90 0
109 150 85 0
110 150 80 0
111 150 75 0
112 150 70 0
113 150 65 0
114 150 60 0
115 150 55 0
116 82.1534356987763 74.9899869930544 0
117 217.840711744895 75.0173523422548 0
118 214.250512287199 128.615660645988 0
119 85.7177749094731 128.541581832291 0
120 71.4277233386479 114.286502994785 0
121 225.000430890728 117.859206955866 0
122 119.990498704252 55.1438997836131 0
123 185.079739773608 55.0679731798302 0
124 180.012214203057 145.013141823104 0
125 114.957391856648 144.951306665364 0
126 228.572266336499 85.7138601450337 0
127 203.523846766803 139.699609510527 0
128 100.636314032138 56.0354131079631 0
129 235.714667502711 107.142949508899 0
130 64.2852062590288 92.8570178780035 0
131 201.839515075226 58.7642824873198 0
132 134.999415940935 55.0014154855209 0
133 169.999836763437 55.0065598226297 0
134 129.965064011817 144.960147254092 0
135 164.998937453229 144.999217953293 0
136 98.7742710999487 144.035389330492 0
137 239.285907900069 96.4285600305581 0
138 60.7140620381571 103.571453901698 0
139 145.000110328218 55.0002192119955 0
140 154.999902243659 144.999855042262 0
141 190.046623579726 145.084634926754 0
142 98.0220592170095 139.259768501145 0
143 210.373502477561 68.1727798456892 0
144 96.7189203901013 62.9592221802698 0
145 89.431454278504 131.945401716154 0
146 89.1153349513741 67.8895020401814 0
147 210.630476552884 132.235902876636 0
148 217.844104790956 125.021037338831 0
149 82.139697557197 124.994674780895 0
150 74.9986773643466 82.1416520512935 0
151 221.426173119439 78.5745535537058 0
152 71.4272373772022 85.7136464837288 0
153 235.714664297654 92.8570718372873 0
154 67.8564789922908 110.714675117476 0
155 78.5694423824515 121.428904065789 0
156 232.143537851267 110.714556231905 0
157 242.857229578742 100.000003151867 0
158 57.1427589921641 99.9999969079277 0
159 154.999911422584 55.0004415202477 0
160 144.999729293705 144.99938424141 0
161 129.997640491503 55.0043149997087 0
162 169.997838181584 144.999000763759 0
163 114.17259262623 55.8400944460961 0
164 164.999755499928 55.0034754791864 0
165 134.988968420314 144.988531089233 0
166 180.021229555369 55.0338883903888 0
167 195.155320299264 54.9214989358914 0
168 119.825221354043 144.89938475316 0
169 104.539705720584 144.475271041478 0
170 110.030658974028 53.5805527174069 0
171 199.933596214013 143.935660792604 0
172 106.358348044622 54.8724510028134 0
173 198.720121641349 54.5845780014323 0
174 92.783526313486 128.35436217521 0
175 210.589701201032 125.148575358469 0
176 217.856480522695 82.1473262558067 0
177 185.094789497362 60.1502016297783 0
178 120.102151046313 59.925564661395 0
179 115.022175163733 141.028753296811 0
180 78.5678300685561 85.7117954045726 0
181 71.4265551656285 107.143518722368 0
182 164.997300041135 139.997431463349 0
183 170.001833269093 60.0257374095916 0
184 129.936977353896 139.936485083476 0
185 195.84377897861 59.8828845351049 0
186 104.198349016442 138.967016357167 0
187 232.143959484966 103.571578823006 0
188 197.10230147538 140.427346701269 0
189 102.182766988212 61.9020327554611 0
190 205.954112147388 65.2589450621157 0
191 92.4876383340036 64.9511221102742 0
192 93.9491496963232 134.532961591586 0
193 207.040025954365 135.90318023522 0
194 214.19342996955 71.5191209882404 0
195 85.6954518575172 71.4014166237056 0
196 89.2468406074615 124.947351118962 0
197 82.1370984884136 117.85989109994 0
198 78.5740554806162 78.5677525092318 0
199 221.424737590834 121.43672637054 0
200 225.000426719883 82.1431193282002 0
201 74.9985821285491 117.858185752821 0
202 67.8562093820596 89.2853994910358 0
203 228.572240843038 114.286552270086 0
204 235.714865778476 100.000021597402 0
205 232.143506753254 89.2855095670998 0
206 64.2852301204102 107.143001831763 0
207 239.285971325234 103.571457666219 0
208 64.2850234807726 100.000000953497 0
209 60.7139831967275 96.4285387013957 0
210 154.999978115807 60.0013295488164 0
211 145.000260991716 60.0002603085392 0
212 125.002415030712 55.0189512023053 0
213 174.998808973159 145.00154593748 0
214 154.999808863677 139.999558892765 0
215 144.998461389937 139.998560216378 0
216 140.000025852726 55.0005595556939 0
217 159.999513898081 144.999500533301 0
218 159.999871957931 55.001654873691 0
219 139.996791078287 144.996669929938 0
220 175.003224427866 55.0169241480581 0
221 124.873669957881 144.861820624546 0
222 185.035155288763 145.047025225822 0
223 190.182522348994 55.057403556324 0
224 116.384803737631 59.9357603997086 0
225 109.97887038189 144.679620789238 0
226 193.834900048164 145.018071530657 0
227 96.0270139550721 124.912351655058 0
228 119.72401344964 64.5348191379722 0
229 89.382098680041 74.9105751839109 0
230 96.5466471170681 131.755316800625 0
231 202.493533387756 69.0361306538536 0
232 217.831506721054 117.879110423367 0
233 78.5674065326236 114.28810086078 0
234 228.573281527015 92.856858300655 0
235 221.431218628207 85.71453475954 0
236 174.99255898221 139.995851567346 0
237 160.000539938763 60.0056039847869 0
238 139.989687312244 139.994279722697 0
239 180.008156730303 60.0755275797468 0
240 119.238240266071 138.996204277308 0
241 190.410425608934 60.1923529643013 0
242 109.115918905055 60.8902118468132 0
243 110.898174089833 138.43016829807 0
244 200.019053150314 136.292308014699 0
245 98.6248162193137 135.936693843346 0
246 202.084610030202 63.2891874248245 0
247 94.5442236622829 68.1944915341708 0
248 98.1093879687415 68.2699802282363 0
249 203.368520072565 132.515324320957 0
250 210.613493069531 75.1288620987752 0
251 214.260930001746 78.6063011538697 0
252 214.205674466221 121.504165880664 0
253 74.9969629409419 110.715710997737 0
254 206.953031666519 128.829431950335 0
255 82.1483652879499 82.1357238611618 0
256 129.965074752656 59.9933424995943 0
257 139.998864294425 60.0000960419923 0
258 85.698242082119 121.422337115602 0
259 228.573740016354 100.000116277108 0
260 225.002090111328 110.715916021349 0
261 228.573339380107 107.143440400137 0
262 71.4261274798259 92.8566271277119 0
263 74.9964628521916 89.2844660103206 0
264 67.8557693029669 103.571629976937 0
265 67.8556130566725 96.4284180008408 0
266 232.144078001399 96.4285153901762 0
267 154.999851473352 134.998958059175 0
268 159.998927093039 139.998619290458 0
269 155.00029573471 65.0031353206158 0
270 144.993076065418 134.997467364857 0
271 145.000001187733 64.9995372430065 0
272 165.002197730563 60.0156796567938 0
273 134.966588327959 139.979422206525 0
274 169.994701147563 139.995767450643 0
275 180.006373136896 140.006157800171 0
276 175.000024791842 60.0455402092886 0
277 124.950262792068 59.9582154242605 0
278 124.90623119836 139.766049406875 0
279 185.064713330959 140.067712546121 0
280 190.235434743697 140.219024212939 0
281 203.205942215943 125.615439403312 0
282 207.107180257509 78.6864500465968 0
283 175.032477704766 65.0931228434069 0
284 124.991535031861 135.023289683801 0
285 175.000198884536 134.973269982989 0
286 85.7185332696305 85.70430446513 0
287 82.1340248468124 110.718203390221 0
288 78.564048566241 92.8556114176605 0
289 103.317898954921 67.8804001594161 0
290 115.801497252457 134.546219816637 0
291 196.324241196435 132.856653861126 0
292 210.401857260434 118.022664018138 0
293 225.004081523678 96.4284942123426 0
294 74.9953256450654 103.572028948456 0
295 139.991847023411 64.9968101411883 0
296 184.952531550732 65.1465874503721 0
297 197.169086474442 65.710288622552 0
298 103.533584635452 132.285154485595 0
299 98.4680225779902 127.497811214458 0
300 85.7521198106077 78.5451709778826 0
301 92.5878584755038 71.1806164406356 0
302 206.758209210883 71.9091697705081 0
303 89.2574221825095 117.870804799466 0
304 225.002776428987 89.2853032896332 0
305 221.432082097349 107.145323096901 0
306 217.864937942233 89.2857197839667 0
307 92.7442196377132 121.432557765748 0
308 210.704196852109 82.1755250212597 0
309 74.994872996264 96.4280839523161 0
310 225.003735557972 103.572240746951 0
311 221.422771538538 114.293215565555 0
312 71.4255069298259 100.000037907808 0
313 155.00019191216 129.997942636975 0
314 155.000522383849 70.0053127875847 0
315 144.978769301356 129.996841880374 0
316 159.998640413137 134.997016081428 0
317 144.99794590431 69.9982284574037 0
318 160.002535733238 65.0153364640779 0
319 134.985119172711 59.9976605733457 0
320 139.964957983139 134.993008299708 0
321 114.945723697575 63.4090540463583 0
322 170.031654424473 65.085865138109 0
323 180.046445361232 134.932986406526 0
324 129.866092644692 134.996733964571 0
325 164.996730603003 134.993552038229 0
326 124.709314602082 64.8589078921428 0
327 108.597485055972 67.6006097666884 0
328 109.427027256927 133.509853971991 0
329 190.305358476276 65.3728443291895 0
330 99.622383166087 121.645287901253 0
331 118.73916187952 69.3863097593483 0
332 203.546346739138 82.200032814089 0
333 175.03385489743 129.921236692016 0
334 170.106630573306 70.2437279285188 0
335 129.623682803641 130.099702570895 0
336 113.088820102994 130.36056464135 0
337 139.974825107712 69.9922873065358 0
338 108.668583229791 71.6779169541472 0
339 97.6609492227149 74.5354364580275 0
340 89.3417277421328 82.1144666390817 0
341 217.843587702755 110.72508263708 0
342 160.003084204288 70.028088665795 0
343 139.912275667505 129.99484825289 0
344 134.948438498496 64.9891566345478 0
345 185.235896552557 134.907989903308 0
346 199.601594626031 129.175080910635 0
347 206.682756232494 121.884790671194 0
348 78.5644651646034 107.144603452737 0
349 221.434835908716 92.8569628181875 0
350 199.499434800915 72.99285910087 0
351 203.466240006618 75.5402492796065 0
352 214.180060313351 114.334401421459 0
353 85.7004205693657 114.294008270417 0
354 217.861697513007 103.574626006256 0
355 96.341183133101 117.958414345164 0
356 82.1362410427335 89.2815182455202 0
357 78.5625721843073 100.000037121264 0
358 214.289778445771 85.7218276878574 0
359 221.43478111247 100.00090031538 0
360 155.000722623202 75.0084858506805 0
361 155.000795949165 124.99649895225 0
362 144.992334470019 74.9984836748796 0
363 144.947817989021 124.996444437633 0
364 165.015239702332 65.0516288311448 0
365 134.901883762927 134.993739127985 0
366 159.99935363989 129.994210078155 0
367 121.462354022631 135.062908878082 0
368 179.990271333683 65.0706798944978 0
369 169.998451503609 134.984066344565 0
370 129.83807869399 64.9579157504384 0
371 194.300628705596 135.859155558805 0
372 113.585592240362 68.3264463982399 0
373 117.826800850359 75.5075072527346 0
374 103.586780625741 118.233794198556 0
375 92.8842539715262 85.6911086620767 0
376 200.244362639229 123.423769140914 0
377 139.950055209217 74.9935694849389 0
378 85.697062961321 107.147753011675 0
379 160.000926681438 124.990478789912 0
380 120.052389815161 131.91167284273 0
381 109.948653212339 126.244461376018 0
382 194.618493775567 71.451040550683 0
383 200.10059999393 78.8231920845364 0
384 210.727202255081 89.2898758019032 0
385 210.560771611543 110.751513703564 0
386 160.000950898496 75.0381199499084 0
387 139.82819758379 124.996808306348 0
388 164.999533356598 129.986344647451 0
389 184.669997786765 69.7041868026891 0
390 196.648437314626 125.388246125113 0
391 124.620567667544 130.551401031309 0
392 112.239598731811 73.2447149468589 0
393 105.015257376049 74.4295839738955 0
394 102.469457028415 125.810625455692 0
395 93.0486509040794 78.5113542080505 0
396 201.491475011079 118.862499689081 0
397 82.1294420252443 103.572906057938 0
398 214.254489909017 107.155399540609 0
399 85.696423623603 92.8535939256914 0
400 214.299545717494 92.858349173309 0
401 92.8316164248307 114.326202505323 0
402 207.131737931301 85.7371191261665 0
403 214.294792185678 100.002405430014 0
404 82.1288371994128 96.4273420010077 0
405 217.866743014905 96.4294021569434 0
406 155.001077903094 80.0100102096432 0
407 144.91710623328 119.996095901076 0
408 144.984096037803 80.0025937922876 0
409 155.001585873866 119.99452579562 0
410 180.131034455173 129.769452501542 0
411 129.666685869939 69.9464055825241 0
412 124.269265999794 69.8556726591958 0
413 175.26486487298 70.2350947984853 0
414 165.021495297576 70.1035332206494 0
415 134.770890954256 130.015725253956 0
416 134.87004195029 69.9774417878239 0
417 170.00879076876 129.965577433893 0
418 190.481504873645 135.257009094886 0
419 114.952391398512 80.6211304405497 0
420 139.759773014027 119.995492308233 0
421 196.050193433484 82.0300790850805 0
422 195.314550456069 120.75780095027 0
423 139.926107300652 80.0053531429203 0
424 175.059092831103 124.848162149994 0
425 160.001109477053 80.0366604910712 0
426 160.00332822689 119.985654091016 0
427 96.5345635789822 82.1369844400445 0
428 203.53675193763 89.3112466089571 0
429 210.732426432878 96.4302578522237 0
430 129.285479825454 125.159366520808 0
431 118.273316259968 127.187102787469 0
432 170.037619854938 75.3597729314014 0
433 185.426879804714 129.45486889272 0
434 124.149319649998 74.9414640491746 0
435 106.699507513771 122.231757660853 0
436 110.389143024339 77.792875076547 0
437 99.4306455141471 79.4010913455138 0
438 207.022754092195 107.141661672633 0
439 197.672015296755 76.2749872547912 0
440 89.2531627688675 103.5756056866 0
441 100.090642535711 114.39008664884 0
442 89.2462807969199 96.4287095387782 0
443 89.273585809585 89.2769624484139 0
444 210.691201852117 103.575821877867 0
445 85.6898763786118 100.000737855251 0
446 206.511847474481 114.455026715697 0
447 89.2655668418055 110.729852053961 0
448 155.002656648961 85.0095620507571 0
449 155.002975504225 114.992341283698 0
450 144.977190136382 85.0100124516383 0
451 144.908783165772 114.995843756751 0
452 180.179181106763 69.842743043872 0
453 134.601809605149 125.035012826446 0
454 165.005593825223 75.1331019083617 0
455 134.808932380105 74.9804811538755 0
456 165.004611475543 124.975411068572 0
457 191.796753816497 129.069887314457 0
458 189.411932749889 70.2882164794014 0
459 123.808852410183 125.642809058978 0
460 123.504429855014 120.286263112411 0
461 139.914780503641 85.0235175710624 0
462 139.757040949867 114.990978149661 0
463 92.7920237018327 100.006337055937 0
464 160.009902446106 85.0261597893378 0
465 160.007763587424 114.980605343286 0
466 108.391507256509 114.136649264863 0
467 185.255836430528 124.010733009559 0
468 184.420823378177 72.7789017296048 0
469 99.9489017797205 85.6785205043041 0
470 92.8245348893768 107.158721787006 0
471 203.058308749278 110.701004020569 0
472 92.7963810866823 92.8612942098689 0
473 108.925015579232 81.2055505415101 0
474 192.699839991058 77.1118043348832 0
475 129.553640239558 74.9483059302145 0
476 110.039554985824 118.889495489625 0
477 180.129465091208 124.581929442594 0
478 96.4256942406882 110.751710128782 0
479 198.521590358876 113.803886996127 0
480 207.154612739167 92.8654495368995 0
481 203.563480748839 103.550388161081 0
482 199.755862288755 85.7822589908447 0
483 207.150659251502 99.9995271434644 0
484 155.005265401479 109.990879138905 0
485 144.973483246911 90.0171096713617 0
486 155.00561620392 90.0068169194416 0
487 144.924344839245 109.997859325101 0
488 175.949098943997 76.2179935942875 0
489 165.00977737922 119.964231013741 0
490 124.42342201112 79.7818633523927 0
491 120.697893420639 79.6978072728448 0
492 134.498311885813 120.022809266823 0
493 164.991189358328 80.0954578511515 0
494 134.774499857155 79.9932279783426 0
495 170.021310022196 124.934758994943 0
496 104.032065242877 81.4877467540078 0
497 190.326602094963 122.738245772509 0
498 187.394085783431 74.3817521566274 0
499 129.138153052427 120.125452421154 0
500 165.017803427621 114.956078603882 0
501 123.977249247495 115.122344603456 0
502 165.023290803418 85.0263059039594 0
503 124.522654211409 84.47708252493 0
504 139.808905869228 109.990526713365 0
505 139.917944044445 90.0383044353015 0
506 190.854455054096 86.2624152137419 0
507 114.304218751767 112.813971187951 0
508 96.306159484263 96.4514438967197 0
509 175.048486758652 119.811208004027 0
510 184.812828629097 119.069258476843 0
511 112.271743631132 85.6408738818613 0
512 193.67912109695 116.146389332141 0
513 199.991905877996 107.025855963463 0
514 183.958368547985 77.5433701610159 0
515 134.532666425455 115.000618845558 0
516 129.573156871125 79.9126014356952 0
517 115.970436777912 119.946787634523 0
518 99.9649964305239 107.148141838829 0
519 199.97228935423 92.9241888893669 0
520 103.66588384743 110.634062478738 0
521 96.3488371235775 89.2948383108114 0
522 200.116275355489 100.015267201655 0
523 96.3557535327137 103.58370778073 0
524 203.599703978563 96.4468550640562 0
525 144.969050667555 95.0186649821977 0
526 144.944467809907 105.004318081457 0
527 160.014853997809 109.977709526758 0
528 155.007918388739 104.992043858519 0
529 155.008210991113 95.0018835715936 0
530 160.023479188178 90.0131871739909 0
531 181.31663923574 74.0024795896978 0
532 134.781183620178 85.00799248148 0
533 169.908028973829 80.1618753522939 0
534 170.026889730639 119.910984483061 0
535 187.406662781267 81.1653505158153 0
536 106.641128048957 85.8047266782315 0
537 165.066596312379 89.9845606688827 0
538 165.027798778692 109.956566560549 0
539 106.884753545492 106.997099575079 0
540 139.919800342361 95.0380874721191 0
541 134.646837553963 109.982807076437 0
542 108.487118677482 90.3735040757321 0
543 196.847509600402 103.550399887012 0
544 99.8440280313626 100.028960179538 0
545 139.865135848945 105.002671457863 0
546 99.7738656310819 92.9165402869701 0
547 173.648786112547 80.2145658371741 0
548 180.019585979375 119.575487073174 0
549 129.617394553353 84.8738393435095 0
550 182.815890115883 83.9144096308764 0
551 119.688229433116 83.1123170161883 0
552 103.153869873868 89.3895476236443 0
553 196.035401043481 109.69202055937 0
554 196.098017805276 89.5393223153975 0
555 196.574097923698 96.5706761467443 0
556 160.021611976705 104.98138501151 0
557 160.030089918102 95.0002236224566 0
558 109.465067600915 109.45489368545 0
559 155.010233225829 99.9960329547654 0
560 144.957052152682 100.012375809155 0
561 134.814255212857 90.019162983877 0
562 129.253741386869 115.052607446491 0
563 170.04247180805 84.8743829337321 0
564 170.03009422591 114.911527244647 0
565 120.056121297849 115.021597192639 0
566 189.184586930809 117.960848957781 0
567 179.886562303445 80.4099950660315 0
568 184.635474756537 87.8920719284167 0
569 170.02960138451 109.930625139837 0
570 124.374754109363 89.5000125697325 0
571 179.866145957628 89.1319457137336 0
572 112.864336002494 107.773872489045 0
573 190.487730953209 111.285766594249 0
574 134.759714878239 104.989604272992 0
575 165.070196474199 94.9718336895071 0
576 189.907359616428 90.8699537434212 0
577 134.841027790485 95.0245674274089 0
578 165.035885009022 104.963542021136 0
579 193.450977331021 100.254629973934 0
580 103.242111979527 96.5002103223466 0
581 175.703136265238 84.0830147254204 0
582 124.331087821565 110.132904410342 0
583 129.465502974756 110.015249086224 0
584 129.656557043646 89.8712813952684 0
585 118.794369408801 88.2711376343552 0
586 103.405908675484 103.568678429076 0
587 192.886369085972 93.2805558175526 0
588 184.627759190557 114.69172146885 0
589 170.153421149055 89.8084024607922 0
590 175.018496783926 114.855065493474 0
591 160.028048252191 99.9879803814204 0
592 139.897612125303 100.018440977616 0
593 194.418004128498 106.11909818983 0
594 106.317589265312 93.02029460499 0
595 179.621209464507 85.7878258427345 0
596 119.309880711469 111.068288180849 0
597 174.986798902765 109.927525935833 0
598 170.093951806877 94.8504795408868 0
599 118.093477865394 95.0932398888862 0
600 129.70986496488 94.9294887649605 0
601 185.850880491966 93.5035589305089 0
602 110.271487639318 103.639326447625 0
603 129.638286479014 104.991936001175 0
604 170.026197935193 104.932859908495 0
605 175.131586121525 89.5783900451529 0
606 190.03677462969 97.1264112912809 0
607 109.957948570689 96.3195986010648 0
608 179.921872704944 114.779384946536 0
609 134.816534055313 100.004473452868 0
610 165.047284226333 99.9605029330022 0
611 112.002458207628 91.8579199607949 0
612 106.76576787228 100.013790385831 0
613 118.352901415489 104.605414267496 0
614 189.973331381427 104.746082098418 0
615 174.962547701009 104.901723168668 0
616 184.784166617799 110.165559816703 0
617 175.042370741552 94.5824006983415 0
618 113.869388310862 99.9221263331423 0
619 124.461530480496 105.017269717846 0
620 124.42286540324 94.7710889625606 0
621 179.869369698211 109.968433759483 0
622 129.700578499811 99.9661587759551 0
623 170.041128687627 99.88267896581 0
624 188.056287054396 100.208606703158 0
625 184.69759604698 105.060121475053 0
626 180.035244429251 94.1601996585015 0
627 179.924933218501 99.5911882020788 0
628 120.604777917528 99.8968235678787 0
629 179.845964693713 104.905390501779 0
630 174.995340467468 99.7394128480207 0
631 124.551457680452 99.9172881471404 0
632 184.699469327424 99.7690841399034 0
633 188.022703690197 114.781197647798 0
$EndNodes
$Elements
587
1 2 2 1 1 71 72 136 
2 2 2 1 1 136 7 71 
3 2 2 1 1 28 29 131 
4 2 2 1 1 131 27 28 
5 2 2 1 1 128 95 96 
6 2 2 1 1 96 1 128 
7 3 2 1 1 599 618 607 611
8 3 2 1 1 599 628 613 618
9 3 2 1 1 297 329 241 185
10 3 2 1 1 289 189 242 327
11 3 2 1 1 298 328 243 186
12 3 2 1 1 243 328 336 290
13 3 2 1 1 372 327 242 321
14 3 2 1 1 430 459 460 499
15 3 2 1 1 391 380 431 459
16 3 2 1 1 331 373 392 372
17 3 2 1 1 583 582 619 603
18 3 2 1 1 475 516 490 434
19 3 2 1 1 516 549 503 490
20 3 2 1 1 435 374 466 476
21 3 2 1 1 549 584 570 503
22 3 2 1 1 392 338 327 372
23 3 2 1 1 459 431 517 460
24 3 2 1 1 616 621 629 625
25 3 2 1 1 620 599 585 570
26 3 2 1 1 474 535 514 498
27 3 2 1 1 242 189 128 172
28 3 2 1 1 466 507 517 476
29 3 2 1 1 507 572 613 596
30 3 2 1 1 419 551 585 511
31 3 2 1 1 457 418 345 433
32 3 2 1 1 392 436 393 338
33 3 2 1 1 435 381 298 394
34 3 2 1 1 393 289 327 338
35 3 2 1 1 458 329 297 382
36 3 2 1 1 613 628 631 619
37 3 2 1 1 336 328 298 381
38 3 2 1 1 613 572 602 618
39 3 2 1 1 291 346 249 244
40 3 2 1 1 510 467 477 548
41 3 2 1 1 497 457 433 467
42 3 2 1 1 605 617 598 589
43 3 2 1 1 535 550 567 514
44 3 2 1 1 581 595 571 605
45 3 2 1 1 618 602 612 607
46 3 2 1 1 617 605 571 626
47 3 2 1 1 506 568 550 535
48 3 2 1 1 171 188 244 127
49 3 2 1 1 373 419 436 392
50 3 2 1 1 510 548 608 588
51 3 2 1 1 457 291 371 418
52 3 2 1 1 511 585 599 611
53 3 2 1 1 598 617 630 623
54 3 2 1 1 329 458 389 296
55 3 2 1 1 167 173 131 185
56 3 2 1 1 394 298 230 299
57 3 2 1 1 612 602 539 586
58 3 2 1 1 496 469 427 437
59 3 2 1 1 520 518 586 539
60 3 2 1 1 601 576 587 606
61 3 2 1 1 546 521 469 552
62 3 2 1 1 513 471 479 553
63 3 2 1 1 496 536 552 469
64 3 2 1 1 474 382 350 439
65 3 2 1 1 298 245 192 230
66 3 2 1 1 297 246 190 231
67 3 2 1 1 607 612 580 594
68 3 2 1 1 131 173 3 27
69 3 2 1 1 467 510 566 497
70 3 2 1 1 435 394 330 374
71 3 2 1 1 535 474 421 506
72 3 2 1 1 564 590 509 534
73 3 2 1 1 289 393 339 248
74 3 2 1 1 244 249 193 127
75 3 2 1 1 478 470 523 518
76 3 2 1 1 554 506 421 482
77 3 2 1 1 169 136 142 186
78 3 2 1 1 506 554 587 576
79 3 2 1 1 500 564 534 489
80 3 2 1 1 397 378 287 348
81 3 2 1 1 428 480 524 519
82 3 2 1 1 246 131 29 190
83 3 2 1 1 398 341 352 385
84 3 2 1 1 519 524 522 555
85 3 2 1 1 503 551 491 490
86 3 2 1 1 346 281 254 249
87 3 2 1 1 480 428 402 384
88 3 2 1 1 490 491 373 434
89 3 2 1 1 247 191 144 248
90 3 2 1 1 245 142 73 192
91 3 2 1 1 481 522 524 483
92 3 2 1 1 351 350 231 302
93 3 2 1 1 483 444 438 481
94 3 2 1 1 382 297 231 350
95 3 2 1 1 348 287 233 253
96 3 2 1 1 189 144 95 128
97 3 2 1 1 441 374 330 355
98 3 2 1 1 541 515 562 583
99 3 2 1 1 334 322 283 413
100 3 2 1 1 440 445 442 463
101 3 2 1 1 417 333 285 369
102 3 2 1 1 353 303 258 197
103 3 2 1 1 335 324 284 391
104 3 2 1 1 349 306 235 304
105 3 2 1 1 470 478 401 447
106 3 2 1 1 384 402 308 358
107 3 2 1 1 385 438 444 398
108 3 2 1 1 300 255 198 116
109 3 2 1 1 339 301 247 248
110 3 2 1 1 284 278 240 367
111 3 2 1 1 455 475 411 416
112 3 2 1 1 333 410 323 285
113 3 2 1 1 378 397 445 440
114 3 2 1 1 377 455 416 337
115 3 2 1 1 340 300 229 395
116 3 2 1 1 356 399 404 288
117 3 2 1 1 399 442 445 404
118 3 2 1 1 324 184 278 284
119 3 2 1 1 190 143 302 231
120 3 2 1 1 283 276 239 368
121 3 2 1 1 186 243 225 169
122 3 2 1 1 401 355 307 303
123 3 2 1 1 323 345 279 275
124 3 2 1 1 518 520 441 478
125 3 2 1 1 400 405 403 429
126 3 2 1 1 285 323 275 236
127 3 2 1 1 193 249 254 147
128 3 2 1 1 250 251 308 282
129 3 2 1 1 116 195 229 300
130 3 2 1 1 471 446 396 479
131 3 2 1 1 192 145 174 230
132 3 2 1 1 306 349 405 400
133 3 2 1 1 427 395 339 437
134 3 2 1 1 277 256 370 326
135 3 2 1 1 472 443 375 521
136 3 2 1 1 395 427 375 340
137 3 2 1 1 322 183 276 283
138 3 2 1 1 388 417 369 325
139 3 2 1 1 385 352 292 446
140 3 2 1 1 178 224 163 122
141 3 2 1 1 289 248 144 189
142 3 2 1 1 136 72 73 142
143 3 2 1 1 282 351 302 250
144 3 2 1 1 399 356 286 443
145 3 2 1 1 250 194 117 251
146 3 2 1 1 145 119 196 174
147 3 2 1 1 446 471 438 385
148 3 2 1 1 143 190 29 30
149 3 2 1 1 194 250 302 143
150 3 2 1 1 396 347 281 376
151 3 2 1 1 301 229 195 146
152 3 2 1 1 350 351 383 439
153 3 2 1 1 119 149 258 196
154 3 2 1 1 171 127 51 52
155 3 2 1 1 341 311 232 352
156 3 2 1 1 227 299 230 174
157 3 2 1 1 300 340 286 255
158 3 2 1 1 292 252 175 347
159 3 2 1 1 191 247 301 146
160 3 2 1 1 443 472 442 399
161 3 2 1 1 258 303 307 196
162 3 2 1 1 400 384 358 306
163 3 2 1 1 539 558 466 520
164 3 2 1 1 550 595 581 567
165 3 2 1 1 252 232 199 148
166 3 2 1 1 330 394 299 227
167 3 2 1 1 144 191 94 95
168 3 2 1 1 251 176 358 308
169 3 2 1 1 145 192 73 74
170 3 2 1 1 481 438 471 513
171 3 2 1 1 118 147 254 175
172 3 2 1 1 521 546 508 472
173 3 2 1 1 354 403 405 359
174 3 2 1 1 519 554 482 428
175 3 2 1 1 142 245 298 186
176 3 2 1 1 522 481 513 543
177 3 2 1 1 194 143 30 31
178 3 2 1 1 627 629 615 630
179 3 2 1 1 127 193 50 51
180 3 2 1 1 552 594 580 546
181 3 2 1 1 428 482 332 402
182 3 2 1 1 185 241 223 167
183 3 2 1 1 355 330 227 307
184 3 2 1 1 384 400 429 480
185 3 2 1 1 553 593 543 513
186 3 2 1 1 518 523 544 586
187 3 2 1 1 305 354 359 310
188 3 2 1 1 543 579 555 522
189 3 2 1 1 586 544 580 612
190 3 2 1 1 483 524 480 429
191 3 2 1 1 579 606 587 555
192 3 2 1 1 463 442 472 508
193 3 2 1 1 332 383 351 282
194 3 2 1 1 523 463 508 544
195 3 2 1 1 303 353 447 401
196 3 2 1 1 482 421 383 332
197 3 2 1 1 614 624 606 579
198 3 2 1 1 555 587 554 519
199 3 2 1 1 470 440 463 523
200 3 2 1 1 440 470 447 378
201 3 2 1 1 601 606 624 632
202 3 2 1 1 444 483 429 403
203 3 2 1 1 191 146 93 94
204 3 2 1 1 288 263 180 356
205 3 2 1 1 369 285 236 274
206 3 2 1 1 149 155 197 258
207 3 2 1 1 421 474 439 383
208 3 2 1 1 544 508 546 580
209 3 2 1 1 492 499 562 515
210 3 2 1 1 374 441 520 466
211 3 2 1 1 334 432 454 414
212 3 2 1 1 355 401 478 441
213 3 2 1 1 403 354 398 444
214 3 2 1 1 331 228 326 412
215 3 2 1 1 260 305 310 261
216 3 2 1 1 252 292 352 232
217 3 2 1 1 354 305 341 398
218 3 2 1 1 119 145 74 75
219 3 2 1 1 404 445 397 357
220 3 2 1 1 294 312 309 357
221 3 2 1 1 297 185 131 246
222 3 2 1 1 311 341 305 260
223 3 2 1 1 579 543 593 614
224 3 2 1 1 512 479 396 422
225 3 2 1 1 117 194 31 32
226 3 2 1 1 193 147 49 50
227 3 2 1 1 301 339 395 229
228 3 2 1 1 176 235 306 358
229 3 2 1 1 198 255 180 150
230 3 2 1 1 151 176 251 117
231 3 2 1 1 174 196 307 227
232 3 2 1 1 573 553 479 512
233 3 2 1 1 347 396 446 292
234 3 2 1 1 146 195 92 93
235 3 2 1 1 288 404 357 309
236 3 2 1 1 178 277 326 228
237 3 2 1 1 614 593 553 573
238 3 2 1 1 270 215 238 320
239 3 2 1 1 294 348 253 181
240 3 2 1 1 427 469 521 375
241 3 2 1 1 602 572 558 539
242 3 2 1 1 340 375 443 286
243 3 2 1 1 261 156 203 260
244 3 2 1 1 610 575 598 623
245 3 2 1 1 348 294 357 397
246 3 2 1 1 496 437 339 393
247 3 2 1 1 263 288 309 262
248 3 2 1 1 233 287 353 197
249 3 2 1 1 353 287 378 447
250 3 2 1 1 349 293 359 405
251 3 2 1 1 291 244 188 371
252 3 2 1 1 611 607 594 542
253 3 2 1 1 254 281 347 175
254 3 2 1 1 255 286 356 180
255 3 2 1 1 201 233 197 155
256 3 2 1 1 233 201 120 253
257 3 2 1 1 181 264 312 294
258 3 2 1 1 262 202 152 263
259 3 2 1 1 282 308 402 332
260 3 2 1 1 256 319 344 370
261 3 2 1 1 310 359 293 259
262 3 2 1 1 262 309 312 265
263 3 2 1 1 235 200 126 304
264 3 2 1 1 199 232 311 121
265 3 2 1 1 304 234 293 349
266 3 2 1 1 148 47 48 118
267 3 2 1 1 147 118 48 49
268 3 2 1 1 234 266 259 293
269 3 2 1 1 591 557 575 610
270 3 2 1 1 195 116 91 92
271 3 2 1 1 151 117 32 33
272 3 2 1 1 259 187 261 310
273 3 2 1 1 119 75 76 149
274 3 2 1 1 155 149 76 77
275 3 2 1 1 120 154 181 253
276 3 2 1 1 116 198 90 91
277 3 2 1 1 239 276 220 166
278 3 2 1 1 240 278 221 168
279 3 2 1 1 200 151 33 34
280 3 2 1 1 311 260 203 121
281 3 2 1 1 585 551 503 570
282 3 2 1 1 578 610 623 604
283 3 2 1 1 198 150 89 90
284 3 2 1 1 201 155 77 78
285 3 2 1 1 202 262 265 130
286 3 2 1 1 150 180 263 152
287 3 2 1 1 265 312 264 208
288 3 2 1 1 148 199 46 47
289 3 2 1 1 205 234 304 126
290 3 2 1 1 373 331 412 434
291 3 2 1 1 460 501 562 499
292 3 2 1 1 346 291 457 390
293 3 2 1 1 372 321 228 331
294 3 2 1 1 556 591 610 578
295 3 2 1 1 126 200 34 35
296 3 2 1 1 148 118 175 252
297 3 2 1 1 181 154 206 264
298 3 2 1 1 187 259 266 204
299 3 2 1 1 234 205 153 266
300 3 2 1 1 150 152 88 89
301 3 2 1 1 156 261 187 129
302 3 2 1 1 204 207 129 187
303 3 2 1 1 120 201 78 79
304 3 2 1 1 380 367 240 290
305 3 2 1 1 200 235 176 151
306 3 2 1 1 199 121 45 46
307 3 2 1 1 207 204 137 157
308 3 2 1 1 208 209 130 265
309 3 2 1 1 177 296 368 239
310 3 2 1 1 205 126 35 36
311 3 2 1 1 152 202 87 88
312 3 2 1 1 153 137 204 266
313 3 2 1 1 559 529 557 591
314 3 2 1 1 121 203 44 45
315 3 2 1 1 206 138 208 264
316 3 2 1 1 153 205 36 37
317 3 2 1 1 203 156 43 44
318 3 2 1 1 528 559 591 556
319 3 2 1 1 120 79 80 154
320 3 2 1 1 206 154 80 81
321 3 2 1 1 619 631 622 603
322 3 2 1 1 209 208 138 158
323 3 2 1 1 138 206 81 82
324 3 2 1 1 156 129 42 43
325 3 2 1 1 412 326 370 411
326 3 2 1 1 364 318 237 272
327 3 2 1 1 129 207 41 42
328 3 2 1 1 202 130 86 87
329 3 2 1 1 365 320 238 273
330 3 2 1 1 551 419 373 491
331 3 2 1 1 130 209 85 86
332 3 2 1 1 157 137 38 39
333 3 2 1 1 153 37 38 137
334 3 2 1 1 158 138 82 83
335 3 2 1 1 207 157 40 41
336 3 2 1 1 209 158 84 85
337 3 2 1 1 157 39 4 40
338 3 2 1 1 158 83 8 84
339 3 2 1 1 2 18 159 115
340 3 2 1 1 114 211 139 115
341 3 2 1 1 218 159 18 19
342 3 2 1 1 2 115 139 17
343 3 2 1 1 6 97 140 61
344 3 2 1 1 6 62 160 97
345 3 2 1 1 97 98 214 140
346 3 2 1 1 98 99 267 214
347 3 2 1 1 140 214 268 217
348 3 2 1 1 12 13 212 122
349 3 2 1 1 14 161 212 13
350 3 2 1 1 161 14 15 132
351 3 2 1 1 16 216 132 15
352 3 2 1 1 216 16 17 139
353 3 2 1 1 56 57 213 124
354 3 2 1 1 58 162 213 57
355 3 2 1 1 162 58 59 135
356 3 2 1 1 60 217 135 59
357 3 2 1 1 217 60 61 140
358 3 2 1 1 219 160 62 63
359 3 2 1 1 182 135 217 268
360 3 2 1 1 605 589 563 581
361 3 2 1 1 114 115 159 210
362 3 2 1 1 98 97 160 215
363 3 2 1 1 272 237 218 164
364 3 2 1 1 114 210 269 113
365 3 2 1 1 273 238 219 165
366 3 2 1 1 531 488 413 452
367 3 2 1 1 240 179 243 290
368 3 2 1 1 325 182 268 316
369 3 2 1 1 214 267 316 268
370 3 2 1 1 111 360 406 110
371 3 2 1 1 98 215 270 99
372 3 2 1 1 112 314 360 111
373 3 2 1 1 113 269 314 112
374 3 2 1 1 515 462 420 492
375 3 2 1 1 314 342 386 360
376 3 2 1 1 452 413 283 368
377 3 2 1 1 222 124 275 279
378 3 2 1 1 218 19 20 164
379 3 2 1 1 322 334 414 364
380 3 2 1 1 212 161 256 277
381 3 2 1 1 159 218 237 210
382 3 2 1 1 219 63 64 165
383 3 2 1 1 122 212 277 178
384 3 2 1 1 211 114 113 271
385 3 2 1 1 474 498 458 382
386 3 2 1 1 101 363 407 102
387 3 2 1 1 100 315 363 101
388 3 2 1 1 110 406 448 109
389 3 2 1 1 109 448 486 108
390 3 2 1 1 99 270 315 100
391 3 2 1 1 387 363 315 343
392 3 2 1 1 318 269 210 237
393 3 2 1 1 409 449 465 426
394 3 2 1 1 536 542 594 552
395 3 2 1 1 574 603 622 609
396 3 2 1 1 488 432 334 413
397 3 2 1 1 113 112 317 271
398 3 2 1 1 527 556 578 538
399 3 2 1 1 220 133 21 22
400 3 2 1 1 406 425 464 448
401 3 2 1 1 160 219 238 215
402 3 2 1 1 103 104 484 449
403 3 2 1 1 112 111 362 317
404 3 2 1 1 465 527 538 500
405 3 2 1 1 622 631 620 600
406 3 2 1 1 545 504 541 574
407 3 2 1 1 572 507 466 558
408 3 2 1 1 108 486 529 107
409 3 2 1 1 484 528 556 527
410 3 2 1 1 106 560 525 107
411 3 2 1 1 560 526 545 592
412 3 2 1 1 99 100 313 267
413 3 2 1 1 459 430 335 391
414 3 2 1 1 360 386 425 406
415 3 2 1 1 221 134 65 66
416 3 2 1 1 111 110 408 362
417 3 2 1 1 101 102 409 361
418 3 2 1 1 601 568 506 576
419 3 2 1 1 104 105 528 484
420 3 2 1 1 100 101 361 313
421 3 2 1 1 487 504 545 526
422 3 2 1 1 105 526 560 106
423 3 2 1 1 107 529 559 106
424 3 2 1 1 623 630 615 604
425 3 2 1 1 108 107 525 485
426 3 2 1 1 109 108 485 450
427 3 2 1 1 592 545 574 609
428 3 2 1 1 450 485 505 461
429 3 2 1 1 505 540 577 561
430 3 2 1 1 485 525 540 505
431 3 2 1 1 525 560 592 540
432 3 2 1 1 105 106 559 528
433 3 2 1 1 540 592 609 577
434 3 2 1 1 486 530 557 529
435 3 2 1 1 104 487 526 105
436 3 2 1 1 464 502 537 530
437 3 2 1 1 408 450 461 423
438 3 2 1 1 102 103 449 409
439 3 2 1 1 461 505 561 532
440 3 2 1 1 451 462 504 487
441 3 2 1 1 110 109 450 408
442 3 2 1 1 103 451 487 104
443 3 2 1 1 532 561 584 549
444 3 2 1 1 448 464 530 486
445 3 2 1 1 423 461 532 494
446 3 2 1 1 425 493 502 464
447 3 2 1 1 317 362 377 337
448 3 2 1 1 324 335 415 365
449 3 2 1 1 538 578 604 569
450 3 2 1 1 494 532 549 516
451 3 2 1 1 337 295 271 317
452 3 2 1 1 530 537 575 557
453 3 2 1 1 489 456 379 426
454 3 2 1 1 449 484 527 465
455 3 2 1 1 577 609 622 600
456 3 2 1 1 211 257 216 139
457 3 2 1 1 493 425 386 454
458 3 2 1 1 361 409 426 379
459 3 2 1 1 102 407 451 103
460 3 2 1 1 362 408 423 377
461 3 2 1 1 21 133 164 20
462 3 2 1 1 597 615 629 621
463 3 2 1 1 569 604 615 597
464 3 2 1 1 561 577 600 584
465 3 2 1 1 267 313 366 316
466 3 2 1 1 364 272 183 322
467 3 2 1 1 462 451 407 420
468 3 2 1 1 272 164 133 183
469 3 2 1 1 537 589 598 575
470 3 2 1 1 455 494 516 475
471 3 2 1 1 509 590 608 548
472 3 2 1 1 467 433 410 477
473 3 2 1 1 65 134 165 64
474 3 2 1 1 590 597 621 608
475 3 2 1 1 342 314 269 318
476 3 2 1 1 342 414 454 386
477 3 2 1 1 426 465 500 489
478 3 2 1 1 583 562 501 582
479 3 2 1 1 502 563 589 537
480 3 2 1 1 456 489 534 495
481 3 2 1 1 564 569 597 590
482 3 2 1 1 416 344 295 337
483 3 2 1 1 295 257 211 271
484 3 2 1 1 216 257 319 132
485 3 2 1 1 533 547 581 563
486 3 2 1 1 432 488 547 533
487 3 2 1 1 343 415 453 387
488 3 2 1 1 517 381 435 476
489 3 2 1 1 363 387 420 407
490 3 2 1 1 182 325 369 274
491 3 2 1 1 424 509 548 477
492 3 2 1 1 333 424 477 410
493 3 2 1 1 365 273 184 324
494 3 2 1 1 492 420 387 453
495 3 2 1 1 273 165 134 184
496 3 2 1 1 343 315 270 320
497 3 2 1 1 414 342 318 364
498 3 2 1 1 329 296 177 241
499 3 2 1 1 379 366 313 361
500 3 2 1 1 220 22 23 166
501 3 2 1 1 424 333 417 495
502 3 2 1 1 456 388 366 379
503 3 2 1 1 588 608 621 616
504 3 2 1 1 276 183 133 220
505 3 2 1 1 221 66 67 168
506 3 2 1 1 433 345 323 410
507 3 2 1 1 531 452 389 468
508 3 2 1 1 178 228 321 224
509 3 2 1 1 135 182 274 162
510 3 2 1 1 452 368 296 389
511 3 2 1 1 415 343 320 365
512 3 2 1 1 388 325 316 366
513 3 2 1 1 344 319 257 295
514 3 2 1 1 223 123 24 25
515 3 2 1 1 278 184 134 221
516 3 2 1 1 225 125 68 69
517 3 2 1 1 411 370 344 416
518 3 2 1 1 239 166 123 177
519 3 2 1 1 434 412 411 475
520 3 2 1 1 161 132 319 256
521 3 2 1 1 56 124 222 55
522 3 2 1 1 430 453 415 335
523 3 2 1 1 494 455 377 423
524 3 2 1 1 533 493 454 432
525 3 2 1 1 495 417 388 456
526 3 2 1 1 499 492 453 430
527 3 2 1 1 515 541 504 462
528 3 2 1 1 163 224 321 242
529 3 2 1 1 563 502 493 533
530 3 2 1 1 569 564 500 538
531 3 2 1 1 290 336 431 380
532 3 2 1 1 603 574 541 583
533 3 2 1 1 24 123 166 23
534 3 2 1 1 12 122 163 11
535 3 2 1 1 599 620 631 628
536 3 2 1 1 509 424 495 534
537 3 2 1 1 570 584 600 620
538 3 2 1 1 240 168 125 179
539 3 2 1 1 68 125 168 67
540 3 2 1 1 581 547 488 567
541 3 2 1 1 380 391 284 367
542 3 2 1 1 498 468 389 458
543 3 2 1 1 213 236 275 124
544 3 2 1 1 626 627 630 617
545 3 2 1 1 241 177 123 223
546 3 2 1 1 213 162 274 236
547 3 2 1 1 223 25 26 167
548 3 2 1 1 163 242 172 170
549 3 2 1 1 54 55 222 141
550 3 2 1 1 243 179 125 225
551 3 2 1 1 54 141 226 53
552 3 2 1 1 624 614 625 632
553 3 2 1 1 225 69 70 169
554 3 2 1 1 11 163 170 10
555 3 2 1 1 614 573 616 625
556 3 2 1 1 582 501 565 596
557 3 2 1 1 517 565 501 460
558 3 2 1 1 436 419 511 473
559 3 2 1 1 393 436 473 496
560 3 2 1 1 517 507 596 565
561 3 2 1 1 10 170 172 9
562 3 2 1 1 52 5 53 171
563 3 2 1 1 496 473 511 536
564 3 2 1 1 188 171 53 226
565 3 2 1 1 141 280 188 226
566 3 2 1 1 611 542 536 511
567 3 2 1 1 619 582 596 613
568 3 2 1 1 488 531 514 567
569 3 2 1 1 517 431 336 381
570 3 2 1 1 568 601 626 571
571 3 2 1 1 510 588 633 566
572 3 2 1 1 588 616 573 633
573 3 2 1 1 418 371 188 280
574 3 2 1 1 625 629 627 632
575 3 2 1 1 627 626 601 632
576 3 2 1 1 531 468 498 514
577 3 2 1 1 595 550 568 571
578 3 2 1 1 573 512 566 633
579 3 2 1 1 9 172 128 1
580 3 2 1 1 26 3 173 167
581 3 2 1 1 70 7 136 169
582 3 2 1 1 222 279 280 141
583 3 2 1 1 345 418 280 279
584 3 2 1 1 281 346 390 376
585 3 2 1 1 396 376 390 422
586 3 2 1 1 457 497 422 390
587 3 2 1 1 512 422 497 566
$EndElements
