$MeshFormat
2.2 0 8
$EndMeshFormat
$Nodes
231
1 0 0 0
2 0 200 0
3 0 200 100
4 0 0 100
5 0 10 0
6 0 20 0
7 0 30 0
8 0 40 0
9 0 50 0
10 0 60 0
11 0 70 0
12 0 80 0
13 0 90 0
14 0 100 0
15 0 110 0
16 0 120 0
17 0 130 0
18 0 140 0
19 0 150 0
20 0 160 0
21 0 170 0
22 0 180 0
23 0 190 0
24 0 200 10
25 0 200 20
26 0 200 30
27 0 200 40
28 0 200 50
29 0 200 60
30 0 200 70
31 0 200 80
32 0 200 90
33 0 190 100
34 0 180 100
35 0 170 100
36 0 160 100
37 0 150 100
38 0 140 100
39 0 130 100
40 0 120 100
41 0 110 100
42 0 100 100
43 0 90 100
44 0 80 100
45 0 70 100
46 0 60 100
47 0 50 100
48 0 40 100
49 0 30 100
50 0 20 100
51 0 10 100
52 0 0 90
53 0 0 80
54 0 0 70
55 0 0 60
56 0 0 50
57 0 0 40
58 0 0 30
59 0 0 20
60 0 0 10
61 0 80.0001726176066 90.0001726176067
62 0 120.000118343867 10.0010084398959
63 0 60.0001606095341 10.0013685970016
64 0 150 90
65 0 120 90
66 0 10.0000000011793 40.000000010049
67 0 50 90
68 0 150 10
69 0 190 70
70 0 190 40
71 0 10 60
72 0 30 90
73 0 170 10
74 0 20 10
75 0 80.0014020125496 10.0119469257053
76 0 180 90
77 0 190 10
78 0 10 90
79 0 100.00032601839 90.0003260538693
80 0 100.001360954473 10.0115970588026
81 0 30 10
82 0 40.0000012075905 10.000010290203
83 0 190 30
84 0 190 60
85 0 70.0000708086038 90.0000708086038
86 0 10 70
87 0 10 20
88 0 130.000014792983 10.000126054987
89 0 10 10
90 0 190 90
91 0 170 90
92 0 140 90
93 0 80.0122621963358 80.0124501785311
94 0 120.001536682061 20.0065480800514
95 0 150.000000002775 80.0000000027751
96 0 180.00000000313 70.0000000031295
97 0 20.0000000212272 60.0000001808825
98 0 180.000000011266 40.0000000112662
99 0 30.0000002264232 20.0000019294131
100 0 160 10
101 0 40 90
102 0 90.0021833235914 10.0186046870587
103 0 110.000159299383 90.0001593215575
104 0 70.0008232748111 10.0070153459083
105 0 110.000846107267 10.0068007573535
106 0 90.0011251122982 90.0011368833597
107 0 180.000000000391 80.0000000003912
108 0 50.0000323030454 10.0002752629308
109 0 180 10
110 0 190 20
111 0 190.000000000244 80.0000000002445
112 0 130 90
113 0 20 90
114 0 10 80
115 0 10.0000000007371 30.0000000062806
116 0 20.000000028349 20.0000002415692
117 0 190.000000000704 50.0000000007041
118 0 140.000001849123 10.0000157568734
119 0 160.000000000173 90.0000000001734
120 0 60.0000137742158 90.0000137742158
121 0 10.0000000020638 50.0000000175858
122 0 60.0028645463401 20.0109517620588
123 0 80.0174012069002 20.0870750705777
124 0 120.001999851998 80.0020017027245
125 0 60.0018922092534 80.0018922200115
126 0 30.0000000006633 80.0000000056526
127 0 170.000000020831 20.0000000208314
128 0 180.000000011701 60.0000000117014
129 0 160.000000001518 80.0000000015184
130 0 140.000042467693 20.000065708626
131 0 20.0000000085913 70.0000000732087
132 0 180.00000000584 30.0000000058398
133 0 40.0000000020822 80.0000000177428
134 0 160.000000910238 20.0000010898507
135 0 90.0182006668288 80.0186016757693
136 0 100.015287814391 20.0834342577874
137 0 20.0000000344446 30.000000293512
138 0 40.0000417792638 20.0001544950275
139 0 140.000088800505 80.0000891597294
140 0 110.007955481963 20.0399935007494
141 0 180.000000019232 50.0000000192324
142 0 180.000000003334 20.0000000033339
143 0 70.0074664830596 80.0074899850285
144 0 20.0000000011568 80.0000000098577
145 0 110.006226902413 80.0062283827242
146 0 170.000000000717 80.0000000007166
147 0 20.0000000443339 50.0000003777806
148 0 130.000409753527 20.0012258800912
149 0 80.0738649106382 70.087007534968
150 0 120.00848717451 30.0239041210273
151 0 150.000045716979 70.0000467132354
152 0 110.03405914031 70.0415695900291
153 0 30.0000663708869 50.0001166692082
154 0 170.000002447099 50.0000028222588
155 0 70.0109732874277 20.0468093575446
156 0 30.0000060287336 70.0000094217793
157 0 170.000000168356 30.0000001795818
158 0 90.0237246607357 20.1220266374068
159 0 50.0007357449305 20.0025678669928
160 0 130.000841162374 80.000842760209
161 0 30.0000091620998 30.0000235272031
162 0 110.030337047531 30.1065803119032
163 0 170.000000166677 70.0000001713886
164 0 20.0000047641489 40.0000091315639
165 0 150.000012594702 20.0000181876264
166 0 100.016990054368 80.0176986386901
167 0 70.0394916388982 70.0474324438034
168 0 50.0005398664531 80.0005398877115
169 0 130.002426397616 30.0054501736667
170 0 80.0769126461287 30.2530599505396
171 0 80.1768860014284 60.2528682132237
172 0 120.022157407435 40.0490969173986
173 0 60.0136892027344 30.0359742079413
174 0 100.075606459719 70.0908073630016
175 0 30.0000481494903 60.0000825408837
176 0 170.000001578288 40.0000018118103
177 0 40.0002322408964 70.0003002042347
178 0 90.1006818423034 70.1235952678629
179 0 160.000009481154 30.0000117255476
180 0 40.0003549894846 30.0008649418652
181 0 140.000494081984 70.0005004565833
182 0 120.013853280017 70.0176725312755
183 0 140.000598492051 30.0011287207132
184 0 30.0000717004362 40.000142716157
185 0 170.000001755894 60.0000019980257
186 0 160.000007308172 70.0000074955465
187 0 100.064949326351 30.2431665737342
188 0 50.002004967242 70.0023590176849
189 0 60.0137795063339 70.0168514375793
190 0 60.0281160738033 60.0402793694284
191 0 150.000211880444 60.0002465071193
192 0 100.162228648183 60.2435801783527
193 0 160.000022523155 40.0000271110763
194 0 40.0010312451325 60.0015287388041
195 0 70.0461680828465 30.1280171513327
196 0 150.000132539936 30.0002153294941
197 0 160.000038096302 60.0000436632783
198 0 90.2115223860697 60.3196339530488
199 0 90.0907190200162 30.3152531998473
200 0 110.075008883289 60.1195212060255
201 0 40.0010283707712 40.0019558885692
202 0 50.0037375369623 30.0092440951836
203 0 130.004080950755 70.0051191803181
204 0 110.069004203719 40.1773401628594
205 0 70.0886323007697 60.1304418863669
206 0 130.006673208644 40.0130797306663
207 0 80.1726902534431 40.3967780131091
208 0 60.0306586811737 40.0634651972971
209 0 130.007102480673 60.0099511246549
210 0 140.001781092955 40.0031411690328
211 0 80.2131626112152 50.3876943344818
212 0 120.03255002209 50.0612211680194
213 0 70.10330289316 50.184662842331
214 0 90.2366384787954 50.4656521560234
215 0 100.132539637866 40.357543292671
216 0 100.163427687142 50.3342555526518
217 0 50.008861484941 40.0178605477357
218 0 40.0019635817085 50.0034328391792
219 0 120.029480168172 60.0473423282668
220 0 150.000381370464 50.0005395150785
221 0 50.0082882843621 60.012230070974
222 0 150.000439036525 40.000709729619
223 0 160.000100831067 50.000141768511
224 0 140.001965835679 60.0026602976672
225 0 60.0403082436965 50.07118458553
226 0 130.010976041701 50.0194814878976
227 0 110.085635708189 50.1714333975016
228 0 50.0129210873063 50.0226283477921
229 0 90.1624912947468 40.4190233686256
230 0 140.003126303678 50.0051857596948
231 0 70.0868636499548 40.1894840718051
$EndNodes
$Elements
200
1 3 2 1 1 214 211 207 229
2 3 2 1 1 207 211 213 231
3 3 2 1 1 225 208 231 213
4 3 2 1 1 214 229 215 216
5 3 2 1 1 216 215 204 227
6 3 2 1 1 208 225 228 217
7 3 2 1 1 122 155 195 173
8 3 2 1 1 212 226 209 219
9 3 2 1 1 93 149 178 135
10 3 2 1 1 156 175 194 177
11 3 2 1 1 183 196 222 210
12 3 2 1 1 126 156 177 133
13 3 2 1 1 178 198 192 174
14 3 2 1 1 206 210 230 226
15 3 2 1 1 113 144 126 72
16 3 2 1 1 109 142 127 73
17 3 2 1 1 75 102 158 123
18 3 2 1 1 123 158 199 170
19 3 2 1 1 197 191 220 223
20 3 2 1 1 170 199 229 207
21 3 2 1 1 42 43 106 79
22 3 2 1 1 14 15 105 80
23 3 2 1 1 20 21 73 100
24 3 2 1 1 48 49 72 101
25 3 2 1 1 107 146 163 96
26 3 2 1 1 63 122 159 108
27 3 2 1 1 127 157 179 134
28 3 2 1 1 208 217 202 173
29 3 2 1 1 157 176 193 179
30 3 2 1 1 177 194 221 188
31 3 2 1 1 221 228 225 190
32 3 2 1 1 210 222 220 230
33 3 2 1 1 80 105 140 136
34 3 2 1 1 165 134 179 196
35 3 2 1 1 139 160 203 181
36 3 2 1 1 180 201 184 161
37 3 2 1 1 163 186 197 185
38 3 2 1 1 228 218 201 217
39 3 2 1 1 44 61 106 43
40 3 2 1 1 155 122 63 104
41 3 2 1 1 144 114 86 131
42 3 2 1 1 156 131 97 175
43 3 2 1 1 104 63 10 11
44 3 2 1 1 16 62 105 15
45 3 2 1 1 88 17 18 118
46 3 2 1 1 22 23 77 109
47 3 2 1 1 84 29 30 69
48 3 2 1 1 85 45 46 120
49 3 2 1 1 50 51 78 113
50 3 2 1 1 57 58 115 66
51 3 2 1 1 135 106 61 93
52 3 2 1 1 101 133 168 67
53 3 2 1 1 84 69 96 128
54 3 2 1 1 133 101 72 126
55 3 2 1 1 134 100 73 127
56 3 2 1 1 109 77 110 142
57 3 2 1 1 113 78 114 144
58 3 2 1 1 160 139 92 112
59 3 2 1 1 62 94 140 105
60 3 2 1 1 181 151 95 139
61 3 2 1 1 131 156 126 144
62 3 2 1 1 132 157 127 142
63 3 2 1 1 95 151 186 129
64 3 2 1 1 146 129 186 163
65 3 2 1 1 177 188 168 133
66 3 2 1 1 178 174 166 135
67 3 2 1 1 191 197 186 151
68 3 2 1 1 122 173 202 159
69 3 2 1 1 218 228 221 194
70 3 2 1 1 6 7 81 74
71 3 2 1 1 7 8 82 81
72 3 2 1 1 10 63 108 9
73 3 2 1 1 8 9 108 82
74 3 2 1 1 11 12 75 104
75 3 2 1 1 13 14 80 102
76 3 2 1 1 2 24 77 23
77 3 2 1 1 24 25 110 77
78 3 2 1 1 26 83 110 25
79 3 2 1 1 26 27 70 83
80 3 2 1 1 29 84 117 28
81 3 2 1 1 30 31 111 69
82 3 2 1 1 4 52 78 51
83 3 2 1 1 52 53 114 78
84 3 2 1 1 59 87 115 58
85 3 2 1 1 115 137 164 66
86 3 2 1 1 118 68 165 130
87 3 2 1 1 100 134 165 68
88 3 2 1 1 96 69 111 107
89 3 2 1 1 98 70 117 141
90 3 2 1 1 86 71 97 131
91 3 2 1 1 116 87 89 74
92 3 2 1 1 81 99 116 74
93 3 2 1 1 104 75 123 155
94 3 2 1 1 91 146 107 76
95 3 2 1 1 102 80 136 158
96 3 2 1 1 81 82 138 99
97 3 2 1 1 159 138 82 108
98 3 2 1 1 70 98 132 83
99 3 2 1 1 142 110 83 132
100 3 2 1 1 141 117 84 128
101 3 2 1 1 61 85 143 93
102 3 2 1 1 137 115 87 116
103 3 2 1 1 62 88 148 94
104 3 2 1 1 157 132 98 176
105 3 2 1 1 141 154 176 98
106 3 2 1 1 137 116 99 161
107 3 2 1 1 180 161 99 138
108 3 2 1 1 65 103 145 124
109 3 2 1 1 88 118 130 148
110 3 2 1 1 67 168 125 120
111 3 2 1 1 96 163 185 128
112 3 2 1 1 196 183 130 165
113 3 2 1 1 148 130 183 169
114 3 2 1 1 161 184 164 137
115 3 2 1 1 128 185 154 141
116 3 2 1 1 93 143 167 149
117 3 2 1 1 97 147 153 175
118 3 2 1 1 147 164 184 153
119 3 2 1 1 194 175 153 218
120 3 2 1 1 138 159 202 180
121 3 2 1 1 154 223 193 176
122 3 2 1 1 203 209 224 181
123 3 2 1 1 153 184 201 218
124 3 2 1 1 205 190 225 213
125 3 2 1 1 102 75 12 13
126 3 2 1 1 27 28 117 70
127 3 2 1 1 79 103 41 42
128 3 2 1 1 54 86 114 53
129 3 2 1 1 57 66 121 56
130 3 2 1 1 164 147 121 66
131 3 2 1 1 111 90 76 107
132 3 2 1 1 125 143 85 120
133 3 2 1 1 162 140 94 150
134 3 2 1 1 145 152 182 124
135 3 2 1 1 200 152 174 192
136 3 2 1 1 149 171 198 178
137 3 2 1 1 201 180 202 217
138 3 2 1 1 151 181 224 191
139 3 2 1 1 152 200 219 182
140 3 2 1 1 209 203 182 219
141 3 2 1 1 212 219 200 227
142 3 2 1 1 230 224 209 226
143 3 2 1 1 1 5 89 60
144 3 2 1 1 6 74 89 5
145 3 2 1 1 88 62 16 17
146 3 2 1 1 118 18 19 68
147 3 2 1 1 100 68 19 20
148 3 2 1 1 111 31 32 90
149 3 2 1 1 3 33 90 32
150 3 2 1 1 34 76 90 33
151 3 2 1 1 34 35 91 76
152 3 2 1 1 37 64 119 36
153 3 2 1 1 35 36 119 91
154 3 2 1 1 38 92 64 37
155 3 2 1 1 92 38 39 112
156 3 2 1 1 40 65 112 39
157 3 2 1 1 103 65 40 41
158 3 2 1 1 85 61 44 45
159 3 2 1 1 120 46 47 67
160 3 2 1 1 101 67 47 48
161 3 2 1 1 71 86 54 55
162 3 2 1 1 56 121 71 55
163 3 2 1 1 87 59 60 89
164 3 2 1 1 95 64 92 139
165 3 2 1 1 124 160 112 65
166 3 2 1 1 147 97 71 121
167 3 2 1 1 106 135 166 79
168 3 2 1 1 169 150 94 148
169 3 2 1 1 64 95 129 119
170 3 2 1 1 91 119 129 146
171 3 2 1 1 160 124 182 203
172 3 2 1 1 143 125 189 167
173 3 2 1 1 168 188 189 125
174 3 2 1 1 199 158 136 187
175 3 2 1 1 140 162 187 136
176 3 2 1 1 223 154 185 197
177 3 2 1 1 123 170 195 155
178 3 2 1 1 150 172 204 162
179 3 2 1 1 187 162 204 215
180 3 2 1 1 149 167 205 171
181 3 2 1 1 214 198 171 211
182 3 2 1 1 227 204 172 212
183 3 2 1 1 169 183 210 206
184 3 2 1 1 221 190 189 188
185 3 2 1 1 167 189 190 205
186 3 2 1 1 220 191 224 230
187 3 2 1 1 198 214 216 192
188 3 2 1 1 179 193 222 196
189 3 2 1 1 220 222 193 223
190 3 2 1 1 170 207 231 195
191 3 2 1 1 173 195 231 208
192 3 2 1 1 187 215 229 199
193 3 2 1 1 192 216 227 200
194 3 2 1 1 171 205 213 211
195 3 2 1 1 79 166 145 103
196 3 2 1 1 152 145 166 174
197 3 2 1 1 206 172 150 169
198 3 2 1 1 226 212 172 206
199 3 2 1 1 109 73 21 22
200 3 2 1 1 113 72 49 50
$EndElements
