$MeshFormat
2.2 0 8
$EndMeshFormat
$Nodes
1764
1 100 100 0
2 0 100 0
3 0 60 0
4 0 20 0
5 0 0 0
6 100 0 0
7 50 20 0
8 50 60 0
9 95 100 0
10 90 100 0
11 85 100 0
12 80 100 0
13 75 100 0
14 70 100 0
15 65 100 0
16 60 100 0
17 55 100 0
18 50 100 0
19 45 100 0
20 40 100 0
21 35 100 0
22 30 100 0
23 25 100 0
24 20 100 0
25 15 100 0
26 10 100 0
27 5 100 0
28 0 95 0
29 0 90 0
30 0 85 0
31 0 80 0
32 0 75 0
33 0 70 0
34 0 65 0
35 0 55 0
36 0 50 0
37 0 45 0
38 0 40 0
39 0 35 0
40 0 30 0
41 0 25 0
42 0 15 0
43 0 10 0
44 0 5 0
45 5 0 0
46 10 0 0
47 15 0 0
48 20 0 0
49 25 0 0
50 30 0 0
51 35 0 0
52 40 0 0
53 45 0 0
54 50 0 0
55 55 0 0
56 60 0 0
57 65 0 0
58 70 0 0
59 75 0 0
60 80 0 0
61 85 0 0
62 90 0 0
63 95 0 0
64 100 5 0
65 100 10 0
66 100 15 0
67 100 20 0
68 100 25 0
69 100 30 0
70 100 35 0
71 100 40 0
72 100 45 0
73 100 50 0
74 100 55 0
75 100 60 0
76 100 65 0
77 100 70 0
78 100 75 0
79 100 80 0
80 100 85 0
81 100 90 0
82 100 95 0
83 45 20 0
84 40 20 0
85 35 20 0
86 30 20 0
87 25 20 0
88 20 20 0
89 15 20 0
90 10 20 0
91 5 20 0
92 45 60 0
93 40 60 0
94 35 60 0
95 30 60 0
96 25 60 0
97 20 60 0
98 15 60 0
99 10 60 0
100 5 60 0
101 95 60 0
102 95 30 0
103 35 95 0
104 70 95 0
105 50 95 0
106 80 5 0
107 95 75 0
108 80 95 0
109 65 5 0
110 15 95 0
111 5 80 0
112 5 45 0
113 15 5 0
114 30 5 0
115 55 5 0
116 45 5 0
117 95 85 0
118 95 10 0
119 5 35 0
120 95 40 0
121 5 55 0
122 90 95 0
123 5 95 0
124 5 70 0
125 5 30 0
126 5 15 0
127 5 5 0
128 90 5 0
129 95 50 0
130 95 90 0
131 40 95 0
132 25 95 0
133 40 5 0
134 95 15 0
135 95 20 0
136 95 65 0
137 95 95 0
138 60 95 0
139 5 90 0
140 5 65 0
141 5 25 0
142 25 5 0
143 75 5 0
144 95 5 0
145 90 60 0
146 35 90 0
147 80 10 0
148 90 10 0
149 30 10 0
150 10 35 0
151 10 15 0
152 45 10 0
153 95 80 0
154 90 15 0
155 10 90 0
156 85 5 0
157 95 45 0
158 95 55 0
159 10 95 0
160 95 35 0
161 45 95 0
162 30 95 0
163 35 5 0
164 85 95 0
165 5 85 0
166 20 5 0
167 60 5 0
168 95 25 0
169 10 55 0
170 10 5 0
171 75 95 0
172 65 95 0
173 55 95 0
174 5 75 0
175 5 40 0
176 5 10 0
177 50 5 0
178 70 5 0
179 95 70 0
180 10 30 0
181 10 25 0
182 10 70 0
183 10 65 0
184 90 85 0
185 5 50 0
186 20 95 0
187 90 90 0
188 90 35 0
189 45 90 0
190 65 90 0
191 25 90 0
192 65 10 0
193 75 90 0
194 90 70 0
195 85 85 0
196 20 10 0
197 35 10 0
198 15 35 0
199 15 25 0
200 90 40 0
201 90 50 0
202 90 75 0
203 15 90 0
204 10 85 0
205 30 90 0
206 40 90 0
207 90 80 0
208 15 15 0
209 15 55 0
210 15 70 0
211 15 65 0
212 10 45 0
213 15 10 0
214 40 10 0
215 90 20 0
216 90 25 0
217 25 10 0
218 75 10 0
219 90 55 0
220 85 10 0
221 10 40 0
222 10 50 0
223 50 90 0
224 90 65 0
225 10 75 0
226 50 10 0
227 60 10 0
228 55 90 0
229 10 10 0
230 85 90 0
231 85 60 0
232 85 35 0
233 35 85 0
234 45 85 0
235 85 70 0
236 85 20 0
237 15 85 0
238 15 75 0
239 65 15 0
240 80 85 0
241 80 15 0
242 85 15 0
243 90 45 0
244 20 90 0
245 25 85 0
246 15 50 0
247 20 15 0
248 35 15 0
249 20 25 0
250 30 15 0
251 20 55 0
252 20 65 0
253 80 90 0
254 10 80 0
255 15 30 0
256 15 45 0
257 15 40 0
258 85 50 0
259 45 15 0
260 50 85 0
261 70 90 0
262 55 10 0
263 60 90 0
264 70 10 0
265 90 30 0
266 85 75 0
267 85 80 0
268 50.0000198254467 24.9999770725958 0
269 45.0006322479047 80.0006653822163 0
270 19.9999999832132 45.000001726249 0
271 35 25 0
272 65 85 0
273 80 70 0
274 80 20 0
275 75 85 0
276 85 30 0
277 85 45 0
278 75 15 0
279 25 25 0
280 85 25 0
281 85 65 0
282 20 85 0
283 85 40 0
284 19.999999990002 50.0000010281336 0
285 40.000039515494 85.0000415863885 0
286 15 80 0
287 40 15 0
288 25 15 0
289 19.9999999990125 35.0000001015441 0
290 20 70 0
291 55 85 0
292 19.9999999998766 30.000000012693 0
293 24.9999998729804 55.0000130618982 0
294 30 85 0
295 50 15 0
296 25 65 0
297 85 55 0
298 60 15 0
299 70 15 0
300 45.0000024781808 24.9999971340745 0
301 80 75 0
302 80 80 0
303 79.9999675030516 50.0000959507869 0
304 50.0010249135859 29.9988156445956 0
305 79.9999938898842 35.0000075419343 0
306 70 20 0
307 35.0000394049018 80.0000433884175 0
308 80 25 0
309 25 80 0
310 25 70 0
311 75.0003918640474 70.0008947938933 0
312 75.000020189816 80.0000285573612 0
313 70.0000012618635 85.0000017848351 0
314 20 75 0
315 79.9999951358471 60.0000618252311 0
316 79.99997160344 40.0000350682976 0
317 24.999998671737 50.0000965065111 0
318 40.0002756266939 80.0002959661792 0
319 75 20 0
320 80.0000238834839 65.0000636527722 0
321 30 25 0
322 55.0000024781808 19.9999971340745 0
323 40.0000003097726 24.9999996417593 0
324 65.0000012390904 19.9999985670372 0
325 19.9999999879036 40.0000012439147 0
326 50.0013745663912 80.0014291506567 0
327 55.0000003097726 14.9999996417593 0
328 60 85 0
329 29.9999794314165 55.0014712992897 0
330 30 65 0
331 20 80 0
332 24.9999997394451 35.0000217833687 0
333 24.9999999673535 30.0000027308542 0
334 74.9999537104465 35.0000581004458 0
335 45.0039640230706 75.0048605877985 0
336 29.9999213263312 50.0023457506766 0
337 70.0000062878044 24.9999928066175 0
338 30 70 0
339 40.0003733941853 29.9995816541782 0
340 29.999992473171 35.0001188542934 0
341 60.0013859014812 80.0014577494428 0
342 24.9999925391214 45.0003180068269 0
343 79.9999963431384 30.0000045740197 0
344 79.9999794914407 55.0001509143988 0
345 30.0000049256127 80.0000054235522 0
346 35.0001617603052 75.0001785226825 0
347 25.0000003078508 75.000000338972 0
348 35.0001240961156 29.9998725220066 0
349 75.0000012689988 24.9999985830016 0
350 30.0000145428956 30.0000014372073 0
351 35.0001278863497 65.0001414047015 0
352 79.9999493429521 45.0000695446285 0
353 55.0019901817129 80.0020693292003 0
354 24.9999970009377 40.0001605735516 0
355 34.9987312141515 55.0057498629148 0
356 55.0001338818393 24.9998452464132 0
357 70.000208372887 80.000244250486 0
358 60.0000113298155 19.9999869022242 0
359 45.0009551520703 29.9989049720324 0
360 75.0001946421857 75.0003147208897 0
361 74.9995050621332 60.0040033018121 0
362 75.0003983419007 65.0029499107143 0
363 50.0038222309158 34.9932611085289 0
364 69.9921445772264 60.0302226946787 0
365 34.9982354515108 50.0076058303671 0
366 55.0101299607959 75.0138015991742 0
367 29.9997776388963 45.0018074114342 0
368 65.00003932086 24.9999546541574 0
369 74.9982078795338 50.0031631431146 0
370 74.9999925468333 30.0000098357688 0
371 74.9976741572367 55.0062890575413 0
372 30.0000233370274 75.0000257474269 0
373 35.0002366874641 70.0002621173597 0
374 35.0003207565156 34.9998604934492 0
375 74.9995690125026 40.0005372877812 0
376 40.0020050415406 65.0024833087257 0
377 65.0009387259972 80.0010160225952 0
378 55.0010458673583 29.9985955463064 0
379 70.0019920287525 70.0075866323159 0
380 70.0011595118993 75.0026976465497 0
381 50.0088701287168 75.0114284743024 0
382 45.0032781385479 34.994806577937 0
383 29.9999308038918 40.0008021944633 0
384 39.9885039286404 55.0054708302885 0
385 40.0013940452932 75.001762982534 0
386 60.0001482245977 24.9998165020957 0
387 55.0021412991717 34.9943868353464 0
388 69.9970737985883 40.0027699543118 0
389 49.9954669879367 39.989806745933 0
390 35.0000962620563 40.0010009309535 0
391 39.9867462829242 50.0077096405014 0
392 50.0179051450423 70.032505081413 0
393 60.0080908723568 75.0128596602533 0
394 40.0026040365432 70.0033516282807 0
395 45.0085710177102 65.0150346134314 0
396 69.9999515154949 29.9999990754887 0
397 40.0015836430687 34.9979388943012 0
398 34.9985632290704 45.0035077336013 0
399 65.0000293915728 29.9997914854399 0
400 65.0040393114239 75.0079516352345 0
401 60.0004710531398 29.9990527830676 0
402 44.9547334182966 55.0105608169288 0
403 74.9984208893933 45.0021262597587 0
404 69.9995334801694 65.0211455622575 0
405 69.984141113532 50.0223042544277 0
406 69.9812359425416 55.0361656537363 0
407 64.9426815984862 50.067490320321 0
408 49.9028244681641 55.0706100791565 0
409 64.9642426202614 60.0956771587343 0
410 54.9869808134629 39.9970625886826 0
411 44.9550856130723 50.013839940896 0
412 40.0007919065203 39.9976945154619 0
413 69.9991081525826 35.0006511615132 0
414 59.9987234976317 34.9984022038662 0
415 69.9894625474658 45.0121636178138 0
416 64.9928865616805 65.0585521171332 0
417 65.0039086361635 70.0266168510768 0
418 55.0183072342627 70.0468075398014 0
419 50.0100596975171 65.0529554079368 0
420 44.9983623976389 39.9931776689475 0
421 45.0075600745465 70.0141659463395 0
422 39.9933341505587 45.0019386776231 0
423 59.9850543455792 40.0054026895691 0
424 54.9366594167965 60.1459120653886 0
425 54.9348092490865 45.0319154927919 0
426 64.96900751033 45.0294295926528 0
427 64.9884038872117 40.0086248527398 0
428 64.996973344364 35.0014041076492 0
429 49.9063041832432 50.0507072070128 0
430 59.9327457202999 60.1492451582267 0
431 60.0094248937651 70.0439243483965 0
432 44.9795481023741 45.0015834687246 0
433 54.9970831006403 65.0831333297193 0
434 64.9335742930381 55.0995149368161 0
435 59.8812625454432 55.1531057148394 0
436 59.8966607703175 50.1006224834422 0
437 54.8832677956587 50.0953745957262 0
438 54.8882529070144 55.1265917156936 0
439 59.9483230723406 45.040278225721 0
440 49.9572978099534 45.0147601133086 0
441 59.9856497792518 65.0852632541182 0
442 0 100 0
443 0 60 0
444 0 20 0
445 0 0 0
446 -100 100 0
447 -100 0 0
448 -50 20 0
449 -50 60 0
450 0 95 0
451 0 90 0
452 0 85 0
453 0 80 0
454 0 75 0
455 0 70 0
456 0 65 0
457 0 55 0
458 0 50 0
459 0 45 0
460 0 40 0
461 0 35 0
462 0 30 0
463 0 25 0
464 0 15 0
465 0 10 0
466 0 5 0
467 -100 95 0
468 -100 90 0
469 -100 85 0
470 -100 80 0
471 -100 75 0
472 -100 70 0
473 -100 65 0
474 -100 60 0
475 -100 55 0
476 -100 50 0
477 -100 45 0
478 -100 40 0
479 -100 35 0
480 -100 30 0
481 -100 25 0
482 -100 20 0
483 -100 15 0
484 -100 10 0
485 -100 5 0
486 -95 0 0
487 -90 0 0
488 -85 0 0
489 -80 0 0
490 -75 0 0
491 -70 0 0
492 -65 0 0
493 -60 0 0
494 -55 0 0
495 -50 0 0
496 -45 0 0
497 -40 0 0
498 -35 0 0
499 -30 0 0
500 -25 0 0
501 -20 0 0
502 -15 0 0
503 -10 0 0
504 -5 0 0
505 -5 100 0
506 -10 100 0
507 -15 100 0
508 -20 100 0
509 -25 100 0
510 -30 100 0
511 -35 100 0
512 -40 100 0
513 -45 100 0
514 -50 100 0
515 -55 100 0
516 -60 100 0
517 -65 100 0
518 -70 100 0
519 -75 100 0
520 -80 100 0
521 -85 100 0
522 -90 100 0
523 -95 100 0
524 -5 20 0
525 -10 20 0
526 -15 20 0
527 -20 20 0
528 -25 20 0
529 -30 20 0
530 -35 20 0
531 -40 20 0
532 -45 20 0
533 -5 60 0
534 -10 60 0
535 -15 60 0
536 -20 60 0
537 -25 60 0
538 -30 60 0
539 -35 60 0
540 -40 60 0
541 -45 60 0
542 -95 40 0
543 -95 75 0
544 -95 60 0
545 -65 95 0
546 -35 95 0
547 -70 5 0
548 -95 25 0
549 -85 95 0
550 -80 5 0
551 -10 5 0
552 -35 5 0
553 -20 95 0
554 -5 75 0
555 -5 40 0
556 -55 5 0
557 -20 5 0
558 -95 15 0
559 -5 85 0
560 -95 90 0
561 -55 95 0
562 -95 5 0
563 -5 95 0
564 -5 65 0
565 -5 50 0
566 -5 25 0
567 -5 10 0
568 -95 50 0
569 -95 95 0
570 -45 5 0
571 -5 15 0
572 -5 5 0
573 -95 35 0
574 -15 95 0
575 -30 95 0
576 -45 95 0
577 -75 95 0
578 -5 55 0
579 -5 30 0
580 -95 85 0
581 -95 70 0
582 -85 5 0
583 -60 5 0
584 -25 5 0
585 -90 40 0
586 -35 90 0
587 -90 75 0
588 -10 10 0
589 -80 10 0
590 -20 90 0
591 -20 10 0
592 -55 10 0
593 -10 15 0
594 -95 20 0
595 -15 5 0
596 -90 95 0
597 -95 55 0
598 -40 5 0
599 -40 95 0
600 -95 45 0
601 -30 5 0
602 -60 95 0
603 -95 65 0
604 -95 10 0
605 -90 5 0
606 -50 95 0
607 -70 95 0
608 -90 90 0
609 -10 25 0
610 -10 65 0
611 -10 55 0
612 -5 90 0
613 -5 80 0
614 -5 70 0
615 -5 45 0
616 -5 35 0
617 -95 80 0
618 -95 30 0
619 -75 5 0
620 -65 5 0
621 -50 5 0
622 -10 95 0
623 -25 95 0
624 -80 95 0
625 -90 60 0
626 -65 90 0
627 -50 90 0
628 -80 90 0
629 -90 15 0
630 -35 10 0
631 -40 90 0
632 -25 10 0
633 -40 10 0
634 -90 30 0
635 -10 75 0
636 -15 90 0
637 -90 85 0
638 -65 10 0
639 -10 35 0
640 -25 90 0
641 -50 10 0
642 -85 10 0
643 -90 25 0
644 -15 10 0
645 -15 15 0
646 -85 90 0
647 -90 50 0
648 -60 90 0
649 -15 25 0
650 -15 65 0
651 -15 55 0
652 -75 90 0
653 -90 70 0
654 -90 45 0
655 -90 10 0
656 -10 50 0
657 -90 35 0
658 -75 10 0
659 -10 85 0
660 -30 90 0
661 -10 30 0
662 -60 10 0
663 -10 70 0
664 -10 90 0
665 -10 40 0
666 -90 80 0
667 -85 40 0
668 -65 85 0
669 -35 85 0
670 -85 75 0
671 -85 30 0
672 -15 35 0
673 -14.9999998874678 49.9999993262162 0
674 -75 15 0
675 -85 15 0
676 -80 85 0
677 -25 85 0
678 -60 15 0
679 -45 90 0
680 -35 15 0
681 -85 85 0
682 -90 55 0
683 -90 65 0
684 -85 50 0
685 -20 25 0
686 -20 15 0
687 -20 65 0
688 -20 85 0
689 -70 90 0
690 -9.99999999296674 44.9999999578885 0
691 -15 70 0
692 -19.9999981924513 54.9999891773483 0
693 -55 90 0
694 -30 10 0
695 -50 15 0
696 -70 10 0
697 -10 80 0
698 -15 85 0
699 -45 10 0
700 -90 20 0
701 -15 30 0
702 -34.9998973307415 25.0002860012848 0
703 -55 85 0
704 -20 70 0
705 -19.9999839041423 49.9999210844507 0
706 -85 65 0
707 -85 55 0
708 -25 25 0
709 -70 85 0
710 -44.9996936611575 25.0008538674359 0
711 -15 75 0
712 -14.9999998870282 39.9999993235843 0
713 -25 80 0
714 -65 15 0
715 -85 25 0
716 -80 15 0
717 -85 35 0
718 -45 85 0
719 -85 80 0
720 -85 70 0
721 -30 15 0
722 -75 85 0
723 -40 15 0
724 -40 85 0
725 -60 85 0
726 -85 45 0
727 -14.9999987398773 44.9999935461718 0
728 -55 15 0
729 -25 15 0
730 -25 65 0
731 -24.999755679838 54.9988175581951 0
732 -19.9999997740564 29.9999986471685 0
733 -70 15 0
734 -20 80 0
735 -15 80 0
736 -45 15 0
737 -30 85 0
738 -85 20 0
739 -49.9996876144961 25.0007995112791 0
740 -79.9999994215318 40.0000001821159 0
741 -24.9993531530411 49.9983584332766 0
742 -65 80 0
743 -40 80 0
744 -65 20 0
745 -80 75 0
746 -79.999999799761 30.0000000630401 0
747 -79.9999996106464 50.000000122578 0
748 -24.9999919803331 29.9999958655105 0
749 -25 70 0
750 -75 20 0
751 -85 60 0
752 -50 85 0
753 -80 80 0
754 -80 20 0
755 -80 70 0
756 -29.9999705577874 25.0000803406645 0
757 -30 65 0
758 -29.9943140394938 54.9983889353146 0
759 -60 80 0
760 -20 75 0
761 -19.9999838112632 39.9999205965345 0
762 -19.9999951804392 34.9999760764666 0
763 -75 80 0
764 -54.999980475906 20.0000499694549 0
765 -39.9997081288927 25.0008133306287 0
766 -19.9999290476993 44.9997540636066 0
767 -30 80 0
768 -44.9937219970998 30.0137230707175 0
769 -29.9897543300926 50.0029511957179 0
770 -65 75 0
771 -30 70 0
772 -54.9997344721625 25.0004679114102 0
773 -79.9999993005541 45.0000002202027 0
774 -79.9999999986095 65.0000000004378 0
775 -50 80 0
776 -55 80 0
777 -75 75 0
778 -29.9998116914409 30.000612801528 0
779 -79.9999999749701 25.00000000788 0
780 -35 65 0
781 -25 75 0
782 -45 80 0
783 -24.999581557469 39.9997485093184 0
784 -24.9985733724288 44.9996133379721 0
785 -34.9615496853519 55.022813535411 0
786 -79.9999998386964 55.0000000507823 0
787 -70 80 0
788 -70 20 0
789 -24.9998670790743 34.9999700306598 0
790 -59.9999809639984 20.000035490645 0
791 -34.9986984766197 30.0043128553403 0
792 -79.9999994131886 35.0000001847426 0
793 -35 80 0
794 -74.9919608507839 50.0000241596045 0
795 -74.9971508310673 40.0000275890998 0
796 -34.9398088395854 50.0549178578206 0
797 -54.9999518640205 75.000007881133 0
798 -64.9998766199774 25.000040686657 0
799 -35 70 0
800 -74.9999304291278 70.0000016867398 0
801 -39.9999699150128 75.0000049257081 0
802 -59.9999939830026 75.0000009851416 0
803 -69.9999956518205 75.0000001054212 0
804 -29.9953496728848 40.0071601134393 0
805 -29.9982798498049 35.0040137602682 0
806 -30 75 0
807 -59.9997618072102 25.0001906622338 0
808 -29.987924950981 45.0127388690667 0
809 -49.9998676260563 75.0000216731158 0
810 -49.991688526916 30.0122198414814 0
811 -69.9999432392732 25.0000181001179 0
812 -74.9999269705341 30.0000068293011 0
813 -79.9999999657577 60.0000000107803 0
814 -39.9956761035873 30.0121489370256 0
815 -39.8723679843954 55.0901223446581 0
816 -39.9999699150128 65.0000049257081 0
817 -74.9999807347488 25.0000040737089 0
818 -39.8155106132012 50.1655670367756 0
819 -44.9591850595945 35.0676097806051 0
820 -59.9949020700308 30.0020149191451 0
821 -64.9983152118288 70.0001504323979 0
822 -69.9990933805078 30.0001459879824 0
823 -34.9923894068969 35.0214057780163 0
824 -54.9966115607718 70.0004912007724 0
825 -44.9991177577506 65.0001444463912 0
826 -74.9925993153774 55.0000151152396 0
827 -54.9916754842088 30.0068744931861 0
828 -39.9998771686382 70.0000201107428 0
829 -69.9992124977422 70.0000510113142 0
830 -74.9992499671131 65.0000104909732 0
831 -74.9990281920035 35.0000247732613 0
832 -44.7451343640079 55.1393714387813 0
833 -44.9998637097196 75.0000223143237 0
834 -34.975099284658 40.0507107506112 0
835 -34.9471162422112 45.0732997987255 0
836 -74.9922185734509 45.0000450083293 0
837 -34.9999885624165 75.0000018726349 0
838 -49.6445274153609 55.1234390231826 0
839 -69.9445775703752 50.0014015845675 0
840 -54.9504346497208 35.0265645490233 0
841 -74.9959436109282 60.0000152677385 0
842 -59.9963510696759 70.0004516105885 0
843 -64.9964215721994 30.0009571087313 0
844 -39.9745880264168 35.0565025130982 0
845 -49.9413489611999 35.0559089651194 0
846 -69.9940532410041 65.0002917047388 0
847 -49.9872047718573 65.0022197318816 0
848 -49.9965736701573 70.0005531319216 0
849 -44.6559915425266 50.228584412195 0
850 -39.9265570746566 40.126912851905 0
851 -39.8601633025828 45.1688087557279 0
852 -69.9802794627434 40.0009409733249 0
853 -44.9984969625807 70.0002529067808 0
854 -69.9930775475848 35.0006080653816 0
855 -54.8363553285992 40.0654158192429 0
856 -54.6520918711185 55.0724330523282 0
857 -69.9779211969923 60.0007714732832 0
858 -59.9609928752679 35.0125981306395 0
859 -49.5549466677355 50.1826056691699 0
860 -44.8641207511503 40.1567967121214 0
861 -69.9518609668115 55.0013732755807 0
862 -59.9698708255197 65.0039155368661 0
863 -64.9798522424848 65.0017909322109 0
864 -64.9392323880056 40.0074384587827 0
865 -64.9755871119627 35.0045336388051 0
866 -69.9505154511803 45.0019859010447 0
867 -54.9663996422088 65.0053351314472 0
868 -44.7526166479943 45.2066163517191 0
869 -64.8368054022505 50.0116399316684 0
870 -64.8725773363604 55.0097657404386 0
871 -54.5870791794748 50.100595401202 0
872 -49.6883571467286 45.1607582523673 0
873 -59.8776708338234 40.028608807397 0
874 -59.8857078182663 60.0158371217039 0
875 -64.9312480334066 60.0064830967822 0
876 -49.8319013879877 40.1092258685941 0
877 -54.8630434556347 60.0279223385751 0
878 -64.8695562357108 45.0130448631572 0
879 -59.7170949275587 50.0432297188404 0
880 -54.7070745149371 45.092672729292 0
881 -59.7880315058441 45.0429475584753 0
882 -59.7804885879202 55.0340433962683 0
883 0 100 0
884 0 60 0
885 0 20 0
886 0 0 0
887 0 100 100
888 0 0 100
889 0 95 0
890 0 90 0
891 0 85 0
892 0 80 0
893 0 75 0
894 0 70 0
895 0 65 0
896 0 55 0
897 0 50 0
898 0 45 0
899 0 40 0
900 0 35 0
901 0 30 0
902 0 25 0
903 0 15 0
904 0 10 0
905 0 5 0
906 0 95 100
907 0 90 100
908 0 85 100
909 0 80 100
910 0 75 100
911 0 70 100
912 0 65 100
913 0 60 100
914 0 55 100
915 0 50 100
916 0 45 100
917 0 40 100
918 0 35 100
919 0 30 100
920 0 25 100
921 0 20 100
922 0 15 100
923 0 10 100
924 0 5 100
925 0 0 95
926 0 0 90
927 0 0 85
928 0 0 80
929 0 0 75
930 0 0 70
931 0 0 65
932 0 0 60
933 0 0 55
934 0 0 50
935 0 0 45
936 0 0 40
937 0 0 35
938 0 0 30
939 0 0 25
940 0 0 20
941 0 0 15
942 0 0 10
943 0 0 5
944 0 100 5
945 0 100 10
946 0 100 15
947 0 100 20
948 0 100 25
949 0 100 30
950 0 100 35
951 0 100 40
952 0 100 45
953 0 100 50
954 0 100 55
955 0 100 60
956 0 100 65
957 0 100 70
958 0 100 75
959 0 100 80
960 0 100 85
961 0 100 90
962 0 100 95
963 0 50 5
964 0 55 95
965 0 5 60
966 0 5 35
967 0 95 40
968 0 95 65
969 0 35 95
970 0 70 5
971 0 20 5
972 0 80 95
973 0 5 75
974 0 95 25
975 0 20 95
976 0 80 5
977 0 5 10
978 0 95 90
979 0 95 15
980 0 5 20
981 0 95 80
982 0 5 85
983 0 95 55
984 0 30 5
985 0 10 95
986 0 90 5
987 0 5 5
988 0 95 95
989 0 50 95
990 0 75 95
991 0 45 95
992 0 5 40
993 0 5 45
994 0 95 50
995 0 60 5
996 0 95 5
997 0 40 5
998 0 10 5
999 0 90 95
1000 0 70 95
1001 0 65 95
1002 0 30 95
1003 0 5 95
1004 0 5 65
1005 0 5 50
1006 0 5 25
1007 0 95 35
1008 0 95 75
1009 0 90 55
1010 0 10 45
1011 0 50 90
1012 0 10 60
1013 0 70 90
1014 0 35 90
1015 0 90 40
1016 0 90 80
1017 0 10 20
1018 0 10 10
1019 0 90 90
1020 0 25 95
1021 0 5 15
1022 0 95 85
1023 0 10 90
1024 0 95 60
1025 0 10 35
1026 0 5 30
1027 0 95 45
1028 0 95 70
1029 0 15 5
1030 0 85 95
1031 0 40 95
1032 0 5 90
1033 0 5 55
1034 0 95 20
1035 0 15 95
1036 0 5 70
1037 0 95 10
1038 0 95 30
1039 0 80 90
1040 0 85 5
1041 0 75 5
1042 0 65 5
1043 0 55 5
1044 0 45 5
1045 0 35 5
1046 0 25 5
1047 0 60 95
1048 0 5 80
1049 0 45 10
1050 0 70 10
1051 0 90 25
1052 0 25 10
1053 0 10 75
1054 0 20 90
1055 0 80 10
1056 0 15 10
1057 0 90 65
1058 0 10 85
1059 0 10 30
1060 0 90 50
1061 0 55 10
1062 0 10 50
1063 0 45 90
1064 0 90 35
1065 0 90 75
1066 0 30 90
1067 0 85 90
1068 0 55 90
1069 0 90 60
1070 0 90 85
1071 0 10 15
1072 0 10 40
1073 0 10 25
1074 0 90 10
1075 0 90 20
1076 0 90 45
1077 0 10 65
1078 0 10 55
1079 0 30 10
1080 0 75 90
1081 0 60 10
1082 0 40 90
1083 0 35 10
1084 0 65 90
1085 0 15 90
1086 0 85 55
1087 0 55 15
1088 0 15 45
1089 0 40 85
1090 0 30 15
1091 0 70 85
1092 0 85 40
1093 0 15 60
1094 0 85 80
1095 0 15 20
1096 0 15 35
1097 0 85 25
1098 0 20 10
1099 0 35 85
1100 0 60 90
1101 0 10 80
1102 0 85 65
1103 0 90 15
1104 0 10 70
1105 0 85 85
1106 0 15 15
1107 0 15 25
1108 0 85 50
1109 0 50 10
1110 0 50 85
1111 0 25 90
1112 0 90 70
1113 0 90 30
1114 0 80 85
1115 0 85 10
1116 0 75 10
1117 0 65 10
1118 0 15 50
1119 0 40 10
1120 0 20 85
1121 0 15 85
1122 0 20 45
1123 0 80 55
1124 0 40 80
1125 0 15 70
1126 0 85 75
1127 0 25 15
1128 0 85 35
1129 0 65 15
1130 0 85 20
1131 0 40 15
1132 0 50 15
1133 0 25 85
1134 0 65 85
1135 0 55 85
1136 0 20 15
1137 0 85 70
1138 0 20 20
1139 0 15 75
1140 0 15 80
1141 0 15 40
1142 0 15 65
1143 0 15 55
1144 0 80 80
1145 0 15 30
1146 0 70 15
1147 0 80 15
1148 0 45 85
1149 0 85 45
1150 0 75 85
1151 0 60 15
1152 0 35 15
1153 0 85 30
1154 0 85 15
1155 0 85 60
1156 0 30 85
1157 0 49.9999998001036 19.9999998523474
1158 0 80 40
1159 0 70 80
1160 0 65 20
1161 0 19.9999897553114 59.999992432805
1162 0 80 30
1163 0 80 65
1164 0 30 80
1165 0 29.9999998001036 19.9999998523474
1166 0 19.9999685662969 34.9999767816309
1167 0 19.9999981509586 24.9999986342136
1168 0 20 70
1169 0 50 80
1170 0 45 80
1171 0 75 80
1172 0 80 75
1173 0 19.9999812784562 39.9999861714125
1174 0 19.9999897553114 49.999992432805
1175 0 80 60
1176 0 24.9999998594479 19.9999998961818
1177 0 54.999999975013 19.9999999815434
1178 0 60 85
1179 0 44.9999999875065 14.9999999907717
1180 0 80 25
1181 0 80 50
1182 0 75 15
1183 0 80 20
1184 0 34.9999991254534 19.9999993540199
1185 0 20 80
1186 0 35 80
1187 0 75 60
1188 0 49.99999659083 24.9999974818313
1189 0 50.0000416342522 75.0000639984203
1190 0 24.9987790142726 39.9990981241634
1191 0 29.9999643258945 24.9999752891674
1192 0 40 75
1193 0 39.9999985905745 19.9999989589339
1194 0 70 20
1195 0 20 75
1196 0 75 75
1197 0 80 70
1198 0 65 80
1199 0 19.9999987194139 64.9999990541006
1200 0 19.9999769494506 54.9999829738112
1201 0 24.999990413317 24.9999931237994
1202 0 24.9973697367124 44.9980571673773
1203 0 80 35
1204 0 75 55
1205 0 55.0000026021407 80.0000039999013
1206 0 19.9999767500756 29.9999828393538
1207 0 80 45
1208 0 59.9999999968766 19.9999999976929
1209 0 75 30
1210 0 75 25
1211 0 75 20
1212 0 44.9999987346404 19.9999990653476
1213 0 25 80
1214 0 34.9999953898901 74.9999965947622
1215 0 70.0008286696804 60.0017044477128
1216 0 29.9912760165674 39.9948651640011
1217 0 40.0004807684769 70.000996067455
1218 0 24.9990812923216 59.9993214005393
1219 0 55.0000939252505 75.0001422447855
1220 0 75 70
1221 0 75 45
1222 0 59.9999999699375 24.9999999777944
1223 0 75 35
1224 0 75.000051791855 65.000106527982
1225 0 70.000008203515 75.0000091970476
1226 0 24.9991169757977 34.9994295773295
1227 0 24.9998141931207 29.999873111671
1228 0 24.9966083745575 49.9974947905083
1229 0 24.999642074288 64.999735619718
1230 0 34.9998387569521 24.9999476838095
1231 0 44.9999006756796 24.999989935466
1232 0 64.999999996047 24.9999999970801
1233 0 45.0000352523113 75.0000702540185
1234 0 54.9999992731796 24.9999994631372
1235 0 60.0000061955957 80.0000093902867
1236 0 75 50
1237 0 69.9999999995059 24.999999999635
1238 0 29.9999902035165 74.9999927638698
1239 0 24.9999084658704 69.9999323887103
1240 0 24.9999827235635 74.9999872388347
1241 0 49.995876309396 30.0076410421544
1242 0 60.0000727699006 75.0001038961553
1243 0 70.0000862975807 70.000099778106
1244 0 29.9995234325116 29.9996751825972
1245 0 59.9981895763891 30.001994362272
1246 0 69.9983619319357 45.0014131581673
1247 0 34.9999778925895 70.0001475624987
1248 0 50.0025357433006 70.0040832098858
1249 0 65.0000374367275 75.0000451019249
1250 0 29.9941973228155 59.9974828216102
1251 0 70.0005089355436 65.0007926710148
1252 0 24.9970657550943 54.9979431916712
1253 0 74.999897620746 40.0000883223855
1254 0 29.9821476613544 44.9898275185828
1255 0 70.0006705428364 55.0031619580639
1256 0 69.9992531806905 34.9999667764276
1257 0 69.9997437288761 29.9999767878821
1258 0 29.9967182988716 34.9980088221478
1259 0 39.9997484035532 24.9999586617348
1260 0 29.998182788115 64.9993550440737
1261 0 29.9996673141218 69.999861914491
1262 0 45.0019151172578 70.0033371760918
1263 0 50.0068696308467 65.0311490449091
1264 0 65.0026236947923 65.0047187492427
1265 0 34.9912189794468 34.9983465199564
1266 0 29.9853773430748 54.9925136149402
1267 0 34.9970050945616 65.0006306359759
1268 0 65.0007427567742 70.0011882434028
1269 0 29.9781446444238 49.9882127864218
1270 0 44.9954657317298 30.0064069591875
1271 0 34.9977016683662 29.9995857238563
1272 0 69.9981918791823 40.0004303183221
1273 0 65.0050736717908 60.014762128058
1274 0 34.9715421063481 39.9969211603051
1275 0 64.9990241186728 30.0003973117055
1276 0 54.9959644757631 30.006864520543
1277 0 69.9992132500314 50.0034340844665
1278 0 60.0017369930915 70.0027047923842
1279 0 55.0029088686171 70.0058247073065
1280 0 39.9973621343532 65.0083816206291
1281 0 49.971259076877 35.0562451049734
1282 0 64.9861451350745 45.0203196923965
1283 0 34.94185470389 49.995040730238
1284 0 39.9750168803455 60.0289251240686
1285 0 59.9875606993832 35.0153463647876
1286 0 60.006978356463 65.0168791880561
1287 0 55.0090916030684 65.0315293803049
1288 0 34.9478170584551 44.9991024048554
1289 0 39.9809452835952 35.0125873408658
1290 0 64.9880994484584 40.0114822769434
1291 0 44.9997686116516 65.0255368778303
1292 0 65.0017205622577 55.0262775703145
1293 0 64.9939528644879 35.0050341562028
1294 0 39.9947142700323 30.0037940063041
1295 0 34.9602288080132 55.0034499458892
1296 0 34.9824434545221 60.0063155449983
1297 0 49.985085880895 60.1071102955528
1298 0 39.8973517815869 50.0745853095412
1299 0 60.0084133230265 60.0500848741985
1300 0 39.9324629044257 55.0649587565624
1301 0 44.9705074686907 35.0444482725826
1302 0 54.9748098921426 35.0456182330431
1303 0 64.9911193365538 50.0318917207583
1304 0 39.94390135153 40.0421807080815
1305 0 59.9649696911879 40.0532705569208
1306 0 44.9674936096494 60.0816305335419
1307 0 59.9922172252739 55.0887549761147
1308 0 49.9181967150471 55.2120254712448
1309 0 54.9370322800691 40.1252515571218
1310 0 59.9637894952119 50.1093543362662
1311 0 39.9086979424137 45.0764121600776
1312 0 59.9516454467145 45.0977596583631
1313 0 54.9968326364654 60.0899351122527
1314 0 44.9082308497623 55.1540322070567
1315 0 44.9230851401012 40.1230081222893
1316 0 49.8681861755582 50.2739931148399
1317 0 54.9224513135146 50.2086854721092
1318 0 44.8804046081287 45.1889047197279
1319 0 54.962255923946 55.1535284459361
1320 0 49.922243006315 40.1586019016381
1321 0 54.9133594160292 45.1899817306706
1322 0 44.8810488003224 50.1880039366219
1323 0 49.8917048210167 45.2221920955804
1324 0 100 0
1325 0 60 0
1326 0 20 0
1327 0 0 0
1328 0 100 -100
1329 0 0 -100
1330 0 95 0
1331 0 90 0
1332 0 85 0
1333 0 80 0
1334 0 75 0
1335 0 70 0
1336 0 65 0
1337 0 55 0
1338 0 50 0
1339 0 45 0
1340 0 40 0
1341 0 35 0
1342 0 30 0
1343 0 25 0
1344 0 15 0
1345 0 10 0
1346 0 5 0
1347 0 95 -100
1348 0 90 -100
1349 0 85 -100
1350 0 80 -100
1351 0 75 -100
1352 0 70 -100
1353 0 65 -100
1354 0 60 -100
1355 0 55 -100
1356 0 50 -100
1357 0 45 -100
1358 0 40 -100
1359 0 35 -100
1360 0 30 -100
1361 0 25 -100
1362 0 20 -100
1363 0 15 -100
1364 0 10 -100
1365 0 5 -100
1366 0 0 -95
1367 0 0 -90
1368 0 0 -85
1369 0 0 -80
1370 0 0 -75
1371 0 0 -70
1372 0 0 -65
1373 0 0 -60
1374 0 0 -55
1375 0 0 -50
1376 0 0 -45
1377 0 0 -40
1378 0 0 -35
1379 0 0 -30
1380 0 0 -25
1381 0 0 -20
1382 0 0 -15
1383 0 0 -10
1384 0 0 -5
1385 0 100 -5
1386 0 100 -10
1387 0 100 -15
1388 0 100 -20
1389 0 100 -25
1390 0 100 -30
1391 0 100 -35
1392 0 100 -40
1393 0 100 -45
1394 0 100 -50
1395 0 100 -55
1396 0 100 -60
1397 0 100 -65
1398 0 100 -70
1399 0 100 -75
1400 0 100 -80
1401 0 100 -85
1402 0 100 -90
1403 0 100 -95
1404 0 50 -5
1405 0 55 -95
1406 0 5 -60
1407 0 5 -35
1408 0 95 -40
1409 0 95 -65
1410 0 35 -95
1411 0 70 -5
1412 0 20 -5
1413 0 80 -95
1414 0 5 -75
1415 0 95 -25
1416 0 20 -95
1417 0 80 -5
1418 0 5 -10
1419 0 95 -90
1420 0 95 -15
1421 0 5 -20
1422 0 95 -80
1423 0 5 -85
1424 0 95 -55
1425 0 30 -5
1426 0 10 -95
1427 0 90 -5
1428 0 5 -5
1429 0 95 -95
1430 0 50 -95
1431 0 75 -95
1432 0 45 -95
1433 0 5 -40
1434 0 5 -45
1435 0 95 -50
1436 0 60 -5
1437 0 95 -5
1438 0 40 -5
1439 0 10 -5
1440 0 90 -95
1441 0 70 -95
1442 0 65 -95
1443 0 30 -95
1444 0 5 -95
1445 0 5 -65
1446 0 5 -50
1447 0 5 -25
1448 0 95 -35
1449 0 95 -75
1450 0 90 -55
1451 0 10 -45
1452 0 50 -90
1453 0 10 -60
1454 0 70 -90
1455 0 35 -90
1456 0 90 -40
1457 0 90 -80
1458 0 10 -20
1459 0 10 -10
1460 0 90 -90
1461 0 25 -95
1462 0 5 -15
1463 0 95 -85
1464 0 10 -90
1465 0 95 -60
1466 0 10 -35
1467 0 5 -30
1468 0 95 -45
1469 0 95 -70
1470 0 15 -5
1471 0 85 -95
1472 0 40 -95
1473 0 5 -90
1474 0 5 -55
1475 0 95 -20
1476 0 15 -95
1477 0 5 -70
1478 0 95 -10
1479 0 95 -30
1480 0 80 -90
1481 0 85 -5
1482 0 75 -5
1483 0 65 -5
1484 0 55 -5
1485 0 45 -5
1486 0 35 -5
1487 0 25 -5
1488 0 60 -95
1489 0 5 -80
1490 0 45 -10
1491 0 70 -10
1492 0 90 -25
1493 0 25 -10
1494 0 10 -75
1495 0 20 -90
1496 0 80 -10
1497 0 15 -10
1498 0 90 -65
1499 0 10 -85
1500 0 10 -30
1501 0 90 -50
1502 0 55 -10
1503 0 10 -50
1504 0 45 -90
1505 0 90 -35
1506 0 90 -75
1507 0 30 -90
1508 0 85 -90
1509 0 55 -90
1510 0 90 -60
1511 0 90 -85
1512 0 10 -15
1513 0 10 -40
1514 0 10 -25
1515 0 90 -10
1516 0 90 -20
1517 0 90 -45
1518 0 10 -65
1519 0 10 -55
1520 0 30 -10
1521 0 75 -90
1522 0 60 -10
1523 0 40 -90
1524 0 35 -10
1525 0 65 -90
1526 0 15 -90
1527 0 85 -55
1528 0 55 -15
1529 0 15 -45
1530 0 40 -85
1531 0 30 -15
1532 0 70 -85
1533 0 85 -40
1534 0 15 -60
1535 0 85 -80
1536 0 15 -20
1537 0 15 -35
1538 0 85 -25
1539 0 20 -10
1540 0 35 -85
1541 0 60 -90
1542 0 10 -80
1543 0 85 -65
1544 0 90 -15
1545 0 10 -70
1546 0 85 -85
1547 0 15 -15
1548 0 15 -25
1549 0 85 -50
1550 0 50 -10
1551 0 50 -85
1552 0 25 -90
1553 0 90 -70
1554 0 90 -30
1555 0 80 -85
1556 0 85 -10
1557 0 75 -10
1558 0 65 -10
1559 0 15 -50
1560 0 40 -10
1561 0 20 -85
1562 0 15 -85
1563 0 20 -45
1564 0 80 -55
1565 0 40 -80
1566 0 15 -70
1567 0 85 -75
1568 0 25 -15
1569 0 85 -35
1570 0 65 -15
1571 0 85 -20
1572 0 40 -15
1573 0 50 -15
1574 0 25 -85
1575 0 65 -85
1576 0 55 -85
1577 0 20 -15
1578 0 85 -70
1579 0 20 -20
1580 0 15 -75
1581 0 15 -80
1582 0 15 -40
1583 0 15 -65
1584 0 15 -55
1585 0 80 -80
1586 0 15 -30
1587 0 70 -15
1588 0 80 -15
1589 0 45 -85
1590 0 85 -45
1591 0 75 -85
1592 0 60 -15
1593 0 35 -15
1594 0 85 -30
1595 0 85 -15
1596 0 85 -60
1597 0 30 -85
1598 0 49.9999998001036 -19.9999998523474
1599 0 80 -40
1600 0 70 -80
1601 0 65 -20
1602 0 19.9999897553114 -59.999992432805
1603 0 80 -30
1604 0 80 -65
1605 0 30 -80
1606 0 29.9999998001036 -19.9999998523474
1607 0 19.9999685662969 -34.9999767816309
1608 0 19.9999981509586 -24.9999986342136
1609 0 20 -70
1610 0 50 -80
1611 0 45 -80
1612 0 75 -80
1613 0 80 -75
1614 0 19.9999812784562 -39.9999861714125
1615 0 19.9999897553114 -49.999992432805
1616 0 80 -60
1617 0 24.9999998594479 -19.9999998961818
1618 0 54.999999975013 -19.9999999815434
1619 0 60 -85
1620 0 44.9999999875065 -14.9999999907717
1621 0 80 -25
1622 0 80 -50
1623 0 75 -15
1624 0 80 -20
1625 0 34.9999991254534 -19.9999993540199
1626 0 20 -80
1627 0 35 -80
1628 0 75 -60
1629 0 49.99999659083 -24.9999974818313
1630 0 50.0000416342522 -75.0000639984203
1631 0 24.9987790142726 -39.9990981241634
1632 0 29.9999643258945 -24.9999752891674
1633 0 40 -75
1634 0 39.9999985905745 -19.9999989589339
1635 0 70 -20
1636 0 20 -75
1637 0 75 -75
1638 0 80 -70
1639 0 65 -80
1640 0 19.9999987194139 -64.9999990541006
1641 0 19.9999769494506 -54.9999829738112
1642 0 24.999990413317 -24.9999931237994
1643 0 24.9973697367124 -44.9980571673773
1644 0 80 -35
1645 0 75 -55
1646 0 55.0000026021407 -80.0000039999013
1647 0 19.9999767500756 -29.9999828393538
1648 0 80 -45
1649 0 59.9999999968766 -19.9999999976929
1650 0 75 -30
1651 0 75 -25
1652 0 75 -20
1653 0 44.9999987346404 -19.9999990653476
1654 0 25 -80
1655 0 34.9999953898901 -74.9999965947622
1656 0 70.0008286696804 -60.0017044477128
1657 0 29.9912760165674 -39.9948651640011
1658 0 40.0004807684769 -70.000996067455
1659 0 24.9990812923216 -59.9993214005393
1660 0 55.0000939252505 -75.0001422447855
1661 0 75 -70
1662 0 75 -45
1663 0 59.9999999699375 -24.9999999777944
1664 0 75 -35
1665 0 75.000051791855 -65.000106527982
1666 0 70.000008203515 -75.0000091970476
1667 0 24.9991169757977 -34.9994295773295
1668 0 24.9998141931207 -29.999873111671
1669 0 24.9966083745575 -49.9974947905083
1670 0 24.999642074288 -64.999735619718
1671 0 34.9998387569521 -24.9999476838095
1672 0 44.9999006756796 -24.999989935466
1673 0 64.999999996047 -24.9999999970801
1674 0 45.0000352523113 -75.0000702540185
1675 0 54.9999992731796 -24.9999994631372
1676 0 60.0000061955957 -80.0000093902867
1677 0 75 -50
1678 0 69.9999999995059 -24.999999999635
1679 0 29.9999902035165 -74.9999927638698
1680 0 24.9999084658704 -69.9999323887103
1681 0 24.9999827235635 -74.9999872388347
1682 0 49.995876309396 -30.0076410421544
1683 0 60.0000727699006 -75.0001038961553
1684 0 70.0000862975807 -70.000099778106
1685 0 29.9995234325116 -29.9996751825972
1686 0 59.9981895763891 -30.001994362272
1687 0 69.9983619319357 -45.0014131581673
1688 0 34.9999778925895 -70.0001475624987
1689 0 50.0025357433006 -70.0040832098858
1690 0 65.0000374367275 -75.0000451019249
1691 0 29.9941973228155 -59.9974828216102
1692 0 70.0005089355436 -65.0007926710148
1693 0 24.9970657550943 -54.9979431916712
1694 0 74.999897620746 -40.0000883223855
1695 0 29.9821476613544 -44.9898275185828
1696 0 70.0006705428364 -55.0031619580639
1697 0 69.9992531806905 -34.9999667764276
1698 0 69.9997437288761 -29.9999767878821
1699 0 29.9967182988716 -34.9980088221478
1700 0 39.9997484035532 -24.9999586617348
1701 0 29.998182788115 -64.9993550440737
1702 0 29.9996673141218 -69.999861914491
1703 0 45.0019151172578 -70.0033371760918
1704 0 50.0068696308467 -65.0311490449091
1705 0 65.0026236947923 -65.0047187492427
1706 0 34.9912189794468 -34.9983465199564
1707 0 29.9853773430748 -54.9925136149402
1708 0 34.9970050945616 -65.0006306359759
1709 0 65.0007427567742 -70.0011882434028
1710 0 29.9781446444238 -49.9882127864218
1711 0 44.9954657317298 -30.0064069591875
1712 0 34.9977016683662 -29.9995857238563
1713 0 69.9981918791823 -40.0004303183221
1714 0 65.0050736717908 -60.014762128058
1715 0 34.9715421063481 -39.9969211603051
1716 0 64.9990241186728 -30.0003973117055
1717 0 54.9959644757631 -30.006864520543
1718 0 69.9992132500314 -50.0034340844665
1719 0 60.0017369930915 -70.0027047923842
1720 0 55.0029088686171 -70.0058247073065
1721 0 39.9973621343532 -65.0083816206291
1722 0 49.971259076877 -35.0562451049734
1723 0 64.9861451350745 -45.0203196923965
1724 0 34.94185470389 -49.995040730238
1725 0 39.9750168803455 -60.0289251240686
1726 0 59.9875606993832 -35.0153463647876
1727 0 60.006978356463 -65.0168791880561
1728 0 55.0090916030684 -65.0315293803049
1729 0 34.9478170584551 -44.9991024048554
1730 0 39.9809452835952 -35.0125873408658
1731 0 64.9880994484584 -40.0114822769434
1732 0 44.9997686116516 -65.0255368778303
1733 0 65.0017205622577 -55.0262775703145
1734 0 64.9939528644879 -35.0050341562028
1735 0 39.9947142700323 -30.0037940063041
1736 0 34.9602288080132 -55.0034499458892
1737 0 34.9824434545221 -60.0063155449983
1738 0 49.985085880895 -60.1071102955528
1739 0 39.8973517815869 -50.0745853095412
1740 0 60.0084133230265 -60.0500848741985
1741 0 39.9324629044257 -55.0649587565624
1742 0 44.9705074686907 -35.0444482725826
1743 0 54.9748098921426 -35.0456182330431
1744 0 64.9911193365538 -50.0318917207583
1745 0 39.94390135153 -40.0421807080815
1746 0 59.9649696911879 -40.0532705569208
1747 0 44.9674936096494 -60.0816305335419
1748 0 59.9922172252739 -55.0887549761147
1749 0 49.9181967150471 -55.2120254712448
1750 0 54.9370322800691 -40.1252515571218
1751 0 59.9637894952119 -50.1093543362662
1752 0 39.9086979424137 -45.0764121600776
1753 0 59.9516454467145 -45.0977596583631
1754 0 54.9968326364654 -60.0899351122527
1755 0 44.9082308497623 -55.1540322070567
1756 0 44.9230851401012 -40.1230081222893
1757 0 49.8681861755582 -50.2739931148399
1758 0 54.9224513135146 -50.2086854721092
1759 0 44.8804046081287 -45.1889047197279
1760 0 54.962255923946 -55.1535284459361
1761 0 49.922243006315 -40.1586019016381
1762 0 54.9133594160292 -45.1899817306706
1763 0 44.8810488003224 -50.1880039366219
1764 0 49.8917048210167 -45.2221920955804
$EndNodes
$Elements
1600
1 3 2 1 1 308 343 370 349
2 3 2 1 1 24 25 110 186
3 3 2 1 1 191 244 282 245
4 3 2 1 1 153 117 184 207
5 3 2 1 1 308 280 276 343
6 3 2 1 1 188 160 120 200
7 3 2 1 1 371 369 303 344
8 3 2 1 1 310 338 372 347
9 3 2 1 1 438 437 436 435
10 3 2 1 1 277 283 200 243
11 3 2 1 1 158 219 201 129
12 3 2 1 1 256 270 284 246
13 3 2 1 1 136 224 145 101
14 3 2 1 1 244 186 110 203
15 3 2 1 1 123 139 155 159
16 3 2 1 1 282 237 286 331
17 3 2 1 1 162 132 191 205
18 3 2 1 1 186 244 191 132
19 3 2 1 1 107 153 207 202
20 3 2 1 1 120 157 243 200
21 3 2 1 1 232 276 265 188
22 3 2 1 1 297 231 315 344
23 3 2 1 1 276 232 305 343
24 3 2 1 1 277 258 303 352
25 3 2 1 1 2 28 123 27
26 3 2 1 1 139 123 28 29
27 3 2 1 1 73 74 158 129
28 3 2 1 1 79 80 117 153
29 3 2 1 1 220 147 106 156
30 3 2 1 1 215 236 242 154
31 3 2 1 1 222 212 256 246
32 3 2 1 1 61 156 106 60
33 3 2 1 1 194 202 266 235
34 3 2 1 1 155 204 237 203
35 3 2 1 1 346 372 338 373
36 3 2 1 1 362 404 364 361
37 3 2 1 1 403 369 405 415
38 3 2 1 1 394 376 395 421
39 3 2 1 1 415 426 427 388
40 3 2 1 1 427 423 414 428
41 3 2 1 1 438 435 430 424
42 3 2 1 1 19 161 105 18
43 3 2 1 1 20 21 103 131
44 3 2 1 1 50 51 163 114
45 3 2 1 1 130 81 82 137
46 3 2 1 1 101 145 219 158
47 3 2 1 1 103 162 205 146
48 3 2 1 1 285 234 189 206
49 3 2 1 1 285 233 307 318
50 3 2 1 1 231 281 320 315
51 3 2 1 1 374 390 383 340
52 3 2 1 1 423 427 426 439
53 3 2 1 1 110 25 26 159
54 3 2 1 1 128 62 63 144
55 3 2 1 1 101 158 74 75
56 3 2 1 1 157 129 201 243
57 3 2 1 1 103 146 206 131
58 3 2 1 1 281 231 145 224
59 3 2 1 1 110 159 155 203
60 3 2 1 1 146 205 294 233
61 3 2 1 1 146 233 285 206
62 3 2 1 1 145 231 297 219
63 3 2 1 1 201 219 297 258
64 3 2 1 1 345 307 233 294
65 3 2 1 1 241 274 319 278
66 3 2 1 1 325 289 332 354
67 3 2 1 1 343 305 334 370
68 3 2 1 1 370 396 337 349
69 3 2 1 1 394 373 351 376
70 3 2 1 1 406 434 407 405
71 3 2 1 1 112 212 222 185
72 3 2 1 1 332 289 292 333
73 3 2 1 1 315 361 371 344
74 3 2 1 1 103 21 22 162
75 3 2 1 1 102 69 70 160
76 3 2 1 1 87 86 321 279
77 3 2 1 1 88 87 279 249
78 3 2 1 1 89 208 247 88
79 3 2 1 1 160 188 265 102
80 3 2 1 1 130 137 122 187
81 3 2 1 1 220 156 128 148
82 3 2 1 1 189 161 131 206
83 3 2 1 1 155 139 165 204
84 3 2 1 1 102 265 216 168
85 3 2 1 1 136 179 194 224
86 3 2 1 1 224 194 235 281
87 3 2 1 1 188 200 283 232
88 3 2 1 1 191 245 294 205
89 3 2 1 1 210 211 252 290
90 3 2 1 1 197 214 287 248
91 3 2 1 1 215 216 280 236
92 3 2 1 1 276 280 216 265
93 3 2 1 1 316 305 232 283
94 3 2 1 1 274 236 280 308
95 3 2 1 1 201 258 277 243
96 3 2 1 1 294 245 309 345
97 3 2 1 1 344 303 258 297
98 3 2 1 1 283 277 352 316
99 3 2 1 1 301 302 312 360
100 3 2 1 1 397 374 348 339
101 3 2 1 1 312 357 380 360
102 3 2 1 1 364 409 434 406
103 3 2 1 1 417 431 441 416
104 3 2 1 1 436 437 425 439
105 3 2 1 1 137 9 10 122
106 3 2 1 1 1 9 137 82
107 3 2 1 1 10 11 164 122
108 3 2 1 1 20 131 161 19
109 3 2 1 1 23 132 162 22
110 3 2 1 1 186 132 23 24
111 3 2 1 1 165 139 29 30
112 3 2 1 1 47 113 170 46
113 3 2 1 1 47 48 166 113
114 3 2 1 1 49 142 166 48
115 3 2 1 1 50 114 142 49
116 3 2 1 1 56 167 115 55
117 3 2 1 1 56 57 109 167
118 3 2 1 1 58 178 109 57
119 3 2 1 1 65 66 134 118
120 3 2 1 1 66 67 135 134
121 3 2 1 1 69 102 168 68
122 3 2 1 1 67 68 168 135
123 3 2 1 1 120 160 70 71
124 3 2 1 1 157 120 71 72
125 3 2 1 1 129 157 72 73
126 3 2 1 1 76 77 179 136
127 3 2 1 1 84 85 248 287
128 3 2 1 1 88 247 288 87
129 3 2 1 1 89 88 249 199
130 3 2 1 1 90 151 208 89
131 3 2 1 1 90 89 199 181
132 3 2 1 1 94 93 376 351
133 3 2 1 1 96 95 330 296
134 3 2 1 1 97 251 293 96
135 3 2 1 1 97 96 296 252
136 3 2 1 1 98 97 252 211
137 3 2 1 1 98 99 169 209
138 3 2 1 1 99 100 121 169
139 3 2 1 1 161 189 223 105
140 3 2 1 1 202 194 179 107
141 3 2 1 1 165 111 254 204
142 3 2 1 1 166 196 213 113
143 3 2 1 1 133 116 152 214
144 3 2 1 1 148 118 134 154
145 3 2 1 1 187 122 164 230
146 3 2 1 1 214 197 163 133
147 3 2 1 1 134 135 215 154
148 3 2 1 1 216 215 135 168
149 3 2 1 1 114 149 217 142
150 3 2 1 1 166 142 217 196
151 3 2 1 1 106 147 218 143
152 3 2 1 1 114 163 197 149
153 3 2 1 1 119 150 221 175
154 3 2 1 1 198 257 221 150
155 3 2 1 1 148 154 242 220
156 3 2 1 1 115 167 227 262
157 3 2 1 1 121 185 222 169
158 3 2 1 1 209 169 222 246
159 3 2 1 1 113 213 229 170
160 3 2 1 1 112 175 221 212
161 3 2 1 1 150 180 255 198
162 3 2 1 1 181 199 255 180
163 3 2 1 1 267 207 184 195
164 3 2 1 1 184 187 230 195
165 3 2 1 1 253 240 195 230
166 3 2 1 1 213 196 247 208
167 3 2 1 1 149 197 248 250
168 3 2 1 1 257 198 289 325
169 3 2 1 1 249 292 255 199
170 3 2 1 1 207 267 266 202
171 3 2 1 1 237 204 254 286
172 3 2 1 1 182 210 238 225
173 3 2 1 1 257 256 212 221
174 3 2 1 1 196 217 288 247
175 3 2 1 1 149 250 288 217
176 3 2 1 1 147 241 278 218
177 3 2 1 1 147 220 242 241
178 3 2 1 1 189 234 260 223
179 3 2 1 1 228 223 260 291
180 3 2 1 1 286 254 225 238
181 3 2 1 1 285 318 269 234
182 3 2 1 1 260 234 269 326
183 3 2 1 1 266 301 273 235
184 3 2 1 1 281 235 273 320
185 3 2 1 1 203 237 282 244
186 3 2 1 1 210 290 314 238
187 3 2 1 1 286 238 314 331
188 3 2 1 1 298 239 324 358
189 3 2 1 1 195 240 302 267
190 3 2 1 1 236 274 241 242
191 3 2 1 1 209 246 284 251
192 3 2 1 1 317 293 251 284
193 3 2 1 1 256 257 325 270
194 3 2 1 1 267 302 301 266
195 3 2 1 1 326 269 335 381
196 3 2 1 1 284 270 342 317
197 3 2 1 1 321 271 348 350
198 3 2 1 1 319 306 299 278
199 3 2 1 1 252 296 310 290
200 3 2 1 1 347 314 290 310
201 3 2 1 1 317 336 329 293
202 3 2 1 1 310 296 330 338
203 3 2 1 1 319 349 337 306
204 3 2 1 1 345 372 346 307
205 3 2 1 1 274 308 349 319
206 3 2 1 1 309 331 314 347
207 3 2 1 1 305 316 375 334
208 3 2 1 1 336 317 342 367
209 3 2 1 1 315 320 362 361
210 3 2 1 1 270 325 354 342
211 3 2 1 1 351 373 338 330
212 3 2 1 1 350 340 332 333
213 3 2 1 1 396 370 334 413
214 3 2 1 1 375 388 413 334
215 3 2 1 1 332 340 383 354
216 3 2 1 1 354 383 367 342
217 3 2 1 1 373 394 385 346
218 3 2 1 1 365 391 384 355
219 3 2 1 1 378 356 386 401
220 3 2 1 1 415 388 375 403
221 3 2 1 1 335 385 394 421
222 3 2 1 1 428 413 388 427
223 3 2 1 1 374 397 412 390
224 3 2 1 1 398 390 412 422
225 3 2 1 1 421 395 419 392
226 3 2 1 1 413 428 399 396
227 3 2 1 1 364 404 416 409
228 3 2 1 1 405 407 426 415
229 3 2 1 1 402 411 429 408
230 3 2 1 1 423 439 425 410
231 3 2 1 1 440 429 411 432
232 3 2 1 1 408 438 424 8
233 3 2 1 1 18 105 173 17
234 3 2 1 1 3 35 121 100
235 3 2 1 1 37 38 175 112
236 3 2 1 1 133 52 53 116
237 3 2 1 1 51 52 133 163
238 3 2 1 1 55 115 177 54
239 3 2 1 1 83 300 323 84
240 3 2 1 1 395 376 93 92
241 3 2 1 1 93 384 402 92
242 3 2 1 1 94 355 384 93
243 3 2 1 1 355 94 95 329
244 3 2 1 1 98 211 183 99
245 3 2 1 1 223 228 173 105
246 3 2 1 1 230 164 108 253
247 3 2 1 1 177 115 262 226
248 3 2 1 1 181 180 125 141
249 3 2 1 1 173 228 263 138
250 3 2 1 1 208 151 229 213
251 3 2 1 1 287 214 152 259
252 3 2 1 1 299 264 218 278
253 3 2 1 1 152 226 295 259
254 3 2 1 1 226 262 327 295
255 3 2 1 1 228 291 328 263
256 3 2 1 1 362 320 273 311
257 3 2 1 1 260 326 353 291
258 3 2 1 1 268 356 378 304
259 3 2 1 1 363 304 378 387
260 3 2 1 1 355 329 336 365
261 3 2 1 1 365 336 367 398
262 3 2 1 1 353 366 393 341
263 3 2 1 1 390 398 367 383
264 3 2 1 1 387 378 401 414
265 3 2 1 1 391 411 402 384
266 3 2 1 1 363 387 410 389
267 3 2 1 1 423 410 387 414
268 3 2 1 1 425 440 389 410
269 3 2 1 1 432 420 389 440
270 3 2 1 1 411 391 422 432
271 3 2 1 1 366 418 431 393
272 3 2 1 1 438 408 429 437
273 3 2 1 1 392 419 433 418
274 3 2 1 1 441 431 418 433
275 3 2 1 1 8 424 433 419
276 3 2 1 1 295 7 83 259
277 3 2 1 1 83 7 268 300
278 3 2 1 1 356 268 7 322
279 3 2 1 1 327 322 7 295
280 3 2 1 1 419 395 92 8
281 3 2 1 1 408 8 92 402
282 3 2 1 1 164 11 12 108
283 3 2 1 1 14 104 171 13
284 3 2 1 1 12 13 171 108
285 3 2 1 1 14 15 172 104
286 3 2 1 1 16 138 172 15
287 3 2 1 1 16 17 173 138
288 3 2 1 1 165 30 31 111
289 3 2 1 1 31 32 174 111
290 3 2 1 1 33 124 174 32
291 3 2 1 1 3 100 140 34
292 3 2 1 1 33 34 140 124
293 3 2 1 1 36 185 121 35
294 3 2 1 1 185 36 37 112
295 3 2 1 1 39 119 175 38
296 3 2 1 1 39 40 125 119
297 3 2 1 1 4 91 141 41
298 3 2 1 1 40 41 141 125
299 3 2 1 1 4 42 126 91
300 3 2 1 1 42 43 176 126
301 3 2 1 1 44 127 176 43
302 3 2 1 1 5 45 127 44
303 3 2 1 1 45 46 170 127
304 3 2 1 1 53 54 177 116
305 3 2 1 1 59 143 178 58
306 3 2 1 1 60 106 143 59
307 3 2 1 1 6 64 144 63
308 3 2 1 1 65 118 144 64
309 3 2 1 1 136 101 75 76
310 3 2 1 1 179 77 78 107
311 3 2 1 1 153 107 78 79
312 3 2 1 1 83 84 287 259
313 3 2 1 1 85 84 323 271
314 3 2 1 1 271 321 86 85
315 3 2 1 1 85 86 250 248
316 3 2 1 1 86 87 288 250
317 3 2 1 1 91 126 151 90
318 3 2 1 1 91 90 181 141
319 3 2 1 1 351 330 95 94
320 3 2 1 1 329 95 96 293
321 3 2 1 1 251 97 98 209
322 3 2 1 1 100 99 183 140
323 3 2 1 1 172 190 261 104
324 3 2 1 1 171 104 261 193
325 3 2 1 1 253 108 171 193
326 3 2 1 1 254 111 174 225
327 3 2 1 1 226 152 116 177
328 3 2 1 1 187 184 117 130
329 3 2 1 1 128 144 118 148
330 3 2 1 1 180 150 119 125
331 3 2 1 1 172 138 263 190
332 3 2 1 1 124 140 183 182
333 3 2 1 1 126 176 229 151
334 3 2 1 1 109 192 227 167
335 3 2 1 1 127 170 229 176
336 3 2 1 1 124 182 225 174
337 3 2 1 1 109 178 264 192
338 3 2 1 1 143 218 264 178
339 3 2 1 1 211 210 182 183
340 3 2 1 1 298 227 192 239
341 3 2 1 1 299 239 192 264
342 3 2 1 1 275 193 261 313
343 3 2 1 1 292 289 198 255
344 3 2 1 1 299 306 324 239
345 3 2 1 1 193 275 240 253
346 3 2 1 1 190 272 313 261
347 3 2 1 1 227 298 327 262
348 3 2 1 1 190 263 328 272
349 3 2 1 1 304 359 300 268
350 3 2 1 1 348 271 323 339
351 3 2 1 1 328 341 377 272
352 3 2 1 1 313 272 377 357
353 3 2 1 1 301 360 311 273
354 3 2 1 1 240 275 312 302
355 3 2 1 1 249 279 333 292
356 3 2 1 1 321 350 333 279
357 3 2 1 1 323 300 359 339
358 3 2 1 1 359 304 363 382
359 3 2 1 1 372 345 309 347
360 3 2 1 1 380 379 311 360
361 3 2 1 1 275 313 357 312
362 3 2 1 1 307 346 385 318
363 3 2 1 1 298 358 322 327
364 3 2 1 1 386 356 322 358
365 3 2 1 1 306 337 368 324
366 3 2 1 1 358 324 368 386
367 3 2 1 1 353 326 381 366
368 3 2 1 1 291 353 341 328
369 3 2 1 1 392 381 335 421
370 3 2 1 1 396 399 368 337
371 3 2 1 1 340 350 348 374
372 3 2 1 1 303 369 403 352
373 3 2 1 1 339 359 382 397
374 3 2 1 1 311 379 404 362
375 3 2 1 1 389 420 382 363
376 3 2 1 1 361 364 406 371
377 3 2 1 1 422 391 365 398
378 3 2 1 1 392 418 366 381
379 3 2 1 1 386 368 399 401
380 3 2 1 1 369 371 406 405
381 3 2 1 1 357 377 400 380
382 3 2 1 1 341 393 400 377
383 3 2 1 1 417 416 404 379
384 3 2 1 1 379 380 400 417
385 3 2 1 1 397 382 420 412
386 3 2 1 1 400 393 431 417
387 3 2 1 1 428 414 401 399
388 3 2 1 1 439 426 407 436
389 3 2 1 1 434 409 430 435
390 3 2 1 1 420 432 422 412
391 3 2 1 1 409 416 441 430
392 3 2 1 1 430 441 433 424
393 3 2 1 1 425 437 429 440
394 3 2 1 1 245 282 331 309
395 3 2 1 1 316 352 403 375
396 3 2 1 1 26 27 123 159
397 3 2 1 1 156 61 62 128
398 3 2 1 1 130 117 80 81
399 3 2 1 1 318 385 335 269
400 3 2 1 1 435 436 407 434
401 3 2 2 2 868 872 876 860
402 3 2 2 2 881 880 871 879
403 3 2 2 2 879 882 870 869
404 3 2 2 2 863 875 874 862
405 3 2 2 2 549 624 520 521
406 3 2 2 2 588 593 645 644
407 3 2 2 2 628 646 681 676
408 3 2 2 2 824 797 802 842
409 3 2 2 2 502 595 557 501
410 3 2 2 2 599 576 679 631
411 3 2 2 2 604 655 629 558
412 3 2 2 2 868 860 850 851
413 3 2 2 2 585 542 573 657
414 3 2 2 2 628 624 549 646
415 3 2 2 2 600 654 647 568
416 3 2 2 2 828 799 837 801
417 3 2 2 2 880 881 873 855
418 3 2 2 2 549 521 522 596
419 3 2 2 2 598 552 630 633
420 3 2 2 2 726 667 740 773
421 3 2 2 2 707 684 747 786
422 3 2 2 2 867 862 874 877
423 3 2 2 2 870 882 874 875
424 3 2 2 2 482 483 558 594
425 3 2 2 2 544 597 682 625
426 3 2 2 2 725 668 742 759
427 3 2 2 2 709 787 742 668
428 3 2 2 2 675 716 754 738
429 3 2 2 2 715 738 754 779
430 3 2 2 2 530 531 723 680
431 3 2 2 2 716 674 750 754
432 3 2 2 2 719 753 676 681
433 3 2 2 2 722 676 753 763
434 3 2 2 2 630 694 721 680
435 3 2 2 2 774 755 720 706
436 3 2 2 2 748 778 756 708
437 3 2 2 2 800 777 745 755
438 3 2 2 2 753 745 777 763
439 3 2 2 2 800 829 803 777
440 3 2 2 2 822 812 817 811
441 3 2 2 2 866 878 869 839
442 3 2 2 2 873 864 865 858
443 3 2 2 2 476 477 600 568
444 3 2 2 2 577 624 628 652
445 3 2 2 2 720 653 683 706
446 3 2 2 2 446 467 569 523
447 3 2 2 2 497 498 552 598
448 3 2 2 2 626 689 709 668
449 3 2 2 2 779 817 812 746
450 3 2 2 2 850 860 819 844
451 3 2 2 2 862 842 821 863
452 3 2 2 2 879 869 878 881
453 3 2 2 2 551 503 504 572
454 3 2 2 2 516 517 545 602
455 3 2 2 2 721 729 528 529
456 3 2 2 2 542 585 654 600
457 3 2 2 2 717 667 585 657
458 3 2 2 2 548 594 700 643
459 3 2 2 2 642 675 629 655
460 3 2 2 2 719 681 637 666
461 3 2 2 2 585 667 726 654
462 3 2 2 2 786 747 794 826
463 3 2 2 2 837 799 771 806
464 3 2 2 2 823 791 778 805
465 3 2 2 2 767 793 837 806
466 3 2 2 2 831 854 852 795
467 3 2 2 2 801 833 853 828
468 3 2 2 2 822 843 865 854
469 3 2 2 2 542 600 477 478
470 3 2 2 2 599 546 511 512
471 3 2 2 2 551 572 567 588
472 3 2 2 2 552 601 694 630
473 3 2 2 2 573 618 634 657
474 3 2 2 2 647 684 707 682
475 3 2 2 2 820 807 772 827
476 3 2 2 2 471 472 581 543
477 3 2 2 2 472 473 603 581
478 3 2 2 2 484 485 562 604
479 3 2 2 2 570 496 497 598
480 3 2 2 2 552 498 499 601
481 3 2 2 2 575 510 511 546
482 3 2 2 2 561 515 516 602
483 3 2 2 2 545 517 518 607
484 3 2 2 2 756 702 530 529
485 3 2 2 2 680 721 529 530
486 3 2 2 2 648 602 545 626
487 3 2 2 2 599 631 586 546
488 3 2 2 2 569 560 608 596
489 3 2 2 2 604 562 605 655
490 3 2 2 2 588 567 571 593
491 3 2 2 2 546 586 660 575
492 3 2 2 2 683 653 581 603
493 3 2 2 2 631 724 669 586
494 3 2 2 2 719 666 587 670
495 3 2 2 2 549 596 608 646
496 3 2 2 2 545 607 689 626
497 3 2 2 2 577 652 689 607
498 3 2 2 2 679 718 724 631
499 3 2 2 2 657 634 671 717
500 3 2 2 2 634 643 715 671
501 3 2 2 2 700 738 715 643
502 3 2 2 2 626 668 725 648
503 3 2 2 2 610 663 691 650
504 3 2 2 2 687 650 691 704
505 3 2 2 2 628 676 722 652
506 3 2 2 2 647 654 726 684
507 3 2 2 2 586 669 737 660
508 3 2 2 2 773 747 684 726
509 3 2 2 2 652 722 709 689
510 3 2 2 2 671 715 779 746
511 3 2 2 2 667 717 792 740
512 3 2 2 2 718 782 743 724
513 3 2 2 2 804 805 789 783
514 3 2 2 2 783 784 808 804
515 3 2 2 2 823 844 814 791
516 3 2 2 2 746 812 831 792
517 3 2 2 2 805 804 834 823
518 3 2 2 2 844 823 834 850
519 3 2 2 2 861 870 875 857
520 3 2 2 2 873 881 878 864
521 3 2 2 2 877 449 847 867
522 3 2 2 2 465 464 571 567
523 3 2 2 2 465 567 572 466
524 3 2 2 2 479 480 618 573
525 3 2 2 2 447 486 562 485
526 3 2 2 2 486 487 605 562
527 3 2 2 2 508 553 574 507
528 3 2 2 2 508 509 623 553
529 3 2 2 2 510 575 623 509
530 3 2 2 2 512 513 576 599
531 3 2 2 2 515 561 606 514
532 3 2 2 2 513 514 606 576
533 3 2 2 2 519 577 607 518
534 3 2 2 2 624 577 519 520
535 3 2 2 2 522 523 569 596
536 3 2 2 2 525 526 645 593
537 3 2 2 2 525 609 649 526
538 3 2 2 2 526 527 686 645
539 3 2 2 2 526 649 685 527
540 3 2 2 2 529 528 708 756
541 3 2 2 2 530 702 765 531
542 3 2 2 2 535 650 687 536
543 3 2 2 2 538 537 730 757
544 3 2 2 2 538 758 731 537
545 3 2 2 2 540 539 780 816
546 3 2 2 2 540 815 785 539
547 3 2 2 2 643 634 618 548
548 3 2 2 2 595 644 591 557
549 3 2 2 2 602 648 693 561
550 3 2 2 2 647 682 597 568
551 3 2 2 2 598 633 699 570
552 3 2 2 2 553 590 636 574
553 3 2 2 2 560 580 637 608
554 3 2 2 2 655 605 582 642
555 3 2 2 2 675 642 589 716
556 3 2 2 2 553 623 640 590
557 3 2 2 2 640 677 688 590
558 3 2 2 2 644 645 686 591
559 3 2 2 2 584 632 694 601
560 3 2 2 2 576 606 627 679
561 3 2 2 2 561 693 627 606
562 3 2 2 2 646 608 637 681
563 3 2 2 2 555 615 690 665
564 3 2 2 2 575 660 640 623
565 3 2 2 2 751 706 683 625
566 3 2 2 2 718 679 627 752
567 3 2 2 2 693 703 752 627
568 3 2 2 2 721 694 632 729
569 3 2 2 2 630 680 723 633
570 3 2 2 2 699 633 723 736
571 3 2 2 2 663 635 711 691
572 3 2 2 2 703 693 648 725
573 3 2 2 2 640 660 737 677
574 3 2 2 2 727 712 665 690
575 3 2 2 2 737 669 793 767
576 3 2 2 2 753 719 670 745
577 3 2 2 2 755 745 670 720
578 3 2 2 2 656 673 727 690
579 3 2 2 2 625 682 707 751
580 3 2 2 2 677 713 734 688
581 3 2 2 2 705 692 731 741
582 3 2 2 2 775 752 703 776
583 3 2 2 2 725 759 776 703
584 3 2 2 2 691 711 760 704
585 3 2 2 2 687 704 749 730
586 3 2 2 2 741 784 766 705
587 3 2 2 2 786 813 751 707
588 3 2 2 2 722 763 787 709
589 3 2 2 2 765 814 768 710
590 3 2 2 2 677 737 767 713
591 3 2 2 2 734 713 781 760
592 3 2 2 2 806 781 713 767
593 3 2 2 2 752 775 782 718
594 3 2 2 2 749 771 757 730
595 3 2 2 2 741 731 758 769
596 3 2 2 2 710 768 810 739
597 3 2 2 2 772 739 810 827
598 3 2 2 2 769 808 784 741
599 3 2 2 2 732 762 789 748
600 3 2 2 2 778 748 789 805
601 3 2 2 2 704 760 781 749
602 3 2 2 2 771 749 781 806
603 3 2 2 2 754 750 817 779
604 3 2 2 2 788 811 817 750
605 3 2 2 2 706 751 813 774
606 3 2 2 2 797 776 759 802
607 3 2 2 2 784 783 761 766
608 3 2 2 2 762 761 783 789
609 3 2 2 2 777 803 787 763
610 3 2 2 2 702 791 814 765
611 3 2 2 2 844 819 768 814
612 3 2 2 2 802 770 821 842
613 3 2 2 2 757 771 799 780
614 3 2 2 2 764 772 807 790
615 3 2 2 2 755 774 830 800
616 3 2 2 2 841 830 774 813
617 3 2 2 2 776 797 809 775
618 3 2 2 2 743 782 833 801
619 3 2 2 2 775 809 833 782
620 3 2 2 2 813 786 826 841
621 3 2 2 2 744 798 811 788
622 3 2 2 2 744 790 807 798
623 3 2 2 2 743 801 837 793
624 3 2 2 2 822 811 798 843
625 3 2 2 2 807 820 843 798
626 3 2 2 2 829 800 830 846
627 3 2 2 2 804 808 835 834
628 3 2 2 2 797 824 848 809
629 3 2 2 2 833 809 848 853
630 3 2 2 2 840 827 810 845
631 3 2 2 2 865 843 820 858
632 3 2 2 2 812 822 854 831
633 3 2 2 2 848 824 867 847
634 3 2 2 2 816 828 853 825
635 3 2 2 2 847 825 853 848
636 3 2 2 2 857 841 826 861
637 3 2 2 2 841 857 846 830
638 3 2 2 2 795 852 866 836
639 3 2 2 2 870 861 839 869
640 3 2 2 2 857 875 863 846
641 3 2 2 2 854 865 864 852
642 3 2 2 2 852 864 878 866
643 3 2 2 2 710 739 448 532
644 3 2 2 2 739 772 764 448
645 3 2 2 2 443 533 578 457
646 3 2 2 2 444 524 571 464
647 3 2 2 2 445 466 572 504
648 3 2 2 2 569 467 468 560
649 3 2 2 2 580 560 468 469
650 3 2 2 2 568 597 475 476
651 3 2 2 2 605 487 488 582
652 3 2 2 2 494 556 583 493
653 3 2 2 2 496 570 621 495
654 3 2 2 2 601 499 500 584
655 3 2 2 2 593 571 524 525
656 3 2 2 2 765 710 532 531
657 3 2 2 2 731 692 536 537
658 3 2 2 2 535 536 692 651
659 3 2 2 2 536 687 730 537
660 3 2 2 2 449 838 832 541
661 3 2 2 2 642 582 550 589
662 3 2 2 2 644 595 551 588
663 3 2 2 2 632 584 557 591
664 3 2 2 2 578 611 656 565
665 3 2 2 2 641 695 728 592
666 3 2 2 2 651 673 656 611
667 3 2 2 2 565 656 690 615
668 3 2 2 2 590 688 698 636
669 3 2 2 2 587 653 720 670
670 3 2 2 2 761 762 672 712
671 3 2 2 2 651 692 705 673
672 3 2 2 2 788 750 674 733
673 3 2 2 2 728 764 790 678
674 3 2 2 2 708 685 732 748
675 3 2 2 2 672 762 732 701
676 3 2 2 2 673 705 766 727
677 3 2 2 2 760 711 735 734
678 3 2 2 2 736 532 448 695
679 3 2 2 2 695 448 764 728
680 3 2 2 2 838 449 877 856
681 3 2 2 2 442 505 563 450
682 3 2 2 2 452 451 612 559
683 3 2 2 2 450 563 612 451
684 3 2 2 2 454 453 613 554
685 3 2 2 2 452 559 613 453
686 3 2 2 2 454 554 614 455
687 3 2 2 2 456 455 614 564
688 3 2 2 2 443 456 564 533
689 3 2 2 2 615 459 458 565
690 3 2 2 2 457 578 565 458
691 3 2 2 2 459 615 555 460
692 3 2 2 2 460 555 616 461
693 3 2 2 2 462 461 616 579
694 3 2 2 2 463 462 579 566
695 3 2 2 2 444 463 566 524
696 3 2 2 2 471 543 617 470
697 3 2 2 2 469 470 617 580
698 3 2 2 2 474 544 603 473
699 3 2 2 2 597 544 474 475
700 3 2 2 2 573 542 478 479
701 3 2 2 2 618 480 481 548
702 3 2 2 2 594 548 481 482
703 3 2 2 2 582 488 489 550
704 3 2 2 2 491 547 619 490
705 3 2 2 2 489 490 619 550
706 3 2 2 2 491 492 620 547
707 3 2 2 2 493 583 620 492
708 3 2 2 2 494 495 621 556
709 3 2 2 2 584 500 501 557
710 3 2 2 2 505 506 622 563
711 3 2 2 2 507 574 622 506
712 3 2 2 2 524 566 609 525
713 3 2 2 2 527 685 708 528
714 3 2 2 2 527 528 729 686
715 3 2 2 2 532 736 723 531
716 3 2 2 2 578 533 534 611
717 3 2 2 2 533 564 610 534
718 3 2 2 2 535 534 610 650
719 3 2 2 2 535 651 611 534
720 3 2 2 2 757 780 539 538
721 3 2 2 2 758 538 539 785
722 3 2 2 2 815 540 541 832
723 3 2 2 2 541 540 816 825
724 3 2 2 2 449 541 825 847
725 3 2 2 2 587 543 581 653
726 3 2 2 2 625 683 603 544
727 3 2 2 2 620 638 696 547
728 3 2 2 2 619 547 696 658
729 3 2 2 2 641 592 556 621
730 3 2 2 2 566 579 661 609
731 3 2 2 2 616 639 661 579
732 3 2 2 2 637 580 617 666
733 3 2 2 2 556 592 662 583
734 3 2 2 2 620 583 662 638
735 3 2 2 2 543 587 666 617
736 3 2 2 2 550 619 658 589
737 3 2 2 2 716 589 658 674
738 3 2 2 2 729 632 591 686
739 3 2 2 2 662 592 728 678
740 3 2 2 2 564 614 663 610
741 3 2 2 2 563 622 664 612
742 3 2 2 2 559 612 664 659
743 3 2 2 2 554 613 697 635
744 3 2 2 2 559 659 697 613
745 3 2 2 2 554 635 663 614
746 3 2 2 2 555 665 639 616
747 3 2 2 2 570 699 641 621
748 3 2 2 2 574 636 664 622
749 3 2 2 2 664 636 698 659
750 3 2 2 2 662 678 714 638
751 3 2 2 2 736 695 641 699
752 3 2 2 2 609 661 701 649
753 3 2 2 2 685 649 701 732
754 3 2 2 2 639 672 701 661
755 3 2 2 2 639 665 712 672
756 3 2 2 2 793 669 724 743
757 3 2 2 2 792 717 671 746
758 3 2 2 2 658 696 733 674
759 3 2 2 2 714 678 790 744
760 3 2 2 2 638 714 733 696
761 3 2 2 2 659 698 735 697
762 3 2 2 2 635 697 735 711
763 3 2 2 2 688 734 735 698
764 3 2 2 2 788 733 714 744
765 3 2 2 2 712 727 766 761
766 3 2 2 2 831 795 740 792
767 3 2 2 2 742 770 802 759
768 3 2 2 2 845 810 768 819
769 3 2 2 2 758 785 796 769
770 3 2 2 2 835 808 769 796
771 3 2 2 2 742 787 803 770
772 3 2 2 2 829 821 770 803
773 3 2 2 2 740 795 836 773
774 3 2 2 2 861 826 794 839
775 3 2 2 2 785 815 818 796
776 3 2 2 2 780 799 828 816
777 3 2 2 2 796 818 851 835
778 3 2 2 2 827 840 858 820
779 3 2 2 2 842 862 867 824
780 3 2 2 2 834 835 851 850
781 3 2 2 2 855 873 858 840
782 3 2 2 2 840 845 876 855
783 3 2 2 2 819 860 876 845
784 3 2 2 2 872 880 855 876
785 3 2 2 2 856 877 874 882
786 3 2 2 2 756 778 791 702
787 3 2 2 2 747 773 836 794
788 3 2 2 2 832 849 818 815
789 3 2 2 2 604 558 483 484
790 3 2 2 2 558 629 700 594
791 3 2 2 2 738 700 629 675
792 3 2 2 2 866 839 794 836
793 3 2 2 2 821 829 846 863
794 3 2 2 2 503 551 595 502
795 3 2 2 2 882 879 871 856
796 3 2 2 2 856 871 859 838
797 3 2 2 2 880 872 859 871
798 3 2 2 2 838 859 849 832
799 3 2 2 2 872 868 849 859
800 3 2 2 2 851 818 849 868
801 3 2 3 3 1318 1323 1316 1322
802 3 2 3 3 1316 1323 1321 1317
803 3 2 3 3 1133 1213 1164 1156
804 3 2 3 3 1243 1225 1249 1268
805 3 2 3 3 1316 1317 1319 1308
806 3 2 3 3 1124 1170 1148 1089
807 3 2 3 3 941 1021 980 940
808 3 2 3 3 960 1022 981 959
809 3 2 3 3 1019 1067 1105 1070
810 3 2 3 3 1056 1098 1136 1106
811 3 2 3 3 1095 1106 1136 1138
812 3 2 3 3 1247 1261 1260 1267
813 3 2 3 3 983 1024 1069 1009
814 3 2 3 3 1163 1197 1220 1224
815 3 2 3 3 1299 1273 1264 1286
816 3 2 3 3 1310 1307 1319 1317
817 3 2 3 3 1057 1069 1024 968
818 3 2 3 3 1224 1220 1243 1251
819 3 2 3 3 1268 1264 1251 1243
820 3 2 3 3 1323 1318 1315 1320
821 3 2 3 3 982 1048 1101 1058
822 3 2 3 3 1141 1096 1166 1173
823 3 2 3 3 1057 1112 1137 1102
824 3 2 3 3 1155 1102 1163 1175
825 3 2 3 3 1171 1159 1225 1196
826 3 2 3 3 920 921 975 1020
827 3 2 3 3 1227 1244 1258 1226
828 3 2 3 3 915 916 991 989
829 3 2 3 3 921 922 1035 975
830 3 2 3 3 985 923 924 1003
831 3 2 3 3 936 937 966 992
832 3 2 3 3 977 942 943 987
833 3 2 3 3 955 956 968 1024
834 3 2 3 3 978 961 962 988
835 3 2 3 3 1186 1214 1192 1124
836 3 2 3 3 1091 1134 1198 1159
837 3 2 3 3 1189 1219 1205 1169
838 3 2 3 3 1190 1226 1258 1216
839 3 2 3 3 1218 1252 1266 1250
840 3 2 3 3 1269 1254 1288 1283
841 3 2 3 3 1300 1295 1283 1298
842 3 2 3 3 948 949 1038 974
843 3 2 3 3 977 987 998 1018
844 3 2 3 3 978 988 999 1019
845 3 2 3 3 1101 1140 1121 1058
846 3 2 3 3 1136 1127 1176 1138
847 3 2 3 3 1185 1140 1139 1195
848 3 2 3 3 1214 1247 1217 1192
849 3 2 3 3 1187 1224 1251 1215
850 3 2 3 3 1299 1307 1292 1273
851 3 2 3 3 917 1031 991 916
852 3 2 3 3 993 935 936 992
853 3 2 3 3 983 954 955 1024
854 3 2 3 3 992 1072 1010 993
855 3 2 3 3 967 1027 1076 1015
856 3 2 3 3 966 1026 1059 1025
857 3 2 3 3 1322 1298 1311 1318
858 3 2 3 3 910 911 1000 990
859 3 2 3 3 911 912 1001 1000
860 3 2 3 3 918 919 1002 969
861 3 2 3 3 929 930 1036 973
862 3 2 3 3 935 993 1005 934
863 3 2 3 3 966 937 938 1026
864 3 2 3 3 954 983 994 953
865 3 2 3 3 968 956 957 1028
866 3 2 3 3 1066 1014 969 1002
867 3 2 3 3 989 991 1063 1011
868 3 2 3 3 966 1025 1072 992
869 3 2 3 3 1018 998 1029 1056
870 3 2 3 3 1019 999 1030 1067
871 3 2 3 3 985 1003 1032 1023
872 3 2 3 3 1141 1088 1010 1072
873 3 2 3 3 1099 1089 1082 1014
874 3 2 3 3 985 1023 1085 1035
875 3 2 3 3 1082 1089 1148 1063
876 3 2 3 3 1011 1063 1148 1110
877 3 2 3 3 1014 1066 1156 1099
878 3 2 3 3 1089 1099 1186 1124
879 3 2 3 3 1088 1141 1173 1122
880 3 2 3 3 1252 1218 1161 1200
881 3 2 3 3 1166 1226 1190 1173
882 3 2 3 3 904 903 1029 998
883 3 2 3 3 998 987 905 904
884 3 2 3 3 886 905 987 943
885 3 2 3 3 999 988 906 907
886 3 2 3 3 887 906 988 962
887 3 2 3 3 907 908 1030 999
888 3 2 3 3 1020 1002 919 920
889 3 2 3 3 922 923 985 1035
890 3 2 3 3 888 925 1003 924
891 3 2 3 3 925 926 1032 1003
892 3 2 3 3 946 979 1037 945
893 3 2 3 3 946 947 1034 979
894 3 2 3 3 950 1007 1038 949
895 3 2 3 3 1027 967 951 952
896 3 2 3 3 950 951 967 1007
897 3 2 3 3 1047 964 1068 1100
898 3 2 3 3 1014 1082 1031 969
899 3 2 3 3 1056 1029 971 1098
900 3 2 3 3 1046 1052 1098 971
901 3 2 3 3 1035 1085 1054 975
902 3 2 3 3 1037 979 1103 1074
903 3 2 3 3 1034 1075 1103 979
904 3 2 3 3 1021 1071 1017 980
905 3 2 3 3 1046 984 1079 1052
906 3 2 3 3 964 989 1011 1068
907 3 2 3 3 1063 991 1031 1082
908 3 2 3 3 983 1009 1060 994
909 3 2 3 3 1076 1027 994 1060
910 3 2 3 3 993 1010 1062 1005
911 3 2 3 3 980 1017 1073 1006
912 3 2 3 3 1059 1026 1006 1073
913 3 2 3 3 967 1015 1064 1007
914 3 2 3 3 981 1016 1065 1008
915 3 2 3 3 1108 1060 1009 1086
916 3 2 3 3 1069 1155 1086 1009
917 3 2 3 3 1062 1010 1088 1118
918 3 2 3 3 1068 1011 1110 1135
919 3 2 3 3 1070 1105 1094 1016
920 3 2 3 3 1107 1073 1017 1095
921 3 2 3 3 1071 1106 1095 1017
922 3 2 3 3 975 1054 1111 1020
923 3 2 3 3 1002 1020 1111 1066
924 3 2 3 3 982 1058 1023 1032
925 3 2 3 3 1145 1096 1025 1059
926 3 2 3 3 968 1028 1112 1057
927 3 2 3 3 1008 1065 1112 1028
928 3 2 3 3 972 1039 1067 1030
929 3 2 3 3 1005 1062 1078 1033
930 3 2 3 3 1067 1039 1114 1105
931 3 2 3 3 1079 1090 1127 1052
932 3 2 3 3 1136 1098 1052 1127
933 3 2 3 3 1140 1101 1053 1139
934 3 2 3 3 1104 1125 1139 1053
935 3 2 3 3 1018 1056 1106 1071
936 3 2 3 3 1023 1058 1121 1085
937 3 2 3 3 1073 1107 1145 1059
938 3 2 3 3 1078 1062 1118 1143
939 3 2 3 3 1016 1094 1126 1065
940 3 2 3 3 1137 1112 1065 1126
941 3 2 3 3 1100 1068 1135 1178
942 3 2 3 3 1057 1102 1155 1069
943 3 2 3 3 1025 1096 1141 1072
944 3 2 3 3 1015 1076 1149 1092
945 3 2 3 3 1060 1108 1149 1076
946 3 2 3 3 1012 1093 1142 1077
947 3 2 3 3 1104 1077 1142 1125
948 3 2 3 3 1012 1078 1143 1093
949 3 2 3 3 1079 1083 1152 1090
950 3 2 3 3 1054 1085 1121 1120
951 3 2 3 3 1123 1086 1155 1175
952 3 2 3 3 1127 1090 1165 1176
953 3 2 3 3 1152 1184 1165 1090
954 3 2 3 3 1143 1200 1161 1093
955 3 2 3 3 1156 1164 1186 1099
956 3 2 3 3 1084 1100 1178 1134
957 3 2 3 3 1197 1163 1102 1137
958 3 2 3 3 1095 1138 1167 1107
959 3 2 3 3 1145 1107 1167 1206
960 3 2 3 3 1086 1123 1181 1108
961 3 2 3 3 1054 1120 1133 1111
962 3 2 3 3 1088 1122 1174 1118
963 3 2 3 3 1140 1185 1120 1121
964 3 2 3 3 1181 1123 1204 1236
965 3 2 3 3 1120 1185 1213 1133
966 3 2 3 3 1167 1138 1176 1201
967 3 2 3 3 1125 1168 1195 1139
968 3 2 3 3 1093 1161 1199 1142
969 3 2 3 3 1125 1142 1199 1168
970 3 2 3 3 1118 1174 1200 1143
971 3 2 3 3 1096 1145 1206 1166
972 3 2 3 3 1092 1149 1207 1158
973 3 2 3 3 1108 1181 1207 1149
974 3 2 3 3 1176 1165 1191 1201
975 3 2 3 3 1227 1226 1166 1206
976 3 2 3 3 1201 1227 1206 1167
977 3 2 3 3 1199 1229 1239 1168
978 3 2 3 3 1195 1168 1239 1240
979 3 2 3 3 1169 1170 1233 1189
980 3 2 3 3 1124 1192 1233 1170
981 3 2 3 3 1122 1173 1190 1202
982 3 2 3 3 1122 1202 1228 1174
983 3 2 3 3 1200 1174 1228 1252
984 3 2 3 3 1157 1177 1234 1188
985 3 2 3 3 1134 1178 1235 1198
986 3 2 3 3 1135 1205 1235 1178
987 3 2 3 3 1165 1184 1230 1191
988 3 2 3 3 1193 1259 1230 1184
989 3 2 3 3 1164 1238 1214 1186
990 3 2 3 3 1157 1188 1231 1212
991 3 2 3 3 1233 1262 1248 1189
992 3 2 3 3 1201 1191 1244 1227
993 3 2 3 3 1185 1195 1240 1213
994 3 2 3 3 1225 1243 1220 1196
995 3 2 3 3 1159 1198 1249 1225
996 3 2 3 3 1242 1249 1198 1235
997 3 2 3 3 1161 1218 1229 1199
998 3 2 3 3 1219 1242 1235 1205
999 3 2 3 3 1181 1236 1221 1207
1000 3 2 3 3 1158 1207 1221 1253
1001 3 2 3 3 1164 1213 1240 1238
1002 3 2 3 3 1238 1261 1247 1214
1003 3 2 3 3 1229 1218 1250 1260
1004 3 2 3 3 1189 1248 1279 1219
1005 3 2 3 3 1266 1252 1228 1269
1006 3 2 3 3 1202 1254 1269 1228
1007 3 2 3 3 1238 1240 1239 1261
1008 3 2 3 3 1249 1242 1278 1268
1009 3 2 3 3 1219 1279 1278 1242
1010 3 2 3 3 1221 1246 1272 1253
1011 3 2 3 3 1260 1250 1296 1267
1012 3 2 3 3 1277 1255 1292 1303
1013 3 2 3 3 1264 1268 1278 1286
1014 3 2 3 3 1246 1277 1303 1282
1015 3 2 3 3 1286 1278 1279 1287
1016 3 2 3 3 1303 1310 1312 1282
1017 3 2 3 3 1283 1288 1311 1298
1018 3 2 3 3 1285 1293 1290 1305
1019 3 2 3 3 1307 1310 1303 1292
1020 3 2 3 3 1305 1312 1321 1309
1021 3 2 3 3 1323 1320 1309 1321
1022 3 2 3 3 989 964 914 915
1023 3 2 3 3 1026 938 939 1006
1024 3 2 3 3 1034 947 948 974
1025 3 2 3 3 994 1027 952 953
1026 3 2 3 3 1028 957 958 1008
1027 3 2 3 3 1044 963 1109 1049
1028 3 2 3 3 1043 1061 1109 963
1029 3 2 3 3 1033 1078 1012 965
1030 3 2 3 3 1104 1053 973 1036
1031 3 2 3 3 1101 1048 973 1053
1032 3 2 3 3 1022 1070 1016 981
1033 3 2 3 3 972 990 1080 1039
1034 3 2 3 3 1004 1077 1104 1036
1035 3 2 3 3 1109 1132 1179 1049
1036 3 2 3 3 1015 1092 1128 1064
1037 3 2 3 3 1061 1081 1151 1087
1038 3 2 3 3 1061 1087 1132 1109
1039 3 2 3 3 1177 1157 1132 1087
1040 3 2 3 3 1203 1128 1092 1158
1041 3 2 3 3 1105 1114 1144 1094
1042 3 2 3 3 1205 1135 1110 1169
1043 3 2 3 3 1049 1179 1131 1119
1044 3 2 3 3 1132 1157 1212 1179
1045 3 2 3 3 1203 1158 1253 1223
1046 3 2 3 3 1190 1216 1254 1202
1047 3 2 3 3 1267 1280 1217 1247
1048 3 2 3 3 1253 1272 1256 1223
1049 3 2 3 3 1191 1230 1271 1244
1050 3 2 3 3 1302 1281 1241 1276
1051 3 2 3 3 1217 1280 1291 1262
1052 3 2 3 3 1320 1315 1301 1281
1053 3 2 3 3 1298 1322 1314 1300
1054 3 2 3 3 1281 1302 1309 1320
1055 3 2 3 3 1043 896 884 995
1056 3 2 3 3 1029 903 885 971
1057 3 2 3 3 883 944 996 889
1058 3 2 3 3 890 889 996 986
1059 3 2 3 3 892 891 1040 976
1060 3 2 3 3 890 986 1040 891
1061 3 2 3 3 894 893 1041 970
1062 3 2 3 3 892 976 1041 893
1063 3 2 3 3 894 970 1042 895
1064 3 2 3 3 884 895 1042 995
1065 3 2 3 3 1044 898 897 963
1066 3 2 3 3 896 1043 963 897
1067 3 2 3 3 898 1044 997 899
1068 3 2 3 3 901 900 1045 984
1069 3 2 3 3 899 997 1045 900
1070 3 2 3 3 885 902 1046 971
1071 3 2 3 3 901 984 1046 902
1072 3 2 3 3 1030 908 909 972
1073 3 2 3 3 909 910 990 972
1074 3 2 3 3 913 1047 1001 912
1075 3 2 3 3 1047 913 914 964
1076 3 2 3 3 1032 926 927 982
1077 3 2 3 3 929 973 1048 928
1078 3 2 3 3 927 928 1048 982
1079 3 2 3 3 1036 930 931 1004
1080 3 2 3 3 1033 965 932 933
1081 3 2 3 3 931 932 965 1004
1082 3 2 3 3 1005 1033 933 934
1083 3 2 3 3 1006 939 940 980
1084 3 2 3 3 944 945 1037 996
1085 3 2 3 3 1008 958 959 981
1086 3 2 3 3 1077 1004 965 1012
1087 3 2 3 3 1075 1034 974 1051
1088 3 2 3 3 1071 1021 977 1018
1089 3 2 3 3 1070 1022 978 1019
1090 3 2 3 3 996 1037 1074 986
1091 3 2 3 3 1000 1013 1080 990
1092 3 2 3 3 1043 995 1081 1061
1093 3 2 3 3 1119 997 1044 1049
1094 3 2 3 3 1000 1001 1084 1013
1095 3 2 3 3 1100 1084 1001 1047
1096 3 2 3 3 1038 1007 1064 1113
1097 3 2 3 3 1134 1091 1013 1084
1098 3 2 3 3 974 1038 1113 1051
1099 3 2 3 3 976 1040 1115 1055
1100 3 2 3 3 986 1074 1115 1040
1101 3 2 3 3 970 1041 1116 1050
1102 3 2 3 3 976 1055 1116 1041
1103 3 2 3 3 970 1050 1117 1042
1104 3 2 3 3 995 1042 1117 1081
1105 3 2 3 3 984 1045 1083 1079
1106 3 2 3 3 997 1119 1083 1045
1107 3 2 3 3 1117 1050 1146 1129
1108 3 2 3 3 1051 1097 1130 1075
1109 3 2 3 3 1013 1091 1150 1080
1110 3 2 3 3 1039 1080 1150 1114
1111 3 2 3 3 1117 1129 1151 1081
1112 3 2 3 3 1159 1171 1150 1091
1113 3 2 3 3 1051 1113 1153 1097
1114 3 2 3 3 1153 1162 1180 1097
1115 3 2 3 3 1074 1103 1154 1115
1116 3 2 3 3 1075 1130 1154 1103
1117 3 2 3 3 1170 1169 1110 1148
1118 3 2 3 3 1064 1128 1153 1113
1119 3 2 3 3 1055 1115 1154 1147
1120 3 2 3 3 1050 1116 1182 1146
1121 3 2 3 3 1055 1147 1182 1116
1122 3 2 3 3 1083 1119 1131 1152
1123 3 2 3 3 1094 1144 1172 1126
1124 3 2 3 3 1137 1126 1172 1197
1125 3 2 3 3 1153 1128 1203 1162
1126 3 2 3 3 1154 1130 1183 1147
1127 3 2 3 3 1097 1180 1183 1130
1128 3 2 3 3 1193 1184 1152 1131
1129 3 2 3 3 1114 1150 1171 1144
1130 3 2 3 3 1196 1172 1144 1171
1131 3 2 3 3 1129 1146 1194 1160
1132 3 2 3 3 1129 1160 1208 1151
1133 3 2 3 3 1087 1151 1208 1177
1134 3 2 3 3 1208 1160 1232 1222
1135 3 2 3 3 1196 1220 1197 1172
1136 3 2 3 3 1123 1175 1187 1204
1137 3 2 3 3 1131 1179 1212 1193
1138 3 2 3 3 1162 1209 1210 1180
1139 3 2 3 3 1147 1183 1211 1182
1140 3 2 3 3 1146 1182 1211 1194
1141 3 2 3 3 1180 1210 1211 1183
1142 3 2 3 3 1231 1188 1241 1270
1143 3 2 3 3 1234 1276 1241 1188
1144 3 2 3 3 1259 1193 1212 1231
1145 3 2 3 3 1211 1210 1237 1194
1146 3 2 3 3 1160 1194 1237 1232
1147 3 2 3 3 1162 1203 1223 1209
1148 3 2 3 3 1187 1215 1255 1204
1149 3 2 3 3 1177 1208 1222 1234
1150 3 2 3 3 1210 1209 1257 1237
1151 3 2 3 3 1223 1256 1257 1209
1152 3 2 3 3 1292 1255 1215 1273
1153 3 2 3 3 1251 1264 1273 1215
1154 3 2 3 3 1258 1265 1274 1216
1155 3 2 3 3 1254 1216 1274 1288
1156 3 2 3 3 1192 1217 1262 1233
1157 3 2 3 3 1276 1234 1222 1245
1158 3 2 3 3 1261 1239 1229 1260
1159 3 2 3 3 1259 1294 1271 1230
1160 3 2 3 3 1259 1231 1270 1294
1161 3 2 3 3 1222 1232 1275 1245
1162 3 2 3 3 1237 1257 1275 1232
1163 3 2 3 3 1221 1236 1277 1246
1164 3 2 3 3 1204 1255 1277 1236
1165 3 2 3 3 1301 1270 1241 1281
1166 3 2 3 3 1258 1244 1271 1265
1167 3 2 3 3 1293 1285 1245 1275
1168 3 2 3 3 1276 1245 1285 1302
1169 3 2 3 3 1262 1291 1263 1248
1170 3 2 3 3 1296 1250 1266 1295
1171 3 2 3 3 1293 1275 1257 1256
1172 3 2 3 3 1293 1256 1272 1290
1173 3 2 3 3 1248 1263 1287 1279
1174 3 2 3 3 1291 1306 1297 1263
1175 3 2 3 3 1269 1283 1295 1266
1176 3 2 3 3 1280 1267 1296 1284
1177 3 2 3 3 1289 1294 1270 1301
1178 3 2 3 3 1265 1271 1294 1289
1179 3 2 3 3 1246 1282 1290 1272
1180 3 2 3 3 1311 1288 1274 1304
1181 3 2 3 3 1265 1289 1304 1274
1182 3 2 3 3 1312 1305 1290 1282
1183 3 2 3 3 1280 1284 1306 1291
1184 3 2 3 3 1295 1300 1284 1296
1185 3 2 3 3 1314 1306 1284 1300
1186 3 2 3 3 1305 1309 1302 1285
1187 3 2 3 3 1263 1297 1313 1287
1188 3 2 3 3 1286 1287 1313 1299
1189 3 2 3 3 1314 1308 1297 1306
1190 3 2 3 3 1319 1313 1297 1308
1191 3 2 3 3 1307 1299 1313 1319
1192 3 2 3 3 1289 1301 1315 1304
1193 3 2 3 3 1321 1312 1310 1317
1194 3 2 3 3 969 1031 917 918
1195 3 2 3 3 1133 1156 1066 1111
1196 3 2 3 3 1311 1304 1315 1318
1197 3 2 3 3 1163 1224 1187 1175
1198 3 2 3 3 942 977 1021 941
1199 3 2 3 3 961 978 1022 960
1200 3 2 3 3 1308 1314 1322 1316
1201 3 2 4 4 1759 1764 1757 1763
1202 3 2 4 4 1757 1764 1762 1758
1203 3 2 4 4 1574 1654 1605 1597
1204 3 2 4 4 1684 1666 1690 1709
1205 3 2 4 4 1757 1758 1760 1749
1206 3 2 4 4 1565 1611 1589 1530
1207 3 2 4 4 1382 1462 1421 1381
1208 3 2 4 4 1401 1463 1422 1400
1209 3 2 4 4 1460 1508 1546 1511
1210 3 2 4 4 1497 1539 1577 1547
1211 3 2 4 4 1536 1547 1577 1579
1212 3 2 4 4 1688 1702 1701 1708
1213 3 2 4 4 1424 1465 1510 1450
1214 3 2 4 4 1604 1638 1661 1665
1215 3 2 4 4 1740 1714 1705 1727
1216 3 2 4 4 1751 1748 1760 1758
1217 3 2 4 4 1498 1510 1465 1409
1218 3 2 4 4 1665 1661 1684 1692
1219 3 2 4 4 1709 1705 1692 1684
1220 3 2 4 4 1764 1759 1756 1761
1221 3 2 4 4 1423 1489 1542 1499
1222 3 2 4 4 1582 1537 1607 1614
1223 3 2 4 4 1498 1553 1578 1543
1224 3 2 4 4 1596 1543 1604 1616
1225 3 2 4 4 1612 1600 1666 1637
1226 3 2 4 4 1361 1362 1416 1461
1227 3 2 4 4 1668 1685 1699 1667
1228 3 2 4 4 1356 1357 1432 1430
1229 3 2 4 4 1362 1363 1476 1416
1230 3 2 4 4 1426 1364 1365 1444
1231 3 2 4 4 1377 1378 1407 1433
1232 3 2 4 4 1418 1383 1384 1428
1233 3 2 4 4 1396 1397 1409 1465
1234 3 2 4 4 1419 1402 1403 1429
1235 3 2 4 4 1627 1655 1633 1565
1236 3 2 4 4 1532 1575 1639 1600
1237 3 2 4 4 1630 1660 1646 1610
1238 3 2 4 4 1631 1667 1699 1657
1239 3 2 4 4 1659 1693 1707 1691
1240 3 2 4 4 1710 1695 1729 1724
1241 3 2 4 4 1741 1736 1724 1739
1242 3 2 4 4 1389 1390 1479 1415
1243 3 2 4 4 1418 1428 1439 1459
1244 3 2 4 4 1419 1429 1440 1460
1245 3 2 4 4 1542 1581 1562 1499
1246 3 2 4 4 1577 1568 1617 1579
1247 3 2 4 4 1626 1581 1580 1636
1248 3 2 4 4 1655 1688 1658 1633
1249 3 2 4 4 1628 1665 1692 1656
1250 3 2 4 4 1740 1748 1733 1714
1251 3 2 4 4 1358 1472 1432 1357
1252 3 2 4 4 1434 1376 1377 1433
1253 3 2 4 4 1424 1395 1396 1465
1254 3 2 4 4 1433 1513 1451 1434
1255 3 2 4 4 1408 1468 1517 1456
1256 3 2 4 4 1407 1467 1500 1466
1257 3 2 4 4 1763 1739 1752 1759
1258 3 2 4 4 1351 1352 1441 1431
1259 3 2 4 4 1352 1353 1442 1441
1260 3 2 4 4 1359 1360 1443 1410
1261 3 2 4 4 1370 1371 1477 1414
1262 3 2 4 4 1376 1434 1446 1375
1263 3 2 4 4 1407 1378 1379 1467
1264 3 2 4 4 1395 1424 1435 1394
1265 3 2 4 4 1409 1397 1398 1469
1266 3 2 4 4 1507 1455 1410 1443
1267 3 2 4 4 1430 1432 1504 1452
1268 3 2 4 4 1407 1466 1513 1433
1269 3 2 4 4 1459 1439 1470 1497
1270 3 2 4 4 1460 1440 1471 1508
1271 3 2 4 4 1426 1444 1473 1464
1272 3 2 4 4 1582 1529 1451 1513
1273 3 2 4 4 1540 1530 1523 1455
1274 3 2 4 4 1426 1464 1526 1476
1275 3 2 4 4 1523 1530 1589 1504
1276 3 2 4 4 1452 1504 1589 1551
1277 3 2 4 4 1455 1507 1597 1540
1278 3 2 4 4 1530 1540 1627 1565
1279 3 2 4 4 1529 1582 1614 1563
1280 3 2 4 4 1693 1659 1602 1641
1281 3 2 4 4 1607 1667 1631 1614
1282 3 2 4 4 1345 1344 1470 1439
1283 3 2 4 4 1439 1428 1346 1345
1284 3 2 4 4 1327 1346 1428 1384
1285 3 2 4 4 1440 1429 1347 1348
1286 3 2 4 4 1328 1347 1429 1403
1287 3 2 4 4 1348 1349 1471 1440
1288 3 2 4 4 1461 1443 1360 1361
1289 3 2 4 4 1363 1364 1426 1476
1290 3 2 4 4 1329 1366 1444 1365
1291 3 2 4 4 1366 1367 1473 1444
1292 3 2 4 4 1387 1420 1478 1386
1293 3 2 4 4 1387 1388 1475 1420
1294 3 2 4 4 1391 1448 1479 1390
1295 3 2 4 4 1468 1408 1392 1393
1296 3 2 4 4 1391 1392 1408 1448
1297 3 2 4 4 1488 1405 1509 1541
1298 3 2 4 4 1455 1523 1472 1410
1299 3 2 4 4 1497 1470 1412 1539
1300 3 2 4 4 1487 1493 1539 1412
1301 3 2 4 4 1476 1526 1495 1416
1302 3 2 4 4 1478 1420 1544 1515
1303 3 2 4 4 1475 1516 1544 1420
1304 3 2 4 4 1462 1512 1458 1421
1305 3 2 4 4 1487 1425 1520 1493
1306 3 2 4 4 1405 1430 1452 1509
1307 3 2 4 4 1504 1432 1472 1523
1308 3 2 4 4 1424 1450 1501 1435
1309 3 2 4 4 1517 1468 1435 1501
1310 3 2 4 4 1434 1451 1503 1446
1311 3 2 4 4 1421 1458 1514 1447
1312 3 2 4 4 1500 1467 1447 1514
1313 3 2 4 4 1408 1456 1505 1448
1314 3 2 4 4 1422 1457 1506 1449
1315 3 2 4 4 1549 1501 1450 1527
1316 3 2 4 4 1510 1596 1527 1450
1317 3 2 4 4 1503 1451 1529 1559
1318 3 2 4 4 1509 1452 1551 1576
1319 3 2 4 4 1511 1546 1535 1457
1320 3 2 4 4 1548 1514 1458 1536
1321 3 2 4 4 1512 1547 1536 1458
1322 3 2 4 4 1416 1495 1552 1461
1323 3 2 4 4 1443 1461 1552 1507
1324 3 2 4 4 1423 1499 1464 1473
1325 3 2 4 4 1586 1537 1466 1500
1326 3 2 4 4 1409 1469 1553 1498
1327 3 2 4 4 1449 1506 1553 1469
1328 3 2 4 4 1413 1480 1508 1471
1329 3 2 4 4 1446 1503 1519 1474
1330 3 2 4 4 1508 1480 1555 1546
1331 3 2 4 4 1520 1531 1568 1493
1332 3 2 4 4 1577 1539 1493 1568
1333 3 2 4 4 1581 1542 1494 1580
1334 3 2 4 4 1545 1566 1580 1494
1335 3 2 4 4 1459 1497 1547 1512
1336 3 2 4 4 1464 1499 1562 1526
1337 3 2 4 4 1514 1548 1586 1500
1338 3 2 4 4 1519 1503 1559 1584
1339 3 2 4 4 1457 1535 1567 1506
1340 3 2 4 4 1578 1553 1506 1567
1341 3 2 4 4 1541 1509 1576 1619
1342 3 2 4 4 1498 1543 1596 1510
1343 3 2 4 4 1466 1537 1582 1513
1344 3 2 4 4 1456 1517 1590 1533
1345 3 2 4 4 1501 1549 1590 1517
1346 3 2 4 4 1453 1534 1583 1518
1347 3 2 4 4 1545 1518 1583 1566
1348 3 2 4 4 1453 1519 1584 1534
1349 3 2 4 4 1520 1524 1593 1531
1350 3 2 4 4 1495 1526 1562 1561
1351 3 2 4 4 1564 1527 1596 1616
1352 3 2 4 4 1568 1531 1606 1617
1353 3 2 4 4 1593 1625 1606 1531
1354 3 2 4 4 1584 1641 1602 1534
1355 3 2 4 4 1597 1605 1627 1540
1356 3 2 4 4 1525 1541 1619 1575
1357 3 2 4 4 1638 1604 1543 1578
1358 3 2 4 4 1536 1579 1608 1548
1359 3 2 4 4 1586 1548 1608 1647
1360 3 2 4 4 1527 1564 1622 1549
1361 3 2 4 4 1495 1561 1574 1552
1362 3 2 4 4 1529 1563 1615 1559
1363 3 2 4 4 1581 1626 1561 1562
1364 3 2 4 4 1622 1564 1645 1677
1365 3 2 4 4 1561 1626 1654 1574
1366 3 2 4 4 1608 1579 1617 1642
1367 3 2 4 4 1566 1609 1636 1580
1368 3 2 4 4 1534 1602 1640 1583
1369 3 2 4 4 1566 1583 1640 1609
1370 3 2 4 4 1559 1615 1641 1584
1371 3 2 4 4 1537 1586 1647 1607
1372 3 2 4 4 1533 1590 1648 1599
1373 3 2 4 4 1549 1622 1648 1590
1374 3 2 4 4 1617 1606 1632 1642
1375 3 2 4 4 1668 1667 1607 1647
1376 3 2 4 4 1642 1668 1647 1608
1377 3 2 4 4 1640 1670 1680 1609
1378 3 2 4 4 1636 1609 1680 1681
1379 3 2 4 4 1610 1611 1674 1630
1380 3 2 4 4 1565 1633 1674 1611
1381 3 2 4 4 1563 1614 1631 1643
1382 3 2 4 4 1563 1643 1669 1615
1383 3 2 4 4 1641 1615 1669 1693
1384 3 2 4 4 1598 1618 1675 1629
1385 3 2 4 4 1575 1619 1676 1639
1386 3 2 4 4 1576 1646 1676 1619
1387 3 2 4 4 1606 1625 1671 1632
1388 3 2 4 4 1634 1700 1671 1625
1389 3 2 4 4 1605 1679 1655 1627
1390 3 2 4 4 1598 1629 1672 1653
1391 3 2 4 4 1674 1703 1689 1630
1392 3 2 4 4 1642 1632 1685 1668
1393 3 2 4 4 1626 1636 1681 1654
1394 3 2 4 4 1666 1684 1661 1637
1395 3 2 4 4 1600 1639 1690 1666
1396 3 2 4 4 1683 1690 1639 1676
1397 3 2 4 4 1602 1659 1670 1640
1398 3 2 4 4 1660 1683 1676 1646
1399 3 2 4 4 1622 1677 1662 1648
1400 3 2 4 4 1599 1648 1662 1694
1401 3 2 4 4 1605 1654 1681 1679
1402 3 2 4 4 1679 1702 1688 1655
1403 3 2 4 4 1670 1659 1691 1701
1404 3 2 4 4 1630 1689 1720 1660
1405 3 2 4 4 1707 1693 1669 1710
1406 3 2 4 4 1643 1695 1710 1669
1407 3 2 4 4 1679 1681 1680 1702
1408 3 2 4 4 1690 1683 1719 1709
1409 3 2 4 4 1660 1720 1719 1683
1410 3 2 4 4 1662 1687 1713 1694
1411 3 2 4 4 1701 1691 1737 1708
1412 3 2 4 4 1718 1696 1733 1744
1413 3 2 4 4 1705 1709 1719 1727
1414 3 2 4 4 1687 1718 1744 1723
1415 3 2 4 4 1727 1719 1720 1728
1416 3 2 4 4 1744 1751 1753 1723
1417 3 2 4 4 1724 1729 1752 1739
1418 3 2 4 4 1726 1734 1731 1746
1419 3 2 4 4 1748 1751 1744 1733
1420 3 2 4 4 1746 1753 1762 1750
1421 3 2 4 4 1764 1761 1750 1762
1422 3 2 4 4 1430 1405 1355 1356
1423 3 2 4 4 1467 1379 1380 1447
1424 3 2 4 4 1475 1388 1389 1415
1425 3 2 4 4 1435 1468 1393 1394
1426 3 2 4 4 1469 1398 1399 1449
1427 3 2 4 4 1485 1404 1550 1490
1428 3 2 4 4 1484 1502 1550 1404
1429 3 2 4 4 1474 1519 1453 1406
1430 3 2 4 4 1545 1494 1414 1477
1431 3 2 4 4 1542 1489 1414 1494
1432 3 2 4 4 1463 1511 1457 1422
1433 3 2 4 4 1413 1431 1521 1480
1434 3 2 4 4 1445 1518 1545 1477
1435 3 2 4 4 1550 1573 1620 1490
1436 3 2 4 4 1456 1533 1569 1505
1437 3 2 4 4 1502 1522 1592 1528
1438 3 2 4 4 1502 1528 1573 1550
1439 3 2 4 4 1618 1598 1573 1528
1440 3 2 4 4 1644 1569 1533 1599
1441 3 2 4 4 1546 1555 1585 1535
1442 3 2 4 4 1646 1576 1551 1610
1443 3 2 4 4 1490 1620 1572 1560
1444 3 2 4 4 1573 1598 1653 1620
1445 3 2 4 4 1644 1599 1694 1664
1446 3 2 4 4 1631 1657 1695 1643
1447 3 2 4 4 1708 1721 1658 1688
1448 3 2 4 4 1694 1713 1697 1664
1449 3 2 4 4 1632 1671 1712 1685
1450 3 2 4 4 1743 1722 1682 1717
1451 3 2 4 4 1658 1721 1732 1703
1452 3 2 4 4 1761 1756 1742 1722
1453 3 2 4 4 1739 1763 1755 1741
1454 3 2 4 4 1722 1743 1750 1761
1455 3 2 4 4 1484 1337 1325 1436
1456 3 2 4 4 1470 1344 1326 1412
1457 3 2 4 4 1324 1385 1437 1330
1458 3 2 4 4 1331 1330 1437 1427
1459 3 2 4 4 1333 1332 1481 1417
1460 3 2 4 4 1331 1427 1481 1332
1461 3 2 4 4 1335 1334 1482 1411
1462 3 2 4 4 1333 1417 1482 1334
1463 3 2 4 4 1335 1411 1483 1336
1464 3 2 4 4 1325 1336 1483 1436
1465 3 2 4 4 1485 1339 1338 1404
1466 3 2 4 4 1337 1484 1404 1338
1467 3 2 4 4 1339 1485 1438 1340
1468 3 2 4 4 1342 1341 1486 1425
1469 3 2 4 4 1340 1438 1486 1341
1470 3 2 4 4 1326 1343 1487 1412
1471 3 2 4 4 1342 1425 1487 1343
1472 3 2 4 4 1471 1349 1350 1413
1473 3 2 4 4 1350 1351 1431 1413
1474 3 2 4 4 1354 1488 1442 1353
1475 3 2 4 4 1488 1354 1355 1405
1476 3 2 4 4 1473 1367 1368 1423
1477 3 2 4 4 1370 1414 1489 1369
1478 3 2 4 4 1368 1369 1489 1423
1479 3 2 4 4 1477 1371 1372 1445
1480 3 2 4 4 1474 1406 1373 1374
1481 3 2 4 4 1372 1373 1406 1445
1482 3 2 4 4 1446 1474 1374 1375
1483 3 2 4 4 1447 1380 1381 1421
1484 3 2 4 4 1385 1386 1478 1437
1485 3 2 4 4 1449 1399 1400 1422
1486 3 2 4 4 1518 1445 1406 1453
1487 3 2 4 4 1516 1475 1415 1492
1488 3 2 4 4 1512 1462 1418 1459
1489 3 2 4 4 1511 1463 1419 1460
1490 3 2 4 4 1437 1478 1515 1427
1491 3 2 4 4 1441 1454 1521 1431
1492 3 2 4 4 1484 1436 1522 1502
1493 3 2 4 4 1560 1438 1485 1490
1494 3 2 4 4 1441 1442 1525 1454
1495 3 2 4 4 1541 1525 1442 1488
1496 3 2 4 4 1479 1448 1505 1554
1497 3 2 4 4 1575 1532 1454 1525
1498 3 2 4 4 1415 1479 1554 1492
1499 3 2 4 4 1417 1481 1556 1496
1500 3 2 4 4 1427 1515 1556 1481
1501 3 2 4 4 1411 1482 1557 1491
1502 3 2 4 4 1417 1496 1557 1482
1503 3 2 4 4 1411 1491 1558 1483
1504 3 2 4 4 1436 1483 1558 1522
1505 3 2 4 4 1425 1486 1524 1520
1506 3 2 4 4 1438 1560 1524 1486
1507 3 2 4 4 1558 1491 1587 1570
1508 3 2 4 4 1492 1538 1571 1516
1509 3 2 4 4 1454 1532 1591 1521
1510 3 2 4 4 1480 1521 1591 1555
1511 3 2 4 4 1558 1570 1592 1522
1512 3 2 4 4 1600 1612 1591 1532
1513 3 2 4 4 1492 1554 1594 1538
1514 3 2 4 4 1594 1603 1621 1538
1515 3 2 4 4 1515 1544 1595 1556
1516 3 2 4 4 1516 1571 1595 1544
1517 3 2 4 4 1611 1610 1551 1589
1518 3 2 4 4 1505 1569 1594 1554
1519 3 2 4 4 1496 1556 1595 1588
1520 3 2 4 4 1491 1557 1623 1587
1521 3 2 4 4 1496 1588 1623 1557
1522 3 2 4 4 1524 1560 1572 1593
1523 3 2 4 4 1535 1585 1613 1567
1524 3 2 4 4 1578 1567 1613 1638
1525 3 2 4 4 1594 1569 1644 1603
1526 3 2 4 4 1595 1571 1624 1588
1527 3 2 4 4 1538 1621 1624 1571
1528 3 2 4 4 1634 1625 1593 1572
1529 3 2 4 4 1555 1591 1612 1585
1530 3 2 4 4 1637 1613 1585 1612
1531 3 2 4 4 1570 1587 1635 1601
1532 3 2 4 4 1570 1601 1649 1592
1533 3 2 4 4 1528 1592 1649 1618
1534 3 2 4 4 1649 1601 1673 1663
1535 3 2 4 4 1637 1661 1638 1613
1536 3 2 4 4 1564 1616 1628 1645
1537 3 2 4 4 1572 1620 1653 1634
1538 3 2 4 4 1603 1650 1651 1621
1539 3 2 4 4 1588 1624 1652 1623
1540 3 2 4 4 1587 1623 1652 1635
1541 3 2 4 4 1621 1651 1652 1624
1542 3 2 4 4 1672 1629 1682 1711
1543 3 2 4 4 1675 1717 1682 1629
1544 3 2 4 4 1700 1634 1653 1672
1545 3 2 4 4 1652 1651 1678 1635
1546 3 2 4 4 1601 1635 1678 1673
1547 3 2 4 4 1603 1644 1664 1650
1548 3 2 4 4 1628 1656 1696 1645
1549 3 2 4 4 1618 1649 1663 1675
1550 3 2 4 4 1651 1650 1698 1678
1551 3 2 4 4 1664 1697 1698 1650
1552 3 2 4 4 1733 1696 1656 1714
1553 3 2 4 4 1692 1705 1714 1656
1554 3 2 4 4 1699 1706 1715 1657
1555 3 2 4 4 1695 1657 1715 1729
1556 3 2 4 4 1633 1658 1703 1674
1557 3 2 4 4 1717 1675 1663 1686
1558 3 2 4 4 1702 1680 1670 1701
1559 3 2 4 4 1700 1735 1712 1671
1560 3 2 4 4 1700 1672 1711 1735
1561 3 2 4 4 1663 1673 1716 1686
1562 3 2 4 4 1678 1698 1716 1673
1563 3 2 4 4 1662 1677 1718 1687
1564 3 2 4 4 1645 1696 1718 1677
1565 3 2 4 4 1742 1711 1682 1722
1566 3 2 4 4 1699 1685 1712 1706
1567 3 2 4 4 1734 1726 1686 1716
1568 3 2 4 4 1717 1686 1726 1743
1569 3 2 4 4 1703 1732 1704 1689
1570 3 2 4 4 1737 1691 1707 1736
1571 3 2 4 4 1734 1716 1698 1697
1572 3 2 4 4 1734 1697 1713 1731
1573 3 2 4 4 1689 1704 1728 1720
1574 3 2 4 4 1732 1747 1738 1704
1575 3 2 4 4 1710 1724 1736 1707
1576 3 2 4 4 1721 1708 1737 1725
1577 3 2 4 4 1730 1735 1711 1742
1578 3 2 4 4 1706 1712 1735 1730
1579 3 2 4 4 1687 1723 1731 1713
1580 3 2 4 4 1752 1729 1715 1745
1581 3 2 4 4 1706 1730 1745 1715
1582 3 2 4 4 1753 1746 1731 1723
1583 3 2 4 4 1721 1725 1747 1732
1584 3 2 4 4 1736 1741 1725 1737
1585 3 2 4 4 1755 1747 1725 1741
1586 3 2 4 4 1746 1750 1743 1726
1587 3 2 4 4 1704 1738 1754 1728
1588 3 2 4 4 1727 1728 1754 1740
1589 3 2 4 4 1755 1749 1738 1747
1590 3 2 4 4 1760 1754 1738 1749
1591 3 2 4 4 1748 1740 1754 1760
1592 3 2 4 4 1730 1742 1756 1745
1593 3 2 4 4 1762 1753 1751 1758
1594 3 2 4 4 1410 1472 1358 1359
1595 3 2 4 4 1574 1597 1507 1552
1596 3 2 4 4 1752 1745 1756 1759
1597 3 2 4 4 1604 1665 1628 1616
1598 3 2 4 4 1383 1418 1462 1382
1599 3 2 4 4 1402 1419 1463 1401
1600 3 2 4 4 1749 1755 1763 1757
$EndElements
