$MeshFormat
2.2 0 8
$EndMeshFormat
$Nodes
1764
1 100 100 0
2 0 100 0
3 0 20 0
4 0 0 0
5 100 0 0
6 50 20 0
7 95 100 0
8 90 100 0
9 85 100 0
10 80 100 0
11 75 100 0
12 70 100 0
13 65 100 0
14 60 100 0
15 55 100 0
16 50 100 0
17 45 100 0
18 40 100 0
19 35 100 0
20 30 100 0
21 25 100 0
22 20 100 0
23 15 100 0
24 10 100 0
25 5 100 0
26 0 95 0
27 0 90 0
28 0 85 0
29 0 80 0
30 0 75 0
31 0 70 0
32 0 65 0
33 0 60 0
34 0 55 0
35 0 50 0
36 0 45 0
37 0 40 0
38 0 35 0
39 0 30 0
40 0 25 0
41 0 15 0
42 0 10 0
43 0 5 0
44 5 0 0
45 10 0 0
46 15 0 0
47 20 0 0
48 25 0 0
49 30 0 0
50 35 0 0
51 40 0 0
52 45 0 0
53 50 0 0
54 55 0 0
55 60 0 0
56 65 0 0
57 70 0 0
58 75 0 0
59 80 0 0
60 85 0 0
61 90 0 0
62 95 0 0
63 100 5 0
64 100 10 0
65 100 15 0
66 100 20 0
67 100 25 0
68 100 30 0
69 100 35 0
70 100 40 0
71 100 45 0
72 100 50 0
73 100 55 0
74 100 60 0
75 100 65 0
76 100 70 0
77 100 75 0
78 100 80 0
79 100 85 0
80 100 90 0
81 100 95 0
82 45 20 0
83 40 20 0
84 35 20 0
85 30 20 0
86 25 20 0
87 20 20 0
88 15 20 0
89 10 20 0
90 5 20 0
91 40 95 0
92 95 30 0
93 95 55 0
94 65 95 0
95 5 60 0
96 95 70 0
97 80 5 0
98 20 95 0
99 5 45 0
100 65 5 0
101 95 80 0
102 15 5 0
103 30 5 0
104 55 5 0
105 45 5 0
106 75 95 0
107 95 10 0
108 5 90 0
109 5 80 0
110 85 95 0
111 5 35 0
112 95 40 0
113 90 95 0
114 5 30 0
115 5 15 0
116 5 5 0
117 10 95 0
118 90 5 0
119 95 90 0
120 45 95 0
121 30 95 0
122 50 95 0
123 40 5 0
124 95 15 0
125 95 20 0
126 95 45 0
127 95 60 0
128 5 95 0
129 5 75 0
130 5 70 0
131 5 55 0
132 5 25 0
133 25 5 0
134 75 5 0
135 95 5 0
136 95 95 0
137 55 95 0
138 40 90 0
139 90 60 0
140 90 40 0
141 10 60 0
142 80 10 0
143 10 80 0
144 10 90 0
145 90 10 0
146 30 10 0
147 50 90 0
148 10 35 0
149 10 15 0
150 45 10 0
151 95 75 0
152 90 15 0
153 95 50 0
154 15 95 0
155 85 5 0
156 85 90 0
157 90 90 0
158 25 95 0
159 35 5 0
160 95 35 0
161 60 95 0
162 35 95 0
163 20 5 0
164 60 5 0
165 95 25 0
166 70 95 0
167 10 5 0
168 80 95 0
169 5 85 0
170 5 65 0
171 5 50 0
172 5 40 0
173 5 10 0
174 50 5 0
175 70 5 0
176 95 65 0
177 95 85 0
178 10 30 0
179 10 25 0
180 10 75 0
181 65 90 0
182 15 80 0
183 65 10 0
184 90 70 0
185 25 90 0
186 20 10 0
187 90 25 0
188 90 35 0
189 35 10 0
190 15 35 0
191 10 50 0
192 10 70 0
193 90 65 0
194 10 85 0
195 90 45 0
196 35 90 0
197 85 85 0
198 90 20 0
199 45 90 0
200 15 30 0
201 15 15 0
202 15 25 0
203 90 55 0
204 15 90 0
205 90 80 0
206 15 10 0
207 40 10 0
208 25 10 0
209 75 10 0
210 55 90 0
211 85 10 0
212 70 90 0
213 10 45 0
214 50 10 0
215 60 10 0
216 80 90 0
217 10 55 0
218 10 40 0
219 10 10 0
220 10 65 0
221 90 85 0
222 55 85 0
223 15 60 0
224 85 40 0
225 85 60 0
226 35 85 0
227 85 20 0
228 65 85 0
229 80 85 0
230 65 15 0
231 20 35 0
232 15 50 0
233 85 65 0
234 30 90 0
235 15 85 0
236 90 30 0
237 80 15 0
238 85 15 0
239 20 15 0
240 45 85 0
241 60 90 0
242 35 15 0
243 20 25 0
244 30 15 0
245 90 50 0
246 15 75 0
247 85 80 0
248 45 15 0
249 90 75 0
250 15 70 0
251 20 90 0
252 55 10 0
253 75 90 0
254 70 10 0
255 15 45 0
256 15 40 0
257 50 25 0
258 80 60 0
259 20 80 0
260 80 20 0
261 40 25 0
262 80 80 0
263 30 85 0
264 85 70 0
265 85 25 0
266 85 35 0
267 85 45 0
268 85 55 0
269 60 85 0
270 40 85 0
271 40 15 0
272 25 15 0
273 20 85 0
274 15 55 0
275 20 75 0
276 70 85 0
277 75 85 0
278 50 15 0
279 35 25 0
280 30 25 0
281 25 25 0
282 20 30 0
283 75 15 0
284 60 15 0
285 20 45 0
286 20 40 0
287 50 85 0
288 70 15 0
289 15 65 0
290 85 75 0
291 40.0000541590464 80.000036312641 0
292 80 45 0
293 55.0002648136401 80.0001865868443 0
294 65.0000346376928 80.0000322581199 0
295 40 30 0
296 25 40 0
297 80 55 0
298 80 25 0
299 75 80 0
300 70 20 0
301 20 65 0
302 25 80 0
303 25 85 0
304 20 60 0
305 75 20 0
306 65 20 0
307 35 30 0
308 55 20 0
309 45 25 0
310 80 40 0
311 35.0000067698808 80.0000045390801 0
312 30 30 0
313 25 35 0
314 20 50 0
315 80 65 0
316 85 30 0
317 45.0002369458281 80.0001588678046 0
318 85 50 0
319 20 70 0
320 55 15 0
321 25 30 0
322 80 70 0
323 80 75 0
324 75.0000579899692 45.0000940580872 0
325 40.0042463376448 75.0002182816074 0
326 70 25 0
327 25.0000093727107 69.9999967130966 0
328 75.0003366423207 60.0004824841158 0
329 80 30 0
330 55 25 0
331 40 35 0
332 80.0000036243731 50.0000058786305 0
333 30.0000008462351 80.000000567385 0
334 80 35 0
335 70.0000043297116 80.000004032265 0
336 75.0000328429355 70.0000347761916 0
337 50.0004147537353 80.0002792139979 0
338 25.0000012244785 74.9999996245986 0
339 75 25 0
340 25.0000407148672 64.9999804523702 0
341 60.0001608658486 80.0001281845013 0
342 60 20 0
343 75.0000043759739 75.0000045990405 0
344 45 30 0
345 20 55 0
346 25 45 0
347 35 35 0
348 30 40 0
349 30 35 0
350 45 35 0
351 30.0000584324248 44.9999570256918 0
352 55.0139033216285 75.0078448782582 0
353 75.0005703036084 55.0008431793472 0
354 30.0001512311227 74.9999475118039 0
355 65 25 0
356 75.0003877642525 50.0005726545842 0
357 35.0015861544787 74.9998414864777 0
358 70.0029617492731 70.0033414732515 0
359 65.0033961665495 75.0029504109466 0
360 75.0000010298418 30.0000029358211 0
361 30.0007545237967 69.999675687558 0
362 25.0000099037852 49.9999930578415 0
363 60 25 0
364 70.0012459302197 75.0012352587181 0
365 25.0000623095416 59.9999648874586 0
366 55 30 0
367 50 30 0
368 75.0000297311806 40.0000687233708 0
369 45.0112372151692 75.002650531759 0
370 40.0001446806966 40.0006188614121 0
371 35.0000487211167 40.0001673677878 0
372 75.0003367818452 65.0003995092148 0
373 70.004243161217 50.009162746233 0
374 45.0005468359891 40.0026400475317 0
375 40.0240224674792 70.0008840979192 0
376 65.0189934063961 70.0187599508894 0
377 30.0004484635321 49.9996717596037 0
378 70.0015603239765 45.0038975210186 0
379 35.007505916862 69.9990081943552 0
380 75.0000141435461 35.0000383156096 0
381 50.0184270616905 75.0073710211686 0
382 70.0000030723855 30.0000086333453 0
383 25.0000703570108 54.9999531526492 0
384 50.0000554106816 35.0002687814835 0
385 35.0007027066009 45.0003392023988 0
386 65.00000141389 30.0000040149892 0
387 60.0000001767363 30.0000005018737 0
388 30.0017027714706 64.9991598100182 0
389 70.0090969605418 60.0141870387798 0
390 60.0113063527774 75.0082201055777 0
391 70.0090451410327 65.0116697235552 0
392 65.0060730115397 45.016354728958 0
393 35.0039005882776 49.9998419017908 0
394 50.0014629982518 40.0069570496306 0
395 65.0000536526048 35.0001566700754 0
396 55.0795879837926 70.0504817611768 0
397 45.0588286146912 70.0139555290699 0
398 60.0551980374304 70.0454385312729 0
399 70.0006544740513 40.0017333727219 0
400 35.0136378886048 64.9970649989081 0
401 70.0001134369633 35.0003073661204 0
402 30.0023314723576 59.9988053378383 0
403 45.0083703087536 45.0195296016322 0
404 40.0043314818722 45.0062585106806 0
405 30.001673339584 54.9990134882463 0
406 60.000064082707 35.0002298463307 0
407 55.0001585486741 35.0007334330497 0
408 65.0536746844407 60.0781056258523 0
409 65.0484519176576 65.0564582426282 0
410 70.0107680512333 55.0192745491661 0
411 50.0156870193399 45.0456617310089 0
412 35.0159579322409 59.9963322567248 0
413 65.0212768278154 50.0485107915058 0
414 65.0015058343111 40.0045044372968 0
415 35.0118124182779 54.9980987750375 0
416 55.1836996215593 65.1439810909824 0
417 40.0536494428754 65.0037964384099 0
418 60.0022114300132 40.0081266400906 0
419 40.0171754091195 50.0125412971991 0
420 60.1429292528586 60.1830954862746 0
421 55.0032433005938 40.0124640876933 0
422 50.0870147866417 70.0383104300528 0
423 60.1140866784422 65.1138743319544 0
424 65.0441479505128 55.0808602544906 0
425 55.211527828085 60.2211825815934 0
426 40.0407232674495 55.0147112168906 0
427 50.1724231731502 65.0929866833111 0
428 60.0152894956521 45.0442652873533 0
429 60.0971816513192 55.1701185387295 0
430 55.0208187930965 45.0624977957139 0
431 40.060606023984 60.0118889672886 0
432 45.1161438572409 65.0409978844025 0
433 50.0619566375995 50.1211415627665 0
434 45.042260782434 50.0566917872662 0
435 50.1883446948907 60.1536002137832 0
436 45.1172152402009 60.0674940742051 0
437 55.0699982640108 50.1492999624221 0
438 50.1276197031385 55.1651646496712 0
439 55.1318943568003 55.1969436868318 0
440 45.0833069745084 55.0742822686842 0
441 60.0491403203864 50.1002314756629 0
442 0 100 0
443 0 20 0
444 0 0 0
445 -100 100 0
446 -100 0 0
447 -50 20 0
448 0 95 0
449 0 90 0
450 0 85 0
451 0 80 0
452 0 75 0
453 0 70 0
454 0 65 0
455 0 60 0
456 0 55 0
457 0 50 0
458 0 45 0
459 0 40 0
460 0 35 0
461 0 30 0
462 0 25 0
463 0 15 0
464 0 10 0
465 0 5 0
466 -100 95 0
467 -100 90 0
468 -100 85 0
469 -100 80 0
470 -100 75 0
471 -100 70 0
472 -100 65 0
473 -100 60 0
474 -100 55 0
475 -100 50 0
476 -100 45 0
477 -100 40 0
478 -100 35 0
479 -100 30 0
480 -100 25 0
481 -100 20 0
482 -100 15 0
483 -100 10 0
484 -100 5 0
485 -95 0 0
486 -90 0 0
487 -85 0 0
488 -80 0 0
489 -75 0 0
490 -70 0 0
491 -65 0 0
492 -60 0 0
493 -55 0 0
494 -50 0 0
495 -45 0 0
496 -40 0 0
497 -35 0 0
498 -30 0 0
499 -25 0 0
500 -20 0 0
501 -15 0 0
502 -10 0 0
503 -5 0 0
504 -5 100 0
505 -10 100 0
506 -15 100 0
507 -20 100 0
508 -25 100 0
509 -30 100 0
510 -35 100 0
511 -40 100 0
512 -45 100 0
513 -50 100 0
514 -55 100 0
515 -60 100 0
516 -65 100 0
517 -70 100 0
518 -75 100 0
519 -80 100 0
520 -85 100 0
521 -90 100 0
522 -95 100 0
523 -5 20 0
524 -10 20 0
525 -15 20 0
526 -20 20 0
527 -25 20 0
528 -30 20 0
529 -35 20 0
530 -40 20 0
531 -45 20 0
532 -60 95 0
533 -95 40 0
534 -40 95 0
535 -5 55 0
536 -95 75 0
537 -5 70 0
538 -25 95 0
539 -70 5 0
540 -95 25 0
541 -85 95 0
542 -5 80 0
543 -80 5 0
544 -10 5 0
545 -35 5 0
546 -5 35 0
547 -20 5 0
548 -55 5 0
549 -95 15 0
550 -15 95 0
551 -95 60 0
552 -95 90 0
553 -95 5 0
554 -5 90 0
555 -5 25 0
556 -5 10 0
557 -95 50 0
558 -95 95 0
559 -55 95 0
560 -45 5 0
561 -70 95 0
562 -80 95 0
563 -5 15 0
564 -5 5 0
565 -50 95 0
566 -5 95 0
567 -5 60 0
568 -5 45 0
569 -95 85 0
570 -95 70 0
571 -95 35 0
572 -85 5 0
573 -60 5 0
574 -25 5 0
575 -35 95 0
576 -55 90 0
577 -10 55 0
578 -90 40 0
579 -40 90 0
580 -90 75 0
581 -85 90 0
582 -10 10 0
583 -80 10 0
584 -20 10 0
585 -55 10 0
586 -10 15 0
587 -95 20 0
588 -15 5 0
589 -75 95 0
590 -90 95 0
591 -95 55 0
592 -40 5 0
593 -95 65 0
594 -30 5 0
595 -45 95 0
596 -65 95 0
597 -90 90 0
598 -95 45 0
599 -95 10 0
600 -90 5 0
601 -20 95 0
602 -95 80 0
603 -10 95 0
604 -30 95 0
605 -10 25 0
606 -5 85 0
607 -5 75 0
608 -5 65 0
609 -5 50 0
610 -5 40 0
611 -5 30 0
612 -95 30 0
613 -75 5 0
614 -65 5 0
615 -50 5 0
616 -10 70 0
617 -25 90 0
618 -75 90 0
619 -10 35 0
620 -10 80 0
621 -90 15 0
622 -35 10 0
623 -85 85 0
624 -50 90 0
625 -25 10 0
626 -40 10 0
627 -90 65 0
628 -65 10 0
629 -35 90 0
630 -50 10 0
631 -90 30 0
632 -85 10 0
633 -90 25 0
634 -65 90 0
635 -80 90 0
636 -15 10 0
637 -15 15 0
638 -60 90 0
639 -90 80 0
640 -90 60 0
641 -90 50 0
642 -15 25 0
643 -10 90 0
644 -20 90 0
645 -90 70 0
646 -45 90 0
647 -90 10 0
648 -90 45 0
649 -75 10 0
650 -10 60 0
651 -10 45 0
652 -10 50 0
653 -90 85 0
654 -90 35 0
655 -60 10 0
656 -10 30 0
657 -55 85 0
658 -15 55 0
659 -85 40 0
660 -85 65 0
661 -40 85 0
662 -85 30 0
663 -75 15 0
664 -85 15 0
665 -60 15 0
666 -25 85 0
667 -75 85 0
668 -85 75 0
669 -35 15 0
670 -85 80 0
671 -80 85 0
672 -65 85 0
673 -70 90 0
674 -90 55 0
675 -20 25 0
676 -20 15 0
677 -15 90 0
678 -50 85 0
679 -30 10 0
680 -85 50 0
681 -15 45 0
682 -50 15 0
683 -70 10 0
684 -30 90 0
685 -10 85 0
686 -10 75 0
687 -10 65 0
688 -10 40 0
689 -45 10 0
690 -15 30 0
691 -90 20 0
692 -55 80 0
693 -45 25 0
694 -20 30 0
695 -30 25 0
696 -85 60 0
697 -35 85 0
698 -15 65 0
699 -20 85 0
700 -65 15 0
701 -15 40 0
702 -85 25 0
703 -70 85 0
704 -80 15 0
705 -85 35 0
706 -85 70 0
707 -75 80 0
708 -85 55 0
709 -30 15 0
710 -35 25 0
711 -40 15 0
712 -25 25 0
713 -45 85 0
714 -30 85 0
715 -55 15 0
716 -25 15 0
717 -15 70 0
718 -15 80 0
719 -60 85 0
720 -85 45 0
721 -15 60 0
722 -15 50 0
723 -70 15 0
724 -15 85 0
725 -15 35 0
726 -45 15 0
727 -80 80 0
728 -85 20 0
729 -80 40 0
730 -20 55 0
731 -50 25 0
732 -80 65 0
733 -40 80 0
734 -20 65 0
735 -65 20 0
736 -80 30 0
737 -30 80 0
738 -30 30 0
739 -20 40 0
740 -75 20 0
741 -70 80 0
742 -75 75 0
743 -80 20 0
744 -60 80 0
745 -25 30 0
746 -80 60 0
747 -20 45 0
748 -55 20 0
749 -25 80 0
750 -80 75 0
751 -80 50 0
752 -15 75 0
753 -20 80 0
754 -50 80 0
755 -40 25 0
756 -20 35 0
757 -55 75 0
758 -45 30 0
759 -75 65 0
760 -70 75 0
761 -35 30 0
762 -25 40 0
763 -20 70 0
764 -55 25 0
765 -65 80 0
766 -75 70 0
767 -80 35 0
768 -80 25 0
769 -45 80 0
770 -20 50 0
771 -35 80 0
772 -60 20 0
773 -80 70 0
774 -80 55 0
775 -80 45 0
776 -20 60 0
777 -70 20 0
778 -30 75 0
779 -30 35 0
780 -25 75 0
781 -20 75 0
782 -25 35 0
783 -30 40 0
784 -75 50 0
785 -75 40 0
786 -25 55 0
787 -65 25 0
788 -60 75 0
789 -75 60 0
790 -70 70 0
791 -65 75 0
792 -50 30 0
793 -40 75 0
794 -50 75 0
795 -25 45 0
796 -25 65 0
797 -70 25 0
798 -75 35 0
799 -75 30 0
800 -40 30 0
801 -25 70 0
802 -60 25 0
803 -35 35 0
804 -35 75 0
805 -75 25 0
806 -55 70 0
807 -35 40 0
808 -60 30 0
809 -70 40 0
810 -45 35 0
811 -40 70 0
812 -65 30 0
813 -70 65 0
814 -65 70 0
815 -75 45 0
816 -70 30 0
817 -40 35 0
818 -45 75 0
819 -30 45 0
820 -25 50 0
821 -75 55 0
822 -25 60 0
823 -30 65 0
824 -30 70 0
825 -55 30 0
826 -35 45 0
827 -65 65 0
828 -70 50 0
829 -55 35 0
830 -70 60 0
831 -50 70 0
832 -70 45 0
833 -50 35 0
834 -35 70 0
835 -60 35 0
836 -40 40 0
837 -30 50 0
838 -30 60 0
839 -60 70 0
840 -45 70 0
841 -70 35 0
842 -55 65 0
843 -50 40 0
844 -65 50 0
845 -65 60 0
846 -45 65 0
847 -40 45 0
848 -60 65 0
849 -65 40 0
850 -40 65 0
851 -55 40 0
852 -45 40 0
853 -70 55 0
854 -30 55 0
855 -35 65 0
856 -35 50 0
857 -65 35 0
858 -50 45 0
859 -40 50 0
860 -45 60 0
861 -35 60 0
862 -65 55 0
863 -55 60 0
864 -60 40 0
865 -45 45 0
866 -35 55 0
867 -65 45 0
868 -50 65 0
869 -60 60 0
870 -60 50 0
871 -55 45 0
872 -40 55 0
873 -50 60 0
874 -60 45 0
875 -45 50 0
876 -40 60 0
877 -55 55 0
878 -60 55 0
879 -55 50 0
880 -50 55 0
881 -50 50 0
882 -45 55 0
883 0 100 0
884 0 20 0
885 0 0 0
886 0 100 100
887 0 0 100
888 0 95 0
889 0 90 0
890 0 85 0
891 0 80 0
892 0 75 0
893 0 70 0
894 0 65 0
895 0 60 0
896 0 55 0
897 0 50 0
898 0 45 0
899 0 40 0
900 0 35 0
901 0 30 0
902 0 25 0
903 0 15 0
904 0 10 0
905 0 5 0
906 0 95 100
907 0 90 100
908 0 85 100
909 0 80 100
910 0 75 100
911 0 70 100
912 0 65 100
913 0 60 100
914 0 55 100
915 0 50 100
916 0 45 100
917 0 40 100
918 0 35 100
919 0 30 100
920 0 25 100
921 0 20 100
922 0 15 100
923 0 10 100
924 0 5 100
925 0 0 95
926 0 0 90
927 0 0 85
928 0 0 80
929 0 0 75
930 0 0 70
931 0 0 65
932 0 0 60
933 0 0 55
934 0 0 50
935 0 0 45
936 0 0 40
937 0 0 35
938 0 0 30
939 0 0 25
940 0 0 20
941 0 0 15
942 0 0 10
943 0 0 5
944 0 100 5
945 0 100 10
946 0 100 15
947 0 100 20
948 0 100 25
949 0 100 30
950 0 100 35
951 0 100 40
952 0 100 45
953 0 100 50
954 0 100 55
955 0 100 60
956 0 100 65
957 0 100 70
958 0 100 75
959 0 100 80
960 0 100 85
961 0 100 90
962 0 100 95
963 0 50 5
964 0 55 95
965 0 5 60
966 0 5 35
967 0 95 40
968 0 95 65
969 0 35 95
970 0 70 5
971 0 20 5
972 0 80 95
973 0 5 75
974 0 95 25
975 0 20 95
976 0 80 5
977 0 5 10
978 0 95 90
979 0 95 15
980 0 5 20
981 0 95 80
982 0 5 85
983 0 95 55
984 0 30 5
985 0 10 95
986 0 90 5
987 0 5 5
988 0 95 95
989 0 50 95
990 0 75 95
991 0 45 95
992 0 5 40
993 0 5 45
994 0 95 50
995 0 95 5
996 0 60 5
997 0 40 5
998 0 10 5
999 0 90 95
1000 0 70 95
1001 0 65 95
1002 0 30 95
1003 0 5 95
1004 0 5 65
1005 0 5 50
1006 0 5 25
1007 0 95 35
1008 0 95 75
1009 0 90 55
1010 0 10 45
1011 0 50 90
1012 0 10 60
1013 0 70 90
1014 0 35 90
1015 0 90 40
1016 0 90 80
1017 0 10 20
1018 0 10 10
1019 0 90 90
1020 0 25 95
1021 0 5 15
1022 0 95 85
1023 0 10 90
1024 0 95 60
1025 0 10 35
1026 0 5 30
1027 0 95 45
1028 0 95 70
1029 0 15 5
1030 0 85 95
1031 0 40 95
1032 0 5 90
1033 0 5 55
1034 0 95 20
1035 0 15 95
1036 0 5 70
1037 0 95 10
1038 0 95 30
1039 0 80 90
1040 0 85 5
1041 0 75 5
1042 0 65 5
1043 0 55 5
1044 0 45 5
1045 0 35 5
1046 0 25 5
1047 0 60 95
1048 0 5 80
1049 0 45 10
1050 0 70 10
1051 0 90 25
1052 0 25 10
1053 0 10 75
1054 0 20 90
1055 0 80 10
1056 0 15 10
1057 0 90 65
1058 0 10 85
1059 0 10 30
1060 0 90 50
1061 0 55 10
1062 0 10 50
1063 0 45 90
1064 0 90 35
1065 0 90 75
1066 0 30 90
1067 0 85 90
1068 0 55 90
1069 0 90 60
1070 0 90 85
1071 0 10 15
1072 0 10 40
1073 0 10 25
1074 0 90 10
1075 0 90 20
1076 0 90 45
1077 0 10 65
1078 0 10 55
1079 0 30 10
1080 0 75 90
1081 0 60 10
1082 0 40 90
1083 0 35 10
1084 0 65 90
1085 0 15 90
1086 0 85 55
1087 0 55 15
1088 0 15 45
1089 0 40 85
1090 0 30 15
1091 0 70 85
1092 0 85 40
1093 0 15 60
1094 0 85 80
1095 0 15 20
1096 0 15 35
1097 0 85 25
1098 0 20 10
1099 0 35 85
1100 0 60 90
1101 0 10 80
1102 0 85 65
1103 0 90 15
1104 0 10 70
1105 0 85 85
1106 0 15 15
1107 0 15 25
1108 0 85 50
1109 0 50 10
1110 0 50 85
1111 0 25 90
1112 0 90 70
1113 0 90 30
1114 0 80 85
1115 0 85 10
1116 0 75 10
1117 0 65 10
1118 0 15 50
1119 0 40 10
1120 0 20 85
1121 0 15 85
1122 0 20 45
1123 0 80 55
1124 0 40 80
1125 0 15 70
1126 0 85 75
1127 0 25 15
1128 0 85 35
1129 0 65 15
1130 0 85 20
1131 0 40 15
1132 0 50 15
1133 0 25 85
1134 0 65 85
1135 0 55 85
1136 0 20 15
1137 0 85 70
1138 0 20 20
1139 0 15 75
1140 0 15 80
1141 0 15 40
1142 0 15 65
1143 0 15 55
1144 0 80 80
1145 0 15 30
1146 0 70 15
1147 0 80 15
1148 0 45 85
1149 0 85 45
1150 0 75 85
1151 0 60 15
1152 0 35 15
1153 0 85 30
1154 0 85 15
1155 0 85 60
1156 0 30 85
1157 0 49.9999998001036 19.9999998523474
1158 0 80 40
1159 0 70 80
1160 0 65 20
1161 0 19.9999897553114 59.999992432805
1162 0 80 30
1163 0 80 65
1164 0 30 80
1165 0 29.9999998001036 19.9999998523474
1166 0 19.9999685662969 34.9999767816309
1167 0 19.9999981509586 24.9999986342136
1168 0 20 70
1169 0 50 80
1170 0 45 80
1171 0 75 80
1172 0 80 75
1173 0 19.9999812784562 39.9999861714125
1174 0 19.9999897553114 49.999992432805
1175 0 80 60
1176 0 24.9999998594479 19.9999998961818
1177 0 54.999999975013 19.9999999815434
1178 0 60 85
1179 0 44.9999999875065 14.9999999907717
1180 0 80 25
1181 0 80 50
1182 0 75 15
1183 0 80 20
1184 0 34.9999991254534 19.9999993540199
1185 0 20 80
1186 0 35 80
1187 0 75 60
1188 0 49.99999659083 24.9999974818313
1189 0 50.0000416342522 75.0000639984203
1190 0 24.9987790142726 39.9990981241634
1191 0 29.9999643258945 24.9999752891674
1192 0 40 75
1193 0 39.9999985905745 19.9999989589339
1194 0 70 20
1195 0 20 75
1196 0 75 75
1197 0 80 70
1198 0 65 80
1199 0 19.9999987194139 64.9999990541006
1200 0 19.9999769494506 54.9999829738112
1201 0 24.999990413317 24.9999931237994
1202 0 24.9973697367124 44.9980571673773
1203 0 80 35
1204 0 75 55
1205 0 55.0000026021407 80.0000039999013
1206 0 19.9999767500756 29.9999828393538
1207 0 80 45
1208 0 59.9999999968766 19.9999999976929
1209 0 75 30
1210 0 75 25
1211 0 75 20
1212 0 44.9999987346404 19.9999990653476
1213 0 25 80
1214 0 34.9999953898901 74.9999965947622
1215 0 70.0008286696804 60.0017044477128
1216 0 29.9912760165674 39.9948651640011
1217 0 40.0004807684769 70.000996067455
1218 0 24.9990812923216 59.9993214005393
1219 0 55.0000939252505 75.0001422447855
1220 0 75 70
1221 0 75 45
1222 0 59.9999999699375 24.9999999777944
1223 0 75 35
1224 0 75.000051791855 65.000106527982
1225 0 70.000008203515 75.0000091970476
1226 0 24.9991169757977 34.9994295773295
1227 0 24.9998141931207 29.999873111671
1228 0 24.9966083745575 49.9974947905083
1229 0 24.999642074288 64.999735619718
1230 0 34.9998387569521 24.9999476838095
1231 0 44.9999006756796 24.999989935466
1232 0 64.999999996047 24.9999999970801
1233 0 45.0000352523113 75.0000702540185
1234 0 54.9999992731796 24.9999994631372
1235 0 60.0000061955957 80.0000093902867
1236 0 75 50
1237 0 69.9999999995059 24.999999999635
1238 0 29.9999902035165 74.9999927638698
1239 0 24.9999084658704 69.9999323887103
1240 0 24.9999827235635 74.9999872388347
1241 0 49.995876309396 30.0076410421544
1242 0 60.0000727699006 75.0001038961553
1243 0 70.0000862975807 70.000099778106
1244 0 29.9995234325116 29.9996751825972
1245 0 59.9981895763891 30.001994362272
1246 0 69.9983619319357 45.0014131581673
1247 0 34.9999778925895 70.0001475624987
1248 0 50.0025357433006 70.0040832098858
1249 0 65.0000374367275 75.0000451019249
1250 0 29.9941973228155 59.9974828216102
1251 0 70.0005089355436 65.0007926710148
1252 0 24.9970657550943 54.9979431916712
1253 0 74.999897620746 40.0000883223855
1254 0 29.9821476613544 44.9898275185828
1255 0 70.0006705428364 55.0031619580639
1256 0 69.9992531806905 34.9999667764276
1257 0 69.9997437288761 29.9999767878821
1258 0 29.9967182988716 34.9980088221478
1259 0 39.9997484035532 24.9999586617348
1260 0 29.998182788115 64.9993550440737
1261 0 29.9996673141218 69.999861914491
1262 0 45.0019151172578 70.0033371760918
1263 0 50.0068696308467 65.0311490449091
1264 0 65.0026236947923 65.0047187492427
1265 0 34.9912189794468 34.9983465199564
1266 0 29.9853773430748 54.9925136149402
1267 0 34.9970050945616 65.0006306359759
1268 0 65.0007427567742 70.0011882434028
1269 0 29.9781446444238 49.9882127864218
1270 0 44.9954657317298 30.0064069591875
1271 0 34.9977016683662 29.9995857238563
1272 0 69.9981918791823 40.0004303183221
1273 0 65.0050736717908 60.014762128058
1274 0 34.9715421063481 39.9969211603051
1275 0 64.9990241186728 30.0003973117055
1276 0 54.9959644757631 30.006864520543
1277 0 69.9992132500314 50.0034340844665
1278 0 60.0017369930915 70.0027047923842
1279 0 55.0029088686171 70.0058247073065
1280 0 39.9973621343532 65.0083816206291
1281 0 49.971259076877 35.0562451049734
1282 0 64.9861451350745 45.0203196923965
1283 0 34.94185470389 49.995040730238
1284 0 39.9750168803455 60.0289251240686
1285 0 59.9875606993832 35.0153463647876
1286 0 60.006978356463 65.0168791880561
1287 0 55.0090916030684 65.0315293803049
1288 0 34.9478170584551 44.9991024048554
1289 0 39.9809452835952 35.0125873408658
1290 0 64.9880994484584 40.0114822769434
1291 0 44.9997686116516 65.0255368778303
1292 0 65.0017205622577 55.0262775703145
1293 0 64.9939528644879 35.0050341562028
1294 0 39.9947142700323 30.0037940063041
1295 0 34.9602288080132 55.0034499458892
1296 0 34.9824434545221 60.0063155449983
1297 0 49.985085880895 60.1071102955528
1298 0 39.8973517815869 50.0745853095412
1299 0 60.0084133230265 60.0500848741985
1300 0 39.9324629044257 55.0649587565624
1301 0 44.9705074686907 35.0444482725826
1302 0 54.9748098921426 35.0456182330431
1303 0 64.9911193365538 50.0318917207583
1304 0 39.94390135153 40.0421807080815
1305 0 59.9649696911879 40.0532705569208
1306 0 44.9674936096494 60.0816305335419
1307 0 59.9922172252739 55.0887549761147
1308 0 49.9181967150471 55.2120254712448
1309 0 54.9370322800691 40.1252515571218
1310 0 59.9637894952119 50.1093543362662
1311 0 39.9086979424137 45.0764121600776
1312 0 59.9516454467145 45.0977596583631
1313 0 54.9968326364654 60.0899351122527
1314 0 44.9082308497623 55.1540322070567
1315 0 44.9230851401012 40.1230081222893
1316 0 49.8681861755582 50.2739931148399
1317 0 54.9224513135146 50.2086854721092
1318 0 44.8804046081287 45.1889047197279
1319 0 54.962255923946 55.1535284459361
1320 0 49.922243006315 40.1586019016381
1321 0 54.9133594160292 45.1899817306706
1322 0 44.8810488003224 50.1880039366219
1323 0 49.8917048210167 45.2221920955804
1324 0 100 0
1325 0 20 0
1326 0 0 0
1327 0 100 -100
1328 0 0 -100
1329 0 95 0
1330 0 90 0
1331 0 85 0
1332 0 80 0
1333 0 75 0
1334 0 70 0
1335 0 65 0
1336 0 60 0
1337 0 55 0
1338 0 50 0
1339 0 45 0
1340 0 40 0
1341 0 35 0
1342 0 30 0
1343 0 25 0
1344 0 15 0
1345 0 10 0
1346 0 5 0
1347 0 95 -100
1348 0 90 -100
1349 0 85 -100
1350 0 80 -100
1351 0 75 -100
1352 0 70 -100
1353 0 65 -100
1354 0 60 -100
1355 0 55 -100
1356 0 50 -100
1357 0 45 -100
1358 0 40 -100
1359 0 35 -100
1360 0 30 -100
1361 0 25 -100
1362 0 20 -100
1363 0 15 -100
1364 0 10 -100
1365 0 5 -100
1366 0 0 -95
1367 0 0 -90
1368 0 0 -85
1369 0 0 -80
1370 0 0 -75
1371 0 0 -70
1372 0 0 -65
1373 0 0 -60
1374 0 0 -55
1375 0 0 -50
1376 0 0 -45
1377 0 0 -40
1378 0 0 -35
1379 0 0 -30
1380 0 0 -25
1381 0 0 -20
1382 0 0 -15
1383 0 0 -10
1384 0 0 -5
1385 0 100 -5
1386 0 100 -10
1387 0 100 -15
1388 0 100 -20
1389 0 100 -25
1390 0 100 -30
1391 0 100 -35
1392 0 100 -40
1393 0 100 -45
1394 0 100 -50
1395 0 100 -55
1396 0 100 -60
1397 0 100 -65
1398 0 100 -70
1399 0 100 -75
1400 0 100 -80
1401 0 100 -85
1402 0 100 -90
1403 0 100 -95
1404 0 50 -5
1405 0 55 -95
1406 0 5 -60
1407 0 5 -35
1408 0 95 -40
1409 0 95 -65
1410 0 35 -95
1411 0 70 -5
1412 0 20 -5
1413 0 80 -95
1414 0 5 -75
1415 0 95 -25
1416 0 20 -95
1417 0 80 -5
1418 0 5 -10
1419 0 95 -90
1420 0 95 -15
1421 0 5 -20
1422 0 95 -80
1423 0 5 -85
1424 0 95 -55
1425 0 30 -5
1426 0 10 -95
1427 0 90 -5
1428 0 5 -5
1429 0 95 -95
1430 0 50 -95
1431 0 75 -95
1432 0 45 -95
1433 0 5 -40
1434 0 5 -45
1435 0 95 -50
1436 0 95 -5
1437 0 60 -5
1438 0 40 -5
1439 0 10 -5
1440 0 90 -95
1441 0 70 -95
1442 0 65 -95
1443 0 30 -95
1444 0 5 -95
1445 0 5 -65
1446 0 5 -50
1447 0 5 -25
1448 0 95 -35
1449 0 95 -75
1450 0 90 -55
1451 0 10 -45
1452 0 50 -90
1453 0 10 -60
1454 0 70 -90
1455 0 35 -90
1456 0 90 -40
1457 0 90 -80
1458 0 10 -20
1459 0 10 -10
1460 0 90 -90
1461 0 25 -95
1462 0 5 -15
1463 0 95 -85
1464 0 10 -90
1465 0 95 -60
1466 0 10 -35
1467 0 5 -30
1468 0 95 -45
1469 0 95 -70
1470 0 15 -5
1471 0 85 -95
1472 0 40 -95
1473 0 5 -90
1474 0 5 -55
1475 0 95 -20
1476 0 15 -95
1477 0 5 -70
1478 0 95 -10
1479 0 95 -30
1480 0 80 -90
1481 0 85 -5
1482 0 75 -5
1483 0 65 -5
1484 0 55 -5
1485 0 45 -5
1486 0 35 -5
1487 0 25 -5
1488 0 60 -95
1489 0 5 -80
1490 0 45 -10
1491 0 70 -10
1492 0 90 -25
1493 0 25 -10
1494 0 10 -75
1495 0 20 -90
1496 0 80 -10
1497 0 15 -10
1498 0 90 -65
1499 0 10 -85
1500 0 10 -30
1501 0 90 -50
1502 0 55 -10
1503 0 10 -50
1504 0 45 -90
1505 0 90 -35
1506 0 90 -75
1507 0 30 -90
1508 0 85 -90
1509 0 55 -90
1510 0 90 -60
1511 0 90 -85
1512 0 10 -15
1513 0 10 -40
1514 0 10 -25
1515 0 90 -10
1516 0 90 -20
1517 0 90 -45
1518 0 10 -65
1519 0 10 -55
1520 0 30 -10
1521 0 75 -90
1522 0 60 -10
1523 0 40 -90
1524 0 35 -10
1525 0 65 -90
1526 0 15 -90
1527 0 85 -55
1528 0 55 -15
1529 0 15 -45
1530 0 40 -85
1531 0 30 -15
1532 0 70 -85
1533 0 85 -40
1534 0 15 -60
1535 0 85 -80
1536 0 15 -20
1537 0 15 -35
1538 0 85 -25
1539 0 20 -10
1540 0 35 -85
1541 0 60 -90
1542 0 10 -80
1543 0 85 -65
1544 0 90 -15
1545 0 10 -70
1546 0 85 -85
1547 0 15 -15
1548 0 15 -25
1549 0 85 -50
1550 0 50 -10
1551 0 50 -85
1552 0 25 -90
1553 0 90 -70
1554 0 90 -30
1555 0 80 -85
1556 0 85 -10
1557 0 75 -10
1558 0 65 -10
1559 0 15 -50
1560 0 40 -10
1561 0 20 -85
1562 0 15 -85
1563 0 20 -45
1564 0 80 -55
1565 0 40 -80
1566 0 15 -70
1567 0 85 -75
1568 0 25 -15
1569 0 85 -35
1570 0 65 -15
1571 0 85 -20
1572 0 40 -15
1573 0 50 -15
1574 0 25 -85
1575 0 65 -85
1576 0 55 -85
1577 0 20 -15
1578 0 85 -70
1579 0 20 -20
1580 0 15 -75
1581 0 15 -80
1582 0 15 -40
1583 0 15 -65
1584 0 15 -55
1585 0 80 -80
1586 0 15 -30
1587 0 70 -15
1588 0 80 -15
1589 0 45 -85
1590 0 85 -45
1591 0 75 -85
1592 0 60 -15
1593 0 35 -15
1594 0 85 -30
1595 0 85 -15
1596 0 85 -60
1597 0 30 -85
1598 0 49.9999998001036 -19.9999998523474
1599 0 80 -40
1600 0 70 -80
1601 0 65 -20
1602 0 19.9999897553114 -59.999992432805
1603 0 80 -30
1604 0 80 -65
1605 0 30 -80
1606 0 29.9999998001036 -19.9999998523474
1607 0 19.9999685662969 -34.9999767816309
1608 0 19.9999981509586 -24.9999986342136
1609 0 20 -70
1610 0 50 -80
1611 0 45 -80
1612 0 75 -80
1613 0 80 -75
1614 0 19.9999812784562 -39.9999861714125
1615 0 19.9999897553114 -49.999992432805
1616 0 80 -60
1617 0 24.9999998594479 -19.9999998961818
1618 0 54.999999975013 -19.9999999815434
1619 0 60 -85
1620 0 44.9999999875065 -14.9999999907717
1621 0 80 -25
1622 0 80 -50
1623 0 75 -15
1624 0 80 -20
1625 0 34.9999991254534 -19.9999993540199
1626 0 20 -80
1627 0 35 -80
1628 0 75 -60
1629 0 49.99999659083 -24.9999974818313
1630 0 50.0000416342522 -75.0000639984203
1631 0 24.9987790142726 -39.9990981241634
1632 0 29.9999643258945 -24.9999752891674
1633 0 40 -75
1634 0 39.9999985905745 -19.9999989589339
1635 0 70 -20
1636 0 20 -75
1637 0 75 -75
1638 0 80 -70
1639 0 65 -80
1640 0 19.9999987194139 -64.9999990541006
1641 0 19.9999769494506 -54.9999829738112
1642 0 24.999990413317 -24.9999931237994
1643 0 24.9973697367124 -44.9980571673773
1644 0 80 -35
1645 0 75 -55
1646 0 55.0000026021407 -80.0000039999013
1647 0 19.9999767500756 -29.9999828393538
1648 0 80 -45
1649 0 59.9999999968766 -19.9999999976929
1650 0 75 -30
1651 0 75 -25
1652 0 75 -20
1653 0 44.9999987346404 -19.9999990653476
1654 0 25 -80
1655 0 34.9999953898901 -74.9999965947622
1656 0 70.0008286696804 -60.0017044477128
1657 0 29.9912760165674 -39.9948651640011
1658 0 40.0004807684769 -70.000996067455
1659 0 24.9990812923216 -59.9993214005393
1660 0 55.0000939252505 -75.0001422447855
1661 0 75 -70
1662 0 75 -45
1663 0 59.9999999699375 -24.9999999777944
1664 0 75 -35
1665 0 75.000051791855 -65.000106527982
1666 0 70.000008203515 -75.0000091970476
1667 0 24.9991169757977 -34.9994295773295
1668 0 24.9998141931207 -29.999873111671
1669 0 24.9966083745575 -49.9974947905083
1670 0 24.999642074288 -64.999735619718
1671 0 34.9998387569521 -24.9999476838095
1672 0 44.9999006756796 -24.999989935466
1673 0 64.999999996047 -24.9999999970801
1674 0 45.0000352523113 -75.0000702540185
1675 0 54.9999992731796 -24.9999994631372
1676 0 60.0000061955957 -80.0000093902867
1677 0 75 -50
1678 0 69.9999999995059 -24.999999999635
1679 0 29.9999902035165 -74.9999927638698
1680 0 24.9999084658704 -69.9999323887103
1681 0 24.9999827235635 -74.9999872388347
1682 0 49.995876309396 -30.0076410421544
1683 0 60.0000727699006 -75.0001038961553
1684 0 70.0000862975807 -70.000099778106
1685 0 29.9995234325116 -29.9996751825972
1686 0 59.9981895763891 -30.001994362272
1687 0 69.9983619319357 -45.0014131581673
1688 0 34.9999778925895 -70.0001475624987
1689 0 50.0025357433006 -70.0040832098858
1690 0 65.0000374367275 -75.0000451019249
1691 0 29.9941973228155 -59.9974828216102
1692 0 70.0005089355436 -65.0007926710148
1693 0 24.9970657550943 -54.9979431916712
1694 0 74.999897620746 -40.0000883223855
1695 0 29.9821476613544 -44.9898275185828
1696 0 70.0006705428364 -55.0031619580639
1697 0 69.9992531806905 -34.9999667764276
1698 0 69.9997437288761 -29.9999767878821
1699 0 29.9967182988716 -34.9980088221478
1700 0 39.9997484035532 -24.9999586617348
1701 0 29.998182788115 -64.9993550440737
1702 0 29.9996673141218 -69.999861914491
1703 0 45.0019151172578 -70.0033371760918
1704 0 50.0068696308467 -65.0311490449091
1705 0 65.0026236947923 -65.0047187492427
1706 0 34.9912189794468 -34.9983465199564
1707 0 29.9853773430748 -54.9925136149402
1708 0 34.9970050945616 -65.0006306359759
1709 0 65.0007427567742 -70.0011882434028
1710 0 29.9781446444238 -49.9882127864218
1711 0 44.9954657317298 -30.0064069591875
1712 0 34.9977016683662 -29.9995857238563
1713 0 69.9981918791823 -40.0004303183221
1714 0 65.0050736717908 -60.014762128058
1715 0 34.9715421063481 -39.9969211603051
1716 0 64.9990241186728 -30.0003973117055
1717 0 54.9959644757631 -30.006864520543
1718 0 69.9992132500314 -50.0034340844665
1719 0 60.0017369930915 -70.0027047923842
1720 0 55.0029088686171 -70.0058247073065
1721 0 39.9973621343532 -65.0083816206291
1722 0 49.971259076877 -35.0562451049734
1723 0 64.9861451350745 -45.0203196923965
1724 0 34.94185470389 -49.995040730238
1725 0 39.9750168803455 -60.0289251240686
1726 0 59.9875606993832 -35.0153463647876
1727 0 60.006978356463 -65.0168791880561
1728 0 55.0090916030684 -65.0315293803049
1729 0 34.9478170584551 -44.9991024048554
1730 0 39.9809452835952 -35.0125873408658
1731 0 64.9880994484584 -40.0114822769434
1732 0 44.9997686116516 -65.0255368778303
1733 0 65.0017205622577 -55.0262775703145
1734 0 64.9939528644879 -35.0050341562028
1735 0 39.9947142700323 -30.0037940063041
1736 0 34.9602288080132 -55.0034499458892
1737 0 34.9824434545221 -60.0063155449983
1738 0 49.985085880895 -60.1071102955528
1739 0 39.8973517815869 -50.0745853095412
1740 0 60.0084133230265 -60.0500848741985
1741 0 39.9324629044257 -55.0649587565624
1742 0 44.9705074686907 -35.0444482725826
1743 0 54.9748098921426 -35.0456182330431
1744 0 64.9911193365538 -50.0318917207583
1745 0 39.94390135153 -40.0421807080815
1746 0 59.9649696911879 -40.0532705569208
1747 0 44.9674936096494 -60.0816305335419
1748 0 59.9922172252739 -55.0887549761147
1749 0 49.9181967150471 -55.2120254712448
1750 0 54.9370322800691 -40.1252515571218
1751 0 59.9637894952119 -50.1093543362662
1752 0 39.9086979424137 -45.0764121600776
1753 0 59.9516454467145 -45.0977596583631
1754 0 54.9968326364654 -60.0899351122527
1755 0 44.9082308497623 -55.1540322070567
1756 0 44.9230851401012 -40.1230081222893
1757 0 49.8681861755582 -50.2739931148399
1758 0 54.9224513135146 -50.2086854721092
1759 0 44.8804046081287 -45.1889047197279
1760 0 54.962255923946 -55.1535284459361
1761 0 49.922243006315 -40.1586019016381
1762 0 54.9133594160292 -45.1899817306706
1763 0 44.8810488003224 -50.1880039366219
1764 0 49.8917048210167 -45.2221920955804
$EndNodes
$Elements
1600
1 3 2 1 1 392 428 418 414
2 3 2 1 1 439 438 433 437
3 3 2 1 1 332 297 353 356
4 3 2 1 1 426 431 412 415
5 3 2 1 1 414 399 378 392
6 3 2 1 1 439 437 441 429
7 3 2 1 1 435 427 432 436
8 3 2 1 1 126 195 140 112
9 3 2 1 1 311 333 354 357
10 3 2 1 1 267 224 140 195
11 3 2 1 1 194 235 204 144
12 3 2 1 1 297 332 318 268
13 3 2 1 1 143 182 235 194
14 3 2 1 1 380 368 399 401
15 3 2 1 1 399 414 395 401
16 3 2 1 1 234 263 226 196
17 3 2 1 1 357 354 361 379
18 3 2 1 1 375 417 432 397
19 3 2 1 1 427 422 397 432
20 3 2 1 1 160 188 236 92
21 3 2 1 1 234 196 162 121
22 3 2 1 1 287 337 293 222
23 3 2 1 1 266 224 310 334
24 3 2 1 1 258 297 268 225
25 3 2 1 1 287 240 317 337
26 3 2 1 1 389 410 353 328
27 3 2 1 1 372 391 389 328
28 3 2 1 1 329 334 380 360
29 3 2 1 1 395 386 382 401
30 3 2 1 1 211 142 97 155
31 3 2 1 1 23 154 98 22
32 3 2 1 1 60 155 97 59
33 3 2 1 1 204 235 273 251
34 3 2 1 1 322 264 290 323
35 3 2 1 1 277 276 335 299
36 3 2 1 1 292 267 318 332
37 3 2 1 1 49 50 159 103
38 3 2 1 1 77 78 101 151
39 3 2 1 1 78 79 177 101
40 3 2 1 1 119 80 81 136
41 3 2 1 1 147 122 120 199
42 3 2 1 1 91 138 199 120
43 3 2 1 1 165 187 198 125
44 3 2 1 1 198 227 238 152
45 3 2 1 1 265 227 198 187
46 3 2 1 1 236 316 265 187
47 3 2 1 1 298 329 360 339
48 3 2 1 1 293 337 381 352
49 3 2 1 1 398 390 352 396
50 3 2 1 1 414 418 406 395
51 3 2 1 1 435 436 440 438
52 3 2 1 1 120 17 18 91
53 3 2 1 1 117 24 25 128
54 3 2 1 1 118 61 62 135
55 3 2 1 1 204 154 117 144
56 3 2 1 1 138 196 226 270
57 3 2 1 1 379 375 325 357
58 3 2 1 1 376 409 391 358
59 3 2 1 1 410 424 413 373
60 3 2 1 1 416 396 422 427
61 3 2 1 1 420 429 424 408
62 3 2 1 1 17 120 122 16
63 3 2 1 1 210 147 287 222
64 3 2 1 1 199 240 287 147
65 3 2 1 1 139 225 268 203
66 3 2 1 1 428 430 421 418
67 3 2 1 1 11 12 166 106
68 3 2 1 1 91 18 19 162
69 3 2 1 1 19 20 121 162
70 3 2 1 1 160 92 68 69
71 3 2 1 1 72 73 93 153
72 3 2 1 1 88 201 239 87
73 3 2 1 1 236 187 165 92
74 3 2 1 1 203 93 127 139
75 3 2 1 1 203 245 153 93
76 3 2 1 1 241 181 94 161
77 3 2 1 1 140 188 160 112
78 3 2 1 1 119 136 113 157
79 3 2 1 1 211 155 118 145
80 3 2 1 1 158 185 234 121
81 3 2 1 1 147 210 137 122
82 3 2 1 1 127 176 193 139
83 3 2 1 1 233 225 139 193
84 3 2 1 1 119 157 221 177
85 3 2 1 1 140 224 266 188
86 3 2 1 1 245 203 268 318
87 3 2 1 1 189 207 271 242
88 3 2 1 1 269 241 210 222
89 3 2 1 1 267 292 310 224
90 3 2 1 1 185 303 263 234
91 3 2 1 1 188 266 316 236
92 3 2 1 1 270 291 317 240
93 3 2 1 1 329 316 266 334
94 3 2 1 1 222 293 341 269
95 3 2 1 1 326 339 360 382
96 3 2 1 1 336 343 364 358
97 3 2 1 1 376 359 390 398
98 3 2 1 1 1 7 136 81
99 3 2 1 1 8 113 136 7
100 3 2 1 1 15 16 122 137
101 3 2 1 1 46 102 167 45
102 3 2 1 1 46 47 163 102
103 3 2 1 1 48 133 163 47
104 3 2 1 1 49 103 133 48
105 3 2 1 1 55 164 104 54
106 3 2 1 1 55 56 100 164
107 3 2 1 1 57 175 100 56
108 3 2 1 1 64 65 124 107
109 3 2 1 1 65 66 125 124
110 3 2 1 1 68 92 165 67
111 3 2 1 1 66 67 165 125
112 3 2 1 1 71 126 112 70
113 3 2 1 1 69 70 112 160
114 3 2 1 1 153 126 71 72
115 3 2 1 1 74 127 93 73
116 3 2 1 1 79 80 119 177
117 3 2 1 1 83 84 242 271
118 3 2 1 1 87 239 272 86
119 3 2 1 1 88 87 243 202
120 3 2 1 1 89 149 201 88
121 3 2 1 1 89 88 202 179
122 3 2 1 1 162 196 138 91
123 3 2 1 1 141 220 170 95
124 3 2 1 1 184 193 176 96
125 3 2 1 1 154 204 251 98
126 3 2 1 1 163 186 206 102
127 3 2 1 1 123 105 150 207
128 3 2 1 1 145 107 124 152
129 3 2 1 1 117 128 108 144
130 3 2 1 1 144 108 169 194
131 3 2 1 1 157 113 110 156
132 3 2 1 1 207 189 159 123
133 3 2 1 1 124 125 198 152
134 3 2 1 1 103 146 208 133
135 3 2 1 1 163 133 208 186
136 3 2 1 1 97 142 209 134
137 3 2 1 1 210 241 161 137
138 3 2 1 1 274 223 141 217
139 3 2 1 1 103 159 189 146
140 3 2 1 1 96 151 249 184
141 3 2 1 1 145 152 238 211
142 3 2 1 1 126 153 245 195
143 3 2 1 1 156 197 221 157
144 3 2 1 1 98 251 185 158
145 3 2 1 1 104 164 215 252
146 3 2 1 1 94 181 212 166
147 3 2 1 1 102 206 219 167
148 3 2 1 1 143 180 246 182
149 3 2 1 1 241 269 228 181
150 3 2 1 1 273 235 182 259
151 3 2 1 1 193 184 264 233
152 3 2 1 1 303 185 251 273
153 3 2 1 1 206 186 239 201
154 3 2 1 1 146 189 242 244
155 3 2 1 1 180 192 250 246
156 3 2 1 1 186 208 272 239
157 3 2 1 1 146 244 272 208
158 3 2 1 1 142 237 283 209
159 3 2 1 1 142 211 238 237
160 3 2 1 1 181 228 276 212
161 3 2 1 1 304 301 289 223
162 3 2 1 1 265 298 260 227
163 3 2 1 1 306 342 284 230
164 3 2 1 1 227 260 237 238
165 3 2 1 1 182 246 275 259
166 3 2 1 1 184 249 290 264
167 3 2 1 1 246 250 319 275
168 3 2 1 1 303 273 259 302
169 3 2 1 1 237 260 305 283
170 3 2 1 1 259 275 338 302
171 3 2 1 1 319 327 338 275
172 3 2 1 1 280 279 307 312
173 3 2 1 1 288 283 305 300
174 3 2 1 1 364 335 294 359
175 3 2 1 1 350 331 295 344
176 3 2 1 1 260 298 339 305
177 3 2 1 1 262 299 343 323
178 3 2 1 1 306 300 326 355
179 3 2 1 1 319 301 340 327
180 3 2 1 1 263 303 302 333
181 3 2 1 1 333 302 338 354
182 3 2 1 1 301 304 365 340
183 3 2 1 1 383 365 304 345
184 3 2 1 1 300 305 339 326
185 3 2 1 1 342 306 355 363
186 3 2 1 1 345 314 362 383
187 3 2 1 1 258 315 372 328
188 3 2 1 1 382 386 355 326
189 3 2 1 1 354 338 327 361
190 3 2 1 1 257 330 366 367
191 3 2 1 1 363 387 366 330
192 3 2 1 1 299 335 364 343
193 3 2 1 1 327 340 388 361
194 3 2 1 1 402 388 340 365
195 3 2 1 1 350 344 367 384
196 3 2 1 1 351 377 362 346
197 3 2 1 1 331 350 374 370
198 3 2 1 1 348 371 385 351
199 3 2 1 1 387 363 355 386
200 3 2 1 1 379 361 388 400
201 3 2 1 1 377 405 383 362
202 3 2 1 1 407 366 387 406
203 3 2 1 1 366 407 384 367
204 3 2 1 1 325 375 397 369
205 3 2 1 1 381 369 397 422
206 3 2 1 1 371 370 404 385
207 3 2 1 1 374 403 404 370
208 3 2 1 1 378 373 413 392
209 3 2 1 1 351 385 393 377
210 3 2 1 1 375 379 400 417
211 3 2 1 1 365 383 405 402
212 3 2 1 1 393 385 404 419
213 3 2 1 1 402 412 400 388
214 3 2 1 1 412 402 405 415
215 3 2 1 1 408 409 423 420
216 3 2 1 1 436 432 417 431
217 3 2 1 1 433 438 440 434
218 3 2 1 1 137 161 14 15
219 3 2 1 1 121 20 21 158
220 3 2 1 1 36 37 172 99
221 3 2 1 1 123 51 52 105
222 3 2 1 1 50 51 123 159
223 3 2 1 1 54 104 174 53
224 3 2 1 1 75 76 96 176
225 3 2 1 1 6 257 309 82
226 3 2 1 1 213 191 171 99
227 3 2 1 1 177 221 205 101
228 3 2 1 1 174 104 252 214
229 3 2 1 1 95 131 217 141
230 3 2 1 1 289 220 141 223
231 3 2 1 1 201 149 219 206
232 3 2 1 1 271 207 150 248
233 3 2 1 1 213 255 232 191
234 3 2 1 1 220 289 250 192
235 3 2 1 1 318 267 195 245
236 3 2 1 1 290 249 205 247
237 3 2 1 1 277 253 212 276
238 3 2 1 1 150 214 278 248
239 3 2 1 1 213 218 256 255
240 3 2 1 1 341 294 228 269
241 3 2 1 1 335 276 228 294
242 3 2 1 1 306 230 288 300
243 3 2 1 1 214 252 320 278
244 3 2 1 1 367 344 309 257
245 3 2 1 1 362 314 285 346
246 3 2 1 1 295 331 347 307
247 3 2 1 1 393 415 405 377
248 3 2 1 1 384 407 421 394
249 3 2 1 1 411 394 421 430
250 3 2 1 1 430 428 441 437
251 3 2 1 1 278 6 82 248
252 3 2 1 1 330 257 6 308
253 3 2 1 1 320 308 6 278
254 3 2 1 1 113 8 9 110
255 3 2 1 1 11 106 168 10
256 3 2 1 1 9 10 168 110
257 3 2 1 1 166 12 13 94
258 3 2 1 1 161 94 13 14
259 3 2 1 1 158 21 22 98
260 3 2 1 1 2 26 128 25
261 3 2 1 1 27 108 128 26
262 3 2 1 1 27 28 169 108
263 3 2 1 1 29 109 169 28
264 3 2 1 1 29 30 129 109
265 3 2 1 1 30 31 130 129
266 3 2 1 1 33 95 170 32
267 3 2 1 1 31 32 170 130
268 3 2 1 1 34 131 95 33
269 3 2 1 1 35 171 131 34
270 3 2 1 1 171 35 36 99
271 3 2 1 1 38 111 172 37
272 3 2 1 1 38 39 114 111
273 3 2 1 1 3 90 132 40
274 3 2 1 1 39 40 132 114
275 3 2 1 1 3 41 115 90
276 3 2 1 1 41 42 173 115
277 3 2 1 1 43 116 173 42
278 3 2 1 1 4 44 116 43
279 3 2 1 1 44 45 167 116
280 3 2 1 1 52 53 174 105
281 3 2 1 1 58 134 175 57
282 3 2 1 1 59 97 134 58
283 3 2 1 1 5 63 135 62
284 3 2 1 1 64 107 135 63
285 3 2 1 1 151 96 76 77
286 3 2 1 1 83 82 309 261
287 3 2 1 1 82 83 271 248
288 3 2 1 1 84 83 261 279
289 3 2 1 1 279 280 85 84
290 3 2 1 1 84 85 244 242
291 3 2 1 1 87 86 281 243
292 3 2 1 1 85 86 272 244
293 3 2 1 1 85 280 281 86
294 3 2 1 1 90 115 149 89
295 3 2 1 1 90 89 179 132
296 3 2 1 1 249 151 101 205
297 3 2 1 1 214 150 105 174
298 3 2 1 1 166 212 253 106
299 3 2 1 1 168 106 253 216
300 3 2 1 1 118 135 107 145
301 3 2 1 1 194 169 109 143
302 3 2 1 1 111 114 178 148
303 3 2 1 1 109 129 180 143
304 3 2 1 1 129 130 192 180
305 3 2 1 1 170 220 192 130
306 3 2 1 1 171 191 217 131
307 3 2 1 1 114 132 179 178
308 3 2 1 1 240 199 138 270
309 3 2 1 1 111 148 218 172
310 3 2 1 1 115 173 219 149
311 3 2 1 1 110 168 216 156
312 3 2 1 1 197 156 216 229
313 3 2 1 1 100 183 215 164
314 3 2 1 1 116 167 219 173
315 3 2 1 1 99 172 218 213
316 3 2 1 1 100 175 254 183
317 3 2 1 1 134 209 254 175
318 3 2 1 1 202 200 178 179
319 3 2 1 1 148 178 200 190
320 3 2 1 1 284 215 183 230
321 3 2 1 1 148 190 256 218
322 3 2 1 1 217 191 232 274
323 3 2 1 1 221 197 247 205
324 3 2 1 1 229 262 247 197
325 3 2 1 1 190 200 282 231
326 3 2 1 1 202 243 282 200
327 3 2 1 1 229 216 253 277
328 3 2 1 1 333 311 226 263
329 3 2 1 1 277 299 262 229
330 3 2 1 1 183 254 288 230
331 3 2 1 1 190 231 286 256
332 3 2 1 1 286 231 313 296
333 3 2 1 1 314 232 255 285
334 3 2 1 1 345 274 232 314
335 3 2 1 1 225 233 315 258
336 3 2 1 1 264 322 315 233
337 3 2 1 1 323 290 247 262
338 3 2 1 1 319 250 289 301
339 3 2 1 1 215 284 320 252
340 3 2 1 1 209 283 288 254
341 3 2 1 1 255 256 286 285
342 3 2 1 1 307 279 261 295
343 3 2 1 1 344 295 261 309
344 3 2 1 1 226 311 291 270
345 3 2 1 1 223 274 345 304
346 3 2 1 1 243 281 321 282
347 3 2 1 1 280 312 321 281
348 3 2 1 1 231 282 321 313
349 3 2 1 1 346 285 286 296
350 3 2 1 1 369 317 291 325
351 3 2 1 1 311 357 325 291
352 3 2 1 1 368 310 292 324
353 3 2 1 1 346 296 348 351
354 3 2 1 1 258 328 353 297
355 3 2 1 1 284 342 308 320
356 3 2 1 1 363 330 308 342
357 3 2 1 1 321 312 349 313
358 3 2 1 1 307 347 349 312
359 3 2 1 1 296 313 349 348
360 3 2 1 1 322 336 372 315
361 3 2 1 1 343 336 322 323
362 3 2 1 1 292 332 356 324
363 3 2 1 1 373 378 324 356
364 3 2 1 1 310 368 380 334
365 3 2 1 1 391 372 336 358
366 3 2 1 1 317 369 381 337
367 3 2 1 1 293 352 390 341
368 3 2 1 1 294 341 390 359
369 3 2 1 1 349 347 371 348
370 3 2 1 1 331 370 371 347
371 3 2 1 1 374 350 384 394
372 3 2 1 1 356 353 410 373
373 3 2 1 1 358 364 359 376
374 3 2 1 1 380 401 382 360
375 3 2 1 1 403 374 394 411
376 3 2 1 1 423 409 376 398
377 3 2 1 1 386 395 406 387
378 3 2 1 1 409 408 389 391
379 3 2 1 1 441 428 392 413
380 3 2 1 1 415 393 419 426
381 3 2 1 1 412 431 417 400
382 3 2 1 1 434 403 411 433
383 3 2 1 1 403 434 419 404
384 3 2 1 1 406 418 421 407
385 3 2 1 1 437 433 411 430
386 3 2 1 1 426 419 434 440
387 3 2 1 1 413 424 429 441
388 3 2 1 1 431 426 440 436
389 3 2 1 1 176 127 74 75
390 3 2 1 1 298 265 316 329
391 3 2 1 1 324 378 399 368
392 3 2 1 1 352 381 422 396
393 3 2 1 1 396 416 423 398
394 3 2 1 1 389 408 424 410
395 3 2 1 1 154 23 24 117
396 3 2 1 1 155 60 61 118
397 3 2 1 1 420 423 416 425
398 3 2 1 1 427 435 425 416
399 3 2 1 1 429 420 425 439
400 3 2 1 1 438 439 425 435
401 3 2 2 2 766 759 813 790
402 3 2 2 2 759 766 773 732
403 3 2 2 2 765 791 788 744
404 3 2 2 2 881 875 882 880
405 3 2 2 2 879 881 880 877
406 3 2 2 2 813 827 814 790
407 3 2 2 2 659 705 767 729
408 3 2 2 2 541 562 519 520
409 3 2 2 2 857 835 864 849
410 3 2 2 2 582 586 637 636
411 3 2 2 2 873 863 877 880
412 3 2 2 2 703 673 618 667
413 3 2 2 2 501 588 547 500
414 3 2 2 2 634 673 703 672
415 3 2 2 2 815 832 828 784
416 3 2 2 2 849 864 874 867
417 3 2 2 2 870 874 871 879
418 3 2 2 2 562 541 581 635
419 3 2 2 2 599 647 621 549
420 3 2 2 2 561 673 634 596
421 3 2 2 2 862 853 828 844
422 3 2 2 2 618 635 671 667
423 3 2 2 2 671 727 707 667
424 3 2 2 2 703 667 707 741
425 3 2 2 2 765 744 719 672
426 3 2 2 2 541 520 521 590
427 3 2 2 2 592 545 622 626
428 3 2 2 2 719 744 692 657
429 3 2 2 2 678 657 692 754
430 3 2 2 2 720 659 729 775
431 3 2 2 2 750 727 670 668
432 3 2 2 2 481 482 549 587
433 3 2 2 2 664 704 743 728
434 3 2 2 2 702 728 743 768
435 3 2 2 2 529 530 711 669
436 3 2 2 2 581 623 671 635
437 3 2 2 2 704 663 740 743
438 3 2 2 2 622 679 709 669
439 3 2 2 2 840 811 793 818
440 3 2 2 2 882 875 859 872
441 3 2 2 2 879 877 878 870
442 3 2 2 2 551 591 674 640
443 3 2 2 2 640 674 708 696
444 3 2 2 2 445 466 558 522
445 3 2 2 2 496 497 545 592
446 3 2 2 2 561 517 518 589
447 3 2 2 2 638 532 596 634
448 3 2 2 2 589 618 673 561
449 3 2 2 2 618 589 562 635
450 3 2 2 2 557 641 674 591
451 3 2 2 2 708 774 746 696
452 3 2 2 2 475 476 598 557
453 3 2 2 2 544 502 503 564
454 3 2 2 2 508 509 604 538
455 3 2 2 2 559 514 515 532
456 3 2 2 2 516 517 561 596
457 3 2 2 2 709 716 527 528
458 3 2 2 2 532 638 576 559
459 3 2 2 2 540 587 691 633
460 3 2 2 2 632 664 621 647
461 3 2 2 2 576 657 678 624
462 3 2 2 2 576 638 719 657
463 3 2 2 2 634 672 719 638
464 3 2 2 2 712 745 738 695
465 3 2 2 2 672 703 741 765
466 3 2 2 2 827 848 839 814
467 3 2 2 2 865 858 843 852
468 3 2 2 2 872 866 861 876
469 3 2 2 2 845 862 878 869
470 3 2 2 2 514 559 565 513
471 3 2 2 2 544 564 556 582
472 3 2 2 2 576 624 565 559
473 3 2 2 2 534 595 646 579
474 3 2 2 2 541 590 597 581
475 3 2 2 2 545 594 679 622
476 3 2 2 2 727 671 623 670
477 3 2 2 2 593 570 471 472
478 3 2 2 2 470 471 570 536
479 3 2 2 2 533 598 476 477
480 3 2 2 2 483 484 553 599
481 3 2 2 2 560 495 496 592
482 3 2 2 2 545 497 498 594
483 3 2 2 2 532 515 516 596
484 3 2 2 2 710 529 528 695
485 3 2 2 2 669 709 528 529
486 3 2 2 2 558 552 597 590
487 3 2 2 2 599 553 600 647
488 3 2 2 2 582 556 563 586
489 3 2 2 2 646 595 565 624
490 3 2 2 2 533 571 654 578
491 3 2 2 2 533 578 648 598
492 3 2 2 2 705 659 578 654
493 3 2 2 2 570 593 627 645
494 3 2 2 2 581 597 653 623
495 3 2 2 2 557 598 648 641
496 3 2 2 2 646 624 678 713
497 3 2 2 2 691 728 702 633
498 3 2 2 2 623 653 639 670
499 3 2 2 2 674 641 680 708
500 3 2 2 2 578 659 720 648
501 3 2 2 2 641 648 720 680
502 3 2 2 2 773 706 660 732
503 3 2 2 2 629 697 714 684
504 3 2 2 2 668 706 773 750
505 3 2 2 2 775 729 785 815
506 3 2 2 2 741 760 791 765
507 3 2 2 2 814 791 760 790
508 3 2 2 2 738 779 803 761
509 3 2 2 2 759 789 830 813
510 3 2 2 2 827 813 830 845
511 3 2 2 2 464 463 563 556
512 3 2 2 2 464 556 564 465
513 3 2 2 2 474 475 557 591
514 3 2 2 2 478 479 612 571
515 3 2 2 2 446 485 553 484
516 3 2 2 2 485 486 600 553
517 3 2 2 2 506 550 603 505
518 3 2 2 2 506 507 601 550
519 3 2 2 2 510 575 604 509
520 3 2 2 2 595 534 511 512
521 3 2 2 2 510 511 534 575
522 3 2 2 2 562 589 518 519
523 3 2 2 2 521 522 558 590
524 3 2 2 2 524 525 637 586
525 3 2 2 2 524 605 642 525
526 3 2 2 2 525 526 676 637
527 3 2 2 2 525 642 675 526
528 3 2 2 2 528 527 712 695
529 3 2 2 2 633 631 612 540
530 3 2 2 2 588 636 584 547
531 3 2 2 2 603 550 677 643
532 3 2 2 2 601 644 677 550
533 3 2 2 2 640 627 593 551
534 3 2 2 2 653 597 552 569
535 3 2 2 2 592 626 689 560
536 3 2 2 2 602 639 653 569
537 3 2 2 2 536 570 645 580
538 3 2 2 2 647 600 572 632
539 3 2 2 2 534 579 629 575
540 3 2 2 2 629 579 661 697
541 3 2 2 2 536 580 639 602
542 3 2 2 2 670 639 580 668
543 3 2 2 2 706 668 580 645
544 3 2 2 2 664 632 583 704
545 3 2 2 2 636 637 676 584
546 3 2 2 2 574 625 679 594
547 3 2 2 2 571 612 631 654
548 3 2 2 2 709 679 625 716
549 3 2 2 2 622 669 711 626
550 3 2 2 2 689 626 711 726
551 3 2 2 2 645 627 660 706
552 3 2 2 2 654 631 662 705
553 3 2 2 2 631 633 702 662
554 3 2 2 2 627 640 696 660
555 3 2 2 2 579 646 713 661
556 3 2 2 2 651 652 722 681
557 3 2 2 2 713 769 733 661
558 3 2 2 2 754 769 713 678
559 3 2 2 2 755 800 758 693
560 3 2 2 2 690 725 756 694
561 3 2 2 2 662 702 768 736
562 3 2 2 2 662 736 767 705
563 3 2 2 2 695 738 761 710
564 3 2 2 2 697 771 737 714
565 3 2 2 2 769 818 793 733
566 3 2 2 2 767 736 799 798
567 3 2 2 2 768 805 799 736
568 3 2 2 2 743 740 805 768
569 3 2 2 2 732 746 789 759
570 3 2 2 2 710 761 800 755
571 3 2 2 2 817 810 758 800
572 3 2 2 2 800 761 803 817
573 3 2 2 2 783 762 795 819
574 3 2 2 2 729 767 798 785
575 3 2 2 2 733 793 804 771
576 3 2 2 2 826 807 783 819
577 3 2 2 2 821 784 828 853
578 3 2 2 2 758 810 833 792
579 3 2 2 2 825 792 833 829
580 3 2 2 2 831 840 818 794
581 3 2 2 2 805 797 816 799
582 3 2 2 2 799 816 841 798
583 3 2 2 2 793 811 834 804
584 3 2 2 2 831 806 842 868
585 3 2 2 2 803 807 836 817
586 3 2 2 2 826 847 836 807
587 3 2 2 2 825 829 835 808
588 3 2 2 2 812 808 835 857
589 3 2 2 2 857 841 816 812
590 3 2 2 2 824 834 855 823
591 3 2 2 2 847 826 856 859
592 3 2 2 2 810 852 843 833
593 3 2 2 2 863 873 868 842
594 3 2 2 2 870 844 867 874
595 3 2 2 2 875 865 847 859
596 3 2 2 2 859 856 866 872
597 3 2 2 2 531 693 731 447
598 3 2 2 2 456 455 567 535
599 3 2 2 2 443 523 563 463
600 3 2 2 2 444 465 564 503
601 3 2 2 2 558 466 467 552
602 3 2 2 2 569 552 467 468
603 3 2 2 2 602 569 468 469
604 3 2 2 2 593 472 473 551
605 3 2 2 2 591 551 473 474
606 3 2 2 2 600 486 487 572
607 3 2 2 2 493 548 573 492
608 3 2 2 2 495 560 615 494
609 3 2 2 2 594 498 499 574
610 3 2 2 2 601 507 508 538
611 3 2 2 2 565 595 512 513
612 3 2 2 2 586 563 523 524
613 3 2 2 2 632 572 543 583
614 3 2 2 2 636 588 544 582
615 3 2 2 2 625 574 547 584
616 3 2 2 2 652 651 568 609
617 3 2 2 2 630 682 715 585
618 3 2 2 2 568 651 688 610
619 3 2 2 2 605 656 690 642
620 3 2 2 2 577 650 721 658
621 3 2 2 2 715 748 772 665
622 3 2 2 2 770 747 681 722
623 3 2 2 2 750 742 707 727
624 3 2 2 2 693 758 792 731
625 3 2 2 2 764 731 792 825
626 3 2 2 2 795 762 739 747
627 3 2 2 2 770 820 795 747
628 3 2 2 2 748 764 802 772
629 3 2 2 2 751 784 821 774
630 3 2 2 2 730 776 822 786
631 3 2 2 2 841 809 785 798
632 3 2 2 2 861 838 823 855
633 3 2 2 2 819 837 856 826
634 3 2 2 2 851 829 833 843
635 3 2 2 2 845 830 853 862
636 3 2 2 2 809 849 867 832
637 3 2 2 2 861 866 854 838
638 3 2 2 2 726 531 447 682
639 3 2 2 2 682 447 748 715
640 3 2 2 2 764 748 447 731
641 3 2 2 2 442 504 566 448
642 3 2 2 2 449 448 566 554
643 3 2 2 2 451 450 606 542
644 3 2 2 2 449 554 606 450
645 3 2 2 2 453 452 607 537
646 3 2 2 2 451 542 607 452
647 3 2 2 2 453 537 608 454
648 3 2 2 2 455 454 608 567
649 3 2 2 2 609 457 456 535
650 3 2 2 2 610 459 458 568
651 3 2 2 2 457 609 568 458
652 3 2 2 2 459 610 546 460
653 3 2 2 2 460 546 611 461
654 3 2 2 2 462 461 611 555
655 3 2 2 2 443 462 555 523
656 3 2 2 2 602 469 470 536
657 3 2 2 2 612 479 480 540
658 3 2 2 2 587 540 480 481
659 3 2 2 2 572 487 488 543
660 3 2 2 2 490 539 613 489
661 3 2 2 2 488 489 613 543
662 3 2 2 2 490 491 614 539
663 3 2 2 2 492 573 614 491
664 3 2 2 2 493 494 615 548
665 3 2 2 2 574 499 500 547
666 3 2 2 2 504 505 603 566
667 3 2 2 2 523 555 605 524
668 3 2 2 2 526 675 712 527
669 3 2 2 2 526 527 716 676
670 3 2 2 2 529 710 755 530
671 3 2 2 2 531 726 711 530
672 3 2 2 2 530 755 693 531
673 3 2 2 2 609 535 577 652
674 3 2 2 2 644 601 538 617
675 3 2 2 2 614 628 683 539
676 3 2 2 2 613 539 683 649
677 3 2 2 2 610 688 619 546
678 3 2 2 2 630 585 548 615
679 3 2 2 2 566 603 643 554
680 3 2 2 2 535 567 650 577
681 3 2 2 2 548 585 655 573
682 3 2 2 2 614 573 655 628
683 3 2 2 2 604 575 629 684
684 3 2 2 2 722 652 577 658
685 3 2 2 2 543 613 649 583
686 3 2 2 2 704 583 649 663
687 3 2 2 2 716 625 584 676
688 3 2 2 2 655 585 715 665
689 3 2 2 2 538 604 684 617
690 3 2 2 2 555 611 656 605
691 3 2 2 2 542 606 685 620
692 3 2 2 2 554 643 685 606
693 3 2 2 2 537 607 686 616
694 3 2 2 2 542 620 686 607
695 3 2 2 2 537 616 687 608
696 3 2 2 2 567 608 687 650
697 3 2 2 2 546 619 656 611
698 3 2 2 2 560 689 630 615
699 3 2 2 2 687 616 717 698
700 3 2 2 2 725 690 656 619
701 3 2 2 2 655 665 700 628
702 3 2 2 2 726 682 630 689
703 3 2 2 2 617 666 699 644
704 3 2 2 2 687 698 721 650
705 3 2 2 2 688 651 681 701
706 3 2 2 2 722 658 730 770
707 3 2 2 2 746 732 660 696
708 3 2 2 2 771 697 661 733
709 3 2 2 2 649 683 723 663
710 3 2 2 2 700 665 772 735
711 3 2 2 2 617 684 714 666
712 3 2 2 2 714 737 749 666
713 3 2 2 2 642 690 694 675
714 3 2 2 2 643 677 724 685
715 3 2 2 2 644 699 724 677
716 3 2 2 2 775 751 680 720
717 3 2 2 2 739 701 681 747
718 3 2 2 2 628 700 723 683
719 3 2 2 2 620 685 724 718
720 3 2 2 2 616 686 752 717
721 3 2 2 2 620 718 752 686
722 3 2 2 2 619 688 701 725
723 3 2 2 2 675 694 745 712
724 3 2 2 2 724 699 753 718
725 3 2 2 2 666 749 753 699
726 3 2 2 2 698 717 763 734
727 3 2 2 2 658 721 776 730
728 3 2 2 2 698 734 776 721
729 3 2 2 2 700 735 777 723
730 3 2 2 2 663 723 777 740
731 3 2 2 2 701 739 756 725
732 3 2 2 2 820 770 730 786
733 3 2 2 2 772 802 787 735
734 3 2 2 2 805 740 777 797
735 3 2 2 2 707 742 760 741
736 3 2 2 2 790 760 742 766
737 3 2 2 2 692 744 788 757
738 3 2 2 2 694 756 782 745
739 3 2 2 2 738 745 782 779
740 3 2 2 2 789 746 774 821
741 3 2 2 2 737 778 780 749
742 3 2 2 2 742 750 773 766
743 3 2 2 2 815 784 751 775
744 3 2 2 2 718 753 781 752
745 3 2 2 2 717 752 781 763
746 3 2 2 2 749 780 781 753
747 3 2 2 2 692 757 794 754
748 3 2 2 2 769 754 794 818
749 3 2 2 2 739 762 782 756
750 3 2 2 2 782 762 783 779
751 3 2 2 2 781 780 801 763
752 3 2 2 2 734 763 801 796
753 3 2 2 2 802 764 825 808
754 3 2 2 2 737 771 804 778
755 3 2 2 2 734 796 822 776
756 3 2 2 2 735 787 797 777
757 3 2 2 2 780 778 824 801
758 3 2 2 2 834 824 778 804
759 3 2 2 2 807 803 779 783
760 3 2 2 2 820 786 854 837
761 3 2 2 2 816 797 787 812
762 3 2 2 2 808 812 787 802
763 3 2 2 2 757 788 839 806
764 3 2 2 2 791 814 839 788
765 3 2 2 2 830 789 821 853
766 3 2 2 2 757 806 831 794
767 3 2 2 2 837 819 795 820
768 3 2 2 2 796 801 824 823
769 3 2 2 2 817 836 852 810
770 3 2 2 2 855 834 811 850
771 3 2 2 2 850 811 840 846
772 3 2 2 2 796 823 838 822
773 3 2 2 2 786 822 838 854
774 3 2 2 2 828 832 867 844
775 3 2 2 2 829 851 864 835
776 3 2 2 2 847 865 852 836
777 3 2 2 2 866 856 837 854
778 3 2 2 2 827 845 869 848
779 3 2 2 2 842 848 869 863
780 3 2 2 2 861 855 850 876
781 3 2 2 2 846 860 876 850
782 3 2 2 2 843 858 871 851
783 3 2 2 2 874 864 851 871
784 3 2 2 2 865 875 881 858
785 3 2 2 2 871 858 881 879
786 3 2 2 2 872 876 860 882
787 3 2 2 2 873 880 882 860
788 3 2 2 2 844 870 878 862
789 3 2 2 2 878 877 863 869
790 3 2 2 2 571 533 477 478
791 3 2 2 2 774 708 680 751
792 3 2 2 2 832 815 785 809
793 3 2 2 2 848 842 806 839
794 3 2 2 2 599 549 482 483
795 3 2 2 2 549 621 691 587
796 3 2 2 2 728 691 621 664
797 3 2 2 2 857 849 809 841
798 3 2 2 2 831 868 846 840
799 3 2 2 2 860 846 868 873
800 3 2 2 2 502 544 588 501
801 3 2 3 3 1318 1323 1316 1322
802 3 2 3 3 1316 1323 1321 1317
803 3 2 3 3 1133 1213 1164 1156
804 3 2 3 3 1243 1225 1249 1268
805 3 2 3 3 1316 1317 1319 1308
806 3 2 3 3 1124 1170 1148 1089
807 3 2 3 3 941 1021 980 940
808 3 2 3 3 960 1022 981 959
809 3 2 3 3 1019 1067 1105 1070
810 3 2 3 3 1056 1098 1136 1106
811 3 2 3 3 1095 1106 1136 1138
812 3 2 3 3 1247 1261 1260 1267
813 3 2 3 3 983 1024 1069 1009
814 3 2 3 3 1163 1197 1220 1224
815 3 2 3 3 1299 1273 1264 1286
816 3 2 3 3 1310 1307 1319 1317
817 3 2 3 3 1057 1069 1024 968
818 3 2 3 3 1224 1220 1243 1251
819 3 2 3 3 1268 1264 1251 1243
820 3 2 3 3 1323 1318 1315 1320
821 3 2 3 3 982 1048 1101 1058
822 3 2 3 3 1141 1096 1166 1173
823 3 2 3 3 1057 1112 1137 1102
824 3 2 3 3 1155 1102 1163 1175
825 3 2 3 3 1171 1159 1225 1196
826 3 2 3 3 920 921 975 1020
827 3 2 3 3 1227 1244 1258 1226
828 3 2 3 3 915 916 991 989
829 3 2 3 3 921 922 1035 975
830 3 2 3 3 985 923 924 1003
831 3 2 3 3 936 937 966 992
832 3 2 3 3 977 942 943 987
833 3 2 3 3 955 956 968 1024
834 3 2 3 3 978 961 962 988
835 3 2 3 3 1186 1214 1192 1124
836 3 2 3 3 1091 1134 1198 1159
837 3 2 3 3 1189 1219 1205 1169
838 3 2 3 3 1190 1226 1258 1216
839 3 2 3 3 1218 1252 1266 1250
840 3 2 3 3 1269 1254 1288 1283
841 3 2 3 3 1300 1295 1283 1298
842 3 2 3 3 948 949 1038 974
843 3 2 3 3 977 987 998 1018
844 3 2 3 3 978 988 999 1019
845 3 2 3 3 1101 1140 1121 1058
846 3 2 3 3 1136 1127 1176 1138
847 3 2 3 3 1185 1140 1139 1195
848 3 2 3 3 1214 1247 1217 1192
849 3 2 3 3 1187 1224 1251 1215
850 3 2 3 3 1299 1307 1292 1273
851 3 2 3 3 917 1031 991 916
852 3 2 3 3 993 935 936 992
853 3 2 3 3 983 954 955 1024
854 3 2 3 3 992 1072 1010 993
855 3 2 3 3 967 1027 1076 1015
856 3 2 3 3 966 1026 1059 1025
857 3 2 3 3 1322 1298 1311 1318
858 3 2 3 3 910 911 1000 990
859 3 2 3 3 911 912 1001 1000
860 3 2 3 3 918 919 1002 969
861 3 2 3 3 929 930 1036 973
862 3 2 3 3 935 993 1005 934
863 3 2 3 3 966 937 938 1026
864 3 2 3 3 954 983 994 953
865 3 2 3 3 968 956 957 1028
866 3 2 3 3 1066 1014 969 1002
867 3 2 3 3 989 991 1063 1011
868 3 2 3 3 966 1025 1072 992
869 3 2 3 3 1018 998 1029 1056
870 3 2 3 3 1019 999 1030 1067
871 3 2 3 3 985 1003 1032 1023
872 3 2 3 3 1141 1088 1010 1072
873 3 2 3 3 1099 1089 1082 1014
874 3 2 3 3 985 1023 1085 1035
875 3 2 3 3 1082 1089 1148 1063
876 3 2 3 3 1011 1063 1148 1110
877 3 2 3 3 1014 1066 1156 1099
878 3 2 3 3 1089 1099 1186 1124
879 3 2 3 3 1088 1141 1173 1122
880 3 2 3 3 1252 1218 1161 1200
881 3 2 3 3 1166 1226 1190 1173
882 3 2 3 3 904 903 1029 998
883 3 2 3 3 998 987 905 904
884 3 2 3 3 885 905 987 943
885 3 2 3 3 999 988 906 907
886 3 2 3 3 886 906 988 962
887 3 2 3 3 907 908 1030 999
888 3 2 3 3 1020 1002 919 920
889 3 2 3 3 922 923 985 1035
890 3 2 3 3 887 925 1003 924
891 3 2 3 3 925 926 1032 1003
892 3 2 3 3 946 979 1037 945
893 3 2 3 3 946 947 1034 979
894 3 2 3 3 950 1007 1038 949
895 3 2 3 3 1027 967 951 952
896 3 2 3 3 950 951 967 1007
897 3 2 3 3 1047 964 1068 1100
898 3 2 3 3 1014 1082 1031 969
899 3 2 3 3 1056 1029 971 1098
900 3 2 3 3 1046 1052 1098 971
901 3 2 3 3 1035 1085 1054 975
902 3 2 3 3 1037 979 1103 1074
903 3 2 3 3 1034 1075 1103 979
904 3 2 3 3 1021 1071 1017 980
905 3 2 3 3 1046 984 1079 1052
906 3 2 3 3 964 989 1011 1068
907 3 2 3 3 1063 991 1031 1082
908 3 2 3 3 983 1009 1060 994
909 3 2 3 3 1076 1027 994 1060
910 3 2 3 3 993 1010 1062 1005
911 3 2 3 3 980 1017 1073 1006
912 3 2 3 3 1059 1026 1006 1073
913 3 2 3 3 967 1015 1064 1007
914 3 2 3 3 981 1016 1065 1008
915 3 2 3 3 1108 1060 1009 1086
916 3 2 3 3 1069 1155 1086 1009
917 3 2 3 3 1062 1010 1088 1118
918 3 2 3 3 1068 1011 1110 1135
919 3 2 3 3 1070 1105 1094 1016
920 3 2 3 3 1107 1073 1017 1095
921 3 2 3 3 1071 1106 1095 1017
922 3 2 3 3 975 1054 1111 1020
923 3 2 3 3 1002 1020 1111 1066
924 3 2 3 3 982 1058 1023 1032
925 3 2 3 3 1145 1096 1025 1059
926 3 2 3 3 968 1028 1112 1057
927 3 2 3 3 1008 1065 1112 1028
928 3 2 3 3 972 1039 1067 1030
929 3 2 3 3 1005 1062 1078 1033
930 3 2 3 3 1067 1039 1114 1105
931 3 2 3 3 1079 1090 1127 1052
932 3 2 3 3 1136 1098 1052 1127
933 3 2 3 3 1140 1101 1053 1139
934 3 2 3 3 1104 1125 1139 1053
935 3 2 3 3 1018 1056 1106 1071
936 3 2 3 3 1023 1058 1121 1085
937 3 2 3 3 1073 1107 1145 1059
938 3 2 3 3 1078 1062 1118 1143
939 3 2 3 3 1016 1094 1126 1065
940 3 2 3 3 1137 1112 1065 1126
941 3 2 3 3 1100 1068 1135 1178
942 3 2 3 3 1057 1102 1155 1069
943 3 2 3 3 1025 1096 1141 1072
944 3 2 3 3 1015 1076 1149 1092
945 3 2 3 3 1060 1108 1149 1076
946 3 2 3 3 1012 1093 1142 1077
947 3 2 3 3 1104 1077 1142 1125
948 3 2 3 3 1012 1078 1143 1093
949 3 2 3 3 1079 1083 1152 1090
950 3 2 3 3 1054 1085 1121 1120
951 3 2 3 3 1123 1086 1155 1175
952 3 2 3 3 1127 1090 1165 1176
953 3 2 3 3 1152 1184 1165 1090
954 3 2 3 3 1143 1200 1161 1093
955 3 2 3 3 1156 1164 1186 1099
956 3 2 3 3 1084 1100 1178 1134
957 3 2 3 3 1197 1163 1102 1137
958 3 2 3 3 1095 1138 1167 1107
959 3 2 3 3 1145 1107 1167 1206
960 3 2 3 3 1086 1123 1181 1108
961 3 2 3 3 1054 1120 1133 1111
962 3 2 3 3 1088 1122 1174 1118
963 3 2 3 3 1140 1185 1120 1121
964 3 2 3 3 1181 1123 1204 1236
965 3 2 3 3 1120 1185 1213 1133
966 3 2 3 3 1167 1138 1176 1201
967 3 2 3 3 1125 1168 1195 1139
968 3 2 3 3 1093 1161 1199 1142
969 3 2 3 3 1125 1142 1199 1168
970 3 2 3 3 1118 1174 1200 1143
971 3 2 3 3 1096 1145 1206 1166
972 3 2 3 3 1092 1149 1207 1158
973 3 2 3 3 1108 1181 1207 1149
974 3 2 3 3 1176 1165 1191 1201
975 3 2 3 3 1227 1226 1166 1206
976 3 2 3 3 1201 1227 1206 1167
977 3 2 3 3 1199 1229 1239 1168
978 3 2 3 3 1195 1168 1239 1240
979 3 2 3 3 1169 1170 1233 1189
980 3 2 3 3 1124 1192 1233 1170
981 3 2 3 3 1122 1173 1190 1202
982 3 2 3 3 1122 1202 1228 1174
983 3 2 3 3 1200 1174 1228 1252
984 3 2 3 3 1157 1177 1234 1188
985 3 2 3 3 1134 1178 1235 1198
986 3 2 3 3 1135 1205 1235 1178
987 3 2 3 3 1165 1184 1230 1191
988 3 2 3 3 1193 1259 1230 1184
989 3 2 3 3 1164 1238 1214 1186
990 3 2 3 3 1157 1188 1231 1212
991 3 2 3 3 1233 1262 1248 1189
992 3 2 3 3 1201 1191 1244 1227
993 3 2 3 3 1185 1195 1240 1213
994 3 2 3 3 1225 1243 1220 1196
995 3 2 3 3 1159 1198 1249 1225
996 3 2 3 3 1242 1249 1198 1235
997 3 2 3 3 1161 1218 1229 1199
998 3 2 3 3 1219 1242 1235 1205
999 3 2 3 3 1181 1236 1221 1207
1000 3 2 3 3 1158 1207 1221 1253
1001 3 2 3 3 1164 1213 1240 1238
1002 3 2 3 3 1238 1261 1247 1214
1003 3 2 3 3 1229 1218 1250 1260
1004 3 2 3 3 1189 1248 1279 1219
1005 3 2 3 3 1266 1252 1228 1269
1006 3 2 3 3 1202 1254 1269 1228
1007 3 2 3 3 1238 1240 1239 1261
1008 3 2 3 3 1249 1242 1278 1268
1009 3 2 3 3 1219 1279 1278 1242
1010 3 2 3 3 1221 1246 1272 1253
1011 3 2 3 3 1260 1250 1296 1267
1012 3 2 3 3 1277 1255 1292 1303
1013 3 2 3 3 1264 1268 1278 1286
1014 3 2 3 3 1246 1277 1303 1282
1015 3 2 3 3 1286 1278 1279 1287
1016 3 2 3 3 1303 1310 1312 1282
1017 3 2 3 3 1283 1288 1311 1298
1018 3 2 3 3 1285 1293 1290 1305
1019 3 2 3 3 1307 1310 1303 1292
1020 3 2 3 3 1305 1312 1321 1309
1021 3 2 3 3 1323 1320 1309 1321
1022 3 2 3 3 989 964 914 915
1023 3 2 3 3 1026 938 939 1006
1024 3 2 3 3 1034 947 948 974
1025 3 2 3 3 994 1027 952 953
1026 3 2 3 3 1028 957 958 1008
1027 3 2 3 3 1044 963 1109 1049
1028 3 2 3 3 1043 1061 1109 963
1029 3 2 3 3 1033 1078 1012 965
1030 3 2 3 3 1104 1053 973 1036
1031 3 2 3 3 1101 1048 973 1053
1032 3 2 3 3 1022 1070 1016 981
1033 3 2 3 3 972 990 1080 1039
1034 3 2 3 3 1004 1077 1104 1036
1035 3 2 3 3 1109 1132 1179 1049
1036 3 2 3 3 1015 1092 1128 1064
1037 3 2 3 3 1061 1081 1151 1087
1038 3 2 3 3 1061 1087 1132 1109
1039 3 2 3 3 1177 1157 1132 1087
1040 3 2 3 3 1203 1128 1092 1158
1041 3 2 3 3 1105 1114 1144 1094
1042 3 2 3 3 1205 1135 1110 1169
1043 3 2 3 3 1049 1179 1131 1119
1044 3 2 3 3 1132 1157 1212 1179
1045 3 2 3 3 1203 1158 1253 1223
1046 3 2 3 3 1190 1216 1254 1202
1047 3 2 3 3 1267 1280 1217 1247
1048 3 2 3 3 1253 1272 1256 1223
1049 3 2 3 3 1191 1230 1271 1244
1050 3 2 3 3 1302 1281 1241 1276
1051 3 2 3 3 1217 1280 1291 1262
1052 3 2 3 3 1320 1315 1301 1281
1053 3 2 3 3 1298 1322 1314 1300
1054 3 2 3 3 1281 1302 1309 1320
1055 3 2 3 3 1029 903 884 971
1056 3 2 3 3 883 944 995 888
1057 3 2 3 3 889 888 995 986
1058 3 2 3 3 891 890 1040 976
1059 3 2 3 3 889 986 1040 890
1060 3 2 3 3 893 892 1041 970
1061 3 2 3 3 891 976 1041 892
1062 3 2 3 3 893 970 1042 894
1063 3 2 3 3 895 894 1042 996
1064 3 2 3 3 1043 896 895 996
1065 3 2 3 3 1044 898 897 963
1066 3 2 3 3 896 1043 963 897
1067 3 2 3 3 898 1044 997 899
1068 3 2 3 3 901 900 1045 984
1069 3 2 3 3 899 997 1045 900
1070 3 2 3 3 884 902 1046 971
1071 3 2 3 3 901 984 1046 902
1072 3 2 3 3 1030 908 909 972
1073 3 2 3 3 909 910 990 972
1074 3 2 3 3 913 1047 1001 912
1075 3 2 3 3 1047 913 914 964
1076 3 2 3 3 1032 926 927 982
1077 3 2 3 3 929 973 1048 928
1078 3 2 3 3 927 928 1048 982
1079 3 2 3 3 1036 930 931 1004
1080 3 2 3 3 1033 965 932 933
1081 3 2 3 3 931 932 965 1004
1082 3 2 3 3 1005 1033 933 934
1083 3 2 3 3 1006 939 940 980
1084 3 2 3 3 944 945 1037 995
1085 3 2 3 3 1008 958 959 981
1086 3 2 3 3 1077 1004 965 1012
1087 3 2 3 3 1075 1034 974 1051
1088 3 2 3 3 1071 1021 977 1018
1089 3 2 3 3 1070 1022 978 1019
1090 3 2 3 3 995 1037 1074 986
1091 3 2 3 3 1000 1013 1080 990
1092 3 2 3 3 1043 996 1081 1061
1093 3 2 3 3 1119 997 1044 1049
1094 3 2 3 3 1000 1001 1084 1013
1095 3 2 3 3 1100 1084 1001 1047
1096 3 2 3 3 1038 1007 1064 1113
1097 3 2 3 3 1134 1091 1013 1084
1098 3 2 3 3 974 1038 1113 1051
1099 3 2 3 3 976 1040 1115 1055
1100 3 2 3 3 986 1074 1115 1040
1101 3 2 3 3 970 1041 1116 1050
1102 3 2 3 3 976 1055 1116 1041
1103 3 2 3 3 970 1050 1117 1042
1104 3 2 3 3 996 1042 1117 1081
1105 3 2 3 3 984 1045 1083 1079
1106 3 2 3 3 997 1119 1083 1045
1107 3 2 3 3 1117 1050 1146 1129
1108 3 2 3 3 1051 1097 1130 1075
1109 3 2 3 3 1013 1091 1150 1080
1110 3 2 3 3 1039 1080 1150 1114
1111 3 2 3 3 1117 1129 1151 1081
1112 3 2 3 3 1159 1171 1150 1091
1113 3 2 3 3 1051 1113 1153 1097
1114 3 2 3 3 1153 1162 1180 1097
1115 3 2 3 3 1074 1103 1154 1115
1116 3 2 3 3 1075 1130 1154 1103
1117 3 2 3 3 1170 1169 1110 1148
1118 3 2 3 3 1064 1128 1153 1113
1119 3 2 3 3 1055 1115 1154 1147
1120 3 2 3 3 1050 1116 1182 1146
1121 3 2 3 3 1055 1147 1182 1116
1122 3 2 3 3 1083 1119 1131 1152
1123 3 2 3 3 1094 1144 1172 1126
1124 3 2 3 3 1137 1126 1172 1197
1125 3 2 3 3 1153 1128 1203 1162
1126 3 2 3 3 1154 1130 1183 1147
1127 3 2 3 3 1097 1180 1183 1130
1128 3 2 3 3 1193 1184 1152 1131
1129 3 2 3 3 1114 1150 1171 1144
1130 3 2 3 3 1196 1172 1144 1171
1131 3 2 3 3 1129 1146 1194 1160
1132 3 2 3 3 1129 1160 1208 1151
1133 3 2 3 3 1087 1151 1208 1177
1134 3 2 3 3 1208 1160 1232 1222
1135 3 2 3 3 1196 1220 1197 1172
1136 3 2 3 3 1123 1175 1187 1204
1137 3 2 3 3 1131 1179 1212 1193
1138 3 2 3 3 1162 1209 1210 1180
1139 3 2 3 3 1147 1183 1211 1182
1140 3 2 3 3 1146 1182 1211 1194
1141 3 2 3 3 1180 1210 1211 1183
1142 3 2 3 3 1231 1188 1241 1270
1143 3 2 3 3 1234 1276 1241 1188
1144 3 2 3 3 1259 1193 1212 1231
1145 3 2 3 3 1211 1210 1237 1194
1146 3 2 3 3 1160 1194 1237 1232
1147 3 2 3 3 1162 1203 1223 1209
1148 3 2 3 3 1187 1215 1255 1204
1149 3 2 3 3 1177 1208 1222 1234
1150 3 2 3 3 1210 1209 1257 1237
1151 3 2 3 3 1223 1256 1257 1209
1152 3 2 3 3 1292 1255 1215 1273
1153 3 2 3 3 1251 1264 1273 1215
1154 3 2 3 3 1258 1265 1274 1216
1155 3 2 3 3 1254 1216 1274 1288
1156 3 2 3 3 1192 1217 1262 1233
1157 3 2 3 3 1276 1234 1222 1245
1158 3 2 3 3 1261 1239 1229 1260
1159 3 2 3 3 1259 1294 1271 1230
1160 3 2 3 3 1259 1231 1270 1294
1161 3 2 3 3 1222 1232 1275 1245
1162 3 2 3 3 1237 1257 1275 1232
1163 3 2 3 3 1221 1236 1277 1246
1164 3 2 3 3 1204 1255 1277 1236
1165 3 2 3 3 1301 1270 1241 1281
1166 3 2 3 3 1258 1244 1271 1265
1167 3 2 3 3 1293 1285 1245 1275
1168 3 2 3 3 1276 1245 1285 1302
1169 3 2 3 3 1262 1291 1263 1248
1170 3 2 3 3 1296 1250 1266 1295
1171 3 2 3 3 1293 1275 1257 1256
1172 3 2 3 3 1293 1256 1272 1290
1173 3 2 3 3 1248 1263 1287 1279
1174 3 2 3 3 1291 1306 1297 1263
1175 3 2 3 3 1269 1283 1295 1266
1176 3 2 3 3 1280 1267 1296 1284
1177 3 2 3 3 1289 1294 1270 1301
1178 3 2 3 3 1265 1271 1294 1289
1179 3 2 3 3 1246 1282 1290 1272
1180 3 2 3 3 1311 1288 1274 1304
1181 3 2 3 3 1265 1289 1304 1274
1182 3 2 3 3 1312 1305 1290 1282
1183 3 2 3 3 1280 1284 1306 1291
1184 3 2 3 3 1295 1300 1284 1296
1185 3 2 3 3 1314 1306 1284 1300
1186 3 2 3 3 1305 1309 1302 1285
1187 3 2 3 3 1263 1297 1313 1287
1188 3 2 3 3 1286 1287 1313 1299
1189 3 2 3 3 1314 1308 1297 1306
1190 3 2 3 3 1319 1313 1297 1308
1191 3 2 3 3 1307 1299 1313 1319
1192 3 2 3 3 1289 1301 1315 1304
1193 3 2 3 3 1321 1312 1310 1317
1194 3 2 3 3 969 1031 917 918
1195 3 2 3 3 1133 1156 1066 1111
1196 3 2 3 3 1311 1304 1315 1318
1197 3 2 3 3 1163 1224 1187 1175
1198 3 2 3 3 942 977 1021 941
1199 3 2 3 3 961 978 1022 960
1200 3 2 3 3 1308 1314 1322 1316
1201 3 2 4 4 1759 1764 1757 1763
1202 3 2 4 4 1757 1764 1762 1758
1203 3 2 4 4 1574 1654 1605 1597
1204 3 2 4 4 1684 1666 1690 1709
1205 3 2 4 4 1757 1758 1760 1749
1206 3 2 4 4 1565 1611 1589 1530
1207 3 2 4 4 1382 1462 1421 1381
1208 3 2 4 4 1401 1463 1422 1400
1209 3 2 4 4 1460 1508 1546 1511
1210 3 2 4 4 1497 1539 1577 1547
1211 3 2 4 4 1536 1547 1577 1579
1212 3 2 4 4 1688 1702 1701 1708
1213 3 2 4 4 1424 1465 1510 1450
1214 3 2 4 4 1604 1638 1661 1665
1215 3 2 4 4 1740 1714 1705 1727
1216 3 2 4 4 1751 1748 1760 1758
1217 3 2 4 4 1498 1510 1465 1409
1218 3 2 4 4 1665 1661 1684 1692
1219 3 2 4 4 1709 1705 1692 1684
1220 3 2 4 4 1764 1759 1756 1761
1221 3 2 4 4 1423 1489 1542 1499
1222 3 2 4 4 1582 1537 1607 1614
1223 3 2 4 4 1498 1553 1578 1543
1224 3 2 4 4 1596 1543 1604 1616
1225 3 2 4 4 1612 1600 1666 1637
1226 3 2 4 4 1361 1362 1416 1461
1227 3 2 4 4 1668 1685 1699 1667
1228 3 2 4 4 1356 1357 1432 1430
1229 3 2 4 4 1362 1363 1476 1416
1230 3 2 4 4 1426 1364 1365 1444
1231 3 2 4 4 1377 1378 1407 1433
1232 3 2 4 4 1418 1383 1384 1428
1233 3 2 4 4 1396 1397 1409 1465
1234 3 2 4 4 1419 1402 1403 1429
1235 3 2 4 4 1627 1655 1633 1565
1236 3 2 4 4 1532 1575 1639 1600
1237 3 2 4 4 1630 1660 1646 1610
1238 3 2 4 4 1631 1667 1699 1657
1239 3 2 4 4 1659 1693 1707 1691
1240 3 2 4 4 1710 1695 1729 1724
1241 3 2 4 4 1741 1736 1724 1739
1242 3 2 4 4 1389 1390 1479 1415
1243 3 2 4 4 1418 1428 1439 1459
1244 3 2 4 4 1419 1429 1440 1460
1245 3 2 4 4 1542 1581 1562 1499
1246 3 2 4 4 1577 1568 1617 1579
1247 3 2 4 4 1626 1581 1580 1636
1248 3 2 4 4 1655 1688 1658 1633
1249 3 2 4 4 1628 1665 1692 1656
1250 3 2 4 4 1740 1748 1733 1714
1251 3 2 4 4 1358 1472 1432 1357
1252 3 2 4 4 1434 1376 1377 1433
1253 3 2 4 4 1424 1395 1396 1465
1254 3 2 4 4 1433 1513 1451 1434
1255 3 2 4 4 1408 1468 1517 1456
1256 3 2 4 4 1407 1467 1500 1466
1257 3 2 4 4 1763 1739 1752 1759
1258 3 2 4 4 1351 1352 1441 1431
1259 3 2 4 4 1352 1353 1442 1441
1260 3 2 4 4 1359 1360 1443 1410
1261 3 2 4 4 1370 1371 1477 1414
1262 3 2 4 4 1376 1434 1446 1375
1263 3 2 4 4 1407 1378 1379 1467
1264 3 2 4 4 1395 1424 1435 1394
1265 3 2 4 4 1409 1397 1398 1469
1266 3 2 4 4 1507 1455 1410 1443
1267 3 2 4 4 1430 1432 1504 1452
1268 3 2 4 4 1407 1466 1513 1433
1269 3 2 4 4 1459 1439 1470 1497
1270 3 2 4 4 1460 1440 1471 1508
1271 3 2 4 4 1426 1444 1473 1464
1272 3 2 4 4 1582 1529 1451 1513
1273 3 2 4 4 1540 1530 1523 1455
1274 3 2 4 4 1426 1464 1526 1476
1275 3 2 4 4 1523 1530 1589 1504
1276 3 2 4 4 1452 1504 1589 1551
1277 3 2 4 4 1455 1507 1597 1540
1278 3 2 4 4 1530 1540 1627 1565
1279 3 2 4 4 1529 1582 1614 1563
1280 3 2 4 4 1693 1659 1602 1641
1281 3 2 4 4 1607 1667 1631 1614
1282 3 2 4 4 1345 1344 1470 1439
1283 3 2 4 4 1439 1428 1346 1345
1284 3 2 4 4 1326 1346 1428 1384
1285 3 2 4 4 1440 1429 1347 1348
1286 3 2 4 4 1327 1347 1429 1403
1287 3 2 4 4 1348 1349 1471 1440
1288 3 2 4 4 1461 1443 1360 1361
1289 3 2 4 4 1363 1364 1426 1476
1290 3 2 4 4 1328 1366 1444 1365
1291 3 2 4 4 1366 1367 1473 1444
1292 3 2 4 4 1387 1420 1478 1386
1293 3 2 4 4 1387 1388 1475 1420
1294 3 2 4 4 1391 1448 1479 1390
1295 3 2 4 4 1468 1408 1392 1393
1296 3 2 4 4 1391 1392 1408 1448
1297 3 2 4 4 1488 1405 1509 1541
1298 3 2 4 4 1455 1523 1472 1410
1299 3 2 4 4 1497 1470 1412 1539
1300 3 2 4 4 1487 1493 1539 1412
1301 3 2 4 4 1476 1526 1495 1416
1302 3 2 4 4 1478 1420 1544 1515
1303 3 2 4 4 1475 1516 1544 1420
1304 3 2 4 4 1462 1512 1458 1421
1305 3 2 4 4 1487 1425 1520 1493
1306 3 2 4 4 1405 1430 1452 1509
1307 3 2 4 4 1504 1432 1472 1523
1308 3 2 4 4 1424 1450 1501 1435
1309 3 2 4 4 1517 1468 1435 1501
1310 3 2 4 4 1434 1451 1503 1446
1311 3 2 4 4 1421 1458 1514 1447
1312 3 2 4 4 1500 1467 1447 1514
1313 3 2 4 4 1408 1456 1505 1448
1314 3 2 4 4 1422 1457 1506 1449
1315 3 2 4 4 1549 1501 1450 1527
1316 3 2 4 4 1510 1596 1527 1450
1317 3 2 4 4 1503 1451 1529 1559
1318 3 2 4 4 1509 1452 1551 1576
1319 3 2 4 4 1511 1546 1535 1457
1320 3 2 4 4 1548 1514 1458 1536
1321 3 2 4 4 1512 1547 1536 1458
1322 3 2 4 4 1416 1495 1552 1461
1323 3 2 4 4 1443 1461 1552 1507
1324 3 2 4 4 1423 1499 1464 1473
1325 3 2 4 4 1586 1537 1466 1500
1326 3 2 4 4 1409 1469 1553 1498
1327 3 2 4 4 1449 1506 1553 1469
1328 3 2 4 4 1413 1480 1508 1471
1329 3 2 4 4 1446 1503 1519 1474
1330 3 2 4 4 1508 1480 1555 1546
1331 3 2 4 4 1520 1531 1568 1493
1332 3 2 4 4 1577 1539 1493 1568
1333 3 2 4 4 1581 1542 1494 1580
1334 3 2 4 4 1545 1566 1580 1494
1335 3 2 4 4 1459 1497 1547 1512
1336 3 2 4 4 1464 1499 1562 1526
1337 3 2 4 4 1514 1548 1586 1500
1338 3 2 4 4 1519 1503 1559 1584
1339 3 2 4 4 1457 1535 1567 1506
1340 3 2 4 4 1578 1553 1506 1567
1341 3 2 4 4 1541 1509 1576 1619
1342 3 2 4 4 1498 1543 1596 1510
1343 3 2 4 4 1466 1537 1582 1513
1344 3 2 4 4 1456 1517 1590 1533
1345 3 2 4 4 1501 1549 1590 1517
1346 3 2 4 4 1453 1534 1583 1518
1347 3 2 4 4 1545 1518 1583 1566
1348 3 2 4 4 1453 1519 1584 1534
1349 3 2 4 4 1520 1524 1593 1531
1350 3 2 4 4 1495 1526 1562 1561
1351 3 2 4 4 1564 1527 1596 1616
1352 3 2 4 4 1568 1531 1606 1617
1353 3 2 4 4 1593 1625 1606 1531
1354 3 2 4 4 1584 1641 1602 1534
1355 3 2 4 4 1597 1605 1627 1540
1356 3 2 4 4 1525 1541 1619 1575
1357 3 2 4 4 1638 1604 1543 1578
1358 3 2 4 4 1536 1579 1608 1548
1359 3 2 4 4 1586 1548 1608 1647
1360 3 2 4 4 1527 1564 1622 1549
1361 3 2 4 4 1495 1561 1574 1552
1362 3 2 4 4 1529 1563 1615 1559
1363 3 2 4 4 1581 1626 1561 1562
1364 3 2 4 4 1622 1564 1645 1677
1365 3 2 4 4 1561 1626 1654 1574
1366 3 2 4 4 1608 1579 1617 1642
1367 3 2 4 4 1566 1609 1636 1580
1368 3 2 4 4 1534 1602 1640 1583
1369 3 2 4 4 1566 1583 1640 1609
1370 3 2 4 4 1559 1615 1641 1584
1371 3 2 4 4 1537 1586 1647 1607
1372 3 2 4 4 1533 1590 1648 1599
1373 3 2 4 4 1549 1622 1648 1590
1374 3 2 4 4 1617 1606 1632 1642
1375 3 2 4 4 1668 1667 1607 1647
1376 3 2 4 4 1642 1668 1647 1608
1377 3 2 4 4 1640 1670 1680 1609
1378 3 2 4 4 1636 1609 1680 1681
1379 3 2 4 4 1610 1611 1674 1630
1380 3 2 4 4 1565 1633 1674 1611
1381 3 2 4 4 1563 1614 1631 1643
1382 3 2 4 4 1563 1643 1669 1615
1383 3 2 4 4 1641 1615 1669 1693
1384 3 2 4 4 1598 1618 1675 1629
1385 3 2 4 4 1575 1619 1676 1639
1386 3 2 4 4 1576 1646 1676 1619
1387 3 2 4 4 1606 1625 1671 1632
1388 3 2 4 4 1634 1700 1671 1625
1389 3 2 4 4 1605 1679 1655 1627
1390 3 2 4 4 1598 1629 1672 1653
1391 3 2 4 4 1674 1703 1689 1630
1392 3 2 4 4 1642 1632 1685 1668
1393 3 2 4 4 1626 1636 1681 1654
1394 3 2 4 4 1666 1684 1661 1637
1395 3 2 4 4 1600 1639 1690 1666
1396 3 2 4 4 1683 1690 1639 1676
1397 3 2 4 4 1602 1659 1670 1640
1398 3 2 4 4 1660 1683 1676 1646
1399 3 2 4 4 1622 1677 1662 1648
1400 3 2 4 4 1599 1648 1662 1694
1401 3 2 4 4 1605 1654 1681 1679
1402 3 2 4 4 1679 1702 1688 1655
1403 3 2 4 4 1670 1659 1691 1701
1404 3 2 4 4 1630 1689 1720 1660
1405 3 2 4 4 1707 1693 1669 1710
1406 3 2 4 4 1643 1695 1710 1669
1407 3 2 4 4 1679 1681 1680 1702
1408 3 2 4 4 1690 1683 1719 1709
1409 3 2 4 4 1660 1720 1719 1683
1410 3 2 4 4 1662 1687 1713 1694
1411 3 2 4 4 1701 1691 1737 1708
1412 3 2 4 4 1718 1696 1733 1744
1413 3 2 4 4 1705 1709 1719 1727
1414 3 2 4 4 1687 1718 1744 1723
1415 3 2 4 4 1727 1719 1720 1728
1416 3 2 4 4 1744 1751 1753 1723
1417 3 2 4 4 1724 1729 1752 1739
1418 3 2 4 4 1726 1734 1731 1746
1419 3 2 4 4 1748 1751 1744 1733
1420 3 2 4 4 1746 1753 1762 1750
1421 3 2 4 4 1764 1761 1750 1762
1422 3 2 4 4 1430 1405 1355 1356
1423 3 2 4 4 1467 1379 1380 1447
1424 3 2 4 4 1475 1388 1389 1415
1425 3 2 4 4 1435 1468 1393 1394
1426 3 2 4 4 1469 1398 1399 1449
1427 3 2 4 4 1485 1404 1550 1490
1428 3 2 4 4 1484 1502 1550 1404
1429 3 2 4 4 1474 1519 1453 1406
1430 3 2 4 4 1545 1494 1414 1477
1431 3 2 4 4 1542 1489 1414 1494
1432 3 2 4 4 1463 1511 1457 1422
1433 3 2 4 4 1413 1431 1521 1480
1434 3 2 4 4 1445 1518 1545 1477
1435 3 2 4 4 1550 1573 1620 1490
1436 3 2 4 4 1456 1533 1569 1505
1437 3 2 4 4 1502 1522 1592 1528
1438 3 2 4 4 1502 1528 1573 1550
1439 3 2 4 4 1618 1598 1573 1528
1440 3 2 4 4 1644 1569 1533 1599
1441 3 2 4 4 1546 1555 1585 1535
1442 3 2 4 4 1646 1576 1551 1610
1443 3 2 4 4 1490 1620 1572 1560
1444 3 2 4 4 1573 1598 1653 1620
1445 3 2 4 4 1644 1599 1694 1664
1446 3 2 4 4 1631 1657 1695 1643
1447 3 2 4 4 1708 1721 1658 1688
1448 3 2 4 4 1694 1713 1697 1664
1449 3 2 4 4 1632 1671 1712 1685
1450 3 2 4 4 1743 1722 1682 1717
1451 3 2 4 4 1658 1721 1732 1703
1452 3 2 4 4 1761 1756 1742 1722
1453 3 2 4 4 1739 1763 1755 1741
1454 3 2 4 4 1722 1743 1750 1761
1455 3 2 4 4 1470 1344 1325 1412
1456 3 2 4 4 1324 1385 1436 1329
1457 3 2 4 4 1330 1329 1436 1427
1458 3 2 4 4 1332 1331 1481 1417
1459 3 2 4 4 1330 1427 1481 1331
1460 3 2 4 4 1334 1333 1482 1411
1461 3 2 4 4 1332 1417 1482 1333
1462 3 2 4 4 1334 1411 1483 1335
1463 3 2 4 4 1336 1335 1483 1437
1464 3 2 4 4 1484 1337 1336 1437
1465 3 2 4 4 1485 1339 1338 1404
1466 3 2 4 4 1337 1484 1404 1338
1467 3 2 4 4 1339 1485 1438 1340
1468 3 2 4 4 1342 1341 1486 1425
1469 3 2 4 4 1340 1438 1486 1341
1470 3 2 4 4 1325 1343 1487 1412
1471 3 2 4 4 1342 1425 1487 1343
1472 3 2 4 4 1471 1349 1350 1413
1473 3 2 4 4 1350 1351 1431 1413
1474 3 2 4 4 1354 1488 1442 1353
1475 3 2 4 4 1488 1354 1355 1405
1476 3 2 4 4 1473 1367 1368 1423
1477 3 2 4 4 1370 1414 1489 1369
1478 3 2 4 4 1368 1369 1489 1423
1479 3 2 4 4 1477 1371 1372 1445
1480 3 2 4 4 1474 1406 1373 1374
1481 3 2 4 4 1372 1373 1406 1445
1482 3 2 4 4 1446 1474 1374 1375
1483 3 2 4 4 1447 1380 1381 1421
1484 3 2 4 4 1385 1386 1478 1436
1485 3 2 4 4 1449 1399 1400 1422
1486 3 2 4 4 1518 1445 1406 1453
1487 3 2 4 4 1516 1475 1415 1492
1488 3 2 4 4 1512 1462 1418 1459
1489 3 2 4 4 1511 1463 1419 1460
1490 3 2 4 4 1436 1478 1515 1427
1491 3 2 4 4 1441 1454 1521 1431
1492 3 2 4 4 1484 1437 1522 1502
1493 3 2 4 4 1560 1438 1485 1490
1494 3 2 4 4 1441 1442 1525 1454
1495 3 2 4 4 1541 1525 1442 1488
1496 3 2 4 4 1479 1448 1505 1554
1497 3 2 4 4 1575 1532 1454 1525
1498 3 2 4 4 1415 1479 1554 1492
1499 3 2 4 4 1417 1481 1556 1496
1500 3 2 4 4 1427 1515 1556 1481
1501 3 2 4 4 1411 1482 1557 1491
1502 3 2 4 4 1417 1496 1557 1482
1503 3 2 4 4 1411 1491 1558 1483
1504 3 2 4 4 1437 1483 1558 1522
1505 3 2 4 4 1425 1486 1524 1520
1506 3 2 4 4 1438 1560 1524 1486
1507 3 2 4 4 1558 1491 1587 1570
1508 3 2 4 4 1492 1538 1571 1516
1509 3 2 4 4 1454 1532 1591 1521
1510 3 2 4 4 1480 1521 1591 1555
1511 3 2 4 4 1558 1570 1592 1522
1512 3 2 4 4 1600 1612 1591 1532
1513 3 2 4 4 1492 1554 1594 1538
1514 3 2 4 4 1594 1603 1621 1538
1515 3 2 4 4 1515 1544 1595 1556
1516 3 2 4 4 1516 1571 1595 1544
1517 3 2 4 4 1611 1610 1551 1589
1518 3 2 4 4 1505 1569 1594 1554
1519 3 2 4 4 1496 1556 1595 1588
1520 3 2 4 4 1491 1557 1623 1587
1521 3 2 4 4 1496 1588 1623 1557
1522 3 2 4 4 1524 1560 1572 1593
1523 3 2 4 4 1535 1585 1613 1567
1524 3 2 4 4 1578 1567 1613 1638
1525 3 2 4 4 1594 1569 1644 1603
1526 3 2 4 4 1595 1571 1624 1588
1527 3 2 4 4 1538 1621 1624 1571
1528 3 2 4 4 1634 1625 1593 1572
1529 3 2 4 4 1555 1591 1612 1585
1530 3 2 4 4 1637 1613 1585 1612
1531 3 2 4 4 1570 1587 1635 1601
1532 3 2 4 4 1570 1601 1649 1592
1533 3 2 4 4 1528 1592 1649 1618
1534 3 2 4 4 1649 1601 1673 1663
1535 3 2 4 4 1637 1661 1638 1613
1536 3 2 4 4 1564 1616 1628 1645
1537 3 2 4 4 1572 1620 1653 1634
1538 3 2 4 4 1603 1650 1651 1621
1539 3 2 4 4 1588 1624 1652 1623
1540 3 2 4 4 1587 1623 1652 1635
1541 3 2 4 4 1621 1651 1652 1624
1542 3 2 4 4 1672 1629 1682 1711
1543 3 2 4 4 1675 1717 1682 1629
1544 3 2 4 4 1700 1634 1653 1672
1545 3 2 4 4 1652 1651 1678 1635
1546 3 2 4 4 1601 1635 1678 1673
1547 3 2 4 4 1603 1644 1664 1650
1548 3 2 4 4 1628 1656 1696 1645
1549 3 2 4 4 1618 1649 1663 1675
1550 3 2 4 4 1651 1650 1698 1678
1551 3 2 4 4 1664 1697 1698 1650
1552 3 2 4 4 1733 1696 1656 1714
1553 3 2 4 4 1692 1705 1714 1656
1554 3 2 4 4 1699 1706 1715 1657
1555 3 2 4 4 1695 1657 1715 1729
1556 3 2 4 4 1633 1658 1703 1674
1557 3 2 4 4 1717 1675 1663 1686
1558 3 2 4 4 1702 1680 1670 1701
1559 3 2 4 4 1700 1735 1712 1671
1560 3 2 4 4 1700 1672 1711 1735
1561 3 2 4 4 1663 1673 1716 1686
1562 3 2 4 4 1678 1698 1716 1673
1563 3 2 4 4 1662 1677 1718 1687
1564 3 2 4 4 1645 1696 1718 1677
1565 3 2 4 4 1742 1711 1682 1722
1566 3 2 4 4 1699 1685 1712 1706
1567 3 2 4 4 1734 1726 1686 1716
1568 3 2 4 4 1717 1686 1726 1743
1569 3 2 4 4 1703 1732 1704 1689
1570 3 2 4 4 1737 1691 1707 1736
1571 3 2 4 4 1734 1716 1698 1697
1572 3 2 4 4 1734 1697 1713 1731
1573 3 2 4 4 1689 1704 1728 1720
1574 3 2 4 4 1732 1747 1738 1704
1575 3 2 4 4 1710 1724 1736 1707
1576 3 2 4 4 1721 1708 1737 1725
1577 3 2 4 4 1730 1735 1711 1742
1578 3 2 4 4 1706 1712 1735 1730
1579 3 2 4 4 1687 1723 1731 1713
1580 3 2 4 4 1752 1729 1715 1745
1581 3 2 4 4 1706 1730 1745 1715
1582 3 2 4 4 1753 1746 1731 1723
1583 3 2 4 4 1721 1725 1747 1732
1584 3 2 4 4 1736 1741 1725 1737
1585 3 2 4 4 1755 1747 1725 1741
1586 3 2 4 4 1746 1750 1743 1726
1587 3 2 4 4 1704 1738 1754 1728
1588 3 2 4 4 1727 1728 1754 1740
1589 3 2 4 4 1755 1749 1738 1747
1590 3 2 4 4 1760 1754 1738 1749
1591 3 2 4 4 1748 1740 1754 1760
1592 3 2 4 4 1730 1742 1756 1745
1593 3 2 4 4 1762 1753 1751 1758
1594 3 2 4 4 1410 1472 1358 1359
1595 3 2 4 4 1574 1597 1507 1552
1596 3 2 4 4 1752 1745 1756 1759
1597 3 2 4 4 1604 1665 1628 1616
1598 3 2 4 4 1383 1418 1462 1382
1599 3 2 4 4 1402 1419 1463 1401
1600 3 2 4 4 1749 1755 1763 1757
$EndElements
