$MeshFormat
2.2 0 8
$EndMeshFormat
$Nodes
121
1 0 0 0
2 0 100 0
3 100 100 0
4 100 0 0
5 0 10 0
6 0 20 0
7 0 30 0
8 0 40 0
9 0 50 0
10 0 60 0
11 0 70 0
12 0 80 0
13 0 90 0
14 10 100 0
15 20 100 0
16 30 100 0
17 40 100 0
18 50 100 0
19 60 100 0
20 70 100 0
21 80 100 0
22 90 100 0
23 100 90 0
24 100 80 0
25 100 70 0
26 100 60 0
27 100 50 0
28 100 40 0
29 100 30 0
30 100 20 0
31 100 10 0
32 90 0 0
33 80 0 0
34 70 0 0
35 60 0 0
36 50 0 0
37 40 0 0
38 30 0 0
39 20 0 0
40 10 0 0
41 39.9994664718106 9.99995828696386 0
42 89.9994347078914 40.0000799021603 0
43 59.9800078595333 90.0110474033035 0
44 9.94833147917329 59.9921010094643 0
45 9.99394454039037 29.9980421485711 0
46 39.9768943340137 90.0267905091952 0
47 89.999432597209 80.0000926176348 0
48 69.9999514800197 10.0000079024728 0
49 9.999787317198 9.9999431115404 0
50 9.99610933538778 90.0013010663044 0
51 89.9999856057167 20.0000020790257 0
52 29.9796055153115 90.0222006607358 0
53 79.9985703644577 90.0004151228563 0
54 89.998300365646 60.000252828651 0
55 19.9994774534375 9.99988932033204 0
56 9.97675420030358 39.9943724173717 0
57 9.95840481374975 69.998910591739 0
58 89.9996829196478 90.0000742015902 0
59 89.9999964694271 10.0000005248978 0
60 49.9995886606528 10.000004607121 0
61 39.99385319847 20.0009940043118 0
62 39.8389529983674 80.1006888097775 0
63 19.9773947746273 29.9983022393468 0
64 79.9916406978538 80.001813452663 0
65 19.8161278509866 60.0341470632425 0
66 9.99734563084858 19.9995213530747 0
67 9.9498635445939 49.9950975394241 0
68 69.9887166996302 90.0041311220258 0
69 89.998423765994 50.0002257480327 0
70 29.9989577314459 9.9999512908345 0
71 19.9860762463149 90.0106536134848 0
72 49.963060480769 90.0252286799715 0
73 89.9978867801188 70.0003625899898 0
74 89.9998179501246 30.000025716949 0
75 79.9999862128721 10.0000022845692 0
76 59.9997664897661 10.0000208212598 0
77 9.97805400210044 80.0038082670654 0
78 79.9956605918908 40.001502233455 0
79 29.8738658224218 80.0764443201337 0
80 19.9244711172529 40.000977416837 0
81 70.0004856755261 20.0003123633528 0
82 49.9968692183568 20.0014533526958 0
83 49.8289871194155 80.0798804490214 0
84 69.9545744245254 80.0124706323577 0
85 79.9795477649729 60.0045115754158 0
86 19.9936501985824 19.999491469413 0
87 79.977842735223 70.0048672418484 0
88 79.9993571630375 30.0005501265397 0
89 80.0000782405866 20.0001613931462 0
90 19.8553309690468 70.0481421366698 0
91 19.8470172910445 50.0213316482982 0
92 29.9910860609711 20.0002831078639 0
93 19.9269367787292 80.034747849808 0
94 39.6012511223017 70.1903321160197 0
95 29.8740294868929 40.0283370495119 0
96 29.6384381340737 60.1408544581193 0
97 59.8808185000825 80.0410561302038 0
98 29.9575455106562 30.0070008652683 0
99 39.9612998785677 30.0126153497908 0
100 79.9847358680513 50.0039694867629 0
101 69.9091893059315 70.0241466800731 0
102 59.999923827576 20.0010874638253 0
103 29.7270681983422 70.1280389868337 0
104 69.9827366690128 40.0091182332859 0
105 69.997742459318 30.0032909721367 0
106 39.5576936012124 60.1875956714333 0
107 39.8696485080764 40.0499216561892 0
108 49.6621953346229 70.1283087710585 0
109 69.9079174473682 60.0267762163429 0
110 59.7881549591896 70.0691742555289 0
111 49.9782890202886 30.0133176624699 0
112 29.7549143381464 50.0766416892737 0
113 59.9920963775909 30.0087512896434 0
114 69.9418138798773 50.0209212122709 0
115 49.6532837420035 60.1351297607434 0
116 49.9093475696243 40.0469937285215 0
117 59.804495248135 60.0709972977046 0
118 39.7332022748063 50.1088875502948 0
119 59.9471156695843 40.0287348419497 0
120 49.7919682327035 50.0905048022706 0
121 59.8696606488041 50.0530171652827 0
$EndNodes
$Elements
100
1 3 2 1 1 106 115 120 118
2 3 2 1 1 43 97 83 72
3 3 2 1 1 83 97 110 108
4 3 2 1 1 106 118 112 96
5 3 2 1 1 115 108 110 117
6 3 2 1 1 56 67 91 80
7 3 2 1 1 65 90 103 96
8 3 2 1 1 7 45 66 6
9 3 2 1 1 20 68 43 19
10 3 2 1 1 45 63 86 66
11 3 2 1 1 107 95 112 118
12 3 2 1 1 95 107 99 98
13 3 2 1 1 8 56 45 7
14 3 2 1 1 67 56 8 9
15 3 2 1 1 11 57 44 10
16 3 2 1 1 9 10 44 67
17 3 2 1 1 16 17 46 52
18 3 2 1 1 18 72 46 17
19 3 2 1 1 19 43 72 18
20 3 2 1 1 21 53 68 20
21 3 2 1 1 21 22 58 53
22 3 2 1 1 27 28 42 69
23 3 2 1 1 29 74 42 28
24 3 2 1 1 41 37 38 70
25 3 2 1 1 39 55 70 38
26 3 2 1 1 46 62 79 52
27 3 2 1 1 49 66 86 55
28 3 2 1 1 45 56 80 63
29 3 2 1 1 44 57 90 65
30 3 2 1 1 41 70 92 61
31 3 2 1 1 92 98 99 61
32 3 2 1 1 46 72 83 62
33 3 2 1 1 95 98 63 80
34 3 2 1 1 84 64 87 101
35 3 2 1 1 44 65 91 67
36 3 2 1 1 43 68 84 97
37 3 2 1 1 42 78 100 69
38 3 2 1 1 54 69 100 85
39 3 2 1 1 57 77 93 90
40 3 2 1 1 107 118 120 116
41 3 2 1 1 115 117 121 120
42 3 2 1 1 116 120 121 119
43 3 2 1 1 69 54 26 27
44 3 2 1 1 36 60 76 35
45 3 2 1 1 41 61 82 60
46 3 2 1 1 60 82 102 76
47 3 2 1 1 103 90 93 79
48 3 2 1 1 61 99 111 82
49 3 2 1 1 84 101 110 97
50 3 2 1 1 107 116 111 99
51 3 2 1 1 109 117 110 101
52 3 2 1 1 114 104 119 121
53 3 2 1 1 104 105 113 119
54 3 2 1 1 116 119 113 111
55 3 2 1 1 1 5 49 40
56 3 2 1 1 5 6 66 49
57 3 2 1 1 13 50 77 12
58 3 2 1 1 11 12 77 57
59 3 2 1 1 2 14 50 13
60 3 2 1 1 14 15 71 50
61 3 2 1 1 16 52 71 15
62 3 2 1 1 3 23 58 22
63 3 2 1 1 24 47 58 23
64 3 2 1 1 25 73 47 24
65 3 2 1 1 73 25 26 54
66 3 2 1 1 29 30 51 74
67 3 2 1 1 4 32 59 31
68 3 2 1 1 30 31 59 51
69 3 2 1 1 34 48 75 33
70 3 2 1 1 32 33 75 59
71 3 2 1 1 34 35 76 48
72 3 2 1 1 37 41 60 36
73 3 2 1 1 55 39 40 49
74 3 2 1 1 53 58 47 64
75 3 2 1 1 87 64 47 73
76 3 2 1 1 88 74 51 89
77 3 2 1 1 59 75 89 51
78 3 2 1 1 64 84 68 53
79 3 2 1 1 73 54 85 87
80 3 2 1 1 70 55 86 92
81 3 2 1 1 103 79 62 94
82 3 2 1 1 50 71 93 77
83 3 2 1 1 52 79 93 71
84 3 2 1 1 42 74 88 78
85 3 2 1 1 48 81 89 75
86 3 2 1 1 48 76 102 81
87 3 2 1 1 104 78 88 105
88 3 2 1 1 114 100 78 104
89 3 2 1 1 88 89 81 105
90 3 2 1 1 113 105 81 102
91 3 2 1 1 102 82 111 113
92 3 2 1 1 62 83 108 94
93 3 2 1 1 100 114 109 85
94 3 2 1 1 63 98 92 86
95 3 2 1 1 85 109 101 87
96 3 2 1 1 80 91 112 95
97 3 2 1 1 65 96 112 91
98 3 2 1 1 96 103 94 106
99 3 2 1 1 109 114 121 117
100 3 2 1 1 108 115 106 94
$EndElements
