$MeshFormat
2.2 0 8
$EndMeshFormat
$Nodes
69
1 0 0 0
2 100 100 0
3 100 0 0
4 7.14285714285713 7.14285714285713 0
5 14.2857142857143 14.2857142857143 0
6 21.4285714285714 21.4285714285714 0
7 28.5714285714285 28.5714285714285 0
8 35.7142857142857 35.7142857142857 0
9 42.8571428571428 42.8571428571428 0
10 50 50 0
11 57.1428571428571 57.1428571428571 0
12 64.2857142857143 64.2857142857143 0
13 71.4285714285714 71.4285714285714 0
14 78.5714285714285 78.5714285714285 0
15 85.7142857142857 85.7142857142857 0
16 92.8571428571428 92.8571428571428 0
17 100 90 0
18 100 80 0
19 100 70 0
20 100 60 0
21 100 50 0
22 100 40 0
23 100 30 0
24 100 20 0
25 100 10 0
26 90 0 0
27 80 0 0
28 70 0 0
29 60 0 0
30 50 0 0
31 40 0 0
32 30 0 0
33 20 0 0
34 10 0 0
35 47.6652073578161 38.1359392414747 0
36 93.2291620998732 40.2384359369236 0
37 72.3380501467906 9.90667490362608 0
38 43.9085927077287 10.0305595484956 0
39 68.7397350794811 54.7938396889287 0
40 89.6308412966788 57.2068890798109 0
41 22.8259415764708 9.43220674546069 0
42 87.4710473340992 69.9257544619948 0
43 36.4070799033315 21.0079236074732 0
44 55.6591370868563 42.3538319145269 0
45 90.4870603304531 10.0292517687013 0
46 88.5265156121801 31.8481564342848 0
47 52.7722682934529 10.0098693385775 0
48 12.7254071473193 5.28468872611504 0
49 91.8504769029817 81.4654757270987 0
50 82.5499145806191 41.2943396330086 0
51 57.1428558074947 28.6015784893335 0
52 26.4298470200494 17.398481011032 0
53 76.7708830765778 61.6407817401746 0
54 43.5245398647612 29.1245167261914 0
55 61.3790065878325 48.0333090371455 0
56 89.953029636785 20.0871008054439 0
57 83.6208657607221 10.0235412977738 0
58 60.0624535172911 10.000495082312 0
59 91.2335672928403 47.2219876774426 0
60 33.4787543485969 9.85745095418235 0
61 78.3216018295707 27.1791623908685 0
62 64.2429751013975 40.5920658242065 0
63 69.3016894075882 19.1704122298334 0
64 79.9960438372172 20.0013378929769 0
65 49.574750875485 19.956686445586 0
66 80.1874984034353 51.0752882109246 0
67 60.2263235501869 19.7959802983594 0
68 72.1372631350752 43.8747101151878 0
69 70.1071192278215 31.8253621954779 0
$EndNodes
$Elements
53
1 2 2 1 1 2 17 16 
2 2 2 1 1 16 49 15 
3 2 2 1 1 28 29 37 
4 2 2 1 1 37 27 28 
5 3 2 1 1 65 38 60 43
6 3 2 1 1 66 53 42 40
7 3 2 1 1 51 65 43 54
8 3 2 1 1 53 66 68 39
9 3 2 1 1 16 17 18 49
10 3 2 1 1 42 14 15 49
11 3 2 1 1 54 35 44 51
12 3 2 1 1 62 55 39 68
13 3 2 1 1 68 69 51 62
14 3 2 1 1 52 41 5 6
15 3 2 1 1 55 62 51 44
16 3 2 1 1 43 52 6 7
17 3 2 1 1 54 43 7 8
18 3 2 1 1 42 53 13 14
19 3 2 1 1 35 54 8 9
20 3 2 1 1 53 39 12 13
21 3 2 1 1 39 55 11 12
22 3 2 1 1 55 44 10 11
23 3 2 1 1 44 35 9 10
24 3 2 1 1 25 3 26 45
25 3 2 1 1 57 45 26 27
26 3 2 1 1 64 57 27 37
27 3 2 1 1 69 50 46 61
28 3 2 1 1 24 25 45 56
29 3 2 1 1 64 56 45 57
30 3 2 1 1 61 46 56 64
31 3 2 1 1 47 67 63 58
32 3 2 1 1 59 21 22 36
33 3 2 1 1 23 24 56 46
34 3 2 1 1 40 59 50 66
35 3 2 1 1 58 29 30 47
36 3 2 1 1 29 58 63 37
37 3 2 1 1 59 40 20 21
38 3 2 1 1 22 23 46 36
39 3 2 1 1 61 63 67 69
40 3 2 1 1 46 50 59 36
41 3 2 1 1 67 47 38 65
42 3 2 1 1 69 68 66 50
43 3 2 1 1 31 38 47 30
44 3 2 1 1 32 60 38 31
45 3 2 1 1 37 63 61 64
46 3 2 1 1 69 67 65 51
47 3 2 1 1 33 41 60 32
48 3 2 1 1 4 5 41 48
49 3 2 1 1 43 60 41 52
50 3 2 1 1 1 4 48 34
51 3 2 1 1 34 48 41 33
52 3 2 1 1 49 18 19 42
53 3 2 1 1 20 40 42 19
$EndElements
