$MeshFormat
2.2 0 8
$EndMeshFormat
$Nodes
111
1 0 0 0
2 100 0 0
3 100 100 0
4 0 80 0
5 10 0 0
6 20 0 0
7 30 0 0
8 40 0 0
9 50 0 0
10 60 0 0
11 70 0 0
12 80 0 0
13 90 0 0
14 100 10 0
15 100 20 0
16 100 30 0
17 100 40 0
18 100 50 0
19 100 60 0
20 100 70 0
21 100 80 0
22 100 90 0
23 90 98 0
24 80 96 0
25 70 94 0
26 60 92 0
27 50 90 0
28 40 88 0
29 30 86 0
30 20 84 0
31 10 82 0
32 0 70 0
33 0 60 0
34 0 50 0
35 0 40 0
36 0 30 0
37 0 20 0
38 0 10 0
39 49.983332735311 10.0517728598386 0
40 49.08633653402 79.5400753277754 0
41 89.9003073273373 59.2370999093809 0
42 89.9919960150089 29.9835124440894 0
43 10.3376321054036 40.2042071957445 0
44 29.1895277490071 75.6453007746411 0
45 30.0167907131958 10.010790011831 0
46 79.6087798228601 86.061709330379 0
47 79.9904627621372 10.009897235546 0
48 9.80760974100032 71.5638343467825 0
49 89.7529077402896 68.7184240880096 0
50 89.7093132470764 78.328351167776 0
51 10.005880988204 10.0001292089445 0
52 10.1344233833087 30.0271562233523 0
53 89.9967240439009 10.0024099309629 0
54 69.9770440797324 10.0308350161026 0
55 89.9930999063431 39.9002910017393 0
56 10.0296822004126 61.1909681941243 0
57 69.4096617745416 83.7671171338478 0
58 89.820800690416 88.1088217127644 0
59 19.5648964963805 73.5753874672923 0
60 79.9783350048078 29.9763423612783 0
61 21.0451385333515 40.2345584206816 0
62 80.1618950227315 58.3279072045727 0
63 79.463615204069 76.2240988243267 0
64 89.9932014705572 19.9993408949003 0
65 20.0153761389428 10.002723100795 0
66 10.042875474246 20.0026559976149 0
67 40.010493096592 10.0318922790304 0
68 59.9696648107883 10.0545153699554 0
69 69.9695698867321 20.0558274723683 0
70 89.9969274565419 49.644434159991 0
71 10.4480815708419 50.7486010170181 0
72 28.8954382919733 65.7201281394071 0
73 39.1002761730129 77.6644643830061 0
74 59.2457853082233 81.541776526959 0
75 38.1496282581916 67.4949391689212 0
76 20.3928120961865 30.0241570802841 0
77 50.0766127558633 20.0848474399647 0
78 80.0407288536309 49.4383180923688 0
79 22.8610888673253 52.3481179955025 0
80 79.9821350691388 20.0139050018534 0
81 30.1585506696168 20.0039082031291 0
82 20.127591181914 20.0035463705915 0
83 60.0133562882196 20.0835726160757 0
84 79.9178178984695 39.8614903571699 0
85 58.8813893661383 70.85531299686 0
86 69.3449651465181 73.5558887948148 0
87 48.2951830355465 68.9087382123893 0
88 19.9888737490533 63.4083723153145 0
89 79.8977680231266 66.9676570310324 0
90 46.8318114990994 58.3868223275009 0
91 50.5870699707373 29.8678105048684 0
92 72.9754178724476 57.7913216961478 0
93 30.6694999014049 29.9346907194955 0
94 40.2133974400539 20.0098200846722 0
95 70.0439996375639 29.9582428652591 0
96 31.8774117706051 39.840107639084 0
97 36.5057740674216 58.0795806710766 0
98 70.0305992103273 39.6107076355566 0
99 29.6725285027477 58.9803949695721 0
100 70.7266363521152 64.0866392385636 0
101 44.494293465145 48.7625072166062 0
102 59.7014926662913 58.5483438413201 0
103 68.9103667506724 50.2201354429239 0
104 60.3153409781715 29.8672022893935 0
105 40.8450070795178 29.831775275938 0
106 34.1629704306946 49.4762729956964 0
107 60.832151544828 39.0893043058924 0
108 51.8561223076647 39.0341171270614 0
109 54.5184194135999 48.1461837230535 0
110 42.2795096119107 39.373756066818 0
111 61.1243321211498 45.8682673856287 0
$EndNodes
$Elements
91
1 3 2 1 1 102 85 87 90
2 3 2 1 1 50 63 89 49
3 3 2 1 1 100 89 63 86
4 3 2 1 1 58 46 63 50
5 3 2 1 1 102 90 101 109
6 3 2 1 1 40 74 26 27
7 3 2 1 1 44 73 28 29
8 3 2 1 1 96 110 101 106
9 3 2 1 1 46 58 23 24
10 3 2 1 1 73 44 72 75
11 3 2 1 1 102 100 86 85
12 3 2 1 1 31 4 32 48
13 3 2 1 1 79 106 97 99
14 3 2 1 1 79 99 72 88
15 3 2 1 1 58 22 3 23
16 3 2 1 1 22 58 50 21
17 3 2 1 1 100 92 62 89
18 3 2 1 1 98 84 78 103
19 3 2 1 1 90 97 106 101
20 3 2 1 1 75 72 99 97
21 3 2 1 1 70 78 84 55
22 3 2 1 1 105 91 108 110
23 3 2 1 1 95 60 84 98
24 3 2 1 1 94 77 91 105
25 3 2 1 1 97 90 87 75
26 3 2 1 1 96 61 76 93
27 3 2 1 1 106 79 61 96
28 3 2 1 1 65 51 5 6
29 3 2 1 1 1 5 51 38
30 3 2 1 1 2 14 53 13
31 3 2 1 1 64 53 14 15
32 3 2 1 1 12 13 53 47
33 3 2 1 1 41 62 78 70
34 3 2 1 1 42 60 80 64
35 3 2 1 1 64 15 16 42
36 3 2 1 1 94 67 39 77
37 3 2 1 1 88 56 71 79
38 3 2 1 1 38 51 66 37
39 3 2 1 1 53 64 80 47
40 3 2 1 1 68 83 77 39
41 3 2 1 1 65 6 7 45
42 3 2 1 1 67 45 7 8
43 3 2 1 1 11 12 47 54
44 3 2 1 1 82 66 51 65
45 3 2 1 1 11 54 68 10
46 3 2 1 1 81 94 105 93
47 3 2 1 1 69 95 104 83
48 3 2 1 1 70 55 17 18
49 3 2 1 1 65 45 81 82
50 3 2 1 1 42 55 84 60
51 3 2 1 1 47 80 69 54
52 3 2 1 1 76 52 66 82
53 3 2 1 1 36 37 66 52
54 3 2 1 1 17 55 42 16
55 3 2 1 1 35 43 71 34
56 3 2 1 1 103 78 62 92
57 3 2 1 1 67 8 9 39
58 3 2 1 1 83 68 54 69
59 3 2 1 1 9 10 68 39
60 3 2 1 1 94 81 45 67
61 3 2 1 1 76 61 43 52
62 3 2 1 1 35 36 52 43
63 3 2 1 1 83 104 91 77
64 3 2 1 1 70 18 19 41
65 3 2 1 1 107 104 95 98
66 3 2 1 1 91 104 107 108
67 3 2 1 1 95 69 80 60
68 3 2 1 1 110 96 93 105
69 3 2 1 1 79 71 43 61
70 3 2 1 1 33 34 71 56
71 3 2 1 1 48 59 30 31
72 3 2 1 1 93 76 82 81
73 3 2 1 1 107 98 103 111
74 3 2 1 1 20 49 41 19
75 3 2 1 1 86 63 46 57
76 3 2 1 1 32 33 56 48
77 3 2 1 1 57 46 24 25
78 3 2 1 1 59 44 29 30
79 3 2 1 1 74 57 25 26
80 3 2 1 1 88 72 44 59
81 3 2 1 1 73 40 27 28
82 3 2 1 1 20 21 50 49
83 3 2 1 1 62 41 49 89
84 3 2 1 1 59 48 56 88
85 3 2 1 1 109 101 110 108
86 3 2 1 1 74 40 87 85
87 3 2 1 1 85 86 57 74
88 3 2 1 1 75 87 40 73
89 3 2 1 1 109 111 103 102
90 3 2 1 1 103 92 100 102
91 3 2 1 1 108 107 111 109
$EndElements
