$MeshFormat
2.2 0 8
$EndMeshFormat
$Nodes
71
1 0 0 0
2 100 0 0
3 100 100 0
4 10 0 0
5 20 0 0
6 30 0 0
7 40 0 0
8 50 0 0
9 60 0 0
10 70 0 0
11 80 0 0
12 90 0 0
13 100 10 0
14 100 20 0
15 100 30 0
16 100 40 0
17 100 50 0
18 100 60 0
19 100 70 0
20 100 80 0
21 100 90 0
22 92.8571428571429 92.8571428571429 0
23 85.7142857142857 85.7142857142857 0
24 78.5714285714286 78.5714285714286 0
25 71.4285714285715 71.4285714285715 0
26 64.2857142857143 64.2857142857143 0
27 57.1428571428572 57.1428571428572 0
28 50 50 0
29 42.8571428571429 42.8571428571429 0
30 35.7142857142857 35.7142857142857 0
31 28.5714285714286 28.5714285714286 0
32 21.4285714285715 21.4285714285715 0
33 14.2857142857143 14.2857142857143 0
34 7.14285714285717 7.14285714285717 0
35 64.16996706362 50.6004065483455 0
36 70.2398546128696 9.76882017062681 0
37 50.4550188058073 36.7338747330915 0
38 53.2491216800792 9.89274377022446 0
39 93.0469068212518 29.6385051722556 0
40 87.3464648643137 47.0137619736685 0
41 79.8171748929059 65.23239749905 0
42 44.8830819519762 31.1660558612699 0
43 32.7358264504611 21.4792014660434 0
44 89.8294920246598 58.2857277052355 0
45 38.3534327184262 7.64895483499531 0
46 90.5761983477489 77.1940172890592 0
47 27.1765664830618 9.93932266941235 0
48 89.7091139425794 10.0022187766819 0
49 94.7171516900304 87.2789588432197 0
50 16.669472735461 9.45157090835117 0
51 82.8396535666896 74.0123031140545 0
52 71.1320883642955 57.4773978230257 0
53 57.3793005846659 43.8994510275654 0
54 88.4137994272629 21.5096079101175 0
55 79.7963673762677 9.66048988493944 0
56 90.6942019595867 36.3875595913239 0
57 60.8713413505286 9.99118155804585 0
58 48.5575530445344 20.2847238918013 0
59 90.4853180109645 67.7120745399174 0
60 65.0604217130436 39.0931618921422 0
61 79.5329463879062 16.9430909147685 0
62 69.9153801571318 19.9373406404299 0
63 79.4210189695734 29.8137140925456 0
64 77.2383602784347 49.7136907463562 0
65 58.553736326999 31.8047021395024 0
66 63.1612204392804 20.0895305199452 0
67 71.67043043589 45.3437546018246 0
68 77.6581981447169 39.7097307509158 0
69 69.3542977542986 29.6946999603422 0
70 82.5354267257349 57.5748704827487 0
71 70.5847017319637 36.0112878671709 0
$EndNodes
$Elements
56
1 2 2 1 1 50 32 33 
2 2 2 1 1 33 34 50 
3 2 2 1 1 31 32 43 
4 2 2 1 1 43 30 31 
5 2 2 1 1 45 6 7 
6 2 2 1 1 7 8 45 
7 3 2 1 1 67 68 40 64
8 3 2 1 1 58 43 47 45
9 3 2 1 1 50 34 1 4
10 3 2 1 1 47 50 4 5
11 3 2 1 1 60 53 37 65
12 3 2 1 1 50 47 43 32
13 3 2 1 1 41 52 64 70
14 3 2 1 1 67 64 52 35
15 3 2 1 1 58 42 30 43
16 3 2 1 1 69 65 58 66
17 3 2 1 1 51 46 23 24
18 3 2 1 1 42 58 65 37
19 3 2 1 1 41 51 24 25
20 3 2 1 1 35 53 60 67
21 3 2 1 1 52 41 25 26
22 3 2 1 1 35 52 26 27
23 3 2 1 1 42 37 29 30
24 3 2 1 1 53 35 27 28
25 3 2 1 1 37 53 28 29
26 3 2 1 1 12 2 13 48
27 3 2 1 1 54 48 13 14
28 3 2 1 1 11 12 48 55
29 3 2 1 1 66 57 36 62
30 3 2 1 1 54 39 56 63
31 3 2 1 1 54 14 15 39
32 3 2 1 1 61 55 48 54
33 3 2 1 1 57 9 10 36
34 3 2 1 1 56 39 15 16
35 3 2 1 1 66 62 63 69
36 3 2 1 1 62 36 55 61
37 3 2 1 1 11 55 36 10
38 3 2 1 1 56 16 17 40
39 3 2 1 1 57 38 8 9
40 3 2 1 1 68 71 69 63
41 3 2 1 1 63 56 40 68
42 3 2 1 1 17 18 44 40
43 3 2 1 1 58 45 8 38
44 3 2 1 1 19 59 44 18
45 3 2 1 1 64 40 44 70
46 3 2 1 1 58 38 57 66
47 3 2 1 1 54 63 62 61
48 3 2 1 1 20 46 59 19
49 3 2 1 1 22 23 46 49
50 3 2 1 1 41 59 46 51
51 3 2 1 1 59 41 70 44
52 3 2 1 1 3 22 49 21
53 3 2 1 1 68 67 60 71
54 3 2 1 1 65 69 71 60
55 3 2 1 1 21 49 46 20
56 3 2 1 1 5 6 45 47
$EndElements
