$MeshFormat
2.2 0 8
$EndMeshFormat
$Nodes
388
1 0.3 0 0.3
2 0.7 0 0.3
3 0.7 0 0.32
4 0.7 0 0.58
5 0.7 0 0.7
6 0.3 0 0.7
7 0.3 0 0.48
8 0.3 0 0.42
9 0 0 0
10 1 0 0
11 0 0 0.3
12 1 0 0.2
13 0 0 0.6
14 1 0 0.7
15 0 0 1
16 1 0 1
17 0.35 0 0.3
18 0.4 0 0.3
19 0.45 0 0.3
20 0.5 0 0.3
21 0.55 0 0.3
22 0.6 0 0.3
23 0.65 0 0.3
24 0.7 0 0.372
25 0.7 0 0.424
26 0.7 0 0.476
27 0.7 0 0.528
28 0.7 0 0.64
29 0.65 0 0.7
30 0.6 0 0.7
31 0.55 0 0.7
32 0.5 0 0.7
33 0.45 0 0.7
34 0.4 0 0.7
35 0.35 0 0.7
36 0.3 0 0.645
37 0.3 0 0.59
38 0.3 0 0.535
39 0.3 0 0.36
40 0.05 0 0
41 0.1 0 0
42 0.15 0 0
43 0.2 0 0
44 0.25 0 0
45 0.3 0 0
46 0.35 0 0
47 0.4 0 0
48 0.45 0 0
49 0.5 0 0
50 0.55 0 0
51 0.6 0 0
52 0.65 0 0
53 0.7 0 0
54 0.75 0 0
55 0.8 0 0
56 0.85 0 0
57 0.9 0 0
58 0.95 0 0
59 0 0 0.25
60 0 0 0.2
61 0 0 0.15
62 0 0 0.1
63 0 0 0.0500000000000001
64 1 0 0.0500000000000001
65 1 0 0.1
66 1 0 0.15
67 0 0 0.55
68 0 0 0.5
69 0 0 0.45
70 0 0 0.4
71 0 0 0.35
72 1 0 0.25
73 1 0 0.3
74 1 0 0.35
75 1 0 0.4
76 1 0 0.45
77 1 0 0.5
78 1 0 0.55
79 1 0 0.6
80 1 0 0.65
81 0 0 0.95
82 0 0 0.9
83 0 0 0.85
84 0 0 0.8
85 0 0 0.75
86 0 0 0.7
87 0 0 0.65
88 1 0 0.75
89 1 0 0.8
90 1 0 0.85
91 1 0 0.9
92 1 0 0.95
93 0.95 0 1
94 0.9 0 1
95 0.85 0 1
96 0.8 0 1
97 0.75 0 1
98 0.7 0 1
99 0.65 0 1
100 0.6 0 1
101 0.55 0 1
102 0.5 0 1
103 0.45 0 1
104 0.4 0 1
105 0.35 0 1
106 0.3 0 1
107 0.25 0 1
108 0.2 0 1
109 0.15 0 1
110 0.1 0 1
111 0.0499999999999999 0 1
112 0.0499999999999999 0 0.32
113 0.0999999999999998 0 0.34
114 0.15 0 0.36
115 0.2 0 0.38
116 0.25 0 0.4
117 0.75 0 0.6
118 0.8 0 0.62
119 0.85 0 0.64
120 0.9 0 0.66
121 0.95 0 0.68
122 0.0499999999999999 0 0.58
123 0.0999999999999998 0 0.56
124 0.15 0 0.54
125 0.2 0 0.52
126 0.25 0 0.5
127 0.75 0 0.3
128 0.8 0 0.28
129 0.85 0 0.26
130 0.9 0 0.24
131 0.95 0 0.22
132 0.68981318526726 0 0.258265260487167
133 0.349940675928142 0 0.749819441353259
134 0.550005436895204 0 0.749992736772041
135 0.598485726304624 0 0.252385530479335
136 0.0499743476954346 0 0.797904197743896
137 0.499944881758961 0 0.250117664233586
138 0.800097297042534 0 0.949649155926783
139 0.0509351205078331 0 0.153630196855285
140 0.700035838139617 0 0.949878105492405
141 0.20001324677292 0 0.0501457219211219
142 0.399963391942184 0 0.250023627857171
143 0.65191027312045 0 0.0478843960143052
144 0.950509265617264 0 0.499438343657477
145 0.750501187544013 0 0.0491954312255197
146 0.399999393356535 0 0.949998849400759
147 0.299998166567738 0 0.949993679823746
148 0.600001865028042 0 0.949989428216714
149 0.450409681603395 0 0.0498759431320306
150 0.65020613140559 0 0.749652980433598
151 0.299998046410662 0 0.0500371111671903
152 0.752469624431475 0 0.482719144716195
153 0.847589262717877 0 0.0510006672032389
154 0.150002542582877 0 0.949974217090604
155 0.949771629899114 0 0.846933137503703
156 0.248841763826953 0 0.695938433604413
157 0.0508821273201541 0 0.264859335161709
158 0.947705623870149 0 0.737069089991874
159 0.948201731066866 0 0.164106104366459
160 0.050013358645936 0 0.899821901054346
161 0.947512068282951 0 0.10807205808573
162 0.950525975813889 0 0.39830109611453
163 0.752184712547739 0 0.541308680534197
164 0.0607070271103098 0 0.638103568147174
165 0.0432102414084711 0 0.40549814457981
166 0.551281596525927 0 0.0491869477798411
167 0.250065629847048 0 0.642841382403723
168 0.757804357095814 0 0.418082916489247
169 0.0500284926452316 0 0.0501575497113677
170 0.950002080682366 0 0.94968877011704
171 0.100004369124638 0 0.949958140484141
172 0.449998133043767 0 0.749996126658923
173 0.0472769983540486 0 0.697679221924675
174 0.249998135425643 0 0.949987628810084
175 0.499999967646898 0 0.949999870363519
176 0.349817611785818 0 0.250392694092758
177 0.900026537144915 0 0.949514545047262
178 0.350032190053678 0 0.0500036035563934
179 0.10004950711509 0 0.0502449035896058
180 0.050003669065033 0 0.949960359400255
181 0.957261428304746 0 0.594401333011216
182 0.897153090850199 0 0.0535559903829463
183 0.948423372305389 0 0.0531808154271238
184 0.95279261073631 0 0.3485986541299
185 0.0467589873405845 0 0.449978854710855
186 0.23671771516622 0 0.445290079682821
187 0.255875725078333 0 0.546057389135213
188 0.253826595380946 0 0.357497181301549
189 0.747892030127699 0 0.641324204042493
190 0.751275387759559 0 0.355618752045866
191 0.0427709674352827 0 0.494577861671891
192 0.957271883447503 0 0.26098885591028
193 0.957140874073864 0 0.638271609465504
194 0.0432529825383115 0 0.36171326820837
195 0.0430767169209788 0 0.538519779421632
196 0.701026141548162 0 0.748287101078722
197 0.29947406546685 0 0.252362579726138
198 0.299983116372034 0 0.899942490471498
199 0.399960049795365 0 0.200048572846163
200 0.198792607229747 0 0.694393908610431
201 0.80744355996826 0 0.439532737663643
202 0.299972541745338 0 0.100248842775298
203 0.902021060584581 0 0.393375273399336
204 0.100815650202485 0 0.686035597996209
205 0.191528916603468 0 0.419181991807815
206 0.805116861583095 0 0.490174242723576
207 0.948401374416237 0 0.79310096633851
208 0.0515971853753209 0 0.209095916427295
209 0.887866157708207 0 0.116114139954123
210 0.645469854315888 0 0.255522186936553
211 0.701353435430666 0 0.048401496950332
212 0.601667743954226 0 0.0483789547778175
213 0.299729368277441 0 0.749116132331325
214 0.760756407489976 0 0.691585052518383
215 0.24985522048686 0 0.308981776364317
216 0.500684989021094 0 0.0497055532055907
217 0.798906616984007 0 0.0494400486255956
218 0.949964930201619 0 0.898819228473562
219 0.100444909325891 0 0.101419039384734
220 0.399986089971049 0 0.749961747570442
221 0.850076870182294 0 0.949500093572286
222 0.44999973851919 0 0.94999954689737
223 0.449977541658361 0 0.2500142493808
224 0.549631597681981 0 0.250792060155393
225 0.60004500133082 0 0.749921906226286
226 0.349997810320459 0 0.949993711665791
227 0.0503140512532834 0 0.101125071307457
228 0.750083569615634 0 0.949728474692887
229 0.650013526945 0 0.949940381688826
230 0.249994299965017 0 0.050108767617687
231 0.55000034643352 0 0.949997948949999
232 0.199999988645014 0 0.949978384102883
233 0.150065833346588 0 0.0502936026976246
234 0.500000587117062 0 0.749998212905398
235 0.400129655158719 0 0.0499556167953657
236 0.0500212560408237 0 0.849214044654913
237 0.150008743661664 0 0.899771101202858
238 0.100017973911485 0 0.899689227242449
239 0.0495955252163249 0 0.746375080470844
240 0.95032824108364 0 0.448491104910684
241 0.95238449160979 0 0.549328970031141
242 0.0952815059435606 0 0.452020097477135
243 0.0901167747617562 0 0.394129850563555
244 0.0896239595534099 0 0.50852328078075
245 0.911139905497564 0 0.60561811388071
246 0.915136341807467 0 0.29055827155754
247 0.207806477042335 0 0.578586268427526
248 0.256300231426454 0 0.594164989060134
249 0.190825369587806 0 0.463041755017421
250 0.95897309873993 0 0.304262274271158
251 0.800098801598868 0 0.668378743694846
252 0.200347313285738 0 0.310971699049657
253 0.110164512649814 0 0.605574388397576
254 0.894636026749569 0 0.180411352911211
255 0.685174580113147 0 0.218838332941101
256 0.749154905862062 0 0.748268612464793
257 0.60326226244242 0 0.0974438071304091
258 0.701213552155312 0 0.0960394109743588
259 0.850169695628408 0 0.898310516062328
260 0.39999599236453 0 0.899990301980935
261 0.550001542636562 0 0.899994480906984
262 0.750246054371967 0 0.898978588123579
263 0.249565034784533 0 0.255525777203977
264 0.897258143987381 0 0.791125031568991
265 0.10929700338156 0 0.219320250487079
266 0.836782161005797 0 0.198143446221459
267 0.599314783727999 0 0.205099235898333
268 0.500754336572266 0 0.099682085116196
269 0.349934638761031 0 0.799799702125009
270 0.449996539069171 0 0.799991492637776
271 0.550009630385896 0 0.799981914356259
272 0.199989953904705 0 0.89982212962902
273 0.34984828607902 0 0.200515096500834
274 0.350015571081035 0 0.100089408268288
275 0.650197406347968 0 0.799456737609902
276 0.0999641082378752 0 0.796986937578861
277 0.902110148728284 0 0.496651397739889
278 0.807575629714118 0 0.389437114389779
279 0.810702739166146 0 0.555910960904422
280 0.200366889538744 0 0.640527625129402
281 0.0999225896758022 0 0.744355599246237
282 0.10247292024877 0 0.155346323935752
283 0.905249389218268 0 0.547431409624761
284 0.90971698164006 0 0.34570092092629
285 0.749181428172013 0 0.0978483006408038
286 0.249432611114102 0 0.747823663839257
287 0.550436037953222 0 0.201229591601703
288 0.450017368931344 0 0.199974686527956
289 0.249977833494504 0 0.899876174459471
290 0.349988584455561 0 0.899966660693217
291 0.50000020429666 0 0.899998127718462
292 0.600010592575001 0 0.899951035774047
293 0.200169352382868 0 0.100797270736203
294 0.400122438897014 0 0.099957205412207
295 0.900013976168402 0 0.898185087380112
296 0.700133521070887 0 0.899404497563628
297 0.250021362261908 0 0.100561635488907
298 0.150499064788849 0 0.101373938686614
299 0.149988855013438 0 0.849026420442293
300 0.100009805881944 0 0.848821311147954
301 0.840235254822089 0 0.0963730891078887
302 0.901198049975993 0 0.445114535363853
303 0.853181556067045 0 0.441679221799872
304 0.860117914359041 0 0.592047815715608
305 0.860926806419327 0 0.324530348955482
306 0.145791895442337 0 0.407856607091771
307 0.151640167258148 0 0.300939689733132
308 0.833435773312492 0 0.688273065466492
309 0.836853406264333 0 0.142710738594773
310 0.15611205748622 0 0.586666659316011
311 0.142390553000688 0 0.502245536206523
312 0.805406033671773 0 0.737311455042409
313 0.20117780033792 0 0.255695858911893
314 0.201507196055705 0 0.203346141961453
315 0.696724992008511 0 0.140620992476743
316 0.249743072395275 0 0.798875149630599
317 0.75084939784285 0 0.796240103082595
318 0.250045376716983 0 0.202902308766484
319 0.149897724653878 0 0.797455465516937
320 0.152334150075616 0 0.153589637161409
321 0.899474686529292 0 0.84574291116661
322 0.652823399067583 0 0.0952173795280439
323 0.854687675746613 0 0.388655237786851
324 0.608072546310601 0 0.152286718485616
325 0.199585211865582 0 0.746617156420035
326 0.299930377376787 0 0.849748567276588
327 0.249905728251401 0 0.849527961838786
328 0.644937763896259 0 0.212482670262614
329 0.750506473654064 0 0.847651877128148
330 0.299905875368561 0 0.150814255367445
331 0.201059957123697 0 0.152005322987366
332 0.551967275474499 0 0.0993892385213475
333 0.500180236061374 0 0.200214554997058
334 0.796383625032512 0 0.0973145209289671
335 0.450183935840571 0 0.149903711357737
336 0.400047838556773 0 0.150031232903197
337 0.450350118408337 0 0.0998507302324644
338 0.39998748452878 0 0.849965797961465
339 0.600032271584267 0 0.849892742798139
340 0.550008952164098 0 0.849974572249183
341 0.500001639057511 0 0.799993487399394
342 0.399979357517388 0 0.799940747221176
343 0.449998276512159 0 0.899995362612385
344 0.600062164404962 0 0.799846908353979
345 0.700368899673296 0 0.798437638730977
346 0.650053750886174 0 0.899754297099871
347 0.199921333212371 0 0.849220281850864
348 0.800279017634889 0 0.898509067120607
349 0.299775577062827 0 0.201662075475565
350 0.299830876455613 0 0.79938217687648
351 0.719505227518803 0 0.221647339363151
352 0.884226191488133 0 0.726400833756076
353 0.102297321744015 0 0.28256317094738
354 0.152957478873189 0 0.696476823339607
355 0.854872940524907 0 0.493959591607683
356 0.861172126565305 0 0.542657054703667
357 0.146050508086196 0 0.641538266924824
358 0.803618037292471 0 0.338649420117382
359 0.846004001650426 0 0.753696984914383
360 0.157683658403062 0 0.250495590748619
361 0.144118355160463 0 0.457527031160093
362 0.796838657942347 0 0.228755719668494
363 0.800826343750651 0 0.794928438362703
364 0.745658685489165 0 0.150212857265077
365 0.849893123944697 0 0.846045865600401
366 0.651695174866018 0 0.175151893390792
367 0.724517635509306 0 0.18874359644381
368 0.551957927334304 0 0.150550694332438
369 0.500664962240561 0 0.150036205772862
370 0.500001576761223 0 0.849992608665531
371 0.449996069188084 0 0.849987256352207
372 0.650119437962069 0 0.849518097582183
373 0.349959812410862 0 0.849868081306582
374 0.349954558291085 0 0.150354709011602
375 0.250203206036767 0 0.15151797847101
376 0.700286097685336 0 0.84874136683832
377 0.800372414615444 0 0.846772830072022
378 0.199791508021975 0 0.798088013793854
379 0.15023730869205 0 0.745346012599408
380 0.689719953109538 0 0.180678601680065
381 0.795945452034956 0 0.140864501521615
382 0.158210328237891 0 0.201554017287473
383 0.848400341698972 0 0.793834268562289
384 0.7314101776744 0 0.255021139927436
385 0.764352778693641 0 0.241940587036216
386 0.783050511354084 0 0.187076865405455
387 0.655698612792956 0 0.136363325084222
388 0.750520979396514 0 0.210450093112631
$EndNodes
$Elements
345
1 2 2 1 1 324 387 366 
2 2 2 1 1 164 204 173 
3 2 2 1 1 209 309 301 
4 2 2 1 1 128 385 362 
5 2 2 1 1 284 305 246 
6 2 2 1 1 186 249 205 
7 2 2 1 1 265 382 360 
8 2 2 1 1 214 312 256 
9 2 2 1 1 192 250 246 
10 2 2 1 1 187 248 247 
11 2 2 1 1 168 278 201 
12 2 2 1 1 310 357 253 
13 2 2 1 1 362 386 266 
14 2 2 1 1 8 186 116 
15 2 2 1 1 279 356 304 
16 2 2 1 1 204 357 354 
17 2 2 1 1 193 245 181 
18 2 2 1 1 191 244 195 
19 2 2 1 1 194 243 165 
20 2 2 1 1 124 311 125 
21 2 2 1 1 115 188 116 
22 2 2 1 1 118 189 117 
23 2 2 1 1 381 386 364 
24 2 2 1 1 367 388 351 
25 2 2 1 1 127 3 2 
26 3 2 1 1 294 274 178 235
27 3 2 1 1 46 178 151 45
28 3 2 1 1 149 235 47 48
29 3 2 1 1 47 235 178 46
30 3 2 1 1 151 230 44 45
31 3 2 1 1 61 139 208 60
32 3 2 1 1 162 184 74 75
33 3 2 1 1 22 135 210 23
34 3 2 1 1 136 236 83 84
35 3 2 1 1 274 202 151 178
36 3 2 1 1 17 1 197 176
37 3 2 1 1 197 349 273 176
38 3 2 1 1 94 177 170 93
39 3 2 1 1 177 94 95 221
40 3 2 1 1 140 98 99 229
41 3 2 1 1 98 140 228 97
42 3 2 1 1 102 175 231 101
43 3 2 1 1 133 213 6 35
44 3 2 1 1 62 63 169 227
45 3 2 1 1 44 230 141 43
46 3 2 1 1 141 233 42 43
47 3 2 1 1 134 234 32 31
48 3 2 1 1 297 230 151 202
49 3 2 1 1 81 82 160 180
50 3 2 1 1 290 226 147 198
51 3 2 1 1 260 146 226 290
52 3 2 1 1 180 111 15 81
53 3 2 1 1 111 180 171 110
54 3 2 1 1 176 273 199 142
55 3 2 1 1 40 169 63 9
56 3 2 1 1 17 176 142 18
57 3 2 1 1 42 233 179 41
58 3 2 1 1 183 58 10 64
59 3 2 1 1 65 161 183 64
60 3 2 1 1 62 227 139 61
61 3 2 1 1 32 234 172 33
62 3 2 1 1 270 172 234 341
63 3 2 1 1 33 172 220 34
64 3 2 1 1 133 35 34 220
65 3 2 1 1 229 99 100 148
66 3 2 1 1 288 223 142 199
67 3 2 1 1 261 231 175 291
68 3 2 1 1 101 231 148 100
69 3 2 1 1 175 102 103 222
70 3 2 1 1 219 227 169 179
71 3 2 1 1 57 182 153 56
72 3 2 1 1 141 293 298 233
73 3 2 1 1 140 296 262 228
74 3 2 1 1 292 346 229 148
75 3 2 1 1 229 346 296 140
76 3 2 1 1 222 343 291 175
77 3 2 1 1 104 146 222 103
78 3 2 1 1 226 146 104 105
79 3 2 1 1 150 29 5 196
80 3 2 1 1 160 82 83 236
81 3 2 1 1 90 155 207 89
82 3 2 1 1 134 271 341 234
83 3 2 1 1 106 147 226 105
84 3 2 1 1 292 148 231 261
85 3 2 1 1 155 90 91 218
86 3 2 1 1 344 225 150 275
87 3 2 1 1 340 370 341 271
88 3 2 1 1 93 170 92 16
89 3 2 1 1 230 297 293 141
90 3 2 1 1 344 339 340 271
91 3 2 1 1 96 138 221 95
92 3 2 1 1 223 19 18 142
93 3 2 1 1 58 183 182 57
94 3 2 1 1 222 146 260 343
95 3 2 1 1 107 108 232 174
96 3 2 1 1 232 154 237 272
97 3 2 1 1 171 154 109 110
98 3 2 1 1 160 238 171 180
99 3 2 1 1 342 220 172 270
100 3 2 1 1 233 298 219 179
101 3 2 1 1 171 238 237 154
102 3 2 1 1 174 289 198 147
103 3 2 1 1 174 147 106 107
104 3 2 1 1 238 300 299 237
105 3 2 1 1 41 179 169 40
106 3 2 1 1 370 371 270 341
107 3 2 1 1 154 232 108 109
108 3 2 1 1 344 275 372 339
109 3 2 1 1 138 96 97 228
110 3 2 1 1 218 91 92 170
111 3 2 1 1 372 346 292 339
112 3 2 1 1 225 344 271 134
113 3 2 1 1 291 370 340 261
114 3 2 1 1 259 295 177 221
115 3 2 1 1 177 295 218 170
116 3 2 1 1 134 31 30 225
117 3 2 1 1 30 29 150 225
118 3 2 1 1 289 174 232 272
119 3 2 1 1 300 238 160 236
120 3 2 1 1 371 343 260 338
121 3 2 1 1 339 292 261 340
122 3 2 1 1 289 327 326 198
123 3 2 1 1 370 291 343 371
124 3 2 1 1 342 270 371 338
125 3 2 1 1 135 22 21 224
126 3 2 1 1 20 137 224 21
127 3 2 1 1 290 373 338 260
128 3 2 1 1 137 20 19 223
129 3 2 1 1 326 373 290 198
130 3 2 1 1 338 373 269 342
131 3 2 1 1 220 342 269 133
132 3 2 1 1 327 289 272 347
133 3 2 1 1 336 199 273 374
134 3 2 1 1 374 330 202 274
135 3 2 1 1 272 237 299 347
136 3 2 1 1 259 221 138 348
137 3 2 1 1 374 274 294 336
138 3 2 1 1 273 349 330 374
139 3 2 1 1 269 373 326 350
140 3 2 1 1 333 137 223 288
141 3 2 1 1 199 336 335 288
142 3 2 1 1 138 228 262 348
143 3 2 1 1 329 262 296 376
144 3 2 1 1 150 196 345 275
145 3 2 1 1 213 133 269 350
146 3 2 1 1 287 224 137 333
147 3 2 1 1 267 135 224 287
148 3 2 1 1 296 346 372 376
149 3 2 1 1 330 375 297 202
150 3 2 1 1 375 331 293 297
151 3 2 1 1 335 336 294 337
152 3 2 1 1 76 240 162 75
153 3 2 1 1 331 320 298 293
154 3 2 1 1 275 345 376 372
155 3 2 1 1 235 149 337 294
156 3 2 1 1 299 300 276 319
157 3 2 1 1 319 378 347 299
158 3 2 1 1 287 368 324 267
159 3 2 1 1 144 240 76 77
160 3 2 1 1 298 320 282 219
161 3 2 1 1 136 84 85 239
162 3 2 1 1 55 56 153 217
163 3 2 1 1 276 300 236 136
164 3 2 1 1 211 53 54 145
165 3 2 1 1 227 219 282 139
166 3 2 1 1 85 86 173 239
167 3 2 1 1 212 51 52 143
168 3 2 1 1 333 288 335 369
169 3 2 1 1 145 54 55 217
170 3 2 1 1 337 268 369 335
171 3 2 1 1 329 376 345 317
172 3 2 1 1 375 330 349 318
173 3 2 1 1 327 347 378 316
174 3 2 1 1 143 52 53 211
175 3 2 1 1 368 287 333 369
176 3 2 1 1 318 349 197 263
177 3 2 1 1 240 302 203 162
178 3 2 1 1 325 286 316 378
179 3 2 1 1 317 345 196 256
180 3 2 1 1 316 286 213 350
181 3 2 1 1 284 184 162 203
182 3 2 1 1 350 326 327 316
183 3 2 1 1 377 365 259 348
184 3 2 1 1 369 268 332 368
185 3 2 1 1 144 77 78 241
186 3 2 1 1 285 145 217 334
187 3 2 1 1 166 50 51 212
188 3 2 1 1 378 319 379 325
189 3 2 1 1 156 286 325 200
190 3 2 1 1 6 213 286 156
191 3 2 1 1 348 262 329 377
192 3 2 1 1 26 25 168 152
193 3 2 1 1 156 167 36 6
194 3 2 1 1 144 277 302 240
195 3 2 1 1 73 74 184 250
196 3 2 1 1 248 37 36 167
197 3 2 1 1 295 321 155 218
198 3 2 1 1 365 321 295 259
199 3 2 1 1 27 26 152 163
200 3 2 1 1 258 211 145 285
201 3 2 1 1 88 89 207 158
202 3 2 1 1 149 48 49 216
203 3 2 1 1 59 60 208 157
204 3 2 1 1 216 166 332 268
205 3 2 1 1 216 49 50 166
206 3 2 1 1 200 325 379 354
207 3 2 1 1 268 337 149 216
208 3 2 1 1 387 322 258 315
209 3 2 1 1 257 212 143 322
210 3 2 1 1 200 280 167 156
211 3 2 1 1 78 79 181 241
212 3 2 1 1 257 332 166 212
213 3 2 1 1 217 153 301 334
214 3 2 1 1 173 86 87 164
215 3 2 1 1 161 65 66 159
216 3 2 1 1 69 185 191 68
217 3 2 1 1 188 215 1 39
218 3 2 1 1 189 214 5 28
219 3 2 1 1 324 368 332 257
220 3 2 1 1 263 197 1 215
221 3 2 1 1 256 196 5 214
222 3 2 1 1 130 129 266 254
223 3 2 1 1 135 267 328 210
224 3 2 1 1 242 361 311 244
225 3 2 1 1 279 118 117 163
226 3 2 1 1 37 248 187 38
227 3 2 1 1 303 355 206 201
228 3 2 1 1 131 130 254 159
229 3 2 1 1 193 181 79 80
230 3 2 1 1 309 381 334 301
231 3 2 1 1 387 324 257 322
232 3 2 1 1 211 258 322 143
233 3 2 1 1 68 191 195 67
234 3 2 1 1 381 309 266 386
235 3 2 1 1 206 279 163 152
236 3 2 1 1 13 122 164 87
237 3 2 1 1 12 131 159 66
238 3 2 1 1 157 112 11 59
239 3 2 1 1 163 117 4 27
240 3 2 1 1 158 121 14 88
241 3 2 1 1 181 245 283 241
242 3 2 1 1 80 14 121 193
243 3 2 1 1 122 13 67 195
244 3 2 1 1 248 167 280 247
245 3 2 1 1 120 245 193 121
246 3 2 1 1 168 25 24 190
247 3 2 1 1 205 115 116 186
248 3 2 1 1 277 144 241 283
249 3 2 1 1 351 384 132 255
250 3 2 1 1 306 114 115 205
251 3 2 1 1 195 244 123 122
252 3 2 1 1 131 12 72 192
253 3 2 1 1 280 200 354 357
254 3 2 1 1 114 306 243 113
255 3 2 1 1 152 168 201 206
256 3 2 1 1 126 125 249 186
257 3 2 1 1 317 363 377 329
258 3 2 1 1 363 312 359 383
259 3 2 1 1 318 314 331 375
260 3 2 1 1 71 11 112 194
261 3 2 1 1 120 352 308 119
262 3 2 1 1 208 139 282 265
263 3 2 1 1 113 353 307 114
264 3 2 1 1 38 187 126 7
265 3 2 1 1 285 364 315 258
266 3 2 1 1 209 161 159 254
267 3 2 1 1 182 183 161 209
268 3 2 1 1 207 155 321 264
269 3 2 1 1 314 313 360 382
270 3 2 1 1 130 131 192 246
271 3 2 1 1 321 365 383 264
272 3 2 1 1 282 320 382 265
273 3 2 1 1 113 243 194 112
274 3 2 1 1 302 277 355 303
275 3 2 1 1 379 319 276 281
276 3 2 1 1 123 124 310 253
277 3 2 1 1 124 123 244 311
278 3 2 1 1 73 250 192 72
279 3 2 1 1 285 334 381 364
280 3 2 1 1 3 127 190 24
281 3 2 1 1 7 126 186 8
282 3 2 1 1 314 318 263 313
283 3 2 1 1 127 128 358 190
284 3 2 1 1 128 129 305 358
285 3 2 1 1 367 351 255 380
286 3 2 1 1 254 266 309 209
287 3 2 1 1 187 247 125 126
288 3 2 1 1 276 136 239 281
289 3 2 1 1 245 120 119 304
290 3 2 1 1 306 361 242 243
291 3 2 1 1 377 363 383 365
292 3 2 1 1 247 310 124 125
293 3 2 1 1 116 188 39 8
294 3 2 1 1 117 189 28 4
295 3 2 1 1 363 317 256 312
296 3 2 1 1 122 123 253 164
297 3 2 1 1 303 323 203 302
298 3 2 1 1 331 314 382 320
299 3 2 1 1 281 204 354 379
300 3 2 1 1 250 184 284 246
301 3 2 1 1 323 303 201 278
302 3 2 1 1 112 157 353 113
303 3 2 1 1 70 165 185 69
304 3 2 1 1 121 158 352 120
305 3 2 1 1 210 328 255 132
306 3 2 1 1 385 384 351 388
307 3 2 1 1 194 165 70 71
308 3 2 1 1 265 353 157 208
309 3 2 1 1 264 352 158 207
310 3 2 1 1 301 153 182 209
311 3 2 1 1 118 279 304 119
312 3 2 1 1 307 360 313 252
313 3 2 1 1 253 357 204 164
314 3 2 1 1 356 355 277 283
315 3 2 1 1 380 255 328 366
316 3 2 1 1 315 364 367 380
317 3 2 1 1 132 2 23 210
318 3 2 1 1 311 361 249 125
319 3 2 1 1 173 204 281 239
320 3 2 1 1 251 308 312 214
321 3 2 1 1 323 305 284 203
322 3 2 1 1 358 305 323 278
323 3 2 1 1 129 130 246 305
324 3 2 1 1 251 118 119 308
325 3 2 1 1 252 115 114 307
326 3 2 1 1 364 386 388 367
327 3 2 1 1 188 115 252 215
328 3 2 1 1 189 118 251 214
329 3 2 1 1 380 366 387 315
330 3 2 1 1 388 386 362 385
331 3 2 1 1 283 245 304 356
332 3 2 1 1 129 128 362 266
333 3 2 1 1 206 355 356 279
334 3 2 1 1 360 307 353 265
335 3 2 1 1 191 185 242 244
336 3 2 1 1 385 128 127 384
337 3 2 1 1 280 357 310 247
338 3 2 1 1 264 383 359 352
339 3 2 1 1 308 352 359 312
340 3 2 1 1 366 328 267 324
341 3 2 1 1 205 249 361 306
342 3 2 1 1 242 185 165 243
343 3 2 1 1 313 263 215 252
344 3 2 1 1 190 358 278 168
345 3 2 1 1 2 132 384 127
$EndElements
