$MeshFormat
2.2 0 8
$EndMeshFormat
$Nodes
1562
1 0.3 0 0.3
2 0.7 0 0.3
3 0.7 0 0.32
4 0.7 0 0.58
5 0.7 0 0.7
6 0.3 0 0.7
7 0.3 0 0.48
8 0.3 0 0.42
9 0 0 0
10 1 0 0
11 0 0 0.3
12 1 0 0.2
13 0 0 0.6
14 1 0 0.7
15 0 0 1
16 1 0 1
17 0.35 0 0.3
18 0.4 0 0.3
19 0.45 0 0.3
20 0.5 0 0.3
21 0.55 0 0.3
22 0.6 0 0.3
23 0.65 0 0.3
24 0.7 0 0.372
25 0.7 0 0.424
26 0.7 0 0.476
27 0.7 0 0.528
28 0.7 0 0.64
29 0.65 0 0.7
30 0.6 0 0.7
31 0.55 0 0.7
32 0.5 0 0.7
33 0.45 0 0.7
34 0.4 0 0.7
35 0.35 0 0.7
36 0.3 0 0.645
37 0.3 0 0.59
38 0.3 0 0.535
39 0.3 0 0.36
40 0.05 0 0
41 0.1 0 0
42 0.15 0 0
43 0.2 0 0
44 0.25 0 0
45 0.3 0 0
46 0.35 0 0
47 0.4 0 0
48 0.45 0 0
49 0.5 0 0
50 0.55 0 0
51 0.6 0 0
52 0.65 0 0
53 0.7 0 0
54 0.75 0 0
55 0.8 0 0
56 0.85 0 0
57 0.9 0 0
58 0.95 0 0
59 0 0 0.25
60 0 0 0.2
61 0 0 0.15
62 0 0 0.1
63 0 0 0.0500000000000001
64 1 0 0.0500000000000001
65 1 0 0.1
66 1 0 0.15
67 0 0 0.55
68 0 0 0.5
69 0 0 0.45
70 0 0 0.4
71 0 0 0.35
72 1 0 0.25
73 1 0 0.3
74 1 0 0.35
75 1 0 0.4
76 1 0 0.45
77 1 0 0.5
78 1 0 0.55
79 1 0 0.6
80 1 0 0.65
81 0 0 0.95
82 0 0 0.9
83 0 0 0.85
84 0 0 0.8
85 0 0 0.75
86 0 0 0.7
87 0 0 0.65
88 1 0 0.75
89 1 0 0.8
90 1 0 0.85
91 1 0 0.9
92 1 0 0.95
93 0.95 0 1
94 0.9 0 1
95 0.85 0 1
96 0.8 0 1
97 0.75 0 1
98 0.7 0 1
99 0.65 0 1
100 0.6 0 1
101 0.55 0 1
102 0.5 0 1
103 0.45 0 1
104 0.4 0 1
105 0.35 0 1
106 0.3 0 1
107 0.25 0 1
108 0.2 0 1
109 0.15 0 1
110 0.1 0 1
111 0.0499999999999999 0 1
112 0.0499999999999999 0 0.32
113 0.0999999999999998 0 0.34
114 0.15 0 0.36
115 0.2 0 0.38
116 0.25 0 0.4
117 0.75 0 0.6
118 0.8 0 0.62
119 0.85 0 0.64
120 0.9 0 0.66
121 0.95 0 0.68
122 0.0499999999999999 0 0.58
123 0.0999999999999998 0 0.56
124 0.15 0 0.54
125 0.2 0 0.52
126 0.25 0 0.5
127 0.75 0 0.3
128 0.8 0 0.28
129 0.85 0 0.26
130 0.9 0 0.24
131 0.95 0 0.22
132 0.68981318526726 0 0.258265260487167
133 0.349945779866996 0 0.749845658759202
134 0.550005437086912 0 0.749992736207345
135 0.598485726304624 0 0.252385530479335
136 0.0504106648579327 0 0.800538710325794
137 0.499944881758961 0 0.250117664233586
138 0.800097297042534 0 0.949649155926783
139 0.0509351205078331 0 0.153630196855285
140 0.70003583813964 0 0.949878105492321
141 0.20001324677292 0 0.0501457219211219
142 0.399963391942184 0 0.250023627857171
143 0.65191027312045 0 0.0478843960143052
144 0.9505013619218 0 0.50000153289801
145 0.750501187544013 0 0.0491954312255197
146 0.39999940746142 0 0.949998890962939
147 0.299999222917826 0 0.949996354438266
148 0.600001865029992 0 0.949989428209489
149 0.450409681603395 0 0.0498759431320306
150 0.650206131405952 0 0.749652980432255
151 0.299998046410662 0 0.0500371111671903
152 0.751713302347164 0 0.483331191842057
153 0.847589262717877 0 0.0510006672032389
154 0.150025616200052 0 0.950028720010386
155 0.949771629899114 0 0.846933137503703
156 0.24920712220833 0 0.697682534541806
157 0.0508821273201541 0 0.264859335161709
158 0.947705623870149 0 0.737069089991874
159 0.948201731066866 0 0.164106104366459
160 0.0500822737823457 0 0.900096281712632
161 0.947512068282951 0 0.10807205808573
162 0.949564358270256 0 0.400395408102656
163 0.752064280670423 0 0.541345491009556
164 0.0588919780449877 0 0.639319574753745
165 0.0432102414084711 0 0.40549814457981
166 0.551281596525927 0 0.0491869477798411
167 0.250623260801878 0 0.644283696654395
168 0.750525632829669 0 0.427810902690272
169 0.0500284926452316 0 0.0501575497113677
170 0.950002080682366 0 0.94968877011704
171 0.10003252387238 0 0.950036600062181
172 0.449998181827543 0 0.74999616040397
173 0.250004088293235 0 0.950001314764532
174 0.499999968957096 0 0.949999873055726
175 0.349817611785818 0 0.250392694092758
176 0.900026537144915 0 0.949514545047262
177 0.350032190053678 0 0.0500036035563934
178 0.10004950711509 0 0.0502449035896058
179 0.0500237749831171 0 0.950026899629986
180 0.957263874221047 0 0.594433467226776
181 0.897153090850199 0 0.0535559903829463
182 0.948423372305389 0 0.0531808154271238
183 0.950791069618767 0 0.350827124147347
184 0.0521609512672457 0 0.699344190967174
185 0.0467589873405845 0 0.449978854710855
186 0.23671771516622 0 0.445290079682821
187 0.256105693462368 0 0.54633697356359
188 0.253826595380946 0 0.357497181301549
189 0.747892030127699 0 0.641324204042493
190 0.750797172673795 0 0.371773916004067
191 0.0427709674352827 0 0.494577861671891
192 0.956332764239143 0 0.305995619088266
193 0.957141648588862 0 0.638278581164964
194 0.956618178394725 0 0.26190074965154
195 0.0432529825383115 0 0.36171326820837
196 0.0430767169209788 0 0.538519779421632
197 0.701026141548208 0 0.748287101078554
198 0.29947406546685 0 0.252362579726138
199 0.299988741414725 0 0.899975244568774
200 0.399960049795365 0 0.200048572846163
201 0.199549842786142 0 0.699295872515549
202 0.801129201280195 0 0.434952847602163
203 0.299972541745338 0 0.100248842775298
204 0.107542027470241 0 0.65472313771956
205 0.900271574824621 0 0.398641229927151
206 0.191528916603468 0 0.419181991807815
207 0.803503876150305 0 0.490336886011741
208 0.948401374416237 0 0.79310096633851
209 0.0515971853753209 0 0.209095916427295
210 0.887866157708207 0 0.116114139954123
211 0.645469854315888 0 0.255522186936553
212 0.701353435430666 0 0.048401496950332
213 0.601667743954226 0 0.0483789547778175
214 0.299778078323636 0 0.749481261265452
215 0.760756407489978 0 0.691585052518374
216 0.24985522048686 0 0.308981776364317
217 0.500684989021094 0 0.0497055532055907
218 0.798906616984007 0 0.0494400486255956
219 0.949964930201619 0 0.898819228473562
220 0.100444909325891 0 0.101419039384734
221 0.399986986688179 0 0.749965633217454
222 0.850076870182294 0 0.949500093572286
223 0.449999744818518 0 0.949999563049363
224 0.449977541658361 0 0.2500142493808
225 0.549631597681981 0 0.250792060155393
226 0.600045001356986 0 0.749921906147538
227 0.349998315768432 0 0.949996161304963
228 0.0503140512532834 0 0.101125071307457
229 0.750083569615637 0 0.949728474692876
230 0.650013526945403 0 0.949940381687333
231 0.249994299965017 0 0.050108767617687
232 0.550000346630199 0 0.949997949164602
233 0.200018209254829 0 0.950019018887846
234 0.150065833346588 0 0.0502936026976246
235 0.500000594579707 0 0.749998213541616
236 0.400129655158719 0 0.0499556167953657
237 0.0502344467486402 0 0.850320172873815
238 0.150147840659725 0 0.900232396989665
239 0.100167672678743 0 0.900239376635418
240 0.0507249145227724 0 0.750632881828156
241 0.950060119715083 0 0.449854388004608
242 0.95239012911886 0 0.549506325903118
243 0.90286823314637 0 0.349336275344748
244 0.910081325712516 0 0.293203005127454
245 0.0952815059435606 0 0.452020097477135
246 0.0901167747617562 0 0.394129850563555
247 0.0896239595534099 0 0.50852328078075
248 0.911137974890155 0 0.6056600233022
249 0.208450740182155 0 0.580991843960033
250 0.256730533598465 0 0.595126444681412
251 0.10758242666193 0 0.606606138779674
252 0.190825369587806 0 0.463041755017421
253 0.800098801598868 0 0.668378743694844
254 0.200347313285738 0 0.310971699049657
255 0.894636026749569 0 0.180411352911211
256 0.685174580113147 0 0.218838332941101
257 0.749154905862068 0 0.748268612464769
258 0.60326226244242 0 0.0974438071304091
259 0.701213552155312 0 0.0960394109743588
260 0.850169695628408 0 0.898310516062328
261 0.399996230901122 0 0.899991977860708
262 0.550001543006807 0 0.899994480687419
263 0.750246054371976 0 0.898978588123544
264 0.249565034784533 0 0.255525777203977
265 0.897258143987381 0 0.791125031568991
266 0.10929700338156 0 0.219320250487079
267 0.836782161005797 0 0.198143446221459
268 0.599314783727999 0 0.205099235898333
269 0.500754336572266 0 0.099682085116196
270 0.349942128788241 0 0.799860946542029
271 0.449996686690593 0 0.799991927018283
272 0.550009631389796 0 0.799981913277809
273 0.200077116070701 0 0.90015014008295
274 0.34984828607902 0 0.200515096500834
275 0.350015571081035 0 0.100089408268288
276 0.650197406350625 0 0.799456737601192
277 0.100594779770994 0 0.801389210098586
278 0.102368801504576 0 0.701361034118197
279 0.90200983347393 0 0.497460447883896
280 0.80225178946837 0 0.381182232261185
281 0.810441864834025 0 0.555965656975258
282 0.201706581775857 0 0.645065691245207
283 0.10247292024877 0 0.155346323935752
284 0.905202680045811 0 0.547660892990431
285 0.852319714495216 0 0.392239970618749
286 0.749181428172013 0 0.0978483006408038
287 0.249588613454738 0 0.749561960485219
288 0.550436037953222 0 0.201229591601703
289 0.450017368931344 0 0.199974686527956
290 0.250010276052199 0 0.900033403664983
291 0.349990084050793 0 0.899977591199065
292 0.500000211991344 0 0.899998144025942
293 0.600010592637312 0 0.89995103574616
294 0.200169352382868 0 0.100797270736203
295 0.400122438897014 0 0.099957205412207
296 0.900013976168402 0 0.898185087380112
297 0.700133521071027 0 0.899404497563109
298 0.250021362261908 0 0.100561635488907
299 0.150499064788849 0 0.101373938686614
300 0.150321434677976 0 0.850810062883814
301 0.100353344164921 0 0.850701121619116
302 0.840235254822089 0 0.0963730891078887
303 0.900793651955277 0 0.4472713217531
304 0.851642926949379 0 0.442069772708236
305 0.860067778384248 0 0.592089030806182
306 0.152845377202585 0 0.649131377475173
307 0.145791895442337 0 0.407856607091771
308 0.151640167258148 0 0.300939689733132
309 0.833435773312492 0 0.688273065466491
310 0.859032594627269 0 0.302952490881689
311 0.836853406264333 0 0.142710738594773
312 0.153479957912109 0 0.594580657023433
313 0.142390553000688 0 0.502245536206523
314 0.805406033671774 0 0.737311455042405
315 0.20117780033792 0 0.255695858911893
316 0.201507196055705 0 0.203346141961453
317 0.696724992008511 0 0.140620992476743
318 0.249820752980485 0 0.800050101023698
319 0.750849397842861 0 0.796240103082552
320 0.250045376716983 0 0.202902308766484
321 0.150310891690123 0 0.801592275478311
322 0.152334150075616 0 0.153589637161409
323 0.899474686529292 0 0.84574291116661
324 0.652823399067583 0 0.0952173795280439
325 0.608072546310601 0 0.152286718485616
326 0.199733440693725 0 0.750817667356564
327 0.299946978461784 0 0.849919513806611
328 0.24996823739953 0 0.85010695895399
329 0.644937763896259 0 0.212482670262614
330 0.750506473654091 0 0.847651877128049
331 0.299905875368561 0 0.150814255367445
332 0.201059957123697 0 0.152005322987366
333 0.551967275474499 0 0.0993892385213475
334 0.500180236061374 0 0.200214554997058
335 0.796383625032512 0 0.0973145209289671
336 0.450183935840571 0 0.149903711357737
337 0.400047838556773 0 0.150031232903197
338 0.450350118408337 0 0.0998507302324644
339 0.399988503445308 0 0.849973571317942
340 0.600032271684816 0 0.849892742688122
341 0.550008953390083 0 0.849974572298458
342 0.500001666844789 0 0.799993551370853
343 0.399981139295065 0 0.799953184327669
344 0.449998386051284 0 0.899996096094408
345 0.600062164636749 0 0.799846908156636
346 0.700368899673725 0 0.798437638729528
347 0.100883982493122 0 0.75165358552258
348 0.650053750900638 0 0.899754297088064
349 0.200084244265176 0 0.850491743021376
350 0.800279017634892 0 0.898509067120595
351 0.299775577062827 0 0.201662075475565
352 0.299868708479269 0 0.799804762075687
353 0.719505227518803 0 0.221647339363151
354 0.884226191488133 0 0.726400833756076
355 0.102297321744015 0 0.28256317094738
356 0.151299417289674 0 0.701204344225256
357 0.853911685854161 0 0.494039241421151
358 0.860856904453086 0 0.542801329454626
359 0.813698974843965 0 0.327086544102145
360 0.859773546720208 0 0.347378529814773
361 0.846004001650426 0 0.753696984914382
362 0.157683658403062 0 0.250495590748619
363 0.144118355160463 0 0.457527031160093
364 0.796838657942347 0 0.228755719668494
365 0.800826343750655 0 0.794928438362689
366 0.745658685489165 0 0.150212857265077
367 0.849893123944697 0 0.846045865600399
368 0.651695174866018 0 0.175151893390792
369 0.724517635509306 0 0.18874359644381
370 0.551957927334304 0 0.150550694332438
371 0.500664962240561 0 0.150036205772862
372 0.500001606574573 0 0.849992710243271
373 0.449996377466463 0 0.849989312379303
374 0.650119437995411 0 0.849518097550866
375 0.349966565109341 0 0.849934176446546
376 0.349954558291085 0 0.150354709011602
377 0.250203206036767 0 0.15151797847101
378 0.70028609769068 0 0.848741366832746
379 0.800372414615449 0 0.846772830072002
380 0.199982464260581 0 0.800841182621587
381 0.689719953109538 0 0.180678601680065
382 0.795945452034956 0 0.140864501521615
383 0.158210328237891 0 0.201554017287473
384 0.848400341698973 0 0.793834268562286
385 0.7314101776744 0 0.255021139927436
386 0.150470528363397 0 0.751527512402405
387 0.764352778693641 0 0.241940587036216
388 0.783050511354084 0 0.187076865405455
389 0.655698612792956 0 0.136363325084222
390 0.750520979396514 0 0.210450093112631
391 1 0 0
392 1 0 0.2
393 1 0 0.7
394 1 0 1
395 1 1 0
396 1 1 0.3
397 1 1 0.6
398 1 1 1
399 1 0.3 0.3
400 1 0.7 0.3
401 1 0.7 0.42
402 1 0.7 0.48
403 1 0.7 0.7
404 1 0.3 0.7
405 1 0.3 0.58
406 1 0.3 0.32
407 1 0 0.0500000000000001
408 1 0 0.1
409 1 0 0.15
410 1 0 0.25
411 1 0 0.3
412 1 0 0.35
413 1 0 0.4
414 1 0 0.45
415 1 0 0.5
416 1 0 0.55
417 1 0 0.6
418 1 0 0.65
419 1 0 0.75
420 1 0 0.8
421 1 0 0.85
422 1 0 0.9
423 1 0 0.95
424 1 0.05 0
425 1 0.1 0
426 1 0.15 0
427 1 0.2 0
428 1 0.25 0
429 1 0.3 0
430 1 0.35 0
431 1 0.4 0
432 1 0.45 0
433 1 0.5 0
434 1 0.55 0
435 1 0.6 0
436 1 0.65 0
437 1 0.7 0
438 1 0.75 0
439 1 0.8 0
440 1 0.85 0
441 1 0.9 0
442 1 0.95 0
443 1 1 0.0499999999999999
444 1 1 0.0999999999999998
445 1 1 0.15
446 1 1 0.2
447 1 1 0.25
448 1 1 0.35
449 1 1 0.4
450 1 1 0.45
451 1 1 0.5
452 1 1 0.55
453 1 1 0.65
454 1 1 0.7
455 1 1 0.75
456 1 1 0.8
457 1 1 0.85
458 1 1 0.9
459 1 1 0.95
460 1 0.95 1
461 1 0.9 1
462 1 0.85 1
463 1 0.8 1
464 1 0.75 1
465 1 0.7 1
466 1 0.65 1
467 1 0.6 1
468 1 0.55 1
469 1 0.5 1
470 1 0.45 1
471 1 0.4 1
472 1 0.35 1
473 1 0.3 1
474 1 0.25 1
475 1 0.2 1
476 1 0.15 1
477 1 0.1 1
478 1 0.0499999999999999 1
479 1 0.35 0.3
480 1 0.4 0.3
481 1 0.45 0.3
482 1 0.5 0.3
483 1 0.55 0.3
484 1 0.6 0.3
485 1 0.65 0.3
486 1 0.7 0.36
487 1 0.7 0.535
488 1 0.7 0.59
489 1 0.7 0.645
490 1 0.65 0.7
491 1 0.6 0.7
492 1 0.55 0.7
493 1 0.5 0.7
494 1 0.45 0.7
495 1 0.4 0.7
496 1 0.35 0.7
497 1 0.3 0.64
498 1 0.3 0.528
499 1 0.3 0.476
500 1 0.3 0.424
501 1 0.3 0.372
502 1 0.0499999999999999 0.68
503 1 0.0999999999999998 0.66
504 1 0.15 0.64
505 1 0.2 0.62
506 1 0.25 0.6
507 1 0.75 0.4
508 1 0.8 0.38
509 1 0.85 0.36
510 1 0.9 0.34
511 1 0.95 0.32
512 1 0.0499999999999999 0.22
513 1 0.0999999999999997 0.24
514 1 0.15 0.26
515 1 0.2 0.28
516 1 0.25 0.3
517 1 0.75 0.5
518 1 0.8 0.52
519 1 0.85 0.54
520 1 0.9 0.56
521 1 0.95 0.58
522 1 0.34802586964571 0.252998642233279
523 1 0.349895181657462 0.749865107938338
524 1 0.599996556160064 0.949998372525273
525 1 0.649993903229923 0.0501174551227617
526 1 0.449995036621776 0.749993749081185
527 1 0.499573608529885 0.250310232811296
528 1 0.949772852377318 0.746584961421116
529 1 0.800013516310257 0.949969424410656
530 1 0.749876595378143 0.0503524186205309
531 1 0.0523983377296013 0.789249976818484
532 1 0.049969653822572 0.449909986008972
533 1 0.2504149294488 0.0512290245328741
534 1 0.350154144183182 0.0508598437446512
535 1 0.399999163071576 0.94999966664299
536 1 0.300007547825927 0.949958307620732
537 1 0.549998091733 0.749999305697174
538 1 0.650124580040433 0.250241273433901
539 1 0.450072266681323 0.0502176844830015
540 1 0.650061094179456 0.74981094180327
541 1 0.94744836170739 0.209182649067604
542 1 0.250713657969223 0.427162878037886
543 1 0.100882310018916 0.0511183186167269
544 1 0.150022977053268 0.948626492098073
545 1 0.950008770423325 0.899955928477688
546 1 0.849358113472571 0.0500675132519116
547 1 0.751262246446621 0.695658317903112
548 1 0.241049723421286 0.537363437861158
549 1 0.94893146926868 0.636755640675849
550 1 0.0597541559281298 0.16300358962496
551 1 0.0503430440698889 0.897632681467982
552 1 0.0516373958261598 0.733867513296837
553 1 0.94796161816731 0.26476570346974
554 1 0.956883481387171 0.493904572200129
555 1 0.0445806828982461 0.306753804719475
556 1 0.0508009030659268 0.549689962177194
557 1 0.750081428901061 0.643225670671026
558 1 0.500019987260092 0.0500679346840326
559 1 0.550000384400315 0.0500237056674566
560 1 0.899312331769356 0.0502299160637548
561 1 0.900011572139181 0.949986462353462
562 1 0.100015456888856 0.94852687586129
563 1 0.750006952023193 0.949968229182183
564 1 0.250035229335316 0.949720517957437
565 1 0.0500336025009934 0.949079624761963
566 1 0.499999121747702 0.95000013333423
567 1 0.94997802864373 0.849630635254334
568 1 0.700000352089596 0.949975891634228
569 1 0.448992705526876 0.250980932118991
570 1 0.599994196226118 0.250093571511079
571 1 0.950005363653307 0.949991925890339
572 1 0.948500658460846 0.101531897528873
573 1 0.949517578184551 0.0503290820094007
574 1 0.150880792244747 0.0514532136310929
575 1 0.0482368117648848 0.351674793267332
576 1 0.0507022427041267 0.0507897173006633
577 1 0.95315336638503 0.44918043760333
578 1 0.763285450020033 0.454686741709957
579 1 0.744227178493603 0.546802135876207
580 1 0.751038933582152 0.295959409483919
581 1 0.250545408872743 0.701514441570466
582 1 0.250801000034745 0.651294584060655
583 1 0.750551232839702 0.34694356343173
584 1 0.254993671855033 0.345813817064889
585 1 0.0501556450448925 0.599451778316477
586 1 0.957157351132352 0.404695113014271
587 1 0.0458203048139267 0.643350194952567
588 1 0.956847111907361 0.538112255288246
589 1 0.0450557677741903 0.262296414750629
590 1 0.956887982421102 0.36111925341595
591 1 0.800049519887486 0.899757363457074
592 1 0.449993706507697 0.100668979655246
593 1 0.30001119287678 0.899920668826812
594 1 0.650129982663135 0.200423762166736
595 1 0.11148541194931 0.778309222031467
596 1 0.894813390057827 0.219512747463938
597 1 0.800560564244131 0.692692714688079
598 1 0.499608775180363 0.200473227724147
599 1 0.218259583503833 0.331120183072574
600 1 0.251215997866251 0.242684639790149
601 1 0.808482972365662 0.480727193808204
602 1 0.248622585781523 0.47718503867216
603 1 0.949203210611124 0.692540554607751
604 1 0.0528245679476232 0.102770898863312
605 1 0.398561554275673 0.25194037225859
606 1 0.29945294898129 0.250856851622215
607 1 0.750514373908166 0.24680265362411
608 1 0.299866211843609 0.750000747715066
609 1 0.750461982142602 0.747117534976808
610 1 0.400111102111625 0.0506383615115069
611 1 0.499963899265902 0.100253546130128
612 1 0.300216255253611 0.0510778595596163
613 1 0.599996034976495 0.0500365973436235
614 1 0.850018681730795 0.949961815501848
615 1 0.449999362314433 0.949999894888581
616 1 0.399972371144496 0.749964848874984
617 1 0.350000408130237 0.949989343256558
618 1 0.549873655206002 0.250118119597641
619 1 0.60000834622233 0.749965636149725
620 1 0.64999694464347 0.949988220010667
621 1 0.699972845673387 0.0503144534093273
622 1 0.949883350307525 0.798556341482275
623 1 0.549997703472691 0.950000138133511
624 1 0.900030812793571 0.899853810497442
625 1 0.200072072723615 0.949146719035956
626 1 0.499997909857532 0.749998910078626
627 1 0.051745244746059 0.844309765977661
628 1 0.150794334972351 0.896525882927196
629 1 0.75003107419673 0.899770913972046
630 1 0.100877860004151 0.896034901578166
631 1 0.799564065687046 0.0501451247842365
632 1 0.700253390523875 0.748936167156957
633 1 0.896944469437073 0.101543691246901
634 1 0.700360092876819 0.249677151150747
635 1 0.947207491199735 0.15488177482162
636 1 0.200771249991928 0.0516320119163594
637 1 0.0504810575722687 0.499791257485095
638 1 0.0488161843896341 0.400772546094164
639 1 0.103497866890413 0.103042144121653
640 1 0.100256015368681 0.55136364672033
641 1 0.0995507304437955 0.600969617934814
642 1 0.1032171774548 0.295294541981665
643 1 0.904722594200425 0.447329603499086
644 1 0.909942671796965 0.505530975476351
645 1 0.910340624213489 0.390991735205158
646 1 0.20759593328303 0.706527747940519
647 1 0.798970408322335 0.285549063276619
648 1 0.253257344414935 0.379659000245751
649 1 0.791573263736626 0.579483124091294
650 1 0.743715199126855 0.594822634409143
651 1 0.20708623547607 0.662646186766171
652 1 0.7988904861906 0.332461613247727
653 1 0.809183836343865 0.436825630333523
654 1 0.192407408027991 0.560480399758844
655 1 0.104320389270415 0.716008628364786
656 1 0.890032022261312 0.281895647959869
657 1 0.300309925990234 0.201825659440867
658 1 0.749674354458874 0.100499973221641
659 1 0.399992460914669 0.89999520981277
660 1 0.549994697189294 0.90000013887965
661 1 0.800287147143721 0.744915299812788
662 1 0.100198476343078 0.448660617440471
663 1 0.300611266473451 0.102241255169296
664 1 0.749956332037178 0.198429123352407
665 1 0.398641528355345 0.202813544863379
666 1 0.800079381213797 0.84896286108478
667 1 0.399957415855345 0.101598935608378
668 1 0.549850411818213 0.200182873824574
669 1 0.153669860933725 0.210009655883178
670 1 0.599991812688767 0.100092885885628
671 1 0.349921563943893 0.799933150918097
672 1 0.499995991295982 0.79999866586815
673 1 0.600004638306646 0.799959353584334
674 1 0.200554162622962 0.898252829172613
675 1 0.899993160452613 0.849159059588003
676 1 0.899670750545729 0.743897645729617
677 1 0.898471592546388 0.688534611281981
678 1 0.206363803795365 0.427106232587996
679 1 0.798098724816919 0.640218071640617
680 1 0.103637994662876 0.841812099818232
681 1 0.888747912140576 0.160576501923812
682 1 0.206319366025097 0.381756249637124
683 1 0.0954957555978368 0.353697327266065
684 1 0.750177193296797 0.798264418168875
685 1 0.251038594172053 0.75076618869531
686 1 0.109681210522225 0.150497616661071
687 1 0.449613477403098 0.151202883808495
688 1 0.1697014794006 0.322592851034835
689 1 0.252136150272653 0.103269932859079
690 1 0.449213837435097 0.201347467527143
691 1 0.599989837031872 0.200179244886081
692 1 0.549970664764344 0.100107940747179
693 1 0.349989842699014 0.899978022484829
694 1 0.499997121110458 0.899999865177314
695 1 0.599993548742739 0.89998876258264
696 1 0.700013259809488 0.899851202209067
697 1 0.650052740315513 0.799750350049998
698 1 0.399967307100031 0.799966289004232
699 1 0.850047032667578 0.899709526060299
700 1 0.700199085521233 0.200106634786222
701 1 0.250197312723419 0.899469575678728
702 1 0.846957339692163 0.099836637638396
703 1 0.650009526741983 0.100298881290233
704 1 0.153279612370229 0.10433601797692
705 1 0.100664204231225 0.500849084726905
706 1 0.202864031989097 0.226422255349155
707 1 0.144961823272805 0.600570595599265
708 1 0.161102407331879 0.750975634536023
709 1 0.841764644122902 0.274430258793502
710 1 0.798314598525607 0.23908960716042
711 1 0.854229937347044 0.491938946498259
712 1 0.842636150022011 0.589888838456018
713 1 0.857605441489133 0.397501436301962
714 1 0.161753051944766 0.696964284025072
715 1 0.842358434403318 0.318259651365555
716 1 0.19330328350822 0.512462707876588
717 1 0.250419641678284 0.849514124012289
718 1 0.15355964945403 0.844582742147919
719 1 0.84094203803307 0.143893134616239
720 1 0.210476583749798 0.166745238354477
721 1 0.301176362611527 0.152425248420346
722 1 0.348881829634942 0.203217435722585
723 1 0.250787254046097 0.799896787152297
724 1 0.74958350592964 0.14957367160416
725 1 0.39943423637842 0.152405186908735
726 1 0.800109725008484 0.797268194664073
727 1 0.750077053089556 0.849179747246179
728 1 0.350085671461917 0.102145609782835
729 1 0.499785297620682 0.150490208560346
730 1 0.549901506719182 0.150201093563173
731 1 0.700138210420779 0.799156842882775
732 1 0.349959851472933 0.849960710872909
733 1 0.549994179906584 0.849996196144254
734 1 0.549997136899267 0.79999162213209
735 1 0.449989370192933 0.799989513317812
736 1 0.449996060915995 0.89999771548048
737 1 0.599999373040621 0.849960580287678
738 1 0.59998600942613 0.150195498097547
739 1 0.30011284679844 0.799954323923952
740 1 0.650001892760861 0.899932672062259
741 1 0.798359642496476 0.0992691225689014
742 1 0.850040288005925 0.848835726025665
743 1 0.650055338581335 0.15039568265062
744 1 0.69994057110843 0.100453230328324
745 1 0.203466622400907 0.105077195906769
746 1 0.204964747752417 0.750854205314724
747 1 0.899863705625877 0.797231612104682
748 1 0.0945789763702567 0.401572092410637
749 1 0.849894339231886 0.74361389923518
750 1 0.797392831168041 0.192950659923432
751 1 0.1556642471564 0.157797340233905
752 1 0.844637718502003 0.229881624668197
753 1 0.891353115202363 0.623711503829942
754 1 0.848611475845793 0.690076217094553
755 1 0.147875377595646 0.379907923639563
756 1 0.147641176300893 0.555812557283553
757 1 0.257558283523027 0.196074818635426
758 1 0.15744794872934 0.447451522230221
759 1 0.108970095970936 0.196748615159657
760 1 0.855892150989752 0.442165841932784
761 1 0.842161976907021 0.640756449706195
762 1 0.349731203829733 0.152816909005275
763 1 0.258211707834585 0.149811611265159
764 1 0.399978132498555 0.849979604694283
765 1 0.499995397346959 0.849997421608246
766 1 0.650023218805048 0.849820090917279
767 1 0.700058916745867 0.849518361757829
768 1 0.300111508934059 0.849860874691829
769 1 0.699986768846401 0.150272509696626
770 1 0.849992869239461 0.796815380790815
771 1 0.201926946034675 0.848070447136821
772 1 0.160322517424584 0.798386363273233
773 1 0.203944232915635 0.799199701821379
774 1 0.797050196476101 0.146626826442919
775 1 0.149533705125555 0.505496459575108
776 1 0.840019963133361 0.18710768814226
777 1 0.449990419472095 0.849991825961648
778 1 0.204352600523332 0.472789135052382
779 1 1 0
780 1 1 0.3
781 1 1 0.6
782 1 1 1
783 0 1 0
784 0 1 0.2
785 0 1 0.7
786 0 1 1
787 0.7 1 0.3
788 0.3 1 0.3
789 0.3 1 0.32
790 0.3 1 0.58
791 0.3 1 0.7
792 0.7 1 0.7
793 0.7 1 0.48
794 0.7 1 0.42
795 1 1 0.0499999999999999
796 1 1 0.0999999999999998
797 1 1 0.15
798 1 1 0.2
799 1 1 0.25
800 1 1 0.35
801 1 1 0.4
802 1 1 0.45
803 1 1 0.5
804 1 1 0.55
805 1 1 0.65
806 1 1 0.7
807 1 1 0.75
808 1 1 0.8
809 1 1 0.85
810 1 1 0.9
811 1 1 0.95
812 0.95 1 0
813 0.9 1 0
814 0.85 1 0
815 0.8 1 0
816 0.75 1 0
817 0.7 1 0
818 0.65 1 0
819 0.6 1 0
820 0.55 1 0
821 0.5 1 0
822 0.45 1 0
823 0.4 1 0
824 0.35 1 0
825 0.3 1 0
826 0.25 1 0
827 0.2 1 0
828 0.15 1 0
829 0.1 1 0
830 0.0499999999999999 1 0
831 0 1 0.0500000000000001
832 0 1 0.1
833 0 1 0.15
834 0 1 0.25
835 0 1 0.3
836 0 1 0.35
837 0 1 0.4
838 0 1 0.45
839 0 1 0.5
840 0 1 0.55
841 0 1 0.6
842 0 1 0.65
843 0 1 0.75
844 0 1 0.8
845 0 1 0.85
846 0 1 0.9
847 0 1 0.95
848 0.05 1 1
849 0.1 1 1
850 0.15 1 1
851 0.2 1 1
852 0.25 1 1
853 0.3 1 1
854 0.35 1 1
855 0.4 1 1
856 0.45 1 1
857 0.5 1 1
858 0.55 1 1
859 0.6 1 1
860 0.65 1 1
861 0.7 1 1
862 0.75 1 1
863 0.8 1 1
864 0.85 1 1
865 0.9 1 1
866 0.95 1 1
867 0.65 1 0.3
868 0.6 1 0.3
869 0.55 1 0.3
870 0.5 1 0.3
871 0.45 1 0.3
872 0.4 1 0.3
873 0.35 1 0.3
874 0.3 1 0.372
875 0.3 1 0.423999999999999
876 0.3 1 0.475999999999999
877 0.3 1 0.528
878 0.3 1 0.64
879 0.35 1 0.7
880 0.4 1 0.7
881 0.45 1 0.7
882 0.5 1 0.7
883 0.55 1 0.7
884 0.6 1 0.7
885 0.65 1 0.7
886 0.7 1 0.645
887 0.7 1 0.59
888 0.7 1 0.535
889 0.7 1 0.36
890 0.95 1 0.32
891 0.9 1 0.34
892 0.85 1 0.36
893 0.8 1 0.38
894 0.75 1 0.4
895 0.25 1 0.6
896 0.2 1 0.62
897 0.15 1 0.64
898 0.1 1 0.66
899 0.05 1 0.68
900 0.95 1 0.58
901 0.9 1 0.56
902 0.85 1 0.54
903 0.8 1 0.52
904 0.75 1 0.5
905 0.25 1 0.3
906 0.2 1 0.28
907 0.15 1 0.26
908 0.1 1 0.24
909 0.05 1 0.22
910 0.349921856619765 1 0.253512839212828
911 0.947863088540806 1 0.687266670727528
912 0.650000689651197 1 0.949999324941079
913 0.600007556655524 1 0.0500116017211603
914 0.499998328346289 1 0.749996293665326
915 0.449601847026835 1 0.250841622650651
916 0.750004938645976 1 0.950004812953498
917 0.799912899581644 1 0.0503216293750199
918 0.200060783656075 1 0.948448502778139
919 0.300001147944355 1 0.949608598230025
920 0.0501762934139385 1 0.448420749431135
921 0.399537012333654 1 0.0501220524745961
922 0.299746969621768 1 0.0497597966963777
923 0.200858642247379 1 0.0496115463762686
924 0.700323983028457 1 0.74975951974415
925 0.549975608509116 1 0.250093370839315
926 0.399996872343205 1 0.949963178450459
927 0.499999463699708 1 0.949999030686791
928 0.948488051977498 1 0.797028785912579
929 0.650146682425859 1 0.250521531035863
930 0.399952673096759 1 0.749902787095432
931 0.248639980077252 1 0.429466061210528
932 0.74899435838935 1 0.644955697429702
933 0.949565301170568 1 0.101236070254605
934 0.0507654415555602 1 0.846340308848885
935 0.849995824951397 1 0.949977668378563
936 0.239446506775569 1 0.541868737468032
937 0.0531606148057188 1 0.737176860723001
938 0.948687149657472 1 0.265110598727437
939 0.0607665896827187 1 0.160924515049875
940 0.9490787668617 1 0.633088694978402
941 0.954161953659996 1 0.450469033044776
942 0.0418201034921563 1 0.593224748668883
943 0.0481720509966851 1 0.349671856287644
944 0.499942890279344 1 0.0500266291064757
945 0.0534728167728422 1 0.10106089115019
946 0.899986893067518 1 0.949954990708815
947 0.0500566229705031 1 0.949162007654157
948 0.89982185565224 1 0.0504760218091822
949 0.94987130295742 1 0.0503600278965548
950 0.600018974155986 1 0.749985760528978
951 0.700013065466278 1 0.0501197278201856
952 0.549999452022673 1 0.949999117347025
953 0.948542341132611 1 0.154173097798085
954 0.349804494508939 1 0.749481178226757
955 0.949551394216689 1 0.849161245705251
956 0.949903690552684 1 0.899790948276547
957 0.100098714423197 1 0.948383035887649
958 0.949980579103018 1 0.949950416919835
959 0.0472677419055919 1 0.547784348671585
960 0.151231562203801 1 0.0494354082950344
961 0.101419300032556 1 0.0496229170954137
962 0.0510662990530253 1 0.0499860891996881
963 0.771401642707429 1 0.447462829626772
964 0.743430055137455 1 0.546560376360233
965 0.74563176804526 1 0.357184905271517
966 0.252548988382428 1 0.6409240230075
967 0.245078417735218 1 0.337617185262436
968 0.95819217840878 1 0.494788955002645
969 0.0423737005923384 1 0.305052028889678
970 0.957351739281572 1 0.362002359537816
971 0.0425645001027384 1 0.261336745227728
972 0.95754787386839 1 0.538510698162712
973 0.0422791845080066 1 0.637685740363936
974 0.700197753162932 1 0.252108685691515
975 0.299222249452086 1 0.747976187337712
976 0.153935913372061 1 0.0983910605489043
977 0.499998538019555 1 0.899996681637458
978 0.399942288255532 1 0.799806248436368
979 0.896276432982534 1 0.672318466260869
980 0.899328376174213 1 0.849024816757193
981 0.198178313767019 1 0.338523568527222
982 0.255074838528856 1 0.246082985160664
983 0.81531982552414 1 0.417875525251768
984 0.246475506879746 1 0.481357615539404
985 0.947760699270388 1 0.209453720376574
986 0.0525013263433368 1 0.792921568152419
987 0.399444218445506 1 0.251954779410461
988 0.302245673147431 1 0.252318965595639
989 0.240181289214548 1 0.691090021340614
990 0.749396554583758 1 0.307970176842067
991 0.349396086209562 1 0.049964763716129
992 0.449756305820749 1 0.0501176002132543
993 0.549988718026837 1 0.0500097861604857
994 0.599999957690855 1 0.94999875852166
995 0.0502514245296725 1 0.898005941326363
996 0.600040609006984 1 0.25014966457308
997 0.449987074965344 1 0.749969891833608
998 0.550003730466849 1 0.749995662785261
999 0.849821390886171 1 0.050487419901377
1000 0.650015164068428 1 0.0500599420533434
1001 0.800003584386931 1 0.949996913300514
1002 0.700003935471427 1 0.950002960587743
1003 0.749976296025923 1 0.0502344788658603
1004 0.499855172371659 1 0.25029309351003
1005 0.150099361734383 1 0.948100394401573
1006 0.250022948728342 1 0.949063951692176
1007 0.349994764556401 1 0.949842907010539
1008 0.44999854941811 1 0.949990373915458
1009 0.947378468358039 1 0.742469975233134
1010 0.650084275169845 1 0.74994405307778
1011 0.84992780134595 1 0.899870009403569
1012 0.8998371513089 1 0.89971231608142
1013 0.250350274767983 1 0.0496019683502159
1014 0.750328192317081 1 0.749880056127718
1015 0.899121350684696 1 0.101970012656586
1016 0.750136625894577 1 0.698475630362022
1017 0.049801119462625 1 0.398787119603573
1018 0.0493155731164347 1 0.497850578625195
1019 0.10483698249584 1 0.099509265906287
1020 0.0968979108845047 1 0.346539433004965
1021 0.0894013140666211 1 0.291216054367677
1022 0.906044955274149 1 0.450254719991279
1023 0.911321696961573 1 0.507353160053791
1024 0.911155882960205 1 0.393023447783956
1025 0.0957916121846982 1 0.544870742605137
1026 0.0890355472012288 1 0.603941359567346
1027 0.248587056316561 1 0.380486440062858
1028 0.791002467433919 1 0.582193152232963
1029 0.742844315088018 1 0.595665349621856
1030 0.815517657816767 1 0.480574616784996
1031 0.958810753483951 1 0.405764017610355
1032 0.201108459089834 1 0.667964188177393
1033 0.798724934144533 1 0.309551751113203
1034 0.898576931788418 1 0.615776187484479
1035 0.111427226189275 1 0.193143811618444
1036 0.251578673624128 1 0.747896870383447
1037 0.306299402266639 1 0.210819899159036
1038 0.347563054049104 1 0.100192768558959
1039 0.20013774147381 1 0.896671259269163
1040 0.44940889897825 1 0.100477808908497
1041 0.549970545168994 1 0.100056062961783
1042 0.650012967780582 1 0.8999983395035
1043 0.799554748150907 1 0.101086566856549
1044 0.7977650240283 1 0.254383433713482
1045 0.700015886997021 1 0.100421979582831
1046 0.104183161831456 1 0.790173667178673
1047 0.195730874814838 1 0.484734463340956
1048 0.889183102487046 1 0.734601913820079
1049 0.398459326273744 1 0.202918055984634
1050 0.549954494114067 1 0.200157823647691
1051 0.700168832963385 1 0.799963284353361
1052 0.550004609190414 1 0.799993986147349
1053 0.550000176304774 1 0.899997305830962
1054 0.449982388597252 1 0.799949348414699
1055 0.449994955383703 1 0.899976752164579
1056 0.299973070737194 1 0.898987445001326
1057 0.399985775257406 1 0.899879650409321
1058 0.650122939336613 1 0.200634752053998
1059 0.101320473335128 1 0.844007004571889
1060 0.849436615375535 1 0.849521867440537
1061 0.798314292288183 1 0.751048570657659
1062 0.0996578909023995 1 0.444976656219608
1063 0.164250437953398 1 0.204652364236275
1064 0.889459074390645 1 0.21935166834701
1065 0.797947704077086 1 0.700650843848902
1066 0.796778250989262 1 0.647037389812392
1067 0.89687796734382 1 0.796356271164726
1068 0.896712013970908 1 0.155822226209313
1069 0.142940696591478 1 0.297679834831133
1070 0.749540298639858 1 0.254217878448454
1071 0.298555292202591 1 0.0983414688744934
1072 0.449302315806158 1 0.201190722609398
1073 0.349840782250587 1 0.799236092981933
1074 0.700026755568713 1 0.900012685074477
1075 0.600015389484039 1 0.100075400207892
1076 0.750029458981848 1 0.900027782552982
1077 0.799969543145616 1 0.899973387719149
1078 0.650084179421162 1 0.799958196287988
1079 0.10041880852354 1 0.896489095114904
1080 0.849069941421938 1 0.101774089986757
1081 0.202907962171087 1 0.0983791395808096
1082 0.0982504511288268 1 0.494117615342265
1083 0.0992031974759285 1 0.395690508880594
1084 0.144842992753905 1 0.589107413827714
1085 0.198533749752944 1 0.386595314524521
1086 0.853130259438548 1 0.449535428049945
1087 0.86003069775935 1 0.49854988925986
1088 0.847337350397424 1 0.300032490497448
1089 0.168045141503686 1 0.688035123697531
1090 0.211254948245171 1 0.2362126195473
1091 0.847428166825357 1 0.59881212354887
1092 0.158410631697333 1 0.147638195921468
1093 0.11259952878127 1 0.145802431803917
1094 0.859942110803376 1 0.401096267499879
1095 0.196020753304156 1 0.736738184791184
1096 0.200115571442826 1 0.793434045195358
1097 0.79749111354746 1 0.202676664868657
1098 0.24979475176427 1 0.795757714713164
1099 0.749428713145336 1 0.202464443404455
1100 0.75002896127011 1 0.850077662631096
1101 0.341620015501779 1 0.154803946477569
1102 0.206997261942421 1 0.146817172746686
1103 0.798438122766959 1 0.151954984512253
1104 0.349259487970665 1 0.206557632450167
1105 0.144365669256034 1 0.538599308816598
1106 0.397677235414659 1 0.15224454337331
1107 0.398287723334527 1 0.100943896523591
1108 0.499740922781469 1 0.20045166484305
1109 0.549944203066027 1 0.150145580675479
1110 0.499796234702167 1 0.10020808318658
1111 0.650034159469425 1 0.100216362387995
1112 0.600041344727226 1 0.200235867351965
1113 0.550002933297937 1 0.84999494422649
1114 0.600005761067864 1 0.899996017287667
1115 0.499996563796624 1 0.799987218912973
1116 0.499997247148714 1 0.849988846223098
1117 0.449986427177786 1 0.849947189490401
1118 0.349972890529573 1 0.899565311824096
1119 0.399960704093476 1 0.849769582607082
1120 0.600027589110188 1 0.79998247046225
1121 0.749809312380206 1 0.100751539909706
1122 0.650046404183941 1 0.849989044903059
1123 0.799737173575622 1 0.849969954155378
1124 0.25001655422763 1 0.897897770279064
1125 0.700003016772172 1 0.201536907993863
1126 0.299878672000123 1 0.798069389094244
1127 0.150336335477244 1 0.896046085045328
1128 0.251073414538466 1 0.097675507083076
1129 0.749932475777824 1 0.800123404785067
1130 0.846720890480026 1 0.153844135842678
1131 0.84723533416508 1 0.798801554655866
1132 0.198162669040087 1 0.435209507141955
1133 0.841225223829695 1 0.752756408593968
1134 0.262108370373964 1 0.194125510365461
1135 0.150985497262335 1 0.843826513720095
1136 0.147098854487723 1 0.342026858196911
1137 0.117115056032571 1 0.726091670577725
1138 0.896976310215842 1 0.282411542231461
1139 0.148621138207157 1 0.44025597634037
1140 0.190388857502021 1 0.576260115411682
1141 0.189159437190046 1 0.530877969310908
1142 0.155601594881791 1 0.752884952503983
1143 0.840991213570746 1 0.249750126244
1144 0.840663386284875 1 0.705493229364168
1145 0.845348827464501 1 0.656624615868782
1146 0.213934536073978 1 0.19113211346415
1147 0.295369324327616 1 0.140235818665354
1148 0.449106422515578 1 0.151034049059872
1149 0.200333079035663 1 0.845052321113137
1150 0.249989605485133 1 0.846775779914217
1151 0.749486808730633 1 0.15146889259292
1152 0.499683326704618 1 0.150426772799418
1153 0.600024983329344 1 0.150194691249653
1154 0.650057427811297 1 0.150469175164773
1155 0.299923940568602 1 0.848300630296252
1156 0.34993209633001 1 0.849261627964788
1157 0.600019849143666 1 0.849989703564889
1158 0.700056681392322 1 0.850015562330782
1159 0.798665447772716 1 0.800233365140975
1160 0.253813316011207 1 0.143743326249136
1161 0.840611300247209 1 0.201280280370878
1162 0.14857327378151 1 0.391306730121897
1163 0.152845155232417 1 0.792363281210689
1164 0.146622015544758 1 0.48921127550046
1165 0.301203771775639 1 0.175327477329324
1166 0.699923144423364 1 0.150957934682469
1167 0 0 0
1168 0 0 0.3
1169 0 0 0.6
1170 0 0 1
1171 0 1 0
1172 0 1 0.2
1173 0 1 0.7
1174 0 1 1
1175 0 0.3 0.7
1176 0 0.7 0.7
1177 0 0.7 0.58
1178 0 0.7 0.32
1179 0 0.7 0.3
1180 0 0.3 0.3
1181 0 0.3 0.42
1182 0 0.3 0.48
1183 0 0 0.25
1184 0 0 0.2
1185 0 0 0.15
1186 0 0 0.1
1187 0 0 0.0500000000000001
1188 0 0 0.55
1189 0 0 0.5
1190 0 0 0.45
1191 0 0 0.4
1192 0 0 0.35
1193 0 0 0.95
1194 0 0 0.9
1195 0 0 0.85
1196 0 0 0.8
1197 0 0 0.75
1198 0 0 0.7
1199 0 0 0.65
1200 0 1 0.0500000000000001
1201 0 1 0.1
1202 0 1 0.15
1203 0 1 0.25
1204 0 1 0.3
1205 0 1 0.35
1206 0 1 0.4
1207 0 1 0.45
1208 0 1 0.5
1209 0 1 0.55
1210 0 1 0.6
1211 0 1 0.65
1212 0 1 0.75
1213 0 1 0.8
1214 0 1 0.85
1215 0 1 0.9
1216 0 1 0.95
1217 0 0.95 0
1218 0 0.9 0
1219 0 0.85 0
1220 0 0.8 0
1221 0 0.75 0
1222 0 0.7 0
1223 0 0.65 0
1224 0 0.6 0
1225 0 0.55 0
1226 0 0.5 0
1227 0 0.45 0
1228 0 0.4 0
1229 0 0.35 0
1230 0 0.3 0
1231 0 0.25 0
1232 0 0.2 0
1233 0 0.15 0
1234 0 0.1 0
1235 0 0.0499999999999999 0
1236 0 0.05 1
1237 0 0.1 1
1238 0 0.15 1
1239 0 0.2 1
1240 0 0.25 1
1241 0 0.3 1
1242 0 0.35 1
1243 0 0.4 1
1244 0 0.45 1
1245 0 0.5 1
1246 0 0.55 1
1247 0 0.6 1
1248 0 0.65 1
1249 0 0.7 1
1250 0 0.75 1
1251 0 0.8 1
1252 0 0.85 1
1253 0 0.9 1
1254 0 0.95 1
1255 0 0.35 0.7
1256 0 0.4 0.7
1257 0 0.45 0.7
1258 0 0.5 0.7
1259 0 0.55 0.7
1260 0 0.6 0.7
1261 0 0.65 0.7
1262 0 0.7 0.64
1263 0 0.7 0.528
1264 0 0.7 0.476
1265 0 0.7 0.424
1266 0 0.7 0.372
1267 0 0.65 0.3
1268 0 0.6 0.3
1269 0 0.55 0.3
1270 0 0.5 0.3
1271 0 0.45 0.3
1272 0 0.4 0.3
1273 0 0.35 0.3
1274 0 0.3 0.36
1275 0 0.3 0.535
1276 0 0.3 0.59
1277 0 0.3 0.645
1278 0 0.95 0.68
1279 0 0.9 0.66
1280 0 0.85 0.64
1281 0 0.8 0.62
1282 0 0.75 0.6
1283 0 0.25 0.4
1284 0 0.2 0.38
1285 0 0.15 0.36
1286 0 0.1 0.34
1287 0 0.05 0.32
1288 0 0.95 0.22
1289 0 0.9 0.24
1290 0 0.85 0.26
1291 0 0.8 0.28
1292 0 0.75 0.3
1293 0 0.25 0.5
1294 0 0.2 0.52
1295 0 0.15 0.54
1296 0 0.1 0.56
1297 0 0.05 0.58
1298 0 0.698455776954167 0.0480557373882663
1299 0 0.685248828531032 0.257055614480277
1300 0 0.350208792456511 0.250241828221436
1301 0 0.650007056361961 0.94982536246267
1302 0 0.600768067639345 0.0491331203333784
1303 0 0.500000683540123 0.74999770736615
1304 0 0.0524888172899206 0.210632911754575
1305 0 0.451220025594171 0.250173816555502
1306 0 0.948435695120818 0.790049063372369
1307 0 0.749930863843915 0.949539991035026
1308 0 0.0502252193273514 0.849462050188472
1309 0 0.0506869247460139 0.746741744484987
1310 0 0.20000486567971 0.949949112635724
1311 0 0.299994456136994 0.949988307782286
1312 0 0.950444738369152 0.450161350706637
1313 0 0.848452316279199 0.0501204573682359
1314 0 0.40013417186903 0.0500738026518328
1315 0 0.300037651831679 0.0503630160207812
1316 0 0.700800327162792 0.749819360111989
1317 0 0.550708190524472 0.251098204131981
1318 0 0.39999901389766 0.949999172333455
1319 0 0.499999925468431 0.949999204626523
1320 0 0.399977725479762 0.749998299540557
1321 0 0.752954653351453 0.473059040221876
1322 0 0.150363269568545 0.051409234566745
1323 0 0.849797017182382 0.949284728495206
1324 0 0.249616646260454 0.650851956125764
1325 0 0.051553274217558 0.637349765221733
1326 0 0.940080085527231 0.162086655138464
1327 0 0.9495019931588 0.897375644227362
1328 0 0.0505324260632593 0.102041728678321
1329 0 0.94915310367178 0.0508089363873973
1330 0 0.759881482105124 0.535309964867093
1331 0 0.948294714672478 0.734951526064267
1332 0 0.0516703607045057 0.266097011264706
1333 0 0.0466744978345629 0.448969324029925
1334 0 0.956947854772335 0.305591434982554
1335 0 0.950094348181449 0.549447538801907
1336 0 0.598884698816163 0.253062546585212
1337 0 0.749482168621398 0.421275908242753
1338 0 0.0500115361313537 0.949968503682094
1339 0 0.899820146201017 0.948913497545752
1340 0 0.100271928555903 0.0512542569919991
1341 0 0.949878985177625 0.949136125812073
1342 0 0.600051054785061 0.749894517952819
1343 0 0.500773220242793 0.0502550385172496
1344 0 0.550000185504639 0.949992931793658
1345 0 0.100022005980664 0.949932440904279
1346 0 0.250148653017966 0.0507783803243418
1347 0 0.349859632474268 0.75001718602478
1348 0 0.0501513257302195 0.0507388509095971
1349 0 0.797988582034409 0.0491555611702023
1350 0 0.951737657165885 0.351021879757363
1351 0 0.236561977237422 0.45300898050026
1352 0 0.251002043034654 0.550899350820397
1353 0 0.751253289740626 0.703933577677635
1354 0 0.250615482205199 0.298619584167498
1355 0 0.250817516545909 0.348732691762015
1356 0 0.750586530700563 0.652985107192589
1357 0 0.747011124563949 0.374610823164775
1358 0 0.950492310330502 0.599295397581747
1359 0 0.0425098627952011 0.361128517325816
1360 0 0.0454145651545259 0.543077694321076
1361 0 0.954438671418539 0.643294420229617
1362 0 0.957349440527698 0.261343458003023
1363 0 0.299523269129902 0.750162734432043
1364 0 0.751141521733306 0.753031643553485
1365 0 0.551889383737163 0.201705846489221
1366 0 0.844565940576475 0.0996864287758173
1367 0 0.300108534425839 0.100808110642303
1368 0 0.500000416404674 0.899996375392536
1369 0 0.39996777026891 0.800000733783833
1370 0 0.896590518310443 0.778965361313338
1371 0 0.803578041082799 0.463671219074893
1372 0 0.111695229690011 0.221603073907453
1373 0 0.788434499936612 0.373780321065156
1374 0 0.190717825651717 0.475691207226354
1375 0 0.946868239026357 0.102358902310853
1376 0 0.0513492126056986 0.693228391193961
1377 0 0.645094676876204 0.255916648345429
1378 0 0.0970287048894134 0.494577904219955
1379 0 0.300026237206586 0.250307540653978
1380 0 0.747828092071258 0.0483402069172402
1381 0 0.649621065550307 0.0481926389559184
1382 0 0.249149722188594 0.70046331964179
1383 0 0.0500747571022603 0.899816941706157
1384 0 0.400685036817783 0.250107993639934
1385 0 0.0504772195752776 0.798482886162494
1386 0 0.450393959141397 0.0501518508965046
1387 0 0.600003452375785 0.949945693677358
1388 0 0.350054116204481 0.0501575568782901
1389 0 0.449994763542968 0.749999215868997
1390 0 0.0519096382472107 0.155464651036856
1391 0 0.7998222991033 0.949516296855807
1392 0 0.550011615214701 0.749974668456476
1393 0 0.551051510024532 0.0499367860314562
1394 0 0.2003105907078 0.0512535081759543
1395 0 0.699993271041253 0.949600369811637
1396 0 0.948672241216552 0.843936907587157
1397 0 0.501266771516295 0.250473212024316
1398 0 0.150020944892921 0.949918777221715
1399 0 0.249995799705623 0.949969066461262
1400 0 0.349996382179501 0.949995577675582
1401 0 0.449999753864633 0.94999949049569
1402 0 0.650221594230967 0.749737293449816
1403 0 0.848618922215394 0.898859117266222
1404 0 0.151255984951609 0.103648288516226
1405 0 0.898465378750325 0.896764908843001
1406 0 0.10121415753732 0.10372436399744
1407 0 0.898453026544948 0.0506978441398068
1408 0 0.950316213303337 0.499751138777917
1409 0 0.950714019771668 0.400981561816776
1410 0 0.04787551331902 0.498369294664784
1411 0 0.901047436104083 0.551028855623566
1412 0 0.901133489494478 0.600748274661361
1413 0 0.913394307829889 0.290427581820689
1414 0 0.084079390409467 0.390510268385051
1415 0 0.207705980732169 0.293576786887611
1416 0 0.799435986288125 0.713923886554877
1417 0 0.207334263821148 0.563648679636336
1418 0 0.251345313657832 0.600574236151853
1419 0 0.727679377631705 0.267947382947537
1420 0 0.207121654365769 0.337385519399163
1421 0 0.798999634545326 0.667331025955637
1422 0 0.189709799739986 0.427802697457277
1423 0 0.0406114138708225 0.404428721562698
1424 0 0.750695527024406 0.334870982616279
1425 0 0.80862767411218 0.559489326963132
1426 0 0.89054561703822 0.717515612500001
1427 0 0.104391771239642 0.283958639090077
1428 0 0.727359660206399 0.222520146631637
1429 0 0.249477536315499 0.750068523162803
1430 0 0.743984761104879 0.0953224468874274
1431 0 0.750780274167881 0.801274792296065
1432 0 0.200037776037291 0.899788285100433
1433 0 0.600017135072283 0.899888036368692
1434 0 0.400973028170687 0.200173899310084
1435 0 0.100751847515946 0.79760961308771
1436 0 0.200317786869104 0.699975693146728
1437 0 0.700057405130105 0.899218852508152
1438 0 0.60210406107415 0.0980280081400188
1439 0 0.644688333264244 0.212498617336756
1440 0 0.552226413299476 0.100234641953708
1441 0 0.502034529087402 0.200781780713885
1442 0 0.853180053554173 0.20224493826927
1443 0 0.6502438908255 0.799549685003597
1444 0 0.350163294998951 0.100299794837674
1445 0 0.550015233992183 0.799962576729831
1446 0 0.449992673877391 0.799998752322134
1447 0 0.449998828531169 0.899998828109757
1448 0 0.299972149207168 0.899967975922445
1449 0 0.399993396883296 0.89999826079957
1450 0 0.200892063748377 0.102585789943399
1451 0 0.799281619459183 0.899825607020245
1452 0 0.101077306914271 0.745422855277478
1453 0 0.901743398375039 0.451162616297176
1454 0 0.898301330099778 0.351732565280876
1455 0 0.102705444694834 0.691486079411104
1456 0 0.891170176374093 0.837423793736856
1457 0 0.103949032394354 0.15805717391849
1458 0 0.0890696956804715 0.44546676803355
1459 0 0.79330547085751 0.0973693992309287
1460 0 0.696299696548496 0.0939225644631116
1461 0 0.251238063598784 0.249657078187939
1462 0 0.100355619531889 0.849009763268407
1463 0 0.400428650130718 0.100170942949481
1464 0 0.501499278980403 0.100453127648779
1465 0 0.550005008865924 0.899970827436205
1466 0 0.349878992166549 0.800014985806588
1467 0 0.100125687501152 0.89965323710998
1468 0 0.250389002902478 0.10156623725981
1469 0 0.350351671386773 0.200309896670837
1470 0 0.797404421448999 0.413962861173823
1471 0 0.895143317533793 0.101407714165622
1472 0 0.901449570158502 0.501438863350262
1473 0 0.600065008714833 0.20558456564242
1474 0 0.854615265941295 0.311418351071729
1475 0 0.855611511567657 0.600290414233965
1476 0 0.161343113737348 0.249101897203564
1477 0 0.842499251431415 0.7247062597729
1478 0 0.79964691535046 0.759939734575896
1479 0 0.809647123949415 0.510192031267693
1480 0 0.145050394332108 0.484678678606152
1481 0 0.165142689548805 0.59359300947498
1482 0 0.202976559526552 0.651531968418803
1483 0 0.763242011027105 0.255616604653766
1484 0 0.209218069066212 0.607172020088066
1485 0 0.136747280612984 0.42188095567554
1486 0 0.842593638195114 0.681410765506165
1487 0 0.161846957896521 0.303062544091329
1488 0 0.789022726407611 0.334065045768106
1489 0 0.25068756789679 0.151643596107681
1490 0 0.737891038118784 0.139713768567177
1491 0 0.249808146036628 0.799791679364997
1492 0 0.150532828829061 0.798062757932438
1493 0 0.153975408311189 0.155695403019812
1494 0 0.799268111486663 0.805777603630317
1495 0 0.767036561355196 0.226400344651623
1496 0 0.650753362399341 0.174385878104396
1497 0 0.68689142959721 0.218899680973992
1498 0 0.607870728040551 0.152442630106653
1499 0 0.251070411510522 0.200866083115014
1500 0 0.837868577296792 0.153798010829127
1501 0 0.824069567862238 0.35296794105767
1502 0 0.451549444245278 0.20034698369033
1503 0 0.55286890234712 0.151282065461155
1504 0 0.200130936289893 0.748875874153147
1505 0 0.300354860117631 0.200571594621867
1506 0 0.299778821601428 0.799995397157964
1507 0 0.60004938294088 0.849834618017847
1508 0 0.550014780522994 0.849950031884666
1509 0 0.500002802538866 0.849987388499481
1510 0 0.500002907400362 0.799987537250367
1511 0 0.449995241456339 0.849996701460714
1512 0 0.399977225747974 0.849999444879675
1513 0 0.450914163140072 0.100279037705192
1514 0 0.349979823217902 0.899990836895826
1515 0 0.600081364852113 0.799822217902938
1516 0 0.700518040828663 0.799766410910728
1517 0 0.249986349421505 0.899896474867042
1518 0 0.150112232999782 0.899642833890022
1519 0 0.650052208156616 0.899630675372089
1520 0 0.749890635068593 0.899339723164696
1521 0 0.400753409670262 0.150224362120999
1522 0 0.350355514825175 0.150387096651043
1523 0 0.205220563332755 0.249419206356772
1524 0 0.649907839554081 0.0948104228304846
1525 0 0.842993073346144 0.854463588503672
1526 0 0.90512529179636 0.404909304167925
1527 0 0.846362646333231 0.768628045724858
1528 0 0.150874885390955 0.746936982560384
1529 0 0.110602037700009 0.626516012015063
1530 0 0.852796462521179 0.454965131854318
1531 0 0.160275408324074 0.648791608601694
1532 0 0.891709392649876 0.194157534706612
1533 0 0.853787225701792 0.555300196240376
1534 0 0.889016991528295 0.147831806738454
1535 0 0.689974162792273 0.178284405849637
1536 0 0.784699824048159 0.143818064633215
1537 0 0.750055146078921 0.850187017640161
1538 0 0.200094855885023 0.849459467565759
1539 0 0.501948943845136 0.150703852842441
1540 0 0.249951181942444 0.849783105081403
1541 0 0.45131743257582 0.15037798602679
1542 0 0.349939368819432 0.849993978596011
1543 0 0.650147947611273 0.849560566876376
1544 0 0.300343879474759 0.150834086847496
1545 0 0.202316176271285 0.152686081882314
1546 0 0.200132704147902 0.799049449603433
1547 0 0.150282739959579 0.849050144167888
1548 0 0.160677334137218 0.201819967582195
1549 0 0.731992405069378 0.181746192349606
1550 0 0.693860808330435 0.136875030565973
1551 0 0.798441916033116 0.852375083645213
1552 0 0.204289721066913 0.201322847282565
1553 0 0.854006101977846 0.505557488011249
1554 0 0.153141599932706 0.695649365423415
1555 0 0.653502653097299 0.135121178745793
1556 0 0.84227005116641 0.811164415923501
1557 0 0.850464965765991 0.396937284627918
1558 0 0.299911960298169 0.849940892693709
1559 0 0.70022400064192 0.84959489827904
1560 0 0.774627909127658 0.186871552152099
1561 0 0.812781730094832 0.197970651374698
1562 0 0.804540042144332 0.233741929478361
$EndNodes
$Elements
1385
1 2 2 1 1 325 389 368 
2 2 2 1 1 210 311 302 
3 2 2 1 1 128 387 364 
4 2 2 1 1 186 252 206 
5 2 2 1 1 266 383 362 
6 2 2 1 1 164 251 204 
7 2 2 1 1 215 314 257 
8 2 2 1 1 310 360 359 
9 2 2 1 1 128 359 127 
10 2 2 1 1 187 250 249 
11 2 2 1 1 364 388 267 
12 2 2 1 1 8 186 116 
13 2 2 1 1 281 358 305 
14 2 2 1 1 193 248 180 
15 2 2 1 1 191 247 196 
16 2 2 1 1 192 244 194 
17 2 2 1 1 195 246 165 
18 2 2 1 1 124 313 125 
19 2 2 1 1 115 188 116 
20 2 2 1 1 118 189 117 
21 2 2 1 1 382 388 366 
22 2 2 1 1 369 390 353 
23 2 2 1 1 2 127 3 
24 3 2 1 1 61 139 209 60
25 3 2 1 1 102 174 232 101
26 3 2 1 1 17 1 198 175
27 3 2 1 1 140 98 99 230
28 3 2 1 1 47 236 177 46
29 3 2 1 1 98 140 229 97
30 3 2 1 1 149 236 47 48
31 3 2 1 1 46 177 151 45
32 3 2 1 1 176 94 95 222
33 3 2 1 1 94 176 170 93
34 3 2 1 1 133 214 6 35
35 3 2 1 1 151 231 44 45
36 3 2 1 1 22 135 211 23
37 3 2 1 1 198 351 274 175
38 3 2 1 1 275 203 151 177
39 3 2 1 1 295 275 177 236
40 3 2 1 1 136 237 83 84
41 3 2 1 1 162 183 74 75
42 3 2 1 1 44 231 141 43
43 3 2 1 1 62 63 169 228
44 3 2 1 1 141 234 42 43
45 3 2 1 1 134 235 32 31
46 3 2 1 1 291 227 147 199
47 3 2 1 1 111 179 171 110
48 3 2 1 1 298 231 151 203
49 3 2 1 1 179 111 15 81
50 3 2 1 1 261 146 227 291
51 3 2 1 1 81 82 160 179
52 3 2 1 1 175 274 200 142
53 3 2 1 1 40 169 63 9
54 3 2 1 1 182 58 10 64
55 3 2 1 1 42 234 178 41
56 3 2 1 1 65 161 182 64
57 3 2 1 1 17 175 142 18
58 3 2 1 1 160 82 83 237
59 3 2 1 1 220 228 169 178
60 3 2 1 1 133 35 34 221
61 3 2 1 1 345 226 150 276
62 3 2 1 1 345 340 341 272
63 3 2 1 1 33 172 221 34
64 3 2 1 1 262 232 174 292
65 3 2 1 1 90 155 208 89
66 3 2 1 1 289 224 142 200
67 3 2 1 1 141 294 299 234
68 3 2 1 1 155 90 91 219
69 3 2 1 1 140 297 263 229
70 3 2 1 1 62 228 139 61
71 3 2 1 1 341 372 342 272
72 3 2 1 1 96 138 222 95
73 3 2 1 1 57 181 153 56
74 3 2 1 1 134 272 342 235
75 3 2 1 1 230 99 100 148
76 3 2 1 1 106 147 227 105
77 3 2 1 1 227 146 104 105
78 3 2 1 1 101 232 148 100
79 3 2 1 1 104 146 223 103
80 3 2 1 1 174 102 103 223
81 3 2 1 1 32 235 172 33
82 3 2 1 1 170 92 16 93
83 3 2 1 1 223 344 292 174
84 3 2 1 1 150 29 5 197
85 3 2 1 1 293 348 230 148
86 3 2 1 1 230 348 297 140
87 3 2 1 1 231 298 294 141
88 3 2 1 1 293 148 232 262
89 3 2 1 1 271 172 235 342
90 3 2 1 1 224 19 18 142
91 3 2 1 1 107 108 233 173
92 3 2 1 1 58 182 181 57
93 3 2 1 1 223 146 261 344
94 3 2 1 1 173 147 106 107
95 3 2 1 1 171 239 238 154
96 3 2 1 1 234 299 220 178
97 3 2 1 1 239 301 300 238
98 3 2 1 1 171 154 109 110
99 3 2 1 1 233 154 238 273
100 3 2 1 1 173 290 199 147
101 3 2 1 1 160 239 171 179
102 3 2 1 1 343 221 172 271
103 3 2 1 1 41 178 169 40
104 3 2 1 1 154 233 108 109
105 3 2 1 1 372 373 271 342
106 3 2 1 1 374 348 293 340
107 3 2 1 1 292 372 341 262
108 3 2 1 1 138 96 97 229
109 3 2 1 1 219 91 92 170
110 3 2 1 1 226 345 272 134
111 3 2 1 1 345 276 374 340
112 3 2 1 1 260 296 176 222
113 3 2 1 1 176 296 219 170
114 3 2 1 1 30 29 150 226
115 3 2 1 1 134 31 30 226
116 3 2 1 1 290 173 233 273
117 3 2 1 1 373 344 261 339
118 3 2 1 1 340 293 262 341
119 3 2 1 1 301 239 160 237
120 3 2 1 1 290 328 327 199
121 3 2 1 1 372 292 344 373
122 3 2 1 1 343 271 373 339
123 3 2 1 1 135 22 21 225
124 3 2 1 1 20 137 225 21
125 3 2 1 1 291 375 339 261
126 3 2 1 1 137 20 19 224
127 3 2 1 1 327 375 291 199
128 3 2 1 1 339 375 270 343
129 3 2 1 1 221 343 270 133
130 3 2 1 1 328 290 273 349
131 3 2 1 1 337 200 274 376
132 3 2 1 1 376 331 203 275
133 3 2 1 1 273 238 300 349
134 3 2 1 1 260 222 138 350
135 3 2 1 1 376 275 295 337
136 3 2 1 1 274 351 331 376
137 3 2 1 1 270 375 327 352
138 3 2 1 1 334 137 224 289
139 3 2 1 1 200 337 336 289
140 3 2 1 1 138 229 263 350
141 3 2 1 1 330 263 297 378
142 3 2 1 1 150 197 346 276
143 3 2 1 1 214 133 270 352
144 3 2 1 1 288 225 137 334
145 3 2 1 1 268 135 225 288
146 3 2 1 1 297 348 374 378
147 3 2 1 1 331 377 298 203
148 3 2 1 1 377 332 294 298
149 3 2 1 1 336 337 295 338
150 3 2 1 1 76 241 162 75
151 3 2 1 1 332 322 299 294
152 3 2 1 1 276 346 378 374
153 3 2 1 1 236 149 338 295
154 3 2 1 1 288 370 325 268
155 3 2 1 1 144 241 76 77
156 3 2 1 1 299 322 283 220
157 3 2 1 1 136 84 85 240
158 3 2 1 1 55 56 153 218
159 3 2 1 1 277 301 237 136
160 3 2 1 1 212 53 54 145
161 3 2 1 1 228 220 283 139
162 3 2 1 1 85 86 184 240
163 3 2 1 1 213 51 52 143
164 3 2 1 1 334 289 336 371
165 3 2 1 1 145 54 55 218
166 3 2 1 1 338 269 371 336
167 3 2 1 1 330 378 346 319
168 3 2 1 1 377 331 351 320
169 3 2 1 1 328 349 380 318
170 3 2 1 1 143 52 53 212
171 3 2 1 1 370 288 334 371
172 3 2 1 1 320 351 198 264
173 3 2 1 1 319 346 197 257
174 3 2 1 1 326 287 318 380
175 3 2 1 1 318 287 214 352
176 3 2 1 1 352 327 328 318
177 3 2 1 1 379 367 260 350
178 3 2 1 1 371 269 333 370
179 3 2 1 1 144 77 78 242
180 3 2 1 1 286 145 218 335
181 3 2 1 1 300 301 277 321
182 3 2 1 1 156 287 326 201
183 3 2 1 1 166 50 51 213
184 3 2 1 1 6 214 287 156
185 3 2 1 1 350 263 330 379
186 3 2 1 1 26 25 168 152
187 3 2 1 1 156 167 36 6
188 3 2 1 1 144 279 303 241
189 3 2 1 1 241 303 205 162
190 3 2 1 1 243 183 162 205
191 3 2 1 1 277 136 240 347
192 3 2 1 1 250 37 36 167
193 3 2 1 1 360 243 205 285
194 3 2 1 1 296 323 155 219
195 3 2 1 1 367 323 296 260
196 3 2 1 1 240 184 278 347
197 3 2 1 1 27 26 152 163
198 3 2 1 1 259 212 145 286
199 3 2 1 1 88 89 208 158
200 3 2 1 1 149 48 49 217
201 3 2 1 1 59 60 209 157
202 3 2 1 1 217 166 333 269
203 3 2 1 1 321 380 349 300
204 3 2 1 1 217 49 50 166
205 3 2 1 1 183 192 73 74
206 3 2 1 1 269 338 149 217
207 3 2 1 1 389 324 259 317
208 3 2 1 1 87 164 184 86
209 3 2 1 1 258 213 143 324
210 3 2 1 1 78 79 180 242
211 3 2 1 1 258 333 166 213
212 3 2 1 1 278 184 164 204
213 3 2 1 1 218 153 302 335
214 3 2 1 1 161 65 66 159
215 3 2 1 1 69 185 191 68
216 3 2 1 1 188 216 1 39
217 3 2 1 1 189 215 5 28
218 3 2 1 1 325 370 333 258
219 3 2 1 1 264 198 1 216
220 3 2 1 1 257 197 5 215
221 3 2 1 1 201 282 167 156
222 3 2 1 1 130 129 267 255
223 3 2 1 1 135 268 329 211
224 3 2 1 1 245 363 313 247
225 3 2 1 1 380 321 386 326
226 3 2 1 1 281 118 117 163
227 3 2 1 1 37 250 187 38
228 3 2 1 1 131 130 255 159
229 3 2 1 1 193 180 79 80
230 3 2 1 1 311 382 335 302
231 3 2 1 1 152 168 202 207
232 3 2 1 1 389 325 258 324
233 3 2 1 1 212 259 324 143
234 3 2 1 1 68 191 196 67
235 3 2 1 1 382 311 267 388
236 3 2 1 1 207 281 163 152
237 3 2 1 1 164 87 13 122
238 3 2 1 1 12 131 159 66
239 3 2 1 1 157 112 11 59
240 3 2 1 1 163 117 4 27
241 3 2 1 1 158 121 14 88
242 3 2 1 1 180 248 284 242
243 3 2 1 1 80 14 121 193
244 3 2 1 1 122 13 67 196
245 3 2 1 1 120 248 193 121
246 3 2 1 1 168 25 24 190
247 3 2 1 1 206 115 116 186
248 3 2 1 1 279 144 242 284
249 3 2 1 1 353 385 132 256
250 3 2 1 1 307 114 115 206
251 3 2 1 1 196 247 123 122
252 3 2 1 1 205 303 304 285
253 3 2 1 1 250 167 282 249
254 3 2 1 1 114 307 246 113
255 3 2 1 1 126 125 252 186
256 3 2 1 1 319 365 379 330
257 3 2 1 1 365 314 361 384
258 3 2 1 1 131 12 72 194
259 3 2 1 1 320 316 332 377
260 3 2 1 1 71 11 112 195
261 3 2 1 1 120 354 309 119
262 3 2 1 1 209 139 283 266
263 3 2 1 1 356 201 326 386
264 3 2 1 1 113 355 308 114
265 3 2 1 1 243 360 310 244
266 3 2 1 1 38 187 126 7
267 3 2 1 1 123 124 312 251
268 3 2 1 1 286 366 317 259
269 3 2 1 1 210 161 159 255
270 3 2 1 1 181 182 161 210
271 3 2 1 1 208 155 323 265
272 3 2 1 1 316 315 362 383
273 3 2 1 1 280 359 360 285
274 3 2 1 1 310 359 128 129
275 3 2 1 1 129 130 244 310
276 3 2 1 1 323 367 384 265
277 3 2 1 1 283 322 383 266
278 3 2 1 1 113 246 195 112
279 3 2 1 1 3 127 190 24
280 3 2 1 1 306 204 251 312
281 3 2 1 1 306 282 201 356
282 3 2 1 1 124 123 247 313
283 3 2 1 1 194 244 130 131
284 3 2 1 1 286 335 382 366
285 3 2 1 1 278 204 306 356
286 3 2 1 1 7 126 186 8
287 3 2 1 1 303 279 357 304
288 3 2 1 1 316 320 264 315
289 3 2 1 1 369 353 256 381
290 3 2 1 1 255 267 311 210
291 3 2 1 1 187 249 125 126
292 3 2 1 1 248 120 119 305
293 3 2 1 1 386 321 277 347
294 3 2 1 1 307 363 245 246
295 3 2 1 1 379 365 384 367
296 3 2 1 1 116 188 39 8
297 3 2 1 1 117 189 28 4
298 3 2 1 1 365 319 257 314
299 3 2 1 1 359 280 190 127
300 3 2 1 1 332 316 383 322
301 3 2 1 1 112 157 355 113
302 3 2 1 1 70 165 185 69
303 3 2 1 1 121 158 354 120
304 3 2 1 1 211 329 256 132
305 3 2 1 1 387 385 353 390
306 3 2 1 1 73 192 194 72
307 3 2 1 1 195 165 70 71
308 3 2 1 1 266 355 157 209
309 3 2 1 1 265 354 158 208
310 3 2 1 1 302 153 181 210
311 3 2 1 1 304 357 207 202
312 3 2 1 1 249 312 124 125
313 3 2 1 1 308 362 315 254
314 3 2 1 1 118 281 305 119
315 3 2 1 1 358 357 279 284
316 3 2 1 1 381 256 329 368
317 3 2 1 1 122 123 251 164
318 3 2 1 1 317 366 369 381
319 3 2 1 1 132 2 23 211
320 3 2 1 1 313 363 252 125
321 3 2 1 1 253 309 314 215
322 3 2 1 1 282 306 312 249
323 3 2 1 1 253 118 119 309
324 3 2 1 1 254 115 114 308
325 3 2 1 1 366 388 390 369
326 3 2 1 1 188 115 254 216
327 3 2 1 1 189 118 253 215
328 3 2 1 1 381 368 389 317
329 3 2 1 1 356 386 347 278
330 3 2 1 1 390 388 364 387
331 3 2 1 1 284 248 305 358
332 3 2 1 1 129 128 364 267
333 3 2 1 1 192 183 243 244
334 3 2 1 1 207 357 358 281
335 3 2 1 1 362 308 355 266
336 3 2 1 1 191 185 245 247
337 3 2 1 1 387 128 127 385
338 3 2 1 1 265 384 361 354
339 3 2 1 1 309 354 361 314
340 3 2 1 1 368 329 268 325
341 3 2 1 1 285 304 202 280
342 3 2 1 1 206 252 363 307
343 3 2 1 1 280 202 168 190
344 3 2 1 1 245 185 165 246
345 3 2 1 1 315 264 216 254
346 3 2 1 1 2 132 385 127
347 2 2 2 2 708 772 595 
348 2 2 2 2 514 642 513 
349 2 2 2 2 578 653 601 
350 2 2 2 2 646 714 651 
351 2 2 2 2 649 650 579 
352 2 2 2 2 681 776 719 
353 2 2 2 2 402 578 517 
354 2 2 2 2 720 763 757 
355 2 2 2 2 654 716 548 
356 2 2 2 2 686 759 550 
357 2 2 2 2 683 755 748 
358 2 2 2 2 678 778 758 
359 2 2 2 2 589 642 555 
360 2 2 2 2 502 587 503 
361 2 2 2 2 586 645 590 
362 2 2 2 2 588 644 554 
363 2 2 2 2 504 707 505 
364 2 2 2 2 753 761 712 
365 2 2 2 2 509 713 508 
366 2 2 2 2 656 715 709 
367 2 2 2 2 406 516 399 
368 3 2 2 2 468 623 524 467
369 3 2 2 2 659 535 617 693
370 3 2 2 2 490 403 632 540
371 3 2 2 2 765 777 735 672
372 3 2 2 2 465 568 563 464
373 3 2 2 2 568 465 466 620
374 3 2 2 2 626 672 735 526
375 3 2 2 2 539 432 433 558
376 3 2 2 2 620 466 467 524
377 3 2 2 2 469 566 623 468
378 3 2 2 2 485 484 570 538
379 3 2 2 2 561 461 462 614
380 3 2 2 2 608 404 496 523
381 3 2 2 2 538 634 400 485
382 3 2 2 2 571 545 458 459
383 3 2 2 2 622 456 457 567
384 3 2 2 2 457 458 545 567
385 3 2 2 2 456 622 528 455
386 3 2 2 2 443 573 442 395
387 3 2 2 2 444 572 573 443
388 3 2 2 2 551 422 421 627
389 3 2 2 2 424 576 407 391
390 3 2 2 2 564 536 473 474
391 3 2 2 2 562 544 476 477
392 3 2 2 2 626 493 492 537
393 3 2 2 2 478 565 562 477
394 3 2 2 2 616 526 735 698
395 3 2 2 2 693 617 536 593
396 3 2 2 2 736 777 765 694
397 3 2 2 2 593 768 732 693
398 3 2 2 2 563 529 463 464
399 3 2 2 2 617 535 471 472
400 3 2 2 2 531 627 421 420
401 3 2 2 2 460 571 459 398
402 3 2 2 2 460 461 561 571
403 3 2 2 2 471 535 615 470
404 3 2 2 2 423 565 478 394
405 3 2 2 2 423 422 551 565
406 3 2 2 2 436 525 613 435
407 3 2 2 2 442 573 560 441
408 3 2 2 2 558 433 434 559
409 3 2 2 2 463 529 614 462
410 3 2 2 2 615 736 694 566
411 3 2 2 2 559 434 435 613
412 3 2 2 2 441 560 546 440
413 3 2 2 2 566 469 470 615
414 3 2 2 2 530 621 437 438
415 3 2 2 2 493 626 526 494
416 3 2 2 2 734 672 626 537
417 3 2 2 2 482 527 618 483
418 3 2 2 2 544 625 475 476
419 3 2 2 2 570 484 483 618
420 3 2 2 2 695 524 623 660
421 3 2 2 2 473 536 617 472
422 3 2 2 2 695 740 620 524
423 3 2 2 2 563 629 591 529
424 3 2 2 2 660 623 566 694
425 3 2 2 2 437 621 525 436
426 3 2 2 2 474 475 625 564
427 3 2 2 2 564 701 593 536
428 3 2 2 2 494 526 616 495
429 3 2 2 2 523 496 495 616
430 3 2 2 2 693 732 764 659
431 3 2 2 2 615 535 659 736
432 3 2 2 2 619 673 734 537
433 3 2 2 2 537 492 491 619
434 3 2 2 2 490 540 619 491
435 3 2 2 2 736 659 764 777
436 3 2 2 2 733 765 672 734
437 3 2 2 2 698 735 777 764
438 3 2 2 2 733 660 694 765
439 3 2 2 2 561 624 545 571
440 3 2 2 2 624 675 567 545
441 3 2 2 2 534 430 431 610
442 3 2 2 2 764 732 671 698
443 3 2 2 2 568 620 740 696
444 3 2 2 2 624 561 614 699
445 3 2 2 2 675 624 699 742
446 3 2 2 2 525 703 670 613
447 3 2 2 2 610 431 432 539
448 3 2 2 2 675 747 622 567
449 3 2 2 2 592 539 558 611
450 3 2 2 2 616 698 671 523
451 3 2 2 2 594 538 570 691
452 3 2 2 2 673 619 540 697
453 3 2 2 2 697 766 737 673
454 3 2 2 2 629 563 568 696
455 3 2 2 2 614 529 591 699
456 3 2 2 2 692 559 613 670
457 3 2 2 2 734 673 737 733
458 3 2 2 2 727 629 696 767
459 3 2 2 2 660 733 737 695
460 3 2 2 2 727 666 591 629
461 3 2 2 2 530 438 439 631
462 3 2 2 2 558 559 692 611
463 3 2 2 2 717 768 593 701
464 3 2 2 2 533 636 427 428
465 3 2 2 2 666 742 699 591
466 3 2 2 2 572 633 560 573
467 3 2 2 2 633 702 546 560
468 3 2 2 2 670 738 730 692
469 3 2 2 2 697 540 632 731
470 3 2 2 2 766 740 695 737
471 3 2 2 2 439 440 546 631
472 3 2 2 2 696 740 766 767
473 3 2 2 2 594 691 738 743
474 3 2 2 2 427 636 574 426
475 3 2 2 2 670 703 743 738
476 3 2 2 2 631 546 702 741
477 3 2 2 2 744 703 525 621
478 3 2 2 2 415 637 556 416
479 3 2 2 2 671 732 768 739
480 3 2 2 2 543 576 424 425
481 3 2 2 2 533 428 429 612
482 3 2 2 2 658 530 631 741
483 3 2 2 2 767 766 697 731
484 3 2 2 2 621 530 658 744
485 3 2 2 2 634 538 594 700
486 3 2 2 2 769 700 594 743
487 3 2 2 2 572 444 445 635
488 3 2 2 2 691 570 618 668
489 3 2 2 2 527 598 668 618
490 3 2 2 2 532 637 415 414
491 3 2 2 2 608 523 671 739
492 3 2 2 2 426 574 543 425
493 3 2 2 2 730 738 691 668
494 3 2 2 2 612 429 430 534
495 3 2 2 2 539 592 667 610
496 3 2 2 2 743 703 744 769
497 3 2 2 2 729 598 690 687
498 3 2 2 2 611 692 730 729
499 3 2 2 2 445 446 541 635
500 3 2 2 2 725 667 592 687
501 3 2 2 2 533 612 663 689
502 3 2 2 2 687 592 611 729
503 3 2 2 2 668 598 729 730
504 3 2 2 2 701 564 625 674
505 3 2 2 2 528 603 454 455
506 3 2 2 2 569 527 482 481
507 3 2 2 2 727 767 731 684
508 3 2 2 2 704 639 543 574
509 3 2 2 2 745 636 533 689
510 3 2 2 2 569 690 598 527
511 3 2 2 2 574 636 745 704
512 3 2 2 2 610 667 728 534
513 3 2 2 2 604 576 543 639
514 3 2 2 2 625 544 628 674
515 3 2 2 2 562 630 628 544
516 3 2 2 2 632 609 684 731
517 3 2 2 2 609 661 726 684
518 3 2 2 2 666 727 684 726
519 3 2 2 2 770 747 675 742
520 3 2 2 2 528 622 747 676
521 3 2 2 2 775 705 662 758
522 3 2 2 2 532 662 705 637
523 3 2 2 2 551 630 562 565
524 3 2 2 2 771 717 701 674
525 3 2 2 2 725 687 690 665
526 3 2 2 2 661 609 547 597
527 3 2 2 2 770 742 666 726
528 3 2 2 2 663 612 534 728
529 3 2 2 2 609 632 403 547
530 3 2 2 2 576 604 408 407
531 3 2 2 2 532 414 413 638
532 3 2 2 2 721 763 689 663
533 3 2 2 2 721 663 728 762
534 3 2 2 2 662 532 638 748
535 3 2 2 2 739 768 717 723
536 3 2 2 2 450 577 586 449
537 3 2 2 2 681 719 702 633
538 3 2 2 2 637 705 640 556
539 3 2 2 2 638 575 683 748
540 3 2 2 2 453 454 603 549
541 3 2 2 2 556 585 417 416
542 3 2 2 2 723 685 608 739
543 3 2 2 2 554 577 450 451
544 3 2 2 2 630 551 627 680
545 3 2 2 2 555 575 412 411
546 3 2 2 2 749 754 677 676
547 3 2 2 2 489 557 547 403
548 3 2 2 2 726 661 749 770
549 3 2 2 2 413 412 575 638
550 3 2 2 2 682 648 542 678
551 3 2 2 2 522 606 657 722
552 3 2 2 2 640 705 775 756
553 3 2 2 2 717 771 773 723
554 3 2 2 2 664 607 634 700
555 3 2 2 2 633 572 635 681
556 3 2 2 2 776 750 774 719
557 3 2 2 2 758 662 748 755
558 3 2 2 2 686 639 704 751
559 3 2 2 2 399 606 522 479
560 3 2 2 2 603 528 676 677
561 3 2 2 2 531 420 419 552
562 3 2 2 2 541 446 447 553
563 3 2 2 2 607 710 647 580
564 3 2 2 2 685 746 646 581
565 3 2 2 2 750 776 752 710
566 3 2 2 2 719 774 741 702
567 3 2 2 2 628 630 680 718
568 3 2 2 2 728 667 725 762
569 3 2 2 2 759 686 751 669
570 3 2 2 2 479 522 605 480
571 3 2 2 2 569 481 480 605
572 3 2 2 2 722 657 721 762
573 3 2 2 2 676 747 770 749
574 3 2 2 2 542 500 499 602
575 3 2 2 2 669 514 513 759
576 3 2 2 2 681 635 541 596
577 3 2 2 2 658 741 774 724
578 3 2 2 2 724 774 750 664
579 3 2 2 2 665 690 569 605
580 3 2 2 2 724 664 700 769
581 3 2 2 2 769 744 658 724
582 3 2 2 2 602 499 498 548
583 3 2 2 2 511 510 656 553
584 3 2 2 2 449 586 590 448
585 3 2 2 2 723 773 746 685
586 3 2 2 2 588 554 451 452
587 3 2 2 2 664 750 710 607
588 3 2 2 2 643 760 713 645
589 3 2 2 2 648 501 500 542
590 3 2 2 2 600 516 515 706
591 3 2 2 2 706 515 514 669
592 3 2 2 2 586 577 643 645
593 3 2 2 2 589 555 411 410
594 3 2 2 2 720 706 669 751
595 3 2 2 2 752 596 656 709
596 3 2 2 2 409 408 604 550
597 3 2 2 2 756 707 641 640
598 3 2 2 2 405 506 548 498
599 3 2 2 2 550 512 392 409
600 3 2 2 2 549 521 397 453
601 3 2 2 2 396 511 553 447
602 3 2 2 2 393 502 552 419
603 3 2 2 2 759 513 512 550
604 3 2 2 2 452 397 521 588
605 3 2 2 2 511 396 448 590
606 3 2 2 2 410 392 512 589
607 3 2 2 2 488 487 579 650
608 3 2 2 2 519 711 644 520
609 3 2 2 2 711 519 518 601
610 3 2 2 2 517 578 601 518
611 3 2 2 2 520 644 588 521
612 3 2 2 2 643 577 554 644
613 3 2 2 2 590 645 510 511
614 3 2 2 2 641 503 587 585
615 3 2 2 2 653 578 507 508
616 3 2 2 2 648 682 599 584
617 3 2 2 2 762 725 665 722
618 3 2 2 2 749 661 597 754
619 3 2 2 2 502 393 418 587
620 3 2 2 2 604 639 686 550
621 3 2 2 2 715 652 647 709
622 3 2 2 2 589 512 513 642
623 3 2 2 2 771 674 628 718
624 3 2 2 2 502 503 655 552
625 3 2 2 2 553 656 596 541
626 3 2 2 2 745 720 751 704
627 3 2 2 2 595 772 718 680
628 3 2 2 2 517 579 487 402
629 3 2 2 2 518 649 579 517
630 3 2 2 2 596 752 776 681
631 3 2 2 2 489 488 650 557
632 3 2 2 2 597 547 557 679
633 3 2 2 2 605 522 722 665
634 3 2 2 2 680 627 531 595
635 3 2 2 2 497 582 506 405
636 3 2 2 2 486 583 507 401
637 3 2 2 2 520 753 712 519
638 3 2 2 2 509 510 645 713
639 3 2 2 2 506 505 654 548
640 3 2 2 2 404 608 685 581
641 3 2 2 2 401 507 578 402
642 3 2 2 2 585 556 640 641
643 3 2 2 2 646 746 708 714
644 3 2 2 2 706 720 757 600
645 3 2 2 2 602 548 716 778
646 3 2 2 2 683 642 688 755
647 3 2 2 2 650 649 679 557
648 3 2 2 2 400 634 607 580
649 3 2 2 2 552 655 595 531
650 3 2 2 2 711 760 643 644
651 3 2 2 2 683 575 555 642
652 3 2 2 2 582 651 505 506
653 3 2 2 2 649 518 519 712
654 3 2 2 2 677 753 549 603
655 3 2 2 2 583 652 508 507
656 3 2 2 2 417 585 587 418
657 3 2 2 2 521 549 753 520
658 3 2 2 2 404 581 582 497
659 3 2 2 2 400 580 583 486
660 3 2 2 2 600 757 657 606
661 3 2 2 2 509 508 652 715
662 3 2 2 2 504 505 651 714
663 3 2 2 2 721 657 757 763
664 3 2 2 2 716 654 756 775
665 3 2 2 2 503 504 714 655
666 3 2 2 2 713 760 653 508
667 3 2 2 2 778 716 775 758
668 3 2 2 2 651 582 581 646
669 3 2 2 2 688 599 682 755
670 3 2 2 2 652 583 580 647
671 3 2 2 2 778 678 542 602
672 3 2 2 2 501 648 584 406
673 3 2 2 2 709 647 710 752
674 3 2 2 2 763 720 745 689
675 3 2 2 2 718 772 773 771
676 3 2 2 2 707 756 654 505
677 3 2 2 2 641 707 504 503
678 3 2 2 2 514 515 688 642
679 3 2 2 2 601 653 760 711
680 3 2 2 2 712 761 679 649
681 3 2 2 2 516 600 606 399
682 3 2 2 2 755 682 678 758
683 3 2 2 2 510 509 715 656
684 3 2 2 2 515 516 599 688
685 3 2 2 2 679 761 754 597
686 3 2 2 2 708 595 655 714
687 3 2 2 2 746 773 772 708
688 3 2 2 2 677 754 761 753
689 3 2 2 2 584 599 516 406
690 2 2 3 3 1037 1165 1134 
691 2 2 3 3 905 967 789 
692 2 2 3 3 1064 1161 1143 
693 2 2 3 3 989 1095 1036 
694 2 2 3 3 1024 1031 970 
695 2 2 3 3 1147 1165 1101 
696 2 2 3 3 936 1141 1140 
697 2 2 3 3 1035 1093 939 
698 2 2 3 3 794 963 894 
699 2 2 3 3 964 1029 1028 
700 2 2 3 3 973 1026 942 
701 2 2 3 3 969 1021 971 
702 2 2 3 3 968 1023 972 
703 2 2 3 3 1090 1146 1063 
704 2 2 3 3 907 1069 906 
705 2 2 3 3 1048 1144 1133 
706 2 2 3 3 893 965 894 
707 2 2 3 3 896 966 895 
708 2 2 3 3 1030 1087 1086 
709 2 2 3 3 1086 1094 983 
710 2 2 3 3 905 789 788 
711 3 2 3 3 808 928 955 809
712 3 2 3 3 950 1010 885 884
713 3 2 3 3 951 817 818 1000
714 3 2 3 3 951 1003 816 817
715 3 2 3 3 916 1076 1074 1002
716 3 2 3 3 928 1067 980 955
717 3 2 3 3 978 1119 1117 1054
718 3 2 3 3 954 879 791 975
719 3 2 3 3 811 958 866 782
720 3 2 3 3 956 1012 946 958
721 3 2 3 3 810 956 958 811
722 3 2 3 3 808 807 1009 928
723 3 2 3 3 867 787 974 929
724 3 2 3 3 955 956 810 809
725 3 2 3 3 1126 1073 954 975
726 3 2 3 3 949 933 796 795
727 3 2 3 3 849 957 947 848
728 3 2 3 3 848 947 847 786
729 3 2 3 3 1053 977 927 952
730 3 2 3 3 1073 1126 1155 1156
731 3 2 3 3 796 933 953 797
732 3 2 3 3 879 954 930 880
733 3 2 3 3 977 1055 1008 927
734 3 2 3 3 962 830 783 831
735 3 2 3 3 850 851 918 1005
736 3 2 3 3 935 1001 863 864
737 3 2 3 3 946 935 864 865
738 3 2 3 3 1078 1051 924 1010
739 3 2 3 3 815 917 999 814
740 3 2 3 3 814 999 948 813
741 3 2 3 3 978 1073 1156 1119
742 3 2 3 3 812 813 948 949
743 3 2 3 3 882 914 998 883
744 3 2 3 3 927 857 858 952
745 3 2 3 3 1008 926 855 856
746 3 2 3 3 855 926 1007 854
747 3 2 3 3 919 853 854 1007
748 3 2 3 3 853 919 1006 852
749 3 2 3 3 914 882 881 997
750 3 2 3 3 952 858 859 994
751 3 2 3 3 846 847 947 995
752 3 2 3 3 934 986 844 845
753 3 2 3 3 862 916 1002 861
754 3 2 3 3 950 884 883 998
755 3 2 3 3 1057 1118 1007 926
756 3 2 3 3 860 912 994 859
757 3 2 3 3 1055 1117 1119 1057
758 3 2 3 3 1008 856 857 927
759 3 2 3 3 1006 1124 1039 918
760 3 2 3 3 862 863 1001 916
761 3 2 3 3 829 961 960 828
762 3 2 3 3 866 958 946 865
763 3 2 3 3 1115 1054 1117 1116
764 3 2 3 3 1119 1156 1118 1057
765 3 2 3 3 1155 1056 1118 1156
766 3 2 3 3 1010 924 792 885
767 3 2 3 3 998 1052 1120 950
768 3 2 3 3 1115 1052 998 914
769 3 2 3 3 956 955 980 1012
770 3 2 3 3 1053 952 994 1114
771 3 2 3 3 949 795 779 812
772 3 2 3 3 1114 994 912 1042
773 3 2 3 3 1001 1077 1076 916
774 3 2 3 3 950 1120 1078 1010
775 3 2 3 3 1118 1056 919 1007
776 3 2 3 3 1011 1077 1001 935
777 3 2 3 3 946 1012 1011 935
778 3 2 3 3 919 1056 1124 1006
779 3 2 3 3 1079 995 947 957
780 3 2 3 3 1005 957 849 850
781 3 2 3 3 918 851 852 1006
782 3 2 3 3 830 962 961 829
783 3 2 3 3 930 978 1054 997
784 3 2 3 3 816 1003 917 815
785 3 2 3 3 978 930 954 1073
786 3 2 3 3 934 845 846 995
787 3 2 3 3 1057 926 1008 1055
788 3 2 3 3 997 1054 1115 914
789 3 2 3 3 1055 977 1116 1117
790 3 2 3 3 861 1002 912 860
791 3 2 3 3 948 1015 933 949
792 3 2 3 3 997 881 880 930
793 3 2 3 3 1002 1074 1042 912
794 3 2 3 3 995 1079 1059 934
795 3 2 3 3 980 1060 1011 1012
796 3 2 3 3 925 869 868 996
797 3 2 3 3 867 929 996 868
798 3 2 3 3 870 1004 915 871
799 3 2 3 3 1004 870 869 925
800 3 2 3 3 1050 925 996 1112
801 3 2 3 3 1112 996 929 1058
802 3 2 3 3 929 974 1125 1058
803 3 2 3 3 1053 1113 1116 977
804 3 2 3 3 1072 915 1004 1108
805 3 2 3 3 1052 1115 1116 1113
806 3 2 3 3 1058 1125 1166 1154
807 3 2 3 3 1108 1004 925 1050
808 3 2 3 3 1045 951 1000 1111
809 3 2 3 3 1157 1113 1053 1114
810 3 2 3 3 1122 1078 1120 1157
811 3 2 3 3 913 1000 818 819
812 3 2 3 3 1114 1042 1122 1157
813 3 2 3 3 1154 1111 1075 1153
814 3 2 3 3 1123 1100 1076 1077
815 3 2 3 3 1157 1120 1052 1113
816 3 2 3 3 1111 1000 913 1075
817 3 2 3 3 1154 1166 1045 1111
818 3 2 3 3 1077 1011 1060 1123
819 3 2 3 3 1153 1112 1058 1154
820 3 2 3 3 913 819 820 993
821 3 2 3 3 1158 1122 1042 1074
822 3 2 3 3 1121 1043 917 1003
823 3 2 3 3 1051 1158 1100 1129
824 3 2 3 3 993 820 821 944
825 3 2 3 3 944 821 822 992
826 3 2 3 3 993 944 1110 1041
827 3 2 3 3 1074 1076 1100 1158
828 3 2 3 3 1050 1112 1153 1109
829 3 2 3 3 1158 1051 1078 1122
830 3 2 3 3 1075 1041 1109 1153
831 3 2 3 3 1121 1003 951 1045
832 3 2 3 3 1041 1075 913 993
833 3 2 3 3 999 917 1043 1080
834 3 2 3 3 837 1017 943 836
835 3 2 3 3 992 822 823 921
836 3 2 3 3 921 823 824 991
837 3 2 3 3 1014 924 1051 1129
838 3 2 3 3 1109 1041 1110 1152
839 3 2 3 3 991 922 1071 1038
840 3 2 3 3 1015 948 999 1080
841 3 2 3 3 920 1017 837 838
842 3 2 3 3 1040 1110 944 992
843 3 2 3 3 826 827 923 1013
844 3 2 3 3 922 825 826 1013
845 3 2 3 3 960 923 827 828
846 3 2 3 3 1060 980 1067 1131
847 3 2 3 3 991 824 825 922
848 3 2 3 3 1152 1108 1050 1109
849 3 2 3 3 992 921 1107 1040
850 3 2 3 3 953 985 798 797
851 3 2 3 3 1043 1103 1130 1080
852 3 2 3 3 1038 1107 921 991
853 3 2 3 3 1072 1108 1152 1148
854 3 2 3 3 1103 1043 1121 1151
855 3 2 3 3 1159 1129 1100 1123
856 3 2 3 3 953 933 1015 1068
857 3 2 3 3 923 960 976 1081
858 3 2 3 3 1080 1130 1068 1015
859 3 2 3 3 1110 1040 1148 1152
860 3 2 3 3 1129 1159 1061 1014
861 3 2 3 3 1121 1045 1166 1151
862 3 2 3 3 1125 1099 1151 1166
863 3 2 3 3 1124 1056 1155 1150
864 3 2 3 3 1126 1098 1150 1155
865 3 2 3 3 1159 1123 1060 1131
866 3 2 3 3 945 962 831 832
867 3 2 3 3 1148 1040 1107 1106
868 3 2 3 3 1106 1049 1072 1148
869 3 2 3 3 1099 1125 974 1070
870 3 2 3 3 1098 1126 975 1036
871 3 2 3 3 961 962 945 1019
872 3 2 3 3 792 924 1014 1016
873 3 2 3 3 1149 1039 1124 1150
874 3 2 3 3 792 1016 932 886
875 3 2 3 3 1107 1038 1101 1106
876 3 2 3 3 920 838 839 1018
877 3 2 3 3 984 876 875 931
878 3 2 3 3 1081 1128 1013 923
879 3 2 3 3 1071 922 1013 1128
880 3 2 3 3 871 915 987 872
881 3 2 3 3 1081 976 1092 1102
882 3 2 3 3 802 941 968 803
883 3 2 3 3 1132 1047 984 931
884 3 2 3 3 1017 1083 1020 943
885 3 2 3 3 961 1019 976 960
886 3 2 3 3 886 932 1029 887
887 3 2 3 3 1071 1147 1101 1038
888 3 2 3 3 806 911 1009 807
889 3 2 3 3 1063 1146 1102 1092
890 3 2 3 3 799 798 985 938
891 3 2 3 3 843 844 986 937
892 3 2 3 3 915 1072 1049 987
893 3 2 3 3 943 969 835 836
894 3 2 3 3 981 1085 1027 967
895 3 2 3 3 1082 1062 920 1018
896 3 2 3 3 942 959 840 841
897 3 2 3 3 839 840 959 1018
898 3 2 3 3 875 874 1027 931
899 3 2 3 3 1049 1106 1101 1104
900 3 2 3 3 1016 1014 1061 1065
901 3 2 3 3 1162 1136 1020 1083
902 3 2 3 3 920 1062 1083 1017
903 3 2 3 3 1061 1159 1131 1133
904 3 2 3 3 1025 1082 1018 959
905 3 2 3 3 968 941 1022 1023
906 3 2 3 3 1027 1085 1132 931
907 3 2 3 3 1083 1062 1139 1162
908 3 2 3 3 1079 957 1005 1127
909 3 2 3 3 1005 918 1039 1127
910 3 2 3 3 966 989 791 878
911 3 2 3 3 965 990 787 889
912 3 2 3 3 1070 974 787 990
913 3 2 3 3 1036 975 791 989
914 3 2 3 3 911 806 805 940
915 3 2 3 3 873 872 987 910
916 3 2 3 3 1067 928 1009 1048
917 3 2 3 3 908 907 1063 1035
918 3 2 3 3 984 1047 1141 936
919 3 2 3 3 945 832 833 939
920 3 2 3 3 1127 1039 1149 1135
921 3 2 3 3 1164 1105 1141 1047
922 3 2 3 3 1128 1081 1102 1160
923 3 2 3 3 909 908 1035 939
924 3 2 3 3 877 876 984 936
925 3 2 3 3 1084 897 896 1140
926 3 2 3 3 1164 1139 1062 1082
927 3 2 3 3 1096 1095 1142 1163
928 3 2 3 3 981 906 1069 1136
929 3 2 3 3 1059 1079 1127 1135
930 3 2 3 3 803 968 972 804
931 3 2 3 3 986 934 1059 1046
932 3 2 3 3 1020 1136 1069 1021
933 3 2 3 3 973 942 841 842
934 3 2 3 3 1030 963 904 903
935 3 2 3 3 887 1029 964 888
936 3 2 3 3 899 937 1137 898
937 3 2 3 3 910 988 788 873
938 3 2 3 3 1134 1146 1090 982
939 3 2 3 3 982 1090 906 905
940 3 2 3 3 1135 1149 1096 1163
941 3 2 3 3 1031 941 802 801
942 3 2 3 3 987 1049 1104 910
943 3 2 3 3 938 890 780 799
944 3 2 3 3 937 899 785 843
945 3 2 3 3 784 909 939 833
946 3 2 3 3 936 895 790 877
947 3 2 3 3 781 900 940 805
948 3 2 3 3 1046 1137 937 986
949 3 2 3 3 900 781 804 972
950 3 2 3 3 842 785 899 973
951 3 2 3 3 970 1031 801 800
952 3 2 3 3 1021 1069 907 908
953 3 2 3 3 932 1016 1065 1066
954 3 2 3 3 985 953 1068 1064
955 3 2 3 3 800 780 890 970
956 3 2 3 3 976 1019 1093 1092
957 3 2 3 3 909 784 834 971
958 3 2 3 3 900 901 1034 940
959 3 2 3 3 891 1138 1088 892
960 3 2 3 3 1037 988 910 1104
961 3 2 3 3 902 901 1023 1087
962 3 2 3 3 1099 1097 1103 1151
963 3 2 3 3 888 964 904 793
964 3 2 3 3 1135 1163 1046 1059
965 3 2 3 3 983 893 894 963
966 3 2 3 3 1097 1044 1143 1161
967 3 2 3 3 898 1026 973 899
968 3 2 3 3 1140 1141 1105 1084
969 3 2 3 3 1026 898 897 1084
970 3 2 3 3 893 983 1094 892
971 3 2 3 3 1024 891 892 1094
972 3 2 3 3 972 1023 901 900
973 3 2 3 3 1037 1134 982 988
974 3 2 3 3 970 890 891 1024
975 3 2 3 3 1140 896 895 936
976 3 2 3 3 1068 1130 1161 1064
977 3 2 3 3 1082 1025 1105 1164
978 3 2 3 3 1139 1164 1047 1132
979 3 2 3 3 901 902 1091 1034
980 3 2 3 3 1165 1147 1160 1134
981 3 2 3 3 971 1021 908 909
982 3 2 3 3 793 904 963 794
983 3 2 3 3 1162 1139 1132 1085
984 3 2 3 3 1097 1099 1070 1044
985 3 2 3 3 1098 1096 1149 1150
986 3 2 3 3 1103 1097 1161 1130
987 3 2 3 3 1096 1098 1036 1095
988 3 2 3 3 979 911 940 1034
989 3 2 3 3 964 1028 903 904
990 3 2 3 3 903 902 1087 1030
991 3 2 3 3 1048 1009 911 979
992 3 2 3 3 894 965 889 794
993 3 2 3 3 895 966 878 790
994 3 2 3 3 1025 959 942 1026
995 3 2 3 3 890 938 1138 891
996 3 2 3 3 835 969 971 834
997 3 2 3 3 1064 1138 938 985
998 3 2 3 3 1022 941 1031 1024
999 3 2 3 3 1088 1143 1044 1033
1000 3 2 3 3 1029 932 1066 1028
1001 3 2 3 3 907 906 1090 1063
1002 3 2 3 3 1028 1091 902 903
1003 3 2 3 3 1092 1093 1035 1063
1004 3 2 3 3 898 1137 1089 897
1005 3 2 3 3 1032 1089 1095 989
1006 3 2 3 3 1033 893 892 1088
1007 3 2 3 3 1032 896 897 1089
1008 3 2 3 3 1094 1086 1022 1024
1009 3 2 3 3 1084 1105 1025 1026
1010 3 2 3 3 966 896 1032 989
1011 3 2 3 3 965 893 1033 990
1012 3 2 3 3 1147 1071 1128 1160
1013 3 2 3 3 1093 1019 945 939
1014 3 2 3 3 1144 1048 979 1145
1015 3 2 3 3 1066 1145 1091 1028
1016 3 2 3 3 1046 1163 1142 1137
1017 3 2 3 3 969 943 1020 1021
1018 3 2 3 3 1143 1088 1138 1064
1019 3 2 3 3 1022 1086 1087 1023
1020 3 2 3 3 1146 1134 1160 1102
1021 3 2 3 3 1165 1037 1104 1101
1022 3 2 3 3 905 906 981 967
1023 3 2 3 3 1144 1065 1061 1133
1024 3 2 3 3 1030 1086 983 963
1025 3 2 3 3 1089 1137 1142 1095
1026 3 2 3 3 967 1027 874 789
1027 3 2 3 3 1133 1131 1067 1048
1028 3 2 3 3 1136 1162 1085 981
1029 3 2 3 3 988 982 905 788
1030 3 2 3 3 1044 1070 990 1033
1031 3 2 3 3 1034 1091 1145 979
1032 3 2 3 3 1065 1144 1145 1066
1033 2 2 4 4 1476 1548 1372 
1034 2 2 4 4 1178 1424 1292 
1035 2 2 4 4 1179 1419 1299 
1036 2 2 4 4 1373 1501 1488 
1037 2 2 4 4 1458 1485 1414 
1038 2 2 4 4 1500 1561 1442 
1039 2 2 4 4 1351 1422 1374 
1040 2 2 4 4 1415 1487 1420 
1041 2 2 4 4 1529 1531 1481 
1042 2 2 4 4 1359 1423 1414 
1043 2 2 4 4 1456 1556 1525 
1044 2 2 4 4 1413 1474 1454 
1045 2 2 4 4 1481 1484 1417 
1046 2 2 4 4 1182 1351 1293 
1047 2 2 4 4 1425 1479 1330 
1048 2 2 4 4 1454 1557 1526 
1049 2 2 4 4 1496 1555 1498 
1050 2 2 4 4 1291 1474 1290 
1051 2 2 4 4 1362 1413 1334 
1052 2 2 4 4 1290 1562 1291 
1053 2 2 4 4 1278 1361 1279 
1054 2 2 4 4 1326 1534 1532 
1055 2 2 4 4 1280 1475 1281 
1056 2 2 4 4 1296 1360 1297 
1057 2 2 4 4 1426 1486 1477 
1058 3 2 4 4 1401 1318 1243 1244
1059 3 2 4 4 1260 1342 1402 1261
1060 3 2 4 4 1449 1514 1400 1318
1061 3 2 4 4 1197 1309 1376 1198
1062 3 2 4 4 1304 1390 1185 1184
1063 3 2 4 4 1243 1318 1400 1242
1064 3 2 4 4 1363 1506 1466 1347
1065 3 2 4 4 1225 1226 1343 1393
1066 3 2 4 4 1466 1506 1558 1542
1067 3 2 4 4 1327 1215 1214 1396
1068 3 2 4 4 1298 1222 1223 1381
1069 3 2 4 4 1175 1363 1347 1255
1070 3 2 4 4 1225 1393 1302 1224
1071 3 2 4 4 1512 1542 1514 1449
1072 3 2 4 4 1338 1236 1237 1345
1073 3 2 4 4 1397 1270 1269 1317
1074 3 2 4 4 1465 1368 1319 1344
1075 3 2 4 4 1322 1394 1232 1233
1076 3 2 4 4 1230 1315 1388 1229
1077 3 2 4 4 1314 1228 1229 1388
1078 3 2 4 4 1255 1347 1320 1256
1079 3 2 4 4 1558 1448 1514 1542
1080 3 2 4 4 1223 1224 1302 1381
1081 3 2 4 4 1345 1467 1383 1338
1082 3 2 4 4 1187 1348 1235 1167
1083 3 2 4 4 1238 1239 1310 1398
1084 3 2 4 4 1187 1186 1328 1348
1085 3 2 4 4 1309 1197 1196 1385
1086 3 2 4 4 1245 1319 1401 1244
1087 3 2 4 4 1319 1245 1246 1344
1088 3 2 4 4 1344 1246 1247 1387
1089 3 2 4 4 1512 1449 1447 1511
1090 3 2 4 4 1308 1385 1196 1195
1091 3 2 4 4 1248 1301 1387 1247
1092 3 2 4 4 1249 1395 1301 1248
1093 3 2 4 4 1250 1251 1391 1307
1094 3 2 4 4 1217 1329 1200 1171
1095 3 2 4 4 1311 1241 1242 1400
1096 3 2 4 4 1241 1311 1399 1240
1097 3 2 4 4 1250 1307 1395 1249
1098 3 2 4 4 1340 1322 1233 1234
1099 3 2 4 4 1232 1394 1346 1231
1100 3 2 4 4 1315 1230 1231 1346
1101 3 2 4 4 1343 1226 1227 1386
1102 3 2 4 4 1314 1386 1227 1228
1103 3 2 4 4 1509 1368 1465 1508
1104 3 2 4 4 1216 1341 1254 1174
1105 3 2 4 4 1341 1216 1215 1327
1106 3 2 4 4 1514 1448 1311 1400
1107 3 2 4 4 1392 1445 1515 1342
1108 3 2 4 4 1392 1303 1510 1445
1109 3 2 4 4 1449 1318 1401 1447
1110 3 2 4 4 1463 1314 1388 1444
1111 3 2 4 4 1401 1319 1368 1447
1112 3 2 4 4 1402 1316 1176 1261
1113 3 2 4 4 1270 1397 1305 1271
1114 3 2 4 4 1342 1260 1259 1392
1115 3 2 4 4 1258 1303 1392 1259
1116 3 2 4 4 1303 1258 1257 1389
1117 3 2 4 4 1433 1465 1344 1387
1118 3 2 4 4 1342 1515 1443 1402
1119 3 2 4 4 1254 1341 1339 1253
1120 3 2 4 4 1339 1323 1252 1253
1121 3 2 4 4 1323 1391 1251 1252
1122 3 2 4 4 1311 1448 1517 1399
1123 3 2 4 4 1328 1186 1185 1390
1124 3 2 4 4 1310 1239 1240 1399
1125 3 2 4 4 1369 1320 1347 1466
1126 3 2 4 4 1446 1389 1320 1369
1127 3 2 4 4 1398 1345 1237 1238
1128 3 2 4 4 1235 1348 1340 1234
1129 3 2 4 4 1236 1338 1193 1170
1130 3 2 4 4 1466 1542 1512 1369
1131 3 2 4 4 1511 1446 1369 1512
1132 3 2 4 4 1271 1305 1384 1272
1133 3 2 4 4 1399 1517 1432 1310
1134 3 2 4 4 1389 1446 1510 1303
1135 3 2 4 4 1306 1396 1214 1213
1136 3 2 4 4 1193 1338 1383 1194
1137 3 2 4 4 1389 1257 1256 1320
1138 3 2 4 4 1508 1507 1515 1445
1139 3 2 4 4 1445 1510 1509 1508
1140 3 2 4 4 1446 1511 1509 1510
1141 3 2 4 4 1507 1508 1465 1433
1142 3 2 4 4 1462 1435 1385 1308
1143 3 2 4 4 1447 1368 1509 1511
1144 3 2 4 4 1317 1269 1268 1336
1145 3 2 4 4 1308 1195 1194 1383
1146 3 2 4 4 1383 1467 1462 1308
1147 3 2 4 4 1443 1516 1316 1402
1148 3 2 4 4 1467 1345 1398 1518
1149 3 2 4 4 1520 1437 1395 1307
1150 3 2 4 4 1433 1387 1301 1519
1151 3 2 4 4 1451 1520 1307 1391
1152 3 2 4 4 1386 1314 1463 1513
1153 3 2 4 4 1398 1310 1432 1518
1154 3 2 4 4 1543 1443 1515 1507
1155 3 2 4 4 1300 1273 1272 1384
1156 3 2 4 4 1403 1451 1391 1323
1157 3 2 4 4 1300 1379 1180 1273
1158 3 2 4 4 1301 1395 1437 1519
1159 3 2 4 4 1519 1437 1559 1543
1160 3 2 4 4 1507 1433 1519 1543
1161 3 2 4 4 1444 1388 1315 1367
1162 3 2 4 4 1315 1346 1468 1367
1163 3 2 4 4 1208 1408 1335 1209
1164 3 2 4 4 1300 1384 1434 1469
1165 3 2 4 4 1463 1444 1522 1521
1166 3 2 4 4 1505 1379 1300 1469
1167 3 2 4 4 1516 1443 1543 1559
1168 3 2 4 4 1521 1541 1513 1463
1169 3 2 4 4 1538 1432 1517 1540
1170 3 2 4 4 1544 1522 1444 1367
1171 3 2 4 4 1312 1408 1208 1207
1172 3 2 4 4 1469 1434 1521 1522
1173 3 2 4 4 1517 1448 1558 1540
1174 3 2 4 4 1506 1491 1540 1558
1175 3 2 4 4 1522 1544 1505 1469
1176 3 2 4 4 1538 1547 1518 1432
1177 3 2 4 4 1513 1464 1343 1386
1178 3 2 4 4 1462 1467 1518 1547
1179 3 2 4 4 1540 1491 1546 1538
1180 3 2 4 4 1491 1506 1363 1429
1181 3 2 4 4 1468 1346 1394 1450
1182 3 2 4 4 1366 1313 1349 1459
1183 3 2 4 4 1349 1220 1221 1380
1184 3 2 4 4 1462 1547 1492 1435
1185 3 2 4 4 1406 1340 1348 1328
1186 3 2 4 4 1538 1546 1492 1547
1187 3 2 4 4 1394 1322 1404 1450
1188 3 2 4 4 1313 1219 1220 1349
1189 3 2 4 4 1525 1551 1451 1403
1190 3 2 4 4 1464 1513 1541 1539
1191 3 2 4 4 1491 1429 1504 1546
1192 3 2 4 4 1380 1221 1222 1298
1193 3 2 4 4 1407 1313 1366 1471
1194 3 2 4 4 1329 1217 1218 1407
1195 3 2 4 4 1312 1207 1206 1409
1196 3 2 4 4 1218 1219 1313 1407
1197 3 2 4 4 1339 1405 1403 1323
1198 3 2 4 4 1327 1405 1339 1341
1199 3 2 4 4 1453 1312 1409 1526
1200 3 2 4 4 1366 1500 1534 1471
1201 3 2 4 4 1329 1375 1201 1200
1202 3 2 4 4 1504 1429 1382 1436
1203 3 2 4 4 1317 1365 1441 1397
1204 3 2 4 4 1526 1557 1530 1453
1205 3 2 4 4 1375 1329 1407 1471
1206 3 2 4 4 1336 1473 1365 1317
1207 3 2 4 4 1408 1472 1411 1335
1208 3 2 4 4 1452 1435 1492 1528
1209 3 2 4 4 1541 1521 1434 1502
1210 3 2 4 4 1302 1393 1440 1438
1211 3 2 4 4 1438 1524 1381 1302
1212 3 2 4 4 1430 1459 1349 1380
1213 3 2 4 4 1397 1441 1502 1305
1214 3 2 4 4 1434 1384 1305 1502
1215 3 2 4 4 1406 1328 1390 1457
1216 3 2 4 4 1312 1453 1472 1408
1217 3 2 4 4 1440 1464 1539 1503
1218 3 2 4 4 1199 1198 1376 1325
1219 3 2 4 4 1381 1524 1460 1298
1220 3 2 4 4 1333 1190 1189 1410
1221 3 2 4 4 1502 1441 1539 1541
1222 3 2 4 4 1406 1404 1322 1340
1223 3 2 4 4 1209 1335 1358 1210
1224 3 2 4 4 1441 1365 1503 1539
1225 3 2 4 4 1453 1530 1553 1472
1226 3 2 4 4 1430 1490 1536 1459
1227 3 2 4 4 1324 1382 1175 1277
1228 3 2 4 4 1429 1363 1175 1382
1229 3 2 4 4 1464 1440 1393 1343
1230 3 2 4 4 1431 1364 1316 1516
1231 3 2 4 4 1499 1461 1379 1505
1232 3 2 4 4 1191 1190 1333 1423
1233 3 2 4 4 1206 1205 1350 1409
1234 3 2 4 4 1309 1385 1435 1452
1235 3 2 4 4 1545 1489 1468 1450
1236 3 2 4 4 1265 1264 1321 1337
1237 3 2 4 4 1468 1489 1544 1367
1238 3 2 4 4 1204 1334 1350 1205
1239 3 2 4 4 1505 1544 1489 1499
1240 3 2 4 4 1416 1353 1364 1478
1241 3 2 4 4 1189 1188 1360 1410
1242 3 2 4 4 1454 1526 1409 1350
1243 3 2 4 4 1492 1546 1504 1528
1244 3 2 4 4 1404 1406 1457 1493
1245 3 2 4 4 1405 1327 1396 1456
1246 3 2 4 4 1377 1299 1497 1439
1247 3 2 4 4 1500 1366 1459 1536
1248 3 2 4 4 1306 1213 1212 1331
1249 3 2 4 4 1304 1184 1183 1332
1250 3 2 4 4 1411 1472 1553 1533
1251 3 2 4 4 1461 1523 1415 1354
1252 3 2 4 4 1456 1396 1306 1370
1253 3 2 4 4 1525 1403 1405 1456
1254 3 2 4 4 1550 1555 1496 1535
1255 3 2 4 4 1266 1265 1337 1357
1256 3 2 4 4 1357 1424 1178 1266
1257 3 2 4 4 1202 1201 1375 1326
1258 3 2 4 4 1268 1267 1377 1336
1259 3 2 4 4 1277 1276 1418 1324
1260 3 2 4 4 1299 1377 1267 1179
1261 3 2 4 4 1375 1471 1534 1326
1262 3 2 4 4 1422 1351 1283 1284
1263 3 2 4 4 1430 1380 1298 1460
1264 3 2 4 4 1537 1431 1516 1559
1265 3 2 4 4 1503 1365 1473 1498
1266 3 2 4 4 1460 1550 1490 1430
1267 3 2 4 4 1494 1551 1525 1556
1268 3 2 4 4 1376 1309 1452 1455
1269 3 2 4 4 1559 1437 1520 1537
1270 3 2 4 4 1371 1470 1337 1321
1271 3 2 4 4 1549 1535 1497 1428
1272 3 2 4 4 1278 1279 1426 1331
1273 3 2 4 4 1482 1531 1554 1436
1274 3 2 4 4 1321 1264 1263 1330
1275 3 2 4 4 1499 1552 1523 1461
1276 3 2 4 4 1535 1496 1439 1497
1277 3 2 4 4 1276 1275 1352 1418
1278 3 2 4 4 1210 1358 1361 1211
1279 3 2 4 4 1442 1290 1289 1532
1280 3 2 4 4 1331 1426 1370 1306
1281 3 2 4 4 1360 1296 1378 1410
1282 3 2 4 4 1489 1545 1552 1499
1283 3 2 4 4 1545 1450 1404 1493
1284 3 2 4 4 1324 1418 1484 1482
1285 3 2 4 4 1532 1534 1500 1442
1286 3 2 4 4 1326 1288 1172 1202
1287 3 2 4 4 1168 1287 1332 1183
1288 3 2 4 4 1325 1297 1169 1199
1289 3 2 4 4 1177 1282 1330 1263
1290 3 2 4 4 1173 1278 1331 1212
1291 3 2 4 4 1550 1535 1549 1490
1292 3 2 4 4 1474 1291 1488 1501
1293 3 2 4 4 1278 1173 1211 1361
1294 3 2 4 4 1417 1484 1418 1352
1295 3 2 4 4 1299 1419 1428 1497
1296 3 2 4 4 1533 1475 1412 1411
1297 3 2 4 4 1297 1360 1188 1169
1298 3 2 4 4 1287 1168 1192 1359
1299 3 2 4 4 1460 1524 1555 1550
1300 3 2 4 4 1203 1172 1288 1362
1301 3 2 4 4 1372 1548 1493 1457
1302 3 2 4 4 1501 1373 1470 1557
1303 3 2 4 4 1287 1286 1427 1332
1304 3 2 4 4 1486 1421 1416 1477
1305 3 2 4 4 1481 1295 1296 1529
1306 3 2 4 4 1358 1335 1411 1412
1307 3 2 4 4 1284 1285 1485 1422
1308 3 2 4 4 1293 1352 1275 1182
1309 3 2 4 4 1294 1417 1352 1293
1310 3 2 4 4 1362 1288 1289 1413
1311 3 2 4 4 1457 1390 1304 1372
1312 3 2 4 4 1537 1551 1494 1431
1313 3 2 4 4 1532 1289 1288 1326
1314 3 2 4 4 1191 1423 1359 1192
1315 3 2 4 4 1479 1371 1321 1330
1316 3 2 4 4 1495 1560 1549 1428
1317 3 2 4 4 1286 1287 1359 1414
1318 3 2 4 4 1527 1478 1494 1556
1319 3 2 4 4 1498 1438 1440 1503
1320 3 2 4 4 1555 1524 1438 1498
1321 3 2 4 4 1274 1355 1283 1181
1322 3 2 4 4 1262 1356 1282 1177
1323 3 2 4 4 1297 1325 1529 1296
1324 3 2 4 4 1180 1379 1461 1354
1325 3 2 4 4 1181 1283 1351 1182
1326 3 2 4 4 1439 1473 1336 1377
1327 3 2 4 4 1176 1316 1364 1353
1328 3 2 4 4 1431 1494 1478 1364
1329 3 2 4 4 1415 1523 1476 1487
1330 3 2 4 4 1527 1370 1426 1477
1331 3 2 4 4 1455 1529 1325 1376
1332 3 2 4 4 1531 1482 1484 1481
1333 3 2 4 4 1282 1281 1425 1330
1334 3 2 4 4 1382 1324 1482 1436
1335 3 2 4 4 1362 1334 1204 1203
1336 3 2 4 4 1417 1294 1295 1481
1337 3 2 4 4 1332 1427 1372 1304
1338 3 2 4 4 1520 1451 1551 1537
1339 3 2 4 4 1355 1420 1284 1283
1340 3 2 4 4 1356 1421 1281 1282
1341 3 2 4 4 1483 1291 1562 1495
1342 3 2 4 4 1480 1295 1294 1374
1343 3 2 4 4 1180 1354 1355 1274
1344 3 2 4 4 1176 1353 1356 1262
1345 3 2 4 4 1479 1425 1533 1553
1346 3 2 4 4 1285 1284 1420 1487
1347 3 2 4 4 1528 1504 1436 1554
1348 3 2 4 4 1412 1279 1361 1358
1349 3 2 4 4 1280 1281 1421 1486
1350 3 2 4 4 1290 1474 1413 1289
1351 3 2 4 4 1286 1285 1487 1427
1352 3 2 4 4 1420 1355 1354 1415
1353 3 2 4 4 1488 1424 1357 1373
1354 3 2 4 4 1477 1416 1478 1527
1355 3 2 4 4 1458 1378 1480 1485
1356 3 2 4 4 1371 1479 1553 1530
1357 3 2 4 4 1374 1294 1293 1351
1358 3 2 4 4 1501 1557 1454 1474
1359 3 2 4 4 1421 1356 1353 1416
1360 3 2 4 4 1285 1286 1414 1485
1361 3 2 4 4 1410 1378 1458 1333
1362 3 2 4 4 1493 1548 1552 1545
1363 3 2 4 4 1442 1561 1562 1290
1364 3 2 4 4 1473 1439 1496 1498
1365 3 2 4 4 1483 1495 1428 1419
1366 3 2 4 4 1423 1333 1458 1414
1367 3 2 4 4 1531 1529 1455 1554
1368 3 2 4 4 1452 1528 1554 1455
1369 3 2 4 4 1561 1560 1495 1562
1370 3 2 4 4 1334 1413 1454 1350
1371 3 2 4 4 1412 1475 1280 1279
1372 3 2 4 4 1475 1533 1425 1281
1373 3 2 4 4 1480 1374 1422 1485
1374 3 2 4 4 1378 1296 1295 1480
1375 3 2 4 4 1292 1424 1488 1291
1376 3 2 4 4 1483 1419 1292 1291
1377 3 2 4 4 1279 1280 1486 1426
1378 3 2 4 4 1530 1557 1470 1371
1379 3 2 4 4 1476 1372 1427 1487
1380 3 2 4 4 1536 1560 1561 1500
1381 3 2 4 4 1523 1552 1548 1476
1382 3 2 4 4 1370 1527 1556 1456
1383 3 2 4 4 1179 1178 1292 1419
1384 3 2 4 4 1560 1536 1490 1549
1385 3 2 4 4 1337 1470 1373 1357
$EndElements
