$MeshFormat
2.2 0 8
$EndMeshFormat
$Nodes
231
1 0 0 0
2 100 0 0
3 100 200 0
4 0 200 0
5 35 35 0
6 35 150 0
7 75 100 0
8 10 0 0
9 20 0 0
10 30 0 0
11 40 0 0
12 50 0 0
13 60 0 0
14 70 0 0
15 80 0 0
16 90 0 0
17 100 10 0
18 100 20 0
19 100 30 0
20 100 40 0
21 100 50 0
22 100 60 0
23 100 70 0
24 100 80 0
25 100 90 0
26 100 100 0
27 100 110 0
28 100 120 0
29 100 130 0
30 100 140 0
31 100 150 0
32 100 160 0
33 100 170 0
34 100 180 0
35 100 190 0
36 90 200 0
37 80 200 0
38 70 200 0
39 60 200 0
40 50 200 0
41 40 200 0
42 30 200 0
43 20 200 0
44 10 200 0
45 0 190 0
46 0 180 0
47 0 170 0
48 0 160 0
49 0 150 0
50 0 140 0
51 0 130 0
52 0 120 0
53 0 110 0
54 0 100 0
55 0 90 0
56 0 80 0
57 0 70 0
58 0 60 0
59 0 50 0
60 0 40 0
61 0 30 0
62 0 20 0
63 0 10 0
64 41.6666666666667 141.666666666667 0
65 48.3333333333333 133.333333333333 0
66 55 125 0
67 61.6666666666667 116.666666666667 0
68 68.3333333333333 108.333333333333 0
69 10.1046885839019 89.9909167041923 0
70 89.9839437425877 29.9752202383114 0
71 93.3811955289301 160.368177016825 0
72 30.1378413151674 190.052912021524 0
73 49.9943240795816 189.857449481751 0
74 9.69821796019824 120.215962201314 0
75 70.0202629824578 189.902092653254 0
76 89.9185295175072 59.8928823441789 0
77 89.5786995231019 120.973767670373 0
78 9.99630440812748 29.9536256119133 0
79 10.0574510931659 69.9835628827859 0
80 40.0217863290939 9.76668811271219 0
81 10.4187269630066 169.794675137135 0
82 10.7109266628837 149.813429301109 0
83 70.0242829158916 10.0008819699361 0
84 20.0130221975305 9.88834102739007 0
85 89.621700577176 79.9060692857754 0
86 89.0962240319988 89.9304478682814 0
87 88.7275666447986 100.18802340151 0
88 89.9535177579881 190.013519412578 0
89 89.9997068389685 9.99904640225596 0
90 10.1082365187385 189.974974599082 0
91 10.0437774325139 49.9980221955438 0
92 10.0019509537896 19.9420113947998 0
93 88.8901376728407 168.478895224898 0
94 60.0499803653743 9.95995354271898 0
95 89.9730667299321 39.9441063917341 0
96 10.0050578316218 9.9605687319078 0
97 87.232849468016 143.566825517192 0
98 10.0312377953262 110.345258090598 0
99 10.5564044766126 139.559446212321 0
100 16.8748654595472 120.532806239414 0
101 79.9870113672294 29.9551613591559 0
102 80.4521391337119 172.565457862153 0
103 19.8687140858411 29.7628649841764 0
104 23.8430558889157 150.387589343429 0
105 30.0079361045278 9.78367491917659 0
106 80.0066045261034 10.0006709693641 0
107 50.0476391582568 9.85569439677271 0
108 89.9964726632663 19.9918237140611 0
109 19.9449907261454 19.7556387936188 0
110 10.0057380402911 39.9696702878241 0
111 70.0655490478742 20.0033257606194 0
112 10.0635251104476 59.9960898477933 0
113 79.9806092210715 189.99654131098 0
114 89.9601241668769 49.9091175368685 0
115 89.8223925776322 179.985164456336 0
116 20.1822015449671 190.011288337904 0
117 10.3675821134153 179.862310423885 0
118 10.0701735464751 79.9699728558697 0
119 60.0149666407231 189.803270263189 0
120 10.2208071276629 100.173467271496 0
121 40.0295845109393 190.000871277884 0
122 89.803380845605 69.9013403256049 0
123 90.9276800964457 153.984784931364 0
124 9.90347375414215 129.804982728541 0
125 10.464541963115 159.89748745148 0
126 89.3024340404634 131.411314814482 0
127 89.1072936356388 110.720478244041 0
128 79.1941018284026 79.9275972528634 0
129 78.4425214744704 89.5466419810963 0
130 20.1549184741987 69.9846985071469 0
131 79.8097621312918 59.7854928604118 0
132 20.1793488261604 89.8991165067795 0
133 79.414138874006 141.048197369776 0
134 49.6326757974749 179.409149197432 0
135 20.9149496813148 136.838778971384 0
136 79.3477078843972 123.22958160818 0
137 50.1327973304051 19.743540515959 0
138 29.8169552820547 19.4801159288943 0
139 19.900875046719 39.9028725927196 0
140 60.1837900537943 19.9767725672493 0
141 80.0105995345498 19.9898873044184 0
142 79.9604916674129 39.8891094542113 0
143 82.4816456562031 160.199927801758 0
144 20.0658730025537 50.0243021111234 0
145 22.3981157506435 168.846393774106 0
146 20.6325120659672 180.088694252973 0
147 70.4559059051108 179.684840307724 0
148 80.1779240454084 180.093859992992 0
149 21.4654838681325 111.794092715169 0
150 30.2173896052285 180.570811136009 0
151 79.4619513348315 69.8974874649009 0
152 18.5033001275569 160.034242446951 0
153 19.0995177595325 127.394521542968 0
154 69.7466522783827 59.7360812930061 0
155 30.1758625454217 106.87953714344 0
156 27.7723712980012 120.55482893094 0
157 50.9894290797742 30.1689837004357 0
158 31.9502411851136 139.711028831156 0
159 39.8572483301438 19.4505966983103 0
160 79.9128423169985 49.8317438708331 0
161 70.0837636054237 29.9869956044835 0
162 67.3911847337878 80.8669221290244 0
163 20.1570036214765 60.0269743759887 0
164 20.3870825086914 99.9576321809559 0
165 77.5600901545049 153.22337725604 0
166 20.1418879751999 79.951645271004 0
167 60.1840915106151 179.194468886041 0
168 39.5547666482773 180.210800859534 0
169 79.4170977032274 133.696456212217 0
170 73.1047361604632 167.908289312729 0
171 78.8029030906986 112.673587014612 0
172 30.284879266141 173.677618414591 0
173 29.2465151256596 29.1056189068708 0
174 29.4124361710205 39.9387354968903 0
175 30.2510115747723 60.1119781732967 0
176 30.1519533080984 80.3463634318835 0
177 48.6838800682028 150.033262472226 0
178 70.0097556142953 138.314923795678 0
179 70.048648466715 39.9333586759256 0
180 66.678608936297 95.1856059058659 0
181 48.4355651717264 166.562280754943 0
182 41.0488955085829 42.0139131258309 0
183 39.2425549854867 109.89300820921 0
184 69.2416464171414 69.6655379860766 0
185 60.3316014189776 30.0986759494627 0
186 30.1586411511123 50.2673863957762 0
187 31.7464062283807 162.136796577474 0
188 30.6381628622754 130.405160304562 0
189 71.2377040382626 159.006325185111 0
190 30.0668564868467 99.3696614149855 0
191 37.0065670921121 170.960702886505 0
192 69.9515585657084 49.8550366736098 0
193 61.0304864829992 168.113319822457 0
194 70.8410124855084 88.9631630167036 0
195 71.8452951817301 114.832186639515 0
196 38.5744627840693 28.5047115281749 0
197 59.8844962581181 59.8206013265007 0
198 40.0888502551012 98.3898674813514 0
199 50.7303833237101 40.9736806193172 0
200 59.5043070613704 76.4810359712634 0
201 63.4760550464197 155.506657762789 0
202 41.9978640914338 122.506324459474 0
203 60.3013095595783 40.1839988888968 0
204 53.8408793527642 111.276495417966 0
205 30.3154126889202 70.2626965318933 0
206 73.1223125757217 146.518896020155 0
207 68.2828266221506 125.546404109511 0
208 29.8163797386288 90.0072895937389 0
209 51.9673028213789 139.035172469115 0
210 57.5453003931592 89.8916861206818 0
211 53.5850012107154 157.332516667936 0
212 40.3615911192688 156.606081312334 0
213 41.272246434614 132.041811445471 0
214 61.0987164485554 103.203512771957 0
215 40.3386111105296 50.539812872973 0
216 42.7690562770283 35.7908440476145 0
217 40.2554185743134 60.1738851246652 0
218 40.543679585633 70.3897738362957 0
219 46.8700054996416 93.8070237055211 0
220 59.7144996344552 69.3103110808353 0
221 50.3291373099945 50.4243804654305 0
222 60.121866333883 50.0805700175207 0
223 41.4392468512666 83.0013002396944 0
224 36.7459350820041 90.6196362468164 0
225 60.5967764330483 144.198958363023 0
226 55.9873725178416 99.2065704635786 0
227 58.4971103201171 135.837218942132 0
228 49.3996942783299 103.500643541672 0
229 50.1521233026318 60.0530672613161 0
230 50.4398281887209 69.7997821981164 0
231 52.5761987127715 79.3744642679686 0
$EndNodes
$Elements
200
1 3 2 1 1 227 66 67 207
2 3 2 1 1 66 65 213 202
3 3 2 1 1 199 221 215 182
4 3 2 1 1 159 137 157 196
5 3 2 1 1 228 219 210 226
6 3 2 1 1 195 68 7 171
7 3 2 1 1 207 67 68 195
8 3 2 1 1 66 227 209 65
9 3 2 1 1 224 198 190 208
10 3 2 1 1 218 223 176 205
11 3 2 1 1 164 132 208 190
12 3 2 1 1 223 224 208 176
13 3 2 1 1 200 220 184 162
14 3 2 1 1 145 152 104 187
15 3 2 1 1 179 142 160 192
16 3 2 1 1 228 204 202 183
17 3 2 1 1 219 228 183 198
18 3 2 1 1 205 176 166 130
19 3 2 1 1 202 213 158 188
20 3 2 1 1 217 218 205 175
21 3 2 1 1 215 217 175 186
22 3 2 1 1 113 148 115 88
23 3 2 1 1 186 175 163 144
24 3 2 1 1 220 197 154 184
25 3 2 1 1 168 191 181 134
26 3 2 1 1 185 203 199 157
27 3 2 1 1 148 102 93 115
28 3 2 1 1 176 208 132 166
29 3 2 1 1 173 174 139 103
30 3 2 1 1 175 205 130 163
31 3 2 1 1 197 222 192 154
32 3 2 1 1 101 70 95 142
33 3 2 1 1 231 223 218 230
34 3 2 1 1 126 169 136 77
35 3 2 1 1 131 154 192 160
36 3 2 1 1 145 172 150 146
37 3 2 1 1 124 153 135 99
38 3 2 1 1 120 164 149 98
39 3 2 1 1 159 138 105 80
40 3 2 1 1 92 109 103 78
41 3 2 1 1 62 63 96 92
42 3 2 1 1 9 10 105 84
43 3 2 1 1 94 13 14 83
44 3 2 1 1 92 96 84 109
45 3 2 1 1 96 8 9 84
46 3 2 1 1 1 8 96 63
47 3 2 1 1 10 11 80 105
48 3 2 1 1 11 12 107 80
49 3 2 1 1 13 94 107 12
50 3 2 1 1 14 15 106 83
51 3 2 1 1 19 70 108 18
52 3 2 1 1 3 36 88 35
53 3 2 1 1 113 88 36 37
54 3 2 1 1 105 138 109 84
55 3 2 1 1 106 15 16 89
56 3 2 1 1 2 17 89 16
57 3 2 1 1 17 18 108 89
58 3 2 1 1 4 45 90 44
59 3 2 1 1 117 90 45 46
60 3 2 1 1 103 109 138 173
61 3 2 1 1 92 78 61 62
62 3 2 1 1 140 137 107 94
63 3 2 1 1 159 80 107 137
64 3 2 1 1 79 112 163 130
65 3 2 1 1 139 110 78 103
66 3 2 1 1 60 61 78 110
67 3 2 1 1 155 190 198 183
68 3 2 1 1 173 138 159 196
69 3 2 1 1 101 141 108 70
70 3 2 1 1 106 89 108 141
71 3 2 1 1 140 94 83 111
72 3 2 1 1 144 91 110 139
73 3 2 1 1 185 157 137 140
74 3 2 1 1 161 179 203 185
75 3 2 1 1 59 60 110 91
76 3 2 1 1 151 122 85 128
77 3 2 1 1 83 106 141 111
78 3 2 1 1 206 133 97 165
79 3 2 1 1 160 142 95 114
80 3 2 1 1 139 174 186 144
81 3 2 1 1 59 91 112 58
82 3 2 1 1 19 20 95 70
83 3 2 1 1 114 95 20 21
84 3 2 1 1 185 140 111 161
85 3 2 1 1 182 216 157 199
86 3 2 1 1 184 151 128 162
87 3 2 1 1 215 186 174 182
88 3 2 1 1 215 221 229 217
89 3 2 1 1 141 101 161 111
90 3 2 1 1 91 144 163 112
91 3 2 1 1 184 154 131 151
92 3 2 1 1 222 197 229 221
93 3 2 1 1 34 35 88 115
94 3 2 1 1 57 58 112 79
95 3 2 1 1 190 155 149 164
96 3 2 1 1 57 79 118 56
97 3 2 1 1 113 37 38 75
98 3 2 1 1 119 75 38 39
99 3 2 1 1 114 21 22 76
100 3 2 1 1 122 76 22 23
101 3 2 1 1 160 114 76 131
102 3 2 1 1 79 130 166 118
103 3 2 1 1 222 203 179 192
104 3 2 1 1 93 143 123 71
105 3 2 1 1 44 90 116 43
106 3 2 1 1 72 150 168 121
107 3 2 1 1 149 155 183 156
108 3 2 1 1 97 123 143 165
109 3 2 1 1 225 227 207 178
110 3 2 1 1 148 147 170 102
111 3 2 1 1 164 120 69 132
112 3 2 1 1 177 64 65 209
113 3 2 1 1 135 153 156 188
114 3 2 1 1 120 54 55 69
115 3 2 1 1 149 156 153 100
116 3 2 1 1 230 218 217 229
117 3 2 1 1 69 118 166 132
118 3 2 1 1 183 202 188 156
119 3 2 1 1 179 161 101 142
120 3 2 1 1 178 206 201 225
121 3 2 1 1 55 56 118 69
122 3 2 1 1 93 102 170 143
123 3 2 1 1 123 31 32 71
124 3 2 1 1 33 34 115 93
125 3 2 1 1 113 75 147 148
126 3 2 1 1 170 189 165 143
127 3 2 1 1 121 41 42 72
128 3 2 1 1 146 116 90 117
129 3 2 1 1 117 46 47 81
130 3 2 1 1 125 81 47 48
131 3 2 1 1 136 169 178 207
132 3 2 1 1 120 98 53 54
133 3 2 1 1 223 231 210 219
134 3 2 1 1 193 170 147 167
135 3 2 1 1 121 73 40 41
136 3 2 1 1 119 39 40 73
137 3 2 1 1 167 147 75 119
138 3 2 1 1 124 51 52 74
139 3 2 1 1 167 119 73 134
140 3 2 1 1 126 29 30 97
141 3 2 1 1 123 97 30 31
142 3 2 1 1 177 225 201 211
143 3 2 1 1 145 187 191 172
144 3 2 1 1 151 131 76 122
145 3 2 1 1 165 189 201 206
146 3 2 1 1 150 72 116 146
147 3 2 1 1 117 81 145 146
148 3 2 1 1 201 189 170 193
149 3 2 1 1 169 126 97 133
150 3 2 1 1 124 99 50 51
151 3 2 1 1 127 27 28 77
152 3 2 1 1 126 77 28 29
153 3 2 1 1 168 134 73 121
154 3 2 1 1 153 124 74 100
155 3 2 1 1 42 43 116 72
156 3 2 1 1 32 33 93 71
157 3 2 1 1 125 48 49 82
158 3 2 1 1 152 125 82 104
159 3 2 1 1 191 168 150 172
160 3 2 1 1 122 23 24 85
161 3 2 1 1 135 104 82 99
162 3 2 1 1 104 135 188 158
163 3 2 1 1 86 129 128 85
164 3 2 1 1 206 178 169 133
165 3 2 1 1 152 145 81 125
166 3 2 1 1 194 162 128 129
167 3 2 1 1 177 211 181 212
168 3 2 1 1 171 127 77 136
169 3 2 1 1 98 149 100 74
170 3 2 1 1 53 98 74 52
171 3 2 1 1 127 87 26 27
172 3 2 1 1 134 181 193 167
173 3 2 1 1 181 211 201 193
174 3 2 1 1 221 199 203 222
175 3 2 1 1 157 216 5 196
176 3 2 1 1 50 99 82 49
177 3 2 1 1 158 213 65 64
178 3 2 1 1 207 195 171 136
179 3 2 1 1 25 86 85 24
180 3 2 1 1 25 26 87 86
181 3 2 1 1 129 7 180 194
182 3 2 1 1 198 224 223 219
183 3 2 1 1 200 231 230 220
184 3 2 1 1 214 180 7 68
185 3 2 1 1 212 6 64 177
186 3 2 1 1 202 204 67 66
187 3 2 1 1 162 194 180 210
188 3 2 1 1 187 212 181 191
189 3 2 1 1 197 220 230 229
190 3 2 1 1 210 180 214 226
191 3 2 1 1 204 214 68 67
192 3 2 1 1 177 209 227 225
193 3 2 1 1 174 173 196 5
194 3 2 1 1 216 182 174 5
195 3 2 1 1 162 210 231 200
196 3 2 1 1 204 228 226 214
197 3 2 1 1 64 6 104 158
198 3 2 1 1 212 187 104 6
199 3 2 1 1 86 87 7 129
200 3 2 1 1 127 171 7 87
$EndElements
