$MeshFormat
2.2 0 8
$EndMeshFormat
$Nodes
686
1 -20 -10 0
2 0 -10 0
3 -10 10 0
4 -20 10 0
5 -19 -10 0
6 -18 -10 0
7 -17 -10 0
8 -16 -10 0
9 -15 -10 0
10 -14 -10 0
11 -13 -10 0
12 -12 -10 0
13 -11 -10 0
14 -10 -10 0
15 -9 -10 0
16 -8 -10 0
17 -7 -10 0
18 -6 -10 0
19 -5 -10 0
20 -4 -10 0
21 -3 -10 0
22 -2 -10 0
23 -1 -10 0
24 -0.454545454545456 -9.09090909090909 0
25 -0.909090909090911 -8.18181818181818 0
26 -1.36363636363637 -7.27272727272727 0
27 -1.81818181818182 -6.36363636363636 0
28 -2.27272727272728 -5.45454545454545 0
29 -2.72727272727273 -4.54545454545454 0
30 -3.18181818181819 -3.63636363636362 0
31 -3.63636363636364 -2.72727272727271 0
32 -4.0909090909091 -1.8181818181818 0
33 -4.54545454545455 -0.909090909090894 0
34 -5.00000000000001 1.59872115546023E-14 0
35 -5.45454545454546 0.909090909090922 0
36 -5.90909090909091 1.81818181818183 0
37 -6.36363636363637 2.72727272727274 0
38 -6.81818181818182 3.63636363636365 0
39 -7.27272727272728 4.54545454545455 0
40 -7.72727272727273 5.45454545454546 0
41 -8.18181818181818 6.36363636363637 0
42 -8.63636363636364 7.27272727272727 0
43 -9.09090909090909 8.18181818181818 0
44 -9.54545454545454 9.09090909090909 0
45 -11 10 0
46 -12 10 0
47 -13 10 0
48 -14 10 0
49 -15 10 0
50 -16 10 0
51 -17 10 0
52 -18 10 0
53 -19 10 0
54 -20 9 0
55 -20 8 0
56 -20 7 0
57 -20 6 0
58 -20 5 0
59 -20 4 0
60 -20 3 0
61 -20 2 0
62 -20 1 0
63 -20 0 0
64 -20 -1 0
65 -20 -2 0
66 -20 -3 0
67 -20 -4 0
68 -20 -5 0
69 -20 -6 0
70 -20 -7 0
71 -20 -8 0
72 -20 -9 0
73 -6.80778846961265 1.36154172271421 0
74 -18.9990906697816 -1.99964626232034 0
75 -8.62867277932496 5.00164975357637 0
76 -18.9988082119986 3.00115067761978 0
77 -11.0003755369107 -8.99772450751439 0
78 -4.54998022594155 -3.2290888513114 0
79 -14.0004362113841 -8.99927859393423 0
80 -15.0007770323345 8.99702554715426 0
81 -6.95400259339735 -8.94072017685142 0
82 -18.9996399339762 -4.99984776327996 0
83 -3.1687933727361 -5.81633010100988 0
84 -19.000105283386 7.00019775388838 0
85 -16.000157006178 -8.99970867773991 0
86 -4.05674965439741 -9.02116173285913 0
87 -18.9999140975988 -6.99988437102188 0
88 -2.35680330869444 -7.67154726075677 0
89 -5.90589369918329 -0.45565164081833 0
90 -18.0002867211054 8.99993481595643 0
91 -18.0000114399678 -8.99991735456918 0
92 -12.995097763928 8.96864224090576 0
93 -10.3296729647207 8.91252959793681 0
94 -18.9987360049628 1.00108180697183 0
95 -1.86679141333682 -8.83848102504521 0
96 -10.0000004472779 7.72727212519456 0
97 -9.51912102016443 6.79739812055365 0
98 -4.06430166780389 -4.14891637819003 0
99 -5.45443246631285 -1.3668353727559 0
100 -8.17178318961508 4.09209226853474 0
101 -7.71413110238812 3.18175674865295 0
102 -17.000620217147 8.99957438773436 0
103 -19.0001013838511 9.00000815966839 0
104 -18.9998548989184 6.00041477405603 0
105 -18.9999994882747 -8.99996518050243 0
106 -12.0005170718294 -8.99850309026582 0
107 -18.9992444686191 -2.99980087351378 0
108 -18.9987912522284 0.000893458692281746 0
109 -18.9994532748626 5.0007009961535 0
110 -8.9932097785474 -8.98127041914982 0
111 -5.01780612727747 -9.06282469885849 0
112 -11.8358900114493 8.84431099770671 0
113 -1.06275425882941 -9.33804814807279 0
114 -17.9969583767112 1.00300590905844 0
115 -9.0681872738837 3.63818495955425 0
116 -11.003463740833 -7.99197571070113 0
117 -17.9977784271855 -1.99903350326597 0
118 -6.81098668913074 -0.911484573754564 0
119 -5.49877657431649 -3.73216528284755 0
120 -17.9999744596758 6.00051545973236 0
121 -10.3917534669201 6.33970457282686 0
122 -5.02997020341806 -8.37459565871314 0
123 -18.0005910148465 7.99988650185694 0
124 -13.0121541685635 7.98300950466276 0
125 -2.77518476540674 -6.70590559569501 0
126 -3.57988959753789 -4.98247046369881 0
127 -9.07701635705102 5.90577824025054 0
128 -5.00533601242179 -2.28988768221073 0
129 -6.35670662534295 0.452652267158094 0
130 -7.25900864568808 2.27115930570956 0
131 -18.9999745860128 -7.9999234399593 0
132 -17.0000607810563 -8.99982659428655 0
133 -16.0008902925493 8.99863745745993 0
134 -19.0001877467891 8.00004195330273 0
135 -18.9997937061918 -5.99984946027475 0
136 -15.0003161390629 -8.99950146059567 0
137 -18.9994254150843 -3.99984565052067 0
138 -13.0005398436038 -8.99891144160325 0
139 -18.9990524038972 4.00099708224084 0
140 -18.9988808125749 -0.999349228083131 0
141 -18.9986663475678 2.00125895746637 0
142 -9.99938367292289 -8.9929680723205 0
143 -7.96738485033842 -8.94612224267333 0
144 -14.000697355866 8.99126807312223 0
145 -5.98041277250413 -9.00709921570963 0
146 -3.08024631712661 -8.93765299026973 0
147 -10.9148197017768 8.12678937089058 0
148 -11.0302258945663 9.29164279020829 0
149 -14.0012400756183 -7.99781104112889 0
150 -6.74477453338631 -7.67815979209971 0
151 -17.9992182935833 -4.9995768901296 0
152 -16.0003841549776 -7.99920852755484 0
153 -9.52685609828303 4.54733686438416 0
154 -5.92757688926458 -2.75411842966559 0
155 -8.15115547930951 1.81652767292682 0
156 -7.25721080267194 -0.0033809578690005 0
157 -15.0037576729393 7.99440466536146 0
158 -17.998174162762 -2.99944188237471 0
159 -17.9973781009001 -0.998222929412086 0
160 -17.9972088816401 3.00297299762447 0
161 -3.76611330133473 -6.96593639323482 0
162 -9.96871179221007 5.4502653284412 0
163 -6.36569127579118 -1.82489823880729 0
164 -8.60665842819109 2.72826727175485 0
165 -4.19270755858465 -5.33545820434719 0
166 -4.99601773908875 -4.91506525866893 0
167 -10.6739602276517 7.00851610123804 0
168 -17.9999835725828 -7.99980247829326 0
169 -17.0013462729081 7.99896514214835 0
170 -17.9998731784407 -6.99967996561092 0
171 -18.0005706643361 6.99996911120068 0
172 -12.0025266694414 -7.99487317321839 0
173 -17.9989740413948 5.0012936998147 0
174 -8.99791562881282 -7.94815244545142 0
175 -17.9970762131281 0.00260027118971839 0
176 -17.9968538731346 2.0033674573264 0
177 -10.0044880885408 -7.97839596603213 0
178 -14.0072558672722 7.99150986988764 0
179 -5.7290191332814 -8.10119446154822 0
180 -3.35619071474 -7.91668524850803 0
181 -4.07625802130346 -8.00110024754883 0
182 -12.2412799805911 7.98399241775868 0
183 -16.9958601348752 -1.99703140196853 0
184 -9.50236922333397 2.27836936730678 0
185 -16.9948354564579 3.0078914282543 0
186 -8.15875967602576 -0.455645731249494 0
187 -11.0143303400703 -6.97726131704751 0
188 -10.863667777038 4.995093596975 0
189 -6.8547212031793 -3.19434761980498 0
190 -15.0089749365987 6.99477417674793 0
191 -13.0313127742769 7.02369273273822 0
192 -5.05738672676904 -6.12747216088471 0
193 -17.0016345863322 6.998670052292 0
194 -11.751188168438 7.04270272344435 0
195 -7.04239566014853 -6.53638681687963 0
196 -4.98704621581026 -7.24838720935186 0
197 -10.4282303873367 4.08968514149703 0
198 -7.7031990750279 0.906451216520992 0
199 -4.06537122991886 -6.03668245594468 0
200 -6.21064383852425 -5.21244194518035 0
201 -7.27767573655752 -2.27193495557796 0
202 -17.0001087590576 -7.99956330459321 0
203 -17.9996254904995 -5.99957966711623 0
204 -17.9979251075013 4.00240104884087 0
205 -15.000827771389 -7.99851358536711 0
206 -16.9930509231938 1.00907158618838 0
207 -16.0025460415543 7.99714278812351 0
208 -17.9986798597594 -3.99954945295933 0
209 -17.0009301034377 5.99938570956951 0
210 -7.95884821756854 -7.85504760742858 0
211 -13.0018565566645 -7.99644436424145 0
212 -16.993305531114 0.00780622908503026 0
213 -9.03290860591191 -6.90486799427909 0
214 -15.978030325477 1.02878095825688 0
215 -11.7896408289796 4.53465811302365 0
216 -14.0034144675646 -6.99333196080297 0
217 -16.9991300860827 -4.99849829304086 0
218 -7.7714193117449 -3.59508201209243 0
219 -16.9970547357115 -2.99793599863302 0
220 -12.0093080641841 -6.98491579335997 0
221 -16.999207025082 5.00159268796816 0
222 -8.60147528540519 0.454811535268829 0
223 -12.3632881965153 6.13255376574202 0
224 -9.96847126016195 3.18511136776361 0
225 -6.48373825236171 -4.16988340406115 0
226 -7.71703118357984 -1.36209874001014 0
227 -16.0006297396339 -6.9981578159472 0
228 -17.0000616343467 -6.99915921949707 0
229 -16.9943292545508 -0.994358969345087 0
230 -16.9927224224015 2.01066217760031 0
231 -14.0201464351309 7.00483450663304 0
232 -10.0253928799575 -6.9533743212105 0
233 -5.9589858674514 -7.01721309567006 0
234 -16.9969833396713 4.00512685806179 0
235 -16.004114863227 6.9962798404371 0
236 -8.03170835928396 -6.77103667232309 0
237 -6.04976622353332 -6.26239834943426 0
238 -9.04879148680631 1.36738808201344 0
239 -11.259918713011 5.8999054945684 0
240 -9.06755298103915 -0.901132914883847 0
241 -15.9942347521295 -1.99164961743079 0
242 -11.0386961946252 -5.95416016705983 0
243 -15.9918004022375 3.02691765815409 0
244 -15.0113009955659 6.00162892353984 0
245 -9.10614624237397 -5.87801114456294 0
246 -7.44318729147127 -4.52199684704353 0
247 -10.4117045971182 1.82442422411271 0
248 -7.21199170402102 -5.50555084649447 0
249 -8.18736871507393 -2.69860902141169 0
250 -11.3485935613848 3.61880136915665 0
251 -16.9997912811564 -5.9987103414486 0
252 -15.0018644907389 -6.99582378347133 0
253 -15.9797336492016 0.0212890171817659 0
254 -16.9982613627603 -3.99808159587855 0
255 -13.0063128572455 -6.98905261642945 0
256 -15.9822722076402 2.0348965335252 0
257 -16.0041827038448 5.99896271395364 0
258 -16.002008742069 5.00507296070932 0
259 -14.0272189692354 6.02897291977488 0
260 -13.0705725193581 6.09496768154791 0
261 -9.96199235134348 0.909773784008826 0
262 -14.9229969025023 1.07512459510144 0
263 -14.0097964289343 -5.98368766522422 0
264 -11.3460685554082 1.35763812645031 0
265 -12.9007404936323 4.00607894383319 0
266 -12.0280291201612 -5.9668663268692 0
267 -16.0009203519492 -5.99625674151174 0
268 -8.63757109881666 -3.9545896887979 0
269 -8.62793307170741 -1.79997718524327 0
270 -15.9982494093284 4.01695464867863 0
271 -16.00109828735 -4.99421663633095 0
272 -15.9982322977526 -2.99242692478818 0
273 -15.9871934144164 -0.986441365226755 0
274 -8.16641712425898 -5.73806858989171 0
275 -14.9973568810726 3.0805553135049 0
276 -9.51453166808408 -0.00023733998929365 0
277 -15.0092229547545 5.01905041205906 0
278 -10.0663200696787 -5.93019349914163 0
279 -10.8763415040469 2.72212006602097 0
280 -14.0148352733179 5.05142060459955 0
281 -12.125763198561 5.46142406941875 0
282 -10.4413750704437 -0.489697911189501 0
283 -14.9970776345935 -1.98317879369722 0
284 -11.0766233038785 -4.9295405891005 0
285 -11.7808179158854 2.25155382364766 0
286 -12.2433192517686 3.10821715816979 0
287 -9.56004076310433 -2.22716380705503 0
288 -9.09467178883931 -3.12704513684986 0
289 -13.0196405096518 -5.97527365680731 0
290 -14.9430365094029 0.0383436439992899 0
291 -14.9554266898755 2.10196355425305 0
292 -16.0007842990646 -3.9923968901611 0
293 -15.0044631421277 -5.99060114147109 0
294 -10.9206808997859 0.414661170766106 0
295 -15.0079151828623 4.04859301659285 0
296 -8.34464339383814 -4.79245894308061 0
297 -9.20208812740746 -4.92106024008678 0
298 -13.0360023772198 5.16213593889863 0
299 -12.2759104959949 0.928802765132834 0
300 -14.0206828293319 -4.97420443692926 0
301 -12.0646269639641 -4.95665375943547 0
302 -15.0059827530815 -2.98206748436582 0
303 -13.6803330237248 1.14654893288291 0
304 -14.0514927303955 3.17044797983323 0
305 -10.0268916509738 -3.78578302850903 0
306 -9.97807068724939 -1.34123953321987 0
307 -14.9798581577721 -0.979884934818972 0
308 -15.008199519927 -4.98551891711549 0
309 -12.0138726142041 -0.135531265014743 0
310 -10.1055758997079 -4.9261915441448 0
311 -14.028031445403 4.08394948978997 0
312 -12.6774061077349 1.7746939146372 0
313 -9.25035047761121 -4.24011385282202 0
314 -13.3651000671759 3.22785949767983 0
315 -13.9915834640563 -1.96324640470025 0
316 -11.167642638166 -3.94509511809342 0
317 -10.7004154019343 -2.58873054199378 0
318 -13.0414992356518 -4.96730454951671 0
319 -13.9332738402367 0.0126074869418447 0
320 -12.9516794553852 0.636833396221228 0
321 -13.9591328055742 2.26788907867607 0
322 -15.0099466684185 -3.98217023771072 0
323 -11.4224581210801 -1.18010812336414 0
324 -13.0756563450124 2.61267907184914 0
325 -11.3112156425723 -3.24163754308596 0
326 -14.0080852673919 -2.97015257019504 0
327 -12.4489603253649 -0.855366077539551 0
328 -13.0492319268766 -3.98061483275815 0
329 -13.9842316301518 -0.966901043776654 0
330 -10.6676993846785 -1.67917968756436 0
331 -14.0231812936441 -3.97666414794256 0
332 -12.0958677209879 -4.0019936608514 0
333 -12.2655542019735 -1.2349227368617 0
334 -12.9970579372169 -3.00087607432249 0
335 -12.8239735915956 -1.85648166416357 0
336 -11.7754973620427 -2.21396392591065 0
337 -12.0163930963477 -3.10361240613505 0
338 -13.0260601112173 -0.0446473522805966 0
339 -13.0663686398088 -0.900473608767424 0
340 0 -10 0
341 20 -10 0
342 20 10 0
343 10 10 0
344 1 -10 0
345 2 -10 0
346 3 -10 0
347 4 -10 0
348 5 -10 0
349 6 -10 0
350 7 -10 0
351 8 -10 0
352 9 -10 0
353 10 -10 0
354 11 -10 0
355 12 -10 0
356 13 -10 0
357 14 -10 0
358 15 -10 0
359 16 -10 0
360 17 -10 0
361 18 -10 0
362 19 -10 0
363 20 -9 0
364 20 -8 0
365 20 -7 0
366 20 -6 0
367 20 -5 0
368 20 -4 0
369 20 -3 0
370 20 -2 0
371 20 -1 0
372 20 0 0
373 20 1 0
374 20 2 0
375 20 3 0
376 20 4 0
377 20 5 0
378 20 6 0
379 20 7 0
380 20 8 0
381 20 9 0
382 19 10 0
383 18 10 0
384 17 10 0
385 16 10 0
386 15 10 0
387 14 10 0
388 13 10 0
389 12 10 0
390 11 10 0
391 9.54545454545454 9.09090909090909 0
392 9.09090909090909 8.18181818181818 0
393 8.63636363636363 7.27272727272727 0
394 8.18181818181818 6.36363636363636 0
395 7.72727272727272 5.45454545454545 0
396 7.27272727272727 4.54545454545454 0
397 6.81818181818181 3.63636363636362 0
398 6.36363636363636 2.72727272727271 0
399 5.9090909090909 1.8181818181818 0
400 5.45454545454545 0.909090909090894 0
401 4.99999999999999 -1.59872115546023E-14 0
402 4.54545454545454 -0.909090909090922 0
403 4.09090909090909 -1.81818181818183 0
404 3.63636363636363 -2.72727272727274 0
405 3.18181818181818 -3.63636363636365 0
406 2.72727272727272 -4.54545454545455 0
407 2.27272727272727 -5.45454545454546 0
408 1.81818181818182 -6.36363636363637 0
409 1.36363636363636 -7.27272727272727 0
410 0.909090909090908 -8.18181818181818 0
411 0.454545454545455 -9.09090909090909 0
412 18.998925293159 -2.00105959813988 0
413 6.03214721739163 0.0600914778761239 0
414 18.9994340628337 1.99929664228339 0
415 12.0002829657696 -8.99847720575231 0
416 7.84944225808709 3.69583853340728 0
417 4.66746399990778 -2.66850414580414 0
418 14.0060164078874 8.95254386619598 0
419 7.99051573618205 -9.04392502153364 0
420 9.21391341929356 6.44617124518821 0
421 3.30412338481201 -5.40520780824979 0
422 18.9987610762541 4.99731134306351 0
423 15.999971274531 -8.99988173434432 0
424 16.0027644870832 8.99446514551192 0
425 5.13814560758935 -8.86561134725292 0
426 18.9999408027712 -8.00006074444475 0
427 18.9993014853426 6.9990830898627 0
428 2.40604352832313 -7.29006894107886 0
429 10.0717525310979 8.29357245534152 0
430 18.9997546244203 -6.00027638963815 0
431 18.000173664813 8.99935002707068 0
432 2.59674640549048 -9.3168215830809 0
433 6.94127615654902 1.87827066498939 0
434 18.999561327333 -5.00052961872152 0
435 15.0000923228491 -8.99967258283344 0
436 17.9999568550538 -9.00003018401472 0
437 18.999976865461 -9.00002242595041 0
438 18.9997719202846 7.9995257947713 0
439 18.9999858820985 8.99977159685806 0
440 14.0002947894528 -8.99939340713411 0
441 18.9993195153371 -4.00082772572349 0
442 10.9968772774661 -8.99477091890224 0
443 18.9986550256249 -1.00079232762334 0
444 18.9985244795944 -0.000242945219370849 0
445 11.9877910217563 8.67714194734006 0
446 9.97788764280292 -8.98347317770441 0
447 18.999785614952 2.99812237840011 0
448 7.06246289448981 -9.02606591085218 0
449 1.49892292257843 -9.14979854841605 0
450 8.75867685174182 5.52035755510352 0
451 4.21139081352633 -3.58077303591237 0
452 5.57610680599434 -0.851671093858633 0
453 1.96247184423699 -8.24976075320904 0
454 9.65778411021696 7.37830206688932 0
455 2.84913495789108 -6.34695519930427 0
456 3.75512908004751 -4.49569585726328 0
457 5.11906902738131 -1.76536478565524 0
458 6.48339784889502 0.962625161641866 0
459 7.39229682507135 2.78085763065815 0
460 8.30088440052386 4.60084049026902 0
461 10.4912118701918 9.15614929138589 0
462 17.9973621200746 -2.00199274047335 0
463 18.004925975772 2.00385528241191 0
464 6.56740447267406 -0.871376081700967 0
465 8.38468464122979 2.76357168441462 0
466 11.9989223364167 -7.99686591886384 0
467 9.75236238254705 5.50657598258574 0
468 5.20124611061454 -3.60406792442511 0
469 7.98808904591518 -8.31821540699209 0
470 4.29608626952817 -5.44705042347077 0
471 17.9993626151337 -6.00058190843263 0
472 3.42794088895991 -7.40853661373181 0
473 17.9998564336724 -8.00009534159994 0
474 15.0000958009726 -7.99908694389701 0
475 10.6876573644385 7.4504218258111 0
476 7.47600375018378 0.945131543111415 0
477 16.9999392735235 -8.99998841168381 0
478 18.999848035264 -7.00014792638914 0
479 17.9949004890936 6.99437037271644 0
480 17.9985365762961 7.99751804804414 0
481 17.0007529572399 8.99767406197968 0
482 18.9983733411944 5.9975945889442 0
483 17.9989062969169 -5.00113954321116 0
484 15.0053445180499 8.98294915624778 0
485 18.9994008002473 3.99685452301358 0
486 13.0002895187116 -8.99900311482672 0
487 18.9990642203678 -3.00101675983934 0
488 18.9992073960862 1.00028721454373 0
489 17.9954611438663 -0.99945975203286 0
490 10.9952808983756 -7.9930664643378 0
491 8.96276500801485 -9.00414148147741 0
492 12.9932018991924 8.85931228992031 0
493 6.12586190921382 -8.9543861320447 0
494 4.12091893954863 -8.68406462884864 0
495 3.04230017101206 -8.43631360157496 0
496 9.29029329202572 4.58006202345331 0
497 6.1084011678658 -1.78860827764326 0
498 11.1291505350028 8.50358489035754 0
499 10.2243863444869 6.44418171401187 0
500 3.84903463972344 -6.42161674642695 0
501 4.74217247579821 -4.53158494570529 0
502 5.64956187580055 -2.70594741979334 0
503 8.83227045689138 3.66112793359514 0
504 7.01540506343553 0.0244123715349491 0
505 7.92517710679956 1.84396639100931 0
506 16.9961138693212 -2.00049663381746 0
507 7.5128369048206 -0.980111573816453 0
508 8.87670136586379 1.74713694969666 0
509 10.6898775183658 5.39221290525491 0
510 11.9945315826356 -6.99464007648251 0
511 6.14550704271606 -3.71921548767034 0
512 5.24876687412235 -5.58340289667986 0
513 14.0048510977362 7.92990424606852 0
514 11.856875518333 7.40473514110127 0
515 15.9998357999976 -7.99965208478583 0
516 17.9934484913535 4.98113167002082 0
517 16.9988458643522 -6.00041160005227 0
518 17.9984699889507 1.00969726117959 0
519 14.0003716333353 -7.99829397674864 0
520 9.98583878559747 -7.97492340642854 0
521 9.78243600241311 3.56410923067365 0
522 5.41049230154229 -7.76691470406961 0
523 17.9996422737189 -7.00023807295071 0
524 15.9950133145771 7.98799839346559 0
525 16.9997780743181 -7.99998010364844 0
526 17.997956665545 -3.00189358091045 0
527 16.9957246415718 7.9936142381759 0
528 17.9899535217411 5.98550371561996 0
529 18.00854697344 2.99369611587004 0
530 7.32567088139393 -8.08951348670397 0
531 17.9984099538963 -4.00167160443261 0
532 12.9998471310769 -7.99748607047051 0
533 17.9941518422906 0.00732733217993808 0
534 8.83001605676595 -7.86755919310128 0
535 4.43731198433302 -7.59546895640283 0
536 7.05574879425406 -1.89344294815588 0
537 8.42067517634589 0.834917764111117 0
538 11.1662260454102 6.31734540382511 0
539 10.232175691409 4.47130063491213 0
540 4.82351391275974 -6.57252019493623 0
541 5.69167552545913 -4.64903695970162 0
542 6.59785424685828 -2.81017366432797 0
543 9.32694668515568 2.64987322632712 0
544 7.96411077182388 -0.0777829623183695 0
545 11.1473824493728 9.14655255417163 0
546 17.0348345008355 2.03462172578898 0
547 8.90920045150929 -0.183121585057101 0
548 10.2696808145934 2.53899894621294 0
549 7.54315654457407 -2.92467605167628 0
550 11.5971466457833 5.25609116314825 0
551 10.0171007872978 -7.02722019181038 0
552 6.63163022493445 -4.79273934983778 0
553 14.9995458799789 -6.99756393242257 0
554 16.952110131468 5.94846411208117 0
555 12.9985157294739 -6.99365693488585 0
556 7.9156173598438 -6.98644413688249 0
557 12.3214526057901 6.78448694306158 0
558 13.0086708608831 7.80061353887034 0
559 16.9980963047833 -5.00087306653295 0
560 16.9973533804987 -3.0007523009763 0
561 16.9897029686949 -0.993141257613305 0
562 18.0030475722514 3.98208456953806 0
563 16.9994173757254 -7.0000569040938 0
564 16.977729633734 6.98115344794425 0
565 14.9937949486129 7.97173507813938 0
566 6.40465974720918 -7.9145641539071 0
567 16.9737608033405 0.0371501765089552 0
568 10.9912818573503 -7.00381798125431 0
569 5.78494544737137 -6.73769100767261 0
570 8.45616701820618 -1.08882248893022 0
571 11.1648655394552 4.35448168293356 0
572 9.81905186955543 1.63593615325988 0
573 12.0028421705426 6.13610672175153 0
574 6.19592596387873 -5.74993340720315 0
575 10.721736899439 3.45085589419698 0
576 7.0889627019097 -3.85220720013498 0
577 8.00233922803349 -1.99939356944914 0
578 9.36694301230731 0.732153098157546 0
579 16.0000138617051 -1.99026036879865 0
580 9.42421882136829 -1.14450868906488 0
581 10.7853313847538 1.57308899713674 0
582 11.9968952074257 -5.98830786309861 0
583 12.5164137464766 5.16101332157948 0
584 8.51903478928766 -3.00089112396041 0
585 7.58913866210626 -4.95801536950281 0
586 13.9434480259443 6.95183493483935 0
587 11.6789023291785 3.3664584434126 0
588 6.75912404606731 -6.88743833370846 0
589 16.9667936982578 4.91289581903154 0
590 16.9923493034138 1.06456920328423 0
591 15.9993002378073 -6.99915764737344 0
592 15.9983599113381 -5.9982301585709 0
593 9.28302108668622 -7.05558414327181 0
594 17.0486090515295 2.9858583428844 0
595 15.9526847912988 6.9730463109713 0
596 16.9976598308654 -4.00075974564969 0
597 13.9995873935569 -6.99498260199709 0
598 15.9902267658583 -0.987040762393582 0
599 10.9900506020896 -6.01372549411791 0
600 7.14070696575407 -5.91436282803894 0
601 10.3350945279774 0.675645677204059 0
602 13.0007707391976 6.88813500940731 0
603 12.8372877800871 6.03904209751055 0
604 12.1136858477169 4.26659626693563 0
605 11.2360200410187 2.47474193459778 0
606 8.07073396553203 -3.97581688247892 0
607 8.97433691659444 -2.0597700543111 0
608 9.88205518437072 -0.22695892881413 0
609 15.0207831427248 -1.96305347321223 0
610 16.3007950154928 2.08674499413134 0
611 9.96594078852439 -2.08700413954221 0
612 11.3320618532552 0.663783513533269 0
613 13.4752526985293 5.08003099102695 0
614 12.2100993170659 2.42446315422471 0
615 12.0301351118504 -4.98142496867311 0
616 9.11461283562967 -4.0558589084421 0
617 7.85885866065152 -6.05736362525729 0
618 13.9993239593601 -5.98684763322732 0
619 15.9976054577097 -3.99307746671904 0
620 16.0002557287666 -2.98820436260126 0
621 14.9289210728742 6.96814338118707 0
622 9.98702788010291 -6.10352660247659 0
623 13.0015705662472 -5.98386166673908 0
624 17.0233512785277 3.93207290449581 0
625 15.9507796104933 0.0540767669406295 0
626 15.8641457225929 5.91673897646604 0
627 15.9975159434075 -4.99553402973327 0
628 14.9984176628117 -5.99256658110179 0
629 13.7636244823562 6.00531980185345 0
630 8.68372433576664 -5.32778372039348 0
631 10.8756297860468 -0.242067667952347 0
632 13.0819445501393 4.17305400770899 0
633 12.6463789760051 3.2901815151271 0
634 11.7771830998212 1.55219069694137 0
635 10.418166907932 -1.16150817959167 0
636 9.53376374726799 -3.040546056708 0
637 10.9555317801775 -2.13343335695118 0
638 11.8945202597409 -0.279871907624683 0
639 12.7837924244258 1.54267534792394 0
640 14.0580261465372 3.99102193533004 0
641 11.0429354512903 -5.01857623890179 0
642 15.7374782068182 4.63466356664114 0
643 15.9557030970321 2.95582252488318 0
644 9.99838733824067 -5.11038750671302 0
645 14.7774525277044 5.94878521084549 0
646 15.8179746999121 1.28978800323006 0
647 9.03069552047405 -6.40708188704922 0
648 15.0212069496857 -0.994294361537526 0
649 14.9977536556891 -3.96867785606077 0
650 13.0110994455428 -4.96862695024346 0
651 15.0076994751117 -2.95429511350208 0
652 14.9972009473997 -4.98223869337585 0
653 10.5453923740851 -3.05470399512955 0
654 13.5630495567114 3.13801968207465 0
655 13.1423544586297 2.34571400118403 0
656 12.3676811696564 0.656402857401396 0
657 11.4133368828601 -1.23447782174219 0
658 10.2005030947261 -4.05935830530937 0
659 14.4893170173511 4.92732736945254 0
660 14.0778289360527 -1.90867439929804 0
661 13.9804771158158 1.55132857634441 0
662 13.0242216697705 -0.460502683781993 0
663 11.4830385018237 -3.12655603294947 0
664 14.9833255038038 -0.0321939600504053 0
665 14.3470573202045 2.79406439940142 0
666 12.0896764967459 -4.01718448007824 0
667 15.0231938131275 2.18739713949774 0
668 16.2715323276075 3.84880715903603 0
669 13.9994806679469 -4.96962018564642 0
670 13.9891808144553 -3.93677917513919 0
671 11.1926738959272 -4.05733635594869 0
672 14.9688378276039 3.58351692154617 0
673 12.3495601877073 -1.45549379984235 0
674 13.3785705321994 0.713829947058176 0
675 11.8826142102388 -2.34076954541264 0
676 12.1062517202929 -3.33968774006958 0
677 14.1180972587424 -1.02792249835336 0
678 14.0039181800549 -2.89766730736384 0
679 14.7253846253374 0.836787685080906 0
680 13.0008179338828 -3.96424252497632 0
681 13.202989888211 -1.75439712136734 0
682 14.079834832963 -0.20202797386379 0
683 14.0472497833995 0.434622119373305 0
684 13.4621069013097 -1.10375378889183 0
685 13.8213832117167 2.26021701011336 0
686 12.8286127188921 -2.85475328405573 0
$EndNodes
$Elements
614
1 2 2 1 1 93 43 44 
2 2 2 1 1 44 3 93 
3 3 2 1 1 298 281 223 260
4 3 2 1 1 247 261 238 184
5 3 2 1 1 192 196 161 199
6 3 2 1 1 196 192 237 233
7 3 2 1 1 303 319 338 320
8 3 2 1 1 93 3 45 148
9 3 2 1 1 305 316 284 310
10 3 2 1 1 284 316 332 301
11 3 2 1 1 95 88 180 146
12 3 2 1 1 303 312 324 321
13 3 2 1 1 285 264 247 279
14 3 2 1 1 274 248 246 296
15 3 2 1 1 261 276 222 238
16 3 2 1 1 197 153 162 188
17 3 2 1 1 305 317 325 316
18 3 2 1 1 201 189 154 163
19 3 2 1 1 199 165 166 192
20 3 2 1 1 338 309 299 320
21 3 2 1 1 330 317 287 306
22 3 2 1 1 274 296 297 245
23 3 2 1 1 280 298 260 259
24 3 2 1 1 337 332 316 325
25 3 2 1 1 259 260 191 231
26 3 2 1 1 236 274 245 213
27 3 2 1 1 162 153 75 127
28 3 2 1 1 232 278 242 187
29 3 2 1 1 246 248 200 225
30 3 2 1 1 298 265 215 281
31 3 2 1 1 97 96 167 121
32 3 2 1 1 190 231 178 157
33 3 2 1 1 88 125 161 180
34 3 2 1 1 189 201 249 218
35 3 2 1 1 291 321 304 275
36 3 2 1 1 164 155 130 101
37 3 2 1 1 199 161 125 83
38 3 2 1 1 234 270 258 221
39 3 2 1 1 269 249 201 226
40 3 2 1 1 95 113 24 25
41 3 2 1 1 165 126 98 166
42 3 2 1 1 147 96 43 93
43 3 2 1 1 256 291 275 243
44 3 2 1 1 237 192 166 200
45 3 2 1 1 194 167 96 147
46 3 2 1 1 184 164 115 224
47 3 2 1 1 126 165 199 83
48 3 2 1 1 154 128 99 163
49 3 2 1 1 225 200 166 119
50 3 2 1 1 252 293 267 227
51 3 2 1 1 156 129 73 198
52 3 2 1 1 285 279 250 286
53 3 2 1 1 269 287 288 249
54 3 2 1 1 157 178 144 80
55 3 2 1 1 230 256 243 185
56 3 2 1 1 99 89 118 163
57 3 2 1 1 204 234 221 173
58 3 2 1 1 178 124 92 144
59 3 2 1 1 287 269 240 306
60 3 2 1 1 239 188 162 121
61 3 2 1 1 125 88 26 27
62 3 2 1 1 95 25 26 88
63 3 2 1 1 225 189 218 246
64 3 2 1 1 127 97 121 162
65 3 2 1 1 176 230 185 160
66 3 2 1 1 78 119 166 98
67 3 2 1 1 226 201 163 118
68 3 2 1 1 268 296 246 218
69 3 2 1 1 225 119 154 189
70 3 2 1 1 100 75 153 115
71 3 2 1 1 143 210 174 110
72 3 2 1 1 83 125 27 28
73 3 2 1 1 268 288 305 313
74 3 2 1 1 239 281 215 188
75 3 2 1 1 130 155 198 73
76 3 2 1 1 193 235 207 169
77 3 2 1 1 153 197 224 115
78 3 2 1 1 226 186 240 269
79 3 2 1 1 177 174 213 232
80 3 2 1 1 129 156 118 89
81 3 2 1 1 218 249 288 268
82 3 2 1 1 222 276 240 186
83 3 2 1 1 198 222 186 156
84 3 2 1 1 96 97 42 43
85 3 2 1 1 156 186 226 118
86 3 2 1 1 128 154 119 78
87 3 2 1 1 101 100 115 164
88 3 2 1 1 126 83 28 29
89 3 2 1 1 309 294 264 299
90 3 2 1 1 141 176 160 76
91 3 2 1 1 288 287 317 305
92 3 2 1 1 265 314 324 286
93 3 2 1 1 98 126 29 30
94 3 2 1 1 215 265 286 250
95 3 2 1 1 282 306 240 276
96 3 2 1 1 97 127 41 42
97 3 2 1 1 172 220 255 211
98 3 2 1 1 261 294 282 276
99 3 2 1 1 289 266 301 318
100 3 2 1 1 312 299 264 285
101 3 2 1 1 255 220 266 289
102 3 2 1 1 98 30 31 78
103 3 2 1 1 128 78 31 32
104 3 2 1 1 99 128 32 33
105 3 2 1 1 307 329 319 290
106 3 2 1 1 188 215 250 197
107 3 2 1 1 99 33 34 89
108 3 2 1 1 129 89 34 35
109 3 2 1 1 127 75 40 41
110 3 2 1 1 75 100 39 40
111 3 2 1 1 101 38 39 100
112 3 2 1 1 73 129 35 36
113 3 2 1 1 101 130 37 38
114 3 2 1 1 130 73 36 37
115 3 2 1 1 224 197 250 279
116 3 2 1 1 273 307 290 253
117 3 2 1 1 285 286 324 312
118 3 2 1 1 140 159 175 108
119 3 2 1 1 104 120 171 84
120 3 2 1 1 173 221 209 120
121 3 2 1 1 157 207 235 190
122 3 2 1 1 120 104 109 173
123 3 2 1 1 300 308 293 263
124 3 2 1 1 194 182 124 191
125 3 2 1 1 84 171 123 134
126 3 2 1 1 155 238 222 198
127 3 2 1 1 247 264 294 261
128 3 2 1 1 91 168 131 105
129 3 2 1 1 120 209 193 171
130 3 2 1 1 53 4 54 103
131 3 2 1 1 202 168 91 132
132 3 2 1 1 53 103 90 52
133 3 2 1 1 5 105 72 1
134 3 2 1 1 259 231 190 244
135 3 2 1 1 72 105 131 71
136 3 2 1 1 132 91 6 7
137 3 2 1 1 283 302 326 315
138 3 2 1 1 216 263 293 252
139 3 2 1 1 5 6 91 105
140 3 2 1 1 51 52 90 102
141 3 2 1 1 70 71 131 87
142 3 2 1 1 54 55 134 103
143 3 2 1 1 51 102 133 50
144 3 2 1 1 106 172 211 138
145 3 2 1 1 204 173 109 139
146 3 2 1 1 132 7 8 85
147 3 2 1 1 136 85 8 9
148 3 2 1 1 56 84 134 55
149 3 2 1 1 70 87 135 69
150 3 2 1 1 175 212 206 114
151 3 2 1 1 219 183 117 158
152 3 2 1 1 103 134 123 90
153 3 2 1 1 229 273 253 212
154 3 2 1 1 87 170 203 135
155 3 2 1 1 49 50 133 80
156 3 2 1 1 170 87 131 168
157 3 2 1 1 158 107 137 208
158 3 2 1 1 248 274 236 195
159 3 2 1 1 202 132 85 152
160 3 2 1 1 202 152 227 228
161 3 2 1 1 68 69 135 82
162 3 2 1 1 107 158 117 74
163 3 2 1 1 136 9 10 79
164 3 2 1 1 138 79 10 11
165 3 2 1 1 108 175 114 94
166 3 2 1 1 318 300 263 289
167 3 2 1 1 295 275 304 311
168 3 2 1 1 56 57 104 84
169 3 2 1 1 234 204 160 185
170 3 2 1 1 289 263 216 255
171 3 2 1 1 205 152 85 136
172 3 2 1 1 68 82 137 67
173 3 2 1 1 251 203 170 228
174 3 2 1 1 326 334 335 315
175 3 2 1 1 228 227 267 251
176 3 2 1 1 135 203 151 82
177 3 2 1 1 230 176 114 206
178 3 2 1 1 204 139 76 160
179 3 2 1 1 159 229 212 175
180 3 2 1 1 205 136 79 149
181 3 2 1 1 90 123 169 102
182 3 2 1 1 139 109 58 59
183 3 2 1 1 329 307 283 315
184 3 2 1 1 217 271 292 254
185 3 2 1 1 184 224 279 247
186 3 2 1 1 228 170 168 202
187 3 2 1 1 208 137 82 151
188 3 2 1 1 254 208 151 217
189 3 2 1 1 252 205 149 216
190 3 2 1 1 271 217 251 267
191 3 2 1 1 265 298 280 311
192 3 2 1 1 229 159 117 183
193 3 2 1 1 203 251 217 151
194 3 2 1 1 219 158 208 254
195 3 2 1 1 252 227 152 205
196 3 2 1 1 102 169 207 133
197 3 2 1 1 315 335 339 329
198 3 2 1 1 193 169 123 171
199 3 2 1 1 159 140 74 117
200 3 2 1 1 150 179 196 233
201 3 2 1 1 258 257 209 221
202 3 2 1 1 295 270 243 275
203 3 2 1 1 138 11 12 106
204 3 2 1 1 124 182 112 92
205 3 2 1 1 66 67 137 107
206 3 2 1 1 211 149 79 138
207 3 2 1 1 57 58 109 104
208 3 2 1 1 244 190 235 257
209 3 2 1 1 272 219 254 292
210 3 2 1 1 179 145 111 122
211 3 2 1 1 140 64 65 74
212 3 2 1 1 140 108 63 64
213 3 2 1 1 322 292 271 308
214 3 2 1 1 141 61 62 94
215 3 2 1 1 301 266 242 284
216 3 2 1 1 272 241 183 219
217 3 2 1 1 302 283 241 272
218 3 2 1 1 176 141 94 114
219 3 2 1 1 139 59 60 76
220 3 2 1 1 141 76 60 61
221 3 2 1 1 302 272 292 322
222 3 2 1 1 266 220 187 242
223 3 2 1 1 142 77 13 14
224 3 2 1 1 220 172 116 187
225 3 2 1 1 310 278 245 297
226 3 2 1 1 331 322 308 300
227 3 2 1 1 270 234 185 243
228 3 2 1 1 291 256 214 262
229 3 2 1 1 326 302 322 331
230 3 2 1 1 172 106 77 116
231 3 2 1 1 256 230 206 214
232 3 2 1 1 255 216 149 211
233 3 2 1 1 236 210 150 195
234 3 2 1 1 110 174 177 142
235 3 2 1 1 328 331 300 318
236 3 2 1 1 321 291 262 303
237 3 2 1 1 278 232 213 245
238 3 2 1 1 143 110 15 16
239 3 2 1 1 142 14 15 110
240 3 2 1 1 212 253 214 206
241 3 2 1 1 133 207 157 80
242 3 2 1 1 191 124 178 231
243 3 2 1 1 273 229 183 241
244 3 2 1 1 319 329 339 338
245 3 2 1 1 65 66 107 74
246 3 2 1 1 49 80 144 48
247 3 2 1 1 253 290 262 214
248 3 2 1 1 210 143 81 150
249 3 2 1 1 177 116 77 142
250 3 2 1 1 307 273 241 283
251 3 2 1 1 305 310 297 313
252 3 2 1 1 86 181 122 111
253 3 2 1 1 145 81 17 18
254 3 2 1 1 143 16 17 81
255 3 2 1 1 194 191 260 223
256 3 2 1 1 295 277 258 270
257 3 2 1 1 232 187 116 177
258 3 2 1 1 12 13 77 106
259 3 2 1 1 290 319 303 262
260 3 2 1 1 328 318 301 332
261 3 2 1 1 62 63 108 94
262 3 2 1 1 179 150 81 145
263 3 2 1 1 236 213 174 210
264 3 2 1 1 310 284 242 278
265 3 2 1 1 145 18 19 111
266 3 2 1 1 146 86 20 21
267 3 2 1 1 332 337 334 328
268 3 2 1 1 280 259 244 277
269 3 2 1 1 179 122 181 196
270 3 2 1 1 309 338 339 327
271 3 2 1 1 47 48 144 92
272 3 2 1 1 194 147 112 182
273 3 2 1 1 146 21 22 95
274 3 2 1 1 19 20 86 111
275 3 2 1 1 148 45 46 112
276 3 2 1 1 308 271 267 293
277 3 2 1 1 257 235 193 209
278 3 2 1 1 46 47 92 112
279 3 2 1 1 150 233 237 195
280 3 2 1 1 23 113 95 22
281 3 2 1 1 314 304 321 324
282 3 2 1 1 335 333 327 339
283 3 2 1 1 335 336 323 333
284 3 2 1 1 181 86 146 180
285 3 2 1 1 277 244 257 258
286 3 2 1 1 334 326 331 328
287 3 2 1 1 121 167 194 239
288 3 2 1 1 333 323 309 327
289 3 2 1 1 306 282 323 330
290 3 2 1 1 164 184 238 155
291 3 2 1 1 336 335 334 337
292 3 2 1 1 112 147 93 148
293 3 2 1 1 323 282 294 309
294 3 2 1 1 317 336 337 325
295 3 2 1 1 296 268 313 297
296 3 2 1 1 311 280 277 295
297 3 2 1 1 2 24 113 23
298 3 2 1 1 317 330 323 336
299 3 2 1 1 265 311 304 314
300 3 2 1 1 281 239 194 223
301 3 2 1 1 200 248 195 237
302 3 2 1 1 196 181 180 161
303 3 2 1 1 299 312 303 320
304 2 2 2 2 432 345 346 
305 2 2 2 2 346 347 432 
306 3 2 2 2 672 665 667 643
307 3 2 2 2 622 644 630 647
308 3 2 2 2 665 654 655 685
309 3 2 2 2 671 666 676 663
310 3 2 2 2 681 684 662 673
311 3 2 2 2 644 641 671 658
312 3 2 2 2 663 676 686 675
313 3 2 2 2 663 653 658 671
314 3 2 2 2 665 685 661 667
315 3 2 2 2 514 558 492 445
316 3 2 2 2 558 602 586 513
317 3 2 2 2 514 557 602 558
318 3 2 2 2 630 585 600 617
319 3 2 2 2 658 616 630 644
320 3 2 2 2 677 684 681 660
321 3 2 2 2 472 495 494 535
322 3 2 2 2 641 615 666 671
323 3 2 2 2 670 649 651 678
324 3 2 2 2 620 651 649 619
325 3 2 2 2 649 670 669 652
326 3 2 2 2 555 597 618 623
327 3 2 2 2 494 425 522 535
328 3 2 2 2 526 560 596 531
329 3 2 2 2 532 519 597 555
330 3 2 2 2 534 520 551 593
331 3 2 2 2 599 582 615 641
332 3 2 2 2 518 590 567 533
333 3 2 2 2 491 446 520 534
334 3 2 2 2 551 568 599 622
335 3 2 2 2 597 553 628 618
336 3 2 2 2 625 664 648 598
337 3 2 2 2 568 510 582 599
338 3 2 2 2 531 596 559 483
339 3 2 2 2 681 686 678 660
340 3 2 2 2 488 518 533 444
341 3 2 2 2 621 586 629 645
342 3 2 2 2 598 648 609 579
343 3 2 2 2 486 440 519 532
344 3 2 2 2 524 595 564 527
345 3 2 2 2 483 559 517 471
346 3 2 2 2 520 490 568 551
347 3 2 2 2 567 625 598 561
348 3 2 2 2 523 563 525 473
349 3 2 2 2 528 479 564 554
350 3 2 2 2 490 466 510 568
351 3 2 2 2 516 528 554 589
352 3 2 2 2 471 517 563 523
353 3 2 2 2 471 430 434 483
354 3 2 2 2 515 591 553 474
355 3 2 2 2 493 566 522 425
356 3 2 2 2 423 359 360 477
357 3 2 2 2 437 363 364 426
358 3 2 2 2 478 426 364 365
359 3 2 2 2 478 365 366 430
360 3 2 2 2 362 341 363 437
361 3 2 2 2 477 360 361 436
362 3 2 2 2 436 361 362 437
363 3 2 2 2 582 623 650 615
364 3 2 2 2 381 342 382 439
365 3 2 2 2 478 430 471 523
366 3 2 2 2 533 567 561 489
367 3 2 2 2 651 620 579 609
368 3 2 2 2 426 473 436 437
369 3 2 2 2 481 431 383 384
370 3 2 2 2 466 532 555 510
371 3 2 2 2 380 381 439 438
372 3 2 2 2 382 383 431 439
373 3 2 2 2 426 478 523 473
374 3 2 2 2 510 555 623 582
375 3 2 2 2 515 423 477 525
376 3 2 2 2 621 595 524 565
377 3 2 2 2 679 664 625 646
378 3 2 2 2 379 427 482 378
379 3 2 2 2 480 438 439 431
380 3 2 2 2 379 380 438 427
381 3 2 2 2 436 473 525 477
382 3 2 2 2 366 367 434 430
383 3 2 2 2 358 359 423 435
384 3 2 2 2 438 480 479 427
385 3 2 2 2 481 384 385 424
386 3 2 2 2 484 424 385 386
387 3 2 2 2 532 466 415 486
388 3 2 2 2 560 526 462 506
389 3 2 2 2 661 679 646 667
390 3 2 2 2 377 378 482 422
391 3 2 2 2 427 479 528 482
392 3 2 2 2 487 441 368 369
393 3 2 2 2 357 440 486 356
394 3 2 2 2 620 619 596 560
395 3 2 2 2 377 422 485 376
396 3 2 2 2 434 441 531 483
397 3 2 2 2 515 474 435 423
398 3 2 2 2 444 533 489 443
399 3 2 2 2 592 591 563 517
400 3 2 2 2 630 617 556 647
401 3 2 2 2 474 553 597 519
402 3 2 2 2 526 487 412 462
403 3 2 2 2 431 481 527 480
404 3 2 2 2 526 531 441 487
405 3 2 2 2 561 598 579 506
406 3 2 2 2 517 559 627 592
407 3 2 2 2 480 527 564 479
408 3 2 2 2 446 442 490 520
409 3 2 2 2 482 528 516 422
410 3 2 2 2 422 516 562 485
411 3 2 2 2 358 435 440 357
412 3 2 2 2 367 368 441 434
413 3 2 2 2 624 562 516 589
414 3 2 2 2 682 677 648 664
415 3 2 2 2 487 369 370 412
416 3 2 2 2 646 625 567 590
417 3 2 2 2 355 356 486 415
418 3 2 2 2 534 469 419 491
419 3 2 2 2 519 440 435 474
420 3 2 2 2 668 624 589 642
421 3 2 2 2 484 386 387 418
422 3 2 2 2 492 418 387 388
423 3 2 2 2 489 561 506 462
424 3 2 2 2 448 419 469 530
425 3 2 2 2 375 376 485 447
426 3 2 2 2 488 444 372 373
427 3 2 2 2 642 589 554 626
428 3 2 2 2 643 667 646 610
429 3 2 2 2 646 590 546 610
430 3 2 2 2 619 627 559 596
431 3 2 2 2 442 415 466 490
432 3 2 2 2 566 530 556 588
433 3 2 2 2 647 593 551 622
434 3 2 2 2 678 651 609 660
435 3 2 2 2 534 556 530 469
436 3 2 2 2 620 560 506 579
437 3 2 2 2 590 518 463 546
438 3 2 2 2 488 373 374 414
439 3 2 2 2 650 623 618 669
440 3 2 2 2 652 628 592 627
441 3 2 2 2 649 652 627 619
442 3 2 2 2 485 562 529 447
443 3 2 2 2 669 618 628 652
444 3 2 2 2 481 424 524 527
445 3 2 2 2 562 624 594 529
446 3 2 2 2 491 352 353 446
447 3 2 2 2 624 668 643 594
448 3 2 2 2 644 622 599 641
449 3 2 2 2 565 524 424 484
450 3 2 2 2 518 488 414 463
451 3 2 2 2 443 489 462 412
452 3 2 2 2 448 530 566 493
453 3 2 2 2 621 565 513 586
454 3 2 2 2 591 515 525 563
455 3 2 2 2 371 443 412 370
456 3 2 2 2 491 419 351 352
457 3 2 2 2 650 680 666 615
458 3 2 2 2 371 372 444 443
459 3 2 2 2 355 415 442 354
460 3 2 2 2 546 463 529 594
461 3 2 2 2 374 375 447 414
462 3 2 2 2 677 660 609 648
463 3 2 2 2 647 556 534 593
464 3 2 2 2 493 349 350 448
465 3 2 2 2 447 529 463 414
466 3 2 2 2 610 546 594 643
467 3 2 2 2 565 484 418 513
468 3 2 2 2 353 354 442 446
469 3 2 2 2 645 626 595 621
470 3 2 2 2 493 425 348 349
471 3 2 2 2 494 347 348 425
472 3 2 2 2 600 588 556 617
473 3 2 2 2 643 668 642 672
474 3 2 2 2 495 432 347 494
475 3 2 2 2 492 388 389 445
476 3 2 2 2 686 680 670 678
477 3 2 2 2 350 351 419 448
478 3 2 2 2 558 513 418 492
479 3 2 2 2 586 602 603 629
480 3 2 2 2 498 445 389 545
481 3 2 2 2 628 553 591 592
482 3 2 2 2 626 554 564 595
483 3 2 2 2 682 664 679 683
484 3 2 2 2 679 661 674 683
485 3 2 2 2 449 411 340 344
486 3 2 2 2 573 603 602 557
487 3 2 2 2 629 603 583 613
488 3 2 2 2 659 613 632 640
489 3 2 2 2 645 629 613 659
490 3 2 2 2 545 461 429 498
491 3 2 2 2 453 410 411 449
492 3 2 2 2 514 538 573 557
493 3 2 2 2 675 637 653 663
494 3 2 2 2 653 636 616 658
495 3 2 2 2 522 569 540 535
496 3 2 2 2 673 657 637 675
497 3 2 2 2 585 552 574 600
498 3 2 2 2 637 611 636 653
499 3 2 2 2 472 428 453 495
500 3 2 2 2 616 606 585 630
501 3 2 2 2 657 635 611 637
502 3 2 2 2 636 584 606 616
503 3 2 2 2 674 656 638 662
504 3 2 2 2 569 574 512 540
505 3 2 2 2 611 607 584 636
506 3 2 2 2 638 631 635 657
507 3 2 2 2 428 409 410 453
508 3 2 2 2 606 576 552 585
509 3 2 2 2 540 500 472 535
510 3 2 2 2 498 429 454 475
511 3 2 2 2 661 639 656 674
512 3 2 2 2 635 580 607 611
513 3 2 2 2 656 612 631 638
514 3 2 2 2 584 549 576 606
515 3 2 2 2 429 392 393 454
516 3 2 2 2 639 634 612 656
517 3 2 2 2 631 608 580 635
518 3 2 2 2 607 577 549 584
519 3 2 2 2 512 470 500 540
520 3 2 2 2 574 552 541 512
521 3 2 2 2 612 601 608 631
522 3 2 2 2 580 570 577 607
523 3 2 2 2 500 455 428 472
524 3 2 2 2 634 581 601 612
525 3 2 2 2 552 576 511 541
526 3 2 2 2 655 614 634 639
527 3 2 2 2 608 547 570 580
528 3 2 2 2 614 605 581 634
529 3 2 2 2 654 633 614 655
530 3 2 2 2 640 632 633 654
531 3 2 2 2 475 454 420 499
532 3 2 2 2 576 549 542 511
533 3 2 2 2 601 578 547 608
534 3 2 2 2 541 501 470 512
535 3 2 2 2 549 577 536 542
536 3 2 2 2 581 572 578 601
537 3 2 2 2 632 604 587 633
538 3 2 2 2 470 421 455 500
539 3 2 2 2 577 570 507 536
540 3 2 2 2 583 550 571 604
541 3 2 2 2 613 583 604 632
542 3 2 2 2 633 587 605 614
543 3 2 2 2 514 475 499 538
544 3 2 2 2 511 468 501 541
545 3 2 2 2 604 571 575 587
546 3 2 2 2 587 575 548 605
547 3 2 2 2 605 548 572 581
548 3 2 2 2 542 502 468 511
549 3 2 2 2 570 547 544 507
550 3 2 2 2 547 578 537 544
551 3 2 2 2 509 467 496 539
552 3 2 2 2 578 572 508 537
553 3 2 2 2 536 497 502 542
554 3 2 2 2 550 573 538 509
555 3 2 2 2 454 393 394 420
556 3 2 2 2 575 571 539 521
557 3 2 2 2 507 464 497 536
558 3 2 2 2 538 499 467 509
559 3 2 2 2 455 408 409 428
560 3 2 2 2 571 550 509 539
561 3 2 2 2 539 496 503 521
562 3 2 2 2 603 573 550 583
563 3 2 2 2 502 417 451 468
564 3 2 2 2 572 548 543 508
565 3 2 2 2 548 575 521 543
566 3 2 2 2 468 451 456 501
567 3 2 2 2 501 456 421 470
568 3 2 2 2 544 504 464 507
569 3 2 2 2 521 503 465 543
570 3 2 2 2 537 476 504 544
571 3 2 2 2 497 457 417 502
572 3 2 2 2 499 420 450 467
573 3 2 2 2 508 505 476 537
574 3 2 2 2 421 407 408 455
575 3 2 2 2 420 394 395 450
576 3 2 2 2 543 465 505 508
577 3 2 2 2 467 450 460 496
578 3 2 2 2 464 452 457 497
579 3 2 2 2 496 460 416 503
580 3 2 2 2 504 413 452 464
581 3 2 2 2 476 458 413 504
582 3 2 2 2 456 406 407 421
583 3 2 2 2 505 433 458 476
584 3 2 2 2 451 405 406 456
585 3 2 2 2 465 459 433 505
586 3 2 2 2 417 404 405 451
587 3 2 2 2 503 416 459 465
588 3 2 2 2 457 403 404 417
589 3 2 2 2 450 395 396 460
590 3 2 2 2 452 402 403 457
591 3 2 2 2 413 401 402 452
592 3 2 2 2 458 400 401 413
593 3 2 2 2 433 399 400 458
594 3 2 2 2 459 398 399 433
595 3 2 2 2 416 397 398 459
596 3 2 2 2 460 396 397 416
597 3 2 2 2 680 650 669 670
598 3 2 2 2 686 676 666 680
599 3 2 2 2 686 681 673 675
600 3 2 2 2 390 343 391 461
601 3 2 2 2 445 498 475 514
602 3 2 2 2 392 429 461 391
603 3 2 2 2 389 390 461 545
604 3 2 2 2 672 640 654 665
605 3 2 2 2 683 674 662 682
606 3 2 2 2 662 684 677 682
607 3 2 2 2 662 638 657 673
608 3 2 2 2 639 661 685 655
609 3 2 2 2 344 345 432 449
610 3 2 2 2 495 453 449 432
611 3 2 2 2 522 566 588 569
612 3 2 2 2 600 574 569 588
613 3 2 2 2 626 645 659 642
614 3 2 2 2 640 672 642 659
$EndElements
