$MeshFormat
2.2 0 8
$EndMeshFormat
$Nodes
77
1 0 0 0
2 10 0 0
3 10 7 0
4 10 10 0
5 0 10 0
6 2 0 0
7 4 0 0
8 6 0 0
9 8 0 0
10 10 1.75 0
11 10 3.5 0
12 10 5.25 0
13 10 8.5 0
14 8 10 0
15 6 10 0
16 4 10 0
17 2 10 0
18 0 8 0
19 0 6 0
20 0 4 0
21 0 2 0
22 2.08515448824652 5.98039871300609 0
23 8.15246998714791 3.63665376800535 0
24 2.0549335082269 1.98561961296836 0
25 6.4948905980242 7.83187092940136 0
26 8.40891926703123 6.99132629597317 0
27 2.05422448643393 7.98722512802827 0
28 6.12483711181277 1.89438036276814 0
29 8.07744753520302 1.82160984234232 0
30 8.3484177904778 8.51076205130566 0
31 6.20215594056393 3.78910965434569 0
32 6.27259195231309 5.70481786837133 0
33 4.19350503370033 5.90051571891574 0
34 4.09666036316466 1.9505101804327 0
35 4.15393091309755 7.93295466937939 0
36 2.08526196597578 3.97251329077291 0
37 8.20339285180567 5.43575200902655 0
38 4.15507624690887 3.90440218129427 0
39 10 0 0
40 10 7 0
41 10 10 0
42 20 0 0
43 20 10 0
44 10 1.75 0
45 10 3.5 0
46 10 5.25 0
47 10 8.5 0
48 12 0 0
49 14 0 0
50 16 0 0
51 18 0 0
52 20 2 0
53 20 4 0
54 20 6 0
55 20 8 0
56 18 10 0
57 16 10 0
58 14 10 0
59 12 10 0
60 18.2991920853922 4.17019126212471 0
61 11.7668431672358 5.36190561690587 0
62 17.9774703879143 7.93086814400476 0
63 13.7784260540445 1.83044747294568 0
64 11.6877130942574 8.47562907741151 0
65 17.7861756345018 2.26134214339988 0
66 11.8135053324618 3.57936783244293 0
67 13.5296579157308 7.74024301822131 0
68 11.892712282146 1.79026476196956 0
69 16.8282528174653 3.91274962156279 0
70 15.87181541475 7.82853729583388 0
71 15.6845581001184 1.91786306730833 0
72 18.0797235221569 5.92464400773404 0
73 13.6747271448944 5.54270876871277 0
74 13.6830983500756 3.64708554882263 0
75 11.6089716807682 6.94432680082155 0
76 15.9213485294671 5.51711266381049 0
77 15.3906557505375 3.60660907892768 0
$EndNodes
$Elements
56
1 2 2 1 1 26 30 25 
2 3 2 1 1 5 18 27 17
3 3 2 1 1 1 6 24 21
4 3 2 1 1 18 19 22 27
5 3 2 1 1 22 19 20 36
6 3 2 1 1 36 20 21 24
7 3 2 1 1 24 6 7 34
8 3 2 1 1 26 3 13 30
9 3 2 1 1 34 7 8 28
10 3 2 1 1 2 10 29 9
11 3 2 1 1 28 8 9 29
12 3 2 1 1 16 17 27 35
13 3 2 1 1 25 35 33 32
14 3 2 1 1 23 11 12 37
15 3 2 1 1 27 22 33 35
16 3 2 1 1 10 11 23 29
17 3 2 1 1 30 13 4 14
18 3 2 1 1 14 15 25 30
19 3 2 1 1 26 37 12 3
20 3 2 1 1 36 24 34 38
21 3 2 1 1 29 23 31 28
22 3 2 1 1 33 22 36 38
23 3 2 1 1 15 16 35 25
24 3 2 1 1 28 31 38 34
25 3 2 1 1 38 31 32 33
26 3 2 1 1 32 37 26 25
27 3 2 1 1 31 23 37 32
28 2 2 2 2 64 75 67 
29 2 2 2 2 60 69 65 
30 2 2 2 2 76 77 69 
31 3 2 2 2 43 56 62 55
32 3 2 2 2 72 54 55 62
33 3 2 2 2 62 56 57 70
34 3 2 2 2 42 52 65 51
35 3 2 2 2 49 50 71 63
36 3 2 2 2 68 44 39 48
37 3 2 2 2 48 49 63 68
38 3 2 2 2 50 51 65 71
39 3 2 2 2 47 64 59 41
40 3 2 2 2 66 45 44 68
41 3 2 2 2 46 61 75 40
42 3 2 2 2 66 61 46 45
43 3 2 2 2 65 52 53 60
44 3 2 2 2 70 57 58 67
45 3 2 2 2 72 62 70 76
46 3 2 2 2 73 67 75 61
47 3 2 2 2 47 40 75 64
48 3 2 2 2 74 66 68 63
49 3 2 2 2 67 73 76 70
50 3 2 2 2 61 66 74 73
51 3 2 2 2 73 74 77 76
52 3 2 2 2 69 60 72 76
53 3 2 2 2 77 74 63 71
54 3 2 2 2 60 53 54 72
55 3 2 2 2 69 77 71 65
56 3 2 2 2 58 59 64 67
$EndElements
