$MeshFormat
2.2 0 8
$EndMeshFormat
$Nodes
155
1 0 0 0
2 48 0 0
3 49 0 0
4 50 0 0
5 51 0 0
6 52 0 0
7 100 0 0
8 100 100 0
9 0 100 0
10 9.6 0 0
11 19.2 0 0
12 28.8 0 0
13 38.4 0 0
14 61.6 0 0
15 71.2 0 0
16 80.8 0 0
17 90.4 0 0
18 100 10 0
19 100 20 0
20 100 30 0
21 100 40 0
22 100 50 0
23 100 60 0
24 100 70 0
25 100 80 0
26 100 90 0
27 90 100 0
28 80 100 0
29 70 100 0
30 60 100 0
31 50 100 0
32 40 100 0
33 30 100 0
34 20 100 0
35 10 100 0
36 0 90 0
37 0 80 0
38 0 70 0
39 0 60 0
40 0 50 0
41 0 40 0
42 0 30 0
43 0 20 0
44 0 10 0
45 50.9983501723163 2.5675353949272 0
46 12.1062822351252 48.2153574018306 0
47 90.5171406271653 38.8944553747301 0
48 49.8948784853003 90.1951362642831 0
49 38.2495875052704 7.37729641804619 0
50 90.0928557794022 59.5876352328197 0
51 9.29113244942261 28.553248093133 0
52 81.4671692489361 9.3567433464092 0
53 70.0792278795959 90.0511605969291 0
54 9.83696936616823 80.0461370613477 0
55 28.2441499078 8.6069244879434 0
56 9.33496768440615 19.0610052527603 0
57 49.8823410887947 1.7010136029523 0
58 58.9377572805253 7.35860136498301 0
59 90.8261142682634 19.3683302333502 0
60 18.856947238433 9.07860991336275 0
61 90.1636505749932 69.8929219672702 0
62 90.0599168768248 90.0085124706479 0
63 9.45093694265093 9.53536487954715 0
64 29.8208669554835 90.1576669074183 0
65 9.924453045916 90.0255220587241 0
66 9.85750384678006 70.0797158086406 0
67 90.661575182145 9.67599646811964 0
68 47.2470769489811 7.89606398409482 0
69 44.6004106930553 12.197031702044 0
70 81.9161032077209 18.6479832891592 0
71 80.1431329023026 59.4566714468684 0
72 72.7047467943995 9.3420223863227 0
73 18.2391846611231 27.262025608292 0
74 27.4478632438927 17.5758013802663 0
75 53.854675534413 4.00756127833366 0
76 90.8365498776878 29.0278778721667 0
77 90.0960112618239 49.0721797088837 0
78 9.64089143551282 37.920299444076 0
79 10.3725537994021 59.9460820203533 0
80 59.9833936929839 90.1075734599011 0
81 19.6915948030364 80.2044504935109 0
82 90.1252828736684 79.9870689097232 0
83 39.8147587249468 90.212203107181 0
84 80.0941442848579 90.0150725831996 0
85 19.8560471363089 90.0911262990848 0
86 18.491920940959 18.2242593171435 0
87 35.7660550056346 17.7888165755721 0
88 43.1000152150507 18.7726265026989 0
89 20.2597654769462 60.6523716183818 0
90 39.4369756903088 80.4996327674719 0
91 59.7603101729288 79.8982208837611 0
92 80.2103564789786 79.9675022298758 0
93 73.5060757784131 18.306535584159 0
94 55.0264051325688 9.0704857784785 0
95 82.0083443172147 27.8863330959158 0
96 18.5560874438253 42.1738547422815 0
97 78.806745226951 47.486618497999 0
98 26.6757078018578 26.590956353249 0
99 19.715660021214 70.4084662967508 0
100 29.5484985583414 80.4056650496596 0
101 80.2968547752446 69.8077636639752 0
102 48.3113603773741 13.597417210625 0
103 52.4315839766236 7.29187798825954 0
104 73.7050878074452 27.0255915166268 0
105 69.7734440337564 50.8738209852326 0
106 50.2933786421356 18.7971080497405 0
107 81.4598244808951 37.1188952476787 0
108 29.7041981933138 61.4780567690123 0
109 70.3355935784575 69.4946412202014 0
110 49.4477453808796 80.2345543245491 0
111 70.0521803427911 79.7950438687718 0
112 25.9125503060563 35.1613011197047 0
113 38.9585885189816 71.0101765647522 0
114 29.4355034585153 70.8073414181623 0
115 22.1101880096954 51.4484653437116 0
116 34.6215537889021 26.5982890979761 0
117 65.8198656140933 18.6973244146861 0
118 50.3197363291255 10.6346291116423 0
119 49.8082805757897 5.08797143934724 0
120 59.9802845066587 12.9423940753183 0
121 38.8987827572522 61.9301741842871 0
122 58.932126714751 67.9528900961802 0
123 65.8419901469059 26.886779122707 0
124 72.9787570017044 41.5677442243836 0
125 48.4654756310446 70.5976876230087 0
126 42.3520868947786 26.915824907013 0
127 24.4080379195979 43.176021840078 0
128 30.9060957308967 52.5441875041006 0
129 70.7011941479639 59.5443101398133 0
130 73.5267270223234 35.4905863381883 0
131 45.2497993970914 4.18892498803243 0
132 65.1886268750457 10.5281130468449 0
133 58.5863071982313 19.2810323332731 0
134 54.1272719444797 12.532514830231 0
135 48.6660745677868 2.68824073142977 0
136 18.1141504886067 35.9602268487683 0
137 41.6052824826216 35.5918601520151 0
138 64.0661644359188 52.1761474312322 0
139 39.5715264171018 53.1404999241978 0
140 58.0501704680217 27.1038376061937 0
141 47.5556705538661 61.9999085851908 0
142 62.6279196035822 58.3012481879022 0
143 50.1640984195076 27.1646691858359 0
144 66.0911618630729 35.2639158664961 0
145 33.6458774234642 35.313970704482 0
146 47.9584674939652 53.8095111896166 0
147 58.1594523858691 35.8510218233688 0
148 40.6418329437521 44.4063784736853 0
149 55.5219010789337 55.6315216785803 0
150 49.8196377767419 35.940930007038 0
151 67.5021345240864 43.210415680312 0
152 53.6867716286884 61.5875574215732 0
153 32.3793868390631 43.8891974845509 0
154 58.9895176285373 46.4845264244521 0
155 49.1290870760126 45.0870771233251 0
$EndNodes
$Elements
132
1 3 2 1 1 73 86 74 98
2 3 2 1 1 131 68 69 49
3 3 2 1 1 49 87 74 55
4 3 2 1 1 154 149 146 155
5 3 2 1 1 153 128 115 127
6 3 2 1 1 155 146 139 148
7 3 2 1 1 154 138 142 149
8 3 2 1 1 49 69 88 87
9 3 2 1 1 58 94 103 75
10 3 2 1 1 117 123 140 133
11 3 2 1 1 151 144 130 124
12 3 2 1 1 99 66 79 89
13 3 2 1 1 55 12 13 49
14 3 2 1 1 86 73 51 56
15 3 2 1 1 93 104 123 117
16 3 2 1 1 76 95 70 59
17 3 2 1 1 107 130 104 95
18 3 2 1 1 95 76 47 107
19 3 2 1 1 95 104 93 70
20 3 2 1 1 97 77 50 71
21 3 2 1 1 142 138 105 129
22 3 2 1 1 101 92 111 109
23 3 2 1 1 150 143 140 147
24 3 2 1 1 60 11 12 55
25 3 2 1 1 116 126 137 145
26 3 2 1 1 97 71 129 105
27 3 2 1 1 72 132 14 15
28 3 2 1 1 146 149 152 141
29 3 2 1 1 52 72 15 16
30 3 2 1 1 77 47 21 22
31 3 2 1 1 56 63 60 86
32 3 2 1 1 72 52 70 93
33 3 2 1 1 92 101 61 82
34 3 2 1 1 97 124 130 107
35 3 2 1 1 100 90 83 64
36 3 2 1 1 90 100 114 113
37 3 2 1 1 47 76 20 21
38 3 2 1 1 50 77 22 23
39 3 2 1 1 108 128 139 121
40 3 2 1 1 56 51 42 43
41 3 2 1 1 143 150 137 126
42 3 2 1 1 78 51 73 136
43 3 2 1 1 51 78 41 42
44 3 2 1 1 78 46 40 41
45 3 2 1 1 63 56 43 44
46 3 2 1 1 91 80 48 110
47 3 2 1 1 55 74 86 60
48 3 2 1 1 63 10 11 60
49 3 2 1 1 44 1 10 63
50 3 2 1 1 59 70 52 67
51 3 2 1 1 112 127 96 136
52 3 2 1 1 148 139 128 153
53 3 2 1 1 46 78 136 96
54 3 2 1 1 74 87 116 98
55 3 2 1 1 76 59 19 20
56 3 2 1 1 67 18 19 59
57 3 2 1 1 89 108 114 99
58 3 2 1 1 79 46 115 89
59 3 2 1 1 92 84 53 111
60 3 2 1 1 97 105 151 124
61 3 2 1 1 46 79 39 40
62 3 2 1 1 18 67 17 7
63 3 2 1 1 100 81 99 114
64 3 2 1 1 113 114 108 121
65 3 2 1 1 109 111 91 122
66 3 2 1 1 123 144 147 140
67 3 2 1 1 83 90 110 48
68 3 2 1 1 84 92 82 62
69 3 2 1 1 81 100 64 85
70 3 2 1 1 66 99 81 54
71 3 2 1 1 141 121 139 146
72 3 2 1 1 150 147 154 155
73 3 2 1 1 50 61 101 71
74 3 2 1 1 67 52 16 17
75 3 2 1 1 80 91 111 53
76 3 2 1 1 132 72 93 117
77 3 2 1 1 38 66 54 37
78 3 2 1 1 79 66 38 39
79 3 2 1 1 129 71 101 109
80 3 2 1 1 50 23 24 61
81 3 2 1 1 82 61 24 25
82 3 2 1 1 83 48 31 32
83 3 2 1 1 110 90 113 125
84 3 2 1 1 48 80 30 31
85 3 2 1 1 62 82 25 26
86 3 2 1 1 64 83 32 33
87 3 2 1 1 118 102 69 68
88 3 2 1 1 80 53 29 30
89 3 2 1 1 53 84 28 29
90 3 2 1 1 140 143 106 133
91 3 2 1 1 84 62 27 28
92 3 2 1 1 64 33 34 85
93 3 2 1 1 81 85 65 54
94 3 2 1 1 62 26 8 27
95 3 2 1 1 85 34 35 65
96 3 2 1 1 9 36 65 35
97 3 2 1 1 37 54 65 36
98 3 2 1 1 77 97 107 47
99 3 2 1 1 121 141 125 113
100 3 2 1 1 127 115 46 96
101 3 2 1 1 112 145 153 127
102 3 2 1 1 98 112 136 73
103 3 2 1 1 118 134 106 102
104 3 2 1 1 155 148 137 150
105 3 2 1 1 129 109 122 142
106 3 2 1 1 153 145 137 148
107 3 2 1 1 143 126 88 106
108 3 2 1 1 154 151 105 138
109 3 2 1 1 135 3 4 57
110 3 2 1 1 102 106 88 69
111 3 2 1 1 123 104 130 144
112 3 2 1 1 115 128 108 89
113 3 2 1 1 75 103 119 45
114 3 2 1 1 106 134 120 133
115 3 2 1 1 87 88 126 116
116 3 2 1 1 14 132 120 58
117 3 2 1 1 122 152 149 142
118 3 2 1 1 134 94 58 120
119 3 2 1 1 112 98 116 145
120 3 2 1 1 5 6 75 45
121 3 2 1 1 68 119 103 118
122 3 2 1 1 135 119 68 131
123 3 2 1 1 57 45 119 135
124 3 2 1 1 134 118 103 94
125 3 2 1 1 3 135 131 2
126 3 2 1 1 49 13 2 131
127 3 2 1 1 58 75 6 14
128 3 2 1 1 4 5 45 57
129 3 2 1 1 110 125 122 91
130 3 2 1 1 133 120 132 117
131 3 2 1 1 141 152 122 125
132 3 2 1 1 154 147 144 151
$EndElements
