$MeshFormat
2.2 0 8
$EndMeshFormat
$Nodes
121
1 0 0 0
2 51 0 0
3 100 0 0
4 100 100 0
5 51 100 0
6 0 100 0
7 10.2 0 0
8 20.4 0 0
9 30.6 0 0
10 40.8 0 0
11 60.8 0 0
12 70.6 0 0
13 80.4 0 0
14 90.2 0 0
15 100 10 0
16 100 20 0
17 100 30 0
18 100 40 0
19 100 50 0
20 100 60 0
21 100 70 0
22 100 80 0
23 100 90 0
24 90.2 100 0
25 80.4 100 0
26 70.6 100 0
27 60.8 100 0
28 40.8 100 0
29 30.6 100 0
30 20.4 100 0
31 10.2 100 0
32 0 90 0
33 0 80 0
34 0 70 0
35 0 60 0
36 0 50 0
37 0 40 0
38 0 30 0
39 0 20 0
40 0 10 0
41 50.6350521379343 9.9634961263554 0
42 40.7049920895077 89.939777689533 0
43 90.020320550862 60.0189847273115 0
44 10.0018046065378 40.0191793148993 0
45 90.1027271391089 29.8914254267894 0
46 10.0834821651329 79.9352964053784 0
47 70.5310694163771 90.00408315793 0
48 30.423243014725 10.0455113942691 0
49 80.3702441781928 9.87971581435583 0
50 90.0947292491586 80.0567684113675 0
51 20.3013944283214 89.931462634903 0
52 80.3197752828331 90.0432953092547 0
53 20.2724194386082 10.0475474888826 0
54 10.0243767569931 30.0396902208899 0
55 10.0709272716597 20.0430189812432 0
56 90.0421826333525 39.9484307130677 0
57 10.0162396771757 59.9631316198606 0
58 70.5045492010617 9.89178886601957 0
59 50.8043507876602 89.9388348436938 0
60 10.1337340302687 10.0261092397405 0
61 10.1421726352012 89.962748642391 0
62 90.1937891088926 9.92300079786483 0
63 90.1500792492257 90.0311964829731 0
64 50.6272616879723 79.918540893118 0
65 80.1756052015926 29.8497963273395 0
66 20.0076273354167 40.0410999966206 0
67 30.2383229498163 20.068184749878 0
68 20.2050087880216 79.8947808303454 0
69 80.2826156621972 19.8406492138726 0
70 20.0595816483482 30.0681778780657 0
71 30.494837705794 89.9343398356911 0
72 60.599851325368 9.92387625417649 0
73 40.5525228569672 10.0095556617356 0
74 10.0039082104423 49.9921832733882 0
75 90.0533483396498 70.0427529910885 0
76 90.0177840797028 49.984523410698 0
77 10.0485085138669 69.9428199230136 0
78 60.7079203094956 89.9593828630753 0
79 20.1567464012486 20.0634035733259 0
80 90.153124063419 19.9007324499135 0
81 80.2292874324841 80.0545780112956 0
82 80.0585397018843 59.9936118442334 0
83 30.3625023387271 79.8928515053279 0
84 60.3911840886351 19.8826024437398 0
85 40.3155092537846 20.0219892346457 0
86 60.5466143249408 79.9541059748694 0
87 40.5126924301564 79.9107086235891 0
88 80.1375752102494 70.0287501650466 0
89 70.3514887007686 19.8537433921705 0
90 20.0116878968963 49.9895173761229 0
91 80.0785488673783 39.9003588037532 0
92 30.0184771693843 40.0503025500384 0
93 30.0995803673841 30.0646780491723 0
94 20.1206520553965 69.9016919402731 0
95 70.3881776455104 80.0036370661143 0
96 50.3630561976782 69.9178410994759 0
97 30.0286255064153 49.9906680504948 0
98 40.3055908600242 69.9031646712124 0
99 70.2372166504965 69.9738305277296 0
100 70.2052711042575 29.8458166514562 0
101 50.370347070595 19.9548883877335 0
102 40.0416325988166 40.015879800123 0
103 40.144010765509 30.0205822734341 0
104 80.0431533045426 49.9408517183133 0
105 30.2157793033058 69.8952860003847 0
106 20.0579634410746 59.9409958676729 0
107 50.1626066729553 59.9136010648979 0
108 70.1142035957802 59.928880785032 0
109 50.186097303854 29.9426290443911 0
110 60.2130354061691 29.8728326433662 0
111 40.0545654181263 49.9684627971563 0
112 70.1034123254658 39.8614009948706 0
113 40.1500020496938 59.9255922489979 0
114 30.109524910107 59.9324600105915 0
115 60.3276919650393 69.9311767276145 0
116 50.0852855356422 39.9298521118622 0
117 60.1088516017762 39.871098405373 0
118 70.0735650385099 49.8933163398201 0
119 50.0823301140798 49.9168110836976 0
120 60.1625159796109 59.9030441566704 0
121 60.0987375297551 49.8881672219276 0
$EndNodes
$Elements
100
1 3 2 1 1 89 100 110 84
2 3 2 1 1 69 65 100 89
3 3 2 1 1 65 69 80 45
4 3 2 1 1 83 87 42 71
5 3 2 1 1 101 109 103 85
6 3 2 1 1 81 50 63 52
7 3 2 1 1 110 117 116 109
8 3 2 1 1 117 121 119 116
9 3 2 1 1 79 53 48 67
10 3 2 1 1 85 73 41 101
11 3 2 1 1 95 86 115 99
12 3 2 1 1 121 118 108 120
13 3 2 1 1 99 115 120 108
14 3 2 1 1 51 61 46 68
15 3 2 1 1 53 79 55 60
16 3 2 1 1 48 9 10 73
17 3 2 1 1 114 105 94 106
18 3 2 1 1 73 85 67 48
19 3 2 1 1 98 96 64 87
20 3 2 1 1 7 60 40 1
21 3 2 1 1 42 28 29 71
22 3 2 1 1 31 6 32 61
23 3 2 1 1 15 62 14 3
24 3 2 1 1 23 4 24 63
25 3 2 1 1 121 120 107 119
26 3 2 1 1 53 8 9 48
27 3 2 1 1 60 7 8 53
28 3 2 1 1 97 114 106 90
29 3 2 1 1 45 56 91 65
30 3 2 1 1 106 94 77 57
31 3 2 1 1 61 51 30 31
32 3 2 1 1 66 90 74 44
33 3 2 1 1 87 64 59 42
34 3 2 1 1 88 82 43 75
35 3 2 1 1 70 66 44 54
36 3 2 1 1 91 104 118 112
37 3 2 1 1 70 54 55 79
38 3 2 1 1 92 66 70 93
39 3 2 1 1 112 100 65 91
40 3 2 1 1 51 71 29 30
41 3 2 1 1 2 41 73 10
42 3 2 1 1 112 117 110 100
43 3 2 1 1 46 77 94 68
44 3 2 1 1 96 98 113 107
45 3 2 1 1 99 88 81 95
46 3 2 1 1 117 112 118 121
47 3 2 1 1 87 83 105 98
48 3 2 1 1 63 50 22 23
49 3 2 1 1 80 16 17 45
50 3 2 1 1 104 91 56 76
51 3 2 1 1 41 2 11 72
52 3 2 1 1 84 72 58 89
53 3 2 1 1 90 66 92 97
54 3 2 1 1 114 113 98 105
55 3 2 1 1 96 115 86 64
56 3 2 1 1 71 51 68 83
57 3 2 1 1 82 108 118 104
58 3 2 1 1 44 74 36 37
59 3 2 1 1 119 111 102 116
60 3 2 1 1 45 17 18 56
61 3 2 1 1 76 56 18 19
62 3 2 1 1 16 80 62 15
63 3 2 1 1 50 75 21 22
64 3 2 1 1 83 68 94 105
65 3 2 1 1 104 76 43 82
66 3 2 1 1 59 64 86 78
67 3 2 1 1 103 102 92 93
68 3 2 1 1 74 57 35 36
69 3 2 1 1 44 37 38 54
70 3 2 1 1 103 109 116 102
71 3 2 1 1 92 102 111 97
72 3 2 1 1 67 93 70 79
73 3 2 1 1 88 99 108 82
74 3 2 1 1 75 50 81 88
75 3 2 1 1 111 119 107 113
76 3 2 1 1 52 47 95 81
77 3 2 1 1 74 90 106 57
78 3 2 1 1 35 57 77 34
79 3 2 1 1 28 42 59 5
80 3 2 1 1 76 19 20 43
81 3 2 1 1 75 43 20 21
82 3 2 1 1 60 55 39 40
83 3 2 1 1 58 49 69 89
84 3 2 1 1 38 39 55 54
85 3 2 1 1 61 32 33 46
86 3 2 1 1 113 114 97 111
87 3 2 1 1 72 11 12 58
88 3 2 1 1 85 103 93 67
89 3 2 1 1 33 34 77 46
90 3 2 1 1 62 49 13 14
91 3 2 1 1 78 47 26 27
92 3 2 1 1 72 84 101 41
93 3 2 1 1 115 96 107 120
94 3 2 1 1 63 24 25 52
95 3 2 1 1 109 101 84 110
96 3 2 1 1 86 95 47 78
97 3 2 1 1 12 13 49 58
98 3 2 1 1 80 69 49 62
99 3 2 1 1 26 47 52 25
100 3 2 1 1 78 27 5 59
$EndElements
