$MeshFormat
2.2 0 8
$EndMeshFormat
$Nodes
121
1 0 0 0
2 100 0 0
3 100 100 0
4 0 100 0
5 10 0 0
6 20 0 0
7 30 0 0
8 40 0 0
9 50 0 0
10 60 0 0
11 70 0 0
12 80 0 0
13 90 0 0
14 100 10 0
15 100 20 0
16 100 30 0
17 100 40 0
18 100 50 0
19 100 60 0
20 100 70 0
21 100 80 0
22 100 90 0
23 90 100 0
24 80 100 0
25 70 100 0
26 60 100 0
27 50 100 0
28 40 100 0
29 30 100 0
30 20 100 0
31 10 100 0
32 0 90 0
33 0 80 0
34 0 70 0
35 0 60 0
36 0 50 0
37 0 40 0
38 0 30 0
39 0 20 0
40 0 10 0
41 9.99623353955619 50.0016288900706 0
42 59.9995763492506 10.0050021349127 0
43 90.0232683160956 50.0034538559758 0
44 29.9639059287021 90.0047389444154 0
45 39.9997044558029 10.0047667807073 0
46 59.9526072838453 90.0164093204068 0
47 90.0270998854336 70.0034279056004 0
48 9.99968620530169 30.0011254772561 0
49 89.9997178346935 20.0000615866999 0
50 90.0005102824952 90.0004754000377 0
51 9.99278071702009 80.000561499676 0
52 19.9999779826073 10.0005008727329 0
53 79.9999208291859 10.0004631428937 0
54 90.000304191085 30.0005133899488 0
55 69.9819169060522 90.0104387828001 0
56 39.9351475691615 90.0132623465839 0
57 9.99570033488771 90.0002681418031 0
58 9.99031229004166 70.0015255716074 0
59 9.99999558025756 10.0001005445333 0
60 89.9999548278775 10.0000657073874 0
61 59.9770600155371 80.0727808264272 0
62 29.9306593899191 80.0239488035724 0
63 9.9916063123904 60.002312596127 0
64 19.9697830995036 80.0067392943405 0
65 29.9998745501627 10.0026092853177 0
66 69.999725174655 10.0027549868481 0
67 90.0081778247114 40.0023010620583 0
68 19.9833292138155 90.0032210236972 0
69 79.9977049519517 20.0029438640731 0
70 90.0370061516635 60.0049353154914 0
71 90.0112952116677 80.0022107063795 0
72 19.9994009496715 20.0044661469767 0
73 79.9981888575803 90.0042278620198 0
74 9.99838654957473 40.0019024640359 0
75 9.99984644963489 20.0010169355279 0
76 49.9994118078299 10.0077744918866 0
77 49.9337541995925 90.0224763091754 0
78 59.98777853529 20.0381078700147 0
79 19.9867987742931 50.0237843021633 0
80 29.937299624698 70.0608661149495 0
81 80.0893093217141 60.0340547214212 0
82 80.0240648824407 80.0134727196361 0
83 39.9061870368229 80.0649208133425 0
84 79.9921128789413 30.0094161900222 0
85 39.9933497259105 20.0383129210962 0
86 29.9967339390294 20.0204638164822 0
87 70.0287010243107 80.0429356321849 0
88 69.9908591583316 20.018814468317 0
89 19.9971236154149 30.0150652788758 0
90 19.9676085260785 70.0170594295859 0
91 80.000496717719 40.0220498203038 0
92 49.9395275267747 80.0918768483587 0
93 50.0382623279991 70.2148806176309 0
94 29.9658182137676 60.0986480461768 0
95 39.9701621579384 30.1296249208152 0
96 60.1030871091928 70.1690778958344 0
97 69.9680879775615 30.0501006940937 0
98 39.9730232493769 70.158170890543 0
99 29.987456582849 30.0629935248947 0
100 80.0418415821497 50.0365338319133 0
101 80.0732030894842 70.0298048179068 0
102 19.9771491655566 60.0298577961517 0
103 19.9928246560516 40.0276458617221 0
104 49.9857042992163 20.0566181081832 0
105 50.0616547193788 60.3224592626532 0
106 29.9787797032288 50.1190962956557 0
107 49.9464366862579 30.1671714869068 0
108 70.1079276341955 60.120186777145 0
109 69.9608079006023 40.0937090855127 0
110 39.9878570422063 60.2272178482409 0
111 39.950783664059 40.2328956030738 0
112 70.0875671625679 70.0891837787293 0
113 59.9459630283711 30.1233901541423 0
114 29.9806764558797 40.1045308668028 0
115 49.9191634919736 40.2863876263913 0
116 49.9687085007822 50.321445476777 0
117 70.0163740171658 50.1279752665583 0
118 59.9324933855015 40.1925791636585 0
119 39.9758591074846 50.2307356684339 0
120 60.0711095479474 60.2257160584781 0
121 59.9864447485164 50.2301259380245 0
$EndNodes
$Elements
100
1 3 2 1 1 24 73 50 23
2 3 2 1 1 54 49 15 16
3 3 2 1 1 5 59 40 1
4 3 2 1 1 61 46 77 92
5 3 2 1 1 59 52 72 75
6 3 2 1 1 56 83 92 77
7 3 2 1 1 21 71 47 20
8 3 2 1 1 21 22 50 71
9 3 2 1 1 82 73 55 87
10 3 2 1 1 23 50 22 3
11 3 2 1 1 61 87 55 46
12 3 2 1 1 60 49 69 53
13 3 2 1 1 55 73 24 25
14 3 2 1 1 55 25 26 46
15 3 2 1 1 77 46 26 27
16 3 2 1 1 39 40 59 75
17 3 2 1 1 58 51 33 34
18 3 2 1 1 29 30 68 44
19 3 2 1 1 30 31 57 68
20 3 2 1 1 32 33 51 57
21 3 2 1 1 32 57 31 4
22 3 2 1 1 66 88 78 42
23 3 2 1 1 52 59 5 6
24 3 2 1 1 7 65 52 6
25 3 2 1 1 8 45 65 7
26 3 2 1 1 112 101 82 87
27 3 2 1 1 78 104 76 42
28 3 2 1 1 71 82 101 47
29 3 2 1 1 53 66 11 12
30 3 2 1 1 73 82 71 50
31 3 2 1 1 69 88 66 53
32 3 2 1 1 13 60 53 12
33 3 2 1 1 14 60 13 2
34 3 2 1 1 49 60 14 15
35 3 2 1 1 64 68 57 51
36 3 2 1 1 89 103 74 48
37 3 2 1 1 86 72 52 65
38 3 2 1 1 38 48 74 37
39 3 2 1 1 72 89 48 75
40 3 2 1 1 39 75 48 38
41 3 2 1 1 114 103 89 99
42 3 2 1 1 47 101 81 70
43 3 2 1 1 113 107 104 78
44 3 2 1 1 118 113 97 109
45 3 2 1 1 65 45 85 86
46 3 2 1 1 91 100 117 109
47 3 2 1 1 81 100 43 70
48 3 2 1 1 63 41 79 102
49 3 2 1 1 84 69 49 54
50 3 2 1 1 97 113 78 88
51 3 2 1 1 67 91 84 54
52 3 2 1 1 62 44 68 64
53 3 2 1 1 100 91 67 43
54 3 2 1 1 62 83 56 44
55 3 2 1 1 56 77 27 28
56 3 2 1 1 42 76 9 10
57 3 2 1 1 8 9 76 45
58 3 2 1 1 10 11 66 42
59 3 2 1 1 70 19 20 47
60 3 2 1 1 67 54 16 17
61 3 2 1 1 28 29 44 56
62 3 2 1 1 76 104 85 45
63 3 2 1 1 99 89 72 86
64 3 2 1 1 95 85 104 107
65 3 2 1 1 41 74 103 79
66 3 2 1 1 95 99 86 85
67 3 2 1 1 97 88 69 84
68 3 2 1 1 84 91 109 97
69 3 2 1 1 64 51 58 90
70 3 2 1 1 63 102 90 58
71 3 2 1 1 106 94 102 79
72 3 2 1 1 58 34 35 63
73 3 2 1 1 114 111 119 106
74 3 2 1 1 19 70 43 18
75 3 2 1 1 37 74 41 36
76 3 2 1 1 36 41 63 35
77 3 2 1 1 18 43 67 17
78 3 2 1 1 111 114 99 95
79 3 2 1 1 90 102 94 80
80 3 2 1 1 79 103 114 106
81 3 2 1 1 64 90 80 62
82 3 2 1 1 110 94 106 119
83 3 2 1 1 112 87 61 96
84 3 2 1 1 94 110 98 80
85 3 2 1 1 98 83 62 80
86 3 2 1 1 108 117 100 81
87 3 2 1 1 101 112 108 81
88 3 2 1 1 107 115 111 95
89 3 2 1 1 107 113 118 115
90 3 2 1 1 118 109 117 121
91 3 2 1 1 92 93 96 61
92 3 2 1 1 93 92 83 98
93 3 2 1 1 121 120 105 116
94 3 2 1 1 119 111 115 116
95 3 2 1 1 117 108 120 121
96 3 2 1 1 120 108 112 96
97 3 2 1 1 115 118 121 116
98 3 2 1 1 93 98 110 105
99 3 2 1 1 105 120 96 93
100 3 2 1 1 110 119 116 105
$EndElements
