$MeshFormat
2.2 0 8
$EndMeshFormat
$Nodes
121
1 0 0 0
2 1 0 0
3 2 0 0
4 3 0 0
5 4 0 0
6 5 0 0
7 6 0 0
8 7 0 0
9 8 0 0
10 9 0 0
11 10 0 0
12 10 1 0
13 10 2 0
14 10 3 0
15 10 4 0
16 10 5 0
17 10 6 0
18 10 7 0
19 10 8 0
20 10 9 0
21 10 10 0
22 9 10 0
23 8 10 0
24 7 10 0
25 6 10 0
26 5 10 0
27 4 10 0
28 3 10 0
29 2 10 0
30 1 10 0
31 0 10 0
32 0 9 0
33 0 8 0
34 0 7 0
35 0 6 0
36 0 5 0
37 0 4 0
38 0 3 0
39 0 2 0
40 0 1 0
41 5 5 0
42 4.00000182436901 0.999998175630985 0
43 7.00000053964012 0.999999460359883 0
44 8.99992720562563 4.00007279437437 0
45 8.99979204407373 6.00020795592627 0
46 6.00146459546036 8.99853540453964 0
47 3.00089454572416 8.99910545427584 0
48 1.00027385034834 5.99972614965166 0
49 1.00010252456643 3.99989747543357 0
50 1.00000124066988 0.999998759330118 0
51 9.00000008501956 0.999999914980443 0
52 9.00000547915201 8.99999452084799 0
53 1.00006526123752 8.99993473876248 0
54 3.00000348724968 0.99999651275032 0
55 6.00000088549492 0.999999114505078 0
56 9.00000061366739 1.99999938633261 0
57 8.99983964567898 7.00016035432102 0
58 7.00065551453006 8.99934448546994 0
59 4.00193641752312 8.99806358247688 0
60 1.00015796030795 7.99984203969205 0
61 1.00004320676253 2.99995679323747 0
62 4.00007219537983 1.99992780462017 0
63 7.00002321340861 1.99997678659139 0
64 7.99999848928222 6.00000151071778 0
65 3.00372447253359 7.99627552746641 0
66 6.00599664830638 7.99400335169362 0
67 2.00071488274102 3.99928511725898 0
68 2.00000388930136 0.999996110698644 0
69 5.00000556255014 0.999994437449864 0
70 8.00000173731382 0.999998262686177 0
71 8.99998299493007 3.00001700506993 0
72 8.99984519874311 5.00015480125689 0
73 8.99994427577366 8.00005572422634 0
74 8.0001603669116 8.9998396330884 0
75 5.00259954680913 8.99740045319087 0
76 2.00048689021391 8.99951310978609 0
77 1.00028441342268 6.99971558657732 0
78 1.00029327493565 4.99970672506435 0
79 1.00001431221133 1.99998568778867 0
80 3.00008447369962 1.99991552630038 0
81 6.00004857120912 1.99995142879088 0
82 8.00035165634719 6.99964834365281 0
83 4.00787556391992 7.99212443608008 0
84 8.00002791938835 2.99997208061165 0
85 7.99997614012319 4.00002385987681 0
86 2.00205206347021 6.99794793652979 0
87 2.00239241356622 5.99760758643377 0
88 8.00000957512752 1.99999042487248 0
89 7.00242812841536 7.99757187158464 0
90 2.00144898251019 7.99855101748981 0
91 2.00028079927358 2.99971920072642 0
92 7.99999470366828 5.00000529633172 0
93 2.00181228484246 4.99818771515754 0
94 2.00007894690981 1.99992105309019 0
95 8.00057104537284 7.99942895462716 0
96 5.00007098071608 1.99992901928392 0
97 5.009475243241 7.990524756759 0
98 5.00053631417585 2.99946368582415 0
99 7.00263815319776 4.99736184680224 0
100 5.01738417893923 6.98261582106077 0
101 3.00469019419734 4.99530980580266 0
102 7.00023285329877 2.99976714670123 0
103 3.00726973425147 6.99273026574853 0
104 4.00066267449539 2.99933732550461 0
105 7.00461384134863 5.99538615865137 0
106 6.01138891365847 6.98861108634153 0
107 3.00203452673622 3.99796547326378 0
108 3.00066652630372 2.99933347369628 0
109 7.00454200771856 6.99545799228144 0
110 5.00192239081559 3.99807760918441 0
111 4.00242094851144 3.99757905148856 0
112 6.00680718097214 4.99319281902786 0
113 6.01193841017517 5.98806158982483 0
114 6.00052242360873 2.99947757639127 0
115 4.013453896698 6.986546103302 0
116 7.00117773182926 3.99882226817074 0
117 3.00716431618065 5.99283568381935 0
118 5.01465273972061 5.98534726027939 0
119 4.01100826393585 5.98899173606415 0
120 4.00572717949752 4.99427282050248 0
121 6.0019068108815 3.9980931891185 0
$EndNodes
$Elements
100
1 3 2 1 1 82 109 105 64
2 3 2 1 1 68 94 79 50
3 3 2 1 1 80 94 68 54
4 3 2 1 1 92 85 44 72
5 3 2 1 1 74 95 73 52
6 3 2 1 1 44 85 84 71
7 3 2 1 1 73 95 82 57
8 3 2 1 1 89 95 74 58
9 3 2 1 1 79 94 91 61
10 3 2 1 1 42 62 80 54
11 3 2 1 1 80 108 91 94
12 3 2 1 1 81 114 98 96
13 3 2 1 1 102 114 81 63
14 3 2 1 1 89 109 82 95
15 3 2 1 1 67 107 101 93
16 3 2 1 1 39 79 61 38
17 3 2 1 1 50 79 39 40
18 3 2 1 1 116 102 84 85
19 3 2 1 1 99 116 85 92
20 3 2 1 1 49 78 36 37
21 3 2 1 1 78 48 35 36
22 3 2 1 1 117 103 86 87
23 3 2 1 1 34 77 60 33
24 3 2 1 1 48 77 34 35
25 3 2 1 1 33 60 53 32
26 3 2 1 1 101 117 87 93
27 3 2 1 1 32 53 30 31
28 3 2 1 1 62 104 108 80
29 3 2 1 1 59 83 97 75
30 3 2 1 1 65 83 59 47
31 3 2 1 1 60 90 76 53
32 3 2 1 1 86 90 60 77
33 3 2 1 1 61 91 67 49
34 3 2 1 1 57 82 64 45
35 3 2 1 1 84 88 56 71
36 3 2 1 1 69 96 62 42
37 3 2 1 1 56 88 70 51
38 3 2 1 1 55 81 96 69
39 3 2 1 1 98 104 62 96
40 3 2 1 1 63 81 55 43
41 3 2 1 1 38 61 49 37
42 3 2 1 1 70 88 63 43
43 3 2 1 1 84 102 63 88
44 3 2 1 1 64 92 72 45
45 3 2 1 1 64 105 99 92
46 3 2 1 1 76 90 65 47
47 3 2 1 1 86 103 65 90
48 3 2 1 1 93 87 48 78
49 3 2 1 1 75 97 66 46
50 3 2 1 1 48 87 86 77
51 3 2 1 1 66 106 109 89
52 3 2 1 1 67 93 78 49
53 3 2 1 1 46 66 89 58
54 3 2 1 1 12 51 10 11
55 3 2 1 1 23 74 52 22
56 3 2 1 1 22 52 20 21
57 3 2 1 1 19 73 57 18
58 3 2 1 1 52 73 19 20
59 3 2 1 1 18 57 45 17
60 3 2 1 1 72 44 15 16
61 3 2 1 1 104 111 107 108
62 3 2 1 1 14 71 56 13
63 3 2 1 1 44 71 14 15
64 3 2 1 1 13 56 51 12
65 3 2 1 1 45 72 16 17
66 3 2 1 1 51 70 9 10
67 3 2 1 1 9 70 43 8
68 3 2 1 1 43 55 7 8
69 3 2 1 1 55 69 6 7
70 3 2 1 1 69 42 5 6
71 3 2 1 1 42 54 4 5
72 3 2 1 1 54 68 3 4
73 3 2 1 1 3 68 50 2
74 3 2 1 1 2 50 40 1
75 3 2 1 1 75 46 25 26
76 3 2 1 1 47 59 27 28
77 3 2 1 1 58 74 23 24
78 3 2 1 1 53 76 29 30
79 3 2 1 1 29 76 47 28
80 3 2 1 1 111 104 98 110
81 3 2 1 1 91 108 107 67
82 3 2 1 1 59 75 26 27
83 3 2 1 1 46 58 24 25
84 3 2 1 1 102 116 121 114
85 3 2 1 1 112 41 110 121
86 3 2 1 1 110 98 114 121
87 3 2 1 1 116 99 112 121
88 3 2 1 1 111 120 101 107
89 3 2 1 1 103 115 83 65
90 3 2 1 1 41 120 111 110
91 3 2 1 1 100 106 66 97
92 3 2 1 1 101 120 119 117
93 3 2 1 1 106 113 105 109
94 3 2 1 1 83 115 100 97
95 3 2 1 1 103 117 119 115
96 3 2 1 1 105 113 112 99
97 3 2 1 1 119 120 41 118
98 3 2 1 1 100 115 119 118
99 3 2 1 1 113 106 100 118
100 3 2 1 1 118 41 112 113
$EndElements
