$MeshFormat
2.2 0 8
$EndMeshFormat
$Nodes
124
1 0 0 0
2 1 0 0
3 2 0 0
4 3 0 0
5 4 0 0
6 5 0 0
7 6 0 0
8 7 0 0
9 8 0 0
10 9 0 0
11 10 0 0
12 10 1 0
13 10 2 0
14 10 3 0
15 10 4 0
16 10 5 0
17 10 6 0
18 10 7 0
19 10 8 0
20 10 9 0
21 10 10 0
22 9 10 0
23 8 10 0
24 7 10 0
25 6 10 0
26 5 10 0
27 4 10 0
28 3 10 0
29 2 10 0
30 1 10 0
31 0 10 0
32 0 9 0
33 0 8 0
34 0 7 0
35 0 6 0
36 0 5 0
37 0 4 0
38 0 3 0
39 0 2 0
40 0 1 0
41 9 1 0
42 9 2 0
43 9 3 0
44 9 4 0
45 9 5 0
46 9 6 0
47 9 7 0
48 9 8 0
49 9 9 0
50 1 1 0
51 1 2 0
52 1 3 0
53 1 4 0
54 1 5 0
55 1 6 0
56 1 7 0
57 1 8 0
58 1 9 0
59 1 0.5 0
60 1 9.5 0
61 2 1 0
62 2 2 0
63 2 3 0
64 2 4 0
65 2 5 0
66 2 6 0
67 2 7 0
68 2 8 0
69 2 9 0
70 4 1 0
71 4 2 0
72 4 3 0
73 4 4 0
74 4 5 0
75 4 6 0
76 4 7 0
77 4 8 0
78 4 9 0
79 5 9 0
80 6 1 0
81 6 2 0
82 6 3 0
83 6 4 0
84 6 5 0
85 6 6 0
86 6 7 0
87 6 8 0
88 6 9 0
89 7 9 0
90 8 1 0
91 8 2 0
92 8 3 0
93 8 4 0
94 8 5 0
95 8 6 0
96 8 7 0
97 8 8 0
98 8 9 0
99 9 9.5 0
100 3 1 0
101 5 1 0
102 7 1 0
103 3 9 0
104 3 3 0
105 3 5 0
106 3 7 0
107 5 8 0
108 7 2 0
109 7 3 0
110 7 4 0
111 7 5 0
112 7 6 0
113 7 8 0
114 5 3 0
115 5 5 0
116 5 7 0
117 3 2 0
118 3 4 0
119 3 6 0
120 3 8 0
121 5 2 0
122 7 7 0
123 5 4 0
124 5 6 0
$EndNodes
$Elements
106
1 2 2 1 1 22 23 99 
2 2 2 1 1 99 21 22 
3 2 2 1 1 30 31 60 
4 2 2 1 1 60 29 30 
5 2 2 1 1 59 61 50 
6 2 2 1 1 50 40 59 
7 3 2 1 1 40 50 51 39
8 3 2 1 1 51 50 61 62
9 3 2 1 1 11 12 41 10
10 3 2 1 1 9 10 41 90
11 3 2 1 1 12 13 42 41
12 3 2 1 1 13 14 43 42
13 3 2 1 1 14 15 44 43
14 3 2 1 1 15 16 45 44
15 3 2 1 1 16 17 46 45
16 3 2 1 1 17 18 47 46
17 3 2 1 1 49 48 19 20
18 3 2 1 1 18 19 48 47
19 3 2 1 1 23 24 89 98
20 3 2 1 1 24 25 88 89
21 3 2 1 1 25 26 79 88
22 3 2 1 1 26 27 78 79
23 3 2 1 1 58 32 33 57
24 3 2 1 1 34 56 57 33
25 3 2 1 1 35 55 56 34
26 3 2 1 1 36 54 55 35
27 3 2 1 1 37 53 54 36
28 3 2 1 1 38 52 53 37
29 3 2 1 1 39 51 52 38
30 3 2 1 1 42 91 90 41
31 3 2 1 1 43 92 91 42
32 3 2 1 1 44 93 92 43
33 3 2 1 1 45 94 93 44
34 3 2 1 1 46 95 94 45
35 3 2 1 1 47 96 95 46
36 3 2 1 1 48 97 96 47
37 3 2 1 1 49 98 97 48
38 3 2 1 1 52 51 62 63
39 3 2 1 1 53 52 63 64
40 3 2 1 1 54 53 64 65
41 3 2 1 1 55 54 65 66
42 3 2 1 1 56 55 66 67
43 3 2 1 1 57 56 67 68
44 3 2 1 1 58 57 68 69
45 3 2 1 1 3 4 100 61
46 3 2 1 1 5 70 100 4
47 3 2 1 1 5 6 101 70
48 3 2 1 1 6 7 80 101
49 3 2 1 1 7 8 102 80
50 3 2 1 1 9 90 102 8
51 3 2 1 1 29 69 103 28
52 3 2 1 1 27 28 103 78
53 3 2 1 1 61 100 117 62
54 3 2 1 1 63 62 117 104
55 3 2 1 1 63 104 118 64
56 3 2 1 1 65 64 118 105
57 3 2 1 1 65 105 119 66
58 3 2 1 1 67 66 119 106
59 3 2 1 1 69 68 120 103
60 3 2 1 1 67 106 120 68
61 3 2 1 1 121 71 70 101
62 3 2 1 1 121 114 72 71
63 3 2 1 1 70 71 117 100
64 3 2 1 1 72 104 117 71
65 3 2 1 1 72 73 118 104
66 3 2 1 1 74 105 118 73
67 3 2 1 1 72 114 123 73
68 3 2 1 1 74 73 123 115
69 3 2 1 1 74 75 119 105
70 3 2 1 1 76 106 119 75
71 3 2 1 1 74 115 124 75
72 3 2 1 1 76 75 124 116
73 3 2 1 1 77 76 116 107
74 3 2 1 1 78 77 107 79
75 3 2 1 1 78 103 120 77
76 3 2 1 1 76 77 120 106
77 3 2 1 1 80 81 121 101
78 3 2 1 1 80 102 108 81
79 3 2 1 1 81 108 109 82
80 3 2 1 1 81 82 114 121
81 3 2 1 1 83 123 114 82
82 3 2 1 1 82 109 110 83
83 3 2 1 1 84 83 110 111
84 3 2 1 1 85 84 111 112
85 3 2 1 1 83 84 115 123
86 3 2 1 1 85 124 115 84
87 3 2 1 1 86 85 112 122
88 3 2 1 1 87 107 116 86
89 3 2 1 1 87 86 122 113
90 3 2 1 1 85 86 116 124
91 3 2 1 1 79 107 87 88
92 3 2 1 1 88 87 113 89
93 3 2 1 1 98 89 113 97
94 3 2 1 1 90 91 108 102
95 3 2 1 1 91 92 109 108
96 3 2 1 1 92 93 110 109
97 3 2 1 1 94 111 110 93
98 3 2 1 1 95 112 111 94
99 3 2 1 1 95 96 122 112
100 3 2 1 1 97 113 122 96
101 3 2 1 1 61 59 2 3
102 3 2 1 1 40 1 2 59
103 3 2 1 1 21 99 49 20
104 3 2 1 1 31 32 58 60
105 3 2 1 1 23 98 49 99
106 3 2 1 1 29 60 58 69
$EndElements
