$MeshFormat
2.2 0 8
$EndMeshFormat
$Nodes
124
1 0 0 0
2 10 0 0
3 10 10 0
4 0 10 0
5 9 1 0
6 9 2 0
7 9 3 0
8 9 4 0
9 9 5 0
10 9 6 0
11 9 7 0
12 9 8 0
13 9 9 0
14 1 1 0
15 1 2 0
16 1 3 0
17 1 4 0
18 1 5 0
19 1 6 0
20 1 7 0
21 1 8 0
22 1 9 0
23 1 0.5 0
24 1 9.5 0
25 2 1 0
26 2 2 0
27 2 3 0
28 2 4 0
29 2 5 0
30 2 6 0
31 2 7 0
32 2 8 0
33 2 9 0
34 4 1 0
35 4 2 0
36 4 3 0
37 4 4 0
38 4 5 0
39 4 6 0
40 4 7 0
41 4 8 0
42 4 9 0
43 5 9 0
44 6 1 0
45 6 2 0
46 6 3 0
47 6 4 0
48 6 5 0
49 6 6 0
50 6 7 0
51 6 8 0
52 6 9 0
53 7 9 0
54 8 1 0
55 8 2 0
56 8 3 0
57 8 4 0
58 8 5 0
59 8 6 0
60 8 7 0
61 8 8 0
62 8 9 0
63 9 9.5 0
64 1 0 0
65 2 0 0
66 3 0 0
67 4 0 0
68 5 0 0
69 6 0 0
70 7 0 0
71 8 0 0
72 9 0 0
73 10 1 0
74 10 2 0
75 10 3 0
76 10 4 0
77 10 5 0
78 10 6 0
79 10 7 0
80 10 8 0
81 10 9 0
82 9 10 0
83 8 10 0
84 7 10 0
85 6 10 0
86 5 10 0
87 4 10 0
88 3 10 0
89 2 10 0
90 1 10 0
91 0 9 0
92 0 8 0
93 0 7 0
94 0 6 0
95 0 5 0
96 0 4 0
97 0 3 0
98 0 2 0
99 0 1 0
100 3 9 0
101 7 1 0
102 3 1 0
103 3 3 0
104 3 5 0
105 3 7 0
106 5 1 0
107 5 8 0
108 7 2 0
109 7 3 0
110 7 4 0
111 7 5 0
112 7 6 0
113 7 8 0
114 5 3 0
115 5 5 0
116 5 7 0
117 3 2 0
118 3 4 0
119 3 6 0
120 3 8 0
121 5 2 0
122 7 7 0
123 5 4 0
124 5 6 0
$EndNodes
$Elements
106
1 2 2 1 1 13 81 63 
2 2 2 1 1 63 62 13 
3 2 2 1 1 14 99 23 
4 2 2 1 1 23 25 14 
5 2 2 1 1 24 91 22 
6 2 2 1 1 22 33 24 
7 3 2 1 1 15 98 99 14
8 3 2 1 1 21 32 33 22
9 3 2 1 1 54 71 72 5
10 3 2 1 1 80 12 11 79
11 3 2 1 1 13 12 80 81
12 3 2 1 1 98 15 16 97
13 3 2 1 1 76 8 7 75
14 3 2 1 1 72 2 73 5
15 3 2 1 1 6 55 54 5
16 3 2 1 1 6 5 73 74
17 3 2 1 1 75 7 6 74
18 3 2 1 1 6 7 56 55
19 3 2 1 1 8 57 56 7
20 3 2 1 1 76 77 9 8
21 3 2 1 1 9 58 57 8
22 3 2 1 1 78 10 9 77
23 3 2 1 1 10 59 58 9
24 3 2 1 1 79 11 10 78
25 3 2 1 1 11 60 59 10
26 3 2 1 1 12 61 60 11
27 3 2 1 1 13 62 61 12
28 3 2 1 1 14 25 26 15
29 3 2 1 1 97 16 17 96
30 3 2 1 1 15 26 27 16
31 3 2 1 1 96 17 18 95
32 3 2 1 1 16 27 28 17
33 3 2 1 1 17 28 29 18
34 3 2 1 1 19 94 95 18
35 3 2 1 1 18 29 30 19
36 3 2 1 1 20 93 94 19
37 3 2 1 1 93 20 21 92
38 3 2 1 1 19 30 31 20
39 3 2 1 1 20 31 32 21
40 3 2 1 1 22 91 92 21
41 3 2 1 1 87 42 43 86
42 3 2 1 1 53 84 85 52
43 3 2 1 1 43 52 85 86
44 3 2 1 1 84 53 62 83
45 3 2 1 1 89 33 100 88
46 3 2 1 1 71 54 101 70
47 3 2 1 1 44 106 68 69
48 3 2 1 1 67 34 102 66
49 3 2 1 1 26 25 102 117
50 3 2 1 1 66 102 25 65
51 3 2 1 1 117 103 27 26
52 3 2 1 1 27 103 118 28
53 3 2 1 1 29 28 118 104
54 3 2 1 1 29 104 119 30
55 3 2 1 1 31 30 119 105
56 3 2 1 1 100 33 32 120
57 3 2 1 1 31 105 120 32
58 3 2 1 1 121 35 34 106
59 3 2 1 1 102 34 35 117
60 3 2 1 1 67 68 106 34
61 3 2 1 1 121 114 36 35
62 3 2 1 1 35 36 103 117
63 3 2 1 1 36 37 118 103
64 3 2 1 1 38 104 118 37
65 3 2 1 1 36 114 123 37
66 3 2 1 1 38 37 123 115
67 3 2 1 1 38 39 119 104
68 3 2 1 1 40 105 119 39
69 3 2 1 1 38 115 124 39
70 3 2 1 1 40 39 124 116
71 3 2 1 1 41 40 116 107
72 3 2 1 1 42 41 107 43
73 3 2 1 1 40 41 120 105
74 3 2 1 1 88 100 42 87
75 3 2 1 1 41 42 100 120
76 3 2 1 1 70 101 44 69
77 3 2 1 1 45 44 101 108
78 3 2 1 1 44 45 121 106
79 3 2 1 1 45 108 109 46
80 3 2 1 1 45 46 114 121
81 3 2 1 1 47 123 114 46
82 3 2 1 1 46 109 110 47
83 3 2 1 1 48 47 110 111
84 3 2 1 1 49 48 111 112
85 3 2 1 1 47 48 115 123
86 3 2 1 1 49 124 115 48
87 3 2 1 1 50 49 112 122
88 3 2 1 1 51 107 116 50
89 3 2 1 1 51 50 122 113
90 3 2 1 1 49 50 116 124
91 3 2 1 1 43 107 51 52
92 3 2 1 1 52 51 113 53
93 3 2 1 1 62 53 113 61
94 3 2 1 1 101 54 55 108
95 3 2 1 1 55 56 109 108
96 3 2 1 1 56 57 110 109
97 3 2 1 1 58 111 110 57
98 3 2 1 1 59 112 111 58
99 3 2 1 1 59 60 122 112
100 3 2 1 1 61 113 122 60
101 3 2 1 1 81 3 82 63
102 3 2 1 1 91 24 90 4
103 3 2 1 1 62 63 82 83
104 3 2 1 1 99 1 64 23
105 3 2 1 1 25 23 64 65
106 3 2 1 1 33 89 90 24
$EndElements
