$MeshFormat
2.2 0 8
$EndMeshFormat
$Nodes
560
1 30 30 0
2 70 30 0
3 70 70 0
4 30 70 0
5 0 0 0
6 100 0 0
7 0 100 0
8 100 100 0
9 40 30 0
10 50 30 0
11 60 30 0
12 70 40 0
13 70 50 0
14 70 60 0
15 60 70 0
16 50 70 0
17 40 70 0
18 30 60 0
19 30 50 0
20 30 40 0
21 10 0 0
22 20 0 0
23 30 0 0
24 40 0 0
25 50 0 0
26 60 0 0
27 70 0 0
28 80 0 0
29 90 0 0
30 0 90 0
31 0 80 0
32 0 70 0
33 0 60 0
34 0 50 0
35 0 40 0
36 0 30 0
37 0 20 0
38 0 10 0
39 100 10 0
40 100 20 0
41 100 30 0
42 100 40 0
43 100 50 0
44 100 60 0
45 100 70 0
46 100 80 0
47 100 90 0
48 90 100 0
49 80 100 0
50 70 100 0
51 60 100 0
52 50 100 0
53 40 100 0
54 30 100 0
55 20 100 0
56 10 100 0
57 10 40 0
58 70 10 0
59 90 60 0
60 30 90 0
61 40 10 0
62 60 10 0
63 90 30 0
64 40 90 0
65 70 80 0
66 20 60 0
67 10 10 0
68 90 10 0
69 10 90 0
70 90 90 0
71 20 30 0
72 80 70 0
73 80 60 0
74 20 40 0
75 30 20 0
76 60 20 0
77 80 40 0
78 40 80 0
79 40 20 0
80 30 10 0
81 10 30 0
82 90 70 0
83 60 80 0
84 90 40 0
85 10 80 0
86 10 70 0
87 10 60 0
88 70 90 0
89 50 90 0
90 70 20 0
91 30 80 0
92 10 50 0
93 90 50 0
94 80 30 0
95 80 10 0
96 20 90 0
97 50 20 0
98 50 80 0
99 80 50 0
100 20 50 0
101 20 10 0
102 20 20 0
103 50 10 0
104 90 20 0
105 60 90 0
106 80 80 0
107 20 70 0
108 10 20 0
109 90 80 0
110 80 90 0
111 20 80 0
112 80 20 0
113 100 0 0
114 100 100 0
115 200 0 0
116 200 100 0
117 130 30 0
118 170 30 0
119 170 70 0
120 130 70 0
121 100 10 0
122 100 20 0
123 100 30 0
124 100 40 0
125 100 50 0
126 100 60 0
127 100 70 0
128 100 80 0
129 100 90 0
130 110 0 0
131 120 0 0
132 130 0 0
133 140 0 0
134 150 0 0
135 160 0 0
136 170 0 0
137 180 0 0
138 190 0 0
139 200 10 0
140 200 20 0
141 200 30 0
142 200 40 0
143 200 50 0
144 200 60 0
145 200 70 0
146 200 80 0
147 200 90 0
148 190 100 0
149 180 100 0
150 170 100 0
151 160 100 0
152 150 100 0
153 140 100 0
154 130 100 0
155 120 100 0
156 110 100 0
157 140 30 0
158 150 30 0
159 160 30 0
160 170 40 0
161 170 50 0
162 170 60 0
163 160 70 0
164 150 70 0
165 140 70 0
166 130 60 0
167 130 50 0
168 130 40 0
169 190 60 0
170 110 70 0
171 110 40 0
172 190 30 0
173 130 10 0
174 170 10 0
175 170 90 0
176 130 90 0
177 120 50 0
178 150 10 0
179 150 90 0
180 110 90 0
181 110 20 0
182 190 10 0
183 190 90 0
184 180 70 0
185 180 60 0
186 120 30 0
187 180 40 0
188 120 60 0
189 110 60 0
190 190 70 0
191 190 40 0
192 130 20 0
193 160 20 0
194 170 80 0
195 140 80 0
196 110 10 0
197 140 20 0
198 160 80 0
199 120 70 0
200 190 50 0
201 180 30 0
202 110 30 0
203 110 50 0
204 110 80 0
205 190 20 0
206 180 50 0
207 180 80 0
208 170 20 0
209 130 80 0
210 120 10 0
211 140 10 0
212 160 10 0
213 190 80 0
214 180 90 0
215 160 90 0
216 140 90 0
217 150 20 0
218 150 80 0
219 120 40 0
220 120 20 0
221 180 10 0
222 120 90 0
223 120 80 0
224 180 20 0
225 200 0 0
226 200 100 0
227 300 0 0
228 300 100 0
229 230 30 0
230 270 30 0
231 270 70 0
232 230 70 0
233 200 10 0
234 200 20 0
235 200 30 0
236 200 40 0
237 200 50 0
238 200 60 0
239 200 70 0
240 200 80 0
241 200 90 0
242 210 0 0
243 220 0 0
244 230 0 0
245 240 0 0
246 250 0 0
247 260 0 0
248 270 0 0
249 280 0 0
250 290 0 0
251 300 10 0
252 300 20 0
253 300 30 0
254 300 40 0
255 300 50 0
256 300 60 0
257 300 70 0
258 300 80 0
259 300 90 0
260 290 100 0
261 280 100 0
262 270 100 0
263 260 100 0
264 250 100 0
265 240 100 0
266 230 100 0
267 220 100 0
268 210 100 0
269 240 30 0
270 250 30 0
271 260 30 0
272 270 40 0
273 270 50 0
274 270 60 0
275 260 70 0
276 250 70 0
277 240 70 0
278 230 60 0
279 230 50 0
280 230 40 0
281 290 60 0
282 210 70 0
283 210 40 0
284 290 30 0
285 210 30 0
286 230 10 0
287 270 10 0
288 270 90 0
289 230 90 0
290 220 50 0
291 250 10 0
292 250 90 0
293 210 90 0
294 210 20 0
295 290 10 0
296 290 90 0
297 280 70 0
298 220 60 0
299 280 60 0
300 280 40 0
301 210 60 0
302 290 70 0
303 220 30 0
304 290 40 0
305 230 20 0
306 260 20 0
307 270 80 0
308 240 80 0
309 210 10 0
310 240 20 0
311 260 80 0
312 220 70 0
313 290 50 0
314 280 30 0
315 210 80 0
316 210 50 0
317 290 20 0
318 280 50 0
319 220 20 0
320 280 80 0
321 270 20 0
322 230 80 0
323 220 10 0
324 240 10 0
325 260 10 0
326 290 80 0
327 280 90 0
328 260 90 0
329 240 90 0
330 250 20 0
331 250 80 0
332 220 40 0
333 280 10 0
334 220 90 0
335 220 80 0
336 280 20 0
337 300 0 0
338 300 100 0
339 400 0 0
340 400 100 0
341 330 30 0
342 370 30 0
343 370 70 0
344 330 70 0
345 300 10 0
346 300 20 0
347 300 30 0
348 300 40 0
349 300 50 0
350 300 60 0
351 300 70 0
352 300 80 0
353 300 90 0
354 310 0 0
355 320 0 0
356 330 0 0
357 340 0 0
358 350 0 0
359 360 0 0
360 370 0 0
361 380 0 0
362 390 0 0
363 400 10 0
364 400 20 0
365 400 30 0
366 400 40 0
367 400 50 0
368 400 60 0
369 400 70 0
370 400 80 0
371 400 90 0
372 390 100 0
373 380 100 0
374 370 100 0
375 360 100 0
376 350 100 0
377 340 100 0
378 330 100 0
379 320 100 0
380 310 100 0
381 340 30 0
382 350 30 0
383 360 30 0
384 370 40 0
385 370 50 0
386 370 60 0
387 360 70 0
388 350 70 0
389 340 70 0
390 330 60 0
391 330 50 0
392 330 40 0
393 390 60 0
394 310 70 0
395 310 40 0
396 390 30 0
397 330 10 0
398 370 10 0
399 370 90 0
400 330 90 0
401 320 50 0
402 350 10 0
403 350 90 0
404 310 90 0
405 310 20 0
406 390 10 0
407 390 90 0
408 380 70 0
409 380 60 0
410 320 30 0
411 380 40 0
412 320 60 0
413 310 60 0
414 390 70 0
415 390 40 0
416 330 20 0
417 360 20 0
418 370 80 0
419 340 80 0
420 310 10 0
421 340 20 0
422 360 80 0
423 320 70 0
424 390 50 0
425 380 30 0
426 310 30 0
427 310 50 0
428 310 80 0
429 390 20 0
430 380 50 0
431 380 80 0
432 370 20 0
433 330 80 0
434 320 10 0
435 340 10 0
436 360 10 0
437 390 80 0
438 380 90 0
439 360 90 0
440 340 90 0
441 350 20 0
442 350 80 0
443 320 40 0
444 320 20 0
445 380 10 0
446 320 90 0
447 320 80 0
448 380 20 0
449 400 0 0
450 400 100 0
451 500 0 0
452 500 100 0
453 430 30 0
454 470 30 0
455 470 70 0
456 430 70 0
457 400 10 0
458 400 20 0
459 400 30 0
460 400 40 0
461 400 50 0
462 400 60 0
463 400 70 0
464 400 80 0
465 400 90 0
466 410 0 0
467 420 0 0
468 430 0 0
469 440 0 0
470 450 0 0
471 460 0 0
472 470 0 0
473 480 0 0
474 490 0 0
475 500 10 0
476 500 20 0
477 500 30 0
478 500 40 0
479 500 50 0
480 500 60 0
481 500 70 0
482 500 80 0
483 500 90 0
484 490 100 0
485 480 100 0
486 470 100 0
487 460 100 0
488 450 100 0
489 440 100 0
490 430 100 0
491 420 100 0
492 410 100 0
493 440 30 0
494 450 30 0
495 460 30 0
496 470 40 0
497 470 50 0
498 470 60 0
499 460 70 0
500 450 70 0
501 440 70 0
502 430 60 0
503 430 50 0
504 430 40 0
505 490 60 0
506 410 70 0
507 410 40 0
508 490 30 0
509 410 30 0
510 430 10 0
511 470 10 0
512 470 90 0
513 430 90 0
514 420 50 0
515 450 10 0
516 450 90 0
517 410 90 0
518 410 10 0
519 490 10 0
520 490 90 0
521 480 70 0
522 420 60 0
523 480 60 0
524 480 40 0
525 410 60 0
526 490 70 0
527 420 30 0
528 490 40 0
529 430 20 0
530 460 20 0
531 470 80 0
532 440 80 0
533 440 20 0
534 460 80 0
535 420 70 0
536 490 50 0
537 480 30 0
538 410 80 0
539 410 20 0
540 410 50 0
541 490 20 0
542 480 50 0
543 480 80 0
544 470 20 0
545 430 80 0
546 420 10 0
547 440 10 0
548 460 10 0
549 490 80 0
550 480 90 0
551 460 90 0
552 440 90 0
553 450 20 0
554 450 80 0
555 420 40 0
556 420 20 0
557 480 10 0
558 420 90 0
559 420 80 0
560 480 20 0
$EndNodes
$Elements
420
1 3 2 1 1 68 39 40 104
2 3 2 1 1 54 55 96 60
3 3 2 1 1 105 51 52 89
4 3 2 1 1 88 50 51 105
5 3 2 1 1 88 110 49 50
6 3 2 1 1 49 110 70 48
7 3 2 1 1 48 70 47 8
8 3 2 1 1 46 109 82 45
9 3 2 1 1 70 109 46 47
10 3 2 1 1 82 59 44 45
11 3 2 1 1 84 63 41 42
12 3 2 1 1 55 56 69 96
13 3 2 1 1 63 104 40 41
14 3 2 1 1 67 108 37 38
15 3 2 1 1 87 86 32 33
16 3 2 1 1 86 85 31 32
17 3 2 1 1 31 85 69 30
18 3 2 1 1 30 69 56 7
19 3 2 1 1 39 68 29 6
20 3 2 1 1 28 29 68 95
21 3 2 1 1 24 25 103 61
22 3 2 1 1 79 75 80 61
23 3 2 1 1 109 70 110 106
24 3 2 1 1 105 89 98 83
25 3 2 1 1 107 4 91 111
26 3 2 1 1 96 111 91 60
27 3 2 1 1 85 86 107 111
28 3 2 1 1 96 69 85 111
29 3 2 1 1 84 77 94 63
30 3 2 1 1 83 65 88 105
31 3 2 1 1 103 97 79 61
32 3 2 1 1 74 71 1 20
33 3 2 1 1 78 98 89 64
34 3 2 1 1 75 102 101 80
35 3 2 1 1 109 106 72 82
36 3 2 1 1 75 1 71 102
37 3 2 1 1 102 108 67 101
38 3 2 1 1 66 107 86 87
39 3 2 1 1 110 88 65 106
40 3 2 1 1 91 78 64 60
41 3 2 1 1 97 103 62 76
42 3 2 1 1 4 107 66 18
43 3 2 1 1 78 17 16 98
44 3 2 1 1 15 83 98 16
45 3 2 1 1 3 72 106 65
46 3 2 1 1 20 19 100 74
47 3 2 1 1 3 65 83 15
48 3 2 1 1 21 67 38 5
49 3 2 1 1 1 75 79 9
50 3 2 1 1 14 13 99 73
51 3 2 1 1 19 18 66 100
52 3 2 1 1 13 12 77 99
53 3 2 1 1 73 72 3 14
54 3 2 1 1 91 4 17 78
55 3 2 1 1 90 2 11 76
56 3 2 1 1 22 101 67 21
57 3 2 1 1 9 79 97 10
58 3 2 1 1 76 11 10 97
59 3 2 1 1 80 101 22 23
60 3 2 1 1 81 108 102 71
61 3 2 1 1 37 108 81 36
62 3 2 1 1 77 12 2 94
63 3 2 1 1 24 61 80 23
64 3 2 1 1 81 71 74 57
65 3 2 1 1 82 72 73 59
66 3 2 1 1 64 89 52 53
67 3 2 1 1 53 54 60 64
68 3 2 1 1 90 76 62 58
69 3 2 1 1 2 90 112 94
70 3 2 1 1 62 103 25 26
71 3 2 1 1 95 68 104 112
72 3 2 1 1 94 112 104 63
73 3 2 1 1 27 28 95 58
74 3 2 1 1 95 112 90 58
75 3 2 1 1 35 57 92 34
76 3 2 1 1 81 57 35 36
77 3 2 1 1 26 27 58 62
78 3 2 1 1 99 77 84 93
79 3 2 1 1 92 100 66 87
80 3 2 1 1 73 99 93 59
81 3 2 1 1 44 59 93 43
82 3 2 1 1 84 42 43 93
83 3 2 1 1 87 33 34 92
84 3 2 1 1 74 100 92 57
85 3 2 2 2 172 205 140 141
86 3 2 2 2 148 183 147 116
87 3 2 2 2 213 207 184 190
88 3 2 2 2 146 213 190 145
89 3 2 2 2 183 213 146 147
90 3 2 2 2 190 169 144 145
91 3 2 2 2 186 220 192 117
92 3 2 2 2 191 172 141 142
93 3 2 2 2 188 177 167 166
94 3 2 2 2 168 167 177 219
95 3 2 2 2 182 139 140 205
96 3 2 2 2 189 203 177 188
97 3 2 2 2 189 188 199 170
98 3 2 2 2 176 222 223 209
99 3 2 2 2 139 182 138 115
100 3 2 2 2 191 187 201 172
101 3 2 2 2 182 221 137 138
102 3 2 2 2 137 221 174 136
103 3 2 2 2 192 220 210 173
104 3 2 2 2 135 212 178 134
105 3 2 2 2 195 216 176 209
106 3 2 2 2 193 217 178 212
107 3 2 2 2 195 218 179 216
108 3 2 2 2 208 118 159 193
109 3 2 2 2 161 160 187 206
110 3 2 2 2 193 159 158 217
111 3 2 2 2 157 197 217 158
112 3 2 2 2 162 161 206 185
113 3 2 2 2 181 220 186 202
114 3 2 2 2 180 222 155 156
115 3 2 2 2 155 222 176 154
116 3 2 2 2 216 153 154 176
117 3 2 2 2 212 135 136 174
118 3 2 2 2 210 220 181 196
119 3 2 2 2 153 216 179 152
120 3 2 2 2 163 198 218 164
121 3 2 2 2 195 165 164 218
122 3 2 2 2 179 215 151 152
123 3 2 2 2 151 215 175 150
124 3 2 2 2 149 214 183 148
125 3 2 2 2 175 214 149 150
126 3 2 2 2 209 120 165 195
127 3 2 2 2 188 166 120 199
128 3 2 2 2 203 125 124 171
129 3 2 2 2 201 224 205 172
130 3 2 2 2 202 186 219 171
131 3 2 2 2 219 177 203 171
132 3 2 2 2 121 196 181 122
133 3 2 2 2 130 196 121 113
134 3 2 2 2 120 209 223 199
135 3 2 2 2 204 223 222 180
136 3 2 2 2 205 224 221 182
137 3 2 2 2 133 211 173 132
138 3 2 2 2 207 194 119 184
139 3 2 2 2 119 194 198 163
140 3 2 2 2 217 197 211 178
141 3 2 2 2 185 184 119 162
142 3 2 2 2 213 183 214 207
143 3 2 2 2 218 198 215 179
144 3 2 2 2 173 211 197 192
145 3 2 2 2 219 186 117 168
146 3 2 2 2 117 192 197 157
147 3 2 2 2 193 212 174 208
148 3 2 2 2 175 215 198 194
149 3 2 2 2 129 180 156 114
150 3 2 2 2 174 221 224 208
151 3 2 2 2 128 204 180 129
152 3 2 2 2 127 170 204 128
153 3 2 2 2 173 210 131 132
154 3 2 2 2 131 210 196 130
155 3 2 2 2 199 223 204 170
156 3 2 2 2 214 175 194 207
157 3 2 2 2 178 211 133 134
158 3 2 2 2 122 181 202 123
159 3 2 2 2 118 208 224 201
160 3 2 2 2 202 171 124 123
161 3 2 2 2 187 160 118 201
162 3 2 2 2 170 127 126 189
163 3 2 2 2 190 184 185 169
164 3 2 2 2 125 203 189 126
165 3 2 2 2 206 187 191 200
166 3 2 2 2 185 206 200 169
167 3 2 2 2 191 142 143 200
168 3 2 2 2 144 169 200 143
169 3 2 3 3 304 284 253 254
170 3 2 3 3 319 323 286 305
171 3 2 3 3 261 327 296 260
172 3 2 3 3 288 327 261 262
173 3 2 3 3 306 325 287 321
174 3 2 3 3 260 296 259 228
175 3 2 3 3 327 288 307 320
176 3 2 3 3 258 326 302 257
177 3 2 3 3 296 326 258 259
178 3 2 3 3 302 281 256 257
179 3 2 3 3 309 323 319 294
180 3 2 3 3 263 328 288 262
181 3 2 3 3 287 333 336 321
182 3 2 3 3 295 251 252 317
183 3 2 3 3 288 328 311 307
184 3 2 3 3 251 295 250 227
185 3 2 3 3 312 335 315 282
186 3 2 3 3 295 333 249 250
187 3 2 3 3 249 333 287 248
188 3 2 3 3 325 247 248 287
189 3 2 3 3 308 329 289 322
190 3 2 3 3 247 325 291 246
191 3 2 3 3 326 320 297 302
192 3 2 3 3 280 279 290 332
193 3 2 3 3 298 290 279 278
194 3 2 3 3 303 319 305 229
195 3 2 3 3 322 232 277 308
196 3 2 3 3 301 298 312 282
197 3 2 3 3 308 277 276 331
198 3 2 3 3 275 311 331 276
199 3 2 3 3 274 273 318 299
200 3 2 3 3 273 272 300 318
201 3 2 3 3 321 230 271 306
202 3 2 3 3 284 317 252 253
203 3 2 3 3 306 271 270 330
204 3 2 3 3 269 310 330 270
205 3 2 3 3 304 300 314 284
206 3 2 3 3 293 334 267 268
207 3 2 3 3 267 334 289 266
208 3 2 3 3 329 265 266 289
209 3 2 3 3 285 303 332 283
210 3 2 3 3 265 329 292 264
211 3 2 3 3 286 324 310 305
212 3 2 3 3 292 328 263 264
213 3 2 3 3 298 278 232 312
214 3 2 3 3 239 282 315 240
215 3 2 3 3 306 330 291 325
216 3 2 3 3 316 237 236 283
217 3 2 3 3 294 319 303 285
218 3 2 3 3 317 336 333 295
219 3 2 3 3 233 309 294 234
220 3 2 3 3 242 309 233 225
221 3 2 3 3 232 322 335 312
222 3 2 3 3 330 310 324 291
223 3 2 3 3 332 290 316 283
224 3 2 3 3 320 307 231 297
225 3 2 3 3 231 307 311 275
226 3 2 3 3 326 296 327 320
227 3 2 3 3 299 297 231 274
228 3 2 3 3 331 311 328 292
229 3 2 3 3 308 331 292 329
230 3 2 3 3 332 303 229 280
231 3 2 3 3 229 305 310 269
232 3 2 3 3 335 334 293 315
233 3 2 3 3 286 323 243 244
234 3 2 3 3 293 241 240 315
235 3 2 3 3 291 324 245 246
236 3 2 3 3 289 334 335 322
237 3 2 3 3 243 323 309 242
238 3 2 3 3 314 336 317 284
239 3 2 3 3 241 293 268 226
240 3 2 3 3 301 316 290 298
241 3 2 3 3 245 324 286 244
242 3 2 3 3 230 321 336 314
243 3 2 3 3 234 294 285 235
244 3 2 3 3 285 283 236 235
245 3 2 3 3 300 272 230 314
246 3 2 3 3 282 239 238 301
247 3 2 3 3 302 297 299 281
248 3 2 3 3 237 316 301 238
249 3 2 3 3 256 281 313 255
250 3 2 3 3 299 318 313 281
251 3 2 3 3 318 300 304 313
252 3 2 3 3 304 254 255 313
253 3 2 4 4 396 429 364 365
254 3 2 4 4 372 407 371 340
255 3 2 4 4 437 431 408 414
256 3 2 4 4 370 437 414 369
257 3 2 4 4 407 437 370 371
258 3 2 4 4 414 393 368 369
259 3 2 4 4 410 444 416 341
260 3 2 4 4 415 396 365 366
261 3 2 4 4 412 401 391 390
262 3 2 4 4 392 391 401 443
263 3 2 4 4 406 363 364 429
264 3 2 4 4 413 427 401 412
265 3 2 4 4 413 412 423 394
266 3 2 4 4 400 446 447 433
267 3 2 4 4 363 406 362 339
268 3 2 4 4 415 411 425 396
269 3 2 4 4 406 445 361 362
270 3 2 4 4 361 445 398 360
271 3 2 4 4 416 444 434 397
272 3 2 4 4 359 436 402 358
273 3 2 4 4 419 440 400 433
274 3 2 4 4 417 441 402 436
275 3 2 4 4 419 442 403 440
276 3 2 4 4 432 342 383 417
277 3 2 4 4 385 384 411 430
278 3 2 4 4 417 383 382 441
279 3 2 4 4 381 421 441 382
280 3 2 4 4 386 385 430 409
281 3 2 4 4 405 444 410 426
282 3 2 4 4 404 446 379 380
283 3 2 4 4 379 446 400 378
284 3 2 4 4 440 377 378 400
285 3 2 4 4 436 359 360 398
286 3 2 4 4 434 444 405 420
287 3 2 4 4 377 440 403 376
288 3 2 4 4 387 422 442 388
289 3 2 4 4 419 389 388 442
290 3 2 4 4 403 439 375 376
291 3 2 4 4 375 439 399 374
292 3 2 4 4 373 438 407 372
293 3 2 4 4 399 438 373 374
294 3 2 4 4 433 344 389 419
295 3 2 4 4 412 390 344 423
296 3 2 4 4 427 349 348 395
297 3 2 4 4 425 448 429 396
298 3 2 4 4 426 410 443 395
299 3 2 4 4 443 401 427 395
300 3 2 4 4 345 420 405 346
301 3 2 4 4 354 420 345 337
302 3 2 4 4 344 433 447 423
303 3 2 4 4 428 447 446 404
304 3 2 4 4 429 448 445 406
305 3 2 4 4 357 435 397 356
306 3 2 4 4 431 418 343 408
307 3 2 4 4 343 418 422 387
308 3 2 4 4 441 421 435 402
309 3 2 4 4 409 408 343 386
310 3 2 4 4 437 407 438 431
311 3 2 4 4 442 422 439 403
312 3 2 4 4 397 435 421 416
313 3 2 4 4 443 410 341 392
314 3 2 4 4 341 416 421 381
315 3 2 4 4 417 436 398 432
316 3 2 4 4 399 439 422 418
317 3 2 4 4 353 404 380 338
318 3 2 4 4 398 445 448 432
319 3 2 4 4 352 428 404 353
320 3 2 4 4 351 394 428 352
321 3 2 4 4 397 434 355 356
322 3 2 4 4 355 434 420 354
323 3 2 4 4 423 447 428 394
324 3 2 4 4 438 399 418 431
325 3 2 4 4 402 435 357 358
326 3 2 4 4 346 405 426 347
327 3 2 4 4 342 432 448 425
328 3 2 4 4 426 395 348 347
329 3 2 4 4 411 384 342 425
330 3 2 4 4 394 351 350 413
331 3 2 4 4 414 408 409 393
332 3 2 4 4 349 427 413 350
333 3 2 4 4 430 411 415 424
334 3 2 4 4 409 430 424 393
335 3 2 4 4 415 366 367 424
336 3 2 4 4 368 393 424 367
337 3 2 5 5 549 543 521 526
338 3 2 5 5 516 551 487 488
339 3 2 5 5 487 551 512 486
340 3 2 5 5 485 550 520 484
341 3 2 5 5 512 550 485 486
342 3 2 5 5 511 557 560 544
343 3 2 5 5 484 520 483 452
344 3 2 5 5 482 549 526 481
345 3 2 5 5 520 549 482 483
346 3 2 5 5 535 559 538 506
347 3 2 5 5 526 505 480 481
348 3 2 5 5 512 551 534 531
349 3 2 5 5 550 512 531 543
350 3 2 5 5 528 508 477 478
351 3 2 5 5 532 552 513 545
352 3 2 5 5 537 560 541 508
353 3 2 5 5 519 475 476 541
354 3 2 5 5 475 519 474 451
355 3 2 5 5 519 557 473 474
356 3 2 5 5 473 557 511 472
357 3 2 5 5 548 471 472 511
358 3 2 5 5 513 558 559 545
359 3 2 5 5 471 548 515 470
360 3 2 5 5 529 556 546 510
361 3 2 5 5 528 524 537 508
362 3 2 5 5 504 503 514 555
363 3 2 5 5 522 514 503 502
364 3 2 5 5 545 456 501 532
365 3 2 5 5 527 556 529 453
366 3 2 5 5 532 501 500 554
367 3 2 5 5 499 534 554 500
368 3 2 5 5 498 497 542 523
369 3 2 5 5 525 522 535 506
370 3 2 5 5 497 496 524 542
371 3 2 5 5 508 541 476 477
372 3 2 5 5 544 454 495 530
373 3 2 5 5 530 495 494 553
374 3 2 5 5 493 533 553 494
375 3 2 5 5 509 527 555 507
376 3 2 5 5 510 547 533 529
377 3 2 5 5 517 558 491 492
378 3 2 5 5 491 558 513 490
379 3 2 5 5 552 489 490 513
380 3 2 5 5 489 552 516 488
381 3 2 5 5 530 548 511 544
382 3 2 5 5 525 540 514 522
383 3 2 5 5 553 533 547 515
384 3 2 5 5 522 502 456 535
385 3 2 5 5 456 545 559 535
386 3 2 5 5 466 518 457 449
387 3 2 5 5 543 531 455 521
388 3 2 5 5 455 531 534 499
389 3 2 5 5 549 520 550 543
390 3 2 5 5 532 554 516 552
391 3 2 5 5 540 461 460 507
392 3 2 5 5 523 521 455 498
393 3 2 5 5 554 534 551 516
394 3 2 5 5 463 506 538 464
395 3 2 5 5 517 465 464 538
396 3 2 5 5 530 553 515 548
397 3 2 5 5 559 558 517 538
398 3 2 5 5 465 517 492 450
399 3 2 5 5 555 527 453 504
400 3 2 5 5 541 560 557 519
401 3 2 5 5 453 529 533 493
402 3 2 5 5 555 514 540 507
403 3 2 5 5 467 546 518 466
404 3 2 5 5 469 547 510 468
405 3 2 5 5 515 547 469 470
406 3 2 5 5 510 546 467 468
407 3 2 5 5 454 544 560 537
408 3 2 5 5 458 457 518 539
409 3 2 5 5 546 556 539 518
410 3 2 5 5 524 496 454 537
411 3 2 5 5 539 556 527 509
412 3 2 5 5 539 509 459 458
413 3 2 5 5 509 507 460 459
414 3 2 5 5 526 521 523 505
415 3 2 5 5 461 540 525 462
416 3 2 5 5 506 463 462 525
417 3 2 5 5 528 478 479 536
418 3 2 5 5 523 542 536 505
419 3 2 5 5 542 524 528 536
420 3 2 5 5 480 505 536 479
$EndElements
