$MeshFormat
2.2 0 8
$EndMeshFormat
$Nodes
46
1 1266.5865523 -967.1664937 0
2 2576.8728933 -1055.7319683 0
3 2570.5877856 -1725.0959362 0
4 1460.0421667 -1674.8067673 0
5 1528.6438205 -984.87958862 0
6 1790.7010887 -1002.59268354 0
7 2052.7583569 -1020.30577846 0
8 2314.8156251 -1038.01887338 0
9 2574.7778574 -1278.85329093333 0
10 2572.6828215 -1501.97461356667 0
11 2292.951380875 -1712.523643975 0
12 2015.31497615 -1699.95135175 0
13 1737.678571425 -1687.379059525 0
14 1395.5569619 -1438.9266761 0
15 1331.0717571 -1203.0465849 0
16 1826.59099487947 -1197.37090046423 0
17 2306.3691079776 -1251.96790930798 0
18 1593.87300537169 -1207.66238220976 0
19 1668.8502396576 -1441.22580735077 0
20 2292.63011732283 -1475.27193287477 0
21 2065.51729304364 -1210.98980673131 0
22 1975.60298716679 -1422.8454484692 0
23 2570.5877856 -1725.0959362 0
24 1460.0421667 -1674.8067673 0
25 1470.6939417 -2513.87695 0
26 2611.3767552 -2596.4704218 0
27 1720.5015636 -1909.3000291 0
28 2235.8803933 -1972.1511059 0
29 2245.3080548 -2283.263936 0
30 1843.0611633 -2270.6937207 0
31 2292.951380875 -1712.523643975 0
32 2015.31497615 -1699.95135175 0
33 1737.678571425 -1687.379059525 0
34 1467.14335003333 -2234.1868891 0
35 1463.59275836667 -1954.4968282 0
36 2584.1841088 -2015.55409806667 0
37 2597.780432 -2306.01225993333 0
38 2383.2401925 -2579.95172744 0
39 2155.1036298 -2563.43303308 0
40 1926.9670671 -2546.91433872 0
41 1698.8305044 -2530.39564436 0
45 1688.76041279709 -2358.02701208141 0
49 2022.93572278681 -2129.65825591963 0
50 1978.19097845 -1940.7255675 0
51 2044.18460905 -2276.97882835 0
52 1781.78136345 -2089.9968749 0
$EndNodes
$Elements
32
1 2 2 1 1 21 22 16 
2 3 2 1 1 17 8 2 9
3 3 2 1 1 11 20 10 3
4 3 2 1 1 8 17 21 7
5 3 2 1 1 7 21 16 6
6 3 2 1 1 20 11 12 22
7 3 2 1 1 4 14 19 13
8 3 2 1 1 22 12 13 19
9 3 2 1 1 5 18 15 1
10 3 2 1 1 20 17 9 10
11 3 2 1 1 14 15 18 19
12 3 2 1 1 18 5 6 16
13 3 2 1 1 21 17 20 22
14 3 2 1 1 19 18 16 22
16 2 2 2 2 38 39 29 
21 3 2 2 2 36 37 29 28
23 3 2 2 2 31 23 36 28
24 3 2 2 2 27 35 24 33
27 3 2 2 2 38 29 37 26
28 3 2 2 2 25 34 45 41
29 3 2 2 2 40 41 45 30
15 2 2 2 2 51 40 30 
17 2 2 2 2 52 27 50 
18 2 2 2 2 28 49 50 
19 2 2 2 2 30 49 51 
20 3 2 2 2 33 32 50 27
22 3 2 2 2 32 31 28 50
25 3 2 2 2 39 40 51 29
26 3 2 2 2 35 27 52 34
30 3 2 2 2 45 34 52 30
31 3 2 2 2 52 50 49 30
32 3 2 2 2 29 51 49 28
$EndElements
