$MeshFormat
2.2 0 8
$EndMeshFormat
$Nodes
473
1 40 20 0
2 80 20 0
3 80 40 0
4 60 40 0
5 40 60 0
6 40 80 0
7 20 80 0
8 20 50 0
9 20 20 0
10 60 50 0
11 60 60 0
12 80 80 0
13 60 80 0
14 80 60 0
15 0 0 0
16 100 0 0
17 0 50 0
18 100 50 0
19 0 100 0
20 100 100 0
70 5 0 0
71 10 0 0
72 15 0 0
73 20 0 0
74 25 0 0
75 30 0 0
76 35 0 0
77 40 0 0
78 45 0 0
79 50 0 0
80 55 0 0
81 60 0 0
82 65 0 0
83 70 0 0
84 75 0 0
85 80 0 0
86 85 0 0
87 90 0 0
88 95 0 0
89 0 45 0
90 0 40 0
91 0 35 0
92 0 30 0
93 0 25 0
94 0 20 0
95 0 15 0
96 0 10 0
97 0 5 0
98 100 5 0
99 100 10 0
100 100 15 0
101 100 20 0
102 100 25 0
103 100 30 0
104 100 35 0
105 100 40 0
106 100 45 0
107 0 95 0
108 0 90 0
109 0 85 0
110 0 80 0
111 0 75 0
112 0 70 0
113 0 65 0
114 0 60 0
115 0 55 0
116 100 55 0
117 100 60 0
118 100 65 0
119 100 70 0
120 100 75 0
121 100 80 0
122 100 85 0
123 100 90 0
124 100 95 0
125 95 100 0
126 90 100 0
127 85 100 0
128 80 100 0
129 75 100 0
130 70 100 0
131 65 100 0
132 60 100 0
133 55 100 0
134 50 100 0
135 45 100 0
136 40 100 0
137 35 100 0
138 30 100 0
139 25 100 0
140 20 100 0
141 15 100 0
142 10 100 0
143 5 100 0
144 3.33333333333333 3.33333333333333 0
145 6.66666666666667 6.66666666666667 0
146 10 10 0
147 13.3333333333333 13.3333333333333 0
148 16.6666666666667 16.6666666666667 0
149 83.3333333333333 83.3333333333333 0
150 86.6666666666667 86.6666666666667 0
151 90 90 0
152 93.3333333333333 93.3333333333333 0
153 96.6666666666667 96.6666666666667 0
154 5 50 0
155 10 50 0
156 15 50 0
157 65 50 0
158 70 50 0
159 75 50 0
160 80 50 0
161 85 50 0
162 90 50 0
163 95 50 0
164 90 5 0
165 10 95 0
166 64.9999999656593 4.99999993499897 0
167 35.0000057288252 95.0000002304049 0
168 35.0007051050111 14.9825417452493 0
169 95 15 0
170 85 35 0
171 14.9684115441474 29.942206304401 0
172 74.9999999993235 14.9999999987194 0
173 54.9900701227094 74.998332082049 0
174 45.0000423965401 95.0000012391278 0
175 25.0000000620714 85.0000000024964 0
176 15 75 0
177 65.0176525858002 85.006443344668 0
178 85.0056061113399 65.0163063464271 0
179 44.9994131018309 14.9985720210492 0
180 15 60 0
181 95.048096929034 75.1795489210575 0
182 75.1993592829622 95.0583674632727 0
183 25.0162677658009 4.93911947468452 0
184 40.0004596225473 85.000021738859 0
185 54.9999839448728 14.999965957274 0
186 34.9861852709678 4.99135057127878 0
187 4.91844268554171 24.8981883886937 0
188 95 30 0
189 4.99980302299669 39.9963371476199 0
190 4.99690239010807 34.98164913669 0
191 95 35 0
192 95 45 0
193 85 25 0
194 45.0029360653594 80.0002205818354 0
195 14.9937651075495 34.9810240500145 0
196 54.9328683805187 64.99466441269 0
197 44.9987113537413 4.99911985789939 0
198 54.9999749878455 4.99997385090846 0
199 74.9999999995887 4.99999999922141 0
200 5 85 0
201 5 80 0
202 5 75 0
203 5 65 0
204 95.0008330867095 60.0033091172041 0
205 65.0192270032044 95.0064476711995 0
206 25.0000000620714 95.0000000024964 0
207 44.9795584480649 70.0024027048123 0
208 95.1339498455607 80.2416262783314 0
209 80.2938424206906 95.1523988411461 0
210 4.76846662843678 19.9678558683655 0
211 20.1079541457436 4.86071410588014 0
212 15.1965346264563 4.77519687641418 0
213 4.66186384076916 15.1487292118653 0
214 95.2559992695587 85.0618215417161 0
215 85.1544506815235 95.2811120969739 0
216 80 45 0
217 75.0000036486021 55.0000216320603 0
218 75 45 0
219 70 45 0
220 65 45 0
221 14.9989192832739 39.9949312235555 0
222 64.9999999993725 55.0000000435517 0
223 5 60 0
224 84.999999999999 4.99999999999804 0
225 15 95 0
226 95 5 0
227 5 95 0
228 95 20 0
229 59.9999973301967 14.9999946249813 0
230 64.9999996468018 14.9999992912641 0
231 44.9645738824131 65.0010617262739 0
232 35.0000622469214 85.0000029101691 0
233 15 65 0
234 15 55 0
235 14.9998568437746 44.9989928387353 0
236 25.1468991250477 14.8437848746713 0
237 75.0562062801807 85.0684842933986 0
238 85.0615163298199 75.0443833980871 0
239 4.99997202345505 44.9992288465734 0
240 5 55 0
241 95.0001527191857 55.0006866832467 0
242 50.0001094869617 95.0000110647412 0
243 95.0056085545308 65.0180011004132 0
244 55.0007964693509 95.0001857115439 0
245 14.2187767643026 19.5225210211921 0
246 96.0484460571125 92.4523610256044 0
247 93.4519094015593 96.5480906554009 0
248 6.54809061550178 3.45190935123256 0
249 3.92406228832499 7.55634935847712 0
250 79.9999999999051 14.9999999998203 0
251 20.0000000077589 85.0000000003121 0
252 84.9999999999941 19.9999999999888 0
253 85 40 0
254 15.0000000004849 80.0000000000195 0
255 54.9997369209293 79.9997502836408 0
256 60.0051941587786 85.0016312759329 0
257 85.0013308762851 60.0043995235213 0
258 45.0011016724771 85.000043816526 0
259 50.0005503396464 90.0000388498077 0
260 54.9651886819865 69.9963160713906 0
261 9.80263015938284 24.859225742834 0
262 90.0689164839496 75.1965044419195 0
263 75.2183620768801 90.0803432798293 0
264 25.1172192567175 9.84011466223448 0
265 85.0002257071535 55.0008766817268 0
266 89.9999999999999 9.99999999999988 0
267 10 90 0
268 59.9999958022823 9.9999933782828 0
269 40.0001747489309 90.0000071721241 0
270 59.999995698103 4.99999480715699 0
271 40.0000425552495 95.0000015571029 0
272 4.97146050684204 29.9511137564831 0
273 39.9954470637117 4.99641953637831 0
274 95 9.99999999999999 0
275 29.99630384625 4.97069630915419 0
276 69.9999999923817 4.99999998557997 0
277 95 25 0
278 5 90 0
279 30.0000013445761 95.0000000540768 0
280 89.9999999999996 14.9999999999993 0
281 90 30 0
282 9.94670511857124 29.9287015686671 0
283 69.999999951961 14.9999999040464 0
284 30.0000084093381 85.0000003890474 0
285 95.0195458548712 70.0627018482679 0
286 70.0686114070957 95.0229210060225 0
287 39.9984488004478 14.9944228180648 0
288 80.000119167775 55.000429042807 0
289 49.9998336958565 14.9996771797138 0
290 85 30 0
291 44.9979675425415 75.0004792606757 0
292 15 70 0
293 30.0296750663755 14.9498254195994 0
294 70.0474646802195 85.0243347140129 0
295 70.0000004547419 55.0000027965549 0
296 85.0214915053836 70.0427278417212 0
297 49.9997269484693 4.9997624423919 0
298 95 40 0
299 5 70 0
300 60.0053160227166 95.0016762463939 0
301 10 55 0
302 9.99989154126848 44.9986717794394 0
303 85 45 0
304 90 45 0
305 90.0002706410766 55.0011459910625 0
306 10.0000000000606 80.0000000000024 0
307 90.0020804876925 60.0069384435095 0
308 10 65 0
309 9.99870450112164 39.9923787925655 0
310 79.9999999999381 4.99999999988282 0
311 20.0000000077589 95.0000000003121 0
312 14.7994457857984 24.8688512017139 0
313 49.9540923924666 64.9967478443852 0
314 79.2316442056466 85.1336085261457 0
315 85.124144877178 79.2133286681517 0
316 20.5800948261356 14.3020450223992 0
317 89.8464748949871 80.6008136940493 0
318 80.641264305893 89.8623505763646 0
319 9.3826432724989 20.001304597794 0
320 20.3976654225226 9.57437380885048 0
321 95.5629931834935 89.4581202857497 0
322 89.6680649644828 95.6494775443651 0
323 4.40661614633725 10.6279709876363 0
324 10.4685993212929 4.39197932761462 0
325 12.1579993089968 15.912154814428 0
326 70.0849258346059 90.0341089752535 0
327 30.022395117274 9.94231666361693 0
328 90.0295741073911 70.0769981976289 0
329 10.0000000000379 85.0000000000015 0
330 64.9999989769316 9.99999838792248 0
331 35.0000644467443 90.0000028576584 0
332 84.999999999988 9.99999999997722 0
333 15.0000000009722 90.0000000000391 0
334 34.9992276678593 9.97898707515523 0
335 90 40 0
336 74.999999995553 9.99999999126852 0
337 25.0000007502502 90.0000000333512 0
338 89.9999999999996 24.9999999999993 0
339 89.9999999999992 19.9999999999984 0
340 84.9999999999847 14.9999999999711 0
341 15.0000000011605 85.0000000000467 0
342 45.0004082033092 90.0000165051947 0
343 44.9985053507382 9.99801560917808 0
344 9.9871333139282 34.972324292726 0
345 55.001938370307 90.0004673986342 0
346 90 35 0
347 50.0002910272351 79.9998932658035 0
348 49.9716134252305 69.9984726860798 0
349 10.0000000000379 75.0000000000015 0
350 65.0297866884614 90.0112761879106 0
351 90.0098497722957 65.027448510841 0
352 10 60 0
353 54.9999403792714 9.99991984183999 0
354 55.0017294107858 85.0003433706346 0
355 10.0000000000047 70.0000000000002 0
356 90.9561879156409 85.2128414433447 0
357 85.2696254665416 90.9744486574337 0
358 15.744616062031 9.36012064629758 0
359 9.09503179921716 15.4494101001283 0
360 16.7684257314002 13.2800529935596 0
361 82.557517715617 86.1397424723599 0
362 86.1321195965069 82.5386723313407 0
363 79.9999999993499 9.99999999873015 0
364 20.000000103674 90.0000000045668 0
365 39.996851746135 9.99270094016586 0
366 69.9999998387393 9.99999973213389 0
367 30.0000138733923 90.0000006233503 0
368 49.9906972860389 74.9994896045529 0
369 60.0091172988872 90.0031081011605 0
370 50.0011208178641 85.0000741199275 0
371 49.9995837153871 9.99945970245451 0
372 40 40 0
392 60.0322590754742 25.1385025816177 0
393 60.0698288854956 35.1796527812123 0
394 50.0344704219392 35.0777900505302 0
395 50.0171068997145 25.0535799398949 0
396 75.0022603421331 25.0083585931781 0
397 75.003268040315 35.0107096618787 0
398 45.0069060921731 25.0184601474893 0
399 70.0091197340921 25.0351943840769 0
400 45.0106303929751 35.0234535105815 0
401 65.0335515146472 35.1034988393623 0
402 55.0514939467142 35.134671032822 0
403 60.0552644614359 30.1863101465699 0
404 55.0276597058812 25.0961263776445 0
405 65.0200755261717 25.077889635311 0
406 70.0125281853475 35.040438540032 0
407 75.0046936116848 30.0162136692953 0
408 45.012616845276 30.0307088807848 0
409 55.0474613910985 30.1409066223267 0
410 65.0342945367156 30.1141921942864 0
411 70.015101826299 30.0514174618396 0
412 50.028685904085 30.0769918267223 0
413 40 50 0
438 23.3333333333333 23.3333333333333 0
439 26.6666666666667 26.6666666666667 0
440 30 30 0
441 33.3333333333333 33.3333333333333 0
442 36.6666666666667 36.6666666666667 0
443 25 50 0
444 30 50 0
445 35 50 0
446 35.0742185750181 59.968635080622 0
447 25.0118945489128 69.991942507564 0
448 35.0348835578116 64.9818769489098 0
449 35.0024442020228 74.9986719569356 0
450 25.0832034603723 59.9362705166737 0
451 34.9768464206163 45.2055846875089 0
452 25.0300663373678 45.1390927926542 0
453 24.9598411753893 40.2947149402467 0
454 24.8317216134616 35.3914116087675 0
455 35.1735391264663 24.764012561059 0
456 25.074897238131 54.9424684254431 0
457 35.06722515227 54.9689400791705 0
458 25.0028942788439 74.9981290836658 0
459 34.4658456129339 40.724525645839 0
460 36.0520622451489 32.4244398561969 0
461 26.7223444861955 23.3535428293639 0
462 23.9505109164283 27.5847076971741 0
463 29.7415112200268 40.6000665245648 0
464 29.9409674977006 45.2413529995466 0
465 35.0121609810918 69.9932904934482 0
466 30.0043869965396 74.9973556080424 0
467 30.0838449631891 54.9446481307806 0
468 30.0801691914177 59.9497446143526 0
469 25.0339051311085 64.9762636940127 0
470 33.4397976469526 36.8343290849945 0
471 24.4827077564379 30.7235529006909 0
472 30.5032092955731 24.3487949386606 0
473 35.5222913166107 29.3246351504461 0
474 29.4575216529326 35.9015758659507 0
475 30.0183523734128 69.9889063194391 0
476 30.0455738836736 64.9722257917475 0
477 50 50 0
488 43.3333333333333 43.3333333333333 0
489 46.6666666666667 46.6666666666667 0
490 53.3333333333333 53.3333333333333 0
491 56.6666666666667 56.6666666666667 0
492 45 50 0
493 55 50 0
494 51.1273845670205 44.9912762675029 0
495 48.876189588464 55.0067096040617 0
496 44.8035986133935 54.983890934961 0
497 55.1974035101024 45.0155443427045 0
498 47.7105917920442 43.9840040679088 0
499 56.5276162875582 53.4723837124418 0
500 52.2911775950843 56.0149988369888 0
501 43.4723837124418 46.5276162875582 0
514 63.3333333333333 63.3333333333333 0
515 66.6666666666667 66.6666666666667 0
516 70 70 0
517 73.3333333333333 73.3333333333333 0
518 76.6666666666667 76.6666666666667 0
519 64.7634616602805 75.7141620799615 0
520 74.6501050674718 64.5788154755909 0
521 64.150515546304 67.7286862795989 0
522 66.6994896082012 63.4047179973038 0
523 72.1333133968873 76.5629159042057 0
524 77.0475368873775 71.4563117754347 0
525 69.0801765989677 73.7555792393379 0
526 74.2454962704354 68.5550513934373 0
527 70.3090872132337 64.2843711563734 0
528 65.4378596080556 71.4667231924832 0
529 68.688163232628 76.0672198392939 0
530 76.7750045247601 68.5718959145487 0
531 45 20 0
532 50 20 0
533 55 20 0
534 60 20 0
535 65 20 0
536 70 20 0
537 75 20 0
538 80 25 0
539 80 30 0
540 80 35 0
541 75 40 0
542 70 40 0
543 65 40 0
544 40 65 0
545 40 70 0
546 40 75 0
547 35 80 0
548 30 80 0
549 25 80 0
550 20 75 0
551 20 70 0
552 20 65 0
553 20 60 0
554 20 55 0
555 20 45 0
556 20 40 0
557 20 35 0
558 20 30 0
559 20 25 0
560 25 20 0
561 30 20 0
562 35 20 0
563 60 45 0
564 60 55 0
565 55 60 0
566 50 60 0
567 45 60 0
568 75 80 0
569 70 80 0
570 65 80 0
571 60 75 0
572 60 70 0
573 60 65 0
574 65 60 0
575 70 60 0
576 75 60 0
577 80 65 0
578 80 70 0
579 80 75 0
580 55 40 0
581 50 40 0
582 45 40 0
583 40 35 0
584 40 30 0
585 40 25 0
586 40 45 0
587 40 55 0
$EndNodes
$Elements
448
1 2 2 1 1 144 97 15 
2 2 2 1 1 124 20 153 
3 2 2 1 1 314 361 318 
4 2 2 1 1 317 362 315 
5 2 2 1 1 9 245 148 
6 2 2 1 1 150 356 151 
7 2 2 1 1 151 357 150 
8 2 2 1 1 150 361 149 
9 2 2 1 1 149 362 150 
10 2 2 1 1 147 360 148 
11 2 2 1 1 153 247 152 
12 2 2 1 1 144 248 145 
15 2 2 1 1 442 470 441 
16 2 2 1 1 438 461 439 
21 2 2 1 1 489 501 488 
22 2 2 1 1 490 499 491 
23 2 2 1 1 488 498 489 
24 2 2 1 1 491 500 490 
29 2 2 1 1 514 522 515 
30 2 2 1 1 518 523 517 
31 2 2 1 1 517 524 518 
32 2 2 1 1 516 526 517 
33 3 2 1 1 227 107 108 278
34 3 2 1 1 254 306 349 176
35 3 2 1 1 329 306 254 341
36 3 2 1 1 253 335 304 303
37 3 2 1 1 252 339 338 193
38 3 2 1 1 252 340 280 339
39 3 2 1 1 226 98 99 274
40 3 2 1 1 254 7 251 341
41 3 2 1 1 102 277 228 101
42 3 2 1 1 250 172 336 363
43 3 2 1 1 250 340 252 2
44 3 2 1 1 104 105 298 191
45 3 2 1 1 163 192 106 18
46 3 2 1 1 107 227 143 19
47 3 2 1 1 108 109 200 278
48 3 2 1 1 90 189 239 89
49 3 2 1 1 307 204 243 351
50 3 2 1 1 345 244 242 259
51 3 2 1 1 110 201 200 109
52 3 2 1 1 111 202 201 110
53 3 2 1 1 112 299 202 111
54 3 2 1 1 112 113 203 299
55 3 2 1 1 307 305 241 204
56 3 2 1 1 114 223 203 113
57 3 2 1 1 240 223 114 115
58 3 2 1 1 154 240 115 17
59 3 2 1 1 309 302 239 189
60 3 2 1 1 116 241 163 18
61 3 2 1 1 117 204 241 116
62 3 2 1 1 258 194 347 370
63 3 2 1 1 279 367 331 167
65 3 2 1 1 276 199 336 366
68 3 2 1 1 276 366 330 166
71 3 2 1 1 343 365 273 197
72 3 2 1 1 273 365 334 186
73 3 2 1 1 265 305 307 257
74 3 2 1 1 77 273 186 76
75 3 2 1 1 77 78 197 273
76 3 2 1 1 79 297 197 78
77 3 2 1 1 243 204 117 118
78 3 2 1 1 82 166 270 81
79 3 2 1 1 82 83 276 166
80 3 2 1 1 83 84 199 276
81 3 2 1 1 258 370 259 342
82 3 2 1 1 351 178 257 307
83 3 2 1 1 199 84 85 310
84 3 2 1 1 350 369 256 177
85 3 2 1 1 256 369 345 354
86 3 2 1 1 98 226 88 16
87 3 2 1 1 255 354 370 347
88 3 2 1 1 89 239 154 17
89 3 2 1 1 255 13 256 354
90 3 2 1 1 190 189 90 91
91 3 2 1 1 163 241 305 162
92 3 2 1 1 155 301 240 154
93 3 2 1 1 200 201 306 329
94 3 2 1 1 158 159 217 295
95 3 2 1 1 220 219 158 157
96 3 2 1 1 222 157 158 295
97 3 2 1 1 219 218 159 158
98 3 2 1 1 288 217 159 160
99 3 2 1 1 218 216 160 159
100 3 2 1 1 161 160 216 303
101 3 2 1 1 288 160 161 265
102 3 2 1 1 161 303 304 162
103 3 2 1 1 162 304 192 163
104 3 2 1 1 162 305 265 161
105 3 2 1 1 368 347 194 291
106 3 2 1 1 155 302 235 156
107 3 2 1 1 192 304 335 298
108 3 2 1 1 335 346 191 298
109 3 2 1 1 309 189 190 344
110 3 2 1 1 268 229 185 353
111 3 2 1 1 184 258 342 269
112 3 2 1 1 335 253 170 346
113 3 2 1 1 344 282 171 195
114 3 2 1 1 308 352 180 233
115 3 2 1 1 180 352 301 234
116 3 2 1 1 173 255 347 368
117 3 2 1 1 259 242 174 342
118 3 2 1 1 355 292 176 349
120 3 2 1 1 301 352 223 240
121 3 2 1 1 118 119 285 243
122 3 2 1 1 181 285 119 120
123 3 2 1 1 235 302 309 221
124 3 2 1 1 269 331 232 184
125 3 2 1 1 230 330 366 283
126 3 2 1 1 229 268 330 230
127 3 2 1 1 127 128 209 215
128 3 2 1 1 128 129 182 209
129 3 2 1 1 338 339 228 277
130 3 2 1 1 228 339 280 169
131 3 2 1 1 130 286 182 129
132 3 2 1 1 130 131 205 286
133 3 2 1 1 223 352 308 203
134 3 2 1 1 105 106 192 298
135 3 2 1 1 132 300 205 131
136 3 2 1 1 244 300 132 133
137 3 2 1 1 344 195 221 309
138 3 2 1 1 134 242 244 133
139 3 2 1 1 137 167 271 136
140 3 2 1 1 137 138 279 167
141 3 2 1 1 138 139 206 279
142 3 2 1 1 206 139 140 311
143 3 2 1 1 203 308 355 299
144 3 2 1 1 202 299 355 349
145 3 2 1 1 349 306 201 202
146 3 2 1 1 154 239 302 155
147 3 2 1 1 155 156 234 301
154 3 2 1 1 300 369 350 205
155 3 2 1 1 345 369 300 244
157 3 2 1 1 353 371 297 198
160 3 2 1 1 297 371 343 197
161 3 2 1 1 336 199 310 363
165 3 2 1 1 292 355 308 233
168 3 2 1 1 289 371 353 185
171 3 2 1 1 343 371 289 179
172 3 2 1 1 343 179 287 365
173 3 2 1 1 287 168 334 365
180 3 2 1 1 3 253 303 216
181 3 2 1 1 370 354 345 259
182 3 2 1 1 258 184 6 194
189 3 2 1 1 329 341 333 267
192 3 2 1 1 14 288 265 257
196 3 2 1 1 337 367 279 206
199 3 2 1 1 331 367 284 232
200 3 2 1 1 337 175 284 367
206 3 2 1 1 336 172 283 366
207 3 2 1 1 280 340 332 266
208 3 2 1 1 169 274 99 100
209 3 2 1 1 101 228 169 100
210 3 2 1 1 186 275 75 76
211 3 2 1 1 191 346 281 188
212 3 2 1 1 282 344 190 272
213 3 2 1 1 338 277 188 281
214 3 2 1 1 188 103 104 191
215 3 2 1 1 281 346 170 290
216 3 2 1 1 188 277 102 103
218 3 2 1 1 75 275 183 74
219 3 2 1 1 290 193 338 281
220 3 2 1 1 91 92 272 190
221 3 2 1 1 337 206 311 364
222 3 2 1 1 251 175 337 364
223 3 2 1 1 331 269 271 167
224 3 2 1 1 135 136 271 174
225 3 2 1 1 333 364 311 225
226 3 2 1 1 80 81 270 198
227 3 2 1 1 164 266 332 224
228 3 2 1 1 330 268 270 166
229 3 2 1 1 198 297 79 80
230 3 2 1 1 269 342 174 271
231 3 2 1 1 174 242 134 135
232 3 2 1 1 268 353 198 270
233 3 2 1 1 165 267 333 225
234 3 2 1 1 274 266 164 226
235 3 2 1 1 142 143 227 165
236 3 2 1 1 274 169 280 266
237 3 2 1 1 87 88 226 164
238 3 2 1 1 332 363 310 224
239 3 2 1 1 278 267 165 227
240 3 2 1 1 340 250 363 332
241 3 2 1 1 278 200 329 267
242 3 2 1 1 341 251 364 333
243 3 2 1 1 86 87 164 224
244 3 2 1 1 310 85 86 224
245 3 2 1 1 311 140 141 225
246 3 2 1 1 141 142 165 225
247 3 2 1 1 272 92 93 187
248 3 2 1 1 181 120 121 208
249 3 2 1 1 73 74 183 211
250 3 2 1 1 328 285 181 262
251 3 2 1 1 326 263 182 286
252 3 2 1 1 286 205 350 326
253 3 2 1 1 296 178 351 328
254 3 2 1 1 351 243 285 328
255 3 2 1 1 350 177 294 326
256 3 2 1 1 72 73 211 212
257 3 2 1 1 326 294 237 263
258 3 2 1 1 238 296 328 262
259 3 2 1 1 324 71 72 212
260 3 2 1 1 322 126 127 215
261 3 2 1 1 212 211 320 358
267 3 2 1 1 348 260 173 368
268 3 2 1 1 211 183 264 320
269 3 2 1 1 208 121 122 214
270 3 2 1 1 275 186 334 327
271 3 2 1 1 327 264 183 275
272 3 2 1 1 324 212 358 146
273 3 2 1 1 282 272 187 261
274 3 2 1 1 312 171 282 261
275 3 2 1 1 207 348 368 291
277 3 2 1 1 261 187 210 319
278 3 2 1 1 322 215 357 151
280 3 2 1 1 245 312 261 319
281 3 2 1 1 327 293 236 264
282 3 2 1 1 334 168 293 327
283 3 2 1 1 187 93 94 210
285 3 2 1 1 210 94 95 213
286 3 2 1 1 313 348 207 231
288 3 2 1 1 95 96 323 213
290 3 2 1 1 210 213 359 319
291 3 2 1 1 262 181 208 317
292 3 2 1 1 209 182 263 318
293 3 2 1 1 264 236 316 320
294 3 2 1 1 122 123 321 214
295 3 2 1 1 356 214 321 151
299 3 2 1 1 315 238 262 317
300 3 2 1 1 263 237 314 318
301 3 2 1 1 215 209 318 357
302 3 2 1 1 348 313 196 260
303 3 2 1 1 317 208 214 356
304 3 2 1 1 359 213 323 146
305 3 2 1 1 147 325 359 146
306 3 2 1 1 323 249 145 146
307 3 2 1 1 321 246 152 151
308 3 2 1 1 361 150 357 318
309 3 2 1 1 148 360 316 9
310 3 2 1 1 356 150 362 317
311 3 2 1 1 148 245 325 147
312 3 2 1 1 144 145 249 97
313 3 2 1 1 153 152 246 124
314 3 2 1 1 358 360 147 146
315 3 2 1 1 145 248 324 146
316 3 2 1 1 152 247 322 151
317 3 2 1 1 70 248 144 15
318 3 2 1 1 125 247 153 20
319 3 2 1 1 315 362 149 12
320 3 2 1 1 149 361 314 12
321 3 2 1 1 249 323 96 97
322 3 2 1 1 325 245 319 359
323 3 2 1 1 360 358 320 316
324 3 2 1 1 246 321 123 124
325 3 2 1 1 126 322 247 125
326 3 2 1 1 71 324 248 70
334 3 2 1 1 399 411 410 405
336 3 2 1 1 399 396 407 411
339 3 2 1 1 410 411 406 401
343 3 2 1 1 398 395 412 408
344 3 2 1 1 397 406 411 407
347 3 2 1 1 394 400 408 412
348 3 2 1 1 404 409 412 395
352 3 2 1 1 394 412 409 402
354 3 2 1 1 409 404 392 403
355 3 2 1 1 401 393 403 410
356 3 2 1 1 392 405 410 403
357 3 2 1 1 402 409 403 393
364 3 2 1 1 475 447 469 476
367 3 2 1 1 465 449 466 475
371 3 2 1 1 475 476 448 465
373 3 2 1 1 447 475 466 458
375 3 2 1 1 448 476 468 446
376 3 2 1 1 444 443 452 464
378 3 2 1 1 476 469 450 468
380 3 2 1 1 445 444 464 451
386 3 2 1 1 453 463 464 452
387 3 2 1 1 468 450 456 467
388 3 2 1 1 456 443 444 467
391 3 2 1 1 463 459 451 464
392 3 2 1 1 457 446 468 467
393 3 2 1 1 474 454 471 440
395 3 2 1 1 474 463 453 454
396 3 2 1 1 472 455 473 440
398 3 2 1 1 442 372 459 470
399 3 2 1 1 471 462 439 440
400 3 2 1 1 473 460 441 440
401 3 2 1 1 467 444 445 457
402 3 2 1 1 439 461 472 440
406 3 2 1 1 441 470 474 440
408 3 2 1 1 470 459 463 474
415 3 2 1 1 493 477 494 497
416 3 2 1 1 492 477 495 496
419 3 2 1 1 494 477 489 498
420 3 2 1 1 495 477 490 500
424 3 2 1 1 493 499 490 477
425 3 2 1 1 492 501 489 477
433 3 2 1 1 529 519 528 525
434 3 2 1 1 524 517 526 530
435 3 2 1 1 525 517 523 529
438 3 2 1 1 527 520 526 516
440 3 2 1 1 528 521 515 516
441 3 2 1 1 515 522 527 516
448 3 2 1 1 516 517 525 528
13 2 2 1 1 438 559 9 
14 2 2 1 1 583 372 442 
17 2 2 1 1 495 500 566 
18 2 2 1 1 494 498 581 
19 2 2 1 1 565 491 11 
20 2 2 1 1 488 372 582 
25 2 2 1 1 514 573 11 
26 2 2 1 1 568 518 12 
27 2 2 1 1 12 518 579 
28 2 2 1 1 569 529 523 
64 3 2 1 1 295 575 574 222
66 3 2 1 1 288 14 576 217
67 3 2 1 1 576 575 295 217
69 3 2 1 1 178 296 578 577
70 3 2 1 1 578 296 238 579
119 3 2 1 1 168 287 1 562
148 3 2 1 1 176 292 551 550
149 3 2 1 1 539 290 170 540
150 3 2 1 1 193 290 539 538
151 3 2 1 1 541 218 219 542
152 3 2 1 1 542 219 220 543
153 3 2 1 1 543 220 563 4
156 3 2 1 1 547 6 184 232
158 3 2 1 1 548 284 175 549
159 3 2 1 1 548 547 232 284
162 3 2 1 1 551 292 233 552
163 3 2 1 1 552 233 180 553
164 3 2 1 1 180 234 554 553
166 3 2 1 1 156 235 555 8
167 3 2 1 1 556 221 195 557
169 3 2 1 1 235 221 556 555
170 3 2 1 1 557 195 171 558
174 3 2 1 1 220 157 10 563
175 3 2 1 1 1 287 179 531
176 3 2 1 1 2 537 172 250
177 3 2 1 1 2 252 193 538
178 3 2 1 1 170 253 3 540
179 3 2 1 1 3 216 218 541
183 3 2 1 1 6 546 291 194
184 3 2 1 1 7 549 175 251
185 3 2 1 1 7 254 176 550
186 3 2 1 1 234 156 8 554
187 3 2 1 1 535 534 229 230
188 3 2 1 1 10 157 222 564
190 3 2 1 1 177 256 13 570
191 3 2 1 1 14 257 178 577
193 3 2 1 1 179 289 532 531
194 3 2 1 1 532 289 185 533
195 3 2 1 1 185 229 534 533
197 3 2 1 1 536 283 172 537
198 3 2 1 1 536 535 230 283
201 3 2 1 1 571 13 255 173
202 3 2 1 1 564 222 574 11
203 3 2 1 1 237 294 569 568
204 3 2 1 1 569 294 177 570
205 3 2 1 1 260 572 571 173
217 3 2 1 1 559 558 171 312
262 3 2 1 1 567 231 544 5
263 3 2 1 1 561 293 168 562
264 3 2 1 1 579 238 315 12
265 3 2 1 1 314 237 568 12
266 3 2 1 1 559 312 245 9
276 3 2 1 1 291 546 545 207
279 3 2 1 1 236 293 561 560
284 3 2 1 1 231 207 545 544
287 3 2 1 1 316 236 560 9
289 3 2 1 1 313 231 567 566
296 3 2 1 1 196 313 566 565
297 3 2 1 1 565 11 573 196
298 3 2 1 1 573 572 260 196
327 3 2 1 1 537 396 399 536
328 3 2 1 1 400 394 581 582
329 3 2 1 1 406 542 543 401
330 3 2 1 1 583 400 582 372
331 3 2 1 1 408 400 583 584
332 3 2 1 1 541 542 406 397
333 3 2 1 1 584 585 398 408
335 3 2 1 1 541 397 540 3
337 3 2 1 1 539 540 397 407
338 3 2 1 1 407 396 538 539
340 3 2 1 1 538 396 537 2
341 3 2 1 1 536 399 405 535
342 3 2 1 1 531 398 585 1
345 3 2 1 1 532 533 404 395
346 3 2 1 1 532 395 398 531
349 3 2 1 1 534 535 405 392
350 3 2 1 1 404 533 534 392
351 3 2 1 1 581 394 402 580
353 3 2 1 1 4 580 402 393
358 3 2 1 1 543 4 393 401
359 3 2 1 1 551 552 469 447
360 3 2 1 1 544 545 465 448
361 3 2 1 1 547 449 546 6
362 3 2 1 1 465 545 546 449
363 3 2 1 1 548 466 449 547
365 3 2 1 1 586 413 445 451
366 3 2 1 1 458 466 548 549
368 3 2 1 1 458 550 551 447
369 3 2 1 1 450 469 552 553
370 3 2 1 1 443 8 555 452
372 3 2 1 1 7 550 458 549
374 3 2 1 1 448 446 5 544
377 3 2 1 1 555 556 453 452
379 3 2 1 1 8 443 456 554
381 3 2 1 1 562 1 585 455
382 3 2 1 1 587 457 445 413
383 3 2 1 1 450 553 554 456
384 3 2 1 1 5 446 457 587
385 3 2 1 1 472 561 562 455
389 3 2 1 1 557 558 471 454
390 3 2 1 1 585 584 473 455
394 3 2 1 1 459 372 586 451
397 3 2 1 1 556 557 454 453
403 3 2 1 1 442 441 460 583
404 3 2 1 1 438 439 462 559
405 3 2 1 1 560 461 438 9
407 3 2 1 1 561 472 461 560
409 3 2 1 1 462 471 558 559
410 3 2 1 1 460 473 584 583
411 3 2 1 1 495 566 567 496
412 3 2 1 1 494 581 580 497
413 3 2 1 1 567 5 587 496
414 3 2 1 1 580 4 563 497
417 3 2 1 1 497 563 10 493
418 3 2 1 1 496 587 413 492
421 3 2 1 1 500 491 565 566
422 3 2 1 1 498 488 582 581
423 3 2 1 1 491 499 564 11
426 3 2 1 1 488 501 586 372
427 3 2 1 1 501 492 413 586
428 3 2 1 1 499 493 10 564
429 3 2 1 1 576 14 577 520
430 3 2 1 1 570 13 571 519
431 3 2 1 1 571 572 528 519
432 3 2 1 1 527 575 576 520
436 3 2 1 1 523 518 568 569
437 3 2 1 1 579 518 524 578
439 3 2 1 1 529 569 570 519
442 3 2 1 1 514 515 521 573
443 3 2 1 1 574 522 514 11
444 3 2 1 1 578 524 530 577
445 3 2 1 1 520 577 530 526
446 3 2 1 1 575 527 522 574
447 3 2 1 1 521 528 572 573
$EndElements
