$MeshFormat
2.2 0 8
$EndMeshFormat
$Nodes
861
1 0 0 0
2 0 200 0
3 0 200 100
4 0 0 100
5 0 0 80
6 0 0 50
7 0 0 40
8 0 0 20
9 0 0 10
10 0 5 0
11 0 10 0
12 0 15 0
13 0 20 0
14 0 25 0
15 0 30 0
16 0 35 0
17 0 40 0
18 0 45 0
19 0 50 0
20 0 55 0
21 0 60 0
22 0 65 0
23 0 70 0
24 0 75 0
25 0 80 0
26 0 85 0
27 0 90 0
28 0 95 0
29 0 100 0
30 0 105 0
31 0 110 0
32 0 115 0
33 0 120 0
34 0 125 0
35 0 130 0
36 0 135 0
37 0 140 0
38 0 145 0
39 0 150 0
40 0 155 0
41 0 160 0
42 0 165 0
43 0 170 0
44 0 175 0
45 0 180 0
46 0 185 0
47 0 190 0
48 0 195 0
49 0 200 5
50 0 200 10
51 0 200 15
52 0 200 20
53 0 200 25
54 0 200 30
55 0 200 35
56 0 200 40
57 0 200 45
58 0 200 50
59 0 200 55
60 0 200 60
61 0 200 65
62 0 200 70
63 0 200 75
64 0 200 80
65 0 200 85
66 0 200 90
67 0 200 95
68 0 195 100
69 0 190 100
70 0 185 100
71 0 180 100
72 0 175 100
73 0 170 100
74 0 165 100
75 0 160 100
76 0 155 100
77 0 150 100
78 0 145 100
79 0 140 100
80 0 135 100
81 0 130 100
82 0 125 100
83 0 120 100
84 0 115 100
85 0 110 100
86 0 105 100
87 0 100 100
88 0 95 100
89 0 90 100
90 0 85 100
91 0 80 100
92 0 75 100
93 0 70 100
94 0 65 100
95 0 60 100
96 0 55 100
97 0 50 100
98 0 45 100
99 0 40 100
100 0 35 100
101 0 30 100
102 0 25 100
103 0 20 100
104 0 15 100
105 0 10 100
106 0 4.99999999999997 100
107 0 0 95
108 0 0 90
109 0 0 85
110 0 0 75
111 0 0 70
112 0 0 65
113 0 0 60
114 0 0 55
115 0 0 45
116 0 0 35
117 0 0 30
118 0 0 25
119 0 0 15
120 0 0 5
121 0 54.9999848985148 94.9999829165107
122 0 145 4.99999999999999
123 0 79.959384426862 95.0150366699955
124 0 114.929554267251 95.0107871676904
125 0 60 5
126 0 85 5
127 0 120 5
128 0 149.999999622865 95.0000000049029
129 0 5 45
130 0 195 40
131 0 195 65
132 0 30 5
133 0 170 5
134 0 34.9999999994023 94.9999999993396
135 0 180 95
136 0 5 75
137 0 5 20
138 0 195 25
139 0 180 5
140 0 20 95
141 0 195 90
142 0 10 5
143 0 100 5
144 0 195 15
145 0 99.7383682564381 95.1352200467088
146 0 134.999644511493 95.0000111992932
147 0 5 85
148 0 70 5
149 0 195 55
150 0 40 5
151 0 130 5
152 0 69.9971063185249 94.9991581282542
153 0 170 95
154 0 5 55
155 0 155 5
156 0 195 5
157 0 5 95
158 0 44.9999998404906 94.9999998124651
159 0 160 5
160 0 105 5
161 0 124.991992300243 95.0006518334865
162 0 94.7632413347258 95.1546234682768
163 0 195 85
164 0 135 5
165 0 64.9993622071219 94.9996442330589
166 0 110 5
167 0 89.8340809638908 95.118047820417
168 0 29.9999999999184 94.9999999999101
169 0 50 5
170 0 75 5
171 0 195 95
172 0 15 5
173 0 20 5
174 0 90 5
175 0 195 50
176 0 195 75
177 0 109.861438009799 95.0359242124763
178 0 185 5
179 0 195 35
180 0 164.999999999982 95.0000000000002
181 0 159.999999998809 95.0000000000126
182 0 5 35
183 0 5 10
184 0 5 5
185 0 190 95
186 0 15 95
187 0 5 65
188 0 5 25
189 0 144.999994684397 95.0000000668325
190 0 69.9964715037255 90.0002993347119
191 0 130 9.99999999999999
192 0 100 10
193 0 114.903561124441 90.0266380318008
194 0 70 10
195 0 94.6730329514218 90.3321895083918
196 0 149.999998224281 90.000000025517
197 0 190 55
198 0 155 9.99999999999999
199 0 190 40
200 0 169.999999999991 90.0000000000001
201 0 29.999999999888 89.9999999998748
202 0 10 20
203 0 180 10
204 0 15 10
205 0 19.9999999999999 89.9999999999999
206 0 59.9998619232883 94.9998923169493
207 0 140 4.99999999999999
208 0 39.9999999752003 94.9999999710883
209 0 165 5
210 0 80 5
211 0 119.973231987037 95.0041240504405
212 0 150 5
213 0 115 5
214 0 84.9099022520683 95.0607372134607
215 0 49.9999972292628 94.9999968014945
216 0 190 90
217 0 65 5
218 0 125 5
219 0 74.9869952414664 95.0026801559318
220 0 190 5
221 0 195 10
222 0 95 5
223 0 195 60
224 0 129.997729599171 95.0001576692949
225 0 104.800199296097 95.0828331611193
226 0 10 95
227 0 5 90
228 0 105 10
229 0 55 5
230 0 35 5
231 0 45 5
232 0 195 45
233 0 195 70
234 0 25 5
235 0 195 20
236 0 185 95
237 0 154.999999839402 95.0000000022338
238 0 164.999999999826 90.0000000000018
239 0 195 30
240 0 174.999999999999 95
241 0 10 10
242 0 5 80
243 0 5 50
244 0 5 40
245 0 139.99991818456 95.0000023762841
246 0 5 70
247 0 5 60
248 0 5 30
249 0 5 15
250 0 195 80
251 0 175 5
252 0 24.9999999999828 94.9999999999809
253 0 100 15
254 0 45 10
255 0 10 50
256 0 169.999999999961 85.0000000000004
257 0 10 65
258 0 190 75
259 0 54.9999726696434 89.9999641214473
260 0 129.996402855143 90.0003201373151
261 0 64.9991618083183 89.9997513228774
262 0 79.9493435862194 90.0489378978999
263 0 120 9.99999999999999
264 0 145 9.99999999999999
265 0 135 9.99999999999999
266 0 60 10
267 0 44.9999994636561 89.9999992549019
268 0 110 9.99999999999999
269 0 190 85
270 0 35 10
271 0 159.999999987766 90.0000000001628
272 0 190 45
273 0 185 10
274 0 190 25
275 0 190 35
276 0 10 30
277 0 10 75
278 0 15 90
279 0 170 10
280 0 99.6730204787897 90.2798483373834
281 0 90 10
282 0 74.9838950431613 90.0134744672791
283 0 125 9.99999999999999
284 0 119.960951587752 90.0084690443184
285 0 160 10
286 0 65 10
287 0 80 9.99999999999999
288 0 95 10
289 0 150 10
290 0 190 60
291 0 109.818069016672 90.0816107940101
292 0 190 50
293 0 154.999999693171 90.000000004319
294 0 50 10
295 0 190 70
296 0 25 10
297 0 10 40
298 0 180 90
299 0 185 90
300 0 190 15
301 0 139.999863662789 90.0000046372683
302 0 144.999971580314 90.0000008314816
303 0 20 10
304 0 10 25
305 0 174.999999999996 90
306 0 10 15
307 0 190 10
308 0 10 85
309 0 10 55
310 0 75 10
311 0 10 90
312 0 175 10
313 0 34.9999999956324 89.9999999936337
314 0 24.9999999999781 89.9999999999757
315 0 84.8774281421969 90.1458256072897
316 0 89.787089622811 90.2640762152823
317 0 70.0010932691224 85.0042123064564
318 0 125 15
319 0 145 15
320 0 114.928698310952 85.0456045275212
321 0 75 15
322 0 139.999836734317 85.0000079779737
323 0 185 55
324 0 45 15
325 0 15 50
326 0 185 40
327 0 170 15
328 0 29.9999999995698 84.9999999993775
329 0 185 75
330 0 15 25
331 0 79.9837292480173 85.0911921882086
332 0 65 15
333 0 159.999999973073 85.0000000003678
334 0 20 15
335 0 104.744203474366 90.1760320470054
336 0 59.9998144097858 89.9998670590116
337 0 85 10
338 0 140 9.99999999999999
339 0 95 15
340 0 49.9999940682497 89.9999919647164
341 0 115 9.99999999999999
342 0 124.985986656953 90.0023606641376
343 0 40 10
344 0 190 80
345 0 190 65
346 0 175 15
347 0 164.999999995267 85.0000000000637
348 0 185 50
349 0 30 10
350 0 130 15
351 0 185 15
352 0 10 45
353 0 10 35
354 0 154.999999692552 85.0000000046029
355 0 15 15
356 0 55 10
357 0 190 20
358 0 180 85
359 0 174.999999999992 85.0000000000001
360 0 185 85
361 0 190 30
362 0 150 15
363 0 155 15
364 0 15 85
365 0 105 15
366 0 10 80
367 0 10 70
368 0 10 60
369 0 134.999017222337 90.0000685017675
370 0 149.999995571414 85.000000112093
371 0 165 10
372 0 39.9999999048146 89.9999998651941
373 0 24.999999999935 84.9999999999096
374 0 94.7776080516989 85.5087582833549
375 0 89.8668999001314 85.3992479492547
376 0 94.9887082260729 80.6060906764733
377 0 125 19.9999999999999
378 0 145 20
379 0 95 20
380 0 180 55
381 0 164.999999995304 80.0000000000668
382 0 170 20
383 0 55.000012103298 84.9999641502008
384 0 29.9999999998284 79.9999999992356
385 0 14.9999999999999 64.9999999999997
386 0 185 30
387 0 129.996184122234 85.0005796612995
388 0 35 15
389 0 154.999999411499 80.0000000137807
390 0 15 35
391 0 15 55
392 0 15 45
393 0 160 15
394 0 44.9999998735499 84.9999984588292
395 0 104.805112002853 85.2737238800814
396 0 99.7829314771791 85.4170314500446
397 0 60.0001717337403 84.9999327036523
398 0 74.999299762167 85.0286422624705
399 0 85 15
400 0 120 15
401 0 110 15
402 0 90 15
403 0 140 15
404 0 150 20
405 0 70 15
406 0 134.998868875228 85.000124557928
407 0 40 15
408 0 185 65
409 0 185 80
410 0 179.999999999999 80
411 0 180 15
412 0 65.0008736460533 85.0007615820671
413 0 185 45
414 0 15 30
415 0 50 15
416 0 185 70
417 0 15 20
418 0 19.9999999999903 84.9999999999869
419 0 174.999999999986 80.0000000000001
420 0 185 20
421 0 80 15
422 0 25 15
423 0 144.999958351605 85.0000016996549
424 0 14.9999999999998 69.9999999999995
425 0 119.967437396242 85.0145819036087
426 0 185 60
427 0 100 20
428 0 185 35
429 0 14.9999999999993 79.9999999999991
430 0 135 15
431 0 60 15
432 0 34.9999999911292 84.9999999797845
433 0 165 15
434 0 109.876186552673 85.1326965984674
435 0 84.9458654236584 85.228863743334
436 0 75.0365630037155 80.0384716200026
437 0 114.97681773614 80.058914779242
438 0 75 20
439 0 95.000031989861 24.9993484512184
440 0 145.000000000043 25.0000000000077
441 0 129.99765602227 80.0006862150521
442 0 20.0000000000002 49.9999999999994
443 0 45 20
444 0 180 40
445 0 20 30
446 0 120.000000011336 19.9999999934682
447 0 20.0000000000082 64.9999999999794
448 0 65 20
449 0 180 70
450 0 180 60
451 0 19.9999999999933 79.9999999999898
452 0 180 20
453 0 139.999808133974 80.0000199434615
454 0 35.0000000104514 79.9999999769013
455 0 99.9546964174074 80.5120590500229
456 0 140.000000000003 20.0000000000004
457 0 85 20
458 0 80.0695078566913 80.1248845443004
459 0 90.0000019993664 19.9999592782011
460 0 35 20
461 0 115.000000000708 14.9999999995917
462 0 179.999999999999 75
463 0 149.999993527408 80.0000002716269
464 0 159.999999891594 80.0000000022582
465 0 169.999999999046 80.0000000000132
466 0 185 25
467 0 30 15
468 0 15.0000000000005 59.9999999999986
469 0 24.9999999999346 79.9999999998347
470 0 14.9999999999993 74.9999999999989
471 0 20 20
472 0 124.986850808777 85.0041072272152
473 0 180 50
474 0 105.000000034082 19.9999999179701
475 0 39.9999999958138 84.9999996571771
476 0 180 35
477 0 175 20
478 0 15 40
479 0 130 19.9999999999999
480 0 155 20
481 0 165 20
482 0 55 15
483 0 70.0160121405031 80.0112733061643
484 0 60.0011688903578 80.00021791991
485 0 50.0000032752303 84.9999894232628
486 0 104.949026155324 80.3253320869958
487 0 90.064505511899 80.4630000892163
488 0 75.0843915158757 75.0495284156866
489 0 120.000000960169 24.9999984697501
490 0 100.127338111484 75.4798611966283
491 0 174.999999999998 55
492 0 154.999999216134 75.0000000299605
493 0 175 40
494 0 170 25
495 0 140.000000000953 25.0000000001742
496 0 30.000000001515 74.9999999967208
497 0 30 20
498 0 124.993129202875 80.0044378305726
499 0 20.0000000000002 59.9999999999938
500 0 164.999999988654 75.0000000002218
501 0 20.0000000000026 74.9999999999672
502 0 180 30
503 0 95.2283950435144 75.5056405946166
504 0 55.0002638557356 80.0000186182299
505 0 80 20
506 0 85.0000145526895 24.9997083142003
507 0 175 25
508 0 70 20
509 0 119.986074216036 80.0196541737718
510 0 25 20
511 0 115.00000011827 19.9999998083985
512 0 174.999999999919 75.0000000000011
513 0 180 25
514 0 180 65
515 0 20 54.9999999999975
516 0 180 45
517 0 20 25
518 0 135.00000000006 20.0000000000109
519 0 20 40
520 0 20 35
521 0 20.0000000000001 44.9999999999999
522 0 150.000000000005 25.0000000000009
523 0 40 20
524 0 144.999950430849 80.0000038850269
525 0 20.0000000000191 69.9999999999569
526 0 100.000031185872 24.9993775746085
527 0 90.0000324231162 24.9993358839927
528 0 125.00000040694 24.9999996885544
529 0 110.000000098589 19.999999795179
530 0 160 20
531 0 50.0000474265458 79.999996734596
532 0 40.0000006490483 79.9999996560468
533 0 65.0057021665809 80.0026466505371
534 0 134.99911136078 80.0001818129474
535 0 60 20
536 0 50 20
537 0 109.962509782833 80.1619115793825
538 0 85.0922309100728 80.274475753958
539 0 55.0004527052595 75.0000475998763
540 0 115.022087403747 75.0615367997209
541 0 65.0000006052726 25.0000013306183
542 0 129.99934720905 75.001111945748
543 0 120.000021488989 30.0000575377684
544 0 145.000000000921 30.0000000001689
545 0 95.0014263028489 29.9964605576055
546 0 25.0000000000883 49.9999999999895
547 0 45.0000000000023 25.0000000000002
548 0 25.0000000000001 35
549 0 135.000000005343 25.0000000009769
550 0 25.0000000001656 59.9999999998682
551 0 35 25
552 0 174.999999999999 50
553 0 139.999865454956 75.0000334900698
554 0 149.999993061874 75.000000521258
555 0 105.071862446443 75.3069115121897
556 0 90.2938618037701 75.404698583577
557 0 130.000000109996 24.9999999546716
558 0 80.0000078619255 24.9998715055004
559 0 115.000004174947 24.9999823620434
560 0 70.0343133541141 75.0164153977097
561 0 30 25
562 0 120.006068061177 75.0211923219604
563 0 174.99999999996 65.0000000000008
564 0 174.99999999995 70.0000000000008
565 0 159.99999982923 75.0000000056991
566 0 175 45
567 0 35.0000000768027 74.9999999522594
568 0 25.0000000002714 74.9999999993642
569 0 165 25
570 0 169.999999997915 75.0000000000383
571 0 25 25
572 0 105.000019731429 24.9996318699149
573 0 85.000802507625 29.9990640775433
574 0 174.999999999976 60.0000000000005
575 0 60.0028073742434 75.0006581302419
576 0 75.0000044774241 24.9999656197297
577 0 80.1701406144101 75.1354959457994
578 0 175 35
579 0 170 30
580 0 175 30
581 0 155.000000000001 25.0000000000001
582 0 25.0000000000008 39.9999999999997
583 0 25.0000000004551 64.9999999996071
584 0 55 20
585 0 45.0000096021026 79.9999981993711
586 0 55.0008049252026 70.0001270505076
587 0 75.1136386643526 70.0538753949757
588 0 115.047546159603 70.0589896141685
589 0 169.999999999986 45.0000000000026
590 0 149.999996595432 70.0000005227231
591 0 169.999999999658 60.0000000000142
592 0 90.418261362432 70.273678704187
593 0 130.00000098777 30.0000008156267
594 0 170 35
595 0 115.000084113302 30.0001281866981
596 0 159.999999881285 70.0000000059177
597 0 30.0000000049361 59.9999999987549
598 0 30.0000000000007 34.9999999999998
599 0 125.000006469341 30.0000134526891
600 0 80.0005064649477 29.9999845936371
601 0 50.0001460869863 75.0000140319046
602 0 40.0000024061359 74.9999996953891
603 0 35.0000001994113 69.9999999604855
604 0 30.0000000315488 69.9999999905092
605 0 60.0000001267558 25.0000003189562
606 0 50.0000000006732 25.000000001895
607 0 35.0000000000046 30.0000000000003
608 0 30.0000000000007 30
609 0 169.999999998299 70.0000000000394
610 0 25.0000000003862 54.9999999998932
611 0 144.99995691239 75.0000077251546
612 0 25.0000000000001 30
613 0 25.0000000043367 69.9999999983
614 0 160 25
615 0 140.000000024755 30.000000013085
616 0 25.0000000000553 44.999999999995
617 0 90.0015551895203 29.9973765805779
618 0 110.00001461047 24.9998662856551
619 0 134.999591294146 75.0002703144923
620 0 169.999999999919 55.0000000000038
621 0 105.000611428251 29.9986653154825
622 0 70.0000026033736 24.9999969655034
623 0 100.001356002238 29.9968944934479
624 0 40.0000000000006 25
625 0 65.0121501624713 75.0047000834342
626 0 125.000345667306 75.0065157651325
627 0 150.000000000129 30.0000000000238
628 0 165 30
629 0 85.2422941296986 75.2585485134179
630 0 110.041741031746 75.1628744710783
631 0 100.236728871533 70.3143208795146
632 0 65.0000525648297 30.0000301623039
633 0 130.001001518549 70.0013774432063
634 0 95.0114157580371 34.9959073478091
635 0 120.000168767145 35.0005491902004
636 0 145.000000077132 35.0000000196757
637 0 35.0000000005965 35.0000000000437
638 0 50.0001963181894 70.0000242939752
639 0 85.3336941540397 70.2000958197462
640 0 75.0003469393944 30.0002215669974
641 0 40.0000026279029 69.999999870277
642 0 164.999999999999 35.0000000000005
643 0 164.999999996356 60.0000000003081
644 0 30.00000000057 44.9999999999751
645 0 45.0000000007282 30.000000000292
646 0 30.0000000039749 54.9999999994601
647 0 120.018255413145 70.022330859094
648 0 155.000000000018 30.0000000000033
649 0 110.088558785847 70.1469791416707
650 0 80.2151585394147 70.1213035235148
651 0 125.000058019209 35.0001476892352
652 0 169.999999999992 40.0000000000016
653 0 110.000313216714 29.9997851485146
654 0 70.0485548198252 70.0198887469708
655 0 35.000000264659 64.9999999795302
656 0 40.0000000001745 30.0000000000426
657 0 55.0000000223105 25.0000000589693
658 0 154.999998878141 70.00000011925
659 0 169.999999999968 50.000000000003
660 0 45.0000384958269 75.000002573027
661 0 144.999979369594 70.00000715856
662 0 30.0000000525965 64.9999999927769
663 0 30.000000000164 39.9999999999965
664 0 164.99999997003 70.0000000012454
665 0 135.000000297308 30.0000002162911
666 0 85.0078724519006 35.0031751148602
667 0 169.999999997049 65.0000000001283
668 0 135.000091900253 70.0003399254995
669 0 60.004561718186 70.0011378728663
670 0 105.004773531807 35.0005361906432
671 0 160.000000000002 30.0000000000005
672 0 95.3326333997214 70.3061306043057
673 0 105.145437969562 70.2445814399373
674 0 55.0012178446792 65.0002239213379
675 0 85.3378542346001 65.1344564015395
676 0 105.168699170159 65.1842926369384
677 0 115.0496607154 65.0622204355533
678 0 130.001806446439 65.0012826869653
679 0 149.999997740767 65.0000012107704
680 0 120.000872811353 40.0024851234118
681 0 164.999999999412 50.0000000001076
682 0 40.0000027084278 65.0000000147277
683 0 110.002302201344 35.0027858629522
684 0 164.999999999972 40.0000000000084
685 0 75.1264381491037 65.0508543779308
686 0 90.3794762890897 65.1408144133424
687 0 70.0002149767972 30.0001490082183
688 0 115.000918906364 35.0021524001194
689 0 45.0000477793062 70.0000045973861
690 0 35.0000001687952 55.0000000057233
691 0 35.0000003727875 60.0000000003937
692 0 159.999999870897 65.0000000157426
693 0 35.0000000059583 40.0000000003657
694 0 45.0000000450703 35.0000000049079
695 0 50.0000000092014 30.0000000108939
696 0 139.999967116738 70.0000779939814
697 0 164.999999997962 55.0000000002693
698 0 164.999999970077 65.0000000026679
699 0 30.0000000121147 50.0000000002404
700 0 40.0000000130704 35.0000000012391
701 0 80.0052345252337 35.0035555079822
702 0 140.000000777116 35.000000408957
703 0 130.000018824292 35.0000333758761
704 0 90.0125410264847 35.0010320474052
705 0 100.009795289682 34.9977744959221
706 0 125.005781012946 70.0073915131554
707 0 60.0000158623334 30.0000074219404
708 0 65.0182769482008 70.006360431776
709 0 150.000000014752 35.0000000033624
710 0 159.999999999999 35.0000000000044
711 0 100.257864570526 65.1818736249002
712 0 65.0006703487355 35.0002180597968
713 0 95.0425530665963 40.0111302366812
714 0 105.01810096629 40.015325461462
715 0 80.023544329147 40.014133521635
716 0 145.00000081095 40.0000003049685
717 0 100.226503108382 60.1325690399827
718 0 90.3199972244953 60.0902998799858
719 0 50.0000049724007 35.0000007031105
720 0 160.000000000799 40.0000000002966
721 0 115.003182330671 40.0081778184122
722 0 159.999999997913 50.000000003901
723 0 45.0000400643222 65.0000039868978
724 0 159.999999945707 60.000000014091
725 0 35.0000001011378 50.0000000048298
726 0 120.021552506974 65.0240125949821
727 0 50.0003074763603 65.0000482696078
728 0 164.999999999789 45.0000000002911
729 0 40.0000050174517 60.0000003905199
730 0 140.000041506191 65.000056816096
731 0 135.000449244004 65.0003765525474
732 0 35.0000000322331 45.0000000016387
733 0 40.0000001637694 40.0000000173212
734 0 55.0000032404303 30.000001374511
735 0 154.999999247208 65.0000002355883
736 0 145.000001346094 65.0000150611292
737 0 135.000005747018 35.0000068057906
738 0 75.0042499424661 35.0023933005173
739 0 85.0366511064492 40.0214443508445
740 0 60.0063383532212 65.0015658377716
741 0 125.000341209608 40.0007625680174
742 0 70.0591009757061 65.0209262158521
743 0 125.007845707572 65.0079007339839
744 0 155.000000002418 35.0000000005403
745 0 80.2272648336816 65.0987838899342
746 0 110.096851166953 65.130439455498
747 0 95.3309491822672 65.1638510808082
748 0 55.0016587819422 60.0003160213387
749 0 110.084745265735 60.1203566739903
750 0 120.018557453413 60.0233295702362
751 0 75.1309178087413 60.0445853492732
752 0 130.002091731946 60.0017214198857
753 0 140.000097095548 60.0000623521987
754 0 120.003275782791 45.0074658771175
755 0 80.0684847788797 45.0313965801698
756 0 45.0000544048044 60.0000070958533
757 0 55.0000339478994 35.0000060721064
758 0 155.000000008399 40.0000000020885
759 0 95.283009703958 60.1051186561738
760 0 110.009229747425 40.0153583490546
761 0 70.0022607115119 35.0009911152481
762 0 160.0000000021 45.000000001558
763 0 40.0000017704183 50.0000001708586
764 0 40.0000060003375 55.0000006656053
765 0 60.0002189418989 35.0000543221498
766 0 40.0000010233863 45.0000001071651
767 0 159.99999997846 55.0000000119311
768 0 150.000000567155 60.0000018025371
769 0 154.99999978449 60.000000360999
770 0 45.0000016205196 40.00000019785
771 0 130.00012424651 40.0002043112233
772 0 140.000007277543 40.0000049935682
773 0 100.033578083245 40.0132236706179
774 0 90.0465318859834 40.0207117963422
775 0 65.0236588339559 65.007363478511
776 0 75.0175658276145 40.0075143391082
777 0 150.000000148772 40.0000000482054
778 0 85.2866943693785 60.1029846372702
779 0 105.14704994943 60.1550934632873
780 0 65.0033682292517 40.0008011673111
781 0 105.112273200234 55.1254531069659
782 0 145.000003521621 45.0000014982148
783 0 95.0958877309264 45.0405686385841
784 0 90.2464377288276 55.0840193355293
785 0 105.043547857908 45.0462415102826
786 0 75.0463344562037 45.0161366884834
787 0 85.0929352094297 45.0466151683295
788 0 155.000000090948 50.0000000516596
789 0 150.000001404957 55.0000009454113
790 0 70.0104155272775 40.0034172046118
791 0 45.0000149247756 45.0000020189784
792 0 45.0000503126661 55.0000066072027
793 0 50.0004313440121 60.0000742616086
794 0 60.0011796542889 40.0002307960942
795 0 50.0000292199462 40.0000038482292
796 0 150.000000695752 45.0000002722262
797 0 135.00061001472 60.0004456340599
798 0 145.000019191031 60.0000157390733
799 0 135.000042457082 40.0000510928725
800 0 115.009673160496 45.0211436437936
801 0 60.0080056326577 60.0018717487254
802 0 125.00132957136 45.002494827395
803 0 70.0646552238295 60.0198504326283
804 0 125.007502319297 60.008216038744
805 0 155.00000022416 55.0000003134816
806 0 155.000000155112 45.0000000625125
807 0 80.2139998054093 60.0793520759481
808 0 115.043957799713 60.0624302249337
809 0 100.171957722954 55.1053981991972
810 0 65.0095870864703 45.0020758966735
811 0 50.000108742585 45.000014913171
812 0 85.2274762173076 55.083175750377
813 0 110.064787277636 55.0932482074089
814 0 120.013874904008 55.0212059062666
815 0 75.116331965456 55.0363869748359
816 0 55.0019262450652 55.0003605834792
817 0 130.001803843679 55.0018347663501
818 0 100.120163790642 50.0732275384622
819 0 80.127937625409 50.047875228411
820 0 120.008407709446 50.0155321919067
821 0 145.000008026442 50.0000032027917
822 0 140.000116892042 55.0000754236344
823 0 100.072594524784 45.0419980742855
824 0 70.0257343029357 45.0072138402581
825 0 45.0000501808074 50.0000068721653
826 0 50.0005189526869 55.0000911590492
827 0 145.000027800904 55.0000173813249
828 0 55.0003465242497 40.0000599654403
829 0 110.023649750843 45.0381668005367
830 0 90.1041312085514 45.0473991660247
831 0 130.000513128062 45.0007621107705
832 0 140.000033655508 45.0000259104005
833 0 65.0272915327373 60.0076259424682
834 0 150.000003430224 50.000001831217
835 0 95.2198949421146 55.0836583332331
836 0 55.0007937967294 45.0001269026821
837 0 90.1708147783157 50.06823950223
838 0 85.1573026844022 50.0630307643599
839 0 105.078014827542 50.080617051499
840 0 115.021140527619 50.0380803194306
841 0 75.0838115481572 50.0271131569169
842 0 80.1748731659793 55.0621243954335
843 0 65.0180033353262 50.0040576150052
844 0 70.0601076524879 55.0173580334562
845 0 60.0086484619858 55.0019395235282
846 0 125.003569500441 50.0056467963301
847 0 55.001762555103 50.000322993586
848 0 140.000080822322 50.0000559947479
849 0 60.0039254073557 45.0007950809739
850 0 135.000611326622 55.0005323499248
851 0 50.0005240008037 50.0000918664492
852 0 135.000185638499 45.0002172816732
853 0 125.006237641402 55.0083733593227
854 0 115.034513401735 55.0537123195504
855 0 95.1540020470339 50.0655243974378
856 0 130.001493713027 50.002009381801
857 0 60.0071753859777 50.001516884829
858 0 70.0457858505502 50.0131576263211
859 0 65.0274096209297 55.0073341820196
860 0 135.000512272416 50.0005724194973
861 0 110.045587298245 50.0642949335109
$EndNodes
$Elements
800
1 3 2 1 1 686 718 759 747
2 3 2 1 1 503 556 592 672
3 3 2 1 1 376 503 490 455
4 3 2 1 1 837 830 783 855
5 3 2 1 1 718 778 812 784
6 3 2 1 1 455 396 374 376
7 3 2 1 1 809 835 855 818
8 3 2 1 1 818 823 785 839
9 3 2 1 1 315 435 375 316
10 3 2 1 1 592 556 629 639
11 3 2 1 1 649 673 676 746
12 3 2 1 1 807 842 812 778
13 3 2 1 1 812 842 819 838
14 3 2 1 1 839 785 829 861
15 3 2 1 1 829 800 840 861
16 3 2 1 1 854 813 861 840
17 3 2 1 1 677 746 749 808
18 3 2 1 1 540 630 649 588
19 3 2 1 1 814 854 840 820
20 3 2 1 1 842 815 841 819
21 3 2 1 1 814 820 846 853
22 3 2 1 1 841 815 844 858
23 3 2 1 1 858 844 859 843
24 3 2 1 1 853 846 856 817
25 3 2 1 1 849 857 847 836
26 3 2 1 1 856 831 852 860
27 3 2 1 1 827 821 834 789
28 3 2 1 1 832 848 860 852
29 3 2 1 1 789 834 788 805
30 3 2 1 1 818 855 783 823
31 3 2 1 1 857 849 810 843
32 3 2 1 1 826 792 825 851
33 3 2 1 1 810 780 790 824
34 3 2 1 1 712 761 790 780
35 3 2 1 1 632 687 761 712
36 3 2 1 1 383 504 484 397
37 3 2 1 1 206 336 261 165
38 3 2 1 1 319 378 456 403
39 3 2 1 1 458 331 398 436
40 3 2 1 1 825 792 764 763
41 3 2 1 1 446 489 559 511
42 3 2 1 1 488 560 654 587
43 3 2 1 1 748 793 826 816
44 3 2 1 1 843 859 845 857
45 3 2 1 1 851 847 816 826
46 3 2 1 1 207 338 265 164
47 3 2 1 1 558 576 438 505
48 3 2 1 1 331 262 282 398
49 3 2 1 1 399 402 459 457
50 3 2 1 1 283 318 400 263
51 3 2 1 1 285 393 363 198
52 3 2 1 1 448 541 605 535
53 3 2 1 1 584 657 606 536
54 3 2 1 1 788 722 767 805
55 3 2 1 1 397 336 259 383
56 3 2 1 1 821 827 822 848
57 3 2 1 1 253 339 288 192
58 3 2 1 1 448 332 405 508
59 3 2 1 1 403 338 264 319
60 3 2 1 1 652 684 642 594
61 3 2 1 1 497 460 551 561
62 3 2 1 1 728 762 720 684
63 3 2 1 1 758 720 762 806
64 3 2 1 1 731 797 753 730
65 3 2 1 1 266 125 217 286
66 3 2 1 1 209 133 279 371
67 3 2 1 1 601 638 586 539
68 3 2 1 1 680 721 688 635
69 3 2 1 1 283 263 127 218
70 3 2 1 1 282 262 123 219
71 3 2 1 1 287 210 126 337
72 3 2 1 1 539 504 531 601
73 3 2 1 1 604 613 583 662
74 3 2 1 1 638 601 660 689
75 3 2 1 1 797 850 822 753
76 3 2 1 1 446 511 461 400
77 3 2 1 1 583 613 525 447
78 3 2 1 1 394 475 532 585
79 3 2 1 1 559 489 543 595
80 3 2 1 1 289 264 122 212
81 3 2 1 1 341 461 401 268
82 3 2 1 1 684 652 589 728
83 3 2 1 1 207 122 264 338
84 3 2 1 1 213 341 268 166
85 3 2 1 1 609 564 512 570
86 3 2 1 1 689 660 602 641
87 3 2 1 1 762 728 681 722
88 3 2 1 1 694 770 733 700
89 3 2 1 1 163 250 64 65
90 3 2 1 1 279 133 251 312
91 3 2 1 1 171 185 216 141
92 3 2 1 1 163 141 216 269
93 3 2 1 1 485 340 267 394
94 3 2 1 1 518 456 495 549
95 3 2 1 1 767 722 681 697
96 3 2 1 1 598 548 612 608
97 3 2 1 1 697 681 659 620
98 3 2 1 1 312 251 139 203
99 3 2 1 1 285 198 155 159
100 3 2 1 1 134 168 201 313
101 3 2 1 1 435 331 458 538
102 3 2 1 1 430 403 456 518
103 3 2 1 1 514 450 426 408
104 3 2 1 1 450 514 563 574
105 3 2 1 1 569 628 671 614
106 3 2 1 1 707 632 712 765
107 3 2 1 1 628 642 710 671
108 3 2 1 1 328 201 314 373
109 3 2 1 1 605 541 632 707
110 3 2 1 1 602 567 603 641
111 3 2 1 1 174 27 28 222
112 3 2 1 1 42 43 133 209
113 3 2 1 1 48 156 220 47
114 3 2 1 1 340 259 121 215
115 3 2 1 1 206 121 259 336
116 3 2 1 1 220 156 221 307
117 3 2 1 1 143 160 228 192
118 3 2 1 1 456 378 440 495
119 3 2 1 1 661 611 553 696
120 3 2 1 1 552 659 589 566
121 3 2 1 1 766 763 725 732
122 3 2 1 1 39 40 155 212
123 3 2 1 1 221 156 49 50
124 3 2 1 1 177 85 86 225
125 3 2 1 1 106 157 226 105
126 3 2 1 1 107 108 227 157
127 3 2 1 1 226 157 227 311
128 3 2 1 1 371 433 393 285
129 3 2 1 1 384 328 373 469
130 3 2 1 1 379 459 402 339
131 3 2 1 1 322 406 534 453
132 3 2 1 1 645 694 700 656
133 3 2 1 1 95 96 121 206
134 3 2 1 1 320 193 291 434
135 3 2 1 1 294 415 324 254
136 3 2 1 1 437 509 425 320
137 3 2 1 1 499 515 610 550
138 3 2 1 1 37 38 122 207
139 3 2 1 1 97 98 158 215
140 3 2 1 1 288 281 174 222
141 3 2 1 1 313 201 328 432
142 3 2 1 1 387 406 369 260
143 3 2 1 1 336 397 412 261
144 3 2 1 1 407 388 270 343
145 3 2 1 1 254 324 407 343
146 3 2 1 1 389 492 565 464
147 3 2 1 1 698 664 596 692
148 3 2 1 1 657 605 707 734
149 3 2 1 1 30 31 166 160
150 3 2 1 1 151 218 34 35
151 3 2 1 1 88 89 167 162
152 3 2 1 1 152 219 92 93
153 3 2 1 1 284 211 124 193
154 3 2 1 1 232 175 292 272
155 3 2 1 1 335 291 177 225
156 3 2 1 1 332 286 194 405
157 3 2 1 1 163 269 344 250
158 3 2 1 1 344 409 329 258
159 3 2 1 1 389 464 333 354
160 3 2 1 1 347 333 464 381
161 3 2 1 1 327 382 481 433
162 3 2 1 1 502 513 466 386
163 3 2 1 1 513 452 420 466
164 3 2 1 1 382 494 569 481
165 3 2 1 1 596 664 500 565
166 3 2 1 1 640 687 622 576
167 3 2 1 1 648 671 710 744
168 3 2 1 1 786 824 790 776
169 3 2 1 1 847 851 811 836
170 3 2 1 1 2 49 156 48
171 3 2 1 1 223 149 59 60
172 3 2 1 1 4 107 157 106
173 3 2 1 1 271 333 347 238
174 3 2 1 1 344 269 360 409
175 3 2 1 1 576 558 600 640
176 3 2 1 1 650 587 685 745
177 3 2 1 1 678 731 668 633
178 3 2 1 1 730 696 668 731
179 3 2 1 1 683 688 721 760
180 3 2 1 1 792 826 793 756
181 3 2 1 1 315 214 123 262
182 3 2 1 1 272 199 130 232
183 3 2 1 1 279 312 346 327
184 3 2 1 1 448 535 431 332
185 3 2 1 1 259 340 485 383
186 3 2 1 1 326 413 516 444
187 3 2 1 1 534 441 542 619
188 3 2 1 1 547 624 523 443
189 3 2 1 1 584 535 605 657
190 3 2 1 1 578 594 579 580
191 3 2 1 1 659 681 728 589
192 3 2 1 1 637 693 663 598
193 3 2 1 1 753 798 736 730
194 3 2 1 1 845 816 847 857
195 3 2 1 1 217 125 21 22
196 3 2 1 1 189 128 77 78
197 3 2 1 1 167 214 315 316
198 3 2 1 1 696 553 619 668
199 3 2 1 1 678 633 706 743
200 3 2 1 1 606 657 734 695
201 3 2 1 1 25 26 126 210
202 3 2 1 1 160 143 29 30
203 3 2 1 1 32 33 127 213
204 3 2 1 1 164 151 35 36
205 3 2 1 1 207 164 36 37
206 3 2 1 1 159 155 40 41
207 3 2 1 1 60 61 131 223
208 3 2 1 1 66 67 171 141
209 3 2 1 1 146 80 81 224
210 3 2 1 1 83 84 124 211
211 3 2 1 1 162 145 87 88
212 3 2 1 1 90 91 123 214
213 3 2 1 1 165 152 93 94
214 3 2 1 1 206 165 94 95
215 3 2 1 1 291 193 124 177
216 3 2 1 1 260 224 161 342
217 3 2 1 1 151 164 265 191
218 3 2 1 1 152 165 261 190
219 3 2 1 1 231 169 294 254
220 3 2 1 1 344 258 176 250
221 3 2 1 1 169 229 356 294
222 3 2 1 1 295 258 329 416
223 3 2 1 1 399 337 281 402
224 3 2 1 1 288 339 402 281
225 3 2 1 1 335 395 434 291
226 3 2 1 1 372 313 432 475
227 3 2 1 1 301 369 406 322
228 3 2 1 1 428 326 444 476
229 3 2 1 1 462 449 416 329
230 3 2 1 1 328 384 454 432
231 3 2 1 1 428 476 502 386
232 3 2 1 1 346 411 452 477
233 3 2 1 1 322 453 524 423
234 3 2 1 1 516 566 493 444
235 3 2 1 1 476 444 493 578
236 3 2 1 1 612 548 520 445
237 3 2 1 1 477 452 513 507
238 3 2 1 1 532 454 567 602
239 3 2 1 1 524 611 554 463
240 3 2 1 1 380 491 552 473
241 3 2 1 1 566 516 473 552
242 3 2 1 1 580 502 476 578
243 3 2 1 1 574 591 620 491
244 3 2 1 1 552 491 620 659
245 3 2 1 1 567 496 604 603
246 3 2 1 1 502 580 507 513
247 3 2 1 1 497 561 571 510
248 3 2 1 1 695 645 547 606
249 3 2 1 1 656 624 547 645
250 3 2 1 1 616 582 663 644
251 3 2 1 1 554 611 661 590
252 3 2 1 1 658 590 679 735
253 3 2 1 1 697 620 591 643
254 3 2 1 1 691 597 646 690
255 3 2 1 1 662 655 603 604
256 3 2 1 1 607 656 700 637
257 3 2 1 1 693 637 700 733
258 3 2 1 1 697 643 724 767
259 3 2 1 1 663 693 732 644
260 3 2 1 1 725 699 644 732
261 3 2 1 1 695 719 694 645
262 3 2 1 1 699 725 690 646
263 3 2 1 1 597 691 655 662
264 3 2 1 1 596 658 735 692
265 3 2 1 1 798 768 679 736
266 3 2 1 1 710 720 758 744
267 3 2 1 1 722 788 806 762
268 3 2 1 1 20 229 169 19
269 3 2 1 1 229 20 21 125
270 3 2 1 1 148 217 22 23
271 3 2 1 1 143 222 28 29
272 3 2 1 1 213 166 31 32
273 3 2 1 1 209 159 41 42
274 3 2 1 1 53 54 239 138
275 3 2 1 1 214 167 89 90
276 3 2 1 1 208 158 98 99
277 3 2 1 1 290 223 131 345
278 3 2 1 1 343 270 230 150
279 3 2 1 1 301 302 189 245
280 3 2 1 1 312 203 411 346
281 3 2 1 1 159 209 371 285
282 3 2 1 1 150 231 254 343
283 3 2 1 1 176 258 295 233
284 3 2 1 1 190 261 412 317
285 3 2 1 1 353 276 414 390
286 3 2 1 1 190 317 398 282
287 3 2 1 1 301 322 423 302
288 3 2 1 1 380 323 426 450
289 3 2 1 1 323 380 473 348
290 3 2 1 1 413 348 473 516
291 3 2 1 1 524 463 370 423
292 3 2 1 1 324 443 523 407
293 3 2 1 1 388 407 523 460
294 3 2 1 1 380 450 574 491
295 3 2 1 1 389 463 554 492
296 3 2 1 1 384 469 568 496
297 3 2 1 1 596 565 492 658
298 3 2 1 1 525 613 568 501
299 3 2 1 1 529 511 559 618
300 3 2 1 1 460 523 624 551
301 3 2 1 1 646 610 546 699
302 3 2 1 1 616 644 699 546
303 3 2 1 1 610 646 597 550
304 3 2 1 1 595 653 618 559
305 3 2 1 1 551 607 608 561
306 3 2 1 1 564 609 667 563
307 3 2 1 1 496 568 613 604
308 3 2 1 1 563 667 591 574
309 3 2 1 1 614 671 648 581
310 3 2 1 1 548 598 663 582
311 3 2 1 1 550 597 662 583
312 3 2 1 1 643 591 667 698
313 3 2 1 1 641 603 655 682
314 3 2 1 1 598 608 607 637
315 3 2 1 1 664 698 667 609
316 3 2 1 1 653 683 670 621
317 3 2 1 1 716 777 796 782
318 3 2 1 1 837 838 787 830
319 3 2 1 1 210 170 24 25
320 3 2 1 1 61 62 233 131
321 3 2 1 1 145 225 86 87
322 3 2 1 1 224 260 369 146
323 3 2 1 1 212 155 198 289
324 3 2 1 1 302 423 370 196
325 3 2 1 1 326 199 272 413
326 3 2 1 1 326 428 275 199
327 3 2 1 1 131 233 295 345
328 3 2 1 1 191 265 430 350
329 3 2 1 1 338 403 430 265
330 3 2 1 1 292 348 413 272
331 3 2 1 1 411 351 420 452
332 3 2 1 1 389 354 370 463
333 3 2 1 1 469 451 501 568
334 3 2 1 1 609 570 500 664
335 3 2 1 1 682 655 691 729
336 3 2 1 1 803 844 815 751
337 3 2 1 1 16 230 132 15
338 3 2 1 1 170 148 23 24
339 3 2 1 1 59 149 175 58
340 3 2 1 1 161 224 81 82
341 3 2 1 1 211 161 82 83
342 3 2 1 1 134 208 99 100
343 3 2 1 1 230 270 349 132
344 3 2 1 1 223 290 197 149
345 3 2 1 1 149 197 292 175
346 3 2 1 1 216 185 236 299
347 3 2 1 1 128 189 302 196
348 3 2 1 1 348 292 197 323
349 3 2 1 1 363 362 289 198
350 3 2 1 1 411 203 273 351
351 3 2 1 1 158 208 372 267
352 3 2 1 1 197 290 426 323
353 3 2 1 1 345 408 426 290
354 3 2 1 1 271 293 354 333
355 3 2 1 1 262 331 435 315
356 3 2 1 1 400 318 377 446
357 3 2 1 1 350 479 377 318
358 3 2 1 1 295 416 408 345
359 3 2 1 1 270 388 467 349
360 3 2 1 1 267 372 475 394
361 3 2 1 1 446 377 528 489
362 3 2 1 1 565 500 381 464
363 3 2 1 1 454 384 496 567
364 3 2 1 1 468 499 447 385
365 3 2 1 1 460 497 467 388
366 3 2 1 1 321 438 508 405
367 3 2 1 1 329 409 410 462
368 3 2 1 1 512 462 410 419
369 3 2 1 1 408 416 449 514
370 3 2 1 1 512 419 465 570
371 3 2 1 1 497 510 422 467
372 3 2 1 1 350 430 518 479
373 3 2 1 1 616 546 442 521
374 3 2 1 1 517 571 612 445
375 3 2 1 1 499 550 583 447
376 3 2 1 1 462 512 564 449
377 3 2 1 1 563 514 449 564
378 3 2 1 1 436 488 577 458
379 3 2 1 1 381 500 570 465
380 3 2 1 1 549 557 479 518
381 3 2 1 1 448 508 622 541
382 3 2 1 1 442 546 610 515
383 3 2 1 1 520 548 582 519
384 3 2 1 1 519 582 616 521
385 3 2 1 1 687 632 541 622
386 3 2 1 1 561 608 612 571
387 3 2 1 1 573 666 701 600
388 3 2 1 1 723 727 638 689
389 3 2 1 1 701 666 739 715
390 3 2 1 1 741 802 754 680
391 3 2 1 1 794 765 712 780
392 3 2 1 1 827 798 753 822
393 3 2 1 1 798 827 789 768
394 3 2 1 1 768 789 805 769
395 3 2 1 1 836 828 794 849
396 3 2 1 1 11 12 172 142
397 3 2 1 1 12 13 173 172
398 3 2 1 1 15 132 234 14
399 3 2 1 1 13 14 234 173
400 3 2 1 1 150 230 16 17
401 3 2 1 1 231 150 17 18
402 3 2 1 1 231 18 19 169
403 3 2 1 1 44 45 139 251
404 3 2 1 1 51 144 221 50
405 3 2 1 1 53 138 235 52
406 3 2 1 1 51 52 235 144
407 3 2 1 1 55 179 239 54
408 3 2 1 1 56 130 179 55
409 3 2 1 1 232 130 56 57
410 3 2 1 1 57 58 175 232
411 3 2 1 1 233 62 63 176
412 3 2 1 1 63 64 250 176
413 3 2 1 1 3 68 171 67
414 3 2 1 1 185 171 68 69
415 3 2 1 1 69 70 236 185
416 3 2 1 1 189 78 79 245
417 3 2 1 1 146 245 79 80
418 3 2 1 1 196 293 237 128
419 3 2 1 1 234 132 349 296
420 3 2 1 1 299 236 135 298
421 3 2 1 1 172 204 241 142
422 3 2 1 1 148 170 310 194
423 3 2 1 1 172 173 303 204
424 3 2 1 1 234 296 303 173
425 3 2 1 1 139 178 273 203
426 3 2 1 1 130 199 275 179
427 3 2 1 1 239 179 275 361
428 3 2 1 1 153 180 238 200
429 3 2 1 1 293 271 181 237
430 3 2 1 1 180 181 271 238
431 3 2 1 1 353 297 244 182
432 3 2 1 1 137 202 304 188
433 3 2 1 1 248 188 304 276
434 3 2 1 1 354 293 196 370
435 3 2 1 1 153 200 305 240
436 3 2 1 1 168 252 314 201
437 3 2 1 1 137 249 306 202
438 3 2 1 1 304 202 417 330
439 3 2 1 1 306 355 417 202
440 3 2 1 1 241 204 355 306
441 3 2 1 1 303 334 355 204
442 3 2 1 1 314 205 418 373
443 3 2 1 1 127 263 341 213
444 3 2 1 1 178 220 307 273
445 3 2 1 1 144 300 307 221
446 3 2 1 1 125 266 356 229
447 3 2 1 1 138 274 357 235
448 3 2 1 1 144 235 357 300
449 3 2 1 1 200 238 347 256
450 3 2 1 1 138 239 361 274
451 3 2 1 1 135 240 305 298
452 3 2 1 1 129 244 297 352
453 3 2 1 1 182 248 276 353
454 3 2 1 1 309 255 325 391
455 3 2 1 1 325 255 352 392
456 3 2 1 1 200 256 359 305
457 3 2 1 1 465 256 347 381
458 3 2 1 1 465 419 359 256
459 3 2 1 1 468 385 257 368
460 3 2 1 1 286 332 431 266
461 3 2 1 1 216 299 360 269
462 3 2 1 1 307 300 351 273
463 3 2 1 1 466 420 357 274
464 3 2 1 1 386 466 274 361
465 3 2 1 1 428 386 361 275
466 3 2 1 1 304 330 414 276
467 3 2 1 1 367 424 470 277
468 3 2 1 1 337 399 421 287
469 3 2 1 1 303 296 422 334
470 3 2 1 1 467 422 296 349
471 3 2 1 1 353 390 478 297
472 3 2 1 1 299 298 358 360
473 3 2 1 1 420 351 300 357
474 3 2 1 1 298 305 359 358
475 3 2 1 1 368 309 391 468
476 3 2 1 1 404 378 319 362
477 3 2 1 1 505 438 321 421
478 3 2 1 1 515 391 325 442
479 3 2 1 1 521 442 325 392
480 3 2 1 1 445 414 330 517
481 3 2 1 1 417 471 517 330
482 3 2 1 1 355 334 471 417
483 3 2 1 1 263 400 461 341
484 3 2 1 1 260 342 472 387
485 3 2 1 1 297 478 392 352
486 3 2 1 1 266 431 482 356
487 3 2 1 1 419 410 358 359
488 3 2 1 1 360 358 410 409
489 3 2 1 1 526 439 379 427
490 3 2 1 1 447 525 424 385
491 3 2 1 1 472 498 441 387
492 3 2 1 1 414 445 520 390
493 3 2 1 1 520 519 478 390
494 3 2 1 1 499 468 391 515
495 3 2 1 1 521 392 478 519
496 3 2 1 1 457 505 421 399
497 3 2 1 1 365 401 529 474
498 3 2 1 1 461 511 529 401
499 3 2 1 1 378 404 522 440
500 3 2 1 1 387 441 534 406
501 3 2 1 1 397 484 533 412
502 3 2 1 1 364 429 451 418
503 3 2 1 1 373 418 451 469
504 3 2 1 1 334 422 510 471
505 3 2 1 1 525 501 470 424
506 3 2 1 1 498 472 425 509
507 3 2 1 1 562 509 437 540
508 3 2 1 1 379 439 527 459
509 3 2 1 1 498 626 542 441
510 3 2 1 1 429 470 501 451
511 3 2 1 1 432 454 532 475
512 3 2 1 1 457 459 527 506
513 3 2 1 1 571 517 471 510
514 3 2 1 1 427 474 572 526
515 3 2 1 1 431 535 584 482
516 3 2 1 1 658 492 554 590
517 3 2 1 1 589 652 493 566
518 3 2 1 1 594 578 493 652
519 3 2 1 1 440 544 615 495
520 3 2 1 1 617 573 506 527
521 3 2 1 1 572 621 623 526
522 3 2 1 1 439 545 617 527
523 3 2 1 1 474 529 618 572
524 3 2 1 1 484 575 625 533
525 3 2 1 1 651 635 543 599
526 3 2 1 1 557 549 665 593
527 3 2 1 1 495 615 665 549
528 3 2 1 1 607 551 624 656
529 3 2 1 1 653 621 572 618
530 3 2 1 1 488 587 650 577
531 3 2 1 1 639 629 577 650
532 3 2 1 1 599 593 703 651
533 3 2 1 1 544 636 702 615
534 3 2 1 1 542 633 668 619
535 3 2 1 1 600 701 738 640
536 3 2 1 1 689 641 682 723
537 3 2 1 1 692 724 643 698
538 3 2 1 1 639 650 745 675
539 3 2 1 1 587 654 742 685
540 3 2 1 1 696 730 736 661
541 3 2 1 1 615 702 737 665
542 3 2 1 1 593 665 737 703
543 3 2 1 1 760 714 670 683
544 3 2 1 1 723 682 729 756
545 3 2 1 1 640 738 761 687
546 3 2 1 1 764 690 725 763
547 3 2 1 1 690 764 729 691
548 3 2 1 1 733 766 732 693
549 3 2 1 1 651 703 771 741
550 3 2 1 1 647 726 743 706
551 3 2 1 1 785 823 773 714
552 3 2 1 1 757 828 795 719
553 3 2 1 1 680 754 800 721
554 3 2 1 1 727 723 756 793
555 3 2 1 1 756 729 764 792
556 3 2 1 1 703 737 799 771
557 3 2 1 1 685 751 807 745
558 3 2 1 1 842 807 751 815
559 3 2 1 1 787 838 819 755
560 3 2 1 1 765 794 828 757
561 3 2 1 1 714 760 829 785
562 3 2 1 1 724 769 805 767
563 3 2 1 1 791 770 795 811
564 3 2 1 1 811 851 825 791
565 3 2 1 1 811 795 828 836
566 3 2 1 1 754 820 840 800
567 3 2 1 1 850 860 848 822
568 3 2 1 1 115 129 243 6
569 3 2 1 1 178 139 45 46
570 3 2 1 1 220 178 46 47
571 3 2 1 1 240 72 73 153
572 3 2 1 1 180 153 73 74
573 3 2 1 1 181 180 74 75
574 3 2 1 1 237 181 75 76
575 3 2 1 1 237 76 77 128
576 3 2 1 1 352 255 243 129
577 3 2 1 1 350 318 283 191
578 3 2 1 1 134 313 372 208
579 3 2 1 1 154 309 368 247
580 3 2 1 1 474 427 253 365
581 3 2 1 1 339 253 427 379
582 3 2 1 1 424 367 257 385
583 3 2 1 1 356 482 415 294
584 3 2 1 1 584 536 415 482
585 3 2 1 1 509 562 626 498
586 3 2 1 1 439 526 623 545
587 3 2 1 1 744 709 627 648
588 3 2 1 1 750 726 677 808
589 3 2 1 1 735 769 724 692
590 3 2 1 1 734 757 719 695
591 3 2 1 1 694 719 795 770
592 3 2 1 1 702 772 799 737
593 3 2 1 1 841 786 755 819
594 3 2 1 1 763 766 791 825
595 3 2 1 1 848 832 782 821
596 3 2 1 1 780 810 849 794
597 3 2 1 1 782 796 834 821
598 3 2 1 1 817 856 860 850
599 3 2 1 1 110 136 242 5
600 3 2 1 1 109 5 242 147
601 3 2 1 1 114 6 243 154
602 3 2 1 1 115 7 244 129
603 3 2 1 1 116 182 244 7
604 3 2 1 1 1 10 184 120
605 3 2 1 1 11 142 184 10
606 3 2 1 1 174 126 26 27
607 3 2 1 1 218 127 33 34
608 3 2 1 1 212 122 38 39
609 3 2 1 1 236 70 71 135
610 3 2 1 1 240 135 71 72
611 3 2 1 1 177 124 84 85
612 3 2 1 1 219 123 91 92
613 3 2 1 1 215 121 96 97
614 3 2 1 1 102 103 140 252
615 3 2 1 1 103 104 186 140
616 3 2 1 1 104 105 226 186
617 3 2 1 1 109 147 227 108
618 3 2 1 1 110 111 246 136
619 3 2 1 1 112 187 246 111
620 3 2 1 1 112 113 247 187
621 3 2 1 1 113 114 154 247
622 3 2 1 1 116 117 248 182
623 3 2 1 1 118 188 248 117
624 3 2 1 1 8 137 188 118
625 3 2 1 1 8 119 249 137
626 3 2 1 1 9 183 249 119
627 3 2 1 1 9 120 184 183
628 3 2 1 1 205 314 252 140
629 3 2 1 1 184 142 241 183
630 3 2 1 1 222 143 192 288
631 3 2 1 1 217 148 194 286
632 3 2 1 1 215 158 267 340
633 3 2 1 1 211 284 342 161
634 3 2 1 1 160 166 268 228
635 3 2 1 1 126 174 281 337
636 3 2 1 1 306 249 183 241
637 3 2 1 1 140 186 278 205
638 3 2 1 1 405 194 310 321
639 3 2 1 1 418 205 278 364
640 3 2 1 1 186 226 311 278
641 3 2 1 1 147 308 311 227
642 3 2 1 1 192 228 365 253
643 3 2 1 1 401 365 228 268
644 3 2 1 1 136 277 366 242
645 3 2 1 1 147 242 366 308
646 3 2 1 1 154 243 255 309
647 3 2 1 1 187 257 367 246
648 3 2 1 1 136 246 367 277
649 3 2 1 1 187 247 368 257
650 3 2 1 1 470 429 366 277
651 3 2 1 1 311 308 364 278
652 3 2 1 1 193 320 425 284
653 3 2 1 1 425 472 342 284
654 3 2 1 1 434 537 437 320
655 3 2 1 1 362 363 480 404
656 3 2 1 1 308 366 429 364
657 3 2 1 1 557 528 377 479
658 3 2 1 1 363 393 530 480
659 3 2 1 1 324 415 536 443
660 3 2 1 1 488 436 483 560
661 3 2 1 1 547 443 536 606
662 3 2 1 1 611 524 453 553
663 3 2 1 1 534 619 553 453
664 3 2 1 1 505 457 506 558
665 3 2 1 1 404 480 581 522
666 3 2 1 1 530 481 569 614
667 3 2 1 1 625 560 483 533
668 3 2 1 1 504 539 575 484
669 3 2 1 1 383 485 531 504
670 3 2 1 1 558 506 573 600
671 3 2 1 1 438 576 622 508
672 3 2 1 1 440 522 627 544
673 3 2 1 1 585 532 602 660
674 3 2 1 1 458 577 629 538
675 3 2 1 1 688 595 543 635
676 3 2 1 1 709 636 544 627
677 3 2 1 1 540 588 647 562
678 3 2 1 1 494 579 628 569
679 3 2 1 1 727 674 586 638
680 3 2 1 1 736 679 590 661
681 3 2 1 1 683 653 595 688
682 3 2 1 1 545 634 704 617
683 3 2 1 1 573 617 704 666
684 3 2 1 1 545 623 705 634
685 3 2 1 1 621 670 705 623
686 3 2 1 1 575 669 708 625
687 3 2 1 1 777 716 636 709
688 3 2 1 1 684 720 710 642
689 3 2 1 1 588 677 726 647
690 3 2 1 1 635 651 741 680
691 3 2 1 1 793 748 674 727
692 3 2 1 1 769 735 679 768
693 3 2 1 1 803 751 685 742
694 3 2 1 1 636 716 772 702
695 3 2 1 1 634 713 774 704
696 3 2 1 1 666 704 774 739
697 3 2 1 1 634 705 773 713
698 3 2 1 1 670 714 773 705
699 3 2 1 1 669 740 775 708
700 3 2 1 1 654 708 775 742
701 3 2 1 1 758 777 709 744
702 3 2 1 1 823 783 713 773
703 3 2 1 1 701 715 776 738
704 3 2 1 1 739 787 755 715
705 3 2 1 1 829 760 721 800
706 3 2 1 1 678 752 797 731
707 3 2 1 1 770 791 766 733
708 3 2 1 1 787 739 774 830
709 3 2 1 1 674 748 801 740
710 3 2 1 1 726 750 804 743
711 3 2 1 1 715 755 786 776
712 3 2 1 1 806 796 777 758
713 3 2 1 1 741 771 831 802
714 3 2 1 1 716 782 832 772
715 3 2 1 1 713 783 830 774
716 3 2 1 1 740 801 833 775
717 3 2 1 1 742 775 833 803
718 3 2 1 1 788 834 796 806
719 3 2 1 1 752 817 850 797
720 3 2 1 1 771 799 852 831
721 3 2 1 1 754 802 846 820
722 3 2 1 1 856 846 802 831
723 3 2 1 1 859 844 803 833
724 3 2 1 1 750 814 853 804
725 3 2 1 1 786 841 858 824
726 3 2 1 1 163 65 66 141
727 3 2 1 1 146 369 301 245
728 3 2 1 1 507 494 382 477
729 3 2 1 1 614 581 480 530
730 3 2 1 1 599 543 489 528
731 3 2 1 1 593 599 528 557
732 3 2 1 1 539 586 669 575
733 3 2 1 1 642 628 579 594
734 3 2 1 1 586 674 740 669
735 3 2 1 1 757 734 707 765
736 3 2 1 1 817 752 804 853
737 3 2 1 1 738 776 790 761
738 3 2 1 1 772 832 852 799
739 3 2 1 1 859 833 801 845
740 3 2 1 1 810 824 858 843
741 3 2 1 1 218 151 191 283
742 3 2 1 1 219 152 190 282
743 3 2 1 1 210 287 310 170
744 3 2 1 1 321 310 287 421
745 3 2 1 1 481 530 393 433
746 3 2 1 1 485 394 585 531
747 3 2 1 1 580 579 494 507
748 3 2 1 1 660 601 531 585
749 3 2 1 1 708 654 560 625
750 3 2 1 1 706 626 562 647
751 3 2 1 1 522 581 648 627
752 3 2 1 1 752 678 743 804
753 3 2 1 1 748 816 845 801
754 3 2 1 1 100 101 168 134
755 3 2 1 1 398 317 483 436
756 3 2 1 1 433 371 279 327
757 3 2 1 1 264 289 362 319
758 3 2 1 1 317 412 533 483
759 3 2 1 1 633 542 626 706
760 3 2 1 1 327 346 477 382
761 3 2 1 1 251 133 43 44
762 3 2 1 1 252 168 101 102
763 3 2 1 1 861 813 781 839
764 3 2 1 1 677 588 649 746
765 3 2 1 1 814 750 808 854
766 3 2 1 1 749 813 854 808
767 3 2 1 1 629 556 487 538
768 3 2 1 1 540 437 537 630
769 3 2 1 1 537 434 395 486
770 3 2 1 1 396 455 486 395
771 3 2 1 1 486 555 630 537
772 3 2 1 1 649 630 555 673
773 3 2 1 1 807 778 675 745
774 3 2 1 1 686 675 778 718
775 3 2 1 1 747 672 592 686
776 3 2 1 1 675 686 592 639
777 3 2 1 1 838 837 784 812
778 3 2 1 1 855 835 784 837
779 3 2 1 1 749 746 676 779
780 3 2 1 1 538 487 375 435
781 3 2 1 1 835 809 717 759
782 3 2 1 1 375 374 195 316
783 3 2 1 1 813 749 779 781
784 3 2 1 1 717 809 781 779
785 3 2 1 1 839 781 809 818
786 3 2 1 1 555 486 455 490
787 3 2 1 1 195 374 396 280
788 3 2 1 1 395 335 280 396
789 3 2 1 1 747 711 631 672
790 3 2 1 1 225 145 280 335
791 3 2 1 1 490 631 673 555
792 3 2 1 1 631 711 676 673
793 3 2 1 1 718 784 835 759
794 3 2 1 1 503 672 631 490
795 3 2 1 1 711 747 759 717
796 3 2 1 1 162 167 316 195
797 3 2 1 1 779 676 711 717
798 3 2 1 1 556 503 376 487
799 3 2 1 1 145 162 195 280
800 3 2 1 1 487 376 374 375
$EndElements
