$MeshFormat
2.2 0 8
$EndMeshFormat
$Nodes
120
1 40 40 0
2 50 40 0
3 60 40 0
4 60 60 0
5 40 60 0
6 0 0 0
7 100 0 0
8 0 100 0
9 100 100 0
10 50 10 0
11 60 50 0
12 50 60 0
13 40 50 0
14 10 0 0
15 20 0 0
16 30 0 0
17 40 0 0
18 50 0 0
19 60 0 0
20 70 0 0
21 80 0 0
22 90 0 0
23 0 90 0
24 0 80 0
25 0 70 0
26 0 60 0
27 0 50 0
28 0 40 0
29 0 30 0
30 0 20 0
31 0 10 0
32 100 10 0
33 100 20 0
34 100 30 0
35 100 40 0
36 100 50 0
37 100 60 0
38 100 70 0
39 100 80 0
40 100 90 0
41 90 100 0
42 80 100 0
43 70 100 0
44 60 100 0
45 50 100 0
46 40 100 0
47 30 100 0
48 20 100 0
49 10 100 0
50 50 20 0
51 50 30 0
52 9.99941819950475 49.999295337404 0
53 9.99998074743345 29.9999791529493 0
54 79.9966015819722 9.99165980396624 0
55 89.9464158278016 29.8908334891884 0
56 89.7078058691751 49.6575965941362 0
57 89.6832396203554 69.7304346091829 0
58 39.9324655195642 89.8845610745288 0
59 59.8389109500262 89.7408834523383 0
60 9.99892827664858 79.9981152183926 0
61 49.7541869146872 69.7148511112266 0
62 29.9999999643421 9.99999996148345 0
63 29.9997720838958 39.9997476751555 0
64 69.5880790292634 49.5156548221221 0
65 19.999999984924 9.99999998371543 0
66 89.9533049829181 89.9453361259103 0
67 59.9980206932712 9.99553647778271 0
68 59.9756877602189 29.9539317557191 0
69 39.9999999514947 9.99999994760616 0
70 69.8556184679746 89.7802311649301 0
71 19.9954138674918 89.9911507261194 0
72 89.9977881809933 9.99430677816819 0
73 39.9999834735953 29.9999817706208 0
74 29.9980875086912 49.9977935659981 0
75 9.99999999680455 9.99999999654838 0
76 9.9990318038239 89.9981157511775 0
77 9.99831586916935 69.9975445515727 0
78 39.9072018984997 69.8849239935269 0
79 29.9999955989226 19.999995230648 0
80 69.3902564322102 59.3720470644217 0
81 59.577664403647 69.5227353565891 0
82 29.9871062590605 59.9840076050893 0
83 59.6582131332315 79.5590092394979 0
84 89.8524577704852 39.7683228171175 0
85 29.9761029870395 89.9601302457878 0
86 69.9958260306564 9.99035091982231 0
87 9.99850768944064 59.9980373649184 0
88 19.9906772685283 79.9852757061091 0
89 89.9849216666535 19.9660264568712 0
90 89.8356267071256 79.8432862432834 0
91 59.989214068781 19.978018021721 0
92 19.9999942119 19.9999937508905 0
93 69.8258214615805 39.7349759695794 0
94 9.99979901027292 39.9997646122249 0
95 9.99999528025411 19.9999948985718 0
96 89.6259263234848 59.6399914481363 0
97 79.8901472220286 89.8554548519646 0
98 49.8745328643815 89.8069814886609 0
99 39.9999964541403 19.9999961234274 0
100 19.9995650056068 39.9994964260391 0
101 29.9999345471693 29.9999263905738 0
102 79.4482925436008 69.4551862485678 0
103 79.9760487158448 19.9466220219279 0
104 69.4717715699765 69.4328041049933 0
105 79.4433706738479 59.4166266258199 0
106 79.911541661312 29.832616322246 0
107 49.7815360390122 79.7150596875588 0
108 29.9604214611203 79.9420014488541 0
109 69.6681416393803 79.5955717336475 0
110 29.9662523416888 69.9551537006154 0
111 19.9886415959374 69.9842223861366 0
112 79.7166490128169 79.6951110148752 0
113 19.9999005861618 29.999886516524 0
114 19.9931208294942 59.9910434478152 0
115 19.9974795321882 49.9968683458338 0
116 79.7708313817536 39.6555414840337 0
117 69.9303264837048 29.879662024612 0
118 69.9747517244243 19.9508365289991 0
119 39.8924110633792 79.8530786474256 0
120 79.6032739962396 49.5196069673517 0
$EndNodes
$Elements
96
1 3 2 1 1 96 105 120 56
2 3 2 1 1 81 104 109 83
3 3 2 1 1 56 120 116 84
4 3 2 1 1 89 55 106 103
5 3 2 1 1 104 102 112 109
6 3 2 1 1 18 19 67 10
7 3 2 1 1 35 84 55 34
8 3 2 1 1 87 114 111 77
9 3 2 1 1 34 55 89 33
10 3 2 1 1 58 46 47 85
11 3 2 1 1 110 78 119 108
12 3 2 1 1 18 10 69 17
13 3 2 1 1 16 62 65 15
14 3 2 1 1 16 17 69 62
15 3 2 1 1 67 19 20 86
16 3 2 1 1 21 54 86 20
17 3 2 1 1 21 22 72 54
18 3 2 1 1 27 28 94 52
19 3 2 1 1 28 29 53 94
20 3 2 1 1 29 30 95 53
21 3 2 1 1 36 37 96 56
22 3 2 1 1 37 38 57 96
23 3 2 1 1 38 39 90 57
24 3 2 1 1 46 58 98 45
25 3 2 1 1 48 71 85 47
26 3 2 1 1 48 49 76 71
27 3 2 1 1 95 92 113 53
28 3 2 1 1 72 89 103 54
29 3 2 1 1 119 78 61 107
30 3 2 1 1 69 99 79 62
31 3 2 1 1 62 79 92 65
32 3 2 1 1 91 118 117 68
33 3 2 1 1 59 83 109 70
34 3 2 1 1 108 85 71 88
35 3 2 1 1 60 77 111 88
36 3 2 1 1 67 86 118 91
37 3 2 1 1 108 88 111 110
38 3 2 1 1 66 97 112 90
39 3 2 1 1 116 93 117 106
40 3 2 1 1 2 1 73 51
41 3 2 1 1 2 51 68 3
42 3 2 1 1 78 5 12 61
43 3 2 1 1 13 5 82 74
44 3 2 1 1 110 82 5 78
45 3 2 1 1 91 50 10 67
46 3 2 1 1 68 51 50 91
47 3 2 1 1 50 51 73 99
48 3 2 1 1 94 53 113 100
49 3 2 1 1 107 83 59 98
50 3 2 1 1 81 83 107 61
51 3 2 1 1 3 68 117 93
52 3 2 1 1 109 112 97 70
53 3 2 1 1 63 74 115 100
54 3 2 1 1 73 101 79 99
55 3 2 1 1 106 117 118 103
56 3 2 1 1 101 73 1 63
57 3 2 1 1 13 74 63 1
58 3 2 1 1 99 69 10 50
59 3 2 1 1 4 11 64 80
60 3 2 1 1 3 93 64 11
61 3 2 1 1 4 81 61 12
62 3 2 1 1 6 14 75 31
63 3 2 1 1 15 65 75 14
64 3 2 1 1 7 32 72 22
65 3 2 1 1 8 23 76 49
66 3 2 1 1 24 60 76 23
67 3 2 1 1 25 77 60 24
68 3 2 1 1 87 77 25 26
69 3 2 1 1 26 27 52 87
70 3 2 1 1 95 30 31 75
71 3 2 1 1 89 72 32 33
72 3 2 1 1 35 36 56 84
73 3 2 1 1 90 39 40 66
74 3 2 1 1 9 41 66 40
75 3 2 1 1 41 42 97 66
76 3 2 1 1 43 70 97 42
77 3 2 1 1 59 70 43 44
78 3 2 1 1 98 59 44 45
79 3 2 1 1 115 52 94 100
80 3 2 1 1 118 86 54 103
81 3 2 1 1 112 102 57 90
82 3 2 1 1 105 96 57 102
83 3 2 1 1 107 98 58 119
84 3 2 1 1 85 108 119 58
85 3 2 1 1 71 76 60 88
86 3 2 1 1 95 75 65 92
87 3 2 1 1 82 114 115 74
88 3 2 1 1 114 82 110 111
89 3 2 1 1 55 84 116 106
90 3 2 1 1 52 115 114 87
91 3 2 1 1 79 101 113 92
92 3 2 1 1 64 93 116 120
93 3 2 1 1 63 100 113 101
94 3 2 1 1 102 104 80 105
95 3 2 1 1 80 104 81 4
96 3 2 1 1 120 105 80 64
$EndElements
