$MeshFormat
2.2 0 8
$EndMeshFormat
$Nodes
153
1 0 0 0
2 0 0 500
3 0 0 1600
4 800 0 1600
5 800 0 500
6 800 0 0
7 0 0 100
8 0 0 200
9 0 0 300
10 0 0 400
11 0 0 600
12 0 0 700
13 0 0 800
14 0 0 900
15 0 0 1000
16 0 0 1100
17 0 0 1200
18 0 0 1300
19 0 0 1400
20 0 0 1500
21 100 0 1600
22 200 0 1600
23 300 0 1600
24 400 0 1600
25 500 0 1600
26 600 0 1600
27 700 0 1600
28 800 0 1500
29 800 0 1400
30 800 0 1300
31 800 0 1200
32 800 0 1100
33 800 0 1000
34 800 0 900
35 800 0 800
36 800 0 700
37 800 0 600
38 800 0 400
39 800 0 300
40 800 0 200
41 800 0 100
42 700 0 0
43 600 0 0
44 500 0 0
45 400 0 0
46 300 0 0
47 200 0 0
48 100 0 0
49 700 0 500
50 600 0 500
51 500 0 500
52 400 0 500
53 300 0 500
54 200 0 500
55 100 0 500
56 100 0 1000
57 700 0 1100
58 300 0 1500
59 600 0 100
60 400 0 100
61 700 0 800
62 100 0 300
63 100 0 800
64 500 0 1500
65 100 0 100
66 100 0 1300
67 700 0 1300
68 700 0 600
69 100 0 600
70 100 0 1500
71 700 0 1500
72 700 0 400
73 100 0 400
74 700 0 100
75 700 0 200
76 700 0 900
77 300 0 100
78 100 0 1200
79 600 0 800
80 600 0 200
81 400 0 200
82 600 0 600
83 200 0 1300
84 200 0 400
85 700 0 700
86 100 0 200
87 100 0 700
88 100 0 900
89 100 0 1400
90 200 0 1500
91 400 0 1500
92 600 0 1500
93 700 0 1400
94 700 0 1200
95 700 0 1000
96 700 0 300
97 500 0 100
98 200 0 100
99 600 0 400
100 200 0 600
101 100 0 1100
102 600 0 1000
103 200 0 1000
104 600 0 1200
105 200 0 300
106 500 0 400
107 300 0 400
108 400 0 1400
109 500 0 600
110 600 0 900
111 300 0 200
112 300 0 600
113 200 0 1400
114 200 0 800
115 500 0 1400
116 600 0 1300
117 200 0 1200
118 600 0 300
119 200 0 200
120 200 0 700
121 600 0 1400
122 600 0 700
123 500 0 200
124 500 0 800
125 300 0 700
126 500 0 900
127 500 0 1200
128 400 0 400
129 400 0 600
130 600 0 1100
131 300 0 1400
132 500 0 300
133 400 0 300
134 300 0 1300
135 200 0 900
136 200 0 1100
137 300 0 300
138 400 0 1300
139 500 0 1300
140 500 0 700
141 500 0 1000
142 300 0 1000
143 400 0 1200
144 300 0 900
145 300 0 800
146 300 0 1200
147 400 0 800
148 500 0 1100
149 400 0 700
150 400 0 900
151 300 0 1100
152 400 0 1000
153 400 0 1100
$EndNodes
$Elements
128
1 3 2 1 1 9 10 73 62
2 3 2 1 1 62 73 84 105
3 3 2 1 1 14 15 56 88
4 3 2 1 1 37 68 85 36
5 3 2 1 1 49 50 82 68
6 3 2 1 1 84 107 137 105
7 3 2 1 1 9 62 86 8
8 3 2 1 1 5 49 68 37
9 3 2 1 1 41 74 75 40
10 3 2 1 1 2 55 73 10
11 3 2 1 1 13 63 87 12
12 3 2 1 1 25 26 92 64
13 3 2 1 1 34 76 95 33
14 3 2 1 1 46 47 98 77
15 3 2 1 1 50 51 109 82
16 3 2 1 1 84 54 53 107
17 3 2 1 1 91 64 115 108
18 3 2 1 1 95 76 110 102
19 3 2 1 1 98 119 111 77
20 3 2 1 1 61 85 122 79
21 3 2 1 1 126 110 79 124
22 3 2 1 1 137 133 81 111
23 3 2 1 1 56 103 135 88
24 3 2 1 1 135 103 142 144
25 3 2 1 1 137 107 128 133
26 3 2 1 1 102 110 126 141
27 3 2 1 1 100 120 125 112
28 3 2 1 1 108 115 139 138
29 3 2 1 1 124 147 150 126
30 3 2 1 1 127 143 138 139
31 3 2 1 1 126 150 152 141
32 3 2 1 1 144 142 152 150
33 3 2 1 1 41 6 42 74
34 3 2 1 1 1 7 65 48
35 3 2 1 1 7 8 86 65
36 3 2 1 1 2 11 69 55
37 3 2 1 1 11 12 87 69
38 3 2 1 1 13 14 88 63
39 3 2 1 1 15 16 101 56
40 3 2 1 1 17 78 101 16
41 3 2 1 1 18 66 78 17
42 3 2 1 1 18 19 89 66
43 3 2 1 1 20 70 89 19
44 3 2 1 1 3 21 70 20
45 3 2 1 1 23 58 90 22
46 3 2 1 1 21 22 90 70
47 3 2 1 1 24 91 58 23
48 3 2 1 1 25 64 91 24
49 3 2 1 1 27 71 92 26
50 3 2 1 1 4 28 71 27
51 3 2 1 1 30 67 93 29
52 3 2 1 1 28 29 93 71
53 3 2 1 1 32 57 94 31
54 3 2 1 1 30 31 94 67
55 3 2 1 1 32 33 95 57
56 3 2 1 1 85 61 35 36
57 3 2 1 1 34 35 61 76
58 3 2 1 1 5 38 72 49
59 3 2 1 1 38 39 96 72
60 3 2 1 1 40 75 96 39
61 3 2 1 1 74 42 43 59
62 3 2 1 1 44 97 59 43
63 3 2 1 1 45 60 97 44
64 3 2 1 1 46 77 60 45
65 3 2 1 1 48 65 98 47
66 3 2 1 1 49 72 99 50
67 3 2 1 1 50 99 106 51
68 3 2 1 1 51 106 128 52
69 3 2 1 1 53 52 128 107
70 3 2 1 1 51 52 129 109
71 3 2 1 1 53 112 129 52
72 3 2 1 1 54 100 112 53
73 3 2 1 1 84 73 55 54
74 3 2 1 1 55 69 100 54
75 3 2 1 1 95 102 130 57
76 3 2 1 1 94 57 130 104
77 3 2 1 1 74 59 80 75
78 3 2 1 1 76 61 79 110
79 3 2 1 1 119 86 62 105
80 3 2 1 1 88 135 114 63
81 3 2 1 1 83 66 89 113
82 3 2 1 1 94 104 116 67
83 3 2 1 1 120 100 69 87
84 3 2 1 1 89 70 90 113
85 3 2 1 1 66 83 117 78
86 3 2 1 1 75 80 118 96
87 3 2 1 1 59 97 123 80
88 3 2 1 1 118 80 123 132
89 3 2 1 1 60 81 123 97
90 3 2 1 1 68 82 122 85
91 3 2 1 1 113 131 134 83
92 3 2 1 1 65 86 119 98
93 3 2 1 1 63 114 120 87
94 3 2 1 1 58 131 113 90
95 3 2 1 1 71 93 121 92
96 3 2 1 1 64 92 121 115
97 3 2 1 1 67 116 121 93
98 3 2 1 1 72 96 118 99
99 3 2 1 1 106 99 118 132
100 3 2 1 1 56 101 136 103
101 3 2 1 1 78 117 136 101
102 3 2 1 1 142 103 136 151
103 3 2 1 1 111 119 105 137
104 3 2 1 1 128 106 132 133
105 3 2 1 1 131 108 138 134
106 3 2 1 1 82 109 140 122
107 3 2 1 1 149 140 109 129
108 3 2 1 1 149 129 112 125
109 3 2 1 1 125 120 114 145
110 3 2 1 1 144 145 114 135
111 3 2 1 1 121 116 139 115
112 3 2 1 1 104 127 139 116
113 3 2 1 1 83 134 146 117
114 3 2 1 1 79 122 140 124
115 3 2 1 1 81 133 132 123
116 3 2 1 1 145 147 149 125
117 3 2 1 1 104 130 148 127
118 3 2 1 1 143 127 148 153
119 3 2 1 1 102 141 148 130
120 3 2 1 1 138 143 146 134
121 3 2 1 1 117 146 151 136
122 3 2 1 1 146 143 153 151
123 3 2 1 1 144 150 147 145
124 3 2 1 1 141 152 153 148
125 3 2 1 1 142 151 153 152
126 3 2 1 1 131 58 91 108
127 3 2 1 1 77 111 81 60
128 3 2 1 1 124 140 149 147
$EndElements
