$MeshFormat
2.2 0 8
$EndMeshFormat
$Nodes
229
1 0 0 0
2 0 200 0
3 0 200 50
4 0 200 100
5 0 0 100
6 0 100 20
7 0 10 0
8 0 20 0
9 0 30 0
10 0 40 0
11 0 50 0
12 0 60 0
13 0 70 0
14 0 80 0
15 0 90 0
16 0 100 0
17 0 110 0
18 0 120 0
19 0 130 0
20 0 140 0
21 0 150 0
22 0 160 0
23 0 170 0
24 0 180 0
25 0 190 0
26 0 200 10
27 0 200 20
28 0 200 30
29 0 200 40
30 0 200 60
31 0 200 70
32 0 200 80
33 0 200 90
34 0 190 100
35 0 180 100
36 0 170 100
37 0 160 100
38 0 150 100
39 0 140 100
40 0 130 100
41 0 120 100
42 0 110 100
43 0 100 100
44 0 90 100
45 0 80 100
46 0 70 100
47 0 60 100
48 0 50 100
49 0 40 100
50 0 30 100
51 0 20 100
52 0 10 100
53 0 0 90
54 0 0 80
55 0 0 70
56 0 0 60
57 0 0 50
58 0 0 40
59 0 0 30
60 0 0 20
61 0 0 10
62 0 190 47
63 0 180 44
64 0 170 41
65 0 160 38
66 0 150 35
67 0 140 32
68 0 130 29
69 0 120 26
70 0 110 23
71 0 49.9197125192382 10.0397102944
72 0 69.9924008163172 89.989045258514
73 0 109.982937612638 89.9417401515847
74 0 10.008757972877 50.0044961539329
75 0 140.158422265088 89.8840220974159
76 0 170.079390914939 89.6066907706894
77 0 40.0035669373834 89.9948478748938
78 0 169.605128103025 10.0440120191785
79 0 10.0056233745023 70.0002917947995
80 0 140.074877871147 9.82377040150281
81 0 10.0008669629152 20.0015643415022
82 0 189.964795553247 78.8984457918433
83 0 189.87671033004 57.3772321553827
84 0 189.843230111875 10.0161515674649
85 0 69.8702583154169 10.3465827028651
86 0 119.215389741038 7.78951153470027
87 0 10.0003762987241 89.9996374473521
88 0 30.0040153425315 89.9973241077588
89 0 29.9884180419909 10.007806544735
90 0 10.0000924723859 10.0005690885188
91 0 10.0031549086204 30.0038205063574
92 0 89.9804260965938 89.9958369885261
93 0 59.9940736174647 89.9878008844072
94 0 190.00116880473 89.5823716498062
95 0 189.59981819566 27.1808026022861
96 0 130.092119071243 89.8802093731075
97 0 160.15701771913 89.8179396613685
98 0 80.0173216117197 12.5896581187873
99 0 149.763406795671 10.1644111858455
100 0 93.4397842084488 6.95075162774121
101 0 103.623153836261 10.6109461192732
102 0 188.121934778953 37.2887890791233
103 0 69.9226200492671 79.9933044313907
104 0 69.3965845994907 20.3606008076802
105 0 99.3548250211645 30.7519550451098
106 0 140.60398617946 79.3858859956328
107 0 170.273667111373 79.4700801857797
108 0 179.482665086958 54.4821781310338
109 0 30.020411690242 79.994423883373
110 0 189.883290518504 67.9802706838185
111 0 139.762429045079 20.2660454067256
112 0 39.9595215638006 10.0209347963872
113 0 19.9977143423645 10.0030171282185
114 0 19.9988401465837 20.0090590233705
115 0 10.0027869354854 79.9995168321236
116 0 10.0071544848961 40.0057800216088
117 0 20.0030289854335 89.9987549470694
118 0 10.0100369098289 60.0024420184043
119 0 49.9996370776581 89.9905150321161
120 0 79.9801368382675 89.9988126293331
121 0 180.034138733133 89.4499570727888
122 0 99.9663609752283 89.9782553754519
123 0 79.7516935573527 20.205999507672
124 0 120.018948469291 89.8994452858697
125 0 59.8595162918931 10.1091978527376
126 0 150.221968166177 89.856587854409
127 0 179.684657164684 10.0575615178605
128 0 189.728717128623 19.8874313869889
129 0 159.622473522503 10.1043129240873
130 0 132.738720500419 9.1208101842907
131 0 112.682758506429 14.7106747947337
132 0 90.4070678480642 16.795711457108
133 0 179.632929298995 33.2968271745392
134 0 20.0269023097934 50.0166653818469
135 0 68.8142453061139 29.994001119362
136 0 89.8068653382488 80.0836228485181
137 0 109.810234451982 79.9213931788941
138 0 129.290233352629 39.5333675082812
139 0 160.77736800851 79.9589287296525
140 0 39.9147822522256 20.0508094463641
141 0 59.6377718233612 20.1556169969885
142 0 87.8342591968809 29.7587257814339
143 0 168.846865784371 20.0681409817521
144 0 149.606569842906 20.875735982867
145 0 166.078281697181 29.5266194838165
146 0 20.0049986901347 30.0184473353073
147 0 40.0179353585237 79.9878546653628
148 0 59.9483810564001 79.9783340021983
149 0 20.0255451731055 69.9993227714607
150 0 20.0128587570593 79.9979087770294
151 0 29.9753862094409 20.0273951629682
152 0 130.188682184281 79.507443640233
153 0 79.8535411350936 80.0528304039281
154 0 179.998793111862 78.6626058279369
155 0 150.995097714488 79.604603435981
156 0 179.251474158003 20.2959941462105
157 0 109.017617630116 33.1164398877179
158 0 168.821618156955 51.535695649174
159 0 128.251823565074 16.8805572214856
160 0 119.930945723516 19.3437955243847
161 0 177.594356361034 66.595674298207
162 0 69.735473128778 70.0322548882772
163 0 99.1046214979723 38.2713392020961
164 0 141.14762735215 66.7900293008184
165 0 158.435982146604 48.6835061578685
166 0 59.4030664647641 30.1293001850349
167 0 169.861724553168 72.4315691548813
168 0 30.0415096535288 69.9956660822814
169 0 20.0143705133978 40.0237057904593
170 0 29.9714858127542 30.0478501519223
171 0 20.0325734130619 60.0066106142331
172 0 49.9861858442044 79.9808672301162
173 0 119.909486038099 79.7650492508204
174 0 159.070766975404 20.1348904774135
175 0 99.7481789841462 80.0545311251556
176 0 79.6202502466286 70.2055571550263
177 0 49.794819078158 20.0892431303224
178 0 162.838634628108 70.8820783249718
179 0 139.006337813307 42.5887103451888
180 0 75.6768726081919 29.6509196883001
181 0 119.009834579507 36.4077612787749
182 0 166.098786628529 61.7524667924477
183 0 158.735628208912 27.5892649687098
184 0 109.431886705131 70.0815551942333
185 0 59.3020567181787 40.0678034700703
186 0 116.216011278462 48.3121756834872
187 0 89.465946557232 70.3815507327268
188 0 39.8623485837361 30.0820178151762
189 0 69.671928959981 59.9484767256601
190 0 155.86378663419 59.0491494750862
191 0 128.330385945373 49.9015050495423
192 0 92.3833787820022 41.7244730096381
193 0 49.9170941562561 69.9805066685072
194 0 59.8104211263402 69.9846748919959
195 0 30.0289911839107 60.0093178943501
196 0 29.9704873381637 40.0511748063245
197 0 39.9971523249313 69.9904203454386
198 0 152.946446078329 69.2346790291838
199 0 129.682106640054 69.202970609528
200 0 49.6716423376609 30.1080707633755
201 0 68.9850544894336 39.5733154482134
202 0 105.676565954947 41.9734115127725
203 0 148.538765337951 45.6615656598535
204 0 49.7505623825191 60.0067070979157
205 0 49.5911896622263 40.0902696396952
206 0 79.7899230847741 60.3325982695846
207 0 99.0344599133721 50.7352440910767
208 0 135.75294073275 59.4325372527605
209 0 118.717752691884 59.8391813381194
210 0 78.2845118476587 36.6937893729616
211 0 29.9857595923791 50.032436986922
212 0 119.483931862159 69.7618993240637
213 0 39.9188227401905 60.0103202977481
214 0 59.601830538803 59.9871729787744
215 0 99.3844859586661 70.3686275160951
216 0 39.8222415830534 40.0719385877063
217 0 59.4155601084287 49.9720877867721
218 0 146.199911555133 55.8455995278604
219 0 137.366653404372 52.3658668696533
220 0 39.8332145773886 50.0411158262005
221 0 128.406125676545 59.5308521165293
222 0 69.6411919572931 49.5360229730097
223 0 108.82278272872 60.6182481737282
224 0 89.5076631073241 60.9542430346829
225 0 90.0693444369869 53.8016543870061
226 0 49.6335071087436 50.0347453030253
227 0 108.080955623502 53.5241478863078
228 0 82.2407952982758 48.4401235969381
229 0 99.1546562849742 61.08192222402
$EndNodes
$Elements
201
1 2 2 1 1 29 102 28 
2 2 2 1 1 29 3 62 
3 2 2 1 1 18 19 86 
4 2 2 1 1 86 17 18 
5 2 2 1 1 100 14 15 
6 2 2 1 1 15 16 100 
7 3 2 1 1 108 83 110 161
8 3 2 1 1 165 203 66 65
9 3 2 1 1 158 165 65 64
10 3 2 1 1 108 158 64 63
11 3 2 1 1 133 145 143 156
12 3 2 1 1 102 63 64 133
13 3 2 1 1 138 181 69 68
14 3 2 1 1 209 212 184 223
15 3 2 1 1 208 221 191 219
16 3 2 1 1 203 165 190 218
17 3 2 1 1 198 190 182 178
18 3 2 1 1 228 225 224 206
19 3 2 1 1 83 108 63 62
20 3 2 1 1 161 182 158 108
21 3 2 1 1 143 145 183 174
22 3 2 1 1 130 80 111 159
23 3 2 1 1 201 135 180 210
24 3 2 1 1 226 205 185 217
25 3 2 1 1 200 177 141 166
26 3 2 1 1 165 158 182 190
27 3 2 1 1 190 198 164 218
28 3 2 1 1 135 104 123 180
29 3 2 1 1 177 71 125 141
30 3 2 1 1 142 123 98 132
31 3 2 1 1 181 138 191 186
32 3 2 1 1 228 210 142 192
33 3 2 1 1 133 95 28 102
34 3 2 1 1 189 206 176 162
35 3 2 1 1 202 163 105 157
36 3 2 1 1 188 140 177 200
37 3 2 1 1 166 141 104 135
38 3 2 1 1 185 166 135 201
39 3 2 1 1 228 192 207 225
40 3 2 1 1 138 179 219 191
41 3 2 1 1 204 214 194 193
42 3 2 1 1 186 191 221 209
43 3 2 1 1 229 207 227 223
44 3 2 1 1 162 176 153 103
45 3 2 1 1 224 225 207 229
46 3 2 1 1 220 226 204 213
47 3 2 1 1 133 156 128 95
48 3 2 1 1 202 207 192 163
49 3 2 1 1 148 172 193 194
50 3 2 1 1 104 85 98 123
51 3 2 1 1 71 177 140 112
52 3 2 1 1 6 105 142 132
53 3 2 1 1 123 142 210 180
54 3 2 1 1 124 173 152 96
55 3 2 1 1 126 155 139 97
56 3 2 1 1 192 142 105 163
57 3 2 1 1 129 174 144 99
58 3 2 1 1 179 138 68 67
59 3 2 1 1 157 105 6 70
60 3 2 1 1 67 68 159 111
61 3 2 1 1 136 153 176 187
62 3 2 1 1 85 104 141 125
63 3 2 1 1 30 83 62 3
64 3 2 1 1 115 150 117 87
65 3 2 1 1 150 109 88 117
66 3 2 1 1 162 194 214 189
67 3 2 1 1 125 71 11 12
68 3 2 1 1 112 10 11 71
69 3 2 1 1 114 81 90 113
70 3 2 1 1 9 89 113 8
71 3 2 1 1 112 89 9 10
72 3 2 1 1 5 53 87 52
73 3 2 1 1 115 87 53 54
74 3 2 1 1 113 90 7 8
75 3 2 1 1 1 7 90 61
76 3 2 1 1 81 60 61 90
77 3 2 1 1 60 81 91 59
78 3 2 1 1 169 196 211 134
79 3 2 1 1 59 91 116 58
80 3 2 1 1 185 205 200 166
81 3 2 1 1 115 54 55 79
82 3 2 1 1 118 79 55 56
83 3 2 1 1 51 52 87 117
84 3 2 1 1 118 56 57 74
85 3 2 1 1 57 58 116 74
86 3 2 1 1 155 198 178 139
87 3 2 1 1 171 149 79 118
88 3 2 1 1 115 79 149 150
89 3 2 1 1 221 208 164 199
90 3 2 1 1 50 51 117 88
91 3 2 1 1 81 114 146 91
92 3 2 1 1 196 216 220 211
93 3 2 1 1 49 50 88 77
94 3 2 1 1 109 147 77 88
95 3 2 1 1 148 93 119 172
96 3 2 1 1 150 149 168 109
97 3 2 1 1 91 146 169 116
98 3 2 1 1 93 148 103 72
99 3 2 1 1 49 77 119 48
100 3 2 1 1 113 89 151 114
101 3 2 1 1 196 169 146 170
102 3 2 1 1 211 220 213 195
103 3 2 1 1 170 146 114 151
104 3 2 1 1 4 34 94 33
105 3 2 1 1 121 94 34 35
106 3 2 1 1 195 168 149 171
107 3 2 1 1 197 147 109 168
108 3 2 1 1 172 119 77 147
109 3 2 1 1 134 211 195 171
110 3 2 1 1 171 118 74 134
111 3 2 1 1 218 219 179 203
112 3 2 1 1 213 197 168 195
113 3 2 1 1 161 154 107 167
114 3 2 1 1 194 162 103 148
115 3 2 1 1 116 169 134 74
116 3 2 1 1 193 172 147 197
117 3 2 1 1 47 48 119 93
118 3 2 1 1 216 196 170 188
119 3 2 1 1 151 140 188 170
120 3 2 1 1 204 193 197 213
121 3 2 1 1 120 45 46 72
122 3 2 1 1 89 112 140 151
123 3 2 1 1 186 202 157 181
124 3 2 1 1 207 202 186 227
125 3 2 1 1 203 179 67 66
126 3 2 1 1 181 157 70 69
127 3 2 1 1 153 120 72 103
128 3 2 1 1 47 93 72 46
129 3 2 1 1 2 26 84 25
130 3 2 1 1 128 84 26 27
131 3 2 1 1 215 175 136 187
132 3 2 1 1 32 33 94 82
133 3 2 1 1 131 86 159 160
134 3 2 1 1 122 43 44 92
135 3 2 1 1 120 92 44 45
136 3 2 1 1 205 216 188 200
137 3 2 1 1 175 122 92 136
138 3 2 1 1 173 124 73 137
139 3 2 1 1 73 122 175 137
140 3 2 1 1 25 84 127 24
141 3 2 1 1 212 173 137 184
142 3 2 1 1 122 73 42 43
143 3 2 1 1 124 41 42 73
144 3 2 1 1 120 153 136 92
145 3 2 1 1 198 155 106 164
146 3 2 1 1 124 96 40 41
147 3 2 1 1 126 38 39 75
148 3 2 1 1 212 199 152 173
149 3 2 1 1 126 97 37 38
150 3 2 1 1 155 126 75 106
151 3 2 1 1 121 35 36 76
152 3 2 1 1 139 107 76 97
153 3 2 1 1 154 82 94 121
154 3 2 1 1 139 178 167 107
155 3 2 1 1 137 175 215 184
156 3 2 1 1 174 129 78 143
157 3 2 1 1 129 22 23 78
158 3 2 1 1 83 30 31 110
159 3 2 1 1 152 199 164 106
160 3 2 1 1 23 24 127 78
161 3 2 1 1 125 12 13 85
162 3 2 1 1 129 99 21 22
163 3 2 1 1 40 96 75 39
164 3 2 1 1 96 152 106 75
165 3 2 1 1 187 176 206 224
166 3 2 1 1 127 156 143 78
167 3 2 1 1 32 82 110 31
168 3 2 1 1 130 19 20 80
169 3 2 1 1 36 37 97 76
170 3 2 1 1 206 189 222 228
171 3 2 1 1 156 127 84 128
172 3 2 1 1 161 110 82 154
173 3 2 1 1 86 131 101 17
174 3 2 1 1 128 27 28 95
175 3 2 1 1 76 107 154 121
176 3 2 1 1 20 21 99 80
177 3 2 1 1 99 144 111 80
178 3 2 1 1 13 14 98 85
179 3 2 1 1 209 221 199 212
180 3 2 1 1 189 214 217 222
181 3 2 1 1 132 98 14 100
182 3 2 1 1 17 101 100 16
183 3 2 1 1 131 160 69 70
184 3 2 1 1 210 228 222 201
185 3 2 1 1 29 62 63 102
186 3 2 1 1 220 216 205 226
187 3 2 1 1 133 64 65 145
188 3 2 1 1 145 65 66 183
189 3 2 1 1 226 217 214 204
190 3 2 1 1 19 130 159 86
191 3 2 1 1 229 223 184 215
192 3 2 1 1 70 6 101 131
193 3 2 1 1 132 100 101 6
194 3 2 1 1 186 209 223 227
195 3 2 1 1 161 167 178 182
196 3 2 1 1 217 185 201 222
197 3 2 1 1 215 187 224 229
198 3 2 1 1 68 69 160 159
199 3 2 1 1 164 208 219 218
200 3 2 1 1 111 144 66 67
201 3 2 1 1 174 183 66 144
$EndElements
