$MeshFormat
2.2 0 8
$EndMeshFormat
$Nodes
152
1 300 0 400
2 400 0 400
3 500 0 400
4 500 0 500
5 500 0 600
6 400 0 600
7 300 0 600
8 300 0 500
9 0 0 0
10 400 0 0
11 0 0 500
12 800 0 0
13 0 0 1600
14 800 0 500
15 400 0 1600
16 800 0 1600
17 100 0 0
18 200 0 0
19 300 0 0
20 0 0 400
21 0 0 300
22 0 0 200
23 0 0 100
24 500 0 0
25 600 0 0
26 700 0 0
27 0 0 1500
28 0 0 1400
29 0 0 1300
30 0 0 1200
31 0 0 1100
32 0 0 1000
33 0 0 900
34 0 0 800
35 0 0 700
36 0 0 600
37 800 0 100
38 800 0 200
39 800 0 300
40 800 0 400
41 300 0 1600
42 200 0 1600
43 100 0 1600
44 800 0 600
45 800 0 700
46 800 0 800
47 800 0 900
48 800 0 1000
49 800 0 1100
50 800 0 1200
51 800 0 1300
52 800 0 1400
53 800 0 1500
54 700 0 1600
55 600 0 1600
56 500 0 1600
57 100 0 500
58 200 0 500
59 600 0 500
60 700 0 500
61 400 0 100
62 400 0 200
63 400 0 300
64 400 0 700
65 400 0 800
66 400 0 900
67 400 0 1000
68 400 0 1100
69 400 0 1200
70 400 0 1300
71 400 0 1400
72 400 0 1500
73 100 0 1300
74 100 0 1000
75 699.357478793817 0 899.318345131294
76 699.99369197266 0 1199.07306620267
77 100 0 200
78 700 0 300
79 100 0 300
80 100 0 700
81 500 0 300
82 600 0 100
83 300 0 300
84 598.291417042793 0 599.843784873273
85 498.084584767945 0 698.599113720856
86 300 0 700
87 200 0 100
88 100 0 1400
89 300 0 1500
90 699.999997859478 0 1499.97727873881
91 599.999996121295 0 1499.95040417739
92 700 0 400
93 100 0 100
94 100 0 600
95 200 0 600
96 100 0 1100
97 200 0 400
98 600 0 400
99 300 0 100
100 100 0 400
101 500 0 100
102 700 0 100
103 100 0 1500
104 698.324879089551 0 700.301211892347
105 698.962011482276 0 600.098539565607
106 699.999851763284 0 1399.8369015648
107 499.999996564184 0 1499.94989488172
108 699.949160040731 0 1098.52050232123
109 100 0 800
110 498.530711973288 0 797.680510251005
111 300 0 800
112 200 0 1000
113 599.982969921764 0 1197.98307517937
114 200 0 1300
115 599.999718220865 0 1399.66461822451
116 597.922294852455 0 699.642562260215
117 200 0 200
118 699.770988971999 0 998.430917955147
119 600 0 300
120 100 0 1200
121 200 0 1500
122 698.880591462145 0 799.83090228987
123 699.997824084529 0 1299.49329477615
124 500 0 200
125 300 0 200
126 300 0 1400
127 499.999753565179 0 1399.687394692
128 600 0 200
129 200 0 300
130 200 0 700
131 100 0 900
132 700 0 200
133 499.311399865122 0 896.838180442375
134 599.906175667379 0 1096.78180322309
135 200 0 1100
136 598.439916719028 0 798.781231418505
137 599.647108865507 0 996.585539781469
138 300 0 900
139 300 0 1300
140 200 0 1400
141 200 0 800
142 200 0 900
143 200 0 1200
144 499.996865727086 0 1299.14276644361
145 599.995624710161 0 1299.05680146651
146 300 0 1000
147 499.735899018223 0 996.898363551095
148 300 0 1100
149 499.915004717022 0 1097.65840706185
150 599.158510599586 0 897.854909046767
151 300 0 1200
152 499.977501691811 0 1198.54723783645
$EndNodes
$Elements
124
1 3 2 1 1 85 116 136 110
2 3 2 1 1 110 136 150 133
3 3 2 1 1 133 150 137 147
4 3 2 1 1 39 40 92 78
5 3 2 1 1 96 74 112 135
6 3 2 1 1 36 94 80 35
7 3 2 1 1 57 58 95 94
8 3 2 1 1 147 149 68 67
9 3 2 1 1 87 99 125 117
10 3 2 1 1 9 17 93 23
11 3 2 1 1 22 23 93 77
12 3 2 1 1 11 57 94 36
13 3 2 1 1 47 48 118 75
14 3 2 1 1 77 93 87 117
15 3 2 1 1 6 64 86 7
16 3 2 1 1 22 77 79 21
17 3 2 1 1 34 109 131 33
18 3 2 1 1 39 78 132 38
19 3 2 1 1 14 60 92 40
20 3 2 1 1 41 42 121 89
21 3 2 1 1 45 104 105 44
22 3 2 1 1 66 138 111 65
23 3 2 1 1 69 68 149 152
24 3 2 1 1 151 69 70 139
25 3 2 1 1 152 144 70 69
26 3 2 1 1 119 128 132 78
27 3 2 1 1 77 117 129 79
28 3 2 1 1 117 125 83 129
29 3 2 1 1 105 104 116 84
30 3 2 1 1 7 86 130 95
31 3 2 1 1 135 112 146 148
32 3 2 1 1 75 118 137 150
33 3 2 1 1 81 124 128 119
34 3 2 1 1 147 137 134 149
35 3 2 1 1 8 58 97 1
36 3 2 1 1 2 1 83 63
37 3 2 1 1 4 3 98 59
38 3 2 1 1 2 63 81 3
39 3 2 1 1 4 59 84 5
40 3 2 1 1 85 5 84 116
41 3 2 1 1 5 85 64 6
42 3 2 1 1 8 7 95 58
43 3 2 1 1 41 89 72 15
44 3 2 1 1 53 16 54 90
45 3 2 1 1 93 17 18 87
46 3 2 1 1 99 87 18 19
47 3 2 1 1 10 61 99 19
48 3 2 1 1 11 20 100 57
49 3 2 1 1 21 79 100 20
50 3 2 1 1 10 24 101 61
51 3 2 1 1 25 82 101 24
52 3 2 1 1 12 37 102 26
53 3 2 1 1 25 26 102 82
54 3 2 1 1 13 27 103 43
55 3 2 1 1 28 88 103 27
56 3 2 1 1 29 73 88 28
57 3 2 1 1 29 30 120 73
58 3 2 1 1 31 96 120 30
59 3 2 1 1 74 96 31 32
60 3 2 1 1 32 33 131 74
61 3 2 1 1 34 35 80 109
62 3 2 1 1 37 38 132 102
63 3 2 1 1 43 103 121 42
64 3 2 1 1 14 44 105 60
65 3 2 1 1 45 46 122 104
66 3 2 1 1 46 47 75 122
67 3 2 1 1 49 108 118 48
68 3 2 1 1 49 50 76 108
69 3 2 1 1 50 51 123 76
70 3 2 1 1 52 106 123 51
71 3 2 1 1 53 90 106 52
72 3 2 1 1 54 55 91 90
73 3 2 1 1 15 72 107 56
74 3 2 1 1 55 56 107 91
75 3 2 1 1 58 57 100 97
76 3 2 1 1 60 59 98 92
77 3 2 1 1 59 60 105 84
78 3 2 1 1 63 62 124 81
79 3 2 1 1 63 83 125 62
80 3 2 1 1 61 62 125 99
81 3 2 1 1 61 101 124 62
82 3 2 1 1 111 86 64 65
83 3 2 1 1 138 66 67 146
84 3 2 1 1 67 68 148 146
85 3 2 1 1 69 151 148 68
86 3 2 1 1 139 70 71 126
87 3 2 1 1 144 127 71 70
88 3 2 1 1 72 89 126 71
89 3 2 1 1 72 71 127 107
90 3 2 1 1 112 74 131 142
91 3 2 1 1 150 136 122 75
92 3 2 1 1 113 134 108 76
93 3 2 1 1 113 76 123 145
94 3 2 1 1 100 79 129 97
95 3 2 1 1 94 95 130 80
96 3 2 1 1 3 81 119 98
97 3 2 1 1 132 128 82 102
98 3 2 1 1 101 82 128 124
99 3 2 1 1 1 97 129 83
100 3 2 1 1 111 141 130 86
101 3 2 1 1 73 114 140 88
102 3 2 1 1 103 88 140 121
103 3 2 1 1 90 91 115 106
104 3 2 1 1 78 92 98 119
105 3 2 1 1 136 116 104 122
106 3 2 1 1 91 107 127 115
107 3 2 1 1 137 118 108 134
108 3 2 1 1 80 130 141 109
109 3 2 1 1 73 120 143 114
110 3 2 1 1 139 126 140 114
111 3 2 1 1 151 139 114 143
112 3 2 1 1 106 115 145 123
113 3 2 1 1 144 145 115 127
114 3 2 1 1 96 135 143 120
115 3 2 1 1 89 121 140 126
116 3 2 1 1 109 141 142 131
117 3 2 1 1 113 152 149 134
118 3 2 1 1 143 135 148 151
119 3 2 1 1 138 142 141 111
120 3 2 1 1 146 112 142 138
121 3 2 1 1 152 113 145 144
122 3 2 1 1 67 66 133 147
123 3 2 1 1 66 65 110 133
124 3 2 1 1 65 64 85 110
$EndElements
