$MeshFormat
2.2 0 8
$EndMeshFormat
$Nodes
257
5 0 0 0
6 100 0 0
7 0 100 0
8 100 100 0
18 10 0 0
19 20 0 0
20 30 0 0
21 40 0 0
22 50 0 0
23 60 0 0
24 70 0 0
25 80 0 0
26 90 0 0
27 0 90 0
28 0 80 0
29 0 70 0
30 0 60 0
31 0 50 0
32 0 40 0
33 0 30 0
34 0 20 0
35 0 10 0
36 100 10 0
37 100 20 0
38 100 30 0
39 100 40 0
40 100 50 0
41 100 60 0
42 100 70 0
43 100 80 0
44 100 90 0
45 90 100 0
46 80 100 0
47 70 100 0
48 60 100 0
49 50 100 0
50 40 100 0
51 30 100 0
52 20 100 0
53 10 100 0
54 20.6269790349044 90.1085401853184 0
55 90.1878071096361 20.5795971081986 0
56 64.2849098827412 38.1594666153495 0
57 40.6283485118674 90.0581690548468 0
58 89.3525842100841 50.1482702634087 0
59 90.3768148635513 70.6705760587549 0
60 60.5828724293379 89.9800417066545 0
61 30.2532453667421 61.1449914050215 0
62 10.4218426227167 70.2659141695463 0
63 20.0240182088452 40.4537104728096 0
64 10.1798113029347 30.3939380160998 0
65 20.4706614116295 9.69565863105412 0
66 90.0813015496485 90.1302568607858 0
67 50.0762115136324 67.4504622618271 0
68 31.6956005767524 16.5425589010288 0
69 66.5202251062671 56.2988154368741 0
70 10.2934357856702 10.0701352511919 0
71 10.1407349210318 50.305735436535 0
72 62.5790865865728 28.4984911541499 0
73 70.1356377582515 9.67698372405973 0
74 61.1727745519819 19.0754602343734 0
75 70.5393869974669 90.2947619891105 0
76 10.308158901942 90.0554355136245 0
77 90.8476156415887 30.707014246351 0
78 90.0060994579952 10.2381440416903 0
79 60.3443092852052 9.63091650987601 0
80 38.9632024235805 9.76978291221734 0
81 39.1201712052357 62.2142168685101 0
82 64.9365624588606 65.3039551341505 0
83 30.7250035316552 70.8734968194737 0
84 82.0169018650369 32.7331622639654 0
85 61.6489993148737 78.7552998098347 0
86 22.1857444187993 20.6439258653042 0
87 20.1719014266712 50.4396334016395 0
88 10.4335330428625 20.2758575918097 0
89 10.0461492911175 40.3208722988332 0
90 50.5479154782658 89.8704247414192 0
91 10.4658931989551 80.1479604295397 0
92 30.7160714823296 90.1411068843577 0
93 90.2243548612738 80.3764001814046 0
94 80.3051833966068 90.3498892252801 0
95 90.3682689815376 61.0178468757475 0
96 10.2628189579532 60.320121419782 0
97 91.7687567889917 39.7756561946573 0
98 79.9880680263635 10.1445603769867 0
99 65.5643155462672 47.8536788232763 0
100 19.5753389400631 31.2746252032877 0
101 39.6670106498132 71.2005272917796 0
102 29.5215793290354 8.45645467087184 0
103 69.827802765113 18.416928354626 0
104 70.8742732590829 27.1150890254849 0
105 59.2933383242197 70.5998856237092 0
106 71.7265962696442 81.5300522570415 0
107 73.4093068526029 56.1316636447303 0
108 83.9229027317488 41.717586471216 0
109 20.398050974501 60.5717638458787 0
110 20.7132307151202 70.5124130577512 0
111 30.9060480557905 80.4172441327647 0
112 80.6663557683102 80.8997989590695 0
113 20.7457977266691 80.302709561523 0
114 79.352992236091 21.7040624282195 0
115 50.6333427743908 79.5581928426254 0
116 75.5725503639493 46.3827139894397 0
117 71.3318556458452 72.0643258974931 0
118 73.1612331394595 35.7224550605114 0
119 81.4359199163691 62.4908159708671 0
120 81.1143385335104 71.5479389518387 0
121 40.6052730775679 80.102862256096 0
122 73.7627003919143 63.1893509754753 0
123 80.7620278743549 54.2364233313634 0
137 47.272045573795 39.0051012028581 0
138 39.5339495361632 35.940151676083 0
139 39.032811331244 44.0699308962144 0
140 44.9153278390729 29.4528000381003 0
141 47.8202393748848 47.3871404991569 0
142 50 10 0
143 58 60 0
144 30 50 0
145 30 30 0
146 51.6 20 0
147 53.2 30 0
148 54.8 40 0
149 56.4 50 0
150 48.6666666666666 56.6666666666667 0
151 39.3333333333333 53.3333333333333 0
152 30 40 0
153 36.6666666666667 23.3333333333333 0
154 43.3333333333333 16.6666666666667 0
142 100 0 0
143 100 100 0
144 200 0 0
145 200 100 0
150 100 10 0
151 100 20 0
152 100 30 0
153 100 40 0
154 100 50 0
155 100 60 0
156 100 70 0
157 100 80 0
158 100 90 0
159 190 0 0
160 180 0 0
161 170 0 0
162 160 0 0
163 150 0 0
164 140 0 0
165 130 0 0
166 120 0 0
167 110 0 0
168 110 100 0
169 120 100 0
170 130 100 0
171 140 100 0
172 150 100 0
173 160 100 0
174 170 100 0
175 180 100 0
176 190 100 0
177 200 90 0
178 200 80 0
179 200 70 0
180 200 60 0
181 200 50 0
182 200 40 0
183 200 30 0
184 200 20 0
185 200 10 0
196 146.582853287184 59.8315984596426 0
197 129.718294035695 89.8396884602196 0
198 190.126576094325 69.8686973356257 0
199 163.514685195261 39.9948611539891 0
200 119.551795663817 59.6554675331627 0
201 159.203147892855 89.7895873221959 0
202 190.430899536858 39.8257199085064 0
203 171.490280175105 10.2205753626465 0
204 109.850628180221 69.7161991940991 0
205 109.940629037883 89.8872187351551 0
206 129.294656792218 10.0281413398149 0
207 155.666903031375 11.2231158415183 0
208 147.777229761728 10.2180663113273 0
209 163.605112759294 20.373912016589 0
210 109.960343170225 10.0140389382904 0
211 110.006137406758 29.9865682733143 0
212 109.957278755792 49.8923398224816 0
213 149.284619803504 89.9412953023989 0
214 179.754648479401 89.7417240197678 0
215 190.267772109339 59.8581753648334 0
216 189.947853258073 89.9208438885697 0
217 180.702752014134 9.97584831674217 0
218 190.281268188532 9.94945560774083 0
219 190.499577545211 29.8504823503794 0
220 128.822998385026 59.7439321647382 0
221 155.192639641152 59.656305782012 0
222 180.499507458997 69.4227809321161 0
223 157.837858210554 79.4467576246779 0
224 181.146005032223 39.7934043815454 0
225 109.871651041996 59.7970553675555 0
226 109.978666544449 20.0046260054973 0
227 109.878294523361 79.7861724619134 0
228 109.995984015584 39.9732663228023 0
229 119.546901602081 69.6180052294671 0
230 119.765619443724 10.0163754300208 0
231 139.499253124202 89.9185447226839 0
232 181.126417661061 19.9239404505659 0
233 119.843384241482 89.8292561237801 0
234 169.400980918157 89.5709626139845 0
235 190.008347329029 79.8438438196662 0
236 163.586751049073 30.0699901640012 0
237 190.388840370646 49.8549937765918 0
238 190.466351135756 19.9168325588434 0
239 163.479359727298 49.8241717965414 0
240 137.805968193216 59.8495817845869 0
241 138.663042726228 10.0441617679608 0
242 163.529213517115 11.2468637655602 0
243 147.325903559356 69.7891988128414 0
244 129.032907848476 69.6925020899392 0
245 163.642298865075 59.3776642608791 0
246 180.931480114698 59.6015416805918 0
247 148.326696102895 79.8098802412748 0
248 119.669974520789 79.7113617212229 0
249 138.890086664471 79.8268684863325 0
250 168.675095625409 77.8570959340607 0
251 179.934435652079 79.3472039740851 0
252 181.087648065765 49.7533254300974 0
253 181.248516859842 29.8695276761863 0
254 172.174825141283 20.1615947297847 0
255 172.234706427168 39.8793981298106 0
256 156.264650565537 69.3126136959693 0
257 172.205561121444 68.115015675814 0
258 129.33830804322 79.754440564096 0
259 138.272510308085 69.799829455375 0
260 172.162765797248 59.298462796569 0
261 172.205807190399 49.7105369944218 0
262 172.30726171923 29.9942246072314 0
263 164.192934538842 68.0479181220825 0
278 130.084132028989 30.7643154753738 0
279 146.203615593288 29.2563361837243 0
280 144.937302037141 39.4260923068185 0
281 136.589888803897 42.0090610122684 0
282 128.818828178812 40.9010487782314 0
283 138.427447023663 28.1697988549291 0
284 137.512482573901 35.1090996506378 0
285 120 20 0
286 120 50 0
287 155 50 0
288 155 20 0
289 120 30 0
290 120 40 0
291 128.75 50 0
292 137.5 50 0
293 146.25 50 0
294 155 40 0
295 155 30 0
296 146.25 20 0
297 137.5 20 0
298 128.75 20 0
$EndNodes
$Elements
224
1 2 2 1 1 68 102 80 
2 2 2 1 1 82 122 117 
3 2 2 1 1 58 108 97 
4 2 2 1 1 85 117 106 
7 2 2 1 1 116 123 107 
9 2 2 1 1 103 114 104 
10 2 2 1 1 67 101 81 
12 2 2 1 1 138 140 137 
15 3 2 1 1 36 78 26 6
16 3 2 1 1 53 7 27 76
17 3 2 1 1 55 78 36 37
18 3 2 1 1 77 55 37 38
19 3 2 1 1 44 8 45 66
20 3 2 1 1 54 52 53 76
21 3 2 1 1 75 47 48 60
22 3 2 1 1 62 29 30 96
23 3 2 1 1 31 71 96 30
24 3 2 1 1 39 97 77 38
25 3 2 1 1 97 39 40 58
26 3 2 1 1 59 42 43 93
27 3 2 1 1 93 43 44 66
28 3 2 1 1 57 50 51 92
29 3 2 1 1 66 45 46 94
30 3 2 1 1 58 40 41 95
31 3 2 1 1 76 27 28 91
32 3 2 1 1 92 51 52 54
34 3 2 1 1 94 46 47 75
35 3 2 1 1 95 41 42 59
36 3 2 1 1 28 29 62 91
37 3 2 1 1 112 93 66 94
38 3 2 1 1 35 5 18 70
39 3 2 1 1 112 120 59 93
40 3 2 1 1 72 104 118 56
41 3 2 1 1 18 19 65 70
42 3 2 1 1 56 118 116 99
44 3 2 1 1 78 98 25 26
46 3 2 1 1 88 34 35 70
48 3 2 1 1 65 19 20 102
49 3 2 1 1 98 78 55 114
50 3 2 1 1 84 77 97 108
51 3 2 1 1 77 84 114 55
52 3 2 1 1 64 33 34 88
53 3 2 1 1 25 98 73 24
54 3 2 1 1 23 24 73 79
55 3 2 1 1 102 20 21 80
58 3 2 1 1 62 96 109 110
59 3 2 1 1 116 108 58 123
60 3 2 1 1 85 106 75 60
61 3 2 1 1 71 31 32 89
62 3 2 1 1 89 32 33 64
65 3 2 1 1 60 48 49 90
66 3 2 1 1 90 49 50 57
67 3 2 1 1 103 104 72 74
68 3 2 1 1 112 106 117 120
70 3 2 1 1 88 70 65 86
71 3 2 1 1 96 71 87 109
72 3 2 1 1 73 103 74 79
73 3 2 1 1 91 113 54 76
75 3 2 1 1 115 85 60 90
76 3 2 1 1 57 92 111 121
77 3 2 1 1 100 63 89 64
78 3 2 1 1 113 111 92 54
80 3 2 1 1 86 100 64 88
81 3 2 1 1 94 75 106 112
82 3 2 1 1 83 111 113 110
83 3 2 1 1 71 89 63 87
84 3 2 1 1 115 121 101 67
85 3 2 1 1 105 82 117 85
86 3 2 1 1 83 61 81 101
87 3 2 1 1 107 69 99 116
88 3 2 1 1 107 122 82 69
90 3 2 1 1 119 122 107 123
91 3 2 1 1 119 95 59 120
92 3 2 1 1 103 73 98 114
95 3 2 1 1 65 102 68 86
96 3 2 1 1 109 61 83 110
97 3 2 1 1 110 113 91 62
98 3 2 1 1 118 84 108 116
99 3 2 1 1 101 121 111 83
100 3 2 1 1 95 119 123 58
101 3 2 1 1 121 115 90 57
102 3 2 1 1 104 114 84 118
104 3 2 1 1 105 85 115 67
105 3 2 1 1 122 119 120 117
112 3 2 1 1 139 138 137 141
5 2 2 1 1 145 100 86 
6 2 2 1 1 154 80 142 
8 2 2 1 1 143 67 150 
11 2 2 1 1 69 82 143 
13 2 2 1 1 154 142 146 
14 2 2 1 1 147 140 146 
33 3 2 1 1 99 149 148 56
43 3 2 1 1 80 21 22 142
45 3 2 1 1 56 148 147 72
47 3 2 1 1 72 147 146 74
56 3 2 1 1 87 144 61 109
57 3 2 1 1 22 23 79 142
63 3 2 1 1 79 74 146 142
64 3 2 1 1 63 152 144 87
69 3 2 1 1 152 63 100 145
74 3 2 1 1 154 153 68 80
79 3 2 1 1 68 153 145 86
89 3 2 1 1 151 81 61 144
93 3 2 1 1 81 151 150 67
94 3 2 1 1 143 82 105 67
103 3 2 1 1 149 99 69 143
106 3 2 1 1 138 145 153 140
107 3 2 1 1 147 148 137 140
108 3 2 1 1 140 153 154 146
109 3 2 1 1 141 150 151 139
110 3 2 1 1 150 141 149 143
111 3 2 1 1 148 149 141 137
113 3 2 1 1 139 151 144 152
114 3 2 1 1 138 139 152 145
115 2 2 2 2 257 263 250 
116 2 2 2 2 207 242 162 
117 2 2 2 2 280 284 281 
118 2 2 2 2 278 284 283 
119 3 2 2 2 158 143 168 205
120 3 2 2 2 185 144 159 218
121 3 2 2 2 159 160 217 218
123 3 2 2 2 172 173 201 213
124 3 2 2 2 167 142 150 210
125 3 2 2 2 176 145 177 216
126 3 2 2 2 214 175 176 216
127 3 2 2 2 219 202 182 183
128 3 2 2 2 215 180 181 237
129 3 2 2 2 182 202 237 181
130 3 2 2 2 201 173 174 234
131 3 2 2 2 179 180 215 198
132 3 2 2 2 216 177 178 235
133 3 2 2 2 216 235 251 214
134 3 2 2 2 204 156 157 227
135 3 2 2 2 234 174 175 214
136 3 2 2 2 205 168 169 233
137 3 2 2 2 227 157 158 205
138 3 2 2 2 235 198 222 251
140 3 2 2 2 178 179 198 235
141 3 2 2 2 246 222 198 215
142 3 2 2 2 231 171 172 213
143 3 2 2 2 223 247 213 201
144 3 2 2 2 219 183 184 238
145 3 2 2 2 231 213 247 249
146 3 2 2 2 197 170 171 231
147 3 2 2 2 238 184 185 218
149 3 2 2 2 248 227 205 233
153 3 2 2 2 233 169 170 197
154 3 2 2 2 220 200 229 244
155 3 2 2 2 228 153 154 212
157 3 2 2 2 238 232 253 219
158 3 2 2 2 151 152 211 226
159 3 2 2 2 210 150 151 226
161 3 2 2 2 206 165 166 230
162 3 2 2 2 252 261 260 246
163 3 2 2 2 209 254 203 242
164 3 2 2 2 154 155 225 212
165 3 2 2 2 166 167 210 230
166 3 2 2 2 202 224 252 237
167 3 2 2 2 254 232 217 203
168 3 2 2 2 256 263 245 221
169 3 2 2 2 222 246 260 257
170 3 2 2 2 152 153 228 211
172 3 2 2 2 261 239 245 260
176 3 2 2 2 160 161 203 217
177 3 2 2 2 155 156 204 225
178 3 2 2 2 246 215 237 252
180 3 2 2 2 204 227 248 229
182 3 2 2 2 250 223 201 234
183 3 2 2 2 234 214 251 250
184 3 2 2 2 224 202 219 253
185 3 2 2 2 255 224 253 262
186 3 2 2 2 232 238 218 217
187 3 2 2 2 248 233 197 258
189 3 2 2 2 229 200 225 204
190 3 2 2 2 161 162 242 203
192 3 2 2 2 208 163 164 241
193 3 2 2 2 258 244 229 248
194 3 2 2 2 254 262 253 232
195 3 2 2 2 260 245 263 257
196 3 2 2 2 197 231 249 258
197 3 2 2 2 223 250 263 256
198 3 2 2 2 252 224 255 261
200 3 2 2 2 207 162 163 208
201 3 2 2 2 243 256 221 196
203 3 2 2 2 244 259 240 220
204 3 2 2 2 241 164 165 206
205 3 2 2 2 259 244 258 249
206 3 2 2 2 247 223 256 243
207 3 2 2 2 251 222 257 250
208 3 2 2 2 243 196 240 259
209 3 2 2 2 236 199 255 262
210 3 2 2 2 199 239 261 255
211 3 2 2 2 249 247 243 259
212 3 2 2 2 262 254 209 236
222 3 2 2 2 282 281 284 278
224 3 2 2 2 279 283 284 280
122 3 2 2 2 207 208 296 288
139 3 2 2 2 200 220 291 286
148 3 2 2 2 285 226 211 289
150 3 2 2 2 286 212 225 200
151 3 2 2 2 285 298 206 230
152 3 2 2 2 290 289 211 228
156 3 2 2 2 292 291 220 240
160 3 2 2 2 287 293 196 221
171 3 2 2 2 221 245 239 287
173 3 2 2 2 196 293 292 240
174 3 2 2 2 206 298 297 241
175 3 2 2 2 212 286 290 228
179 3 2 2 2 297 296 208 241
181 3 2 2 2 226 285 230 210
188 3 2 2 2 287 239 199 294
191 3 2 2 2 288 209 242 207
199 3 2 2 2 295 236 209 288
202 3 2 2 2 294 199 236 295
213 3 2 2 2 288 296 279 295
214 3 2 2 2 278 289 290 282
215 3 2 2 2 286 291 282 290
216 3 2 2 2 280 293 287 294
217 3 2 2 2 278 283 297 298
218 3 2 2 2 289 278 298 285
219 3 2 2 2 294 295 279 280
220 3 2 2 2 292 293 280 281
221 3 2 2 2 296 297 283 279
223 3 2 2 2 281 282 291 292
$EndElements
