$MeshFormat
2.2 0 8
$EndMeshFormat
$Nodes
1617
2 0 0 0
4 800 0 0
5 0 1200 0
7 800 1200 0
9 0 450 0
10 0 425 0
11 0 400 0
12 0 375 0
13 0 350 0
14 0 325 0
15 0 300 0
16 0 275 0
17 0 250 0
18 0 225 0
19 0 200 0
20 0 175 0
21 0 150 0
22 0 125 0
23 0 100 0
24 0 75 0
25 0 50.0000000000001 0
26 0 25 0
58 800 25 0
59 800 50 0
60 800 75 0
61 800 100 0
62 800 125 0
63 800 150 0
64 800 175 0
65 800 200 0
66 800 225 0
67 800 250 0
68 800 275 0
69 800 300 0
70 800 325 0
71 800 350 0
72 800 375 0
73 800 400 0
74 800 425 0
75 800 450 0
76 25 0 0
77 50 0 0
78 75 0 0
79 100 0 0
80 125 0 0
81 150 0 0
82 175 0 0
83 200 0 0
84 225 0 0
85 250 0 0
86 275 0 0
87 300 0 0
88 325 0 0
89 350 0 0
90 375 0 0
91 400 0 0
92 425 0 0
93 450 0 0
94 475 0 0
95 500 0 0
96 525 0 0
97 550 0 0
98 575 0 0
99 600 0 0
100 625 0 0
101 650 0 0
102 675 0 0
103 700 0 0
104 725 0 0
105 750 0 0
106 775 0 0
107 0 1175 0
108 0 1150 0
109 0 1125 0
110 0 1100 0
111 0 1075 0
112 0 1050 0
113 0 1025 0
114 0 1000 0
115 0 975 0
116 0 950 0
117 0 925 0
118 0 900 0
119 0 875 0
120 0 850 0
121 0 825 0
122 0 800 0
123 0 775 0
124 0 750 0
125 0 725 0
126 0 700 0
127 0 675 0
128 0 650 0
129 0 625 0
130 0 600 0
131 0 575 0
132 0 550 0
133 775 1200 0
134 750 1200 0
135 725 1200 0
136 700 1200 0
137 675 1200 0
138 650 1200 0
139 625 1200 0
140 600 1200 0
141 575 1200 0
142 550 1200 0
143 525 1200 0
144 500 1200 0
145 475 1200 0
146 450 1200 0
147 425 1200 0
148 400 1200 0
149 375 1200 0
150 350 1200 0
151 325 1200 0
152 300 1200 0
153 275 1200 0
154 250 1200 0
155 225 1200 0
156 200 1200 0
157 175 1200 0
158 150 1200 0
159 125 1200 0
160 100 1200 0
161 75 1200 0
162 50 1200 0
163 25 1200 0
164 800 550 0
165 800 575 0
166 800 600 0
167 800 625 0
168 800 650 0
169 800 675 0
170 800 700 0
171 800 725 0
172 800 750 0
173 800 775 0
174 800 800 0
175 800 825 0
176 800 850 0
177 800 875 0
178 800 900 0
179 800 925 0
180 800 950 0
181 800 975 0
182 800 1000 0
183 800 1025 0
184 800 1050 0
185 800 1075 0
186 800 1100 0
187 800 1125 0
188 800 1150 0
189 800 1175 0
221 225 450 0
222 325 450 0
223 425 450 0
224 525 450 0
225 250 25 0
226 375 25 0
227 500 25 0
228 775 200 0
229 25 200 0
230 25 325 0
231 150 25 0
232 625 25 0
233 775 300 0
234 625 450 0
235 775 100 0
236 25 125 0
237 100 450 0
238 100 25 0
239 700 450 0
240 25 75 0
241 775 400 0
242 25 425 0
243 725 25 0
244 25 25 0
245 750 450 0
246 775 25 0
247 775 325 0
248 775 425 0
249 775 250 0
250 25 175 0
251 775 350 0
252 25 450 0
253 25 400 0
254 25 375 0
255 25 300 0
256 25 275 0
257 25 250 0
258 50 450 0
259 125 450 0
260 150 450 0
261 175 450 0
262 250 450 0
263 275 450 0
264 350 450 0
265 375 450 0
266 450 450 0
267 475 450 0
268 550 450 0
269 575 450 0
270 650 450 0
271 775 50 0
272 775 125 0
273 775 150 0
274 75 25 0
275 200 25 0
276 300 25 0
277 350 25 0
278 425 25 0
279 475 25 0
280 550 25 0
281 600 25 0
282 675 25 0
283 775 450 0
284 225 425 0
285 325 425 0
286 425 425 0
287 525 425 0
288 375 50 0
289 500 50 0
290 50 325 0
291 50 175 0
292 625 50 0
293 625 425 0
294 750 300 0
295 750 125 0
296 100 425 0
297 100 50 0
298 50 400 0
299 50 275 0
300 25 50 0
301 25 150 0
302 775 275 0
303 775 375 0
304 50 25 0
305 25 100 0
306 775 225 0
307 750 400 0
308 600 450 0
309 750 325 0
310 25 350 0
311 25 225 0
312 75 450 0
313 200 450 0
314 300 450 0
315 400 450 0
316 500 450 0
317 675 450 0
318 725 450 0
319 775 75 0
320 775 175 0
321 125 25 0
322 175 25 0
323 225 25 0
324 275 25 0
325 325 25 0
326 400 25 0
327 450 25 0
328 525 25 0
329 575 25 0
330 650 25 0
331 700 25 0
332 750 25 0
333 50 425 0
334 750 425 0
335 125 425 0
336 150 425 0
337 250 425 0
338 350 425 0
339 450 425 0
340 550 425 0
341 275 50 0
342 225 400 0
343 325 400 0
344 425 400 0
345 525 400 0
346 750 200 0
347 200 50 0
348 725 300 0
349 725 50 0
350 100 400 0
351 75 50 0
352 750 375 0
353 50 125 0
354 675 425 0
355 575 425 0
356 50 375 0
357 175 425 0
358 275 425 0
359 375 425 0
360 475 425 0
361 450 50 0
362 575 50 0
363 50 75 0
364 50 50 0
365 750 350 0
366 700 425 0
367 725 400 0
368 750 250 0
369 750 275 0
370 650 425 0
371 725 425 0
372 400 425 0
373 600 425 0
374 250 50 0
375 50 200 0
376 125 50 0
377 175 50 0
378 750 100 0
379 50 300 0
380 50 250 0
381 750 50 0
382 750 150 0
383 325 50 0
384 350 50 0
385 400 50 0
386 525 50 0
387 600 50 0
388 650 50 0
389 700 50 0
390 200 425 0
391 300 425 0
392 500 425 0
393 50 350 0
394 50 150 0
395 75 425 0
396 125 400 0
397 475 50 0
398 375 75 0
399 525 75 0
400 275 75 0
401 75 275 0
402 625 75 0
403 75 200 0
404 200 75 0
405 600 400 0
406 650 400 0
407 725 125 0
408 75 150 0
409 125 75 0
410 700 400 0
411 75 350 0
412 475 75 0
413 100 75 0
414 75 75 0
415 725 350 0
416 725 325 0
417 750 225 0
418 725 250 0
419 50 100 0
420 750 175 0
421 150 50 0
422 300 50 0
423 425 50 0
424 550 50 0
425 675 50 0
426 75 325 0
427 75 400 0
428 50 225 0
429 750 75 0
430 225 50 0
431 150 400 0
432 250 400 0
433 450 400 0
434 550 400 0
435 200 400 0
436 300 400 0
437 400 400 0
438 350 400 0
439 500 400 0
440 725 75 0
441 100 375 0
442 600 75 0
443 350 75 0
444 725 275 0
445 725 375 0
446 225 375 0
447 325 375 0
448 425 375 0
449 525 375 0
450 375 100 0
451 700 250 0
452 625 100 0
453 700 325 0
454 725 175 0
455 75 125 0
456 575 75 0
457 250 75 0
458 175 75 0
459 75 250 0
460 325 75 0
461 700 300 0
462 675 400 0
463 725 225 0
464 625 400 0
465 725 150 0
466 100 100 0
467 575 400 0
468 500 75 0
469 75 175 0
470 75 375 0
471 175 400 0
472 275 400 0
473 475 400 0
474 725 100 0
475 75 300 0
476 425 75 0
477 400 75 0
478 675 75 0
479 650 75 0
480 700 75 0
481 125 375 0
482 550 75 0
483 300 75 0
484 75 225 0
485 225 75 0
486 150 75 0
487 100 350 0
488 375 400 0
489 450 75 0
490 700 350 0
491 700 375 0
492 75 100 0
493 525 100 0
494 275 100 0
495 100 225 0
496 200 100 0
497 100 175 0
498 125 350 0
499 600 375 0
500 675 300 0
501 700 150 0
502 700 225 0
503 100 300 0
504 475 100 0
505 100 125 0
506 725 200 0
507 700 275 0
508 650 375 0
509 675 375 0
510 400 100 0
511 100 275 0
512 700 100 0
513 125 100 0
514 100 325 0
515 150 375 0
516 250 375 0
517 450 375 0
518 550 375 0
519 175 375 0
520 200 375 0
521 275 375 0
522 300 375 0
523 375 375 0
524 400 375 0
525 475 375 0
526 500 375 0
527 600 100 0
528 350 100 0
529 650 100 0
530 675 325 0
531 575 100 0
532 250 100 0
533 175 100 0
534 325 100 0
535 450 100 0
536 350 375 0
537 300 350 0
538 400 350 0
539 525 350 0
540 400 125 0
541 275 125 0
542 625 125 0
543 200 350 0
544 200 125 0
545 125 300 0
546 650 300 0
547 675 225 0
548 700 175 0
549 125 125 0
550 450 350 0
551 350 125 0
552 150 100 0
553 675 250 0
554 675 275 0
555 625 375 0
556 700 200 0
557 700 125 0
558 575 375 0
559 100 200 0
560 100 150 0
561 225 350 0
562 325 350 0
563 100 250 0
564 500 100 0
565 425 100 0
566 675 100 0
567 550 100 0
568 300 100 0
569 225 100 0
570 125 325 0
571 150 350 0
572 250 350 0
573 350 350 0
574 475 350 0
575 600 125 0
576 675 350 0
577 525 125 0
578 300 325 0
579 450 325 0
580 625 150 0
581 125 225 0
582 200 325 0
583 575 350 0
584 675 150 0
585 250 125 0
586 175 125 0
587 325 125 0
588 625 350 0
589 650 325 0
590 650 250 0
591 650 350 0
592 650 275 0
593 675 175 0
594 675 200 0
595 375 350 0
596 425 125 0
597 425 350 0
598 375 125 0
599 125 175 0
600 500 125 0
601 125 275 0
602 550 350 0
603 175 350 0
604 275 350 0
605 500 350 0
606 650 125 0
607 575 125 0
608 300 125 0
609 225 125 0
610 150 325 0
611 150 125 0
612 125 150 0
613 675 125 0
614 225 325 0
615 325 325 0
616 425 150 0
617 275 150 0
618 525 150 0
619 525 325 0
620 300 300 0
621 625 250 0
622 225 150 0
623 200 300 0
624 375 325 0
625 375 150 0
626 250 325 0
627 650 225 0
628 625 300 0
629 650 150 0
630 650 175 0
631 600 350 0
632 350 150 0
633 350 325 0
634 600 150 0
635 450 125 0
636 425 325 0
637 200 150 0
638 150 300 0
639 125 200 0
640 125 250 0
641 550 125 0
642 475 325 0
643 275 325 0
644 175 325 0
645 550 325 0
646 175 150 0
647 325 150 0
648 150 175 0
649 150 150 0
650 475 125 0
651 625 325 0
652 425 300 0
653 350 300 0
654 225 175 0
655 375 175 0
656 625 225 0
657 525 300 0
658 575 325 0
659 150 250 0
660 575 150 0
661 600 300 0
662 650 200 0
663 625 175 0
664 625 275 0
665 600 325 0
666 400 325 0
667 400 150 0
668 450 300 0
669 150 200 0
670 250 150 0
671 500 150 0
672 450 150 0
673 150 275 0
674 500 325 0
675 300 150 0
676 225 300 0
677 275 300 0
678 550 150 0
679 175 300 0
680 350 175 0
681 200 175 0
682 175 175 0
683 325 300 0
684 425 275 0
685 525 175 0
686 300 175 0
687 450 175 0
688 200 275 0
689 375 200 0
690 275 275 0
691 600 225 0
692 325 275 0
693 225 200 0
694 575 300 0
695 400 300 0
696 475 300 0
697 550 300 0
698 625 200 0
699 600 175 0
700 375 300 0
701 575 175 0
702 150 225 0
703 425 175 0
704 250 175 0
705 325 175 0
706 400 175 0
707 500 300 0
708 175 275 0
709 175 200 0
710 475 150 0
711 250 300 0
712 600 250 0
713 600 275 0
714 525 275 0
715 450 200 0
716 325 200 0
717 250 200 0
718 575 225 0
719 500 175 0
720 175 225 0
721 225 275 0
722 600 200 0
723 300 275 0
724 350 200 0
725 375 275 0
726 550 275 0
727 275 175 0
728 350 275 0
729 175 250 0
730 550 175 0
731 200 200 0
732 400 275 0
733 450 275 0
734 475 175 0
735 400 200 0
736 475 275 0
737 250 275 0
738 575 275 0
739 525 200 0
740 425 250 0
741 300 200 0
742 200 250 0
743 375 225 0
744 250 250 0
745 325 250 0
746 525 250 0
747 450 250 0
748 575 200 0
749 500 275 0
750 250 225 0
751 225 225 0
752 475 200 0
753 350 225 0
754 275 200 0
755 200 225 0
756 350 250 0
757 375 250 0
758 275 250 0
759 425 200 0
760 575 250 0
761 500 250 0
762 475 250 0
763 300 250 0
764 550 200 0
765 400 250 0
766 425 225 0
767 475 225 0
768 325 225 0
769 500 200 0
770 300 225 0
771 275 225 0
772 400 225 0
773 225 250 0
774 550 225 0
775 550 250 0
776 450 225 0
777 500 225 0
778 525 225 0
779 425 1175 0
780 474.995147702178 549.966263976991 0
781 349.990722192243 550.003772417931 0
782 25 900 0
783 775 875 0
784 25 800 0
785 550 1175 0
786 775 750 0
787 275 1175 0
788 249.999994837416 550.00000398231 0
789 25 1025 0
790 25 700 0
791 775 975 0
792 625 1175 0
793 650 550 0
794 175 550 0
795 150 1175 0
796 775 1050 0
797 775 625 0
798 25 625 0
799 25 1125 0
800 700 1175 0
801 775 1100 0
802 750 550 0
803 100 550 0
804 475 1175 0
805 325 1175 0
806 75 1175 0
807 600 550 0
808 424.967717995766 549.924755857764 0
809 25 575 0
810 775 1150 0
811 25 1175 0
812 25 675 0
813 25 775 0
814 25 750 0
815 25 1100 0
816 25 1075 0
817 25 1000 0
818 25 975 0
819 25 950 0
820 25 875 0
821 750 1175 0
822 775 1175 0
823 650 1175 0
824 575 1175 0
825 500 1175 0
826 375 1175 0
827 225 1175 0
828 175 1175 0
829 100 1175 0
830 775 550 0
831 775 575 0
832 775 650 0
833 775 675 0
834 775 700 0
835 775 775 0
836 775 800 0
837 775 825 0
838 775 900 0
839 775 1000 0
840 725 550 0
841 700 550 0
842 575 550 0
843 549.999955478311 549.999943675817 0
844 524.999343704616 549.999175744871 0
845 399.969078047677 549.952346614622 0
846 324.997518475548 550.001861571781 0
847 299.999476527523 550.00043472232 0
848 224.999999354677 550.000000497789 0
849 150 550 0
850 75 550 0
851 25 550 0
852 25 850 0
853 775 925 0
854 425.107051832469 574.663449885887 0
855 50 875 0
856 750 800 0
857 475 1150 0
858 750 900 0
859 600 575 0
860 50 775 0
861 249.999988161367 575.000010302083 0
862 50 1000 0
863 150 1150 0
864 750 650 0
865 50 700 0
866 175 575 0
867 625 1150 0
868 750 975 0
869 50 1100 0
870 350.012338447512 574.9959514291 0
871 725 575 0
872 100 575 0
873 750 1150 0
874 75 1150 0
875 549.99981229387 574.999764489738 0
876 25 600 0
877 50 575 0
878 25 725 0
879 25 650 0
880 775 950 0
881 199.999999919335 550.000000062224 0
882 50 550 0
883 750 675 0
884 25 1150 0
885 25 1050 0
886 25 925 0
887 725 1175 0
888 675 1175 0
889 600 1175 0
890 525 1175 0
891 450 1175 0
892 400 1175 0
893 350 1175 0
894 300 1175 0
895 250 1175 0
896 200 1175 0
897 125 1175 0
898 50 1175 0
899 775 600 0
900 775 725 0
901 775 850 0
902 775 1025 0
903 775 1075 0
904 775 1125 0
905 675 550 0
906 625 550 0
907 499.998990383435 549.989647309884 0
908 449.996916513644 549.920254424532 0
909 374.98366257942 549.986496170883 0
910 274.999901246556 550.000083719857 0
911 125 550 0
912 750 750 0
913 750 575 0
914 50 975 0
915 325.003044662635 575.001187150223 0
916 25 825 0
917 325 1150 0
918 350.081542028883 599.940582622573 0
919 75 1000 0
920 750 1050 0
921 725 650 0
922 675 1150 0
923 675 575 0
924 225 1150 0
925 50 725 0
926 50 625 0
927 50 675 0
928 750 925 0
929 150 575 0
930 224.999997854991 575.000001827686 0
931 500.00243470376 574.975509693582 0
932 750 625 0
933 375 1150 0
934 100 1150 0
935 400.123598121556 574.753211005053 0
936 300.000471196675 575.000519445095 0
937 450.091895564928 574.72685174068 0
938 750 725 0
939 525 1150 0
940 50 750 0
941 50 800 0
942 50 850 0
943 75 575 0
944 750 950 0
945 50 600 0
946 199.999999655777 575.000000289842 0
947 125 575 0
948 375.083472676976 574.897525705272 0
949 400 1150 0
950 50 900 0
951 275 1150 0
952 50 1025 0
953 625 575 0
954 50 1125 0
955 725 1150 0
956 750 1100 0
957 50 1075 0
958 50 950 0
959 650 1150 0
960 600 1150 0
961 500 1150 0
962 175 1150 0
963 750 700 0
964 750 775 0
965 750 825 0
966 750 1000 0
967 700 575 0
968 574.999965146821 574.999956665137 0
969 524.999579998962 574.995220508406 0
970 274.99998093553 575.000133414946 0
971 125 1150 0
972 750 1125 0
973 50 1150 0
974 450 1150 0
975 750 600 0
976 750 875 0
977 450 1125 0
978 75 775 0
979 725 900 0
980 524.998821537801 599.99327791333 0
981 725 775 0
982 199.999999748273 600.000000215828 0
983 725 975 0
984 625 1125 0
985 75 700 0
986 150 1125 0
987 150 600 0
988 625 600 0
989 75 900 0
990 75 1100 0
991 575 1150 0
992 725 625 0
993 300.002402046561 599.999883741589 0
994 75 1025 0
995 725 700 0
996 500 1125 0
997 75 725 0
998 100 600 0
999 75 600 0
1000 50 650 0
1001 50 825 0
1002 725 925 0
1003 375.266543863769 599.685324841065 0
1004 425.448535951046 599.095071017827 0
1005 250.000016758351 600.000008161735 0
1006 325.022019411532 599.985793777285 0
1007 425 1150 0
1008 475.03891333542 574.876850263619 0
1009 550 1150 0
1010 650 575 0
1011 700 1150 0
1012 75 875 0
1013 725 800 0
1014 599.999996137551 599.99999547336 0
1015 725 600 0
1016 75 1125 0
1017 574.999954410016 599.99994625775 0
1018 725 675 0
1019 50 1050 0
1020 50 925 0
1021 300 1150 0
1022 250 1150 0
1023 200 1150 0
1024 750 850 0
1025 750 1025 0
1026 750 1075 0
1027 725 725 0
1028 75 975 0
1029 650 1125 0
1030 700 600 0
1031 100 1125 0
1032 725 1100 0
1033 725 1125 0
1034 350 1150 0
1035 375.33252146824 624.365039089015 0
1036 100 900 0
1037 300 1125 0
1038 700 900 0
1039 100 1000 0
1040 700 775 0
1041 624.999999630049 624.99999958379 0
1042 625 1100 0
1043 100 700 0
1044 725 1025 0
1045 700 650 0
1046 325.033257080895 624.964404176232 0
1047 675 600 0
1048 200 1125 0
1049 350 1125 0
1050 75 1075 0
1051 75 950 0
1052 550 1125 0
1053 75 675 0
1054 75 625 0
1055 75 850 0
1056 174.999999943409 600.000000048257 0
1057 225.00000339785 600.000001381489 0
1058 75 800 0
1059 125 600 0
1060 400.430301803611 599.263801020636 0
1061 425 1125 0
1062 275.000545904562 599.999967372007 0
1063 549.999660579922 599.998184828317 0
1064 725 750 0
1065 725 1075 0
1066 675 1125 0
1067 225 1125 0
1068 500.008001566407 599.943567429462 0
1069 525 1125 0
1070 725 950 0
1071 250 1125 0
1072 575 1125 0
1073 600 1125 0
1074 175 1125 0
1075 725 825 0
1076 725 1000 0
1077 125 1125 0
1078 649.999999976878 599.999999973987 0
1079 75 925 0
1080 100 1100 0
1081 700 625 0
1082 75 1050 0
1083 700 675 0
1084 700 700 0
1085 700 1125 0
1086 599.999991871994 624.99999100667 0
1087 475 1125 0
1088 475.079431990808 599.73901547204 0
1089 450.251156860414 599.355702476694 0
1090 75 750 0
1091 725 875 0
1092 425 1100 0
1093 500.009052097218 624.887108849717 0
1094 225.000014888683 624.999994854924 0
1095 225 1100 0
1096 700 975 0
1097 150 1100 0
1098 100 675 0
1099 500 1100 0
1100 624.999998971066 649.99999891753 0
1101 100 775 0
1102 174.999999977756 625.000000019147 0
1103 100 625 0
1104 400 1125 0
1105 425.508870542614 623.357822259986 0
1106 700 725 0
1107 700 875 0
1108 674.999999999986 649.999999999988 0
1109 400.458223105095 623.684697331964 0
1110 100 875 0
1111 149.999999993683 625.000000005409 0
1112 300.008519018259 624.991797869472 0
1113 275.001664872078 624.998762901483 0
1114 350.123045475059 624.791008696071 0
1115 450 1100 0
1116 75 650 0
1117 75 825 0
1118 725 1050 0
1119 375 1125 0
1120 275 1125 0
1121 549.999599424801 624.997178042823 0
1122 100 1025 0
1123 100 725 0
1124 700 925 0
1125 700 800 0
1126 574.999900324749 624.99947397757 0
1127 725 850 0
1128 650 1100 0
1129 700 1075 0
1130 700 1100 0
1131 700 750 0
1132 649.999999886557 624.999999877067 0
1133 600 1100 0
1134 700 1000 0
1135 674.999999984373 624.999999983006 0
1136 175 1100 0
1137 100 1075 0
1138 525 1100 0
1139 550 1100 0
1140 125 1100 0
1141 674.999999999856 674.999999999879 0
1142 325 1125 0
1143 100 975 0
1144 100 950 0
1145 100 925 0
1146 475.072670722705 624.531346797351 0
1147 375.183625962945 649.039478578645 0
1148 425 1075 0
1149 125 900 0
1150 675 875 0
1151 500.009195121982 649.809048582074 0
1152 525 1075 0
1153 674.999999999856 774.999999999879 0
1154 675 975 0
1155 125 1000 0
1156 625 1075 0
1157 125.000000001369 699.999999998938 0
1158 300.008250443216 649.988372653578 0
1159 150 1075 0
1160 325 1100 0
1161 175.00000007153 649.999999945688 0
1162 700 1025 0
1163 700 825 0
1164 425.23764094936 647.693842506013 0
1165 100 650 0
1166 124.99999999921 625.000000000676 0
1167 100 850 0
1168 350.091563191671 649.664467402877 0
1169 200.00000228882 624.999999350497 0
1170 250.000316953488 624.99980749223 0
1171 100 800 0
1172 599.99998725787 649.999950739806 0
1173 475 1100 0
1174 649.999999803708 649.999999794387 0
1175 525.001537855887 624.964982441504 0
1176 275 1100 0
1177 675 900 0
1178 200 1100 0
1179 350 1100 0
1180 675 1100 0
1181 700 950 0
1182 250 1100 0
1183 575 1100 0
1184 100 1050 0
1185 674.999999999499 699.999999999577 0
1186 400 1100 0
1187 674.999999999196 724.999999999322 0
1188 700 850 0
1189 700 1050 0
1190 574.999918105758 649.999566058775 0
1191 125 1075 0
1192 125 975 0
1193 125 950 0
1194 100 750 0
1195 450.225065948615 623.940025469472 0
1196 375.068120141228 673.745122943967 0
1197 125.000000000127 774.999999999894 0
1198 650 875 0
1199 250 1075 0
1200 150 1000 0
1201 599.999986052774 674.999923190568 0
1202 325 1075 0
1203 450.125256106395 648.449909799979 0
1204 150.00000001552 649.999999988433 0
1205 549.999823867906 649.994507701541 0
1206 125 1025 0
1207 675 925 0
1208 650 1075 0
1209 400 1075 0
1210 649.999999907948 699.999999835536 0
1211 475.049701999014 649.295776052678 0
1212 125.000000002946 674.999999997768 0
1213 125.000000002699 649.999999998025 0
1214 200.000003961096 649.99999723339 0
1215 125 875 0
1216 225.000055259973 649.9999607388 0
1217 275.002345212234 649.997116175052 0
1218 325.034411571734 649.907501853481 0
1219 649.999999823878 674.999999814899 0
1220 450 1075 0
1221 100 825 0
1222 125.000000001141 724.999999999092 0
1223 300 1100 0
1224 200 1075 0
1225 475 1075 0
1226 500 1075 0
1227 375 1100 0
1228 674.999999999982 799.999999999985 0
1229 675 1075 0
1230 674.999999999352 749.999999999453 0
1231 575 1075 0
1232 600 1075 0
1233 675 1000 0
1234 175 1075 0
1235 550 1075 0
1236 674.999999999998 824.999999999998 0
1237 675 850 0
1238 525.001679253677 649.948308522339 0
1239 675 950 0
1240 125 1050 0
1241 675 1025 0
1242 125 925 0
1243 150 975 0
1244 400.252691382878 648.116304882373 0
1245 400 1050 0
1246 475.017384307238 674.080690422529 0
1247 500 1050 0
1248 650 950 0
1249 649.999999998908 774.999999999078 0
1250 575 1050 0
1251 200.000010757686 674.999990255183 0
1252 150 900 0
1253 650 1000 0
1254 175 1000 0
1255 150.00000003334 699.999999972266 0
1256 325.019265593698 674.894532574548 0
1257 549.999975434228 674.99303143817 0
1258 150 1025 0
1259 275 1075 0
1260 175 1050 0
1261 375 1075 0
1262 400.076940207188 672.58266758901 0
1263 175.000001820067 674.999998404304 0
1264 150.000000247477 674.999999785018 0
1265 125 850 0
1266 624.999996911208 674.999986105486 0
1267 300.007377590361 674.972921887494 0
1268 250.000556615101 649.999409612518 0
1269 125.000000000028 799.999999999977 0
1270 574.999956741405 674.998555466673 0
1271 450 1050 0
1272 225 1075 0
1273 525.000828338301 674.944598188172 0
1274 525 1050 0
1275 625 1050 0
1276 150 1050 0
1277 350.045749272753 674.532746755132 0
1278 650 900 0
1279 649.999999914196 724.999999752693 0
1280 675 1050 0
1281 649.999999999979 824.999999999982 0
1282 649.999999999997 849.999999999997 0
1283 300 1075 0
1284 150 950 0
1285 350 1075 0
1286 125.000000000796 749.999999999359 0
1287 425.066951119587 672.225642891354 0
1288 400.003472243121 697.375805605795 0
1289 624.999999999996 849.999999999997 0
1290 500 1025 0
1291 550.000009763816 699.991771605936 0
1292 300 1050 0
1293 150.000000009553 774.99999999059 0
1294 325.008247896408 699.866425323407 0
1295 225 1050 0
1296 450.04530866639 673.020964880199 0
1297 175.000001381013 699.999998742716 0
1298 150.000000000011 874.999999999988 0
1299 624.999998047612 699.999990988111 0
1300 125.000000000005 824.999999999996 0
1301 425 1050 0
1302 599.999990222172 699.999839548916 0
1303 275.002229528591 674.994242128772 0
1304 500.006747584042 674.692111963202 0
1305 650 975 0
1306 375.015596853582 698.625160967034 0
1307 624.999999999999 874.999999999999 0
1308 250 1050 0
1309 325 1050 0
1310 375 1050 0
1311 650 925 0
1312 650 1050 0
1313 200 1050 0
1314 475 1050 0
1315 649.999999999702 799.999999999748 0
1316 649.999999959592 749.999999862581 0
1317 600 1050 0
1318 550 1050 0
1319 650 1025 0
1320 150 925 0
1321 175 975 0
1322 175 1025 0
1323 250.000609366107 674.998813413652 0
1324 225.000139198602 674.999785688994 0
1325 150.000000125196 724.999999885533 0
1326 399.986849472395 722.393450542196 0
1327 375 1025 0
1328 599.999999999885 849.999999997302 0
1329 175.000000000005 899.999999999995 0
1330 250.000377912949 699.998965277745 0
1331 625 950 0
1332 575 1025 0
1333 449.997356190234 697.779582919513 0
1334 200.000016607565 699.999976910889 0
1335 624.999999757663 749.999998493064 0
1336 225 1025 0
1337 425.003879334384 697.067421562784 0
1338 150.000000000086 849.999999999907 0
1339 599.999994850327 724.99989560231 0
1340 150.000000002623 799.999999997346 0
1341 574.999983029965 699.998119192298 0
1342 300.004080557541 699.964462292774 0
1343 350.015740350253 699.453340214237 0
1344 400 1025 0
1345 425 1025 0
1346 624.999999899717 774.999998997042 0
1347 600 1025 0
1348 625 975 0
1349 625 1000 0
1350 200 1000 0
1351 275 1050 0
1352 475 1025 0
1353 525.000345708085 699.935241249497 0
1354 500.000877645533 699.674492938068 0
1355 525 1025 0
1356 625 1025 0
1357 625 900 0
1358 624.999998303103 724.999974794276 0
1359 624.999999996903 824.999999940439 0
1360 175 950 0
1361 200 1025 0
1362 350 1050 0
1363 150.00000004546 749.999999957141 0
1364 175.000001535279 724.999998008154 0
1365 375 1000 0
1366 325.002517525615 724.850095467683 0
1367 475 1000 0
1368 225 1000 0
1369 549.999983332145 724.990339484082 0
1370 175.000000183501 774.999999718769 0
1371 200.000008325876 724.999986429975 0
1372 275 1025 0
1373 599.999999980257 824.999999202725 0
1374 600 950 0
1375 374.998228242212 723.646825474321 0
1376 424.988446053964 722.17379091142 0
1377 225.000121695853 699.999737947086 0
1378 175.000000000092 874.999999999897 0
1379 599.999997461502 749.999903705211 0
1380 175.000001022775 749.999998420214 0
1381 450 1025 0
1382 150.000000000708 824.999999999269 0
1383 275.001609322472 699.991206446451 0
1384 574.999990266023 724.997770797577 0
1385 400 1000 0
1386 524.999793911866 724.929656145565 0
1387 500 1000 0
1388 599.999999999971 874.99999999933 0
1389 250 1025 0
1390 625 925 0
1391 624.999999966656 799.999999497373 0
1392 550 1025 0
1393 175.000000000001 924.999999999999 0
1394 200 975 0
1395 575 1000 0
1396 600 1000 0
1397 350 1025 0
1398 475.00252959446 698.978023712213 0
1399 424.991065985993 747.401823279034 0
1400 375 975 0
1401 200.000000000078 899.999999997813 0
1402 574.99999980248 824.999987382622 0
1403 475 975 0
1404 250.00023336038 724.998773591607 0
1405 225 975 0
1406 549.999940332099 749.988606439905 0
1407 450 1000 0
1408 599.999998932142 774.999939039761 0
1409 599.999999999995 899.999999999883 0
1410 550 1000 0
1411 300 1025 0
1412 449.992414618245 723.092903502327 0
1413 225.000078469383 724.999725301096 0
1414 175.000000003972 849.999999954638 0
1415 499.998753089886 724.667749919212 0
1416 175.000000060253 799.999999872572 0
1417 425 1000 0
1418 574.999986563604 749.997422383596 0
1419 574.999999972717 849.999998299737 0
1420 300.001711528547 724.958066784093 0
1421 600 975 0
1422 525 1000 0
1423 200 950 0
1424 350 1000 0
1425 250 1000 0
1426 599.999999656634 799.99997822568 0
1427 599.999999999999 924.999999999985 0
1428 200.000008280583 749.999974350615 0
1429 325 1025 0
1430 350.002972466929 724.436596390385 0
1431 399.992434786583 747.845281069249 0
1432 424.995934663634 772.61247684977 0
1433 325.000332077817 749.85048892748 0
1434 549.999994518803 824.998178888417 0
1435 350 974.999998469908 0
1436 574.999999999993 899.999999999845 0
1437 250 975 0
1438 525 975 0
1439 574.999997558923 799.999700523303 0
1440 374.996049578081 748.777139190683 0
1441 250.00008209563 749.999132424491 0
1442 200.000000002613 874.999999934127 0
1443 200.000002397497 774.999991033227 0
1444 400 975 0
1445 450 975 0
1446 524.999615579003 749.923268520234 0
1447 574.999990641723 774.9985966184 0
1448 275 999.999999904369 0
1449 550 975 0
1450 575 949.999999999999 0
1451 175.000000020317 824.999999881842 0
1452 275.000845654561 724.989267155347 0
1453 500 975 0
1454 574.999999996374 874.999999776 0
1455 200.000000000011 924.999999999726 0
1456 575 975 0
1457 225.000000000001 949.999999999983 0
1458 325 999.999999808738 0
1459 225.000040571071 749.999728710401 0
1460 474.996523047109 724.013631937299 0
1461 449.993841917562 748.242286285074 0
1462 349.999999999968 949.999853340675 0
1463 224.999999999903 899.999999772924 0
1464 449.99999999273 949.999555486914 0
1465 449.99670193653 773.312313997441 0
1466 549.999999992797 874.999914482323 0
1467 500 950 0
1468 275 974.999999390354 0
1469 499.998548461846 749.672327839445 0
1470 275.000297076022 749.992114793539 0
1471 549.99997698649 799.995054041452 0
1472 474.996588909394 749.08121275092 0
1473 300.000543327096 749.955328044152 0
1474 200.00000002447 849.99999950098 0
1475 200.000000662849 799.999995743034 0
1476 424.999999999546 974.999972217932 0
1477 225.000014258699 774.999808812762 0
1478 374.999999997907 949.999545710799 0
1479 549.999933227325 774.987402062473 0
1480 574.999999999999 924.999999999965 0
1481 324.999999999997 974.999986960747 0
1482 250 949.999999961895 0
1483 525 949.999999999999 0
1484 550 949.999999999996 0
1485 224.999999999999 924.999999968924 0
1486 549.999998287417 849.999336234743 0
1487 300 999.999998919821 0
1488 349.999269854814 749.469142751513 0
1489 399.996262746757 773.074536445052 0
1490 349.999999981822 924.997072173178 0
1491 324.999797518885 774.864518521999 0
1492 524.999856076399 799.944578575003 0
1493 524.999991184191 849.981593934064 0
1494 274.999999999875 949.999996866055 0
1495 474.997954966873 774.142449751824 0
1496 225.000003805255 799.999886946813 0
1497 399.999999992369 949.999177328151 0
1498 499.999999854515 924.996639518247 0
1499 374.997564124911 773.918342941253 0
1500 300.000077376152 774.959786269576 0
1501 225.000000007664 874.99999738434 0
1502 524.999662804395 774.912677579429 0
1503 424.999999987551 949.999064424247 0
1504 474.999999987981 949.999619634421 0
1505 549.999999990408 899.999818621127 0
1506 200.0000003682 824.999991538302 0
1507 324.999999998731 949.999781276635 0
1508 249.999999999007 924.999998918222 0
1509 549.999999994602 924.999891991963 0
1510 299.999999999912 974.999983079468 0
1511 275.000094576343 774.98919855839 0
1512 250.000049861549 774.997633574494 0
1513 424.998390143638 797.828464085473 0
1514 424.999999343052 924.973214679333 0
1515 324.999804462557 799.899486395394 0
1516 324.999999986235 924.999242705207 0
1517 225.000000963482 824.999948459652 0
1518 374.999999898706 924.989881979664 0
1519 524.999997024646 874.987036536491 0
1520 274.999999988803 924.999971945834 0
1521 499.998983856319 774.654138021534 0
1522 225.00000019684 849.999982521884 0
1523 299.999968124919 799.967838095493 0
1524 524.999942808102 824.959397081225 0
1525 249.999999990211 899.999991491406 0
1526 474.999999665289 924.989913259867 0
1527 524.999999938639 924.998701750556 0
1528 299.999999998004 949.999914300712 0
1529 250.000014864931 799.998416164764 0
1530 399.998418311221 798.289468801812 0
1531 449.998571432857 798.446374982993 0
1532 349.998949295127 774.519636172612 0
1533 324.999999304863 899.995340505701 0
1534 324.999903587508 824.92588704853 0
1535 499.999837121205 824.796785802852 0
1536 274.999999853943 899.999797087524 0
1537 374.998831682734 799.058829460852 0
1538 474.999005793047 799.208540426646 0
1539 250.000002071591 824.999278936052 0
1540 399.999999534925 924.975441746348 0
1541 349.999998511105 899.977185555501 0
1542 449.999999312272 924.975312092653 0
1543 499.999448313284 799.676507366585 0
1544 499.999941552187 849.851015367104 0
1545 474.999994325425 899.928587792967 0
1546 499.999996817016 899.968864939672 0
1547 524.999998897258 899.991104433587 0
1548 299.999999925799 924.999522567131 0
1549 249.999999902765 874.999921762704 0
1550 275.000017080754 799.990318712653 0
1551 424.999399233528 823.258701970442 0
1552 349.999360404595 799.592364420963 0
1553 399.999994124778 899.86442871876 0
1554 449.999438518576 823.760079875579 0
1555 324.999992005932 874.978552762715 0
1556 449.99999105682 899.859213056438 0
1557 274.999999065045 874.999154191827 0
1558 299.999966448265 824.975491468572 0
1559 474.999575524922 824.353496283716 0
1560 249.99999991831 849.999608385461 0
1561 374.999996448332 899.922023592833 0
1562 499.999981563077 874.911161761987 0
1563 299.999999074812 899.997522254546 0
1564 274.999995737099 824.992512206184 0
1565 399.99938551112 823.654557940054 0
1566 349.999724603074 824.694314195025 0
1567 424.99978691368 848.922070007575 0
1568 374.999968983397 874.761122364865 0
1569 449.999794091169 849.211272665739 0
1570 449.999939811134 874.597670128629 0
1571 274.999995948858 849.996212811106 0
1572 349.99997804047 874.899763752806 0
1573 324.999953228934 849.936997677487 0
1574 424.999987595157 899.810746572928 0
1575 474.999839966786 849.561677351248 0
1576 474.999946148001 874.757152433598 0
1577 299.999994156249 874.991084174576 0
1578 374.999496011926 824.246880044621 0
1579 399.999949637564 874.556539424353 0
1580 399.999772147783 849.14352342265 0
1581 349.999889143034 849.781656968065 0
1582 424.999920653805 874.481650103491 0
1583 299.99997996969 849.979431245423 0
1584 374.99980305198 849.489518128292 0
1620 800 500 0
1652 0 500 0
1653 50 500 0
1654 25 500 0
1655 100 500 0
1656 150 500 0
1657 200 500 0
1658 250 500 0
1659 300 500 0
1660 350 500 0
1661 400 500 0
1662 450 500 0
1663 500 500 0
1664 550 500 0
1665 600 500 0
1666 650 500 0
1667 700 500 0
1668 750 500 0
1669 775 500 0
1670 75 500 0
1671 125 500 0
1672 175 500 0
1673 225 500 0
1674 275 500 0
1675 325 500 0
1676 375 500 0
1677 425 500 0
1678 475 500 0
1679 525 500 0
1680 575 500 0
1681 625 500 0
1682 675 500 0
1683 725 500 0
1684 0 475 0
1685 800 475 0
1686 0 525 0
1687 800 525 0
1688 25 475 0
1689 50 475 0
1690 75 475 0
1691 100 475 0
1692 125 475 0
1693 150 475 0
1694 175 475 0
1695 200 475 0
1696 225 475 0
1697 250 475 0
1698 275 475 0
1699 300 475 0
1700 325 475 0
1701 350 475 0
1702 375 475 0
1703 400 475 0
1704 425 475 0
1705 450 475 0
1706 475 475 0
1707 500 475 0
1708 525 475 0
1709 550 475 0
1710 575 475 0
1711 600 475 0
1712 625 475 0
1713 650 475 0
1714 675 475 0
1715 700 475 0
1716 725 475 0
1717 750 475 0
1718 775 475 0
1719 775 525 0
1720 750 525 0
1721 725 525 0
1722 700 525 0
1723 675 525 0
1724 650 525 0
1725 625 525 0
1726 600 525 0
1727 575 525 0
1728 550 525 0
1729 525 525 0
1730 500 525 0
1731 475 525 0
1732 450 525 0
1733 425 525 0
1734 400 525 0
1735 375 525 0
1736 350 525 0
1737 325 525 0
1738 300 525 0
1739 275 525 0
1740 250 525 0
1741 225 525 0
1742 200 525 0
1743 175 525 0
1744 150 525 0
1745 125 525 0
1746 100 525 0
1747 75 525 0
1748 50 525 0
1749 25 525 0
$EndNodes
$Elements
1536
1 3 2 1 1 436 522 447 343
2 3 2 1 1 489 476 423 361
3 3 2 1 1 456 482 424 362
4 3 2 1 1 426 514 487 411
5 3 2 1 1 503 514 426 475
6 3 2 1 1 427 470 441 350
7 3 2 1 1 428 484 459 380
8 3 2 1 1 457 485 430 374
9 3 2 1 1 481 515 431 396
10 3 2 1 1 446 516 432 342
11 3 2 1 1 449 518 434 345
12 3 2 1 1 435 520 446 342
13 3 2 1 1 519 520 435 471
14 3 2 1 1 423 476 477 385
15 3 2 1 1 521 522 436 472
16 3 2 1 1 523 524 437 488
17 3 2 1 1 447 536 438 343
18 3 2 1 1 438 536 523 488
19 3 2 1 1 439 526 449 345
20 3 2 1 1 525 526 439 473
21 3 2 1 1 452 527 442 402
22 3 2 1 1 543 561 446 520
23 3 2 1 1 537 562 447 522
24 3 2 1 1 447 562 573 536
25 3 2 1 1 538 597 448 524
26 3 2 1 1 501 557 407 465
27 3 2 1 1 440 480 389 349
28 3 2 1 1 389 480 478 425
29 3 2 1 1 441 481 396 350
30 3 2 1 1 398 477 510 450
31 3 2 1 1 398 450 528 443
32 3 2 1 1 424 482 399 386
33 3 2 1 1 422 483 400 341
34 3 2 1 1 401 511 503 475
35 3 2 1 1 403 484 428 375
36 3 2 1 1 403 559 495 484
37 3 2 1 1 497 559 403 469
38 3 2 1 1 430 485 404 347
39 3 2 1 1 540 598 450 510
40 3 2 1 1 407 557 512 474
41 3 2 1 1 408 560 497 469
42 3 2 1 1 505 560 408 455
43 3 2 1 1 421 486 409 376
44 3 2 1 1 410 491 445 367
45 3 2 1 1 509 491 410 462
46 3 2 1 1 411 487 441 470
47 3 2 1 1 412 504 535 489
48 3 2 1 1 455 353 419 492
49 3 2 1 1 458 486 421 377
50 3 2 1 1 460 483 422 383
51 3 2 1 1 583 631 499 558
52 3 2 1 1 482 567 493 399
53 3 2 1 1 531 567 482 456
54 3 2 1 1 483 568 494 400
55 3 2 1 1 534 568 483 460
56 3 2 1 1 485 569 496 404
57 3 2 1 1 532 569 485 457
58 3 2 1 1 486 552 513 409
59 3 2 1 1 533 552 486 458
60 3 2 1 1 565 476 489 535
61 3 2 1 1 491 509 576 490
62 3 2 1 1 514 570 498 487
63 3 2 1 1 498 571 515 481
64 3 2 1 1 487 498 481 441
65 3 2 1 1 499 631 588 555
66 3 2 1 1 600 650 504 564
67 3 2 1 1 504 650 635 535
68 3 2 1 1 576 509 508 591
69 3 2 1 1 588 591 508 555
70 3 2 1 1 511 601 545 503
71 3 2 1 1 513 552 611 549
72 3 2 1 1 545 570 514 503
73 3 2 1 1 561 572 516 446
74 3 2 1 1 597 550 517 448
75 3 2 1 1 539 602 518 449
76 3 2 1 1 464 555 508 406
77 3 2 1 1 451 553 547 502
78 3 2 1 1 479 529 452 402
79 3 2 1 1 454 548 501 465
80 3 2 1 1 527 531 456 442
81 3 2 1 1 494 532 457 400
82 3 2 1 1 496 533 458 404
83 3 2 1 1 495 563 459 484
84 3 2 1 1 459 563 511 401
85 3 2 1 1 528 534 460 443
86 3 2 1 1 462 406 508 509
87 3 2 1 1 464 405 499 555
88 3 2 1 1 478 479 388 425
89 3 2 1 1 467 558 499 405
90 3 2 1 1 518 558 467 434
91 3 2 1 1 493 564 468 399
92 3 2 1 1 468 564 504 412
93 3 2 1 1 515 519 471 431
94 3 2 1 1 516 521 472 432
95 3 2 1 1 517 525 473 433
96 3 2 1 1 474 512 480 440
97 3 2 1 1 565 510 477 476
98 3 2 1 1 512 566 478 480
99 3 2 1 1 478 566 529 479
100 3 2 1 1 360 392 316 267
101 3 2 1 1 353 236 305 419
102 3 2 1 1 346 228 306 417
103 3 2 1 1 368 417 306 249
104 3 2 1 1 371 367 307 334
105 3 2 1 1 308 269 355 373
106 3 2 1 1 310 393 356 254
107 3 2 1 1 375 428 311 229
108 3 2 1 1 311 428 380 257
109 3 2 1 1 333 395 312 258
110 3 2 1 1 357 390 313 261
111 3 2 1 1 358 391 314 263
112 3 2 1 1 359 372 315 265
113 3 2 1 1 298 427 395 333
114 3 2 1 1 334 245 318 371
115 3 2 1 1 318 239 366 371
116 3 2 1 1 378 429 319 235
117 3 2 1 1 319 429 381 271
118 3 2 1 1 320 228 346 420
119 3 2 1 1 382 273 320 420
120 3 2 1 1 347 377 322 275
121 3 2 1 1 323 430 347 275
122 3 2 1 1 374 430 323 225
123 3 2 1 1 327 361 423 278
124 3 2 1 1 349 389 331 243
125 3 2 1 1 289 468 412 397
126 3 2 1 1 281 387 362 329
127 3 2 1 1 282 425 388 330
128 3 2 1 1 389 425 282 331
129 3 2 1 1 283 245 334 248
130 3 2 1 1 313 390 284 221
131 3 2 1 1 314 391 285 222
132 3 2 1 1 286 223 315 372
133 3 2 1 1 316 392 287 224
134 3 2 1 1 288 226 326 385
135 3 2 1 1 328 386 289 227
136 3 2 1 1 399 468 289 386
137 3 2 1 1 332 381 349 243
138 3 2 1 1 290 393 310 230
139 3 2 1 1 290 426 411 393
140 3 2 1 1 291 469 403 375
141 3 2 1 1 408 469 291 394
142 3 2 1 1 330 388 292 232
143 3 2 1 1 308 373 293 234
144 3 2 1 1 405 464 293 373
145 3 2 1 1 293 464 406 370
146 3 2 1 1 312 395 296 237
147 3 2 1 1 321 376 297 238
148 3 2 1 1 409 413 297 376
149 3 2 1 1 407 474 378 295
150 3 2 1 1 357 471 435 390
151 3 2 1 1 432 472 358 337
152 3 2 1 1 358 472 436 391
153 3 2 1 1 359 488 437 372
154 3 2 1 1 359 338 438 488
155 3 2 1 1 433 473 360 339
156 3 2 1 1 360 473 439 392
157 3 2 1 1 412 489 361 397
158 3 2 1 1 442 456 362 387
159 3 2 1 1 410 367 371 366
160 3 2 1 1 400 457 374 341
161 3 2 1 1 404 458 377 347
162 3 2 1 1 431 471 357 336
163 3 2 1 1 378 474 440 429
164 3 2 1 1 401 475 379 299
165 3 2 1 1 379 475 426 290
166 3 2 1 1 380 459 401 299
167 3 2 1 1 407 295 382 465
168 3 2 1 1 454 465 382 420
169 3 2 1 1 443 460 383 384
170 3 2 1 1 398 443 384 288
171 3 2 1 1 385 477 398 288
172 3 2 1 1 402 442 387 292
173 3 2 1 1 388 479 402 292
174 3 2 1 1 392 439 345 287
175 3 2 1 1 350 396 335 296
176 3 2 1 1 396 431 336 335
177 3 2 1 1 342 432 337 284
178 3 2 1 1 343 438 338 285
179 3 2 1 1 344 433 339 286
180 3 2 1 1 345 434 340 287
181 3 2 1 1 390 435 342 284
182 3 2 1 1 391 436 343 285
183 3 2 1 1 372 437 344 286
184 3 2 1 1 344 448 517 433
185 3 2 1 1 524 448 344 437
186 3 2 1 1 518 602 583 558
187 3 2 1 1 429 440 349 381
188 3 2 1 1 395 427 350 296
189 3 2 1 1 351 297 413 414
190 3 2 1 1 352 307 367 445
191 3 2 1 1 353 455 408 394
192 3 2 1 1 406 462 354 370
193 3 2 1 1 410 366 354 462
194 3 2 1 1 355 467 405 373
195 3 2 1 1 355 340 434 467
196 3 2 1 1 411 470 356 393
197 3 2 1 1 356 470 427 298
198 3 2 1 1 676 721 737 711
199 3 2 1 1 659 729 708 673
200 3 2 1 1 720 729 659 702
201 3 2 1 1 699 701 660 634
202 3 2 1 1 663 630 662 698
203 3 2 1 1 668 652 684 733
204 3 2 1 1 668 733 736 696
205 3 2 1 1 682 709 669 648
206 3 2 1 1 685 719 671 618
207 3 2 1 1 672 687 703 616
208 3 2 1 1 673 708 679 638
209 3 2 1 1 696 707 674 642
210 3 2 1 1 688 721 676 623
211 3 2 1 1 674 707 657 619
212 3 2 1 1 677 690 723 620
213 3 2 1 1 678 730 685 618
214 3 2 1 1 701 730 678 660
215 3 2 1 1 679 708 688 623
216 3 2 1 1 689 724 680 655
217 3 2 1 1 680 724 716 705
218 3 2 1 1 693 731 681 654
219 3 2 1 1 681 731 709 682
220 3 2 1 1 723 692 683 620
221 3 2 1 1 684 652 695 732
222 3 2 1 1 684 740 747 733
223 3 2 1 1 681 682 646 637
224 3 2 1 1 626 711 677 643
225 3 2 1 1 683 653 633 615
226 3 2 1 1 633 653 700 624
227 3 2 1 1 663 699 634 580
228 3 2 1 1 654 681 637 622
229 3 2 1 1 638 679 644 610
230 3 2 1 1 648 669 639 599
231 3 2 1 1 641 607 660 678
232 3 2 1 1 668 696 642 579
233 3 2 1 1 657 697 645 619
234 3 2 1 1 646 682 648 649
235 3 2 1 1 684 732 765 740
236 3 2 1 1 680 705 647 632
237 3 2 1 1 647 705 686 675
238 3 2 1 1 671 710 650 600
239 3 2 1 1 650 710 672 635
240 3 2 1 1 666 695 652 636
241 3 2 1 1 692 728 653 683
242 3 2 1 1 653 728 725 700
243 3 2 1 1 670 704 654 622
244 3 2 1 1 655 625 667 706
245 3 2 1 1 655 706 735 689
246 3 2 1 1 656 698 662 627
247 3 2 1 1 768 770 741 716
248 3 2 1 1 731 755 720 709
249 3 2 1 1 720 755 742 729
250 3 2 1 1 742 773 721 688
251 3 2 1 1 723 763 745 692
252 3 2 1 1 756 757 725 728
253 3 2 1 1 741 754 727 686
254 3 2 1 1 745 756 728 692
255 3 2 1 1 751 755 731 693
256 3 2 1 1 732 725 757 765
257 3 2 1 1 747 762 736 733
258 3 2 1 1 772 766 740 765
259 3 2 1 1 776 747 740 766
260 3 2 1 1 719 769 752 734
261 3 2 1 1 751 773 742 755
262 3 2 1 1 770 768 745 763
263 3 2 1 1 747 776 767 762
264 3 2 1 1 754 771 750 717
265 3 2 1 1 757 756 753 743
266 3 2 1 1 770 771 754 741
267 3 2 1 1 768 753 756 745
268 3 2 1 1 772 765 757 743
269 3 2 1 1 759 766 772 735
270 3 2 1 1 776 766 759 715
271 3 2 1 1 767 777 761 762
272 3 2 1 1 700 725 732 695
273 3 2 1 1 716 741 686 705
274 3 2 1 1 710 734 687 672
275 3 2 1 1 729 742 688 708
276 3 2 1 1 689 743 753 724
277 3 2 1 1 689 735 772 743
278 3 2 1 1 711 737 690 677
279 3 2 1 1 691 722 698 656
280 3 2 1 1 704 717 693 654
281 3 2 1 1 750 751 693 717
282 3 2 1 1 697 657 714 726
283 3 2 1 1 698 722 699 663
284 3 2 1 1 676 711 626 614
285 3 2 1 1 709 720 702 669
286 3 2 1 1 715 759 703 687
287 3 2 1 1 759 735 706 703
288 3 2 1 1 707 749 714 657
289 3 2 1 1 707 696 736 749
290 3 2 1 1 719 734 710 671
291 3 2 1 1 734 752 715 687
292 3 2 1 1 715 752 767 776
293 3 2 1 1 753 768 716 724
294 3 2 1 1 727 754 717 704
295 3 2 1 1 739 769 719 685
296 3 2 1 1 581 640 563 495
297 3 2 1 1 547 594 556 502
298 3 2 1 1 548 593 584 501
299 3 2 1 1 549 612 560 505
300 3 2 1 1 625 632 551 598
301 3 2 1 1 586 611 552 533
302 3 2 1 1 556 594 593 548
303 3 2 1 1 557 613 566 512
304 3 2 1 1 584 613 557 501
305 3 2 1 1 559 639 581 495
306 3 2 1 1 599 639 559 497
307 3 2 1 1 560 612 599 497
308 3 2 1 1 582 614 561 543
309 3 2 1 1 545 638 610 570
310 3 2 1 1 563 640 601 511
311 3 2 1 1 577 600 564 493
312 3 2 1 1 566 613 606 529
313 3 2 1 1 567 641 577 493
314 3 2 1 1 607 641 567 531
315 3 2 1 1 587 608 568 534
316 3 2 1 1 585 609 569 532
317 3 2 1 1 570 610 571 498
318 3 2 1 1 614 626 572 561
319 3 2 1 1 615 633 573 562
320 3 2 1 1 573 633 624 595
321 3 2 1 1 575 607 531 527
322 3 2 1 1 519 603 543 520
323 3 2 1 1 571 603 519 515
324 3 2 1 1 521 604 537 522
325 3 2 1 1 572 604 521 516
326 3 2 1 1 538 524 523 595
327 3 2 1 1 550 574 525 517
328 3 2 1 1 526 605 539 449
329 3 2 1 1 574 605 526 525
330 3 2 1 1 542 575 527 452
331 3 2 1 1 598 551 528 450
332 3 2 1 1 529 606 542 452
333 3 2 1 1 579 642 574 550
334 3 2 1 1 532 494 541 585
335 3 2 1 1 544 586 533 496
336 3 2 1 1 551 587 534 528
337 3 2 1 1 535 635 596 565
338 3 2 1 1 536 573 595 523
339 3 2 1 1 537 578 615 562
340 3 2 1 1 538 666 636 597
341 3 2 1 1 540 510 565 596
342 3 2 1 1 568 608 541 494
343 3 2 1 1 569 609 544 496
344 3 2 1 1 622 637 544 609
345 3 2 1 1 611 649 612 549
346 3 2 1 1 667 625 598 540
347 3 2 1 1 618 671 600 577
348 3 2 1 1 601 673 638 545
349 3 2 1 1 659 673 601 640
350 3 2 1 1 619 645 602 539
351 3 2 1 1 610 644 603 571
352 3 2 1 1 626 643 604 572
353 3 2 1 1 605 674 619 539
354 3 2 1 1 642 674 605 574
355 3 2 1 1 607 575 634 660
356 3 2 1 1 608 675 617 541
357 3 2 1 1 647 675 608 587
358 3 2 1 1 596 635 672 616
359 3 2 1 1 646 649 611 586
360 3 2 1 1 612 649 648 599
361 3 2 1 1 623 676 614 582
362 3 2 1 1 616 703 706 667
363 3 2 1 1 686 727 617 675
364 3 2 1 1 617 727 704 670
365 3 2 1 1 641 678 618 577
366 3 2 1 1 621 712 691 656
367 3 2 1 1 644 679 623 582
368 3 2 1 1 624 700 695 666
369 3 2 1 1 625 655 680 632
370 3 2 1 1 645 658 583 602
371 3 2 1 1 575 542 580 634
372 3 2 1 1 604 643 578 537
373 3 2 1 1 677 620 578 643
374 3 2 1 1 683 615 578 620
375 3 2 1 1 597 636 579 550
376 3 2 1 1 652 668 579 636
377 3 2 1 1 580 542 606 629
378 3 2 1 1 630 663 580 629
379 3 2 1 1 581 702 659 640
380 3 2 1 1 669 702 581 639
381 3 2 1 1 603 644 582 543
382 3 2 1 1 242 252 9 10
383 3 2 1 1 606 613 584 629
384 3 2 1 1 617 670 585 541
385 3 2 1 1 585 670 622 609
386 3 2 1 1 637 646 586 544
387 3 2 1 1 632 647 587 551
388 3 2 1 1 589 651 628 546
389 3 2 1 1 656 627 590 621
390 3 2 1 1 592 664 621 590
391 3 2 1 1 593 630 629 584
392 3 2 1 1 595 624 666 538
393 3 2 1 1 596 616 667 540
395 3 2 1 1 334 307 241 248
396 3 2 1 1 241 307 352 303
397 3 2 1 1 339 360 267 266
398 3 2 1 1 101 330 232 100
400 3 2 1 1 77 78 274 304
401 3 2 1 1 282 330 101 102
402 3 2 1 1 250 229 19 20
403 3 2 1 1 244 76 77 304
404 3 2 1 1 243 331 103 104
405 3 2 1 1 103 331 282 102
406 3 2 1 1 232 281 99 100
407 3 2 1 1 105 332 243 104
408 3 2 1 1 246 332 105 106
409 3 2 1 1 236 22 23 305
410 3 2 1 1 337 358 263 262
411 3 2 1 1 242 333 258 252
413 3 2 1 1 284 337 262 221
414 3 2 1 1 298 333 242 253
416 3 2 1 1 58 246 106 4
417 3 2 1 1 98 329 280 97
418 3 2 1 1 280 328 96 97
419 3 2 1 1 80 321 238 79
420 3 2 1 1 274 238 297 351
421 3 2 1 1 231 321 80 81
422 3 2 1 1 273 382 295 272
426 3 2 1 1 17 257 256 16
427 3 2 1 1 271 381 332 246
428 3 2 1 1 336 357 261 260
430 3 2 1 1 270 370 354 317
431 3 2 1 1 78 79 238 274
432 3 2 1 1 229 311 18 19
433 3 2 1 1 293 370 270 234
434 3 2 1 1 18 311 257 17
435 3 2 1 1 281 329 98 99
436 3 2 1 1 340 355 269 268
438 3 2 1 1 287 340 268 224
439 3 2 1 1 250 301 394 291
440 3 2 1 1 235 319 60 61
441 3 2 1 1 60 319 271 59
442 3 2 1 1 249 67 68 302
443 3 2 1 1 254 356 298 253
444 3 2 1 1 233 302 68 69
446 3 2 1 1 66 67 249 306
447 3 2 1 1 251 303 352 365
448 3 2 1 1 228 65 66 306
450 3 2 1 1 62 272 235 61
452 3 2 1 1 250 291 375 229
454 3 2 1 1 341 374 225 324
456 3 2 1 1 64 320 273 63
458 3 2 1 1 228 320 64 65
460 3 2 1 1 63 273 272 62
461 3 2 1 1 226 288 384 277
462 3 2 1 1 231 421 376 321
464 3 2 1 1 222 285 338 264
465 3 2 1 1 377 421 231 322
466 3 2 1 1 251 71 72 303
467 3 2 1 1 335 336 260 259
468 3 2 1 1 241 303 72 73
469 3 2 1 1 296 335 259 237
470 3 2 1 1 59 271 246 58
471 3 2 1 1 76 244 26 2
473 3 2 1 1 264 338 359 265
474 3 2 1 1 223 286 339 266
475 3 2 1 1 257 380 299 256
476 3 2 1 1 299 379 255 256
479 3 2 1 1 255 379 290 230
485 3 2 1 1 86 324 225 85
486 3 2 1 1 383 422 276 325
487 3 2 1 1 13 310 254 12
488 3 2 1 1 16 256 255 15
489 3 2 1 1 276 324 86 87
490 3 2 1 1 277 384 383 325
491 3 2 1 1 280 424 386 328
492 3 2 1 1 362 424 280 329
493 3 2 1 1 92 278 326 91
494 3 2 1 1 385 326 278 423
495 3 2 1 1 96 328 227 95
497 3 2 1 1 225 323 84 85
498 3 2 1 1 93 327 278 92
499 3 2 1 1 275 322 82 83
500 3 2 1 1 279 397 361 327
501 3 2 1 1 15 255 230 14
502 3 2 1 1 82 322 231 81
504 3 2 1 1 236 353 394 301
506 3 2 1 1 295 378 235 272
507 3 2 1 1 91 326 226 90
508 3 2 1 1 230 310 13 14
509 3 2 1 1 277 325 88 89
511 3 2 1 1 227 279 94 95
512 3 2 1 1 11 253 242 10
513 3 2 1 1 226 277 89 90
514 3 2 1 1 239 317 354 366
515 3 2 1 1 84 323 275 83
516 3 2 1 1 292 387 281 232
517 3 2 1 1 88 325 276 87
519 3 2 1 1 12 254 253 11
520 3 2 1 1 276 422 341 324
521 3 2 1 1 279 327 93 94
522 3 2 1 1 289 397 279 227
525 3 2 1 1 744 773 751 750
526 3 2 1 1 721 773 744 737
527 3 2 1 1 590 627 547 553
528 3 2 1 1 492 466 505 455
529 3 2 1 1 491 490 415 445
530 3 2 1 1 500 554 507 461
531 3 2 1 1 250 20 21 301
532 3 2 1 1 365 309 247 251
533 3 2 1 1 513 466 413 409
534 3 2 1 1 413 466 492 414
535 3 2 1 1 718 774 764 748
536 3 2 1 1 75 283 248 74
537 3 2 1 1 722 691 718 748
538 3 2 1 1 750 771 758 744
539 3 2 1 1 241 73 74 248
540 3 2 1 1 352 445 415 365
541 3 2 1 1 738 760 712 713
542 3 2 1 1 454 420 346 506
543 3 2 1 1 760 718 691 712
544 3 2 1 1 763 723 690 758
545 3 2 1 1 240 305 23 24
546 3 2 1 1 351 414 363 364
547 3 2 1 1 547 627 662 594
548 3 2 1 1 554 592 590 553
549 3 2 1 1 369 302 233 294
550 3 2 1 1 701 748 764 730
551 3 2 1 1 722 748 701 699
552 3 2 1 1 304 364 300 244
553 3 2 1 1 713 712 621 664
554 3 2 1 1 739 685 730 764
555 3 2 1 1 368 249 302 369
556 3 2 1 1 453 530 500 461
557 3 2 1 1 236 301 21 22
558 3 2 1 1 364 363 240 300
559 3 2 1 1 304 274 351 364
560 3 2 1 1 502 556 506 463
561 3 2 1 1 369 444 418 368
562 3 2 1 1 737 744 758 690
563 3 2 1 1 309 416 348 294
564 3 2 1 1 589 546 500 530
565 3 2 1 1 764 774 778 739
566 3 2 1 1 461 348 416 453
567 3 2 1 1 418 463 417 368
568 3 2 1 1 417 463 506 346
569 3 2 1 1 309 294 233 247
570 3 2 1 1 25 300 240 24
571 3 2 1 1 502 463 418 451
572 3 2 1 1 507 451 418 444
573 3 2 1 1 771 770 763 758
574 3 2 1 1 553 451 507 554
575 3 2 1 1 630 593 594 662
576 3 2 1 1 651 665 661 628
577 3 2 1 1 506 556 548 454
578 3 2 1 1 513 549 505 466
579 3 2 1 1 726 738 694 697
580 3 2 1 1 749 736 762 761
581 3 2 1 1 628 664 592 546
582 3 2 1 1 492 419 363 414
583 3 2 1 1 665 651 588 631
584 3 2 1 1 694 738 713 661
585 3 2 1 1 233 69 70 247
586 3 2 1 1 651 589 591 588
587 3 2 1 1 71 251 247 70
588 3 2 1 1 26 244 300 25
589 3 2 1 1 658 645 697 694
590 3 2 1 1 746 778 774 775
591 3 2 1 1 775 760 738 726
592 3 2 1 1 739 778 777 769
593 3 2 1 1 631 583 658 665
594 3 2 1 1 761 777 778 746
595 3 2 1 1 694 661 665 658
596 3 2 1 1 554 500 546 592
597 3 2 1 1 490 576 530 453
598 3 2 1 1 746 775 726 714
599 3 2 1 1 240 363 419 305
600 3 2 1 1 576 591 589 530
601 3 2 1 1 767 752 769 777
602 3 2 1 1 714 749 761 746
603 3 2 1 1 348 461 507 444
604 3 2 1 1 760 775 774 718
605 3 2 1 1 416 309 365 415
606 3 2 1 1 661 713 664 628
607 3 2 1 1 415 490 453 416
608 3 2 1 1 348 444 369 294
609 3 2 1 1 1318 1392 1332 1250
610 3 2 1 1 1016 1031 934 874
611 3 2 1 1 1328 1373 1359 1289
612 3 2 1 1 937 1008 1088 1089
613 3 2 1 1 1330 1377 1324 1323
614 3 2 1 1 938 1027 995 963
615 3 2 1 1 1350 1361 1322 1254
616 3 2 1 1 996 1069 939 961
617 3 2 1 1 939 1069 1052 1009
618 3 2 1 1 1321 1394 1350 1254
619 3 2 1 1 1320 1393 1360 1284
620 3 2 1 1 1329 1393 1320 1252
621 3 2 1 1 1319 1356 1349 1253
622 3 2 1 1 1012 855 942 1055
623 3 2 1 1 1355 1392 1318 1274
624 3 2 1 1 1328 1419 1402 1373
625 3 2 1 1 983 1070 944 868
626 3 2 1 1 1332 1347 1317 1250
627 3 2 1 1 1359 1391 1315 1281
628 3 2 1 1 987 1059 947 929
629 3 2 1 1 1315 1391 1346 1249
630 3 2 1 1 1313 1361 1336 1295
631 3 2 1 1 1322 1361 1313 1260
632 3 2 1 1 1119 1104 949 933
633 3 2 1 1 1311 1390 1357 1278
634 3 2 1 1 1331 1390 1311 1248
635 3 2 1 1 1310 1362 1397 1327
636 3 2 1 1 951 1120 1037 1021
637 3 2 1 1 1071 1120 951 1022
638 3 2 1 1 921 992 932 864
639 3 2 1 1 942 852 916 1001
640 3 2 1 1 1396 1421 1348 1349
641 3 2 1 1 1037 1142 917 1021
642 3 2 1 1 917 1142 1049 1034
643 3 2 1 1 1348 1421 1374 1331
644 3 2 1 1 1395 1396 1347 1332
645 3 2 1 1 1347 1396 1349 1356
646 3 2 1 1 918 1003 1035 1114
647 3 2 1 1 1046 1006 918 1114
648 3 2 1 1 919 994 952 862
649 3 2 1 1 1346 1408 1379 1335
650 3 2 1 1 1385 1417 1345 1344
651 3 2 1 1 920 1118 1044 1025
652 3 2 1 1 1065 1118 920 1026
653 3 2 1 1 1309 1429 1397 1362
654 3 2 1 1 1365 1385 1344 1327
655 3 2 1 1 1029 1066 922 959
656 3 2 1 1 1342 1294 1366 1420
657 3 2 1 1 1030 1047 923 967
658 3 2 1 1 1369 1291 1341 1384
659 3 2 1 1 1048 1067 924 1023
660 3 2 1 1 1338 1414 1378 1298
661 3 2 1 1 1350 1368 1336 1361
662 3 2 1 1 979 858 928 1002
663 3 2 1 1 1070 1002 928 944
664 3 2 1 1 1056 987 929 866
665 3 2 1 1 930 1057 982 946
666 3 2 1 1 980 1068 931 969
667 3 2 1 1 1284 1360 1321 1243
668 3 2 1 1 971 1077 986 863
669 3 2 1 1 1031 1077 971 934
670 3 2 1 1 972 1033 1032 956
671 3 2 1 1 1292 1411 1429 1309
672 3 2 1 1 1061 977 974 1007
673 3 2 1 1 974 977 1087 857
674 3 2 1 1 992 1015 975 932
675 3 2 1 1 1372 1411 1292 1351
676 3 2 1 1 979 1091 976 858
677 3 2 1 1 1367 1387 1290 1352
678 3 2 1 1 1314 1352 1290 1247
679 3 2 1 1 980 1175 1093 1068
680 3 2 1 1 1121 1175 980 1063
681 3 2 1 1 1309 1362 1285 1202
682 3 2 1 1 1005 861 970 1062
683 3 2 1 1 982 1169 1102 1056
684 3 2 1 1 1289 1359 1281 1282
685 3 2 1 1 1335 1358 1279 1316
686 3 2 1 1 1279 1358 1299 1210
687 3 2 1 1 1278 1357 1307 1198
688 3 2 1 1 1347 1356 1275 1317
689 3 2 1 1 1275 1356 1319 1312
690 3 2 1 1 1290 1355 1274 1247
691 3 2 1 1 987 1056 1102 1111
692 3 2 1 1 1273 1257 1291 1353
693 3 2 1 1 1010 1078 988 953
694 3 2 1 1 1271 1381 1352 1314
695 3 2 1 1 1345 1381 1271 1301
696 3 2 1 1 1072 1073 960 991
697 3 2 1 1 1308 1389 1372 1351
698 3 2 1 1 1336 1389 1308 1295
699 3 2 1 1 990 1016 954 869
700 3 2 1 1 955 1033 972 873
701 3 2 1 1 1307 1388 1328 1289
702 3 2 1 1 1305 1348 1331 1248
703 3 2 1 1 957 1050 990 869
704 3 2 1 1 1304 1273 1353 1354
705 3 2 1 1 1342 1383 1303 1267
706 3 2 1 1 958 1051 1028 914
707 3 2 1 1 1303 1383 1330 1323
708 3 2 1 1 984 1029 959 867
709 3 2 1 1 960 1073 984 867
710 3 2 1 1 1384 1341 1302 1339
711 3 2 1 1 993 936 915 1006
712 3 2 1 1 1358 1339 1302 1299
713 3 2 1 1 986 1074 962 863
714 3 2 1 1 1344 1345 1301 1245
715 3 2 1 1 962 1074 1048 1023
716 3 2 1 1 1340 1382 1300 1269
717 3 2 1 1 1300 1382 1338 1265
718 3 2 1 1 965 1075 1013 856
719 3 2 1 1 966 1076 983 868
720 3 2 1 1 1298 1378 1329 1252
721 3 2 1 1 1044 1076 966 1025
722 3 2 1 1 1015 1030 967 871
723 3 2 1 1 1014 1017 968 859
724 3 2 1 1 970 936 993 1062
725 3 2 1 1 1383 1342 1420 1452
726 3 2 1 1 881 946 866 794
727 3 2 1 1 1391 1426 1408 1346
728 3 2 1 1 1390 1427 1409 1357
729 3 2 1 1 982 1056 866 946
730 3 2 1 1 889 960 867 792
731 3 2 1 1 1436 1454 1388 1409
732 3 2 1 1 1388 1454 1419 1328
733 3 2 1 1 1387 1453 1438 1422
734 3 2 1 1 868 944 880 791
735 3 2 1 1 1403 1453 1387 1367
736 3 2 1 1 1406 1446 1386 1369
737 3 2 1 1 1385 1444 1476 1417
738 3 2 1 1 870 781 909 948
739 3 2 1 1 1406 1369 1384 1418
740 3 2 1 1 1392 1410 1395 1332
741 3 2 1 1 1383 1452 1404 1330
742 3 2 1 1 1003 918 870 948
743 3 2 1 1 1416 1451 1382 1340
744 3 2 1 1 1382 1451 1414 1338
745 3 2 1 1 975 1015 871 913
746 3 2 1 1 1417 1407 1381 1345
747 3 2 1 1 1059 998 872 947
748 3 2 1 1 887 955 873 821
749 3 2 1 1 873 972 904 810
750 3 2 1 1 1379 1418 1384 1339
751 3 2 1 1 898 973 874 806
752 3 2 1 1 954 1016 874 973
753 3 2 1 1 1378 1442 1401 1329
754 3 2 1 1 1403 1504 1467 1453
755 3 2 1 1 1448 1487 1411 1372
756 3 2 1 1 855 820 852 942
757 3 2 1 1 1438 1449 1410 1422
758 3 2 1 1 1439 1447 1408 1426
759 3 2 1 1 1408 1447 1418 1379
760 3 2 1 1 908 937 854 808
761 3 2 1 1 1476 1445 1407 1417
762 3 2 1 1 1447 1479 1406 1418
763 3 2 1 1 989 950 855 1012
764 3 2 1 1 1405 1437 1425 1368
765 3 2 1 1 856 1013 981 964
766 3 2 1 1 1423 1457 1405 1394
767 3 2 1 1 857 804 891 974
768 3 2 1 1 857 1087 996 961
769 3 2 1 1 1375 1440 1488 1430
770 3 2 1 1 1464 1504 1403 1445
771 3 2 1 1 1407 1445 1403 1367
772 3 2 1 1 906 953 859 807
773 3 2 1 1 1402 1439 1426 1373
774 3 2 1 1 988 1014 859 953
775 3 2 1 1 910 970 861 788
776 3 2 1 1 1398 1354 1415 1460
777 3 2 1 1 861 1005 1057 930
778 3 2 1 1 897 971 863 795
779 3 2 1 1 1449 1456 1395 1410
780 3 2 1 1 1395 1456 1421 1396
781 3 2 1 1 1393 1455 1423 1360
782 3 2 1 1 1401 1455 1393 1329
783 3 2 1 1 956 1026 903 801
784 3 2 1 1 962 1023 896 828
785 3 2 1 1 1366 1433 1473 1420
786 3 2 1 1 934 971 897 829
787 3 2 1 1 1365 1400 1444 1385
788 3 2 1 1 1365 1424 1435 1400
789 3 2 1 1 899 975 913 831
790 3 2 1 1 1397 1424 1365 1327
791 3 2 1 1 912 938 900 786
792 3 2 1 1 901 1024 965 837
793 3 2 1 1 976 1024 901 783
794 3 2 1 1 920 1025 902 796
795 3 2 1 1 902 1025 966 839
796 3 2 1 1 1360 1423 1394 1321
797 3 2 1 1 903 1026 920 796
798 3 2 1 1 896 1023 924 827
799 3 2 1 1 904 972 956 801
800 3 2 1 1 1358 1335 1379 1339
801 3 2 1 1 935 948 909 845
802 3 2 1 1 1357 1409 1388 1307
803 3 2 1 1 936 970 910 847
804 3 2 1 1 1355 1422 1410 1392
805 3 2 1 1 1387 1422 1355 1290
806 3 2 1 1 981 1064 912 964
807 3 2 1 1 912 1064 1027 938
808 3 2 1 1 1386 1415 1354 1353
809 3 2 1 1 914 1028 919 862
810 3 2 1 1 1369 1386 1353 1291
811 3 2 1 1 918 1006 915 870
812 3 2 1 1 950 1020 886 782
813 3 2 1 1 875 1063 980 969
814 3 2 1 1 1017 1063 875 968
815 3 2 1 1 1374 1427 1390 1331
816 3 2 1 1 1373 1426 1391 1359
817 3 2 1 1 880 944 928 853
818 3 2 1 1 1425 1448 1372 1389
819 3 2 1 1 882 850 943 877
820 3 2 1 1 883 1018 921 864
821 3 2 1 1 995 1018 883 963
822 3 2 1 1 884 973 898 811
823 3 2 1 1 954 973 884 799
824 3 2 1 1 952 1019 885 789
825 3 2 1 1 885 1019 957 816
826 3 2 1 1 1302 1341 1270 1201
827 3 2 1 1 886 1020 958 819
828 3 2 1 1 1394 1405 1368 1350
829 3 2 1 1 1368 1425 1389 1336
830 3 2 1 1 933 949 892 826
831 3 2 1 1 892 949 1007 779
832 3 2 1 1 917 1034 893 805
833 3 2 1 1 893 1034 933 826
834 3 2 1 1 894 1021 917 805
835 3 2 1 1 951 1021 894 787
836 3 2 1 1 1381 1407 1367 1352
837 3 2 1 1 924 1022 895 827
838 3 2 1 1 895 1022 951 787
839 3 2 1 1 1488 1433 1366 1430
840 3 2 1 1 1256 1218 1168 1277
841 3 2 1 1 1202 1285 1179 1160
842 3 2 1 1 1108 1135 1081 1045
843 3 2 1 1 1177 1278 1198 1150
844 3 2 1 1 1122 1184 1082 994
845 3 2 1 1 1082 1184 1137 1050
846 3 2 1 1 1083 1141 1108 1045
847 3 2 1 1 1199 1259 1176 1182
848 3 2 1 1 1175 1121 1205 1238
849 3 2 1 1 1084 1185 1141 1083
850 3 2 1 1 1087 1173 1099 996
851 3 2 1 1 1115 1173 1087 977
852 3 2 1 1 1170 1268 1216 1094
853 3 2 1 1 1093 1146 1088 1068
854 3 2 1 1 1146 1195 1089 1088
855 3 2 1 1 1079 1145 1144 1051
856 3 2 1 1 1101 978 1090 1194
857 3 2 1 1 1196 1277 1168 1147
858 3 2 1 1 1104 1186 1092 1061
859 3 2 1 1 1167 1265 1215 1110
860 3 2 1 1 1211 1146 1093 1151
861 3 2 1 1 1163 1236 1228 1125
862 3 2 1 1 1095 1272 1199 1182
863 3 2 1 1 1224 1272 1095 1178
864 3 2 1 1 1162 1241 1233 1134
865 3 2 1 1 1159 1276 1260 1234
866 3 2 1 1 1240 1276 1159 1191
867 3 2 1 1 1158 1267 1303 1217
868 3 2 1 1 1158 1218 1256 1267
869 3 2 1 1 1095 1182 1071 1067
870 3 2 1 1 1061 1092 1115 977
871 3 2 1 1 1064 1131 1106 1027
872 3 2 1 1 1243 1192 1193 1284
873 3 2 1 1 1192 1243 1200 1155
874 3 2 1 1 1128 1180 1066 1029
875 3 2 1 1 1066 1180 1130 1085
876 3 2 1 1 1257 1205 1190 1270
877 3 2 1 1 1201 1270 1190 1172
878 3 2 1 1 1189 1280 1241 1162
879 3 2 1 1 1099 1138 1069 996
880 3 2 1 1 1229 1280 1189 1129
881 3 2 1 1 1096 1181 1070 983
882 3 2 1 1 1070 1181 1124 1002
883 3 2 1 1 1188 1237 1236 1163
884 3 2 1 1 1099 1226 1152 1138
885 3 2 1 1 1071 1182 1176 1120
886 3 2 1 1 1187 1279 1210 1185
887 3 2 1 1 1072 1183 1133 1073
888 3 2 1 1 1139 1183 1072 1052
889 3 2 1 1 1097 1136 1074 986
890 3 2 1 1 1075 1163 1125 1013
891 3 2 1 1 1206 1240 1184 1122
892 3 2 1 1 1184 1240 1191 1137
893 3 2 1 1 1076 1134 1096 983
894 3 2 1 1 1181 1239 1207 1124
895 3 2 1 1 1080 1140 1077 1031
896 3 2 1 1 1077 1140 1097 986
897 3 2 1 1 1208 1229 1180 1128
898 3 2 1 1 1124 1207 1177 1038
899 3 2 1 1 1115 1220 1225 1173
900 3 2 1 1 1167 1055 1117 1221
901 3 2 1 1 1171 1221 1117 1058
902 3 2 1 1 1142 1160 1179 1049
903 3 2 1 1 1129 1189 1118 1065
904 3 2 1 1 1118 1189 1162 1044
905 3 2 1 1 1119 1227 1186 1104
906 3 2 1 1 1210 1219 1141 1185
907 3 2 1 1 1174 1108 1141 1219
908 3 2 1 1 1140 1191 1159 1097
909 3 2 1 1 1139 1235 1231 1183
910 3 2 1 1 1121 1126 1190 1205
911 3 2 1 1 1152 1235 1139 1138
912 3 2 1 1 1155 1206 1122 1039
913 3 2 1 1 1143 1192 1155 1039
914 3 2 1 1 1137 1191 1140 1080
915 3 2 1 1 1136 1234 1224 1178
916 3 2 1 1 1125 1228 1153 1040
917 3 2 1 1 1159 1234 1136 1097
918 3 2 1 1 1126 1086 1172 1190
919 3 2 1 1 1127 1188 1163 1075
920 3 2 1 1 1134 1233 1154 1096
921 3 2 1 1 1156 1208 1128 1042
922 3 2 1 1 1231 1232 1133 1183
923 3 2 1 1 1133 1232 1156 1042
924 3 2 1 1 1131 1230 1187 1106
925 3 2 1 1 1180 1229 1129 1130
926 3 2 1 1 1153 1230 1131 1040
927 3 2 1 1 1107 1188 1127 1091
928 3 2 1 1 1225 1226 1099 1173
929 3 2 1 1 1100 1041 1132 1174
930 3 2 1 1 1100 1266 1201 1172
931 3 2 1 1 1219 1266 1100 1174
932 3 2 1 1 1253 1305 1154 1233
933 3 2 1 1 1154 1305 1248 1239
934 3 2 1 1 1286 1197 1101 1194
935 3 2 1 1 1154 1239 1181 1096
936 3 2 1 1 1247 1274 1152 1226
937 3 2 1 1 1273 1304 1151 1238
938 3 2 1 1 1151 1304 1246 1211
939 3 2 1 1 1175 1238 1151 1093
940 3 2 1 1 1106 1187 1185 1084
941 3 2 1 1 1150 1237 1188 1107
942 3 2 1 1 1196 1306 1343 1277
943 3 2 1 1 1108 1174 1132 1135
944 3 2 1 1 1148 1301 1271 1220
945 3 2 1 1 1245 1301 1148 1209
946 3 2 1 1 1186 1209 1148 1092
947 3 2 1 1 1110 1215 1149 1036
948 3 2 1 1 1145 1242 1193 1144
949 3 2 1 1 1149 1242 1145 1036
950 3 2 1 1 1112 1158 1217 1113
951 3 2 1 1 1144 1193 1192 1143
952 3 2 1 1 1113 1217 1268 1170
953 3 2 1 1 1114 1035 1147 1168
954 3 2 1 1 1114 1168 1218 1046
955 3 2 1 1 1148 1220 1115 1092
956 3 2 1 1 1252 1320 1242 1149
957 3 2 1 1 1011 1085 1033 955
958 3 2 1 1 1066 1085 1011 922
959 3 2 1 1 1012 1110 1036 989
960 3 2 1 1 1013 1125 1040 981
961 3 2 1 1 1246 1304 1354 1398
962 3 2 1 1 1041 1086 1014 988
963 3 2 1 1 1327 1344 1245 1310
964 3 2 1 1 1086 1126 1017 1014
965 3 2 1 1 1017 1126 1121 1063
966 3 2 1 1 1018 1083 1045 921
967 3 2 1 1 1019 1082 1050 957
968 3 2 1 1 1243 1321 1254 1200
969 3 2 1 1 1020 1079 1051 958
970 3 2 1 1 1242 1320 1284 1193
971 3 2 1 1 1047 1078 1010 923
972 3 2 1 1 1067 1071 1022 924
973 3 2 1 1 1312 1319 1241 1280
974 3 2 1 1 1241 1319 1253 1233
975 3 2 1 1 1024 1127 1075 965
976 3 2 1 1 1091 1127 1024 976
977 3 2 1 1 1258 1276 1240 1206
978 3 2 1 1 1032 1065 1026 956
979 3 2 1 1 1257 1273 1238 1205
980 3 2 1 1 1237 1282 1281 1236
981 3 2 1 1 1027 1106 1084 995
982 3 2 1 1 1028 1143 1039 919
983 3 2 1 1 1274 1318 1235 1152
984 3 2 1 1 1235 1318 1250 1231
985 3 2 1 1 1308 1351 1259 1199
986 3 2 1 1 989 1079 1020 950
987 3 2 1 1 1270 1341 1291 1257
988 3 2 1 1 1266 1299 1302 1201
989 3 2 1 1 990 1080 1031 1016
990 3 2 1 1 1265 1338 1298 1215
991 3 2 1 1 1052 1072 991 1009
992 3 2 1 1 992 1081 1030 1015
993 3 2 1 1 1045 1081 992 921
994 3 2 1 1 993 1006 1046 1112
995 3 2 1 1 1362 1310 1261 1285
996 3 2 1 1 993 1112 1113 1062
997 3 2 1 1 994 1082 1019 952
998 3 2 1 1 994 919 1039 1122
999 3 2 1 1 995 1084 1083 1018
1000 3 2 1 1 1042 1128 1029 984
1001 3 2 1 1 1259 1351 1292 1283
1002 3 2 1 1 1258 1322 1260 1276
1003 3 2 1 1 1343 1294 1256 1277
1004 3 2 1 1 1256 1294 1342 1267
1005 3 2 1 1 1001 1117 1055 942
1006 3 2 1 1 1058 1117 1001 941
1007 3 2 1 1 1002 1124 1038 979
1008 3 2 1 1 1258 1200 1254 1322
1009 3 2 1 1 1253 1349 1348 1305
1010 3 2 1 1 1113 1170 1005 1062
1011 3 2 1 1 1007 949 1104 1061
1012 3 2 1 1 1068 1088 1008 931
1013 3 2 1 1 1249 1346 1335 1316
1014 3 2 1 1 1292 1309 1202 1283
1015 3 2 1 1 1073 1133 1042 984
1016 3 2 1 1 1210 1299 1266 1219
1017 3 2 1 1 1044 1162 1134 1076
1018 3 2 1 1 1209 1261 1310 1245
1019 3 2 1 1 1227 1261 1209 1186
1020 3 2 1 1 1208 1312 1280 1229
1021 3 2 1 1 1275 1312 1208 1156
1022 3 2 1 1 1207 1311 1278 1177
1023 3 2 1 1 1046 1218 1158 1112
1024 3 2 1 1 1248 1311 1207 1239
1025 3 2 1 1 1081 1135 1047 1030
1026 3 2 1 1 1047 1135 1132 1078
1027 3 2 1 1 1048 1178 1095 1067
1028 3 2 1 1 1136 1178 1048 1074
1029 3 2 1 1 1172 1086 1041 1100
1030 3 2 1 1 1049 1179 1227 1119
1031 3 2 1 1 1050 1137 1080 990
1032 3 2 1 1 1223 1283 1202 1160
1033 3 2 1 1 1051 1144 1143 1028
1034 3 2 1 1 1138 1139 1052 1069
1035 3 2 1 1 1200 1258 1206 1155
1036 3 2 1 1 1295 1308 1199 1272
1037 3 2 1 1 1055 1167 1110 1012
1038 3 2 1 1 1198 1307 1289 1282
1039 3 2 1 1 1198 1282 1237 1150
1040 3 2 1 1 1057 1094 1169 982
1041 3 2 1 1 1170 1094 1057 1005
1042 3 2 1 1 1111 1166 1059 987
1043 3 2 1 1 1260 1313 1224 1234
1044 3 2 1 1 1232 1317 1275 1156
1045 3 2 1 1 1250 1317 1232 1231
1046 3 2 1 1 1230 1316 1279 1187
1047 3 2 1 1 1249 1316 1230 1153
1048 3 2 1 1 1085 1130 1032 1033
1049 3 2 1 1 1032 1130 1129 1065
1050 3 2 1 1 1281 1315 1228 1236
1051 3 2 1 1 1228 1315 1249 1153
1052 3 2 1 1 1285 1261 1227 1179
1053 3 2 1 1 1119 933 1034 1049
1054 3 2 1 1 1225 1314 1247 1226
1055 3 2 1 1 1224 1313 1295 1272
1056 3 2 1 1 1036 1145 1079 989
1057 3 2 1 1 107 811 163 5
1058 3 2 1 1 1259 1283 1223 1176
1059 3 2 1 1 1269 1300 1221 1171
1060 3 2 1 1 1037 1223 1160 1142
1061 3 2 1 1 1176 1223 1037 1120
1062 3 2 1 1 1265 1167 1221 1300
1063 3 2 1 1 1038 1107 1091 979
1064 3 2 1 1 1220 1271 1314 1225
1065 3 2 1 1 1038 1177 1150 1107
1066 3 2 1 1 1217 1303 1323 1268
1067 3 2 1 1 1040 1131 1064 981
1068 3 2 1 1 1323 1324 1216 1268
1069 3 2 1 1 1078 1132 1041 988
1070 3 2 1 1 1215 1298 1252 1149
1071 3 2 1 1 1581 1573 1534 1566
1072 3 2 1 1 803 872 943 850
1074 3 2 1 1 803 911 947 872
1075 3 2 1 1 1534 1573 1583 1558
1076 3 2 1 1 792 823 138 139
1078 3 2 1 1 168 832 797 167
1079 3 2 1 1 1466 1519 1493 1486
1081 3 2 1 1 797 899 166 167
1082 3 2 1 1 823 888 137 138
1084 3 2 1 1 137 888 800 136
1085 3 2 1 1 1464 1542 1526 1504
1086 3 2 1 1 169 833 832 168
1087 3 2 1 1 1553 1574 1514 1540
1089 3 2 1 1 1563 1577 1555 1533
1091 3 2 1 1 143 890 785 142
1092 3 2 1 1 1549 1557 1536 1525
1093 3 2 1 1 831 830 164 165
1094 3 2 1 1 1502 1521 1469 1446
1096 3 2 1 1 785 824 141 142
1097 3 2 1 1 831 913 802 830
1098 3 2 1 1 899 831 165 166
1099 3 2 1 1 1476 1503 1464 1445
1100 3 2 1 1 1468 1510 1487 1448
1101 3 2 1 1 802 913 871 840
1102 3 2 1 1 1482 1494 1468 1437
1104 3 2 1 1 824 889 140 141
1105 3 2 1 1 140 889 792 139
1106 3 2 1 1 1523 1550 1511 1500
1108 3 2 1 1 1449 1484 1450 1456
1109 3 2 1 1 1515 1552 1566 1534
1110 3 2 1 1 1475 1506 1451 1416
1111 3 2 1 1 1451 1506 1474 1414
1112 3 2 1 1 171 900 834 170
1113 3 2 1 1 1582 1570 1556 1574
1115 3 2 1 1 1483 1484 1449 1438
1116 3 2 1 1 1557 1577 1563 1536
1117 3 2 1 1 786 900 171 172
1118 3 2 1 1 816 957 869 815
1120 3 2 1 1 1471 1479 1447 1439
1121 3 2 1 1 1516 1533 1541 1490
1122 3 2 1 1 1479 1502 1446 1406
1124 3 2 1 1 818 914 862 817
1125 3 2 1 1 819 958 914 818
1126 3 2 1 1 821 873 810 822
1127 3 2 1 1 135 887 821 134
1129 3 2 1 1 1463 1525 1508 1485
1130 3 2 1 1 800 887 135 136
1131 3 2 1 1 1556 1542 1514 1574
1133 3 2 1 1 1481 1507 1462 1435
1134 3 2 1 1 170 834 833 169
1135 3 2 1 1 800 1011 955 887
1136 3 2 1 1 821 822 133 134
1137 3 2 1 1 1515 1534 1558 1523
1139 3 2 1 1 133 822 189 7
1141 3 2 1 1 1463 1485 1455 1401
1142 3 2 1 1 1455 1485 1457 1423
1144 3 2 1 1 1492 1543 1521 1502
1145 3 2 1 1 154 895 787 153
1146 3 2 1 1 1494 1528 1510 1468
1147 3 2 1 1 1508 1520 1494 1482
1148 3 2 1 1 152 894 805 151
1149 3 2 1 1 787 894 152 153
1150 3 2 1 1 1493 1544 1535 1524
1151 3 2 1 1 1501 1549 1525 1463
1152 3 2 1 1 162 898 806 161
1153 3 2 1 1 1535 1543 1492 1524
1154 3 2 1 1 806 829 160 161
1155 3 2 1 1 862 952 789 817
1156 3 2 1 1 150 893 826 149
1157 3 2 1 1 811 898 162 163
1158 3 2 1 1 780 1008 937 908
1159 3 2 1 1 805 893 150 151
1160 3 2 1 1 149 826 892 148
1161 3 2 1 1 931 1008 780 907
1162 3 2 1 1 1507 1516 1490 1462
1163 3 2 1 1 156 896 827 155
1164 3 2 1 1 1555 1572 1541 1533
1165 3 2 1 1 1504 1526 1498 1467
1166 3 2 1 1 795 828 157 158
1167 3 2 1 1 1497 1540 1514 1503
1168 3 2 1 1 828 896 156 157
1169 3 2 1 1 159 897 795 158
1170 3 2 1 1 1545 1546 1498 1526
1171 3 2 1 1 829 897 159 160
1172 3 2 1 1 1503 1514 1542 1464
1173 3 2 1 1 1541 1572 1568 1561
1174 3 2 1 1 1542 1556 1545 1526
1175 3 2 1 1 1001 916 784 941
1176 3 2 1 1 855 950 782 820
1177 3 2 1 1 827 895 154 155
1178 3 2 1 1 1496 1517 1506 1475
1179 3 2 1 1 939 1009 785 890
1180 3 2 1 1 785 1009 991 824
1181 3 2 1 1 1497 1503 1476 1444
1182 3 2 1 1 1506 1517 1522 1474
1183 3 2 1 1 1480 1509 1505 1436
1185 3 2 1 1 1484 1509 1480 1450
1186 3 2 1 1 1492 1502 1479 1471
1187 3 2 1 1 1478 1518 1540 1497
1188 3 2 1 1 1490 1518 1478 1462
1190 3 2 1 1 1481 1510 1528 1507
1191 3 2 1 1 797 932 975 899
1192 3 2 1 1 804 825 144 145
1193 3 2 1 1 1507 1528 1548 1516
1194 3 2 1 1 825 890 143 144
1196 3 2 1 1 869 954 799 815
1198 3 2 1 1 922 1011 800 888
1199 3 2 1 1 923 1010 793 905
1200 3 2 1 1 779 1007 974 891
1201 3 2 1 1 849 929 947 911
1202 3 2 1 1 1505 1547 1519 1466
1203 3 2 1 1 1545 1576 1562 1546
1204 3 2 1 1 1570 1576 1545 1556
1205 3 2 1 1 148 892 779 147
1207 3 2 1 1 1483 1527 1509 1484
1208 3 2 1 1 1458 1487 1510 1481
1209 3 2 1 1 793 1010 953 906
1210 3 2 1 1 1498 1527 1483 1467
1212 3 2 1 1 1527 1547 1505 1509
1213 3 2 1 1 146 891 804 145
1214 3 2 1 1 779 891 146 147
1215 3 2 1 1 1485 1508 1482 1457
1216 3 2 1 1 794 866 929 849
1217 3 2 1 1 783 901 176 177
1218 3 2 1 1 833 883 864 832
1219 3 2 1 1 784 916 121 122
1220 3 2 1 1 1563 1548 1520 1536
1221 3 2 1 1 174 836 835 173
1222 3 2 1 1 183 902 839 182
1224 3 2 1 1 832 864 932 797
1225 3 2 1 1 1466 1486 1419 1454
1226 3 2 1 1 1419 1486 1434 1402
1227 3 2 1 1 175 837 836 174
1228 3 2 1 1 182 839 791 181
1229 3 2 1 1 1520 1548 1528 1494
1230 3 2 1 1 1434 1471 1439 1402
1231 3 2 1 1 1434 1524 1492 1471
1232 3 2 1 1 1493 1524 1434 1486
1233 3 2 1 1 842 968 875 843
1234 3 2 1 1 176 901 837 175
1235 3 2 1 1 114 817 789 113
1236 3 2 1 1 1525 1536 1520 1508
1238 3 2 1 1 1458 1481 1435 1424
1239 3 2 1 1 122 123 813 784
1240 3 2 1 1 1546 1547 1527 1498
1241 3 2 1 1 1546 1562 1519 1547
1242 3 2 1 1 875 969 844 843
1243 3 2 1 1 112 885 816 111
1244 3 2 1 1 844 969 931 907
1245 3 2 1 1 124 814 813 123
1246 3 2 1 1 789 885 112 113
1247 3 2 1 1 1435 1462 1478 1400
1248 3 2 1 1 116 819 818 115
1249 3 2 1 1 119 820 782 118
1250 3 2 1 1 928 858 838 853
1251 3 2 1 1 1427 1480 1436 1409
1252 3 2 1 1 838 858 976 783
1253 3 2 1 1 839 966 868 791
1254 3 2 1 1 117 886 819 116
1255 3 2 1 1 1450 1480 1427 1374
1256 3 2 1 1 782 886 117 118
1257 3 2 1 1 1429 1458 1424 1397
1258 3 2 1 1 120 852 820 119
1259 3 2 1 1 837 965 856 836
1260 3 2 1 1 871 967 841 840
1261 3 2 1 1 801 903 185 186
1262 3 2 1 1 187 904 801 186
1263 3 2 1 1 835 964 912 786
1264 3 2 1 1 1478 1497 1444 1400
1265 3 2 1 1 903 796 184 185
1266 3 2 1 1 856 964 835 836
1267 3 2 1 1 810 904 187 188
1268 3 2 1 1 173 835 786 172
1269 3 2 1 1 841 967 923 905
1270 3 2 1 1 1421 1456 1450 1374
1271 3 2 1 1 938 963 834 900
1272 3 2 1 1 115 818 817 114
1273 3 2 1 1 1549 1501 1522 1560
1274 3 2 1 1 916 852 120 121
1275 3 2 1 1 184 796 902 183
1276 3 2 1 1 834 963 883 833
1277 3 2 1 1 189 822 810 188
1278 3 2 1 1 859 968 842 807
1279 3 2 1 1 111 816 815 110
1280 3 2 1 1 1457 1482 1437 1405
1281 3 2 1 1 791 880 180 181
1284 3 2 1 1 1553 1540 1518 1561
1285 3 2 1 1 1518 1490 1541 1561
1287 3 2 1 1 824 991 960 889
1288 3 2 1 1 861 930 848 788
1290 3 2 1 1 870 915 846 781
1291 3 2 1 1 108 884 811 107
1292 3 2 1 1 110 815 799 109
1293 3 2 1 1 915 936 847 846
1294 3 2 1 1 825 804 857 961
1295 3 2 1 1 853 838 178 179
1296 3 2 1 1 178 838 783 177
1297 3 2 1 1 825 961 939 890
1298 3 2 1 1 1414 1474 1442 1378
1299 3 2 1 1 1467 1483 1438 1453
1300 3 2 1 1 1522 1501 1442 1474
1302 3 2 1 1 874 934 829 806
1303 3 2 1 1 1466 1454 1436 1505
1304 3 2 1 1 1548 1563 1533 1516
1305 3 2 1 1 863 962 828 795
1306 3 2 1 1 854 935 845 808
1307 3 2 1 1 1411 1487 1458 1429
1308 3 2 1 1 853 179 180 880
1309 3 2 1 1 1519 1562 1544 1493
1310 3 2 1 1 1517 1539 1560 1522
1311 3 2 1 1 1578 1584 1581 1566
1312 3 2 1 1 1442 1501 1463 1401
1314 3 2 1 1 799 884 108 109
1315 3 2 1 1 1437 1468 1448 1425
1316 3 2 1 1 1446 1469 1415 1386
1317 3 2 1 1 867 959 823 792
1318 3 2 1 1 848 930 946 881
1319 3 2 1 1 823 959 922 888
1321 3 2 1 1 1102 1169 1214 1161
1322 3 2 1 1 1102 1161 1204 1111
1323 3 2 1 1 1169 1094 1216 1214
1324 3 2 1 1 1443 1475 1416 1370
1325 3 2 1 1 1370 1416 1340 1293
1326 3 2 1 1 1380 1428 1443 1370
1327 3 2 1 1 798 926 1000 879
1328 3 2 1 1 124 125 878 814
1329 3 2 1 1 1216 1324 1251 1214
1330 3 2 1 1 1251 1263 1161 1214
1331 3 2 1 1 1511 1512 1441 1470
1332 3 2 1 1 1529 1539 1517 1496
1333 3 2 1 1 1380 1370 1293 1363
1334 3 2 1 1 1512 1477 1459 1441
1335 3 2 1 1 860 978 1058 941
1336 3 2 1 1 1090 978 860 940
1337 3 2 1 1 882 877 809 851
1338 3 2 1 1 1059 1166 1103 998
1339 3 2 1 1 1166 1111 1204 1213
1340 3 2 1 1 940 860 813 814
1341 3 2 1 1 813 860 941 784
1342 3 2 1 1 1101 1171 1058 978
1343 3 2 1 1 1197 1293 1340 1269
1344 3 2 1 1 1325 1364 1380 1363
1345 3 2 1 1 126 790 878 125
1346 3 2 1 1 1000 926 1054 1116
1347 3 2 1 1 1101 1197 1269 1171
1348 3 2 1 1 1197 1286 1363 1293
1349 3 2 1 1 1413 1459 1428 1371
1350 3 2 1 1 1364 1325 1255 1297
1351 3 2 1 1 128 129 798 879
1352 3 2 1 1 1441 1459 1413 1404
1353 3 2 1 1 1222 1286 1194 1123
1354 3 2 1 1 1222 1325 1363 1286
1355 3 2 1 1 1053 1098 1043 985
1356 3 2 1 1 1404 1452 1470 1441
1357 3 2 1 1 1116 1165 1098 1053
1358 3 2 1 1 1123 1194 1090 997
1359 3 2 1 1 809 877 945 876
1360 3 2 1 1 1452 1420 1473 1470
1361 3 2 1 1 812 879 1000 927
1362 3 2 1 1 809 876 130 131
1363 3 2 1 1 1529 1512 1511 1550
1364 3 2 1 1 798 129 130 876
1365 3 2 1 1 1103 1054 999 998
1366 3 2 1 1 945 999 1054 926
1367 3 2 1 1 1477 1496 1475 1443
1368 3 2 1 1 790 126 127 812
1369 3 2 1 1 865 925 878 790
1370 3 2 1 1 1377 1330 1404 1413
1371 3 2 1 1 1523 1558 1564 1550
1372 3 2 1 1 128 879 812 127
1373 3 2 1 1 940 814 878 925
1374 3 2 1 1 1583 1571 1564 1558
1375 3 2 1 1 1581 1572 1555 1573
1376 3 2 1 1 1515 1523 1500 1491
1377 3 2 1 1 132 851 809 131
1378 3 2 1 1 1539 1529 1550 1564
1379 3 2 1 1 1103 1166 1213 1165
1380 3 2 1 1 1539 1564 1571 1560
1381 3 2 1 1 1583 1577 1557 1571
1382 3 2 1 1 945 926 798 876
1383 3 2 1 1 1549 1560 1571 1557
1384 3 2 1 1 943 872 998 999
1385 3 2 1 1 943 999 945 877
1386 3 2 1 1 1473 1433 1491 1500
1387 3 2 1 1 1500 1511 1470 1473
1388 3 2 1 1 1577 1583 1573 1555
1389 3 2 1 1 1428 1459 1477 1443
1390 3 2 1 1 1371 1428 1380 1364
1391 3 2 1 1 1377 1413 1371 1334
1392 3 2 1 1 1204 1161 1263 1264
1393 3 2 1 1 1212 1098 1165 1213
1394 3 2 1 1 1157 1222 1123 1043
1395 3 2 1 1 985 865 927 1053
1396 3 2 1 1 812 927 865 790
1397 3 2 1 1 1512 1529 1496 1477
1398 3 2 1 1 1098 1212 1157 1043
1399 3 2 1 1 1116 1053 927 1000
1400 3 2 1 1 1116 1054 1103 1165
1401 3 2 1 1 1255 1157 1212 1264
1402 3 2 1 1 1213 1204 1264 1212
1403 3 2 1 1 1222 1157 1255 1325
1404 3 2 1 1 1334 1371 1364 1297
1405 3 2 1 1 925 865 985 997
1406 3 2 1 1 1090 940 925 997
1407 3 2 1 1 1334 1297 1263 1251
1408 3 2 1 1 1251 1324 1377 1334
1409 3 2 1 1 1043 1123 997 985
1410 3 2 1 1 1375 1430 1343 1306
1411 3 2 1 1 1294 1343 1430 1366
1412 3 2 1 1 1297 1255 1264 1263
1413 3 2 1 1 1578 1566 1552 1537
1414 3 2 1 1 1532 1491 1433 1488
1415 3 2 1 1 1488 1440 1499 1532
1416 3 2 1 1 1552 1532 1499 1537
1417 3 2 1 1 1532 1552 1515 1491
1418 3 2 1 1 1521 1543 1538 1495
1419 3 2 1 1 1535 1544 1575 1559
1420 3 2 1 1 1544 1562 1576 1575
1421 3 2 1 1 1572 1581 1584 1568
1422 3 2 1 1 1543 1535 1559 1538
1423 3 2 1 1 1469 1521 1495 1472
1424 3 2 1 1 1460 1415 1469 1472
1425 3 2 1 1 1568 1579 1553 1561
1426 3 2 1 1 1579 1582 1574 1553
1427 3 2 1 1 1460 1472 1461 1412
1428 3 2 1 1 1575 1576 1570 1569
1429 3 2 1 1 1495 1538 1531 1465
1430 3 2 1 1 1559 1575 1569 1554
1431 3 2 1 1 1554 1531 1538 1559
1432 3 2 1 1 1412 1333 1398 1460
1433 3 2 1 1 1333 1296 1246 1398
1434 3 2 1 1 1465 1461 1472 1495
1435 3 2 1 1 1579 1568 1584 1580
1436 3 2 1 1 1196 1262 1288 1306
1437 3 2 1 1 1306 1288 1326 1375
1438 3 2 1 1 1580 1584 1578 1565
1439 3 2 1 1 1537 1530 1565 1578
1440 3 2 1 1 1499 1489 1530 1537
1441 3 2 1 1 1195 1146 1211 1203
1442 3 2 1 1 1375 1326 1431 1440
1443 3 2 1 1 1489 1499 1440 1431
1444 3 2 1 1 935 1060 1003 948
1445 3 2 1 1 1211 1246 1296 1203
1446 3 2 1 1 1147 1244 1262 1196
1447 3 2 1 1 1004 854 937 1089
1448 3 2 1 1 1109 1060 1004 1105
1449 3 2 1 1 935 854 1004 1060
1450 3 2 1 1 1244 1147 1035 1109
1451 3 2 1 1 1582 1579 1580 1567
1452 3 2 1 1 1569 1570 1582 1567
1453 3 2 1 1 1567 1580 1565 1551
1454 3 2 1 1 1530 1513 1551 1565
1455 3 2 1 1 1060 1109 1035 1003
1456 3 2 1 1 1567 1551 1554 1569
1457 3 2 1 1 1513 1530 1489 1432
1458 3 2 1 1 1531 1554 1551 1513
1459 3 2 1 1 1431 1399 1432 1489
1460 3 2 1 1 1465 1531 1513 1432
1461 3 2 1 1 1262 1287 1337 1288
1462 3 2 1 1 1288 1337 1376 1326
1463 3 2 1 1 1326 1376 1399 1431
1464 3 2 1 1 1195 1203 1164 1105
1465 3 2 1 1 1432 1399 1461 1465
1466 3 2 1 1 1412 1461 1399 1376
1467 3 2 1 1 1296 1333 1337 1287
1468 3 2 1 1 1333 1412 1376 1337
1469 3 2 1 1 1287 1262 1244 1164
1470 3 2 1 1 1287 1164 1203 1296
1471 3 2 1 1 1164 1244 1109 1105
1472 3 2 1 1 1105 1004 1089 1195
394 3 2 1 1 223 266 1705 1704
399 3 2 1 1 266 267 1706 1705
412 3 2 1 1 1718 1717 245 283
415 3 2 1 1 1703 315 223 1704
423 3 2 1 1 268 269 1710 1709
424 3 2 1 1 1718 283 75 1685
425 3 2 1 1 224 268 1709 1708
429 3 2 1 1 267 316 1707 1706
437 3 2 1 1 1707 316 224 1708
445 3 2 1 1 221 262 1697 1696
449 3 2 1 1 237 259 1692 1691
451 3 2 1 1 262 263 1698 1697
453 3 2 1 1 261 313 1695 1694
455 3 2 1 1 1695 313 221 1696
457 3 2 1 1 259 260 1693 1692
459 3 2 1 1 260 261 1694 1693
463 3 2 1 1 1702 265 315 1703
472 3 2 1 1 1701 264 265 1702
477 3 2 1 1 222 264 1701 1700
478 3 2 1 1 252 258 1689 1688
480 3 2 1 1 263 314 1699 1698
481 3 2 1 1 1699 314 222 1700
482 3 2 1 1 1690 312 237 1691
483 3 2 1 1 258 312 1690 1689
484 3 2 1 1 1714 317 239 1715
496 3 2 1 1 1716 318 245 1717
503 3 2 1 1 239 318 1716 1715
505 3 2 1 1 1713 1712 234 270
510 3 2 1 1 269 308 1711 1710
518 3 2 1 1 1714 1713 270 317
523 3 2 1 1 234 1712 1711 308
524 3 2 1 1 9 252 1688 1684
1073 3 2 1 1 847 910 1739 1738
1077 3 2 1 1 1739 910 788 1740
1080 3 2 1 1 846 847 1738 1737
1083 3 2 1 1 781 846 1737 1736
1088 3 2 1 1 845 909 1735 1734
1090 3 2 1 1 848 881 1742 1741
1095 3 2 1 1 1744 1743 794 849
1103 3 2 1 1 794 1743 1742 881
1107 3 2 1 1 788 848 1741 1740
1114 3 2 1 1 844 907 1730 1729
1119 3 2 1 1 1730 907 780 1731
1123 3 2 1 1 843 844 1729 1728
1128 3 2 1 1 1735 909 781 1736
1132 3 2 1 1 1733 808 845 1734
1138 3 2 1 1 1732 908 808 1733
1140 3 2 1 1 780 908 1732 1731
1143 3 2 1 1 1749 851 132 1686
1184 3 2 1 1 882 1748 1747 850
1189 3 2 1 1 1747 1746 803 850
1195 3 2 1 1 1745 1744 849 911
1197 3 2 1 1 1745 911 803 1746
1206 3 2 1 1 1749 1748 882 851
1211 3 2 1 1 164 830 1719 1687
1223 3 2 1 1 1719 830 802 1720
1237 3 2 1 1 802 840 1721 1720
1282 3 2 1 1 1723 905 793 1724
1283 3 2 1 1 841 905 1723 1722
1286 3 2 1 1 793 906 1725 1724
1289 3 2 1 1 1725 906 807 1726
1301 3 2 1 1 840 841 1722 1721
1313 3 2 1 1 842 843 1728 1727
1320 3 2 1 1 807 842 1727 1726
1473 3 2 1 1 1719 1669 1620 1687
1474 3 2 1 1 1747 1670 1655 1746
1475 3 2 1 1 1725 1681 1666 1724
1476 3 2 1 1 1665 1681 1725 1726
1477 3 2 1 1 1723 1682 1667 1722
1478 3 2 1 1 1666 1682 1723 1724
1479 3 2 1 1 1652 1654 1749 1686
1480 3 2 1 1 1749 1654 1653 1748
1481 3 2 1 1 1721 1683 1668 1720
1482 3 2 1 1 1667 1683 1721 1722
1483 3 2 1 1 1668 1669 1719 1720
1484 3 2 1 1 1653 1670 1747 1748
1485 3 2 1 1 1718 1669 1668 1717
1486 3 2 1 1 1620 1669 1718 1685
1487 3 2 1 1 1668 1683 1716 1717
1488 3 2 1 1 1716 1683 1667 1715
1489 3 2 1 1 1667 1682 1714 1715
1490 3 2 1 1 1714 1682 1666 1713
1491 3 2 1 1 1666 1681 1712 1713
1492 3 2 1 1 1712 1681 1665 1711
1493 3 2 1 1 1665 1680 1710 1711
1494 3 2 1 1 1710 1680 1664 1709
1495 3 2 1 1 1662 1732 1733 1677
1496 3 2 1 1 1657 1673 1741 1742
1497 3 2 1 1 1741 1673 1658 1740
1498 3 2 1 1 1739 1674 1659 1738
1499 3 2 1 1 1658 1674 1739 1740
1500 3 2 1 1 1737 1675 1660 1736
1501 3 2 1 1 1659 1675 1737 1738
1502 3 2 1 1 1656 1672 1743 1744
1503 3 2 1 1 1735 1736 1660 1676
1504 3 2 1 1 1676 1661 1734 1735
1505 3 2 1 1 1743 1672 1657 1742
1506 3 2 1 1 1653 1654 1688 1689
1507 3 2 1 1 1661 1677 1733 1734
1508 3 2 1 1 1731 1678 1663 1730
1509 3 2 1 1 1662 1678 1731 1732
1510 3 2 1 1 1655 1671 1745 1746
1511 3 2 1 1 1745 1671 1656 1744
1512 3 2 1 1 1729 1679 1664 1728
1513 3 2 1 1 1663 1679 1729 1730
1514 3 2 1 1 1727 1680 1665 1726
1515 3 2 1 1 1664 1680 1727 1728
1516 3 2 1 1 1692 1671 1655 1691
1517 3 2 1 1 1657 1672 1694 1695
1518 3 2 1 1 1660 1675 1700 1701
1519 3 2 1 1 1660 1701 1702 1676
1520 3 2 1 1 1694 1672 1656 1693
1521 3 2 1 1 1703 1661 1676 1702
1522 3 2 1 1 1704 1677 1661 1703
1523 3 2 1 1 1700 1675 1659 1699
1524 3 2 1 1 1704 1705 1662 1677
1525 3 2 1 1 1656 1671 1692 1693
1526 3 2 1 1 1706 1678 1662 1705
1527 3 2 1 1 1696 1673 1657 1695
1528 3 2 1 1 1663 1678 1706 1707
1529 3 2 1 1 1658 1673 1696 1697
1530 3 2 1 1 1655 1670 1690 1691
1531 3 2 1 1 1659 1674 1698 1699
1532 3 2 1 1 1698 1674 1658 1697
1533 3 2 1 1 1690 1670 1653 1689
1534 3 2 1 1 1664 1679 1708 1709
1535 3 2 1 1 1708 1679 1663 1707
1536 3 2 1 1 1688 1654 1652 1684
$EndElements
