$MeshFormat
2.2 0 8
$EndMeshFormat
$Nodes
882
1 -200 -100 0
2 0 -100 0
3 0 100 0
4 -200 100 0
5 -150 50 0
6 -190 -100 0
7 -180 -100 0
8 -170 -100 0
9 -160 -100 0
10 -150 -100 0
11 -140 -100 0
12 -130 -100 0
13 -120 -100 0
14 -110 -100 0
15 -100 -100 0
16 -90 -100 0
17 -80 -100 0
18 -70 -100 0
19 -60 -100 0
20 -50 -100 0
21 -40 -100 0
22 -30 -100 0
23 -20 -100 0
24 -10 -100 0
25 0 -90 0
26 0 -80 0
27 0 -70 0
28 0 -60 0
29 0 -50 0
30 0 -40 0
31 0 -30 0
32 0 -20 0
33 0 -10 0
34 0 0 0
35 0 10 0
36 0 20 0
37 0 30 0
38 0 40 0
39 0 50 0
40 0 60 0
41 0 70 0
42 0 80 0
43 0 90 0
44 -10 100 0
45 -20 100 0
46 -30 100 0
47 -40 100 0
48 -50 100 0
49 -60 100 0
50 -70 100 0
51 -80 100 0
52 -90 100 0
53 -100 100 0
54 -110 100 0
55 -120 100 0
56 -130 100 0
57 -140 100 0
58 -150 100 0
59 -160 100 0
60 -170 100 0
61 -180 100 0
62 -190 100 0
63 -200 90 0
64 -200 80 0
65 -200 70 0
66 -200 60 0
67 -200 50 0
68 -200 40 0
69 -200 30 0
70 -200 20 0
71 -200 10 0
72 -200 0 0
73 -200 -10 0
74 -200 -20 0
75 -200 -30 0
76 -200 -40 0
77 -200 -50 0
78 -200 -60 0
79 -200 -70 0
80 -200 -80 0
81 -200 -90 0
82 -10 10 0
83 -110 -90 0
84 -190 -20 0
85 -69.9977852432908 90.0022262487116 0
86 -140 -90 0
87 -10 -40 0
88 -70 -90 0
89 -10 40 0
90 -190 -50 0
91 -129.998201079011 90.0022921635931 0
92 -169.999998994949 89.9999998125717 0
93 -190 40 0
94 -160 -90 0
95 -30 -90 0
96 -10 60 0
97 -190 -70 0
98 -29.9999999905109 90.0000000094891 0
99 -190 80 0
100 -10 -80 0
101 -10 -20 0
102 -109.981331086646 90.0205920895804 0
103 -190 20 0
104 -180 -90 0
105 -10 90 0
106 -190 90 0
107 -190 -80 0
108 -10 -90 0
109 -190 -1.32116539930394E-14 0
110 -90 -90 0
111 -50 -90 0
112 -10 -60 0
113 -49.9999774528862 90.0000225471138 0
114 -89.9825852128954 90.018123127124 0
115 -149.999937303925 90.0000400723711 0
116 -190 70 0
117 -190 60 0
118 -10 -9.99999999999999 0
119 -190 -30 0
120 -190 -90 0
121 -120 -90 0
122 -10 20 0
123 -10 70 0
124 -20 20 0
125 -110 -80 0
126 -180 -20 0
127 -179.999997386867 69.9999995126865 0
128 -19.9999999886428 70.0000000113572 0
129 -10 50 0
130 -190 -60 0
131 -179.999999371843 89.9999998828573 0
132 -80 -90 0
133 -10 1.25455201782643E-14 0
134 -20 -90 0
135 -190 9.99999999999999 0
136 -119.990090060851 90.0114772922197 0
137 -60 -90 0
138 -10 -30 0
139 -19.9999999978181 90.0000000021819 0
140 -79.9905435933908 90.0096394708319 0
141 -190 -10 0
142 -170 -90 0
143 -100 -90 0
144 -10 -50 0
145 -9.9999999991538 80.0000000008462 0
146 -39.9999951736373 90.0000048263627 0
147 -59.9993907790836 90.0006118066169 0
148 -139.999533210035 90.0005926867901 0
149 -190 50 0
150 -190 30 0
151 -10 -70 0
152 -99.9727158505642 90.02931030194 0
153 -150 -90 0
154 -130 -90 0
155 -159.999983266973 90.000002969339 0
156 -190 -40 0
157 -180 -70 0
158 -10 30 0
159 -40 -90 0
160 -180 -80 0
161 -70 -80 0
162 -89.9212924136875 80.090686272185 0
163 -20 -40 0
164 -50 -80 0
165 -140 -80 0
166 -59.9980567226144 80.0019578279922 0
167 -129.986030514634 80.012508932092 0
168 -179.999999497474 49.9999999062859 0
169 -180 20 0
170 -159.999886437386 79.9999849593216 0
171 -20 -70 0
172 -19.99999995158 40.0000000253035 0
173 -180 -40 0
174 -180 -60 0
175 -170 -70 0
176 -39.9999793496501 80.0000158354967 0
177 -179.999997722931 79.9999995753578 0
178 -180 -2.05876982128927E-14 0
179 -19.9999999936546 30.0000000034558 0
180 -30 -80 0
181 -80 -80 0
182 -100 -80 0
183 -179.999997801451 59.9999995900007 0
184 -119.954483642997 80.0484236118487 0
185 -180 -10 0
186 -79.9627016681129 80.0434858768703 0
187 -109.906600285106 80.1051299915054 0
188 -20 -60 0
189 -120 -80 0
190 -20 10 0
191 -20 -9.99999999999998 0
192 -179.999999937184 39.9999999882857 0
193 -150 -80 0
194 -20 -80 0
195 -20 -30 0
196 -149.999014723599 80.0002503756798 0
197 -180 -30 0
198 -170 -80 0
199 -19.9999999314291 60.0000000454543 0
200 -19.9999999951486 80.0000000048514 0
201 -100 -70 0
202 -170 -20 0
203 -89.8362701896104 70.2276660114501 0
204 -29.9999982209114 30.0000009448744 0
205 -140 -70 0
206 -30 -40 0
207 -119.884852647976 70.1085337904479 0
208 -170 -60 0
209 -159.999258224533 70.000121599204 0
210 -169.999965002068 49.9999938071729 0
211 -180 -50 0
212 -160 -70 0
213 -29.9999981177323 70.0000014461315 0
214 -20 -20 0
215 -29.9999997724486 10.0000001252123 0
216 -169.999876831976 70.0000101346703 0
217 -20 -50 0
218 -30 -70 0
219 -180 9.99999999999998 0
220 -60 -80 0
221 -179.999999992148 29.9999999985357 0
222 -99.8852384033232 80.134550581009 0
223 -160 -80 0
224 -90 -80 0
225 -49.9996016835607 80.0003687350393 0
226 -139.994609799552 80.0032004847568 0
227 -130 -80 0
228 -169.999998036 1.42103384453374E-06 0
229 -110 -70 0
230 -69.9876159271428 80.014212686968 0
231 -19.999999985778 7.82578590818872E-09 0
232 -40 -80 0
233 -169.999920378941 80.0000066831391 0
234 -170 -30 0
235 -19.9999998799905 50.0000000679972 0
236 -29.9999967299893 80.000002613637 0
237 -100 -60 0
238 -159.999999903643 -19.9999999230937 0
239 -59.9947140157833 70.0049814443276 0
240 -70 -70 0
241 -39.9999180248929 70.0000582148146 0
242 -30 -50 0
243 -169.999979403937 30.0000133871088 0
244 -170 -40 0
245 -169.999979163345 10.0000135656532 0
246 -120 -70 0
247 -99.7680968264817 70.3111820976388 0
248 -160 -60 0
249 -79.9285618482549 70.1006461311568 0
250 -150 -70 0
251 -169.999888220584 60.0000000903739 0
252 -30 -60 0
253 -29.9999987520908 20.0000006789977 0
254 -50 -70 0
255 -129.949819476473 70.0319206868911 0
256 -149.995236666551 70.0012345755826 0
257 -30 -30 0
258 -170 -50 0
259 -40 -70 0
260 -169.999982910532 40.0000008479832 0
261 -80 -70 0
262 -109.801172321748 70.2380115413099 0
263 -90 -70 0
264 -130 -70 0
265 -29.9999999998889 -19.9999999999388 0
266 -29.999999998875 -9.99999999938094 0
267 -29.9999999695266 1.67682981944139E-08 0
268 -169.999999748478 -9.99999981756414 0
269 -29.9999961097837 40.0000019902471 0
270 -29.999991858469 60.0000052581455 0
271 -99.7253261071083 60.5016994452616 0
272 -39.9999999999861 -29.9999999999923 0
273 -39.9999540283276 -1.0172983072028E-05 0
274 -130 -60 0
275 -69.9999997043582 -59.9999850654387 0
276 -39.9998777199932 40.0000808679111 0
277 -129.913663916876 60.0477424314643 0
278 -89.9999997043582 -59.9999850654387 0
279 -150 -60 0
280 -159.999983145979 1.21073754286716E-05 0
281 -39.9998695156256 60.0000775076754 0
282 -49.9987066573105 70.001124935248 0
283 -50 -60 0
284 -159.998891838563 40.0005856703198 0
285 -169.99995756611 20.0000273029839 0
286 -40 -50 0
287 -39.9999906908556 10.0000004354268 0
288 -159.998599243932 60.0003612135528 0
289 -160 -40 0
290 -159.999999987955 -29.9999999903867 0
291 -39.9999540821064 -20.0000102025753 0
292 -39.9999681664416 20.0000284779275 0
293 -119.828281333915 60.1712107339956 0
294 -110 -60 0
295 -69.9742601175529 70.0319386402357 0
296 -29.9999783095755 50.000013043447 0
297 -159.99999676711 -9.99999765644162 0
298 -139.979716102458 70.0099749514015 0
299 -160 -50 0
300 -40 -60 0
301 -59.9999999815224 -69.9999990665899 0
302 -89.8244973098214 60.3611299309917 0
303 -99.9998183308259 -49.9951079708873 0
304 -49.9971862741022 -0.000525755729970985 0
305 -149.999998972341 -19.9999987396884 0
306 -49.999766639702 -29.9997525833577 0
307 -49.9999994087163 -49.9999701308774 0
308 -129.904083602166 50.0797769989824 0
309 -99.7978291698265 50.6861263991931 0
310 -69.9667784224827 60.0475212359755 0
311 -49.9981855131635 60.0016039915245 0
312 -109.765044920072 60.3513442716658 0
313 -59.9999999237798 -59.9999961496834 0
314 -39.9999853780244 -39.9999826696387 0
315 -159.998894547121 30.0006304518164 0
316 -139.96406004927 60.0188006470462 0
317 -149.999999844896 -29.9999991881823 0
318 -149.999999990062 -49.9999995021284 0
319 -159.998743256942 50.0004909555858 0
320 -149.988769143118 60.0050082294804 0
321 -120 -60 0
322 -79.9999993348059 -59.9999663972371 0
323 -39.999720818289 -10.0000558108054 0
324 -39.9999095569958 30.0000759217015 0
325 -139.999999999379 -59.999999968883 0
326 -159.999832081933 10.0001150459921 0
327 -79.9108915615833 60.1689576972097 0
328 -149.999898420903 7.26981313401431E-05 0
329 -49.9974019817564 9.99933291966961 0
330 -39.9997207647364 50.0001996794364 0
331 -59.9692241465994 0.0277392676953728 0
332 -139.999976005944 -19.9997958184727 0
333 -79.9245131244271 50.2451387359472 0
334 -49.9986833567254 40.0017921406178 0
335 -129.999999074682 -49.9999532652181 0
336 -109.807611335677 50.5029618705685 0
337 -69.9999188188112 -49.9978782452049 0
338 -89.9996974175972 -49.9925230271946 0
339 -109.999909599387 -49.9972293175517 0
340 -149.999339499877 10.000464444417 0
341 -119.855184916339 50.252072127328 0
342 -49.9999677457367 -39.9999034347383 0
343 -149.993812532286 30.0039242742645 0
344 -59.999981821708 -49.9994249057562 0
345 -149.989287176102 40.0060102750046 0
346 -59.9894642000428 60.0135493143281 0
347 -139.999999784552 -49.9999891283527 0
348 -139.956519554527 50.0280439739435 0
349 -49.9987983355388 -19.9994949781191 0
350 -49.9959250303418 -9.99797397627432 0
351 -49.998374133208 20.0002693726084 0
352 -149.999978707774 -9.99997232343176 0
353 -159.999140246615 20.0005520190001 0
354 -149.999999944357 -39.999998145427 0
355 -49.9976186452992 50.0027753616322 0
356 -89.8656269764083 50.5164276763771 0
357 -89.924963214387 40.6836091918725 0
358 -99.9962711612292 -39.9566361138855 0
359 -109.895877627187 40.6845903781546 0
360 -59.9970445205356 -29.9896081099045 0
361 -139.999644891803 0.00243374713734603 0
362 -59.9731034129852 -9.96351056536637 0
363 -69.9684748891721 50.0821096162971 0
364 -139.999994829082 -29.9999200680269 0
365 -69.9980204308674 -39.9821104517362 0
366 -129.933490695623 40.1106896055824 0
367 -139.981962134259 30.023570693787 0
368 -139.999889539028 -9.99908730012476 0
369 -59.992500247218 40.0210276141016 0
370 -79.9996036242626 -49.9924329813191 0
371 -149.996869946208 20.0028119605793 0
372 -49.9984891332211 30.0026303351164 0
373 -59.9857670144608 20.0233413673326 0
374 -119.999975427048 -49.9991092122582 0
375 -59.9708742348501 10.0289010671328 0
376 -139.966092999668 40.0350076801778 0
377 -59.9885534005898 50.0231233989766 0
378 -129.9999166388 -39.9990814893563 0
379 -139.999988391521 -39.9998535158942 0
380 -59.999093956028 -39.9941864602119 0
381 -69.8747047200895 0.20235834868261 0
382 -69.9866046354986 -29.9337321676194 0
383 -129.998467286505 -19.9906239427173 0
384 -139.992839703977 20.015581354829 0
385 -89.9938465624822 -39.9372535286557 0
386 -119.999552592994 -39.9943465890266 0
387 -69.97654281948 40.1082542044702 0
388 -99.8984226767185 40.8520068319562 0
389 -79.993919553722 -39.9463486041293 0
390 -139.9977569977 10.0091582846779 0
391 -129.9666477754 30.1200200309052 0
392 -59.9850855978972 -19.9675149681882 0
393 -129.996223642731 0.0425084671365271 0
394 -109.998138331863 -39.977256945614 0
395 -69.8982236291335 10.1930136000285 0
396 -129.99935477448 -29.9954109342032 0
397 -59.990072677554 30.0323699419368 0
398 -79.9511797722031 40.3350375467336 0
399 -119.909486186179 40.3373920414351 0
400 -79.7594332847323 0.569838409574566 0
401 -99.975725576931 -29.8369811453141 0
402 -89.9429419595258 30.8098895527326 0
403 -69.9449642608264 20.1736791466147 0
404 -69.9505525169217 -19.8502690892758 0
405 -129.985811970987 20.1133831789838 0
406 -109.946720152101 30.7865580863134 0
407 -79.9509814216624 30.420750964805 0
408 -69.9022740472796 -9.77763126800743 0
409 -129.993050855365 10.0888386773704 0
410 -79.9684211067336 -29.8266533373593 0
411 -109.987637607838 -29.9199982692559 0
412 -119.988160884073 -19.9363684121827 0
413 -129.995895204983 -9.96979972640474 0
414 -119.994599529518 -29.9671000874291 0
415 -69.968261055552 30.1691757774822 0
416 -119.952522911314 30.3947776162229 0
417 -119.973773609368 0.232642191665324 0
418 -109.953265649537 20.8234160520726 0
419 -89.8949836072621 20.9096495839598 0
420 -79.819683318358 -9.48917692129066 0
421 -79.8223550771442 10.5557354940272 0
422 -99.9327300657639 30.9696059146216 0
423 -79.9085452563019 -19.652356172602 0
424 -99.9216644967378 -19.6300970179871 0
425 -109.958464171544 -19.7978240173332 0
426 -89.9605510921539 -29.7768616736873 0
427 -119.974068184026 -9.84180365753264 0
428 -119.974089427713 10.3452229808318 0
429 -119.969242941317 20.4101441722069 0
430 -79.9039159145489 20.5087811076978 0
431 -109.927717726327 10.7521253603183 0
432 -89.7499142658166 0.875557867698676 0
433 -99.9120503363 21.0144697520087 0
434 -89.8921143642257 -19.5531702912123 0
435 -99.8553162011028 -9.38392473347578 0
436 -109.911050465556 0.581164996716822 0
437 -109.924490239045 -9.61262472855351 0
438 -89.8214472364259 10.8896873868647 0
439 -99.8358190540746 0.833831775987273 0
440 -99.8714203536569 10.9232504728766 0
441 -89.8204574619021 -9.36150199387296 0
442 0 -100 0
443 0 100 0
444 200 -100 0
445 200 100 0
446 50 -50 0
447 0 -90 0
448 0 -80 0
449 0 -70 0
450 0 -60 0
451 0 -50 0
452 0 -40 0
453 0 -30 0
454 0 -20 0
455 0 -10 0
456 0 0 0
457 0 10 0
458 0 20 0
459 0 30 0
460 0 40 0
461 0 50 0
462 0 60 0
463 0 70 0
464 0 80 0
465 0 90 0
466 10 -100 0
467 20 -100 0
468 30 -100 0
469 40 -100 0
470 50 -100 0
471 60 -100 0
472 70 -100 0
473 80 -100 0
474 90 -100 0
475 100 -100 0
476 110 -100 0
477 120 -100 0
478 130 -100 0
479 140 -100 0
480 150 -100 0
481 160 -100 0
482 170 -100 0
483 180 -100 0
484 190 -100 0
485 200 -90 0
486 200 -80 0
487 200 -70 0
488 200 -60 0
489 200 -50 0
490 200 -40 0
491 200 -30 0
492 200 -20 0
493 200 -10 0
494 200 0 0
495 200 10 0
496 200 20 0
497 200 30 0
498 200 40 0
499 200 50 0
500 200 60 0
501 200 70 0
502 200 80 0
503 200 90 0
504 190 100 0
505 180 100 0
506 170 100 0
507 160 100 0
508 150 100 0
509 140 100 0
510 130 100 0
511 120 100 0
512 110 100 0
513 100 100 0
514 90 100 0
515 80 100 0
516 70 100 0
517 60 100 0
518 50 100 0
519 40 100 0
520 30 100 0
521 20 100 0
522 10 100 0
523 80 90 0
524 190 -20 0
525 190 20 0
526 10 30 0
527 130 -90 0
528 140 90 0
529 190 -60 0
530 40 90 0
531 190 50 0
532 10 -30 0
533 70 -90 0
534 40 -90 0
535 10 -60 0
536 160 90 0
537 10 80 0
538 180 -90 0
539 190 70 0
540 10 60 0
541 160 -90 0
542 10 10 0
543 110 -90 0
544 100 90 0
545 190 90 0
546 10 -90 0
547 20 90 0
548 190 1.40998324127395E-14 0
549 10 90 0
550 190 -90 0
551 190 -50 0
552 10 -10 0
553 30 -90 0
554 90 -90 0
555 110 90 0
556 60 90 0
557 10 -40 0
558 60 -90 0
559 190 -40 0
560 190 30 0
561 10 -70 0
562 10 50 0
563 150 -90 0
564 190 -80 0
565 170 90 0
566 120 90 0
567 100 80 0
568 180 20 0
569 180 -50 0
570 20 -30 0
571 70 -80 0
572 20 60 0
573 160 -80 0
574 40 -80 0
575 20 80 0
576 160 80 0
577 180 -80 0
578 20 -60 0
579 190 60 0
580 10 70 0
581 170 -90 0
582 30 90 0
583 10 20 0
584 120 -90 0
585 190 -9.99999999999999 0
586 90 90 0
587 10 -20 0
588 10 40 0
589 80 -90 0
590 140 -90 0
591 190 10 0
592 50 90 0
593 10 -2.83982699819042E-15 0
594 100 -90 0
595 190 -70 0
596 190 -30 0
597 190 80 0
598 180 90 0
599 130 90 0
600 70 90 0
601 110 80 0
602 10 -80 0
603 20 -90 0
604 190 40 0
605 150 90 0
606 10 -50 0
607 50 -90 0
608 100 70 0
609 20 30 0
610 120 -80 0
611 180 -20 0
612 50 80 0
613 180 70 0
614 180 -70 0
615 70 80 0
616 90 80 0
617 100 -80 0
618 80 -80 0
619 130 80 0
620 20 9.99999999999999 0
621 180 40 0
622 30 -80 0
623 150 80 0
624 20 -40 0
625 50 -80 0
626 30 80 0
627 20 70 0
628 180 -60 0
629 170 80 0
630 180 50 0
631 130 -80 0
632 150 -80 0
633 180 2.31967223207619E-14 0
634 170 -80 0
635 20 -10 0
636 20 50 0
637 20 -20 0
638 120 80 0
639 180 10 0
640 180 -40 0
641 180 80 0
642 20 -70 0
643 20 -80 0
644 180 30 0
645 60 -80 0
646 20 -50 0
647 170 20 0
648 130 -70 0
649 170 -50 0
650 30 -10 0
651 170 40 0
652 150 70 0
653 170 70 0
654 30 60 0
655 90 70 0
656 30 -30 0
657 80 -70 0
658 160 -70 0
659 120 70 0
660 60 -70 0
661 50 -70 0
662 30 -50 0
663 30 70 0
664 90 -80 0
665 80 80 0
666 20 40 0
667 180 -30 0
668 40 80 0
669 180 -9.99999999999998 0
670 110 -80 0
671 60 80 0
672 20 20 0
673 20 -1.0769163338864E-14 0
674 110 70 0
675 170 -70 0
676 170 3.03047428226343E-14 0
677 140 -80 0
678 140 80 0
679 40 -70 0
680 30 -60 0
681 30 -70 0
682 180 60 0
683 90 60 0
684 30 30 0
685 70 70 0
686 30 50 0
687 170 -30 0
688 170 -9.99999999999997 0
689 150 -70 0
690 110 60 0
691 140 70 0
692 170 50 0
693 160 70 0
694 170 30 0
695 40 70 0
696 80 70 0
697 170 -40 0
698 30 9.99999999999998 0
699 90 -70 0
700 110 -70 0
701 140 -70 0
702 30 -1.79856129989275E-14 0
703 120 -70 0
704 170 -60 0
705 30 -20 0
706 170 10 0
707 60 -60 0
708 50 -60 0
709 40 -50 0
710 50 70 0
711 130 70 0
712 40 -60 0
713 70 -70 0
714 30 -40 0
715 170 60 0
716 160.000000192367 -1.42952843740218E-06 0
717 130 -60 0
718 40 9.99999999999997 0
719 160 -50 0
720 60 -50 0
721 40 -10 0
722 160 30 0
723 140 60 0
724 90 -60 0
725 160.000000192367 19.9999985704716 0
726 80 60 0
727 30 40 0
728 170 -20 0
729 40 60 0
730 160 -40 0
731 100 -70 0
732 150 -60 0
733 100 60 0
734 150 60 0
735 160 60 0
736 30 20 0
737 160 -60 0
738 60 70 0
739 120 -60 0
740 50 -40 0
741 40 -30 0
742 120 60 0
743 40 -40 0
744 160 40 0
745 70 -60 0
746 90.0017972179643 50.0015249740538 0
747 40 30 0
748 130 -50 0
749 150.000015220637 19.9998939713079 0
750 60 -40 0
751 40 50 0
752 100 -60 0
753 110.001823379825 50.0013305581812 0
754 70 60 0
755 150 -50 0
756 40 20 0
757 160 -30 0
758 110 -60 0
759 50 60 0
760 140.000021130338 49.9999562545341 0
761 150.000010516261 29.9999482237686 0
762 50 -30 0
763 160 50 0
764 140 -60 0
765 40 -2.18713935851156E-14 0
766 160.000000024046 -10.000000178691 0
767 130.000001320646 59.9999972659084 0
768 70 -50 0
769 160.000001384115 9.99999015676771 0
770 80 -60 0
771 40 -20 0
772 50.000020960604 30.0000208715848 0
773 140.001424090163 19.992960917361 0
774 70.0000157471896 -39.9999861916257 0
775 50.000001652102 50.0000016510029 0
776 150.000029899127 -0.000209661483471113 0
777 110 -50 0
778 50.00010801417 10.00010748555 0
779 130.000215152817 49.9999718781483 0
780 70.0001857236522 50.0001781295151 0
781 150.000112603515 9.99938720128429 0
782 40.0000014132941 40.0000014076617 0
783 140 -50 0
784 150 -30 0
785 120 -50 0
786 150.000008566626 39.9999764516377 0
787 100.0028680891 50.0023127421258 0
788 60.0000307122942 -29.9999696707299 0
789 50.0000325614442 -9.99996759791114 0
790 150 -40 0
791 60.0000117109846 60.0000112362824 0
792 160.000000003006 -20.0000000223363 0
793 120.001060773031 50.0005552230113 0
794 90 -50 0
795 80.0010137293558 50.0009028192198 0
796 50.0000059896989 -19.9999940541595 0
797 80.0000009841993 -49.9999991369766 0
798 150.000005825154 49.9999872137249 0
799 70.0005473801161 -29.9994974999764 0
800 90.0282748556556 40.02202287804 0
801 120.000158663672 -39.9998836323352 0
802 140.000006524982 -30.0000533716908 0
803 110.02493572847 40.01098962869 0
804 150.000039386124 -10.0002661243218 0
805 130.00295544882 39.9979436177431 0
806 50.000008775731 40.0000087527722 0
807 130.000052800191 -39.9999680868631 0
808 60.0000394870679 50.0000384746927 0
809 140.001378683249 -0.0074092995045104 0
810 140.000530710394 39.9990525952507 0
811 140.000007415647 -40.0000026823192 0
812 150.000021604769 -20.0001450361098 0
813 50.0000778744084 20.000077498275 0
814 60.0017324774787 -9.99828871096455 0
815 90.0003519056576 -39.9996977339954 0
816 80.0001978758642 -39.9998263920022 0
817 100.000021994104 -49.9999811083747 0
818 70.0051137085993 40.0047836654063 0
819 60.0005468011356 -19.9994603648201 0
820 140.002342067805 9.98885859923975 0
821 50.0002215150715 0.000219636622048158 0
822 140.000977194556 29.9958773437794 0
823 130.021829122431 -0.0311119316181844 0
824 60.0068401914941 20.0066361121162 0
825 100.000554204421 -39.999532989535 0
826 60.0042639127843 30.0041308937392 0
827 130.000472648999 -30.000065203398 0
828 80.0028526603888 -29.9974742504888 0
829 140.000171005819 -20.0010678084466 0
830 140.001817573407 -10.0049440522654 0
831 100.039108374208 40.0250188547132 0
832 70.016554513117 -9.98444966196315 0
833 70.0056564395922 -19.9947368709766 0
834 130.021715597885 19.9696099668564 0
835 120.013770659795 40.0008472577923 0
836 80.0182518348999 40.0157482827102 0
837 60.0092951074214 10.0090206269388 0
838 60.0076294366128 0.00739999444546796 0
839 60.0019112976078 40.0018320145763 0
840 110.000474047987 -39.9996168023596 0
841 130.013496193297 29.9867939097333 0
842 90.1360039457989 30.1039689420447 0
843 110.007131084386 -29.9960129406159 0
844 130.003421018291 -20.0029018527159 0
845 70.0522929166599 20.0482116347962 0
846 70.0458009765481 0.0428056367469875 0
847 130.013260042157 -10.014273151389 0
848 70.0289698680636 30.0265353510959 0
849 110.11291635597 30.0375263528862 0
850 120.106423231078 19.9770049128275 0
851 90.0073307588514 -29.9940898702326 0
852 80.0687773027371 -9.93903479653175 0
853 130.034966385662 9.96094966303551 0
854 80.0230761808018 -19.979707072897 0
855 120.059316614217 29.9989742643494 0
856 120.003732577365 -29.9988307057155 0
857 120.111714843329 -0.020760715833806 0
858 80.1593789611621 0.139934285876564 0
859 110.25119450764 20.0810304262645 0
860 120.018869989375 -19.9982302919621 0
861 80.0832802512539 30.0710048569229 0
862 100.166481755436 30.102028279816 0
863 70.0722234169627 10.06621268914 0
864 100.011025805982 -29.9924012976491 0
865 90.1455121223621 -9.88327309797387 0
866 90.0485535262743 -19.9618351575271 0
867 120.147344046946 9.98338721835084 0
868 90.3045004107931 0.241408852099149 0
869 90.3013067631496 20.2312208006364 0
870 100.175457216063 -9.88710514963607 0
871 120.063081428983 -9.99885465905917 0
872 80.2079824407229 10.1782739549733 0
873 80.1669170958135 20.140154796921 0
874 100.335633889279 20.202694718001 0
875 110.045711575978 -19.9793129448257 0
876 100.06300202295 -19.9596210750468 0
877 110.263934697071 0.100013823299423 0
878 110.310884043794 10.1183392965087 0
879 100.338204102409 0.222142146119513 0
880 90.3529410854904 10.2697713858883 0
881 110.13148696518 -9.94400803472497 0
882 100.371507525335 10.2311928030446 0
$EndNodes
$Elements
800
1 3 2 1 1 440 439 432 438
2 3 2 1 1 309 388 357 356
3 3 2 1 1 432 439 435 441
4 3 2 1 1 271 312 336 309
5 3 2 1 1 388 422 402 357
6 3 2 1 1 440 431 436 439
7 3 2 1 1 333 356 357 398
8 3 2 1 1 418 433 422 406
9 3 2 1 1 438 419 433 440
10 3 2 1 1 387 398 407 415
11 3 2 1 1 404 408 420 423
12 3 2 1 1 431 428 417 436
13 3 2 1 1 441 434 423 420
14 3 2 1 1 441 435 424 434
15 3 2 1 1 342 306 360 380
16 3 2 1 1 405 384 390 409
17 3 2 1 1 21 22 95 159
18 3 2 1 1 92 155 59 60
19 3 2 1 1 283 307 344 313
20 3 2 1 1 130 97 157 174
21 3 2 1 1 434 426 410 423
22 3 2 1 1 252 242 286 300
23 3 2 1 1 288 319 5 320
24 3 2 1 1 161 240 261 181
25 3 2 1 1 251 216 127 183
26 3 2 1 1 217 242 252 188
27 3 2 1 1 119 197 126 84
28 3 2 1 1 219 245 285 169
29 3 2 1 1 345 284 315 343
30 3 2 1 1 391 416 399 366
31 3 2 1 1 99 177 131 106
32 3 2 1 1 141 185 178 109
33 3 2 1 1 159 232 164 111
34 3 2 1 1 207 184 167 255
35 3 2 1 1 211 258 244 173
36 3 2 1 1 251 288 209 216
37 3 2 1 1 268 297 280 228
38 3 2 1 1 275 240 301 313
39 3 2 1 1 283 313 301 254
40 3 2 1 1 204 269 276 324
41 3 2 1 1 330 355 334 276
42 3 2 1 1 350 362 392 349
43 3 2 1 1 390 361 393 409
44 3 2 1 1 95 22 23 134
45 3 2 1 1 78 79 97 130
46 3 2 1 1 145 200 128 123
47 3 2 1 1 259 232 180 218
48 3 2 1 1 245 228 280 326
49 3 2 1 1 288 251 210 319
50 3 2 1 1 282 239 346 311
51 3 2 1 1 277 255 298 316
52 3 2 1 1 241 282 311 281
53 3 2 1 1 305 332 368 352
54 3 2 1 1 389 385 338 370
55 3 2 1 1 4 63 106 62
56 3 2 1 1 194 180 95 134
57 3 2 1 1 103 135 219 169
58 3 2 1 1 235 296 269 172
59 3 2 1 1 320 5 348 316
60 3 2 1 1 17 18 88 132
61 3 2 1 1 2 25 108 24
62 3 2 1 1 39 40 96 129
63 3 2 1 1 72 73 141 109
64 3 2 1 1 107 80 81 120
65 3 2 1 1 181 132 88 161
66 3 2 1 1 131 177 233 92
67 3 2 1 1 183 117 149 168
68 3 2 1 1 88 137 220 161
69 3 2 1 1 192 221 243 260
70 3 2 1 1 315 284 260 243
71 3 2 1 1 259 300 283 254
72 3 2 1 1 325 274 335 347
73 3 2 1 1 322 370 338 278
74 3 2 1 1 396 414 412 383
75 3 2 1 1 147 113 48 49
76 3 2 1 1 55 56 91 136
77 3 2 1 1 92 60 61 131
78 3 2 1 1 139 200 145 105
79 3 2 1 1 84 126 185 141
80 3 2 1 1 270 199 128 213
81 3 2 1 1 192 260 210 168
82 3 2 1 1 126 202 268 185
83 3 2 1 1 212 223 193 250
84 3 2 1 1 278 338 303 237
85 3 2 1 1 264 246 321 274
86 3 2 1 1 271 247 262 312
87 3 2 1 1 316 298 256 320
88 3 2 1 1 343 315 353 371
89 3 2 1 1 379 347 335 378
90 3 2 1 1 374 386 378 335
91 3 2 1 1 374 339 394 386
92 3 2 1 1 367 343 371 384
93 3 2 1 1 384 405 391 367
94 3 2 1 1 386 414 396 378
95 3 2 1 1 414 386 394 411
96 3 2 1 1 425 411 401 424
97 3 2 1 1 110 16 17 132
98 3 2 1 1 88 18 19 137
99 3 2 1 1 42 43 105 145
100 3 2 1 1 84 141 73 74
101 3 2 1 1 90 130 174 211
102 3 2 1 1 126 197 234 202
103 3 2 1 1 178 228 245 219
104 3 2 1 1 404 392 362 408
105 3 2 1 1 138 87 30 31
106 3 2 1 1 50 51 140 85
107 3 2 1 1 102 54 55 136
108 3 2 1 1 91 56 57 148
109 3 2 1 1 150 93 68 69
110 3 2 1 1 182 125 83 143
111 3 2 1 1 144 87 163 217
112 3 2 1 1 184 136 91 167
113 3 2 1 1 221 192 93 150
114 3 2 1 1 200 139 98 236
115 3 2 1 1 177 99 116 127
116 3 2 1 1 107 120 104 160
117 3 2 1 1 182 143 110 224
118 3 2 1 1 132 181 224 110
119 3 2 1 1 137 111 164 220
120 3 2 1 1 222 162 114 152
121 3 2 1 1 117 183 127 116
122 3 2 1 1 87 138 195 163
123 3 2 1 1 91 148 226 167
124 3 2 1 1 119 156 173 197
125 3 2 1 1 257 206 163 195
126 3 2 1 1 206 242 217 163
127 3 2 1 1 259 254 164 232
128 3 2 1 1 209 170 233 216
129 3 2 1 1 197 173 244 234
130 3 2 1 1 127 216 233 177
131 3 2 1 1 178 185 268 228
132 3 2 1 1 246 264 227 189
133 3 2 1 1 170 209 256 196
134 3 2 1 1 226 196 256 298
135 3 2 1 1 292 253 204 324
136 3 2 1 1 314 286 242 206
137 3 2 1 1 195 214 265 257
138 3 2 1 1 161 220 301 240
139 3 2 1 1 164 254 301 220
140 3 2 1 1 181 261 263 224
141 3 2 1 1 202 234 290 238
142 3 2 1 1 289 290 234 244
143 3 2 1 1 202 238 297 268
144 3 2 1 1 265 291 272 257
145 3 2 1 1 206 257 272 314
146 3 2 1 1 266 267 273 323
147 3 2 1 1 314 342 307 286
148 3 2 1 1 289 354 317 290
149 3 2 1 1 350 349 291 323
150 3 2 1 1 347 379 354 318
151 3 2 1 1 365 389 370 337
152 3 2 1 1 384 371 340 390
153 3 2 1 1 360 382 365 380
154 3 2 1 1 369 387 415 397
155 3 2 1 1 413 427 417 393
156 3 2 1 1 434 424 401 426
157 3 2 1 1 427 437 436 417
158 3 2 1 1 120 6 7 104
159 3 2 1 1 1 6 120 81
160 3 2 1 1 7 8 142 104
161 3 2 1 1 16 110 143 15
162 3 2 1 1 137 19 20 111
163 3 2 1 1 159 111 20 21
164 3 2 1 1 30 87 144 29
165 3 2 1 1 31 32 101 138
166 3 2 1 1 133 118 33 34
167 3 2 1 1 34 35 82 133
168 3 2 1 1 3 44 105 43
169 3 2 1 1 139 105 44 45
170 3 2 1 1 46 98 139 45
171 3 2 1 1 46 47 146 98
172 3 2 1 1 48 113 146 47
173 3 2 1 1 50 85 147 49
174 3 2 1 1 52 114 140 51
175 3 2 1 1 106 63 64 99
176 3 2 1 1 64 65 116 99
177 3 2 1 1 65 66 117 116
178 3 2 1 1 68 93 149 67
179 3 2 1 1 66 67 149 117
180 3 2 1 1 75 76 156 119
181 3 2 1 1 140 186 230 85
182 3 2 1 1 211 173 156 90
183 3 2 1 1 149 93 192 168
184 3 2 1 1 198 142 94 223
185 3 2 1 1 146 176 236 98
186 3 2 1 1 214 195 138 101
187 3 2 1 1 136 184 187 102
188 3 2 1 1 152 102 187 222
189 3 2 1 1 150 103 169 221
190 3 2 1 1 160 104 142 198
191 3 2 1 1 178 219 135 109
192 3 2 1 1 217 188 112 144
193 3 2 1 1 151 112 188 171
194 3 2 1 1 147 166 225 113
195 3 2 1 1 146 113 225 176
196 3 2 1 1 186 140 114 162
197 3 2 1 1 155 170 196 115
198 3 2 1 1 148 115 196 226
199 3 2 1 1 101 118 191 214
200 3 2 1 1 253 215 190 124
201 3 2 1 1 182 201 229 125
202 3 2 1 1 189 125 229 246
203 3 2 1 1 236 213 128 200
204 3 2 1 1 89 129 235 172
205 3 2 1 1 82 190 231 133
206 3 2 1 1 118 133 231 191
207 3 2 1 1 85 230 166 147
208 3 2 1 1 86 154 227 165
209 3 2 1 1 121 189 227 154
210 3 2 1 1 95 180 232 159
211 3 2 1 1 157 160 198 175
212 3 2 1 1 222 247 203 162
213 3 2 1 1 205 165 227 264
214 3 2 1 1 183 168 210 251
215 3 2 1 1 285 243 221 169
216 3 2 1 1 180 194 171 218
217 3 2 1 1 157 175 208 174
218 3 2 1 1 223 212 175 198
219 3 2 1 1 241 176 225 282
220 3 2 1 1 224 263 201 182
221 3 2 1 1 162 203 249 186
222 3 2 1 1 230 186 249 295
223 3 2 1 1 184 207 262 187
224 3 2 1 1 247 222 187 262
225 3 2 1 1 171 188 252 218
226 3 2 1 1 215 267 231 190
227 3 2 1 1 266 265 214 191
228 3 2 1 1 165 205 250 193
229 3 2 1 1 237 201 263 278
230 3 2 1 1 250 205 325 279
231 3 2 1 1 262 207 293 312
232 3 2 1 1 174 208 258 211
233 3 2 1 1 175 212 248 208
234 3 2 1 1 256 209 288 320
235 3 2 1 1 176 241 213 236
236 3 2 1 1 287 273 267 215
237 3 2 1 1 259 218 252 300
238 3 2 1 1 166 239 282 225
239 3 2 1 1 167 226 298 255
240 3 2 1 1 246 229 294 321
241 3 2 1 1 166 230 295 239
242 3 2 1 1 191 231 267 266
243 3 2 1 1 199 270 296 235
244 3 2 1 1 213 241 281 270
245 3 2 1 1 258 299 289 244
246 3 2 1 1 212 250 279 248
247 3 2 1 1 208 248 299 258
248 3 2 1 1 203 302 327 249
249 3 2 1 1 295 249 327 310
250 3 2 1 1 215 253 292 287
251 3 2 1 1 210 260 284 319
252 3 2 1 1 322 278 263 261
253 3 2 1 1 240 275 322 261
254 3 2 1 1 323 291 265 266
255 3 2 1 1 323 273 304 350
256 3 2 1 1 248 279 318 299
257 3 2 1 1 243 285 353 315
258 3 2 1 1 245 326 353 285
259 3 2 1 1 273 287 329 304
260 3 2 1 1 272 291 349 306
261 3 2 1 1 287 292 351 329
262 3 2 1 1 336 312 293 341
263 3 2 1 1 237 303 339 294
264 3 2 1 1 321 294 339 374
265 3 2 1 1 239 295 310 346
266 3 2 1 1 331 362 350 304
267 3 2 1 1 392 360 306 349
268 3 2 1 1 376 366 308 348
269 3 2 1 1 346 310 363 377
270 3 2 1 1 279 325 347 318
271 3 2 1 1 274 321 374 335
272 3 2 1 1 275 337 370 322
273 3 2 1 1 292 324 372 351
274 3 2 1 1 310 327 333 363
275 3 2 1 1 368 361 328 352
276 3 2 1 1 303 338 385 358
277 3 2 1 1 303 358 394 339
278 3 2 1 1 336 341 399 359
279 3 2 1 1 343 367 376 345
280 3 2 1 1 311 346 377 355
281 3 2 1 1 334 355 377 369
282 3 2 1 1 411 394 358 401
283 3 2 1 1 392 404 382 360
284 3 2 1 1 410 389 365 382
285 3 2 1 1 366 376 367 391
286 3 2 1 1 334 369 397 372
287 3 2 1 1 351 372 397 373
288 3 2 1 1 410 382 404 423
289 3 2 1 1 14 83 121 13
290 3 2 1 1 151 27 28 112
291 3 2 1 1 144 112 28 29
292 3 2 1 1 101 32 33 118
293 3 2 1 1 152 114 52 53
294 3 2 1 1 54 102 152 53
295 3 2 1 1 69 70 103 150
296 3 2 1 1 109 135 71 72
297 3 2 1 1 122 124 190 82
298 3 2 1 1 189 121 83 125
299 3 2 1 1 193 153 86 165
300 3 2 1 1 235 129 96 199
301 3 2 1 1 194 100 151 171
302 3 2 1 1 238 305 352 297
303 3 2 1 1 371 353 326 340
304 3 2 1 1 390 340 328 361
305 3 2 1 1 430 421 395 403
306 3 2 1 1 348 5 345 376
307 3 2 1 1 142 8 9 94
308 3 2 1 1 11 86 153 10
309 3 2 1 1 9 10 153 94
310 3 2 1 1 11 12 154 86
311 3 2 1 1 13 121 154 12
312 3 2 1 1 143 83 14 15
313 3 2 1 1 23 24 108 134
314 3 2 1 1 108 25 26 100
315 3 2 1 1 26 27 151 100
316 3 2 1 1 36 122 82 35
317 3 2 1 1 129 89 38 39
318 3 2 1 1 37 38 89 158
319 3 2 1 1 148 57 58 115
320 3 2 1 1 155 115 58 59
321 3 2 1 1 135 103 70 71
322 3 2 1 1 119 84 74 75
323 3 2 1 1 156 76 77 90
324 3 2 1 1 130 90 77 78
325 3 2 1 1 172 179 158 89
326 3 2 1 1 170 155 92 233
327 3 2 1 1 223 94 153 193
328 3 2 1 1 160 157 97 107
329 3 2 1 1 108 100 194 134
330 3 2 1 1 122 158 179 124
331 3 2 1 1 124 179 204 253
332 3 2 1 1 172 269 204 179
333 3 2 1 1 294 229 201 237
334 3 2 1 1 302 203 247 271
335 3 2 1 1 325 205 264 274
336 3 2 1 1 255 277 293 207
337 3 2 1 1 317 305 238 290
338 3 2 1 1 342 314 272 306
339 3 2 1 1 344 337 275 313
340 3 2 1 1 269 296 330 276
341 3 2 1 1 372 324 276 334
342 3 2 1 1 341 293 277 308
343 3 2 1 1 348 308 277 316
344 3 2 1 1 352 328 280 297
345 3 2 1 1 270 281 330 296
346 3 2 1 1 355 330 281 311
347 3 2 1 1 286 307 283 300
348 3 2 1 1 5 319 284 345
349 3 2 1 1 380 344 307 342
350 3 2 1 1 399 341 308 366
351 3 2 1 1 305 317 364 332
352 3 2 1 1 304 329 375 331
353 3 2 1 1 351 373 375 329
354 3 2 1 1 337 344 380 365
355 3 2 1 1 317 354 379 364
356 3 2 1 1 332 383 413 368
357 3 2 1 1 331 375 395 381
358 3 2 1 1 373 403 395 375
359 3 2 1 1 421 400 381 395
360 3 2 1 1 358 385 426 401
361 3 2 1 1 389 410 426 385
362 3 2 1 1 428 409 393 417
363 3 2 1 1 381 400 420 408
364 3 2 1 1 391 405 429 416
365 3 2 1 1 409 428 429 405
366 3 2 1 1 383 412 427 413
367 3 2 1 1 411 425 412 414
368 3 2 1 1 412 425 437 427
369 3 2 1 1 424 435 437 425
370 3 2 1 1 435 439 436 437
371 3 2 1 1 40 41 123 96
372 3 2 1 1 318 354 289 299
373 3 2 1 1 280 328 340 326
374 3 2 1 1 378 396 364 379
375 3 2 1 1 361 368 413 393
376 3 2 1 1 158 122 36 37
377 3 2 1 1 107 97 79 80
378 3 2 1 1 302 356 333 327
379 3 2 1 1 408 362 331 381
380 3 2 1 1 369 377 363 387
381 3 2 1 1 333 398 387 363
382 3 2 1 1 332 364 396 383
383 3 2 1 1 415 403 373 397
384 3 2 1 1 145 123 41 42
385 3 2 1 1 61 62 106 131
386 3 2 1 1 199 96 123 128
387 3 2 1 1 357 402 407 398
388 3 2 1 1 429 418 406 416
389 3 2 1 1 428 431 418 429
390 3 2 1 1 403 415 407 430
391 3 2 1 1 430 407 402 419
392 3 2 1 1 422 433 419 402
393 3 2 1 1 416 406 359 399
394 3 2 1 1 421 430 419 438
395 3 2 1 1 400 421 438 432
396 3 2 1 1 433 418 431 440
397 3 2 1 1 309 336 359 388
398 3 2 1 1 406 422 388 359
399 3 2 1 1 356 302 271 309
400 3 2 1 1 420 400 432 441
401 3 2 2 2 847 871 860 844
402 3 2 2 2 882 874 869 880
403 3 2 2 2 842 861 873 869
404 3 2 2 2 882 880 868 879
405 3 2 2 2 826 824 845 848
406 3 2 2 2 877 879 870 881
407 3 2 2 2 869 873 872 880
408 3 2 2 2 627 572 654 663
409 3 2 2 2 844 829 830 847
410 3 2 2 2 802 827 807 811
411 3 2 2 2 626 582 547 575
412 3 2 2 2 685 754 726 696
413 3 2 2 2 725 647 694 722
414 3 2 2 2 580 463 462 540
415 3 2 2 2 871 881 875 860
416 3 2 2 2 482 581 541 481
417 3 2 2 2 520 582 530 519
418 3 2 2 2 575 537 580 627
419 3 2 2 2 589 554 664 618
420 3 2 2 2 575 627 663 626
421 3 2 2 2 666 727 686 636
422 3 2 2 2 727 782 751 686
423 3 2 2 2 806 782 747 772
424 3 2 2 2 597 641 613 539
425 3 2 2 2 728 611 669 688
426 3 2 2 2 616 665 696 655
427 3 2 2 2 458 583 526 459
428 3 2 2 2 560 644 568 525
429 3 2 2 2 526 609 666 588
430 3 2 2 2 667 687 697 640
431 3 2 2 2 697 687 757 730
432 3 2 2 2 830 829 812 804
433 3 2 2 2 627 580 540 572
434 3 2 2 2 591 639 633 548
435 3 2 2 2 695 710 612 668
436 3 2 2 2 706 647 725 769
437 3 2 2 2 608 655 683 733
438 3 2 2 2 683 655 696 726
439 3 2 2 2 688 676 716 766
440 3 2 2 2 706 769 716 676
441 3 2 2 2 653 693 735 715
442 3 2 2 2 695 729 759 710
443 3 2 2 2 692 715 735 763
444 3 2 2 2 500 501 539 579
445 3 2 2 2 675 634 577 614
446 3 2 2 2 695 668 626 663
447 3 2 2 2 810 786 798 760
448 3 2 2 2 514 586 544 513
449 3 2 2 2 547 549 537 575
450 3 2 2 2 631 677 701 648
451 3 2 2 2 693 652 734 735
452 3 2 2 2 755 732 737 719
453 3 2 2 2 873 845 863 872
454 3 2 2 2 845 873 861 848
455 3 2 2 2 524 585 669 611
456 3 2 2 2 452 557 532 453
457 3 2 2 2 537 549 465 464
458 3 2 2 2 477 478 527 584
459 3 2 2 2 538 483 484 550
460 3 2 2 2 494 495 591 548
461 3 2 2 2 547 521 522 549
462 3 2 2 2 666 636 562 588
463 3 2 2 2 599 566 638 619
464 3 2 2 2 696 665 615 685
465 3 2 2 2 619 638 659 711
466 3 2 2 2 703 648 717 739
467 3 2 2 2 756 747 684 736
468 3 2 2 2 752 817 794 724
469 3 2 2 2 751 775 759 729
470 3 2 2 2 755 783 764 732
471 3 2 2 2 690 733 787 753
472 3 2 2 2 717 764 783 748
473 3 2 2 2 780 754 791 808
474 3 2 2 2 826 772 813 824
475 3 2 2 2 808 775 806 839
476 3 2 2 2 753 787 831 803
477 3 2 2 2 784 812 829 802
478 3 2 2 2 828 816 815 851
479 3 2 2 2 803 831 862 849
480 3 2 2 2 880 872 858 868
481 3 2 2 2 616 586 523 665
482 3 2 2 2 610 584 527 631
483 3 2 2 2 668 612 592 530
484 3 2 2 2 538 550 564 577
485 3 2 2 2 529 551 569 628
486 3 2 2 2 525 568 639 591
487 3 2 2 2 531 579 682 630
488 3 2 2 2 526 583 672 609
489 3 2 2 2 542 593 673 620
490 3 2 2 2 666 609 684 727
491 3 2 2 2 629 653 613 641
492 3 2 2 2 702 698 620 673
493 3 2 2 2 672 620 698 736
494 3 2 2 2 568 647 706 639
495 3 2 2 2 633 676 688 669
496 3 2 2 2 659 674 690 742
497 3 2 2 2 770 724 794 797
498 3 2 2 2 786 744 763 798
499 3 2 2 2 457 456 593 542
500 3 2 2 2 526 588 460 459
501 3 2 2 2 543 476 477 584
502 3 2 2 2 525 591 495 496
503 3 2 2 2 600 615 665 523
504 3 2 2 2 582 626 668 530
505 3 2 2 2 583 542 620 672
506 3 2 2 2 633 639 706 676
507 3 2 2 2 684 747 782 727
508 3 2 2 2 853 867 857 823
509 3 2 2 2 851 866 854 828
510 3 2 2 2 458 457 542 583
511 3 2 2 2 558 471 472 533
512 3 2 2 2 589 533 472 473
513 3 2 2 2 476 543 594 475
514 3 2 2 2 527 478 479 590
515 3 2 2 2 502 503 545 597
516 3 2 2 2 515 523 586 514
517 3 2 2 2 617 594 543 670
518 3 2 2 2 584 610 670 543
519 3 2 2 2 601 555 544 567
520 3 2 2 2 586 616 567 544
521 3 2 2 2 597 545 598 641
522 3 2 2 2 637 635 552 587
523 3 2 2 2 593 552 635 673
524 3 2 2 2 594 617 664 554
525 3 2 2 2 671 615 600 556
526 3 2 2 2 592 612 671 556
527 3 2 2 2 577 564 595 614
528 3 2 2 2 555 601 638 566
529 3 2 2 2 608 567 616 655
530 3 2 2 2 694 647 568 644
531 3 2 2 2 527 590 677 631
532 3 2 2 2 567 608 674 601
533 3 2 2 2 690 674 608 733
534 3 2 2 2 631 648 703 610
535 3 2 2 2 700 670 610 703
536 3 2 2 2 671 612 710 738
537 3 2 2 2 621 630 692 651
538 3 2 2 2 682 715 692 630
539 3 2 2 2 650 702 673 635
540 3 2 2 2 572 636 686 654
541 3 2 2 2 635 637 705 650
542 3 2 2 2 702 650 721 765
543 3 2 2 2 705 771 721 650
544 3 2 2 2 686 751 729 654
545 3 2 2 2 615 671 738 685
546 3 2 2 2 651 692 763 744
547 3 2 2 2 703 739 758 700
548 3 2 2 2 698 702 765 718
549 3 2 2 2 738 710 759 791
550 3 2 2 2 760 723 767 779
551 3 2 2 2 749 781 769 725
552 3 2 2 2 685 738 791 754
553 3 2 2 2 811 807 748 783
554 3 2 2 2 801 785 748 807
555 3 2 2 2 782 806 775 751
556 3 2 2 2 758 777 817 752
557 3 2 2 2 793 753 803 835
558 3 2 2 2 747 756 813 772
559 3 2 2 2 822 841 834 773
560 3 2 2 2 820 773 834 853
561 3 2 2 2 804 776 809 830
562 3 2 2 2 821 838 837 778
563 3 2 2 2 814 838 821 789
564 3 2 2 2 788 799 833 819
565 3 2 2 2 831 800 842 862
566 3 2 2 2 835 855 841 805
567 3 2 2 2 772 826 839 806
568 3 2 2 2 794 817 825 815
569 3 2 2 2 836 818 848 861
570 3 2 2 2 862 874 859 849
571 3 2 2 2 867 878 877 857
572 3 2 2 2 452 451 606 557
573 3 2 2 2 532 587 454 453
574 3 2 2 2 455 454 587 552
575 3 2 2 2 456 455 552 593
576 3 2 2 2 588 562 461 460
577 3 2 2 2 443 465 549 522
578 3 2 2 2 469 534 553 468
579 3 2 2 2 471 558 607 470
580 3 2 2 2 594 554 474 475
581 3 2 2 2 473 474 554 589
582 3 2 2 2 444 485 550 484
583 3 2 2 2 564 550 485 486
584 3 2 2 2 486 487 595 564
585 3 2 2 2 596 559 490 491
586 3 2 2 2 489 490 559 551
587 3 2 2 2 497 498 604 560
588 3 2 2 2 445 504 545 503
589 3 2 2 2 504 505 598 545
590 3 2 2 2 566 511 512 555
591 3 2 2 2 512 513 544 555
592 3 2 2 2 523 515 516 600
593 3 2 2 2 516 517 556 600
594 3 2 2 2 599 619 678 528
595 3 2 2 2 614 595 529 628
596 3 2 2 2 630 621 604 531
597 3 2 2 2 587 532 570 637
598 3 2 2 2 589 618 571 533
599 3 2 2 2 636 572 540 562
600 3 2 2 2 581 634 573 541
601 3 2 2 2 633 669 585 548
602 3 2 2 2 559 640 569 551
603 3 2 2 2 532 557 624 570
604 3 2 2 2 533 571 645 558
605 3 2 2 2 667 640 559 596
606 3 2 2 2 541 573 632 563
607 3 2 2 2 536 576 629 565
608 3 2 2 2 641 598 565 629
609 3 2 2 2 624 714 656 570
610 3 2 2 2 645 571 713 660
611 3 2 2 2 634 675 658 573
612 3 2 2 2 653 629 576 693
613 3 2 2 2 623 652 693 576
614 3 2 2 2 563 632 677 590
615 3 2 2 2 659 638 601 674
616 3 2 2 2 560 604 621 644
617 3 2 2 2 558 645 625 607
618 3 2 2 2 736 684 609 672
619 3 2 2 2 728 687 667 611
620 3 2 2 2 699 664 617 731
621 3 2 2 2 670 700 731 617
622 3 2 2 2 664 699 657 618
623 3 2 2 2 571 618 657 713
624 3 2 2 2 678 619 711 691
625 3 2 2 2 644 621 651 694
626 3 2 2 2 569 649 704 628
627 3 2 2 2 614 628 704 675
628 3 2 2 2 573 658 689 632
629 3 2 2 2 701 677 632 689
630 3 2 2 2 570 656 705 637
631 3 2 2 2 569 640 697 649
632 3 2 2 2 730 719 649 697
633 3 2 2 2 623 678 691 652
634 3 2 2 2 691 723 734 652
635 3 2 2 2 732 689 658 737
636 3 2 2 2 675 704 737 658
637 3 2 2 2 742 767 711 659
638 3 2 2 2 766 792 728 688
639 3 2 2 2 767 723 691 711
640 3 2 2 2 731 752 724 699
641 3 2 2 2 657 699 724 770
642 3 2 2 2 752 731 700 758
643 3 2 2 2 648 701 764 717
644 3 2 2 2 689 732 764 701
645 3 2 2 2 649 719 737 704
646 3 2 2 2 656 714 743 741
647 3 2 2 2 750 720 768 774
648 3 2 2 2 725 722 761 749
649 3 2 2 2 719 730 790 755
650 3 2 2 2 757 784 790 730
651 3 2 2 2 723 760 798 734
652 3 2 2 2 735 734 798 763
653 3 2 2 2 717 748 785 739
654 3 2 2 2 777 758 739 785
655 3 2 2 2 750 788 762 740
656 3 2 2 2 740 762 741 743
657 3 2 2 2 767 742 793 779
658 3 2 2 2 783 755 790 811
659 3 2 2 2 810 760 779 805
660 3 2 2 2 741 762 796 771
661 3 2 2 2 819 796 762 788
662 3 2 2 2 797 816 774 768
663 3 2 2 2 799 774 816 828
664 3 2 2 2 811 790 784 802
665 3 2 2 2 819 814 789 796
666 3 2 2 2 816 797 794 815
667 3 2 2 2 807 827 856 801
668 3 2 2 2 824 837 863 845
669 3 2 2 2 876 864 843 875
670 3 2 2 2 832 852 858 846
671 3 2 2 2 850 859 878 867
672 3 2 2 2 879 868 865 870
673 3 2 2 2 865 866 876 870
674 3 2 2 2 875 881 870 876
675 3 2 2 2 882 879 877 878
676 3 2 2 2 743 709 446 740
677 3 2 2 2 750 740 446 720
678 3 2 2 2 469 470 607 534
679 3 2 2 2 590 479 480 563
680 3 2 2 2 548 585 493 494
681 3 2 2 2 598 505 506 565
682 3 2 2 2 566 599 510 511
683 3 2 2 2 556 517 518 592
684 3 2 2 2 611 667 596 524
685 3 2 2 2 625 574 534 607
686 3 2 2 2 557 606 646 624
687 3 2 2 2 645 660 661 625
688 3 2 2 2 771 705 656 741
689 3 2 2 2 713 657 770 745
690 3 2 2 2 660 713 745 707
691 3 2 2 2 687 728 792 757
692 3 2 2 2 788 750 774 799
693 3 2 2 2 784 757 792 812
694 3 2 2 2 827 802 829 844
695 3 2 2 2 815 825 864 851
696 3 2 2 2 837 838 846 863
697 3 2 2 2 868 858 852 865
698 3 2 2 2 881 871 857 877
699 3 2 2 2 708 707 720 446
700 3 2 2 2 442 466 546 447
701 3 2 2 2 447 546 602 448
702 3 2 2 2 449 448 602 561
703 3 2 2 2 450 449 561 535
704 3 2 2 2 450 535 606 451
705 3 2 2 2 562 540 462 461
706 3 2 2 2 466 467 603 546
707 3 2 2 2 468 553 603 467
708 3 2 2 2 563 480 481 541
709 3 2 2 2 595 487 488 529
710 3 2 2 2 551 529 488 489
711 3 2 2 2 585 524 492 493
712 3 2 2 2 491 492 524 596
713 3 2 2 2 560 525 496 497
714 3 2 2 2 604 498 499 531
715 3 2 2 2 579 531 499 500
716 3 2 2 2 565 506 507 536
717 3 2 2 2 509 528 605 508
718 3 2 2 2 507 508 605 536
719 3 2 2 2 599 528 509 510
720 3 2 2 2 592 518 519 530
721 3 2 2 2 678 623 605 528
722 3 2 2 2 634 581 538 577
723 3 2 2 2 534 574 622 553
724 3 2 2 2 535 561 642 578
725 3 2 2 2 625 661 679 574
726 3 2 2 2 536 605 623 576
727 3 2 2 2 535 578 646 606
728 3 2 2 2 646 578 680 662
729 3 2 2 2 546 603 643 602
730 3 2 2 2 561 602 643 642
731 3 2 2 2 553 622 643 603
732 3 2 2 2 643 622 681 642
733 3 2 2 2 574 679 681 622
734 3 2 2 2 646 662 714 624
735 3 2 2 2 578 642 681 680
736 3 2 2 2 663 654 729 695
737 3 2 2 2 660 707 708 661
738 3 2 2 2 743 714 662 709
739 3 2 2 2 681 679 712 680
740 3 2 2 2 661 708 712 679
741 3 2 2 2 662 680 712 709
742 3 2 2 2 651 744 722 694
743 3 2 2 2 718 756 736 698
744 3 2 2 2 446 709 712 708
745 3 2 2 2 781 776 716 769
746 3 2 2 2 756 718 778 813
747 3 2 2 2 707 745 768 720
748 3 2 2 2 821 765 721 789
749 3 2 2 2 796 789 721 771
750 3 2 2 2 754 780 795 726
751 3 2 2 2 683 746 787 733
752 3 2 2 2 690 753 793 742
753 3 2 2 2 797 768 745 770
754 3 2 2 2 808 791 759 775
755 3 2 2 2 749 761 822 773
756 3 2 2 2 786 810 822 761
757 3 2 2 2 718 765 821 778
758 3 2 2 2 716 776 804 766
759 3 2 2 2 812 792 766 804
760 3 2 2 2 749 773 820 781
761 3 2 2 2 785 801 840 777
762 3 2 2 2 825 817 777 840
763 3 2 2 2 813 778 837 824
764 3 2 2 2 839 818 780 808
765 3 2 2 2 776 781 820 809
766 3 2 2 2 746 800 831 787
767 3 2 2 2 779 793 835 805
768 3 2 2 2 746 795 836 800
769 3 2 2 2 780 818 836 795
770 3 2 2 2 855 835 803 849
771 3 2 2 2 805 841 822 810
772 3 2 2 2 833 832 814 819
773 3 2 2 2 809 820 853 823
774 3 2 2 2 864 825 840 843
775 3 2 2 2 844 860 856 827
776 3 2 2 2 799 828 854 833
777 3 2 2 2 814 832 846 838
778 3 2 2 2 832 833 854 852
779 3 2 2 2 801 856 843 840
780 3 2 2 2 834 841 855 850
781 3 2 2 2 874 862 842 869
782 3 2 2 2 856 860 875 843
783 3 2 2 2 858 872 863 846
784 3 2 2 2 823 857 871 847
785 3 2 2 2 834 850 867 853
786 3 2 2 2 849 859 850 855
787 3 2 2 2 866 851 864 876
788 3 2 2 2 866 865 852 854
789 3 2 2 2 878 859 874 882
790 3 2 2 2 580 537 464 463
791 3 2 2 2 744 786 761 722
792 3 2 2 2 683 726 795 746
793 3 2 2 2 861 842 800 836
794 3 2 2 2 847 830 809 823
795 3 2 2 2 597 539 501 502
796 3 2 2 2 539 613 682 579
797 3 2 2 2 715 682 613 653
798 3 2 2 2 818 839 826 848
799 3 2 2 2 483 538 581 482
800 3 2 2 2 521 547 582 520
$EndElements
