$MeshFormat
2.2 0 8
$EndMeshFormat
$Nodes
50
1 0 0 0
2 0 0 150
3 0 0 1450
4 0 0 1600
5 800 0 1600
6 800 0 1450
7 800 0 150
8 800 0 0
9 0 0 335.714285714286
10 0 0 521.428571428571
11 0 0 707.142857142857
12 0 0 892.857142857143
13 0 0 1078.57142857143
14 0 0 1264.28571428571
15 200 0 1600
16 400 0 1600
17 600 0 1600
18 800 0 1264.28571428571
19 800 0 1078.57142857143
20 800 0 892.857142857143
21 800 0 707.142857142857
22 800 0 521.428571428572
23 800 0 335.714285714286
24 600 0 0
25 400 0 0
26 200 0 0
27 602.521794758689 0 892.57461505016
28 197.440408671129 0 528.204922694476
29 201.843304519968 0 1071.03970434985
30 599.285672666682 0 529.499488258721
31 202.98652863886 0 1429.26520659745
32 597.947119752414 0 170.438104804361
33 396.944396269436 0 173.854309920432
34 197.113148990955 0 346.048157938272
35 404.43117468725 0 1425.81228068757
36 604.798142630425 0 1253.80536178066
37 199.947748999512 0 891.449965020983
38 602.794264558012 0 1430.69714951334
39 198.100929936795 0 169.144410406362
40 404.129130998885 0 1069.97003997049
41 600.428347086201 0 711.216566433293
42 198.939637274076 0 710.533655046142
43 603.329324358432 0 1073.59871445326
44 203.133427103995 0 1253.00296707777
45 598.195510590104 0 346.978614233352
46 404.499854705249 0 1249.91268255085
47 397.27331450503 0 350.454949914752
48 398.268710750619 0 530.827683484008
49 401.357611713418 0 891.968183123555
50 399.63134529228 0 711.745542727201
$EndNodes
$Elements
36
1 3 2 1 1 46 35 38 36
2 3 2 1 1 47 33 39 34
3 3 2 1 1 40 43 27 49
4 3 2 1 1 50 49 27 41
5 3 2 1 1 4 15 31 3
6 3 2 1 1 8 24 32 7
7 3 2 1 1 48 47 34 28
8 3 2 1 1 46 44 31 35
9 3 2 1 1 47 45 32 33
10 3 2 1 1 7 32 45 23
11 3 2 1 1 3 31 44 14
12 3 2 1 1 17 5 6 38
13 3 2 1 1 26 1 2 39
14 3 2 1 1 29 13 14 44
15 3 2 1 1 30 22 23 45
16 3 2 1 1 38 35 16 17
17 3 2 1 1 31 15 16 35
18 3 2 1 1 32 24 25 33
19 3 2 1 1 39 33 25 26
20 3 2 1 1 48 28 42 50
21 3 2 1 1 34 9 10 28
22 3 2 1 1 10 11 42 28
23 3 2 1 1 50 41 30 48
24 3 2 1 1 12 37 42 11
25 3 2 1 1 12 13 29 37
26 3 2 1 1 27 20 21 41
27 3 2 1 1 21 22 30 41
28 3 2 1 1 50 42 37 49
29 3 2 1 1 37 29 40 49
30 3 2 1 1 47 48 30 45
31 3 2 1 1 46 40 29 44
32 3 2 1 1 40 46 36 43
33 3 2 1 1 20 27 43 19
34 3 2 1 1 19 43 36 18
35 3 2 1 1 18 36 38 6
36 3 2 1 1 9 34 39 2
$EndElements
