$MeshFormat
2.2 0 8
$EndMeshFormat
$Nodes
231
1 0 0 0
2 100 0 0
3 100 200 0
4 0 200 0
5 10 0 0
6 20 0 0
7 30 0 0
8 40 0 0
9 50 0 0
10 60 0 0
11 70 0 0
12 80 0 0
13 90 0 0
14 100 10 0
15 100 20 0
16 100 30 0
17 100 40 0
18 100 50 0
19 100 60 0
20 100 70 0
21 100 80 0
22 100 90 0
23 100 100 0
24 100 110 0
25 100 120 0
26 100 130 0
27 100 140 0
28 100 150 0
29 100 160 0
30 100 170 0
31 100 180 0
32 100 190 0
33 90 200 0
34 80 200 0
35 70 200 0
36 60 200 0
37 50 200 0
38 40 200 0
39 30 200 0
40 20 200 0
41 10 200 0
42 0 190 0
43 0 180 0
44 0 170 0
45 0 160 0
46 0 150 0
47 0 140 0
48 0 130 0
49 0 120 0
50 0 110 0
51 0 100 0
52 0 90 0
53 0 80 0
54 0 70 0
55 0 60 0
56 0 50 0
57 0 40 0
58 0 30 0
59 0 20 0
60 0 10 0
61 10 80 0
62 90 120 0
63 90 60 0
64 10 150 0
65 10 120 0
66 60 10 0
67 10 50 0
68 90 150 0
69 30 190 0
70 40 10 0
71 60 190 0
72 90 170 0
73 9.99999999999999 30 0
74 90 20 0
75 90 80 0
76 10 180 0
77 20 10 0
78 90 190 0
79 10 100 0
80 10 20 0
81 90 100 0
82 80 10 0
83 90 30 0
84 90 40 0
85 70 190 0
86 40 190 0
87 10 70 0
88 90 130 0
89 10 10 0
90 90 10 0
91 10 190 0
92 10 170 0
93 10 140 0
94 20 80 0
95 80 120 0
96 20 150 0
97 30 180 0
98 60 180 0
99 80 30 0
100 90 160 0
101 10 40 0
102 90 90 0
103 10 110 0
104 90 70 0
105 90 110 0
106 10 90 0
107 20 180 0
108 30 10 0
109 70 10 0
110 90 50 0
111 90 180 0
112 80 190 0
113 20 190 0
114 10 130 0
115 80 20 0
116 90 140 0
117 10 160 0
118 10 60 0
119 20 30 0
120 50 10 0
121 50 190 0
122 20 20 0
123 80 60 0
124 80 80 0
125 20 120 0
126 80 170 0
127 50 20 0
128 20 60 0
129 20 40 0
130 20 160 0
131 50 180 0
132 80 140 0
133 70 180 0
134 80 160 0
135 20 90 0
136 80 100 0
137 70 20 0
138 80 40 0
139 20 140 0
140 80 110 0
141 40 20 0
142 30 30 0
143 20 70 0
144 80 180 0
145 20 110 0
146 20 170 0
147 80 130 0
148 30 20 0
149 40 180 0
150 30 80 0
151 70 120 0
152 30 150 0
153 30 110 0
154 30 40 0
155 40 170 0
156 20 50 0
157 50 30 0
158 40 30 0
159 80 70 0
160 30 70 0
161 60 170 0
162 70 170 0
163 80 90 0
164 20 130 0
165 80 50 0
166 30 170 0
167 70 30 0
168 70 110 0
169 60 20 0
170 80 150 0
171 20 100 0
172 70 130 0
173 40 80 0
174 70 60 0
175 70 80 0
176 60 120 0
177 30 60 0
178 30 100 0
179 30 50 0
180 70 40 0
181 60 30 0
182 30 140 0
183 30 120 0
184 50 170 0
185 70 140 0
186 30 90 0
187 30 160 0
188 50 40 0
189 60 160 0
190 70 100 0
191 70 160 0
192 40 40 0
193 40 110 0
194 40 150 0
195 60 40 0
196 50 160 0
197 70 50 0
198 40 90 0
199 40 160 0
200 70 70 0
201 60 150 0
202 40 60 0
203 40 70 0
204 30 130 0
205 70 90 0
206 60 110 0
207 60 130 0
208 40 50 0
209 70 150 0
210 50 80 0
211 50 70 0
212 40 130 0
213 60 50 0
214 60 80 0
215 60 60 0
216 50 120 0
217 50 60 0
218 50 150 0
219 60 140 0
220 40 120 0
221 40 140 0
222 40 100 0
223 50 50 0
224 60 100 0
225 50 90 0
226 50 100 0
227 50 110 0
228 50 130 0
229 60 90 0
230 60 70 0
231 50 140 0
$EndNodes
$Elements
200
1 3 2 1 1 223 188 195 213
2 3 2 1 1 210 214 229 225
3 3 2 1 1 217 215 230 211
4 3 2 1 1 220 216 228 212
5 3 2 1 1 225 229 224 226
6 3 2 1 1 226 224 206 227
7 3 2 1 1 214 210 211 230
8 3 2 1 1 215 217 223 213
9 3 2 1 1 126 144 133 162
10 3 2 1 1 94 143 160 150
11 3 2 1 1 101 73 119 129
12 3 2 1 1 156 179 177 128
13 3 2 1 1 198 186 150 173
14 3 2 1 1 211 210 173 203
15 3 2 1 1 111 144 126 72
16 3 2 1 1 213 197 174 215
17 3 2 1 1 80 122 119 73
18 3 2 1 1 75 102 163 124
19 3 2 1 1 188 157 181 195
20 3 2 1 1 123 159 200 174
21 3 2 1 1 230 215 174 200
22 3 2 1 1 196 199 194 218
23 3 2 1 1 51 52 106 79
24 3 2 1 1 23 24 105 81
25 3 2 1 1 29 30 72 100
26 3 2 1 1 57 58 73 101
27 3 2 1 1 67 101 129 156
28 3 2 1 1 63 123 165 110
29 3 2 1 1 197 180 138 165
30 3 2 1 1 218 194 221 231
31 3 2 1 1 228 207 219 231
32 3 2 1 1 201 218 231 219
33 3 2 1 1 59 60 89 80
34 3 2 1 1 81 105 140 136
35 3 2 1 1 139 164 204 182
36 3 2 1 1 181 167 180 195
37 3 2 1 1 53 61 106 52
38 3 2 1 1 159 123 63 104
39 3 2 1 1 144 112 85 133
40 3 2 1 1 6 7 108 77
41 3 2 1 1 10 11 109 66
42 3 2 1 1 104 63 19 20
43 3 2 1 1 25 62 105 24
44 3 2 1 1 88 26 27 116
45 3 2 1 1 31 32 78 111
46 3 2 1 1 86 38 39 69
47 3 2 1 1 87 54 55 118
48 3 2 1 1 135 106 61 94
49 3 2 1 1 86 69 97 149
50 3 2 1 1 134 100 72 126
51 3 2 1 1 80 89 77 122
52 3 2 1 1 108 148 122 77
53 3 2 1 1 111 78 112 144
54 3 2 1 1 164 139 93 114
55 3 2 1 1 62 95 140 105
56 3 2 1 1 187 130 96 152
57 3 2 1 1 182 152 96 139
58 3 2 1 1 184 161 98 131
59 3 2 1 1 159 124 175 200
60 3 2 1 1 167 181 169 137
61 3 2 1 1 129 154 179 156
62 3 2 1 1 202 203 160 177
63 3 2 1 1 89 5 6 77
64 3 2 1 1 1 5 89 60
65 3 2 1 1 7 8 70 108
66 3 2 1 1 9 120 70 8
67 3 2 1 1 12 82 109 11
68 3 2 1 1 15 16 83 74
69 3 2 1 1 16 17 84 83
70 3 2 1 1 19 63 110 18
71 3 2 1 1 17 18 110 84
72 3 2 1 1 20 21 75 104
73 3 2 1 1 22 23 81 102
74 3 2 1 1 3 33 78 32
75 3 2 1 1 33 34 112 78
76 3 2 1 1 38 86 121 37
77 3 2 1 1 39 40 113 69
78 3 2 1 1 120 66 169 127
79 3 2 1 1 109 137 169 66
80 3 2 1 1 156 128 118 67
81 3 2 1 1 116 68 170 132
82 3 2 1 1 100 134 170 68
83 3 2 1 1 97 69 113 107
84 3 2 1 1 148 108 70 141
85 3 2 1 1 120 127 141 70
86 3 2 1 1 85 71 98 133
87 3 2 1 1 115 82 90 74
88 3 2 1 1 83 99 115 74
89 3 2 1 1 104 75 124 159
90 3 2 1 1 92 146 107 76
91 3 2 1 1 102 81 136 163
92 3 2 1 1 137 109 82 115
93 3 2 1 1 83 84 138 99
94 3 2 1 1 165 138 84 110
95 3 2 1 1 121 86 149 131
96 3 2 1 1 61 87 143 94
97 3 2 1 1 62 88 147 95
98 3 2 1 1 166 155 149 97
99 3 2 1 1 162 133 98 161
100 3 2 1 1 137 115 99 167
101 3 2 1 1 180 167 99 138
102 3 2 1 1 65 103 145 125
103 3 2 1 1 97 107 146 166
104 3 2 1 1 88 116 132 147
105 3 2 1 1 165 123 174 197
106 3 2 1 1 158 141 127 157
107 3 2 1 1 157 127 169 181
108 3 2 1 1 149 155 184 131
109 3 2 1 1 147 132 185 172
110 3 2 1 1 141 158 142 148
111 3 2 1 1 194 199 187 152
112 3 2 1 1 142 158 192 154
113 3 2 1 1 196 184 155 199
114 3 2 1 1 166 187 199 155
115 3 2 1 1 157 188 192 158
116 3 2 1 1 150 160 203 173
117 3 2 1 1 184 196 189 161
118 3 2 1 1 124 163 205 175
119 3 2 1 1 219 207 172 185
120 3 2 1 1 152 182 221 194
121 3 2 1 1 204 212 221 182
122 3 2 1 1 212 204 183 220
123 3 2 1 1 216 220 193 227
124 3 2 1 1 173 210 225 198
125 3 2 1 1 10 66 120 9
126 3 2 1 1 102 75 21 22
127 3 2 1 1 35 85 112 34
128 3 2 1 1 79 103 50 51
129 3 2 1 1 113 91 76 107
130 3 2 1 1 168 140 95 151
131 3 2 1 1 178 171 135 186
132 3 2 1 1 171 178 153 145
133 3 2 1 1 178 222 193 153
134 3 2 1 1 161 189 191 162
135 3 2 1 1 154 192 208 179
136 3 2 1 1 177 179 208 202
137 3 2 1 1 197 213 195 180
138 3 2 1 1 153 193 220 183
139 3 2 1 1 203 202 217 211
140 3 2 1 1 82 12 13 90
141 3 2 1 1 2 14 90 13
142 3 2 1 1 15 74 90 14
143 3 2 1 1 88 62 25 26
144 3 2 1 1 116 27 28 68
145 3 2 1 1 100 68 28 29
146 3 2 1 1 71 85 35 36
147 3 2 1 1 37 121 71 36
148 3 2 1 1 113 40 41 91
149 3 2 1 1 4 42 91 41
150 3 2 1 1 43 76 91 42
151 3 2 1 1 43 44 92 76
152 3 2 1 1 46 64 117 45
153 3 2 1 1 44 45 117 92
154 3 2 1 1 47 93 64 46
155 3 2 1 1 93 47 48 114
156 3 2 1 1 49 65 114 48
157 3 2 1 1 103 65 49 50
158 3 2 1 1 87 61 53 54
159 3 2 1 1 118 55 56 67
160 3 2 1 1 101 67 56 57
161 3 2 1 1 96 64 93 139
162 3 2 1 1 125 164 114 65
163 3 2 1 1 131 98 71 121
164 3 2 1 1 106 135 171 79
165 3 2 1 1 128 143 87 118
166 3 2 1 1 172 151 95 147
167 3 2 1 1 64 96 130 117
168 3 2 1 1 92 117 130 146
169 3 2 1 1 145 153 183 125
170 3 2 1 1 164 125 183 204
171 3 2 1 1 143 128 177 160
172 3 2 1 1 170 209 185 132
173 3 2 1 1 209 170 134 191
174 3 2 1 1 94 150 186 135
175 3 2 1 1 205 163 136 190
176 3 2 1 1 140 168 190 136
177 3 2 1 1 207 176 151 172
178 3 2 1 1 151 176 206 168
179 3 2 1 1 190 168 206 224
180 3 2 1 1 230 200 175 214
181 3 2 1 1 227 206 176 216
182 3 2 1 1 186 198 222 178
183 3 2 1 1 201 219 185 209
184 3 2 1 1 223 208 192 188
185 3 2 1 1 218 201 189 196
186 3 2 1 1 227 193 222 226
187 3 2 1 1 175 205 229 214
188 3 2 1 1 190 224 229 205
189 3 2 1 1 202 208 223 217
190 3 2 1 1 231 221 212 228
191 3 2 1 1 198 225 226 222
192 3 2 1 1 79 171 145 103
193 3 2 1 1 187 166 146 130
194 3 2 1 1 189 201 209 191
195 3 2 1 1 111 72 30 31
196 3 2 1 1 80 73 58 59
197 3 2 1 1 148 142 119 122
198 3 2 1 1 154 129 119 142
199 3 2 1 1 126 162 191 134
200 3 2 1 1 228 216 176 207
$EndElements
