$MeshFormat
2.2 0 8
$EndMeshFormat
$Nodes
861
1 0 0 0
2 0 195 0
3 0 200 0
4 0 200 5
5 0 200 95
6 0 200 100
7 0 195 100
8 0 0 100
9 0 5 0
10 0 10 0
11 0 15 0
12 0 20 0
13 0 25 0
14 0 30 0
15 0 35 0
16 0 40 0
17 0 45 0
18 0 50 0
19 0 55 0
20 0 60 0
21 0 65 0
22 0 70 0
23 0 75 0
24 0 80 0
25 0 85 0
26 0 90 0
27 0 95 0
28 0 100 0
29 0 105 0
30 0 110 0
31 0 115 0
32 0 120 0
33 0 125 0
34 0 130 0
35 0 135 0
36 0 140 0
37 0 145 0
38 0 150 0
39 0 155 0
40 0 160 0
41 0 165 0
42 0 170 0
43 0 175 0
44 0 180 0
45 0 185 0
46 0 190 0
47 0 200 10
48 0 200 15
49 0 200 20
50 0 200 25
51 0 200 30
52 0 200 35
53 0 200 40
54 0 200 45
55 0 200 50
56 0 200 55
57 0 200 60
58 0 200 65
59 0 200 70
60 0 200 75
61 0 200 80
62 0 200 85
63 0 200 90
64 0 190 100
65 0 185 100
66 0 180 100
67 0 175 100
68 0 170 100
69 0 165 100
70 0 160 100
71 0 155 100
72 0 150 100
73 0 145 100
74 0 140 100
75 0 135 100
76 0 130 100
77 0 125 100
78 0 120 100
79 0 115 100
80 0 110 100
81 0 105 100
82 0 100 100
83 0 95 100
84 0 90 100
85 0 85 100
86 0 80 100
87 0 75 100
88 0 70 100
89 0 65 100
90 0 60 100
91 0 55 100
92 0 50 100
93 0 45 100
94 0 40 100
95 0 35 100
96 0 30 100
97 0 25 100
98 0 20 100
99 0 15 100
100 0 10 100
101 0 5 100
102 0 0 95
103 0 0 90
104 0 0 85
105 0 0 80
106 0 0 75
107 0 0 70
108 0 0 65
109 0 0 60
110 0 0 55
111 0 0 50
112 0 0 45
113 0 0 40
114 0 0 35
115 0 0 30
116 0 0 25
117 0 0 20
118 0 0 15
119 0 0 10
120 0 0 5
121 0 95 5
122 0 75.0002447791518 94.9996323419201
123 0 120 5
124 0 50 5
125 0 140 5
126 0 99.9085709466818 95.1965980095539
127 0 70 5
128 0 129.999730067649 95.0002595799906
129 0 55.000000132951 94.9999998422675
130 0 195 45
131 0 165 95
132 0 5 60
133 0 5 35
134 0 165 5
135 0 30 95
136 0 195 75
137 0 20 5
138 0 195 25
139 0 5 75
140 0 20 95
141 0 185 95
142 0 180 5
143 0 5 10
144 0 5 85
145 0 195 15
146 0 195 65
147 0 30 5
148 0 195 90
149 0 80 5
150 0 150 5
151 0 155 95
152 0 144.999999940773 95.0000000553839
153 0 119.992697200536 95.00715782642
154 0 45.0000000016414 94.9999999980527
155 0 195 5
156 0 10 95
157 0 195 85
158 0 100 5
159 0 125 5
160 0 70.0000986682844 94.9998732836949
161 0 40 5
162 0 5 15
163 0 195 55
164 0 110 5
165 0 84.9945073687018 95.0120509456829
166 0 5 5
167 0 10 5
168 0 85 5
169 0 195 35
170 0 114.975563746877 95.0275700464736
171 0 109.947149436627 95.0751828308204
172 0 5 95
173 0 5 40
174 0 5 45
175 0 5 25
176 0 180 95
177 0 195 95
178 0 60 5
179 0 130 5
180 0 155 5
181 0 185 5
182 0 175 95
183 0 139.999998962958 95.0000009697511
184 0 65.0000208423969 94.9999740655812
185 0 40.0000000002052 94.9999999997566
186 0 5 50
187 0 170 5
188 0 5 65
189 0 94.949156164755 95.1336153571062
190 0 95 10
191 0 120 10
192 0 75.0016856353994 89.9971828566173
193 0 144.999999591604 90.0000003839303
194 0 114.970026557102 90.0481809747033
195 0 10 45
196 0 45.0000000066168 89.9999999921499
197 0 150 10
198 0 10 60
199 0 170 10
200 0 99.8954447218203 90.359649378291
201 0 180 90
202 0 180 10
203 0 104.927840705626 95.1374479913305
204 0 25 95
205 0 195 80
206 0 45 5
207 0 10 10
208 0 115 5
209 0 175 5
210 0 79.9996942713285 95.0014825786671
211 0 195 70
212 0 90 5
213 0 105 5
214 0 160 5
215 0 89.9789562988379 95.0564074551361
216 0 35.0000000000257 94.9999999999696
217 0 10 35
218 0 195 50
219 0 25 5
220 0 5 30
221 0 15 5
222 0 35 5
223 0 10 90
224 0 65 5
225 0 75 5
226 0 135 5
227 0 195 60
228 0 124.998041878104 95.0019303256686
229 0 60.0000036855261 94.999995476621
230 0 5 90
231 0 5 80
232 0 5 55
233 0 190 90
234 0 125 10
235 0 70.0005404634758 89.9991785516231
236 0 190 95
237 0 5 70
238 0 55 5
239 0 145 5
240 0 190 5
241 0 195 10
242 0 195 20
243 0 170 95
244 0 160 95
245 0 149.999999967072 95.0000000309186
246 0 134.999952099305 95.000045820296
247 0 50.0000000336513 94.9999999600762
248 0 15 95
249 0 5 20
250 0 195 40
251 0 195 30
252 0 75.002495786492 84.992420627221
253 0 120 15
254 0 55 10
255 0 190 60
256 0 25 90
257 0 165 90
258 0 25 10
259 0 190 40
260 0 10 20
261 0 70 10
262 0 10 75
263 0 104.910584314829 90.2684207437939
264 0 105 10
265 0 89.9663781620199 90.1205544713678
266 0 190 75
267 0 15 10
268 0 45 10
269 0 10 30
270 0 10 50
271 0 15 90
272 0 190 85
273 0 134.999929434136 90.0000679755235
274 0 190 25
275 0 185 10
276 0 109.943785013796 90.1385783833679
277 0 115 10
278 0 80.0020135346378 89.9972575406485
279 0 90 10
280 0 100 10
281 0 10 15
282 0 30.0000000000032 89.9999999999962
283 0 190 70
284 0 119.989271456539 90.0145613146754
285 0 155 10
286 0 30 10
287 0 35 10
288 0 65.0001165583332 89.9998312242384
289 0 10 80
290 0 10 85
291 0 185 90
292 0 75 10
293 0 10 40
294 0 130 10
295 0 135 10
296 0 129.999372585304 90.0006411491481
297 0 60.000018400258 89.9999742642761
298 0 190 50
299 0 175 90
300 0 10 55
301 0 55.0000029044947 89.9999960564722
302 0 50.0000004038464 89.9999994586723
303 0 139.999986004173 90.0000134210661
304 0 10 65
305 0 140 10
306 0 145 10
307 0 165 10
308 0 190 15
309 0 154.999999997337 90.0000000024982
310 0 60 10
311 0 40.0000000010868 89.9999999987107
312 0 149.999999934749 90.0000000612881
313 0 190 10
314 0 190 35
315 0 175 10
316 0 94.9297621010549 90.2705604595518
317 0 95 15
318 0 55.0000035833771 84.9999947619148
319 0 144.999998200558 85.0000017245371
320 0 104.919551230103 85.3985699314625
321 0 75 15
322 0 140 15
323 0 15 55
324 0 15 35
325 0 185 40
326 0 170 15
327 0 25 15
328 0 185 75
329 0 25.0000000000003 84.9999999999996
330 0 94.8963290217499 85.423687723321
331 0 79.9971484685927 84.990343258385
332 0 115 15
333 0 180 85
334 0 15 85
335 0 150 15
336 0 15 15
337 0 45.0000000344327 84.9999999552613
338 0 134.999885832576 85.0001171772544
339 0 114.978290370825 85.0613870026645
340 0 50 10
341 0 20 10
342 0 100 15
343 0 20 90
344 0 15 75
345 0 124.996677037151 90.0039887169371
346 0 10 25
347 0 65 10
348 0 65.0001893076709 84.9996944869555
349 0 190 55
350 0 70.0009782968067 84.9977811804865
351 0 30 15
352 0 130 15
353 0 185 85
354 0 85 10
355 0 80 10
356 0 15 40
357 0 125 15
358 0 40 10
359 0 190 80
360 0 35.0000000001683 89.9999999998003
361 0 15 45
362 0 15 60
363 0 170 90
364 0 110 10
365 0 84.9909864083386 90.030652035495
366 0 185 15
367 0 160 10
368 0 10 70
369 0 190 20
370 0 159.999999999667 90.0000000003123
371 0 154.999999991489 85.0000000080004
372 0 190 65
373 0 190 30
374 0 190 45
375 0 175 15
376 0 55 15
377 0 95 20
378 0 74.998234386528 79.9903242853233
379 0 120 20
380 0 20 40
381 0 185 60
382 0 20 55
383 0 25 20
384 0 170 20
385 0 185 30
386 0 110 15
387 0 45 15
388 0 15 20
389 0 15 30
390 0 169.999999999999 85.0000000000008
391 0 15 65
392 0 84.9701081869261 85.0419648691703
393 0 99.8892034850639 85.5134862738238
394 0 85 15
395 0 105 15
396 0 185 80
397 0 90 15
398 0 129.999241969851 85.000924992675
399 0 15 80
400 0 20 85
401 0 145 15
402 0 60.0000466444969 84.9999252320887
403 0 80 15
404 0 180 15
405 0 35 15
406 0 20 15
407 0 185 55
408 0 70.0003591836334 79.9968928398254
409 0 40.0000000053886 84.999999993121
410 0 125 20
411 0 70 15
412 0 15 50
413 0 155 15
414 0 135 15
415 0 175 85.0000000000001
416 0 50.0000007444998 84.9999989540162
417 0 139.999975630365 85.0000244176323
418 0 60 15
419 0 15 70
420 0 159.999999998679 85.0000000012414
421 0 185 20
422 0 149.999999713464 85.0000002735788
423 0 119.990867500538 85.0190259693581
424 0 185 70
425 0 185 45
426 0 30.000000000022 84.9999999999739
427 0 185 35
428 0 165 15
429 0 89.9245019506346 85.1990510469221
430 0 109.952569111869 85.1912826989569
431 0 145 20
432 0 104.894254199137 80.4565332144555
433 0 74.9931579939751 74.9935430336774
434 0 120 25
435 0 144.999996847826 80.0000031658022
436 0 75 20
437 0 180 60
438 0 50.0000004841089 79.9999993433993
439 0 180 45
440 0 94.7990301311526 80.5502236838332
441 0 105 20
442 0 180 75
443 0 134.999879070802 80.0001470610924
444 0 180 35
445 0 20 70
446 0 25.0000000000021 79.9999999999975
447 0 180 20
448 0 20 45
449 0 20 60
450 0 165 20
451 0 114.982109331337 80.068391704677
452 0 85 20
453 0 100 20
454 0 180 80
455 0 50 15
456 0 90 20
457 0 175 20
458 0 135 20
459 0 45.0000001250756 79.999999830643
460 0 65.0002116083262 79.9991954448683
461 0 55.0000082439435 79.9999852243672
462 0 30 20
463 0 40 15
464 0 20 20
465 0 65 15
466 0 20 30
467 0 15 25
468 0 35.00000000084 84.9999999989427
469 0 20.0000000000003 79.9999999999997
470 0 164.999999999807 85.0000000001812
471 0 185 25
472 0 20 35
473 0 110 20
474 0 150 20
475 0 130 20
476 0 20 50
477 0 175 80.0000000000001
478 0 115 20
479 0 160 15
480 0 154.99999997215 80.0000000264893
481 0 185 50
482 0 79.9722893485052 79.9970163698148
483 0 124.996711834902 85.0054929580839
484 0 185 65
485 0 89.8403304347949 80.2744192078176
486 0 55.0000072875396 74.9999828370319
487 0 100 24.9999999999999
488 0 55 20
489 0 145 25
490 0 94.7070942808528 75.6432337679808
491 0 25 40
492 0 25.0000000000001 54.9999999999999
493 0 175 75
494 0 79.9552183590105 75.015524455099
495 0 90 24.9999999999999
496 0 170 25
497 0 45 20
498 0 180 65
499 0 180 25
500 0 130 25
501 0 180 55
502 0 155 20
503 0 99.828380442586 80.6055008796711
504 0 80 20
505 0 20.0000000000002 74.9999999999998
506 0 30 25
507 0 25 25
508 0 139.999969836326 80.0000340552519
509 0 140 20
510 0 35 20
511 0 50.0000016015298 74.9999967021291
512 0 60 20
513 0 70 20
514 0 69.9988997457185 74.9973078971325
515 0 20 25
516 0 30.0000000001 79.9999999998776
517 0 110 24.9999999999999
518 0 25.0000000000001 44.9999999999999
519 0 180 30
520 0 169.999999999985 80.000000000014
521 0 20 65
522 0 60.0000622683508 79.9998260751601
523 0 40.000000020413 79.9999999728536
524 0 159.999999995173 80.0000000045839
525 0 119.992207342343 80.0221916383383
526 0 129.999330920451 80.0011020037007
527 0 115 24.9999999999999
528 0 25 30
529 0 149.999999402159 80.0000005912702
530 0 125 25
531 0 180 50
532 0 180 40
533 0 180 70
534 0 160 20
535 0 84.9106564120592 80.0868180999403
536 0 109.948141194707 80.2105281813702
537 0 115.000000412002 30.0000053049205
538 0 74.9900980704671 70.0037319324239
539 0 60 25
540 0 134.999925933067 75.0001757946232
541 0 109.918873094172 75.2016769290425
542 0 55.000005035868 69.9999821950968
543 0 30.0000000000001 39.9999999999999
544 0 175 50
545 0 159.999999995739 75.000000004062
546 0 175 65.0000000000001
547 0 80 25
548 0 30 30
549 0 140 25
550 0 175 40
551 0 155 25
552 0 25.0000000000001 64.9999999999999
553 0 169.99999999999 75.0000000000098
554 0 64.999924286594 74.9991490110754
555 0 149.999999597323 75.0000004043058
556 0 125 29.9999999999999
557 0 84.8774800605174 75.1351526675541
558 0 99.7360615766676 75.650538708045
559 0 95 24.9999999999999
560 0 85 25
561 0 144.99999639458 75.0000043688449
562 0 50 20
563 0 174.999999999999 70.0000000000007
564 0 135 25
565 0 175 30
566 0 175 25
567 0 60.0000244782266 74.9997790571984
568 0 35.000000003282 79.9999999957017
569 0 25.0000000000076 74.9999999999907
570 0 25 60
571 0 45.0000002681753 74.9999994979892
572 0 65 20
573 0 165 25
574 0 164.999999999016 80.0000000009347
575 0 25.0000000000001 49.9999999999999
576 0 105 24.9999999999999
577 0 25 35
578 0 75 25
579 0 175 60.0000000000001
580 0 40 20
581 0 124.997072669285 80.0065837924491
582 0 35 25
583 0 150 25
584 0 114.965592048315 75.0763066310354
585 0 89.7925559523386 75.3669566111015
586 0 99.6902810563555 70.6996112142609
587 0 140 30
588 0 95.0000004120022 30.0000053049205
589 0 109.870751850449 70.2120100426881
590 0 80 30
591 0 149.999999613633 70.0000004902322
592 0 45 25
593 0 30.0000000000042 54.9999999999951
594 0 35 30
595 0 65 25
596 0 169.999999999969 65.0000000000303
597 0 30.0000000000007 44.9999999999991
598 0 55 25
599 0 150 30
600 0 90.0000000515003 30.000000663115
601 0 40 25
602 0 30 35
603 0 25.0000000000016 69.9999999999981
604 0 70 25
605 0 64.9998166741694 69.9994692460401
606 0 169.999999999973 70.0000000000259
607 0 170 30
608 0 164.999999998982 75.0000000009688
609 0 40.0000000479151 74.9999999183239
610 0 59.9999773605953 69.999820318184
611 0 79.9604739004125 70.0489165074439
612 0 69.9977234617937 69.9993720206931
613 0 30.0000000003419 74.9999999995668
614 0 30.0000000000078 59.9999999999908
615 0 175 35
616 0 154.999999880179 75.0000001257382
617 0 139.999977378016 75.0000416249764
618 0 110.000001802509 30.0000232090276
619 0 160 25
620 0 50.0000014562884 69.9999958192028
621 0 100.000001802509 30.0000232090276
622 0 130 30
623 0 119.988337213519 75.0253886254011
624 0 129.999544571625 75.0012126457961
625 0 120.0000000515 30.000000663115
626 0 175 55.0000000000001
627 0 175 45
628 0 104.831221967924 75.4335088578348
629 0 94.7323408250679 70.6701660729856
630 0 89.8235223657369 70.4259840177125
631 0 64.9996646448871 64.9998489132317
632 0 125.000000003219 35.0000000414446
633 0 99.7553172276265 65.7635985208293
634 0 60 30
635 0 135.000122775007 70.0002196836349
636 0 95.0000413190967 35.0060313955069
637 0 35.0000000000013 39.9999999999948
638 0 169.999999999997 50.0000000000027
639 0 35.0000000002858 54.9999999992021
640 0 30.0000000002046 69.9999999997501
641 0 74.9920769723237 65.0111262779199
642 0 115.000057754277 35.001004196779
643 0 54.9999984789706 64.9999781793755
644 0 169.999999999971 60.0000000000282
645 0 104.778542075886 70.4517231009211
646 0 85.0000000064376 30.0000000828893
647 0 35.0000000000002 34.9999999999993
648 0 170 35
649 0 159.99999998967 70.0000000106503
650 0 154.999999902362 70.0000001118051
651 0 40 30
652 0 65 30
653 0 30.0000000000989 64.9999999998799
654 0 135 30
655 0 45.0000003489874 69.9999991340196
656 0 164.999999998218 70.0000000017993
657 0 30.0000000000197 49.9999999999479
658 0 155 30
659 0 144.999999258567 70.000005284436
660 0 50 25
661 0 35.0000000083674 74.9999999867134
662 0 165 30
663 0 105.000003128641 30.0000402842408
664 0 75 30
665 0 124.996795981237 75.0075272367911
666 0 169.999999999999 45.0000000000005
667 0 145 30
668 0 114.947608916139 70.0867461440316
669 0 84.9033068534434 70.1907956285506
670 0 94.8104738414027 65.7117817174575
671 0 140.000000008917 35.0000000003193
672 0 109.875244597592 65.2552081802137
673 0 79.9999996520981 35.0000014874189
674 0 59.9999999688421 35.0000001399228
675 0 150.000000005699 65.0000005904723
676 0 99.8651842393816 60.7720534258339
677 0 150 35.0000000000002
678 0 164.999999999936 50.0000000000976
679 0 165 35
680 0 35.0000000001758 49.9999999994727
681 0 35.0000000017275 64.9999999970436
682 0 100.000137438468 35.0097568018
683 0 44.9999999999999 29.9999999999994
684 0 39.9999999999991 34.9999999999896
685 0 170 40.0000000000001
686 0 159.999999990196 65.0000000112204
687 0 164.99999999783 65.0000000023671
688 0 35.0000000010191 59.9999999979344
689 0 130.000000000402 35.0000000051805
690 0 35.0000000000342 44.9999999998853
691 0 69.9976176869834 65.0017565713869
692 0 50.0000003967188 64.9999950482611
693 0 40.0000000727372 69.9999998380708
694 0 90.00001150323 35.0034155368812
695 0 140.000021981183 70.0000514238873
696 0 110.000170523966 35.0044157062266
697 0 160 30
698 0 70 30
699 0 79.9729075122241 65.0666401162709
700 0 59.9999365259652 64.9999064047617
701 0 120.000013869659 35.000211154512
702 0 124.99863671338 70.0065210656792
703 0 130.000171715877 70.0018400991848
704 0 35.0000000142311 69.9999999711351
705 0 54.9999999980526 30.0000000087445
706 0 169.999999999981 55.000000000021
707 0 119.985529083954 70.0303304964143
708 0 89.8789073580934 65.4540803104434
709 0 104.807114727263 65.5057292073369
710 0 120.000692171264 40.0009848765143
711 0 135.000540592421 65.0002912455516
712 0 74.9948468128784 60.0143786646489
713 0 125.00237401052 65.0077073337275
714 0 64.9996623256623 60.0002138270021
715 0 54.9999928000492 59.9999873468779
716 0 94.9999164433962 40.0482308860465
717 0 44.9999999999952 34.9999999999455
718 0 39.9999999995138 49.999999989
719 0 54.9999999958572 35.0000000185302
720 0 164.999999999998 40.0000000000032
721 0 114.956152712328 65.1035363348249
722 0 159.999999998476 60.0000000055046
723 0 104.896256425548 60.5348054471529
724 0 85.0000015473468 35.0010240667161
725 0 164.99999999998 45.0000000000272
726 0 40.0000000069062 59.9999999721184
727 0 125.000435449304 40.0002392249392
728 0 45.0000002110555 64.9999989063471
729 0 145.000000005573 35.0000000001996
730 0 164.999999998844 60.000000001795
731 0 154.999999957044 65.0000001303703
732 0 155 35.0000000000004
733 0 145.000010136149 65.0000065401295
734 0 160 35.0000000000005
735 0 105.000246107867 35.0101583981676
736 0 39.9999999999951 39.9999999998
737 0 74.9999993231469 35.0000029008742
738 0 64.9999997663819 35.0000010240483
739 0 115.001210763389 40.007634953578
740 0 40.0000000631207 64.9999997745092
741 0 49.9999999994972 30.0000000022465
742 0 164.999999999645 55.0000000007476
743 0 135.000000005623 35.0000000008471
744 0 84.9338042964382 65.2153257818599
745 0 94.8924250601364 60.6760153915365
746 0 135.000016133286 40.0000000280614
747 0 145.000000488083 40.0000000133346
748 0 84.9998345219974 40.0078881963981
749 0 115.005408714596 45.0262647398539
750 0 59.9999994007397 40.0000015618434
751 0 150.000001052504 60.0000006582169
752 0 99.9498558735996 55.6296074513367
753 0 160.000000013955 50.0000000029474
754 0 44.9999999944985 40.0000000011712
755 0 45.000000061107 59.9999993526584
756 0 159.999999999987 40.0000000000184
757 0 89.9997488350411 40.027780218565
758 0 49.9999999989467 35.0000000031333
759 0 155.000000143019 60.0000001476301
760 0 40.0000000035685 54.9999999345956
761 0 120.004185338679 45.00753261188
762 0 39.9999999996171 44.9999999978504
763 0 140.00012752455 65.0000665607275
764 0 79.9835325390124 60.0690094051442
765 0 59.999917709384 60.0000005904252
766 0 49.9999989936067 59.9999958589191
767 0 150.000000165667 40.0000000055827
768 0 119.991046799704 65.0361298069733
769 0 160.000000019959 55.0000000136835
770 0 79.9998859303476 40.0032753867175
771 0 100.000487763215 40.0681439307873
772 0 110.001786460726 40.0308786089261
773 0 69.9999993256792 35.0000029153565
774 0 69.9981956523214 60.0033076143927
775 0 130.00016057372 40.00004076725
776 0 130.001725309679 65.0021041131099
777 0 89.9293227499036 60.4204228107259
778 0 109.940472576381 60.2750290862508
779 0 130.000728456507 45.0001329748892
780 0 89.9972124143164 45.0905475220756
781 0 74.9969782993797 55.0143174753156
782 0 125.005501768633 60.0094347875036
783 0 64.9997416727707 55.0004713162737
784 0 135.000937768414 60.0003819671715
785 0 54.9999898599491 55.0000004959329
786 0 145.000009946686 45.0000012988395
787 0 110.00523427656 45.0901129366286
788 0 115.009051207162 50.0639499763196
789 0 54.9999998071691 40.0000003549855
790 0 145.000024942212 60.0000075818613
791 0 44.999999959628 49.9999999161716
792 0 94.9507358247237 55.5200927315932
793 0 94.9967612196682 45.1698971577595
794 0 44.9999999722135 44.9999999801966
795 0 49.9999999415573 40.0000000695431
796 0 49.9999978627828 54.9999987828003
797 0 150.000003230521 55.0000007818333
798 0 160.000000007866 45.0000000012419
799 0 140.000006123401 40.0000001101396
800 0 155.000000037674 40.0000000014671
801 0 74.9999367663295 40.0011061589964
802 0 64.9999952942 40.0000256578707
803 0 155.000000541642 55.0000001680845
804 0 105.001483168709 40.0642289877749
805 0 84.9980301264481 45.0425528303263
806 0 44.9999996590997 54.9999994399208
807 0 125.002318661692 45.0017871345153
808 0 84.9600889369285 60.2036257119826
809 0 104.961906999888 55.453044284327
810 0 114.979637862557 60.1143939690663
811 0 89.9647171036677 55.3186563631722
812 0 59.9999916280672 45.0000234823143
813 0 125.004801636767 50.0044076207643
814 0 54.9999972721338 45.0000058282556
815 0 145.000026344989 55.0000041961521
816 0 155.00000009355 45.0000000066378
817 0 140.000049606811 45.0000061009504
818 0 105.0021413967 45.1764642784702
819 0 99.984429866238 50.3926428855269
820 0 110.002562213035 50.1750806456388
821 0 94.9816409711593 50.319870837627
822 0 89.9855652893593 50.2005515136846
823 0 109.980626496527 55.2470005058177
824 0 49.9999983941268 50.0000006862672
825 0 150.000002595097 45.0000003267434
826 0 140.000240900833 60.0000870346111
827 0 150.000005477211 50.000000811447
828 0 59.999923325908 55.0000912946652
829 0 135.000264987558 45.0000443930312
830 0 155.000001156248 50.0000001971768
831 0 69.999971087889 40.0003271418994
832 0 49.9999991849309 45.0000011095695
833 0 79.9909407493032 55.0584522968788
834 0 79.998950308927 45.0165228824653
835 0 69.9988391437758 55.0038753232932
836 0 99.9967979074122 45.1986121709942
837 0 120.007571226906 50.0219824890325
838 0 130.00272486256 60.0027253722624
839 0 119.999225537119 60.041108220822
840 0 130.00205140154 50.0012876709194
841 0 140.000227274789 55.0000568674954
842 0 104.989247838135 50.3087728471184
843 0 114.996484296822 55.1087119540039
844 0 84.9914847054868 50.1000229360176
845 0 84.9780582419256 55.1651124722801
846 0 74.9983653799396 50.0118622961697
847 0 64.9999632962518 45.0001736658641
848 0 69.9998125029342 45.0013904981834
849 0 69.9993384272806 50.0035219913009
850 0 120.003826137305 55.0402198870297
851 0 64.9997702851837 50.0009203247129
852 0 59.9999367176898 50.000179173837
853 0 125.004472866107 55.0126041976367
854 0 135.001027184747 55.00049962868
855 0 135.000772926162 50.0003348385204
856 0 140.000242879787 50.0000882248129
857 0 145.000057856847 50.0000164331067
858 0 54.9999838776264 50.0000315018828
859 0 74.9993671893354 45.0066188173464
860 0 79.9950842603398 50.0446742887127
861 0 130.002744353093 55.003355599809
$EndNodes
$Elements
800
1 3 2 1 1 558 586 645 628
2 3 2 1 1 586 633 709 645
3 3 2 1 1 629 670 633 586
4 3 2 1 1 819 836 818 842
5 3 2 1 1 792 811 822 821
6 3 2 1 1 557 669 630 585
7 3 2 1 1 126 200 263 203
8 3 2 1 1 676 745 792 752
9 3 2 1 1 752 819 842 809
10 3 2 1 1 821 819 752 792
11 3 2 1 1 809 842 820 823
12 3 2 1 1 393 503 432 320
13 3 2 1 1 200 316 330 393
14 3 2 1 1 709 672 589 645
15 3 2 1 1 490 558 503 440
16 3 2 1 1 265 429 330 316
17 3 2 1 1 820 788 843 823
18 3 2 1 1 811 845 844 822
19 3 2 1 1 541 584 451 536
20 3 2 1 1 392 535 485 429
21 3 2 1 1 788 837 850 843
22 3 2 1 1 839 810 843 850
23 3 2 1 1 844 845 833 860
24 3 2 1 1 849 848 859 846
25 3 2 1 1 834 860 846 859
26 3 2 1 1 848 849 851 847
27 3 2 1 1 819 821 793 836
28 3 2 1 1 813 840 861 853
29 3 2 1 1 814 858 824 832
30 3 2 1 1 840 855 854 861
31 3 2 1 1 559 588 600 495
32 3 2 1 1 748 724 694 757
33 3 2 1 1 673 590 646 724
34 3 2 1 1 719 789 795 758
35 3 2 1 1 855 856 841 854
36 3 2 1 1 560 646 590 547
37 3 2 1 1 824 791 794 832
38 3 2 1 1 858 814 812 852
39 3 2 1 1 851 852 812 847
40 3 2 1 1 140 98 99 248
41 3 2 1 1 283 266 328 424
42 3 2 1 1 601 592 683 651
43 3 2 1 1 495 456 377 559
44 3 2 1 1 44 142 209 43
45 3 2 1 1 683 717 684 651
46 3 2 1 1 528 466 515 507
47 3 2 1 1 205 359 266 136
48 3 2 1 1 650 731 686 649
49 3 2 1 1 679 720 756 734
50 3 2 1 1 686 731 759 722
51 3 2 1 1 268 340 455 387
52 3 2 1 1 496 607 662 573
53 3 2 1 1 653 614 688 681
54 3 2 1 1 394 397 456 452
55 3 2 1 1 601 580 497 592
56 3 2 1 1 279 212 121 190
57 3 2 1 1 278 210 122 192
58 3 2 1 1 277 208 123 191
59 3 2 1 1 403 394 452 504
60 3 2 1 1 469 505 569 446
61 3 2 1 1 653 640 603 552
62 3 2 1 1 726 760 806 755
63 3 2 1 1 207 281 162 143
64 3 2 1 1 166 167 207 143
65 3 2 1 1 512 572 595 539
66 3 2 1 1 758 741 705 719
67 3 2 1 1 856 857 815 841
68 3 2 1 1 60 61 205 136
69 3 2 1 1 162 249 117 118
70 3 2 1 1 359 396 328 266
71 3 2 1 1 400 343 271 334
72 3 2 1 1 267 341 406 336
73 3 2 1 1 455 562 497 387
74 3 2 1 1 336 406 464 388
75 3 2 1 1 564 458 509 549
76 3 2 1 1 546 498 533 563
77 3 2 1 1 606 553 608 656
78 3 2 1 1 725 720 685 666
79 3 2 1 1 282 256 329 426
80 3 2 1 1 290 289 399 334
81 3 2 1 1 400 334 399 469
82 3 2 1 1 329 400 469 446
83 3 2 1 1 563 606 596 546
84 3 2 1 1 695 635 711 763
85 3 2 1 1 686 687 656 649
86 3 2 1 1 648 685 720 679
87 3 2 1 1 204 256 282 135
88 3 2 1 1 266 283 211 136
89 3 2 1 1 263 276 171 203
90 3 2 1 1 375 457 384 326
91 3 2 1 1 375 404 447 457
92 3 2 1 1 510 582 506 462
93 3 2 1 1 477 520 553 493
94 3 2 1 1 656 608 545 649
95 3 2 1 1 520 574 608 553
96 3 2 1 1 636 588 621 682
97 3 2 1 1 794 791 718 762
98 3 2 1 1 720 725 798 756
99 3 2 1 1 800 816 825 767
100 3 2 1 1 18 124 206 17
101 3 2 1 1 96 135 216 95
102 3 2 1 1 264 280 158 213
103 3 2 1 1 279 190 317 397
104 3 2 1 1 315 375 326 199
105 3 2 1 1 307 199 326 428
106 3 2 1 1 142 202 315 209
107 3 2 1 1 202 404 375 315
108 3 2 1 1 423 339 451 525
109 3 2 1 1 468 426 516 568
110 3 2 1 1 496 566 565 607
111 3 2 1 1 607 565 615 648
112 3 2 1 1 715 643 692 766
113 3 2 1 1 680 690 762 718
114 3 2 1 1 641 712 764 699
115 3 2 1 1 852 828 785 858
116 3 2 1 1 825 816 830 827
117 3 2 1 1 268 206 124 340
118 3 2 1 1 278 192 252 331
119 3 2 1 1 161 206 268 358
120 3 2 1 1 332 253 379 478
121 3 2 1 1 377 456 397 317
122 3 2 1 1 310 347 465 418
123 3 2 1 1 418 512 488 376
124 3 2 1 1 690 680 657 597
125 3 2 1 1 717 754 736 684
126 3 2 1 1 740 726 755 728
127 3 2 1 1 277 191 253 332
128 3 2 1 1 458 414 322 509
129 3 2 1 1 354 394 403 355
130 3 2 1 1 433 494 482 378
131 3 2 1 1 515 466 389 467
132 3 2 1 1 594 582 601 651
133 3 2 1 1 694 636 716 757
134 3 2 1 1 126 203 81 82
135 3 2 1 1 83 84 215 189
136 3 2 1 1 343 256 204 140
137 3 2 1 1 130 218 298 374
138 3 2 1 1 288 348 350 235
139 3 2 1 1 346 467 389 269
140 3 2 1 1 581 526 398 483
141 3 2 1 1 494 433 538 611
142 3 2 1 1 602 548 594 647
143 3 2 1 1 489 667 587 549
144 3 2 1 1 554 567 610 605
145 3 2 1 1 667 729 671 587
146 3 2 1 1 798 753 830 816
147 3 2 1 1 842 818 787 820
148 3 2 1 1 28 29 213 158
149 3 2 1 1 204 135 96 97
150 3 2 1 1 349 298 218 163
151 3 2 1 1 294 352 357 234
152 3 2 1 1 486 542 610 567
153 3 2 1 1 691 631 714 774
154 3 2 1 1 826 790 733 763
155 3 2 1 1 146 58 59 211
156 3 2 1 1 355 149 168 354
157 3 2 1 1 174 173 293 195
158 3 2 1 1 269 220 175 346
159 3 2 1 1 383 464 406 327
160 3 2 1 1 461 438 511 486
161 3 2 1 1 610 542 643 700
162 3 2 1 1 587 671 743 654
163 3 2 1 1 714 765 828 783
164 3 2 1 1 852 851 783 828
165 3 2 1 1 402 318 461 522
166 3 2 1 1 595 572 513 604
167 3 2 1 1 603 640 613 569
168 3 2 1 1 814 789 750 812
169 3 2 1 1 26 27 121 212
170 3 2 1 1 31 32 123 208
171 3 2 1 1 33 34 179 159
172 3 2 1 1 58 146 227 57
173 3 2 1 1 86 87 122 210
174 3 2 1 1 88 89 184 160
175 3 2 1 1 113 114 133 173
176 3 2 1 1 119 120 166 143
177 3 2 1 1 238 254 340 124
178 3 2 1 1 211 283 372 146
179 3 2 1 1 223 271 248 156
180 3 2 1 1 205 157 272 359
181 3 2 1 1 121 158 280 190
182 3 2 1 1 171 276 194 170
183 3 2 1 1 294 179 226 295
184 3 2 1 1 189 215 265 316
185 3 2 1 1 161 358 287 222
186 3 2 1 1 271 223 290 334
187 3 2 1 1 149 355 292 225
188 3 2 1 1 184 229 297 288
189 3 2 1 1 292 321 411 261
190 3 2 1 1 396 359 272 353
191 3 2 1 1 194 339 423 284
192 3 2 1 1 403 321 292 355
193 3 2 1 1 297 301 318 402
194 3 2 1 1 461 318 416 438
195 3 2 1 1 411 321 436 513
196 3 2 1 1 459 438 416 337
197 3 2 1 1 254 376 455 340
198 3 2 1 1 460 408 350 348
199 3 2 1 1 407 381 437 501
200 3 2 1 1 352 414 458 475
201 3 2 1 1 459 571 511 438
202 3 2 1 1 569 505 445 603
203 3 2 1 1 442 454 477 493
204 3 2 1 1 609 571 459 523
205 3 2 1 1 387 497 580 463
206 3 2 1 1 405 463 580 510
207 3 2 1 1 418 465 572 512
208 3 2 1 1 431 489 549 509
209 3 2 1 1 655 620 511 571
210 3 2 1 1 652 634 539 595
211 3 2 1 1 609 693 655 571
212 3 2 1 1 492 575 657 593
213 3 2 1 1 655 728 692 620
214 3 2 1 1 674 719 705 634
215 3 2 1 1 703 776 711 635
216 3 2 1 1 634 652 738 674
217 3 2 1 1 740 728 655 693
218 3 2 1 1 623 707 702 665
219 3 2 1 1 719 674 750 789
220 3 2 1 1 806 760 718 791
221 3 2 1 1 789 814 832 795
222 3 2 1 1 164 213 29 30
223 3 2 1 1 208 164 30 31
224 3 2 1 1 56 57 227 163
225 3 2 1 1 165 215 84 85
226 3 2 1 1 210 165 85 86
227 3 2 1 1 114 115 220 133
228 3 2 1 1 220 269 217 133
229 3 2 1 1 267 221 137 341
230 3 2 1 1 219 258 341 137
231 3 2 1 1 222 287 286 147
232 3 2 1 1 194 284 153 170
233 3 2 1 1 123 159 234 191
234 3 2 1 1 122 160 235 192
235 3 2 1 1 207 167 221 267
236 3 2 1 1 336 281 207 267
237 3 2 1 1 147 286 258 219
238 3 2 1 1 127 225 292 261
239 3 2 1 1 146 372 255 227
240 3 2 1 1 178 310 254 238
241 3 2 1 1 175 249 260 346
242 3 2 1 1 281 336 388 260
243 3 2 1 1 346 260 388 467
244 3 2 1 1 258 286 351 327
245 3 2 1 1 286 287 405 351
246 3 2 1 1 463 405 287 358
247 3 2 1 1 414 352 294 295
248 3 2 1 1 416 318 301 302
249 3 2 1 1 356 324 472 380
250 3 2 1 1 258 327 406 341
251 3 2 1 1 351 462 383 327
252 3 2 1 1 454 442 328 396
253 3 2 1 1 409 523 459 337
254 3 2 1 1 284 423 483 345
255 3 2 1 1 510 462 351 405
256 3 2 1 1 268 387 463 358
257 3 2 1 1 514 433 378 408
258 3 2 1 1 464 515 467 388
259 3 2 1 1 525 581 483 423
260 3 2 1 1 504 547 578 436
261 3 2 1 1 521 449 570 552
262 3 2 1 1 383 462 506 507
263 3 2 1 1 383 507 515 464
264 3 2 1 1 511 620 542 486
265 3 2 1 1 528 507 506 548
266 3 2 1 1 580 601 582 510
267 3 2 1 1 576 517 618 663
268 3 2 1 1 568 661 609 523
269 3 2 1 1 548 602 577 528
270 3 2 1 1 506 582 594 548
271 3 2 1 1 564 549 587 654
272 3 2 1 1 570 614 653 552
273 3 2 1 1 497 562 660 592
274 3 2 1 1 525 623 665 581
275 3 2 1 1 657 680 639 593
276 3 2 1 1 593 639 688 614
277 3 2 1 1 647 684 736 637
278 3 2 1 1 726 688 639 760
279 3 2 1 1 613 640 704 661
280 3 2 1 1 653 681 704 640
281 3 2 1 1 743 671 799 746
282 3 2 1 1 704 681 740 693
283 3 2 1 1 754 794 762 736
284 3 2 1 1 787 749 788 820
285 3 2 1 1 717 758 795 754
286 3 2 1 1 13 219 137 12
287 3 2 1 1 206 161 16 17
288 3 2 1 1 18 19 238 124
289 3 2 1 1 174 112 113 173
290 3 2 1 1 229 129 301 297
291 3 2 1 1 223 230 144 290
292 3 2 1 1 281 260 249 162
293 3 2 1 1 132 232 300 198
294 3 2 1 1 295 305 322 414
295 3 2 1 1 504 436 321 403
296 3 2 1 1 296 345 483 398
297 3 2 1 1 283 424 484 372
298 3 2 1 1 419 391 521 445
299 3 2 1 1 568 523 409 468
300 3 2 1 1 614 570 492 593
301 3 2 1 1 850 853 782 839
302 3 2 1 1 746 799 817 829
303 3 2 1 1 13 14 147 219
304 3 2 1 1 212 168 25 26
305 3 2 1 1 106 107 237 139
306 3 2 1 1 112 174 186 111
307 3 2 1 1 226 125 305 295
308 3 2 1 1 224 127 261 347
309 3 2 1 1 272 157 148 233
310 3 2 1 1 284 345 228 153
311 3 2 1 1 227 255 349 163
312 3 2 1 1 156 172 230 223
313 3 2 1 1 133 217 293 173
314 3 2 1 1 347 310 178 224
315 3 2 1 1 337 416 302 196
316 3 2 1 1 291 201 333 353
317 3 2 1 1 356 293 217 324
318 3 2 1 1 272 233 291 353
319 3 2 1 1 407 349 255 381
320 3 2 1 1 343 400 329 256
321 3 2 1 1 217 269 389 324
322 3 2 1 1 300 270 412 323
323 3 2 1 1 401 322 305 306
324 3 2 1 1 196 311 409 337
325 3 2 1 1 476 382 323 412
326 3 2 1 1 389 466 472 324
327 3 2 1 1 424 328 442 533
328 3 2 1 1 396 353 333 454
329 3 2 1 1 311 360 468 409
330 3 2 1 1 282 426 468 360
331 3 2 1 1 304 391 419 368
332 3 2 1 1 255 372 484 381
333 3 2 1 1 562 455 376 488
334 3 2 1 1 575 492 382 476
335 3 2 1 1 449 382 492 570
336 3 2 1 1 471 385 519 499
337 3 2 1 1 338 398 526 443
338 3 2 1 1 322 401 431 509
339 3 2 1 1 379 410 530 434
340 3 2 1 1 333 415 477 454
341 3 2 1 1 379 434 527 478
342 3 2 1 1 521 552 603 445
343 3 2 1 1 476 448 518 575
344 3 2 1 1 475 458 564 500
345 3 2 1 1 472 466 528 577
346 3 2 1 1 380 472 577 491
347 3 2 1 1 424 533 498 484
348 3 2 1 1 543 491 577 602
349 3 2 1 1 557 494 611 669
350 3 2 1 1 566 499 519 565
351 3 2 1 1 605 612 514 554
352 3 2 1 1 661 568 516 613
353 3 2 1 1 446 569 613 516
354 3 2 1 1 491 543 597 518
355 3 2 1 1 443 526 624 540
356 3 2 1 1 692 643 542 620
357 3 2 1 1 690 597 543 637
358 3 2 1 1 647 637 543 602
359 3 2 1 1 518 597 657 575
360 3 2 1 1 612 605 631 691
361 3 2 1 1 599 677 729 667
362 3 2 1 1 611 699 744 669
363 3 2 1 1 744 699 764 808
364 3 2 1 1 707 768 713 702
365 3 2 1 1 671 729 747 799
366 3 2 1 1 673 770 801 737
367 3 2 1 1 786 817 799 747
368 3 2 1 1 798 816 800 756
369 3 2 1 1 711 784 826 763
370 3 2 1 1 807 779 840 813
371 3 2 1 1 838 861 854 784
372 3 2 1 1 857 856 817 786
373 3 2 1 1 167 166 9 10
374 3 2 1 1 1 9 166 120
375 3 2 1 1 221 167 10 11
376 3 2 1 1 221 11 12 137
377 3 2 1 1 222 147 14 15
378 3 2 1 1 222 15 16 161
379 3 2 1 1 238 19 20 178
380 3 2 1 1 20 21 224 178
381 3 2 1 1 149 225 23 24
382 3 2 1 1 168 149 24 25
383 3 2 1 1 226 179 34 35
384 3 2 1 1 53 250 169 52
385 3 2 1 1 54 130 250 53
386 3 2 1 1 56 163 218 55
387 3 2 1 1 205 61 62 157
388 3 2 1 1 78 153 228 77
389 3 2 1 1 170 153 78 79
390 3 2 1 1 171 170 79 80
391 3 2 1 1 171 80 81 203
392 3 2 1 1 229 184 89 90
393 3 2 1 1 248 99 100 156
394 3 2 1 1 100 101 172 156
395 3 2 1 1 104 144 230 103
396 3 2 1 1 104 105 231 144
397 3 2 1 1 220 115 116 175
398 3 2 1 1 249 175 116 117
399 3 2 1 1 345 296 128 228
400 3 2 1 1 302 301 129 247
401 3 2 1 1 291 141 176 201
402 3 2 1 1 291 233 236 141
403 3 2 1 1 290 144 231 289
404 3 2 1 1 294 234 159 179
405 3 2 1 1 288 235 160 184
406 3 2 1 1 148 177 236 233
407 3 2 1 1 176 182 299 201
408 3 2 1 1 174 195 270 186
409 3 2 1 1 300 232 186 270
410 3 2 1 1 132 198 304 188
411 3 2 1 1 304 368 237 188
412 3 2 1 1 293 356 361 195
413 3 2 1 1 306 197 335 401
414 3 2 1 1 304 198 362 391
415 3 2 1 1 135 282 360 216
416 3 2 1 1 139 262 289 231
417 3 2 1 1 191 234 357 253
418 3 2 1 1 192 235 350 252
419 3 2 1 1 125 239 306 305
420 3 2 1 1 408 378 252 350
421 3 2 1 1 411 465 347 261
422 3 2 1 1 195 361 412 270
423 3 2 1 1 398 338 273 296
424 3 2 1 1 197 285 413 335
425 3 2 1 1 402 348 288 297
426 3 2 1 1 262 344 399 289
427 3 2 1 1 349 407 481 298
428 3 2 1 1 374 298 481 425
429 3 2 1 1 201 299 415 333
430 3 2 1 1 363 390 415 299
431 3 2 1 1 198 300 323 362
432 3 2 1 1 273 338 417 303
433 3 2 1 1 362 323 382 449
434 3 2 1 1 259 374 425 325
435 3 2 1 1 425 439 532 325
436 3 2 1 1 516 426 329 446
437 3 2 1 1 252 378 482 331
438 3 2 1 1 386 332 478 473
439 3 2 1 1 401 335 474 431
440 3 2 1 1 417 338 443 508
441 3 2 1 1 262 368 419 344
442 3 2 1 1 469 399 344 505
443 3 2 1 1 419 445 505 344
444 3 2 1 1 357 352 475 410
445 3 2 1 1 356 380 448 361
446 3 2 1 1 476 412 361 448
447 3 2 1 1 518 448 380 491
448 3 2 1 1 484 498 437 381
449 3 2 1 1 395 386 473 441
450 3 2 1 1 415 390 520 477
451 3 2 1 1 362 449 521 391
452 3 2 1 1 348 402 522 460
453 3 2 1 1 481 407 501 531
454 3 2 1 1 335 413 502 474
455 3 2 1 1 479 534 502 413
456 3 2 1 1 371 480 524 420
457 3 2 1 1 498 546 579 437
458 3 2 1 1 425 481 531 439
459 3 2 1 1 531 544 627 439
460 3 2 1 1 453 441 576 487
461 3 2 1 1 473 517 576 441
462 3 2 1 1 493 563 533 442
463 3 2 1 1 565 519 444 615
464 3 2 1 1 384 496 573 450
465 3 2 1 1 456 495 560 452
466 3 2 1 1 567 554 460 522
467 3 2 1 1 486 567 522 461
468 3 2 1 1 390 470 574 520
469 3 2 1 1 420 524 574 470
470 3 2 1 1 431 474 583 489
471 3 2 1 1 410 475 500 530
472 3 2 1 1 473 478 527 517
473 3 2 1 1 524 480 616 545
474 3 2 1 1 512 539 598 488
475 3 2 1 1 562 488 598 660
476 3 2 1 1 667 489 583 599
477 3 2 1 1 482 494 557 535
478 3 2 1 1 530 500 622 556
479 3 2 1 1 531 501 626 544
480 3 2 1 1 437 579 626 501
481 3 2 1 1 474 502 551 583
482 3 2 1 1 534 619 551 502
483 3 2 1 1 443 540 617 508
484 3 2 1 1 435 508 617 561
485 3 2 1 1 436 578 604 513
486 3 2 1 1 527 537 618 517
487 3 2 1 1 608 574 524 545
488 3 2 1 1 434 530 556 625
489 3 2 1 1 450 573 619 534
490 3 2 1 1 695 617 540 635
491 3 2 1 1 650 649 545 616
492 3 2 1 1 579 546 596 644
493 3 2 1 1 648 615 550 685
494 3 2 1 1 493 553 606 563
495 3 2 1 1 591 650 616 555
496 3 2 1 1 689 632 556 622
497 3 2 1 1 625 556 632 701
498 3 2 1 1 555 561 659 591
499 3 2 1 1 551 658 599 583
500 3 2 1 1 606 656 687 596
501 3 2 1 1 644 596 687 730
502 3 2 1 1 595 604 698 652
503 3 2 1 1 578 664 698 604
504 3 2 1 1 693 609 661 704
505 3 2 1 1 605 610 700 631
506 3 2 1 1 561 617 695 659
507 3 2 1 1 551 619 697 658
508 3 2 1 1 573 662 697 619
509 3 2 1 1 665 702 703 624
510 3 2 1 1 544 626 706 638
511 3 2 1 1 579 644 706 626
512 3 2 1 1 765 714 631 700
513 3 2 1 1 727 710 701 632
514 3 2 1 1 736 762 690 637
515 3 2 1 1 666 638 678 725
516 3 2 1 1 700 643 715 765
517 3 2 1 1 706 644 730 742
518 3 2 1 1 600 694 724 646
519 3 2 1 1 607 648 679 662
520 3 2 1 1 591 675 731 650
521 3 2 1 1 599 658 732 677
522 3 2 1 1 591 659 733 675
523 3 2 1 1 763 733 659 695
524 3 2 1 1 592 660 741 683
525 3 2 1 1 590 673 737 664
526 3 2 1 1 724 748 770 673
527 3 2 1 1 759 731 675 751
528 3 2 1 1 729 677 767 747
529 3 2 1 1 638 706 742 678
530 3 2 1 1 753 678 742 769
531 3 2 1 1 662 679 734 697
532 3 2 1 1 636 682 771 716
533 3 2 1 1 686 722 730 687
534 3 2 1 1 632 689 775 727
535 3 2 1 1 658 697 734 732
536 3 2 1 1 664 737 773 698
537 3 2 1 1 668 721 768 707
538 3 2 1 1 768 839 782 713
539 3 2 1 1 774 714 783 835
540 3 2 1 1 765 715 785 828
541 3 2 1 1 678 753 798 725
542 3 2 1 1 710 727 807 761
543 3 2 1 1 722 769 742 730
544 3 2 1 1 677 732 800 767
545 3 2 1 1 675 733 790 751
546 3 2 1 1 732 734 756 800
547 3 2 1 1 775 746 829 779
548 3 2 1 1 757 780 805 748
549 3 2 1 1 790 815 797 751
550 3 2 1 1 769 803 830 753
551 3 2 1 1 794 754 795 832
552 3 2 1 1 722 759 803 769
553 3 2 1 1 751 797 803 759
554 3 2 1 1 749 761 837 788
555 3 2 1 1 747 767 825 786
556 3 2 1 1 738 773 831 802
557 3 2 1 1 713 782 838 776
558 3 2 1 1 855 840 779 829
559 3 2 1 1 827 857 786 825
560 3 2 1 1 826 841 815 790
561 3 2 1 1 857 827 797 815
562 3 2 1 1 770 834 859 801
563 3 2 1 1 750 802 847 812
564 3 2 1 1 797 827 830 803
565 3 2 1 1 761 807 813 837
566 3 2 1 1 853 850 837 813
567 3 2 1 1 829 817 856 855
568 3 2 1 1 802 831 848 847
569 3 2 1 1 801 859 848 831
570 3 2 1 1 782 853 861 838
571 3 2 1 1 130 54 55 218
572 3 2 1 1 236 64 65 141
573 3 2 1 1 176 141 65 66
574 3 2 1 1 182 176 66 67
575 3 2 1 1 140 204 97 98
576 3 2 1 1 8 102 172 101
577 3 2 1 1 230 172 102 103
578 3 2 1 1 186 232 110 111
579 3 2 1 1 296 273 246 128
580 3 2 1 1 208 277 364 164
581 3 2 1 1 363 299 182 243
582 3 2 1 1 303 183 246 273
583 3 2 1 1 360 311 185 216
584 3 2 1 1 410 379 253 357
585 3 2 1 1 470 390 363 257
586 3 2 1 1 508 435 319 417
587 3 2 1 1 451 339 430 536
588 3 2 1 1 532 439 627 550
589 3 2 1 1 457 447 499 566
590 3 2 1 1 663 621 487 576
591 3 2 1 1 581 665 624 526
592 3 2 1 1 588 636 694 600
593 3 2 1 1 537 642 696 618
594 3 2 1 1 760 639 680 718
595 3 2 1 1 618 696 735 663
596 3 2 1 1 738 802 750 674
597 3 2 1 1 761 749 739 710
598 3 2 1 1 689 743 746 775
599 3 2 1 1 715 766 796 785
600 3 2 1 1 793 821 822 780
601 3 2 1 1 3 4 155 2
602 3 2 1 1 6 7 177 5
603 3 2 1 1 63 5 177 148
604 3 2 1 1 224 21 22 127
605 3 2 1 1 225 127 22 23
606 3 2 1 1 158 121 27 28
607 3 2 1 1 159 123 32 33
608 3 2 1 1 226 35 36 125
609 3 2 1 1 36 37 239 125
610 3 2 1 1 38 150 239 37
611 3 2 1 1 214 180 39 40
612 3 2 1 1 38 39 180 150
613 3 2 1 1 42 187 134 41
614 3 2 1 1 40 41 134 214
615 3 2 1 1 44 45 181 142
616 3 2 1 1 2 155 240 46
617 3 2 1 1 45 46 240 181
618 3 2 1 1 48 145 241 47
619 3 2 1 1 4 47 241 155
620 3 2 1 1 50 138 242 49
621 3 2 1 1 48 49 242 145
622 3 2 1 1 51 251 138 50
623 3 2 1 1 52 169 251 51
624 3 2 1 1 157 62 63 148
625 3 2 1 1 7 64 236 177
626 3 2 1 1 69 131 243 68
627 3 2 1 1 67 68 243 182
628 3 2 1 1 69 70 244 131
629 3 2 1 1 71 151 244 70
630 3 2 1 1 71 72 245 151
631 3 2 1 1 73 152 245 72
632 3 2 1 1 73 74 183 152
633 3 2 1 1 76 128 246 75
634 3 2 1 1 74 75 246 183
635 3 2 1 1 228 128 76 77
636 3 2 1 1 189 126 82 83
637 3 2 1 1 160 122 87 88
638 3 2 1 1 229 90 91 129
639 3 2 1 1 91 92 247 129
640 3 2 1 1 93 154 247 92
641 3 2 1 1 93 94 185 154
642 3 2 1 1 94 95 216 185
643 3 2 1 1 231 105 106 139
644 3 2 1 1 237 107 108 188
645 3 2 1 1 232 132 109 110
646 3 2 1 1 108 109 132 188
647 3 2 1 1 162 118 119 143
648 3 2 1 1 374 259 250 130
649 3 2 1 1 187 199 307 134
650 3 2 1 1 285 197 150 180
651 3 2 1 1 306 239 150 197
652 3 2 1 1 311 196 154 185
653 3 2 1 1 302 247 154 196
654 3 2 1 1 213 164 364 264
655 3 2 1 1 215 165 365 265
656 3 2 1 1 210 278 365 165
657 3 2 1 1 212 279 354 168
658 3 2 1 1 250 259 314 169
659 3 2 1 1 142 181 275 202
660 3 2 1 1 152 183 303 193
661 3 2 1 1 342 317 190 280
662 3 2 1 1 152 193 312 245
663 3 2 1 1 417 319 193 303
664 3 2 1 1 339 194 276 430
665 3 2 1 1 187 209 315 199
666 3 2 1 1 275 366 404 202
667 3 2 1 1 180 214 367 285
668 3 2 1 1 134 307 367 214
669 3 2 1 1 139 237 368 262
670 3 2 1 1 155 241 313 240
671 3 2 1 1 181 240 313 275
672 3 2 1 1 145 308 313 241
673 3 2 1 1 138 274 369 242
674 3 2 1 1 145 242 369 308
675 3 2 1 1 131 257 363 243
676 3 2 1 1 131 244 370 257
677 3 2 1 1 151 309 370 244
678 3 2 1 1 151 245 312 309
679 3 2 1 1 138 251 373 274
680 3 2 1 1 169 314 373 251
681 3 2 1 1 470 257 370 420
682 3 2 1 1 325 427 314 259
683 3 2 1 1 280 264 395 342
684 3 2 1 1 386 395 264 364
685 3 2 1 1 385 471 274 373
686 3 2 1 1 369 274 471 421
687 3 2 1 1 313 308 366 275
688 3 2 1 1 332 386 364 277
689 3 2 1 1 397 394 354 279
690 3 2 1 1 413 285 367 479
691 3 2 1 1 193 319 422 312
692 3 2 1 1 309 312 422 371
693 3 2 1 1 373 314 427 385
694 3 2 1 1 427 325 532 444
695 3 2 1 1 317 342 453 377
696 3 2 1 1 308 369 421 366
697 3 2 1 1 307 428 479 367
698 3 2 1 1 309 371 420 370
699 3 2 1 1 326 384 450 428
700 3 2 1 1 566 496 384 457
701 3 2 1 1 444 519 385 427
702 3 2 1 1 366 421 447 404
703 3 2 1 1 465 411 513 572
704 3 2 1 1 319 435 529 422
705 3 2 1 1 371 422 529 480
706 3 2 1 1 534 479 428 450
707 3 2 1 1 561 555 529 435
708 3 2 1 1 615 444 532 550
709 3 2 1 1 421 471 499 447
710 3 2 1 1 547 504 452 560
711 3 2 1 1 408 460 554 514
712 3 2 1 1 616 480 529 555
713 3 2 1 1 559 487 621 588
714 3 2 1 1 654 622 500 564
715 3 2 1 1 433 514 612 538
716 3 2 1 1 451 584 623 525
717 3 2 1 1 703 635 540 624
718 3 2 1 1 638 666 627 544
719 3 2 1 1 666 685 550 627
720 3 2 1 1 495 600 646 560
721 3 2 1 1 707 623 584 668
722 3 2 1 1 721 668 589 672
723 3 2 1 1 684 647 594 651
724 3 2 1 1 539 634 705 598
725 3 2 1 1 538 641 699 611
726 3 2 1 1 701 710 739 642
727 3 2 1 1 621 663 735 682
728 3 2 1 1 688 726 740 681
729 3 2 1 1 641 691 774 712
730 3 2 1 1 755 766 692 728
731 3 2 1 1 642 739 772 696
732 3 2 1 1 652 698 773 738
733 3 2 1 1 779 807 727 775
734 3 2 1 1 682 735 804 771
735 3 2 1 1 696 772 804 735
736 3 2 1 1 801 831 773 737
737 3 2 1 1 739 749 787 772
738 3 2 1 1 806 796 766 755
739 3 2 1 1 712 781 833 764
740 3 2 1 1 808 764 833 845
741 3 2 1 1 748 805 834 770
742 3 2 1 1 716 771 836 793
743 3 2 1 1 818 836 771 804
744 3 2 1 1 818 804 772 787
745 3 2 1 1 711 776 838 784
746 3 2 1 1 851 849 835 783
747 3 2 1 1 858 785 796 824
748 3 2 1 1 791 824 796 806
749 3 2 1 1 780 822 844 805
750 3 2 1 1 860 834 805 844
751 3 2 1 1 784 854 841 826
752 3 2 1 1 781 846 860 833
753 3 2 1 1 781 835 849 846
754 3 2 1 1 211 59 60 136
755 3 2 1 1 331 392 365 278
756 3 2 1 1 254 310 418 376
757 3 2 1 1 487 559 377 453
758 3 2 1 1 664 578 547 590
759 3 2 1 1 741 660 598 705
760 3 2 1 1 622 654 743 689
761 3 2 1 1 717 683 741 758
762 3 2 1 1 776 703 702 713
763 3 2 1 1 835 781 712 774
764 3 2 1 1 780 757 716 793
765 3 2 1 1 535 392 331 482
766 3 2 1 1 441 453 342 395
767 3 2 1 1 265 365 392 429
768 3 2 1 1 434 625 537 527
769 3 2 1 1 691 641 538 612
770 3 2 1 1 843 810 778 823
771 3 2 1 1 271 343 140 248
772 3 2 1 1 625 701 642 537
773 3 2 1 1 721 810 839 768
774 3 2 1 1 209 187 42 43
775 3 2 1 1 330 429 485 440
776 3 2 1 1 668 584 541 589
777 3 2 1 1 536 430 320 432
778 3 2 1 1 777 808 845 811
779 3 2 1 1 503 558 628 432
780 3 2 1 1 672 778 810 721
781 3 2 1 1 808 777 708 744
782 3 2 1 1 557 585 485 535
783 3 2 1 1 432 628 541 536
784 3 2 1 1 263 320 430 276
785 3 2 1 1 589 541 628 645
786 3 2 1 1 811 792 745 777
787 3 2 1 1 676 752 809 723
788 3 2 1 1 823 778 723 809
789 3 2 1 1 709 723 778 672
790 3 2 1 1 744 708 630 669
791 3 2 1 1 490 585 630 629
792 3 2 1 1 558 490 629 586
793 3 2 1 1 320 263 200 393
794 3 2 1 1 777 745 670 708
795 3 2 1 1 440 503 393 330
796 3 2 1 1 745 676 633 670
797 3 2 1 1 723 709 633 676
798 3 2 1 1 708 670 629 630
799 3 2 1 1 316 200 126 189
800 3 2 1 1 440 485 585 490
$EndElements
