$MeshFormat
2.2 0 8
$EndMeshFormat
$Nodes
1404
1 200 200 0
2 400 200 0
3 400 380 0
4 400 500 0
5 400 600 0
6 375 600 0
7 300 600 0
8 200 600 0
9 200 540 0
10 200 500 0
11 200 460 0
12 200 400 0
13 100 700 0
14 350 700 0
15 400 700 0
16 400 800 0
17 400 900 0
18 100 900 0
19 100 800 0
20 0 0 0
21 500 0 0
22 0 300 0
23 500 300 0
24 0 500 0
25 500 500 0
26 0 700 0
27 500 700 0
28 0 800 0
29 500 800 0
30 0 1000 0
31 500 1000 0
32 225 200 0
33 250 200 0
34 275 200 0
35 300 200 0
36 325 200 0
37 350 200 0
38 375 200 0
39 400 225.714285714286 0
40 400 251.428571428571 0
41 400 277.142857142857 0
42 400 302.857142857143 0
43 400 328.571428571429 0
44 400 354.285714285714 0
45 400 404 0
46 400 428 0
47 400 452 0
48 400 476 0
49 400 525 0
50 400 550 0
51 400 575 0
52 350 600 0
53 325 600 0
54 275 600 0
55 250 600 0
56 225 600 0
57 200 570 0
58 200 520 0
59 200 480 0
60 200 430 0
61 200 375 0
62 200 350 0
63 200 325 0
64 200 300 0
65 200 275 0
66 200 250 0
67 200 225 0
68 125 700 0
69 150 700 0
70 175 700 0
71 200 700 0
72 225 700 0
73 250 700 0
74 275 700 0
75 300 700 0
76 325 700 0
77 375 700 0
78 400 725 0
79 400 750 0
80 400 775 0
81 400 825 0
82 400 850 0
83 400 875 0
84 375 900 0
85 350 900 0
86 325 900 0
87 300 900 0
88 275 900 0
89 250 900 0
90 225 900 0
91 200 900 0
92 175 900 0
93 150 900 0
94 125 900 0
95 100 875 0
96 100 850 0
97 100 825 0
98 100 775 0
99 100 750 0
100 100 725 0
101 25 0 0
102 50 0 0
103 75 0 0
104 100 0 0
105 125 0 0
106 150 0 0
107 175 0 0
108 200 0 0
109 225 0 0
110 250 0 0
111 275 0 0
112 300 0 0
113 325 0 0
114 350 0 0
115 375 0 0
116 400 0 0
117 425 0 0
118 450 0 0
119 475 0 0
120 0 275 0
121 0 250 0
122 0 225 0
123 0 200 0
124 0 175 0
125 0 150 0
126 0 125 0
127 0 100 0
128 0 75 0
129 0 50 0
130 0 25 0
131 500 25 0
132 500 50 0
133 500 75 0
134 500 100 0
135 500 125 0
136 500 150 0
137 500 175 0
138 500 200 0
139 500 225 0
140 500 250 0
141 500 275 0
142 0 475 0
143 0 450 0
144 0 425 0
145 0 400 0
146 0 375 0
147 0 350 0
148 0 325 0
149 500 325 0
150 500 350 0
151 500 375 0
152 500 400 0
153 500 425 0
154 500 450 0
155 500 475 0
156 0 675 0
157 0 650 0
158 0 625 0
159 0 600 0
160 0 575 0
161 0 550 0
162 0 525 0
163 500 525 0
164 500 550 0
165 500 575 0
166 500 600 0
167 500 625 0
168 500 650 0
169 500 675 0
170 0 775 0
171 0 750 0
172 0 725 0
173 500 725 0
174 500 750 0
175 500 775 0
176 0 975 0
177 0 950 0
178 0 925 0
179 0 900 0
180 0 875 0
181 0 850 0
182 0 825 0
183 500 825 0
184 500 850 0
185 500 875 0
186 500 900 0
187 500 925 0
188 500 950 0
189 500 975 0
190 475 1000 0
191 450 1000 0
192 425 1000 0
193 400 1000 0
194 375 1000 0
195 350 1000 0
196 325 1000 0
197 300 1000 0
198 275 1000 0
199 250 1000 0
200 225 1000 0
201 200 1000 0
202 175 1000 0
203 150 1000 0
204 125 1000 0
205 100 1000 0
206 74.9999999999999 1000 0
207 50 1000 0
208 24.9999999999999 1000 0
209 25 500 0
210 50 500 0
211 75 500 0
212 100 500 0
213 125 500 0
214 150 500 0
215 175 500 0
216 425 500 0
217 450 500 0
218 475 500 0
219 20 684 0
220 40 668 0
221 60 652 0
222 80 636 0
223 100 620 0
224 120 604 0
225 140 588 0
226 160 572 0
227 180 556 0
228 420 364 0
229 440 348 0
230 460 332 0
231 480 316 0
232 20 316 0
233 40 332 0
234 60 348 0
235 80 364 0
236 100 380 0
237 120 396 0
238 140 412 0
239 160 428 0
240 180 444 0
241 395.833333333333 616.666666666667 0
242 416.666666666667 633.333333333333 0
243 437.5 650 0
244 458.333333333333 666.666666666667 0
245 479.166666666667 683.333333333333 0
246 25 800 0
247 50 800 0
248 75 800 0
249 425 800 0
250 450 800 0
251 475 800 0
252 11.1111111111111 22.2222222222222 0
253 22.2222222222222 44.4444444444445 0
254 33.3333333333334 66.6666666666667 0
255 44.4444444444445 88.8888888888889 0
256 55.5555555555556 111.111111111111 0
257 66.6666666666667 133.333333333333 0
258 77.7777777777778 155.555555555556 0
259 88.8888888888889 177.777777777778 0
260 100 200 0
261 111.111111111111 222.222222222222 0
262 122.222222222222 244.444444444445 0
263 133.333333333333 266.666666666667 0
264 144.444444444444 288.888888888889 0
265 155.555555555556 311.111111111111 0
266 166.666666666667 333.333333333333 0
267 177.777777777778 355.555555555556 0
268 188.888888888889 377.777777777778 0
269 312.5 625 0
270 325 650 0
271 337.5 675 0
272 411.111111111111 822.222222222222 0
273 422.222222222222 844.444444444444 0
274 433.333333333333 866.666666666667 0
275 444.444444444444 888.888888888889 0
276 455.555555555556 911.111111111111 0
277 466.666666666667 933.333333333333 0
278 477.777777777778 955.555555555556 0
279 488.888888888889 977.777777777778 0
280 324.999971554139 24.9999917989277 0
281 199.953554613585 25.0392841405317 0
282 375.002064377337 175.00042661571 0
283 275.000162154514 175.000636302544 0
284 399.999998930305 24.9999995018659 0
285 200.129052500139 175.150676306613 0
286 149.818665317805 25.1335713496746 0
287 474.996860047279 124.994531829984 0
288 23.6722371968551 273.856000673789 0
289 419.256351624212 595.920116608346 0
290 424.806654565454 427.597574531008 0
291 24.5604744541847 224.772938103309 0
292 175 975 0
293 50 975 0
294 125 925 0
295 250.607088381506 674.998911963992 0
296 250.000176567201 924.999999261959 0
297 474.985288587724 174.96583543835 0
298 150.104627482179 674.984494190315 0
299 396.634498016761 926.024003093574 0
300 75 875 0
301 425.161252006987 750.173698535428 0
302 349.841912867736 925.026037810881 0
303 74.0443113525243 724.518035436763 0
304 474.999988518663 49.9999936358677 0
305 475.066419318036 224.88054393746 0
306 99.3959981955157 25.2866811283415 0
307 175.640610557262 199.136136716338 0
308 475.200364878008 550.862979421263 0
309 470.810352652692 605.886454039546 0
310 422.963758412637 299.638254326187 0
311 24.9929540837096 425.237747930281 0
312 24.8934390819602 601.007481004392 0
313 24.7191134043762 175.781723470814 0
314 475.209852351316 400.793040085565 0
315 200.000001649964 924.999999993088 0
316 125 975 0
317 200.000001649964 974.999999993088 0
318 225.138476167484 625.138035405281 0
319 277.643749665263 625.153947722406 0
320 275.00075855767 975.000004889307 0
321 200.041787600256 675.1043102523 0
322 300.000984825452 925.000475993068 0
323 24.6194242628972 750.141859647395 0
324 475.516598103109 725.947564389063 0
325 25 925 0
326 25 900 0
327 25 875 0
328 399.68032527482 973.094020756628 0
329 349.899575580918 974.952002039545 0
330 425.064647603274 225.401738442517 0
331 24.7819673521802 150.796237643228 0
332 474.883396580994 848.233766820008 0
333 173.378757246001 247.251415301719 0
334 367.577837221598 669.620134377986 0
335 176.474996064495 523.657253995917 0
336 176.685636378184 476.029318968585 0
337 28.8818338701444 20.1533840370598 0
338 429.17020972548 820.440385169991 0
339 471.400008379038 980.233670558589 0
340 25.9905320614935 119.046087405079 0
341 469.198285575256 875.524858306208 0
342 167.971487555272 275.009404326373 0
343 372.531112247872 621.603410453763 0
344 424.635754372344 276.33239889682 0
345 475.297711825389 824.012820243025 0
346 474.942198379274 425.664706110219 0
347 424.880317590966 550.480764294532 0
348 75 825 0
349 74.6056446991611 749.806881445577 0
350 25.2636913403401 474.858931522199 0
351 474.912889852628 450.437931196091 0
352 474.935685010858 475.210669014722 0
353 24.9489717300563 525.305143064695 0
354 475.180355554186 750.304888853455 0
355 25 850 0
356 75 975 0
357 299.999986598274 25.0000468165687 0
358 449.999998847258 24.999999404565 0
359 25 975 0
360 474.999998311844 24.9999990818503 0
361 250.000544183875 25.0037639183586 0
362 175.000000206245 924.999999999136 0
363 474.999864745554 74.9998466160118 0
364 425.5030436945 725.240860893581 0
365 225.027290834906 175.050994250082 0
366 300.000021798693 175.00010528034 0
367 325.00010894851 175.000052699266 0
368 425.013645473036 525.17817275755 0
369 425.045019239458 775.062331615837 0
370 74.844499040076 774.880810562974 0
371 475.06723821005 525.242428499514 0
372 24.8443035481617 774.954407750608 0
373 475.048251992248 775.08878514889 0
374 25 825 0
375 225.000019767225 974.999999917108 0
376 374.999998177807 24.999999360677 0
377 276.309520864614 675.130943793995 0
378 300.001489689875 974.999724616282 0
379 98.0454059333456 670.539952912603 0
380 24.3789687465784 400.826164825738 0
381 475.079428004172 249.83756909531 0
382 25.0608025646095 575.981157541209 0
383 424.897009831779 475.766075482287 0
384 427.988265978766 970.16446771646 0
385 74.3393922556982 24.0758712316833 0
386 425.256625361913 891.867798722541 0
387 23.9674662498776 96.3364648355938 0
388 475.28446425327 902.750301619312 0
389 174.979899356944 302.655522308004 0
390 474.982228671115 703.459474597486 0
391 23.95317264921 296.254741460071 0
392 414.75502515948 349.17294879692 0
393 474.487086273157 297.288045860869 0
394 24.5606112324398 703.321258179543 0
395 425.293386584888 381.669763526292 0
396 22.4694026715114 377.749514629596 0
397 475.757841756627 349.670943283911 0
398 24.1558469980599 651.009693415186 0
399 476.772015866301 631.663293992518 0
400 181.103594493954 579.75379846166 0
401 174.128639533866 414.665678091453 0
402 175.110932289239 378.97243503826 0
403 24.2932130297633 340.082841722984 0
404 485.60245048302 329.456153743439 0
405 14.3840743269265 670.677104375937 0
406 302.894590228926 675.272703199322 0
407 332.334287655681 620.479564509667 0
408 480.0766033993 654.58027942004 0
409 324.999966284166 50.0000175892868 0
410 374.999982090656 49.9999873144836 0
411 200.192516169725 150.386499420502 0
412 275.000881147392 150.002134069773 0
413 45.5504722601744 300.602752898591 0
414 400.002091149126 175.002441963496 0
415 69.0032251733593 82.9186888963548 0
416 132.805160077526 315.934780216848 0
417 100 925 0
418 75 900 0
419 200.276207760202 625.298441721021 0
420 425.018127551858 200.108127913092 0
421 49.3662879155368 425.035695589663 0
422 51.0813527629487 474.243890508171 0
423 50.8352446732763 603.096945199451 0
424 151.758249018176 523.519976034932 0
425 152.563141958982 475.303946432805 0
426 447.381959163789 937.691654978596 0
427 397.956569187838 674.713209944611 0
428 453.297870303909 599.922554028399 0
429 99.1665322620297 53.5273192299047 0
430 72.5738851166542 698.164028983767 0
431 425.887853487757 699.581230558202 0
432 48.6943756301454 42.5629026706753 0
433 450.551435431065 845.305501675205 0
434 451.608165865774 957.839801685492 0
435 47.958868028781 401.904858635186 0
436 449.210678397802 304.891979814389 0
437 49.0939385656972 153.875126805732 0
438 452.065421185047 700.131400213786 0
439 450.062271701334 401.870244028364 0
440 450.941046677322 372.850083198365 0
441 449.871961947024 426.617722113345 0
442 474.865321793766 576.914667644799 0
443 424.998310077069 250.845942644318 0
444 48.0193835095561 630.978006955866 0
445 449.84723829521 451.040373982914 0
446 24.2541042920352 249.422890019504 0
447 450.269418232065 750.326735603742 0
448 449.90159352604 475.499690999291 0
449 396.693104029556 949.538872334258 0
450 477.454674635579 377.239380672551 0
451 24.6648359356309 200.280407785871 0
452 175.058080092278 222.841126199615 0
453 124.79181636715 25.445637687441 0
454 175.645631947095 175.090315075934 0
455 174.920676951432 25.0755564912623 0
456 175.000000232026 949.999999999028 0
457 50 950 0
458 25 950 0
459 150.000000014502 974.999999999939 0
460 349.999990966076 24.9999986744018 0
461 424.999998835868 24.9999994524982 0
462 225.000037756338 924.999999842069 0
463 200.000007349535 949.999999969222 0
464 275.000584861479 925.000065618511 0
465 150.000000040282 924.999999999831 0
466 225.001118207512 25.0203785169352 0
467 474.991322770975 149.983859045464 0
468 324.97828158739 974.99258230899 0
469 100 975 0
470 474.999147937863 99.998686831866 0
471 250.000197582636 975.000000180711 0
472 449.999963531125 49.9999747151155 0
473 275.00088758875 950.00003514953 0
474 350.000549287428 175.000143481842 0
475 275.000233411086 25.0007678891229 0
476 300.00016054748 150.000415974622 0
477 250.005587177025 175.012319694623 0
478 374.093499459863 925.142958582312 0
479 75 850 0
480 374.580242583493 974.644963107839 0
481 49.8592809958273 525.623926353423 0
482 450.055363259763 525.318687513143 0
483 50 825 0
484 49.7784489739344 774.902494862597 0
485 450.079030540783 775.113965941085 0
486 50 900 0
487 50 875 0
488 48.759746834031 724.990894307195 0
489 324.970038000407 925.003435314305 0
490 225.182502923289 675.062211092439 0
491 25.259120982437 449.846545165325 0
492 175.015036145221 675.029361679949 0
493 24.9424291903795 550.693822478478 0
494 475.008460211728 199.954479238546 0
495 125.364911663837 674.299615710258 0
496 250.706895307782 625.05599457209 0
497 22.5013173684285 624.294753760993 0
498 250.913812014146 650.080089407638 0
499 450.065006130462 225.106655579902 0
500 396.433961435519 636.968894169394 0
501 424.878756424266 451.603693020867 0
502 422.969373217801 574.871414967613 0
503 151.355188250893 544.245813206688 0
504 153.483638487637 452.603056945265 0
505 71.7000170519784 671.242814022045 0
506 416.826798966864 610.174701840246 0
507 178.654200587686 396.969358508047 0
508 174.958597309718 598.325580988403 0
509 348.766061556385 640.794229477603 0
510 302.329530765177 652.270374244432 0
511 24.3095615152213 725.562352755279 0
512 474.900357492982 274.876765900804 0
513 425.008566736934 403.325585724248 0
514 424.553461822919 909.217851565455 0
515 33.5220084599681 355.504110206342 0
516 449.998986856322 861.983442749851 0
517 148.39145599471 261.024890855121 0
518 46.7923007915454 699.434757020912 0
519 450.709057759331 822.726696045426 0
520 452.452756551664 979.265268609534 0
521 49.9576775668042 22.27512527077 0
522 48.9891285072058 136.58655351312 0
523 427.179299689684 322.47031028906 0
524 353.204720974691 619.143034896095 0
525 453.4292398439 635.906996751552 0
526 54.1779613950579 62.2363029590256 0
527 144.656906815752 337.720152008912 0
528 157.71237592906 397.526619155448 0
529 175.501763216871 150.727828547285 0
530 175.302968991399 50.2014520555508 0
531 375.000687001082 149.999862318773 0
532 250.011554746186 50.0150171008772 0
533 91.6498379373592 130.427319423428 0
534 275.003458279797 125.005592015278 0
535 449.995240084605 124.992169710434 0
536 108.019089824714 270.59530085508 0
537 112.522300311681 424.740202080657 0
538 49.0523892550251 249.235940249578 0
539 125.9545768966 51.0925968316832 0
540 151.714913604351 174.28830888311 0
541 449.988150706594 149.979056265236 0
542 399.999963861329 49.9999746738718 0
543 250.013098067954 150.025817117147 0
544 50.197909589115 576.818262129762 0
545 150.144093636948 649.453107994038 0
546 142.326575595898 382.467275615433 0
547 90.0091543651207 336.380317484218 0
548 70.3056663220691 422.205082148014 0
549 77.4431460522658 473.637649489533 0
550 49.0309344968429 177.212856382254 0
551 152.951669933476 218.762027649653 0
552 124.766498832923 345.227847042911 0
553 451.013417306125 579.395397795875 0
554 105.412907124354 647.535562524631 0
555 150.46955739948 618.395030916982 0
556 449.661726489025 275.78688086908 0
557 49.4525320446349 749.949164078414 0
558 48.7048537848773 200.667248057433 0
559 373.975395647184 949.840179629032 0
560 125.000000003424 949.999999999986 0
561 349.999982212543 49.9999968694081 0
562 75 925 0
563 75 950 0
564 150.00000004917 949.999999999794 0
565 250.000297293228 950.000008497936 0
566 50 925 0
567 225.000075461257 950.000000964948 0
568 225.054990257065 50.0619246830463 0
569 225.073611844023 150.12990005574 0
570 424.999952437797 49.9999704487134 0
571 449.999672753402 74.9996251549716 0
572 300.000177710375 50.0003927495067 0
573 325.000173777576 150.000121582618 0
574 324.957708675808 949.99668487326 0
575 299.992493348283 949.999400670915 0
576 450.050736159163 551.150374437051 0
577 50 850 0
578 424.995027528984 174.998824580923 0
579 225.315273845984 650.149990901781 0
580 75.0705792395909 525.610214347953 0
581 200.271313904933 650.267173841 0
582 49.7237038105386 551.144136186425 0
583 50.8678238973482 448.810117815385 0
584 449.990062765211 174.97959909009 0
585 177.332944740081 625.935024226034 0
586 450.018594995452 200.027803937601 0
587 48.4981217240694 274.972894860785 0
588 449.984152768246 250.337106464299 0
589 424.024291195221 674.782789555611 0
590 450.683416853898 725.610345266826 0
591 128.487482489082 543.61605869277 0
592 126.434417784005 523.222432995651 0
593 128.189604654194 475.1209299655 0
594 277.519935669411 650.412521732324 0
595 159.506207903589 377.195295921219 0
596 377.847728064345 642.857586910739 0
597 120.318135626258 294.106786379147 0
598 79.9713079395358 107.744344312264 0
599 435.112744834353 618.306068307559 0
600 66.0236849125807 328.713900855601 0
601 47.6917182217402 376.043436336075 0
602 418.576292720093 654.856709113369 0
603 71.9821692438963 48.6371501940333 0
604 456.103001033074 618.985011882926 0
605 421.09590555331 937.735661612844 0
606 146.031919333989 240.760297926594 0
607 133.641506935201 429.889211426427 0
608 82.7773783988318 656.789927697045 0
609 140.192604412507 560.155055511308 0
610 433.839680933935 596.827534576557 0
611 82.1688473536514 67.9594699129248 0
612 20.4332472988937 361.870431838168 0
613 80.2151990526292 602.433326981831 0
614 175.58359830301 125.821931997029 0
615 325.000078625691 75.0001675627503 0
616 374.999908651821 74.9998988484464 0
617 122.157648411851 572.377165552817 0
618 103.213578451505 100.2042044823 0
619 250.03324299314 75.0340752841506 0
620 399.998686401502 149.997578367962 0
621 68.7716722533648 306.649964765689 0
622 74.4156260201885 551.000164535897 0
623 79.3127056089496 279.999364046517 0
624 107.146940691125 77.1513104190875 0
625 100.826557519833 524.669905013068 0
626 103.319695927013 474.139680267924 0
627 107.28372768446 449.078563782581 0
628 112.302959649548 324.656023229181 0
629 150.696173885464 50.4209911698529 0
630 48.8008745874661 224.499392869455 0
631 150.789122762636 150.502333726189 0
632 151.965603549763 197.113880042861 0
633 200.174888290523 50.1409642547586 0
634 200.350204213221 125.425476962605 0
635 250.031770707836 125.045240545226 0
636 349.708377067614 949.960093404744 0
637 100.000000000428 949.999999999998 0
638 424.996327452219 124.994418865044 0
639 350.000475070306 150.000077802881 0
640 275.004013612007 50.0050140937218 0
641 424.999643684191 74.9996226555861 0
642 449.998404968918 99.9976074386091 0
643 300.000907047042 125.0014721455 0
644 424.994530750862 149.991427864369 0
645 127.400786204954 651.133258303758 0
646 99.2240925620912 303.789351808091 0
647 79.5550676857279 444.940104840291 0
648 68.4792163832057 403.50470452261 0
649 99.082414299175 247.000772253792 0
650 101.539612620383 152.685264822083 0
651 121.700027510835 371.422502962161 0
652 131.225430224182 451.289078818334 0
653 121.236330969364 627.422166050822 0
654 175.452125900254 649.673186036725 0
655 89.956133528859 398.597500471012 0
656 398.893346440335 654.219100156098 0
657 103.451494942596 586.828379249867 0
658 85.753650779239 313.685222844261 0
659 72.1258577629336 200.887265241179 0
660 70.4064139253954 179.7465441128 0
661 131.435076917327 217.92270182425 0
662 90.1717142921528 82.3653752446052 0
663 109.832555977422 359.322397230068 0
664 153.855895827646 358.839008921796 0
665 71.1211561979251 383.261854553809 0
666 135.020479771489 365.164911141956 0
667 151.702977427034 75.4812723806832 0
668 200.411467891755 75.2625002282534 0
669 275.007799384052 75.0090667688627 0
670 325.000276724513 125.000336756765 0
671 374.999871657906 124.999473348233 0
672 150.299140634537 125.625261320235 0
673 120.372094929319 123.609674016421 0
674 74.7841597254143 575.241923716854 0
675 125.244955529398 194.140589910849 0
676 175.904706602025 100.544767966044 0
677 225.137281825674 125.175282888976 0
678 250.048037399085 100.053295171787 0
679 300.00167571383 75.002150268063 0
680 225.148226570076 75.1221044182231 0
681 275.012826575347 100.015334183636 0
682 349.999992851534 75.0000044411377 0
683 399.998592590029 124.997725934503 0
684 424.998517565066 99.9978778823193 0
685 399.999711797707 74.9996583376519 0
686 74.6941379805036 249.185255972021 0
687 72.8481990900388 224.341674515369 0
688 125.941010512287 150.431673092953 0
689 103.338714436634 553.176077248928 0
690 128.834026418753 98.4186256649589 0
691 127.742470365396 75.8512226276658 0
692 108.974540327632 172.929428626102 0
693 91.1269375494508 420.962033241292 0
694 93.9658597330234 225.316306423428 0
695 93.024284763745 572.980298410329 0
696 175.836076240092 75.376498742371 0
697 200.440861747532 100.358182928543 0
698 225.184716691609 100.17286943823 0
699 300.002839923185 100.003608217345 0
700 325.000605799236 100.000787374394 0
701 374.999767730444 99.9996110922684 0
702 350.000211041357 125.000015965376 0
703 399.999141416396 99.9987508143839 0
704 151.208166225402 100.173026771848 0
705 130.019428943297 171.531015608396 0
706 350.000088963876 100.000042091621 0
707 500 0 0
708 500 300 0
709 500 500 0
710 500 700 0
711 500 800 0
712 500 1000 0
713 1000 0 0
714 1000 300 0
715 1000 500 0
716 1000 700 0
717 1000 800 0
718 1000 1000 0
719 700 200 0
720 900 200 0
721 900 380 0
722 900 500 0
723 900 600 0
724 875 600 0
725 700 600 0
726 700 540 0
727 700 500 0
728 700 460 0
729 600 700 0
730 650 700 0
731 900 700 0
732 900 800 0
733 900 900 0
734 600 900 0
735 600 800 0
736 500 25 0
737 500 50 0
738 500 75 0
739 500 100 0
740 500 125 0
741 500 150 0
742 500 175 0
743 500 200 0
744 500 225 0
745 500 250 0
746 500 275 0
747 500 325 0
748 500 350 0
749 500 375 0
750 500 400 0
751 500 425 0
752 500 450 0
753 500 475 0
754 500 525 0
755 500 550 0
756 500 575 0
757 500 600 0
758 500 625 0
759 500 650 0
760 500 675 0
761 500 725 0
762 500 750 0
763 500 775 0
764 500 825 0
765 500 850 0
766 500 875 0
767 500 900 0
768 500 925 0
769 500 950 0
770 500 975 0
771 525 0 0
772 550 0 0
773 575 0 0
774 600 0 0
775 625 0 0
776 650 0 0
777 675 0 0
778 700 0 0
779 725 0 0
780 750 0 0
781 775 0 0
782 800 0 0
783 825 0 0
784 850 0 0
785 875 0 0
786 900 0 0
787 925 0 0
788 950 0 0
789 975 0 0
790 1000 25 0
791 1000 50 0
792 1000 75 0
793 1000 100 0
794 1000 125 0
795 1000 150 0
796 1000 175 0
797 1000 200 0
798 1000 225 0
799 1000 250 0
800 1000 275 0
801 1000 325 0
802 1000 350 0
803 1000 375 0
804 1000 400 0
805 1000 425 0
806 1000 450 0
807 1000 475 0
808 1000 525 0
809 1000 550 0
810 1000 575 0
811 1000 600 0
812 1000 625 0
813 1000 650 0
814 1000 675 0
815 1000 725 0
816 1000 750 0
817 1000 775 0
818 1000 825 0
819 1000 850 0
820 1000 875 0
821 1000 900 0
822 1000 925 0
823 1000 950 0
824 1000 975 0
825 975 1000 0
826 950 1000 0
827 925 1000 0
828 900 1000 0
829 875 1000 0
830 850 1000 0
831 825 1000 0
832 800 1000 0
833 775 1000 0
834 750 1000 0
835 725 1000 0
836 700 1000 0
837 675 1000 0
838 650 1000 0
839 625 1000 0
840 600 1000 0
841 575 1000 0
842 550 1000 0
843 525 1000 0
844 725 200 0
845 750 200 0
846 775 200 0
847 800 200 0
848 825 200 0
849 850 200 0
850 875 200 0
851 900 225.714285714286 0
852 900 251.428571428571 0
853 900 277.142857142857 0
854 900 302.857142857143 0
855 900 328.571428571429 0
856 900 354.285714285714 0
857 900 404 0
858 900 428 0
859 900 452 0
860 900 476 0
861 900 525 0
862 900 550 0
863 900 575 0
864 850 600 0
865 825 600 0
866 800 600 0
867 775 600 0
868 750 600 0
869 725 600 0
870 700 570 0
871 700 520 0
872 700 480 0
873 700 434 0
874 700 408 0
875 700 382 0
876 700 356 0
877 700 330 0
878 700 304 0
879 700 278 0
880 700 252 0
881 700 226 0
882 625 700 0
883 675 700 0
884 700 700 0
885 725 700 0
886 750 700 0
887 775 700 0
888 800 700 0
889 825 700 0
890 850 700 0
891 875 700 0
892 900 725 0
893 900 750 0
894 900 775 0
895 900 825 0
896 900 850 0
897 900 875 0
898 875 900 0
899 850 900 0
900 825 900 0
901 800 900 0
902 775 900 0
903 750 900 0
904 725 900 0
905 700 900 0
906 675 900 0
907 650 900 0
908 625 900 0
909 600 875 0
910 600 850 0
911 600 825 0
912 600 775 0
913 600 750 0
914 600 725 0
915 525 500 0
916 550 500 0
917 575 500 0
918 600 500 0
919 625 500 0
920 650 500 0
921 675 500 0
922 925 500 0
923 950 500 0
924 975 500 0
925 520 684 0
926 540 668 0
927 560 652 0
928 580 636 0
929 600 620 0
930 620 604 0
931 640 588 0
932 660 572 0
933 680 556 0
934 920 364 0
935 940 348 0
936 960 332 0
937 980 316 0
938 520 316 0
939 540 332 0
940 560 348 0
941 580 364 0
942 600 380 0
943 620 396 0
944 640 412 0
945 660 428 0
946 680 444 0
947 895.833333333333 616.666666666667 0
948 916.666666666667 633.333333333333 0
949 937.5 650 0
950 958.333333333333 666.666666666667 0
951 979.166666666667 683.333333333333 0
952 525 800 0
953 550 800 0
954 575 800 0
955 925 800 0
956 950 800 0
957 975 800 0
958 511.111111111111 977.777777777778 0
959 522.222222222222 955.555555555556 0
960 533.333333333333 933.333333333333 0
961 544.444444444444 911.111111111111 0
962 555.555555555556 888.888888888889 0
963 566.666666666667 866.666666666667 0
964 577.777777777778 844.444444444444 0
965 588.888888888889 822.222222222222 0
966 662.5 675 0
967 675 650 0
968 687.5 625 0
969 911.111111111111 177.777777777778 0
970 922.222222222222 155.555555555556 0
971 933.333333333333 133.333333333333 0
972 944.444444444444 111.111111111111 0
973 955.555555555556 88.8888888888888 0
974 966.666666666667 66.6666666666666 0
975 977.777777777778 44.4444444444444 0
976 988.888888888889 22.2222222222222 0
977 525.030851324198 175.015901401373 0
978 649.997990156452 25.0079407238235 0
979 749.995684823401 24.9980671414219 0
980 849.737706194259 25.0700493175802 0
981 699.92044307049 175.235646631373 0
982 749.998065951982 175.010454046271 0
983 825.342645616274 175.036095215659 0
984 674.723645985319 200.962575857052 0
985 674.385381084522 278.842603278497 0
986 974.694659230099 574.642739819901 0
987 924.915918654676 427.399682365764 0
988 975.399643736146 200.572823488978 0
989 525.002787429212 99.9996291498249 0
990 975 875 0
991 975 925 0
992 899.999999999978 975.000000000068 0
993 599.965647450904 975.950688045435 0
994 524.928972420089 750.259562970522 0
995 975.317704821497 725.794683874077 0
996 824.999999901273 975.000000271547 0
997 749.999904271202 975.000218973808 0
998 674.976214571454 975.04657163541 0
999 848.777189262836 624.003136920831 0
1000 799.855434844482 624.828484202761 0
1001 749.406307943472 624.753534560883 0
1002 574.998999073045 25.0019777117039 0
1003 975.288474997629 249.866832821108 0
1004 676.062879268561 330.099487909422 0
1005 925.629530802377 22.9309534984441 0
1006 922.019135710322 596.117052214353 0
1007 577.912353411992 701.051562194999 0
1008 926.411819620796 302.11346373617 0
1009 524.981240578814 425.924836165401 0
1010 524.512538126881 601.023767259445 0
1011 975.410669216374 400.761789204765 0
1012 925.571608676736 725.04691205359 0
1013 925 900 0
1014 899.999999999985 925.000000000046 0
1015 623.974100093843 925.686834409921 0
1016 724.211262007556 673.684638825826 0
1017 749.611362726684 674.593487919947 0
1018 774.84093677512 674.823680067836 0
1019 799.87881290694 674.818795510004 0
1020 850.151592158109 673.474596585856 0
1021 925 875 0
1022 849.999999998837 925.000000003636 0
1023 824.999999919145 925.000000218111 0
1024 774.999995139597 925.000012680955 0
1025 774.999983422604 975.000038988881 0
1026 749.999923151923 925.000182594501 0
1027 699.994319663827 925.008975350153 0
1028 575.540774339349 724.942452484042 0
1029 925.629282590348 225.748788200481 0
1030 925.641550621855 276.227974015545 0
1031 524.593947754053 274.503998334412 0
1032 530.73480511642 875.286771675914 0
1033 968.359862577109 124.822525195315 0
1034 602.237076398413 673.192199421167 0
1035 678.866684583524 481.591058037202 0
1036 676.302265972396 523.615028793389 0
1037 677.729572550246 378.671035505626 0
1038 528.663453683617 979.847576275203 0
1039 971.127890240049 19.8671752525628 0
1040 568.466444752164 822.183510225667 0
1041 524.612710269298 848.069243047145 0
1042 870.469799891128 623.704479648647 0
1043 975.004334096606 425.700270467535 0
1044 524.062892419876 824.061163676673 0
1045 674.553953575687 226.663587549075 0
1046 973.99953528837 152.157760162744 0
1047 525.000204301558 50.0003993011952 0
1048 525.109558253595 475.266610822066 0
1049 524.92628359285 550.468045189923 0
1050 974.937476855558 450.485735301709 0
1051 974.954257443865 475.240868915238 0
1052 974.95514868126 524.965839801811 0
1053 975.016691673759 775.113442628006 0
1054 975 825 0
1055 975 950 0
1056 924.775060528852 549.737116815552 0
1057 925.031558162313 775.073108056012 0
1058 925 825 0
1059 575.005725340596 750.116832884702 0
1060 799.926477540828 24.9764886090865 0
1061 699.993450051943 975.011961936439 0
1062 525.014416391903 150.007024934906 0
1063 525.13409668362 225.034665585429 0
1064 849.999999986826 975.000000036546 0
1065 879.006900386246 670.120255645157 0
1066 524.999994318099 25.0002528403112 0
1067 524.926440876354 775.120857071625 0
1068 624.997472924062 25.0066832806595 0
1069 699.999567049036 25.0057410715294 0
1070 900.661618777384 24.7587108266534 0
1071 974.419652778209 599.31850102535 0
1072 975 975 0
1073 924.999999999997 975.000000000009 0
1074 775.018990855998 175.003067458496 0
1075 851.093004721747 175.184660115359 0
1076 924.938159203567 524.936501556675 0
1077 674.958235793943 925.050192745455 0
1078 574.932224109411 775.08672983323 0
1079 624.966073892215 975.560814428272 0
1080 524.946317101138 525.223092920645 0
1081 524.338798347714 401.311566959764 0
1082 924.937248595184 475.769465247024 0
1083 550.041690855555 977.752394592596 0
1084 524.773516020295 902.615383688358 0
1085 975.05766641812 97.3999982324059 0
1086 574.259645659511 896.246259020602 0
1087 974.804053063249 703.258535182655 0
1088 918.369293362578 345.782811502991 0
1089 525.660604404035 702.674088363849 0
1090 975.138408431312 296.558699632482 0
1091 925.542336324627 381.393375731917 0
1092 685.0665294524 428.882682524037 0
1093 522.400151286778 378.036294689644 0
1094 523.667941032463 651.476475067167 0
1095 976.146608019736 349.233997455172 0
1096 524.666052777745 296.749866830409 0
1097 970.679229589233 627.186641372666 0
1098 682.515772879775 587.551640421798 0
1099 677.944676823722 464.586286528161 0
1100 524.310063569736 340.162380949488 0
1101 514.204411893264 670.911303982218 0
1102 985.758380624044 329.236371345055 0
1103 878.002364703321 175.682076854257 0
1104 631.140561210951 666.851084870436 0
1105 695.829938733819 669.185715407318 0
1106 722.859337352045 624.62696784521 0
1107 978.830278250021 654.076489351262 0
1108 674.835390151924 175.599671968121 0
1109 879.194437742217 150.430675316695 0
1110 649.992750266329 50.0279425270645 0
1111 749.998755862586 150.014356999829 0
1112 550.054226765765 175.126659842642 0
1113 649.623552602211 201.39569957568 0
1114 931.598881408926 85.4292293574666 0
1115 593.643986190616 927.056177928934 0
1116 924.999999999998 925.000000000007 0
1117 550.329318687006 426.829793322206 0
1118 550.274980718297 475.660538269889 0
1119 651.497038032694 523.464932435053 0
1120 555.12119845886 937.450276481015 0
1121 927.326455905965 43.3809597446045 0
1122 901.851478789103 677.843444280887 0
1123 949.257053158233 573.980548597727 0
1124 948.69955702527 597.617917315055 0
1125 546.273705612249 300.967870232558 0
1126 926.496819506154 699.161300789779 0
1127 872.494362922977 644.721274444553 0
1128 563.676339478433 842.363641430684 0
1129 949.936697166131 41.429468392722 0
1130 548.987887768227 402.332069060786 0
1131 551.432814761147 694.822598687666 0
1132 602.569260072844 648.879101102724 0
1133 952.552591460715 300.35825856089 0
1134 952.205542420645 699.692443769561 0
1135 950.351927479508 401.645252864542 0
1136 951.269240118885 372.597989703642 0
1137 949.997634629577 426.513678191655 0
1138 547.600511179899 631.023935194143 0
1139 925.381408669403 250.847519283838 0
1140 949.914477177628 451.029836122141 0
1141 674.379472251345 252.694217008991 0
1142 574.804236669756 976.649701135294 0
1143 949.939660863584 475.510533305534 0
1144 676.77123238473 355.213498124041 0
1145 675.113328884251 304.823716106949 0
1146 550.531151806781 724.729088583651 0
1147 977.721577382121 377.052688552127 0
1148 975.185132871547 176.297532156476 0
1149 875.055289462727 25.3347045913033 0
1150 825.554646757353 149.967622590646 0
1151 525.007293299995 125.001380331902 0
1152 674.998534399726 25.0089181483446 0
1153 649.769051725548 925.219650418998 0
1154 724.998706976356 925.002211271286 0
1155 525.001055748704 75.0004150474859 0
1156 549.999712039633 25.0009067448458 0
1157 599.997969596933 25.0043852848175 0
1158 774.974484609118 24.9895871165548 0
1159 824.812669702822 24.9858539433141 0
1160 974.845529303086 549.831015474102 0
1161 975.12608346664 750.283053959641 0
1162 975 850 0
1163 975 900 0
1164 950 975.000000000001 0
1165 874.999999998213 975.000000005008 0
1166 724.998559678852 975.002658140179 0
1167 649.926145189665 975.198922262632 0
1168 724.978565667573 175.060095385084 0
1169 800.11046241342 175.004808672171 0
1170 824.621022294546 624.577328726881 0
1171 925.172415687499 750.137448595811 0
1172 925 850 0
1173 874.999999999729 925.000000000848 0
1174 949.917595710133 524.918265225019 0
1175 549.913115849679 775.138070258595 0
1176 950.052600339933 775.123130887765 0
1177 950 825 0
1178 950 900 0
1179 950 925.000000000001 0
1180 899.999999999837 950.000000000472 0
1181 600.765643997317 953.406937760303 0
1182 824.999999817237 950.000000491569 0
1183 749.999724289881 950.000547556863 0
1184 674.94107623975 950.085666422408 0
1185 774.73571173151 649.756715678281 0
1186 774.785424883686 624.838703939082 0
1187 799.999998737632 925.000003282474 0
1188 724.998935188532 25.0024687809403 0
1189 799.999997234851 975.000006685075 0
1190 824.841195304851 674.498849954243 0
1191 549.819338859268 550.653319725224 0
1192 549.92010137651 525.323743839207 0
1193 525.165982347551 450.608266305854 0
1194 525.077624303206 200.046745951153 0
1195 975.332304953189 225.211836646028 0
1196 524.935722157732 575.782060356927 0
1197 525.020372679537 250.003177956555 0
1198 723.57324504364 648.865156194978 0
1199 522.100038380181 624.445406267103 0
1200 924.936725627825 451.552309440657 0
1201 924.218281647408 573.945723535144 0
1202 576.90215811163 671.555983493312 0
1203 651.253838468729 544.109504681652 0
1204 927.138145523952 201.610517921034 0
1205 703.964417583237 648.294584702015 0
1206 919.087574900924 611.104918894464 0
1207 647.006293602932 643.043735979381 0
1208 525.241636220496 725.144707770813 0
1209 975.440279755794 274.379872525352 0
1210 925.182594163364 403.080664544796 0
1211 668.406250570458 606.165568406985 0
1212 566.538243393117 918.039512297697 0
1213 533.480788484185 355.644384663655 0
1214 547.792866559978 861.702288960574 0
1215 949.377158157905 138.225116797831 0
1216 547.067192710032 822.890977632428 0
1217 949.844113255669 21.4009970517346 0
1218 549.03166845121 957.558325662153 0
1219 950.407426112374 639.621873303529 0
1220 649.578385296036 446.229334229221 0
1221 654.932607988614 473.557411544354 0
1222 925.169044160291 326.875916879798 0
1223 672.911938236628 404.206708463541 0
1224 938.158500808327 62.7472941437497 0
1225 874.295489817745 50.6757296061041 0
1226 674.898275877927 150.391868407674 0
1227 824.589296086786 49.93873520106 0
1228 774.94886244709 49.9780626097509 0
1229 724.997162617536 50.0080700172475 0
1230 550.013897626566 125.018712851813 0
1231 648.86873468426 253.280960326679 0
1232 550.179366162285 225.353999675371 0
1233 599.995385452285 50.0130442412353 0
1234 650.255437529577 307.430093494764 0
1235 630.259618825941 428.165149921266 0
1236 588.236665891738 333.902471298574 0
1237 800.153447240996 149.986176196181 0
1238 550.243925971201 576.140700336245 0
1239 625.471205674035 475.035382379267 0
1240 909.957760170194 128.601036598806 0
1241 647.254953617063 610.432231385289 0
1242 950.005288690515 155.023062543847 0
1243 652.38172138787 382.895142133187 0
1244 849.217632760909 648.077356873727 0
1245 950.842038748149 275.096062381208 0
1246 949.713669756816 549.650443596686 0
1247 649.330895791219 227.114306225508 0
1248 655.619254874251 354.725593368044 0
1249 550.055158655945 750.126144193129 0
1250 950.672711002082 725.420783855286 0
1251 649.80792065858 175.886052436741 0
1252 903.267504694522 52.9059487397351 0
1253 775.036755552503 149.997901812253 0
1254 950 850 0
1255 950 875 0
1256 824.636376954564 649.288720873511 0
1257 749.293054806124 649.510308232641 0
1258 550.001210468728 75.0033759465213 0
1259 624.395128056963 951.043547696955 0
1260 849.9999999636 950.00000009872 0
1261 774.999949776126 950.000105856214 0
1262 724.997844941496 950.003799557689 0
1263 699.984833988826 950.023105899565 0
1264 950 950.000000000001 0
1265 924.999999999977 950.000000000069 0
1266 649.764839692043 950.341107065286 0
1267 874.999999994217 950.000000015826 0
1268 799.999991566572 950.000018530087 0
1269 724.974829714675 150.073879264385 0
1270 799.791995544459 649.695129775065 0
1271 574.99819745528 50.0063189924885 0
1272 549.999832523812 50.002464001501 0
1273 851.944562068897 149.876096680917 0
1274 674.994052333143 50.0280782612125 0
1275 624.992836401428 50.0232910086188 0
1276 550.028509045927 150.067817080822 0
1277 575.242056103714 476.199446417246 0
1278 575.262029953296 525.367261209213 0
1279 950.921486890576 177.800766471276 0
1280 550.108140957308 200.25205608889 0
1281 951.15847528232 201.425312335456 0
1282 550.643466972271 451.339677148169 0
1283 950.23385597905 750.265402880211 0
1284 892.281447649453 641.120520079358 0
1285 950.503632244963 250.294938128518 0
1286 578.415869463232 426.723817745755 0
1287 550.522110511373 602.702744318387 0
1288 580.44589764154 601.840227342776 0
1289 925.611883270117 672.111842978216 0
1290 548.895348007416 275.663241851737 0
1291 628.757706666215 543.638759096239 0
1292 626.425053310387 523.300576038971 0
1293 619.257316593229 646.871084665627 0
1294 920.79651713988 106.101286360618 0
1295 567.076388506827 328.012641705397 0
1296 548.015634721843 375.927998366821 0
1297 954.52684795876 616.781884136783 0
1298 574.100398572882 951.866814263238 0
1299 935.470440151009 621.633739741385 0
1300 929.486968686747 180.108823749534 0
1301 907.741819316881 658.073803938285 0
1302 586.716662283709 651.033978113231 0
1303 640.574942029812 560.070301200699 0
1304 659.190157522319 627.069887489243 0
1305 520.457493872819 362.019466767936 0
1306 917.727356148026 66.679483341441 0
1307 903.348626698396 150.62808854783 0
1308 546.279058879112 844.981974915171 0
1309 649.894256935676 150.525730376149 0
1310 881.784649584895 121.739912499402 0
1311 599.992419379389 75.0337264901606 0
1312 649.981694329408 75.0723072973041 0
1313 825.386800584641 124.790141422293 0
1314 749.995776647009 125.012013933915 0
1315 575.010507647089 125.083253414837 0
1316 624.864745631426 175.904968944709 0
1317 624.367494915622 227.081050261002 0
1318 622.82445946704 572.263782319106 0
1319 594.111566506457 307.325462677539 0
1320 575.035239852246 175.388849399538 0
1321 575.053122128693 200.63191633557 0
1322 574.881222885927 550.540373003716 0
1323 599.901922856598 476.205768895534 0
1324 601.079975860874 524.710125839837 0
1325 648.790913672358 280.30787692675 0
1326 654.743258267097 331.158356791978 0
1327 800.093573927946 124.933191734899 0
1328 849.294856136763 50.0717770638027 0
1329 799.830696921276 49.9515563386792 0
1330 749.985100843821 49.9956227907503 0
1331 699.937599901868 150.207852904602 0
1332 550.00499858244 100.011497445003 0
1333 699.996015156808 50.0202365096194 0
1334 574.99855674418 75.015465041395 0
1335 549.856971865042 250.574211321215 0
1336 950.685740464762 225.630797940514 0
1337 575.836793729196 452.681498848145 0
1338 571.369530389118 401.821584963713 0
1339 604.017960298821 586.477129480508 0
1340 894.095478529336 75.402375986787 0
1341 569.927683542721 304.032408448781 0
1342 621.797280991657 449.718149329885 0
1343 606.67502629421 362.031467668442 0
1344 627.401853756403 371.174003822943 0
1345 611.120596958093 416.68342989486 0
1346 628.551993845366 627.085988663935 0
1347 913.003013182192 79.6013912917624 0
1348 898.161243141955 96.4054283639617 0
1349 894.294737235679 655.007234817518 0
1350 572.809933037282 381.938359429317 0
1351 649.937641651932 125.289174973573 0
1352 848.982503227766 74.6469831585935 0
1353 799.818746771261 74.9209902191378 0
1354 749.982635078441 74.9967164139597 0
1355 624.93069511517 150.50848910019 0
1356 597.556201158403 279.757483668214 0
1357 574.972889370662 225.963489631152 0
1358 623.746653730555 253.365745769167 0
1359 851.539820207036 124.114138789212 0
1360 634.152279875052 343.932129154204 0
1361 598.284129495812 455.023965612697 0
1362 624.703004986053 201.381676972599 0
1363 622.905781349831 281.054233417931 0
1364 824.931446722186 99.6940102476725 0
1365 775.018033116605 124.982018213857 0
1366 724.991236942832 75.0197673872892 0
1367 674.983517827507 75.0675809606486 0
1368 674.940670173282 125.23587606734 0
1369 724.980710199602 125.060813780313 0
1370 575.019459409448 150.213542835764 0
1371 624.985189020534 75.0602444011939 0
1372 575.001496197868 100.039093684363 0
1373 575.228838478377 574.657605444588 0
1374 599.951928877551 175.691715809741 0
1375 872.559737851913 96.4348548741233 0
1376 603.973200293304 553.101103128148 0
1377 572.9106839658 277.685557299153 0
1378 873.232575280153 74.5285147050287 0
1379 601.866376827923 434.921083647568 0
1380 609.290410736479 340.680766940511 0
1381 592.51004829986 405.878564602266 0
1382 593.631737095092 572.589837779376 0
1383 624.95902615608 125.26446953091 0
1384 622.081176589615 313.218372762211 0
1385 599.990051376579 100.085425233206 0
1386 649.964813467064 100.153724765261 0
1387 699.959301427755 125.144926158385 0
1388 799.949708569482 99.894304786116 0
1389 824.598884068464 74.8007233107593 0
1390 774.974933031919 99.9661480798757 0
1391 774.937561577731 74.9657803929094 0
1392 749.986156152703 100.002746689436 0
1393 699.9881585303 75.0465378328244 0
1394 574.352317340285 251.642162824223 0
1395 599.98773049301 125.192868475623 0
1396 599.975976316858 150.394221299793 0
1397 599.861107709937 201.073718065224 0
1398 599.599479832389 226.646646868909 0
1399 850.003391978354 98.8893712481708 0
1400 674.966629547543 100.134693949789 0
1401 724.984938531008 100.041217416641 0
1402 624.974488875053 100.138346868047 0
1403 598.896056443033 252.793242093717 0
1404 699.975436150003 100.090351568389 0
$EndNodes
$Elements
1262
1 2 2 1 1 505 608 379 
2 2 2 1 1 272 338 273 
3 2 2 1 1 252 337 253 
4 2 2 1 1 279 339 278 
5 2 2 1 1 618 662 624 
6 2 2 1 1 509 596 334 
7 2 2 1 1 9 57 227 
8 2 2 1 1 240 60 11 
9 2 2 1 1 400 508 226 
10 2 2 1 1 244 408 245 
11 2 2 1 1 6 5 241 
12 2 2 1 1 618 690 673 
13 2 2 1 1 434 520 384 
14 2 2 1 1 432 603 526 
15 2 2 1 1 407 524 509 
16 2 2 1 1 548 693 647 
17 2 2 1 1 546 595 528 
18 2 2 1 1 401 528 507 
19 2 2 1 1 397 450 440 
20 2 2 1 1 599 604 525 
21 2 2 1 1 500 656 596 
22 2 2 1 1 508 585 555 
23 2 2 1 1 22 232 148 
24 2 2 1 1 398 497 444 
25 2 2 1 1 221 444 222 
26 2 2 1 1 169 27 245 
27 2 2 1 1 436 523 310 
28 2 2 1 1 276 388 277 
29 2 2 1 1 255 387 254 
30 2 2 1 1 265 389 266 
31 2 2 1 1 234 601 515 
32 2 2 1 1 43 392 44 
33 2 2 1 1 242 500 241 
34 2 2 1 1 299 605 449 
35 2 2 1 1 241 343 6 
36 2 2 1 1 429 611 603 
37 2 2 1 1 611 662 415 
38 2 2 1 1 237 655 236 
39 2 2 1 1 554 653 645 
40 2 2 1 1 239 607 238 
41 2 2 1 1 503 609 591 
42 2 2 1 1 222 613 223 
43 2 2 1 1 277 426 276 
44 2 2 1 1 224 653 223 
45 2 2 1 1 219 394 26 
46 2 2 1 1 231 393 23 
47 2 2 1 1 27 390 245 
48 2 2 1 1 261 694 260 
49 2 2 1 1 228 395 3 
50 2 2 1 1 22 391 232 
51 2 2 1 1 270 510 269 
52 2 2 1 1 233 600 234 
53 2 2 1 1 259 660 258 
54 2 2 1 1 606 661 551 
55 2 2 1 1 221 505 220 
56 2 2 1 1 240 504 239 
57 2 2 1 1 14 76 271 
58 2 2 1 1 243 602 242 
59 2 2 1 1 243 525 244 
60 2 2 1 1 692 705 675 
61 2 2 1 1 228 392 229 
62 2 2 1 1 233 403 232 
63 2 2 1 1 648 665 655 
64 2 2 1 1 272 81 16 
65 2 2 1 1 20 252 130 
66 2 2 1 1 268 61 12 
67 2 2 1 1 189 31 279 
68 2 2 1 1 268 402 267 
69 3 2 1 1 216 368 49 4
70 3 2 1 1 486 487 300 418
71 3 2 1 1 107 108 281 455
72 3 2 1 1 281 108 109 466
73 3 2 1 1 418 18 417 562
74 3 2 1 1 620 531 671 683
75 3 2 1 1 466 109 110 361
76 3 2 1 1 110 111 475 361
77 3 2 1 1 378 197 198 320
78 3 2 1 1 363 571 472 304
79 3 2 1 1 348 483 247 248
80 3 2 1 1 378 468 196 197
81 3 2 1 1 51 50 347 502
82 3 2 1 1 247 483 374 246
83 3 2 1 1 487 577 479 300
84 3 2 1 1 49 368 347 50
85 3 2 1 1 531 620 414 282
86 3 2 1 1 196 468 329 195
87 3 2 1 1 479 577 483 348
88 3 2 1 1 322 489 574 575
89 3 2 1 1 195 329 480 194
90 3 2 1 1 194 480 328 193
91 3 2 1 1 369 485 250 249
92 3 2 1 1 250 485 373 251
93 3 2 1 1 320 473 575 378
94 3 2 1 1 182 374 355 181
95 3 2 1 1 246 374 182 28
96 3 2 1 1 181 355 327 180
97 3 2 1 1 180 327 326 179
98 3 2 1 1 532 361 475 640
99 3 2 1 1 179 326 325 178
100 3 2 1 1 301 79 78 364
101 3 2 1 1 302 489 86 85
102 3 2 1 1 84 478 302 85
103 3 2 1 1 327 487 486 326
104 3 2 1 1 464 88 87 322
105 3 2 1 1 217 482 368 216
106 3 2 1 1 371 482 217 218
107 3 2 1 1 638 684 642 535
108 3 2 1 1 489 322 87 86
109 3 2 1 1 457 563 356 293
110 3 2 1 1 355 577 487 327
111 3 2 1 1 301 369 80 79
112 3 2 1 1 80 369 249 16
113 3 2 1 1 639 702 671 531
114 3 2 1 1 89 88 464 296
115 3 2 1 1 483 577 355 374
116 3 2 1 1 641 685 542 570
117 3 2 1 1 356 563 637 469
118 3 2 1 1 92 91 315 362
119 3 2 1 1 300 479 96 95
120 3 2 1 1 96 479 348 97
121 3 2 1 1 640 475 357 572
122 3 2 1 1 642 684 641 571
123 3 2 1 1 97 348 248 19
124 3 2 1 1 210 481 353 209
125 3 2 1 1 248 370 98 19
126 3 2 1 1 98 370 349 99
127 3 2 1 1 350 422 210 209
128 3 2 1 1 99 349 303 100
129 3 2 1 1 412 534 643 476
130 3 2 1 1 459 292 202 203
131 3 2 1 1 461 570 542 284
132 3 2 1 1 18 418 300 95
133 3 2 1 1 18 94 294 417
134 3 2 1 1 468 378 575 574
135 3 2 1 1 170 372 246 28
136 3 2 1 1 163 371 218 25
137 3 2 1 1 209 353 162 24
138 3 2 1 1 683 703 684 638
139 3 2 1 1 287 535 642 470
140 3 2 1 1 575 473 464 322
141 3 2 1 1 684 703 685 641
142 3 2 1 1 303 430 13 100
143 3 2 1 1 145 380 311 144
144 3 2 1 1 541 535 287 467
145 3 2 1 1 464 473 565 296
146 3 2 1 1 565 567 462 296
147 3 2 1 1 573 639 474 367
148 3 2 1 1 161 493 382 160
149 3 2 1 1 353 493 161 162
150 3 2 1 1 702 639 573 670
151 3 2 1 1 482 576 347 368
152 3 2 1 1 318 419 8 56
153 3 2 1 1 160 382 312 159
154 3 2 1 1 643 670 573 476
155 3 2 1 1 314 152 153 346
156 3 2 1 1 283 477 543 412
157 3 2 1 1 346 153 154 351
158 3 2 1 1 155 25 218 352
159 3 2 1 1 2 38 282 414
160 3 2 1 1 351 154 155 352
161 3 2 1 1 1 285 365 32
162 3 2 1 1 571 641 570 472
163 3 2 1 1 474 639 531 282
164 3 2 1 1 251 373 175 29
165 3 2 1 1 33 477 283 34
166 3 2 1 1 32 365 477 33
167 3 2 1 1 132 304 360 131
168 3 2 1 1 177 178 325 458
169 3 2 1 1 133 363 304 132
170 3 2 1 1 470 642 571 363
171 3 2 1 1 283 366 35 34
172 3 2 1 1 350 209 24 142
173 3 2 1 1 476 573 367 366
174 3 2 1 1 363 133 134 470
175 3 2 1 1 412 476 366 283
176 3 2 1 1 37 36 367 474
177 3 2 1 1 36 35 366 367
178 3 2 1 1 282 38 37 474
179 3 2 1 1 560 316 469 637
180 3 2 1 1 467 287 135 136
181 3 2 1 1 287 470 134 135
182 3 2 1 1 204 316 459 203
183 3 2 1 1 204 205 469 316
184 3 2 1 1 637 417 294 560
185 3 2 1 1 471 565 473 320
186 3 2 1 1 177 458 359 176
187 3 2 1 1 458 457 293 359
188 3 2 1 1 465 294 94 93
189 3 2 1 1 92 362 465 93
190 3 2 1 1 567 565 471 375
191 3 2 1 1 462 315 91 90
192 3 2 1 1 296 462 90 89
193 3 2 1 1 315 462 567 463
194 3 2 1 1 317 463 567 375
195 3 2 1 1 562 417 637 563
196 3 2 1 1 566 562 563 457
197 3 2 1 1 124 125 331 313
198 3 2 1 1 30 176 359 208
199 3 2 1 1 137 297 467 136
200 3 2 1 1 471 199 200 375
201 3 2 1 1 286 106 107 455
202 3 2 1 1 320 198 199 471
203 3 2 1 1 486 418 562 566
204 3 2 1 1 361 532 568 466
205 3 2 1 1 325 566 457 458
206 3 2 1 1 359 293 207 208
207 3 2 1 1 412 543 635 534
208 3 2 1 1 325 326 486 566
209 3 2 1 1 284 542 410 376
210 3 2 1 1 317 375 200 201
211 3 2 1 1 357 475 111 112
212 3 2 1 1 460 280 113 114
213 3 2 1 1 113 280 357 112
214 3 2 1 1 116 284 376 115
215 3 2 1 1 461 284 116 117
216 3 2 1 1 572 409 615 679
217 3 2 1 1 362 315 463 456
218 3 2 1 1 456 463 317 292
219 3 2 1 1 542 685 616 410
220 3 2 1 1 202 292 317 201
221 3 2 1 1 360 358 118 119
222 3 2 1 1 703 683 671 701
223 3 2 1 1 472 570 461 358
224 3 2 1 1 21 131 360 119
225 3 2 1 1 685 703 701 616
226 3 2 1 1 304 472 358 360
227 3 2 1 1 701 706 682 616
228 3 2 1 1 356 469 205 206
229 3 2 1 1 206 207 293 356
230 3 2 1 1 700 706 702 670
231 3 2 1 1 115 376 460 114
232 3 2 1 1 118 358 461 117
233 3 2 1 1 460 561 409 280
234 3 2 1 1 564 465 362 456
235 3 2 1 1 410 616 682 561
236 3 2 1 1 294 465 564 560
237 3 2 1 1 409 572 357 280
238 3 2 1 1 671 702 706 701
239 3 2 1 1 460 376 410 561
240 3 2 1 1 459 316 560 564
241 3 2 1 1 292 459 564 456
242 3 2 1 1 615 409 561 682
243 3 2 1 1 682 706 700 615
244 3 2 1 1 670 643 699 700
245 3 2 1 1 699 643 534 681
246 3 2 1 1 679 615 700 699
247 3 2 1 1 543 477 365 569
248 3 2 1 1 569 365 285 411
249 3 2 1 1 619 680 568 532
250 3 2 1 1 669 619 532 640
251 3 2 1 1 640 572 679 669
252 3 2 1 1 679 699 681 669
253 3 2 1 1 678 681 534 635
254 3 2 1 1 633 281 466 568
255 3 2 1 1 669 681 678 619
256 3 2 1 1 635 543 569 677
257 3 2 1 1 295 73 72 490
258 3 2 1 1 619 678 698 680
259 3 2 1 1 568 680 668 633
260 3 2 1 1 306 104 105 453
261 3 2 1 1 677 569 411 634
262 3 2 1 1 680 698 697 668
263 3 2 1 1 72 71 321 490
264 3 2 1 1 455 281 633 530
265 3 2 1 1 677 634 697 698
266 3 2 1 1 453 105 106 286
267 3 2 1 1 683 638 644 620
268 3 2 1 1 638 535 541 644
269 3 2 1 1 307 1 67 452
270 3 2 1 1 698 678 635 677
271 3 2 1 1 291 122 123 451
272 3 2 1 1 211 580 481 210
273 3 2 1 1 454 285 1 307
274 3 2 1 1 285 454 529 411
275 3 2 1 1 485 369 301 447
276 3 2 1 1 321 71 70 492
277 3 2 1 1 411 529 614 634
278 3 2 1 1 350 142 143 491
279 3 2 1 1 451 123 124 313
280 3 2 1 1 297 137 138 494
281 3 2 1 1 493 353 481 582
282 3 2 1 1 318 56 55 496
283 3 2 1 1 70 69 298 492
284 3 2 1 1 581 419 318 579
285 3 2 1 1 143 144 311 491
286 3 2 1 1 414 620 644 578
287 3 2 1 1 298 69 68 495
288 3 2 1 1 211 210 422 549
289 3 2 1 1 559 449 328 480
290 3 2 1 1 558 630 291 451
291 3 2 1 1 480 329 636 559
292 3 2 1 1 574 489 302 636
293 3 2 1 1 329 468 574 636
294 3 2 1 1 584 541 467 297
295 3 2 1 1 581 579 490 321
296 3 2 1 1 636 302 478 559
297 3 2 1 1 297 494 586 584
298 3 2 1 1 138 139 305 494
299 3 2 1 1 382 493 582 544
300 3 2 1 1 544 423 312 382
301 3 2 1 1 421 583 491 311
302 3 2 1 1 435 421 311 380
303 3 2 1 1 584 578 644 541
304 3 2 1 1 68 13 379 495
305 3 2 1 1 422 350 491 583
306 3 2 1 1 2 414 578 420
307 3 2 1 1 490 579 498 295
308 3 2 1 1 447 301 364 590
309 3 2 1 1 55 54 319 496
310 3 2 1 1 319 594 498 496
311 3 2 1 1 291 630 538 446
312 3 2 1 1 2 420 330 39
313 3 2 1 1 39 330 443 40
314 3 2 1 1 351 445 441 346
315 3 2 1 1 499 330 420 586
316 3 2 1 1 494 305 499 586
317 3 2 1 1 318 496 498 579
318 3 2 1 1 48 47 501 383
319 3 2 1 1 4 48 383 216
320 3 2 1 1 308 371 163 164
321 3 2 1 1 346 441 439 314
322 3 2 1 1 352 218 217 448
323 3 2 1 1 216 383 448 217
324 3 2 1 1 578 584 586 420
325 3 2 1 1 330 499 588 443
326 3 2 1 1 545 298 495 645
327 3 2 1 1 446 121 122 291
328 3 2 1 1 445 351 352 448
329 3 2 1 1 175 373 354 174
330 3 2 1 1 354 447 590 324
331 3 2 1 1 308 576 482 371
332 3 2 1 1 305 381 588 499
333 3 2 1 1 344 41 40 443
334 3 2 1 1 251 29 183 345
335 3 2 1 1 492 654 581 321
336 3 2 1 1 103 104 306 385
337 3 2 1 1 446 538 587 288
338 3 2 1 1 601 435 380 396
339 3 2 1 1 451 313 550 558
340 3 2 1 1 42 41 344 310
341 3 2 1 1 488 303 349 557
342 3 2 1 1 299 478 84 17
343 3 2 1 1 696 668 697 676
344 3 2 1 1 633 668 696 530
345 3 2 1 1 523 43 42 310
346 3 2 1 1 545 654 492 298
347 3 2 1 1 354 373 485 447
348 3 2 1 1 140 381 305 139
349 3 2 1 1 372 484 247 246
350 3 2 1 1 247 484 370 248
351 3 2 1 1 146 396 380 145
352 3 2 1 1 78 15 431 364
353 3 2 1 1 450 151 152 314
354 3 2 1 1 323 372 170 171
355 3 2 1 1 158 159 312 497
356 3 2 1 1 288 120 121 446
357 3 2 1 1 308 164 165 442
358 3 2 1 1 448 383 501 445
359 3 2 1 1 495 379 554 645
360 3 2 1 1 559 478 299 449
361 3 2 1 1 183 184 332 345
362 3 2 1 1 290 501 47 46
363 3 2 1 1 589 431 15 427
364 3 2 1 1 676 697 634 614
365 3 2 1 1 344 556 436 310
366 3 2 1 1 309 166 167 399
367 3 2 1 1 556 344 443 588
368 3 2 1 1 174 354 324 173
369 3 2 1 1 652 504 425 593
370 3 2 1 1 10 58 335 215
371 3 2 1 1 336 59 10 215
372 3 2 1 1 349 370 484 557
373 3 2 1 1 553 576 308 442
374 3 2 1 1 484 372 323 557
375 3 2 1 1 590 364 431 438
376 3 2 1 1 437 550 313 331
377 3 2 1 1 398 157 158 497
378 3 2 1 1 686 538 630 687
379 3 2 1 1 397 150 151 450
380 3 2 1 1 215 335 424 214
381 3 2 1 1 425 336 215 214
382 3 2 1 1 332 184 185 341
383 3 2 1 1 529 631 672 614
384 3 2 1 1 454 540 631 529
385 3 2 1 1 539 429 306 453
386 3 2 1 1 452 67 66 333
387 3 2 1 1 419 585 508 8
388 3 2 1 1 581 654 585 419
389 3 2 1 1 696 676 704 667
390 3 2 1 1 295 377 74 73
391 3 2 1 1 538 686 623 587
392 3 2 1 1 519 250 251 345
393 3 2 1 1 690 691 667 704
394 3 2 1 1 550 437 258 660
395 3 2 1 1 453 286 629 539
396 3 2 1 1 530 629 286 455
397 3 2 1 1 445 501 290 441
398 3 2 1 1 424 503 591 592
399 3 2 1 1 333 66 65 342
400 3 2 1 1 594 377 295 498
401 3 2 1 1 595 664 267 402
402 3 2 1 1 553 442 309 428
403 3 2 1 1 342 65 64 389
404 3 2 1 1 81 272 273 82
405 3 2 1 1 82 273 274 83
406 3 2 1 1 130 252 253 129
407 3 2 1 1 129 253 254 128
408 3 2 1 1 62 267 266 63
409 3 2 1 1 188 278 277 187
410 3 2 1 1 189 279 278 188
411 3 2 1 1 61 268 267 62
412 3 2 1 1 438 390 324 590
413 3 2 1 1 399 167 168 408
414 3 2 1 1 213 212 626 593
415 3 2 1 1 687 694 649 686
416 3 2 1 1 502 347 576 553
417 3 2 1 1 331 125 126 340
418 3 2 1 1 6 343 524 52
419 3 2 1 1 580 211 212 625
420 3 2 1 1 389 265 264 342
421 3 2 1 1 340 126 127 387
422 3 2 1 1 413 391 288 587
423 3 2 1 1 429 603 385 306
424 3 2 1 1 588 381 512 556
425 3 2 1 1 512 381 140 141
426 3 2 1 1 421 435 648 548
427 3 2 1 1 521 102 103 385
428 3 2 1 1 593 425 214 213
429 3 2 1 1 427 15 77 334
430 3 2 1 1 387 255 256 340
431 3 2 1 1 607 239 504 652
432 3 2 1 1 341 185 186 388
433 3 2 1 1 511 323 171 172
434 3 2 1 1 557 323 511 488
435 3 2 1 1 513 290 46 45
436 3 2 1 1 442 165 166 309
437 3 2 1 1 497 312 423 444
438 3 2 1 1 521 385 603 432
439 3 2 1 1 580 622 582 481
440 3 2 1 1 673 688 650 533
441 3 2 1 1 213 592 625 212
442 3 2 1 1 192 193 328 384
443 3 2 1 1 395 513 45 3
444 3 2 1 1 599 506 289 610
445 3 2 1 1 450 314 439 440
446 3 2 1 1 651 663 552 666
447 3 2 1 1 629 667 691 539
448 3 2 1 1 688 705 692 650
449 3 2 1 1 379 13 430 505
450 3 2 1 1 549 626 212 211
451 3 2 1 1 546 666 664 595
452 3 2 1 1 667 629 530 696
453 3 2 1 1 441 290 513 439
454 3 2 1 1 191 520 339 190
455 3 2 1 1 384 328 449 605
456 3 2 1 1 394 511 172 26
457 3 2 1 1 393 512 141 23
458 3 2 1 1 430 303 488 518
459 3 2 1 1 526 415 255 254
460 3 2 1 1 388 276 275 341
461 3 2 1 1 243 242 599 525
462 3 2 1 1 519 345 332 433
463 3 2 1 1 549 422 583 647
464 3 2 1 1 408 168 169 245
465 3 2 1 1 621 413 587 623
466 3 2 1 1 705 540 632 675
467 3 2 1 1 656 500 242 602
468 3 2 1 1 264 265 416 597
469 3 2 1 1 337 521 432 253
470 3 2 1 1 544 582 622 674
471 3 2 1 1 229 230 397 440
472 3 2 1 1 690 704 672 673
473 3 2 1 1 533 598 618 673
474 3 2 1 1 597 536 263 264
475 3 2 1 1 558 659 687 630
476 3 2 1 1 256 255 415 598
477 3 2 1 1 514 386 275 276
478 3 2 1 1 336 425 504 240
479 3 2 1 1 503 424 335 227
480 3 2 1 1 221 220 398 444
481 3 2 1 1 338 519 433 273
482 3 2 1 1 239 238 528 401
483 3 2 1 1 238 237 546 528
484 3 2 1 1 597 416 628 646
485 3 2 1 1 377 406 75 74
486 3 2 1 1 601 234 235 665
487 3 2 1 1 225 226 508 555
488 3 2 1 1 556 512 393 436
489 3 2 1 1 407 53 52 524
490 3 2 1 1 551 452 333 606
491 3 2 1 1 598 533 257 256
492 3 2 1 1 627 537 607 652
493 3 2 1 1 665 235 236 655
494 3 2 1 1 675 661 261 260
495 3 2 1 1 624 691 690 618
496 3 2 1 1 605 426 434 384
497 3 2 1 1 148 232 403 147
498 3 2 1 1 649 536 623 686
499 3 2 1 1 617 225 224 657
500 3 2 1 1 266 267 664 527
501 3 2 1 1 537 237 238 607
502 3 2 1 1 545 645 653 555
503 3 2 1 1 551 632 307 452
504 3 2 1 1 523 436 230 229
505 3 2 1 1 299 17 514 605
506 3 2 1 1 377 594 510 406
507 3 2 1 1 339 520 434 278
508 3 2 1 1 552 663 547 628
509 3 2 1 1 438 431 589 244
510 3 2 1 1 408 244 525 399
511 3 2 1 1 659 660 259 260
512 3 2 1 1 606 517 263 262
513 3 2 1 1 661 606 262 261
514 3 2 1 1 660 659 558 550
515 3 2 1 1 614 672 704 676
516 3 2 1 1 435 601 665 648
517 3 2 1 1 214 424 592 213
518 3 2 1 1 406 271 76 75
519 3 2 1 1 249 338 272 16
520 3 2 1 1 14 271 334 77
521 3 2 1 1 101 337 252 20
522 3 2 1 1 190 339 279 31
523 3 2 1 1 527 416 265 266
524 3 2 1 1 7 269 319 54
525 3 2 1 1 269 7 53 407
526 3 2 1 1 655 237 537 693
527 3 2 1 1 433 516 274 273
528 3 2 1 1 648 655 693 548
529 3 2 1 1 650 692 259 258
530 3 2 1 1 258 257 533 650
531 3 2 1 1 661 675 632 551
532 3 2 1 1 613 222 444 423
533 3 2 1 1 416 527 552 628
534 3 2 1 1 591 609 617 689
535 3 2 1 1 547 235 234 600
536 3 2 1 1 240 239 401 60
537 3 2 1 1 539 691 624 429
538 3 2 1 1 611 415 526 603
539 3 2 1 1 389 64 63 266
540 3 2 1 1 387 127 128 254
541 3 2 1 1 657 224 223 613
542 3 2 1 1 554 222 223 653
543 3 2 1 1 388 186 187 277
544 3 2 1 1 540 454 307 632
545 3 2 1 1 260 259 692 675
546 3 2 1 1 413 621 600 233
547 3 2 1 1 250 519 338 249
548 3 2 1 1 434 426 277 278
549 3 2 1 1 672 631 688 673
550 3 2 1 1 518 220 505 430
551 3 2 1 1 270 269 407 509
552 3 2 1 1 102 521 337 101
553 3 2 1 1 51 502 289 5
554 3 2 1 1 506 241 5 289
555 3 2 1 1 625 592 591 689
556 3 2 1 1 524 343 596 509
557 3 2 1 1 394 518 488 511
558 3 2 1 1 231 230 436 393
559 3 2 1 1 395 440 439 513
560 3 2 1 1 585 654 545 555
561 3 2 1 1 219 220 518 394
562 3 2 1 1 626 627 652 593
563 3 2 1 1 228 229 440 395
564 3 2 1 1 270 271 406 510
565 3 2 1 1 437 522 257 258
566 3 2 1 1 646 658 621 623
567 3 2 1 1 503 227 226 609
568 3 2 1 1 693 537 627 647
569 3 2 1 1 626 549 647 627
570 3 2 1 1 262 263 536 649
571 3 2 1 1 589 602 243 244
572 3 2 1 1 674 695 657 613
573 3 2 1 1 236 663 651 237
574 3 2 1 1 705 688 631 540
575 3 2 1 1 233 234 515 403
576 3 2 1 1 401 507 12 60
577 3 2 1 1 432 526 254 253
578 3 2 1 1 423 544 674 613
579 3 2 1 1 555 653 224 225
580 3 2 1 1 500 596 343 241
581 3 2 1 1 595 402 507 528
582 3 2 1 1 583 421 548 647
583 3 2 1 1 509 334 271 270
584 3 2 1 1 515 601 396 612
585 3 2 1 1 400 226 227 57
586 3 2 1 1 656 427 334 596
587 3 2 1 1 156 405 219 26
588 3 2 1 1 149 404 231 23
589 3 2 1 1 44 392 228 3
590 3 2 1 1 336 240 11 59
591 3 2 1 1 9 227 335 58
592 3 2 1 1 390 27 173 324
593 3 2 1 1 689 622 580 625
594 3 2 1 1 602 589 427 656
595 3 2 1 1 649 694 261 262
596 3 2 1 1 611 429 624 662
597 3 2 1 1 221 222 608 505
598 3 2 1 1 391 22 120 288
599 3 2 1 1 646 623 536 597
600 3 2 1 1 319 269 510 594
601 3 2 1 1 694 687 659 260
602 3 2 1 1 514 276 426 605
603 3 2 1 1 413 233 232 391
604 3 2 1 1 604 599 428 309
605 3 2 1 1 507 402 268 12
606 3 2 1 1 438 244 245 390
607 3 2 1 1 17 83 386 514
608 3 2 1 1 651 666 546 237
609 3 2 1 1 662 618 598 415
610 3 2 1 1 609 226 225 617
611 3 2 1 1 275 274 516 341
612 3 2 1 1 264 263 517 342
613 3 2 1 1 622 689 695 674
614 3 2 1 1 522 437 331 340
615 3 2 1 1 403 515 612 147
616 3 2 1 1 663 236 235 547
617 3 2 1 1 666 552 527 664
618 3 2 1 1 610 289 502 553
619 3 2 1 1 256 257 522 340
620 3 2 1 1 274 275 386 83
621 3 2 1 1 520 191 192 384
622 3 2 1 1 428 599 610 553
623 3 2 1 1 658 646 628 547
624 3 2 1 1 658 547 600 621
625 3 2 1 1 405 398 220 219
626 3 2 1 1 404 397 230 231
627 3 2 1 1 523 229 392 43
628 3 2 1 1 608 222 554 379
629 3 2 1 1 399 525 604 309
630 3 2 1 1 150 397 404 149
631 3 2 1 1 157 398 405 156
632 3 2 1 1 8 508 400 57
633 3 2 1 1 617 657 695 689
634 3 2 1 1 612 396 146 147
635 3 2 1 1 333 342 517 606
636 3 2 1 1 332 341 516 433
637 3 2 1 1 506 599 242 241
638 2 2 2 2 959 1038 958 
639 2 2 2 2 975 1039 976 
640 2 2 2 2 726 870 933 
641 2 2 2 2 1347 1348 1340 
642 2 2 2 2 1098 1211 932 
643 2 2 2 2 723 947 724 
644 2 2 2 2 1120 1298 1218 
645 2 2 2 2 1129 1224 1121 
646 2 2 2 2 950 1289 949 
647 2 2 2 2 725 1098 870 
648 2 2 2 2 1361 1379 1342 
649 2 2 2 2 963 1128 964 
650 2 2 2 2 1095 1147 1136 
651 2 2 2 2 969 1307 970 
652 2 2 2 2 708 938 747 
653 2 2 2 2 1094 1199 1138 
654 2 2 2 2 927 1138 928 
655 2 2 2 2 716 951 814 
656 2 2 2 2 1223 1243 1037 
657 2 2 2 2 960 1084 961 
658 2 2 2 2 974 1085 973 
659 2 2 2 2 963 1086 962 
660 2 2 2 2 940 1296 1213 
661 2 2 2 2 1220 1342 1235 
662 2 2 2 2 1131 1202 1007 
663 2 2 2 2 939 1295 940 
664 2 2 2 2 1211 1304 1241 
665 2 2 2 2 942 1350 941 
666 2 2 2 2 1181 1298 1115 
667 2 2 2 2 1207 1304 967 
668 2 2 2 2 947 1042 724 
669 2 2 2 2 930 1346 929 
670 2 2 2 2 1248 1360 1326 
671 2 2 2 2 941 1343 942 
672 2 2 2 2 1035 1221 1099 
673 2 2 2 2 1338 1381 1286 
674 2 2 2 2 970 1300 969 
675 2 2 2 2 1203 1303 1291 
676 2 2 2 2 925 1089 710 
677 2 2 2 2 937 1090 714 
678 2 2 2 2 934 1091 721 
679 2 2 2 2 716 1087 951 
680 2 2 2 2 1122 1301 1289 
681 2 2 2 2 708 1096 938 
682 2 2 2 2 928 1288 929 
683 2 2 2 2 728 1099 946 
684 2 2 2 2 966 883 730 
685 2 2 2 2 967 1105 966 
686 2 2 2 2 948 1284 947 
687 2 2 2 2 949 1219 950 
688 2 2 2 2 1310 1375 1348 
689 2 2 2 2 946 1220 945 
690 2 2 2 2 934 1088 935 
691 2 2 2 2 939 1100 938 
692 2 2 2 2 950 1107 951 
693 2 2 2 2 1297 1299 1124 
694 2 2 2 2 958 712 770 
695 2 2 2 2 976 713 790 
696 2 2 2 2 735 911 965 
697 2 2 2 2 1380 1384 1360 
698 3 2 2 2 834 997 1025 833
699 3 2 2 2 1178 1179 1116 1013
700 3 2 2 2 1116 1265 1180 1014
701 3 2 2 2 826 1164 1072 825
702 3 2 2 2 1073 1164 826 827
703 3 2 2 2 992 1073 827 828
704 3 2 2 2 1264 1265 1116 1179
705 3 2 2 2 991 1179 1178 1163
706 3 2 2 2 829 1165 992 828
707 3 2 2 2 830 831 996 1064
708 3 2 2 2 830 1064 1165 829
709 3 2 2 2 832 1189 996 831
710 3 2 2 2 1025 1189 832 833
711 3 2 2 2 990 1255 1254 1162
712 3 2 2 2 1178 1255 990 1163
713 3 2 2 2 824 1072 1055 823
714 3 2 2 2 1166 997 834 835
715 3 2 2 2 1061 1166 835 836
716 3 2 2 2 836 837 998 1061
717 3 2 2 2 838 1167 998 837
718 3 2 2 2 839 1079 1167 838
719 3 2 2 2 840 993 1079 839
720 3 2 2 2 844 719 981 1168
721 3 2 2 2 845 982 1074 846
722 3 2 2 2 1168 982 845 844
723 3 2 2 2 847 1169 983 848
724 3 2 2 2 1074 1169 847 846
725 3 2 2 2 849 848 983 1075
726 3 2 2 2 922 1076 861 722
727 3 2 2 2 1266 1184 998 1167
728 3 2 2 2 772 1156 1066 771
729 3 2 2 2 1013 1116 1014 733
730 3 2 2 2 777 1152 978 776
731 3 2 2 2 1069 1152 777 778
732 3 2 2 2 979 1188 779 780
733 3 2 2 2 779 1188 1069 778
734 3 2 2 2 1180 1265 1073 992
735 3 2 2 2 1158 979 780 781
736 3 2 2 2 1060 1158 781 782
737 3 2 2 2 1159 1060 782 783
738 3 2 2 2 980 1159 783 784
739 3 2 2 2 1073 1265 1264 1164
740 3 2 2 2 1263 1184 1077 1027
741 3 2 2 2 861 1076 1056 862
742 3 2 2 2 1011 804 805 1043
743 3 2 2 2 1043 805 806 1050
744 3 2 2 2 807 715 924 1051
745 3 2 2 2 1050 806 807 1051
746 3 2 2 2 809 1160 1052 808
747 3 2 2 2 957 1053 817 717
748 3 2 2 2 818 1054 957 717
749 3 2 2 2 990 1162 819 820
750 3 2 2 2 819 1162 1054 818
751 3 2 2 2 821 1163 990 820
752 3 2 2 2 991 1163 821 822
753 3 2 2 2 823 1055 991 822
754 3 2 2 2 825 1072 824 718
755 3 2 2 2 954 1078 912 735
756 3 2 2 2 1014 1173 898 733
757 3 2 2 2 898 1173 1022 899
758 3 2 2 2 1166 1262 1183 997
759 3 2 2 2 1022 1023 900 899
760 3 2 2 2 1023 1187 901 900
761 3 2 2 2 901 1187 1024 902
762 3 2 2 2 902 1024 1026 903
763 3 2 2 2 904 903 1026 1154
764 3 2 2 2 904 1154 1027 905
765 3 2 2 2 1167 1079 1259 1266
766 3 2 2 2 905 1027 1077 906
767 3 2 2 2 906 1077 1153 907
768 3 2 2 2 953 1175 1078 954
769 3 2 2 2 1153 1015 908 907
770 3 2 2 2 956 1176 1053 957
771 3 2 2 2 912 1078 1059 913
772 3 2 2 2 913 1059 1028 914
773 3 2 2 2 1007 729 914 1028
774 3 2 2 2 1171 1283 1176 1057
775 3 2 2 2 1048 1118 916 915
776 3 2 2 2 1177 1254 1172 1058
777 3 2 2 2 1180 1267 1173 1014
778 3 2 2 2 1173 1267 1260 1022
779 3 2 2 2 1182 1268 1187 1023
780 3 2 2 2 1189 1268 1182 996
781 3 2 2 2 1188 1229 1333 1069
782 3 2 2 2 1052 1174 923 924
783 3 2 2 2 923 1174 1076 922
784 3 2 2 2 889 1190 1020 890
785 3 2 2 2 863 862 1056 1201
786 3 2 2 2 999 1170 865 864
787 3 2 2 2 865 1170 1000 866
788 3 2 2 2 867 866 1000 1186
789 3 2 2 2 1186 1001 868 867
790 3 2 2 2 1184 1266 1153 1077
791 3 2 2 2 1183 1262 1154 1026
792 3 2 2 2 1271 1272 1156 1002
793 3 2 2 2 1174 1052 1160 1246
794 3 2 2 2 887 886 1017 1018
795 3 2 2 2 1018 1019 888 887
796 3 2 2 2 1162 1254 1177 1054
797 3 2 2 2 888 1019 1190 889
798 3 2 2 2 1048 915 709 753
799 3 2 2 2 1165 1267 1180 992
800 3 2 2 2 1020 1065 891 890
801 3 2 2 2 1260 1267 1165 1064
802 3 2 2 2 1012 1171 893 892
803 3 2 2 2 893 1171 1057 894
804 3 2 2 2 894 1057 955 732
805 3 2 2 2 956 1177 1058 955
806 3 2 2 2 955 1058 895 732
807 3 2 2 2 1057 1176 956 955
808 3 2 2 2 896 1172 1021 897
809 3 2 2 2 1058 1172 896 895
810 3 2 2 2 1054 1177 956 957
811 3 2 2 2 897 1021 1013 733
812 3 2 2 2 1262 1263 1027 1154
813 3 2 2 2 1183 1261 1025 997
814 3 2 2 2 1268 1261 1024 1187
815 3 2 2 2 1164 1264 1055 1072
816 3 2 2 2 1022 1260 1182 1023
817 3 2 2 2 1055 1264 1179 991
818 3 2 2 2 750 1081 1009 751
819 3 2 2 2 1056 1076 1174 1246
820 3 2 2 2 1156 1272 1047 1066
821 3 2 2 2 1254 1255 1021 1172
822 3 2 2 2 1002 1156 772 773
823 3 2 2 2 1026 1024 1261 1183
824 3 2 2 2 1021 1255 1178 1013
825 3 2 2 2 915 1080 754 709
826 3 2 2 2 1025 1261 1268 1189
827 3 2 2 2 754 1080 1049 755
828 3 2 2 2 771 1066 736 707
829 3 2 2 2 1061 1263 1262 1166
830 3 2 2 2 1184 1263 1061 998
831 3 2 2 2 736 1066 1047 737
832 3 2 2 2 1182 1260 1064 996
833 3 2 2 2 1015 1153 1266 1259
834 3 2 2 2 743 1194 1063 744
835 3 2 2 2 1052 924 715 808
836 3 2 2 2 977 1194 743 742
837 3 2 2 2 1047 1272 1258 1155
838 3 2 2 2 1229 1188 979 1330
839 3 2 2 2 1047 1155 738 737
840 3 2 2 2 1330 979 1158 1228
841 3 2 2 2 774 1157 1002 773
842 3 2 2 2 738 1155 989 739
843 3 2 2 2 989 1151 740 739
844 3 2 2 2 1233 1271 1002 1157
845 3 2 2 2 1228 1158 1060 1329
846 3 2 2 2 1330 1228 1391 1354
847 3 2 2 2 1068 1157 774 775
848 3 2 2 2 740 1151 1062 741
849 3 2 2 2 1329 1060 1159 1227
850 3 2 2 2 989 1332 1230 1151
851 3 2 2 2 1353 1391 1228 1329
852 3 2 2 2 982 1111 1253 1074
853 3 2 2 2 776 978 1068 775
854 3 2 2 2 1062 977 742 741
855 3 2 2 2 1258 1332 989 1155
856 3 2 2 2 1314 1365 1253 1111
857 3 2 2 2 1229 1330 1354 1366
858 3 2 2 2 1276 1370 1320 1112
859 3 2 2 2 1258 1272 1271 1334
860 3 2 2 2 1366 1393 1333 1229
861 3 2 2 2 1152 1069 1333 1274
862 3 2 2 2 1371 1311 1233 1275
863 3 2 2 2 1062 1151 1230 1276
864 3 2 2 2 1233 1157 1068 1275
865 3 2 2 2 1390 1391 1353 1388
866 3 2 2 2 1388 1327 1365 1390
867 3 2 2 2 1168 1269 1111 982
868 3 2 2 2 1404 1393 1366 1401
869 3 2 2 2 1159 980 1328 1227
870 3 2 2 2 1332 1258 1334 1372
871 3 2 2 2 1068 978 1110 1275
872 3 2 2 2 1112 977 1062 1276
873 3 2 2 2 1311 1334 1271 1233
874 3 2 2 2 1110 978 1152 1274
875 3 2 2 2 1372 1334 1311 1385
876 3 2 2 2 1401 1366 1354 1392
877 3 2 2 2 1315 1370 1276 1230
878 3 2 2 2 1312 1110 1274 1367
879 3 2 2 2 1332 1372 1315 1230
880 3 2 2 2 1365 1314 1392 1390
881 3 2 2 2 1237 1150 983 1169
882 3 2 2 2 1169 1074 1253 1237
883 3 2 2 2 1274 1333 1393 1367
884 3 2 2 2 1371 1312 1386 1402
885 3 2 2 2 916 1192 1080 915
886 3 2 2 2 756 1196 1010 757
887 3 2 2 2 1327 1388 1364 1313
888 3 2 2 2 1275 1110 1312 1371
889 3 2 2 2 1314 1111 1269 1369
890 3 2 2 2 1253 1365 1327 1237
891 3 2 2 2 1392 1354 1391 1390
892 3 2 2 2 1314 1369 1401 1392
893 3 2 2 2 1148 796 797 988
894 3 2 2 2 1315 1372 1385 1395
895 3 2 2 2 1269 1168 981 1331
896 3 2 2 2 1150 1273 1075 983
897 3 2 2 2 1404 1401 1369 1387
898 3 2 2 2 985 879 878 1145
899 3 2 2 2 1313 1150 1237 1327
900 3 2 2 2 1048 753 752 1193
901 3 2 2 2 1383 1351 1309 1355
902 3 2 2 2 1359 1273 1150 1313
903 3 2 2 2 1369 1269 1331 1387
904 3 2 2 2 1049 1196 756 755
905 3 2 2 2 1385 1311 1371 1402
906 3 2 2 2 917 916 1118 1277
907 3 2 2 2 986 1160 809 810
908 3 2 2 2 917 1278 1192 916
909 3 2 2 2 1194 977 1112 1280
910 3 2 2 2 1141 880 879 985
911 3 2 2 2 752 751 1009 1193
912 3 2 2 2 1145 878 877 1004
913 3 2 2 2 1192 1191 1049 1080
914 3 2 2 2 1351 1368 1226 1309
915 3 2 2 2 1246 1160 986 1123
916 3 2 2 2 1063 1194 1280 1232
917 3 2 2 2 1351 1383 1402 1386
918 3 2 2 2 1117 1282 1193 1009
919 3 2 2 2 1130 1117 1009 1081
920 3 2 2 2 1118 1048 1193 1282
921 3 2 2 2 1321 1280 1112 1320
922 3 2 2 2 1145 1234 1325 985
923 3 2 2 2 1400 1368 1351 1386
924 3 2 2 2 1196 1049 1191 1238
925 3 2 2 2 1386 1312 1367 1400
926 3 2 2 2 1309 1226 1108 1251
927 3 2 2 2 1065 1122 731 891
928 3 2 2 2 1056 1246 1123 1201
929 3 2 2 2 1364 1388 1353 1389
930 3 2 2 2 1257 1001 1186 1185
931 3 2 2 2 1396 1370 1315 1395
932 3 2 2 2 1367 1393 1404 1400
933 3 2 2 2 1370 1396 1374 1320
934 3 2 2 2 1331 1226 1368 1387
935 3 2 2 2 1050 1140 1137 1043
936 3 2 2 2 720 1204 1029 851
937 3 2 2 2 1387 1368 1400 1404
938 3 2 2 2 981 1108 1226 1331
939 3 2 2 2 1329 1227 1389 1353
940 3 2 2 2 1030 853 852 1139
941 3 2 2 2 731 1126 1012 892
942 3 2 2 2 851 1029 1139 852
943 3 2 2 2 1395 1385 1402 1383
944 3 2 2 2 860 859 1200 1082
945 3 2 2 2 722 860 1082 922
946 3 2 2 2 1231 1141 985 1325
947 3 2 2 2 993 1181 1259 1079
948 3 2 2 2 1045 881 880 1141
949 3 2 2 2 881 1045 984 719
950 3 2 2 2 1257 1185 1018 1017
951 3 2 2 2 1043 1137 1135 1011
952 3 2 2 2 1051 924 923 1143
953 3 2 2 2 922 1082 1143 923
954 3 2 2 2 868 1001 1106 869
955 3 2 2 2 1251 1108 984 1113
956 3 2 2 2 988 797 798 1195
957 3 2 2 2 854 853 1030 1008
958 3 2 2 2 1045 1247 1113 984
959 3 2 2 2 1287 1010 1196 1238
960 3 2 2 2 1028 1146 1131 1007
961 3 2 2 2 1257 1198 1106 1001
962 3 2 2 2 1247 1045 1141 1231
963 3 2 2 2 1222 855 854 1008
964 3 2 2 2 1399 1364 1389 1352
965 3 2 2 2 1396 1395 1383 1355
966 3 2 2 2 1108 981 719 984
967 3 2 2 2 1140 1050 1051 1143
968 3 2 2 2 1000 1270 1185 1186
969 3 2 2 2 1399 1359 1313 1364
970 3 2 2 2 1053 1161 816 817
971 3 2 2 2 993 840 841 1142
972 3 2 2 2 1296 1130 1081 1093
973 3 2 2 2 1063 1197 745 744
974 3 2 2 2 1046 795 796 1148
975 3 2 2 2 1250 1283 1171 1012
976 3 2 2 2 1234 1145 1004 1326
977 3 2 2 2 1259 1181 1115 1015
978 3 2 2 2 1016 1198 1257 1017
979 3 2 2 2 1029 1336 1285 1139
980 3 2 2 2 1298 1181 993 1142
981 3 2 2 2 764 711 952 1044
982 3 2 2 2 1245 1030 1139 1285
983 3 2 2 2 1015 1115 734 908
984 3 2 2 2 763 1067 952 711
985 3 2 2 2 1126 731 1122 1289
986 3 2 2 2 1032 766 765 1041
987 3 2 2 2 1067 1175 953 952
988 3 2 2 2 1225 1328 980 1149
989 3 2 2 2 749 1093 1081 750
990 3 2 2 2 980 784 785 1149
991 3 2 2 2 745 1197 1031 746
992 3 2 2 2 1355 1309 1251 1316
993 3 2 2 2 816 1161 995 815
994 3 2 2 2 1190 1256 1244 1020
995 3 2 2 2 1202 1034 729 1007
996 3 2 2 2 1185 1270 1019 1018
997 3 2 2 2 1147 803 804 1011
998 3 2 2 2 798 799 1003 1195
999 3 2 2 2 1394 1377 1290 1335
1000 3 2 2 2 1004 877 876 1144
1001 3 2 2 2 758 757 1010 1199
1002 3 2 2 2 1281 1336 1029 1204
1003 3 2 2 2 988 1195 1336 1281
1004 3 2 2 2 1357 1232 1280 1321
1005 3 2 2 2 1316 1251 1113 1362
1006 3 2 2 2 1143 1082 1200 1140
1007 3 2 2 2 1118 1282 1337 1277
1008 3 2 2 2 1335 1290 1031 1197
1009 3 2 2 2 995 1161 1283 1250
1010 3 2 2 2 1352 1389 1227 1328
1011 3 2 2 2 1030 1245 1133 1008
1012 3 2 2 2 1176 1283 1161 1053
1013 3 2 2 2 1065 1020 1244 1127
1014 3 2 2 2 1232 1335 1197 1063
1015 3 2 2 2 1374 1396 1355 1316
1016 3 2 2 2 987 1200 859 858
1017 3 2 2 2 1003 1285 1336 1195
1018 3 2 2 2 885 1016 1017 886
1019 3 2 2 2 1149 1070 1252 1225
1020 3 2 2 2 1244 1256 1170 999
1021 3 2 2 2 1357 1321 1397 1398
1022 3 2 2 2 1059 1078 1175 1249
1023 3 2 2 2 727 871 1036 921
1024 3 2 2 2 1149 785 786 1070
1025 3 2 2 2 1250 1012 1126 1134
1026 3 2 2 2 1146 1028 1059 1249
1027 3 2 2 2 1374 1397 1321 1320
1028 3 2 2 2 850 849 1075 1103
1029 3 2 2 2 1323 1277 1337 1361
1030 3 2 2 2 1075 1273 1109 1103
1031 3 2 2 2 1094 759 758 1199
1032 3 2 2 2 1095 802 803 1147
1033 3 2 2 2 921 1036 1119 920
1034 3 2 2 2 1277 1323 918 917
1035 3 2 2 2 1170 1256 1270 1000
1036 3 2 2 2 1249 1175 1067 994
1037 3 2 2 2 1019 1270 1256 1190
1038 3 2 2 2 786 787 1005 1070
1039 3 2 2 2 1142 841 842 1083
1040 3 2 2 2 1397 1374 1316 1362
1041 3 2 2 2 1034 1104 882 729
1042 3 2 2 2 1104 1034 1132 1293
1043 3 2 2 2 1397 1362 1317 1398
1044 3 2 2 2 787 788 1217 1005
1045 3 2 2 2 1285 1003 1209 1245
1046 3 2 2 2 1282 1117 1286 1337
1047 3 2 2 2 872 1035 1099 728
1048 3 2 2 2 1362 1113 1247 1317
1049 3 2 2 2 1201 1123 1124 1006
1050 3 2 2 2 1231 1358 1317 1247
1051 3 2 2 2 1041 765 764 1044
1052 3 2 2 2 952 953 1216 1044
1053 3 2 2 2 875 874 1223 1037
1054 3 2 2 2 1191 1192 1278 1322
1055 3 2 2 2 1140 1200 987 1137
1056 3 2 2 2 1119 1203 1291 1292
1057 3 2 2 2 1358 1231 1325 1363
1058 3 2 2 2 794 795 1046 1033
1059 3 2 2 2 1218 1083 1038 959
1060 3 2 2 2 1308 1041 1044 1216
1061 3 2 2 2 959 958 770 769
1062 3 2 2 2 960 959 769 768
1063 3 2 2 2 975 976 790 791
1064 3 2 2 2 974 975 791 792
1065 3 2 2 2 963 964 910 909
1066 3 2 2 2 964 965 911 910
1067 3 2 2 2 1399 1352 1378 1375
1068 3 2 2 2 1328 1225 1378 1352
1069 3 2 2 2 1208 994 762 761
1070 3 2 2 2 767 766 1032 1084
1071 3 2 2 2 919 918 1323 1239
1072 3 2 2 2 1278 917 918 1324
1073 3 2 2 2 793 794 1033 1085
1074 3 2 2 2 1125 1096 1031 1290
1075 3 2 2 2 1335 1232 1357 1394
1076 3 2 2 2 811 1071 986 810
1077 3 2 2 2 1239 1221 920 919
1078 3 2 2 2 994 1067 763 762
1079 3 2 2 2 963 1214 1308 1128
1080 3 2 2 2 1042 999 864 724
1081 3 2 2 2 972 973 1085 1033
1082 3 2 2 2 1134 1087 995 1250
1083 3 2 2 2 1209 1003 799 800
1084 3 2 2 2 1279 1148 988 1281
1085 3 2 2 2 1199 1010 1287 1138
1086 3 2 2 2 1210 987 858 857
1087 3 2 2 2 1109 1273 1359 1310
1088 3 2 2 2 1221 1239 1342 1220
1089 3 2 2 2 1127 1244 999 1042
1090 3 2 2 2 1121 1252 1070 1005
1091 3 2 2 2 1221 1035 921 920
1092 3 2 2 2 1236 1380 1343 941
1093 3 2 2 2 919 1292 1324 918
1094 3 2 2 2 1091 1210 857 721
1095 3 2 2 2 1146 1208 1089 1131
1096 3 2 2 2 1341 1125 1290 1377
1097 3 2 2 2 1147 1011 1135 1136
1098 3 2 2 2 1107 950 1219 1097
1099 3 2 2 2 986 1071 1124 1123
1100 3 2 2 2 812 1097 1071 811
1101 3 2 2 2 1340 1378 1225 1252
1102 3 2 2 2 970 1307 1240 971
1103 3 2 2 2 1144 876 875 1037
1104 3 2 2 2 929 1346 1293 1132
1105 3 2 2 2 1137 987 1210 1135
1106 3 2 2 2 1249 994 1208 1146
1107 3 2 2 2 813 1107 1097 812
1108 3 2 2 2 1238 1191 1322 1373
1109 3 2 2 2 1284 1127 1042 947
1110 3 2 2 2 1090 1209 800 714
1111 3 2 2 2 863 1201 1006 723
1112 3 2 2 2 1089 1208 761 710
1113 3 2 2 2 1234 1384 1363 1325
1114 3 2 2 2 1245 1209 1090 1133
1115 3 2 2 2 1248 1326 1004 1144
1116 3 2 2 2 1308 1214 1032 1041
1117 3 2 2 2 814 951 1107 813
1118 3 2 2 2 734 1115 1212 1086
1119 3 2 2 2 927 926 1094 1138
1120 3 2 2 2 949 948 1299 1219
1121 3 2 2 2 964 1128 1040 965
1122 3 2 2 2 935 936 1095 1136
1123 3 2 2 2 962 1086 1212 961
1124 3 2 2 2 884 1105 1016 885
1125 3 2 2 2 1375 1378 1340 1348
1126 3 2 2 2 1203 1119 1036 933
1127 3 2 2 2 1046 1148 1279 1242
1128 3 2 2 2 1323 1361 1342 1239
1129 3 2 2 2 1134 1126 1289 950
1130 3 2 2 2 1296 940 941 1350
1131 3 2 2 2 1133 936 1222 1008
1132 3 2 2 2 1380 1360 1344 1343
1133 3 2 2 2 1318 931 930 1339
1134 3 2 2 2 747 938 1100 748
1135 3 2 2 2 1307 1109 1310 1240
1136 3 2 2 2 971 1240 1294 972
1137 3 2 2 2 1398 1403 1394 1357
1138 3 2 2 2 1212 1115 1298 1120
1139 3 2 2 2 1202 1131 926 927
1140 3 2 2 2 1129 1217 1039 975
1141 3 2 2 2 1035 872 727 921
1142 3 2 2 2 1356 1403 1358 1363
1143 3 2 2 2 1121 1005 1217 1129
1144 3 2 2 2 725 968 1211 1098
1145 3 2 2 2 1242 1279 1300 970
1146 3 2 2 2 1291 1303 1318 1376
1147 3 2 2 2 1339 930 929 1288
1148 3 2 2 2 1125 1341 1295 939
1149 3 2 2 2 1299 1206 1006 1124
1150 3 2 2 2 920 1119 1292 919
1151 3 2 2 2 1103 969 720 850
1152 3 2 2 2 976 1039 789 713
1153 3 2 2 2 883 966 1105 884
1154 3 2 2 2 1104 966 730 882
1155 3 2 2 2 958 1038 843 712
1156 3 2 2 2 965 1040 954 735
1157 3 2 2 2 1281 1204 1300 1279
1158 3 2 2 2 1248 1144 1037 1243
1159 3 2 2 2 1301 1349 1284 948
1160 3 2 2 2 1298 1142 1083 1218
1161 3 2 2 2 944 1243 1223 945
1162 3 2 2 2 1106 968 725 869
1163 3 2 2 2 962 961 1084 1032
1164 3 2 2 2 1138 1287 1288 928
1165 3 2 2 2 1356 1319 1341 1377
1166 3 2 2 2 973 1114 1224 974
1167 3 2 2 2 1236 941 940 1295
1168 3 2 2 2 1359 1399 1375 1310
1169 3 2 2 2 1394 1403 1356 1377
1170 3 2 2 2 1319 1236 1295 1341
1171 3 2 2 2 969 1300 1204 720
1172 3 2 2 2 768 767 1084 960
1173 3 2 2 2 792 793 1085 974
1174 3 2 2 2 1039 1217 788 789
1175 3 2 2 2 974 1224 1129 975
1176 3 2 2 2 1324 1292 1291 1376
1177 3 2 2 2 1235 944 945 1220
1178 3 2 2 2 1130 1296 1350 1338
1179 3 2 2 2 1207 967 966 1104
1180 3 2 2 2 1206 947 723 1006
1181 3 2 2 2 1373 1288 1287 1238
1182 3 2 2 2 1114 973 972 1294
1183 3 2 2 2 971 1215 1242 970
1184 3 2 2 2 1348 1294 1240 1310
1185 3 2 2 2 1241 1346 930 931
1186 3 2 2 2 1211 1241 931 932
1187 3 2 2 2 1205 1198 1016 1105
1188 3 2 2 2 943 942 1343 1344
1189 3 2 2 2 1381 1338 1350 942
1190 3 2 2 2 1099 1221 1220 946
1191 3 2 2 2 1131 1089 925 926
1192 3 2 2 2 1307 969 1103 1109
1193 3 2 2 2 1381 1345 1379 1286
1194 3 2 2 2 1319 1384 1380 1236
1195 3 2 2 2 937 936 1133 1090
1196 3 2 2 2 1040 1216 953 954
1197 3 2 2 2 1091 1136 1135 1210
1198 3 2 2 2 1340 1252 1306 1347
1199 3 2 2 2 934 935 1136 1091
1200 3 2 2 2 1379 1345 1235 1342
1201 3 2 2 2 1339 1288 1373 1382
1202 3 2 2 2 1241 1304 1207 1346
1203 3 2 2 2 1203 933 932 1303
1204 3 2 2 2 842 843 1038 1083
1205 3 2 2 2 967 968 1205 1105
1206 3 2 2 2 1218 959 960 1120
1207 3 2 2 2 1301 948 949 1289
1208 3 2 2 2 1306 1224 1114 1347
1209 3 2 2 2 1376 1322 1278 1324
1210 3 2 2 2 939 940 1213 1100
1211 3 2 2 2 1356 1363 1384 1319
1212 3 2 2 2 1121 1224 1306 1252
1213 3 2 2 2 1317 1358 1403 1398
1214 3 2 2 2 1384 1234 1326 1360
1215 3 2 2 2 1381 942 943 1345
1216 3 2 2 2 1344 1360 1248 1243
1217 3 2 2 2 1106 1198 1205 968
1218 3 2 2 2 1213 1296 1093 1305
1219 3 2 2 2 1098 932 933 870
1220 3 2 2 2 1361 1337 1286 1379
1221 3 2 2 2 1345 943 944 1235
1222 3 2 2 2 856 1088 934 721
1223 3 2 2 2 760 1101 925 710
1224 3 2 2 2 801 1102 937 714
1225 3 2 2 2 946 1092 873 728
1226 3 2 2 2 726 933 1036 871
1227 3 2 2 2 1294 1348 1347 1114
1228 3 2 2 2 1243 944 943 1344
1229 3 2 2 2 1132 1302 928 929
1230 3 2 2 2 938 1096 1125 939
1231 3 2 2 2 815 995 1087 716
1232 3 2 2 2 1134 950 951 1087
1233 3 2 2 2 746 1031 1096 708
1234 3 2 2 2 1349 1301 1122 1065
1235 3 2 2 2 1297 1097 1219 1299
1236 3 2 2 2 935 1088 1222 936
1237 3 2 2 2 909 734 1086 963
1238 3 2 2 2 961 1212 1120 960
1239 3 2 2 2 1216 1040 1128 1308
1240 3 2 2 2 1215 971 972 1033
1241 3 2 2 2 1303 932 931 1318
1242 3 2 2 2 1100 1213 1305 748
1243 3 2 2 2 1117 1130 1338 1286
1244 3 2 2 2 1322 1376 1382 1373
1245 3 2 2 2 968 967 1304 1211
1246 3 2 2 2 1092 946 945 1223
1247 3 2 2 2 1101 1094 926 925
1248 3 2 2 2 1102 1095 936 937
1249 3 2 2 2 927 928 1302 1202
1250 3 2 2 2 855 1222 1088 856
1251 3 2 2 2 1034 1202 1302 1132
1252 3 2 2 2 1127 1284 1349 1065
1253 3 2 2 2 802 1095 1102 801
1254 3 2 2 2 759 1094 1101 760
1255 3 2 2 2 1206 1299 948 947
1256 3 2 2 2 1318 1339 1382 1376
1257 3 2 2 2 1071 1097 1297 1124
1258 3 2 2 2 1305 1093 749 748
1259 3 2 2 2 1215 1033 1046 1242
1260 3 2 2 2 1092 1223 874 873
1261 3 2 2 2 1293 1346 1207 1104
1262 3 2 2 2 1214 963 962 1032
$EndElements
