$MeshFormat
2.2 0 8
$EndMeshFormat
$Nodes
45
1 0 0 0
2 100 0 0
3 100 200 0
4 0 200 0
5 25 0 0
6 50 0 0
7 75 0 0
8 100 25 0
9 100 50 0
10 100 75 0
11 100 100 0
12 100 125 0
13 100 150 0
14 100 175 0
15 75 200 0
16 50 200 0
17 25 200 0
18 0 175 0
19 0 150 0
20 0 125 0
21 0 100 0
22 0 75 0
23 0 50 0
24 0 25 0
25 75 50 0
26 75 100 0
27 25 150 0
28 25 125 0
29 25 100 0
30 25 75 0
31 50 25 0
32 75 150 0
33 25 25 0
34 75 25 0
35 75 175 0
36 25 175 0
37 75 75 0
38 75 125 0
39 50 175 0
40 25 50 0
41 50 50 0
42 50 100 0
43 50 150 0
44 50 125 0
45 50 75 0
$EndNodes
$Elements
32
1 3 2 1 1 22 23 40 30
2 3 2 1 1 30 45 42 29
3 3 2 1 1 16 39 35 15
4 3 2 1 1 25 41 31 34
5 3 2 1 1 45 37 26 42
6 3 2 1 1 32 13 14 35
7 3 2 1 1 15 35 14 3
8 3 2 1 1 41 45 30 40
9 3 2 1 1 12 13 32 38
10 3 2 1 1 12 38 26 11
11 3 2 1 1 28 27 19 20
12 3 2 1 1 10 11 26 37
13 3 2 1 1 25 9 10 37
14 3 2 1 1 37 45 41 25
15 3 2 1 1 8 9 25 34
16 3 2 1 1 38 44 42 26
17 3 2 1 1 8 34 7 2
18 3 2 1 1 34 31 6 7
19 3 2 1 1 29 28 20 21
20 3 2 1 1 28 29 42 44
21 3 2 1 1 30 29 21 22
22 3 2 1 1 19 27 36 18
23 3 2 1 1 33 40 23 24
24 3 2 1 1 44 43 27 28
25 3 2 1 1 17 36 39 16
26 3 2 1 1 32 43 44 38
27 3 2 1 1 41 40 33 31
28 3 2 1 1 35 39 43 32
29 3 2 1 1 43 39 36 27
30 3 2 1 1 4 18 36 17
31 3 2 1 1 6 31 33 5
32 3 2 1 1 5 33 24 1
$EndElements
