$MeshFormat
2.2 0 8
$EndMeshFormat
$Nodes
473
1 40 20 0
2 40 30 0
3 40 70 0
4 40 80 0
5 20 80 0
6 20 50 0
7 20 20 0
8 60 30 0
9 60 40 0
10 60 60 0
11 60 70 0
12 80 40 0
13 80 45 0
14 80 55 0
15 80 60 0
16 90 45 0
17 90 50 0
18 90 55 0
19 0 0 0
20 100 0 0
21 0 50 0
22 100 50 0
23 0 100 0
24 100 100 0
59 5 0 0
60 10 0 0
61 15 0 0
62 20 0 0
63 25 0 0
64 30 0 0
65 35 0 0
66 40 0 0
67 45 0 0
68 50 0 0
69 55 0 0
70 60 0 0
71 65 0 0
72 70 0 0
73 75 0 0
74 80 0 0
75 85 0 0
76 90 0 0
77 95 0 0
78 0 45 0
79 0 40 0
80 0 35 0
81 0 30 0
82 0 25 0
83 0 20 0
84 0 15 0
85 0 10 0
86 0 5 0
87 100 5 0
88 100 10 0
89 100 15 0
90 100 20 0
91 100 25 0
92 100 30 0
93 100 35 0
94 100 40 0
95 100 45 0
96 0 95 0
97 0 90 0
98 0 85 0
99 0 80 0
100 0 75 0
101 0 70 0
102 0 65 0
103 0 60 0
104 0 55 0
105 100 55 0
106 100 60 0
107 100 65 0
108 100 70 0
109 100 75 0
110 100 80 0
111 100 85 0
112 100 90 0
113 100 95 0
114 95 100 0
115 90 100 0
116 85 100 0
117 80 100 0
118 75 100 0
119 70 100 0
120 65 100 0
121 60 100 0
122 55 100 0
123 50 100 0
124 45 100 0
125 40 100 0
126 35 100 0
127 30 100 0
128 25 100 0
129 20 100 0
130 15 100 0
131 10 100 0
132 5 100 0
133 3.33333333333333 3.33333333333333 0
134 6.66666666666667 6.66666666666667 0
135 10 10 0
136 13.3333333333333 13.3333333333333 0
137 16.6666666666667 16.6666666666667 0
138 63.6363636363636 63.6363636363636 0
139 67.2727272727273 67.2727272727273 0
140 70.9090909090909 70.9090909090909 0
141 74.5454545454545 74.5454545454545 0
142 78.1818181818182 78.1818181818182 0
143 81.8181818181818 81.8181818181818 0
144 85.4545454545455 85.4545454545455 0
145 89.0909090909091 89.0909090909091 0
146 92.7272727272727 92.7272727272727 0
147 96.3636363636364 96.3636363636364 0
148 5 50 0
149 10 50 0
150 15 50 0
151 95 50 0
152 64.9999999749785 4.99999994091655 0
153 74.9999999998931 34.9999999997476 0
154 80 5 0
155 59.9073637760678 74.9269865909063 0
156 54.9999898639235 24.9999859932998 0
157 95 20 0
158 54.9999375544772 4.99997524208994 0
159 59.9947158113406 94.96019277205 0
160 10 95 0
161 34.999995628029 94.9999947528066 0
162 34.9974730383308 14.982642256971 0
163 95 30 0
164 14.9684115441474 29.942206304401 0
165 44.999753687851 94.9994791995929 0
166 24.9999999595013 84.9999999460101 0
167 15 75 0
168 95.0218401118458 64.9941412118737 0
169 15 60 0
170 70.0253893657199 94.8473344471503 0
171 25.0151025130051 4.93912419912906 0
172 39.9998932948341 84.9998315637494 0
173 34.9830011099033 4.99144938272086 0
174 4.91844268554171 24.8981883886937 0
175 4.99980302299669 39.9963371476199 0
176 4.99690239010807 34.98164913669 0
177 44.9999731021144 24.9999463236513 0
178 85.0029319436017 60.0016684994083 0
179 14.9937651075495 34.9810240500145 0
180 5 85 0
181 5 80 0
182 5 75 0
183 5 65 0
184 24.9999999603186 94.9999999468274 0
185 95.239799085908 74.8927004740346 0
186 4.76846662843678 19.9678558683655 0
187 20.1076126128387 4.86071615913674 0
188 95.3885783551648 79.6696752041359 0
189 80.0723863355018 94.8943991268958 0
190 80.0029781151708 64.995778633291 0
191 15.1964493546625 4.7751974510376 0
192 4.66186384076916 15.1487292118653 0
193 95 5 0
194 95 35 0
195 85 40 0
196 44.9986304307269 79.9961436427745 0
197 64.999999999064 34.9999999977899 0
198 95 40 0
199 95 45 0
200 95.0010990967165 55.0001774629034 0
201 14.9989192832739 39.9949312235555 0
202 5 60 0
203 14.9999999999968 94.9999999999968 0
204 5 95 0
205 44.9976364073522 4.99919674278651 0
206 90 5 0
207 95 10 0
208 44.9989442437638 74.9969831073399 0
209 34.9999838752115 84.999974993514 0
210 15 65 0
211 15 55 0
212 14.9998568437746 44.9989928387353 0
213 25.1456658558403 14.8437901070266 0
214 54.9752160480634 74.953397644581 0
215 74.9999999999026 4.9999999997701 0
216 4.99997202345505 44.9992288465734 0
217 5 55 0
218 49.9989941552678 94.9961797267553 0
219 14.2187767643026 19.5225210211921 0
220 6.54809061550124 3.45190935123257 0
221 3.92406228832499 7.55634935847712 0
222 95.5158077978463 84.266064345326 0
223 85.4551325187128 94.8479529941482 0
224 74.5825236760972 65.1190408792023 0
225 96.1858532210571 91.8104443160406 0
226 93.7306314871712 97.3937162687126 0
227 64.7445842331131 69.9859779059744 0
228 66.2694901147263 62.6059499192944 0
229 79.9999999999878 9.99999999997127 0
230 59.9999978561204 24.9999970499732 0
231 59.9178743889515 79.882924838867 0
232 19.9999999949057 84.9999999932193 0
233 90 10 0
234 44.9995329254227 19.9994189799763 0
235 39.9961753559829 14.9946002653097 0
236 14.9999999996816 79.9999999995762 0
237 44.9986164617951 84.9961155720801 0
238 85.0418121559388 64.9954243482485 0
239 90.5580778159342 74.7927477429195 0
240 64.7875904868506 75.1372163537932 0
241 9.80263015938284 24.859225742834 0
242 25.1154133809622 9.84012081194192 0
243 9.9999999999998 89.9999999999998 0
244 84.9999999999992 4.9999999999982 0
245 39.9998299877092 89.9996370307064 0
246 39.9999224568402 94.9998606389929 0
247 4.97146050684204 29.9511137564831 0
248 39.9931393814507 4.99659550358096 0
249 59.9999904839354 4.9999957357463 0
250 95 15 0
251 29.9938465416072 4.97070597386617 0
252 69.9999999962509 4.99999999114719 0
253 95 25 0
254 4.99999999999997 90 0
255 29.999999054316 94.9999988083145 0
256 90 30 0
257 79.9999999999866 34.9999999999685 0
258 9.94670511857124 29.9287015686671 0
259 29.999997583477 84.9999963366661 0
260 69.9999999992414 34.9999999982086 0
261 90 35 0
262 64.99999986206 29.9999998063021 0
263 90 40 0
264 90.0089545227904 59.9994649010485 0
265 15 70 0
266 30.0271613043459 14.9498356737236 0
267 49.9934941443716 74.984330655958 0
268 49.9994094653768 4.99976213016708 0
269 5 70 0
270 95.0061891651023 59.9989699681027 0
271 54.9969409550279 94.9826748170258 0
272 10 55 0
273 9.99989154126848 44.9986717794394 0
274 44.9990573282988 89.9973136399002 0
275 9.9999999999602 79.999999999947 0
276 10 65 0
277 9.99870450112163 39.9923787925655 0
278 49.9999484689649 24.9999310630507 0
279 19.9999999950075 94.9999999933211 0
280 14.7994457857984 24.8688512017139 0
281 65.0040439713039 94.9064070678243 0
282 95.1014632608583 69.9637518239068 0
283 75.0635903911546 94.8237314241341 0
284 80.1478841302277 89.8249549871456 0
285 80.2349500814536 69.9436735888197 0
286 91.1694428885094 79.1063475138905 0
287 20.5797062923634 14.3020469681572 0
288 9.3826432724989 20.001304597794 0
289 20.3970823964745 9.57437656302181 0
290 4.40661614633725 10.6279709876363 0
291 10.4685822678143 4.39197944719335 0
292 87.8313597368661 91.5319274040362 0
293 72.192102971889 68.4590633525761 0
294 92.0912157277914 88.1307872650511 0
295 89.2291587765724 95.9972140675299 0
296 70.7795116558358 63.9953924891412 0
297 95.5416155204242 88.201536120449 0
298 12.1579993089968 15.912154814428 0
299 74.9999999995214 29.9999999988699 0
300 64.9999992053728 9.99999949530824 0
301 54.9999446186966 19.9999478349051 0
302 59.9999878024306 9.99999278813223 0
303 64.9999995711303 24.9999994059954 0
304 54.9900839261943 89.959405500696 0
305 49.9912745196277 79.9759921814507 0
306 44.998155978167 14.9984314188312 0
307 59.9788227078273 89.9033260864211 0
308 64.7293231325594 79.954015843606 0
309 30.0189689713453 9.94232050472884 0
310 90 15 0
311 9.9999999999751 84.9999999999669 0
312 34.9999631216652 89.999929508614 0
313 14.9999999993612 89.9999999991499 0
314 84.9999999999984 9.99999999999618 0
315 90 25 0
316 39.9924059676432 9.99356218977045 0
317 24.9999996998464 89.9999995759796 0
318 84.9999999999983 34.9999999999961 0
319 74.9999999979991 9.99999999684363 0
320 14.9999999992348 84.9999999989825 0
321 69.9999999549817 29.9999999363686 0
322 54.9998627240679 9.99992648117671 0
323 9.9871333139282 34.972324292726 0
324 9.99999999997512 74.9999999999669 0
325 10 60 0
326 49.9991491034859 9.99954059000949 0
327 54.9676310782321 79.9366155667661 0
328 49.9960470846522 89.9855840405828 0
329 49.9997249244314 19.9997333004648 0
330 9.99999999999689 69.9999999999959 0
331 64.9812626962477 89.7993209992485 0
332 90.0473417079083 64.991117580246 0
333 90.2050630389658 69.9535849955582 0
334 70.0701442536348 89.5733863385189 0
335 75.1902094752559 89.5025482743919 0
336 85.278855910237 69.9754283261036 0
337 69.0335208889826 75.7511111212499 0
338 15.7444625210251 9.36012149386659 0
339 85.8283840642411 74.9793486827348 0
340 75.8553675704345 69.7387784441067 0
341 90.3063051040855 83.7294026139742 0
342 84.3175556282557 90.2338779686022 0
343 9.09503179921716 15.4494101001283 0
344 16.7684088505859 13.2800531196164 0
345 79.9999999993527 14.9999999990842 0
346 64.999998652516 14.9999989447473 0
347 79.9999999999 29.9999999997639 0
348 68.9440801875165 79.9997603039421 0
349 75.2755749903839 83.128459170599 0
350 64.8447837498259 84.7882542790396 0
351 34.9954348423378 9.97895824983982 0
352 90 20 0
353 59.9999880115059 19.9999886859406 0
354 19.9999999560681 89.9999999384345 0
355 69.9999998106777 9.99999986065362 0
356 29.999993487846 89.9999884186709 0
357 84.9999999999851 24.9999999999647 0
358 69.9999999020114 24.9999998668117 0
359 59.9999774089243 14.9999839052401 0
360 84.9999999999158 14.9999999998777 0
361 44.9970154360488 9.997899729502 0
362 49.9921453531903 84.9768302622865 0
363 54.9998341789337 14.9998854966274 0
364 54.97612787385 84.9371993372962 0
365 49.9992726183689 14.9994431527712 0
366 84.9999999999814 29.9999999999561 0
367 80.7314298466343 75.1906758148406 0
368 86.8244781348149 79.5356091888532 0
369 80.3056649005706 85.3006562704971 0
370 74.999999980563 14.9999999811055 0
371 74.9999999806077 24.9999999735115 0
372 84.9999999999393 19.9999999999044 0
373 64.9999966288701 19.9999970570577 0
374 69.9999995320041 14.9999996154404 0
375 79.9999999970056 24.9999999958598 0
376 59.9317519025685 84.8844117630917 0
377 69.6892046727376 84.3922212403484 0
378 72.2913882564029 78.2202520683869 0
379 79.9999999960873 19.9999999951379 0
380 69.9999993808182 19.9999994437595 0
381 74.9999998796431 19.9999998888148 0
382 40 40 0
383 40 50 0
407 23.3333333333333 23.3333333333333 0
408 26.6666666666667 26.6666666666667 0
409 30 30 0
410 33.3333333333333 33.3333333333333 0
411 36.6666666666667 36.6666666666667 0
412 25 50 0
413 30 50 0
414 35 50 0
415 35.053339802784 64.9840883707582 0
416 35.0851152893892 54.9698542626599 0
417 35.0037363362452 74.9994329363763 0
418 25.0032078984765 74.9987372236587 0
419 25.0465982089799 64.9714784714992 0
420 34.9768464206163 45.2055846875089 0
421 25.0300663373678 45.1390927926542 0
422 24.9598411753893 40.2947149402467 0
423 24.8317216134616 35.3914116087675 0
424 35.1735391264663 24.764012561059 0
425 25.0843958195163 54.9391598253302 0
426 34.4658456129339 40.724525645839 0
427 36.0520622451489 32.4244398561969 0
428 26.7223444861955 23.3535428293639 0
429 23.9505109164283 27.5847076971741 0
430 29.7415112200268 40.6000665245648 0
431 29.9409674977006 45.2413529995466 0
432 35.0176142973505 69.9948582573263 0
433 35.0849212260483 59.9651053540589 0
434 25.0159074431513 69.9920965020943 0
435 25.0796739299325 59.9481691080585 0
436 30.094888950724 54.9443548024386 0
437 30.0061453678677 74.9980565346014 0
438 33.4397976469526 36.8343290849945 0
439 24.4827077564379 30.7235529006909 0
440 30.5032092955731 24.3487949386606 0
441 35.5222913166107 29.3246351504461 0
442 29.4575216529326 35.9015758659507 0
443 30.0249970982934 69.9899269682264 0
444 30.093478610517 59.9505366197495 0
445 30.0564773355089 64.9733186883116 0
446 60 50 0
447 50 50 0
463 43.3333333333333 43.3333333333333 0
464 46.6666666666667 46.6666666666667 0
465 53.3333333333333 53.3333333333333 0
466 56.6666666666667 56.6666666666667 0
467 45 50 0
468 55 50 0
469 55.4922689594905 45.4653027939992 0
470 44.9545644590639 54.8678849182166 0
471 55.1667755572358 65.2287328828768 0
472 45.5102021519718 63.9085900823793 0
473 44.7844144449286 34.6384024793606 0
474 55.1232359913885 35.800839141046 0
475 51.4785432841072 45.6437831197484 0
476 48.5228068918608 53.8028534999024 0
477 54.8876124507148 60.9570815160888 0
478 44.6461138799377 38.6869420542738 0
479 56.5276162875582 53.4723837124418 0
480 43.4723838196545 46.5276161803455 0
481 51.662447961817 41.9566385168053 0
482 50.8573206418605 60.9632230163862 0
483 43.9198681605269 59.4336030803985 0
484 48.0268750922288 42.2658836001581 0
485 49.491161780334 34.6658475427173 0
486 50.4968969796291 65.1339604521368 0
487 54.2948151901777 58.0795527336393 0
488 55.6597653174348 40.9330767201738 0
489 48.5710627729911 38.7440674506591 0
490 50.8340990992039 56.7487028938467 0
491 48.0220524409338 60.7607976065183 0
492 51.5789867630597 38.9890982226057 0
493 47.2766328062175 58.3206837386126 0
494 80 50 0
503 65 50 0
504 70 50 0
505 75 50 0
506 75 45 0
507 75.0262758813517 54.9737241186483 0
508 70 45 0
509 65 45 0
510 65.0363812490133 54.9636187509867 0
511 70.0315669781367 54.9684330218633 0
514 85 50 0
515 40 25 0
516 40 75 0
517 35 80 0
518 30 80 0
519 25 80 0
520 20 75 0
521 20 70 0
522 20 65 0
523 20 60 0
524 20 55 0
525 20 45 0
526 20 40 0
527 20 35 0
528 20 30 0
529 20 25 0
530 25 20 0
531 30 20 0
532 35 20 0
533 60 35 0
534 60 65 0
535 55 70 0
536 50 70 0
537 45 70 0
538 45 30 0
539 50 30 0
540 55 30 0
541 65 40 0
542 70 40 0
543 75 40 0
544 75 60 0
545 70 60 0
546 65 60 0
547 85 55 0
548 85 45 0
549 40 35 0
550 40 45 0
551 40 55 0
552 40 60 0
553 40 65 0
554 60 45 0
555 60 55 0
$EndNodes
$Elements
449
1 2 2 1 1 133 86 19 
2 2 2 1 1 113 24 147 
4 2 2 1 1 115 226 114 
6 2 2 1 1 7 219 137 
7 2 2 1 1 224 340 293 
8 2 2 1 1 223 342 292 
9 2 2 1 1 337 378 348 
10 2 2 1 1 144 369 143 
11 2 2 1 1 225 297 112 
12 2 2 1 1 136 344 137 
13 2 2 1 1 146 292 145 
14 2 2 1 1 139 293 140 
15 2 2 1 1 145 294 146 
16 2 2 1 1 133 220 134 
17 2 2 1 1 138 228 139 
18 2 2 1 1 146 225 147 
19 2 2 1 1 147 226 146 
20 2 2 1 1 341 368 286 
21 2 2 1 1 227 138 139 
22 2 2 1 1 139 140 227 
23 2 2 1 1 142 141 367 
24 2 2 1 1 367 143 142 
27 2 2 1 1 411 438 410 
28 2 2 1 1 407 428 408 
29 2 2 1 1 470 493 483 
30 2 2 1 1 465 479 466 
31 2 2 1 1 464 475 447 
32 2 2 1 1 382 478 463 
33 2 2 1 1 463 484 464 
34 2 2 1 1 464 480 463 
35 3 2 1 1 66 67 205 248
36 3 2 1 1 272 325 202 217
37 3 2 1 1 202 325 276 183
38 3 2 1 1 260 321 299 153
39 3 2 1 1 347 366 318 257
40 3 2 1 1 260 197 262 321
41 3 2 1 1 311 320 313 243
42 3 2 1 1 317 166 259 356
43 3 2 1 1 312 356 259 209
44 3 2 1 1 66 248 173 65
45 3 2 1 1 323 179 201 277
46 3 2 1 1 373 380 358 303
47 3 2 1 1 68 268 205 67
48 3 2 1 1 245 312 209 172
49 3 2 1 1 212 273 277 201
50 3 2 1 1 214 327 305 267
51 3 2 1 1 299 347 257 153
52 3 2 1 1 71 72 252 152
53 3 2 1 1 72 73 215 252
54 3 2 1 1 229 319 215 154
56 3 2 1 1 195 12 257 318
57 3 2 1 1 155 231 327 214
60 3 2 1 1 261 263 195 318
62 3 2 1 1 196 208 267 305
64 3 2 1 1 362 328 274 237
65 3 2 1 1 73 74 154 215
67 3 2 1 1 362 237 196 305
68 3 2 1 1 198 263 261 194
69 3 2 1 1 149 272 217 148
70 3 2 1 1 149 273 212 150
71 3 2 1 1 149 150 211 272
72 3 2 1 1 148 216 273 149
73 3 2 1 1 265 330 276 210
74 3 2 1 1 345 370 319 229
75 3 2 1 1 103 202 183 102
76 3 2 1 1 97 98 180 254
77 3 2 1 1 204 96 97 254
78 3 2 1 1 371 375 347 299
79 3 2 1 1 99 181 180 98
80 3 2 1 1 262 8 230 303
81 3 2 1 1 100 182 181 99
82 3 2 1 1 120 281 170 119
83 3 2 1 1 101 269 182 100
84 3 2 1 1 101 102 183 269
85 3 2 1 1 96 204 132 23
86 3 2 1 1 236 275 324 167
87 3 2 1 1 217 202 103 104
88 3 2 1 1 148 217 104 21
89 3 2 1 1 311 275 236 320
90 3 2 1 1 270 200 105 106
91 3 2 1 1 168 270 106 107
92 3 2 1 1 230 156 301 353
93 3 2 1 1 236 5 232 320
94 3 2 1 1 234 1 235 306
95 3 2 1 1 184 128 129 279
96 3 2 1 1 317 356 255 184
97 3 2 1 1 255 356 312 161
98 3 2 1 1 78 216 148 21
99 3 2 1 1 277 273 216 175
100 3 2 1 1 355 319 370 374
101 3 2 1 1 176 175 79 80
102 3 2 1 1 79 175 216 78
103 3 2 1 1 319 355 252 215
104 3 2 1 1 274 328 218 165
106 3 2 1 1 127 128 184 255
107 3 2 1 1 126 127 255 161
108 3 2 1 1 363 359 353 301
109 3 2 1 1 126 161 246 125
110 3 2 1 1 91 253 157 90
111 3 2 1 1 94 198 194 93
112 3 2 1 1 199 198 94 95
113 3 2 1 1 151 199 95 22
114 3 2 1 1 169 325 272 211
115 3 2 1 1 371 381 379 375
116 3 2 1 1 277 175 176 323
120 3 2 1 1 380 381 371 358
121 3 2 1 1 323 258 164 179
122 3 2 1 1 177 234 329 278
123 3 2 1 1 276 325 169 210
128 3 2 1 1 182 269 330 324
132 3 2 1 1 324 275 181 182
134 3 2 1 1 200 151 22 105
135 3 2 1 1 363 365 326 322
136 3 2 1 1 270 264 18 200
137 3 2 1 1 16 199 151 17
139 3 2 1 1 16 263 198 199
140 3 2 1 1 358 371 299 321
141 3 2 1 1 180 181 275 311
142 3 2 1 1 17 151 200 18
143 3 2 1 1 330 265 167 324
145 3 2 1 1 303 358 321 262
146 3 2 1 1 278 329 301 156
148 3 2 1 1 379 381 370 345
149 3 2 1 1 329 234 306 365
151 3 2 1 1 302 322 158 249
152 3 2 1 1 158 322 326 268
153 3 2 1 1 237 172 4 196
156 3 2 1 1 172 237 274 245
158 3 2 1 1 370 381 380 374
159 3 2 1 1 353 373 303 230
161 3 2 1 1 359 363 322 302
162 3 2 1 1 183 276 330 269
167 3 2 1 1 301 329 365 363
172 3 2 1 1 207 88 89 250
173 3 2 1 1 157 250 89 90
174 3 2 1 1 258 323 176 247
175 3 2 1 1 163 253 91 92
176 3 2 1 1 163 92 93 194
177 3 2 1 1 80 81 247 176
178 3 2 1 1 366 357 315 256
179 3 2 1 1 232 166 317 354
180 3 2 1 1 194 261 256 163
181 3 2 1 1 253 315 352 157
182 3 2 1 1 163 256 315 253
183 3 2 1 1 64 251 171 63
184 3 2 1 1 173 251 64 65
185 3 2 1 1 318 366 256 261
187 3 2 1 1 317 184 279 354
188 3 2 1 1 326 365 306 361
189 3 2 1 1 205 268 326 361
190 3 2 1 1 165 218 123 124
191 3 2 1 1 355 374 346 300
192 3 2 1 1 360 372 379 345
193 3 2 1 1 124 125 246 165
194 3 2 1 1 87 193 77 20
195 3 2 1 1 346 359 302 300
196 3 2 1 1 347 375 357 366
197 3 2 1 1 77 193 206 76
198 3 2 1 1 375 379 372 357
199 3 2 1 1 346 373 353 359
200 3 2 1 1 158 268 68 69
201 3 2 1 1 245 274 165 246
202 3 2 1 1 69 70 249 158
203 3 2 1 1 71 152 249 70
204 3 2 1 1 193 87 88 207
205 3 2 1 1 312 245 246 161
206 3 2 1 1 374 380 373 346
207 3 2 1 1 361 316 248 205
208 3 2 1 1 249 152 300 302
209 3 2 1 1 252 355 300 152
210 3 2 1 1 314 360 345 229
211 3 2 1 1 313 354 279 203
212 3 2 1 1 361 306 235 316
213 3 2 1 1 314 229 154 244
214 3 2 1 1 372 352 315 357
215 3 2 1 1 160 243 313 203
216 3 2 1 1 254 243 160 204
217 3 2 1 1 244 206 233 314
218 3 2 1 1 254 180 311 243
219 3 2 1 1 131 132 204 160
220 3 2 1 1 244 154 74 75
221 3 2 1 1 320 232 354 313
222 3 2 1 1 233 206 193 207
223 3 2 1 1 352 372 360 310
224 3 2 1 1 279 129 130 203
225 3 2 1 1 310 360 314 233
226 3 2 1 1 207 250 310 233
227 3 2 1 1 75 76 206 244
228 3 2 1 1 250 157 352 310
229 3 2 1 1 130 131 160 203
230 3 2 1 1 218 271 122 123
231 3 2 1 1 247 81 82 174
232 3 2 1 1 218 328 304 271
233 3 2 1 1 122 271 159 121
234 3 2 1 1 159 281 120 121
235 3 2 1 1 364 362 305 327
236 3 2 1 1 328 362 364 304
237 3 2 1 1 307 304 364 376
238 3 2 1 1 159 271 304 307
239 3 2 1 1 327 231 376 364
240 3 2 1 1 189 117 118 283
241 3 2 1 1 168 107 108 282
242 3 2 1 1 334 170 281 331
243 3 2 1 1 62 63 171 187
244 3 2 1 1 331 281 159 307
245 3 2 1 1 118 119 170 283
246 3 2 1 1 108 109 185 282
247 3 2 1 1 316 235 162 351
248 3 2 1 1 173 248 316 351
249 3 2 1 1 264 332 238 178
250 3 2 1 1 332 264 270 168
251 3 2 1 1 61 62 187 191
252 3 2 1 1 190 15 178 238
253 3 2 1 1 239 333 282 185
254 3 2 1 1 238 336 285 190
255 3 2 1 1 332 168 282 333
256 3 2 1 1 291 60 61 191
257 3 2 1 1 191 187 289 338
258 3 2 1 1 238 332 333 336
263 3 2 1 1 115 116 223 295
264 3 2 1 1 189 223 116 117
265 3 2 1 1 187 171 242 289
266 3 2 1 1 336 333 239 339
267 3 2 1 1 251 173 351 309
268 3 2 1 1 309 242 171 251
269 3 2 1 1 291 191 338 135
270 3 2 1 1 339 367 285 336
271 3 2 1 1 258 247 174 241
272 3 2 1 1 280 164 258 241
273 3 2 1 1 369 144 342 284
274 3 2 1 1 340 285 367 141
275 3 2 1 1 189 284 342 223
276 3 2 1 1 190 285 340 224
277 3 2 1 1 241 174 186 288
278 3 2 1 1 11 227 240 155
280 3 2 1 1 219 280 241 288
281 3 2 1 1 170 334 335 283
282 3 2 1 1 309 266 213 242
283 3 2 1 1 351 162 266 309
284 3 2 1 1 174 82 83 186
285 3 2 1 1 186 83 84 192
286 3 2 1 1 284 189 283 335
287 3 2 1 1 331 307 376 350
288 3 2 1 1 231 308 350 376
290 3 2 1 1 84 85 290 192
291 3 2 1 1 110 188 185 109
292 3 2 1 1 111 222 188 110
293 3 2 1 1 155 240 308 231
294 3 2 1 1 186 192 343 288
295 3 2 1 1 242 213 287 289
297 3 2 1 1 377 334 331 350
298 3 2 1 1 308 240 337 348
299 3 2 1 1 143 367 339 368
300 3 2 1 1 349 142 143 369
301 3 2 1 1 348 377 350 308
302 3 2 1 1 140 337 240 227
303 3 2 1 1 369 284 335 349
304 3 2 1 1 239 286 368 339
305 3 2 1 1 146 294 297 225
306 3 2 1 1 343 192 290 135
307 3 2 1 1 348 378 349 377
308 3 2 1 1 368 341 144 143
309 3 2 1 1 145 144 341 294
310 3 2 1 1 136 298 343 135
311 3 2 1 1 337 140 141 378
312 3 2 1 1 188 222 341 286
313 3 2 1 1 297 222 111 112
314 3 2 1 1 290 221 134 135
315 3 2 1 1 140 293 340 141
316 3 2 1 1 145 292 342 144
317 3 2 1 1 222 297 294 341
318 3 2 1 1 137 344 287 7
319 3 2 1 1 335 334 377 349
320 3 2 1 1 137 219 298 136
321 3 2 1 1 133 134 221 86
322 3 2 1 1 338 344 136 135
323 3 2 1 1 113 147 225 112
324 3 2 1 1 134 220 291 135
326 3 2 1 1 114 226 147 24
327 3 2 1 1 59 220 133 19
328 3 2 1 1 293 139 296 224
329 3 2 1 1 292 146 295 223
330 3 2 1 1 378 141 142 349
331 3 2 1 1 295 146 226 115
333 3 2 1 1 286 239 185 188
334 3 2 1 1 221 290 85 86
335 3 2 1 1 298 219 288 343
336 3 2 1 1 344 338 289 287
337 3 2 1 1 60 291 220 59
338 3 2 1 1 418 434 443 437
344 3 2 1 1 437 443 432 417
347 3 2 1 1 415 432 443 445
348 3 2 1 1 445 443 434 419
353 3 2 1 1 413 412 421 431
354 3 2 1 1 444 433 415 445
357 3 2 1 1 414 413 431 420
360 3 2 1 1 435 444 445 419
365 3 2 1 1 422 430 431 421
366 3 2 1 1 444 435 425 436
367 3 2 1 1 425 412 413 436
370 3 2 1 1 430 426 420 431
371 3 2 1 1 442 423 439 409
373 3 2 1 1 442 430 422 423
374 3 2 1 1 440 424 441 409
375 3 2 1 1 416 433 444 436
377 3 2 1 1 411 382 426 438
378 3 2 1 1 439 429 408 409
379 3 2 1 1 441 427 410 409
380 3 2 1 1 436 413 414 416
381 3 2 1 1 408 428 440 409
385 3 2 1 1 410 438 442 409
387 3 2 1 1 438 426 430 442
397 3 2 1 1 468 447 475 469
400 3 2 1 1 482 477 471 486
404 3 2 1 1 491 493 490 482
408 3 2 1 1 475 464 484 481
410 3 2 1 1 484 463 478 489
411 3 2 1 1 481 488 469 475
412 3 2 1 1 489 492 481 484
413 3 2 1 1 491 482 486 472
414 3 2 1 1 476 447 465 490
415 3 2 1 1 476 470 467 447
416 3 2 1 1 466 10 477 487
417 3 2 1 1 489 478 473 485
418 3 2 1 1 468 479 465 447
421 3 2 1 1 467 480 464 447
422 3 2 1 1 483 493 491 472
423 3 2 1 1 492 489 485 474
424 3 2 1 1 476 490 493 470
425 3 2 1 1 482 490 487 477
427 3 2 1 1 488 481 492 474
428 3 2 1 1 487 490 465 466
430 3 2 1 1 509 508 504 503
436 3 2 1 1 508 506 505 504
437 3 2 1 1 505 506 13 494
439 3 2 1 1 14 507 505 494
442 3 2 1 1 510 503 504 511
445 3 2 1 1 505 507 511 504
3 2 2 1 1 138 534 10 
5 2 2 1 1 545 228 546 
25 2 2 1 1 407 529 7 
26 2 2 1 1 411 549 382 
55 3 2 1 1 153 543 542 260
58 3 2 1 1 536 267 208 537
59 3 2 1 1 214 267 536 535
61 3 2 1 1 539 538 177 278
63 3 2 1 1 278 156 540 539
66 3 2 1 1 197 260 542 541
105 3 2 1 1 162 235 1 532
117 3 2 1 1 521 265 210 522
118 3 2 1 1 12 543 153 257
119 3 2 1 1 167 265 521 520
124 3 2 1 1 518 517 209 259
125 3 2 1 1 547 178 15 14
126 3 2 1 1 518 259 166 519
127 3 2 1 1 517 4 172 209
129 3 2 1 1 537 208 516 3
130 3 2 1 1 12 195 548 13
131 3 2 1 1 515 1 234 177
133 3 2 1 1 515 177 538 2
138 3 2 1 1 195 263 16 548
144 3 2 1 1 18 264 178 547
147 3 2 1 1 533 197 541 9
150 3 2 1 1 208 196 4 516
154 3 2 1 1 5 519 166 232
155 3 2 1 1 5 236 167 520
157 3 2 1 1 211 150 6 524
160 3 2 1 1 522 210 169 523
163 3 2 1 1 11 155 214 535
164 3 2 1 1 169 211 524 523
165 3 2 1 1 527 179 164 528
166 3 2 1 1 150 212 525 6
168 3 2 1 1 526 201 179 527
169 3 2 1 1 8 262 197 533
170 3 2 1 1 156 230 8 540
171 3 2 1 1 212 201 526 525
186 3 2 1 1 529 528 164 280
259 3 2 1 1 531 266 162 532
260 3 2 1 1 529 280 219 7
261 3 2 1 1 545 544 224 296
262 3 2 1 1 190 224 544 15
279 3 2 1 1 213 266 531 530
289 3 2 1 1 287 213 530 7
296 3 2 1 1 227 11 534 138
325 3 2 1 1 546 228 138 10
332 3 2 1 1 296 139 228 545
339 3 2 1 1 520 521 434 418
340 3 2 1 1 520 418 519 5
341 3 2 1 1 518 519 418 437
342 3 2 1 1 437 417 517 518
343 3 2 1 1 432 3 516 417
345 3 2 1 1 517 417 516 4
346 3 2 1 1 553 3 432 415
349 3 2 1 1 434 521 522 419
350 3 2 1 1 550 383 414 420
351 3 2 1 1 435 419 522 523
352 3 2 1 1 412 6 525 421
355 3 2 1 1 525 526 422 421
356 3 2 1 1 6 412 425 524
358 3 2 1 1 532 1 515 424
359 3 2 1 1 433 552 553 415
361 3 2 1 1 552 433 416 551
362 3 2 1 1 551 416 414 383
363 3 2 1 1 524 425 435 523
364 3 2 1 1 440 531 532 424
368 3 2 1 1 527 528 439 423
369 3 2 1 1 515 2 441 424
372 3 2 1 1 426 382 550 420
376 3 2 1 1 526 527 423 422
382 3 2 1 1 411 410 427 549
383 3 2 1 1 407 408 429 529
384 3 2 1 1 530 428 407 7
386 3 2 1 1 531 440 428 530
388 3 2 1 1 429 439 528 529
389 3 2 1 1 427 441 2 549
390 3 2 1 1 534 11 535 471
391 3 2 1 1 549 2 538 473
392 3 2 1 1 536 537 472 486
393 3 2 1 1 535 536 486 471
394 3 2 1 1 540 8 533 474
395 3 2 1 1 473 538 539 485
396 3 2 1 1 537 3 553 472
398 3 2 1 1 474 533 9 488
399 3 2 1 1 469 554 446 468
401 3 2 1 1 472 553 552 483
402 3 2 1 1 554 469 488 9
403 3 2 1 1 551 470 483 552
405 3 2 1 1 485 539 540 474
406 3 2 1 1 470 551 383 467
407 3 2 1 1 477 10 534 471
409 3 2 1 1 478 382 549 473
419 3 2 1 1 466 479 555 10
420 3 2 1 1 463 480 550 382
426 3 2 1 1 480 467 383 550
429 3 2 1 1 479 468 446 555
431 3 2 1 1 13 506 543 12
432 3 2 1 1 554 509 503 446
433 3 2 1 1 543 506 508 542
434 3 2 1 1 542 508 509 541
435 3 2 1 1 541 509 554 9
438 3 2 1 1 544 507 14 15
440 3 2 1 1 446 503 510 555
441 3 2 1 1 555 510 546 10
443 3 2 1 1 545 546 510 511
444 3 2 1 1 507 544 545 511
446 3 2 1 1 13 548 514 494
447 3 2 1 1 17 514 548 16
448 3 2 1 1 18 547 514 17
449 3 2 1 1 494 514 547 14
$EndElements
