$MeshFormat
2.2 0 8
$EndMeshFormat
$Nodes
587
1 30 30 0
2 70 30 0
3 70 70 0
4 30 70 0
5 0 0 0
6 100 0 0
7 0 100 0
8 100 100 0
17 12.5 0 0
18 25 0 0
19 37.5 0 0
20 50 0 0
21 62.5 0 0
22 75 0 0
23 87.5 0 0
24 0 87.5 0
25 0 75 0
26 0 62.5 0
27 0 50 0
28 0 37.5 0
29 0 25 0
30 0 12.5 0
31 100 12.5 0
32 100 25 0
33 100 37.5 0
34 100 50 0
35 100 62.5 0
36 100 75 0
37 100 87.5 0
38 87.5 100 0
39 75 100 0
40 62.5 100 0
41 50 100 0
42 37.5 100 0
43 25 100 0
44 12.5 100 0
45 22.8835294769253 11.7583209298093 0
46 10.0748424601244 35.1435838776871 0
47 76.4396350605832 12.2564257062753 0
48 83.8031739343322 24.7399658542841 0
49 86.8417939771011 64.0800836708758 0
50 87.4255757098241 75.4849540538857 0
51 62.0790496200001 89.2034987485067 0
52 13.3967060347094 86.5794940381227 0
53 14.3814675856146 72.9886375846772 0
54 26.8848168865688 85.7986186861533 0
55 47.3970080385686 15.1001656446177 0
56 84.8241104901067 39.895226888064 0
57 14.9885332718672 59.318691831581 0
58 39.83023984411 86.599368719442 0
59 86.8930641764373 87.1251706581295 0
60 11.3775254734048 11.0765922965039 0
61 88.2389159739619 11.2852515179827 0
62 85.2299661050953 52.9196966507508 0
63 56.6239396839994 79.3539744802722 0
64 15.3927529198545 44.0486652055046 0
65 14.2429298160083 23.8902130235258 0
66 73.5526139770835 87.2728521916825 0
67 34.0941602120506 14.0204763107038 0
68 62.7552375043532 16.3942696188764 0
69 50.9236253919889 89.0893566040583 0
78 43.4902457834948 43.4902457834948 0
79 56.8247529067057 43.4914195733724 0
80 56.799354849469 56.799354849469 0
81 43.4243227523861 56.7576560857194 0
82 43.3333333333333 30 0
83 56.6666666666667 30 0
84 70 43.3333333333333 0
85 70 56.6666666666667 0
86 56.6666666666667 70 0
87 43.3333333333333 70 0
88 30 56.6666666666667 0
89 30 43.3333333333333 0
82 100 0 0
83 100 100 0
84 200 0 0
85 200 100 0
86 130 30 0
87 170 30 0
88 170 70 0
89 130 70 0
90 100 12.5 0
91 100 25 0
92 100 37.5 0
93 100 50 0
94 100 62.5 0
95 100 75 0
96 100 87.5 0
97 112.5 0 0
98 125 0 0
99 137.5 0 0
100 150 0 0
101 162.5 0 0
102 175 0 0
103 187.5 0 0
104 200 12.5 0
105 200 25 0
106 200 37.5 0
107 200 50 0
108 200 62.5 0
109 200 75 0
110 200 87.5 0
111 187.5 100 0
112 175 100 0
113 162.5 100 0
114 150 100 0
115 137.5 100 0
116 125 100 0
117 112.5 100 0
126 152.97150246642 14.7879089759288 0
127 147.013198961231 85.2372323537654 0
128 176.906723708476 11.8719053285177 0
129 184.041374892065 24.5436336371066 0
130 115.970406794564 75.5245433738899 0
131 123.180857377042 88.1492402043793 0
132 115.052480309666 60.293197106513 0
133 184.858368822947 39.8667665113232 0
134 111.888597080877 23.1213929985641 0
135 139.807412918016 15.0350410201593 0
136 186.837860161959 64.0736366434393 0
137 187.390833604215 75.3687196709608 0
138 159.892316055173 85.2406766694791 0
139 114.854879846796 47.0018287592757 0
140 111.207691224984 11.6312514589193 0
141 111.678608277016 88.8236292624677 0
142 188.347473733389 11.1951081299113 0
143 186.837910496128 86.91982239853 0
144 185.234215784331 52.91493480851 0
145 124.537413065935 15.9706297257377 0
146 173.19330352888 85.8335808806021 0
147 134.213645283443 85.9803460531577 0
148 165.806383439991 14.0330653935336 0
149 114.049387365906 34.1985254289391 0
158 143.670635720809 43.5089897549646 0
159 143.643883340074 56.8332400424803 0
160 156.910694578518 43.4923846810795 0
161 156.873420202638 56.7990034234356 0
162 143.333333333333 30 0
163 156.666666666667 30 0
164 170 43.3333333333333 0
165 170 56.6666666666667 0
166 156.666666666667 70 0
167 143.333333333333 70 0
168 130 56.6666666666667 0
169 130 43.3333333333333 0
162 200 0 0
163 200 100 0
164 300 0 0
165 300 100 0
166 230 30 0
167 270 30 0
168 270 70 0
169 230 70 0
170 200 12.5 0
171 200 25 0
172 200 37.5 0
173 200 50 0
174 200 62.5 0
175 200 75 0
176 200 87.5 0
177 212.5 0 0
178 225 0 0
179 237.5 0 0
180 250 0 0
181 262.5 0 0
182 275 0 0
183 287.5 0 0
184 300 12.5 0
185 300 25 0
186 300 37.5 0
187 300 50 0
188 300 62.5 0
189 300 75 0
190 300 87.5 0
191 287.5 100 0
192 275 100 0
193 262.5 100 0
194 250 100 0
195 237.5 100 0
196 225 100 0
197 212.5 100 0
206 273.173486954437 14.0923585650502 0
207 285.64378666418 26.9330863075079 0
208 286.848306360425 64.0865435814914 0
209 287.426542347648 75.4860299854199 0
210 262.077869497215 89.2077297224124 0
211 260.170376383499 13.3804114268812 0
212 214.25593453351 73.1834011857128 0
213 226.843960951459 85.8837516398312 0
214 214.75933981101 59.9205875301515 0
215 285.129542256203 40.247255748961 0
216 211.827181942986 22.9232580794583 0
217 237.582474999351 11.1395220926001 0
218 214.802322838081 46.9310747445317 0
219 239.820117424494 86.6267638840161 0
220 286.521428215284 13.4561070098336 0
221 286.893153983089 87.1254894813063 0
222 211.148993970988 11.4305345890518 0
223 213.464839824938 86.560800654313 0
224 256.621981598617 79.3604678671639 0
225 243.178866864223 20.8424629206948 0
226 285.27939356071 52.9750418454397 0
227 273.552339793428 87.2741976802114 0
228 224.20520677859 14.7406466648557 0
229 214.005648855644 34.0636258884125 0
230 248.994908980359 10.9872022141963 0
231 250.920792194915 89.0982088907888 0
240 256.788637961029 43.4553046276958 0
241 256.77514413537 56.7751441353704 0
242 243.402856840315 56.7361901736486 0
243 243.392430427024 43.3924304270237 0
244 243.333333333333 30 0
245 256.666666666667 30 0
246 270 43.3333333333333 0
247 270 56.6666666666667 0
248 256.666666666667 70 0
249 243.333333333333 70 0
250 230 56.6666666666667 0
251 230 43.3333333333333 0
244 300 0 0
245 300 100 0
246 400 0 0
247 400 100 0
248 330 30 0
249 370 30 0
250 370 70 0
251 330 70 0
252 300 12.5 0
253 300 25 0
254 300 37.5 0
255 300 50 0
256 300 62.5 0
257 300 75 0
258 300 87.5 0
259 312.5 0 0
260 325 0 0
261 337.5 0 0
262 350 0 0
263 362.5 0 0
264 375 0 0
265 387.5 0 0
266 400 12.5 0
267 400 25 0
268 400 37.5 0
269 400 50 0
270 400 62.5 0
271 400 75 0
272 400 87.5 0
273 387.5 100 0
274 375 100 0
275 362.5 100 0
276 350 100 0
277 337.5 100 0
278 325 100 0
279 312.5 100 0
288 311.827181942986 22.9232580794583 0
289 337.582474999351 11.1395220926001 0
290 373.173486954437 14.0923585650502 0
291 385.64378666418 26.9330863075079 0
292 386.848306360425 64.0865435814914 0
293 387.426542347648 75.4860299854199 0
294 362.077869497215 89.2077297224124 0
295 314.25593453351 73.1834011857128 0
296 326.843960951459 85.8837516398312 0
297 360.170376383499 13.3804114268812 0
298 339.820117424494 86.6267638840161 0
299 314.75933981101 59.9205875301515 0
300 385.129542256203 40.247255748961 0
301 314.802322838081 46.9310747445317 0
302 311.148993970988 11.4305345890518 0
303 313.464839824938 86.560800654313 0
304 386.521428215284 13.4561070098336 0
305 386.893153983089 87.1254894813063 0
306 343.178866864223 20.8424629206948 0
307 356.621981598617 79.3604678671639 0
308 385.27939356071 52.9750418454397 0
309 324.20520677859 14.7406466648557 0
310 373.552339793428 87.2741976802114 0
311 314.005648855644 34.0636258884125 0
312 348.994908980359 10.9872022141963 0
313 350.920792194915 89.0982088907888 0
322 356.890046418586 43.4993600546594 0
323 343.568707821987 56.8187447830485 0
324 343.476616300606 43.446177129867 0
325 356.83075011469 56.7905791124379 0
326 343.333333333333 30 0
327 356.666666666667 30 0
328 370 43.3333333333333 0
329 370 56.6666666666667 0
330 356.666666666667 70 0
331 343.333333333333 70 0
332 330 56.6666666666667 0
333 330 43.3333333333333 0
326 0 100 0
327 100 100 0
328 0 200 0
329 100 200 0
330 30 130 0
331 70 130 0
332 70 170 0
333 30 170 0
334 87.5 100 0
335 75 100 0
336 62.5 100 0
337 50 100 0
338 37.5 100 0
339 25 100 0
340 12.5 100 0
341 0 187.5 0
342 0 175 0
343 0 162.5 0
344 0 150 0
345 0 137.5 0
346 0 125 0
347 0 112.5 0
348 100 112.5 0
349 100 125 0
350 100 137.5 0
351 100 150 0
352 100 162.5 0
353 100 175 0
354 100 187.5 0
355 87.5 200 0
356 75 200 0
357 62.5 200 0
358 50 200 0
359 37.5 200 0
360 25 200 0
361 12.5 200 0
370 13.0644559832365 162.009058903657 0
371 13.1214447234255 150.83527643715 0
372 86.938581548624 137.991448677093 0
373 86.8997721117444 149.166845297797 0
374 37.91993213474 110.751493868826 0
375 26.5836627565542 112.860734933747 0
376 14.5164755816947 139.773513423904 0
377 85.5429860715483 160.22276461854 0
378 85.7645553823922 173.175023555401 0
379 62.0624507691975 189.144001803997 0
380 86.6159912658342 113.357258541056 0
381 73.1391147443293 114.124521250548 0
382 13.3839578957661 186.642683364748 0
383 26.861371232134 185.872954913152 0
384 60.176478931924 113.369001193316 0
385 39.8281542765767 186.611305248566 0
386 86.6232929723424 186.686579093204 0
387 13.4236746562511 113.208156920316 0
388 43.4086185396936 120.613637939903 0
389 56.6147444560237 179.319562036809 0
390 14.3420574979943 126.787334452247 0
391 73.380630559066 186.992456616009 0
392 14.1208480561387 173.372310173132 0
393 85.8795496730847 126.627581438307 0
394 49.0814753904305 110.883240143973 0
395 50.9203148105114 189.075732080979 0
404 56.8399795636112 143.506646230278 0
405 43.4861002347975 156.819433568131 0
406 43.4481667420954 143.448166742095 0
407 56.7930884587806 156.793088458781 0
408 43.3333333333333 130 0
409 56.6666666666667 130 0
410 70 143.333333333333 0
411 70 156.666666666667 0
412 56.6666666666667 170 0
413 43.3333333333333 170 0
414 30 156.666666666667 0
415 30 143.333333333333 0
408 100 100 0
409 200 100 0
410 100 200 0
411 200 200 0
412 130 130 0
413 170 130 0
414 170 170 0
415 130 170 0
416 187.5 100 0
417 175 100 0
418 162.5 100 0
419 150 100 0
420 137.5 100 0
421 125 100 0
422 112.5 100 0
423 100 112.5 0
424 100 125 0
425 100 137.5 0
426 100 150 0
427 100 162.5 0
428 100 175 0
429 100 187.5 0
430 200 112.5 0
431 200 125 0
432 200 137.5 0
433 200 150 0
434 200 162.5 0
435 200 175 0
436 200 187.5 0
437 187.5 200 0
438 175 200 0
439 162.5 200 0
440 150 200 0
441 137.5 200 0
442 125 200 0
443 112.5 200 0
452 162.006888111006 113.066250699598 0
453 150.832843390828 113.103014383233 0
454 114.711289790828 152.759851579103 0
455 185.489967060165 139.787921643335 0
456 186.861734382171 150.942019196397 0
457 146.994827879187 185.259684105218 0
458 139.781605097286 114.462928282141 0
459 126.929019924498 114.272779978092 0
460 114.798146289655 140.097357053425 0
461 186.587321033793 113.406665315278 0
462 186.952032016511 162.079441756455 0
463 185.958764143905 173.3873060994 0
464 159.869798744203 185.215704555462 0
465 114.738949187862 177.489096643054 0
466 122.916922736137 188.551794942486 0
467 113.512847973718 113.437331044006 0
468 111.422003856623 189.221000762369 0
469 186.600192864518 186.552941549447 0
470 114.436900451625 126.979382735711 0
471 173.039100547502 185.609330135932 0
472 173.349932483096 114.111625811479 0
473 185.648211389809 126.919195995328 0
474 134.07435706697 186.196602067579 0
475 113.594278478019 164.22433186745 0
484 156.779907982753 143.44657464942 0
485 156.767906458109 156.767906458109 0
486 143.395216310719 156.728549644053 0
487 143.385426462227 143.385426462227 0
488 143.333333333333 130 0
489 156.666666666667 130 0
490 170 143.333333333333 0
491 170 156.666666666667 0
492 156.666666666667 170 0
493 143.333333333333 170 0
494 130 156.666666666667 0
495 130 143.333333333333 0
488 200 100 0
489 300 100 0
490 200 200 0
491 300 200 0
492 230 130 0
493 270 130 0
494 270 170 0
495 230 170 0
496 287.5 100 0
497 275 100 0
498 262.5 100 0
499 250 100 0
500 237.5 100 0
501 225 100 0
502 212.5 100 0
503 200 112.5 0
504 200 125 0
505 200 137.5 0
506 200 150 0
507 200 162.5 0
508 200 175 0
509 200 187.5 0
510 300 112.5 0
511 300 125 0
512 300 137.5 0
513 300 150 0
514 300 162.5 0
515 300 175 0
516 300 187.5 0
517 287.5 200 0
518 275 200 0
519 262.5 200 0
520 250 200 0
521 237.5 200 0
522 225 200 0
523 212.5 200 0
532 286.573646650329 113.388986499702 0
533 273.112534740585 114.144418761024 0
534 285.5741883626 126.966930027092 0
535 286.845399728196 164.087188623993 0
536 287.425766440916 175.485948869728 0
537 262.06571843952 189.196011040667 0
538 260.172324648512 113.371592709831 0
539 214.770094322272 153.000555190239 0
540 285.105118146484 140.256104939974 0
541 237.920014911606 110.751693804638 0
542 226.586934452358 112.863989349532 0
543 214.79364633309 140.120177465418 0
544 211.849162761667 176.93901334176 0
545 224.45110721365 184.248546324523 0
546 239.436624025239 186.347509024326 0
547 286.892685621396 187.12513515389 0
548 213.429870874224 113.214366158623 0
549 211.174325275561 188.386800970861 0
550 285.27269564276 152.977054765557 0
551 256.583747511899 179.329204391639 0
552 243.40845119428 120.614050277102 0
553 273.547680383807 187.270088309928 0
554 214.387618246693 126.841891999004 0
555 214.020096970747 165.830934888297 0
556 249.080765743029 110.883687737426 0
557 250.849217593928 189.042511162647 0
566 256.824119003431 143.490785670098 0
567 243.470156641108 156.803489974441 0
568 256.788455945792 156.788455945792 0
569 243.414435282866 143.414435282866 0
570 243.333333333333 130 0
571 256.666666666667 130 0
572 270 143.333333333333 0
573 270 156.666666666667 0
574 256.666666666667 170 0
575 243.333333333333 170 0
576 230 156.666666666667 0
577 230 143.333333333333 0
570 300 100 0
571 400 100 0
572 300 200 0
573 400 200 0
574 330 130 0
575 370 130 0
576 370 170 0
577 330 170 0
578 387.5 100 0
579 375 100 0
580 362.5 100 0
581 350 100 0
582 337.5 100 0
583 325 100 0
584 312.5 100 0
585 300 112.5 0
586 300 125 0
587 300 137.5 0
588 300 150 0
589 300 162.5 0
590 300 175 0
591 300 187.5 0
592 400 112.5 0
593 400 125 0
594 400 137.5 0
595 400 150 0
596 400 162.5 0
597 400 175 0
598 400 187.5 0
599 387.5 200 0
600 375 200 0
601 362.5 200 0
602 350 200 0
603 337.5 200 0
604 325 200 0
605 312.5 200 0
614 337.917351526317 110.736183330264 0
615 326.452385603231 112.779455705012 0
616 309.655230651864 135.56198172604 0
617 386.573646650329 113.388986499702 0
618 373.112572139774 114.144371049932 0
619 385.574190700049 126.966927045149 0
620 386.845406075703 164.08719603244 0
621 387.42596013615 175.486150013357 0
622 362.077869739284 189.20764420707 0
623 314.327514292169 173.050549157559 0
624 326.850830014168 185.868081185793 0
625 360.17253779944 113.370624914427 0
626 314.954390835813 159.348272864208 0
627 385.105118438665 140.256104567231 0
628 339.821109573486 186.624195121668 0
629 313.163235223274 113.081885995076 0
630 313.477137398531 186.535554045808 0
631 386.893047621834 187.125507807362 0
632 343.400291426326 120.604401827453 0
633 385.272696472721 152.97705564502 0
634 356.622050308163 179.360204999371 0
635 315.207969934073 144.231458909704 0
636 312.334343576514 126.132630493686 0
637 373.552278547814 187.274178604558 0
638 349.079676002671 110.879477125124 0
639 350.920950118818 189.097721077033 0
648 343.526360231949 143.526360231949 0
649 356.854693957428 143.521360624095 0
650 356.83096243239 156.83096243239 0
651 343.453296974043 156.786630307376 0
652 343.333333333333 130 0
653 356.666666666667 130 0
654 370 143.333333333333 0
655 370 156.666666666667 0
656 356.666666666667 170 0
657 343.333333333333 170 0
658 330 156.666666666667 0
659 330 143.333333333333 0
$EndNodes
$Elements
479
1 2 2 1 1 49 50 3 
4 2 2 1 1 45 65 60 
5 2 2 1 1 47 61 48 
6 2 2 1 1 51 69 63 
9 3 2 1 1 24 52 44 7
10 3 2 1 1 31 61 23 6
11 3 2 1 1 41 42 58 69
12 3 2 1 1 17 60 30 5
13 3 2 1 1 38 59 37 8
14 3 2 1 1 48 61 31 32
15 3 2 1 1 56 48 32 33
16 3 2 1 1 23 61 47 22
17 3 2 1 1 57 53 25 26
18 3 2 1 1 25 53 52 24
19 3 2 1 1 52 54 43 44
20 3 2 1 1 51 40 41 69
21 3 2 1 1 45 60 17 18
22 3 2 1 1 43 54 58 42
23 3 2 1 1 51 63 3 66
24 3 2 1 1 37 59 50 36
25 3 2 1 1 59 38 39 66
26 3 2 1 1 45 67 1 65
30 3 2 1 1 45 18 19 67
31 3 2 1 1 21 22 47 68
32 3 2 1 1 55 20 21 68
33 3 2 1 1 19 20 55 67
34 3 2 1 1 39 40 51 66
35 3 2 1 1 60 65 29 30
36 3 2 1 1 2 68 47 48
38 3 2 1 1 27 28 46 64
39 3 2 1 1 34 35 49 62
40 3 2 1 1 36 50 49 35
41 3 2 1 1 1 64 46 65
43 3 2 1 1 27 64 57 26
44 3 2 1 1 34 62 56 33
47 3 2 1 1 29 65 46 28
48 3 2 1 1 54 52 53 4
50 3 2 1 1 50 59 66 3
57 3 2 1 1 81 78 79 80
2 2 2 1 1 83 68 2 
3 2 2 1 1 89 64 1 
7 2 2 1 1 63 87 86 
8 2 2 1 1 86 3 63 
27 3 2 1 1 57 88 4 53
28 3 2 1 1 56 84 2 48
29 3 2 1 1 4 87 58 54
37 3 2 1 1 83 82 55 68
42 3 2 1 1 3 85 62 49
45 3 2 1 1 88 57 64 89
46 3 2 1 1 84 56 62 85
49 3 2 1 1 87 63 69 58
51 3 2 1 1 82 1 67 55
52 3 2 1 1 78 89 1 82
53 3 2 1 1 4 88 81 87
54 3 2 1 1 89 78 81 88
55 3 2 1 1 2 84 79 83
56 3 2 1 1 78 82 83 79
58 3 2 1 1 86 87 81 80
59 3 2 1 1 79 84 85 80
60 3 2 1 1 3 86 80 85
61 2 2 2 2 136 137 88 
62 2 2 2 2 140 145 134 
63 2 2 2 2 128 142 129 
64 2 2 2 2 131 141 130 
65 3 2 2 2 97 140 90 82
66 3 2 2 2 114 127 138 113
67 3 2 2 2 100 126 135 99
68 3 2 2 2 104 142 103 84
69 3 2 2 2 96 141 117 83
70 3 2 2 2 111 143 110 85
71 3 2 2 2 130 141 96 95
72 3 2 2 2 132 130 95 94
73 3 2 2 2 129 142 104 105
74 3 2 2 2 133 129 105 106
75 3 2 2 2 103 142 128 102
76 3 2 2 2 139 132 94 93
77 3 2 2 2 117 141 131 116
78 3 2 2 2 140 97 98 145
79 3 2 2 2 90 140 134 91
80 3 2 2 2 98 99 135 145
81 3 2 2 2 112 113 138 146
82 3 2 2 2 110 143 137 109
83 3 2 2 2 143 111 112 146
87 3 2 2 2 92 91 134 149
88 3 2 2 2 127 114 115 147
89 3 2 2 2 101 102 128 148
90 3 2 2 2 126 100 101 148
91 3 2 2 2 86 149 134 145
92 3 2 2 2 115 116 131 147
93 3 2 2 2 139 93 92 149
98 3 2 2 2 131 130 89 147
99 3 2 2 2 87 148 128 129
100 3 2 2 2 107 108 136 144
101 3 2 2 2 109 137 136 108
103 3 2 2 2 107 144 133 106
105 3 2 2 2 137 143 146 88
117 3 2 2 2 160 161 159 158
84 3 2 2 2 133 164 87 129
85 3 2 2 2 135 162 86 145
86 3 2 2 2 138 166 88 146
94 3 2 2 2 139 169 168 132
95 3 2 2 2 127 167 166 138
96 3 2 2 2 126 163 162 135
97 3 2 2 2 132 168 89 130
102 3 2 2 2 88 165 144 136
104 3 2 2 2 164 133 144 165
106 3 2 2 2 147 89 167 127
107 3 2 2 2 148 87 163 126
108 3 2 2 2 149 86 169 139
109 3 2 2 2 158 169 86 162
110 3 2 2 2 87 164 160 163
111 3 2 2 2 158 162 163 160
112 3 2 2 2 160 164 165 161
113 3 2 2 2 159 161 166 167
114 3 2 2 2 167 89 168 159
115 3 2 2 2 168 169 158 159
116 3 2 2 2 161 165 88 166
118 2 2 3 3 208 209 168 
119 2 2 3 3 222 228 216 
120 2 2 3 3 210 231 224 
121 2 2 3 3 217 230 225 
126 3 2 3 3 177 222 170 162
127 3 2 3 3 184 220 183 164
128 3 2 3 3 176 223 197 163
129 3 2 3 3 194 195 219 231
130 3 2 3 3 180 181 211 230
131 3 2 3 3 191 221 190 165
132 3 2 3 3 215 207 185 186
133 3 2 3 3 207 220 184 185
134 3 2 3 3 197 223 213 196
135 3 2 3 3 212 223 176 175
136 3 2 3 3 214 212 175 174
137 3 2 3 3 183 220 206 182
138 3 2 3 3 196 213 219 195
139 3 2 3 3 218 214 174 173
140 3 2 3 3 182 206 211 181
141 3 2 3 3 170 222 216 171
142 3 2 3 3 222 177 178 228
143 3 2 3 3 210 193 194 231
144 3 2 3 3 217 179 180 230
145 3 2 3 3 210 224 168 227
146 3 2 3 3 190 221 209 189
147 3 2 3 3 217 225 166 228
148 3 2 3 3 221 191 192 227
152 3 2 3 3 166 229 216 228
153 3 2 3 3 178 179 217 228
154 3 2 3 3 172 171 216 229
155 3 2 3 3 192 193 210 227
156 3 2 3 3 218 173 172 229
159 3 2 3 3 187 188 208 226
160 3 2 3 3 189 209 208 188
162 3 2 3 3 187 226 215 186
164 3 2 3 3 213 223 212 169
165 3 2 3 3 206 220 207 167
168 3 2 3 3 209 221 227 168
177 3 2 3 3 242 243 240 241
122 2 2 3 3 224 249 248 
123 2 2 3 3 248 168 224 
124 2 2 3 3 244 166 225 
125 2 2 3 3 225 245 244 
149 3 2 3 3 169 249 219 213
150 3 2 3 3 167 245 211 206
151 3 2 3 3 215 246 167 207
157 3 2 3 3 218 251 250 214
158 3 2 3 3 214 250 169 212
161 3 2 3 3 168 247 226 208
163 3 2 3 3 246 215 226 247
166 3 2 3 3 249 224 231 219
167 3 2 3 3 245 225 230 211
169 3 2 3 3 229 166 251 218
170 3 2 3 3 167 246 240 245
171 3 2 3 3 244 243 251 166
172 3 2 3 3 242 249 169 250
173 3 2 3 3 244 245 240 243
174 3 2 3 3 242 250 251 243
175 3 2 3 3 248 249 242 241
176 3 2 3 3 240 246 247 241
178 3 2 3 3 241 247 168 248
179 2 2 4 4 292 293 250 
180 2 2 4 4 302 309 288 
181 2 2 4 4 294 313 307 
182 2 2 4 4 289 312 306 
187 3 2 4 4 259 302 252 244
188 3 2 4 4 266 304 265 246
189 3 2 4 4 258 303 279 245
190 3 2 4 4 276 277 298 313
191 3 2 4 4 262 263 297 312
192 3 2 4 4 273 305 272 247
193 3 2 4 4 279 303 296 278
194 3 2 4 4 291 304 266 267
195 3 2 4 4 300 291 267 268
196 3 2 4 4 295 303 258 257
197 3 2 4 4 299 295 257 256
198 3 2 4 4 265 304 290 264
199 3 2 4 4 278 296 298 277
200 3 2 4 4 301 299 256 255
201 3 2 4 4 264 290 297 263
202 3 2 4 4 252 302 288 253
203 3 2 4 4 302 259 260 309
204 3 2 4 4 294 275 276 313
205 3 2 4 4 289 261 262 312
206 3 2 4 4 294 307 250 310
207 3 2 4 4 272 305 293 271
208 3 2 4 4 289 306 248 309
209 3 2 4 4 305 273 274 310
213 3 2 4 4 248 311 288 309
214 3 2 4 4 260 261 289 309
215 3 2 4 4 254 253 288 311
216 3 2 4 4 274 275 294 310
217 3 2 4 4 301 255 254 311
220 3 2 4 4 269 270 292 308
221 3 2 4 4 271 293 292 270
223 3 2 4 4 269 308 300 268
225 3 2 4 4 296 303 295 251
226 3 2 4 4 290 304 291 249
229 3 2 4 4 293 305 310 250
239 3 2 4 4 323 324 322 325
183 2 2 4 4 307 331 330 
184 2 2 4 4 330 250 307 
185 2 2 4 4 306 327 326 
186 2 2 4 4 326 248 306 
210 3 2 4 4 251 331 298 296
211 3 2 4 4 249 327 297 290
212 3 2 4 4 300 328 249 291
218 3 2 4 4 301 333 332 299
219 3 2 4 4 299 332 251 295
222 3 2 4 4 250 329 308 292
224 3 2 4 4 328 300 308 329
227 3 2 4 4 331 307 313 298
228 3 2 4 4 327 306 312 297
230 3 2 4 4 311 248 333 301
231 3 2 4 4 249 328 322 327
232 3 2 4 4 324 333 248 326
233 3 2 4 4 322 324 326 327
234 3 2 4 4 322 328 329 325
235 3 2 4 4 330 331 323 325
236 3 2 4 4 331 251 332 323
237 3 2 4 4 332 333 324 323
238 3 2 4 4 325 329 250 330
242 2 2 5 5 374 394 388 
243 2 2 5 5 379 395 389 
248 3 2 5 5 355 386 354 329
249 3 2 5 5 377 373 351 352
250 3 2 5 5 373 372 350 351
251 3 2 5 5 376 371 344 345
252 3 2 5 5 371 370 343 344
253 3 2 5 5 348 380 334 327
254 3 2 5 5 341 382 361 328
255 3 2 5 5 358 359 385 395
256 3 2 5 5 337 336 384 394
257 3 2 5 5 340 387 347 326
258 3 2 5 5 354 386 378 353
259 3 2 5 5 353 378 377 352
260 3 2 5 5 380 381 335 334
261 3 2 5 5 382 383 360 361
262 3 2 5 5 382 341 342 392
263 3 2 5 5 380 348 349 393
264 3 2 5 5 349 350 372 393
265 3 2 5 5 342 343 370 392
266 3 2 5 5 360 383 385 359
267 3 2 5 5 335 381 384 336
268 3 2 5 5 346 390 376 345
269 3 2 5 5 375 387 340 339
270 3 2 5 5 379 357 358 395
271 3 2 5 5 374 338 337 394
272 3 2 5 5 386 355 356 391
273 3 2 5 5 379 389 332 391
274 3 2 5 5 387 390 346 347
275 3 2 5 5 374 375 339 338
282 3 2 5 5 374 388 330 375
285 3 2 5 5 356 357 379 391
286 3 2 5 5 383 382 392 333
287 3 2 5 5 381 380 393 331
290 3 2 5 5 378 386 391 332
291 3 2 5 5 390 387 375 330
297 3 2 5 5 405 406 404 407
240 2 2 5 5 372 373 410 
241 2 2 5 5 370 371 414 
244 2 2 5 5 388 409 408 
245 2 2 5 5 408 330 388 
246 2 2 5 5 389 413 412 
247 2 2 5 5 412 332 389 
276 3 2 5 5 332 411 377 378
277 3 2 5 5 372 410 331 393
278 3 2 5 5 370 414 333 392
279 3 2 5 5 331 409 384 381
280 3 2 5 5 333 413 385 383
281 3 2 5 5 330 415 376 390
283 3 2 5 5 415 414 371 376
284 3 2 5 5 411 410 373 377
288 3 2 5 5 413 389 395 385
289 3 2 5 5 409 388 394 384
292 3 2 5 5 330 408 406 415
293 3 2 5 5 405 413 333 414
294 3 2 5 5 415 406 405 414
295 3 2 5 5 404 409 331 410
296 3 2 5 5 406 408 409 404
298 3 2 5 5 412 413 405 407
299 3 2 5 5 404 410 411 407
300 3 2 5 5 332 412 407 411
303 2 2 6 6 465 475 415 
304 2 2 6 6 466 468 465 
305 3 2 6 6 419 453 458 420
306 3 2 6 6 437 469 436 411
307 3 2 6 6 462 456 433 434
308 3 2 6 6 456 455 432 433
309 3 2 6 6 422 467 423 408
310 3 2 6 6 418 452 453 419
311 3 2 6 6 430 461 416 409
312 3 2 6 6 460 454 426 425
313 3 2 6 6 440 457 464 439
314 3 2 6 6 429 468 443 410
315 3 2 6 6 436 469 463 435
316 3 2 6 6 459 467 422 421
317 3 2 6 6 435 463 462 434
318 3 2 6 6 458 459 421 420
319 3 2 6 6 465 468 429 428
320 3 2 6 6 443 468 466 442
321 3 2 6 6 469 437 438 471
322 3 2 6 6 467 470 424 423
323 3 2 6 6 461 430 431 473
324 3 2 6 6 417 416 461 472
325 3 2 6 6 438 439 464 471
326 3 2 6 6 424 470 460 425
327 3 2 6 6 431 432 455 473
328 3 2 6 6 452 418 417 472
335 3 2 6 6 465 428 427 475
336 3 2 6 6 457 440 441 474
337 3 2 6 6 427 426 454 475
338 3 2 6 6 441 442 466 474
343 3 2 6 6 466 465 415 474
344 3 2 6 6 463 469 471 414
345 3 2 6 6 470 467 459 412
346 3 2 6 6 472 461 473 413
356 3 2 6 6 486 487 484 485
301 2 2 6 6 489 453 452 
302 2 2 6 6 456 462 491 
329 3 2 6 6 414 491 462 463
330 3 2 6 6 458 488 412 459
331 3 2 6 6 464 492 414 471
332 3 2 6 6 455 490 413 473
333 3 2 6 6 412 495 460 470
334 3 2 6 6 413 489 452 472
339 3 2 6 6 456 491 490 455
340 3 2 6 6 495 494 454 460
341 3 2 6 6 453 489 488 458
342 3 2 6 6 457 493 492 464
347 3 2 6 6 474 415 493 457
348 3 2 6 6 494 415 475 454
349 3 2 6 6 412 488 487 495
350 3 2 6 6 413 490 484 489
351 3 2 6 6 415 494 486 493
352 3 2 6 6 488 489 484 487
353 3 2 6 6 486 494 495 487
354 3 2 6 6 492 493 486 485
355 3 2 6 6 484 490 491 485
357 3 2 6 6 414 492 485 491
358 2 2 7 7 535 536 494 
359 2 2 7 7 545 549 544 
360 2 2 7 7 537 557 551 
361 2 2 7 7 541 556 552 
366 3 2 7 7 510 532 496 489
367 3 2 7 7 543 539 506 505
368 3 2 7 7 509 549 523 490
369 3 2 7 7 499 498 538 556
370 3 2 7 7 520 521 546 557
371 3 2 7 7 502 548 503 488
372 3 2 7 7 517 547 516 491
373 3 2 7 7 523 549 545 522
374 3 2 7 7 544 549 509 508
375 3 2 7 7 532 533 497 496
376 3 2 7 7 522 545 546 521
377 3 2 7 7 540 534 511 512
378 3 2 7 7 511 534 532 510
379 3 2 7 7 497 533 538 498
380 3 2 7 7 504 554 543 505
381 3 2 7 7 542 548 502 501
382 3 2 7 7 537 519 520 557
383 3 2 7 7 541 500 499 556
384 3 2 7 7 537 551 494 553
385 3 2 7 7 516 547 536 515
386 3 2 7 7 548 554 504 503
387 3 2 7 7 547 517 518 553
388 3 2 7 7 541 542 501 500
393 3 2 7 7 541 552 492 542
394 3 2 7 7 544 508 507 555
395 3 2 7 7 507 506 539 555
396 3 2 7 7 518 519 537 553
398 3 2 7 7 544 555 495 545
399 3 2 7 7 515 536 535 514
400 3 2 7 7 513 514 535 550
402 3 2 7 7 513 550 540 512
404 3 2 7 7 533 532 534 493
407 3 2 7 7 554 548 542 492
408 3 2 7 7 536 547 553 494
415 3 2 7 7 567 569 566 568
362 2 2 7 7 551 575 574 
363 2 2 7 7 574 494 551 
364 2 2 7 7 570 492 552 
365 2 2 7 7 552 571 570 
389 3 2 7 7 495 575 546 545
390 3 2 7 7 493 571 538 533
391 3 2 7 7 492 577 543 554
392 3 2 7 7 540 572 493 534
397 3 2 7 7 577 576 539 543
401 3 2 7 7 494 573 550 535
403 3 2 7 7 572 540 550 573
405 3 2 7 7 571 552 556 538
406 3 2 7 7 575 551 557 546
409 3 2 7 7 576 495 555 539
410 3 2 7 7 492 570 569 577
411 3 2 7 7 567 575 495 576
412 3 2 7 7 577 569 567 576
413 3 2 7 7 493 572 566 571
414 3 2 7 7 569 570 571 566
416 3 2 7 7 574 575 567 568
417 3 2 7 7 566 572 573 568
418 3 2 7 7 494 574 568 573
419 2 2 8 8 620 621 576 
421 2 2 8 8 622 639 634 
422 2 2 8 8 614 638 632 
427 3 2 8 8 592 617 578 571
428 3 2 8 8 591 630 605 572
429 3 2 8 8 581 580 625 638
430 3 2 8 8 602 603 628 639
431 3 2 8 8 584 629 585 570
432 3 2 8 8 599 631 598 573
433 3 2 8 8 605 630 624 604
434 3 2 8 8 623 630 591 590
435 3 2 8 8 626 623 590 589
436 3 2 8 8 604 624 628 603
437 3 2 8 8 617 618 579 578
438 3 2 8 8 627 619 593 594
439 3 2 8 8 593 619 617 592
440 3 2 8 8 579 618 625 580
441 3 2 8 8 615 629 584 583
442 3 2 8 8 622 601 602 639
443 3 2 8 8 614 582 581 638
444 3 2 8 8 622 634 576 637
445 3 2 8 8 598 631 621 597
446 3 2 8 8 631 599 600 637
447 3 2 8 8 614 615 583 582
452 3 2 8 8 614 632 574 615
453 3 2 8 8 600 601 622 637
454 3 2 8 8 629 636 586 585
455 3 2 8 8 588 587 616 635
456 3 2 8 8 597 621 620 596
457 3 2 8 8 595 596 620 633
458 3 2 8 8 574 635 616 636
460 3 2 8 8 595 633 627 594
461 3 2 8 8 588 635 626 589
464 3 2 8 8 586 636 616 587
465 3 2 8 8 624 630 623 577
466 3 2 8 8 618 617 619 575
469 3 2 8 8 621 631 637 576
470 3 2 8 8 636 629 615 574
476 3 2 8 8 651 648 649 650
420 2 2 8 8 659 635 574 
423 2 2 8 8 632 653 652 
424 2 2 8 8 652 574 632 
425 2 2 8 8 634 657 656 
426 2 2 8 8 656 576 634 
448 3 2 8 8 626 658 577 623
449 3 2 8 8 577 657 628 624
450 3 2 8 8 575 653 625 618
451 3 2 8 8 627 654 575 619
459 3 2 8 8 576 655 633 620
462 3 2 8 8 654 627 633 655
463 3 2 8 8 658 626 635 659
467 3 2 8 8 653 632 638 625
468 3 2 8 8 657 634 639 628
471 3 2 8 8 574 652 648 659
472 3 2 8 8 575 654 649 653
473 3 2 8 8 577 658 651 657
474 3 2 8 8 648 652 653 649
475 3 2 8 8 658 659 648 651
477 3 2 8 8 656 657 651 650
478 3 2 8 8 649 654 655 650
479 3 2 8 8 576 656 650 655
$EndElements
