$MeshFormat
2.2 0 8
$EndMeshFormat
$Nodes
1681
1 60 60 0
2 70 60 0
3 80 60 0
4 80 70 0
5 80 80 0
6 70 80 0
7 60 80 0
8 60 70 0
9 20 60 0
10 40 60 0
11 40 70 0
12 40 80 0
13 20 80 0
14 20 70 0
15 60 20 0
16 70 20 0
17 80 20 0
18 80 25 0
19 80 35 0
20 80 40 0
21 70 40 0
22 60 40 0
23 60 35 0
24 60 25 0
25 20 20 0
26 40 20 0
27 40 25 0
28 40 35 0
29 40 40 0
30 20 40 0
31 20 35 0
32 20 25 0
33 0 0 0
34 50 0 0
35 0 25 0
36 70 0 0
37 0 35 0
38 100 0 0
39 0 50 0
40 100 25 0
41 0 70 0
42 100 35 0
43 0 100 0
44 100 50 0
45 50 100 0
46 100 70 0
47 70 100 0
48 100 100 0
49 50 70 0
50 50 50 0
51 70 50 0
52 50 25 0
53 50 35 0
150 2.5 0 0
151 5 0 0
152 7.5 0 0
153 10 0 0
154 12.5 0 0
155 15 0 0
156 17.5 0 0
157 20 0 0
158 22.5 0 0
159 25 0 0
160 27.5 0 0
161 30 0 0
162 32.5 0 0
163 35 0 0
164 37.5 0 0
165 40 0 0
166 42.5 0 0
167 45 0 0
168 47.5 0 0
169 0 22.5 0
170 0 20 0
171 0 17.5 0
172 0 15 0
173 0 12.5 0
174 0 10 0
175 0 7.5 0
176 0 5 0
177 0 2.5 0
178 52.5 0 0
179 55 0 0
180 57.5 0 0
181 60 0 0
182 62.5 0 0
183 65 0 0
184 67.5 0 0
185 0 32.5 0
186 0 30 0
187 0 27.5 0
188 72.5 0 0
189 75 0 0
190 77.5 0 0
191 80 0 0
192 82.5 0 0
193 85 0 0
194 87.5 0 0
195 90 0 0
196 92.5 0 0
197 95 0 0
198 97.5 0 0
199 0 47.5 0
200 0 45 0
201 0 42.5 0
202 0 40 0
203 0 37.5 0
204 100 2.5 0
205 100 5 0
206 100 7.5 0
207 100 10 0
208 100 12.5 0
209 100 15 0
210 100 17.5 0
211 100 20 0
212 100 22.5 0
213 0 67.5 0
214 0 65 0
215 0 62.5 0
216 0 60 0
217 0 57.5 0
218 0 55 0
219 0 52.5 0
220 100 27.5 0
221 100 30 0
222 100 32.5 0
223 0 97.5 0
224 0 95 0
225 0 92.5 0
226 0 90 0
227 0 87.5 0
228 0 85 0
229 0 82.5 0
230 0 80 0
231 0 77.5 0
232 0 75 0
233 0 72.5 0
234 100 37.5 0
235 100 40 0
236 100 42.5 0
237 100 45 0
238 100 47.5 0
239 47.5 100 0
240 45 100 0
241 42.5 100 0
242 40 100 0
243 37.5 100 0
244 35 100 0
245 32.5 100 0
246 30 100 0
247 27.5 100 0
248 25 100 0
249 22.5 100 0
250 20 100 0
251 17.5 100 0
252 15 100 0
253 12.5 100 0
254 10 100 0
255 7.49999999999999 100 0
256 5 100 0
257 2.5 100 0
258 100 52.5 0
259 100 55 0
260 100 57.5 0
261 100 60 0
262 100 62.5 0
263 100 65 0
264 100 67.5 0
265 67.5 100 0
266 65 100 0
267 62.5 100 0
268 60 100 0
269 57.5 100 0
270 55 100 0
271 52.5 100 0
272 100 72.5 0
273 100 75 0
274 100 77.5 0
275 100 80 0
276 100 82.5 0
277 100 85 0
278 100 87.5 0
279 100 90 0
280 100 92.5 0
281 100 95 0
282 100 97.5 0
283 97.5 100 0
284 95 100 0
285 92.5 100 0
286 90 100 0
287 87.5 100 0
288 85 100 0
289 82.5 100 0
290 80 100 0
291 77.5 100 0
292 75 100 0
293 72.5 100 0
294 2.5 70 0
295 5 70 0
296 7.5 70 0
297 10 70 0
298 12.5 70 0
299 15 70 0
300 17.5 70 0
301 42.5 70 0
302 45 70 0
303 47.5 70 0
304 52.5 70 0
305 55 70 0
306 57.5 70 0
307 82.5 70 0
308 85 70 0
309 87.5 70 0
310 90 70 0
311 92.5 70 0
312 95 70 0
313 97.5 70 0
314 2.5 50 0
315 5 50 0
316 7.5 50 0
317 10 50 0
318 12.5 50 0
319 15 50 0
320 17.5 50 0
321 20 50 0
322 22.5 50 0
323 25 50 0
324 27.5 50 0
325 30 50 0
326 32.5 50 0
327 35 50 0
328 37.5 50 0
329 40 50 0
330 42.5 50 0
331 45 50 0
332 47.5 50 0
333 52.5 50 0
334 55 50 0
335 57.5 50 0
336 60 50 0
337 62.5 50 0
338 65 50 0
339 67.5 50 0
340 72.5 50 0
341 75 50 0
342 77.5 50 0
343 80 50 0
344 82.5 50 0
345 85 50 0
346 87.5 50 0
347 90 50 0
348 92.5 50 0
349 95 50 0
350 97.5 50 0
351 70 2.5 0
352 70 5 0
353 70 7.5 0
354 70 10 0
355 70 12.5 0
356 70 15 0
357 70 17.5 0
358 70 42.5 0
359 70 45 0
360 70 47.5 0
361 70 52.5 0
362 70 55 0
363 70 57.5 0
364 70 82.5 0
365 70 85 0
366 70 87.5 0
367 70 90 0
368 70 92.5 0
369 70 95 0
370 70 97.5 0
371 50 2.5 0
372 50 5 0
373 50 7.5 0
374 50 10 0
375 50 12.5 0
376 50 15 0
377 50 17.5 0
378 50 20 0
379 50 22.5 0
380 50 27.5 0
381 50 30 0
382 50 32.5 0
383 50 37.5 0
384 50 40 0
385 50 42.5 0
386 50 45 0
387 50 47.5 0
388 50 52.5 0
389 50 55 0
390 50 57.5 0
391 50 60 0
392 50 62.5 0
393 50 65 0
394 50 67.5 0
395 50 72.5 0
396 50 75 0
397 50 77.5 0
398 50 80 0
399 50 82.5 0
400 50 85 0
401 50 87.5 0
402 50 90 0
403 50 92.5 0
404 50 95 0
405 50 97.5 0
406 2.5 35 0
407 5 35 0
408 7.5 35 0
409 10 35 0
410 12.5 35 0
411 15 35 0
412 17.5 35 0
413 42.5 35 0
414 45 35 0
415 47.5 35 0
416 52.5 35 0
417 55 35 0
418 57.5 35 0
419 82.5 35 0
420 85 35 0
421 87.5 35 0
422 90 35 0
423 92.5 35 0
424 95 35 0
425 97.5 35 0
426 2.5 25 0
427 5 25 0
428 7.5 25 0
429 10 25 0
430 12.5 25 0
431 15 25 0
432 17.5 25 0
433 42.5 25 0
434 45 25 0
435 47.5 25 0
436 52.5 25 0
437 55 25 0
438 57.5 25 0
439 82.5 25 0
440 85 25 0
441 87.5 25 0
442 90 25 0
443 92.5 25 0
444 95 25 0
445 97.5 25 0
446 17.5 97.5 0
447 32.5 2.5 0
448 97.5 12.5 0
449 15 2.5 0
450 97.5 80 0
451 85 97.5 0
452 40 82.5 0
453 2.5 87.5 0
454 82.5 2.5 0
455 2.5 15 0
456 32.5 82.5 0
457 22.5 17.5 0
458 37.5 17.5 0
459 30 17.5 0
460 22.5 82.5 0
461 25 2.5 0
462 37.5 97.5 0
463 30 97.5 0
464 97.5 87.5 0
465 7.5 97.5 0
466 92.5 2.5 0
467 90 97.5 0
468 42.5 2.5 0
469 2.5 10 0
470 30 57.5 0
471 35 42.5 0
472 60 2.5 0
473 2.5 60 0
474 60.0025691003741 57.5511152012551 0
475 57.5377590100707 59.9170831081597 0
476 77.5 57.5 0
477 82.5 62.5 0
478 82.5 80 0
479 80 82.5 0
480 62.5 82.5 0
481 57.5 77.5 0
482 20 57.5 0
483 17.5 60 0
484 37.5 57.5 0
485 42.5 62.5 0
486 42.5 80 0
487 17.5 77.5 0
488 60 17.5 0
489 77.5 17.5 0
490 80 42.5 0
491 62.5 42.5 0
492 22.5 42.5 0
493 30 42.5 0
494 2.5 80 0
495 97.5 57.5 0
496 60 97.5 0
497 77.5 97.5 0
498 7.5 2.5 0
499 97.5 92.5 0
500 97.5 17.5 0
501 2.5 45 0
502 42.5 97.5 0
503 77.5 2.5 0
504 97.5 40 0
505 97.5 62.5 0
506 2.5 95 0
507 22.5 97.5 0
508 97.5 5 0
509 47.5 2.5 0
510 47.5 47.5 0
511 2.5 75 0
512 57.5 20 0
513 82.5 22.5 0
514 82.5 40 0
515 57.5 37.5 0
516 17.5 20 0
517 42.5 22.5 0
518 42.5 40 0
519 17.5 37.5 0
520 64.9886312424146 57.5026812478546 0
521 72.5 57.5 0
522 82.5 67.5 0
523 82.5 75 0
524 75 82.5 0
525 67.5 82.5 0
526 57.5 72.5 0
527 57.4992471653499 64.9817382718056 0
528 42.5 67.5 0
529 42.5 75 0
530 17.5 72.5 0
531 17.5 65 0
532 67.5 17.5 0
533 72.5 17.5 0
534 82.5 30 0
535 72.5 42.5 0
536 67.5 42.5 0
537 57.5 30 0
538 42.5 30 0
539 17.5 30 0
540 5 2.5 0
541 2.5 22.5 0
542 55 2.5 0
543 67.5 2.5 0
544 2.5 32.5 0
545 2.5 30 0
546 75 2.5 0
547 2.5 40 0
548 97.5 20 0
549 2.5 67.5 0
550 2.5 55 0
551 97.5 27.5 0
552 97.5 30 0
553 97.5 45 0
554 47.5 97.5 0
555 97.5 52.5 0
556 97.5 65 0
557 67.5 97.5 0
558 52.5 97.5 0
559 97.5 72.5 0
560 97.5 97.5 0
561 72.5 97.5 0
562 47.5 67.5 0
563 47.5 72.5 0
564 52.4997802872051 67.4908710832829 0
565 52.5 72.5 0
566 47.5 52.5 0
567 52.5 47.5 0
568 52.2810372145611 52.2696923307598 0
569 67.5 47.5 0
570 67.4959178029636 52.5002930864284 0
571 72.5 47.5 0
572 72.5 52.5 0
573 52.5 22.5 0
574 47.5 22.5 0
575 52.5 27.5 0
576 52.5 32.5 0
577 47.5 27.5 0
578 47.5 32.5 0
579 52.5 37.5 0
580 47.5 37.5 0
581 2.5 97.5 0
582 12.5 2.5 0
583 20 2.5 0
584 30 2.5 0
585 37.5 2.5 0
586 2.5 7.5 0
587 2.5 37.5 0
588 97.5 7.5 0
589 97.5 47.5 0
590 12.5 97.5 0
591 25 57.5 0
592 32.5 57.5 0
593 32.5 17.5 0
594 40 42.5 0
595 67.4963871974633 57.5005991874652 0
596 82.5 72.5 0
597 72.5 82.5 0
598 57.4997680791935 67.4939727595624 0
599 42.5 72.5 0
600 37.5 82.5 0
601 30 82.5 0
602 27.5 82.5 0
603 17.5 67.5 0
604 62.5 17.5 0
605 82.5 27.5 0
606 82.5 32.5 0
607 82.5 37.5 0
608 77.5 42.5 0
609 57.5 32.5 0
610 57.5 27.5 0
611 57.5 22.5 0
612 25 17.5 0
613 42.5 27.5 0
614 42.5 32.5 0
615 42.5 37.5 0
616 27.5 42.5 0
617 17.5 32.5 0
618 17.5 27.5 0
619 17.5 22.5 0
620 2.5 2.5 0
621 2.5 20 0
622 52.5 2.5 0
623 65 2.5 0
624 2.5 27.5 0
625 72.5 2.5 0
626 87.5 2.5 0
627 97.5 2.5 0
628 2.5 47.5 0
629 97.5 22.5 0
630 2.5 65 0
631 2.5 52.5 0
632 97.5 32.5 0
633 2.5 92.5 0
634 2.5 85 0
635 2.5 72.5 0
636 97.5 37.5 0
637 32.5 97.5 0
638 25 97.5 0
639 97.5 67.5 0
640 62.5 97.5 0
641 55 97.5 0
642 97.5 75 0
643 97.5 82.5 0
644 92.5 97.5 0
645 80 97.5 0
646 20 82.5 0
647 15 5 0
648 82.5 20 0
649 5 87.5 0
650 82.5 82.5 0
651 32.5 5 0
652 22.5 95 0
653 95 80 0
654 40 85 0
655 32.5 85 0
656 22.5 15 0
657 60 15 0
658 77.5 95 0
659 60 95 0
660 30 15 0
661 40 17.5 0
662 17.5 40 0
663 82.5 60 0
664 60 82.5 0
665 30 95 0
666 40 57.5 0
667 17.5 57.5 0
668 60 42.5 0
669 82.5 42.5 0
670 54.4447684891502 52.0806210098424 0
671 57.7408606592679 57.6315246157071 0
672 30 55 0
673 42.5 42.5 0
674 30 45 0
675 95 17.5 0
676 5 10 0
677 95 62.5 0
678 80 45 0
679 77.5 5 0
680 52.5 20 0
681 90 95 0
682 5 97.5 0
683 5 95 0
684 45 2.5 0
685 27.5 2.5 0
686 20 97.5 0
687 45 47.5 0
688 45 52.5 0
689 35 2.5 0
690 15 97.5 0
691 47.5 5 0
692 42.5 60 0
693 35 17.5 0
694 10 2.5 0
695 17.5 2.5 0
696 2.5 12.5 0
697 97.5 15 0
698 95 45 0
699 47.5 20 0
700 42.5 20 0
701 47.5 45 0
702 47.5 55 0
703 5 40 0
704 7.5 5 0
705 5 5 0
706 27.5 57.5 0
707 32.5 42.5 0
708 22.5 2.5 0
709 2.5 5 0
710 97.5 10 0
711 5 47.5 0
712 5 52.5 0
713 52.5 5 0
714 80 57.5 0
715 57.5 80 0
716 17.5 80 0
717 80 17.5 0
718 57.5 40 0
719 17.5 17.5 0
720 20 17.5 0
721 20 42.5 0
722 62.4767739682529 57.5165892114539 0
723 75 57.5 0
724 82.5 65 0
725 82.5 77.5 0
726 77.5 82.5 0
727 65 82.5 0
728 57.5 75 0
729 57.5037475075141 62.449377955747 0
730 22.5 57.5 0
731 35 57.5 0
732 42.5 65 0
733 42.5 77.5 0
734 35 82.5 0
735 25 82.5 0
736 17.5 75 0
737 17.5 62.5 0
738 65 17.5 0
739 75 17.5 0
740 75 42.5 0
741 65 42.5 0
742 27.5 17.5 0
743 37.5 42.5 0
744 25 42.5 0
745 2.5 17.5 0
746 57.5 2.5 0
747 62.5 2.5 0
748 80 2.5 0
749 85 2.5 0
750 90 2.5 0
751 95 2.5 0
752 2.5 62.5 0
753 2.5 57.5 0
754 2.5 90 0
755 2.5 82.5 0
756 2.5 77.5 0
757 45 97.5 0
758 40 97.5 0
759 35 97.5 0
760 27.5 97.5 0
761 97.5 55 0
762 97.5 60 0
763 65 97.5 0
764 57.5 97.5 0
765 97.5 77.5 0
766 97.5 85 0
767 97.5 90 0
768 97.5 95 0
769 95 97.5 0
770 87.5 97.5 0
771 82.5 97.5 0
772 75 97.5 0
773 5 67.5 0
774 5 75 0
775 5 72.5 0
776 15 72.5 0
777 15 65 0
778 15 67.5 0
779 45 67.5 0
780 45 72.5 0
781 55 72.5 0
782 54.9996406258392 67.4884918192671 0
783 85 67.5 0
784 85 75 0
785 85 72.5 0
786 95 72.5 0
787 95 65 0
788 95 67.5 0
789 55 47.5 0
790 65 47.5 0
791 64.9782220586582 52.5027627126918 0
792 75 47.5 0
793 75 52.5 0
794 95 52.5 0
795 95 47.5 0
796 67.5 5 0
797 72.5 5 0
798 67.5 15 0
799 72.5 15 0
800 72.5 45 0
801 67.5 45 0
802 72.5 55 0
803 67.4933989981589 55.0009349941594 0
804 67.5 85 0
805 72.5 85 0
806 67.5 95 0
807 72.5 95 0
808 52.5 30 0
809 47.5 30 0
810 52.5 40 0
811 47.5 40 0
812 52.5 45 0
813 47.5 65 0
814 52.498775749161 64.9637262343116 0
815 47.5 75 0
816 52.5 75 0
817 47.5 95 0
818 52.5 95 0
819 5 32.5 0
820 5 37.5 0
821 15 37.5 0
822 15 30 0
823 15 32.5 0
824 45 32.5 0
825 45 37.5 0
826 55 37.5 0
827 55 32.5 0
828 85 40 0
829 85 32.5 0
830 85 37.5 0
831 95 37.5 0
832 95 30 0
833 95 32.5 0
834 5 22.5 0
835 5 30 0
836 5 27.5 0
837 15 20 0
838 15 27.5 0
839 15 22.5 0
840 45 22.5 0
841 45 27.5 0
842 55 22.5 0
843 55 27.5 0
844 85 22.5 0
845 85 30 0
846 85 27.5 0
847 95 20 0
848 95 27.5 0
849 95 22.5 0
850 42.5 82.5 0
851 95 5 0
852 57.5 17.5 0
853 30 85 0
854 40 2.5 0
855 2.5 42.5 0
856 97.5 42.5 0
857 10 97.5 0
858 52.2864506455201 54.6478416730692 0
859 15 95 0
860 40 5 0
861 17.5 82.5 0
862 82.5 17.5 0
863 82.5 95 0
864 85 5 0
865 95 85 0
866 15 57.5 0
867 5 82.5 0
868 27.5 5 0
869 37.5 15 0
870 22.5 85 0
871 22.5 5 0
872 15 17.5 0
873 5 17.5 0
874 80 85 0
875 15 40 0
876 95 10 0
877 37.5 95 0
878 60 5 0
879 5 62.5 0
880 85 62.5 0
881 85 82.5 0
882 62.5 85 0
883 15 77.5 0
884 77.5 15 0
885 42.5 17.5 0
886 92.5 17.5 0
887 82.5 57.5 0
888 85 42.5 0
889 57.5 15 0
890 57.5 82.5 0
891 42.5 85 0
892 32.5 87.5 0
893 92.5 62.5 0
894 42.5 52.5 0
895 42.5 47.5 0
896 45 5 0
897 42.5 57.5 0
898 47.5 57.5 0
899 32.5 45 0
900 35 5 0
901 27.5 45 0
902 27.5 55 0
903 32.5 55 0
904 37.5 55 0
905 5 92.5 0
906 25 95 0
907 10 5 0
908 45 62.5 0
909 25 15 0
910 17.5 55 0
911 22.5 45 0
912 22.5 55 0
913 37.5 45 0
914 56.9226663775055 52.8546560794442 0
915 77.5 55 0
916 82.5 45 0
917 52.4231703137122 57.1779407152777 0
918 55.0342615246189 59.7804881818545 0
919 55 77.5 0
920 45 80 0
921 92.5 95 0
922 37.5 85 0
923 95 75 0
924 65 15 0
925 65 95 0
926 57.5 95 0
927 57.5 42.5 0
928 95 42.5 0
929 5 42.5 0
930 54.4980758142681 54.2967447327826 0
931 57.5876238111466 55.3613058885837 0
932 45 55 0
933 45 45 0
934 42.5 45 0
935 30 5 0
936 10 95 0
937 47.5 17.5 0
938 47.5 42.5 0
939 20 95 0
940 7.5 95 0
941 7.5 47.5 0
942 7.5 52.5 0
943 47.5 7.5 0
944 52.5 7.5 0
945 52.5 17.5 0
946 95 12.5 0
947 5 15 0
948 12.5 5 0
949 17.5 5 0
950 5 7.5 0
951 32.5 15 0
952 32.5 95 0
953 27.5 15 0
954 95 15 0
955 5 12.5 0
956 45 20 0
957 45 42.5 0
958 5 90 0
959 7.5 67.5 0
960 7.5 75 0
961 7.5 72.5 0
962 12.5 72.5 0
963 12.5 65 0
964 12.5 67.5 0
965 87.5 67.5 0
966 87.5 75 0
967 87.5 72.5 0
968 92.5 72.5 0
969 92.5 65 0
970 92.5 67.5 0
971 57.5 47.5 0
972 62.5 47.5 0
973 62.4365902973148 52.5201526253468 0
974 77.5 47.5 0
975 77.5 52.5 0
976 92.5 52.5 0
977 92.5 47.5 0
978 67.5 7.5 0
979 72.5 7.5 0
980 67.5 12.5 0
981 72.5 12.5 0
982 67.5 87.5 0
983 72.5 87.5 0
984 67.5 92.5 0
985 72.5 92.5 0
986 52.5 42.5 0
987 47.5 62.5 0
988 52.4986517417105 62.4101207217352 0
989 47.5 77.5 0
990 52.5 77.5 0
991 47.5 92.5 0
992 52.5 92.5 0
993 7.5 32.5 0
994 7.5 40 0
995 7.5 37.5 0
996 12.5 37.5 0
997 12.5 30 0
998 12.5 32.5 0
999 87.5 32.5 0
1000 87.5 40 0
1001 87.5 37.5 0
1002 92.5 37.5 0
1003 92.5 30 0
1004 92.5 32.5 0
1005 7.5 22.5 0
1006 7.5 30 0
1007 7.5 27.5 0
1008 12.5 20 0
1009 12.5 27.5 0
1010 12.5 22.5 0
1011 87.5 22.5 0
1012 87.5 30 0
1013 87.5 27.5 0
1014 92.5 20 0
1015 92.5 27.5 0
1016 92.5 22.5 0
1017 87.5 95 0
1018 80 5 0
1019 95 87.5 0
1020 92.5 5 0
1021 5 60 0
1022 59.9234608277756 55.1180295585504 0
1023 85 77.5 0
1024 15 62.5 0
1025 62.5 45 0
1026 5 77.5 0
1027 95 57.5 0
1028 95 90 0
1029 95 92.5 0
1030 5 45 0
1031 42.5 95 0
1032 95 40 0
1033 55 20 0
1034 45 40 0
1035 62.446306191821 55.0328825110996 0
1036 64.9770265974888 55.0081562493708 0
1037 77.5 85 0
1038 75 85 0
1039 55.0050255686217 62.4025617926984 0
1040 55.0001408684698 64.9609544409955 0
1041 45 77.5 0
1042 45 75 0
1043 55 30 0
1044 45 30 0
1045 57.5 5 0
1046 55 5 0
1047 75 5 0
1048 5 55 0
1049 95 7.5 0
1050 27.5 85 0
1051 62.5 15 0
1052 77.5 45 0
1053 5 20 0
1054 65 5 0
1055 90 5 0
1056 5 65 0
1057 5 85 0
1058 62.5 95 0
1059 55 95 0
1060 95 82.5 0
1061 80 95 0
1062 85 20 0
1063 95 77.5 0
1064 35 85 0
1065 20 15 0
1066 75 95 0
1067 17.5 42.5 0
1068 27.5 95 0
1069 95 60 0
1070 55 40 0
1071 75 55 0
1072 85 65 0
1073 65 85 0
1074 55 75 0
1075 45 65 0
1076 15 75 0
1077 75 15 0
1078 75 45 0
1079 65 45 0
1080 45 95 0
1081 95 55 0
1082 95 95 0
1083 55 45 0
1084 15 7.5 0
1085 7.5 87.5 0
1086 35 7.5 0
1087 22.5 92.5 0
1088 22.5 12.5 0
1089 27.5 12.5 0
1090 7.5 12.5 0
1091 85 17.5 0
1092 80 87.5 0
1093 15 42.5 0
1094 92.5 80 0
1095 40 87.5 0
1096 57.5 12.5 0
1097 57.5 92.5 0
1098 80 7.5 0
1099 92.5 85 0
1100 87.5 92.5 0
1101 7.5 55 0
1102 12.5 62.5 0
1103 65 7.5 0
1104 45 7.5 0
1105 30 7.5 0
1106 52.5 15 0
1107 12.5 17.5 0
1108 87.5 20 0
1109 7.5 45 0
1110 15 55 0
1111 80 55 0
1112 85 45 0
1113 55 80 0
1114 77.5 92.5 0
1115 30 92.5 0
1116 80 92.5 0
1117 7.5 77.5 0
1118 12.5 40 0
1119 92.5 10 0
1120 60 7.5 0
1121 60 12.5 0
1122 7.5 62.5 0
1123 92.5 75 0
1124 55 7.5 0
1125 87.5 77.5 0
1126 55.2451184896763 56.8227429131864 0
1127 40 55 0
1128 40 47.5 0
1129 42.5 55 0
1130 42.5 5 0
1131 30 47.5 0
1132 30 52.5 0
1133 40 52.5 0
1134 17.5 95 0
1135 12.5 95 0
1136 45 60 0
1137 45 57.5 0
1138 37.5 5 0
1139 45 17.5 0
1140 7.5 92.5 0
1141 47.5 10 0
1142 35 45 0
1143 20 5 0
1144 20 85 0
1145 30 12.5 0
1146 10 7.5 0
1147 7.5 10 0
1148 35 15 0
1149 7.5 7.5 0
1150 15 15 0
1151 55 15 0
1152 55 17.5 0
1153 7.5 17.5 0
1154 92.5 12.5 0
1155 92.5 15 0
1156 90 17.5 0
1157 90 20 0
1158 10 47.5 0
1159 10 52.5 0
1160 47.5 15 0
1161 90 22.5 0
1162 40 15 0
1163 15 80 0
1164 17.5 15 0
1165 35 55 0
1166 25 45 0
1167 25 92.5 0
1168 7.5 42.5 0
1169 10 67.5 0
1170 10 72.5 0
1171 90 67.5 0
1172 90 72.5 0
1173 59.865194448085 52.6058295967414 0
1174 60 47.5 0
1175 80 47.5 0
1176 80 52.5 0
1177 90 52.5 0
1178 90 47.5 0
1179 87.5 42.5 0
1180 67.5 10 0
1181 72.5 10 0
1182 67.5 90 0
1183 72.5 90 0
1184 47.5 60 0
1185 52.5068809897375 59.8160215037629 0
1186 47.5 80 0
1187 52.5 80 0
1188 47.5 90 0
1189 52.5 90 0
1190 10 32.5 0
1191 10 37.5 0
1192 90 32.5 0
1193 90 37.5 0
1194 10 22.5 0
1195 10 27.5 0
1196 90 27.5 0
1197 85 95 0
1198 82.5 5 0
1199 85 80 0
1200 20 55 0
1201 15 60 0
1202 5 80 0
1203 25 55 0
1204 87.5 5 0
1205 85 85 0
1206 82.5 85 0
1207 60 92.5 0
1208 85 60 0
1209 60 85 0
1210 60 45 0
1211 75 7.5 0
1212 90 92.5 0
1213 92.5 42.5 0
1214 92.5 45 0
1215 80 15 0
1216 20 45 0
1217 25 85 0
1218 62.5 5 0
1219 40 95 0
1220 35 95 0
1221 45 82.5 0
1222 30 87.5 0
1223 7.5 85 0
1224 87.5 65 0
1225 65 87.5 0
1226 12.5 75 0
1227 75 12.5 0
1228 35 87.5 0
1229 90 62.5 0
1230 92.5 57.5 0
1231 92.5 60 0
1232 92.5 92.5 0
1233 62.5 12.5 0
1234 65 12.5 0
1235 62.5 92.5 0
1236 65 92.5 0
1237 55 42.5 0
1238 7.5 65 0
1239 92.5 55 0
1240 75 87.5 0
1241 75 92.5 0
1242 45 92.5 0
1243 55 92.5 0
1244 92.5 40 0
1245 7.5 20 0
1246 92.5 87.5 0
1247 92.5 7.5 0
1248 52.5 10 0
1249 40 45 0
1250 5 57.5 0
1251 57.5 45 0
1252 25 5 0
1253 17.5 85 0
1254 15 92.5 0
1255 10 87.5 0
1256 45 10 0
1257 35 12.5 0
1258 27.5 7.5 0
1259 42.5 15 0
1260 22.5 87.5 0
1261 22.5 7.5 0
1262 15 12.5 0
1263 12.5 15 0
1264 10 55 0
1265 12.5 47.5 0
1266 82.5 92.5 0
1267 87.5 7.5 0
1268 7.5 82.5 0
1269 37.5 92.5 0
1270 87.5 85 0
1271 62.5 87.5 0
1272 12.5 77.5 0
1273 77.5 12.5 0
1274 85 57.5 0
1275 57.5 85 0
1276 42.5 87.5 0
1277 45 85 0
1278 32.5 92.5 0
1279 27.5 87.5 0
1280 12.5 42.5 0
1281 57.5 90 0
1282 90 55 0
1283 90 60 0
1284 32.5 7.5 0
1285 32.5 47.5 0
1286 32.5 52.5 0
1287 42.5 7.5 0
1288 37.5 7.5 0
1289 45 15 0
1290 15 52.5 0
1291 12.5 52.5 0
1292 27.5 47.5 0
1293 27.5 52.5 0
1294 37.5 52.5 0
1295 37.5 47.5 0
1296 52.5 12.5 0
1297 37.5 12.5 0
1298 17.5 92.5 0
1299 20 92.5 0
1300 7.5 15 0
1301 12.5 7.5 0
1302 20 7.5 0
1303 17.5 7.5 0
1304 32.5 12.5 0
1305 7.5 90 0
1306 10 17.5 0
1307 22.5 90 0
1308 27.5 10 0
1309 10 12.5 0
1310 87.5 17.5 0
1311 7.5 57.5 0
1312 10 45 0
1313 10 10 0
1314 15 82.5 0
1315 25 12.5 0
1316 7.5 60 0
1317 57.5 7.5 0
1318 77.5 90 0
1319 17.5 52.5 0
1320 22.5 47.5 0
1321 20 52.5 0
1322 22.5 52.5 0
1323 82.5 52.5 0
1324 82.5 47.5 0
1325 87.5 52.5 0
1326 87.5 47.5 0
1327 47.5 12.5 0
1328 52.5 82.5 0
1329 47.5 82.5 0
1330 52.5 87.5 0
1331 47.5 87.5 0
1332 77.5 7.5 0
1333 82.5 15 0
1334 82.5 7.5 0
1335 12.5 57.5 0
1336 87.5 62.5 0
1337 87.5 82.5 0
1338 82.5 55 0
1339 55 82.5 0
1340 32.5 90 0
1341 37.5 87.5 0
1342 10 77.5 0
1343 10 75 0
1344 10 65 0
1345 90 77.5 0
1346 90 75 0
1347 90 65 0
1348 10 40 0
1349 10 30 0
1350 90 42.5 0
1351 90 40 0
1352 90 30 0
1353 10 20 0
1354 92.5 90 0
1355 77.5 87.5 0
1356 90 7.5 0
1357 92.5 82.5 0
1358 92.5 77.5 0
1359 17.5 12.5 0
1360 20 12.5 0
1361 17.5 45 0
1362 27.5 92.5 0
1363 82.5 87.5 0
1364 90 85 0
1365 85 92.5 0
1366 87.5 90 0
1367 12.5 60 0
1368 62.5 7.5 0
1369 65 10 0
1370 87.5 45 0
1371 7.5 80 0
1372 90 10 0
1373 60 10 0
1374 87.5 80 0
1375 90 15 0
1376 90 45 0
1377 75 10 0
1378 65 90 0
1379 75 90 0
1380 45 90 0
1381 55 90 0
1382 60 90 0
1383 40 92.5 0
1384 42.5 92.5 0
1385 55 10 0
1386 55 12.5 0
1387 10 92.5 0
1388 40 12.5 0
1389 15 90 0
1390 15 85 0
1391 12.5 80 0
1392 82.5 10 0
1393 87.5 10 0
1394 87.5 15 0
1395 42.5 12.5 0
1396 40 7.5 0
1397 37.5 10 0
1398 32.5 10 0
1399 30 10 0
1400 12.5 92.5 0
1401 15 47.5 0
1402 17.5 47.5 0
1403 35 47.5 0
1404 35 52.5 0
1405 15 10 0
1406 15 45 0
1407 20 87.5 0
1408 10 85 0
1409 10 90 0
1410 42.5 10 0
1411 25 10 0
1412 12.5 12.5 0
1413 10 15 0
1414 12.5 55 0
1415 17.5 90 0
1416 20 90 0
1417 12.5 10 0
1418 20 10 0
1419 25 47.5 0
1420 25 90 0
1421 25 87.5 0
1422 20 47.5 0
1423 25 52.5 0
1424 85 47.5 0
1425 85 52.5 0
1426 47.5 85 0
1427 52.5 85 0
1428 85 7.5 0
1429 85 15 0
1430 80 90 0
1431 90 80 0
1432 40 90 0
1433 57.5 10 0
1434 80 10 0
1435 10 62.5 0
1436 30 90 0
1437 90 12.5 0
1438 10 42.5 0
1439 87.5 87.5 0
1440 85 87.5 0
1441 87.5 60 0
1442 60 87.5 0
1443 90 90 0
1444 80 12.5 0
1445 35 92.5 0
1446 37.5 90 0
1447 35 90 0
1448 62.5 10 0
1449 62.5 90 0
1450 90 87.5 0
1451 10 57.5 0
1452 12.5 45 0
1453 82.5 90 0
1454 10 82.5 0
1455 77.5 10 0
1456 87.5 55 0
1457 85 55 0
1458 55 87.5 0
1459 55 85 0
1460 45 87.5 0
1461 90 82.5 0
1462 10 80 0
1463 85 90 0
1464 90 57.5 0
1465 42.5 90 0
1466 25 7.5 0
1467 45 12.5 0
1468 22.5 10 0
1469 40 10 0
1470 12.5 90 0
1471 17.5 87.5 0
1472 12.5 87.5 0
1473 17.5 10 0
1474 12.5 82.5 0
1475 35 10 0
1476 57.5 87.5 0
1477 27.5 90 0
1478 10 60 0
1479 82.5 12.5 0
1480 85 10 0
1481 85 12.5 0
1482 87.5 12.5 0
1483 87.5 57.5 0
1484 15 87.5 0
1485 12.5 85 0
1486 70 70 0
1511 62.5 70 0
1512 65 70 0
1513 67.5 70 0
1514 72.5 70 0
1515 75 70 0
1516 77.5 70 0
1517 70 62.5 0
1518 70 65 0
1519 70 67.5 0
1520 70 72.5 0
1521 70 75 0
1522 70 77.5 0
1523 62.5 62.5 0
1524 67.5 62.5 0
1525 75 62.5 0
1526 77.5 65 0
1527 77.443374951243 72.5041076835243 0
1528 77.458896974816 77.5036264400469 0
1529 72.4603449242337 77.4824251077658 0
1530 65 77.5 0
1531 62.5 75 0
1532 62.5 67.5 0
1533 67.5 67.5 0
1534 67.5 72.5 0
1535 72.4365680231058 72.4746514736883 0
1536 72.5 67.5 0
1537 72.5 62.5 0
1538 77.5 62.5 0
1539 77.5 67.5 0
1540 67.5 77.5 0
1541 62.5 77.5 0
1542 62.5 72.5 0
1543 74.9274180596275 72.4912810523593 0
1544 72.4408249951939 74.979017635046 0
1545 65 62.5 0
1546 77.4412665872784 75.0030396459658 0
1547 74.9506180885668 77.4958702591793 0
1548 62.5 65 0
1549 65 67.5 0
1550 65 72.5 0
1551 75 67.5 0
1552 67.5 65 0
1553 72.5 65 0
1554 67.5 75 0
1555 75 65 0
1556 65 75 0
1557 74.9282749563718 74.9923003245706 0
1558 65 65 0
1585 22.5 70 0
1586 25 70 0
1587 27.5 70 0
1588 30 70 0
1589 32.5 70 0
1590 35 70 0
1591 37.5 70 0
1592 27.5 62.5 0
1593 35 62.5 0
1594 32.5369596948675 77.4523954740801 0
1595 25.0219444028276 77.4722591532999 0
1596 22.5 62.5 0
1597 37.5 65 0
1598 37.5017975005297 72.5057616291401 0
1599 37.5058155233983 77.5015171813137 0
1600 22.5183647427023 74.9895996657825 0
1601 22.5 67.5 0
1602 32.5 62.5 0
1603 37.5 62.5 0
1604 37.5 67.5 0
1605 27.5399402925228 77.4358519980405 0
1606 22.5100154649138 77.4919096920785 0
1607 22.5184337695752 72.491101418789 0
1608 25 62.5 0
1609 25 67.5 0
1610 30 62.5 0
1611 37.5063346939382 75.0032626365564 0
1612 35.0187598488594 77.4863858329471 0
1613 30.0470234740229 77.4253762281897 0
1614 22.5 65 0
1615 25.0521957542389 74.9509626368294 0
1616 25.0494539111228 72.4600512566674 0
1617 35 65 0
1618 35 67.5 0
1619 35.0153955079931 72.4912982577109 0
1620 30 65 0
1621 27.5 67.5 0
1622 27.5725050585857 72.4211476432644 0
1623 32.5456485592904 72.4479527825356 0
1624 32.5 67.5 0
1625 27.5 65 0
1626 32.5582181792552 74.9280586869468 0
1627 27.5717884329036 74.9039619628176 0
1628 25 65 0
1629 35.0241789660799 74.9802582715267 0
1630 32.5 65 0
1631 30.0745056697205 74.8971965641385 0
1632 30 67.5 0
1633 30.0572203494948 72.4319130525846 0
1634 70 25 0
1635 70 35 0
1658 70 22.5 0
1659 70 27.5 0
1660 70 30 0
1661 70 32.5 0
1662 70 37.5 0
1663 62.5 35 0
1664 65 35 0
1665 67.5 35 0
1666 72.5 35 0
1667 75 35 0
1668 77.5 35 0
1669 62.5 25 0
1670 65 25 0
1671 67.5 25 0
1672 72.5 25 0
1673 75 25 0
1674 77.5 25 0
1675 65 22.5 0
1676 62.5 22.5 0
1677 67.5 22.5 0
1678 75 22.5 0
1679 72.5 22.5 0
1680 77.5 22.5 0
1681 77.5 27.5 0
1682 77.5 30 0
1683 72.5 27.5 0
1684 72.5 32.5 0
1685 77.5 37.5 0
1686 72.5 37.5 0
1687 65 37.5 0
1688 67.5 37.5 0
1689 62.5 37.5 0
1690 62.5 32.5 0
1691 62.5 27.5 0
1692 67.5 27.5 0
1693 67.5 32.5 0
1694 77.5 32.5 0
1695 75 37.5 0
1696 65 32.5 0
1697 75 32.5 0
1698 65 27.5 0
1699 75 27.5 0
1700 62.5 30 0
1701 72.5 30 0
1702 67.5 30 0
1703 65 30 0
1704 75 30 0
1729 22.5 35 0
1730 25 35 0
1731 27.5 35 0
1732 30 35 0
1733 32.5 35 0
1734 35 35 0
1735 37.5 35 0
1736 22.5 25 0
1737 25 25 0
1738 27.5 25 0
1739 30 25 0
1740 32.5 25 0
1741 35 25 0
1742 37.5 25 0
1743 25 22.5 0
1744 22.5 22.5 0
1745 30 22.5 0
1746 35 22.5 0
1747 37.5 22.5 0
1748 37.5 27.5 0
1749 37.5 30 0
1750 37.5 37.5 0
1751 32.5 37.5 0
1752 27.5 37.5 0
1753 22.5 37.5 0
1754 22.5 32.5 0
1755 22.5 27.5 0
1756 37.5 32.5 0
1757 27.5 32.5 0
1758 27.5 27.5 0
1759 27.5 22.5 0
1760 32.5 22.5 0
1761 35 37.5 0
1762 30 37.5 0
1763 25 37.5 0
1764 25 32.5 0
1765 30 32.5 0
1766 32.5 27.5 0
1767 32.5 32.5 0
1768 35 32.5 0
1769 25 27.5 0
1770 35 27.5 0
1771 22.5 30 0
1772 30 27.5 0
1773 25 30 0
1774 35 30 0
1775 27.5 30 0
1776 30 30 0
1777 32.5 30 0
1778 62.5 60 0
1779 65 60 0
1780 67.5 60 0
1781 72.5 60 0
1782 75 60 0
1783 77.5 60 0
1784 80 62.5 0
1785 80 65 0
1786 80 67.5 0
1787 80 72.5 0
1788 80 75 0
1789 80 77.5 0
1790 77.5 80 0
1791 75 80 0
1792 72.5 80 0
1793 67.5 80 0
1794 65 80 0
1795 62.5 80 0
1796 60 77.5 0
1797 60 75 0
1798 60 72.5 0
1799 60 67.5 0
1800 60 65 0
1801 60 62.5 0
1802 22.5 60 0
1803 25 60 0
1804 27.5 60 0
1805 30 60 0
1806 32.5 60 0
1807 35 60 0
1808 37.5 60 0
1809 40 62.5 0
1810 40 65 0
1811 40 67.5 0
1812 40 72.5 0
1813 40 75 0
1814 40 77.5 0
1815 37.5 80 0
1816 35 80 0
1817 32.5 80 0
1818 30 80 0
1819 27.5 80 0
1820 25 80 0
1821 22.5 80 0
1822 20 77.5 0
1823 20 75 0
1824 20 72.5 0
1825 20 67.5 0
1826 20 65 0
1827 20 62.5 0
1828 62.5 20 0
1829 65 20 0
1830 67.5 20 0
1831 72.5 20 0
1832 75 20 0
1833 77.5 20 0
1834 80 22.5 0
1835 80 27.5 0
1836 80 30 0
1837 80 32.5 0
1838 80 37.5 0
1839 77.5 40 0
1840 75 40 0
1841 72.5 40 0
1842 67.5 40 0
1843 65 40 0
1844 62.5 40 0
1845 60 37.5 0
1846 60 32.5 0
1847 60 30 0
1848 60 27.5 0
1849 60 22.5 0
1850 22.5 20 0
1851 25 20 0
1852 27.5 20 0
1853 30 20 0
1854 32.5 20 0
1855 35 20 0
1856 37.5 20 0
1857 40 22.5 0
1858 40 27.5 0
1859 40 30 0
1860 40 32.5 0
1861 40 37.5 0
1862 37.5 40 0
1863 35 40 0
1864 32.5 40 0
1865 30 40 0
1866 27.5 40 0
1867 25 40 0
1868 22.5 40 0
1869 20 37.5 0
1870 20 32.5 0
1871 20 30 0
1872 20 27.5 0
1873 20 22.5 0
$EndNodes
$Elements
1601
1 2 2 1 1 914 930 670 
2 2 2 1 1 671 1126 931 
3 3 2 1 1 899 1142 1403 1285
4 3 2 1 1 434 435 577 841
5 3 2 1 1 434 840 574 435
6 3 2 1 1 517 840 434 433
7 3 2 1 1 841 613 433 434
8 3 2 1 1 1391 1163 1314 1474
9 3 2 1 1 1297 1388 1162 869
10 3 2 1 1 1131 674 899 1285
11 3 2 1 1 431 839 619 432
12 3 2 1 1 618 838 431 432
13 3 2 1 1 430 1010 839 431
14 3 2 1 1 838 1009 430 431
15 3 2 1 1 437 436 573 842
16 3 2 1 1 429 1194 1010 430
17 3 2 1 1 1009 1195 429 430
18 3 2 1 1 429 1195 1007 428
19 3 2 1 1 1005 1194 429 428
20 3 2 1 1 1288 1086 900 1138
21 3 2 1 1 428 1007 836 427
22 3 2 1 1 834 1005 428 427
23 3 2 1 1 1131 1292 901 674
24 3 2 1 1 427 836 624 426
25 3 2 1 1 541 834 427 426
26 3 2 1 1 1064 1228 892 655
27 3 2 1 1 1209 1275 890 664
28 3 2 1 1 444 849 629 445
29 3 2 1 1 551 848 444 445
30 3 2 1 1 891 1276 1095 654
31 3 2 1 1 443 1016 849 444
32 3 2 1 1 848 1015 443 444
33 3 2 1 1 1221 1277 891 850
34 3 2 1 1 442 1161 1016 443
35 3 2 1 1 1015 1196 442 443
36 3 2 1 1 442 1196 1013 441
37 3 2 1 1 442 441 1011 1161
38 3 2 1 1 1132 672 902 1293
39 3 2 1 1 441 1013 846 440
40 3 2 1 1 441 440 844 1011
41 3 2 1 1 440 846 605 439
42 3 2 1 1 513 844 440 439
43 3 2 1 1 842 611 438 437
44 3 2 1 1 1313 1417 1412 1309
45 3 2 1 1 893 1231 1069 677
46 3 2 1 1 1163 1391 1272 883
47 3 2 1 1 610 843 437 438
48 3 2 1 1 437 843 575 436
49 3 2 1 1 519 821 411 412
50 3 2 1 1 515 826 417 418
51 3 2 1 1 1088 1315 909 656
52 3 2 1 1 909 1315 1089 953
53 3 2 1 1 614 824 414 413
54 3 2 1 1 414 415 580 825
55 3 2 1 1 414 824 578 415
56 3 2 1 1 825 615 413 414
57 3 2 1 1 1321 1200 910 1319
58 3 2 1 1 1156 1375 1155 886
59 3 2 1 1 911 1166 1419 1320
60 3 2 1 1 411 823 617 412
61 3 2 1 1 417 416 576 827
62 3 2 1 1 1422 1216 911 1320
63 3 2 1 1 410 998 823 411
64 3 2 1 1 821 996 410 411
65 3 2 1 1 1375 1437 1154 1155
66 3 2 1 1 409 1190 998 410
67 3 2 1 1 996 1191 409 410
68 3 2 1 1 409 1191 995 408
69 3 2 1 1 993 1190 409 408
70 3 2 1 1 1423 1203 912 1322
71 3 2 1 1 1154 1437 1372 1119
72 3 2 1 1 1002 1193 422 423
73 3 2 1 1 1159 1291 1414 1264
74 3 2 1 1 902 1203 1423 1293
75 3 2 1 1 1132 1286 903 672
76 3 2 1 1 636 831 424 425
77 3 2 1 1 424 833 632 425
78 3 2 1 1 423 1004 833 424
79 3 2 1 1 831 1002 423 424
80 3 2 1 1 1316 1478 1435 1122
81 3 2 1 1 1451 1478 1316 1311
82 3 2 1 1 422 1192 1004 423
83 3 2 1 1 890 1339 1113 715
84 3 2 1 1 422 1193 1001 421
85 3 2 1 1 999 1192 422 421
86 3 2 1 1 421 1001 830 420
87 3 2 1 1 829 999 421 420
88 3 2 1 1 420 830 607 419
89 3 2 1 1 606 829 420 419
90 3 2 1 1 1087 1167 906 652
91 3 2 1 1 827 609 418 417
92 3 2 1 1 1385 1124 1317 1433
93 3 2 1 1 417 826 579 416
94 3 2 1 1 1250 1021 473 753
95 3 2 1 1 1414 1291 1290 1110
96 3 2 1 1 1023 1199 478 725
97 3 2 1 1 478 1199 881 650
98 3 2 1 1 1239 1282 1177 976
99 3 2 1 1 478 650 479 5
100 3 2 1 1 866 1110 910 667
101 3 2 1 1 1251 1210 1174 971
102 3 2 1 1 867 1268 1223 1057
103 3 2 1 1 931 1022 474 671
104 3 2 1 1 1224 1347 1171 965
105 3 2 1 1 475 671 474 1
106 3 2 1 1 864 1428 1334 1198
107 3 2 1 1 1257 1297 869 1148
108 3 2 1 1 473 1021 879 752
109 3 2 1 1 1469 1388 1297 1397
110 3 2 1 1 1389 1415 1298 1254
111 3 2 1 1 471 743 913 1142
112 3 2 1 1 471 1142 899 707
113 3 2 1 1 1299 1416 1307 1087
114 3 2 1 1 1226 1343 1170 962
115 3 2 1 1 1415 1416 1299 1298
116 3 2 1 1 1008 1107 872 837
117 3 2 1 1 1024 1201 483 737
118 3 2 1 1 1151 889 852 1152
119 3 2 1 1 892 1222 853 655
120 3 2 1 1 514 669 490 20
121 3 2 1 1 1475 1398 1284 1086
122 3 2 1 1 854 860 1138 585
123 3 2 1 1 512 852 488 15
124 3 2 1 1 855 929 1030 501
125 3 2 1 1 1178 1326 1370 1376
126 3 2 1 1 1144 1253 861 646
127 3 2 1 1 861 1314 1163 716
128 3 2 1 1 1469 1396 1287 1410
129 3 2 1 1 1238 1344 1169 959
130 3 2 1 1 483 1201 866 667
131 3 2 1 1 862 1091 1062 648
132 3 2 1 1 1288 1397 1475 1086
133 3 2 1 1 482 1200 912 730
134 3 2 1 1 910 1200 482 667
135 3 2 1 1 483 667 482 9
136 3 2 1 1 1215 1333 862 717
137 3 2 1 1 1178 1376 1214 977
138 3 2 1 1 1116 1266 863 1061
139 3 2 1 1 1267 1428 864 1204
140 3 2 1 1 1262 1359 1164 1150
141 3 2 1 1 864 1198 454 749
142 3 2 1 1 1307 1416 1407 1260
143 3 2 1 1 1227 1273 884 1077
144 3 2 1 1 956 700 885 1139
145 3 2 1 1 1286 1404 1165 903
146 3 2 1 1 486 850 452 12
147 3 2 1 1 1162 1259 885 661
148 3 2 1 1 451 1197 1017 770
149 3 2 1 1 863 1197 451 771
150 3 2 1 1 885 1259 1289 1139
151 3 2 1 1 886 1155 954 675
152 3 2 1 1 454 1198 1018 748
153 3 2 1 1 1111 1338 887 714
154 3 2 1 1 887 1274 1208 663
155 3 2 1 1 448 946 876 710
156 3 2 1 1 888 1112 916 669
157 3 2 1 1 447 689 900 651
158 3 2 1 1 1310 1394 1375 1156
159 3 2 1 1 1000 1179 888 828
160 3 2 1 1 446 1134 939 686
161 3 2 1 1 859 1134 446 690
162 3 2 1 1 1121 657 889 1096
163 3 2 1 1 461 1252 871 708
164 3 2 1 1 875 1118 996 821
165 3 2 1 1 1300 1413 1306 1153
166 3 2 1 1 1067 1093 875 662
167 3 2 1 1 851 1020 466 751
168 3 2 1 1 1309 1413 1300 1090
169 3 2 1 1 1348 1438 1168 994
170 3 2 1 1 464 1019 865 766
171 3 2 1 1 1301 1417 1313 1146
172 3 2 1 1 1405 1417 1301 1084
173 3 2 1 1 1312 1109 1168 1438
174 3 2 1 1 408 995 820 407
175 3 2 1 1 1307 1420 1167 1087
176 3 2 1 1 880 1336 1224 1072
177 3 2 1 1 1303 1473 1405 1084
178 3 2 1 1 1418 1473 1303 1302
179 3 2 1 1 881 1337 1270 1205
180 3 2 1 1 1225 1271 882 1073
181 3 2 1 1 1292 1419 1166 901
182 3 2 1 1 873 745 455 947
183 3 2 1 1 1304 1398 1475 1257
184 3 2 1 1 883 1272 1226 1076
185 3 2 1 1 798 980 355 356
186 3 2 1 1 359 360 569 801
187 3 2 1 1 535 800 359 358
188 3 2 1 1 801 536 358 359
189 3 2 1 1 1332 1455 1377 1211
190 3 2 1 1 1115 1278 952 665
191 3 2 1 1 1139 1289 1160 937
192 3 2 1 1 356 799 533 357
193 3 2 1 1 532 798 356 357
194 3 2 1 1 954 1155 1154 946
195 3 2 1 1 1138 860 1396 1288
196 3 2 1 1 355 981 799 356
197 3 2 1 1 359 800 571 360
198 3 2 1 1 1434 1455 1332 1098
199 3 2 1 1 354 1181 981 355
200 3 2 1 1 980 1180 354 355
201 3 2 1 1 979 1181 354 353
202 3 2 1 1 354 1180 978 353
203 3 2 1 1 797 979 353 352
204 3 2 1 1 353 978 796 352
205 3 2 1 1 1085 1305 958 649
206 3 2 1 1 958 1305 1140 905
207 3 2 1 1 625 797 352 351
208 3 2 1 1 1459 1458 1330 1427
209 3 2 1 1 983 1183 367 366
210 3 2 1 1 367 1182 982 366
211 3 2 1 1 946 1154 1119 876
212 3 2 1 1 805 983 366 365
213 3 2 1 1 366 982 804 365
214 3 2 1 1 1090 1300 947 955
215 3 2 1 1 597 805 365 364
216 3 2 1 1 365 804 525 364
217 3 2 1 1 947 1300 1153 873
218 3 2 1 1 802 521 363 362
219 3 2 1 1 1084 1301 948 647
220 3 2 1 1 352 796 543 351
221 3 2 1 1 948 1301 1146 907
222 3 2 1 1 949 1303 1084 647
223 3 2 1 1 595 803 362 363
224 3 2 1 1 362 361 572 802
225 3 2 1 1 362 803 570 361
226 3 2 1 1 1302 1303 949 1143
227 3 2 1 1 1409 1387 1140 1305
228 3 2 1 1 950 1149 1147 676
229 3 2 1 1 1145 1304 951 660
230 3 2 1 1 951 1304 1257 1148
231 3 2 1 1 360 571 340 51
232 3 2 1 1 343 1175 1324 344
233 3 2 1 1 343 1176 975 342
234 3 2 1 1 342 974 1175 343
235 3 2 1 1 1072 1224 965 783
236 3 2 1 1 342 975 793 341
237 3 2 1 1 341 792 974 342
238 3 2 1 1 341 793 572 340
239 3 2 1 1 340 571 792 341
240 3 2 1 1 966 1125 1023 784
241 3 2 1 1 1444 1479 1333 1215
242 3 2 1 1 340 572 361 51
243 3 2 1 1 344 1323 1176 343
244 3 2 1 1 339 570 791 338
245 3 2 1 1 1254 1298 1134 859
246 3 2 1 1 1172 1346 966 967
247 3 2 1 1 361 570 339 51
248 3 2 1 1 339 569 360 51
249 3 2 1 1 338 791 973 337
250 3 2 1 1 966 1346 1345 1125
251 3 2 1 1 338 790 569 339
252 3 2 1 1 337 972 790 338
253 3 2 1 1 1171 1347 969 970
254 3 2 1 1 347 1177 1325 346
255 3 2 1 1 1056 1238 959 773
256 3 2 1 1 350 555 794 349
257 3 2 1 1 349 794 976 348
258 3 2 1 1 960 1117 1026 774
259 3 2 1 1 1170 1343 960 961
260 3 2 1 1 589 350 349 795
261 3 2 1 1 348 976 1177 347
262 3 2 1 1 960 1343 1342 1117
263 3 2 1 1 1387 1400 1135 936
264 3 2 1 1 348 977 795 349
265 3 2 1 1 984 1182 367 368
266 3 2 1 1 1076 1226 962 776
267 3 2 1 1 347 1178 977 348
268 3 2 1 1 346 1325 1425 345
269 3 2 1 1 346 1326 1178 347
270 3 2 1 1 1135 1400 1254 859
271 3 2 1 1 963 1102 1024 777
272 3 2 1 1 345 1424 1326 346
273 3 2 1 1 345 1425 1323 344
274 3 2 1 1 344 1324 1424 345
275 3 2 1 1 1169 1344 963 964
276 3 2 1 1 924 1234 980 798
277 3 2 1 1 921 1232 1029 1082
278 3 2 1 1 397 989 815 396
279 3 2 1 1 396 816 990 397
280 3 2 1 1 1212 1232 921 681
281 3 2 1 1 396 815 563 395
282 3 2 1 1 395 565 816 396
283 3 2 1 1 1095 1341 922 654
284 3 2 1 1 922 1341 1228 1064
285 3 2 1 1 394 562 813 393
286 3 2 1 1 923 1123 968 786
287 3 2 1 1 393 813 987 392
288 3 2 1 1 1329 1221 920 1186
289 3 2 1 1 393 814 564 394
290 3 2 1 1 1147 1313 1309 1090
291 3 2 1 1 1233 1234 924 1051
292 3 2 1 1 925 1236 984 806
293 3 2 1 1 391 392 987 1184
294 3 2 1 1 1184 898 390 391
295 3 2 1 1 898 702 389 390
296 3 2 1 1 1235 1236 925 1058
297 3 2 1 1 388 389 702 566
298 3 2 1 1 1146 1313 1147 1149
299 3 2 1 1 1426 400 401 1331
300 3 2 1 1 819 993 408 407
301 3 2 1 1 407 820 587 406
302 3 2 1 1 544 819 407 406
303 3 2 1 1 405 554 817 404
304 3 2 1 1 404 817 991 403
305 3 2 1 1 916 1324 1175 678
306 3 2 1 1 558 405 404 818
307 3 2 1 1 403 991 1188 402
308 3 2 1 1 403 992 818 404
309 3 2 1 1 402 1188 1331 401
310 3 2 1 1 402 1189 992 403
311 3 2 1 1 1083 1237 927 1251
312 3 2 1 1 401 1330 1189 402
313 3 2 1 1 400 1427 1330 401
314 3 2 1 1 399 1328 1427 400
315 3 2 1 1 399 400 1426 1329
316 3 2 1 1 919 1113 1187 990
317 3 2 1 1 920 1041 989 1186
318 3 2 1 1 1329 1186 398 399
319 3 2 1 1 398 1187 1328 399
320 3 2 1 1 397 990 1187 398
321 3 2 1 1 397 398 1186 989
322 3 2 1 1 371 622 713 372
323 3 2 1 1 435 574 379 52
324 3 2 1 1 945 680 378 377
325 3 2 1 1 378 699 937 377
326 3 2 1 1 1145 1399 1398 1304
327 3 2 1 1 378 680 573 379
328 3 2 1 1 1308 1399 1145 1089
329 3 2 1 1 939 1299 1087 652
330 3 2 1 1 1248 1296 375 374
331 3 2 1 1 1327 1141 374 375
332 3 2 1 1 1298 1299 939 1134
333 3 2 1 1 1260 1407 1144 870
334 3 2 1 1 379 573 436 52
335 3 2 1 1 371 372 691 509
336 3 2 1 1 1330 1458 1381 1189
337 3 2 1 1 1264 1101 942 1159
338 3 2 1 1 1261 1302 1143 871
339 3 2 1 1 369 807 561 370
340 3 2 1 1 557 806 369 370
341 3 2 1 1 368 985 807 369
342 3 2 1 1 806 984 368 369
343 3 2 1 1 1151 1152 945 1106
344 3 2 1 1 367 1183 985 368
345 3 2 1 1 383 580 415 53
346 3 2 1 1 701 386 387 510
347 3 2 1 1 986 812 386 385
348 3 2 1 1 386 701 938 385
349 3 2 1 1 1214 1213 928 698
350 3 2 1 1 929 703 994 1168
351 3 2 1 1 811 384 385 938
352 3 2 1 1 384 810 986 385
353 3 2 1 1 384 811 580 383
354 3 2 1 1 383 579 810 384
355 3 2 1 1 416 579 383 53
356 3 2 1 1 1483 1464 1283 1441
357 3 2 1 1 382 578 809 381
358 3 2 1 1 1457 1425 1325 1456
359 3 2 1 1 382 576 416 53
360 3 2 1 1 415 578 382 53
361 3 2 1 1 381 809 577 380
362 3 2 1 1 381 808 576 382
363 3 2 1 1 380 575 808 381
364 3 2 1 1 436 575 380 52
365 3 2 1 1 380 577 435 52
366 3 2 1 1 379 574 699 378
367 3 2 1 1 722 1035 1036 520
368 3 2 1 1 911 1216 721 492
369 3 2 1 1 879 1056 630 752
370 3 2 1 1 630 1056 773 549
371 3 2 1 1 1316 1021 1250 1311
372 3 2 1 1 629 849 847 548
373 3 2 1 1 1252 1466 1261 871
374 3 2 1 1 1055 1204 626 750
375 3 2 1 1 626 1204 864 749
376 3 2 1 1 1022 1035 722 474
377 3 2 1 1 1253 1390 1314 861
378 3 2 1 1 1269 1383 1219 877
379 3 2 1 1 632 833 832 552
380 3 2 1 1 624 836 835 545
381 3 2 1 1 723 521 802 1071
382 3 2 1 1 796 1054 623 543
383 3 2 1 1 915 476 723 1071
384 3 2 1 1 1407 1471 1253 1144
385 3 2 1 1 724 1072 783 522
386 3 2 1 1 873 1053 621 745
387 3 2 1 1 621 1053 834 541
388 3 2 1 1 880 1072 724 477
389 3 2 1 1 784 1023 725 523
390 3 2 1 1 665 952 637 463
391 3 2 1 1 716 1163 883 487
392 3 2 1 1 818 1059 641 558
393 3 2 1 1 1246 1450 1364 1099
394 3 2 1 1 640 1058 925 763
395 3 2 1 1 1443 1450 1246 1354
396 3 2 1 1 659 1058 640 496
397 3 2 1 1 884 1215 717 489
398 3 2 1 1 639 788 787 556
399 3 2 1 1 1278 1445 1220 952
400 3 2 1 1 652 906 638 507
401 3 2 1 1 1237 1070 718 927
402 3 2 1 1 620 540 705 709
403 3 2 1 1 1220 1445 1269 877
404 3 2 1 1 719 516 837 872
405 3 2 1 1 635 775 774 511
406 3 2 1 1 1219 1383 1384 1031
407 3 2 1 1 867 1057 634 755
408 3 2 1 1 719 1164 1065 720
409 3 2 1 1 634 1057 649 453
410 3 2 1 1 1150 1164 719 872
411 3 2 1 1 633 905 683 506
412 3 2 1 1 1248 1385 1386 1296
413 3 2 1 1 1273 1444 1215 884
414 3 2 1 1 731 1165 904 484
415 3 2 1 1 605 846 845 534
416 3 2 1 1 1257 1475 1397 1297
417 3 2 1 1 604 1051 924 738
418 3 2 1 1 604 488 657 1051
419 3 2 1 1 603 778 777 531
420 3 2 1 1 732 1075 779 528
421 3 2 1 1 853 1050 602 601
422 3 2 1 1 908 1075 732 485
423 3 2 1 1 655 853 601 456
424 3 2 1 1 733 1041 920 486
425 3 2 1 1 731 592 903 1165
426 3 2 1 1 1042 1041 733 529
427 3 2 1 1 654 922 600 452
428 3 2 1 1 599 780 1042 529
429 3 2 1 1 922 1064 734 600
430 3 2 1 1 598 782 1040 527
431 3 2 1 1 735 1217 870 460
432 3 2 1 1 1050 1217 735 602
433 3 2 1 1 596 785 784 523
434 3 2 1 1 1036 803 595 520
435 3 2 1 1 1214 1376 1350 1213
436 3 2 1 1 613 841 1044 538
437 3 2 1 1 619 839 837 516
438 3 2 1 1 1255 1409 1305 1085
439 3 2 1 1 822 838 618 539
440 3 2 1 1 874 1037 726 479
441 3 2 1 1 617 823 822 539
442 3 2 1 1 804 1073 727 525
443 3 2 1 1 674 901 616 493
444 3 2 1 1 727 1073 882 480
445 3 2 1 1 1044 824 614 538
446 3 2 1 1 1255 1472 1470 1409
447 3 2 1 1 642 923 786 559
448 3 2 1 1 1279 1421 1217 1050
449 3 2 1 1 728 1074 781 526
450 3 2 1 1 919 1074 728 481
451 3 2 1 1 656 909 612 457
452 3 2 1 1 1260 870 1217 1421
453 3 2 1 1 729 1039 918 475
454 3 2 1 1 608 1052 1078 740
455 3 2 1 1 1040 1039 729 527
456 3 2 1 1 678 1052 608 490
457 3 2 1 1 607 830 828 514
458 3 2 1 1 663 1208 880 477
459 3 2 1 1 1025 1210 668 491
460 3 2 1 1 1446 1447 1228 1341
461 3 2 1 1 668 927 718 22
462 3 2 1 1 904 1127 666 484
463 3 2 1 1 1235 1449 1378 1236
464 3 2 1 1 1382 1449 1235 1207
465 3 2 1 1 1228 1447 1340 892
466 3 2 1 1 760 1068 665 463
467 3 2 1 1 882 1209 664 480
468 3 2 1 1 664 890 715 7
469 3 2 1 1 908 485 692 1136
470 3 2 1 1 1373 1448 1233 1121
471 3 2 1 1 714 887 663 3
472 3 2 1 1 693 1148 869 458
473 3 2 1 1 951 1148 693 593
474 3 2 1 1 662 875 821 519
475 3 2 1 1 721 1067 662 30
476 3 2 1 1 694 907 704 498
477 3 2 1 1 869 1162 661 458
478 3 2 1 1 1089 1145 660 953
479 3 2 1 1 696 955 947 455
480 3 2 1 1 1342 1343 1226 1272
481 3 2 1 1 1152 1033 680 945
482 3 2 1 1 678 1175 974 1052
483 3 2 1 1 1283 1464 1230 1231
484 3 2 1 1 1230 1464 1282 1239
485 3 2 1 1 677 1069 762 505
486 3 2 1 1 676 1147 1090 955
487 3 2 1 1 748 1018 679 503
488 3 2 1 1 676 955 696 469
489 3 2 1 1 1098 1332 679 1018
490 3 2 1 1 679 1332 1211 1047
491 3 2 1 1 680 1033 842 573
492 3 2 1 1 675 954 697 500
493 3 2 1 1 742 953 660 459
494 3 2 1 1 707 899 674 493
495 3 2 1 1 1249 594 673 934
496 3 2 1 1 770 1017 681 467
497 3 2 1 1 1233 1448 1369 1234
498 3 2 1 1 1100 1212 681 1017
499 3 2 1 1 706 902 672 470
500 3 2 1 1 1229 1283 1231 893
501 3 2 1 1 828 888 669 514
502 3 2 1 1 669 916 678 490
503 3 2 1 1 668 1210 1251 927
504 3 2 1 1 1124 944 713 1046
505 3 2 1 1 1243 1381 1281 1097
506 3 2 1 1 1205 1206 650 881
507 3 2 1 1 1340 1436 1222 892
508 3 2 1 1 650 1206 874 479
509 3 2 1 1 711 1030 1109 941
510 3 2 1 1 754 453 649 958
511 3 2 1 1 648 1062 844 513
512 3 2 1 1 717 862 648 17
513 3 2 1 1 1350 1351 1244 1213
514 3 2 1 1 712 942 1101 1048
515 3 2 1 1 695 949 647 449
516 3 2 1 1 1086 1284 651 900
517 3 2 1 1 870 1144 646 460
518 3 2 1 1 716 13 646 861
519 3 2 1 1 915 1111 714 476
520 3 2 1 1 645 1061 863 771
521 3 2 1 1 1306 1353 1245 1153
522 3 2 1 1 658 1061 645 497
523 3 2 1 1 681 921 644 467
524 3 2 1 1 715 1113 919 481
525 3 2 1 1 865 1060 643 766
526 3 2 1 1 643 1060 653 450
527 3 2 1 1 840 517 700 956
528 3 2 1 1 697 954 946 448
529 3 2 1 1 1097 1207 659 926
530 3 2 1 1 698 928 856 553
531 3 2 1 1 764 926 659 496
532 3 2 1 1 698 795 977 1214
533 3 2 1 1 772 1066 658 497
534 3 2 1 1 1318 1379 1240 1355
535 3 2 1 1 699 574 840 956
536 3 2 1 1 852 889 657 488
537 3 2 1 1 699 956 1139 937
538 3 2 1 1 736 1076 776 530
539 3 2 1 1 720 1065 656 457
540 3 2 1 1 734 1064 655 456
541 3 2 1 1 1241 1379 1318 1114
542 3 2 1 1 1229 1347 1224 1336
543 3 2 1 1 850 891 654 452
544 3 2 1 1 704 1149 950 705
545 3 2 1 1 653 1063 765 450
546 3 2 1 1 1146 1149 704 907
547 3 2 1 1 1223 1408 1255 1085
548 3 2 1 1 686 939 652 507
549 3 2 1 1 816 1074 919 990
550 3 2 1 1 810 579 826 1070
551 3 2 1 1 1037 1038 524 726
552 3 2 1 1 524 1038 805 597
553 3 2 1 1 811 1034 825 580
554 3 2 1 1 1338 1457 1274 887
555 3 2 1 1 1456 1483 1274 1457
556 3 2 1 1 1245 1353 1194 1005
557 3 2 1 1 957 1034 811 938
558 3 2 1 1 1244 1351 1193 1002
559 3 2 1 1 813 1075 908 987
560 3 2 1 1 815 989 1041 1042
561 3 2 1 1 809 1044 841 577
562 3 2 1 1 1275 1459 1339 890
563 3 2 1 1 518 1034 957 673
564 3 2 1 1 518 615 825 1034
565 3 2 1 1 1442 1476 1275 1209
566 3 2 1 1 594 29 518 673
567 3 2 1 1 1189 1381 1243 992
568 3 2 1 1 1277 1460 1276 891
569 3 2 1 1 1070 826 515 718
570 3 2 1 1 1276 1460 1380 1465
571 3 2 1 1 820 995 994 703
572 3 2 1 1 843 610 537 1043
573 3 2 1 1 545 835 819 544
574 3 2 1 1 787 969 893 677
575 3 2 1 1 788 970 969 787
576 3 2 1 1 789 567 812 1083
577 3 2 1 1 713 622 542 1046
578 3 2 1 1 790 1079 801 569
579 3 2 1 1 791 570 803 1036
580 3 2 1 1 704 705 540 498
581 3 2 1 1 1199 1374 1337 881
582 3 2 1 1 792 571 800 1078
583 3 2 1 1 793 1071 802 572
584 3 2 1 1 1460 1331 1188 1380
585 3 2 1 1 537 609 827 1043
586 3 2 1 1 1378 1449 1271 1225
587 3 2 1 1 1271 1449 1382 1442
588 3 2 1 1 1078 800 535 740
589 3 2 1 1 534 845 829 606
590 3 2 1 1 1266 1365 1197 863
591 3 2 1 1 1377 1455 1273 1227
592 3 2 1 1 1273 1455 1434 1444
593 3 2 1 1 808 1043 827 576
594 3 2 1 1 809 578 824 1044
595 3 2 1 1 495 1027 1081 761
596 3 2 1 1 1236 1378 1182 984
597 3 2 1 1 997 1009 838 822
598 3 2 1 1 1182 1378 1225 982
599 3 2 1 1 839 1010 1008 837
600 3 2 1 1 1181 1377 1227 981
601 3 2 1 1 499 1029 1028 767
602 3 2 1 1 1211 1377 1181 979
603 3 2 1 1 1281 1476 1442 1382
604 3 2 1 1 1458 1476 1281 1381
605 3 2 1 1 845 1012 999 829
606 3 2 1 1 846 1013 1012 845
607 3 2 1 1 711 628 501 1030
608 3 2 1 1 847 1014 886 675
609 3 2 1 1 1282 1456 1325 1177
610 3 2 1 1 1026 1202 494 756
611 3 2 1 1 494 1202 867 755
612 3 2 1 1 1003 1015 848 832
613 3 2 1 1 1336 1441 1283 1229
614 3 2 1 1 1234 1369 1180 980
615 3 2 1 1 849 1016 1014 847
616 3 2 1 1 1376 1370 1179 1350
617 3 2 1 1 920 1221 850 486
618 3 2 1 1 1183 1379 1241 985
619 3 2 1 1 1152 852 512 1033
620 3 2 1 1 1277 1221 1329 1426
621 3 2 1 1 1331 1460 1277 1426
622 3 2 1 1 512 611 842 1033
623 3 2 1 1 823 998 997 822
624 3 2 1 1 1242 1380 1188 991
625 3 2 1 1 508 851 751 627
626 3 2 1 1 830 1001 1000 828
627 3 2 1 1 1279 1477 1420 1421
628 3 2 1 1 506 683 682 581
629 3 2 1 1 679 1047 546 503
630 3 2 1 1 1436 1477 1279 1222
631 3 2 1 1 833 1004 1003 832
632 3 2 1 1 1240 1379 1183 983
633 3 2 1 1 928 1032 504 856
634 3 2 1 1 504 1032 831 636
635 3 2 1 1 1280 1452 1312 1438
636 3 2 1 1 1280 1438 1348 1118
637 3 2 1 1 502 1031 1080 757
638 3 2 1 1 835 1006 993 819
639 3 2 1 1 836 1007 1006 835
640 3 2 1 1 1263 1413 1309 1412
641 3 2 1 1 744 616 901 1166
642 3 2 1 1 705 950 586 709
643 3 2 1 1 586 950 676 469
644 3 2 1 1 744 1166 911 492
645 3 2 1 1 585 1138 900 689
646 3 2 1 1 1263 1412 1262 1150
647 3 2 1 1 878 1045 746 472
648 3 2 1 1 746 1045 1046 542
649 3 2 1 1 583 1143 949 695
650 3 2 1 1 871 1143 583 708
651 3 2 1 1 1306 1413 1263 1107
652 3 2 1 1 1212 1443 1354 1232
653 3 2 1 1 747 1218 878 472
654 3 2 1 1 582 948 907 694
655 3 2 1 1 1054 1218 747 623
656 3 2 1 1 647 948 582 449
657 3 2 1 1 1020 1055 750 466
658 3 2 1 1 1335 1451 1264 1414
659 3 2 1 1 1048 1250 753 550
660 3 2 1 1 905 633 754 958
661 3 2 1 1 1271 1442 1209 882
662 3 2 1 1 575 843 1043 808
663 3 2 1 1 741 536 801 1079
664 3 2 1 1 913 743 594 1249
665 3 2 1 1 883 1076 736 487
666 3 2 1 1 777 1024 737 531
667 3 2 1 1 738 924 798 532
668 3 2 1 1 660 951 593 459
669 3 2 1 1 799 1077 739 533
670 3 2 1 1 672 903 592 470
671 3 2 1 1 1259 1162 1388 1395
672 3 2 1 1 912 1203 591 730
673 3 2 1 1 591 1203 902 706
674 3 2 1 1 739 1077 884 489
675 3 2 1 1 1483 1441 1208 1274
676 3 2 1 1 936 1135 590 857
677 3 2 1 1 590 1135 859 690
678 3 2 1 1 1260 1421 1420 1307
679 3 2 1 1 1025 491 741 1079
680 3 2 1 1 742 612 909 953
681 3 2 1 1 1366 1443 1212 1100
682 3 2 1 1 876 1049 588 710
683 3 2 1 1 588 1049 851 508
684 3 2 1 1 1261 1468 1418 1302
685 3 2 1 1 587 820 703 547
686 3 2 1 1 832 848 551 552
687 3 2 1 1 1205 1440 1363 1206
688 3 2 1 1 807 1066 772 561
689 3 2 1 1 556 787 677 505
690 3 2 1 1 775 961 960 774
691 3 2 1 1 1372 1393 1267 1356
692 3 2 1 1 795 698 553 589
693 3 2 1 1 778 964 963 777
694 3 2 1 1 779 1075 813 562
695 3 2 1 1 1202 1371 1268 867
696 3 2 1 1 815 1042 780 563
697 3 2 1 1 1268 1454 1408 1223
698 3 2 1 1 1439 1440 1205 1270
699 3 2 1 1 781 1074 816 565
700 3 2 1 1 814 1040 782 564
701 3 2 1 1 550 631 712 1048
702 3 2 1 1 548 847 675 500
703 3 2 1 1 1201 1367 1335 866
704 3 2 1 1 929 855 547 703
705 3 2 1 1 785 967 966 784
706 3 2 1 1 1200 1321 1322 912
707 3 2 1 1 1269 1446 1432 1383
708 3 2 1 1 546 1047 797 625
709 3 2 1 1 794 555 761 1081
710 3 2 1 1 774 1026 756 511
711 3 2 1 1 1265 1158 1312 1452
712 3 2 1 1 817 554 757 1080
713 3 2 1 1 877 1219 758 462
714 3 2 1 1 758 1219 1031 502
715 3 2 1 1 759 1220 877 462
716 3 2 1 1 952 1220 759 637
717 3 2 1 1 1208 1441 1336 880
718 3 2 1 1 1265 1452 1406 1401
719 3 2 1 1 906 1068 760 638
720 3 2 1 1 812 567 387 386
721 3 2 1 1 762 1069 1027 495
722 3 2 1 1 763 925 806 557
723 3 2 1 1 1281 1382 1207 1097
724 3 2 1 1 1059 926 764 641
725 3 2 1 1 765 1063 923 642
726 3 2 1 1 767 1028 1019 464
727 3 2 1 1 1430 1453 1266 1116
728 3 2 1 1 769 1082 768 560
729 3 2 1 1 768 1082 1029 499
730 3 2 1 1 921 1082 769 644
731 3 2 1 1 1065 1360 1088 656
734 3 2 1 1 1014 1157 1156 886
735 3 2 1 1 1113 1339 1328 1187
736 3 2 1 1 1359 1360 1065 1164
738 3 2 1 1 1365 1463 1366 1100
739 3 2 1 1 638 760 247 248
740 3 2 1 1 1066 1241 1114 658
741 3 2 1 1 247 760 463 246
742 3 2 1 1 1453 1463 1365 1266
744 3 2 1 1 463 637 245 246
746 3 2 1 1 1157 1014 1016 1161
747 3 2 1 1 244 245 637 759
748 3 2 1 1 244 759 462 243
749 3 2 1 1 590 253 254 857
751 3 2 1 1 1433 1373 1121 1096
752 3 2 1 1 1363 1453 1430 1092
753 3 2 1 1 256 257 581 682
754 3 2 1 1 1216 1361 1067 721
756 3 2 1 1 1012 1352 1192 999
757 3 2 1 1 1196 1352 1012 1013
758 3 2 1 1 1409 1470 1400 1387
759 3 2 1 1 1364 1450 1439 1270
762 3 2 1 1 1412 1417 1405 1262
763 3 2 1 1 252 253 590 690
764 3 2 1 1 252 690 446 251
767 3 2 1 1 856 504 235 236
769 3 2 1 1 350 589 238 44
770 3 2 1 1 1396 1469 1397 1288
771 3 2 1 1 237 553 856 236
773 3 2 1 1 1019 1246 1099 865
775 3 2 1 1 1114 1116 1061 658
776 3 2 1 1 553 237 238 589
779 3 2 1 1 1435 1478 1367 1102
780 3 2 1 1 504 636 234 235
781 3 2 1 1 234 636 425 42
782 3 2 1 1 1367 1478 1451 1335
783 3 2 1 1 233 635 511 232
784 3 2 1 1 294 635 233 41
785 3 2 1 1 1063 1358 1123 923
787 3 2 1 1 1366 1463 1440 1439
788 3 2 1 1 242 758 502 241
790 3 2 1 1 462 758 242 243
791 3 2 1 1 241 502 757 240
793 3 2 1 1 1120 1373 1433 1317
795 3 2 1 1 1094 1358 1063 653
796 3 2 1 1 240 757 554 239
800 3 2 1 1 239 554 405 45
805 3 2 1 1 1405 1473 1359 1262
806 3 2 1 1 1418 1360 1359 1473
807 3 2 1 1 274 765 642 273
808 3 2 1 1 450 765 274 275
809 3 2 1 1 1474 1485 1408 1454
810 3 2 1 1 1408 1485 1472 1255
812 3 2 1 1 1123 1358 1345 1346
813 3 2 1 1 273 642 559 272
816 3 2 1 1 272 559 313 46
818 3 2 1 1 1123 1346 1172 968
820 3 2 1 1 279 767 464 278
823 3 2 1 1 560 768 281 282
824 3 2 1 1 281 768 499 280
825 3 2 1 1 1364 1461 1357 1099
826 3 2 1 1 1357 1461 1431 1094
827 3 2 1 1 499 767 279 280
828 3 2 1 1 1112 1424 1324 916
832 3 2 1 1 1326 1424 1112 1370
833 3 2 1 1 1006 1349 1190 993
834 3 2 1 1 277 766 643 276
835 3 2 1 1 464 766 277 278
837 3 2 1 1 276 643 450 275
838 3 2 1 1 1167 1362 1068 906
839 3 2 1 1 1069 1231 1230 1027
840 3 2 1 1 313 639 264 46
841 3 2 1 1 1062 1108 1011 844
843 3 2 1 1 263 556 505 262
844 3 2 1 1 1361 1216 1422 1402
845 3 2 1 1 1420 1477 1362 1167
846 3 2 1 1 505 762 261 262
847 3 2 1 1 264 639 556 263
848 3 2 1 1 261 762 495 260
849 3 2 1 1 1362 1477 1436 1115
851 3 2 1 1 259 761 555 258
852 3 2 1 1 1068 1362 1115 665
853 3 2 1 1 495 761 259 260
854 3 2 1 1 1157 1161 1011 1108
855 3 2 1 1 258 555 350 44
857 3 2 1 1 558 641 270 271
858 3 2 1 1 1194 1353 1008 1010
859 3 2 1 1 641 764 269 270
860 3 2 1 1 269 764 496 268
861 3 2 1 1 1401 1406 1361 1402
862 3 2 1 1 1008 1353 1306 1107
863 3 2 1 1 496 640 267 268
864 3 2 1 1 1122 1435 1344 1238
865 3 2 1 1 1099 1357 1060 865
866 3 2 1 1 1415 1471 1407 1416
867 3 2 1 1 640 763 266 267
868 3 2 1 1 266 763 557 265
871 3 2 1 1 265 557 370 47
873 3 2 1 1 620 709 176 177
874 3 2 1 1 1318 1430 1116 1114
875 3 2 1 1 1028 1354 1246 1019
876 3 2 1 1 448 710 207 208
877 3 2 1 1 1119 1372 1356 1247
878 3 2 1 1 1380 1242 1384 1465
879 3 2 1 1 1119 1247 1049 876
880 3 2 1 1 508 627 204 205
881 3 2 1 1 176 709 586 175
882 3 2 1 1 1232 1354 1028 1029
883 3 2 1 1 1311 1250 1048 1101
884 3 2 1 1 547 202 203 587
885 3 2 1 1 406 587 203 37
886 3 2 1 1 1168 1109 1030 929
887 3 2 1 1 178 622 371 34
888 3 2 1 1 179 542 622 178
889 3 2 1 1 472 746 180 181
890 3 2 1 1 180 746 542 179
891 3 2 1 1 455 745 171 172
892 3 2 1 1 214 630 549 213
893 3 2 1 1 1471 1484 1390 1253
894 3 2 1 1 371 509 168 34
895 3 2 1 1 213 549 294 41
896 3 2 1 1 1121 1233 1051 657
897 3 2 1 1 169 541 426 35
898 3 2 1 1 170 621 541 169
899 3 2 1 1 1222 1279 1050 853
900 3 2 1 1 1400 1470 1389 1254
901 3 2 1 1 212 629 548 211
902 3 2 1 1 445 629 212 40
903 3 2 1 1 171 745 621 170
904 3 2 1 1 211 548 500 210
905 3 2 1 1 1027 1230 1239 1081
906 3 2 1 1 1472 1484 1389 1470
907 3 2 1 1 455 172 173 696
908 3 2 1 1 1389 1484 1471 1415
909 3 2 1 1 1432 1465 1384 1383
910 3 2 1 1 1213 1244 1032 928
911 3 2 1 1 627 751 197 198
912 3 2 1 1 197 751 466 196
913 3 2 1 1 187 624 545 186
914 3 2 1 1 188 625 351 36
915 3 2 1 1 195 750 626 194
916 3 2 1 1 466 750 195 196
917 3 2 1 1 546 625 188 189
918 3 2 1 1 426 624 187 35
919 3 2 1 1 503 546 189 190
920 3 2 1 1 1037 1355 1240 1038
921 3 2 1 1 626 749 193 194
922 3 2 1 1 193 749 454 192
923 3 2 1 1 454 748 191 192
924 3 2 1 1 1118 1348 1191 996
925 3 2 1 1 191 748 503 190
926 3 2 1 1 1092 1355 1037 874
927 3 2 1 1 1031 1384 1242 1080
928 3 2 1 1 1117 1371 1202 1026
929 3 2 1 1 547 855 201 202
930 3 2 1 1 855 501 200 201
931 3 2 1 1 200 501 628 199
932 3 2 1 1 182 747 472 181
933 3 2 1 1 623 747 182 183
934 3 2 1 1 1410 1395 1388 1469
935 3 2 1 1 543 623 183 184
936 3 2 1 1 1472 1485 1390 1484
937 3 2 1 1 1045 1317 1124 1046
938 3 2 1 1 199 628 314 39
939 3 2 1 1 351 543 184 36
940 3 2 1 1 1120 1317 1045 878
941 3 2 1 1 185 544 406 37
942 3 2 1 1 186 545 544 185
943 3 2 1 1 204 627 198 38
946 3 2 1 1 1207 1235 1058 659
947 3 2 1 1 1021 1316 1122 879
950 3 2 1 1 226 754 633 225
951 3 2 1 1 1393 1482 1481 1480
952 3 2 1 1 453 754 226 227
953 3 2 1 1 228 634 453 227
955 3 2 1 1 1437 1482 1393 1372
958 3 2 1 1 1393 1480 1428 1267
959 3 2 1 1 150 620 177 33
960 3 2 1 1 540 620 150 151
961 3 2 1 1 506 224 225 633
962 3 2 1 1 1394 1482 1437 1375
963 3 2 1 1 1049 1247 1020 851
964 3 2 1 1 1369 1448 1368 1103
967 3 2 1 1 511 756 231 232
968 3 2 1 1 231 756 494 230
969 3 2 1 1 1368 1448 1373 1120
970 3 2 1 1 1481 1482 1394 1429
971 3 2 1 1 1371 1462 1454 1268
972 3 2 1 1 229 755 634 228
973 3 2 1 1 494 755 229 230
975 3 2 1 1 1060 1357 1094 653
978 3 2 1 1 1059 1243 1097 926
979 3 2 1 1 162 447 584 161
980 3 2 1 1 220 551 445 40
981 3 2 1 1 461 159 160 685
982 3 2 1 1 314 631 219 39
983 3 2 1 1 631 550 218 219
984 3 2 1 1 584 685 160 161
985 3 2 1 1 1153 1245 1053 873
986 3 2 1 1 1174 1210 1025 972
987 3 2 1 1 550 753 217 218
988 3 2 1 1 1454 1462 1391 1474
989 3 2 1 1 163 689 447 162
990 3 2 1 1 163 164 585 689
991 3 2 1 1 217 753 473 216
992 3 2 1 1 1390 1485 1474 1314
993 3 2 1 1 1218 1368 1120 878
994 3 2 1 1 164 165 854 585
995 3 2 1 1 215 752 630 214
996 3 2 1 1 473 752 215 216
997 3 2 1 1 1055 1356 1267 1204
998 3 2 1 1 1057 1223 1085 649
999 3 2 1 1 1122 1238 1056 879
1000 3 2 1 1 223 224 506 581
1001 3 2 1 1 223 581 257 43
1002 3 2 1 1 1115 1436 1340 1278
1003 3 2 1 1 582 694 153 154
1004 3 2 1 1 1392 1479 1444 1434
1005 3 2 1 1 222 632 552 221
1006 3 2 1 1 1195 1349 1006 1007
1007 3 2 1 1 425 632 222 42
1008 3 2 1 1 1247 1356 1055 1020
1009 3 2 1 1 221 552 551 220
1010 3 2 1 1 583 695 156 157
1011 3 2 1 1 1428 1480 1392 1334
1012 3 2 1 1 158 159 461 708
1013 3 2 1 1 583 157 158 708
1015 3 2 1 1 1465 1432 1095 1276
1016 3 2 1 1 786 968 311 312
1017 3 2 1 1 311 970 788 312
1018 3 2 1 1 1445 1447 1446 1269
1019 3 2 1 1 986 1237 1083 812
1020 3 2 1 1 1070 1237 986 810
1021 3 2 1 1 559 786 312 313
1024 3 2 1 1 312 788 639 313
1025 3 2 1 1 1096 889 1151 1386
1027 3 2 1 1 1096 1386 1385 1433
1028 3 2 1 1 985 1241 1066 807
1029 3 2 1 1 1432 1446 1341 1095
1031 3 2 1 1 1107 1263 1150 872
1032 3 2 1 1 314 628 711 315
1033 3 2 1 1 315 712 631 314
1036 3 2 1 1 1340 1447 1445 1278
1037 3 2 1 1 1038 1240 983 805
1038 3 2 1 1 567 333 50 387
1039 3 2 1 1 982 1225 1073 804
1040 3 2 1 1 1158 1265 318 317
1041 3 2 1 1 318 1291 1159 317
1042 3 2 1 1 1339 1459 1427 1328
1043 3 2 1 1 50 332 510 387
1045 3 2 1 1 1439 1450 1443 1366
1046 3 2 1 1 305 781 565 304
1047 3 2 1 1 1342 1462 1371 1117
1050 3 2 1 1 1094 1431 1345 1358
1051 3 2 1 1 992 1243 1059 818
1052 3 2 1 1 1440 1463 1453 1363
1054 3 2 1 1 782 598 306 305
1055 3 2 1 1 1080 1242 991 817
1056 3 2 1 1 522 783 308 307
1057 3 2 1 1 308 785 596 307
1059 3 2 1 1 45 405 558 271
1060 3 2 1 1 783 965 309 308
1061 3 2 1 1 309 967 785 308
1063 3 2 1 1 1108 1310 1156 1157
1065 3 2 1 1 987 908 1136 1184
1066 3 2 1 1 965 1171 310 309
1067 3 2 1 1 310 1172 967 309
1069 3 2 1 1 968 1172 310 311
1070 3 2 1 1 283 560 282 48
1074 3 2 1 1 972 1025 1079 790
1075 3 2 1 1 1081 1239 976 794
1076 3 2 1 1 975 1176 1111 915
1077 3 2 1 1 975 915 1071 793
1078 3 2 1 1 1459 1275 1476 1458
1081 3 2 1 1 1451 1311 1101 1264
1082 3 2 1 1 1078 1052 974 792
1083 3 2 1 1 1036 1035 973 791
1084 3 2 1 1 388 566 332 50
1085 3 2 1 1 1102 1367 1201 1024
1086 3 2 1 1 897 692 10 666
1087 3 2 1 1 1344 1435 1102 963
1089 3 2 1 1 1285 1403 327 326
1091 3 2 1 1 1480 1481 1479 1392
1092 3 2 1 1 334 333 567 789
1093 3 2 1 1 1180 1369 1103 978
1094 3 2 1 1 1083 1251 971 789
1095 3 2 1 1 1103 1368 1218 1054
1096 3 2 1 1 334 789 971 335
1099 3 2 1 1 335 971 1174 336
1101 3 2 1 1 336 1174 972 337
1103 3 2 1 1 969 1347 1229 893
1104 3 2 1 1 1422 1320 322 321
1106 3 2 1 1 1425 1457 1338 1323
1107 3 2 1 1 981 1227 1077 799
1108 3 2 1 1 1321 1319 320 321
1110 3 2 1 1 1106 1296 1386 1151
1111 3 2 1 1 1198 1334 1098 1018
1112 3 2 1 1 885 700 26 661
1113 3 2 1 1 1464 1483 1456 1282
1114 3 2 1 1 1322 1321 321 322
1115 3 2 1 1 1402 1422 321 320
1118 3 2 1 1 1047 1211 979 797
1119 3 2 1 1 310 1171 970 311
1120 3 2 1 1 323 322 1320 1419
1121 3 2 1 1 1322 322 323 1423
1122 3 2 1 1 1392 1434 1098 1334
1123 3 2 1 1 719 720 25 516
1126 3 2 1 1 1431 1461 1337 1374
1127 3 2 1 1 978 1103 1054 796
1128 3 2 1 1 1337 1461 1364 1270
1130 3 2 1 1 1197 1365 1100 1017
1133 3 2 1 1 326 327 1404 1286
1134 3 2 1 1 959 1169 297 296
1135 3 2 1 1 1418 1468 1088 1360
1137 3 2 1 1 293 561 772 292
1138 3 2 1 1 1000 1351 1350 1179
1139 3 2 1 1 1193 1351 1000 1001
1140 3 2 1 1 549 773 295 294
1141 3 2 1 1 295 775 635 294
1142 3 2 1 1 1125 1374 1199 1023
1144 3 2 1 1 1110 1290 1319 910
1146 3 2 1 1 773 959 296 295
1147 3 2 1 1 296 961 775 295
1151 3 2 1 1 297 1170 961 296
1152 3 2 1 1 962 1170 297 298
1153 3 2 1 1 297 1169 964 298
1155 3 2 1 1 997 1349 1195 1009
1156 3 2 1 1 776 962 298 299
1157 3 2 1 1 298 964 778 299
1159 3 2 1 1 1190 1349 997 998
1160 3 2 1 1 1479 1481 1429 1333
1161 3 2 1 1 530 776 299 300
1162 3 2 1 1 299 778 603 300
1167 3 2 1 1 1053 1245 1005 834
1169 3 2 1 1 284 769 560 283
1170 3 2 1 1 644 769 284 285
1171 3 2 1 1 1003 1352 1196 1015
1172 3 2 1 1 467 644 285 286
1173 3 2 1 1 1192 1352 1003 1004
1174 3 2 1 1 1124 1385 1248 944
1175 3 2 1 1 451 770 287 288
1177 3 2 1 1 287 770 467 286
1179 3 2 1 1 1179 1370 1112 888
1182 3 2 1 1 526 781 305 306
1183 3 2 1 1 289 771 451 288
1184 3 2 1 1 1323 1338 1111 1176
1185 3 2 1 1 645 771 289 290
1187 3 2 1 1 497 645 290 291
1190 3 2 1 1 1032 1244 1002 831
1192 3 2 1 1 1110 866 1335 1414
1194 3 2 1 1 772 497 291 292
1195 3 2 1 1 1345 1431 1374 1125
1197 3 2 1 1 370 561 293 47
1198 3 2 1 1 303 562 394 49
1200 3 2 1 1 780 599 301 302
1201 3 2 1 1 528 779 302 301
1202 3 2 1 1 302 779 562 303
1204 3 2 1 1 302 303 563 780
1205 3 2 1 1 1092 1430 1318 1355
1206 3 2 1 1 1109 1312 1158 941
1207 3 2 1 1 1391 1462 1342 1272
1211 3 2 1 1 1091 1310 1108 1062
1212 3 2 1 1 395 563 303 49
1215 3 2 1 1 1093 1280 1118 875
1216 3 2 1 1 1093 1067 1361 1406
1217 3 2 1 1 394 564 304 49
1218 3 2 1 1 304 565 395 49
1221 3 2 1 1 1452 1280 1093 1406
1223 3 2 1 1 305 304 564 782
1227 3 2 1 1 1091 1429 1394 1310
1228 3 2 1 1 1333 1429 1091 862
1230 3 2 1 1 1206 1363 1092 874
1231 3 2 1 1 1191 1348 994 995
1232 3 2 1 1 498 540 151 152
1233 3 2 1 1 944 1248 374 373
1234 3 2 1 1 1141 943 373 374
1235 3 2 1 1 153 694 498 152
1236 3 2 1 1 372 713 944 373
1237 3 2 1 1 943 691 372 373
1238 3 2 1 1 206 588 508 205
1239 3 2 1 1 1159 942 316 317
1240 3 2 1 1 315 711 941 316
1241 3 2 1 1 207 710 588 206
1242 3 2 1 1 942 712 315 316
1243 3 2 1 1 941 1158 317 316
1244 3 2 1 1 1160 1327 375 376
1245 3 2 1 1 1106 945 377 376
1246 3 2 1 1 500 697 209 210
1247 3 2 1 1 175 586 469 174
1248 3 2 1 1 376 375 1296 1106
1249 3 2 1 1 209 697 448 208
1250 3 2 1 1 469 696 173 174
1251 3 2 1 1 449 582 154 155
1252 3 2 1 1 318 1265 1401 319
1253 3 2 1 1 1290 1291 318 319
1254 3 2 1 1 1319 1290 319 320
1255 3 2 1 1 156 695 449 155
1256 3 2 1 1 1401 1402 320 319
1257 3 2 1 1 377 937 1160 376
1258 3 2 1 1 447 651 935 584
1259 3 2 1 1 1284 1398 1399 1105
1260 3 2 1 1 1258 868 935 1105
1261 3 2 1 1 685 584 935 868
1262 3 2 1 1 935 651 1284 1105
1263 3 2 1 1 685 868 1252 461
1264 3 2 1 1 1258 1466 1252 868
1265 3 2 1 1 686 507 249 250
1266 3 2 1 1 507 638 248 249
1267 3 2 1 1 326 1286 1132 325
1268 3 2 1 1 324 323 1419 1292
1269 3 2 1 1 1411 1468 1261 1466
1270 3 2 1 1 1411 1466 1258 1308
1271 3 2 1 1 324 1292 1131 325
1272 3 2 1 1 1132 1293 324 325
1273 3 2 1 1 251 446 686 250
1274 3 2 1 1 1105 1399 1308 1258
1275 3 2 1 1 324 1293 1423 323
1276 3 2 1 1 1089 1315 1411 1308
1277 3 2 1 1 1088 1468 1411 1315
1278 3 2 1 1 1131 1285 326 325
1279 3 2 1 1 683 905 1140 940
1280 3 2 1 1 894 330 331 688
1281 3 2 1 1 932 1129 894 688
1282 3 2 1 1 1130 1287 1396 860
1283 3 2 1 1 895 687 331 330
1284 3 2 1 1 691 896 684 509
1285 3 2 1 1 1141 1327 1467 1256
1286 3 2 1 1 1130 468 684 896
1287 3 2 1 1 510 687 933 701
1288 3 2 1 1 943 1141 1256 1104
1289 3 2 1 1 1256 1410 1287 1104
1290 3 2 1 1 860 854 468 1130
1291 3 2 1 1 1467 1395 1410 1256
1292 3 2 1 1 691 943 1104 896
1293 3 2 1 1 566 702 932 688
1294 3 2 1 1 1140 1387 936 940
1295 3 2 1 1 166 468 854 165
1296 3 2 1 1 168 509 684 167
1297 3 2 1 1 938 701 933 957
1298 3 2 1 1 1327 1160 1289 1467
1299 3 2 1 1 1289 1259 1395 1467
1300 3 2 1 1 1249 1128 1295 913
1301 3 2 1 1 1127 904 1294 1133
1302 3 2 1 1 687 510 332 331
1303 3 2 1 1 256 682 465 255
1304 3 2 1 1 934 673 957 933
1305 3 2 1 1 332 566 688 331
1306 3 2 1 1 1130 896 1104 1287
1307 3 2 1 1 1403 1142 913 1295
1308 3 2 1 1 702 898 1137 932
1309 3 2 1 1 465 857 254 255
1310 3 2 1 1 682 683 940 465
1311 3 2 1 1 897 666 1127 1129
1312 3 2 1 1 330 894 1133 329
1313 3 2 1 1 1128 895 330 329
1314 3 2 1 1 1294 328 329 1133
1315 3 2 1 1 1404 327 328 1294
1316 3 2 1 1 328 327 1403 1295
1317 3 2 1 1 1136 692 897 1137
1318 3 2 1 1 936 857 465 940
1319 3 2 1 1 166 167 684 468
1320 3 2 1 1 904 1165 1404 1294
1321 3 2 1 1 1137 898 1184 1136
1322 3 2 1 1 933 687 895 934
1323 3 2 1 1 1129 932 1137 897
1324 3 2 1 1 1133 894 1129 1127
1325 3 2 1 1 329 328 1295 1128
1326 3 2 1 1 1128 1249 934 895
1327 3 2 1 1 392 988 814 393
1328 3 2 1 1 814 988 1039 1040
1329 3 2 1 1 918 1126 671 475
1330 3 2 1 1 568 388 50 333
1331 3 2 1 1 336 337 973 1173
1332 3 2 1 1 988 392 391 1185
1333 3 2 1 1 973 1035 1022 1173
1334 3 2 1 1 918 1039 988 1185
1335 3 2 1 1 930 858 568 670
1336 3 2 1 1 1126 918 1185 917
1337 3 2 1 1 931 1126 930 914
1338 3 2 1 1 1173 1022 931 914
1339 3 2 1 1 389 858 917 390
1340 3 2 1 1 1173 914 335 336
1341 3 2 1 1 390 917 1185 391
1342 3 2 1 1 914 670 334 335
1343 3 2 1 1 917 858 930 1126
1344 3 2 1 1 388 568 858 389
1345 3 2 1 1 670 568 333 334
1347 3 2 1 1 1515 1551 1539 1516
1348 3 2 1 1 1536 1551 1515 1514
1349 3 2 1 1 1519 1536 1514 1486
1350 3 2 1 1 1549 1533 1513 1512
1351 3 2 1 1 1520 1534 1513 1486
1352 3 2 1 1 1513 1533 1519 1486
1353 3 2 1 1 1512 1550 1542 1511
1354 3 2 1 1 1534 1550 1512 1513
1355 3 2 1 1 1511 1532 1549 1512
1356 3 2 1 1 1552 1524 1517 1518
1365 3 2 1 1 1531 1556 1530 1541
1366 3 2 1 1 1553 1555 1551 1536
1367 3 2 1 1 1554 1556 1550 1534
1368 3 2 1 1 1545 1524 1552 1558
1369 3 2 1 1 1548 1523 1545 1558
1370 3 2 1 1 1558 1552 1533 1549
1371 3 2 1 1 1532 1548 1558 1549
1372 3 2 1 1 1531 1542 1550 1556
1373 3 2 1 1 1530 1556 1554 1540
1375 3 2 1 1 1526 1539 1551 1555
1376 3 2 1 1 1525 1555 1553 1537
1377 3 2 1 1 1526 1555 1525 1538
1378 3 2 1 1 1522 1540 1554 1521
1379 3 2 1 1 1554 1534 1520 1521
1380 3 2 1 1 1553 1536 1519 1518
1381 3 2 1 1 1533 1552 1518 1519
1382 3 2 1 1 1517 1537 1553 1518
1401 3 2 1 1 1543 1527 1546 1557
1402 3 2 1 1 1546 1528 1547 1557
1403 3 2 1 1 1515 1516 1527 1543
1404 3 2 1 1 1514 1515 1543 1535
1405 3 2 1 1 1520 1535 1544 1521
1406 3 2 1 1 1529 1522 1521 1544
1407 3 2 1 1 1535 1520 1486 1514
1408 3 2 1 1 1543 1557 1544 1535
1409 3 2 1 1 1557 1547 1529 1544
1411 3 2 1 1 1630 1620 1610 1602
1415 3 2 1 1 1614 1628 1609 1601
1416 3 2 1 1 1625 1628 1608 1592
1417 3 2 1 1 1606 1600 1615 1595
1421 3 2 1 1 1603 1597 1617 1593
1423 3 2 1 1 1602 1593 1617 1630
1424 3 2 1 1 1600 1607 1616 1615
1426 3 2 1 1 1609 1628 1625 1621
1427 3 2 1 1 1597 1604 1618 1617
1428 3 2 1 1 1628 1614 1596 1608
1431 3 2 1 1 1595 1615 1627 1605
1432 3 2 1 1 1592 1610 1620 1625
1433 3 2 1 1 1590 1618 1604 1591
1434 3 2 1 1 1590 1591 1598 1619
1435 3 2 1 1 1586 1585 1601 1609
1436 3 2 1 1 1586 1616 1607 1585
1437 3 2 1 1 1632 1624 1589 1588
1438 3 2 1 1 1609 1621 1587 1586
1439 3 2 1 1 1589 1624 1618 1590
1440 3 2 1 1 1621 1632 1588 1587
1446 3 2 1 1 1630 1624 1632 1620
1450 3 2 1 1 1620 1632 1621 1625
1455 3 2 1 1 1618 1624 1630 1617
1461 3 2 1 1 1611 1629 1619 1598
1462 3 2 1 1 1612 1629 1611 1599
1463 3 2 1 1 1626 1629 1612 1594
1464 3 2 1 1 1619 1629 1626 1623
1465 3 2 1 1 1587 1622 1616 1586
1466 3 2 1 1 1619 1623 1589 1590
1467 3 2 1 1 1616 1622 1627 1615
1468 3 2 1 1 1622 1587 1588 1633
1469 3 2 1 1 1613 1631 1626 1594
1470 3 2 1 1 1627 1631 1613 1605
1471 3 2 1 1 1631 1627 1622 1633
1472 3 2 1 1 1623 1626 1631 1633
1473 3 2 1 1 1633 1588 1589 1623
1474 3 2 1 1 1673 1674 1681 1699
1475 3 2 1 1 1683 1701 1660 1659
1476 3 2 1 1 1702 1692 1659 1660
1477 3 2 1 1 1672 1683 1659 1634
1478 3 2 1 1 1659 1692 1671 1634
1479 3 2 1 1 1658 1679 1672 1634
1480 3 2 1 1 1671 1677 1658 1634
1481 3 2 1 1 1679 1678 1673 1672
1483 3 2 1 1 1693 1702 1660 1661
1485 3 2 1 1 1683 1672 1673 1699
1488 3 2 1 1 1678 1680 1674 1673
1492 3 2 1 1 1669 1676 1675 1670
1493 3 2 1 1 1684 1697 1667 1666
1494 3 2 1 1 1685 1695 1667 1668
1495 3 2 1 1 1667 1695 1686 1666
1496 3 2 1 1 1664 1696 1693 1665
1497 3 2 1 1 1688 1687 1664 1665
1499 3 2 1 1 1696 1664 1663 1690
1500 3 2 1 1 1668 1667 1697 1694
1502 3 2 1 1 1687 1689 1663 1664
1503 3 2 1 1 1669 1670 1698 1691
1504 3 2 1 1 1662 1688 1665 1635
1505 3 2 1 1 1701 1684 1661 1660
1506 3 2 1 1 1670 1675 1677 1671
1507 3 2 1 1 1692 1698 1670 1671
1508 3 2 1 1 1661 1684 1666 1635
1509 3 2 1 1 1665 1693 1661 1635
1514 3 2 1 1 1693 1696 1703 1702
1516 3 2 1 1 1696 1690 1700 1703
1519 3 2 1 1 1692 1702 1703 1698
1521 3 2 1 1 1700 1691 1698 1703
1526 3 2 1 1 1635 1666 1686 1662
1528 3 2 1 1 1682 1694 1697 1704
1529 3 2 1 1 1683 1699 1704 1701
1532 3 2 1 1 1684 1701 1704 1697
1537 3 2 1 1 1699 1681 1682 1704
1538 3 2 1 1 1755 1769 1773 1771
1539 3 2 1 1 1762 1752 1731 1732
1540 3 2 1 1 1746 1747 1742 1741
1541 3 2 1 1 1768 1774 1749 1756
1542 3 2 1 1 1730 1764 1757 1731
1543 3 2 1 1 1730 1731 1752 1763
1544 3 2 1 1 1764 1730 1729 1754
1545 3 2 1 1 1763 1753 1729 1730
1546 3 2 1 1 1749 1774 1770 1748
1548 3 2 1 1 1731 1757 1765 1732
1552 3 2 1 1 1757 1764 1773 1775
1557 3 2 1 1 1746 1741 1740 1760
1558 3 2 1 1 1738 1737 1743 1759
1559 3 2 1 1 1736 1737 1769 1755
1560 3 2 1 1 1769 1737 1738 1758
1561 3 2 1 1 1738 1739 1772 1758
1562 3 2 1 1 1736 1744 1743 1737
1563 3 2 1 1 1735 1734 1768 1756
1564 3 2 1 1 1759 1745 1739 1738
1565 3 2 1 1 1739 1745 1760 1740
1566 3 2 1 1 1757 1775 1776 1765
1567 3 2 1 1 1734 1761 1751 1733
1568 3 2 1 1 1750 1761 1734 1735
1569 3 2 1 1 1768 1734 1733 1767
1570 3 2 1 1 1772 1739 1740 1766
1571 3 2 1 1 1732 1765 1767 1733
1572 3 2 1 1 1741 1742 1748 1770
1573 3 2 1 1 1766 1740 1741 1770
1574 3 2 1 1 1732 1733 1751 1762
1578 3 2 1 1 1766 1770 1774 1777
1580 3 2 1 1 1766 1777 1776 1772
1581 3 2 1 1 1777 1774 1768 1767
1585 3 2 1 1 1775 1773 1769 1758
1597 3 2 1 1 1771 1773 1764 1754
1598 3 2 1 1 1758 1772 1776 1775
1600 3 2 1 1 1777 1767 1765 1776
732 3 2 1 1 438 611 1849 24
733 3 2 1 1 1849 611 512 15
737 3 2 1 1 457 612 1851 1850
743 3 2 1 1 1852 742 459 1853
745 3 2 1 1 612 742 1852 1851
750 3 2 1 1 536 741 1843 1842
755 3 2 1 1 1845 515 418 23
760 3 2 1 1 418 609 1846 23
761 3 2 1 1 1846 609 537 1847
765 3 2 1 1 1848 610 438 24
766 3 2 1 1 537 610 1848 1847
768 3 2 1 1 538 614 1860 1859
772 3 2 1 1 413 615 1861 28
774 3 2 1 1 1861 615 518 29
777 3 2 1 1 1862 743 471 1863
778 3 2 1 1 594 743 1862 29
786 3 2 1 1 1854 1853 459 593
789 3 2 1 1 458 1856 1855 693
792 3 2 1 1 1855 1854 593 693
794 3 2 1 1 1843 741 491 1844
797 3 2 1 1 1857 517 433 27
798 3 2 1 1 433 613 1858 27
799 3 2 1 1 1858 613 538 1859
801 3 2 1 1 1860 614 413 28
802 3 2 1 1 1834 513 439 18
803 3 2 1 1 1832 739 489 1833
804 3 2 1 1 533 739 1832 1831
811 3 2 1 1 357 533 1831 16
814 3 2 1 1 439 605 1835 18
815 3 2 1 1 1835 605 534 1836
817 3 2 1 1 1837 606 419 19
819 3 2 1 1 534 606 1837 1836
821 3 2 1 1 531 737 1827 1826
822 3 2 1 1 488 604 1828 15
829 3 2 1 1 419 607 1838 19
830 3 2 1 1 1829 738 532 1830
831 3 2 1 1 604 738 1829 1828
836 3 2 1 1 1830 532 357 16
842 3 2 1 1 1841 535 358 21
850 3 2 1 1 358 536 1842 21
856 3 2 1 1 1838 607 514 20
869 3 2 1 1 490 608 1839 20
870 3 2 1 1 1840 740 535 1841
872 3 2 1 1 608 740 1840 1839
944 3 2 1 1 1872 618 432 32
945 3 2 1 1 1869 519 412 31
948 3 2 1 1 412 617 1870 31
949 3 2 1 1 1870 617 539 1871
954 3 2 1 1 539 618 1872 1871
956 3 2 1 1 432 619 1873 32
957 3 2 1 1 1873 619 516 25
965 3 2 1 1 471 707 1864 1863
966 3 2 1 1 493 1865 1864 707
974 3 2 1 1 1866 1865 493 616
976 3 2 1 1 1867 744 492 1868
977 3 2 1 1 616 744 1867 1866
1014 3 2 1 1 520 595 1780 1779
1022 3 2 1 1 521 723 1782 1781
1023 3 2 1 1 1782 723 476 1783
1026 3 2 1 1 363 521 1781 2
1030 3 2 1 1 1780 595 363 2
1034 3 2 1 1 1778 722 520 1779
1035 3 2 1 1 474 722 1778 1
1044 3 2 1 1 523 725 1789 1788
1048 3 2 1 1 524 597 1792 1791
1049 3 2 1 1 1792 597 364 6
1053 3 2 1 1 1790 726 524 1791
1058 3 2 1 1 479 726 1790 5
1062 3 2 1 1 1789 725 478 5
1064 3 2 1 1 1787 596 523 1788
1068 3 2 1 1 307 596 1787 4
1071 3 2 1 1 1786 522 307 4
1072 3 2 1 1 1785 724 522 1786
1073 3 2 1 1 477 724 1785 1784
1079 3 2 1 1 13 716 487 1822
1080 3 2 1 1 460 646 13 1821
1088 3 2 1 1 485 1809 10 692
1090 3 2 1 1 10 1808 484 666
1097 3 2 1 1 7 715 481 1796
1098 3 2 1 1 480 664 7 1795
1100 3 2 1 1 3 663 477 1784
1102 3 2 1 1 476 714 3 1783
1105 3 2 1 1 30 662 519 1869
1109 3 2 1 1 492 721 30 1868
1116 3 2 1 1 26 700 517 1857
1117 3 2 1 1 26 1856 458 661
1124 3 2 1 1 25 720 457 1850
1125 3 2 1 1 22 718 515 1845
1129 3 2 1 1 491 668 22 1844
1131 3 2 1 1 17 648 513 1834
1132 3 2 1 1 489 717 17 1833
1136 3 2 1 1 529 733 1814 1813
1143 3 2 1 1 1814 733 486 12
1145 3 2 1 1 1812 599 529 1813
1148 3 2 1 1 301 599 1812 11
1149 3 2 1 1 1811 528 301 11
1150 3 2 1 1 452 600 1815 12
1154 3 2 1 1 1810 732 528 1811
1158 3 2 1 1 485 732 1810 1809
1163 3 2 1 1 592 731 1807 1806
1164 3 2 1 1 1807 731 484 1808
1165 3 2 1 1 1806 1805 470 592
1166 3 2 1 1 487 736 1823 1822
1168 3 2 1 1 1827 737 483 9
1176 3 2 1 1 1825 603 531 1826
1178 3 2 1 1 300 603 1825 14
1180 3 2 1 1 1824 530 300 14
1181 3 2 1 1 1823 736 530 1824
1186 3 2 1 1 602 735 1820 1819
1188 3 2 1 1 1820 735 460 1821
1189 3 2 1 1 601 602 1819 1818
1191 3 2 1 1 456 601 1818 1817
1193 3 2 1 1 600 734 1816 1815
1196 3 2 1 1 1816 734 456 1817
1199 3 2 1 1 527 729 1801 1800
1203 3 2 1 1 1801 729 475 1
1208 3 2 1 1 1799 598 527 1800
1209 3 2 1 1 306 598 1799 8
1210 3 2 1 1 1798 526 306 8
1213 3 2 1 1 1797 728 526 1798
1214 3 2 1 1 481 728 1797 1796
1219 3 2 1 1 525 727 1794 1793
1220 3 2 1 1 1794 727 480 1795
1222 3 2 1 1 364 525 1793 6
1224 3 2 1 1 1802 730 591 1803
1225 3 2 1 1 482 730 1802 9
1226 3 2 1 1 591 706 1804 1803
1229 3 2 1 1 470 1805 1804 706
1346 3 2 1 1 1800 1548 1532 1799
1357 3 2 1 1 1523 1548 1800 1801
1358 3 2 1 1 1799 1532 1511 8
1359 3 2 1 1 1511 1542 1798 8
1360 3 2 1 1 1542 1531 1797 1798
1361 3 2 1 1 1531 1541 1796 1797
1362 3 2 1 1 1795 1541 1530 1794
1363 3 2 1 1 1796 1541 1795 7
1364 3 2 1 1 1794 1530 1540 1793
1374 3 2 1 1 1527 1516 4 1787
1383 3 2 1 1 1778 1523 1801 1
1384 3 2 1 1 6 1522 1529 1792
1385 3 2 1 1 1516 1539 1786 4
1386 3 2 1 1 2 1517 1524 1780
1387 3 2 1 1 1790 1528 1789 5
1388 3 2 1 1 1781 1537 1517 2
1389 3 2 1 1 1539 1526 1785 1786
1390 3 2 1 1 1782 1525 1537 1781
1391 3 2 1 1 1545 1779 1780 1524
1392 3 2 1 1 1791 1547 1528 1790
1393 3 2 1 1 1784 1538 1783 3
1394 3 2 1 1 1526 1538 1784 1785
1395 3 2 1 1 1783 1538 1525 1782
1396 3 2 1 1 1547 1791 1792 1529
1397 3 2 1 1 1779 1545 1523 1778
1398 3 2 1 1 1793 1540 1522 6
1399 3 2 1 1 1528 1546 1788 1789
1400 3 2 1 1 1788 1546 1527 1787
1410 3 2 1 1 1585 1607 1824 14
1412 3 2 1 1 1612 1816 1817 1594
1413 3 2 1 1 1818 1613 1594 1817
1414 3 2 1 1 1605 1613 1818 1819
1418 3 2 1 1 1820 1595 1605 1819
1419 3 2 1 1 1822 1606 1821 13
1420 3 2 1 1 1821 1606 1595 1820
1422 3 2 1 1 1600 1606 1822 1823
1425 3 2 1 1 1607 1600 1823 1824
1429 3 2 1 1 1596 1614 1826 1827
1430 3 2 1 1 1826 1614 1601 1825
1441 3 2 1 1 1809 1603 1808 10
1442 3 2 1 1 1601 1585 14 1825
1443 3 2 1 1 1802 1596 1827 9
1444 3 2 1 1 1598 1591 11 1812
1445 3 2 1 1 1803 1608 1596 1802
1447 3 2 1 1 1608 1803 1804 1592
1448 3 2 1 1 1805 1610 1592 1804
1449 3 2 1 1 1602 1610 1805 1806
1451 3 2 1 1 1807 1593 1602 1806
1452 3 2 1 1 1816 1612 1599 1815
1453 3 2 1 1 1808 1603 1593 1807
1454 3 2 1 1 1597 1603 1809 1810
1456 3 2 1 1 1604 1597 1810 1811
1457 3 2 1 1 1591 1604 1811 11
1458 3 2 1 1 1815 1599 1814 12
1459 3 2 1 1 1599 1611 1813 1814
1460 3 2 1 1 1813 1611 1598 1812
1482 3 2 1 1 1849 1676 1669 24
1484 3 2 1 1 1669 1691 1848 24
1486 3 2 1 1 1847 1848 1691 1700
1487 3 2 1 1 1700 1690 1846 1847
1489 3 2 1 1 1663 1689 1845 23
1490 3 2 1 1 1844 1689 1687 1843
1491 3 2 1 1 1845 1689 1844 22
1498 3 2 1 1 1681 1674 18 1835
1501 3 2 1 1 1846 1690 1663 23
1510 3 2 1 1 1832 1678 1679 1831
1511 3 2 1 1 1694 1682 1836 1837
1512 3 2 1 1 1682 1681 1835 1836
1513 3 2 1 1 1843 1687 1688 1842
1515 3 2 1 1 1674 1680 1834 18
1517 3 2 1 1 1833 1680 1678 1832
1518 3 2 1 1 1834 1680 1833 17
1520 3 2 1 1 1831 1679 1658 16
1522 3 2 1 1 1658 1677 1830 16
1523 3 2 1 1 1677 1675 1829 1830
1524 3 2 1 1 1675 1676 1828 1829
1525 3 2 1 1 1828 1676 1849 15
1527 3 2 1 1 21 1662 1686 1841
1530 3 2 1 1 1695 1840 1841 1686
1531 3 2 1 1 1840 1695 1685 1839
1533 3 2 1 1 1838 1685 1668 19
1534 3 2 1 1 1842 1688 1662 21
1535 3 2 1 1 1839 1685 1838 20
1536 3 2 1 1 1668 1694 1837 19
1547 3 2 1 1 1873 1744 1736 32
1549 3 2 1 1 1736 1755 1872 32
1550 3 2 1 1 1871 1872 1755 1771
1551 3 2 1 1 1771 1754 1870 1871
1553 3 2 1 1 1870 1754 1729 31
1554 3 2 1 1 1729 1753 1869 31
1555 3 2 1 1 1868 1753 1763 1867
1556 3 2 1 1 1869 1753 1868 30
1575 3 2 1 1 1857 1747 1856 26
1576 3 2 1 1 1735 1756 1860 28
1577 3 2 1 1 1756 1749 1859 1860
1579 3 2 1 1 1749 1748 1858 1859
1582 3 2 1 1 1742 1747 1857 27
1583 3 2 1 1 1856 1747 1746 1855
1584 3 2 1 1 1752 1866 1867 1763
1586 3 2 1 1 1854 1855 1746 1760
1587 3 2 1 1 1760 1745 1853 1854
1588 3 2 1 1 1853 1745 1759 1852
1589 3 2 1 1 1743 1851 1852 1759
1590 3 2 1 1 1748 1742 27 1858
1591 3 2 1 1 1743 1744 1850 1851
1592 3 2 1 1 1850 1744 1873 25
1593 3 2 1 1 1863 1761 1750 1862
1594 3 2 1 1 1751 1864 1865 1762
1595 3 2 1 1 1761 1863 1864 1751
1596 3 2 1 1 1862 1750 1861 29
1599 3 2 1 1 1866 1752 1762 1865
1601 3 2 1 1 1861 1750 1735 28
$EndElements
