$MeshFormat
2.2 0 8
$EndMeshFormat
$Nodes
418
1 0 0 0
2 100 0 0
3 100 50 100
4 0 50 100
5 10 0 0
6 20 0 0
7 30 0 0
8 40 0 0
9 50 0 0
10 60 0 0
11 70 0 0
12 80 0 0
13 90 0 0
14 100 4.54545454545455 9.0909090909091
15 100 9.0909090909091 18.1818181818182
16 100 13.6363636363636 27.2727272727273
17 100 18.1818181818182 36.3636363636364
18 100 22.7272727272727 45.4545454545455
19 100 27.2727272727273 54.5454545454546
20 100 31.8181818181818 63.6363636363637
21 100 36.3636363636364 72.7272727272728
22 100 40.9090909090909 81.8181818181819
23 100 45.4545454545455 90.9090909090909
24 90 50 100
25 80 50 100
26 70 50 100
27 60 50 100
28 50 50 100
29 40 50 100
30 30 50 100
31 20 50 100
32 10 50 100
33 0 45.4545454545455 90.9090909090909
34 0 40.9090909090909 81.8181818181818
35 0 36.3636363636364 72.7272727272727
36 0 31.8181818181818 63.6363636363636
37 0 27.2727272727273 54.5454545454545
38 0 22.7272727272727 45.4545454545454
39 0 18.1818181818182 36.3636363636363
40 0 13.6363636363636 27.2727272727272
41 0 9.09090909090907 18.1818181818181
42 0 4.54545454545454 9.09090909090908
43 90.3646078717605 27.234863809919 54.4697276198379
44 10.1441622397749 22.7277667663943 45.4555335327887
45 50.0496915313284 45.4952916889891 90.9905833779782
46 49.9574753429711 4.5079424879008 9.01588497580159
47 10.1376306911318 31.8338216778487 63.6676433556975
48 90.1311045630002 18.1413396329685 36.282679265937
49 30.0842131225738 45.4932489710505 90.9864979421011
50 69.9222876418632 4.49996882531753 8.99993765063505
51 10.0775224454142 9.07719034517489 18.1543806903498
52 89.9567534578826 40.922038783071 81.844077566142
53 10.0840666178294 40.93084511802 81.8616902360399
54 89.9409079988797 9.0595859746426 18.1191719492852
55 89.9746006218631 45.4662282452287 90.9324564904574
56 79.9606663783734 45.4791473325485 90.958294665097
57 20.0535979144871 4.52463573059007 9.04927146118013
58 20.07122663392 45.482937213351 90.965874426702
59 79.9360848935633 4.51063493340227 9.02126986680453
60 90.0243204689665 36.3652944563454 72.7305889126907
61 10.1079823386216 13.6225760560556 27.2451521121112
62 69.9697522041174 45.4909421975213 90.9818843950426
63 30.0427458413756 4.51629390839051 9.03258781678101
64 10.0407070682632 45.4682644445666 90.9365288891331
65 89.9653490200608 4.5278837970101 9.0557675940202
66 10.0357275782864 4.53654219882154 9.07308439764308
67 90.1897581204782 31.8055611384839 63.6111222769678
68 79.9374869997338 40.9428933559832 81.8857867119663
69 20.1182092563228 9.0615102968895 18.123020593779
70 10.1149275186437 36.3850582592169 72.7701165184337
71 89.9889171839552 13.598749473786 27.197498947572
72 10.1299046761794 18.1739725720928 36.3479451441856
73 10.1437167372309 27.2830264581338 54.5660529162676
74 40.0794001748073 45.4935763027455 90.9871526054909
75 59.9259180370678 4.50268326174974 9.00536652349948
76 60.0017616981295 45.4953152014745 90.9906304029491
77 40.008920060827 4.51379087516975 9.0275817503395
78 30.1770655105367 40.9713007786146 81.9426015572292
79 20.1432383704831 40.9516984969595 81.903396993919
80 69.8500587333838 9.00879575542768 18.0175915108554
81 79.898564851093 9.03158959573158 18.0631791914632
82 90.3123318348194 22.698997757648 45.3979955152961
83 20.2668267434526 27.3099170370023 54.6198340740045
84 49.9355515398381 9.02720527160144 18.0544105432029
85 80.5318315492155 22.6599410414617 45.3198820829233
86 50.0744577721658 40.9858641247245 81.9717282494491
87 80.560453983608 27.2220547379394 54.4441094758788
88 20.205656806595 36.4126361262582 72.8252722525164
89 20.2378790680373 18.178426126181 36.3568522523621
90 20.1812130476919 13.6154107950746 27.2308215901493
91 80.0287499144562 36.3833663387036 72.7667326774072
92 40.1461592343603 40.9796524861889 81.9593049723778
93 59.8645794517046 9.01002360890051 18.020047217801
94 79.9634315373015 13.5578537434142 27.1157074868285
95 69.9472200770843 40.9661503461737 81.9323006923475
96 30.1149332063164 9.05494256972759 18.1098851394552
97 70.5929697989367 27.1798752895172 54.3597505790345
98 49.9798326491894 13.554878495091 27.109756990182
99 70.037871384047 36.409012048559 72.818024097118
100 50.120596774685 36.4579265680549 72.9158531361097
101 30.1966834575736 13.6183288704725 27.236657740945
102 20.2427052862738 31.866631972742 63.7332639454839
103 20.2583935375289 22.7494618404754 45.4989236809507
104 60.0015432921461 40.9779923923187 81.9559847846374
105 40.0514733517251 9.04922572207367 18.0984514441473
106 80.1926741277677 18.092688743333 36.185377486666
107 30.2437159865984 36.4385649180625 72.8771298361251
108 69.917254577245 13.5213022369977 27.0426044739955
109 80.2690085275449 31.8010423010476 63.6020846020952
110 30.3252138596396 22.7726825895811 45.5453651791622
111 30.2975223290885 31.8966036505749 63.7932073011498
112 70.1876005176734 18.03705414929 36.07410829858
113 70.2950536228134 31.8089860534206 63.6179721068411
114 30.2614093678985 18.1933827318566 36.3867654637132
115 70.482927983441 22.5872301484079 45.1744602968158
116 59.9246343500126 13.5218873551672 27.0437747103345
117 40.2073159048206 36.4504163410307 72.9008326820613
118 60.0771677460928 36.4332065085067 72.8664130170135
119 40.1160585063982 13.6015926884315 27.2031853768631
120 60.4662073147465 27.1985695677225 54.3971391354451
121 50.2628279418451 31.8831109539834 63.7662219079668
122 40.2145452063941 18.1645715961439 36.3291431922878
123 60.372504769184 22.5933451056832 45.1866902113664
124 30.3230310452783 27.3382803737113 54.6765607474226
125 60.2747761825291 31.8371751934568 63.6743503869135
126 40.2912655939335 31.8992608118608 63.7985216237216
127 50.1459336712973 18.0965600638173 36.1931201276345
128 60.1397686203338 18.0536559023775 36.1073118047549
129 50.3385588583249 22.6804378445635 45.3608756891271
130 50.3699174563979 27.2794775794892 54.5589551589784
131 40.33992833781 27.327947237839 54.655894475678
132 40.3094875968586 22.7422610692827 45.4845221385654
133 100 50 100
134 0 50 100
135 100 200 300
136 0 200 300
137 90 50 100
138 80 50 100
139 70 50 100
140 60 50 100
141 50 50 100
142 40 50 100
143 30 50 100
144 20 50 100
145 10 50 100
146 100 56 108
147 100 62 116
148 100 68 124
149 100 74 132
150 100 80 140
151 100 86 148
152 100 92 156
153 100 98 164
154 100 104 172
155 100 110 180
156 100 116 188
157 100 122 196
158 100 128 204
159 100 134 212
160 100 140 220
161 100 146 228
162 100 152 236
163 100 158 244
164 100 164 252
165 100 170 260
166 100 176 268
167 100 182 276
168 100 188 284
169 100 194 292
170 90 200 300
171 80 200 300
172 70 200 300
173 60 200 300
174 50 200 300
175 40 200 300
176 30 200 300
177 20 200 300
178 10 200 300
179 0 194 292
180 0 188 284
181 0 182 276
182 0 176 268
183 0 170 260
184 0 164 252
185 0 158 244
186 0 152 236
187 0 146 228
188 0 140 220
189 0 134 212
190 0 128 204
191 0 122 196
192 0 116 188
193 0 110 180
194 0 104 172
195 0 98 164
196 0 92 156
197 0 86 148
198 0 80 140
199 0 74 132
200 0 68 124
201 0 62 116
202 0 56 108
203 90.0000057490174 85.9999951706765 147.999993560902
204 90.0818070636044 109.967528852365 179.956705136486
205 90.1027809532586 133.93147440833 211.908632544439
206 90.0000578421319 157.999697294767 243.999596393022
207 10 164 252
208 10.0011034957107 139.999953980352 219.99993864047
209 10.0135455843628 115.999440506807 187.999254009076
210 10 92 156
211 40 56 108
212 60 194 292
213 40 194 292
214 60 56 108
215 90 68 124
216 10 62 116
217 90 182 276
218 10 182 276
219 10 194 292
220 80 56 108
221 90 194 292
222 20 56 108
223 10 80 140
224 10.0001379369638 145.999994247544 227.999992330059
225 90 56 108
226 10 56 108
227 90.0000012989696 79.9999989088319 139.999998545109
228 90.0025827102791 97.9985585319439 163.998078042592
229 90.2760329965368 121.878752250665 195.838336334221
230 90.0058114079413 145.990035551727 227.986714068969
231 90.000000013004 169.99999993079 259.99999990772
232 80 194 292
233 30 194 292
234 10 170 260
235 10.0131698196967 127.999456258509 203.999275011346
236 10.0000884152156 97.9999962937171 163.99999505829
237 10 68 124
238 10.0014903122787 103.999937765365 171.999917020486
239 10.0000172421205 151.999999280943 235.999999041257
240 80.0000980041947 85.9999467779277 147.999929037237
241 20.0000007887626 163.999998896299 251.999998528398
242 20.0067166098315 139.999749547665 219.999666063553
243 20.0000110519019 91.9999995367147 155.999999382286
244 40 188 284
245 70 56 108
246 30 56 108
247 50 194 292
248 10.0000006907439 85.9999999710447 147.999999961393
249 20.0009642134671 97.9999622885379 163.99994971805
250 20.0009268644639 145.999965053232 227.999953404309
251 90 62 116
252 90.0000002204055 73.9999998148537 131.999999753138
253 90.0005323636236 91.9996856194933 155.999580825991
254 90.0229626483158 103.990358674405 171.987144899207
255 90.1971131744133 115.92338538438 187.897847179174
256 90.2140430530251 127.892154771053 203.856206361404
257 90.033001583254 139.96706844014 219.956091253521
258 90.0014210376284 151.99697077505 235.995961033399
259 90.0000085338791 163.99995561951 251.999940826014
260 90.0000000081275 175.999999956744 267.999999942325
261 90 188 284
262 70 194 292
263 10 188 284
264 10 176 268
265 10.0075803358519 133.999687632213 211.999583509617
266 10.0212217049148 121.999124855853 195.998833141137
267 10 74 132
268 20 62 116
269 20 194 292
270 10.0078305692928 109.999675198809 179.999566931746
271 50 56 108
272 10.0000022045627 157.999999841137 243.999999788182
273 80.5459465244569 121.824006610583 195.765342147444
274 20.1080333426375 115.996042837676 187.994723783568
275 80.0647071224863 139.9356665607 219.914222080933
276 80.0000105481727 163.999941755077 251.999922340103
277 80.0468049734922 103.983586805434 171.978115740579
278 40 62 116
279 30.0004024627668 91.9999713134101 155.999961751214
280 30.0279493163538 139.998777877803 219.998370503737
281 60.0000000009068 61.9999999992383 115.999999998984
282 80.0000005783596 73.9999995070554 131.99999934274
283 80.0000000009143 181.999999995134 275.999999993512
284 20 182 276
285 20.0000000572887 79.9999999853875 139.999999980517
286 20.0000030293233 157.999997589836 243.999996786448
287 20.0120179452422 103.999552990553 171.999403987404
288 60.0000000000958 187.999999999442 283.999999999255
289 20.1055903370435 127.996139990415 203.994853320553
290 80.2086600343143 133.875991809908 211.834655746544
291 80.0002188824592 157.999136337389 243.998848449852
292 70.0000000019269 61.9999999983813 115.999999997842
293 80.0000000952586 67.9999999190919 123.999999892123
294 80.000000013055 61.9999999889224 115.99999998523
295 80.0000158914689 79.9999902167889 139.999986955719
296 80.0012983763836 91.9993318577435 155.999109143658
297 80.0000000493396 175.999999710025 267.999999613366
298 80.0000000001143 187.999999999392 283.999999999189
299 30 188 284
300 20.0000000985953 169.999999862037 259.99999981605
301 20 68 124
302 20.0507843881421 133.998146787563 211.997529050083
303 20.0000266359733 85.9999981373301 147.99999751644
304 50.0000000000599 187.999999999651 283.999999999535
305 20 188 284
306 80.0026607665012 151.99402051174 235.992027348987
307 30 62 116
308 20.0001279395964 151.999993767343 235.99999168979
309 80.3897326049208 115.893066302898 187.857421737197
310 70.8325758458684 121.842420648289 195.789894197719
311 30.0000042037038 163.999990540575 251.999987387434
312 70.0004266605924 85.9998087634709 147.999745017961
313 70.1072822771474 139.932047400582 219.90939653411
314 70.0000276920492 163.999863431607 251.99981790881
315 50.0000000119862 181.999999925612 275.999999900816
316 70.0000000129973 181.99999991959 275.999999892787
317 80.4018517864871 127.83945730803 203.785943077373
318 20.0561868313855 109.997962082083 179.997282776111
319 50.0000000001133 61.9999999999048 115.999999999873
320 30.0004817793247 151.999886031243 235.999848041657
321 60.0000001115128 67.9999999035499 123.9999998714
322 80.1789886857325 109.949680426844 179.932907235792
323 80.0125946521265 97.9953031771712 163.993737569562
324 80.0000036845172 169.999980809698 259.99997441293
325 70.000000001756 187.99999998922 283.999999985626
326 20.0000000123244 175.999999982755 267.999999977006
327 40.0000000064196 181.999999963534 275.999999951378
328 20.0000000142197 73.999999991772 131.999999989029
329 30.0000596767761 85.9999939493138 147.999991932418
330 70.0000031400038 73.9999978008428 131.99999706779
331 70.0004118567614 157.998656579704 243.998208772939
332 70.0000004973635 67.99999963522 123.999999513627
333 80.0217956369715 145.975804986723 227.967739982297
334 30.0072087007872 145.99950839447 227.99934452596
335 20.1563198350774 121.994354133618 195.992472178157
336 30.0000000241322 67.9999999786735 123.999999971565
337 30.0048460290974 97.999770802499 163.999694403332
338 30.1478761248759 133.994710052553 211.992946736737
339 30.0000000038513 181.999999981943 275.999999975924
340 30.3477421865183 115.987940702926 187.983920937235
341 70.2867472686838 109.948788285369 179.931717713825
342 40.3051134466207 133.985099015043 211.980132020057
343 40.0000859620364 85.9999728793439 147.999963839125
344 60.0000614465084 163.999786192796 251.999714923728
345 40.0029377401895 151.998953939885 235.99860525318
346 70.6394011577181 127.845055494488 203.793407325984
347 50.0000001272763 67.999999888563 123.999999851417
348 70.0000003766938 175.999997882678 267.999997176904
349 70.0041141739176 151.992427141488 235.989902855317
350 50.0000003346659 175.999998042721 267.999997390294
351 30.0000001552343 73.9999998630005 131.999999817334
352 70.3359014843839 133.886501784885 211.848669046514
353 30.0002602167402 157.99990211248 243.999869483307
354 40.0000001010695 67.9999999104158 123.999999880554
355 40.0967804457073 139.992498845368 219.989998460491
356 70.0932710502709 103.980836850785 171.974449134381
357 40.002080211991 91.9997810235989 155.999708031465
358 30.0000147484157 79.9999972103936 139.999996280525
359 60.0000000656551 181.999999610663 275.999999480884
360 70.000073920855 79.9999634906125 139.999951320817
361 70.0233973188452 97.9941050536698 163.99214007156
362 70.0052868318088 91.998428228112 155.997904304149
363 30.0000007398083 169.999997932734 259.999997243645
364 70.0303793258251 145.973098129264 227.964130839019
365 70.0000087190538 169.999961689489 259.999948919318
366 60.0000101174717 73.9999944544449 131.999992605927
367 30.0000001220456 175.999999613591 267.999999484788
368 30.0402913949037 103.99843351694 171.99791135592
369 30.365698804097 127.98719140196 203.98292186928
370 70.6162093686751 115.899001137391 187.865334849855
371 40.6768965493781 127.97193694678 203.962582595707
372 60.7726577985444 115.926956046876 187.902608062501
373 60.8589548493572 127.898467418245 203.864623224326
374 40.0000413821256 163.999933816664 251.999911755551
375 50.0037198720865 91.9993826746918 155.999176899589
376 60.0009695661297 85.99971334431 147.999617792413
377 60.0006188342566 157.998584891243 243.998113188323
378 60.005498120053 151.993736236403 235.991648315204
379 60.0334271616002 145.980430346003 227.973907128003
380 50.0000073908655 73.9999960538804 131.999994738507
381 50.4317253383859 133.960476176958 211.947301569277
382 40.0254696117135 145.996359831059 227.995146441413
383 30.4641520042374 121.983752107557 195.978336143409
384 40.0783144616941 103.995869405885 171.99449254118
385 60.0000116781639 169.999953229435 259.999937639247
386 60.0000022591916 175.99999027806 267.999987037414
387 60.1531277388087 139.954947832524 219.939930443366
388 30.1668482883729 109.993962724655 179.99195029954
389 40.0208456635935 97.9986134906121 163.998151320816
390 60.1144637041252 103.984904909544 171.979873212726
391 40.0000342841585 79.9999881013449 139.999984135127
392 60.0001812402453 79.9999360379284 139.999914717238
393 60.0329830921609 97.9946487372552 163.992864983007
394 40.0005748610846 157.999616060321 243.999488080427
395 40.0000065333875 169.999985349562 259.999980466082
396 40.000001051189 175.99999699985 267.9999959998
397 40.000008556755 73.9999966373666 131.999995516489
398 50.8640613451855 127.941896871213 203.922529161617
399 60.9777853374626 121.899997093033 195.866662790711
400 40.6052547942122 115.975474367166 187.967299156221
401 40.2781424822926 109.986983943645 179.982645258194
402 50.0001283631629 163.999759033582 251.999678711442
403 60.0084542755558 91.9983307491883 155.997774332251
404 50.1237336380451 103.989965099532 171.986620132709
405 50.0013234636748 85.9997386915886 147.999651588785
406 50.0080381432924 151.995957837485 235.994610449981
407 50.0000254784885 169.999940915731 259.999921220975
408 50.0394074435328 97.9960159079634 163.994687877285
409 50.0002695995216 79.9999328415438 139.999910455392
410 50.1595811367433 139.975852619879 219.967803493172
411 40.7783094855773 121.967389530453 195.956519373938
412 60.3632065866352 109.960706532968 179.947608710624
413 60.4339214172183 133.92305077445 211.8974010326
414 50.9092946030311 121.941906293467 195.922541724623
415 50.6626784318825 115.955962449567 187.941283266089
416 50.0500935813415 145.987850025808 227.983800034411
417 50.0017774146305 157.998617789585 243.99815705278
418 50.3590693849303 109.974086954671 179.965449272895
$EndNodes
$Elements
360
1 3 2 1 1 87 85 82 43
2 3 2 1 1 123 120 130 129
3 3 2 1 1 129 130 131 132
4 3 2 1 1 113 97 87 109
5 3 2 1 1 113 109 91 99
6 3 2 1 1 48 82 85 106
7 3 2 1 1 68 52 55 56
8 3 2 1 1 69 51 66 57
9 3 2 1 1 130 121 126 131
10 3 2 1 1 53 79 58 64
11 3 2 1 1 54 81 59 65
12 3 2 1 1 79 53 70 88
13 3 2 1 1 81 54 71 94
14 3 2 1 1 116 128 127 98
15 3 2 1 1 33 64 32 4
16 3 2 1 1 14 65 13 2
17 3 2 1 1 42 1 5 66
18 3 2 1 1 93 116 98 84
19 3 2 1 1 92 117 100 86
20 3 2 1 1 114 110 103 89
21 3 2 1 1 105 84 98 119
22 3 2 1 1 124 131 126 111
23 3 2 1 1 104 86 100 118
24 3 2 1 1 94 108 80 81
25 3 2 1 1 89 72 61 90
26 3 2 1 1 88 107 78 79
27 3 2 1 1 43 19 20 67
28 3 2 1 1 102 88 70 47
29 3 2 1 1 123 115 97 120
30 3 2 1 1 111 102 83 124
31 3 2 1 1 131 124 110 132
32 3 2 1 1 60 21 22 52
33 3 2 1 1 55 52 22 23
34 3 2 1 1 61 40 41 51
35 3 2 1 1 66 51 41 42
36 3 2 1 1 94 71 48 106
37 3 2 1 1 74 92 86 45
38 3 2 1 1 75 93 84 46
39 3 2 1 1 58 79 78 49
40 3 2 1 1 59 81 80 50
41 3 2 1 1 47 73 83 102
42 3 2 1 1 64 33 34 53
43 3 2 1 1 70 53 34 35
44 3 2 1 1 65 14 15 54
45 3 2 1 1 71 54 15 16
46 3 2 1 1 103 110 124 83
47 3 2 1 1 89 90 101 114
48 3 2 1 1 52 68 91 60
49 3 2 1 1 51 69 90 61
50 3 2 1 1 72 89 103 44
51 3 2 1 1 47 70 35 36
52 3 2 1 1 48 71 16 17
53 3 2 1 1 112 106 85 115
54 3 2 1 1 103 83 73 44
55 3 2 1 1 108 94 106 112
56 3 2 1 1 125 120 97 113
57 3 2 1 1 60 67 20 21
58 3 2 1 1 73 47 36 37
59 3 2 1 1 61 72 39 40
60 3 2 1 1 87 97 115 85
61 3 2 1 1 67 60 91 109
62 3 2 1 1 48 17 18 82
63 3 2 1 1 44 73 37 38
64 3 2 1 1 102 111 107 88
65 3 2 1 1 72 44 38 39
66 3 2 1 1 114 122 132 110
67 3 2 1 1 77 105 96 63
68 3 2 1 1 108 112 128 116
69 3 2 1 1 76 104 95 62
70 3 2 1 1 96 105 119 101
71 3 2 1 1 95 104 118 99
72 3 2 1 1 116 93 80 108
73 3 2 1 1 50 80 93 75
74 3 2 1 1 49 78 92 74
75 3 2 1 1 117 92 78 107
76 3 2 1 1 105 77 46 84
77 3 2 1 1 104 76 45 86
78 3 2 1 1 120 125 121 130
79 3 2 1 1 122 114 101 119
80 3 2 1 1 91 68 95 99
81 3 2 1 1 90 69 96 101
82 3 2 1 1 126 117 107 111
83 3 2 1 1 115 123 128 112
84 3 2 1 1 76 27 28 45
85 3 2 1 1 74 45 28 29
86 3 2 1 1 77 8 9 46
87 3 2 1 1 75 46 9 10
88 3 2 1 1 74 29 30 49
89 3 2 1 1 75 10 11 50
90 3 2 1 1 43 67 109 87
91 3 2 1 1 113 99 118 125
92 3 2 1 1 76 62 26 27
93 3 2 1 1 77 63 7 8
94 3 2 1 1 69 57 63 96
95 3 2 1 1 68 56 62 95
96 3 2 1 1 122 119 98 127
97 3 2 1 1 64 58 31 32
98 3 2 1 1 65 59 12 13
99 3 2 1 1 66 5 6 57
100 3 2 1 1 23 3 24 55
101 3 2 1 1 30 31 58 49
102 3 2 1 1 11 12 59 50
103 3 2 1 1 121 125 118 100
104 3 2 1 1 25 26 62 56
105 3 2 1 1 6 7 63 57
106 3 2 1 1 24 25 56 55
107 3 2 1 1 126 121 100 117
108 3 2 1 1 123 129 127 128
109 3 2 1 1 132 122 127 129
110 3 2 1 1 19 43 82 18
111 3 2 2 2 398 414 399 373
112 3 2 2 2 310 399 372 370
113 3 2 2 2 273 317 346 310
114 3 2 2 2 341 370 372 412
115 3 2 2 2 390 412 418 404
116 3 2 2 2 264 234 300 326
117 3 2 2 2 238 287 318 270
118 3 2 2 2 326 300 363 367
119 3 2 2 2 272 239 308 286
120 3 2 2 2 334 382 345 320
121 3 2 2 2 415 400 401 418
122 3 2 2 2 175 213 247 174
123 3 2 2 2 196 197 248 210
124 3 2 2 2 243 210 248 303
125 3 2 2 2 210 243 249 236
126 3 2 2 2 250 242 280 334
127 3 2 2 2 242 302 338 280
128 3 2 2 2 241 286 353 311
129 3 2 2 2 373 413 381 398
130 3 2 2 2 345 406 417 394
131 3 2 2 2 143 142 211 246
132 3 2 2 2 141 271 211 142
133 3 2 2 2 246 222 144 143
134 3 2 2 2 171 172 262 232
135 3 2 2 2 175 176 233 213
136 3 2 2 2 188 208 224 187
137 3 2 2 2 256 205 290 317
138 3 2 2 2 318 274 209 270
139 3 2 2 2 319 278 211 271
140 3 2 2 2 247 304 288 212
141 3 2 2 2 244 304 247 213
142 3 2 2 2 226 222 268 216
143 3 2 2 2 326 284 218 264
144 3 2 2 2 248 223 285 303
145 3 2 2 2 208 242 250 224
146 3 2 2 2 266 335 289 235
147 3 2 2 2 249 287 238 236
148 3 2 2 2 208 265 302 242
149 3 2 2 2 214 245 292 281
150 3 2 2 2 287 249 337 368
151 3 2 2 2 334 320 308 250
152 3 2 2 2 209 274 335 266
153 3 2 2 2 335 274 340 383
154 3 2 2 2 307 278 354 336
155 3 2 2 2 353 286 308 320
156 3 2 2 2 325 288 359 316
157 3 2 2 2 369 289 335 383
158 3 2 2 2 274 318 388 340
159 3 2 2 2 287 368 388 318
160 3 2 2 2 278 319 347 354
161 3 2 2 2 285 328 351 358
162 3 2 2 2 343 329 358 391
163 3 2 2 2 280 355 382 334
164 3 2 2 2 401 400 340 388
165 3 2 2 2 320 345 394 353
166 3 2 2 2 342 381 410 355
167 3 2 2 2 382 355 410 416
168 3 2 2 2 342 371 398 381
169 3 2 2 2 369 383 411 371
170 3 2 2 2 368 384 401 388
171 3 2 2 2 157 229 255 156
172 3 2 2 2 256 158 159 205
173 3 2 2 2 247 212 173 174
174 3 2 2 2 190 235 265 189
175 3 2 2 2 266 191 192 209
176 3 2 2 2 290 205 257 275
177 3 2 2 2 286 241 207 272
178 3 2 2 2 307 246 211 278
179 3 2 2 2 299 244 213 233
180 3 2 2 2 271 214 281 319
181 3 2 2 2 327 315 304 244
182 3 2 2 2 355 280 338 342
183 3 2 2 2 275 313 352 290
184 3 2 2 2 346 317 290 352
185 3 2 2 2 395 363 311 374
186 3 2 2 2 352 313 387 413
187 3 2 2 2 350 386 359 315
188 3 2 2 2 315 327 396 350
189 3 2 2 2 279 329 343 357
190 3 2 2 2 279 357 389 337
191 3 2 2 2 368 337 389 384
192 3 2 2 2 371 342 338 369
193 3 2 2 2 357 343 405 375
194 3 2 2 2 364 349 378 379
195 3 2 2 2 361 356 390 393
196 3 2 2 2 408 389 357 375
197 3 2 2 2 313 364 379 387
198 3 2 2 2 408 404 384 389
199 3 2 2 2 418 401 384 404
200 3 2 2 2 133 146 225 137
201 3 2 2 2 138 137 225 220
202 3 2 2 2 139 138 220 245
203 3 2 2 2 214 140 139 245
204 3 2 2 2 271 141 140 214
205 3 2 2 2 222 226 145 144
206 3 2 2 2 134 145 226 202
207 3 2 2 2 148 215 251 147
208 3 2 2 2 146 147 251 225
209 3 2 2 2 148 149 252 215
210 3 2 2 2 150 227 252 149
211 3 2 2 2 151 203 227 150
212 3 2 2 2 151 152 253 203
213 3 2 2 2 153 228 253 152
214 3 2 2 2 155 204 254 154
215 3 2 2 2 153 154 254 228
216 3 2 2 2 155 156 255 204
217 3 2 2 2 158 256 229 157
218 3 2 2 2 159 160 257 205
219 3 2 2 2 161 230 257 160
220 3 2 2 2 163 206 258 162
221 3 2 2 2 161 162 258 230
222 3 2 2 2 163 164 259 206
223 3 2 2 2 165 231 259 164
224 3 2 2 2 167 217 260 166
225 3 2 2 2 165 166 260 231
226 3 2 2 2 167 168 261 217
227 3 2 2 2 169 221 261 168
228 3 2 2 2 135 170 221 169
229 3 2 2 2 170 171 232 221
230 3 2 2 2 262 172 173 212
231 3 2 2 2 178 219 269 177
232 3 2 2 2 176 177 269 233
233 3 2 2 2 136 179 219 178
234 3 2 2 2 263 219 179 180
235 3 2 2 2 263 180 181 218
236 3 2 2 2 264 218 181 182
237 3 2 2 2 264 182 183 234
238 3 2 2 2 184 207 234 183
239 3 2 2 2 272 207 184 185
240 3 2 2 2 272 185 186 239
241 3 2 2 2 187 224 239 186
242 3 2 2 2 188 189 265 208
243 3 2 2 2 191 266 235 190
244 3 2 2 2 270 209 192 193
245 3 2 2 2 270 193 194 238
246 3 2 2 2 195 236 238 194
247 3 2 2 2 196 210 236 195
248 3 2 2 2 248 197 198 223
249 3 2 2 2 267 223 198 199
250 3 2 2 2 267 199 200 237
251 3 2 2 2 201 216 237 200
252 3 2 2 2 201 202 226 216
253 3 2 2 2 309 322 204 255
254 3 2 2 2 254 204 322 277
255 3 2 2 2 259 276 291 206
256 3 2 2 2 300 234 207 241
257 3 2 2 2 262 212 288 325
258 3 2 2 2 252 282 293 215
259 3 2 2 2 225 251 294 220
260 3 2 2 2 245 220 294 292
261 3 2 2 2 246 307 268 222
262 3 2 2 2 328 285 223 267
263 3 2 2 2 203 240 295 227
264 3 2 2 2 252 227 295 282
265 3 2 2 2 254 277 323 228
266 3 2 2 2 253 228 323 296
267 3 2 2 2 273 229 256 317
268 3 2 2 2 257 230 333 275
269 3 2 2 2 258 306 333 230
270 3 2 2 2 259 231 324 276
271 3 2 2 2 260 297 324 231
272 3 2 2 2 221 232 298 261
273 3 2 2 2 325 298 232 262
274 3 2 2 2 269 305 299 233
275 3 2 2 2 265 235 289 302
276 3 2 2 2 328 267 237 301
277 3 2 2 2 216 268 301 237
278 3 2 2 2 203 253 296 240
279 3 2 2 2 363 300 241 311
280 3 2 2 2 337 249 243 279
281 3 2 2 2 299 339 327 244
282 3 2 2 2 215 293 294 251
283 3 2 2 2 229 273 309 255
284 3 2 2 2 206 291 306 258
285 3 2 2 2 217 283 297 260
286 3 2 2 2 217 261 298 283
287 3 2 2 2 219 263 305 269
288 3 2 2 2 218 284 305 263
289 3 2 2 2 322 341 356 277
290 3 2 2 2 243 303 329 279
291 3 2 2 2 319 281 321 347
292 3 2 2 2 325 316 283 298
293 3 2 2 2 305 284 339 299
294 3 2 2 2 358 329 303 285
295 3 2 2 2 359 288 304 315
296 3 2 2 2 276 314 331 291
297 3 2 2 2 294 293 332 292
298 3 2 2 2 281 292 332 321
299 3 2 2 2 282 330 332 293
300 3 2 2 2 240 312 360 295
301 3 2 2 2 282 295 360 330
302 3 2 2 2 240 296 362 312
303 3 2 2 2 323 361 362 296
304 3 2 2 2 283 316 348 297
305 3 2 2 2 268 307 336 301
306 3 2 2 2 351 328 301 336
307 3 2 2 2 289 369 338 302
308 3 2 2 2 291 331 349 306
309 3 2 2 2 394 374 311 353
310 3 2 2 2 376 392 360 312
311 3 2 2 2 376 312 362 403
312 3 2 2 2 275 333 364 313
313 3 2 2 2 276 324 365 314
314 3 2 2 2 344 377 331 314
315 3 2 2 2 344 314 365 385
316 3 2 2 2 386 348 316 359
317 3 2 2 2 366 321 332 330
318 3 2 2 2 380 347 321 366
319 3 2 2 2 309 370 341 322
320 3 2 2 2 277 356 361 323
321 3 2 2 2 297 348 365 324
322 3 2 2 2 284 326 367 339
323 3 2 2 2 396 327 339 367
324 3 2 2 2 366 330 360 392
325 3 2 2 2 378 349 331 377
326 3 2 2 2 306 349 364 333
327 3 2 2 2 411 383 340 400
328 3 2 2 2 390 356 341 412
329 3 2 2 2 417 377 344 402
330 3 2 2 2 385 407 402 344
331 3 2 2 2 354 347 380 397
332 3 2 2 2 386 385 365 348
333 3 2 2 2 396 395 407 350
334 3 2 2 2 336 354 397 351
335 3 2 2 2 397 391 358 351
336 3 2 2 2 346 352 413 373
337 3 2 2 2 393 403 362 361
338 3 2 2 2 380 366 392 409
339 3 2 2 2 363 395 396 367
340 3 2 2 2 403 375 405 376
341 3 2 2 2 417 406 378 377
342 3 2 2 2 416 379 378 406
343 3 2 2 2 416 410 387 379
344 3 2 2 2 397 380 409 391
345 3 2 2 2 345 382 416 406
346 3 2 2 2 350 407 385 386
347 3 2 2 2 381 413 387 410
348 3 2 2 2 393 390 404 408
349 3 2 2 2 343 391 409 405
350 3 2 2 2 376 405 409 392
351 3 2 2 2 375 403 393 408
352 3 2 2 2 374 394 417 402
353 3 2 2 2 374 402 407 395
354 3 2 2 2 239 224 250 308
355 3 2 2 2 418 412 372 415
356 3 2 2 2 399 414 415 372
357 3 2 2 2 310 346 373 399
358 3 2 2 2 370 309 273 310
359 3 2 2 2 371 411 414 398
360 3 2 2 2 400 415 414 411
$EndElements
