$MeshFormat
2.2 0 8
$EndMeshFormat
$Nodes
441
1 55 20 0
2 55 40 0
3 40 50 0
4 30 50 0
5 20 30 0
6 20 20 0
7 70 40 0
8 70 80 0
9 60 90 0
10 40 90 0
11 10 30 0
12 30 80 0
13 10 80 0
14 80 80 0
15 80 95 0
16 60 95 0
17 0 0 0
18 100 0 0
19 0 100 0
20 100 100 0
75 5 0 0
76 10 0 0
77 15 0 0
78 20 0 0
79 25 0 0
80 30 0 0
81 35 0 0
82 40 0 0
83 45 0 0
84 50 0 0
85 55 0 0
86 60 0 0
87 65 0 0
88 70 0 0
89 75 0 0
90 80 0 0
91 85 0 0
92 90 0 0
93 95 0 0
94 0 95 0
95 0 90 0
96 0 85 0
97 0 80 0
98 0 75 0
99 0 70 0
100 0 65 0
101 0 60 0
102 0 55 0
103 0 50 0
104 0 45 0
105 0 40 0
106 0 35 0
107 0 30 0
108 0 25 0
109 0 20 0
110 0 15 0
111 0 10 0
112 0 5 0
113 100 5 0
114 100 10 0
115 100 15 0
116 100 20 0
117 100 25 0
118 100 30 0
119 100 35 0
120 100 40 0
121 100 45 0
122 100 50 0
123 100 55 0
124 100 60 0
125 100 65 0
126 100 70 0
127 100 75 0
128 100 80 0
129 100 85 0
130 100 90 0
131 100 95 0
132 95 100 0
133 90 100 0
134 85 100 0
135 80 100 0
136 75 100 0
137 70 100 0
138 65 100 0
139 60 100 0
140 55 100 0
141 50 100 0
142 45 100 0
143 40 100 0
144 35 100 0
145 30 100 0
146 25 100 0
147 20 100 0
148 15 100 0
149 10 100 0
150 5 100 0
151 80 5 0
152 95 60 0
153 95 30 0
154 75 45 0
155 75 60 0
156 95 40 0
157 5 15 0
158 10 95 0
159 95 85 0
160 65 5 0
161 20 5 0
162 30 15 0
163 60 25 0
164 50 15 0
165 30 85 0
166 95 70 0
167 95 15 0
168 15 85 0
169 85 85 0
170 15 95 0
171 35 5 0
172 20 15 0
173 65 35 0
174 50 5 0
175 25 95 0
176 10 5 0
177 95 95 0
178 35 95 0
179 5 40 0
180 95 5 0
181 40 95 0
182 5 30 0
183 15 20 0
184 5 25 0
185 35 80 0
186 5 75 0
187 5 90 0
188 5 85 0
189 75 75 0
190 85 95 0
191 55 95 0
192 35 55 0
193 50 95 0
194 35 70 0
195 35 60 0
196 5 65 0
197 5 55 0
198 5 45 0
199 5 10 0
200 95 50 0
201 10 25 0
202 15 25 0
203 45 5 0
204 40 15 0
205 90 5 0
206 5 95 0
207 95 20 0
208 75 70 0
209 30 5 0
210 95 75 0
211 35 85 0
212 60 35 0
213 75 55 0
214 25 85 0
215 5 5 0
216 60 5 0
217 75 5 0
218 70 35 0
219 80 10 0
220 80 60 0
221 60 20 0
222 65 10 0
223 85 80 0
224 15 15 0
225 55 15 0
226 90 15 0
227 10 90 0
228 10 15 0
229 10 20 0
230 95 80 0
231 90 10 0
232 85 5 0
233 5 20 0
234 95 45 0
235 35 90 0
236 95 10 0
237 95 55 0
238 90 70 0
239 80 75 0
240 10 85 0
241 45 15 0
242 45 95 0
243 20 85 0
244 85 90 0
245 15 5 0
246 40 5 0
247 55 5 0
248 70 5 0
249 95 25 0
250 95 35 0
251 95 65 0
252 95 90 0
253 90 95 0
254 35 10 0
255 30 90 0
256 5 80 0
257 75 65 0
258 30 95 0
259 20 95 0
260 75 40 0
261 60 30 0
262 25 15 0
263 75 50 0
264 35 75 0
265 35 65 0
266 5 70 0
267 5 60 0
268 5 50 0
269 25 5 0
270 5 35 0
271 50 10 0
272 35 15 0
273 10 10 0
274 90 25 0
275 90 45 0
276 75 35 0
277 90 60 0
278 80 70 0
279 70 10 0
280 80 45 0
281 65 25 0
282 90 85 0
283 15 90 0
284 90 80 0
285 90 50 0
286 90 35 0
287 60 15 0
288 20 90 0
289 15 10 0
290 20 10 0
291 30 10 0
292 40 10 0
293 90 20 0
294 60 10 0
295 85 10 0
296 80 65 0
297 85 75 0
298 90 65 0
299 90 90 0
300 25 90 0
301 80 55 0
302 65 30 0
303 45 10 0
304 75 10 0
305 55 10 0
306 90 75 0
307 85 20 0
308 65 20 0
309 90 40 0
310 85 65 0
311 85 60 0
312 65 15 0
313 85 50 0
314 85 15 0
315 85 70 0
316 80 50 0
317 90 30 0
318 90 55 0
319 70 30 0
320 80 15 0
321 80 40 0
322 75 15 0
323 25 10 0
324 85 30 0
325 75 30 0
326 85 25 0
327 85 40 0
328 80 35 0
329 85 55 0
330 85 45 0
331 70 15 0
332 70 25 0
333 80 20 0
334 85 35 0
335 80 25 0
336 80 30 0
337 70 20 0
338 75 20 0
339 75 25 0
340 20 50 0
341 30 30 0
350 25 35 0
351 25 40 0
352 25 45 0
353 55 50 0
354 40 40 0
361 50 45 0
362 45 45 0
381 44.9429803363135 25.2072285338155 0
382 40.0171109425806 35.2552561990724 0
383 49.9633204902352 30.2008045727796 0
384 35.016276167746 35.1311400442505 0
385 35.0077593211841 40.0536535681957 0
386 24.9977952488836 25.0033330540766 0
387 34.9745385025555 25.1008165039829 0
388 35.0016307675769 45.0100701599543 0
389 49.9697973833618 25.1168166215454 0
390 49.9877943825987 35.1482755904803 0
391 44.9550564845492 30.3011986557002 0
392 39.9706799162641 30.2584039765893 0
393 29.9926999854475 25.029382484403 0
394 39.9676831918619 25.1484553395776 0
395 34.991140885984 30.1286148553632 0
396 44.9934167638271 35.1966226427299 0
397 70 90 0
398 60 80 0
403 65.015625 85.015625 0
428 45.0303278799339 80.0286780275114 0
429 45.0656605762904 70.0777003317674 0
430 54.994409309081 55.0160546227823 0
431 64.9999397824323 45.000012071092 0
432 65.0168980677708 65.0021776634467 0
433 64.9985615248976 49.9995457831698 0
434 65.038231734972 70.0030097327337 0
435 55.0353932509088 80.0193272737564 0
436 45.0169074015543 60.033961747206 0
437 59.9975729694327 50.0008471824125 0
438 60.0667334669273 75.027232071193 0
439 59.9995773359317 45.0000873486152 0
440 64.9945057875597 54.9987946167083 0
441 65.029310203586 75.004213391968 0
442 55.0083253679196 85.0049010339326 0
443 45.0088594287865 85.0077452232341 0
444 45.0029204369352 55.0115674037179 0
445 55.0966986018245 75.0789247599931 0
446 64.997877857424 60.0034367365067 0
447 50.0136703691797 85.0104287467317 0
448 45.0558770506875 75.0585100053376 0
449 45.0435010963657 65.0645133632995 0
450 50.0010793412827 55.0205320340888 0
451 59.9921341978949 55.0078572562286 0
452 60.0797396816192 70.0621427076934 0
453 60.0005224063948 60.0290550193789 0
454 50.0676270903871 65.1124640111994 0
455 55.0114986686295 60.0565341138148 0
456 50.0472862264146 80.0409668549525 0
457 60.0410067247331 65.0581340932247 0
458 50.0215501875443 60.057436233566 0
459 55.1054719438579 70.1197645972662 0
460 50.0860596185712 75.0869533876681 0
461 50.0888955288553 70.1106058967387 0
462 55.0535619382332 65.091063091665 0
485 25.0417524051949 60.0462507554448 0
486 15.0108498441175 70.0054196280646 0
487 25.0185540556787 55.0341971094942 0
488 15.0402241677532 60.0262673531583 0
489 15.0219479007836 55.0254768431083 0
490 14.9998458072631 45.0029680112965 0
491 25.0116245720054 70.0076241568228 0
492 14.9999437282156 40.0004640794022 0
493 14.9999886133573 35.0000689602771 0
494 25.0032249546756 75.0019345101817 0
495 15.0030927461543 75.0015815235849 0
496 20.0482069828718 60.0409764743627 0
497 20.0048076480318 75.0026933143047 0
498 15.0233343214213 65.0137774677747 0
499 15.004562330338 50.0116564174797 0
500 20.0227154557908 55.0324583549679 0
501 25.0245703997627 65.0196438681359 0
502 20.0315912320205 65.0225543371496 0
503 20.0145138835153 70.0092444731192 0
512 74.995428472089 90.0156004145633 0
513 74.9983073991069 85.0111475873044 0
514 55 25 0
515 55 30 0
516 55 35 0
517 35 50 0
518 20 25 0
519 25 20 0
520 30 20 0
521 35 20 0
522 40 20 0
523 45 20 0
524 50 20 0
525 60 40 0
526 65 40 0
527 70 45 0
528 70 50 0
529 70 55 0
530 70 60 0
531 70 65 0
532 70 70 0
533 70 75 0
534 55 90 0
535 50 90 0
536 45 90 0
537 40 85 0
538 40 80 0
539 40 75 0
540 40 70 0
541 40 65 0
542 40 60 0
543 40 55 0
544 15 30 0
545 30 55 0
546 30 60 0
547 30 65 0
548 30 70 0
549 30 75 0
550 25 80 0
551 20 80 0
552 15 80 0
553 10 75 0
554 10 70 0
555 10 65 0
556 10 60 0
557 10 55 0
558 10 50 0
559 10 45 0
560 10 40 0
561 10 35 0
562 75 80 0
563 80 85 0
564 80 90 0
565 75 95 0
566 70 95 0
567 65 95 0
568 30 35 0
569 30 40 0
570 30 45 0
571 25 50 0
572 20 45 0
573 20 40 0
574 20 35 0
575 25 30 0
576 55 45 0
577 50 50 0
578 45 50 0
579 40 45 0
580 45 40 0
581 50 40 0
582 70 85 0
583 65 90 0
584 60 85 0
585 65 80 0
$EndNodes
$Elements
400
5 3 2 1 1 170 259 147 148
6 3 2 1 1 227 240 168 283
7 3 2 1 1 282 169 223 284
8 3 2 1 1 158 206 187 227
9 3 2 1 1 309 327 334 286
10 3 2 1 1 229 233 157 228
11 3 2 1 1 283 168 243 288
12 3 2 1 1 282 299 244 169
13 3 2 1 1 228 273 289 224
14 3 2 1 1 298 310 311 277
15 3 2 1 1 18 113 180 93
16 3 2 1 1 91 232 151 90
17 3 2 1 1 216 160 222 294
18 3 2 1 1 245 161 290 289
19 3 2 1 1 231 236 167 226
20 3 2 1 1 224 289 290 172
21 3 2 1 1 237 318 285 200
22 3 2 1 1 151 232 295 219
23 3 2 1 1 329 301 316 313
24 3 2 1 1 122 123 237 200
25 3 2 1 1 285 318 329 313
26 3 2 1 1 104 105 179 198
27 3 2 1 1 199 111 112 215
28 3 2 1 1 128 129 159 230
29 3 2 1 1 142 242 193 141
30 3 2 1 1 303 241 204 292
31 3 2 1 1 298 238 315 310
32 3 2 1 1 159 252 299 282
33 3 2 1 1 308 312 331 337
34 3 2 1 1 109 110 157 233
35 3 2 1 1 158 149 150 206
36 3 2 1 1 251 298 277 152
37 3 2 1 1 284 230 159 282
38 3 2 1 1 230 284 306 210
39 3 2 1 1 152 277 318 237
40 3 2 1 1 277 311 329 318
42 3 2 1 1 152 237 123 124
43 3 2 1 1 288 300 175 259
44 3 2 1 1 199 215 176 273
45 3 2 1 1 209 80 81 171
46 3 2 1 1 81 82 246 171
47 3 2 1 1 85 247 174 84
48 3 2 1 1 86 87 160 216
49 3 2 1 1 88 248 160 87
50 3 2 1 1 92 93 180 205
51 3 2 1 1 98 99 266 186
52 3 2 1 1 104 198 268 103
53 3 2 1 1 250 153 118 119
54 3 2 1 1 130 131 177 252
55 3 2 1 1 143 144 178 181
56 3 2 1 1 252 177 253 299
57 3 2 1 1 153 250 286 317
58 3 2 1 1 278 296 310 315
59 3 2 1 1 178 235 10 181
68 3 2 1 1 215 75 76 176
69 3 2 1 1 17 75 215 112
70 3 2 1 1 78 161 245 77
71 3 2 1 1 76 77 245 176
72 3 2 1 1 78 79 269 161
73 3 2 1 1 80 209 269 79
74 3 2 1 1 86 216 247 85
75 3 2 1 1 95 187 206 94
76 3 2 1 1 95 96 188 187
77 3 2 1 1 236 114 115 167
78 3 2 1 1 115 116 207 167
79 3 2 1 1 118 153 249 117
80 3 2 1 1 116 117 249 207
81 3 2 1 1 125 126 166 251
82 3 2 1 1 230 210 127 128
83 3 2 1 1 20 132 177 131
84 3 2 1 1 132 133 253 177
85 3 2 1 1 143 181 242 142
86 3 2 1 1 145 258 178 144
87 3 2 1 1 249 153 317 274
88 3 2 1 1 213 301 220 155
89 3 2 1 1 220 296 257 155
90 3 2 1 1 309 286 250 156
91 3 2 1 1 273 228 157 199
92 3 2 1 1 272 162 291 254
93 3 2 1 1 306 238 166 210
94 3 2 1 1 238 298 251 166
95 3 2 1 1 158 227 283 170
96 3 2 1 1 288 259 170 283
97 3 2 1 1 246 292 254 171
98 3 2 1 1 6 183 224 172
99 3 2 1 1 247 305 271 174
100 3 2 1 1 273 176 245 289
101 3 2 1 1 202 201 229 183
102 3 2 1 1 228 224 183 229
103 3 2 1 1 233 229 201 184
104 3 2 1 1 227 187 188 240
105 3 2 1 1 299 253 190 244
106 3 2 1 1 285 275 234 200
107 3 2 1 1 167 207 293 226
108 3 2 1 1 249 274 293 207
109 3 2 1 1 171 254 291 209
110 3 2 1 1 316 301 213 263
111 3 2 1 1 288 243 214 300
112 3 2 1 1 294 305 247 216
113 3 2 1 1 329 311 220 301
114 3 2 1 1 296 220 311 310
115 3 2 1 1 160 248 279 222
116 3 2 1 1 287 294 222 312
117 3 2 1 1 14 239 297 223
118 3 2 1 1 284 223 297 306
119 3 2 1 1 231 226 314 295
120 3 2 1 1 156 234 275 309
121 3 2 1 1 306 297 315 238
122 3 2 1 1 204 272 254 292
123 3 2 1 1 172 290 323 262
124 3 2 1 1 162 262 323 291
125 3 2 1 1 161 269 323 290
126 3 2 1 1 209 291 323 269
127 3 2 1 1 293 274 326 307
128 3 2 1 1 317 324 326 274
129 3 2 1 1 285 313 330 275
130 3 2 1 1 309 275 330 327
131 3 2 1 1 239 278 315 297
132 3 2 1 1 317 286 334 324
133 3 2 1 1 327 321 328 334
134 3 2 1 1 334 328 336 324
135 3 2 1 1 326 324 336 335
136 3 2 1 1 276 325 336 328
140 3 2 1 1 240 188 256 13
142 3 2 1 1 139 140 191 16
150 3 2 1 1 83 203 246 82
151 3 2 1 1 19 94 206 150
152 3 2 1 1 96 97 256 188
153 3 2 1 1 102 197 267 101
154 3 2 1 1 106 107 182 270
155 3 2 1 1 180 113 114 236
156 3 2 1 1 200 234 121 122
157 3 2 1 1 210 166 126 127
158 3 2 1 1 146 175 258 145
159 3 2 1 1 259 175 146 147
160 3 2 1 1 241 303 271 164
161 3 2 1 1 300 214 165 255
162 3 2 1 1 300 255 258 175
163 3 2 1 1 292 246 203 303
164 3 2 1 1 296 278 208 257
165 3 2 1 1 248 217 304 279
166 3 2 1 1 164 271 305 225
167 3 2 1 1 222 279 331 312
168 3 2 1 1 313 316 280 330
169 3 2 1 1 330 280 321 327
170 3 2 1 1 336 325 339 335
176 3 2 1 1 182 184 201 11
182 3 2 1 1 135 15 190 134
213 3 2 1 1 83 84 174 203
214 3 2 1 1 248 88 89 217
215 3 2 1 1 90 151 217 89
216 3 2 1 1 98 186 256 97
217 3 2 1 1 100 196 266 99
218 3 2 1 1 100 101 267 196
219 3 2 1 1 268 197 102 103
220 3 2 1 1 233 184 108 109
221 3 2 1 1 107 108 184 182
222 3 2 1 1 234 156 120 121
223 3 2 1 1 119 120 156 250
224 3 2 1 1 251 152 124 125
225 3 2 1 1 253 133 134 190
226 3 2 1 1 141 193 191 140
227 3 2 1 1 263 154 280 316
228 3 2 1 1 12 185 211 165
229 3 2 1 1 211 235 255 165
230 3 2 1 1 212 261 302 173
231 3 2 1 1 271 303 203 174
232 3 2 1 1 278 239 189 208
233 3 2 1 1 151 219 304 217
234 3 2 1 1 7 218 276 260
235 3 2 1 1 173 302 319 218
236 3 2 1 1 295 314 320 219
237 3 2 1 1 1 225 287 221
238 3 2 1 1 163 221 308 281
239 3 2 1 1 312 308 221 287
240 3 2 1 1 294 287 225 305
241 3 2 1 1 293 307 314 226
242 3 2 1 1 178 258 255 235
243 3 2 1 1 328 321 260 276
244 3 2 1 1 154 260 321 280
245 3 2 1 1 163 281 302 261
246 3 2 1 1 218 319 325 276
247 3 2 1 1 304 322 331 279
248 3 2 1 1 302 281 332 319
249 3 2 1 1 219 320 322 304
250 3 2 1 1 314 307 333 320
251 3 2 1 1 335 333 307 326
252 3 2 1 1 281 308 337 332
253 3 2 1 1 320 333 338 322
254 3 2 1 1 331 322 338 337
255 3 2 1 1 319 332 339 325
256 3 2 1 1 337 338 339 332
257 3 2 1 1 333 335 339 338
258 3 2 1 1 270 179 105 106
259 3 2 1 1 199 157 110 111
260 3 2 1 1 252 159 129 130
261 3 2 1 1 170 148 149 158
262 3 2 1 1 236 231 205 180
263 3 2 1 1 232 91 92 205
264 3 2 1 1 295 232 205 231
279 3 2 1 1 396 382 392 391
281 3 2 1 1 392 394 381 391
282 3 2 1 1 382 354 385 384
292 3 2 1 1 396 391 383 390
293 3 2 1 1 382 384 395 392
303 3 2 1 1 391 381 389 383
304 3 2 1 1 341 393 387 395
305 3 2 1 1 392 395 387 394
311 3 2 1 1 436 458 454 449
312 3 2 1 1 459 462 457 452
313 3 2 1 1 459 461 454 462
321 3 2 1 1 449 454 461 429
322 3 2 1 1 450 430 455 458
323 3 2 1 1 434 452 457 432
324 3 2 1 1 446 432 457 453
325 3 2 1 1 398 435 445 438
326 3 2 1 1 444 450 458 436
327 3 2 1 1 434 441 438 452
328 3 2 1 1 451 440 446 453
329 3 2 1 1 429 461 460 448
330 3 2 1 1 430 451 453 455
331 3 2 1 1 453 457 462 455
332 3 2 1 1 454 458 455 462
333 3 2 1 1 437 451 430 353
353 3 2 1 1 447 443 428 456
354 3 2 1 1 433 437 439 431
355 3 2 1 1 451 437 433 440
356 3 2 1 1 456 435 442 447
357 3 2 1 1 456 460 445 435
358 3 2 1 1 445 459 452 438
359 3 2 1 1 459 445 460 461
360 3 2 1 1 460 456 428 448
361 3 2 1 1 485 501 502 496
363 3 2 1 1 496 488 489 500
364 3 2 1 1 494 497 503 491
365 3 2 1 1 503 502 501 491
367 3 2 1 1 499 340 500 489
378 3 2 1 1 485 496 500 487
379 3 2 1 1 496 502 498 488
390 3 2 1 1 497 495 486 503
392 3 2 1 1 502 503 486 498
1 3 2 1 1 565 15 135 136
2 3 2 1 1 137 566 565 136
3 3 2 1 1 566 137 138 567
4 3 2 1 1 16 567 138 139
41 3 2 1 1 179 270 561 560
60 3 2 1 1 552 168 240 13
61 3 2 1 1 563 14 223 169
62 3 2 1 1 6 518 202 183
63 3 2 1 1 524 523 241 164
64 3 2 1 1 552 551 243 168
65 3 2 1 1 554 266 196 555
66 3 2 1 1 558 557 197 268
67 3 2 1 1 563 169 244 564
137 3 2 1 1 524 164 225 1
138 3 2 1 1 527 7 260 154
139 3 2 1 1 561 270 182 11
141 3 2 1 1 9 16 191 534
143 3 2 1 1 3 543 192 517
144 3 2 1 1 4 517 192 545
145 3 2 1 1 5 544 202 518
146 3 2 1 1 257 531 530 155
147 3 2 1 1 242 536 535 193
148 3 2 1 1 243 551 550 214
149 3 2 1 1 557 556 267 197
171 3 2 1 1 514 1 221 163
172 3 2 1 1 526 173 218 7
173 3 2 1 1 181 10 536 242
174 3 2 1 1 537 10 235 211
175 3 2 1 1 202 544 11 201
177 3 2 1 1 214 550 12 165
178 3 2 1 1 549 264 185 12
179 3 2 1 1 553 13 256 186
180 3 2 1 1 562 189 239 14
181 3 2 1 1 244 190 15 564
183 3 2 1 1 514 163 261 515
184 3 2 1 1 516 515 261 212
185 3 2 1 1 2 516 212 525
186 3 2 1 1 520 519 262 162
187 3 2 1 1 6 172 262 519
188 3 2 1 1 520 162 272 521
189 3 2 1 1 522 521 272 204
190 3 2 1 1 241 523 522 204
191 3 2 1 1 526 525 212 173
192 3 2 1 1 263 528 527 154
193 3 2 1 1 155 530 529 213
194 3 2 1 1 528 263 213 529
195 3 2 1 1 532 531 257 208
196 3 2 1 1 533 532 208 189
197 3 2 1 1 8 533 189 562
198 3 2 1 1 535 534 191 193
199 3 2 1 1 538 537 211 185
200 3 2 1 1 538 185 264 539
201 3 2 1 1 540 539 264 194
202 3 2 1 1 540 194 265 541
203 3 2 1 1 542 541 265 195
204 3 2 1 1 543 542 195 192
205 3 2 1 1 545 192 195 546
206 3 2 1 1 548 547 265 194
207 3 2 1 1 546 195 265 547
208 3 2 1 1 548 194 264 549
209 3 2 1 1 553 186 266 554
210 3 2 1 1 556 555 196 267
211 3 2 1 1 268 198 559 558
212 3 2 1 1 179 560 559 198
265 3 2 1 1 341 568 350 575
266 3 2 1 1 569 351 350 568
267 3 2 1 1 570 352 351 569
268 3 2 1 1 4 571 352 570
269 3 2 1 1 340 572 352 571
270 3 2 1 1 574 5 575 350
271 3 2 1 1 572 573 351 352
272 3 2 1 1 573 574 350 351
273 3 2 1 1 353 577 361 576
274 3 2 1 1 2 576 361 581
275 3 2 1 1 3 579 362 578
276 3 2 1 1 354 580 362 579
277 3 2 1 1 362 361 577 578
278 3 2 1 1 361 362 580 581
280 3 2 1 1 580 396 390 581
283 3 2 1 1 354 579 388 385
284 3 2 1 1 4 570 388 517
285 3 2 1 1 569 385 388 570
286 3 2 1 1 5 518 386 575
287 3 2 1 1 341 575 386 393
288 3 2 1 1 1 514 389 524
289 3 2 1 1 523 524 389 381
290 3 2 1 1 2 581 390 516
291 3 2 1 1 515 516 390 383
294 3 2 1 1 579 3 517 388
295 3 2 1 1 518 6 519 386
296 3 2 1 1 384 568 341 395
297 3 2 1 1 384 385 569 568
298 3 2 1 1 393 386 519 520
299 3 2 1 1 387 393 520 521
300 3 2 1 1 387 521 522 394
301 3 2 1 1 381 394 522 523
302 3 2 1 1 515 383 389 514
306 3 2 1 1 354 382 396 580
307 3 2 1 1 403 585 8 582
308 3 2 1 1 403 583 9 584
309 3 2 1 1 403 584 398 585
310 3 2 1 1 582 397 583 403
314 3 2 1 1 2 525 439 576
315 3 2 1 1 353 576 439 437
316 3 2 1 1 532 533 441 434
317 3 2 1 1 9 534 442 584
318 3 2 1 1 398 584 442 435
319 3 2 1 1 542 543 444 436
320 3 2 1 1 353 430 450 577
334 3 2 1 1 438 441 585 398
335 3 2 1 1 7 527 431 526
336 3 2 1 1 525 526 431 439
337 3 2 1 1 527 528 433 431
338 3 2 1 1 528 529 440 433
339 3 2 1 1 530 446 440 529
340 3 2 1 1 446 530 531 432
341 3 2 1 1 532 434 432 531
342 3 2 1 1 8 585 441 533
343 3 2 1 1 535 447 442 534
344 3 2 1 1 447 535 536 443
345 3 2 1 1 10 537 443 536
346 3 2 1 1 538 428 443 537
347 3 2 1 1 539 448 428 538
348 3 2 1 1 448 539 540 429
349 3 2 1 1 541 449 429 540
350 3 2 1 1 449 541 542 436
351 3 2 1 1 3 578 444 543
352 3 2 1 1 578 577 450 444
362 3 2 1 1 557 489 488 556
366 3 2 1 1 571 487 500 340
368 3 2 1 1 572 340 499 490
369 3 2 1 1 4 545 487 571
370 3 2 1 1 548 491 501 547
371 3 2 1 1 494 491 548 549
372 3 2 1 1 552 495 497 551
373 3 2 1 1 554 486 495 553
374 3 2 1 1 555 498 486 554
375 3 2 1 1 556 488 498 555
376 3 2 1 1 560 492 490 559
377 3 2 1 1 5 574 493 544
380 3 2 1 1 561 11 544 493
381 3 2 1 1 549 12 550 494
382 3 2 1 1 552 13 553 495
383 3 2 1 1 485 487 545 546
384 3 2 1 1 546 547 501 485
385 3 2 1 1 551 497 494 550
386 3 2 1 1 558 499 489 557
387 3 2 1 1 492 560 561 493
388 3 2 1 1 493 574 573 492
389 3 2 1 1 490 492 573 572
391 3 2 1 1 499 558 559 490
393 3 2 1 1 16 9 583 567
394 3 2 1 1 512 564 15 565
395 3 2 1 1 566 567 583 397
396 3 2 1 1 14 563 513 562
397 3 2 1 1 8 562 513 582
398 3 2 1 1 512 513 563 564
399 3 2 1 1 512 397 582 513
400 3 2 1 1 397 512 565 566
$EndElements
