$MeshFormat
2.2 0 8
$EndMeshFormat
$Nodes
150
1 300 300 0
2 500 300 0
3 500 500 0
4 500 700 0
5 300 700 0
6 300 500 0
7 0 0 0
8 800 0 0
9 0 500 0
10 800 500 0
11 0 1600 0
12 800 1600 0
13 400 300 0
14 500 400 0
15 500 600 0
16 400 700 0
17 300 600 0
18 300 400 0
19 100 0 0
20 200 0 0
21 300 0 0
22 400 0 0
23 500 0 0
24 600 0 0
25 700 0 0
26 0 400 0
27 0 300 0
28 0 200 0
29 0 100 0
30 800 100 0
31 800 200 0
32 800 300 0
33 800 400 0
34 0 1500 0
35 0 1400 0
36 0 1300 0
37 0 1200 0
38 0 1100 0
39 0 1000 0
40 0 900 0
41 0 800 0
42 0 700 0
43 0 600 0
44 800 600 0
45 800 700 0
46 800 800 0
47 800 900 0
48 800 1000 0
49 800 1100 0
50 800 1200 0
51 800 1300 0
52 800 1400 0
53 800 1500 0
54 700 1600 0
55 600 1600 0
56 500 1600 0
57 400 1600 0
58 300 1600 0
59 200 1600 0
60 100 1600 0
61 100 500 0
62 200 500 0
63 600 500 0
64 700 500 0
65 99.9918169782337 1199.98569085522 0
66 699.920566796406 1099.3027424928 0
67 401.640081019063 797.381551994712 0
68 399.999966340864 1500.00000555379 0
69 100.001308588948 999.916472396918 0
70 699.970253445242 1299.93126562784 0
71 100 300 0
72 600 400 0
73 300 200 0
74 400 200 0
75 600 100 0
76 700.259144564422 699.929366621002 0
77 100.047155096706 799.90726899109 0
78 100 200 0
79 100.034395834609 699.944956025614 0
80 100 1500 0
81 699.999418727959 1499.99943834846 0
82 700 300 0
83 200.015783733818 599.977619342862 0
84 100 100 0
85 700 400 0
86 200 300 0
87 600.587984716657 699.568287235526 0
88 600.113729966146 599.934704870916 0
89 200 400 0
90 300 100 0
91 500 100 0
92 700 100 0
93 100 400 0
94 99.9997703481856 1399.99977043531 0
95 700.096834681466 599.953763490581 0
96 700.557077132045 799.64471116406 0
97 700.558225855674 899.152176034661 0
98 499.999614503472 1499.99951040241 0
99 199.999973994704 1499.99997385583 0
100 100.013306900773 599.980569779465 0
101 300.748285915067 798.650397690124 0
102 601.438845017197 798.230112721859 0
103 399.997308221754 1399.98786908474 0
104 199.999382676651 1399.99908810093 0
105 600 300 0
106 200.103492826696 699.825238944561 0
107 200 200 0
108 500 200 0
109 501.821826807295 797.164119588257 0
110 200 100 0
111 400 100 0
112 700 200 0
113 99.9972281249309 1299.99627996142 0
114 99.9877799288851 1099.94706978055 0
115 100.038671879273 899.873257830668 0
116 699.925634086285 1199.64319402195 0
117 699.993132394401 1399.98611227576 0
118 599.998750161259 1499.99797057462 0
119 299.999762418981 1499.99915865755 0
120 700.253535779235 998.828367306198 0
121 199.9755893897 1199.88831082364 0
122 401.742444684104 895.963127025186 0
123 600.077456920548 1097.74099813242 0
124 499.99326083549 1399.97759547569 0
125 599.957121676916 1299.78126742616 0
126 200.094254182896 999.452652451168 0
127 600 200 0
128 200.237074498699 799.52172327208 0
129 601.461453163701 896.805898082691 0
130 199.990976146554 1299.96875779161 0
131 599.98797996271 1399.95488918567 0
132 299.998176530436 1399.99279435579 0
133 200.254357038506 899.299454826135 0
134 300.758104752087 898.079035386487 0
135 399.973075809589 1299.81830791558 0
136 600.760905276807 996.625220911827 0
137 499.95782650948 1299.70418033599 0
138 501.82232773304 895.607566210373 0
139 599.942110830377 1199.03755240478 0
140 200.001343700868 1099.64596563161 0
141 299.979426638559 1299.89753737255 0
142 399.951849504555 1199.09066055504 0
143 500.225802575544 1097.07439500715 0
144 500.920590085942 995.958392135249 0
145 499.988498891625 1198.79970118541 0
146 299.966063362591 1199.52724463838 0
147 300.403088613811 998.247850758871 0
148 300.093298703754 1098.85879486976 0
149 400.229190842584 1097.89354539925 0
150 400.81075927971 996.899544950395 0
$EndNodes
$Elements
120
1 3 2 1 1 136 144 138 129
2 3 2 1 1 144 143 149 150
3 3 2 1 1 147 150 149 148
4 3 2 1 1 100 83 106 79
5 3 2 1 1 105 127 112 82
6 3 2 1 1 10 64 85 33
7 3 2 1 1 32 33 85 82
8 3 2 1 1 9 61 100 43
9 3 2 1 1 73 107 110 90
10 3 2 1 1 13 74 108 2
11 3 2 1 1 16 67 101 5
12 3 2 1 1 101 128 106 5
13 3 2 1 1 4 15 88 87
14 3 2 1 1 7 19 84 29
15 3 2 1 1 21 90 110 20
16 3 2 1 1 28 29 84 78
17 3 2 1 1 79 77 41 42
18 3 2 1 1 97 96 46 47
19 3 2 1 1 56 98 118 55
20 3 2 1 1 82 85 72 105
21 3 2 1 1 79 106 128 77
22 3 2 1 1 115 77 128 133
23 3 2 1 1 76 87 88 95
24 3 2 1 1 96 97 129 102
25 3 2 1 1 118 98 124 131
26 3 2 1 1 67 122 134 101
27 3 2 1 1 137 124 103 135
28 3 2 1 1 69 126 140 114
29 3 2 1 1 97 120 136 129
30 3 2 1 1 133 134 147 126
31 3 2 1 1 122 150 147 134
32 3 2 1 1 137 135 142 145
33 3 2 1 1 13 1 73 74
34 3 2 1 1 107 73 1 86
35 3 2 1 1 14 2 105 72
36 3 2 1 1 109 67 16 4
37 3 2 1 1 106 83 17 5
38 3 2 1 1 3 14 72 63
39 3 2 1 1 3 63 88 15
40 3 2 1 1 6 17 83 62
41 3 2 1 1 6 62 89 18
42 3 2 1 1 1 18 89 86
43 3 2 1 1 19 20 110 84
44 3 2 1 1 21 22 111 90
45 3 2 1 1 22 23 91 111
46 3 2 1 1 23 24 75 91
47 3 2 1 1 8 30 92 25
48 3 2 1 1 24 25 92 75
49 3 2 1 1 9 26 93 61
50 3 2 1 1 27 71 93 26
51 3 2 1 1 28 78 71 27
52 3 2 1 1 32 82 112 31
53 3 2 1 1 30 31 112 92
54 3 2 1 1 11 34 80 60
55 3 2 1 1 34 35 94 80
56 3 2 1 1 37 65 113 36
57 3 2 1 1 35 36 113 94
58 3 2 1 1 38 114 65 37
59 3 2 1 1 39 69 114 38
60 3 2 1 1 40 115 69 39
61 3 2 1 1 41 77 115 40
62 3 2 1 1 10 44 95 64
63 3 2 1 1 45 76 95 44
64 3 2 1 1 46 96 76 45
65 3 2 1 1 48 120 97 47
66 3 2 1 1 49 66 120 48
67 3 2 1 1 49 50 116 66
68 3 2 1 1 51 70 116 50
69 3 2 1 1 51 52 117 70
70 3 2 1 1 53 81 117 52
71 3 2 1 1 12 54 81 53
72 3 2 1 1 54 55 118 81
73 3 2 1 1 56 57 68 98
74 3 2 1 1 58 119 68 57
75 3 2 1 1 119 58 59 99
76 3 2 1 1 60 80 99 59
77 3 2 1 1 100 61 62 83
78 3 2 1 1 62 61 93 89
79 3 2 1 1 63 72 85 64
80 3 2 1 1 63 64 95 88
81 3 2 1 1 138 122 67 109
82 3 2 1 1 98 68 103 124
83 3 2 1 1 78 107 86 71
84 3 2 1 1 86 89 93 71
85 3 2 1 1 73 90 111 74
86 3 2 1 1 91 75 127 108
87 3 2 1 1 92 112 127 75
88 3 2 1 1 78 84 110 107
89 3 2 1 1 76 96 102 87
90 3 2 1 1 4 87 102 109
91 3 2 1 1 74 111 91 108
92 3 2 1 1 80 94 104 99
93 3 2 1 1 119 99 104 132
94 3 2 1 1 133 128 101 134
95 3 2 1 1 132 141 135 103
96 3 2 1 1 94 113 130 104
97 3 2 1 1 2 108 127 105
98 3 2 1 1 65 121 130 113
99 3 2 1 1 65 114 140 121
100 3 2 1 1 66 116 139 123
101 3 2 1 1 70 125 139 116
102 3 2 1 1 81 118 131 117
103 3 2 1 1 70 117 131 125
104 3 2 1 1 66 123 136 120
105 3 2 1 1 130 121 146 141
106 3 2 1 1 144 136 123 143
107 3 2 1 1 145 143 123 139
108 3 2 1 1 124 137 125 131
109 3 2 1 1 145 139 125 137
110 3 2 1 1 140 126 147 148
111 3 2 1 1 104 130 141 132
112 3 2 1 1 141 146 142 135
113 3 2 1 1 121 140 148 146
114 3 2 1 1 146 148 149 142
115 3 2 1 1 42 43 100 79
116 3 2 1 1 132 103 68 119
117 3 2 1 1 126 69 115 133
118 3 2 1 1 142 149 143 145
119 3 2 1 1 109 102 129 138
120 3 2 1 1 138 144 150 122
$EndElements
