$MeshFormat
2.2 0 8
$EndMeshFormat
$Nodes
1396
1 200 50 0
2 200 400 0
3 50 400 0
4 50 50 0
5 0 400 0
6 0 0 0
7 450 400 0
8 450 0 0
9 200 60 0
10 200 70 0
11 200 80 0
12 200 90 0
13 200 100 0
14 200 110 0
15 200 120 0
16 200 130 0
17 200 140 0
18 200 150 0
19 200 160 0
20 200 170 0
21 200 180 0
22 200 190 0
23 200 200 0
24 200 210 0
25 200 220 0
26 200 230 0
27 200 240 0
28 200 250 0
29 200 260 0
30 200 270 0
31 200 280 0
32 200 290 0
33 200 300 0
34 200 310 0
35 200 320 0
36 200 330 0
37 200 340 0
38 200 350 0
39 200 360 0
40 200 370 0
41 200 380 0
42 200 390 0
43 50 390 0
44 50 380 0
45 50 370 0
46 50 360 0
47 50 350 0
48 50 340 0
49 50 330 0
50 50 320 0
51 50 310 0
52 50 300 0
53 50 290 0
54 50 280 0
55 50 270 0
56 50 260 0
57 50 250 0
58 50 240 0
59 50 230 0
60 50 220 0
61 50 210 0
62 50 200 0
63 50 190 0
64 50 180 0
65 50 170 0
66 50 160 0
67 50 150 0
68 50 140 0
69 50 130 0
70 50 120 0
71 50 110 0
72 50 100 0
73 50 90 0
74 50 80 0
75 50 70 0
76 50 60 0
77 60 50 0
78 70 50 0
79 80 50 0
80 90 50 0
81 100 50 0
82 110 50 0
83 120 50 0
84 130 50 0
85 140 50 0
86 150 50 0
87 160 50 0
88 170 50 0
89 180 50 0
90 190 50 0
91 0 390 0
92 0 380 0
93 0 370 0
94 0 360 0
95 0 350 0
96 0 340 0
97 0 330 0
98 0 320 0
99 0 310 0
100 0 300 0
101 0 290 0
102 0 280 0
103 0 270 0
104 0 260 0
105 0 250 0
106 0 240 0
107 0 230 0
108 0 220 0
109 0 210 0
110 0 200 0
111 0 190 0
112 0 180 0
113 0 170 0
114 0 160 0
115 0 150 0
116 0 140 0
117 0 130 0
118 0 120 0
119 0 110 0
120 0 100 0
121 0 90 0
122 0 80 0
123 0 70 0
124 0 59.9999999999999 0
125 0 50 0
126 0 40 0
127 0 30 0
128 0 20 0
129 0 9.99999999999994 0
130 40 400 0
131 30 400 0
132 20 400 0
133 10 400 0
134 440 400 0
135 430 400 0
136 420 400 0
137 410 400 0
138 400 400 0
139 390 400 0
140 380 400 0
141 370 400 0
142 360 400 0
143 350 400 0
144 340 400 0
145 330 400 0
146 320 400 0
147 310 400 0
148 300 400 0
149 290 400 0
150 280 400 0
151 270 400 0
152 260 400 0
153 250 400 0
154 240 400 0
155 230 400 0
156 220 400 0
157 210 400 0
158 450 10 0
159 450 20 0
160 450 30 0
161 450 40 0
162 450 50 0
163 450 60 0
164 450 70 0
165 450 80 0
166 450 90 0
167 450 100 0
168 450 110 0
169 450 120 0
170 450 130 0
171 450 140 0
172 450 150 0
173 450 160 0
174 450 170 0
175 450 180 0
176 450 190 0
177 450 200 0
178 450 210 0
179 450 220 0
180 450 230 0
181 450 240 0
182 450 250 0
183 450 260 0
184 450 270 0
185 450 280 0
186 450 290 0
187 450 300 0
188 450 310 0
189 450 320 0
190 450 330 0
191 450 340 0
192 450 350 0
193 450 360 0
194 450 370 0
195 450 380 0
196 450 390 0
197 10 0 0
198 20 0 0
199 30 0 0
200 40 0 0
201 50 0 0
202 60 0 0
203 70 0 0
204 80 0 0
205 90 0 0
206 100 0 0
207 110 0 0
208 120 0 0
209 130 0 0
210 140 0 0
211 150 0 0
212 160 0 0
213 170 0 0
214 180 0 0
215 190 0 0
216 200 0 0
217 210 0 0
218 220 0 0
219 230 0 0
220 240 0 0
221 250 0 0
222 260 0 0
223 270 0 0
224 280 0 0
225 290 0 0
226 300 0 0
227 310 0 0
228 320 0 0
229 330 0 0
230 340 0 0
231 350 0 0
232 360 0 0
233 370 0 0
234 380 0 0
235 390 0 0
236 400 0 0
237 410 0 0
238 420 0 0
239 430 0 0
240 440 0 0
241 440 170 0
242 209.98794245006 229.911988694669 0
243 440 240 0
244 210 130 0
245 330 390 0
246 310 10 0
247 440 110 0
248 210.000000038961 289.999999907827 0
249 440 290 0
250 380 10 0
251 370 390 0
252 210 80 0
253 280 390 0
254 440 340 0
255 210 340 0
256 260 10 0
257 440 60 0
258 240 390 0
259 400 390 0
260 10 60 0
261 10 110 0
262 40 220 0
263 10 160 0
264 160 10 0
265 230 10 0
266 120 10 0
267 190 40 0
268 50 40 0
269 40 360 0
270 40 330 0
271 40 300 0
272 40 270 0
273 40 240 0
274 40 190 0
275 40 130 0
276 40 80 0
277 70 40 0
278 90 40 0
279 209.963127406176 189.963787096859 0
280 440 360 0
281 10 40 0
282 440 30 0
283 10 230 0
284 40 50 0
285 40 100 0
286 350 10 0
287 40 160 0
288 140 40 0
289 160 40 0
290 110 40 0
291 420 390 0
292 440 200 0
293 410 10 0
294 210 370 0
295 10 380 0
296 10 360 0
297 10 340 0
298 10 320 0
299 10 300 0
300 10 280 0
301 10 260 0
302 10 210 0
303 10 190 0
304 10 140 0
305 10 90 0
306 30 10 0
307 60 10 0
308 90 10 0
309 190 10 0
310 440 10 0
311 209.999052490482 169.999158982268 0
312 440 130 0
313 440 260 0
314 210 60 0
315 210.000039915528 269.999859829793 0
316 210 320 0
317 210 390 0
318 440 310 0
319 10 10 0
320 440 380 0
321 40 380 0
322 440 270 0
323 10 130 0
324 10 80 0
325 370 10 0
326 440 320 0
327 210.001991446254 249.989773775189 0
328 440 150 0
329 440 210 0
330 300 10 0
331 440 180 0
332 150 10 0
333 40 200 0
334 110 10 0
335 220 10 0
336 340 10 0
337 440 90 0
338 440 220 0
339 250 10 0
340 330 10 0
341 440 40 0
342 440 70 0
343 180 10 0
344 209.908004830721 209.852478026335 0
345 120 40 0
346 400 10 0
347 209.99988156131 159.999894872783 0
348 380 390 0
349 350 390 0
350 210 100 0
351 210 120 0
352 209.999985195164 149.999986859098 0
353 210 310 0
354 210 360 0
355 40 390 0
356 40 340 0
357 40 310 0
358 40 280 0
359 40 250 0
360 40 170 0
361 40 140 0
362 40 110 0
363 40 60 0
364 170 40 0
365 10 390 0
366 10 250 0
367 10 180 0
368 10 30 0
369 20 390 0
370 310 390 0
371 290 390 0
372 260 390 0
373 220 390 0
374 50 10 0
375 80 10 0
376 210 10 0
377 280 10 0
378 430 10 0
379 140 10 0
380 440 390 0
381 430 260 0
382 430 200 0
383 219.997472731143 169.99802571112 0
384 340 20 0
385 430 310 0
386 370 380 0
387 220 320 0
388 380 20 0
389 280 380 0
390 430 60 0
391 410 20 0
392 230 20 0
393 219.999999911213 129.99999994032 0
394 210 50 0
395 310 20 0
396 40 40 0
397 30 100 0
398 30 50 0
399 160 20 0
400 30 160 0
401 430 30 0
402 120 20 0
403 20 140 0
404 20 90 0
405 190 20 0
406 30 240 0
407 30 190 0
408 20 260 0
409 20 40 0
410 220 370 0
411 60 20 0
412 30 330 0
413 30 300 0
414 30 270 0
415 90 20 0
416 20 380 0
417 440 280 0
418 10 120 0
419 10 70 0
420 440 370 0
421 440 330 0
422 440 20 0
423 440 160 0
424 10 240 0
425 390 10 0
426 210.00057860635 259.997059451569 0
427 160 30 0
428 440 230 0
429 440 300 0
430 10 200 0
431 440 250 0
432 430 380 0
433 210.001944622591 239.957547401817 0
434 40 210 0
435 10 20 0
436 430 390 0
437 440 100 0
438 440 140 0
439 440 190 0
440 20 10 0
441 360 10 0
442 420 10 0
443 430 210 0
444 209.938335074551 219.844129446722 0
445 10 170 0
446 170 10 0
447 320 10 0
448 209.914779323962 199.898118750701 0
449 219.999571811998 159.99966159592 0
450 40 320 0
451 10 270 0
452 440 50 0
453 440 80 0
454 130 10 0
455 210 70 0
456 209.987732028209 179.989168744067 0
457 210.000008291147 279.999970093719 0
458 40 230 0
459 40 150 0
460 40 120 0
461 40 90 0
462 40 70 0
463 130 40 0
464 150 40 0
465 10 220 0
466 10 150 0
467 10 100 0
468 10 50 0
469 410 390 0
470 390 390 0
471 360 390 0
472 440 120 0
473 200 10 0
474 240 10 0
475 110 30 0
476 20 190 0
477 220 20 0
478 40 180 0
479 180 40 0
480 340 390 0
481 270 10 0
482 200 40 0
483 210 90 0
484 210 110 0
485 210.000000010916 299.999999974176 0
486 210 330 0
487 210 350 0
488 210 380 0
489 40 370 0
490 40 350 0
491 40 290 0
492 40 260 0
493 60 40 0
494 80 40 0
495 100 40 0
496 10 370 0
497 10 350 0
498 10 330 0
499 10 310 0
500 30 390 0
501 320 390 0
502 300 390 0
503 270 390 0
504 250 390 0
505 230 390 0
506 40 10 0
507 70 10 0
508 30 130 0
509 150 20 0
510 440 350 0
511 100 10 0
512 209.999998143846 139.999998353657 0
513 10 290 0
514 290 10 0
515 219.952050601511 229.730844490643 0
516 430 140 0
517 420 200 0
518 229.994879263825 169.996574597277 0
519 220 70 0
520 430 340 0
521 280 20 0
522 220.000021080478 279.999909121412 0
523 320 380 0
524 400 380 0
525 430 90 0
526 390 20 0
527 30 220 0
528 430 240 0
529 20 70 0
530 220.001279346687 259.992454491499 0
531 430 290 0
532 430 270 0
533 230 30 0
534 320 20 0
535 430 220 0
536 420 380 0
537 219.746104801826 199.766225322312 0
538 430 40 0
539 140 20 0
540 210 20 0
541 430 110 0
542 170 30 0
543 30 170 0
544 30 200 0
545 30 120 0
546 40 30 0
547 300 20 0
548 220 90 0
549 210 40 0
550 220 350 0
551 30 350 0
552 80 20 0
553 30 320 0
554 240 380 0
555 219.999997943712 139.99999836864 0
556 30 290 0
557 400 20 0
558 430 180 0
559 20 110 0
560 20 60 0
561 30 60 0
562 20 230 0
563 360 20 0
564 20 220 0
565 430 250 0
566 430 320 0
567 430 150 0
568 430 190 0
569 20 160 0
570 350 20 0
571 20 120 0
572 430 300 0
573 370 20 0
574 430 170 0
575 30 70 0
576 30 180 0
577 330 20 0
578 430 20 0
579 219.998893890749 239.875432433337 0
580 420 20 0
581 430 120 0
582 240 20 0
583 430 70 0
584 219.801854254444 219.597554250582 0
585 430 50 0
586 170 20 0
587 180 20 0
588 20 250 0
589 20 180 0
590 30 90 0
591 30 150 0
592 130 20 0
593 150 30 0
594 219.970187196883 179.977897315091 0
595 130 30 0
596 110 20 0
597 120 30 0
598 30 310 0
599 20 150 0
600 30 230 0
601 330 380 0
602 220.000000027436 299.999999935092 0
603 270 20 0
604 430 360 0
605 20 210 0
606 220 50 0
607 380 380 0
608 360 380 0
609 340 380 0
610 30 250 0
611 30 140 0
612 30 110 0
613 30 40 0
614 200 20 0
615 20 200 0
616 190 30 0
617 220 110 0
618 219.999999988902 119.99999999254 0
619 220.000000004112 309.999999990272 0
620 300 380 0
621 100 30 0
622 100 20 0
623 220 330 0
624 50 30 0
625 30 360 0
626 60 30 0
627 70 30 0
628 80 30 0
629 20 370 0
630 20 360 0
631 20 340 0
632 20 330 0
633 20 320 0
634 20 310 0
635 20 300 0
636 20 280 0
637 40 20 0
638 30 370 0
639 30 380 0
640 219.999929658702 149.999944345524 0
641 220 360 0
642 30 340 0
643 20 30 0
644 30 20 0
645 290 380 0
646 270 380 0
647 250 380 0
648 220 380 0
649 50 20 0
650 20 270 0
651 30 260 0
652 70 20 0
653 20 100 0
654 20 130 0
655 20 80 0
656 30 280 0
657 20 20 0
658 20 50 0
659 430 370 0
660 420 250 0
661 229.885735344532 229.604942551868 0
662 420 140 0
663 229.999999600093 129.999999715619 0
664 320 370 0
665 340 30 0
666 420 300 0
667 230.000000052533 299.99999987572 0
668 370 370 0
669 280 370 0
670 380 30 0
671 280 30 0
672 420 60 0
673 400 30 0
674 240 30 0
675 229.949727683584 179.971786615728 0
676 250 20 0
677 230 350 0
678 230 330 0
679 240 370 0
680 430 280 0
681 420 180 0
682 420 260 0
683 420 310 0
684 430 350 0
685 220.000287131941 269.998430570992 0
686 420 40 0
687 420 30 0
688 360 30 0
689 430 230 0
690 220 40 0
691 430 80 0
692 430 130 0
693 410 380 0
694 320 30 0
695 310 30 0
696 219.688668743494 209.62634760519 0
697 30 210 0
698 20 170 0
699 420 190 0
700 220 30 0
701 260 20 0
702 140 30 0
703 30 80 0
704 219.875372780516 189.904244631641 0
705 220.003168501377 249.956985264903 0
706 430 330 0
707 210 30 0
708 420 360 0
709 220.000004501403 289.999980581528 0
710 220 80 0
711 220 60 0
712 350 380 0
713 220 100 0
714 310 380 0
715 230.000000000257 319.999999999392 0
716 20 240 0
717 430 100 0
718 229.998799824355 159.999195424974 0
719 390 380 0
720 180 30 0
721 200 30 0
722 30 30 0
723 330 370 0
724 229.999999997746 109.999999998485 0
725 430 160 0
726 220 340 0
727 90 30 0
728 260 380 0
729 420 210 0
730 20 350 0
731 20 290 0
732 290 20 0
733 290 370 0
734 230 380 0
735 230 370 0
736 229.999797506704 149.999859934384 0
737 420 370 0
738 410 250 0
739 410 200 0
740 239.998534156646 159.999113745956 0
741 320 360 0
742 410 300 0
743 310 40 0
744 420 90 0
745 230 70 0
746 280 360 0
747 240.000000000016 329.999999999962 0
748 230.001644031237 259.986257590034 0
749 290 30 0
750 420 70 0
751 390 370 0
752 300 370 0
753 420 340 0
754 390 30 0
755 420 290 0
756 420 280 0
757 420 170 0
758 420 120 0
759 370 30 0
760 229.613525497282 219.485500387093 0
761 420 50 0
762 420 130 0
763 230.000410199927 269.997035361566 0
764 410 30 0
765 420 220 0
766 230 40 0
767 260 30 0
768 229.537176958515 199.71830698508 0
769 250 30 0
770 229.794160570479 189.889889368194 0
771 420 100 0
772 420 320 0
773 410 180 0
774 270 30 0
775 380 370 0
776 230.000006428143 289.999968475797 0
777 410 360 0
778 400 370 0
779 230 50 0
780 350 370 0
781 360 370 0
782 410 370 0
783 239.922812150185 179.97532537411 0
784 420 240 0
785 300 30 0
786 230 80 0
787 230 90 0
788 330 30 0
789 340 370 0
790 229.999999927186 119.99999994911 0
791 230.000000011712 309.999999972292 0
792 310 370 0
793 229.999999999718 99.9999999998106 0
794 229.980800109231 239.818338201832 0
795 250 370 0
796 230 360 0
797 260 370 0
798 270 370 0
799 230.000000000001 339.999999999998 0
800 420 270 0
801 229.999967480147 139.999977090243 0
802 420 150 0
803 420 350 0
804 350 30 0
805 239.802980627027 229.696426986847 0
806 410 140 0
807 239.999999991053 109.999999993864 0
808 360 40 0
809 370 360 0
810 410 90 0
811 280 40 0
812 240 70 0
813 240.000787364627 259.985444492809 0
814 410 60 0
815 410 170 0
816 260 40 0
817 240.00000737216 289.999957855413 0
818 250 360 0
819 410 280 0
820 380 40 0
821 400 40 0
822 410 240 0
823 300 40 0
824 340 360 0
825 240.000000000002 339.999999999995 0
826 239.999976506688 139.999983828916 0
827 410 260 0
828 240 50 0
829 340 40 0
830 410 290 0
831 420 160 0
832 420 110 0
833 240 40 0
834 410 120 0
835 410 210 0
836 239.704992342494 189.921491608721 0
837 420 80 0
838 230.000091296867 279.999406558231 0
839 410 310 0
840 229.999658362321 249.934563620203 0
841 380 360 0
842 400 360 0
843 350 360 0
844 239.980560279865 169.993007848875 0
845 240.000000013243 309.999999967273 0
846 410 40 0
847 229.442756112052 209.571495007854 0
848 330 360 0
849 239.999994476455 129.99999617204 0
850 420 230 0
851 230 60 0
852 240.000000002422 319.999999994097 0
853 290 360 0
854 310 360 0
855 240 80 0
856 239.999999998705 99.9999999991146 0
857 410 190 0
858 320 40 0
859 239.999644388245 149.999779960443 0
860 270 360 0
861 240 349.999999999999 0
862 240 360 0
863 420 330 0
864 410 340 0
865 410 350 0
866 400 250 0
867 400 210 0
868 249.978266998657 169.995542088336 0
869 320 350 0
870 400 290 0
871 310 50 0
872 249.999999991147 109.999999994033 0
873 250.000000013461 309.999999960133 0
874 280 350 0
875 370 350 0
876 250 70 0
877 250.000000000212 329.999999999418 0
878 239.995271510347 249.935625407533 0
879 410 100 0
880 410 160 0
881 410 230 0
882 410 80 0
883 240.000307836208 269.996043985792 0
884 340 350 0
885 249.999698244014 149.999833308875 0
886 410 320 0
887 239.23413903419 209.703537517901 0
888 239.396211361601 199.832614855957 0
889 370 40 0
890 239.945292542439 239.838970514921 0
891 410 110 0
892 410 150 0
893 410 220 0
894 400 50 0
895 410 70 0
896 270 40 0
897 390 40 0
898 290 40 0
899 240.000090227007 279.999092080566 0
900 400 300 0
901 240.000001595904 299.999991134075 0
902 390 360 0
903 400 340 0
904 360 360 0
905 410 50 0
906 249.999933397767 139.999960971259 0
907 300 360 0
908 249.635876658224 189.97021854312 0
909 239.999999999821 89.9999999998775 0
910 239.999999216675 119.999999457839 0
911 240 60 0
912 400 200 0
913 250 40 0
914 400 180 0
915 260 360 0
916 250 350 0
917 400 350 0
918 410 270 0
919 330 40 0
920 410 330 0
921 410 130 0
922 350 40 0
923 239.489142452075 219.664087418455 0
924 249.707537337773 229.852142922386 0
925 400 140 0
926 390 210 0
927 259.999697582315 149.999900526754 0
928 400 100 0
929 370 49.9999999999999 0
930 390 290 0
931 400 80 0
932 249.997816766031 259.98515388067 0
933 290 50 0
934 249.235301615643 199.941085891928 0
935 390 340 0
936 400 60 0
937 250.000033738401 279.999319459414 0
938 250.00000128848 299.999991111436 0
939 270 50 0
940 350 350 0
941 249.999999378276 119.999999574036 0
942 270 350 0
943 250 50 0
944 350 50 0
945 400 280 0
946 249.905694338506 239.897500269354 0
947 380 350 0
948 400 150 0
949 400 170 0
950 400 220 0
951 380 50 0
952 249.091272274914 209.891492754236 0
953 390 50 0
954 300 50 0
955 330 350 0
956 360 350 0
957 390 350 0
958 250.000000003421 319.999999990075 0
959 300 350 0
960 310 350 0
961 249.999999997582 99.9999999983633 0
962 249.999999999982 79.9999999999875 0
963 250 60 0
964 249.879101266794 179.984636042106 0
965 400 240 0
966 250.000000000028 339.999999999924 0
967 400 120 0
968 249.99998874017 129.999993119819 0
969 290 350 0
970 400 190 0
971 320 50 0
972 249.994642681501 159.998626110118 0
973 260.000000000002 349.999999999995 0
974 340 50 0
975 400 310 0
976 400 320 0
977 400 260 0
978 400 330 0
979 259.623026166471 229.931899461884 0
980 390 140 0
981 320 340 0
982 259.999999033883 119.999999395515 0
983 310 60 0
984 260.00000065083 299.999992035237 0
985 350 60 0
986 350 340 0
987 390 310 0
988 280 340 0
989 259.215596004587 199.987922310916 0
990 390 170 0
991 390 280 0
992 380 59.9999999999999 0
993 390 220 0
994 260.000000000454 329.999999998494 0
995 259.999999999998 69.9999999999989 0
996 259.880787179686 179.995405418395 0
997 259.994846348556 159.999276792515 0
998 390 60 0
999 400 90 0
1000 380 340 0
1001 400 70 0
1002 280 50 0
1003 250.000012585683 289.999831197653 0
1004 249.999746135335 269.995705779447 0
1005 300 60 0
1006 300 340 0
1007 260.000000168469 309.999998423912 0
1008 330 340 0
1009 259.999999835853 109.999999894773 0
1010 360 340 0
1011 400 230 0
1012 400 110 0
1013 249.999999999521 89.9999999996752 0
1014 400 270 0
1015 260.000000000074 339.999999999765 0
1016 390 200 0
1017 260 50 0
1018 259.999925409855 139.999968992001 0
1019 390 180 0
1020 330 50 0
1021 400 160 0
1022 249.975742913942 249.951033068313 0
1023 400 130 0
1024 360 50 0
1025 390 300 0
1026 390 320 0
1027 390 330 0
1028 249.341689780453 219.844063329371 0
1029 380 210 0
1030 380 170 0
1031 269.999167753996 149.999914986866 0
1032 320 329.999999999998 0
1033 380 290 0
1034 269.999999602229 119.999999787077 0
1035 310 70 0
1036 390 100 0
1037 350 330 0
1038 380 310 0
1039 270.000000133266 299.999993335835 0
1040 259.994199499169 259.989327322554 0
1041 259.206341718431 219.938033492906 0
1042 390 150 0
1043 380 330 0
1044 360 59.9999999999999 0
1045 259.025942185845 209.960937010814 0
1046 390 270 0
1047 390 80 0
1048 380 69.9999999999999 0
1049 370 340 0
1050 390 230 0
1051 390 120 0
1052 390 130 0
1053 320 60 0
1054 259.999942073377 279.999311671206 0
1055 310 340 0
1056 270.000000000362 329.999999998587 0
1057 259.999993566328 289.99982127353 0
1058 259.964162030038 169.997395600586 0
1059 340 340 0
1060 280 60 0
1061 290 60 0
1062 270.000000000083 339.9999999997 0
1063 270 59.9999999999999 0
1064 259.999999977852 99.9999999857486 0
1065 259.999999999938 79.9999999999582 0
1066 259.99998371811 129.999992223735 0
1067 259.622645181305 189.98974458813 0
1068 290 340 0
1069 259.867210418297 239.947667663237 0
1070 260.0000000233 319.999999795362 0
1071 390 190 0
1072 390 160 0
1073 260 59.9999999999999 0
1074 340 60 0
1075 370 59.9999999999999 0
1076 390 69.9999999999999 0
1077 269.18005015717 219.971300425479 0
1078 269.63955410907 189.997690069669 0
1079 380 140 0
1080 350 69.9999999999999 0
1081 290.000000000083 329.99999999962 0
1082 320 70 0
1083 380 79.9999999999999 0
1084 370 330 0
1085 310.000000000004 329.999999999982 0
1086 340 330 0
1087 289.999999999999 69.9999999999993 0
1088 270.000000073562 309.999998247171 0
1089 380 160 0
1090 269.999990563 129.999996191586 0
1091 269.006228534289 209.980718837716 0
1092 380 280 0
1093 390 90 0
1094 390 250 0
1095 390 240 0
1096 380 120 0
1097 280.000000000272 329.999999998855 0
1098 300 69.9999999999999 0
1099 360 330 0
1100 269.999983735766 289.999882303537 0
1101 269.872571675314 179.998312891995 0
1102 269.993221162261 159.999659910548 0
1103 259.998889856717 269.996358086615 0
1104 330 330 0
1105 270.000000022539 319.99999963339 0
1106 269.999999999994 69.999999999996 0
1107 269.999999862887 109.999999918237 0
1108 259.999999996877 89.9999999979788 0
1109 380 230 0
1110 380 220 0
1111 380 200 0
1112 380 180 0
1113 259.960772356537 249.970360346112 0
1114 269.999848353042 139.999976206926 0
1115 390 260 0
1116 390 110 0
1117 330 60 0
1118 370 69.9999999999999 0
1119 380 300 0
1120 380 320 0
1121 269.588098452413 229.968842859858 0
1122 370 210 0
1123 370 170 0
1124 279.999891208671 139.999989109876 0
1125 279.183767500178 219.985417600435 0
1126 279.659659841202 189.998241647252 0
1127 309.999999999999 79.9999999999992 0
1128 320.000000000006 319.999999999972 0
1129 370 290 0
1130 279.999982410195 289.999938323272 0
1131 350 320 0
1132 370 79.9999999999999 0
1133 380 250 0
1134 269.992164373228 259.993899553067 0
1135 330 70 0
1136 279.999998793434 119.999999613775 0
1137 380 100 0
1138 380 89.9999999999999 0
1139 380 270 0
1140 360 69.9999999999999 0
1141 380 240 0
1142 380 110 0
1143 280.000000004594 319.999999775546 0
1144 370 320 0
1145 300.000000000032 329.999999999846 0
1146 299.999999999992 79.9999999999945 0
1147 269.998293163522 269.997635372207 0
1148 269.999661193797 279.999239245981 0
1149 340 70 0
1150 330.000000000001 319.999999999995 0
1151 269.961075691505 169.999026824999 0
1152 269.999999968677 99.9999999806631 0
1153 269.999999999746 79.999999999834 0
1154 380 150 0
1155 370 230 0
1156 380 130 0
1157 269.843016003044 239.975260573875 0
1158 279.99999671305 299.999982763789 0
1159 279.99883949669 149.999958103167 0
1160 380 190 0
1161 279.999999999981 69.9999999999877 0
1162 370 300 0
1163 269.247205049408 199.990761843879 0
1164 370 140 0
1165 289.999319463757 149.999991894832 0
1166 319.999999995957 309.999999985717 0
1167 370 100 0
1168 289.999987232401 289.999968722832 0
1169 340 80 0
1170 309.999999999901 89.9999999999582 0
1171 279.252425689688 199.993074380412 0
1172 360 79.9999999999999 0
1173 279.99345042892 259.997389897787 0
1174 319.999999999994 79.9999999999973 0
1175 370 160 0
1176 289.999999999964 79.9999999999765 0
1177 359.999999999992 289.99999999999 0
1178 370 89.9999999999999 0
1179 380 260 0
1180 279.038092201017 209.988102979207 0
1181 370 250 0
1182 299.999999998325 319.999999973908 0
1183 370 270 0
1184 289.999999996269 319.999999895799 0
1185 279.999999592074 309.999996914044 0
1186 279.998176211676 269.998725988107 0
1187 309.999999999568 319.999999995697 0
1188 279.999999791288 109.999999921497 0
1189 269.999999994093 89.9999999962959 0
1190 340 319.999999999999 0
1191 370 120 0
1192 279.879284698865 179.999324160851 0
1193 370 220 0
1194 279.999568627574 279.999513007709 0
1195 370 240 0
1196 279.962270550147 169.999655560715 0
1197 279.989815911458 159.999834272429 0
1198 279.583633912595 229.98619491436 0
1199 279.999972785059 129.999996328532 0
1200 370 200 0
1201 370 180 0
1202 360 320 0
1203 370 280 0
1204 269.951079965971 249.984668121697 0
1205 370 310 0
1206 279.999999999545 79.999999999712 0
1207 359.983838372183 210.000000590077 0
1208 359.999869020917 250.000000016252 0
1209 289.232396443632 219.994846730877 0
1210 289.692743022722 189.999042669691 0
1211 359.999727105781 170.000000760895 0
1212 289.999997285568 119.999999639112 0
1213 319.999999999973 89.9999999999888 0
1214 299.999999971832 309.999999740796 0
1215 279.999999958816 99.9999999814215 0
1216 279.95786152611 249.993389715416 0
1217 349.999999999973 309.999999999958 0
1218 329.999999998651 309.999999996473 0
1219 360 89.9999999999999 0
1220 369.999991813808 260.000000001016 0
1221 359.999999999997 299.999999999996 0
1222 289.094391944247 209.996035527465 0
1223 350 79.9999999999999 0
1224 289.999996593329 299.999988895322 0
1225 309.999999984115 309.999999897808 0
1226 329.999999999997 79.9999999999989 0
1227 289.999999301139 309.999996943523 0
1228 370 130 0
1229 289.999999996786 89.9999999985396 0
1230 279.999999991378 89.9999999956266 0
1231 359.99437663785 229.999999959012 0
1232 279.836311244239 239.988695651911 0
1233 289.88766525354 179.999689360856 0
1234 289.993515344671 159.999954078922 0
1235 289.99980272472 139.999994395609 0
1236 370 150 0
1237 289.999748604461 279.999797824984 0
1238 289.991912438319 259.998721733937 0
1239 370 110 0
1240 370 190 0
1241 299.99999999917 89.9999999996337 0
1242 359.999999488355 270.000000000054 0
1243 359.999999936026 279.999999999985 0
1244 359.999999999996 309.999999999994 0
1245 359.999999749763 140.000000002063 0
1246 299.089586356846 210.002803675272 0
1247 299.676620230154 190.000991494037 0
1248 299.996678138144 159.999996187654 0
1249 359.999999999837 120 0
1250 319.999999665077 299.999999737997 0
1251 349.999999993805 289.999999998829 0
1252 360 100 0
1253 299.999894691362 279.999940027929 0
1254 309.999999998708 99.9999999995051 0
1255 299.999997956973 299.999995175624 0
1256 289.999999505403 109.999999913474 0
1257 359.999982540385 260.000000002165 0
1258 350 89.9999999999999 0
1259 329.999999999984 89.9999999999945 0
1260 299.999999966027 99.9999999933807 0
1261 289.858522270352 239.995706826113 0
1262 289.952762431015 249.997039524996 0
1263 289.999960991816 129.999997956414 0
1264 289.99999991298 99.9999999799316 0
1265 359.984630922178 219.999999934403 0
1266 289.964043795614 169.999864853563 0
1267 289.601926785659 229.99445458565 0
1268 359.999965638149 160.000000097175 0
1269 359.998128131335 240.000000020433 0
1270 359.984203785468 200.000003170818 0
1271 359.99754592713 180.000003315179 0
1272 299.998991827442 149.999995491142 0
1273 289.997921044596 269.999368760628 0
1274 339.999999999692 309.999999999301 0
1275 349.999999999012 299.999999999558 0
1276 349.999993133734 270.000000027923 0
1277 289.348247635475 199.997656236303 0
1278 299.618524083251 229.999425834153 0
1279 349.890325329676 210.00009883559 0
1280 349.998747453042 250.000003421293 0
1281 299.963345838335 249.998975671558 0
1282 349.997378238309 170.000010341531 0
1283 309.996757558463 160.00001141421 0
1284 349.999999999829 99.9999999999994 0
1285 299.999975547784 129.999999295921 0
1286 309.999999918741 109.999999994198 0
1287 299.972609894993 170.000006249079 0
1288 299.99856284765 269.999753396195 0
1289 299.319591885509 200.002167206999 0
1290 359.999999999969 110 0
1291 349.999775519452 260.000000772457 0
1292 309.999998848107 299.999998446633 0
1293 339.999999999983 89.9999999999982 0
1294 299.999999644148 109.999999955445 0
1295 359.999999967398 130.000000000255 0
1296 299.999965558263 289.999971783324 0
1297 329.999999944688 299.99999994802 0
1298 339.999999756293 289.999999949357 0
1299 349.960611834215 230.000045715933 0
1300 299.99978290262 139.999997978062 0
1301 299.877887447512 180.000230206143 0
1302 349.999999070769 279.999999996954 0
1303 359.999995175292 150.000000016536 0
1304 359.989913074133 190.000005690928 0
1305 339.99999995958 299.999999983617 0
1306 319.999999994188 99.9999999995367 0
1307 299.269107134881 220.001058545447 0
1308 349.999996252381 140.000000026092 0
1309 309.243936888973 220.00403006122 0
1310 339.994018237465 250.00002492321 0
1311 309.256906987575 200.004645206977 0
1312 309.999875864291 139.999999537013 0
1313 309.999234221808 269.999925826763 0
1314 319.999999953146 109.999999998327 0
1315 339.999999999195 99.99999999999 0
1316 319.999995557709 289.999998331351 0
1317 329.999998161967 289.999999475503 0
1318 349.99999998866 120.000000000043 0
1319 349.999999997495 110.000000000006 0
1320 329.999999995194 99.999999999818 0
1321 309.999997509192 119.999999938314 0
1322 309.999769220297 279.999961764859 0
1323 299.850387221151 239.998601380767 0
1324 299.999993278408 119.999999704859 0
1325 309.99995743909 289.99998622897 0
1326 349.905862398656 220.000097823453 0
1327 309.999124536256 150.000000999521 0
1328 339.999912410795 269.999999995711 0
1329 299.988722302289 259.999356394089 0
1330 309.642128309112 190.002022738345 0
1331 309.970504609956 170.00012571873 0
1332 349.999476570655 160.000002400354 0
1333 349.986874473007 240.000023407465 0
1334 349.904673853553 200.000121127117 0
1335 349.983353503937 180.000047415682 0
1336 339.999987266206 279.999999840697 0
1337 339.687105300017 210.000712100961 0
1338 309.863281498769 240.000057038372 0
1339 319.994390024187 160.000030541863 0
1340 319.323800588193 200.003940184766 0
1341 339.998526542463 160.00000872596 0
1342 339.999999685935 120.000000001179 0
1343 319.999998783865 119.999999989571 0
1344 309.991947892716 259.999786204963 0
1345 319.999876373557 279.999987041484 0
1346 339.961913151069 240.000125510597 0
1347 309.088092020926 210.005007619624 0
1348 329.99999987425 109.999999999086 0
1349 309.999963642344 129.999999699108 0
1350 309.614345700553 230.001259828526 0
1351 349.999999441195 130.000000003656 0
1352 339.998658777565 260.0000051052 0
1353 339.874802125906 230.000342328539 0
1354 349.944757092358 190.000111553109 0
1355 309.867692619963 180.000664274447 0
1356 319.998877815985 150.000005247199 0
1357 349.999832545309 150.000000906164 0
1358 339.988262198197 170.000060025143 0
1359 329.999673212313 269.999996584602 0
1360 329.999915437103 279.999996832449 0
1361 339.999999932314 109.999999999998 0
1362 319.350593510692 220.003135460656 0
1363 329.980415737072 250.000074618122 0
1364 319.999981529545 129.999999951145 0
1365 339.999970436776 140.000000179243 0
1366 319.672179118048 230.001469641838 0
1367 329.911126003687 240.000361675595 0
1368 319.993906634504 259.99995972403 0
1369 339.99999430795 130.0000000326 0
1370 329.995437110797 160.000027415358 0
1371 319.879850402847 180.000726931462 0
1372 319.219946533753 210.003909547603 0
1373 329.994874700386 260.000006503892 0
1374 329.999997687709 119.999999999859 0
1375 319.999764697844 140.000000745779 0
1376 319.998164005837 269.999965017511 0
1377 309.953504954621 249.999712910314 0
1378 339.7506731 220.000639215912 0
1379 319.667832255937 190.001954737582 0
1380 319.961175545306 170.000219750612 0
1381 339.751212056155 200.000720799147 0
1382 339.948468756717 180.000226535809 0
1383 339.999439920663 150.000003309821 0
1384 329.468244690513 210.002087508649 0
1385 329.586502190798 220.001658972182 0
1386 319.959305456485 250.000039953674 0
1387 329.762856938175 230.000967786254 0
1388 329.58267304942 200.001910724542 0
1389 329.969233574743 170.000175074907 0
1390 329.760303131562 190.001219326604 0
1391 329.999834701487 140.000000805025 0
1392 329.999958287376 130.000000160505 0
1393 339.85879347075 190.000540928291 0
1394 329.998697971026 150.000007371377 0
1395 319.85773421607 240.000474167202 0
1396 329.893087913161 180.000575307248 0
$EndNodes
$Elements
1275
1 3 2 1 1 934 952 887 888
2 3 2 1 1 952 934 989 1045
3 3 2 1 1 888 887 847 768
4 3 2 1 1 952 1045 1041 1028
5 3 2 1 1 1091 1180 1125 1077
6 3 2 1 1 1311 1347 1246 1289
7 3 2 1 1 1384 1337 1378 1385
8 3 2 1 1 924 1028 1041 979
9 3 2 1 1 1045 1091 1077 1041
10 3 2 1 1 1347 1311 1340 1372
11 3 2 1 1 1180 1222 1209 1125
12 3 2 1 1 1385 1362 1372 1384
13 3 2 1 1 1222 1277 1289 1246
14 3 2 1 1 1387 1367 1395 1366
15 3 2 1 1 1368 1373 1359 1376
16 3 2 1 1 1167 1178 1138 1137
17 3 2 1 1 1384 1388 1381 1337
18 3 2 1 1 1365 1391 1392 1369
19 3 2 1 1 1208 1257 1291 1280
20 3 2 1 1 1257 1208 1181 1220
21 3 2 1 1 1381 1388 1390 1393
22 3 2 1 1 1393 1390 1396 1382
23 3 2 1 1 1339 1370 1389 1380
24 3 2 1 1 951 953 998 992
25 3 2 1 1 1181 1133 1179 1220
26 3 2 1 1 1046 1139 1179 1115
27 3 2 1 1 1316 1317 1297 1250
28 3 2 1 1 755 830 819 756
29 3 2 1 1 819 830 870 945
30 3 2 1 1 1093 1047 931 999
31 3 2 1 1 1368 1386 1363 1373
32 3 2 1 1 759 889 808 688
33 3 2 1 1 1374 1348 1361 1342
34 3 2 1 1 1391 1394 1356 1375
35 3 2 1 1 1389 1396 1371 1380
36 3 2 1 1 1342 1369 1392 1374
37 3 2 1 1 931 882 810 999
38 3 2 1 1 879 771 832 891
39 3 2 1 1 1169 1149 1080 1223
40 3 2 1 1 1167 1252 1219 1178
41 3 2 1 1 612 559 653 397
42 3 2 1 1 561 560 658 398
43 3 2 1 1 571 559 612 545
44 3 2 1 1 529 560 561 575
45 3 2 1 1 892 948 925 806
46 3 2 1 1 867 950 993 926
47 3 2 1 1 965 866 1094 1095
48 3 2 1 1 1320 1315 1361 1348
49 3 2 1 1 1312 1349 1364 1375
50 3 2 1 1 892 802 831 880
51 3 2 1 1 418 261 559 571
52 3 2 1 1 326 566 385 318
53 3 2 1 1 680 531 755 756
54 3 2 1 1 557 673 754 526
55 3 2 1 1 421 706 566 326
56 3 2 1 1 574 757 831 725
57 3 2 1 1 993 1110 1029 926
58 3 2 1 1 1016 926 1029 1111
59 3 2 1 1 993 1050 1109 1110
60 3 2 1 1 417 680 532 322
61 3 2 1 1 564 527 600 562
62 3 2 1 1 532 680 756 800
63 3 2 1 1 936 1001 1076 998
64 3 2 1 1 1027 1043 1120 1026
65 3 2 1 1 692 762 758 581
66 3 2 1 1 863 753 864 920
67 3 2 1 1 1000 1043 1027 935
68 3 2 1 1 1044 1075 1118 1140
69 3 2 1 1 864 753 803 865
70 3 2 1 1 1284 1315 1293 1258
71 3 2 1 1 878 840 794 890
72 3 2 1 1 439 568 558 331
73 3 2 1 1 250 425 526 388
74 3 2 1 1 684 604 708 803
75 3 2 1 1 568 699 681 558
76 3 2 1 1 850 881 893 765
77 3 2 1 1 186 249 417 185
78 3 2 1 1 385 683 666 572
79 3 2 1 1 1094 1133 1141 1095
80 3 2 1 1 1051 967 1023 1052
81 3 2 1 1 329 443 382 292
82 3 2 1 1 528 565 660 784
83 3 2 1 1 119 261 418 118
84 3 2 1 1 124 260 419 123
85 3 2 1 1 233 234 250 325
86 3 2 1 1 1170 1127 1174 1213
87 3 2 1 1 1310 1346 1333 1280
88 3 2 1 1 821 673 764 846
89 3 2 1 1 905 814 936 894
90 3 2 1 1 1038 1205 1162 1119
91 3 2 1 1 328 567 516 438
92 3 2 1 1 516 662 762 692
93 3 2 1 1 895 882 931 1001
94 3 2 1 1 1120 1043 1084 1144
95 3 2 1 1 534 694 695 395
96 3 2 1 1 758 834 891 832
97 3 2 1 1 971 1053 983 871
98 3 2 1 1 1012 967 1051 1116
99 3 2 1 1 1052 980 1079 1156
100 3 2 1 1 1096 1142 1116 1051
101 3 2 1 1 191 254 421 190
102 3 2 1 1 520 254 510 684
103 3 2 1 1 578 422 282 401
104 3 2 1 1 520 684 803 753
105 3 2 1 1 528 243 431 565
106 3 2 1 1 424 716 588 366
107 3 2 1 1 695 785 547 395
108 3 2 1 1 564 605 697 527
109 3 2 1 1 743 823 785 695
110 3 2 1 1 1087 1098 1146 1176
111 3 2 1 1 1174 1226 1259 1213
112 3 2 1 1 1295 1245 1308 1351
113 3 2 1 1 1264 1260 1294 1256
114 3 2 1 1 1315 1320 1259 1293
115 3 2 1 1 1334 1279 1337 1381
116 3 2 1 1 1326 1299 1353 1378
117 3 2 1 1 1391 1375 1364 1392
118 3 2 1 1 423 725 567 328
119 3 2 1 1 318 385 572 429
120 3 2 1 1 760 661 515 584
121 3 2 1 1 8 158 310 240
122 3 2 1 1 1345 1316 1325 1322
123 3 2 1 1 526 425 346 557
124 3 2 1 1 1080 1140 1172 1223
125 3 2 1 1 1225 1187 1182 1214
126 3 2 1 1 1182 1184 1227 1214
127 3 2 1 1 534 395 246 447
128 3 2 1 1 560 260 468 658
129 3 2 1 1 983 1053 1082 1035
130 3 2 1 1 857 739 912 970
131 3 2 1 1 991 930 1033 1092
132 3 2 1 1 1025 1119 1033 930
133 3 2 1 1 933 954 1005 1061
134 3 2 1 1 1203 1243 1242 1183
135 3 2 1 1 1220 1183 1242 1257
136 3 2 1 1 1261 1267 1278 1323
137 3 2 1 1 1299 1333 1346 1353
138 3 2 1 1 896 816 767 774
139 3 2 1 1 446 343 587 586
140 3 2 1 1 442 378 578 580
141 3 2 1 1 391 580 687 764
142 3 2 1 1 687 686 846 764
143 3 2 1 1 863 920 886 772
144 3 2 1 1 936 814 895 1001
145 3 2 1 1 1016 1071 970 912
146 3 2 1 1 970 1071 1019 914
147 3 2 1 1 1048 1118 1075 992
148 3 2 1 1 1099 1202 1144 1084
149 3 2 1 1 1160 1111 1200 1240
150 3 2 1 1 1162 1221 1177 1129
151 3 2 1 1 1243 1177 1251 1302
152 3 2 1 1 1274 1305 1275 1217
153 3 2 1 1 1243 1302 1276 1242
154 3 2 1 1 1363 1310 1352 1373
155 3 2 1 1 1386 1368 1344 1377
156 3 2 1 1 421 254 520 706
157 3 2 1 1 399 509 332 264
158 3 2 1 1 399 264 446 586
159 3 2 1 1 531 572 666 755
160 3 2 1 1 895 750 837 882
161 3 2 1 1 921 806 925 1023
162 3 2 1 1 811 898 933 1002
163 3 2 1 1 829 922 944 974
164 3 2 1 1 1049 1010 1099 1084
165 3 2 1 1 1000 1049 1084 1043
166 3 2 1 1 1083 1132 1118 1048
167 3 2 1 1 1160 1240 1201 1112
168 3 2 1 1 1148 1147 1186 1194
169 3 2 1 1 578 401 687 580
170 3 2 1 1 749 898 811 671
171 3 2 1 1 1093 1138 1083 1047
172 3 2 1 1 422 310 158 159
173 3 2 1 1 332 379 210 211
174 3 2 1 1 572 531 249 429
175 3 2 1 1 338 428 689 535
176 3 2 1 1 689 850 765 535
177 3 2 1 1 522 685 763 838
178 3 2 1 1 788 919 858 694
179 3 2 1 1 765 893 835 729
180 3 2 1 1 1023 925 980 1052
181 3 2 1 1 939 1002 1060 1063
182 3 2 1 1 1082 1053 1117 1135
183 3 2 1 1 1154 1089 1175 1236
184 3 2 1 1 1156 1228 1191 1096
185 3 2 1 1 1323 1281 1262 1261
186 3 2 1 1 417 249 531 680
187 3 2 1 1 562 600 406 716
188 3 2 1 1 339 676 582 474
189 3 2 1 1 400 569 599 591
190 3 2 1 1 777 865 803 708
191 3 2 1 1 917 865 777 842
192 3 2 1 1 749 785 823 898
193 3 2 1 1 950 867 835 893
194 3 2 1 1 1295 1351 1318 1249
195 3 2 1 1 1231 1269 1333 1299
196 3 2 1 1 1342 1318 1351 1369
197 3 2 1 1 1387 1366 1362 1385
198 3 2 1 1 539 702 595 592
199 3 2 1 1 533 674 833 766
200 3 2 1 1 570 286 441 563
201 3 2 1 1 322 532 381 313
202 3 2 1 1 514 330 547 732
203 3 2 1 1 660 565 381 682
204 3 2 1 1 754 670 388 526
205 3 2 1 1 397 653 404 590
206 3 2 1 1 587 720 542 586
207 3 2 1 1 738 822 784 660
208 3 2 1 1 822 738 866 965
209 3 2 1 1 1288 1329 1344 1313
210 3 2 1 1 529 419 260 560
211 3 2 1 1 573 388 670 759
212 3 2 1 1 688 563 573 759
213 3 2 1 1 1099 1037 1131 1202
214 3 2 1 1 1390 1379 1371 1396
215 3 2 1 1 182 431 243 181
216 3 2 1 1 233 325 441 232
217 3 2 1 1 234 235 425 250
218 3 2 1 1 338 535 443 329
219 3 2 1 1 265 474 582 392
220 3 2 1 1 243 528 689 428
221 3 2 1 1 582 676 769 674
222 3 2 1 1 583 691 837 750
223 3 2 1 1 800 756 819 918
224 3 2 1 1 822 881 850 784
225 3 2 1 1 977 1115 1094 866
226 3 2 1 1 899 883 1004 937
227 3 2 1 1 986 1059 1086 1037
228 3 2 1 1 1150 1128 1166 1218
229 3 2 1 1 1255 1296 1325 1292
230 3 2 1 1 1250 1292 1325 1316
231 3 2 1 1 129 319 435 128
232 3 2 1 1 134 135 436 380
233 3 2 1 1 175 331 241 174
234 3 2 1 1 173 174 241 423
235 3 2 1 1 196 380 320 195
236 3 2 1 1 197 198 440 319
237 3 2 1 1 432 320 380 436
238 3 2 1 1 691 525 744 837
239 3 2 1 1 385 566 772 683
240 3 2 1 1 847 760 584 696
241 3 2 1 1 666 683 839 742
242 3 2 1 1 670 754 897 820
243 3 2 1 1 883 899 838 763
244 3 2 1 1 938 1003 1057 984
245 3 2 1 1 977 1014 1046 1115
246 3 2 1 1 1186 1173 1238 1273
247 3 2 1 1 1214 1227 1224 1255
248 3 2 1 1 28 27 433 327
249 3 2 1 1 187 188 318 429
250 3 2 1 1 558 574 241 331
251 3 2 1 1 378 310 422 578
252 3 2 1 1 286 570 384 336
253 3 2 1 1 337 525 691 453
254 3 2 1 1 945 870 930 991
255 3 2 1 1 1008 981 1032 1104
256 3 2 1 1 1187 1128 1032 1085
257 3 2 1 1 1135 1226 1174 1082
258 3 2 1 1 59 458 262 60
259 3 2 1 1 62 61 434 333
260 3 2 1 1 106 107 283 424
261 3 2 1 1 439 292 382 568
262 3 2 1 1 434 697 544 333
263 3 2 1 1 241 574 725 423
264 3 2 1 1 382 517 699 568
265 3 2 1 1 699 517 739 857
266 3 2 1 1 754 673 821 897
267 3 2 1 1 835 867 912 739
268 3 2 1 1 683 772 886 839
269 3 2 1 1 929 889 820 951
270 3 2 1 1 953 951 820 897
271 3 2 1 1 742 839 975 900
272 3 2 1 1 845 901 938 873
273 3 2 1 1 1046 991 1092 1139
274 3 2 1 1 1143 1105 1088 1185
275 3 2 1 1 1033 1129 1203 1092
276 3 2 1 1 1139 1092 1203 1183
277 3 2 1 1 1141 1195 1155 1109
278 3 2 1 1 1029 1110 1193 1122
279 3 2 1 1 1109 1155 1193 1110
280 3 2 1 1 1133 1181 1195 1141
281 3 2 1 1 1195 1269 1231 1155
282 3 2 1 1 1122 1193 1265 1207
283 3 2 1 1 1155 1231 1265 1193
284 3 2 1 1 1181 1208 1269 1195
285 3 2 1 1 1191 1228 1295 1249
286 3 2 1 1 1212 1256 1294 1324
287 3 2 1 1 1235 1263 1285 1300
288 3 2 1 1 1343 1374 1392 1364
289 3 2 1 1 115 466 263 114
290 3 2 1 1 178 179 338 329
291 3 2 1 1 182 183 313 431
292 3 2 1 1 206 207 334 511
293 3 2 1 1 227 228 447 246
294 3 2 1 1 240 310 378 239
295 3 2 1 1 334 266 402 596
296 3 2 1 1 336 384 577 340
297 3 2 1 1 570 804 665 384
298 3 2 1 1 764 673 557 391
299 3 2 1 1 262 527 697 434
300 3 2 1 1 574 558 681 757
301 3 2 1 1 831 802 567 725
302 3 2 1 1 404 655 703 590
303 3 2 1 1 701 603 774 767
304 3 2 1 1 794 661 805 890
305 3 2 1 1 804 688 808 922
306 3 2 1 1 566 706 863 772
307 3 2 1 1 681 773 815 757
308 3 2 1 1 815 880 831 757
309 3 2 1 1 686 761 905 846
310 3 2 1 1 667 901 845 791
311 3 2 1 1 889 929 1024 808
312 3 2 1 1 975 839 886 976
313 3 2 1 1 1055 981 869 960
314 3 2 1 1 936 998 953 894
315 3 2 1 1 951 992 1075 929
316 3 2 1 1 1026 1120 1038 987
317 3 2 1 1 1016 1111 1160 1071
318 3 2 1 1 1029 1122 1200 1111
319 3 2 1 1 1033 1119 1162 1129
320 3 2 1 1 1186 1147 1134 1173
321 3 2 1 1 1202 1244 1205 1144
322 3 2 1 1 1129 1177 1243 1203
323 3 2 1 1 1264 1256 1188 1215
324 3 2 1 1 1122 1207 1270 1200
325 3 2 1 1 1229 1241 1260 1264
326 3 2 1 1 1275 1305 1298 1251
327 3 2 1 1 1242 1276 1291 1257
328 3 2 1 1 1304 1270 1334 1354
329 3 2 1 1 1302 1336 1328 1276
330 3 2 1 1 6 197 319 129
331 3 2 1 1 7 134 380 196
332 3 2 1 1 175 176 439 331
333 3 2 1 1 243 428 180 181
334 3 2 1 1 676 339 256 701
335 3 2 1 1 262 458 600 527
336 3 2 1 1 516 567 802 662
337 3 2 1 1 905 761 672 814
338 3 2 1 1 672 750 895 814
339 3 2 1 1 773 914 949 815
340 3 2 1 1 864 903 978 920
341 3 2 1 1 808 1024 944 922
342 3 2 1 1 903 935 1027 978
343 3 2 1 1 992 998 1076 1048
344 3 2 1 1 1148 1054 1103 1147
345 3 2 1 1 1019 1071 1160 1112
346 3 2 1 1 1305 1274 1218 1297
347 3 2 1 1 1200 1270 1304 1240
348 3 2 1 1 1304 1354 1335 1271
349 3 2 1 1 26 242 433 27
350 3 2 1 1 262 434 61 60
351 3 2 1 1 437 167 168 247
352 3 2 1 1 335 218 219 265
353 3 2 1 1 515 242 444 584
354 3 2 1 1 461 590 703 276
355 3 2 1 1 419 529 655 324
356 3 2 1 1 534 447 340 577
357 3 2 1 1 583 750 672 390
358 3 2 1 1 585 390 672 761
359 3 2 1 1 312 438 516 692
360 3 2 1 1 263 569 698 445
361 3 2 1 1 384 665 788 577
362 3 2 1 1 534 577 788 694
363 3 2 1 1 762 662 806 921
364 3 2 1 1 665 829 919 788
365 3 2 1 1 662 802 892 806
366 3 2 1 1 949 1021 880 815
367 3 2 1 1 810 879 928 999
368 3 2 1 1 1076 1001 931 1047
369 3 2 1 1 1004 1103 1054 937
370 3 2 1 1 1042 1072 1089 1154
371 3 2 1 1 1037 1086 1190 1131
372 3 2 1 1 1030 1112 1201 1123
373 3 2 1 1 1273 1237 1194 1186
374 3 2 1 1 1304 1271 1201 1240
375 3 2 1 1 1289 1277 1210 1247
376 3 2 1 1 25 24 344 444
377 3 2 1 1 263 445 113 114
378 3 2 1 1 346 293 391 557
379 3 2 1 1 418 571 654 323
380 3 2 1 1 864 865 917 903
381 3 2 1 1 879 891 1012 928
382 3 2 1 1 829 974 1020 919
383 3 2 1 1 1097 1081 1068 988
384 3 2 1 1 1292 1250 1166 1225
385 3 2 1 1 1335 1282 1211 1271
386 3 2 1 1 1225 1214 1255 1292
387 3 2 1 1 51 50 450 357
388 3 2 1 1 108 465 283 107
389 3 2 1 1 169 170 312 472
390 3 2 1 1 329 292 177 178
391 3 2 1 1 322 313 183 184
392 3 2 1 1 417 322 184 185
393 3 2 1 1 326 318 188 189
394 3 2 1 1 334 207 208 266
395 3 2 1 1 212 213 446 264
396 3 2 1 1 336 230 231 286
397 3 2 1 1 441 286 231 232
398 3 2 1 1 579 433 242 515
399 3 2 1 1 541 247 472 581
400 3 2 1 1 391 293 442 580
401 3 2 1 1 605 564 465 302
402 3 2 1 1 692 581 472 312
403 3 2 1 1 250 388 573 325
404 3 2 1 1 563 441 325 573
405 3 2 1 1 509 539 379 332
406 3 2 1 1 265 392 477 335
407 3 2 1 1 257 342 583 390
408 3 2 1 1 691 583 342 453
409 3 2 1 1 450 553 598 357
410 3 2 1 1 285 362 612 397
411 3 2 1 1 445 698 589 367
412 3 2 1 1 257 390 585 452
413 3 2 1 1 582 674 533 392
414 3 2 1 1 569 400 543 698
415 3 2 1 1 687 401 538 686
416 3 2 1 1 315 426 530 685
417 3 2 1 1 399 427 593 509
418 3 2 1 1 337 437 717 525
419 3 2 1 1 247 541 717 437
420 3 2 1 1 263 466 599 569
421 3 2 1 1 300 636 731 513
422 3 2 1 1 771 744 525 717
423 3 2 1 1 748 530 705 840
424 3 2 1 1 770 768 537 704
425 3 2 1 1 761 686 538 585
426 3 2 1 1 832 771 717 541
427 3 2 1 1 541 581 758 832
428 3 2 1 1 553 633 634 598
429 3 2 1 1 769 676 701 767
430 3 2 1 1 695 694 858 743
431 3 2 1 1 810 882 837 744
432 3 2 1 1 744 771 879 810
433 3 2 1 1 1022 932 813 878
434 3 2 1 1 938 901 817 1003
435 3 2 1 1 899 937 1003 817
436 3 2 1 1 809 875 947 841
437 3 2 1 1 957 902 841 947
438 3 2 1 1 902 957 917 842
439 3 2 1 1 743 858 971 871
440 3 2 1 1 1005 954 871 983
441 3 2 1 1 1007 873 938 984
442 3 2 1 1 1000 947 875 1049
443 3 2 1 1 956 1010 1049 875
444 3 2 1 1 1059 986 940 884
445 3 2 1 1 843 940 956 904
446 3 2 1 1 903 917 957 935
447 3 2 1 1 858 919 1020 971
448 3 2 1 1 1012 1116 1036 928
449 3 2 1 1 947 1000 935 957
450 3 2 1 1 874 942 1062 988
451 3 2 1 1 884 955 1008 1059
452 3 2 1 1 940 986 1010 956
453 3 2 1 1 1042 1154 1079 980
454 3 2 1 1 1007 984 1039 1088
455 3 2 1 1 1140 1080 985 1044
456 3 2 1 1 928 1036 1093 999
457 3 2 1 1 971 1020 1117 1053
458 3 2 1 1 974 1074 1117 1020
459 3 2 1 1 1138 1093 1036 1137
460 3 2 1 1 1142 1137 1036 1116
461 3 2 1 1 1051 1052 1156 1096
462 3 2 1 1 1008 1104 1086 1059
463 3 2 1 1 985 1080 1149 1074
464 3 2 1 1 1135 1117 1074 1149
465 3 2 1 1 1097 1143 1184 1081
466 3 2 1 1 1182 1145 1081 1184
467 3 2 1 1 1145 1182 1187 1085
468 3 2 1 1 1032 1128 1150 1104
469 3 2 1 1 1086 1104 1150 1190
470 3 2 1 1 1271 1211 1123 1201
471 3 2 1 1 1166 1128 1187 1225
472 3 2 1 1 1237 1168 1130 1194
473 3 2 1 1 1083 1138 1178 1132
474 3 2 1 1 1149 1169 1226 1135
475 3 2 1 1 1137 1142 1239 1167
476 3 2 1 1 1096 1191 1239 1142
477 3 2 1 1 1185 1227 1184 1143
478 3 2 1 1 1079 1154 1236 1164
479 3 2 1 1 1079 1164 1228 1156
480 3 2 1 1 1252 1167 1239 1290
481 3 2 1 1 1223 1258 1293 1169
482 3 2 1 1 1132 1178 1219 1172
483 3 2 1 1 1123 1211 1268 1175
484 3 2 1 1 1258 1219 1252 1284
485 3 2 1 1 1164 1236 1303 1245
486 3 2 1 1 1175 1268 1303 1236
487 3 2 1 1 1303 1357 1308 1245
488 3 2 1 1 1283 1331 1287 1248
489 3 2 1 1 1290 1319 1284 1252
490 3 2 1 1 1211 1282 1332 1268
491 3 2 1 1 1331 1283 1339 1380
492 3 2 1 1 1370 1339 1356 1394
493 3 2 1 1 1332 1341 1383 1357
494 3 2 1 1 1394 1391 1365 1383
495 3 2 1 1 342 257 163 164
496 3 2 1 1 438 312 170 171
497 3 2 1 1 292 439 176 177
498 3 2 1 1 428 338 179 180
499 3 2 1 1 421 326 189 190
500 3 2 1 1 340 229 230 336
501 3 2 1 1 442 238 239 378
502 3 2 1 1 402 266 454 592
503 3 2 1 1 246 395 547 330
504 3 2 1 1 585 538 341 452
505 3 2 1 1 459 591 611 361
506 3 2 1 1 335 477 540 376
507 3 2 1 1 283 562 716 424
508 3 2 1 1 399 586 542 427
509 3 2 1 1 379 539 592 454
510 3 2 1 1 392 533 700 477
511 3 2 1 1 539 509 593 702
512 3 2 1 1 838 776 709 522
513 3 2 1 1 763 685 530 748
514 3 2 1 1 529 575 703 655
515 3 2 1 1 775 841 902 751
516 3 2 1 1 778 751 902 842
517 3 2 1 1 767 816 913 769
518 3 2 1 1 674 769 913 833
519 3 2 1 1 668 809 841 775
520 3 2 1 1 782 778 842 777
521 3 2 1 1 668 781 904 809
522 3 2 1 1 956 875 809 904
523 3 2 1 1 743 871 954 823
524 3 2 1 1 933 898 823 954
525 3 2 1 1 884 940 843 824
526 3 2 1 1 1008 955 869 981
527 3 2 1 1 893 881 1011 950
528 3 2 1 1 1055 1085 1032 981
529 3 2 1 1 983 1035 1098 1005
530 3 2 1 1 1087 1061 1005 1098
531 3 2 1 1 1085 1055 1006 1145
532 3 2 1 1 1068 1081 1145 1006
533 3 2 1 1 1109 1050 1095 1141
534 3 2 1 1 1143 1097 1056 1105
535 3 2 1 1 996 1058 1151 1101
536 3 2 1 1 1007 1088 1105 1070
537 3 2 1 1 1035 1082 1174 1127
538 3 2 1 1 1039 1158 1185 1088
539 3 2 1 1 1078 1101 1192 1126
540 3 2 1 1 1324 1285 1263 1212
541 3 2 1 1 1170 1213 1306 1254
542 3 2 1 1 1262 1216 1232 1261
543 3 2 1 1 1164 1245 1295 1228
544 3 2 1 1 1191 1249 1290 1239
545 3 2 1 1 1319 1290 1249 1318
546 3 2 1 1 1300 1312 1327 1272
547 3 2 1 1 1349 1312 1300 1285
548 3 2 1 1 1280 1291 1352 1310
549 3 2 1 1 1369 1351 1308 1365
550 3 2 1 1 1383 1365 1308 1357
551 3 2 1 1 1306 1320 1348 1314
552 3 2 1 1 1286 1314 1343 1321
553 3 2 1 1 1284 1319 1361 1315
554 3 2 1 1 1318 1342 1361 1319
555 3 2 1 1 1285 1324 1321 1349
556 3 2 1 1 1312 1375 1356 1327
557 3 2 1 1 1321 1343 1364 1349
558 3 2 1 1 1385 1378 1353 1387
559 3 2 1 1 218 335 376 217
560 3 2 1 1 510 280 604 684
561 3 2 1 1 564 562 283 465
562 3 2 1 1 561 398 284 363
563 3 2 1 1 383 594 456 311
564 3 2 1 1 705 530 426 327
565 3 2 1 1 576 543 360 478
566 3 2 1 1 775 607 386 668
567 3 2 1 1 781 668 386 608
568 3 2 1 1 344 448 537 696
569 3 2 1 1 571 545 508 654
570 3 2 1 1 402 592 595 597
571 3 2 1 1 817 901 667 776
572 3 2 1 1 547 785 749 732
573 3 2 1 1 708 737 782 777
574 3 2 1 1 939 896 811 1002
575 3 2 1 1 884 824 848 955
576 3 2 1 1 1007 1070 958 873
577 3 2 1 1 1060 1002 933 1061
578 3 2 1 1 1006 1055 960 959
579 3 2 1 1 1068 1006 959 969
580 3 2 1 1 988 1062 1056 1097
581 3 2 1 1 1061 1087 1161 1060
582 3 2 1 1 1263 1235 1124 1199
583 3 2 1 1 1212 1263 1199 1136
584 3 2 1 1 1127 1170 1241 1146
585 3 2 1 1 108 109 302 465
586 3 2 1 1 120 121 305 467
587 3 2 1 1 125 126 281 468
588 3 2 1 1 452 162 163 257
589 3 2 1 1 453 342 164 165
590 3 2 1 1 169 472 247 168
591 3 2 1 1 328 438 171 172
592 3 2 1 1 423 328 172 173
593 3 2 1 1 192 193 280 510
594 3 2 1 1 208 209 454 266
595 3 2 1 1 220 221 339 474
596 3 2 1 1 425 235 236 346
597 3 2 1 1 600 458 273 406
598 3 2 1 1 704 537 448 279
599 3 2 1 1 538 401 282 341
600 3 2 1 1 397 590 461 285
601 3 2 1 1 593 427 289 464
602 3 2 1 1 654 403 304 323
603 3 2 1 1 599 466 304 403
604 3 2 1 1 655 404 305 324
605 3 2 1 1 467 305 404 653
606 3 2 1 1 381 565 431 313
607 3 2 1 1 685 522 457 315
608 3 2 1 1 274 333 544 407
609 3 2 1 1 612 362 460 545
610 3 2 1 1 575 561 363 462
611 3 2 1 1 596 402 597 475
612 3 2 1 1 591 599 403 611
613 3 2 1 1 280 420 659 604
614 3 2 1 1 302 430 615 605
615 3 2 1 1 288 702 593 464
616 3 2 1 1 719 751 778 524
617 3 2 1 1 477 700 707 540
618 3 2 1 1 576 589 698 543
619 3 2 1 1 697 605 615 544
620 3 2 1 1 690 549 707 700
621 3 2 1 1 521 671 774 603
622 3 2 1 1 659 737 708 604
623 3 2 1 1 690 766 779 606
624 3 2 1 1 775 751 719 607
625 3 2 1 1 712 780 781 608
626 3 2 1 1 540 707 721 614
627 3 2 1 1 521 732 749 671
628 3 2 1 1 774 671 811 896
629 3 2 1 1 533 766 690 700
630 3 2 1 1 536 693 782 737
631 3 2 1 1 664 741 848 723
632 3 2 1 1 789 723 848 824
633 3 2 1 1 955 848 741 869
634 3 2 1 1 833 828 779 766
635 3 2 1 1 838 899 817 776
636 3 2 1 1 904 781 780 843
637 3 2 1 1 789 824 843 780
638 3 2 1 1 876 812 911 963
639 3 2 1 1 896 939 1017 816
640 3 2 1 1 913 816 1017 943
641 3 2 1 1 906 885 859 826
642 3 2 1 1 833 913 943 828
643 3 2 1 1 845 873 958 852
644 3 2 1 1 741 854 960 869
645 3 2 1 1 807 856 961 872
646 3 2 1 1 807 872 941 910
647 3 2 1 1 961 1064 1009 872
648 3 2 1 1 963 1073 995 876
649 3 2 1 1 958 1070 994 877
650 3 2 1 1 822 965 1011 881
651 3 2 1 1 978 976 886 920
652 3 2 1 1 828 943 963 911
653 3 2 1 1 997 927 1031 1102
654 3 2 1 1 1017 939 1063 1073
655 3 2 1 1 872 1009 982 941
656 3 2 1 1 968 941 982 1066
657 3 2 1 1 993 950 1011 1050
658 3 2 1 1 1013 1108 1064 961
659 3 2 1 1 876 995 1065 962
660 3 2 1 1 943 1017 1073 963
661 3 2 1 1 908 964 996 1067
662 3 2 1 1 874 988 1068 969
663 3 2 1 1 1009 1107 1034 982
664 3 2 1 1 1025 987 1038 1119
665 3 2 1 1 1045 989 1163 1091
666 3 2 1 1 949 990 1072 1021
667 3 2 1 1 1105 1056 994 1070
668 3 2 1 1 1073 1063 1106 995
669 3 2 1 1 1065 995 1106 1153
670 3 2 1 1 1064 1152 1107 1009
671 3 2 1 1 994 1056 1062 1015
672 3 2 1 1 982 1034 1090 1066
673 3 2 1 1 1147 1103 1040 1134
674 3 2 1 1 1060 1161 1106 1063
675 3 2 1 1 1108 1189 1152 1064
676 3 2 1 1 1108 1065 1153 1189
677 3 2 1 1 1161 1087 1176 1206
678 3 2 1 1 1034 1136 1199 1090
679 3 2 1 1 1034 1107 1188 1136
680 3 2 1 1 1212 1136 1188 1256
681 3 2 1 1 1107 1152 1215 1188
682 3 2 1 1 1106 1161 1206 1153
683 3 2 1 1 1206 1176 1229 1230
684 3 2 1 1 1146 1241 1229 1176
685 3 2 1 1 1153 1206 1230 1189
686 3 2 1 1 1152 1189 1230 1215
687 3 2 1 1 1192 1196 1266 1233
688 3 2 1 1 1217 1275 1221 1244
689 3 2 1 1 1177 1221 1275 1251
690 3 2 1 1 1215 1230 1229 1264
691 3 2 1 1 1287 1301 1233 1266
692 3 2 1 1 1238 1329 1288 1273
693 3 2 1 1 1344 1368 1376 1313
694 3 2 1 1 1316 1345 1360 1317
695 3 2 1 1 1386 1377 1338 1395
696 3 2 1 1 352 347 19 18
697 3 2 1 1 19 347 311 20
698 3 2 1 1 279 448 23 22
699 3 2 1 1 344 24 23 448
700 3 2 1 1 327 426 29 28
701 3 2 1 1 426 315 30 29
702 3 2 1 1 59 58 273 458
703 3 2 1 1 66 65 360 287
704 3 2 1 1 66 287 459 67
705 3 2 1 1 71 70 460 362
706 3 2 1 1 362 285 72 71
707 3 2 1 1 72 285 461 73
708 3 2 1 1 76 75 462 363
709 3 2 1 1 4 76 363 284
710 3 2 1 1 85 84 463 288
711 3 2 1 1 85 288 464 86
712 3 2 1 1 87 86 464 289
713 3 2 1 1 87 289 364 88
714 3 2 1 1 424 366 105 106
715 3 2 1 1 430 302 109 110
716 3 2 1 1 445 367 112 113
717 3 2 1 1 111 112 367 303
718 3 2 1 1 115 116 304 466
719 3 2 1 1 418 323 117 118
720 3 2 1 1 419 324 122 123
721 3 2 1 1 422 159 160 282
722 3 2 1 1 452 341 161 162
723 3 2 1 1 160 161 341 282
724 3 2 1 1 453 165 166 337
725 3 2 1 1 437 337 166 167
726 3 2 1 1 420 280 193 194
727 3 2 1 1 454 209 210 379
728 3 2 1 1 446 213 214 343
729 3 2 1 1 225 514 377 224
730 3 2 1 1 226 330 514 225
731 3 2 1 1 340 447 228 229
732 3 2 1 1 346 236 237 293
733 3 2 1 1 442 293 237 238
734 3 2 1 1 512 244 393 555
735 3 2 1 1 709 248 457 522
736 3 2 1 1 607 348 251 386
737 3 2 1 1 608 386 251 471
738 3 2 1 1 455 519 710 252
739 3 2 1 1 481 603 701 256
740 3 2 1 1 653 559 261 467
741 3 2 1 1 4 284 396 268
742 3 2 1 1 703 575 462 276
743 3 2 1 1 468 281 409 658
744 3 2 1 1 400 287 360 543
745 3 2 1 1 400 591 459 287
746 3 2 1 1 702 288 463 595
747 3 2 1 1 427 542 364 289
748 3 2 1 1 536 291 469 693
749 3 2 1 1 588 408 301 366
750 3 2 1 1 589 476 303 367
751 3 2 1 1 614 405 309 473
752 3 2 1 1 449 383 311 347
753 3 2 1 1 711 314 394 606
754 3 2 1 1 455 314 711 519
755 3 2 1 1 309 405 587 343
756 3 2 1 1 597 595 463 345
757 3 2 1 1 290 475 597 345
758 3 2 1 1 719 470 348 607
759 3 2 1 1 471 349 712 608
760 3 2 1 1 480 609 712 349
761 3 2 1 1 347 352 640 449
762 3 2 1 1 273 359 610 406
763 3 2 1 1 479 364 542 720
764 3 2 1 1 732 521 377 514
765 3 2 1 1 594 383 518 675
766 3 2 1 1 623 387 715 678
767 3 2 1 1 555 393 663 801
768 3 2 1 1 1 482 549 394
769 3 2 1 1 606 394 549 690
770 3 2 1 1 284 398 613 396
771 3 2 1 1 658 409 613 398
772 3 2 1 1 654 508 611 403
773 3 2 1 1 720 587 405 616
774 3 2 1 1 716 406 610 588
775 3 2 1 1 294 410 648 488
776 3 2 1 1 320 432 659 420
777 3 2 1 1 291 536 432 436
778 3 2 1 1 737 659 432 536
779 3 2 1 1 383 449 718 518
780 3 2 1 1 279 456 594 704
781 3 2 1 1 275 508 545 460
782 3 2 1 1 259 524 693 469
783 3 2 1 1 259 470 719 524
784 3 2 1 1 376 540 614 473
785 3 2 1 1 245 601 609 480
786 3 2 1 1 377 521 603 481
787 3 2 1 1 721 707 549 482
788 3 2 1 1 252 710 548 483
789 3 2 1 1 248 709 602 485
790 3 2 1 1 334 596 622 511
791 3 2 1 1 844 783 675 518
792 3 2 1 1 711 851 745 519
793 3 2 1 1 782 693 524 778
794 3 2 1 1 381 532 800 682
795 3 2 1 1 768 847 696 537
796 3 2 1 1 396 613 722 546
797 3 2 1 1 710 786 787 548
798 3 2 1 1 675 770 704 594
799 3 2 1 1 475 621 622 596
800 3 2 1 1 523 664 723 601
801 3 2 1 1 709 776 667 602
802 3 2 1 1 789 780 712 609
803 3 2 1 1 601 723 789 609
804 3 2 1 1 713 793 724 617
805 3 2 1 1 393 618 790 663
806 3 2 1 1 617 724 790 618
807 3 2 1 1 602 667 791 619
808 3 2 1 1 387 619 791 715
809 3 2 1 1 449 640 736 718
810 3 2 1 1 801 663 849 826
811 3 2 1 1 790 910 849 663
812 3 2 1 1 523 714 792 664
813 3 2 1 1 770 675 783 836
814 3 2 1 1 795 679 862 818
815 3 2 1 1 528 784 850 689
816 3 2 1 1 519 745 786 710
817 3 2 1 1 606 779 851 711
818 3 2 1 1 548 787 793 713
819 3 2 1 1 620 752 792 714
820 3 2 1 1 678 715 852 747
821 3 2 1 1 852 715 791 845
822 3 2 1 1 518 718 740 844
823 3 2 1 1 736 859 740 718
824 3 2 1 1 664 792 854 741
825 3 2 1 1 678 747 825 799
826 3 2 1 1 958 877 747 852
827 3 2 1 1 840 878 813 748
828 3 2 1 1 733 853 907 752
829 3 2 1 1 792 752 907 854
830 3 2 1 1 748 813 883 763
831 3 2 1 1 745 812 855 786
832 3 2 1 1 786 855 909 787
833 3 2 1 1 793 787 909 856
834 3 2 1 1 724 807 910 790
835 3 2 1 1 724 793 856 807
836 3 2 1 1 745 851 911 812
837 3 2 1 1 966 916 861 825
838 3 2 1 1 747 877 966 825
839 3 2 1 1 738 827 977 866
840 3 2 1 1 779 828 911 851
841 3 2 1 1 783 844 868 964
842 3 2 1 1 968 849 910 941
843 3 2 1 1 746 874 969 853
844 3 2 1 1 969 959 907 853
845 3 2 1 1 960 854 907 959
846 3 2 1 1 812 876 962 855
847 3 2 1 1 746 860 942 874
848 3 2 1 1 1058 996 964 868
849 3 2 1 1 997 1058 868 972
850 3 2 1 1 890 946 1022 878
851 3 2 1 1 892 880 1021 948
852 3 2 1 1 813 932 1004 883
853 3 2 1 1 927 997 972 885
854 3 2 1 1 1018 906 968 1066
855 3 2 1 1 856 909 1013 961
856 3 2 1 1 855 962 1013 909
857 3 2 1 1 966 1015 973 916
858 3 2 1 1 819 945 1014 918
859 3 2 1 1 1022 1113 1040 932
860 3 2 1 1 1074 974 944 985
861 3 2 1 1 985 944 1024 1044
862 3 2 1 1 1108 1013 962 1065
863 3 2 1 1 1050 1011 965 1095
864 3 2 1 1 877 994 1015 966
865 3 2 1 1 942 973 1015 1062
866 3 2 1 1 1099 1010 986 1037
867 3 2 1 1 1101 1078 1067 996
868 3 2 1 1 1058 997 1102 1151
869 3 2 1 1 932 1040 1103 1004
870 3 2 1 1 946 1069 1113 1022
871 3 2 1 1 1134 1040 1113 1204
872 3 2 1 1 1047 1083 1048 1076
873 3 2 1 1 989 1067 1078 1163
874 3 2 1 1 1069 1157 1204 1113
875 3 2 1 1 1171 1126 1210 1277
876 3 2 1 1 1244 1202 1131 1217
877 3 2 1 1 1101 1151 1196 1192
878 3 2 1 1 1102 1197 1196 1151
879 3 2 1 1 1121 1198 1232 1157
880 3 2 1 1 1216 1204 1157 1232
881 3 2 1 1 1197 1159 1165 1234
882 3 2 1 1 1234 1165 1272 1248
883 3 2 1 1 1218 1166 1250 1297
884 3 2 1 1 1237 1253 1296 1168
885 3 2 1 1 1139 1183 1220 1179
886 3 2 1 1 1131 1190 1274 1217
887 3 2 1 1 1126 1192 1233 1210
888 3 2 1 1 1210 1233 1301 1247
889 3 2 1 1 1253 1237 1273 1288
890 3 2 1 1 1325 1296 1253 1322
891 3 2 1 1 1231 1299 1326 1265
892 3 2 1 1 1208 1280 1333 1269
893 3 2 1 1 1339 1283 1327 1356
894 3 2 1 1 1345 1322 1313 1376
895 3 2 1 1 1355 1331 1380 1371
896 3 2 1 1 1282 1335 1382 1358
897 3 2 1 1 1354 1393 1382 1335
898 3 2 1 1 1387 1353 1346 1367
899 3 2 1 1 1310 1363 1367 1346
900 3 2 1 1 1396 1389 1358 1382
901 3 2 1 1 1395 1367 1363 1386
902 3 2 1 1 314 9 1 394
903 3 2 1 1 314 455 10 9
904 3 2 1 1 252 11 10 455
905 3 2 1 1 11 252 483 12
906 3 2 1 1 13 350 484 14
907 3 2 1 1 512 17 16 244
908 3 2 1 1 15 351 244 16
909 3 2 1 1 17 512 352 18
910 3 2 1 1 311 456 21 20
911 3 2 1 1 279 22 21 456
912 3 2 1 1 315 457 31 30
913 3 2 1 1 248 32 31 457
914 3 2 1 1 32 248 485 33
915 3 2 1 1 34 353 316 35
916 3 2 1 1 35 316 486 36
917 3 2 1 1 37 255 487 38
918 3 2 1 1 39 354 294 40
919 3 2 1 1 40 294 488 41
920 3 2 1 1 2 42 317 157
921 3 2 1 1 333 274 63 62
922 3 2 1 1 463 84 83 345
923 3 2 1 1 479 89 88 364
924 3 2 1 1 469 137 138 259
925 3 2 1 1 470 259 138 139
926 3 2 1 1 470 139 140 348
927 3 2 1 1 348 140 141 251
928 3 2 1 1 471 251 141 142
929 3 2 1 1 471 142 143 349
930 3 2 1 1 480 349 143 144
931 3 2 1 1 154 258 504 153
932 3 2 1 1 156 373 505 155
933 3 2 1 1 194 195 320 420
934 3 2 1 1 376 473 216 217
935 3 2 1 1 481 223 224 377
936 3 2 1 1 618 393 244 351
937 3 2 1 1 601 245 501 523
938 3 2 1 1 504 258 554 647
939 3 2 1 1 721 482 267 616
940 3 2 1 1 478 274 407 576
941 3 2 1 1 611 508 275 361
942 3 2 1 1 641 410 294 354
943 3 2 1 1 430 303 476 615
944 3 2 1 1 622 415 308 511
945 3 2 1 1 619 387 316 353
946 3 2 1 1 696 584 444 344
947 3 2 1 1 713 350 483 548
948 3 2 1 1 713 617 484 350
949 3 2 1 1 618 351 484 617
950 3 2 1 1 619 353 485 602
951 3 2 1 1 714 523 501 370
952 3 2 1 1 734 505 373 648
953 3 2 1 1 721 616 405 614
954 3 2 1 1 589 576 407 476
955 3 2 1 1 544 615 476 407
956 3 2 1 1 588 610 651 408
957 3 2 1 1 796 735 410 641
958 3 2 1 1 648 410 735 734
959 3 2 1 1 382 443 729 517
960 3 2 1 1 290 495 621 475
961 3 2 1 1 359 492 651 610
962 3 2 1 1 352 512 555 640
963 3 2 1 1 796 641 550 677
964 3 2 1 1 795 647 554 679
965 3 2 1 1 515 661 794 579
966 3 2 1 1 681 699 857 773
967 3 2 1 1 579 794 840 705
968 3 2 1 1 868 844 740 972
969 3 2 1 1 768 770 836 888
970 3 2 1 1 964 908 836 783
971 3 2 1 1 946 890 805 924
972 3 2 1 1 908 934 888 836
973 3 2 1 1 942 860 915 973
974 3 2 1 1 1016 912 867 926
975 3 2 1 1 834 967 1012 891
976 3 2 1 1 1067 989 934 908
977 3 2 1 1 1019 990 949 914
978 3 2 1 1 1057 1003 937 1054
979 3 2 1 1 1054 1148 1100 1057
980 3 2 1 1 1126 1171 1163 1078
981 3 2 1 1 1165 1159 1124 1235
982 3 2 1 1 1274 1190 1150 1218
983 3 2 1 1 1355 1330 1247 1301
984 3 2 1 1 1207 1265 1326 1279
985 3 2 1 1 1207 1279 1334 1270
986 3 2 1 1 1332 1282 1358 1341
987 3 2 1 1 1301 1287 1331 1355
988 3 2 1 1 1276 1328 1352 1291
989 3 2 1 1 1279 1326 1378 1337
990 3 2 1 1 1371 1379 1330 1355
991 3 2 1 1 1350 1366 1395 1338
992 3 2 1 1 1358 1389 1370 1341
993 3 2 1 1 1334 1381 1393 1354
994 3 2 1 1 482 1 90 267
995 3 2 1 1 350 13 12 483
996 3 2 1 1 351 15 14 484
997 3 2 1 1 444 242 26 25
998 3 2 1 1 353 34 33 485
999 3 2 1 1 255 37 36 486
1000 3 2 1 1 354 39 38 487
1001 3 2 1 1 317 42 41 488
1002 3 2 1 1 3 130 355 43
1003 3 2 1 1 44 43 355 321
1004 3 2 1 1 46 45 489 269
1005 3 2 1 1 44 321 489 45
1006 3 2 1 1 46 269 490 47
1007 3 2 1 1 48 47 490 356
1008 3 2 1 1 49 48 356 270
1009 3 2 1 1 49 270 450 50
1010 3 2 1 1 51 357 271 52
1011 3 2 1 1 52 271 491 53
1012 3 2 1 1 54 53 491 358
1013 3 2 1 1 55 54 358 272
1014 3 2 1 1 55 272 492 56
1015 3 2 1 1 57 56 492 359
1016 3 2 1 1 58 57 359 273
1017 3 2 1 1 478 64 63 274
1018 3 2 1 1 360 65 64 478
1019 3 2 1 1 459 361 68 67
1020 3 2 1 1 69 68 361 275
1021 3 2 1 1 460 70 69 275
1022 3 2 1 1 461 276 74 73
1023 3 2 1 1 462 75 74 276
1024 3 2 1 1 4 268 493 77
1025 3 2 1 1 78 77 493 277
1026 3 2 1 1 78 277 494 79
1027 3 2 1 1 80 79 494 278
1028 3 2 1 1 80 278 495 81
1029 3 2 1 1 82 81 495 290
1030 3 2 1 1 345 83 82 290
1031 3 2 1 1 90 89 479 267
1032 3 2 1 1 5 91 365 133
1033 3 2 1 1 92 295 365 91
1034 3 2 1 1 92 93 496 295
1035 3 2 1 1 94 296 496 93
1036 3 2 1 1 94 95 497 296
1037 3 2 1 1 96 297 497 95
1038 3 2 1 1 96 97 498 297
1039 3 2 1 1 98 298 498 97
1040 3 2 1 1 98 99 499 298
1041 3 2 1 1 100 299 499 99
1042 3 2 1 1 101 513 299 100
1043 3 2 1 1 102 300 513 101
1044 3 2 1 1 300 102 103 451
1045 3 2 1 1 104 301 451 103
1046 3 2 1 1 366 301 104 105
1047 3 2 1 1 110 111 303 430
1048 3 2 1 1 323 304 116 117
1049 3 2 1 1 324 305 121 122
1050 3 2 1 1 435 368 127 128
1051 3 2 1 1 126 127 368 281
1052 3 2 1 1 130 131 500 355
1053 3 2 1 1 132 369 500 131
1054 3 2 1 1 133 365 369 132
1055 3 2 1 1 136 291 436 135
1056 3 2 1 1 469 291 136 137
1057 3 2 1 1 480 144 145 245
1058 3 2 1 1 145 146 501 245
1059 3 2 1 1 147 370 501 146
1060 3 2 1 1 147 148 502 370
1061 3 2 1 1 149 371 502 148
1062 3 2 1 1 150 253 371 149
1063 3 2 1 1 150 151 503 253
1064 3 2 1 1 152 372 503 151
1065 3 2 1 1 152 153 504 372
1066 3 2 1 1 154 155 505 258
1067 3 2 1 1 156 157 317 373
1068 3 2 1 1 199 306 440 198
1069 3 2 1 1 199 200 506 306
1070 3 2 1 1 201 374 506 200
1071 3 2 1 1 202 307 374 201
1072 3 2 1 1 202 203 507 307
1073 3 2 1 1 204 375 507 203
1074 3 2 1 1 205 308 375 204
1075 3 2 1 1 511 308 205 206
1076 3 2 1 1 343 214 215 309
1077 3 2 1 1 473 309 215 216
1078 3 2 1 1 265 219 220 474
1079 3 2 1 1 339 221 222 256
1080 3 2 1 1 222 223 481 256
1081 3 2 1 1 487 255 726 550
1082 3 2 1 1 486 623 726 255
1083 3 2 1 1 505 734 554 258
1084 3 2 1 1 720 616 267 479
1085 3 2 1 1 396 546 624 268
1086 3 2 1 1 490 269 625 551
1087 3 2 1 1 493 626 627 277
1088 3 2 1 1 495 278 727 621
1089 3 2 1 1 494 628 727 278
1090 3 2 1 1 365 295 416 369
1091 3 2 1 1 496 296 630 629
1092 3 2 1 1 498 298 633 632
1093 3 2 1 1 513 731 635 299
1094 3 2 1 1 506 637 644 306
1095 3 2 1 1 440 306 644 657
1096 3 2 1 1 387 623 486 316
1097 3 2 1 1 648 373 317 488
1098 3 2 1 1 355 500 639 321
1099 3 2 1 1 489 321 639 638
1100 3 2 1 1 433 579 705 327
1101 3 2 1 1 641 354 487 550
1102 3 2 1 1 270 356 642 412
1103 3 2 1 1 490 551 642 356
1104 3 2 1 1 271 357 598 413
1105 3 2 1 1 272 358 656 414
1106 3 2 1 1 491 556 656 358
1107 3 2 1 1 281 368 643 409
1108 3 2 1 1 714 370 502 620
1109 3 2 1 1 253 389 645 371
1110 3 2 1 1 502 371 645 620
1111 3 2 1 1 503 372 728 646
1112 3 2 1 1 504 647 728 372
1113 3 2 1 1 307 411 649 374
1114 3 2 1 1 506 374 649 637
1115 3 2 1 1 308 415 552 375
1116 3 2 1 1 253 503 646 389
1117 3 2 1 1 650 408 651 414
1118 3 2 1 1 301 408 650 451
1119 3 2 1 1 722 613 409 643
1120 3 2 1 1 307 507 652 411
1121 3 2 1 1 626 624 649 411
1122 3 2 1 1 626 411 652 627
1123 3 2 1 1 270 412 553 450
1124 3 2 1 1 632 412 642 631
1125 3 2 1 1 271 413 556 491
1126 3 2 1 1 556 413 635 731
1127 3 2 1 1 272 414 651 492
1128 3 2 1 1 650 414 656 636
1129 3 2 1 1 622 621 727 415
1130 3 2 1 1 552 415 727 628
1131 3 2 1 1 295 496 629 416
1132 3 2 1 1 369 416 639 500
1133 3 2 1 1 629 638 639 416
1134 3 2 1 1 319 440 657 435
1135 3 2 1 1 368 435 657 643
1136 3 2 1 1 765 729 443 535
1137 3 2 1 1 300 451 650 636
1138 3 2 1 1 269 489 638 625
1139 3 2 1 1 268 624 626 493
1140 3 2 1 1 277 627 628 494
1141 3 2 1 1 296 497 730 630
1142 3 2 1 1 297 631 730 497
1143 3 2 1 1 297 498 632 631
1144 3 2 1 1 298 499 634 633
1145 3 2 1 1 299 635 634 499
1146 3 2 1 1 375 552 652 507
1147 3 2 1 1 835 739 517 729
1148 3 2 1 1 637 546 722 644
1149 3 2 1 1 625 630 730 551
1150 3 2 1 1 642 551 730 631
1151 3 2 1 1 628 627 652 552
1152 3 2 1 1 412 632 633 553
1153 3 2 1 1 731 636 656 556
1154 3 2 1 1 413 598 634 635
1155 3 2 1 1 752 620 645 733
1156 3 2 1 1 546 637 649 624
1157 3 2 1 1 630 625 638 629
1158 3 2 1 1 555 801 736 640
1159 3 2 1 1 643 657 644 722
1160 3 2 1 1 389 669 733 645
1161 3 2 1 1 389 646 798 669
1162 3 2 1 1 728 797 798 646
1163 3 2 1 1 755 666 742 830
1164 3 2 1 1 853 733 669 746
1165 3 2 1 1 759 670 820 889
1166 3 2 1 1 550 726 799 677
1167 3 2 1 1 862 796 677 861
1168 3 2 1 1 623 678 799 726
1169 3 2 1 1 660 682 827 738
1170 3 2 1 1 647 795 797 728
1171 3 2 1 1 859 736 801 826
1172 3 2 1 1 859 885 972 740
1173 3 2 1 1 900 870 830 742
1174 3 2 1 1 669 798 860 746
1175 3 2 1 1 970 914 773 857
1176 3 2 1 1 795 818 915 797
1177 3 2 1 1 798 797 915 860
1178 3 2 1 1 677 799 825 861
1179 3 2 1 1 916 818 862 861
1180 3 2 1 1 973 915 818 916
1181 3 2 1 1 826 849 968 906
1182 3 2 1 1 885 906 1018 927
1183 3 2 1 1 991 1046 1014 945
1184 3 2 1 1 924 979 1069 946
1185 3 2 1 1 925 948 1042 980
1186 3 2 1 1 1157 1069 979 1121
1187 3 2 1 1 1039 984 1057 1100
1188 3 2 1 1 1112 1030 990 1019
1189 3 2 1 1 1197 1102 1031 1159
1190 3 2 1 1 1100 1130 1158 1039
1191 3 2 1 1 1018 1066 1090 1114
1192 3 2 1 1 1198 1121 1077 1125
1193 3 2 1 1 1030 1123 1175 1089
1194 3 2 1 1 1114 1090 1199 1124
1195 3 2 1 1 1179 1133 1094 1115
1196 3 2 1 1 1148 1194 1130 1100
1197 3 2 1 1 1031 1114 1124 1159
1198 3 2 1 1 1173 1134 1204 1216
1199 3 2 1 1 1130 1168 1224 1158
1200 3 2 1 1 1091 1163 1171 1180
1201 3 2 1 1 1255 1224 1168 1296
1202 3 2 1 1 1258 1223 1172 1219
1203 3 2 1 1 1216 1262 1238 1173
1204 3 2 1 1 1125 1209 1267 1198
1205 3 2 1 1 1261 1232 1198 1267
1206 3 2 1 1 1287 1266 1234 1248
1207 3 2 1 1 1329 1238 1262 1281
1208 3 2 1 1 1272 1327 1283 1248
1209 3 2 1 1 1344 1329 1281 1377
1210 3 2 1 1 1323 1338 1377 1281
1211 3 2 1 1 1366 1350 1309 1362
1212 3 2 1 1 1311 1330 1379 1340
1213 3 2 1 1 1390 1388 1340 1379
1214 3 2 1 1 1394 1383 1341 1370
1215 3 2 1 1 429 249 186 187
1216 3 2 1 1 332 211 212 264
1217 3 2 1 1 734 735 679 554
1218 3 2 1 1 862 679 735 796
1219 3 2 1 1 661 760 923 805
1220 3 2 1 1 924 805 923 1028
1221 3 2 1 1 1227 1185 1158 1224
1222 3 2 1 1 1300 1272 1165 1235
1223 3 2 1 1 1259 1226 1169 1293
1224 3 2 1 1 1234 1266 1196 1197
1225 3 2 1 1 1222 1246 1307 1209
1226 3 2 1 1 1289 1247 1330 1311
1227 3 2 1 1 1357 1303 1268 1332
1228 3 2 1 1 467 261 119 120
1229 3 2 1 1 468 260 124 125
1230 3 2 1 1 563 688 804 570
1231 3 2 1 1 847 887 923 760
1232 3 2 1 1 897 821 894 953
1233 3 2 1 1 870 900 1025 930
1234 3 2 1 1 900 975 987 1025
1235 3 2 1 1 990 1030 1089 1072
1236 3 2 1 1 1146 1098 1035 1127
1237 3 2 1 1 1306 1213 1259 1320
1238 3 2 1 1 1294 1260 1254 1286
1239 3 2 1 1 1209 1307 1278 1267
1240 3 2 1 1 1338 1323 1278 1350
1241 3 2 1 1 1254 1306 1314 1286
1242 3 2 1 1 1286 1321 1324 1294
1243 3 2 1 1 1343 1314 1348 1374
1244 3 2 1 1 1372 1340 1388 1384
1245 3 2 1 1 1350 1278 1307 1309
1246 3 2 1 1 821 846 905 894
1247 3 2 1 1 1114 1031 927 1018
1248 3 2 1 1 987 975 976 1026
1249 3 2 1 1 1027 1026 976 978
1250 3 2 1 1 1144 1205 1038 1120
1251 3 2 1 1 1162 1205 1244 1221
1252 3 2 1 1 1170 1254 1260 1241
1253 3 2 1 1 1251 1298 1336 1302
1254 3 2 1 1 1297 1317 1298 1305
1255 3 2 1 1 1246 1347 1309 1307
1256 3 2 1 1 1347 1372 1362 1309
1257 3 2 1 1 1298 1317 1360 1336
1258 3 2 1 1 1373 1352 1328 1359
1259 3 2 1 1 1328 1336 1360 1359
1260 3 2 1 1 1376 1359 1360 1345
1261 3 2 1 1 829 665 804 922
1262 3 2 1 1 800 918 827 682
1263 3 2 1 1 863 706 520 753
1264 3 2 1 1 758 762 921 834
1265 3 2 1 1 977 827 918 1014
1266 3 2 1 1 1023 967 834 921
1267 3 2 1 1 1072 1042 948 1021
1268 3 2 1 1 929 1075 1044 1024
1269 3 2 1 1 1288 1313 1322 1253
1270 3 2 1 1 510 254 191 192
1271 3 2 1 1 1172 1140 1118 1132
1272 3 2 1 1 330 226 227 246
1273 3 2 1 1 1121 979 1041 1077
1274 3 2 1 1 1277 1222 1180 1171
1275 3 2 1 1 1028 923 887 952
$EndElements
