$MeshFormat
2.2 0 8
$EndMeshFormat
$Nodes
561
1 0 0 0
2 800 0 0
3 800 500 0
4 800 1600 0
5 0 1600 0
6 0 500 0
7 50 0 0
8 100 0 0
9 150 0 0
10 200 0 0
11 250 0 0
12 300 0 0
13 350 0 0
14 400 0 0
15 450 0 0
16 500 0 0
17 550 0 0
18 600 0 0
19 650 0 0
20 700 0 0
21 750 0 0
22 800 50 0
23 800 100 0
24 800 150 0
25 800 200 0
26 800 250 0
27 800 300 0
28 800 350 0
29 800 400 0
30 800 450 0
31 800 550 0
32 800 600 0
33 800 650 0
34 800 700 0
35 800 750 0
36 800 800 0
37 800 850 0
38 800 900 0
39 800 950 0
40 800 1000 0
41 800 1050 0
42 800 1100 0
43 800 1150 0
44 800 1200 0
45 800 1250 0
46 800 1300 0
47 800 1350 0
48 800 1400 0
49 800 1450 0
50 800 1500 0
51 800 1550 0
52 750 1600 0
53 700 1600 0
54 650 1600 0
55 600 1600 0
56 550 1600 0
57 500 1600 0
58 450 1600 0
59 400 1600 0
60 350 1600 0
61 300 1600 0
62 250 1600 0
63 200 1600 0
64 150 1600 0
65 100 1600 0
66 50 1600 0
67 0 1550 0
68 0 1500 0
69 0 1450 0
70 0 1400 0
71 0 1350 0
72 0 1300 0
73 0 1250 0
74 0 1200 0
75 0 1150 0
76 0 1100 0
77 0 1050 0
78 0 1000 0
79 0 950 0
80 0 900 0
81 0 850 0
82 0 800 0
83 0 750 0
84 0 700 0
85 0 650 0
86 0 600 0
87 0 550 0
88 0 450 0
89 0 400 0
90 0 350 0
91 0 300 0
92 0 250 0
93 0 200 0
94 0 150 0
95 0 100 0
96 0 50 0
97 50 500 0
98 100 500 0
99 150 500 0
100 200 500 0
101 250 500 0
102 300 500 0
103 350 500 0
104 400 500 0
105 450 500 0
106 500 500 0
107 550 500 0
108 600 500 0
109 650 500 0
110 700 500 0
111 750 500 0
112 750 900 0
113 750 1100 0
114 50 1200 0
115 50 1000 0
116 450 50 0
117 300 50 0
118 400 1550 0
119 750 1250 0
120 50 850 0
121 550 1550 0
122 750 200 0
123 50 200 0
124 750 700 0
125 200 1550 0
126 750 1400 0
127 750 300 0
128 50 700 0
129 200 50 0
130 650 50 0
131 50 1500 0
132 50 1400 0
133 650 1550 0
134 50 400 0
135 100 50 0
136 750 400 0
137 750 1550 0
138 750 50 0
139 750 550 0
140 50 550 0
141 50 150 0
142 550 50 0
143 750 100 0
144 300 1550 0
145 50 650 0
146 50 450 0
147 50 300 0
148 50 100 0
149 50 50 0
150 400 50 0
151 750 450 0
152 450 1550 0
153 50 800 0
154 750 600 0
155 750 750 0
156 750 800 0
157 750 950 0
158 750 1000 0
159 750 1150 0
160 750 1300 0
161 100 1550 0
162 50 1550 0
163 50 1350 0
164 50 1300 0
165 50 1150 0
166 50 1100 0
167 50 950 0
168 750 1450 0
169 700 900 0
170 700 1100 0
171 100 1000 0
172 450 100 0
173 400 1500 0
174 100 1200 0
175 700 1250 0
176 700 700 0
177 100 850 0
178 100 700 0
179 100 1400 0
180 100 200 0
181 100 100 0
182 100 1500 0
183 700 1400 0
184 50 900 0
185 500 1550 0
186 700 1550 0
187 700 400 0
188 350 50 0
189 500 50 0
190 750 150 0
191 350 1550 0
192 250 1550 0
193 100 400 0
194 100 450 0
195 250 50 0
196 600 50 0
197 750 1350 0
198 50 250 0
199 100 550 0
200 700 450 0
201 700 50 0
202 750 250 0
203 750 650 0
204 750 850 0
205 750 1050 0
206 750 1200 0
207 150 1550 0
208 50 1450 0
209 50 1250 0
210 50 1050 0
211 50 750 0
212 700 550 0
213 700 750 0
214 700 950 0
215 100 1350 0
216 100 1150 0
217 150 50 0
218 600 1550 0
219 50 600 0
220 50 350 0
221 750 350 0
222 750 1500 0
223 650 900 0
224 150 1200 0
225 700 250 0
226 650 700 0
227 600 100 0
228 250 1500 0
229 300 100 0
230 100 950 0
231 550 1500 0
232 500 100 0
233 150 1400 0
234 400 100 0
235 700 1350 0
236 100 1050 0
237 150 1500 0
238 700 600 0
239 700 800 0
240 700 1150 0
241 100 1300 0
242 700 1050 0
243 700 1450 0
244 100 750 0
245 100 600 0
246 100 900 0
247 150 400 0
248 650 400 0
249 150 100 0
250 250 100 0
251 150 450 0
252 150 550 0
253 700 150 0
254 100 150 0
255 700 100 0
256 350 1500 0
257 100 300 0
258 450 1500 0
259 700 1300 0
260 100 250 0
261 650 450 0
262 650 550 0
263 700 1000 0
264 100 1100 0
265 700 850 0
266 100 1250 0
267 700 1200 0
268 700 650 0
269 100 1450 0
270 100 800 0
271 700 350 0
272 100 650 0
273 100 350 0
274 650 1500 0
275 700 1500 0
276 150 850 0
277 150 1000 0
278 650 1050 0
279 450 150 0
280 350 1450 0
281 650 1250 0
282 300 150 0
283 150 250 0
284 650 1350 0
285 150 150 0
286 650 650 0
287 650 1450 0
288 150 750 0
289 650 350 0
290 150 900 0
291 500 1500 0
292 200 400 0
293 600 400 0
294 200 550 0
295 200 100 0
296 300 1500 0
297 650 100 0
298 200 450 0
299 700 200 0
300 200 1500 0
301 550 100 0
302 700 300 0
303 150 1350 0
304 600 550 0
305 600 450 0
306 650 1100 0
307 400 1450 0
308 150 700 0
309 650 950 0
310 150 1150 0
311 650 800 0
312 650 750 0
313 650 850 0
314 150 1300 0
315 150 1250 0
316 150 1450 0
317 150 1100 0
318 650 600 0
319 650 1150 0
320 150 600 0
321 350 100 0
322 150 350 0
323 600 1500 0
324 200 850 0
325 200 1200 0
326 600 900 0
327 600 1050 0
328 350 1400 0
329 600 700 0
330 600 350 0
331 600 150 0
332 200 1400 0
333 200 750 0
334 200 600 0
335 500 1450 0
336 350 150 0
337 200 150 0
338 200 350 0
339 450 1450 0
340 650 250 0
341 250 400 0
342 400 150 0
343 250 550 0
344 550 150 0
345 250 450 0
346 300 1450 0
347 200 1450 0
348 650 150 0
349 150 300 0
350 650 1300 0
351 650 300 0
352 200 1350 0
353 600 800 0
354 550 400 0
355 550 450 0
356 150 200 0
357 150 950 0
358 650 1200 0
359 550 550 0
360 500 150 0
361 150 1050 0
362 650 1000 0
363 600 600 0
364 600 1100 0
365 200 1150 0
366 200 1300 0
367 650 1400 0
368 250 150 0
369 150 650 0
370 600 1450 0
371 150 800 0
372 250 1200 0
373 550 1050 0
374 450 200 0
375 350 200 0
376 500 1400 0
377 600 1200 0
378 550 350 0
379 250 600 0
380 250 350 0
381 600 1300 0
382 600 1350 0
383 300 1400 0
384 550 600 0
385 600 950 0
386 200 1050 0
387 200 700 0
388 600 200 0
389 600 300 0
390 200 800 0
391 500 400 0
392 250 1400 0
393 250 1450 0
394 600 650 0
395 600 850 0
396 600 1400 0
397 300 550 0
398 500 550 0
399 500 450 0
400 200 300 0
401 200 250 0
402 300 200 0
403 650 200 0
404 250 200 0
405 250 1350 0
406 200 1000 0
407 200 900 0
408 400 1400 0
409 600 750 0
410 200 200 0
411 300 450 0
412 200 1250 0
413 200 1100 0
414 600 1150 0
415 600 1000 0
416 550 200 0
417 200 650 0
418 550 1450 0
419 250 850 0
420 550 750 0
421 250 1050 0
422 300 600 0
423 500 600 0
424 350 1350 0
425 500 350 0
426 550 950 0
427 550 1150 0
428 350 250 0
429 250 1300 0
430 250 700 0
431 250 300 0
432 250 800 0
433 550 1350 0
434 450 400 0
435 350 450 0
436 550 650 0
437 550 1400 0
438 450 450 0
439 400 200 0
440 450 550 0
441 600 1250 0
442 600 250 0
443 550 800 0
444 300 1350 0
445 250 250 0
446 350 550 0
447 550 850 0
448 500 200 0
449 550 300 0
450 450 1400 0
451 200 950 0
452 550 1100 0
453 250 1150 0
454 250 1250 0
455 550 1000 0
456 250 650 0
457 300 400 0
458 300 850 0
459 500 1050 0
460 300 1200 0
461 500 750 0
462 350 600 0
463 350 400 0
464 450 350 0
465 450 600 0
466 500 250 0
467 500 650 0
468 400 250 0
469 400 400 0
470 250 900 0
471 250 1000 0
472 400 550 0
473 500 1350 0
474 300 1300 0
475 500 300 0
476 300 300 0
477 300 350 0
478 550 250 0
479 550 900 0
480 550 700 0
481 250 750 0
482 550 1250 0
483 550 1200 0
484 400 1350 0
485 500 950 0
486 500 800 0
487 250 1100 0
488 500 1100 0
489 400 450 0
490 300 250 0
491 300 650 0
492 550 1300 0
493 300 1050 0
494 450 750 0
495 300 900 0
496 450 1050 0
497 450 650 0
498 350 650 0
499 500 1250 0
500 500 850 0
501 350 350 0
502 450 300 0
503 400 600 0
504 500 700 0
505 400 350 0
506 500 1300 0
507 450 250 0
508 400 300 0
509 300 800 0
510 250 950 0
511 500 1000 0
512 500 1150 0
513 450 1350 0
514 300 1150 0
515 300 1250 0
516 350 1300 0
517 300 700 0
518 500 900 0
519 350 300 0
520 350 850 0
521 350 1200 0
522 450 950 0
523 300 950 0
524 350 700 0
525 450 700 0
526 400 650 0
527 300 1000 0
528 500 1200 0
529 450 1100 0
530 450 1000 0
531 300 750 0
532 400 1300 0
533 450 1300 0
534 350 1250 0
535 450 800 0
536 300 1100 0
537 450 850 0
538 350 750 0
539 350 950 0
540 400 1000 0
541 400 1250 0
542 400 1100 0
543 400 800 0
544 400 700 0
545 350 900 0
546 350 1000 0
547 450 1250 0
548 450 1200 0
549 450 1150 0
550 450 900 0
551 350 800 0
552 350 1050 0
553 350 1150 0
554 400 850 0
555 400 900 0
556 400 750 0
557 400 950 0
558 400 1050 0
559 400 1200 0
560 350 1100 0
561 400 1150 0
$EndNodes
$Elements
512
1 3 2 1 1 198 260 257 147
2 3 2 1 1 452 488 459 373
3 3 2 1 1 190 253 255 143
4 3 2 1 1 299 253 190 122
5 3 2 1 1 191 144 296 256
6 3 2 1 1 192 228 296 144
7 3 2 1 1 192 125 300 228
8 3 2 1 1 196 130 297 227
9 3 2 1 1 197 235 259 160
10 3 2 1 1 188 321 229 117
11 3 2 1 1 202 127 302 225
12 3 2 1 1 205 242 263 158
13 3 2 1 1 492 482 441 381
14 3 2 1 1 521 559 541 534
15 3 2 1 1 207 237 300 125
16 3 2 1 1 210 236 264 166
17 3 2 1 1 213 312 226 176
18 3 2 1 1 182 237 207 161
19 3 2 1 1 176 268 203 124
20 3 2 1 1 460 521 534 515
21 3 2 1 1 316 269 179 233
22 3 2 1 1 198 123 180 260
23 3 2 1 1 530 511 459 496
24 3 2 1 1 180 356 283 260
25 3 2 1 1 285 356 180 254
26 3 2 1 1 529 496 459 488
27 3 2 1 1 311 312 213 239
28 3 2 1 1 208 269 182 131
29 3 2 1 1 183 235 197 126
30 3 2 1 1 455 511 485 426
31 3 2 1 1 455 373 459 511
32 3 2 1 1 522 550 518 485
33 3 2 1 1 454 515 474 429
34 3 2 1 1 453 514 460 372
35 3 2 1 1 240 319 306 170
36 3 2 1 1 279 342 234 172
37 3 2 1 1 444 405 429 474
38 3 2 1 1 235 284 350 259
39 3 2 1 1 269 316 237 182
40 3 2 1 1 427 512 488 452
41 3 2 1 1 238 318 262 212
42 3 2 1 1 115 78 79 167
43 3 2 1 1 286 318 238 268
44 3 2 1 1 233 332 347 316
45 3 2 1 1 77 210 166 76
46 3 2 1 1 115 210 77 78
47 3 2 1 1 425 475 449 378
48 3 2 1 1 76 166 165 75
49 3 2 1 1 303 215 241 314
50 3 2 1 1 75 165 114 74
51 3 2 1 1 74 114 209 73
52 3 2 1 1 347 393 228 300
53 3 2 1 1 214 309 223 169
54 3 2 1 1 233 179 215 303
55 3 2 1 1 216 310 224 174
56 3 2 1 1 257 273 220 147
57 3 2 1 1 223 313 265 169
58 3 2 1 1 224 325 412 315
59 3 2 1 1 226 286 268 176
60 3 2 1 1 346 296 228 393
61 3 2 1 1 175 267 206 119
62 3 2 1 1 145 85 86 219
63 3 2 1 1 490 476 431 445
64 3 2 1 1 85 145 128 84
65 3 2 1 1 229 282 368 250
66 3 2 1 1 277 171 230 357
67 3 2 1 1 232 360 279 172
68 3 2 1 1 83 84 128 211
69 3 2 1 1 486 535 494 461
70 3 2 1 1 271 221 136 187
71 3 2 1 1 487 536 514 453
72 3 2 1 1 266 209 114 174
73 3 2 1 1 216 174 114 165
74 3 2 1 1 255 201 138 143
75 3 2 1 1 529 488 512 549
76 3 2 1 1 238 212 139 154
77 3 2 1 1 240 170 113 159
78 3 2 1 1 134 220 273 193
79 3 2 1 1 530 522 485 511
80 3 2 1 1 141 254 180 123
81 3 2 1 1 214 169 112 157
82 3 2 1 1 227 301 142 196
83 3 2 1 1 142 301 232 189
84 3 2 1 1 514 553 521 460
85 3 2 1 1 111 139 212 110
86 3 2 1 1 542 558 496 529
87 3 2 1 1 506 533 547 499
88 3 2 1 1 259 175 119 160
89 3 2 1 1 550 537 500 518
90 3 2 1 1 500 537 535 486
91 3 2 1 1 213 176 124 155
92 3 2 1 1 243 183 126 168
93 3 2 1 1 498 524 517 491
94 3 2 1 1 271 302 127 221
95 3 2 1 1 111 110 200 151
96 3 2 1 1 496 558 540 530
97 3 2 1 1 130 201 255 297
98 3 2 1 1 116 189 232 172
99 3 2 1 1 215 179 132 163
100 3 2 1 1 269 208 132 179
101 3 2 1 1 323 274 133 218
102 3 2 1 1 230 171 115 167
103 3 2 1 1 516 534 541 532
104 3 2 1 1 263 214 157 158
105 3 2 1 1 267 240 159 206
106 3 2 1 1 182 161 162 131
107 3 2 1 1 516 474 515 534
108 3 2 1 1 106 107 359 398
109 3 2 1 1 241 215 163 164
110 3 2 1 1 266 241 164 209
111 3 2 1 1 264 216 165 166
112 3 2 1 1 304 359 107 108
113 3 2 1 1 168 222 275 243
114 3 2 1 1 169 265 204 112
115 3 2 1 1 170 242 205 113
116 3 2 1 1 170 306 278 242
117 3 2 1 1 464 502 475 425
118 3 2 1 1 280 307 173 256
119 3 2 1 1 315 266 174 224
120 3 2 1 1 212 262 109 110
121 3 2 1 1 516 532 484 424
122 3 2 1 1 145 272 178 128
123 3 2 1 1 261 200 110 109
124 3 2 1 1 512 427 483 528
125 3 2 1 1 172 234 150 116
126 3 2 1 1 305 261 109 108
127 3 2 1 1 321 188 150 234
128 3 2 1 1 500 447 479 518
129 3 2 1 1 474 516 424 444
130 3 2 1 1 355 305 108 107
131 3 2 1 1 485 518 479 426
132 3 2 1 1 268 238 154 203
133 3 2 1 1 262 304 108 109
134 3 2 1 1 107 106 399 355
135 3 2 1 1 239 213 155 156
136 3 2 1 1 156 204 265 239
137 3 2 1 1 326 479 447 395
138 3 2 1 1 31 139 111 3
139 3 2 1 1 315 412 366 314
140 3 2 1 1 393 392 383 346
141 3 2 1 1 317 413 365 310
142 3 2 1 1 319 414 364 306
143 3 2 1 1 433 492 381 382
144 3 2 1 1 454 412 325 372
145 3 2 1 1 326 385 426 479
146 3 2 1 1 314 366 352 303
147 3 2 1 1 327 415 362 278
148 3 2 1 1 378 449 389 330
149 3 2 1 1 452 373 327 364
150 3 2 1 1 346 383 328 280
151 3 2 1 1 377 483 427 414
152 3 2 1 1 444 424 328 383
153 3 2 1 1 328 424 484 408
154 3 2 1 1 312 409 329 226
155 3 2 1 1 306 364 327 278
156 3 2 1 1 39 157 112 38
157 3 2 1 1 328 408 307 280
158 3 2 1 1 309 385 326 223
159 3 2 1 1 37 204 156 36
160 3 2 1 1 112 204 37 38
161 3 2 1 1 310 365 325 224
162 3 2 1 1 36 156 155 35
163 3 2 1 1 330 389 351 289
164 3 2 1 1 35 155 124 34
165 3 2 1 1 353 409 312 311
166 3 2 1 1 313 223 326 395
167 3 2 1 1 33 203 154 32
168 3 2 1 1 124 203 33 34
169 3 2 1 1 353 311 313 395
170 3 2 1 1 32 154 139 31
171 3 2 1 1 360 448 374 279
172 3 2 1 1 374 439 342 279
173 3 2 1 1 150 188 13 14
174 3 2 1 1 342 439 375 336
175 3 2 1 1 365 453 372 325
176 3 2 1 1 427 452 364 414
177 3 2 1 1 362 415 385 309
178 3 2 1 1 351 389 442 340
179 3 2 1 1 429 405 352 366
180 3 2 1 1 116 150 14 15
181 3 2 1 1 420 409 353 443
182 3 2 1 1 359 384 423 398
183 3 2 1 1 414 319 358 377
184 3 2 1 1 3 111 151 30
185 3 2 1 1 354 391 425 378
186 3 2 1 1 356 410 401 283
187 3 2 1 1 357 451 406 277
188 3 2 1 1 142 17 18 196
189 3 2 1 1 354 378 330 293
190 3 2 1 1 201 20 21 138
191 3 2 1 1 466 507 374 448
192 3 2 1 1 332 392 393 347
193 3 2 1 1 405 392 332 352
194 3 2 1 1 20 201 130 19
195 3 2 1 1 373 455 415 327
196 3 2 1 1 372 460 515 454
197 3 2 1 1 40 158 157 39
198 3 2 1 1 130 196 18 19
199 3 2 1 1 17 142 189 16
200 3 2 1 1 356 285 337 410
201 3 2 1 1 349 400 338 322
202 3 2 1 1 16 189 116 15
203 3 2 1 1 408 450 339 307
204 3 2 1 1 366 412 454 429
205 3 2 1 1 265 313 311 239
206 3 2 1 1 408 484 513 450
207 3 2 1 1 161 207 64 65
208 3 2 1 1 64 207 125 63
209 3 2 1 1 278 362 263 242
210 3 2 1 1 309 214 263 362
211 3 2 1 1 144 61 62 192
212 3 2 1 1 125 192 62 63
213 3 2 1 1 264 317 310 216
214 3 2 1 1 561 542 529 549
215 3 2 1 1 60 61 144 191
216 3 2 1 1 60 191 118 59
217 3 2 1 1 536 560 553 514
218 3 2 1 1 266 315 314 241
219 3 2 1 1 281 358 267 175
220 3 2 1 1 267 358 319 240
221 3 2 1 1 272 369 308 178
222 3 2 1 1 413 487 453 365
223 3 2 1 1 245 320 369 272
224 3 2 1 1 73 209 164 72
225 3 2 1 1 271 187 248 289
226 3 2 1 1 72 164 163 71
227 3 2 1 1 253 348 297 255
228 3 2 1 1 71 163 132 70
229 3 2 1 1 70 132 208 69
230 3 2 1 1 415 455 426 385
231 3 2 1 1 386 361 277 406
232 3 2 1 1 69 208 131 68
233 3 2 1 1 283 349 257 260
234 3 2 1 1 528 548 549 512
235 3 2 1 1 131 162 67 68
236 3 2 1 1 257 349 322 273
237 3 2 1 1 66 162 161 65
238 3 2 1 1 67 162 66 5
239 3 2 1 1 44 206 159 43
240 3 2 1 1 300 237 316 347
241 3 2 1 1 160 46 47 197
242 3 2 1 1 47 48 126 197
243 3 2 1 1 301 227 331 344
244 3 2 1 1 46 160 119 45
245 3 2 1 1 45 119 206 44
246 3 2 1 1 301 344 360 232
247 3 2 1 1 302 351 340 225
248 3 2 1 1 299 403 348 253
249 3 2 1 1 387 417 456 430
250 3 2 1 1 43 159 113 42
251 3 2 1 1 303 352 332 233
252 3 2 1 1 318 363 304 262
253 3 2 1 1 41 205 158 40
254 3 2 1 1 113 205 41 42
255 3 2 1 1 304 363 384 359
256 3 2 1 1 392 405 444 383
257 3 2 1 1 296 346 280 256
258 3 2 1 1 445 431 400 401
259 3 2 1 1 282 336 375 402
260 3 2 1 1 283 401 400 349
261 3 2 1 1 329 394 286 226
262 3 2 1 1 363 318 286 394
263 3 2 1 1 287 274 323 370
264 3 2 1 1 395 447 443 353
265 3 2 1 1 293 330 289 248
266 3 2 1 1 289 351 302 271
267 3 2 1 1 391 434 464 425
268 3 2 1 1 389 449 478 442
269 3 2 1 1 368 337 295 250
270 3 2 1 1 297 348 331 227
271 3 2 1 1 126 48 49 168
272 3 2 1 1 146 97 6 88
273 3 2 1 1 7 149 96 1
274 3 2 1 1 97 146 194 98
275 3 2 1 1 135 149 7 8
276 3 2 1 1 22 138 21 2
277 3 2 1 1 194 251 99 98
278 3 2 1 1 11 195 129 10
279 3 2 1 1 10 129 217 9
280 3 2 1 1 9 217 135 8
281 3 2 1 1 24 190 143 23
282 3 2 1 1 23 143 138 22
283 3 2 1 1 435 103 102 411
284 3 2 1 1 489 104 103 435
285 3 2 1 1 397 422 379 343
286 3 2 1 1 171 236 210 115
287 3 2 1 1 221 127 27 28
288 3 2 1 1 171 277 361 236
289 3 2 1 1 246 230 167 184
290 3 2 1 1 476 477 380 431
291 3 2 1 1 386 413 317 361
292 3 2 1 1 411 102 101 345
293 3 2 1 1 29 136 221 28
294 3 2 1 1 470 510 451 407
295 3 2 1 1 27 127 202 26
296 3 2 1 1 26 202 122 25
297 3 2 1 1 148 141 94 95
298 3 2 1 1 468 508 519 428
299 3 2 1 1 122 190 24 25
300 3 2 1 1 519 501 477 476
301 3 2 1 1 430 481 333 387
302 3 2 1 1 343 379 334 294
303 3 2 1 1 148 181 254 141
304 3 2 1 1 517 531 481 430
305 3 2 1 1 456 417 334 379
306 3 2 1 1 404 410 337 368
307 3 2 1 1 402 404 368 282
308 3 2 1 1 338 400 431 380
309 3 2 1 1 493 536 487 421
310 3 2 1 1 525 544 526 497
311 3 2 1 1 490 445 404 402
312 3 2 1 1 276 371 390 324
313 3 2 1 1 406 451 510 471
314 3 2 1 1 552 560 536 493
315 3 2 1 1 530 540 557 522
316 3 2 1 1 428 490 402 375
317 3 2 1 1 410 404 445 401
318 3 2 1 1 421 487 413 386
319 3 2 1 1 249 285 254 181
320 3 2 1 1 527 493 421 471
321 3 2 1 1 446 462 422 397
322 3 2 1 1 295 337 285 249
323 3 2 1 1 252 320 245 199
324 3 2 1 1 288 308 387 333
325 3 2 1 1 236 361 317 264
326 3 2 1 1 195 117 229 250
327 3 2 1 1 428 519 476 490
328 3 2 1 1 336 321 234 342
329 3 2 1 1 229 321 336 282
330 3 2 1 1 320 252 294 334
331 3 2 1 1 97 140 87 6
332 3 2 1 1 87 140 219 86
333 3 2 1 1 217 129 295 249
334 3 2 1 1 146 88 89 134
335 3 2 1 1 471 421 386 406
336 3 2 1 1 91 92 198 147
337 3 2 1 1 141 123 93 94
338 3 2 1 1 93 123 198 92
339 3 2 1 1 407 451 357 290
340 3 2 1 1 96 149 148 95
341 3 2 1 1 117 195 11 12
342 3 2 1 1 118 191 256 173
343 3 2 1 1 498 526 544 524
344 3 2 1 1 118 173 258 152
345 3 2 1 1 134 193 194 146
346 3 2 1 1 546 552 493 527
347 3 2 1 1 250 295 129 195
348 3 2 1 1 12 13 188 117
349 3 2 1 1 294 252 99 100
350 3 2 1 1 99 251 298 100
351 3 2 1 1 100 298 345 101
352 3 2 1 1 343 294 100 101
353 3 2 1 1 199 140 97 98
354 3 2 1 1 30 151 136 29
355 3 2 1 1 281 441 377 358
356 3 2 1 1 397 343 101 102
357 3 2 1 1 252 199 98 99
358 3 2 1 1 502 464 505 508
359 3 2 1 1 102 103 446 397
360 3 2 1 1 547 548 528 499
361 3 2 1 1 178 244 211 128
362 3 2 1 1 480 420 461 504
363 3 2 1 1 225 299 122 202
364 3 2 1 1 417 369 320 334
365 3 2 1 1 409 420 480 329
366 3 2 1 1 247 251 194 193
367 3 2 1 1 307 339 258 173
368 3 2 1 1 462 503 526 498
369 3 2 1 1 355 399 391 354
370 3 2 1 1 363 394 436 384
371 3 2 1 1 259 350 281 175
372 3 2 1 1 103 104 472 446
373 3 2 1 1 261 305 293 248
374 3 2 1 1 133 274 275 186
375 3 2 1 1 502 507 466 475
376 3 2 1 1 482 483 377 441
377 3 2 1 1 105 440 472 104
378 3 2 1 1 489 438 105 104
379 3 2 1 1 220 134 89 90
380 3 2 1 1 53 186 137 52
381 3 2 1 1 291 258 339 335
382 3 2 1 1 322 338 292 247
383 3 2 1 1 292 341 345 298
384 3 2 1 1 491 517 430 456
385 3 2 1 1 524 538 531 517
386 3 2 1 1 497 465 423 467
387 3 2 1 1 340 403 299 225
388 3 2 1 1 308 288 244 178
389 3 2 1 1 219 245 272 145
390 3 2 1 1 434 469 505 464
391 3 2 1 1 435 411 457 463
392 3 2 1 1 498 491 422 462
393 3 2 1 1 416 448 360 344
394 3 2 1 1 436 480 504 467
395 3 2 1 1 348 403 388 331
396 3 2 1 1 396 382 284 367
397 3 2 1 1 90 91 147 220
398 3 2 1 1 305 355 354 293
399 3 2 1 1 439 374 507 468
400 3 2 1 1 508 468 507 502
401 3 2 1 1 247 193 273 322
402 3 2 1 1 501 519 508 505
403 3 2 1 1 443 486 461 420
404 3 2 1 1 247 292 298 251
405 3 2 1 1 200 261 248 187
406 3 2 1 1 503 462 446 472
407 3 2 1 1 447 500 486 443
408 3 2 1 1 53 54 133 186
409 3 2 1 1 467 423 384 436
410 3 2 1 1 55 218 133 54
411 3 2 1 1 181 148 149 135
412 3 2 1 1 329 480 436 394
413 3 2 1 1 106 398 440 105
414 3 2 1 1 275 222 137 186
415 3 2 1 1 478 449 475 466
416 3 2 1 1 468 428 375 439
417 3 2 1 1 331 388 416 344
418 3 2 1 1 57 58 152 185
419 3 2 1 1 369 417 387 308
420 3 2 1 1 200 187 136 151
421 3 2 1 1 370 396 367 287
422 3 2 1 1 499 528 483 482
423 3 2 1 1 118 152 58 59
424 3 2 1 1 135 217 249 181
425 3 2 1 1 371 270 244 288
426 3 2 1 1 503 465 497 526
427 3 2 1 1 491 456 379 422
428 3 2 1 1 341 292 338 380
429 3 2 1 1 177 120 153 270
430 3 2 1 1 270 371 276 177
431 3 2 1 1 380 477 457 341
432 3 2 1 1 543 556 494 535
433 3 2 1 1 199 245 219 140
434 3 2 1 1 243 275 274 287
435 3 2 1 1 291 335 418 231
436 3 2 1 1 467 504 525 497
437 3 2 1 1 390 371 288 333
438 3 2 1 1 457 411 345 341
439 3 2 1 1 466 448 416 478
440 3 2 1 1 437 376 473 433
441 3 2 1 1 437 418 335 376
442 3 2 1 1 403 340 442 388
443 3 2 1 1 211 244 270 153
444 3 2 1 1 539 546 527 523
445 3 2 1 1 183 367 284 235
446 3 2 1 1 152 258 291 185
447 3 2 1 1 231 121 185 291
448 3 2 1 1 472 440 465 503
449 3 2 1 1 52 137 51 4
450 3 2 1 1 499 482 492 506
451 3 2 1 1 434 391 399 438
452 3 2 1 1 557 540 546 539
453 3 2 1 1 531 538 551 509
454 3 2 1 1 398 423 465 440
455 3 2 1 1 523 510 470 495
456 3 2 1 1 450 513 473 376
457 3 2 1 1 556 544 525 494
458 3 2 1 1 82 153 120 81
459 3 2 1 1 167 79 80 184
460 3 2 1 1 382 381 350 284
461 3 2 1 1 50 222 168 49
462 3 2 1 1 473 513 533 506
463 3 2 1 1 463 501 505 469
464 3 2 1 1 489 435 463 469
465 3 2 1 1 438 399 106 105
466 3 2 1 1 542 561 553 560
467 3 2 1 1 83 211 153 82
468 3 2 1 1 504 461 494 525
469 3 2 1 1 388 442 478 416
470 3 2 1 1 418 437 396 370
471 3 2 1 1 367 183 243 287
472 3 2 1 1 532 541 547 533
473 3 2 1 1 538 524 544 556
474 3 2 1 1 177 246 184 120
475 3 2 1 1 513 484 532 533
476 3 2 1 1 231 323 218 121
477 3 2 1 1 527 471 510 523
478 3 2 1 1 81 120 184 80
479 3 2 1 1 231 418 370 323
480 3 2 1 1 290 357 230 246
481 3 2 1 1 477 501 463 457
482 3 2 1 1 438 489 469 434
483 3 2 1 1 540 558 552 546
484 3 2 1 1 556 543 551 538
485 3 2 1 1 558 542 560 552
486 3 2 1 1 121 218 55 56
487 3 2 1 1 121 56 57 185
488 3 2 1 1 381 441 281 350
489 3 2 1 1 481 531 509 432
490 3 2 1 1 433 382 396 437
491 3 2 1 1 333 481 432 390
492 3 2 1 1 523 495 545 539
493 3 2 1 1 541 559 548 547
494 3 2 1 1 419 324 390 432
495 3 2 1 1 137 222 50 51
496 3 2 1 1 559 561 549 548
497 3 2 1 1 509 551 520 458
498 3 2 1 1 506 492 433 473
499 3 2 1 1 561 559 521 553
500 3 2 1 1 555 557 539 545
501 3 2 1 1 550 522 557 555
502 3 2 1 1 432 509 458 419
503 3 2 1 1 554 520 551 543
504 3 2 1 1 407 324 419 470
505 3 2 1 1 339 450 376 335
506 3 2 1 1 458 495 470 419
507 3 2 1 1 246 177 276 290
508 3 2 1 1 543 535 537 554
509 3 2 1 1 324 407 290 276
510 3 2 1 1 554 555 545 520
511 3 2 1 1 520 545 495 458
512 3 2 1 1 537 550 555 554
$EndElements
