$MeshFormat
2.2 0 8
$EndMeshFormat
$Nodes
861
1 0 0 0
2 0 185 0
3 0 200 0
4 0 200 15
5 0 200 85
6 0 200 100
7 0 185 100
8 0 0 100
9 0 5 0
10 0 10 0
11 0 15 0
12 0 20 0
13 0 25 0
14 0 30 0
15 0 35 0
16 0 40 0
17 0 45 0
18 0 50 0
19 0 55 0
20 0 60 0
21 0 65 0
22 0 70 0
23 0 75 0
24 0 80 0
25 0 85 0
26 0 90 0
27 0 95 0
28 0 100 0
29 0 105 0
30 0 110 0
31 0 115 0
32 0 120 0
33 0 125 0
34 0 130 0
35 0 135 0
36 0 140 0
37 0 145 0
38 0 150 0
39 0 155 0
40 0 160 0
41 0 165 0
42 0 170 0
43 0 175 0
44 0 180 0
45 0 190 0
46 0 195 0
47 0 200 5
48 0 200 10
49 0 200 20
50 0 200 25
51 0 200 30
52 0 200 35
53 0 200 40
54 0 200 45
55 0 200 50
56 0 200 55
57 0 200 60
58 0 200 65
59 0 200 70
60 0 200 75
61 0 200 80
62 0 200 90
63 0 200 95
64 0 195 100
65 0 190 100
66 0 180 100
67 0 175 100
68 0 170 100
69 0 165 100
70 0 160 100
71 0 155 100
72 0 150 100
73 0 145 100
74 0 140 100
75 0 135 100
76 0 130 100
77 0 125 100
78 0 120 100
79 0 115 100
80 0 110 100
81 0 105 100
82 0 100 100
83 0 95 100
84 0 90 100
85 0 85 100
86 0 80 100
87 0 75 100
88 0 70 100
89 0 65 100
90 0 60 100
91 0 55 100
92 0 50 100
93 0 45 100
94 0 40 100
95 0 35 100
96 0 30 100
97 0 25 100
98 0 20 100
99 0 15 100
100 0 9.99999999999997 100
101 0 5 100
102 0 0 95
103 0 0 90
104 0 0 85
105 0 0 80
106 0 0 75
107 0 0 70
108 0 0 65
109 0 0 60
110 0 0 55
111 0 0 50
112 0 0 45
113 0 0 40
114 0 0 35
115 0 0 30
116 0 0 25
117 0 0 20
118 0 0 15
119 0 0 10
120 0 0 5
121 0 135 5
122 0 55 95
123 0 90 95
124 0 110 5
125 0 150 95
126 0 130 95
127 0 70 5
128 0 195 50
129 0 5 60
130 0 40 5
131 0 155 4.99999999999998
132 0 195 70
133 0 195 35
134 0 30 95
135 0 5 35
136 0 175 5
137 0 20 5
138 0 180 95
139 0 5 75
140 0 20 95
141 0 195 20
142 0 75 95
143 0 5 10
144 0 185 5
145 0 5 85
146 0 195 85
147 0 85 5
148 0 115 95
149 0 10 95
150 0 95 5
151 0 105 95
152 0 50 5
153 0 170 95
154 0 120 5
155 0 45 95
156 0 195 5
157 0 195 95
158 0 65 95
159 0 145 4.99999999999999
160 0 165 5
161 0 5 15
162 0 5 5
163 0 100 95
164 0 195 15
165 0 195 30
166 0 195 45
167 0 195 60
168 0 85 95
169 0 5 95
170 0 5 40
171 0 5 45
172 0 5 25
173 0 190 95
174 0 10 5
175 0 25 5
176 0 30 5
177 0 55 5
178 0 60 5
179 0 75 5
180 0 125 5
181 0 195 80
182 0 165 95
183 0 160 95
184 0 145 95
185 0 140 95
186 0 125 95
187 0 5 50
188 0 100 5
189 0 5 65
190 0 40 95
191 0 90 90
192 0 150 90
193 0 120 10
194 0 50 10
195 0 95 10
196 0 70 10
197 0 130 90
198 0 10 35
199 0 190 50
200 0 45 90
201 0 10 60
202 0 190 35
203 0 25 10
204 0 170 90
205 0 10 45
206 0 190 20
207 0 190 85
208 0 150 4.99999999999999
209 0 130 5
210 0 170 5
211 0 10 90
212 0 60 95
213 0 15 95
214 0 35 95
215 0 95 95
216 0 140 4.99999999999999
217 0 80 95
218 0 160 4.99999999999999
219 0 5 90
220 0 10 10
221 0 90 5
222 0 105 5
223 0 110 95
224 0 195 75
225 0 5 30
226 0 15 5
227 0 115 5
228 0 195 25
229 0 120 95
230 0 70 95
231 0 5 55
232 0 145 90
233 0 190 5
234 0 195 10
235 0 195 65
236 0 5 70
237 0 185 95
238 0 35 5
239 0 45 5
240 0 65 5
241 0 80 5
242 0 195 40
243 0 195 55
244 0 195 90
245 0 175 95
246 0 155 95
247 0 135 95
248 0 5 80
249 0 55 10
250 0 165 90
251 0 180 5
252 0 5 20
253 0 25 95
254 0 50 95
255 0 140 9.99999999999997
256 0 70 90
257 0 150 85
258 0 50 15
259 0 170 85
260 0 155 9.99999999999997
261 0 30 90
262 0 190 75
263 0 10 75
264 0 10 20
265 0 175 10
266 0 10 85
267 0 15 10
268 0 10 30
269 0 120 90
270 0 110 90
271 0 190 15
272 0 140 90
273 0 190 25
274 0 110 10
275 0 80 10
276 0 190 45
277 0 190 65
278 0 160 90
279 0 60 10
280 0 10 55
281 0 35 10
282 0 55 90
283 0 150 9.99999999999996
284 0 130 9.99999999999999
285 0 95 90
286 0 165 9.99999999999999
287 0 65 90
288 0 40 90
289 0 85 90
290 0 20 10
291 0 10 15
292 0 100 10
293 0 15 90
294 0 125 90
295 0 190 30
296 0 115 10
297 0 75 90
298 0 85 10
299 0 10 40
300 0 190 80
301 0 185 10
302 0 30 10
303 0 75 10
304 0 155 90
305 0 135 90
306 0 190 40
307 0 190 10
308 0 190 55
309 0 10 50
310 0 10 65
311 0 65 10
312 0 40 10
313 0 180 90
314 0 190 90
315 0 45 10
316 0 175 90
317 0 125 9.99999999999999
318 0 90 10
319 0 25 90
320 0 50 90
321 0 130 15
322 0 90 85
323 0 120 85
324 0 95 15
325 0 70 15
326 0 70 85
327 0 50 85
328 0 155 15
329 0 185 55
330 0 15 35
331 0 15 55
332 0 185 35
333 0 25 15
334 0 115 15
335 0 185 80
336 0 30 85
337 0 185 25
338 0 80 15
339 0 15 85
340 0 185 15
341 0 140 85
342 0 105 90
343 0 135 9.99999999999999
344 0 10 80
345 0 45 85
346 0 160 9.99999999999998
347 0 115 90
348 0 100 90
349 0 10 25
350 0 15 15
351 0 105 10
352 0 145 85
353 0 20 90
354 0 135 85
355 0 15 40
356 0 190 60
357 0 130 85
358 0 15 60
359 0 60 90
360 0 35 90
361 0 160 85
362 0 155 85
363 0 185 45
364 0 60 15
365 0 30 15
366 0 190 70
367 0 80 90
368 0 55 15
369 0 165 85
370 0 180 10
371 0 35 15
372 0 120 15
373 0 15 45
374 0 185 90
375 0 170 10
376 0 10 70
377 0 40 15
378 0 45 15
379 0 180 85
380 0 175 85
381 0 145 9.99999999999997
382 0 85 15
383 0 150 80
384 0 115 20
385 0 80 20
386 0 55 20
387 0 20 40
388 0 45 80
389 0 20 55
390 0 170 80
391 0 25 20
392 0 135 80
393 0 15 70
394 0 185 70
395 0 165 15
396 0 140 14.9999999999999
397 0 110 85
398 0 15 80
399 0 185 60
400 0 35 20
401 0 160 15
402 0 135 15
403 0 85 85
404 0 75 85
405 0 115 85
406 0 75 15
407 0 90 15
408 0 185 30
409 0 185 20
410 0 160 80
411 0 100 15
412 0 25 85
413 0 100 85
414 0 95 85
415 0 185 50
416 0 15 25
417 0 15 20
418 0 185 85
419 0 110 15
420 0 20 85
421 0 175 15
422 0 180 15
423 0 65 85
424 0 20 15
425 0 15 65
426 0 65 15
427 0 125 15
428 0 145 80
429 0 125 85
430 0 15 50
431 0 40 20
432 0 45 20
433 0 185 75
434 0 185 40
435 0 180 80
436 0 15 30
437 0 150 14.9999999999999
438 0 40 85
439 0 35 85
440 0 55 85
441 0 135 19.9999999999999
442 0 110 80
443 0 90 80
444 0 69.9999999999999 80
445 0 150 75
446 0 155 19.9999999999999
447 0 180 60
448 0 180 40
449 0 40 25
450 0 95 20
451 0 110 20
452 0 20 65
453 0 30 80
454 0 180 30
455 0 40 80
456 0 20 80
457 0 20 45
458 0 65 20
459 0 120 80
460 0 130 80
461 0 160 19.9999999999999
462 0 100 80
463 0 80 85
464 0 90 20
465 0 15 75
466 0 175 20
467 0 70 20
468 0 155 80
469 0 180 50
470 0 140 80
471 0 20 25
472 0 20 35
473 0 20 60
474 0 20 50
475 0 180 75
476 0 185 65
477 0 105 15
478 0 60 20
479 0 30 20
480 0 165 80
481 0 20 20
482 0 180 20
483 0 50 20
484 0 105 85
485 0 120 20
486 0 85 20
487 0 50 80
488 0 175 80
489 0 130 19.9999999999999
490 0 75 20
491 0 170 15
492 0 145 15
493 0 60 85
494 0 135 24.9999999999999
495 0 115 25
496 0 95 25
497 0 75 25
498 0 55 25
499 0 135 75
500 0 25 50
501 0 45 75
502 0 155 24.9999999999999
503 0 25 60
504 0 25 35
505 0 170 75
506 0 105 20
507 0 180 70
508 0 20 70
509 0 170 20
510 0 95 80
511 0 140 19.9999999999999
512 0 175 25
513 0 85 80
514 0 105 80
515 0 155 75
516 0 35 80
517 0 180 35
518 0 180 25
519 0 100 20
520 0 180 65
521 0 65 25
522 0 180 55
523 0 20 30
524 0 25 80
525 0 180 45
526 0 80 25
527 0 25 25
528 0 165 19.9999999999999
529 0 35 25
530 0 145 75
531 0 125 80
532 0 45 25
533 0 20 75
534 0 90 25
535 0 115 80
536 0 55 80
537 0 65 80
538 0 175 75
539 0 25 40
540 0 165 75
541 0 150 19.9999999999999
542 0 125 20
543 0 74.9999999999999 80
544 0 110 75
545 0 90 75.0000000000001
546 0 74.9999999999999 75
547 0 150 70
548 0 95 30
549 0 80 30
550 0 175 55
551 0 175 40
552 0 150 24.9999999999999
553 0 30 75
554 0 170 70
555 0 40 30
556 0 140 24.9999999999999
557 0 175 30
558 0 40 75
559 0 30 35
560 0 95 75.0000000000001
561 0 100 25
562 0 100 75.0000000000001
563 0 60 25
564 0 25 30
565 0 175 65
566 0 140 75
567 0 165 24.9999999999999
568 0 25 55
569 0 25 45
570 0 25 70
571 0 25 75
572 0 30 25
573 0 50 25
574 0 175 70
575 0 110 25
576 0 115 75
577 0 175 50
578 0 160 75
579 0 70 75
580 0 25 65
581 0 120 75
582 0 130 75
583 0 70 25
584 0 85 25
585 0 170 25
586 0 120 24.9999999999999
587 0 79.9999999999999 80
588 0 160 24.9999999999999
589 0 50 75
590 0 130 24.9999999999999
591 0 145 19.9999999999999
592 0 60 80
593 0 135 29.9999999999999
594 0 115 29.9999999999999
595 0 60 30
596 0 135 70
597 0 110 70
598 0 90 70.0000000000001
599 0 74.9999999999999 70
600 0 155 29.9999999999999
601 0 30 50
602 0 45 70
603 0 170 55
604 0 100 30
605 0 30 60
606 0 145 70
607 0 30 70
608 0 85 75.0000000000001
609 0 170 65
610 0 85 30
611 0 145 24.9999999999999
612 0 175 35
613 0 165 29.9999999999999
614 0 80 75
615 0 95 70.0000000000001
616 0 35 75
617 0 50 30
618 0 30 30
619 0 175 60
620 0 90 30
621 0 170 29.9999999999999
622 0 175 45
623 0 165 70
624 0 35 30
625 0 45 30
626 0 55 75
627 0 65 75
628 0 105 75
629 0 115 70
630 0 75 30
631 0 105 25
632 0 125 75
633 0 30 40
634 0 65 30
635 0 155 70
636 0 125 24.9999999999999
637 0 150 65
638 0 110 65.0000000000001
639 0 90 65.0000000000001
640 0 65 35
641 0 95 35
642 0 45 35
643 0 170 45
644 0 105 30
645 0 35 70
646 0 85 35
647 0 35 35
648 0 165 65
649 0 150 29.9999999999999
650 0 110 30
651 0 140 70
652 0 30 65
653 0 85 70.0000000000001
654 0 170 60
655 0 40 70
656 0 55 30
657 0 165 34.9999999999999
658 0 170 50
659 0 30 55
660 0 30 45
661 0 70 70
662 0 130 29.9999999999999
663 0 120 29.9999999999999
664 0 80 35
665 0 120 70
666 0 130 70
667 0 100 70.0000000000001
668 0 105 70.0000000000001
669 0 140 29.9999999999999
670 0 160 70
671 0 70 30
672 0 160 29.9999999999999
673 0 170 34.9999999999999
674 0 50 70
675 0 80 70.0000000000001
676 0 60 75
677 0 135 34.9999999999999
678 0 135 65
679 0 120 34.9999999999999
680 0 75 65.0000000000001
681 0 85 40
682 0 165 45
683 0 45 65
684 0 155 34.9999999999999
685 0 85 65.0000000000001
686 0 110 35
687 0 145 65
688 0 35 50
689 0 155 65
690 0 100 35
691 0 70 35
692 0 145 29.9999999999999
693 0 165 39.9999999999999
694 0 165 60
695 0 40 65
696 0 50 35
697 0 90 35
698 0 35 60
699 0 35 65
700 0 160 34.9999999999999
701 0 40 35
702 0 60 35
703 0 165 55
704 0 115 65
705 0 160 65
706 0 35 40
707 0 105 65.0000000000001
708 0 95 65.0000000000001
709 0 125 70
710 0 170 40
711 0 75 35
712 0 55 70
713 0 65 70
714 0 125 29.9999999999999
715 0 150 60
716 0 110 60
717 0 95 40
718 0 75 40
719 0 90 60.0000000000001
720 0 45 40
721 0 160 60
722 0 65 40
723 0 125 34.9999999999999
724 0 155 39.9999999999999
725 0 140 34.9999999999999
726 0 80 65.0000000000001
727 0 115 34.9999999999999
728 0 140 65
729 0 40 60
730 0 40 40
731 0 125 65
732 0 130 65
733 0 90 40
734 0 105 35
735 0 55 35
736 0 165 50
737 0 35 55
738 0 35 45
739 0 70 65
740 0 150 34.9999999999999
741 0 100 65.0000000000001
742 0 50 65
743 0 80 40
744 0 120 65
745 0 160 39.9999999999999
746 0 130 34.9999999999999
747 0 60 70
748 0 140 39.9999999999999
749 0 130 39.9999999999999
750 0 135 60
751 0 120 39.9999999999999
752 0 125 60
753 0 110 40
754 0 75 60
755 0 95 45
756 0 85 45
757 0 150 39.9999999999999
758 0 145 60
759 0 100 40
760 0 160 44.9999999999999
761 0 85 60
762 0 40 55
763 0 45 60
764 0 45 45
765 0 155 60
766 0 40 45
767 0 70 40
768 0 50 40
769 0 60 40
770 0 160 55
771 0 145 34.9999999999999
772 0 80 45
773 0 115 60
774 0 100 60
775 0 105 60
776 0 95 60
777 0 55 65
778 0 65 65
779 0 65 45
780 0 145 55
781 0 110 55
782 0 50 45
783 0 90 55
784 0 100 45
785 0 85 50
786 0 45 55
787 0 155 55
788 0 75 45
789 0 145 39.9999999999999
790 0 115 39.9999999999999
791 0 140 60
792 0 45 50
793 0 55 60
794 0 50 60
795 0 40 50
796 0 55 40
797 0 70 60
798 0 125 39.9999999999999
799 0 80 60
800 0 130 60
801 0 105 40
802 0 160 50
803 0 120 60
804 0 100 55
805 0 90 45
806 0 135 39.9999999999999
807 0 155 44.9999999999999
808 0 60 65
809 0 135 44.9999999999999
810 0 125 44.9999999999999
811 0 135 55
812 0 115 45
813 0 125 55
814 0 75 55
815 0 50 50
816 0 105 45
817 0 65 60
818 0 155 49.9999999999999
819 0 95 50
820 0 85 55
821 0 150 44.9999999999999
822 0 80 50
823 0 140 55
824 0 55 55
825 0 150 55
826 0 70 45
827 0 60 45
828 0 55 45
829 0 115 55
830 0 105 55
831 0 95 55
832 0 50 55
833 0 90 50
834 0 140 44.9999999999999
835 0 60 60
836 0 65 50
837 0 140 49.9999999999999
838 0 145 49.9999999999999
839 0 110 50
840 0 105 50
841 0 145 44.9999999999999
842 0 80 55
843 0 75 50
844 0 70 55
845 0 55 50
846 0 120 44.9999999999999
847 0 65 55
848 0 60 55
849 0 110 45
850 0 150 49.9999999999999
851 0 130 44.9999999999999
852 0 100 50
853 0 120 55
854 0 130 55
855 0 135 49.9999999999999
856 0 130 49.9999999999999
857 0 115 50
858 0 125 50
859 0 70 50
860 0 60 50
861 0 120 50
$EndNodes
$Elements
800
1 3 2 1 1 837 823 811 855
2 3 2 1 1 855 811 854 856
3 3 2 1 1 857 839 849 812
4 3 2 1 1 856 854 813 858
5 3 2 1 1 858 813 853 861
6 3 2 1 1 831 783 833 819
7 3 2 1 1 830 804 852 840
8 3 2 1 1 819 852 804 831
9 3 2 1 1 760 745 693 682
10 3 2 1 1 783 820 785 833
11 3 2 1 1 838 837 834 841
12 3 2 1 1 820 842 822 785
13 3 2 1 1 822 842 814 843
14 3 2 1 1 693 710 643 682
15 3 2 1 1 612 557 454 517
16 3 2 1 1 653 598 545 608
17 3 2 1 1 396 511 441 402
18 3 2 1 1 857 812 846 861
19 3 2 1 1 824 845 860 848
20 3 2 1 1 512 466 482 518
21 3 2 1 1 552 611 591 541
22 3 2 1 1 727 790 753 686
23 3 2 1 1 836 847 848 860
24 3 2 1 1 845 824 832 815
25 3 2 1 1 651 728 687 606
26 3 2 1 1 687 728 791 758
27 3 2 1 1 786 792 815 832
28 3 2 1 1 807 760 802 818
29 3 2 1 1 39 131 208 38
30 3 2 1 1 345 438 455 388
31 3 2 1 1 35 121 209 34
32 3 2 1 1 322 403 513 443
33 3 2 1 1 443 513 608 545
34 3 2 1 1 789 757 821 841
35 3 2 1 1 288 438 345 200
36 3 2 1 1 100 149 213 99
37 3 2 1 1 284 209 121 343
38 3 2 1 1 545 598 615 560
39 3 2 1 1 648 705 721 694
40 3 2 1 1 510 560 562 462
41 3 2 1 1 513 587 614 608
42 3 2 1 1 43 136 210 42
43 3 2 1 1 591 611 556 511
44 3 2 1 1 261 360 214 134
45 3 2 1 1 771 789 748 725
46 3 2 1 1 283 208 131 260
47 3 2 1 1 694 654 609 648
48 3 2 1 1 322 191 289 403
49 3 2 1 1 328 260 346 401
50 3 2 1 1 397 484 514 442
51 3 2 1 1 836 859 844 847
52 3 2 1 1 405 323 269 347
53 3 2 1 1 760 807 724 745
54 3 2 1 1 820 761 799 842
55 3 2 1 1 567 528 509 585
56 3 2 1 1 653 685 639 598
57 3 2 1 1 161 252 117 118
58 3 2 1 1 261 134 253 319
59 3 2 1 1 162 174 220 143
60 3 2 1 1 161 143 220 291
61 3 2 1 1 148 347 269 229
62 3 2 1 1 319 412 336 261
63 3 2 1 1 401 346 286 395
64 3 2 1 1 445 515 468 383
65 3 2 1 1 496 450 519 561
66 3 2 1 1 685 653 675 726
67 3 2 1 1 794 832 824 793
68 3 2 1 1 818 850 821 807
69 3 2 1 1 509 466 512 585
70 3 2 1 1 725 677 593 669
71 3 2 1 1 839 840 816 849
72 3 2 1 1 36 37 159 216
73 3 2 1 1 219 169 102 103
74 3 2 1 1 346 260 131 218
75 3 2 1 1 319 253 140 353
76 3 2 1 1 455 516 616 558
77 3 2 1 1 611 552 649 692
78 3 2 1 1 558 616 645 655
79 3 2 1 1 761 820 783 719
80 3 2 1 1 683 763 794 742
81 3 2 1 1 827 828 796 769
82 3 2 1 1 768 796 828 782
83 3 2 1 1 370 422 421 265
84 3 2 1 1 502 552 541 446
85 3 2 1 1 696 768 720 642
86 3 2 1 1 782 764 720 768
87 3 2 1 1 266 344 398 339
88 3 2 1 1 606 530 566 651
89 3 2 1 1 736 802 760 682
90 3 2 1 1 850 818 787 825
91 3 2 1 1 40 41 160 218
92 3 2 1 1 95 96 134 214
93 3 2 1 1 223 270 347 148
94 3 2 1 1 520 507 574 565
95 3 2 1 1 609 654 619 565
96 3 2 1 1 607 652 699 645
97 3 2 1 1 428 530 445 383
98 3 2 1 1 285 215 123 191
99 3 2 1 1 408 337 273 295
100 3 2 1 1 414 322 443 510
101 3 2 1 1 464 407 324 450
102 3 2 1 1 509 491 421 466
103 3 2 1 1 564 618 559 504
104 3 2 1 1 612 673 621 557
105 3 2 1 1 620 697 646 610
106 3 2 1 1 693 745 700 657
107 3 2 1 1 596 666 732 678
108 3 2 1 1 720 764 766 730
109 3 2 1 1 87 88 230 142
110 3 2 1 1 409 340 271 206
111 3 2 1 1 468 362 257 383
112 3 2 1 1 349 264 417 416
113 3 2 1 1 195 292 411 324
114 3 2 1 1 415 329 522 469
115 3 2 1 1 515 578 410 468
116 3 2 1 1 350 424 481 417
117 3 2 1 1 451 506 477 419
118 3 2 1 1 621 585 512 557
119 3 2 1 1 469 522 550 577
120 3 2 1 1 618 624 647 559
121 3 2 1 1 551 710 673 612
122 3 2 1 1 657 673 710 693
123 3 2 1 1 372 334 296 193
124 3 2 1 1 318 195 324 407
125 3 2 1 1 267 290 424 350
126 3 2 1 1 413 484 342 348
127 3 2 1 1 471 481 391 527
128 3 2 1 1 467 583 521 458
129 3 2 1 1 561 604 548 496
130 3 2 1 1 461 528 567 588
131 3 2 1 1 823 791 750 811
132 3 2 1 1 859 836 779 826
133 3 2 1 1 32 33 180 154
134 3 2 1 1 208 159 37 38
135 3 2 1 1 217 168 85 86
136 3 2 1 1 163 348 342 151
137 3 2 1 1 171 170 299 205
138 3 2 1 1 160 210 375 286
139 3 2 1 1 188 222 351 292
140 3 2 1 1 136 251 370 265
141 3 2 1 1 367 297 404 463
142 3 2 1 1 406 490 467 325
143 3 2 1 1 334 384 451 419
144 3 2 1 1 520 476 394 507
145 3 2 1 1 506 519 411 477
146 3 2 1 1 510 462 413 414
147 3 2 1 1 622 577 658 643
148 3 2 1 1 728 678 750 791
149 3 2 1 1 83 84 123 215
150 3 2 1 1 297 142 230 256
151 3 2 1 1 408 454 518 337
152 3 2 1 1 514 484 413 462
153 3 2 1 1 363 415 469 525
154 3 2 1 1 643 658 736 682
155 3 2 1 1 29 30 124 222
156 3 2 1 1 210 160 41 42
157 3 2 1 1 148 79 80 223
158 3 2 1 1 212 158 89 90
159 3 2 1 1 113 114 135 170
160 3 2 1 1 119 120 162 143
161 3 2 1 1 289 191 123 168
162 3 2 1 1 221 318 298 147
163 3 2 1 1 295 273 228 165
164 3 2 1 1 224 181 300 262
165 3 2 1 1 415 363 276 199
166 3 2 1 1 300 207 418 335
167 3 2 1 1 136 265 375 210
168 3 2 1 1 256 287 423 326
169 3 2 1 1 269 323 429 294
170 3 2 1 1 340 422 370 301
171 3 2 1 1 429 323 459 531
172 3 2 1 1 454 408 332 517
173 3 2 1 1 434 448 517 332
174 3 2 1 1 482 409 337 518
175 3 2 1 1 409 482 422 340
176 3 2 1 1 292 351 477 411
177 3 2 1 1 354 357 460 392
178 3 2 1 1 425 358 473 452
179 3 2 1 1 470 392 499 566
180 3 2 1 1 507 394 433 475
181 3 2 1 1 481 471 416 417
182 3 2 1 1 566 530 428 470
183 3 2 1 1 551 448 525 622
184 3 2 1 1 474 457 569 500
185 3 2 1 1 445 547 635 515
186 3 2 1 1 610 549 526 584
187 3 2 1 1 710 551 622 643
188 3 2 1 1 658 603 703 736
189 3 2 1 1 547 637 689 635
190 3 2 1 1 715 765 689 637
191 3 2 1 1 721 705 689 765
192 3 2 1 1 703 694 721 770
193 3 2 1 1 767 718 788 826
194 3 2 1 1 765 787 770 721
195 3 2 1 1 732 731 752 800
196 3 2 1 1 812 790 751 846
197 3 2 1 1 792 786 762 795
198 3 2 1 1 846 810 858 861
199 3 2 1 1 26 27 150 221
200 3 2 1 1 222 188 28 29
201 3 2 1 1 209 180 33 34
202 3 2 1 1 198 135 225 268
203 3 2 1 1 251 144 301 370
204 3 2 1 1 218 160 286 346
205 3 2 1 1 268 225 172 349
206 3 2 1 1 429 357 197 294
207 3 2 1 1 332 408 295 202
208 3 2 1 1 332 202 306 434
209 3 2 1 1 273 337 409 206
210 3 2 1 1 190 214 360 288
211 3 2 1 1 423 287 359 493
212 3 2 1 1 276 363 434 306
213 3 2 1 1 261 336 439 360
214 3 2 1 1 352 341 470 428
215 3 2 1 1 274 419 477 351
216 3 2 1 1 257 352 428 383
217 3 2 1 1 341 354 392 470
218 3 2 1 1 434 363 525 448
219 3 2 1 1 446 461 588 502
220 3 2 1 1 450 496 534 464
221 3 2 1 1 622 525 469 577
222 3 2 1 1 564 504 472 523
223 3 2 1 1 569 660 601 500
224 3 2 1 1 568 659 605 503
225 3 2 1 1 658 577 550 603
226 3 2 1 1 619 654 603 550
227 3 2 1 1 537 592 676 627
228 3 2 1 1 703 603 654 694
229 3 2 1 1 689 705 670 635
230 3 2 1 1 590 662 714 636
231 3 2 1 1 743 718 711 664
232 3 2 1 1 684 700 745 724
233 3 2 1 1 755 717 759 784
234 3 2 1 1 793 835 808 777
235 3 2 1 1 772 822 843 788
236 3 2 1 1 215 163 82 83
237 3 2 1 1 114 115 225 135
238 3 2 1 1 135 198 299 170
239 3 2 1 1 158 212 359 287
240 3 2 1 1 393 425 452 508
241 3 2 1 1 493 440 536 592
242 3 2 1 1 605 659 737 698
243 3 2 1 1 709 665 744 731
244 3 2 1 1 826 779 722 767
245 3 2 1 1 827 769 722 779
246 3 2 1 1 785 822 772 756
247 3 2 1 1 824 848 835 793
248 3 2 1 1 843 814 844 859
249 3 2 1 1 101 8 102 169
250 3 2 1 1 30 31 227 124
251 3 2 1 1 31 32 154 227
252 3 2 1 1 56 57 167 243
253 3 2 1 1 151 81 82 163
254 3 2 1 1 142 217 86 87
255 3 2 1 1 106 107 236 139
256 3 2 1 1 112 171 187 111
257 3 2 1 1 171 112 113 170
258 3 2 1 1 351 222 124 274
259 3 2 1 1 274 124 227 296
260 3 2 1 1 165 133 202 295
261 3 2 1 1 202 133 242 306
262 3 2 1 1 206 141 228 273
263 3 2 1 1 211 219 145 266
264 3 2 1 1 288 200 155 190
265 3 2 1 1 291 264 252 161
266 3 2 1 1 243 167 356 308
267 3 2 1 1 252 264 349 172
268 3 2 1 1 220 174 226 267
269 3 2 1 1 269 294 186 229
270 3 2 1 1 352 257 192 232
271 3 2 1 1 357 354 305 197
272 3 2 1 1 355 299 198 330
273 3 2 1 1 345 327 320 200
274 3 2 1 1 299 355 373 205
275 3 2 1 1 168 217 367 289
276 3 2 1 1 142 297 367 217
277 3 2 1 1 352 232 272 341
278 3 2 1 1 144 233 307 301
279 3 2 1 1 192 257 362 304
280 3 2 1 1 291 350 417 264
281 3 2 1 1 211 266 339 293
282 3 2 1 1 198 268 436 330
283 3 2 1 1 349 416 436 268
284 3 2 1 1 301 307 271 340
285 3 2 1 1 354 341 272 305
286 3 2 1 1 366 394 476 277
287 3 2 1 1 320 327 440 282
288 3 2 1 1 343 402 321 284
289 3 2 1 1 345 388 487 327
290 3 2 1 1 440 327 487 536
291 3 2 1 1 461 446 328 401
292 3 2 1 1 541 437 328 446
293 3 2 1 1 472 330 436 523
294 3 2 1 1 389 331 430 474
295 3 2 1 1 293 339 420 353
296 3 2 1 1 319 353 420 412
297 3 2 1 1 330 472 387 355
298 3 2 1 1 460 357 429 531
299 3 2 1 1 355 387 457 373
300 3 2 1 1 474 430 373 457
301 3 2 1 1 407 464 486 382
302 3 2 1 1 472 504 539 387
303 3 2 1 1 455 558 501 388
304 3 2 1 1 487 388 501 589
305 3 2 1 1 503 473 389 568
306 3 2 1 1 474 500 568 389
307 3 2 1 1 401 395 528 461
308 3 2 1 1 336 412 524 453
309 3 2 1 1 436 416 471 523
310 3 2 1 1 412 420 456 524
311 3 2 1 1 455 438 439 516
312 3 2 1 1 336 453 516 439
313 3 2 1 1 399 476 520 447
314 3 2 1 1 473 503 580 452
315 3 2 1 1 508 452 580 570
316 3 2 1 1 524 456 533 571
317 3 2 1 1 387 539 569 457
318 3 2 1 1 531 632 582 460
319 3 2 1 1 523 471 527 564
320 3 2 1 1 580 503 605 652
321 3 2 1 1 571 533 508 570
322 3 2 1 1 453 553 616 516
323 3 2 1 1 453 524 571 553
324 3 2 1 1 504 559 633 539
325 3 2 1 1 444 579 546 543
326 3 2 1 1 502 600 649 552
327 3 2 1 1 570 607 553 571
328 3 2 1 1 609 554 623 648
329 3 2 1 1 501 558 655 602
330 3 2 1 1 607 570 580 652
331 3 2 1 1 546 579 661 599
332 3 2 1 1 497 630 671 583
333 3 2 1 1 714 663 586 636
334 3 2 1 1 626 589 674 712
335 3 2 1 1 494 593 662 590
336 3 2 1 1 679 727 594 663
337 3 2 1 1 544 628 668 597
338 3 2 1 1 661 739 680 599
339 3 2 1 1 660 738 688 601
340 3 2 1 1 695 683 602 655
341 3 2 1 1 699 652 605 698
342 3 2 1 1 553 607 645 616
343 3 2 1 1 655 645 699 695
344 3 2 1 1 602 683 742 674
345 3 2 1 1 663 714 723 679
346 3 2 1 1 743 681 756 772
347 3 2 1 1 795 688 738 766
348 3 2 1 1 698 729 695 699
349 3 2 1 1 683 695 729 763
350 3 2 1 1 737 762 729 698
351 3 2 1 1 730 766 738 706
352 3 2 1 1 674 742 777 712
353 3 2 1 1 762 786 763 729
354 3 2 1 1 680 739 797 754
355 3 2 1 1 794 793 777 742
356 3 2 1 1 785 756 805 833
357 3 2 1 1 739 778 817 797
358 3 2 1 1 837 838 780 823
359 3 2 1 1 764 782 815 792
360 3 2 1 1 845 815 782 828
361 3 2 1 1 763 786 832 794
362 3 2 1 1 749 851 810 798
363 3 2 1 1 754 814 842 799
364 3 2 1 1 834 837 855 809
365 3 2 1 1 856 851 809 855
366 3 2 1 1 838 841 821 850
367 3 2 1 1 44 2 144 251
368 3 2 1 1 49 141 164 4
369 3 2 1 1 174 162 9 10
370 3 2 1 1 1 9 162 120
371 3 2 1 1 10 11 226 174
372 3 2 1 1 49 50 228 141
373 3 2 1 1 51 165 228 50
374 3 2 1 1 52 133 165 51
375 3 2 1 1 52 53 242 133
376 3 2 1 1 54 166 242 53
377 3 2 1 1 166 54 55 128
378 3 2 1 1 56 243 128 55
379 3 2 1 1 57 58 235 167
380 3 2 1 1 229 78 79 148
381 3 2 1 1 77 78 229 186
382 3 2 1 1 151 223 80 81
383 3 2 1 1 88 89 158 230
384 3 2 1 1 214 190 94 95
385 3 2 1 1 93 94 190 155
386 3 2 1 1 97 98 140 253
387 3 2 1 1 225 115 116 172
388 3 2 1 1 116 117 252 172
389 3 2 1 1 359 212 122 282
390 3 2 1 1 254 320 282 122
391 3 2 1 1 294 197 126 186
392 3 2 1 1 199 128 243 308
393 3 2 1 1 235 132 366 277
394 3 2 1 1 175 203 290 137
395 3 2 1 1 267 226 137 290
396 3 2 1 1 213 293 353 140
397 3 2 1 1 271 164 141 206
398 3 2 1 1 298 275 241 147
399 3 2 1 1 223 151 342 270
400 3 2 1 1 128 199 276 166
401 3 2 1 1 306 242 166 276
402 3 2 1 1 235 277 356 167
403 3 2 1 1 175 176 302 203
404 3 2 1 1 127 179 303 196
405 3 2 1 1 241 275 303 179
406 3 2 1 1 209 284 317 180
407 3 2 1 1 125 184 232 192
408 3 2 1 1 184 185 272 232
409 3 2 1 1 171 205 309 187
410 3 2 1 1 236 189 310 376
411 3 2 1 1 125 192 304 246
412 3 2 1 1 127 196 311 240
413 3 2 1 1 406 325 196 303
414 3 2 1 1 126 197 305 247
415 3 2 1 1 308 329 415 199
416 3 2 1 1 155 200 320 254
417 3 2 1 1 129 231 280 201
418 3 2 1 1 280 331 358 201
419 3 2 1 1 430 309 205 373
420 3 2 1 1 350 291 220 267
421 3 2 1 1 187 309 280 231
422 3 2 1 1 164 271 307 234
423 3 2 1 1 185 247 305 272
424 3 2 1 1 398 344 263 465
425 3 2 1 1 376 393 465 263
426 3 2 1 1 296 334 419 274
427 3 2 1 1 303 275 338 406
428 3 2 1 1 476 399 356 277
429 3 2 1 1 302 281 371 365
430 3 2 1 1 260 328 437 283
431 3 2 1 1 463 403 289 367
432 3 2 1 1 203 333 424 290
433 3 2 1 1 407 382 298 318
434 3 2 1 1 275 298 382 338
435 3 2 1 1 203 302 365 333
436 3 2 1 1 278 304 362 361
437 3 2 1 1 280 309 430 331
438 3 2 1 1 201 358 425 310
439 3 2 1 1 425 393 376 310
440 3 2 1 1 196 325 426 311
441 3 2 1 1 284 321 427 317
442 3 2 1 1 402 441 489 321
443 3 2 1 1 459 323 405 535
444 3 2 1 1 467 458 426 325
445 3 2 1 1 308 356 399 329
446 3 2 1 1 399 447 522 329
447 3 2 1 1 391 481 424 333
448 3 2 1 1 382 486 385 338
449 3 2 1 1 331 389 473 358
450 3 2 1 1 468 410 361 362
451 3 2 1 1 368 364 478 386
452 3 2 1 1 426 458 478 364
453 3 2 1 1 333 365 479 391
454 3 2 1 1 371 400 479 365
455 3 2 1 1 361 410 480 369
456 3 2 1 1 334 372 485 384
457 3 2 1 1 286 375 491 395
458 3 2 1 1 371 377 431 400
459 3 2 1 1 338 385 490 406
460 3 2 1 1 526 497 490 385
461 3 2 1 1 563 498 386 478
462 3 2 1 1 509 528 395 491
463 3 2 1 1 339 398 456 420
464 3 2 1 1 431 449 529 400
465 3 2 1 1 397 442 535 405
466 3 2 1 1 578 540 480 410
467 3 2 1 1 324 411 519 450
468 3 2 1 1 421 422 482 466
469 3 2 1 1 431 432 532 449
470 3 2 1 1 590 489 441 494
471 3 2 1 1 511 556 494 441
472 3 2 1 1 550 522 447 619
473 3 2 1 1 520 565 619 447
474 3 2 1 1 551 612 517 448
475 3 2 1 1 384 495 575 451
476 3 2 1 1 512 518 454 557
477 3 2 1 1 398 465 533 456
478 3 2 1 1 478 458 521 563
479 3 2 1 1 403 463 587 513
480 3 2 1 1 404 543 587 463
481 3 2 1 1 393 508 533 465
482 3 2 1 1 391 479 572 527
483 3 2 1 1 400 529 572 479
484 3 2 1 1 390 480 540 505
485 3 2 1 1 386 498 573 483
486 3 2 1 1 432 483 573 532
487 3 2 1 1 384 485 586 495
488 3 2 1 1 464 534 584 486
489 3 2 1 1 467 490 497 583
490 3 2 1 1 556 669 593 494
491 3 2 1 1 656 617 573 498
492 3 2 1 1 540 623 554 505
493 3 2 1 1 475 538 574 507
494 3 2 1 1 442 514 628 544
495 3 2 1 1 462 562 628 514
496 3 2 1 1 583 671 634 521
497 3 2 1 1 564 527 572 618
498 3 2 1 1 449 555 624 529
499 3 2 1 1 572 529 624 618
500 3 2 1 1 449 532 625 555
501 3 2 1 1 573 617 625 532
502 3 2 1 1 610 584 534 620
503 3 2 1 1 442 544 576 535
504 3 2 1 1 487 589 626 536
505 3 2 1 1 592 536 626 676
506 3 2 1 1 444 537 627 579
507 3 2 1 1 505 554 574 538
508 3 2 1 1 543 546 614 587
509 3 2 1 1 610 646 664 549
510 3 2 1 1 565 574 554 609
511 3 2 1 1 647 624 555 701
512 3 2 1 1 625 642 701 555
513 3 2 1 1 692 669 556 611
514 3 2 1 1 521 634 595 563
515 3 2 1 1 498 563 595 656
516 3 2 1 1 500 601 659 568
517 3 2 1 1 539 633 660 569
518 3 2 1 1 544 597 629 576
519 3 2 1 1 515 635 670 578
520 3 2 1 1 576 629 665 581
521 3 2 1 1 495 586 663 594
522 3 2 1 1 502 588 672 600
523 3 2 1 1 686 650 594 727
524 3 2 1 1 634 640 702 595
525 3 2 1 1 656 595 702 735
526 3 2 1 1 700 684 600 672
527 3 2 1 1 644 734 690 604
528 3 2 1 1 608 614 675 653
529 3 2 1 1 696 642 625 617
530 3 2 1 1 613 621 673 657
531 3 2 1 1 705 648 623 670
532 3 2 1 1 579 627 713 661
533 3 2 1 1 559 647 706 633
534 3 2 1 1 687 758 715 637
535 3 2 1 1 634 671 691 640
536 3 2 1 1 767 722 640 691
537 3 2 1 1 769 702 640 722
538 3 2 1 1 720 730 701 642
539 3 2 1 1 650 686 734 644
540 3 2 1 1 701 730 706 647
541 3 2 1 1 596 678 728 651
542 3 2 1 1 617 656 735 696
543 3 2 1 1 601 688 737 659
544 3 2 1 1 633 706 738 660
545 3 2 1 1 646 681 743 664
546 3 2 1 1 732 666 709 731
547 3 2 1 1 626 712 747 676
548 3 2 1 1 762 737 688 795
549 3 2 1 1 734 801 759 690
550 3 2 1 1 669 692 771 725
551 3 2 1 1 649 740 771 692
552 3 2 1 1 735 702 769 796
553 3 2 1 1 661 713 778 739
554 3 2 1 1 662 746 723 714
555 3 2 1 1 787 765 715 825
556 3 2 1 1 743 772 788 718
557 3 2 1 1 746 749 798 723
558 3 2 1 1 685 726 799 761
559 3 2 1 1 679 751 790 727
560 3 2 1 1 717 755 805 733
561 3 2 1 1 686 753 801 734
562 3 2 1 1 696 735 796 768
563 3 2 1 1 806 809 851 749
564 3 2 1 1 816 801 753 849
565 3 2 1 1 791 823 780 758
566 3 2 1 1 715 758 780 825
567 3 2 1 1 795 766 764 792
568 3 2 1 1 787 818 802 770
569 3 2 1 1 716 781 829 773
570 3 2 1 1 808 835 817 778
571 3 2 1 1 860 827 779 836
572 3 2 1 1 850 825 780 838
573 3 2 1 1 840 839 781 830
574 3 2 1 1 816 840 852 784
575 3 2 1 1 859 826 788 843
576 3 2 1 1 752 803 853 813
577 3 2 1 1 773 829 853 803
578 3 2 1 1 755 819 833 805
579 3 2 1 1 847 817 835 848
580 3 2 1 1 861 853 829 857
581 3 2 1 1 233 144 2 45
582 3 2 1 1 234 48 4 164
583 3 2 1 1 90 91 122 212
584 3 2 1 1 213 140 98 99
585 3 2 1 1 266 145 248 344
586 3 2 1 1 292 195 150 188
587 3 2 1 1 368 249 279 364
588 3 2 1 1 369 250 278 361
589 3 2 1 1 483 432 378 258
590 3 2 1 1 484 397 270 342
591 3 2 1 1 426 364 279 311
592 3 2 1 1 377 371 281 312
593 3 2 1 1 413 348 285 414
594 3 2 1 1 432 431 377 378
595 3 2 1 1 283 437 492 381
596 3 2 1 1 538 488 390 505
597 3 2 1 1 578 670 623 540
598 3 2 1 1 675 614 546 599
599 3 2 1 1 588 567 613 672
600 3 2 1 1 495 594 650 575
601 3 2 1 1 644 631 575 650
602 3 2 1 1 726 675 599 680
603 3 2 1 1 597 638 704 629
604 3 2 1 1 744 665 629 704
605 3 2 1 1 776 708 639 719
606 3 2 1 1 759 717 641 690
607 3 2 1 1 733 697 641 717
608 3 2 1 1 667 741 707 668
609 3 2 1 1 799 726 680 754
610 3 2 1 1 733 805 756 681
611 3 2 1 1 770 802 736 703
612 3 2 1 1 752 731 744 803
613 3 2 1 1 852 819 755 784
614 3 2 1 1 801 816 784 759
615 3 2 1 1 719 783 831 776
616 3 2 1 1 754 797 844 814
617 3 2 1 1 847 844 797 817
618 3 2 1 1 781 839 857 829
619 3 2 1 1 66 138 237 7
620 3 2 1 1 65 7 237 173
621 3 2 1 1 226 11 12 137
622 3 2 1 1 12 13 175 137
623 3 2 1 1 13 14 176 175
624 3 2 1 1 16 130 238 15
625 3 2 1 1 14 15 238 176
626 3 2 1 1 16 17 239 130
627 3 2 1 1 18 152 239 17
628 3 2 1 1 18 19 177 152
629 3 2 1 1 19 20 178 177
630 3 2 1 1 22 127 240 21
631 3 2 1 1 20 21 240 178
632 3 2 1 1 22 23 179 127
633 3 2 1 1 25 147 241 24
634 3 2 1 1 23 24 241 179
635 3 2 1 1 221 147 25 26
636 3 2 1 1 216 121 35 36
637 3 2 1 1 218 131 39 40
638 3 2 1 1 46 156 233 45
639 3 2 1 1 3 47 156 46
640 3 2 1 1 47 48 234 156
641 3 2 1 1 59 132 235 58
642 3 2 1 1 132 59 60 224
643 3 2 1 1 61 181 224 60
644 3 2 1 1 5 146 181 61
645 3 2 1 1 5 62 244 146
646 3 2 1 1 63 157 244 62
647 3 2 1 1 6 64 157 63
648 3 2 1 1 64 65 173 157
649 3 2 1 1 66 67 245 138
650 3 2 1 1 68 153 245 67
651 3 2 1 1 68 69 182 153
652 3 2 1 1 69 70 183 182
653 3 2 1 1 72 125 246 71
654 3 2 1 1 70 71 246 183
655 3 2 1 1 72 73 184 125
656 3 2 1 1 73 74 185 184
657 3 2 1 1 76 126 247 75
658 3 2 1 1 74 75 247 185
659 3 2 1 1 186 126 76 77
660 3 2 1 1 168 123 84 85
661 3 2 1 1 219 103 104 145
662 3 2 1 1 106 139 248 105
663 3 2 1 1 104 105 248 145
664 3 2 1 1 236 107 108 189
665 3 2 1 1 231 129 109 110
666 3 2 1 1 108 109 129 189
667 3 2 1 1 187 231 110 111
668 3 2 1 1 310 189 129 201
669 3 2 1 1 238 130 312 281
670 3 2 1 1 224 262 366 132
671 3 2 1 1 344 248 139 263
672 3 2 1 1 318 221 150 195
673 3 2 1 1 307 233 156 234
674 3 2 1 1 287 256 230 158
675 3 2 1 1 215 285 348 163
676 3 2 1 1 157 173 314 244
677 3 2 1 1 302 176 238 281
678 3 2 1 1 152 177 249 194
679 3 2 1 1 177 178 279 249
680 3 2 1 1 154 180 317 193
681 3 2 1 1 146 207 300 181
682 3 2 1 1 153 182 250 204
683 3 2 1 1 304 278 183 246
684 3 2 1 1 182 183 278 250
685 3 2 1 1 152 194 315 239
686 3 2 1 1 153 204 316 245
687 3 2 1 1 146 244 314 207
688 3 2 1 1 314 374 418 207
689 3 2 1 1 139 236 376 263
690 3 2 1 1 138 313 374 237
691 3 2 1 1 173 237 374 314
692 3 2 1 1 130 239 315 312
693 3 2 1 1 178 240 311 279
694 3 2 1 1 138 245 316 313
695 3 2 1 1 194 249 368 258
696 3 2 1 1 204 250 369 259
697 3 2 1 1 297 256 326 404
698 3 2 1 1 194 258 378 315
699 3 2 1 1 483 258 368 386
700 3 2 1 1 204 259 380 316
701 3 2 1 1 480 390 259 369
702 3 2 1 1 300 335 433 262
703 3 2 1 1 366 262 433 394
704 3 2 1 1 405 347 270 397
705 3 2 1 1 191 322 414 285
706 3 2 1 1 312 315 378 377
707 3 2 1 1 313 316 380 379
708 3 2 1 1 537 444 326 423
709 3 2 1 1 433 335 435 475
710 3 2 1 1 313 379 418 374
711 3 2 1 1 335 418 379 435
712 3 2 1 1 259 390 488 380
713 3 2 1 1 379 380 488 435
714 3 2 1 1 486 584 526 385
715 3 2 1 1 326 444 543 404
716 3 2 1 1 321 489 542 427
717 3 2 1 1 538 475 435 488
718 3 2 1 1 560 510 443 545
719 3 2 1 1 530 606 547 445
720 3 2 1 1 631 506 451 575
721 3 2 1 1 581 459 535 576
722 3 2 1 1 392 460 582 499
723 3 2 1 1 636 542 489 590
724 3 2 1 1 526 549 630 497
725 3 2 1 1 651 566 499 596
726 3 2 1 1 666 596 499 582
727 3 2 1 1 674 589 501 602
728 3 2 1 1 519 506 631 561
729 3 2 1 1 459 581 632 531
730 3 2 1 1 496 548 620 534
731 3 2 1 1 687 637 547 606
732 3 2 1 1 690 641 548 604
733 3 2 1 1 697 620 548 641
734 3 2 1 1 711 630 549 664
735 3 2 1 1 604 561 631 644
736 3 2 1 1 560 615 667 562
737 3 2 1 1 668 628 562 667
738 3 2 1 1 621 613 567 585
739 3 2 1 1 665 709 632 581
740 3 2 1 1 632 709 666 582
741 3 2 1 1 657 700 672 613
742 3 2 1 1 598 639 708 615
743 3 2 1 1 691 671 630 711
744 3 2 1 1 597 668 707 638
745 3 2 1 1 761 719 639 685
746 3 2 1 1 697 733 681 646
747 3 2 1 1 600 684 740 649
748 3 2 1 1 593 677 746 662
749 3 2 1 1 749 746 677 806
750 3 2 1 1 800 750 678 732
751 3 2 1 1 751 679 723 798
752 3 2 1 1 711 718 767 691
753 3 2 1 1 638 716 773 704
754 3 2 1 1 803 744 704 773
755 3 2 1 1 638 707 775 716
756 3 2 1 1 741 774 775 707
757 3 2 1 1 808 747 712 777
758 3 2 1 1 789 771 740 757
759 3 2 1 1 708 776 774 741
760 3 2 1 1 841 834 748 789
761 3 2 1 1 798 810 846 751
762 3 2 1 1 790 812 849 753
763 3 2 1 1 724 807 821 757
764 3 2 1 1 716 775 830 781
765 3 2 1 1 774 804 830 775
766 3 2 1 1 774 776 831 804
767 3 2 1 1 750 800 854 811
768 3 2 1 1 752 813 854 800
769 3 2 1 1 748 834 809 806
770 3 2 1 1 851 856 858 810
771 3 2 1 1 828 827 860 845
772 3 2 1 1 161 118 119 143
773 3 2 1 1 372 193 317 427
774 3 2 1 1 265 421 491 375
775 3 2 1 1 741 667 615 708
776 3 2 1 1 725 748 806 677
777 3 2 1 1 684 724 757 740
778 3 2 1 1 28 188 150 27
779 3 2 1 1 193 296 227 154
780 3 2 1 1 216 159 381 255
781 3 2 1 1 282 440 493 359
782 3 2 1 1 537 423 493 592
783 3 2 1 1 372 427 542 485
784 3 2 1 1 586 485 542 636
785 3 2 1 1 396 492 591 511
786 3 2 1 1 437 541 591 492
787 3 2 1 1 676 747 713 627
788 3 2 1 1 747 808 778 713
789 3 2 1 1 93 155 254 92
790 3 2 1 1 208 283 381 159
791 3 2 1 1 439 438 288 360
792 3 2 1 1 91 92 254 122
793 3 2 1 1 169 149 100 101
794 3 2 1 1 293 213 149 211
795 3 2 1 1 121 216 255 343
796 3 2 1 1 219 211 149 169
797 3 2 1 1 402 343 255 396
798 3 2 1 1 492 396 255 381
799 3 2 1 1 251 136 43 44
800 3 2 1 1 253 134 96 97
$EndElements
