$MeshFormat
2.2 0 8
$EndMeshFormat
$Nodes
330
1 300 0 300
2 700 0 300
3 700 0 700
4 300 0 700
5 0 0 0
6 1000 0 0
7 0 0 1000
8 1000 0 1000
9 325 0 300
10 350 0 300
11 375 0 300
12 400 0 300
13 425 0 300
14 450 0 300
15 475 0 300
16 500 0 300
17 525 0 300
18 550 0 300
19 575 0 300
20 600 0 300
21 625 0 300
22 650 0 300
23 675 0 300
24 700 0 325
25 700 0 350
26 700 0 375
27 700 0 400
28 700 0 425
29 700 0 450
30 700 0 475
31 700 0 500
32 700 0 525
33 700 0 550
34 700 0 575
35 700 0 600
36 700 0 625
37 700 0 650
38 700 0 675
39 675 0 700
40 650 0 700
41 625 0 700
42 600 0 700
43 575 0 700
44 550 0 700
45 525 0 700
46 500 0 700
47 475 0 700
48 450 0 700
49 425 0 700
50 400 0 700
51 375 0 700
52 350 0 700
53 325 0 700
54 300 0 675
55 300 0 650
56 300 0 625
57 300 0 600
58 300 0 575
59 300 0 550
60 300 0 525
61 300 0 500
62 300 0 475
63 300 0 450
64 300 0 425
65 300 0 400
66 300 0 375
67 300 0 350
68 300 0 325
69 100 0 0
70 200 0 0
71 300 0 0
72 400 0 0
73 500 0 0
74 600 0 0
75 700 0 0
76 800 0 0
77 900 0 0
78 0 0 900
79 0 0 800
80 0 0 700
81 0 0 600
82 0 0 500
83 0 0 400
84 0 0 300
85 0 0 200
86 0 0 100
87 1000 0 100
88 1000 0 200
89 1000 0 300
90 1000 0 400
91 1000 0 500
92 1000 0 600
93 1000 0 700
94 1000 0 800
95 1000 0 900
96 900 0 1000
97 800 0 1000
98 700 0 1000
99 600 0 1000
100 500 0 1000
101 400 0 1000
102 300 0 1000
103 200 0 1000
104 100 0 1000
105 276.886628571332 0 336.850810382397
106 716.718511243234 0 676.420726163555
107 670.571350777005 0 273.924231335617
108 325.710161500339 0 720.45073829337
109 326.559606300738 0 279.333820181761
110 722.225119930978 0 294.779603754855
111 419.230587123899 0 271.503710019721
112 718.042696281313 0 373.54854974924
113 672.952834010084 0 719.776323602075
114 266.17241344569 0 702.389176615121
115 518.717421160977 0 276.33815315151
116 719.164323313512 0 451.05776601497
117 729.895361989045 0 530.476744661281
118 573.644483502061 0 718.301775561606
119 475.800060993549 0 733.885777483896
120 282.031773789858 0 626.872466175707
121 268.626681410301 0 550.886414044238
122 278.701518636112 0 476.560733659174
123 700.443368286195 0 85.8502959361222
124 94.0413108882866 0 203.124379996265
125 908.176585087499 0 784.342630954879
126 306.87805634819 0 902.16287154603
127 299.120485298093 0 106.334358499002
128 102.965091319376 0 276.16139520863
129 901.941998369336 0 382.687290632703
130 901.055026779161 0 684.49900788534
131 396.77653481807 0 105.568166351612
132 913.528536616683 0 291.139215208143
133 477.072307575062 0 101.251619576202
134 121.328326098207 0 731.226603568317
135 81.8659054314867 0 499.005421880378
136 916.887614100735 0 600.313909458549
137 791.237478625159 0 907.219294873481
138 698.536090439598 0 896.076955892442
139 592.182414882371 0 918.804201449086
140 488.304985387104 0 926.380794067154
141 905.421026310939 0 102.300656629928
142 101.843110969732 0 817.178122951507
143 627.454421800764 0 268.517441070038
144 371.760800252081 0 732.08270950979
145 719.853309360219 0 570.40044852996
146 267.318692469706 0 406.688727602969
147 116.420811547832 0 112.133714555652
148 885.035048623778 0 883.128579630089
149 197.751810357826 0 909.383680091155
150 99.2859877034443 0 906.591749966876
151 392.427247643537 0 274.853159017795
152 476.216077355679 0 271.784063384002
153 732.361674350124 0 622.695329069016
154 267.108711218131 0 372.446044508328
155 373.971289652588 0 280.679805935574
156 593.61786510861 0 268.326486620156
157 729.438812712576 0 325.838734215527
158 725.456571429308 0 391.502237042286
159 726.576944108228 0 477.085443530056
160 622.593749853675 0 720.876228151867
161 523.164577561744 0 730.278496547736
162 429.455732124182 0 732.947578424747
163 269.223685613755 0 672.423172498133
164 274.875748158507 0 609.547236467355
165 270.787310276929 0 517.623198374896
166 306.339870759202 0 270.579607074022
167 721.004568279784 0 695.438707407972
168 749.196132998696 0 370.911061482831
169 444.747898642065 0 249.089379646461
170 757.942930955831 0 465.317852460676
171 230.905790057687 0 698.196327103588
172 244.911994231875 0 630.40213194516
173 232.476925515639 0 552.688696502616
174 782.938356874088 0 834.963800983358
175 166.372334258239 0 210.599535657885
176 332.786996588718 0 174.192020124281
177 274.401115493296 0 826.715514466962
178 817.787270618785 0 652.032274961038
179 616.782949685626 0 76.0023038232865
180 67.1810500365377 0 589.528624386176
181 402.239246661201 0 926.144497616997
182 903.887516472177 0 530.084199374752
183 103.827264452438 0 376.429986965802
184 841.615587582333 0 418.398426253348
185 431.907912695732 0 166.488090385349
186 195.042437545664 0 829.85357875648
187 209.159359227888 0 90.2050980368334
188 800.928658865384 0 113.592087865975
189 911.886495535528 0 199.663346225485
190 691.864180582843 0 726.748919323965
191 662.103068498964 0 830.062687410406
192 269.929938864707 0 294.146532046447
193 446.769233426464 0 271.528475031873
194 710.57524173751 0 262.758667103089
195 303.314358493376 0 728.945734979741
196 728.869111755822 0 354.042869443821
197 351.477215604447 0 265.095182676785
198 734.341193702784 0 427.226572691961
199 647.663933255068 0 733.921214553557
200 595.507296008364 0 729.756238635733
201 553.718754222462 0 724.676088357855
202 272.141089349595 0 647.141074085997
203 269.447879212767 0 582.080064058985
204 349.073790132025 0 731.597346230151
205 399.986514467928 0 732.208076170282
206 731.626618406837 0 659.230584477712
207 731.425035421187 0 598.032366957399
208 835.488615483555 0 774.266398042759
209 417.263104870054 0 233.78191361059
210 831.229274359419 0 827.617088983601
211 170.617102549605 0 163.890628820887
212 176.825476064856 0 709.221021899852
213 735.873326596022 0 257.748798830411
214 426.594181022131 0 759.69569614531
215 756.21131941935 0 576.424526812904
216 663.365665957565 0 230.065439562717
217 236.375578016672 0 318.218370702815
218 575.555667250731 0 195.525649279859
219 181.495664405374 0 410.444963287276
220 836.760850173983 0 203.002382489772
221 723.34461399811 0 728.529014553318
222 271.754587058809 0 263.796484617455
223 168.835831643401 0 660.392495664748
224 143.826486748453 0 539.048938926321
225 821.347695606956 0 491.837579836005
226 405.6286242758 0 816.703497829403
227 368.293719378872 0 766.593461727428
228 325.147633706156 0 241.221605202322
229 563.160932659048 0 750.800531740007
230 614.915108804635 0 760.158435241177
231 735.96238322352 0 685.593462370249
232 671.931378859117 0 758.60233626107
233 236.442114607599 0 512.942645627821
234 169.427198257569 0 268.520771967242
235 469.59448995772 0 241.301316272984
236 323.427092727949 0 762.23944351615
237 772.340675535608 0 402.499016376215
238 234.284265717928 0 591.106264886162
239 238.154937460937 0 667.505391878501
240 367.445280748698 0 851.028493977184
241 263.696511232824 0 734.310839521493
242 758.30651772149 0 180.935981095499
243 767.302465474956 0 615.859506099236
244 186.853151722809 0 607.396044620469
245 217.318965788641 0 158.532985743051
246 378.41912411442 0 247.273025368863
247 176.022410021488 0 372.833263128878
248 842.304256366083 0 545.179591722827
249 620.51609220137 0 141.984114517145
250 735.596762129695 0 837.392432699484
251 829.924937165361 0 707.458120975546
252 777.01416070486 0 774.981301515774
253 454.31022928339 0 207.627132965754
254 503.39070325942 0 188.377351495909
255 807.02603393583 0 605.864767925756
256 753.111317143495 0 280.814922011945
257 688.60019265859 0 167.181703523123
258 164.805245579627 0 509.852262114835
259 527.56014557608 0 761.098770439556
260 830.592935613738 0 285.870151709267
261 190.43666627679 0 552.157892079192
262 212.76251561442 0 635.846979943612
263 367.541194951092 0 796.052630126213
264 264.908042641946 0 774.131435631957
265 509.449172347903 0 237.09678295062
266 225.461058774654 0 264.780688366692
267 854.266888113004 0 600.484644812955
268 222.326251465858 0 212.713734711208
269 703.003472583175 0 224.226909731853
270 401.48278422929 0 765.77936132443
271 773.192757561771 0 657.464562159095
272 356.27151320219 0 215.130222699201
273 638.084183913259 0 790.334429584386
274 216.786279023902 0 728.02673975033
275 714.75859003267 0 787.058938951389
276 226.169724805003 0 370.588805713066
277 768.861603554823 0 709.156197726236
278 797.522406405504 0 444.281711633646
279 577.042497541079 0 782.364076748623
280 392.441053100576 0 190.604185184743
281 810.764940065664 0 373.103887492154
282 205.630316441973 0 689.295390122185
283 548.287538605914 0 135.577654097769
284 875.534370244506 0 470.532010455792
285 150.394282388938 0 450.897082740254
286 532.98373067116 0 797.028488031257
287 205.585963950246 0 465.704627729124
288 224.734731147366 0 420.583434369252
289 776.90985174367 0 511.161488431068
290 597.063404841997 0 819.776658568452
291 779.324366522804 0 248.346487177504
292 369.775935560442 0 159.576629862907
293 498.340931586649 0 765.625079659524
294 543.622632345923 0 208.81532016153
295 772.658870837836 0 328.199083083935
296 282.701652300673 0 208.531626958709
297 207.254236881832 0 662.893264686561
298 855.210197417237 0 642.586208341126
299 469.306969617529 0 151.251729943979
300 558.738590728918 0 74.1210810154086
301 919.381956363191 0 448.919295980358
302 57.9986196398658 0 422.551653044767
303 655.141528668721 0 198.242746167157
304 794.453522788291 0 559.556474897333
305 841.369092866215 0 347.478957039256
306 334.232749754813 0 810.779487559044
307 173.4232957228 0 321.698207489246
308 197.207912590457 0 508.302323331136
309 742.140245492192 0 228.45449279528
310 448.599057431412 0 777.721892899994
311 200.944439674033 0 768.508668805618
312 127.433991885581 0 594.965345642536
313 466.670616181851 0 853.051246844377
314 586.731613548154 0 234.284797542846
315 624.482946849278 0 232.639069962756
316 262.911278834987 0 158.680456781705
317 549.26073239955 0 235.966870905693
318 242.360470721236 0 474.1893142391
319 248.086371890704 0 446.209772638099
320 67.6780122509657 0 646.044496555865
321 124.964479812263 0 323.170926635383
322 545.660065655959 0 844.357510193661
323 116.297521445795 0 655.815292639349
324 487.204341816574 0 795.499833760981
325 792.123668442047 0 209.947847726769
326 620.988439169456 0 847.310298586565
327 620.140422358924 0 192.265600798847
328 271.469058520836 0 437.897508057325
329 559.939398687584 0 269.54865312935
330 407.645195516268 0 878.239914659869
$EndNodes
$Elements
284
1 2 2 1 1 23 22 107 
2 2 2 1 1 107 2 23 
3 2 2 1 1 68 67 105 
4 2 2 1 1 105 1 68 
5 2 2 1 1 115 18 17 
6 2 2 1 1 17 16 115 
7 2 2 1 1 32 31 117 
8 2 2 1 1 117 33 32 
9 2 2 1 1 119 48 47 
10 2 2 1 1 47 46 119 
11 2 2 1 1 62 61 122 
12 2 2 1 1 122 63 62 
13 3 2 1 1 280 185 253 209
14 3 2 1 1 257 123 188 242
15 3 2 1 1 130 125 208 251
16 3 2 1 1 128 124 175 234
17 3 2 1 1 295 256 291 260
18 3 2 1 1 138 250 174 137
19 3 2 1 1 126 149 186 177
20 3 2 1 1 278 237 281 184
21 3 2 1 1 252 277 251 208
22 3 2 1 1 228 166 222 296
23 3 2 1 1 304 289 225 248
24 3 2 1 1 273 290 279 230
25 3 2 1 1 318 233 308 287
26 3 2 1 1 275 252 174 250
27 3 2 1 1 251 178 298 130
28 3 2 1 1 275 221 277 252
29 3 2 1 1 322 290 326 139
30 3 2 1 1 139 326 191 138
31 3 2 1 1 200 230 279 229
32 3 2 1 1 231 277 221 167
33 3 2 1 1 268 266 234 175
34 3 2 1 1 226 270 214 310
35 3 2 1 1 232 190 221 275
36 3 2 1 1 267 248 182 136
37 3 2 1 1 257 249 179 123
38 3 2 1 1 142 186 149 150
39 3 2 1 1 84 128 321 183
40 3 2 1 1 219 285 183 247
41 3 2 1 1 225 284 182 248
42 3 2 1 1 247 276 288 219
43 3 2 1 1 245 187 127 316
44 3 2 1 1 189 220 188 141
45 3 2 1 1 139 140 313 322
46 3 2 1 1 126 240 330 181
47 3 2 1 1 288 319 318 287
48 3 2 1 1 317 294 218 314
49 3 2 1 1 260 220 189 132
50 3 2 1 1 135 224 312 180
51 3 2 1 1 127 71 72 131
52 3 2 1 1 142 79 80 134
53 3 2 1 1 133 131 72 73
54 3 2 1 1 129 132 89 90
55 3 2 1 1 188 123 75 76
56 3 2 1 1 149 126 102 103
57 3 2 1 1 181 140 100 101
58 3 2 1 1 138 98 99 139
59 3 2 1 1 140 139 99 100
60 3 2 1 1 136 92 93 130
61 3 2 1 1 137 97 98 138
62 3 2 1 1 147 211 175 124
63 3 2 1 1 148 137 174 210
64 3 2 1 1 254 253 185 299
65 3 2 1 1 123 179 74 75
66 3 2 1 1 135 180 81 82
67 3 2 1 1 126 181 101 102
68 3 2 1 1 136 182 91 92
69 3 2 1 1 148 210 208 125
70 3 2 1 1 135 82 83 302
71 3 2 1 1 129 90 91 301
72 3 2 1 1 296 268 245 316
73 3 2 1 1 147 124 85 86
74 3 2 1 1 148 125 94 95
75 3 2 1 1 128 84 85 124
76 3 2 1 1 130 93 94 125
77 3 2 1 1 126 177 306 240
78 3 2 1 1 178 271 243 255
79 3 2 1 1 325 242 188 220
80 3 2 1 1 148 96 97 137
81 3 2 1 1 134 311 186 142
82 3 2 1 1 127 187 70 71
83 3 2 1 1 141 188 76 77
84 3 2 1 1 132 189 88 89
85 3 2 1 1 138 191 275 250
86 3 2 1 1 150 149 103 104
87 3 2 1 1 150 78 79 142
88 3 2 1 1 223 297 282 212
89 3 2 1 1 286 259 229 279
90 3 2 1 1 187 147 69 70
91 3 2 1 1 254 294 317 265
92 3 2 1 1 189 141 87 88
93 3 2 1 1 234 266 217 307
94 3 2 1 1 271 178 251 277
95 3 2 1 1 157 295 168 196
96 3 2 1 1 172 202 163 239
97 3 2 1 1 218 327 315 314
98 3 2 1 1 224 135 285 258
99 3 2 1 1 295 157 110 256
100 3 2 1 1 265 317 329 115
101 3 2 1 1 314 156 329 317
102 3 2 1 1 147 86 5 69
103 3 2 1 1 141 77 6 87
104 3 2 1 1 150 104 7 78
105 3 2 1 1 148 95 8 96
106 3 2 1 1 217 266 222 192
107 3 2 1 1 288 146 328 319
108 3 2 1 1 259 286 324 293
109 3 2 1 1 117 289 304 215
110 3 2 1 1 183 321 307 247
111 3 2 1 1 254 283 218 294
112 3 2 1 1 288 287 285 219
113 3 2 1 1 184 129 301 284
114 3 2 1 1 73 300 283 133
115 3 2 1 1 313 324 286 322
116 3 2 1 1 84 183 302 83
117 3 2 1 1 73 74 179 300
118 3 2 1 1 216 315 327 303
119 3 2 1 1 184 284 225 278
120 3 2 1 1 135 302 183 285
121 3 2 1 1 91 182 284 301
122 3 2 1 1 249 283 300 179
123 3 2 1 1 324 313 226 310
124 3 2 1 1 285 287 308 258
125 3 2 1 1 212 134 323 223
126 3 2 1 1 198 237 278 170
127 3 2 1 1 152 193 169 235
128 3 2 1 1 244 261 173 238
129 3 2 1 1 122 328 64 63
130 3 2 1 1 243 215 304 255
131 3 2 1 1 177 264 236 306
132 3 2 1 1 260 291 325 220
133 3 2 1 1 115 329 19 18
134 3 2 1 1 131 185 280 292
135 3 2 1 1 272 176 292 280
136 3 2 1 1 198 158 168 237
137 3 2 1 1 203 164 172 238
138 3 2 1 1 178 255 267 298
139 3 2 1 1 277 231 206 271
140 3 2 1 1 246 197 228 272
141 3 2 1 1 230 199 232 273
142 3 2 1 1 297 262 172 239
143 3 2 1 1 80 81 180 320
144 3 2 1 1 266 268 296 222
145 3 2 1 1 257 269 216 303
146 3 2 1 1 244 238 172 262
147 3 2 1 1 279 290 322 286
148 3 2 1 1 308 233 173 261
149 3 2 1 1 306 236 227 263
150 3 2 1 1 167 3 38 106
151 3 2 1 1 193 14 13 111
152 3 2 1 1 193 152 15 14
153 3 2 1 1 206 106 38 37
154 3 2 1 1 201 161 45 44
155 3 2 1 1 204 108 53 52
156 3 2 1 1 197 10 9 109
157 3 2 1 1 197 155 11 10
158 3 2 1 1 196 25 24 157
159 3 2 1 1 196 112 26 25
160 3 2 1 1 198 28 27 158
161 3 2 1 1 198 116 29 28
162 3 2 1 1 199 40 39 113
163 3 2 1 1 199 160 41 40
164 3 2 1 1 200 42 41 160
165 3 2 1 1 200 118 43 42
166 3 2 1 1 201 44 43 118
167 3 2 1 1 202 55 54 163
168 3 2 1 1 202 120 56 55
169 3 2 1 1 203 58 57 164
170 3 2 1 1 203 121 59 58
171 3 2 1 1 205 50 49 162
172 3 2 1 1 205 144 51 50
173 3 2 1 1 204 52 51 144
174 3 2 1 1 207 153 36 35
175 3 2 1 1 206 37 36 153
176 3 2 1 1 207 35 34 145
177 3 2 1 1 273 191 326 290
178 3 2 1 1 323 312 244 223
179 3 2 1 1 226 263 227 270
180 3 2 1 1 107 216 269 194
181 3 2 1 1 261 244 312 224
182 3 2 1 1 225 289 170 278
183 3 2 1 1 270 205 162 214
184 3 2 1 1 271 206 153 243
185 3 2 1 1 215 243 153 207
186 3 2 1 1 240 226 313 330
187 3 2 1 1 39 3 190 113
188 3 2 1 1 204 236 195 108
189 3 2 1 1 9 1 166 109
190 3 2 1 1 107 194 110 2
191 3 2 1 1 53 108 195 4
192 3 2 1 1 241 114 4 195
193 3 2 1 1 265 235 253 254
194 3 2 1 1 217 192 1 105
195 3 2 1 1 256 110 194 213
196 3 2 1 1 161 201 229 259
197 3 2 1 1 114 241 274 171
198 3 2 1 1 297 239 171 282
199 3 2 1 1 233 165 121 173
200 3 2 1 1 3 167 221 190
201 3 2 1 1 236 264 241 195
202 3 2 1 1 127 176 296 316
203 3 2 1 1 239 163 114 171
204 3 2 1 1 238 173 121 203
205 3 2 1 1 159 116 198 170
206 3 2 1 1 158 112 196 168
207 3 2 1 1 164 120 202 172
208 3 2 1 1 128 234 307 321
209 3 2 1 1 199 113 190 232
210 3 2 1 1 197 109 166 228
211 3 2 1 1 237 168 295 281
212 3 2 1 1 194 269 309 213
213 3 2 1 1 200 229 201 118
214 3 2 1 1 200 160 199 230
215 3 2 1 1 151 155 197 246
216 3 2 1 1 270 227 144 205
217 3 2 1 1 65 64 328 146
218 3 2 1 1 236 204 144 227
219 3 2 1 1 20 19 329 156
220 3 2 1 1 247 307 217 276
221 3 2 1 1 206 231 167 106
222 3 2 1 1 222 166 1 192
223 3 2 1 1 256 213 309 291
224 3 2 1 1 224 258 308 261
225 3 2 1 1 134 212 274 311
226 3 2 1 1 13 12 151 111
227 3 2 1 1 12 11 155 151
228 3 2 1 1 26 112 158 27
229 3 2 1 1 2 110 157 24
230 3 2 1 1 30 29 116 159
231 3 2 1 1 4 114 163 54
232 3 2 1 1 56 120 164 57
233 3 2 1 1 60 59 121 165
234 3 2 1 1 209 253 235 169
235 3 2 1 1 268 175 211 245
236 3 2 1 1 80 320 323 134
237 3 2 1 1 129 184 281 305
238 3 2 1 1 111 151 246 209
239 3 2 1 1 193 111 209 169
240 3 2 1 1 209 246 272 280
241 3 2 1 1 257 303 327 249
242 3 2 1 1 248 267 255 304
243 3 2 1 1 264 311 274 241
244 3 2 1 1 226 240 306 263
245 3 2 1 1 244 262 297 223
246 3 2 1 1 291 309 242 325
247 3 2 1 1 283 249 327 218
248 3 2 1 1 171 274 212 282
249 3 2 1 1 328 122 318 319
250 3 2 1 1 320 180 312 323
251 3 2 1 1 252 208 210 174
252 3 2 1 1 15 152 115 16
253 3 2 1 1 21 20 156 143
254 3 2 1 1 21 143 107 22
255 3 2 1 1 30 159 117 31
256 3 2 1 1 34 33 117 145
257 3 2 1 1 45 161 119 46
258 3 2 1 1 49 48 119 162
259 3 2 1 1 60 165 122 61
260 3 2 1 1 66 65 146 154
261 3 2 1 1 66 154 105 67
262 3 2 1 1 276 217 105 154
263 3 2 1 1 315 216 107 143
264 3 2 1 1 235 265 115 152
265 3 2 1 1 207 145 117 215
266 3 2 1 1 170 289 117 159
267 3 2 1 1 259 293 119 161
268 3 2 1 1 310 214 162 119
269 3 2 1 1 324 310 119 293
270 3 2 1 1 233 318 122 165
271 3 2 1 1 176 127 131 292
272 3 2 1 1 260 132 129 305
273 3 2 1 1 267 136 130 298
274 3 2 1 1 185 131 133 299
275 3 2 1 1 181 330 313 140
276 3 2 1 1 314 315 143 156
277 3 2 1 1 276 154 146 288
278 3 2 1 1 245 211 147 187
279 3 2 1 1 296 176 272 228
280 3 2 1 1 264 177 186 311
281 3 2 1 1 275 191 273 232
282 3 2 1 1 269 257 242 309
283 3 2 1 1 133 283 254 299
284 3 2 1 1 260 305 281 295
$EndElements
