$MeshFormat
2.2 0 8
$EndMeshFormat
$Nodes
437
1 20 20 0
2 32 20 0
3 40 20 0
4 40 40 0
5 27 40 0
6 20 40 0
7 80 60 0
8 80 80 0
9 62 80 0
10 60 80 0
11 60 60 0
12 77 60 0
13 20 60 0
14 27 60 0
15 40 60 0
16 40 80 0
17 32 80 0
18 20 80 0
19 0 0 0
20 100 0 0
21 0 100 0
22 100 100 0
23 26 20 0
24 36 20 0
25 40 25 0
26 40 30 0
27 40 35 0
28 35.6666666666667 40 0
29 31.3333333333333 40 0
30 20 35 0
31 20 30 0
32 20 25 0
33 80 65 0
34 80 70 0
35 80 75 0
36 75.5 80 0
37 71 80 0
38 66.5 80 0
39 60 75 0
40 60 70 0
41 60 65 0
42 65.6666666666667 60 0
43 71.3333333333333 60 0
44 31.3333333333333 60 0
45 35.6666666666667 60 0
46 40 65 0
47 40 70 0
48 40 75 0
49 36 80 0
50 26 80 0
51 20 75 0
52 20 70 0
53 20 65 0
54 5 0 0
55 10 0 0
56 15 0 0
57 20 0 0
58 25 0 0
59 30 0 0
60 35 0 0
61 40 0 0
62 45 0 0
63 50 0 0
64 55 0 0
65 60 0 0
66 65 0 0
67 70 0 0
68 75 0 0
69 80 0 0
70 85 0 0
71 90 0 0
72 95 0 0
73 0 95 0
74 0 90 0
75 0 85 0
76 0 80 0
77 0 75 0
78 0 70 0
79 0 65 0
80 0 60 0
81 0 55 0
82 0 50 0
83 0 45 0
84 0 40 0
85 0 35 0
86 0 30 0
87 0 25 0
88 0 20 0
89 0 15 0
90 0 10 0
91 0 5 0
92 100 5 0
93 100 10 0
94 100 15 0
95 100 20 0
96 100 25 0
97 100 30 0
98 100 35 0
99 100 40 0
100 100 45 0
101 100 50 0
102 100 55 0
103 100 60 0
104 100 65 0
105 100 70 0
106 100 75 0
107 100 80 0
108 100 85 0
109 100 90 0
110 100 95 0
111 95 100 0
112 90 100 0
113 85 100 0
114 80 100 0
115 75 100 0
116 70 100 0
117 65 100 0
118 60 100 0
119 55 100 0
120 50 100 0
121 45 100 0
122 40 100 0
123 35 100 0
124 30 100 0
125 25 100 0
126 20 100 0
127 15 100 0
128 10 100 0
129 5 100 0
130 71.4788758137758 55.1657441344088 0
131 44.8290411805053 39.7595234300507 0
132 69.981565617032 5.01247149743884 0
133 44.847760683301 24.824208146688 0
134 62.4293394686839 82.9295892180334 0
135 94.9639379776052 24.9729748267393 0
136 95.1131470518964 39.9789095406206 0
137 44.3355769656268 79.2926183579501 0
138 84.9889516059815 5.0032303815176 0
139 59.9304912012824 4.98119273606049 0
140 50.0222002754319 95.2873103381279 0
141 35.4500540580323 43.9972416923392 0
142 84.9042452269505 64.9120894380257 0
143 40.2154252347352 84.3408446073957 0
144 31.955156303663 16.1153560732423 0
145 95.1775963332293 50.0047968013991 0
146 21.2749834070963 55.1217657994099 0
147 5.22316648521473 54.9831280805024 0
148 44.6511071707795 4.76910389295323 0
149 80.1242740248458 84.7820143230995 0
150 64.9154012537774 94.576039927737 0
151 44.7384610849078 64.9988179188544 0
152 56.3086800202464 75.4886638859107 0
153 84.9483451620042 79.8241837372406 0
154 5.01817770982949 14.9938755743444 0
155 10.0198895180716 95.0006260627965 0
156 5.08863400740208 39.986038712565 0
157 19.9511811022799 4.86167230121549 0
158 30.8078131851675 84.9281697377893 0
159 15.0204249288761 75.0012722339643 0
160 15.0192510889542 24.9926162792856 0
161 31.2792354628932 55.8391359833351 0
162 35.2063905317438 94.8963997277583 0
163 35.0703898935319 4.58970357343242 0
164 70.7499770597179 84.7846744034614 0
165 94.951507633218 59.9658475915215 0
166 85.0058265139587 94.8500427833582 0
167 20.0826610912198 94.9924792764912 0
168 94.9366306354839 79.9029107262799 0
169 54.6877393340397 59.3290663155926 0
170 26.2790087553471 44.9205213699612 0
171 15.3719667720401 59.9913323438028 0
172 15.0466981168166 34.9873158069469 0
173 5.01417828930825 85.00074884222 0
174 5.01253866720699 80.0007857579575 0
175 5.01281276265217 75.0001263386163 0
176 5.00984233899369 29.9982739087115 0
177 5.00928243323407 24.9979689660764 0
178 10.0204146016729 4.9830399174229 0
179 94.9891002320173 9.99798061572405 0
180 20.4070989347253 14.6954995913197 0
181 25.5996564593957 84.9851416410545 0
182 25.1272414418228 94.9675047125969 0
183 70.189659939691 94.8109001232426 0
184 55.4696068976093 94.8775045486651 0
185 44.45304632667 74.7288990544611 0
186 29.9208899823842 5.31704597744596 0
187 40.2569915409069 95.028016918582 0
188 54.7403755281478 65.0491305051169 0
189 94.9085282999839 69.9284060690201 0
190 94.9459421880155 84.8950367358535 0
191 94.9820644391796 94.9497710121157 0
192 75.1193685212893 94.8476487449757 0
193 5.24123615942219 49.9771657993005 0
194 5.06562633700092 64.9957246706747 0
195 5.01630945133964 9.99293973632258 0
196 5.00740715459968 95.0000979837791 0
197 15.1092319603721 64.9954442057616 0
198 5.0090976104627 4.99496785147657 0
199 94.9960717596292 4.99972279116336 0
200 79.9862170902195 5.00796667516951 0
201 94.9764141757244 14.9927399604085 0
202 94.9785746916907 29.9620282641996 0
203 54.8615067213811 4.95466441163295 0
204 84.9297475654093 74.8772962536988 0
205 35.5642031387825 55.8343327976565 0
206 35.9699886376367 16.0566170050109 0
207 44.8766180686042 34.8436682361293 0
208 76.4068642937586 55.2666388656437 0
209 65.9283499097925 84.6340489866447 0
210 49.668667992823 39.8844634758943 0
211 89.927863976507 24.9326973189608 0
212 59.5578649811485 82.9193770134139 0
213 39.8800474022572 55.5999028045434 0
214 80.9282775044865 55.215378297063 0
215 44.8369800163548 19.9483656739922 0
216 56.3762551960745 54.4327997705455 0
217 84.9621055743256 10.0022861428931 0
218 62.4585293954323 85.9504899823746 0
219 44.5704277427503 83.6393734242128 0
220 15.802884012571 54.9516558712668 0
221 84.9841885254028 84.771743927579 0
222 49.6767172579332 90.9336314731354 0
223 59.8692291965503 9.95750093925335 0
224 15.1244688950094 14.9030587226586 0
225 15.2046894609466 39.919728007149 0
226 15.0491892499518 80.0046682800756 0
227 20.2617107365613 85.0036762771862 0
228 66.052747651202 89.4926641441333 0
229 48.5278150409067 79.1086951042319 0
230 31.4757391517909 52.1704927955127 0
231 31.992138095375 12.5075164169995 0
232 35.4437175336117 89.7799059432561 0
233 31.3526450565134 43.8381111365018 0
234 10.469705491154 54.9618687651161 0
235 70.4808115650577 89.7170650541519 0
236 54.6124446724493 70.8362220460916 0
237 84.9119118910658 69.9015508886229 0
238 44.6415784062679 69.9366099030606 0
239 35.6673195988454 84.7908074470498 0
240 26.5683374484886 55.5523429753452 0
241 60.1629341404462 95.8805258609363 0
242 26.8547303402642 13.9333920179328 0
243 89.9241716471043 79.8371815582528 0
244 44.8762323389266 29.844050940296 0
245 49.3420174642673 60.0484356228092 0
246 44.6244013843088 60.1455943905517 0
247 10.0531054766815 14.9682068200612 0
248 45.1645223024026 95.2868719817042 0
249 39.7867507150038 4.52125248420847 0
250 95.0822201128095 54.9919635280938 0
251 80.0552985809071 94.8454967203841 0
252 30.4033009803909 89.8985562546289 0
253 49.7431257244677 4.92557423698401 0
254 95.1882189327757 44.996021681695 0
255 24.750984973279 4.83249550680853 0
256 89.9828105180791 94.8978334156309 0
257 94.9378867539289 74.9199191194689 0
258 94.9655064713735 89.9108505139871 0
259 30.1754876150729 94.9338521996339 0
260 94.9073184049854 64.9426740229757 0
261 5.14106861704681 59.9900161793671 0
262 5.17732646607161 44.9774733100758 0
263 10.2834129744703 59.9829690486448 0
264 15.036579017709 69.9987038460066 0
265 5.02784640223799 69.9985984478885 0
266 10.0373121773919 90.0021886262138 0
267 5.01568299288698 19.994326904763 0
268 15.0469667094199 95.0009080016994 0
269 15.0251026698484 4.93865655439619 0
270 15.0160050436872 29.9959749216925 0
271 5.03444639638973 34.9935691589936 0
272 5.01388457161516 90.0006397889192 0
273 10.0309364599403 80.0024636156478 0
274 10.0212783788685 29.9951610020008 0
275 89.9908647597923 5.00032616346154 0
276 94.9663415549999 19.9830510442333 0
277 10.044895311412 9.96454428865446 0
278 89.9724557310174 9.99722831987099 0
279 15.070488463476 19.9545972031401 0
280 64.9636666412912 5.00089277113833 0
281 74.984395872117 5.01225851388707 0
282 44.6593011527328 44.6532392996398 0
283 39.8856614369153 44.2089585394623 0
284 75.3981523633861 84.8279122862106 0
285 95.03001652394 34.9605329441814 0
286 20.1895933725908 89.9964998431162 0
287 56.2329255713135 79.314341639776 0
288 40.1148998090772 15.7148890823612 0
289 85.1150302631798 59.9959948892997 0
290 76.4432365968286 50.3916514568538 0
291 35.4141617183582 8.64737125599352 0
292 71.5793015792319 50.2430439872962 0
293 69.9485233269639 10.0210793559927 0
294 49.765707567028 24.7886478174419 0
295 81.0854489328169 50.3105125793692 0
296 59.7846345484097 85.7146286160425 0
297 52.5283774103783 55.0234703005011 0
298 90.220894601689 39.938476598183 0
299 49.6958182157155 44.9593275102521 0
300 44.6776188971699 15.2077087311365 0
301 49.7777998089416 34.8920605577452 0
302 10.5100292230792 49.9373595292186 0
303 48.6631472627015 83.1534866685166 0
304 45.5539320175628 91.2237115722458 0
305 62.3287621971029 89.049770038923 0
306 90.39667093572 45.00538137301 0
307 90.2462066154038 55.0202407609798 0
308 35.3648305513923 51.8883856413364 0
309 43.8766779292183 50.0434144424522 0
310 58.1990506162305 91.1951234925513 0
311 44.4336567646986 55.4174178286835 0
312 39.3670237632692 8.37652003677375 0
313 40.9733099930823 89.5669314544668 0
314 48.8220460655429 74.7983191642874 0
315 80.1100904535452 89.7729198518242 0
316 89.8958066220206 64.9137940384681 0
317 27.3006824654006 51.5355317488316 0
318 89.9644746461741 89.8302953645043 0
319 89.9475071651699 84.8226295648623 0
320 49.3398836454984 70.1037970790377 0
321 54.1548629274678 90.0822436802511 0
322 49.6014828667841 9.92214412886167 0
323 75.2710301314754 89.787595491405 0
324 89.8970296013726 69.8923822447053 0
325 15.9304702632023 49.8547856269515 0
326 54.7758311048751 9.92029636492082 0
327 15.0931613732392 85.004172595455 0
328 49.5895302548316 65.0504746839853 0
329 20.5744408372294 44.4269612668843 0
330 89.9180307345504 74.8752906239174 0
331 10.1269541735067 64.9935378984486 0
332 10.1815182417954 39.9583131462919 0
333 10.0493412943164 69.9980341530327 0
334 10.0274895474131 75.0006154215351 0
335 10.0416661166986 85.0026706785201 0
336 10.0679637416238 34.9827376954423 0
337 10.0222770939556 24.9917376574544 0
338 28.2357546582935 9.30996993552456 0
339 79.9560077010556 10.0125979322691 0
340 89.9469096787594 14.9877647636591 0
341 10.0404836247405 19.9778280886845 0
342 20.1386982375547 9.67310346755024 0
343 15.0920623413463 9.88007666684462 0
344 15.0927299863086 90.0017538147414 0
345 64.9166827767944 9.99602344530793 0
346 89.9303260059432 19.9671453936763 0
347 89.956772657595 29.8931114548941 0
348 52.4803920047618 79.1748111239808 0
349 25.3232403184177 89.9654705447847 0
350 60.9484391413257 54.7845765124378 0
351 66.1713259400002 54.988070524743 0
352 56.2449927467744 82.9331293622426 0
353 85.481917061207 55.0944861789975 0
354 45.3276342973099 87.3812769948381 0
355 30.4859137899775 48.1801984649669 0
356 35.2793748211906 47.9792915851156 0
357 52.5909483400648 75.3700254096496 0
358 31.6978787661024 9.31926181408873 0
359 35.7648874420329 12.333250813867 0
360 54.0324673259523 44.6482068401778 0
361 69.8933958277535 15.0126461117985 0
362 84.9348516566782 24.8761584225567 0
363 76.2907420738443 45.6094581076733 0
364 66.570531673896 50.0082278449774 0
365 59.8013361174052 14.9229994894301 0
366 85.5607548790843 45.1038021936546 0
367 52.5486234642701 82.9689695225216 0
368 50.1012556646262 50.6907241381995 0
369 56.5492634116848 86.5159041002163 0
370 56.0575659987948 49.2238223058465 0
371 43.9398132620637 10.0366050125543 0
372 49.8129783543739 29.8481461592991 0
373 49.6404524200028 14.9185710324012 0
374 85.0155075826618 89.7960834803369 0
375 90.0372113496425 59.9700518790105 0
376 15.5913580428779 44.8234237350164 0
377 39.3069786339773 48.0081188914888 0
378 10.3665699960474 44.9303643260104 0
379 22.2318851263857 49.6575900610507 0
380 74.9518639065913 10.0196136944547 0
381 90.0433713943235 34.8907341678225 0
382 84.9261818950482 14.9931468900592 0
383 54.3329469729693 40.1650079516561 0
384 49.7272968631565 19.8578359816544 0
385 90.398013754167 50.0444032067976 0
386 39.3009702499265 51.8124956147184 0
387 49.1168131043663 86.9853856956052 0
388 61.1445343327544 92.2178554909315 0
389 85.6711701764377 50.1490126765362 0
390 59.2704442258729 88.4802888528622 0
391 39.5132604418843 12.0674622246438 0
392 24.5550554555875 9.14220517502137 0
393 48.7345448431854 55.6249439740041 0
394 79.917014615737 15.0083618384994 0
395 54.7755698865066 24.8355860138478 0
396 54.7543822763099 35.1902372166885 0
397 57.7149493146769 44.8673571310003 0
398 54.7335528355531 19.8491949794886 0
399 71.6123195116118 45.388643278842 0
400 64.8520003818068 14.9723540091787 0
401 85.1530141955967 39.9484958669606 0
402 84.9133335910133 19.961948074835 0
403 74.9085417421307 15.0166360287019 0
404 84.9518278032317 29.750611942667 0
405 54.7365806072385 14.8946278719668 0
406 52.6701674553744 86.3946776241688 0
407 61.5273667090521 49.713644441041 0
408 80.7703916918428 45.4095894773135 0
409 69.844665875599 19.9533555474759 0
410 79.9675339091153 24.8659963355263 0
411 67.0147802756842 45.3704387566152 0
412 76.0460082061876 42.14877706689 0
413 58.5084403945406 40.9476591695667 0
414 54.8724249241746 29.9882330597837 0
415 59.7728357671954 19.8820371479805 0
416 84.9375481685183 34.7682453583136 0
417 79.90792934228 19.9667963907536 0
418 61.8770097147617 44.3683753826674 0
419 65.8743665398617 40.031070011993 0
420 72.133710316337 40.1873714700437 0
421 60.0649512985013 29.9914966060783 0
422 64.8148500399186 19.9096207295592 0
423 59.8505421795079 24.8611009941131 0
424 60.4786254572054 36.0614414482977 0
425 80.313401053481 29.3527914876435 0
426 74.8850242690864 19.9658049040479 0
427 79.5281541815137 40.2184586228591 0
428 71.3462711057349 34.2724423699528 0
429 69.8699914877409 24.7989186584602 0
430 65.2303392988641 29.7176941039609 0
431 79.4153653765342 34.3652370360494 0
432 74.9415819025689 24.8507318108381 0
433 64.8973516651449 24.8030336752787 0
434 66.1450162415073 34.4744358460237 0
435 75.6013933704686 37.0159869035892 0
436 75.1402598078897 30.0749755626889 0
437 69.8944780372399 29.254980687719 0
$EndNodes
$Elements
387
1 2 2 1 1 233 355 170 
2 2 2 1 1 144 242 231 
3 2 2 1 1 418 419 411 
4 2 2 1 1 428 435 420 
5 2 2 1 1 297 393 368 
6 2 2 1 1 241 388 150 
7 2 2 1 1 413 418 397 
8 2 2 1 1 360 397 370 
9 2 2 1 1 170 379 329 
10 2 2 1 1 321 406 369 
11 2 2 1 1 309 386 377 
12 2 2 1 1 184 321 310 
13 2 2 1 1 209 218 134 
14 2 2 1 1 296 390 369 
15 2 2 1 1 186 358 338 
16 2 2 1 1 152 357 236 
17 2 2 1 1 317 355 230 
18 2 2 1 1 424 434 419 
19 2 2 1 1 371 391 312 
20 2 2 1 1 427 435 431 
21 2 2 1 1 431 436 425 
22 2 2 1 1 242 392 338 
23 2 2 1 1 428 437 436 
24 2 2 1 1 169 297 216 
25 2 2 1 1 313 354 304 
26 3 2 1 1 274 337 160 270
27 3 2 1 1 155 268 127 128
28 3 2 1 1 141 233 29 28
29 3 2 1 1 73 196 129 21
30 3 2 1 1 74 75 173 272
31 3 2 1 1 31 270 160 32
32 3 2 1 1 110 22 111 191
33 3 2 1 1 31 30 172 270
34 3 2 1 1 271 176 274 336
35 3 2 1 1 74 272 196 73
36 3 2 1 1 76 174 173 75
37 3 2 1 1 77 175 174 76
38 3 2 1 1 159 226 273 334
39 3 2 1 1 54 55 178 198
40 3 2 1 1 54 198 91 19
41 3 2 1 1 86 176 271 85
42 3 2 1 1 160 279 1 32
43 3 2 1 1 177 337 274 176
44 3 2 1 1 273 174 175 334
45 3 2 1 1 173 174 273 335
46 3 2 1 1 274 270 172 336
47 3 2 1 1 52 51 159 264
48 3 2 1 1 172 30 6 225
49 3 2 1 1 87 177 176 86
50 3 2 1 1 18 226 159 51
51 3 2 1 1 197 53 52 264
52 3 2 1 1 94 201 179 93
53 3 2 1 1 56 269 178 55
54 3 2 1 1 157 269 56 57
55 3 2 1 1 97 202 135 96
56 3 2 1 1 179 199 92 93
57 3 2 1 1 156 84 85 271
58 3 2 1 1 262 83 84 156
59 3 2 1 1 193 82 83 262
60 3 2 1 1 147 81 82 193
61 3 2 1 1 92 199 72 20
62 3 2 1 1 198 178 277 195
63 3 2 1 1 64 65 139 203
64 3 2 1 1 161 205 45 44
65 3 2 1 1 154 89 90 195
66 3 2 1 1 90 91 198 195
67 3 2 1 1 128 129 196 155
68 3 2 1 1 89 154 267 88
69 3 2 1 1 177 87 88 267
70 3 2 1 1 70 138 200 69
71 3 2 1 1 272 173 335 266
72 3 2 1 1 195 277 247 154
73 3 2 1 1 196 272 266 155
74 3 2 1 1 71 275 138 70
75 3 2 1 1 199 275 71 72
76 3 2 1 1 175 77 78 265
77 3 2 1 1 179 278 275 199
78 3 2 1 1 264 159 334 333
79 3 2 1 1 265 78 79 194
80 3 2 1 1 333 334 175 265
81 3 2 1 1 201 94 95 276
82 3 2 1 1 197 264 333 331
83 3 2 1 1 342 343 269 157
84 3 2 1 1 95 96 135 276
85 3 2 1 1 265 194 331 333
86 3 2 1 1 68 281 132 67
87 3 2 1 1 138 275 278 217
88 3 2 1 1 217 339 200 138
89 3 2 1 1 269 343 277 178
90 3 2 1 1 336 172 225 332
91 3 2 1 1 190 108 109 258
92 3 2 1 1 194 79 80 261
93 3 2 1 1 200 281 68 69
94 3 2 1 1 156 271 336 332
95 3 2 1 1 179 201 340 278
96 3 2 1 1 139 65 66 280
97 3 2 1 1 145 101 102 250
98 3 2 1 1 217 278 340 382
99 3 2 1 1 279 160 337 341
100 3 2 1 1 267 154 247 341
101 3 2 1 1 258 109 110 191
102 3 2 1 1 261 80 81 147
103 3 2 1 1 263 331 194 261
104 3 2 1 1 148 62 63 253
105 3 2 1 1 211 346 276 135
106 3 2 1 1 281 200 339 380
107 3 2 1 1 382 394 339 217
108 3 2 1 1 202 97 98 285
109 3 2 1 1 66 67 132 280
110 3 2 1 1 132 281 380 293
111 3 2 1 1 383 360 299 210
112 3 2 1 1 340 201 276 346
113 3 2 1 1 400 361 409 422
114 3 2 1 1 341 337 177 267
115 3 2 1 1 261 147 234 263
116 3 2 1 1 293 361 400 345
117 3 2 1 1 171 13 53 197
118 3 2 1 1 191 111 112 256
119 3 2 1 1 189 105 106 257
120 3 2 1 1 156 332 378 262
121 3 2 1 1 293 345 280 132
122 3 2 1 1 347 202 285 381
123 3 2 1 1 263 171 197 331
124 3 2 1 1 266 344 268 155
125 3 2 1 1 253 63 64 203
126 3 2 1 1 362 211 347 404
127 3 2 1 1 339 394 403 380
128 3 2 1 1 98 99 136 285
129 3 2 1 1 347 211 135 202
130 3 2 1 1 223 139 280 345
131 3 2 1 1 404 347 381 416
132 3 2 1 1 285 136 298 381
133 3 2 1 1 362 404 425 410
134 3 2 1 1 11 41 188 169
135 3 2 1 1 361 293 380 403
136 3 2 1 1 36 8 149 284
137 3 2 1 1 144 206 24 2
138 3 2 1 1 163 60 61 249
139 3 2 1 1 191 256 318 258
140 3 2 1 1 153 243 319 221
141 3 2 1 1 365 223 345 400
142 3 2 1 1 205 213 15 45
143 3 2 1 1 167 182 125 126
144 3 2 1 1 401 416 381 298
145 3 2 1 1 136 99 100 254
146 3 2 1 1 426 409 361 403
147 3 2 1 1 167 268 344 286
148 3 2 1 1 415 365 400 422
149 3 2 1 1 344 266 335 327
150 3 2 1 1 249 61 62 148
151 3 2 1 1 378 332 225 376
152 3 2 1 1 164 37 36 284
153 3 2 1 1 335 273 226 327
154 3 2 1 1 115 116 183 192
155 3 2 1 1 168 107 108 190
156 3 2 1 1 268 167 126 127
157 3 2 1 1 116 117 150 183
158 3 2 1 1 150 117 118 241
159 3 2 1 1 184 119 120 140
160 3 2 1 1 327 227 286 344
161 3 2 1 1 188 328 245 169
162 3 2 1 1 210 131 207 301
163 3 2 1 1 145 385 306 254
164 3 2 1 1 46 151 238 47
165 3 2 1 1 221 149 8 153
166 3 2 1 1 254 100 101 145
167 3 2 1 1 181 349 286 227
168 3 2 1 1 165 103 104 260
169 3 2 1 1 260 104 105 189
170 3 2 1 1 346 211 362 402
171 3 2 1 1 306 298 136 254
172 3 2 1 1 327 226 18 227
173 3 2 1 1 15 246 151 46
174 3 2 1 1 187 122 123 162
175 3 2 1 1 382 340 346 402
176 3 2 1 1 166 113 114 251
177 3 2 1 1 356 377 386 308
178 3 2 1 1 210 299 282 131
179 3 2 1 1 223 326 203 139
180 3 2 1 1 245 328 151 246
181 3 2 1 1 218 296 212 134
182 3 2 1 1 232 252 158 239
183 3 2 1 1 394 382 402 417
184 3 2 1 1 14 240 161 44
185 3 2 1 1 415 422 433 423
186 3 2 1 1 241 118 119 184
187 3 2 1 1 257 106 107 168
188 3 2 1 1 330 324 189 257
189 3 2 1 1 410 417 402 362
190 3 2 1 1 206 288 3 24
191 3 2 1 1 307 385 145 250
192 3 2 1 1 251 114 115 192
193 3 2 1 1 425 404 416 431
194 3 2 1 1 330 257 168 243
195 3 2 1 1 185 48 47 238
196 3 2 1 1 315 149 221 374
197 3 2 1 1 349 182 167 286
198 3 2 1 1 403 394 417 426
199 3 2 1 1 426 417 410 432
200 3 2 1 1 250 102 103 165
201 3 2 1 1 35 204 153 8
202 3 2 1 1 3 215 133 25
203 3 2 1 1 50 181 227 18
204 3 2 1 1 372 301 207 244
205 3 2 1 1 204 330 243 153
206 3 2 1 1 256 112 113 166
207 3 2 1 1 168 190 319 243
208 3 2 1 1 284 149 315 323
209 3 2 1 1 376 225 6 329
210 3 2 1 1 395 414 372 294
211 3 2 1 1 247 277 343 224
212 3 2 1 1 38 37 164 209
213 3 2 1 1 48 185 137 16
214 3 2 1 1 383 210 301 396
215 3 2 1 1 279 341 247 224
216 3 2 1 1 294 372 244 133
217 3 2 1 1 140 120 121 248
218 3 2 1 1 370 407 350 216
219 3 2 1 1 215 384 294 133
220 3 2 1 1 407 364 351 350
221 3 2 1 1 59 60 163 186
222 3 2 1 1 223 365 405 326
223 3 2 1 1 414 396 301 372
224 3 2 1 1 251 192 323 315
225 3 2 1 1 190 258 318 319
226 3 2 1 1 426 432 429 409
227 3 2 1 1 4 131 282 283
228 3 2 1 1 342 180 224 343
229 3 2 1 1 161 230 308 205
230 3 2 1 1 260 189 324 316
231 3 2 1 1 230 161 240 317
232 3 2 1 1 248 121 122 187
233 3 2 1 1 206 144 231 359
234 3 2 1 1 25 133 244 26
235 3 2 1 1 207 27 26 244
236 3 2 1 1 27 207 131 4
237 3 2 1 1 228 305 218 209
238 3 2 1 1 288 206 359 391
239 3 2 1 1 157 57 58 255
240 3 2 1 1 308 386 213 205
241 3 2 1 1 162 123 124 259
242 3 2 1 1 10 9 134 212
243 3 2 1 1 421 424 396 414
244 3 2 1 1 124 125 182 259
245 3 2 1 1 232 162 259 252
246 3 2 1 1 164 284 323 235
247 3 2 1 1 306 385 389 366
248 3 2 1 1 212 352 287 10
249 3 2 1 1 1 279 224 180
250 3 2 1 1 398 395 294 384
251 3 2 1 1 422 409 429 433
252 3 2 1 1 328 320 238 151
253 3 2 1 1 315 374 166 251
254 3 2 1 1 192 183 235 323
255 3 2 1 1 437 430 433 429
256 3 2 1 1 415 423 395 398
257 3 2 1 1 10 287 152 39
258 3 2 1 1 7 289 142 33
259 3 2 1 1 17 49 239 158
260 3 2 1 1 222 321 184 140
261 3 2 1 1 171 263 234 220
262 3 2 1 1 6 5 170 329
263 3 2 1 1 421 423 433 430
264 3 2 1 1 318 256 166 374
265 3 2 1 1 28 4 283 141
266 3 2 1 1 377 283 282 309
267 3 2 1 1 143 239 49 16
268 3 2 1 1 351 130 43 42
269 3 2 1 1 259 182 349 252
270 3 2 1 1 398 384 373 405
271 3 2 1 1 39 152 236 40
272 3 2 1 1 188 41 40 236
273 3 2 1 1 303 387 354 219
274 3 2 1 1 356 355 233 141
275 3 2 1 1 352 367 348 287
276 3 2 1 1 360 383 413 397
277 3 2 1 1 204 35 34 237
278 3 2 1 1 33 142 237 34
279 3 2 1 1 399 292 364 411
280 3 2 1 1 432 410 425 436
281 3 2 1 1 239 143 313 232
282 3 2 1 1 367 352 369 406
283 3 2 1 1 307 250 165 375
284 3 2 1 1 232 313 187 162
285 3 2 1 1 180 242 23 1
286 3 2 1 1 413 383 396 424
287 3 2 1 1 193 262 378 302
288 3 2 1 1 368 299 360 370
289 3 2 1 1 414 395 423 421
290 3 2 1 1 324 330 204 237
291 3 2 1 1 252 349 181 158
292 3 2 1 1 405 365 415 398
293 3 2 1 1 338 358 231 242
294 3 2 1 1 234 147 193 302
295 3 2 1 1 389 295 408 366
296 3 2 1 1 253 203 326 322
297 3 2 1 1 310 321 369 390
298 3 2 1 1 302 325 220 234
299 3 2 1 1 146 220 325 379
300 3 2 1 1 419 434 428 420
301 3 2 1 1 148 253 322 371
302 3 2 1 1 375 316 142 289
303 3 2 1 1 351 364 292 130
304 3 2 1 1 389 385 307 353
305 3 2 1 1 437 429 432 436
306 3 2 1 1 165 260 316 375
307 3 2 1 1 255 58 59 186
308 3 2 1 1 42 11 350 351
309 3 2 1 1 413 424 419 418
310 3 2 1 1 185 314 229 137
311 3 2 1 1 14 13 146 240
312 3 2 1 1 384 215 300 373
313 3 2 1 1 248 187 313 304
314 3 2 1 1 299 368 309 282
315 3 2 1 1 374 221 319 318
316 3 2 1 1 371 312 249 148
317 3 2 1 1 216 350 11 169
318 3 2 1 1 43 130 208 12
319 3 2 1 1 338 392 255 186
320 3 2 1 1 237 142 316 324
321 3 2 1 1 288 300 215 3
322 3 2 1 1 320 328 188 236
323 3 2 1 1 23 242 144 2
324 3 2 1 1 434 424 421 430
325 3 2 1 1 141 283 377 356
326 3 2 1 1 302 378 376 325
327 3 2 1 1 317 379 170 355
328 3 2 1 1 434 430 437 428
329 3 2 1 1 158 181 50 17
330 3 2 1 1 218 305 390 296
331 3 2 1 1 13 171 220 146
332 3 2 1 1 245 393 297 169
333 3 2 1 1 303 229 348 367
334 3 2 1 1 304 354 387 222
335 3 2 1 1 5 29 233 170
336 3 2 1 1 326 405 373 322
337 3 2 1 1 213 311 246 15
338 3 2 1 1 219 143 16 137
339 3 2 1 1 152 287 348 357
340 3 2 1 1 322 373 300 371
341 3 2 1 1 7 12 208 214
342 3 2 1 1 386 309 311 213
343 3 2 1 1 435 427 412 420
344 3 2 1 1 388 310 390 305
345 3 2 1 1 367 406 387 303
346 3 2 1 1 358 186 163 291
347 3 2 1 1 363 290 292 399
348 3 2 1 1 146 379 317 240
349 3 2 1 1 228 150 388 305
350 3 2 1 1 320 236 357 314
351 3 2 1 1 392 342 157 255
352 3 2 1 1 296 369 352 212
353 3 2 1 1 366 401 298 306
354 3 2 1 1 304 222 140 248
355 3 2 1 1 436 431 435 428
356 3 2 1 1 418 411 364 407
357 3 2 1 1 290 295 214 208
358 3 2 1 1 354 313 143 219
359 3 2 1 1 214 353 289 7
360 3 2 1 1 375 289 353 307
361 3 2 1 1 363 408 295 290
362 3 2 1 1 399 420 412 363
363 3 2 1 1 416 401 427 431
364 3 2 1 1 137 229 303 219
365 3 2 1 1 230 355 356 308
366 3 2 1 1 368 393 311 309
367 3 2 1 1 134 9 38 209
368 3 2 1 1 229 314 357 348
369 3 2 1 1 180 342 392 242
370 3 2 1 1 408 363 412 427
371 3 2 1 1 290 208 130 292
372 3 2 1 1 408 427 401 366
373 3 2 1 1 310 388 241 184
374 3 2 1 1 370 216 297 368
375 3 2 1 1 312 291 163 249
376 3 2 1 1 228 235 183 150
377 3 2 1 1 295 389 353 214
378 3 2 1 1 359 291 312 391
379 3 2 1 1 325 376 329 379
380 3 2 1 1 420 399 411 419
381 3 2 1 1 406 321 222 387
382 3 2 1 1 300 288 391 371
383 3 2 1 1 397 418 407 370
384 3 2 1 1 164 235 228 209
385 3 2 1 1 291 359 231 358
386 3 2 1 1 246 311 393 245
387 3 2 1 1 238 320 314 185
$EndElements
