$MeshFormat
2.2 0 8
$EndMeshFormat
$Nodes
1558
1 60 100 0
2 40 100 0
5 20 40 0
7 20 80 0
15 0 100 0
16 0 0 0
17 80 100 0
18 100 100 0
19 100 0 0
20 60 0 0
22 40 97.5 0
23 40 95 0
24 40 92.5 0
25 40 90 0
26 40 87.5 0
27 40 85 0
28 40 82.5 0
29 60 82.5 0
30 60 85 0
31 60 87.5 0
32 60 90 0
33 60 92.5 0
34 60 95 0
35 60 97.5 0
36 22.5 40 0
37 25 40 0
38 27.5 40 0
39 30 40 0
40 32.5 40 0
41 35 40 0
42 37.5 40 0
43 37.5 80 0
44 35 80 0
45 32.5 80 0
46 30 80 0
47 27.5 80 0
48 25 80 0
49 22.5 80 0
50 20 77.5 0
51 20 75 0
52 20 72.5 0
53 20 70 0
54 20 67.5 0
55 20 65 0
56 20 62.5 0
57 20 60 0
58 20 57.5 0
59 20 55 0
60 20 52.5 0
61 20 50 0
62 20 47.5 0
63 20 45 0
64 20 42.5 0
98 0 97.5 0
99 0 95 0
100 0 92.5 0
101 0 90 0
102 0 87.5 0
103 0 85 0
104 0 82.5 0
105 0 80 0
106 0 77.5 0
107 0 75 0
108 0 72.5 0
109 0 70 0
110 0 67.5 0
111 0 65 0
112 0 62.5 0
113 0 60 0
114 0 57.5 0
115 0 55 0
116 0 52.5 0
117 0 50 0
118 0 47.5 0
119 0 45 0
120 0 42.5 0
121 0 40 0
122 0 37.5 0
123 0 35 0
124 0 32.5 0
125 0 30 0
126 0 27.5 0
127 0 25 0
128 0 22.5 0
129 0 20 0
130 0 17.5 0
131 0 15 0
132 0 12.5 0
133 0 10 0
134 0 7.5 0
135 0 5 0
136 0 2.49999999999999 0
137 37.5 100 0
138 35 100 0
139 32.5 100 0
140 30 100 0
141 27.5 100 0
142 25 100 0
143 22.5 100 0
144 20 100 0
145 17.5 100 0
146 15 100 0
147 12.5 100 0
148 10 100 0
149 7.5 100 0
150 5 100 0
151 2.5 100 0
152 77.5 100 0
153 75 100 0
154 72.5 100 0
155 70 100 0
156 67.5 100 0
157 65 100 0
158 62.5 100 0
159 97.5 100 0
160 95 100 0
161 92.5 100 0
162 90 100 0
163 87.5 100 0
164 85 100 0
165 82.5 100 0
166 100 2.5 0
167 100 5 0
168 100 7.5 0
169 100 10 0
170 100 12.5 0
171 100 15 0
172 100 17.5 0
173 100 20 0
174 100 22.5 0
175 100 25 0
176 100 27.5 0
177 100 30 0
178 100 32.5 0
179 100 35 0
180 100 37.5 0
182 100 42.5 0
183 100 45 0
184 100 47.5 0
185 100 50 0
186 100 52.5 0
187 100 55 0
188 100 57.5 0
189 100 60 0
190 100 62.5 0
191 100 65 0
192 100 67.5 0
193 100 70 0
194 100 72.5 0
195 100 75 0
196 100 77.5 0
197 100 80 0
198 100 82.5 0
199 100 85 0
200 100 87.5 0
201 100 90 0
202 100 92.5 0
203 100 95 0
204 100 97.5 0
205 62.5 0 0
206 65 0 0
207 67.5 0 0
208 70 0 0
209 72.5 0 0
210 75 0 0
211 77.5 0 0
212 80 0 0
213 82.5 0 0
214 85 0 0
215 87.5 0 0
216 90 0 0
217 92.5 0 0
218 95 0 0
219 97.5 0 0
220 2.5 0 0
221 5 0 0
222 7.5 0 0
223 10 0 0
224 12.5 0 0
225 15 0 0
226 17.5 0 0
227 20 0 0
228 22.5 0 0
229 25 0 0
230 27.5 0 0
231 30 0 0
232 32.5 0 0
233 35 0 0
234 37.5 0 0
235 40 0 0
236 42.5 0 0
237 45 0 0
238 47.5 0 0
239 50 0 0
240 52.5 0 0
241 55 0 0
242 57.5 0 0
243 82 54.4 0
244 84 52.8 0
245 86 51.2 0
246 88 49.6 0
247 90 48 0
248 92 46.4 0
249 94 44.8 0
250 96 43.2 0
251 98 41.6 0
252 60.5 2.5 0
253 61 4.99999999999999 0
254 61.5 7.49999999999999 0
255 62 9.99999999999999 0
256 62.5 12.5 0
257 63 15 0
258 63.5 17.5 0
259 64 20 0
260 64.5 22.5 0
261 65 25 0
262 65.5 27.5 0
263 66 30 0
264 66.5 32.5 0
265 67 35 0
266 67.5 37.5 0
267 76.5 82.5 0
268 77 85 0
269 77.5 87.5 0
270 78 90 0
271 78.5 92.5 0
272 79 95 0
273 79.5 97.5 0
274 39.9529233055538 37.5744706661118 0
275 24.9999441612341 2.49943969026199 0
276 42.5015886372351 2.49973372983483 0
277 20.0008010490576 37.5009417226755 0
278 97.5019836375054 17.5008460285289 0
279 2.49998328143326 19.9999839064947 0
280 97.5302574422562 87.4757084015918 0
281 82.2110960998924 79.7440996085688 0
282 82.3840467082234 72.7942252291668 0
283 82.4072811745129 63.2017788757799 0
284 97.6360454674289 30.1199290331712 0
285 2.50000287262016 40.0000010461582 0
286 2.5 57.5 0
287 22.5 82.5 0
288 17.5 77.5 0
289 17.5 67.5 0
290 17.500000095287 47.5000000537835 0
291 2.50001828708383 30.0000089039656 0
292 17.5000233912153 2.49992069819429 0
293 97.5246170358812 77.5126415493744 0
294 49.6707106101201 37.5445327373739 0
295 97.5045345917401 67.5214558206823 0
296 2.49999364931696 12.5000031920735 0
297 17.5 57.5 0
298 2.5 87.5 0
299 2.5 80 0
300 2.5 72.5 0
301 2.5 50 0
302 27.5 97.5 0
303 20 97.5 0
304 82.5002442710887 2.50107021980281 0
305 77.4594544158254 37.5053445359738 0
306 97.4605515733221 57.4550554493876 0
307 90.0108335694664 97.504614117353 0
308 10.0000037561162 2.49999232844317 0
309 37.5 90 0
310 10 97.5 0
311 75.0040167410294 2.50325602434108 0
312 82.4325109095648 42.3847399789303 0
313 52.7166318843653 2.55026985205625 0
314 97.5038647245581 92.5004772181953 0
315 97.4997573732422 7.49963040260002 0
316 62.5073237236648 92.5265297383537 0
317 70.5745565792283 82.5596595366427 0
318 62.5201346519768 87.5699233037756 0
319 2.4999986180628 7.50000091945176 0
320 27.4991015219448 37.5082240362741 0
321 35 82.5 0
322 2.5 95 0
323 32.5 97.5 0
324 57.3116753863672 37.3649661965207 0
325 70.0456857250745 2.48535816923062 0
326 69.9275307544472 97.5271226237018 0
327 57.9718816183627 2.48115458549014 0
328 97.489549874617 49.9640841871906 0
329 37.5034129095196 2.49569164952213 0
330 32.5013740485193 2.49695834221897 0
331 92.4999402807794 2.49995244206846 0
332 32.5002082919473 37.5237886806258 0
333 2.5 67.5 0
334 97.5141618120292 22.5061868211571 0
335 65.2293013701759 82.5814454716171 0
336 82.6566365684364 50.3274498459972 0
337 73.2764200286947 82.5199966465842 0
338 82.177265889505 97.460474110674 0
339 69.9617524681019 37.538420927039 0
340 62.5504064618289 85.068262466855 0
341 98.3084774063649 38.323282747881 0
342 52.1654515694855 37.4968524333826 0
343 59.8610096413927 37.3465732986453 0
344 97.5047724735667 72.5276073467557 0
345 97.543333495723 79.9895256092228 0
346 34.9965847795072 37.5383938908516 0
347 97.5544600687927 82.465207996671 0
348 97.4930575684195 62.5113729985534 0
349 97.7190513950985 32.5820301614147 0
350 47.5155616326677 2.51666979621481 0
351 97.5376238814315 25.0302787256398 0
352 30.0003893361762 2.49786729972686 0
353 92.5050334826747 97.5077234715549 0
354 84.8512518093156 97.4310506811958 0
355 2.49999966389357 5.00000012952887 0
356 97.4997963359133 97.501392806192 0
357 37.5 97.5 0
358 62.4989574822336 97.5016391947019 0
359 97.4999647013836 2.49992950941491 0
360 2.50002128640615 35.0000084755122 0
361 2.49998581448172 17.4999909704648 0
362 2.5 62.5 0
363 2.49999015644975 24.9999889906723 0
364 2.50000000708555 47.5000000038845 0
365 15.000015466197 2.49995337456323 0
366 22.500014122678 2.49970742544173 0
367 2.50000008699912 45.0000000408917 0
368 2.5 55 0
369 97.4996680684388 9.9996961670425 0
370 7.50000129138938 2.49999725789971 0
371 37.5 92.5 0
372 37.5 85 0
373 37.5 82.5 0
374 22.50043867599 37.5020391870526 0
375 32.5 82.5 0
376 30 82.5 0
377 27.5 82.5 0
378 17.5 72.5 0
379 17.5 62.5 0
380 17.5 52.5 0
381 17.5000123803935 42.5000070348822 0
382 2.5 97.5 0
383 2.5 92.5 0
384 2.5 85 0
385 2.5 77.5 0
386 22.5 97.5 0
387 15 97.5 0
388 5 97.5 0
389 90.000004935296 2.50008279276672 0
390 2.49999997180958 2.49999996603779 0
391 80.000264700541 2.50202125794673 0
392 87.500165832243 2.50029425627451 0
393 97.4998521789984 12.5002194383164 0
394 42.3887304592658 37.5844095093112 0
395 72.318333289378 97.487962020462 0
396 64.9939100898789 97.5057715588497 0
397 44.807901409275 37.5830442313042 0
398 67.6307338395172 2.49829753081925 0
399 82.4037313484721 70.4030412167708 0
400 82.4108300110476 68.0033472284067 0
401 82.37676526063 60.8083564572628 0
402 97.4739643598023 52.4223413824982 0
403 72.4256478407839 37.5473916046074 0
404 82.2651460560235 77.5005056481257 0
405 82.5797503697123 47.3097882142903 0
406 62.6066581442478 82.5404769175915 0
407 64.9368367786095 37.4332469019414 0
408 82.3647104090074 56.2812348095169 0
409 81.4841110511078 52.2121563541273 0
410 65.2353728286992 2.52612707653532 0
411 74.7071107891914 97.4336412289867 0
412 77.1168577134297 97.4608688423357 0
413 62.8476740019747 2.50669597739164 0
414 97.4017102616702 44.7841783535692 0
415 78.559850471696 82.2476535558791 0
416 97.8739193439359 34.8599376721478 0
417 39.9428335074854 35.1487038878852 0
418 24.9997748812173 4.99833408456163 0
419 20.001785972439 35.0033915362063 0
420 4.99992438213518 17.4999726856136 0
421 95.4634783413125 32.591001052672 0
422 95.0397251125035 22.5027503752014 0
423 82.5004675561083 5.00238596512832 0
424 79.9661504949448 37.532023305036 0
425 49.7271226311665 35.0868495317179 0
426 20 82.5 0
427 5 87.5 0
428 84.3279394809861 79.6775064885481 0
429 84.83355615827 63.1920512361459 0
430 84.7750363439939 72.7961826181902 0
431 5 57.5 0
432 17.5000576274298 4.9996942490591 0
433 5.00000005378081 47.5000000292615 0
434 5 80 0
435 30 85 0
436 20 95 0
437 94.9997241871622 9.9997789060421 0
438 95.0636907793671 77.5394995340112 0
439 93.5372549906161 42.124498147027 0
440 57.242059269394 34.8527178940881 0
441 69.8787353229375 95.1162343371176 0
442 70.0853713852414 4.91990780277168 0
443 90.0597125686963 95.0279534296996 0
444 10.0000082459507 4.99996597069794 0
445 4.99999957197922 4.99999872297246 0
446 35 90 0
447 92.4997401471068 4.99976077525179 0
448 95.1751962551929 49.9606105357298 0
449 73.0061050960025 85.0405064796243 0
450 81.7185808718849 94.8884163730739 0
451 69.4648623243305 35.0715485455706 0
452 55.3812295124754 2.51611626312277 0
453 79.2165100386441 84.5519101204998 0
454 58.480471372952 4.96898455068951 0
455 82.3329335179602 75.1625242009908 0
456 37.4845752226254 37.5562714008856 0
457 95.0162545067166 47.6154964474159 0
458 95.1652999304642 82.4233041326809 0
459 67.8811022195384 82.5864451230135 0
460 97.5105988001859 75.0268937440757 0
461 54.7211378477238 37.442551625849 0
462 97.5031910687516 70.0275375913818 0
463 29.9995889360604 37.5155043552934 0
464 97.5517895906755 84.9608754835685 0
465 97.5816151846217 27.5719250158232 0
466 97.4990333940162 65.0209328198479 0
467 97.515053770026 89.9917081670031 0
468 40.0026605861746 2.49663891261724 0
469 35.002729004237 2.49593785155482 0
470 45.0042200731467 2.50684181980015 0
471 97.5008018242538 95.0024158565658 0
472 27.4999670804681 2.49869568799113 0
473 95.0009946880341 97.5045639254123 0
474 97.5072082388065 20.0014015434794 0
475 2.500032048383 32.5000143359001 0
476 2.5 60 0
477 5.00000022964739 2.49999912691215 0
478 2.5000007572423 42.5000003022692 0
479 2.50001309954609 37.5000048592192 0
480 12.5000100598443 2.49997383614738 0
481 2.49998644986869 14.9999990096639 0
482 20.000036166138 2.49981925055027 0
483 2.5 75 0
484 2.5 65 0
485 2.49999566234731 10.0000030709387 0
486 2.5000045416358 27.5000005172 0
487 97.499879362912 4.99979244199951 0
488 17.5001654791102 40.000130440101 0
489 17.5 80 0
490 37.5 95 0
491 37.5 87.5 0
492 62.5005205580203 95.0100265569724 0
493 24.9994181971648 37.5045897541522 0
494 25 82.5 0
495 17.5 75 0
496 17.5 70 0
497 17.5 65 0
498 17.5 60 0
499 17.5 55 0
500 17.5000000214396 50.0000000121013 0
501 17.5000023312847 45.0000013217295 0
502 2.5 90 0
503 2.5 82.5 0
504 2.5 52.5 0
505 35 97.5 0
506 30 97.5 0
507 25 97.5 0
508 17.5 97.5 0
509 12.5 97.5 0
510 7.5 97.5 0
511 94.9999262597722 2.49988954804881 0
512 35 85 0
513 5 95 0
514 2.5 70 0
515 2.49998094772283 22.4999804953829 0
516 85.000283225763 2.50063983008059 0
517 89.999876966586 5.00001794953084 0
518 97.5007133506913 15.0008515740156 0
519 77.5014615878592 2.50321994709408 0
520 67.4739944148699 97.5191083916327 0
521 82.4054121637455 39.9708966109675 0
522 97.4748802786627 59.9889870207445 0
523 87.4752315297382 97.4635804223295 0
524 50.0823174481257 2.54969239964911 0
525 72.516893282101 2.49443607655371 0
526 42.3847131981558 35.1636422749673 0
527 82.4130011625914 65.6010740822997 0
528 62.5139820532257 90.0521786561581 0
529 84.8223368201193 70.4116354840284 0
530 97.4491529840802 54.9159751470195 0
531 47.2320315848091 37.5690971177835 0
532 67.9059752284061 4.72714729943717 0
533 72.032518333684 95.2773578355469 0
534 97.4166249204555 47.4603189883043 0
535 82.4977332537101 44.8020396550065 0
536 74.9133853597344 37.5161582736267 0
537 82.3306167336178 58.4421298536506 0
538 64.4992163148617 34.8876816321864 0
539 65.0607144972134 87.635741543581 0
540 65.1313698163357 85.1219693721592 0
541 62.388766786845 37.3826975251664 0
542 95.9879275843576 40.7455976545972 0
543 97.990396121898 36.6450243437879 0
544 82.2434360879983 81.7239351094614 0
545 84.4904356222413 55.9825804532888 0
546 85.2950215891867 49.4191548128124 0
547 76.84657556078 95.1218247295644 0
548 63.1038975575517 4.82991088726209 0
549 80.3758804457344 81.8496654840968 0
550 75.2006289695906 85.1911725902912 0
551 39.9329579678873 32.7228704726951 0
552 40.0051239975402 4.991490014962 0
553 5.00014629024233 30.0001275656528 0
554 82.4082482545695 37.5470088642156 0
555 47.5214144016967 5.03668626121248 0
556 5.00002306825213 40.0000095304239 0
557 5 65 0
558 15 72.5 0
559 17.5 82.5 0
560 12.5 95 0
561 77.2216130270743 34.6970352803941 0
562 84.1538858927894 81.8788518575617 0
563 94.8868273400701 60.0144312183453 0
564 87.2192880932621 72.8169124001009 0
565 94.9716956651376 65.0922867524259 0
566 15 57.5 0
567 15.0001471655665 40.0000969050629 0
568 15 65 0
569 15.0000000528903 50.0000000302254 0
570 25 95 0
571 22.5 85 0
572 15 77.5 0
573 5 75 0
574 84.8098163870049 42.2632496018641 0
575 94.9772833615472 70.0949169360231 0
576 93.8572088359979 39.9238041999934 0
577 89.5572293192332 51.7358580792769 0
578 29.9943225866889 35.0362837132987 0
579 69.9832527795494 92.7193169023448 0
580 95.569382364752 35.0853708227506 0
581 71.9422654324078 35.0847896105178 0
582 54.756924707648 34.9294567715525 0
583 84.6566449080496 75.1352589725146 0
584 95.0448200074285 89.9972120885293 0
585 95.1468986024054 84.9217981051034 0
586 47.2607860401053 35.1356974118326 0
587 95.0188137792288 92.5116144219989 0
588 87.5710197861124 94.944952108042 0
589 35.006016709417 4.99004853805849 0
590 4.99996324526045 12.5000065347366 0
591 5 60 0
592 15.0000382619295 4.99981357336853 0
593 22.5000082472417 4.99896320567455 0
594 5.00000110869233 45.0000005520597 0
595 4.9999941029604 7.50000062554524 0
596 35 92.5 0
597 5 92.5 0
598 5 85 0
599 87.5001927907663 5.00043384515415 0
600 84.841683531343 65.5953372308877 0
601 75.0091529575579 5.00723010906054 0
602 70.0169657017151 7.3506102500945 0
603 64.9946831431194 95.0238503217319 0
604 65.0109464409881 92.5570517050118 0
605 85.1796431964576 47.1356532934765 0
606 59.6454338235063 34.8280883058023 0
607 55.8994815210414 5.04282497832085 0
608 95.3102287162831 30.1189531172269 0
609 68.9415048215557 32.6030249203216 0
610 79.9331659067859 86.9491957390948 0
611 81.6454934075995 83.9100552982321 0
612 59.023834050926 7.44477303950949 0
613 52.2386978638575 35.0082971999983 0
614 84.4936767117163 77.4288705165498 0
615 95.0032282625946 75.0810322418382 0
616 37.4769068075755 35.1175604124976 0
617 95.1372915824326 79.9798905142543 0
618 44.8195331121269 35.15817455078 0
619 24.9977578577921 35.0119965953504 0
620 70.3888758663397 85.1048386102171 0
621 67.6441608981196 87.6550675600938 0
622 92.5250170954612 95.0234694073599 0
623 84.685009900727 94.5494309025499 0
624 95.1770405164084 27.5701747529925 0
625 95.0918181681541 25.0236870313119 0
626 95.0087875990755 95.0107258974735 0
627 22.5005641802728 35.0069220163282 0
628 95.0190470361484 19.9994215005684 0
629 27.4997237374387 4.99674619375693 0
630 5.00015703353872 35.0000743585666 0
631 4.99993850242124 14.9999938692741 0
632 7.50000096584887 4.99998794512808 0
633 5.00000000895552 50.0000000049336 0
634 12.5000226448192 4.99990047985393 0
635 5 70 0
636 20.0000684798807 4.99937290627244 0
637 4.9998986279755 19.9999616425032 0
638 15 60 0
639 15.0000000079513 52.5000000045345 0
640 15.0000374278587 42.5000253408326 0
641 17.5007016301108 37.500689471717 0
642 15 67.5 0
643 15.0000070644773 45.0000045429041 0
644 27.5 95 0
645 7.5 95 0
646 32.5 95 0
647 32.5 85 0
648 27.5 85 0
649 5 77.5 0
650 22.5 95 0
651 17.5 95 0
652 5 90 0
653 5 82.5 0
654 35 87.5 0
655 35 95 0
656 5 55 0
657 4.99994623621023 25.0000378273016 0
658 94.9997621213325 4.99967197347652 0
659 95.0089182328744 17.5010864219276 0
660 94.8008398703345 57.3824401595866 0
661 94.9996213997053 7.49955053136789 0
662 92.4996230633691 7.4995950912769 0
663 80.0014954639669 5.00471904571695 0
664 95.0009729705595 12.5009096254395 0
665 85.0003213691286 5.00116017452317 0
666 53.0134901370232 5.42915975389425 0
667 42.5033927716147 4.99819385327302 0
668 84.8389919206854 68.0049062336881 0
669 94.9216065878411 52.2181708113082 0
670 67.4691501387652 95.0585188782377 0
671 72.5248603775206 4.98164690523274 0
672 65.0382735929248 90.0948266090556 0
673 67.7554938772303 85.1274227327929 0
674 97.3066175984948 39.3347713862619 0
675 75.8688892745344 92.523920647799 0
676 64.1065092977759 7.44180377778261 0
677 84.6812654070511 58.4195321979506 0
678 84.7846682160599 60.7988330069451 0
679 64.0077731201918 32.363987457021 0
680 96.5917890829266 36.8851604609861 0
681 62.0396175253244 34.8399325944656 0
682 75.3024864740802 87.5154081643786 0
683 91.4329228685133 43.9260147461777 0
684 65.6313066779472 5.21230168311872 0
685 74.3145031925962 94.7584608163302 0
686 81.1994607665344 92.3524024885337 0
687 86.8694581780988 53.7986323974669 0
688 92.6690294306459 49.1541476681063 0
689 47.2934579624971 32.6984489169506 0
690 22.4990798244031 32.5133884520075 0
691 40.0093008302957 7.48450395904992 0
692 27.4989308526943 7.49349010828556 0
693 92.7506635907504 27.5458157510248 0
694 17.5014662272273 35.0020176250197 0
695 20.0000082903261 7.49853394241899 0
696 7.49980749535906 14.9999253920069 0
697 92.5378843006117 19.9913928834692 0
698 84.999749817168 7.50103353554254 0
699 93.262531619643 32.4944533804588 0
700 84.0980413666123 84.0435634226536 0
701 7.5 87.5 0
702 54.8720504394158 32.4676184394252 0
703 86.2785123158957 81.9741563230322 0
704 87.7600504271162 92.5140760484004 0
705 87.0427619928995 58.3845967810257 0
706 87.2934250360833 63.1293580506733 0
707 37.4612191683163 32.6848057144391 0
708 12.5000009828777 7.49975158325901 0
709 7.5 57.5 0
710 12.5001376069761 40.0000849870752 0
711 7.50000002518111 50.0000000144348 0
712 12.5 65 0
713 7.5 80 0
714 30 87.5 0
715 20 92.5 0
716 92.8172541081186 79.9815824765906 0
717 71.3988683407682 32.6309177120538 0
718 92.2353211752453 60.2045532022936 0
719 92.6079287771005 90.0351611139977 0
720 32.4954980107139 35.0579614994181 0
721 12.5 57.5 0
722 12.5000000841522 50.0000000485521 0
723 25 92.5 0
724 89.9999838893089 7.49968273113276 0
725 70.2855548221446 87.6531431756197 0
726 56.5586466069732 7.50677563271844 0
727 92.3139564352073 51.9649744413128 0
728 89.3671665670564 54.0499982123944 0
729 94.9700172628151 37.1508671285162 0
730 67.7226536321998 6.92246263370482 0
731 72.2593564448738 93.1047446137039 0
732 74.4402701060589 35.0047594549471 0
733 80.9252966343653 89.6066453901304 0
734 72.9003284985183 87.6257615459941 0
735 68.4268153852716 30.1311125425055 0
736 92.4639483823199 75.1940529820677 0
737 59.5702357688956 9.90090015669888 0
738 92.7925014871073 84.9008875121403 0
739 95.0991397644231 87.466661521139 0
740 75.7613852093628 89.856393432101 0
741 86.9983971796548 75.1808719158749 0
742 92.5632212207375 92.5418067002789 0
743 27.4942981702768 35.0226331490121 0
744 94.9723798758044 67.6003285098773 0
745 34.9900846137889 35.0866841255234 0
746 59.3800233006893 32.5781610267573 0
747 94.975949434005 72.6011390151305 0
748 37.5070193734896 4.98944359660094 0
749 80.0029506565627 35.0405839157513 0
750 94.9371525771636 62.5883434645266 0
751 84.7691921263431 39.8631719963838 0
752 95.6953562740611 39.0346802008433 0
753 32.5031550192826 4.99195617596291 0
754 30.0008334639115 4.99424458825306 0
755 95.0041092283487 15.0015951542134 0
756 24.9993718192873 7.49587874033667 0
757 82.4986327347813 7.5032497128543 0
758 17.5000048113719 7.49912406909121 0
759 7.4997143883007 17.4998990025884 0
760 5.00008562228506 37.5000369300125 0
761 5 62.5 0
762 5.00000000269326 52.5000000015189 0
763 7.49998855193213 7.49997736419573 0
764 5.00000807634788 42.500003641056 0
765 4.99997791305589 10.0000031775434 0
766 5 67.5 0
767 15.0000000009939 55.0000000005668 0
768 4.9998959441614 22.499996278506 0
769 15.0005805137829 37.5005177967977 0
770 12.5000411381769 42.5000255225596 0
771 5 72.5 0
772 15 62.5 0
773 15.0000012854994 47.5000007989756 0
774 10 95 0
775 15 95 0
776 20 85 0
777 32.5 92.5 0
778 32.5 87.5 0
779 15 80 0
780 25 85 0
781 15 75 0
782 15 70 0
783 30 95 0
784 7.5 77.5 0
785 7.5 92.5 0
786 7.5 85 0
787 7.50000043359851 47.5000002363808 0
788 5.0002200523129 32.5001345336551 0
789 5.00004279371794 27.5001150819176 0
790 92.5765561545941 22.4849817122173 0
791 94.809672154582 54.7565835537559 0
792 92.5005224582221 9.99980612128713 0
793 50.0855125331744 5.11798600645869 0
794 77.5045302531657 5.00752166545594 0
795 49.7866569998466 32.6267673768427 0
796 42.3852609161235 32.738254314992 0
797 45.0077278015443 5.011606628987 0
798 87.2884766808702 70.4015844131725 0
799 87.3095156985922 67.9706468811183 0
800 72.511621018159 7.4823797403326 0
801 86.4377335930474 79.7029260589788 0
802 67.5098184539783 92.6069270014243 0
803 84.9648039885149 44.6486671483653 0
804 64.3192185745037 10.1366223705939 0
805 63.4853427197711 29.8455919174661 0
806 67.5828754868383 90.1394828484484 0
807 86.8806339697705 56.0187098516861 0
808 87.9949512602542 46.7092358307224 0
809 98.0257682597038 40.5026762766004 0
810 90.1180852204863 49.8690167031797 0
811 82.2862547355889 86.4310185783796 0
812 83.4986377575333 92.1672192901225 0
813 91.4405298914886 41.887347978182 0
814 61.5413604981195 32.3661098520962 0
815 89.7149020451785 45.5987787438414 0
816 96.827180996246 37.9527896746092 0
817 47.3568000988096 30.2548396174297 0
818 39.9210791332364 30.2951603218657 0
819 47.5338620435023 7.52537082125801 0
820 27.4969710119905 9.98798139414304 0
821 90.1075819682707 22.4732815213783 0
822 85.0011191020848 9.99986872889298 0
823 82.4413429503531 35.1056123670933 0
824 19.9995622635698 9.99697071754376 0
825 9.99951320019296 14.9995837420502 0
826 7.5004551745656 30.0006231366989 0
827 17.5 85 0
828 57.1610676460609 9.89890927044485 0
829 12.5005133080649 37.5003706265213 0
830 7.5 72.5 0
831 12.5 92.5 0
832 10 87.5 0
833 69.9495301217698 9.87162910851181 0
834 86.1291392828358 84.2082722548427 0
835 78.0362195091229 32.3602922108452 0
836 70.8639023102136 30.1781233914828 0
837 92.392498156046 72.7172905168954 0
838 92.4018843919189 70.2214221390806 0
839 32.4793527601458 32.5983081772177 0
840 35.0086461348712 7.48106803458388 0
841 30.0003490185995 7.48903985315695 0
842 90.0018656601588 9.99916619547464 0
843 7.49994682230916 9.99996315107447 0
844 7.50022977490917 37.5001148741098 0
845 7.50000000018231 55.000000000103 0
846 10.000136955962 40.0000801274474 0
847 12.5000000006352 55.0000000003623 0
848 7.5 65 0
849 12.5000106278772 45.0000066117783 0
850 12.5 62.5 0
851 12.5 70 0
852 12.5 72.5 0
853 22.5 87.5 0
854 12.5 77.5 0
855 27.5 92.5 0
856 27.5 87.5 0
857 7.5 60 0
858 7.49979817753098 25.0004468227619 0
859 60.9320737021164 29.8474947618589 0
860 89.460235655172 44.0100931169465 0
861 88.412385173951 82.1450731803421 0
862 83.0540739987362 88.385032037405 0
863 73.8256866850325 32.5640105895371 0
864 91.7463047932502 57.3151776659214 0
865 92.971589768382 30.083211681302 0
866 89.670996993645 75.5333310111224 0
867 92.0821351538986 54.465556650747 0
868 89.7784104447946 72.8232955906167 0
869 89.8246485301729 70.3323022839908 0
870 66.9833621063155 9.39989703387479 0
871 60.0897847691521 12.3570175307229 0
872 92.6953702671556 87.4814215857141 0
873 67.9398904459028 27.6484863822065 0
874 52.3237403546844 32.535431037551 0
875 34.9722642681574 32.6416594855423 0
876 92.8537575552932 82.3987157468784 0
877 90.1845880695759 90.0603612407081 0
878 92.4063524866503 67.7306667452878 0
879 92.3599292736035 62.7572520650719 0
880 29.9812343059993 32.5652423552866 0
881 24.9934218889838 32.5238563495132 0
882 37.5100840607293 7.48020758916454 0
883 57.1480919793253 32.6554980213793 0
884 44.8394660343317 32.7276199269545 0
885 92.5206636106638 17.4977589318298 0
886 17.5014504900898 32.5044125054628 0
887 20.0007378447479 32.5080156622056 0
888 90.1368779368952 92.5514550975766 0
889 84.7868670272048 37.4522337477754 0
890 91.4559237990186 39.7483952149354 0
891 92.6693373904727 77.6241392957875 0
892 22.4997844800406 7.49731146512035 0
893 52.2082562150206 7.82459646861156 0
894 15.001175186264 35.0014426204744 0
895 92.644366184057 24.9995502050474 0
896 92.5037842436094 12.5003996548398 0
897 15.0000000293405 7.49948449378215 0
898 7.49963938391542 19.9999729459701 0
899 7.49986957273632 12.4999252527027 0
900 9.99998368041528 7.49988705357042 0
901 7.50047798162358 35.0002862849316 0
902 7.50009110038842 40.0000467484425 0
903 7.50000000420665 52.5000000023961 0
904 7.50000399968803 45.0000020691996 0
905 7.5 70 0
906 12.5000000150999 52.5000000086863 0
907 10.0000001014112 50.0000000577803 0
908 12.5 60 0
909 12.5 67.5 0
910 12.5000023388451 47.5000014393632 0
911 32.5 90 0
912 15 82.5 0
913 7.5 75 0
914 22.5 92.5 0
915 15 92.5 0
916 17.5 92.5 0
917 7.5 90 0
918 7.5 82.5 0
919 10 80 0
920 10 92.5 0
921 30 92.5 0
922 80.0006538567605 7.50833468430853 0
923 87.5004773016645 7.49998342305111 0
924 42.5145126627356 7.49486543127193 0
925 87.3153996038058 65.5383557508911 0
926 86.6785475209927 77.481662019091 0
927 75.0112026783732 7.5164647993325 0
928 87.2018309394175 60.7345133449627 0
929 64.9700268401119 12.4838376899297 0
930 73.1257521996837 90.6330382792277 0
931 62.9706176095885 27.331374974197 0
932 70.1833737706329 90.2573541874203 0
933 93.3925010374547 34.6202023569456 0
934 87.0659566479607 39.6628549546035 0
935 87.0891590924704 42.0114388900211 0
936 54.4035202966378 7.8121698096993 0
937 87.3159975735003 44.302785679866 0
938 98.8859917254528 39.6583477150508 0
939 84.4437667490247 86.0814800825632 0
940 85.6489345915422 92.2311136396267 0
941 89.1612056774597 56.1896046790767 0
942 37.5122941427348 9.96857778043157 0
943 32.463312311782 30.1439727897368 0
944 22.4946011796498 30.0218634848925 0
945 57.6691590634939 12.3207927868575 0
946 70.37948039349 27.7132763703058 0
947 84.8327872094161 35.0353662384211 0
948 15.0013569966735 32.5029603780948 0
949 91.346280394751 32.6207290197244 0
950 60.4040194098828 27.2816175571124 0
951 52.4373178293287 30.0597383405904 0
952 29.9977885148655 9.98157506355473 0
953 24.9981787114054 9.99184503297146 0
954 90.0075063232537 12.4984141546667 0
955 12.5010461282393 35.001032368721 0
956 14.9997880131365 9.99896164653907 0
957 9.99972680365413 12.4996574235954 0
958 20 87.5 0
959 10 85 0
960 15 85 0
961 15 90 0
962 44.8775366127545 30.2954811877695 0
963 88.1850181800322 84.562425734738 0
964 88.5107255306071 79.8412277638094 0
965 87.1244063423918 37.2714808113101 0
966 85.0716333197043 88.0742504867376 0
967 90.2622434880677 87.4406537515893 0
968 89.2597097687798 58.3531911446451 0
969 90.3062746961907 30.372856962186 0
970 90.1684003401641 24.9854843047425 0
971 89.8417470267416 67.8676359981505 0
972 89.7986192158033 62.9641738184377 0
973 60.5720225957037 14.8344565984585 0
974 58.0457383446293 30.2537249687315 0
975 49.8829410914051 30.1671813675357 0
976 67.4612890529374 25.1530728721831 0
977 92.3958903709536 65.2488930337108 0
978 92.5106076840769 14.9998857843918 0
979 19.9979441748976 30.0133187734582 0
980 32.5040250525821 7.48438504614131 0
981 27.486767995254 32.5413922947462 0
982 22.499017659086 9.99467876358551 0
983 50.0168500926648 7.59760756137534 0
984 82.4988873081531 10.0049555847708 0
985 87.5031720910488 9.99870996557409 0
986 17.4996483643724 9.99810798504133 0
987 9.99989430591623 9.99977166268264 0
988 7.49963919605705 22.5002211538711 0
989 9.99926160100343 17.4995905480609 0
990 7.50010780175496 27.5006741313882 0
991 10.0004240165831 37.5002788516271 0
992 7.5 67.5 0
993 10.0000000000511 57.5000000000291 0
994 10.0000000013432 55.0000000007706 0
995 10.0000437425231 42.5000253513252 0
996 10.0000018546685 47.5000010814676 0
997 10.0000000000064 60.0000000000036 0
998 10.0000000000008 62.5000000000005 0
999 7.5000000000005 62.5000000000003 0
1000 10.0000000000001 65.0000000000001 0
1001 10 67.5 0
1002 10 72.5 0
1003 10 90 0
1004 30 90 0
1005 20 90 0
1006 22.5 90 0
1007 25 90 0
1008 12.5 80 0
1009 25 87.5 0
1010 12.5 75 0
1011 10 77.5 0
1012 10.000000022198 52.5000000127022 0
1013 10 82.5 0
1014 7.50003192867862 42.5000171421046 0
1015 7.50060327687241 32.5005176348103 0
1016 45.0313181246539 7.50594392956649 0
1017 90.0634827571802 19.9869778127458 0
1018 40.0188826867606 9.98022620820886 0
1019 77.5061954783493 7.51644176839987 0
1020 42.4018014458613 30.3062401450137 0
1021 37.4416807359647 30.2540698872015 0
1022 80.1305438733685 32.60578725523 0
1023 67.524015046168 12.4304192549323 0
1024 73.2698097865804 30.1686028153775 0
1025 75.0287708353383 10.0558877782762 0
1026 72.5284640298337 10.0150592688773 0
1027 87.7757874675606 90.0663923100777 0
1028 88.6083927206063 77.7918511001654 0
1029 65.4962946460324 15.0290519760628 0
1030 92.4516112785234 37.1333772735512 0
1031 62.479647913546 24.8192416019937 0
1032 54.8043185091171 9.98114411307063 0
1033 90.6240250211149 79.9720436716788 0
1034 90.4409525577421 84.8170819548828 0
1035 89.2922239736619 41.8447384652573 0
1036 85.9496732871857 85.7812897539974 0
1037 90.6106742578717 77.8724572216108 0
1038 83.4597559957596 90.3084967232892 0
1039 75.9273098591299 32.3103219409797 0
1040 39.932987708442 27.8619614489939 0
1041 47.4437825925963 27.8002800124361 0
1042 29.9913527209953 12.4718848052893 0
1043 72.8196534407628 27.748231670928 0
1044 22.4895994868252 27.5295065385535 0
1045 37.5102125584407 12.4670313551664 0
1046 55.2554504606678 12.3594372609609 0
1047 75.1156709739753 12.6211138316311 0
1048 87.6206238400316 22.5155906354366 0
1049 22.4973371242131 12.4917334010751 0
1050 85.0115749999378 12.4990404506096 0
1051 9.9990933968331 22.5007431607453 0
1052 59.9694233797324 24.7478598277699 0
1053 61.042287613168 17.3288558209095 0
1054 67.9984293382356 15.0582508629338 0
1055 66.9733146141795 22.6427303015221 0
1056 47.6722031107404 9.98615693202012 0
1057 77.8869513839828 30.1909079330427 0
1058 90.0181980858415 14.9968285039317 0
1059 12.5012960781065 32.5019877019037 0
1060 17.4988598379474 12.4970263402474 0
1061 12.4985135610471 17.4989966624872 0
1062 80.0038878698233 10.018536767331 0
1063 87.1726945317355 34.9022259805395 0
1064 55.0676468401393 30.0209258956963 0
1065 89.4858765859656 37.1499852919881 0
1066 89.3717917087583 32.6933340242269 0
1067 34.9573716664979 30.2003702484379 0
1068 49.984530276599 27.6961065053944 0
1069 90.2269859544209 27.5687398938492 0
1070 57.774097094653 27.391992820975 0
1071 90.0359516514301 17.4940592346634 0
1072 32.5021402271665 9.97453972004207 0
1073 35.0074644723748 9.97062929088057 0
1074 87.5116379215882 12.4973617324733 0
1075 29.9706735055658 30.0973167839413 0
1076 24.9870575366756 30.037469274205 0
1077 10.0000965191209 27.5018979509725 0
1078 10.0007439563014 30.0016962104603 0
1079 27.4925116357454 12.4802341844519 0
1080 9.99905814528379 19.999994107753 0
1081 42.562812208174 10.0216111511023 0
1082 10.0007877259825 35.0006621346803 0
1083 15.0005597983248 30.0049745927233 0
1084 17.4995931063515 30.0081971275121 0
1085 12.4995045595233 12.4990724960958 0
1086 12.499814909938 9.99940742696639 0
1087 10 70 0
1088 17.5 87.5 0
1089 12.5 90 0
1090 12.5 87.5 0
1091 27.5 90 0
1092 12.5 82.5 0
1093 10 75 0
1094 17.5 90 0
1095 10.000013281752 45.0000077187695 0
1096 42.4294886213578 27.8708472051575 0
1097 89.8373043183672 65.4095133762375 0
1098 82.4986200831326 32.6617672296905 0
1099 77.5210883805872 10.0406188800823 0
1100 89.6377257825125 60.5172150477795 0
1101 52.4773229904488 10.0130917629041 0
1102 70.1229892926844 12.4882872093557 0
1103 65.9934779918423 17.5761763903734 0
1104 91.4101334448272 34.581911066383 0
1105 69.9158892384595 25.2290843851762 0
1106 58.138302249641 14.7981755953862 0
1107 61.9999388973683 22.3238408349094 0
1108 75.5967705102705 30.1430066171411 0
1109 90.5926206381957 82.3215771145589 0
1110 89.37117127342 39.5675299802227 0
1111 85.4953967228161 90.1577845509358 0
1112 87.4279266442443 87.1736398556689 0
1113 47.4657622248219 25.3242936962959 0
1114 32.4598809151856 27.6813844041944 0
1115 39.941239481121 25.4052568669445 0
1116 29.975799362844 14.9665721030306 0
1117 72.3910255879523 25.2868724714263 0
1118 55.7077651664325 14.8287307603584 0
1119 57.4784204392454 24.8348958334563 0
1120 68.478893979257 17.6366781156004 0
1121 24.9804355888126 27.548180762576 0
1122 69.4448870586947 22.7262689163713 0
1123 17.4975126782882 27.5113272342373 0
1124 84.9110967999059 32.6134249739841 0
1125 87.5189174956664 30.1440974248409 0
1126 87.6441928457883 25.0490786453717 0
1127 66.4837417782858 20.1096919361649 0
1128 55.1331033122337 27.4982456884598 0
1129 52.541441333972 27.5851758634365 0
1130 61.5212560572773 19.8340993576509 0
1131 37.4479922364549 27.8148385159626 0
1132 77.6832372917864 27.8284692209007 0
1133 75.2517425022748 27.7800550187692 0
1134 58.6002318092071 17.2910076664588 0
1135 35.0004804062979 12.4641912897347 0
1136 87.5497283636732 17.500035733523 0
1137 32.4933496349882 12.4659745044886 0
1138 87.5816715751324 20.0121452080875 0
1139 24.9950605817297 12.486744711202 0
1140 45.1492636660435 10.0407450995367 0
1141 87.527356925623 14.9975877174961 0
1142 12.5007253549572 30.0031688937102 0
1143 40.0266794480993 12.4910769251275 0
1144 12.4981275837144 20.0000684066005 0
1145 82.5144680401513 12.5102480005181 0
1146 77.5694004541625 12.5845360848292 0
1147 19.998195771714 12.494981768726 0
1148 19.9945445482947 27.5187107724393 0
1149 10.0008984133104 32.5012007962298 0
1150 72.6632551214772 12.587047622832 0
1151 14.9991656787985 12.4981920294511 0
1152 12.4989836765236 14.9988099645587 0
1153 9.99941755728969 25.0016021583557 0
1154 12.5 85 0
1155 15 87.5 0
1156 27.4783358940826 30.0626786056335 0
1157 44.9278556161036 27.8479363087559 0
1158 82.5496467540968 30.2319673633629 0
1159 80.1802430313404 30.2171150246671 0
1160 50.1289266688508 9.98218007386491 0
1161 52.8563247072789 12.3833651195127 0
1162 70.4969695439408 15.1132965936064 0
1163 59.5325525531308 22.2727386455547 0
1164 89.4321902630188 34.8253553395726 0
1165 45.4580792130296 12.9334599081016 0
1166 24.989557366128 14.9849247035749 0
1167 37.4872829012447 15.0077313236304 0
1168 53.2784369379383 14.842327479326 0
1169 77.6608519837923 15.1018673178679 0
1170 24.9749534490732 25.0495676240998 0
1171 71.9438659279505 22.7835311785105 0
1172 85.1000653615809 22.6200044956904 0
1173 44.9383328314278 25.384951925533 0
1174 50.4455709232208 12.333588269564 0
1175 37.4487396321376 25.3477909470645 0
1176 70.9548049128076 17.6966278888865 0
1177 19.9920458642212 25.0209173523558 0
1178 27.4694633846949 27.5779457776917 0
1179 14.9968042912583 20.0012946619187 0
1180 19.9962563379868 14.9953570082764 0
1181 12.4996995346259 27.5039103717728 0
1182 14.9983178668286 14.9979732694812 0
1183 57.1091071138334 22.346635597937 0
1184 85.0048671918718 30.1720522189905 0
1185 77.4515225034656 25.3793334717412 0
1186 68.9650187844734 20.1878017861861 0
1187 42.4317968002329 25.4040310102859 0
1188 56.175867226685 17.3315843208377 0
1189 87.6321205903452 27.6175962755166 0
1190 82.5382272557899 15.0223987662723 0
1191 85.0585833263479 17.5267232486935 0
1192 32.4729613083931 14.9654005623602 0
1193 52.5125315126206 25.0855768524949 0
1194 49.9771074419955 25.2036526923671 0
1195 42.5810675286219 12.5822320746541 0
1196 29.9617624479543 27.6211719508251 0
1197 27.4817600404126 14.9775092176107 0
1198 74.9055627263801 25.3340247175053 0
1199 14.9988833149191 27.5068507855486 0
1200 12.4981409031221 22.5020569763943 0
1201 85.0334857610129 15.0086361096345 0
1202 80.0367822940918 12.5387933737166 0
1203 34.9571451118579 27.7464526599064 0
1204 59.0763093602057 19.7981599760636 0
1205 75.307767799928 15.1454649259568 0
1206 72.9432463802448 15.149518015162 0
1207 82.5669084452244 27.7746025967902 0
1208 80.1100352086147 27.8095559319654 0
1209 54.9830624609668 24.9733157564646 0
1210 87.2978459774073 32.5799492909474 0
1211 44.8952965002815 22.8789125871787 0
1212 32.4415391180773 17.4936458501033 0
1213 39.9227589632612 22.8788241859688 0
1214 42.5109811304479 15.1094908336158 0
1215 50.8214740803233 14.7544988795908 0
1216 49.7910117002568 22.6902780779845 0
1217 77.2065867165518 22.8281148376436 0
1218 32.4474552428961 25.1813496479335 0
1219 27.4675310784262 17.4884217208538 0
1220 82.5494834464102 17.5652901119566 0
1221 77.7747821878817 17.4085651331229 0
1222 53.7485873564118 17.3657109454091 0
1223 14.9967763177881 22.5047945699175 0
1224 27.4598222512242 25.0760839575068 0
1225 74.5221608277326 22.8076261997987 0
1226 85.0952083978752 25.1673234492744 0
1227 85.069576584349 27.6876313478503 0
1228 48.056809310926 12.3592987476025 0
1229 34.9479118553356 25.2582029993485 0
1230 71.4591578892671 20.243027188073 0
1231 34.9750468402665 14.9875998668762 0
1232 85.0799733395819 20.0737546311939 0
1233 40.0014422468196 15.0532154810771 0
1234 17.4954864966029 25.0123965433268 0
1235 14.997480223268 25.0069007050321 0
1236 22.4936617389523 14.9918263024772 0
1237 14.9974332981172 17.4991422973721 0
1238 17.4974009419534 14.9973783170398 0
1239 22.4854775827516 25.0322672931191 0
1240 12.4986931893963 25.0035972296029 0
1241 80.0766134990971 15.0473885323302 0
1242 80.0079185935054 25.3389163530835 0
1243 56.6627422350408 19.8507007820522 0
1244 73.4110713488915 17.690119696871 0
1245 54.6799379800737 22.4559774287758 0
1246 22.4841764812349 22.5260137668298 0
1247 48.4718831740414 14.6000640824366 0
1248 37.4440270731258 17.6050349171406 0
1249 34.9258131810667 22.714425267269 0
1250 79.9167559820635 22.7821473094691 0
1251 27.4531485535824 22.5523688668318 0
1252 22.4895083377131 17.4989531898455 0
1253 17.4948845325135 20.0048711421592 0
1254 44.6418862495683 15.2383407621487 0
1255 47.3314239996814 22.8111857515442 0
1256 76.9121300306939 19.8829328748651 0
1257 82.5406620833853 20.1395549259187 0
1258 82.5545076110168 25.2612690850223 0
1259 37.4253701055769 22.8049494173249 0
1260 54.2360053653514 19.9128458661705 0
1261 34.9405755514851 17.5436341049666 0
1262 74.0156802710063 20.2011446067554 0
1263 19.9907837488748 22.5170182794125 0
1264 39.9559973701723 17.6562667167274 0
1265 29.9515583055396 17.4899098055439 0
1266 29.9474923239519 25.1157809161651 0
1267 24.9811337302588 17.4953337063592 0
1268 17.4945464471894 22.5097528923976 0
1269 19.9934765428633 17.5010117938138 0
1270 17.4958556665296 17.5003661745092 0
1271 80.0298972875655 17.5562108194359 0
1272 51.2621270932922 17.348432711367 0
1273 42.4172196971549 22.8788500784088 0
1274 75.5734834305515 17.3899051819611 0
1275 52.2143469153696 22.5547934624321 0
1276 44.8673596393801 20.3620632704665 0
1277 29.9342929461219 22.5798958091246 0
1278 48.4579563555948 17.3335498212994 0
1279 42.4580421466539 17.6943165979114 0
1280 39.9228892613769 20.2759046097479 0
1281 37.4234465338713 20.2073514861912 0
1282 51.7560610179809 19.9831253626671 0
1283 34.9228186833967 20.1225652462632 0
1284 79.9149039111381 20.1261451543323 0
1285 32.4246192664708 20.0648342362899 0
1286 82.5350626338857 22.7053487048642 0
1287 29.9387652229786 20.0349295315176 0
1288 27.4587573292822 20.0205963772032 0
1289 24.9747696094516 20.0159234368915 0
1290 22.4852263986008 20.0131638096798 0
1291 19.9912523348278 20.0090629121231 0
1292 24.9721797772184 22.5362360368204 0
1293 32.431346710825 22.6338603889868 0
1294 47.1203781303795 20.3626471842412 0
1295 45.0953423943108 17.7356869497893 0
1296 42.4313787938927 20.2989269386525 0
1297 49.3473996776137 20.1639704196542 0
1298 46.9004677781037 18.5752144514708 0
1299 46.4451564087294 15.9450473718657 0
1300 46.8670853161578 14.6149266741211 0
1311 50 80 0
1312 52 80 0
1313 52 52 0
1314 72.4137931034483 62.0689655172414 0
1348 57.3333333333333 80 0
1349 54.6666666666667 80 0
1350 47.5 80 0
1351 45 80 0
1352 42.5 80 0
1353 40 77.5 0
1354 40 75 0
1355 40 72.5 0
1356 40 70 0
1357 40 67.5 0
1358 40 65 0
1359 40 62.5 0
1360 40 60 0
1361 40 57.5 0
1362 40 55 0
1363 40 52.5 0
1364 40 50 0
1365 40 47.5 0
1366 40 45 0
1367 40 42.5 0
1368 52.0376175548589 78.3699059561128 0
1369 54.0752351097179 76.7398119122257 0
1370 56.1128526645768 75.1097178683386 0
1371 58.1504702194357 73.4796238244514 0
1372 60.1880877742947 71.8495297805643 0
1373 62.2257053291536 70.2194357366771 0
1374 64.2633228840126 68.58934169279 0
1375 66.3009404388715 66.9592476489028 0
1376 68.3385579937304 65.3291536050157 0
1377 70.3761755485894 63.6990595611285 0
1378 74.3103448275862 60.551724137931 0
1379 76.2068965517241 59.0344827586207 0
1380 78.1034482758621 57.5172413793103 0
1381 68.4904214559387 42.4521072796935 0
1382 68.9808429118774 44.904214559387 0
1383 69.4712643678161 47.3563218390805 0
1384 69.9616858237548 49.8084291187739 0
1385 70.4521072796935 52.2605363984674 0
1386 70.9425287356322 54.7126436781609 0
1387 71.4329501915709 57.1647509578544 0
1388 71.9233716475096 59.6168582375479 0
1389 72.9261083743842 64.6305418719212 0
1390 73.4384236453202 67.192118226601 0
1391 73.9507389162562 69.7536945812808 0
1392 74.4630541871921 72.3152709359606 0
1393 74.9753694581281 74.8768472906404 0
1394 75.487684729064 77.4384236453202 0
1395 42.514776991849 65.0088101374829 0
1396 42.5237866925028 72.5651509931887 0
1397 52.1736980616655 42.4706038119948 0
1398 42.5047368474316 60.001095601721 0
1399 42.496957847774 54.9759291215641 0
1400 42.4792881884538 49.8986618452833 0
1401 59.9931847158771 42.6545221154097 0
1402 77.6010974392736 44.8075678630839 0
1403 77.802779887431 51.6255302853714 0
1404 47.2494065561238 42.4156604436622 0
1405 65.2292431519565 77.3730847723041 0
1406 45.0020619923584 77.6277083241132 0
1407 42.44154218423 44.9029144747044 0
1408 77.9146085225673 63.1849124021578 0
1409 77.7799113552504 65.3923521366107 0
1410 60.1049950517418 77.5051401256459 0
1411 77.7882680823797 67.7899296883119 0
1412 77.6835536974061 70.196894290005 0
1413 47.4047256058037 77.7487918436957 0
1414 49.5291736083454 77.7786209871566 0
1415 44.8355527281034 42.4201530808236 0
1416 77.5088106331123 72.6239782771515 0
1417 65.8723408739352 42.5787971074946 0
1418 57.351427374477 42.5813396439794 0
1419 67.7685234525152 77.3573607819272 0
1420 42.5049256652495 77.5434207486382 0
1421 42.5342992640919 70.0476811713885 0
1422 75.2427785614102 42.4003915891088 0
1423 77.6055722196451 42.4035363559138 0
1424 77.6298360169407 47.1773420732057 0
1425 42.4195866250344 42.4522862018129 0
1426 72.8903526996499 77.3982896262619 0
1427 77.7558446119268 77.5513384613064 0
1428 57.4990005451824 77.4531926903601 0
1429 72.9529645613862 42.3727096000916 0
1430 70.7123145392807 42.3804192084021 0
1431 70.9512847862942 66.7078813338445 0
1432 74.1984440520142 57.8366789481192 0
1433 77.7387009379536 55.364208007053 0
1434 75.5526674018868 62.4681024027049 0
1435 69.8999412159644 61.2137747263364 0
1436 78.6349985791673 58.7814508389109 0
1437 53.5616881223271 74.1565902671288 0
1438 45.06795966485 72.7201284671077 0
1439 59.8844029507482 45.2262758229495 0
1440 65.058305676889 74.820262794626 0
1441 70.6756409312756 69.4857835692897 0
1442 73.4817979357924 55.0401377511149 0
1443 68.946611553948 57.1542990649022 0
1444 67.9728650860663 62.1850898501892 0
1445 49.5869755595475 75.8000482621918 0
1446 47.3672544060558 75.4696339792387 0
1447 77.7124342062244 49.47231448144 0
1448 54.7457670773727 42.5254551010317 0
1449 77.538300196388 75.0736837985896 0
1450 62.9716646644577 42.9916964153555 0
1451 75.2161618668027 44.7436750874494 0
1452 62.6647041949699 77.4395010654993 0
1453 42.4620528184596 47.3880181804779 0
1454 42.489411121514 52.4416913826379 0
1455 42.5014796678065 57.4938059821588 0
1456 42.508329441662 62.5041494563685 0
1457 42.5122380449988 75.0744679613738 0
1458 42.5289586943471 67.524092085971 0
1459 49.6914893793848 42.4354867967327 0
1460 72.3933117876048 74.8390855318394 0
1461 44.8805261724044 44.8587145246292 0
1462 69.4835670519969 59.4916004797063 0
1463 75.4423394666049 65.0218713758399 0
1464 70.3094193531529 77.3797561154047 0
1465 75.9548854592059 56.7591549797618 0
1466 77.8263854837967 53.6055407615627 0
1467 75.5981009067635 67.4723862845862 0
1468 70.9995140197353 44.5504064447234 0
1469 68.1022329275297 68.1481886922095 0
1470 77.7690815264327 60.5955568153412 0
1471 66.493822143546 45.0709378822684 0
1472 45.012210860187 65.0109405138603 0
1473 52.2942876398948 44.9359152925147 0
1474 44.9749203592962 52.4054292785168 0
1475 45.011336993337 59.9909951044768 0
1476 75.4119668510394 49.4434765814333 0
1477 44.9254798313305 47.336249839041 0
1478 45.111464224003 70.1284257285618 0
1479 67.4551834749437 74.8146256476313 0
1480 49.666493687101 73.7251342454784 0
1481 67.3186205435793 70.0451024269784 0
1482 62.1212704660581 45.4799120098461 0
1483 72.3325802638475 46.8787683106142 0
1484 73.2741413143065 52.5214175086115 0
1485 75.6773570716819 51.4296461597698 0
1486 63.5374566047056 65.4725321483449 0
1487 67.0315132120062 59.6037854425756 0
1488 71.79451742771 72.3345247656742 0
1489 62.6410968837158 74.8641626716191 0
1490 57.36108935653 45.1381977569659 0
1491 44.9889340077891 54.9516669082624 0
1492 68.4479428468764 54.7316517323437 0
1493 51.5951210357434 75.9879963485545 0
1494 75.7589312037355 55.2109530018573 0
1495 75.1995326558495 47.1176362674046 0
1496 67.0323297319946 47.4824241783485 0
1497 44.9945109868605 75.2221866745133 0
1498 47.3300176468584 44.8617369750449 0
1499 55.7126763188449 72.3035221229096 0
1500 69.8873432139691 74.8444435418101 0
1501 66.1556764904717 64.6140373558989 0
1502 73.099919452226 44.4803929932474 0
1503 64.3265358396181 45.4393673732936 0
1504 69.0628298687179 70.7293981322755 0
1505 75.6588164188832 69.7488161654851 0
1506 62.2898963126397 47.7509427469106 0
1507 67.4906552675712 49.8934699839912 0
1508 47.3952314631178 47.33327145932 0
1509 47.4378486977951 52.3632415141052 0
1510 53.5888624930143 71.8975893753995 0
1511 62.871136489324 62.9838916129397 0
1512 72.945457645175 49.8933596073922 0
1513 54.8216918299032 45.0341093218864 0
1514 44.9534891418625 49.8619546671827 0
1515 57.3665230941474 47.6707887156073 0
1516 45.0012475750269 57.4725022680693 0
1517 45.0146813267895 62.5035225106282 0
1518 66.5083495464745 57.1971773548497 0
1519 49.800937346172 44.8845535744286 0
1520 45.0519704526444 67.5365020700591 0
1521 67.9659759250668 52.3147247206377 0
1522 75.6951745302623 53.2569304487329 0
1523 64.8186593844419 72.1930362938245 0
1524 47.5666378260249 73.0804896923136 0
1525 64.6623908937959 47.6571775683485 0
1526 60.2458687818228 75.0061661877127 0
1527 69.4480451733343 72.4588629577775 0
1528 51.6927709001823 74.1228585868762 0
1529 61.4456489822166 68.3085788495655 0
1530 65.034480392248 62.2971896704794 0
1531 74.3097527211152 51.4149972965965 0
1532 57.6628670622008 70.7565587273289 0
1533 58.0452841924611 75.3978919018122 0
1534 47.5164697628059 59.934307156314 0
1535 47.4832024869586 65.0587853965438 0
1536 48.0140773317518 70.200123154959 0
1537 47.4595974093187 54.8833543489531 0
1538 52.3578307870125 47.395241854363 0
1539 59.0617224250493 69.1765083657049 0
1540 62.0996190103702 60.8544150194488 0
1541 50.937824922727 71.5623534827974 0
1542 65.0514928496052 50.0392797514043 0
1543 47.4202645664159 49.8405355103938 0
1544 49.8638148630678 47.3480266168087 0
1545 59.8628370811594 47.7573172453543 0
1546 66.0371731271359 54.8190219970754 0
1547 56.023528386758 70.0742860236395 0
1548 54.8483751502558 47.5229756267618 0
1549 61.0618192290696 65.9359297047861 0
1550 62.6669697624981 72.4315085623637 0
1551 64.2438739285906 59.7354675129694 0
1552 67.1811514317419 72.332068342261 0
1553 58.8126392602347 66.2618749926923 0
1554 57.3780664011116 50.231301837956 0
1555 61.7435889098376 58.6674418255581 0
1556 47.3208332828775 67.4259548763166 0
1557 53.8056328662556 69.4238658797966 0
1558 47.4898916642675 57.3962637482328 0
1559 62.5747617985018 50.2380560790153 0
1560 47.5285328648418 62.4963535722122 0
1561 52.294437152274 49.817603132745 0
1562 49.8467880913164 49.8057153377474 0
1563 60.4549538566496 63.3599849873558 0
1564 49.8277701880922 52.2614325327992 0
1565 64.3018821415267 57.224968210822 0
1566 65.5316611559938 52.4543703196098 0
1567 56.5731782111635 67.4060089202346 0
1568 57.5620927224376 63.6845749840081 0
1569 49.9645473929745 57.2956203257046 0
1570 61.9687246111222 56.2912683936061 0
1571 50.0423882234183 62.4437012053818 0
1572 54.1892165065155 67.083687800679 0
1573 50.16843951866 65.3057863040664 0
1574 51.5554546802823 68.7866285610631 0
1575 63.0997613354725 52.7879365096291 0
1576 52.3086932253299 54.739165349316 0
1577 54.747164373023 52.4515549600214 0
1578 60.0078359214131 50.3577350255041 0
1579 49.8801583287814 54.7749980824416 0
1580 59.9250558645257 60.8563856272411 0
1581 54.802494344887 49.9913143968285 0
1582 63.8898727413448 55.0131317319798 0
1583 56.1531223148846 65.2913638208723 0
1584 54.7957193628857 54.9937504305734 0
1585 57.4817430109094 60.6220899351917 0
1586 54.5433419844064 64.9297040927757 0
1587 60.3228181952834 53.4023347112153 0
1588 50.0080979604234 59.8594742406096 0
1589 52.4299616611753 57.3381015744928 0
1590 59.6328685625864 58.3984936207284 0
1591 54.8526104007498 62.7083014877895 0
1592 57.3593509383597 52.862797966542 0
1593 52.237219692631 66.6983764550104 0
1594 49.5247836563316 67.8791165431963 0
1595 52.4776955330014 62.437888191276 0
1596 54.8971349780475 57.6057105287561 0
1597 59.5091749859153 56.0640512764456 0
1598 52.4769189375415 59.9396043046914 0
1599 54.9512146220321 60.2464125486751 0
1600 57.3155538063936 58.0184705610961 0
1601 57.2900115553495 55.46671365004 0
1602 52.539712411366 64.626461730484 0
1603 40 80 0
1604 60 80 0
1605 40 40 0
1606 52 40 0
1607 68 40 0
1608 80 40 0
1609 80 52 0
1610 80 56 0
1611 80 80 0
1612 76 80 0
1613 100 40 0
1614 42.4 40 0
1615 44.8 40 0
1616 47.2 40 0
1617 49.6 40 0
1618 54.6666666666667 40 0
1619 57.3333333333333 40 0
1620 60 40 0
1621 62.6666666666667 40 0
1622 65.3333333333333 40 0
1623 70.4 40 0
1624 72.8 40 0
1625 75.2 40 0
1626 77.6 40 0
1627 80 42.4 0
1628 80 44.8 0
1629 80 47.2 0
1630 80 49.6 0
1631 80 54 0
1632 80 58.4 0
1633 80 60.8 0
1634 80 63.2 0
1635 80 65.6 0
1636 80 68 0
1637 80 70.4 0
1638 80 72.8 0
1639 80 75.2 0
1640 80 77.6 0
1641 78 80 0
1642 73.3333333333333 80 0
1643 70.6666666666667 80 0
1644 68 80 0
1645 65.3333333333333 80 0
1646 62.6666666666667 80 0
$EndNodes
$Elements
1480
2 2 2 1 1 864 968 941 
3 2 2 1 1 890 1030 576 
4 2 2 1 1 862 1038 733 
5 2 2 1 1 245 546 246 
6 2 2 1 1 1256 1274 1221 
7 2 2 1 1 675 930 740 
8 2 2 1 1 576 752 542 
9 2 2 1 1 676 870 804 
10 2 2 1 1 341 543 180 
11 2 2 1 1 949 1066 969 
12 2 2 1 1 448 688 457 
13 2 2 1 1 561 1039 835 
14 2 2 1 1 866 1037 1028 
15 2 2 1 1 883 974 746 
16 2 2 1 1 548 684 676 
17 2 2 1 1 547 685 675 
18 2 2 1 1 812 940 623 
19 2 2 1 1 533 731 685 
20 2 2 1 1 666 936 893 
21 2 2 1 1 532 730 684 
22 2 2 1 1 1254 1299 1295 
23 2 2 1 1 247 810 246 
24 2 2 1 1 1030 1104 933 
26 2 2 1 1 246 808 247 
28 2 2 1 1 249 439 250 
29 2 2 1 1 268 550 267 
30 2 2 1 1 248 683 249 
31 2 2 1 1 245 687 244 
32 2 2 1 1 544 611 549 
33 2 2 1 1 680 729 580 
36 2 2 1 1 414 249 250 
37 2 2 1 1 250 251 414 
38 2 2 1 1 1570 1597 1587 
39 2 2 1 1 1512 1531 1484 
40 2 2 1 1 1556 1594 1536 
41 2 2 1 1 1387 1432 1388 
42 2 2 1 1 1368 1312 1311 
43 2 2 1 1 1311 1414 1368 
44 2 2 1 1 1368 1493 1369 
45 2 2 1 1 1434 1470 1408 
46 2 2 1 1 1468 1502 1483 
47 2 2 1 1 1378 1434 1314 
48 2 2 1 1 1391 1505 1392 
49 2 2 1 1 1480 1541 1528 
50 2 2 1 1 1377 1314 1389 
51 2 2 1 1 1450 1503 1482 
52 2 2 1 1 1570 1582 1565 
53 2 2 1 1 1377 1431 1376 
54 2 2 1 1 1378 1314 1388 
55 2 2 1 1 1370 1499 1371 
56 2 2 1 1 1573 1602 1593 
57 2 2 1 1 1373 1529 1374 
58 2 2 1 1 1539 1567 1553 
60 2 2 1 1 1375 1501 1376 
61 2 2 1 1 1369 1437 1370 
62 2 2 1 1 1373 1550 1372 
63 2 2 1 1 1371 1533 1370 
64 2 2 1 1 1376 1469 1375 
65 2 2 1 1 1540 1555 1551 
66 2 2 1 1 1501 1530 1444 
67 3 2 1 1 98 382 151 15
68 3 2 1 1 299 503 104 105
69 3 2 1 1 103 384 298 102
70 3 2 1 1 222 223 308 370
71 3 2 1 1 101 502 383 100
72 3 2 1 1 298 502 101 102
73 3 2 1 1 100 383 322 99
74 3 2 1 1 694 641 769 894
75 3 2 1 1 322 382 98 99
76 3 2 1 1 104 503 384 103
77 3 2 1 1 366 482 227 228
78 3 2 1 1 721 566 638 908
79 3 2 1 1 375 647 435 376
80 3 2 1 1 231 232 330 352
81 3 2 1 1 654 778 647 512
82 3 2 1 1 512 647 375 321
83 3 2 1 1 830 771 635 905
84 3 2 1 1 304 391 212 213
85 3 2 1 1 484 111 112 362
86 3 2 1 1 1092 1154 959 1013
87 3 2 1 1 959 1154 1090 832
88 3 2 1 1 333 110 111 484
89 3 2 1 1 110 333 514 109
90 3 2 1 1 619 493 374 627
91 3 2 1 1 639 380 499 767
92 3 2 1 1 514 300 108 109
93 3 2 1 1 435 648 377 376
94 3 2 1 1 389 392 215 216
95 3 2 1 1 107 483 385 106
96 3 2 1 1 300 483 107 108
97 3 2 1 1 359 511 218 219
98 3 2 1 1 106 385 299 105
99 3 2 1 1 221 222 370 477
100 3 2 1 1 498 638 566 297
101 3 2 1 1 491 654 512 372
102 3 2 1 1 495 781 558 378
103 3 2 1 1 1002 1093 913 830
104 3 2 1 1 648 780 494 377
105 3 2 1 1 912 1092 1008 779
106 3 2 1 1 494 780 571 287
107 3 2 1 1 921 1004 911 777
108 3 2 1 1 559 912 779 489
109 3 2 1 1 909 1001 1000 712
110 3 2 1 1 647 778 714 435
111 3 2 1 1 379 497 568 772
112 3 2 1 1 907 1012 903 711
113 3 2 1 1 490 655 596 371
114 3 2 1 1 567 769 641 488
115 3 2 1 1 829 769 567 710
116 3 2 1 1 906 722 569 639
117 3 2 1 1 714 856 648 435
118 3 2 1 1 325 398 207 208
119 3 2 1 1 913 1093 1011 784
120 3 2 1 1 776 827 559 426
121 3 2 1 1 558 852 851 782
122 3 2 1 1 1005 1006 914 715
123 3 2 1 1 961 1094 916 915
124 3 2 1 1 916 1094 1005 715
125 3 2 1 1 572 781 495 288
126 3 2 1 1 917 1003 920 785
127 3 2 1 1 919 1013 918 713
128 3 2 1 1 918 1013 959 786
129 3 2 1 1 426 559 489 7
130 3 2 1 1 571 776 426 287
131 3 2 1 1 427 652 502 298
132 3 2 1 1 558 782 496 378
133 3 2 1 1 496 782 642 289
134 3 2 1 1 326 395 154 155
135 3 2 1 1 382 388 150 151
136 3 2 1 1 138 505 357 137
137 3 2 1 1 323 505 138 139
138 3 2 1 1 911 1004 714 778
139 3 2 1 1 371 596 446 309
140 3 2 1 1 506 783 646 323
141 3 2 1 1 710 567 640 770
142 3 2 1 1 851 909 642 782
143 3 2 1 1 388 510 149 150
144 3 2 1 1 643 849 770 640
145 3 2 1 1 646 655 505 323
146 3 2 1 1 133 134 319 485
147 3 2 1 1 513 645 510 388
148 3 2 1 1 515 279 637 768
149 3 2 1 1 503 653 598 384
150 3 2 1 1 358 396 157 158
151 3 2 1 1 508 651 436 303
152 3 2 1 1 302 506 140 141
153 3 2 1 1 140 506 323 139
154 3 2 1 1 149 510 310 148
155 3 2 1 1 712 1000 998 850
156 3 2 1 1 142 507 302 141
157 3 2 1 1 386 507 142 143
158 3 2 1 1 710 846 991 829
159 3 2 1 1 303 386 143 144
160 3 2 1 1 642 909 712 568
161 3 2 1 1 644 783 506 302
162 3 2 1 1 145 508 303 144
163 3 2 1 1 387 508 145 146
164 3 2 1 1 712 850 772 568
165 3 2 1 1 147 509 387 146
166 3 2 1 1 310 509 147 148
167 3 2 1 1 640 381 501 643
168 3 2 1 1 1008 1092 1013 919
169 3 2 1 1 367 119 120 478
170 3 2 1 1 1005 1094 1088 958
171 3 2 1 1 1010 1093 1002 852
172 3 2 1 1 773 569 722 910
173 3 2 1 1 434 653 503 299
174 3 2 1 1 1006 1007 723 914
175 3 2 1 1 1090 1155 961 1089
176 3 2 1 1 349 178 179 416
177 3 2 1 1 116 117 301 504
178 3 2 1 1 115 116 504 368
179 3 2 1 1 314 202 203 471
180 3 2 1 1 961 1155 1088 1094
181 3 2 1 1 960 1154 1092 912
182 3 2 1 1 960 1155 1090 1154
183 3 2 1 1 1088 1155 960 827
184 3 2 1 1 419 277 641 694
185 3 2 1 1 1011 1093 1010 854
186 3 2 1 1 334 174 175 351
187 3 2 1 1 170 393 369 169
188 3 2 1 1 557 766 333 484
189 3 2 1 1 723 855 644 570
190 3 2 1 1 635 514 333 766
191 3 2 1 1 167 487 359 166
192 3 2 1 1 166 359 219 19
193 3 2 1 1 721 847 767 566
194 3 2 1 1 128 129 279 515
195 3 2 1 1 374 277 419 627
196 3 2 1 1 638 772 850 908
197 3 2 1 1 444 632 370 308
198 3 2 1 1 639 767 847 906
199 3 2 1 1 502 652 597 383
200 3 2 1 1 645 774 310 510
201 3 2 1 1 35 358 158 1
202 3 2 1 1 34 492 358 35
203 3 2 1 1 316 492 34 33
204 3 2 1 1 783 921 777 646
205 3 2 1 1 779 1008 854 572
206 3 2 1 1 780 1009 853 571
207 3 2 1 1 856 1009 780 648
208 3 2 1 1 289 642 568 497
209 3 2 1 1 277 374 36 5
210 3 2 1 1 30 340 318 31
211 3 2 1 1 310 774 560 509
212 3 2 1 1 290 500 569 773
213 3 2 1 1 290 773 643 501
214 3 2 1 1 372 373 28 27
216 3 2 1 1 781 1010 852 558
217 3 2 1 1 853 1006 1005 958
218 3 2 1 1 1007 1091 855 723
219 3 2 1 1 831 915 775 560
220 3 2 1 1 43 373 321 44
221 3 2 1 1 855 1091 1004 921
222 3 2 1 1 505 655 490 357
223 3 2 1 1 919 1011 854 1008
224 3 2 1 1 853 1009 1007 1006
225 3 2 1 1 41 40 332 346
226 3 2 1 1 387 775 651 508
227 3 2 1 1 1002 1087 851 852
228 3 2 1 1 332 40 39 463
229 3 2 1 1 39 38 320 463
230 3 2 1 1 1001 909 851 1087
231 3 2 1 1 850 998 997 908
232 3 2 1 1 374 493 37 36
233 3 2 1 1 37 493 320 38
234 3 2 1 1 573 649 385 483
235 3 2 1 1 767 499 297 566
236 3 2 1 1 855 921 783 644
237 3 2 1 1 784 1011 919 713
238 3 2 1 1 786 959 832 701
239 3 2 1 1 300 771 573 483
240 3 2 1 1 635 771 300 514
241 3 2 1 1 386 650 570 507
242 3 2 1 1 436 650 386 303
243 3 2 1 1 827 960 912 559
244 3 2 1 1 570 644 302 507
245 3 2 1 1 7 489 288 50
246 3 2 1 1 287 426 7 49
247 3 2 1 1 385 649 434 299
248 3 2 1 1 384 598 427 298
249 3 2 1 1 381 488 5 64
250 3 2 1 1 383 597 513 322
251 3 2 1 1 137 357 22 2
252 3 2 1 1 26 491 372 27
253 3 2 1 1 309 491 26 25
254 3 2 1 1 832 1090 1089 1003
255 3 2 1 1 832 1003 917 701
256 3 2 1 1 24 371 309 25
257 3 2 1 1 560 775 387 509
258 3 2 1 1 23 490 371 24
259 3 2 1 1 357 490 23 22
260 3 2 1 1 853 958 776 571
261 3 2 1 1 1003 1089 831 920
262 3 2 1 1 713 918 653 434
263 3 2 1 1 831 1089 961 915
264 3 2 1 1 653 918 786 598
265 3 2 1 1 1087 1002 830 905
266 3 2 1 1 854 1010 781 572
267 3 2 1 1 958 1088 827 776
268 3 2 1 1 915 916 651 775
269 3 2 1 1 597 785 645 513
270 3 2 1 1 57 498 297 58
271 3 2 1 1 379 498 57 56
272 3 2 1 1 646 777 596 655
273 3 2 1 1 321 375 45 44
274 3 2 1 1 59 499 380 60
275 3 2 1 1 569 500 380 639
276 3 2 1 1 487 658 511 359
277 3 2 1 1 61 60 380 500
278 3 2 1 1 432 592 365 292
279 3 2 1 1 500 290 62 61
280 3 2 1 1 63 62 290 501
281 3 2 1 1 488 381 640 567
282 3 2 1 1 501 381 64 63
283 3 2 1 1 446 911 778 654
284 3 2 1 1 297 499 59 58
285 3 2 1 1 857 999 761 591
286 3 2 1 1 777 911 446 596
287 3 2 1 1 372 512 321 373
288 3 2 1 1 322 513 388 382
289 3 2 1 1 651 916 715 436
290 3 2 1 1 830 913 573 771
291 3 2 1 1 650 914 723 570
292 3 2 1 1 573 913 784 649
293 3 2 1 1 489 779 572 288
294 3 2 1 1 715 914 650 436
295 3 2 1 1 367 594 433 364
296 3 2 1 1 638 498 379 772
297 3 2 1 1 649 784 713 434
298 3 2 1 1 446 654 491 309
299 3 2 1 1 701 917 652 427
300 3 2 1 1 1004 1091 856 714
301 3 2 1 1 375 376 46 45
302 3 2 1 1 856 1091 1007 1009
303 3 2 1 1 376 377 47 46
304 3 2 1 1 774 920 831 560
305 3 2 1 1 48 494 287 49
306 3 2 1 1 377 494 48 47
307 3 2 1 1 785 920 774 645
308 3 2 1 1 652 917 785 597
309 3 2 1 1 773 910 849 643
310 3 2 1 1 288 495 51 50
311 3 2 1 1 51 495 378 52
312 3 2 1 1 277 5 488 641
313 3 2 1 1 770 849 1095 995
314 3 2 1 1 55 497 379 56
315 3 2 1 1 289 497 55 54
316 3 2 1 1 598 786 701 427
317 3 2 1 1 53 496 289 54
318 3 2 1 1 770 995 846 710
319 3 2 1 1 378 496 53 52
320 3 2 1 1 169 369 315 168
321 3 2 1 1 315 487 167 168
322 3 2 1 1 365 480 224 225
323 3 2 1 1 308 223 224 480
324 3 2 1 1 284 177 178 349
325 3 2 1 1 227 482 292 226
326 3 2 1 1 292 365 225 226
327 3 2 1 1 482 366 593 636
328 3 2 1 1 292 482 636 432
329 3 2 1 1 826 1015 788 553
330 3 2 1 1 186 402 328 185
331 3 2 1 1 907 711 787 996
332 3 2 1 1 301 633 762 504
333 3 2 1 1 633 433 787 711
334 3 2 1 1 903 1012 994 845
335 3 2 1 1 903 762 633 711
336 3 2 1 1 221 477 390 220
337 3 2 1 1 709 857 591 431
338 3 2 1 1 762 903 845 656
339 3 2 1 1 846 995 1014 902
340 3 2 1 1 787 433 594 904
341 3 2 1 1 591 476 286 431
342 3 2 1 1 595 445 632 763
343 3 2 1 1 764 1014 904 594
344 3 2 1 1 656 431 286 368
345 3 2 1 1 301 117 118 364
346 3 2 1 1 364 433 633 301
347 3 2 1 1 480 365 592 634
348 3 2 1 1 285 121 122 479
349 3 2 1 1 119 367 364 118
350 3 2 1 1 363 486 126 127
351 3 2 1 1 286 114 115 368
352 3 2 1 1 477 370 632 445
353 3 2 1 1 764 594 367 478
354 3 2 1 1 296 481 131 132
355 3 2 1 1 220 390 136 16
356 3 2 1 1 285 478 120 121
357 3 2 1 1 656 368 504 762
358 3 2 1 1 768 657 363 515
361 3 2 1 1 363 657 789 486
362 3 2 1 1 291 486 789 553
363 3 2 1 1 203 204 356 471
364 3 2 1 1 133 485 296 132
365 3 2 1 1 765 590 296 485
366 3 2 1 1 308 480 634 444
367 3 2 1 1 994 847 721 993
368 3 2 1 1 721 908 997 993
369 3 2 1 1 994 1012 906 847
370 3 2 1 1 286 476 113 114
371 3 2 1 1 722 906 1012 907
372 3 2 1 1 319 595 765 485
373 3 2 1 1 362 112 113 476
374 3 2 1 1 123 360 479 122
375 3 2 1 1 788 1015 901 630
376 3 2 1 1 910 722 907 996
377 3 2 1 1 557 484 362 761
378 3 2 1 1 902 1014 764 556
379 3 2 1 1 355 390 477 445
380 3 2 1 1 291 553 788 475
381 3 2 1 1 997 998 999 857
382 3 2 1 1 995 1095 904 1014
383 3 2 1 1 993 709 845 994
384 3 2 1 1 285 556 764 478
385 3 2 1 1 159 356 204 18
386 3 2 1 1 845 709 431 656
387 3 2 1 1 904 1095 996 787
388 3 2 1 1 996 1095 849 910
389 3 2 1 1 420 631 696 759
390 3 2 1 1 476 591 761 362
391 3 2 1 1 128 515 363 127
392 3 2 1 1 296 590 631 481
393 3 2 1 1 355 445 595 319
394 3 2 1 1 991 846 902 844
395 3 2 1 1 126 486 291 125
396 3 2 1 1 136 390 355 135
397 3 2 1 1 319 134 135 355
398 3 2 1 1 131 481 361 130
399 3 2 1 1 285 479 760 556
400 3 2 1 1 279 129 130 361
401 3 2 1 1 857 709 993 997
403 3 2 1 1 557 848 992 766
404 3 2 1 1 1000 1001 992 848
405 3 2 1 1 998 1000 848 999
406 3 2 1 1 1001 1087 905 992
407 3 2 1 1 631 420 361 481
408 3 2 1 1 637 279 361 420
409 3 2 1 1 905 635 766 992
410 3 2 1 1 360 123 124 475
411 3 2 1 1 760 630 901 844
412 3 2 1 1 761 999 848 557
413 3 2 1 1 124 125 291 475
414 3 2 1 1 475 788 630 360
415 3 2 1 1 760 479 360 630
416 3 2 1 1 844 902 556 760
417 3 2 1 1 843 765 595 763
418 3 2 1 1 763 632 444 900
419 3 2 1 1 900 444 634 708
420 3 2 1 1 218 511 331 217
421 3 2 1 1 590 765 843 899
422 3 2 1 1 331 389 216 217
423 3 2 1 1 658 447 331 511
424 3 2 1 1 826 553 789 990
425 3 2 1 1 987 843 763 900
426 3 2 1 1 631 590 899 696
427 3 2 1 1 214 516 304 213
428 3 2 1 1 990 789 657 858
429 3 2 1 1 331 447 517 389
430 3 2 1 1 897 592 432 758
431 3 2 1 1 708 634 592 897
432 3 2 1 1 392 516 214 215
433 3 2 1 1 900 708 1086 987
434 3 2 1 1 637 898 988 768
435 3 2 1 1 858 657 768 988
436 3 2 1 1 275 366 228 229
437 3 2 1 1 696 825 989 759
438 3 2 1 1 898 637 420 759
439 3 2 1 1 275 418 593 366
440 3 2 1 1 899 843 987 957
441 3 2 1 1 432 636 695 758
442 3 2 1 1 897 758 986 956
443 3 2 1 1 957 825 696 899
444 3 2 1 1 881 690 944 1076
445 3 2 1 1 956 1086 708 897
446 3 2 1 1 599 517 724 923
447 3 2 1 1 990 858 1153 1077
448 3 2 1 1 695 824 986 758
449 3 2 1 1 517 599 392 389
450 3 2 1 1 755 518 278 659
451 3 2 1 1 759 989 1080 898
452 3 2 1 1 991 844 901 1082
453 3 2 1 1 1082 955 829 991
454 3 2 1 1 988 898 1080 1051
455 3 2 1 1 356 159 160 473
456 3 2 1 1 988 1051 1153 858
457 3 2 1 1 275 229 230 472
458 3 2 1 1 1142 1083 948 1059
459 3 2 1 1 1061 989 825 1152
460 3 2 1 1 156 520 326 155
461 3 2 1 1 769 829 955 894
462 3 2 1 1 589 753 330 469
463 3 2 1 1 1152 825 957 1085
464 3 2 1 1 695 636 593 892
465 3 2 1 1 447 658 661 662
466 3 2 1 1 986 824 1147 1060
467 3 2 1 1 987 1086 1085 957
468 3 2 1 1 663 391 304 423
469 3 2 1 1 522 189 190 348
470 3 2 1 1 1080 989 1061 1144
471 3 2 1 1 665 599 923 698
472 3 2 1 1 393 170 171 518
473 3 2 1 1 1086 956 1151 1085
474 3 2 1 1 278 172 173 474
475 3 2 1 1 1060 1151 956 986
476 3 2 1 1 423 665 698 757
477 3 2 1 1 315 369 437 661
478 3 2 1 1 661 658 487 315
479 3 2 1 1 472 230 231 352
480 3 2 1 1 826 990 1077 1078
481 3 2 1 1 886 948 1083 1084
482 3 2 1 1 1144 1200 1051 1080
483 3 2 1 1 757 922 663 423
484 3 2 1 1 330 232 233 469
485 3 2 1 1 822 984 757 698
486 3 2 1 1 396 520 156 157
487 3 2 1 1 1139 953 820 1079
488 3 2 1 1 391 519 211 212
489 3 2 1 1 892 756 953 982
490 3 2 1 1 392 599 665 516
491 3 2 1 1 664 393 518 755
492 3 2 1 1 237 238 350 470
493 3 2 1 1 1145 984 822 1050
494 3 2 1 1 892 593 418 756
495 3 2 1 1 955 1082 1149 1059
496 3 2 1 1 587 314 471 626
497 3 2 1 1 469 233 234 329
498 3 2 1 1 1082 901 1015 1149
499 3 2 1 1 472 352 754 629
500 3 2 1 1 516 665 423 304
501 3 2 1 1 1083 1199 1123 1084
502 3 2 1 1 517 447 662 724
503 3 2 1 1 278 474 628 659
504 3 2 1 1 662 661 437 792
505 3 2 1 1 754 753 980 841
506 3 2 1 1 189 522 306 188
507 3 2 1 1 1059 948 894 955
508 3 2 1 1 629 418 275 472
509 3 2 1 1 985 923 724 842
510 3 2 1 1 171 172 278 518
511 3 2 1 1 474 173 174 334
512 3 2 1 1 280 200 201 467
513 3 2 1 1 984 1062 922 757
514 3 2 1 1 209 210 311 525
515 3 2 1 1 325 208 209 525
516 3 2 1 1 694 894 948 886
517 3 2 1 1 467 201 202 314
518 3 2 1 1 329 234 235 468
519 3 2 1 1 369 393 664 437
520 3 2 1 1 626 471 356 473
521 3 2 1 1 1180 1238 1060 1147
522 3 2 1 1 418 629 692 756
523 3 2 1 1 1182 1152 1085 1151
524 3 2 1 1 1151 1060 1238 1182
525 3 2 1 1 211 519 311 210
526 3 2 1 1 1015 826 1078 1149
527 3 2 1 1 1235 1240 1200 1223
528 3 2 1 1 468 235 236 276
529 3 2 1 1 1152 1182 1237 1061
530 3 2 1 1 982 824 695 892
531 3 2 1 1 473 160 161 353
532 3 2 1 1 1179 1144 1061 1237
533 3 2 1 1 660 791 530 306
534 3 2 1 1 820 953 756 692
536 3 2 1 1 1223 1200 1144 1179
537 3 2 1 1 1238 1180 1269 1270
538 3 2 1 1 842 792 896 954
539 3 2 1 1 347 198 199 464
540 3 2 1 1 492 603 396 358
541 3 2 1 1 1237 1270 1253 1179
542 3 2 1 1 1142 1059 1149 1078
543 3 2 1 1 402 186 187 530
544 3 2 1 1 276 236 237 470
545 3 2 1 1 1049 1147 824 982
546 3 2 1 1 352 330 753 754
548 3 2 1 1 350 238 239 524
550 3 2 1 1 348 190 191 466
551 3 2 1 1 667 276 470 797
552 3 2 1 1 698 923 985 822
553 3 2 1 1 437 664 896 792
554 3 2 1 1 519 391 663 794
555 3 2 1 1 1270 1237 1182 1238
557 3 2 1 1 351 175 176 465
558 3 2 1 1 529 430 282 399
559 3 2 1 1 628 474 334 422
560 3 2 1 1 1153 1051 1200 1240
561 3 2 1 1 667 797 1016 924
562 3 2 1 1 422 334 351 625
563 3 2 1 1 1148 979 1084 1123
564 3 2 1 1 1199 1083 1142 1181
565 3 2 1 1 822 985 1074 1050
566 3 2 1 1 161 162 307 353
567 3 2 1 1 466 191 192 295
568 3 2 1 1 982 953 1139 1049
569 3 2 1 1 629 754 841 692
570 3 2 1 1 1123 1234 1177 1148
571 3 2 1 1 1240 1181 1077 1153
572 3 2 1 1 1045 942 1018 1143
573 3 2 1 1 724 662 792 842
574 3 2 1 1 1147 1049 1236 1180
575 3 2 1 1 660 306 522 563
576 3 2 1 1 1071 885 697 1017
577 3 2 1 1 1181 1240 1235 1199
578 3 2 1 1 1078 1077 1181 1142
579 3 2 1 1 691 1018 942 882
580 3 2 1 1 584 467 314 587
581 3 2 1 1 274 417 526 394
582 3 2 1 1 394 526 618 397
583 3 2 1 1 1019 927 601 794
584 3 2 1 1 555 350 524 793
585 3 2 1 1 464 199 200 280
586 3 2 1 1 1234 1123 1199 1235
587 3 2 1 1 668 529 399 400
588 3 2 1 1 552 468 276 667
590 3 2 1 1 820 952 1042 1079
591 3 2 1 1 794 601 311 519
592 3 2 1 1 187 188 306 530
593 3 2 1 1 468 552 748 329
594 3 2 1 1 794 663 922 1019
596 3 2 1 1 1074 985 842 954
597 3 2 1 1 589 469 329 748
598 3 2 1 1 467 584 739 280
599 3 2 1 1 555 797 470 350
600 3 2 1 1 690 881 619 627
601 3 2 1 1 1252 1269 1180 1236
602 3 2 1 1 293 196 197 345
603 3 2 1 1 316 33 32 528
605 3 2 1 1 465 176 177 284
606 3 2 1 1 295 192 193 462
607 3 2 1 1 798 564 430 529
608 3 2 1 1 667 924 691 552
609 3 2 1 1 980 753 589 840
610 3 2 1 1 1081 1195 1143 1018
611 3 2 1 1 925 799 668 600
612 3 2 1 1 1116 1197 1079 1042
613 3 2 1 1 882 748 552 691
614 3 2 1 1 1263 1177 1234 1268
615 3 2 1 1 1267 1219 1288 1289
616 3 2 1 1 417 551 796 526
617 3 2 1 1 1223 1179 1253 1268
618 3 2 1 1 419 694 886 887
619 3 2 1 1 887 690 627 419
620 3 2 1 1 692 841 952 820
621 3 2 1 1 743 320 493 619
622 3 2 1 1 424 305 561 749
623 3 2 1 1 1166 1236 1049 1139
624 3 2 1 1 1143 1233 1167 1045
625 3 2 1 1 1253 1270 1269 1291
626 3 2 1 1 466 565 750 348
627 3 2 1 1 1018 691 924 1081
628 3 2 1 1 1219 1267 1166 1197
629 3 2 1 1 1236 1166 1267 1252
630 3 2 1 1 1291 1263 1268 1253
631 3 2 1 1 1268 1234 1235 1223
632 3 2 1 1 1239 1246 1292 1170
633 3 2 1 1 1139 1079 1197 1166
634 3 2 1 1 604 603 492 316
635 3 2 1 1 791 669 402 530
636 3 2 1 1 325 442 532 398
637 3 2 1 1 184 185 328 534
638 3 2 1 1 818 1020 796 551
639 3 2 1 1 563 522 348 750
640 3 2 1 1 473 353 622 626
641 3 2 1 1 1170 1121 1044 1239
642 3 2 1 1 1239 1044 1148 1177
643 3 2 1 1 589 748 882 840
644 3 2 1 1 527 600 668 400
645 3 2 1 1 424 749 823 554
646 3 2 1 1 841 980 1072 952
647 3 2 1 1 659 885 978 755
648 3 2 1 1 344 194 195 460
649 3 2 1 1 1246 1239 1177 1263
650 3 2 1 1 885 659 628 697
651 3 2 1 1 886 1084 979 887
652 3 2 1 1 1096 1157 962 1020
654 3 2 1 1 896 664 755 978
655 3 2 1 1 669 448 328 402
656 3 2 1 1 462 193 194 344
657 3 2 1 1 799 798 529 668
658 3 2 1 1 32 31 318 528
659 3 2 1 1 971 799 925 1097
660 3 2 1 1 1156 981 881 1076
661 3 2 1 1 396 603 670 520
663 3 2 1 1 332 720 745 346
664 3 2 1 1 575 462 344 747
665 3 2 1 1 751 521 554 889
666 3 2 1 1 619 881 981 743
667 3 2 1 1 1136 1138 1232 1191
668 3 2 1 1 438 293 345 617
669 3 2 1 1 1042 1137 1192 1116
670 3 2 1 1 954 1058 1141 1074
671 3 2 1 1 1074 1141 1201 1050
672 3 2 1 1 618 526 796 884
673 3 2 1 1 441 326 520 670
674 3 2 1 1 1292 1289 1288 1251
676 3 2 1 1 1212 1265 1116 1192
677 3 2 1 1 1081 924 1016 1140
678 3 2 1 1 671 601 927 800
679 3 2 1 1 1197 1116 1265 1219
680 3 2 1 1 463 320 743 578
681 3 2 1 1 578 720 332 463
682 3 2 1 1 1195 1081 1140 1165
683 3 2 1 1 1201 1191 1220 1190
684 3 2 1 1 345 197 198 347
685 3 2 1 1 311 601 671 525
686 3 2 1 1 574 312 521 751
687 3 2 1 1 1191 1201 1141 1136
689 3 2 1 1 622 353 307 443
690 3 2 1 1 671 800 602 442
691 3 2 1 1 525 671 442 325
693 3 2 1 1 944 690 887 979
694 3 2 1 1 1121 1076 944 1044
695 3 2 1 1 462 575 744 295
696 3 2 1 1 979 1148 1044 944
697 3 2 1 1 884 796 1020 962
698 3 2 1 1 1271 1241 1190 1220
699 3 2 1 1 460 195 196 293
700 3 2 1 1 1233 1143 1195 1214
701 3 2 1 1 962 817 689 884
702 3 2 1 1 1075 1196 1114 943
703 3 2 1 1 429 600 527 283
704 3 2 1 1 1071 1017 1138 1136
705 3 2 1 1 1291 1269 1252 1290
706 3 2 1 1 1058 954 896 978
707 3 2 1 1 884 689 586 618
708 3 2 1 1 1251 1224 1170 1292
709 3 2 1 1 1190 1145 1050 1201
710 3 2 1 1 882 942 1073 840
711 3 2 1 1 307 523 588 443
712 3 2 1 1 1224 1178 1121 1170
713 3 2 1 1 1136 1141 1058 1071
714 3 2 1 1 1290 1246 1263 1291
715 3 2 1 1 565 466 295 744
716 3 2 1 1 1165 1254 1214 1195
717 3 2 1 1 947 889 554 823
718 3 2 1 1 414 183 184 534
719 3 2 1 1 750 565 977 879
720 3 2 1 1 742 587 626 622
721 3 2 1 1 978 885 1071 1058
722 3 2 1 1 1137 1042 952 1072
723 3 2 1 1 347 458 617 345
724 3 2 1 1 817 975 795 689
725 3 2 1 1 1178 1156 1076 1121
726 3 2 1 1 981 1156 1075 880
727 3 2 1 1 1072 980 840 1073
728 3 2 1 1 615 460 293 438
729 3 2 1 1 464 280 739 585
730 3 2 1 1 1172 1232 1138 1048
731 3 2 1 1 1048 1138 1017 821
732 3 2 1 1 1196 1075 1156 1178
733 3 2 1 1 879 718 563 750
734 3 2 1 1 531 397 618 586
735 3 2 1 1 456 42 41 346
736 3 2 1 1 889 947 1063 965
738 3 2 1 1 307 162 163 523
739 3 2 1 1 895 790 422 625
740 3 2 1 1 1135 1137 1072 1073
741 3 2 1 1 1045 1167 1231 1135
742 3 2 1 1 1115 1175 1259 1213
743 3 2 1 1 1026 800 927 1025
744 3 2 1 1 1192 1137 1135 1231
745 3 2 1 1 821 1017 697 790
746 3 2 1 1 600 429 706 925
747 3 2 1 1 742 622 443 888
748 3 2 1 1 1073 942 1045 1135
749 3 2 1 1 1178 1224 1266 1196
750 3 2 1 1 878 977 565 744
751 3 2 1 1 833 602 800 1026
752 3 2 1 1 425 586 689 795
753 3 2 1 1 535 312 574 803
754 3 2 1 1 346 745 616 456
756 3 2 1 1 925 706 972 1097
757 3 2 1 1 585 458 347 464
758 3 2 1 1 839 720 578 880
759 3 2 1 1 615 747 344 460
760 3 2 1 1 670 603 604 802
761 3 2 1 1 1257 1220 1191 1232
762 3 2 1 1 628 422 790 697
763 3 2 1 1 744 575 838 878
764 3 2 1 1 1099 1019 922 1062
765 3 2 1 1 282 430 583 455
766 3 2 1 1 1025 927 1019 1099
767 3 2 1 1 743 981 880 578
768 3 2 1 1 340 30 29 406
769 3 2 1 1 880 1075 943 839
770 3 2 1 1 1252 1267 1289 1290
772 3 2 1 1 1292 1246 1290 1289
773 3 2 1 1 719 584 587 742
775 3 2 1 1 616 745 875 707
776 3 2 1 1 817 962 1157 1041
777 3 2 1 1 1140 1016 819 1056
778 3 2 1 1 745 720 839 875
779 3 2 1 1 430 564 741 583
780 3 2 1 1 1106 1134 1188 1118
781 3 2 1 1 616 707 551 417
782 3 2 1 1 1277 1266 1224 1251
783 3 2 1 1 1169 1241 1271 1221
784 3 2 1 1 818 551 707 1021
785 3 2 1 1 1271 1220 1257 1284
786 3 2 1 1 790 895 970 821
787 3 2 1 1 417 274 456 616
789 3 2 1 1 672 604 316 528
790 3 2 1 1 294 531 586 425
791 3 2 1 1 1231 1167 1248 1261
792 3 2 1 1 751 889 965 934
793 3 2 1 1 1218 1114 1196 1266
794 3 2 1 1 795 874 613 425
795 3 2 1 1 1213 1273 1187 1115
797 3 2 1 1 1287 1288 1219 1265
798 3 2 1 1 1261 1212 1192 1231
799 3 2 1 1 742 888 877 719
800 3 2 1 1 1203 1067 943 1114
801 3 2 1 1 1212 1261 1283 1285
802 3 2 1 1 716 891 438 617
804 3 2 1 1 1016 797 555 819
805 3 2 1 1 1037 891 716 1033
806 3 2 1 1 425 613 342 294
808 3 2 1 1 739 584 719 872
809 3 2 1 1 895 693 1069 970
810 3 2 1 1 461 342 613 582
811 3 2 1 1 1145 1202 1062 984
812 3 2 1 1 351 465 624 625
813 3 2 1 1 1047 1150 1026 1025
814 3 2 1 1 1099 1062 1202 1146
815 3 2 1 1 163 164 354 523
816 3 2 1 1 239 240 313 524
817 3 2 1 1 401 678 429 283
818 3 2 1 1 1098 1124 947 823
819 3 2 1 1 1293 1285 1283 1249
820 3 2 1 1 1048 1126 1226 1172
821 3 2 1 1 1103 1029 1054 1120
822 3 2 1 1 818 1040 1096 1020
823 3 2 1 1 802 604 672 806
824 3 2 1 1 874 702 582 613
825 3 2 1 1 1022 1098 823 749
826 3 2 1 1 1248 1167 1233 1264
828 3 2 1 1 524 313 666 793
829 3 2 1 1 539 672 528 318
830 3 2 1 1 1203 1114 1218 1229
831 3 2 1 1 1279 1214 1254 1295
832 3 2 1 1 971 869 798 799
833 3 2 1 1 579 441 670 802
834 3 2 1 1 1251 1288 1287 1277
835 3 2 1 1 1021 707 875 1067
836 3 2 1 1 735 873 946 836
837 3 2 1 1 1255 1211 1276 1294
838 3 2 1 1 706 429 678 928
839 3 2 1 1 268 267 415 453
840 3 2 1 1 888 443 588 704
841 3 2 1 1 801 428 614 926
842 3 2 1 1 975 817 1041 1068
843 3 2 1 1 730 532 442 602
844 3 2 1 1 1131 1203 1229 1175
845 3 2 1 1 1214 1279 1264 1233
846 3 2 1 1 1241 1202 1145 1190
847 3 2 1 1 1106 973 1053 1134
848 3 2 1 1 1113 1194 1068 1041
849 3 2 1 1 1115 1187 1096 1040
850 3 2 1 1 874 795 975 951
851 3 2 1 1 1150 1102 833 1026
852 3 2 1 1 574 751 934 935
853 3 2 1 1 1029 929 1023 1054
854 3 2 1 1 1280 1296 1273 1213
855 3 2 1 1 609 735 836 717
856 3 2 1 1 428 801 703 562
857 3 2 1 1 562 544 281 428
859 3 2 1 1 839 943 1067 875
860 3 2 1 1 404 614 428 281
861 3 2 1 1 1122 1186 1230 1171
862 3 2 1 1 937 803 574 935
863 3 2 1 1 946 1105 1117 1043
864 3 2 1 1 838 575 747 837
865 3 2 1 1 1189 1126 970 1069
866 3 2 1 1 1043 1117 1198 1133
867 3 2 1 1 1293 1277 1287 1285
868 3 2 1 1 534 328 448 457
869 3 2 1 1 951 1064 702 874
870 3 2 1 1 819 555 793 983
871 3 2 1 1 438 891 736 615
872 3 2 1 1 338 354 164 165
874 3 2 1 1 821 970 1126 1048
875 3 2 1 1 972 706 928 1100
876 3 2 1 1 615 736 837 747
877 3 2 1 1 1124 1210 1063 947
878 3 2 1 1 1266 1277 1293 1218
879 3 2 1 1 455 583 614 404
880 3 2 1 1 1272 1215 1168 1222
881 3 2 1 1 1175 1115 1040 1131
882 3 2 1 1 1068 1129 951 975
883 3 2 1 1 1169 1146 1202 1241
884 3 2 1 1 583 741 926 614
885 3 2 1 1 582 440 324 461
886 3 2 1 1 318 340 540 539
887 3 2 1 1 1158 1207 1227 1184
888 3 2 1 1 540 340 406 335
889 3 2 1 1 1168 1118 1188 1222
891 3 2 1 1 1259 1175 1229 1249
893 3 2 1 1 705 807 941 968
894 3 2 1 1 1069 969 1125 1189
895 3 2 1 1 1067 1203 1131 1021
896 3 2 1 1 1258 1242 1250 1286
897 3 2 1 1 1273 1296 1276 1211
899 3 2 1 1 1218 1293 1249 1229
900 3 2 1 1 702 883 440 582
901 3 2 1 1 1040 818 1021 1131
902 3 2 1 1 271 270 733 686
903 3 2 1 1 398 532 684 410
904 3 2 1 1 313 240 241 452
905 3 2 1 1 1248 1264 1280 1281
906 3 2 1 1 1265 1212 1285 1287
907 3 2 1 1 1111 940 812 1038
908 3 2 1 1 946 873 976 1105
909 3 2 1 1 610 269 268 453
910 3 2 1 1 733 270 269 610
911 3 2 1 1 1025 1099 1146 1047
912 3 2 1 1 866 741 564 868
913 3 2 1 1 890 813 1035 1110
914 3 2 1 1 693 895 625 624
915 3 2 1 1 398 410 206 207
916 3 2 1 1 861 1109 1034 963
918 3 2 1 1 1165 1140 1056 1228
919 3 2 1 1 1158 1098 1022 1159
920 3 2 1 1 869 868 564 798
921 3 2 1 1 1280 1213 1259 1281
922 3 2 1 1 621 806 672 539
924 3 2 1 1 451 609 717 581
925 3 2 1 1 588 523 354 623
926 3 2 1 1 828 945 1046 1032
927 3 2 1 1 1047 1146 1169 1205
928 3 2 1 1 1173 1211 1255 1113
929 3 2 1 1 1279 1295 1276 1296
930 3 2 1 1 971 878 838 869
931 3 2 1 1 928 705 968 1100
932 3 2 1 1 945 1106 1118 1046
933 3 2 1 1 612 737 828 726
934 3 2 1 1 1250 1284 1257 1286
935 3 2 1 1 819 983 1160 1056
936 3 2 1 1 1171 1230 1262 1225
937 3 2 1 1 728 941 807 687
938 3 2 1 1 454 612 726 607
939 3 2 1 1 737 871 945 828
940 3 2 1 1 1157 1096 1187 1173
941 3 2 1 1 621 725 932 806
942 3 2 1 1 273 17 152 412
943 3 2 1 1 326 441 533 395
945 3 2 1 1 972 879 977 1097
947 3 2 1 1 401 537 677 678
948 3 2 1 1 1097 977 878 971
949 3 2 1 1 976 1055 1122 1105
950 3 2 1 1 929 804 870 1023
951 3 2 1 1 440 606 343 324
952 3 2 1 1 1134 1204 1243 1188
953 3 2 1 1 1173 1113 1041 1157
954 3 2 1 1 252 20 205 413
955 3 2 1 1 726 828 1032 936
957 3 2 1 1 718 864 660 563
958 3 2 1 1 1188 1243 1260 1222
959 3 2 1 1 539 540 673 621
960 3 2 1 1 678 677 705 928
961 3 2 1 1 1064 951 1129 1128
962 3 2 1 1 407 538 265 266
963 3 2 1 1 338 165 17 273
964 3 2 1 1 1257 1232 1172 1286
965 3 2 1 1 253 252 413 548
966 3 2 1 1 242 327 452 241
967 3 2 1 1 272 271 686 450
968 3 2 1 1 1204 1163 1183 1243
969 3 2 1 1 1176 1230 1186 1120
970 3 2 1 1 871 973 1106 945
971 3 2 1 1 969 1069 693 865
972 3 2 1 1 731 930 675 685
973 3 2 1 1 1163 1052 1119 1183
974 3 2 1 1 1046 1118 1168 1161
975 3 2 1 1 834 700 562 703
976 3 2 1 1 1186 1122 1055 1127
977 3 2 1 1 1208 1207 1158 1159
978 3 2 1 1 731 579 932 930
979 3 2 1 1 1227 1189 1125 1184
980 3 2 1 1 872 738 585 739
981 3 2 1 1 1250 1217 1256 1284
982 3 2 1 1 700 611 544 562
983 3 2 1 1 454 327 252 253
984 3 2 1 1 612 454 253 254
985 3 2 1 1 611 811 610 453
986 3 2 1 1 1206 1244 1176 1162
987 3 2 1 1 1187 1273 1211 1173
990 3 2 1 1 538 679 264 265
991 3 2 1 1 538 407 541 681
992 3 2 1 1 1024 1043 1133 1108
993 3 2 1 1 1127 1103 1120 1186
994 3 2 1 1 1204 1134 1053 1130
995 3 2 1 1 272 273 412 547
996 3 2 1 1 717 836 1024 863
997 3 2 1 1 1052 950 1070 1119
998 3 2 1 1 738 876 458 585
999 3 2 1 1 863 732 581 717
1000 3 2 1 1 1162 1176 1120 1054
1001 3 2 1 1 1098 1158 1184 1124
1002 3 2 1 1 1132 1185 1242 1208
1003 3 2 1 1 20 252 327 242
1004 3 2 1 1 869 838 837 868
1005 3 2 1 1 1101 1161 1174 1160
1006 3 2 1 1 1163 1204 1130 1107
1007 3 2 1 1 929 1029 257 256
1008 3 2 1 1 836 946 1043 1024
1009 3 2 1 1 679 805 263 264
1010 3 2 1 1 1162 1102 1150 1206
1011 3 2 1 1 1029 1103 258 257
1012 3 2 1 1 1103 1127 259 258
1013 3 2 1 1 1117 1171 1225 1198
1014 3 2 1 1 1038 862 966 1111
1015 3 2 1 1 441 579 731 533
1016 3 2 1 1 561 305 536 732
1017 3 2 1 1 1052 1163 1107 1031
1018 3 2 1 1 950 1052 1031 931
1019 3 2 1 1 805 931 262 263
1020 3 2 1 1 859 950 931 805
1021 3 2 1 1 736 891 1037 866
1022 3 2 1 1 730 602 833 870
1023 3 2 1 1 931 1031 261 262
1024 3 2 1 1 338 450 623 354
1025 3 2 1 1 681 814 679 538
1026 3 2 1 1 1193 1209 1128 1129
1027 3 2 1 1 732 536 403 581
1028 3 2 1 1 206 410 413 205
1030 3 2 1 1 1031 1107 260 261
1031 3 2 1 1 806 932 579 802
1032 3 2 1 1 327 454 607 452
1033 3 2 1 1 416 580 421 349
1034 3 2 1 1 937 808 605 803
1035 3 2 1 1 737 612 254 255
1036 3 2 1 1 620 449 734 725
1037 3 2 1 1 863 1024 1108 1039
1038 3 2 1 1 791 660 864 867
1039 3 2 1 1 339 451 581 403
1042 3 2 1 1 950 859 974 1070
1043 3 2 1 1 1022 835 1057 1159
1044 3 2 1 1 1128 1070 974 1064
1045 3 2 1 1 414 534 457 249
1048 3 2 1 1 259 260 1107 1130
1049 3 2 1 1 1244 1262 1230 1176
1050 3 2 1 1 673 540 335 459
1051 3 2 1 1 1255 1216 1194 1113
1052 3 2 1 1 807 705 677 545
1053 3 2 1 1 746 606 440 883
1054 3 2 1 1 936 1032 1101 893
1055 3 2 1 1 1109 1033 716 876
1056 3 2 1 1 1228 1056 1160 1174
1057 3 2 1 1 1209 1119 1070 1128
1058 3 2 1 1 1054 1023 1102 1162
1059 3 2 1 1 805 679 814 859
1060 3 2 1 1 548 413 410 684
1061 3 2 1 1 749 561 835 1022
1062 3 2 1 1 450 338 273 272
1063 3 2 1 1 719 877 967 872
1064 3 2 1 1 255 254 676 804
1065 3 2 1 1 451 339 266 265
1066 3 2 1 1 343 606 681 541
1067 3 2 1 1 1034 738 872 967
1068 3 2 1 1 1215 1174 1161 1168
1069 3 2 1 1 1283 1261 1248 1281
1070 3 2 1 1 933 699 421 580
1071 3 2 1 1 1105 1122 1171 1117
1072 3 2 1 1 868 837 736 866
1073 3 2 1 1 1032 1046 1161 1101
1074 3 2 1 1 669 791 867 727
1075 3 2 1 1 254 253 548 676
1076 3 2 1 1 963 834 703 861
1077 3 2 1 1 1227 1207 1258 1226
1078 3 2 1 1 395 411 153 154
1079 3 2 1 1 1034 967 1112 963
1080 3 2 1 1 449 620 317 337
1081 3 2 1 1 1104 949 699 933
1082 3 2 1 1 452 607 666 313
1083 3 2 1 1 734 930 932 725
1084 3 2 1 1 405 535 803 605
1085 3 2 1 1 1208 1242 1258 1207
1086 3 2 1 1 1221 1274 1205 1169
1087 3 2 1 1 576 439 813 890
1088 3 2 1 1 1225 1262 1256 1217
1089 3 2 1 1 1217 1185 1198 1225
1090 3 2 1 1 1065 965 1063 1164
1091 3 2 1 1 1264 1279 1296 1280
1092 3 2 1 1 1129 1068 1194 1193
1093 3 2 1 1 867 864 941 728
1094 3 2 1 1 728 577 727 867
1095 3 2 1 1 865 699 949 969
1096 3 2 1 1 271 272 547 675
1097 3 2 1 1 1226 1126 1189 1227
1098 3 2 1 1 1206 1150 1047 1205
1099 3 2 1 1 727 688 448 669
1100 3 2 1 1 260 259 1127 1055
1101 3 2 1 1 408 545 677 537
1102 3 2 1 1 1244 1206 1205 1274
1103 3 2 1 1 735 609 264 263
1104 3 2 1 1 605 808 246 546
1105 3 2 1 1 793 666 893 983
1106 3 2 1 1 1221 1271 1284 1256
1107 3 2 1 1 811 611 700 939
1109 3 2 1 1 833 1102 1023 870
1110 3 2 1 1 968 864 718 1100
1111 3 2 1 1 1133 1198 1185 1132
1112 3 2 1 1 414 251 182 183
1114 3 2 1 1 1247 1228 1174 1215
1115 3 2 1 1 813 683 860 1035
1116 3 2 1 1 939 700 834 1036
1117 3 2 1 1 871 737 255 256
1118 3 2 1 1 1217 1250 1242 1185
1119 3 2 1 1 1210 1066 1164 1063
1120 3 2 1 1 609 451 265 264
1121 3 2 1 1 577 728 687 245
1122 3 2 1 1 546 245 244 336
1123 3 2 1 1 1297 1216 1255 1294
1124 3 2 1 1 964 801 926 1028
1125 3 2 1 1 812 623 450 686
1126 3 2 1 1 804 929 256 255
1127 3 2 1 1 1286 1172 1226 1258
1128 3 2 1 1 617 458 876 716
1129 3 2 1 1 459 317 620 673
1130 3 2 1 1 699 865 608 421
1131 3 2 1 1 938 809 674 341
1132 3 2 1 1 1282 1272 1222 1260
1133 3 2 1 1 1027 704 940 1111
1134 3 2 1 1 258 259 1130 1053
1135 3 2 1 1 1260 1243 1183 1245
1136 3 2 1 1 349 421 608 284
1137 3 2 1 1 1215 1272 1278 1247
1138 3 2 1 1 1282 1275 1216 1297
1139 3 2 1 1 624 465 284 608
1140 3 2 1 1 861 703 801 964
1141 3 2 1 1 1100 718 879 972
1142 3 2 1 1 730 870 676 684
1143 3 2 1 1 1245 1183 1119 1209
1144 3 2 1 1 1101 1160 983 893
1145 3 2 1 1 883 702 1064 974
1146 3 2 1 1 814 681 606 746
1147 3 2 1 1 683 813 439 249
1148 3 2 1 1 865 693 624 608
1149 3 2 1 1 545 244 687 807
1150 3 2 1 1 888 704 1027 877
1151 3 2 1 1 547 412 411 685
1152 3 2 1 1 1038 812 686 733
1153 3 2 1 1 976 873 262 261
1154 3 2 1 1 729 752 576 1030
1155 3 2 1 1 725 621 673 620
1156 3 2 1 1 261 260 1055 976
1157 3 2 1 1 1299 1278 1298 1295
1158 3 2 1 1 1210 1124 1184 1125
1159 3 2 1 1 933 580 729 1030
1160 3 2 1 1 1112 967 877 1027
1161 3 2 1 1 411 395 533 685
1162 3 2 1 1 439 576 542 250
1163 3 2 1 1 740 930 734 682
1164 3 2 1 1 816 680 543 341
1165 3 2 1 1 683 248 815 860
1166 3 2 1 1 937 860 815 808
1167 3 2 1 1 588 623 940 704
1168 3 2 1 1 1053 973 257 258
1169 3 2 1 1 1216 1275 1193 1194
1170 3 2 1 1 746 974 859 814
1171 3 2 1 1 1057 835 1039 1108
1172 3 2 1 1 939 966 862 811
1173 3 2 1 1 1132 1057 1108 1133
1174 3 2 1 1 1281 1259 1249 1283
1175 3 2 1 1 457 688 248 249
1176 3 2 1 1 1272 1282 1297 1278
1177 3 2 1 1 816 341 674 752
1178 3 2 1 1 675 740 270 271
1179 3 2 1 1 1104 1030 1065 1164
1180 3 2 1 1 873 735 263 262
1181 3 2 1 1 733 610 811 862
1182 3 2 1 1 153 411 412 152
1183 3 2 1 1 1164 1066 949 1104
1184 3 2 1 1 732 863 1039 561
1185 3 2 1 1 1299 1300 1247 1278
1186 3 2 1 1 682 550 268 269
1187 3 2 1 1 269 270 740 682
1188 3 2 1 1 1065 1030 890 1110
1189 3 2 1 1 688 810 247 248
1190 3 2 1 1 936 666 607 726
1191 3 2 1 1 1159 1057 1132 1208
1192 3 2 1 1 247 808 815 248
1193 3 2 1 1 1245 1209 1193 1275
1194 3 2 1 1 1112 1027 1111 966
1195 3 2 1 1 549 611 453 415
1196 3 2 1 1 729 680 816 752
1197 3 2 1 1 546 336 405 605
1198 3 2 1 1 1035 935 934 1110
1199 3 2 1 1 449 550 682 734
1200 3 2 1 1 973 871 256 257
1201 3 2 1 1 1297 1294 1298 1278
1202 3 2 1 1 1109 876 738 1034
1203 3 2 1 1 860 937 935 1035
1204 3 2 1 1 243 244 545 408
1205 3 2 1 1 179 180 543 416
1206 3 2 1 1 964 1028 1037 1033
1207 3 2 1 1 966 939 1036 1112
1208 3 2 1 1 1298 1294 1276 1295
1209 3 2 1 1 251 250 542 809
1210 3 2 1 1 577 245 246 810
1211 3 2 1 1 542 752 674 809
1212 3 2 1 1 1300 1299 1254 1165
1214 3 2 1 1 337 267 550 449
1215 3 2 1 1 1262 1244 1274 1256
1216 3 2 1 1 1125 969 1066 1210
1217 3 2 1 1 1028 926 741 866
1218 3 2 1 1 680 580 416 543
1219 3 2 1 1 1260 1245 1275 1282
1220 3 2 1 1 1228 1247 1300 1165
1221 3 2 1 1 1033 1109 861 964
1222 3 2 1 1 1036 834 963 1112
1223 3 2 1 1 1110 934 965 1065
1225 3 2 1 1 727 577 810 688
1226 3 2 1 1 244 243 409 336
1228 3 2 1 1 1356 1421 1396 1355
1233 3 2 1 1 1363 1454 1399 1362
1234 3 2 1 1 1400 1454 1363 1364
1235 3 2 1 1 1361 1455 1398 1360
1236 3 2 1 1 1399 1455 1361 1362
1237 3 2 1 1 1359 1456 1395 1358
1238 3 2 1 1 1491 1516 1455 1399
1239 3 2 1 1 1398 1456 1359 1360
1240 3 2 1 1 1516 1491 1537 1558
1241 3 2 1 1 1421 1356 1357 1458
1242 3 2 1 1 1516 1475 1398 1455
1244 3 2 1 1 1569 1588 1534 1558
1245 3 2 1 1 1475 1516 1558 1534
1246 3 2 1 1 1420 1353 1354 1457
1249 3 2 1 1 1400 1364 1365 1453
1250 3 2 1 1 1456 1398 1475 1517
1251 3 2 1 1 1573 1535 1560 1571
1252 3 2 1 1 1357 1358 1395 1458
1253 3 2 1 1 1534 1560 1517 1475
1254 3 2 1 1 1472 1517 1560 1535
1255 3 2 1 1 1558 1537 1579 1569
1256 3 2 1 1 1354 1355 1396 1457
1258 3 2 1 1 1422 1423 1402 1451
1259 3 2 1 1 1517 1472 1395 1456
1260 3 2 1 1 1560 1534 1588 1571
1261 3 2 1 1 1519 1498 1404 1459
1262 3 2 1 1 1399 1454 1474 1491
1263 3 2 1 1 1457 1396 1438 1497
1264 3 2 1 1 1458 1395 1472 1520
1265 3 2 1 1 1520 1472 1535 1556
1266 3 2 1 1 1459 1397 1473 1519
1267 3 2 1 1 1520 1478 1421 1458
1268 3 2 1 1 1478 1438 1396 1421
1269 3 2 1 1 1453 1365 1366 1407
1272 3 2 1 1 1407 1366 1367 1425
1273 3 2 1 1 1537 1491 1474 1509
1274 3 2 1 1 1439 1490 1418 1401
1275 3 2 1 1 1406 1420 1457 1497
1277 3 2 1 1 1352 1420 1406 1351
1278 3 2 1 1 1595 1602 1573 1571
1279 3 2 1 1 1564 1579 1537 1509
1280 3 2 1 1 1548 1513 1490 1515
1281 3 2 1 1 1515 1490 1439 1545
1282 3 2 1 1 1545 1578 1554 1515
1283 3 2 1 1 1418 1490 1513 1448
1286 3 2 1 1 1425 1415 1461 1407
1287 3 2 1 1 1557 1510 1541 1574
1290 3 2 1 1 1556 1535 1573 1594
1291 3 2 1 1 1564 1509 1543 1562
1292 3 2 1 1 1404 1498 1461 1415
1294 3 2 1 1 1473 1397 1448 1513
1296 3 2 1 1 1486 1374 1529 1549
1297 3 2 1 1 1495 1451 1402 1424
1298 3 2 1 1 1511 1486 1549 1563
1300 3 2 1 1 1508 1544 1562 1543
1306 3 2 1 1 1443 1462 1487 1518
1307 3 2 1 1 1561 1562 1544 1538
1308 3 2 1 1 1386 1387 1443 1492
1309 3 2 1 1 1589 1576 1584 1596
1310 3 2 1 1 1518 1546 1492 1443
1312 3 2 1 1 1582 1575 1566 1546
1313 3 2 1 1 1559 1575 1587 1578
1314 3 2 1 1 1544 1519 1473 1538
1316 3 2 1 1 1546 1566 1521 1492
1317 3 2 1 1 1492 1521 1385 1386
1318 3 2 1 1 1462 1443 1387 1388
1319 3 2 1 1 1426 1460 1393 1394
1320 3 2 1 1 1546 1518 1565 1582
1321 3 2 1 1 1465 1494 1433 1380
1324 3 2 1 1 1502 1429 1422 1451
1326 3 2 1 1 1519 1544 1508 1498
1327 3 2 1 1 1495 1476 1512 1483
1328 3 2 1 1 1551 1565 1518 1487
1329 3 2 1 1 1382 1381 1430 1468
1331 3 2 1 1 1407 1461 1477 1453
1334 3 2 1 1 1445 1480 1528 1493
1335 3 2 1 1 1469 1481 1374 1375
1336 3 2 1 1 1522 1485 1403 1466
1337 3 2 1 1 1525 1503 1471 1496
1339 3 2 1 1 1440 1479 1419 1405
1340 3 2 1 1 1581 1548 1515 1554
1341 3 2 1 1 1566 1542 1507 1521
1342 3 2 1 1 1536 1524 1438 1478
1343 3 2 1 1 1497 1438 1524 1446
1344 3 2 1 1 1549 1529 1539 1553
1345 3 2 1 1 1460 1426 1464 1500
1346 3 2 1 1 1478 1520 1556 1536
1347 3 2 1 1 1564 1313 1576 1579
1348 3 2 1 1 1524 1536 1541 1480
1350 3 2 1 1 1460 1488 1392 1393
1351 3 2 1 1 1453 1477 1514 1400
1352 3 2 1 1 1494 1465 1432 1442
1353 3 2 1 1 1474 1454 1400 1514
1354 3 2 1 1 1507 1496 1383 1384
1355 3 2 1 1 1311 1350 1413 1414
1356 3 2 1 1 1350 1351 1406 1413
1358 3 2 1 1 1390 1389 1463 1467
1359 3 2 1 1 1391 1390 1467 1505
1360 3 2 1 1 1579 1576 1589 1569
1361 3 2 1 1 1493 1528 1437 1369
1362 3 2 1 1 1462 1435 1444 1487
1363 3 2 1 1 1553 1568 1563 1549
1364 3 2 1 1 1563 1580 1540 1511
1365 3 2 1 1 1481 1504 1527 1552
1366 3 2 1 1 1526 1489 1452 1410
1367 3 2 1 1 1498 1508 1477 1461
1368 3 2 1 1 1514 1477 1508 1543
1370 3 2 1 1 1543 1509 1474 1514
1371 3 2 1 1 1466 1433 1494 1522
1372 3 2 1 1 1383 1382 1468 1483
1373 3 2 1 1 1559 1506 1525 1542
1374 3 2 1 1 1499 1370 1437 1510
1375 3 2 1 1 1381 1382 1471 1417
1376 3 2 1 1 1529 1373 1372 1539
1377 3 2 1 1 1470 1434 1378 1379
1378 3 2 1 1 1581 1554 1592 1577
1379 3 2 1 1 1476 1495 1424 1447
1380 3 2 1 1 1417 1471 1503 1450
1382 3 2 1 1 1547 1499 1510 1557
1383 3 2 1 1 1485 1476 1447 1403
1384 3 2 1 1 1382 1383 1496 1471
1385 3 2 1 1 1439 1482 1506 1545
1386 3 2 1 1 1595 1571 1588 1598
1387 3 2 1 1 1489 1440 1405 1452
1388 3 2 1 1 1507 1542 1525 1496
1389 3 2 1 1 1568 1585 1580 1563
1390 3 2 1 1 1548 1581 1561 1538
1391 3 2 1 1 1569 1589 1598 1588
1392 3 2 1 1 1570 1555 1590 1597
1394 3 2 1 1 1527 1504 1441 1488
1395 3 2 1 1 1561 1581 1577 1313
1396 3 2 1 1 1513 1548 1538 1473
1397 3 2 1 1 1419 1479 1500 1464
1398 3 2 1 1 1567 1547 1557 1572
1399 3 2 1 1 1521 1507 1384 1385
1400 3 2 1 1 1434 1463 1389 1314
1401 3 2 1 1 1440 1489 1550 1523
1402 3 2 1 1 1500 1527 1488 1460
1403 3 2 1 1 1596 1584 1601 1600
1404 3 2 1 1 1542 1566 1575 1559
1405 3 2 1 1 1384 1383 1483 1512
1406 3 2 1 1 1559 1578 1545 1506
1407 3 2 1 1 1522 1494 1442 1484
1409 3 2 1 1 1469 1376 1431 1441
1410 3 2 1 1 1385 1384 1512 1484
1411 3 2 1 1 1578 1587 1592 1554
1412 3 2 1 1 1555 1540 1580 1590
1413 3 2 1 1 1387 1386 1442 1432
1414 3 2 1 1 1576 1313 1577 1584
1415 3 2 1 1 1598 1589 1596 1599
1416 3 2 1 1 1446 1524 1480 1445
1417 3 2 1 1 1468 1430 1429 1502
1418 3 2 1 1 1530 1511 1540 1551
1419 3 2 1 1 1591 1599 1585 1568
1420 3 2 1 1 1375 1374 1486 1501
1421 3 2 1 1 1391 1392 1488 1441
1422 3 2 1 1 1530 1551 1487 1444
1423 3 2 1 1 1413 1446 1445 1414
1424 3 2 1 1 1550 1489 1526 1372
1425 3 2 1 1 1562 1561 1313 1564
1426 3 2 1 1 1390 1391 1441 1431
1427 3 2 1 1 1592 1601 1584 1577
1428 3 2 1 1 1539 1532 1547 1567
1429 3 2 1 1 1503 1525 1506 1482
1430 3 2 1 1 1408 1409 1463 1434
1431 3 2 1 1 1600 1585 1599 1596
1432 3 2 1 1 1449 1427 1394 1393
1433 3 2 1 1 1528 1541 1510 1437
1434 3 2 1 1 1392 1505 1412 1416
1435 3 2 1 1 1555 1570 1565 1551
1436 3 2 1 1 1501 1486 1511 1530
1437 3 2 1 1 1388 1314 1435 1462
1438 3 2 1 1 1378 1388 1432 1379
1439 3 2 1 1 1428 1348 1349 1369
1440 3 2 1 1 1416 1449 1393 1392
1441 3 2 1 1 1523 1550 1373 1374
1442 3 2 1 1 1431 1377 1389 1390
1443 3 2 1 1 1553 1567 1583 1568
1444 3 2 1 1 1376 1501 1444 1377
1445 3 2 1 1 1585 1600 1590 1580
1446 3 2 1 1 1414 1445 1493 1368
1447 3 2 1 1 1386 1385 1484 1442
1448 3 2 1 1 1502 1451 1495 1483
1449 3 2 1 1 1479 1552 1527 1500
1450 3 2 1 1 1406 1497 1446 1413
1451 3 2 1 1 1409 1411 1467 1463
1452 3 2 1 1 1599 1591 1595 1598
1453 3 2 1 1 1574 1541 1536 1594
1454 3 2 1 1 1370 1533 1428 1369
1455 3 2 1 1 1593 1572 1557 1574
1456 3 2 1 1 1482 1439 1401 1450
1457 3 2 1 1 1572 1586 1583 1567
1458 3 2 1 1 1591 1568 1583 1586
1459 3 2 1 1 1587 1575 1582 1570
1460 3 2 1 1 1526 1533 1371 1372
1461 3 2 1 1 1594 1573 1593 1574
1462 3 2 1 1 1411 1412 1505 1467
1464 3 2 1 1 1532 1371 1499 1547
1465 3 2 1 1 1368 1369 1349 1312
1466 3 2 1 1 1602 1586 1572 1593
1467 3 2 1 1 1436 1470 1379 1380
1468 3 2 1 1 1597 1590 1600 1601
1469 3 2 1 1 1476 1485 1531 1512
1470 3 2 1 1 1481 1552 1523 1374
1471 3 2 1 1 1601 1592 1587 1597
1472 3 2 1 1 1531 1485 1522 1484
1473 3 2 1 1 1552 1479 1440 1523
1474 3 2 1 1 1533 1526 1410 1428
1475 3 2 1 1 1435 1314 1377 1444
1476 3 2 1 1 1372 1371 1532 1539
1477 3 2 1 1 1586 1602 1595 1591
1479 3 2 1 1 1379 1432 1465 1380
1480 3 2 1 1 1504 1481 1469 1441
1 2 2 1 1 251 1613 182 
25 2 2 1 1 1631 243 1610 
27 2 2 1 1 243 408 1610 
34 2 2 1 1 809 251 1613 
35 2 2 1 1 1613 182 809 
59 2 2 1 1 1380 1433 1610 
215 3 2 1 1 28 373 43 1603
359 3 2 1 1 274 394 1614 1605
360 3 2 1 1 394 397 1615 1614
402 3 2 1 1 401 283 1634 1633
535 3 2 1 1 399 282 1638 1637
547 3 2 1 1 400 399 1637 1636
549 3 2 1 1 294 1617 1616 531
556 3 2 1 1 400 1636 1635 527
589 3 2 1 1 1639 1638 282 455
595 3 2 1 1 1616 1615 397 531
604 3 2 1 1 1635 1634 283 527
653 3 2 1 1 312 1627 1608 521
662 3 2 1 1 424 554 521 1608
675 3 2 1 1 1608 1626 305 424
688 3 2 1 1 305 1626 1625 536
692 3 2 1 1 1628 1627 312 535
737 3 2 1 1 1625 1624 403 536
755 3 2 1 1 406 29 1604 1646
771 3 2 1 1 1646 1645 335 406
774 3 2 1 1 274 1605 42 456
788 3 2 1 1 404 1640 1639 455
796 3 2 1 1 1619 1618 461 324
803 3 2 1 1 405 1629 1628 535
807 3 2 1 1 342 461 1618 1606
827 3 2 1 1 1606 1617 294 342
858 3 2 1 1 335 1645 1644 459
873 3 2 1 1 459 1644 1643 317
890 3 2 1 1 403 1624 1623 339
892 3 2 1 1 1620 1619 324 343
898 3 2 1 1 1640 404 281 1611
917 3 2 1 1 1633 1632 537 401
923 3 2 1 1 1621 541 407 1622
944 3 2 1 1 1622 407 266 1607
946 3 2 1 1 339 1623 1607 266
956 3 2 1 1 541 1621 1620 343
988 3 2 1 1 317 1643 1642 337
989 3 2 1 1 1612 267 337 1642
1029 3 2 1 1 408 537 1632 1610
1040 3 2 1 1 1609 1630 336 409
1041 3 2 1 1 405 336 1630 1629
1046 3 2 1 1 409 243 1631 1609
1047 3 2 1 1 1641 415 267 1612
1108 3 2 1 1 1611 549 415 1641
1113 3 2 1 1 544 549 1611 281
1213 3 2 1 1 1613 182 809 938
1224 3 2 1 1 180 1613 938 341
1227 3 2 1 1 1616 1404 1415 1615
1229 3 2 1 1 1353 1420 1352 1603
1230 3 2 1 1 1619 1620 1401 1418
1231 3 2 1 1 1608 1627 1423 1626
1232 3 2 1 1 1635 1409 1408 1634
1243 3 2 1 1 1626 1423 1422 1625
1247 3 2 1 1 1404 1616 1617 1459
1248 3 2 1 1 1402 1423 1627 1628
1257 3 2 1 1 1617 1606 1397 1459
1270 3 2 1 1 1614 1615 1415 1425
1271 3 2 1 1 1605 1614 1425 1367
1276 3 2 1 1 1448 1618 1619 1418
1284 3 2 1 1 1405 1645 1646 1452
1285 3 2 1 1 1397 1606 1618 1448
1288 3 2 1 1 1424 1629 1630 1447
1289 3 2 1 1 1402 1628 1629 1424
1293 3 2 1 1 1633 1634 1408 1470
1295 3 2 1 1 1452 1646 1604 1410
1299 3 2 1 1 1611 1641 1427 1640
1301 3 2 1 1 1636 1411 1409 1635
1302 3 2 1 1 1450 1621 1622 1417
1303 3 2 1 1 1401 1620 1621 1450
1304 3 2 1 1 1417 1622 1607 1381
1305 3 2 1 1 1643 1464 1426 1642
1311 3 2 1 1 1642 1426 1394 1612
1315 3 2 1 1 1466 1403 1609 1631
1322 3 2 1 1 1640 1427 1449 1639
1323 3 2 1 1 1416 1638 1639 1449
1325 3 2 1 1 1623 1430 1381 1607
1330 3 2 1 1 1410 1604 1348 1428
1332 3 2 1 1 1644 1645 1405 1419
1333 3 2 1 1 1433 1466 1631 1610
1338 3 2 1 1 1422 1429 1624 1625
1349 3 2 1 1 1403 1447 1630 1609
1357 3 2 1 1 1464 1643 1644 1419
1369 3 2 1 1 1637 1412 1411 1636
1381 3 2 1 1 1624 1429 1430 1623
1393 3 2 1 1 1638 1416 1412 1637
1408 3 2 1 1 1427 1641 1612 1394
1463 3 2 1 1 1632 1436 1380 1610
1478 3 2 1 1 1633 1470 1436 1632
$EndElements
