$MeshFormat
2.2 0 8
$EndMeshFormat
$Nodes
267
1 20 20 0
2 60 20 0
3 60 50 0
4 60 60 0
5 20 60 0
6 20 50 0
7 80 80 0
8 60 80 0
9 80 60 0
10 0 0 0
11 100 0 0
12 0 50 0
13 100 50 0
14 0 100 0
15 100 100 0
30 10 0 0
31 20 0 0
32 30 0 0
33 40 0 0
34 50 0 0
35 60 0 0
36 70 0 0
37 80 0 0
38 90 0 0
39 0 40 0
40 0 30 0
41 0 20 0
42 0 10 0
43 100 10 0
44 100 20 0
45 100 30 0
46 100 40 0
47 0 90 0
48 0 80 0
49 0 70 0
50 0 60 0
51 100 60 0
52 100 70 0
53 100 80 0
54 100 90 0
55 90 100 0
56 80 100 0
57 70 100 0
58 60 100 0
59 50 100 0
60 40 100 0
61 30 100 0
62 20 100 0
63 10 100 0
64 6.66666666666667 6.66666666666667 0
65 13.3333333333333 13.3333333333333 0
66 86.6666666666667 86.6666666666667 0
67 93.3333333333333 93.3333333333333 0
68 10 50 0
69 70 50 0
70 80 50 0
71 90 50 0
72 29.9999298155097 70.000062954353 0
73 90.0000020206137 19.9999982137763 0
74 29.999955731111 90.0000383869267 0
75 90.0000003387156 39.9999997005752 0
76 70.0000089934828 29.9999920497556 0
77 9.99999940527989 80.0000005157003 0
78 9.85630185977339 30.1226755534474 0
79 20.8767781001717 8.88883323578033 0
80 79.123831868209 91.1106275517929 0
81 91.0994542322605 79.136602053665 0
82 60.0010381060621 9.99908927129616 0
83 80.0000175059018 9.99998452477193 0
84 40.0321557604357 9.96775353258374 0
85 9.99999942061989 70.0000005023985 0
86 9.99999977024412 60.0000001992285 0
87 49.9995429084809 70.0004319767112 0
88 39.9993005912929 90.0006232406199 0
89 69.8452533343452 90.1871633373796 0
90 49.9951654181811 90.0047642066935 0
91 90.1780565538904 69.8555761787645 0
92 90.0277062033115 59.9768657484709 0
93 9.97984057095745 40.0185734805834 0
94 70.0000014629009 39.9999987067947 0
95 90.0000032817635 9.99999709891905 0
96 9.9999996220066 90.0000003277698 0
97 93.2722009780762 86.6136184052498 0
98 86.5971582734261 93.2860214669379 0
99 13.4028417267333 6.71397853292107 0
100 6.98844066664076 13.1217734997736 0
101 29.9998615422024 80.000122418156 0
102 70.0001641878753 9.99985572752876 0
103 39.9990672774146 80.0008849075371 0
104 50.0058113247541 9.99439997601724 0
105 90.0000018132964 29.9999983970449 0
106 19.9999851210506 90.0000130493176 0
107 70.0001045942363 19.9999080822005 0
108 19.9999814392939 70.0000165037836 0
109 59.9728823792221 90.0312977482859 0
110 49.9967903566743 80.0034242396911 0
111 39.9995374823023 70.0004596958873 0
112 80.0000015780569 39.9999986049967 0
113 80.0000306985974 19.9999729847241 0
114 30.1561790282107 9.81157017805037 0
115 8.94349437955233 20.8087897181678 0
116 19.9999704638128 80.0000261068998 0
117 80.0000135163207 29.9999881008252 0
118 50 50 0
129 27.5 27.5 0
130 35 35 0
131 42.5 42.5 0
132 30 50 0
133 40 50 0
134 48.6451468653252 31.454868796739 0
135 51.3622535899495 40.4046006520439 0
136 28.0848703703892 41.9279448223922 0
137 38.6545435712937 27.6546497507638 0
138 37.2683913496364 44.6665685173289 0
139 25.3383621951175 32.7365393628099 0
140 42.9741005979704 36.0630922352212 0
145 66.6666666666667 66.6666666666667 0
146 73.3333333333333 73.3333333333333 0
147 66.944767639309 73.055232360691 0
148 73.0552325751164 66.9447674248836 0
149 30 20 0
150 40 20 0
151 50 20 0
152 60 30 0
153 60 40 0
154 50 60 0
155 40 60 0
156 30 60 0
157 20 40 0
158 20 30 0
159 70 80 0
160 60 70 0
161 70 60 0
162 80 70 0
149 100 0 0
150 100 50 0
151 100 100 0
152 200 0 0
153 200 50 0
154 200 100 0
155 120 20 0
156 160 20 0
157 160 40 0
158 160 50 0
159 160 60 0
160 140 60 0
161 120 60 0
162 120 50 0
163 180 60 0
164 180 80 0
165 160 80 0
166 100 10 0
167 100 20 0
168 100 30 0
169 100 40 0
170 100 60 0
171 100 70 0
172 100 80 0
173 100 90 0
174 110 0 0
175 120 0 0
176 130 0 0
177 140 0 0
178 150 0 0
179 160 0 0
180 170 0 0
181 180 0 0
182 190 0 0
183 200 10 0
184 200 20 0
185 200 30 0
186 200 40 0
187 200 60 0
188 200 70 0
189 200 80 0
190 200 90 0
191 190 100 0
192 180 100 0
193 170 100 0
194 160 100 0
195 150 100 0
196 140 100 0
197 130 100 0
198 120 100 0
199 110 100 0
212 106.666666666667 93.3333333333333 0
213 113.333333333333 86.6666666666667 0
214 120 80 0
215 126.666666666667 73.3333333333333 0
216 133.333333333333 66.6666666666667 0
217 166.666666666667 33.3333333333333 0
218 173.333333333333 26.6666666666667 0
219 180 20 0
220 186.666666666667 13.3333333333333 0
221 193.333333333333 6.66666666666667 0
222 110 50 0
223 170 50 0
224 180 50 0
225 190 50 0
226 150.349579332851 70.1190761872462 0
227 190.449449413205 30.3755181850163 0
228 130.608753859037 90.3095826762943 0
229 109.793762743461 77.7283329561054 0
230 179.031246591141 8.71267675792303 0
231 190.074255719182 40.1540718888639 0
232 140.429723609688 90.1383572211455 0
233 110 40 0
234 110 30 0
235 110 20 0
236 120.000018124618 9.99993446363143 0
237 159.903567252978 9.7795350938038 0
238 109.827604035242 69.4564063926644 0
239 109.909829360236 59.8330536470342 0
240 190 70 0
241 190 60 0
242 189.999994078148 80.0000634631849 0
243 180.000344457044 90.0006782035769 0
244 160.048903961817 90.0132603222777 0
245 140.000144768364 9.99389877752166 0
246 190.000039948158 90.0001180936192 0
247 110.000002265577 9.99999180795393 0
248 141.37012731649 71.1351082517276 0
249 169.674417060297 41.7824850332582 0
250 167.925729072395 24.8510021602049 0
251 186.499773164323 6.71292407460385 0
252 126.868650812059 66.9980163103235 0
253 107.920052171572 84.5942264093199 0
254 113.658556430408 93.1166833919356 0
255 193.210935913165 13.7254840933189 0
256 141.058860723433 80.6008036796906 0
257 179.294386711552 39.6863971853566 0
258 168.993981661533 18.6307370385979 0
259 150.397219548858 80.1983891880417 0
260 150.218254693053 90.0864288042812 0
261 130.000056610859 9.999098082407 0
262 170.006885975274 90.0026592403306 0
263 149.987637302382 9.96170502549015 0
264 182.170728132503 30.3726486707969 0
265 191.325415580915 21.0289702876189 0
266 121.144877987966 91.1829880578471 0
267 119.156152354192 68.6922788865513 0
268 133.621862651891 73.1435332117875 0
269 169.680159489663 9.51305396563372 0
270 175.212577268452 32.2866267483457 0
271 131.684749086362 81.1180134495783 0
272 150 50 0
281 130 50 0
282 140 50 0
283 149.054335517177 39.0543355171769 0
284 129.97252056102 29.9725205610196 0
285 149.823950138335 29.8239501383349 0
286 129.966537583247 39.9665375832468 0
287 139.868803392981 29.868803392981 0
288 139.809251101003 39.809251101003 0
293 170.03125 70.03125 0
294 130 20 0
295 140 20 0
296 150 20 0
297 160 30 0
298 150 60 0
299 130 60 0
300 120 40 0
301 120 30 0
302 170 60 0
303 180 70 0
304 170 80 0
305 160 70 0
$EndNodes
$Elements
241
1 2 2 1 1 66 97 67 
2 2 2 1 1 67 98 66 
3 2 2 1 1 64 99 65 
4 2 2 1 1 65 100 64 
5 2 2 1 1 129 137 130 
7 2 2 1 1 132 138 133 
9 2 2 1 1 130 140 131 
10 2 2 1 1 3 4 118 
12 2 2 1 1 131 138 130 
13 2 2 1 1 130 139 129 
14 2 2 1 1 131 135 118 
15 2 2 1 1 145 148 146 
16 2 2 1 1 146 147 145 
17 3 2 1 1 71 75 46 13
23 3 2 1 1 95 73 113 83
25 3 2 1 1 90 88 103 110
27 3 2 1 1 104 84 33 34
28 3 2 1 1 83 102 36 37
29 3 2 1 1 38 95 83 37
30 3 2 1 1 39 93 68 12
31 3 2 1 1 40 78 93 39
32 3 2 1 1 73 95 43 44
33 3 2 1 1 43 95 38 11
34 3 2 1 1 47 96 63 14
35 3 2 1 1 77 96 47 48
36 3 2 1 1 85 77 48 49
37 3 2 1 1 86 85 49 50
38 3 2 1 1 68 86 50 12
39 3 2 1 1 51 92 71 13
40 3 2 1 1 52 91 92 51
41 3 2 1 1 113 117 76 107
42 3 2 1 1 76 117 112 94
43 3 2 1 1 59 90 109 58
44 3 2 1 1 106 74 61 62
45 3 2 1 1 62 63 96 106
46 3 2 1 1 75 71 70 112
47 3 2 1 1 69 94 112 70
48 3 2 1 1 5 108 85 86
51 3 2 1 1 90 110 8 109
53 3 2 1 1 112 117 105 75
54 3 2 1 1 111 87 110 103
56 3 2 1 1 113 107 102 83
57 3 2 1 1 102 107 2 82
58 3 2 1 1 5 86 68 6
59 3 2 1 1 105 117 113 73
60 3 2 1 1 71 92 9 70
65 3 2 1 1 46 75 105 45
66 3 2 1 1 105 73 44 45
67 3 2 1 1 101 103 88 74
68 3 2 1 1 82 104 34 35
69 3 2 1 1 35 36 102 82
70 3 2 1 1 111 103 101 72
71 3 2 1 1 60 61 74 88
72 3 2 1 1 88 90 59 60
73 3 2 1 1 77 85 108 116
74 3 2 1 1 106 116 101 74
75 3 2 1 1 116 108 72 101
76 3 2 1 1 106 96 77 116
77 3 2 1 1 78 40 41 115
81 3 2 1 1 31 32 114 79
82 3 2 1 1 56 57 89 80
83 3 2 1 1 91 52 53 81
84 3 2 1 1 33 84 114 32
85 3 2 1 1 89 57 58 109
89 3 2 1 1 81 97 66 7
90 3 2 1 1 66 98 80 7
91 3 2 1 1 65 99 79 1
92 3 2 1 1 115 100 65 1
93 3 2 1 1 67 97 54 15
94 3 2 1 1 55 98 67 15
95 3 2 1 1 30 99 64 10
96 3 2 1 1 64 100 42 10
97 3 2 1 1 100 115 41 42
98 3 2 1 1 56 80 98 55
99 3 2 1 1 97 81 53 54
100 3 2 1 1 31 79 99 30
110 3 2 1 1 140 134 135 131
111 3 2 1 1 140 130 137 134
112 3 2 1 1 133 138 131 118
114 3 2 1 1 136 130 138 132
6 2 2 1 1 1 149 129 
8 2 2 1 1 158 139 157 
11 2 2 1 1 4 154 118 
18 3 2 1 1 152 76 94 153
19 3 2 1 1 153 94 69 3
20 3 2 1 1 155 111 72 156
21 3 2 1 1 87 111 155 154
22 3 2 1 1 68 93 157 6
24 3 2 1 1 93 78 158 157
26 3 2 1 1 92 91 162 9
49 3 2 1 1 4 160 87 154
50 3 2 1 1 69 161 4 3
52 3 2 1 1 87 160 8 110
55 3 2 1 1 69 70 9 161
61 3 2 1 1 82 2 151 104
62 3 2 1 1 72 108 5 156
63 3 2 1 1 104 151 150 84
64 3 2 1 1 2 107 76 152
78 3 2 1 1 8 159 89 109
79 3 2 1 1 150 149 114 84
80 3 2 1 1 158 78 115 1
86 3 2 1 1 162 91 81 7
87 3 2 1 1 80 89 159 7
88 3 2 1 1 79 114 149 1
101 3 2 1 1 132 156 5 6
102 3 2 1 1 154 155 133 118
103 3 2 1 1 155 156 132 133
104 3 2 1 1 157 136 132 6
105 3 2 1 1 150 151 134 137
106 3 2 1 1 151 2 152 134
107 3 2 1 1 134 152 153 135
108 3 2 1 1 135 153 3 118
109 3 2 1 1 149 150 137 129
113 3 2 1 1 129 139 158 1
115 3 2 1 1 139 130 136 157
116 3 2 1 1 159 147 146 7
117 3 2 1 1 145 147 160 4
118 3 2 1 1 161 148 145 4
119 3 2 1 1 146 148 162 7
120 3 2 1 1 8 160 147 159
121 3 2 1 1 9 162 148 161
122 2 2 2 2 257 270 264 
124 2 2 2 2 151 173 212 
125 2 2 2 2 217 249 157 
126 2 2 2 2 229 253 172 
127 2 2 2 2 216 268 215 
128 2 2 2 2 218 270 217 
129 2 2 2 2 212 253 213 
130 2 2 2 2 220 251 221 
131 2 2 2 2 221 255 220 
132 2 2 2 2 215 252 216 
133 2 2 2 2 213 254 212 
134 2 2 2 2 157 158 272 
136 2 2 2 2 272 160 282 
137 2 2 2 2 272 283 157 
138 3 2 2 2 235 247 236 155
139 3 2 2 2 166 247 235 167
140 3 2 2 2 222 239 170 150
141 3 2 2 2 171 170 239 238
142 3 2 2 2 236 247 174 175
143 3 2 2 2 261 236 175 176
144 3 2 2 2 261 176 177 245
145 3 2 2 2 263 245 177 178
146 3 2 2 2 237 263 178 179
147 3 2 2 2 187 241 225 153
148 3 2 2 2 188 240 241 187
149 3 2 2 2 242 240 188 189
150 3 2 2 2 191 246 190 154
151 3 2 2 2 190 246 242 189
153 3 2 2 2 243 246 191 192
154 3 2 2 2 262 243 192 193
155 3 2 2 2 262 193 194 244
166 3 2 2 2 174 247 166 149
167 3 2 2 2 246 243 164 242
168 3 2 2 2 161 239 222 162
169 3 2 2 2 233 222 150 169
171 3 2 2 2 225 241 163 224
174 3 2 2 2 234 233 169 168
175 3 2 2 2 167 235 234 168
176 3 2 2 2 244 194 195 260
177 3 2 2 2 238 239 161 267
178 3 2 2 2 249 223 158 157
179 3 2 2 2 229 172 171 238
181 3 2 2 2 260 195 196 232
182 3 2 2 2 259 165 244 260
183 3 2 2 2 237 179 180 269
184 3 2 2 2 232 196 197 228
185 3 2 2 2 186 153 225 231
186 3 2 2 2 229 238 267 214
187 3 2 2 2 185 186 231 227
188 3 2 2 2 231 225 224 257
189 3 2 2 2 257 224 223 249
190 3 2 2 2 265 184 185 227
191 3 2 2 2 197 198 266 228
192 3 2 2 2 269 180 181 230
193 3 2 2 2 258 156 237 269
194 3 2 2 2 259 260 232 256
195 3 2 2 2 258 269 230 219
196 3 2 2 2 256 248 226 259
197 3 2 2 2 271 228 266 214
199 3 2 2 2 264 227 231 257
200 3 2 2 2 265 227 264 219
201 3 2 2 2 232 228 271 256
202 3 2 2 2 258 219 218 250
203 3 2 2 2 216 160 248 268
204 3 2 2 2 213 214 266 254
205 3 2 2 2 265 219 220 255
206 3 2 2 2 230 251 220 219
207 3 2 2 2 218 219 264 270
209 3 2 2 2 213 253 229 214
210 3 2 2 2 267 252 215 214
211 3 2 2 2 249 217 270 257
212 3 2 2 2 253 212 173 172
213 3 2 2 2 183 255 221 152
214 3 2 2 2 212 254 199 151
215 3 2 2 2 221 251 182 152
217 3 2 2 2 215 268 271 214
218 3 2 2 2 255 183 184 265
219 3 2 2 2 198 199 254 266
220 3 2 2 2 268 248 256 271
223 3 2 2 2 251 230 181 182
225 3 2 2 2 286 284 287 288
226 3 2 2 2 283 288 287 285
227 3 2 2 2 286 288 282 281
236 3 2 2 2 288 283 272 282
123 2 2 2 2 157 297 217 
135 2 2 2 2 298 160 272 
152 3 2 2 2 234 235 155 301
156 3 2 2 2 236 261 294 155
157 3 2 2 2 295 294 261 245
158 3 2 2 2 295 245 263 296
159 3 2 2 2 237 156 296 263
160 3 2 2 2 298 159 305 226
161 3 2 2 2 222 233 300 162
162 3 2 2 2 234 301 300 233
163 3 2 2 2 241 240 303 163
164 3 2 2 2 303 240 242 164
165 3 2 2 2 243 262 304 164
170 3 2 2 2 223 224 163 302
172 3 2 2 2 165 304 262 244
173 3 2 2 2 223 302 159 158
180 3 2 2 2 226 305 165 259
198 3 2 2 2 248 160 298 226
208 3 2 2 2 250 218 217 297
216 3 2 2 2 216 252 299 160
221 3 2 2 2 156 258 250 297
222 3 2 2 2 252 267 161 299
224 3 2 2 2 285 297 157 283
228 3 2 2 2 301 284 286 300
229 3 2 2 2 300 286 281 162
230 3 2 2 2 299 281 282 160
231 3 2 2 2 287 295 296 285
232 3 2 2 2 297 285 296 156
233 3 2 2 2 294 295 287 284
234 3 2 2 2 294 284 301 155
235 3 2 2 2 298 272 158 159
237 3 2 2 2 162 281 299 161
238 3 2 2 2 304 165 305 293
239 3 2 2 2 302 163 303 293
240 3 2 2 2 305 159 302 293
241 3 2 2 2 293 303 164 304
$EndElements
