$MeshFormat
2.2 0 8
$EndMeshFormat
$Nodes
799
1 0 0 0
2 0 0 500
3 0 0 1600
4 800 0 1600
5 800 0 500
6 800 0 0
7 450 0 500
8 350 0 500
9 350 0 450
10 450 0 450
11 450 0 550
12 350 0 550
13 0 0 50
14 0 0 100
15 0 0 150
16 0 0 200
17 0 0 250
18 0 0 300
19 0 0 350
20 0 0 400
21 0 0 450
22 0 0 550
23 0 0 600
24 0 0 650
25 0 0 700
26 0 0 750
27 0 0 800
28 0 0 850
29 0 0 900
30 0 0 950
31 0 0 1000
32 0 0 1050
33 0 0 1100
34 0 0 1150
35 0 0 1200
36 0 0 1250
37 0 0 1300
38 0 0 1350
39 0 0 1400
40 0 0 1450
41 0 0 1500
42 0 0 1550
43 50 0 1600
44 100 0 1600
45 150 0 1600
46 200 0 1600
47 250 0 1600
48 300 0 1600
49 350 0 1600
50 400 0 1600
51 450 0 1600
52 500 0 1600
53 550 0 1600
54 600 0 1600
55 650 0 1600
56 700 0 1600
57 750 0 1600
58 800 0 1550
59 800 0 1500
60 800 0 1450
61 800 0 1400
62 800 0 1350
63 800 0 1300
64 800 0 1250
65 800 0 1200
66 800 0 1150
67 800 0 1100
68 800 0 1050
69 800 0 1000
70 800 0 950
71 800 0 900
72 800 0 850
73 800 0 800
74 800 0 750
75 800 0 700
76 800 0 650
77 800 0 600
78 800 0 550
79 800 0 450
80 800 0 400
81 800 0 350
82 800 0 300
83 800 0 250
84 800 0 200
85 800 0 150
86 800 0 100
87 800 0 50
88 750 0 0
89 700 0 0
90 650 0 0
91 600 0 0
92 550 0 0
93 500 0 0
94 450 0 0
95 400 0 0
96 350 0 0
97 300 0 0
98 250 0 0
99 200 0 0
100 150 0 0
101 100 0 0
102 50 0 0
103 775 0 500
104 750 0 500
105 725 0 500
106 700 0 500
107 675 0 500
108 650 0 500
109 625 0 500
110 600 0 500
111 575 0 500
112 550 0 500
113 525 0 500
114 500 0 500
115 475 0 500
116 425 0 500
117 400 0 500
118 375 0 500
119 325 0 500
120 300 0 500
121 275 0 500
122 250 0 500
123 225 0 500
124 200 0 500
125 175 0 500
126 150 0 500
127 125 0 500
128 100 0 500
129 75 0 500
130 50 0 500
131 25 0 500
132 375 0 450
133 400 0 450
134 425 0 450
135 450 0 475
136 450 0 525
137 425 0 550
138 400 0 550
139 375 0 550
140 350 0 525
141 350 0 475
142 49.6404407668925 0 999.840878862587
143 750.196113472414 0 1150.00625157655
144 347.800840567055 0 423.230739067094
145 375.797163314467 0 576.874960961032
146 547.450164323075 0 48.8907927892332
147 751.639455801105 0 849.144378965925
148 398.243043205698 0 47.5680029984453
149 400.000968379252 0 1550.00153086961
150 48.6585694773112 0 751.940036638518
151 752.238540277778 0 247.843383274565
152 47.2305380754246 0 298.901830252018
153 49.9908965834909 0 1250.00622762669
154 750.010383616917 0 1299.99989828303
155 200.000258350221 0 1550.00022850926
156 248.315509689077 0 48.2297127462755
157 550.000407144039 0 1550.0013831076
158 48.3781572955173 0 199.845016248009
159 750.001292405848 0 1400.0006724106
160 754.893131258442 0 651.574373297699
161 149.073149102363 0 49.1958565836592
162 49.9998683064789 0 1450.00004803183
163 650.000250485753 0 1550.00032425233
164 424.130293053032 0 423.170384418832
165 46.3060430693144 0 646.168984931323
166 745.1821246933 0 347.796788211208
167 751.230409159522 0 950.205683020443
168 749.883614198043 0 99.5874607465835
169 50.0000112752995 0 1550.00000639331
170 416.796875 0 525
171 750.939637519422 0 550.899959862747
172 50.2551608599358 0 447.558302818555
173 43.0872616150482 0 601.364995937497
174 744.939831441177 0 395.768136837617
175 46.2320391325757 0 402.96441869452
176 754.512580325599 0 700.485783437608
177 753.951556391249 0 749.204173766062
178 48.3573881045009 0 850.308970791321
179 348.181828925184 0 47.5418508566895
180 750.67999791647 0 149.292319838654
181 649.060962311457 0 49.4252054370116
182 497.49641440014 0 48.1117378999863
183 750.8857519226 0 1000.26592047779
184 49.1150213712269 0 149.660428829399
185 323.040363270364 0 448.527264026464
186 477.912255838615 0 472.067289461891
187 476.510554028245 0 551.539547039649
188 322.054007325456 0 527.893942016508
189 49.5527139035592 0 99.7037443829709
190 49.8161470012349 0 49.8404686656216
191 700.000114469517 0 1550.00012617093
192 416.796875 0 475
193 383.203125 0 475
194 383.203125 0 525
195 749.657642421845 0 49.7850967381285
196 49.3041921164663 0 949.806081129013
197 49.8972350284889 0 1100.0143492381
198 49.9770047466941 0 1200.0152074555
199 49.9978924124984 0 1350.00110882233
200 100.000068533677 0 1550.00005515229
201 250.000524283919 0 1550.00054275653
202 300.001019473029 0 1550.0011371114
203 450.000553072967 0 1550.00171529271
204 750.00003156528 0 1550.00003343303
205 750.00049115742 0 1450.00039159303
206 750.08184210347 0 1200.00013637549
207 750.620314077511 0 1050.15817604842
208 477.801427162089 0 527.759238595004
209 322.0212276046 0 472.261658750566
210 756.100688557367 0 521.683268155946
211 44.5055184286044 0 477.845423787824
212 40.5449948767834 0 527.005659701023
213 763.724354172754 0 467.445280355358
214 702.956759083597 0 951.721018093209
215 700.441286742865 0 1150.05912744467
216 98.954104556021 0 1000.21039835025
217 349.839220707568 0 577.399047001333
218 449.901019233859 0 422.382701204591
219 395.022915132981 0 94.0196535725482
220 321.207539479024 0 422.137390350933
221 400.004904913345 0 1500.00868836705
222 712.2719149694 0 656.101730288683
223 99.95969938898 0 1250.03176645143
224 89.1888482465112 0 639.096491287031
225 703.435903427111 0 363.937374256917
226 200.000910193809 0 1500.00182240173
227 96.0516760793789 0 197.750154388975
228 700.006995900569 0 1400.00449146473
229 87.2592073542929 0 405.793175855847
230 398.631342042793 0 423.336005613101
231 750.104652778683 0 600.000190241727
232 52.1321159523052 0 351.784587629764
233 53.7987181225113 0 697.993424451771
234 751.76014375058 0 295.931673095708
235 708.849787020058 0 748.088856907523
236 752.835813619182 0 798.748293194302
237 447.797690368315 0 47.5698766615965
238 48.0143711504898 0 801.181656963211
239 298.145061965117 0 47.7244779389416
240 751.292396958626 0 900.140295203948
241 47.3254326274758 0 249.124173911545
242 751.591505103884 0 198.675305664626
243 598.13664683321 0 49.4117159445152
244 198.535836295747 0 48.6522437363253
245 97.6209499110394 0 148.386326738326
246 48.7882076956417 0 900.03713936796
247 702.111249168305 0 1000.90086397076
248 700.29188415408 0 98.8691911374455
249 98.7047349064959 0 98.9944669854697
250 99.4398264516345 0 49.5281155755385
251 750.403648715704 0 1100.06506826318
252 699.628743342436 0 49.5149657387885
253 49.7669806608207 0 1049.99357481247
254 49.9423988443058 0 1150.02728182107
255 49.9937286177496 0 1300.00434589235
256 49.9990148307887 0 1400.00046766691
257 50.0000134425983 0 1500.00003475066
258 150.000195216222 0 1550.00023663829
259 350.001535998361 0 1550.00199653093
260 500.000396478445 0 1550.00189108729
261 600.000489299892 0 1550.00095559931
262 750.000180274501 0 1500.00016865142
263 750.005504153704 0 1350.00111034167
264 750.032012620865 0 1249.99931496171
265 501.675399433111 0 473.49579973376
266 400 0 475
267 400 0 525
268 298.29540126057 0 526.465665551757
269 650.001817495782 0 1500.00203282744
270 250.001970402738 0 1500.00373850289
271 501.283901533602 0 526.15361043452
272 323.286491269302 0 552.122529913674
273 476.595562250205 0 447.744272417801
274 298.356099247587 0 473.848986452158
275 401.393673851239 0 577.042547193937
276 373.233453907702 0 423.408006036121
277 731.390009195265 0 522.590372139344
278 69.7810439554419 0 476.596942841727
279 773.855438821196 0 521.557295429561
280 26.4336359163939 0 478.144608403606
281 72.917451269614 0 530.069424356986
282 729.5865728805 0 467.752874157457
283 377.924374449908 0 604.423911098479
284 655.426124449851 0 953.784278259854
285 344.997459408474 0 396.431309413641
286 323.305668437984 0 579.009986691924
287 476.434535746495 0 420.712933012642
288 94.7353318827359 0 803.981414941295
289 199.998348472511 0 1450.00813983663
290 502.532754668553 0 552.194597416004
291 422.01449248275 0 395.736039624179
292 142.902444066309 0 194.271594900041
293 295.263938745199 0 94.5276899456635
294 87.5811316464275 0 594.654919368992
295 703.321697777592 0 397.608598500037
296 595.403024514657 0 103.70593033461
297 704.240332167668 0 196.299182861247
298 196.453610977676 0 96.7305645778675
299 701.429263840057 0 1050.42088025795
300 500.003327517077 0 1500.00853826288
301 99.9994861532129 0 1450.00098364424
302 99.8179180944308 0 1150.11793539586
303 99.3611930670662 0 1050.22556185151
304 300.003968622146 0 1500.00648429205
305 94.7851507910722 0 472.869617598073
306 712.450460010435 0 584.210964668649
307 707.221333187903 0 525.721866693218
308 94.4256600578973 0 332.7625639061
309 706.003284017173 0 795.915696862784
310 444.310080907907 0 94.1668927443283
311 72.4176405832516 0 559.991873784907
312 736.48282053309 0 433.56643372143
313 97.0260820188706 0 901.017791729981
314 344.989901306346 0 93.9664596177171
315 93.8267167869271 0 245.799557462903
316 650.724208317307 0 99.0542547703354
317 702.304779172864 0 147.765179883394
318 98.1967104052134 0 714.59513806795
319 98.09666076331 0 950.55128904209
320 145.516620049008 0 146.281423861614
321 707.250624788816 0 289.651388082605
322 702.980791140338 0 903.245063539241
323 147.490520929626 0 97.8581918565333
324 700.882553535768 0 1100.18229607537
325 710.738819405461 0 701.585877287435
326 99.9023958250212 0 1200.07238815092
327 450.004199507801 0 1500.00972643192
328 700.020127507219 0 1350.0076713105
329 700.088696210859 0 1250.01206394118
330 600.003130806151 0 1500.00441054422
331 700.000878206862 0 1500.00089759498
332 99.9783053176535 0 1300.01723406663
333 99.9964397602823 0 1400.00312437712
334 100.000081196961 0 1500.00038260374
335 700.003230864506 0 1450.00265508066
336 700.214742322059 0 1200.03033692879
337 150.000214055557 0 1500.00130538981
338 350.005711424958 0 1500.00915787313
339 526.21728573502 0 526.182780001316
340 272.806758826749 0 526.604962366244
341 527.246701361729 0 473.394721608961
342 272.915010148625 0 473.765432856113
343 296.538761828438 0 447.606427225061
344 296.894673353392 0 553.257833003661
345 503.082730398206 0 446.628573649606
346 426.299735155843 0 576.909079933052
347 101.270953329307 0 530.021089067333
348 699.077409712442 0 467.946077147043
349 89.2634000793068 0 441.575330853198
350 370.463545598192 0 396.84301504593
351 710.577553938571 0 618.894430703865
352 713.084112136139 0 554.84247925459
353 95.5390347867349 0 675.560071586763
354 651.458161556033 0 1100.34130476962
355 144.516807396099 0 903.050157931181
356 149.779143012634 0 1200.17523121604
357 342.008513609248 0 370.929066515612
358 400.012381804162 0 1450.02993027047
359 661.176959025487 0 791.594619384308
360 296.04303714638 0 581.210055472766
361 503.930943906134 0 418.588628002995
362 269.991862146299 0 446.816445960129
363 441.011796478727 0 139.837642919107
364 527.883663599504 0 552.269077777985
365 340.818650275206 0 139.965588906834
366 128.283919472011 0 633.24267118614
367 668.512794817775 0 362.633056523156
368 675.837610982021 0 620.267569179132
369 656.571490712633 0 908.210764431772
370 139.39661672929 0 241.114479844103
371 541.542200516439 0 96.9094594756723
372 650.397925030937 0 1200.10345192282
373 147.849750279098 0 1001.16160889291
374 650.053124254687 0 1350.02800894414
375 682.408994719229 0 554.711529551627
376 122.258549091089 0 440.548015494001
377 476.826102760515 0 577.939821202289
378 92.6053205280033 0 292.324683548452
379 658.748309062926 0 193.127369637912
380 101.770899556447 0 559.007113205809
381 95.5662143860457 0 852.476223472668
382 700.187566331433 0 433.746476173549
383 697.785212498896 0 849.664720626538
384 668.414765082695 0 703.061005343022
385 613.608930461166 0 149.261097874878
386 193.350411643662 0 143.949153228432
387 245.521473927448 0 95.3944625021375
388 492.938196844058 0 94.8842944944493
389 95.3063192889554 0 756.567874614047
390 706.407457200161 0 243.628438960115
391 655.192403836084 0 147.008696428888
392 99.6203301658704 0 1100.1925565343
393 149.94418128699 0 1300.04917607368
394 450.013379569178 0 1450.03057682294
395 300.00483925086 0 1450.02194937825
396 249.999346602655 0 1450.01547050977
397 700.050483339147 0 1300.01213358671
398 550.004023127132 0 1500.00750651576
399 99.987991495118 0 1350.00973353699
400 600.013224754295 0 1450.01420634816
401 650.024158696749 0 1400.01680113399
402 650.009479834831 0 1450.00832224972
403 149.99814661928 0 1450.00443739819
404 653.740301561866 0 1001.72966615206
405 679.484019530269 0 526.872615629428
406 551.204764515729 0 527.004262449345
407 246.9536024006 0 473.318304534901
408 247.261036412176 0 526.776792593322
409 553.108565645825 0 473.112508344056
410 270.21995389504 0 554.267600918994
411 530.046256925217 0 445.863237344713
412 404.672869616682 0 604.284963577938
413 448.508325772965 0 394.520900047323
414 293.834802035446 0 420.526224073016
415 123.275020248194 0 471.205873595743
416 318.13210420998 0 394.502580861398
417 351.205624380529 0 605.280183516504
418 395.839781096409 0 396.292123920434
419 128.437824810913 0 529.505158693814
420 669.660703853301 0 469.958008914612
421 451.089925063305 0 577.055302861079
422 42.8143225915085 0 563.970232646654
423 763.79889624002 0 435.151186463303
424 92.433652387982 0 369.987028282683
425 680.486946747252 0 585.450771986171
426 128.121963245091 0 668.915237632463
427 611.648964042077 0 910.73764800506
428 418.433718129604 0 367.111352161482
429 266.065094775308 0 418.833709343162
430 315.969216741155 0 365.905450523636
431 615.35546707859 0 190.647186544958
432 267.876750063475 0 583.70223081403
433 532.584681982539 0 416.822773103963
434 400.026468668027 0 1400.0768735169
435 132.119432236628 0 330.105295838737
436 550.874040442759 0 551.508889595676
437 651.731819457252 0 582.07364987148
438 488.551920912021 0 140.092561394422
439 165.33163182619 0 630.225764540585
440 658.349169125966 0 435.639591012864
441 241.65038189242 0 141.811589189223
442 129.721585587625 0 560.861936581014
443 650.221027816564 0 1250.06930099429
444 249.98324766958 0 1400.04083327891
445 550.017308937545 0 1450.02261415512
446 149.971367352347 0 1350.0268040856
447 451.461264595338 0 601.742704716341
448 573.708845310413 0 148.003319831427
449 653.266990384579 0 869.231764746383
450 391.436654481064 0 140.212086237142
451 140.07503853505 0 807.934133968909
452 184.645726298126 0 236.563852225124
453 128.626803389627 0 595.805378181492
454 665.484622055521 0 397.376357519819
455 290.715759895244 0 140.353106553727
456 665.506872288177 0 283.943975775649
457 136.038141954604 0 286.467485929336
458 662.227380534 0 239.184704454196
459 189.307250877303 0 190.514759864838
460 665.149545114565 0 747.466709570845
461 671.614715800565 0 660.292833395456
462 142.016555156648 0 855.21371875175
463 148.644856656063 0 1050.78096101585
464 149.560746258401 0 1150.31580851362
465 123.336444154726 0 406.827143399933
466 146.403597670207 0 951.932131573703
467 652.486698538842 0 1050.79697214037
468 142.64987213005 0 709.989937201846
469 650.120648119145 0 1300.04848193509
470 650.815806674191 0 1150.19509742384
471 608.365213992734 0 955.278844233582
472 149.8788846151 0 1250.10153948388
473 600.043143858728 0 1400.03522472872
474 500.017015087441 0 1450.02909593727
475 350.009770394309 0 1450.03053590252
476 149.989023277562 0 1400.0127554757
477 652.892368598821 0 526.857585674074
478 576.470364492205 0 527.79568803736
479 243.104035943562 0 554.809318404137
480 222.276565682456 0 526.188344000609
481 557.444772443041 0 445.485886148831
482 578.231202046812 0 473.111948702582
483 221.101011890197 0 473.442925283936
484 150.932296200479 0 471.66800507356
485 324.108355162186 0 607.798111545101
486 503.524417253752 0 578.931630229181
487 475.511232252971 0 392.337226360226
488 290.26728189321 0 392.272794772119
489 243.042456209984 0 445.95622052436
490 381.778583676929 0 633.24770867754
491 366.735481045111 0 371.623927437783
492 154.84714646916 0 527.976056627329
493 643.391161570695 0 472.906628084716
494 428.083122872128 0 601.541366652609
495 654.402210963593 0 830.49503778691
496 667.742857589042 0 324.972639308475
497 602.190687403932 0 1100.62064479846
498 187.92473917583 0 857.730782945803
499 196.471871556475 0 1002.29202425283
500 566.100918259665 0 910.254731964505
501 350.229948152083 0 342.314562527778
502 441.605505989952 0 184.265593913861
503 623.025105462415 0 747.098265217444
504 334.703821015187 0 185.592706583143
505 199.221927443889 0 1150.59174871083
506 600.374858656468 0 1250.16063333437
507 262.121900725168 0 390.299854301929
508 562.1112356509 0 416.484995511185
509 179.510219271845 0 282.223675711989
510 218.635279326885 0 551.733191906217
511 573.139144805509 0 188.403898644994
512 229.966934119927 0 232.930739308563
513 634.47948869081 0 617.932616517881
514 637.034138846512 0 452.678330214392
515 577.527908653196 0 560.15687140278
516 216.020194683495 0 445.903758539523
517 629.667539415024 0 323.193779538081
518 600.103334107742 0 1350.06652903442
519 299.992634527795 0 1400.06022177387
520 199.786358898017 0 1250.19731213245
521 160.214619023034 0 558.057042051202
522 599.951473489857 0 475.535433547037
523 627.256962252124 0 526.633023406464
524 174.832555459542 0 475.143433102951
525 140.080271370233 0 760.898510866467
526 618.631736372414 0 788.233935288067
527 623.232082932003 0 281.141899721463
528 631.740171753868 0 663.030715695982
529 618.459651513236 0 236.069989832278
530 200.099338049559 0 523.362118311536
531 164.128616386183 0 592.287642681012
532 284.896110150796 0 185.979130532635
533 191.522916511228 0 905.195598387764
534 127.414783594821 0 370.13602669745
535 149.166235300183 0 1100.53042131717
536 162.824240927766 0 667.820908829627
537 605.689054947086 0 1002.54990187182
538 236.449464949874 0 187.850659584828
539 601.251119416702 0 1150.38318008543
540 500.051883768269 0 1400.06796585733
541 350.010283794826 0 1400.07542356589
542 199.95004519685 0 1350.05619182298
543 450.041896284752 0 1400.07781152104
544 550.058126082384 0 1400.05645589458
545 199.98118932173 0 1400.02784424648
546 152.971671344127 0 442.0470581141
547 296.153648282465 0 611.408007868006
548 503.460260671347 0 389.067620792176
549 475.44270914983 0 604.838892990773
550 237.968159681761 0 417.548355821719
551 653.540090126254 0 554.161652216752
552 446.380354235753 0 365.489558035102
553 529.953929977729 0 578.692814755791
554 353.93287199954 0 634.584985228935
555 601.929191342633 0 527.24568259336
556 390.706195293316 0 368.341918310941
557 630.425248646414 0 393.482630247731
558 410.529207927656 0 633.112786384191
559 584.274397468083 0 445.941254373473
560 286.634893991396 0 363.029891935996
561 198.133109404309 0 475.953831518461
562 238.154861602683 0 585.825393342263
563 534.353039779658 0 142.417228086309
564 177.495053175404 0 523.887787047238
565 621.794927864303 0 476.142879352594
566 703.551570730633 0 327.344396279942
567 613.376815553395 0 868.928242306793
568 552.964344758245 0 1101.03327999962
569 233.615232416433 0 859.771414912858
570 582.599070296236 0 747.104646676902
571 414.191234410287 0 336.152451637586
572 329.252227629305 0 229.353832245041
573 233.57352031972 0 388.179295081873
574 450.120638338465 0 1350.18078756243
575 225.894998719987 0 280.641165665249
576 595.960001928178 0 326.15224787055
577 593.725482878446 0 628.566408564842
578 198.60839120262 0 1100.99107802267
579 350.032541129087 0 1350.18404627344
580 249.944656009593 0 1350.09709999914
581 163.063914905152 0 374.523191333747
582 487.090735524412 0 183.79987101926
583 569.903064315845 0 866.932779663539
584 389.098164583813 0 190.949132814591
585 200.996159154423 0 626.050076640951
586 185.112485172879 0 720.259970595721
587 202.294178747466 0 583.967645381265
588 442.675339457728 0 629.210648948071
589 176.466281324989 0 331.25949702194
590 573.508166557144 0 285.929631713727
591 591.679704735697 0 418.123713714574
592 618.763864519534 0 579.970906793533
593 185.285315419278 0 448.43733111562
594 184.848868397006 0 810.790031668001
595 156.662272092437 0 410.120700452028
596 194.351513569648 0 953.492063388638
597 197.718625568038 0 1051.55437053483
598 603.741488940763 0 1051.29355981308
599 627.846109097036 0 705.119723996475
600 604.351853216428 0 553.238237520133
601 573.978879644901 0 233.34368985512
602 600.703528781445 0 1200.25010082546
603 561.283391598034 0 955.851336953458
604 199.565643511662 0 1200.36095064771
605 600.214152242298 0 1300.11084671367
606 500.147688761776 0 1350.1547926558
607 199.888482830858 0 1300.11515538398
608 550.143580946379 0 1350.11404947191
609 315.498440683011 0 336.048136758376
610 266.633668183215 0 615.384972599816
611 628.739935813592 0 551.378147973874
612 533.432316580521 0 385.61680921743
613 615.064135676983 0 828.369396921466
614 326.208018337319 0 638.082434822442
615 474.388396647218 0 363.358093908444
616 189.378080428441 0 548.688514909687
617 530.943332354312 0 185.875297240321
618 502.78526188415 0 606.443932804384
619 609.299309009514 0 445.451688697179
620 212.395566538056 0 419.175262628956
621 386.571580041041 0 663.448788550104
622 553.755357749029 0 576.370799355316
623 632.694441086177 0 359.967757680685
624 260.218379388231 0 363.489720156762
625 277.256302609718 0 231.961852230428
626 525.435442433609 0 863.993752275962
627 245.259819433239 0 1003.52472100403
628 369.395559712103 0 232.552776739885
629 444.915280180753 0 226.190775189066
630 248.88504671517 0 1151.06969947081
631 588.49149319533 0 707.486887984052
632 345.91731542886 0 308.292102173081
633 545.890631674919 0 318.810540033426
634 229.236756915004 0 813.167929040292
635 554.993179165386 0 1051.82827697984
636 450.315256968987 0 1300.44603710351
637 550.968226533167 0 1200.46993947171
638 550.295547119708 0 1300.19649891938
639 261.199195189658 0 269.214073826706
640 597.483932402457 0 388.371817619393
641 577.275275708085 0 786.094485301399
642 233.477779044768 0 360.445656119221
643 200.670067341715 0 672.08343310841
644 592.927384817229 0 667.444875605121
645 383.680886810463 0 337.931030247543
646 184.056225930139 0 763.718632024024
647 216.210555610052 0 320.869790758571
648 473.150032530062 0 631.105138552731
649 238.362508430493 0 906.988156466109
650 530.058760683739 0 229.131458403914
651 557.738589554038 0 1003.33752611955
652 247.011949863013 0 1052.52707968817
653 200.005980513854 0 386.910897691226
654 551.742358729757 0 1150.71507857684
655 249.743325695434 0 1250.36367066995
656 518.838231595628 0 908.430065131798
657 400.094605055383 0 1350.21210770743
658 249.882417038433 0 1300.20764094207
659 299.980490582778 0 1350.15293840012
660 565.199458604673 0 385.122834924359
661 588.047253899942 0 593.678199813124
662 234.845024606231 0 620.341027301255
663 298.025035920579 0 643.332517243431
664 500.586820690726 0 362.167198806292
665 284.691768792331 0 332.751268234627
666 444.967513774167 0 334.384987711206
667 416.50486841706 0 664.151032178979
668 357.724220769108 0 665.036624080402
669 530.531427303508 0 606.42581255906
670 185.320691792613 0 417.080909811575
671 291.037150436256 0 270.813729054156
672 208.245076089457 0 353.605246292337
673 573.111657762476 0 825.821836992596
674 622.087325796908 0 422.583951382305
675 509.395066566431 0 1003.78456662329
676 486.509934472488 0 858.662192682716
677 503.492328190203 0 1101.75181739474
678 272.958159897252 0 815.782868499203
679 294.873942114715 0 1004.4674131949
680 410.706742733326 0 302.256945151813
681 228.715604566735 0 715.611245372326
682 550.471116721884 0 709.025641112387
683 227.19594780729 0 766.790851159372
684 529.928940042009 0 351.799917073124
685 329.023088894758 0 273.588743621219
686 486.949242296794 0 225.96142952927
687 500.324225361641 0 633.212570779618
688 536.742497396528 0 784.694484532437
689 315.851818784868 0 307.225854481857
690 525.037222465947 0 270.710062045519
691 278.98282959395 0 861.594048478508
692 513.424773514944 0 955.593847966039
693 501.993961791361 0 1151.34811844629
694 400.247670120344 0 1300.53074977028
695 500.341749172033 0 1300.32828637569
696 249.436130330543 0 1200.67048378808
697 550.564359406127 0 1250.32918021121
698 248.100325019492 0 1101.7477783046
699 299.965662047538 0 1300.34004153158
700 242.285254152125 0 954.971804494951
701 558.417429772655 0 602.419627344885
702 268.199765242204 0 648.765586279553
703 376.722072967947 0 304.39904440363
704 233.190851413744 0 651.66830533802
705 531.295370506511 0 823.471802395894
706 407.469046392678 0 231.524673136414
707 475.693084980662 0 333.423463322902
708 329.480981444048 0 669.060828527411
709 568.072913271182 0 349.096510936459
710 257.350933871688 0 298.731697468155
711 390.593141644491 0 693.142403311422
712 447.998448290269 0 664.529087025979
713 250.290333694382 0 331.948695800387
714 601.447957684946 0 359.057162329495
715 559.186283522058 0 635.012491820328
716 298.218737709887 0 1102.59607054147
717 316.166948668887 0 816.776048639681
718 464.919467804894 0 954.268230560883
719 452.973354269004 0 1102.57204946014
720 490.821427607049 0 821.438663369464
721 268.790439250748 0 771.289648626806
722 290.51024786275 0 955.947425301964
723 500.665243310305 0 1250.60760756051
724 445.957478405729 0 264.968724016149
725 556.100202862325 0 670.935230787255
726 408.555997500875 0 266.551830943065
727 503.743878663166 0 335.150757904604
728 484.449183848011 0 265.559781660742
729 371.427937508085 0 268.619880623263
730 445.252153605535 0 300.784136662547
731 467.151952224299 0 901.533239977884
732 284.88943414753 0 908.333661975349
733 273.744381331517 0 687.725646337604
734 400.446248295368 0 1251.13178951467
735 501.167719494259 0 1200.99413346031
736 350.109573310409 0 1300.49084363908
737 299.551761649372 0 1201.16639838165
738 299.875480880635 0 1250.70286041734
739 297.227522127001 0 1053.43173795361
740 505.989876507525 0 1052.5453184486
741 527.262885163078 0 636.628513484911
742 303.126539855504 0 672.540159752699
743 361.738866058545 0 694.468720777003
744 420.113549496987 0 697.282600321798
745 245.131277793695 0 684.475465702759
746 287.390298628555 0 302.138361962939
747 543.709218795752 0 746.772355487443
748 484.58876029583 0 662.827386098931
749 514.527322741959 0 307.057346348041
750 417.626594225876 0 907.293300032167
751 379.080891354626 0 728.187621945451
752 345.692492890317 0 1003.36650374931
753 455.334232277298 0 1052.58290831684
754 308.788315807711 0 773.867314704294
755 330.518492337366 0 908.69282088222
756 305.356291824293 0 702.956328177417
757 513.938828521174 0 706.269412218515
758 497.200993076834 0 782.401967393992
759 269.233499524654 0 729.185757977281
760 521.361044665367 0 669.7314742407
761 449.140827237995 0 858.229334415239
762 323.717494110941 0 862.308399451189
763 349.972288419711 0 1201.74977135726
764 451.027561112919 0 1201.60267749048
765 459.623724449358 0 1002.68176769563
766 451.639981961339 0 1152.17855238545
767 298.986983842172 0 1151.85628006876
768 348.957711732339 0 1053.09216349185
769 350.124102669396 0 1251.02000042447
770 450.616228929231 0 1250.96166986108
771 479.930283285244 0 301.483924333766
772 450.401316707842 0 696.183647954894
773 334.353392772557 0 700.574296297644
774 451.805372608207 0 819.76680943965
775 349.636654368263 0 1152.53432641951
776 364.053347178335 0 811.218806933046
777 421.833466502755 0 949.204918429097
778 412.001474825678 0 861.875009777276
779 402.538144046344 0 995.78485041968
780 402.070576522062 0 1052.07956617095
781 401.185191229524 0 1102.90009782433
782 400.741808175851 0 1152.55398047192
783 349.44904736744 0 1102.83534811198
784 400.556810196418 0 1201.82404872223
785 337.942297193816 0 954.854358085124
786 339.790191983815 0 734.537349090336
787 420.288253236629 0 734.021703874348
788 305.168994862766 0 734.657704930876
789 368.595398341324 0 862.0182282157
790 505.326853603373 0 743.335055263627
791 481.974055450227 0 698.525349211932
792 380.139457901899 0 768.895700346774
793 457.218109086199 0 778.619093366194
794 463.008994513578 0 733.42741226611
795 411.780603202738 0 817.250885281207
796 374.36044413738 0 907.582584994076
797 344.116794394987 0 769.222661923715
798 379.261428218464 0 949.147511321055
799 416.561220933885 0 774.318866339732
$EndNodes
$Elements
778
1 2 2 1 1 589 672 647 
2 2 2 1 1 306 351 231 
3 2 2 1 1 792 797 776 
4 2 2 1 1 210 277 171 
5 2 2 1 1 685 689 632 
6 2 2 1 1 211 278 172 
7 2 2 1 1 294 380 311 
8 2 2 1 1 684 709 633 
9 2 2 1 1 561 593 524 
10 2 2 1 1 592 611 600 
11 2 2 1 1 575 710 639 
12 2 2 1 1 628 706 584 
13 2 2 1 1 639 671 625 
14 2 2 1 1 232 424 308 
15 2 2 1 1 494 588 447 
16 2 2 1 1 318 353 233 
17 2 2 1 1 709 714 576 
18 2 2 1 1 468 536 426 
19 2 2 1 1 586 681 643 
20 2 2 1 1 437 592 513 
21 2 2 1 1 777 798 779 
22 2 2 1 1 383 495 449 
23 2 2 1 1 296 448 385 
24 2 2 1 1 676 761 731 
25 2 2 1 1 564 616 530 
26 2 2 1 1 7 115 135 
27 2 2 1 1 136 115 7 
28 2 2 1 1 135 116 7 
29 2 2 1 1 7 116 136 
30 2 2 1 1 140 118 8 
31 2 2 1 1 8 118 141 
32 2 2 1 1 8 119 140 
33 2 2 1 1 141 119 8 
34 2 2 1 1 132 9 141 
35 2 2 1 1 135 10 134 
36 2 2 1 1 137 11 136 
37 2 2 1 1 140 12 139 
38 2 2 1 1 115 186 135 
39 2 2 1 1 119 188 140 
40 2 2 1 1 648 748 687 
41 2 2 1 1 565 619 522 
42 2 2 1 1 491 501 357 
43 2 2 1 1 772 794 791 
44 2 2 1 1 136 208 115 
45 2 2 1 1 510 616 587 
46 2 2 1 1 141 209 119 
47 2 2 1 1 436 622 515 
48 2 2 1 1 684 727 664 
49 2 2 1 1 743 751 711 
50 2 2 1 1 653 670 620 
51 2 2 1 1 22 422 212 
52 2 2 1 1 624 713 642 
53 2 2 1 1 733 756 742 
54 2 2 1 1 166 566 225 
55 2 2 1 1 103 213 104 
56 2 2 1 1 131 212 130 
57 3 2 1 1 200 334 257 169
58 3 2 1 1 162 256 39 40
59 3 2 1 1 202 304 270 201
60 3 2 1 1 56 191 163 55
61 3 2 1 1 199 255 37 38
62 3 2 1 1 37 255 153 36
63 3 2 1 1 118 194 267 117
64 3 2 1 1 201 270 226 155
65 3 2 1 1 153 198 35 36
66 3 2 1 1 58 204 57 4
67 3 2 1 1 198 254 34 35
68 3 2 1 1 34 254 197 33
69 3 2 1 1 39 256 199 38
70 3 2 1 1 333 399 199 256
71 3 2 1 1 197 253 32 33
72 3 2 1 1 32 253 142 31
73 3 2 1 1 199 399 332 255
74 3 2 1 1 57 204 191 56
75 3 2 1 1 255 332 223 153
76 3 2 1 1 30 31 142 196
77 3 2 1 1 198 153 223 326
78 3 2 1 1 59 262 204 58
79 3 2 1 1 133 266 192 134
80 3 2 1 1 205 262 59 60
81 3 2 1 1 155 258 45 46
82 3 2 1 1 203 149 50 51
83 3 2 1 1 337 403 301 334
84 3 2 1 1 149 259 49 50
85 3 2 1 1 259 202 48 49
86 3 2 1 1 157 260 52 53
87 3 2 1 1 48 202 201 47
88 3 2 1 1 221 338 259 149
89 3 2 1 1 47 201 155 46
90 3 2 1 1 52 260 203 51
91 3 2 1 1 206 336 329 264
92 3 2 1 1 45 258 200 44
93 3 2 1 1 117 266 193 118
94 3 2 1 1 120 268 188 119
95 3 2 1 1 44 200 169 43
96 3 2 1 1 54 261 157 53
97 3 2 1 1 42 169 257 41
98 3 2 1 1 205 335 331 262
99 3 2 1 1 43 169 42 3
100 3 2 1 1 228 335 205 159
101 3 2 1 1 41 257 162 40
102 3 2 1 1 163 261 54 55
103 3 2 1 1 338 304 202 259
104 3 2 1 1 258 337 334 200
105 3 2 1 1 69 70 167 183
106 3 2 1 1 333 301 403 476
107 3 2 1 1 207 68 69 183
108 3 2 1 1 185 209 141 9
109 3 2 1 1 289 403 337 226
110 3 2 1 1 301 333 256 162
111 3 2 1 1 13 14 189 190
112 3 2 1 1 102 1 13 190
113 3 2 1 1 257 334 301 162
114 3 2 1 1 335 228 401 402
115 3 2 1 1 260 300 327 203
116 3 2 1 1 269 330 261 163
117 3 2 1 1 269 331 335 402
118 3 2 1 1 400 330 269 402
119 3 2 1 1 327 221 149 203
120 3 2 1 1 289 226 270 396
121 3 2 1 1 270 304 395 396
122 3 2 1 1 88 195 87 6
123 3 2 1 1 87 195 168 86
124 3 2 1 1 262 331 191 204
125 3 2 1 1 193 266 133 132
126 3 2 1 1 159 205 60 61
127 3 2 1 1 192 266 117 116
128 3 2 1 1 358 221 327 394
129 3 2 1 1 117 267 170 116
130 3 2 1 1 154 263 62 63
131 3 2 1 1 187 208 136 11
132 3 2 1 1 62 263 159 61
133 3 2 1 1 191 331 269 163
134 3 2 1 1 114 265 186 115
135 3 2 1 1 170 267 138 137
136 3 2 1 1 226 337 258 155
137 3 2 1 1 263 328 228 159
138 3 2 1 1 64 264 154 63
139 3 2 1 1 206 264 64 65
140 3 2 1 1 228 328 374 401
141 3 2 1 1 267 194 139 138
142 3 2 1 1 143 206 65 66
143 3 2 1 1 14 15 184 189
144 3 2 1 1 15 16 158 184
145 3 2 1 1 175 20 21 172
146 3 2 1 1 157 398 300 260
147 3 2 1 1 330 398 157 261
148 3 2 1 1 329 397 154 264
149 3 2 1 1 154 397 328 263
150 3 2 1 1 399 333 476 446
151 3 2 1 1 445 398 330 400
152 3 2 1 1 395 519 444 396
153 3 2 1 1 300 398 445 474
154 3 2 1 1 395 304 338 475
155 3 2 1 1 332 399 446 393
156 3 2 1 1 472 223 332 393
157 3 2 1 1 476 403 289 545
158 3 2 1 1 396 444 545 289
159 3 2 1 1 392 197 254 302
160 3 2 1 1 327 300 474 394
161 3 2 1 1 302 254 198 326
162 3 2 1 1 326 223 472 356
163 3 2 1 1 394 543 434 358
164 3 2 1 1 473 400 402 401
165 3 2 1 1 543 394 474 540
166 3 2 1 1 475 338 221 358
167 3 2 1 1 328 397 469 374
168 3 2 1 1 445 544 540 474
169 3 2 1 1 395 475 541 519
170 3 2 1 1 657 434 543 574
171 3 2 1 1 400 473 544 445
172 3 2 1 1 541 434 657 579
173 3 2 1 1 518 473 401 374
174 3 2 1 1 606 540 544 608
175 3 2 1 1 358 434 541 475
176 3 2 1 1 574 543 540 606
177 3 2 1 1 542 446 476 545
178 3 2 1 1 215 336 206 143
179 3 2 1 1 608 544 473 518
180 3 2 1 1 545 444 580 542
181 3 2 1 1 469 397 329 443
182 3 2 1 1 444 519 659 580
183 3 2 1 1 579 659 519 541
184 3 2 1 1 607 393 446 542
185 3 2 1 1 607 658 655 520
186 3 2 1 1 520 472 393 607
187 3 2 1 1 636 574 606 695
188 3 2 1 1 542 580 658 607
189 3 2 1 1 374 469 605 518
190 3 2 1 1 472 520 604 356
191 3 2 1 1 694 736 579 657
192 3 2 1 1 443 329 336 372
193 3 2 1 1 336 215 470 372
194 3 2 1 1 608 638 695 606
195 3 2 1 1 694 657 574 636
196 3 2 1 1 535 392 302 464
197 3 2 1 1 506 605 469 443
198 3 2 1 1 659 579 736 699
199 3 2 1 1 699 658 580 659
200 3 2 1 1 178 28 29 246
201 3 2 1 1 101 102 190 250
202 3 2 1 1 637 697 506 602
203 3 2 1 1 658 699 738 655
204 3 2 1 1 638 608 518 605
205 3 2 1 1 443 372 602 506
206 3 2 1 1 253 197 392 303
207 3 2 1 1 303 216 142 253
208 3 2 1 1 151 83 84 242
209 3 2 1 1 605 506 697 638
210 3 2 1 1 326 356 464 302
211 3 2 1 1 723 695 638 697
212 3 2 1 1 143 66 67 251
213 3 2 1 1 85 86 168 180
214 3 2 1 1 539 602 372 470
215 3 2 1 1 242 84 85 180
216 3 2 1 1 471 537 404 284
217 3 2 1 1 520 655 696 604
218 3 2 1 1 770 636 695 723
219 3 2 1 1 636 770 734 694
220 3 2 1 1 356 604 505 464
221 3 2 1 1 156 98 99 244
222 3 2 1 1 763 737 738 769
223 3 2 1 1 114 115 208 271
224 3 2 1 1 775 767 737 763
225 3 2 1 1 738 699 736 769
226 3 2 1 1 246 29 30 196
227 3 2 1 1 404 467 299 247
228 3 2 1 1 737 696 655 738
229 3 2 1 1 100 101 250 161
230 3 2 1 1 244 99 100 161
231 3 2 1 1 696 737 767 630
232 3 2 1 1 693 735 637 654
233 3 2 1 1 602 539 654 637
234 3 2 1 1 697 637 735 723
235 3 2 1 1 245 249 189 184
236 3 2 1 1 537 598 467 404
237 3 2 1 1 694 734 769 736
238 3 2 1 1 120 119 209 274
239 3 2 1 1 604 696 630 505
240 3 2 1 1 603 651 537 471
241 3 2 1 1 723 735 764 770
242 3 2 1 1 251 207 299 324
243 3 2 1 1 354 470 215 324
244 3 2 1 1 251 67 68 207
245 3 2 1 1 168 248 317 180
246 3 2 1 1 654 568 677 693
247 3 2 1 1 150 26 27 238
248 3 2 1 1 470 354 497 539
249 3 2 1 1 735 693 766 764
250 3 2 1 1 464 505 578 535
251 3 2 1 1 568 654 539 497
252 3 2 1 1 698 578 505 630
253 3 2 1 1 190 189 249 250
254 3 2 1 1 463 303 392 535
255 3 2 1 1 247 299 207 183
256 3 2 1 1 166 81 82 234
257 3 2 1 1 324 215 143 251
258 3 2 1 1 227 245 184 158
259 3 2 1 1 188 272 12 140
260 3 2 1 1 719 766 693 677
261 3 2 1 1 95 96 179 148
262 3 2 1 1 271 339 113 114
263 3 2 1 1 716 698 630 767
264 3 2 1 1 179 96 97 239
265 3 2 1 1 467 354 324 299
266 3 2 1 1 284 404 247 214
267 3 2 1 1 323 161 250 249
268 3 2 1 1 463 597 499 373
269 3 2 1 1 597 463 535 578
270 3 2 1 1 165 24 25 233
271 3 2 1 1 179 239 293 314
272 3 2 1 1 239 97 98 156
273 3 2 1 1 186 273 10 135
274 3 2 1 1 739 652 698 716
275 3 2 1 1 238 27 28 178
276 3 2 1 1 373 216 303 463
277 3 2 1 1 214 247 183 167
278 3 2 1 1 274 342 121 120
279 3 2 1 1 578 698 652 597
280 3 2 1 1 652 739 679 627
281 3 2 1 1 23 24 165 173
282 3 2 1 1 339 406 112 113
283 3 2 1 1 354 467 598 497
284 3 2 1 1 234 82 83 151
285 3 2 1 1 242 180 317 297
286 3 2 1 1 291 164 218 413
287 3 2 1 1 187 290 271 208
288 3 2 1 1 138 139 145 275
289 3 2 1 1 144 9 132 276
290 3 2 1 1 268 120 121 340
291 3 2 1 1 265 114 113 341
292 3 2 1 1 10 218 164 134
293 3 2 1 1 297 390 151 242
294 3 2 1 1 384 460 235 325
295 3 2 1 1 237 94 95 148
296 3 2 1 1 627 499 597 652
297 3 2 1 1 700 596 499 627
298 3 2 1 1 290 364 339 271
299 3 2 1 1 292 320 245 227
300 3 2 1 1 80 81 166 174
301 3 2 1 1 12 217 145 139
302 3 2 1 1 179 314 219 148
303 3 2 1 1 233 25 26 150
304 3 2 1 1 274 209 185 343
305 3 2 1 1 487 287 361 548
306 3 2 1 1 238 178 381 288
307 3 2 1 1 244 298 387 156
308 3 2 1 1 485 286 360 547
309 3 2 1 1 342 407 122 121
310 3 2 1 1 283 145 217 417
311 3 2 1 1 373 499 596 466
312 3 2 1 1 246 196 319 313
313 3 2 1 1 122 408 340 121
314 3 2 1 1 313 381 178 246
315 3 2 1 1 112 409 341 113
316 3 2 1 1 598 537 651 635
317 3 2 1 1 293 239 156 387
318 3 2 1 1 133 230 276 132
319 3 2 1 1 568 635 740 677
320 3 2 1 1 707 615 664 727
321 3 2 1 1 196 142 216 319
322 3 2 1 1 133 134 164 230
323 3 2 1 1 325 222 461 384
324 3 2 1 1 547 360 432 610
325 3 2 1 1 182 93 94 237
326 3 2 1 1 146 92 93 182
327 3 2 1 1 181 90 91 243
328 3 2 1 1 310 237 148 219
329 3 2 1 1 243 91 92 146
330 3 2 1 1 218 10 273 287
331 3 2 1 1 413 218 287 487
332 3 2 1 1 740 675 765 753
333 3 2 1 1 151 390 321 234
334 3 2 1 1 763 784 782 775
335 3 2 1 1 769 734 784 763
336 3 2 1 1 185 9 144 220
337 3 2 1 1 548 361 433 612
338 3 2 1 1 635 568 497 598
339 3 2 1 1 421 377 187 11
340 3 2 1 1 483 561 124 123
341 3 2 1 1 298 244 161 323
342 3 2 1 1 111 482 409 112
343 3 2 1 1 217 12 272 286
344 3 2 1 1 123 480 408 122
345 3 2 1 1 320 323 249 245
346 3 2 1 1 614 485 547 663
347 3 2 1 1 677 740 753 719
348 3 2 1 1 569 498 533 649
349 3 2 1 1 342 274 343 362
350 3 2 1 1 75 76 160 176
351 3 2 1 1 450 584 502 363
352 3 2 1 1 407 483 123 122
353 3 2 1 1 273 186 265 345
354 3 2 1 1 766 719 781 782
355 3 2 1 1 675 740 635 651
356 3 2 1 1 782 784 764 766
357 3 2 1 1 718 765 675 692
358 3 2 1 1 350 285 144 276
359 3 2 1 1 272 188 268 344
360 3 2 1 1 214 322 369 284
361 3 2 1 1 498 462 355 533
362 3 2 1 1 323 320 386 298
363 3 2 1 1 779 780 753 765
364 3 2 1 1 562 662 610 432
365 3 2 1 1 752 679 739 768
366 3 2 1 1 770 764 784 734
367 3 2 1 1 615 487 548 664
368 3 2 1 1 533 355 466 596
369 3 2 1 1 418 350 276 230
370 3 2 1 1 376 465 229 349
371 3 2 1 1 722 700 627 679
372 3 2 1 1 147 72 73 236
373 3 2 1 1 466 319 216 373
374 3 2 1 1 596 700 649 533
375 3 2 1 1 716 783 768 739
376 3 2 1 1 220 414 343 185
377 3 2 1 1 364 436 406 339
378 3 2 1 1 785 798 796 755
379 3 2 1 1 651 603 692 675
380 3 2 1 1 366 426 536 439
381 3 2 1 1 409 481 411 341
382 3 2 1 1 491 357 285 350
383 3 2 1 1 692 656 731 718
384 3 2 1 1 477 405 107 108
385 3 2 1 1 408 479 410 340
386 3 2 1 1 341 411 345 265
387 3 2 1 1 346 421 11 137
388 3 2 1 1 556 491 350 418
389 3 2 1 1 345 361 287 273
390 3 2 1 1 340 410 344 268
391 3 2 1 1 74 75 176 177
392 3 2 1 1 732 649 700 722
393 3 2 1 1 649 732 691 569
394 3 2 1 1 298 386 441 387
395 3 2 1 1 684 612 660 709
396 3 2 1 1 248 316 391 317
397 3 2 1 1 319 466 355 313
398 3 2 1 1 531 439 585 587
399 3 2 1 1 181 243 296 316
400 3 2 1 1 310 388 182 237
401 3 2 1 1 500 603 471 427
402 3 2 1 1 478 555 110 111
403 3 2 1 1 126 484 415 127
404 3 2 1 1 275 145 283 412
405 3 2 1 1 220 144 285 416
406 3 2 1 1 407 342 362 489
407 3 2 1 1 344 360 286 272
408 3 2 1 1 762 691 732 755
409 3 2 1 1 455 293 387 441
410 3 2 1 1 417 217 286 485
411 3 2 1 1 486 553 364 290
412 3 2 1 1 195 88 89 252
413 3 2 1 1 722 785 755 732
414 3 2 1 1 780 779 752 768
415 3 2 1 1 252 89 90 181
416 3 2 1 1 288 389 150 238
417 3 2 1 1 386 459 538 441
418 3 2 1 1 405 307 106 107
419 3 2 1 1 599 503 460 384
420 3 2 1 1 459 386 320 292
421 3 2 1 1 656 692 603 500
422 3 2 1 1 229 465 534 424
423 3 2 1 1 252 181 316 248
424 3 2 1 1 160 76 77 231
425 3 2 1 1 480 510 479 408
426 3 2 1 1 291 418 230 164
427 3 2 1 1 248 168 195 252
428 3 2 1 1 702 610 662 704
429 3 2 1 1 290 187 377 486
430 3 2 1 1 414 429 362 343
431 3 2 1 1 227 315 370 292
432 3 2 1 1 428 556 418 291
433 3 2 1 1 347 419 127 128
434 3 2 1 1 348 420 107 106
435 3 2 1 1 411 433 361 345
436 3 2 1 1 501 609 430 357
437 3 2 1 1 489 516 483 407
438 3 2 1 1 482 559 481 409
439 3 2 1 1 549 648 687 618
440 3 2 1 1 410 432 360 344
441 3 2 1 1 294 224 366 453
442 3 2 1 1 385 391 316 296
443 3 2 1 1 553 622 436 364
444 3 2 1 1 415 305 128 127
445 3 2 1 1 176 325 235 177
446 3 2 1 1 414 220 416 488
447 3 2 1 1 768 783 781 780
448 3 2 1 1 775 782 781 783
449 3 2 1 1 783 716 767 775
450 3 2 1 1 708 614 663 742
451 3 2 1 1 555 523 109 110
452 3 2 1 1 441 538 532 455
453 3 2 1 1 509 452 370 457
454 3 2 1 1 502 582 438 363
455 3 2 1 1 650 601 511 617
456 3 2 1 1 556 428 571 645
457 3 2 1 1 719 753 780 781
458 3 2 1 1 146 371 296 243
459 3 2 1 1 601 650 690 590
460 3 2 1 1 109 523 477 108
461 3 2 1 1 703 632 501 645
462 3 2 1 1 440 420 348 382
463 3 2 1 1 284 369 427 471
464 3 2 1 1 421 447 549 377
465 3 2 1 1 125 524 484 126
466 3 2 1 1 558 490 621 667
467 3 2 1 1 167 70 71 240
468 3 2 1 1 317 391 379 297
469 3 2 1 1 313 355 462 381
470 3 2 1 1 412 283 490 558
471 3 2 1 1 172 349 229 175
472 3 2 1 1 152 18 19 232
473 3 2 1 1 438 582 617 563
474 3 2 1 1 528 599 384 461
475 3 2 1 1 240 71 72 147
476 3 2 1 1 489 362 429 550
477 3 2 1 1 492 564 125 126
478 3 2 1 1 231 77 78 171
479 3 2 1 1 458 529 527 456
480 3 2 1 1 504 365 455 532
481 3 2 1 1 295 225 367 454
482 3 2 1 1 504 584 450 365
483 3 2 1 1 493 565 109 108
484 3 2 1 1 297 379 458 390
485 3 2 1 1 552 413 487 615
486 3 2 1 1 529 458 379 431
487 3 2 1 1 663 547 610 702
488 3 2 1 1 450 219 314 365
489 3 2 1 1 435 534 581 589
490 3 2 1 1 419 492 126 127
491 3 2 1 1 744 711 751 787
492 3 2 1 1 774 761 676 720
493 3 2 1 1 503 599 631 570
494 3 2 1 1 599 528 644 631
495 3 2 1 1 640 591 674 557
496 3 2 1 1 521 616 564 492
497 3 2 1 1 617 582 686 650
498 3 2 1 1 682 747 570 631
499 3 2 1 1 546 595 465 376
500 3 2 1 1 488 416 430 560
501 3 2 1 1 292 370 452 459
502 3 2 1 1 305 278 129 128
503 3 2 1 1 691 762 717 678
504 3 2 1 1 367 496 517 623
505 3 2 1 1 618 687 741 669
506 3 2 1 1 447 421 346 494
507 3 2 1 1 529 601 590 527
508 3 2 1 1 453 366 439 531
509 3 2 1 1 457 370 315 378
510 3 2 1 1 451 594 646 525
511 3 2 1 1 750 777 718 731
512 3 2 1 1 222 325 176 160
513 3 2 1 1 488 507 429 414
514 3 2 1 1 275 346 137 138
515 3 2 1 1 224 294 173 165
516 3 2 1 1 531 521 442 453
517 3 2 1 1 288 451 525 389
518 3 2 1 1 634 594 498 569
519 3 2 1 1 667 712 588 558
520 3 2 1 1 686 629 724 728
521 3 2 1 1 673 641 688 705
522 3 2 1 1 391 385 431 379
523 3 2 1 1 456 321 390 458
524 3 2 1 1 787 751 792 799
525 3 2 1 1 642 672 653 573
526 3 2 1 1 798 777 750 796
527 3 2 1 1 613 567 449 495
528 3 2 1 1 412 494 346 275
529 3 2 1 1 632 689 609 501
530 3 2 1 1 754 721 678 717
531 3 2 1 1 406 478 111 112
532 3 2 1 1 508 660 612 433
533 3 2 1 1 645 571 680 703
534 3 2 1 1 758 720 705 688
535 3 2 1 1 240 147 383 322
536 3 2 1 1 479 562 432 410
537 3 2 1 1 728 690 650 686
538 3 2 1 1 747 688 641 570
539 3 2 1 1 309 383 147 236
540 3 2 1 1 550 620 516 489
541 3 2 1 1 684 633 749 727
542 3 2 1 1 481 508 433 411
543 3 2 1 1 526 613 495 359
544 3 2 1 1 236 73 74 177
545 3 2 1 1 376 415 484 546
546 3 2 1 1 146 182 388 371
547 3 2 1 1 512 538 459 452
548 3 2 1 1 742 756 773 708
549 3 2 1 1 426 366 224 353
550 3 2 1 1 348 282 312 382
551 3 2 1 1 772 791 748 712
552 3 2 1 1 785 722 679 752
553 3 2 1 1 561 524 125 124
554 3 2 1 1 776 717 762 789
555 3 2 1 1 420 493 108 107
556 3 2 1 1 552 428 291 413
557 3 2 1 1 678 634 569 691
558 3 2 1 1 442 521 492 419
559 3 2 1 1 378 308 435 457
560 3 2 1 1 577 644 528 513
561 3 2 1 1 628 729 726 706
562 3 2 1 1 158 16 17 241
563 3 2 1 1 550 429 507 573
564 3 2 1 1 710 713 665 746
565 3 2 1 1 241 17 18 152
566 3 2 1 1 575 512 452 509
567 3 2 1 1 795 799 792 776
568 3 2 1 1 381 462 451 288
569 3 2 1 1 620 550 573 653
570 3 2 1 1 347 281 311 380
571 3 2 1 1 308 424 534 435
572 3 2 1 1 549 618 486 377
573 3 2 1 1 797 754 717 776
574 3 2 1 1 554 417 485 614
575 3 2 1 1 589 509 457 435
576 3 2 1 1 715 725 644 577
577 3 2 1 1 786 797 792 751
578 3 2 1 1 671 746 689 685
579 3 2 1 1 232 19 20 175
580 3 2 1 1 322 214 167 240
581 3 2 1 1 416 285 357 430
582 3 2 1 1 124 530 480 123
583 3 2 1 1 110 522 482 111
584 3 2 1 1 442 419 347 380
585 3 2 1 1 585 439 536 643
586 3 2 1 1 666 552 615 707
587 3 2 1 1 560 624 507 488
588 3 2 1 1 352 375 425 306
589 3 2 1 1 755 796 789 762
590 3 2 1 1 744 772 712 667
591 3 2 1 1 794 787 799 793
592 3 2 1 1 665 609 689 746
593 3 2 1 1 573 507 624 642
594 3 2 1 1 724 629 706 726
595 3 2 1 1 705 720 676 626
596 3 2 1 1 307 277 105 106
597 3 2 1 1 765 718 777 779
598 3 2 1 1 625 532 538 512
599 3 2 1 1 670 653 581 595
600 3 2 1 1 793 774 720 758
601 3 2 1 1 629 686 582 502
602 3 2 1 1 461 368 513 528
603 3 2 1 1 561 483 516 593
604 3 2 1 1 664 548 612 684
605 3 2 1 1 614 708 668 554
606 3 2 1 1 130 129 278 211
607 3 2 1 1 559 591 508 481
608 3 2 1 1 702 733 742 663
609 3 2 1 1 712 748 648 588
610 3 2 1 1 368 461 222 351
611 3 2 1 1 437 551 611 592
612 3 2 1 1 438 388 310 363
613 3 2 1 1 293 455 365 314
614 3 2 1 1 600 515 661 592
615 3 2 1 1 601 529 431 511
616 3 2 1 1 572 685 729 628
617 3 2 1 1 577 513 592 661
618 3 2 1 1 665 713 624 560
619 3 2 1 1 560 430 609 665
620 3 2 1 1 750 731 761 778
621 3 2 1 1 367 225 566 496
622 3 2 1 1 789 778 795 776
623 3 2 1 1 388 438 563 371
624 3 2 1 1 510 587 562 479
625 3 2 1 1 477 523 611 551
626 3 2 1 1 631 644 725 682
627 3 2 1 1 572 504 532 625
628 3 2 1 1 620 670 593 516
629 3 2 1 1 512 575 639 625
630 3 2 1 1 359 460 503 526
631 3 2 1 1 427 567 583 500
632 3 2 1 1 600 555 478 515
633 3 2 1 1 794 790 757 791
634 3 2 1 1 511 448 563 617
635 3 2 1 1 436 515 478 406
636 3 2 1 1 667 621 711 744
637 3 2 1 1 353 318 468 426
638 3 2 1 1 312 174 295 382
639 3 2 1 1 514 619 565 493
640 3 2 1 1 745 733 702 704
641 3 2 1 1 628 584 504 572
642 3 2 1 1 351 306 425 368
643 3 2 1 1 104 105 277 210
644 3 2 1 1 385 448 511 431
645 3 2 1 1 576 517 527 590
646 3 2 1 1 754 797 786 788
647 3 2 1 1 235 460 359 309
648 3 2 1 1 647 575 509 589
649 3 2 1 1 743 668 708 773
650 3 2 1 1 305 415 376 349
651 3 2 1 1 721 683 634 678
652 3 2 1 1 688 747 790 758
653 3 2 1 1 440 514 493 420
654 3 2 1 1 682 725 760 757
655 3 2 1 1 787 794 772 744
656 3 2 1 1 495 383 309 359
657 3 2 1 1 618 669 553 486
658 3 2 1 1 757 790 747 682
659 3 2 1 1 648 549 447 588
660 3 2 1 1 669 701 622 553
661 3 2 1 1 715 701 669 741
662 3 2 1 1 683 721 759 681
663 3 2 1 1 794 793 758 790
664 3 2 1 1 449 369 322 383
665 3 2 1 1 462 498 594 451
666 3 2 1 1 536 468 586 643
667 3 2 1 1 683 681 586 646
668 3 2 1 1 687 748 760 741
669 3 2 1 1 729 685 632 703
670 3 2 1 1 743 773 786 751
671 3 2 1 1 106 105 282 348
672 3 2 1 1 128 129 281 347
673 3 2 1 1 309 236 177 235
674 3 2 1 1 554 490 283 417
675 3 2 1 1 500 583 626 656
676 3 2 1 1 749 690 728 771
677 3 2 1 1 666 571 428 552
678 3 2 1 1 786 773 756 788
679 3 2 1 1 673 705 626 583
680 3 2 1 1 676 731 656 626
681 3 2 1 1 454 367 623 557
682 3 2 1 1 241 152 378 315
683 3 2 1 1 752 779 798 785
684 3 2 1 1 375 352 307 405
685 3 2 1 1 311 422 173 294
686 3 2 1 1 425 375 551 437
687 3 2 1 1 570 641 526 503
688 3 2 1 1 745 681 759 733
689 3 2 1 1 131 2 22 212
690 3 2 1 1 103 5 79 213
691 3 2 1 1 315 227 158 241
692 3 2 1 1 517 496 456 527
693 3 2 1 1 353 224 165 233
694 3 2 1 1 730 680 571 666
695 3 2 1 1 491 556 645 501
696 3 2 1 1 668 621 490 554
697 3 2 1 1 633 590 690 749
698 3 2 1 1 661 515 622 701
699 3 2 1 1 551 375 405 477
700 3 2 1 1 282 105 104 213
701 3 2 1 1 281 129 130 212
702 3 2 1 1 308 378 152 232
703 3 2 1 1 799 795 774 793
704 3 2 1 1 440 454 557 674
705 3 2 1 1 523 555 600 611
706 3 2 1 1 369 449 567 427
707 3 2 1 1 741 760 725 715
708 3 2 1 1 278 305 349 172
709 3 2 1 1 502 584 706 629
710 3 2 1 1 564 530 124 125
711 3 2 1 1 525 646 586 468
712 3 2 1 1 565 522 110 109
713 3 2 1 1 634 683 646 594
714 3 2 1 1 703 680 726 729
715 3 2 1 1 662 562 587 585
716 3 2 1 1 437 513 368 425
717 3 2 1 1 726 680 730 724
718 3 2 1 1 616 521 531 587
719 3 2 1 1 743 711 621 668
720 3 2 1 1 175 229 424 232
721 3 2 1 1 382 295 454 440
722 3 2 1 1 761 774 795 778
723 3 2 1 1 660 640 714 709
724 3 2 1 1 660 508 591 640
725 3 2 1 1 647 672 642 713
726 3 2 1 1 670 595 546 593
727 3 2 1 1 213 423 312 282
728 3 2 1 1 673 613 526 641
729 3 2 1 1 212 422 311 281
730 3 2 1 1 746 671 639 710
731 3 2 1 1 671 685 572 625
732 3 2 1 1 363 310 219 450
733 3 2 1 1 352 171 277 307
734 3 2 1 1 724 730 771 728
735 3 2 1 1 234 321 566 166
736 3 2 1 1 759 788 756 733
737 3 2 1 1 211 280 131 130
738 3 2 1 1 730 666 707 771
739 3 2 1 1 640 557 623 714
740 3 2 1 1 745 704 643 681
741 3 2 1 1 619 674 591 559
742 3 2 1 1 160 231 351 222
743 3 2 1 1 534 465 595 581
744 3 2 1 1 647 713 710 575
745 3 2 1 1 496 566 321 456
746 3 2 1 1 494 412 558 588
747 3 2 1 1 796 750 778 789
748 3 2 1 1 517 576 714 623
749 3 2 1 1 150 389 318 233
750 3 2 1 1 210 279 103 104
751 3 2 1 1 468 318 389 525
752 3 2 1 1 771 707 727 749
753 3 2 1 1 522 619 559 482
754 3 2 1 1 546 484 524 593
755 3 2 1 1 225 295 174 166
756 3 2 1 1 530 616 510 480
757 3 2 1 1 633 709 576 590
758 3 2 1 1 613 673 583 567
759 3 2 1 1 306 231 171 352
760 3 2 1 1 791 757 760 748
761 3 2 1 1 371 563 448 296
762 3 2 1 1 280 211 172 21
763 3 2 1 1 380 294 453 442
764 3 2 1 1 279 210 171 78
765 3 2 1 1 721 754 788 759
766 3 2 1 1 581 653 672 589
767 3 2 1 1 704 662 585 643
768 3 2 1 1 422 22 23 173
769 3 2 1 1 423 213 79 80
770 3 2 1 1 701 715 577 661
771 3 2 1 1 5 103 279 78
772 3 2 1 1 174 312 423 80
773 3 2 1 1 2 131 280 21
774 3 2 1 1 674 619 514 440
775 3 2 1 1 170 137 136 116
776 3 2 1 1 135 134 192 116
777 3 2 1 1 193 132 141 118
778 3 2 1 1 140 139 194 118
$EndElements
