$MeshFormat
2.2 0 8
$EndMeshFormat
$Nodes
71
1 0 0 0
2 0 200 0
3 0 200 100
4 0 0 100
5 0 100 50
6 0 150 50
7 0 50 50
8 0 100 25
9 0 100 75
10 0 20 0
11 0 40 0
12 0 60 0
13 0 80 0
14 0 100 0
15 0 120 0
16 0 140 0
17 0 160 0
18 0 180 0
19 0 200 20
20 0 200 40
21 0 200 60
22 0 200 80
23 0 180 100
24 0 160 100
25 0 140 100
26 0 120 100
27 0 100 100
28 0 80 100
29 0 60 100
30 0 40 100
31 0 20 100
32 0 0 80
33 0 0 60
34 0 0 40
35 0 0 20
36 0 120.693925382533 20.4527647132745
37 0 82.2220910523988 80.9446396864781
38 0 140.202976596737 19.9050692653104
39 0 179.920554456092 79.9367113175208
40 0 60.4542003112581 19.8055842133911
41 0 62.2228749998326 81.0585793337905
42 0 20.0803110093276 20.0363907464209
43 0 180.013662013964 59.8832512590111
44 0 20.1801788855943 40.1635153729989
45 0 119.014163434831 79.5342075469628
46 0 160.150779743351 19.839217584792
47 0 159.623036445991 79.8625462506761
48 0 41.081903249004 80.5827224934233
49 0 79.7221618580197 20.2317031846916
50 0 180.08510050842 19.8951140955131
51 0 20.3196210825233 80.2407549454971
52 0 139.063160712555 79.7708207437461
53 0 40.2974787092717 19.9285153853466
54 0 180.137102392293 39.8260887421357
55 0 20.3266617525957 60.3253318505182
56 0 79.9902466470918 37.4918872509444
57 0 115.744038895581 59.1020194943332
58 0 120.516476246929 39.1415784466752
59 0 88.3066960035214 65.2858861668833
60 0 139.767501889946 39.7891349600688
61 0 65.6529640585538 58.7525351841192
62 0 159.787864305553 59.8745726197321
63 0 92.2036942945137 37.0514694350083
64 0 101.076789518004 67.6547118790651
65 0 107.728583287481 38.2658567444104
66 0 62.0644203789483 37.8994449993108
67 0 138.799933755337 59.8122779455279
68 0 41.1467181590446 60.417973828603
69 0 160.218703406478 39.6735934547492
70 0 41.7837766212774 40.8283558459305
71 0 81.6107829692882 48.3693695776147
$EndNodes
$Elements
58
1 2 2 1 1 6 60 69 
2 2 2 1 1 69 62 6 
3 2 2 1 1 7 61 68 
4 2 2 1 1 68 70 7 
5 2 2 1 1 67 60 6 
6 2 2 1 1 6 62 67 
7 3 2 1 1 57 5 65 58
8 3 2 1 1 61 66 56 71
9 3 2 1 1 61 71 5 59
10 3 2 1 1 5 71 56 63
11 3 2 1 1 66 40 49 56
12 3 2 1 1 57 58 60 67
13 3 2 1 1 63 56 49 8
14 3 2 1 1 67 52 45 57
15 3 2 1 1 5 63 8 65
16 3 2 1 1 64 9 37 59
17 3 2 1 1 58 65 8 36
18 3 2 1 1 57 45 9 64
19 3 2 1 1 60 58 36 38
20 3 2 1 1 67 62 47 52
21 3 2 1 1 59 37 41 61
22 3 2 1 1 8 14 15 36
23 3 2 1 1 9 27 28 37
24 3 2 1 1 66 70 53 40
25 3 2 1 1 12 40 53 11
26 3 2 1 1 68 55 44 70
27 3 2 1 1 16 17 46 38
28 3 2 1 1 21 43 54 20
29 3 2 1 1 21 22 39 43
30 3 2 1 1 52 47 24 25
31 3 2 1 1 29 30 48 41
32 3 2 1 1 34 44 55 33
33 3 2 1 1 34 35 42 44
34 3 2 1 1 39 47 62 43
35 3 2 1 1 69 54 43 62
36 3 2 1 1 42 53 70 44
37 3 2 1 1 8 49 13 14
38 3 2 1 1 18 50 46 17
39 3 2 1 1 2 19 50 18
40 3 2 1 1 39 23 24 47
41 3 2 1 1 31 51 48 30
42 3 2 1 1 4 32 51 31
43 3 2 1 1 35 1 10 42
44 3 2 1 1 22 3 23 39
45 3 2 1 1 42 10 11 53
46 3 2 1 1 49 40 12 13
47 3 2 1 1 38 36 15 16
48 3 2 1 1 19 20 54 50
49 3 2 1 1 9 45 26 27
50 3 2 1 1 41 37 28 29
51 3 2 1 1 32 33 55 51
52 3 2 1 1 69 46 50 54
53 3 2 1 1 68 48 51 55
54 3 2 1 1 60 38 46 69
55 3 2 1 1 61 41 48 68
56 3 2 1 1 25 26 45 52
57 3 2 1 1 70 66 61 7
58 3 2 1 1 57 64 59 5
$EndElements
