$MeshFormat
2.2 0 8
$EndMeshFormat
$Nodes
233
1 0 800 0
2 0 0 0
3 1000 800 0
4 1000 0 0
5 0 2000 0
6 0 1400 0
7 1000 2000 0
8 1000 1400 0
9 0 700 0
10 0 600 0
11 0 500 0
12 0 400 0
13 0 300 0
14 0 200 0
15 0 100 0
16 100 800 0
17 200 800 0
18 300 800 0
19 400 800 0
20 500 800 0
21 600 800 0
22 700 800 0
23 800 800 0
24 900 800 0
25 1000 100 0
26 1000 200 0
27 1000 300 0
28 1000 400 0
29 1000 500 0
30 1000 600 0
31 1000 700 0
32 100 0 0
33 200 0 0
34 300 0 0
35 400 0 0
36 500 0 0
37 600 0 0
38 700 0 0
39 800 0 0
40 900 0 0
41 0 1900 0
42 0 1800 0
43 0 1700 0
44 0 1600 0
45 0 1500 0
46 900 2000 0
47 800 2000 0
48 700 2000 0
49 600 2000 0
50 500 2000 0
51 400 2000 0
52 300 2000 0
53 200 2000 0
54 100 2000 0
55 1000 1500 0
56 1000 1600 0
57 1000 1700 0
58 1000 1800 0
59 1000 1900 0
60 900 1400 0
61 800 1400 0
62 700 1400 0
63 600 1400 0
64 500 1400 0
65 400 1400 0
66 300 1400 0
67 200 1400 0
68 100 1400 0
69 400 700 0
70 500 100 0
71 100 400 0
72 900 300 0
73 600 700 0
74 300 100 0
75 900 500 0
76 800 100 0
77 800 700 0
78 100 700 0
79 100 200 0
80 200 700 0
81 900 100 0
82 100 600 0
83 100 100 0
84 900 700 0
85 700 100 0
86 200 600 0
87 500 700 0
88 800 200 0
89 600 100 0
90 800 600 0
91 300 700 0
92 900 200 0
93 200 100 0
94 400 100 0
95 100 500 0
96 100 300 0
97 700 700 0
98 900 400 0
99 900 600 0
100 400 600 0
101 600 200 0
102 400 200 0
103 200 200 0
104 600 600 0
105 800 500 0
106 800 300 0
107 700 200 0
108 300 600 0
109 700 600 0
110 200 400 0
111 200 500 0
112 800 400 0
113 300 500 0
114 700 300 0
115 500 200 0
116 700 500 0
117 300 200 0
118 500 600 0
119 200 300 0
120 300 400 0
121 400 500 0
122 600 500 0
123 500 300 0
124 700 400 0
125 600 300 0
126 400 300 0
127 300 300 0
128 500 500 0
129 600 400 0
130 500 400 0
131 400 400 0
132 400 1500 0
133 600 1900 0
134 300 1900 0
135 700 1500 0
136 900 1700 0
137 100 1700 0
138 100 1900 0
139 900 1500 0
140 100 1600 0
141 800 1900 0
142 200 1500 0
143 400 1900 0
144 600 1500 0
145 100 1500 0
146 900 1900 0
147 300 1800 0
148 700 1600 0
149 200 1600 0
150 500 1500 0
151 200 1900 0
152 700 1900 0
153 100 1800 0
154 900 1600 0
155 900 1800 0
156 300 1500 0
157 500 1900 0
158 800 1500 0
159 400 1600 0
160 600 1600 0
161 600 1800 0
162 700 1800 0
163 200 1700 0
164 200 1800 0
165 800 1700 0
166 300 1600 0
167 800 1800 0
168 400 1800 0
169 800 1600 0
170 400 1700 0
171 300 1700 0
172 500 1600 0
173 700 1700 0
174 500 1800 0
175 500 1700 0
176 600 1700 0
193 299.950899070622 1099.98910378599 0
194 499.334830742539 1100.19297720681 0
195 699.370735098955 1100.4828012863 0
196 399.836422247273 1100.01359786942 0
197 599.364420915069 1100.41147210816 0
198 0 1200 0
199 0 1000 0
202 100 1200 0
203 0 1100 0
204 100 1000 0
206 100 1100 0
207 1000 1000 0
208 1000 1200 0
211 1000 1100 0
212 900 1200 0
214 900 1000 0
215 900 1100 0
232 800 1300 0
233 200 1300 0
239 700 1300 0
240 600 1300 0
241 500 1300 0
242 400 1300 0
243 300 1300 0
262 301.076898104162 1099.83588541833 0
263 700.45613099028 1102.43680985133 0
264 501.913181040906 1102.65883184176 0
265 501.353915652229 1002.33484592219 0
266 401.433858409666 1000.51511370017 0
267 300.813375444169 999.967464390684 0
268 700.303210094246 1002.27766640478 0
269 401.365504448882 1100.59975770433 0
270 600.79970889513 1002.92238374488 0
271 600.964499840165 1102.5354744786 0
272 200 1000 0
273 800 1000 0
274 800 1200 0
275 200 1200 0
276 300 1000 0
277 400 1000 0
278 500 1000 0
279 600 1000 0
280 700 1000 0
281 800 1100 0
282 700 1200 0
283 600 1200 0
284 500 1200 0
285 400 1200 0
286 300 1200 0
287 200 1100 0
288 800 900 0
289 200 900 0
290 300 900 0
291 400 900 0
292 500 900 0
293 600 900 0
294 700 900 0
$EndNodes
$Elements
190
1 3 2 1 1 124 112 105 116
2 3 2 1 1 77 84 24 23
3 3 2 1 1 25 81 40 4
4 3 2 1 1 72 92 26 27
5 3 2 1 1 26 92 81 25
6 3 2 1 1 115 123 126 102
7 3 2 1 1 28 98 72 27
8 3 2 1 1 75 98 28 29
9 3 2 1 1 115 101 125 123
10 3 2 1 1 30 99 75 29
11 3 2 1 1 30 31 84 99
12 3 2 1 1 112 124 114 106
13 3 2 1 1 120 113 111 110
14 3 2 1 1 33 93 83 32
15 3 2 1 1 35 36 70 94
16 3 2 1 1 37 89 70 36
17 3 2 1 1 9 78 16 1
18 3 2 1 1 109 116 105 90
19 3 2 1 1 118 87 69 100
20 3 2 1 1 127 119 103 117
21 3 2 1 1 102 94 70 115
22 3 2 1 1 114 125 101 107
23 3 2 1 1 98 112 106 72
24 3 2 1 1 102 117 74 94
25 3 2 1 1 103 93 74 117
26 3 2 1 1 110 71 96 119
27 3 2 1 1 103 119 96 79
28 3 2 1 1 95 71 110 111
29 3 2 1 1 79 83 93 103
30 3 2 1 1 86 111 113 108
31 3 2 1 1 95 111 86 82
32 3 2 1 1 18 91 69 19
33 3 2 1 1 15 83 79 14
34 3 2 1 1 32 83 15 2
35 3 2 1 1 79 96 13 14
36 3 2 1 1 13 96 71 12
37 3 2 1 1 11 95 82 10
38 3 2 1 1 71 95 11 12
39 3 2 1 1 119 127 120 110
40 3 2 1 1 69 87 20 19
41 3 2 1 1 24 84 31 3
42 3 2 1 1 97 77 23 22
43 3 2 1 1 10 82 78 9
44 3 2 1 1 117 102 126 127
45 3 2 1 1 80 86 108 91
46 3 2 1 1 100 69 91 108
47 3 2 1 1 113 121 100 108
48 3 2 1 1 17 16 78 80
49 3 2 1 1 74 93 33 34
50 3 2 1 1 17 80 91 18
51 3 2 1 1 35 94 74 34
52 3 2 1 1 78 82 86 80
53 3 2 1 1 120 127 126 131
54 3 2 1 1 88 107 85 76
55 3 2 1 1 81 92 88 76
56 3 2 1 1 90 99 84 77
57 3 2 1 1 116 122 129 124
58 3 2 1 1 99 90 105 75
59 3 2 1 1 112 98 75 105
60 3 2 1 1 88 92 72 106
61 3 2 1 1 130 123 125 129
62 3 2 1 1 101 115 70 89
63 3 2 1 1 90 77 97 109
64 3 2 1 1 89 85 107 101
65 3 2 1 1 21 20 87 73
66 3 2 1 1 85 89 37 38
67 3 2 1 1 122 116 109 104
68 3 2 1 1 122 104 118 128
69 3 2 1 1 114 124 129 125
70 3 2 1 1 73 97 22 21
71 3 2 1 1 40 81 76 39
72 3 2 1 1 106 114 107 88
73 3 2 1 1 131 121 113 120
74 3 2 1 1 130 129 122 128
75 3 2 1 1 126 123 130 131
76 3 2 1 1 39 76 85 38
77 3 2 1 1 128 121 131 130
78 3 2 1 1 87 118 104 73
79 3 2 1 1 100 121 128 118
80 3 2 1 1 109 97 73 104
81 3 2 1 1 168 174 157 143
82 3 2 1 1 55 139 60 8
83 3 2 1 1 136 154 56 57
84 3 2 1 1 56 154 139 55
85 3 2 1 1 161 174 175 176
86 3 2 1 1 58 155 136 57
87 3 2 1 1 146 155 58 59
88 3 2 1 1 175 172 160 176
89 3 2 1 1 173 176 160 148
90 3 2 1 1 159 172 175 170
91 3 2 1 1 61 158 135 62
92 3 2 1 1 139 158 61 60
93 3 2 1 1 144 63 62 135
94 3 2 1 1 41 138 54 5
95 3 2 1 1 155 167 165 136
96 3 2 1 1 165 169 154 136
97 3 2 1 1 154 169 158 139
98 3 2 1 1 153 137 163 164
99 3 2 1 1 158 169 148 135
100 3 2 1 1 133 161 162 152
101 3 2 1 1 174 161 133 157
102 3 2 1 1 162 167 141 152
103 3 2 1 1 141 167 155 146
104 3 2 1 1 135 148 160 144
105 3 2 1 1 140 149 163 137
106 3 2 1 1 44 140 137 43
107 3 2 1 1 173 165 167 162
108 3 2 1 1 133 152 48 49
109 3 2 1 1 48 152 141 47
110 3 2 1 1 68 145 45 6
111 3 2 1 1 140 44 45 145
112 3 2 1 1 50 157 133 49
113 3 2 1 1 169 165 173 148
114 3 2 1 1 141 146 46 47
115 3 2 1 1 138 41 42 153
116 3 2 1 1 176 173 162 161
117 3 2 1 1 137 153 42 43
118 3 2 1 1 46 146 59 7
119 3 2 1 1 175 174 168 170
120 3 2 1 1 160 172 150 144
121 3 2 1 1 52 53 151 134
122 3 2 1 1 132 156 66 65
123 3 2 1 1 142 145 68 67
124 3 2 1 1 142 67 66 156
125 3 2 1 1 163 171 147 164
126 3 2 1 1 147 168 143 134
127 3 2 1 1 134 151 164 147
128 3 2 1 1 142 149 140 145
129 3 2 1 1 138 153 164 151
130 3 2 1 1 63 144 150 64
131 3 2 1 1 171 170 168 147
132 3 2 1 1 65 64 150 132
133 3 2 1 1 163 149 166 171
134 3 2 1 1 166 159 170 171
135 3 2 1 1 54 138 151 53
136 3 2 1 1 134 143 51 52
137 3 2 1 1 142 156 166 149
138 3 2 1 1 143 157 50 51
139 3 2 1 1 132 159 166 156
140 3 2 1 1 150 172 159 132
155 3 2 1 1 203 206 202 198
156 3 2 1 1 204 206 203 199
157 3 2 1 1 215 214 207 211
158 3 2 1 1 208 212 215 211
181 3 2 1 1 267 266 269 262
187 3 2 1 1 270 268 263 271
188 3 2 1 1 264 265 270 271
189 3 2 1 1 269 266 265 264
141 3 2 1 1 285 286 193 196
142 3 2 1 1 275 287 193 286
143 3 2 1 1 276 193 287 272
144 3 2 1 1 193 276 277 196
145 3 2 1 1 274 282 195 281
146 3 2 1 1 273 281 195 280
147 3 2 1 1 196 194 284 285
148 3 2 1 1 194 196 277 278
149 3 2 1 1 195 282 283 197
150 3 2 1 1 279 280 195 197
151 3 2 1 1 194 278 279 197
152 3 2 1 1 284 194 197 283
153 3 2 1 1 272 287 206 204
154 3 2 1 1 206 287 275 202
159 3 2 1 1 281 215 212 274
160 3 2 1 1 214 215 281 273
161 3 2 1 1 288 273 280 294
162 3 2 1 1 291 292 278 277
163 3 2 1 1 293 279 278 292
164 3 2 1 1 294 280 279 293
165 3 2 1 1 272 289 290 276
166 3 2 1 1 276 290 291 277
167 3 2 1 1 274 232 239 282
168 3 2 1 1 240 241 284 283
169 3 2 1 1 284 241 242 285
170 3 2 1 1 282 239 240 283
171 3 2 1 1 233 275 286 243
172 3 2 1 1 243 286 285 242
173 3 2 1 1 273 268 294 288
174 3 2 1 1 263 268 273 281
175 3 2 1 1 275 287 262 286
176 3 2 1 1 282 263 281 274
177 3 2 1 1 292 265 266 291
178 3 2 1 1 287 272 267 262
179 3 2 1 1 267 272 289 290
180 3 2 1 1 290 291 266 267
182 3 2 1 1 270 265 292 293
183 3 2 1 1 285 286 262 269
184 3 2 1 1 284 285 269 264
185 3 2 1 1 264 271 283 284
186 3 2 1 1 293 294 268 270
190 3 2 1 1 271 263 282 283
$EndElements
