$MeshFormat
2.2 0 8
$EndMeshFormat
$Nodes
120
1 20 20 0
2 40 20 0
3 40 40 0
4 20 40 0
9 0 0 0
10 100 0 0
11 0 100 0
12 100 100 0
13 30 20 0
14 40 30 0
15 30 40 0
16 20 30 0
21 10 0 0
22 20 0 0
23 30 0 0
24 40 0 0
25 50 0 0
26 60 0 0
27 70 0 0
28 80 0 0
29 90 0 0
30 0 90 0
31 0 80 0
32 0 70 0
33 0 60 0
34 0 50 0
35 0 40 0
36 0 30 0
37 0 20 0
38 0 10 0
39 100 10 0
40 100 20 0
41 100 30 0
42 100 40 0
43 100 50 0
44 100 60 0
45 100 70 0
46 100 80 0
47 100 90 0
48 90 100 0
49 80 100 0
50 70 100 0
51 60 100 0
52 50 100 0
53 40 100 0
54 30 100 0
55 20 100 0
56 10 100 0
57 70.0045087606273 10.0078683808702 0
58 30.0129101672127 90.0072100714185 0
59 90.0140436914547 30.0038804896788 0
60 50.3339444663094 40.3341525039936 0
61 40.4343808640468 50.2897198458409 0
62 10.0090679468628 70.0114579076266 0
63 50.2722062597619 70.1658902701122 0
64 40.0244651901898 90.0134005158435 0
65 70.1994773159079 50.1653032432031 0
66 90.0300797338155 40.0047547181461 0
67 40.0015164044831 10.0034865637581 0
68 10.0002394830612 30.0004895224851 0
69 10.0058746463545 50.0110964030067 0
70 90.0026820016331 69.9989257603196 0
71 90.0315511983809 50.0036600325609 0
72 30.0001960214015 10.0004765269089 0
73 20.0000255989166 10.0000667087258 0
74 10.000032560008 20.0000726444127 0
75 80.0000213128559 89.9999861235248 0
76 90.0004090459676 79.9998176727445 0
77 70.0007180977746 90.0003660848199 0
78 50.0241558669747 90.0132080747192 0
79 90.0011972248638 10.0012253410181 0
80 10.0014402189543 90.0010931404349 0
81 60.0070540834812 10.0130782950594 0
82 50.103788778997 30.1344795081167 0
83 30.1775006131132 50.1069432849092 0
84 10.0000074799795 10.0000188395893 0
85 90.0000623199953 89.9999699239436 0
86 30.0637944543096 80.0376001048515 0
87 70.0276297340815 20.0374362854634 0
88 80.0459675813355 30.0360866394988 0
89 50.0293186979224 20.0440242873095 0
90 80.0042447551257 10.0055429482724 0
91 10.0107436364794 60.0164143112512 0
92 90.0071056097102 20.0050864673405 0
93 20.0083811453413 90.0051445260839 0
94 40.1081075211279 80.0626810186165 0
95 80.0871954117132 40.0569125032263 0
96 20.0494923214534 50.040477826232 0
97 50.5060758215188 50.4117486182939 0
98 60.010538049853 90.0057579103643 0
99 50.0940843510663 80.0549869864382 0
100 50.0075046454451 10.0126546749882 0
101 10.0069210906977 80.0059837099825 0
102 60.2853801446492 40.3009013078396 0
103 40.4261505246626 60.2651140635556 0
104 50.3891441473187 60.2804720627984 0
105 60.3029067312008 50.2725065598083 0
106 10.0043216298526 40.0048501708742 0
107 90.0146313567284 60.001048727162 0
108 80.0792440753877 50.0483869911577 0
109 60.1277488097131 30.1496702252055 0
110 20.0299022151725 80.0197644448285 0
111 70.0948940498269 30.0998378494029 0
112 40.2361387424794 70.1459052660282 0
113 80.0205256880099 20.0205251353958 0
114 20.0704405535413 60.056009097991 0
115 60.0450157752418 20.0591814137666 0
116 30.2043440940038 60.1324119988288 0
117 70.1664346659043 40.1547885931744 0
118 30.1449059327045 70.090825198334 0
119 20.061019292696 70.0433276293888 0
128 70 70 0
129 60 60 0
130 80 60 0
131 80 80 0
132 60 80 0
133 70 60 0
134 80 70 0
135 70 80 0
136 60 70 0
$EndNodes
$Elements
96
1 3 2 1 1 31 101 80 30
2 3 2 1 1 16 4 106 68
5 3 2 1 1 21 84 38 9
6 3 2 1 1 73 84 21 22
7 3 2 1 1 115 109 82 89
8 3 2 1 1 100 67 24 25
9 3 2 1 1 78 64 94 99
11 3 2 1 1 74 84 73 1
12 3 2 1 1 28 29 79 90
13 3 2 1 1 39 79 29 10
14 3 2 1 1 30 80 56 11
15 3 2 1 1 62 101 31 32
16 3 2 1 1 81 115 89 100
17 3 2 1 1 37 74 68 36
18 3 2 1 1 38 84 74 37
19 3 2 1 1 59 92 40 41
20 3 2 1 1 40 92 79 39
21 3 2 1 1 55 56 80 93
22 3 2 1 1 54 55 93 58
23 3 2 1 1 66 59 41 42
24 3 2 1 1 52 78 98 51
25 3 2 1 1 77 50 51 98
26 3 2 1 1 46 76 70 45
27 3 2 1 1 77 75 49 50
28 3 2 1 1 48 85 47 12
29 3 2 1 1 47 85 76 46
30 3 2 1 1 75 85 48 49
31 3 2 1 1 1 73 72 13
32 3 2 1 1 119 110 101 62
33 3 2 1 1 83 96 4 15
34 3 2 1 1 3 61 83 15
35 3 2 1 1 82 60 3 14
36 3 2 1 1 100 89 2 67
38 3 2 1 1 93 80 101 110
40 3 2 1 1 2 89 82 14
41 3 2 1 1 68 74 1 16
42 3 2 1 1 2 13 72 67
44 3 2 1 1 24 67 72 23
45 3 2 1 1 72 73 22 23
46 3 2 1 1 53 54 58 64
47 3 2 1 1 90 113 87 57
48 3 2 1 1 45 70 107 44
49 3 2 1 1 87 115 81 57
50 3 2 1 1 93 110 86 58
51 3 2 1 1 81 100 25 26
52 3 2 1 1 86 94 64 58
53 3 2 1 1 64 78 52 53
54 3 2 1 1 36 68 106 35
55 3 2 1 1 27 28 90 57
56 3 2 1 1 109 115 87 111
57 3 2 1 1 112 94 86 118
58 3 2 1 1 26 27 57 81
59 3 2 1 1 88 59 66 95
60 3 2 1 1 62 32 33 91
61 3 2 1 1 34 69 91 33
62 3 2 1 1 35 106 69 34
63 3 2 1 1 114 119 62 91
64 3 2 1 1 69 106 4 96
65 3 2 1 1 44 107 71 43
66 3 2 1 1 66 42 43 71
67 3 2 1 1 90 79 92 113
68 3 2 1 1 92 59 88 113
69 3 2 1 1 95 117 111 88
70 3 2 1 1 91 69 96 114
71 3 2 1 1 113 88 111 87
72 3 2 1 1 110 119 118 86
73 3 2 1 1 112 63 99 94
76 3 2 1 1 116 114 96 83
77 3 2 1 1 71 108 95 66
78 3 2 1 1 119 114 116 118
80 3 2 1 1 102 60 82 109
81 3 2 1 1 117 102 109 111
82 3 2 1 1 95 108 65 117
83 3 2 1 1 102 117 65 105
84 3 2 1 1 103 116 83 61
85 3 2 1 1 116 103 112 118
86 3 2 1 1 63 112 103 104
87 3 2 1 1 97 60 102 105
88 3 2 1 1 60 97 61 3
89 3 2 1 1 103 61 97 104
3 3 2 1 1 134 130 107 70
4 3 2 1 1 75 77 135 131
10 3 2 1 1 76 85 75 131
37 3 2 1 1 70 76 131 134
39 3 2 1 1 132 135 77 98
43 3 2 1 1 78 99 132 98
74 3 2 1 1 71 107 130 108
75 3 2 1 1 132 99 63 136
79 3 2 1 1 65 108 130 133
90 3 2 1 1 133 129 105 65
91 3 2 1 1 97 105 129 104
92 3 2 1 1 104 129 136 63
93 3 2 1 1 131 135 128 134
94 3 2 1 1 134 128 133 130
95 3 2 1 1 133 128 136 129
96 3 2 1 1 136 128 135 132
$EndElements
