$MeshFormat
2.2 0 8
$EndMeshFormat
$Nodes
432
1 20 20 0
2 40 20 0
4 20 40 0
16 0 0 0
17 50 0 0
18 0 50 0
19 70 0 0
20 0 70 0
21 100 0 0
22 0 100 0
23 100 50 0
24 50 100 0
25 100 70 0
26 70 100 0
27 100 100 0
28 25 20 0
29 30 20 0
30 35 20 0
31 40 25 0
32 40 30 0
33 40 35 0
34 35 40 0
35 30 40 0
36 25 40 0
37 20 35 0
38 20 30 0
39 20 25 0
60 5 0 0
61 10 0 0
62 15 0 0
63 20 0 0
64 25 0 0
65 30 0 0
66 35 0 0
67 40 0 0
68 45 0 0
69 0 45 0
70 0 40 0
71 0 35 0
72 0 30 0
73 0 25 0
74 0 20 0
75 0 15 0
76 0 10 0
77 0 5 0
78 55 0 0
79 60 0 0
80 65 0 0
81 0 65 0
82 0 60 0
83 0 55 0
84 75 0 0
85 80 0 0
86 85 0 0
87 90 0 0
88 95 0 0
89 0 95 0
90 0 90 0
91 0 85 0
92 0 80 0
93 0 75 0
94 100 5 0
95 100 10 0
96 100 15 0
97 100 20 0
98 100 25 0
99 100 30 0
100 100 35 0
101 100 40 0
102 100 45 0
103 45 100 0
104 40 100 0
105 35 100 0
106 30 100 0
107 25 100 0
108 20 100 0
109 15 100 0
110 10 100 0
111 5 100 0
112 100 55 0
113 100 60 0
114 100 65 0
115 65 100 0
116 60 100 0
117 55 100 0
118 100 75 0
119 100 80 0
120 100 85 0
121 100 90 0
122 100 95 0
123 95 100 0
124 90 100 0
125 85 100 0
126 80 100 0
127 75 100 0
128 5 70 0
129 10 70 0
130 15 70 0
131 20 70 0
132 25 70 0
133 30 70 0
134 35 70 0
135 85 70 0
136 90 70 0
137 95 70 0
138 5 50 0
139 10 50 0
140 15 50 0
141 20 50 0
142 25 50 0
143 30 50 0
144 35 50 0
145 85 50 0
146 90 50 0
147 95 50 0
148 70 5 0
149 70 10 0
150 70 15 0
151 70 20 0
152 70 25 0
153 70 30 0
154 70 35 0
155 70 85 0
156 70 90 0
157 70 95 0
158 50 5 0
159 50 10 0
160 50 15 0
161 50 20 0
162 50 25 0
163 50 30 0
164 50 35 0
165 50 85 0
166 50 90 0
167 50 95 0
168 15 95 0
169 95 15 0
170 20 5 0
171 5 25 0
172 5 15 0
173 35 15 0
174 95 25 0
175 95 35 0
176 15 35 0
177 95 80 0
178 85 95 0
179 35 95 0
180 85 5 0
181 5 85 0
182 35 5 0
183 20 15 0
184 15 20 0
185 15 25 0
186 5 40 0
187 95 45 0
188 85 45 0
189 45 25 0
190 25 45 0
191 75 35 0
192 85 80 0
193 75 85 0
194 45 85 0
195 35 75 0
196 45 35 0
197 35 45 0
198 55 35 0
199 65 35 0
200 85 60 0
201 65 85 0
202 55 85 0
203 55 95 0
204 35 60 0
205 10 5 0
206 45 5 0
207 55 5 0
208 65 5 0
209 5 65 0
210 5 60 0
211 80 5 0
212 95 5 0
213 5 95 0
214 5 80 0
215 45 95 0
216 95 55 0
217 95 65 0
218 65 95 0
219 95 90 0
220 75 95 0
221 30 5 0
222 25 15 0
223 5 75 0
224 20 95 0
225 85 55 0
226 85 65 0
227 85 75 0
228 35 65 0
229 35 55 0
230 5 5 0
231 5 45 0
232 5 35 0
233 5 55 0
234 75 5 0
235 95 75 0
236 95 95 0
237 25 95 0
238 15 90 0
239 25 55 0
240 55 25 0
241 80 35 0
242 35 80 0
243 15 15 0
244 85 40 0
245 40 15 0
246 15 40 0
247 85 85 0
248 40 85 0
249 30 65 0
250 85 10 0
251 65 30 0
252 10 85 0
253 40 5 0
254 95 20 0
255 15 5 0
256 5 30 0
257 10 95 0
258 80 95 0
259 10 80 0
260 20 10 0
261 10 10 0
262 35 10 0
263 30 15 0
264 5 10 0
265 95 10 0
266 95 30 0
267 30 95 0
268 45 20 0
269 20 45 0
270 80 85 0
271 45 30 0
272 30 45 0
273 15 30 0
274 60 35 0
275 60 85 0
276 25 5 0
277 5 20 0
278 60 5 0
279 90 5 0
280 5 90 0
281 95 40 0
282 40 95 0
283 95 60 0
284 60 95 0
285 95 85 0
286 90 95 0
287 10 65 0
288 10 75 0
289 30 75 0
290 90 65 0
291 90 75 0
292 10 55 0
293 10 45 0
294 30 55 0
295 90 45 0
296 90 55 0
297 65 10 0
298 75 10 0
299 75 30 0
300 75 90 0
301 65 90 0
302 55 10 0
303 45 10 0
304 55 30 0
305 45 90 0
306 55 90 0
307 10 20 0
308 10 40 0
309 20 90 0
310 80 30 0
311 90 30 0
312 30 80 0
313 25 65 0
314 15 55 0
315 15 65 0
316 65 25 0
317 55 15 0
318 65 15 0
319 35 85 0
320 90 15 0
321 10 15 0
322 90 35 0
323 25 10 0
324 25 90 0
325 10 90 0
326 15 85 0
327 15 10 0
328 40 10 0
329 85 35 0
330 90 40 0
331 90 10 0
332 15 80 0
333 15 75 0
334 25 75 0
335 15 45 0
336 20 55 0
337 75 15 0
338 75 25 0
339 45 15 0
340 55 20 0
341 10 30 0
342 10 35 0
343 10 25 0
344 90 85 0
345 90 80 0
346 80 90 0
347 85 90 0
348 35 90 0
349 90 60 0
350 30 60 0
351 10 60 0
352 80 10 0
353 90 90 0
354 60 30 0
355 40 90 0
356 60 90 0
357 60 10 0
358 90 20 0
359 30 10 0
360 20 85 0
361 80 25 0
362 80 15 0
363 90 25 0
364 85 15 0
365 30 90 0
366 85 30 0
367 25 80 0
368 20 65 0
369 20 75 0
370 65 20 0
371 75 20 0
372 25 60 0
373 60 25 0
374 30 85 0
375 20 60 0
376 15 60 0
377 60 20 0
378 60 15 0
379 25 85 0
380 20 80 0
381 85 20 0
382 80 20 0
383 85 25 0
396 50 70 0
397 70 70 0
398 50 50 0
399 70 50 0
420 45 70 0
421 55 70 0
422 60 70 0
423 65 70 0
424 75 70 0
425 45 50 0
426 55 50 0
427 60 50 0
428 65 50 0
429 75 50 0
430 70 45 0
431 70 55 0
432 70 60 0
433 70 65 0
434 70 75 0
435 50 45 0
436 50 55 0
437 50 60 0
438 50 65 0
439 50 75 0
440 44.5540740740741 44.5540740740741 0
441 60 44.8708333333333 0
442 55.4459259259259 44.5338888888889 0
443 75.4459259259259 44.5540740740741 0
444 75.0052083333333 54.9947916666667 0
445 75.0645399305556 59.9354600694444 0
446 75.4560127314815 64.5439872685185 0
447 75.4459259259259 75.4459259259259 0
448 60 75.1291666666667 0
449 64.5540740740741 75.4661111111111 0
450 44.5540740740741 75.4459259259259 0
451 44.9947916666667 65.0052083333333 0
452 44.9354600694444 60.0645399305556 0
453 44.5439872685185 55.4560127314815 0
454 55.4661111111111 64.5338888888889 0
455 64.5338888888889 64.5338888888889 0
456 55.4661111111111 55.4661111111111 0
457 64.5338888888889 55.4661111111111 0
458 64.5540740740741 44.5338888888889 0
459 55.4459259259259 75.4661111111111 0
460 60 64.8511805555556 0
461 60 55.1488194444444 0
462 64.8511805555556 60 0
463 55.1488194444444 60 0
464 60 60 0
465 40 40 0
466 50 40 0
467 70 40 0
468 80 40 0
469 80 50 0
470 80 70 0
471 80 80 0
472 70 80 0
473 50 80 0
474 40 80 0
475 40 70 0
476 40 50 0
477 45 40 0
478 55 40 0
479 60 40 0
480 65 40 0
481 75 40 0
482 80 45 0
483 80 55 0
484 80 60 0
485 80 65 0
486 80 75 0
487 75 80 0
488 65 80 0
489 60 80 0
490 55 80 0
491 45 80 0
492 40 75 0
493 40 65 0
494 40 60 0
495 40 55 0
496 40 45 0
$EndNodes
$Elements
398
1 2 2 1 1 420 396 439 
2 2 2 1 1 421 396 438 
3 2 2 1 1 439 396 421 
4 2 2 1 1 423 433 397 
5 2 2 1 1 423 397 434 
6 2 2 1 1 397 433 424 
7 2 2 1 1 434 397 424 
8 2 2 1 1 425 435 398 
9 2 2 1 1 398 436 425 
10 2 2 1 1 398 435 426 
11 2 2 1 1 426 436 398 
12 2 2 1 1 428 430 399 
13 2 2 1 1 399 431 428 
14 2 2 1 1 399 430 429 
15 2 2 1 1 438 454 421 
16 2 2 1 1 421 459 439 
17 2 2 1 1 423 455 433 
18 2 2 1 1 434 449 423 
19 2 2 1 1 433 446 424 
20 2 2 1 1 436 453 425 
21 2 2 1 1 435 442 426 
22 2 2 1 1 426 456 436 
23 2 2 1 1 428 458 430 
24 2 2 1 1 431 457 428 
25 2 2 1 1 439 450 420 
26 2 2 1 1 424 447 434 
27 2 2 1 1 425 440 435 
28 2 2 1 1 430 443 429 
29 3 2 1 1 103 215 167 24
30 3 2 1 1 369 380 332 333
31 3 2 1 1 106 107 237 267
32 3 2 1 1 106 267 179 105
33 3 2 1 1 105 179 282 104
34 3 2 1 1 167 215 305 166
35 3 2 1 1 146 295 187 147
36 3 2 1 1 104 282 215 103
37 3 2 1 1 284 356 301 218
38 3 2 1 1 144 229 294 143
39 3 2 1 1 146 145 188 295
40 3 2 1 1 147 187 102 23
41 3 2 1 1 349 290 226 200
42 3 2 1 1 101 102 187 281
43 3 2 1 1 281 175 100 101
44 3 2 1 1 100 175 266 99
45 3 2 1 1 306 356 284 203
46 3 2 1 1 146 296 225 145
47 3 2 1 1 112 216 147 23
48 3 2 1 1 143 142 190 272
49 3 2 1 1 115 218 157 26
50 3 2 1 1 260 323 222 183
51 3 2 1 1 137 217 114 25
52 3 2 1 1 265 331 279 212
53 3 2 1 1 217 283 113 114
54 3 2 1 1 113 283 216 112
55 3 2 1 1 197 144 143 272
56 3 2 1 1 375 372 313 368
57 3 2 1 1 223 288 259 214
58 3 2 1 1 143 294 239 142
59 3 2 1 1 110 111 213 257
60 3 2 1 1 110 257 168 109
61 3 2 1 1 332 380 360 326
62 3 2 1 1 315 287 351 376
63 3 2 1 1 275 356 306 202
64 3 2 1 1 314 376 351 292
65 3 2 1 1 311 363 174 266
66 3 2 1 1 341 342 232 256
67 3 2 1 1 89 213 111 22
68 3 2 1 1 259 332 326 252
69 3 2 1 1 94 212 88 21
70 3 2 1 1 352 362 337 298
71 3 2 1 1 212 279 87 88
72 3 2 1 1 87 279 180 86
73 3 2 1 1 198 304 354 274
74 3 2 1 1 181 280 90 91
75 3 2 1 1 180 211 85 86
76 3 2 1 1 149 297 208 148
77 3 2 1 1 211 234 84 85
78 3 2 1 1 84 234 148 19
79 3 2 1 1 307 184 185 343
80 3 2 1 1 138 233 83 18
81 3 2 1 1 233 210 82 83
82 3 2 1 1 159 302 317 160
83 3 2 1 1 308 293 231 186
84 3 2 1 1 291 345 192 227
85 3 2 1 1 276 323 260 170
86 3 2 1 1 261 264 230 205
87 3 2 1 1 192 345 344 247
88 3 2 1 1 347 353 286 178
89 3 2 1 1 147 216 296 146
90 3 2 1 1 95 265 212 94
91 3 2 1 1 305 215 282 355
92 3 2 1 1 203 284 116 117
93 3 2 1 1 203 167 166 306
94 3 2 1 1 214 92 93 223
95 3 2 1 1 372 375 336 239
96 3 2 1 1 214 181 91 92
97 3 2 1 1 308 186 232 342
98 3 2 1 1 376 314 336 375
99 3 2 1 1 90 280 213 89
100 3 2 1 1 195 289 133 134
101 3 2 1 1 136 290 217 137
102 3 2 1 1 198 164 163 304
103 3 2 1 1 252 181 214 259
104 3 2 1 1 296 216 283 349
105 3 2 1 1 335 269 141 140
106 3 2 1 1 199 274 354 251
107 3 2 1 1 351 287 209 210
108 3 2 1 1 133 249 228 134
109 3 2 1 1 226 290 136 135
110 3 2 1 1 270 346 300 193
111 3 2 1 1 301 356 275 201
112 3 2 1 1 289 334 132 133
113 3 2 1 1 132 313 249 133
114 3 2 1 1 317 302 357 378
115 3 2 1 1 158 207 302 159
116 3 2 1 1 334 369 131 132
117 3 2 1 1 131 369 333 130
118 3 2 1 1 210 233 292 351
119 3 2 1 1 218 301 156 157
120 3 2 1 1 273 341 343 185
121 3 2 1 1 140 314 292 139
122 3 2 1 1 335 140 139 293
123 3 2 1 1 250 352 211 180
124 3 2 1 1 211 352 298 234
125 3 2 1 1 139 292 233 138
126 3 2 1 1 138 231 293 139
127 3 2 1 1 315 368 131 130
128 3 2 1 1 156 300 220 157
129 3 2 1 1 312 367 334 289
130 3 2 1 1 319 374 312 242
131 3 2 1 1 141 336 314 140
132 3 2 1 1 316 373 377 370
133 3 2 1 1 235 291 136 137
134 3 2 1 1 136 291 227 135
135 3 2 1 1 219 285 120 121
136 3 2 1 1 124 286 236 123
137 3 2 1 1 178 286 124 125
138 3 2 1 1 295 330 281 187
139 3 2 1 1 172 321 307 277
140 3 2 1 1 122 236 219 121
141 3 2 1 1 123 236 122 27
142 3 2 1 1 360 379 324 309
143 3 2 1 1 324 379 374 365
144 3 2 1 1 322 311 266 175
145 3 2 1 1 120 285 177 119
146 3 2 1 1 220 300 346 258
147 3 2 1 1 269 190 142 141
148 3 2 1 1 177 235 118 119
149 3 2 1 1 118 235 137 25
150 3 2 1 1 142 239 336 141
151 3 2 1 1 329 322 330 244
152 3 2 1 1 116 284 218 115
153 3 2 1 1 209 287 129 128
154 3 2 1 1 131 368 313 132
155 3 2 1 1 217 290 349 283
156 3 2 1 1 261 321 172 264
157 3 2 1 1 130 333 288 129
158 3 2 1 1 287 315 130 129
159 3 2 1 1 206 158 159 303
160 3 2 1 1 267 365 348 179
161 3 2 1 1 129 288 223 128
162 3 2 1 1 82 210 209 81
163 3 2 1 1 324 365 267 237
164 3 2 1 1 286 353 219 236
165 3 2 1 1 355 348 319 248
166 3 2 1 1 365 374 319 348
167 3 2 1 1 220 258 126 127
168 3 2 1 1 126 258 178 125
169 3 2 1 1 219 353 344 285
170 3 2 1 1 272 35 34 197
171 3 2 1 1 153 299 191 154
172 3 2 1 1 38 273 185 39
173 3 2 1 1 176 273 38 37
174 3 2 1 1 199 251 153 154
175 3 2 1 1 36 35 272 190
176 3 2 1 1 269 4 36 190
177 3 2 1 1 338 361 310 299
178 3 2 1 1 156 301 201 155
179 3 2 1 1 39 185 184 1
180 3 2 1 1 247 347 346 270
182 3 2 1 1 33 32 271 196
183 3 2 1 1 346 347 178 258
185 3 2 1 1 367 380 369 334
186 3 2 1 1 271 32 31 189
187 3 2 1 1 31 2 268 189
188 3 2 1 1 246 4 269 335
191 3 2 1 1 165 202 306 166
192 3 2 1 1 245 339 268 2
194 3 2 1 1 251 316 152 153
195 3 2 1 1 152 338 299 153
197 3 2 1 1 367 312 374 379
199 3 2 1 1 293 308 246 335
202 3 2 1 1 329 241 310 366
203 3 2 1 1 278 357 302 207
204 3 2 1 1 342 176 246 308
208 3 2 1 1 372 350 249 313
210 3 2 1 1 279 331 250 180
211 3 2 1 1 271 189 162 163
214 3 2 1 1 161 268 339 160
216 3 2 1 1 370 377 378 318
217 3 2 1 1 251 354 373 316
218 3 2 1 1 4 246 176 37
219 3 2 1 1 362 352 250 364
220 3 2 1 1 179 348 355 282
221 3 2 1 1 173 245 2 30
222 3 2 1 1 200 225 296 349
223 3 2 1 1 20 128 223 93
224 3 2 1 1 305 355 248 194
225 3 2 1 1 376 375 368 315
226 3 2 1 1 29 28 222 263
227 3 2 1 1 173 30 29 263
228 3 2 1 1 161 340 240 162
229 3 2 1 1 28 1 183 222
230 3 2 1 1 26 157 220 127
231 3 2 1 1 24 167 203 117
233 3 2 1 1 17 158 206 68
235 3 2 1 1 162 240 304 163
236 3 2 1 1 193 300 156 155
240 3 2 1 1 288 333 332 259
241 3 2 1 1 344 353 347 247
242 3 2 1 1 378 357 297 318
243 3 2 1 1 249 350 204 228
244 3 2 1 1 71 72 256 232
245 3 2 1 1 176 342 341 273
246 3 2 1 1 232 186 70 71
247 3 2 1 1 70 186 231 69
248 3 2 1 1 240 373 354 304
249 3 2 1 1 298 337 150 149
250 3 2 1 1 69 231 138 18
252 3 2 1 1 299 310 241 191
253 3 2 1 1 67 68 206 253
254 3 2 1 1 67 253 182 66
255 3 2 1 1 160 317 340 161
256 3 2 1 1 161 162 189 268
257 3 2 1 1 194 165 166 305
258 3 2 1 1 78 207 158 17
259 3 2 1 1 160 339 303 159
260 3 2 1 1 81 209 128 20
261 3 2 1 1 234 298 149 148
262 3 2 1 1 148 208 80 19
263 3 2 1 1 281 330 322 175
264 3 2 1 1 208 278 79 80
265 3 2 1 1 79 278 207 78
266 3 2 1 1 204 350 294 229
268 3 2 1 1 239 294 350 372
269 3 2 1 1 340 377 373 240
270 3 2 1 1 230 264 76 77
271 3 2 1 1 76 264 172 75
272 3 2 1 1 378 377 340 317
273 3 2 1 1 196 271 163 164
274 3 2 1 1 150 318 297 149
277 3 2 1 1 243 184 307 321
279 3 2 1 1 371 382 361 338
280 3 2 1 1 255 327 261 205
282 3 2 1 1 297 357 278 208
285 3 2 1 1 260 327 255 170
287 3 2 1 1 244 330 295 188
289 3 2 1 1 184 243 183 1
292 3 2 1 1 362 382 371 337
293 3 2 1 1 205 230 60 61
294 3 2 1 1 316 370 151 152
295 3 2 1 1 64 276 170 63
296 3 2 1 1 242 312 289 195
297 3 2 1 1 151 370 318 150
298 3 2 1 1 337 371 151 150
299 3 2 1 1 151 371 338 152
300 3 2 1 1 177 345 291 235
301 3 2 1 1 360 380 367 379
302 3 2 1 1 60 230 77 16
303 3 2 1 1 344 345 177 285
304 3 2 1 1 243 327 260 183
307 3 2 1 1 261 327 243 321
308 3 2 1 1 366 310 361 383
309 3 2 1 1 169 265 95 96
310 3 2 1 1 169 96 97 254
311 3 2 1 1 62 255 205 61
312 3 2 1 1 170 255 62 63
313 3 2 1 1 99 266 174 98
314 3 2 1 1 172 277 74 75
315 3 2 1 1 224 309 324 237
316 3 2 1 1 74 277 171 73
317 3 2 1 1 171 256 72 73
318 3 2 1 1 65 66 182 221
319 3 2 1 1 221 276 64 65
320 3 2 1 1 343 171 277 307
321 3 2 1 1 98 174 254 97
322 3 2 1 1 171 343 341 256
323 3 2 1 1 329 366 311 322
324 3 2 1 1 366 383 363 311
325 3 2 1 1 363 383 381 358
326 3 2 1 1 364 320 358 381
327 3 2 1 1 257 213 280 325
328 3 2 1 1 252 326 238 325
329 3 2 1 1 358 254 174 363
330 3 2 1 1 328 245 173 262
331 3 2 1 1 381 383 361 382
332 3 2 1 1 328 262 182 253
333 3 2 1 1 381 382 362 364
334 3 2 1 1 254 358 320 169
335 3 2 1 1 253 206 303 328
336 3 2 1 1 280 181 252 325
337 3 2 1 1 168 257 325 238
338 3 2 1 1 331 265 169 320
339 3 2 1 1 262 359 221 182
340 3 2 1 1 328 303 339 245
341 3 2 1 1 222 323 359 263
342 3 2 1 1 364 250 331 320
343 3 2 1 1 108 109 168 224
344 3 2 1 1 224 237 107 108
345 3 2 1 1 238 309 224 168
346 3 2 1 1 359 323 276 221
347 3 2 1 1 263 359 262 173
348 3 2 1 1 326 360 309 238
349 3 2 1 1 422 448 459 421
355 3 2 1 1 464 463 456 461
361 3 2 1 1 455 460 464 462
362 3 2 1 1 449 448 422 423
363 3 2 1 1 454 460 422 421
365 3 2 1 1 454 463 464 460
366 3 2 1 1 423 422 460 455
367 3 2 1 1 426 427 461 456
368 3 2 1 1 442 441 427 426
369 3 2 1 1 457 461 427 428
370 3 2 1 1 427 441 458 428
371 3 2 1 1 431 444 445 432
372 3 2 1 1 431 432 462 457
373 3 2 1 1 432 445 446 433
374 3 2 1 1 455 462 432 433
375 3 2 1 1 438 437 463 454
376 3 2 1 1 438 451 452 437
377 3 2 1 1 437 452 453 436
378 3 2 1 1 456 463 437 436
388 3 2 1 1 462 464 461 457
392 3 2 1 1 444 431 399 429
398 3 2 1 1 451 438 396 420
181 3 2 1 1 496 197 34 465
184 3 2 1 1 33 196 477 465
189 3 2 1 1 485 226 135 470
190 3 2 1 1 225 200 484 483
193 3 2 1 1 145 225 483 469
196 3 2 1 1 154 191 481 467
198 3 2 1 1 480 199 154 467
200 3 2 1 1 479 274 199 480
201 3 2 1 1 274 479 478 198
205 3 2 1 1 466 164 198 478
206 3 2 1 1 247 270 471 192
207 3 2 1 1 471 270 193 487
209 3 2 1 1 188 145 469 482
212 3 2 1 1 191 241 468 481
213 3 2 1 1 468 244 188 482
215 3 2 1 1 196 164 466 477
232 3 2 1 1 200 226 485 484
234 3 2 1 1 476 144 197 496
237 3 2 1 1 474 242 195 492
238 3 2 1 1 194 248 474 491
239 3 2 1 1 473 165 194 491
251 3 2 1 1 241 329 244 468
267 3 2 1 1 248 319 242 474
275 3 2 1 1 201 275 489 488
276 3 2 1 1 134 228 493 475
278 3 2 1 1 492 195 134 475
281 3 2 1 1 490 202 165 473
283 3 2 1 1 489 275 202 490
284 3 2 1 1 493 228 204 494
286 3 2 1 1 155 201 488 472
288 3 2 1 1 487 193 155 472
290 3 2 1 1 486 227 192 471
291 3 2 1 1 135 227 486 470
305 3 2 1 1 495 229 144 476
306 3 2 1 1 494 204 229 495
350 3 2 1 1 489 448 449 488
351 3 2 1 1 459 448 489 490
352 3 2 1 1 439 459 490 473
353 3 2 1 1 492 450 491 474
354 3 2 1 1 491 450 439 473
356 3 2 1 1 420 450 492 475
357 3 2 1 1 452 451 493 494
358 3 2 1 1 453 452 494 495
359 3 2 1 1 425 453 495 476
360 3 2 1 1 496 440 425 476
364 3 2 1 1 451 420 475 493
379 3 2 1 1 488 449 434 472
380 3 2 1 1 430 458 480 467
381 3 2 1 1 458 441 479 480
382 3 2 1 1 479 441 442 478
383 3 2 1 1 482 443 481 468
384 3 2 1 1 481 443 430 467
385 3 2 1 1 429 443 482 469
386 3 2 1 1 478 442 435 466
387 3 2 1 1 444 429 469 483
389 3 2 1 1 435 440 477 466
390 3 2 1 1 445 444 483 484
391 3 2 1 1 477 440 496 465
393 3 2 1 1 446 445 484 485
394 3 2 1 1 424 446 485 470
395 3 2 1 1 487 447 486 471
396 3 2 1 1 434 447 487 472
397 3 2 1 1 486 447 424 470
$EndElements
