$MeshFormat
2.2 0 8
$EndMeshFormat
$Nodes
861
1 0 0 0
2 0 10 0
3 0 20 0
4 0 50 0
5 0 60 0
6 0 80 0
7 0 200 0
8 0 200 100
9 0 0 100
10 0 5 0
11 0 15 0
12 0 25 0
13 0 30 0
14 0 35 0
15 0 40 0
16 0 45 0
17 0 55 0
18 0 65 0
19 0 70 0
20 0 75 0
21 0 85 0
22 0 90 0
23 0 95 0
24 0 100 0
25 0 105 0
26 0 110 0
27 0 115 0
28 0 120 0
29 0 125 0
30 0 130 0
31 0 135 0
32 0 140 0
33 0 145 0
34 0 150 0
35 0 155 0
36 0 160 0
37 0 165 0
38 0 170 0
39 0 175 0
40 0 180 0
41 0 185 0
42 0 190 0
43 0 195 0
44 0 200 5
45 0 200 10
46 0 200 15
47 0 200 20
48 0 200 25
49 0 200 30
50 0 200 35
51 0 200 40
52 0 200 45
53 0 200 50
54 0 200 55
55 0 200 60
56 0 200 65
57 0 200 70
58 0 200 75
59 0 200 80
60 0 200 85
61 0 200 90
62 0 200 95
63 0 195 100
64 0 190 100
65 0 185 100
66 0 180 100
67 0 175 100
68 0 170 100
69 0 165 100
70 0 160 100
71 0 155 100
72 0 150 100
73 0 145 100
74 0 140 100
75 0 135 100
76 0 130 100
77 0 125 100
78 0 120 100
79 0 115 100
80 0 110 100
81 0 105 100
82 0 100 100
83 0 95 100
84 0 90 100
85 0 85 100
86 0 80 100
87 0 75 100
88 0 70 100
89 0 65 100
90 0 60 100
91 0 55 100
92 0 50 100
93 0 45 100
94 0 40 100
95 0 35 100
96 0 30 100
97 0 25 100
98 0 20 100
99 0 15 100
100 0 10 100
101 0 4.99999999999997 100
102 0 0 95
103 0 0 90
104 0 0 85
105 0 0 80
106 0 0 75
107 0 0 70
108 0 0 65
109 0 0 60
110 0 0 55
111 0 0 50
112 0 0 45
113 0 0 40
114 0 0 35
115 0 0 30
116 0 0 25
117 0 0 20
118 0 0 15
119 0 0 10
120 0 0 5
121 0 54.9999990257705 94.9999963264028
122 0 79.9949757999198 95.0010297671652
123 0 114.95111053258 95.0044227893091
124 0 135 5
125 0 50 5
126 0 75 5
127 0 95 5
128 0 149.999994893244 95.0000000159273
129 0 195 50
130 0 5 60
131 0 5 35
132 0 155 5
133 0 195 35
134 0 30 95
135 0 195 70
136 0 20 5
137 0 170 5
138 0 180 95
139 0 5 75
140 0 20 95
141 0 195 20
142 0 195 90
143 0 5 10
144 0 99.9462112676887 95.025809853991
145 0 5 85
146 0 180 5
147 0 134.997924533805 95.0000187319907
148 0 110 5
149 0 60 5
150 0 69.9996416994208 94.9996403864767
151 0 30 5
152 0 170 95
153 0 44.9999999945412 94.9999999824969
154 0 5 95
155 0 190 5
156 0 39.9999999993177 94.9999999978121
157 0 124.981482391682 95.0004916652839
158 0 94.9598312392084 95.0248287816513
159 0 195 85
160 0 5 15
161 0 195 5
162 0 195 60
163 0 64.9999221081879 94.9998621798286
164 0 89.9738300852798 95.0172211859861
165 0 115 5
166 0 5 5
167 0 195 95
168 0 195 15
169 0 109.933470015865 95.0122058909128
170 0 15 95
171 0 5 50
172 0 5 40
173 0 5 25
174 0 35 5
175 0 40 5
176 0 195 30
177 0 10 5
178 0 80 5
179 0 65 5
180 0 85 5
181 0 120 5
182 0 140 5
183 0 195 45
184 0 195 80
185 0 190 95
186 0 164.999999999683 95.0000000000009
187 0 159.999999978379 95.0000000000602
188 0 5 65
189 0 144.999942758297 95.0000001852146
190 0 125 5
191 0 100 5
192 0 145 5
193 0 160 5
194 0 69.9989188823943 89.9983554051476
195 0 114.827714733107 90.0188970437928
196 0 94.8514434097598 90.1007697530364
197 0 135 10
198 0 75 10
199 0 110 10
200 0 149.99996812736 90.0000001218959
201 0 190 50
202 0 155 10
203 0 44.9999999838886 89.9999999034122
204 0 10 60
205 0 190 35
206 0 10 35
207 0 30 10
208 0 169.999999999871 90.0000000000004
209 0 190 85
210 0 20 90
211 0 190 20
212 0 120 10
213 0 59.9999856336268 94.9999604845933
214 0 34.9999999999147 94.9999999997265
215 0 119.959776927751 95.0025084191382
216 0 49.9999998370902 94.9999993716446
217 0 190 90
218 0 84.9849696238189 95.0081838506021
219 0 10 10
220 0 74.9980626214046 94.9994790952959
221 0 10 95
222 0 150 5
223 0 165 5
224 0 195 75
225 0 129.991395883874 95.0001561126306
226 0 104.925182804102 95.0239363517297
227 0 5 90
228 0 5 45
229 0 130 5
230 0 195 55
231 0 5 30
232 0 15 5
233 0 45 5
234 0 55 5
235 0 195 40
236 0 195 65
237 0 185 95
238 0 5 80
239 0 5 70
240 0 5 55
241 0 35 10
242 0 25 5
243 0 70 5
244 0 90 5
245 0 175 5
246 0 195 10
247 0 174.999999999992 95
248 0 154.9999973247 95.0000000097344
249 0 139.999353506642 95.000005216765
250 0 80 10
251 0 164.999999997026 90.0000000000083
252 0 195 25
253 0 25 95
254 0 5 20
255 0 105 5
256 0 185 5
257 0 140 10
258 0 75 15
259 0 135 15
260 0 169.99999999682 85.0000000000089
261 0 190 75
262 0 30 15
263 0 10 20
264 0 129.976562192768 90.000520230463
265 0 55 10
266 0 170 10
267 0 79.9810788729021 90.0045540075907
268 0 54.9999997141244 89.9999742596746
269 0 64.9998110255497 89.9993002263822
270 0 89.9001454926781 90.0706119323818
271 0 10 45
272 0 160 10
273 0 10 55
274 0 10 30
275 0 10 70
276 0 15 90
277 0 190 40
278 0 90 10
279 0 185 10
280 0 190 65
281 0 190 55
282 0 159.999999788605 90.0000000007314
283 0 145 10
284 0 190 30
285 0 29.9999999999813 89.9999999998759
286 0 125 10
287 0 99.7901081061454 90.1114610743478
288 0 74.9934200364534 89.9983899935883
289 0 119.884070764878 90.0075461783021
290 0 39.9999999964742 89.9999999778731
291 0 49.9999998338265 89.9999960016196
292 0 185 90
293 0 15 10
294 0 10 15
295 0 190 80
296 0 190 10
297 0 109.77154181092 90.0485790427466
298 0 10 40
299 0 190 45
300 0 10 65
301 0 100 10
302 0 105 10
303 0 130 10
304 0 45 10
305 0 20 10
306 0 10 85
307 0 139.998422305307 90.0000135368266
308 0 144.999627475945 90.0000026773685
309 0 40 10
310 0 25 10
311 0 10 90
312 0 10 75
313 0 65 10
314 0 85 10
315 0 70 10
316 0 179.999999999999 90
317 0 174.999999999784 90.0000000000006
318 0 190 15
319 0 154.999994299878 90.0000000205371
320 0 150 10
321 0 24.9999999999977 89.9999999999845
322 0 115 10
323 0 190 25
324 0 175 10
325 0 55.000007564332 84.9999361175134
326 0 114.670378489859 85.0492255326282
327 0 79.9551720943833 85.0137211408278
328 0 105.000000002392 15.0000001305718
329 0 139.997015377319 85.0000239959264
330 0 185 50
331 0 15 55
332 0 155 15
333 0 185 35
334 0 15 35
335 0 170 15
336 0 29.9999999999401 84.9999999993975
337 0 99.5624905529813 85.2679116075754
338 0 15 70
339 0 185 80
340 0 185 25
341 0 40 15
342 0 69.9972090131784 84.9959105249922
343 0 85 15
344 0 115 15
345 0 159.999999425582 85.0000000019163
346 0 59.9999776534173 89.9997779259996
347 0 104.75273381982 90.090031481653
348 0 185 85
349 0 84.9450146651996 90.0331104618868
350 0 124.937840576427 90.0026033876287
351 0 10 50
352 0 10 25
353 0 24.999999999991 84.999999999915
354 0 165 10
355 0 15 15
356 0 25 15
357 0 15 40
358 0 185 45
359 0 15 85
360 0 35 15
361 0 50 10
362 0 60 10
363 0 190 60
364 0 15 60
365 0 10 80
366 0 80 15
367 0 65 15
368 0 70 15
369 0 179.999999999986 85
370 0 174.999999999559 85.0000000000012
371 0 154.999992005038 85.0000000216539
372 0 164.99999990113 85.0000000003239
373 0 190 70
374 0 94.661154925411 85.2557519085134
375 0 50.000000864817 84.999988976131
376 0 45.0000000863441 84.9999982060786
377 0 185 15
378 0 120 15
379 0 130 15
380 0 140 15
381 0 145 15
382 0 134.991483361602 90.0001547044408
383 0 149.999898063526 85.0000003648237
384 0 34.9999999993666 89.9999999959398
385 0 95 10
386 0 180 10
387 0 55.0000132345849 79.9998896728544
388 0 99.3855927574366 80.4641919751641
389 0 75 20
390 0 115.000000018571 20.0000010138517
391 0 135 20
392 0 20 55
393 0 159.999998203132 80.0000000024214
394 0 179.999999999998 50
395 0 20 35
396 0 25 20
397 0 35 20
398 0 64.999506250785 84.9981625967968
399 0 84.8822096475224 85.0768615789294
400 0 29.9999999998866 79.9999999986559
401 0 109.572090638795 85.1176913434656
402 0 185 65
403 0 174.999999999551 80.0000000000013
404 0 15 75
405 0 160 15
406 0 50 15
407 0 184.999999999999 75
408 0 180 15
409 0 40.0000000075845 84.999999742631
410 0 59.9999328297025 84.9994188119912
411 0 89.7753695405533 85.1750140980685
412 0 119.798764268434 85.0188907489119
413 0 124.898419010628 85.0060133522455
414 0 134.986190693858 85.0002510150243
415 0 104.539993369463 85.2036482360978
416 0 50.0000022781842 79.999977842992
417 0 15 25
418 0 100.000000010078 15.0000005501898
419 0 15 50
420 0 165 15
421 0 15 80
422 0 19.9999999999987 84.9999999999884
423 0 15 20
424 0 15 45
425 0 15 65
426 0 74.9839692469112 84.99805207055
427 0 45 15
428 0 20 15
429 0 80 20
430 0 60 15
431 0 15 30
432 0 185 60
433 0 179.999999999912 80.0000000000003
434 0 65 20
435 0 154.99997954626 80.0000000303132
436 0 169.999999982665 80.0000000000515
437 0 185 40
438 0 185 55
439 0 185 20
440 0 144.999191263613 85.0000046553176
441 0 150 15
442 0 175 15
443 0 140 20
444 0 110.00000000146 15.0000000796872
445 0 125 15
446 0 185 30
447 0 90.0000000049956 15.0000002727247
448 0 35.0000000003389 84.9999999621583
449 0 79.9155542021688 80.0347078632917
450 0 114.614804971574 80.0890031326282
451 0 54.9999927815332 74.9998331309637
452 0 75.0000000652354 25.0000035613972
453 0 135 25
454 0 139.995259548886 79.9999811664361
455 0 155 20
456 0 159.999995635666 74.9999999885826
457 0 179.999999999949 65.0000000000001
458 0 180 35
459 0 165 20
460 0 104.404373432454 80.3440538198495
461 0 69.9932060503261 79.9941100538517
462 0 19.9999999999998 64.9999999999974
463 0 179.999999999986 55
464 0 45 20
465 0 60 20
466 0 174.99999999717 75.0000000000072
467 0 145 20
468 0 59.9999216527092 79.9991345894426
469 0 124.882802728355 80.0081703685936
470 0 89.6536711345198 80.3000305403337
471 0 20 45
472 0 20 40
473 0 95.0000000142671 15.0000007788855
474 0 20 30
475 0 19.9999999999993 74.999999999992
476 0 24.9999999999784 79.9999999997534
477 0 129.956138028444 85.0018580666673
478 0 20 59.9999999999995
479 0 30 20
480 0 40 20
481 0 20 50
482 0 20 20
483 0 179.999999999586 75.0000000000011
484 0 55 15
485 0 70.0000000040772 20.0000002225873
486 0 164.999999431232 79.9999999998144
487 0 149.999803217708 79.9999991703915
488 0 19.9999999999962 79.9999999999585
489 0 130.000000000018 20.0000000009601
490 0 120.000000003746 20.0000002044985
491 0 105.000000162269 20.0000088587252
492 0 110.000000094689 20.0000051693481
493 0 170 20
494 0 180 20
495 0 180 45
496 0 45.0000003519222 79.9999958224558
497 0 184.99999999997 70.0000000000001
498 0 40.0000000497341 79.9999992671752
499 0 35.0000000064514 79.9999998838548
500 0 85.0000000117081 20.0000006391816
501 0 180 30
502 0 94.5079449314184 80.4363099490621
503 0 105.000040413926 25.0007070192058
504 0 94.4644387428964 75.6037248810646
505 0 24.9999999999995 54.9999999999994
506 0 45 25
507 0 174.999999999935 50.0000000000002
508 0 40.0000000306409 74.9999994552089
509 0 25 35
510 0 59.999685981662 74.9989927141225
511 0 129.949662533858 80.0019553606868
512 0 35 25
513 0 55 20
514 0 169.999999945191 75.0000000000409
515 0 115.000003629317 25.0001501217048
516 0 130.000000002917 25.0000001592544
517 0 165 25
518 0 175 35
519 0 109.505052922821 80.2020874062825
520 0 99.4260695073047 75.6156459117278
521 0 134.981250463535 80.0002636768679
522 0 25 25
523 0 90.0000001652633 20.0000090222199
524 0 19.9999999999993 69.9999999999911
525 0 179.999999999711 70.0000000000008
526 0 160 20
527 0 65.0000000005362 25.0000000292731
528 0 70.0000000115449 25.0000006302711
529 0 25 40
530 0 20 25
531 0 24.9999999999992 59.9999999999981
532 0 179.999999999959 60.0000000000001
533 0 24.9999999999999 44.9999999999999
534 0 50 20
535 0 144.998693362914 79.9999906026219
536 0 64.9982124827382 79.9971971779479
537 0 84.8062354820309 80.1394936498095
538 0 30.0000000003153 74.9999999915953
539 0 25.0000000000277 74.9999999988113
540 0 119.772840339883 80.0336200988962
541 0 149.999748265459 74.9999945480787
542 0 154.999944723141 74.9999991360819
543 0 164.999999154535 74.9999999988221
544 0 180 25
545 0 49.9999999898341 74.999959769107
546 0 74.9684440215874 80.0014908023717
547 0 180 40
548 0 150 20
549 0 175 20
550 0 140 25
551 0 100.000002825014 20.0000605198515
552 0 125.000000000829 20.0000000452366
553 0 85.0000019361236 25.000105698801
554 0 80.0000006753378 25.00003686872
555 0 74.95559098652 75.0050784844373
556 0 114.695209874227 75.1240432394941
557 0 129.955046149536 75.0001751294989
558 0 94.5841733354514 70.7195252725553
559 0 54.9999107604559 69.9997567729354
560 0 75.0001981139659 30.0001937516991
561 0 130.000000092828 30.0000019497574
562 0 30.0000000000478 54.9999999977038
563 0 149.999807385085 69.9999855176935
564 0 164.999999328248 69.9999999975498
565 0 29.9999999999962 39.9999999999107
566 0 90.0000151144626 25.0003797898658
567 0 64.9969407565934 74.9970504910631
568 0 100.000063615956 25.0009800731881
569 0 174.999999994963 65.0000000000079
570 0 174.999999999029 55.000000000001
571 0 170 25
572 0 120.000001029003 25.0000486893575
573 0 174.999999999987 45
574 0 25 30
575 0 29.999999999999 69.9999999979244
576 0 24.9999999999988 64.9999999998624
577 0 155 25
578 0 145 25
579 0 65.0000051523774 30.000006445956
580 0 139.994710662659 74.9997623920955
581 0 60.0000003215963 25.0000004077099
582 0 30 25
583 0 40 25
584 0 49.9999999995057 25.0000000011786
585 0 144.998425158245 74.9999348873095
586 0 159.999992669401 69.9999998352383
587 0 174.999999991479 70.0000000000124
588 0 119.815382647219 75.0441726151046
589 0 25.0000000000027 49.9999999998563
590 0 25.0000000000219 69.9999999990381
591 0 110.000020999219 25.0005074571838
592 0 175 30
593 0 85.0012246444616 30.0018438245502
594 0 135.000000011784 30.0000002536721
595 0 160 25
596 0 175 25
597 0 79.8814779819702 75.0616838119258
598 0 95.000005576145 20.0001090635499
599 0 45.0000001771904 74.9999915717192
600 0 125.000000225622 25.0000108822003
601 0 174.999999999997 40
602 0 35.0000000078881 74.9999998563836
603 0 104.480252229938 75.4666113062304
604 0 89.6219701758022 75.3903671686257
605 0 105.000930247165 30.0070340542804
606 0 74.9511958855171 70.0168760514649
607 0 114.82431965529 70.1486591140891
608 0 130.000006635722 35.0000215062853
609 0 169.999999997241 49.9999999998751
610 0 154.999999999899 29.9999999999471
611 0 44.9999996442327 69.9999919973268
612 0 44.9999999999307 30.000000000135
613 0 60.0000008012445 30.0000012409148
614 0 164.999999112958 64.9999999766504
615 0 169.999999999907 39.9999999999846
616 0 89.677613091113 70.4818682388719
617 0 30.0000000000451 64.9999999975414
618 0 90.0019524689275 30.0043662962103
619 0 29.9999999999986 49.999999998863
620 0 115.000098723332 30.0015477422603
621 0 35.0000000036937 69.999999910364
622 0 109.59015928697 75.2800999904662
623 0 69.9842730240548 74.9983450490555
624 0 30.000000000107 59.9999999959855
625 0 124.899811596765 75.0110908960143
626 0 30 30
627 0 29.9999999999991 34.9999999999799
628 0 95.0001749529918 25.0011260474068
629 0 29.9999999999877 44.9999999994885
630 0 149.999999999994 24.9999999999967
631 0 34.9999999999997 29.9999999999978
632 0 55.000000089227 25.0000001310253
633 0 144.9988130353 69.999876901142
634 0 169.999999791403 69.9999999981836
635 0 169.999999999988 34.9999999999981
636 0 134.981383828391 74.9995405649572
637 0 174.999999996102 60.0000000000047
638 0 84.7701016032991 75.1968404339278
639 0 154.999942587928 69.9999970165684
640 0 80.0007650804183 30.0008580480313
641 0 125.000002949729 30.0000560477366
642 0 70.0000602978145 30.0000615551109
643 0 59.9990500649534 69.9990994911695
644 0 164.999999999967 29.9999999999831
645 0 49.9999856075894 69.999938506955
646 0 140.000000001454 30.0000000316993
647 0 169.999999999994 29.9999999999976
648 0 99.6030013460039 70.7324102103365
649 0 85.0110081571351 35.0100264859978
650 0 54.9998296273564 64.9997945455319
651 0 149.999784658146 64.9999642191013
652 0 60.0000038814677 35.0000071121262
653 0 34.9999999961704 44.9999999875063
654 0 109.752488049197 70.3417993375326
655 0 69.9821420919481 70.0016907496077
656 0 34.9999999913675 54.9999999313347
657 0 124.933329223679 70.0081409594217
658 0 34.9999999962108 64.9999999058186
659 0 34.9999999999258 34.9999999998637
660 0 100.001743587294 30.009091348574
661 0 169.99999998533 54.9999999998158
662 0 145.000000000118 30.0000000039292
663 0 75.0019057986933 35.0014715154964
664 0 159.999991933638 64.9999994208911
665 0 125.000043178567 35.0003154714155
666 0 79.8837358520295 70.0884296149936
667 0 104.673619138749 70.5636136215508
668 0 64.9943844426541 69.9989519133852
669 0 119.885219370866 70.0534589191755
670 0 95.002400962686 30.0082375561195
671 0 149.999999999905 30.0000000004336
672 0 139.995178670053 69.9994464851789
673 0 39.9999999999844 30.0000000000035
674 0 49.9999999947194 30.0000000232809
675 0 55.0000003518432 30.0000006741234
676 0 169.99999980345 64.9999999966065
677 0 65.0000697265149 35.0000753710157
678 0 135.000001762692 35.0000047153898
679 0 164.999999997954 39.9999999991554
680 0 110.000450534143 30.0047507928412
681 0 159.9999999999 29.9999999999478
682 0 164.999999999423 34.9999999997293
683 0 120.000029421598 30.0005055170718
684 0 39.9999999376529 69.9999980239503
685 0 129.965503594634 69.9997339105789
686 0 49.9999675653118 64.999938459412
687 0 169.99999999872 44.9999999998471
688 0 94.7827640602038 65.7736608668381
689 0 84.7927295707677 70.2498386856968
690 0 104.846203891014 65.6263061786986
691 0 105.005413953503 35.031004859748
692 0 84.884287367959 65.2870159004038
693 0 74.9648758108611 65.030609167233
694 0 114.936842724582 65.1695758098754
695 0 125.000325447507 40.0013525609591
696 0 144.999999878686 34.9999998539314
697 0 54.9998654986509 59.999886540117
698 0 124.965443365414 65.0104630450045
699 0 60.0000207402389 40.0000452528075
700 0 44.9999999879435 35.0000000015832
701 0 164.999999765228 54.9999999715887
702 0 39.9999998653448 64.9999983610622
703 0 99.790411172868 65.7788589874351
704 0 69.9850208540258 65.0066665225434
705 0 34.9999999991899 39.9999999975507
706 0 34.9999999796525 59.9999997786143
707 0 49.9999999324358 35.000000093479
708 0 95.0147446790443 35.0309608542511
709 0 90.0170386772362 35.0216260905809
710 0 140.000000099225 35.0000004189673
711 0 39.9999999979289 34.9999999993509
712 0 169.999999881411 59.9999999961087
713 0 164.999999043569 59.9999999312253
714 0 139.996795525894 64.9992885433167
715 0 80.0065376306817 35.0049987875497
716 0 130.000094700434 40.0002950313977
717 0 44.9999943688519 64.999984416592
718 0 134.984628095394 69.9989166526045
719 0 154.999942760475 64.9999924739221
720 0 34.999999991429 49.9999999627732
721 0 115.00061481603 35.0072894926983
722 0 70.0005897583897 35.0004980127875
723 0 120.000233771386 35.0024373269956
724 0 149.99999992504 34.999999930114
725 0 154.999999969646 34.9999999768429
726 0 159.999999940396 39.9999999658277
727 0 159.999999985769 34.9999999911383
728 0 144.998868733672 64.9997822366584
729 0 59.9987351175535 64.9995307004329
730 0 164.999999972075 44.9999999910371
731 0 55.0000017255379 35.0000039860442
732 0 89.8339287364406 65.5361191062365
733 0 99.9212428238258 60.7372567832631
734 0 90.0066878325718 60.5066572852105
735 0 69.9922789405576 60.0078162379093
736 0 139.998034899777 59.9993849244783
737 0 85.0413379505593 40.0309305317173
738 0 75.0075396709494 40.005708055573
739 0 125.001212055776 45.0043837187965
740 0 139.999992832709 39.9999935173137
741 0 39.9999998401277 54.9999993612345
742 0 44.9999998973848 39.999999945528
743 0 59.9990911118672 59.9998733861816
744 0 149.999813685014 59.999950932437
745 0 55.0000014427034 40.0000089909837
746 0 159.999999693036 44.9999998523722
747 0 44.9999956442254 59.9999898773202
748 0 39.9999999777636 39.9999999814187
749 0 119.947929948214 65.0626411797133
750 0 95.0493289547346 40.0822133591615
751 0 115.002091149398 40.0220244030266
752 0 135.000010658667 40.0000414071647
753 0 159.999991942521 59.9999987446648
754 0 120.001148827113 40.0081991082139
755 0 39.9999999400311 44.9999999006757
756 0 100.012107008133 35.0392783715861
757 0 65.0003535161291 40.0004053040029
758 0 129.979034134266 65.0006522946781
759 0 134.989545316199 64.9990226076893
760 0 49.9999619378604 59.9999544184886
761 0 144.999994919251 39.999995642295
762 0 110.002515562907 35.0209003191734
763 0 154.999999478399 39.9999996533406
764 0 64.9943777986213 65.0009961490356
765 0 164.999999862654 49.9999999682397
766 0 39.9999989988877 59.9999971300069
767 0 79.9328904545211 65.1187980068129
768 0 109.893879622586 65.3713427172153
769 0 94.9553317856562 60.6724634222284
770 0 109.971669629272 60.3631991823184
771 0 54.9998609801841 54.9999654995313
772 0 119.989363847238 60.0621200156865
773 0 134.999932657527 45.0000672606299
774 0 154.999996226728 44.9999979512406
775 0 44.9999991892767 44.9999994244857
776 0 60.0000499863056 45.0001921127811
777 0 159.999995873399 54.9999989821085
778 0 44.999995036777 54.9999931545531
779 0 95.0657576579472 55.5078444225166
780 0 64.9963654911551 60.001941769716
781 0 100.032070597638 40.0979903981376
782 0 130.000270204017 45.0010904300051
783 0 80.0230884349084 40.016354665481
784 0 134.994487611369 59.9992592503654
785 0 115.005418270245 45.0522974534611
786 0 144.999210736853 59.9997746446675
787 0 74.9888770458242 60.0384224377905
788 0 154.999945797816 59.9999879463967
789 0 139.999922649583 44.9999657062035
790 0 124.986806957069 60.0179424134633
791 0 120.003546637758 45.0208208672282
792 0 49.9999997269139 40.0000014198038
793 0 90.0566462043703 40.0577229654296
794 0 39.9999995414221 49.999999296138
795 0 149.999997376044 39.9999980078054
796 0 105.01499061672 40.0857732723386
797 0 110.006123888724 40.0568484065059
798 0 70.0023638416516 40.0020593413067
799 0 159.999997950657 49.999999277286
800 0 85.0077555401513 60.2727813189637
801 0 104.929621095416 60.5705634457057
802 0 90.1069263987921 55.3611010795934
803 0 75.0099373269874 55.0343799592895
804 0 95.0904303392432 45.1740027520187
805 0 104.977561987959 55.4586418815781
806 0 85.0831026013976 45.0729827889118
807 0 75.015923391576 45.0148149117791
808 0 115.009392085958 50.0983643210586
809 0 125.002184816278 50.0101221739244
810 0 49.9999957510861 44.9999996478649
811 0 139.998879759294 54.9996892384812
812 0 154.999988514823 49.9999948509976
813 0 144.99995524688 44.9999741132419
814 0 65.0008198808716 45.0012542592227
815 0 44.9999971095016 49.9999973117673
816 0 120.00417002614 55.0559225848542
817 0 59.9994296128667 55.0003141824939
818 0 54.9999950824803 45.0000319136772
819 0 134.999412218244 50.000161439084
820 0 105.020660833863 45.1768531658391
821 0 110.009032956929 45.118405685009
822 0 149.999867721811 54.9999529787273
823 0 129.989754785099 60.0032139888714
824 0 154.999956645178 54.9999863136464
825 0 70.0002567767467 55.011238506975
826 0 149.999980223213 44.9999887948117
827 0 49.9999628023143 54.9999771168745
828 0 79.9937642884818 60.1240264826215
829 0 114.981918026096 60.1779148179779
830 0 99.994233438472 55.532446231127
831 0 80.0411052176385 55.1036078557951
832 0 100.043281999251 50.3451942378006
833 0 105.012511202892 50.2960837587377
834 0 109.994671736512 55.2873745553176
835 0 54.9999253292621 50.0000364174649
836 0 75.0193710555986 50.0287431651729
837 0 59.9999195778769 50.0004161500847
838 0 124.99798287697 55.0189319164552
839 0 64.9989347276938 55.0029922809144
840 0 129.996551093382 55.0048894139033
841 0 139.999568375024 49.9999082116793
842 0 129.999590425788 50.0037741280078
843 0 80.0438311749426 45.0406219521983
844 0 144.999795928298 49.9999293852356
845 0 110.006367347596 50.1999497567265
846 0 100.049032074825 45.1972247045405
847 0 144.999493174921 54.9998407046695
848 0 149.999906874688 49.9999657698313
849 0 134.997394784362 55.0008080589897
850 0 90.1031587325473 45.1253636026921
851 0 120.005282578883 50.0434599375096
852 0 70.0051949271349 45.0060532503905
853 0 49.9999734737911 49.9999993680925
854 0 85.0772487786584 55.2171206209178
855 0 115.000499520281 55.1529078305999
856 0 90.119273563994 50.2303528578021
857 0 85.0894608870798 50.1450272784283
858 0 70.005514622057 50.0107504461036
859 0 80.0493742127674 50.0767409935689
860 0 65.0010380410022 50.0034225229849
861 0 95.0854269064893 50.3118253091206
$EndNodes
$Elements
800
1 3 2 1 1 519 622 556 450
2 3 2 1 1 769 734 802 779
3 3 2 1 1 830 779 861 832
4 3 2 1 1 805 833 845 834
5 3 2 1 1 694 768 770 829
6 3 2 1 1 861 856 850 804
7 3 2 1 1 832 861 804 846
8 3 2 1 1 856 857 806 850
9 3 2 1 1 689 692 732 616
10 3 2 1 1 692 800 734 732
11 3 2 1 1 666 767 692 689
12 3 2 1 1 834 845 808 855
13 3 2 1 1 772 829 855 816
14 3 2 1 1 807 836 858 852
15 3 2 1 1 852 858 860 814
16 3 2 1 1 817 837 860 839
17 3 2 1 1 855 808 851 816
18 3 2 1 1 851 809 838 816
19 3 2 1 1 838 809 842 840
20 3 2 1 1 624 617 576 531
21 3 2 1 1 857 859 843 806
22 3 2 1 1 835 853 810 818
23 3 2 1 1 617 624 706 658
24 3 2 1 1 711 700 742 748
25 3 2 1 1 815 794 755 775
26 3 2 1 1 213 346 269 163
27 3 2 1 1 657 669 749 698
28 3 2 1 1 347 415 401 297
29 3 2 1 1 410 398 269 346
30 3 2 1 1 290 409 376 203
31 3 2 1 1 706 766 702 658
32 3 2 1 1 832 846 820 833
33 3 2 1 1 853 827 778 815
34 3 2 1 1 840 842 819 849
35 3 2 1 1 760 747 778 827
36 3 2 1 1 214 134 285 384
37 3 2 1 1 841 811 849 819
38 3 2 1 1 707 792 742 700
39 3 2 1 1 325 410 346 268
40 3 2 1 1 291 268 121 216
41 3 2 1 1 468 387 451 510
42 3 2 1 1 624 562 656 706
43 3 2 1 1 159 184 59 60
44 3 2 1 1 288 267 122 220
45 3 2 1 1 213 121 268 346
46 3 2 1 1 167 185 217 142
47 3 2 1 1 142 217 209 159
48 3 2 1 1 218 349 270 164
49 3 2 1 1 399 411 270 349
50 3 2 1 1 400 499 448 336
51 3 2 1 1 511 521 414 477
52 3 2 1 1 160 254 117 118
53 3 2 1 1 166 177 219 143
54 3 2 1 1 160 143 219 294
55 3 2 1 1 217 292 348 209
56 3 2 1 1 321 253 140 210
57 3 2 1 1 295 261 224 184
58 3 2 1 1 290 203 153 156
59 3 2 1 1 348 369 433 339
60 3 2 1 1 499 400 538 602
61 3 2 1 1 660 670 628 568
62 3 2 1 1 760 827 771 697
63 3 2 1 1 758 823 784 759
64 3 2 1 1 836 807 843 859
65 3 2 1 1 169 80 81 226
66 3 2 1 1 95 96 134 214
67 3 2 1 1 101 154 221 100
68 3 2 1 1 221 154 227 311
69 3 2 1 1 327 399 349 267
70 3 2 1 1 574 626 627 509
71 3 2 1 1 720 794 741 656
72 3 2 1 1 701 713 753 777
73 3 2 1 1 780 743 817 839
74 3 2 1 1 810 792 745 818
75 3 2 1 1 92 93 153 216
76 3 2 1 1 102 103 227 154
77 3 2 1 1 289 215 123 195
78 3 2 1 1 223 354 272 193
79 3 2 1 1 296 318 377 279
80 3 2 1 1 412 413 350 289
81 3 2 1 1 302 328 418 301
82 3 2 1 1 399 327 449 537
83 3 2 1 1 272 354 420 405
84 3 2 1 1 510 567 536 468
85 3 2 1 1 575 621 602 538
86 3 2 1 1 455 577 630 548
87 3 2 1 1 630 671 662 578
88 3 2 1 1 677 757 699 652
89 3 2 1 1 671 724 696 662
90 3 2 1 1 735 704 764 780
91 3 2 1 1 843 807 738 783
92 3 2 1 1 285 134 253 321
93 3 2 1 1 505 589 619 562
94 3 2 1 1 705 653 629 565
95 3 2 1 1 655 623 567 668
96 3 2 1 1 712 713 701 661
97 3 2 1 1 90 91 121 213
98 3 2 1 1 347 297 169 226
99 3 2 1 1 289 195 326 412
100 3 2 1 1 414 329 307 382
101 3 2 1 1 472 471 424 357
102 3 2 1 1 421 404 475 488
103 3 2 1 1 528 642 579 527
104 3 2 1 1 715 663 560 640
105 3 2 1 1 711 673 612 700
106 3 2 1 1 664 753 713 614
107 3 2 1 1 839 860 858 825
108 3 2 1 1 83 84 164 158
109 3 2 1 1 87 88 150 220
110 3 2 1 1 352 263 423 417
111 3 2 1 1 286 303 379 445
112 3 2 1 1 293 305 428 355
113 3 2 1 1 450 540 412 326
114 3 2 1 1 482 423 355 428
115 3 2 1 1 469 511 477 413
116 3 2 1 1 617 658 621 575
117 3 2 1 1 580 672 633 585
118 3 2 1 1 666 606 693 767
119 3 2 1 1 783 738 663 715
120 3 2 1 1 847 844 848 822
121 3 2 1 1 9 102 154 101
122 3 2 1 1 339 295 209 348
123 3 2 1 1 538 539 590 575
124 3 2 1 1 576 617 575 590
125 3 2 1 1 811 841 844 847
126 3 2 1 1 112 228 171 111
127 3 2 1 1 274 231 173 352
128 3 2 1 1 300 275 239 188
129 3 2 1 1 538 400 476 539
130 3 2 1 1 498 409 448 499
131 3 2 1 1 438 432 532 463
132 3 2 1 1 478 531 576 462
133 3 2 1 1 624 531 505 562
134 3 2 1 1 500 523 566 553
135 3 2 1 1 568 628 598 551
136 3 2 1 1 562 619 720 656
137 3 2 1 1 766 706 656 741
138 3 2 1 1 778 741 794 815
139 3 2 1 1 860 837 776 814
140 3 2 1 1 835 818 776 837
141 3 2 1 1 349 218 122 267
142 3 2 1 1 273 204 130 240
143 3 2 1 1 235 183 299 277
144 3 2 1 1 421 365 312 404
145 3 2 1 1 462 524 338 425
146 3 2 1 1 478 462 425 364
147 3 2 1 1 531 478 392 505
148 3 2 1 1 589 505 392 481
149 3 2 1 1 590 524 462 576
150 3 2 1 1 524 590 539 475
151 3 2 1 1 602 621 684 508
152 3 2 1 1 629 653 720 619
153 3 2 1 1 820 796 797 821
154 3 2 1 1 54 230 129 53
155 3 2 1 1 135 57 58 224
156 3 2 1 1 61 62 167 142
157 3 2 1 1 189 128 72 73
158 3 2 1 1 147 75 76 225
159 3 2 1 1 78 79 123 215
160 3 2 1 1 158 144 82 83
161 3 2 1 1 85 86 122 218
162 3 2 1 1 163 150 88 89
163 3 2 1 1 213 163 89 90
164 3 2 1 1 156 153 93 94
165 3 2 1 1 113 114 131 172
166 3 2 1 1 119 120 166 143
167 3 2 1 1 297 195 123 169
168 3 2 1 1 308 200 128 189
169 3 2 1 1 176 133 205 284
170 3 2 1 1 225 264 382 147
171 3 2 1 1 264 225 157 350
172 3 2 1 1 184 159 209 295
173 3 2 1 1 273 331 364 204
174 3 2 1 1 384 448 409 290
175 3 2 1 1 275 300 425 338
176 3 2 1 1 285 321 353 336
177 3 2 1 1 392 331 419 481
178 3 2 1 1 475 404 338 524
179 3 2 1 1 334 395 472 357
180 3 2 1 1 331 392 478 364
181 3 2 1 1 529 472 395 509
182 3 2 1 1 413 412 540 469
183 3 2 1 1 530 417 423 482
184 3 2 1 1 424 471 481 419
185 3 2 1 1 353 422 488 476
186 3 2 1 1 480 464 506 583
187 3 2 1 1 506 464 534 584
188 3 2 1 1 472 529 533 471
189 3 2 1 1 476 488 475 539
190 3 2 1 1 471 533 589 481
191 3 2 1 1 435 487 541 542
192 3 2 1 1 535 585 541 487
193 3 2 1 1 509 627 565 529
194 3 2 1 1 463 532 637 570
195 3 2 1 1 529 565 629 533
196 3 2 1 1 619 589 533 629
197 3 2 1 1 623 655 606 555
198 3 2 1 1 712 661 570 637
199 3 2 1 1 613 579 677 652
200 3 2 1 1 565 627 659 705
201 3 2 1 1 659 631 673 711
202 3 2 1 1 699 745 731 652
203 3 2 1 1 818 745 699 776
204 3 2 1 1 750 708 756 781
205 3 2 1 1 775 742 792 810
206 3 2 1 1 699 757 814 776
207 3 2 1 1 56 236 162 55
208 3 2 1 1 144 226 81 82
209 3 2 1 1 218 164 84 85
210 3 2 1 1 214 156 94 95
211 3 2 1 1 206 131 231 274
212 3 2 1 1 224 261 373 135
213 3 2 1 1 150 163 269 194
214 3 2 1 1 228 271 351 171
215 3 2 1 1 131 206 298 172
216 3 2 1 1 271 228 172 298
217 3 2 1 1 129 230 281 201
218 3 2 1 1 357 298 206 334
219 3 2 1 1 274 431 334 206
220 3 2 1 1 321 210 422 353
221 3 2 1 1 156 214 384 290
222 3 2 1 1 147 382 307 249
223 3 2 1 1 295 339 407 261
224 3 2 1 1 419 351 271 424
225 3 2 1 1 298 357 424 271
226 3 2 1 1 351 419 331 273
227 3 2 1 1 352 417 431 274
228 3 2 1 1 267 288 426 327
229 3 2 1 1 194 342 426 288
230 3 2 1 1 195 297 401 326
231 3 2 1 1 204 364 425 300
232 3 2 1 1 275 338 404 312
233 3 2 1 1 395 334 431 474
234 3 2 1 1 574 509 395 474
235 3 2 1 1 329 414 521 454
236 3 2 1 1 359 421 488 422
237 3 2 1 1 417 530 474 431
238 3 2 1 1 483 466 587 525
239 3 2 1 1 492 591 503 491
240 3 2 1 1 599 496 498 508
241 3 2 1 1 454 521 636 580
242 3 2 1 1 474 530 522 574
243 3 2 1 1 626 574 522 582
244 3 2 1 1 503 605 660 568
245 3 2 1 1 707 700 612 674
246 3 2 1 1 627 626 631 659
247 3 2 1 1 580 636 718 672
248 3 2 1 1 557 685 718 636
249 3 2 1 1 785 821 797 751
250 3 2 1 1 822 848 812 824
251 3 2 1 1 239 139 106 107
252 3 2 1 1 114 115 231 131
253 3 2 1 1 216 153 203 291
254 3 2 1 1 273 240 171 351
255 3 2 1 1 301 191 255 302
256 3 2 1 1 173 254 263 352
257 3 2 1 1 407 339 433 483
258 3 2 1 1 261 407 497 373
259 3 2 1 1 593 553 566 618
260 3 2 1 1 665 723 683 641
261 3 2 1 1 714 672 718 759
262 3 2 1 1 820 821 845 833
263 3 2 1 1 190 29 30 229
264 3 2 1 1 176 49 50 133
265 3 2 1 1 50 51 235 133
266 3 2 1 1 56 57 135 236
267 3 2 1 1 157 225 76 77
268 3 2 1 1 215 157 77 78
269 3 2 1 1 97 98 140 253
270 3 2 1 1 113 172 228 112
271 3 2 1 1 204 300 188 130
272 3 2 1 1 239 275 312 139
273 3 2 1 1 194 288 220 150
274 3 2 1 1 294 263 254 160
275 3 2 1 1 363 281 230 162
276 3 2 1 1 236 280 363 162
277 3 2 1 1 219 177 232 293
278 3 2 1 1 217 185 237 292
279 3 2 1 1 229 303 286 190
280 3 2 1 1 376 375 291 203
281 3 2 1 1 422 210 276 359
282 3 2 1 1 355 294 219 293
283 3 2 1 1 135 373 280 236
284 3 2 1 1 207 241 360 262
285 3 2 1 1 309 341 360 241
286 3 2 1 1 314 343 366 250
287 3 2 1 1 207 262 356 310
288 3 2 1 1 356 262 479 396
289 3 2 1 1 360 397 479 262
290 3 2 1 1 294 355 423 263
291 3 2 1 1 309 304 427 341
292 3 2 1 1 310 356 428 305
293 3 2 1 1 359 306 365 421
294 3 2 1 1 307 329 440 308
295 3 2 1 1 468 410 325 387
296 3 2 1 1 360 341 480 397
297 3 2 1 1 482 428 356 396
298 3 2 1 1 280 402 432 363
299 3 2 1 1 343 500 429 366
300 3 2 1 1 280 373 497 402
301 3 2 1 1 452 528 485 389
302 3 2 1 1 530 482 396 522
303 3 2 1 1 479 582 522 396
304 3 2 1 1 427 406 534 464
305 3 2 1 1 483 525 497 407
306 3 2 1 1 341 427 464 480
307 3 2 1 1 389 429 554 452
308 3 2 1 1 528 527 434 485
309 3 2 1 1 465 434 527 581
310 3 2 1 1 329 454 535 440
311 3 2 1 1 383 440 535 487
312 3 2 1 1 640 560 452 554
313 3 2 1 1 513 465 581 632
314 3 2 1 1 397 512 582 479
315 3 2 1 1 397 480 583 512
316 3 2 1 1 503 568 551 491
317 3 2 1 1 626 582 512 631
318 3 2 1 1 534 513 632 584
319 3 2 1 1 566 523 598 628
320 3 2 1 1 454 580 585 535
321 3 2 1 1 593 640 554 553
322 3 2 1 1 625 657 685 557
323 3 2 1 1 613 675 632 581
324 3 2 1 1 506 612 673 583
325 3 2 1 1 512 583 673 631
326 3 2 1 1 506 584 674 612
327 3 2 1 1 675 674 584 632
328 3 2 1 1 665 608 716 695
329 3 2 1 1 672 714 728 633
330 3 2 1 1 670 660 756 708
331 3 2 1 1 657 698 758 685
332 3 2 1 1 649 737 783 715
333 3 2 1 1 714 736 786 728
334 3 2 1 1 714 759 784 736
335 3 2 1 1 784 849 811 736
336 3 2 1 1 697 771 817 743
337 3 2 1 1 837 817 771 835
338 3 2 1 1 815 775 810 853
339 3 2 1 1 808 845 821 785
340 3 2 1 1 735 825 803 787
341 3 2 1 1 858 836 803 825
342 3 2 1 1 859 831 803 836
343 3 2 1 1 177 166 10 2
344 3 2 1 1 1 10 166 120
345 3 2 1 1 2 11 232 177
346 3 2 1 1 165 148 26 27
347 3 2 1 1 47 141 168 46
348 3 2 1 1 49 176 252 48
349 3 2 1 1 55 162 230 54
350 3 2 1 1 184 224 58 59
351 3 2 1 1 8 63 167 62
352 3 2 1 1 185 167 63 64
353 3 2 1 1 64 65 237 185
354 3 2 1 1 74 249 189 73
355 3 2 1 1 147 249 74 75
356 3 2 1 1 98 99 170 140
357 3 2 1 1 107 108 188 239
358 3 2 1 1 240 130 109 110
359 3 2 1 1 108 109 130 188
360 3 2 1 1 110 111 171 240
361 3 2 1 1 231 115 116 173
362 3 2 1 1 116 117 254 173
363 3 2 1 1 234 265 361 125
364 3 2 1 1 233 125 361 304
365 3 2 1 1 191 301 385 127
366 3 2 1 1 235 277 205 133
367 3 2 1 1 293 232 136 305
368 3 2 1 1 237 138 316 292
369 3 2 1 1 199 302 255 148
370 3 2 1 1 234 149 362 265
371 3 2 1 1 179 313 362 149
372 3 2 1 1 241 207 151 174
373 3 2 1 1 310 242 151 207
374 3 2 1 1 148 165 322 199
375 3 2 1 1 140 170 276 210
376 3 2 1 1 309 241 174 175
377 3 2 1 1 233 304 309 175
378 3 2 1 1 307 308 189 249
379 3 2 1 1 322 344 444 199
380 3 2 1 1 141 252 323 211
381 3 2 1 1 322 212 378 344
382 3 2 1 1 170 221 311 276
383 3 2 1 1 145 306 311 227
384 3 2 1 1 145 238 365 306
385 3 2 1 1 139 312 365 238
386 3 2 1 1 136 242 310 305
387 3 2 1 1 127 385 278 244
388 3 2 1 1 198 250 366 258
389 3 2 1 1 176 284 323 252
390 3 2 1 1 198 258 368 315
391 3 2 1 1 429 389 258 366
392 3 2 1 1 350 413 477 264
393 3 2 1 1 361 265 484 406
394 3 2 1 1 362 430 484 265
395 3 2 1 1 194 269 398 342
396 3 2 1 1 311 306 359 276
397 3 2 1 1 314 278 447 343
398 3 2 1 1 473 447 278 385
399 3 2 1 1 363 432 438 281
400 3 2 1 1 348 292 316 369
401 3 2 1 1 385 301 418 473
402 3 2 1 1 199 444 328 302
403 3 2 1 1 427 304 361 406
404 3 2 1 1 200 308 440 383
405 3 2 1 1 313 315 368 367
406 3 2 1 1 316 317 370 369
407 3 2 1 1 416 387 325 375
408 3 2 1 1 519 450 326 401
409 3 2 1 1 551 418 328 491
410 3 2 1 1 492 491 328 444
411 3 2 1 1 523 500 343 447
412 3 2 1 1 390 492 444 344
413 3 2 1 1 330 394 495 358
414 3 2 1 1 313 367 430 362
415 3 2 1 1 258 389 485 368
416 3 2 1 1 367 368 485 434
417 3 2 1 1 369 370 403 433
418 3 2 1 1 345 371 435 393
419 3 2 1 1 383 487 435 371
420 3 2 1 1 345 393 486 372
421 3 2 1 1 445 552 490 378
422 3 2 1 1 342 398 536 461
423 3 2 1 1 410 468 536 398
424 3 2 1 1 411 399 537 470
425 3 2 1 1 497 525 457 402
426 3 2 1 1 433 403 466 483
427 3 2 1 1 534 406 484 513
428 3 2 1 1 598 473 418 551
429 3 2 1 1 342 461 546 426
430 3 2 1 1 554 429 500 553
431 3 2 1 1 367 434 465 430
432 3 2 1 1 402 457 532 432
433 3 2 1 1 393 435 542 456
434 3 2 1 1 403 436 514 466
435 3 2 1 1 379 489 552 445
436 3 2 1 1 393 456 543 486
437 3 2 1 1 543 456 586 564
438 3 2 1 1 587 569 457 525
439 3 2 1 1 430 465 513 484
440 3 2 1 1 557 511 469 625
441 3 2 1 1 638 604 470 537
442 3 2 1 1 447 473 598 523
443 3 2 1 1 436 486 543 514
444 3 2 1 1 552 600 572 490
445 3 2 1 1 390 515 591 492
446 3 2 1 1 394 507 573 495
447 3 2 1 1 498 499 602 508
448 3 2 1 1 570 661 609 507
449 3 2 1 1 599 508 684 611
450 3 2 1 1 543 564 634 514
451 3 2 1 1 466 514 634 587
452 3 2 1 1 683 620 515 572
453 3 2 1 1 489 516 600 552
454 3 2 1 1 635 518 601 615
455 3 2 1 1 511 557 636 521
456 3 2 1 1 581 527 579 613
457 3 2 1 1 457 569 637 532
458 3 2 1 1 449 597 638 537
459 3 2 1 1 541 563 639 542
460 3 2 1 1 456 542 639 586
461 3 2 1 1 622 654 607 556
462 3 2 1 1 516 561 641 600
463 3 2 1 1 541 585 633 563
464 3 2 1 1 586 664 614 564
465 3 2 1 1 614 676 634 564
466 3 2 1 1 637 569 676 712
467 3 2 1 1 507 609 687 573
468 3 2 1 1 569 587 634 676
469 3 2 1 1 556 607 669 588
470 3 2 1 1 503 591 680 605
471 3 2 1 1 561 594 678 608
472 3 2 1 1 572 600 641 683
473 3 2 1 1 756 660 605 691
474 3 2 1 1 704 693 606 655
475 3 2 1 1 561 608 665 641
476 3 2 1 1 678 752 716 608
477 3 2 1 1 566 628 670 618
478 3 2 1 1 593 618 709 649
479 3 2 1 1 708 709 618 670
480 3 2 1 1 563 633 728 651
481 3 2 1 1 563 651 719 639
482 3 2 1 1 586 639 719 664
483 3 2 1 1 593 649 715 640
484 3 2 1 1 560 663 722 642
485 3 2 1 1 705 748 755 653
486 3 2 1 1 753 664 719 788
487 3 2 1 1 723 665 695 754
488 3 2 1 1 607 694 749 669
489 3 2 1 1 674 675 731 707
490 3 2 1 1 614 713 712 676
491 3 2 1 1 620 721 762 680
492 3 2 1 1 759 718 685 758
493 3 2 1 1 747 760 686 717
494 3 2 1 1 781 756 691 796
495 3 2 1 1 704 735 787 693
496 3 2 1 1 749 772 790 698
497 3 2 1 1 717 702 766 747
498 3 2 1 1 773 782 716 752
499 3 2 1 1 651 744 788 719
500 3 2 1 1 754 751 721 723
501 3 2 1 1 651 728 786 744
502 3 2 1 1 842 809 739 782
503 3 2 1 1 791 739 809 851
504 3 2 1 1 752 740 789 773
505 3 2 1 1 742 775 755 748
506 3 2 1 1 777 753 788 824
507 3 2 1 1 751 754 791 785
508 3 2 1 1 693 787 828 767
509 3 2 1 1 782 773 819 842
510 3 2 1 1 750 781 846 804
511 3 2 1 1 737 806 843 783
512 3 2 1 1 823 840 849 784
513 3 2 1 1 736 811 847 786
514 3 2 1 1 744 786 847 822
515 3 2 1 1 744 822 824 788
516 3 2 1 1 773 789 841 819
517 3 2 1 1 813 844 841 789
518 3 2 1 1 785 791 851 808
519 3 2 1 1 750 804 850 793
520 3 2 1 1 737 793 850 806
521 3 2 1 1 813 826 848 844
522 3 2 1 1 233 16 4 125
523 3 2 1 1 234 125 4 17
524 3 2 1 1 234 17 5 149
525 3 2 1 1 179 149 5 18
526 3 2 1 1 242 12 13 151
527 3 2 1 1 174 151 13 14
528 3 2 1 1 175 174 14 15
529 3 2 1 1 233 175 15 16
530 3 2 1 1 26 148 255 25
531 3 2 1 1 47 48 252 141
532 3 2 1 1 52 183 235 51
533 3 2 1 1 221 170 99 100
534 3 2 1 1 238 105 106 139
535 3 2 1 1 317 316 138 247
536 3 2 1 1 215 289 350 157
537 3 2 1 1 314 250 178 180
538 3 2 1 1 315 313 179 243
539 3 2 1 1 314 180 244 278
540 3 2 1 1 383 371 319 200
541 3 2 1 1 438 330 201 281
542 3 2 1 1 358 299 201 330
543 3 2 1 1 445 378 212 286
544 3 2 1 1 372 251 282 345
545 3 2 1 1 486 436 260 372
546 3 2 1 1 370 260 436 403
547 3 2 1 1 205 277 437 333
548 3 2 1 1 371 345 282 319
549 3 2 1 1 205 333 446 284
550 3 2 1 1 337 415 347 287
551 3 2 1 1 490 390 344 378
552 3 2 1 1 387 416 545 451
553 3 2 1 1 722 677 579 642
554 3 2 1 1 661 701 765 609
555 3 2 1 1 723 721 620 683
556 3 2 1 1 594 646 710 678
557 3 2 1 1 720 653 755 794
558 3 2 1 1 748 705 659 711
559 3 2 1 1 740 752 678 710
560 3 2 1 1 797 796 691 762
561 3 2 1 1 708 750 793 709
562 3 2 1 1 797 762 721 751
563 3 2 1 1 789 740 761 813
564 3 2 1 1 741 778 747 766
565 3 2 1 1 826 813 761 795
566 3 2 1 1 853 835 771 827
567 3 2 1 1 848 826 774 812
568 3 2 1 1 796 820 846 781
569 3 2 1 1 772 816 838 790
570 3 2 1 1 840 823 790 838
571 3 2 1 1 232 11 3 136
572 3 2 1 1 242 136 3 12
573 3 2 1 1 20 6 178 126
574 3 2 1 1 43 7 44 161
575 3 2 1 1 20 126 243 19
576 3 2 1 1 18 19 243 179
577 3 2 1 1 6 21 180 178
578 3 2 1 1 22 244 180 21
579 3 2 1 1 244 22 23 127
580 3 2 1 1 24 191 127 23
581 3 2 1 1 25 255 191 24
582 3 2 1 1 27 28 181 165
583 3 2 1 1 29 190 181 28
584 3 2 1 1 30 31 124 229
585 3 2 1 1 31 32 182 124
586 3 2 1 1 33 192 182 32
587 3 2 1 1 222 192 33 34
588 3 2 1 1 36 193 132 35
589 3 2 1 1 34 35 132 222
590 3 2 1 1 223 193 36 37
591 3 2 1 1 37 38 137 223
592 3 2 1 1 38 39 245 137
593 3 2 1 1 40 146 245 39
594 3 2 1 1 40 41 256 146
595 3 2 1 1 42 155 256 41
596 3 2 1 1 161 155 42 43
597 3 2 1 1 44 45 246 161
598 3 2 1 1 46 168 246 45
599 3 2 1 1 52 53 129 183
600 3 2 1 1 237 65 66 138
601 3 2 1 1 66 67 247 138
602 3 2 1 1 68 152 247 67
603 3 2 1 1 68 69 186 152
604 3 2 1 1 69 70 187 186
605 3 2 1 1 72 128 248 71
606 3 2 1 1 70 71 248 187
607 3 2 1 1 169 123 79 80
608 3 2 1 1 220 122 86 87
609 3 2 1 1 216 121 91 92
610 3 2 1 1 104 145 227 103
611 3 2 1 1 238 145 104 105
612 3 2 1 1 303 229 124 197
613 3 2 1 1 182 257 197 124
614 3 2 1 1 250 198 126 178
615 3 2 1 1 315 243 126 198
616 3 2 1 1 201 299 183 129
617 3 2 1 1 193 272 202 132
618 3 2 1 1 226 144 287 347
619 3 2 1 1 296 279 256 155
620 3 2 1 1 144 158 196 287
621 3 2 1 1 155 161 246 296
622 3 2 1 1 158 164 270 196
623 3 2 1 1 322 165 181 212
624 3 2 1 1 141 211 318 168
625 3 2 1 1 246 168 318 296
626 3 2 1 1 192 283 257 182
627 3 2 1 1 152 186 251 208
628 3 2 1 1 186 187 282 251
629 3 2 1 1 181 190 286 212
630 3 2 1 1 222 320 283 192
631 3 2 1 1 337 287 196 374
632 3 2 1 1 257 380 259 197
633 3 2 1 1 128 200 319 248
634 3 2 1 1 132 202 320 222
635 3 2 1 1 152 208 317 247
636 3 2 1 1 370 317 208 260
637 3 2 1 1 323 340 439 211
638 3 2 1 1 318 211 439 377
639 3 2 1 1 137 266 354 223
640 3 2 1 1 137 245 324 266
641 3 2 1 1 146 386 324 245
642 3 2 1 1 187 248 319 282
643 3 2 1 1 208 251 372 260
644 3 2 1 1 146 256 279 386
645 3 2 1 1 197 259 379 303
646 3 2 1 1 414 382 264 477
647 3 2 1 1 196 270 411 374
648 3 2 1 1 202 272 405 332
649 3 2 1 1 299 358 437 277
650 3 2 1 1 377 408 386 279
651 3 2 1 1 257 283 381 380
652 3 2 1 1 323 284 446 340
653 3 2 1 1 202 332 441 320
654 3 2 1 1 283 320 441 381
655 3 2 1 1 266 324 442 335
656 3 2 1 1 386 408 442 324
657 3 2 1 1 426 546 449 327
658 3 2 1 1 438 463 394 330
659 3 2 1 1 526 455 332 405
660 3 2 1 1 437 547 458 333
661 3 2 1 1 266 335 420 354
662 3 2 1 1 420 335 493 459
663 3 2 1 1 439 340 544 494
664 3 2 1 1 547 437 358 495
665 3 2 1 1 375 376 496 416
666 3 2 1 1 409 498 496 376
667 3 2 1 1 259 391 489 379
668 3 2 1 1 259 380 443 391
669 3 2 1 1 380 381 467 443
670 3 2 1 1 570 507 394 463
671 3 2 1 1 377 439 494 408
672 3 2 1 1 374 411 470 502
673 3 2 1 1 599 545 416 496
674 3 2 1 1 405 420 459 526
675 3 2 1 1 332 455 548 441
676 3 2 1 1 381 441 548 467
677 3 2 1 1 335 442 549 493
678 3 2 1 1 408 494 549 442
679 3 2 1 1 391 443 550 453
680 3 2 1 1 333 458 501 446
681 3 2 1 1 340 446 501 544
682 3 2 1 1 546 555 597 449
683 3 2 1 1 588 540 450 556
684 3 2 1 1 642 528 452 560
685 3 2 1 1 391 453 516 489
686 3 2 1 1 516 453 594 561
687 3 2 1 1 518 592 501 458
688 3 2 1 1 601 518 458 547
689 3 2 1 1 623 555 546 461
690 3 2 1 1 630 578 467 548
691 3 2 1 1 443 467 578 550
692 3 2 1 1 390 490 572 515
693 3 2 1 1 459 493 571 517
694 3 2 1 1 547 495 573 601
695 3 2 1 1 451 559 643 510
696 3 2 1 1 680 591 515 620
697 3 2 1 1 459 517 595 526
698 3 2 1 1 455 526 595 577
699 3 2 1 1 461 536 567 623
700 3 2 1 1 494 544 596 549
701 3 2 1 1 501 592 596 544
702 3 2 1 1 451 545 645 559
703 3 2 1 1 611 645 545 599
704 3 2 1 1 493 549 596 571
705 3 2 1 1 453 550 646 594
706 3 2 1 1 596 592 647 571
707 3 2 1 1 517 571 647 644
708 3 2 1 1 550 578 662 646
709 3 2 1 1 518 635 647 592
710 3 2 1 1 577 595 681 610
711 3 2 1 1 517 644 681 595
712 3 2 1 1 573 687 615 601
713 3 2 1 1 680 762 691 605
714 3 2 1 1 687 609 765 730
715 3 2 1 1 577 610 671 630
716 3 2 1 1 671 610 725 724
717 3 2 1 1 658 702 684 621
718 3 2 1 1 647 635 682 644
719 3 2 1 1 615 679 682 635
720 3 2 1 1 559 645 686 650
721 3 2 1 1 696 710 646 662
722 3 2 1 1 760 697 650 686
723 3 2 1 1 655 668 764 704
724 3 2 1 1 615 687 730 679
725 3 2 1 1 746 726 679 730
726 3 2 1 1 644 682 727 681
727 3 2 1 1 610 681 727 725
728 3 2 1 1 679 726 727 682
729 3 2 1 1 733 703 688 769
730 3 2 1 1 739 791 754 695
731 3 2 1 1 710 696 761 740
732 3 2 1 1 650 697 743 729
733 3 2 1 1 765 701 777 799
734 3 2 1 1 792 707 731 745
735 3 2 1 1 649 709 793 737
736 3 2 1 1 695 716 782 739
737 3 2 1 1 663 738 798 722
738 3 2 1 1 677 722 798 757
739 3 2 1 1 696 724 795 761
740 3 2 1 1 725 763 795 724
741 3 2 1 1 727 726 763 725
742 3 2 1 1 746 774 763 726
743 3 2 1 1 780 764 729 743
744 3 2 1 1 799 746 730 765
745 3 2 1 1 839 825 735 780
746 3 2 1 1 799 812 774 746
747 3 2 1 1 798 852 814 757
748 3 2 1 1 698 790 823 758
749 3 2 1 1 826 795 763 774
750 3 2 1 1 824 812 799 777
751 3 2 1 1 738 807 852 798
752 3 2 1 1 159 60 61 142
753 3 2 1 1 160 118 119 143
754 3 2 1 1 666 597 555 606
755 3 2 1 1 510 643 668 567
756 3 2 1 1 764 668 643 729
757 3 2 1 1 688 732 734 769
758 3 2 1 1 831 828 787 803
759 3 2 1 1 540 588 625 469
760 3 2 1 1 657 625 588 669
761 3 2 1 1 638 597 666 689
762 3 2 1 1 645 611 717 686
763 3 2 1 1 731 675 613 652
764 3 2 1 1 559 650 729 643
765 3 2 1 1 694 829 772 749
766 3 2 1 1 702 717 611 684
767 3 2 1 1 268 291 375 325
768 3 2 1 1 285 336 448 384
769 3 2 1 1 336 353 476 400
770 3 2 1 1 253 134 96 97
771 3 2 1 1 861 779 802 856
772 3 2 1 1 802 854 857 856
773 3 2 1 1 831 854 800 828
774 3 2 1 1 859 857 854 831
775 3 2 1 1 855 829 770 834
776 3 2 1 1 828 800 692 767
777 3 2 1 1 769 779 830 733
778 3 2 1 1 732 688 558 616
779 3 2 1 1 604 638 689 616
780 3 2 1 1 460 603 622 519
781 3 2 1 1 654 622 603 667
782 3 2 1 1 854 802 734 800
783 3 2 1 1 690 667 648 703
784 3 2 1 1 558 688 703 648
785 3 2 1 1 603 460 388 520
786 3 2 1 1 504 520 388 502
787 3 2 1 1 703 733 801 690
788 3 2 1 1 694 607 654 768
789 3 2 1 1 667 690 768 654
790 3 2 1 1 690 801 770 768
791 3 2 1 1 401 415 460 519
792 3 2 1 1 520 648 667 603
793 3 2 1 1 733 830 805 801
794 3 2 1 1 504 558 648 520
795 3 2 1 1 833 805 830 832
796 3 2 1 1 834 770 801 805
797 3 2 1 1 337 374 502 388
798 3 2 1 1 415 337 388 460
799 3 2 1 1 616 558 504 604
800 3 2 1 1 604 504 502 470
$EndElements
