$MeshFormat
2.2 0 8
$EndMeshFormat
$Nodes
163
1 20 20 0
2 80 20 0
3 80 80 0
4 20 80 0
5 0 0 0
6 100 0 0
7 0 100 0
8 100 100 0
9 30 20 0
10 40 20 0
11 50 20 0
12 60 20 0
13 70 20 0
14 80 30 0
15 80 40 0
16 80 50 0
17 80 60 0
18 80 70 0
19 70 80 0
20 60 80 0
21 50 80 0
22 40 80 0
23 30 80 0
24 20 70 0
25 20 60 0
26 20 50 0
27 20 40 0
28 20 30 0
29 10 0 0
30 20 0 0
31 30 0 0
32 40 0 0
33 50 0 0
34 60 0 0
35 70 0 0
36 80 0 0
37 90 0 0
38 0 90 0
39 0 80 0
40 0 70 0
41 0 60 0
42 0 50 0
43 0 40 0
44 0 30 0
45 0 20 0
46 0 10 0
47 100 10 0
48 100 20 0
49 100 30 0
50 100 40 0
51 100 50 0
52 100 60 0
53 100 70 0
54 100 80 0
55 100 90 0
56 90 100 0
57 80 100 0
58 70 100 0
59 60 100 0
60 50 100 0
61 40 100 0
62 30 100 0
63 20 100 0
64 10 100 0
65 40 90 0
66 10 30 0
67 70 10 0
68 90 80 0
69 30 90 0
70 40 10 0
71 60 10 0
72 90 30 0
73 90 70 0
74 90 50 0
75 10 40 0
76 30 10 0
77 20 10 0
78 10 20 0
79 90 10 0
80 80 90 0
81 10 70 0
82 10 90 0
83 70 90 0
84 60 90 0
85 10 50 0
86 10 10 0
87 90 90 0
88 90 40 0
89 50 90 0
90 80 10 0
91 20 90 0
92 50 10 0
93 90 20 0
94 10 80 0
95 10 60 0
96 90 60 0
97 20 20 0
98 80 20 0
99 25 20 20
100 75 20 20
101 80 20 20
102 20 20 20
103 30 20 0
104 40 20 0
105 50 20 0
106 60 20 0
107 70 20 0
108 35 20 20
109 45 20 20
110 55 20 20
111 65 20 20
112 80 20 10
113 20 20 10
114 30.5642981241192 20 11.4402251423969
115 41.8258363318943 20 10.099440625552
116 50.6872199317439 20 8.96743038560446
117 59.4106840960712 20 8.90843825521453
118 68.2683924216136 20 9.82634223346549
119 80 20 0
120 80 80 0
121 80 20 20
122 80 80 20
123 80 30 0
124 80 40 0
125 80 50 0
126 80 60 0
127 80 70 0
128 80 20 10
129 80 80 10
130 80 70 20
131 80 60 20
132 80 50 20
133 80 40 20
134 80 30 20
135 80 30 10
136 80 40 10
137 80 50 10
138 80 60 10
139 80 70 10
140 35 20 30
141 65 20 30
142 50 20 50
143 40 20 50
144 25 20 20
145 75 20 20
146 35 20 60
147 55 20 60
148 45 20 30
149 55 20 30
150 60 20 36.6666666666667
151 55 20 43.3333333333333
152 37.5 20 40
153 35 20 20
154 45 20 20
155 55 20 20
156 65 20 20
157 32.5 20 50
158 30 20 40
159 27.5 20 30
160 70 20 30
161 65 20 40
162 60 20 50
163 45 20 60
$EndNodes
$Elements
102
1 3 2 1 1 44 66 75 43
2 3 2 1 1 28 66 78 1
3 3 2 1 1 23 22 65 69
4 3 2 1 1 65 89 60 61
5 3 2 1 1 27 75 66 28
6 3 2 1 1 71 34 35 67
7 3 2 1 1 49 72 93 48
8 3 2 1 1 54 55 87 68
9 3 2 1 1 65 61 62 69
10 3 2 1 1 23 69 91 4
11 3 2 1 1 72 88 15 14
12 3 2 1 1 89 65 22 21
13 3 2 1 1 27 26 85 75
14 3 2 1 1 31 32 70 76
15 3 2 1 1 43 75 85 42
16 3 2 1 1 66 44 45 78
17 3 2 1 1 50 88 72 49
18 3 2 1 1 74 88 50 51
19 3 2 1 1 51 52 96 74
20 3 2 1 1 54 68 73 53
21 3 2 1 1 52 53 73 96
22 3 2 1 1 60 89 84 59
23 3 2 1 1 62 63 91 69
24 3 2 1 1 13 67 90 2
25 3 2 1 1 12 11 92 71
26 3 2 1 1 71 67 13 12
27 3 2 1 1 74 16 15 88
28 3 2 1 1 3 18 73 68
29 3 2 1 1 89 21 20 84
30 3 2 1 1 70 32 33 92
31 3 2 1 1 34 71 92 33
32 3 2 1 1 35 36 90 67
33 3 2 1 1 9 1 77 76
34 3 2 1 1 72 14 2 93
35 3 2 1 1 68 87 80 3
36 3 2 1 1 24 4 94 81
37 3 2 1 1 91 82 94 4
38 3 2 1 1 70 10 9 76
39 3 2 1 1 70 92 11 10
40 3 2 1 1 73 18 17 96
41 3 2 1 1 16 74 96 17
42 3 2 1 1 3 80 83 19
43 3 2 1 1 20 19 83 84
44 3 2 1 1 95 25 24 81
45 3 2 1 1 25 95 85 26
46 3 2 1 1 5 29 86 46
47 3 2 1 1 30 77 86 29
48 3 2 1 1 31 76 77 30
49 3 2 1 1 37 79 90 36
50 3 2 1 1 6 47 79 37
51 3 2 1 1 7 38 82 64
52 3 2 1 1 40 81 94 39
53 3 2 1 1 38 39 94 82
54 3 2 1 1 95 81 40 41
55 3 2 1 1 41 42 85 95
56 3 2 1 1 45 46 86 78
57 3 2 1 1 93 79 47 48
58 3 2 1 1 8 56 87 55
59 3 2 1 1 57 80 87 56
60 3 2 1 1 58 83 80 57
61 3 2 1 1 59 84 83 58
62 3 2 1 1 91 63 64 82
63 3 2 1 1 1 78 86 77
64 3 2 1 1 2 90 79 93
65 2 2 2 2 99 114 108 
66 2 2 2 2 116 117 110 
67 2 2 2 2 112 101 100 
68 3 2 2 2 98 112 118 107
69 3 2 2 2 116 115 104 105
70 3 2 2 2 117 116 105 106
71 3 2 2 2 106 107 118 117
72 3 2 2 2 115 114 103 104
73 3 2 2 2 103 114 113 97
74 3 2 2 2 109 115 116 110
75 3 2 2 2 118 112 100 111
76 3 2 2 2 111 110 117 118
77 3 2 2 2 108 114 115 109
78 3 2 2 2 99 102 113 114
79 3 2 3 3 119 123 135 128
80 3 2 3 3 124 136 135 123
81 3 2 3 3 132 133 136 137
82 3 2 3 3 133 134 135 136
83 3 2 3 3 134 121 128 135
84 3 2 3 3 136 124 125 137
85 3 2 3 3 126 138 137 125
86 3 2 3 3 122 130 139 129
87 3 2 3 3 138 139 130 131
88 3 2 3 3 127 120 129 139
89 3 2 3 3 138 126 127 139
90 3 2 3 3 131 132 137 138
91 3 2 4 4 149 155 156 141
92 3 2 4 4 140 159 144 153
93 3 2 4 4 157 143 163 146
94 3 2 4 4 143 142 147 163
95 3 2 4 4 147 142 151 162
96 3 2 4 4 155 149 148 154
97 3 2 4 4 140 153 154 148
98 3 2 4 4 152 158 159 140
99 3 2 4 4 145 160 141 156
100 3 2 4 4 150 141 160 161
101 3 2 4 4 162 151 150 161
102 3 2 4 4 143 157 158 152
$EndElements
