$MeshFormat
2.2 0 8
$EndMeshFormat
$Nodes
122
1 20 20 0
2 40 20 0
4 20 40 0
12 0 0 0
13 100 0 0
14 0 50 0
15 100 50 0
16 0 70 0
17 100 70 0
18 0 100 0
19 100 100 0
20 30 20 0
21 40 30 0
22 30 40 0
23 20 30 0
32 10 0 0
33 20 0 0
34 30 0 0
35 40 0 0
36 50 0 0
37 60 0 0
38 70 0 0
39 80 0 0
40 90 0 0
41 0 40 0
42 0 30 0
43 0 20 0
44 0 10 0
45 100 10 0
46 100 20 0
47 100 30 0
48 100 40 0
49 0 60 0
50 100 60 0
51 0 90 0
52 0 80 0
53 100 80 0
54 100 90 0
55 90 100 0
56 80 100 0
57 70 100 0
58 60 100 0
59 50 100 0
60 40 100 0
61 30 100 0
62 20 100 0
63 10 100 0
64 9.99999999999999 52 0
65 20 54 0
66 30 56 0
67 90 68 0
68 9.99999999999999 68 0
69 20 66 0
70 30 64 0
71 90 52 0
72 69.9990993723882 30.0282341449029 0
73 10.2378688705325 78.8738595999097 0
74 69.9999285953215 10.0087375441955 0
75 10.1858634561337 89.5857855439904 0
76 31.3291387995245 72.4248443389752 0
77 20.4033664692832 89.6291166320075 0
78 30.3761206443211 90.0038221624167 0
79 49.9516697012622 89.9914580580706 0
80 9.99096469485482 20.0526426823762 0
81 40.0000431054778 10.0000650654321 0
82 89.9919810392644 30.2051291742854 0
83 30.0002712224848 10.0009137031968 0
84 20.0000287441845 10.0064285363309 0
85 49.9999821890479 30.0006913238794 0
86 59.9999627882894 10.0027819174825 0
87 9.96689017888755 30.1765552467223 0
88 79.9965199022922 89.9484163686889 0
89 90.0136823470081 79.3371420765425 0
90 69.9611674020379 89.9911322251031 0
91 89.9999176784982 10.0167224215406 0
92 9.99927363043776 10.0102651789789 0
93 90.0065373206118 89.8904914012817 0
94 9.96885800449233 40.7291830176159 0
95 89.9900379043707 40.7441482107022 0
96 30.8982591363815 48.7208126701189 0
97 9.14607407407406 59.4648888888889 0
98 90.8539259259259 60.5351111111111 0
99 40.1373680076401 90.0934776338217 0
100 59.9566852370052 89.9942816838859 0
101 69.9993410031185 20.0267081066161 0
102 49.9999813029005 20.001000565249 0
103 79.9967914023239 30.1227634283966 0
104 49.9999932110744 10.0007470100155 0
105 79.9997925282917 10.0200725193012 0
106 89.9983676681674 20.0613484635414 0
107 59.9998071076915 30.006723906366 0
108 21.8421108224642 77.7470280579909 0
109 31.5350479934367 81.0533466858046 0
110 79.998408200292 20.0604340585618 0
111 59.9998025491678 20.0080638600343 0
120 50 60 0
129 60 62 0
130 70 64 0
131 60 58 0
132 70 56 0
133 59.8075205916379 48.8146587613292 0
134 49.9807725407 70.6443751529362 0
135 49.9554106233581 49.306591560341 0
136 59.8509064255173 70.9722540736026 0
137 69.0539623956892 47.4256438854444 0
138 69.0700891430411 71.2613156910523 0
139 40 40 0
140 80 40 0
141 80 54 0
142 80 66 0
143 80 80 0
144 40 80 0
145 40 62 0
146 40 58 0
147 50 40 0
148 60 40 0
149 70 40 0
150 70 80 0
151 60 80 0
152 50 80 0
153 40 71 0
154 40 49 0
$EndNodes
$Elements
106
1 2 2 1 1 69 65 66 
2 2 2 1 1 76 109 108 
3 2 2 1 1 65 96 66 
4 2 2 1 1 69 66 70 
5 2 2 1 1 65 97 64 
9 2 2 1 1 130 129 131 
14 2 2 1 1 132 130 131 
16 2 2 1 1 129 120 131 
17 3 2 1 1 90 88 56 57
18 3 2 1 1 84 92 32 33
19 3 2 1 1 32 92 44 12
20 3 2 1 1 104 81 35 36
23 3 2 1 1 39 40 91 105
24 3 2 1 1 45 91 40 13
26 3 2 1 1 91 45 46 106
29 3 2 1 1 85 102 111 107
30 3 2 1 1 86 111 102 104
31 3 2 1 1 1 84 83 20
32 3 2 1 1 2 20 83 81
33 3 2 1 1 2 102 85 21
34 3 2 1 1 104 102 2 81
35 3 2 1 1 83 84 33 34
36 3 2 1 1 35 81 83 34
37 3 2 1 1 101 111 86 74
38 3 2 1 1 86 104 36 37
39 3 2 1 1 105 74 38 39
40 3 2 1 1 92 84 1 80
41 3 2 1 1 107 111 101 72
42 3 2 1 1 92 80 43 44
43 3 2 1 1 105 110 101 74
44 3 2 1 1 37 38 74 86
45 3 2 1 1 105 91 106 110
46 3 2 1 1 110 103 72 101
47 3 2 1 1 88 93 55 56
48 3 2 1 1 55 93 54 19
50 3 2 1 1 1 23 87 80
51 3 2 1 1 46 47 82 106
53 3 2 1 1 62 63 75 77
54 3 2 1 1 79 59 60 99
55 3 2 1 1 80 87 42 43
56 3 2 1 1 103 110 106 82
57 3 2 1 1 54 93 89 53
60 3 2 1 1 90 57 58 100
62 3 2 1 1 51 75 63 18
63 3 2 1 1 78 61 62 77
64 3 2 1 1 60 61 78 99
65 3 2 1 1 100 58 59 79
68 3 2 1 1 15 71 95 48
69 3 2 1 1 17 53 89 67
72 3 2 1 1 75 51 52 73
73 3 2 1 1 41 42 87 94
74 3 2 1 1 108 77 75 73
75 3 2 1 1 82 47 48 95
79 3 2 1 1 108 73 68 69
80 3 2 1 1 64 94 4 65
81 3 2 1 1 87 23 4 94
82 3 2 1 1 16 68 73 52
83 3 2 1 1 109 78 77 108
84 3 2 1 1 50 17 67 98
85 3 2 1 1 71 15 50 98
86 3 2 1 1 49 14 64 97
87 3 2 1 1 68 16 49 97
88 3 2 1 1 94 64 14 41
89 3 2 1 1 96 65 4 22
90 3 2 1 1 76 108 69 70
92 3 2 1 1 69 68 97 65
96 3 2 1 1 138 136 129 130
98 3 2 1 1 129 136 134 120
102 3 2 1 1 132 131 133 137
106 3 2 1 1 133 131 120 135
6 2 2 1 1 142 98 67 
7 2 2 1 1 66 146 70 
8 2 2 1 1 146 145 70 
10 2 2 1 1 141 142 130 
11 2 2 1 1 142 138 130 
12 2 2 1 1 132 141 130 
13 2 2 1 1 140 137 149 
15 2 2 1 1 120 145 146 
21 3 2 1 1 88 90 150 143
22 3 2 1 1 107 72 149 148
25 3 2 1 1 148 147 85 107
27 3 2 1 1 21 85 147 139
28 3 2 1 1 72 103 140 149
49 3 2 1 1 89 93 88 143
52 3 2 1 1 79 99 144 152
58 3 2 1 1 139 154 96 22
59 3 2 1 1 152 151 100 79
61 3 2 1 1 151 150 90 100
66 3 2 1 1 66 96 154 146
67 3 2 1 1 144 109 76 153
70 3 2 1 1 67 89 143 142
71 3 2 1 1 140 103 82 95
76 3 2 1 1 153 76 70 145
77 3 2 1 1 95 71 141 140
78 3 2 1 1 109 144 99 78
91 3 2 1 1 141 71 98 142
93 3 2 1 1 150 151 136 138
94 3 2 1 1 135 154 139 147
95 3 2 1 1 147 148 133 135
97 3 2 1 1 146 154 135 120
99 3 2 1 1 152 134 136 151
100 3 2 1 1 145 120 134 153
101 3 2 1 1 153 134 152 144
103 3 2 1 1 148 149 137 133
104 3 2 1 1 138 142 143 150
105 3 2 1 1 137 140 141 132
$EndElements
