$MeshFormat
2.2 0 8
$EndMeshFormat
$Nodes
74
1 0 0 0
2 0 200 0
3 0 200 100
4 0 0 100
5 0 100 50
6 0 20 0
7 0 40 0
8 0 60 0
9 0 80 0
10 0 100 0
11 0 120 0
12 0 140 0
13 0 160 0
14 0 180 0
15 0 200 20
16 0 200 40
17 0 200 60
18 0 200 80
19 0 180 100
20 0 160 100
21 0 140 100
22 0 120 100
23 0 100 100
24 0 80 100
25 0 60 100
26 0 40 100
27 0 20 100
28 0 0 80
29 0 0 60
30 0 0 40
31 0 0 20
32 0 180.199217582065 59.4881321182762
33 0 19.7039504262766 39.9049730198575
34 0 141.076708593635 19.0828322394629
35 0 180.131923909036 19.76463176865
36 0 59.3763190836654 78.3171995496643
37 0 19.9336465604991 79.951251382569
38 0 58.2727154053857 18.4272581944913
39 0 98.9260511211696 21.3372134315027
40 0 100.27990747304 81.4142343439915
41 0 136.845322583532 76.4613817998942
42 0 19.7643500409568 19.9246644962631
43 0 180.082345434926 79.6473781161682
44 0 121.689443786861 19.067455033653
45 0 80.9909484476859 75.2749986469463
46 0 76.8994379561604 17.7508421358863
47 0 117.500700845889 81.7315878224229
48 0 39.2948978180543 19.4560093685255
49 0 159.799746950074 78.8466437832955
50 0 160.474517357742 19.4286232578473
51 0 39.692721747933 79.4736295292264
52 0 180.240078858811 39.5424842370276
53 0 19.7845081833623 59.8466418636287
54 0 57.1944645648957 37.0433494700391
55 0 141.867302075128 56.2033510316678
56 0 74.2489289866241 53.58144457399
57 0 124.448564172685 36.8440610044786
58 0 39.223275257488 59.0311853992043
59 0 160.795774234008 38.8222842923712
60 0 86.3458872524494 33.2946778425128
61 0 114.66580904874 66.0009226788656
62 0 160.405962580155 58.4172662680564
63 0 38.9505903909076 38.9637808706414
64 0 98.9049524104446 40.3009217148628
65 0 100.747893549444 65.2159597943615
66 0 57.7697730100074 56.8755242519929
67 0 142.094422086197 37.750481877656
68 0 87.821669969461 51.0993804734625
69 0 112.537017170967 51.6382686610439
70 0 126.033517116264 53.1331154987906
71 0 90.3783843664508 63.2020482836903
72 0 109.363984906747 36.0152358661434
73 0 72.2682354006727 31.5400753475501
74 0 125.285753279074 64.7014382745245
$EndNodes
$Elements
58
1 3 2 1 1 66 58 63 54
2 3 2 1 1 67 59 62 55
3 3 2 1 1 45 71 65 40
4 3 2 1 1 55 70 57 67
5 3 2 1 1 52 59 50 35
6 3 2 1 1 53 58 51 37
7 3 2 1 1 69 5 64 72
8 3 2 1 1 39 44 57 72
9 3 2 1 1 72 64 60 39
10 3 2 1 1 65 71 68 5
11 3 2 1 1 5 68 60 64
12 3 2 1 1 5 69 61 65
13 3 2 1 1 70 69 72 57
14 3 2 1 1 45 56 68 71
15 3 2 1 1 65 61 47 40
16 3 2 1 1 44 39 10 11
17 3 2 1 1 45 40 23 24
18 3 2 1 1 44 34 67 57
19 3 2 1 1 45 36 66 56
20 3 2 1 1 58 53 33 63
21 3 2 1 1 59 52 32 62
22 3 2 1 1 34 44 11 12
23 3 2 1 1 36 45 24 25
24 3 2 1 1 39 46 9 10
25 3 2 1 1 40 47 22 23
26 3 2 1 1 50 34 12 13
27 3 2 1 1 51 36 25 26
28 3 2 1 1 43 32 17 18
29 3 2 1 1 42 33 30 31
30 3 2 1 1 66 54 73 56
31 3 2 1 1 35 50 13 14
32 3 2 1 1 37 51 26 27
33 3 2 1 1 32 52 16 17
34 3 2 1 1 33 53 29 30
35 3 2 1 1 48 42 6 7
36 3 2 1 1 49 43 19 20
37 3 2 1 1 70 55 41 74
38 3 2 1 1 46 73 54 38
39 3 2 1 1 51 58 66 36
40 3 2 1 1 50 59 67 34
41 3 2 1 1 52 35 15 16
42 3 2 1 1 53 37 28 29
43 3 2 1 1 48 7 8 38
44 3 2 1 1 49 20 21 41
45 3 2 1 1 46 38 8 9
46 3 2 1 1 47 41 21 22
47 3 2 1 1 42 48 63 33
48 3 2 1 1 43 49 62 32
49 3 2 1 1 41 55 62 49
50 3 2 1 1 38 54 63 48
51 3 2 1 1 39 60 73 46
52 3 2 1 1 41 47 61 74
53 3 2 1 1 42 31 1 6
54 3 2 1 1 43 18 3 19
55 3 2 1 1 35 14 2 15
56 3 2 1 1 37 27 4 28
57 3 2 1 1 69 70 74 61
58 3 2 1 1 68 56 73 60
$EndElements
