$MeshFormat
2.2 0 8
$EndMeshFormat
$Nodes
130
1 20 20 0
2 45 15 0
3 50 45 0
4 15 40 0
5 0 0 0
6 100 0 0
7 0 100 0
8 100 100 0
17 10 0 0
18 20 0 0
19 30 0 0
20 40 0 0
21 50 0 0
22 60 0 0
23 70 0 0
24 80 0 0
25 90 0 0
26 0 90 0
27 0 80 0
28 0 70 0
29 0 60 0
30 0 50 0
31 0 40 0
32 0 30 0
33 0 20 0
34 0 10 0
35 100 10 0
36 100 20 0
37 100 30 0
38 100 40 0
39 100 50 0
40 100 60 0
41 100 70 0
42 100 80 0
43 100 90 0
44 90 100 0
45 80 100 0
46 70 100 0
47 60 100 0
48 50 100 0
49 40 100 0
50 30 100 0
51 20 100 0
52 10 100 0
53 34.0885476479384 51.8238807449472 0
54 60.1509843985695 89.8234442844947 0
55 90.0482576334619 50.1725497206292 0
56 29.8942649856075 89.9575096523019 0
57 57.3399746613412 33.047293830395 0
58 89.9428977154824 19.971313789063 0
59 90.0979065130058 70.0695347457918 0
60 9.57015861041113 69.6770235892995 0
61 70.5991227395739 9.86019781935351 0
62 16.8067097645607 50.0986578513263 0
63 90.0154830565463 90.0154150107355 0
64 53.4304361489323 16.3108745178367 0
65 19.7754930772405 10.1193302517642 0
66 10.0314997789137 10.5319183588361 0
67 10.3397868922122 22.6842689464821 0
68 29.0942634965349 9.18782261095083 0
69 70.0783355000488 89.9936244055014 0
70 39.9559022441125 89.8212343993696 0
71 9.94433950751291 89.9457444138782 0
72 89.9007510050194 30.0345067564227 0
73 89.9892752751234 9.97738613516871 0
74 42.9500213157584 52.7642252945752 0
75 38.238745542391 8.37620794379436 0
76 7.49749652581621 32.6455355478391 0
77 9.08705310053808 59.7353279080354 0
78 8.31450737844632 50.1384174183433 0
79 62.4793848017285 10.2183898505972 0
80 51.8085116313797 52.7872044430865 0
81 35.5916919487619 61.275530648735 0
82 60.5825379327259 79.6874578962778 0
83 29.2980627285451 79.9459651150377 0
84 18.0033563701425 59.8085333643653 0
85 50.1156361111385 89.6635434004944 0
86 90.1065755358239 60.1480916851721 0
87 89.9380590823618 40.1464445516619 0
88 19.8668312430255 89.9370734833212 0
89 9.79624818228952 79.8415307867651 0
90 80.0404707716009 90.0263860544877 0
91 90.0570176849195 80.038135477596 0
92 79.5787121269766 30.0713071253789 0
93 80.1278798141165 9.89185505686967 0
94 54.4865964793799 24.3957393898104 0
95 59.4572986382767 42.745480694944 0
96 25.3572402434137 50.7855839128748 0
97 47.1558691768315 8.09816088024674 0
98 7.13418049540076 41.4487111766931 0
99 71.0342271776047 18.9747459323811 0
100 60.8337775737225 52.0611820631037 0
101 49.4829817775926 77.6566957157288 0
102 70.2975860938721 80.0496717289999 0
103 80.2810764190301 60.4482060999802 0
104 18.9071349140184 69.7746636133019 0
105 67.9318224029204 29.5806853566013 0
106 79.6960287138744 40.4508893085281 0
107 38.8257875354114 79.7545173757363 0
108 19.5014694044256 79.8663563443906 0
109 80.1491681788372 80.0861703591452 0
110 79.9637747141971 19.7924470899352 0
111 45.0077343488568 63.0440244906402 0
112 61.6127290071745 19.352982446286 0
113 26.833780361169 60.4271183470127 0
114 54.7740590931382 9.35134450199125 0
115 53.4087765305056 60.6666303362529 0
116 70.2717450579979 51.2367773924642 0
117 37.0632915429796 70.4241877035061 0
118 70.5875849437501 70.328089192208 0
119 80.2754721637719 70.2360019232124 0
120 80.0736258622551 50.5888970810362 0
121 69.3782492672514 41.1942621812454 0
122 53.0770416159369 68.6672788717332 0
123 28.0819121962156 70.12071703396 0
124 61.2693626849785 69.94935255451 0
125 61.534161932635 60.8963355075481 0
126 70.6619916379956 60.7548620252973 0
127 43.5055587526908 70.319652272579 0
136 38.0863466459142 27.2738496599884 0
137 28.004308024035 30.8002158004001 0
138 40.4281542167108 36.1365331664468 0
139 28.3333333333333 18.3333333333333 0
140 36.6666666666667 16.6666666666667 0
141 46.6666666666667 25 0
142 48.3333333333333 35 0
143 41.25 43.75 0
144 32.5 42.5 0
145 23.75 41.25 0
146 17.5 30 0
$EndNodes
$Elements
113
1 2 2 1 1 105 112 99 
2 2 2 1 1 115 122 111 
3 2 2 1 1 79 114 22 
4 2 2 1 1 64 112 94 
6 2 2 1 1 4 98 76 
9 3 2 1 1 72 58 36 37
10 3 2 1 1 26 71 52 7
11 3 2 1 1 50 51 88 56
12 3 2 1 1 28 29 77 60
13 3 2 1 1 35 73 25 6
14 3 2 1 1 58 73 35 36
15 3 2 1 1 51 52 71 88
16 3 2 1 1 43 8 44 63
17 3 2 1 1 69 46 47 54
18 3 2 1 1 49 50 56 70
19 3 2 1 1 77 29 30 78
20 3 2 1 1 24 93 61 23
21 3 2 1 1 73 93 24 25
22 3 2 1 1 59 41 42 91
23 3 2 1 1 91 42 43 63
24 3 2 1 1 55 39 40 86
25 3 2 1 1 63 44 45 90
26 3 2 1 1 86 40 41 59
27 3 2 1 1 71 26 27 89
28 3 2 1 1 54 47 48 85
29 3 2 1 1 72 37 38 87
30 3 2 1 1 61 93 110 99
31 3 2 1 1 90 45 46 69
32 3 2 1 1 93 73 58 110
33 3 2 1 1 54 82 102 69
34 3 2 1 1 106 87 55 120
35 3 2 1 1 89 27 28 60
36 3 2 1 1 85 48 49 70
37 3 2 1 1 87 38 39 55
38 3 2 1 1 90 69 102 109
39 3 2 1 1 103 120 55 86
40 3 2 1 1 83 56 88 108
41 3 2 1 1 109 91 63 90
42 3 2 1 1 108 88 71 89
43 3 2 1 1 119 103 86 59
44 3 2 1 1 59 91 109 119
45 3 2 1 1 95 100 80 3
46 3 2 1 1 58 72 92 110
48 3 2 1 1 22 23 61 79
49 3 2 1 1 106 121 105 92
50 3 2 1 1 99 112 79 61
51 3 2 1 1 106 92 72 87
52 3 2 1 1 116 100 95 121
53 3 2 1 1 66 17 18 65
54 3 2 1 1 109 102 118 119
55 3 2 1 1 83 107 70 56
56 3 2 1 1 120 116 121 106
57 3 2 1 1 101 82 54 85
58 3 2 1 1 118 102 82 124
59 3 2 1 1 4 62 78 98
60 3 2 1 1 103 126 116 120
61 3 2 1 1 34 5 17 66
62 3 2 1 1 115 80 100 125
63 3 2 1 1 57 105 121 95
66 3 2 1 1 108 89 60 104
67 3 2 1 1 85 70 107 101
69 3 2 1 1 99 110 92 105
70 3 2 1 1 126 103 119 118
71 3 2 1 1 116 126 125 100
72 3 2 1 1 124 82 101 122
74 3 2 1 1 113 96 53 81
75 3 2 1 1 97 114 64 2
77 3 2 1 1 78 62 84 77
78 3 2 1 1 77 84 104 60
79 3 2 1 1 123 83 108 104
80 3 2 1 1 33 34 66 67
81 3 2 1 1 81 117 123 113
82 3 2 1 1 18 19 68 65
83 3 2 1 1 19 20 75 68
84 3 2 1 1 125 126 118 124
87 3 2 1 1 97 75 20 21
89 3 2 1 1 96 113 84 62
90 3 2 1 1 111 74 80 115
91 3 2 1 1 32 33 67 76
92 3 2 1 1 76 98 31 32
93 3 2 1 1 81 53 74 111
94 3 2 1 1 104 84 113 123
95 3 2 1 1 66 65 1 67
96 3 2 1 1 83 123 117 107
97 3 2 1 1 117 81 111 127
100 3 2 1 1 124 122 115 125
101 3 2 1 1 105 57 94 112
102 3 2 1 1 64 114 79 112
103 3 2 1 1 114 97 21 22
104 3 2 1 1 30 31 98 78
105 3 2 1 1 122 101 127 111
106 3 2 1 1 127 101 107 117
5 2 2 1 1 146 67 1 
7 2 2 1 1 145 137 144 
8 2 2 1 1 144 138 143 
47 3 2 1 1 57 95 3 142
64 3 2 1 1 143 74 53 144
65 3 2 1 1 68 75 140 139
68 3 2 1 1 74 143 3 80
73 3 2 1 1 144 53 96 145
76 3 2 1 1 64 94 141 2
85 3 2 1 1 2 140 75 97
86 3 2 1 1 65 68 139 1
88 3 2 1 1 94 57 142 141
98 3 2 1 1 76 67 146 4
99 3 2 1 1 145 96 62 4
107 3 2 1 1 141 136 140 2
108 3 2 1 1 141 142 138 136
109 3 2 1 1 146 137 145 4
110 3 2 1 1 143 138 142 3
111 3 2 1 1 137 146 1 139
112 3 2 1 1 139 140 136 137
113 3 2 1 1 137 136 138 144
$EndElements
