$MeshFormat
2.2 0 8
$EndMeshFormat
$Nodes
578
1 0 500 0
2 0 0 0
3 800 500 0
4 800 0 0
5 0 1600 0
6 0 520 0
7 800 1600 0
8 800 520 0
9 0 450 0
10 0 400 0
11 0 350 0
12 0 300 0
13 0 250 0
14 0 200 0
15 0 150 0
16 0 100 0
17 0 50 0
33 800 50 0
34 800 100 0
35 800 150 0
36 800 200 0
37 800 250 0
38 800 300 0
39 800 350 0
40 800 400 0
41 800 450 0
42 50 0 0
43 100 0 0
44 150 0 0
45 200 0 0
46 250 0 0
47 300 0 0
48 350 0 0
49 400 0 0
50 450 0 0
51 500 0 0
52 550 0 0
53 600 0 0
54 650 0 0
55 700 0 0
56 750 0 0
57 0 1550.90909090909 0
58 0 1501.81818181818 0
59 0 1452.72727272727 0
60 0 1403.63636363636 0
61 0 1354.54545454545 0
62 0 1305.45454545455 0
63 0 1256.36363636364 0
64 0 1207.27272727273 0
65 0 1158.18181818182 0
66 0 1109.09090909091 0
67 0 1060 0
68 0 1010.90909090909 0
69 0 961.818181818182 0
70 0 912.727272727273 0
71 0 863.636363636364 0
72 0 814.545454545455 0
73 0 765.454545454545 0
74 0 716.363636363636 0
75 0 667.272727272727 0
76 0 618.181818181818 0
77 0 569.090909090909 0
78 750 1600 0
79 700 1600 0
80 650 1600 0
81 600 1600 0
82 550 1600 0
83 500 1600 0
84 450 1600 0
85 400 1600 0
86 350 1600 0
87 300 1600 0
88 250 1600 0
89 200 1600 0
90 150 1600 0
91 100 1600 0
92 50 1600 0
93 800 569.090909090909 0
94 800 618.181818181818 0
95 800 667.272727272727 0
96 800 716.363636363636 0
97 800 765.454545454545 0
98 800 814.545454545455 0
99 800 863.636363636364 0
100 800 912.727272727273 0
101 800 961.818181818182 0
102 800 1010.90909090909 0
103 800 1060 0
104 800 1109.09090909091 0
105 800 1158.18181818182 0
106 800 1207.27272727273 0
107 800 1256.36363636364 0
108 800 1305.45454545455 0
109 800 1354.54545454545 0
110 800 1403.63636363636 0
111 800 1452.72727272727 0
112 800 1501.81818181818 0
113 800 1550.90909090909 0
129 250 450 0
130 400 450 0
131 300 50 0
132 500 50 0
133 750 200 0
134 50 250 0
135 550 450 0
136 750 300 0
137 200 50 0
138 50 150 0
139 650 50 0
140 650 450 0
141 50 400 0
142 50 50 0
143 750 400 0
144 750 50 0
145 700 450 0
146 750 450 0
147 750 100 0
148 50 450 0
149 50 350 0
150 100 450 0
151 150 450 0
152 300 450 0
153 450 450 0
154 150 50 0
155 400 50 0
156 600 50 0
157 250 400 0
158 400 400 0
159 200 100 0
160 650 100 0
161 50 100 0
162 750 250 0
163 700 400 0
164 50 200 0
165 750 150 0
166 100 50 0
167 50 300 0
168 200 450 0
169 350 450 0
170 500 450 0
171 600 450 0
172 750 350 0
173 250 50 0
174 350 50 0
175 450 50 0
176 550 50 0
177 700 50 0
178 100 400 0
179 500 100 0
180 400 100 0
181 100 300 0
182 700 250 0
183 550 400 0
184 150 100 0
185 150 400 0
186 300 400 0
187 100 150 0
188 100 100 0
189 450 400 0
190 350 100 0
191 700 150 0
192 100 250 0
193 600 400 0
194 650 400 0
195 700 100 0
196 100 350 0
197 600 100 0
198 200 400 0
199 250 100 0
200 350 400 0
201 700 350 0
202 250 350 0
203 400 350 0
204 400 150 0
205 250 150 0
206 150 300 0
207 550 350 0
208 200 150 0
209 150 150 0
210 500 400 0
211 300 100 0
212 700 200 0
213 700 300 0
214 650 150 0
215 100 200 0
216 450 100 0
217 550 100 0
218 150 350 0
219 600 350 0
220 650 350 0
221 300 350 0
222 550 150 0
223 250 300 0
224 550 300 0
225 450 350 0
226 150 250 0
227 300 150 0
228 250 200 0
229 350 150 0
230 350 350 0
231 500 350 0
232 650 200 0
233 650 250 0
234 600 150 0
235 200 350 0
236 200 200 0
237 150 200 0
238 650 300 0
239 450 150 0
240 400 300 0
241 400 200 0
242 500 300 0
243 300 300 0
244 350 200 0
245 600 300 0
246 600 200 0
247 200 250 0
248 300 200 0
249 500 150 0
250 200 300 0
251 550 200 0
252 350 300 0
253 250 250 0
254 500 250 0
255 550 250 0
256 600 250 0
257 450 200 0
258 400 250 0
259 350 250 0
260 450 300 0
261 300 250 0
262 500 200 0
263 450 250 0
264 49.1061767558722 1158.18786516485 0
265 49.1127701714429 961.85611378148 0
266 750.894967035865 1010.89663497137 0
267 499.982512116969 569.883549772609 0
268 350.018277225631 1550.10891115444 0
269 750.856809545121 1207.21598837023 0
270 349.94486578411 569.882485480812 0
271 500.022007216278 1550.11852020128 0
272 49.3246075864107 1403.46006603977 0
273 49.1945865567994 814.702414391355 0
274 750.777907503639 1354.33598937947 0
275 750.473328804859 765.447464344294 0
276 199.687041807759 569.75861770846 0
277 600.187906500871 1550.19830576347 0
278 650.211347384887 569.600260330505 0
279 750.606264313276 1452.37437952749 0
280 49.2689524812907 716.637976778258 0
281 149.730768665256 1550.30835138596 0
282 750.335271996257 618.313974782196 0
283 49.1637935350424 1305.44044450978 0
284 750.816593014465 863.641226041833 0
285 700.287751225631 1550.47430071649 0
286 750.404247198186 1501.47722569633 0
287 49.7814255008446 1550.68372475653 0
288 99.5952789824184 569.513554153824 0
289 49.3632865716901 667.621911374303 0
290 49.536425376824 618.52229244968 0
291 199.864978985921 1550.21277238826 0
292 399.996305234691 1550.10698901853 0
293 249.971513448142 1550.16038886122 0
294 299.904331541127 569.842582229694 0
295 600.09535227183 569.760931159618 0
296 449.957003754378 569.885537326779 0
297 49.0976095988597 1060.01250196722 0
298 49.1402627636876 1256.35754753127 0
299 750.862333841887 912.727221339577 0
300 49.1351723778826 912.798705481093 0
301 750.891561163855 1059.98056835268 0
302 750.881222430897 1109.05918492966 0
303 750.835928640628 1256.27664091387 0
304 750.285433068508 667.357268896846 0
305 750.188545190951 569.2059853489 0
306 750.185509570444 1550.70247821198 0
307 49.7669068225507 569.295923414515 0
308 49.6073462365262 1501.48217815442 0
309 701.776545125323 1010.87816633052 0
310 98.2417365286437 961.950822441342 0
311 349.878072834092 619.665789300418 0
312 701.687158910905 1207.09974852321 0
313 350.02092930732 1500.29102210835 0
314 98.3919263234916 1305.28835397435 0
315 199.676455484346 1500.5954058519 0
316 98.6693883265025 717.02231564721 0
317 650.277519820963 619.044825031404 0
318 700.351197954833 618.61088482006 0
319 99.432774001435 1501.14904551907 0
320 650.28317479411 1550.3209444471 0
321 149.584395593921 569.651347048813 0
322 300.017166211403 1550.13772841276 0
323 550.110879619517 1550.15537314199 0
324 249.798797999416 569.789181933334 0
325 550.019240285191 569.842730343121 0
326 449.994946407343 1550.11466531083 0
327 399.943404106321 569.878979990781 0
328 99.7213879702392 1550.51550117492 0
329 49.1042019921294 1010.93633542324 0
330 49.0998744127151 1109.0998367517 0
331 701.771992425334 1059.94642937459 0
332 49.123086724478 1207.27308767041 0
333 750.882898970245 961.810036066991 0
334 750.866722976686 1158.13284663984 0
335 49.1657579413961 863.755758711119 0
336 49.23635195349 1354.4626468047 0
337 750.806377875355 1305.3078650105 0
338 750.673811194613 814.559347580818 0
339 49.2421670812913 765.680118720951 0
340 750.704450358677 1403.32455056104 0
341 750.275189665791 716.40933438319 0
342 49.4922360818289 1452.42985484799 0
343 700.209866406298 569.362948326043 0
344 701.036308434812 1451.91385459261 0
345 700.63641259482 1501.12161780377 0
346 98.9054372662119 668.024367091159 0
347 99.2460939363292 618.844603863412 0
348 652.620172930662 1010.84095292125 0
349 98.2315212609187 1158.18380993415 0
350 550.411336538546 1500.41934586732 0
351 701.571467813827 863.746316688721 0
352 249.502016554886 619.466842580216 0
353 148.27951632223 717.466137232955 0
354 300.008697245312 1500.33985888226 0
355 550.046731878146 619.610145781504 0
356 98.322367114448 1256.26024747191 0
357 701.719989903011 1158.05120088123 0
358 701.743685559176 961.805657875755 0
359 701.48267843308 1353.98117586872 0
360 98.4395634381624 814.982974083163 0
361 149.144285715486 619.119639157193 0
362 700.828898984557 765.759191699272 0
363 149.487317106466 1500.88253602935 0
364 700.270235204479 667.739158573476 0
365 249.870790240948 1500.44850648692 0
366 650.733052234527 1500.80433713907 0
367 600.115433797024 619.387875201119 0
368 299.736041710891 619.567550280279 0
369 399.918649753632 619.688037154228 0
370 450.011796769391 1500.29420332555 0
371 399.990856680567 1500.29302525177 0
372 98.2112112205954 1109.11148819933 0
373 98.2054762832275 1060.04065617047 0
374 98.2166928598046 1010.98745234916 0
375 98.295478528141 912.965874738755 0
376 701.635932114518 1256.09567504621 0
377 701.749334421223 1108.99965770112 0
378 98.8340422753604 1403.14815203141 0
379 98.5775463409033 1354.21396894018 0
380 98.5627546878499 766.011263138481 0
381 701.296423494476 1402.89728759962 0
382 99.1923455947814 1452.07832302918 0
383 652.482046351618 1206.83258451146 0
384 147.341510853002 1011.07220310615 0
385 400.0714002691 669.305997746443 0
386 400.085241782561 1450.57082312532 0
387 147.722273864301 1304.84325668522 0
388 249.553949322798 1450.87447528709 0
389 652.091080111973 1353.51890812656 0
390 249.037448790583 668.982150687255 0
391 600.24362605833 668.859934991783 0
392 652.539245397496 961.790073706587 0
393 650.242843999149 668.292980709575 0
394 149.101937582488 1451.68069816821 0
395 199.245528753964 619.300753049991 0
396 600.669845849629 1500.59071792848 0
397 500.011492264511 619.669906814529 0
398 449.97912072306 619.676928594123 0
399 500.183601019397 1500.3532820953 0
400 299.42285733457 669.134505627159 0
401 299.817458978939 1450.69383756643 0
402 652.631237704142 1059.88036858364 0
403 147.341405616712 1109.11204911389 0
404 98.3658750572657 863.99302782079 0
405 701.560161210848 1305.03972632698 0
406 147.398851187979 962.137139697553 0
407 98.2744419468828 1207.22700097806 0
408 700.406211385239 716.798260304779 0
409 652.601398831482 1108.88803909614 0
410 701.674543165359 912.765869820621 0
411 701.289698527 814.786836389976 0
412 147.752708173611 815.417678539864 0
413 147.999433604577 766.465745048533 0
414 148.71392411743 668.362472970482 0
415 651.282488770311 1451.51719910513 0
416 148.559069420277 1402.64461404432 0
417 603.360189612136 1010.74683705203 0
418 196.530050380073 1011.2391781056 0
419 248.849267069428 1401.53674982421 0
420 248.30330155568 718.276362141772 0
421 500.605050823095 1450.72086149929 0
422 601.291232923821 1451.1877939107 0
423 652.24517089331 863.998598531198 0
424 147.491260989585 913.258171734777 0
425 652.388603527256 1255.73527226041 0
426 197.153755543789 815.944424874847 0
427 198.547296284282 1402.06618804929 0
428 198.162240246869 717.894352978041 0
429 650.603252340901 717.438426343137 0
430 450.298530501209 1450.63312041979 0
431 450.256213779283 669.364056553864 0
432 349.785994152075 669.187300993728 0
433 350.000236140642 1450.6112011511 0
434 550.337479063084 669.176205400848 0
435 652.545626591272 1157.85748981363 0
436 147.334824608727 1060.0918175659 0
437 147.389825173741 1158.11270404305 0
438 147.565497592666 1255.96266315153 0
439 148.092278167765 1353.69411508159 0
440 603.432380317015 1059.74481144666 0
441 652.408452880279 912.834043694315 0
442 199.236376086252 1451.28448096468 0
443 147.617492194751 864.36858019455 0
444 652.259196743638 1304.61515211451 0
445 651.724823277795 1402.45498728928 0
446 198.764266907375 668.654446018273 0
447 651.289180449724 766.417747858509 0
448 553.865160901332 1010.6013697539 0
449 450.583096485948 718.99519825281 0
450 450.944942243189 1401.12683511463 0
451 603.227799770484 1206.41303265267 0
452 602.523809927521 1352.99148041664 0
453 196.527904885806 1109.06886257942 0
454 603.020262465242 912.953259580225 0
455 197.229658401331 1304.19403928503 0
456 601.674863358976 767.156451656085 0
457 551.055366677634 1450.94310889095 0
458 500.35415269106 669.327562952319 0
459 349.979612260951 1401.06252115046 0
460 299.367621816171 1401.25832646135 0
461 298.740705183014 718.368108954218 0
462 400.071076672614 718.606457480535 0
463 603.413815154203 1108.67510039017 0
464 196.62769260762 962.424559940366 0
465 196.923042275724 864.824752889519 0
466 197.614440633516 766.966979509603 0
467 651.849718019809 815.248771270666 0
468 196.514729803068 1060.15584476951 0
469 147.468421882642 1207.04929437422 0
470 603.159133836835 961.763373837266 0
471 600.865071759739 718.07257225564 0
472 603.065695936408 1255.23253569036 0
473 601.93381050311 1402.02888712833 0
474 197.849960497333 1353.06098921387 0
475 246.034001772031 1060.22884781765 0
476 398.4540019114 767.630968818875 0
477 246.813858322049 816.360497253602 0
478 553.785543526552 1205.97721487693 0
479 551.813048859633 767.990234404118 0
480 298.635622790647 1352.01992471864 0
481 602.779392628784 864.433281341456 0
482 247.180518408536 1303.57156297966 0
483 500.864998833219 719.015969513727 0
484 501.512778360645 1401.34127498024 0
485 552.647892245524 1352.52059797983 0
486 349.259286644306 718.373440472162 0
487 400.503450587326 1401.07185073878 0
488 196.74869222879 1206.71833400029 0
489 554.069796442592 1059.47804961159 0
490 246.147095455591 1011.51362677678 0
491 603.320065393317 1157.55230997678 0
492 196.989108612377 1255.44832512884 0
493 550.97844950649 718.61200233853 0
494 602.808595891297 1304.0898315126 0
495 196.628879744221 1157.913472155 0
496 551.826680108035 1401.67643186428 0
497 553.601206898555 961.875882901285 0
498 248.048908856428 1352.51432982469 0
499 196.765236187393 913.644504595366 0
500 247.517317481234 767.324888999775 0
501 602.309672673077 815.897670008045 0
502 503.889175307898 1010.44857309033 0
503 297.863308152146 1303.09155011314 0
504 296.759968770536 1059.99926622464 0
505 400.843929330828 1351.79407585391 0
506 500.921237682088 769.243667847692 0
507 502.371018296868 1352.18225750034 0
508 554.099494739323 1108.31701505491 0
509 553.490996946669 1254.75138850167 0
510 246.176214517304 1157.64605477651 0
511 449.111614094127 769.35974084594 0
512 347.977005934838 766.937061867269 0
513 296.944485854417 816.142720382043 0
514 349.715005775027 1351.86801154284 0
515 246.294881355208 914.067663075646 0
516 553.474768428874 913.616908746172 0
517 552.421528199756 817.028776146311 0
518 246.573561867375 865.1889496218 0
519 297.767755033644 767.232497664717 0
520 246.166658172054 1108.9292194494 0
521 553.95665038553 1157.15646610037 0
522 246.253107437047 962.821811750713 0
523 553.094285236729 1303.60666371884 0
524 246.772227368893 1254.88239389532 0
525 504.154689686623 1156.57651209979 0
526 296.787411101165 962.916736714788 0
527 443.474276866661 826.646957837151 0
528 346.68183610016 814.651090690213 0
529 504.275369721359 1058.98453592684 0
530 297.292395048458 1254.38473266884 0
531 451.703593683238 1351.9690020884 0
532 349.162951235154 1302.86945889414 0
533 501.239363777023 819.775366994202 0
534 503.687975504664 1205.45424198379 0
535 502.912321760065 1303.2366498982 0
536 503.967989227618 962.517529505967 0
537 296.789179165594 1108.48830379183 0
538 297.0086935915 1011.46617276141 0
539 296.82971559462 913.901036701205 0
540 296.826079029781 864.797386923882 0
541 246.527165398741 1206.27095039839 0
542 553.034995881008 865.626603345215 0
543 453.149761709191 1010.27309845619 0
544 453.19839762614 1155.91744131361 0
545 349.062491258474 1059.1663732231 0
546 349.259392554678 961.792834203445 0
547 348.697883396639 1254.03153950017 0
548 452.040384807561 1302.97352841196 0
549 347.359575271702 862.407058161407 0
550 296.872423730387 1157.13137737619 0
551 504.593875546082 915.614274105841 0
552 392.323267687265 811.860518665361 0
553 400.65874532749 1302.85270173686 0
554 504.260091721017 1107.67806508679 0
555 503.190918937882 1254.34798179532 0
556 297.153004302997 1205.77127217429 0
557 503.424388458681 868.754131969249 0
558 453.493393467767 1107.03298861368 0
559 452.164788119758 1253.9978087925 0
560 400.544416011331 1253.87724674923 0
561 394.222665014106 856.112425415432 0
562 459.313352976086 918.953910466567 0
563 348.925661605215 1107.62363765172 0
564 348.686023199559 1205.23293218588 0
565 457.214974079965 875.391887874181 0
566 453.397662871821 1058.5118245848 0
567 349.125449629933 1010.79117199317 0
568 349.170257185296 911.404476340731 0
569 452.548011318831 1204.98022723413 0
570 454.199697877095 962.38731032164 0
571 401.470405278008 1010.28286250942 0
572 401.536037896561 1058.55652548448 0
573 401.301522837459 1107.11923493752 0
574 402.729759603788 961.113487408026 0
575 400.930480843777 1155.97069871936 0
576 408.434291308319 904.475739630372 0
577 400.689151731218 1204.96087935701 0
578 348.738562825552 1156.51858810718 0
609 50 500 0
610 100 500 0
611 150 500 0
612 200 500 0
613 250 500 0
614 300 500 0
615 350 500 0
616 400 500 0
617 450 500 0
618 500 500 0
619 550 500 0
620 600 500 0
621 650 500 0
622 700 500 0
623 750 500 0
624 750 520 0
625 700 520 0
626 650 520 0
627 600 520 0
628 550 520 0
629 500 520 0
630 450 520 0
631 400 520 0
632 350 520 0
633 300 520 0
634 250 520 0
635 200 520 0
636 150 520 0
637 100 520 0
638 50 520 0
$EndNodes
$Elements
529
1 2 2 1 1 527 561 552 
2 2 2 1 1 562 576 565 
3 3 2 1 1 189 210 170 153
4 3 2 1 1 168 198 157 129
5 3 2 1 1 158 130 169 200
6 3 2 1 1 159 137 173 199
7 3 2 1 1 205 208 159 199
8 3 2 1 1 177 195 160 139
9 3 2 1 1 191 214 160 195
10 3 2 1 1 164 215 192 134
11 3 2 1 1 166 154 184 188
12 3 2 1 1 185 198 168 151
13 3 2 1 1 186 200 169 152
14 3 2 1 1 170 210 183 135
15 3 2 1 1 160 197 156 139
16 3 2 1 1 183 193 171 135
17 3 2 1 1 175 216 180 155
18 3 2 1 1 176 217 179 132
19 3 2 1 1 197 217 176 156
20 3 2 1 1 222 249 179 217
21 3 2 1 1 179 249 239 216
22 3 2 1 1 180 204 229 190
23 3 2 1 1 182 233 232 212
24 3 2 1 1 196 218 185 178
25 3 2 1 1 203 225 189 158
26 3 2 1 1 141 178 150 148
27 3 2 1 1 55 177 139 54
28 3 2 1 1 144 177 55 56
29 3 2 1 1 130 158 189 153
30 3 2 1 1 190 211 131 174
31 3 2 1 1 131 211 199 173
32 3 2 1 1 132 179 216 175
33 3 2 1 1 182 212 133 162
34 3 2 1 1 133 212 191 165
35 3 2 1 1 134 192 181 167
36 3 2 1 1 140 194 163 145
37 3 2 1 1 193 194 140 171
38 3 2 1 1 192 226 206 181
39 3 2 1 1 145 163 143 146
40 3 2 1 1 143 163 201 172
41 3 2 1 1 147 195 177 144
42 3 2 1 1 191 195 147 165
43 3 2 1 1 149 196 178 141
44 3 2 1 1 181 196 149 167
45 3 2 1 1 178 185 151 150
46 3 2 1 1 157 186 152 129
47 3 2 1 1 159 184 154 137
48 3 2 1 1 155 180 190 174
49 3 2 1 1 239 257 241 204
50 3 2 1 1 224 207 231 242
51 3 2 1 1 254 255 224 242
52 3 2 1 1 240 260 225 203
53 3 2 1 1 236 247 226 237
54 3 2 1 1 227 248 228 205
55 3 2 1 1 229 204 241 244
56 3 2 1 1 229 244 248 227
57 3 2 1 1 260 242 231 225
58 3 2 1 1 232 246 234 214
59 3 2 1 1 245 256 233 238
60 3 2 1 1 233 256 246 232
61 3 2 1 1 246 251 222 234
62 3 2 1 1 263 258 241 257
63 3 2 1 1 242 260 263 254
64 3 2 1 1 258 259 244 241
65 3 2 1 1 255 256 245 224
66 3 2 1 1 246 256 255 251
67 3 2 1 1 251 262 249 222
68 3 2 1 1 249 262 257 239
69 3 2 1 1 262 251 255 254
70 3 2 1 1 258 263 260 240
71 3 2 1 1 263 257 262 254
72 3 2 1 1 211 227 205 199
73 3 2 1 1 207 219 193 183
74 3 2 1 1 194 220 201 163
75 3 2 1 1 219 220 194 193
76 3 2 1 1 206 218 196 181
77 3 2 1 1 214 234 197 160
78 3 2 1 1 197 234 222 217
79 3 2 1 1 198 235 202 157
80 3 2 1 1 218 235 198 185
81 3 2 1 1 200 230 203 158
82 3 2 1 1 216 239 204 180
83 3 2 1 1 141 148 9 10
84 3 2 1 1 210 231 207 183
85 3 2 1 1 228 236 208 205
86 3 2 1 1 225 231 210 189
87 3 2 1 1 229 227 211 190
88 3 2 1 1 212 232 214 191
89 3 2 1 1 220 238 213 201
90 3 2 1 1 213 238 233 182
91 3 2 1 1 215 237 226 192
92 3 2 1 1 224 245 219 207
93 3 2 1 1 219 245 238 220
94 3 2 1 1 142 42 43 166
95 3 2 1 1 42 142 17 2
97 3 2 1 1 155 174 48 49
98 3 2 1 1 48 174 131 47
100 3 2 1 1 46 173 137 45
103 3 2 1 1 131 173 46 47
105 3 2 1 1 137 154 44 45
108 3 2 1 1 154 166 43 44
112 3 2 1 1 41 146 143 40
118 3 2 1 1 136 162 37 38
119 3 2 1 1 37 162 133 36
121 3 2 1 1 33 144 56 4
122 3 2 1 1 34 147 144 33
123 3 2 1 1 12 167 149 11
124 3 2 1 1 134 167 12 13
125 3 2 1 1 11 149 141 10
126 3 2 1 1 50 51 132 175
127 3 2 1 1 52 176 132 51
128 3 2 1 1 156 176 52 53
129 3 2 1 1 139 156 53 54
130 3 2 1 1 175 155 49 50
131 3 2 1 1 184 159 208 209
132 3 2 1 1 236 237 209 208
133 3 2 1 1 253 261 243 223
134 3 2 1 1 35 165 147 34
135 3 2 1 1 133 165 35 36
136 3 2 1 1 253 247 236 228
137 3 2 1 1 201 213 136 172
138 3 2 1 1 248 244 259 261
139 3 2 1 1 250 235 218 206
140 3 2 1 1 221 230 200 186
141 3 2 1 1 209 237 215 187
142 3 2 1 1 209 187 188 184
143 3 2 1 1 14 164 134 13
144 3 2 1 1 223 243 221 202
145 3 2 1 1 161 188 187 138
146 3 2 1 1 259 258 240 252
147 3 2 1 1 235 250 223 202
148 3 2 1 1 247 253 223 250
149 3 2 1 1 136 213 182 162
150 3 2 1 1 172 136 38 39
151 3 2 1 1 142 166 188 161
152 3 2 1 1 226 247 250 206
153 3 2 1 1 243 252 230 221
154 3 2 1 1 230 252 240 203
155 3 2 1 1 16 161 138 15
156 3 2 1 1 261 253 228 248
157 3 2 1 1 157 202 221 186
158 3 2 1 1 17 142 161 16
159 3 2 1 1 243 261 259 252
160 3 2 1 1 143 172 39 40
161 3 2 1 1 187 215 164 138
162 3 2 1 1 138 164 14 15
163 3 2 1 1 292 85 86 268
164 3 2 1 1 103 301 266 102
165 3 2 1 1 112 286 279 111
166 3 2 1 1 297 330 66 67
167 3 2 1 1 264 65 66 330
169 3 2 1 1 64 332 298 63
170 3 2 1 1 100 299 284 99
171 3 2 1 1 95 304 282 94
172 3 2 1 1 89 90 281 291
173 3 2 1 1 88 89 291 293
175 3 2 1 1 75 289 280 74
176 3 2 1 1 70 300 265 69
177 3 2 1 1 76 290 289 75
178 3 2 1 1 63 298 283 62
179 3 2 1 1 264 332 64 65
180 3 2 1 1 266 333 101 102
181 3 2 1 1 101 333 299 100
182 3 2 1 1 104 302 301 103
183 3 2 1 1 297 67 68 329
184 3 2 1 1 265 329 68 69
185 3 2 1 1 297 373 372 330
186 3 2 1 1 107 303 269 106
187 3 2 1 1 349 407 332 264
188 3 2 1 1 372 349 264 330
189 3 2 1 1 357 312 383 435
190 3 2 1 1 310 374 329 265
191 3 2 1 1 374 373 297 329
192 3 2 1 1 475 468 418 490
193 3 2 1 1 266 301 331 309
194 3 2 1 1 301 302 377 331
195 3 2 1 1 272 60 61 336
196 3 2 1 1 348 309 331 402
197 3 2 1 1 302 104 105 334
198 3 2 1 1 309 358 333 266
199 3 2 1 1 275 97 98 338
200 3 2 1 1 436 403 372 373
201 3 2 1 1 384 436 373 374
202 3 2 1 1 300 70 71 335
203 3 2 1 1 348 392 358 309
205 3 2 1 1 417 440 489 448
206 3 2 1 1 271 83 84 326
207 3 2 1 1 277 81 82 323
209 3 2 1 1 299 333 358 410
210 3 2 1 1 59 342 308 58
211 3 2 1 1 463 508 489 440
212 3 2 1 1 525 521 478 534
213 3 2 1 1 303 107 108 337
214 3 2 1 1 304 95 96 341
217 3 2 1 1 385 431 449 462
218 3 2 1 1 61 62 283 336
219 3 2 1 1 384 406 464 418
220 3 2 1 1 349 372 403 437
221 3 2 1 1 285 79 80 320
222 3 2 1 1 105 106 269 334
223 3 2 1 1 377 302 334 357
224 3 2 1 1 268 86 87 322
225 3 2 1 1 284 299 410 351
226 3 2 1 1 375 300 335 404
227 3 2 1 1 98 99 284 338
228 3 2 1 1 273 72 73 339
229 3 2 1 1 351 411 338 284
230 3 2 1 1 314 283 298 356
231 3 2 1 1 274 109 110 340
232 3 2 1 1 375 424 406 310
233 3 2 1 1 387 314 356 438
234 3 2 1 1 265 300 375 310
235 3 2 1 1 71 72 273 335
237 3 2 1 1 320 80 81 277
238 3 2 1 1 405 376 303 337
239 3 2 1 1 298 332 407 356
240 3 2 1 1 326 84 85 292
241 3 2 1 1 296 267 397 398
242 3 2 1 1 406 384 374 310
243 3 2 1 1 379 378 272 336
244 3 2 1 1 323 82 83 271
245 3 2 1 1 311 368 294 270
246 3 2 1 1 529 566 543 502
247 3 2 1 1 450 430 386 487
249 3 2 1 1 462 486 432 385
250 3 2 1 1 400 368 311 432
251 3 2 1 1 421 457 350 399
252 3 2 1 1 272 342 59 60
254 3 2 1 1 350 323 271 399
255 3 2 1 1 453 495 437 403
256 3 2 1 1 268 313 371 292
257 3 2 1 1 386 371 313 433
258 3 2 1 1 377 357 435 409
259 3 2 1 1 108 109 274 337
260 3 2 1 1 505 531 450 487
261 3 2 1 1 418 468 436 384
262 3 2 1 1 338 411 362 275
263 3 2 1 1 487 459 514 505
264 3 2 1 1 423 467 411 351
266 3 2 1 1 96 97 275 341
267 3 2 1 1 459 487 386 433
268 3 2 1 1 278 317 367 295
269 3 2 1 1 463 409 435 491
270 3 2 1 1 312 357 334 269
271 3 2 1 1 322 87 88 293
272 3 2 1 1 355 434 458 397
273 3 2 1 1 324 294 368 352
274 3 2 1 1 497 470 417 448
275 3 2 1 1 269 303 376 312
276 3 2 1 1 348 402 440 417
277 3 2 1 1 326 292 371 370
278 3 2 1 1 315 365 293 291
279 3 2 1 1 73 74 280 339
280 3 2 1 1 385 432 311 369
281 3 2 1 1 336 283 314 379
282 3 2 1 1 417 470 392 348
283 3 2 1 1 437 469 407 349
284 3 2 1 1 380 360 273 339
285 3 2 1 1 110 111 279 340
286 3 2 1 1 402 409 463 440
287 3 2 1 1 464 522 490 418
288 3 2 1 1 403 436 468 453
289 3 2 1 1 489 529 502 448
290 3 2 1 1 392 441 410 358
291 3 2 1 1 566 529 554 558
292 3 2 1 1 432 486 461 400
293 3 2 1 1 438 469 488 492
294 3 2 1 1 331 377 409 402
295 3 2 1 1 401 433 313 354
296 3 2 1 1 370 399 271 326
297 3 2 1 1 325 295 367 355
298 3 2 1 1 383 312 376 425
299 3 2 1 1 351 410 441 423
300 3 2 1 1 355 397 267 325
301 3 2 1 1 352 395 276 324
302 3 2 1 1 433 401 460 459
303 3 2 1 1 481 423 441 454
304 3 2 1 1 471 493 434 391
305 3 2 1 1 439 416 378 379
306 3 2 1 1 337 274 359 405
307 3 2 1 1 453 468 475 520
308 3 2 1 1 356 407 469 438
309 3 2 1 1 426 412 413 466
310 3 2 1 1 335 273 360 404
311 3 2 1 1 522 464 499 515
312 3 2 1 1 323 350 396 277
313 3 2 1 1 398 369 327 296
314 3 2 1 1 488 469 437 495
315 3 2 1 1 364 318 282 304
316 3 2 1 1 454 441 392 470
317 3 2 1 1 381 359 274 340
318 3 2 1 1 366 320 277 396
319 3 2 1 1 322 293 365 354
320 3 2 1 1 316 380 339 280
321 3 2 1 1 379 314 387 439
322 3 2 1 1 369 311 270 327
323 3 2 1 1 443 424 375 404
324 3 2 1 1 495 453 520 510
325 3 2 1 1 376 405 444 425
326 3 2 1 1 515 499 465 518
327 3 2 1 1 442 388 365 315
328 3 2 1 1 306 113 7 78
329 3 2 1 1 467 447 362 411
330 3 2 1 1 401 354 365 388
331 3 2 1 1 445 415 422 473
332 3 2 1 1 419 460 401 388
333 3 2 1 1 541 488 495 510
334 3 2 1 1 93 94 282 305
335 3 2 1 1 290 76 77 307
338 3 2 1 1 281 90 91 328
339 3 2 1 1 413 412 360 380
340 3 2 1 1 475 490 538 504
341 3 2 1 1 412 443 404 360
342 3 2 1 1 344 381 340 279
343 3 2 1 1 354 313 268 322
344 3 2 1 1 431 385 369 398
345 3 2 1 1 391 434 355 367
346 3 2 1 1 480 514 459 460
347 3 2 1 1 398 397 458 431
348 3 2 1 1 78 79 285 306
351 3 2 1 1 421 399 370 430
352 3 2 1 1 286 112 113 306
353 3 2 1 1 371 386 430 370
354 3 2 1 1 550 510 520 537
355 3 2 1 1 537 520 475 504
356 3 2 1 1 353 413 380 316
357 3 2 1 1 451 491 435 383
360 3 2 1 1 328 91 92 287
361 3 2 1 1 501 517 479 456
362 3 2 1 1 452 389 445 473
363 3 2 1 1 451 472 509 478
364 3 2 1 1 280 289 346 316
365 3 2 1 1 444 389 452 494
366 3 2 1 1 345 286 306 285
367 3 2 1 1 426 465 443 412
368 3 2 1 1 478 509 555 534
369 3 2 1 1 522 515 539 526
370 3 2 1 1 425 444 494 472
371 3 2 1 1 389 444 405 359
372 3 2 1 1 316 346 414 353
373 3 2 1 1 472 494 523 509
374 3 2 1 1 57 287 92 5
375 3 2 1 1 545 563 537 504
376 3 2 1 1 413 353 428 466
377 3 2 1 1 57 58 308 287
378 3 2 1 1 290 307 288 347
379 3 2 1 1 383 425 472 451
380 3 2 1 1 501 481 542 517
381 3 2 1 1 515 518 540 539
382 3 2 1 1 563 578 550 537
383 3 2 1 1 509 523 535 555
384 3 2 1 1 490 522 526 538
385 3 2 1 1 465 426 477 518
386 3 2 1 1 430 450 484 421
387 3 2 1 1 346 347 361 414
388 3 2 1 1 463 491 521 508
389 3 2 1 1 508 521 525 554
390 3 2 1 1 518 477 513 540
391 3 2 1 1 287 308 319 328
392 3 2 1 1 305 282 318 343
393 3 2 1 1 491 451 478 521
394 3 2 1 1 498 474 455 482
395 3 2 1 1 458 434 493 483
396 3 2 1 1 477 500 519 513
397 3 2 1 1 489 508 554 529
398 3 2 1 1 424 443 465 499
399 3 2 1 1 428 353 414 446
400 3 2 1 1 426 466 500 477
401 3 2 1 1 523 485 507 535
402 3 2 1 1 524 492 488 541
403 3 2 1 1 345 344 279 286
404 3 2 1 1 483 449 431 458
405 3 2 1 1 482 455 492 524
406 3 2 1 1 347 346 289 290
407 3 2 1 1 406 424 499 464
408 3 2 1 1 285 320 366 345
409 3 2 1 1 455 387 438 492
410 3 2 1 1 445 389 359 381
411 3 2 1 1 272 378 382 342
412 3 2 1 1 540 513 528 549
413 3 2 1 1 321 276 395 361
414 3 2 1 1 361 347 288 321
415 3 2 1 1 452 473 496 485
416 3 2 1 1 342 382 319 308
417 3 2 1 1 328 319 363 281
418 3 2 1 1 408 364 304 341
419 3 2 1 1 315 291 281 363
420 3 2 1 1 516 542 481 454
421 3 2 1 1 534 569 544 525
422 3 2 1 1 577 564 578 575
423 3 2 1 1 278 343 318 317
424 3 2 1 1 494 452 485 523
425 3 2 1 1 381 344 415 445
426 3 2 1 1 368 400 390 352
427 3 2 1 1 415 344 345 366
428 3 2 1 1 556 541 510 550
429 3 2 1 1 364 393 317 318
430 3 2 1 1 530 524 541 556
431 3 2 1 1 526 539 568 546
432 3 2 1 1 446 414 361 395
433 3 2 1 1 391 367 317 393
434 3 2 1 1 503 482 524 530
435 3 2 1 1 474 439 387 455
436 3 2 1 1 535 548 559 555
437 3 2 1 1 533 517 542 557
438 3 2 1 1 363 319 382 394
439 3 2 1 1 501 467 423 481
440 3 2 1 1 427 416 439 474
441 3 2 1 1 394 442 315 363
442 3 2 1 1 533 506 479 517
443 3 2 1 1 394 416 427 442
444 3 2 1 1 500 466 428 420
445 3 2 1 1 456 447 467 501
446 3 2 1 1 422 415 366 396
447 3 2 1 1 396 350 457 422
448 3 2 1 1 496 473 422 457
449 3 2 1 1 457 421 484 496
450 3 2 1 1 419 388 442 427
451 3 2 1 1 428 446 390 420
452 3 2 1 1 382 378 416 394
453 3 2 1 1 471 456 479 493
454 3 2 1 1 341 275 362 408
455 3 2 1 1 497 516 454 470
456 3 2 1 1 558 554 525 544
457 3 2 1 1 539 540 549 568
458 3 2 1 1 420 390 400 461
459 3 2 1 1 395 352 390 446
460 3 2 1 1 536 551 516 497
461 3 2 1 1 502 536 497 448
462 3 2 1 1 569 534 555 559
463 3 2 1 1 427 474 498 419
464 3 2 1 1 512 486 462 476
465 3 2 1 1 557 542 516 551
466 3 2 1 1 480 460 419 498
467 3 2 1 1 573 558 544 575
468 3 2 1 1 519 500 420 461
469 3 2 1 1 547 530 556 564
470 3 2 1 1 565 557 551 562
471 3 2 1 1 573 563 545 572
472 3 2 1 1 484 450 531 507
473 3 2 1 1 511 449 483 506
474 3 2 1 1 548 535 507 531
475 3 2 1 1 507 485 496 484
476 3 2 1 1 532 514 480 503
477 3 2 1 1 498 482 503 480
478 3 2 1 1 504 538 567 545
479 3 2 1 1 543 566 572 571
480 3 2 1 1 461 486 512 519
481 3 2 1 1 493 479 506 483
482 3 2 1 1 503 530 547 532
483 3 2 1 1 429 447 456 471
484 3 2 1 1 429 471 391 393
485 3 2 1 1 408 362 447 429
486 3 2 1 1 556 550 578 564
487 3 2 1 1 528 513 519 512
488 3 2 1 1 532 553 505 514
489 3 2 1 1 531 505 553 548
490 3 2 1 1 538 526 546 567
491 3 2 1 1 566 558 573 572
492 3 2 1 1 543 570 536 502
493 3 2 1 1 568 549 561 576
494 3 2 1 1 393 364 408 429
495 3 2 1 1 533 557 565 527
496 3 2 1 1 449 511 476 462
497 3 2 1 1 577 569 559 560
498 3 2 1 1 572 545 567 571
499 3 2 1 1 544 569 577 575
500 3 2 1 1 562 551 536 570
501 3 2 1 1 533 527 511 506
502 3 2 1 1 512 476 552 528
503 3 2 1 1 575 578 563 573
504 3 2 1 1 561 549 528 552
505 3 2 1 1 559 548 553 560
506 3 2 1 1 511 527 552 476
507 3 2 1 1 532 547 560 553
508 3 2 1 1 560 547 564 577
509 3 2 1 1 576 562 570 574
510 3 2 1 1 567 546 574 571
511 3 2 1 1 570 543 571 574
512 3 2 1 1 561 527 565 576
513 3 2 1 1 574 546 568 576
96 3 2 1 1 148 150 610 609
99 3 2 1 1 150 151 611 610
101 3 2 1 1 612 168 129 613
102 3 2 1 1 151 168 612 611
104 3 2 1 1 129 152 614 613
106 3 2 1 1 615 614 152 169
107 3 2 1 1 616 130 153 617
109 3 2 1 1 9 148 609 1
110 3 2 1 1 169 130 616 615
111 3 2 1 1 618 170 135 619
113 3 2 1 1 153 170 618 617
114 3 2 1 1 135 171 620 619
115 3 2 1 1 620 171 140 621
116 3 2 1 1 140 145 622 621
117 3 2 1 1 623 146 41 3
120 3 2 1 1 623 622 145 146
168 3 2 1 1 296 630 629 267
174 3 2 1 1 633 632 270 294
204 3 2 1 1 270 632 631 327
208 3 2 1 1 276 635 634 324
215 3 2 1 1 325 628 627 295
216 3 2 1 1 267 629 628 325
236 3 2 1 1 327 631 630 296
248 3 2 1 1 324 634 633 294
253 3 2 1 1 627 626 278 295
265 3 2 1 1 321 636 635 276
336 3 2 1 1 8 93 305 624
337 3 2 1 1 307 77 6 638
349 3 2 1 1 638 637 288 307
350 3 2 1 1 288 637 636 321
358 3 2 1 1 278 626 625 343
359 3 2 1 1 624 305 343 625
514 3 2 1 1 8 624 623 3
515 3 2 1 1 622 625 626 621
516 3 2 1 1 624 625 622 623
517 3 2 1 1 620 627 628 619
518 3 2 1 1 626 627 620 621
519 3 2 1 1 628 629 618 619
520 3 2 1 1 617 630 631 616
521 3 2 1 1 629 630 617 618
522 3 2 1 1 615 632 633 614
523 3 2 1 1 631 632 615 616
524 3 2 1 1 614 633 634 613
525 3 2 1 1 612 635 636 611
526 3 2 1 1 1 609 638 6
527 3 2 1 1 636 637 610 611
528 3 2 1 1 634 635 612 613
529 3 2 1 1 610 637 638 609
$EndElements
