$MeshFormat
2.2 0 8
$EndMeshFormat
$Nodes
552
1 300 0 400
2 500 0 400
3 500 0 600
4 300 0 600
5 300 0 500
6 0 0 0
7 800 0 0
8 0 0 500
9 800 0 1600
10 0 0 1600
11 350 0 400
12 400 0 400
13 450 0 400
14 500 0 450
15 500 0 500
16 500 0 550
17 450 0 600
18 400 0 600
19 350 0 600
20 300 0 550
21 300 0 450
22 50 0 0
23 100 0 0
24 150 0 0
25 200 0 0
26 250 0 0
27 300 0 0
28 350 0 0
29 400 0 0
30 450 0 0
31 500 0 0
32 550 0 0
33 600 0 0
34 650 0 0
35 700 0 0
36 750 0 0
37 0 0 450
38 0 0 400
39 0 0 350
40 0 0 300
41 0 0 250
42 0 0 200
43 0 0 150
44 0 0 100
45 0 0 50
46 800 0 50
47 800 0 100
48 800 0 150
49 800 0 200
50 800 0 250
51 800 0 300
52 800 0 350
53 800 0 400
54 800 0 450
55 800 0 500
56 800 0 550
57 800 0 600
58 800 0 650
59 800 0 700
60 800 0 750
61 800 0 800
62 800 0 850
63 800 0 900
64 800 0 950
65 800 0 1000
66 800 0 1050
67 800 0 1100
68 800 0 1150
69 800 0 1200
70 800 0 1250
71 800 0 1300
72 800 0 1350
73 800 0 1400
74 800 0 1450
75 800 0 1500
76 800 0 1550
77 0 0 1550
78 0 0 1500
79 0 0 1450
80 0 0 1400
81 0 0 1350
82 0 0 1300
83 0 0 1250
84 0 0 1200
85 0 0 1150
86 0 0 1100
87 0 0 1050
88 0 0 1000
89 0 0 950
90 0 0 900
91 0 0 850
92 0 0 800
93 0 0 750
94 0 0 700
95 0 0 650
96 0 0 600
97 0 0 550
98 750 0 1600
99 700 0 1600
100 650 0 1600
101 600 0 1600
102 550 0 1600
103 500 0 1600
104 450 0 1600
105 400 0 1600
106 350 0 1600
107 300 0 1600
108 250 0 1600
109 200 0 1600
110 150 0 1600
111 100 0 1600
112 50 0 1600
113 50 0 500
114 100 0 500
115 150 0 500
116 200 0 500
117 250 0 500
118 750.00000758168 0 1050.00024568702
119 50 0 1150
120 349.937164969125 0 649.931981355408
121 450 0 1550
122 350 0 350
123 500 0 50
124 50 0 800
125 200 0 50
126 300 0 50
127 750 0 1300
128 50 0 300
129 550 0 400
130 549.996322391921 0 549.999477230582
131 749.999818157905 0 750.000496893459
132 49.9999999822977 0 649.999999987434
133 50 0 1300
134 300 0 1550
135 750 0 250
136 600 0 50
137 749.999999832179 0 400.00000001241
138 749.999935741495 0 550.000004751732
139 750 0 1450
140 50 0 1400
141 50 0 100
142 750 0 150
143 200 0 1550
144 50 0 900
145 449.769441576666 0 649.799026966577
146 750.000022302337 0 950.000400603236
147 700 0 1550
148 49.9999999822977 0 549.999999987434
149 250 0 450
150 249.999249508271 0 599.999440106627
151 700 0 50
152 50 0 450
153 50 0 1500
154 50 0 150
155 49.9999999977872 0 699.999999998429
156 50 0 50
157 249.999901656741 0 549.999926796403
158 450 0 350
159 549.999987464778 0 449.999998362119
160 100 0 50
161 350 0 50
162 400 0 50
163 750 0 50
164 50 0 350
165 50 0 200
166 749.999999979023 0 350.000000001551
167 749.999978374219 0 500.000001599165
168 749.999836756714 0 650.000012071373
169 749.999896455922 0 850.001123147332
170 750.000000027874 0 1150.00000090326
171 750 0 1250
172 750 0 1400
173 750 0 1550
174 50 0 1550
175 50 0 1200
176 50 0 1050
177 650 0 1550
178 600 0 1550
179 550 0 1550
180 400 0 1550
181 150 0 1550
182 50 0 950
183 100 0 1150
184 450 0 1500
185 100 0 900
186 300 0 350
187 499.774861692578 0 649.796033411511
188 350 0 100
189 700 0 1300
190 100 0 300
191 600 0 1500
192 99.9999897541008 0 649.999965156725
193 599.999996801858 0 399.999999687225
194 699.998906867953 0 550.000185410657
195 99.9999977704825 0 549.999996720392
196 100 0 150
197 699.999997227379 0 399.99999981606
198 700 0 1450
199 200 0 1500
200 49.9999991804563 0 599.999997589046
201 50 0 850
202 49.9999999997234 0 749.999999999804
203 200 0 450
204 100 0 100
205 50 0 250
206 50 0 1100
207 199.999929545875 0 549.99994616946
208 250 0 400
209 500 0 350
210 549.94905644329 0 599.985372942243
211 299.984404495978 0 649.969252117501
212 400 0 350
213 549.999431237987 0 499.999917956699
214 399.837587942386 0 649.838767284465
215 150 0 50
216 250 0 50
217 450 0 50
218 550 0 50
219 650 0 50
220 50 0 400
221 750 0 100
222 750 0 200
223 749.999999997378 0 300.000000000194
224 749.999995424305 0 450.000000314049
225 749.999768059938 0 600.000023687345
226 749.999870182893 0 700.000070030448
227 749.999658208461 0 800.00143005469
228 750.000044266286 0 900.000794414182
229 750.000015331013 0 1000.00045654289
230 750.000002749056 0 1100.00008908412
231 750.000000017421 0 1200.00000056454
232 750 0 1350
233 750 0 1500
234 50 0 1450
235 50 0 1350
236 50 0 1250
237 500 0 1550
238 350 0 1550
239 250 0 1550
240 100 0 1550
241 100 0 450
242 700 0 1500
243 50 0 1000
244 700.000012988004 0 1100.00042088085
245 399.838372509861 0 699.242901871055
246 700.000906267011 0 950.022787449194
247 500 0 300
248 99.9999999999827 0 799.999999999988
249 350 0 300
250 450 0 100
251 699.989698650385 0 750.025618364641
252 699.999999999836 0 250.000000000012
253 550 0 100
254 100 0 1300
255 249.996834554694 0 649.992255070587
256 250 0 350
257 549.832996616947 0 649.888798492598
258 100 0 200
259 200 0 100
260 599.992596038823 0 549.999041853233
261 350 0 1500
262 100 0 1400
263 199.999636520828 0 599.999332975668
264 150 0 1500
265 699.999788472275 0 500.000022250868
266 700 0 1400
267 100 0 1000
268 550 0 1500
269 100 0 1100
270 100 0 400
271 200 0 400
272 99.9999999999978 0 849.999999999998
273 150 0 100
274 149.999963795594 0 549.999944653835
275 99.9999891429996 0 699.999947918626
276 100 0 250
277 150 0 450
278 449.808111646089 0 698.860688112883
279 100 0 950
280 99.9999902212897 0 599.999980318588
281 699.999949548834 0 1050.00228394088
282 599.999999589743 0 349.999999961679
283 549.999999748834 0 349.999999975661
284 300 0 1500
285 600 0 100
286 650 0 100
287 700 0 150
288 700 0 100
289 100 0 1450
290 100 0 1500
291 450 0 300
292 599.999920584841 0 449.999989990004
293 400 0 100
294 100 0 350
295 699.999999629659 0 349.999999978765
296 699.995355717031 0 600.001594974955
297 699.985903337267 0 700.017172716616
298 700.00286593716 0 850.048906783717
299 700.000000063261 0 1200.00000204998
300 700.000000009868 0 1250.00000031976
301 100 0 1200
302 650 0 1500
303 400 0 1500
304 700 0 1350
305 699.999953776694 0 450.000001585289
306 250 0 1500
307 299.992173396836 0 699.876716325163
308 300 0 100
309 500 0 1500
310 150 0 1100
311 649.999995596821 0 1099.99938560507
312 450 0 1450
313 400.1911708827 0 747.867520157166
314 150.000000517228 0 899.999988681284
315 650.000000000671 0 1300.00000002175
316 500 0 250
317 249.998390936395 0 699.964005496333
318 350 0 150
319 600 0 1450
320 300 0 1450
321 199.999300883036 0 649.99618500647
322 150 0 200
323 200 0 350
324 649.963737923087 0 750.049130360133
325 550 0 150
326 150.000005298024 0 799.999576778395
327 149.999888377222 0 599.999640851903
328 150 0 250
329 150 0 150
330 400 0 150
331 150.000000064654 0 949.99999858516
332 149.999838726359 0 649.999219257872
333 99.9999954514905 0 749.999945876935
334 400 0 300
335 699.996554412589 0 800.047032823462
336 400 0 1450
337 349.969715069461 0 699.568523748045
338 500 0 100
339 699.988041419356 0 650.008514109701
340 700.000001648667 0 1150.00002394386
341 100 0 1050
342 150 0 1150
343 300 0 300
344 499.858798619661 0 698.953995025723
345 150 0 300
346 649.999999508275 0 349.999999963062
347 649.999986461616 0 399.999998982212
348 649.995500984928 0 550.00030722026
349 650 0 1450
350 200 0 1450
351 599.961266746074 0 599.99338096878
352 599.998405060701 0 499.999846508212
353 250 0 100
354 699.99999999998 0 200.000000000001
355 699.999999921315 0 299.99999999516
356 700.000093370727 0 1000.0112143183
357 100 0 1350
358 100 0 1250
359 549.999999942963 0 299.999999994563
360 150 0 1400
361 150 0 1450
362 649.998619976569 0 499.999968992732
363 650 0 1400
364 150 0 400
365 649.999999999999 0 150
366 650.000000009967 0 1250.00000032297
367 700.003482074584 0 900.049331807422
368 550 0 1450
369 200 0 1100
370 649.995599270988 0 950.053365333034
371 200.000342353954 0 899.994746861414
372 450.000000000003 0 1400.0000000001
373 250.00437776418 0 749.927934704459
374 600.000000001062 0 1300.00000003443
375 149.999973124805 0 749.999215443042
376 450 0 150
377 450 0 250
378 350 0 200
379 599.999999895158 0 299.9999999907
380 150 0 1250
381 250 0 300
382 649.941950934886 0 700.024823001223
383 549.888058764326 0 699.443073104878
384 150.000000008082 0 999.999999823145
385 650.000000065063 0 1199.9999904523
386 200 0 1400
387 199.999692987798 0 699.98887900455
388 149.999875266789 0 699.997859829141
389 200 0 150
390 300 0 150
391 350 0 1450
392 650.004746720554 0 900.105991111972
393 650.007140669436 0 800.080622024924
394 400 0 250
395 350 0 250
396 649.999999988508 0 249.999999999118
397 150 0 1300
398 599.911606082897 0 649.954877627579
399 150.000026934959 0 849.999498387775
400 450.27587737939 0 746.964377714012
401 649.999137976349 0 1049.99612234651
402 600 0 150
403 649.999687247751 0 449.999985862342
404 150 0 350
405 649.955116160975 0 650.004096525601
406 649.978106731776 0 599.998289538483
407 150 0 1200
408 650.00000000015 0 1350.00000000487
409 250 0 1450
410 350.096927432599 0 748.956335186304
411 150.00000000101 0 1049.99999997789
412 649.999999222816 0 1149.99981257469
413 600.00000000001 0 1400.00000000032
414 200 0 200
415 500 0 150
416 200 0 250
417 649.999999865359 0 299.999999989783
418 649.99999999855 0 199.999999999891
419 150 0 1350
420 549.999999986318 0 249.999999998739
421 500 0 1450.00000000001
422 599.999998318222 0 1099.86340273639
423 400.30610582131 0 796.327888135822
424 599.953898960457 0 949.542986626908
425 200.00074302985 0 849.99200823371
426 350 0 1400
427 200 0 1250
428 300 0 250
429 550.000000000002 0 1400.00000000008
430 200.001110016815 0 799.986792274633
431 300.027133976298 0 749.624238545845
432 600.07879467979 0 799.530444623135
433 200.000178606142 0 949.995216297954
434 400.000000000002 0 1400.00000000006
435 200.000010399629 0 1049.99919907635
436 500.000000000003 0 1400.0000000001
437 250 0 200
438 499.999999999145 0 199.999999999921
439 300 0 1400
440 200 0 300
441 599.995333084795 0 749.61881835584
442 549.999999998183 0 199.999999999833
443 400 0 200
444 200 0 1150
445 500.24293547692 0 747.364185520606
446 250 0 150
447 649.99479276235 0 999.972459305502
448 600.000000362956 0 1249.9994377568
449 600.000000000199 0 1350.00000000646
450 200.000811052984 0 749.981945665093
451 300 0 200
452 599.999999971564 0 249.999999997574
453 599.919285377766 0 699.800251924854
454 600.000013275394 0 1199.98980909757
455 200 0 1350
456 250 0 1400
457 599.999999994464 0 199.999999999528
458 650.02027039967 0 850.069374805184
459 250.000223746519 0 1049.96585114426
460 250.005696761213 0 849.882066143304
461 400.000000004184 0 1349.99999342231
462 550.000000067717 0 1299.99989469785
463 599.957415629031 0 899.48940441129
464 599.996408780906 0 1049.702097804
465 250.009469908975 0 799.866623593197
466 500.000000008449 0 1349.99998684198
467 200.000082053417 0 999.994589471064
468 450.283952358979 0 795.064739167202
469 350.000000000528 0 1349.99999917793
470 250.000154599418 0 1099.98313209804
471 250.002127463962 0 899.864655175616
472 449.999999999893 0 199.99999999999
473 250 0 250
474 550.113486120832 0 748.552407264342
475 200 0 1300
476 200 0 1200
477 350.109154332461 0 798.289392003504
478 600.000100709844 0 1149.93692473544
479 599.978869648206 0 999.494837520057
480 550.000000009634 0 1349.99998519614
481 300.000000000067 0 1349.99999989726
482 550.000005987412 0 1249.99385901243
483 250.000000000008 0 1349.99999998716
484 600.03341430805 0 849.36640438912
485 550.000870909031 0 1099.16532651095
486 300.001679581795 0 1049.59730253608
487 549.958723444075 0 997.872677602583
488 400.00000037914 0 1299.9995675494
489 449.885544721795 0 844.090815731117
490 250.000000000348 0 1199.99999945204
491 549.844615445622 0 897.473159524691
492 250.000151267679 0 949.871669311329
493 500.000000804363 0 1299.99910303584
494 550.168736677964 0 797.716889870044
495 300.037750487684 0 799.382849297709
496 300.020918620841 0 849.265126455915
497 350.039163700116 0 847.788624990609
498 250.00000000074 0 1249.99999883559
499 250.000047015256 0 1149.99511934933
500 550.000108363698 0 1199.92818973449
501 250.000087245948 0 999.888573939833
502 350.000000075916 0 1299.9999010384
503 250.000000000446 0 1299.99999929847
504 450.000000083903 0 1349.99990128876
505 500.168550989271 0 796.027366347323
506 300.000271516074 0 1149.93483873666
507 400.00003320847 0 1249.97434849326
508 500.000029495846 0 1249.97560304433
509 499.883618484464 0 845.324594780097
510 300.001574914625 0 899.167920404237
511 299.999435534482 0 999.340037855753
512 300.000000013114 0 1299.9999819247
513 549.991909135296 0 1048.3073805709
514 300.001163492357 0 1099.75797060361
515 550.000586346003 0 1149.63665751419
516 549.979268819208 0 847.538475871959
517 300.000073491984 0 1199.97333131446
518 549.89310253033 0 947.442182126194
519 450.000004740714 0 1299.99597811302
520 400.01708790688 0 845.763870985147
521 500.002495225108 0 1097.96040587251
522 499.951024014233 0 995.326940613311
523 349.995513590888 0 997.688414500002
524 350.003388410281 0 1099.06128005148
525 449.803104094905 0 894.069247315892
526 399.919540479585 0 895.568968706326
527 499.818710684217 0 895.195750108605
528 299.995195295117 0 949.106486656689
529 350.000027081583 0 1249.98236975196
530 300.000018109541 0 1249.99099100986
531 500.000339380312 0 1199.79522667929
532 350.001173202855 0 1149.5973538845
533 450.00006307627 0 1249.95373902366
534 349.984909936538 0 897.593190640021
535 400.005155951391 0 1097.92706103898
536 449.893429382085 0 944.072982938627
537 399.942762329007 0 945.391747327449
538 499.879925297577 0 945.339085635016
539 350.003936921354 0 1048.12490886441
540 400.000442482169 0 1199.7767804027
541 499.991449789009 0 1046.47599513923
542 500.001343298055 0 1149.1582844574
543 350.000346731818 0 1199.85482967085
544 349.979506890852 0 947.451790913687
545 450.000562554284 0 1199.68728106947
546 399.98418034092 0 995.414894948854
547 400.001905217491 0 1046.40752183414
548 449.962636624788 0 994.673734348194
549 450.002811512954 0 1097.44557651612
550 400.001879875396 0 1149.13299209955
551 450.001810689274 0 1148.909341023
552 449.992160090449 0 1045.9847149994
$EndNodes
$Elements
496
1 3 2 1 1 538 536 525 527
2 3 2 1 1 505 494 516 509
3 3 2 1 1 489 468 505 509
4 3 2 1 1 547 546 548 552
5 3 2 1 1 546 537 536 548
6 3 2 1 1 541 552 548 522
7 3 2 1 1 248 333 375 326
8 3 2 1 1 465 495 496 460
9 3 2 1 1 201 144 90 91
10 3 2 1 1 200 132 95 96
11 3 2 1 1 399 326 430 425
12 3 2 1 1 275 388 375 333
13 3 2 1 1 430 465 460 425
14 3 2 1 1 92 93 202 124
15 3 2 1 1 272 201 124 248
16 3 2 1 1 196 204 273 329
17 3 2 1 1 85 86 206 119
18 3 2 1 1 114 115 274 195
19 3 2 1 1 119 206 269 183
20 3 2 1 1 195 274 327 280
21 3 2 1 1 192 280 327 332
22 3 2 1 1 44 141 154 43
23 3 2 1 1 44 45 156 141
24 3 2 1 1 116 115 277 203
25 3 2 1 1 280 200 148 195
26 3 2 1 1 275 333 202 155
27 3 2 1 1 271 203 277 364
28 3 2 1 1 465 373 431 495
29 3 2 1 1 318 378 451 390
30 3 2 1 1 496 495 477 497
31 3 2 1 1 496 497 534 510
32 3 2 1 1 97 8 113 148
33 3 2 1 1 43 154 165 42
34 3 2 1 1 155 202 93 94
35 3 2 1 1 116 203 149 117
36 3 2 1 1 201 272 185 144
37 3 2 1 1 141 204 196 154
38 3 2 1 1 141 156 160 204
39 3 2 1 1 204 160 215 273
40 3 2 1 1 154 196 258 165
41 3 2 1 1 144 185 279 182
42 3 2 1 1 124 202 333 248
43 3 2 1 1 165 258 276 205
44 3 2 1 1 338 415 376 250
45 3 2 1 1 279 331 384 267
46 3 2 1 1 185 314 331 279
47 3 2 1 1 371 314 399 425
48 3 2 1 1 450 387 317 373
49 3 2 1 1 329 389 414 322
50 3 2 1 1 425 460 471 371
51 3 2 1 1 373 465 430 450
52 3 2 1 1 410 477 495 431
53 3 2 1 1 460 496 510 471
54 3 2 1 1 502 512 530 529
55 3 2 1 1 530 517 543 529
56 3 2 1 1 11 1 186 122
57 3 2 1 1 17 3 187 145
58 3 2 1 1 160 156 22 23
59 3 2 1 1 6 22 156 45
60 3 2 1 1 29 30 217 162
61 3 2 1 1 205 41 42 165
62 3 2 1 1 60 131 226 59
63 3 2 1 1 96 97 148 200
64 3 2 1 1 105 106 238 180
65 3 2 1 1 116 117 157 207
66 3 2 1 1 338 250 217 123
67 3 2 1 1 226 131 251 297
68 3 2 1 1 155 132 192 275
69 3 2 1 1 238 134 284 261
70 3 2 1 1 214 145 278 245
71 3 2 1 1 187 344 278 145
72 3 2 1 1 250 293 162 217
73 3 2 1 1 279 267 243 182
74 3 2 1 1 314 185 272 399
75 3 2 1 1 330 318 188 293
76 3 2 1 1 388 275 192 332
77 3 2 1 1 258 196 329 322
78 3 2 1 1 158 212 334 291
79 3 2 1 1 169 298 335 227
80 3 2 1 1 180 238 261 303
81 3 2 1 1 278 400 313 245
82 3 2 1 1 293 250 376 330
83 3 2 1 1 211 307 317 255
84 3 2 1 1 317 387 321 255
85 3 2 1 1 273 259 389 329
86 3 2 1 1 353 446 389 259
87 3 2 1 1 303 261 391 336
88 3 2 1 1 248 326 399 272
89 3 2 1 1 258 322 328 276
90 3 2 1 1 334 394 377 291
91 3 2 1 1 251 324 382 297
92 3 2 1 1 367 392 458 298
93 3 2 1 1 431 307 337 410
94 3 2 1 1 317 307 431 373
95 3 2 1 1 436 421 312 372
96 3 2 1 1 468 423 313 400
97 3 2 1 1 391 320 439 426
98 3 2 1 1 387 388 332 321
99 3 2 1 1 251 335 393 324
100 3 2 1 1 393 432 441 324
101 3 2 1 1 382 324 441 453
102 3 2 1 1 322 414 416 328
103 3 2 1 1 314 371 433 331
104 3 2 1 1 434 336 391 426
105 3 2 1 1 249 343 428 395
106 3 2 1 1 246 370 392 367
107 3 2 1 1 492 433 371 471
108 3 2 1 1 415 438 472 376
109 3 2 1 1 395 428 451 378
110 3 2 1 1 331 433 467 384
111 3 2 1 1 313 423 477 410
112 3 2 1 1 389 446 437 414
113 3 2 1 1 497 477 423 520
114 3 2 1 1 434 426 469 461
115 3 2 1 1 390 451 437 446
116 3 2 1 1 432 494 474 441
117 3 2 1 1 469 481 512 502
118 3 2 1 1 471 510 528 492
119 3 2 1 1 543 540 507 529
120 3 2 1 1 493 519 533 508
121 3 2 1 1 21 149 208 1
122 3 2 1 1 13 158 209 2
123 3 2 1 1 16 130 210 3
124 3 2 1 1 19 120 211 4
125 3 2 1 1 117 5 20 157
126 3 2 1 1 117 149 21 5
127 3 2 1 1 11 122 212 12
128 3 2 1 1 12 212 158 13
129 3 2 1 1 2 129 159 14
130 3 2 1 1 16 15 213 130
131 3 2 1 1 14 159 213 15
132 3 2 1 1 17 145 214 18
133 3 2 1 1 18 214 120 19
134 3 2 1 1 4 150 157 20
135 3 2 1 1 215 160 23 24
136 3 2 1 1 25 125 215 24
137 3 2 1 1 25 26 216 125
138 3 2 1 1 27 126 216 26
139 3 2 1 1 28 161 126 27
140 3 2 1 1 29 162 161 28
141 3 2 1 1 31 123 217 30
142 3 2 1 1 31 32 218 123
143 3 2 1 1 33 136 218 32
144 3 2 1 1 33 34 219 136
145 3 2 1 1 35 151 219 34
146 3 2 1 1 7 46 163 36
147 3 2 1 1 35 36 163 151
148 3 2 1 1 8 37 152 113
149 3 2 1 1 37 38 220 152
150 3 2 1 1 39 164 220 38
151 3 2 1 1 40 128 164 39
152 3 2 1 1 40 41 205 128
153 3 2 1 1 48 142 221 47
154 3 2 1 1 46 47 221 163
155 3 2 1 1 50 135 222 49
156 3 2 1 1 48 49 222 142
157 3 2 1 1 50 51 223 135
158 3 2 1 1 52 166 223 51
159 3 2 1 1 53 137 166 52
160 3 2 1 1 53 54 224 137
161 3 2 1 1 55 167 224 54
162 3 2 1 1 56 138 167 55
163 3 2 1 1 56 57 225 138
164 3 2 1 1 58 168 225 57
165 3 2 1 1 58 59 226 168
166 3 2 1 1 60 61 227 131
167 3 2 1 1 61 62 169 227
168 3 2 1 1 64 146 228 63
169 3 2 1 1 62 63 228 169
170 3 2 1 1 66 118 229 65
171 3 2 1 1 64 65 229 146
172 3 2 1 1 66 67 230 118
173 3 2 1 1 68 170 230 67
174 3 2 1 1 68 69 231 170
175 3 2 1 1 70 171 231 69
176 3 2 1 1 71 127 171 70
177 3 2 1 1 71 72 232 127
178 3 2 1 1 73 172 232 72
179 3 2 1 1 74 139 172 73
180 3 2 1 1 74 75 233 139
181 3 2 1 1 76 173 233 75
182 3 2 1 1 9 98 173 76
183 3 2 1 1 10 77 174 112
184 3 2 1 1 78 153 174 77
185 3 2 1 1 80 140 234 79
186 3 2 1 1 78 79 234 153
187 3 2 1 1 82 133 235 81
188 3 2 1 1 80 81 235 140
189 3 2 1 1 82 83 236 133
190 3 2 1 1 84 175 236 83
191 3 2 1 1 85 119 175 84
192 3 2 1 1 86 87 176 206
193 3 2 1 1 243 88 89 182
194 3 2 1 1 87 88 243 176
195 3 2 1 1 182 89 90 144
196 3 2 1 1 155 94 95 132
197 3 2 1 1 99 147 173 98
198 3 2 1 1 99 100 177 147
199 3 2 1 1 100 101 178 177
200 3 2 1 1 101 102 179 178
201 3 2 1 1 104 121 237 103
202 3 2 1 1 102 103 237 179
203 3 2 1 1 105 180 121 104
204 3 2 1 1 107 134 238 106
205 3 2 1 1 107 108 239 134
206 3 2 1 1 109 143 239 108
207 3 2 1 1 109 110 181 143
208 3 2 1 1 112 174 240 111
209 3 2 1 1 110 111 240 181
210 3 2 1 1 148 113 114 195
211 3 2 1 1 113 152 241 114
212 3 2 1 1 116 207 274 115
213 3 2 1 1 114 241 277 115
214 3 2 1 1 230 244 281 118
215 3 2 1 1 307 211 120 337
216 3 2 1 1 214 245 337 120
217 3 2 1 1 180 303 184 121
218 3 2 1 1 184 309 237 121
219 3 2 1 1 212 122 249 334
220 3 2 1 1 218 253 338 123
221 3 2 1 1 273 215 125 259
222 3 2 1 1 161 188 308 126
223 3 2 1 1 276 190 128 205
224 3 2 1 1 2 209 283 129
225 3 2 1 1 193 129 283 282
226 3 2 1 1 335 251 131 227
227 3 2 1 1 200 280 192 132
228 3 2 1 1 218 136 285 253
229 3 2 1 1 173 147 242 233
230 3 2 1 1 157 150 263 207
231 3 2 1 1 4 211 255 150
232 3 2 1 1 163 221 288 151
233 3 2 1 1 219 151 288 286
234 3 2 1 1 174 153 290 240
235 3 2 1 1 234 289 290 153
236 3 2 1 1 129 193 292 159
237 3 2 1 1 162 293 188 161
238 3 2 1 1 128 190 294 164
239 3 2 1 1 220 164 294 270
240 3 2 1 1 137 197 295 166
241 3 2 1 1 138 194 265 167
242 3 2 1 1 225 168 339 296
243 3 2 1 1 226 297 339 168
244 3 2 1 1 230 170 340 244
245 3 2 1 1 231 299 340 170
246 3 2 1 1 127 189 300 171
247 3 2 1 1 231 171 300 299
248 3 2 1 1 139 198 266 172
249 3 2 1 1 119 183 301 175
250 3 2 1 1 243 267 341 176
251 3 2 1 1 178 191 302 177
252 3 2 1 1 147 177 302 242
253 3 2 1 1 178 179 268 191
254 3 2 1 1 143 181 264 199
255 3 2 1 1 269 310 342 183
256 3 2 1 1 312 184 303 336
257 3 2 1 1 421 309 184 312
258 3 2 1 1 1 208 256 186
259 3 2 1 1 122 186 343 249
260 3 2 1 1 3 210 257 187
261 3 2 1 1 390 308 188 318
262 3 2 1 1 127 232 304 189
263 3 2 1 1 276 328 345 190
264 3 2 1 1 282 346 347 193
265 3 2 1 1 138 225 296 194
266 3 2 1 1 137 224 305 197
267 3 2 1 1 295 197 347 346
268 3 2 1 1 139 233 242 198
269 3 2 1 1 242 302 349 198
270 3 2 1 1 143 199 306 239
271 3 2 1 1 149 203 271 208
272 3 2 1 1 176 341 269 206
273 3 2 1 1 327 274 207 263
274 3 2 1 1 158 291 247 209
275 3 2 1 1 130 260 351 210
276 3 2 1 1 130 213 352 260
277 3 2 1 1 159 292 352 213
278 3 2 1 1 125 216 353 259
279 3 2 1 1 126 308 353 216
280 3 2 1 1 136 219 286 285
281 3 2 1 1 152 220 270 241
282 3 2 1 1 142 287 288 221
283 3 2 1 1 135 252 354 222
284 3 2 1 1 142 222 354 287
285 3 2 1 1 135 223 355 252
286 3 2 1 1 166 295 355 223
287 3 2 1 1 167 265 305 224
288 3 2 1 1 146 246 367 228
289 3 2 1 1 169 228 367 298
290 3 2 1 1 146 229 356 246
291 3 2 1 1 118 281 356 229
292 3 2 1 1 172 266 304 232
293 3 2 1 1 140 262 289 234
294 3 2 1 1 133 254 357 235
295 3 2 1 1 140 235 357 262
296 3 2 1 1 133 236 358 254
297 3 2 1 1 175 301 358 236
298 3 2 1 1 179 237 309 268
299 3 2 1 1 134 239 306 284
300 3 2 1 1 181 240 290 264
301 3 2 1 1 313 410 337 245
302 3 2 1 1 209 247 359 283
303 3 2 1 1 316 420 359 247
304 3 2 1 1 358 380 397 254
305 3 2 1 1 150 255 321 263
306 3 2 1 1 208 271 323 256
307 3 2 1 1 186 256 381 343
308 3 2 1 1 187 257 383 344
309 3 2 1 1 210 351 398 257
310 3 2 1 1 327 263 321 332
311 3 2 1 1 290 289 361 264
312 3 2 1 1 199 264 361 350
313 3 2 1 1 194 348 362 265
314 3 2 1 1 198 349 363 266
315 3 2 1 1 411 341 267 384
316 3 2 1 1 191 268 368 319
317 3 2 1 1 309 421 368 268
318 3 2 1 1 241 270 364 277
319 3 2 1 1 400 278 344 445
320 3 2 1 1 244 311 401 281
321 3 2 1 1 283 359 379 282
322 3 2 1 1 261 284 320 391
323 3 2 1 1 253 285 402 325
324 3 2 1 1 286 365 402 285
325 3 2 1 1 288 287 365 286
326 3 2 1 1 262 360 361 289
327 3 2 1 1 247 291 377 316
328 3 2 1 1 193 347 403 292
329 3 2 1 1 352 292 403 362
330 3 2 1 1 190 345 404 294
331 3 2 1 1 270 294 404 364
332 3 2 1 1 194 296 406 348
333 3 2 1 1 339 405 406 296
334 3 2 1 1 300 366 385 299
335 3 2 1 1 189 315 366 300
336 3 2 1 1 183 342 407 301
337 3 2 1 1 358 301 407 380
338 3 2 1 1 191 319 349 302
339 3 2 1 1 189 304 408 315
340 3 2 1 1 266 363 408 304
341 3 2 1 1 197 305 403 347
342 3 2 1 1 265 362 403 305
343 3 2 1 1 284 306 409 320
344 3 2 1 1 199 350 409 306
345 3 2 1 1 269 341 411 310
346 3 2 1 1 244 340 412 311
347 3 2 1 1 336 434 372 312
348 3 2 1 1 349 319 413 363
349 3 2 1 1 404 345 440 323
350 3 2 1 1 271 364 404 323
351 3 2 1 1 256 323 440 381
352 3 2 1 1 253 325 415 338
353 3 2 1 1 415 325 442 438
354 3 2 1 1 318 330 443 378
355 3 2 1 1 249 395 394 334
356 3 2 1 1 298 458 393 335
357 3 2 1 1 297 382 405 339
358 3 2 1 1 299 385 412 340
359 3 2 1 1 310 369 444 342
360 3 2 1 1 474 445 344 383
361 3 2 1 1 328 416 440 345
362 3 2 1 1 295 346 417 355
363 3 2 1 1 282 379 417 346
364 3 2 1 1 260 348 406 351
365 3 2 1 1 260 352 362 348
366 3 2 1 1 361 360 386 350
367 3 2 1 1 398 351 406 405
368 3 2 1 1 308 390 446 353
369 3 2 1 1 287 354 418 365
370 3 2 1 1 252 396 418 354
371 3 2 1 1 252 355 417 396
372 3 2 1 1 246 356 447 370
373 3 2 1 1 281 401 447 356
374 3 2 1 1 262 357 419 360
375 3 2 1 1 254 397 419 357
376 3 2 1 1 315 374 448 366
377 3 2 1 1 319 368 429 413
378 3 2 1 1 310 411 435 369
379 3 2 1 1 435 459 470 369
380 3 2 1 1 434 461 504 372
381 3 2 1 1 436 372 504 466
382 3 2 1 1 315 408 449 374
383 3 2 1 1 387 450 375 388
384 3 2 1 1 326 375 450 430
385 3 2 1 1 330 376 472 443
386 3 2 1 1 316 377 472 438
387 3 2 1 1 417 379 452 396
388 3 2 1 1 359 420 452 379
389 3 2 1 1 440 416 473 381
390 3 2 1 1 343 381 473 428
391 3 2 1 1 405 382 453 398
392 3 2 1 1 257 398 453 383
393 3 2 1 1 474 383 453 441
394 3 2 1 1 411 384 467 435
395 3 2 1 1 366 448 454 385
396 3 2 1 1 350 386 456 409
397 3 2 1 1 360 419 455 386
398 3 2 1 1 370 424 463 392
399 3 2 1 1 458 392 463 484
400 3 2 1 1 432 393 458 484
401 3 2 1 1 378 443 394 395
402 3 2 1 1 377 394 443 472
403 3 2 1 1 380 427 475 397
404 3 2 1 1 419 397 475 455
405 3 2 1 1 311 422 464 401
406 3 2 1 1 365 418 457 402
407 3 2 1 1 325 402 457 442
408 3 2 1 1 380 407 476 427
409 3 2 1 1 342 444 476 407
410 3 2 1 1 363 413 449 408
411 3 2 1 1 320 409 456 439
412 3 2 1 1 311 412 478 422
413 3 2 1 1 385 454 478 412
414 3 2 1 1 414 437 473 416
415 3 2 1 1 396 452 457 418
416 3 2 1 1 316 438 442 420
417 3 2 1 1 368 421 436 429
418 3 2 1 1 370 447 479 424
419 3 2 1 1 479 487 518 424
420 3 2 1 1 463 424 518 491
421 3 2 1 1 476 490 498 427
422 3 2 1 1 451 428 473 437
423 3 2 1 1 413 429 480 449
424 3 2 1 1 436 466 480 429
425 3 2 1 1 501 467 433 492
426 3 2 1 1 426 439 481 469
427 3 2 1 1 420 442 457 452
428 3 2 1 1 369 470 499 444
429 3 2 1 1 476 444 499 490
430 3 2 1 1 494 505 445 474
431 3 2 1 1 401 464 479 447
432 3 2 1 1 374 462 482 448
433 3 2 1 1 374 449 480 462
434 3 2 1 1 448 482 500 454
435 3 2 1 1 386 455 483 456
436 3 2 1 1 439 456 483 481
437 3 2 1 1 435 467 501 459
438 3 2 1 1 480 466 493 462
439 3 2 1 1 484 463 491 516
440 3 2 1 1 422 485 513 464
441 3 2 1 1 479 464 513 487
442 3 2 1 1 519 493 466 504
443 3 2 1 1 459 486 514 470
444 3 2 1 1 499 470 514 506
445 3 2 1 1 455 475 503 483
446 3 2 1 1 427 498 503 475
447 3 2 1 1 422 478 515 485
448 3 2 1 1 454 500 515 478
449 3 2 1 1 483 503 512 481
450 3 2 1 1 462 493 508 482
451 3 2 1 1 432 484 516 494
452 3 2 1 1 459 501 511 486
453 3 2 1 1 511 523 539 486
454 3 2 1 1 514 486 539 524
455 3 2 1 1 461 488 519 504
456 3 2 1 1 499 506 517 490
457 3 2 1 1 509 516 491 527
458 3 2 1 1 527 491 518 538
459 3 2 1 1 501 492 528 511
460 3 2 1 1 503 498 530 512
461 3 2 1 1 490 517 530 498
462 3 2 1 1 482 508 531 500
463 3 2 1 1 514 524 532 506
464 3 2 1 1 488 507 533 519
465 3 2 1 1 533 507 540 545
466 3 2 1 1 485 521 541 513
467 3 2 1 1 487 513 541 522
468 3 2 1 1 485 515 542 521
469 3 2 1 1 500 531 542 515
470 3 2 1 1 506 532 543 517
471 3 2 1 1 487 522 538 518
472 3 2 1 1 552 541 521 549
473 3 2 1 1 536 538 522 548
474 3 2 1 1 511 528 544 523
475 3 2 1 1 546 547 539 523
476 3 2 1 1 510 534 544 528
477 3 2 1 1 508 533 545 531
478 3 2 1 1 524 535 550 532
479 3 2 1 1 540 543 532 550
480 3 2 1 1 524 539 547 535
481 3 2 1 1 552 549 535 547
482 3 2 1 1 531 545 551 542
483 3 2 1 1 521 542 551 549
484 3 2 1 1 540 550 551 545
485 3 2 1 1 535 549 551 550
486 3 2 1 1 92 124 201 91
487 3 2 1 1 469 502 488 461
488 3 2 1 1 507 488 502 529
489 3 2 1 1 544 534 526 537
490 3 2 1 1 523 544 537 546
491 3 2 1 1 489 525 526 520
492 3 2 1 1 527 525 489 509
493 3 2 1 1 537 526 525 536
494 3 2 1 1 534 497 520 526
495 3 2 1 1 468 489 520 423
496 3 2 1 1 400 445 505 468
$EndElements
