$MeshFormat
2.2 0 8
$EndMeshFormat
$Nodes
39
9 0 0 0
10 100 0 0
11 0 100 0
12 100 100 0
16 20 0 0
17 40 0 0
18 60 0 0
19 80 0 0
20 0 80 0
21 0 60 0
22 0 40 0
23 0 20 0
24 100 20 0
25 100 40 0
26 100 60 0
27 100 80 0
28 80 100 0
29 60 100 0
30 40 100 0
31 20 100 0
32 79.8057837581393 65.2704594246007 0
33 76.5183523349526 21.052682807716 0
34 79.7094828238543 82.2528198225739 0
35 57.4440192140934 15.6749102922039 0
36 59.7954705390817 83.3145716285406 0
37 79.8987618321744 52.9696602863893 0
38 79.175451777209 36.1673262235953 0
54 40 20 0
55 40 30 0
56 40 70 0
57 40 80 0
58 20 80 0
59 20 20 0
60 60 30 0
61 60 70 0
62 20 60 0
63 20 40 0
64 60 50 0
65 40 50 0
$EndNodes
$Elements
29
10 3 2 1 1 33 24 25 38
11 3 2 1 1 24 33 19 10
12 3 2 1 1 28 34 27 12
13 3 2 1 1 18 19 33 35
14 3 2 1 1 34 28 29 36
15 3 2 1 1 32 26 27 34
23 3 2 1 1 26 32 37 25
1 2 2 1 1 60 35 33 
2 2 2 1 1 63 55 65 
3 3 2 1 1 16 17 54 59
4 3 2 1 1 23 9 16 59
5 3 2 1 1 31 11 20 58
6 3 2 1 1 58 20 21 62
7 3 2 1 1 63 62 21 22
8 3 2 1 1 59 63 22 23
9 3 2 1 1 30 31 58 57
16 3 2 1 1 36 57 56 61
17 3 2 1 1 55 54 35 60
18 3 2 1 1 64 37 32 61
19 3 2 1 1 60 33 38 64
20 3 2 1 1 17 18 35 54
21 3 2 1 1 36 29 30 57
22 3 2 1 1 61 32 34 36
24 3 2 1 1 38 25 37 64
25 3 2 1 1 59 54 55 63
26 3 2 1 1 56 57 58 62
27 3 2 1 1 62 63 65 56
28 3 2 1 1 60 64 65 55
29 3 2 1 1 61 56 65 64
$EndElements
