$MeshFormat
2.2 0 8
$EndMeshFormat
$Nodes
901
1 0 0 0
2 0 90 0
3 0 200 0
4 0 200 100
5 0 0 100
6 0 0 10
7 0 180 80
8 0 5 0
9 0 10 0
10 0 15 0
11 0 20 0
12 0 25 0
13 0 30 0
14 0 35 0
15 0 40 0
16 0 45 0
17 0 50 0
18 0 55 0
19 0 60 0
20 0 65 0
21 0 70 0
22 0 75 0
23 0 80 0
24 0 85 0
25 0 95 0
26 0 100 0
27 0 105 0
28 0 110 0
29 0 115 0
30 0 120 0
31 0 125 0
32 0 130 0
33 0 135 0
34 0 140 0
35 0 145 0
36 0 150 0
37 0 155 0
38 0 160 0
39 0 165 0
40 0 170 0
41 0 175 0
42 0 180 0
43 0 185 0
44 0 190 0
45 0 195 0
46 0 200 5
47 0 200 10
48 0 200 15
49 0 200 20
50 0 200 25
51 0 200 30
52 0 200 35
53 0 200 40
54 0 200 45
55 0 200 50
56 0 200 55
57 0 200 60
58 0 200 65
59 0 200 70
60 0 200 75
61 0 200 80
62 0 200 85
63 0 200 90
64 0 200 95
65 0 195 100
66 0 190 100
67 0 185 100
68 0 180 100
69 0 175 100
70 0 170 100
71 0 165 100
72 0 160 100
73 0 155 100
74 0 150 100
75 0 145 100
76 0 140 100
77 0 135 100
78 0 130 100
79 0 125 100
80 0 120 100
81 0 115 100
82 0 110 100
83 0 105 100
84 0 100 100
85 0 95 100
86 0 90 100
87 0 85 100
88 0 80 100
89 0 75 100
90 0 70 100
91 0 65 100
92 0 60 100
93 0 55 100
94 0 50 100
95 0 45 100
96 0 40 100
97 0 35 100
98 0 30 100
99 0 25 100
100 0 20 100
101 0 15 100
102 0 10 100
103 0 4.99999999999997 100
104 0 0 95
105 0 0 90
106 0 0 85
107 0 0 80
108 0 0 75
109 0 0 70
110 0 0 65
111 0 0 60
112 0 0 55
113 0 0 50
114 0 0 45
115 0 0 40
116 0 0 35
117 0 0 30
118 0 0 25
119 0 0 20
120 0 0 15
121 0 0 5
122 0 175.384615384615 78.2051282051282
123 0 170.769230769231 76.4102564102564
124 0 166.153846153846 74.6153846153846
125 0 161.538461538462 72.8205128205128
126 0 156.923076923077 71.025641025641
127 0 152.307692307692 69.2307692307692
128 0 147.692307692308 67.4358974358974
129 0 143.076923076923 65.6410256410257
130 0 138.461538461539 63.8461538461539
131 0 133.846153846154 62.0512820512821
132 0 129.230769230769 60.2564102564103
133 0 124.615384615385 58.4615384615385
134 0 120 56.6666666666667
135 0 115.384615384615 54.8717948717949
136 0 110.769230769231 53.0769230769231
137 0 106.153846153846 51.2820512820513
138 0 101.538461538462 49.4871794871795
139 0 96.923076923077 47.6923076923077
140 0 92.3076923076924 45.8974358974359
141 0 87.6923076923078 44.1025641025641
142 0 83.0769230769231 42.3076923076923
143 0 78.4615384615385 40.5128205128205
144 0 73.8461538461539 38.7179487179487
145 0 69.2307692307693 36.9230769230769
146 0 64.6153846153847 35.1282051282052
147 0 60.0000000000001 33.3333333333334
148 0 55.3846153846154 31.5384615384616
149 0 50.7692307692308 29.7435897435898
150 0 46.1538461538462 27.948717948718
151 0 41.5384615384616 26.1538461538462
152 0 36.923076923077 24.3589743589744
153 0 32.3076923076923 22.5641025641026
154 0 27.6923076923077 20.7692307692308
155 0 23.0769230769231 18.974358974359
156 0 18.4615384615385 17.1794871794872
157 0 13.8461538461539 15.3846153846154
158 0 9.23076923076925 13.5897435897436
159 0 4.61538461538464 11.7948717948718
160 0 176.25 76.6666666666667
161 0 172.5 73.3333333333333
162 0 168.75 70
163 0 165 66.6666666666667
164 0 161.25 63.3333333333334
165 0 157.5 60
166 0 153.75 56.6666666666667
167 0 150 53.3333333333334
168 0 146.25 50
169 0 142.5 46.6666666666667
170 0 138.75 43.3333333333333
171 0 135 40
172 0 131.25 36.6666666666667
173 0 127.5 33.3333333333333
174 0 123.75 30
175 0 120 26.6666666666667
176 0 116.25 23.3333333333333
177 0 112.5 20
178 0 108.75 16.6666666666667
179 0 105 13.3333333333333
180 0 101.25 10
181 0 97.5 6.66666666666666
182 0 93.75 3.33333333333333
183 0 40.0000895074567 95.002360142957
184 0 64.9979355609691 95.0034585297545
185 0 84.9974949081166 95.0038253779575
186 0 164.999423414478 5.00136564196865
187 0 104.997957666322 95.0045977668023
188 0 4.9951987962129 55.0014703225665
189 0 194.998551281452 40.0007575002582
190 0 4.99770479868825 70.0006337209565
191 0 124.998059659168 95.0053992869916
192 0 74.9543700245306 4.9128699440982
193 0 144.998018230228 5.00229732681064
194 0 194.999148919507 24.999228670734
195 0 144.995462445159 95.0073895331675
196 0 59.998455879797 4.99202427577552
197 0 195.018100028641 59.977990815319
198 0 25.0000223490717 95.0010141716415
199 0 174.733033078672 95.3538462784331
200 0 4.98374315922469 34.9804250668834
201 0 159.957511925075 95.1034016525582
202 0 130.029086370334 5.01799745465092
203 0 45.0044338111692 4.98998984124453
204 0 4.99915113149029 80.0003648216174
205 0 179.999851549486 5.00040918011288
206 0 30.0211950800059 5.01867237838801
207 0 194.981319593083 89.9975499205812
208 0 195.032201862262 74.9192303838009
209 0 14.9997393790382 95.0002880077011
210 0 194.999698739796 14.9997375334633
211 0 115.22854017765 5.20711824277603
212 0 15.226726656711 4.85455396921305
213 0 189.99988954904 5.00004624078102
214 0 4.12570654505573 20.5340967397647
215 0 5.71993367891338 6.01475150558121
216 0 184.878023575445 95.0775686421307
217 0 169.813982246406 95.3593868952503
218 0 20.1470588150633 4.90308142234591
219 0 35.0177331485094 5.00338129827876
220 0 50.0012764466567 4.9966152626073
221 0 4.69424720352653 25.0171787872042
222 0 4.99305467939872 39.9939278853692
223 0 195.007796991452 84.9726186014286
224 0 194.976385892511 95.004152686793
225 0 4.99416413663047 44.9991593687203
226 0 154.98119286916 95.0400843453059
227 0 139.996055048447 95.0064880958732
228 0 64.9957097917443 4.98516769041194
229 0 79.8376553872971 4.78610264322189
230 0 119.999318294947 95.0051036285632
231 0 134.996582522946 95.0062661251963
232 0 115.000091186696 95.0050373386223
233 0 99.9970262330955 95.0043921107592
234 0 94.9969365301658 95.00434940741
235 0 79.9976534329615 95.0038023173817
236 0 74.9977318227615 95.003878758598
237 0 59.9984828698635 95.0032154414454
238 0 54.9992055535167 95.0030429596528
239 0 49.9996430982183 95.0029989415015
240 0 35.0003157671018 95.0020014237004
241 0 4.99591258318057 60.0012379281594
242 0 4.99948725884805 85.0002211446551
243 0 4.99989932680027 95.0000225908334
244 0 194.999944222286 5.00000248382072
245 0 154.998443930461 5.00184803335649
246 0 169.999779247658 5.00110826452064
247 0 195.00052092348 49.9996154997087
248 0 194.998565370279 34.9999187125111
249 0 135.008384630245 5.00638651821362
250 0 195.038123256147 69.9197567276308
251 0 120.161514619881 5.08556112394441
252 0 105.358306868985 5.01181020148988
253 0 88.7550244108034 4.5810190410409
254 0 4.04382209733963 16.0881237364665
255 0 54.9969089972589 90.0081255521596
256 0 79.9938226559149 90.0101412517495
257 0 164.998882013376 10.0035663100554
258 0 99.9913842877565 90.0117173487725
259 0 9.98799695294009 55.0037733010263
260 0 189.997022771611 40.0035521682809
261 0 34.9997399168014 90.0051900029782
262 0 114.998382236317 90.0130414440408
263 0 74.890809179351 9.8090870459007
264 0 139.988212577247 90.0143087750697
265 0 64.9890705440761 9.96557158055347
266 0 130.117065506011 10.0464758731335
267 0 174.309017686915 90.8208472671906
268 0 9.95407013083762 35.0310619510861
269 0 159.871345844968 90.2567550351992
270 0 50.0117931048368 10.0203959771525
271 0 30.0307146927869 10.0190440191498
272 0 190.124070817402 74.8036267623505
273 0 9.99777900814162 80.00136905918
274 0 115.897664996827 10.1238958375446
275 0 179.761621940059 95.1941663583565
276 0 15.5540431939664 10.3340375581782
277 0 164.895811801506 95.2468645641495
278 0 84.5400685545579 4.61456924387729
279 0 10.7118964030398 4.56441161337496
280 0 189.993731994169 89.9723718247126
281 0 25.072489276854 4.93054612545446
282 0 4.90804430988925 29.9973363835338
283 0 195.02925026891 79.938591179268
284 0 59.9946980590606 90.0088111804796
285 0 40.0136417558854 4.98283383813929
286 0 9.97877376457632 40.0088748521807
287 0 55.0000904896869 4.99619542479311
288 0 149.991167579865 95.0164513897886
289 0 189.963725888867 95.0131614533584
290 0 119.996055880716 90.0138956356134
291 0 69.9810960113521 4.95879281484969
292 0 129.996840102671 95.0062054610649
293 0 4.99422678298961 50.0009721834904
294 0 109.999028913415 95.0053017208194
295 0 89.9970301165335 95.0043363715037
296 0 69.997485602345 95.0039407697598
297 0 44.9998310242915 95.0028674003044
298 0 4.99668534401548 65.0009195989307
299 0 195.035028831826 64.9454259281718
300 0 30.000188089968 95.0016315146336
301 0 4.99841954893556 75.0006186599265
302 0 19.999747474013 95.0006305966876
303 0 4.9997199399489 90.0001088437935
304 0 9.99977545128158 95.000138463561
305 0 194.999845214583 9.99992686691233
306 0 184.999841039541 5.00017493212194
307 0 194.999429226319 19.9994101464971
308 0 174.999870346033 5.00077764040744
309 0 194.998759240288 29.9993117336828
310 0 159.998878998704 5.00173227301485
311 0 194.999058331165 45.0012510869741
312 0 149.997960744246 5.00217725077352
313 0 195.007575479899 54.9920466944853
314 0 140.000698224014 5.00315497072761
315 0 125.094287810303 5.05249131449919
316 0 110.325818359499 5.25138105073763
317 0 8.59139839825112 19.2530296783239
318 0 92.5824918406989 8.281890486191
319 0 10.5160073643048 9.17127423646713
320 0 100.159817771416 4.54289309415321
321 0 59.9876135382854 85.0172473601814
322 0 144.99353410407 10.0063770055254
323 0 119.990896850808 85.0261058667229
324 0 189.997847149841 24.9984559274696
325 0 190.068493291181 59.9408898985819
326 0 14.8374999761194 35.1009858421377
327 0 179.999550004338 10.0007734885454
328 0 179.310160112903 90.1178132920341
329 0 164.749555822571 90.5443824236062
330 0 190.10035407846 79.8288799291588
331 0 9.81271828381838 30.107987133833
332 0 55.0100150448528 9.99989994613103
333 0 104.993733446665 90.0125148192411
334 0 9.98625244536903 50.0029168704665
335 0 190.143801624895 69.8259745682397
336 0 9.99206422926532 65.0027099430823
337 0 19.9988432521651 90.0017130179384
338 0 29.9994557999082 90.0041312081499
339 0 9.99868390258308 85.0008636400743
340 0 169.999604664861 10.0028118245664
341 0 135.040050521695 10.0127099044546
342 0 120.48441444397 10.2570147959327
343 0 20.5465783126578 9.25705301865177
344 0 184.584649458807 89.6633091373493
345 0 169.559703329338 90.7827638235454
346 0 84.2470808879111 9.18143689030972
347 0 69.9592583112699 9.91504259672708
348 0 25.0404767426397 9.74706384441222
349 0 9.45530717987525 25.099469214029
350 0 190.036931759507 84.8569858703192
351 0 60.0008736027188 9.98167982366881
352 0 109.996564741769 90.0132641881092
353 0 9.98434448697914 45.0025371730729
354 0 144.981855285376 90.0132946182384
355 0 40.0460393608084 9.92211593739646
356 0 45.0130460695523 10.0057721527153
357 0 149.967738085165 90.0311912534984
358 0 129.991717239054 90.0161453926
359 0 124.992869777381 90.015494248667
360 0 35.0857471391032 9.9322880239439
361 0 84.9928273081102 90.0106090305467
362 0 154.927650413903 90.1086470742812
363 0 9.98972585459629 60.0033926876705
364 0 89.9914058757614 90.0110998371739
365 0 69.9926513762316 90.0099146060601
366 0 64.9925867975208 90.0097837195167
367 0 134.990780880038 90.0167117736338
368 0 44.9987426261196 90.0071002380353
369 0 39.9990923773339 90.0064214355196
370 0 94.9904836659584 90.0117348644337
371 0 74.9932835401851 90.0103978352951
372 0 49.9978467720509 90.0079637642684
373 0 9.99618087257784 75.0019673068417
374 0 14.9989882357258 90.0009706437436
375 0 9.99932159688356 90.0004725702497
376 0 189.999278334591 14.9994606150542
377 0 189.99965820216 9.99991032283559
378 0 189.996539542438 35.0009499418601
379 0 154.995699276403 10.0051178155828
380 0 190.008081977539 49.9992834860297
381 0 159.997429629317 10.0044365733875
382 0 190.000701525879 45.0047894115631
383 0 125.301783185607 10.1459967780939
384 0 110.768687583717 11.3476504371232
385 0 79.6658623838431 9.55467666578505
386 0 88.5755510589881 8.67453113253617
387 0 13.9726134918086 20.5669912846542
388 0 105.814771042933 9.61971262731774
389 0 96.5845701808552 11.9501985518254
390 0 44.9953601097984 85.0138513515581
391 0 74.9868378413926 85.0197632618458
392 0 94.9832109586901 85.0226711085687
393 0 184.990138696172 40.0096575917154
394 0 164.997921339808 15.0070035769385
395 0 14.9742011512849 50.0042156168947
396 0 84.0705631021754 13.7281033557332
397 0 74.8330549663717 14.7075402833682
398 0 134.986432014674 85.0361947465056
399 0 60.0123160871445 14.9814693069156
400 0 149.908952633088 85.0237584029618
401 0 169.211744874092 86.2524950638616
402 0 130.297861906152 15.0284547290445
403 0 44.931884123496 15.1263116208592
404 0 185.366552871144 69.8225774549905
405 0 164.488958063841 85.7743537077623
406 0 124.986667615118 85.0285831749982
407 0 64.9846629295881 85.018584566159
408 0 109.995348035274 85.0250596754638
409 0 14.9813426380828 60.0067461434199
410 0 14.9929183701288 75.0045490255897
411 0 19.9968333727264 85.0035891987152
412 0 14.5735888168032 30.3405677348444
413 0 35.3263452917761 14.3376493892004
414 0 177.429182702637 86.5154074305524
415 0 104.365293621483 18.4533310415702
416 0 24.430943751504 14.4382843396894
417 0 185.174811442199 84.5004393611033
418 0 185.197347165977 79.6953749719934
419 0 114.995370188328 85.0259470744362
420 0 89.9838554073802 85.0218397335512
421 0 69.929065286226 14.8731324222855
422 0 190.124907690811 64.8906767355885
423 0 55.0641799609639 14.9976627492
424 0 144.936649561373 84.9976441087114
425 0 24.9988839818736 90.0029795208547
426 0 14.9309242832563 40.0080720582352
427 0 9.99400260858975 70.0024711979366
428 0 104.991751501221 85.0246410928439
429 0 84.9864667827922 85.0209912457573
430 0 49.9934478310059 85.0153235030408
431 0 54.9905136564266 85.0166152787646
432 0 39.9965421194712 85.0123584864406
433 0 14.9976583016569 85.0020779820586
434 0 29.9968295491962 85.0080871608136
435 0 184.999520340694 10.0001287655956
436 0 189.998619345783 19.9988631861091
437 0 149.993273647604 10.006416745257
438 0 190.032353606269 54.9776670367208
439 0 174.999655550658 10.001789383845
440 0 189.996951970564 29.9992630186217
441 0 154.988555792155 15.0121479932736
442 0 140.005501707694 10.0065282198605
443 0 185.02125059957 49.9970965669244
444 0 125.657761796297 15.2374235411472
445 0 115.899818136358 16.1388418356667
446 0 154.824221587419 85.2028048572652
447 0 14.2124710647154 25.5583653950581
448 0 18.6850999812203 22.0659632510308
449 0 101.865052689272 15.0909249486662
450 0 92.5006073893574 12.4079847412353
451 0 19.9892640739752 13.3483318932126
452 0 49.985057340896 80.0257152641803
453 0 89.9753126038821 80.0367825099333
454 0 109.999192066008 80.0415639450992
455 0 144.977715019678 15.0166483529929
456 0 184.996090084796 24.9999324867661
457 0 124.970348578303 80.0321466911356
458 0 74.7964886204347 19.636926840042
459 0 19.8601192589592 39.9711652072493
460 0 55.1186849159309 20.0140206319257
461 0 149.844596486811 79.9376692621354
462 0 14.9891332722781 70.0055656664568
463 0 184.990660065125 35.0056330528359
464 0 184.998888179951 14.9997923750677
465 0 130.539236359793 19.8718798358573
466 0 169.065491900621 81.9505807723864
467 0 100.594686473174 20.4882734179277
468 0 180.86057862446 74.6527478942605
469 0 185.332679960814 74.7907910735142
470 0 185.289826900611 64.8622915714534
471 0 79.5613228924816 14.3158197397934
472 0 29.981739288109 15.5630957493897
473 0 39.8628293057543 14.8183341954821
474 0 129.987805814732 85.0328989197968
475 0 69.9846177270557 85.0195911183943
476 0 14.9601033220531 44.9999127503584
477 0 54.9801329720404 80.0278081785045
478 0 139.965562836482 85.0236487008737
479 0 159.659343398847 85.4553924072955
480 0 14.9772863388725 55.0065776671173
481 0 64.9753578135914 14.948670963717
482 0 99.9873241900168 85.024175014639
483 0 24.9962790773721 85.0059002736018
484 0 14.9850487544946 65.0063044322336
485 0 50.058694684686 15.085462795944
486 0 114.993393261875 80.0379607949493
487 0 18.8389280930542 30.6225299924648
488 0 44.9885844244091 80.0234951691036
489 0 79.9876056191616 85.0205963802619
490 0 19.9934867468391 80.0061449331916
491 0 64.9726130832145 80.0307191114943
492 0 34.9969130463148 85.0104739610114
493 0 14.9955421262792 80.0034703667679
494 0 135.104975823269 14.9922260641276
495 0 159.99408663184 15.0091357833024
496 0 179.998812548278 15.0012031946799
497 0 169.999031345172 15.0054268226002
498 0 184.996903229852 45.0091239690437
499 0 121.030145921577 15.5497962090857
500 0 149.979263288779 15.0175444900863
501 0 185.170302274119 59.8959992734314
502 0 185.07927836872 54.9550193027703
503 0 173.843886313366 86.2404764627304
504 0 106.913507462372 22.1427128940228
505 0 117.883215699874 20.4284901141103
506 0 97.0712507939104 17.1833018227218
507 0 18.4690113660835 26.3112751858693
508 0 23.3147083798024 23.7793548900812
509 0 180.342869974264 83.9863356715783
510 0 181.42913415997 87.3571435458834
511 0 88.2954165001744 13.022042062067
512 0 49.9718365666529 75.0375904750918
513 0 164.9955463332 20.0134862544459
514 0 19.9636826921603 55.0138682961502
515 0 154.979044730422 20.0253304552447
516 0 179.955367656632 40.0046011820051
517 0 110.004560559943 75.0551464426219
518 0 180.004088803987 49.964172206478
519 0 139.884646304692 80.0717462849176
520 0 180.543379485653 64.6811008318488
521 0 129.968536261987 80.0462727260243
522 0 19.9766287509207 65.0123135318292
523 0 34.9917631042106 80.0172820834362
524 0 24.9918145874222 80.0097443102997
525 0 19.9887121622297 75.0087904845205
526 0 135.210689429682 19.8782324009462
527 0 94.341176945679 21.9771164442964
528 0 172.771319829524 82.4498695975433
529 0 50.4142326995372 19.791286713662
530 0 159.262692343968 81.0739346648423
531 0 23.1524142039064 29.1483239393958
532 0 126.346385665231 19.8670578654083
533 0 115.816556308472 28.1781779717035
534 0 180.154435142415 69.8972226764927
535 0 38.8803784267928 19.6572514353124
536 0 164.146156317406 80.2860070703879
537 0 79.5548193848298 19.1258413705723
538 0 88.0997413353644 17.1021648409541
539 0 154.817498723146 80.3585868716674
540 0 69.9725781767821 80.0321233393546
541 0 74.9750930386068 80.0332304974934
542 0 19.9309698018255 44.9976465264846
543 0 94.9776038010848 80.0390880965484
544 0 180.299692149537 59.801680493766
545 0 144.803545483199 79.9811480567836
546 0 64.9603507695358 19.9616333980147
547 0 69.8857056006631 19.8536536211764
548 0 104.995216576306 80.0414086977756
549 0 84.9774538912696 80.0355163064113
550 0 60.0440545557082 20.0130176712171
551 0 39.9906831906085 80.0207600457451
552 0 119.980215355514 80.0301636595419
553 0 19.5142780561757 35.0209996303978
554 0 59.9752024775295 80.0295957737052
555 0 184.993396381764 30.002681909603
556 0 140.016020335511 15.0012128079446
557 0 174.998955080318 15.0034122539586
558 0 184.997745839517 19.9997943513714
559 0 144.979059659847 20.0325259802175
560 0 102.859688058288 23.9167435368424
561 0 176.003262380277 84.5951952967622
562 0 113.134773859524 24.8691233905731
563 0 27.9090735870693 25.3369262133633
564 0 92.1367803523547 16.638364688824
565 0 34.3569400545318 18.5670301031578
566 0 121.726765448734 21.4474704653854
567 0 69.9511240431886 75.0445287935942
568 0 89.9650623729845 75.0568766538618
569 0 24.776162567048 40.0028038420762
570 0 124.915661011923 74.9880123927802
571 0 104.999072032955 75.0589459206184
572 0 179.993840778648 25.0049748388549
573 0 79.6375573556928 24.0134455320248
574 0 35.9757653038815 28.3018743341625
575 0 69.8284739293863 24.9179953440282
576 0 89.6691520570318 21.4782439101896
577 0 24.9850641706021 75.0140901610403
578 0 39.9804075628902 75.0306154507283
579 0 169.996783892741 20.0105108629157
580 0 144.295830135074 75.3595125270427
581 0 64.9514498199044 24.9692450032573
582 0 131.076525750692 24.3224572004609
583 0 111.492041978502 29.6651212747935
584 0 28.0679590292504 29.7123941342488
585 0 175.82110965286 64.3356055664384
586 0 177.184434096924 71.7336307124368
587 0 55.2088631593877 25.1935905923915
588 0 155.45921265488 75.5952767845224
589 0 176.182215838666 82.3494780288932
590 0 44.6019501330984 20.9913674084333
591 0 134.945913912504 80.0683959754156
592 0 179.951966207556 44.9835328595749
593 0 99.9858258851394 80.0409219694497
594 0 54.9657316868952 75.0395266256337
595 0 19.9522809581132 50.0122100184579
596 0 29.9911518463502 80.0137170194562
597 0 19.9700565951245 60.0138862758652
598 0 44.9762519711055 75.0343792834617
599 0 19.9827979085177 70.0110886320611
600 0 64.9552054840589 75.0412011411075
601 0 79.9768434250681 80.0345898543764
602 0 114.989467134698 75.0320756756871
603 0 149.97341517546 20.0366098218563
604 0 159.989580746486 20.0182021971047
605 0 179.971931806362 35.0078375787793
606 0 179.997050979777 20.0027986492865
607 0 140.059467014309 19.972681880641
608 0 180.115680350769 54.8987006814757
609 0 24.3173408497438 34.8940239280746
610 0 84.1235872794143 18.268366612582
611 0 172.415533817231 79.9854904486588
612 0 118.901620048172 31.6756689940518
613 0 126.474187599461 25.3527217682776
614 0 98.09718564115 24.6145880590239
615 0 109.071420254016 25.9883110700757
616 0 169.89065661069 78.8228405781292
617 0 31.9758469338119 26.3700840008303
618 0 50.263903448324 34.5052332094156
619 0 54.9424856584551 70.0384475872887
620 0 154.999516270088 25.0387593385851
621 0 174.891164012481 39.9586712495635
622 0 110.015381474179 70.0382574793638
623 0 24.9446598529498 55.0137606582217
624 0 164.995436274684 25.0250282105348
625 0 145.105846895288 25.0258001735045
626 0 175.098335091387 54.7651608461884
627 0 99.9843415539429 75.0599252836965
628 0 29.9826876771282 75.0200691075298
629 0 44.9538563350203 70.0306638976184
630 0 135.477050888347 24.7139379625883
631 0 107.194999769253 31.45646626995
632 0 69.7137355502199 30.2313195437997
633 0 84.4056467242164 22.9879406292759
634 0 94.9723351104877 75.0591904679961
635 0 134.794820382803 75.0859910202283
636 0 129.84817963433 75.0246736995352
637 0 74.9490863495264 75.0489508755737
638 0 149.798598415495 74.21929196408
639 0 59.9601899604585 75.0388615804291
640 0 34.9811059032399 75.0258022732842
641 0 74.7650070610092 24.6108162951307
642 0 24.9670051972046 65.0192509806011
643 0 24.9763346581967 70.0177569224876
644 0 119.956094721163 74.9923672281774
645 0 79.9514387652313 75.0531866986346
646 0 60.129816535861 25.0778127636554
647 0 139.657216311426 75.1436188489225
648 0 84.9573185912927 75.0558311078537
649 0 24.8630239123764 45.0312225519949
650 0 179.985886068198 30.0075859534769
651 0 174.996687488648 20.0068628837344
652 0 174.923762835546 49.8281244660861
653 0 49.7314405743447 25.0047832481011
654 0 29.7597882588575 34.9809172993815
655 0 175.376930947979 59.6375572310897
656 0 114.239688066005 33.2994874374346
657 0 40.2541450312025 31.7553679467669
658 0 158.108660144227 66.0052467103505
659 0 177.162002977398 73.959919839856
660 0 130.94064460366 29.801735689499
661 0 93.4752845766465 26.3486875092953
662 0 104.626705614485 27.6997215522043
663 0 176.104501508966 68.0159836328773
664 0 159.880940733371 76.8482721685182
665 0 32.8378940867205 30.9743881419158
666 0 121.122361704071 35.6460115184923
667 0 74.8842204492013 70.0597514813184
668 0 84.910240341239 70.0759450510077
669 0 99.9908726985397 70.0715135574241
670 0 84.8609974989021 27.8750937322156
671 0 103.412427210559 34.1308571992869
672 0 170.053155303817 54.5582564510928
673 0 124.80123772883 69.8871596203989
674 0 114.987368179912 69.9879421364825
675 0 169.992387753836 25.0174232407462
676 0 174.947360733011 34.9940193534448
677 0 79.9539078995784 29.056708946068
678 0 134.389524375709 70.0658807331722
679 0 161.119975996182 58.9932873469005
680 0 136.004126710285 29.6243033198027
681 0 33.4694682100692 36.6436681113008
682 0 170.707206449686 64.6043434045702
683 0 64.8782260602775 30.002513610047
684 0 105.009678397143 70.0513264127066
685 0 34.966064486896 70.0264082519884
686 0 64.9250897562631 70.0331393601229
687 0 74.8060107144941 29.8225163216224
688 0 39.9598845531611 70.0242046342003
689 0 24.9130267186444 50.0166175166053
690 0 24.9568894827181 60.0141917392329
691 0 29.9577442643003 65.0126917382616
692 0 49.944628968724 70.0323105803932
693 0 29.9706095693924 70.0208129197127
694 0 59.9352762503063 70.0322866456115
695 0 174.864082972091 44.8873944628303
696 0 94.9747386808261 70.0752956333502
697 0 160.000528456863 25.0319498222757
698 0 150.040542950394 25.0425342576207
699 0 174.991457974063 25.0107721412027
700 0 140.29797006746 24.9080313450242
701 0 29.5275602472061 40.1423565635834
702 0 152.913463985282 59.9857302665027
703 0 54.9396842873323 36.430055523341
704 0 144.545753733483 70.2846682708051
705 0 45.6902394103726 32.7851188376783
706 0 110.038698263556 35.0447263255561
707 0 89.4032059306011 26.7289757597806
708 0 126.621660204485 39.0095331213702
709 0 60.497045439764 29.55821755266
710 0 99.6648976410368 30.1293135671879
711 0 152.831399879312 64.3364316748347
712 0 132.873315275303 33.8979645498742
713 0 162.802327898213 69.0717560042777
714 0 116.224445994189 37.2569029758736
715 0 36.0036117418278 34.7201396187627
716 0 174.919405725193 70.6528989010433
717 0 48.712294214828 39.6703228344736
718 0 64.8025392138731 65.0095657055584
719 0 54.8815254624667 65.0072032265382
720 0 44.9143034058888 64.966174067594
721 0 33.8620384655842 39.8950884565793
722 0 169.858970465711 39.9101768983468
723 0 155.045564632685 30.0462649426718
724 0 99.9983848092031 65.0456910899353
725 0 89.7146157116618 30.1623536257562
726 0 114.987268810002 64.950791975924
727 0 34.9484828356457 64.98365425395
728 0 29.8545644157489 49.8952235642982
729 0 29.9465127456536 59.9706520816474
730 0 97.0923275813288 34.2815480870101
731 0 37.9074607408498 38.7004633245637
732 0 139.196714367565 70.0468441861938
733 0 79.8797055430384 70.0732407046387
734 0 29.6804766439921 44.9261946780011
735 0 69.8933056502627 70.0395704861866
736 0 174.978163866772 30.0085507103522
737 0 129.60071215092 70.0224147816987
738 0 119.908592535539 69.9052261451316
739 0 89.945074505083 70.0734465453235
740 0 105.038126097341 64.9718837834929
741 0 169.842272123734 49.687304660585
742 0 164.997029927227 30.0308313296061
743 0 145.336899527161 29.937916274268
744 0 136.624081130252 35.1066069292009
745 0 86.7174350230416 32.9450007553807
746 0 170.413985554653 59.3901572642859
747 0 148.273158220113 62.6295487343455
748 0 122.182928313496 40.1908846625094
749 0 140.676273398663 29.7900331878535
750 0 59.670426239948 38.275204036844
751 0 80.4636324357104 34.9684323769822
752 0 165.931888002134 63.2542431402707
753 0 106.700964105807 37.4410676061557
754 0 93.6478557984647 31.0844426145786
755 0 160.011768617924 55.0211108707043
756 0 172.953206367896 68.429880308973
757 0 111.949754987859 38.6174771716357
758 0 42.0714696451231 37.2126994347492
759 0 74.9705369252839 34.606988855641
760 0 131.593387469594 42.0411932304883
761 0 68.9318366422568 41.8816917977656
762 0 79.7441602559131 65.0724881079701
763 0 133.367901473572 45.808413683842
764 0 39.0744881620973 43.2688136033234
765 0 69.7414012606709 64.9846152452496
766 0 34.9415794725216 59.8714209471214
767 0 99.8793139088553 59.9157754200576
768 0 91.4202622003195 35.7656161371157
769 0 119.824866379012 64.8194649110348
770 0 165.075263959488 54.5486969127406
771 0 43.6089675968027 41.6862003635582
772 0 89.8826616306837 65.0406809421742
773 0 39.9346963009111 64.9507790661944
774 0 29.9220595326682 54.9016025318665
775 0 59.8449332325339 65.0091292885478
776 0 169.943638805388 34.986647777397
777 0 94.9470168822312 65.0628666017352
778 0 49.8905643260995 64.9832141612522
779 0 110.057033689031 64.9271834518923
780 0 150.124390190325 30.0197717435204
781 0 160.020316171809 30.0432150610023
782 0 169.805753889458 44.8094278928551
783 0 169.978862502399 30.0129756433666
784 0 129.349805033645 65.1108978719137
785 0 127.444006774506 43.386079633734
786 0 73.4894629051628 43.6906795667483
787 0 143.793108358339 60.7960905269564
788 0 64.3227104599048 40.0860906396623
789 0 54.3685010588409 41.4665976226691
790 0 117.390500963701 41.6415827078205
791 0 85.2027693261281 38.2926926539092
792 0 149.020201443178 57.9451415485052
793 0 99.991652524787 37.6617478128306
794 0 140.463617919072 38.811140658632
795 0 145.269973490235 34.7990113477497
796 0 154.77007791135 51.0605458378474
797 0 141.106590742983 34.2436533486668
798 0 34.4055343789908 44.4246585719206
799 0 109.030262041029 39.557895834164
800 0 133.657871808661 65.675237918216
801 0 165.571389544421 59.1459108876643
802 0 45.2942648335151 36.3451513432451
803 0 63.9847707408267 45.080663519692
804 0 54.7388377776767 59.9750900982007
805 0 82.5176290053043 47.5254110074901
806 0 159.968027938856 35.0647561230152
807 0 69.2200312636905 59.9190111846763
808 0 40.4227522636595 48.7022318989622
809 0 134.827459969414 57.7721828086605
810 0 128.276524276314 48.6854386761153
811 0 49.3324131812995 45.5455816482429
812 0 110.203380253952 59.6208869556782
813 0 130.499937588312 56.0241746000424
814 0 144.489542544887 39.8940498388023
815 0 34.9572808769418 54.6693731401288
816 0 95.3876184498872 37.6523718031726
817 0 144.754986780655 55.9042076571367
818 0 94.7737814864276 60.0404331507757
819 0 44.9777846078402 45.9089291410523
820 0 44.8817808096312 59.8424813587072
821 0 84.7732302857078 65.0302417716609
822 0 74.7269431281906 64.9997392071534
823 0 34.8327086053757 49.4369644610217
824 0 124.634346118565 64.7279399375324
825 0 59.6355200913134 59.9944640264582
826 0 39.9296572833712 59.8001720313215
827 0 164.740590314708 44.9054612949687
828 0 105.055903350544 59.7270879329792
829 0 164.855065130316 39.9904025621013
830 0 164.945393290718 35.0199489307077
831 0 159.583969067623 50.3206842543986
832 0 123.032762152599 44.7666568730316
833 0 68.52086303414 46.7780901719862
834 0 154.927163327608 35.0942318190984
835 0 149.937429736405 35.0398356601835
836 0 77.9897900471899 45.5367767004731
837 0 59.2294216117837 43.3439743174451
838 0 139.215063807245 59.040629597393
839 0 112.808971393225 42.6353790446589
840 0 138.373482178966 48.5737906608561
841 0 164.799906960788 49.8337939736748
842 0 119.480416685069 60.3873319530944
843 0 104.098051861318 41.2857484733195
844 0 89.6468849356335 40.0153958958101
845 0 149.430425643943 48.655307035567
846 0 84.3626673131051 59.3985706831079
847 0 58.4387598064891 49.0352001689985
848 0 49.5759058521103 50.3220660604065
849 0 159.7258914054 40.1700337113052
850 0 74.5486654921767 59.3268280774673
851 0 77.3570853734081 50.3629974240785
852 0 154.495709355364 40.2744676077681
853 0 59.2317515530871 54.9212015614546
854 0 120.847402658764 51.2212437118412
855 0 153.736844975638 46.031992779744
856 0 44.9467180241604 54.797974524986
857 0 134.617835891204 51.7677512520722
858 0 99.3789144317272 54.0659772505241
859 0 140.236619646715 54.2278818540207
860 0 118.62416357508 46.1753432201851
861 0 149.308931600409 40.23968308825
862 0 89.756624238981 60.0000246461324
863 0 159.544720363856 45.3148629497242
864 0 49.8112477390211 59.9372787559556
865 0 115.072938859826 59.928685542726
866 0 40.0259214072565 54.5875530118645
867 0 64.4144674680665 60.0369597329995
868 0 45.3427751260412 50.3767999254597
869 0 87.7208050804374 50.0600385201181
870 0 63.7199114083042 50.1167887378438
871 0 72.9561744223509 48.5660827652499
872 0 53.6672165475499 46.0331220836257
873 0 126.28767328585 53.8267703313271
874 0 108.583943241269 42.5696736787853
875 0 124.020708774916 48.1316295349043
876 0 148.642194810514 44.8653604424402
877 0 99.4721612117178 42.2584789568685
878 0 141.187492506055 50.0143057145932
879 0 94.020607866033 55.1442506412148
880 0 72.0754602486977 53.5673265602234
881 0 89.659255236843 55.4457962823595
882 0 54.4131748594032 55.0109326741418
883 0 113.354682458439 48.1189251768117
884 0 63.9148317272303 55.1063732602288
885 0 49.7025825128836 55.0510444572254
886 0 79.5011338282241 60.4941280985689
887 0 81.5429681692514 52.3051940453992
888 0 93.1042642100549 50.7828330126365
889 0 104.954055963014 55.0479830553519
890 0 53.7294083960231 50.5683500815893
891 0 103.314947951673 45.8528472269556
892 0 67.8568854609537 51.002383493736
893 0 96.3293037037028 50.6506750015393
894 0 116.455034037312 51.5816371274156
895 0 94.7703521329843 42.1710014413905
896 0 76.6633942884384 54.6455764791049
897 0 68.1142514706491 55.3675365015198
898 0 85.3904104147992 54.4248274928311
899 0 100.01557880774 45.0003758029688
900 0 107.698372077405 46.855287200796
901 0 80.1793279860061 56.2076168149915
$EndNodes
$Elements
872
1 2 2 1 1 880 896 850 
2 2 2 1 1 532 613 566 
3 2 2 1 1 881 898 869 
4 2 2 1 1 162 713 163 
5 2 2 1 1 2 25 182 
6 2 2 1 1 164 658 165 
7 2 2 1 1 530 664 536 
8 2 2 1 1 763 857 810 
9 2 2 1 1 845 876 855 
10 2 2 1 1 136 889 137 
11 2 2 1 1 145 759 144 
12 2 2 1 1 123 616 124 
13 2 2 1 1 716 756 663 
14 2 2 1 1 682 756 162 
15 2 2 1 1 413 565 472 
16 2 2 1 1 582 660 613 
17 2 2 1 1 580 704 638 
18 2 2 1 1 564 576 538 
19 2 2 1 1 148 709 147 
20 2 2 1 1 880 897 892 
21 2 2 1 1 529 653 590 
22 2 2 1 1 886 901 846 
23 2 2 1 1 254 317 214 
24 2 2 1 1 745 791 751 
25 2 2 1 1 279 319 215 
26 2 2 1 1 343 451 276 
27 2 2 1 1 182 253 2 
28 2 2 1 1 274 445 384 
29 2 2 1 1 180 388 179 
30 2 2 1 1 730 754 710 
31 2 2 1 1 164 752 163 
32 2 2 1 1 167 796 166 
33 2 2 1 1 172 708 173 
34 2 2 1 1 819 868 808 
35 2 2 1 1 130 800 131 
36 2 2 1 1 176 562 177 
37 2 2 1 1 813 857 809 
38 2 2 1 1 744 797 794 
39 2 2 1 1 179 449 180 
40 2 2 1 1 847 890 872 
41 2 2 1 1 503 561 414 
42 2 2 1 1 507 531 487 
43 2 2 1 1 150 653 149 
44 2 2 1 1 180 389 181 
45 2 2 1 1 793 816 730 
46 2 2 1 1 165 679 164 
47 2 2 1 1 165 702 166 
48 2 2 1 1 584 665 654 
49 2 2 1 1 168 878 169 
50 2 2 1 1 843 877 793 
51 2 2 1 1 560 614 467 
52 2 2 1 1 171 760 172 
53 2 2 1 1 168 845 167 
54 2 2 1 1 614 661 527 
55 2 2 1 1 181 318 182 
56 2 2 1 1 133 842 134 
57 2 2 1 1 140 895 139 
58 2 2 1 1 128 704 129 
59 2 2 1 1 574 665 617 
60 2 2 1 1 7 122 160 
61 2 2 1 1 161 659 160 
62 2 2 1 1 328 510 344 
63 2 2 1 1 320 180 181 
64 2 2 1 1 181 182 320 
65 3 2 1 1 83 84 233 187
66 3 2 1 1 192 22 23 229
67 3 2 1 1 33 249 202 32
68 3 2 1 1 40 246 186 39
69 3 2 1 1 209 101 102 304
70 3 2 1 1 46 244 45 3
71 3 2 1 1 212 10 11 218
72 3 2 1 1 45 244 213 44
73 3 2 1 1 59 60 208 250
74 3 2 1 1 64 4 65 224
75 3 2 1 1 207 63 64 224
76 3 2 1 1 201 72 73 226
77 3 2 1 1 75 76 227 195
78 3 2 1 1 76 77 231 227
79 3 2 1 1 111 112 188 241
80 3 2 1 1 16 17 220 203
81 3 2 1 1 13 14 219 206
82 3 2 1 1 62 63 207 223
83 3 2 1 1 235 88 89 236
84 3 2 1 1 87 88 235 185
85 3 2 1 1 104 243 103 5
86 3 2 1 1 233 84 85 234
87 3 2 1 1 115 116 200 222
88 3 2 1 1 114 115 222 225
89 3 2 1 1 230 80 81 232
90 3 2 1 1 238 93 94 239
91 3 2 1 1 102 103 243 304
92 3 2 1 1 191 79 80 230
93 3 2 1 1 237 92 93 238
94 3 2 1 1 183 96 97 240
95 3 2 1 1 184 91 92 237
96 3 2 1 1 43 306 205 42
97 3 2 1 1 244 46 47 305
98 3 2 1 1 213 306 43 44
99 3 2 1 1 198 99 100 302
100 3 2 1 1 243 104 105 303
101 3 2 1 1 303 105 106 242
102 3 2 1 1 210 376 377 305
103 3 2 1 1 47 48 210 305
104 3 2 1 1 106 107 204 242
105 3 2 1 1 41 308 246 40
106 3 2 1 1 303 242 339 375
107 3 2 1 1 302 100 101 209
108 3 2 1 1 210 48 49 307
109 3 2 1 1 213 244 305 377
110 3 2 1 1 205 308 41 42
111 3 2 1 1 240 97 98 300
112 3 2 1 1 375 304 243 303
113 3 2 1 1 49 50 194 307
114 3 2 1 1 306 213 377 435
115 3 2 1 1 204 107 108 301
116 3 2 1 1 204 273 339 242
117 3 2 1 1 51 52 248 309
118 3 2 1 1 194 50 51 309
119 3 2 1 1 435 327 205 306
120 3 2 1 1 337 302 209 374
121 3 2 1 1 374 209 304 375
122 3 2 1 1 300 98 99 198
123 3 2 1 1 189 248 52 53
124 3 2 1 1 245 37 38 310
125 3 2 1 1 337 425 198 302
126 3 2 1 1 327 435 464 496
127 3 2 1 1 308 205 327 439
128 3 2 1 1 376 210 307 436
129 3 2 1 1 193 35 36 312
130 3 2 1 1 307 194 324 436
131 3 2 1 1 246 308 439 340
132 3 2 1 1 376 464 435 377
133 3 2 1 1 189 53 54 311
134 3 2 1 1 249 33 34 314
135 3 2 1 1 301 108 109 190
136 3 2 1 1 247 55 56 313
137 3 2 1 1 340 257 186 246
138 3 2 1 1 248 189 260 378
139 3 2 1 1 251 30 31 315
140 3 2 1 1 624 513 579 675
141 3 2 1 1 697 781 723 620
142 3 2 1 1 239 94 95 297
143 3 2 1 1 38 39 186 310
144 3 2 1 1 463 555 440 378
145 3 2 1 1 190 109 110 298
146 3 2 1 1 236 89 90 296
147 3 2 1 1 378 440 309 248
148 3 2 1 1 36 37 245 312
149 3 2 1 1 234 85 86 295
150 3 2 1 1 54 55 247 311
151 3 2 1 1 324 194 309 440
152 3 2 1 1 34 35 193 314
153 3 2 1 1 310 381 379 245
154 3 2 1 1 555 456 324 440
155 3 2 1 1 438 380 247 313
156 3 2 1 1 496 557 439 327
157 3 2 1 1 495 604 515 441
158 3 2 1 1 232 81 82 294
159 3 2 1 1 497 579 513 394
160 3 2 1 1 340 497 394 257
161 3 2 1 1 56 57 197 313
162 3 2 1 1 375 339 433 374
163 3 2 1 1 261 369 183 240
164 3 2 1 1 231 77 78 292
165 3 2 1 1 381 257 394 495
166 3 2 1 1 373 273 204 301
167 3 2 1 1 228 20 21 291
168 3 2 1 1 31 32 202 315
169 3 2 1 1 477 554 321 431
170 3 2 1 1 378 260 393 463
171 3 2 1 1 251 211 29 30
172 3 2 1 1 650 572 456 555
173 3 2 1 1 297 95 96 183
174 3 2 1 1 188 112 113 293
175 3 2 1 1 410 493 273 373
176 3 2 1 1 197 57 58 299
177 3 2 1 1 255 372 430 431
178 3 2 1 1 372 255 238 239
179 3 2 1 1 226 73 74 288
180 3 2 1 1 513 604 495 394
181 3 2 1 1 297 183 369 368
182 3 2 1 1 339 273 493 433
183 3 2 1 1 220 17 18 287
184 3 2 1 1 287 18 19 196
185 3 2 1 1 284 366 184 237
186 3 2 1 1 237 238 255 284
187 3 2 1 1 298 110 111 241
188 3 2 1 1 296 90 91 184
189 3 2 1 1 483 425 337 411
190 3 2 1 1 432 369 261 492
191 3 2 1 1 313 197 325 438
192 3 2 1 1 338 434 492 261
193 3 2 1 1 697 620 515 604
194 3 2 1 1 371 256 235 236
195 3 2 1 1 340 439 557 497
196 3 2 1 1 558 464 376 436
197 3 2 1 1 295 86 87 185
198 3 2 1 1 301 190 427 373
199 3 2 1 1 312 245 379 437
200 3 2 1 1 219 14 15 285
201 3 2 1 1 208 60 61 283
202 3 2 1 1 411 337 374 433
203 3 2 1 1 298 241 363 336
204 3 2 1 1 437 322 193 312
205 3 2 1 1 433 493 490 411
206 3 2 1 1 336 427 190 298
207 3 2 1 1 370 258 233 234
208 3 2 1 1 442 341 249 314
209 3 2 1 1 341 266 202 249
210 3 2 1 1 429 361 256 489
211 3 2 1 1 648 668 739 568
212 3 2 1 1 310 186 257 381
213 3 2 1 1 294 82 83 187
214 3 2 1 1 259 363 241 188
215 3 2 1 1 314 193 322 442
216 3 2 1 1 380 382 311 247
217 3 2 1 1 432 551 488 390
218 3 2 1 1 296 184 366 365
219 3 2 1 1 300 198 425 338
220 3 2 1 1 290 359 191 230
221 3 2 1 1 230 232 262 290
222 3 2 1 1 605 650 555 463
223 3 2 1 1 456 558 436 324
224 3 2 1 1 292 78 79 191
225 3 2 1 1 516 605 463 393
226 3 2 1 1 19 20 228 196
227 3 2 1 1 604 513 624 697
228 3 2 1 1 494 402 266 341
229 3 2 1 1 342 274 211 251
230 3 2 1 1 456 572 606 558
231 3 2 1 1 291 21 22 192
232 3 2 1 1 395 480 259 334
233 3 2 1 1 338 261 240 300
234 3 2 1 1 383 342 251 315
235 3 2 1 1 489 601 549 429
236 3 2 1 1 367 264 227 231
237 3 2 1 1 293 113 114 225
238 3 2 1 1 603 559 455 500
239 3 2 1 1 434 338 425 483
240 3 2 1 1 368 372 239 297
241 3 2 1 1 556 494 341 442
242 3 2 1 1 500 455 322 437
243 3 2 1 1 299 58 59 250
244 3 2 1 1 500 441 515 603
245 3 2 1 1 442 322 455 556
246 3 2 1 1 551 432 492 523
247 3 2 1 1 497 557 651 579
248 3 2 1 1 726 674 622 779
249 3 2 1 1 288 74 75 195
250 3 2 1 1 286 353 225 222
251 3 2 1 1 621 722 776 676
252 3 2 1 1 645 648 549 601
253 3 2 1 1 557 496 606 651
254 3 2 1 1 495 441 379 381
255 3 2 1 1 486 552 323 419
256 3 2 1 1 228 265 351 196
257 3 2 1 1 496 464 558 606
258 3 2 1 1 218 11 12 281
259 3 2 1 1 493 410 525 490
260 3 2 1 1 260 189 311 382
261 3 2 1 1 365 371 236 296
262 3 2 1 1 423 332 351 399
263 3 2 1 1 280 350 223 207
264 3 2 1 1 362 269 201 226
265 3 2 1 1 277 71 72 201
266 3 2 1 1 292 191 359 358
267 3 2 1 1 270 356 203 220
268 3 2 1 1 393 260 382 498
269 3 2 1 1 490 525 577 524
270 3 2 1 1 395 334 353 476
271 3 2 1 1 407 491 540 475
272 3 2 1 1 364 370 234 295
273 3 2 1 1 409 484 336 363
274 3 2 1 1 285 15 16 203
275 3 2 1 1 391 489 256 371
276 3 2 1 1 283 61 62 223
277 3 2 1 1 579 651 699 675
278 3 2 1 1 427 336 484 462
279 3 2 1 1 696 634 568 739
280 3 2 1 1 424 545 461 400
281 3 2 1 1 315 202 266 383
282 3 2 1 1 549 648 568 453
283 3 2 1 1 424 354 264 478
284 3 2 1 1 363 259 480 409
285 3 2 1 1 523 640 578 551
286 3 2 1 1 208 272 335 250
287 3 2 1 1 517 622 674 602
288 3 2 1 1 523 492 434 596
289 3 2 1 1 491 407 321 554
290 3 2 1 1 462 410 373 427
291 3 2 1 1 369 432 390 368
292 3 2 1 1 578 688 629 598
293 3 2 1 1 524 483 411 490
294 3 2 1 1 281 12 13 206
295 3 2 1 1 430 372 368 390
296 3 2 1 1 437 379 441 500
297 3 2 1 1 777 696 739 772
298 3 2 1 1 484 409 597 522
299 3 2 1 1 483 524 596 434
300 3 2 1 1 262 419 323 290
301 3 2 1 1 380 443 498 382
302 3 2 1 1 649 689 595 542
303 3 2 1 1 399 351 265 481
304 3 2 1 1 603 515 620 698
305 3 2 1 1 514 597 409 480
306 3 2 1 1 286 426 476 353
307 3 2 1 1 406 457 521 474
308 3 2 1 1 724 669 696 777
309 3 2 1 1 422 325 197 299
310 3 2 1 1 358 367 231 292
311 3 2 1 1 522 599 462 484
312 3 2 1 1 250 335 422 299
313 3 2 1 1 285 203 356 355
314 3 2 1 1 364 295 185 361
315 3 2 1 1 235 256 361 185
316 3 2 1 1 488 598 512 452
317 3 2 1 1 567 540 491 600
318 3 2 1 1 602 674 738 644
319 3 2 1 1 410 462 599 525
320 3 2 1 1 486 602 644 552
321 3 2 1 1 598 488 551 578
322 3 2 1 1 480 395 595 514
323 3 2 1 1 266 402 444 383
324 3 2 1 1 367 398 478 264
325 3 2 1 1 674 726 769 738
326 3 2 1 1 502 438 325 501
327 3 2 1 1 428 333 258 482
328 3 2 1 1 623 690 597 514
329 3 2 1 1 233 258 333 187
330 3 2 1 1 370 392 482 258
331 3 2 1 1 255 431 321 284
332 3 2 1 1 692 778 719 619
333 3 2 1 1 357 362 226 288
334 3 2 1 1 293 225 353 334
335 3 2 1 1 326 426 286 268
336 3 2 1 1 352 294 187 333
337 3 2 1 1 457 406 323 552
338 3 2 1 1 453 420 429 549
339 3 2 1 1 599 522 642 643
340 3 2 1 1 419 262 352 408
341 3 2 1 1 736 676 776 783
342 3 2 1 1 453 568 634 543
343 3 2 1 1 651 606 572 699
344 3 2 1 1 391 541 601 489
345 3 2 1 1 692 512 598 629
346 3 2 1 1 391 475 540 541
347 3 2 1 1 423 485 270 332
348 3 2 1 1 569 649 542 459
349 3 2 1 1 643 577 525 599
350 3 2 1 1 457 570 636 521
351 3 2 1 1 334 259 188 293
352 3 2 1 1 284 321 407 366
353 3 2 1 1 552 644 570 457
354 3 2 1 1 742 781 697 624
355 3 2 1 1 694 639 594 619
356 3 2 1 1 355 360 219 285
357 3 2 1 1 556 455 559 607
358 3 2 1 1 390 488 452 430
359 3 2 1 1 477 431 430 452
360 3 2 1 1 522 597 690 642
361 3 2 1 1 640 523 596 628
362 3 2 1 1 577 643 693 628
363 3 2 1 1 357 288 195 354
364 3 2 1 1 545 424 478 519
365 3 2 1 1 227 264 354 195
366 3 2 1 1 443 380 438 502
367 3 2 1 1 775 719 804 825
368 3 2 1 1 352 262 232 294
369 3 2 1 1 290 323 406 359
370 3 2 1 1 333 428 408 352
371 3 2 1 1 619 594 512 692
372 3 2 1 1 403 356 270 485
373 3 2 1 1 524 577 628 596
374 3 2 1 1 776 830 742 783
375 3 2 1 1 514 595 689 623
376 3 2 1 1 421 481 265 347
377 3 2 1 1 343 218 281 348
378 3 2 1 1 361 429 420 364
379 3 2 1 1 222 200 268 286
380 3 2 1 1 287 196 351 332
381 3 2 1 1 283 223 350 330
382 3 2 1 1 392 370 364 420
383 3 2 1 1 718 686 694 775
384 3 2 1 1 486 419 408 454
385 3 2 1 1 546 550 399 481
386 3 2 1 1 775 694 619 719
387 3 2 1 1 347 265 228 291
388 3 2 1 1 783 742 624 675
389 3 2 1 1 454 408 428 548
390 3 2 1 1 420 453 543 392
391 3 2 1 1 778 692 629 720
392 3 2 1 1 332 270 220 287
393 3 2 1 1 736 783 675 699
394 3 2 1 1 628 693 685 640
395 3 2 1 1 767 818 879 858
396 3 2 1 1 452 512 594 477
397 3 2 1 1 691 693 643 642
398 3 2 1 1 366 407 475 365
399 3 2 1 1 391 371 365 475
400 3 2 1 1 667 637 567 735
401 3 2 1 1 688 578 640 685
402 3 2 1 1 477 594 639 554
403 3 2 1 1 690 623 774 729
404 3 2 1 1 765 735 686 718
405 3 2 1 1 693 691 727 685
406 3 2 1 1 729 691 642 690
407 3 2 1 1 600 491 554 639
408 3 2 1 1 556 607 526 494
409 3 2 1 1 494 526 465 402
410 3 2 1 1 639 694 686 600
411 3 2 1 1 476 426 459 542
412 3 2 1 1 691 729 766 727
413 3 2 1 1 481 421 547 546
414 3 2 1 1 354 424 400 357
415 3 2 1 1 330 272 208 283
416 3 2 1 1 600 686 735 567
417 3 2 1 1 398 367 358 474
418 3 2 1 1 359 406 474 358
419 3 2 1 1 548 428 482 593
420 3 2 1 1 392 543 593 482
421 3 2 1 1 542 595 395 476
422 3 2 1 1 517 571 684 622
423 3 2 1 1 826 773 727 766
424 3 2 1 1 728 774 623 689
425 3 2 1 1 689 649 734 728
426 3 2 1 1 773 826 820 720
427 3 2 1 1 516 393 498 592
428 3 2 1 1 356 403 473 355
429 3 2 1 1 516 621 676 605
430 3 2 1 1 684 669 724 740
431 3 2 1 1 684 740 779 622
432 3 2 1 1 736 650 605 676
433 3 2 1 1 443 518 592 498
434 3 2 1 1 720 629 688 773
435 3 2 1 1 685 727 773 688
436 3 2 1 1 592 695 621 516
437 3 2 1 1 734 649 569 701
438 3 2 1 1 592 518 652 695
439 3 2 1 1 423 460 529 485
440 3 2 1 1 446 362 357 400
441 3 2 1 1 699 572 650 736
442 3 2 1 1 474 521 591 398
443 3 2 1 1 517 602 486 454
444 3 2 1 1 399 550 460 423
445 3 2 1 1 540 567 637 541
446 3 2 1 1 645 601 541 637
447 3 2 1 1 519 478 398 591
448 3 2 1 1 815 766 729 774
449 3 2 1 1 735 765 822 667
450 3 2 1 1 479 269 362 446
451 3 2 1 1 762 733 667 822
452 3 2 1 1 668 648 645 733
453 3 2 1 1 637 667 733 645
454 3 2 1 1 518 608 626 652
455 3 2 1 1 571 517 454 548
456 3 2 1 1 229 385 263 192
457 3 2 1 1 291 192 263 347
458 3 2 1 1 772 739 668 821
459 3 2 1 1 733 762 821 668
460 3 2 1 1 608 518 443 502
461 3 2 1 1 412 326 268 331
462 3 2 1 1 458 547 421 397
463 3 2 1 1 418 330 350 417
464 3 2 1 1 593 543 634 627
465 3 2 1 1 547 458 641 575
466 3 2 1 1 627 571 548 593
467 3 2 1 1 573 641 458 537
468 3 2 1 1 400 461 539 446
469 3 2 1 1 684 571 627 669
470 3 2 1 1 626 655 746 672
471 3 2 1 1 608 544 655 626
472 3 2 1 1 634 696 669 627
473 3 2 1 1 724 777 818 767
474 3 2 1 1 199 69 70 217
475 3 2 1 1 641 573 677 687
476 3 2 1 1 751 759 687 677
477 3 2 1 1 544 608 502 501
478 3 2 1 1 519 647 580 545
479 3 2 1 1 862 818 777 772
480 3 2 1 1 644 738 673 570
481 3 2 1 1 740 828 812 779
482 3 2 1 1 772 821 846 862
483 3 2 1 1 417 350 280 344
484 3 2 1 1 397 421 347 263
485 3 2 1 1 581 646 550 546
486 3 2 1 1 720 820 864 778
487 3 2 1 1 537 458 397 471
488 3 2 1 1 459 426 326 553
489 3 2 1 1 201 269 329 277
490 3 2 1 1 217 70 71 277
491 3 2 1 1 447 412 331 349
492 3 2 1 1 587 460 550 646
493 3 2 1 1 774 728 823 815
494 3 2 1 1 698 625 559 603
495 3 2 1 1 850 822 765 807
496 3 2 1 1 879 818 862 881
497 3 2 1 1 726 779 812 865
498 3 2 1 1 829 849 806 830
499 3 2 1 1 263 385 471 397
500 3 2 1 1 625 700 607 559
501 3 2 1 1 343 276 212 218
502 3 2 1 1 846 898 881 862
503 3 2 1 1 570 673 737 636
504 3 2 1 1 723 780 698 620
505 3 2 1 1 216 67 68 275
506 3 2 1 1 224 65 66 289
507 3 2 1 1 289 66 67 216
508 3 2 1 1 804 719 778 864
509 3 2 1 1 732 704 580 647
510 3 2 1 1 781 742 830 806
511 3 2 1 1 280 207 224 289
512 3 2 1 1 655 585 682 746
513 3 2 1 1 121 1 8 215
514 3 2 1 1 767 828 740 724
515 3 2 1 1 652 626 672 741
516 3 2 1 1 591 521 636 635
517 3 2 1 1 635 647 519 591
518 3 2 1 1 215 8 9 279
519 3 2 1 1 575 581 546 547
520 3 2 1 1 526 607 700 630
521 3 2 1 1 804 882 853 825
522 3 2 1 1 858 889 828 767
523 3 2 1 1 632 683 581 575
524 3 2 1 1 282 221 349 331
525 3 2 1 1 331 268 200 282
526 3 2 1 1 269 479 405 329
527 3 2 1 1 520 544 501 470
528 3 2 1 1 687 632 575 641
529 3 2 1 1 200 116 117 282
530 3 2 1 1 798 823 728 734
531 3 2 1 1 636 737 678 635
532 3 2 1 1 460 587 653 529
533 3 2 1 1 776 722 829 830
534 3 2 1 1 360 271 206 219
535 3 2 1 1 26 27 252 320
536 3 2 1 1 585 655 544 520
537 3 2 1 1 206 271 348 281
538 3 2 1 1 289 216 344 280
539 3 2 1 1 217 345 267 199
540 3 2 1 1 401 503 267 345
541 3 2 1 1 835 834 852 861
542 3 2 1 1 446 539 530 479
543 3 2 1 1 422 335 404 470
544 3 2 1 1 346 385 229 278
545 3 2 1 1 723 834 835 780
546 3 2 1 1 829 722 782 827
547 3 2 1 1 253 278 24 2
548 3 2 1 1 864 820 856 885
549 3 2 1 1 28 29 211 316
550 3 2 1 1 279 9 10 212
551 3 2 1 1 536 405 479 530
552 3 2 1 1 23 24 278 229
553 3 2 1 1 275 68 69 199
554 3 2 1 1 252 27 28 316
555 3 2 1 1 780 743 625 698
556 3 2 1 1 852 834 806 849
557 3 2 1 1 325 422 470 501
558 3 2 1 1 282 117 118 221
559 3 2 1 1 275 328 344 216
560 3 2 1 1 807 765 718 867
561 3 2 1 1 126 125 664 588
562 3 2 1 1 842 769 726 865
563 3 2 1 1 825 867 718 775
564 3 2 1 1 781 806 834 723
565 3 2 1 1 680 630 700 749
566 3 2 1 1 123 161 160 122
567 3 2 1 1 124 162 161 123
568 3 2 1 1 471 396 610 537
569 3 2 1 1 487 553 326 412
570 3 2 1 1 155 156 451 416
571 3 2 1 1 732 647 635 678
572 3 2 1 1 451 343 348 416
573 3 2 1 1 416 472 154 155
574 3 2 1 1 317 349 221 214
575 3 2 1 1 413 360 355 473
576 3 2 1 1 383 444 499 342
577 3 2 1 1 846 821 762 886
578 3 2 1 1 539 588 664 530
579 3 2 1 1 695 782 722 621
580 3 2 1 1 537 610 633 573
581 3 2 1 1 614 560 662 710
582 3 2 1 1 582 465 526 630
583 3 2 1 1 386 346 278 253
584 3 2 1 1 654 701 569 609
585 3 2 1 1 838 859 817 787
586 3 2 1 1 138 137 889 858
587 3 2 1 1 741 782 695 652
588 3 2 1 1 825 853 884 867
589 3 2 1 1 396 471 385 346
590 3 2 1 1 118 119 214 221
591 3 2 1 1 832 785 810 875
592 3 2 1 1 143 144 759 751
593 3 2 1 1 345 217 277 329
594 3 2 1 1 319 279 212 276
595 3 2 1 1 328 275 199 267
596 3 2 1 1 573 633 670 677
597 3 2 1 1 880 871 851 896
598 3 2 1 1 472 565 153 154
599 3 2 1 1 868 848 885 856
600 3 2 1 1 625 743 749 700
601 3 2 1 1 677 670 745 751
602 3 2 1 1 450 389 506 564
603 3 2 1 1 787 129 130 838
604 3 2 1 1 657 151 150 705
605 3 2 1 1 882 804 864 885
606 3 2 1 1 403 485 529 590
607 3 2 1 1 709 646 581 683
608 3 2 1 1 404 534 520 470
609 3 2 1 1 164 679 801 752
610 3 2 1 1 565 535 152 153
611 3 2 1 1 149 618 705 150
612 3 2 1 1 158 319 276 157
613 3 2 1 1 127 711 658 126
614 3 2 1 1 131 809 838 130
615 3 2 1 1 128 747 711 127
616 3 2 1 1 132 813 809 131
617 3 2 1 1 795 743 780 835
618 3 2 1 1 770 841 741 672
619 3 2 1 1 129 787 747 128
620 3 2 1 1 560 504 615 662
621 3 2 1 1 272 330 418 469
622 3 2 1 1 402 465 532 444
623 3 2 1 1 785 832 748 708
624 3 2 1 1 125 713 162 124
625 3 2 1 1 535 473 403 590
626 3 2 1 1 618 149 148 703
627 3 2 1 1 147 750 703 148
628 3 2 1 1 803 788 761 833
629 3 2 1 1 416 348 271 472
630 3 2 1 1 346 386 511 396
631 3 2 1 1 509 7 418 417
632 3 2 1 1 786 144 143 836
633 3 2 1 1 142 805 836 143
634 3 2 1 1 789 703 750 837
635 3 2 1 1 144 786 761 145
636 3 2 1 1 822 850 886 762
637 3 2 1 1 750 147 146 788
638 3 2 1 1 329 405 401 345
639 3 2 1 1 848 868 819 811
640 3 2 1 1 836 851 871 786
641 3 2 1 1 145 761 788 146
642 3 2 1 1 564 538 511 450
643 3 2 1 1 788 803 837 750
644 3 2 1 1 703 789 717 618
645 3 2 1 1 833 761 786 871
646 3 2 1 1 151 657 574 152
647 3 2 1 1 335 272 469 404
648 3 2 1 1 119 120 254 214
649 3 2 1 1 811 819 771 717
650 3 2 1 1 891 900 137 138
651 3 2 1 1 826 766 815 866
652 3 2 1 1 839 790 860 883
653 3 2 1 1 535 590 151 152
654 3 2 1 1 749 797 744 680
655 3 2 1 1 861 814 795 835
656 3 2 1 1 127 126 588 638
657 3 2 1 1 877 899 139 895
658 3 2 1 1 267 503 414 328
659 3 2 1 1 856 820 826 866
660 3 2 1 1 849 829 827 863
661 3 2 1 1 661 614 710 754
662 3 2 1 1 666 173 708 748
663 3 2 1 1 134 842 865 135
664 3 2 1 1 812 136 135 865
665 3 2 1 1 589 528 611 122
666 3 2 1 1 754 725 707 661
667 3 2 1 1 320 182 25 26
668 3 2 1 1 832 860 790 748
669 3 2 1 1 316 211 274 384
670 3 2 1 1 499 444 532 566
671 3 2 1 1 900 874 839 883
672 3 2 1 1 877 895 816 793
673 3 2 1 1 6 121 215 159
674 3 2 1 1 837 847 872 789
675 3 2 1 1 569 459 553 609
676 3 2 1 1 813 132 133 873
677 3 2 1 1 734 701 721 798
678 3 2 1 1 576 633 610 538
679 3 2 1 1 504 177 562 615
680 3 2 1 1 342 499 445 274
681 3 2 1 1 870 803 833 892
682 3 2 1 1 807 897 880 850
683 3 2 1 1 389 450 318 181
684 3 2 1 1 638 704 128 127
685 3 2 1 1 673 738 769 824
686 3 2 1 1 389 180 449 506
687 3 2 1 1 412 447 507 487
688 3 2 1 1 855 876 861 852
689 3 2 1 1 157 276 451 156
690 3 2 1 1 678 800 130 732
691 3 2 1 1 737 784 800 678
692 3 2 1 1 764 771 819 808
693 3 2 1 1 748 790 714 666
694 3 2 1 1 141 142 791 844
695 3 2 1 1 892 897 884 870
696 3 2 1 1 811 717 789 872
697 3 2 1 1 126 658 713 125
698 3 2 1 1 660 173 174 613
699 3 2 1 1 844 895 140 141
700 3 2 1 1 682 162 163 752
701 3 2 1 1 387 447 349 317
702 3 2 1 1 784 737 673 824
703 3 2 1 1 632 145 146 683
704 3 2 1 1 147 709 683 146
705 3 2 1 1 847 837 803 870
706 3 2 1 1 180 320 252 388
707 3 2 1 1 318 386 253 182
708 3 2 1 1 887 901 896 851
709 3 2 1 1 787 817 792 747
710 3 2 1 1 630 680 660 582
711 3 2 1 1 566 175 176 505
712 3 2 1 1 770 755 831 841
713 3 2 1 1 791 142 143 751
714 3 2 1 1 824 769 842 133
715 3 2 1 1 611 528 466 616
716 3 2 1 1 743 795 797 749
717 3 2 1 1 587 646 709 148
718 3 2 1 1 707 670 633 576
719 3 2 1 1 487 531 609 553
720 3 2 1 1 851 836 805 887
721 3 2 1 1 872 890 848 811
722 3 2 1 1 877 843 891 899
723 3 2 1 1 418 7 468 469
724 3 2 1 1 731 758 771 764
725 3 2 1 1 159 254 120 6
726 3 2 1 1 809 857 859 838
727 3 2 1 1 565 413 473 535
728 3 2 1 1 889 136 812 828
729 3 2 1 1 450 511 386 318
730 3 2 1 1 852 849 863 855
731 3 2 1 1 866 815 823 808
732 3 2 1 1 681 654 665 715
733 3 2 1 1 759 145 632 687
734 3 2 1 1 532 465 582 613
735 3 2 1 1 755 166 796 831
736 3 2 1 1 157 387 317 158
737 3 2 1 1 461 545 580 638
738 3 2 1 1 798 764 808 823
739 3 2 1 1 161 162 756 716
740 3 2 1 1 156 448 387 157
741 3 2 1 1 868 856 866 808
742 3 2 1 1 179 388 384 178
743 3 2 1 1 445 177 178 384
744 3 2 1 1 448 507 447 387
745 3 2 1 1 448 156 155 508
746 3 2 1 1 613 174 175 566
747 3 2 1 1 711 702 165 658
748 3 2 1 1 885 848 890 882
749 3 2 1 1 134 854 873 133
750 3 2 1 1 854 134 135 894
751 3 2 1 1 131 800 784 132
752 3 2 1 1 744 171 172 712
753 3 2 1 1 785 760 763 810
754 3 2 1 1 154 563 508 155
755 3 2 1 1 841 827 782 741
756 3 2 1 1 672 746 801 770
757 3 2 1 1 132 784 824 133
758 3 2 1 1 563 154 153 617
759 3 2 1 1 768 844 791 745
760 3 2 1 1 853 847 870 884
761 3 2 1 1 562 533 583 615
762 3 2 1 1 396 511 538 610
763 3 2 1 1 588 539 461 638
764 3 2 1 1 715 665 574 657
765 3 2 1 1 758 731 715 657
766 3 2 1 1 664 125 124 536
767 3 2 1 1 730 816 768 754
768 3 2 1 1 730 710 671 793
769 3 2 1 1 176 175 533 562
770 3 2 1 1 860 832 875 854
771 3 2 1 1 863 827 841 831
772 3 2 1 1 165 166 755 679
773 3 2 1 1 449 415 467 506
774 3 2 1 1 617 665 584 563
775 3 2 1 1 615 583 631 662
776 3 2 1 1 563 584 531 508
777 3 2 1 1 141 869 805 142
778 3 2 1 1 149 653 587 148
779 3 2 1 1 792 167 166 702
780 3 2 1 1 167 792 817 168
781 3 2 1 1 508 531 507 448
782 3 2 1 1 583 656 706 631
783 3 2 1 1 896 901 886 850
784 3 2 1 1 175 174 612 533
785 3 2 1 1 576 527 661 707
786 3 2 1 1 813 873 810 857
787 3 2 1 1 746 682 752 801
788 3 2 1 1 415 504 560 467
789 3 2 1 1 656 714 757 706
790 3 2 1 1 612 666 714 656
791 3 2 1 1 534 404 469 468
792 3 2 1 1 763 170 840 857
793 3 2 1 1 631 706 753 671
794 3 2 1 1 706 757 799 753
795 3 2 1 1 179 178 415 449
796 3 2 1 1 887 805 869 898
797 3 2 1 1 869 141 140 888
798 3 2 1 1 139 893 888 140
799 3 2 1 1 174 173 666 612
800 3 2 1 1 527 506 467 614
801 3 2 1 1 528 503 401 466
802 3 2 1 1 405 536 466 401
803 3 2 1 1 662 631 671 710
804 3 2 1 1 867 884 897 807
805 3 2 1 1 590 653 150 151
806 3 2 1 1 831 796 855 863
807 3 2 1 1 790 839 757 714
808 3 2 1 1 178 177 504 415
809 3 2 1 1 271 360 413 472
810 3 2 1 1 871 880 892 833
811 3 2 1 1 843 753 799 874
812 3 2 1 1 888 879 881 869
813 3 2 1 1 681 715 731 721
814 3 2 1 1 533 612 656 583
815 3 2 1 1 900 883 136 137
816 3 2 1 1 509 414 561 589
817 3 2 1 1 152 574 617 153
818 3 2 1 1 793 671 753 843
819 3 2 1 1 170 794 814 169
820 3 2 1 1 890 847 853 882
821 3 2 1 1 839 874 799 757
822 3 2 1 1 670 707 725 745
823 3 2 1 1 609 531 584 654
824 3 2 1 1 764 798 721 731
825 3 2 1 1 319 158 159 215
826 3 2 1 1 681 721 701 654
827 3 2 1 1 814 794 797 795
828 3 2 1 1 876 845 168 169
829 3 2 1 1 171 170 763 760
830 3 2 1 1 564 506 527 576
831 3 2 1 1 814 861 876 169
832 3 2 1 1 758 657 705 802
833 3 2 1 1 164 163 713 658
834 3 2 1 1 840 878 859 857
835 3 2 1 1 796 167 845 855
836 3 2 1 1 414 509 510 328
837 3 2 1 1 585 663 756 682
838 3 2 1 1 254 159 158 317
839 3 2 1 1 708 172 760 785
840 3 2 1 1 663 534 586 716
841 3 2 1 1 505 176 177 445
842 3 2 1 1 747 792 702 711
843 3 2 1 1 816 895 844 768
844 3 2 1 1 169 878 840 170
845 3 2 1 1 160 659 468 7
846 3 2 1 1 716 586 659 161
847 3 2 1 1 129 704 732 130
848 3 2 1 1 901 887 898 846
849 3 2 1 1 794 170 171 744
850 3 2 1 1 123 122 611 616
851 3 2 1 1 712 172 173 660
852 3 2 1 1 520 534 663 585
853 3 2 1 1 316 384 388 252
854 3 2 1 1 618 717 802 705
855 3 2 1 1 894 883 860 854
856 3 2 1 1 679 755 770 801
857 3 2 1 1 879 888 893 858
858 3 2 1 1 874 900 891 843
859 3 2 1 1 7 509 589 122
860 3 2 1 1 817 859 878 168
861 3 2 1 1 894 135 136 883
862 3 2 1 1 680 744 712 660
863 3 2 1 1 893 139 138 858
864 3 2 1 1 873 854 875 810
865 3 2 1 1 771 758 802 717
866 3 2 1 1 505 445 499 566
867 3 2 1 1 417 344 510 509
868 3 2 1 1 536 124 616 466
869 3 2 1 1 528 589 561 503
870 3 2 1 1 586 534 468 659
871 3 2 1 1 768 745 725 754
872 3 2 1 1 899 891 138 139
$EndElements
