$MeshFormat
2.2 0 8
$EndMeshFormat
$Nodes
1467
1 0 0 0
2 0 10 0
3 0 20 0
4 0 200 0
5 0 200 10
6 0 200 50
7 0 200 100
8 0 180 100
9 0 100 100
10 0 90 100
11 0 0 100
12 0 0 10
13 0 128.571428571429 74.2857142857143
14 0 30 25
15 0 166.037735849057 40.5660377358491
16 0 5 0
17 0 15 0
18 0 25 0
19 0 30 0
20 0 35 0
21 0 40 0
22 0 45 0
23 0 50 0
24 0 55 0
25 0 60 0
26 0 65 0
27 0 70 0
28 0 75 0
29 0 80 0
30 0 85 0
31 0 90 0
32 0 95 0
33 0 100 0
34 0 105 0
35 0 110 0
36 0 115 0
37 0 120 0
38 0 125 0
39 0 130 0
40 0 135 0
41 0 140 0
42 0 145 0
43 0 150 0
44 0 155 0
45 0 160 0
46 0 165 0
47 0 170 0
48 0 175 0
49 0 180 0
50 0 185 0
51 0 190 0
52 0 195 0
53 0 200 5
54 0 200 15
55 0 200 20
56 0 200 25
57 0 200 30
58 0 200 35
59 0 200 40
60 0 200 45
61 0 200 55
62 0 200 60
63 0 200 65
64 0 200 70
65 0 200 75
66 0 200 80
67 0 200 85
68 0 200 90
69 0 200 95
70 0 195 100
71 0 190 100
72 0 185 100
73 0 175 100
74 0 170 100
75 0 165 100
76 0 160 100
77 0 155 100
78 0 150 100
79 0 145 100
80 0 140 100
81 0 135 100
82 0 130 100
83 0 125 100
84 0 120 100
85 0 115 100
86 0 110 100
87 0 105 100
88 0 95 100
89 0 85 100
90 0 80 100
91 0 75 100
92 0 70 100
93 0 65 100
94 0 60 100
95 0 55 100
96 0 50 100
97 0 45 100
98 0 40 100
99 0 35 100
100 0 30 100
101 0 25 100
102 0 20 100
103 0 15 100
104 0 10 100
105 0 5 100
106 0 0 95
107 0 0 90
108 0 0 85
109 0 0 80
110 0 0 75
111 0 0 70
112 0 0 65
113 0 0 60
114 0 0 55
115 0 0 50
116 0 0 45
117 0 0 40
118 0 0 35
119 0 0 30
120 0 0 25
121 0 0 20
122 0 0 15
123 0 0 5
124 0 176.785714285714 98.3928571428571
125 0 173.571428571429 96.7857142857143
126 0 170.357142857143 95.1785714285714
127 0 167.142857142857 93.5714285714286
128 0 163.928571428571 91.9642857142857
129 0 160.714285714286 90.3571428571429
130 0 157.5 88.75
131 0 154.285714285714 87.1428571428571
132 0 151.071428571429 85.5357142857143
133 0 147.857142857143 83.9285714285714
134 0 144.642857142857 82.3214285714286
135 0 141.428571428571 80.7142857142857
136 0 138.214285714286 79.1071428571429
137 0 135 77.5
138 0 131.785714285714 75.8928571428571
139 0 125.391705069124 72.6958525345622
140 0 122.21198156682 71.1059907834101
141 0 119.032258064516 69.5161290322581
142 0 115.852534562212 67.926267281106
143 0 112.672811059908 66.3364055299539
144 0 109.493087557604 64.7465437788019
145 0 106.3133640553 63.1566820276498
146 0 103.133640552995 61.5668202764977
147 0 99.9539170506913 59.9769585253456
148 0 96.7741935483871 58.3870967741936
149 0 93.594470046083 56.7972350230415
150 0 90.4147465437789 55.2073732718894
151 0 87.2350230414747 53.6175115207374
152 0 84.0552995391706 52.0276497695853
153 0 80.8755760368664 50.4377880184332
154 0 77.6958525345623 48.8479262672811
155 0 74.5161290322581 47.2580645161291
156 0 71.336405529954 45.668202764977
157 0 68.1566820276499 44.0783410138249
158 0 64.9769585253457 42.4884792626728
159 0 61.7972350230415 40.8986175115208
160 0 58.6175115207374 39.3087557603687
161 0 55.4377880184332 37.7188940092166
162 0 52.2580645161291 36.1290322580645
163 0 49.0783410138249 34.5391705069125
164 0 45.8986175115208 32.9493087557604
165 0 42.7188940092166 31.3594470046083
166 0 39.5391705069125 29.7695852534562
167 0 36.3594470046083 28.1797235023042
168 0 33.1797235023042 26.5898617511521
169 0 27 23.5
170 0 24 22
171 0 21 20.5
172 0 18 19
173 0 14.9999999999999 17.5
174 0 12 16
175 0 8.99999999999997 14.5
176 0 5.99999999999998 13
177 0 2.99999999999999 11.5
178 0 12.2222222222222 2.77777777777778
179 0 14.4444444444444 5.55555555555556
180 0 16.6666666666667 8.33333333333333
181 0 18.8888888888889 11.1111111111111
182 0 21.1111111111111 13.8888888888889
183 0 23.3333333333333 16.6666666666667
184 0 25.5555555555556 19.4444444444444
185 0 27.7777777777778 22.2222222222222
186 0 32.2222222222222 27.7777777777778
187 0 34.4444444444444 30.5555555555556
188 0 36.6666666666667 33.3333333333333
189 0 38.8888888888889 36.1111111111111
190 0 41.1111111111111 38.8888888888889
191 0 43.3333333333333 41.6666666666667
192 0 45.5555555555556 44.4444444444445
193 0 47.7777777777778 47.2222222222222
194 0 50 50
195 0 52.2222222222222 52.7777777777778
196 0 54.4444444444445 55.5555555555556
197 0 56.6666666666667 58.3333333333333
198 0 58.8888888888889 61.1111111111111
199 0 61.1111111111111 63.8888888888889
200 0 63.3333333333333 66.6666666666667
201 0 65.5555555555556 69.4444444444445
202 0 67.7777777777778 72.2222222222222
203 0 70 75
204 0 72.2222222222222 77.7777777777778
205 0 74.4444444444445 80.5555555555556
206 0 76.6666666666667 83.3333333333333
207 0 78.8888888888889 86.1111111111111
208 0 81.1111111111111 88.8888888888889
209 0 83.3333333333333 91.6666666666667
210 0 85.5555555555556 94.4444444444444
211 0 87.7777777777778 97.2222222222222
212 0 102.597402597403 97.6623376623377
213 0 105.194805194805 95.3246753246753
214 0 107.792207792208 92.987012987013
215 0 110.38961038961 90.6493506493507
216 0 112.987012987013 88.3116883116883
217 0 115.584415584416 85.974025974026
218 0 118.181818181818 83.6363636363636
219 0 120.779220779221 81.2987012987013
220 0 123.376623376623 78.961038961039
221 0 125.974025974026 76.6233766233766
222 0 131.247593376973 71.8771659607239
223 0 133.923758182518 69.4686176357335
224 0 136.599922988063 67.0600693107432
225 0 139.276087793608 64.6515209857528
226 0 141.952252599153 62.2429726607624
227 0 144.628417404698 59.834424335772
228 0 147.304582210243 57.4258760107817
229 0 149.980747015787 55.0173276857913
230 0 152.656911821332 52.6087793608009
231 0 155.333076626877 50.2002310358105
232 0 158.009241432422 47.7916827108202
233 0 160.685406237967 45.3831343858298
234 0 163.361571043512 42.9745860608394
235 0 168.650217706822 38.2148040638607
236 0 171.262699564586 35.8635703918723
237 0 173.875181422351 33.5123367198839
238 0 176.487663280116 31.1611030478955
239 0 179.100145137881 28.8098693759071
240 0 181.712626995646 26.4586357039187
241 0 184.325108853411 24.1074020319303
242 0 186.937590711176 21.7561683599419
243 0 189.55007256894 19.4049346879536
244 0 192.162554426705 17.0537010159652
245 0 194.77503628447 14.7024673439768
246 0 197.387518142235 12.3512336719884
247 0 196.603773584906 49.0566037735849
248 0 193.207547169811 48.1132075471698
249 0 189.811320754717 47.1698113207547
250 0 186.415094339623 46.2264150943396
251 0 183.018867924528 45.2830188679245
252 0 179.622641509434 44.3396226415094
253 0 176.22641509434 43.3962264150943
254 0 172.830188679245 42.4528301886792
255 0 169.433962264151 41.5094339622642
256 0 162.641509433962 39.622641509434
257 0 159.245283018868 38.6792452830189
258 0 155.849056603774 37.7358490566038
259 0 152.452830188679 36.7924528301887
260 0 149.056603773585 35.8490566037736
261 0 145.660377358491 34.9056603773585
262 0 142.264150943396 33.9622641509434
263 0 138.867924528302 33.0188679245283
264 0 135.471698113208 32.0754716981132
265 0 132.075471698113 31.1320754716981
266 0 128.679245283019 30.188679245283
267 0 125.283018867925 29.2452830188679
268 0 121.88679245283 28.3018867924528
269 0 118.490566037736 27.3584905660377
270 0 115.094339622641 26.4150943396226
271 0 111.698113207547 25.4716981132075
272 0 108.301886792453 24.5283018867924
273 0 104.905660377358 23.5849056603774
274 0 101.509433962264 22.6415094339623
275 0 98.1132075471698 21.6981132075472
276 0 94.7169811320754 20.7547169811321
277 0 91.3207547169811 19.811320754717
278 0 87.9245283018868 18.8679245283019
279 0 84.5283018867924 17.9245283018868
280 0 81.1320754716981 16.9811320754717
281 0 77.7358490566037 16.0377358490566
282 0 74.3396226415094 15.0943396226415
283 0 70.943396226415 14.1509433962264
284 0 67.5471698113207 13.2075471698113
285 0 64.1509433962264 12.2641509433962
286 0 60.754716981132 11.3207547169811
287 0 57.3584905660377 10.377358490566
288 0 53.9622641509433 9.43396226415093
289 0 50.566037735849 8.49056603773583
290 0 47.1698113207546 7.54716981132074
291 0 43.7735849056603 6.60377358490564
292 0 40.377358490566 5.66037735849054
293 0 36.9811320754716 4.71698113207545
294 0 33.5849056603773 3.77358490566036
295 0 30.188679245283 2.83018867924527
296 0 26.7924528301886 1.88679245283019
297 0 23.3962264150943 0.943396226415082
298 0 4.82318233315708 65.0375931093059
299 0 35.0123230726821 95.1410393218839
300 0 155.081346457142 4.77060964880015
301 0 4.7582185520599 45.14714675412
302 0 174.167788146027 91.9742173748663
303 0 140.117334571563 4.93896148418887
304 0 54.8798098069217 95.2733226222418
305 0 164.956118034614 4.74815030541027
306 0 125.068926257816 4.71646479453851
307 0 195.11312363143 75.1970499003357
308 0 101.386211314501 94.3595518890282
309 0 110.046478666852 4.71421929767986
310 0 175.156096574153 5.53486598775638
311 0 4.91955111122772 30.2137604148587
312 0 33.5637611726136 7.43882329482032
313 0 134.521133370073 94.3094387672712
314 0 95.3307761059786 4.77969669366365
315 0 195.000219502167 64.8732444482381
316 0 19.9934404364272 95.0575152657415
317 0 4.96716211113076 85.0227548504352
318 0 79.8419581912296 4.62202403163904
319 0 69.5502522330123 95.538875181313
320 0 26.7233659850067 16.2149671617375
321 0 195.302504932023 34.948365174865
322 0 162.67006960481 36.1067679889985
323 0 185.93082511908 5.96186303035114
324 0 149.49285213541 95.2093511450858
325 0 69.9688368861471 4.56270154327154
326 0 124.42199924151 95.1246341930458
327 0 195.035552108671 90.1882094125825
328 0 190.77080432515 4.78393963508534
329 0 185.353244114516 95.4526362490379
330 0 4.76593870198128 19.9139023996992
331 0 118.862978012491 94.5066995140671
332 0 5.71332734954525 4.65371370104346
333 0 60.5453291264327 4.01239046469353
334 0 195.54044823553 25.1362653120713
335 0 27.7648249081416 5.13360304419141
336 0 158.453529524061 93.9992386742128
337 0 114.367146696038 96.1478698490521
338 0 195.299093389867 4.69130298530487
339 0 81.0361831858601 93.9645923736091
340 0 84.709933056519 4.76624459913582
341 0 64.7363203329404 95.4329658839488
342 0 194.427869226023 59.2668028562309
343 0 4.84877357061525 35.2117965146957
344 0 144.719969248938 95.2388857513934
345 0 115.0691997077 4.71768265017607
346 0 100.156004906177 4.67279415484314
347 0 195.12324068768 85.2360163973242
348 0 49.9140340867951 95.2267036156824
349 0 130.047022686199 4.75436653415731
350 0 145.156322148524 4.8811593415369
351 0 4.76722193902461 50.1014363909009
352 0 4.77582472738064 55.0723983053401
353 0 30.0053372410224 95.118009098762
354 0 44.9562423739826 95.1955118300336
355 0 4.86168222994576 70.0360206553418
356 0 14.9891318793766 95.0332724513046
357 0 4.90258578035487 75.0355215172135
358 0 9.9904536076415 95.0166337967304
359 0 4.99468976525779 95.006615606479
360 0 195.00057721719 95.1130259736912
361 0 195.33212206347 19.3425701638641
362 0 8.6682795749188 3.4127552011927
363 0 159.526020708283 41.5799123754607
364 0 20.7387467813958 3.3860003142332
365 0 25.7253857736665 4.19910847578875
366 0 51.4728256415359 4.81433099593495
367 0 195.22652694339 8.81838485124383
368 0 16.6214763701632 3.82600836235646
369 0 195.550026668848 45.4276844791554
370 0 4.1569398958613 8.50756119881527
371 0 92.0538546705296 96.2179705914708
372 0 122.203941244211 74.9392319497734
373 0 166.483469053042 44.4940502520247
374 0 110.013244387452 95.8121102636116
375 0 98.4512577849233 96.0360494200817
376 0 165.587530633528 36.7882481157724
377 0 128.051960231938 70.1155722583473
378 0 129.442683528105 78.3360714848441
379 0 172.47203274567 38.0551177423726
380 0 46.0143466833866 4.25105330824123
381 0 177.56390284189 95.3527157856931
382 0 4.44096306016037 16.019646765397
383 0 165.848200065354 96.389150109033
384 0 135.041348834062 73.0417487021204
385 0 19.6068573759366 15.8324652088292
386 0 82.9453729787798 96.4890498883002
387 0 195.058020135879 53.4663159860613
388 0 9.59708595367646 65.1267344848601
389 0 9.42400099075039 45.4018724433807
390 0 49.7109299215256 90.5266290474638
391 0 50.4250394109745 11.9958495972315
392 0 140.181922011249 10.3410157295491
393 0 29.9162301357884 90.2812384266559
394 0 125.175981993783 9.3525265046475
395 0 190.260110018285 64.8137209301455
396 0 9.52734987999214 30.5760904131256
397 0 115.2574561413 9.48007416987008
398 0 95.7559838571963 9.22360962318204
399 0 164.338759066916 88.3166851409657
400 0 69.1652190331286 91.1496768795467
401 0 25.8321145932937 6.91439709882133
402 0 191.148004110411 55.3638051832018
403 0 170.200068513567 32.2769827035814
404 0 191.259771715808 13.4151392537207
405 0 17.7836958742508 22.1661878697335
406 0 19.9393822118871 90.1425761813744
407 0 40.3193339033897 9.10464590038123
408 0 98.1767324134542 92.7943956906619
409 0 86.4954658869817 90.6223995694596
410 0 84.3046462936984 9.20334886906172
411 0 156.389140731375 40.9273969425455
412 0 174.952595703027 35.7447021919473
413 0 124.190973220454 90.7041666607108
414 0 127.571226129406 80.7552349008807
415 0 12.4086620466019 8.03627969068015
416 0 177.68147577228 91.8660256766404
417 0 74.1344597771642 95.6112401643997
418 0 28.7733925576643 19.0521392246913
419 0 190.229037500246 90.4915830102733
420 0 149.010127706511 89.7506834369219
421 0 54.345078259028 7.34465503257631
422 0 194.616821333175 40.3208684185648
423 0 120.478535454061 90.358158609972
424 0 166.242322457707 33.8487406261786
425 0 154.081606898806 95.1101571773975
426 0 65.1352661283537 4.29434860043838
427 0 5.41438283250939 24.99524541678
428 0 8.47555185342354 7.70071221021117
429 0 195.527932247984 30.047122502602
430 0 74.9159333110582 4.60805348903139
431 0 139.944741781964 95.0830919507602
432 0 90.0416115088921 5.41175522298035
433 0 129.229379601553 95.0545207330221
434 0 180.466432898679 5.1862362197863
435 0 195.038713349176 70.0655137574049
436 0 105.054917304159 4.68447934598249
437 0 190.118223585182 95.2688987177854
438 0 59.8196309122096 95.3509575802869
439 0 120.089940282258 4.70881258464151
440 0 169.814270135099 4.85584433287151
441 0 4.79294015470187 40.2151746449031
442 0 135.044268720919 4.86523573835382
443 0 160.027227537555 4.75330404947823
444 0 9.45742698092297 50.2678279085738
445 0 150.130437150537 4.7927840252302
446 0 39.9858349171684 95.1725003703996
447 0 195.160595518771 80.261509461585
448 0 4.78805162503596 60.0577679867849
449 0 9.68109553846118 70.1291273735532
450 0 184.46884101447 10.0925403583454
451 0 24.9885090898967 95.0943157133295
452 0 43.6824473766504 10.0603758099729
453 0 4.93770569252686 80.0326411943325
454 0 14.949108231853 90.0846175539794
455 0 9.96537573692692 90.0427687474048
456 0 4.98265385818621 90.0170129782559
457 0 36.9520839605302 8.20769694585488
458 0 29.9745142172417 7.12772532104361
459 0 169.417993428838 45.1625694051489
460 0 159.381683454578 35.1286110614594
461 0 181.110308422216 95.483141675634
462 0 132.766936885523 80.0977776555457
463 0 125.127849689656 69.0710597367774
464 0 95.513029607706 95.9589831845031
465 0 170.861964620946 91.1874055325338
466 0 77.9700705574196 91.1642411497268
467 0 17.3574919853373 13.7083506301802
468 0 105.3542977134 91.8165062600303
469 0 191.063411620083 21.8203917271777
470 0 156.498796470535 91.1132528927862
471 0 88.0278590671766 93.4243428969976
472 0 191.761343331077 50.5531916252971
473 0 18.9232209188331 2.7604930473948
474 0 24.3609507544154 13.1980536033025
475 0 6.99765129528248 10.240435734131
476 0 194.882723572445 11.4294791546964
477 0 162.669647566598 95.3421685369149
478 0 19.1150100537674 5.54590485730807
479 0 175.219103603436 38.919314510773
480 0 10.3615032564171 5.34280679590177
481 0 163.136422160583 46.7807145706587
482 0 191.308283207175 8.89155804558337
483 0 169.019310607453 34.7136089279812
484 0 137.687413424404 69.2762446906706
485 0 119.92747994358 77.9583452933426
486 0 15.9712040210215 15.7287097059253
487 0 56.1216903392437 3.96560613214434
488 0 167.606669914658 89.8256969400059
489 0 7.64604165007211 17.3082198317615
490 0 112.697118768011 93.0052996446061
491 0 191.513174215801 44.0734423514445
492 0 130.595403798158 68.2263182226124
493 0 154.591916376236 83.5835610543663
494 0 167.29513575902 31.0083270739797
495 0 150.273513155924 9.48862960148367
496 0 13.9675998251819 45.7082314253095
497 0 168.106604889679 86.0807913036493
498 0 40.2346793381243 12.5523193635659
499 0 169.517619996318 9.43627618831371
500 0 14.3117847933366 65.3259976475879
501 0 28.9992933014755 16.7082348188998
502 0 19.8087095040391 85.2633087537376
503 0 190.393049677704 80.7157402679383
504 0 130.530542458733 82.8270802185423
505 0 153.049115227438 40.0852390467412
506 0 30.411906302838 10.6026596182331
507 0 189.634676711852 70.2402694835793
508 0 140.230391487627 91.0186438020054
509 0 186.338139921817 17.1630303972011
510 0 9.49183749998443 40.6548089115779
511 0 90.2823352264635 88.9877101148688
512 0 134.83134285472 9.6334130154228
513 0 191.306716563824 30.0592989955126
514 0 9.95594524791166 26.5678349666036
515 0 9.53088651801835 60.1595040815349
516 0 9.85735263840674 80.1000374735121
517 0 119.149641416696 75.6250006323751
518 0 138.284633696854 72.3733818410475
519 0 185.668465563006 90.8978207974269
520 0 128.388284205135 90.5944005367011
521 0 79.7067241272539 9.01953728977495
522 0 10.6772573207978 19.5699720608596
523 0 88.1943503721004 9.64482355963316
524 0 122.689302617075 83.9968296315516
525 0 186.557799019819 49.6247481065502
526 0 73.6144748070098 91.3316747119458
527 0 180.780781146077 9.71530697009894
528 0 120.300232302715 9.38863524176598
529 0 10.0666349889092 35.5686805750185
530 0 188.294391597152 42.7385482176837
531 0 144.208084716291 90.7370709512396
532 0 94.9296431809143 92.703311157239
533 0 129.999930268739 9.40427287898396
534 0 74.9493753833647 9.03704452378182
535 0 110.79669759382 87.0050436168316
536 0 140.45934758573 67.7446272155001
537 0 117.989047034266 79.3933077000398
538 0 9.48745116934396 55.2013923969494
539 0 54.6231756195726 90.6245703876672
540 0 145.479812392652 9.67368790257532
541 0 105.032743207044 9.3528829017821
542 0 110.114083227048 9.49843105486392
543 0 190.365298387097 85.6516762391997
544 0 190.082385914391 60.643557002078
545 0 59.5434757874722 90.7522264713328
546 0 27.09745742606 13.4462930305306
547 0 159.955730322859 9.44415182684976
548 0 24.9106946748439 90.2214027919694
549 0 39.866605059864 90.3986536713301
550 0 34.883063097715 90.3489872895452
551 0 100.253332747196 9.20873786425346
552 0 33.5727166457301 10.933288327094
553 0 64.4076933604455 90.9410840484654
554 0 189.955640774303 38.8793500040356
555 0 11.669359522799 12.3679290531966
556 0 64.8893584069381 8.41522490997684
557 0 191.352231379843 25.5714901838562
558 0 178.070846272521 40.3596898117472
559 0 9.7697351327741 75.1264397462458
560 0 44.7778059111701 90.4678122753893
561 0 22.1929514480456 7.01005866278101
562 0 162.240961800457 49.7592706714539
563 0 14.8636776859635 85.1558998687866
564 0 102.363559635185 90.9690151042234
565 0 9.91582691127037 85.0781333869895
566 0 153.697192080977 90.8310688855475
567 0 53.8078756899581 12.9498929002643
568 0 47.0494306148864 11.029277847825
569 0 155.979543693885 34.1377064811802
570 0 132.119512860163 66.4263629025278
571 0 128.410370921895 67.0532790848313
572 0 172.701267149722 46.0963241339261
573 0 20.8163426271807 23.3108057689107
574 0 181.487795999037 91.363542634004
575 0 163.100032661915 32.6533555892231
576 0 23.2590213114153 4.11043890927648
577 0 166.041704161104 47.6807503274504
578 0 161.083631887801 86.7407784783681
579 0 156.753599948733 43.9310855435863
580 0 125.266888265036 82.7852003032529
581 0 189.436413236304 52.414139496143
582 0 121.212895016466 67.6716172266097
583 0 135.925760777185 81.6130445958953
584 0 146.71846121118 86.4942594004736
585 0 115.398545208412 90.9986725267879
586 0 174.516852356014 88.3637380007756
587 0 177.202775367957 34.0576315272366
588 0 134.652731985699 63.5747271623046
589 0 174.471919543843 28.8574492970151
590 0 20.345480373725 9.43229246148161
591 0 188.515497904941 9.1336351376521
592 0 27.6635241223985 8.26454805778255
593 0 21.883793818241 10.870795639929
594 0 91.2735548726362 92.9830697506961
595 0 84.3924557455604 87.8224953000255
596 0 189.470123540015 15.2101219207467
597 0 8.11845058252361 21.8879346971707
598 0 120.447907397411 86.5589850919533
599 0 14.4587407462706 11.4980108014524
600 0 9.33748883617149 11.8903333020142
601 0 77.9918084282225 95.4173845316024
602 0 76.9441852177149 88.0244040470506
603 0 57.016648260016 7.37913182203398
604 0 10.5090650044872 9.76231544895779
605 0 91.9524625988338 9.64348145524645
606 0 157.831492941053 85.1601200388933
607 0 106.438622047851 89.0759176023431
608 0 14.3298834308162 14.4634025903413
609 0 171.469276155981 87.3190690906533
610 0 158.15089933405 81.5618931985519
611 0 131.54740540897 61.1508076647082
612 0 39.5499998973191 85.718270478285
613 0 165.541119874124 51.0951028155421
614 0 63.9791752898627 15.7846677725645
615 0 185.954559218428 64.6115869095297
616 0 145.950229067003 14.1866182419097
617 0 172.125691776491 83.4791696782269
618 0 50.2774537265272 15.4954838286441
619 0 164.162303720268 28.8876978406234
620 0 54.2032857294415 86.0330369359396
621 0 134.392566739585 14.0880291333535
622 0 31.2179705119833 19.2220159728457
623 0 120.742699203764 14.008149086887
624 0 185.673217178171 81.3475751840229
625 0 110.162206841072 14.8030021610925
626 0 64.1584496902188 86.4387960789419
627 0 179.945929780542 32.9862099848644
628 0 142.054626246123 71.3321507162937
629 0 115.362038380107 76.6694289284696
630 0 148.194689573216 80.5143892539123
631 0 17.6401905713776 25.6676921606034
632 0 94.6417236146639 89.2444313725057
633 0 104.806026692374 13.9025066536302
634 0 153.61980095954 43.3629959235622
635 0 100.21060916392 13.5974168231833
636 0 186.136006450312 37.9420022374905
637 0 91.9805532912 13.1718757819507
638 0 177.032373280483 9.86976418079766
639 0 188.495527337654 57.1799423995299
640 0 181.357685151056 87.0775247548845
641 0 132.015317432918 89.9325583435351
642 0 23.3757818173932 24.1959875068175
643 0 184.69809119931 41.7052378722729
644 0 14.0288364456249 34.0863680543828
645 0 13.9280764341367 41.2398637846416
646 0 190.247628815377 75.753627232055
647 0 127.951722499639 86.0951685252749
648 0 13.5937757405515 27.4796710893527
649 0 181.220533178355 13.7417480771515
650 0 98.7584156913354 89.2472118130445
651 0 134.17147354046 85.2637646905434
652 0 107.339698562437 85.8231743802402
653 0 14.2102802206372 60.3562707933195
654 0 14.0713049053753 50.4926900051105
655 0 80.9893428778653 82.1770587015449
656 0 69.7159897801803 9.47862221476638
657 0 164.814169933001 9.45326271828165
658 0 30.34796466483 14.0194719252753
659 0 149.682623555157 39.2396759218178
660 0 24.7309146626251 85.3945419785554
661 0 36.8673475173227 11.6654315900217
662 0 143.355136606413 86.2653262964706
663 0 14.5983208178087 75.2905998749596
664 0 14.4424317465198 70.3332015387946
665 0 185.728895254499 86.2159324888597
666 0 19.6044957001431 80.4089521402776
667 0 129.940829292426 13.8604395481991
668 0 155.083121153478 9.44469316432431
669 0 44.433265223558 85.8247211306983
670 0 73.7036748258224 87.0106785098002
671 0 14.7348288908188 80.2370282524317
672 0 34.6007800694455 85.6242133829051
673 0 125.277077414186 65.6202086644623
674 0 43.5848846334981 13.5057650391518
675 0 152.56422476575 33.1708487832239
676 0 184.723571925464 13.5400340804735
677 0 170.188482495427 28.738758418978
678 0 176.036430541533 47.0072413618688
679 0 182.758692559439 48.8236860027187
680 0 159.687829872897 31.5350785843194
681 0 57.195472848122 13.8971341354784
682 0 79.5835832700364 13.3879046087874
683 0 169.212452778238 48.7538979416498
684 0 178.932296969866 36.6658477200357
685 0 14.4801123002008 20.8759052694589
686 0 190.93617807909 34.5662389386608
687 0 24.2681839261734 10.1033200214299
688 0 164.765133568903 84.6211182993487
689 0 139.263823927077 76.0438718550201
690 0 118.046759508139 72.3177162387827
691 0 27.4549219480687 10.4825263745584
692 0 151.382446562034 82.0343288866806
693 0 187.837735064164 25.9271277818983
694 0 158.622038810698 52.0624238225808
695 0 138.611629911664 60.6149208137486
696 0 112.680410142428 84.5384499514183
697 0 117.39680533198 65.4111728862857
698 0 139.071460935359 84.1178495572801
699 0 185.721480502465 54.0660993598918
700 0 60.7802700745192 7.76843785755499
701 0 117.60063860549 88.5696512967532
702 0 177.776059750971 88.1672682859906
703 0 187.739152756415 11.9363881036642
704 0 87.2514818255634 86.5147384578303
705 0 182.16902347886 21.7601797330114
706 0 82.4121747252156 85.0832558316722
707 0 143.17045568008 66.2886884521881
708 0 88.1961326610284 13.2092396760229
709 0 103.155294646823 88.0709953369682
710 0 129.218290653912 63.5055774193823
711 0 124.031627630512 87.1210602621954
712 0 181.214133312629 40.8792434128889
713 0 173.343242322013 9.75089535477653
714 0 114.71403062532 81.471247843249
715 0 177.278509550343 27.6181784564948
716 0 161.446520060247 83.0985241684693
717 0 161.793370150937 79.4355516226143
718 0 80.9695196908206 20.5002579109554
719 0 18.8412009118961 60.6988450205106
720 0 97.6061216301648 86.3534976702518
721 0 39.0558709303548 81.1248561005341
722 0 18.6966771146113 50.7751750467077
723 0 160.142752024384 27.9543573090331
724 0 168.806384087958 52.3319028483468
725 0 40.1603925302256 15.9713399413305
726 0 173.383641046873 12.5249612605297
727 0 159.71408338016 14.0453914147063
728 0 24.4514328911275 80.6079365605069
729 0 134.11700745755 18.2662050251335
730 0 150.246089997424 42.6130866625219
731 0 185.588557460255 76.4910150046211
732 0 151.715877684671 78.5917454379759
733 0 185.369815310968 68.4265854665876
734 0 183.391408138298 57.2653063056986
735 0 142.104382899386 14.7096276313279
736 0 16.4693522878605 28.2869440767729
737 0 142.444184200937 75.0446837610567
738 0 103.480405894478 85.1819351806811
739 0 114.92524550952 73.2106708239869
740 0 25.5986995214988 25.8454586663392
741 0 20.8927895035611 26.1496186071784
742 0 111.660459354781 81.2856486768447
743 0 59.1734012943176 86.1526584223272
744 0 187.224678557978 34.255444605314
745 0 115.807207829501 14.3342109237478
746 0 181.880888088122 17.6732450383366
747 0 176.011655688389 84.5582739447468
748 0 104.538643287004 17.9736829526695
749 0 84.2284887288273 13.3014554811443
750 0 84.4814990562669 81.3280912252974
751 0 68.8858414456652 86.9121114948589
752 0 125.408301846985 13.8290536011274
753 0 19.1555998106159 70.6367672010853
754 0 182.185823201138 52.177174724874
755 0 31.4025922333556 16.7920560001736
756 0 146.280884780052 38.3699127404544
757 0 95.9136838280433 13.3411101295234
758 0 176.681378748091 13.9212547019398
759 0 19.3719004492318 75.5469430978063
760 0 49.2955325446291 85.9349007485458
761 0 145.082687734088 79.1431067343346
762 0 29.6502905628678 85.5194862526159
763 0 33.4098555365869 13.8356675937961
764 0 46.9241342967671 14.5006103757989
765 0 18.1036568119595 41.5283030186818
766 0 154.963807624878 14.0098582371524
767 0 182.484072607406 37.1632475664025
768 0 139.608020692282 87.7316769573063
769 0 14.1392013857672 55.4234471627193
770 0 144.766237981389 68.8014283253705
771 0 146.139885839692 64.4025695440534
772 0 13.4909244587439 30.8799804055669
773 0 121.886717371959 64.2148526238977
774 0 128.586566998513 59.5662967657725
775 0 150.379664077098 13.9971363317068
776 0 67.3711273062161 16.7273902722372
777 0 135.557785963713 59.60811570347
778 0 149.157523586635 32.2082717239227
779 0 167.122829610312 25.7343905823816
780 0 60.5863083605471 14.8414813959799
781 0 53.648703819195 16.4632887496582
782 0 161.622464602069 53.1719703799214
783 0 156.16980181724 30.4882200795224
784 0 172.503127652866 49.786215786822
785 0 174.393415218338 25.0657197701412
786 0 153.956642882219 46.4238937600156
787 0 168.608133079426 82.2656223827744
788 0 179.35548277449 47.8725192578001
789 0 154.901196716418 80.0511873389761
790 0 10.8443995962595 23.3856071329672
791 0 72.3760364981482 83.5849443141393
792 0 182.527756893793 29.6978691326707
793 0 131.471730326806 87.2540298297741
794 0 186.038323979921 60.2854977295961
795 0 75.1639059654295 12.5469724778971
796 0 177.815135423037 25.221596387397
797 0 30.947215520333 21.7230167194579
798 0 169.872882324426 14.4535250111435
799 0 110.076993936786 83.0080031418132
800 0 91.4543169737828 86.1147603362212
801 0 100.791856776211 87.4122070415951
802 0 114.0913361375 63.7447803887017
803 0 85.462678716035 84.0178732748586
804 0 76.8832045655588 79.4291714882459
805 0 138.265056317711 14.6745901146824
806 0 142.230322404915 78.072903528067
807 0 115.082175397214 70.4087329589578
808 0 180.520495686699 81.9705603836114
809 0 14.2233718235962 37.5532461671007
810 0 184.358423786384 27.3580154772005
811 0 155.81083216708 53.8106009399255
812 0 91.7803509740863 16.6039270909696
813 0 113.679118025279 78.9587826222333
814 0 14.0164500612999 24.2558619180277
815 0 141.419110621197 58.6248335576266
816 0 125.467388608027 62.1785117798345
817 0 165.17635586942 80.8914595700582
818 0 125.458722049464 58.622928469248
819 0 91.1795942490457 23.3321404536969
820 0 165.580930681638 77.1636416371526
821 0 63.8072813959006 19.3058571720118
822 0 146.83165840713 41.8464406512208
823 0 182.003534590896 64.3444078048772
824 0 50.1235760184862 18.9863480972584
825 0 110.872006761637 78.8549900737615
826 0 143.346719954553 56.4102988945245
827 0 53.6116726409436 81.4800829713668
828 0 146.357255799842 18.4985142970723
829 0 147.27532815012 67.6715354429982
830 0 181.15497235145 76.7380825625984
831 0 172.143496148737 53.5302115308179
832 0 149.970521902376 51.9986401107567
833 0 156.622121213119 26.8424551837789
834 0 33.1490429964725 21.979932779858
835 0 121.520657939522 18.3932792287237
836 0 64.379658017139 81.2509536918085
837 0 174.698934174594 21.7509895560452
838 0 43.9063290228208 81.2803969720121
839 0 29.2943642800553 80.7994537630467
840 0 159.453018191252 19.0062170753756
841 0 129.946488313361 18.1014421439246
842 0 150.492612947137 18.2615899496529
843 0 33.6655262619341 16.540495445702
844 0 111.86850783822 19.5328135999512
845 0 179.800526427376 55.3408618828532
846 0 155.20590930935 76.537516791908
847 0 138.187792790286 18.4717904220574
848 0 154.04325679042 55.5217716071294
849 0 145.462934278696 75.8866340260454
850 0 150.655137490068 45.9677826913254
851 0 176.253700737011 80.1266862739313
852 0 68.9667132844637 83.2752602703794
853 0 18.7587428290227 55.7605559755052
854 0 34.1571798666396 80.9737055892548
855 0 173.842339386597 17.7798563613257
856 0 178.135281648511 18.0919229090342
857 0 87.4458771430256 80.4712745914816
858 0 23.8300802614949 71.0131193879214
859 0 18.9718268508389 65.6879640108757
860 0 179.005338177685 51.1723570337478
861 0 24.1295546697435 75.8259110286304
862 0 142.860673405707 37.4762022967164
863 0 100.002224256539 18.2360236167313
864 0 18.4804610911195 45.9630081752469
865 0 112.169783721016 69.4071773704155
866 0 23.3407626595517 26.5203617994523
867 0 43.4612236327403 16.9129940964057
868 0 146.080614123528 72.3370447457722
869 0 164.498927078847 14.0426469816074
870 0 80.0952375411585 78.8900268456795
871 0 75.464097701609 76.0315399176809
872 0 84.3761870576706 21.4440495744382
873 0 70.7639401639829 17.6702830937191
874 0 77.5624750525452 19.556800384968
875 0 132.255272486286 58.0629331450509
876 0 163.67191661689 25.2766418393159
877 0 164.929137049581 54.5419820037328
878 0 118.528217662351 62.6410717067313
879 0 36.508817341461 15.3475968375364
880 0 145.719369332348 31.2610295313393
881 0 172.677005012036 79.5040587938623
882 0 57.0294981361929 17.4161913232222
883 0 139.246694137875 57.6047984633184
884 0 171.002192974621 24.9419643643756
885 0 157.860036837622 55.0409872058437
886 0 95.5401266970057 17.181329690154
887 0 106.299425578357 83.2297008943763
888 0 187.168865913248 30.0408508939628
889 0 152.699828849471 29.5634480708259
890 0 158.466822291341 77.9563377309713
891 0 150.613947992767 49.2031588149897
892 0 182.220360587618 60.6789971676162
893 0 185.214958002528 72.3663601449628
894 0 178.137309217385 21.7002655069762
895 0 148.613241159864 77.2112433418225
896 0 94.4984485081912 85.3625042882564
897 0 148.115429231448 61.4093715276709
898 0 99.8278180668866 84.8748962043194
899 0 107.996228762239 18.5426954708329
900 0 89.4815279503689 83.5871254845004
901 0 175.879304019398 50.6830013141614
902 0 17.7890271776469 37.6350485143858
903 0 111.009276658794 62.3152884448156
904 0 136.263865102602 89.4412902329784
905 0 111.55997908318 75.6119472656473
906 0 122.365910040375 61.2821351245016
907 0 16.783168648512 30.9971231116314
908 0 70.9543778636155 80.4665549036429
909 0 88.4026900738034 16.3246070656012
910 0 183.394790605611 32.7913058325133
911 0 18.7628120727446 28.5162109823443
912 0 107.52993961572 81.0032502778381
913 0 121.466633992436 57.4873369362981
914 0 80.8085347770866 24.0201845575385
915 0 79.4274961846162 75.4452772940115
916 0 23.3910271737238 51.3178330874832
917 0 43.2713158882689 76.8066263438995
918 0 156.299681374273 57.9295830181829
919 0 140.203019924028 54.7358533970027
920 0 106.948842850764 76.8820718324366
921 0 21.5775245854696 37.6034671365394
922 0 143.382186707591 41.0128372573585
923 0 26.3289728112311 28.1795126500285
924 0 173.167191444171 75.5890620188225
925 0 138.1962436431 22.5347554519708
926 0 40.046220471486 19.2114817889773
927 0 147.075941304191 23.3862022109902
928 0 181.398162920081 72.4101847515198
929 0 97.9718860032873 25.2196062080597
930 0 158.819432071469 74.3430405834832
931 0 147.111625158501 45.290888371835
932 0 167.724288568089 18.6748443237497
933 0 149.226549112668 70.5506936923097
934 0 152.664624514723 25.5870084728028
935 0 116.735540980062 19.4373042273716
936 0 33.6598237629103 76.3618712085945
937 0 160.78475340398 24.6906225244232
938 0 48.7254467019512 81.4139488806242
939 0 164.189463299303 18.013243388447
940 0 23.5949237076375 66.1339071046626
941 0 58.6392443858059 81.4945842932572
942 0 19.356574729138 30.7727830354081
943 0 90.3971821582491 80.1328741995365
944 0 96.6216712266567 81.8122639850578
945 0 152.07562834605 75.2440544664473
946 0 154.689949438216 18.3209739904532
947 0 28.5017421405996 71.3946723132899
948 0 166.934566290892 22.1373856974208
949 0 160.872317955301 56.620133083185
950 0 23.4389701959223 61.2179103574401
951 0 33.2082572695802 24.021980610084
952 0 34.1803047810047 19.3428514168608
953 0 139.431267207761 36.5539328573072
954 0 134.066101315316 22.4598061963017
955 0 125.747907598547 18.0619619877102
956 0 181.656038047522 68.328511532064
957 0 21.7786847747117 41.3026746423502
958 0 67.7226514458098 77.922641233495
959 0 37.2486120412127 18.6190033353653
960 0 178.780957190022 59.7623052205872
961 0 168.190770771607 55.8548160778389
962 0 67.1992249241218 20.2482528885357
963 0 128.99373749895 56.5071441177478
964 0 136.166466216819 56.157283507206
965 0 60.4166940279956 18.3623881667036
966 0 175.645978005511 54.5679308881953
967 0 46.7753581653655 17.9510351560087
968 0 83.6048348808265 78.1669792025071
969 0 142.222718017303 30.4384268331143
970 0 115.301342698331 61.0413584441753
971 0 94.5763050060896 24.2760257656042
972 0 53.4895098803205 19.9721309585679
973 0 28.8910389211261 76.0989599190036
974 0 103.563960382885 81.9754119752319
975 0 74.1611863258316 18.6135108641079
976 0 87.7788111781292 22.3881344603308
977 0 142.264282615179 18.6126589833621
978 0 162.179098222742 75.7653771337364
979 0 107.61353250411 21.2238728272558
980 0 21.1337880542138 29.0749439901657
981 0 150.802925379771 58.1485975349273
982 0 170.758985742554 21.2116974410036
983 0 169.086636404286 78.4226042956095
984 0 146.577654879557 55.0585814234554
985 0 149.381852129838 28.6550124580768
986 0 149.420914056896 65.68704950919
987 0 177.01351308212 76.2778289532213
988 0 149.20969292877 74.2465577612147
989 0 111.887870097217 72.5553221129996
990 0 72.5623695912141 73.4789545996499
991 0 104.852592742125 21.1021316955281
992 0 92.5447249122242 83.0368120553087
993 0 108.896764087043 68.1239500523772
994 0 17.3451668529454 34.1205709565784
995 0 147.005228672658 48.6743910763456
996 0 119.342907158073 59.9597624977637
997 0 108.805725622159 61.3572534112846
998 0 109.078598730275 74.887527162877
999 0 108.16454588544 28.0477528421987
1000 0 117.654352085267 55.3112997832321
1001 0 91.033235978467 26.8533878468842
1002 0 82.9855069408414 74.835379297446
1003 0 33.189061307829 71.753232153642
1004 0 63.6402888612673 22.8286510620736
1005 0 137.123057914914 52.497843657426
1006 0 162.665487338343 72.1823908586334
1007 0 139.926426039313 40.1055686838634
1008 0 159.562297268323 60.6086865895317
1009 0 105.650571747618 66.6271173765439
1010 0 49.9207578833919 22.4956155404261
1011 0 25.5429386620325 37.7849376767366
1012 0 58.0002104960813 76.635086045021
1013 0 143.614165700204 44.5195491573946
1014 0 48.0282196029357 76.9741530888447
1015 0 105.134510050986 73.5865497658451
1016 0 129.929424016148 22.2379267552718
1017 0 152.532730202326 72.1079939671959
1018 0 122.50634920151 21.9851305644947
1019 0 35.256756022082 24.0961989531143
1020 0 138.434317972023 26.4774149127702
1021 0 28.0080000516821 61.8462740130383
1022 0 175.020854858499 58.6121346564371
1023 0 173.61115411368 71.7019630504269
1024 0 178.120241351831 63.8843307490422
1025 0 28.9388847191885 27.588841860786
1026 0 23.5798829108947 45.911699463816
1027 0 145.988454139872 27.597022626022
1028 0 28.20918490634 66.636823791605
1029 0 38.4663744200179 76.5942495995465
1030 0 132.833738420989 54.6677953049659
1031 0 142.722368238589 51.8873118382227
1032 0 103.271560039822 77.9028747178887
1033 0 177.743533469911 68.0352019032344
1034 0 23.3757129307709 56.3077109765061
1035 0 157.685473380094 23.2420971585781
1036 0 22.9179336598569 31.2501721185765
1037 0 37.3905664623414 20.8680368240025
1038 0 135.99844230368 35.6095912558324
1039 0 77.3955378495198 23.0768628094212
1040 0 75.5578312309119 72.3931421493736
1041 0 70.9173474136462 70.8241986679198
1042 0 152.261231457467 68.1022540301564
1043 0 153.96285206988 61.0722961192151
1044 0 142.355105649883 22.7736201162354
1045 0 43.1858868338236 20.2479152517615
1046 0 164.160541450231 57.9373174464849
1047 0 125.615161455129 55.0971904399941
1048 0 101.367341534947 26.1627693187162
1049 0 56.865287929057 20.9325286649453
1050 0 100.209823272986 81.2800897759271
1051 0 94.4329332820768 27.7974020828512
1052 0 112.13849949043 59.6362133058151
1053 0 86.9228207770074 77.5643494544835
1054 0 65.3698485846556 75.5523025400756
1055 0 110.063744020393 22.0235809003183
1056 0 70.5923651216841 21.1908560622063
1057 0 84.2213883443255 24.964445811298
1058 0 138.786582821663 29.9366864861775
1059 0 150.828920933616 21.932703431631
1060 0 24.022253805301 29.0259949885815
1061 0 155.560678649549 73.0332608580405
1062 0 108.247408442459 71.9194946814908
1063 0 93.1942087184245 80.7168600957726
1064 0 163.243874636271 21.9952240417194
1065 0 169.552157452128 74.6325368960559
1066 0 177.443695236498 72.1336968468732
1067 0 112.595633041257 22.8320207459298
1068 0 171.472438662676 57.22102743925
1069 0 21.0329534073769 33.5897094272245
1070 0 35.7373726295081 21.9089687603272
1071 0 149.720165017083 26.024986578437
1072 0 143.440821819662 47.9917882190536
1073 0 116.472267858902 58.2726665970173
1074 0 105.696146320225 59.9090536858851
1075 0 150.849809690004 63.2663536590541
1076 0 146.689588335483 52.0032787446878
1077 0 113.205238213317 56.7264323563843
1078 0 90.8822271925593 30.371970603932
1079 0 80.651430280966 27.5430298247076
1080 0 74.3876379909142 69.0017905046293
1081 0 86.4710474226658 74.3234298522422
1082 0 136.476379216745 39.1430548673673
1083 0 28.5061002812098 47.6364966037812
1084 0 47.2837367642412 72.585580965381
1085 0 133.295016494198 51.2799076030677
1086 0 163.438931479213 61.0733089142199
1087 0 37.8882751452385 72.093086542271
1088 0 101.589599580316 74.1271512218098
1089 0 27.9860209897752 57.0452428922121
1090 0 173.744958317393 63.0688200970856
1091 0 156.073788960604 69.4305129650223
1092 0 140.148485301842 43.6022028601407
1093 0 170.034860381092 70.9764162560719
1094 0 37.3046932026546 23.8009072506671
1095 0 52.8189982951834 76.9755049952604
1096 0 31.1954582757287 30.2416214768456
1097 0 26.3032926574342 30.5667890722253
1098 0 25.6186722483113 41.7501690644352
1099 0 32.5418180955816 62.5494933768168
1100 0 173.841557319222 67.7012155233674
1101 0 134.116859501244 27.2702277869037
1102 0 139.999008900105 46.9735562092972
1103 0 115.429429532776 23.3707020741033
1104 0 125.99682980631 21.9992312210666
1105 0 62.4397112723683 77.108339968978
1106 0 104.430653065681 69.9440845071592
1107 0 142.296058843635 26.7850184280995
1108 0 32.8080701404889 67.1431040999956
1109 0 132.561297307584 34.6613368449349
1110 0 78.8631965344757 71.9326519337952
1111 0 87.6285180131276 25.908860998899
1112 0 167.365285394003 59.1880865004874
1113 0 73.9911517866596 22.1339029325657
1114 0 96.7346239334572 78.799265973256
1115 0 129.440499829802 53.158005499965
1116 0 111.58906552546 29.0029576812931
1117 0 122.069709900209 53.6472463490036
1118 0 97.8318013191783 28.740196994143
1119 0 60.2500860526042 21.8827202751406
1120 0 46.4996741726632 21.407401130605
1121 0 156.82470980097 62.3509129316056
1122 0 53.3165928598044 23.4818535398212
1123 0 104.764042826675 27.1038147860789
1124 0 108.614353807688 58.6662421967262
1125 0 159.407363538729 70.825136148003
1126 0 67.035607366438 23.7718388940689
1127 0 35.4993158450309 25.5228599162972
1128 0 39.3426796635975 22.4008155622981
1129 0 63.6777075326818 71.8968322243611
1130 0 139.399623278104 49.9600688072494
1131 0 114.268300964517 53.6992419503482
1132 0 90.1742307097913 77.2011017344004
1133 0 99.3431482684104 77.6573380999539
1134 0 153.663724149128 64.8052587374702
1135 0 136.229848764279 29.8927345753162
1136 0 42.5860516047609 72.384043141065
1137 0 166.077945094359 73.4686412395355
1138 0 69.4352744838425 68.2212874019846
1139 0 170.37620661469 60.3830902658103
1140 0 101.764715809823 57.8056833847333
1141 0 27.4398680362274 25.8890411515746
1142 0 154.346305161891 22.0220838232784
1143 0 25.2538996595824 33.5489355484752
1144 0 28.5625254816525 30.8906192550474
1145 0 107.991961271177 31.519698598238
1146 0 109.888393265611 55.2797891248345
1147 0 89.6351948484568 74.1800748771883
1148 0 129.932640313469 49.8102142754764
1149 0 78.3834038794967 68.3871305170191
1150 0 63.4761187256481 26.3541321688692
1151 0 46.5315007191788 68.2168437853128
1152 0 133.032649776733 38.1823576515377
1153 0 101.308660855175 70.7223306930889
1154 0 136.734911989811 42.5901260154266
1155 0 49.636206167898 26.0686985182165
1156 0 30.0758722748051 43.2661719438526
1157 0 51.9044160890968 72.639384124486
1158 0 100.34564756221 64.0361439921537
1159 0 87.4766233289801 29.4299626618261
1160 0 163.321776891614 68.7182120676961
1161 0 169.408441054972 64.0292563674915
1162 0 28.0931562791063 52.2411253914419
1163 0 41.9487784823038 68.0112061945857
1164 0 40.6546485839419 26.2424741553292
1165 0 28.9096816737179 33.9047112465889
1166 0 136.71496919014 45.8543903548119
1167 0 37.0116811901413 63.2280992679406
1168 0 160.468305993838 64.475962618871
1169 0 129.558666856952 26.2954620935963
1170 0 37.3997059314411 67.6213724829623
1171 0 71.7977679182027 66.4421166413161
1172 0 67.5971697848806 65.8530603557993
1173 0 82.454871636884 71.3596843262441
1174 0 70.4313811955912 24.7144884579393
1175 0 77.237456888734 26.6001676662782
1176 0 96.9887428490373 74.6976793932929
1177 0 129.109644717563 33.7235200496514
1178 0 126.016524747147 51.6304075890223
1179 0 115.063796386072 29.9683225536963
1180 0 56.6948433933409 24.4441065774903
1181 0 118.523209810516 52.0926455837478
1182 0 94.282130599281 31.3130814228007
1183 0 101.229001391181 29.6774999810173
1184 0 84.0665860698821 28.4869318340635
1185 0 105.17522318875 56.798919763931
1186 0 157.087569133388 65.5493238946173
1187 0 166.664050970344 69.9385317236244
1188 0 42.6312988201302 23.3033259712851
1189 0 170.466264838489 67.629546948487
1190 0 31.9232807897589 33.6635944726548
1191 0 37.9056828029686 26.3329326105357
1192 0 94.0566037787476 77.0215804013528
1193 0 122.641254308684 25.2659021468495
1194 0 136.424533430671 48.7504276192595
1195 0 110.984178322786 52.2416317915823
1196 0 98.779020423794 73.1887704523315
1197 0 166.4371857845 62.1555222343005
1198 0 59.9095348568792 73.3692830568082
1199 0 160.272360642867 67.7586485221413
1200 0 61.7320941760509 68.4178601226668
1201 0 62.6594261841742 74.1477573502946
1202 0 119.255182828545 23.686052161555
1203 0 99.5680668941482 56.5790757149244
1204 0 106.758632224854 53.7513983638397
1205 0 90.7083663536278 33.8764108065915
1206 0 80.5073597721782 31.0709617465459
1207 0 70.1486922821164 63.4540384447065
1208 0 129.565444006991 37.2684438095549
1209 0 81.9429260783662 67.8181987255336
1210 0 126.477997099278 48.1461749981426
1211 0 133.379577489822 41.6041907187522
1212 0 95.092304138469 72.1854310123317
1213 0 51.426671857791 68.0144453305817
1214 0 58.5423572678058 66.2667051220647
1215 0 32.8514334796284 36.5105196025962
1216 0 41.4309499456132 63.7639464483582
1217 0 33.0293348635039 53.2431246131969
1218 0 32.6004224783212 46.051272436829
1219 0 36.8883032036724 59.0251820478303
1220 0 43.6345396847596 27.809573309637
1221 0 74.7785491451538 65.2208469095409
1222 0 101.736739748775 67.8709939768619
1223 0 133.521391476904 48.0046550271892
1224 0 86.0377591481174 70.8526716799371
1225 0 66.8805880690172 27.3011938631603
1226 0 118.58804760523 30.9245598381265
1227 0 125.631536499511 32.7938812640042
1228 0 111.411718347203 32.5182039499572
1229 0 122.531996039719 50.1443973883351
1230 0 104.615694619751 30.5998440142922
1231 0 53.0743951392186 27.0229550450842
1232 0 115.125933775593 50.6054715755607
1233 0 97.6843930139384 32.2566854767226
1234 0 83.9203936696795 32.008914970585
1235 0 73.8319504526195 25.6575227163614
1236 0 60.0797319469985 25.3997164699052
1237 0 125.839881132674 25.6929646173747
1238 0 102.710672570032 55.0227841682209
1239 0 29.9008528301467 38.0702246414889
1240 0 164.13103555483 64.9085461359991
1241 0 45.7849223336871 25.1901418421451
1242 0 102.858307610293 65.45345707261
1243 0 167.363391087907 66.8071072318109
1244 0 92.6232584384057 73.4368779928352
1245 0 57.9507194498816 69.6553219495962
1246 0 107.934566725213 50.9567198143296
1247 0 56.1931786987282 72.2733564174462
1248 0 45.7784489176909 63.9753598555057
1249 0 65.2627026641292 63.4062690658285
1250 0 34.5397859203637 33.6891445417514
1251 0 97.992387432303 70.2525978109375
1252 0 96.8137406800306 54.5696562576673
1253 0 60.7853447832685 70.7578046194669
1254 0 103.770474121365 51.9022879180201
1255 0 104.461183236037 34.0351041313963
1256 0 122.885105282737 46.6309076105724
1257 0 80.3635590643471 34.5846136613003
1258 0 85.4522874079411 67.2747100058317
1259 0 74.0212518145081 61.6651089172531
1260 0 126.031771515025 36.381024234088
1261 0 63.281891039003 29.8852221109908
1262 0 93.1207795114006 59.6956298065148
1263 0 93.7606994209791 68.3248640693347
1264 0 130.015569358135 40.7931483108633
1265 0 34.1411698023788 42.5756689964885
1266 0 49.9417362565531 63.5130944741485
1267 0 73.6882565690051 29.1847859966909
1268 0 49.0165416506123 29.9407875706541
1269 0 90.0333240803299 70.472611329984
1270 0 41.0659404490689 59.738458186553
1271 0 32.5671704785395 58.0272989281391
1272 0 78.0078429585855 64.8035769656345
1273 0 77.0965800101129 30.1277623878048
1274 0 130.539330157272 46.9530384982057
1275 0 107.767151295896 34.8701077374323
1276 0 115.000016101205 33.6028939768639
1277 0 101.087797421618 33.1726666649279
1278 0 119.086389098312 48.7693628978194
1279 0 98.9736137945776 66.6806886174674
1280 0 87.3182127719798 32.9406541843456
1281 0 122.124720379465 31.8666392167117
1282 0 111.842259672344 49.2273803907352
1283 0 94.0752644346009 34.798436645695
1284 0 54.8870127708744 66.2181022733751
1285 0 56.4862515446377 27.9449834303992
1286 0 70.2873296084695 28.2434087839817
1287 0 100.07048143344 53.7168459454221
1288 0 35.5444587427621 36.4285546779304
1289 0 57.3384784237329 63.08741055314
1290 0 46.0903957495165 30.748343636839
1291 0 55.12117963257 69.1753613686704
1292 0 40.2291478201834 33.9010050269341
1293 0 33.592261413597 39.5433933247851
1294 0 133.534424211355 44.8434487104459
1295 0 105.802722619467 50.1039906691183
1296 0 67.8121815630267 61.8979713633772
1297 0 61.3093157535763 60.0363914372537
1298 0 32.341368341711 48.689459262134
1299 0 46.1883526585612 28.4592610239402
1300 0 93.3559972487503 52.8464365726959
1301 0 99.3127194426997 50.0162596716794
1302 0 90.4236545531464 37.3239489081355
1303 0 100.927818430052 36.7381814925103
1304 0 119.387989044204 45.4577430620406
1305 0 70.1404074800919 31.7705806133473
1306 0 77.7225282352505 61.3062726972814
1307 0 36.0193249450218 49.0415775920155
1308 0 89.7618417439661 58.6827497850208
1309 0 122.418405375641 35.4848257240477
1310 0 91.3628783117172 65.9917792762602
1311 0 45.1467638661073 60.0032240799131
1312 0 126.479801435077 40.0688295026777
1313 0 76.9554638660547 33.6475500694477
1314 0 40.7688590364711 56.0012694741664
1315 0 127.142750479265 44.3162444669452
1316 0 45.2575264061496 36.332698512295
1317 0 118.721623873744 34.5928097997676
1318 0 81.4403094697217 64.270982285319
1319 0 54.2623159651319 62.0550794072695
1320 0 96.1982061316786 51.5446376794165
1321 0 110.926969196243 35.6390491450873
1322 0 104.368999766563 37.4300633115068
1323 0 59.8709394384194 28.9061945652792
1324 0 97.4531547187952 35.7751036506522
1325 0 83.7592927056781 35.4997805891553
1326 0 115.770975327494 47.5027586249424
1327 0 108.628617475248 48.1179873939242
1328 0 64.4564576543074 59.5006407824998
1329 0 59.9015164132249 56.5969580805405
1330 0 52.8100962289583 30.5940676484447
1331 0 66.7066763278007 30.8390751793284
1332 0 102.48881560082 48.6431429879256
1333 0 71.1061106378987 60.2028095605149
1334 0 98.3727997449777 62.3107710186572
1335 0 95.6830829576759 64.4468825605443
1336 0 35.1671501354779 45.8235077405583
1337 0 130.549053746857 43.956339407635
1338 0 88.8383756481722 66.6414369072392
1339 0 39.089748344271 39.4302457185066
1340 0 36.8642526636002 52.1839616521446
1341 0 36.4565807970384 39.4162354538331
1342 0 42.3116558015175 34.9381698229097
1343 0 89.1300595866469 51.1486445515418
1344 0 95.3566869875647 48.3379152544768
1345 0 80.1410476721629 37.9994245763299
1346 0 63.8515366498266 55.8929843843168
1347 0 96.9137665948688 39.041881045663
1348 0 80.9377727580463 60.7746444517636
1349 0 66.444577633463 34.398704706944
1350 0 116.310782843679 44.6822469407923
1351 0 59.5783321992386 32.3926279338963
1352 0 122.755779971392 39.2155156016346
1353 0 44.6563888761749 56.265586206268
1354 0 48.8039005197465 59.9262398572532
1355 0 122.970565929891 42.9964312602092
1356 0 40.4592454844931 42.1678061149808
1357 0 87.9575144348473 63.2256681618292
1358 0 114.720024985535 37.7552894334265
1359 0 107.445805738769 37.8161303030884
1360 0 100.546763572389 40.9682197876987
1361 0 56.2231026252019 31.3798540467916
1362 0 93.7090598307314 38.2948060738962
1363 0 105.547769142771 47.8739730772741
1364 0 112.684210089399 46.4765117809231
1365 0 87.1021600193175 36.3893244110682
1366 0 73.5494053176072 32.7034116340194
1367 0 48.1220608386753 37.4948046611968
1368 0 92.4084412318598 49.8990762719538
1369 0 51.9762304360848 58.4001213270718
1370 0 68.2248538258475 58.824904884533
1371 0 91.5253490954032 62.8605992856394
1372 0 39.7130473922875 49.0208427735278
1373 0 98.3356074214108 46.6151302811261
1374 0 74.762573420072 58.2053572279186
1375 0 84.7452209649007 63.7617403065325
1376 0 56.9967802176559 54.1570308167022
1377 0 52.8100459319949 33.7051212202646
1378 0 37.1639115284252 55.5424909993711
1379 0 37.4281763328146 42.4650084260131
1380 0 118.956694899492 38.3634312128761
1381 0 44.6338153186439 39.4131824679943
1382 0 85.8630844709092 49.8668934448049
1383 0 86.7814975493442 39.7625121921743
1384 0 55.4538016030118 51.6133844565265
1385 0 73.32516618953 36.1750952337294
1386 0 67.3559292790195 54.91596618976
1387 0 91.6216696427092 46.9118235298281
1388 0 87.0075614113585 60.0453534739826
1389 0 89.8136492976704 40.394956907352
1390 0 112.956722413374 42.984639000152
1391 0 104.595923795797 40.9617118808322
1392 0 92.958334385108 41.99986476676
1393 0 59.9351319840508 53.0694974777794
1394 0 83.3246566874361 56.1352915558024
1395 0 48.8129399971532 56.0780794622394
1396 0 119.28476249102 42.051272294576
1397 0 96.7127195054343 43.0695305208512
1398 0 109.108827308213 44.5017189944594
1399 0 76.7152232096052 37.109576268739
1400 0 115.985218263574 41.6168398672032
1401 0 83.4598671678072 38.8583039033868
1402 0 101.612337183443 45.2389210428772
1403 0 62.9655025233066 33.4387765813728
1404 0 69.8926782670676 35.2612293011841
1405 0 44.2079311092541 52.7422682804022
1406 0 71.8481579307946 56.9722797289033
1407 0 40.4164555726211 52.4761719576083
1408 0 110.836790271347 39.3291447781492
1409 0 47.6152393357545 41.3777982949371
1410 0 88.2276815623494 47.5180963572
1411 0 51.0273644640898 39.6121361982801
1412 0 77.4713294285995 57.9946804004492
1413 0 55.8870649818641 34.6417869548898
1414 0 94.0375448755587 45.5647552563273
1415 0 42.152282294986 45.2400349309836
1416 0 84.0621536063356 60.2648617881242
1417 0 38.6352163326831 45.6520920579634
1418 0 95.72111662565 60.8542134391061
1419 0 83.6187023331501 48.2205362730096
1420 0 58.6746371393263 50.3594459888538
1421 0 79.879974275389 40.97893070394
1422 0 70.5106642148958 53.8291639627101
1423 0 72.8557610046837 39.3569690581408
1424 0 86.1619944115427 43.02982502669
1425 0 65.9904507294689 38.0694715341852
1426 0 51.8991919658899 42.8677655521163
1427 0 63.170205146043 52.377254879197
1428 0 47.6631957425485 52.7283115719579
1429 0 54.6080393473162 41.0565593723251
1430 0 85.3390302823213 45.8830809198248
1431 0 59.1408837384356 35.8589249310596
1432 0 44.3112276392893 49.0096460995946
1433 0 74.5772877439763 55.2239092865546
1434 0 86.6718051804375 56.7686663930728
1435 0 49.6479478222833 44.4752840856884
1436 0 80.2190114556614 57.6542048864567
1437 0 107.865793182362 40.9176222326417
1438 0 54.2449190394946 48.9549686376664
1439 0 89.5843673684282 43.9475319195756
1440 0 79.1883074179646 47.2063053988076
1441 0 105.113088928987 44.6123144087538
1442 0 62.2112478588657 48.7234262972425
1443 0 62.1136026827754 44.5352227927219
1444 0 73.6788954700409 51.6170704629645
1445 0 55.9983595282991 44.471453856011
1446 0 76.9906535534422 55.0684098883517
1447 0 76.2479556661549 40.7259195236967
1448 0 62.4621107689132 37.094837494354
1449 0 66.4436005801379 51.6420832667712
1450 0 82.8383125187136 42.0075373723036
1451 0 57.2716152186073 47.5134712911118
1452 0 69.5521971993557 38.6527955877147
1453 0 59.5231210978531 43.250199981756
1454 0 81.678556837789 45.2828402969346
1455 0 52.5375760184672 45.9728627443962
1456 0 79.7313624785306 53.9527011317648
1457 0 76.9494222042308 51.9896939645747
1458 0 47.4644664199289 50.7045318711809
1459 0 76.6805768978817 45.2810024397342
1460 0 69.7997706483086 49.7833160724427
1461 0 66.269750075489 47.7310394140792
1462 0 72.3259801369026 41.5727742467665
1463 0 60.0799279478239 46.2569331021354
1464 0 78.6714824072007 43.4075140688522
1465 0 63.9666598287916 45.7348161726274
1466 0 74.0986709952321 43.2175486097066
1467 0 69.7147088207785 41.9280507536082
$EndNodes
$Elements
1528
1 2 2 1 1 184 185 170 
2 2 2 1 1 54 246 5 
3 2 2 1 1 887 974 912 
4 2 2 1 1 935 1202 1103 
5 2 2 1 1 837 982 855 
6 2 2 1 1 243 469 242 
7 2 2 1 1 183 184 171 
8 2 2 1 1 1036 1143 1069 
9 2 2 1 1 641 904 313 
10 2 2 1 1 747 851 808 
11 2 2 1 1 89 211 10 
12 2 2 1 1 17 178 2 
13 2 2 1 1 14 951 168 
14 2 2 1 1 275 863 274 
15 2 2 1 1 450 703 676 
16 2 2 1 1 744 910 888 
17 2 2 1 1 12 177 122 
18 2 2 1 1 297 576 364 
19 2 2 1 1 586 747 702 
20 2 2 1 1 1421 1464 1447 
21 2 2 1 1 284 656 283 
22 2 2 1 1 627 684 587 
23 2 2 1 1 226 771 707 
24 2 2 1 1 1449 1461 1460 
25 2 2 1 1 401 687 561 
26 2 2 1 1 758 856 855 
27 2 2 1 1 1012 1247 1198 
28 2 2 1 1 1043 1134 1075 
29 2 2 1 1 125 74 126 
30 2 2 1 1 662 768 698 
31 2 2 1 1 169 1141 740 
32 2 2 1 1 295 458 335 
33 2 2 1 1 845 860 754 
34 2 2 1 1 1096 1144 1025 
35 2 2 1 1 1364 1398 1390 
36 2 2 1 1 1395 1428 195 
37 2 2 1 1 583 698 651 
38 2 2 1 1 187 1096 186 
39 2 2 1 1 90 386 89 
40 2 2 1 1 844 1067 1055 
41 2 2 1 1 201 1172 1138 
42 2 2 1 1 332 370 123 
43 2 2 1 1 1340 1378 1217 
44 2 2 1 1 55 361 54 
45 2 2 1 1 658 755 501 
46 2 2 1 1 283 795 282 
47 2 2 1 1 631 911 736 
48 2 2 1 1 382 489 330 
49 2 2 1 1 932 982 948 
50 2 2 1 1 13 222 138 
51 2 2 1 1 923 1097 1060 
52 2 2 1 1 1410 1439 1387 
53 2 2 1 1 126 383 127 
54 2 2 1 1 1262 1371 1308 
55 2 2 1 1 1354 1395 1369 
56 2 2 1 1 13 221 139 
57 2 2 1 1 245 361 244 
58 2 2 1 1 638 713 310 
59 2 2 1 1 844 899 625 
60 2 2 1 1 336 477 76 
61 2 2 1 1 214 374 213 
62 2 2 1 1 248 369 247 
63 2 2 1 1 1215 1293 1239 
64 2 2 1 1 1443 1463 1453 
65 2 2 1 1 740 866 642 
66 2 2 1 1 330 597 427 
67 2 2 1 1 1015 1106 1062 
68 2 2 1 1 369 491 422 
69 2 2 1 1 423 701 598 
70 2 2 1 1 1388 1434 1308 
71 2 2 1 1 1238 1287 1254 
72 2 2 1 1 274 991 273 
73 2 2 1 1 939 1064 840 
74 2 2 1 1 507 893 733 
75 2 2 1 1 1367 1411 1409 
76 2 2 1 1 1105 1201 1054 
77 2 2 1 1 1153 1222 1106 
78 2 2 1 1 414 580 220 
79 2 2 1 1 911 980 942 
80 2 2 1 1 763 879 843 
81 2 2 1 1 479 684 558 
82 2 2 1 1 524 711 598 
83 2 2 1 1 644 809 529 
84 2 2 1 1 371 464 88 
85 2 2 1 1 735 805 392 
86 2 2 1 1 957 1098 1026 
87 2 2 1 1 544 794 639 
88 2 2 1 1 412 479 379 
89 2 2 1 1 508 904 768 
90 2 2 1 1 1315 1337 1274 
91 2 2 1 1 125 381 124 
92 2 2 1 1 933 1042 1017 
93 2 2 1 1 165 1290 164 
94 2 2 1 1 1284 1291 1213 
95 2 2 1 1 852 908 791 
96 2 2 1 1 432 605 523 
97 2 2 1 1 670 791 206 
98 2 2 1 1 980 1060 1036 
99 2 2 1 1 202 1129 201 
100 2 2 1 1 1193 1202 1018 
101 2 2 1 1 229 981 228 
102 2 2 1 1 146 1242 1158 
103 2 2 1 1 1005 1194 1130 
104 2 2 1 1 990 1040 871 
105 2 2 1 1 159 1453 160 
106 2 2 1 1 1147 1269 1244 
107 2 2 1 1 158 1465 1443 
108 2 2 1 1 1376 1393 1329 
109 2 2 1 1 1171 1221 1080 
110 2 2 1 1 1335 1418 1334 
111 2 2 1 1 1422 1460 1444 
112 2 2 1 1 1358 1408 1321 
113 2 2 1 1 1408 1437 1359 
114 2 2 1 1 232 694 231 
115 2 2 1 1 1442 1465 1461 
116 2 2 1 1 770 868 628 
117 2 2 1 1 198 1297 199 
118 2 2 1 1 205 804 206 
119 2 2 1 1 182 474 183 
120 2 2 1 1 1032 1133 1088 
121 2 2 1 1 1360 1397 1347 
122 2 2 1 1 944 1050 898 
123 2 2 1 1 213 468 214 
124 2 2 1 1 1168 1199 1186 
125 2 2 1 1 225 695 226 
126 2 2 1 1 228 984 229 
127 2 2 1 1 237 589 238 
128 2 2 1 1 1392 1439 1389 
129 2 2 1 1 771 986 829 
130 2 2 1 1 933 988 868 
131 2 2 1 1 919 1031 826 
132 2 2 1 1 1411 1429 1426 
133 2 2 1 1 1074 1185 1124 
134 2 2 1 1 1140 1238 1185 
135 2 2 1 1 140 690 141 
136 2 2 1 1 494 677 403 
137 2 2 1 1 1382 1410 1343 
138 2 2 1 1 619 876 779 
139 2 2 1 1 160 1429 161 
140 2 2 1 1 137 689 136 
141 2 2 1 1 1419 1454 1430 
142 2 2 1 1 235 255 15 
143 2 2 1 1 375 408 308 
144 2 2 1 1 141 582 140 
145 2 2 1 1 779 884 677 
146 2 2 1 1 241 810 240 
147 2 2 1 1 183 320 184 
148 2 2 1 1 1207 1333 1259 
149 2 2 1 1 1370 1406 1333 
150 2 2 1 1 190 1339 189 
151 2 2 1 1 15 373 234 
152 2 2 1 1 190 1381 191 
153 2 2 1 1 1070 1094 1019 
154 2 2 1 1 13 377 222 
155 2 2 1 1 234 256 15 
156 2 2 1 1 1406 1433 1374 
157 2 2 1 1 249 525 250 
158 2 2 1 1 1247 1291 1245 
159 2 2 1 1 693 888 810 
160 2 2 1 1 163 1377 162 
161 2 2 1 1 223 384 222 
162 2 2 1 1 739 807 690 
163 2 2 1 1 224 484 223 
164 2 2 1 1 737 806 689 
165 2 2 1 1 279 909 278 
166 2 2 1 1 952 1070 834 
167 2 2 1 1 339 601 466 
168 2 2 1 1 857 943 900 
169 2 2 1 1 803 900 704 
170 2 2 1 1 210 471 211 
171 2 2 1 1 199 1249 200 
172 2 2 1 1 1059 1142 934 
173 2 2 1 1 906 996 913 
174 2 2 1 1 232 579 233 
175 2 2 1 1 15 376 235 
176 2 2 1 1 183 385 182 
177 2 2 1 1 231 786 232 
178 2 2 1 1 229 832 230 
179 2 2 1 1 224 588 225 
180 2 2 1 1 194 1455 1438 
181 2 2 1 1 233 363 234 
182 2 2 1 1 215 535 216 
183 2 2 1 1 201 1200 200 
184 2 2 1 1 581 699 525 
185 2 2 1 1 212 308 213 
186 2 2 1 1 1397 1414 1392 
187 2 2 1 1 235 483 236 
188 2 2 1 1 710 774 611 
189 2 2 1 1 205 908 204 
190 2 2 1 1 1426 1455 1435 
191 2 2 1 1 1189 1243 1161 
192 2 2 1 1 248 472 249 
193 2 2 1 1 234 481 233 
194 2 2 1 1 794 892 734 
195 2 2 1 1 281 682 280 
196 2 2 1 1 522 790 597 
197 2 2 1 1 1241 1299 1220 
198 2 2 1 1 1090 1161 1139 
199 2 2 1 1 1390 1400 1350 
200 2 2 1 1 242 509 243 
201 2 2 1 1 188 1250 187 
202 2 2 1 1 937 1064 876 
203 2 2 1 1 1128 1188 1164 
204 2 2 1 1 1197 1240 1086 
205 2 2 1 1 596 703 404 
206 2 2 1 1 1436 1456 1394 
207 2 2 1 1 1290 1299 1268 
208 2 2 1 1 912 920 825 
209 2 2 1 1 180 590 181 
210 2 2 1 1 1212 1263 1251 
211 2 2 1 1 173 486 172 
212 2 2 1 1 146 1074 145 
213 2 2 1 1 147 1140 146 
214 2 2 1 1 979 1055 272 
215 2 2 1 1 149 1252 148 
216 2 2 1 1 150 1300 149 
217 2 2 1 1 151 1343 150 
218 2 2 1 1 154 1440 153 
219 2 2 1 1 335 401 365 
220 2 2 1 1 1446 1457 1456 
221 2 2 1 1 600 604 555 
222 2 2 1 1 124 8 73 
223 2 2 1 1 168 186 14 
224 2 2 1 1 169 185 14 
225 2 2 1 1 185 797 14 
226 2 2 1 1 293 21 292 
227 2 2 1 1 139 372 140 
228 2 2 1 1 166 187 167 
229 2 2 1 1 166 188 187 
230 2 2 1 1 170 185 169 
231 2 2 1 1 171 184 170 
232 2 2 1 1 184 418 185 
233 2 2 1 1 374 490 337 
234 2 2 1 1 342 402 387 
235 2 2 1 1 705 242 241 
236 2 2 1 1 241 240 705 
237 2 2 1 1 297 3 18 
238 2 2 1 1 18 296 297 
239 2 2 1 1 87 9 212 
240 2 2 1 1 212 213 87 
241 2 2 1 1 1467 156 157 
242 2 2 1 1 157 158 1467 
243 2 2 1 1 380 290 291 
244 2 2 1 1 291 292 380 
245 3 2 1 1 355 111 112 298
246 3 2 1 1 319 92 93 341
247 3 2 1 1 358 104 105 359
248 3 2 1 1 348 96 97 354
249 3 2 1 1 303 41 42 350
250 3 2 1 1 52 4 53 338
251 3 2 1 1 32 33 346 314
252 3 2 1 1 105 11 106 359
253 3 2 1 1 356 103 104 358
254 3 2 1 1 29 30 340 318
255 3 2 1 1 99 100 353 299
256 3 2 1 1 316 102 103 356
257 3 2 1 1 359 106 107 456
258 3 2 1 1 456 107 108 317
259 3 2 1 1 455 358 359 456
260 3 2 1 1 353 100 101 451
261 3 2 1 1 358 455 454 356
262 3 2 1 1 456 317 565 455
263 3 2 1 1 317 108 109 453
264 3 2 1 1 453 109 110 357
265 3 2 1 1 447 66 67 347
266 3 2 1 1 451 101 102 316
267 3 2 1 1 356 454 406 316
268 3 2 1 1 304 95 96 348
269 3 2 1 1 455 565 563 454
270 3 2 1 1 110 111 355 357
271 3 2 1 1 355 449 559 357
272 3 2 1 1 67 68 327 347
273 3 2 1 1 354 97 98 446
274 3 2 1 1 349 39 40 442
275 3 2 1 1 350 42 43 445
276 3 2 1 1 454 563 502 406
277 3 2 1 1 516 565 317 453
278 3 2 1 1 722 654 496 864
279 3 2 1 1 453 357 559 516
280 3 2 1 1 446 98 99 299
281 3 2 1 1 340 30 31 432
282 3 2 1 1 666 502 563 671
283 3 2 1 1 445 43 44 300
284 3 2 1 1 354 560 390 348
285 3 2 1 1 118 119 311 343
286 3 2 1 1 350 540 392 303
287 3 2 1 1 671 563 565 516
288 3 2 1 1 442 40 41 303
289 3 2 1 1 350 445 495 540
290 3 2 1 1 334 56 57 429
291 3 2 1 1 283 656 534 795
292 3 2 1 1 451 316 406 548
293 3 2 1 1 559 449 664 663
294 3 2 1 1 663 671 516 559
295 3 2 1 1 390 560 669 760
296 3 2 1 1 495 445 300 668
297 3 2 1 1 548 393 353 451
298 3 2 1 1 447 347 543 503
299 3 2 1 1 310 48 49 434
300 3 2 1 1 341 93 94 438
301 3 2 1 1 1272 1306 1348 1318
302 3 2 1 1 432 31 32 314
303 3 2 1 1 762 393 548 660
304 3 2 1 1 1221 1259 1306 1272
305 3 2 1 1 348 390 539 304
306 3 2 1 1 344 79 80 431
307 3 2 1 1 328 51 52 338
308 3 2 1 1 500 664 449 388
309 3 2 1 1 309 35 36 345
310 3 2 1 1 351 115 116 301
311 3 2 1 1 307 65 66 447
312 3 2 1 1 1318 1348 1416 1375
313 3 2 1 1 393 550 299 353
314 3 2 1 1 306 38 39 349
315 3 2 1 1 954 1016 841 729
316 3 2 1 1 70 360 69 7
317 3 2 1 1 433 82 83 326
318 3 2 1 1 69 360 327 68
319 3 2 1 1 1028 1108 1003 947
320 3 2 1 1 346 551 398 314
321 3 2 1 1 496 654 444 389
322 3 2 1 1 635 757 398 551
323 3 2 1 1 301 116 117 441
324 3 2 1 1 545 438 304 539
325 3 2 1 1 753 759 663 664
326 3 2 1 1 446 299 550 549
327 3 2 1 1 426 26 27 325
328 3 2 1 1 672 550 393 762
329 3 2 1 1 798 869 657 499
330 3 2 1 1 305 46 47 440
331 3 2 1 1 324 78 79 344
332 3 2 1 1 341 553 400 319
333 3 2 1 1 313 81 82 433
334 3 2 1 1 672 854 721 612
335 3 2 1 1 503 646 307 447
336 3 2 1 1 660 548 406 502
337 3 2 1 1 440 47 48 310
338 3 2 1 1 1020 1101 954 925
339 3 2 1 1 660 728 839 762
340 3 2 1 1 828 616 775 842
341 3 2 1 1 439 37 38 306
342 3 2 1 1 345 36 37 439
343 3 2 1 1 1110 1149 1209 1173
344 3 2 1 1 349 533 394 306
345 3 2 1 1 286 700 556 285
346 3 2 1 1 1108 1099 1167 1170
347 3 2 1 1 759 666 671 663
348 3 2 1 1 438 94 95 304
349 3 2 1 1 838 917 1014 938
350 3 2 1 1 323 50 51 328
351 3 2 1 1 229 984 1076 832
352 3 2 1 1 342 62 63 315
353 3 2 1 1 1173 1209 1258 1224
354 3 2 1 1 325 27 28 430
355 3 2 1 1 667 841 955 752
356 3 2 1 1 388 449 355 298
357 3 2 1 1 425 77 78 324
358 3 2 1 1 549 560 354 446
359 3 2 1 1 543 347 327 419
360 3 2 1 1 410 521 318 340
361 3 2 1 1 413 326 331 423
362 3 2 1 1 954 1101 1169 1016
363 3 2 1 1 397 542 309 345
364 3 2 1 1 441 117 118 343
365 3 2 1 1 326 83 84 331
366 3 2 1 1 1370 1328 1346 1386
367 3 2 1 1 1107 1044 927 1027
368 3 2 1 1 1406 1370 1386 1422
369 3 2 1 1 919 883 964 1005
370 3 2 1 1 954 729 847 925
371 3 2 1 1 525 699 754 679
372 3 2 1 1 1270 1314 1353 1311
373 3 2 1 1 854 672 762 839
374 3 2 1 1 429 57 58 321
375 3 2 1 1 1040 1080 1149 1110
376 3 2 1 1 336 76 77 425
377 3 2 1 1 1393 1420 1442 1427
378 3 2 1 1 950 719 853 1034
379 3 2 1 1 664 500 859 753
380 3 2 1 1 841 1016 1104 955
381 3 2 1 1 620 539 390 760
382 3 2 1 1 1350 1326 1364 1390
383 3 2 1 1 796 894 705 240
384 3 2 1 1 315 63 64 435
385 3 2 1 1 352 114 115 351
386 3 2 1 1 1304 1278 1326 1350
387 3 2 1 1 957 1026 864 765
388 3 2 1 1 1407 1372 1432 1405
389 3 2 1 1 960 1024 1090 1022
390 3 2 1 1 925 1044 1107 1020
391 3 2 1 1 1032 1088 1015 920
392 3 2 1 1 396 529 343 311
393 3 2 1 1 496 645 765 864
394 3 2 1 1 441 343 529 510
395 3 2 1 1 861 728 666 759
396 3 2 1 1 669 560 549 612
397 3 2 1 1 346 33 34 436
398 3 2 1 1 351 301 389 444
399 3 2 1 1 123 1 16 332
400 3 2 1 1 544 395 615 794
401 3 2 1 1 973 947 1003 936
402 3 2 1 1 1256 1229 1278 1304
403 3 2 1 1 886 863 275 276
404 3 2 1 1 499 657 305 440
405 3 2 1 1 966 845 960 1022
406 3 2 1 1 1053 1081 1147 1132
407 3 2 1 1 251 679 788 252
408 3 2 1 1 847 729 621 805
409 3 2 1 1 968 1002 1081 1053
410 3 2 1 1 321 58 59 422
411 3 2 1 1 667 752 394 533
412 3 2 1 1 430 28 29 318
413 3 2 1 1 435 64 65 307
414 3 2 1 1 250 525 679 251
415 3 2 1 1 914 1079 1175 1039
416 3 2 1 1 618 824 967 764
417 3 2 1 1 269 1202 1193 268
418 3 2 1 1 281 874 975 282
419 3 2 1 1 550 672 612 549
420 3 2 1 1 282 975 873 283
421 3 2 1 1 1351 1431 1413 1361
422 3 2 1 1 431 80 81 313
423 3 2 1 1 824 1010 1120 967
424 3 2 1 1 755 843 952 622
425 3 2 1 1 436 309 542 541
426 3 2 1 1 1039 1175 1235 1113
427 3 2 1 1 1119 1236 1180 1049
428 3 2 1 1 958 836 1105 1054
429 3 2 1 1 1078 1205 1280 1159
430 3 2 1 1 821 1004 1119 965
431 3 2 1 1 1257 1206 1234 1325
432 3 2 1 1 1279 1222 1153 1251
433 3 2 1 1 781 972 824 618
434 3 2 1 1 267 268 1193 1237
435 3 2 1 1 436 34 35 309
436 3 2 1 1 1217 1271 1089 1162
437 3 2 1 1 1206 1257 1313 1273
438 3 2 1 1 1014 1084 1157 1095
439 3 2 1 1 812 886 276 277
440 3 2 1 1 1357 1388 1308 1371
441 3 2 1 1 553 626 751 400
442 3 2 1 1 1112 1197 1086 1046
443 3 2 1 1 962 1126 1004 821
444 3 2 1 1 557 334 429 513
445 3 2 1 1 1180 1285 1231 1122
446 3 2 1 1 728 861 973 839
447 3 2 1 1 1010 824 972 1122
448 3 2 1 1 1004 1150 1236 1119
449 3 2 1 1 285 614 780 286
450 3 2 1 1 1182 1283 1205 1078
451 3 2 1 1 1024 823 956 1033
452 3 2 1 1 272 999 1123 273
453 3 2 1 1 1056 873 975 1113
454 3 2 1 1 1273 1313 1366 1267
455 3 2 1 1 681 882 781 567
456 3 2 1 1 718 914 1039 874
457 3 2 1 1 1078 1001 1051 1182
458 3 2 1 1 1048 1183 1118 929
459 3 2 1 1 965 1119 1049 882
460 3 2 1 1 1219 1378 1314 1270
461 3 2 1 1 625 633 541 542
462 3 2 1 1 273 1123 1048 274
463 3 2 1 1 873 1056 962 776
464 3 2 1 1 1184 1234 1206 1079
465 3 2 1 1 261 880 778 260
466 3 2 1 1 972 781 882 1049
467 3 2 1 1 286 780 681 287
468 3 2 1 1 1049 1180 1122 972
469 3 2 1 1 1258 1375 1357 1338
470 3 2 1 1 892 823 1024 960
471 3 2 1 1 1132 1147 1244 1192
472 3 2 1 1 1234 1184 1159 1280
473 3 2 1 1 882 681 780 965
474 3 2 1 1 128 477 336 129
475 3 2 1 1 1118 1233 1182 1051
476 3 2 1 1 648 814 631 736
477 3 2 1 1 1286 1305 1331 1225
478 3 2 1 1 459 683 577 373
479 3 2 1 1 533 349 442 512
480 3 2 1 1 1361 1413 1377 1330
481 3 2 1 1 1150 1004 1126 1225
482 3 2 1 1 260 778 675 259
483 3 2 1 1 1273 1175 1079 1206
484 3 2 1 1 971 1051 1001 819
485 3 2 1 1 614 821 965 780
486 3 2 1 1 1001 1078 1159 1111
487 3 2 1 1 1126 962 1056 1174
488 3 2 1 1 1391 1322 1359 1437
489 3 2 1 1 1225 1126 1174 1286
490 3 2 1 1 776 962 821 614
491 3 2 1 1 872 1057 914 718
492 3 2 1 1 567 781 618 391
493 3 2 1 1 1051 971 929 1118
494 3 2 1 1 675 889 783 569
495 3 2 1 1 284 776 614 285
496 3 2 1 1 271 1116 999 272
497 3 2 1 1 1261 1403 1351 1323
498 3 2 1 1 278 976 872 279
499 3 2 1 1 1257 1345 1399 1313
500 3 2 1 1 951 1019 1127 168
501 3 2 1 1 545 553 341 438
502 3 2 1 1 1275 1359 1322 1255
503 3 2 1 1 1285 1180 1236 1323
504 3 2 1 1 1205 1302 1365 1280
505 3 2 1 1 259 675 569 258
506 3 2 1 1 1183 1048 1123 1230
507 3 2 1 1 1179 1276 1228 1116
508 3 2 1 1 270 1179 1116 271
509 3 2 1 1 669 838 938 760
510 3 2 1 1 280 718 874 281
511 3 2 1 1 269 1226 1179 270
512 3 2 1 1 277 819 976 278
513 3 2 1 1 253 678 572 254
514 3 2 1 1 264 1135 1058 263
515 3 2 1 1 1267 1366 1305 1286
516 3 2 1 1 1011 1098 957 921
517 3 2 1 1 1331 1349 1403 1261
518 3 2 1 1 502 666 728 660
519 3 2 1 1 1280 1365 1325 1234
520 3 2 1 1 1079 914 1057 1184
521 3 2 1 1 1322 1391 1360 1303
522 3 2 1 1 1116 1228 1145 999
523 3 2 1 1 718 280 279 872
524 3 2 1 1 1111 1159 1184 1057
525 3 2 1 1 268 1281 1226 269
526 3 2 1 1 874 1039 1113 975
527 3 2 1 1 679 754 860 788
528 3 2 1 1 1313 1399 1385 1366
529 3 2 1 1 283 873 776 284
530 3 2 1 1 999 1145 1230 1123
531 3 2 1 1 1113 1235 1174 1056
532 3 2 1 1 759 753 858 861
533 3 2 1 1 1349 1331 1305 1404
534 3 2 1 1 1100 1023 1093 1189
535 3 2 1 1 1347 1324 1303 1360
536 3 2 1 1 569 783 680 460
537 3 2 1 1 1228 1321 1275 1145
538 3 2 1 1 541 551 346 436
539 3 2 1 1 391 618 764 568
540 3 2 1 1 391 289 288 567
541 3 2 1 1 1345 1257 1325 1401
542 3 2 1 1 1425 158 159 1448
543 3 2 1 1 819 1001 1111 976
544 3 2 1 1 258 569 460 257
545 3 2 1 1 1303 1277 1255 1322
546 3 2 1 1 819 277 276 971
547 3 2 1 1 1431 1351 1403 1448
548 3 2 1 1 275 929 971 276
549 3 2 1 1 1155 1010 1122 1231
550 3 2 1 1 643 530 250 251
551 3 2 1 1 1003 1108 1170 1087
552 3 2 1 1 668 766 775 495
553 3 2 1 1 1150 1261 1323 1236
554 3 2 1 1 1057 872 976 1111
555 3 2 1 1 626 553 545 743
556 3 2 1 1 287 681 567 288
557 3 2 1 1 1302 1205 1283 1362
558 3 2 1 1 289 391 568 290
559 3 2 1 1 1277 1303 1324 1233
560 3 2 1 1 274 1048 929 275
561 3 2 1 1 1366 1385 1404 1305
562 3 2 1 1 263 1058 969 262
563 3 2 1 1 262 969 880 261
564 3 2 1 1 1261 1150 1225 1331
565 3 2 1 1 1324 1347 1362 1283
566 3 2 1 1 1283 1182 1233 1324
567 3 2 1 1 633 635 551 541
568 3 2 1 1 1085 1030 1115 1148
569 3 2 1 1 1175 1273 1267 1235
570 3 2 1 1 996 878 970 1073
571 3 2 1 1 1145 1275 1255 1230
572 3 2 1 1 1230 1255 1277 1183
573 3 2 1 1 775 766 946 842
574 3 2 1 1 1362 1392 1389 1302
575 3 2 1 1 572 784 683 459
576 3 2 1 1 366 23 24 487
577 3 2 1 1 510 389 301 441
578 3 2 1 1 267 1227 1281 268
579 3 2 1 1 1233 1118 1183 1277
580 3 2 1 1 729 841 667 621
581 3 2 1 1 839 973 936 854
582 3 2 1 1 1100 1090 1024 1033
583 3 2 1 1 1272 1318 1209 1149
584 3 2 1 1 1389 1439 1424 1383
585 3 2 1 1 1216 1270 1311 1248
586 3 2 1 1 254 572 459 255
587 3 2 1 1 274 863 748 991
588 3 2 1 1 252 788 678 253
589 3 2 1 1 298 112 113 448
590 3 2 1 1 1173 1224 1081 1002
591 3 2 1 1 300 44 45 443
592 3 2 1 1 452 291 290 568
593 3 2 1 1 312 294 293 457
594 3 2 1 1 1235 1267 1286 1174
595 3 2 1 1 337 85 86 374
596 3 2 1 1 331 84 85 337
597 3 2 1 1 748 863 635 633
598 3 2 1 1 422 59 60 369
599 3 2 1 1 434 49 50 323
600 3 2 1 1 457 293 292 407
601 3 2 1 1 940 858 753 859
602 3 2 1 1 1237 1104 1016 1169
603 3 2 1 1 311 119 120 427
604 3 2 1 1 1395 1354 1311 1353
605 3 2 1 1 906 773 878 996
606 3 2 1 1 1302 1389 1383 1365
607 3 2 1 1 460 680 575 322
608 3 2 1 1 294 312 458 295
609 3 2 1 1 1448 159 160 1431
610 3 2 1 1 947 973 861 858
611 3 2 1 1 649 758 638 527
612 3 2 1 1 1307 1340 1217 1298
613 3 2 1 1 1073 970 1052 1077
614 3 2 1 1 778 985 889 675
615 3 2 1 1 765 902 921 957
616 3 2 1 1 407 292 291 452
617 3 2 1 1 1237 1169 266 267
618 3 2 1 1 788 860 901 678
619 3 2 1 1 683 724 613 577
620 3 2 1 1 1323 1351 1361 1285
621 3 2 1 1 1077 1052 1124 1146
622 3 2 1 1 936 1003 1087 1029
623 3 2 1 1 448 113 114 352
624 3 2 1 1 612 721 838 669
625 3 2 1 1 487 24 25 333
626 3 2 1 1 769 654 722 853
627 3 2 1 1 1365 1383 1401 1325
628 3 2 1 1 1067 1103 270 271
629 3 2 1 1 443 45 46 305
630 3 2 1 1 1170 1167 1216 1163
631 3 2 1 1 680 723 619 575
632 3 2 1 1 325 656 556 426
633 3 2 1 1 1276 1179 1226 1317
634 3 2 1 1 743 941 836 626
635 3 2 1 1 653 769 853 719
636 3 2 1 1 1146 1124 1185 1204
637 3 2 1 1 651 904 641 793
638 3 2 1 1 661 457 407 498
639 3 2 1 1 1393 1376 1384 1420
640 3 2 1 1 916 1034 853 722
641 3 2 1 1 1029 721 854 936
642 3 2 1 1 623 835 935 745
643 3 2 1 1 1271 1099 1021 1089
644 3 2 1 1 1408 1390 1398 1437
645 3 2 1 1 303 392 512 442
646 3 2 1 1 1431 160 161 1413
647 3 2 1 1 842 1059 927 828
648 3 2 1 1 389 510 645 496
649 3 2 1 1 870 968 750 655
650 3 2 1 1 805 735 977 847
651 3 2 1 1 1040 990 1041 1080
652 3 2 1 1 1089 1021 950 1034
653 3 2 1 1 674 452 568 764
654 3 2 1 1 452 674 498 407
655 3 2 1 1 784 831 724 683
656 3 2 1 1 1189 1093 1187 1243
657 3 2 1 1 266 1177 1227 267
658 3 2 1 1 620 827 941 743
659 3 2 1 1 395 544 342 315
660 3 2 1 1 333 25 26 426
661 3 2 1 1 1149 1080 1221 1272
662 3 2 1 1 552 312 457 661
663 3 2 1 1 55 56 334 361
664 3 2 1 1 1197 1112 1139 1161
665 3 2 1 1 938 1014 1095 827
666 3 2 1 1 624 503 543 665
667 3 2 1 1 784 572 678 901
668 3 2 1 1 435 307 646 507
669 3 2 1 1 319 400 526 417
670 3 2 1 1 892 960 845 734
671 3 2 1 1 1405 1353 1314 1407
672 3 2 1 1 321 686 513 429
673 3 2 1 1 1046 877 961 1112
674 3 2 1 1 722 864 1026 916
675 3 2 1 1 1321 1228 1276 1358
676 3 2 1 1 892 794 615 823
677 3 2 1 1 512 392 805 621
678 3 2 1 1 1165 1239 1011 1143
679 3 2 1 1 1270 1216 1167 1219
680 3 2 1 1 1046 1086 1008 949
681 3 2 1 1 539 620 743 545
682 3 2 1 1 1028 947 858 940
683 3 2 1 1 360 70 71 437
684 3 2 1 1 787 497 688 817
685 3 2 1 1 968 1053 857 750
686 3 2 1 1 1034 916 1162 1089
687 3 2 1 1 1099 1108 1028 1021
688 3 2 1 1 1083 1162 916 1026
689 3 2 1 1 1413 161 162 1377
690 3 2 1 1 1158 1242 1222 1279
691 3 2 1 1 1009 993 1062 1106
692 3 2 1 1 72 329 437 71
693 3 2 1 1 670 526 400 751
694 3 2 1 1 883 695 777 964
695 3 2 1 1 795 534 521 682
696 3 2 1 1 1210 1178 1229 1256
697 3 2 1 1 521 534 430 318
698 3 2 1 1 917 838 721 1029
699 3 2 1 1 518 484 536 628
700 3 2 1 1 374 86 87 213
701 3 2 1 1 1298 1218 1336 1307
702 3 2 1 1 324 420 566 425
703 3 2 1 1 712 643 251 252
704 3 2 1 1 1005 964 1030 1085
705 3 2 1 1 1264 1337 1315 1312
706 3 2 1 1 870 915 1002 968
707 3 2 1 1 733 615 395 507
708 3 2 1 1 877 613 724 961
709 3 2 1 1 326 413 520 433
710 3 2 1 1 344 431 508 531
711 3 2 1 1 133 584 662 134
712 3 2 1 1 859 719 950 940
713 3 2 1 1 265 1109 1177 266
714 3 2 1 1 1143 1011 921 1069
715 3 2 1 1 783 833 723 680
716 3 2 1 1 1068 1139 1112 961
717 3 2 1 1 495 775 616 540
718 3 2 1 1 725 498 674 867
719 3 2 1 1 286 287 603 700
720 3 2 1 1 173 685 522 174
721 3 2 1 1 1249 199 1297 1328
722 3 2 1 1 827 620 760 938
723 3 2 1 1 752 955 835 623
724 3 2 1 1 829 933 868 770
725 3 2 1 1 632 532 594 511
726 3 2 1 1 625 542 397 745
727 3 2 1 1 1099 1271 1219 1167
728 3 2 1 1 417 91 92 319
729 3 2 1 1 1044 977 828 927
730 3 2 1 1 380 22 23 366
731 3 2 1 1 404 703 591 482
732 3 2 1 1 576 297 296 365
733 3 2 1 1 1231 1330 1268 1155
734 3 2 1 1 655 206 804 870
735 3 2 1 1 312 552 506 458
736 3 2 1 1 809 645 510 529
737 3 2 1 1 255 459 373 15
738 3 2 1 1 322 256 257 460
739 3 2 1 1 809 644 994 902
740 3 2 1 1 1151 1084 1136 1163
741 3 2 1 1 130 470 566 131
742 3 2 1 1 21 22 380 292
743 3 2 1 1 507 395 315 435
744 3 2 1 1 419 327 360 437
745 3 2 1 1 1294 1223 1274 1337
746 3 2 1 1 1087 1170 1163 1136
747 3 2 1 1 949 782 877 1046
748 3 2 1 1 1136 917 1029 1087
749 3 2 1 1 1346 1329 1393 1427
750 3 2 1 1 413 711 647 520
751 3 2 1 1 977 1044 925 847
752 3 2 1 1 1095 1157 1247 1012
753 3 2 1 1 785 589 677 884
754 3 2 1 1 816 673 773 906
755 3 2 1 1 665 543 419 519
756 3 2 1 1 1439 1410 1430 1424
757 3 2 1 1 820 817 717 978
758 3 2 1 1 332 428 475 370
759 3 2 1 1 132 131 566 420
760 3 2 1 1 928 893 731 830
761 3 2 1 1 1084 1014 917 1136
762 3 2 1 1 428 480 415 604
763 3 2 1 1 427 120 121 330
764 3 2 1 1 8 461 329 72
765 3 2 1 1 745 397 528 623
766 3 2 1 1 1448 1403 1349 1425
767 3 2 1 1 856 758 649 746
768 3 2 1 1 468 213 308 564
769 3 2 1 1 399 688 497 488
770 3 2 1 1 1036 1069 942 980
771 3 2 1 1 1200 1214 199 200
772 3 2 1 1 264 1038 1109 265
773 3 2 1 1 1253 1245 1214 1200
774 3 2 1 1 828 977 735 616
775 3 2 1 1 1030 875 963 1115
776 3 2 1 1 498 725 879 661
777 3 2 1 1 1094 1128 1164 1191
778 3 2 1 1 344 531 420 324
779 3 2 1 1 503 624 731 646
780 3 2 1 1 1163 1216 1248 1151
781 3 2 1 1 817 688 716 717
782 3 2 1 1 1419 153 1440 1454
783 3 2 1 1 598 701 217 218
784 3 2 1 1 1392 1362 1347 1397
785 3 2 1 1 1278 1181 1232 1326
786 3 2 1 1 867 674 764 967
787 3 2 1 1 1326 1232 1282 1364
788 3 2 1 1 414 504 647 580
789 3 2 1 1 556 656 284 285
790 3 2 1 1 716 578 606 610
791 3 2 1 1 1447 1399 1345 1421
792 3 2 1 1 688 399 578 716
793 3 2 1 1 416 574 461 381
794 3 2 1 1 1045 867 967 1120
795 3 2 1 1 555 604 415 599
796 3 2 1 1 766 668 547 727
797 3 2 1 1 19 20 294 295
798 3 2 1 1 1229 1117 1181 1278
799 3 2 1 1 1181 1000 1131 1232
800 3 2 1 1 557 693 242 469
801 3 2 1 1 1169 1101 265 266
802 3 2 1 1 763 843 755 658
803 3 2 1 1 1148 1115 1178 1210
804 3 2 1 1 710 571 673 816
805 3 2 1 1 1104 1237 1193 1018
806 3 2 1 1 128 399 488 127
807 3 2 1 1 1364 1282 1327 1398
808 3 2 1 1 444 654 769 538
809 3 2 1 1 1213 1157 1084 1151
810 3 2 1 1 643 712 767 636
811 3 2 1 1 129 578 399 128
812 3 2 1 1 1117 913 1000 1181
813 3 2 1 1 622 418 501 755
814 3 2 1 1 127 488 465 126
815 3 2 1 1 705 746 509 242
816 3 2 1 1 1012 941 827 1095
817 3 2 1 1 945 732 895 988
818 3 2 1 1 880 1027 985 778
819 3 2 1 1 198 197 1329 1297
820 3 2 1 1 1006 978 930 1125
821 3 2 1 1 205 204 871 804
822 3 2 1 1 1335 1334 1158 1279
823 3 2 1 1 1032 920 912 974
824 3 2 1 1 130 606 578 129
825 3 2 1 1 1316 164 163 1367
826 3 2 1 1 807 142 141 690
827 3 2 1 1 135 806 761 134
828 3 2 1 1 131 493 606 130
829 3 2 1 1 888 693 557 513
830 3 2 1 1 1412 1374 1433 1446
831 3 2 1 1 1010 1155 1241 1120
832 3 2 1 1 830 731 624 808
833 3 2 1 1 1065 983 820 1137
834 3 2 1 1 621 667 533 512
835 3 2 1 1 1110 1173 1002 915
836 3 2 1 1 952 959 1037 1070
837 3 2 1 1 806 737 849 761
838 3 2 1 1 868 849 737 628
839 3 2 1 1 983 787 817 820
840 3 2 1 1 1137 820 978 1006
841 3 2 1 1 1214 1245 1291 1284
842 3 2 1 1 263 953 1038 264
843 3 2 1 1 1223 1085 1148 1274
844 3 2 1 1 638 310 434 527
845 3 2 1 1 1378 1340 1407 1314
846 3 2 1 1 537 629 517 485
847 3 2 1 1 1178 1047 1117 1229
848 3 2 1 1 695 225 588 777
849 3 2 1 1 466 601 417 526
850 3 2 1 1 418 184 320 501
851 3 2 1 1 443 305 657 547
852 3 2 1 1 162 1411 1367 163
853 3 2 1 1 1018 835 955 1104
854 3 2 1 1 934 1142 1035 833
855 3 2 1 1 530 491 249 250
856 3 2 1 1 1414 1387 1439 1392
857 3 2 1 1 926 725 867 1045
858 3 2 1 1 1021 1028 940 950
859 3 2 1 1 1315 1210 1256 1355
860 3 2 1 1 673 463 582 773
861 3 2 1 1 949 1008 918 885
862 3 2 1 1 500 388 515 653
863 3 2 1 1 723 937 876 619
864 3 2 1 1 831 1068 961 724
865 3 2 1 1 956 733 893 928
866 3 2 1 1 1129 1253 1200 201
867 3 2 1 1 1455 194 193 1435
868 3 2 1 1 833 1035 937 723
869 3 2 1 1 1232 1131 1195 1282
870 3 2 1 1 1224 1269 1147 1081
871 3 2 1 1 164 1316 1342 165
872 3 2 1 1 277 278 909 812
873 3 2 1 1 641 313 433 520
874 3 2 1 1 846 789 732 945
875 3 2 1 1 136 689 806 135
876 3 2 1 1 410 523 708 749
877 3 2 1 1 519 574 640 665
878 3 2 1 1 1398 1327 1363 1441
879 3 2 1 1 921 902 994 1069
880 3 2 1 1 172 405 685 173
881 3 2 1 1 603 287 288 421
882 3 2 1 1 768 904 651 698
883 3 2 1 1 797 185 418 622
884 3 2 1 1 523 410 340 432
885 3 2 1 1 1266 1213 1151 1248
886 3 2 1 1 1204 1185 1238 1254
887 3 2 1 1 717 716 610 890
888 3 2 1 1 789 846 890 610
889 3 2 1 1 1432 1415 192 193
890 3 2 1 1 808 624 665 640
891 3 2 1 1 941 1012 1105 836
892 3 2 1 1 493 131 132 692
893 3 2 1 1 909 279 749 708
894 3 2 1 1 884 982 837 785
895 3 2 1 1 1025 923 740 1141
896 3 2 1 1 890 930 978 717
897 3 2 1 1 856 894 837 855
898 3 2 1 1 648 772 396 514
899 3 2 1 1 1160 1006 1125 1199
900 3 2 1 1 617 881 851 747
901 3 2 1 1 571 377 463 673
902 3 2 1 1 126 465 302 125
903 3 2 1 1 153 1456 1457 154
904 3 2 1 1 161 1429 1411 162
905 3 2 1 1 766 727 840 946
906 3 2 1 1 174 522 489 175
907 3 2 1 1 1093 1065 1137 1187
908 3 2 1 1 627 910 767 684
909 3 2 1 1 163 164 1290 1268
910 3 2 1 1 262 862 953 263
911 3 2 1 1 1282 1195 1246 1327
912 3 2 1 1 930 890 846 1061
913 3 2 1 1 1248 1311 1354 1266
914 3 2 1 1 1430 1454 1450 1424
915 3 2 1 1 692 732 789 493
916 3 2 1 1 74 75 383 126
917 3 2 1 1 1319 1266 1354 1369
918 3 2 1 1 631 405 573 741
919 3 2 1 1 617 609 497 787
920 3 2 1 1 610 606 493 789
921 3 2 1 1 773 582 697 878
922 3 2 1 1 1134 1186 1091 1042
923 3 2 1 1 154 1457 1444 155
924 3 2 1 1 1460 156 155 1444
925 3 2 1 1 462 504 414 378
926 3 2 1 1 987 1066 928 830
927 3 2 1 1 964 777 875 1030
928 3 2 1 1 491 369 248 249
929 3 2 1 1 209 339 466 208
930 3 2 1 1 210 386 339 209
931 3 2 1 1 761 849 895 630
932 3 2 1 1 583 651 504 462
933 3 2 1 1 869 798 932 939
934 3 2 1 1 966 1022 1068 831
935 3 2 1 1 1243 1187 1160 1240
936 3 2 1 1 1433 1406 1422 1444
937 3 2 1 1 439 306 394 528
938 3 2 1 1 133 630 692 132
939 3 2 1 1 850 891 995 931
940 3 2 1 1 804 871 915 870
941 3 2 1 1 1023 1066 987 924
942 3 2 1 1 1356 1339 190 191
943 3 2 1 1 1415 1356 191 192
944 3 2 1 1 661 879 763 552
945 3 2 1 1 768 662 531 508
946 3 2 1 1 885 694 782 949
947 3 2 1 1 1463 1451 1445 1453
948 3 2 1 1 1047 818 913 1117
949 3 2 1 1 1356 1415 1417 1379
950 3 2 1 1 412 379 236 237
951 3 2 1 1 1318 1375 1258 1209
952 3 2 1 1 1097 1143 1036 1060
953 3 2 1 1 732 692 630 895
954 3 2 1 1 1144 1097 923 1025
955 3 2 1 1 1330 1231 1285 1361
956 3 2 1 1 1454 1464 1421 1450
957 3 2 1 1 1421 1345 1401 1450
958 3 2 1 1 1088 1153 1106 1015
959 3 2 1 1 1168 1240 1160 1199
960 3 2 1 1 1466 156 1467 1462
961 3 2 1 1 1017 945 988 933
962 3 2 1 1 1090 1100 1189 1161
963 3 2 1 1 888 910 792 810
964 3 2 1 1 1327 1246 1295 1363
965 3 2 1 1 830 808 851 987
966 3 2 1 1 589 237 403 677
967 3 2 1 1 1359 1275 1321 1408
968 3 2 1 1 177 370 475 176
969 3 2 1 1 1372 1407 1340 1307
970 3 2 1 1 61 62 342 387
971 3 2 1 1 6 61 387 247
972 3 2 1 1 885 918 848 811
973 3 2 1 1 261 756 862 262
974 3 2 1 1 1121 1008 1168 1186
975 3 2 1 1 739 690 517 629
976 3 2 1 1 985 1071 934 889
977 3 2 1 1 1128 926 1045 1188
978 3 2 1 1 134 761 630 133
979 3 2 1 1 593 590 561 687
980 3 2 1 1 662 698 135 134
981 3 2 1 1 196 1369 1395 195
982 3 2 1 1 536 707 770 628
983 3 2 1 1 983 1065 924 881
984 3 2 1 1 156 1460 1461 157
985 3 2 1 1 725 926 959 879
986 3 2 1 1 1316 1381 190 1342
987 3 2 1 1 767 910 744 636
988 3 2 1 1 1455 1445 1451 1438
989 3 2 1 1 1449 1460 1422 1386
990 3 2 1 1 1041 1138 1171 1080
991 3 2 1 1 822 931 1013 922
992 3 2 1 1 1098 1011 1239 1156
993 3 2 1 1 1425 1452 1467 158
994 3 2 1 1 1053 1132 943 857
995 3 2 1 1 922 1013 1092 1007
996 3 2 1 1 642 866 741 573
997 3 2 1 1 155 156 1466 1459
998 3 2 1 1 956 928 1066 1033
999 3 2 1 1 1040 1110 915 871
1000 3 2 1 1 1027 880 969 1107
1001 3 2 1 1 444 538 352 351
1002 3 2 1 1 1083 1026 1098 1156
1003 3 2 1 1 329 461 574 519
1004 3 2 1 1 1013 1072 1102 1092
1005 3 2 1 1 826 815 883 919
1006 3 2 1 1 948 982 884 779
1007 3 2 1 1 1367 1409 1381 1316
1008 3 2 1 1 376 15 256 322
1009 3 2 1 1 408 650 564 308
1010 3 2 1 1 658 506 552 763
1011 3 2 1 1 945 1017 1061 846
1012 3 2 1 1 730 850 931 822
1013 3 2 1 1 1244 1212 1176 1192
1014 3 2 1 1 1260 1312 1352 1309
1015 3 2 1 1 1221 1171 1207 1259
1016 3 2 1 1 538 769 653 515
1017 3 2 1 1 154 155 1459 1440
1018 3 2 1 1 907 994 644 772
1019 3 2 1 1 719 859 500 653
1020 3 2 1 1 1220 165 166 1164
1021 3 2 1 1 912 825 742 799
1022 3 2 1 1 1006 1160 1187 1137
1023 3 2 1 1 733 956 823 615
1024 3 2 1 1 1076 984 826 1031
1025 3 2 1 1 988 895 849 868
1026 3 2 1 1 448 352 538 515
1027 3 2 1 1 216 585 490 215
1028 3 2 1 1 1263 1335 1279 1251
1029 3 2 1 1 501 320 546 658
1030 3 2 1 1 623 528 394 752
1031 3 2 1 1 1416 1348 1436 1394
1032 3 2 1 1 260 659 756 261
1033 3 2 1 1 1308 150 149 1262
1034 3 2 1 1 518 628 737 689
1035 3 2 1 1 198 1289 1319 197
1036 3 2 1 1 508 431 313 904
1037 3 2 1 1 338 367 482 328
1038 3 2 1 1 467 181 182 385
1039 3 2 1 1 1115 963 1047 1178
1040 3 2 1 1 547 668 300 443
1041 3 2 1 1 333 700 603 487
1042 3 2 1 1 782 562 613 877
1043 3 2 1 1 515 388 298 448
1044 3 2 1 1 1374 1259 1333 1406
1045 3 2 1 1 142 807 865 143
1046 3 2 1 1 597 330 489 522
1047 3 2 1 1 734 845 754 699
1048 3 2 1 1 1380 1317 1309 1352
1049 3 2 1 1 1358 1276 1317 1380
1050 3 2 1 1 581 402 639 699
1051 3 2 1 1 634 786 850 730
1052 3 2 1 1 1383 1424 1450 1401
1053 3 2 1 1 923 1060 866 740
1054 3 2 1 1 891 850 786 231
1055 3 2 1 1 1426 1435 1409 1411
1056 3 2 1 1 875 611 774 963
1057 3 2 1 1 513 686 744 888
1058 3 2 1 1 844 625 745 935
1059 3 2 1 1 657 869 727 547
1060 3 2 1 1 577 613 562 481
1061 3 2 1 1 1341 1379 1265 1293
1062 3 2 1 1 1129 202 1054 1201
1063 3 2 1 1 1307 1336 1417 1372
1064 3 2 1 1 602 670 206 207
1065 3 2 1 1 735 392 540 616
1066 3 2 1 1 1456 153 152 1394
1067 3 2 1 1 1449 1427 1442 1461
1068 3 2 1 1 1265 1336 1218 1156
1069 3 2 1 1 489 382 176 175
1070 3 2 1 1 1103 1202 269 270
1071 3 2 1 1 889 934 833 783
1072 3 2 1 1 1355 1256 1304 1396
1073 3 2 1 1 907 736 911 942
1074 3 2 1 1 1352 1355 1396 1380
1075 3 2 1 1 523 605 637 708
1076 3 2 1 1 499 713 726 798
1077 3 2 1 1 506 658 546 691
1078 3 2 1 1 562 782 694 232
1079 3 2 1 1 1072 1013 931 995
1080 3 2 1 1 1086 1240 1168 1008
1081 3 2 1 1 797 834 951 14
1082 3 2 1 1 1293 1215 1288 1341
1083 3 2 1 1 1427 1449 1386 1346
1084 3 2 1 1 1125 930 1061 1091
1085 3 2 1 1 1434 151 150 1308
1086 3 2 1 1 411 579 634 505
1087 3 2 1 1 598 711 413 423
1088 3 2 1 1 382 122 177 176
1089 3 2 1 1 599 180 181 467
1090 3 2 1 1 1453 1445 1429 160
1091 3 2 1 1 1317 1226 1281 1309
1092 3 2 1 1 1166 1102 1130 1194
1093 3 2 1 1 1412 1436 1348 1306
1094 3 2 1 1 1166 1194 1223 1294
1095 3 2 1 1 1394 152 151 1434
1096 3 2 1 1 259 505 659 260
1097 3 2 1 1 528 397 345 439
1098 3 2 1 1 1336 1265 1379 1417
1099 3 2 1 1 1211 1294 1337 1264
1100 3 2 1 1 708 637 812 909
1101 3 2 1 1 273 991 979 272
1102 3 2 1 1 377 13 139 463
1103 3 2 1 1 535 652 799 696
1104 3 2 1 1 170 642 573 171
1105 3 2 1 1 405 172 171 573
1106 3 2 1 1 852 751 626 836
1107 3 2 1 1 379 479 254 255
1108 3 2 1 1 479 558 253 254
1109 3 2 1 1 1268 1330 1377 163
1110 3 2 1 1 147 146 1158 1334
1111 3 2 1 1 682 521 410 749
1112 3 2 1 1 376 424 483 235
1113 3 2 1 1 1152 1211 1264 1208
1114 3 2 1 1 1208 1264 1312 1260
1115 3 2 1 1 1355 1352 1312 1315
1116 3 2 1 1 644 529 396 772
1117 3 2 1 1 575 619 494 424
1118 3 2 1 1 1007 1092 1154 1082
1119 3 2 1 1 1333 1207 1296 1370
1120 3 2 1 1 257 363 411 258
1121 3 2 1 1 258 411 505 259
1122 3 2 1 1 742 714 696 799
1123 3 2 1 1 1372 1417 1415 1432
1124 3 2 1 1 607 652 535 215
1125 3 2 1 1 771 829 770 707
1126 3 2 1 1 963 774 818 1047
1127 3 2 1 1 494 619 779 677
1128 3 2 1 1 210 209 409 471
1129 3 2 1 1 706 655 750 803
1130 3 2 1 1 777 588 611 875
1131 3 2 1 1 207 206 655 706
1132 3 2 1 1 208 207 706 595
1133 3 2 1 1 1297 1329 1346 1328
1134 3 2 1 1 363 257 256 234
1135 3 2 1 1 1287 1252 1320 1301
1136 3 2 1 1 471 409 511 594
1137 3 2 1 1 1157 1213 1291 1247
1138 3 2 1 1 209 208 595 409
1139 3 2 1 1 786 634 579 232
1140 3 2 1 1 632 896 720 650
1141 3 2 1 1 1368 1344 1320 1300
1142 3 2 1 1 1328 1370 1296 1249
1143 3 2 1 1 595 706 803 704
1144 3 2 1 1 214 468 607 215
1145 3 2 1 1 1121 1186 1134 1043
1146 3 2 1 1 1023 924 1065 1093
1147 3 2 1 1 966 901 860 845
1148 3 2 1 1 751 852 791 670
1149 3 2 1 1 1171 1138 1172 1207
1150 3 2 1 1 698 583 136 135
1151 3 2 1 1 709 738 652 607
1152 3 2 1 1 505 634 730 659
1153 3 2 1 1 1301 1332 1254 1287
1154 3 2 1 1 236 483 403 237
1155 3 2 1 1 734 699 639 794
1156 3 2 1 1 1144 1096 1190 1165
1157 3 2 1 1 1212 1251 1196 1176
1158 3 2 1 1 1244 1269 1263 1212
1159 3 2 1 1 1102 1072 1031 1130
1160 3 2 1 1 1284 1213 1266 1319
1161 3 2 1 1 1188 1045 1120 1241
1162 3 2 1 1 970 802 903 1052
1163 3 2 1 1 1400 1390 1408 1358
1164 3 2 1 1 570 492 571 710
1165 3 2 1 1 1252 149 1300 1320
1166 3 2 1 1 878 697 802 970
1167 3 2 1 1 1165 1190 1215 1239
1168 3 2 1 1 192 191 1381 1409
1169 3 2 1 1 851 881 924 987
1170 3 2 1 1 803 750 857 900
1171 3 2 1 1 948 1064 939 932
1172 3 2 1 1 490 374 214 215
1173 3 2 1 1 1072 995 1076 1031
1174 3 2 1 1 974 738 898 1050
1175 3 2 1 1 1344 1373 1301 1320
1176 3 2 1 1 992 900 943 1063
1177 3 2 1 1 245 246 54 361
1178 3 2 1 1 1222 1242 1009 1106
1179 3 2 1 1 684 767 712 558
1180 3 2 1 1 1198 1247 1245 1253
1181 3 2 1 1 1132 1192 1063 943
1182 3 2 1 1 178 17 368 179
1183 3 2 1 1 813 825 905 629
1184 3 2 1 1 1434 1388 1416 1394
1185 3 2 1 1 437 329 519 419
1186 3 2 1 1 579 411 363 233
1187 3 2 1 1 1166 1154 1092 1102
1188 3 2 1 1 409 595 704 511
1189 3 2 1 1 948 779 876 1064
1190 3 2 1 1 825 920 998 905
1191 3 2 1 1 802 697 142 143
1192 3 2 1 1 756 822 922 862
1193 3 2 1 1 659 730 822 756
1194 3 2 1 1 1443 1453 159 158
1195 3 2 1 1 570 588 224 223
1196 3 2 1 1 537 714 813 629
1197 3 2 1 1 1032 974 1050 1133
1198 3 2 1 1 862 922 1007 953
1199 3 2 1 1 1094 1070 1037 1128
1200 3 2 1 1 1074 146 1140 1185
1201 3 2 1 1 1353 1405 1428 1395
1202 3 2 1 1 227 897 771 226
1203 3 2 1 1 152 153 1419 1382
1204 3 2 1 1 216 535 696 217
1205 3 2 1 1 1300 150 1343 1368
1206 3 2 1 1 1378 1219 1271 1217
1207 3 2 1 1 676 703 596 509
1208 3 2 1 1 1380 1396 1400 1358
1209 3 2 1 1 151 152 1382 1343
1210 3 2 1 1 147 148 1203 1140
1211 3 2 1 1 465 609 586 302
1212 3 2 1 1 720 898 801 650
1213 3 2 1 1 1139 1068 1022 1090
1214 3 2 1 1 997 145 1074 1124
1215 3 2 1 1 953 1007 1082 1038
1216 3 2 1 1 709 607 468 564
1217 3 2 1 1 228 981 897 227
1218 3 2 1 1 1374 1412 1306 1259
1219 3 2 1 1 1100 1033 1066 1023
1220 3 2 1 1 554 422 491 530
1221 3 2 1 1 646 731 893 507
1222 3 2 1 1 1402 1373 1397 1360
1223 3 2 1 1 834 797 622 952
1224 3 2 1 1 727 869 939 840
1225 3 2 1 1 169 740 642 170
1226 3 2 1 1 627 587 238 239
1227 3 2 1 1 1038 1082 1152 1109
1228 3 2 1 1 244 596 404 245
1229 3 2 1 1 997 903 144 145
1230 3 2 1 1 375 308 212 9
1231 3 2 1 1 1009 145 144 993
1232 3 2 1 1 1227 1260 1309 1281
1233 3 2 1 1 1130 1031 919 1005
1234 3 2 1 1 1109 1152 1208 1177
1235 3 2 1 1 1177 1208 1260 1227
1236 3 2 1 1 903 802 143 144
1237 3 2 1 1 801 898 738 709
1238 3 2 1 1 1428 1458 194 195
1239 3 2 1 1 180 179 368 478
1240 3 2 1 1 800 511 704 900
1241 3 2 1 1 617 747 586 609
1242 3 2 1 1 472 387 402 581
1243 3 2 1 1 649 527 450 676
1244 3 2 1 1 1067 844 935 1103
1245 3 2 1 1 1203 148 1252 1287
1246 3 2 1 1 989 865 807 739
1247 3 2 1 1 1238 1140 1203 1287
1248 3 2 1 1 217 696 714 218
1249 3 2 1 1 218 714 537 219
1250 3 2 1 1 816 818 774 710
1251 3 2 1 1 474 687 691 546
1252 3 2 1 1 739 629 905 989
1253 3 2 1 1 1385 1423 1452 1404
1254 3 2 1 1 474 546 320 183
1255 3 2 1 1 1052 903 997 1124
1256 3 2 1 1 471 594 371 211
1257 3 2 1 1 1404 1452 1425 1349
1258 3 2 1 1 1196 1088 1133 1176
1259 3 2 1 1 979 899 844 1055
1260 3 2 1 1 1195 1131 1077 1146
1261 3 2 1 1 1253 1129 1201 1198
1262 3 2 1 1 831 784 901 966
1263 3 2 1 1 826 984 228 227
1264 3 2 1 1 581 525 249 472
1265 3 2 1 1 408 375 464 532
1266 3 2 1 1 1294 1211 1154 1166
1267 3 2 1 1 414 220 221 378
1268 3 2 1 1 992 1063 944 896
1269 3 2 1 1 530 643 636 554
1270 3 2 1 1 697 582 141 142
1271 3 2 1 1 412 587 684 479
1272 3 2 1 1 204 908 958 203
1273 3 2 1 1 335 458 592 401
1274 3 2 1 1 690 140 372 517
1275 3 2 1 1 561 478 364 576
1276 3 2 1 1 243 509 596 244
1277 3 2 1 1 790 522 685 814
1278 3 2 1 1 280 682 749 279
1279 3 2 1 1 1162 1083 1298 1217
1280 3 2 1 1 237 238 587 412
1281 3 2 1 1 472 248 247 387
1282 3 2 1 1 1341 1288 189 1339
1283 3 2 1 1 428 332 362 480
1284 3 2 1 1 848 918 1043 981
1285 3 2 1 1 196 195 1384 1376
1286 3 2 1 1 726 713 638 758
1287 3 2 1 1 203 202 1041 990
1288 3 2 1 1 1445 1455 1426 1429
1289 3 2 1 1 1105 1012 1198 1201
1290 3 2 1 1 224 225 536 484
1291 3 2 1 1 1363 1332 1402 1441
1292 3 2 1 1 897 1075 986 771
1293 3 2 1 1 848 981 229 230
1294 3 2 1 1 602 466 526 670
1295 3 2 1 1 580 524 219 220
1296 3 2 1 1 558 712 252 253
1297 3 2 1 1 902 765 645 809
1298 3 2 1 1 866 1060 980 741
1299 3 2 1 1 1436 1412 1446 1456
1300 3 2 1 1 1310 1371 1335 1263
1301 3 2 1 1 555 599 608 174
1302 3 2 1 1 138 137 462 378
1303 3 2 1 1 796 785 837 894
1304 3 2 1 1 200 1249 1172 201
1305 3 2 1 1 1131 1000 1073 1077
1306 3 2 1 1 635 863 886 757
1307 3 2 1 1 186 1096 1025 14
1308 3 2 1 1 1246 1195 1146 1204
1309 3 2 1 1 1373 1344 1414 1397
1310 3 2 1 1 1190 1096 187 1250
1311 3 2 1 1 1410 1387 1368 1343
1312 3 2 1 1 1295 1254 1332 1363
1313 3 2 1 1 1114 1192 1176 1133
1314 3 2 1 1 140 582 463 139
1315 3 2 1 1 1310 1338 1357 1371
1316 3 2 1 1 1114 1133 1050 944
1317 3 2 1 1 593 687 474 182
1318 3 2 1 1 881 617 787 983
1319 3 2 1 1 865 989 1062 993
1320 3 2 1 1 829 986 1042 933
1321 3 2 1 1 1384 1438 1451 1420
1322 3 2 1 1 1000 913 996 1073
1323 3 2 1 1 1082 1154 1211 1152
1324 3 2 1 1 906 913 818 816
1325 3 2 1 1 20 21 293 294
1326 3 2 1 1 640 702 747 808
1327 3 2 1 1 1035 1142 946 840
1328 3 2 1 1 720 896 944 898
1329 3 2 1 1 689 137 384 518
1330 3 2 1 1 998 920 1015 1062
1331 3 2 1 1 1220 1299 1290 165
1332 3 2 1 1 367 338 53 5
1333 3 2 1 1 800 900 992 896
1334 3 2 1 1 937 1035 840 1064
1335 3 2 1 1 611 588 570 710
1336 3 2 1 1 171 172 385 183
1337 3 2 1 1 801 709 564 650
1338 3 2 1 1 1188 1241 1220 1164
1339 3 2 1 1 1295 1246 1204 1254
1340 3 2 1 1 1396 1304 1350 1400
1341 3 2 1 1 1269 1338 1310 1263
1342 3 2 1 1 1462 1467 1452 1423
1343 3 2 1 1 244 361 469 243
1344 3 2 1 1 583 462 137 136
1345 3 2 1 1 1058 1020 1107 969
1346 3 2 1 1 1382 1419 1430 1410
1347 3 2 1 1 415 179 180 599
1348 3 2 1 1 124 381 461 8
1349 3 2 1 1 790 814 648 514
1350 3 2 1 1 1274 1148 1210 1315
1351 3 2 1 1 239 715 796 240
1352 3 2 1 1 384 137 138 222
1353 3 2 1 1 189 1292 1342 190
1354 3 2 1 1 932 798 855 982
1355 3 2 1 1 637 605 398 757
1356 3 2 1 1 676 509 746 649
1357 3 2 1 1 221 220 372 139
1358 3 2 1 1 608 599 467 486
1359 3 2 1 1 1375 1416 1388 1357
1360 3 2 1 1 1094 1191 1127 1019
1361 3 2 1 1 986 1075 1134 1042
1362 3 2 1 1 592 691 687 401
1363 3 2 1 1 586 702 416 302
1364 3 2 1 1 591 323 328 482
1365 3 2 1 1 1442 1463 1443 1465
1366 3 2 1 1 247 369 60 6
1367 3 2 1 1 1459 1466 1447 1464
1368 3 2 1 1 208 466 602 207
1369 3 2 1 1 1293 1265 1156 1239
1370 3 2 1 1 506 691 592 458
1371 3 2 1 1 514 427 597 790
1372 3 2 1 1 1197 1161 1243 1240
1373 3 2 1 1 554 686 321 422
1374 3 2 1 1 488 497 609 465
1375 3 2 1 1 1224 1258 1338 1269
1376 3 2 1 1 594 532 464 371
1377 3 2 1 1 636 744 686 554
1378 3 2 1 1 534 656 325 430
1379 3 2 1 1 3 297 364 473
1380 3 2 1 1 791 908 205 206
1381 3 2 1 1 1332 1301 1373 1402
1382 3 2 1 1 175 600 555 174
1383 3 2 1 1 576 365 401 561
1384 3 2 1 1 233 481 562 232
1385 3 2 1 1 1091 1061 1017 1042
1386 3 2 1 1 121 122 382 330
1387 3 2 1 1 1172 1249 1296 1207
1388 3 2 1 1 899 979 991 748
1389 3 2 1 1 88 464 375 9
1390 3 2 1 1 514 396 311 427
1391 3 2 1 1 235 236 379 255
1392 3 2 1 1 633 625 899 748
1393 3 2 1 1 1054 202 203 958
1394 3 2 1 1 240 810 792 239
1395 3 2 1 1 384 223 484 518
1396 3 2 1 1 402 342 544 639
1397 3 2 1 1 993 144 143 865
1398 3 2 1 1 891 231 230 832
1399 3 2 1 1 367 5 246 476
1400 3 2 1 1 935 835 1018 1202
1401 3 2 1 1 492 222 377 571
1402 3 2 1 1 178 480 362 2
1403 3 2 1 1 372 220 485 517
1404 3 2 1 1 383 477 128 127
1405 3 2 1 1 741 980 911 631
1406 3 2 1 1 894 856 746 705
1407 3 2 1 1 593 182 181 590
1408 3 2 1 1 481 234 373 577
1409 3 2 1 1 834 1070 1019 951
1410 3 2 1 1 811 231 694 885
1411 3 2 1 1 1020 1058 1135 1101
1412 3 2 1 1 90 601 339 386
1413 3 2 1 1 483 424 494 403
1414 3 2 1 1 608 486 173 174
1415 3 2 1 1 335 365 296 295
1416 3 2 1 1 1063 1192 1114 944
1417 3 2 1 1 1457 1446 1433 1444
1418 3 2 1 1 998 1062 989 905
1419 3 2 1 1 918 1008 1121 1043
1420 3 2 1 1 815 226 695 883
1421 3 2 1 1 204 203 990 871
1422 3 2 1 1 197 196 1376 1329
1423 3 2 1 1 238 589 715 239
1424 3 2 1 1 1037 959 926 1128
1425 3 2 1 1 855 798 726 758
1426 3 2 1 1 795 682 281 282
1427 3 2 1 1 813 714 742 825
1428 3 2 1 1 188 189 1288 1250
1429 3 2 1 1 574 416 702 640
1430 3 2 1 1 843 879 959 952
1431 3 2 1 1 580 647 711 524
1432 3 2 1 1 800 896 632 511
1433 3 2 1 1 13 138 378 221
1434 3 2 1 1 426 556 700 333
1435 3 2 1 1 693 810 241 242
1436 3 2 1 1 1344 1368 1387 1414
1437 3 2 1 1 814 685 405 631
1438 3 2 1 1 314 398 605 432
1439 3 2 1 1 323 450 527 434
1440 3 2 1 1 887 652 738 974
1441 3 2 1 1 1075 897 981 1043
1442 3 2 1 1 211 89 386 210
1443 3 2 1 1 1339 1356 1379 1341
1444 3 2 1 1 337 490 585 331
1445 3 2 1 1 1165 1143 1097 1144
1446 3 2 1 1 302 416 381 125
1447 3 2 1 1 225 226 707 536
1448 3 2 1 1 585 701 423 331
1449 3 2 1 1 1465 158 157 1461
1450 3 2 1 1 366 289 290 380
1451 3 2 1 1 1194 1005 1085 1223
1452 3 2 1 1 475 428 604 600
1453 3 2 1 1 1369 196 197 1319
1454 3 2 1 1 469 361 334 557
1455 3 2 1 1 424 376 322 575
1456 3 2 1 1 1055 1067 271 272
1457 3 2 1 1 1142 1059 842 946
1458 3 2 1 1 145 1009 1242 146
1459 3 2 1 1 591 703 450 323
1460 3 2 1 1 1059 934 1071 927
1461 3 2 1 1 148 147 1334 1418
1462 3 2 1 1 757 886 812 637
1463 3 2 1 1 1440 1459 1464 1454
1464 3 2 1 1 165 1342 1292 166
1465 3 2 1 1 10 211 371 88
1466 3 2 1 1 1196 1251 1153 1088
1467 3 2 1 1 942 1069 994 907
1468 3 2 1 1 852 836 958 908
1469 3 2 1 1 202 201 1138 1041
1470 3 2 1 1 1423 1385 1399 1447
1471 3 2 1 1 370 177 12 123
1472 3 2 1 1 792 910 627 239
1473 3 2 1 1 1289 1214 1284 1319
1474 3 2 1 1 1289 198 199 1214
1475 3 2 1 1 148 1418 1262 149
1476 3 2 1 1 793 641 520 647
1477 3 2 1 1 17 3 473 368
1478 3 2 1 1 1441 1391 1437 1398
1479 3 2 1 1 289 366 421 288
1480 3 2 1 1 1435 193 192 1409
1481 3 2 1 1 1127 1191 167 168
1482 3 2 1 1 470 130 129 336
1483 3 2 1 1 524 598 218 219
1484 3 2 1 1 195 194 1438 1384
1485 3 2 1 1 1199 1125 1091 1186
1486 3 2 1 1 125 124 73 74
1487 3 2 1 1 650 408 532 632
1488 3 2 1 1 1391 1441 1402 1360
1489 3 2 1 1 362 332 16 2
1490 3 2 1 1 701 585 216 217
1491 3 2 1 1 736 907 772 648
1492 3 2 1 1 385 172 486 467
1493 3 2 1 1 584 133 132 420
1494 3 2 1 1 91 417 601 90
1495 3 2 1 1 713 499 440 310
1496 3 2 1 1 1155 1268 1299 1241
1497 3 2 1 1 793 647 504 651
1498 3 2 1 1 480 178 179 415
1499 3 2 1 1 1463 1442 1420 1451
1500 3 2 1 1 245 404 476 246
1501 3 2 1 1 193 194 1458 1432
1502 3 2 1 1 477 383 75 76
1503 3 2 1 1 478 561 590 180
1504 3 2 1 1 832 1076 995 891
1505 3 2 1 1 1447 1466 1462 1423
1506 3 2 1 1 1215 1190 1250 1288
1507 3 2 1 1 1135 264 265 1101
1508 3 2 1 1 1071 985 1027 927
1509 3 2 1 1 1405 1432 1458 1428
1510 3 2 1 1 1371 1262 1418 1335
1511 3 2 1 1 425 566 470 336
1512 3 2 1 1 230 231 811 848
1513 3 2 1 1 473 364 478 368
1514 3 2 1 1 887 912 799 652
1515 3 2 1 1 600 175 176 475
1516 3 2 1 1 19 295 296 18
1517 3 2 1 1 584 420 531 662
1518 3 2 1 1 227 226 815 826
1519 3 2 1 1 1292 189 188 166
1520 3 2 1 1 223 222 492 570
1521 3 2 1 1 487 603 421 366
1522 3 2 1 1 482 367 476 404
1523 3 2 1 1 485 220 219 537
1524 3 2 1 1 715 589 785 796
1525 3 2 1 1 166 167 1191 1164
1526 3 2 1 1 1083 1156 1218 1298
1527 3 2 1 1 14 1025 1141 169
1528 3 2 1 1 187 186 168 167
$EndElements
