$MeshFormat
2.2 0 8
$EndMeshFormat
$Nodes
124
1 20 20 0
2 40 20 0
3 40 40 0
4 20 40 0
11 0 0 0
12 100 0 0
13 0 50 0
14 100 70 0
15 0 100 0
16 100 100 0
17 30 20 0
18 40 30 0
19 30 40 0
20 20 30 0
23 10 0 0
24 20 0 0
25 30 0 0
26 40 0 0
27 50 0 0
28 60 0 0
29 70 0 0
30 80 0 0
31 90 0 0
32 0 40 0
33 0 30 0
34 0 20 0
35 0 10 0
36 100 10 0
37 100 20 0
38 100 30 0
39 100 40 0
40 100 50 0
41 100 60 0
42 0 90 0
43 0 80 0
44 0 70 0
45 0 60 0
46 100 80 0
47 100 90 0
48 90 100 0
49 80 100 0
50 70 100 0
51 60 100 0
52 50 100 0
53 40 100 0
54 30 100 0
55 20 100 0
56 10 100 0
57 9.99999999999999 52 0
58 20 54 0
59 30 56 0
60 40 58 0
61 80 66 0
62 90 68 0
63 69.9935038242878 10.0044479222016 0
64 20.2378282848122 90.3379154336007 0
65 59.9166725685765 39.974349926408 0
66 79.2508539371186 74.9981711010453 0
67 67.947959300167 77.4869078218403 0
68 39.8213806299303 67.6529739637 0
69 90.0990005917617 39.6852918539532 0
70 39.8178204072084 89.7713160805952 0
71 88.4054113117729 88.2802608777809 0
72 68.4901720347649 90.7263613720257 0
73 49.8219853843688 89.8311204788348 0
74 89.749903123186 77.6605756124379 0
75 61.0535017807998 80.365062228877 0
76 59.9878163062253 10.0000983232419 0
77 10.0180092681971 20.0530242462659 0
78 39.9957938080583 9.99983214327089 0
79 29.9999637723806 10.0008827786058 0
80 20.0028622771789 10.0064631724198 0
81 10.0247735814272 30.1773934467107 0
82 89.9996339535923 10.0194755261793 0
83 49.9114573814415 29.9804659871815 0
84 10.0042149470443 10.0103329327524 0
85 90.0022492456729 20.0284311411054 0
86 10.2248662781143 90.2032135724813 0
87 10.4150677955424 80.5613314428784 0
88 10.0148850357706 40.7298569558561 0
89 10.2830835634612 61.5668411645201 0
90 90.2039730953879 49.1279555567414 0
91 40.0075257811023 49.0567328945808 0
92 90.1839649158088 58.5348226305137 0
93 81.0538006225875 56.9749534066405 0
94 20.2976386811515 81.1078126750421 0
95 69.9820100185826 19.9961905870827 0
96 70.0672402822901 39.7937762627269 0
97 20.2564797509498 63.1744334590041 0
98 38.4573035575478 78.4578198612814 0
99 49.8249923979581 79.581376308783 0
100 59.630280151287 90.4106803342931 0
101 77.7362220113738 89.0945728266072 0
102 29.9071812190839 65.2252616970335 0
103 49.9665244348953 19.9957813601592 0
104 49.9889935295555 9.9990865592364 0
105 79.9973372830741 10.0114696581893 0
106 49.9232587953516 39.9109868079259 0
107 90.0253481330247 29.9429724766905 0
108 80.1923762694599 39.5419552121477 0
109 29.8907692970355 90.2099961978525 0
110 72.1699549197594 81.3717738050479 0
111 81.1516910359392 48.1396459238271 0
112 10.3609389441942 71.0648029201983 0
113 30.8339779069596 48.7065791069217 0
114 81.6748017007603 83.3126753944167 0
115 59.9452687056958 29.9674574037285 0
116 79.9990630146875 19.9990397430382 0
117 70.0006563379127 29.9220877283204 0
118 59.9687625111987 19.9879622358028 0
119 80.0413130827869 29.8799013690664 0
120 28.9628532124499 81.6402360942136 0
121 20.1523968440243 72.1700361664851 0
122 28.8317838372249 73.3423881772407 0
123 67.5763507403205 84.487803027292 0
132 60 62 0
133 50 50 0
134 70 50 0
135 70 64 0
136 70 70 0
137 50 70 0
138 50 60 0
139 60 50 0
140 60 70 0
$EndNodes
$Elements
102
1 2 2 1 1 101 114 71 
3 2 2 1 1 58 113 59 
4 2 2 1 1 120 122 98 
5 3 2 1 1 1 80 79 17
6 3 2 1 1 104 78 26 27
7 3 2 1 1 80 84 23 24
8 3 2 1 1 23 84 35 11
9 3 2 1 1 30 31 82 105
10 3 2 1 1 36 82 31 12
11 3 2 1 1 76 118 103 104
12 3 2 1 1 37 85 82 36
13 3 2 1 1 42 86 56 15
14 3 2 1 1 104 103 2 78
15 3 2 1 1 2 17 79 78
16 3 2 1 1 2 103 83 18
17 3 2 1 1 79 80 24 25
18 3 2 1 1 56 86 64 55
19 3 2 1 1 26 78 79 25
20 3 2 1 1 76 104 27 28
21 3 2 1 1 84 80 1 77
22 3 2 1 1 29 30 105 63
23 3 2 1 1 95 118 76 63
24 3 2 1 1 84 77 34 35
25 3 2 1 1 28 29 63 76
26 3 2 1 1 105 116 95 63
27 3 2 1 1 118 115 83 103
28 3 2 1 1 105 82 85 116
29 3 2 1 1 117 115 118 95
30 3 2 1 1 95 116 119 117
31 3 2 1 1 72 50 51 100
32 3 2 1 1 1 20 81 77
33 3 2 1 1 70 53 54 109
34 3 2 1 1 54 55 64 109
35 3 2 1 1 43 87 86 42
36 3 2 1 1 52 53 70 73
37 3 2 1 1 40 90 69 39
38 3 2 1 1 77 81 33 34
40 3 2 1 1 100 51 52 73
41 3 2 1 1 65 115 117 96
42 3 2 1 1 39 69 107 38
43 3 2 1 1 85 37 38 107
44 3 2 1 1 85 107 119 116
46 3 2 1 1 75 100 73 99
47 3 2 1 1 108 119 107 69
48 3 2 1 1 83 115 65 106
49 3 2 1 1 112 87 43 44
50 3 2 1 1 108 96 117 119
53 3 2 1 1 18 83 106 3
54 3 2 1 1 69 90 111 108
55 3 2 1 1 45 13 57 89
56 3 2 1 1 89 57 58 97
57 3 2 1 1 92 90 40 41
58 3 2 1 1 66 61 62 74
59 3 2 1 1 97 58 59 102
60 3 2 1 1 47 16 48 71
61 3 2 1 1 99 73 70 98
62 3 2 1 1 46 47 71 74
63 3 2 1 1 74 62 14 46
64 3 2 1 1 111 90 92 93
65 3 2 1 1 88 57 13 32
66 3 2 1 1 64 86 87 94
67 3 2 1 1 32 33 81 88
68 3 2 1 1 112 121 94 87
71 3 2 1 1 81 20 4 88
72 3 2 1 1 41 14 62 92
73 3 2 1 1 71 48 49 101
74 3 2 1 1 60 68 102 59
75 3 2 1 1 19 3 91 113
76 3 2 1 1 58 57 88 4
77 3 2 1 1 101 49 50 72
78 3 2 1 1 109 64 94 120
81 3 2 1 1 44 45 89 112
82 3 2 1 1 94 121 122 120
83 3 2 1 1 92 62 61 93
84 3 2 1 1 59 113 91 60
85 3 2 1 1 97 121 112 89
87 3 2 1 1 122 102 68 98
89 3 2 1 1 72 123 110 101
91 3 2 1 1 102 122 121 97
92 3 2 1 1 70 109 120 98
93 3 2 1 1 114 101 110 66
94 3 2 1 1 67 110 123 75
96 3 2 1 1 74 71 114 66
97 3 2 1 1 4 19 113 58
98 3 2 1 1 123 72 100 75
2 2 2 1 1 134 111 93 
39 3 2 1 1 139 65 96 134
45 3 2 1 1 99 137 140 75
51 3 2 1 1 133 106 65 139
52 3 2 1 1 96 108 111 134
69 3 2 1 1 98 68 137 99
70 3 2 1 1 68 60 138 137
79 3 2 1 1 133 138 60 91
80 3 2 1 1 106 133 91 3
86 3 2 1 1 61 66 136 135
88 3 2 1 1 67 75 140 136
90 3 2 1 1 66 110 67 136
95 3 2 1 1 135 134 93 61
99 3 2 1 1 134 135 132 139
100 3 2 1 1 135 136 140 132
101 3 2 1 1 137 138 132 140
102 3 2 1 1 138 133 139 132
$EndElements
