$MeshFormat
2.2 0 8
$EndMeshFormat
$Nodes
915
1 0 0 0
2 0 0 10
3 0 0 100
4 0 90 100
5 0 180 100
6 0 200 100
7 0 200 0
8 0 10 0
9 0 30 25
10 0 0 5
11 0 0 15
12 0 0 20
13 0 0 25
14 0 0 30
15 0 0 35
16 0 0 40
17 0 0 45
18 0 0 50
19 0 0 55
20 0 0 60
21 0 0 65
22 0 0 70
23 0 0 75
24 0 0 80
25 0 0 85
26 0 0 90
27 0 0 95
28 0 5 100
29 0 10 100
30 0 15 100
31 0 20 100
32 0 25 100
33 0 30 100
34 0 35 100
35 0 40 100
36 0 45 100
37 0 50 100
38 0 55 100
39 0 60 100
40 0 65 100
41 0 70 100
42 0 75 100
43 0 80 100
44 0 85 100
45 0 95 100
46 0 100 100
47 0 105 100
48 0 110 100
49 0 115 100
50 0 120 100
51 0 125 100
52 0 130 100
53 0 135 100
54 0 140 100
55 0 145 100
56 0 150 100
57 0 155 100
58 0 160 100
59 0 165 100
60 0 170 100
61 0 175 100
62 0 185 100
63 0 190 100
64 0 195 100
65 0 200 95
66 0 200 90
67 0 200 85
68 0 200 80
69 0 200 75
70 0 200 70
71 0 200 65
72 0 200 60
73 0 200 55
74 0 200 50
75 0 200 45
76 0 200 40
77 0 200 35
78 0 200 30
79 0 200 25
80 0 200 20
81 0 200 15
82 0 200 10
83 0 200 5
84 0 195 0
85 0 190 0
86 0 185 0
87 0 180 0
88 0 175 0
89 0 170 0
90 0 165 0
91 0 160 0
92 0 155 0
93 0 150 0
94 0 145 0
95 0 140 0
96 0 135 0
97 0 130 0
98 0 125 0
99 0 120 0
100 0 115 0
101 0 110 0
102 0 105 0
103 0 100 0
104 0 95 0
105 0 90 0
106 0 85 0
107 0 80 0
108 0 75 0
109 0 70 0
110 0 65 0
111 0 60 0
112 0 55 0
113 0 50 0
114 0 45 0
115 0 40 0
116 0 35 0
117 0 30 0
118 0 25 0
119 0 20 0
120 0 15 0
121 0 5 0
122 0 175.588235294118 97.7941176470588
123 0 171.176470588235 95.5882352941177
124 0 166.764705882353 93.3823529411765
125 0 162.352941176471 91.1764705882353
126 0 157.941176470588 88.9705882352941
127 0 153.529411764706 86.764705882353
128 0 149.117647058824 84.5588235294118
129 0 144.705882352941 82.3529411764706
130 0 140.294117647059 80.1470588235294
131 0 135.882352941177 77.9411764705883
132 0 131.470588235294 75.7352941176471
133 0 127.058823529412 73.5294117647059
134 0 122.647058823529 71.3235294117647
135 0 118.235294117647 69.1176470588236
136 0 113.823529411765 66.9117647058824
137 0 109.411764705882 64.7058823529412
138 0 105 62.5
139 0 100.588235294118 60.2941176470589
140 0 96.1764705882353 58.0882352941177
141 0 91.764705882353 55.8823529411765
142 0 87.3529411764706 53.6764705882353
143 0 82.9411764705883 51.4705882352941
144 0 78.5294117647059 49.264705882353
145 0 74.1176470588236 47.0588235294118
146 0 69.7058823529412 44.8529411764706
147 0 65.2941176470589 42.6470588235294
148 0 60.8823529411765 40.4411764705882
149 0 56.4705882352941 38.2352941176471
150 0 52.0588235294118 36.0294117647059
151 0 47.6470588235294 33.8235294117647
152 0 43.2352941176471 31.6176470588235
153 0 38.8235294117647 29.4117647058824
154 0 34.4117647058823 27.2058823529412
155 0 25.7142857142857 22.8571428571429
156 0 21.4285714285714 20.7142857142857
157 0 17.1428571428571 18.5714285714285
158 0 12.8571428571428 16.4285714285714
159 0 8.57142857142854 14.2857142857143
160 0 4.28571428571427 12.1428571428571
161 0 13.3333333333333 4.16666666666667
162 0 16.6666666666667 8.33333333333333
163 0 20 12.5
164 0 23.3333333333333 16.6666666666667
165 0 26.6666666666667 20.8333333333333
166 0 33.1578947368421 28.9473684210526
167 0 36.3157894736842 32.8947368421053
168 0 39.4736842105263 36.8421052631579
169 0 42.6315789473684 40.7894736842105
170 0 45.7894736842105 44.7368421052632
171 0 48.9473684210526 48.6842105263158
172 0 52.1052631578947 52.6315789473684
173 0 55.2631578947368 56.5789473684211
174 0 58.421052631579 60.5263157894737
175 0 61.5789473684211 64.4736842105263
176 0 64.7368421052632 68.421052631579
177 0 67.8947368421053 72.3684210526316
178 0 71.0526315789474 76.3157894736842
179 0 74.2105263157895 80.2631578947368
180 0 77.3684210526316 84.2105263157895
181 0 80.5263157894737 88.1578947368421
182 0 83.6842105263158 92.1052631578947
183 0 86.8421052631579 96.0526315789474
184 0 159.99993244927 4.99668706436002
185 0 139.998941724028 4.99489812403739
186 0 120.000179291712 4.99444907181896
187 0 105.003122898084 4.99356891318849
188 0 195.004630443799 44.9982627789687
189 0 4.99458860569388 69.9963406428756
190 0 90.0014192562385 4.99218216542237
191 0 195.00975662742 59.9891414518982
192 0 4.9229703044641 44.9634702408745
193 0 74.9981429754335 4.99052352431529
194 0 195.001179919388 24.999129668537
195 0 34.9940169988392 94.9950745529619
196 0 100.131846671051 95.1117502443839
197 0 60.0005585486525 4.96264286877139
198 0 44.9294873083035 4.82100044575757
199 0 109.99689894704 95.0234483793953
200 0 195.081410790574 80.0984756071222
201 0 49.985694955602 94.9912766963793
202 0 119.978263289244 95.0280021541165
203 0 185.000202997472 4.99949984289594
204 0 15.3334041152341 22.45272929705
205 0 129.943039643511 95.0896111356534
206 0 185.330421482727 95.1193709633089
207 0 14.9990950437088 94.9990698671779
208 0 59.9588233444633 95.011604737964
209 0 139.810222628589 95.118035632345
210 0 4.88882241939407 29.6690824978432
211 0 34.8828347681353 4.63342797361327
212 0 30.6706456936677 20.5467231833088
213 0 24.2672923599783 11.1616207893486
214 0 195.000177516442 9.99978461923113
215 0 4.99978340005359 84.9992687080523
216 0 4.97806363076189 59.9931977586479
217 0 149.555801987411 95.1312912068218
218 0 4.3830007913634 4.49969176429048
219 0 26.7715134848405 26.9278008866356
220 0 30.2250058473681 4.26215974196597
221 0 69.8514856085397 95.1101761367532
222 0 154.364191785803 95.0050109207072
223 0 4.63292538832003 24.6192097813118
224 0 4.90903947083164 39.916781705476
225 0 195.028955419243 70.0190467056647
226 0 195.106145039842 85.1195807294071
227 0 4.96156345627979 54.9930225298658
228 0 54.99859875982 4.92734195161316
229 0 69.9985906293781 4.98724081872928
230 0 84.9993423202596 4.99161446428243
231 0 100.003618519881 4.99298636799454
232 0 115.001153312149 4.99408136476553
233 0 129.999419008326 4.99458743669958
234 0 149.999626065205 4.99559680484769
235 0 195.00268502163 34.9991714312872
236 0 195.00605899598 49.995681020149
237 0 169.999964155712 4.99789857504209
238 0 195.000380819593 14.9995919055934
239 0 180.000206092181 4.99907285199367
240 0 195.000073822089 4.99989737497413
241 0 4.99990350404026 94.9998338717488
242 0 195.062349098144 95.0564083217008
243 0 4.99936763634794 79.998738796774
244 0 19.998209897186 94.998287615488
245 0 24.997108702682 94.9972839747647
246 0 39.9912436368305 94.9933730633442
247 0 159.665277046864 94.5088711212245
248 0 3.88072404651925 15.6348901526379
249 0 8.40274443755052 4.76114364819631
250 0 74.5714353133313 95.4543210704955
251 0 91.2289305360154 95.0517883922487
252 0 24.9368066880418 4.71233574733638
253 0 84.166731749848 97.1614829041448
254 0 13.6010136277171 12.7932206241108
255 0 19.5808664623737 3.76131961401501
256 0 120.00124361715 9.98606957721837
257 0 190.011876365071 44.9918114882377
258 0 100.008340333473 9.98313980774582
259 0 9.94805011099712 60.0019278808522
260 0 34.985709379789 89.9886252003151
261 0 74.998157415733 9.97641664812295
262 0 162.623093290529 86.0059379875265
263 0 59.9878948897774 9.9230629577937
264 0 9.80472905650144 45.024386437865
265 0 190.194989219548 80.2325558425794
266 0 185.000762018614 9.99873782589233
267 0 9.99773688411408 79.9973408586498
268 0 14.9979502175883 89.9977906613371
269 0 30.5073945126798 18.0094364375785
270 0 34.7297377553547 9.1989305868791
271 0 10.2048045944639 29.4371676578231
272 0 180.664220144559 94.8027385903715
273 0 19.6037581269867 25.3939820956531
274 0 69.5516562287976 90.4981549893578
275 0 39.8877113068717 4.73300354045793
276 0 190.158969172589 95.113289639938
277 0 4.92893083453639 34.828226064157
278 0 49.9715239722528 4.88250661997046
279 0 4.9389765744294 49.9915955930261
280 0 195.103582114885 90.1036461422543
281 0 195.054909794357 75.0609646663616
282 0 7.6608140349407 9.10530458617197
283 0 195.01585687914 64.9949101856076
284 0 144.701901079462 95.1266539411347
285 0 134.874117177576 95.1191255948659
286 0 4.98716549513884 64.9957548298261
287 0 124.967734337524 95.0590694160744
288 0 114.978861816167 95.0203747102335
289 0 64.9985002894477 4.97820190862709
290 0 79.9983143576696 4.99078120927294
291 0 105.03620304896 95.0521140922489
292 0 95.0030588603308 4.99222167181836
293 0 195.007746155709 54.9911537474854
294 0 110.002343415787 4.99364500414446
295 0 124.999852003199 4.99420225252619
296 0 134.999204835483 4.99454540375012
297 0 144.999357958503 4.99502490577346
298 0 155.000004202162 4.99599849632252
299 0 195.003882608234 39.9986318331158
300 0 165.000022706251 4.99719046424986
301 0 175.000184699296 4.99847975234346
302 0 195.001948885827 29.9989721805045
303 0 190.000469225765 9.99934609238888
304 0 195.000746782643 19.9993146189815
305 0 190.000185644015 4.99969376084837
306 0 4.99979097470077 89.9995653705373
307 0 9.99958141993338 94.999484787319
308 0 19.9959769798335 89.9960690139791
309 0 4.99763848576664 74.9979337796523
310 0 29.9955711021238 94.9960782613352
311 0 44.9884504346654 94.9915933276987
312 0 54.9780007320988 94.9959834274958
313 0 64.9042502405481 95.0710602323804
314 0 30.1506025169394 29.6308375874183
315 0 27.4601927967181 15.7311853478041
316 0 95.3856091558524 95.1815511498399
317 0 24.1515206304507 26.0498013482708
318 0 153.483305364526 90.5727977810474
319 0 8.16893992016293 19.3845779400612
320 0 86.8157315287884 90.8919238502001
321 0 4.28334758550059 19.7919297722112
322 0 12.676032321941 9.12309066976562
323 0 21.206026803005 7.46425811303491
324 0 80.2072387417531 95.1940497447023
325 0 33.9324956567634 20.6383721811611
326 0 167.011875310134 87.3955456866725
327 0 11.8811508652092 20.2702189404115
328 0 145.000593759262 9.98830509846491
329 0 165.001467809401 9.99338678744757
330 0 190.021712909605 64.9531354743629
331 0 105.030743382862 90.1048435388496
332 0 167.357164852229 82.6077626878055
333 0 49.9850307437037 89.9818204784813
334 0 20.8363666322909 28.8971779299595
335 0 114.903209691455 90.0437531847384
336 0 190.004907645156 29.9967126498817
337 0 124.932103840947 90.1443513782787
338 0 49.9128414841698 9.79861529970425
339 0 180.839998934291 90.1086401678459
340 0 9.79962439290662 34.8478319189206
341 0 190.257730290365 90.2162881260369
342 0 190.105141635081 75.1226640307316
343 0 9.85307661738361 50.0333365516429
344 0 64.9953545913976 9.95675624705623
345 0 135.000061710043 9.98708606169391
346 0 190.009418497483 39.9947954107022
347 0 29.9898700635719 89.9913371749926
348 0 134.670026693304 90.3338613744532
349 0 39.9813979826649 89.9847959540641
350 0 26.882537032075 29.5640582793872
351 0 33.4423336415304 16.9096829886681
352 0 153.584236063439 81.9222038830281
353 0 144.366073252456 90.2530431955995
354 0 39.6475945626044 9.48415115713328
355 0 75.4964804586965 89.6408523125042
356 0 9.78883491055703 39.9670128966482
357 0 190.265767533584 85.2624004158646
358 0 29.1535461146577 9.10501912148136
359 0 9.90434220811055 55.0203529813743
360 0 54.9672902642162 9.85352323430536
361 0 95.4317200635632 90.3934588770844
362 0 84.9919139574734 86.1292128797499
363 0 9.97197517252953 64.9979662696554
364 0 69.9993224513826 9.96924647342219
365 0 79.9979186469568 9.97834066037069
366 0 95.0071436074863 9.98172140999012
367 0 125.000588243394 9.98623689861343
368 0 110.005468902673 9.98483452427883
369 0 105.007532341654 9.98366242819649
370 0 190.01754048569 54.9659218571904
371 0 190.015356067162 49.9806979125848
372 0 115.003210318895 9.98504268084535
373 0 175.001297398947 9.99645643089925
374 0 155.001447871567 9.99060750960314
375 0 180.001168525876 9.99766540586146
376 0 190.001862466862 19.9981108895068
377 0 185.001885525989 14.9975299704305
378 0 190.00109257185 14.9987083659344
379 0 9.99913818287348 89.9988249865436
380 0 9.99854992152653 84.998046287491
381 0 9.98653995281497 69.9967791285227
382 0 9.99400673451574 74.9967734997196
383 0 14.9966345086872 84.9963269381045
384 0 59.9419152227946 90.0438531037197
385 0 24.9932469386574 89.9938032781524
386 0 64.8721748339162 90.1558650311675
387 0 30.818048521839 13.516480614679
388 0 34.2894113523637 23.7496600389822
389 0 13.3888081831009 25.8865578368697
390 0 176.59200555638 94.2426987052011
391 0 158.122017523905 84.0155308206279
392 0 30.9370625615752 33.264302681865
393 0 90.853712455273 90.6416999807777
394 0 149.141516674561 90.3179744742532
395 0 9.32229896197772 23.9195671390785
396 0 4.08513357664583 7.67950038643899
397 0 125.003885947633 14.9745494460828
398 0 105.012484062845 14.9700668098444
399 0 14.9043956636266 60.0366568566903
400 0 185.030469206821 49.9527192534021
401 0 80.002691684719 14.9602267454294
402 0 34.9732901692624 84.9800765980019
403 0 64.998657897161 14.9426999954881
404 0 14.9775059203005 69.9993378488915
405 0 49.8729602853379 14.6489235580213
406 0 185.327511437009 80.3424866677723
407 0 14.6043677030908 45.2452664069824
408 0 90.0039127443716 9.98055637761013
409 0 185.003677133609 19.9959057815828
410 0 36.6692095515794 17.2139235030561
411 0 175.76724284423 89.7865522177205
412 0 158.288174722665 79.0925556293885
413 0 60.0585135843424 85.1830702649598
414 0 37.5044624690755 24.2159925041643
415 0 27.004481921316 33.2288918193569
416 0 14.87404462237 34.7924194521413
417 0 185.498667407103 90.2358303535086
418 0 14.7124852561107 50.1652731635292
419 0 190.042436679709 70.0089299867532
420 0 129.851524484504 90.2933548186242
421 0 109.9445430666 90.0627854250041
422 0 119.903964069432 90.067288853046
423 0 85.000785491574 9.97901118228501
424 0 95.0140456411711 14.9664372339814
425 0 140.000460862292 9.98728926799614
426 0 139.478387556194 90.2935640081946
427 0 190.007191020956 34.9959011890518
428 0 150.001429338562 9.98910095195915
429 0 110.009150784312 14.9711456123271
430 0 70.0065159424917 14.9482840286485
431 0 175.00399631208 14.9933932419888
432 0 170.001642586079 9.9947678525564
433 0 130.000629685992 9.98627563521808
434 0 115.006269948667 14.9721863235035
435 0 185.017923278457 39.9872561341448
436 0 190.018330111435 59.9444351664956
437 0 160.001711110884 9.99177968903257
438 0 180.003096763154 14.9955376047703
439 0 190.003356603259 24.997146251403
440 0 14.9946419402904 79.9953828576793
441 0 19.9935519200741 84.9937052446093
442 0 54.8450465711382 14.8237217075846
443 0 54.9873277157544 90.0081563273851
444 0 24.9888026477796 84.9900467635227
445 0 44.9826353656898 89.9812562022759
446 0 44.7338661913292 9.73874897685405
447 0 100.167865789756 90.2142885258356
448 0 171.204743570377 88.2527869653511
449 0 70.2250357793433 85.2477268350396
450 0 16.0831963307833 28.5842285865752
451 0 23.5250791331433 29.3179849070245
452 0 90.3856864105431 85.8159110503471
453 0 149.004766513004 80.0027072546607
454 0 38.8486195985906 14.409600294507
455 0 34.6579526685613 13.108148435338
456 0 162.855095533066 81.015340183613
457 0 80.9828705489348 82.3031054897045
458 0 143.94560703734 85.9146211440147
459 0 13.837196194408 30.8793139267558
460 0 172.930162424294 92.8735113185852
461 0 145.004937342851 14.9784694050322
462 0 110.01423129681 19.952839653572
463 0 163.256688759151 76.2124583795574
464 0 184.978853885355 69.8969075221254
465 0 65.0634876508822 19.9245559600254
466 0 104.947198813432 85.1665616166214
467 0 50.0369287246577 84.9723502372586
468 0 49.6742060751974 18.8061927109543
469 0 119.704094967379 85.0063354214598
470 0 19.2719560857323 45.5556911800376
471 0 171.81466385295 83.8334596166136
472 0 40.9924700948773 17.8811534633097
473 0 85.0067367961675 14.9621098375269
474 0 155.005658018954 14.9827122391653
475 0 31.2046332320205 37.3726880630503
476 0 129.869128429341 85.4976621915607
477 0 180.855163449422 85.3058976591179
478 0 14.5827473155231 40.3017586066869
479 0 44.479713209197 15.0924234629428
480 0 185.069559664419 75.1169873834574
481 0 90.0113812616001 14.9638665540817
482 0 59.9264603361293 14.9477671610085
483 0 14.9494088275616 65.0126506334651
484 0 14.8184089273215 55.0945261924666
485 0 130.004255888792 14.9750416608547
486 0 185.034747875012 54.89837479868
487 0 100.014462446903 14.9678167787094
488 0 185.013656301872 34.9900499449882
489 0 185.006368834581 24.9939321420664
490 0 114.671531932983 85.070565679819
491 0 170.005097144928 14.9905385196728
492 0 75.0045492569177 14.9546117038054
493 0 185.000626190571 64.8016721752254
494 0 185.024314127409 44.9758318250524
495 0 175.008639571168 19.9890031015874
496 0 120.004863173093 14.9730056851914
497 0 135.004392680687 14.9758105978086
498 0 160.005912857044 14.9850222584583
499 0 180.006207155293 19.9926248758889
500 0 14.9890142373505 74.9959853576255
501 0 29.9812637289968 84.9853264159742
502 0 138.944391597602 84.9638132666536
503 0 64.904356712359 85.3978351653744
504 0 19.9899381105292 79.9921319824711
505 0 39.9711521883965 84.9733820647864
506 0 55.1083604255834 85.0380298815329
507 0 153.595683158896 77.0355050329543
508 0 85.2552363684938 81.0737269180428
509 0 78.5327353471309 78.4042468009799
510 0 185.496566522574 85.3209597815309
511 0 95.2387172585654 85.5102510163906
512 0 37.8982535873341 20.2545192692072
513 0 144.773877883739 78.8383085384627
514 0 37.0618047705869 26.3373149980897
515 0 170.653461161129 91.3278205303178
516 0 23.2988654693928 32.8968911230283
517 0 19.4317920416537 36.6570994757203
518 0 19.2036500658234 31.8522845678004
519 0 167.567856691451 78.1297558517455
520 0 130.011787121506 19.9594486173727
521 0 90.0232429398772 19.9424246787959
522 0 19.83514304913 60.0811779462405
523 0 180.068836431812 49.9128796508273
524 0 155.013156012571 19.9722450082567
525 0 75.0239632725632 19.9232195705348
526 0 34.9551710411304 79.9689241620604
527 0 83.6778611490701 76.0504498270907
528 0 169.528574679149 73.4492364920496
529 0 50.138092082724 79.9580931139692
530 0 170.011272663813 19.9846479069775
531 0 179.538374179003 75.0629673152941
532 0 60.0020112604572 20.0400816901966
533 0 180.03091820646 39.9812107752438
534 0 27.2037099220044 37.2101179346574
535 0 118.984889776397 79.8223336336549
536 0 172.367792704383 79.0205001575832
537 0 60.6355607451078 80.4818130798713
538 0 180.625265399464 80.4642758417835
539 0 19.1592086780197 40.8683030563113
540 0 46.0582040106551 19.2879870254854
541 0 41.1287976849579 25.5795389066077
542 0 54.3914145811346 20.3882111968694
543 0 109.78698577195 85.1204645105501
544 0 124.847653130891 85.0587447291241
545 0 100.022090593517 19.9481710319744
546 0 120.011529894255 19.9562541528444
547 0 185.025375991004 59.8272857632929
548 0 19.4880282068525 50.3385757050768
549 0 140.004785297204 14.976698657554
550 0 105.018088434719 19.9501494975401
551 0 70.0484239573839 19.9121077188031
552 0 150.00578938125 14.9800655139609
553 0 115.012600871582 19.9540639412284
554 0 165.005982956508 14.9875227230443
555 0 185.009894007715 29.9918407646838
556 0 175.015215651681 24.9836548395087
557 0 85.0196914441633 19.938702598577
558 0 180.010658438343 24.9891032195315
559 0 179.843067638175 69.4807641909286
560 0 100.086427886765 85.291068050588
561 0 24.9816047419162 79.9865190796953
562 0 44.9950265566091 84.969185708563
563 0 19.9633509526878 70.0013736892432
564 0 19.9807581046073 74.9932837233198
565 0 42.4925363682653 21.4761478608768
566 0 158.490327390271 74.1705032450033
567 0 148.775739048875 75.1588848009723
568 0 89.956928733132 80.8254545985398
569 0 35.0822486015339 37.7595075447831
570 0 134.213011450234 86.0552996480907
571 0 176.288036874638 84.7905917053831
572 0 23.2815883499739 36.9557135582812
573 0 68.8505226337501 81.0640785262153
574 0 139.524830076644 75.751947677627
575 0 75.6473780975131 74.24370318469
576 0 115.025859598811 24.9315384255435
577 0 85.0356825219218 24.9066868823447
578 0 70.1623842065418 24.8322570521327
579 0 89.6689913500147 75.7031637615816
580 0 99.9327619413102 80.3436390275061
581 0 170.020383647833 24.9776333808767
582 0 55.7247370280377 25.7029684621008
583 0 105.031373236421 24.9263207659942
584 0 140.011274230496 19.9627971165012
585 0 150.012518149625 19.9683896211685
586 0 175.023531218179 29.9792671576931
587 0 39.958035501161 79.9581464527362
588 0 23.7661282194625 45.7489830075251
589 0 45.9138948026563 27.678760136827
590 0 174.603750156306 73.2080170891292
591 0 124.556662494317 78.718221451253
592 0 19.6827917667982 55.1836688252221
593 0 109.464332996244 80.2333955852718
594 0 114.120162185494 80.1101145705089
595 0 179.974314305001 64.4737700096309
596 0 180.089285978625 54.7821264575077
597 0 125.012167318916 19.9574331615306
598 0 95.0243889848942 19.9447291618387
599 0 135.011814188485 19.9605577933198
600 0 180.04808082334 44.9661403512324
601 0 180.022732258706 34.9835943239228
602 0 80.0195460992045 19.931447978745
603 0 165.013326241261 19.9801355931532
604 0 160.014053193894 19.9758511868487
605 0 180.016431126126 29.9859136942571
606 0 29.9680290223841 79.9782963813316
607 0 60.4548378061642 25.0335089288921
608 0 65.0041785695455 81.3504680021874
609 0 24.9382476769172 69.9913528527541
610 0 24.9652183836532 74.9850627683027
611 0 19.9124615604665 65.0273192558853
612 0 95.0034978355462 80.5424236348423
613 0 55.4445255731553 80.06406906784
614 0 79.6802366312617 72.0703130389983
615 0 72.7059193223625 69.5203885353606
616 0 163.853516298602 71.2865336730438
617 0 45.0100789834927 79.9507905211889
618 0 153.653086618614 72.0911522290854
619 0 143.331938269129 73.8165996092164
620 0 31.0816194621572 41.185501142312
621 0 27.4768129391629 41.3329933799316
622 0 23.4452825375368 41.2537729952967
623 0 46.4206168482714 23.0703309174044
624 0 134.770902208729 73.3992852826994
625 0 175.651057087765 77.0038654540966
626 0 176.570754365022 80.6382905503248
627 0 39.4846451671896 42.0291365930141
628 0 66.999944653351 78.2039163977808
629 0 135.024747657428 24.9411201784728
630 0 150.024743789805 24.953867924765
631 0 175.181556560278 49.898064359787
632 0 24.5054659804486 55.201132603946
633 0 170.032014332253 29.9739817891044
634 0 39.9184104949941 74.9424502623192
635 0 77.892939712134 67.9876139551352
636 0 41.0957439939019 46.9030392042963
637 0 94.8217731123697 75.5021476820905
638 0 169.597927226424 67.7838435848464
639 0 50.1972857514824 74.932671890596
640 0 80.0448647294371 24.8909669980782
641 0 24.860282040113 65.0203405229952
642 0 29.8907772187564 69.9712538259641
643 0 56.9548260687434 29.9670545216863
644 0 113.177988251213 75.609855012385
645 0 174.74724231034 68.7546088842826
646 0 62.3406071378902 75.1578093853722
647 0 75.0895206726594 24.8590230854741
648 0 125.026251844755 24.9365377874276
649 0 110.029173405325 24.9285503550611
650 0 120.027181529059 24.9335291620851
651 0 24.1554288038449 50.3930276730716
652 0 31.8490231066379 45.0103282519492
653 0 95.0387697054469 24.9181735706206
654 0 90.0377959810115 24.9120624979581
655 0 160.026632897573 24.9660556522022
656 0 175.048759898166 39.99047527452
657 0 65.3113824524292 24.8553578740735
658 0 145.012052099719 19.9649344019425
659 0 180.064882520617 59.5998882641459
660 0 175.03414248306 34.9816637190448
661 0 165.024883087317 24.9720599160672
662 0 104.727709550175 80.2600573383402
663 0 100.037185727574 24.9221571242113
664 0 29.9401638937338 74.9721915046535
665 0 158.81638077828 69.2239843492233
666 0 148.707832762835 70.0863213317075
667 0 50.0622041599601 22.8110091126743
668 0 84.4672222603063 70.1763733570465
669 0 137.981721429243 71.3181676799819
670 0 130.297157073817 80.5512015386639
671 0 47.2616041666282 39.0065073594826
672 0 121.58402984901 74.5883571593862
673 0 28.0728781119497 45.5921577712124
674 0 45.1730200528887 36.430704704475
675 0 35.3105983845093 42.472261857088
676 0 68.6020356241584 66.0971733508361
677 0 129.494663474922 70.0888142366619
678 0 120.056561741829 29.9040274068716
679 0 100.09034687516 29.8942035857184
680 0 85.0447567517711 29.8542260230529
681 0 66.3753151689454 61.7002024449246
682 0 70.412097026346 29.653690924118
683 0 81.6937148626843 66.3644753524282
684 0 145.024175645841 24.9480350976157
685 0 29.7730531446559 65.0005567165901
686 0 122.018488499073 66.0587261558909
687 0 170.031502220632 62.8665165966159
688 0 175.287156260001 54.6242072302061
689 0 55.6953114781531 75.0079327943742
690 0 89.6350865229978 70.5148568538063
691 0 34.3097072891695 49.4232783037711
692 0 60.6705512762134 69.8814351279673
693 0 175.003225123552 63.8845140371959
694 0 80.0778688236217 29.8116511352645
695 0 110.075224829596 29.8983219040836
696 0 90.0555223556147 29.8732381773506
697 0 130.026876973814 24.9383367409021
698 0 170.071619468658 40.0175712560511
699 0 140.024858130207 24.9435155378111
700 0 155.027034490491 24.9600464126954
701 0 165.040101745675 29.9701527967657
702 0 104.384999612734 75.383395393617
703 0 108.910276194912 75.3838956098646
704 0 170.047839601773 34.9865824520006
705 0 99.6843792037082 75.4338925796909
706 0 61.1754583558421 29.855186603307
707 0 175.096506384507 44.9890932259868
708 0 164.408003366611 66.2200710686468
709 0 24.7126459893081 60.0840867975656
710 0 44.9895174510268 74.9302200143473
711 0 72.6717508968659 64.6013479872636
712 0 153.857556892601 67.1095278851949
713 0 34.8272950763425 69.9626714967731
714 0 34.9130273911474 74.9603750557689
715 0 143.642778857314 68.1654182087192
716 0 51.1788622863299 26.9210022493385
717 0 28.8483470074006 50.1853126026989
718 0 133.689273973964 69.5446603838441
719 0 54.0364152632342 40.6520161728319
720 0 36.878178758811 46.2073000063583
721 0 45.2110230573598 50.7978817835833
722 0 52.909559871785 31.7866246938053
723 0 125.486090244957 67.8642178173404
724 0 134.598523324163 81.8634851212183
725 0 117.547869748411 74.1403404771055
726 0 140.062247083215 29.9184079311719
727 0 85.0559658352741 34.8049934330533
728 0 34.6465710932823 65.0221939443181
729 0 50.119206939271 69.9037803521966
730 0 48.2582461543147 54.4284462201204
731 0 170.913426797182 54.4079701794765
732 0 71.6230201769936 60.597277566929
733 0 34.2523561540792 55.1870112561441
734 0 150.055967314851 29.9365120163133
735 0 160.047028915918 29.9644880025435
736 0 170.158359990954 45.0537966969748
737 0 94.6626593503712 70.3175460877012
738 0 103.760784130014 70.9776140460723
739 0 42.782297990313 52.6086692038431
740 0 165.026904014026 61.2160832009975
741 0 53.717243738055 46.8574179409778
742 0 128.28460906698 64.1722973505883
743 0 29.5793128256526 60.0706384519707
744 0 105.095022911276 29.897214161042
745 0 115.067656576112 29.8987112246203
746 0 65.7770728336652 29.6838823049751
747 0 130.057217051588 29.912855468963
748 0 125.05758996906 29.9081324800498
749 0 165.107798695892 40.0498887834069
750 0 95.0812289221344 29.8853226215262
751 0 165.064469858852 34.9942538066369
752 0 75.2014583814557 29.739426299903
753 0 159.290712427733 64.2181528984331
754 0 55.6481967520145 69.9611733748873
755 0 148.896664624469 65.0188880125355
756 0 39.7724071708724 69.962371648871
757 0 76.3960991124658 64.101144735229
758 0 138.62816982189 66.3786418552744
759 0 118.196937486607 65.5024834801838
760 0 29.3378733729662 55.1035043515832
761 0 170.83883834119 58.6430722189847
762 0 175.265412098166 59.1933636296212
763 0 57.3021282274875 34.2294792665491
764 0 57.4548464829872 43.3546093311443
765 0 112.961487055162 71.1235791976121
766 0 62.4384424445164 58.3461335082858
767 0 39.5142539555794 51.443646038953
768 0 50.2298342019753 42.6283127776496
769 0 85.5945883480713 65.6805955077318
770 0 125.085689822505 34.8684147660259
771 0 110.210784130044 34.838501927311
772 0 95.2107281652776 34.856490875392
773 0 159.969416342916 59.1944062189311
774 0 165.262361739406 45.1082591020733
775 0 39.4734006271583 65.0958932240161
776 0 75.3560080128837 34.5467064434857
777 0 75.8457189836016 59.9632085087029
778 0 44.065763263923 56.2384720808403
779 0 54.0316586515907 61.6636822289837
780 0 66.5154581636645 34.0708903698001
781 0 60.2260792876111 54.2167703467487
782 0 133.745367434348 65.0870220609375
783 0 58.1301986361366 48.9637882202844
784 0 34.4106051407038 60.153634507964
785 0 166.182071231894 55.7913044033243
786 0 80.1281622349626 34.657381908445
787 0 115.145744985222 34.832616720452
788 0 155.054142747603 29.9528200796155
789 0 145.063888924661 29.9239090849932
790 0 170.407360854192 49.9931318052678
791 0 90.1370146046833 34.8514143853026
792 0 160.149446610599 40.0667523304819
793 0 99.4849060579459 70.485745938924
794 0 160.084398022248 34.9919167496842
795 0 105.275386992197 34.8538659814009
796 0 135.064349123466 29.9150103806593
797 0 44.8319825612514 69.9164799862655
798 0 154.268688517043 62.0953534019735
799 0 66.6346728712849 56.8911074126682
800 0 89.3617469361822 65.9107044726584
801 0 143.924095649764 63.0558207313763
802 0 122.893892867221 61.6704234265604
803 0 112.190607876697 62.378796148124
804 0 39.0615241539927 55.753869488989
805 0 55.5733655139899 65.5739273501212
806 0 62.036634379051 35.3079085091118
807 0 108.206950024953 69.8607564588316
808 0 51.2198808740676 58.249288206292
809 0 60.8593577500729 45.8299320321486
810 0 80.4783985578532 61.7046556175638
811 0 135.141546219212 34.8980094339423
812 0 110.462719118536 39.6566385536954
813 0 154.901709740764 57.0064569107676
814 0 90.3935569688499 39.9376452011787
815 0 160.382668574036 45.2011982332256
816 0 145.162682368034 34.89083507048
817 0 44.3408954936398 65.041422480919
818 0 80.1016903867016 39.5326386884911
819 0 65.5372970395103 53.3148737908091
820 0 94.342862060117 64.1577767344256
821 0 165.609902092479 50.1184727092245
822 0 129.453609743749 59.1199043206446
823 0 85.0413863496038 61.8812583550179
824 0 81.4347337694639 56.3405009841617
825 0 47.6211186369799 60.0305306720021
826 0 120.097280740302 34.8456291197472
827 0 155.202589095263 40.0150057568903
828 0 150.140239373321 34.9155818153124
829 0 155.114913070707 34.9631144608074
830 0 130.10659065854 34.8848877113426
831 0 70.7720821366392 34.4200365123138
832 0 100.284593630365 34.8623804302475
833 0 149.292190548618 59.9987473813829
834 0 160.9865460667 54.6527248663177
835 0 70.659013471675 56.5264809416387
836 0 49.8908222825674 64.5077351330554
837 0 138.976313048323 61.3907996095291
838 0 116.996940877994 60.5589674390269
839 0 43.5240834474294 60.7698370129025
840 0 39.1845275102515 60.3990899641985
841 0 108.426516476583 58.7340643056442
842 0 57.0079374721862 51.6602600725175
843 0 66.4464207260489 38.4826338482444
844 0 67.016207375473 47.5505072091476
845 0 103.930289105322 66.6321205859968
846 0 62.8203260002384 49.6520469767667
847 0 125.051034200806 39.8061194396638
848 0 149.874274001211 54.9812462802879
849 0 155.425392714216 45.2172321599667
850 0 88.4606145794408 50.3333730438677
851 0 124.593496041249 55.8847295738514
852 0 89.3833910568923 60.6811955594128
853 0 75.7740574145005 38.8729958083956
854 0 85.1984845092877 39.9792738301334
855 0 100.668690499033 39.8369019570323
856 0 105.677283018957 39.7483933566208
857 0 145.413831677693 39.8456456051701
858 0 150.31478566382 39.8785266597577
859 0 140.180442025101 34.9002522108279
860 0 95.5653176952071 39.8249946622685
861 0 130.103819178957 39.8697806360119
862 0 115.225839134067 39.660410156154
863 0 134.094386175957 60.1540773947048
864 0 144.349167754882 58.0578739036138
865 0 156.07440985559 51.2771804511583
866 0 161.122817902586 49.8955782654829
867 0 99.712158898735 65.4155550114212
868 0 112.959408203895 56.1722604932785
869 0 71.1958438510009 39.8406206411825
870 0 75.9326240969593 54.8098232600622
871 0 85.6262213657062 57.672625932786
872 0 70.3172795985832 51.354280694672
873 0 103.105805919423 57.0502696718593
874 0 96.6518770114729 53.2391455990891
875 0 106.385441844587 44.3627178709259
876 0 144.964314801502 53.1238865339282
877 0 124.910255205153 44.7344293985846
878 0 140.422191190568 39.9765064514844
879 0 95.9053770245494 44.4126800158075
880 0 146.009780344323 44.3504066703328
881 0 118.163647922447 54.3299188136957
882 0 150.433846852621 49.9413452173242
883 0 120.079210106115 39.7277486501126
884 0 135.257592509777 39.9823680714253
885 0 150.53981729154 44.8799884112416
886 0 110.742294479131 44.1302026815414
887 0 129.982797299813 54.5221204663428
888 0 139.426221927822 56.4501203976025
889 0 79.6794162043571 44.4565712362766
890 0 106.269996074561 53.6673409743733
891 0 85.5454923639049 46.3396078377077
892 0 100.045410375499 54.8090482767365
893 0 92.5865049827248 50.6590362112324
894 0 115.168420039377 44.3002142421359
895 0 110.945954969185 52.4466026768135
896 0 124.673503456364 49.803330757664
897 0 102.025240693372 51.4482546464833
898 0 140.025235650122 51.4495744175093
899 0 135.22901432452 45.1962995202226
900 0 103.616510989321 48.7318922594066
901 0 141.091010262036 45.8614101795237
902 0 119.94624335492 44.5529865963874
903 0 129.998012282747 44.9139909797727
904 0 134.564842071687 55.318489521195
905 0 101.391342833928 45.2131363750044
906 0 91.2826660310052 45.1318373084693
907 0 97.830854619456 49.1147014891191
908 0 145.9128855829 48.860910323354
909 0 75.401683816478 43.0992370413948
910 0 129.852481061214 49.9781518694568
911 0 119.903087798345 49.1803922237939
912 0 134.970529280437 50.4160560969368
913 0 107.515890679915 48.8403001415509
914 0 114.397140461469 49.2371457361172
915 0 110.883541824326 47.3096537913828
$EndNodes
$Elements
901
1 2 2 1 1 167 153 166 
2 2 2 1 1 590 625 531 
3 2 2 1 1 155 9 165 
4 2 2 1 1 158 254 159 
5 2 2 1 1 154 388 9 
6 2 2 1 1 157 156 164 
7 2 2 1 1 677 742 723 
8 2 2 1 1 153 514 154 
9 2 2 1 1 389 395 271 
10 2 2 1 1 163 157 164 
11 2 2 1 1 870 872 835 
12 2 2 1 1 838 881 868 
13 2 2 1 1 411 460 390 
14 2 2 1 1 9 314 166 
15 2 2 1 1 165 315 164 
16 2 2 1 1 731 785 761 
17 2 2 1 1 9 212 165 
18 2 2 1 1 324 355 250 
19 2 2 1 1 351 455 387 
20 2 2 1 1 161 120 8 
21 2 2 1 1 180 355 181 
22 2 2 1 1 252 358 220 
23 2 2 1 1 834 866 865 
24 2 2 1 1 255 323 252 
25 2 2 1 1 536 626 625 
26 2 2 1 1 517 518 416 
27 2 2 1 1 355 449 274 
28 2 2 1 1 468 667 542 
29 2 2 1 1 160 248 159 
30 2 2 1 1 362 508 457 
31 2 2 1 1 681 799 766 
32 2 2 1 1 615 711 676 
33 2 2 1 1 502 724 570 
34 2 2 1 1 527 668 614 
35 2 2 1 1 820 852 800 
36 2 2 1 1 135 759 136 
37 2 2 1 1 822 887 851 
38 2 2 1 1 901 908 880 
39 2 2 1 1 895 913 890 
40 2 2 1 1 779 836 805 
41 2 2 1 1 573 628 608 
42 2 2 1 1 778 839 825 
43 2 2 1 1 519 536 528 
44 2 2 1 1 179 573 449 
45 2 2 1 1 150 719 149 
46 2 2 1 1 619 669 574 
47 2 2 1 1 668 769 683 
48 2 2 1 1 319 395 327 
49 2 2 1 1 879 907 905 
50 2 2 1 1 819 846 781 
51 2 2 1 1 159 282 160 
52 2 2 1 1 150 722 151 
53 2 2 1 1 134 723 686 
54 2 2 1 1 874 907 893 
55 2 2 1 1 140 892 874 
56 2 2 1 1 8 249 161 
57 2 2 1 1 669 718 624 
58 2 2 1 1 136 803 137 
59 2 2 1 1 129 513 130 
60 2 2 1 1 841 890 873 
61 2 2 1 1 4 251 183 
62 2 2 1 1 807 845 738 
63 2 2 1 1 129 458 128 
64 2 2 1 1 911 914 881 
65 2 2 1 1 161 322 162 
66 2 2 1 1 172 741 171 
67 2 2 1 1 130 574 131 
68 2 2 1 1 757 810 777 
69 2 2 1 1 175 692 176 
70 2 2 1 1 565 623 540 
71 2 2 1 1 168 627 169 
72 2 2 1 1 127 318 126 
73 2 2 1 1 131 624 132 
74 2 2 1 1 652 675 620 
75 2 2 1 1 167 569 168 
76 2 2 1 1 183 320 182 
77 2 2 1 1 147 844 146 
78 2 2 1 1 132 677 133 
79 2 2 1 1 512 565 472 
80 2 2 1 1 783 846 809 
81 2 2 1 1 722 763 643 
82 2 2 1 1 852 871 823 
83 2 2 1 1 725 765 644 
84 2 2 1 1 869 909 853 
85 2 2 1 1 806 843 780 
86 2 2 1 1 154 9 166 
87 2 2 1 1 5 122 61 
88 2 2 1 1 151 589 152 
89 2 2 1 1 167 152 153 
90 2 2 1 1 168 152 167 
91 2 2 1 1 166 153 154 
92 2 2 1 1 472 479 454 
93 2 2 1 1 247 124 125 
94 2 2 1 1 125 126 247 
95 3 2 1 1 83 7 84 240
96 3 2 1 1 214 82 83 240
97 3 2 1 1 56 57 222 217
98 3 2 1 1 227 19 20 216
99 3 2 1 1 197 111 112 228
100 3 2 1 1 224 16 17 192
101 3 2 1 1 32 245 244 31
102 3 2 1 1 206 62 63 276
103 3 2 1 1 63 64 242 276
104 3 2 1 1 203 86 87 239
105 3 2 1 1 65 242 64 6
106 3 2 1 1 67 68 200 226
107 3 2 1 1 13 14 210 223
108 3 2 1 1 102 103 231 187
109 3 2 1 1 35 246 195 34
110 3 2 1 1 74 75 188 236
111 3 2 1 1 190 105 106 230
112 3 2 1 1 186 99 100 232
113 3 2 1 1 26 306 215 25
114 3 2 1 1 25 215 243 24
115 3 2 1 1 28 241 27 3
116 3 2 1 1 241 306 26 27
117 3 2 1 1 240 84 85 305
118 3 2 1 1 304 80 81 238
119 3 2 1 1 305 85 86 203
120 3 2 1 1 241 28 29 307
121 3 2 1 1 81 82 214 238
122 3 2 1 1 235 77 78 302
123 3 2 1 1 194 79 80 304
124 3 2 1 1 302 78 79 194
125 3 2 1 1 214 303 378 238
126 3 2 1 1 307 379 306 241
127 3 2 1 1 29 30 207 307
128 3 2 1 1 303 214 240 305
129 3 2 1 1 304 238 378 376
130 3 2 1 1 375 266 203 239
131 3 2 1 1 31 244 207 30
132 3 2 1 1 23 309 189 22
133 3 2 1 1 304 376 439 194
134 3 2 1 1 328 428 234 297
135 3 2 1 1 305 203 266 303
136 3 2 1 1 239 87 88 301
137 3 2 1 1 188 75 76 299
138 3 2 1 1 379 307 207 268
139 3 2 1 1 377 378 303 266
140 3 2 1 1 301 88 89 237
141 3 2 1 1 215 306 379 380
142 3 2 1 1 267 243 215 380
143 3 2 1 1 243 309 23 24
144 3 2 1 1 237 89 90 300
145 3 2 1 1 216 20 21 286
146 3 2 1 1 336 302 194 439
147 3 2 1 1 184 91 92 298
148 3 2 1 1 299 76 77 235
149 3 2 1 1 347 385 245 310
150 3 2 1 1 501 402 526 606
151 3 2 1 1 308 268 207 244
152 3 2 1 1 245 32 33 310
153 3 2 1 1 234 93 94 297
154 3 2 1 1 239 301 373 375
155 3 2 1 1 383 268 308 441
156 3 2 1 1 191 72 73 293
157 3 2 1 1 185 95 96 296
158 3 2 1 1 297 94 95 185
159 3 2 1 1 266 375 438 377
160 3 2 1 1 233 97 98 295
161 3 2 1 1 329 300 184 437
162 3 2 1 1 437 498 554 329
163 3 2 1 1 726 699 629 796
164 3 2 1 1 232 100 101 294
165 3 2 1 1 193 108 109 229
166 3 2 1 1 374 437 184 298
167 3 2 1 1 300 90 91 184
168 3 2 1 1 257 346 435 494
169 3 2 1 1 378 377 409 376
170 3 2 1 1 231 103 104 292
171 3 2 1 1 609 610 664 642
172 3 2 1 1 225 70 71 283
173 3 2 1 1 795 744 679 832
174 3 2 1 1 488 427 336 555
175 3 2 1 1 377 438 499 409
176 3 2 1 1 189 309 382 381
177 3 2 1 1 230 106 107 290
178 3 2 1 1 21 22 189 286
179 3 2 1 1 298 92 93 234
180 3 2 1 1 246 35 36 311
181 3 2 1 1 302 336 427 235
182 3 2 1 1 385 308 244 245
183 3 2 1 1 485 497 345 433
184 3 2 1 1 300 329 432 237
185 3 2 1 1 298 234 428 374
186 3 2 1 1 345 497 549 425
187 3 2 1 1 257 371 236 188
188 3 2 1 1 331 447 196 291
189 3 2 1 1 316 45 46 196
190 3 2 1 1 33 34 195 310
191 3 2 1 1 229 109 110 289
192 3 2 1 1 679 744 583 663
193 3 2 1 1 373 301 237 432
194 3 2 1 1 434 496 256 372
195 3 2 1 1 376 409 489 439
196 3 2 1 1 345 296 233 433
197 3 2 1 1 293 73 74 236
198 3 2 1 1 296 96 97 233
199 3 2 1 1 380 379 268 383
200 3 2 1 1 482 263 360 442
201 3 2 1 1 196 46 47 291
202 3 2 1 1 295 98 99 186
203 3 2 1 1 232 372 256 186
204 3 2 1 1 309 243 267 382
205 3 2 1 1 201 37 38 312
206 3 2 1 1 291 47 48 199
207 3 2 1 1 258 369 187 231
208 3 2 1 1 294 101 102 187
209 3 2 1 1 557 473 401 602
210 3 2 1 1 776 752 682 831
211 3 2 1 1 199 48 49 288
212 3 2 1 1 435 346 427 488
213 3 2 1 1 293 236 371 370
214 3 2 1 1 292 104 105 190
215 3 2 1 1 409 499 558 489
216 3 2 1 1 290 107 108 193
217 3 2 1 1 431 491 530 495
218 3 2 1 1 496 434 553 546
219 3 2 1 1 609 563 564 610
220 3 2 1 1 283 71 72 191
221 3 2 1 1 437 374 474 498
222 3 2 1 1 520 599 497 485
223 3 2 1 1 431 438 375 373
224 3 2 1 1 495 499 438 431
225 3 2 1 1 260 347 310 195
226 3 2 1 1 796 747 830 811
227 3 2 1 1 202 50 51 287
228 3 2 1 1 462 553 434 429
229 3 2 1 1 811 859 726 796
230 3 2 1 1 439 489 555 336
231 3 2 1 1 440 500 382 267
232 3 2 1 1 367 295 186 256
233 3 2 1 1 208 39 40 313
234 3 2 1 1 36 37 201 311
235 3 2 1 1 308 385 444 441
236 3 2 1 1 580 560 466 662
237 3 2 1 1 430 492 261 364
238 3 2 1 1 524 604 498 474
239 3 2 1 1 424 487 258 366
240 3 2 1 1 734 788 700 630
241 3 2 1 1 429 434 372 368
242 3 2 1 1 229 364 261 193
243 3 2 1 1 335 490 543 421
244 3 2 1 1 385 347 501 444
245 3 2 1 1 563 404 500 564
246 3 2 1 1 289 110 111 197
247 3 2 1 1 288 49 50 202
248 3 2 1 1 525 602 401 492
249 3 2 1 1 299 235 427 346
250 3 2 1 1 294 187 369 368
251 3 2 1 1 296 345 425 185
252 3 2 1 1 367 433 233 295
253 3 2 1 1 561 444 501 606
254 3 2 1 1 205 52 53 285
255 3 2 1 1 374 428 552 474
256 3 2 1 1 38 39 208 312
257 3 2 1 1 365 290 193 261
258 3 2 1 1 287 51 52 205
259 3 2 1 1 382 500 404 381
260 3 2 1 1 370 436 191 293
261 3 2 1 1 368 372 232 294
262 3 2 1 1 402 501 347 260
263 3 2 1 1 552 428 328 461
264 3 2 1 1 328 297 185 425
265 3 2 1 1 556 558 499 495
266 3 2 1 1 491 431 373 432
267 3 2 1 1 826 787 862 883
268 3 2 1 1 710 639 729 797
269 3 2 1 1 346 257 188 299
270 3 2 1 1 267 380 383 440
271 3 2 1 1 586 605 558 556
272 3 2 1 1 492 430 551 525
273 3 2 1 1 328 425 549 461
274 3 2 1 1 546 597 397 496
275 3 2 1 1 342 480 406 265
276 3 2 1 1 441 444 561 504
277 3 2 1 1 489 558 605 555
278 3 2 1 1 445 349 246 311
279 3 2 1 1 365 423 230 290
280 3 2 1 1 630 700 524 585
281 3 2 1 1 383 441 504 440
282 3 2 1 1 432 329 554 491
283 3 2 1 1 349 260 195 246
284 3 2 1 1 601 488 555 605
285 3 2 1 1 40 41 221 313
286 3 2 1 1 556 581 633 586
287 3 2 1 1 400 371 257 494
288 3 2 1 1 505 402 260 349
289 3 2 1 1 495 530 581 556
290 3 2 1 1 861 884 811 830
291 3 2 1 1 702 705 580 662
292 3 2 1 1 369 258 487 398
293 3 2 1 1 554 498 604 603
294 3 2 1 1 398 429 368 369
295 3 2 1 1 348 285 209 426
296 3 2 1 1 485 397 597 520
297 3 2 1 1 578 647 525 551
298 3 2 1 1 552 461 658 585
299 3 2 1 1 576 650 546 553
300 3 2 1 1 285 53 54 209
301 3 2 1 1 604 524 700 655
302 3 2 1 1 663 653 750 679
303 3 2 1 1 366 258 231 292
304 3 2 1 1 200 68 69 281
305 3 2 1 1 603 530 491 554
306 3 2 1 1 485 433 367 397
307 3 2 1 1 465 551 430 403
308 3 2 1 1 500 440 504 564
309 3 2 1 1 655 661 603 604
310 3 2 1 1 750 696 791 772
311 3 2 1 1 661 581 530 603
312 3 2 1 1 443 333 201 312
313 3 2 1 1 585 524 474 552
314 3 2 1 1 288 335 421 199
315 3 2 1 1 256 496 397 367
316 3 2 1 1 408 366 292 190
317 3 2 1 1 832 772 860 855
318 3 2 1 1 384 208 313 386
319 3 2 1 1 701 633 581 661
320 3 2 1 1 359 259 399 484
321 3 2 1 1 404 563 611 483
322 3 2 1 1 331 291 199 421
323 3 2 1 1 481 424 366 408
324 3 2 1 1 464 419 330 493
325 3 2 1 1 609 642 685 641
326 3 2 1 1 190 230 423 408
327 3 2 1 1 562 505 349 445
328 3 2 1 1 191 436 330 283
329 3 2 1 1 311 201 333 445
330 3 2 1 1 600 707 631 523
331 3 2 1 1 287 337 422 202
332 3 2 1 1 523 400 494 600
333 3 2 1 1 228 360 263 197
334 3 2 1 1 772 832 679 750
335 3 2 1 1 192 17 18 279
336 3 2 1 1 550 462 429 398
337 3 2 1 1 704 660 586 633
338 3 2 1 1 707 600 533 656
339 3 2 1 1 488 601 533 435
340 3 2 1 1 551 465 657 578
341 3 2 1 1 751 794 792 749
342 3 2 1 1 563 609 641 611
343 3 2 1 1 656 533 601 660
344 3 2 1 1 435 533 600 494
345 3 2 1 1 564 504 561 610
346 3 2 1 1 312 208 384 443
347 3 2 1 1 549 497 599 584
348 3 2 1 1 545 663 583 550
349 3 2 1 1 662 593 703 702
350 3 2 1 1 605 586 660 601
351 3 2 1 1 751 704 633 701
352 3 2 1 1 682 752 647 578
353 3 2 1 1 748 678 826 770
354 3 2 1 1 774 736 698 749
355 3 2 1 1 649 583 744 695
356 3 2 1 1 545 550 398 487
357 3 2 1 1 335 288 202 422
358 3 2 1 1 331 466 560 447
359 3 2 1 1 649 462 550 583
360 3 2 1 1 261 492 401 365
361 3 2 1 1 660 704 698 656
362 3 2 1 1 704 751 749 698
363 3 2 1 1 770 830 747 748
364 3 2 1 1 709 522 611 641
365 3 2 1 1 584 658 461 549
366 3 2 1 1 695 745 576 649
367 3 2 1 1 486 596 659 547
368 3 2 1 1 794 751 701 735
369 3 2 1 1 331 421 543 466
370 3 2 1 1 597 546 650 648
371 3 2 1 1 814 860 772 791
372 3 2 1 1 445 333 467 562
373 3 2 1 1 606 664 610 561
374 3 2 1 1 364 229 289 344
375 3 2 1 1 370 486 547 436
376 3 2 1 1 598 521 654 653
377 3 2 1 1 481 408 423 473
378 3 2 1 1 684 630 585 658
379 3 2 1 1 576 553 462 649
380 3 2 1 1 658 584 699 684
381 3 2 1 1 371 400 486 370
382 3 2 1 1 648 697 520 597
383 3 2 1 1 736 707 656 698
384 3 2 1 1 506 467 333 443
385 3 2 1 1 481 521 598 424
386 3 2 1 1 481 473 557 521
387 3 2 1 1 815 774 749 792
388 3 2 1 1 365 401 473 423
389 3 2 1 1 487 424 598 545
390 3 2 1 1 613 529 467 506
391 3 2 1 1 735 701 661 655
392 3 2 1 1 281 69 70 225
393 3 2 1 1 197 263 344 289
394 3 2 1 1 830 770 847 861
395 3 2 1 1 696 750 653 654
396 3 2 1 1 657 607 706 746
397 3 2 1 1 654 577 680 696
398 3 2 1 1 629 699 584 599
399 3 2 1 1 653 663 545 598
400 3 2 1 1 400 523 596 486
401 3 2 1 1 734 630 684 789
402 3 2 1 1 599 520 697 629
403 3 2 1 1 699 726 789 684
404 3 2 1 1 655 700 788 735
405 3 2 1 1 770 826 883 847
406 3 2 1 1 695 744 795 771
407 3 2 1 1 562 467 529 617
408 3 2 1 1 493 330 436 547
409 3 2 1 1 688 596 523 631
410 3 2 1 1 503 413 384 386
411 3 2 1 1 578 657 746 682
412 3 2 1 1 526 402 505 587
413 3 2 1 1 747 796 629 697
414 3 2 1 1 469 490 335 422
415 3 2 1 1 537 613 506 413
416 3 2 1 1 678 748 648 650
417 3 2 1 1 697 648 748 747
418 3 2 1 1 707 736 790 631
419 3 2 1 1 465 532 607 657
420 3 2 1 1 650 576 745 678
421 3 2 1 1 210 14 15 277
422 3 2 1 1 283 330 419 225
423 3 2 1 1 259 359 227 216
424 3 2 1 1 279 18 19 227
425 3 2 1 1 505 562 617 587
426 3 2 1 1 228 112 113 278
427 3 2 1 1 363 259 216 286
428 3 2 1 1 788 734 828 829
429 3 2 1 1 789 726 859 816
430 3 2 1 1 727 791 696 680
431 3 2 1 1 827 792 794 829
432 3 2 1 1 787 826 678 745
433 3 2 1 1 745 695 771 787
434 3 2 1 1 286 189 381 363
435 3 2 1 1 816 828 734 789
436 3 2 1 1 403 430 364 344
437 3 2 1 1 829 794 735 788
438 3 2 1 1 242 65 66 280
439 3 2 1 1 756 634 710 797
440 3 2 1 1 859 811 884 878
441 3 2 1 1 413 506 443 384
442 3 2 1 1 637 612 580 705
443 3 2 1 1 812 862 787 771
444 3 2 1 1 878 857 816 859
445 3 2 1 1 593 662 466 543
446 3 2 1 1 632 592 522 709
447 3 2 1 1 639 710 617 529
448 3 2 1 1 344 263 482 403
449 3 2 1 1 419 464 480 342
450 3 2 1 1 381 404 483 363
451 3 2 1 1 828 816 857 858
452 3 2 1 1 858 827 829 828
453 3 2 1 1 277 15 16 224
454 3 2 1 1 482 442 542 532
455 3 2 1 1 483 611 522 399
456 3 2 1 1 399 259 363 483
457 3 2 1 1 211 116 117 220
458 3 2 1 1 265 357 226 200
459 3 2 1 1 577 654 521 557
460 3 2 1 1 532 465 403 482
461 3 2 1 1 642 713 728 685
462 3 2 1 1 602 525 647 640
463 3 2 1 1 587 617 710 634
464 3 2 1 1 640 577 557 602
465 3 2 1 1 680 577 640 694
466 3 2 1 1 280 66 67 226
467 3 2 1 1 795 832 855 856
468 3 2 1 1 526 587 634 714
469 3 2 1 1 399 522 592 484
470 3 2 1 1 647 752 694 640
471 3 2 1 1 714 664 606 526
472 3 2 1 1 582 607 532 542
473 3 2 1 1 856 812 771 795
474 3 2 1 1 642 664 714 713
475 3 2 1 1 281 225 419 342
476 3 2 1 1 279 227 359 343
477 3 2 1 1 728 713 756 775
478 3 2 1 1 713 714 634 756
479 3 2 1 1 405 442 360 338
480 3 2 1 1 729 754 805 836
481 3 2 1 1 797 817 775 756
482 3 2 1 1 547 659 595 493
483 3 2 1 1 342 265 200 281
484 3 2 1 1 280 226 357 341
485 3 2 1 1 694 752 776 786
486 3 2 1 1 338 360 228 278
487 3 2 1 1 343 264 192 279
488 3 2 1 1 854 727 786 818
489 3 2 1 1 849 815 792 827
490 3 2 1 1 786 727 680 694
491 3 2 1 1 814 791 727 854
492 3 2 1 1 559 464 493 595
493 3 2 1 1 548 418 484 592
494 3 2 1 1 407 264 343 418
495 3 2 1 1 817 797 729 836
496 3 2 1 1 359 484 418 343
497 3 2 1 1 731 688 631 790
498 3 2 1 1 386 274 449 503
499 3 2 1 1 418 548 470 407
500 3 2 1 1 285 348 420 205
501 3 2 1 1 337 287 205 420
502 3 2 1 1 274 386 313 221
503 3 2 1 1 827 858 885 849
504 3 2 1 1 275 115 116 211
505 3 2 1 1 560 580 612 511
506 3 2 1 1 511 361 447 560
507 3 2 1 1 891 906 814 854
508 3 2 1 1 264 356 224 192
509 3 2 1 1 737 637 705 793
510 3 2 1 1 641 685 743 709
511 3 2 1 1 762 761 687 693
512 3 2 1 1 592 632 651 548
513 3 2 1 1 860 814 906 879
514 3 2 1 1 761 762 688 731
515 3 2 1 1 332 471 536 519
516 3 2 1 1 338 446 479 405
517 3 2 1 1 596 688 762 659
518 3 2 1 1 152 589 541 153
519 3 2 1 1 422 337 544 469
520 3 2 1 1 242 280 341 276
521 3 2 1 1 198 114 115 275
522 3 2 1 1 278 113 114 198
523 3 2 1 1 478 356 264 407
524 3 2 1 1 537 413 503 608
525 3 2 1 1 877 903 861 847
526 3 2 1 1 884 861 903 899
527 3 2 1 1 220 358 270 211
528 3 2 1 1 883 862 894 902
529 3 2 1 1 902 877 847 883
530 3 2 1 1 196 447 361 316
531 3 2 1 1 464 559 531 480
532 3 2 1 1 510 417 341 357
533 3 2 1 1 416 340 356 478
534 3 2 1 1 776 853 818 786
535 3 2 1 1 277 224 356 340
536 3 2 1 1 321 12 13 223
537 3 2 1 1 901 880 857 878
538 3 2 1 1 548 651 588 470
539 3 2 1 1 476 544 337 420
540 3 2 1 1 272 5 62 206
541 3 2 1 1 760 632 709 743
542 3 2 1 1 357 265 406 510
543 3 2 1 1 848 876 864 833
544 3 2 1 1 42 250 221 41
545 3 2 1 1 668 527 579 690
546 3 2 1 1 898 912 904 888
547 3 2 1 1 508 362 452 568
548 3 2 1 1 876 898 888 864
549 3 2 1 1 812 886 894 862
550 3 2 1 1 284 55 56 217
551 3 2 1 1 813 848 833 798
552 3 2 1 1 579 568 612 637
553 3 2 1 1 448 471 332 326
554 3 2 1 1 209 54 55 284
555 3 2 1 1 823 871 824 810
556 3 2 1 1 479 446 354 454
557 3 2 1 1 659 762 693 595
558 3 2 1 1 595 693 645 559
559 3 2 1 1 354 275 211 270
560 3 2 1 1 773 813 798 753
561 3 2 1 1 863 904 887 822
562 3 2 1 1 509 457 508 527
563 3 2 1 1 543 490 594 593
564 3 2 1 1 807 738 702 703
565 3 2 1 1 354 446 198 275
566 3 2 1 1 220 117 118 252
567 3 2 1 1 905 875 856 855
568 3 2 1 1 535 594 490 469
569 3 2 1 1 324 250 42 43
570 3 2 1 1 222 57 58 247
571 3 2 1 1 60 123 124 59
572 3 2 1 1 61 122 123 60
573 3 2 1 1 823 769 800 852
574 3 2 1 1 812 856 875 886
575 3 2 1 1 639 529 613 689
576 3 2 1 1 878 884 899 901
577 3 2 1 1 269 212 325 351
578 3 2 1 1 869 853 776 831
579 3 2 1 1 623 589 716 667
580 3 2 1 1 446 338 278 198
581 3 2 1 1 754 729 639 689
582 3 2 1 1 249 8 121 218
583 3 2 1 1 644 703 593 594
584 3 2 1 1 121 1 10 218
585 3 2 1 1 880 885 858 857
586 3 2 1 1 407 470 539 478
587 3 2 1 1 579 527 508 568
588 3 2 1 1 622 539 470 588
589 3 2 1 1 540 468 405 479
590 3 2 1 1 740 773 753 708
591 3 2 1 1 568 452 511 612
592 3 2 1 1 452 393 361 511
593 3 2 1 1 732 711 757 777
594 3 2 1 1 139 140 820 867
595 3 2 1 1 539 622 572 517
596 3 2 1 1 882 865 849 885
597 3 2 1 1 912 899 903 910
598 3 2 1 1 824 871 142 143
599 3 2 1 1 879 906 893 907
600 3 2 1 1 632 760 717 651
601 3 2 1 1 743 685 728 784
602 3 2 1 1 502 570 348 426
603 3 2 1 1 339 272 206 417
604 3 2 1 1 901 899 912 898
605 3 2 1 1 451 516 415 350
606 3 2 1 1 317 273 334 451
607 3 2 1 1 251 4 45 316
608 3 2 1 1 746 706 806 780
609 3 2 1 1 572 534 415 516
610 3 2 1 1 825 808 730 778
611 3 2 1 1 276 341 417 206
612 3 2 1 1 774 815 866 821
613 3 2 1 1 643 706 607 582
614 3 2 1 1 890 841 868 895
615 3 2 1 1 637 737 690 579
616 3 2 1 1 387 358 213 315
617 3 2 1 1 448 411 571 471
618 3 2 1 1 885 880 908 882
619 3 2 1 1 622 621 534 572
620 3 2 1 1 738 793 705 702
621 3 2 1 1 835 732 777 870
622 3 2 1 1 852 820 140 141
623 3 2 1 1 251 393 320 183
624 3 2 1 1 559 645 590 531
625 3 2 1 1 867 845 138 139
626 3 2 1 1 869 843 147 146
627 3 2 1 1 394 318 127 128
628 3 2 1 1 790 736 774 821
629 3 2 1 1 716 589 151 722
630 3 2 1 1 844 846 819 872
631 3 2 1 1 417 510 477 339
632 3 2 1 1 223 210 271 395
633 3 2 1 1 502 458 129 130
634 3 2 1 1 733 691 717 760
635 3 2 1 1 591 535 469 544
636 3 2 1 1 284 217 394 353
637 3 2 1 1 779 808 825 836
638 3 2 1 1 270 455 454 354
639 3 2 1 1 897 892 873 890
640 3 2 1 1 340 271 210 277
641 3 2 1 1 725 672 134 135
642 3 2 1 1 638 528 590 645
643 3 2 1 1 728 775 840 784
644 3 2 1 1 785 834 773 740
645 3 2 1 1 651 717 673 588
646 3 2 1 1 122 5 272 390
647 3 2 1 1 516 518 517 572
648 3 2 1 1 681 676 711 732
649 3 2 1 1 458 502 426 353
650 3 2 1 1 882 908 876 848
651 3 2 1 1 456 412 391 262
652 3 2 1 1 157 158 327 204
653 3 2 1 1 821 866 834 785
654 3 2 1 1 616 528 638 708
655 3 2 1 1 126 125 262 391
656 3 2 1 1 817 836 825 839
657 3 2 1 1 627 168 569 675
658 3 2 1 1 395 319 321 223
659 3 2 1 1 867 820 737 793
660 3 2 1 1 615 575 614 635
661 3 2 1 1 652 620 621 673
662 3 2 1 1 687 740 708 638
663 3 2 1 1 865 882 848 813
664 3 2 1 1 757 635 683 810
665 3 2 1 1 897 900 905 907
666 3 2 1 1 270 358 387 455
667 3 2 1 1 255 119 120 161
668 3 2 1 1 252 118 119 255
669 3 2 1 1 509 527 614 575
670 3 2 1 1 414 541 565 512
671 3 2 1 1 145 872 870 144
672 3 2 1 1 708 753 665 616
673 3 2 1 1 809 846 844 147
674 3 2 1 1 324 182 181 355
675 3 2 1 1 760 743 784 733
676 3 2 1 1 213 358 252 323
677 3 2 1 1 636 170 169 627
678 3 2 1 1 635 614 668 683
679 3 2 1 1 893 850 142 141
680 3 2 1 1 249 282 322 161
681 3 2 1 1 870 824 143 144
682 3 2 1 1 731 790 821 785
683 3 2 1 1 739 721 636 767
684 3 2 1 1 249 218 396 282
685 3 2 1 1 881 914 895 868
686 3 2 1 1 864 888 837 801
687 3 2 1 1 352 391 412 507
688 3 2 1 1 764 741 783 809
689 3 2 1 1 391 352 127 126
690 3 2 1 1 517 416 478 539
691 3 2 1 1 879 905 855 860
692 3 2 1 1 415 534 475 392
693 3 2 1 1 740 687 761 785
694 3 2 1 1 833 864 801 755
695 3 2 1 1 801 837 758 715
696 3 2 1 1 514 414 388 154
697 3 2 1 1 755 801 715 666
698 3 2 1 1 807 765 136 137
699 3 2 1 1 765 725 135 136
700 3 2 1 1 274 221 250 355
701 3 2 1 1 591 670 132 133
702 3 2 1 1 888 904 863 837
703 3 2 1 1 534 621 620 475
704 3 2 1 1 849 865 866 815
705 3 2 1 1 146 844 872 145
706 3 2 1 1 591 544 476 670
707 3 2 1 1 677 132 624 718
708 3 2 1 1 851 881 838 802
709 3 2 1 1 12 321 248 11
710 3 2 1 1 798 833 755 712
711 3 2 1 1 621 622 588 673
712 3 2 1 1 412 456 463 566
713 3 2 1 1 783 842 781 846
714 3 2 1 1 763 722 150 149
715 3 2 1 1 806 763 149 148
716 3 2 1 1 891 854 818 889
717 3 2 1 1 667 468 540 623
718 3 2 1 1 712 755 666 618
719 3 2 1 1 503 449 573 608
720 3 2 1 1 753 798 712 665
721 3 2 1 1 666 715 619 567
722 3 2 1 1 834 865 813 773
723 3 2 1 1 715 758 669 619
724 3 2 1 1 616 665 566 463
725 3 2 1 1 353 426 209 284
726 3 2 1 1 711 615 635 757
727 3 2 1 1 322 282 159 254
728 3 2 1 1 665 712 618 566
729 3 2 1 1 626 536 471 571
730 3 2 1 1 691 652 673 717
731 3 2 1 1 618 666 567 507
732 3 2 1 1 541 589 623 565
733 3 2 1 1 128 127 352 453
734 3 2 1 1 768 741 764 719
735 3 2 1 1 126 318 222 247
736 3 2 1 1 468 542 442 405
737 3 2 1 1 411 339 477 571
738 3 2 1 1 507 567 453 352
739 3 2 1 1 570 476 420 348
740 3 2 1 1 151 674 671 150
741 3 2 1 1 845 867 793 738
742 3 2 1 1 406 480 531 538
743 3 2 1 1 837 863 782 758
744 3 2 1 1 590 528 536 625
745 3 2 1 1 507 412 566 618
746 3 2 1 1 362 181 182 320
747 3 2 1 1 387 315 269 351
748 3 2 1 1 414 512 325 388
749 3 2 1 1 895 914 915 913
750 3 2 1 1 458 353 394 128
751 3 2 1 1 805 754 692 175
752 3 2 1 1 176 692 646 177
753 3 2 1 1 803 136 759 838
754 3 2 1 1 799 681 732 835
755 3 2 1 1 778 804 840 839
756 3 2 1 1 645 693 687 638
757 3 2 1 1 670 476 570 724
758 3 2 1 1 692 754 689 646
759 3 2 1 1 538 626 571 477
760 3 2 1 1 624 131 574 669
761 3 2 1 1 248 321 319 159
762 3 2 1 1 519 463 456 332
763 3 2 1 1 538 477 510 406
764 3 2 1 1 582 542 667 716
765 3 2 1 1 898 876 908 901
766 3 2 1 1 463 519 528 616
767 3 2 1 1 800 690 737 820
768 3 2 1 1 451 350 219 317
769 3 2 1 1 567 619 513 453
770 3 2 1 1 845 807 137 138
771 3 2 1 1 131 132 670 724
772 3 2 1 1 204 389 450 273
773 3 2 1 1 822 851 802 742
774 3 2 1 1 262 326 332 456
775 3 2 1 1 122 390 460 123
776 3 2 1 1 733 804 767 691
777 3 2 1 1 247 58 59 124
778 3 2 1 1 686 723 742 802
779 3 2 1 1 449 355 180 179
780 3 2 1 1 133 677 723 134
781 3 2 1 1 156 157 204 273
782 3 2 1 1 804 778 739 767
783 3 2 1 1 475 569 167 392
784 3 2 1 1 843 869 831 780
785 3 2 1 1 460 411 448 515
786 3 2 1 1 758 782 718 669
787 3 2 1 1 325 512 410 351
788 3 2 1 1 782 863 822 742
789 3 2 1 1 326 262 125 124
790 3 2 1 1 896 877 902 911
791 3 2 1 1 472 454 410 512
792 3 2 1 1 11 248 160 2
793 3 2 1 1 718 782 742 677
794 3 2 1 1 915 886 875 913
795 3 2 1 1 574 130 513 619
796 3 2 1 1 518 450 459 416
797 3 2 1 1 896 851 887 910
798 3 2 1 1 871 852 141 142
799 3 2 1 1 804 733 784 840
800 3 2 1 1 780 831 682 746
801 3 2 1 1 910 903 877 896
802 3 2 1 1 819 799 835 872
803 3 2 1 1 453 513 129 128
804 3 2 1 1 644 594 535 725
805 3 2 1 1 327 395 389 204
806 3 2 1 1 768 170 171 741
807 3 2 1 1 671 169 170 768
808 3 2 1 1 839 840 775 817
809 3 2 1 1 139 873 892 140
810 3 2 1 1 881 851 896 911
811 3 2 1 1 137 803 841 138
812 3 2 1 1 254 163 162 322
813 3 2 1 1 537 646 689 613
814 3 2 1 1 730 172 171 721
815 3 2 1 1 135 134 686 759
816 3 2 1 1 874 893 141 140
817 3 2 1 1 138 841 873 139
818 3 2 1 1 681 175 176 676
819 3 2 1 1 389 271 459 450
820 3 2 1 1 910 887 904 912
821 3 2 1 1 615 177 178 575
822 3 2 1 1 334 518 516 451
823 3 2 1 1 781 173 174 766
824 3 2 1 1 763 806 706 643
825 3 2 1 1 915 914 894 886
826 3 2 1 1 652 691 720 675
827 3 2 1 1 690 800 769 668
828 3 2 1 1 148 147 843 806
829 3 2 1 1 314 9 219 350
830 3 2 1 1 509 179 180 457
831 3 2 1 1 891 889 144 143
832 3 2 1 1 779 174 173 808
833 3 2 1 1 145 144 889 909
834 3 2 1 1 396 2 160 282
835 3 2 1 1 540 479 472 565
836 3 2 1 1 703 644 765 807
837 3 2 1 1 393 251 316 361
838 3 2 1 1 254 158 157 163
839 3 2 1 1 803 838 868 841
840 3 2 1 1 174 779 805 175
841 3 2 1 1 720 636 627 675
842 3 2 1 1 802 838 759 686
843 3 2 1 1 396 218 10 2
844 3 2 1 1 781 766 799 819
845 3 2 1 1 213 163 164 315
846 3 2 1 1 149 719 764 148
847 3 2 1 1 874 892 897 907
848 3 2 1 1 459 271 340 416
849 3 2 1 1 716 722 643 582
850 3 2 1 1 720 691 767 636
851 3 2 1 1 573 179 178 628
852 3 2 1 1 730 721 739 778
853 3 2 1 1 741 172 842 783
854 3 2 1 1 212 9 388 325
855 3 2 1 1 452 362 320 393
856 3 2 1 1 317 155 156 273
857 3 2 1 1 339 411 390 272
858 3 2 1 1 777 810 824 870
859 3 2 1 1 823 810 683 769
860 3 2 1 1 148 764 809 147
861 3 2 1 1 158 159 319 327
862 3 2 1 1 183 253 44 4
863 3 2 1 1 217 222 318 394
864 3 2 1 1 457 180 181 362
865 3 2 1 1 569 475 620 675
866 3 2 1 1 450 518 334 273
867 3 2 1 1 853 909 889 818
868 3 2 1 1 162 323 255 161
869 3 2 1 1 455 351 410 454
870 3 2 1 1 674 168 169 671
871 3 2 1 1 575 178 179 509
872 3 2 1 1 676 176 177 615
873 3 2 1 1 392 314 350 415
874 3 2 1 1 766 174 175 681
875 3 2 1 1 724 502 130 131
876 3 2 1 1 890 913 900 897
877 3 2 1 1 906 891 850 893
878 3 2 1 1 808 173 172 730
879 3 2 1 1 608 628 646 537
880 3 2 1 1 531 625 626 538
881 3 2 1 1 269 315 165 212
882 3 2 1 1 894 914 911 902
883 3 2 1 1 133 134 672 591
884 3 2 1 1 721 171 170 636
885 3 2 1 1 123 460 515 124
886 3 2 1 1 143 142 850 891
887 3 2 1 1 392 167 166 314
888 3 2 1 1 253 183 182 324
889 3 2 1 1 155 317 219 9
890 3 2 1 1 671 768 719 150
891 3 2 1 1 323 162 163 213
892 3 2 1 1 326 124 515 448
893 3 2 1 1 628 178 177 646
894 3 2 1 1 875 905 900 913
895 3 2 1 1 146 145 909 869
896 3 2 1 1 535 591 672 725
897 3 2 1 1 514 153 541 414
898 3 2 1 1 674 151 152 168
899 3 2 1 1 173 781 842 172
900 3 2 1 1 253 324 43 44
901 3 2 1 1 165 164 156 155
$EndElements
