$MeshFormat
2.2 0 8
$EndMeshFormat
$Nodes
425
1 0 450 0
2 0 0 0
3 350 450 0
4 350 0 0
5 450 0 0
6 450 450 0
7 800 450 0
8 800 0 0
9 0 1200 0
10 0 550 0
11 350 1200 0
12 350 550 0
13 450 550 0
14 450 1200 0
15 800 1200 0
16 800 550 0
17 0 400 0
18 0 350 0
19 0 300 0
20 0 250 0
21 0 200 0
22 0 150 0
23 0 100 0
24 0 50 0
39 50 0 0
40 100 0 0
41 150 0 0
42 200 0 0
43 250 0 0
44 300 0 0
59 800 50 0
60 800 100 0
61 800 150 0
62 800 200 0
63 800 250 0
64 800 300 0
65 800 350 0
66 800 400 0
67 500 0 0
68 550 0 0
69 600 0 0
70 650 0 0
71 700 0 0
72 750 0 0
73 0 1150 0
74 0 1100 0
75 0 1050 0
76 0 1000 0
77 0 950 0
78 0 900 0
79 0 850 0
80 0 800 0
81 0 750 0
82 0 700 0
83 0 650 0
84 0 600 0
85 300 1200 0
86 250 1200 0
87 200 1200 0
88 150 1200 0
89 100 1200 0
90 50 1200 0
121 750 1200 0
122 700 1200 0
123 650 1200 0
124 600 1200 0
125 550 1200 0
126 500 1200 0
127 800 600 0
128 800 650 0
129 800 700 0
130 800 750 0
131 800 800 0
132 800 850 0
133 800 900 0
134 800 950 0
135 800 1000 0
136 800 1050 0
137 800 1100 0
138 800 1150 0
145 50 250 0
146 300 150 0
147 300 250 0
148 200 400 0
149 50 150 0
150 250 50 0
151 150 50 0
152 50 100 0
153 50 400 0
154 300 400 0
155 300 50 0
156 50 350 0
157 100 400 0
158 300 300 0
159 50 50 0
160 250 250 0
161 100 350 0
162 100 150 0
163 300 100 0
164 100 100 0
165 250 400 0
166 200 50 0
167 50 200 0
168 150 400 0
169 300 200 0
170 100 50 0
171 50 300 0
172 300 350 0
173 200 350 0
174 200 100 0
175 250 100 0
176 100 250 0
177 150 150 0
178 100 200 0
179 250 150 0
180 150 100 0
181 250 300 0
182 250 200 0
183 150 350 0
184 100 300 0
185 250 350 0
186 200 250 0
187 200 150 0
188 200 300 0
189 150 200 0
190 150 300 0
191 200 200 0
192 150 250 0
193 750 250 0
194 500 300 0
195 500 200 0
196 650 400 0
197 600 50 0
198 750 100 0
199 750 350 0
200 500 100 0
201 500 400 0
202 500 50 0
203 550 400 0
204 700 400 0
205 750 400 0
206 750 50 0
207 750 150 0
208 700 50 0
209 500 350 0
210 750 300 0
211 500 250 0
212 700 350 0
213 500 150 0
214 600 400 0
215 750 200 0
216 550 50 0
217 650 50 0
218 700 100 0
219 700 200 0
220 550 300 0
221 550 200 0
222 550 350 0
223 700 300 0
224 600 350 0
225 650 350 0
226 550 150 0
227 600 100 0
228 550 100 0
229 700 150 0
230 650 100 0
231 650 300 0
232 600 200 0
233 600 300 0
234 550 250 0
235 700 250 0
236 650 150 0
237 600 150 0
238 600 250 0
239 650 200 0
240 650 250 0
241 50 1000 0
242 50 900 0
243 50 800 0
244 300 1000 0
245 300 850 0
246 300 700 0
247 100 1150 0
248 200 1150 0
249 50 700 0
250 200 600 0
251 50 600 0
252 300 600 0
253 250 1150 0
254 150 600 0
255 50 1150 0
256 50 1100 0
257 300 1150 0
258 300 1050 0
259 300 750 0
260 300 900 0
261 250 850 0
262 150 650 0
263 100 1100 0
264 250 1000 0
265 250 700 0
266 50 750 0
267 300 650 0
268 250 600 0
269 100 600 0
270 150 1150 0
271 300 800 0
272 50 1050 0
273 50 950 0
274 50 850 0
275 300 1100 0
276 300 950 0
277 200 1100 0
278 50 650 0
279 100 1000 0
280 100 900 0
281 100 800 0
282 250 900 0
283 250 800 0
284 100 700 0
285 250 650 0
286 150 1100 0
287 250 1100 0
288 250 1050 0
289 250 750 0
290 100 1050 0
291 200 650 0
292 250 950 0
293 100 650 0
294 150 700 0
295 200 850 0
296 200 1000 0
297 200 750 0
298 100 850 0
299 200 700 0
300 100 750 0
301 100 950 0
302 150 1050 0
303 200 1050 0
304 200 900 0
305 150 750 0
306 150 1000 0
307 150 900 0
308 150 850 0
309 200 800 0
310 200 950 0
311 150 950 0
312 150 800 0
313 500 800 0
314 500 950 0
315 750 700 0
316 750 800 0
317 750 900 0
318 750 1000 0
319 650 1150 0
320 500 1100 0
321 500 700 0
322 700 600 0
323 600 600 0
324 550 600 0
325 700 1150 0
326 500 900 0
327 500 650 0
328 500 600 0
329 500 1150 0
330 750 1150 0
331 750 600 0
332 750 1050 0
333 550 1150 0
334 500 1050 0
335 550 950 0
336 700 1000 0
337 650 1100 0
338 750 950 0
339 600 1150 0
340 550 650 0
341 500 750 0
342 500 850 0
343 750 650 0
344 750 750 0
345 550 1100 0
346 650 600 0
347 500 1000 0
348 750 850 0
349 750 1100 0
350 700 750 0
351 550 800 0
352 700 850 0
353 700 950 0
354 550 700 0
355 550 1050 0
356 700 650 0
357 650 650 0
358 600 650 0
359 700 1100 0
360 550 900 0
361 550 1000 0
362 600 1100 0
363 700 1050 0
364 600 950 0
365 600 1050 0
366 600 700 0
367 700 900 0
368 700 700 0
369 650 950 0
370 650 1000 0
371 550 750 0
372 550 850 0
373 700 800 0
374 650 1050 0
375 650 750 0
376 600 850 0
377 650 900 0
378 600 800 0
379 650 800 0
380 600 900 0
381 600 1000 0
382 600 750 0
383 650 700 0
384 650 850 0
389 400.15625 500.15625 0
396 800 500 0
404 550 500 0
405 500 500 0
406 650 500 0
407 750 500 0
408 600 500 0
409 700 500 0
410 0 500 0
424 100 500 0
425 250 500 0
426 200 500 0
427 50 500 0
428 300 500 0
429 150 500 0
430 400 1200 0
456 400 650 0
457 400 1150 0
458 400 1100 0
459 400 1050 0
460 400 1000 0
461 400 950 0
462 400 900 0
463 400 850 0
464 400 800 0
465 400 750 0
466 400 600 0
467 400 700 0
485 400 0 0
486 400.076375068751 150.496479634014 0
487 399.808230076813 300.067468598882 0
488 400.014932158963 100.138450499405 0
489 399.951284128622 350.013114662227 0
490 400.003165442782 200.360605171603 0
491 400.002419596342 50.0294955130737 0
492 399.990125657 400.0022932762 0
493 399.855118608037 250.129342792035 0
494 50 450 0
495 100 450 0
496 150 450 0
497 200 450 0
498 250 450 0
499 300 450 0
500 350 400 0
501 350 350 0
502 350 300 0
503 350 250 0
504 350 200 0
505 350 150 0
506 350 100 0
507 350 50 0
508 450 50 0
509 450 100 0
510 450 150 0
511 450 200 0
512 450 250 0
513 450 300 0
514 450 350 0
515 450 400 0
516 500 450 0
517 550 450 0
518 600 450 0
519 650 450 0
520 700 450 0
521 750 450 0
522 350 1150 0
523 350 1100 0
524 350 1050 0
525 350 1000 0
526 350 950 0
527 350 900 0
528 350 850 0
529 350 800 0
530 350 750 0
531 350 700 0
532 350 650 0
533 350 600 0
534 300 550 0
535 250 550 0
536 200 550 0
537 150 550 0
538 100 550 0
539 50 550 0
540 450 600 0
541 450 650 0
542 450 700 0
543 450 750 0
544 450 800 0
545 450 850 0
546 450 900 0
547 450 950 0
548 450 1000 0
549 450 1050 0
550 450 1100 0
551 450 1150 0
552 750 550 0
553 700 550 0
554 650 550 0
555 600 550 0
556 550 550 0
557 500 550 0
558 400 550 0
559 350 500 0
560 400 450 0
561 450 500 0
$EndNodes
$Elements
384
1 3 2 1 1 177 180 174 187
2 3 2 1 1 23 152 149 22
3 3 2 1 1 174 166 150 175
4 3 2 1 1 174 180 151 166
5 3 2 1 1 175 150 155 163
6 3 2 1 1 149 162 178 167
7 3 2 1 1 177 187 191 189
8 3 2 1 1 43 44 155 150
10 3 2 1 1 42 43 150 166
11 3 2 1 1 165 148 173 185
12 3 2 1 1 149 152 164 162
13 3 2 1 1 162 164 180 177
14 3 2 1 1 185 173 188 181
15 3 2 1 1 174 175 179 187
16 3 2 1 1 22 149 167 21
17 3 2 1 1 23 24 159 152
20 3 2 1 1 166 151 41 42
21 3 2 1 1 152 159 170 164
22 3 2 1 1 151 180 164 170
23 3 2 1 1 146 169 182 179
24 3 2 1 1 2 39 159 24
26 3 2 1 1 170 159 39 40
27 3 2 1 1 163 146 179 175
28 3 2 1 1 162 177 189 178
29 3 2 1 1 179 182 191 187
32 3 2 1 1 17 18 156 153
33 3 2 1 1 20 145 171 19
34 3 2 1 1 18 19 171 156
35 3 2 1 1 20 21 167 145
44 3 2 1 1 170 40 41 151
45 3 2 1 1 178 176 145 167
46 3 2 1 1 153 156 161 157
47 3 2 1 1 147 158 181 160
48 3 2 1 1 147 160 182 169
49 3 2 1 1 157 161 183 168
50 3 2 1 1 156 171 184 161
51 3 2 1 1 154 165 185 172
52 3 2 1 1 148 168 183 173
53 3 2 1 1 145 176 184 171
54 3 2 1 1 158 172 185 181
55 3 2 1 1 178 189 192 176
56 3 2 1 1 184 176 192 190
57 3 2 1 1 160 181 188 186
58 3 2 1 1 160 186 191 182
59 3 2 1 1 161 184 190 183
60 3 2 1 1 173 183 190 188
61 3 2 1 1 191 186 192 189
62 3 2 1 1 188 190 192 186
64 3 2 1 1 231 225 224 233
65 3 2 1 1 231 233 238 240
66 3 2 1 1 212 225 231 223
67 3 2 1 1 203 222 224 214
69 3 2 1 1 210 199 212 223
71 3 2 1 1 210 193 63 64
72 3 2 1 1 65 66 205 199
73 3 2 1 1 204 196 225 212
74 3 2 1 1 205 204 212 199
75 3 2 1 1 194 220 222 209
76 3 2 1 1 194 211 234 220
77 3 2 1 1 224 222 220 233
78 3 2 1 1 238 233 220 234
80 3 2 1 1 223 231 240 235
93 3 2 1 1 8 59 206 72
94 3 2 1 1 60 198 206 59
95 3 2 1 1 60 61 207 198
96 3 2 1 1 63 193 215 62
97 3 2 1 1 61 62 215 207
98 3 2 1 1 69 197 216 68
99 3 2 1 1 67 68 216 202
100 3 2 1 1 69 70 217 197
101 3 2 1 1 71 208 217 70
102 3 2 1 1 72 206 208 71
103 3 2 1 1 215 193 235 219
104 3 2 1 1 210 223 235 193
105 3 2 1 1 234 211 195 221
106 3 2 1 1 225 196 214 224
107 3 2 1 1 206 198 218 208
108 3 2 1 1 202 216 228 200
109 3 2 1 1 213 200 228 226
110 3 2 1 1 209 222 203 201
111 3 2 1 1 198 207 229 218
112 3 2 1 1 215 219 229 207
113 3 2 1 1 195 213 226 221
114 3 2 1 1 197 227 228 216
115 3 2 1 1 208 218 230 217
116 3 2 1 1 197 217 230 227
117 3 2 1 1 229 219 239 236
118 3 2 1 1 238 234 221 232
119 3 2 1 1 228 227 237 226
120 3 2 1 1 221 226 237 232
121 3 2 1 1 230 236 237 227
122 3 2 1 1 218 229 236 230
123 3 2 1 1 237 236 239 232
124 3 2 1 1 240 238 232 239
125 3 2 1 1 219 235 240 239
126 3 2 1 1 199 210 64 65
128 3 2 1 1 251 269 293 278
129 3 2 1 1 285 267 246 265
130 3 2 1 1 267 285 268 252
131 3 2 1 1 78 79 274 242
134 3 2 1 1 294 299 297 305
135 3 2 1 1 265 299 291 285
136 3 2 1 1 88 89 247 270
137 3 2 1 1 89 90 255 247
139 3 2 1 1 282 261 245 260
140 3 2 1 1 293 284 249 278
141 3 2 1 1 262 293 269 254
142 3 2 1 1 262 294 284 293
143 3 2 1 1 82 83 278 249
144 3 2 1 1 270 248 87 88
149 3 2 1 1 255 256 263 247
150 3 2 1 1 254 250 291 262
151 3 2 1 1 268 285 291 250
152 3 2 1 1 294 262 291 299
153 3 2 1 1 247 263 286 270
154 3 2 1 1 243 266 300 281
155 3 2 1 1 249 284 300 266
156 3 2 1 1 284 294 305 300
158 3 2 1 1 256 255 73 74
159 3 2 1 1 9 73 255 90
160 3 2 1 1 76 241 272 75
161 3 2 1 1 74 75 272 256
162 3 2 1 1 76 77 273 241
163 3 2 1 1 78 242 273 77
164 3 2 1 1 80 243 274 79
165 3 2 1 1 266 243 80 81
166 3 2 1 1 249 266 81 82
168 3 2 1 1 86 253 257 85
169 3 2 1 1 87 248 253 86
178 3 2 1 1 298 280 242 274
179 3 2 1 1 274 243 281 298
180 3 2 1 1 270 286 277 248
181 3 2 1 1 257 253 287 275
182 3 2 1 1 248 277 287 253
183 3 2 1 1 244 258 288 264
184 3 2 1 1 275 287 288 258
185 3 2 1 1 246 259 289 265
186 3 2 1 1 271 283 289 259
187 3 2 1 1 245 261 283 271
188 3 2 1 1 283 261 295 309
189 3 2 1 1 256 272 290 263
190 3 2 1 1 299 265 289 297
191 3 2 1 1 241 279 290 272
192 3 2 1 1 241 273 301 279
193 3 2 1 1 242 280 301 273
194 3 2 1 1 287 277 303 288
195 3 2 1 1 286 302 303 277
196 3 2 1 1 290 279 306 302
197 3 2 1 1 307 311 301 280
198 3 2 1 1 300 305 312 281
199 3 2 1 1 261 282 304 295
200 3 2 1 1 289 283 309 297
201 3 2 1 1 263 290 302 286
202 3 2 1 1 264 288 303 296
203 3 2 1 1 304 307 308 295
204 3 2 1 1 303 302 306 296
205 3 2 1 1 305 297 309 312
206 3 2 1 1 280 298 308 307
207 3 2 1 1 281 312 308 298
208 3 2 1 1 279 301 311 306
209 3 2 1 1 295 308 312 309
210 3 2 1 1 83 84 251 278
212 3 2 1 1 292 276 244 264
213 3 2 1 1 292 282 260 276
214 3 2 1 1 306 311 310 296
215 3 2 1 1 307 304 310 311
216 3 2 1 1 264 296 310 292
217 3 2 1 1 282 292 310 304
218 3 2 1 1 379 384 376 378
220 3 2 1 1 330 325 359 349
221 3 2 1 1 126 329 333 125
223 3 2 1 1 367 352 348 317
224 3 2 1 1 384 379 373 352
225 3 2 1 1 352 367 377 384
226 3 2 1 1 357 358 323 346
228 3 2 1 1 127 128 343 331
230 3 2 1 1 346 322 356 357
231 3 2 1 1 328 324 340 327
232 3 2 1 1 323 358 340 324
233 3 2 1 1 357 383 366 358
246 3 2 1 1 15 121 330 138
247 3 2 1 1 122 325 330 121
248 3 2 1 1 123 319 325 122
249 3 2 1 1 333 339 124 125
250 3 2 1 1 123 124 339 319
251 3 2 1 1 129 315 343 128
252 3 2 1 1 129 130 344 315
253 3 2 1 1 131 316 344 130
254 3 2 1 1 132 348 316 131
255 3 2 1 1 133 317 348 132
256 3 2 1 1 317 133 134 338
257 3 2 1 1 135 318 338 134
258 3 2 1 1 332 318 135 136
259 3 2 1 1 137 349 332 136
260 3 2 1 1 349 137 138 330
264 3 2 1 1 344 350 368 315
265 3 2 1 1 343 315 368 356
266 3 2 1 1 373 316 348 352
267 3 2 1 1 336 353 338 318
268 3 2 1 1 329 320 345 333
269 3 2 1 1 327 340 354 321
270 3 2 1 1 331 343 356 322
271 3 2 1 1 319 337 359 325
272 3 2 1 1 314 326 360 335
273 3 2 1 1 318 332 363 336
274 3 2 1 1 320 334 355 345
275 3 2 1 1 314 335 361 347
276 3 2 1 1 353 336 370 369
277 3 2 1 1 363 374 370 336
278 3 2 1 1 319 339 362 337
279 3 2 1 1 362 365 374 337
280 3 2 1 1 317 338 353 367
281 3 2 1 1 333 345 362 339
282 3 2 1 1 366 354 340 358
283 3 2 1 1 313 341 371 351
284 3 2 1 1 321 354 371 341
285 3 2 1 1 313 351 372 342
286 3 2 1 1 326 342 372 360
287 3 2 1 1 316 373 350 344
288 3 2 1 1 334 347 361 355
289 3 2 1 1 332 349 359 363
290 3 2 1 1 373 379 375 350
291 3 2 1 1 372 351 378 376
292 3 2 1 1 371 382 378 351
293 3 2 1 1 367 353 369 377
294 3 2 1 1 345 355 365 362
295 3 2 1 1 383 357 356 368
296 3 2 1 1 337 374 363 359
297 3 2 1 1 335 360 380 364
298 3 2 1 1 372 376 380 360
299 3 2 1 1 335 364 381 361
300 3 2 1 1 355 361 381 365
301 3 2 1 1 369 364 380 377
302 3 2 1 1 374 365 381 370
303 3 2 1 1 354 366 382 371
304 3 2 1 1 382 366 383 375
305 3 2 1 1 350 375 383 368
306 3 2 1 1 364 369 370 381
307 3 2 1 1 377 380 376 384
308 3 2 1 1 375 379 378 382
9 3 2 1 1 163 506 505 146
18 3 2 1 1 505 504 169 146
19 3 2 1 1 506 163 155 507
25 3 2 1 1 497 496 168 148
30 3 2 1 1 507 155 44 4
31 3 2 1 1 1 17 153 494
36 3 2 1 1 494 153 157 495
37 3 2 1 1 495 157 168 496
38 3 2 1 1 3 499 154 500
39 3 2 1 1 498 165 154 499
40 3 2 1 1 500 154 172 501
41 3 2 1 1 502 501 172 158
42 3 2 1 1 503 502 158 147
43 3 2 1 1 503 147 169 504
63 3 2 1 1 165 498 497 148
68 3 2 1 1 514 513 194 209
70 3 2 1 1 513 512 211 194
79 3 2 1 1 514 209 201 515
81 3 2 1 1 5 67 202 508
82 3 2 1 1 509 508 202 200
83 3 2 1 1 511 510 213 195
84 3 2 1 1 509 200 213 510
85 3 2 1 1 511 195 211 512
86 3 2 1 1 6 515 201 516
87 3 2 1 1 516 201 203 517
88 3 2 1 1 519 518 214 196
89 3 2 1 1 517 203 214 518
90 3 2 1 1 205 521 520 204
91 3 2 1 1 519 196 204 520
92 3 2 1 1 7 521 205 66
127 3 2 1 1 267 252 533 532
132 3 2 1 1 12 533 252 534
133 3 2 1 1 537 536 250 254
138 3 2 1 1 251 539 538 269
145 3 2 1 1 532 531 246 267
146 3 2 1 1 252 268 535 534
147 3 2 1 1 268 250 536 535
148 3 2 1 1 537 254 269 538
157 3 2 1 1 84 10 539 251
167 3 2 1 1 11 85 257 522
170 3 2 1 1 522 257 275 523
171 3 2 1 1 524 523 275 258
172 3 2 1 1 525 524 258 244
173 3 2 1 1 525 244 276 526
174 3 2 1 1 528 527 260 245
175 3 2 1 1 245 271 529 528
176 3 2 1 1 530 529 271 259
177 3 2 1 1 531 530 259 246
211 3 2 1 1 527 526 276 260
219 3 2 1 1 545 342 326 546
222 3 2 1 1 557 556 324 328
227 3 2 1 1 541 540 328 327
229 3 2 1 1 323 324 556 555
234 3 2 1 1 127 331 552 16
235 3 2 1 1 13 557 328 540
236 3 2 1 1 541 327 321 542
237 3 2 1 1 544 543 341 313
238 3 2 1 1 542 321 341 543
239 3 2 1 1 544 313 342 545
240 3 2 1 1 314 547 546 326
241 3 2 1 1 548 547 314 347
242 3 2 1 1 549 548 347 334
243 3 2 1 1 550 549 334 320
244 3 2 1 1 14 551 329 126
245 3 2 1 1 550 320 329 551
261 3 2 1 1 552 331 322 553
262 3 2 1 1 323 555 554 346
263 3 2 1 1 553 322 346 554
309 3 2 1 1 389 559 3 560
310 3 2 1 1 389 560 6 561
311 3 2 1 1 389 558 12 559
312 3 2 1 1 558 389 561 13
313 3 2 1 1 520 521 407 409
314 3 2 1 1 7 396 407 521
315 3 2 1 1 16 552 407 396
316 3 2 1 1 6 516 405 561
317 3 2 1 1 517 404 405 516
318 3 2 1 1 408 404 517 518
319 3 2 1 1 518 519 406 408
320 3 2 1 1 519 520 409 406
321 3 2 1 1 409 407 552 553
322 3 2 1 1 555 408 406 554
323 3 2 1 1 553 554 406 409
324 3 2 1 1 404 408 555 556
325 3 2 1 1 13 561 405 557
326 3 2 1 1 556 557 405 404
327 3 2 1 1 429 424 495 496
328 3 2 1 1 498 499 428 425
329 3 2 1 1 426 425 535 536
330 3 2 1 1 538 539 427 424
331 3 2 1 1 429 496 497 426
332 3 2 1 1 426 536 537 429
333 3 2 1 1 1 494 427 410
334 3 2 1 1 10 410 427 539
335 3 2 1 1 424 427 494 495
336 3 2 1 1 3 559 428 499
337 3 2 1 1 12 534 428 559
338 3 2 1 1 425 428 534 535
339 3 2 1 1 426 497 498 425
340 3 2 1 1 429 537 538 424
341 3 2 1 1 466 540 541 456
342 3 2 1 1 13 540 466 558
343 3 2 1 1 531 532 456 467
344 3 2 1 1 456 541 542 467
345 3 2 1 1 533 12 558 466
346 3 2 1 1 14 430 457 551
347 3 2 1 1 527 528 463 462
348 3 2 1 1 551 457 458 550
349 3 2 1 1 430 11 522 457
350 3 2 1 1 522 523 458 457
351 3 2 1 1 523 524 459 458
352 3 2 1 1 524 525 460 459
353 3 2 1 1 462 461 526 527
354 3 2 1 1 525 526 461 460
355 3 2 1 1 463 528 529 464
356 3 2 1 1 467 465 530 531
357 3 2 1 1 529 530 465 464
358 3 2 1 1 467 542 543 465
359 3 2 1 1 544 464 465 543
360 3 2 1 1 545 463 464 544
361 3 2 1 1 546 462 463 545
362 3 2 1 1 462 546 547 461
363 3 2 1 1 548 460 461 547
364 3 2 1 1 549 459 460 548
365 3 2 1 1 550 458 459 549
366 3 2 1 1 466 456 532 533
367 3 2 1 1 490 486 510 511
368 3 2 1 1 486 488 509 510
369 3 2 1 1 487 489 501 502
370 3 2 1 1 514 515 492 489
371 3 2 1 1 490 504 505 486
372 3 2 1 1 513 487 493 512
373 3 2 1 1 488 491 508 509
374 3 2 1 1 5 508 491 485
375 3 2 1 1 6 560 492 515
376 3 2 1 1 487 502 503 493
377 3 2 1 1 490 493 503 504
378 3 2 1 1 506 507 491 488
379 3 2 1 1 560 3 500 492
380 3 2 1 1 507 4 485 491
381 3 2 1 1 489 492 500 501
382 3 2 1 1 489 487 513 514
383 3 2 1 1 488 486 505 506
384 3 2 1 1 511 512 493 490
$EndElements
