$MeshFormat
2.2 0 8
$EndMeshFormat
$Nodes
439
1 40 40 0
2 45 40 0
3 55 40 0
4 60 40 0
5 60 60 0
6 40 60 0
7 0 0 0
8 100 0 0
9 0 100 0
10 100 100 0
11 80 60 0
12 50 40 0
13 60 45 0
14 60 50 0
15 60 55 0
16 55 60 0
17 50 60 0
18 45 60 0
19 40 55 0
20 40 50 0
21 40 45 0
22 5 0 0
23 10 0 0
24 15 0 0
25 20 0 0
26 25 0 0
27 30 0 0
28 35 0 0
29 40 0 0
30 45 0 0
31 50 0 0
32 55 0 0
33 60 0 0
34 65 0 0
35 70 0 0
36 75 0 0
37 80 0 0
38 85 0 0
39 90 0 0
40 95 0 0
41 0 95 0
42 0 90 0
43 0 85 0
44 0 80 0
45 0 75 0
46 0 70 0
47 0 65 0
48 0 60 0
49 0 55 0
50 0 50 0
51 0 45 0
52 0 40 0
53 0 35 0
54 0 30 0
55 0 25 0
56 0 20 0
57 0 15 0
58 0 10 0
59 0 5 0
60 100 5 0
61 100 10 0
62 100 15 0
63 100 20 0
64 100 25 0
65 100 30 0
66 100 35 0
67 100 40 0
68 100 45 0
69 100 50 0
70 100 55 0
71 100 60 0
72 100 65 0
73 100 70 0
74 100 75 0
75 100 80 0
76 100 85 0
77 100 90 0
78 100 95 0
79 95 100 0
80 90 100 0
81 85 100 0
82 80 100 0
83 75 100 0
84 70 100 0
85 65 100 0
86 60 100 0
87 55 100 0
88 50 100 0
89 45 100 0
90 40 100 0
91 35 100 0
92 30 100 0
93 25 100 0
94 20 100 0
95 15 100 0
96 10 100 0
97 5 100 0
98 63.3333333333333 43.3333333333333 0
99 66.6666666666667 46.6666666666667 0
100 70 50 0
101 73.3333333333333 53.3333333333333 0
102 76.6666666666667 56.6666666666667 0
103 65.754177866059 40.7758024852439 0
104 60.1153035798965 4.99315219561036 0
105 74.9034866023842 94.7540654151991 0
106 80.0878306220996 4.96130481049148 0
107 5.00165724018543 40.0007530471341 0
108 34.9815198871919 95.0071414134298 0
109 30.0176724158566 5.00394921280901 0
110 59.8249095218832 65.6698153668826 0
111 34.9984529690714 55.0043793343489 0
112 95.014680381233 29.9111120557175 0
113 55.6701970984595 35.3388400012928 0
114 44.9515594006372 65.0760396683976 0
115 4.99899906971652 80.0007302747887 0
116 4.9994154768078 65.0008154479324 0
117 5.0001478318724 55.0006706510628 0
118 54.9198468398373 94.9287276640173 0
119 5.00249238308385 20.0007977945941 0
120 94.9506484770317 40.0858813274061 0
121 95.0585531780037 80.0253050581083 0
122 95.1483021578922 59.955038337062 0
123 95.0398531909039 9.97032072983531 0
124 85.0542853204717 94.9124675937403 0
125 9.99911079856381 95.0004838066283 0
126 19.9966270288643 95.0017217828074 0
127 15.0035774854918 5.00098436358937 0
128 50.079062023843 5.00600433345223 0
129 40.0858402407281 35.0287366023573 0
130 64.561620675743 61.5486759774963 0
131 64.3549729635955 56.5881266317314 0
132 95.1837590172988 50.1889956086773 0
133 95.0650689895342 64.9399863077563 0
134 95.0382122466025 69.985614858282 0
135 95.0655978677747 19.9285452166848 0
136 75.1076455062543 4.96364036414563 0
137 70.1203577478226 4.97141240282689 0
138 65.0627439005681 94.7620680608876 0
139 95.0583256621269 85.0103998613446 0
140 95.0229247345304 94.9920571684939 0
141 45.0591694303985 5.00748801092261 0
142 90.0418387443915 4.97385789194355 0
143 95.0203762376579 4.98607917877574 0
144 40.0418027999774 5.00696666582588 0
145 45.1516122862807 35.0548227147489 0
146 10.0018965168119 5.00054319090649 0
147 5.00248279630387 30.0008831924378 0
148 5.00155015796177 10.0004643509494 0
149 4.99963550856441 95.0002021977677 0
150 5.00061492744878 50.0006583123082 0
151 44.9522849007045 95.0055642428092 0
152 54.8917984486763 65.2925031108573 0
153 35.0081618107462 45.0036501983917 0
154 25.0109218541529 5.00265986278451 0
155 4.99931409828934 90.0004058400864 0
156 4.99901279239551 75.0008315531373 0
157 24.9937940855254 95.0030409852322 0
158 5.00083490316668 5.00024502965068 0
159 62.5207570733482 46.1179032311109 0
160 75.2284848177595 9.92033256208578 0
161 39.9679237038542 65.0421622589822 0
162 50.1642342557085 10.0159328758124 0
163 30.034892561643 10.0081474277873 0
164 10.0002556671616 55.0015284409348 0
165 59.7391338588273 70.7863375500539 0
166 40.1417533072948 30.0440510270858 0
167 19.9935228309862 90.0036689063379 0
168 90.2750166441838 59.7586159146802 0
169 90.1331670645945 85.0220985072258 0
170 90.0839877989657 9.94341716995741 0
171 9.99828243806238 90.0010095074027 0
172 9.99744272628238 80.0018592232583 0
173 50.2974817345458 35.1227738028259 0
174 64.7600434015738 66.3629834834318 0
175 90.0428237821811 64.8205428521232 0
176 95.2228428935314 55.067812055999 0
177 95.0490844380525 45.1943757722018 0
178 94.9571118581333 34.9676317078201 0
179 95.0558623649141 24.9086749138363 0
180 95.0469982602518 75.0215357224373 0
181 65.1234194684365 4.9822885555666 0
182 69.9826116183403 94.8329116832978 0
183 79.9846179549657 94.7738093826664 0
184 55.1001243491422 5.00143590715526 0
185 95.0571682823563 14.9508338069569 0
186 85.0653068886378 4.96487710671936 0
187 95.0443522394999 89.9954831252047 0
188 90.0454753450739 94.9717134172557 0
189 59.9846997663048 94.7876416953711 0
190 45.1210574884774 10.0176539878066 0
191 35.0282070224774 5.0055864483417 0
192 35.0249755112403 40.0086677876369 0
193 5.00267144123509 25.0008924770285 0
194 14.998118088762 95.0010213519351 0
195 15.0070177450039 10.0019695122334 0
196 10.0037585509636 10.001093798838 0
197 39.9694157041801 95.0088851379323 0
198 5.00115379668237 45.0006997196651 0
199 20.0065488609923 5.00170322839611 0
200 4.99904266571107 85.000627762354 0
201 5.00218332123249 35.0008480771818 0
202 29.9889881500151 95.0050267520385 0
203 35.0024159603695 50.0028650205893 0
204 49.9305252239223 94.9878790723826 0
205 34.9911259772556 60.0117526849436 0
206 49.9263781987473 65.1461824138071 0
207 4.99914545825609 70.0008711247975 0
208 4.99973924064377 60.0007704140373 0
209 5.0021987190882 15.0006754690609 0
210 62.0475556170691 36.3729689456904 0
211 67.5875232615291 57.9606308723132 0
212 67.6274509885777 43.2979716814942 0
213 64.6767399201816 50.8638976757195 0
214 69.1922753616198 39.2960841360624 0
215 65.2638789706881 9.96444160336765 0
216 64.7471503167977 71.1923452612642 0
217 10.003894792104 40.0017113314049 0
218 34.9649108831 90.0169843008678 0
219 44.9071691778986 90.0271359113059 0
220 9.99787393240848 70.0021068517177 0
221 34.9778730364335 65.0260034782894 0
222 90.0314184397299 45.536546193614 0
223 89.869115548363 34.8443769139101 0
224 55.8167011530905 30.3004348580456 0
225 69.9669667751523 90.7814108493634 0
226 54.790683576195 89.9472825940125 0
227 30.0225910951131 40.0081287955885 0
228 10.0059994024093 30.00207121159 0
229 49.8581724076053 70.2341401107253 0
230 30.0037144875349 50.0043507879918 0
231 90.1477234351736 24.799599969276 0
232 50.2577191025173 15.0341443988079 0
233 80.1842550715415 9.91472054946502 0
234 40.0841000584924 10.0153726637849 0
235 25.0215096298642 10.0054020519515 0
236 10.0013543842696 50.0014727457664 0
237 9.99928899071928 60.0017683379032 0
238 24.9881335928357 90.006584175386 0
239 84.6571683554094 58.7321413591109 0
240 90.6132499666013 55.1097627418586 0
241 85.1336392329662 9.92326934901214 0
242 70.2584169041622 9.9386881277978 0
243 69.6325301303315 63.5560266781613 0
244 90.0948616293352 75.0833361258161 0
245 90.1330605430052 80.0757128352889 0
246 80.1832674988712 89.6794784417515 0
247 90.0956720618206 89.9772455137737 0
248 90.0497574973117 70.0055107934924 0
249 90.1239081451417 14.9046024352088 0
250 55.2104190114307 10.0071676558306 0
251 59.753009883828 89.712564080008 0
252 35.0558292612092 10.0117697006485 0
253 35.0853067182799 30.0259792353767 0
254 45.2462297295229 30.0797813163846 0
255 54.7935112424229 70.4402225746268 0
256 35.0563263461159 35.0181676271914 0
257 20.0127816229099 10.0034036555192 0
258 44.9073760283989 70.1263535288074 0
259 10.0060280838288 20.0018793640864 0
260 15.0099449723381 15.0028742948953 0
261 10.0053418096001 15.0015951863928 0
262 29.9984255053231 55.0060572379785 0
263 9.99763870253596 85.001538398197 0
264 14.9964411158253 90.0020831048288 0
265 9.99745652146379 75.00212036427 0
266 67.6702324498206 34.903733891016 0
267 68.9752259794085 54.7553915335414 0
268 70.6212186950103 45.9018467357642 0
269 72.2740828086398 34.1641624576002 0
270 69.8296607941923 66.9442777205207 0
271 14.9948989238137 75.0042176698658 0
272 70.4297290003213 14.89686594694 0
273 85.0242701921223 70.1378033683032 0
274 64.6060460777923 76.2583697174076 0
275 40.123623010502 15.0257510694654 0
276 54.6961787245931 75.4309611099152 0
277 25.0302650770145 15.0079653903293 0
278 15.0002253579471 55.0027010620538 0
279 74.8415371608551 48.6221241590329 0
280 55.3390762172807 15.0232462993192 0
281 59.3745096345819 85.0400109778108 0
282 45.2679664505761 25.0731204056572 0
283 15.0117400671234 20.0035290070573 0
284 25.0037864125123 50.0043843806838 0
285 19.9911268604513 85.0057188378796 0
286 87.157529639877 55.0454979724995 0
287 73.3465427890703 59.2679783848978 0
288 85.2042513953949 14.8679614652216 0
289 90.5096313387878 50.5465139015639 0
290 89.7511416920127 40.157919102131 0
291 90.0733082658206 29.7624850652323 0
292 84.9347486110325 64.8189526673223 0
293 85.152680792281 75.2438960047737 0
294 50.4429571534239 30.1532291844087 0
295 90.1523223961897 19.8550984405969 0
296 60.247583802434 9.98928376092796 0
297 65.5425320430753 88.7201568460001 0
298 85.2553043108987 85.026068258247 0
299 74.3754506138305 88.7008798050762 0
300 80.2931056154765 14.8507098874568 0
301 85.1555898515589 89.910484795181 0
302 49.8557520089771 90.0147180760619 0
303 45.1844358061925 15.0326323162386 0
304 40.1639765698219 25.0453006145678 0
305 20.018075981053 15.0049842539852 0
306 30.0528252929005 30.0161320354437 0
307 49.801680659109 75.2424822729972 0
308 10.0051978047479 35.0019560483383 0
309 39.9410827505219 70.0695596746845 0
310 10.0065183898814 25.0021146535811 0
311 10.0026430345325 45.0015608752175 0
312 30.0110469853182 45.0052240397875 0
313 29.9923488208029 60.010581790891 0
314 39.9417065737464 90.0242627508152 0
315 14.9951529580352 85.0031589273174 0
316 9.99843882112459 65.0020328466302 0
317 29.9790659025093 90.0111682352939 0
318 30.0387511473356 35.0125721581291 0
319 35.0803902123499 15.018503382256 0
320 61.309954952898 30.3185069758386 0
321 70.3332236217065 43.1307504981823 0
322 85.2649602357403 29.5359925952844 0
323 69.8163598211631 71.3174667393639 0
324 25.0328794261898 30.0102330769455 0
325 34.9529137641759 85.0291656759373 0
326 34.9628922194297 70.0394553517581 0
327 74.2860424418445 42.9762948237964 0
328 69.9262959587223 83.0362739255097 0
329 79.9639233195131 70.468929029318 0
330 80.415292517868 19.7543507094414 0
331 55.6628342863763 25.1406786521964 0
332 65.4420523385979 14.9469773767899 0
333 86.0418470775137 51.6020721538265 0
334 80.5261451215127 84.9798728079953 0
335 15.0095852445305 35.0034666142651 0
336 54.6277593913043 80.2969662880804 0
337 15.0045573049219 45.0025887862276 0
338 25.0169642502444 40.0063937186706 0
339 24.9839141826714 85.0103501953098 0
340 84.948122945787 46.3722887052188 0
341 74.5858384147907 65.8267030950842 0
342 79.740692254587 65.1109664784306 0
343 55.4915346073534 20.0606072805109 0
344 60.4087987508707 14.9934650670068 0
345 84.9811441303096 34.3983556321578 0
346 62.9878727435375 84.8130073243027 0
347 85.2557509429456 80.1823121457564 0
348 50.4352805265289 25.1131104565153 0
349 85.3095686343734 24.6804501824304 0
350 50.3563950404949 20.0657495077072 0
351 85.2714105393528 19.7896453330916 0
352 75.3762054627055 14.8604072592731 0
353 45.2404137583375 20.0527575299158 0
354 54.6602128346272 85.0962504649122 0
355 40.1552790968684 20.0371987085754 0
356 35.1003925355371 25.0280489521981 0
357 59.5806161293613 75.7649715424587 0
358 44.8734231707357 85.067033354017 0
359 30.050510383926 15.0124999663529 0
360 20.0211912381802 20.0061110479533 0
361 44.8744764748612 75.1368383562217 0
362 15.0124271905057 25.0038988958924 0
363 25.0096166773884 45.0048789850588 0
364 15.0022899764837 50.0025196970448 0
365 14.9984066706329 60.0032713383922 0
366 24.9992482867144 55.0054852313111 0
367 14.9945877727663 80.0039538262517 0
368 14.9955737477763 70.004269383767 0
369 29.9847040133848 65.0171626777737 0
370 73.2922400552984 38.554166246987 0
371 66.599832459513 29.9830468132382 0
372 81.0101534386895 54.2148101213311 0
373 76.4658517221175 52.2491012943715 0
374 29.9767915690003 70.0230924961025 0
375 76.5533325822884 33.7391300732464 0
376 65.6821342906154 19.9336593094786 0
377 75.5608813518597 19.7685675935881 0
378 80.5095749211623 80.4224590092464 0
379 30.0599164981803 20.0159180377874 0
380 39.9217615142648 75.0777844135201 0
381 19.9903786032017 75.0079980614891 0
382 77.3935059947622 37.8583225905316 0
383 80.6341924359582 33.8212261984452 0
384 80.6447672843504 29.3323883270383 0
385 60.8999632262292 25.0921703116573 0
386 74.8916592287053 70.9712829525111 0
387 69.8742371252089 76.5115796980944 0
388 79.9528391131672 47.4842887250281 0
389 64.0096613704018 81.2734008669056 0
390 80.5443909983507 24.5981842211594 0
391 60.6180811727144 20.0173617437902 0
392 76.8984885007256 84.7667201916766 0
393 80.2135757896024 75.587243348779 0
394 83.6927941863018 40.0094161545094 0
395 49.794210082536 85.0900396344857 0
396 30.0615480859324 25.0175192316214 0
397 59.3454227970534 80.5276243789483 0
398 20.0219854790263 25.0066535434817 0
399 35.0983556395818 20.024879573513 0
400 44.8609746069377 80.1116337949007 0
401 20.0115354399096 40.004592163158 0
402 25.0367064727192 20.0101290591865 0
403 20.0071531778248 45.0038544469983 0
404 15.0117450745927 30.003891305467 0
405 15.0073307307992 40.0030702338878 0
406 39.9215283648395 85.0464743631794 0
407 20.003277599497 50.0036672526949 0
408 19.9999433401676 55.0042008137571 0
409 14.9967593612446 65.0039367388203 0
410 29.9718473194274 85.0180029747624 0
411 24.9901855754951 65.0109690839306 0
412 19.9898100899505 80.0075012883236 0
413 24.9947057376622 60.0080208153431 0
414 25.025855244825 35.0086050266746 0
415 49.7736731589064 80.1831932230123 0
416 71.499234071819 29.5508532020853 0
417 34.9517900069686 75.0446213156399 0
418 76.1182082246427 29.3167108881227 0
419 75.1532820616797 76.1486696076589 0
420 70.6626585080101 19.8366569576459 0
421 66.0345028585108 24.935515297231 0
422 75.8305898808314 81.2094472813451 0
423 20.0203651205963 30.0065046046583 0
424 25.0378258385532 25.0110249618602 0
425 39.9139805802393 80.0681261463269 0
426 29.9689823465396 80.0234915963918 0
427 24.9858168513855 70.0136519164671 0
428 19.9916626185676 70.0079608951032 0
429 19.9968463942514 60.0054659283966 0
430 24.9826430958952 75.014751339985 0
431 24.9816256140554 80.0137522527606 0
432 20.0166671008602 35.005742577567 0
433 75.8026684194358 24.6107361654554 0
434 78.6774422169027 42.2749881866479 0
435 80.4051210114626 37.0883823600006 0
436 34.9474018557886 80.0408739534442 0
437 29.9702666909979 75.0262003245817 0
438 19.9939238834257 65.0069963918841 0
439 70.9950097154793 24.7395386241946 0
$EndNodes
$Elements
392
1 2 2 1 1 102 11 287 
2 2 2 1 1 287 101 102 
3 3 2 1 1 383 375 418 384
4 3 2 1 1 372 388 340 333
5 3 2 1 1 341 342 329 386
6 3 2 1 1 321 327 279 268
7 3 2 1 1 99 100 267 213
8 3 2 1 1 342 341 287 11
9 3 2 1 1 386 419 387 323
10 3 2 1 1 419 422 328 387
11 3 2 1 1 329 342 292 273
12 3 2 1 1 421 376 420 439
13 3 2 1 1 385 331 343 391
14 3 2 1 1 375 383 435 382
15 3 2 1 1 418 433 390 384
16 3 2 1 1 382 435 394 434
17 3 2 1 1 385 391 376 421
18 3 2 1 1 213 267 211 131
19 3 2 1 1 332 376 391 344
20 3 2 1 1 333 340 222 289
21 3 2 1 1 345 383 384 322
22 3 2 1 1 390 349 322 384
23 3 2 1 1 288 300 233 241
24 3 2 1 1 349 231 291 322
25 3 2 1 1 168 240 176 122
26 3 2 1 1 419 393 378 422
27 3 2 1 1 113 173 294 224
28 3 2 1 1 175 168 122 133
29 3 2 1 1 389 346 281 397
30 3 2 1 1 331 348 350 343
31 3 2 1 1 378 393 293 347
32 3 2 1 1 222 177 132 289
33 3 2 1 1 131 15 14 213
34 3 2 1 1 332 344 296 215
35 3 2 1 1 244 245 347 293
36 3 2 1 1 389 328 297 346
37 3 2 1 1 293 273 248 244
38 3 2 1 1 223 178 120 290
39 3 2 1 1 224 294 348 331
40 3 2 1 1 273 292 175 248
41 3 2 1 1 231 179 112 291
42 3 2 1 1 233 106 186 241
43 3 2 1 1 180 244 248 134
44 3 2 1 1 334 246 299 392
45 3 2 1 1 267 287 243 211
46 3 2 1 1 215 181 137 242
47 3 2 1 1 349 390 330 351
48 3 2 1 1 247 169 139 187
49 3 2 1 1 287 267 100 101
50 3 2 1 1 137 136 160 242
51 3 2 1 1 176 240 289 132
52 3 2 1 1 240 168 239 286
53 3 2 1 1 223 290 394 345
54 3 2 1 1 177 222 290 120
55 3 2 1 1 388 434 394 340
56 3 2 1 1 290 222 340 394
57 3 2 1 1 133 134 248 175
58 3 2 1 1 323 270 341 386
59 3 2 1 1 244 180 121 245
60 3 2 1 1 249 185 135 295
61 3 2 1 1 243 130 131 211
62 3 2 1 1 178 223 291 112
63 3 2 1 1 250 184 104 296
64 3 2 1 1 300 288 351 330
65 3 2 1 1 131 130 5 15
66 3 2 1 1 397 281 354 336
67 3 2 1 1 168 175 292 239
68 3 2 1 1 345 322 291 223
69 3 2 1 1 394 435 383 345
70 3 2 1 1 106 233 160 136
71 3 2 1 1 242 160 352 272
72 3 2 1 1 134 133 72 73
73 3 2 1 1 133 122 71 72
74 3 2 1 1 187 140 188 247
75 3 2 1 1 122 176 70 71
76 3 2 1 1 351 295 231 349
77 3 2 1 1 176 132 69 70
78 3 2 1 1 132 177 68 69
79 3 2 1 1 178 112 65 66
80 3 2 1 1 270 243 287 341
81 3 2 1 1 180 134 73 74
82 3 2 1 1 120 178 66 67
83 3 2 1 1 169 247 301 298
84 3 2 1 1 177 120 67 68
85 3 2 1 1 304 356 399 355
86 3 2 1 1 241 170 249 288
87 3 2 1 1 245 169 298 347
88 3 2 1 1 295 351 288 249
89 3 2 1 1 185 249 170 123
90 3 2 1 1 296 344 280 250
91 3 2 1 1 225 182 138 297
92 3 2 1 1 186 142 170 241
93 3 2 1 1 246 183 105 299
94 3 2 1 1 112 179 64 65
95 3 2 1 1 174 270 323 216
96 3 2 1 1 121 180 74 75
97 3 2 1 1 11 239 292 342
98 3 2 1 1 139 169 245 121
99 3 2 1 1 186 106 37 38
100 3 2 1 1 136 36 37 106
101 3 2 1 1 137 35 36 136
102 3 2 1 1 179 231 295 135
103 3 2 1 1 137 181 34 35
104 3 2 1 1 356 396 379 399
105 3 2 1 1 181 104 33 34
106 3 2 1 1 182 105 83 84
107 3 2 1 1 397 357 274 389
108 3 2 1 1 343 280 344 391
109 3 2 1 1 179 135 63 64
110 3 2 1 1 3 113 210 4
111 3 2 1 1 123 170 142 143
112 3 2 1 1 233 300 352 160
113 3 2 1 1 298 301 246 334
114 3 2 1 1 328 389 274 387
115 3 2 1 1 181 215 296 104
116 3 2 1 1 139 121 75 76
117 3 2 1 1 215 242 272 332
118 3 2 1 1 352 300 330 377
119 3 2 1 1 138 182 84 85
120 3 2 1 1 420 376 332 272
121 3 2 1 1 350 348 282 353
122 3 2 1 1 105 183 82 83
123 3 2 1 1 165 357 276 255
124 3 2 1 1 357 397 336 276
125 3 2 1 1 104 184 32 33
126 3 2 1 1 301 247 188 124
127 3 2 1 1 110 5 130 174
128 3 2 1 1 135 185 62 63
129 3 2 1 1 142 186 38 39
130 3 2 1 1 395 354 226 302
131 3 2 1 1 187 139 76 77
132 3 2 1 1 184 250 162 128
133 3 2 1 1 281 346 297 251
134 3 2 1 1 189 138 85 86
135 3 2 1 1 422 392 299 328
136 3 2 1 1 353 355 275 303
137 3 2 1 1 128 162 190 141
138 3 2 1 1 396 424 402 379
139 3 2 1 1 183 124 81 82
140 3 2 1 1 140 187 77 78
141 3 2 1 1 189 251 297 138
142 3 2 1 1 183 246 301 124
143 3 2 1 1 232 162 250 280
144 3 2 1 1 124 188 80 81
145 3 2 1 1 184 128 31 32
146 3 2 1 1 297 328 299 225
147 3 2 1 1 185 123 61 62
148 3 2 1 1 143 60 61 123
149 3 2 1 1 251 189 118 226
150 3 2 1 1 334 378 347 298
151 3 2 1 1 282 348 294 254
152 3 2 1 1 144 29 30 141
153 3 2 1 1 128 141 30 31
154 3 2 1 1 173 145 254 294
155 3 2 1 1 395 358 400 415
156 3 2 1 1 113 3 12 173
157 3 2 1 1 188 140 79 80
158 3 2 1 1 182 225 299 105
159 3 2 1 1 423 432 335 404
160 3 2 1 1 355 353 282 304
161 3 2 1 1 234 275 319 252
162 3 2 1 1 142 39 40 143
163 3 2 1 1 304 282 254 166
164 3 2 1 1 398 424 324 423
165 3 2 1 1 252 191 144 234
166 3 2 1 1 145 173 12 2
167 3 2 1 1 129 166 254 145
168 3 2 1 1 350 232 280 343
169 3 2 1 1 144 191 28 29
170 3 2 1 1 191 252 163 109
171 3 2 1 1 379 359 319 399
172 3 2 1 1 432 401 405 335
173 3 2 1 1 129 145 2 1
174 3 2 1 1 277 235 163 359
175 3 2 1 1 353 303 232 350
176 3 2 1 1 359 379 402 277
177 3 2 1 1 424 398 360 402
178 3 2 1 1 423 404 362 398
179 3 2 1 1 304 166 253 356
180 3 2 1 1 129 1 192 256
181 3 2 1 1 255 276 307 229
182 3 2 1 1 165 255 152 110
183 3 2 1 1 277 402 360 305
184 3 2 1 1 305 257 235 277
185 3 2 1 1 336 415 307 276
186 3 2 1 1 401 403 337 405
187 3 2 1 1 403 363 284 407
188 3 2 1 1 252 319 359 163
189 3 2 1 1 400 358 406 425
190 3 2 1 1 258 229 307 361
191 3 2 1 1 318 306 253 256
192 3 2 1 1 425 406 325 436
193 3 2 1 1 337 311 217 405
194 3 2 1 1 192 153 312 227
195 3 2 1 1 335 308 228 404
196 3 2 1 1 283 362 310 259
197 3 2 1 1 425 436 417 380
198 3 2 1 1 395 302 219 358
199 3 2 1 1 425 380 361 400
200 3 2 1 1 305 360 283 260
201 3 2 1 1 228 310 362 404
202 3 2 1 1 217 308 335 405
203 3 2 1 1 362 283 360 398
204 3 2 1 1 437 430 427 374
205 3 2 1 1 363 338 227 312
206 3 2 1 1 403 401 338 363
207 3 2 1 1 257 305 260 195
208 3 2 1 1 396 306 324 424
209 3 2 1 1 426 437 417 436
210 3 2 1 1 258 114 206 229
211 3 2 1 1 255 229 206 152
212 3 2 1 1 226 118 204 302
213 3 2 1 1 230 312 153 203
214 3 2 1 1 407 284 366 408
215 3 2 1 1 312 230 284 363
216 3 2 1 1 259 261 260 283
217 3 2 1 1 337 403 407 364
218 3 2 1 1 163 235 154 109
219 3 2 1 1 235 257 199 154
220 3 2 1 1 358 219 314 406
221 3 2 1 1 311 337 364 236
222 3 2 1 1 427 428 438 411
223 3 2 1 1 338 414 318 227
224 3 2 1 1 325 406 314 218
225 3 2 1 1 429 413 411 438
226 3 2 1 1 195 127 199 257
227 3 2 1 1 227 318 256 192
228 3 2 1 1 195 260 261 196
229 3 2 1 1 308 217 107 201
230 3 2 1 1 228 308 201 147
231 3 2 1 1 310 228 147 193
232 3 2 1 1 437 426 431 430
233 3 2 1 1 258 309 161 114
234 3 2 1 1 438 428 368 409
235 3 2 1 1 259 310 193 119
236 3 2 1 1 417 437 374 326
237 3 2 1 1 415 400 361 307
238 3 2 1 1 217 311 198 107
239 3 2 1 1 401 432 414 338
240 3 2 1 1 436 325 410 426
241 3 2 1 1 408 278 364 407
242 3 2 1 1 261 259 119 209
243 3 2 1 1 196 146 127 195
244 3 2 1 1 262 230 203 111
245 3 2 1 1 230 262 366 284
246 3 2 1 1 196 261 209 148
247 3 2 1 1 364 278 164 236
248 3 2 1 1 311 236 150 198
249 3 2 1 1 427 430 381 428
250 3 2 1 1 426 410 339 431
251 3 2 1 1 148 158 146 196
252 3 2 1 1 313 262 111 205
253 3 2 1 1 410 325 218 317
254 3 2 1 1 429 365 278 408
255 3 2 1 1 339 410 317 238
256 3 2 1 1 381 430 431 412
257 3 2 1 1 413 313 369 411
258 3 2 1 1 313 205 221 369
259 3 2 1 1 429 438 409 365
260 3 2 1 1 412 367 271 381
261 3 2 1 1 285 412 431 339
262 3 2 1 1 408 366 413 429
263 3 2 1 1 368 428 381 271
264 3 2 1 1 262 313 413 366
265 3 2 1 1 237 164 278 365
266 3 2 1 1 409 368 220 316
267 3 2 1 1 316 237 365 409
268 3 2 1 1 143 40 8 60
269 3 2 1 1 140 78 10 79
270 3 2 1 1 95 194 126 94
271 3 2 1 1 263 172 367 315
272 3 2 1 1 412 285 315 367
273 3 2 1 1 314 219 151 197
274 3 2 1 1 55 56 119 193
275 3 2 1 1 236 164 117 150
276 3 2 1 1 191 109 27 28
277 3 2 1 1 50 51 198 150
278 3 2 1 1 56 57 209 119
279 3 2 1 1 148 58 59 158
280 3 2 1 1 125 96 97 149
281 3 2 1 1 90 91 108 197
282 3 2 1 1 125 149 155 171
283 3 2 1 1 45 46 207 156
284 3 2 1 1 107 198 51 52
285 3 2 1 1 151 89 90 197
286 3 2 1 1 108 91 92 202
287 3 2 1 1 316 220 207 116
288 3 2 1 1 171 155 200 263
289 3 2 1 1 108 218 314 197
290 3 2 1 1 108 202 317 218
291 3 2 1 1 171 263 315 264
292 3 2 1 1 7 22 158 59
293 3 2 1 1 23 146 158 22
294 3 2 1 1 24 127 146 23
295 3 2 1 1 24 25 199 127
296 3 2 1 1 26 154 199 25
297 3 2 1 1 27 109 154 26
298 3 2 1 1 155 149 41 42
299 3 2 1 1 9 41 149 97
300 3 2 1 1 42 43 200 155
301 3 2 1 1 193 147 54 55
302 3 2 1 1 53 54 147 201
303 3 2 1 1 57 58 148 209
304 3 2 1 1 89 151 204 88
305 3 2 1 1 263 200 115 172
306 3 2 1 1 194 264 167 126
307 3 2 1 1 302 204 151 219
308 3 2 1 1 126 167 238 157
309 3 2 1 1 202 157 238 317
310 3 2 1 1 339 238 167 285
311 3 2 1 1 264 315 285 167
312 3 2 1 1 192 1 21 153
313 3 2 1 1 19 6 205 111
314 3 2 1 1 150 117 49 50
315 3 2 1 1 189 86 87 118
316 3 2 1 1 202 92 93 157
317 3 2 1 1 164 237 208 117
318 3 2 1 1 16 5 110 152
319 3 2 1 1 114 161 6 18
320 3 2 1 1 152 206 17 16
321 3 2 1 1 18 17 206 114
322 3 2 1 1 203 20 19 111
323 3 2 1 1 153 21 20 203
324 3 2 1 1 200 43 44 115
325 3 2 1 1 44 45 156 115
326 3 2 1 1 207 46 47 116
327 3 2 1 1 48 208 116 47
328 3 2 1 1 208 48 49 117
329 3 2 1 1 201 107 52 53
330 3 2 1 1 87 88 204 118
331 3 2 1 1 157 93 94 126
332 3 2 1 1 264 194 125 171
333 3 2 1 1 115 156 265 172
334 3 2 1 1 207 220 265 156
335 3 2 1 1 6 161 221 205
336 3 2 1 1 265 271 367 172
337 3 2 1 1 116 208 237 316
338 3 2 1 1 368 271 265 220
339 3 2 1 1 96 125 194 95
340 3 2 1 1 374 427 411 369
341 3 2 1 1 380 417 326 309
342 3 2 1 1 369 221 326 374
343 3 2 1 1 309 258 361 380
344 3 2 1 1 221 161 309 326
345 3 2 1 1 306 396 356 253
346 3 2 1 1 414 324 306 318
347 3 2 1 1 432 423 324 414
348 3 2 1 1 392 422 378 334
349 3 2 1 1 256 253 166 129
350 3 2 1 1 275 234 190 303
351 3 2 1 1 251 226 354 281
352 3 2 1 1 216 274 357 165
353 3 2 1 1 354 395 415 336
354 3 2 1 1 275 355 399 319
355 3 2 1 1 141 190 234 144
356 3 2 1 1 216 323 387 274
357 3 2 1 1 162 232 303 190
358 3 2 1 1 327 321 214 370
359 3 2 1 1 165 110 174 216
360 3 2 1 1 130 243 270 174
361 3 2 1 1 273 293 393 329
362 3 2 1 1 433 439 420 377
363 3 2 1 1 390 433 377 330
364 3 2 1 1 386 329 393 419
365 3 2 1 1 382 370 269 375
366 3 2 1 1 439 416 371 421
367 3 2 1 1 210 320 371 266
368 3 2 1 1 269 416 418 375
369 3 2 1 1 372 373 279 388
370 3 2 1 1 272 352 377 420
371 3 2 1 1 370 382 434 327
372 3 2 1 1 421 371 320 385
373 3 2 1 1 279 327 434 388
374 3 2 1 1 333 286 239 372
375 3 2 1 1 331 385 320 224
376 3 2 1 1 266 371 416 269
377 3 2 1 1 100 279 373 101
378 3 2 1 1 433 418 416 439
379 3 2 1 1 321 212 103 214
380 3 2 1 1 210 113 224 320
381 3 2 1 1 370 214 266 269
382 3 2 1 1 289 240 286 333
383 3 2 1 1 214 103 210 266
384 3 2 1 1 13 159 213 14
385 3 2 1 1 103 212 99 98
386 3 2 1 1 239 11 102 372
387 3 2 1 1 321 268 99 212
388 3 2 1 1 210 103 98 4
389 3 2 1 1 101 373 372 102
390 3 2 1 1 279 100 99 268
391 3 2 1 1 4 98 159 13
392 3 2 1 1 213 159 98 99
$EndElements
