$MeshFormat
2.2 0 8
$EndMeshFormat
$Nodes
101
1 20 20 0
2 80 20 0
3 80 30 0
4 80 55 0
5 80 60 0
6 80 80 0
7 20 80 0
8 20 55 0
9 0 0 0
10 100 0 0
11 0 100 0
12 100 100 0
13 30 20 0
14 40 20 0
15 50 20 0
16 60 20 0
17 70 20 0
18 80 38.3333333333333 0
19 80 46.6666666666667 0
20 80 70 0
21 70 80 0
22 60 80 0
23 50 80 0
24 40 80 0
25 30 80 0
26 20 71.6666666666667 0
27 20 63.3333333333333 0
28 20 46.25 0
29 20 37.5 0
30 20 28.75 0
31 10 0 0
32 20 0 0
33 30 0 0
34 40 0 0
35 50 0 0
36 60 0 0
37 70 0 0
38 80 0 0
39 90 0 0
40 0 90 0
41 0 80 0
42 0 70 0
43 0 60 0
44 0 50 0
45 0 40 0
46 0 30 0
47 0 20 0
48 0 10 0
49 100 10 0
50 100 20 0
51 100 30 0
52 100 40 0
53 100 50 0
54 100 60 0
55 100 70 0
56 100 80 0
57 100 90 0
58 90 100 0
59 80 100 0
60 70 100 0
61 60 100 0
62 50 100 0
63 40 100 0
64 30 100 0
65 20 100 0
66 10 100 0
67 84.7636038311387 61.414542163042 0
68 89.8002256560183 39.0550029795277 0
69 11.4441122956494 75.1779796741007 0
70 10.0509806796876 57.1832853309907 0
71 9.99538999023105 38.5727098898662 0
72 10.0276101822715 19.7219790608559 0
73 26.393695404417 90.0848876966392 0
74 89.9323110684909 29.6667344231032 0
75 10.2438628529816 89.6847158278187 0
76 20.036471693958 9.98970806210228 0
77 10.018855816736 9.95260314207141 0
78 87.0134441954503 56.6288463546425 0
79 69.995667877612 9.99550622561425 0
80 40.0157354373979 10.0120818152051 0
81 60.0004157311185 10.0001931450422 0
82 89.193264951268 71.0381680117313 0
83 45.3878030089735 89.9930008152966 0
84 89.9780996003014 9.97270364684618 0
85 79.1274251027605 89.239017653606 0
86 86.4365043575493 81.9007514467521 0
87 65.9367081009483 89.865762536364 0
88 89.4528798265312 93.3062153609133 0
89 88.9623307770424 48.2936588838435 0
90 19.8961861003713 89.7278374309795 0
91 13.5155968126576 82.3093124914483 0
92 35.4007649237526 90.003184991401 0
93 79.9860703915053 9.98269519906494 0
94 50.0036783991623 10.0028811147777 0
95 55.3323189586874 89.9768635411965 0
96 30.0187843846269 10.0088072021773 0
97 89.9711668275924 19.927712869827 0
98 10.0100099737205 47.9783831578592 0
99 9.98918410405652 29.251263492711 0
100 10.2359120128381 66.4227658576135 0
101 93.7477281646696 61.8664198103157 0
$EndNodes
$Elements
70
1 2 2 1 1 66 75 65 
2 2 2 1 1 11 40 66 
3 2 2 1 1 54 55 101 
4 2 2 1 1 101 53 54 
5 3 2 1 1 74 51 52 68
6 3 2 1 1 100 69 41 42
7 3 2 1 1 98 70 43 44
8 3 2 1 1 69 91 75 41
9 3 2 1 1 89 78 4 19
10 3 2 1 1 70 100 42 43
11 3 2 1 1 78 89 53 101
12 3 2 1 1 99 71 45 46
13 3 2 1 1 71 98 44 45
14 3 2 1 1 97 50 51 74
15 3 2 1 1 72 99 46 47
16 3 2 1 1 90 73 64 65
17 3 2 1 1 96 76 32 33
18 3 2 1 1 65 75 91 90
19 3 2 1 1 68 52 53 89
20 3 2 1 1 33 34 80 96
21 3 2 1 1 7 25 92 73
22 3 2 1 1 77 76 1 72
23 3 2 1 1 83 92 25 24
24 3 2 1 1 41 75 66 40
25 3 2 1 1 2 93 84 97
26 3 2 1 1 76 77 31 32
27 3 2 1 1 72 47 48 77
28 3 2 1 1 80 14 13 96
29 3 2 1 1 73 92 63 64
30 3 2 1 1 77 48 9 31
31 3 2 1 1 92 83 62 63
32 3 2 1 1 81 36 37 79
33 3 2 1 1 101 55 56 82
34 3 2 1 1 17 79 93 2
35 3 2 1 1 20 82 86 6
36 3 2 1 1 16 15 94 81
37 3 2 1 1 81 79 17 16
38 3 2 1 1 80 34 35 94
39 3 2 1 1 36 81 94 35
40 3 2 1 1 37 38 93 79
41 3 2 1 1 21 6 86 85
42 3 2 1 1 80 94 15 14
43 3 2 1 1 22 21 85 87
44 3 2 1 1 87 95 23 22
45 3 2 1 1 24 23 95 83
46 3 2 1 1 39 84 93 38
47 3 2 1 1 10 49 84 39
48 3 2 1 1 97 84 49 50
49 3 2 1 1 82 56 57 86
50 3 2 1 1 12 58 88 57
51 3 2 1 1 59 85 88 58
52 3 2 1 1 60 87 85 59
53 3 2 1 1 95 87 60 61
54 3 2 1 1 61 62 83 95
55 3 2 1 1 57 88 85 86
56 3 2 1 1 1 76 96 13
57 3 2 1 1 3 2 97 74
58 3 2 1 1 8 70 98 28
59 3 2 1 1 91 7 73 90
60 3 2 1 1 99 30 29 71
61 3 2 1 1 99 72 1 30
62 3 2 1 1 29 28 98 71
63 3 2 1 1 89 19 18 68
64 3 2 1 1 74 68 18 3
65 3 2 1 1 91 69 26 7
66 3 2 1 1 100 27 26 69
67 3 2 1 1 100 70 8 27
68 3 2 1 1 82 67 78 101
69 3 2 1 1 78 67 5 4
70 3 2 1 1 82 20 5 67
$EndElements
