$MeshFormat
2.2 0 8
$EndMeshFormat
$Nodes
609
1 0 0 0
2 125 0 0
3 250 0 0
4 375 0 0
5 500 0 0
6 625 0 0
7 750 0 0
8 875 0 0
9 1000 0 0
10 1000 125 0
11 875 250 0
12 750 375 0
13 500 450 0
14 250 375 0
15 125 250 0
16 0 125 0
17 25 0 0
18 50 0 0
19 75 0 0
20 100 0 0
21 150 0 0
22 175 0 0
23 200 0 0
24 225 0 0
25 275 0 0
26 300 0 0
27 325 0 0
28 350 0 0
29 400 0 0
30 425 0 0
31 450 0 0
32 475 0 0
33 525 0 0
34 550 0 0
35 575 0 0
36 600 0 0
37 650 0 0
38 675 0 0
39 700 0 0
40 725 0 0
41 775 0 0
42 800 0 0
43 825 0 0
44 850 0 0
45 900 0 0
46 925 0 0
47 950 0 0
48 975 0 0
49 1000 25 0
50 1000 50 0
51 1000 75 0
52 1000 100 0
53 982.142857142857 142.857142857143 0
54 964.285714285714 160.714285714286 0
55 946.428571428571 178.571428571428 0
56 928.571428571429 196.428571428571 0
57 910.714285714286 214.285714285714 0
58 892.857142857143 232.142857142857 0
59 857.142857142857 267.857142857143 0
60 839.285714285714 285.714285714286 0
61 821.428571428571 303.571428571428 0
62 803.571428571429 321.428571428571 0
63 785.714285714286 339.285714285714 0
64 767.857142857143 357.142857142857 0
65 725 382.5 0
66 700 390 0
67 675 397.5 0
68 650 405 0
69 625 412.5 0
70 600 420 0
71 575 427.5 0
72 550 435 0
73 525 442.5 0
74 475 442.5 0
75 450 435 0
76 425 427.5 0
77 400 420 0
78 375 412.5 0
79 350 405 0
80 325 397.5 0
81 300 390 0
82 275 382.5 0
83 232.142857142857 357.142857142857 0
84 214.285714285714 339.285714285714 0
85 196.428571428572 321.428571428572 0
86 178.571428571429 303.571428571429 0
87 160.714285714286 285.714285714286 0
88 142.857142857143 267.857142857143 0
89 107.142857142857 232.142857142857 0
90 89.2857142857143 214.285714285714 0
91 71.4285714285715 196.428571428572 0
92 53.5714285714287 178.571428571429 0
93 35.7142857142858 160.714285714286 0
94 17.8571428571429 142.857142857143 0
95 0 100 0
96 0 75 0
97 0 50 0
98 0 25 0
99 107.142857142857 17.8571428571429 0
100 89.2857142857143 35.7142857142857 0
101 71.4285714285715 53.5714285714285 0
102 53.5714285714287 71.4285714285713 0
103 35.7142857142858 89.2857142857142 0
104 17.8571428571429 107.142857142857 0
105 238.636363636364 22.7272727272727 0
106 227.272727272727 45.4545454545454 0
107 215.909090909091 68.1818181818181 0
108 204.545454545455 90.9090909090907 0
109 193.181818181818 113.636363636363 0
110 181.818181818182 136.363636363636 0
111 170.454545454546 159.090909090909 0
112 159.090909090909 181.818181818182 0
113 147.727272727273 204.545454545454 0
114 136.363636363636 227.272727272727 0
115 367.1875 23.4375 0
116 359.375 46.8750000000001 0
117 351.5625 70.3125000000001 0
118 343.75 93.7500000000002 0
119 335.9375 117.1875 0
120 328.125 140.625 0
121 320.3125 164.0625 0
122 312.5 187.5 0
123 304.6875 210.9375 0
124 296.875 234.375 0
125 289.0625 257.8125 0
126 281.25 281.25 0
127 273.4375 304.6875 0
128 265.625 328.125 0
129 257.8125 351.5625 0
130 500 25 0
131 500 50 0
132 500 75 0
133 500 100 0
134 500 125 0
135 500 150 0
136 500 175 0
137 500 200 0
138 500 225 0
139 500 250 0
140 500 275 0
141 500 300 0
142 500 325 0
143 500 350 0
144 500 375 0
145 500 400 0
146 500 425 0
147 632.8125 23.4375 0
148 640.625 46.8750000000001 0
149 648.4375 70.3125000000001 0
150 656.25 93.7500000000002 0
151 664.0625 117.1875 0
152 671.875 140.625 0
153 679.6875 164.0625 0
154 687.5 187.5 0
155 695.3125 210.9375 0
156 703.125 234.375 0
157 710.9375 257.8125 0
158 718.75 281.25 0
159 726.5625 304.6875 0
160 734.375 328.125 0
161 742.1875 351.5625 0
162 761.363636363636 22.7272727272727 0
163 772.727272727273 45.4545454545454 0
164 784.090909090909 68.1818181818181 0
165 795.454545454545 90.9090909090907 0
166 806.818181818182 113.636363636363 0
167 818.181818181818 136.363636363636 0
168 829.545454545454 159.090909090909 0
169 840.909090909091 181.818181818182 0
170 852.272727272727 204.545454545454 0
171 863.636363636364 227.272727272727 0
172 892.857142857143 17.8571428571429 0
173 910.714285714286 35.7142857142857 0
174 928.571428571429 53.5714285714285 0
175 946.428571428571 71.4285714285713 0
176 964.285714285714 89.2857142857142 0
177 982.142857142857 107.142857142857 0
178 366.453514281968 387.556606381491 0
179 617.583967494903 387.804815035597 0
180 809.754525333006 280.415219891027 0
181 175.073623234962 264.265634476314 0
182 328.531572443365 374.429133384121 0
183 434.117739595297 405.627629702325 0
184 844.962473000178 245.073042326932 0
185 910.260882807826 177.847753297195 0
186 83.8391100592415 183.95803420662 0
187 573.915893696604 26.1142203367632 0
188 449.162953580855 25.0872400665551 0
189 395.399251022899 25.5417332126323 0
190 667.389848962256 373.010668349308 0
191 975.076924653139 23.0710729884204 0
192 25.8087541038863 24.7878716017051 0
193 708.174868715306 25.7426126545458 0
194 317.219985201651 24.5420912053332 0
195 568.628475451971 402.265756863893 0
196 174.434908715432 16.0399617228259 0
197 846.787004933225 21.0818238148493 0
198 223.291321588605 314.356737454389 0
199 602.291296159719 31.9351576850866 0
200 156.023822501355 245.61938632018 0
201 27.7299762360586 119.98935791018 0
202 965.896402892931 124.692064250995 0
203 281.894444746543 358.297003461552 0
204 831.813417888721 22.8638918288844 0
205 210.591650103112 301.134711145058 0
206 792.533607166405 297.81103690766 0
207 292.047945309939 23.6649377669652 0
208 549.378929900504 25.0672218458794 0
209 524.764057520147 24.940681825409 0
210 474.714841841451 24.9859592708108 0
211 928.251449844535 159.322757642607 0
212 47.472200818702 139.549023988645 0
213 692.312490342694 365.777373575213 0
214 717.240942432265 358.644571757591 0
215 868.830990418684 22.4721363728755 0
216 657.190797254134 29.3606589272731 0
217 522.757852131435 408.322567522914 0
218 160.584288376822 25.3379063327116 0
219 132.81236720921 23.4817716922879 0
220 462.355731236136 413.892963436076 0
221 407.856475237885 398.106982706398 0
222 775.422691639507 315.434437650578 0
223 305.662399332218 366.012159838938 0
224 342.265295858072 24.2366761216134 0
225 879.108867856561 206.917194566538 0
226 100.162667939669 192.560822182964 0
227 118.514797564316 207.842330832253 0
228 758.679041417999 333.396162923695 0
229 242.907549539084 330.326635717375 0
230 71.1663153556577 22.9216265933898 0
231 950.920358101092 23.7246355732351 0
232 19.0620148603111 79.4586382518826 0
233 974.461306115132 39.5774268796809 0
234 344.74150598949 380.84287086628 0
235 208.682666054989 32.2876462199691 0
236 790.485121210269 33.2550411792365 0
237 383.285874485216 391.730823918124 0
238 913.931521975919 21.1141844489925 0
239 981.386702986227 80.4135271461047 0
240 86.0671643014873 20.9469618212927 0
241 12.2072380686529 95.7601806983632 0
242 269.299784750239 19.5454207494272 0
243 386.179738998868 368.933210957275 0
244 99.6912663925918 58.0989653192334 0
245 311.530066798083 342.030652021717 0
246 439.761599938455 381.8323008148 0
247 572.304959127094 49.87310869983 0
248 524.651704601341 49.8066318156016 0
249 684.487295796737 341.674748203421 0
250 189.808387989875 242.416683284785 0
251 740.08278895123 38.7194874435732 0
252 907.779182271167 134.726640607113 0
253 310.397337412124 48.8493542605651 0
254 841.979771741136 44.2369003344611 0
255 172.348451134434 46.5067665148945 0
256 616.57611484348 56.8561113862518 0
257 62.4713176613534 97.3957169045727 0
258 782.101516354889 274.096962450919 0
259 170.078907565086 222.805366198089 0
260 144.051693415788 39.046399982336 0
261 422.941949347233 25.6740193006629 0
262 827.148169719842 262.84235285433 0
263 947.862501644488 141.565761913626 0
264 709.394607593419 334.86598506898 0
265 106.779639362028 167.213299023881 0
266 642.451936831827 380.391000933597 0
267 592.901176021978 395.209553123341 0
268 193.220768297316 282.846470847559 0
269 474.738560322932 49.9231079212007 0
270 76.3150632108554 159.170523009802 0
271 49.6679179335925 23.9574617741885 0
272 30.2780643291273 53.516545610554 0
273 729.514348572832 18.4570012622938 0
274 252.463205538297 47.9177292081882 0
275 131.781502148375 177.263026374098 0
276 877.98782708826 186.724309497779 0
277 950.064245762615 48.7051863729532 0
278 521.947270366121 389.631380045117 0
279 666.398718206914 51.7891144234145 0
280 334.974367974368 48.2552452082141 0
281 358.284871153028 366.408848440934 0
282 333.61144139451 351.92884725684 0
283 831.810898315419 222.423328851647 0
284 392.389058179619 56.6796832078394 0
285 884.638579929189 38.2311077911812 0
286 545.279270863593 408.136232565583 0
287 765.377483862146 291.406100315968 0
288 246.609242303788 306.840435920831 0
289 802.560304340643 58.3464040242523 0
290 196.019725864574 57.2932275622977 0
291 686.316205011301 36.0085922871948 0
292 898.801862524789 191.340990907738 0
293 288.798758400145 334.309226896003 0
294 749.537516409455 309.523388175015 0
295 46.6101821009027 113.224137279801 0
296 117.005119580026 38.7307187181384 0
297 469.056466822581 390.618677349556 0
298 950.523177050478 106.71316335858 0
299 810.994807341935 26.3517864065726 0
300 411.902750828307 374.477311597185 0
301 928.950922907906 23.4640528953614 0
302 968.627281620994 63.2464719961585 0
303 188.983820192022 22.7280125273421 0
304 385.274616999679 343.959309542559 0
305 585.758323392138 370.717379894666 0
306 443.818669115435 352.847409135195 0
307 129.419090508236 55.6283590766309 0
308 918.888637268697 74.9164033970959 0
309 695.243769638766 62.9938176238167 0
310 207.791983215557 261.839999439158 0
311 69.6993838182879 125.990152547887 0
312 205.196487641976 222.033657971813 0
313 799.039998905748 257.848215666453 0
314 754.702788438614 267.288386068572 0
315 189.672516909081 197.092713978279 0
316 883.54793367003 160.419007643395 0
317 225.724245530952 280.837728651555 0
318 933.742987592892 121.298980266918 0
319 822.444578897629 50.65732402225 0
320 634.836646798368 355.888199888396 0
321 659.620025202649 348.71043196965 0
322 549.00145003459 49.7158058192133 0
323 449.32495611986 50.1080154851725 0
324 475.049253332805 74.8474185899702 0
325 524.709175954107 74.6535310961967 0
326 701.559180433503 311.17470902118 0
327 96.2667043997052 135.287481996593 0
328 152.949316172137 51.237377734474 0
329 285.427849223026 47.9321160479367 0
330 317.581865680863 318.179050262962 0
331 296.013255421583 310.075323363557 0
332 360.414586656425 337.746431204511 0
333 50.351306659603 42.3734010925327 0
334 858.159878993115 162.072056301987 0
335 136.355703916024 144.712483425317 0
336 530.624095087491 362.909893071869 0
337 674.885692514617 77.0870091153949 0
338 149.816928800917 168.691081927843 0
339 304.018999763215 72.8164202017393 0
340 327.739758615574 72.0667489241683 0
341 857.379481456187 34.7454590012027 0
342 739.717192662969 285.589084734256 0
343 623.260711800073 73.7920978617563 0
344 375.728683696185 81.1432313889963 0
345 810.656876518801 196.40581477773 0
346 901.23018221078 56.8401540451409 0
347 81.5234343011183 78.57585595064 0
348 164.346236149917 73.5294757993581 0
349 814.392654969472 81.4774900669563 0
350 338.288032588078 328.983214331134 0
351 473.127565285367 366.950484623666 0
352 814.96497993451 240.938152483186 0
353 589.319216450281 50.6296107749859 0
354 423.398007502897 51.29789707142 0
355 411.908704314501 348.935554744411 0
356 259.612780882788 272.547328729266 0
357 935.102934825117 90.3154468205561 0
358 538.663765739424 384.741517453861 0
359 184.717603689912 81.221618248916 0
360 752.405368725895 62.9033791043295 0
361 382.679814436553 318.847538970284 0
362 229.048411737184 92.089025686785 0
363 218.2284165876 211.263784244985 0
364 651.979519022577 324.514270559605 0
365 433.296610485698 324.439927866044 0
366 702.245472651818 88.4554331008288 0
367 221.463767413212 241.127486147494 0
368 280.864291463769 71.3896362750972 0
369 854.474287727068 64.972006530614 0
370 93.4689545773945 107.1039908305 0
371 728.625765452321 82.6109009474449 0
372 239.556765661268 258.092718882253 0
373 145.213184262775 66.5123502928983 0
374 555.167465950785 354.324815056643 0
375 450.087267556838 74.9218019054189 0
376 114.15586311545 140.112289351015 0
377 904.986001193358 99.4153912883264 0
378 869.970590790816 136.614707744533 0
379 886.718914919394 74.2113096507895 0
380 610.222403738598 363.289608543463 0
381 676.726707208676 317.789791790794 0
382 358.614166178031 314.062998344504 0
383 549.18317939616 74.199401122933 0
384 595.111874914285 67.4157416210685 0
385 771.764223474969 250.520221850669 0
386 804.753124365958 226.029424888348 0
387 524.772158146035 99.5223242953721 0
388 475.271129644922 99.7751344310601 0
389 561.904728107294 378.042313283786 0
390 717.79367137485 51.964334738841 0
391 114.52518565801 76.4262717950254 0
392 329.282779205277 294.052258697382 0
393 525.697126075327 339.626257817727 0
394 849.279023357052 146.795861729866 0
395 694.043458117128 287.650405436487 0
396 144.413826376238 119.834075491056 0
397 871.145620137522 53.368953074221 0
398 296.887126853636 96.6979596362368 0
399 682.446379589978 101.440429863268 0
400 834.400055214131 73.1758872373734 0
401 320.21615032476 95.8900362223826 0
402 155.065931601043 150.339363128887 0
403 459.449004056265 340.223964948693 0
404 342.458304323062 313.014296798723 0
405 406.558129070322 76.5533366617017 0
406 476.552760627135 345.049310105585 0
407 174.115611441926 104.507726810625 0
408 826.258639186004 103.952634444249 0
409 408.35412644464 323.026620095606 0
410 304.658547502469 285.758055646198 0
411 270.029197119892 247.126684567982 0
412 925.346596756824 104.556267633659 0
413 766.081047394174 86.7742309022691 0
414 727.325327801285 260.94078321714 0
415 638.342338968316 94.8313405153169 0
416 196.825789289729 167.68638830797 0
417 404.102812073123 298.212310923687 0
418 780.971621967638 211.634187983081 0
419 550.338867165632 330.26574357517 0
420 727.950347735725 218.947094017767 0
421 232.547435607701 220.868567695416 0
422 398.113954001927 97.1753943932045 0
423 274.339518622363 94.6632848802925 0
424 455.662146197125 323.110498388165 0
425 549.503995169349 98.9526126160372 0
426 355.255215924206 292.57748827059 0
427 317.157929862057 257.339462798281 0
428 450.499386448615 99.640739492229 0
429 358.428582120472 120.735125720683 0
430 804.156783416389 153.01709404242 0
431 858.134698990358 116.680664988112 0
432 133.622370902643 88.4249282248975 0
433 251.022270659678 234.177205209342 0
434 708.081684133878 112.027927871845 0
435 867.246756028758 86.1677157355028 0
436 154.191596481967 96.5685808385687 0
437 264.066249731041 69.5247774673189 0
438 884.881710591912 126.797733409741 0
439 627.566537972971 331.550926727692 0
440 579.357383217865 346.42305166719 0
441 741.91283282245 243.231717078794 0
442 524.703579537394 124.383815249327 0
443 475.251472896284 124.70766013611 0
444 681.31385164188 242.325541295179 0
445 846.514498505734 95.1593529140049 0
446 790.068705533594 235.622286567471 0
447 573.013482251452 72.9607576659276 0
448 203.011450295564 151.995122776176 0
449 634.300959051761 116.817617690479 0
450 837.985636844778 125.933439770363 0
451 669.528495059849 294.058211069154 0
452 523.875985644029 314.955474920345 0
453 477.263461402175 323.172125524149 0
454 689.958335657211 125.218421372856 0
455 163.842745892979 127.68113295843 0
456 240.405723249211 68.7363049938666 0
457 312.545164755654 120.206145564042 0
458 332.709920513882 273.013130743687 0
459 122.675788887333 113.546627219735 0
460 428.477681928296 299.851377782123 0
461 425.272869328707 75.5611469086037 0
462 379.38238959976 294.961566714249 0
463 280.093465653607 222.768334516216 0
464 218.871032822031 194.282600047754 0
465 748.57463515122 104.416593057118 0
466 779.08528062301 109.389109582011 0
467 604.902752503438 96.298738804188 0
468 401.968517659477 274.597536639411 0
469 617.710580072996 130.62953586332 0
470 223.532667969732 171.230326050498 0
471 549.441038788622 123.891481071443 0
472 547.580213698251 305.49974745256 0
473 289.102060955677 121.306150369064 0
474 452.184389445054 299.808143524205 0
475 450.272504507087 124.508360824431 0
476 351.276149873508 270.167594524687 0
477 574.749740754105 98.0047402782905 0
478 213.692407596289 127.536421609345 0
479 646.040750694884 145.150708924799 0
480 715.881324486161 134.185724461798 0
481 748.238351386936 203.208106978514 0
482 645.321726176324 300.55639865689 0
483 603.466613342263 338.856623359131 0
484 524.746524116872 149.278722585139 0
485 475.100290554404 149.609949466607 0
486 760.546785783642 227.034744681353 0
487 574.353778281077 321.960867514644 0
488 255.201592499627 86.329691675482 0
489 475.926250493784 299.619657504081 0
490 357.806944270214 141.916533947924 0
491 425.625139720479 99.435857369604 0
492 261.816505449015 209.662105106964 0
493 380.377626182522 107.607580711261 0
494 376.952776541666 270.693189946776 0
495 522.948749666177 289.930313517689 0
496 788.387922066079 170.862117482527 0
497 697.9770968189 148.630846350136 0
498 305.051954615051 145.322020353212 0
499 722.788429405948 105.806384938171 0
500 716.219356885743 195.247391332044 0
501 425.337238166082 276.800853685385 0
502 761.956616047393 126.289614759906 0
503 878.757636417015 108.551535993576 0
504 687.232019400047 264.466295127039 0
505 365.257995911723 101.146519044239 0
506 290.919042867171 200.516999046733 0
507 815.176997242478 167.447807460944 0
508 405.3749555293 253.708816261091 0
509 449.85422220481 149.357508690089 0
510 621.541314417047 149.575179280722 0
511 549.288189021799 148.689063511046 0
512 571.198787848642 297.045626645968 0
513 448.779657705872 275.740192647601 0
514 736.480514722669 179.786967626923 0
515 281.644213074689 147.831677507179 0
516 265.246918656855 120.062282969133 0
517 621.55682329273 307.289320116589 0
518 574.60404023182 123.951963951742 0
519 345.167365882816 244.77917090542 0
520 744.119856451642 141.749428739157 0
521 769.028713187972 187.710441165955 0
522 725.691456072362 156.737008574624 0
523 276.392914315751 180.347360071973 0
524 663.576277692684 270.775338700156 0
525 598.159657883112 314.395722088596 0
526 400.02647736275 123.865590443608 0
527 376.165640528725 137.938003995895 0
528 525.485941117867 174.857763360409 0
529 474.948175113276 174.363458389182 0
530 474.099736857602 274.816146565067 0
531 670.77906118909 207.320146562593 0
532 654.373422803833 169.779472253772 0
533 424.438233006025 124.309569605546 0
534 230.80689063631 147.034252534033 0
535 241.220394298388 199.189843483476 0
536 732.357418962844 120.595446914804 0
537 340.894316444588 179.396371571728 0
538 774.4487967935 148.499288502743 0
539 522.113436272346 265.027435723011 0
540 546.049362506391 280.233364744898 0
541 706.768232838336 171.979773999995 0
542 377.439129589991 240.911826653522 0
543 297.17336992161 170.649789886357 0
544 599.480815575702 126.24725288195 0
545 422.983020276103 260.31049145291 0
546 378.824903387393 122.691015808791 0
547 215.836685126497 102.427788453187 0
548 791.209668318821 131.343310755577 0
549 300.260931355537 185.96566439762 0
550 569.760144650789 271.314273974233 0
551 624.504995470777 179.542878248763 0
552 449.557959025589 173.678102340431 0
553 549.885875243554 173.0348938323 0
554 367.076474175071 163.717107367056 0
555 440.683126111338 248.447957981035 0
556 395.105885861213 227.588528122649 0
557 597.593216784435 150.344288594551 0
558 474.471143208245 198.891650728772 0
559 472.807948793961 249.250029458833 0
560 332.704463995885 208.012604666805 0
561 658.929221734412 248.262218553479 0
562 249.146849377753 174.312258989701 0
563 365.575132251223 211.557850601103 0
564 526.942702559282 205.525331213198 0
565 640.3085615469 277.023779012382 0
566 573.573701373274 149.001090328665 0
567 423.651908862862 149.599673865073 0
568 393.143322939599 150.248481490146 0
569 617.450640362857 283.277744507368 0
570 677.613407748914 226.817551411484 0
571 256.814835807299 147.384034290569 0
572 594.717031931733 289.82162841965 0
573 522.610581673973 240.728409683467 0
574 544.054792333468 254.992922191157 0
575 314.939323299111 231.14987964587 0
576 238.660635441135 118.287538909503 0
577 756.010169066221 164.41673095313 0
578 413.51426831864 234.974573627542 0
579 663.708198590952 192.342989286492 0
580 567.629846261106 244.725505767097 0
581 595.344921846127 174.801931338503 0
582 636.547926334635 254.565864555402 0
583 400.703924778678 176.727500876815 0
584 553.767380056485 196.217166403516 0
585 448.649962766371 197.180232340683 0
586 572.386230246113 172.577704427462 0
587 379.060969383627 184.758101232103 0
588 446.081655477686 220.746550408709 0
589 424.353023119599 173.41625393152 0
590 539.246392345767 230.81282960711 0
591 362.504406263981 192.446720337646 0
592 641.477464409594 202.35687833854 0
593 420.21462029595 215.283344355196 0
594 473.148913669473 223.655577087398 0
595 393.744062302262 207.046896806865 0
596 656.965838575629 223.322827564123 0
597 615.250302932988 260.322130159808 0
598 593.502133265159 264.905995005913 0
599 515.419964278467 224.752448878767 0
600 570.629245580215 189.952992390795 0
601 630.715687930167 234.586350934698 0
602 561.378505873746 219.403276692485 0
603 423.968856898195 194.754789382405 0
604 611.094927850249 200.612258497305 0
605 615.003197009856 243.583783768491 0
606 597.065211488814 235.115603696687 0
607 406.525116646182 192.386103323509 0
608 587.412634565999 203.097340843101 0
609 620.378488157341 216.034042655037 0
$EndNodes
$Elements
571
1 2 2 1 1 172 8 45 
2 2 2 1 1 2 99 20 
3 2 2 1 1 52 10 177 
4 2 2 1 1 13 74 146 
5 2 2 1 1 52 239 51 
6 2 2 1 1 8 215 44 
7 2 2 1 1 21 219 2 
8 2 2 1 1 146 73 13 
9 2 2 1 1 84 229 83 
10 2 2 1 1 14 83 129 
11 2 2 1 1 6 37 147 
12 2 2 1 1 38 216 37 
13 2 2 1 1 58 225 57 
14 2 2 1 1 7 273 40 
15 2 2 1 1 58 11 171 
16 2 2 1 1 25 242 3 
17 2 2 1 1 3 105 24 
18 2 2 1 1 162 7 41 
19 2 2 1 1 121 120 537 
20 2 2 1 1 537 122 121 
21 2 2 1 1 414 158 157 
22 2 2 1 1 157 156 414 
23 2 2 1 1 212 92 93 
24 2 2 1 1 93 94 212 
25 3 2 1 1 14 129 203 82
26 3 2 1 1 153 532 479 152
27 3 2 1 1 149 343 256 148
28 3 2 1 1 117 116 284 344
29 3 2 1 1 284 405 422 344
30 3 2 1 1 315 312 250 259
31 3 2 1 1 259 113 112 315
32 3 2 1 1 283 345 169 170
33 3 2 1 1 367 372 317 310
34 3 2 1 1 139 140 530 559
35 3 2 1 1 284 189 261 354
36 3 2 1 1 259 250 181 200
37 3 2 1 1 537 591 563 560
38 3 2 1 1 583 607 595 587
39 3 2 1 1 459 370 391 432
40 3 2 1 1 459 376 327 370
41 3 2 1 1 377 503 435 379
42 3 2 1 1 146 220 297 145
43 3 2 1 1 476 426 392 458
44 3 2 1 1 564 584 602 590
45 3 2 1 1 486 481 521 418
46 3 2 1 1 138 139 559 594
47 3 2 1 1 577 520 502 538
48 3 2 1 1 318 298 202 263
49 3 2 1 1 252 316 378 438
50 3 2 1 1 416 448 534 470
51 3 2 1 1 372 367 421 433
52 3 2 1 1 152 479 449 151
53 3 2 1 1 514 522 520 577
54 3 2 1 1 140 141 489 530
55 3 2 1 1 347 370 311 257
56 3 2 1 1 522 514 500 541
57 3 2 1 1 373 307 260 328
58 3 2 1 1 479 510 469 449
59 3 2 1 1 159 326 395 158
60 3 2 1 1 530 513 555 559
61 3 2 1 1 160 264 326 159
62 3 2 1 1 515 571 516 473
63 3 2 1 1 148 256 199 147
64 3 2 1 1 116 115 189 284
65 3 2 1 1 156 155 500 420
66 3 2 1 1 445 435 503 431
67 3 2 1 1 94 201 295 212
68 3 2 1 1 127 128 229 288
69 3 2 1 1 200 114 113 259
70 3 2 1 1 184 283 170 171
71 3 2 1 1 581 608 600 586
72 3 2 1 1 541 500 155 154
73 3 2 1 1 272 102 103 232
74 3 2 1 1 532 551 510 479
75 3 2 1 1 141 142 453 489
76 3 2 1 1 423 488 437 368
77 3 2 1 1 537 554 587 591
78 3 2 1 1 434 499 536 480
79 3 2 1 1 467 544 518 477
80 3 2 1 1 504 524 561 444
81 3 2 1 1 520 522 480 536
82 3 2 1 1 431 503 438 378
83 3 2 1 1 575 427 125 124
84 3 2 1 1 337 279 291 309
85 3 2 1 1 581 586 566 557
86 3 2 1 1 253 194 224 280
87 3 2 1 1 576 534 448 478
88 3 2 1 1 291 193 390 309
89 3 2 1 1 369 397 379 435
90 3 2 1 1 109 478 448 110
91 3 2 1 1 416 111 110 448
92 3 2 1 1 560 563 542 519
93 3 2 1 1 151 449 415 150
94 3 2 1 1 120 119 429 490
95 3 2 1 1 12 65 214 161
96 3 2 1 1 256 343 467 384
97 3 2 1 1 398 473 516 423
98 3 2 1 1 606 608 604 609
99 3 2 1 1 185 292 276 316
100 3 2 1 1 265 275 227 226
101 3 2 1 1 503 377 252 438
102 3 2 1 1 262 352 283 184
103 3 2 1 1 432 436 396 459
104 3 2 1 1 161 214 264 160
105 3 2 1 1 551 581 557 510
106 3 2 1 1 120 490 554 537
107 3 2 1 1 127 126 410 331
108 3 2 1 1 516 571 534 576
109 3 2 1 1 129 128 293 203
110 3 2 1 1 492 535 562 523
111 3 2 1 1 605 597 598 606
112 3 2 1 1 595 556 542 563
113 3 2 1 1 142 143 406 453
114 3 2 1 1 115 4 29 189
115 3 2 1 1 510 557 544 469
116 3 2 1 1 147 199 36 6
117 3 2 1 1 312 315 464 363
118 3 2 1 1 374 419 487 440
119 3 2 1 1 88 15 114 200
120 3 2 1 1 59 184 171 11
121 3 2 1 1 249 264 214 213
122 3 2 1 1 504 395 451 524
123 3 2 1 1 583 568 567 589
124 3 2 1 1 20 240 230 19
125 3 2 1 1 95 96 232 241
126 3 2 1 1 245 293 331 330
127 3 2 1 1 177 10 53 202
128 3 2 1 1 482 451 381 364
129 3 2 1 1 156 420 441 414
130 3 2 1 1 202 53 54 263
131 3 2 1 1 284 354 461 405
132 3 2 1 1 199 353 247 187
133 3 2 1 1 319 254 369 400
134 3 2 1 1 45 46 301 238
135 3 2 1 1 101 333 271 230
136 3 2 1 1 410 392 330 331
137 3 2 1 1 489 474 513 530
138 3 2 1 1 509 552 589 567
139 3 2 1 1 253 280 340 339
140 3 2 1 1 363 421 367 312
141 3 2 1 1 446 418 345 386
142 3 2 1 1 251 390 193 273
143 3 2 1 1 282 245 330 350
144 3 2 1 1 345 283 352 386
145 3 2 1 1 293 245 223 203
146 3 2 1 1 439 364 321 320
147 3 2 1 1 569 597 582 565
148 3 2 1 1 175 302 239 176
149 3 2 1 1 275 265 376 335
150 3 2 1 1 211 263 54 55
151 3 2 1 1 354 323 375 461
152 3 2 1 1 199 256 384 353
153 3 2 1 1 408 450 167 166
154 3 2 1 1 423 516 576 488
155 3 2 1 1 213 214 65 66
156 3 2 1 1 525 517 439 483
157 3 2 1 1 320 266 179 380
158 3 2 1 1 310 317 205 268
159 3 2 1 1 287 222 228 294
160 3 2 1 1 506 523 543 549
161 3 2 1 1 21 22 196 218
162 3 2 1 1 312 367 310 250
163 3 2 1 1 197 204 43 44
164 3 2 1 1 597 569 572 598
165 3 2 1 1 146 74 75 220
166 3 2 1 1 266 320 321 190
167 3 2 1 1 316 252 211 185
168 3 2 1 1 568 554 490 527
169 3 2 1 1 374 440 305 389
170 3 2 1 1 258 206 222 287
171 3 2 1 1 364 381 249 321
172 3 2 1 1 282 182 223 245
173 3 2 1 1 525 572 569 517
174 3 2 1 1 358 389 195 286
175 3 2 1 1 568 583 587 554
176 3 2 1 1 320 380 483 439
177 3 2 1 1 195 389 305 267
178 3 2 1 1 263 211 252 318
179 3 2 1 1 305 440 483 380
180 3 2 1 1 461 375 428 491
181 3 2 1 1 342 414 441 314
182 3 2 1 1 591 587 595 563
183 3 2 1 1 195 71 72 286
184 3 2 1 1 267 305 380 179
185 3 2 1 1 250 310 268 181
186 3 2 1 1 174 301 231 277
187 3 2 1 1 326 381 451 395
188 3 2 1 1 319 289 236 299
189 3 2 1 1 84 198 288 229
190 3 2 1 1 266 190 67 68
191 3 2 1 1 213 66 67 190
192 3 2 1 1 332 350 404 382
193 3 2 1 1 294 342 314 287
194 3 2 1 1 222 63 64 228
195 3 2 1 1 451 482 565 524
196 3 2 1 1 213 190 321 249
197 3 2 1 1 433 421 535 492
198 3 2 1 1 569 565 482 517
199 3 2 1 1 361 382 426 462
200 3 2 1 1 420 481 486 441
201 3 2 1 1 322 383 325 248
202 3 2 1 1 477 425 383 447
203 3 2 1 1 198 205 317 288
204 3 2 1 1 289 319 400 349
205 3 2 1 1 179 266 68 69
206 3 2 1 1 417 462 494 468
207 3 2 1 1 432 373 348 436
208 3 2 1 1 195 267 70 71
209 3 2 1 1 104 201 94 16
210 3 2 1 1 339 368 329 253
211 3 2 1 1 418 446 385 486
212 3 2 1 1 486 385 314 441
213 3 2 1 1 184 59 60 262
214 3 2 1 1 285 346 379 397
215 3 2 1 1 205 198 84 85
216 3 2 1 1 267 179 69 70
217 3 2 1 1 204 299 42 43
218 3 2 1 1 194 27 28 224
219 3 2 1 1 277 233 50 302
220 3 2 1 1 579 592 551 532
221 3 2 1 1 248 209 208 322
222 3 2 1 1 222 206 62 63
223 3 2 1 1 180 61 62 206
224 3 2 1 1 268 205 85 86
225 3 2 1 1 194 253 329 207
226 3 2 1 1 354 261 188 323
227 3 2 1 1 73 217 286 72
228 3 2 1 1 560 519 427 575
229 3 2 1 1 501 468 508 545
230 3 2 1 1 280 224 115 116
231 3 2 1 1 608 606 580 602
232 3 2 1 1 181 268 86 87
233 3 2 1 1 383 425 387 325
234 3 2 1 1 467 477 447 384
235 3 2 1 1 323 269 324 375
236 3 2 1 1 193 291 38 39
237 3 2 1 1 30 31 188 261
238 3 2 1 1 189 29 30 261
239 3 2 1 1 352 262 180 313
240 3 2 1 1 364 439 517 482
241 3 2 1 1 313 258 385 446
242 3 2 1 1 287 314 385 258
243 3 2 1 1 487 512 572 525
244 3 2 1 1 208 34 35 187
245 3 2 1 1 199 187 35 36
246 3 2 1 1 388 428 375 324
247 3 2 1 1 206 258 313 180
248 3 2 1 1 200 181 87 88
249 3 2 1 1 512 550 598 572
250 3 2 1 1 187 247 322 208
251 3 2 1 1 373 432 391 307
252 3 2 1 1 180 262 60 61
253 3 2 1 1 335 376 459 396
254 3 2 1 1 324 132 133 388
255 3 2 1 1 550 580 606 598
256 3 2 1 1 134 443 388 133
257 3 2 1 1 166 167 430 548
258 3 2 1 1 264 249 381 326
259 3 2 1 1 471 425 477 518
260 3 2 1 1 209 248 131 130
261 3 2 1 1 248 325 132 131
262 3 2 1 1 443 475 428 388
263 3 2 1 1 134 133 387 442
264 3 2 1 1 359 407 436 348
265 3 2 1 1 442 387 425 471
266 3 2 1 1 135 485 443 134
267 3 2 1 1 501 545 555 513
268 3 2 1 1 135 134 442 484
269 3 2 1 1 521 496 345 418
270 3 2 1 1 133 132 325 387
271 3 2 1 1 344 505 118 117
272 3 2 1 1 136 135 484 528
273 3 2 1 1 33 209 130 5
274 3 2 1 1 208 209 33 34
275 3 2 1 1 511 471 518 566
276 3 2 1 1 484 442 471 511
277 3 2 1 1 428 475 533 491
278 3 2 1 1 247 447 383 322
279 3 2 1 1 137 136 528 564
280 3 2 1 1 552 529 558 585
281 3 2 1 1 23 303 196 22
282 3 2 1 1 57 292 185 56
283 3 2 1 1 136 529 485 135
284 3 2 1 1 376 265 270 327
285 3 2 1 1 32 5 130 210
286 3 2 1 1 32 210 188 31
287 3 2 1 1 210 130 131 269
288 3 2 1 1 324 269 131 132
289 3 2 1 1 323 188 210 269
290 3 2 1 1 528 484 511 553
291 3 2 1 1 529 552 509 485
292 3 2 1 1 427 410 126 125
293 3 2 1 1 485 509 475 443
294 3 2 1 1 270 265 226 186
295 3 2 1 1 138 594 558 137
296 3 2 1 1 138 137 564 599
297 3 2 1 1 137 558 529 136
298 3 2 1 1 509 567 533 475
299 3 2 1 1 296 307 391 244
300 3 2 1 1 194 207 26 27
301 3 2 1 1 546 493 422 526
302 3 2 1 1 211 55 56 185
303 3 2 1 1 422 493 505 344
304 3 2 1 1 92 212 311 270
305 3 2 1 1 91 92 270 186
306 3 2 1 1 315 112 111 416
307 3 2 1 1 507 430 167 168
308 3 2 1 1 345 507 168 169
309 3 2 1 1 339 398 423 368
310 3 2 1 1 483 440 487 525
311 3 2 1 1 9 49 191 48
312 3 2 1 1 98 1 17 192
313 3 2 1 1 271 192 17 18
314 3 2 1 1 362 107 106 456
315 3 2 1 1 270 311 370 327
316 3 2 1 1 421 363 464 535
317 3 2 1 1 193 39 40 273
318 3 2 1 1 98 192 272 97
319 3 2 1 1 596 531 155 570
320 3 2 1 1 89 90 226 227
321 3 2 1 1 301 46 47 231
322 3 2 1 1 585 603 589 552
323 3 2 1 1 389 358 336 374
324 3 2 1 1 562 535 464 470
325 3 2 1 1 91 186 226 90
326 3 2 1 1 57 225 276 292
327 3 2 1 1 609 604 551 592
328 3 2 1 1 491 533 526 422
329 3 2 1 1 384 447 247 353
330 3 2 1 1 299 236 41 42
331 3 2 1 1 370 347 244 391
332 3 2 1 1 252 377 412 318
333 3 2 1 1 470 534 571 562
334 3 2 1 1 50 233 191 49
335 3 2 1 1 48 191 231 47
336 3 2 1 1 271 18 19 230
337 3 2 1 1 4 115 224 28
338 3 2 1 1 15 89 227 114
339 3 2 1 1 303 23 24 235
340 3 2 1 1 288 317 372 356
341 3 2 1 1 609 592 596 601
342 3 2 1 1 96 97 272 232
343 3 2 1 1 336 393 419 374
344 3 2 1 1 430 507 345 496
345 3 2 1 1 148 147 37 216
346 3 2 1 1 490 429 546 527
347 3 2 1 1 255 303 235 290
348 3 2 1 1 145 217 73 146
349 3 2 1 1 275 335 402 338
350 3 2 1 1 419 472 512 487
351 3 2 1 1 449 469 544 467
352 3 2 1 1 505 429 119 118
353 3 2 1 1 26 207 242 25
354 3 2 1 1 343 149 150 415
355 3 2 1 1 588 555 578 593
356 3 2 1 1 128 129 83 229
357 3 2 1 1 386 352 313 446
358 3 2 1 1 532 153 154 579
359 3 2 1 1 527 546 526 568
360 3 2 1 1 277 231 191 233
361 3 2 1 1 555 545 508 578
362 3 2 1 1 420 500 514 481
363 3 2 1 1 396 436 407 455
364 3 2 1 1 472 540 550 512
365 3 2 1 1 207 329 274 242
366 3 2 1 1 204 197 341 254
367 3 2 1 1 351 406 143 144
368 3 2 1 1 58 171 170 225
369 3 2 1 1 422 405 461 491
370 3 2 1 1 450 431 378 394
371 3 2 1 1 275 113 114 227
372 3 2 1 1 542 508 468 494
373 3 2 1 1 551 604 608 581
374 3 2 1 1 255 328 260 218
375 3 2 1 1 540 574 580 550
376 3 2 1 1 476 494 462 426
377 3 2 1 1 444 561 596 570
378 3 2 1 1 299 204 254 319
379 3 2 1 1 481 514 577 521
380 3 2 1 1 536 499 371 465
381 3 2 1 1 392 410 427 458
382 3 2 1 1 393 452 472 419
383 3 2 1 1 390 251 360 371
384 3 2 1 1 371 360 413 465
385 3 2 1 1 360 251 162 163
386 3 2 1 1 502 465 413 466
387 3 2 1 1 413 360 163 164
388 3 2 1 1 316 334 394 378
389 3 2 1 1 466 413 164 165
390 3 2 1 1 574 590 602 580
391 3 2 1 1 456 106 105 274
392 3 2 1 1 548 466 165 166
393 3 2 1 1 547 108 107 362
394 3 2 1 1 478 109 108 547
395 3 2 1 1 272 192 271 333
396 3 2 1 1 225 170 169 276
397 3 2 1 1 359 108 109 407
398 3 2 1 1 478 547 362 576
399 3 2 1 1 496 521 577 538
400 3 2 1 1 246 297 220 183
401 3 2 1 1 149 148 216 279
402 3 2 1 1 452 495 540 472
403 3 2 1 1 518 544 557 566
404 3 2 1 1 537 560 123 122
405 3 2 1 1 144 278 217 145
406 3 2 1 1 155 531 579 154
407 3 2 1 1 294 228 161 160
408 3 2 1 1 124 123 560 575
409 3 2 1 1 203 223 81 82
410 3 2 1 1 468 501 460 417
411 3 2 1 1 406 403 424 453
412 3 2 1 1 453 424 474 489
413 3 2 1 1 460 501 513 474
414 3 2 1 1 382 361 304 332
415 3 2 1 1 335 396 455 402
416 3 2 1 1 38 291 279 216
417 3 2 1 1 462 417 409 361
418 3 2 1 1 155 156 444 570
419 3 2 1 1 41 236 163 162
420 3 2 1 1 316 276 169 334
421 3 2 1 1 361 409 355 304
422 3 2 1 1 350 332 281 282
423 3 2 1 1 24 105 106 235
424 3 2 1 1 417 460 365 409
425 3 2 1 1 306 351 297 246
426 3 2 1 1 365 460 474 424
427 3 2 1 1 156 157 504 444
428 3 2 1 1 495 539 574 540
429 3 2 1 1 406 351 306 403
430 3 2 1 1 223 182 80 81
431 3 2 1 1 281 234 182 282
432 3 2 1 1 304 355 300 243
433 3 2 1 1 409 365 306 355
434 3 2 1 1 300 246 183 221
435 3 2 1 1 285 215 8 172
436 3 2 1 1 355 306 246 300
437 3 2 1 1 356 372 433 411
438 3 2 1 1 306 365 424 403
439 3 2 1 1 332 304 243 281
440 3 2 1 1 427 519 476 458
441 3 2 1 1 79 234 281 178
442 3 2 1 1 220 75 76 183
443 3 2 1 1 243 300 221 237
444 3 2 1 1 182 234 79 80
445 3 2 1 1 183 76 77 221
446 3 2 1 1 281 243 237 178
447 3 2 1 1 221 77 78 237
448 3 2 1 1 456 488 576 362
449 3 2 1 1 399 337 309 366
450 3 2 1 1 237 78 79 178
451 3 2 1 1 565 582 561 524
452 3 2 1 1 150 149 279 337
453 3 2 1 1 564 590 573 599
454 3 2 1 1 296 99 2 219
455 3 2 1 1 539 573 590 574
456 3 2 1 1 12 161 228 64
457 3 2 1 1 218 196 303 255
458 3 2 1 1 454 399 366 434
459 3 2 1 1 169 168 394 334
460 3 2 1 1 568 526 533 567
461 3 2 1 1 497 454 434 480
462 3 2 1 1 144 336 358 278
463 3 2 1 1 523 562 571 515
464 3 2 1 1 407 109 110 455
465 3 2 1 1 588 593 603 585
466 3 2 1 1 144 143 393 336
467 3 2 1 1 236 289 164 163
468 3 2 1 1 217 278 358 286
469 3 2 1 1 168 167 450 394
470 3 2 1 1 318 412 357 298
471 3 2 1 1 290 359 348 255
472 3 2 1 1 151 150 337 399
473 3 2 1 1 235 106 107 290
474 3 2 1 1 398 339 340 401
475 3 2 1 1 541 497 480 522
476 3 2 1 1 298 357 175 176
477 3 2 1 1 143 142 452 393
478 3 2 1 1 328 255 348 373
479 3 2 1 1 523 515 498 543
480 3 2 1 1 584 600 608 602
481 3 2 1 1 44 215 341 197
482 3 2 1 1 113 275 338 112
483 3 2 1 1 21 218 260 219
484 3 2 1 1 523 506 463 492
485 3 2 1 1 457 498 515 473
486 3 2 1 1 596 561 582 601
487 3 2 1 1 257 311 212 295
488 3 2 1 1 152 151 399 454
489 3 2 1 1 411 433 492 463
490 3 2 1 1 142 141 495 452
491 3 2 1 1 116 117 340 280
492 3 2 1 1 505 493 546 429
493 3 2 1 1 595 593 578 556
494 3 2 1 1 50 51 239 302
495 3 2 1 1 112 338 402 111
496 3 2 1 1 141 140 539 495
497 3 2 1 1 140 139 573 539
498 3 2 1 1 519 542 494 476
499 3 2 1 1 153 152 454 497
500 3 2 1 1 272 333 101 102
501 3 2 1 1 111 402 455 110
502 3 2 1 1 307 296 219 260
503 3 2 1 1 154 153 497 541
504 3 2 1 1 139 138 599 573
505 3 2 1 1 548 430 496 538
506 3 2 1 1 349 400 445 408
507 3 2 1 1 585 558 594 588
508 3 2 1 1 578 508 542 556
509 3 2 1 1 290 107 108 359
510 3 2 1 1 289 349 165 164
511 3 2 1 1 173 174 308 346
512 3 2 1 1 397 341 215 285
513 3 2 1 1 357 308 174 175
514 3 2 1 1 117 118 401 340
515 3 2 1 1 595 607 603 593
516 3 2 1 1 126 127 288 356
517 3 2 1 1 414 342 159 158
518 3 2 1 1 176 177 202 298
519 3 2 1 1 295 103 102 257
520 3 2 1 1 101 347 257 102
521 3 2 1 1 347 101 100 244
522 3 2 1 1 118 119 457 401
523 3 2 1 1 377 379 346 308
524 3 2 1 1 119 120 498 457
525 3 2 1 1 160 159 342 294
526 3 2 1 1 254 341 397 369
527 3 2 1 1 120 121 543 498
528 3 2 1 1 473 398 401 457
529 3 2 1 1 538 502 466 548
530 3 2 1 1 435 445 400 369
531 3 2 1 1 597 605 601 582
532 3 2 1 1 536 465 502 520
533 3 2 1 1 16 95 241 104
534 3 2 1 1 121 122 549 543
535 3 2 1 1 244 100 99 296
536 3 2 1 1 346 285 172 173
537 3 2 1 1 470 464 315 416
538 3 2 1 1 349 408 166 165
539 3 2 1 1 566 586 553 511
540 3 2 1 1 600 584 553 586
541 3 2 1 1 431 450 408 445
542 3 2 1 1 555 588 594 559
543 3 2 1 1 331 293 128 127
544 3 2 1 1 449 467 343 415
545 3 2 1 1 392 426 382 404
546 3 2 1 1 392 404 350 330
547 3 2 1 1 564 528 553 584
548 3 2 1 1 368 437 274 329
549 3 2 1 1 488 456 274 437
550 3 2 1 1 125 126 356 411
551 3 2 1 1 596 592 579 531
552 3 2 1 1 124 125 411 463
553 3 2 1 1 123 124 463 506
554 3 2 1 1 122 123 506 549
555 3 2 1 1 583 589 603 607
556 3 2 1 1 20 99 100 240
557 3 2 1 1 302 175 174 277
558 3 2 1 1 45 238 173 172
559 3 2 1 1 52 177 176 239
560 3 2 1 1 377 308 357 412
561 3 2 1 1 606 609 601 605
562 3 2 1 1 104 241 232 103
563 3 2 1 1 101 230 240 100
564 3 2 1 1 174 173 238 301
565 3 2 1 1 201 104 103 295
566 3 2 1 1 3 242 274 105
567 3 2 1 1 145 297 351 144
568 3 2 1 1 158 395 504 157
569 3 2 1 1 7 162 251 273
570 3 2 1 1 309 390 371 366
571 3 2 1 1 434 366 371 499
$EndElements
