$MeshFormat
2.2 0 8
$EndMeshFormat
$Nodes
425
2 0 0 0
4 800 0 0
5 0 1200 0
7 800 1200 0
9 0 400 0
10 0 350 0
11 0 300 0
12 0 250 0
13 0 200 0
14 0 150 0
15 0 100 0
16 0 50 0
32 800 50 0
33 800 100 0
34 800 150 0
35 800 200 0
36 800 250 0
37 800 300 0
38 800 350 0
39 800 400 0
40 50 0 0
41 100 0 0
42 150 0 0
43 200 0 0
44 250 0 0
45 300 0 0
46 350 0 0
47 400 0 0
48 450 0 0
49 500 0 0
50 550 0 0
51 600 0 0
52 650 0 0
53 700 0 0
54 750 0 0
55 0 1150 0
56 0 1100 0
57 0 1050 0
58 0 1000 0
59 0 950 0
60 0 900 0
61 0 850 0
62 0 800 0
63 0 750 0
64 0 700 0
65 0 650 0
66 0 600 0
67 750 1200 0
68 700 1200 0
69 650 1200 0
70 600 1200 0
71 550 1200 0
72 500 1200 0
73 450 1200 0
74 400 1200 0
75 350 1200 0
76 300 1200 0
77 250 1200 0
78 200 1200 0
79 150 1200 0
80 100 1200 0
81 50 1200 0
82 800 600 0
83 800 650 0
84 800 700 0
85 800 750 0
86 800 800 0
87 800 850 0
88 800 900 0
89 800 950 0
90 800 1000 0
91 800 1050 0
92 800 1100 0
93 800 1150 0
109 200 400 0
110 350 400 0
111 500 400 0
112 250 50 0
113 450 50 0
114 750 200 0
115 50 200 0
116 600 400 0
117 750 300 0
118 50 350 0
119 150 50 0
120 650 50 0
121 50 100 0
122 700 400 0
123 750 50 0
124 750 350 0
125 50 400 0
126 50 300 0
127 100 400 0
128 250 400 0
129 400 400 0
130 750 400 0
131 750 100 0
132 350 50 0
133 550 50 0
134 50 50 0
135 200 350 0
136 350 350 0
137 50 150 0
138 700 300 0
139 100 100 0
140 750 250 0
141 50 250 0
142 150 400 0
143 300 400 0
144 450 400 0
145 550 400 0
146 650 400 0
147 750 150 0
148 100 50 0
149 200 50 0
150 300 50 0
151 400 50 0
152 500 50 0
153 600 50 0
154 700 50 0
155 100 350 0
156 700 350 0
157 500 350 0
158 250 100 0
159 450 100 0
160 600 100 0
161 700 150 0
162 700 250 0
163 100 250 0
164 250 350 0
165 650 300 0
166 100 150 0
167 400 350 0
168 550 350 0
169 600 350 0
170 200 100 0
171 150 100 0
172 700 100 0
173 100 300 0
174 350 100 0
175 150 350 0
176 650 350 0
177 550 100 0
178 300 350 0
179 200 300 0
180 350 300 0
181 500 300 0
182 650 250 0
183 250 150 0
184 150 150 0
185 600 150 0
186 700 200 0
187 450 350 0
188 400 100 0
189 600 300 0
190 100 200 0
191 650 100 0
192 300 100 0
193 150 300 0
194 500 100 0
195 250 300 0
196 450 150 0
197 600 250 0
198 400 300 0
199 550 150 0
200 200 250 0
201 200 150 0
202 400 150 0
203 450 300 0
204 650 200 0
205 650 150 0
206 150 250 0
207 550 300 0
208 300 150 0
209 150 200 0
210 300 300 0
211 350 250 0
212 450 250 0
213 500 250 0
214 250 250 0
215 600 200 0
216 450 200 0
217 550 250 0
218 200 200 0
219 350 150 0
220 300 200 0
221 500 150 0
222 400 250 0
223 500 200 0
224 550 200 0
225 400 200 0
226 250 200 0
227 350 200 0
228 300 250 0
229 400 1150 0
230 500 600 0
231 350 600 0
232 50 950 0
233 750 900 0
234 50 800 0
235 550 1150 0
236 200 1150 0
237 750 1000 0
238 200 600 0
239 750 700 0
240 50 700 0
241 50 1100 0
242 650 1150 0
243 700 600 0
244 50 600 0
245 700 1150 0
246 50 900 0
247 50 1150 0
248 50 1050 0
249 750 1150 0
250 450 1150 0
251 300 1150 0
252 100 1150 0
253 750 600 0
254 750 750 0
255 750 1050 0
256 650 600 0
257 600 600 0
258 450 600 0
259 300 600 0
260 150 600 0
261 750 800 0
262 400 1100 0
263 500 650 0
264 350 650 0
265 100 950 0
266 700 750 0
267 200 650 0
268 700 1000 0
269 650 650 0
270 650 1100 0
271 50 750 0
272 750 950 0
273 100 600 0
274 50 1000 0
275 50 850 0
276 600 1150 0
277 500 1150 0
278 350 1150 0
279 250 1150 0
280 150 1150 0
281 750 650 0
282 550 600 0
283 400 600 0
284 250 600 0
285 100 1100 0
286 50 650 0
287 750 850 0
288 750 1100 0
289 200 1100 0
290 150 650 0
291 100 850 0
292 100 1050 0
293 600 650 0
294 300 650 0
295 400 650 0
296 700 850 0
297 700 950 0
298 100 800 0
299 100 700 0
300 450 1100 0
301 500 1100 0
302 600 1100 0
303 700 700 0
304 700 650 0
305 700 1100 0
306 100 900 0
307 250 1100 0
308 100 1000 0
309 250 650 0
310 150 1100 0
311 350 1100 0
312 550 650 0
313 700 800 0
314 700 1050 0
315 100 650 0
316 350 700 0
317 400 1050 0
318 150 950 0
319 150 850 0
320 550 700 0
321 250 700 0
322 150 700 0
323 650 700 0
324 200 1050 0
325 650 800 0
326 650 950 0
327 700 900 0
328 450 1050 0
329 550 1100 0
330 600 1050 0
331 650 1000 0
332 100 750 0
333 150 1050 0
334 300 1100 0
335 650 1050 0
336 400 1000 0
337 400 700 0
338 650 850 0
339 500 700 0
340 550 1050 0
341 150 750 0
342 650 900 0
343 150 900 0
344 200 700 0
345 600 700 0
346 300 700 0
347 500 1050 0
348 250 1050 0
349 350 1050 0
350 150 1000 0
351 650 750 0
352 600 950 0
353 600 1000 0
354 150 800 0
355 350 750 0
356 200 900 0
357 550 750 0
358 350 1000 0
359 600 900 0
360 450 700 0
361 200 1000 0
362 200 850 0
363 300 750 0
364 600 800 0
365 450 1000 0
366 500 1000 0
367 550 1000 0
368 300 1050 0
369 200 750 0
370 600 750 0
371 350 950 0
372 350 800 0
373 550 800 0
374 450 950 0
375 250 900 0
376 250 1000 0
377 600 850 0
378 200 950 0
379 450 750 0
380 500 950 0
381 450 650 0
382 400 750 0
383 500 750 0
384 550 900 0
385 300 1000 0
386 250 750 0
387 550 950 0
388 200 800 0
389 250 850 0
390 300 950 0
391 550 850 0
392 450 900 0
393 450 800 0
394 400 800 0
395 400 950 0
396 300 800 0
397 500 900 0
398 500 800 0
399 250 950 0
400 250 800 0
401 350 850 0
402 300 900 0
403 350 900 0
404 400 900 0
405 300 850 0
406 500 850 0
407 450 850 0
408 400 850 0
428 800 500 0
444 0 500 0
445 100 500 0
446 50 500 0
447 200 500 0
448 300 500 0
449 400 500 0
450 500 500 0
451 600 500 0
452 700 500 0
453 750 500 0
454 150 500 0
455 250 500 0
456 350 500 0
457 450 500 0
458 550 500 0
459 650 500 0
460 0 450 0
461 800 450 0
462 0 550 0
463 800 550 0
464 50 450 0
465 100 450 0
466 150 450 0
467 200 450 0
468 250 450 0
469 300 450 0
470 350 450 0
471 400 450 0
472 450 450 0
473 500 450 0
474 550 450 0
475 600 450 0
476 650 450 0
477 700 450 0
478 750 450 0
479 750 550 0
480 700 550 0
481 650 550 0
482 600 550 0
483 550 550 0
484 500 550 0
485 450 550 0
486 400 550 0
487 350 550 0
488 300 550 0
489 250 550 0
490 200 550 0
491 150 550 0
492 100 550 0
493 50 550 0
$EndNodes
$Elements
384
1 3 2 1 1 134 148 139 121
2 3 2 1 1 126 173 155 118
3 3 2 1 1 163 173 126 141
4 3 2 1 1 135 164 128 109
5 3 2 1 1 136 167 129 110
6 3 2 1 1 199 224 223 221
7 3 2 1 1 131 172 154 123
8 3 2 1 1 161 172 131 147
9 3 2 1 1 215 224 199 185
10 3 2 1 1 132 174 192 150
11 3 2 1 1 160 177 133 153
12 3 2 1 1 209 218 200 206
13 3 2 1 1 198 222 212 203
14 3 2 1 1 142 175 135 109
15 3 2 1 1 143 178 136 110
16 3 2 1 1 207 217 197 189
17 3 2 1 1 197 215 204 182
18 3 2 1 1 155 175 142 127
19 3 2 1 1 196 216 225 202
20 3 2 1 1 164 178 143 128
21 3 2 1 1 157 111 144 187
22 3 2 1 1 213 217 207 181
23 3 2 1 1 120 153 51 52
24 3 2 1 1 51 153 133 50
25 3 2 1 1 53 154 120 52
26 3 2 1 1 123 154 53 54
27 3 2 1 1 211 228 220 227
28 3 2 1 1 214 228 210 195
29 3 2 1 1 210 228 211 180
30 3 2 1 1 227 220 208 219
31 3 2 1 1 208 220 226 183
32 3 2 1 1 114 186 161 147
33 3 2 1 1 167 187 144 129
34 3 2 1 1 115 190 163 141
35 3 2 1 1 168 169 116 145
36 3 2 1 1 118 155 127 125
37 3 2 1 1 119 171 139 148
38 3 2 1 1 202 225 227 219
39 3 2 1 1 170 171 119 149
40 3 2 1 1 120 191 160 153
41 3 2 1 1 172 191 120 154
42 3 2 1 1 122 156 124 130
43 3 2 1 1 191 205 185 160
44 3 2 1 1 196 202 188 159
45 3 2 1 1 180 198 167 136
46 3 2 1 1 181 207 168 157
47 3 2 1 1 168 207 189 169
48 3 2 1 1 198 203 187 167
49 3 2 1 1 183 201 170 158
50 3 2 1 1 173 193 175 155
51 3 2 1 1 204 215 185 205
52 3 2 1 1 202 219 174 188
53 3 2 1 1 175 193 179 135
54 3 2 1 1 169 189 165 176
55 3 2 1 1 185 199 177 160
56 3 2 1 1 178 210 180 136
57 3 2 1 1 195 210 178 164
58 3 2 1 1 180 211 222 198
59 3 2 1 1 187 203 181 157
60 3 2 1 1 212 213 181 203
61 3 2 1 1 189 197 182 165
62 3 2 1 1 183 158 192 208
63 3 2 1 1 183 226 218 201
64 3 2 1 1 200 214 195 179
65 3 2 1 1 157 168 145 111
66 3 2 1 1 146 176 156 122
67 3 2 1 1 169 176 146 116
68 3 2 1 1 158 170 149 112
69 3 2 1 1 150 192 158 112
70 3 2 1 1 159 188 151 113
71 3 2 1 1 174 132 151 188
72 3 2 1 1 152 194 159 113
73 3 2 1 1 177 194 152 133
74 3 2 1 1 118 125 9 10
75 3 2 1 1 199 221 194 177
76 3 2 1 1 193 206 200 179
77 3 2 1 1 219 208 192 174
78 3 2 1 1 221 196 159 194
79 3 2 1 1 161 205 191 172
80 3 2 1 1 204 205 161 186
81 3 2 1 1 190 209 206 163
82 3 2 1 1 163 206 193 173
83 3 2 1 1 179 195 164 135
84 3 2 1 1 119 148 41 42
86 3 2 1 1 45 150 112 44
87 3 2 1 1 216 223 213 212
88 3 2 1 1 40 134 16 2
91 3 2 1 1 43 149 119 42
92 3 2 1 1 112 149 43 44
94 3 2 1 1 218 226 214 200
95 3 2 1 1 33 131 123 32
96 3 2 1 1 134 40 41 148
98 3 2 1 1 114 147 34 35
102 3 2 1 1 34 147 131 33
103 3 2 1 1 220 228 214 226
104 3 2 1 1 217 224 215 197
106 3 2 1 1 36 140 114 35
108 3 2 1 1 117 140 36 37
110 3 2 1 1 32 123 54 4
111 3 2 1 1 221 223 216 196
112 3 2 1 1 47 151 132 46
113 3 2 1 1 115 141 12 13
116 3 2 1 1 223 224 217 213
117 3 2 1 1 222 225 216 212
118 3 2 1 1 11 126 118 10
119 3 2 1 1 48 113 151 47
120 3 2 1 1 12 141 126 11
121 3 2 1 1 227 225 222 211
122 3 2 1 1 49 152 113 48
126 3 2 1 1 133 152 49 50
127 3 2 1 1 132 150 45 46
128 3 2 1 1 170 201 184 171
129 3 2 1 1 201 218 209 184
130 3 2 1 1 39 130 124 38
131 3 2 1 1 162 186 114 140
132 3 2 1 1 204 186 162 182
133 3 2 1 1 124 156 138 117
134 3 2 1 1 165 182 162 138
135 3 2 1 1 121 139 166 137
136 3 2 1 1 117 37 38 124
137 3 2 1 1 184 209 190 166
138 3 2 1 1 139 171 184 166
139 3 2 1 1 115 13 14 137
140 3 2 1 1 138 162 140 117
141 3 2 1 1 156 176 165 138
142 3 2 1 1 16 134 121 15
143 3 2 1 1 166 190 115 137
144 3 2 1 1 137 14 15 121
145 3 2 1 1 355 316 337 382
146 3 2 1 1 241 285 252 247
147 3 2 1 1 366 367 340 347
148 3 2 1 1 340 367 353 330
149 3 2 1 1 339 360 381 263
150 3 2 1 1 379 360 339 383
151 3 2 1 1 357 383 339 320
152 3 2 1 1 243 304 269 256
153 3 2 1 1 281 304 243 253
154 3 2 1 1 379 382 337 360
155 3 2 1 1 270 305 245 242
156 3 2 1 1 245 305 288 249
157 3 2 1 1 345 370 357 320
158 3 2 1 1 246 306 265 232
159 3 2 1 1 291 306 246 275
160 3 2 1 1 336 317 349 358
161 3 2 1 1 248 292 285 241
162 3 2 1 1 348 368 334 307
163 3 2 1 1 250 300 301 277
164 3 2 1 1 307 334 251 279
165 3 2 1 1 251 334 311 278
166 3 2 1 1 329 340 330 302
167 3 2 1 1 328 365 366 347
168 3 2 1 1 336 365 328 317
169 3 2 1 1 362 389 375 356
171 3 2 1 1 385 390 371 358
174 3 2 1 1 366 380 387 367
176 3 2 1 1 366 365 374 380
178 3 2 1 1 395 374 365 336
179 3 2 1 1 229 262 300 250
180 3 2 1 1 372 396 363 355
181 3 2 1 1 327 342 338 296
182 3 2 1 1 230 282 312 263
183 3 2 1 1 230 263 381 258
184 3 2 1 1 358 371 395 336
185 3 2 1 1 356 375 399 378
186 3 2 1 1 301 329 235 277
187 3 2 1 1 235 329 302 276
188 3 2 1 1 349 368 385 358
189 3 2 1 1 348 376 385 368
190 3 2 1 1 361 376 348 324
191 3 2 1 1 266 303 239 254
192 3 2 1 1 355 363 346 316
193 3 2 1 1 285 310 280 252
194 3 2 1 1 303 323 269 304
195 3 2 1 1 335 314 305 270
196 3 2 1 1 276 302 270 242
197 3 2 1 1 330 335 270 302
198 3 2 1 1 301 347 340 329
199 3 2 1 1 300 328 347 301
200 3 2 1 1 273 315 286 244
201 3 2 1 1 300 262 317 328
202 3 2 1 1 274 308 292 248
203 3 2 1 1 342 327 297 326
204 3 2 1 1 289 307 279 236
205 3 2 1 1 335 331 268 314
206 3 2 1 1 280 310 289 236
207 3 2 1 1 303 304 281 239
208 3 2 1 1 282 257 293 312
209 3 2 1 1 295 381 360 337
210 3 2 1 1 295 337 316 264
211 3 2 1 1 381 295 283 258
212 3 2 1 1 284 259 294 309
213 3 2 1 1 294 346 321 309
214 3 2 1 1 323 345 293 269
215 3 2 1 1 288 305 314 255
216 3 2 1 1 292 333 310 285
217 3 2 1 1 265 308 274 232
218 3 2 1 1 269 293 257 256
219 3 2 1 1 350 361 324 333
220 3 2 1 1 264 294 259 231
221 3 2 1 1 267 290 260 238
222 3 2 1 1 261 313 266 254
223 3 2 1 1 321 386 369 344
224 3 2 1 1 363 386 321 346
225 3 2 1 1 278 311 262 229
226 3 2 1 1 319 362 356 343
227 3 2 1 1 264 231 283 295
228 3 2 1 1 264 316 346 294
230 3 2 1 1 312 293 345 320
231 3 2 1 1 312 320 339 263
232 3 2 1 1 368 349 311 334
233 3 2 1 1 311 349 317 262
234 3 2 1 1 310 333 324 289
235 3 2 1 1 284 309 267 238
236 3 2 1 1 308 350 333 292
237 3 2 1 1 321 344 267 309
238 3 2 1 1 267 344 322 290
239 3 2 1 1 324 348 307 289
240 3 2 1 1 268 331 326 297
241 3 2 1 1 235 276 70 71
242 3 2 1 1 378 399 376 361
243 3 2 1 1 288 255 91 92
244 3 2 1 1 92 93 249 288
245 3 2 1 1 250 277 72 73
246 3 2 1 1 72 277 235 71
247 3 2 1 1 83 281 253 82
248 3 2 1 1 392 374 395 404
249 3 2 1 1 70 276 242 69
250 3 2 1 1 79 280 236 78
251 3 2 1 1 252 280 79 80
252 3 2 1 1 242 245 68 69
253 3 2 1 1 239 281 83 84
254 3 2 1 1 394 408 401 372
255 3 2 1 1 374 392 397 380
256 3 2 1 1 245 249 67 68
257 3 2 1 1 66 244 286 65
258 3 2 1 1 237 272 89 90
259 3 2 1 1 86 261 254 85
260 3 2 1 1 77 279 251 76
261 3 2 1 1 236 279 77 78
262 3 2 1 1 287 261 86 87
263 3 2 1 1 233 287 87 88
264 3 2 1 1 75 76 251 278
265 3 2 1 1 384 391 377 359
266 3 2 1 1 88 89 272 233
267 3 2 1 1 67 249 93 7
268 3 2 1 1 278 229 74 75
269 3 2 1 1 388 400 389 362
270 3 2 1 1 74 229 250 73
271 3 2 1 1 85 254 239 84
272 3 2 1 1 396 400 386 363
273 3 2 1 1 393 394 382 379
274 3 2 1 1 237 90 91 255
275 3 2 1 1 58 274 248 57
276 3 2 1 1 382 394 372 355
279 3 2 1 1 55 247 81 5
280 3 2 1 1 241 247 55 56
283 3 2 1 1 408 404 403 401
284 3 2 1 1 57 248 241 56
285 3 2 1 1 232 274 58 59
287 3 2 1 1 373 398 383 357
289 3 2 1 1 60 246 232 59
290 3 2 1 1 234 275 61 62
291 3 2 1 1 386 400 388 369
292 3 2 1 1 403 404 395 371
293 3 2 1 1 61 275 246 60
294 3 2 1 1 383 398 393 379
296 3 2 1 1 401 405 396 372
297 3 2 1 1 247 252 80 81
299 3 2 1 1 407 406 397 392
300 3 2 1 1 299 240 286 315
302 3 2 1 1 392 404 408 407
304 3 2 1 1 390 402 403 371
305 3 2 1 1 405 401 403 402
306 3 2 1 1 398 406 407 393
307 3 2 1 1 394 393 407 408
308 3 2 1 1 330 353 331 335
309 3 2 1 1 255 314 268 237
310 3 2 1 1 326 352 359 342
311 3 2 1 1 331 353 352 326
312 3 2 1 1 325 364 370 351
313 3 2 1 1 296 313 261 287
314 3 2 1 1 361 350 318 378
315 3 2 1 1 356 378 318 343
316 3 2 1 1 397 406 391 384
317 3 2 1 1 338 325 313 296
318 3 2 1 1 391 406 398 373
319 3 2 1 1 325 351 266 313
320 3 2 1 1 318 350 308 265
321 3 2 1 1 351 323 303 266
322 3 2 1 1 299 332 271 240
323 3 2 1 1 272 297 327 233
324 3 2 1 1 290 315 273 260
325 3 2 1 1 341 354 298 332
326 3 2 1 1 344 369 341 322
327 3 2 1 1 296 287 233 327
328 3 2 1 1 351 370 345 323
329 3 2 1 1 364 373 357 370
330 3 2 1 1 384 387 380 397
331 3 2 1 1 297 272 237 268
332 3 2 1 1 387 384 359 352
333 3 2 1 1 367 387 352 353
334 3 2 1 1 377 391 373 364
335 3 2 1 1 290 322 299 315
336 3 2 1 1 342 359 377 338
337 3 2 1 1 396 405 389 400
338 3 2 1 1 388 362 319 354
339 3 2 1 1 298 354 319 291
340 3 2 1 1 405 402 375 389
341 3 2 1 1 364 325 338 377
342 3 2 1 1 369 388 354 341
343 3 2 1 1 390 385 376 399
344 3 2 1 1 291 275 234 298
345 3 2 1 1 318 265 306 343
346 3 2 1 1 65 286 240 64
347 3 2 1 1 291 319 343 306
348 3 2 1 1 64 240 271 63
349 3 2 1 1 271 332 298 234
350 3 2 1 1 399 375 402 390
351 3 2 1 1 234 62 63 271
352 3 2 1 1 322 341 332 299
85 3 2 1 1 111 145 474 473
89 3 2 1 1 129 144 472 471
90 3 2 1 1 472 144 111 473
93 3 2 1 1 125 127 465 464
97 3 2 1 1 476 146 122 477
99 3 2 1 1 470 110 129 471
100 3 2 1 1 466 142 109 467
101 3 2 1 1 127 142 466 465
105 3 2 1 1 109 128 468 467
107 3 2 1 1 469 143 110 470
109 3 2 1 1 128 143 469 468
114 3 2 1 1 122 130 478 477
115 3 2 1 1 478 130 39 461
123 3 2 1 1 116 146 476 475
124 3 2 1 1 474 145 116 475
125 3 2 1 1 9 125 464 460
170 3 2 1 1 231 259 488 487
172 3 2 1 1 489 284 238 490
173 3 2 1 1 259 284 489 488
175 3 2 1 1 238 260 491 490
177 3 2 1 1 260 273 492 491
229 3 2 1 1 253 479 463 82
277 3 2 1 1 231 487 486 283
278 3 2 1 1 485 258 283 486
281 3 2 1 1 484 230 258 485
282 3 2 1 1 257 282 483 482
286 3 2 1 1 483 282 230 484
288 3 2 1 1 256 257 482 481
295 3 2 1 1 253 243 480 479
298 3 2 1 1 243 256 481 480
301 3 2 1 1 462 493 244 66
303 3 2 1 1 493 492 273 244
353 3 2 1 1 478 453 452 477
354 3 2 1 1 456 449 486 487
355 3 2 1 1 451 458 474 475
356 3 2 1 1 491 454 447 490
357 3 2 1 1 476 459 451 475
358 3 2 1 1 452 459 476 477
359 3 2 1 1 450 484 485 457
360 3 2 1 1 449 457 485 486
361 3 2 1 1 428 453 478 461
362 3 2 1 1 474 458 450 473
363 3 2 1 1 479 453 428 463
364 3 2 1 1 452 453 479 480
365 3 2 1 1 483 458 451 482
366 3 2 1 1 450 458 483 484
367 3 2 1 1 451 459 481 482
368 3 2 1 1 481 459 452 480
369 3 2 1 1 493 446 445 492
370 3 2 1 1 444 446 493 462
371 3 2 1 1 448 455 468 469
372 3 2 1 1 445 446 464 465
373 3 2 1 1 464 446 444 460
374 3 2 1 1 466 454 445 465
375 3 2 1 1 447 454 466 467
376 3 2 1 1 489 455 448 488
377 3 2 1 1 447 455 489 490
378 3 2 1 1 468 455 447 467
379 3 2 1 1 487 488 448 456
380 3 2 1 1 445 454 491 492
381 3 2 1 1 448 469 470 456
382 3 2 1 1 471 449 456 470
383 3 2 1 1 472 457 449 471
384 3 2 1 1 472 473 450 457
$EndElements
