$MeshFormat
2.2 0 8
$EndMeshFormat
$Nodes
231
1 0 0 0
2 0 200 0
3 0 200 100
4 0 0 100
5 0 100 50
6 0 150 50
7 0 50 50
8 0 100 25
9 0 100 75
10 0 10 0
11 0 20 0
12 0 30 0
13 0 40 0
14 0 50 0
15 0 60 0
16 0 70 0
17 0 80 0
18 0 90 0
19 0 100 0
20 0 110 0
21 0 120 0
22 0 130 0
23 0 140 0
24 0 150 0
25 0 160 0
26 0 170 0
27 0 180 0
28 0 190 0
29 0 200 10
30 0 200 20
31 0 200 30
32 0 200 40
33 0 200 50
34 0 200 60
35 0 200 70
36 0 200 80
37 0 200 90
38 0 190 100
39 0 180 100
40 0 170 100
41 0 160 100
42 0 150 100
43 0 140 100
44 0 130 100
45 0 120 100
46 0 110 100
47 0 100 100
48 0 90 100
49 0 80 100
50 0 70 100
51 0 60 100
52 0 50 100
53 0 40 100
54 0 30 100
55 0 20 100
56 0 9.99999999999999 100
57 0 0 90
58 0 0 80
59 0 0 70
60 0 0 60
61 0 0 50
62 0 0 40
63 0 0 30
64 0 0 20
65 0 0 10
66 0 129.999938500607 10.0572268012436
67 0 170 89.9999989684147
68 0 70.0000229331238 89.9439783580879
69 0 150 10.0009294276274
70 0 190 40.0000000637246
71 0 139.999783833822 89.9932337919107
72 0 30.0000000775779 10.000001015178
73 0 50.0000675703426 10.0010477695832
74 0 50.0000229335363 89.9989682569547
75 0 9.99999999999996 59.9999999882655
76 0 170 10.0000031560995
77 0 30.0000000004125 89.9999930570307
78 0 70.001480179397 10.061990069905
79 0 190 70
80 0 9.99999999999998 89.9999999750642
81 0 9.99999999999998 30
82 0 190 20.0000000567546
83 0 119.999783833822 89.7678618590937
84 0 90.0018057723751 10.8172194293837
85 0 109.999972979228 89.1810982281455
86 0 100.000762361823 11.2504850715731
87 0 99.9999966224035 88.7519018120815
88 0 190 90
89 0 9.99999999999996 10
90 0 89.9999995778004 89.1425068347241
91 0 180 10.0000006142677
92 0 9.99999999999996 69.9999999501284
93 0 109.999902521505 10.8646401639909
94 0 190 10.0000001054986
95 0 190 60.0000000502116
96 0 9.99999999999998 40
97 0 160 89.9999598050818
98 0 169.999997514847 79.9999894923621
99 0 20.0000002310323 59.9999972594984
100 0 20.0000004186738 30.0000021774759
101 0 179.999999844678 89.9999992143245
102 0 179.999999844678 69.9999993048893
103 0 119.999791491813 10.3005386423142
104 0 80.0000028138655 89.7060506557019
105 0 160 10.0002014357836
106 0 189.999999980585 79.9999999074509
107 0 149.999972979228 89.9989031074563
108 0 129.999513626099 89.940001248294
109 0 40.0000028675687 89.9998282161996
110 0 9.99999999999998 79.999999929043
111 0 40.0000143519097 10.0002077533645
112 0 20.000000017455 10.000000228415
113 0 139.999992312576 10.0114600579021
114 0 60.0000515995801 89.9883408070296
115 0 20.0000000000515 89.9999988869534
116 0 190 30.0000000637067
117 0 60.0006909081112 10.0155948766477
118 0 80.0025951713442 10.2932672637987
119 0 190 50.0000001146652
120 0 10.0000000144395 49.9999998272518
121 0 10.000000027258 20.0000001503682
122 0 169.999994306298 20.0000472072821
123 0 119.985824389237 79.5200928020315
124 0 179.999999288287 20.0000071272205
125 0 90.0150678667835 21.5594420564858
126 0 109.982780641527 21.5775040443112
127 0 109.981472015168 78.4319106741575
128 0 90.0012464173636 78.4596404066339
129 0 129.994031231041 20.1182698193277
130 0 70.0025231001733 79.8859177598875
131 0 50.0002800314248 79.9963408546708
132 0 180 40.0000031586221
133 0 139.997254424247 79.9783703574162
134 0 40.0000433942609 20.0003983164735
135 0 60.00260883893 20.0265657866029
136 0 119.911131512672 69.4656159583316
137 0 20.000000373932 49.999997921745
138 0 159.999942351265 20.0004714915411
139 0 119.982575486625 20.5486971267511
140 0 80.0051720816286 79.475054476086
141 0 179.99999955518 30.0000067512993
142 0 179.999999648098 79.9999983609302
143 0 20.0000002573419 20.0000016410362
144 0 159.999924469999 79.9996799101889
145 0 30.000003152495 79.9999469365347
146 0 20.0000002919192 69.999994020819
147 0 80.0186669494845 20.5331019992675
148 0 179.999999980585 60.0000007215534
149 0 20.0000005034639 40.0000005322396
150 0 129.988040570962 79.852539296394
151 0 139.997653779025 20.0269072064909
152 0 20.0000004371849 79.9999912107629
153 0 129.960412008384 30.1398937154977
154 0 70.0176893057992 69.8581501308645
155 0 80.0647121513295 30.5211752443151
156 0 30.0000393179878 59.9998686520318
157 0 30.0000201279609 40.0000079661093
158 0 149.999237845945 20.0057739727596
159 0 169.999984674851 69.9999619773859
160 0 119.905075435392 30.5683234086429
161 0 30.0000223618757 69.9998678625925
162 0 30.0000081203782 20.000073739298
163 0 169.999933937378 40.0001162993589
164 0 60.001935970405 79.966664789957
165 0 109.893582006268 68.5805927822542
166 0 149.999146324019 79.9951686052548
167 0 169.999952036516 30.0001468719506
168 0 80.0366938370831 69.4466507699944
169 0 50.000542330076 20.0057520470522
170 0 70.0113230913801 20.1650183026707
171 0 179.999995868659 50.0000092318528
172 0 129.952157006607 69.8335162460451
173 0 40.0000681475598 79.9991813498498
174 0 129.89442891142 40.1030892198046
175 0 70.0509308918761 59.867091650721
176 0 119.776653574895 59.6665058120431
177 0 139.984471305849 30.0402740490372
178 0 60.0074193099531 69.9560693020804
179 0 169.999972232657 59.9999902216206
180 0 40.0002142390316 30.0008514704516
181 0 99.9497063455553 68.0581926132952
182 0 169.999933500662 50.0000658109618
183 0 159.999537273778 69.9990476426609
184 0 50.0017328680726 69.9897132652288
185 0 30.0000358895009 30.0001510499089
186 0 109.894230230591 31.4458425401042
187 0 90.0197865851679 68.6116231405154
188 0 30.0000486126243 49.999922389558
189 0 90.0536898427196 31.4030680080738
190 0 60.0086915030761 30.030818466225
191 0 70.0342632129829 30.1620735523809
192 0 139.983266063074 69.9552544574206
193 0 149.996510898717 30.0092113336852
194 0 159.999277735328 30.0019481746124
195 0 40.000354471795 69.9979422888058
196 0 70.0651473845649 40.0683862091627
197 0 99.967982277576 31.9523608958406
198 0 159.999341820057 59.9992349787789
199 0 60.0164157813879 59.9596829629809
200 0 139.967169166613 40.0294818397797
201 0 149.99185209671 40.0079798124092
202 0 40.0003288164234 40.0004869215046
203 0 50.0041076528376 59.9891875155505
204 0 80.1264517637605 40.2782123486782
205 0 119.769336092668 40.3680335141976
206 0 109.769770469139 59.299974557719
207 0 129.893996271975 59.8806403438337
208 0 40.0007470729647 59.9975247644844
209 0 80.1002193710983 59.5903925708649
210 0 90.0671356392029 59.2349167042779
211 0 50.002463085247 30.0076377099659
212 0 149.995386786872 69.9899961083249
213 0 159.99905786196 50.0002872415446
214 0 159.99844436753 40.0020259063963
215 0 129.856914871669 50.0012095777711
216 0 70.074626045406 49.9499833924436
217 0 119.719651172116 50.0274317958829
218 0 80.1340598075881 49.9228573762668
219 0 60.0215563474654 40.0206363578942
220 0 50.0051128703038 40.0053868288661
221 0 139.962544590491 59.963087672547
222 0 60.026015527051 49.9842836439924
223 0 109.780850016695 40.7396939069137
224 0 90.0909244832158 40.6574764434538
225 0 149.990640483906 59.9900144029717
226 0 139.951286988544 49.997147548903
227 0 40.0007756288497 49.9993513660159
228 0 99.9239109192674 59.1193760305985
229 0 90.087734993805 49.9589532949348
230 0 109.759191230955 50.0443423884219
231 0 99.9497663918494 40.8647581063263
$EndNodes
$Elements
200
1 3 2 1 1 159 183 198 179
2 3 2 1 1 102 159 179 148
3 3 2 1 1 216 222 219 196
4 3 2 1 1 179 182 171 148
5 3 2 1 1 207 215 226 221
6 3 2 1 1 141 132 163 167
7 3 2 1 1 213 198 225 6
8 3 2 1 1 222 7 220 219
9 3 2 1 1 76 122 138 105
10 3 2 1 1 129 153 160 139
11 3 2 1 1 101 142 106 88
12 3 2 1 1 216 196 204 218
13 3 2 1 1 205 217 230 223
14 3 2 1 1 102 79 106 142
15 3 2 1 1 183 159 98 144
16 3 2 1 1 201 6 226 200
17 3 2 1 1 225 221 226 6
18 3 2 1 1 143 162 185 100
19 3 2 1 1 162 134 180 185
20 3 2 1 1 80 110 152 115
21 3 2 1 1 77 115 152 145
22 3 2 1 1 161 156 208 195
23 3 2 1 1 157 202 227 188
24 3 2 1 1 7 222 199 203
25 3 2 1 1 26 76 105 25
26 3 2 1 1 54 77 109 53
27 3 2 1 1 154 130 164 178
28 3 2 1 1 203 208 227 7
29 3 2 1 1 24 25 105 69
30 3 2 1 1 106 36 37 88
31 3 2 1 1 52 53 109 74
32 3 2 1 1 110 80 57 58
33 3 2 1 1 95 79 102 148
34 3 2 1 1 96 81 100 149
35 3 2 1 1 177 200 174 153
36 3 2 1 1 180 202 157 185
37 3 2 1 1 103 93 20 21
38 3 2 1 1 82 94 29 30
39 3 2 1 1 31 116 82 30
40 3 2 1 1 34 95 119 33
41 3 2 1 1 104 90 48 49
42 3 2 1 1 61 120 75 60
43 3 2 1 1 62 96 120 61
44 3 2 1 1 141 116 70 132
45 3 2 1 1 143 112 72 162
46 3 2 1 1 111 134 162 72
47 3 2 1 1 124 82 116 141
48 3 2 1 1 227 208 156 188
49 3 2 1 1 198 183 212 225
50 3 2 1 1 93 86 19 20
51 3 2 1 1 22 23 113 66
52 3 2 1 1 101 88 38 39
53 3 2 1 1 39 40 67 101
54 3 2 1 1 40 41 97 67
55 3 2 1 1 41 42 107 97
56 3 2 1 1 85 46 47 87
57 3 2 1 1 50 51 114 68
58 3 2 1 1 55 56 80 115
59 3 2 1 1 164 130 68 114
60 3 2 1 1 120 137 99 75
61 3 2 1 1 69 105 138 158
62 3 2 1 1 138 122 167 194
63 3 2 1 1 28 2 29 94
64 3 2 1 1 56 4 57 80
65 3 2 1 1 19 86 84 18
66 3 2 1 1 69 113 23 24
67 3 2 1 1 45 46 85 83
68 3 2 1 1 74 114 51 52
69 3 2 1 1 110 58 59 92
70 3 2 1 1 59 60 75 92
71 3 2 1 1 104 140 128 90
72 3 2 1 1 82 124 91 94
73 3 2 1 1 97 107 166 144
74 3 2 1 1 178 199 175 154
75 3 2 1 1 200 177 193 201
76 3 2 1 1 199 178 184 203
77 3 2 1 1 172 207 221 192
78 3 2 1 1 225 212 192 221
79 3 2 1 1 186 223 231 197
80 3 2 1 1 5 230 206 228
81 3 2 1 1 224 231 5 229
82 3 2 1 1 126 186 197 8
83 3 2 1 1 42 43 71 107
84 3 2 1 1 90 87 47 48
85 3 2 1 1 71 133 166 107
86 3 2 1 1 95 148 171 119
87 3 2 1 1 150 172 192 133
88 3 2 1 1 206 176 136 165
89 3 2 1 1 194 193 158 138
90 3 2 1 1 146 161 145 152
91 3 2 1 1 131 184 178 164
92 3 2 1 1 160 205 223 186
93 3 2 1 1 194 214 201 193
94 3 2 1 1 5 228 210 229
95 3 2 1 1 38 88 37 3
96 3 2 1 1 223 230 5 231
97 3 2 1 1 127 9 181 165
98 3 2 1 1 128 187 181 9
99 3 2 1 1 27 28 94 91
100 3 2 1 1 116 31 32 70
101 3 2 1 1 139 103 66 129
102 3 2 1 1 140 104 68 130
103 3 2 1 1 158 151 113 69
104 3 2 1 1 108 150 133 71
105 3 2 1 1 83 85 127 123
106 3 2 1 1 152 110 92 146
107 3 2 1 1 67 98 142 101
108 3 2 1 1 102 142 98 159
109 3 2 1 1 188 156 99 137
110 3 2 1 1 185 157 149 100
111 3 2 1 1 77 145 173 109
112 3 2 1 1 84 125 147 118
113 3 2 1 1 70 119 171 132
114 3 2 1 1 96 149 137 120
115 3 2 1 1 139 160 186 126
116 3 2 1 1 187 128 140 168
117 3 2 1 1 173 195 184 131
118 3 2 1 1 149 157 188 137
119 3 2 1 1 130 154 168 140
120 3 2 1 1 195 173 145 161
121 3 2 1 1 153 174 205 160
122 3 2 1 1 182 213 214 163
123 3 2 1 1 215 207 176 217
124 3 2 1 1 187 210 228 181
125 3 2 1 1 208 203 184 195
126 3 2 1 1 220 211 190 219
127 3 2 1 1 189 197 231 224
128 3 2 1 1 218 204 224 229
129 3 2 1 1 176 206 230 217
130 3 2 1 1 229 210 209 218
131 3 2 1 1 111 72 12 13
132 3 2 1 1 11 12 72 112
133 3 2 1 1 13 14 73 111
134 3 2 1 1 14 15 117 73
135 3 2 1 1 15 16 78 117
136 3 2 1 1 17 118 78 16
137 3 2 1 1 17 18 84 118
138 3 2 1 1 91 76 26 27
139 3 2 1 1 119 70 32 33
140 3 2 1 1 95 34 35 79
141 3 2 1 1 106 79 35 36
142 3 2 1 1 115 77 54 55
143 3 2 1 1 96 62 63 81
144 3 2 1 1 121 81 63 64
145 3 2 1 1 121 64 65 89
146 3 2 1 1 144 98 67 97
147 3 2 1 1 111 73 169 134
148 3 2 1 1 117 135 169 73
149 3 2 1 1 114 74 131 164
150 3 2 1 1 117 78 170 135
151 3 2 1 1 118 147 170 78
152 3 2 1 1 100 81 121 143
153 3 2 1 1 150 108 83 123
154 3 2 1 1 76 91 124 122
155 3 2 1 1 75 99 146 92
156 3 2 1 1 103 139 126 93
157 3 2 1 1 161 146 99 156
158 3 2 1 1 74 109 173 131
159 3 2 1 1 89 112 143 121
160 3 2 1 1 66 113 151 129
161 3 2 1 1 165 136 123 127
162 3 2 1 1 172 150 123 136
163 3 2 1 1 171 182 163 132
164 3 2 1 1 169 135 190 211
165 3 2 1 1 125 189 155 147
166 3 2 1 1 155 191 170 147
167 3 2 1 1 224 204 155 189
168 3 2 1 1 191 155 204 196
169 3 2 1 1 144 166 212 183
170 3 2 1 1 133 192 212 166
171 3 2 1 1 154 175 209 168
172 3 2 1 1 134 169 211 180
173 3 2 1 1 135 170 191 190
174 3 2 1 1 136 176 207 172
175 3 2 1 1 226 215 174 200
176 3 2 1 1 217 205 174 215
177 3 2 1 1 222 216 175 199
178 3 2 1 1 218 209 175 216
179 3 2 1 1 202 180 211 220
180 3 2 1 1 165 181 228 206
181 3 2 1 1 179 198 213 182
182 3 2 1 1 219 190 191 196
183 3 2 1 1 7 227 202 220
184 3 2 1 1 65 1 10 89
185 3 2 1 1 197 189 125 8
186 3 2 1 1 112 89 10 11
187 3 2 1 1 66 103 21 22
188 3 2 1 1 108 71 43 44
189 3 2 1 1 44 45 83 108
190 3 2 1 1 124 141 167 122
191 3 2 1 1 177 153 129 151
192 3 2 1 1 167 163 214 194
193 3 2 1 1 210 187 168 209
194 3 2 1 1 6 201 214 213
195 3 2 1 1 68 104 49 50
196 3 2 1 1 151 158 193 177
197 3 2 1 1 84 86 8 125
198 3 2 1 1 93 126 8 86
199 3 2 1 1 85 87 9 127
200 3 2 1 1 90 128 9 87
$EndElements
