$MeshFormat
2.2 0 8
$EndMeshFormat
$Nodes
877
1 0 0 0
2 0 200 0
3 0 200 100
4 0 0 100
5 0 0 50
6 0 190 90
7 0 5 0
8 0 10 0
9 0 15 0
10 0 20 0
11 0 25 0
12 0 30 0
13 0 35 0
14 0 40 0
15 0 45 0
16 0 50 0
17 0 55 0
18 0 60 0
19 0 65 0
20 0 70 0
21 0 75 0
22 0 80 0
23 0 85 0
24 0 90 0
25 0 95 0
26 0 100 0
27 0 105 0
28 0 110 0
29 0 115 0
30 0 120 0
31 0 125 0
32 0 130 0
33 0 135 0
34 0 140 0
35 0 145 0
36 0 150 0
37 0 155 0
38 0 160 0
39 0 165 0
40 0 170 0
41 0 175 0
42 0 180 0
43 0 185 0
44 0 190 0
45 0 195 0
46 0 200 5
47 0 200 10
48 0 200 15
49 0 200 20
50 0 200 25
51 0 200 30
52 0 200 35
53 0 200 40
54 0 200 45
55 0 200 50
56 0 200 55
57 0 200 60
58 0 200 65
59 0 200 70
60 0 200 75
61 0 200 80
62 0 200 85
63 0 200 90
64 0 200 95
65 0 195 100
66 0 190 100
67 0 185 100
68 0 180 100
69 0 175 100
70 0 170 100
71 0 165 100
72 0 160 100
73 0 155 100
74 0 150 100
75 0 145 100
76 0 140 100
77 0 135 100
78 0 130 100
79 0 125 100
80 0 120 100
81 0 115 100
82 0 110 100
83 0 105 100
84 0 100 100
85 0 95 100
86 0 90 100
87 0 85 100
88 0 80 100
89 0 75 100
90 0 70 100
91 0 65 100
92 0 60 100
93 0 55 100
94 0 50 100
95 0 45 100
96 0 40 100
97 0 35 100
98 0 30 100
99 0 25 100
100 0 20 100
101 0 15 100
102 0 10 100
103 0 4.99999999999997 100
104 0 0 95
105 0 0 90
106 0 0 85
107 0 0 80
108 0 0 75
109 0 0 70
110 0 0 65
111 0 0 60
112 0 0 55
113 0 0 45
114 0 0 40
115 0 0 35
116 0 0 30
117 0 0 25
118 0 0 20
119 0 0 15
120 0 0 10
121 0 0 5
122 0 4.87179487179487 51.025641025641
123 0 9.74358974358974 52.0512820512821
124 0 14.6153846153846 53.0769230769231
125 0 19.4871794871795 54.1025641025641
126 0 24.3589743589743 55.1282051282051
127 0 29.2307692307692 56.1538461538462
128 0 34.1025641025641 57.1794871794872
129 0 38.974358974359 58.2051282051282
130 0 43.8461538461538 59.2307692307692
131 0 48.7179487179487 60.2564102564102
132 0 53.5897435897436 61.2820512820513
133 0 58.4615384615384 62.3076923076923
134 0 63.3333333333333 63.3333333333333
135 0 68.2051282051282 64.3589743589744
136 0 73.0769230769231 65.3846153846154
137 0 77.9487179487179 66.4102564102564
138 0 82.8205128205128 67.4358974358974
139 0 87.6923076923077 68.4615384615385
140 0 92.5641025641026 69.4871794871795
141 0 97.4358974358974 70.5128205128205
142 0 102.307692307692 71.5384615384615
143 0 107.179487179487 72.5641025641026
144 0 112.051282051282 73.5897435897436
145 0 116.923076923077 74.6153846153846
146 0 121.794871794872 75.6410256410256
147 0 126.666666666667 76.6666666666667
148 0 131.538461538462 77.6923076923077
149 0 136.410256410256 78.7179487179487
150 0 141.282051282051 79.7435897435898
151 0 146.153846153846 80.7692307692308
152 0 151.025641025641 81.7948717948718
153 0 155.897435897436 82.8205128205128
154 0 160.769230769231 83.8461538461538
155 0 165.641025641026 84.8717948717949
156 0 170.512820512821 85.8974358974359
157 0 175.384615384615 86.9230769230769
158 0 180.25641025641 87.948717948718
159 0 185.128205128205 88.974358974359
160 0 155.000134390564 4.99891958218348
161 0 130.000625256428 4.99850711652148
162 0 105.000352161952 4.99841267184647
163 0 80.0007042721513 4.99817568299439
164 0 60.0012269163377 4.99817266910481
165 0 40.000113798161 4.99829898654602
166 0 195.00089463945 34.9996511124267
167 0 25.0007123645435 95.0014816919271
168 0 5.00334935928261 24.9701812873686
169 0 45.0009313277172 95.0022759283973
170 0 195.003213825889 54.9969146545993
171 0 65.0109210649011 94.9967297991697
172 0 170.000219700493 4.99952648860832
173 0 80.0023825117807 95.0075997919353
174 0 94.9912064040136 94.8994002529137
175 0 108.40980065315 95.442450999999
176 0 5.10661871034014 79.7497939575665
177 0 14.9997469005761 4.99962418549158
178 0 123.251251262167 94.9646163050674
179 0 138.837043279421 93.5926540826016
180 0 15.0026647279326 94.9973806264776
181 0 195.000240211564 19.9999382528736
182 0 180.000174276007 4.99982227100366
183 0 194.977414743019 74.8653721184457
184 0 4.72360635445877 65.3378515963784
185 0 5.35703102524364 34.9206111541013
186 0 154.537751087861 94.6419756975448
187 0 5.09770852838813 46.1598709447269
188 0 90.000416149395 4.99829185693926
189 0 4.9997888790096 9.99961775192619
190 0 171.023703130249 93.8211984779954
191 0 180.124529071049 96.7847299947595
192 0 193.606306941195 90.2042694094556
193 0 194.8394850231 96.6828538014229
194 0 190.000003690251 95.0000014710578
195 0 149.472087817522 94.9728693850192
196 0 165.03697968037 94.612536514032
197 0 4.68233356693324 69.8778999106325
198 0 194.769235460405 83.2482021015512
199 0 194.997081449876 69.9374933353057
200 0 195.004262554088 64.9719387384425
201 0 133.202680153476 94.7165923492862
202 0 118.267708217415 94.9072734130531
203 0 104.903855730797 96.5373424312068
204 0 89.9826770233929 94.9920196332235
205 0 75.0067257846002 95.008118467183
206 0 60.0088032139635 94.9952961039899
207 0 195.002419975331 49.9985169091168
208 0 55.0050234888018 94.9973955790103
209 0 40.0005280540174 95.002731110638
210 0 35.0004594316121 95.0026615208268
211 0 29.9995801927994 4.99873127004015
212 0 45.0004674817285 4.99817769462441
213 0 50.0008583339679 4.99810891398886
214 0 65.0011559619268 4.99815720396047
215 0 70.0009802190999 4.9981354360982
216 0 95.0003280582829 4.9982676085354
217 0 110.000252003127 4.99844536287084
218 0 115.000076902147 4.99848048731825
219 0 120.000071728907 4.99846140020854
220 0 135.000757282582 4.99854259566694
221 0 140.000598522606 4.99860456850523
222 0 145.000373354058 4.99865851730544
223 0 160.000152085386 4.99911155212855
224 0 5.05140961567113 84.9214678325209
225 0 4.99929165421466 14.9980433452427
226 0 195.00179716035 44.9991267687136
227 0 195.000621101691 29.9997723885346
228 0 185.000123100213 4.99990959851699
229 0 195.000150377215 14.9999662941065
230 0 19.9996105905711 4.9993520617208
231 0 4.99992686133498 4.99988628823808
232 0 195.0000311466 4.99999406681527
233 0 5.00200366265018 94.9969662471367
234 0 4.9455049964004 55.9039979437229
235 0 145.001539272759 9.99680065455096
236 0 120.000419207818 9.99623629132612
237 0 90.0012183064575 9.99571661163822
238 0 65.002842326014 9.99542760862956
239 0 44.999153127518 9.99546803415727
240 0 190.006431141137 49.9975979712267
241 0 34.9956017211851 90.0089305726995
242 0 55.0359758070881 89.9555379916193
243 0 190.002242343965 34.9990092162595
244 0 80.010218227203 90.0645308409618
245 0 190.012021193994 69.9001921839085
246 0 94.7291574649495 90.1077542458512
247 0 111.417192877211 89.4307261737288
248 0 121.629017314012 89.8932107061069
249 0 9.01708814894104 66.2100196515359
250 0 141.766128772808 89.2068425436375
251 0 155.000825330781 9.99744993620966
252 0 10.3678512291622 79.5307624609436
253 0 14.9988827958653 9.99861339743418
254 0 180.000503705647 9.99954460970522
255 0 190.000636322509 19.999736136731
256 0 153.602654644501 88.3494612908061
257 0 6.55611071312666 40.8162438267146
258 0 9.97383452184337 47.395536126518
259 0 185.058525761938 94.3676175831959
260 0 175.341894404525 95.1738354425901
261 0 194.921260192512 79.6146924602058
262 0 159.812140368345 94.5872065884572
263 0 144.691206802533 94.9551436946413
264 0 128.234953150408 94.9322030191977
265 0 113.20135511996 94.9070319044221
266 0 100.857006603956 94.2592038192689
267 0 60.0772369061667 89.931207811472
268 0 195.004660383382 59.9892389710994
269 0 84.996513296685 95.0062958392236
270 0 44.9980295518483 90.0011272082428
271 0 70.0126282749781 95.0022577243471
272 0 50.0040395693475 94.9975925810658
273 0 30.0002233973966 95.0025060053452
274 0 5.0751993254118 29.9179824088998
275 0 4.96668689226004 74.5992267871773
276 0 115.000541083962 9.99616450414911
277 0 105.001098727112 9.99600971152336
278 0 55.0011751069755 4.99805897156344
279 0 140.002171407024 9.99654195375946
280 0 130.001897233534 9.99625386395827
281 0 75.0008492971164 4.998091912204
282 0 85.0006318352176 4.99812423670826
283 0 100.000348995183 4.99823925747184
284 0 20.0017303714922 94.9995837994191
285 0 34.9997231135277 4.99840745442484
286 0 125.000386114059 4.99835269000162
287 0 150.000322167054 4.99869477472055
288 0 195.001367172688 39.9993972092553
289 0 24.9994989358848 4.99901138125155
290 0 165.000196192181 4.99930974197163
291 0 9.99931748093911 9.99891478451823
292 0 10.0039675054882 94.9951266528773
293 0 5.01626042116703 89.9785285324195
294 0 175.000239066133 4.99966800324408
295 0 4.99901473479393 19.9898507639609
296 0 195.000423302991 24.9998518578021
297 0 9.99975876799053 4.99964691813497
298 0 190.000076226271 4.99996472666476
299 0 195.00008507431 9.99997958389562
300 0 189.786773048246 84.9685157025984
301 0 9.8257814793497 56.8918149852856
302 0 168.82805157969 89.8127277705571
303 0 4.85209673190286 60.7243965443777
304 0 140.004756519012 14.9936034324948
305 0 115.001443243835 14.9927976391514
306 0 60.3106885908528 84.6089484519924
307 0 10.0775960689385 29.80876958157
308 0 170.596322574488 80.5074895118226
309 0 189.914577222139 79.6369260394185
310 0 98.3828562215063 90.1711389725091
311 0 84.974537640751 90.028489617117
312 0 8.04144636438346 69.5991214930768
313 0 34.9966731514084 9.99571324530381
314 0 100.001000036872 9.99581833332923
315 0 20.0246198352535 89.9904231308631
316 0 30.0013466379154 90.0081948477108
317 0 75.00212648966 9.99544500452275
318 0 190.004544288205 44.9981759087395
319 0 15.0352640937585 89.9756697103463
320 0 165.000703594734 9.99837079349879
321 0 190.001038323468 24.9995438648148
322 0 175.000666708565 9.99919883118912
323 0 190.000388380225 14.9998342456119
324 0 144.787400751959 91.462875839577
325 0 159.965506711673 89.1585679998208
326 0 14.8777836179674 48.4001581969441
327 0 189.980689757214 74.8267283465587
328 0 165.080725671672 89.5970009557063
329 0 148.150462944177 90.3885483748821
330 0 116.606978902209 89.6564574810771
331 0 105.134902546536 89.5455973128521
332 0 89.9024332157277 90.017684330212
333 0 50.0132555541892 89.9809332054577
334 0 131.660220051608 89.8420381035961
335 0 126.692000940341 89.943950100858
336 0 190.015975032864 59.9841119496269
337 0 10.6428221283956 73.10537231355
338 0 190.022065921393 64.9552830361348
339 0 39.9969227162048 9.99530183391489
340 0 125.001111774247 9.99608718308991
341 0 95.0010272818939 9.99565980328423
342 0 190.010940760204 54.9950784286927
343 0 70.1017714245243 90.0012597187889
344 0 65.1279592795472 89.9383890969359
345 0 135.55194948877 89.6481011038975
346 0 9.99504689089304 19.9818387270414
347 0 150.001236339513 9.99699724533583
348 0 11.9356584662871 38.7540435552521
349 0 85.001659617394 9.99553438380586
350 0 70.002507682874 9.99531605045725
351 0 60.0030521225633 9.9953429486883
352 0 190.003287412577 39.9985662239825
353 0 75.0635093394941 90.0562267205761
354 0 55.0025940992077 9.99534935375161
355 0 39.9933540174963 90.0056502978879
356 0 10.1385474570452 84.8557110325927
357 0 50.0009437088267 9.9953463672526
358 0 160.000790148629 9.99785809800664
359 0 110.001003505296 9.99596954997969
360 0 135.00243667053 9.99626261522244
361 0 14.9956397214492 14.9945586456754
362 0 24.9976246337155 9.99736690027183
363 0 190.001607250221 29.9992788040086
364 0 10.040349316312 89.9600358205797
365 0 19.9979251565578 9.997791609777
366 0 9.99750150991481 14.9943715432357
367 0 185.000353206827 9.99976323056232
368 0 190.000213645603 9.99989827768547
369 0 185.02633483911 83.9057298027949
370 0 14.6563868826374 57.9511162886426
371 0 175.700855773451 90.0669060137943
372 0 9.57641056577785 61.6725081174737
373 0 10.4709897503572 43.9783193331369
374 0 180.319560721242 92.1424938414279
375 0 100.002399734374 14.9922356317179
376 0 70.0045583161644 14.991406176007
377 0 49.996655429894 14.9920706989853
378 0 185.008392094153 44.9971043904805
379 0 160.002114808621 14.9961482346261
380 0 30.0170308837823 85.0413682402235
381 0 39.9225665256268 85.0067787568374
382 0 75.1923153025403 85.2146648428822
383 0 84.8948233008217 85.0829674184483
384 0 185.066735101874 64.982242919018
385 0 13.238360631145 67.6676976822629
386 0 185.002972225751 29.998465569832
387 0 175.00148287411 14.9984962204322
388 0 99.2968275936158 86.6345429669742
389 0 115.112862148315 84.2775405136832
390 0 65.5184307652153 84.7307328197722
391 0 39.9809514006285 14.9880915668319
392 0 14.9883827636826 19.9801369515311
393 0 125.00248001976 14.9927939102814
394 0 135.005056018493 14.9931316218524
395 0 185.000725720206 14.9995500151538
396 0 175.438051492798 80.9653709752796
397 0 125.283076230039 85.0442420068931
398 0 137.123676915692 85.4279796927997
399 0 14.2451120522258 62.8045467311466
400 0 145.488037711344 85.6274078504254
401 0 19.9825868851939 49.4196381215506
402 0 50.003127751738 84.9315288369835
403 0 55.1206726445368 84.7334203447271
404 0 185.065631778642 74.988662808448
405 0 55.0022371430793 14.9917836649886
406 0 25.016187943524 90.0021410535627
407 0 120.001497629057 14.9926699169448
408 0 185.044664848201 60.0009370370902
409 0 10.0082741309274 24.9307478391235
410 0 150.003049772352 14.9946213372179
411 0 145.003975434311 14.9939632759239
412 0 20.170934790952 84.9447876733947
413 0 110.002262949391 14.9925458401803
414 0 15.2064627665651 84.869299259892
415 0 104.677871046509 82.6928571757796
416 0 24.9893902746685 14.9925989359768
417 0 89.7225769398828 84.8769136308704
418 0 29.9962117771238 9.99612270855509
419 0 16.5921374290809 74.1979270759779
420 0 185.025943082038 55.0008166971933
421 0 80.0019827457857 9.99537792331319
422 0 10.5020809621327 34.4936839102334
423 0 19.9919624204519 14.9933910434302
424 0 60.0048521766115 14.9914327658385
425 0 95.0023577735174 14.9919650735994
426 0 85.0032620989374 14.9917374336044
427 0 185.006029766045 39.9973976711795
428 0 170.000774191556 9.99876552711454
429 0 185.002035901811 24.9988807238198
430 0 165.710984566331 79.7348662310694
431 0 19.4755910459822 58.9993691169259
432 0 185.046043410911 80.0983101317348
433 0 15.2973696308992 43.1381078536752
434 0 150.051668967833 85.0603666997913
435 0 146.24832789349 75.8153604701035
436 0 135.008195289568 19.9888301376828
437 0 120.002800828433 19.9880283601321
438 0 100.004731782734 19.987233198521
439 0 54.9968250434355 19.9890129855941
440 0 21.2751872976511 44.8776730415144
441 0 180.01481004158 44.9939996142295
442 0 49.9175159715588 79.8403275237443
443 0 66.4690163379283 79.3838386518019
444 0 180.148690022025 65.0466340003929
445 0 175.416643412415 75.3936354077587
446 0 85.0135488904863 80.0244564786032
447 0 17.9586913227423 68.9208955395044
448 0 80.0037529203388 14.9915436260973
449 0 145.00706488541 19.9903149983827
450 0 29.983663422371 14.9885854182146
451 0 165.001990055795 14.996938784004
452 0 180.004867612888 29.9970605795765
453 0 15.1804613100883 34.311591438299
454 0 14.9918799663452 24.9311598568329
455 0 99.4098851200512 81.390717575503
456 0 18.9954127343874 63.8988372270833
457 0 25.0338899029272 50.5249474779319
458 0 120.171190213954 84.7554086143642
459 0 80.020485848448 85.360690399781
460 0 130.712197773677 85.028936331021
461 0 141.318507249196 83.3694679617731
462 0 70.4816191743577 84.9608145758268
463 0 25.116314665412 85.0008371140314
464 0 44.9861619195521 14.9903763900955
465 0 185.085433292062 69.9746234736421
466 0 75.0041402093798 14.9913468266122
467 0 105.002669384354 14.9922442117716
468 0 20.6673826362253 79.8446902467239
469 0 65.0051182197204 14.9912471129434
470 0 34.9423635306431 85.0463193387864
471 0 110.00389215186 19.9877875274825
472 0 24.9693729387457 19.9773487898204
473 0 130.004122429909 14.9927600834135
474 0 185.014897368825 49.9980546783276
475 0 34.9781297555372 14.9858568042797
476 0 109.944202515906 83.6239741074185
477 0 170.001837799718 14.997710836339
478 0 94.4942839542831 85.3030807375605
479 0 15.6587785601046 79.5751816445401
480 0 19.9810569083696 19.9809240630159
481 0 180.095366483562 60.0210845919754
482 0 44.9376430510454 84.9618406936521
483 0 185.004398879012 34.9978700176912
484 0 54.9626963458142 79.5338731748432
485 0 90.0027540622716 14.9917165514354
486 0 180.001140945413 14.9990761166481
487 0 155.002587849727 14.9952689543029
488 0 185.001310119131 19.9992253068321
489 0 141.372606246606 74.7902651142176
490 0 160.843904824514 78.8232265170357
491 0 170.576948878142 75.1634163182095
492 0 155.982839358561 77.8461902263375
493 0 180.23902718356 80.7836389752389
494 0 24.3394235261721 59.9989791448012
495 0 15.3773864430416 37.5559919402496
496 0 146.337055184998 70.8579427920438
497 0 80.0060950325134 19.9863244131051
498 0 26.3359543619828 45.9833401345459
499 0 39.5505266135257 79.9800738108597
500 0 160.004597396056 19.993703655657
501 0 49.72510892688 74.7636373887375
502 0 175.266524088194 65.037715239175
503 0 160.897898599529 73.7911667906789
504 0 94.2824774148115 80.0456939701466
505 0 44.9457502791892 19.9810581334483
506 0 125.004524045538 19.9880120077983
507 0 65.00808336021 19.9856925091649
508 0 180.02763939262 49.9947829970767
509 0 180.007025313327 34.9960878563245
510 0 170.003559986465 19.9963018749076
511 0 180.002069550375 19.9984884608313
512 0 175.350900933938 70.1286434160849
513 0 113.631849855599 78.8823034226738
514 0 29.9546926367248 51.5800855667385
515 0 19.4935274635177 39.6647572631544
516 0 88.4010175952081 78.6256651628277
517 0 79.9804969445901 81.9206390995125
518 0 44.6839968415029 79.8192001210219
519 0 49.9722995471045 19.9891786896468
520 0 71.4751268373529 79.9893455300884
521 0 25.4595744007345 80.0017895487424
522 0 130.006666760051 19.9881804424427
523 0 105.004707521684 19.9873529758964
524 0 15.0501350347348 29.7778092169092
525 0 60.005209319634 19.9866782691853
526 0 21.6469474709862 74.7509402512408
527 0 180.055540795555 55.0009213890275
528 0 34.9285198834117 19.9510029982162
529 0 140.008030703564 19.9893940150085
530 0 19.9874575248912 24.9559130299121
531 0 180.010264955195 39.9948033273768
532 0 29.9463084964024 19.9562573521676
533 0 60.608405562991 78.0779741372037
534 0 85.0055456545331 19.9863913620895
535 0 95.0047025982904 19.9868146907939
536 0 30.0840445274778 80.1841676651682
537 0 180.003343679061 24.9977725733788
538 0 75.0066310723989 19.9859949653981
539 0 115.002915515592 19.987817610495
540 0 150.006049070823 19.9912335957648
541 0 23.8578604073198 64.8638800522125
542 0 136.49490224098 73.7737638259235
543 0 165.730864046477 74.5752617590841
544 0 151.117868315793 76.8372358232336
545 0 123.702670147978 80.2519879457028
546 0 180.231198251921 75.280610194796
547 0 29.2188255685641 61.0054609372922
548 0 180.202767607643 70.0980801059994
549 0 129.203291324404 80.468762238916
550 0 121.82398024833 70.7167104569983
551 0 105.007456408788 24.981212796623
552 0 135.006943584821 24.9811053436844
553 0 80.0075175585039 24.980819243223
554 0 59.9970163914867 24.9798983666553
555 0 175.05600568839 49.9662285538913
556 0 31.3911130884917 47.0090085586976
557 0 34.8106906144816 24.8186630271269
558 0 28.7225102702813 65.8214440082913
559 0 62.9399456534293 72.6519029194239
560 0 49.9084590666614 24.9959958492287
561 0 125.00159796341 24.9799777738674
562 0 24.9725905205593 24.9372509485368
563 0 175.016938781428 39.9866008376889
564 0 54.5486202043848 74.6975151785457
565 0 145.009991262503 24.9851198378157
566 0 20.0453791125933 29.9218350841382
567 0 151.203596932797 71.8745434384386
568 0 165.702596700179 69.4619983949264
569 0 30.7640305601197 75.753108171486
570 0 84.2549628809809 75.1432415501556
571 0 93.6130354852561 74.6406153869701
572 0 34.8207907653508 52.6388874353848
573 0 22.808017494213 69.7616002002299
574 0 44.3854218158961 74.5218383451635
575 0 75.0696763879317 80.0637064184723
576 0 95.0089784353908 24.9798046580943
577 0 108.638019859841 77.9710361060682
578 0 26.3976314271785 75.2394483220472
579 0 39.9196541927418 19.9575250223125
580 0 165.004204704062 19.9949563652116
581 0 175.007221395081 29.9947514427617
582 0 175.004785521721 24.996228107237
583 0 90.0051956142216 19.9863949499716
584 0 110.005291897515 24.9817585204766
585 0 34.7324627083637 80.2819371523513
586 0 70.007435521692 19.9856049383239
587 0 115.002672299337 24.9817736995903
588 0 155.005353792212 19.9923328865814
589 0 175.002944668233 19.9974091379953
590 0 175.180798472628 59.9729550979805
591 0 141.456042311242 69.8361069037759
592 0 116.907158586066 69.683634873672
593 0 170.512764524462 69.9218217402122
594 0 131.613411304905 72.7621984159475
595 0 19.9294284024795 34.7690444547656
596 0 23.2155047185136 40.5369066839563
597 0 156.05448549559 72.8567418447604
598 0 118.602395782972 79.6506949511936
599 0 34.120971433636 62.0825254978302
600 0 103.607715115583 76.9874076051404
601 0 146.410165804858 65.8857478069987
602 0 121.780063537364 65.8026402429567
603 0 97.706541681836 67.0455769056149
604 0 105.016845810538 29.9705842853454
605 0 36.2325595471796 48.241131790636
606 0 25.679225035578 35.5959760073546
607 0 37.9255812351105 74.2532257875196
608 0 39.7621935200707 24.8761571824927
609 0 160.008493829963 24.9902565329142
610 0 85.0079892395933 24.9799859286159
611 0 170.009931281841 29.9911529100494
612 0 44.2443220613381 69.2424897724072
613 0 67.6111527248683 74.1347897416486
614 0 54.2743440294751 70.2107648636659
615 0 79.362806091866 76.3166676935061
616 0 33.6478064180038 67.0154203920657
617 0 25.1420080970559 29.9012083855566
618 0 27.8829054145377 41.6051972164624
619 0 107.177838079271 67.5840920338208
620 0 39.6462576267622 53.685939180926
621 0 34.3227765791877 76.8592832299929
622 0 54.9648428332451 24.9896854776287
623 0 130.002573466775 24.9789996535246
624 0 100.009242550912 24.9799440628204
625 0 75.0052473006911 24.9817919144657
626 0 44.8075865122516 24.9603136777045
627 0 175.112314394946 54.9527704919751
628 0 88.700283172375 73.1221843076332
629 0 29.9133363868319 24.8425208267439
630 0 175.03129121557 44.9755061934104
631 0 90.0087825677978 24.9794297055348
632 0 57.9231162838828 74.3961475064765
633 0 165.007538536095 24.9921781305578
634 0 140.008468061917 24.9828775258241
635 0 70.0025601375405 24.9808610595073
636 0 110.012014852832 29.9734863295303
637 0 150.009932986561 24.9865942793087
638 0 170.006355466634 24.9941209725133
639 0 64.9995905071121 24.9782201308739
640 0 175.011350677651 34.9911588745649
641 0 120.000609829518 24.9807602391227
642 0 160.902057283685 68.735824151235
643 0 170.422139776386 64.8118463292072
644 0 126.717865854826 71.7450127368774
645 0 112.022761403386 68.6650125777455
646 0 136.565230914923 68.8302595028776
647 0 156.09091276535 67.861269475457
648 0 27.6020043309609 70.5660251939115
649 0 39.0802670761133 63.1772607651531
650 0 98.5538668937243 75.8912841959304
651 0 90.0218978973368 29.9653682951267
652 0 134.967338861249 29.9538688175519
653 0 74.9714044852264 29.9831298005066
654 0 105.069103077604 34.9337268882475
655 0 54.907364357731 29.9815079276738
656 0 170.115208756817 49.865465034644
657 0 40.9101185565903 49.4291658281633
658 0 44.4834096040818 29.9772368068266
659 0 160.846025558158 63.727283629743
660 0 28.8416482636732 38.4261617819073
661 0 144.994979931529 29.9766615860223
662 0 111.945798122076 63.8514617132523
663 0 126.725411661926 66.8260887941804
664 0 30.0291148614867 29.5178749185293
665 0 58.5547641430029 71.0936479549525
666 0 44.1071072803146 64.157035383188
667 0 101.823334109765 65.9266091272258
668 0 44.4660645892722 54.6779040514159
669 0 68.2196545176862 69.1759587632279
670 0 33.9372176039417 41.7948965894509
671 0 72.7374070704792 75.1035707522003
672 0 124.974386944562 29.951314152254
673 0 100.025211713718 29.9651854616649
674 0 170.063896861657 44.9160581973038
675 0 170.017568753369 34.9812248814522
676 0 160.015008322823 29.9831969898901
677 0 155.009654050513 24.9880061923296
678 0 165.01335100327 29.9858115670965
679 0 49.3767817575442 69.7989977453331
680 0 64.9294241318142 29.9508605112878
681 0 119.988707008994 29.9617589292042
682 0 39.2819924871573 29.6842600078237
683 0 115.003460793811 29.9711735167414
684 0 79.9943410270352 29.976659399167
685 0 170.315993206277 59.7763223017092
686 0 151.257892425332 66.891518946161
687 0 38.807288086403 68.3020059863392
688 0 141.525654418103 64.8733071869684
689 0 116.82226340875 64.7995299386062
690 0 131.652621983467 67.8319179669676
691 0 94.170572718278 64.3237998540174
692 0 165.617996954353 64.3658835943759
693 0 32.369530963247 71.7286605118771
694 0 78.6341768719884 70.9683910488349
695 0 126.651706276556 61.9115838749809
696 0 146.512128036983 60.9072307618208
697 0 73.8780941935855 60.5365342487254
698 0 115.062827559711 34.9539635501733
699 0 74.823540927952 34.9631968161533
700 0 116.630870777563 59.9443759221672
701 0 45.671575120889 50.2080050655431
702 0 165.225463623244 49.6501767812008
703 0 38.5647328117587 43.8435457177917
704 0 100.094454178715 34.9158987550385
705 0 155.01416226165 29.9813094252014
706 0 44.0763100177237 35.0552072554256
707 0 32.3919370009955 37.2755386602357
708 0 107.338671877446 63.1031868122572
709 0 98.7063000478043 61.5293196441323
710 0 49.3108637358048 55.6306919386291
711 0 49.7490931102143 30.0112926406468
712 0 124.918748016134 34.8352459173677
713 0 34.5743108503337 29.3374255331833
714 0 63.380339270529 67.9307281536882
715 0 170.215425541522 54.7896041561264
716 0 160.032131206728 34.9597507923972
717 0 150.005130991891 29.980497583318
718 0 95.0297952496997 29.9616447516148
719 0 170.035230945021 39.9544265716578
720 0 165.0280019548 34.9635420684191
721 0 129.957976838147 29.9389278995459
722 0 59.924016627035 29.9435137073953
723 0 139.973527839103 29.9643799132997
724 0 110.073235148099 34.9491798246254
725 0 85.0126999153481 29.9683344056083
726 0 69.9253872989405 29.9694175920331
727 0 136.607448446698 63.8854813639327
728 0 156.077230101745 62.8793137239241
729 0 88.4919937092293 63.6625575634034
730 0 49.0721339219946 64.9847532370822
731 0 83.608352039381 62.6656567031796
732 0 165.502407148792 59.3786257145907
733 0 73.2538239582306 70.2210845834876
734 0 58.6758427235558 66.7415406811895
735 0 84.2272762102941 71.4091134763242
736 0 30.8860913290188 33.5994630935948
737 0 85.0513654951567 34.9327903630633
738 0 59.7460437545146 34.7802131450413
739 0 134.774672250754 34.8492836703037
740 0 144.882489772945 34.9723094635816
741 0 89.7297290354486 59.2630374916192
742 0 64.0393339637334 58.499955582351
743 0 105.240931324605 39.8222544106594
744 0 50.4547330397225 50.936600902115
745 0 49.6501618326445 35.0636661915525
746 0 95.1114185540311 34.9087594290538
747 0 69.6799024999371 34.9024465290101
748 0 155.018010025482 34.9723817680248
749 0 160.093887509066 39.8803516581899
750 0 42.1699034106511 46.3109603549531
751 0 111.725564876712 59.1750795349402
752 0 54.2060106596965 56.5822746909293
753 0 38.3847895718562 39.0331510076993
754 0 129.79900612149 34.7998614408766
755 0 165.132328376331 44.7933778567857
756 0 165.069213310835 39.8998568464185
757 0 165.370668177482 54.4729169769535
758 0 110.255868337534 39.8950860849646
759 0 79.9500775368912 34.9496619780858
760 0 120.028049229537 34.8943481922445
761 0 141.644715486219 59.9143051054187
762 0 121.620128607913 60.9105247786083
763 0 151.311073593474 61.9178925164158
764 0 78.7906152975927 61.6076662072192
765 0 69.0290336980931 59.5033358433694
766 0 131.641579105684 62.9057034524536
767 0 93.2474422871512 60.2848149393296
768 0 37.6271421048305 34.877226203835
769 0 53.9121128645097 65.8001678422622
770 0 160.746842673102 58.7844517628747
771 0 104.030615032046 62.6396854031342
772 0 34.2106163431138 32.4941162288604
773 0 131.650026447963 58.0068258062786
774 0 80.0286287573865 56.9052033397856
775 0 121.440641388101 56.0052789254865
776 0 146.83331966089 55.995154786702
777 0 92.0988415852673 54.4425141117833
778 0 70.2653783966444 54.6785014841259
779 0 129.454991030686 39.3734130708321
780 0 74.4180200617297 39.9130184008304
781 0 55.2953569256865 51.8966498276694
782 0 105.545266590673 44.6301077005986
783 0 46.0857309296803 45.7815786250941
784 0 155.067155183094 39.9867921712595
785 0 116.366908394183 55.1188901220814
786 0 59.1679034445121 57.5415738983759
787 0 50.038968037255 40.063841352685
788 0 54.8147703205102 34.8630643653699
789 0 43.3604052630167 40.7411791515448
790 0 124.956430770527 39.3944915677846
791 0 115.378636711604 39.9565190045711
792 0 90.1059894805218 34.911858568702
793 0 64.6334057659313 34.7975765570613
794 0 149.953728784045 34.9930773480501
795 0 160.447647164631 49.3563355025987
796 0 160.258014569888 44.6815075992424
797 0 79.8615860283103 39.9925527170261
798 0 139.7886314418 34.908003979125
799 0 100.305822331479 39.7748288892149
800 0 156.076755385813 58.0060043125377
801 0 84.9480241170802 58.0552689563801
802 0 136.688397791036 58.9629443210451
803 0 102.664025741788 59.5539645848942
804 0 160.635845173171 54.0100965905089
805 0 106.998519281361 58.8596695418567
806 0 96.0121544639061 58.0585910966156
807 0 139.327885883802 39.7885114932926
808 0 59.3406527078068 39.2563824408321
809 0 136.99447210599 54.1056270764204
810 0 81.5451409938855 52.4625114100267
811 0 121.455561505144 50.9941865652046
812 0 60.2616677413487 52.8499243772285
813 0 149.855141437447 40.134769162296
814 0 69.0739858332366 39.6842563530862
815 0 100.619826337141 44.5321000211117
816 0 106.314190398182 54.2561557467881
817 0 110.590760487711 44.8076457818585
818 0 73.4628218769835 44.9009600578036
819 0 100.32670720641 54.6512895786394
820 0 51.6804836187265 45.3771201826112
821 0 65.2896558292842 53.7395467404642
822 0 128.683099110726 43.4560114984849
823 0 54.8658245484075 39.4154016917319
824 0 90.3463749257255 39.7854917680322
825 0 95.3632094134784 39.7562183386213
826 0 155.410658370977 44.8316952382552
827 0 134.252796203529 39.5342080812711
828 0 120.40076839204 39.7419239775563
829 0 85.2239762055027 39.89438147044
830 0 151.498313097976 57.0596353552504
831 0 126.581003697336 57.0132260596554
832 0 75.2467175235805 55.7781390038534
833 0 86.1906316757996 53.5686482202613
834 0 142.034935273921 55.0166082765182
835 0 111.355228898858 54.5162982434864
836 0 156.145960293596 53.4469443475527
837 0 96.2118186826692 52.5355675777942
838 0 147.682896517051 51.2495383417874
839 0 66.7083788786058 49.0422550469845
840 0 133.455899275607 44.0597752059612
841 0 86.4129644244896 49.1974841185781
842 0 61.6802134026839 48.3232956459099
843 0 131.922579972971 53.2118900786593
844 0 79.8335564161215 45.9701471143456
845 0 95.7281305955983 44.4976527383233
846 0 76.9637581333424 51.1055237744663
847 0 126.798015643656 52.1274291672775
848 0 115.863064331894 45.0528998462654
849 0 125.323369452384 42.5951697413821
850 0 149.918053042789 46.1531788709985
851 0 144.528897852546 40.0455225238425
852 0 64.0195096482774 39.4172826921822
853 0 116.178732775331 50.1722024932719
854 0 142.85294406802 50.157297781864
855 0 91.2639331648203 49.1700033562189
856 0 68.05271140788 44.3779317275097
857 0 56.884511365247 47.3920325011527
858 0 110.992637070913 49.7101602088797
859 0 152.00394201554 52.5744238292949
860 0 90.7786691721687 44.5250242506496
861 0 105.868995288522 49.4773996303661
862 0 155.97265256573 49.2410643329504
863 0 100.82954301252 49.264402382258
864 0 55.1394705494143 42.6092312824726
865 0 122.13352165472 45.1625051789755
866 0 138.540393059349 44.5743464180641
867 0 143.843527397358 45.1751178997055
868 0 71.926489125955 49.9119372842317
869 0 137.703416937744 49.3506737479912
870 0 85.7387131797525 44.7562885239197
871 0 63.0225436868472 43.8739541029953
872 0 132.619911585555 48.565837746192
873 0 58.4172606520649 43.2659608269894
874 0 82.7381936401721 49.3657160416823
875 0 127.655932101527 47.4860221757201
876 0 152.742981012306 49.4498606087941
877 0 96.0248337421232 49.0915475317708
$EndNodes
$Elements
819
1 2 2 1 1 192 62 63 
2 2 2 1 1 63 64 192 
3 2 2 1 1 549 147 148 
4 2 2 1 1 148 149 549 
5 2 2 1 1 371 156 157 
6 2 2 1 1 157 158 371 
7 3 2 1 1 868 818 844 846
8 3 2 1 1 456 447 385 399
9 3 2 1 1 742 786 812 821
10 3 2 1 1 839 821 812 842
11 3 2 1 1 513 577 143 144
12 3 2 1 1 325 154 155 328
13 3 2 1 1 398 149 150 461
14 3 2 1 1 144 145 598 513
15 3 2 1 1 854 867 850 838
16 3 2 1 1 860 845 877 855
17 3 2 1 1 839 856 818 868
18 3 2 1 1 777 833 841 855
19 3 2 1 1 733 669 135 136
20 3 2 1 1 134 135 669 714
21 3 2 1 1 650 571 140 141
22 3 2 1 1 139 140 571 628
23 3 2 1 1 620 572 605 657
24 3 2 1 1 618 660 707 670
25 3 2 1 1 385 249 372 399
26 3 2 1 1 670 753 789 703
27 3 2 1 1 618 596 606 660
28 3 2 1 1 670 707 768 753
29 3 2 1 1 572 514 556 605
30 3 2 1 1 456 541 573 447
31 3 2 1 1 541 558 648 573
32 3 2 1 1 703 789 783 750
33 3 2 1 1 753 768 706 789
34 3 2 1 1 768 772 713 682
35 3 2 1 1 558 616 693 648
36 3 2 1 1 668 620 657 701
37 3 2 1 1 400 250 398 461
38 3 2 1 1 669 733 671 613
39 3 2 1 1 151 400 461 150
40 3 2 1 1 710 668 701 744
41 3 2 1 1 457 401 440 498
42 3 2 1 1 571 650 455 504
43 3 2 1 1 260 374 259 191
44 3 2 1 1 559 665 734 714
45 3 2 1 1 514 457 498 556
46 3 2 1 1 857 873 871 842
47 3 2 1 1 596 515 595 606
48 3 2 1 1 686 601 696 763
49 3 2 1 1 326 258 373 433
50 3 2 1 1 857 781 744 820
51 3 2 1 1 701 783 820 744
52 3 2 1 1 156 302 328 155
53 3 2 1 1 516 570 735 628
54 3 2 1 1 648 578 526 573
55 3 2 1 1 513 598 458 389
56 3 2 1 1 401 326 433 440
57 3 2 1 1 845 860 824 825
58 3 2 1 1 866 807 851 867
59 3 2 1 1 644 550 602 663
60 3 2 1 1 544 435 496 567
61 3 2 1 1 628 571 504 516
62 3 2 1 1 515 495 453 595
63 3 2 1 1 433 515 596 440
64 3 2 1 1 823 788 738 808
65 3 2 1 1 607 499 585 621
66 3 2 1 1 545 549 460 397
67 3 2 1 1 309 261 198 300
68 3 2 1 1 752 710 744 781
69 3 2 1 1 149 398 460 549
70 3 2 1 1 455 415 331 388
71 3 2 1 1 623 561 506 522
72 3 2 1 1 328 196 262 325
73 3 2 1 1 309 327 183 261
74 3 2 1 1 695 762 775 831
75 3 2 1 1 521 536 380 463
76 3 2 1 1 711 658 626 560
77 3 2 1 1 594 644 663 690
78 3 2 1 1 731 764 774 801
79 3 2 1 1 492 544 567 597
80 3 2 1 1 606 595 566 617
81 3 2 1 1 832 846 810 774
82 3 2 1 1 656 555 627 715
83 3 2 1 1 388 331 266 310
84 3 2 1 1 844 874 810 846
85 3 2 1 1 505 464 377 519
86 3 2 1 1 560 519 439 622
87 3 2 1 1 763 696 776 830
88 3 2 1 1 555 508 527 627
89 3 2 1 1 259 6 192 194
90 3 2 1 1 497 538 466 448
91 3 2 1 1 324 329 195 263
92 3 2 1 1 523 438 375 467
93 3 2 1 1 536 521 578 569
94 3 2 1 1 463 380 316 406
95 3 2 1 1 249 385 337 312
96 3 2 1 1 518 482 381 499
97 3 2 1 1 506 393 473 522
98 3 2 1 1 507 525 424 469
99 3 2 1 1 383 311 244 459
100 3 2 1 1 328 302 190 196
101 3 2 1 1 705 717 637 677
102 3 2 1 1 460 398 345 334
103 3 2 1 1 335 334 201 264
104 3 2 1 1 745 711 655 788
105 3 2 1 1 372 249 184 303
106 3 2 1 1 338 384 408 336
107 3 2 1 1 311 332 204 269
108 3 2 1 1 340 280 473 393
109 3 2 1 1 247 330 202 265
110 3 2 1 1 755 796 749 756
111 3 2 1 1 577 513 389 476
112 3 2 1 1 865 848 791 828
113 3 2 1 1 195 329 256 186
114 3 2 1 1 374 260 190 371
115 3 2 1 1 676 678 720 716
116 3 2 1 1 300 198 62 192
117 3 2 1 1 754 721 652 739
118 3 2 1 1 716 720 756 749
119 3 2 1 1 561 623 721 672
120 3 2 1 1 665 559 533 632
121 3 2 1 1 398 250 179 345
122 3 2 1 1 342 170 268 336
123 3 2 1 1 179 201 334 345
124 3 2 1 1 462 382 353 343
125 3 2 1 1 715 757 702 656
126 3 2 1 1 156 371 190 302
127 3 2 1 1 391 339 239 464
128 3 2 1 1 187 113 114 257
129 3 2 1 1 194 192 64 193
130 3 2 1 1 266 331 175 203
131 3 2 1 1 631 610 534 583
132 3 2 1 1 315 319 414 412
133 3 2 1 1 333 272 169 270
134 3 2 1 1 673 624 551 604
135 3 2 1 1 475 528 532 450
136 3 2 1 1 723 652 552 634
137 3 2 1 1 400 434 256 329
138 3 2 1 1 265 175 331 247
139 3 2 1 1 329 324 250 400
140 3 2 1 1 262 186 256 325
141 3 2 1 1 738 793 852 808
142 3 2 1 1 504 478 417 516
143 3 2 1 1 330 247 476 389
144 3 2 1 1 337 275 197 312
145 3 2 1 1 855 841 870 860
146 3 2 1 1 336 268 200 338
147 3 2 1 1 204 332 246 174
148 3 2 1 1 351 354 278 164
149 3 2 1 1 517 459 382 575
150 3 2 1 1 311 383 417 332
151 3 2 1 1 343 271 171 344
152 3 2 1 1 625 635 586 538
153 3 2 1 1 847 843 773 831
154 3 2 1 1 824 792 746 825
155 3 2 1 1 807 827 739 798
156 3 2 1 1 520 462 390 443
157 3 2 1 1 458 397 335 248
158 3 2 1 1 350 215 281 317
159 3 2 1 1 263 179 250 324
160 3 2 1 1 448 466 317 421
161 3 2 1 1 267 206 208 242
162 3 2 1 1 205 353 244 173
163 3 2 1 1 402 403 242 333
164 3 2 1 1 319 364 356 414
165 3 2 1 1 237 349 282 188
166 3 2 1 1 271 343 353 205
167 3 2 1 1 436 529 634 552
168 3 2 1 1 412 414 479 468
169 3 2 1 1 314 341 216 283
170 3 2 1 1 259 194 66 67
171 3 2 1 1 389 458 248 330
172 3 2 1 1 737 759 684 725
173 3 2 1 1 319 315 284 180
174 3 2 1 1 384 444 481 408
175 3 2 1 1 305 413 359 276
176 3 2 1 1 334 335 397 460
177 3 2 1 1 672 681 641 561
178 3 2 1 1 384 338 245 465
179 3 2 1 1 339 313 285 165
180 3 2 1 1 381 355 241 470
181 3 2 1 1 257 185 422 348
182 3 2 1 1 405 377 357 354
183 3 2 1 1 185 257 114 115
184 3 2 1 1 447 419 337 385
185 3 2 1 1 402 442 484 403
186 3 2 1 1 453 495 348 422
187 3 2 1 1 309 432 404 327
188 3 2 1 1 551 584 636 604
189 3 2 1 1 478 388 310 246
190 3 2 1 1 183 327 245 199
191 3 2 1 1 234 301 372 303
192 3 2 1 1 480 423 416 472
193 3 2 1 1 264 178 248 335
194 3 2 1 1 333 270 482 402
195 3 2 1 1 169 209 355 270
196 3 2 1 1 259 67 68 191
197 3 2 1 1 260 191 68 69
198 3 2 1 1 583 534 426 485
199 3 2 1 1 791 698 760 828
200 3 2 1 1 633 638 611 678
201 3 2 1 1 652 723 798 739
202 3 2 1 1 589 511 537 582
203 3 2 1 1 822 779 827 840
204 3 2 1 1 190 260 69 70
205 3 2 1 1 562 472 532 629
206 3 2 1 1 468 479 419 526
207 3 2 1 1 178 202 330 248
208 3 2 1 1 615 575 520 671
209 3 2 1 1 478 504 455 388
210 3 2 1 1 664 629 557 713
211 3 2 1 1 331 415 476 247
212 3 2 1 1 459 517 446 383
213 3 2 1 1 458 598 545 397
214 3 2 1 1 184 110 111 303
215 3 2 1 1 266 174 246 310
216 3 2 1 1 340 286 161 280
217 3 2 1 1 196 190 70 71
218 3 2 1 1 198 261 61 62
219 3 2 1 1 533 443 390 306
220 3 2 1 1 769 734 665 614
221 3 2 1 1 524 453 422 307
222 3 2 1 1 332 417 478 246
223 3 2 1 1 262 196 71 72
224 3 2 1 1 381 470 585 499
225 3 2 1 1 679 614 564 501
226 3 2 1 1 637 565 449 540
227 3 2 1 1 714 669 613 559
228 3 2 1 1 575 615 446 517
229 3 2 1 1 307 274 168 409
230 3 2 1 1 269 173 244 311
231 3 2 1 1 244 353 382 459
232 3 2 1 1 455 650 600 415
233 3 2 1 1 383 446 516 417
234 3 2 1 1 666 730 679 612
235 3 2 1 1 677 637 540 588
236 3 2 1 1 275 337 252 176
237 3 2 1 1 533 559 613 443
238 3 2 1 1 615 694 735 570
239 3 2 1 1 870 829 824 860
240 3 2 1 1 186 262 72 73
241 3 2 1 1 451 320 428 477
242 3 2 1 1 516 446 615 570
243 3 2 1 1 632 564 614 665
244 3 2 1 1 581 611 638 582
245 3 2 1 1 528 475 391 579
246 3 2 1 1 465 548 444 384
247 3 2 1 1 184 249 312 197
248 3 2 1 1 378 318 240 474
249 3 2 1 1 482 518 442 402
250 3 2 1 1 476 415 600 577
251 3 2 1 1 307 409 454 524
252 3 2 1 1 278 354 357 213
253 3 2 1 1 195 186 73 74
254 3 2 1 1 453 524 566 595
255 3 2 1 1 344 267 306 390
256 3 2 1 1 316 273 167 406
257 3 2 1 1 499 607 574 518
258 3 2 1 1 569 621 585 536
259 3 2 1 1 653 625 553 684
260 3 2 1 1 626 658 682 608
261 3 2 1 1 524 454 530 566
262 3 2 1 1 508 474 420 527
263 3 2 1 1 462 520 575 382
264 3 2 1 1 468 521 463 412
265 3 2 1 1 375 314 277 467
266 3 2 1 1 354 351 424 405
267 3 2 1 1 607 621 569 693
268 3 2 1 1 336 408 420 342
269 3 2 1 1 347 287 160 251
270 3 2 1 1 263 195 74 75
271 3 2 1 1 698 724 636 683
272 3 2 1 1 215 350 238 214
273 3 2 1 1 206 267 344 171
274 3 2 1 1 586 635 639 507
275 3 2 1 1 526 578 521 468
276 3 2 1 1 450 418 313 475
277 3 2 1 1 403 484 533 306
278 3 2 1 1 276 218 219 236
279 3 2 1 1 393 407 236 340
280 3 2 1 1 651 631 576 718
281 3 2 1 1 442 501 564 484
282 3 2 1 1 352 288 226 318
283 3 2 1 1 179 263 75 76
284 3 2 1 1 267 242 403 306
285 3 2 1 1 579 608 557 528
286 3 2 1 1 606 617 664 736
287 3 2 1 1 197 109 110 184
288 3 2 1 1 349 237 485 426
289 3 2 1 1 216 341 237 188
290 3 2 1 1 199 59 60 183
291 3 2 1 1 261 183 60 61
292 3 2 1 1 170 342 240 207
293 3 2 1 1 314 375 425 341
294 3 2 1 1 279 221 222 235
295 3 2 1 1 194 193 65 66
296 3 2 1 1 481 590 627 527
297 3 2 1 1 511 589 387 486
298 3 2 1 1 272 333 242 208
299 3 2 1 1 355 381 482 270
300 3 2 1 1 199 245 338 200
301 3 2 1 1 807 866 840 827
302 3 2 1 1 274 307 422 185
303 3 2 1 1 678 676 609 633
304 3 2 1 1 501 574 612 679
305 3 2 1 1 162 217 359 277
306 3 2 1 1 639 635 726 680
307 3 2 1 1 608 579 505 626
308 3 2 1 1 641 681 683 587
309 3 2 1 1 210 241 355 209
310 3 2 1 1 788 823 787 745
311 3 2 1 1 471 539 587 584
312 3 2 1 1 413 305 539 471
313 3 2 1 1 179 76 77 201
314 3 2 1 1 264 201 77 78
315 3 2 1 1 757 804 795 702
316 3 2 1 1 480 530 454 392
317 3 2 1 1 178 264 78 79
318 3 2 1 1 364 293 224 356
319 3 2 1 1 161 220 360 280
320 3 2 1 1 200 58 59 199
321 3 2 1 1 470 241 316 380
322 3 2 1 1 274 185 115 116
323 3 2 1 1 474 508 441 378
324 3 2 1 1 202 178 79 80
325 3 2 1 1 518 574 501 442
326 3 2 1 1 411 410 540 449
327 3 2 1 1 563 531 441 630
328 3 2 1 1 410 411 235 347
329 3 2 1 1 590 685 715 627
330 3 2 1 1 509 483 427 531
331 3 2 1 1 265 202 80 81
332 3 2 1 1 756 719 674 755
333 3 2 1 1 675 640 563 719
334 3 2 1 1 671 733 694 615
335 3 2 1 1 469 424 351 238
336 3 2 1 1 320 358 223 290
337 3 2 1 1 409 346 392 454
338 3 2 1 1 586 507 469 376
339 3 2 1 1 588 540 410 487
340 3 2 1 1 175 265 81 82
341 3 2 1 1 380 536 585 470
342 3 2 1 1 711 745 706 658
343 3 2 1 1 318 378 427 352
344 3 2 1 1 421 317 281 163
345 3 2 1 1 797 780 699 759
346 3 2 1 1 793 738 722 680
347 3 2 1 1 581 452 509 640
348 3 2 1 1 273 316 241 210
349 3 2 1 1 725 684 553 610
350 3 2 1 1 412 463 406 315
351 3 2 1 1 779 790 712 754
352 3 2 1 1 472 416 450 532
353 3 2 1 1 534 497 448 426
354 3 2 1 1 792 737 725 651
355 3 2 1 1 528 557 629 532
356 3 2 1 1 386 363 243 483
357 3 2 1 1 418 450 416 362
358 3 2 1 1 362 289 211 418
359 3 2 1 1 175 82 83 203
360 3 2 1 1 266 203 83 84
361 3 2 1 1 624 576 535 438
362 3 2 1 1 658 706 768 682
363 3 2 1 1 722 655 622 554
364 3 2 1 1 792 824 829 737
365 3 2 1 1 794 740 661 717
366 3 2 1 1 562 617 566 530
367 3 2 1 1 174 266 84 85
368 3 2 1 1 683 681 760 698
369 3 2 1 1 758 743 654 724
370 3 2 1 1 423 365 362 416
371 3 2 1 1 814 780 818 856
372 3 2 1 1 584 551 523 471
373 3 2 1 1 655 722 738 788
374 3 2 1 1 740 798 723 661
375 3 2 1 1 404 546 548 465
376 3 2 1 1 641 587 539 437
377 3 2 1 1 851 807 798 740
378 3 2 1 1 346 366 361 392
379 3 2 1 1 780 814 747 699
380 3 2 1 1 204 174 85 86
381 3 2 1 1 749 784 748 716
382 3 2 1 1 661 723 634 565
383 3 2 1 1 212 213 357 239
384 3 2 1 1 640 675 611 581
385 3 2 1 1 377 405 439 519
386 3 2 1 1 716 748 705 676
387 3 2 1 1 608 682 713 557
388 3 2 1 1 269 204 86 87
389 3 2 1 1 674 630 555 656
390 3 2 1 1 552 623 522 436
391 3 2 1 1 164 214 238 351
392 3 2 1 1 538 497 553 625
393 3 2 1 1 472 562 530 480
394 3 2 1 1 238 350 376 469
395 3 2 1 1 554 639 680 722
396 3 2 1 1 529 436 394 304
397 3 2 1 1 865 828 790 849
398 3 2 1 1 405 424 525 439
399 3 2 1 1 239 357 377 464
400 3 2 1 1 652 721 623 552
401 3 2 1 1 200 268 57 58
402 3 2 1 1 173 269 87 88
403 3 2 1 1 719 756 720 675
404 3 2 1 1 327 404 465 245
405 3 2 1 1 799 743 782 815
406 3 2 1 1 466 538 586 376
407 3 2 1 1 439 525 554 622
408 3 2 1 1 560 622 655 711
409 3 2 1 1 583 535 576 631
410 3 2 1 1 421 349 426 448
411 3 2 1 1 858 861 782 817
412 3 2 1 1 673 604 654 704
413 3 2 1 1 205 173 88 89
414 3 2 1 1 350 317 466 376
415 3 2 1 1 525 507 639 554
416 3 2 1 1 438 523 551 624
417 3 2 1 1 282 349 421 163
418 3 2 1 1 346 409 168 295
419 3 2 1 1 271 205 89 90
420 3 2 1 1 341 425 485 237
421 3 2 1 1 165 212 239 339
422 3 2 1 1 631 651 725 610
423 3 2 1 1 497 534 610 553
424 3 2 1 1 467 413 471 523
425 3 2 1 1 841 874 844 870
426 3 2 1 1 726 653 699 747
427 3 2 1 1 171 271 90 91
428 3 2 1 1 795 862 826 796
429 3 2 1 1 676 705 677 609
430 3 2 1 1 375 438 535 425
431 3 2 1 1 283 162 277 314
432 3 2 1 1 780 797 844 818
433 3 2 1 1 759 737 829 797
434 3 2 1 1 629 664 617 562
435 3 2 1 1 288 352 243 166
436 3 2 1 1 339 391 475 313
437 3 2 1 1 359 413 467 277
438 3 2 1 1 206 171 91 92
439 3 2 1 1 743 799 704 654
440 3 2 1 1 500 580 633 609
441 3 2 1 1 423 480 392 361
442 3 2 1 1 407 437 539 305
443 3 2 1 1 218 276 359 217
444 3 2 1 1 208 206 92 93
445 3 2 1 1 207 240 318 226
446 3 2 1 1 473 394 436 522
447 3 2 1 1 625 653 726 635
448 3 2 1 1 337 419 479 252
449 3 2 1 1 712 790 828 760
450 3 2 1 1 276 236 407 305
451 3 2 1 1 604 636 724 654
452 3 2 1 1 320 451 379 358
453 3 2 1 1 506 561 641 437
454 3 2 1 1 483 509 452 386
455 3 2 1 1 584 587 683 636
456 3 2 1 1 272 208 93 94
457 3 2 1 1 865 849 822 875
458 3 2 1 1 464 505 579 391
459 3 2 1 1 360 279 304 394
460 3 2 1 1 743 758 817 782
461 3 2 1 1 796 755 702 795
462 3 2 1 1 565 634 529 449
463 3 2 1 1 724 698 791 758
464 3 2 1 1 286 340 236 219
465 3 2 1 1 169 272 94 95
466 3 2 1 1 221 279 360 220
467 3 2 1 1 268 170 56 57
468 3 2 1 1 207 55 56 170
469 3 2 1 1 393 506 437 407
470 3 2 1 1 209 169 95 96
471 3 2 1 1 280 360 394 473
472 3 2 1 1 479 414 356 252
473 3 2 1 1 624 673 718 576
474 3 2 1 1 653 684 759 699
475 3 2 1 1 210 209 96 97
476 3 2 1 1 511 488 429 537
477 3 2 1 1 273 210 97 98
478 3 2 1 1 321 296 227 363
479 3 2 1 1 784 749 796 826
480 3 2 1 1 167 273 98 99
481 3 2 1 1 609 677 588 500
482 3 2 1 1 449 529 304 411
483 3 2 1 1 565 637 717 661
484 3 2 1 1 364 319 180 292
485 3 2 1 1 678 611 675 720
486 3 2 1 1 794 748 784 813
487 3 2 1 1 284 167 99 100
488 3 2 1 1 717 705 748 794
489 3 2 1 1 168 274 116 117
490 3 2 1 1 112 234 303 111
491 3 2 1 1 813 784 826 850
492 3 2 1 1 342 420 474 240
493 3 2 1 1 284 315 406 167
494 3 2 1 1 252 356 224 176
495 3 2 1 1 851 813 850 867
496 3 2 1 1 533 484 564 632
497 3 2 1 1 740 794 813 851
498 3 2 1 1 287 347 235 222
499 3 2 1 1 279 235 411 304
500 3 2 1 1 573 526 419 447
501 3 2 1 1 347 251 487 410
502 3 2 1 1 500 588 487 379
503 3 2 1 1 197 275 108 109
504 3 2 1 1 451 477 510 580
505 3 2 1 1 638 633 580 510
506 3 2 1 1 408 481 527 420
507 3 2 1 1 343 344 390 462
508 3 2 1 1 361 253 365 423
509 3 2 1 1 519 560 626 505
510 3 2 1 1 582 537 452 581
511 3 2 1 1 582 638 510 589
512 3 2 1 1 443 613 671 520
513 3 2 1 1 212 165 14 15
514 3 2 1 1 363 386 429 321
515 3 2 1 1 285 313 418 211
516 3 2 1 1 789 706 745 787
517 3 2 1 1 213 212 15 16
518 3 2 1 1 278 213 16 17
519 3 2 1 1 672 712 760 681
520 3 2 1 1 164 278 17 18
521 3 2 1 1 289 362 365 230
522 3 2 1 1 214 164 18 19
523 3 2 1 1 428 320 290 172
524 3 2 1 1 444 502 590 481
525 3 2 1 1 580 500 379 451
526 3 2 1 1 352 427 483 243
527 3 2 1 1 215 214 19 20
528 3 2 1 1 281 215 20 21
529 3 2 1 1 163 281 21 22
530 3 2 1 1 282 163 22 23
531 3 2 1 1 367 368 323 395
532 3 2 1 1 253 361 366 291
533 3 2 1 1 188 282 23 24
534 3 2 1 1 387 477 428 322
535 3 2 1 1 378 441 531 427
536 3 2 1 1 188 24 25 216
537 3 2 1 1 283 216 25 26
538 3 2 1 1 793 747 814 852
539 3 2 1 1 508 555 630 441
540 3 2 1 1 162 283 26 27
541 3 2 1 1 180 284 100 101
542 3 2 1 1 165 285 13 14
543 3 2 1 1 217 162 27 28
544 3 2 1 1 218 217 28 29
545 3 2 1 1 531 563 640 509
546 3 2 1 1 207 226 54 55
547 3 2 1 1 218 29 30 219
548 3 2 1 1 286 219 30 31
549 3 2 1 1 630 674 719 563
550 3 2 1 1 161 286 31 32
551 3 2 1 1 220 161 32 33
552 3 2 1 1 221 220 33 34
553 3 2 1 1 222 221 34 35
554 3 2 1 1 680 726 747 793
555 3 2 1 1 287 222 35 36
556 3 2 1 1 502 643 685 590
557 3 2 1 1 160 287 36 37
558 3 2 1 1 223 160 37 38
559 3 2 1 1 488 511 486 395
560 3 2 1 1 721 754 712 672
561 3 2 1 1 487 251 358 379
562 3 2 1 1 825 799 815 845
563 3 2 1 1 656 702 755 674
564 3 2 1 1 486 387 322 254
565 3 2 1 1 243 363 227 166
566 3 2 1 1 293 364 292 233
567 3 2 1 1 746 704 799 825
568 3 2 1 1 285 211 12 13
569 3 2 1 1 386 452 537 429
570 3 2 1 1 477 387 589 510
571 3 2 1 1 291 297 177 253
572 3 2 1 1 485 425 535 583
573 3 2 1 1 172 294 322 428
574 3 2 1 1 346 295 225 366
575 3 2 1 1 290 223 38 39
576 3 2 1 1 160 223 358 251
577 3 2 1 1 321 429 488 255
578 3 2 1 1 230 365 253 177
579 3 2 1 1 296 321 255 181
580 3 2 1 1 829 870 844 797
581 3 2 1 1 779 822 849 790
582 3 2 1 1 791 848 817 758
583 3 2 1 1 226 288 53 54
584 3 2 1 1 211 289 11 12
585 3 2 1 1 254 322 294 182
586 3 2 1 1 395 486 254 367
587 3 2 1 1 225 189 291 366
588 3 2 1 1 368 299 229 323
589 3 2 1 1 172 290 39 40
590 3 2 1 1 368 367 228 298
591 3 2 1 1 292 180 101 102
592 3 2 1 1 488 395 323 255
593 3 2 1 1 224 106 107 176
594 3 2 1 1 275 176 107 108
595 3 2 1 1 754 739 827 779
596 3 2 1 1 289 230 10 11
597 3 2 1 1 297 291 189 231
598 3 2 1 1 254 182 228 367
599 3 2 1 1 255 323 229 181
600 3 2 1 1 718 673 704 746
601 3 2 1 1 294 172 40 41
602 3 2 1 1 651 718 746 792
603 3 2 1 1 295 168 117 118
604 3 2 1 1 224 293 105 106
605 3 2 1 1 182 294 41 42
606 3 2 1 1 225 295 118 119
607 3 2 1 1 227 51 52 166
608 3 2 1 1 288 166 52 53
609 3 2 1 1 299 368 298 232
610 3 2 1 1 227 296 50 51
611 3 2 1 1 228 182 42 43
612 3 2 1 1 229 48 49 181
613 3 2 1 1 296 181 49 50
614 3 2 1 1 298 228 43 44
615 3 2 1 1 230 177 9 10
616 3 2 1 1 872 840 866 869
617 3 2 1 1 177 297 8 9
618 3 2 1 1 229 299 47 48
619 3 2 1 1 225 119 120 189
620 3 2 1 1 231 189 120 121
621 3 2 1 1 297 231 7 8
622 3 2 1 1 231 121 1 7
623 3 2 1 1 193 64 3 65
624 3 2 1 1 298 44 45 232
625 3 2 1 1 292 102 103 233
626 3 2 1 1 299 232 46 47
627 3 2 1 1 293 233 104 105
628 3 2 1 1 2 46 232 45
629 3 2 1 1 4 104 233 103
630 3 2 1 1 685 732 757 715
631 3 2 1 1 643 692 732 685
632 3 2 1 1 593 568 692 643
633 3 2 1 1 700 751 835 785
634 3 2 1 1 801 833 777 741
635 3 2 1 1 578 648 693 569
636 3 2 1 1 802 761 688 727
637 3 2 1 1 872 869 809 843
638 3 2 1 1 667 709 803 771
639 3 2 1 1 834 776 696 761
640 3 2 1 1 775 785 853 811
641 3 2 1 1 646 690 766 727
642 3 2 1 1 489 542 646 591
643 3 2 1 1 496 591 688 601
644 3 2 1 1 785 835 858 853
645 3 2 1 1 503 597 647 642
646 3 2 1 1 776 834 854 838
647 3 2 1 1 821 839 868 778
648 3 2 1 1 662 708 805 751
649 3 2 1 1 762 695 663 602
650 3 2 1 1 708 771 803 805
651 3 2 1 1 865 875 847 811
652 3 2 1 1 843 847 875 872
653 3 2 1 1 768 707 736 772
654 3 2 1 1 647 686 763 728
655 3 2 1 1 659 728 800 770
656 3 2 1 1 761 802 809 834
657 3 2 1 1 692 659 770 732
658 3 2 1 1 5 122 234 112
659 3 2 1 1 542 489 150 149
660 3 2 1 1 644 594 148 147
661 3 2 1 1 645 592 145 144
662 3 2 1 1 667 619 143 142
663 3 2 1 1 808 873 864 823
664 3 2 1 1 729 691 140 139
665 3 2 1 1 689 602 550 592
666 3 2 1 1 764 731 138 137
667 3 2 1 1 591 496 435 489
668 3 2 1 1 765 697 136 135
669 3 2 1 1 786 742 134 133
670 3 2 1 1 713 772 736 664
671 3 2 1 1 544 492 153 152
672 3 2 1 1 543 491 308 430
673 3 2 1 1 158 493 432 369
674 3 2 1 1 151 150 489 435
675 3 2 1 1 149 148 594 542
676 3 2 1 1 146 145 592 550
677 3 2 1 1 144 143 619 645
678 3 2 1 1 490 430 155 154
679 3 2 1 1 139 138 731 729
680 3 2 1 1 135 134 742 765
681 3 2 1 1 593 512 445 491
682 3 2 1 1 154 153 492 490
683 3 2 1 1 806 709 691 767
684 3 2 1 1 156 155 430 308
685 3 2 1 1 838 859 830 776
686 3 2 1 1 192 6 159 300
687 3 2 1 1 592 645 662 689
688 3 2 1 1 430 490 503 543
689 3 2 1 1 491 543 568 593
690 3 2 1 1 158 369 300 159
691 3 2 1 1 709 806 819 803
692 3 2 1 1 300 369 432 309
693 3 2 1 1 761 696 601 688
694 3 2 1 1 830 800 728 763
695 3 2 1 1 601 686 567 496
696 3 2 1 1 727 688 591 646
697 3 2 1 1 751 700 689 662
698 3 2 1 1 690 646 542 594
699 3 2 1 1 708 662 645 619
700 3 2 1 1 801 741 729 731
701 3 2 1 1 821 778 765 742
702 3 2 1 1 642 568 543 503
703 3 2 1 1 602 689 700 762
704 3 2 1 1 546 404 432 493
705 3 2 1 1 597 503 490 492
706 3 2 1 1 691 729 741 767
707 3 2 1 1 697 765 778 832
708 3 2 1 1 774 810 833 801
709 3 2 1 1 122 123 301 234
710 3 2 1 1 874 841 833 810
711 3 2 1 1 619 667 771 708
712 3 2 1 1 832 774 764 697
713 3 2 1 1 785 775 762 700
714 3 2 1 1 491 445 396 308
715 3 2 1 1 546 493 396 445
716 3 2 1 1 831 773 766 695
717 3 2 1 1 727 766 773 802
718 3 2 1 1 728 659 642 647
719 3 2 1 1 568 642 659 692
720 3 2 1 1 686 647 597 567
721 3 2 1 1 869 854 834 809
722 3 2 1 1 843 809 802 773
723 3 2 1 1 123 124 370 301
724 3 2 1 1 806 767 741 777
725 3 2 1 1 399 372 301 370
726 3 2 1 1 751 805 816 835
727 3 2 1 1 124 125 431 370
728 3 2 1 1 257 373 258 187
729 3 2 1 1 867 854 869 866
730 3 2 1 1 786 752 781 812
731 3 2 1 1 125 126 494 431
732 3 2 1 1 370 431 456 399
733 3 2 1 1 515 433 348 495
734 3 2 1 1 126 127 547 494
735 3 2 1 1 846 832 778 868
736 3 2 1 1 816 819 863 861
737 3 2 1 1 815 782 861 863
738 3 2 1 1 494 547 558 541
739 3 2 1 1 145 146 545 598
740 3 2 1 1 431 494 541 456
741 3 2 1 1 547 599 616 558
742 3 2 1 1 612 687 649 666
743 3 2 1 1 811 847 831 775
744 3 2 1 1 599 649 687 616
745 3 2 1 1 839 842 871 856
746 3 2 1 1 127 128 599 547
747 3 2 1 1 128 129 649 599
748 3 2 1 1 129 130 666 649
749 3 2 1 1 158 157 396 493
750 3 2 1 1 130 131 730 666
751 3 2 1 1 781 857 842 812
752 3 2 1 1 614 679 730 769
753 3 2 1 1 783 701 657 750
754 3 2 1 1 605 703 750 657
755 3 2 1 1 703 605 556 670
756 3 2 1 1 691 603 141 140
757 3 2 1 1 550 644 147 146
758 3 2 1 1 714 734 133 134
759 3 2 1 1 628 735 138 139
760 3 2 1 1 697 764 137 136
761 3 2 1 1 435 544 152 151
762 3 2 1 1 735 694 137 138
763 3 2 1 1 734 769 132 133
764 3 2 1 1 577 600 142 143
765 3 2 1 1 549 545 146 147
766 3 2 1 1 133 132 752 786
767 3 2 1 1 308 396 157 156
768 3 2 1 1 400 151 152 434
769 3 2 1 1 800 830 859 836
770 3 2 1 1 132 131 710 752
771 3 2 1 1 113 187 122 5
772 3 2 1 1 371 158 159 374
773 3 2 1 1 131 130 668 710
774 3 2 1 1 130 129 620 668
775 3 2 1 1 125 124 326 401
776 3 2 1 1 124 123 258 326
777 3 2 1 1 732 770 804 757
778 3 2 1 1 667 603 691 709
779 3 2 1 1 129 128 572 620
780 3 2 1 1 850 876 859 838
781 3 2 1 1 131 132 769 730
782 3 2 1 1 836 859 876 862
783 3 2 1 1 707 660 606 736
784 3 2 1 1 770 800 836 804
785 3 2 1 1 862 795 804 836
786 3 2 1 1 840 872 875 822
787 3 2 1 1 670 556 498 618
788 3 2 1 1 440 596 618 498
789 3 2 1 1 817 848 853 858
790 3 2 1 1 811 853 848 865
791 3 2 1 1 127 126 457 514
792 3 2 1 1 126 125 401 457
793 3 2 1 1 861 858 835 816
794 3 2 1 1 695 766 690 663
795 3 2 1 1 136 137 694 733
796 3 2 1 1 257 348 433 373
797 3 2 1 1 123 122 187 258
798 3 2 1 1 6 259 374 159
799 3 2 1 1 141 142 600 650
800 3 2 1 1 819 816 805 803
801 3 2 1 1 142 141 603 667
802 3 2 1 1 128 127 514 572
803 3 2 1 1 820 864 873 857
804 3 2 1 1 814 856 871 852
805 3 2 1 1 777 837 819 806
806 3 2 1 1 445 512 548 546
807 3 2 1 1 845 815 863 877
808 3 2 1 1 819 837 877 863
809 3 2 1 1 777 855 877 837
810 3 2 1 1 850 826 862 876
811 3 2 1 1 852 871 873 808
812 3 2 1 1 154 325 256 153
813 3 2 1 1 152 153 256 434
814 3 2 1 1 444 548 512 502
815 3 2 1 1 643 502 512 593
816 3 2 1 1 574 607 687 612
817 3 2 1 1 616 687 607 693
818 3 2 1 1 789 787 820 783
819 3 2 1 1 823 864 820 787
$EndElements
