$MeshFormat
2.2 0 8
$EndMeshFormat
$Nodes
861
1 0 0 0
2 0 200 0
3 0 200 100
4 0 80 100
5 0 50 100
6 0 20 100
7 0 0 100
8 0 5 0
9 0 10 0
10 0 15 0
11 0 20 0
12 0 25 0
13 0 30 0
14 0 35 0
15 0 40 0
16 0 45 0
17 0 50 0
18 0 55 0
19 0 60 0
20 0 65 0
21 0 70 0
22 0 75 0
23 0 80 0
24 0 85 0
25 0 90 0
26 0 95 0
27 0 100 0
28 0 105 0
29 0 110 0
30 0 115 0
31 0 120 0
32 0 125 0
33 0 130 0
34 0 135 0
35 0 140 0
36 0 145 0
37 0 150 0
38 0 155 0
39 0 160 0
40 0 165 0
41 0 170 0
42 0 175 0
43 0 180 0
44 0 185 0
45 0 190 0
46 0 195 0
47 0 200 5
48 0 200 10
49 0 200 15
50 0 200 20
51 0 200 25
52 0 200 30
53 0 200 35
54 0 200 40
55 0 200 45
56 0 200 50
57 0 200 55
58 0 200 60
59 0 200 65
60 0 200 70
61 0 200 75
62 0 200 80
63 0 200 85
64 0 200 90
65 0 200 95
66 0 195 100
67 0 190 100
68 0 185 100
69 0 180 100
70 0 175 100
71 0 170 100
72 0 165 100
73 0 160 100
74 0 155 100
75 0 150 100
76 0 145 100
77 0 140 100
78 0 135 100
79 0 130 100
80 0 125 100
81 0 120 100
82 0 115 100
83 0 110 100
84 0 105 100
85 0 100 100
86 0 95 100
87 0 90 100
88 0 85 100
89 0 75 100
90 0 70 100
91 0 65 100
92 0 60 100
93 0 55 100
94 0 45 100
95 0 40 100
96 0 35 100
97 0 30 100
98 0 25 100
99 0 15 100
100 0 10 100
101 0 5 100
102 0 0 95
103 0 0 90
104 0 0 85
105 0 0 80
106 0 0 75
107 0 0 70
108 0 0 65
109 0 0 60
110 0 0 55
111 0 0 50
112 0 0 45
113 0 0 40
114 0 0 35
115 0 0 30
116 0 0 25
117 0 0 20
118 0 0 15
119 0 0 10
120 0 0 5
121 0 145 4.99999999999999
122 0 85 5
123 0 115 5
124 0 60 5
125 0 89.9999886727996 95.0000119850374
126 0 150 95
127 0 119.999985168205 94.9999973635682
128 0 55 95
129 0 5 40
130 0 195 40
131 0 5 60
132 0 195 65
133 0 170 5
134 0 30 5
135 0 35 95
136 0 180 95
137 0 5 75
138 0 5 20
139 0 195 25
140 0 20 95
141 0 180 5
142 0 195 90
143 0 10 5
144 0 195 15
145 0 5 85
146 0 109.999903593334 94.9999828631935
147 0 80 95
148 0 70 5
149 0 195 55
150 0 40 5
151 0 95 5
152 0 155 5
153 0 170 95
154 0 140 95
155 0 125 5
156 0 195 5
157 0 10 95
158 0 135 5
159 0 160 5
160 0 99.9999701330561 95.0000086894976
161 0 105 5
162 0 130 95
163 0 5 10
164 0 195 85
165 0 75 5
166 0 195 95
167 0 75 95
168 0 5 45
169 0 15 5
170 0 20 5
171 0 45 5
172 0 50 5
173 0 195 50
174 0 195 75
175 0 70 95
176 0 30 95
177 0 5 30
178 0 185 5
179 0 195 35
180 0 50 95
181 0 5 5
182 0 190 95
183 0 165 95
184 0 160 95
185 0 65 95
186 0 45 95
187 0 5 95
188 0 5 50
189 0 5 65
190 0 79.9999407817789 90.000111355582
191 0 55 90
192 0 70 10
193 0 45 10
194 0 190 55
195 0 155 9.99999999999999
196 0 190 40
197 0 10 40
198 0 170 90
199 0 10 60
200 0 35 90
201 0 69.9999996221703 90.0000008908482
202 0 15 10
203 0 180 10
204 0 140 4.99999999999999
205 0 165 5
206 0 114.999923060065 94.9999863235102
207 0 80 5
208 0 104.999919326697 94.9999874096974
209 0 84.9999948829611 95.0000084578535
210 0 100 5
211 0 150 5
212 0 10 10
213 0 190 90
214 0 65 5
215 0 190 5
216 0 195 10
217 0 90 5
218 0 130 5
219 0 195 60
220 0 124.999998146026 94.999999670446
221 0 94.9999703423568 95.0000262248376
222 0 5 15
223 0 110 5
224 0 55 5
225 0 135 95
226 0 35 5
227 0 195 45
228 0 195 70
229 0 5 25
230 0 25 5
231 0 120 5
232 0 195 20
233 0 185 95
234 0 145 95
235 0 60 95
236 0 25 95
237 0 5 35
238 0 165 90
239 0 195 30
240 0 5 70
241 0 5 55
242 0 10 45
243 0 175 95
244 0 155 95
245 0 40 95
246 0 15 95
247 0 5 90
248 0 5 80
249 0 50 90
250 0 195 80
251 0 175 5
252 0 130 10
253 0 104.996878091091 89.999466917944
254 0 124.999997668048 89.9999995854829
255 0 90 9.99999999999999
256 0 55 85
257 0 15 40
258 0 170 85
259 0 190 75
260 0 150 90
261 0 105 10
262 0 10 75
263 0 25 90
264 0 145 9.99999999999998
265 0 89.998920437094 90.0006909503769
266 0 60 10
267 0 190 85
268 0 115 10
269 0 190 45
270 0 134.999999985516 89.9999999974254
271 0 10 25
272 0 25 10
273 0 185 10
274 0 64.9999999527713 90.000000111356
275 0 190 25
276 0 190 35
277 0 10 50
278 0 45 90
279 0 170 10
280 0 140 9.99999999999999
281 0 119.999888338456 89.999965555167
282 0 160 10
283 0 84.9995701646522 90.0004940633591
284 0 150 9.99999999999999
285 0 65 10
286 0 80 10
287 0 95 9.99999999999999
288 0 40 10
289 0 190 60
290 0 99.9963413285594 89.9998958891964
291 0 74.9999887721963 90.0000229392853
292 0 190 50
293 0 190 70
294 0 30 10
295 0 10 35
296 0 10 15
297 0 180 90
298 0 185 90
299 0 190 15
300 0 145 90
301 0 120 10
302 0 20 10
303 0 50 10
304 0 160 90
305 0 59.9999999940964 90.0000000139195
306 0 175 90
307 0 190 10
308 0 10 65
309 0 10 55
310 0 20 90
311 0 15 90
312 0 10 85
313 0 114.999352821244 89.9997614076487
314 0 10 90
315 0 75 10
316 0 30 90
317 0 40 90
318 0 175 10
319 0 145 15
320 0 119.999724644744 84.9990630956584
321 0 90.0079785853036 85.0079520200844
322 0 115 15
323 0 90 15
324 0 150 85
325 0 65 15
326 0 185 45
327 0 15 55
328 0 45 15
329 0 35 85
330 0 25 15
331 0 70.0001062545767 85.0000282895724
332 0 185 75
333 0 170 15
334 0 15 35
335 0 60.0000005970281 85.0000001377923
336 0 15 45
337 0 25 85
338 0 150 15
339 0 85 9.99999999999999
340 0 155 15
341 0 109.99772018604 89.9993864504806
342 0 125 10
343 0 100 10
344 0 110 10
345 0 190 80
346 0 129.99999944598 89.99999990152
347 0 35 10
348 0 190 65
349 0 80.002649075409 85.0012279916359
350 0 185 55
351 0 175 15
352 0 10 30
353 0 10 20
354 0 139.999999998189 89.9999999996782
355 0 185 15
356 0 185 40
357 0 15 60
358 0 190 20
359 0 165 85
360 0 155 90
361 0 180 85
362 0 175 85
363 0 185 85
364 0 70 15
365 0 190 30
366 0 50 85
367 0 135 10
368 0 10 70
369 0 10 80
370 0 45 85
371 0 15 85
372 0 165 10
373 0 94.9977191487728 90.0009425996087
374 0 55 10
375 0 80 15
376 0 15 15
377 0 145 19.9999999999999
378 0 65 20
379 0 60.0000043810843 80.0000009069852
380 0 180 45
381 0 20 35
382 0 20 55
383 0 170 20
384 0 170 80
385 0 185 30
386 0 130 15
387 0 120 15
388 0 155 85
389 0 50 80
390 0 15 70
391 0 165 15
392 0 114.998570143228 84.997525759395
393 0 85 15
394 0 150 19.9999999999999
395 0 60 15
396 0 50 15
397 0 99.9957052459973 85.0021531019511
398 0 95.0066256318862 85.0087446991622
399 0 105 15
400 0 95 15
401 0 40 15
402 0 30 15
403 0 185 50
404 0 110 15
405 0 185 65
406 0 160 85
407 0 185 80
408 0 180 80
409 0 180 15
410 0 104.992492343359 84.9973164878725
411 0 15 20
412 0 15 30
413 0 65.0000196075599 85.000004971501
414 0 185 20
415 0 85.0078706633719 85.0050014966724
416 0 185 70
417 0 20 15
418 0 124.999948925472 84.9996068045348
419 0 134.999999900824 84.9999934235992
420 0 140 15
421 0 185 60
422 0 75.0009206251803 85.0003138286677
423 0 144.999999999774 84.9999999999598
424 0 20 40
425 0 15 50
426 0 15 75
427 0 185 35
428 0 15 65
429 0 20 85
430 0 30 85
431 0 40 85
432 0 15 80
433 0 75 15
434 0 160 15
435 0 115 20
436 0 90.0720405161123 80.0407222684562
437 0 115.000861665188 79.9892881805411
438 0 145 24.9999999999999
439 0 85 20
440 0 149.99999999997 79.9999999999947
441 0 45 20
442 0 25 35
443 0 60 20
444 0 180 65
445 0 25 20
446 0 35 80
447 0 20 70
448 0 105.017072525615 79.9962414878234
449 0 180 35
450 0 180 75
451 0 80.0161438662182 80.006501022487
452 0 20 45
453 0 180 20
454 0 80 20
455 0 100.056077040602 80.0231962285528
456 0 35 15
457 0 90 20
458 0 129.999992704172 84.9998972335217
459 0 180 50
460 0 160 80
461 0 20 20
462 0 125 15
463 0 100 15
464 0 165 80
465 0 105 20
466 0 15 25
467 0 185 25
468 0 175 80
469 0 55.0000009257849 80.000000191656
470 0 70.0006095338153 80.000184504523
471 0 175 20
472 0 180 40
473 0 135 15
474 0 45 80
475 0 65.0001098421491 80.0000304375064
476 0 20 30
477 0 20 50
478 0 139.999999985312 84.9999991775426
479 0 20 60
480 0 25 80
481 0 155 20
482 0 165 20
483 0 109.997971992668 84.996133816577
484 0 180 60
485 0 70 20
486 0 55 15
487 0 20 75
488 0 20 80
489 0 120.000130221926 79.9943185787643
490 0 140 19.9999999999999
491 0 115.006657894036 74.9778259591165
492 0 85.0000000057935 25.0000083104149
493 0 65 25
494 0 70.0012756008013 75.000497650946
495 0 55.0000013380837 75.0000002738277
496 0 25 50
497 0 175 50
498 0 140 24.9999999999999
499 0 175 65
500 0 125 20
501 0 105.091055192737 75.0217720616274
502 0 170 25
503 0 175 40
504 0 55 20
505 0 100 20
506 0 165 75
507 0 175 75
508 0 25 30
509 0 180 25
510 0 110.010250820096 79.9897519013022
511 0 35 20
512 0 50 20
513 0 95.0000000000001 20
514 0 40 20
515 0 180 70
516 0 180 55
517 0 120 20
518 0 154.999999999996 79.9999999999993
519 0 20 25
520 0 180 30
521 0 85.0479231800057 80.0230898940073
522 0 65.000257712438 75.0000883968733
523 0 30 20
524 0 50.0000002325515 75.0000000476732
525 0 125.000023374741 79.9980694377827
526 0 134.999999596392 79.999968326449
527 0 144.999999998721 79.9999999485323
528 0 75 20
529 0 25 40
530 0 25 55
531 0 130 20
532 0 135 20
533 0 150 24.9999999999999
534 0 95.0887197789938 80.0481805790826
535 0 110 20
536 0 20 65
537 0 30 80
538 0 40 80
539 0 25 75
540 0 75.0049503244549 80.0019497347249
541 0 160 20
542 0 115.000000000091 25.0000001298502
543 0 145 29.9999999999999
544 0 85.1000418635286 75.0611508832853
545 0 149.999999999992 74.9999999927938
546 0 70.0017879323954 70.0010444130584
547 0 55.0000025401796 70.0000007179491
548 0 30 50
549 0 45 25
550 0 40 75
551 0 30 30
552 0 160 74.9999999999999
553 0 95.0000000376573 25.0000540176969
554 0 175 55
555 0 125 24.9999999999999
556 0 135 24.9999999999999
557 0 110.035130914588 74.9876414076875
558 0 80.0000000007242 25.0000010388018
559 0 50 25
560 0 90.0000000300534 25.0000431102773
561 0 35 25
562 0 175 70
563 0 175 60
564 0 25 25
565 0 139.999999957723 79.9999938853442
566 0 170 75
567 0 165 25
568 0 155 24.9999999999999
569 0 60.0000469249468 75.0000147000564
570 0 175 45
571 0 80.0347370217113 75.0213129295634
572 0 60 25
573 0 25 45
574 0 45.0000000298119 75.0000000061058
575 0 120.001518583814 74.9887938824074
576 0 75.0098116799659 75.0053665885206
577 0 30 35
578 0 100.000000030053 25.0000431102773
579 0 30 75
580 0 25 65
581 0 25 70
582 0 175 35
583 0 95.2311547555227 75.1461735974955
584 0 100.18005140698 75.0998577185445
585 0 130.000003057895 79.9995292196384
586 0 105.000000011089 25.0000159066535
587 0 25 60
588 0 75.0000000000905 25.0000001298502
589 0 70.0000000000113 25.0000000162312
590 0 175 25
591 0 115.012471005603 69.9829114638722
592 0 85.0000007976149 30.001005421577
593 0 100.000003467564 30.0032213468767
594 0 95.3049847667425 70.316092185644
595 0 65.0000000008804 30.0000002637369
596 0 170 50
597 0 50 30
598 0 45.0000000255402 70.000000005191
599 0 30.0000000000095 60.0000000000019
600 0 170 40
601 0 170 65
602 0 60.0000442891676 70.0000141524146
603 0 30 40
604 0 130.000020648334 74.9992367598871
605 0 130 24.9999999999999
606 0 105.135006581028 70.1054565705509
607 0 80.0000002179351 30.0002952783327
608 0 170 30
609 0 154.999999999995 74.9999999990986
610 0 159.999999999999 69.9999999999436
611 0 35 30
612 0 165 69.999999999993
613 0 90.0000030871314 30.0030366267515
614 0 40 25
615 0 140.000000062343 74.9999919440786
616 0 170 60
617 0 120.000000000011 25.0000000162312
618 0 170 69.9999999999991
619 0 65.0004244679767 70.00020734181
620 0 30 25
621 0 125.000306421869 74.9961298774655
622 0 140 29.9999999999999
623 0 50.0000004801386 70.0000001227938
624 0 160 24.9999999999999
625 0 80.0387814533054 70.036528736234
626 0 30 45
627 0 150 29.9999999999999
628 0 35 75
629 0 55 25
630 0 145.000000005655 74.9999985778359
631 0 30.0000000000095 70.0000000000019
632 0 30.0000000000012 55.0000000000002
633 0 110.000000002303 25.0000033030652
634 0 90.1752822244389 75.1215514556026
635 0 75.0118966381055 70.0099826449497
636 0 175 30
637 0 75.0000000427191 30.0000581118785
638 0 125.000000000001 30.0000000020288
639 0 145 34.9999999999999
640 0 140.00000041777 69.999986248109
641 0 85.0000223378575 35.0101342195928
642 0 70.0020400018458 65.0020422931679
643 0 55.0000069329846 65.0000022888251
644 0 35.0000000000001 50
645 0 90.2162750543282 70.2415839742944
646 0 55 30
647 0 40 30
648 0 115.000000229512 30.0001298533615
649 0 125.000440025059 69.9955567875127
650 0 35.0000000000963 70.0000000000192
651 0 85.106513543724 70.1208291177887
652 0 80.0000061378165 35.0034337107173
653 0 170 35
654 0 160 29.9999999999999
655 0 165 64.9999999999955
656 0 60.0000000001101 30.0000000329671
657 0 150.00000000075 69.9999998959427
658 0 155.000000000092 69.9999999864226
659 0 45 30
660 0 135.000004444756 74.9998178329092
661 0 170 45
662 0 155 29.9999999999999
663 0 120.003140285478 69.9894544473376
664 0 65.0004883840832 65.000379711073
665 0 35 40
666 0 35 35
667 0 135 29.9999999999999
668 0 50.000001141195 65.0000003574089
669 0 40.0000000058384 70.0000000011864
670 0 170 55
671 0 30.0000000000274 65.0000000000055
672 0 110.049141894661 70.0202834750859
673 0 105.000002313071 30.0020679698539
674 0 35.0000000001978 55.0000000000393
675 0 95.0000054141455 30.0048806932689
676 0 70.0000000086705 30.0000099182607
677 0 80.0307252655964 65.0571040075213
678 0 165 30
679 0 100.227855567036 70.2431971040831
680 0 100.194998443936 65.4086956812369
681 0 115.013341601205 65.0047873930144
682 0 100.000088160869 35.0273316840294
683 0 65.0000000501554 35.0000014800873
684 0 85.0004370225508 40.0447603697898
685 0 70.0011583111428 60.0023278811105
686 0 165 45
687 0 150.000000000791 64.999999962295
688 0 50.0000000006033 35.0000000005865
689 0 55.0000049285759 60.0000018344547
690 0 40.0000000013949 50.0000000002759
691 0 155 34.9999999999999
692 0 135.000009017341 69.9997807101049
693 0 40.00000000002 35.0000000000039
694 0 160.000000000006 64.9999999991325
695 0 35.0000000005169 60.0000000001028
696 0 165 40
697 0 85.0883247766008 65.1861254908917
698 0 130 30.0000000002535
699 0 160 34.9999999999999
700 0 60.0000000210725 35.0000002463861
701 0 130.000110283069 69.9986356926523
702 0 120.000000028703 30.0000162522128
703 0 45.0000001874336 65.0000000553031
704 0 60.0001081271409 65.00006851647
705 0 110.000001292594 30.0009384654741
706 0 75.0106936407366 65.0167571971264
707 0 75.0000012592755 35.0008392675595
708 0 120.003702499166 64.9956569800398
709 0 40.0000000277019 65.0000000077727
710 0 35.000000004144 65.0000000011087
711 0 165 59.9999999999452
712 0 165 54.9999999999931
713 0 35.0000000000872 45.0000000000172
714 0 140.000000011691 35.0000000141943
715 0 90.0000952272071 35.0272089063485
716 0 150 34.9999999999999
717 0 145.000000092278 69.9999966632208
718 0 165 35
719 0 105.104785071939 65.2037654044648
720 0 95.224635782486 65.4833265721708
721 0 115.000017682785 35.0011338516917
722 0 135.000019205425 64.9997268756914
723 0 100.117144377475 60.4813490244441
724 0 115.009664745986 60.0190313278591
725 0 145.000000007531 39.9999999509186
726 0 85.0563028237899 60.2277907374876
727 0 65.0000044102122 40.0000609053472
728 0 125.000003222055 35.0000473563634
729 0 90.0009943225156 40.0983969325076
730 0 40.0000000001352 40.0000000000267
731 0 145.00000013684 64.999996188484
732 0 75.0066849675928 60.0200396514724
733 0 40.0000000036606 55.0000000007261
734 0 60.0000668354094 60.0000499162702
735 0 135.000000085539 35.0000003320032
736 0 90.1673975629041 65.3670075487997
737 0 160 44.9999999999891
738 0 155.000000000016 39.9999999996366
739 0 160.000000000002 59.9999999998381
740 0 40.0000000006454 45.0000000001275
741 0 45.000000000199 35.0000000000977
742 0 155.000000000192 64.9999999858054
743 0 55.0000000052293 35.0000000381024
744 0 65.000400310273 60.0005647197414
745 0 50.000001400996 60.0000005001261
746 0 45.0000002980232 60.0000001015427
747 0 165 49.9999999999984
748 0 80.0002312502205 40.0162056678127
749 0 40.0000000548097 60.000000017611
750 0 110.046778322781 65.0686606581633
751 0 105.000077857694 35.0166072660985
752 0 125.000923135726 64.997058449109
753 0 95.0001656052294 35.0391315798702
754 0 70.0000005510625 35.0001617363166
755 0 160.000000000002 39.9999999999532
756 0 100.001088033722 40.1016947334013
757 0 145.000000137446 59.9999966817309
758 0 85.0033909327458 45.1112447978589
759 0 70.0009919844069 55.0043671821132
760 0 60.0000491071 55.0000823525096
761 0 50.0000000344066 40.0000000365454
762 0 90.1060079707064 60.4529254062441
763 0 160.000000000002 54.9999999999052
764 0 70.0000164629099 40.0004693062164
765 0 155.00000000069 59.9999999817335
766 0 155.000000000048 44.9999999988361
767 0 105.069362042974 60.2493622054155
768 0 95.1322128355134 60.5566692663988
769 0 120.000011566027 35.0003347204052
770 0 95.0015019354634 40.129341338593
771 0 160.000000000005 49.9999999998675
772 0 45.0000000259548 45.0000000143832
773 0 75.0000913378577 40.00448659732
774 0 140.000003818586 64.9999364538055
775 0 130.0001981737 64.9987987901123
776 0 80.0239938909337 60.0852846334023
777 0 45.0000000083943 40.0000000065702
778 0 55.0000119394073 55.0000142074803
779 0 45.0000000692486 50.000000033697
780 0 45.0000002009415 55.000000077445
781 0 60.0000008967822 40.0000084419603
782 0 110.000051906472 35.0067879253595
783 0 120.003247586635 60.0023884316732
784 0 130.000000833332 35.0000087523361
785 0 140.000000109532 39.9999998461874
786 0 150.0000000011 39.9999999902868
787 0 110.03280283099 60.0981408872531
788 0 125.000032827971 40.0003274561028
789 0 115.000257709828 40.0058452804346
790 0 130.00014954741 59.9992887797219
791 0 95.0630687822231 55.5377796926012
792 0 105.037292075991 55.2454221266836
793 0 115.006845141124 55.0286769140758
794 0 145.000000064766 44.999999398591
795 0 100.006564817818 45.2211983027078
796 0 90.0510230167808 55.3999050393947
797 0 85.0307132031304 55.2133939463224
798 0 155.0000000006 49.9999999869527
799 0 65.0000301420387 45.0003036878897
800 0 140.000003317011 59.9999505625277
801 0 75.0044722591601 55.0250535266101
802 0 75.0005510396084 45.0106209289228
803 0 135.000001848891 40.0000061682392
804 0 155.000000001306 54.999999971075
805 0 60.000021355913 50.0000829342179
806 0 50.0000002031862 45.0000001535593
807 0 80.0018399030606 45.0433982011402
808 0 125.000945770281 59.99920882849
809 0 50.0000022263393 55.0000020811865
810 0 150.000000031474 59.9999992204503
811 0 110.000579924274 40.022004793367
812 0 105.001156427141 40.0587320879495
813 0 90.0060620964757 45.2211547739723
814 0 55.0000002639918 40.0000012731813
815 0 65.0002953335442 55.00096184437
816 0 150.000000011208 44.9999998763039
817 0 125.000570116109 55.0005072401551
818 0 115.001255739567 45.0162226721774
819 0 140.000002493223 54.9999742882973
820 0 105.005208305103 45.1208870458343
821 0 150.00000001573 49.9999997475232
822 0 95.0255562890212 50.4101504301038
823 0 90.0221926755281 50.3078864652465
824 0 85.0141076334613 50.1704647304892
825 0 120.000170256712 40.0024377757316
826 0 80.0065975848744 50.072589254128
827 0 70.0006971806872 50.0053686144941
828 0 60.000010852501 45.0000753659572
829 0 55.0000084951835 50.0000224486001
830 0 135.000040296775 59.9997354014092
831 0 120.002493276001 55.0073491998465
832 0 145.000000600426 54.9999923530693
833 0 150.000000094343 54.9999986143383
834 0 50.0000022518219 50.0000040625097
835 0 55.0000041361479 45.0000185029184
836 0 70.0002739364124 45.0036064864243
837 0 80.0153475278588 55.0938391710346
838 0 65.0002277403942 50.0014338953247
839 0 95.0091393910859 45.2487543875596
840 0 130.000009595563 40.0000687880046
841 0 140.000001092933 44.9999981492824
842 0 110.019700027582 55.1031401514884
843 0 100.0585583063 55.411614056195
844 0 125.000139615697 45.0009764989972
845 0 135.000026668485 54.9998727158386
846 0 135.00000851597 45.0000158709541
847 0 100.025069189098 50.3128559473542
848 0 105.017948591038 50.1855749262332
849 0 110.010066237851 50.0859987910408
850 0 115.004526108077 50.0313529386493
851 0 120.001675149444 50.0092342237662
852 0 145.00000040244 49.9999961509132
853 0 120.000800355618 45.0067215972231
854 0 110.004219385919 45.0588695380051
855 0 130.0001866737 54.9998917759197
856 0 75.003040565037 50.0271593285846
857 0 125.000574512151 50.0024269548364
858 0 140.000004331565 49.9999851827537
859 0 130.000157560734 50.0003973329494
860 0 130.000084070803 45.0003747345361
861 0 135.000044656561 50.0000452190257
$EndNodes
$Elements
800
1 3 2 1 1 720 736 762 768
2 3 2 1 1 822 823 813 839
3 3 2 1 1 822 839 795 847
4 3 2 1 1 606 679 680 719
5 3 2 1 1 768 762 796 791
6 3 2 1 1 791 822 847 843
7 3 2 1 1 847 795 820 848
8 3 2 1 1 787 767 792 842
9 3 2 1 1 848 820 854 849
10 3 2 1 1 849 854 818 850
11 3 2 1 1 850 818 853 851
12 3 2 1 1 844 857 851 853
13 3 2 1 1 793 842 849 850
14 3 2 1 1 857 844 860 859
15 3 2 1 1 859 860 846 861
16 3 2 1 1 852 794 816 821
17 3 2 1 1 824 797 837 826
18 3 2 1 1 721 769 825 789
19 3 2 1 1 698 638 555 605
20 3 2 1 1 799 836 827 838
21 3 2 1 1 802 856 827 836
22 3 2 1 1 799 838 805 828
23 3 2 1 1 501 557 510 448
24 3 2 1 1 641 652 607 592
25 3 2 1 1 798 771 763 804
26 3 2 1 1 805 829 835 828
27 3 2 1 1 339 393 375 286
28 3 2 1 1 393 439 454 375
29 3 2 1 1 856 802 807 826
30 3 2 1 1 612 655 601 618
31 3 2 1 1 319 338 394 377
32 3 2 1 1 490 498 556 532
33 3 2 1 1 254 220 127 281
34 3 2 1 1 777 772 740 730
35 3 2 1 1 657 658 609 545
36 3 2 1 1 212 296 222 163
37 3 2 1 1 821 816 766 798
38 3 2 1 1 800 830 845 819
39 3 2 1 1 205 133 279 372
40 3 2 1 1 319 264 284 338
41 3 2 1 1 347 456 402 294
42 3 2 1 1 611 551 620 561
43 3 2 1 1 731 774 800 757
44 3 2 1 1 265 125 209 283
45 3 2 1 1 266 285 325 395
46 3 2 1 1 325 378 443 395
47 3 2 1 1 473 420 490 532
48 3 2 1 1 611 561 614 647
49 3 2 1 1 552 460 518 609
50 3 2 1 1 208 253 341 146
51 3 2 1 1 514 614 561 511
52 3 2 1 1 320 281 313 392
53 3 2 1 1 255 287 400 323
54 3 2 1 1 391 333 383 482
55 3 2 1 1 608 636 582 653
56 3 2 1 1 653 718 678 608
57 3 2 1 1 781 727 799 828
58 3 2 1 1 826 837 801 856
59 3 2 1 1 858 852 832 819
60 3 2 1 1 284 264 121 211
61 3 2 1 1 151 210 343 287
62 3 2 1 1 438 498 490 377
63 3 2 1 1 443 378 493 572
64 3 2 1 1 852 858 841 794
65 3 2 1 1 266 124 214 285
66 3 2 1 1 164 250 62 63
67 3 2 1 1 279 133 251 318
68 3 2 1 1 166 182 213 142
69 3 2 1 1 164 142 213 267
70 3 2 1 1 282 195 152 159
71 3 2 1 1 458 585 526 419
72 3 2 1 1 659 741 693 647
73 3 2 1 1 772 777 761 806
74 3 2 1 1 590 509 520 636
75 3 2 1 1 318 251 141 203
76 3 2 1 1 301 231 155 342
77 3 2 1 1 342 462 387 301
78 3 2 1 1 287 343 463 400
79 3 2 1 1 505 513 400 463
80 3 2 1 1 722 692 701 775
81 3 2 1 1 766 816 786 738
82 3 2 1 1 500 517 387 462
83 3 2 1 1 727 683 754 764
84 3 2 1 1 40 41 133 205
85 3 2 1 1 46 156 215 45
86 3 2 1 1 215 156 216 307
87 3 2 1 1 346 270 225 162
88 3 2 1 1 404 399 261 344
89 3 2 1 1 377 490 420 319
90 3 2 1 1 764 836 799 727
91 3 2 1 1 37 38 152 211
92 3 2 1 1 216 156 47 48
93 3 2 1 1 286 207 122 339
94 3 2 1 1 322 404 344 268
95 3 2 1 1 461 445 564 519
96 3 2 1 1 645 634 544 651
97 3 2 1 1 701 692 660 604
98 3 2 1 1 769 721 648 702
99 3 2 1 1 734 760 815 744
100 3 2 1 1 266 374 224 124
101 3 2 1 1 161 223 344 261
102 3 2 1 1 403 326 269 292
103 3 2 1 1 436 321 415 521
104 3 2 1 1 423 527 440 324
105 3 2 1 1 422 331 470 540
106 3 2 1 1 454 439 492 558
107 3 2 1 1 521 451 571 544
108 3 2 1 1 542 617 702 648
109 3 2 1 1 35 36 121 204
110 3 2 1 1 221 373 290 160
111 3 2 1 1 303 396 328 193
112 3 2 1 1 290 397 410 253
113 3 2 1 1 321 398 373 265
114 3 2 1 1 458 419 270 346
115 3 2 1 1 437 392 483 510
116 3 2 1 1 519 476 412 466
117 3 2 1 1 509 453 414 467
118 3 2 1 1 489 437 491 575
119 3 2 1 1 464 460 552 506
120 3 2 1 1 436 521 544 634
121 3 2 1 1 693 741 777 730
122 3 2 1 1 25 217 122 24
123 3 2 1 1 28 29 223 161
124 3 2 1 1 79 80 220 162
125 3 2 1 1 227 173 292 269
126 3 2 1 1 164 267 345 250
127 3 2 1 1 346 254 418 458
128 3 2 1 1 345 407 332 259
129 3 2 1 1 360 388 406 304
130 3 2 1 1 260 324 388 360
131 3 2 1 1 518 460 406 388
132 3 2 1 1 383 502 567 482
133 3 2 1 1 600 661 686 696
134 3 2 1 1 755 696 686 737
135 3 2 1 1 763 771 747 712
136 3 2 1 1 821 833 832 852
137 3 2 1 1 2 47 156 46
138 3 2 1 1 219 149 57 58
139 3 2 1 1 208 146 83 84
140 3 2 1 1 85 86 221 160
141 3 2 1 1 345 267 363 407
142 3 2 1 1 315 286 375 433
143 3 2 1 1 455 448 410 397
144 3 2 1 1 515 444 405 416
145 3 2 1 1 558 588 528 454
146 3 2 1 1 661 600 503 570
147 3 2 1 1 629 646 597 559
148 3 2 1 1 806 761 814 835
149 3 2 1 1 798 804 833 821
150 3 2 1 1 29 30 123 223
151 3 2 1 1 32 33 218 155
152 3 2 1 1 80 81 127 220
153 3 2 1 1 118 222 138 117
154 3 2 1 1 280 204 121 264
155 3 2 1 1 217 255 339 122
156 3 2 1 1 269 196 130 227
157 3 2 1 1 296 353 138 222
158 3 2 1 1 147 167 291 190
159 3 2 1 1 158 367 252 218
160 3 2 1 1 301 387 322 268
161 3 2 1 1 190 291 422 349
162 3 2 1 1 279 318 351 333
163 3 2 1 1 418 320 489 525
164 3 2 1 1 413 475 470 331
165 3 2 1 1 510 483 410 448
166 3 2 1 1 493 595 656 572
167 3 2 1 1 661 596 747 686
168 3 2 1 1 718 653 600 696
169 3 2 1 1 651 625 677 697
170 3 2 1 1 737 686 747 771
171 3 2 1 1 833 804 765 810
172 3 2 1 1 25 26 151 217
173 3 2 1 1 86 87 125 221
174 3 2 1 1 344 223 123 268
175 3 2 1 1 168 129 197 242
176 3 2 1 1 372 391 434 282
177 3 2 1 1 295 352 412 334
178 3 2 1 1 526 565 478 419
179 3 2 1 1 449 472 503 582
180 3 2 1 1 630 717 657 545
181 3 2 1 1 834 809 780 779
182 3 2 1 1 88 4 147 209
183 3 2 1 1 214 124 19 20
184 3 2 1 1 23 24 122 207
185 3 2 1 1 204 158 34 35
186 3 2 1 1 159 152 38 39
187 3 2 1 1 58 59 132 219
188 3 2 1 1 64 65 166 142
189 3 2 1 1 225 270 354 154
190 3 2 1 1 345 259 174 250
191 3 2 1 1 167 175 201 291
192 3 2 1 1 318 203 409 351
193 3 2 1 1 159 205 372 282
194 3 2 1 1 293 259 332 416
195 3 2 1 1 412 352 271 466
196 3 2 1 1 353 411 466 271
197 3 2 1 1 467 414 358 275
198 3 2 1 1 201 331 422 291
199 3 2 1 1 403 459 380 326
200 3 2 1 1 300 354 478 423
201 3 2 1 1 326 380 472 356
202 3 2 1 1 427 356 472 449
203 3 2 1 1 266 395 486 374
204 3 2 1 1 472 380 570 503
205 3 2 1 1 427 449 520 385
206 3 2 1 1 509 467 385 520
207 3 2 1 1 443 504 486 395
208 3 2 1 1 351 409 453 471
209 3 2 1 1 565 527 423 478
210 3 2 1 1 559 549 441 512
211 3 2 1 1 471 453 509 590
212 3 2 1 1 516 554 497 459
213 3 2 1 1 380 459 497 570
214 3 2 1 1 554 516 484 563
215 3 2 1 1 554 670 596 497
216 3 2 1 1 517 500 555 617
217 3 2 1 1 512 504 629 559
218 3 2 1 1 609 658 610 552
219 3 2 1 1 563 616 670 554
220 3 2 1 1 624 654 662 568
221 3 2 1 1 666 665 603 577
222 3 2 1 1 670 712 747 596
223 3 2 1 1 659 597 688 741
224 3 2 1 1 646 743 688 597
225 3 2 1 1 655 612 610 694
226 3 2 1 1 694 610 658 742
227 3 2 1 1 601 655 711 616
228 3 2 1 1 702 638 728 769
229 3 2 1 1 685 732 706 642
230 3 2 1 1 694 739 711 655
231 3 2 1 1 657 687 742 658
232 3 2 1 1 642 664 744 685
233 3 2 1 1 616 711 712 670
234 3 2 1 1 729 715 753 770
235 3 2 1 1 694 742 765 739
236 3 2 1 1 802 773 748 807
237 3 2 1 1 834 829 778 809
238 3 2 1 1 829 834 806 835
239 3 2 1 1 20 21 148 214
240 3 2 1 1 31 231 123 30
241 3 2 1 1 158 218 33 34
242 3 2 1 1 205 159 39 40
243 3 2 1 1 51 52 239 139
244 3 2 1 1 114 237 129 113
245 3 2 1 1 289 219 132 348
246 3 2 1 1 354 300 234 154
247 3 2 1 1 150 171 193 288
248 3 2 1 1 171 172 303 193
249 3 2 1 1 374 303 172 224
250 3 2 1 1 201 175 185 274
251 3 2 1 1 288 193 328 401
252 3 2 1 1 326 356 196 269
253 3 2 1 1 125 265 373 221
254 3 2 1 1 174 259 293 228
255 3 2 1 1 201 274 413 331
256 3 2 1 1 398 397 290 373
257 3 2 1 1 260 300 423 324
258 3 2 1 1 392 437 489 320
259 3 2 1 1 398 321 436 534
260 3 2 1 1 540 451 349 422
261 3 2 1 1 459 403 350 516
262 3 2 1 1 421 484 516 350
263 3 2 1 1 409 355 414 453
264 3 2 1 1 464 506 566 384
265 3 2 1 1 328 441 514 401
266 3 2 1 1 405 444 484 421
267 3 2 1 1 514 441 549 614
268 3 2 1 1 563 484 444 499
269 3 2 1 1 515 562 499 444
270 3 2 1 1 618 601 499 562
271 3 2 1 1 616 563 499 601
272 3 2 1 1 552 610 612 506
273 3 2 1 1 562 507 566 618
274 3 2 1 1 440 545 609 518
275 3 2 1 1 489 575 621 525
276 3 2 1 1 506 612 618 566
277 3 2 1 1 665 666 693 730
278 3 2 1 1 777 741 688 761
279 3 2 1 1 734 689 778 760
280 3 2 1 1 699 755 738 691
281 3 2 1 1 775 790 830 722
282 3 2 1 1 685 744 815 759
283 3 2 1 1 684 758 807 748
284 3 2 1 1 790 775 752 808
285 3 2 1 1 708 783 808 752
286 3 2 1 1 812 820 795 756
287 3 2 1 1 845 830 790 855
288 3 2 1 1 858 819 845 861
289 3 2 1 1 19 124 224 18
290 3 2 1 1 210 151 26 27
291 3 2 1 1 59 60 228 132
292 3 2 1 1 421 350 194 289
293 3 2 1 1 403 292 194 350
294 3 2 1 1 356 427 276 196
295 3 2 1 1 155 218 252 342
296 3 2 1 1 132 228 293 348
297 3 2 1 1 265 283 415 321
298 3 2 1 1 348 405 421 289
299 3 2 1 1 440 518 388 324
300 3 2 1 1 460 464 359 406
301 3 2 1 1 511 456 401 514
302 3 2 1 1 384 566 507 468
303 3 2 1 1 602 547 643 704
304 3 2 1 1 666 577 551 611
305 3 2 1 1 522 569 602 619
306 3 2 1 1 654 699 691 662
307 3 2 1 1 809 778 689 745
308 3 2 1 1 800 774 722 830
309 3 2 1 1 167 147 4 89
310 3 2 1 1 13 14 226 134
311 3 2 1 1 18 224 172 17
312 3 2 1 1 165 148 21 22
313 3 2 1 1 207 165 22 23
314 3 2 1 1 31 32 155 231
315 3 2 1 1 57 149 173 56
316 3 2 1 1 106 107 240 137
317 3 2 1 1 168 112 113 129
318 3 2 1 1 268 123 231 301
319 3 2 1 1 197 129 237 295
320 3 2 1 1 230 134 294 272
321 3 2 1 1 226 347 294 134
322 3 2 1 1 219 289 194 149
323 3 2 1 1 288 347 226 150
324 3 2 1 1 204 280 367 158
325 3 2 1 1 210 161 261 343
326 3 2 1 1 148 165 315 192
327 3 2 1 1 207 286 315 165
328 3 2 1 1 149 194 292 173
329 3 2 1 1 295 237 177 352
330 3 2 1 1 213 182 233 298
331 3 2 1 1 242 197 257 336
332 3 2 1 1 409 203 273 355
333 3 2 1 1 185 235 305 274
334 3 2 1 1 323 393 339 255
335 3 2 1 1 359 464 384 258
336 3 2 1 1 305 335 413 274
337 3 2 1 1 385 467 275 365
338 3 2 1 1 272 294 402 330
339 3 2 1 1 272 330 417 302
340 3 2 1 1 461 417 330 445
341 3 2 1 1 416 332 450 515
342 3 2 1 1 379 475 413 335
343 3 2 1 1 434 541 481 340
344 3 2 1 1 293 416 405 348
345 3 2 1 1 411 376 417 461
346 3 2 1 1 475 379 569 522
347 3 2 1 1 532 531 386 473
348 3 2 1 1 330 402 523 445
349 3 2 1 1 456 511 523 402
350 3 2 1 1 332 407 408 450
351 3 2 1 1 450 408 468 507
352 3 2 1 1 519 466 411 461
353 3 2 1 1 508 551 577 442
354 3 2 1 1 564 445 523 620
355 3 2 1 1 562 515 450 507
356 3 2 1 1 477 452 573 496
357 3 2 1 1 418 525 585 458
358 3 2 1 1 547 602 569 495
359 3 2 1 1 620 551 508 564
360 3 2 1 1 511 561 620 523
361 3 2 1 1 440 527 630 545
362 3 2 1 1 525 621 604 585
363 3 2 1 1 603 665 713 626
364 3 2 1 1 625 635 706 677
365 3 2 1 1 692 722 774 640
366 3 2 1 1 730 740 713 665
367 3 2 1 1 643 668 745 689
368 3 2 1 1 644 713 740 690
369 3 2 1 1 780 733 690 779
370 3 2 1 1 740 772 779 690
371 3 2 1 1 716 691 738 786
372 3 2 1 1 696 755 699 718
373 3 2 1 1 668 703 746 745
374 3 2 1 1 746 780 809 745
375 3 2 1 1 733 780 746 749
376 3 2 1 1 800 819 832 757
377 3 2 1 1 801 759 827 856
378 3 2 1 1 806 834 779 772
379 3 2 1 1 9 10 169 143
380 3 2 1 1 10 11 170 169
381 3 2 1 1 13 134 230 12
382 3 2 1 1 11 12 230 170
383 3 2 1 1 226 14 15 150
384 3 2 1 1 172 171 16 17
385 3 2 1 1 15 16 171 150
386 3 2 1 1 161 210 27 28
387 3 2 1 1 42 43 141 251
388 3 2 1 1 49 144 216 48
389 3 2 1 1 51 139 232 50
390 3 2 1 1 49 50 232 144
391 3 2 1 1 53 179 239 52
392 3 2 1 1 54 130 179 53
393 3 2 1 1 227 130 54 55
394 3 2 1 1 55 56 173 227
395 3 2 1 1 228 60 61 174
396 3 2 1 1 61 62 250 174
397 3 2 1 1 3 66 166 65
398 3 2 1 1 182 166 66 67
399 3 2 1 1 67 68 233 182
400 3 2 1 1 75 76 234 126
401 3 2 1 1 77 154 234 76
402 3 2 1 1 225 154 77 78
403 3 2 1 1 82 83 146 206
404 3 2 1 1 175 167 89 90
405 3 2 1 1 185 175 90 91
406 3 2 1 1 91 92 235 185
407 3 2 1 1 96 97 176 135
408 3 2 1 1 6 140 236 98
409 3 2 1 1 97 98 236 176
410 3 2 1 1 112 168 188 111
411 3 2 1 1 114 115 177 237
412 3 2 1 1 119 120 181 163
413 3 2 1 1 300 260 126 234
414 3 2 1 1 360 244 126 260
415 3 2 1 1 298 233 136 297
416 3 2 1 1 271 229 138 353
417 3 2 1 1 212 143 169 202
418 3 2 1 1 163 181 143 212
419 3 2 1 1 341 313 206 146
420 3 2 1 1 192 285 214 148
421 3 2 1 1 220 254 346 162
422 3 2 1 1 169 170 302 202
423 3 2 1 1 230 272 302 170
424 3 2 1 1 229 271 352 177
425 3 2 1 1 141 178 273 203
426 3 2 1 1 130 196 276 179
427 3 2 1 1 239 179 276 365
428 3 2 1 1 153 183 238 198
429 3 2 1 1 183 184 304 238
430 3 2 1 1 168 242 277 188
431 3 2 1 1 241 188 277 309
432 3 2 1 1 240 189 308 368
433 3 2 1 1 283 190 349 415
434 3 2 1 1 285 192 364 325
435 3 2 1 1 153 198 306 243
436 3 2 1 1 327 357 199 309
437 3 2 1 1 212 202 376 296
438 3 2 1 1 417 376 202 302
439 3 2 1 1 127 206 313 281
440 3 2 1 1 178 215 307 273
441 3 2 1 1 144 299 307 216
442 3 2 1 1 139 275 358 232
443 3 2 1 1 144 232 358 299
444 3 2 1 1 198 238 359 258
445 3 2 1 1 406 359 238 304
446 3 2 1 1 139 239 365 275
447 3 2 1 1 136 243 306 297
448 3 2 1 1 184 244 360 304
449 3 2 1 1 191 249 366 256
450 3 2 1 1 281 320 418 254
451 3 2 1 1 191 256 335 305
452 3 2 1 1 335 256 469 379
453 3 2 1 1 366 389 469 256
454 3 2 1 1 197 295 334 257
455 3 2 1 1 198 258 362 306
456 3 2 1 1 468 362 258 384
457 3 2 1 1 399 463 343 261
458 3 2 1 1 213 298 363 267
459 3 2 1 1 307 299 355 273
460 3 2 1 1 427 385 365 276
461 3 2 1 1 242 336 425 277
462 3 2 1 1 264 319 420 280
463 3 2 1 1 195 282 434 340
464 3 2 1 1 353 296 376 411
465 3 2 1 1 298 297 361 363
466 3 2 1 1 355 299 358 414
467 3 2 1 1 297 306 362 361
468 3 2 1 1 277 425 327 309
469 3 2 1 1 192 315 433 364
470 3 2 1 1 457 439 393 323
471 3 2 1 1 382 327 425 477
472 3 2 1 1 257 334 381 424
473 3 2 1 1 381 334 412 476
474 3 2 1 1 257 424 452 336
475 3 2 1 1 477 425 336 452
476 3 2 1 1 415 349 451 521
477 3 2 1 1 270 419 478 354
478 3 2 1 1 327 382 479 357
479 3 2 1 1 468 408 361 362
480 3 2 1 1 363 361 408 407
481 3 2 1 1 325 364 485 378
482 3 2 1 1 528 485 364 433
483 3 2 1 1 252 367 473 386
484 3 2 1 1 280 420 473 367
485 3 2 1 1 366 370 474 389
486 3 2 1 1 569 379 469 495
487 3 2 1 1 424 381 442 529
488 3 2 1 1 442 381 476 508
489 3 2 1 1 477 496 530 382
490 3 2 1 1 469 389 524 495
491 3 2 1 1 377 394 533 438
492 3 2 1 1 328 396 512 441
493 3 2 1 1 504 512 396 486
494 3 2 1 1 397 398 534 455
495 3 2 1 1 375 454 528 433
496 3 2 1 1 577 603 529 442
497 3 2 1 1 576 571 451 540
498 3 2 1 1 424 529 573 452
499 3 2 1 1 448 455 584 501
500 3 2 1 1 576 540 470 494
501 3 2 1 1 389 474 574 524
502 3 2 1 1 470 475 522 494
503 3 2 1 1 519 564 508 476
504 3 2 1 1 567 624 541 482
505 3 2 1 1 378 485 589 493
506 3 2 1 1 528 588 589 485
507 3 2 1 1 437 510 557 491
508 3 2 1 1 573 626 548 496
509 3 2 1 1 596 661 570 497
510 3 2 1 1 438 543 622 498
511 3 2 1 1 653 582 503 600
512 3 2 1 1 494 522 619 546
513 3 2 1 1 495 524 623 547
514 3 2 1 1 574 598 623 524
515 3 2 1 1 604 660 526 585
516 3 2 1 1 626 573 529 603
517 3 2 1 1 496 548 632 530
518 3 2 1 1 531 532 556 605
519 3 2 1 1 664 642 546 619
520 3 2 1 1 713 644 548 626
521 3 2 1 1 632 548 644 674
522 3 2 1 1 559 597 659 549
523 3 2 1 1 647 614 549 659
524 3 2 1 1 498 622 667 556
525 3 2 1 1 605 556 667 698
526 3 2 1 1 544 571 625 651
527 3 2 1 1 491 591 663 575
528 3 2 1 1 649 621 575 663
529 3 2 1 1 587 599 671 580
530 3 2 1 1 558 607 637 588
531 3 2 1 1 493 589 676 595
532 3 2 1 1 588 637 676 589
533 3 2 1 1 700 656 595 683
534 3 2 1 1 623 598 703 668
535 3 2 1 1 710 671 599 695
536 3 2 1 1 619 602 704 664
537 3 2 1 1 660 692 640 615
538 3 2 1 1 547 623 668 643
539 3 2 1 1 615 640 717 630
540 3 2 1 1 599 632 674 695
541 3 2 1 1 542 648 705 633
542 3 2 1 1 607 652 707 637
543 3 2 1 1 731 717 640 774
544 3 2 1 1 704 643 689 734
545 3 2 1 1 663 708 752 649
546 3 2 1 1 641 684 748 652
547 3 2 1 1 591 681 708 663
548 3 2 1 1 598 669 709 703
549 3 2 1 1 591 672 750 681
550 3 2 1 1 644 690 733 674
551 3 2 1 1 749 695 674 733
552 3 2 1 1 637 707 754 676
553 3 2 1 1 776 726 697 677
554 3 2 1 1 729 813 758 684
555 3 2 1 1 731 757 810 687
556 3 2 1 1 638 698 784 728
557 3 2 1 1 683 727 781 700
558 3 2 1 1 649 752 775 701
559 3 2 1 1 746 703 709 749
560 3 2 1 1 648 721 782 705
561 3 2 1 1 673 705 782 751
562 3 2 1 1 677 706 732 776
563 3 2 1 1 652 748 773 707
564 3 2 1 1 764 754 707 773
565 3 2 1 1 681 724 783 708
566 3 2 1 1 695 749 709 710
567 3 2 1 1 681 750 787 724
568 3 2 1 1 685 759 801 732
569 3 2 1 1 766 737 771 798
570 3 2 1 1 688 743 814 761
571 3 2 1 1 833 810 757 832
572 3 2 1 1 826 807 758 824
573 3 2 1 1 823 824 758 813
574 3 2 1 1 726 776 837 797
575 3 2 1 1 721 789 811 782
576 3 2 1 1 724 793 831 783
577 3 2 1 1 817 808 783 831
578 3 2 1 1 728 784 840 788
579 3 2 1 1 825 853 818 789
580 3 2 1 1 808 817 855 790
581 3 2 1 1 851 831 793 850
582 3 2 1 1 789 818 854 811
583 3 2 1 1 831 851 857 817
584 3 2 1 1 859 855 817 857
585 3 2 1 1 792 848 849 842
586 3 2 1 1 178 141 43 44
587 3 2 1 1 215 178 44 45
588 3 2 1 1 177 115 116 229
589 3 2 1 1 305 235 128 191
590 3 2 1 1 290 253 208 160
591 3 2 1 1 131 241 309 199
592 3 2 1 1 399 404 535 465
593 3 2 1 1 582 636 520 449
594 3 2 1 1 382 530 587 479
595 3 2 1 1 443 572 629 504
596 3 2 1 1 513 505 578 553
597 3 2 1 1 669 598 574 550
598 3 2 1 1 646 629 572 656
599 3 2 1 1 633 705 673 586
600 3 2 1 1 684 641 715 729
601 3 2 1 1 710 709 669 650
602 3 2 1 1 645 651 697 736
603 3 2 1 1 717 731 687 657
604 3 2 1 1 770 753 682 756
605 3 2 1 1 739 763 712 711
606 3 2 1 1 801 837 776 732
607 3 2 1 1 784 735 803 840
608 3 2 1 1 763 739 765 804
609 3 2 1 1 682 751 812 756
610 3 2 1 1 812 751 782 811
611 3 2 1 1 760 778 829 805
612 3 2 1 1 820 812 811 854
613 3 2 1 1 93 5 180 128
614 3 2 1 1 1 8 181 120
615 3 2 1 1 9 143 181 8
616 3 2 1 1 211 121 36 37
617 3 2 1 1 233 68 69 136
618 3 2 1 1 69 70 243 136
619 3 2 1 1 71 153 243 70
620 3 2 1 1 71 72 183 153
621 3 2 1 1 72 73 184 183
622 3 2 1 1 75 126 244 74
623 3 2 1 1 73 74 244 184
624 3 2 1 1 206 127 81 82
625 3 2 1 1 160 208 84 85
626 3 2 1 1 209 125 87 88
627 3 2 1 1 235 92 93 128
628 3 2 1 1 5 94 186 180
629 3 2 1 1 96 135 245 95
630 3 2 1 1 94 95 245 186
631 3 2 1 1 6 99 246 140
632 3 2 1 1 100 157 246 99
633 3 2 1 1 7 102 187 101
634 3 2 1 1 100 101 187 157
635 3 2 1 1 104 145 247 103
636 3 2 1 1 102 103 247 187
637 3 2 1 1 106 137 248 105
638 3 2 1 1 104 105 248 145
639 3 2 1 1 240 107 108 189
640 3 2 1 1 241 131 109 110
641 3 2 1 1 108 109 131 189
642 3 2 1 1 188 241 110 111
643 3 2 1 1 229 116 117 138
644 3 2 1 1 308 189 131 199
645 3 2 1 1 236 140 310 263
646 3 2 1 1 187 247 314 157
647 3 2 1 1 246 157 314 311
648 3 2 1 1 135 176 316 200
649 3 2 1 1 236 263 316 176
650 3 2 1 1 128 180 249 191
651 3 2 1 1 180 186 278 249
652 3 2 1 1 135 200 317 245
653 3 2 1 1 137 240 368 262
654 3 2 1 1 186 245 317 278
655 3 2 1 1 140 246 311 310
656 3 2 1 1 145 312 314 247
657 3 2 1 1 137 262 369 248
658 3 2 1 1 145 248 369 312
659 3 2 1 1 368 390 426 262
660 3 2 1 1 249 278 370 366
661 3 2 1 1 199 357 428 308
662 3 2 1 1 368 308 428 390
663 3 2 1 1 263 310 429 337
664 3 2 1 1 311 371 429 310
665 3 2 1 1 314 312 371 311
666 3 2 1 1 200 316 430 329
667 3 2 1 1 263 337 430 316
668 3 2 1 1 200 329 431 317
669 3 2 1 1 278 317 431 370
670 3 2 1 1 338 340 481 394
671 3 2 1 1 313 341 483 392
672 3 2 1 1 253 410 483 341
673 3 2 1 1 252 386 462 342
674 3 2 1 1 312 369 432 371
675 3 2 1 1 262 426 432 369
676 3 2 1 1 590 502 383 471
677 3 2 1 1 531 500 462 386
678 3 2 1 1 465 505 463 399
679 3 2 1 1 323 400 513 457
680 3 2 1 1 390 447 487 426
681 3 2 1 1 390 428 536 447
682 3 2 1 1 357 479 536 428
683 3 2 1 1 371 432 488 429
684 3 2 1 1 337 429 488 480
685 3 2 1 1 329 430 537 446
686 3 2 1 1 337 480 537 430
687 3 2 1 1 329 446 538 431
688 3 2 1 1 370 431 538 474
689 3 2 1 1 426 487 488 432
690 3 2 1 1 538 446 628 550
691 3 2 1 1 537 579 628 446
692 3 2 1 1 487 447 581 539
693 3 2 1 1 536 580 581 447
694 3 2 1 1 584 455 534 583
695 3 2 1 1 439 457 560 492
696 3 2 1 1 553 560 457 513
697 3 2 1 1 535 633 586 465
698 3 2 1 1 538 550 574 474
699 3 2 1 1 488 487 539 480
700 3 2 1 1 394 481 568 533
701 3 2 1 1 613 592 492 560
702 3 2 1 1 605 555 500 531
703 3 2 1 1 678 567 502 608
704 3 2 1 1 636 608 502 590
705 3 2 1 1 565 615 630 527
706 3 2 1 1 632 599 587 530
707 3 2 1 1 438 533 627 543
708 3 2 1 1 479 587 580 536
709 3 2 1 1 480 539 579 537
710 3 2 1 1 494 546 635 576
711 3 2 1 1 628 650 669 550
712 3 2 1 1 578 593 675 553
713 3 2 1 1 560 553 675 613
714 3 2 1 1 501 606 672 557
715 3 2 1 1 533 568 662 627
716 3 2 1 1 571 576 635 625
717 3 2 1 1 539 581 631 579
718 3 2 1 1 581 580 671 631
719 3 2 1 1 578 586 673 593
720 3 2 1 1 751 682 593 673
721 3 2 1 1 754 683 595 676
722 3 2 1 1 621 649 701 604
723 3 2 1 1 647 693 666 611
724 3 2 1 1 592 613 715 641
725 3 2 1 1 555 638 702 617
726 3 2 1 1 543 639 714 622
727 3 2 1 1 579 631 650 628
728 3 2 1 1 710 650 631 671
729 3 2 1 1 546 642 706 635
730 3 2 1 1 656 700 743 646
731 3 2 1 1 622 714 735 667
732 3 2 1 1 698 667 735 784
733 3 2 1 1 606 719 750 672
734 3 2 1 1 593 682 753 675
735 3 2 1 1 613 675 753 715
736 3 2 1 1 814 743 700 781
737 3 2 1 1 787 750 719 767
738 3 2 1 1 787 842 793 724
739 3 2 1 1 841 785 725 794
740 3 2 1 1 737 766 738 755
741 3 2 1 1 687 810 765 742
742 3 2 1 1 838 827 759 815
743 3 2 1 1 805 838 815 760
744 3 2 1 1 773 802 836 764
745 3 2 1 1 728 788 825 769
746 3 2 1 1 756 795 839 770
747 3 2 1 1 729 770 839 813
748 3 2 1 1 835 814 781 828
749 3 2 1 1 725 786 816 794
750 3 2 1 1 853 825 788 844
751 3 2 1 1 860 844 788 840
752 3 2 1 1 846 860 840 803
753 3 2 1 1 785 841 846 803
754 3 2 1 1 861 846 841 858
755 3 2 1 1 855 859 861 845
756 3 2 1 1 164 63 64 142
757 3 2 1 1 287 255 217 151
758 3 2 1 1 195 284 211 152
759 3 2 1 1 486 396 303 374
760 3 2 1 1 535 404 322 435
761 3 2 1 1 322 387 517 435
762 3 2 1 1 617 542 435 517
763 3 2 1 1 505 465 586 578
764 3 2 1 1 624 568 481 541
765 3 2 1 1 607 558 492 592
766 3 2 1 1 435 542 633 535
767 3 2 1 1 491 557 672 591
768 3 2 1 1 543 627 716 639
769 3 2 1 1 734 744 664 704
770 3 2 1 1 639 725 785 714
771 3 2 1 1 803 735 714 785
772 3 2 1 1 222 118 119 163
773 3 2 1 1 190 283 209 147
774 3 2 1 1 347 288 401 456
775 3 2 1 1 279 333 391 372
776 3 2 1 1 434 391 482 541
777 3 2 1 1 634 583 534 436
778 3 2 1 1 584 679 606 501
779 3 2 1 1 615 565 526 660
780 3 2 1 1 678 654 624 567
781 3 2 1 1 691 716 627 662
782 3 2 1 1 786 725 639 716
783 3 2 1 1 718 699 654 678
784 3 2 1 1 340 338 284 195
785 3 2 1 1 162 225 78 79
786 3 2 1 1 333 351 471 383
787 3 2 1 1 251 133 41 42
788 3 2 1 1 824 823 796 797
789 3 2 1 1 791 796 823 822
790 3 2 1 1 792 767 723 843
791 3 2 1 1 797 796 762 726
792 3 2 1 1 848 792 843 847
793 3 2 1 1 767 719 680 723
794 3 2 1 1 736 720 594 645
795 3 2 1 1 726 762 736 697
796 3 2 1 1 843 723 768 791
797 3 2 1 1 594 720 680 679
798 3 2 1 1 583 594 679 584
799 3 2 1 1 634 645 594 583
800 3 2 1 1 723 680 720 768
$EndElements
