$MeshFormat
2.2 0 8
$EndMeshFormat
$Nodes
426
1 -2.32 -10.98 0
2 5.74 -10.98 0
3 5.74 -17.49 0
4 -2.32 -17.49 0
5 -31.54 10.5 0
6 13.72 10.5 0
7 -31.54 -23.97 0
8 13.72 -23.97 0
9 -0.305000000000001 -10.98 0
10 1.71 -10.98 0
11 3.725 -10.98 0
12 5.74 -13.15 0
13 5.74 -15.32 0
14 3.725 -17.49 0
15 1.71 -17.49 0
16 -0.304999999999996 -17.49 0
17 -2.32 -15.32 0
18 -2.32 -13.15 0
19 -29.5721739130435 10.5 0
20 -27.604347826087 10.5 0
21 -25.6365217391304 10.5 0
22 -23.6686956521739 10.5 0
23 -21.7008695652174 10.5 0
24 -19.7330434782609 10.5 0
25 -17.7652173913044 10.5 0
26 -15.7973913043478 10.5 0
27 -13.8295652173913 10.5 0
28 -11.8617391304348 10.5 0
29 -9.89391304347827 10.5 0
30 -7.92608695652175 10.5 0
31 -5.95826086956522 10.5 0
32 -3.9904347826087 10.5 0
33 -2.02260869565218 10.5 0
34 -0.0547826086956582 10.5 0
35 1.91304347826087 10.5 0
36 3.88086956521739 10.5 0
37 5.84869565217391 10.5 0
38 7.81652173913043 10.5 0
39 9.78434782608696 10.5 0
40 11.7521739130435 10.5 0
41 -31.54 -21.9423529411765 0
42 -31.54 -19.9147058823529 0
43 -31.54 -17.8870588235294 0
44 -31.54 -15.8594117647059 0
45 -31.54 -13.8317647058823 0
46 -31.54 -11.8041176470588 0
47 -31.54 -9.77647058823529 0
48 -31.54 -7.74882352941176 0
49 -31.54 -5.72117647058823 0
50 -31.54 -3.6935294117647 0
51 -31.54 -1.66588235294117 0
52 -31.54 0.361764705882359 0
53 -31.54 2.38941176470589 0
54 -31.54 4.41705882352942 0
55 -31.54 6.44470588235294 0
56 -31.54 8.47235294117647 0
57 13.72 8.47235294117647 0
58 13.72 6.44470588235294 0
59 13.72 4.4170588235294 0
60 13.72 2.38941176470587 0
61 13.72 0.361764705882346 0
62 13.72 -1.66588235294118 0
63 13.72 -3.69352941176471 0
64 13.72 -5.72117647058824 0
65 13.72 -7.74882352941177 0
66 13.72 -9.7764705882353 0
67 13.72 -11.8041176470588 0
68 13.72 -13.8317647058824 0
69 13.72 -15.8594117647059 0
70 13.72 -17.8870588235294 0
71 13.72 -19.9147058823529 0
72 13.72 -21.9423529411765 0
73 11.7521739130435 -23.97 0
74 9.78434782608696 -23.97 0
75 7.81652173913044 -23.97 0
76 5.84869565217392 -23.97 0
77 3.8808695652174 -23.97 0
78 1.91304347826088 -23.97 0
79 -0.0547826086956443 -23.97 0
80 -2.02260869565216 -23.97 0
81 -3.99043478260869 -23.97 0
82 -5.95826086956521 -23.97 0
83 -7.92608695652173 -23.97 0
84 -9.89391304347825 -23.97 0
85 -11.8617391304348 -23.97 0
86 -13.8295652173913 -23.97 0
87 -15.7973913043478 -23.97 0
88 -17.7652173913043 -23.97 0
89 -19.7330434782609 -23.97 0
90 -21.7008695652174 -23.97 0
91 -23.6686956521739 -23.97 0
92 -25.6365217391304 -23.97 0
93 -27.604347826087 -23.97 0
94 -29.5721739130435 -23.97 0
95 -29.5175439029932 -9.77840366525612 0
96 -0.0559371136529221 8.52727902372724 0
97 -13.8264603656015 8.52739856504347 0
98 -5.95976814305496 8.52750819561683 0
99 -0.297183056476828 -8.97561864779214 0
100 -29.5200661981708 -3.6903337573803 0
101 -19.73078915119 8.5246657535996 0
102 -17.7659688186166 -21.9901207957066 0
103 -4.37239190410345 -11.1630339644103 0
104 11.6958811602726 0.372056528935381 0
105 -11.8558002128456 -21.9647441666448 0
106 -29.5417802979634 2.43732605096165 0
107 7.78642881585585 8.52030741162895 0
108 -4.35567530068234 -15.4786819191215 0
109 -7.95351212781406 -21.95849820973 0
110 -25.6230483646765 8.51805443759759 0
111 -29.5505254406274 -17.9166402346351 0
112 11.747926697448 -17.8477741342792 0
113 11.722252074589 -9.67301254944381 0
114 11.6812713885293 -3.68772007276735 0
115 3.74513756924022 -8.97462773672993 0
116 -23.6831078756807 -21.9663547236972 0
117 7.77295340415897 -15.4500280588829 0
118 1.86148936658849 -21.7947963007567 0
119 5.82550902566653 -21.8465202250696 0
120 -4.06029581029749 -21.8998080891068 0
121 11.7221480084404 6.46896145816646 0
122 -29.5488344747693 6.48445816254015 0
123 11.7476378678443 -13.6949601161309 0
124 7.77449430588694 -13.3111271486858 0
125 3.78903028414951 -19.6458731480494 0
126 1.78764365891253 -19.6369090118397 0
127 -0.21064691642035 -19.6476024369456 0
128 -2.09900736105491 -21.8420583603588 0
129 11.7377226194952 8.48907132153372 0
130 -27.5876724725484 8.50892948667479 0
131 11.74343921123 -19.9068153687142 0
132 9.77096746867553 -21.9349883878591 0
133 -29.5668542501416 -21.9567015183202 0
134 11.7105867146284 4.43912809505074 0
135 -29.5424914026681 -15.886189437706 0
136 -29.5338345231598 -13.8506916457429 0
137 -29.5278773034436 -1.65132810899408 0
138 11.6854581170124 -5.69734125212956 0
139 -29.5160298490746 -7.74928359116798 0
140 -9.89254239018074 8.52749560077416 0
141 -2.02403952936382 8.52730251962043 0
142 3.86706818799955 8.52718212007215 0
143 -15.7941893724609 8.52661915100471 0
144 -21.6968403175115 8.52242928183027 0
145 -15.7929931861581 -21.9837506795075 0
146 -21.711696360169 -21.9800644415459 0
147 -29.5610266590332 8.49231930219837 0
148 11.7456745893815 -21.9423707178557 0
149 -27.6042450139623 -21.9608874697993 0
150 -27.4992219571011 -9.78280738830348 0
151 -13.819347629556 6.55105538252355 0
152 -0.0564608431388128 6.55261533618421 0
153 -27.5165420603689 -1.64625357462805 0
154 -17.7564380878837 -19.9966419997914 0
155 -27.5630044387409 -15.9221898697179 0
156 -19.7275750151426 6.53936246560175 0
157 5.75673726191164 -9.05677870834892 0
158 -4.27433315967761 -17.6539895586986 0
159 -23.6839384777138 -19.9794037269421 0
160 9.76635656729142 -19.8597059963301 0
161 9.6540641780054 -3.61151308996806 0
162 7.76761307538306 -11.241008715581 0
163 7.76847978674218 -17.6272238118791 0
164 -4.16289464807035 -19.7918471046437 0
165 5.78555730138293 -19.6996933294907 0
166 -4.37807717137543 -13.303625214793 0
167 -27.5968647096387 -19.9557063941846 0
168 9.70954386990187 4.47143184743964 0
169 -4.34620039847959 -9.09523885398523 0
170 -29.5447259479232 4.46673029801244 0
171 11.7033895786545 2.40648846320906 0
172 -29.5374546570726 0.393813305300893 0
173 11.6895113937522 -1.65381026457115 0
174 -29.5253610038601 -11.8137135021979 0
175 -29.5171335507567 -5.72090337972994 0
176 11.7045190264225 -7.67917962510007 0
177 1.72439540826717 -8.96722750679526 0
178 -2.32080957218077 -9.01779465289606 0
179 -29.5623000463755 -19.9371461088852 0
180 -3.99234020147191 8.52722484021623 0
181 -11.8587072273007 8.52707565357052 0
182 -7.92593377152569 8.52730231232996 0
183 1.9076940591026 8.52684291472817 0
184 -17.7623518870355 8.52491159881142 0
185 -13.8229706596888 -21.971296804108 0
186 5.82392397993 8.52499907213839 0
187 -19.7381748020799 -21.9864928450645 0
188 -23.6599732133368 8.51970992636493 0
189 11.7510987570829 -15.7591696534098 0
190 11.7389120833409 -11.656203501626 0
191 3.84254055895967 -21.8125317437434 0
192 -0.124343917917369 -21.8094383140517 0
193 9.75849679843882 8.50470170080875 0
194 -9.90461278946974 -21.9605711421968 0
195 7.79748190378884 -21.8915525929374 0
196 -25.6443405562279 -21.9614526035634 0
197 -6.01540073988037 -21.9345848919758 0
198 -27.5724018447038 6.51245215827386 0
199 9.76918232573907 -13.5128556342149 0
200 -2.19710972613861 -19.6967569639364 0
201 -5.95558874880108 6.55219032713852 0
202 -4.32116106379358 -7.07135670796202 0
203 -6.36361722606906 -9.20516484650053 0
204 -6.36516509306037 -15.6392044064494 0
205 1.72824013882655 -6.96151871508121 0
206 -11.8897208271731 -19.9445159326465 0
207 -27.516414765962 -11.8271946948685 0
208 -2.02329611538199 6.5521613766917 0
209 -15.7888974013016 6.54897180384962 0
210 -21.7116437148606 -19.9940631368988 0
211 7.75005337821973 -9.25162208938051 0
212 3.8512663024614 6.55263573788208 0
213 9.67299959726936 -5.56841851820052 0
214 -8.04906744506769 -19.9301859103015 0
215 -6.40749180962032 -11.3112687049498 0
216 -27.5836269093579 -17.9452268227197 0
217 7.75633927227558 6.52379956790557 0
218 -27.5621245400274 4.49972637611302 0
219 9.69150375290083 2.43722718906419 0
220 -27.5359853025212 0.409626048404405 0
221 -27.5413967098699 -13.8779717783319 0
222 9.65862608139338 -1.6091761999835 0
223 -2.31057636074759 -7.00943092148315 0
224 -27.4958548683684 -5.72232005789858 0
225 -27.5032389169361 -3.69050583012173 0
226 -27.4953784575719 -7.75126127401937 0
227 5.73362044366014 -7.10979779984188 0
228 -15.781900927321 -19.9791027600715 0
229 -9.8841965723135 6.55091368654058 0
230 -21.6896832716559 6.52994308237654 0
231 -11.8501269114863 6.55026229174783 0
232 7.77921569009897 -19.7757136386879 0
233 -17.7591971823572 6.54412954598351 0
234 1.90198794727236 6.5539008433469 0
235 -19.7329093433828 -19.9978013975652 0
236 -6.11973645827351 -19.8729563177854 0
237 9.70731322953464 -7.51368617810145 0
238 9.73501961174118 6.49420461877878 0
239 -25.6074097900326 6.52164834285651 0
240 -25.6403849548009 -19.9682275650463 0
241 9.76745700185287 -17.742099555275 0
242 9.73718122988268 -9.47231959936662 0
243 9.76697769263894 -15.6169152353641 0
244 9.7553701676995 -11.4694791805628 0
245 -25.4893113451026 -3.69693555472876 0
246 -13.8093807687261 4.56674575243311 0
247 -6.30891712949424 -7.17164374431141 0
248 -4.29171771365688 -5.07703418653014 0
249 -0.0618443008803801 4.58513591684941 0
250 -17.7242318135803 -17.9850430117726 0
251 -8.365207543699 -9.32634415975679 0
252 -19.7212673493505 4.53413486468572 0
253 -25.5524244282549 -13.9038683052346 0
254 -23.6613002869096 -17.9932774582266 0
255 -25.4766971980505 -7.75079224789637 0
256 -25.5919909824319 4.50322426808196 0
257 7.63610341498434 -1.49276160974087 0
258 -8.19804455422456 -17.8742154589826 0
259 -27.5525234468536 2.45805262843738 0
260 7.69470324381432 2.4982226823505 0
261 7.72977806281032 4.51518781348266 0
262 9.67469860865588 0.41574847139341 0
263 -25.5405900866831 0.393240545752084 0
264 -6.41114587228451 -13.4697257629269 0
265 -0.292410505097801 -6.97510493078927 0
266 3.73369671200606 -7.00422778982946 0
267 -25.5113254320358 -11.839649278822 0
268 -7.91825400550008 6.55090737552525 0
269 5.79946151759949 6.54152618994366 0
270 -3.98942815098086 6.55210029071537 0
271 -23.6479410510174 6.52157788927755 0
272 -13.8287430131522 -19.9570080909215 0
273 -9.86622916034384 4.56511488546201 0
274 -15.782846206796 4.56223532315936 0
275 3.82880945058759 4.58769185012086 0
276 -21.6832385505949 -17.9979531902546 0
277 -9.97681989714496 -19.9394908246978 0
278 7.67726727120855 -5.37367043243468 0
279 -25.6215676941199 -17.9714665945326 0
280 -6.24514140523808 -17.7696069301757 0
281 7.71710671023469 -7.30678379683731 0
282 -13.8003393845561 2.57155756749371 0
283 -8.27676955994465 -7.27914003317956 0
284 -5.94220203137297 4.5756830918804 0
285 -0.295079684682689 -4.9752995922285 0
286 -11.9871730198839 -17.9270682286216 0
287 -23.560284898985 -13.9216161077971 0
288 -21.67820095479 4.5103480831885 0
289 -8.33688658012684 -15.7711642774928 0
290 3.70112851902445 -5.03655390331197 0
291 -23.6151254905046 -15.9710499346127 0
292 -25.5721202959856 2.45086861019139 0
293 7.66241640222193 0.502454770074119 0
294 -25.511917435256 -1.66015521092998 0
295 -2.29847336404494 -5.01379090526299 0
296 -25.4875337481783 -9.78806540530183 0
297 -25.4799258769321 -5.72327740679307 0
298 7.64785457973306 -3.43494700726568 0
299 -8.41991358960009 -11.4624857178363 0
300 -11.8360703048893 4.56379774606077 0
301 1.88627461072405 4.59278178628405 0
302 -15.7762325297987 -17.9643649824262 0
303 -2.02183191312166 4.58348927393551 0
304 -17.7535152420126 4.54998451568718 0
305 -19.6964842271782 -17.9937923279118 0
306 -6.24782539297597 -5.18845894589448 0
307 -7.90184084638612 4.56871889786677 0
308 5.68799100167963 -5.18236644229308 0
309 -23.6322711488149 4.4954812357668 0
310 -10.109392254795 -17.9107991777012 0
311 5.77051150477031 4.55891417309448 0
312 -25.5899885676006 -15.9462888143739 0
313 -10.2402142036583 -7.37631165855172 0
314 -23.46887960948 -5.72086443012284 0
315 -19.6967265183984 2.50750485921716 0
316 -5.94661409666029 2.61070641503744 0
317 -0.0950354740690829 2.65576279255374 0
318 -17.7023856450684 -15.9789079522751 0
319 -6.1782438280798 -3.22232210846776 0
320 -2.26678606840255 -3.04581560923714 0
321 -23.6060361800809 2.44262224611072 0
322 5.67835125034057 0.632564290146488 0
323 3.66998669571254 -3.09421448437956 0
324 -8.41001631390503 -13.6245797979575 0
325 3.78466420417835 2.64983344703285 0
326 -21.6247179196858 -15.9758228373149 0
327 -23.5646499496361 0.384329249179313 0
328 -23.5222866014445 -1.66012157582156 0
329 -23.4794329409263 -9.7880049529096 0
330 1.70688762146436 -4.98785001992668 0
331 -23.5116808366242 -11.8503478770531 0
332 5.64956010550991 -1.30929275240418 0
333 -10.34680670173 -9.46710175515773 0
334 -15.7699793799314 2.55834104065908 0
335 -9.85696421878179 2.57130061946758 0
336 -3.98321054831711 4.58205305793535 0
337 -13.8747797994952 -17.9448918187173 0
338 -8.17312553558968 -5.29807635097386 0
339 -11.8284611169165 2.57055279162565 0
340 5.73116470131066 2.5875002189592 0
341 5.65992371855193 -3.2517835752104 0
342 -10.2581900042235 -15.8528879744731 0
343 -12.1917832317843 -7.51758883862692 0
344 -13.7977537704618 0.562246946460848 0
345 -8.08514312147578 -3.32682913637896 0
346 -10.3666583527787 -13.7484176511216 0
347 -21.5312910648203 -11.8751461581448 0
348 -0.284045388091358 -3.01939909632679 0
349 -2.0443222013438 2.64924677047437 0
350 3.7267594078554 0.737263421929328 0
351 -10.3907987785636 -11.6101416849818 0
352 -21.6057661702365 0.418182456390918 0
353 -21.57297969256 -13.9346007194655 0
354 -4.2296157809182 -3.12157923877463 0
355 -23.4691819059219 -7.74796474725157 0
356 -23.4904159603966 -3.69266070964071 0
357 -7.90375212729132 2.58830132254222 0
358 -15.828833044275 -15.9734438268798 0
359 -17.7322744749911 2.53583876926128 0
360 1.84196277522684 2.66560796508738 0
361 -19.649849897345 -15.9788649523905 0
362 -9.88318527583279 0.582312751518528 0
363 1.69748091010996 -3.03412970166251 0
364 -3.99878468073152 2.63609625757844 0
365 -21.6494727141263 2.47145915965678 0
366 -10.1088676635067 -5.36975727313044 0
367 3.68634159594847 -1.18147780124706 0
368 -12.1292520748655 -15.9051573962133 0
369 -21.5111250222036 -3.69543063267723 0
370 -12.0604499764465 -5.45746502878862 0
371 -6.00463070323066 0.668683328723432 0
372 -17.7341647458479 -14.0015654908271 0
373 -0.166490873189055 0.775843018733623 0
374 -2.11168275112649 0.75678351663811 0
375 -12.3231631497373 -11.7713301547809 0
376 -12.2775244662279 -9.64612667793381 0
377 -12.2513413738901 -13.8606857934487 0
378 -8.01083500321591 -1.35196104881272 0
379 -21.556146358935 -1.63704751079889 0
380 -21.5126959148736 -9.82184254086335 0
381 -21.4951815345225 -5.74223688553117 0
382 -11.8413317371456 0.576568131198094 0
383 -15.7503456582279 0.522896263633416 0
384 -13.9842404057926 -15.9501948188897 0
385 -7.9471566352576 0.620902621581916 0
386 -10.0073037596697 -3.38079501027834 0
387 1.77813292912055 0.772550431092499 0
388 -19.6494855022393 0.457671209505525 0
389 -19.6288951068489 -13.9645357022637 0
390 -6.08831422054972 -1.26777699346288 0
391 -4.14351687108934 -1.19366617444102 0
392 -2.19230914740398 -1.13947005785823 0
393 -0.235506203108936 -1.1143157078477 0
394 1.72797257693126 -1.12975276687167 0
395 -19.5843873217753 -3.72894194770018 0
396 -14.1008668381423 -7.72303982530357 0
397 -13.8222055809878 -1.46808960995219 0
398 -15.9261675534803 -14.0089567982131 0
399 -14.1581695425059 -9.8465387136963 0
400 -19.6106543433821 -1.62997117997181 0
401 -9.94016700379633 -1.39264306931107 0
402 -19.6239131495618 -11.94679730649 0
403 -21.5045580380997 -7.78660408534516 0
404 -17.6988481822788 0.480025932487488 0
405 -11.9549127951436 -3.43093544143089 0
406 -4.05916521665206 0.715065094627562 0
407 -14.1018960851066 -13.9524093888995 0
408 -13.9928457502097 -5.61296996763347 0
409 -15.7563803221753 -1.55432871551014 0
410 -15.9516211923472 -7.89199177830055 0
411 -19.6241615075776 -9.91657884417213 0
412 -19.5956259907232 -5.81283427740398 0
413 -15.9744848395612 -12.0193291054094 0
414 -11.8852838256013 -1.42563453382764 0
415 -14.1500776821406 -11.9093410460993 0
416 -17.6838073708826 -1.61784690217214 0
417 -17.7788973820925 -12.0113290543934 0
418 -17.7037082158986 -3.73488884893158 0
419 -15.9718004074169 -9.95927619948995 0
420 -15.880184943108 -5.76540976104442 0
421 -19.6214097759277 -7.87383463294494 0
422 -13.8926334167479 -3.53390328532745 0
423 -17.792266937608 -9.97357511511509 0
424 -15.8082455842512 -3.65077282420789 0
425 -17.7440495818836 -5.83212163555115 0
426 -17.7785329925535 -7.90289167222591 0
$EndNodes
$Elements
379
1 3 2 1 1 289 204 280 258
2 3 2 1 1 346 351 299 324
3 3 2 1 1 419 410 396 399
4 3 2 1 1 192 128 200 127
5 3 2 1 1 119 191 125 165
6 3 2 1 1 191 118 126 125
7 3 2 1 1 118 192 127 126
8 3 2 1 1 164 236 280 158
9 3 2 1 1 419 423 426 410
10 3 2 1 1 400 416 418 395
11 3 2 1 1 353 347 402 389
12 3 2 1 1 352 327 321 365
13 3 2 1 1 291 287 353 326
14 3 2 1 1 376 375 415 399
15 3 2 1 1 287 291 312 253
16 3 2 1 1 327 263 292 321
17 3 2 1 1 263 220 259 292
18 3 2 1 1 351 346 377 375
19 3 2 1 1 385 378 401 362
20 3 2 1 1 401 378 345 386
21 3 2 1 1 167 216 279 240
22 3 2 1 1 241 163 117 243
23 3 2 1 1 243 189 112 241
24 3 2 1 1 166 103 1 18
25 3 2 1 1 424 420 425 418
26 3 2 1 1 340 260 293 322
27 3 2 1 1 232 165 3 163
28 3 2 1 1 386 366 370 405
29 3 2 1 1 342 289 258 310
30 3 2 1 1 129 121 238 193
31 3 2 1 1 426 425 420 410
32 3 2 1 1 167 179 111 216
33 3 2 1 1 3 13 117 163
34 3 2 1 1 280 204 108 158
35 3 2 1 1 386 405 414 401
36 3 2 1 1 377 346 342 368
37 3 2 1 1 368 342 310 286
38 3 2 1 1 108 204 264 166
39 3 2 1 1 12 2 162 124
40 3 2 1 1 289 324 264 204
41 3 2 1 1 164 158 4 200
42 3 2 1 1 400 395 369 379
43 3 2 1 1 7 41 133 94
44 3 2 1 1 17 4 158 108
45 3 2 1 1 122 147 130 198
46 3 2 1 1 324 299 215 264
47 3 2 1 1 259 220 172 106
48 3 2 1 1 131 148 132 160
49 3 2 1 1 277 206 286 310
50 3 2 1 1 360 387 373 317
51 3 2 1 1 350 322 332 367
52 3 2 1 1 293 262 222 257
53 3 2 1 1 375 377 407 415
54 3 2 1 1 361 389 372 318
55 3 2 1 1 198 239 256 218
56 3 2 1 1 312 155 221 253
57 3 2 1 1 18 17 108 166
58 3 2 1 1 238 121 134 168
59 3 2 1 1 56 5 19 147
60 3 2 1 1 269 311 275 212
61 3 2 1 1 72 8 73 148
62 3 2 1 1 193 238 217 107
63 3 2 1 1 124 117 13 12
64 3 2 1 1 165 232 195 119
65 3 2 1 1 103 166 264 215
66 3 2 1 1 384 358 398 407
67 3 2 1 1 353 287 331 347
68 3 2 1 1 168 261 217 238
69 3 2 1 1 197 109 214 236
70 3 2 1 1 124 199 243 117
71 3 2 1 1 161 222 173 114
72 3 2 1 1 240 279 254 159
73 3 2 1 1 357 316 371 385
74 3 2 1 1 262 293 260 219
75 3 2 1 1 271 230 288 309
76 3 2 1 1 207 221 136 174
77 3 2 1 1 290 330 363 323
78 3 2 1 1 339 335 362 382
79 3 2 1 1 219 171 104 262
80 3 2 1 1 404 383 409 416
81 3 2 1 1 237 176 113 242
82 3 2 1 1 380 347 331 329
83 3 2 1 1 203 215 299 251
84 3 2 1 1 332 257 298 341
85 3 2 1 1 221 207 267 253
86 3 2 1 1 421 411 380 403
87 3 2 1 1 393 394 363 348
88 3 2 1 1 260 340 311 261
89 3 2 1 1 213 138 176 237
90 3 2 1 1 300 273 335 339
91 3 2 1 1 162 2 157 211
92 3 2 1 1 329 296 255 355
93 3 2 1 1 186 269 212 142
94 3 2 1 1 111 135 155 216
95 3 2 1 1 296 329 331 267
96 3 2 1 1 314 297 245 356
97 3 2 1 1 307 284 316 357
98 3 2 1 1 293 257 332 322
99 3 2 1 1 224 175 100 225
100 3 2 1 1 320 295 248 354
101 3 2 1 1 255 226 224 297
102 3 2 1 1 369 356 328 379
103 3 2 1 1 129 57 58 121
104 3 2 1 1 112 70 71 131
105 3 2 1 1 148 131 71 72
106 3 2 1 1 245 225 153 294
107 3 2 1 1 172 220 153 137
108 3 2 1 1 323 341 308 290
109 3 2 1 1 329 355 403 380
110 3 2 1 1 285 265 223 295
111 3 2 1 1 337 384 368 286
112 3 2 1 1 290 266 205 330
113 3 2 1 1 147 122 55 56
114 3 2 1 1 179 42 43 111
115 3 2 1 1 261 168 219 260
116 3 2 1 1 169 202 223 178
117 3 2 1 1 126 15 14 125
118 3 2 1 1 127 16 15 126
119 3 2 1 1 125 14 3 165
120 3 2 1 1 173 222 262 104
121 3 2 1 1 130 110 239 198
122 3 2 1 1 233 209 274 304
123 3 2 1 1 256 292 259 218
124 3 2 1 1 133 41 42 179
125 3 2 1 1 272 337 286 206
126 3 2 1 1 222 161 298 257
127 3 2 1 1 255 296 150 226
128 3 2 1 1 296 267 207 150
129 3 2 1 1 121 58 59 134
130 3 2 1 1 171 134 59 60
131 3 2 1 1 354 391 392 320
132 3 2 1 1 205 177 99 265
133 3 2 1 1 227 266 290 308
134 3 2 1 1 328 294 263 327
135 3 2 1 1 122 170 54 55
136 3 2 1 1 274 246 282 334
137 3 2 1 1 253 267 331 287
138 3 2 1 1 268 201 284 307
139 3 2 1 1 111 43 44 135
140 3 2 1 1 136 135 44 45
141 3 2 1 1 231 229 273 300
142 3 2 1 1 367 323 363 394
143 3 2 1 1 270 336 284 201
144 3 2 1 1 391 354 319 390
145 3 2 1 1 421 403 381 412
146 3 2 1 1 247 306 248 202
147 3 2 1 1 184 143 209 233
148 3 2 1 1 392 393 348 320
149 3 2 1 1 356 369 381 314
150 3 2 1 1 104 171 60 61
151 3 2 1 1 403 355 314 381
152 3 2 1 1 202 248 295 223
153 3 2 1 1 306 319 354 248
154 3 2 1 1 170 106 53 54
155 3 2 1 1 137 153 225 100
156 3 2 1 1 174 136 45 46
157 3 2 1 1 203 247 202 169
158 3 2 1 1 375 376 333 351
159 3 2 1 1 227 157 115 266
160 3 2 1 1 106 172 52 53
161 3 2 1 1 348 363 330 285
162 3 2 1 1 294 328 356 245
163 3 2 1 1 175 224 226 139
164 3 2 1 1 171 219 168 134
165 3 2 1 1 187 146 210 235
166 3 2 1 1 178 223 265 99
167 3 2 1 1 100 50 51 137
168 3 2 1 1 172 137 51 52
169 3 2 1 1 103 169 178 1
170 3 2 1 1 295 320 348 285
171 3 2 1 1 265 285 330 205
172 3 2 1 1 211 157 227 281
173 3 2 1 1 298 161 213 278
174 3 2 1 1 401 414 382 362
175 3 2 1 1 177 205 266 115
176 3 2 1 1 127 200 4 16
177 3 2 1 1 225 245 297 224
178 3 2 1 1 220 263 294 153
179 3 2 1 1 135 136 221 155
180 3 2 1 1 173 104 61 62
181 3 2 1 1 351 333 251 299
182 3 2 1 1 367 332 341 323
183 3 2 1 1 426 421 412 425
184 3 2 1 1 114 173 62 63
185 3 2 1 1 278 308 341 298
186 3 2 1 1 114 138 213 161
187 3 2 1 1 181 140 229 231
188 3 2 1 1 99 9 1 178
189 3 2 1 1 174 95 150 207
190 3 2 1 1 95 174 46 47
191 3 2 1 1 234 212 275 301
192 3 2 1 1 237 281 278 213
193 3 2 1 1 327 352 379 328
194 3 2 1 1 182 268 229 140
195 3 2 1 1 138 114 63 64
196 3 2 1 1 100 175 49 50
197 3 2 1 1 95 139 226 150
198 3 2 1 1 176 138 64 65
199 3 2 1 1 297 314 355 255
200 3 2 1 1 113 176 65 66
201 3 2 1 1 336 303 349 364
202 3 2 1 1 395 418 425 412
203 3 2 1 1 359 404 388 315
204 3 2 1 1 190 113 66 67
205 3 2 1 1 369 395 412 381
206 3 2 1 1 256 309 321 292
207 3 2 1 1 95 47 48 139
208 3 2 1 1 175 139 48 49
209 3 2 1 1 304 359 315 252
210 3 2 1 1 99 177 10 9
211 3 2 1 1 235 210 276 305
212 3 2 1 1 364 349 374 406
213 3 2 1 1 399 396 343 376
214 3 2 1 1 215 203 169 103
215 3 2 1 1 313 333 376 343
216 3 2 1 1 209 151 246 274
217 3 2 1 1 347 380 411 402
218 3 2 1 1 236 214 258 280
219 3 2 1 1 177 115 11 10
220 3 2 1 1 368 384 407 377
221 3 2 1 1 239 271 309 256
222 3 2 1 1 333 313 283 251
223 3 2 1 1 115 157 2 11
224 3 2 1 1 305 250 154 235
225 3 2 1 1 141 208 270 180
226 3 2 1 1 208 303 336 270
227 3 2 1 1 152 249 303 208
228 3 2 1 1 185 272 206 105
229 3 2 1 1 301 249 152 234
230 3 2 1 1 418 416 409 424
231 3 2 1 1 397 422 424 409
232 3 2 1 1 233 156 101 184
233 3 2 1 1 274 334 359 304
234 3 2 1 1 231 151 97 181
235 3 2 1 1 144 101 156 230
236 3 2 1 1 334 383 404 359
237 3 2 1 1 398 358 318 372
238 3 2 1 1 310 258 214 277
239 3 2 1 1 339 282 246 300
240 3 2 1 1 406 371 316 364
241 3 2 1 1 182 30 31 98
242 3 2 1 1 180 98 31 32
243 3 2 1 1 180 32 33 141
244 3 2 1 1 183 96 34 35
245 3 2 1 1 181 97 27 28
246 3 2 1 1 181 28 29 140
247 3 2 1 1 182 140 29 30
248 3 2 1 1 270 201 98 180
249 3 2 1 1 268 182 98 201
250 3 2 1 1 209 143 97 151
251 3 2 1 1 208 141 96 152
252 3 2 1 1 154 250 302 228
253 3 2 1 1 414 405 422 397
254 3 2 1 1 324 289 342 346
255 3 2 1 1 357 335 273 307
256 3 2 1 1 302 358 384 337
257 3 2 1 1 349 303 249 317
258 3 2 1 1 382 344 282 339
259 3 2 1 1 188 271 239 110
260 3 2 1 1 146 116 159 210
261 3 2 1 1 156 252 288 230
262 3 2 1 1 199 124 162 244
263 3 2 1 1 184 25 26 143
264 3 2 1 1 300 246 151 231
265 3 2 1 1 307 273 229 268
266 3 2 1 1 132 195 232 160
267 3 2 1 1 361 305 276 326
268 3 2 1 1 234 152 96 183
269 3 2 1 1 106 170 218 259
270 3 2 1 1 337 272 228 302
271 3 2 1 1 361 318 250 305
272 3 2 1 1 349 317 373 374
273 3 2 1 1 360 301 275 325
274 3 2 1 1 321 309 288 365
275 3 2 1 1 184 101 24 25
276 3 2 1 1 244 162 211 242
277 3 2 1 1 358 302 250 318
278 3 2 1 1 383 334 282 344
279 3 2 1 1 156 233 304 252
280 3 2 1 1 145 102 154 228
281 3 2 1 1 185 105 85 86
282 3 2 1 1 183 35 36 142
283 3 2 1 1 186 142 36 37
284 3 2 1 1 144 230 271 188
285 3 2 1 1 409 383 344 397
286 3 2 1 1 185 86 87 145
287 3 2 1 1 187 102 88 89
288 3 2 1 1 385 362 335 357
289 3 2 1 1 145 228 272 185
290 3 2 1 1 311 269 217 261
291 3 2 1 1 34 96 141 33
292 3 2 1 1 188 22 23 144
293 3 2 1 1 420 424 422 408
294 3 2 1 1 360 317 249 301
295 3 2 1 1 364 316 284 336
296 3 2 1 1 26 27 97 143
297 3 2 1 1 210 159 254 276
298 3 2 1 1 235 154 102 187
299 3 2 1 1 390 371 406 391
300 3 2 1 1 193 107 38 39
301 3 2 1 1 186 37 38 107
302 3 2 1 1 352 365 315 388
303 3 2 1 1 365 288 252 315
304 3 2 1 1 281 227 308 278
305 3 2 1 1 407 398 413 415
306 3 2 1 1 170 122 198 218
307 3 2 1 1 187 89 90 146
308 3 2 1 1 188 110 21 22
309 3 2 1 1 387 360 325 350
310 3 2 1 1 112 189 69 70
311 3 2 1 1 85 105 194 84
312 3 2 1 1 142 212 234 183
313 3 2 1 1 269 186 107 217
314 3 2 1 1 389 361 326 353
315 3 2 1 1 196 116 91 92
316 3 2 1 1 276 254 291 326
317 3 2 1 1 191 119 76 77
318 3 2 1 1 191 77 78 118
319 3 2 1 1 192 118 78 79
320 3 2 1 1 195 75 76 119
321 3 2 1 1 192 79 80 128
322 3 2 1 1 179 167 149 133
323 3 2 1 1 197 120 81 82
324 3 2 1 1 23 24 101 144
325 3 2 1 1 88 102 145 87
326 3 2 1 1 149 167 240 196
327 3 2 1 1 163 241 160 232
328 3 2 1 1 240 159 116 196
329 3 2 1 1 394 387 350 367
330 3 2 1 1 147 19 20 130
331 3 2 1 1 195 132 74 75
332 3 2 1 1 148 73 74 132
333 3 2 1 1 194 277 214 109
334 3 2 1 1 275 311 340 325
335 3 2 1 1 57 129 40 6
336 3 2 1 1 193 39 40 129
337 3 2 1 1 133 149 93 94
338 3 2 1 1 196 92 93 149
339 3 2 1 1 90 91 116 146
340 3 2 1 1 155 312 279 216
341 3 2 1 1 112 131 160 241
342 3 2 1 1 390 319 345 378
343 3 2 1 1 197 82 83 109
344 3 2 1 1 277 194 105 206
345 3 2 1 1 190 67 68 123
346 3 2 1 1 397 344 382 414
347 3 2 1 1 80 81 120 128
348 3 2 1 1 20 21 110 130
349 3 2 1 1 200 128 120 164
350 3 2 1 1 83 84 194 109
351 3 2 1 1 68 69 189 123
352 3 2 1 1 236 164 120 197
353 3 2 1 1 254 279 312 291
354 3 2 1 1 391 406 374 392
355 3 2 1 1 244 190 123 199
356 3 2 1 1 281 237 242 211
357 3 2 1 1 416 400 388 404
358 3 2 1 1 247 203 251 283
359 3 2 1 1 402 417 372 389
360 3 2 1 1 242 113 190 244
361 3 2 1 1 343 370 366 313
362 3 2 1 1 396 408 370 343
363 3 2 1 1 199 123 189 243
364 3 2 1 1 410 420 408 396
365 3 2 1 1 405 370 408 422
366 3 2 1 1 322 350 325 340
367 3 2 1 1 306 247 283 338
368 3 2 1 1 421 426 423 411
369 3 2 1 1 319 306 338 345
370 3 2 1 1 313 366 338 283
371 3 2 1 1 378 385 371 390
372 3 2 1 1 417 423 419 413
373 3 2 1 1 379 352 388 400
374 3 2 1 1 398 372 417 413
375 3 2 1 1 392 374 373 393
376 3 2 1 1 411 423 417 402
377 3 2 1 1 366 386 345 338
378 3 2 1 1 399 415 413 419
379 3 2 1 1 393 373 387 394
$EndElements
