$MeshFormat
2.2 0 8
$EndMeshFormat
$Nodes
208
1 300 0 300
2 400 0 300
3 600 0 300
4 700 0 300
5 700 0 400
6 700 0 600
7 700 0 700
8 600 0 700
9 400 0 700
10 300 0 700
11 300 0 600
12 300 0 400
13 0 0 0
14 1000 0 0
15 0 0 1000
16 1000 0 1000
17 425 0 300
18 450 0 300
19 475 0 300
20 500 0 300
21 525 0 300
22 550 0 300
23 575 0 300
24 700 0 425
25 700 0 450
26 700 0 475
27 700 0 500
28 700 0 525
29 700 0 550
30 700 0 575
31 575 0 700
32 550 0 700
33 525 0 700
34 500 0 700
35 475 0 700
36 450 0 700
37 425 0 700
38 300 0 575
39 300 0 550
40 300 0 525
41 300 0 500
42 300 0 475
43 300 0 450
44 300 0 425
45 100 0 0
46 200 0 0
47 300 0 0
48 400 0 0
49 500 0 0
50 600 0 0
51 700 0 0
52 800 0 0
53 900 0 0
54 0 0 900
55 0 0 800
56 0 0 700
57 0 0 600
58 0 0 500
59 0 0 400
60 0 0 300
61 0 0 200
62 0 0 100
63 1000 0 100
64 1000 0 200
65 1000 0 300
66 1000 0 400
67 1000 0 500
68 1000 0 600
69 1000 0 700
70 1000 0 800
71 1000 0 900
72 900 0 1000
73 800 0 1000
74 700 0 1000
75 600 0 1000
76 500 0 1000
77 400 0 1000
78 300 0 1000
79 200 0 1000
80 100 0 1000
81 452.694597922927 0 281.314151382617
82 723.429492219294 0 423.203867143045
83 536.966860481332 0 278.219476960319
84 731.798539007389 0 499.208253776629
85 545.001170573608 0 734.759828821948
86 447.902422108639 0 727.526895712332
87 276.356483221863 0 577.471959675316
88 268.504154738672 0 501.197462099877
89 722.595711154302 0 564.522454057579
90 278.699662332058 0 435.963212724558
91 304.572077268168 0 108.592460990011
92 687.837551541867 0 221.035288392627
93 626.515198956209 0 774.771123773691
94 321.696976202949 0 779.883790617829
95 919.128872312873 0 414.801711565484
96 408.721111305132 0 84.9517096412706
97 493.643021247148 0 78.7125536905319
98 84.9360081551245 0 587.279148475683
99 509.057190618866 0 894.825519103008
100 99.6990768326039 0 302.422779235676
101 903.521892818698 0 699.938200442707
102 107.285724246035 0 412.091493368781
103 896.835051331423 0 588.781861470907
104 909.738122704486 0 329.522546590655
105 116.052166518716 0 683.623705943558
106 99.5223803542083 0 101.928958937361
107 901.28356111207 0 900.662623648344
108 377.459037579274 0 237.95231331483
109 804.677580793849 0 904.192278762032
110 714.974890293791 0 912.422924022944
111 666.402012648135 0 120.910841358416
112 892.510686632293 0 107.150178890397
113 308.192419039176 0 897.695208381105
114 107.160445571652 0 796.241827551767
115 251.408022445813 0 365.191811079933
116 756.978085954426 0 634.623154696063
117 206.188554203297 0 896.685523137542
118 103.158178680666 0 898.483645088617
119 503.321885280707 0 273.324545756863
120 729.146743602008 0 439.375629490179
121 482.703258477381 0 722.336429443211
122 270.351094143953 0 561.364692060444
123 730.474728486776 0 531.475958307151
124 270.597250400923 0 469.04180177368
125 433.000923494217 0 267.670581286885
126 614.413655717827 0 243.233830504595
127 576.465212134842 0 736.918845831829
128 391.712250287187 0 742.103860905538
129 761.75131629989 0 423.891366770101
130 237.228721796363 0 576.81189627628
131 767.413558271024 0 497.837543859782
132 233.505406286686 0 502.856047847617
133 919.325706835226 0 497.18211164058
134 82.181694659224 0 503.625244800224
135 576.947052235545 0 917.285487957752
136 416.526552654755 0 818.394511466361
137 573.388826312045 0 190.654432600772
138 776.887802484304 0 212.053745510796
139 211.322596871223 0 794.18999385052
140 293.660484391008 0 215.153476489285
141 806.751190347125 0 805.760461028598
142 406.361003953898 0 901.775663806312
143 573.903436386619 0 85.2162298262065
144 826.25767002312 0 368.776579920663
145 169.367007583944 0 628.72827684979
146 768.115583028121 0 538.853444995729
147 235.798296190806 0 461.845878863903
148 199.648970262366 0 104.393315110367
149 98.8970514084458 0 202.340647533437
150 902.983942493209 0 801.539547425699
151 878.66762319731 0 231.22866430545
152 786.733349111169 0 110.788260776334
153 535.533053993093 0 773.428226442091
154 461.537574968631 0 248.128333920694
155 425.252468781446 0 154.806120961366
156 472.794988060494 0 275.915185630392
157 731.543281562258 0 468.321652803661
158 523.092698349059 0 730.411536032515
159 268.356349968145 0 532.068856847006
160 742.008979878513 0 611.066316842838
161 263.465636142494 0 389.274482914386
162 606.347213739097 0 733.691496637821
163 576.521045925199 0 261.118497420617
164 423.696818696224 0 722.403432587091
165 195.444317232402 0 299.611937912075
166 811.25594860829 0 705.984730615542
167 443.933616532579 0 209.029911943599
168 808.01729368927 0 494.691736672168
169 193.361350374119 0 506.128455162238
170 492.390837598796 0 760.079792343313
171 559.157253418214 0 830.484837029366
172 504.569120359023 0 240.537602550011
173 494.550174845825 0 143.759220507655
174 219.862455252803 0 700.857752821264
175 820.95179931728 0 299.419810315705
176 765.552026575558 0 460.755526217241
177 234.289042883234 0 539.823956613062
178 485.480648668506 0 819.233905846321
179 716.339436462083 0 821.180252839225
180 198.132533121848 0 204.923382890155
181 247.40720102402 0 420.913617630175
182 759.168096820376 0 579.465990735572
183 766.337787658879 0 300.347479933415
184 575.389450728783 0 780.363186522344
185 852.507744284941 0 432.619773992234
186 149.659272036967 0 568.775362319792
187 753.321309556148 0 380.889436593848
188 373.086929910476 0 168.357475655988
189 152.554749316725 0 461.765391875767
190 851.473912130859 0 538.979139866977
191 822.42995182212 0 608.877103529512
192 857.009001661052 0 493.527095579506
193 145.207445349224 0 507.452443729519
194 202.366020214942 0 388.80158789684
195 548.189043032214 0 246.417005895798
196 243.157169453331 0 623.7715255635
197 434.222927905307 0 761.709367964982
198 526.486328389511 0 808.942985254357
199 794.612788022596 0 417.5965712074
200 203.925480772273 0 582.860953951828
201 629.846257910693 0 857.597475396596
202 549.410294890778 0 138.081685226868
203 501.249804747334 0 196.756600116319
204 191.968828982953 0 456.985974537364
205 814.41748537098 0 543.382592292556
206 804.068786350829 0 449.566386714683
207 195.952543011363 0 550.961840555831
208 653.589692711816 0 919.834496024102
$EndNodes
$Elements
172
1 2 2 1 1 89 6 30 
2 2 2 1 1 30 29 89 
3 2 2 1 1 90 12 44 
4 2 2 1 1 44 43 90 
5 2 2 1 1 83 23 22 
6 2 2 1 1 22 21 83 
7 2 2 1 1 121 35 34 
8 2 2 1 1 34 33 121 
9 3 2 1 1 183 138 151 175
10 3 2 1 1 97 173 155 96
11 3 2 1 1 121 170 197 86
12 3 2 1 1 94 136 142 113
13 3 2 1 1 186 145 105 98
14 3 2 1 1 185 144 104 95
15 3 2 1 1 204 189 102 194
16 3 2 1 1 136 178 99 142
17 3 2 1 1 196 174 105 145
18 3 2 1 1 163 195 137 126
19 3 2 1 1 111 137 202 143
20 3 2 1 1 193 134 102 189
21 3 2 1 1 192 133 103 190
22 3 2 1 1 1 115 194 165
23 3 2 1 1 180 148 91 140
24 3 2 1 1 136 197 170 178
25 3 2 1 1 103 101 166 191
26 3 2 1 1 100 165 194 102
27 3 2 1 1 105 56 57 98
28 3 2 1 1 133 95 66 67
29 3 2 1 1 134 98 57 58
30 3 2 1 1 48 96 91 47
31 3 2 1 1 97 96 48 49
32 3 2 1 1 173 203 167 155
33 3 2 1 1 139 114 105 174
34 3 2 1 1 102 134 58 59
35 3 2 1 1 103 133 67 68
36 3 2 1 1 145 200 130 196
37 3 2 1 1 99 171 201 135
38 3 2 1 1 187 183 175 144
39 3 2 1 1 99 135 75 76
40 3 2 1 1 91 96 155 188
41 3 2 1 1 109 73 74 110
42 3 2 1 1 174 10 94 139
43 3 2 1 1 109 110 179 141
44 3 2 1 1 110 74 75 208
45 3 2 1 1 99 76 77 142
46 3 2 1 1 97 49 50 143
47 3 2 1 1 7 179 201 93
48 3 2 1 1 141 150 107 109
49 3 2 1 1 92 111 152 138
50 3 2 1 1 151 104 144 175
51 3 2 1 1 165 180 140 1
52 3 2 1 1 144 199 129 187
53 3 2 1 1 91 188 108 140
54 3 2 1 1 165 100 149 180
55 3 2 1 1 180 149 106 148
56 3 2 1 1 139 117 118 114
57 3 2 1 1 102 59 60 100
58 3 2 1 1 103 68 69 101
59 3 2 1 1 138 152 112 151
60 3 2 1 1 46 47 91 148
61 3 2 1 1 143 50 51 111
62 3 2 1 1 95 104 65 66
63 3 2 1 1 142 77 78 113
64 3 2 1 1 100 60 61 149
65 3 2 1 1 61 62 106 149
66 3 2 1 1 65 104 151 64
67 3 2 1 1 101 69 70 150
68 3 2 1 1 70 71 107 150
69 3 2 1 1 79 80 118 117
70 3 2 1 1 15 54 118 80
71 3 2 1 1 56 105 114 55
72 3 2 1 1 148 106 45 46
73 3 2 1 1 13 45 106 62
74 3 2 1 1 14 63 112 53
75 3 2 1 1 52 53 112 152
76 3 2 1 1 118 54 55 114
77 3 2 1 1 63 64 151 112
78 3 2 1 1 16 72 107 71
79 3 2 1 1 109 107 72 73
80 3 2 1 1 94 113 117 139
81 3 2 1 1 152 111 51 52
82 3 2 1 1 117 113 78 79
83 3 2 1 1 147 132 169 204
84 3 2 1 1 146 131 168 205
85 3 2 1 1 83 119 172 195
86 3 2 1 1 128 164 86 197
87 3 2 1 1 197 136 94 128
88 3 2 1 1 111 92 126 137
89 3 2 1 1 183 4 92 138
90 3 2 1 1 201 171 184 93
91 3 2 1 1 143 202 173 97
92 3 2 1 1 167 108 188 155
93 3 2 1 1 170 121 33 158
94 3 2 1 1 2 1 140 108
95 3 2 1 1 178 170 153 198
96 3 2 1 1 159 122 130 177
97 3 2 1 1 157 120 129 176
98 3 2 1 1 132 177 207 169
99 3 2 1 1 131 176 206 168
100 3 2 1 1 194 181 147 204
101 3 2 1 1 179 110 208 201
102 3 2 1 1 156 119 20 19
103 3 2 1 1 89 29 28 123
104 3 2 1 1 90 43 42 124
105 3 2 1 1 125 81 18 17
106 3 2 1 1 156 19 18 81
107 3 2 1 1 157 26 25 120
108 3 2 1 1 157 84 27 26
109 3 2 1 1 127 85 32 31
110 3 2 1 1 158 33 32 85
111 3 2 1 1 159 40 39 122
112 3 2 1 1 159 88 41 40
113 3 2 1 1 201 208 75 135
114 3 2 1 1 173 202 137 203
115 3 2 1 1 167 203 172 154
116 3 2 1 1 206 176 129 199
117 3 2 1 1 207 177 130 200
118 3 2 1 1 146 123 84 131
119 3 2 1 1 147 124 88 132
120 3 2 1 1 171 198 153 184
121 3 2 1 1 187 129 120 82
122 3 2 1 1 196 130 122 87
123 3 2 1 1 119 156 154 172
124 3 2 1 1 31 8 162 127
125 3 2 1 1 176 131 84 157
126 3 2 1 1 177 132 88 159
127 3 2 1 1 12 90 181 161
128 3 2 1 1 6 89 182 160
129 3 2 1 1 124 147 181 90
130 3 2 1 1 123 146 182 89
131 3 2 1 1 24 82 120 25
132 3 2 1 1 28 27 84 123
133 3 2 1 1 38 87 122 39
134 3 2 1 1 42 41 88 124
135 3 2 1 1 127 162 93 184
136 3 2 1 1 170 158 85 153
137 3 2 1 1 161 181 194 115
138 3 2 1 1 160 182 191 116
139 3 2 1 1 195 163 23 83
140 3 2 1 1 36 86 164 37
141 3 2 1 1 184 153 85 127
142 3 2 1 1 156 81 125 154
143 3 2 1 1 137 195 172 203
144 3 2 1 1 168 206 185 192
145 3 2 1 1 169 207 186 193
146 3 2 1 1 144 185 206 199
147 3 2 1 1 145 186 207 200
148 3 2 1 1 108 167 154 125
149 3 2 1 1 187 82 24 5
150 3 2 1 1 196 87 38 11
151 3 2 1 1 23 163 126 3
152 3 2 1 1 37 164 128 9
153 3 2 1 1 169 193 189 204
154 3 2 1 1 168 192 190 205
155 3 2 1 1 115 1 12 161
156 3 2 1 1 116 7 6 160
157 3 2 1 1 93 162 8 7
158 3 2 1 1 174 196 11 10
159 3 2 1 1 17 2 108 125
160 3 2 1 1 92 4 3 126
161 3 2 1 1 183 187 5 4
162 3 2 1 1 191 166 7 116
163 3 2 1 1 179 7 166 141
164 3 2 1 1 94 10 9 128
165 3 2 1 1 20 119 83 21
166 3 2 1 1 36 35 121 86
167 3 2 1 1 192 185 95 133
168 3 2 1 1 193 186 98 134
169 3 2 1 1 171 99 178 198
170 3 2 1 1 101 150 141 166
171 3 2 1 1 146 205 191 182
172 3 2 1 1 103 191 205 190
$EndElements
