$MeshFormat
2.2 0 8
$EndMeshFormat
$Nodes
1052
1 0 0 0
2 0 200 0
3 0 200 100
4 0 100 100
5 0 0 100
6 0 10 20
7 0 5 0
8 0 10 0
9 0 15 0
10 0 20 0
11 0 25 0
12 0 30 0
13 0 35 0
14 0 40 0
15 0 45 0
16 0 50 0
17 0 55 0
18 0 60 0
19 0 65 0
20 0 70 0
21 0 75 0
22 0 80 0
23 0 85 0
24 0 90 0
25 0 95 0
26 0 100 0
27 0 105 0
28 0 110 0
29 0 115 0
30 0 120 0
31 0 125 0
32 0 130 0
33 0 135 0
34 0 140 0
35 0 145 0
36 0 150 0
37 0 155 0
38 0 160 0
39 0 165 0
40 0 170 0
41 0 175 0
42 0 180 0
43 0 185 0
44 0 190 0
45 0 195 0
46 0 200 5
47 0 200 10
48 0 200 15
49 0 200 20
50 0 200 25
51 0 200 30
52 0 200 35
53 0 200 40
54 0 200 45
55 0 200 50
56 0 200 55
57 0 200 60
58 0 200 65
59 0 200 70
60 0 200 75
61 0 200 80
62 0 200 85
63 0 200 90
64 0 200 95
65 0 195 100
66 0 190 100
67 0 185 100
68 0 180 100
69 0 175 100
70 0 170 100
71 0 165 100
72 0 160 100
73 0 155 100
74 0 150 100
75 0 145 100
76 0 140 100
77 0 135 100
78 0 130 100
79 0 125 100
80 0 120 100
81 0 115 100
82 0 110 100
83 0 105 100
84 0 95 100
85 0 90 100
86 0 85 100
87 0 80 100
88 0 75 100
89 0 70 100
90 0 65 100
91 0 60 100
92 0 55 100
93 0 50 100
94 0 45 100
95 0 40 100
96 0 35 100
97 0 30 100
98 0 25 100
99 0 20 100
100 0 15 100
101 0 10 100
102 0 5 100
103 0 0 95
104 0 0 90
105 0 0 85
106 0 0 80
107 0 0 75
108 0 0 70
109 0 0 65
110 0 0 60
111 0 0 55
112 0 0 50
113 0 0 45
114 0 0 40
115 0 0 35
116 0 0 30
117 0 0 25
118 0 0 20
119 0 0 15
120 0 0 10
121 0 0 5
122 0 97.3529411764706 97.6470588235294
123 0 94.7058823529412 95.2941176470588
124 0 92.0588235294118 92.9411764705882
125 0 89.4117647058824 90.5882352941177
126 0 86.764705882353 88.2352941176471
127 0 84.1176470588236 85.8823529411765
128 0 81.4705882352941 83.5294117647059
129 0 78.8235294117647 81.1764705882353
130 0 76.1764705882353 78.8235294117647
131 0 73.5294117647059 76.4705882352941
132 0 70.8823529411765 74.1176470588236
133 0 68.2352941176471 71.764705882353
134 0 65.5882352941177 69.4117647058824
135 0 62.9411764705883 67.0588235294118
136 0 60.2941176470588 64.7058823529412
137 0 57.6470588235294 62.3529411764706
138 0 55 60
139 0 52.3529411764706 57.6470588235294
140 0 49.7058823529412 55.2941176470588
141 0 47.0588235294118 52.9411764705882
142 0 44.4117647058824 50.5882352941177
143 0 41.764705882353 48.2352941176471
144 0 39.1176470588235 45.8823529411765
145 0 36.4705882352941 43.5294117647059
146 0 33.8235294117647 41.1764705882353
147 0 31.1764705882353 38.8235294117647
148 0 28.5294117647059 36.4705882352941
149 0 25.8823529411765 34.1176470588235
150 0 23.2352941176471 31.7647058823529
151 0 20.5882352941177 29.4117647058823
152 0 17.9411764705882 27.0588235294118
153 0 15.2941176470588 24.7058823529412
154 0 12.6470588235294 22.3529411764706
155 0 144.998998890306 4.99740790124535
156 0 120.007912343044 4.98448120101578
157 0 149.998064349131 95.0056376703517
158 0 129.982343563424 95.1242931167705
159 0 94.9701923617612 4.90417361326251
160 0 70.0151826104128 4.87962703104859
161 0 195.000093838848 40.0000241236212
162 0 195.000038859063 64.9999979996862
163 0 34.911441411258 95.1484606535075
164 0 50.092434701738 4.83275612838371
165 0 4.84355062409044 65.0048558967912
166 0 170.000064953586 4.99979856258564
167 0 179.99991490018 95.0001094362943
168 0 54.860850402385 95.1950734026584
169 0 29.9580903178392 4.91109869668379
170 0 195.000063094161 25.0000095694494
171 0 4.77743668081129 45.1230100948571
172 0 180.000019979684 4.99995700567955
173 0 69.8193175922307 95.2100050000451
174 0 14.85142547529 4.73920196003312
175 0 20.0142021607394 95.0484610955701
176 0 4.96290169574422 85.0096735534324
177 0 195.000004553439 90.0000022257481
178 0 114.826520477066 95.3377088203569
179 0 97.843008217598 93.6692801978901
180 0 195.000017317859 14.9999950015004
181 0 5.03017698801727 30.3866804252337
182 0 105.014598689391 4.94214231997117
183 0 195.000054156493 55.0000156495749
184 0 130.001791110888 4.99342371388116
185 0 154.99994471415 4.99921569526563
186 0 169.999692054172 95.0002545382402
187 0 85.0331272435499 95.4773506104959
188 0 4.89085027506536 9.68086709325893
189 0 4.86427809547043 14.3504579698253
190 0 5.69391906658116 19.3296180266369
191 0 4.82838854081042 35.1775020058936
192 0 109.895750621792 95.4433979480095
193 0 80.3768958737344 95.4236936426577
194 0 4.7524855983262 50.0807070902502
195 0 4.96779633718062 4.8706522949017
196 0 19.7776062433042 4.75427016399883
197 0 35.1078690984904 4.87086978447446
198 0 49.8321336763216 95.1856164975279
199 0 64.8858644517021 95.2589716515671
200 0 4.87629296686588 70.0255889338773
201 0 4.76018486592298 55.0221173081424
202 0 55.0285528521442 4.8513190407961
203 0 40.1698662148016 4.80884257633073
204 0 29.9573271622627 95.1184457094424
205 0 44.8370246261924 95.1881465727345
206 0 59.9991309242791 4.85915923416058
207 0 75.0043662127158 4.89046654294118
208 0 79.9813518210456 4.89874624239828
209 0 84.9582268468697 4.89942145831486
210 0 110.01845109908 4.95866739061798
211 0 15.0080571597533 95.025957430637
212 0 4.90280207419558 75.0234366115606
213 0 195.00000157501 4.99999866621776
214 0 4.99743029607281 95.0027448410332
215 0 160.000032625472 4.99946160841545
216 0 195.000012719341 85.0000014307485
217 0 134.99954511821 4.99449606615664
218 0 144.9994600779 95.0126300134612
219 0 195.000001408232 95.0000015515017
220 0 195.000074453494 50.0000318396531
221 0 195.000023359769 74.9999943798178
222 0 159.998528699858 95.0010605739943
223 0 185.000009072987 4.9999794662594
224 0 195.00010371176 35.0000200993756
225 0 189.99999925045 95.0000112393777
226 0 124.938012699838 95.2134420215799
227 0 140.002255219635 95.0271092580031
228 0 89.7639013286491 95.4084899057772
229 0 105.164493375506 95.5498660508953
230 0 114.764488355165 90.7443305859321
231 0 149.995012483194 90.019010531832
232 0 105.050938848828 9.83658363902436
233 0 130.009047076055 9.9773834152949
234 0 84.9292738741959 9.73944926858101
235 0 59.9550686703211 9.71274032872584
236 0 34.7760638883961 90.374955517881
237 0 190.000339863245 55.0001705698237
238 0 155.000265395068 9.99715056537679
239 0 9.61265461046509 65.119899121535
240 0 190.000451162061 40.0000368391689
241 0 49.5909936996796 90.4008636013394
242 0 35.4532214405195 9.64797100532932
243 0 9.40787438420683 50.2931818896162
244 0 69.5476033332734 90.6261544109787
245 0 14.4491785153384 9.25790715801875
246 0 9.47577344134415 30.7628102216066
247 0 14.9648473438165 90.0657078917959
248 0 180.000076845704 9.99980048173911
249 0 9.84478168539012 17.0836346493127
250 0 6.26220616449966 25.2657215339008
251 0 92.8635072238218 89.2289772902949
252 0 105.430002140325 91.1938725525041
253 0 75.2091311707782 94.7177659092658
254 0 9.6801900413157 9.36955091494121
255 0 4.81523236738266 40.1279061679267
256 0 119.886954690368 95.2907195082208
257 0 24.7938279638919 4.84266886046672
258 0 59.8862381025457 95.2338741708951
259 0 9.88204022083856 4.75240533085967
260 0 4.78624825815176 60.0131484527492
261 0 45.1486373025147 4.80270845870678
262 0 50.1765266596323 9.58717154514231
263 0 39.8645057756264 95.1841560031915
264 0 9.6850454429659 70.1136708396218
265 0 65.0034175308783 4.86470326087488
266 0 79.9939669995034 9.72671731154506
267 0 70.0699759647022 9.74301601503248
268 0 89.9564339918822 4.89160088617679
269 0 24.9892404989252 95.0857332792291
270 0 99.9998778832508 4.91371329826839
271 0 4.93110155130364 80.0173528474735
272 0 115.0149886936 4.9721864617264
273 0 9.99635351843988 95.012119456455
274 0 4.98466696250041 90.0075590806824
275 0 139.998603845543 4.9955198388543
276 0 165.00006547818 4.99961063968011
277 0 149.999568918838 4.99829940320662
278 0 190.000009201099 90.00002606983
279 0 125.005860538896 4.98877549478149
280 0 190.000004577684 4.99999170668686
281 0 195.000007084992 9.99999486848188
282 0 195.000066686032 60.000013030647
283 0 135.00171413501 95.0636871165244
284 0 195.000108340264 45.0000349164012
285 0 195.000034688538 69.9999945300657
286 0 195.000042184169 19.9999981089452
287 0 184.999974140275 95.000049526628
288 0 164.999203770528 95.0005032694235
289 0 154.997761354459 95.0034293533521
290 0 195.000096013517 30.0000158175702
291 0 174.999802786613 95.0002138817234
292 0 195.000023136865 79.999997394289
293 0 175.000049175956 4.99987953848986
294 0 145.000470477347 90.0388058126653
295 0 100.480041337803 95.3032239975356
296 0 84.8563902429131 91.128066393522
297 0 95.2467960201809 90.7758789420471
298 0 149.996695618678 85.0434712705759
299 0 80.0599820238805 14.4687766434419
300 0 14.2877248288789 65.3510714374592
301 0 190.000146112033 75.0000372460852
302 0 169.998940651345 90.0011968037849
303 0 96.3419896929882 87.512804880704
304 0 45.2959863507179 9.53787876988112
305 0 9.51583669742793 60.1527085173288
306 0 39.7184957417564 90.4331783946475
307 0 135.019080770063 90.1466979624852
308 0 120.034466001773 9.95273631034299
309 0 144.998386355161 9.99110095903795
310 0 135.00150856915 9.98145761330469
311 0 190.000462007185 45.0001209166869
312 0 190.000335684248 29.9999851745606
313 0 190.00004410267 85.0000384515758
314 0 185.000038570119 9.99990358304406
315 0 170.000240379006 9.99927293553995
316 0 73.6454268649689 90.341196693602
317 0 80.7973746950115 91.6100940721712
318 0 119.797021124574 90.5972744534075
319 0 10.0377112899886 40.1748446666036
320 0 9.47990224495216 35.0703989021933
321 0 9.44576003295029 55.2055168918558
322 0 40.3977189378663 9.53053811520385
323 0 44.6467281887935 90.4480256835888
324 0 9.475423567915 45.4573775513092
325 0 29.9310682647872 10.3189216657782
326 0 65.0036678630915 9.77231026479625
327 0 54.6119391075132 90.3844181817387
328 0 24.2756854780484 9.66333958921699
329 0 59.7179482712228 90.4552552576986
330 0 109.989980495307 90.9516473463811
331 0 89.9158611462369 9.72525313952978
332 0 19.2462085962436 9.35640223407265
333 0 64.7461087098649 90.5486385900893
334 0 100.008595069441 9.77074095502761
335 0 24.8900239801761 90.2187882118073
336 0 19.9242089415774 90.1392821849698
337 0 55.0355508930119 9.63341395358207
338 0 9.83772636026748 80.0675926885612
339 0 9.75523005707581 75.0961565279664
340 0 29.8190247205975 90.311158108631
341 0 75.0679551334987 9.70828119267806
342 0 140.011972859852 90.0794842209887
343 0 9.96858944473672 90.0287026585607
344 0 115.053910426805 9.92558469099558
345 0 110.064290262203 9.88417091063263
346 0 125.022205169966 9.96608242750633
347 0 149.999880653824 9.99449410794232
348 0 160.00033186204 9.9980190626101
349 0 179.999817273726 90.0003608705322
350 0 164.997694256783 90.0020767376662
351 0 175.000171160385 9.99956134464423
352 0 190.000455125147 34.9999892607405
353 0 190.000443483552 50.0001977140397
354 0 184.999970184487 90.0001385023979
355 0 190.000236407149 24.9999505637658
356 0 190.000321656484 60.0001472969006
357 0 159.995723640929 90.0044617066142
358 0 154.994793980037 90.0110109939212
359 0 190.000205186628 70.0000675659995
360 0 190.000051156463 14.9999437757303
361 0 190.000021359006 9.99996370342105
362 0 101.685747934589 91.3984720759012
363 0 10.4005835975204 23.6574123043525
364 0 13.6387271110093 17.0524960230682
365 0 90.2474838921375 87.0507553001352
366 0 13.971210184777 13.3814996368488
367 0 98.2683453240935 90.5264796764012
368 0 9.57685937599568 13.6539060917454
369 0 82.0545625855666 88.4258471027787
370 0 114.889777904783 86.1882665388026
371 0 99.993201151227 14.5560470399946
372 0 120.082596274973 14.8972823577092
373 0 150.002919652239 14.9876183024867
374 0 65.0316594751562 15.1344081934515
375 0 39.5002062749479 85.7771415351388
376 0 185.001395315343 55.0006666659979
377 0 185.001280698312 34.9997017107633
378 0 45.5157126227984 14.1616618679793
379 0 169.997993847984 85.0036730462106
380 0 14.0604147457966 55.4746836602797
381 0 54.2488246219264 85.1203628147033
382 0 32.2442132771111 14.6406593217649
383 0 29.5742009223132 85.5728762246105
384 0 170.000839264807 14.9981783695896
385 0 14.5496254368681 75.2488979124924
386 0 185.000533429502 75.0005991663467
387 0 14.2461192817395 41.9317416144988
388 0 64.5996106962118 85.4698414900927
389 0 19.7461063076993 85.2584435985269
390 0 129.986102372542 90.2781570667146
391 0 140.037791212575 85.1416341502179
392 0 73.7947083068102 86.464132520112
393 0 13.7037937077184 34.6500219511822
394 0 17.7143591018912 17.4768860504854
395 0 84.7417734671382 83.2963272000572
396 0 14.159278397663 60.4197475844733
397 0 101.382632298367 87.210938569649
398 0 105.73818124099 86.853387275322
399 0 75.2365945784039 14.4368870664762
400 0 94.9479600419443 9.72704494938425
401 0 14.4061234110584 70.313066703826
402 0 55.0338168468011 14.3284034355102
403 0 40.7692128493972 14.0905344979644
404 0 44.350888497365 85.8064968221771
405 0 124.898511804128 90.4374859137345
406 0 110.134311781155 14.780909221667
407 0 145.012717802723 85.082696336368
408 0 14.8366944883558 85.1302839959766
409 0 9.90512067046744 85.0545125727301
410 0 89.8525274162507 14.4713845746626
411 0 84.9263503958092 14.4739927353141
412 0 159.993640787861 85.0122504119526
413 0 154.993834738732 85.0251277194572
414 0 125.053996438828 14.9249344912329
415 0 135.013088089436 14.957778148907
416 0 139.9990778004 9.98523602677385
417 0 155.002501018891 14.9922074394502
418 0 165.000326873613 9.99863854143559
419 0 185.000983947515 29.9996427862805
420 0 174.999450918771 90.0008621597824
421 0 185.001598055055 45.0000641131301
422 0 175.000555610555 14.9988786863827
423 0 185.000124801144 14.9997724644059
424 0 185.000053432451 85.0002482912755
425 0 190.000134634901 19.9999177469494
426 0 190.000114572933 80.0000855716013
427 0 190.000285369568 65.0001219697712
428 0 18.4896494037395 13.6314537721106
429 0 13.9385920927399 45.9344849783281
430 0 78.391734025716 86.4536403847088
431 0 77.4860469760625 90.6187894673155
432 0 13.6143001302312 20.0857497305911
433 0 93.9379822105639 85.6321179939407
434 0 9.63392960632045 27.7750595005989
435 0 87.4721519534417 84.8942272339644
436 0 12.8856900512363 26.8996258022489
437 0 120.149229313556 19.8152884706587
438 0 140.077808882057 80.2246910944291
439 0 89.7867631633906 19.1663237821535
440 0 150.011018512349 19.9750238008039
441 0 43.9487061853673 81.2912755077988
442 0 18.76782751051 60.7034925618502
443 0 41.2552454289622 18.4826432120065
444 0 154.998144504422 80.0466634890129
445 0 180.003184046824 34.9984307488067
446 0 170.00244437307 19.9961536245054
447 0 17.9675163701145 41.7920309439239
448 0 21.3276009444505 18.2361149864468
449 0 19.0788300743601 70.6414319442164
450 0 124.949249147136 85.6622156366286
451 0 135.066145410802 85.2619354907653
452 0 140.005873212368 14.967885760282
453 0 165.001243477445 14.9968613033981
454 0 179.999902050874 85.0008478740499
455 0 185.000623584853 24.9995968660895
456 0 102.159721431305 82.7427922688571
457 0 59.4939540738392 85.7263755262933
458 0 19.1504415289918 24.3592024548129
459 0 28.2357139996252 14.8215123215845
460 0 119.88818011615 85.9147885334319
461 0 13.5420359584415 30.8552763253823
462 0 88.2640107480416 81.2502155855536
463 0 70.386390491672 14.547157431179
464 0 94.8916050480351 14.4766075802367
465 0 24.6334901010327 85.427093446627
466 0 34.5287599327481 85.6964526719761
467 0 69.4672725189597 86.122846774837
468 0 19.5088525350625 80.4019843916518
469 0 14.6861904421058 80.2048302308745
470 0 13.9530789279517 50.6347023718872
471 0 36.2102724641814 14.1537762175229
472 0 49.0896401495938 85.6879917014391
473 0 50.304998766246 14.2340432206489
474 0 115.118590130929 14.8442530500165
475 0 105.088946327143 14.6716606064292
476 0 84.9343855642732 19.1570327328929
477 0 75.4591892869423 19.0555302960608
478 0 59.7739089681533 14.4888061329333
479 0 145.004270554896 14.9780116739078
480 0 130.032708226404 14.9424058583068
481 0 160.001846464775 14.9949013787587
482 0 164.995955995695 85.0072196615043
483 0 174.999311965263 85.0021105207657
484 0 185.001645431524 39.9997042966057
485 0 185.001650924292 50.0004129884495
486 0 185.000335446366 19.9996229272819
487 0 185.001041213557 65.0008227442265
488 0 185.00134432192 60.0008651011019
489 0 185.000872429446 70.0008666047233
490 0 180.000316152013 14.9993899533609
491 0 185.00028078629 80.0005054550361
492 0 145.032632486422 80.1375066961869
493 0 110.217063779888 86.5123126071963
494 0 23.5414139195675 14.6935087919125
495 0 81.1983606129202 80.0912776749424
496 0 77.1467001562636 83.2449312630233
497 0 98.3682311725981 84.24888398819
498 0 14.1886571706127 38.179218861379
499 0 17.4187041536314 21.6519126100474
500 0 91.2414793208114 83.4291485263106
501 0 120.15619773543 81.2504533714037
502 0 89.7802065652629 23.9021819843007
503 0 140.117745213912 75.328134988412
504 0 55.0339999996173 18.8970043936355
505 0 180.004483581738 49.9998602509385
506 0 55.7386765534052 80.9171724258898
507 0 28.7909881900248 19.2692091453378
508 0 180.00230627482 70.0034065714768
509 0 34.2395992688639 81.0497276829788
510 0 99.9973147223426 19.3289978125173
511 0 92.7850578835608 79.4166401608786
512 0 24.3402283417383 80.656021401148
513 0 140.025235881102 19.9405494635047
514 0 69.3176591475934 81.3607024784942
515 0 164.99612015409 80.015342326278
516 0 175.000086510341 80.0042119448576
517 0 180.001428664101 24.9986261835084
518 0 36.8901482957134 18.3933596351819
519 0 48.3918458961071 81.2301798814869
520 0 70.8057034691625 19.121887873958
521 0 18.3675267422441 50.9462077393732
522 0 18.5877932217623 55.753224430072
523 0 24.8709676053529 18.7640345546075
524 0 115.267792627469 81.6460448854467
525 0 94.851977911499 19.2194823052645
526 0 97.866571602839 80.1169465124231
527 0 74.159244386892 82.4354081104789
528 0 18.9105976503207 65.7076041809411
529 0 18.1566011188699 46.28511771334
530 0 39.1676323467358 81.197330703375
531 0 19.2873900532946 75.5435828829972
532 0 45.843604024276 18.6324641724046
533 0 110.224316374882 19.6430924450487
534 0 106.114120682352 82.4650248956867
535 0 63.1538113591174 19.3047090724993
536 0 130.049114212659 85.4424493955642
537 0 115.197389913286 19.7382919893498
538 0 145.01741467849 19.9587081110031
539 0 150.010202358848 80.083477858584
540 0 125.107510904491 19.8594901038028
541 0 135.138532383805 80.3944683820242
542 0 130.072971821538 19.8918425146792
543 0 159.995979971103 80.0282714626055
544 0 165.003809582438 19.9934584263788
545 0 160.005529360955 19.9896504018541
546 0 155.008215238836 19.9834059809982
547 0 180.004011308624 39.9984568705804
548 0 180.003809413278 60.0023780841124
549 0 175.001544737759 19.9977364555418
550 0 180.002418386808 29.9983259647809
551 0 180.000424944756 80.0018319306149
552 0 180.0008505524 19.9988790182421
553 0 80.1711138145017 19.1061990149762
554 0 84.4965700641836 79.1695861837937
555 0 17.1908537452383 34.4264179265351
556 0 17.6750599098279 37.7621820917069
557 0 17.6749448283863 31.0301038489805
558 0 21.5360976339766 27.3653860838408
559 0 95.3630275217246 82.4562325314405
560 0 21.4127773679524 21.489171786009
561 0 79.7419962990873 77.557655084139
562 0 96.1247540106771 76.8044958164679
563 0 115.297738124761 24.605180822237
564 0 115.699813888535 77.1055319503406
565 0 140.055492233265 24.9018145777808
566 0 71.0531234159595 23.5487774754035
567 0 23.7967270636737 60.8985830917275
568 0 38.8848520880697 76.6427842215332
569 0 41.7343569414191 22.7503595989552
570 0 135.213176079903 75.5441904114406
571 0 160.003278945744 75.0479634769563
572 0 155.017211918745 24.9705032884705
573 0 175.008708523934 39.994604439593
574 0 165.008465416587 24.9879307111404
575 0 22.323936954721 46.5786973710625
576 0 24.2322576889923 28.8856383497796
577 0 59.3387233525191 81.3939315937317
578 0 125.180564096541 24.7718417182399
579 0 175.004923990285 29.9954392690992
580 0 65.8962742445384 81.8152560162946
581 0 27.5400593310613 22.9114963786338
582 0 94.9148058058536 24.0646631318401
583 0 22.6459338015902 51.1295661833329
584 0 106.640952820612 78.0657530336639
585 0 24.5517634242226 21.7352140807704
586 0 43.5133160255314 76.8990769478202
587 0 24.0619057058229 75.8741921743197
588 0 23.5520441442892 66.2257010785982
589 0 29.2639177553019 80.868716818424
590 0 50.43626672237 18.7697199846231
591 0 21.8898763040999 41.3441554467546
592 0 105.165707199387 19.4994027672069
593 0 130.172760891041 80.632299530057
594 0 125.179681691617 80.9232703786334
595 0 110.622394957312 82.0674941680781
596 0 59.461603157592 18.9422753195042
597 0 150.027168754909 75.1272554029084
598 0 145.061010883107 75.209778281891
599 0 84.9663310546017 23.7956182972909
600 0 75.6304836743984 23.5846877745969
601 0 135.046998232898 19.9162606544313
602 0 169.998813596658 80.0090557377542
603 0 180.00467228724 44.9986915412451
604 0 175.002174505517 75.0074043936363
605 0 145.037387978624 24.9310084365056
606 0 175.00315733543 24.9963929680743
607 0 180.003330059847 65.0034782443189
608 0 180.004494042586 55.0010463270394
609 0 180.001361009184 75.0031167787031
610 0 101.833005509739 77.9606316809933
611 0 89.2388996171956 77.3502785287925
612 0 75.8784722183008 75.1903938145545
613 0 72.4571199840359 78.5440107698811
614 0 21.5954800976907 24.6869087345203
615 0 66.8138357794057 19.4645316440436
616 0 20.3312515334752 33.5232052551174
617 0 82.0298294468664 75.7055547684163
618 0 84.9885051971529 28.3797852116737
619 0 135.276674689833 70.7137901224233
620 0 140.096636909747 29.8541510800018
621 0 54.8678492959157 23.3211190606508
622 0 43.2292396865285 72.6573323978173
623 0 28.0208587194749 62.7692417093325
624 0 175.010445279702 55.0005700354453
625 0 55.46528996002 77.175247374491
626 0 28.9696194950611 76.1132825055037
627 0 145.088032110589 70.2839319945164
628 0 26.4418928776838 47.0403576708779
629 0 165.002326021455 75.0288325019195
630 0 37.4094110071214 22.6458320527903
631 0 47.7839046086285 77.0093620651557
632 0 33.9686420723898 76.3222943181391
633 0 100.169616408289 24.1996663126724
634 0 110.341925424992 24.4740473433265
635 0 111.08974487557 77.639917490941
636 0 23.7915471206924 71.0546736614756
637 0 23.0190734318985 55.6752608152793
638 0 125.448956832896 76.2139288191103
639 0 120.559519281401 76.6366478753296
640 0 21.3020667699454 36.6518046440859
641 0 46.1068154054256 22.9686267275138
642 0 70.1469403237856 77.3388856601184
643 0 80.2789115126954 23.6829019374923
644 0 120.23921384838 24.69552376543
645 0 63.0182188215432 22.0251343242434
646 0 95.1296116390233 29.4707016467457
647 0 170.002629682574 75.0159746526517
648 0 130.131266613884 24.8219259217523
649 0 135.090112347023 24.8629752119045
650 0 150.025672753786 24.9535053233126
651 0 175.007397606185 65.0089380436723
652 0 160.012709573926 24.9799119570389
653 0 175.010146511845 44.9948660192287
654 0 175.004951397035 70.0099602714707
655 0 155.012463495315 75.0815029792177
656 0 170.009109235482 29.9897721091278
657 0 175.007246880114 34.9943586019751
658 0 170.005673735853 24.9927216538017
659 0 130.330310103148 75.8610935291578
660 0 78.8351709240723 73.7650601782371
661 0 92.9864223612825 74.8945038997758
662 0 32.8007476741159 22.8774533785099
663 0 27.1497760844261 30.6994038831537
664 0 26.5469429989673 43.2942655133962
665 0 66.1488076648305 23.5894462946254
666 0 86.1889503187463 75.1101215556852
667 0 62.7978775133793 81.3551080217754
668 0 25.1716318370203 25.4687020989671
669 0 74.4051083245861 72.7545995925254
670 0 111.356585065012 73.1213174934352
671 0 96.6330829635762 72.9238380452731
672 0 110.500716092181 29.2673093151467
673 0 71.2335154077779 27.9892782201465
674 0 42.0943324710613 26.9092071816306
675 0 30.8051598196724 32.4138713086502
676 0 155.030350528216 70.116718788526
677 0 170.019972158857 44.9879985559099
678 0 150.046955867128 29.9274339352622
679 0 47.3597544803485 72.917819692874
680 0 120.898385480809 72.0137415765511
681 0 80.392311431843 28.2010465312798
682 0 120.342028811368 29.5556512674771
683 0 170.013391451059 34.9866558463401
684 0 130.463897198962 71.1057830464189
685 0 34.0791054420695 27.3481696085403
686 0 28.5338507311793 71.3225050947568
687 0 28.0352027108538 66.7053827152674
688 0 28.0810040889504 27.5848794194105
689 0 30.8916967971669 43.6704315834746
690 0 50.4656905732271 23.155539713632
691 0 59.1746127981856 77.3090185681413
692 0 105.319733839495 24.3220582814829
693 0 59.6867520521452 23.4454170032514
694 0 130.196446874858 29.7362333738006
695 0 140.160216249111 70.4588053590526
696 0 89.7265098483179 28.6579920563577
697 0 26.6570624681613 51.1308152215258
698 0 165.011959660701 70.0404014257125
699 0 145.070082982046 29.8946695504994
700 0 135.140951961172 29.7982455744839
701 0 150.053257582035 70.1861824923056
702 0 155.033674364274 29.9494028707262
703 0 165.015086996735 29.9803008260814
704 0 175.011129746548 49.9966513685681
705 0 38.8458049057262 72.1858013365908
706 0 175.009639743019 60.0053454424538
707 0 170.008263276585 70.0214188209496
708 0 83.3309306955888 72.6811090563099
709 0 70.5825767055763 70.5013916464962
710 0 25.343944504719 38.5446567376035
711 0 67.0418289660981 75.3382799926607
712 0 62.6615505606433 27.298009208376
713 0 90.2115291186327 73.4378789223099
714 0 51.7050157532258 77.0640550512165
715 0 33.0035507868101 18.3113433025878
716 0 27.8296392693496 58.874684282177
717 0 76.6306458969975 70.8536656531464
718 0 29.7270712811844 25.0190272232517
719 0 66.0797657704373 78.5802084963339
720 0 85.036742070137 32.908276939365
721 0 130.540874153192 66.3435909289785
722 0 145.121235873201 65.3553015500431
723 0 130.272255473572 34.6355384466099
724 0 145.123284183641 34.8639256004837
725 0 50.4011765379814 27.3803745356014
726 0 43.1495536546293 68.6253202676783
727 0 31.7632601422341 58.2589784057412
728 0 107.241057534448 73.8879429070135
729 0 51.2593337886976 73.1140666673122
730 0 170.018808593442 60.013060439062
731 0 170.021885911372 49.9934628866653
732 0 165.022654582116 34.9729246693457
733 0 31.8355277594869 66.637318634426
734 0 35.2068852868247 37.4666189130844
735 0 116.077723736611 72.5040777328087
736 0 37.9488028251528 26.8810327501104
737 0 63.1253937749712 72.9067631571731
738 0 75.8153158926142 28.0458507100563
739 0 46.252964383219 27.1299166239274
740 0 30.3090411586154 47.5813326294708
741 0 33.7548580967348 71.0756198873307
742 0 100.625040670048 29.0607318206081
743 0 115.420134247583 29.4193828473282
744 0 125.269992127959 29.6516740966988
745 0 89.4902108406692 33.2122019996994
746 0 105.585341337197 29.1034230011164
747 0 165.02312721356 65.043596347859
748 0 160.01942842518 70.0723489417111
749 0 150.090905154693 34.8947447334747
750 0 150.080227787528 65.2303301214989
751 0 170.017589411976 39.9855184680807
752 0 160.023414801432 29.9664054599277
753 0 135.2092073976 34.7337783919772
754 0 135.33238391367 65.8863470874862
755 0 170.014299282678 65.0211496437616
756 0 27.086633929149 55.1645713039515
757 0 62.8159452731069 77.6873379506049
758 0 67.0690516163701 28.1875203267278
759 0 125.675888268687 71.5512614888346
760 0 73.5158475021236 69.1099983709202
761 0 55.0327972051483 73.1680402621364
762 0 33.6994004940682 45.1426956586265
763 0 58.3282235481649 27.8644614110933
764 0 87.3367050601889 71.3588743843789
765 0 30.9135546247149 28.1299268117685
766 0 32.8585142770225 35.836897781072
767 0 93.9882688104 71.4996540531332
768 0 80.593899306792 70.2648280929833
769 0 52.07507219994 80.8043515275059
770 0 99.1095043620153 74.8458474650211
771 0 69.1233328792878 68.176356556256
772 0 28.1780434380725 39.8577465562018
773 0 101.280427478012 33.6968659257847
774 0 97.8141784312788 69.7511903512982
775 0 85.0815404394968 37.3987718055124
776 0 111.180409167266 67.938574324224
777 0 130.572365903319 61.5557080290379
778 0 145.192693607348 39.8704905133147
779 0 130.362480560362 39.5179624335402
780 0 145.154817966078 60.3714365407721
781 0 165.0399859094 49.9964419403404
782 0 46.2423014852675 31.1408718138274
783 0 71.545919715937 32.4033686176034
784 0 115.561077145998 34.2086602977421
785 0 125.364021239147 34.5173404579254
786 0 165.032620759122 60.0347958224437
787 0 165.030881752175 39.9701312749154
788 0 160.037644608134 34.9509255586564
789 0 62.1682262444391 31.4520969766746
790 0 54.3999699424811 69.2508607160413
791 0 47.0459668464156 68.964038299753
792 0 38.380393519859 30.8048857616105
793 0 30.083952244674 50.9830748851437
794 0 39.1967554005734 68.025178123623
795 0 93.4198109844092 33.8581850553216
796 0 100.709537934822 71.6016581390367
797 0 116.396239960829 67.7915637863428
798 0 125.810400863704 66.8573624881822
799 0 31.7398867101038 62.7685817817084
800 0 58.8049224756712 73.1206073504726
801 0 76.0541399437275 32.4593667693031
802 0 80.5488962949477 32.6684944323273
803 0 140.204938599234 65.5664463342901
804 0 35.4091939272923 34.3889922653033
805 0 140.165304552013 34.815517482101
806 0 160.036212223187 65.0845767843272
807 0 155.05458003637 65.1444155837385
808 0 105.910426173267 33.7936262568475
809 0 155.0617450701 34.9223714687875
810 0 170.021986444493 55.0041812340641
811 0 30.5063403101025 54.4539758723161
812 0 77.9062147732968 67.9165099602286
813 0 54.5322420142534 27.5452592989361
814 0 65.3596411611121 65.9891539984003
815 0 61.5004233287823 69.3554756924595
816 0 33.7908819153003 47.7856627923725
817 0 91.2077165387769 69.6652374243474
818 0 37.782220184336 41.0843444638426
819 0 84.5468733934658 69.1000950892257
820 0 36.8232426365372 47.3883580420278
821 0 103.584633097035 73.3900203797867
822 0 71.3207412959079 66.4623607710998
823 0 34.7702906681589 31.2262502651259
824 0 71.9787981046719 36.6539183854847
825 0 101.696080483813 38.1638798005682
826 0 112.758931998345 63.2737196193568
827 0 35.171193669659 59.0806980599173
828 0 125.867379021867 62.1398525929545
829 0 46.7197904056719 65.0486972075061
830 0 101.946350915246 67.8884880637909
831 0 125.480433675639 39.3499917280218
832 0 38.4792066190429 50.7827691293726
833 0 140.235216054939 60.6118796604487
834 0 140.231759800868 39.8316207654973
835 0 80.7085581724604 37.0871610887069
836 0 38.267029192204 37.9597771164341
837 0 43.0448138362546 45.1976868116692
838 0 105.886817228234 69.2995943024833
839 0 42.249111881682 30.8971484939515
840 0 50.7866585658151 69.2491695469844
841 0 110.699708614108 33.9972491332084
842 0 120.462786214486 34.3731685463014
843 0 135.368101881417 61.0065605045363
844 0 43.2361863783001 65.0371698643942
845 0 58.2946356547778 31.6703447665903
846 0 165.038944394608 55.0190809753355
847 0 135.280351677964 39.6978254828626
848 0 155.076426799001 60.1321199103652
849 0 150.110694035455 60.2204347718567
850 0 93.4433296645088 37.8764543998599
851 0 89.31953221952 37.6626753643665
852 0 160.055046565989 39.9409925910342
853 0 165.038180635045 44.9791944502015
854 0 150.142241260015 39.8775451690632
855 0 160.051997010557 60.0736566693977
856 0 66.6020557939881 32.8116104056893
857 0 121.100859009729 67.3399664606163
858 0 68.3123929147486 65.1698627566398
859 0 38.5364821882115 34.4742380213629
860 0 36.0546057092682 62.7983866086461
861 0 58.3121639559193 68.3154276408637
862 0 50.2009854093571 31.3842396141129
863 0 81.8333904385858 66.8118463509055
864 0 35.6133878660684 66.9780076569804
865 0 88.4414626760402 67.6190071338837
866 0 75.1914447551344 65.7408446482105
867 0 33.8445689351615 52.0271412325626
868 0 97.3179637399445 34.0519605551632
869 0 95.0798238564351 67.9785756233411
870 0 64.13732960767 63.7754001379515
871 0 41.3833480278669 42.499188350568
872 0 80.7992708400349 41.4500772381295
873 0 89.1713827608804 42.037891419267
874 0 110.903902496222 38.7094794804647
875 0 125.88303518888 57.5073094452424
876 0 135.204407045126 44.7474538553006
877 0 145.222074599861 44.9644776574148
878 0 45.0319264097404 41.6131626439045
879 0 135.254577982028 56.0248587691812
880 0 68.0337478453995 37.0013705576079
881 0 145.185383801599 55.291632483401
882 0 120.608847767339 39.1780243622092
883 0 121.244015927439 62.6615897193376
884 0 42.146962787095 34.6777125492724
885 0 108.924444101249 63.8669851077699
886 0 46.316804034707 61.1137254853789
887 0 50.408178533922 65.4493104012986
888 0 62.564918370277 35.2853691435231
889 0 106.187451583585 38.4206979740844
890 0 160.063676275235 55.0437032374765
891 0 160.067652680832 44.9570536216755
892 0 125.615163919262 44.0720903470818
893 0 38.2867973153695 59.3197578707372
894 0 54.2138581011004 31.6070492639031
895 0 76.3098219693733 36.7862805484856
896 0 39.0605908353257 55.4084757624947
897 0 150.140508360486 55.1387731347799
898 0 155.093293082894 39.9045284993469
899 0 53.566681880803 65.8473407101796
900 0 116.725567840809 63.0987465730812
901 0 39.786818930287 64.3827081476097
902 0 45.9248140127341 34.912525161144
903 0 72.5372759117598 64.1318258246161
904 0 42.0308553043394 52.6566133349301
905 0 61.2372046952804 61.5929804283235
906 0 41.8013829989151 38.3038963003725
907 0 85.678150745861 65.4379242567133
908 0 45.586586268001 48.2216992851358
909 0 92.4412331874601 66.094620576451
910 0 35.145195358389 55.8335979340579
911 0 79.1381619777345 64.4891167734876
912 0 56.0476963398753 64.825239483567
913 0 97.4797404471089 38.0553701202155
914 0 105.445242223444 64.7329545209685
915 0 98.9882473337459 66.2155958196694
916 0 66.6115424083181 62.786744454263
917 0 64.0863722187478 39.3753924862492
918 0 104.514815140099 61.0028962788434
919 0 112.407915081902 59.0833732078313
920 0 97.4327705425458 42.398445217689
921 0 106.378737334439 43.0885776150525
922 0 120.825683427245 43.944772405045
923 0 155.112838192874 44.923722713896
924 0 121.326284479417 57.9935002701729
925 0 145.204529136688 50.1309633997171
926 0 115.750385203419 38.9654617931492
927 0 72.2991494828355 40.7496044061685
928 0 85.0016659008106 41.7963657411018
929 0 42.0357195993037 60.9278786904701
930 0 42.9233881208588 56.7564305371111
931 0 130.339101231467 44.3250567959864
932 0 130.483379103977 56.8197066956769
933 0 50.3059939237228 60.9200787332577
934 0 58.2270140309745 36.1581649606385
935 0 49.752226512114 35.210376484424
936 0 160.070279569346 50.0008268116313
937 0 150.163487761208 44.9253077678204
938 0 76.5049134258162 41.036371036487
939 0 140.192804995388 44.9869084056289
940 0 155.097947067188 55.0733832972903
941 0 140.189120967634 55.5353627617918
942 0 48.9467796388911 49.5845406571522
943 0 46.0751883359975 44.8922107192466
944 0 64.1525084751686 60.9220335722703
945 0 76.2703626390418 62.3091260456979
946 0 93.2565699669996 42.2083411192708
947 0 53.6826440043464 62.6542149211841
948 0 45.4173744714068 38.4675365548529
949 0 89.7933228533603 64.0054621686708
950 0 102.753151485703 65.1343591913456
951 0 82.9310365053965 63.3005970311774
952 0 96.3555994998204 64.8548923183671
953 0 69.5055991491464 62.1231935650404
954 0 43.7210693736932 54.1975442078093
955 0 59.5984186483149 59.9274434600328
956 0 80.7736201709778 45.7291588887448
957 0 92.8940496739281 46.5876500009944
958 0 59.7949107491469 40.0053319023857
959 0 49.486366305547 45.9359936226796
960 0 115.993163423798 43.758547477613
961 0 121.094371790257 48.6676031165592
962 0 48.9926968026706 38.7788687499543
963 0 125.712102992469 48.6018059486243
964 0 129.974923151793 52.688899159457
965 0 134.516361316207 50.4349165517994
966 0 150.157782539318 50.0332430063321
967 0 111.164655751084 43.4761358503936
968 0 72.3732105950534 44.7936289174522
969 0 68.4601003598096 40.7488462296363
970 0 53.6943589049579 35.5626764235243
971 0 155.109971575232 50.0073580162825
972 0 140.112507089403 50.276869395199
973 0 101.796811991032 42.7251460385602
974 0 108.312708519472 60.0086788005678
975 0 121.264525628514 53.3370513785841
976 0 100.864104037622 62.5960804702034
977 0 46.3020300651729 57.3605054035
978 0 116.771559388979 58.4181889721275
979 0 67.5247747594626 59.2114260356885
980 0 84.8375178770044 46.1068481663668
981 0 57.4405655565455 57.364180472557
982 0 51.5127790377309 52.4980783333605
983 0 80.3088518309764 61.4602948912264
984 0 93.9863749486281 62.9704848911774
985 0 87.0002843514481 61.7767065098685
986 0 72.8490076686282 60.6715868204954
987 0 48.1283339181719 41.8464632627109
988 0 48.7106616954565 57.670930678522
989 0 62.3225496104934 58.1071707633727
990 0 63.7867431828801 44.0481867387536
991 0 100.056520110807 58.4101456513119
992 0 107.129808693121 56.3167114619877
993 0 80.8124917931848 49.9902495978076
994 0 101.715962349968 47.4228158821772
995 0 106.490093587822 47.9049017546091
996 0 116.521760853761 53.5792092024245
997 0 52.8761033232967 39.7881283247636
998 0 68.1029168879786 44.4378711815321
999 0 111.356374995869 48.3820483009604
1000 0 76.6032704091391 45.2119639092735
1001 0 116.234668696196 48.6313353139751
1002 0 97.1486566272169 46.9933625523676
1003 0 52.6496429297017 49.3589843523158
1004 0 125.760204352536 53.0345496323065
1005 0 88.8431510406129 46.3435929737663
1006 0 70.4085327113582 57.7538352839678
1007 0 60.4764989656769 55.2924819552472
1008 0 83.9841967945262 59.6626155143878
1009 0 77.3737077145065 58.2939976483136
1010 0 91.7804038859631 60.5914924851181
1011 0 97.0234729135116 60.9876307132182
1012 0 50.7422145454299 42.9471737288744
1013 0 65.5172660411875 56.6303632392065
1014 0 129.850045565701 48.5423652941637
1015 0 54.9049879642334 54.1812647788559
1016 0 72.5174741078589 48.8285571611671
1017 0 63.3380759046837 47.819870751886
1018 0 92.2183134619476 50.8831004071478
1019 0 59.1414974519728 43.9861645591276
1020 0 58.999227149779 51.6254968918793
1021 0 96.3348518975268 51.5725221256589
1022 0 94.9158796124618 56.6042718120783
1023 0 76.7363922002751 49.3833944010484
1024 0 55.5133777724626 42.5427624948556
1025 0 101.514591813467 52.6479616151618
1026 0 103.413535927288 57.2624829117751
1027 0 111.175938827186 53.8844148199217
1028 0 106.324981862115 52.2319078157618
1029 0 84.782312554956 50.3375991959783
1030 0 73.6290249862331 57.2304364079293
1031 0 53.3046416915485 45.6621458760767
1032 0 88.8598997689944 58.2417735474249
1033 0 80.9451486117466 58.1010145948216
1034 0 63.8572453093558 53.9046522731678
1035 0 56.5538858766342 39.6292583244622
1036 0 68.7719649772425 55.175873219555
1037 0 55.5127982733298 50.0756762451241
1038 0 88.5087341779471 50.4392773631089
1039 0 59.7627415933769 47.8307673915585
1040 0 67.8109180680626 48.8177468358035
1041 0 72.8479341241805 52.8995920237535
1042 0 90.8701043031222 54.7279524205045
1043 0 76.9732247453316 53.6261163626833
1044 0 80.9008465767469 54.2948925793965
1045 0 56.5904451131088 47.1527681108691
1046 0 63.043367960874 50.9967156197638
1047 0 85.4214442714535 55.1628173926276
1048 0 67.0587472376095 52.749343723379
1049 0 98.8435208225319 56.08134357826
1050 0 88.3669352334233 53.3822693058568
1051 0 68.9579510753334 51.5565864822116
1052 0 65.943604356942 50.9265469444567
$EndNodes
$Elements
1029
1 2 2 1 1 766 804 734 
2 2 2 1 1 827 893 860 
3 2 2 1 1 190 249 6 
4 2 2 1 1 152 436 153 
5 2 2 1 1 367 397 362 
6 2 2 1 1 992 1028 1027 
7 2 2 1 1 821 838 728 
8 2 2 1 1 646 868 795 
9 2 2 1 1 317 369 296 
10 2 2 1 1 374 615 535 
11 2 2 1 1 388 667 580 
12 2 2 1 1 381 769 506 
13 2 2 1 1 122 295 4 
14 2 2 1 1 664 772 689 
15 2 2 1 1 382 459 325 
16 2 2 1 1 494 523 448 
17 2 2 1 1 397 497 456 
18 2 2 1 1 727 910 827 
19 2 2 1 1 581 668 585 
20 2 2 1 1 733 864 741 
21 2 2 1 1 880 969 917 
22 2 2 1 1 154 363 6 
23 2 2 1 1 125 296 126 
24 2 2 1 1 899 947 912 
25 2 2 1 1 1039 1045 1019 
26 2 2 1 1 319 498 387 
27 2 2 1 1 557 616 555 
28 2 2 1 1 6 432 154 
29 2 2 1 1 147 772 148 
30 2 2 1 1 580 719 514 
31 2 2 1 1 1015 1037 1020 
32 2 2 1 1 958 1035 934 
33 2 2 1 1 901 929 844 
34 2 2 1 1 151 557 152 
35 2 2 1 1 316 431 253 
36 2 2 1 1 567 716 623 
37 2 2 1 1 832 904 896 
38 2 2 1 1 497 559 526 
39 2 2 1 1 665 758 712 
40 2 2 1 1 129 495 128 
41 2 2 1 1 964 1014 965 
42 2 2 1 1 152 558 151 
43 2 2 1 1 131 612 130 
44 2 2 1 1 776 885 826 
45 2 2 1 1 146 818 145 
46 2 2 1 1 942 1003 982 
47 2 2 1 1 133 709 132 
48 2 2 1 1 143 908 142 
49 2 2 1 1 135 814 134 
50 2 2 1 1 856 888 789 
51 2 2 1 1 511 661 562 
52 2 2 1 1 671 770 562 
53 2 2 1 1 878 987 943 
54 2 2 1 1 712 763 693 
55 2 2 1 1 507 715 662 
56 2 2 1 1 870 944 916 
57 2 2 1 1 771 858 822 
58 2 2 1 1 669 760 717 
59 2 2 1 1 1012 1031 959 
60 2 2 1 1 976 1011 991 
61 2 2 1 1 561 660 617 
62 2 2 1 1 144 820 145 
63 2 2 1 1 718 765 688 
64 2 2 1 1 1006 1030 986 
65 2 2 1 1 128 395 127 
66 2 2 1 1 793 867 811 
67 2 2 1 1 984 1011 952 
68 2 2 1 1 1009 1033 983 
69 2 2 1 1 303 367 297 
70 2 2 1 1 953 986 903 
71 2 2 1 1 916 953 858 
72 2 2 1 1 997 1035 1024 
73 2 2 1 1 124 123 228 
74 2 2 1 1 228 125 124 
75 2 2 1 1 122 4 84 
76 2 2 1 1 84 123 122 
77 3 2 1 1 301 221 292 426
78 3 2 1 1 164 16 17 202
79 3 2 1 1 167 68 69 291
80 3 2 1 1 280 361 314 223
81 3 2 1 1 69 70 186 291
82 3 2 1 1 160 20 21 207
83 3 2 1 1 170 286 49 50
84 3 2 1 1 301 359 285 221
85 3 2 1 1 186 70 71 288
86 3 2 1 1 285 359 427 162
87 3 2 1 1 71 72 222 288
88 3 2 1 1 287 167 349 354
89 3 2 1 1 302 186 288 350
90 3 2 1 1 357 222 289 358
91 3 2 1 1 59 60 221 285
92 3 2 1 1 313 426 292 216
93 3 2 1 1 108 109 165 200
94 3 2 1 1 107 108 200 212
95 3 2 1 1 157 289 73 74
96 3 2 1 1 222 72 73 289
97 3 2 1 1 184 32 33 217
98 3 2 1 1 103 214 102 5
99 3 2 1 1 223 43 44 280
100 3 2 1 1 75 218 157 74
101 3 2 1 1 172 42 43 223
102 3 2 1 1 163 96 97 204
103 3 2 1 1 173 89 90 199
104 3 2 1 1 185 37 38 215
105 3 2 1 1 64 219 177 63
106 3 2 1 1 55 220 284 54
107 3 2 1 1 231 157 218 294
108 3 2 1 1 358 289 157 231
109 3 2 1 1 220 183 237 353
110 3 2 1 1 350 288 222 357
111 3 2 1 1 223 314 248 172
112 3 2 1 1 65 219 64 3
113 3 2 1 1 177 278 313 216
114 3 2 1 1 225 287 354 278
115 3 2 1 1 161 53 54 284
116 3 2 1 1 219 65 66 225
117 3 2 1 1 225 278 177 219
118 3 2 1 1 67 68 167 287
119 3 2 1 1 161 224 52 53
120 3 2 1 1 61 292 221 60
121 3 2 1 1 58 162 282 57
122 3 2 1 1 59 285 162 58
123 3 2 1 1 67 287 225 66
124 3 2 1 1 49 286 180 48
125 3 2 1 1 180 281 47 48
126 3 2 1 1 224 290 51 52
127 3 2 1 1 51 290 170 50
128 3 2 1 1 115 116 181 191
129 3 2 1 1 183 56 57 282
130 3 2 1 1 183 220 55 56
131 3 2 1 1 30 156 272 29
132 3 2 1 1 213 281 361 280
133 3 2 1 1 17 18 206 202
134 3 2 1 1 166 40 41 293
135 3 2 1 1 42 172 293 41
136 3 2 1 1 293 172 248 351
137 3 2 1 1 62 63 177 216
138 3 2 1 1 282 162 427 356
139 3 2 1 1 213 46 47 281
140 3 2 1 1 102 214 273 101
141 3 2 1 1 356 237 183 282
142 3 2 1 1 156 30 31 279
143 3 2 1 1 292 61 62 216
144 3 2 1 1 210 28 29 272
145 3 2 1 1 182 27 28 210
146 3 2 1 1 166 293 351 315
147 3 2 1 1 207 21 22 208
148 3 2 1 1 208 22 23 209
149 3 2 1 1 99 100 211 175
150 3 2 1 1 211 100 101 273
151 3 2 1 1 279 31 32 184
152 3 2 1 1 46 213 45 2
153 3 2 1 1 213 280 44 45
154 3 2 1 1 238 185 215 348
155 3 2 1 1 35 155 275 34
156 3 2 1 1 217 33 34 275
157 3 2 1 1 314 361 360 423
158 3 2 1 1 360 180 286 425
159 3 2 1 1 360 361 281 180
160 3 2 1 1 215 38 39 276
161 3 2 1 1 425 286 170 355
162 3 2 1 1 312 290 224 352
163 3 2 1 1 284 220 353 311
164 3 2 1 1 155 35 36 277
165 3 2 1 1 487 427 359 489
166 3 2 1 1 426 313 424 491
167 3 2 1 1 40 166 276 39
168 3 2 1 1 424 313 278 354
169 3 2 1 1 170 290 312 355
170 3 2 1 1 352 224 161 240
171 3 2 1 1 161 284 311 240
172 3 2 1 1 490 248 314 423
173 3 2 1 1 37 185 277 36
174 3 2 1 1 489 359 301 386
175 3 2 1 1 301 426 491 386
176 3 2 1 1 455 355 312 419
177 3 2 1 1 248 490 422 351
178 3 2 1 1 360 425 486 423
179 3 2 1 1 425 355 455 486
180 3 2 1 1 356 427 487 488
181 3 2 1 1 348 215 276 418
182 3 2 1 1 349 167 291 420
183 3 2 1 1 312 352 377 419
184 3 2 1 1 421 311 353 485
185 3 2 1 1 454 424 354 349
186 3 2 1 1 549 422 490 552
187 3 2 1 1 485 353 237 376
188 3 2 1 1 237 356 488 376
189 3 2 1 1 377 352 240 484
190 3 2 1 1 418 276 166 315
191 3 2 1 1 484 240 311 421
192 3 2 1 1 420 291 186 302
193 3 2 1 1 377 445 550 419
194 3 2 1 1 424 454 551 491
195 3 2 1 1 384 422 549 446
196 3 2 1 1 309 155 277 347
197 3 2 1 1 351 422 384 315
198 3 2 1 1 423 486 552 490
199 3 2 1 1 548 488 487 607
200 3 2 1 1 349 420 483 454
201 3 2 1 1 481 348 418 453
202 3 2 1 1 455 419 550 517
203 3 2 1 1 505 485 376 608
204 3 2 1 1 517 552 486 455
205 3 2 1 1 607 487 489 508
206 3 2 1 1 386 491 551 609
207 3 2 1 1 608 376 488 548
208 3 2 1 1 302 379 483 420
209 3 2 1 1 347 277 185 238
210 3 2 1 1 481 417 238 348
211 3 2 1 1 657 445 547 573
212 3 2 1 1 315 384 453 418
213 3 2 1 1 489 386 609 508
214 3 2 1 1 77 78 158 283
215 3 2 1 1 547 445 377 484
216 3 2 1 1 379 302 350 482
217 3 2 1 1 484 421 603 547
218 3 2 1 1 417 481 545 546
219 3 2 1 1 751 573 653 677
220 3 2 1 1 517 550 579 606
221 3 2 1 1 516 551 454 483
222 3 2 1 1 76 77 283 227
223 3 2 1 1 357 412 482 350
224 3 2 1 1 606 549 552 517
225 3 2 1 1 603 421 485 505
226 3 2 1 1 550 445 657 579
227 3 2 1 1 544 453 384 446
228 3 2 1 1 214 103 104 274
229 3 2 1 1 545 481 453 544
230 3 2 1 1 446 658 574 544
231 3 2 1 1 482 515 602 379
232 3 2 1 1 658 446 549 606
233 3 2 1 1 551 516 604 609
234 3 2 1 1 373 347 238 417
235 3 2 1 1 483 379 602 516
236 3 2 1 1 624 608 548 706
237 3 2 1 1 890 936 781 846
238 3 2 1 1 781 853 677 731
239 3 2 1 1 416 275 155 309
240 3 2 1 1 651 607 508 654
241 3 2 1 1 217 275 416 310
242 3 2 1 1 75 76 227 218
243 3 2 1 1 373 479 309 347
244 3 2 1 1 654 508 609 604
245 3 2 1 1 607 651 706 548
246 3 2 1 1 608 624 704 505
247 3 2 1 1 603 505 704 653
248 3 2 1 1 156 279 346 308
249 3 2 1 1 274 104 105 176
250 3 2 1 1 703 574 658 656
251 3 2 1 1 653 573 547 603
252 3 2 1 1 656 658 606 579
253 3 2 1 1 730 810 624 706
254 3 2 1 1 482 412 543 515
255 3 2 1 1 415 452 513 601
256 3 2 1 1 571 543 444 655
257 3 2 1 1 683 656 579 657
258 3 2 1 1 604 647 707 654
259 3 2 1 1 539 298 407 492
260 3 2 1 1 184 217 310 233
261 3 2 1 1 346 279 184 233
262 3 2 1 1 657 573 751 683
263 3 2 1 1 650 440 546 572
264 3 2 1 1 572 546 545 652
265 3 2 1 1 544 574 652 545
266 3 2 1 1 480 233 310 415
267 3 2 1 1 647 604 516 602
268 3 2 1 1 656 683 732 703
269 3 2 1 1 417 546 440 373
270 3 2 1 1 204 97 98 269
271 3 2 1 1 543 571 629 515
272 3 2 1 1 678 650 572 702
273 3 2 1 1 538 479 373 440
274 3 2 1 1 752 652 574 703
275 3 2 1 1 676 748 571 655
276 3 2 1 1 652 752 702 572
277 3 2 1 1 704 624 810 731
278 3 2 1 1 730 706 651 755
279 3 2 1 1 343 273 214 274
280 3 2 1 1 747 755 707 698
281 3 2 1 1 654 707 755 651
282 3 2 1 1 755 747 786 730
283 3 2 1 1 415 601 542 480
284 3 2 1 1 414 346 233 480
285 3 2 1 1 159 25 26 270
286 3 2 1 1 210 272 344 345
287 3 2 1 1 272 156 308 344
288 3 2 1 1 731 677 653 704
289 3 2 1 1 294 407 298 231
290 3 2 1 1 605 538 440 650
291 3 2 1 1 647 602 515 629
292 3 2 1 1 852 788 732 787
293 3 2 1 1 227 283 307 342
294 3 2 1 1 788 752 703 732
295 3 2 1 1 231 298 413 358
296 3 2 1 1 412 357 358 413
297 3 2 1 1 247 211 273 343
298 3 2 1 1 416 309 479 452
299 3 2 1 1 751 677 853 787
300 3 2 1 1 809 702 752 788
301 3 2 1 1 702 809 749 678
302 3 2 1 1 444 543 412 413
303 3 2 1 1 269 98 99 175
304 3 2 1 1 787 732 683 751
305 3 2 1 1 846 810 730 786
306 3 2 1 1 176 105 106 271
307 3 2 1 1 846 781 731 810
308 3 2 1 1 452 415 310 416
309 3 2 1 1 210 345 232 182
310 3 2 1 1 209 23 24 268
311 3 2 1 1 854 749 809 898
312 3 2 1 1 788 852 898 809
313 3 2 1 1 480 542 540 414
314 3 2 1 1 513 452 479 538
315 3 2 1 1 270 26 27 182
316 3 2 1 1 205 94 95 263
317 3 2 1 1 698 707 647 629
318 3 2 1 1 218 227 342 294
319 3 2 1 1 890 846 786 855
320 3 2 1 1 923 898 852 891
321 3 2 1 1 605 699 620 565
322 3 2 1 1 206 18 19 265
323 3 2 1 1 274 176 409 343
324 3 2 1 1 203 14 15 261
325 3 2 1 1 701 627 722 750
326 3 2 1 1 699 605 650 678
327 3 2 1 1 346 414 372 308
328 3 2 1 1 437 372 414 540
329 3 2 1 1 749 854 778 724
330 3 2 1 1 476 553 299 411
331 3 2 1 1 780 849 750 722
332 3 2 1 1 502 696 618 599
333 3 2 1 1 853 781 936 891
334 3 2 1 1 747 806 855 786
335 3 2 1 1 629 571 748 698
336 3 2 1 1 891 852 787 853
337 3 2 1 1 678 749 724 699
338 3 2 1 1 700 753 723 694
339 3 2 1 1 700 649 565 620
340 3 2 1 1 655 597 701 676
341 3 2 1 1 271 106 107 212
342 3 2 1 1 502 599 476 439
343 3 2 1 1 407 294 342 391
344 3 2 1 1 806 747 698 748
345 3 2 1 1 413 298 539 444
346 3 2 1 1 268 24 25 159
347 3 2 1 1 198 93 94 205
348 3 2 1 1 805 620 699 724
349 3 2 1 1 539 492 598 597
350 3 2 1 1 197 13 14 203
351 3 2 1 1 542 648 578 540
352 3 2 1 1 748 676 807 806
353 3 2 1 1 648 542 601 649
354 3 2 1 1 619 695 503 570
355 3 2 1 1 438 541 570 503
356 3 2 1 1 834 805 724 778
357 3 2 1 1 750 807 676 701
358 3 2 1 1 334 270 182 232
359 3 2 1 1 271 212 339 338
360 3 2 1 1 338 409 176 271
361 3 2 1 1 168 92 93 198
362 3 2 1 1 199 90 91 258
363 3 2 1 1 649 601 513 565
364 3 2 1 1 264 339 212 200
365 3 2 1 1 208 209 234 266
366 3 2 1 1 266 341 207 208
367 3 2 1 1 849 780 881 897
368 3 2 1 1 196 10 11 257
369 3 2 1 1 169 12 13 197
370 3 2 1 1 649 700 694 648
371 3 2 1 1 597 655 444 539
372 3 2 1 1 627 701 597 598
373 3 2 1 1 538 605 565 513
374 3 2 1 1 753 700 620 805
375 3 2 1 1 265 19 20 160
376 3 2 1 1 207 341 267 160
377 3 2 1 1 807 750 849 848
378 3 2 1 1 848 855 806 807
379 3 2 1 1 335 340 204 269
380 3 2 1 1 503 598 492 438
381 3 2 1 1 537 474 372 437
382 3 2 1 1 283 158 390 307
383 3 2 1 1 234 331 410 411
384 3 2 1 1 258 91 92 168
385 3 2 1 1 307 451 391 342
386 3 2 1 1 476 599 643 553
387 3 2 1 1 239 264 200 165
388 3 2 1 1 235 337 202 206
389 3 2 1 1 257 11 12 169
390 3 2 1 1 475 232 345 406
391 3 2 1 1 343 409 408 247
392 3 2 1 1 754 803 695 619
393 3 2 1 1 785 744 694 723
394 3 2 1 1 202 337 262 164
395 3 2 1 1 540 578 644 437
396 3 2 1 1 753 847 779 723
397 3 2 1 1 263 95 96 163
398 3 2 1 1 174 9 10 196
399 3 2 1 1 847 753 805 834
400 3 2 1 1 897 940 848 849
401 3 2 1 1 696 745 720 618
402 3 2 1 1 536 451 307 390
403 3 2 1 1 537 563 634 533
404 3 2 1 1 831 785 723 779
405 3 2 1 1 563 537 437 644
406 3 2 1 1 882 842 785 831
407 3 2 1 1 261 15 16 164
408 3 2 1 1 308 372 474 344
409 3 2 1 1 746 692 634 672
410 3 2 1 1 406 345 344 474
411 3 2 1 1 112 113 171 194
412 3 2 1 1 745 851 775 720
413 3 2 1 1 204 340 236 163
414 3 2 1 1 931 779 847 876
415 3 2 1 1 922 882 831 892
416 3 2 1 1 648 694 744 578
417 3 2 1 1 439 476 411 410
418 3 2 1 1 86 87 193 187
419 3 2 1 1 682 644 578 744
420 3 2 1 1 892 831 779 931
421 3 2 1 1 193 87 88 253
422 3 2 1 1 746 808 773 742
423 3 2 1 1 234 411 299 266
424 3 2 1 1 681 643 599 618
425 3 2 1 1 259 8 9 174
426 3 2 1 1 803 754 843 833
427 3 2 1 1 474 537 533 406
428 3 2 1 1 256 80 81 178
429 3 2 1 1 438 492 407 391
430 3 2 1 1 855 848 940 890
431 3 2 1 1 339 264 401 385
432 3 2 1 1 385 469 338 339
433 3 2 1 1 803 722 627 695
434 3 2 1 1 923 891 936 971
435 3 2 1 1 409 338 469 408
436 3 2 1 1 478 402 337 235
437 3 2 1 1 541 438 391 451
438 3 2 1 1 402 473 262 337
439 3 2 1 1 890 940 971 936
440 3 2 1 1 598 503 695 627
441 3 2 1 1 592 475 406 533
442 3 2 1 1 533 634 692 592
443 3 2 1 1 644 682 743 563
444 3 2 1 1 672 634 563 743
445 3 2 1 1 399 341 266 299
446 3 2 1 1 466 236 340 383
447 3 2 1 1 586 631 519 441
448 3 2 1 1 808 746 672 841
449 3 2 1 1 388 467 244 333
450 3 2 1 1 600 477 553 643
451 3 2 1 1 402 504 590 473
452 3 2 1 1 300 401 264 239
453 3 2 1 1 743 784 841 672
454 3 2 1 1 541 593 659 570
455 3 2 1 1 253 88 89 173
456 3 2 1 1 833 780 722 803
457 3 2 1 1 399 463 267 341
458 3 2 1 1 199 333 244 173
459 3 2 1 1 584 534 456 610
460 3 2 1 1 268 159 400 331
461 3 2 1 1 744 785 842 682
462 3 2 1 1 254 259 174 245
463 3 2 1 1 269 175 336 335
464 3 2 1 1 198 241 327 168
465 3 2 1 1 197 242 325 169
466 3 2 1 1 780 833 941 881
467 3 2 1 1 247 336 175 211
468 3 2 1 1 784 743 682 842
469 3 2 1 1 802 681 618 720
470 3 2 1 1 206 265 326 235
471 3 2 1 1 195 7 8 259
472 3 2 1 1 121 1 7 195
473 3 2 1 1 763 845 894 813
474 3 2 1 1 375 306 236 466
475 3 2 1 1 188 120 121 195
476 3 2 1 1 329 258 168 327
477 3 2 1 1 383 340 335 465
478 3 2 1 1 201 111 112 194
479 3 2 1 1 196 332 245 174
480 3 2 1 1 1018 957 1002 1021
481 3 2 1 1 334 400 159 270
482 3 2 1 1 960 926 882 922
483 3 2 1 1 854 937 877 778
484 3 2 1 1 331 234 209 268
485 3 2 1 1 328 257 169 325
486 3 2 1 1 532 378 473 590
487 3 2 1 1 163 236 306 263
488 3 2 1 1 879 941 833 843
489 3 2 1 1 570 659 684 619
490 3 2 1 1 842 882 926 784
491 3 2 1 1 939 834 778 877
492 3 2 1 1 926 960 967 874
493 3 2 1 1 874 841 784 926
494 3 2 1 1 835 802 720 775
495 3 2 1 1 389 336 247 408
496 3 2 1 1 378 304 262 473
497 3 2 1 1 845 934 970 894
498 3 2 1 1 643 681 738 600
499 3 2 1 1 450 536 390 405
500 3 2 1 1 801 738 681 802
501 3 2 1 1 874 967 921 889
502 3 2 1 1 619 684 721 754
503 3 2 1 1 469 385 531 468
504 3 2 1 1 714 769 519 631
505 3 2 1 1 530 375 466 509
506 3 2 1 1 243 321 201 194
507 3 2 1 1 937 854 898 923
508 3 2 1 1 226 79 80 256
509 3 2 1 1 158 78 79 226
510 3 2 1 1 119 120 188 189
511 3 2 1 1 329 333 199 258
512 3 2 1 1 938 895 835 872
513 3 2 1 1 593 541 451 536
514 3 2 1 1 171 113 114 255
515 3 2 1 1 243 324 429 470
516 3 2 1 1 625 761 800 691
517 3 2 1 1 690 590 504 621
518 3 2 1 1 777 843 754 721
519 3 2 1 1 956 980 1029 993
520 3 2 1 1 318 256 178 230
521 3 2 1 1 705 794 726 622
522 3 2 1 1 1001 960 922 961
523 3 2 1 1 239 305 396 300
524 3 2 1 1 401 300 528 449
525 3 2 1 1 449 531 385 401
526 3 2 1 1 586 441 530 568
527 3 2 1 1 336 389 465 335
528 3 2 1 1 439 525 582 502
529 3 2 1 1 928 775 851 873
530 3 2 1 1 857 798 759 680
531 3 2 1 1 468 389 408 469
532 3 2 1 1 160 267 326 265
533 3 2 1 1 919 978 900 826
534 3 2 1 1 566 520 477 600
535 3 2 1 1 969 927 968 998
536 3 2 1 1 995 921 967 999
537 3 2 1 1 478 596 504 402
538 3 2 1 1 380 321 243 470
539 3 2 1 1 305 321 380 396
540 3 2 1 1 328 332 196 257
541 3 2 1 1 205 323 241 198
542 3 2 1 1 670 735 564 635
543 3 2 1 1 502 582 646 696
544 3 2 1 1 203 322 242 197
545 3 2 1 1 889 808 841 874
546 3 2 1 1 228 85 86 187
547 3 2 1 1 594 501 639 638
548 3 2 1 1 509 466 383 589
549 3 2 1 1 829 791 726 844
550 3 2 1 1 465 512 589 383
551 3 2 1 1 470 429 529 521
552 3 2 1 1 510 371 475 592
553 3 2 1 1 974 918 1026 992
554 3 2 1 1 255 114 115 191
555 3 2 1 1 323 205 263 306
556 3 2 1 1 254 188 195 259
557 3 2 1 1 536 450 594 593
558 3 2 1 1 370 230 330 493
559 3 2 1 1 322 203 261 304
560 3 2 1 1 659 638 759 684
561 3 2 1 1 828 798 857 883
562 3 2 1 1 622 726 791 679
563 3 2 1 1 592 692 633 510
564 3 2 1 1 232 475 371 334
565 3 2 1 1 165 109 110 260
566 3 2 1 1 880 824 927 969
567 3 2 1 1 299 553 477 399
568 3 2 1 1 802 835 895 801
569 3 2 1 1 582 525 510 633
570 3 2 1 1 736 792 823 685
571 3 2 1 1 850 946 873 851
572 3 2 1 1 673 566 600 738
573 3 2 1 1 783 673 738 801
574 3 2 1 1 834 939 876 847
575 3 2 1 1 783 856 758 673
576 3 2 1 1 665 566 673 758
577 3 2 1 1 931 1014 963 892
578 3 2 1 1 745 795 850 851
579 3 2 1 1 567 442 522 637
580 3 2 1 1 324 243 194 171
581 3 2 1 1 326 267 463 374
582 3 2 1 1 300 396 442 528
583 3 2 1 1 889 921 973 825
584 3 2 1 1 641 739 674 569
585 3 2 1 1 260 110 111 201
586 3 2 1 1 960 1001 999 967
587 3 2 1 1 531 449 636 587
588 3 2 1 1 577 691 757 667
589 3 2 1 1 1005 957 1018 1038
590 3 2 1 1 255 191 320 319
591 3 2 1 1 596 693 621 504
592 3 2 1 1 638 659 593 594
593 3 2 1 1 933 887 829 886
594 3 2 1 1 875 828 883 924
595 3 2 1 1 998 968 1016 1040
596 3 2 1 1 171 255 319 324
597 3 2 1 1 370 493 595 524
598 3 2 1 1 164 262 304 261
599 3 2 1 1 569 443 532 641
600 3 2 1 1 881 941 972 925
601 3 2 1 1 880 856 783 824
602 3 2 1 1 736 630 569 674
603 3 2 1 1 260 201 321 305
604 3 2 1 1 305 239 165 260
605 3 2 1 1 252 362 397 398
606 3 2 1 1 832 867 816 820
607 3 2 1 1 975 1004 875 924
608 3 2 1 1 679 791 840 729
609 3 2 1 1 192 330 230 178
610 3 2 1 1 637 583 697 756
611 3 2 1 1 117 118 190 250
612 3 2 1 1 961 922 892 963
613 3 2 1 1 587 512 468 531
614 3 2 1 1 887 840 791 829
615 3 2 1 1 443 569 630 518
616 3 2 1 1 726 794 901 844
617 3 2 1 1 857 797 900 883
618 3 2 1 1 843 777 932 879
619 3 2 1 1 512 465 389 468
620 3 2 1 1 861 790 899 912
621 3 2 1 1 679 631 586 622
622 3 2 1 1 792 736 674 839
623 3 2 1 1 404 472 241 323
624 3 2 1 1 84 85 228 123
625 3 2 1 1 149 640 616 150
626 3 2 1 1 994 973 921 995
627 3 2 1 1 897 881 925 966
628 3 2 1 1 334 371 464 400
629 3 2 1 1 566 665 615 520
630 3 2 1 1 958 934 888 917
631 3 2 1 1 398 493 330 252
632 3 2 1 1 590 690 641 532
633 3 2 1 1 918 976 991 1026
634 3 2 1 1 323 306 375 404
635 3 2 1 1 1003 1031 1045 1037
636 3 2 1 1 692 746 742 633
637 3 2 1 1 973 994 1002 920
638 3 2 1 1 928 873 1005 980
639 3 2 1 1 178 81 82 192
640 3 2 1 1 403 471 242 322
641 3 2 1 1 966 937 923 971
642 3 2 1 1 971 940 897 966
643 3 2 1 1 519 472 404 441
644 3 2 1 1 534 595 493 398
645 3 2 1 1 378 532 443 403
646 3 2 1 1 318 405 226 256
647 3 2 1 1 845 789 888 934
648 3 2 1 1 939 877 925 972
649 3 2 1 1 978 919 1027 996
650 3 2 1 1 729 714 631 679
651 3 2 1 1 410 331 400 464
652 3 2 1 1 375 530 441 404
653 3 2 1 1 839 782 902 884
654 3 2 1 1 739 782 839 674
655 3 2 1 1 757 691 800 737
656 3 2 1 1 246 320 191 181
657 3 2 1 1 895 938 927 824
658 3 2 1 1 382 325 242 471
659 3 2 1 1 961 975 996 1001
660 3 2 1 1 826 900 797 776
661 3 2 1 1 763 712 789 845
662 3 2 1 1 1016 968 1000 1023
663 3 2 1 1 588 636 449 528
664 3 2 1 1 374 478 235 326
665 3 2 1 1 528 442 567 588
666 3 2 1 1 392 316 244 467
667 3 2 1 1 322 304 378 403
668 3 2 1 1 690 725 739 641
669 3 2 1 1 327 381 457 329
670 3 2 1 1 472 519 769 381
671 3 2 1 1 568 705 622 586
672 3 2 1 1 877 937 966 925
673 3 2 1 1 633 742 646 582
674 3 2 1 1 509 632 568 530
675 3 2 1 1 686 626 587 636
676 3 2 1 1 684 759 798 721
677 3 2 1 1 635 564 524 595
678 3 2 1 1 429 387 447 529
679 3 2 1 1 625 691 577 506
680 3 2 1 1 883 900 978 924
681 3 2 1 1 859 792 839 884
682 3 2 1 1 763 813 621 693
683 3 2 1 1 381 327 241 472
684 3 2 1 1 725 862 782 739
685 3 2 1 1 888 856 880 917
686 3 2 1 1 928 980 956 872
687 3 2 1 1 963 1004 975 961
688 3 2 1 1 721 798 828 777
689 3 2 1 1 317 296 187 193
690 3 2 1 1 4 295 229 83
691 3 2 1 1 192 82 83 229
692 3 2 1 1 329 457 388 333
693 3 2 1 1 792 859 804 823
694 3 2 1 1 875 932 777 828
695 3 2 1 1 1003 1037 1015 982
696 3 2 1 1 902 935 962 948
697 3 2 1 1 968 927 938 1000
698 3 2 1 1 564 639 501 524
699 3 2 1 1 935 970 997 962
700 3 2 1 1 1022 1042 1018 1021
701 3 2 1 1 872 835 775 928
702 3 2 1 1 143 832 820 144
703 3 2 1 1 915 774 869 952
704 3 2 1 1 844 929 886 829
705 3 2 1 1 1023 1000 956 993
706 3 2 1 1 589 626 632 509
707 3 2 1 1 518 471 403 443
708 3 2 1 1 965 876 939 972
709 3 2 1 1 1020 1046 1034 1007
710 3 2 1 1 680 759 638 639
711 3 2 1 1 1012 987 962 997
712 3 2 1 1 1025 994 995 1028
713 3 2 1 1 689 740 628 664
714 3 2 1 1 935 862 894 970
715 3 2 1 1 998 1040 1017 990
716 3 2 1 1 158 226 405 390
717 3 2 1 1 1052 1040 1051 1048
718 3 2 1 1 1021 1002 994 1025
719 3 2 1 1 151 558 576 150
720 3 2 1 1 1014 931 876 965
721 3 2 1 1 735 670 776 797
722 3 2 1 1 789 712 758 856
723 3 2 1 1 190 118 119 189
724 3 2 1 1 616 557 151 150
725 3 2 1 1 521 529 575 583
726 3 2 1 1 522 442 396 380
727 3 2 1 1 129 496 527 130
728 3 2 1 1 1025 1026 991 1049
729 3 2 1 1 1000 938 872 956
730 3 2 1 1 181 116 117 250
731 3 2 1 1 527 392 467 514
732 3 2 1 1 142 908 942 141
733 3 2 1 1 145 818 871 144
734 3 2 1 1 628 697 583 575
735 3 2 1 1 187 296 125 228
736 3 2 1 1 1022 1049 991 1011
737 3 2 1 1 456 534 398 397
738 3 2 1 1 583 637 522 521
739 3 2 1 1 761 625 714 729
740 3 2 1 1 639 564 735 680
741 3 2 1 1 818 836 906 871
742 3 2 1 1 976 915 952 1011
743 3 2 1 1 1039 1020 1037 1045
744 3 2 1 1 625 506 769 714
745 3 2 1 1 1001 996 1027 999
746 3 2 1 1 972 941 879 965
747 3 2 1 1 1019 990 1017 1039
748 3 2 1 1 632 741 705 568
749 3 2 1 1 511 562 526 559
750 3 2 1 1 1043 1023 993 1044
751 3 2 1 1 987 1012 959 943
752 3 2 1 1 990 917 969 998
753 3 2 1 1 448 560 499 394
754 3 2 1 1 1015 1020 1007 981
755 3 2 1 1 450 405 318 460
756 3 2 1 1 838 821 796 830
757 3 2 1 1 556 555 616 640
758 3 2 1 1 811 756 697 793
759 3 2 1 1 774 915 830 796
760 3 2 1 1 393 555 556 498
761 3 2 1 1 154 432 499 153
762 3 2 1 1 380 470 521 522
763 3 2 1 1 1024 1035 958 1019
764 3 2 1 1 595 534 584 635
765 3 2 1 1 501 594 450 460
766 3 2 1 1 245 332 428 366
767 3 2 1 1 126 296 369 127
768 3 2 1 1 230 370 460 318
769 3 2 1 1 133 711 737 134
770 3 2 1 1 790 761 729 840
771 3 2 1 1 591 447 556 640
772 3 2 1 1 949 1010 984 909
773 3 2 1 1 959 1031 1003 942
774 3 2 1 1 990 1019 958 917
775 3 2 1 1 767 671 562 661
776 3 2 1 1 687 623 799 733
777 3 2 1 1 399 477 520 463
778 3 2 1 1 901 860 893 929
779 3 2 1 1 662 715 518 630
780 3 2 1 1 135 815 861 136
781 3 2 1 1 393 320 246 461
782 3 2 1 1 696 646 795 745
783 3 2 1 1 977 886 929 930
784 3 2 1 1 558 614 668 576
785 3 2 1 1 774 671 767 869
786 3 2 1 1 797 857 680 735
787 3 2 1 1 725 813 894 862
788 3 2 1 1 985 1032 1010 949
789 3 2 1 1 711 719 757 737
790 3 2 1 1 1023 1043 1041 1016
791 3 2 1 1 794 705 741 864
792 3 2 1 1 697 628 740 793
793 3 2 1 1 907 985 949 865
794 3 2 1 1 773 825 913 868
795 3 2 1 1 686 741 632 626
796 3 2 1 1 826 885 974 919
797 3 2 1 1 985 907 951 1008
798 3 2 1 1 983 1033 1008 951
799 3 2 1 1 859 836 734 804
800 3 2 1 1 979 1013 1036 1006
801 3 2 1 1 957 1005 873 946
802 3 2 1 1 963 1014 964 1004
803 3 2 1 1 332 328 494 428
804 3 2 1 1 366 368 254 245
805 3 2 1 1 980 1005 1038 1029
806 3 2 1 1 6 363 250 190
807 3 2 1 1 865 764 819 907
808 3 2 1 1 764 865 817 713
809 3 2 1 1 808 889 825 773
810 3 2 1 1 458 614 558 152
811 3 2 1 1 909 984 952 869
812 3 2 1 1 511 500 462 611
813 3 2 1 1 909 817 865 949
814 3 2 1 1 1029 1038 1050 1047
815 3 2 1 1 860 864 733 799
816 3 2 1 1 179 295 122 123
817 3 2 1 1 951 863 911 983
818 3 2 1 1 369 430 128 127
819 3 2 1 1 364 249 368 366
820 3 2 1 1 948 962 987 878
821 3 2 1 1 863 951 907 819
822 3 2 1 1 767 661 713 817
823 3 2 1 1 436 363 154 153
824 3 2 1 1 1044 1033 1009 1043
825 3 2 1 1 762 816 740 689
826 3 2 1 1 464 371 510 525
827 3 2 1 1 1044 993 1029 1047
828 3 2 1 1 478 374 535 596
829 3 2 1 1 905 944 870 136
830 3 2 1 1 152 557 461 436
831 3 2 1 1 645 535 615 665
832 3 2 1 1 814 858 771 134
833 3 2 1 1 664 591 710 772
834 3 2 1 1 896 910 867 832
835 3 2 1 1 434 436 461 246
836 3 2 1 1 709 760 669 132
837 3 2 1 1 581 585 523 507
838 3 2 1 1 664 628 575 591
839 3 2 1 1 138 947 933 139
840 3 2 1 1 137 912 947 138
841 3 2 1 1 612 660 561 130
842 3 2 1 1 131 613 642 132
843 3 2 1 1 132 642 711 133
844 3 2 1 1 461 557 555 393
845 3 2 1 1 819 708 768 863
846 3 2 1 1 817 909 869 767
847 3 2 1 1 1028 992 1026 1025
848 3 2 1 1 512 587 626 589
849 3 2 1 1 708 819 764 666
850 3 2 1 1 460 370 524 501
851 3 2 1 1 1009 945 986 1030
852 3 2 1 1 554 666 611 462
853 3 2 1 1 251 433 303 297
854 3 2 1 1 911 812 866 945
855 3 2 1 1 495 554 395 128
856 3 2 1 1 884 902 948 906
857 3 2 1 1 365 500 433 251
858 3 2 1 1 719 580 667 757
859 3 2 1 1 902 782 862 935
860 3 2 1 1 812 911 863 768
861 3 2 1 1 1052 1048 1034 1046
862 3 2 1 1 762 145 820 816
863 3 2 1 1 666 554 617 708
864 3 2 1 1 908 943 959 942
865 3 2 1 1 382 715 507 459
866 3 2 1 1 668 581 718 688
867 3 2 1 1 908 143 837 943
868 3 2 1 1 320 393 498 319
869 3 2 1 1 140 982 1015 139
870 3 2 1 1 149 663 675 148
871 3 2 1 1 126 435 365 125
872 3 2 1 1 523 494 459 507
873 3 2 1 1 140 988 977 141
874 3 2 1 1 1050 1042 1032 1047
875 3 2 1 1 903 986 945 866
876 3 2 1 1 1006 986 953 979
877 3 2 1 1 229 295 362 252
878 3 2 1 1 125 365 251 124
879 3 2 1 1 645 665 712 693
880 3 2 1 1 868 913 850 795
881 3 2 1 1 1022 1011 984 1010
882 3 2 1 1 944 989 1013 979
883 3 2 1 1 433 559 497 303
884 3 2 1 1 760 866 812 717
885 3 2 1 1 642 514 719 711
886 3 2 1 1 127 395 435 126
887 3 2 1 1 800 761 790 861
888 3 2 1 1 930 896 904 954
889 3 2 1 1 660 768 708 617
890 3 2 1 1 768 660 717 812
891 3 2 1 1 901 794 864 860
892 3 2 1 1 124 251 297 123
893 3 2 1 1 463 520 615 374
894 3 2 1 1 734 836 818 146
895 3 2 1 1 713 611 666 764
896 3 2 1 1 858 953 903 822
897 3 2 1 1 685 662 630 736
898 3 2 1 1 821 610 770 796
899 3 2 1 1 636 588 687 686
900 3 2 1 1 1041 1030 1006 1036
901 3 2 1 1 435 462 500 365
902 3 2 1 1 979 953 916 944
903 3 2 1 1 837 871 878 943
904 3 2 1 1 147 766 734 146
905 3 2 1 1 138 981 955 137
906 3 2 1 1 999 1027 1028 995
907 3 2 1 1 462 435 395 554
908 3 2 1 1 919 974 992 1027
909 3 2 1 1 866 760 822 903
910 3 2 1 1 709 771 822 760
911 3 2 1 1 913 825 973 920
912 3 2 1 1 612 669 717 660
913 3 2 1 1 1034 1013 989 1007
914 3 2 1 1 525 439 410 464
915 3 2 1 1 689 772 147 146
916 3 2 1 1 814 870 916 858
917 3 2 1 1 905 955 989 944
918 3 2 1 1 526 610 456 497
919 3 2 1 1 811 867 910 727
920 3 2 1 1 584 610 821 728
921 3 2 1 1 801 895 824 783
922 3 2 1 1 192 229 252 330
923 3 2 1 1 675 823 804 766
924 3 2 1 1 771 709 133 134
925 3 2 1 1 561 495 129 130
926 3 2 1 1 870 814 135 136
927 3 2 1 1 669 612 131 132
928 3 2 1 1 932 875 1004 964
929 3 2 1 1 838 776 670 728
930 3 2 1 1 529 447 591 575
931 3 2 1 1 459 494 328 325
932 3 2 1 1 667 388 457 577
933 3 2 1 1 495 561 617 554
934 3 2 1 1 1008 1047 1032 985
935 3 2 1 1 837 143 144 871
936 3 2 1 1 690 621 813 725
937 3 2 1 1 148 772 710 149
938 3 2 1 1 394 364 366 428
939 3 2 1 1 799 623 716 727
940 3 2 1 1 974 885 914 918
941 3 2 1 1 887 933 947 899
942 3 2 1 1 637 756 716 567
943 3 2 1 1 879 932 964 965
944 3 2 1 1 1012 997 1024 1031
945 3 2 1 1 188 254 368 189
946 3 2 1 1 906 948 878 871
947 3 2 1 1 523 585 560 448
948 3 2 1 1 1045 1031 1024 1019
949 3 2 1 1 431 316 392 430
950 3 2 1 1 431 317 193 253
951 3 2 1 1 498 556 447 387
952 3 2 1 1 770 610 526 562
953 3 2 1 1 893 827 910 896
954 3 2 1 1 830 950 914 838
955 3 2 1 1 576 668 688 663
956 3 2 1 1 756 811 727 716
957 3 2 1 1 173 244 316 253
958 3 2 1 1 662 718 581 507
959 3 2 1 1 141 942 982 140
960 3 2 1 1 448 394 428 494
961 3 2 1 1 364 432 6 249
962 3 2 1 1 904 832 143 142
963 3 2 1 1 458 499 560 614
964 3 2 1 1 150 576 663 149
965 3 2 1 1 153 499 458 152
966 3 2 1 1 815 135 134 737
967 3 2 1 1 179 123 297 367
968 3 2 1 1 146 145 762 689
969 3 2 1 1 471 518 715 382
970 3 2 1 1 954 904 142 141
971 3 2 1 1 930 929 893 896
972 3 2 1 1 996 975 924 978
973 3 2 1 1 1007 989 955 981
974 3 2 1 1 868 646 742 773
975 3 2 1 1 430 369 317 431
976 3 2 1 1 645 693 596 535
977 3 2 1 1 137 955 905 136
978 3 2 1 1 945 1009 983 911
979 3 2 1 1 685 765 718 662
980 3 2 1 1 303 497 397 367
981 3 2 1 1 179 367 362 295
982 3 2 1 1 1050 1038 1018 1042
983 3 2 1 1 796 770 671 774
984 3 2 1 1 688 765 675 663
985 3 2 1 1 181 250 434 246
986 3 2 1 1 1016 1041 1051 1040
987 3 2 1 1 387 429 324 319
988 3 2 1 1 128 430 496 129
989 3 2 1 1 130 527 613 131
990 3 2 1 1 733 741 686 687
991 3 2 1 1 816 867 793 740
992 3 2 1 1 1017 1040 1052 1046
993 3 2 1 1 840 887 899 790
994 3 2 1 1 799 727 827 860
995 3 2 1 1 467 388 580 514
996 3 2 1 1 912 137 136 861
997 3 2 1 1 1036 1048 1051 1041
998 3 2 1 1 506 577 457 381
999 3 2 1 1 946 920 1002 957
1000 3 2 1 1 500 511 559 433
1001 3 2 1 1 970 934 1035 997
1002 3 2 1 1 189 368 249 190
1003 3 2 1 1 611 713 661 511
1004 3 2 1 1 850 913 920 946
1005 3 2 1 1 1047 1008 1033 1044
1006 3 2 1 1 915 976 950 830
1007 3 2 1 1 981 138 139 1015
1008 3 2 1 1 623 687 588 567
1009 3 2 1 1 884 906 836 859
1010 3 2 1 1 918 914 950 976
1011 3 2 1 1 1043 1009 1030 1041
1012 3 2 1 1 585 668 614 560
1013 3 2 1 1 988 140 139 933
1014 3 2 1 1 1046 1020 1039 1017
1015 3 2 1 1 988 933 886 977
1016 3 2 1 1 885 776 838 914
1017 3 2 1 1 1010 1032 1042 1022
1018 3 2 1 1 148 675 766 147
1019 3 2 1 1 728 670 635 584
1020 3 2 1 1 640 149 710 591
1021 3 2 1 1 394 499 432 364
1022 3 2 1 1 496 430 392 527
1023 3 2 1 1 434 250 363 436
1024 3 2 1 1 823 675 765 685
1025 3 2 1 1 1048 1036 1013 1034
1026 3 2 1 1 815 737 800 861
1027 3 2 1 1 977 930 954 141
1028 3 2 1 1 514 642 613 527
1029 3 2 1 1 1021 1025 1049 1022
$EndElements
