$MeshFormat
2.2 0 8
$EndMeshFormat
$Nodes
881
1 0 0 0
2 0 200 0
3 0 200 100
4 0 0 100
5 0 20 40
6 0 76 56
7 0 160 80
8 0 20 80
9 0 160 20
10 0 5 0
11 0 10 0
12 0 15 0
13 0 20 0
14 0 25 0
15 0 30 0
16 0 35 0
17 0 40 0
18 0 45 0
19 0 50 0
20 0 55 0
21 0 60 0
22 0 65 0
23 0 70 0
24 0 75 0
25 0 80 0
26 0 85 0
27 0 90 0
28 0 95 0
29 0 100 0
30 0 105 0
31 0 110 0
32 0 115 0
33 0 120 0
34 0 125 0
35 0 130 0
36 0 135 0
37 0 140 0
38 0 145 0
39 0 150 0
40 0 155 0
41 0 160 0
42 0 165 0
43 0 170 0
44 0 175 0
45 0 180 0
46 0 185 0
47 0 190 0
48 0 195 0
49 0 200 5
50 0 200 10
51 0 200 15
52 0 200 20
53 0 200 25
54 0 200 30
55 0 200 35
56 0 200 40
57 0 200 45
58 0 200 50
59 0 200 55
60 0 200 60
61 0 200 65
62 0 200 70
63 0 200 75
64 0 200 80
65 0 200 85
66 0 200 90
67 0 200 95
68 0 195 100
69 0 190 100
70 0 185 100
71 0 180 100
72 0 175 100
73 0 170 100
74 0 165 100
75 0 160 100
76 0 155 100
77 0 150 100
78 0 145 100
79 0 140 100
80 0 135 100
81 0 130 100
82 0 125 100
83 0 120 100
84 0 115 100
85 0 110 100
86 0 105 100
87 0 100 100
88 0 95 100
89 0 90 100
90 0 85 100
91 0 80 100
92 0 75 100
93 0 70 100
94 0 65 100
95 0 60 100
96 0 55 100
97 0 50 100
98 0 45 100
99 0 40 100
100 0 35 100
101 0 30 100
102 0 25 100
103 0 20 100
104 0 15 100
105 0 10 100
106 0 4.99999999999997 100
107 0 0 95
108 0 0 90
109 0 0 85
110 0 0 80
111 0 0 75
112 0 0 70
113 0 0 65
114 0 0 60
115 0 0 55
116 0 0 50
117 0 0 45
118 0 0 40
119 0 0 35
120 0 0 30
121 0 0 25
122 0 0 20
123 0 0 15
124 0 0 10
125 0 0 5
126 0 24.6666666666667 41.3333333333333
127 0 29.3333333333333 42.6666666666667
128 0 34 44
129 0 38.6666666666666 45.3333333333333
130 0 43.3333333333333 46.6666666666667
131 0 48 48
132 0 52.6666666666666 49.3333333333333
133 0 57.3333333333333 50.6666666666667
134 0 62 52
135 0 66.6666666666667 53.3333333333333
136 0 71.3333333333333 54.6666666666667
137 0 80.9411764705882 57.4117647058823
138 0 85.8823529411764 58.8235294117647
139 0 90.8235294117647 60.2352941176471
140 0 95.7647058823529 61.6470588235294
141 0 100.705882352941 63.0588235294118
142 0 105.647058823529 64.4705882352941
143 0 110.588235294118 65.8823529411765
144 0 115.529411764706 67.2941176470588
145 0 120.470588235294 68.7058823529412
146 0 125.411764705882 70.1176470588235
147 0 130.352941176471 71.5294117647059
148 0 135.294117647059 72.9411764705882
149 0 140.235294117647 74.3529411764706
150 0 145.176470588235 75.7647058823529
151 0 150.117647058824 77.1764705882353
152 0 155.058823529412 78.5882352941177
153 0 24.6666666666667 78
154 0 29.3333333333333 76
155 0 34 74
156 0 38.6666666666667 72
157 0 43.3333333333333 70
158 0 48 68
159 0 52.6666666666667 66
160 0 57.3333333333333 64
161 0 62 62
162 0 66.6666666666667 60
163 0 71.3333333333333 58
164 0 80.6666666666667 54
165 0 85.3333333333333 52
166 0 90 50
167 0 94.6666666666666 48
168 0 99.3333333333333 46
169 0 104 44
170 0 108.666666666667 42
171 0 113.333333333333 40
172 0 118 38
173 0 122.666666666667 36
174 0 127.333333333333 34
175 0 132 32
176 0 136.666666666667 30
177 0 141.333333333333 28
178 0 146 26
179 0 150.666666666667 24
180 0 155.333333333333 22
181 0 69.9995293414234 4.99219110497789
182 0 50.0049114586059 4.9866916082251
183 0 79.9639077909901 95.1017130145965
184 0 84.9938780978459 5.00441550145129
185 0 99.9922276474003 5.00820629512453
186 0 30.0048078440181 4.98657729648647
187 0 194.990125530236 35.0053152760105
188 0 194.979004781698 64.9800769884474
189 0 100.005179098298 95.0135257850034
190 0 114.99158244239 5.01000439990858
191 0 64.9778229532147 95.0110608605929
192 0 115.00685836045 94.9828413453989
193 0 55.0539138158804 95.0052133424678
194 0 124.984409578199 5.01108441530432
195 0 130.017976001719 94.9758349648501
196 0 134.982093422417 5.01122635668466
197 0 45.0438818777578 94.9896398072082
198 0 4.99198212745723 59.9982865395462
199 0 145.037660587076 94.979632303691
200 0 144.980213716832 5.00360132467154
201 0 35.0235193516052 94.9748043392462
202 0 80.9151037068424 48.8632282273191
203 0 4.97182843886354 35.0083970717864
204 0 4.97149793076858 45.0054783158463
205 0 4.98994670270946 19.9971830389142
206 0 9.99771057643113 4.99720782886651
207 0 194.996879757248 84.9995869375458
208 0 194.994551001561 20.0033761609954
209 0 180.010744346335 94.9879103101205
210 0 180.004523999529 5.00926829101342
211 0 25.0191881600189 94.9625871277709
212 0 15.0101858588322 94.9849992106979
213 0 5.0107254991092 79.9957069359005
214 0 164.995997673654 5.01749837719707
215 0 170.023175670869 94.9743501030767
216 0 160.021812240926 94.9694638275252
217 0 71.4958407315696 49.6207163150021
218 0 194.983082405292 54.9896830549388
219 0 75.3619735639876 60.1366773973617
220 0 90.0033371299269 95.091058639523
221 0 74.9520041872003 95.0691011477727
222 0 4.98377826361499 24.9978156764272
223 0 35.004223061422 4.98540032325218
224 0 20.0003058508867 4.98912998722424
225 0 55.0041880156989 4.98771633503309
226 0 40.0034391234574 4.98426930033436
227 0 60.0027661458086 4.98837495748462
228 0 74.9976976544935 4.99622610527761
229 0 4.97547335681381 50.0009880550096
230 0 4.99960145097675 64.996842426482
231 0 4.99662241866896 9.99891682656332
232 0 4.99860668048032 4.99920183402317
233 0 5.00603850590618 69.9951034181252
234 0 194.999728231871 5.00092352721675
235 0 5.00228363072871 94.9989652317707
236 0 195.000106033052 94.9996584479247
237 0 194.993059848528 79.9972793116218
238 0 190.000955927557 94.9979603770293
239 0 89.9924150026079 5.00677377335921
240 0 104.99289456641 5.00903433668307
241 0 170.000750049953 5.01524992676602
242 0 194.99679801719 15.0030490569859
243 0 194.987078485554 45.0030788297515
244 0 194.990943545874 30.0046787579677
245 0 185.002372131403 5.00596202315347
246 0 149.980216017347 5.00504390392876
247 0 194.987441159413 74.99139564397
248 0 154.984212327513 5.01370355178113
249 0 5.00901033375361 84.9965796911246
250 0 110.004820936184 94.9855900060175
251 0 125.013377439091 94.9767806244729
252 0 155.028299811041 94.9714574206945
253 0 140.036553416724 94.9770901434577
254 0 66.3127923560629 56.7305410106638
255 0 86.1231673056237 55.5414172212847
256 0 70.005112994484 9.98495977343127
257 0 50.0175779292209 9.96448144134124
258 0 84.9748402316101 10.0188070211002
259 0 79.9150530449104 90.2088784191988
260 0 30.0125993884666 9.96364525575899
261 0 99.9751844828131 10.0208293211167
262 0 189.974015573636 35.018079427493
263 0 189.98430249289 79.9876013089897
264 0 86.009032804263 65.2594028118462
265 0 67.0630448861554 65.0178468012439
266 0 115.030378266896 89.9542081963773
267 0 9.98208712802018 19.9837095622464
268 0 130.077128319532 89.9306460618211
269 0 9.97996779670791 59.9988836665268
270 0 145.163397398766 89.9841277566009
271 0 144.948981366548 10.0133217811664
272 0 9.93399081477936 45.0228027115365
273 0 9.99424920288125 9.99291300246705
274 0 180.003417389462 10.0236558589139
275 0 189.987432612719 20.012548572977
276 0 10.0268043384426 79.9776739660503
277 0 169.997765823046 10.0437603266886
278 0 160.055543673764 89.9087127567176
279 0 76.1934931610673 49.8098508387984
280 0 71.4333686171123 62.1924083734872
281 0 62.060163357585 56.399773708298
282 0 84.9835705202883 95.1103855085704
283 0 91.2745260819137 55.0935428776672
284 0 69.9545739769343 95.0342715736126
285 0 4.96873279976283 40.0105104241879
286 0 95.0058342984745 95.0496252386269
287 0 4.97629589231961 30.002947813305
288 0 35.0080535609954 9.96078886763158
289 0 60.0213493075364 9.97202192988034
290 0 4.98240279287273 54.9993118503721
291 0 45.0044841775621 4.98401832232592
292 0 25.0032963129549 4.98612836127609
293 0 65.0026055526956 4.98943867428356
294 0 4.99376091331584 14.9969353183254
295 0 14.9980682791116 4.99257691277968
296 0 79.9946896063004 5.00132836143939
297 0 10.0017661745282 64.9859728023375
298 0 194.999074095435 89.9994222867829
299 0 190.000328069172 5.00305617807484
300 0 194.998706415583 10.0022939507416
301 0 185.004475913244 94.99380295115
302 0 60.0188411839281 95.0090292512337
303 0 5.00571066750369 89.9974271736745
304 0 94.9911757816734 5.00830589175263
305 0 10.0058913949644 94.9939718584373
306 0 194.992133020874 25.0045986613917
307 0 109.992862285897 5.01006077417784
308 0 194.987757772308 40.0063124404258
309 0 119.987084894276 5.01103079720166
310 0 50.0629995564913 94.9986973748341
311 0 129.981892288873 5.01222036186866
312 0 5.01053086307135 74.9937716707863
313 0 175.002971818905 5.01391118182713
314 0 194.980935269833 69.9835276013724
315 0 194.984693288252 49.9981442455084
316 0 40.0317260601576 94.9815674673641
317 0 139.979936695556 5.00893103726063
318 0 194.979070049511 59.9820757494081
319 0 175.019482409185 94.9799024366803
320 0 30.0217452903 94.9619529997641
321 0 159.989991701204 5.02063307351424
322 0 20.0156584840866 94.9683875370627
323 0 105.004553373283 94.9929803396945
324 0 149.9579667038 10.0490471160711
325 0 120.011224756821 94.9779902832494
326 0 135.032838371334 94.9730614009886
327 0 150.044196993517 94.9778492626534
328 0 165.025028448526 94.9676310122222
329 0 66.8585010135413 48.472137512984
330 0 85.8186963743727 47.1212915057841
331 0 81.7211915527952 62.2404028890679
332 0 189.956289423133 54.9912314023275
333 0 30.0089352612657 14.9225872367251
334 0 114.961246510495 10.0219075947744
335 0 95.0075701908493 90.0921905248128
336 0 69.8960905893454 90.0754638118605
337 0 55.1367772263942 90.0500586341126
338 0 124.953698096684 10.02473147806
339 0 45.0920913220219 89.9640093040039
340 0 81.4104685865749 65.7450212420782
341 0 81.0467493461111 43.8367308013946
342 0 14.9576928875803 60.0069082957639
343 0 35.0301208086127 89.918243102559
344 0 9.9324306038926 40.0303889364509
345 0 71.340727247836 65.84450028913
346 0 9.94071496481186 50.0172109335516
347 0 45.0104613582621 9.96045612296576
348 0 79.9799079094927 10.0127783952254
349 0 185.000074538845 10.0140607425862
350 0 94.9723043912127 10.0220218498706
351 0 180.02474066929 89.9707355518586
352 0 189.976793190203 30.016885989284
353 0 10.0202063259149 84.981599135385
354 0 10.0205981292806 69.9736433504755
355 0 189.945796878905 64.9593709909681
356 0 125.060078652382 89.9382083464104
357 0 164.99372546138 10.0634017875143
358 0 25.0244303518092 89.8449366606631
359 0 140.155807961968 89.9583770783355
360 0 155.089918000137 89.9228915943698
361 0 71.7540853867944 44.5974590637286
362 0 144.852713150716 15.0743077370274
363 0 57.8652839900236 56.0947107324914
364 0 96.2968059115898 57.0373547687707
365 0 84.9427328544889 90.2197102452409
366 0 74.9022356500137 90.1466809824142
367 0 9.9468662669446 30.0073346383497
368 0 9.96580156880594 24.9887997251325
369 0 40.0057065918305 9.95868897601717
370 0 9.95598065427545 55.0112499383377
371 0 65.0175630855168 9.97669822038981
372 0 25.0101936179352 9.96477893732438
373 0 9.99068492363281 14.9864038378432
374 0 14.9971400076831 9.98190788963738
375 0 55.0242889044385 9.96728035209196
376 0 64.9393113205108 90.0535864983687
377 0 134.957039299352 10.015896357963
378 0 74.992187333559 9.99988530565339
379 0 190.000075696139 89.99571384695
380 0 100.027006145378 90.009842615907
381 0 189.968325969959 74.9743232215054
382 0 189.993691161188 15.0104347872556
383 0 104.972260740483 10.0197530276804
384 0 189.998251033378 10.0071970594833
385 0 189.995031745812 84.9922498427245
386 0 189.966583560343 45.0174692210182
387 0 89.9702210216889 10.0223682756639
388 0 154.978749971822 10.0954885776569
389 0 10.0130092534985 89.9864662213826
390 0 189.981043450774 25.0159499356929
391 0 15.0188241879086 89.951556850264
392 0 139.949235990127 10.0144710227265
393 0 110.028407005274 89.9570392540333
394 0 170.054930758933 89.9357366941208
395 0 10.0293491865579 74.9689580467874
396 0 189.969418311802 40.0206493391549
397 0 175.000753771627 10.0364109109273
398 0 120.049188906629 89.9453511215759
399 0 135.124311390199 89.9300217131227
400 0 165.053524888187 89.9179083754519
401 0 150.14682687344 89.9690040795215
402 0 90.8185935160701 65.6594667143761
403 0 62.2015410618666 47.113143464281
404 0 61.8282389261409 68.7989155332239
405 0 78.8475702706197 61.2677471185552
406 0 91.4205164862943 45.5201935940918
407 0 55.0770486067161 14.9392197859908
408 0 74.9372837627983 15.0232098466433
409 0 89.9267663200695 15.0558329583566
410 0 184.936356721689 45.0480449165766
411 0 99.9573899563165 15.0245747459498
412 0 184.957965641397 30.0394256119867
413 0 74.9448860729712 85.2192979664533
414 0 94.9874231065889 85.1520975801177
415 0 110.094065497741 84.902246205165
416 0 14.9591404448746 24.9842334215919
417 0 179.992507637309 15.0440713213654
418 0 125.174537335015 84.8827717572862
419 0 53.5920559092489 55.1556066561127
420 0 101.999838598373 57.0207789437135
421 0 140.31506067602 84.9249769701773
422 0 25.0136327564596 14.9311160021696
423 0 45.0171857697297 14.9210371392924
424 0 14.9970556040344 14.9685730470157
425 0 34.9950756777393 14.9174991222711
426 0 184.983846978124 79.9623755143891
427 0 145.3018232522 85.0899909460836
428 0 149.919687158112 15.2576087140854
429 0 155.109127961046 84.7802744418337
430 0 84.9666160730772 85.322401846105
431 0 76.3398223506362 65.4361213182558
432 0 14.9106452427184 40.0830770283638
433 0 9.93673973681527 35.0272772779258
434 0 89.9797612176828 90.173292704019
435 0 14.9003471953664 55.0605051073116
436 0 65.0542155426064 14.9488367829903
437 0 20.0041189769892 9.9711722222651
438 0 14.872440073431 50.1086727168871
439 0 60.0395539907994 90.0717350736264
440 0 105.038381552654 89.964905677479
441 0 15.0109610472918 64.9565002783742
442 0 170.006643692089 15.0967174080691
443 0 185.007952359367 89.9854469471289
444 0 109.963355018016 10.019340095549
445 0 20.018881983345 89.881533562637
446 0 69.9172658104196 85.0906575233905
447 0 66.5323390553508 69.4184628139195
448 0 189.960641516017 50.0099188471259
449 0 159.992400865918 10.0996508298192
450 0 115.106563804101 84.8903014732523
451 0 189.952631678736 69.9624198825108
452 0 84.8999959046099 15.0726687649874
453 0 184.979644198586 20.032153281969
454 0 129.954667912272 10.0194047563825
455 0 40.0419266987723 89.9425033194522
456 0 175.044440172667 89.9509499537551
457 0 30.0234048417725 89.8597366193088
458 0 184.950492083909 35.0411120968276
459 0 119.951823179672 10.0245317246277
460 0 50.141643926443 90.0033116885045
461 0 15.0375269561871 69.900175445189
462 0 189.948233324448 59.9746783078514
463 0 134.909097362549 14.9458478962447
464 0 139.858865794474 14.9721824472783
465 0 184.991532981939 15.0245345290437
466 0 15.0214834882205 84.9305253733019
467 0 15.0268826761922 79.9182469706799
468 0 85.9179703184661 42.1241963632135
469 0 130.207961003358 84.8441938902757
470 0 95.7310409502481 66.8147911021562
471 0 170.081651459537 84.882283831734
472 0 160.067600779167 84.7807798149446
473 0 57.5240977881485 45.7469260291602
474 0 67.1150658651362 43.529515222479
475 0 76.3795255469929 44.6977752548386
476 0 85.8444169347148 70.4260668540473
477 0 56.9674259587001 69.3848159701269
478 0 56.9812659605706 60.1181441780736
479 0 95.9140929015066 52.3584995358776
480 0 95.3762153784158 43.4781088029689
481 0 74.1932236610264 62.3500369625628
482 0 160.231203594365 74.2111696661754
483 0 80.6940191611688 39.4974592885126
484 0 184.914793494629 64.9611162767324
485 0 34.9304355234938 19.8351564460979
486 0 114.872837866145 15.004990174899
487 0 179.927310899121 35.0718057405404
488 0 84.7233452007592 20.2557438495514
489 0 55.2673337369577 85.1938286842213
490 0 49.5458377218169 53.5195976432971
491 0 19.7362063820364 55.1229306176712
492 0 45.0569416435459 84.8614453717554
493 0 110.105966704242 79.8032699654517
494 0 75.2163680687751 80.2715994537465
495 0 14.9244522048982 30.0474108609554
496 0 100.028948228206 84.918347641092
497 0 179.979160361486 20.0651675491036
498 0 76.0697416271891 70.4802468930879
499 0 20.0615849093292 64.9160512575805
500 0 72.0216594669966 39.6423741119419
501 0 34.9239812310646 84.8893457844766
502 0 130.281363217151 79.7284567732816
503 0 134.807712262668 19.7819025787342
504 0 51.8743559490931 60.3763315618652
505 0 24.9720849583989 84.531872228583
506 0 100.37737696492 51.023161182748
507 0 106.7030546862 60.22815876425
508 0 144.482411160775 20.7545608894309
509 0 89.9907820856879 85.3016707667163
510 0 14.9148259889179 35.0891825899756
511 0 20.0077679756786 14.9483978185877
512 0 60.0876905761914 14.9444516566993
513 0 50.0507495443275 14.9262530980971
514 0 14.9876202923992 19.9651250893525
515 0 79.9798685181228 85.2888293877244
516 0 39.9944267811294 14.9149396518621
517 0 14.8892395521341 45.114041122678
518 0 64.9129367596591 85.1023339343543
519 0 24.9911230044598 19.88944877928
520 0 124.883077841295 15.0174107679346
521 0 69.990450435664 14.9725036374859
522 0 79.8888467771849 15.075349201507
523 0 184.954681324667 74.9448636931829
524 0 184.967939005522 25.0392559629625
525 0 174.998186123493 15.0728462242936
526 0 184.943155697108 40.045882022039
527 0 15.0323048692824 74.8830831581741
528 0 104.936287448402 15.0015053494354
529 0 120.151969687611 84.8797342468251
530 0 94.9515094483743 15.0410768453313
531 0 135.249017309274 84.8219942980139
532 0 165.0739672813 84.866217947645
533 0 150.185815567444 85.0112816259501
534 0 155.014426969879 15.4143338143021
535 0 180.027234498594 84.9471649745678
536 0 185.003092806723 84.9734530951023
537 0 129.893103672622 14.9798070261681
538 0 105.084906897257 84.8457310371933
539 0 165.01644367625 15.1222964860708
540 0 184.926150031092 50.0454343609228
541 0 90.7116342997889 70.8521069514184
542 0 19.9850526585835 84.7095188834838
543 0 100.639803103302 68.1725192013273
544 0 184.917946255784 55.0300436327955
545 0 52.8331782213303 44.4548634195728
546 0 175.056919622778 84.9118786859884
547 0 71.2269178264005 70.1885494082833
548 0 62.4899775010312 42.1477188410344
549 0 90.9196070870629 40.5988434788324
550 0 80.9519062901214 70.455614564472
551 0 61.7537443527198 73.511148866797
552 0 145.274799059181 80.3595952615876
553 0 51.5255976069594 70.3462077496153
554 0 99.7726116472751 40.7303278065
555 0 145.365637260991 70.6364612327609
556 0 150.908393687309 29.1372998438604
557 0 44.9929531630764 19.8525092483608
558 0 55.150395636896 19.935954996883
559 0 65.098934089662 19.8357204593774
560 0 100.064179579436 19.9648925800852
561 0 179.886480694532 55.0868978348692
562 0 94.6603333619672 80.7145940312967
563 0 85.5200406329976 75.4644549390068
564 0 70.203127380213 80.0330969527184
565 0 46.6105622559775 58.1650949612577
566 0 106.424855305374 53.5495412099759
567 0 179.946138522622 30.0768706224992
568 0 105.15419526406 79.6322655510767
569 0 170.099983048886 79.8152115236909
570 0 125.293715477626 79.8384059667323
571 0 19.6719857094423 50.3570849028769
572 0 19.9932313656744 69.8083876494336
573 0 85.1974571661555 80.4114693013162
574 0 135.295153434957 79.4982294647106
575 0 111.063096847002 61.7693204558042
576 0 44.9327679700323 51.9507315233261
577 0 19.9832416080491 30.2253158271443
578 0 19.7697256921791 45.4593659314296
579 0 19.9219291810609 35.4088925036266
580 0 20.0089263274016 25.0232595287853
581 0 65.9694319945168 74.3051643127269
582 0 39.9368026343109 19.8412724377438
583 0 70.7250740080226 74.9941399467267
584 0 19.9978115999913 19.9446722539439
585 0 29.9514250755938 19.8441712306108
586 0 85.3386476789672 36.5937508805081
587 0 74.6489089798936 20.0501036569521
588 0 60.0628073159817 85.2417656247626
589 0 109.895141854559 14.9868748636268
590 0 139.40980257901 19.4551827773169
591 0 179.898063126319 45.0920524927032
592 0 29.9666185852837 84.689928750695
593 0 115.09487343079 79.6533311669131
594 0 184.931118485199 69.9437693170601
595 0 19.903233393773 74.622407103945
596 0 89.9335387165199 20.1628658899547
597 0 79.5707825110173 20.220782590756
598 0 184.916337302787 60.0016379062841
599 0 19.953278266085 59.953154316956
600 0 179.966393243417 25.0782171913194
601 0 165.109705720815 79.7719778516603
602 0 39.8843911264158 84.882822093008
603 0 179.911948558352 40.0787877546902
604 0 170.051085788092 20.1647676052634
605 0 119.863594110533 15.0142121961503
606 0 50.2561743588973 84.9790015123028
607 0 175.004938886583 20.1107724088631
608 0 95.5487995413946 71.9134255695642
609 0 124.729351209305 19.9058449242987
610 0 129.730735921789 19.8463374064698
611 0 160.033418292762 15.2907874379523
612 0 80.2249218190187 80.3536911459674
613 0 75.647202057274 75.300968644128
614 0 180.005615782092 79.9192488295768
615 0 105.440319812316 69.4543807629014
616 0 155.266857308521 73.2851533674284
617 0 48.1916682004439 43.2668651266794
618 0 57.8462047869309 40.7798065981237
619 0 140.304358965077 79.7453357039121
620 0 67.4762374358925 38.5675540931709
621 0 56.9808151449981 75.0981132015401
622 0 95.6347063964766 40.0945331578958
623 0 76.5097473141559 39.8604041808245
624 0 160.401130731549 25.9904582427511
625 0 46.915655911834 63.4433064657869
626 0 149.709195711483 20.0129853489158
627 0 105.0662708366 49.0792983678845
628 0 46.4182294771207 73.9033523085478
629 0 105.260962609225 39.0192517764399
630 0 149.771140072544 80.7299236442033
631 0 39.8198725170999 24.7291124385593
632 0 160.365320533789 68.9814639646074
633 0 179.925952667074 64.9693837473722
634 0 23.855923884781 54.9132895230302
635 0 114.807397373143 19.886824341424
636 0 42.5419927126783 55.8883053456098
637 0 76.8558853189523 35.1644619637186
638 0 110.225710714226 56.9210481307252
639 0 174.862369196341 45.1205858607689
640 0 174.931702750158 35.119350267828
641 0 78.8033629521203 25.3986781113137
642 0 42.6200615824875 64.8473008046996
643 0 109.703187141095 47.1450801201448
644 0 109.682599310683 75.129292206183
645 0 44.7478781301987 79.2799163504327
646 0 124.498869832587 24.6458475821635
647 0 24.8598159941524 36.3336567588248
648 0 100.400272116363 73.3261266786235
649 0 115.571216207568 62.4504376309359
650 0 39.5691213481871 49.9318177383366
651 0 25.1653118408157 64.9892778466389
652 0 55.7126478755937 80.4325166761493
653 0 60.8362962177017 77.3147998530514
654 0 34.565539069267 79.9863966485343
655 0 90.1242789154022 80.5168363276529
656 0 25.041185708871 24.9341474756316
657 0 50.0541089691153 19.8678661362647
658 0 29.9670262120757 24.7222130827752
659 0 60.2048858860175 19.9384931091551
660 0 69.8279644794931 19.8598054099926
661 0 95.0771194750987 20.0405480896954
662 0 90.3905226577205 75.7691021475494
663 0 179.974971469795 74.9017829692934
664 0 179.888284442272 50.0978211479754
665 0 90.8783460230009 35.6204468005778
666 0 84.3849070843694 26.1564809846956
667 0 105.01191441547 19.8808470761969
668 0 120.215502599677 79.6636854836579
669 0 170.129887516636 74.7483956592951
670 0 165.099051980453 20.2326628067556
671 0 174.978112650525 30.1338051282028
672 0 175.007231012154 25.1341717331133
673 0 99.5026428925145 79.0462296791449
674 0 165.192435558372 74.5929343817173
675 0 140.413065298461 69.2218382134677
676 0 134.597991066548 25.1529808269786
677 0 43.6452386676159 41.9854346048664
678 0 119.761889341513 19.9042160522113
679 0 53.174292995728 39.6112670699481
680 0 62.9767207190093 37.1818681965555
681 0 80.5804264564602 75.3953749922242
682 0 72.4553698162815 34.6858246145359
683 0 179.910120819944 60.0345942203171
684 0 175.050686875299 79.8690815624856
685 0 146.194842845473 31.079315013702
686 0 150.313912614832 72.012585590552
687 0 155.640267728663 27.351886792426
688 0 24.8502823334499 69.9384904290454
689 0 80.8931205571837 35.1123626441924
690 0 101.428640261048 35.7672654734267
691 0 24.4620648097162 46.2434128491421
692 0 51.7082944808143 75.2508706587569
693 0 30.0973961621766 80.0565047036629
694 0 109.801545532599 70.4506003103066
695 0 64.7187251759484 79.6068503192174
696 0 41.2511346674279 75.2420778219565
697 0 129.929794058456 75.2582200594599
698 0 24.3141396937774 74.2688464606439
699 0 110.810868503134 37.3464389280097
700 0 139.803180074395 23.8621642447537
701 0 145.530245864572 65.5386966109772
702 0 151.220289070249 34.3180392791671
703 0 49.9136851247959 24.7600066400773
704 0 174.885405933474 55.0758980893736
705 0 60.5519332484739 25.5507500059948
706 0 37.813673229762 55.3371578336058
707 0 100.438231299322 24.8393829295981
708 0 90.2575015153632 25.3454203105733
709 0 130.523597847803 66.3581528896413
710 0 120.553322830891 63.5936549451229
711 0 170.087278423031 30.2342133591887
712 0 160.674674633416 31.226676318693
713 0 136.806036352518 35.041953079265
714 0 86.0972659899795 31.2536937563117
715 0 25.643479124217 30.719887566265
716 0 33.6910269684744 48.9331251201351
717 0 77.7129115963555 30.3795503837354
718 0 73.9841480477328 24.9945368717983
719 0 114.504282110186 73.4547550687162
720 0 44.8533755594295 24.7301131002692
721 0 115.677283184139 57.3136102401586
722 0 34.8564834390739 24.6615002434169
723 0 29.6477680117932 37.7577625737071
724 0 65.2924687506009 24.1444297666873
725 0 68.0503664108461 33.7314544243563
726 0 24.1169321926481 50.8208916820398
727 0 109.923315934578 19.8388694059704
728 0 129.176425818489 24.2303068855841
729 0 174.895171225353 40.1166242257634
730 0 170.09831411698 25.2229379722831
731 0 179.95406180327 69.9158412941385
732 0 25.5194026361174 59.3870425006136
733 0 95.8966497965609 35.2743045133023
734 0 39.2554163667141 80.0361584444116
735 0 174.86031276461 50.1010799995566
736 0 170.155583725486 69.7151934372178
737 0 165.268392459619 69.4545989263203
738 0 39.0561139298426 40.5167205571808
739 0 48.5980273911197 38.6905586213974
740 0 58.4268708755178 35.8486177937319
741 0 115.017107396088 24.6283362566268
742 0 119.746882264846 24.6221738516757
743 0 135.467204301923 67.7918996042552
744 0 175.041728570948 74.8403707784783
745 0 125.321131808966 74.9013245825626
746 0 155.409314861343 68.0904634579851
747 0 175.007008115874 64.9075532005056
748 0 165.222406365284 25.4279025770578
749 0 105.171617343238 74.4193792454157
750 0 30.1459080348837 65.3095561513098
751 0 50.7108038022343 79.9153529476344
752 0 107.250076482015 34.4660142053204
753 0 29.5516989812051 70.1746975201241
754 0 141.496350453725 33.0590047400024
755 0 94.7678279529598 76.3083188504303
756 0 41.8505926000274 60.3651894190394
757 0 59.9793520997988 80.9724241198638
758 0 110.813955063424 51.7813527111453
759 0 113.477348638881 34.3335674658396
760 0 38.561112400977 76.6398219894453
761 0 28.9298893453825 47.4778497796459
762 0 38.5581202569596 66.1978102815265
763 0 114.27431843438 45.296699335972
764 0 169.83986719472 45.0879770505626
765 0 160.3324060534 63.9099122851865
766 0 39.743618699174 29.6265175824745
767 0 120.863243160573 58.3493511431365
768 0 135.677977991933 62.6324275684724
769 0 105.347859259988 24.6549797837594
770 0 141.773094961575 38.1066901985809
771 0 44.7002184376794 29.5137832600679
772 0 30.4140525353568 29.1047365279596
773 0 32.0148215090202 54.3841150976362
774 0 36.7727330836555 61.1772708453953
775 0 116.281950548574 50.9916282263266
776 0 118.522966839395 43.5692607338163
777 0 31.1482744914059 60.2060418537888
778 0 100.960656736013 29.9046350704194
779 0 123.737388336281 30.3587024851822
780 0 115.959079894371 29.9304713678922
781 0 54.9770332309842 24.9948545610644
782 0 69.4163389818473 24.5516495321678
783 0 95.4262167801939 25.0430421001002
784 0 174.953913980559 59.9821903630137
785 0 120.238882706705 74.2205213214363
786 0 90.6650189695915 30.5527876138128
787 0 169.896941255408 54.9279173259875
788 0 170.031752014191 35.2084242326021
789 0 150.458634751792 66.9003952189389
790 0 44.4555894470401 37.9287975202513
791 0 110.232410628555 24.6052700861302
792 0 53.7661323660244 34.832670093628
793 0 63.7330152098338 32.3990632912783
794 0 73.1905404773552 29.8171372699128
795 0 140.601050289815 64.0934435162746
796 0 34.3588504224075 39.1336049336253
797 0 132.186370753785 36.887751159173
798 0 125.571768590906 64.9388932993601
799 0 170.122045596425 64.7338653027893
800 0 175.034285794631 69.8443361832221
801 0 165.325379645991 30.5187412113894
802 0 156.007119932352 32.6448798163405
803 0 146.478811073149 36.1238512434893
804 0 81.7473675322723 31.1473051470347
805 0 110.578246697162 32.452787987731
806 0 33.7842022845972 70.1604654163435
807 0 30.343745705449 33.477315781874
808 0 28.0112893606735 51.4973467098853
809 0 120.099040197831 33.2082968508144
810 0 59.244164023535 30.9950534081163
811 0 150.522981204259 61.9377602689394
812 0 151.572178506146 39.4072048812248
813 0 140.874416025084 58.9830817028852
814 0 125.901756427671 59.7302317182737
815 0 121.842353270176 53.0967904177474
816 0 161.1614946484 35.6901558946568
817 0 40.1168041687581 35.177813102949
818 0 34.7718527241946 34.2828128061576
819 0 49.5527254900661 29.5473427394373
820 0 54.4291167904343 30.0321468218951
821 0 169.824402300685 50.0034126486969
822 0 169.944285607308 40.1503575445746
823 0 137.09898729294 40.1418815140262
824 0 155.388924108948 63.0627497328252
825 0 34.9237885803886 29.4531414672626
826 0 130.810416552577 61.1725705642073
827 0 165.221384135192 64.4221288809395
828 0 165.363766660317 35.3913565081279
829 0 170.016259095235 59.8079802510751
830 0 127.995165477386 38.179026811698
831 0 105.906728178528 29.4553457585933
832 0 146.874926105151 41.0894683310191
833 0 68.8044189944618 29.0960689945605
834 0 49.1285198323144 34.2006076632761
835 0 34.3672776610249 66.1589920948798
836 0 119.014196613877 47.8941221033808
837 0 95.7787493308548 30.1939208165897
838 0 119.813056617801 28.078073614711
839 0 64.8261921299735 28.3197004797421
840 0 27.4476987255788 55.1880291350157
841 0 123.776419399019 40.2330931342625
842 0 44.910038917516 33.7744201442115
843 0 129.792709112355 28.3906204212713
844 0 155.20796780006 58.2500819780176
845 0 152.372586781752 44.472849600294
846 0 164.792775597025 44.9419251023597
847 0 127.301702475254 43.2568365750814
848 0 131.38977362405 56.0589199867915
849 0 164.903374246751 54.7064114860026
850 0 160.137979398023 58.9891565534487
851 0 126.785707298899 54.5442064308136
852 0 142.54417672253 42.6453753866008
853 0 160.92844424396 39.9777722385882
854 0 165.17588660928 40.1264469859083
855 0 145.706427565749 60.5344785164882
856 0 136.102499360878 57.5120679327888
857 0 122.979104121343 47.683529810173
858 0 165.095881591125 59.5133547044956
859 0 132.417522663925 41.8897796387178
860 0 156.748343652872 38.1716149068305
861 0 110.529085770229 29.2109336804751
862 0 146.082325876452 55.7275618157902
863 0 136.782263025838 52.2902777382435
864 0 159.386386081702 44.3813631155765
865 0 137.889730749819 46.0936606423295
866 0 132.561223022301 51.495862819573
867 0 147.524597360667 45.5975817682705
868 0 150.566148711491 57.2832378684954
869 0 164.71458334022 49.82511033197
870 0 160.196319246636 54.5853654934249
871 0 132.978739528166 46.6438679156424
872 0 156.075572971341 42.299176476151
873 0 128.480726790037 49.1065408941527
874 0 152.234521643419 49.1780260868408
875 0 143.124885566984 48.2912071895029
876 0 141.6183523076 53.8194279588429
877 0 159.235004038878 49.7494620094679
878 0 154.739285541942 53.1986141019168
879 0 155.663567905816 47.119380494671
880 0 147.280232172588 51.1325247179618
881 0 150.879682113247 54.0216859380263
$EndNodes
$Elements
847
1 2 2 1 1 762 835 774 
2 2 2 1 1 645 696 628 
3 2 2 1 1 714 804 666 
4 2 2 1 1 163 280 162 
5 2 2 1 1 137 6 164 
6 2 2 1 1 136 6 163 
7 2 2 1 1 6 219 163 
8 2 2 1 1 817 842 790 
9 2 2 1 1 847 873 857 
10 2 2 1 1 137 255 138 
11 2 2 1 1 179 626 180 
12 2 2 1 1 154 693 153 
13 2 2 1 1 565 756 636 
14 2 2 1 1 162 254 163 
15 2 2 1 1 504 625 565 
16 2 2 1 1 566 758 638 
17 2 2 1 1 676 843 728 
18 2 2 1 1 507 638 575 
19 2 2 1 1 724 839 705 
20 2 2 1 1 483 689 586 
21 2 2 1 1 634 840 732 
22 2 2 1 1 160 478 161 
23 2 2 1 1 845 879 874 
24 2 2 1 1 130 650 129 
25 2 2 1 1 867 880 875 
26 2 2 1 1 852 875 865 
27 2 2 1 1 870 878 877 
28 2 2 1 1 162 265 161 
29 2 2 1 1 508 700 590 
30 2 2 1 1 562 755 673 
31 2 2 1 1 551 653 621 
32 2 2 1 1 776 857 836 
33 2 2 1 1 694 719 644 
34 2 2 1 1 772 807 715 
35 2 2 1 1 153 698 154 
36 2 2 1 1 553 692 628 
37 2 2 1 1 148 697 147 
38 2 2 1 1 853 860 816 
39 2 2 1 1 159 553 158 
40 2 2 1 1 283 479 364 
41 2 2 1 1 690 752 629 
42 2 2 1 1 773 840 808 
43 2 2 1 1 363 419 133 
44 2 2 1 1 166 406 167 
45 2 2 1 1 830 847 841 
46 2 2 1 1 152 630 151 
47 2 2 1 1 168 554 169 
48 2 2 1 1 695 757 653 
49 2 2 1 1 169 629 170 
50 2 2 1 1 170 699 171 
51 2 2 1 1 172 809 173 
52 2 2 1 1 155 806 156 
53 2 2 1 1 877 879 864 
54 2 2 1 1 866 873 871 
55 3 2 1 1 182 19 20 225
56 3 2 1 1 82 251 195 81
57 3 2 1 1 76 252 216 75
58 3 2 1 1 125 1 10 232
59 3 2 1 1 10 11 206 232
60 3 2 1 1 47 299 245 46
61 3 2 1 1 121 122 205 222
62 3 2 1 1 46 245 210 45
63 3 2 1 1 230 113 114 198
64 3 2 1 1 230 233 112 113
65 3 2 1 1 105 305 212 104
66 3 2 1 1 213 249 109 110
67 3 2 1 1 69 238 236 68
68 3 2 1 1 68 236 67 3
69 3 2 1 1 67 236 298 66
70 3 2 1 1 208 242 51 52
71 3 2 1 1 27 239 184 26
72 3 2 1 1 187 244 54 55
73 3 2 1 1 65 66 298 207
74 3 2 1 1 85 250 192 84
75 3 2 1 1 30 240 185 29
76 3 2 1 1 65 207 237 64
77 3 2 1 1 20 21 227 225
78 3 2 1 1 39 246 200 38
79 3 2 1 1 40 248 246 39
80 3 2 1 1 231 124 125 232
81 3 2 1 1 43 241 214 42
82 3 2 1 1 49 234 48 2
83 3 2 1 1 107 235 106 4
84 3 2 1 1 234 299 47 48
85 3 2 1 1 235 305 105 106
86 3 2 1 1 205 122 123 294
87 3 2 1 1 181 23 24 228
88 3 2 1 1 294 123 124 231
89 3 2 1 1 284 93 94 191
90 3 2 1 1 238 69 70 301
91 3 2 1 1 111 312 213 110
92 3 2 1 1 234 49 50 300
93 3 2 1 1 660 587 718 782
94 3 2 1 1 521 408 587 660
95 3 2 1 1 297 354 233 230
96 3 2 1 1 247 314 62 63
97 3 2 1 1 62 314 188 61
98 3 2 1 1 239 27 28 304
99 3 2 1 1 228 24 25 296
100 3 2 1 1 208 52 53 306
101 3 2 1 1 241 43 44 313
102 3 2 1 1 186 15 16 223
103 3 2 1 1 240 30 31 307
104 3 2 1 1 191 94 95 302
105 3 2 1 1 273 231 232 206
106 3 2 1 1 206 11 12 295
107 3 2 1 1 226 17 18 291
108 3 2 1 1 250 85 86 323
109 3 2 1 1 236 238 379 298
110 3 2 1 1 70 71 209 301
111 3 2 1 1 237 247 63 64
112 3 2 1 1 190 32 33 309
113 3 2 1 1 379 238 301 443
114 3 2 1 1 187 55 56 308
115 3 2 1 1 233 312 111 112
116 3 2 1 1 235 107 108 303
117 3 2 1 1 50 51 242 300
118 3 2 1 1 25 26 184 296
119 3 2 1 1 228 378 256 181
120 3 2 1 1 193 96 97 310
121 3 2 1 1 194 34 35 311
122 3 2 1 1 227 21 22 293
123 3 2 1 1 243 57 58 315
124 3 2 1 1 197 98 99 316
125 3 2 1 1 196 36 37 317
126 3 2 1 1 223 16 17 226
127 3 2 1 1 299 234 300 384
128 3 2 1 1 218 59 60 318
129 3 2 1 1 658 585 485 722
130 3 2 1 1 224 13 14 292
131 3 2 1 1 342 441 297 269
132 3 2 1 1 28 29 185 304
133 3 2 1 1 387 258 184 239
134 3 2 1 1 350 387 239 304
135 3 2 1 1 201 100 101 320
136 3 2 1 1 44 45 210 313
137 3 2 1 1 53 54 244 306
138 3 2 1 1 248 40 41 321
139 3 2 1 1 211 102 103 322
140 3 2 1 1 242 382 384 300
141 3 2 1 1 444 383 240 307
142 3 2 1 1 244 352 390 306
143 3 2 1 1 244 187 262 352
144 3 2 1 1 440 323 189 380
145 3 2 1 1 31 32 190 307
146 3 2 1 1 251 82 83 325
147 3 2 1 1 95 96 193 302
148 3 2 1 1 295 12 13 224
149 3 2 1 1 203 119 120 287
150 3 2 1 1 245 299 384 349
151 3 2 1 1 33 34 194 309
152 3 2 1 1 528 383 444 589
153 3 2 1 1 56 57 243 308
154 3 2 1 1 275 208 306 390
155 3 2 1 1 296 184 258 348
156 3 2 1 1 448 386 243 315
157 3 2 1 1 108 109 249 303
158 3 2 1 1 86 87 189 323
159 3 2 1 1 305 235 303 389
160 3 2 1 1 198 114 115 290
161 3 2 1 1 290 115 116 229
162 3 2 1 1 97 98 197 310
163 3 2 1 1 35 36 196 311
164 3 2 1 1 292 14 15 186
165 3 2 1 1 293 22 23 181
166 3 2 1 1 382 242 208 275
167 3 2 1 1 252 76 77 327
168 3 2 1 1 392 377 196 317
169 3 2 1 1 209 71 72 319
170 3 2 1 1 348 258 452 522
171 3 2 1 1 269 297 230 198
172 3 2 1 1 58 59 218 315
173 3 2 1 1 289 375 225 227
174 3 2 1 1 183 91 92 221
175 3 2 1 1 225 375 257 182
176 3 2 1 1 307 190 334 444
177 3 2 1 1 485 585 333 425
178 3 2 1 1 99 100 201 316
179 3 2 1 1 37 38 200 317
180 3 2 1 1 256 378 408 521
181 3 2 1 1 302 193 337 439
182 3 2 1 1 291 18 19 182
183 3 2 1 1 253 79 80 326
184 3 2 1 1 253 199 78 79
185 3 2 1 1 301 209 351 443
186 3 2 1 1 288 369 516 425
187 3 2 1 1 60 61 188 318
188 3 2 1 1 215 73 74 328
189 3 2 1 1 241 277 357 214
190 3 2 1 1 247 237 263 381
191 3 2 1 1 631 722 485 582
192 3 2 1 1 116 117 204 229
193 3 2 1 1 397 525 442 277
194 3 2 1 1 267 368 222 205
195 3 2 1 1 459 334 190 309
196 3 2 1 1 233 354 395 312
197 3 2 1 1 204 117 118 285
198 3 2 1 1 667 528 589 727
199 3 2 1 1 290 229 346 370
200 3 2 1 1 101 102 211 320
201 3 2 1 1 378 228 296 348
202 3 2 1 1 212 305 389 391
203 3 2 1 1 41 42 214 321
204 3 2 1 1 103 104 212 322
205 3 2 1 1 226 369 288 223
206 3 2 1 1 249 213 276 353
207 3 2 1 1 667 560 411 528
208 3 2 1 1 528 411 261 383
209 3 2 1 1 207 298 379 385
210 3 2 1 1 444 334 486 589
211 3 2 1 1 350 261 411 530
212 3 2 1 1 585 658 656 519
213 3 2 1 1 324 271 200 246
214 3 2 1 1 260 186 223 288
215 3 2 1 1 83 84 192 325
216 3 2 1 1 372 292 186 260
217 3 2 1 1 276 213 312 395
218 3 2 1 1 460 337 193 310
219 3 2 1 1 659 512 436 559
220 3 2 1 1 287 120 121 222
221 3 2 1 1 304 185 261 350
222 3 2 1 1 388 324 246 248
223 3 2 1 1 454 338 194 311
224 3 2 1 1 449 388 248 321
225 3 2 1 1 383 261 185 240
226 3 2 1 1 530 409 387 350
227 3 2 1 1 398 356 251 325
228 3 2 1 1 263 237 207 385
229 3 2 1 1 295 224 437 374
230 3 2 1 1 258 387 409 452
231 3 2 1 1 462 332 218 318
232 3 2 1 1 458 262 396 526
233 3 2 1 1 274 210 245 349
234 3 2 1 1 407 513 257 375
235 3 2 1 1 426 523 381 263
236 3 2 1 1 80 81 195 326
237 3 2 1 1 268 195 251 356
238 3 2 1 1 605 486 334 459
239 3 2 1 1 204 272 346 229
240 3 2 1 1 321 214 357 449
241 3 2 1 1 210 274 397 313
242 3 2 1 1 523 594 451 381
243 3 2 1 1 262 458 412 352
244 3 2 1 1 374 273 206 295
245 3 2 1 1 465 382 275 453
246 3 2 1 1 250 323 440 393
247 3 2 1 1 452 409 596 488
248 3 2 1 1 77 78 199 327
249 3 2 1 1 381 451 314 247
250 3 2 1 1 72 73 215 319
251 3 2 1 1 386 396 308 243
252 3 2 1 1 389 303 249 353
253 3 2 1 1 399 359 253 326
254 3 2 1 1 453 275 390 524
255 3 2 1 1 393 266 192 250
256 3 2 1 1 372 437 224 292
257 3 2 1 1 369 226 291 347
258 3 2 1 1 450 415 493 593
259 3 2 1 1 455 339 197 316
260 3 2 1 1 317 200 271 392
261 3 2 1 1 309 194 338 459
262 3 2 1 1 401 360 252 327
263 3 2 1 1 788 640 729 822
264 3 2 1 1 764 822 729 639
265 3 2 1 1 525 397 274 417
266 3 2 1 1 451 355 188 314
267 3 2 1 1 395 527 467 276
268 3 2 1 1 315 218 332 448
269 3 2 1 1 349 465 417 274
270 3 2 1 1 391 445 322 212
271 3 2 1 1 294 231 273 373
272 3 2 1 1 351 535 536 443
273 3 2 1 1 352 412 524 390
274 3 2 1 1 409 530 661 596
275 3 2 1 1 426 536 535 614
276 3 2 1 1 287 222 368 367
277 3 2 1 1 530 411 560 661
278 3 2 1 1 74 75 216 328
279 3 2 1 1 288 425 333 260
280 3 2 1 1 373 267 205 294
281 3 2 1 1 293 181 256 371
282 3 2 1 1 278 216 252 360
283 3 2 1 1 445 358 211 322
284 3 2 1 1 310 197 339 460
285 3 2 1 1 546 471 569 684
286 3 2 1 1 559 436 521 660
287 3 2 1 1 537 520 338 454
288 3 2 1 1 285 118 119 203
289 3 2 1 1 311 196 377 454
290 3 2 1 1 522 452 488 597
291 3 2 1 1 325 192 266 398
292 3 2 1 1 318 188 355 462
293 3 2 1 1 370 269 198 290
294 3 2 1 1 277 241 313 397
295 3 2 1 1 319 215 394 456
296 3 2 1 1 592 501 343 457
297 3 2 1 1 320 211 358 457
298 3 2 1 1 457 343 201 320
299 3 2 1 1 270 199 253 359
300 3 2 1 1 408 378 348 522
301 3 2 1 1 189 87 88 286
302 3 2 1 1 262 187 308 396
303 3 2 1 1 349 384 382 465
304 3 2 1 1 393 415 450 266
305 3 2 1 1 263 385 536 426
306 3 2 1 1 572 461 441 499
307 3 2 1 1 487 640 671 567
308 3 2 1 1 392 271 362 464
309 3 2 1 1 326 195 268 399
310 3 2 1 1 487 458 526 603
311 3 2 1 1 376 191 302 439
312 3 2 1 1 351 209 319 456
313 3 2 1 1 590 503 463 464
314 3 2 1 1 527 395 354 461
315 3 2 1 1 191 376 336 284
316 3 2 1 1 182 257 347 291
317 3 2 1 1 380 496 538 440
318 3 2 1 1 458 487 567 412
319 3 2 1 1 385 379 443 536
320 3 2 1 1 316 201 343 455
321 3 2 1 1 357 277 442 539
322 3 2 1 1 285 203 433 344
323 3 2 1 1 276 467 466 353
324 3 2 1 1 327 199 270 401
325 3 2 1 1 440 538 415 393
326 3 2 1 1 611 534 388 449
327 3 2 1 1 464 463 377 392
328 3 2 1 1 412 567 600 524
329 3 2 1 1 371 289 227 293
330 3 2 1 1 459 338 520 605
331 3 2 1 1 394 215 328 400
332 3 2 1 1 598 544 332 462
333 3 2 1 1 438 346 272 517
334 3 2 1 1 367 433 203 287
335 3 2 1 1 711 671 640 788
336 3 2 1 1 464 362 508 590
337 3 2 1 1 567 671 672 600
338 3 2 1 1 491 599 342 435
339 3 2 1 1 386 410 526 396
340 3 2 1 1 591 410 540 664
341 3 2 1 1 529 418 356 398
342 3 2 1 1 602 492 339 455
343 3 2 1 1 410 591 603 526
344 3 2 1 1 260 333 422 372
345 3 2 1 1 461 354 297 441
346 3 2 1 1 669 569 601 674
347 3 2 1 1 587 408 522 597
348 3 2 1 1 221 92 93 284
349 3 2 1 1 593 668 529 450
350 3 2 1 1 454 377 463 537
351 3 2 1 1 668 570 418 529
352 3 2 1 1 537 463 503 610
353 3 2 1 1 582 485 425 516
354 3 2 1 1 398 266 450 529
355 3 2 1 1 519 422 333 585
356 3 2 1 1 418 469 268 356
357 3 2 1 1 499 441 342 599
358 3 2 1 1 591 639 729 603
359 3 2 1 1 347 257 513 423
360 3 2 1 1 640 487 603 729
361 3 2 1 1 400 278 472 532
362 3 2 1 1 512 289 371 436
363 3 2 1 1 269 370 435 342
364 3 2 1 1 494 612 515 413
365 3 2 1 1 678 635 486 605
366 3 2 1 1 610 609 520 537
367 3 2 1 1 497 453 524 600
368 3 2 1 1 539 611 449 357
369 3 2 1 1 256 521 436 371
370 3 2 1 1 445 391 466 542
371 3 2 1 1 511 437 372 422
372 3 2 1 1 407 375 289 512
373 3 2 1 1 570 502 469 418
374 3 2 1 1 286 88 89 220
375 3 2 1 1 273 374 424 373
376 3 2 1 1 370 346 438 435
377 3 2 1 1 432 517 272 344
378 3 2 1 1 423 516 369 347
379 3 2 1 1 531 421 359 399
380 3 2 1 1 511 424 374 437
381 3 2 1 1 514 267 373 424
382 3 2 1 1 523 426 614 663
383 3 2 1 1 421 427 270 359
384 3 2 1 1 544 540 448 332
385 3 2 1 1 414 496 380 335
386 3 2 1 1 605 520 609 678
387 3 2 1 1 607 497 600 672
388 3 2 1 1 455 343 501 602
389 3 2 1 1 416 368 267 514
390 3 2 1 1 220 89 90 282
391 3 2 1 1 399 268 469 531
392 3 2 1 1 466 467 8 542
393 3 2 1 1 532 471 394 400
394 3 2 1 1 391 389 353 466
395 3 2 1 1 328 216 278 400
396 3 2 1 1 589 486 635 727
397 3 2 1 1 344 272 204 285
398 3 2 1 1 499 599 732 651
399 3 2 1 1 410 386 448 540
400 3 2 1 1 335 380 189 286
401 3 2 1 1 401 270 427 533
402 3 2 1 1 351 456 546 535
403 3 2 1 1 582 516 423 557
404 3 2 1 1 512 659 558 407
405 3 2 1 1 569 471 532 601
406 3 2 1 1 417 465 453 497
407 3 2 1 1 429 472 278 360
408 3 2 1 1 407 558 657 513
409 3 2 1 1 544 561 664 540
410 3 2 1 1 557 423 513 657
411 3 2 1 1 368 416 495 367
412 3 2 1 1 602 501 654 734
413 3 2 1 1 525 417 497 607
414 3 2 1 1 533 429 360 401
415 3 2 1 1 221 366 259 183
416 3 2 1 1 282 90 91 183
417 3 2 1 1 639 591 664 735
418 3 2 1 1 561 544 598 683
419 3 2 1 1 614 535 546 684
420 3 2 1 1 495 577 579 510
421 3 2 1 1 577 495 416 580
422 3 2 1 1 744 669 736 800
423 3 2 1 1 604 670 539 442
424 3 2 1 1 9 611 539 670
425 3 2 1 1 456 394 471 546
426 3 2 1 1 438 517 578 571
427 3 2 1 1 462 355 484 598
428 3 2 1 1 514 424 511 584
429 3 2 1 1 571 491 435 438
430 3 2 1 1 557 657 703 720
431 3 2 1 1 538 568 493 415
432 3 2 1 1 645 492 602 734
433 3 2 1 1 422 519 584 511
434 3 2 1 1 736 669 674 737
435 3 2 1 1 707 560 667 769
436 3 2 1 1 433 367 495 510
437 3 2 1 1 720 631 582 557
438 3 2 1 1 510 432 344 433
439 3 2 1 1 432 510 579 5
440 3 2 1 1 457 358 505 592
441 3 2 1 1 632 737 674 482
442 3 2 1 1 764 846 854 822
443 3 2 1 1 366 221 284 336
444 3 2 1 1 532 472 7 601
445 3 2 1 1 794 717 637 682
446 3 2 1 1 584 519 656 580
447 3 2 1 1 736 737 827 799
448 3 2 1 1 366 413 515 259
449 3 2 1 1 336 446 413 366
450 3 2 1 1 534 428 324 388
451 3 2 1 1 580 416 514 584
452 3 2 1 1 703 657 558 781
453 3 2 1 1 484 633 683 598
454 3 2 1 1 8 467 527 595
455 3 2 1 1 527 461 572 595
456 3 2 1 1 744 684 569 669
457 3 2 1 1 604 607 672 730
458 3 2 1 1 509 414 335 434
459 3 2 1 1 442 525 607 604
460 3 2 1 1 365 282 183 259
461 3 2 1 1 594 484 355 451
462 3 2 1 1 748 730 711 801
463 3 2 1 1 731 633 484 594
464 3 2 1 1 578 517 432 5
465 3 2 1 1 820 781 705 810
466 3 2 1 1 766 631 720 771
467 3 2 1 1 731 663 744 800
468 3 2 1 1 663 731 594 523
469 3 2 1 1 828 788 822 854
470 3 2 1 1 515 612 573 430
471 3 2 1 1 542 505 358 445
472 3 2 1 1 764 639 735 821
473 3 2 1 1 853 854 846 864
474 3 2 1 1 482 674 601 7
475 3 2 1 1 365 434 220 282
476 3 2 1 1 654 501 592 693
477 3 2 1 1 703 819 771 720
478 3 2 1 1 547 498 613 583
479 3 2 1 1 538 496 673 568
480 3 2 1 1 678 609 646 742
481 3 2 1 1 747 633 731 800
482 3 2 1 1 633 747 784 683
483 3 2 1 1 561 704 735 664
484 3 2 1 1 663 614 684 744
485 3 2 1 1 460 339 492 606
486 3 2 1 1 708 596 661 783
487 3 2 1 1 854 853 816 828
488 3 2 1 1 704 561 683 784
489 3 2 1 1 637 623 500 682
490 3 2 1 1 531 469 502 574
491 3 2 1 1 509 434 365 430
492 3 2 1 1 492 645 751 606
493 3 2 1 1 610 503 676 728
494 3 2 1 1 572 499 651 688
495 3 2 1 1 671 711 730 672
496 3 2 1 1 704 787 821 735
497 3 2 1 1 715 577 580 656
498 3 2 1 1 286 220 434 335
499 3 2 1 1 428 362 271 324
500 3 2 1 1 430 573 655 509
501 3 2 1 1 446 564 494 413
502 3 2 1 1 500 623 475 361
503 3 2 1 1 518 376 439 588
504 3 2 1 1 705 659 559 724
505 3 2 1 1 828 816 712 801
506 3 2 1 1 864 846 869 877
507 3 2 1 1 747 800 736 799
508 3 2 1 1 858 849 787 829
509 3 2 1 1 562 414 509 655
510 3 2 1 1 801 711 788 828
511 3 2 1 1 748 670 604 730
512 3 2 1 1 259 515 430 365
513 3 2 1 1 518 695 564 446
514 3 2 1 1 758 566 627 643
515 3 2 1 1 870 877 869 849
516 3 2 1 1 749 644 493 568
517 3 2 1 1 829 787 704 784
518 3 2 1 1 728 646 609 610
519 3 2 1 1 820 819 703 781
520 3 2 1 1 612 494 613 681
521 3 2 1 1 829 799 827 858
522 3 2 1 1 579 577 715 647
523 3 2 1 1 869 846 764 821
524 3 2 1 1 724 559 660 782
525 3 2 1 1 362 428 626 508
526 3 2 1 1 777 750 651 732
527 3 2 1 1 745 697 502 570
528 3 2 1 1 574 619 421 531
529 3 2 1 1 446 336 376 518
530 3 2 1 1 799 829 784 747
531 3 2 1 1 849 858 850 870
532 3 2 1 1 624 9 670 748
533 3 2 1 1 431 498 547 345
534 3 2 1 1 798 146 145 710
535 3 2 1 1 361 475 279 217
536 3 2 1 1 775 758 643 763
537 3 2 1 1 491 571 726 634
538 3 2 1 1 562 673 496 414
539 3 2 1 1 686 151 150 555
540 3 2 1 1 488 596 708 666
541 3 2 1 1 742 741 635 678
542 3 2 1 1 765 850 858 827
543 3 2 1 1 779 838 742 646
544 3 2 1 1 659 705 781 558
545 3 2 1 1 473 618 548 403
546 3 2 1 1 652 489 606 751
547 3 2 1 1 545 679 618 473
548 3 2 1 1 712 624 748 801
549 3 2 1 1 616 152 151 686
550 3 2 1 1 403 548 474 329
551 3 2 1 1 738 129 128 796
552 3 2 1 1 133 473 403 134
553 3 2 1 1 132 545 473 133
554 3 2 1 1 131 617 545 132
555 3 2 1 1 661 560 707 783
556 3 2 1 1 130 677 617 131
557 3 2 1 1 402 139 140 470
558 3 2 1 1 555 150 149 675
559 3 2 1 1 264 138 139 402
560 3 2 1 1 470 140 141 543
561 3 2 1 1 482 7 152 616
562 3 2 1 1 765 632 746 824
563 3 2 1 1 508 626 179 178
564 3 2 1 1 134 403 329 135
565 3 2 1 1 620 474 548 680
566 3 2 1 1 129 738 677 130
567 3 2 1 1 821 787 849 869
568 3 2 1 1 543 141 142 615
569 3 2 1 1 675 149 148 743
570 3 2 1 1 855 701 795 813
571 3 2 1 1 606 489 337 460
572 3 2 1 1 644 719 593 493
573 3 2 1 1 813 795 768 856
574 3 2 1 1 147 709 743 148
575 3 2 1 1 170 171 763 643
576 3 2 1 1 547 583 581 447
577 3 2 1 1 701 555 675 795
578 3 2 1 1 811 789 701 855
579 3 2 1 1 709 147 146 798
580 3 2 1 1 743 768 795 675
581 3 2 1 1 824 746 789 811
582 3 2 1 1 746 616 686 789
583 3 2 1 1 127 723 796 128
584 3 2 1 1 789 686 555 701
585 3 2 1 1 826 848 856 768
586 3 2 1 1 710 145 144 649
587 3 2 1 1 723 807 818 796
588 3 2 1 1 768 743 709 826
589 3 2 1 1 691 726 571 578
590 3 2 1 1 860 812 702 802
591 3 2 1 1 126 691 578 5
592 3 2 1 1 785 745 570 668
593 3 2 1 1 541 402 470 608
594 3 2 1 1 431 340 550 498
595 3 2 1 1 615 142 143 694
596 3 2 1 1 668 593 719 785
597 3 2 1 1 583 613 494 564
598 3 2 1 1 826 709 798 814
599 3 2 1 1 722 631 766 825
600 3 2 1 1 439 337 489 588
601 3 2 1 1 825 772 658 722
602 3 2 1 1 765 827 737 632
603 3 2 1 1 158 157 642 625
604 3 2 1 1 616 746 632 482
605 3 2 1 1 817 738 796 818
606 3 2 1 1 476 264 402 541
607 3 2 1 1 649 144 143 575
608 3 2 1 1 7 472 429 152
609 3 2 1 1 812 832 803 702
610 3 2 1 1 863 856 848 866
611 3 2 1 1 634 732 599 491
612 3 2 1 1 718 587 597 641
613 3 2 1 1 498 550 681 613
614 3 2 1 1 447 265 345 547
615 3 2 1 1 693 154 155 654
616 3 2 1 1 643 627 169 170
617 3 2 1 1 625 642 756 565
618 3 2 1 1 710 767 814 798
619 3 2 1 1 608 470 543 648
620 3 2 1 1 126 647 723 127
621 3 2 1 1 727 635 741 791
622 3 2 1 1 575 143 142 507
623 3 2 1 1 679 792 740 618
624 3 2 1 1 793 839 833 725
625 3 2 1 1 725 620 680 793
626 3 2 1 1 750 835 806 753
627 3 2 1 1 851 814 767 815
628 3 2 1 1 5 579 647 126
629 3 2 1 1 844 824 811 868
630 3 2 1 1 693 592 505 153
631 3 2 1 1 776 763 171 172
632 3 2 1 1 718 641 717 794
633 3 2 1 1 868 811 855 862
634 3 2 1 1 712 802 687 624
635 3 2 1 1 820 810 740 792
636 3 2 1 1 564 695 581 583
637 3 2 1 1 405 219 6 137
638 3 2 1 1 597 488 666 641
639 3 2 1 1 694 644 749 615
640 3 2 1 1 507 142 141 420
641 3 2 1 1 504 565 490 419
642 3 2 1 1 749 568 673 648
643 3 2 1 1 550 476 563 681
644 3 2 1 1 770 803 832 852
645 3 2 1 1 772 715 656 658
646 3 2 1 1 619 552 427 421
647 3 2 1 1 533 427 552 630
648 3 2 1 1 420 141 140 364
649 3 2 1 1 803 770 754 685
650 3 2 1 1 702 803 685 556
651 3 2 1 1 713 754 770 823
652 3 2 1 1 832 812 845 867
653 3 2 1 1 687 556 179 180
654 3 2 1 1 505 542 8 153
655 3 2 1 1 534 611 9 180
656 3 2 1 1 622 549 665 733
657 3 2 1 1 823 770 852 865
658 3 2 1 1 813 876 862 855
659 3 2 1 1 708 786 714 666
660 3 2 1 1 176 177 754 713
661 3 2 1 1 739 834 792 679
662 3 2 1 1 483 623 637 689
663 3 2 1 1 739 790 842 834
664 3 2 1 1 180 9 624 687
665 3 2 1 1 176 175 843 676
666 3 2 1 1 556 687 802 702
667 3 2 1 1 617 739 679 545
668 3 2 1 1 851 815 857 873
669 3 2 1 1 830 841 173 174
670 3 2 1 1 868 881 878 844
671 3 2 1 1 178 179 556 685
672 3 2 1 1 815 767 721 775
673 3 2 1 1 685 754 177 178
674 3 2 1 1 807 772 825 818
675 3 2 1 1 823 859 797 713
676 3 2 1 1 769 831 778 707
677 3 2 1 1 175 176 713 797
678 3 2 1 1 504 478 160 159
679 3 2 1 1 859 847 830 797
680 3 2 1 1 676 503 590 700
681 3 2 1 1 852 832 867 875
682 3 2 1 1 691 126 127 761
683 3 2 1 1 824 844 850 765
684 3 2 1 1 797 830 174 175
685 3 2 1 1 476 550 340 264
686 3 2 1 1 172 173 841 776
687 3 2 1 1 848 826 814 851
688 3 2 1 1 745 146 147 697
689 3 2 1 1 573 612 681 563
690 3 2 1 1 149 619 574 148
691 3 2 1 1 159 158 625 504
692 3 2 1 1 780 741 742 838
693 3 2 1 1 164 6 279 202
694 3 2 1 1 586 665 549 468
695 3 2 1 1 714 586 689 804
696 3 2 1 1 761 127 128 716
697 3 2 1 1 677 790 739 617
698 3 2 1 1 648 543 615 749
699 3 2 1 1 608 755 662 541
700 3 2 1 1 177 176 676 700
701 3 2 1 1 719 144 145 785
702 3 2 1 1 146 745 785 145
703 3 2 1 1 841 847 857 776
704 3 2 1 1 649 721 767 710
705 3 2 1 1 793 680 740 810
706 3 2 1 1 831 769 791 861
707 3 2 1 1 281 161 478 363
708 3 2 1 1 761 808 726 691
709 3 2 1 1 406 330 468 549
710 3 2 1 1 779 174 173 809
711 3 2 1 1 876 813 856 863
712 3 2 1 1 706 636 756 774
713 3 2 1 1 130 131 576 650
714 3 2 1 1 794 682 725 833
715 3 2 1 1 646 728 843 779
716 3 2 1 1 833 839 724 782
717 3 2 1 1 778 690 733 837
718 3 2 1 1 753 154 698 688
719 3 2 1 1 774 756 642 762
720 3 2 1 1 364 140 139 283
721 3 2 1 1 618 740 680 548
722 3 2 1 1 818 825 766 817
723 3 2 1 1 136 217 279 6
724 3 2 1 1 506 420 364 479
725 3 2 1 1 865 871 859 823
726 3 2 1 1 483 586 468 341
727 3 2 1 1 662 755 562 655
728 3 2 1 1 595 698 153 8
729 3 2 1 1 404 161 265 447
730 3 2 1 1 404 477 160 161
731 3 2 1 1 773 706 774 777
732 3 2 1 1 506 479 167 168
733 3 2 1 1 699 170 629 752
734 3 2 1 1 752 690 778 831
735 3 2 1 1 500 361 474 620
736 3 2 1 1 840 634 726 808
737 3 2 1 1 202 330 165 164
738 3 2 1 1 652 621 653 757
739 3 2 1 1 717 804 689 637
740 3 2 1 1 566 420 506 627
741 3 2 1 1 563 662 655 573
742 3 2 1 1 340 431 405 331
743 3 2 1 1 629 169 554 690
744 3 2 1 1 551 621 477 404
745 3 2 1 1 549 622 480 406
746 3 2 1 1 863 865 875 876
747 3 2 1 1 653 551 581 695
748 3 2 1 1 341 468 330 202
749 3 2 1 1 361 217 329 474
750 3 2 1 1 759 172 171 699
751 3 2 1 1 563 476 541 662
752 3 2 1 1 628 692 751 645
753 3 2 1 1 553 477 621 692
754 3 2 1 1 791 769 667 727
755 3 2 1 1 805 759 699 752
756 3 2 1 1 698 595 572 688
757 3 2 1 1 809 172 759 780
758 3 2 1 1 872 864 879 845
759 3 2 1 1 843 175 174 779
760 3 2 1 1 844 878 870 850
761 3 2 1 1 129 650 716 128
762 3 2 1 1 554 168 480 622
763 3 2 1 1 782 718 794 833
764 3 2 1 1 757 695 518 588
765 3 2 1 1 874 880 867 845
766 3 2 1 1 477 553 159 160
767 3 2 1 1 758 775 721 638
768 3 2 1 1 628 157 158 553
769 3 2 1 1 792 834 819 820
770 3 2 1 1 575 638 721 649
771 3 2 1 1 219 481 280 163
772 3 2 1 1 847 859 871 873
773 3 2 1 1 419 363 478 504
774 3 2 1 1 626 428 534 180
775 3 2 1 1 330 406 166 165
776 3 2 1 1 168 169 627 506
777 3 2 1 1 805 861 780 759
778 3 2 1 1 696 156 157 628
779 3 2 1 1 831 861 805 752
780 3 2 1 1 834 842 771 819
781 3 2 1 1 565 636 576 490
782 3 2 1 1 786 837 733 665
783 3 2 1 1 551 404 447 581
784 3 2 1 1 280 345 265 162
785 3 2 1 1 489 652 757 588
786 3 2 1 1 880 862 876 875
787 3 2 1 1 157 156 762 642
788 3 2 1 1 480 168 167 406
789 3 2 1 1 688 651 750 753
790 3 2 1 1 135 254 281 134
791 3 2 1 1 690 554 622 733
792 3 2 1 1 341 475 623 483
793 3 2 1 1 682 500 620 725
794 3 2 1 1 131 132 490 576
795 3 2 1 1 807 723 647 715
796 3 2 1 1 806 835 762 156
797 3 2 1 1 132 133 419 490
798 3 2 1 1 475 341 202 279
799 3 2 1 1 166 167 479 283
800 3 2 1 1 706 773 716 650
801 3 2 1 1 878 874 879 877
802 3 2 1 1 763 776 836 775
803 3 2 1 1 872 845 812 860
804 3 2 1 1 283 255 165 166
805 3 2 1 1 155 154 753 806
806 3 2 1 1 714 786 665 586
807 3 2 1 1 853 864 872 860
808 3 2 1 1 136 163 254 135
809 3 2 1 1 552 150 151 630
810 3 2 1 1 150 552 619 149
811 3 2 1 1 766 771 842 817
812 3 2 1 1 839 793 810 705
813 3 2 1 1 734 760 696 645
814 3 2 1 1 777 732 840 773
815 3 2 1 1 144 719 694 143
816 3 2 1 1 283 139 138 255
817 3 2 1 1 835 750 777 774
818 3 2 1 1 802 712 816 860
819 3 2 1 1 164 165 255 137
820 3 2 1 1 281 254 162 161
821 3 2 1 1 574 502 697 148
822 3 2 1 1 871 865 863 866
823 3 2 1 1 135 329 217 136
824 3 2 1 1 866 848 851 873
825 3 2 1 1 507 420 566 638
826 3 2 1 1 738 817 790 677
827 3 2 1 1 862 880 881 868
828 3 2 1 1 134 281 363 133
829 3 2 1 1 636 706 650 576
830 3 2 1 1 786 708 783 837
831 3 2 1 1 641 666 804 717
832 3 2 1 1 264 340 331 138
833 3 2 1 1 178 177 700 508
834 3 2 1 1 760 155 156 696
835 3 2 1 1 652 751 692 621
836 3 2 1 1 331 405 137 138
837 3 2 1 1 716 773 808 761
838 3 2 1 1 345 280 481 431
839 3 2 1 1 481 219 405 431
840 3 2 1 1 874 878 881 880
841 3 2 1 1 755 608 648 673
842 3 2 1 1 837 783 707 778
843 3 2 1 1 429 533 630 152
844 3 2 1 1 861 791 741 780
845 3 2 1 1 760 734 654 155
846 3 2 1 1 836 857 815 775
847 3 2 1 1 809 780 838 779
$EndElements
