$MeshFormat
2.2 0 8
$EndMeshFormat
$Nodes
445
20 0 0 0
21 50 0 0
22 0 25 0
23 70 0 0
24 0 35 0
25 100 0 0
26 0 50 0
27 100 25 0
28 0 70 0
29 100 35 0
30 0 100 0
31 100 50 0
32 50 100 0
33 100 70 0
34 70 100 0
35 100 100 0
36 70 25 0
37 70 35 0
38 50 25 0
39 50 35 0
68 5 0 0
69 10 0 0
70 15 0 0
71 20 0 0
72 25 0 0
73 30 0 0
74 35 0 0
75 40 0 0
76 45 0 0
77 0 20 0
78 0 15 0
79 0 10 0
80 0 5 0
81 55 0 0
82 60 0 0
83 65 0 0
84 0 30 0
85 75 0 0
86 80 0 0
87 85 0 0
88 90 0 0
89 95 0 0
90 0 45 0
91 0 40 0
92 100 5 0
93 100 10 0
94 100 15 0
95 100 20 0
96 0 65 0
97 0 60 0
98 0 55 0
99 100 30 0
100 0 95 0
101 0 90 0
102 0 85 0
103 0 80 0
104 0 75 0
105 100 40 0
106 100 45 0
107 45 100 0
108 40 100 0
109 35 100 0
110 30 100 0
111 25 100 0
112 20 100 0
113 15 100 0
114 10 100 0
115 5 100 0
116 100 55 0
117 100 60 0
118 100 65 0
119 65 100 0
120 60 100 0
121 55 100 0
122 100 75 0
123 100 80 0
124 100 85 0
125 100 90 0
126 100 95 0
127 95 100 0
128 90 100 0
129 85 100 0
130 80 100 0
131 75 100 0
132 5 70 0
133 10 70 0
134 15 70 0
135 20 70 0
136 25 70 0
137 30 70 0
138 35 70 0
139 85 70 0
140 90 70 0
141 95 70 0
142 5 50 0
143 10 50 0
144 15 50 0
145 20 50 0
146 25 50 0
147 30 50 0
148 35 50 0
149 85 50 0
150 90 50 0
151 95 50 0
152 70 5 0
153 70 10 0
154 70 15 0
155 70 20 0
156 70 30 0
157 70 85 0
158 70 90 0
159 70 95 0
160 50 5 0
161 50 10 0
162 50 15 0
163 50 20 0
164 50 30 0
165 50 85 0
166 50 90 0
167 50 95 0
168 5 35 0
169 10 35 0
170 15 35 0
171 45 35 0
172 55 35 0
173 60 35 0
174 65 35 0
175 75 35 0
176 80 35 0
177 85 35 0
178 90 35 0
179 95 35 0
180 5 25 0
181 10 25 0
182 15 25 0
183 45 25 0
184 55 25 0
185 60 25 0
186 65 25 0
187 75 25 0
188 80 25 0
189 85 25 0
190 90 25 0
191 95 25 0
192 15 95 0
193 85.0014432552788 4.9985567447212 0
194 20 5 0
195 35 15 0
196 5 15 0
197 95 80 0
198 85 95 0
199 35 95 0
200 15 40 0
201 85 40 0
202 5 45 0
203 5 85 0
204 95 45 0
205 35 5 0
206 20 15 0
207 95.0002552953859 9.99974470461409 0
208 5 10 0
209 95.0003810153964 14.9996189846036 0
210 45 20 0
211 64.5439872685185 19.5097178694054 0
212 75.4731745001062 19.5268254998939 0
213 55.4560127314815 19.5097178694054 0
214 15 20 0
215 25 45 0
216 85 80 0
217 75 85 0
218 45 85 0
219 35 75 0
220 45 30 0
221 35 45 0
222 15 30 0
223 85 60 0
224 65 85 0
225 55 85 0
226 55 95 0
227 35 60 0
228 45 5 0
229 60 4.9925917337752 0
230 5 30 0
231 80.0030364859021 4.99696351409786 0
232 5 65 0
233 5 60 0
234 95.0007073084513 30 0
235 5 95 0
236 5 80 0
237 45 95 0
238 95 55 0
239 95 65 0
240 65 95 0
241 95 90 0
242 75 95 0
243 63.359375 30 0
244 76.6871473524306 30 0
245 56.640625 30 0
246 80.2753109402127 30 0
247 15 5 0
248 30 5 0
249 25 15 0
250 5 75 0
251 20 95 0
252 5 5 0
253 95.0003142701656 19.9996857298344 0
254 85 45 0
255 85 55 0
256 85 65 0
257 85 75 0
258 35 65 0
259 35 55 0
260 5 20 0
261 55.0013441297743 4.99434406813752 0
262 64.9986558702257 4.99434406813752 0
263 75.0029997482637 4.99700025173629 0
264 95.0001345132478 4.99986548675224 0
265 5 40 0
266 5 55 0
267 95 40 0
268 95 75 0
269 95 95 0
270 25 95 0
271 15 90 0
272 25 55 0
273 35 80 0
274 55.0743179434317 14.8904384157489 0
275 40 15 0
276 85 85 0
277 40 85 0
278 30 65 0
279 85.0088133972772 9.99118660272276 0
280 10 15 0
281 85.0438441170586 30 0
282 10 85 0
283 40 5 0
284 10 95 0
285 80 95 0
286 10 80 0
287 64.9256820565683 14.8904384157489 0
288 75.0916759627412 14.9083240372588 0
289 45 15 0
290 20 10 0
291 35 10 0
292 30 15 0
293 30 95 0
294 20 45 0
295 80 85 0
296 30 45 0
297 60 85 0
298 10 5 0
299 25 5 0
300 90.0009692170063 4.9990307829937 0
301 5 90 0
302 40 95 0
303 95 60 0
304 60 95 0
305 95 85 0
306 90 95 0
307 10 65 0
308 10 75 0
309 30 75 0
310 90 65 0
311 90 75 0
312 10 55 0
313 10 45 0
314 30 55 0
315 90 45 0
316 90 55 0
317 64.988179502134 9.96944574323359 0
318 75.0204333619806 9.97956663801944 0
319 75 90 0
320 65 90 0
321 45 10 0
322 55.011820497866 9.96944574323358 0
323 45 90 0
324 55 90 0
325 10 30 0
326 10 40 0
327 60 30 0
328 90.0068309572008 30 0
329 90 40 0
330 10 20 0
331 60 19.8116141218401 0
332 80.0938363647548 19.9061636352452 0
333 90.004366526576 14.995633473424 0
334 90.003787568716 19.996212431284 0
335 15 15 0
336 20 90 0
337 30 80 0
338 25 65 0
339 15 55 0
340 15 65 0
341 35 85 0
342 25 10 0
343 25 90 0
344 10 90 0
345 15 85 0
346 60 14.8511857165454 0
347 40 10 0
348 15 10 0
349 15 80 0
350 15 75 0
351 25 75 0
352 15 45 0
353 20 55 0
354 85.0217929623318 19.9782070376682 0
355 90 85 0
356 90 80 0
357 80 90 0
358 85 90 0
359 35 90 0
360 90.0032888716009 9.99671112839907 0
361 10 10 0
362 90 60 0
363 30 60 0
364 60 9.95017970832473 0
365 80.0214427389487 9.97855726105131 0
366 10 60 0
367 90 90 0
368 40 90 0
369 80.0753606312304 14.9246393687696 0
370 60 90 0
371 30 10 0
372 20 85 0
373 30 90 0
374 25 80 0
375 20 65 0
376 20 75 0
377 25 60 0
378 85.0257477924976 14.9742522075024 0
379 30 85 0
380 20 60 0
381 15 60 0
382 25 85 0
383 20 80 0
400 50 70 0
401 70 70 0
402 50 50 0
403 70 50 0
412 25 35 0
413 30 35 0
414 35 35 0
415 25 25 0
416 30 25 0
417 35 25 0
418 35 30 0
419 25 30 0
420 30 30 0
453 60.0210758344884 45.0135451002374 0
454 74.9979626754533 60.0114998834851 0
455 54.9977247535561 75.0086148752037 0
456 64.9840286995085 75.0088664130844 0
457 45.0370910765551 55.008716408379 0
458 45.0018642844924 75.0007306617413 0
459 45.0185283925321 50.0050111564497 0
460 75.0008101193623 45.0007073347252 0
461 69.9879737939403 75.0056091619081 0
462 50.012420443842 45.0053797095273 0
463 70.005409264324 45.0040636891753 0
464 75.0034064109802 50.0043770604927 0
465 74.9915064176989 65.0109046519921 0
466 74.9902647067792 70.0066438662571 0
467 45.0138317065215 70.0039914647663 0
468 45.0066496252169 45.0022093503857 0
469 74.9943571841116 75.0026639858136 0
470 45.0369777185711 65.0095484067971 0
471 70.0226122134086 60.0556504809155 0
472 70.0205760013597 50.0198681522778 0
473 50.0040256939171 75.0049675139124 0
474 55.0224750329146 45.0128105809989 0
475 65.0168794186056 45.0121438104957 0
476 75.0061590429153 55.0122488632853 0
477 59.9888847102218 75.0127400376459 0
478 45.0522334459577 60.0132296726499 0
479 50.0329523893876 70.0202777138538 0
480 64.9870833770262 70.0435235319696 0
481 50.1044463566489 55.0444672555832 0
482 50.0504747859442 50.0242856799139 0
483 69.9856928773971 70.0240074529136 0
484 50.1304539932185 60.0580262150531 0
485 60.0134239425981 70.0562950563393 0
486 70.0027339470924 65.0484475387688 0
487 50.0890844248445 65.0463763446958 0
488 65.0566320653413 50.0475210608834 0
489 60.0847883112604 50.0631002970702 0
490 55.0369436598703 70.0464215925701 0
491 55.0820227269034 50.0519697178385 0
492 70.0375385310912 55.0478254421864 0
493 65.0938409478278 60.1250383116543 0
494 55.1794484642558 60.1251402682888 0
495 60.0883424779463 65.1186141810233 0
496 65.0428513367159 65.0905329050507 0
497 55.1465893171206 55.0991756574016 0
498 65.0997101739164 55.0981880107115 0
499 55.106344074149 65.0898111437966 0
500 60.1439878173659 55.1209719811137 0
501 60.1408959561152 60.1356340724475 0
502 20 20 0
503 40 20 0
504 40 25 0
505 40 35 0
506 40 40 0
507 20 40 0
508 20 35 0
509 20 25 0
510 50 40 0
511 70 40 0
512 80 40 0
513 80 50 0
514 80 70 0
515 80 80 0
516 70 80 0
517 50 80 0
518 40 80 0
519 40 70 0
520 40 50 0
521 25 20 0
522 30 20 0
523 35 20 0
524 40 30 0
525 35 40 0
526 30 40 0
527 25 40 0
528 20 30 0
529 45 40 0
530 55 40 0
531 60 40 0
532 65 40 0
533 75 40 0
534 80 45 0
535 80 55 0
536 80 60 0
537 80 65 0
538 80 75 0
539 75 80 0
540 65 80 0
541 60 80 0
542 55 80 0
543 45 80 0
544 40 75 0
545 40 65 0
546 40 60 0
547 40 55 0
548 40 45 0
$EndNodes
$Elements
432
1 2 2 1 1 155 36 186 
2 2 2 1 1 187 36 155 
3 2 2 1 1 184 38 163 
12 2 2 1 1 186 36 156 
13 2 2 1 1 156 36 187 
14 2 2 1 1 156 37 174 
15 2 2 1 1 175 37 156 
16 2 2 1 1 164 38 184 
17 2 2 1 1 172 39 164 
18 2 2 1 1 186 211 155 
19 2 2 1 1 155 212 187 
20 2 2 1 1 163 213 184 
35 2 2 1 1 401 400 402 
36 2 2 1 1 402 403 401 
41 3 2 1 1 352 294 145 144
42 3 2 1 1 151 238 316 150
43 3 2 1 1 150 316 255 149
44 3 2 1 1 150 315 204 151
45 3 2 1 1 149 254 315 150
46 3 2 1 1 148 259 314 147
47 3 2 1 1 147 314 272 146
48 3 2 1 1 221 148 147 296
49 3 2 1 1 147 146 215 296
50 3 2 1 1 146 272 353 145
51 3 2 1 1 294 215 146 145
52 3 2 1 1 153 317 262 152
53 3 2 1 1 145 353 339 144
54 3 2 1 1 144 339 312 143
55 3 2 1 1 352 144 143 313
56 3 2 1 1 143 312 266 142
57 3 2 1 1 142 202 313 143
58 3 2 1 1 341 379 337 273
59 3 2 1 1 337 374 351 309
60 3 2 1 1 268 311 140 141
61 3 2 1 1 140 311 257 139
62 3 2 1 1 256 310 140 139
63 3 2 1 1 218 165 166 323
64 3 2 1 1 246 281 177 176
65 3 2 1 1 244 246 176 175
66 3 2 1 1 327 243 174 173
67 3 2 1 1 173 172 245 327
68 3 2 1 1 169 326 265 168
69 3 2 1 1 230 325 169 168
70 3 2 1 1 169 325 222 170
71 3 2 1 1 200 326 169 170
72 3 2 1 1 167 237 323 166
73 3 2 1 1 226 167 166 324
74 3 2 1 1 140 310 239 141
75 3 2 1 1 165 225 324 166
76 3 2 1 1 228 160 161 321
77 3 2 1 1 160 261 322 161
78 3 2 1 1 322 364 346 274
79 3 2 1 1 158 319 242 159
80 3 2 1 1 240 320 158 159
81 3 2 1 1 158 320 224 157
82 3 2 1 1 217 319 158 157
83 3 2 1 1 354 378 333 334
84 3 2 1 1 263 318 153 152
85 3 2 1 1 239 303 117 118
86 3 2 1 1 241 305 124 125
87 3 2 1 1 124 305 197 123
88 3 2 1 1 197 268 122 123
89 3 2 1 1 122 268 141 33
90 3 2 1 1 368 359 341 277
91 3 2 1 1 373 379 341 359
92 3 2 1 1 120 304 240 119
93 3 2 1 1 226 304 120 121
94 3 2 1 1 119 240 159 34
95 3 2 1 1 141 239 118 33
96 3 2 1 1 340 307 366 381
97 3 2 1 1 117 303 238 116
98 3 2 1 1 116 238 151 31
99 3 2 1 1 114 115 235 284
100 3 2 1 1 114 284 192 113
101 3 2 1 1 372 382 343 336
102 3 2 1 1 110 111 270 293
103 3 2 1 1 110 293 199 109
104 3 2 1 1 109 199 302 108
105 3 2 1 1 108 302 237 107
106 3 2 1 1 107 237 167 32
107 3 2 1 1 133 308 250 132
108 3 2 1 1 137 278 258 138
109 3 2 1 1 219 309 137 138
110 3 2 1 1 309 351 136 137
111 3 2 1 1 136 338 278 137
112 3 2 1 1 351 376 135 136
113 3 2 1 1 135 376 350 134
114 3 2 1 1 340 375 135 134
115 3 2 1 1 135 375 338 136
116 3 2 1 1 134 350 308 133
117 3 2 1 1 307 340 134 133
118 3 2 1 1 178 329 201 177
119 3 2 1 1 232 307 133 132
120 3 2 1 1 159 242 131 34
121 3 2 1 1 380 377 338 375
122 3 2 1 1 242 285 130 131
123 3 2 1 1 130 285 198 129
124 3 2 1 1 339 381 366 312
125 3 2 1 1 128 306 269 127
126 3 2 1 1 198 306 128 129
127 3 2 1 1 126 269 241 125
128 3 2 1 1 127 269 126 35
129 3 2 1 1 299 342 290 194
130 3 2 1 1 239 310 362 303
131 3 2 1 1 287 211 331 346
132 3 2 1 1 364 317 287 346
133 3 2 1 1 282 203 236 286
134 3 2 1 1 233 266 312 366
135 3 2 1 1 366 307 232 233
136 3 2 1 1 288 369 332 212
137 3 2 1 1 365 369 288 318
138 3 2 1 1 231 365 318 263
139 3 2 1 1 279 365 231 193
140 3 2 1 1 286 349 345 282
141 3 2 1 1 335 348 290 206
142 3 2 1 1 229 364 322 261
143 3 2 1 1 317 364 229 262
144 3 2 1 1 227 363 314 259
145 3 2 1 1 278 363 227 258
146 3 2 1 1 223 255 316 362
147 3 2 1 1 216 356 355 276
148 3 2 1 1 311 356 216 257
149 3 2 1 1 343 373 293 270
150 3 2 1 1 293 373 359 199
151 3 2 1 1 279 378 369 365
152 3 2 1 1 323 368 277 218
153 3 2 1 1 276 358 357 295
154 3 2 1 1 273 337 309 219
156 3 2 1 1 272 314 363 377
157 3 2 1 1 377 363 278 338
158 3 2 1 1 300 360 279 193
159 3 2 1 1 333 378 279 360
160 3 2 1 1 315 329 267 204
161 3 2 1 1 265 326 313 202
162 3 2 1 1 280 335 214 330
163 3 2 1 1 280 330 260 196
164 3 2 1 1 362 310 256 223
165 3 2 1 1 280 361 348 335
166 3 2 1 1 253 334 333 209
167 3 2 1 1 250 308 286 236
168 3 2 1 1 290 342 249 206
169 3 2 1 1 290 348 247 194
170 3 2 1 1 242 319 357 285
171 3 2 1 1 241 367 355 305
172 3 2 1 1 306 367 241 269
173 3 2 1 1 308 350 349 286
174 3 2 1 1 358 367 306 198
175 3 2 1 1 190 328 281 189
176 3 2 1 1 190 334 253 191
177 3 2 1 1 234 328 190 191
178 3 2 1 1 189 354 334 190
179 3 2 1 1 332 354 189 188
180 3 2 1 1 189 281 246 188
181 3 2 1 1 188 246 244 187
182 3 2 1 1 212 332 188 187
183 3 2 1 1 186 243 327 185
184 3 2 1 1 324 370 304 226
185 3 2 1 1 245 184 185 327
186 3 2 1 1 213 331 185 184
187 3 2 1 1 185 331 211 186
188 3 2 1 1 260 330 181 180
189 3 2 1 1 181 325 230 180
190 3 2 1 1 222 325 181 182
191 3 2 1 1 181 330 214 182
192 3 2 1 1 281 328 178 177
193 3 2 1 1 267 329 178 179
194 3 2 1 1 178 328 234 179
196 3 2 1 1 346 331 213 274
197 3 2 1 1 295 357 319 217
199 3 2 1 1 320 370 297 224
200 3 2 1 1 297 370 324 225
201 3 2 1 1 298 361 208 252
202 3 2 1 1 208 361 280 196
203 3 2 1 1 348 361 298 247
204 3 2 1 1 333 360 207 209
205 3 2 1 1 207 360 300 264
207 3 2 1 1 323 237 302 368
208 3 2 1 1 201 329 315 254
209 3 2 1 1 200 352 313 326
210 3 2 1 1 199 359 368 302
211 3 2 1 1 357 358 198 285
212 3 2 1 1 316 238 303 362
213 3 2 1 1 355 356 197 305
214 3 2 1 1 197 356 311 268
215 3 2 1 1 304 370 320 240
216 3 2 1 1 381 339 353 380
218 3 2 1 1 81 261 160 21
219 3 2 1 1 21 160 228 76
220 3 2 1 1 28 132 250 104
221 3 2 1 1 32 167 226 121
222 3 2 1 1 38 183 210 163
223 3 2 1 1 220 183 38 164
224 3 2 1 1 39 171 220 164
225 3 2 1 1 82 229 261 81
226 3 2 1 1 369 378 354 332
228 3 2 1 1 196 260 77 78
230 3 2 1 1 77 260 180 22
231 3 2 1 1 75 76 228 283
232 3 2 1 1 75 283 205 74
234 3 2 1 1 264 300 88 89
235 3 2 1 1 88 300 193 87
238 3 2 1 1 381 380 375 340
239 3 2 1 1 193 231 86 87
241 3 2 1 1 231 263 85 86
242 3 2 1 1 355 367 358 276
243 3 2 1 1 85 263 152 23
245 3 2 1 1 180 230 84 22
246 3 2 1 1 84 230 168 24
247 3 2 1 1 377 380 353 272
248 3 2 1 1 83 262 229 82
249 3 2 1 1 152 262 83 23
252 3 2 1 1 372 383 374 382
271 3 2 1 1 374 337 379 382
273 3 2 1 1 72 299 194 71
274 3 2 1 1 374 383 376 351
277 3 2 1 1 69 298 252 68
281 3 2 1 1 68 252 80 20
284 3 2 1 1 99 234 191 27
285 3 2 1 1 191 253 95 27
288 3 2 1 1 96 232 132 28
289 3 2 1 1 97 233 232 96
290 3 2 1 1 349 383 372 345
291 3 2 1 1 266 233 97 98
292 3 2 1 1 142 266 98 26
294 3 2 1 1 207 264 92 93
295 3 2 1 1 376 383 349 350
296 3 2 1 1 179 234 99 29
297 3 2 1 1 100 235 115 30
299 3 2 1 1 91 265 202 90
301 3 2 1 1 151 204 106 31
302 3 2 1 1 343 382 379 373
303 3 2 1 1 204 267 105 106
304 3 2 1 1 105 267 179 29
305 3 2 1 1 92 264 89 25
306 3 2 1 1 236 103 104 250
307 3 2 1 1 236 203 102 103
308 3 2 1 1 168 265 91 24
311 3 2 1 1 90 202 142 26
312 3 2 1 1 101 301 235 100
313 3 2 1 1 203 301 101 102
315 3 2 1 1 153 318 288 154
316 3 2 1 1 95 253 209 94
317 3 2 1 1 194 247 70 71
318 3 2 1 1 79 208 196 78
319 3 2 1 1 289 321 161 162
320 3 2 1 1 287 317 153 154
321 3 2 1 1 274 213 163 162
322 3 2 1 1 247 298 69 70
323 3 2 1 1 154 288 212 155
324 3 2 1 1 155 211 287 154
325 3 2 1 1 163 210 289 162
326 3 2 1 1 322 274 162 161
327 3 2 1 1 80 252 208 79
328 3 2 1 1 94 209 207 93
329 3 2 1 1 73 74 205 248
330 3 2 1 1 248 299 72 73
331 3 2 1 1 251 336 343 270
332 3 2 1 1 283 228 321 347
333 3 2 1 1 292 371 291 195
334 3 2 1 1 282 345 271 344
335 3 2 1 1 301 203 282 344
336 3 2 1 1 347 291 205 283
337 3 2 1 1 284 235 301 344
338 3 2 1 1 371 342 299 248
339 3 2 1 1 271 336 251 192
340 3 2 1 1 249 342 371 292
341 3 2 1 1 112 113 192 251
342 3 2 1 1 321 289 275 347
343 3 2 1 1 251 270 111 112
344 3 2 1 1 347 275 195 291
345 3 2 1 1 192 284 344 271
346 3 2 1 1 291 371 248 205
347 3 2 1 1 345 372 336 271
348 3 2 1 1 243 186 156 174
349 3 2 1 1 156 187 244 175
350 3 2 1 1 164 184 245 172
359 3 2 1 1 419 420 413 412
360 3 2 1 1 420 418 414 413
364 3 2 1 1 419 415 416 420
365 3 2 1 1 417 418 420 416
370 3 2 1 1 487 499 490 479
371 3 2 1 1 455 473 479 490
372 3 2 1 1 454 471 492 476
373 3 2 1 1 492 498 488 472
374 3 2 1 1 453 489 491 474
375 3 2 1 1 488 489 453 475
378 3 2 1 1 457 481 484 478
386 3 2 1 1 463 472 488 475
387 3 2 1 1 482 462 474 491
388 3 2 1 1 472 464 476 492
389 3 2 1 1 470 478 484 487
390 3 2 1 1 487 479 467 470
391 3 2 1 1 466 483 486 465
392 3 2 1 1 480 456 477 485
393 3 2 1 1 490 485 477 455
394 3 2 1 1 471 454 465 486
396 3 2 1 1 464 472 463 460
397 3 2 1 1 480 483 461 456
398 3 2 1 1 482 491 497 481
399 3 2 1 1 461 483 466 469
400 3 2 1 1 459 482 481 457
401 3 2 1 1 462 482 459 468
402 3 2 1 1 479 473 458 467
420 3 2 1 1 498 492 471 493
421 3 2 1 1 488 498 500 489
422 3 2 1 1 490 499 495 485
423 3 2 1 1 485 495 496 480
424 3 2 1 1 486 483 480 496
425 3 2 1 1 491 489 500 497
426 3 2 1 1 486 496 493 471
427 3 2 1 1 500 498 493 501
428 3 2 1 1 484 494 499 487
429 3 2 1 1 484 481 497 494
430 3 2 1 1 495 499 494 501
431 3 2 1 1 494 497 500 501
432 3 2 1 1 496 495 501 493
4 2 2 1 1 39 510 171 
5 2 2 1 1 172 510 39 
6 2 2 1 1 510 529 171 
7 2 2 1 1 172 530 510 
8 2 2 1 1 37 511 174 
9 2 2 1 1 175 511 37 
10 2 2 1 1 511 532 174 
11 2 2 1 1 175 533 511 
21 2 2 1 1 509 516 415 
22 2 2 1 1 517 509 519 
23 2 2 1 1 511 521 513 
24 2 2 1 1 415 516 514 
25 2 2 1 1 517 516 509 
26 2 2 1 1 502 510 520 
27 2 2 1 1 403 510 511 
28 2 2 1 1 403 402 510 
29 2 2 1 1 403 513 514 
30 2 2 1 1 401 403 514 
31 2 2 1 1 400 516 517 
32 2 2 1 1 516 400 401 
33 2 2 1 1 519 520 400 
34 2 2 1 1 402 400 520 
37 2 2 1 1 520 510 402 
38 2 2 1 1 513 403 511 
39 2 2 1 1 517 519 400 
40 2 2 1 1 514 516 401 
155 3 2 1 1 277 341 273 518
195 3 2 1 1 214 335 206 502
198 3 2 1 1 210 503 275 289
206 3 2 1 1 182 214 502 509
217 3 2 1 1 520 148 221 548
227 3 2 1 1 195 523 522 292
229 3 2 1 1 522 521 249 292
233 3 2 1 1 218 277 518 543
236 3 2 1 1 515 295 217 539
237 3 2 1 1 276 295 515 216
240 3 2 1 1 517 165 218 543
244 3 2 1 1 518 273 219 544
250 3 2 1 1 542 225 165 517
251 3 2 1 1 545 258 227 546
253 3 2 1 1 534 254 149 513
254 3 2 1 1 138 258 545 519
255 3 2 1 1 544 219 138 519
256 3 2 1 1 149 255 535 513
257 3 2 1 1 255 223 536 535
258 3 2 1 1 537 256 139 514
259 3 2 1 1 531 173 174 532
260 3 2 1 1 541 297 225 542
261 3 2 1 1 224 297 541 540
262 3 2 1 1 223 256 537 536
263 3 2 1 1 157 224 540 516
264 3 2 1 1 539 217 157 516
265 3 2 1 1 538 257 216 515
266 3 2 1 1 139 257 538 514
267 3 2 1 1 527 526 296 215
268 3 2 1 1 524 220 171 505
269 3 2 1 1 183 220 524 504
270 3 2 1 1 548 221 525 506
272 3 2 1 1 296 526 525 221
275 3 2 1 1 527 215 294 507
276 3 2 1 1 521 502 206 249
278 3 2 1 1 170 222 528 508
279 3 2 1 1 528 222 182 509
280 3 2 1 1 530 172 173 531
282 3 2 1 1 547 259 148 520
283 3 2 1 1 546 227 259 547
286 3 2 1 1 175 176 512 533
287 3 2 1 1 352 200 507 294
293 3 2 1 1 177 201 512 176
298 3 2 1 1 507 200 170 508
300 3 2 1 1 503 210 183 504
309 3 2 1 1 195 275 503 523
310 3 2 1 1 171 529 506 505
314 3 2 1 1 512 201 254 534
351 3 2 1 1 416 415 521 522
352 3 2 1 1 528 419 412 508
353 3 2 1 1 412 413 526 527
354 3 2 1 1 413 414 525 526
355 3 2 1 1 415 419 528 509
356 3 2 1 1 524 418 417 504
357 3 2 1 1 414 418 524 505
358 3 2 1 1 523 417 416 522
361 3 2 1 1 412 527 507 508
362 3 2 1 1 506 525 414 505
363 3 2 1 1 504 417 523 503
366 3 2 1 1 514 513 521 415
367 3 2 1 1 511 510 502 521
368 3 2 1 1 502 520 519 509
369 3 2 1 1 478 470 545 546
376 3 2 1 1 548 468 459 520
377 3 2 1 1 546 547 457 478
379 3 2 1 1 544 458 543 518
380 3 2 1 1 541 477 456 540
381 3 2 1 1 455 477 541 542
382 3 2 1 1 461 516 540 456
383 3 2 1 1 461 469 539 516
384 3 2 1 1 538 469 466 514
385 3 2 1 1 539 469 538 515
395 3 2 1 1 460 463 511 533
403 3 2 1 1 470 467 519 545
404 3 2 1 1 453 474 530 531
405 3 2 1 1 530 474 462 510
406 3 2 1 1 462 468 529 510
407 3 2 1 1 529 468 548 506
408 3 2 1 1 475 453 531 532
409 3 2 1 1 520 459 457 547
410 3 2 1 1 532 511 463 475
411 3 2 1 1 519 467 458 544
412 3 2 1 1 534 460 533 512
413 3 2 1 1 458 473 517 543
414 3 2 1 1 517 473 455 542
415 3 2 1 1 465 454 536 537
416 3 2 1 1 513 464 460 534
417 3 2 1 1 476 464 513 535
418 3 2 1 1 535 536 454 476
419 3 2 1 1 514 466 465 537
$EndElements
