$MeshFormat
2.2 0 8
$EndMeshFormat
$Nodes
870
1 0 0 0
2 0 200 0
3 0 200 100
4 0 100 100
5 0 0 100
6 0 0 50
7 0 5 0
8 0 10 0
9 0 15 0
10 0 20 0
11 0 25 0
12 0 30 0
13 0 35 0
14 0 40 0
15 0 45 0
16 0 50 0
17 0 55 0
18 0 60 0
19 0 65 0
20 0 70 0
21 0 75 0
22 0 80 0
23 0 85 0
24 0 90 0
25 0 95 0
26 0 100 0
27 0 105 0
28 0 110 0
29 0 115 0
30 0 120 0
31 0 125 0
32 0 130 0
33 0 135 0
34 0 140 0
35 0 145 0
36 0 150 0
37 0 155 0
38 0 160 0
39 0 165 0
40 0 170 0
41 0 175 0
42 0 180 0
43 0 185 0
44 0 190 0
45 0 195 0
46 0 200 5
47 0 200 10
48 0 200 15
49 0 200 20
50 0 200 25
51 0 200 30
52 0 200 35
53 0 200 40
54 0 200 45
55 0 200 50
56 0 200 55
57 0 200 60
58 0 200 65
59 0 200 70
60 0 200 75
61 0 200 80
62 0 200 85
63 0 200 90
64 0 200 95
65 0 195 100
66 0 190 100
67 0 185 100
68 0 180 100
69 0 175 100
70 0 170 100
71 0 165 100
72 0 160 100
73 0 155 100
74 0 150 100
75 0 145 100
76 0 140 100
77 0 135 100
78 0 130 100
79 0 125 100
80 0 120 100
81 0 115 100
82 0 110 100
83 0 105 100
84 0 95 100
85 0 90 100
86 0 85 100
87 0 80 100
88 0 75 100
89 0 70 100
90 0 65 100
91 0 60 100
92 0 55 100
93 0 50 100
94 0 45 100
95 0 40 100
96 0 35 100
97 0 30 100
98 0 25 100
99 0 20 100
100 0 15 100
101 0 10 100
102 0 5 100
103 0 0 95
104 0 0 90
105 0 0 85
106 0 0 80
107 0 0 75
108 0 0 70
109 0 0 65
110 0 0 60
111 0 0 55
112 0 0 45
113 0 0 40
114 0 0 35
115 0 0 30
116 0 0 25
117 0 0 20
118 0 0 15
119 0 0 10
120 0 0 5
121 0 4.54545454545455 52.2727272727273
122 0 9.0909090909091 54.5454545454545
123 0 13.6363636363636 56.8181818181818
124 0 18.1818181818182 59.0909090909091
125 0 22.7272727272727 61.3636363636364
126 0 27.2727272727273 63.6363636363636
127 0 31.8181818181818 65.9090909090909
128 0 36.3636363636364 68.1818181818182
129 0 40.9090909090909 70.4545454545455
130 0 45.4545454545455 72.7272727272727
131 0 50 75
132 0 54.5454545454546 77.2727272727273
133 0 59.0909090909091 79.5454545454546
134 0 63.6363636363637 81.8181818181818
135 0 68.1818181818182 84.0909090909091
136 0 72.7272727272728 86.3636363636364
137 0 77.2727272727273 88.6363636363637
138 0 81.8181818181819 90.9090909090909
139 0 86.3636363636364 93.1818181818182
140 0 90.9090909090909 95.4545454545455
141 0 95.4545454545455 97.7272727272727
142 0 145.000056101874 5.00000928103115
143 0 115.021146961357 95.1412795965574
144 0 120.000113262497 5.0008869655771
145 0 150.000002229456 95.0000107612389
146 0 94.9966199043649 5.00390259517857
147 0 69.9957734289907 5.0055941399152
148 0 44.9955740964277 5.00582426604284
149 0 195.000000386988 40.0000001199987
150 0 195.000000465999 64.9999996376156
151 0 170.000000040654 4.99999991491689
152 0 179.99999993597 95.000000102192
153 0 25.0728468144725 96.6080217008816
154 0 24.9976703053499 5.0019379511655
155 0 5.02979843436137 30.0101679654062
156 0 195.000000099147 25.0000000554674
157 0 88.8744090578678 89.2929049945913
158 0 38.6318139287927 94.9816961479818
159 0 5.00087168661327 14.9987537932858
160 0 180.000000008833 4.9999999784316
161 0 3.21639358971217 79.6568457750211
162 0 55.0738210508027 94.8729979411653
163 0 195.000000001079 89.9999999998339
164 0 195.000000019509 15.0000000027831
165 0 134.9996923262 95.0003156145528
166 0 14.661907968614 94.9771013839987
167 0 195.000000649043 54.9999996823752
168 0 9.99985082803865 4.99989815348423
169 0 130.00019228483 5.00022561396631
170 0 155.000006087183 5.00000000572808
171 0 169.9999996496 95.0000007508378
172 0 104.998651588621 5.00261650551437
173 0 4.90560357939512 66.8324868226486
174 0 69.4351965307949 95.2420969386092
175 0 195.000000001317 4.9999999991046
176 0 5.0391885639246 94.977568379606
177 0 160.000001512793 4.99999981287394
178 0 124.992944808631 95.0107094293268
179 0 195.000000012903 84.9999999949602
180 0 135.000163156413 5.00010103108426
181 0 29.9966241802218 5.00320790565309
182 0 194.999999999816 95.0000000002636
183 0 14.9993791638404 5.00025346362401
184 0 195.000000663351 49.9999998586257
185 0 195.000000109824 74.9999999193361
186 0 159.999998667401 95.0000032966533
187 0 110.305416391144 95.427520346502
188 0 5.00000083907833 4.99987141155141
189 0 185.000000006006 4.99999998843089
190 0 195.000000289919 35.0000001281408
191 0 189.999999995855 95.0000000043592
192 0 145.00001548113 95.0000203266872
193 0 5.00361501782315 19.9977998773907
194 0 5.05198574389469 35.0540452036774
195 0 109.999430469009 5.00204761010983
196 0 84.9956590982873 5.0049000918278
197 0 59.9946013167258 5.00619028249172
198 0 74.9959354567268 5.00548875593503
199 0 49.9951297655842 5.00620416144439
200 0 34.9958070249275 5.0045573323842
201 0 5.67332758120287 83.5968371936397
202 0 107.015763892193 95.736135404805
203 0 33.0999581140196 94.9463572472851
204 0 5.00263986494011 40.1532143848798
205 0 50.0600578385589 94.7218434152501
206 0 64.8176823544305 95.0763329888898
207 0 4.71258439341277 71.6134250023066
208 0 79.7195234255107 94.4147561613729
209 0 4.74535991869449 57.1243218276679
210 0 99.8501336383037 95.5028977522091
211 0 4.82273425504688 45.419527239278
212 0 130.000543735924 10.0005875751636
213 0 104.997335848147 10.0060769841465
214 0 150.000014445388 90.0000320734448
215 0 115.017779663234 90.2846690125902
216 0 69.9910157212497 10.0136045155458
217 0 44.987892654824 10.0148472070561
218 0 190.000002515343 54.9999988581133
219 0 155.000025518402 9.99999968729249
220 0 190.000001495795 40.0000001806869
221 0 10.091366486485 30.0139380311362
222 0 24.9943051885918 10.0047411005026
223 0 40.002379715484 89.9847036750669
224 0 10.0015880395914 14.9979184604415
225 0 55.2980573110836 89.6409851052839
226 0 10.2168542371517 40.3630676626985
227 0 180.000000066465 9.99999990267607
228 0 8.38961900423169 78.4436411539241
229 0 80.266235388165 84.7685441869076
230 0 9.75199118796903 64.0790799354997
231 0 69.0284267812658 90.4483506478443
232 0 96.665776418716 95.1400554906504
233 0 110.180646878163 90.8019528291938
234 0 140.000118792647 5.00003993257373
235 0 165.000000362349 4.99999983617086
236 0 119.995021933911 95.0528300699304
237 0 150.000027750627 5.00000226296254
238 0 189.99999999883 90.0000000117161
239 0 125.000199752117 5.00052464281811
240 0 190.000000003867 4.99999999512672
241 0 195.000000007263 9.99999999828912
242 0 195.000000723862 59.9999995299944
243 0 129.997927137766 95.0028797430141
244 0 195.000000624661 45.0000000192195
245 0 195.000000293235 69.9999997691096
246 0 19.998523708942 5.00105294978047
247 0 195.000000055395 20.0000000212348
248 0 184.99999997672 95.0000000331743
249 0 164.999999207085 95.0000018614764
250 0 155.000000025438 95.0000072939805
251 0 5.00024065033742 9.99950623239957
252 0 195.000000198618 30.0000001028099
253 0 174.99999983338 95.0000003546136
254 0 139.99998765709 95.0000899678173
255 0 195.000000052161 79.9999999701837
256 0 175.000000023366 4.99999994711519
257 0 10.0001299852817 9.99936854354565
258 0 114.999881587373 5.00148697006774
259 0 5.01480541695351 25.0001859010594
260 0 9.9298194152084 95.0930447277813
261 0 5.26501953731542 89.854498524912
262 0 29.9914450527521 10.0081179333488
263 0 99.9975889805787 5.00338982212416
264 0 39.9952625302053 5.00571808836614
265 0 89.9958560857263 5.00455991145234
266 0 79.9956779902265 5.00538589825831
267 0 64.9949611041933 5.00623826978637
268 0 54.9945577498243 5.00646235597389
269 0 20.5286851785198 94.1869370383028
270 0 28.4775467257673 95.5507673280283
271 0 4.06879497041336 76.2850245608123
272 0 44.9956590978173 94.981122961013
273 0 60.0119286866128 94.9759506928576
274 0 72.9053054412847 95.369971751855
275 0 9.06440305890889 49.2051374047018
276 0 84.5431064066923 87.2182523500218
277 0 9.47124978787478 59.2971901836849
278 0 4.85922503021904 62.0061124724208
279 0 110.05705811659 85.8451189660281
280 0 169.999999617796 90.0000029097217
281 0 24.8593472774484 91.0649915006427
282 0 87.517395972485 83.9939537791396
283 0 190.000000500266 74.9999997749979
284 0 129.997753008288 90.0057300976605
285 0 94.2758527054642 91.4611228455275
286 0 84.9909636255929 10.0114075297729
287 0 24.9918693897303 15.0075104067036
288 0 104.984735505894 92.2102174738905
289 0 145.000210191709 10.0000293407053
290 0 135.000495899743 10.0002758548265
291 0 190.000000048955 85.0000000146347
292 0 190.000002110741 44.9999998727519
293 0 185.000000040834 9.99999995349653
294 0 190.000000364929 25.0000000815472
295 0 190.000001089995 35.0000002298714
296 0 170.000000299172 9.99999965045853
297 0 120.000295222926 10.0021927377135
298 0 109.998900161468 10.0048002720122
299 0 14.9991519269722 10.0001204261672
300 0 10.0080818133029 19.9957338540025
301 0 11.5933199203027 85.997068723423
302 0 59.9876596022861 10.0149790804391
303 0 39.9880348481485 10.0139405249462
304 0 74.9915960604724 10.0131976704466
305 0 9.77727487638074 68.9354414846224
306 0 50.169179765623 89.2009655150219
307 0 70.6991286067309 79.9169813485857
308 0 64.6708803544289 90.3439226419611
309 0 140.000126182804 90.0001701667604
310 0 145.000063174967 90.0000700123528
311 0 160.000008185099 9.99999928232695
312 0 150.000098966233 10.0000067387467
313 0 190.000002432562 59.9999985743011
314 0 159.999998711366 90.0000107699093
315 0 155.000002543338 90.0000203429148
316 0 190.000002586675 49.99999933176
317 0 190.000001096665 69.9999993428275
318 0 184.999999980206 90.0000001012963
319 0 179.999999918223 90.0000004149377
320 0 190.000000065661 14.9999999837132
321 0 190.000000024669 9.99999998426424
322 0 175.000000143852 9.99999978671352
323 0 125.000498565445 10.0012800001346
324 0 19.9971523896399 10.0020245463333
325 0 119.993737407295 90.1004232736253
326 0 94.9931208192651 10.0089301854103
327 0 49.9868979509748 10.0155759360032
328 0 10.2712320303676 90.5088412145549
329 0 99.9952691979165 10.0076359074588
330 0 10.0335305836865 24.9967516035425
331 0 34.9890905358402 10.0116364752931
332 0 64.989268563439 10.0147324769586
333 0 35.0290006935975 89.9851506362528
334 0 13.8865393572506 91.510512436784
335 0 60.2059560622592 90.115559166196
336 0 9.39738518067037 73.782599348188
337 0 10.2527009438157 35.1328338436162
338 0 45.0896765364483 88.0944817627489
339 0 9.64285788890191 45.5090619874863
340 0 75.5847458151616 82.2011676519962
341 0 14.1920674665874 61.5456447293879
342 0 90.2474924299267 86.2844924435088
343 0 74.0020083912092 91.5809175493447
344 0 130.001064016834 15.0011300345995
345 0 104.99658637777 15.0106158100817
346 0 140.000422741719 85.0002530938012
347 0 69.9871382684412 15.025130954885
348 0 44.9736610536834 15.029411395685
349 0 185.000006716584 54.999997484475
350 0 150.000219166678 15.0000086726514
351 0 185.000004076965 39.9999998189276
352 0 160.000003595236 85.0000249257676
353 0 170.000001054564 14.9999989982568
354 0 15.4376232902938 34.9804127953661
355 0 90.9895294049916 81.0474677308958
356 0 185.000001584091 75.0000001000353
357 0 35.0062117030593 84.6609319263971
358 0 105.118429047504 86.3176186218781
359 0 14.4597470156504 76.298256915226
360 0 15.0009959430756 14.9986989487468
361 0 50.0855270098184 83.8714856227517
362 0 94.5403038465514 85.1314174138149
363 0 16.5465443432469 52.6623537896335
364 0 78.9954183440913 76.9424936430371
365 0 99.8011850250573 91.1545787574306
366 0 55.7574092979371 83.7464997954059
367 0 134.999744355367 90.001402972862
368 0 124.994540285536 90.0313232930903
369 0 150.000043778097 85.0000676123112
370 0 185.000006507271 49.9999983407708
371 0 155.000082708936 14.9999997108084
372 0 175.000000551087 14.9999994060777
373 0 140.000381937015 10.000114212661
374 0 190.000000261803 79.9999999812351
375 0 190.000001917704 64.9999988032928
376 0 185.000000152548 14.9999999023236
377 0 190.000000197673 19.9999999998728
378 0 164.999999552905 90.0000066722824
379 0 174.999999851008 90.0000013891838
380 0 185.000000132063 85.000000247911
381 0 190.000000712224 30.0000001705577
382 0 165.000002192821 9.99999936612475
383 0 125.000969117266 15.0022971723377
384 0 89.991662387817 10.0103955632274
385 0 29.9859019406831 15.014498324691
386 0 16.5533065242573 40.7058659294834
387 0 114.999813827362 10.003511455314
388 0 54.9865624583299 10.0157412122482
389 0 29.8654038765786 89.1509962457592
390 0 19.9977479464457 15.0018474817986
391 0 40.0573128077689 86.2689653269543
392 0 94.9912047272104 15.0154708868845
393 0 115.030934392912 85.3699341969027
394 0 15.0111040425947 19.9950975670107
395 0 79.9913821791648 10.0126210876567
396 0 34.980429131239 15.0215488798032
397 0 16.307254899281 89.2085101577976
398 0 59.9787533648855 15.0277383287531
399 0 14.5826979845114 66.3657701967761
400 0 15.0475856974759 24.9885698071399
401 0 65.8637023845297 77.704328151202
402 0 12.1487459048303 50.6782581834684
403 0 83.6633142097271 81.0736795859413
404 0 64.5521987619591 86.9063598310189
405 0 110.15651324994 80.747178897882
406 0 130.001777301125 20.0018574684688
407 0 180.000014113339 54.9999965667672
408 0 150.000404206823 20.0000133835415
409 0 170.000002930886 19.9999977338899
410 0 20.2515166343318 34.7069606705947
411 0 185.000001726797 29.9999999996427
412 0 24.9986505289214 20.0075970522215
413 0 160.000024751161 14.9999980835868
414 0 175.000000597777 85.0000032165139
415 0 165.000002174449 85.0000148185379
416 0 84.9889140907195 15.02007691224
417 0 54.9750077115916 15.0292606063715
418 0 34.9114948412233 79.2887622332904
419 0 19.1010996712085 48.3071905422186
420 0 84.6635685037059 74.5596630956345
421 0 97.0298562713764 81.3720836565092
422 0 135.00100263857 15.0005556958234
423 0 135.000631305546 85.0015913859679
424 0 130.000160062716 85.0096072704747
425 0 155.000014601392 85.0000434397848
426 0 145.000166229883 85.0001289113573
427 0 185.000004868676 64.9999981820559
428 0 185.000006504788 59.9999975390483
429 0 185.000005622412 44.9999991429776
430 0 185.000003285952 69.9999994255919
431 0 165.000006452074 14.9999982972889
432 0 145.000497319073 15.0000632443541
433 0 185.00000292439 34.9999999594902
434 0 180.000000327707 14.9999997031155
435 0 185.000000457378 19.999999853126
436 0 185.000000696804 80.0000003822322
437 0 180.000000374503 85.0000012405932
438 0 120.000708019106 15.0040203414003
439 0 109.99877436686 15.0083959766391
440 0 99.9940363746421 15.0131487540153
441 0 39.9757576473566 15.0271415902383
442 0 64.9831981041012 15.0269034282944
443 0 45.1400675710316 82.7238897925947
444 0 120.006466927113 85.1377404241509
445 0 89.989976086381 15.0180422854791
446 0 74.9892992529762 15.0239264370416
447 0 20.0098162328782 19.9983744906517
448 0 29.9873451658287 20.0208691364293
449 0 14.3980097737687 46.3552537793647
450 0 29.9373275974321 82.9362106063125
451 0 20.0391795996258 85.0804465872064
452 0 49.9726722937503 15.0304301788156
453 0 14.6877184379192 71.2898411464901
454 0 15.1550607830518 29.9745457966979
455 0 13.3717729349105 81.3676264318541
456 0 72.5544664425692 75.1633758324527
457 0 100.145510145045 86.2462273395671
458 0 87.4561620939919 77.8717029804207
459 0 61.2284280977761 75.4792932706393
460 0 61.2803675344928 85.7090639698366
461 0 53.2977969279516 79.9183192970272
462 0 18.8880830887683 63.8534064643149
463 0 102.926736860067 95.8155391873408
464 0 104.99743321916 20.0162852266698
465 0 135.001865369084 80.0018224371552
466 0 59.9684496352348 20.0487648563613
467 0 84.9928803960506 20.0307635823279
468 0 87.7751230668897 73.0718837869382
469 0 150.000085996495 80.000112819406
470 0 180.000007257506 70.0000019019497
471 0 165.000009018102 80.0000270545454
472 0 180.000005919722 34.9999988919697
473 0 145.000836380951 20.0001022401476
474 0 29.7328992507529 77.6200987767986
475 0 180.00000088448 19.9999994720559
476 0 135.001626035797 20.0008824192796
477 0 20.0480185300307 24.9856071097971
478 0 19.6949041941158 73.6285625743907
479 0 20.4424308055406 38.189355690904
480 0 105.32984643159 81.1761527443867
481 0 52.2377945882756 70.9863463265213
482 0 40.082549954574 80.9964787691358
483 0 21.0052572565797 54.9337976098763
484 0 19.3969939706788 68.6878845334536
485 0 125.001815030483 20.0037060090909
486 0 155.000035313544 80.00007475444
487 0 140.00080966635 80.0005199842255
488 0 180.000013378423 59.9999978646633
489 0 140.000791376828 15.0002460303992
490 0 180.000011342992 44.9999976496091
491 0 180.000013636996 49.9999968712023
492 0 160.000044336251 19.9999953036852
493 0 155.000166973308 19.9999991458246
494 0 165.00001438283 19.999996272288
495 0 175.000001698944 19.9999987321148
496 0 170.000001599833 85.0000082068323
497 0 185.000001042885 24.9999998487843
498 0 180.000001630509 80.0000021043734
499 0 115.071187866811 80.3670302491694
500 0 94.9939467242197 20.0237235512116
501 0 79.9901315297921 15.022425637796
502 0 69.9841109451156 20.0424876092616
503 0 115.000077216885 15.0061917768388
504 0 34.9747190331227 20.0347989950724
505 0 44.9559220966057 20.050864637305
506 0 125.000992399763 85.0456242849021
507 0 67.5155490762563 73.2152373418836
508 0 49.9561792114299 20.0520013380615
509 0 25.0268982925578 25.0002033859091
510 0 24.9577137704752 84.7753088773868
511 0 20.1273947130507 29.9327634738487
512 0 49.8882359382279 79.2811937170746
513 0 19.7042480836855 78.7467306651463
514 0 78.6864112212369 70.8678368116519
515 0 95.2383993213354 77.2446974140206
516 0 21.6339582602045 43.882258704618
517 0 100.597233724465 81.3621441979864
518 0 56.6692888551698 73.2170667695412
519 0 23.6000791995771 66.0768892192264
520 0 135.003604643227 75.0012534579005
521 0 135.002415072039 25.0013113753135
522 0 44.9548382919375 25.0748547431647
523 0 150.000141705909 75.0001569184651
524 0 175.000024273687 60.0000021012126
525 0 155.000253333784 24.9999972090304
526 0 24.8941763459743 34.8775949209221
527 0 110.256522128182 75.7070750522671
528 0 175.000024101132 49.9999951072174
529 0 175.000003307004 80.0000064027595
530 0 165.00002333113 24.9999931099659
531 0 180.000003716113 29.9999990172309
532 0 79.9926754243098 20.0345227407476
533 0 58.3378070188759 68.9046548658264
534 0 34.4072628278678 72.8836455773395
535 0 120.001698244317 20.0063230256115
536 0 109.999722157604 20.0129014606791
537 0 145.000312251837 80.0002087516186
538 0 180.000011024903 65.0000005440925
539 0 160.000017661196 80.0000478405261
540 0 170.000006139601 80.0000149396629
541 0 175.000003554014 24.9999979359379
542 0 180.000004300992 75.00000293851
543 0 145.001199130415 25.0001629554126
544 0 180.000008861989 39.999998264061
545 0 180.000002182434 24.9999991370866
546 0 120.029293042257 80.1481569204734
547 0 130.004301487371 80.0113386789691
548 0 130.002902847904 25.0029179357715
549 0 99.9957687345437 20.0200969482995
550 0 140.001288101581 20.0004045442041
551 0 64.9764049908429 20.0473941394789
552 0 39.9651031887687 20.0453967818917
553 0 89.9941116897787 20.0275088451569
554 0 45.2338795267515 77.6285519489988
555 0 54.9613865734767 20.0517048485942
556 0 30.0031973859362 25.0287790791725
557 0 73.5935638361628 70.1415540570943
558 0 23.5361626406934 50.7108621059834
559 0 74.9895346425338 20.0388573200613
560 0 25.0360290151739 29.9723675387592
561 0 24.8621314503613 80.8496812678628
562 0 90.5208420856409 74.610287855897
563 0 47.7120918711678 68.6629236808451
564 0 25.4470869054151 57.2165405292817
565 0 25.9867827881619 46.3953772750142
566 0 24.2537822763399 70.8363099854699
567 0 83.6242319448795 70.3727051621477
568 0 62.8123418761787 71.074298760171
569 0 100.776947433283 76.6160486858447
570 0 28.5006566020872 68.268868079596
571 0 96.5738223417156 71.7399077634906
572 0 105.000912867875 25.0233084405403
573 0 69.9803671234973 25.0815252211699
574 0 85.0003573149788 25.0417547286332
575 0 135.00353365178 30.0019417570119
576 0 160.000033416494 75.0000708329787
577 0 145.000481438622 75.0002252995537
578 0 175.000015606603 39.9999950489004
579 0 175.000006618635 29.9999969609172
580 0 59.9556668752801 25.1046987038688
581 0 130.00884045093 75.0092111305744
582 0 34.9855554310794 25.056014279221
583 0 29.9661316840996 48.7434393655328
584 0 38.8258612346884 64.0141232499467
585 0 64.0077193617209 66.4577356922068
586 0 88.1332710412532 69.9378897750863
587 0 140.00151734914 75.0004808485356
588 0 155.000065687406 75.0001108288891
589 0 175.000020214336 65.0000074426355
590 0 175.000025882376 54.9999980226851
591 0 170.000013730803 75.0000216026091
592 0 160.000092267244 24.9999920662124
593 0 175.000014365654 70.000010204349
594 0 175.000020625584 44.99999443561
595 0 175.000008655601 75.0000099174763
596 0 150.000642373161 25.0000426688176
597 0 170.000009374915 24.999995686124
598 0 125.003342422748 25.0055162476626
599 0 100.001094021971 25.0287438433322
600 0 140.001855071885 25.0006092575859
601 0 95.0020809552125 25.033933285008
602 0 115.11895440522 75.3486657237682
603 0 115.001131541634 20.0095526743931
604 0 125.011775418596 80.0520059035416
605 0 105.487670478467 76.1858253375031
606 0 49.9499329535313 25.08218376283
607 0 78.8357040139136 66.1107118155485
608 0 79.9962542175877 25.0484865526442
609 0 39.9737311905839 25.0697146054512
610 0 23.828871001017 39.4955981428194
611 0 30.0012428628185 30.0689231298224
612 0 29.0726551260932 72.4763390809213
613 0 53.8530214969992 66.6223338741013
614 0 40.2785713193451 75.6008604032627
615 0 24.6347462277933 75.7505672098395
616 0 68.6768142010881 68.4573554071679
617 0 43.2132900323096 66.3126904874863
618 0 31.3710064988423 68.7382996445852
619 0 110.274619689576 70.7369494514925
620 0 105.002642634112 30.0326709010499
621 0 135.006110250496 70.00120699184
622 0 84.9981503677109 30.0598142764052
623 0 170.000041578887 55.0000032330714
624 0 155.000357136521 29.9999983059904
625 0 45.0082465507294 30.0584811283824
626 0 150.000254277212 70.0001970213507
627 0 170.000034758897 44.9999903066395
628 0 120.052000059183 75.1445655366999
629 0 69.7128607056486 63.7607654148305
630 0 45.1268943184008 61.9231182249709
631 0 115.003089195301 25.0135194842888
632 0 140.002595361035 70.0003449532743
633 0 170.000033040311 65.0000224652245
634 0 155.000109149637 70.0001419224512
635 0 165.000022323684 75.000042253542
636 0 170.000024036426 70.000025815878
637 0 160.000135422928 29.9999880046198
638 0 170.000014423374 29.9999933441749
639 0 145.001587789014 30.0002684037492
640 0 175.000011269617 34.9999957142468
641 0 130.004614710911 30.0042024334227
642 0 110.002036201627 25.0185736157814
643 0 140.002529196751 30.0008575204504
644 0 100.001896860796 30.0410939172451
645 0 90.0013650450488 25.0386216571764
646 0 74.9897172332246 25.0638350880968
647 0 54.9496847366367 25.0994070028549
648 0 120.003512763074 25.0092023295653
649 0 64.9673142423055 25.104904520262
650 0 125.022806361052 75.0508479043039
651 0 83.4759120231923 65.6833473022653
652 0 29.8525838352173 35.2899978133529
653 0 31.6009863356533 45.4900333821903
654 0 35.0300522806465 30.1265395560683
655 0 34.3346085114013 61.6842649832547
656 0 59.4558155946638 64.2527550477559
657 0 74.3743570957915 65.4150728930661
658 0 100.92535094521 71.8918146682347
659 0 49.4226193143053 64.2920272339424
660 0 27.8432122260066 52.9532828812566
661 0 92.3786591322839 70.6304445912838
662 0 104.972621514099 35.0478714088213
663 0 135.008690511987 65.0001906321807
664 0 59.9221148192675 30.2743551213137
665 0 140.003375622952 35.0010748651089
666 0 150.000446051415 65.0002227702791
667 0 33.9851546534887 50.5385148538286
668 0 165.000049737725 65.0000506230879
669 0 155.000444014626 35.0000038030093
670 0 170.00002152367 34.9999908875822
671 0 69.9941424127569 30.186943922841
672 0 120.005521190443 30.0125907327148
673 0 125.029095616303 70.0407854535547
674 0 115.133075429413 70.3536609941896
675 0 95.0008345118203 30.0490925802868
676 0 35.1704427835867 35.3922280238563
677 0 75.6531764080156 61.2943053284909
678 0 50.7566426202942 59.8387791692287
679 0 110.001619204338 30.0258447514856
680 0 170.000039528051 60.0000148759939
681 0 160.000059429351 70.0000903018132
682 0 165.000037519559 70.0000518280035
683 0 170.00003966833 49.999995417695
684 0 170.000029770357 39.9999895819275
685 0 165.000048258659 29.999989341121
686 0 150.00087331897 30.0000790013649
687 0 145.000985295513 70.0002399533329
688 0 135.005082672001 35.0026463694736
689 0 79.9996662712256 30.078436490737
690 0 125.005429053426 30.0078182842298
691 0 49.9392727645361 30.0895984094586
692 0 130.014616348759 70.011752360304
693 0 40.0628190293086 30.1003676770296
694 0 89.9968502803233 30.0561127238816
695 0 29.345475462704 41.5349839929642
696 0 88.5440483106193 65.2558337065616
697 0 40.7853041427899 59.4678592750363
698 0 64.992387323044 61.6567500853119
699 0 78.885731015738 62.7153172904146
700 0 29.8508927211792 59.4249035336697
701 0 55.0018409064933 62.0069584305207
702 0 105.519080515562 71.3274522616923
703 0 97.4665256956893 68.3404235704985
704 0 105.367186525067 66.5429462437632
705 0 94.9592505742662 35.0725825899113
706 0 84.9816974783628 35.1238499442107
707 0 140.004543716797 40.0012367457557
708 0 77.7017815349645 57.1779104429746
709 0 165.000069365869 55.0000233749774
710 0 45.1591867769089 34.817605829792
711 0 160.000085299898 65.0000981111016
712 0 165.000070003644 44.9999917169515
713 0 145.001498002674 65.000197872117
714 0 165.000059496305 34.9999857018317
715 0 150.001066804827 35.0001078698599
716 0 125.007365482614 35.0104752116235
717 0 109.982907926893 35.0385400080543
718 0 35.3564246197613 40.7934154366751
719 0 55.8227184565243 57.2794631557767
720 0 165.000063967215 60.0000425470045
721 0 155.000203754967 65.0001601611104
722 0 140.004146879721 65.0001297250807
723 0 160.000182957532 34.999988588224
724 0 120.063949280469 70.1468064049003
725 0 145.002095605269 35.0004421368115
726 0 115.002878106783 30.0193140611804
727 0 75.0052122694205 30.1256125704808
728 0 130.006682860942 35.0056926087377
729 0 64.9651092211943 30.2732445047933
730 0 54.898184387025 30.2016691146381
731 0 130.01754044235 65.0074414321059
732 0 99.9564587932877 35.0592660082281
733 0 110.187817816526 65.8208226920442
734 0 35.1029119728911 45.8788637758899
735 0 40.3977946725651 35.14844486885
736 0 94.5673417845231 65.4209559556966
737 0 32.1009828966889 55.0485144997125
738 0 82.6266207149951 60.1077316603304
739 0 36.4187220616604 57.1547843965449
740 0 46.7340142810692 57.4863726865498
741 0 71.0229248194848 59.1328994542623
742 0 60.3322233900592 59.4556706383882
743 0 100.784009608325 67.4840951774476
744 0 104.974417349115 61.756637761642
745 0 130.009170799889 40.00668971238
746 0 70.096429673507 35.3841284189376
747 0 88.7805411690358 59.9972440024868
748 0 59.8441229297564 35.7235848870872
749 0 109.888770342761 40.0782652165528
750 0 135.010861922426 60.0005006666297
751 0 145.002363004537 60.0002011104824
752 0 99.806262853024 40.0688302857551
753 0 150.001290989109 40.0001651175918
754 0 120.00453493626 35.0183163057151
755 0 61.203529429309 54.5699481487475
756 0 100.036528828635 63.0859824107421
757 0 42.7189933029085 54.8180660785297
758 0 160.00013347053 60.0000927560474
759 0 160.000204659924 39.9999967590991
760 0 165.000073789722 50.0000074192091
761 0 165.000083485576 39.9999894589792
762 0 150.000973943237 60.0002225252269
763 0 115.100634060799 65.377201859821
764 0 145.002679254236 40.0005241849364
765 0 80.0256839012675 35.1766032196785
766 0 89.9585722941113 35.0981451107765
767 0 135.006974492216 40.0031377122637
768 0 114.991109335853 35.0299955134128
769 0 49.7667679234479 34.9017950666263
770 0 125.031533172318 65.0408537124718
771 0 40.0715220283369 47.2368626305499
772 0 45.4640957173457 38.2726039200884
773 0 41.7962299296486 41.0331049810301
774 0 84.2539321481574 55.4697559471569
775 0 66.1197295785229 56.796058284607
776 0 72.8981925764686 54.7126238831939
777 0 51.4648625496967 55.3847673111941
778 0 38.3498709560954 52.4347643446888
779 0 99.0467525192652 58.4273600477165
780 0 67.7103948055793 51.2553700960735
781 0 89.9228767681105 40.124470769589
782 0 145.003188728982 55.0002691464709
783 0 135.009023987134 45.0029178463826
784 0 89.3643628220084 54.3759951567962
785 0 145.003266789467 45.0005070706563
786 0 47.4120224609081 44.0079794517281
787 0 45.9920900112277 50.1646005766727
788 0 155.000385515749 60.0001608089438
789 0 160.000191244861 50.0000442165001
790 0 160.000222081031 45.0000206144782
791 0 160.000190506183 55.0000752475908
792 0 155.000593166036 40.000052026991
793 0 140.005706708462 60.0001406015574
794 0 125.007916382912 40.014680957389
795 0 114.952366707096 40.0570021688902
796 0 120.056252085295 65.1520466068502
797 0 85.0275642566715 40.2336576587578
798 0 109.976608388368 60.8869337110385
799 0 54.6478079365979 35.3976178640049
800 0 75.0798116056055 35.2620121721697
801 0 94.8434258752396 40.0731993086798
802 0 65.0438498055406 35.6383231828991
803 0 130.01864091874 60.0074679454954
804 0 94.0156575882583 59.6868800615099
805 0 104.805228739701 40.0806186048399
806 0 48.9521978596666 39.379018681298
807 0 80.8026587004648 51.8950775635229
808 0 56.5291243916938 52.5147561367691
809 0 48.1569952443586 54.5342041104047
810 0 114.88240410503 45.1268664497409
811 0 70.3586061795897 40.5606564562192
812 0 104.350455888246 45.1680004772545
813 0 104.21433429871 56.8457421869546
814 0 155.000606668426 50.0001240053383
815 0 135.011479046745 55.0014853234341
816 0 94.6757654859567 44.9944355222305
817 0 90.0182536982702 44.9397475832753
818 0 71.1404318932747 49.0122054052994
819 0 52.6597567604488 45.7971756765767
820 0 93.7923119140014 56.1700015768298
821 0 150.001457899549 55.0002291943448
822 0 150.001609724498 45.0002381474799
823 0 155.00060833141 55.0001488531746
824 0 155.00070860057 45.0000994154799
825 0 140.006673076581 55.0005043425238
826 0 130.01146827786 45.0079953802852
827 0 125.027256356812 60.0409469147207
828 0 115.010785967693 60.3937701485271
829 0 80.1343653809382 40.357175133284
830 0 119.988973348817 40.0341375707596
831 0 140.00587520007 45.0012416778296
832 0 59.9303041859044 42.272790122942
833 0 51.8175209632989 50.8682696341756
834 0 53.9057340617364 40.6453119793445
835 0 74.7166219338631 50.2459113991709
836 0 86.6236527584643 49.7848075126079
837 0 62.1910877233228 49.7111080650884
838 0 125.006850814446 45.0224997761567
839 0 57.6485856245339 47.7065346116371
840 0 75.3568418272108 45.4924202230628
841 0 85.3644815158546 45.2082657760421
842 0 97.2763601799848 54.3789953909403
843 0 94.3911682226509 50.7773428663558
844 0 145.00365566193 50.0004391779683
845 0 150.00177166068 50.0002525313101
846 0 140.006735843861 50.000909902872
847 0 109.604920800035 55.834453909677
848 0 135.010644776907 50.0025374465346
849 0 120.027573842456 60.1548259328035
850 0 75.2389671767475 40.4214818255744
851 0 119.973284129502 45.060771474841
852 0 65.5114990896008 40.9397571869844
853 0 99.3952291217996 45.0033651284828
854 0 130.016974405664 55.0092534227499
855 0 109.587427543786 45.2464697713857
856 0 80.3875156454889 45.5838407446151
857 0 66.3712396922151 45.7796977153879
858 0 90.1405164628664 48.4132318557134
859 0 125.017736182247 55.0400986782454
860 0 119.994520541013 55.1325509723728
861 0 102.740543020351 51.0903147234471
862 0 114.825905239682 50.2538628695118
863 0 130.013334348485 50.0110072674565
864 0 125.006263812411 50.0380463086431
865 0 114.876528328611 55.3777353121423
866 0 63.0308521479112 46.1547279363249
867 0 70.7746392056925 45.405733874531
868 0 98.8456692704921 48.7112793954427
869 0 109.354049926837 50.5890274161462
870 0 119.957629251686 50.1161455089139
$EndNodes
$Elements
812
1 2 2 1 1 208 137 138 
2 2 2 1 1 138 139 208 
3 2 2 1 1 87 88 208 
4 2 2 1 1 208 86 87 
5 2 2 1 1 141 4 84 
6 2 2 1 1 84 85 141 
7 3 2 1 1 832 839 819 834
8 3 2 1 1 140 86 208 139
9 3 2 1 1 744 704 743 756
10 3 2 1 1 363 123 122 402
11 3 2 1 1 804 747 784 820
12 3 2 1 1 655 127 126 700
13 3 2 1 1 861 842 843 868
14 3 2 1 1 128 129 614 534
15 3 2 1 1 562 468 586 661
16 3 2 1 1 857 852 811 867
17 3 2 1 1 231 308 404 135
18 3 2 1 1 842 820 784 843
19 3 2 1 1 4 141 232 210
20 3 2 1 1 868 853 812 861
21 3 2 1 1 833 787 786 819
22 3 2 1 1 365 285 362 457
23 3 2 1 1 288 202 83 463
24 3 2 1 1 857 866 832 852
25 3 2 1 1 458 562 515 355
26 3 2 1 1 366 133 134 460
27 3 2 1 1 843 858 817 816
28 3 2 1 1 756 779 813 744
29 3 2 1 1 861 813 779 842
30 3 2 1 1 619 702 704 733
31 3 2 1 1 83 202 187 82
32 3 2 1 1 661 586 696 736
33 3 2 1 1 561 513 478 615
34 3 2 1 1 365 457 358 288
35 3 2 1 1 282 342 157 276
36 3 2 1 1 757 778 771 787
37 3 2 1 1 511 410 354 454
38 3 2 1 1 336 359 455 228
39 3 2 1 1 695 565 516 610
40 3 2 1 1 288 463 210 365
41 3 2 1 1 799 748 832 834
42 3 2 1 1 735 710 772 773
43 3 2 1 1 609 693 654 582
44 3 2 1 1 359 336 305 453
45 3 2 1 1 552 609 582 504
46 3 2 1 1 812 853 752 805
47 3 2 1 1 693 625 710 735
48 3 2 1 1 337 226 204 194
49 3 2 1 1 705 766 694 675
50 3 2 1 1 477 511 454 400
51 3 2 1 1 805 752 732 662
52 3 2 1 1 847 869 862 865
53 3 2 1 1 675 694 645 601
54 3 2 1 1 608 574 622 689
55 3 2 1 1 454 354 337 221
56 3 2 1 1 303 441 396 331
57 3 2 1 1 779 756 736 804
58 3 2 1 1 786 806 834 819
59 3 2 1 1 752 801 705 732
60 3 2 1 1 730 799 769 691
61 3 2 1 1 803 731 770 827
62 3 2 1 1 585 616 507 568
63 3 2 1 1 629 657 557 616
64 3 2 1 1 532 467 574 608
65 3 2 1 1 677 699 607 657
66 3 2 1 1 647 730 691 606
67 3 2 1 1 649 729 664 580
68 3 2 1 1 307 401 507 456
69 3 2 1 1 448 556 509 412
70 3 2 1 1 555 647 606 508
71 3 2 1 1 747 804 736 696
72 3 2 1 1 394 400 330 300
73 3 2 1 1 336 207 173 305
74 3 2 1 1 499 602 628 546
75 3 2 1 1 716 754 672 690
76 3 2 1 1 796 763 828 849
77 3 2 1 1 781 797 706 766
78 3 2 1 1 728 716 690 641
79 3 2 1 1 726 768 717 679
80 3 2 1 1 444 325 215 393
81 3 2 1 1 335 460 404 308
82 3 2 1 1 481 563 659 613
83 3 2 1 1 732 705 675 644
84 3 2 1 1 388 417 452 327
85 3 2 1 1 802 852 832 748
86 3 2 1 1 332 442 398 302
87 3 2 1 1 690 672 648 598
88 3 2 1 1 417 555 508 452
89 3 2 1 1 673 650 628 724
90 3 2 1 1 783 826 745 767
91 3 2 1 1 846 848 783 831
92 3 2 1 1 787 833 777 809
93 3 2 1 1 855 812 805 749
94 3 2 1 1 750 663 731 803
95 3 2 1 1 738 651 607 699
96 3 2 1 1 324 390 360 299
97 3 2 1 1 396 504 448 385
98 3 2 1 1 767 745 728 688
99 3 2 1 1 360 394 300 224
100 3 2 1 1 657 607 514 557
101 3 2 1 1 259 193 300 330
102 3 2 1 1 819 839 808 833
103 3 2 1 1 155 259 330 221
104 3 2 1 1 717 662 620 679
105 3 2 1 1 568 507 401 459
106 3 2 1 1 616 557 456 507
107 3 2 1 1 385 448 412 287
108 3 2 1 1 384 445 416 286
109 3 2 1 1 262 385 287 222
110 3 2 1 1 272 338 306 205
111 3 2 1 1 230 399 453 305
112 3 2 1 1 514 607 651 567
113 3 2 1 1 831 783 767 707
114 3 2 1 1 692 581 650 673
115 3 2 1 1 331 396 385 262
116 3 2 1 1 268 388 327 199
117 3 2 1 1 233 215 143 187
118 3 2 1 1 267 332 302 197
119 3 2 1 1 724 674 763 796
120 3 2 1 1 804 820 842 779
121 3 2 1 1 832 866 837 839
122 3 2 1 1 265 384 286 196
123 3 2 1 1 806 786 773 772
124 3 2 1 1 266 395 304 198
125 3 2 1 1 344 383 323 212
126 3 2 1 1 273 335 308 206
127 3 2 1 1 785 822 845 844
128 3 2 1 1 810 795 830 851
129 3 2 1 1 412 509 477 447
130 3 2 1 1 476 406 344 422
131 3 2 1 1 749 717 768 795
132 3 2 1 1 844 846 831 785
133 3 2 1 1 798 847 865 828
134 3 2 1 1 110 278 173 109
135 3 2 1 1 865 860 849 828
136 3 2 1 1 521 600 643 575
137 3 2 1 1 644 599 572 620
138 3 2 1 1 452 508 505 348
139 3 2 1 1 646 727 671 573
140 3 2 1 1 559 532 608 646
141 3 2 1 1 849 827 770 796
142 3 2 1 1 733 798 828 763
143 3 2 1 1 383 438 297 323
144 3 2 1 1 301 328 261 201
145 3 2 1 1 665 725 764 707
146 3 2 1 1 444 393 499 546
147 3 2 1 1 674 724 628 602
148 3 2 1 1 465 487 346 423
149 3 2 1 1 864 838 826 863
150 3 2 1 1 423 367 284 424
151 3 2 1 1 438 535 603 503
152 3 2 1 1 572 642 679 620
153 3 2 1 1 455 301 201 228
154 3 2 1 1 845 822 824 814
155 3 2 1 1 368 506 424 284
156 3 2 1 1 823 814 789 791
157 3 2 1 1 720 709 623 680
158 3 2 1 1 758 720 668 711
159 3 2 1 1 536 464 345 439
160 3 2 1 1 758 711 721 788
161 3 2 1 1 329 440 392 326
162 3 2 1 1 814 823 821 845
163 3 2 1 1 368 284 243 178
164 3 2 1 1 824 822 753 792
165 3 2 1 1 469 369 426 537
166 3 2 1 1 284 367 165 243
167 3 2 1 1 796 770 673 724
168 3 2 1 1 246 324 299 183
169 3 2 1 1 681 711 668 682
170 3 2 1 1 263 329 326 146
171 3 2 1 1 367 423 346 309
172 3 2 1 1 790 712 760 789
173 3 2 1 1 233 279 393 215
174 3 2 1 1 761 759 723 714
175 3 2 1 1 785 764 753 822
176 3 2 1 1 367 309 254 165
177 3 2 1 1 682 668 633 636
178 3 2 1 1 680 623 590 524
179 3 2 1 1 310 426 369 214
180 3 2 1 1 712 627 683 760
181 3 2 1 1 325 444 506 368
182 3 2 1 1 714 670 684 761
183 3 2 1 1 576 539 486 588
184 3 2 1 1 589 593 636 633
185 3 2 1 1 538 488 428 427
186 3 2 1 1 537 577 523 469
187 3 2 1 1 789 814 824 790
188 3 2 1 1 486 425 369 469
189 3 2 1 1 471 415 352 539
190 3 2 1 1 637 624 525 592
191 3 2 1 1 714 723 637 685
192 3 2 1 1 309 310 192 254
193 3 2 1 1 682 635 576 681
194 3 2 1 1 577 537 487 587
195 3 2 1 1 591 540 471 635
196 3 2 1 1 487 537 426 346
197 3 2 1 1 425 486 539 352
198 3 2 1 1 789 760 709 791
199 3 2 1 1 538 589 524 488
200 3 2 1 1 593 595 591 636
201 3 2 1 1 528 491 407 590
202 3 2 1 1 592 525 493 492
203 3 2 1 1 634 588 523 626
204 3 2 1 1 489 422 290 373
205 3 2 1 1 635 682 636 591
206 3 2 1 1 627 594 528 683
207 3 2 1 1 589 538 470 593
208 3 2 1 1 792 753 715 669
209 3 2 1 1 633 680 524 589
210 3 2 1 1 688 575 643 665
211 3 2 1 1 529 414 496 540
212 3 2 1 1 669 715 686 624
213 3 2 1 1 639 686 715 725
214 3 2 1 1 792 759 790 824
215 3 2 1 1 539 576 635 471
216 3 2 1 1 543 596 686 639
217 3 2 1 1 470 542 595 593
218 3 2 1 1 759 792 669 723
219 3 2 1 1 788 823 791 758
220 3 2 1 1 540 591 595 529
221 3 2 1 1 548 406 476 521
222 3 2 1 1 720 758 791 709
223 3 2 1 1 670 640 578 684
224 3 2 1 1 759 761 712 790
225 3 2 1 1 521 476 550 600
226 3 2 1 1 668 720 680 633
227 3 2 1 1 473 408 596 543
228 3 2 1 1 578 544 490 594
229 3 2 1 1 711 681 634 721
230 3 2 1 1 490 429 370 491
231 3 2 1 1 590 407 488 524
232 3 2 1 1 590 623 683 528
233 3 2 1 1 623 709 760 683
234 3 2 1 1 624 637 723 669
235 3 2 1 1 626 523 577 687
236 3 2 1 1 844 782 825 846
237 3 2 1 1 666 626 687 713
238 3 2 1 1 469 523 588 486
239 3 2 1 1 596 525 624 686
240 3 2 1 1 432 350 408 473
241 3 2 1 1 492 493 371 413
242 3 2 1 1 489 432 473 550
243 3 2 1 1 685 638 670 714
244 3 2 1 1 579 531 472 640
245 3 2 1 1 627 712 761 684
246 3 2 1 1 529 595 542 498
247 3 2 1 1 371 493 408 350
248 3 2 1 1 344 212 290 422
249 3 2 1 1 370 316 218 349
250 3 2 1 1 640 670 638 579
251 3 2 1 1 685 637 592 530
252 3 2 1 1 594 627 684 578
253 3 2 1 1 413 431 494 492
254 3 2 1 1 491 528 594 490
255 3 2 1 1 530 597 638 685
256 3 2 1 1 492 494 530 592
257 3 2 1 1 428 488 407 349
258 3 2 1 1 349 218 313 428
259 3 2 1 1 531 579 541 545
260 3 2 1 1 596 408 493 525
261 3 2 1 1 579 638 597 541
262 3 2 1 1 471 540 496 415
263 3 2 1 1 544 578 640 472
264 3 2 1 1 349 407 491 370
265 3 2 1 1 429 490 544 351
266 3 2 1 1 373 289 432 489
267 3 2 1 1 597 530 494 409
268 3 2 1 1 531 545 497 411
269 3 2 1 1 430 470 538 427
270 3 2 1 1 370 429 292 316
271 3 2 1 1 428 313 375 427
272 3 2 1 1 470 430 356 542
273 3 2 1 1 411 433 472 531
274 3 2 1 1 409 494 431 353
275 3 2 1 1 588 634 681 576
276 3 2 1 1 495 475 545 541
277 3 2 1 1 350 432 289 312
278 3 2 1 1 541 597 409 495
279 3 2 1 1 475 495 372 434
280 3 2 1 1 371 350 312 219
281 3 2 1 1 544 472 433 351
282 3 2 1 1 317 283 356 430
283 3 2 1 1 427 375 317 430
284 3 2 1 1 429 351 220 292
285 3 2 1 1 356 436 498 542
286 3 2 1 1 371 219 311 413
287 3 2 1 1 422 489 550 476
288 3 2 1 1 409 353 372 495
289 3 2 1 1 497 545 475 435
290 3 2 1 1 413 311 382 431
291 3 2 1 1 435 377 294 497
292 3 2 1 1 425 352 314 315
293 3 2 1 1 351 433 295 220
294 3 2 1 1 353 431 382 296
295 3 2 1 1 352 415 378 314
296 3 2 1 1 435 475 434 376
297 3 2 1 1 433 411 381 295
298 3 2 1 1 315 214 369 425
299 3 2 1 1 411 497 294 381
300 3 2 1 1 372 353 296 322
301 3 2 1 1 376 320 377 435
302 3 2 1 1 434 372 322 227
303 3 2 1 1 376 434 227 293
304 3 2 1 1 234 373 290 180
305 3 2 1 1 235 151 296 382
306 3 2 1 1 289 142 237 312
307 3 2 1 1 179 255 61 62
308 3 2 1 1 296 151 256 322
309 3 2 1 1 182 191 238 163
310 3 2 1 1 179 163 238 291
311 3 2 1 1 322 256 160 227
312 3 2 1 1 311 219 170 177
313 3 2 1 1 39 40 151 235
314 3 2 1 1 45 175 240 44
315 3 2 1 1 240 175 241 321
316 3 2 1 1 36 37 170 237
317 3 2 1 1 241 175 46 47
318 3 2 1 1 34 35 142 234
319 3 2 1 1 169 239 31 32
320 3 2 1 1 310 214 145 192
321 3 2 1 1 244 184 316 292
322 3 2 1 1 179 291 374 255
323 3 2 1 1 374 436 356 283
324 3 2 1 1 2 46 175 45
325 3 2 1 1 242 167 56 57
326 3 2 1 1 374 291 380 436
327 3 2 1 1 192 145 74 75
328 3 2 1 1 292 220 149 244
329 3 2 1 1 180 169 32 33
330 3 2 1 1 234 180 33 34
331 3 2 1 1 177 170 37 38
332 3 2 1 1 57 58 150 242
333 3 2 1 1 63 64 182 163
334 3 2 1 1 165 77 78 243
335 3 2 1 1 80 81 143 236
336 3 2 1 1 169 180 290 212
337 3 2 1 1 374 283 185 255
338 3 2 1 1 235 177 38 39
339 3 2 1 1 50 51 252 156
340 3 2 1 1 313 242 150 375
341 3 2 1 1 177 235 382 311
342 3 2 1 1 185 283 317 245
343 3 2 1 1 58 59 245 150
344 3 2 1 1 150 245 317 375
345 3 2 1 1 56 167 184 55
346 3 2 1 1 178 243 78 79
347 3 2 1 1 236 178 79 80
348 3 2 1 1 242 313 218 167
349 3 2 1 1 167 218 316 184
350 3 2 1 1 238 191 248 318
351 3 2 1 1 8 9 183 168
352 3 2 1 1 11 154 246 10
353 3 2 1 1 9 10 246 183
354 3 2 1 1 41 42 160 256
355 3 2 1 1 48 164 241 47
356 3 2 1 1 50 156 247 49
357 3 2 1 1 48 49 247 164
358 3 2 1 1 52 190 252 51
359 3 2 1 1 53 149 190 52
360 3 2 1 1 244 149 53 54
361 3 2 1 1 54 55 184 244
362 3 2 1 1 245 59 60 185
363 3 2 1 1 60 61 255 185
364 3 2 1 1 3 65 182 64
365 3 2 1 1 191 182 65 66
366 3 2 1 1 66 67 248 191
367 3 2 1 1 74 145 250 73
368 3 2 1 1 192 75 76 254
369 3 2 1 1 165 254 76 77
370 3 2 1 1 5 103 176 102
371 3 2 1 1 261 176 103 104
372 3 2 1 1 118 119 251 159
373 3 2 1 1 214 315 250 145
374 3 2 1 1 248 152 319 318
375 3 2 1 1 315 314 186 250
376 3 2 1 1 160 189 293 227
377 3 2 1 1 149 220 295 190
378 3 2 1 1 252 190 295 381
379 3 2 1 1 189 240 321 293
380 3 2 1 1 164 320 321 241
381 3 2 1 1 156 294 377 247
382 3 2 1 1 164 247 377 320
383 3 2 1 1 171 249 378 280
384 3 2 1 1 186 314 378 249
385 3 2 1 1 156 252 381 294
386 3 2 1 1 171 280 379 253
387 3 2 1 1 152 253 379 319
388 3 2 1 1 496 414 379 280
389 3 2 1 1 238 318 380 291
390 3 2 1 1 376 293 321 320
391 3 2 1 1 318 319 437 380
392 3 2 1 1 379 414 437 319
393 3 2 1 1 529 498 437 414
394 3 2 1 1 380 437 498 436
395 3 2 1 1 188 7 8 168
396 3 2 1 1 189 160 42 43
397 3 2 1 1 240 189 43 44
398 3 2 1 1 253 69 70 171
399 3 2 1 1 249 171 70 71
400 3 2 1 1 249 71 72 186
401 3 2 1 1 250 186 72 73
402 3 2 1 1 1 7 188 120
403 3 2 1 1 239 144 30 31
404 3 2 1 1 237 142 35 36
405 3 2 1 1 248 67 68 152
406 3 2 1 1 253 152 68 69
407 3 2 1 1 251 119 120 188
408 3 2 1 1 142 289 373 234
409 3 2 1 1 179 62 63 163
410 3 2 1 1 219 312 237 170
411 3 2 1 1 256 151 40 41
412 3 2 1 1 280 378 415 496
413 3 2 1 1 632 587 520 621
414 3 2 1 1 762 666 713 751
415 3 2 1 1 309 346 426 310
416 3 2 1 1 845 821 782 844
417 3 2 1 1 725 665 643 639
418 3 2 1 1 713 687 632 722
419 3 2 1 1 666 762 788 721
420 3 2 1 1 823 788 762 821
421 3 2 1 1 626 666 721 634
422 3 2 1 1 751 782 821 762
423 3 2 1 1 587 632 687 577
424 3 2 1 1 465 520 587 487
425 3 2 1 1 621 663 722 632
426 3 2 1 1 771 778 667 734
427 3 2 1 1 543 600 550 473
428 3 2 1 1 639 643 600 543
429 3 2 1 1 753 764 725 715
430 3 2 1 1 862 810 851 870
431 3 2 1 1 423 424 547 465
432 3 2 1 1 506 604 547 424
433 3 2 1 1 722 793 751 713
434 3 2 1 1 215 325 236 143
435 3 2 1 1 368 178 236 325
436 3 2 1 1 444 546 604 506
437 3 2 1 1 362 355 515 421
438 3 2 1 1 383 485 535 438
439 3 2 1 1 751 793 825 782
440 3 2 1 1 793 722 663 750
441 3 2 1 1 279 405 499 393
442 3 2 1 1 222 287 390 324
443 3 2 1 1 439 345 213 298
444 3 2 1 1 750 815 825 793
445 3 2 1 1 631 603 535 648
446 3 2 1 1 621 692 731 663
447 3 2 1 1 764 785 831 707
448 3 2 1 1 747 696 651 738
449 3 2 1 1 851 830 794 838
450 3 2 1 1 817 781 801 816
451 3 2 1 1 445 553 467 416
452 3 2 1 1 224 159 251 257
453 3 2 1 1 188 168 257 251
454 3 2 1 1 665 707 767 688
455 3 2 1 1 344 406 485 383
456 3 2 1 1 768 726 672 754
457 3 2 1 1 642 536 603 631
458 3 2 1 1 674 602 527 619
459 3 2 1 1 628 650 604 546
460 3 2 1 1 606 691 625 522
461 3 2 1 1 575 688 728 641
462 3 2 1 1 118 159 193 117
463 3 2 1 1 803 827 859 854
464 3 2 1 1 521 575 641 548
465 3 2 1 1 848 863 826 783
466 3 2 1 1 391 357 418 482
467 3 2 1 1 745 826 838 794
468 3 2 1 1 154 222 324 246
469 3 2 1 1 846 825 815 848
470 3 2 1 1 727 800 746 671
471 3 2 1 1 728 745 794 716
472 3 2 1 1 29 30 144 258
473 3 2 1 1 345 464 549 440
474 3 2 1 1 648 672 726 631
475 3 2 1 1 838 864 870 851
476 3 2 1 1 716 794 830 754
477 3 2 1 1 181 262 222 154
478 3 2 1 1 559 502 347 446
479 3 2 1 1 485 598 648 535
480 3 2 1 1 117 193 259 116
481 3 2 1 1 547 581 520 465
482 3 2 1 1 869 847 813 861
483 3 2 1 1 406 548 598 485
484 3 2 1 1 601 500 549 599
485 3 2 1 1 239 169 212 323
486 3 2 1 1 847 798 744 813
487 3 2 1 1 690 598 548 641
488 3 2 1 1 599 549 464 572
489 3 2 1 1 692 621 520 581
490 3 2 1 1 298 195 258 387
491 3 2 1 1 395 501 446 304
492 3 2 1 1 810 862 869 855
493 3 2 1 1 11 12 181 154
494 3 2 1 1 168 183 299 257
495 3 2 1 1 769 799 834 806
496 3 2 1 1 443 554 512 361
497 3 2 1 1 694 622 574 645
498 3 2 1 1 854 815 750 803
499 3 2 1 1 144 297 387 258
500 3 2 1 1 706 622 694 766
501 3 2 1 1 508 606 522 505
502 3 2 1 1 440 329 213 345
503 3 2 1 1 547 604 650 581
504 3 2 1 1 101 102 176 260
505 3 2 1 1 642 572 464 536
506 3 2 1 1 239 323 297 144
507 3 2 1 1 286 416 501 395
508 3 2 1 1 795 810 855 749
509 3 2 1 1 599 644 675 601
510 3 2 1 1 360 224 257 299
511 3 2 1 1 500 392 440 549
512 3 2 1 1 115 116 259 155
513 3 2 1 1 384 265 146 326
514 3 2 1 1 676 735 773 718
515 3 2 1 1 800 850 811 746
516 3 2 1 1 277 341 399 230
517 3 2 1 1 652 676 718 695
518 3 2 1 1 536 439 503 603
519 3 2 1 1 304 446 347 216
520 3 2 1 1 717 749 805 662
521 3 2 1 1 263 26 27 172
522 3 2 1 1 28 29 258 195
523 3 2 1 1 706 797 829 765
524 3 2 1 1 500 601 645 553
525 3 2 1 1 445 384 326 392
526 3 2 1 1 446 501 532 559
527 3 2 1 1 620 662 732 644
528 3 2 1 1 763 674 619 733
529 3 2 1 1 557 514 364 456
530 3 2 1 1 622 706 765 689
531 3 2 1 1 503 387 297 438
532 3 2 1 1 303 331 200 264
533 3 2 1 1 159 224 300 193
534 3 2 1 1 439 298 387 503
535 3 2 1 1 787 771 773 786
536 3 2 1 1 727 646 608 689
537 3 2 1 1 679 642 631 726
538 3 2 1 1 816 801 752 853
539 3 2 1 1 654 693 735 676
540 3 2 1 1 264 200 13 14
541 3 2 1 1 551 442 347 502
542 3 2 1 1 795 768 754 830
543 3 2 1 1 800 727 689 765
544 3 2 1 1 553 445 392 500
545 3 2 1 1 770 731 692 673
546 3 2 1 1 781 817 841 797
547 3 2 1 1 181 200 331 262
548 3 2 1 1 484 566 615 478
549 3 2 1 1 647 555 466 580
550 3 2 1 1 611 654 676 652
551 3 2 1 1 298 213 172 195
552 3 2 1 1 221 337 194 155
553 3 2 1 1 553 645 574 467
554 3 2 1 1 552 441 348 505
555 3 2 1 1 395 266 196 286
556 3 2 1 1 691 769 710 625
557 3 2 1 1 781 766 705 801
558 3 2 1 1 410 526 610 479
559 3 2 1 1 799 730 664 748
560 3 2 1 1 860 859 827 849
561 3 2 1 1 474 418 357 450
562 3 2 1 1 466 551 649 580
563 3 2 1 1 226 339 211 204
564 3 2 1 1 27 28 195 172
565 3 2 1 1 265 24 25 146
566 3 2 1 1 263 146 25 26
567 3 2 1 1 12 13 200 181
568 3 2 1 1 565 558 419 516
569 3 2 1 1 513 359 453 478
570 3 2 1 1 841 836 807 856
571 3 2 1 1 266 22 23 196
572 3 2 1 1 265 196 23 24
573 3 2 1 1 836 841 817 858
574 3 2 1 1 303 264 148 217
575 3 2 1 1 850 800 765 829
576 3 2 1 1 328 260 176 261
577 3 2 1 1 386 226 337 354
578 3 2 1 1 526 652 695 610
579 3 2 1 1 481 131 130 563
580 3 2 1 1 266 198 21 22
581 3 2 1 1 267 19 20 147
582 3 2 1 1 840 850 829 856
583 3 2 1 1 304 216 147 198
584 3 2 1 1 226 386 449 339
585 3 2 1 1 329 263 172 213
586 3 2 1 1 334 166 260 328
587 3 2 1 1 388 268 197 302
588 3 2 1 1 398 442 551 466
589 3 2 1 1 267 197 18 19
590 3 2 1 1 268 17 18 197
591 3 2 1 1 442 332 216 347
592 3 2 1 1 332 267 147 216
593 3 2 1 1 860 865 862 870
594 3 2 1 1 261 104 105 201
595 3 2 1 1 100 166 269 99
596 3 2 1 1 268 199 16 17
597 3 2 1 1 526 410 511 560
598 3 2 1 1 354 410 479 386
599 3 2 1 1 502 559 646 573
600 3 2 1 1 264 14 15 148
601 3 2 1 1 100 101 260 166
602 3 2 1 1 861 812 855 869
603 3 2 1 1 417 388 302 398
604 3 2 1 1 582 556 448 504
605 3 2 1 1 693 609 522 625
606 3 2 1 1 555 417 398 466
607 3 2 1 1 203 270 281 389
608 3 2 1 1 552 504 396 441
609 3 2 1 1 729 649 573 671
610 3 2 1 1 602 499 405 527
611 3 2 1 1 166 334 397 269
612 3 2 1 1 532 501 416 467
613 3 2 1 1 441 303 217 348
614 3 2 1 1 389 281 451 510
615 3 2 1 1 390 287 412 447
616 3 2 1 1 730 647 580 664
617 3 2 1 1 649 551 502 573
618 3 2 1 1 664 729 802 748
619 3 2 1 1 450 357 333 389
620 3 2 1 1 229 137 136 340
621 3 2 1 1 205 306 225 162
622 3 2 1 1 271 161 106 107
623 3 2 1 1 452 348 217 327
624 3 2 1 1 802 729 671 746
625 3 2 1 1 81 82 187 143
626 3 2 1 1 829 797 841 856
627 3 2 1 1 852 802 746 811
628 3 2 1 1 389 510 561 450
629 3 2 1 1 269 281 270 153
630 3 2 1 1 307 135 134 401
631 3 2 1 1 609 552 505 522
632 3 2 1 1 614 554 443 482
633 3 2 1 1 863 848 815 854
634 3 2 1 1 558 483 363 419
635 3 2 1 1 20 21 198 147
636 3 2 1 1 567 651 696 586
637 3 2 1 1 207 336 228 271
638 3 2 1 1 330 400 454 221
639 3 2 1 1 561 510 451 513
640 3 2 1 1 338 391 482 443
641 3 2 1 1 270 97 98 153
642 3 2 1 1 611 560 509 556
643 3 2 1 1 15 16 199 148
644 3 2 1 1 199 327 217 148
645 3 2 1 1 272 223 391 338
646 3 2 1 1 798 733 704 744
647 3 2 1 1 98 99 269 153
648 3 2 1 1 653 695 718 734
649 3 2 1 1 270 203 96 97
650 3 2 1 1 338 443 361 306
651 3 2 1 1 106 161 201 105
652 3 2 1 1 223 333 357 391
653 3 2 1 1 477 400 394 447
654 3 2 1 1 272 94 95 158
655 3 2 1 1 389 333 158 203
656 3 2 1 1 612 534 418 474
657 3 2 1 1 403 458 355 282
658 3 2 1 1 451 281 269 397
659 3 2 1 1 460 335 225 366
660 3 2 1 1 115 155 194 114
661 3 2 1 1 870 864 859 860
662 3 2 1 1 556 582 654 611
663 3 2 1 1 652 526 560 611
664 3 2 1 1 405 279 358 480
665 3 2 1 1 474 615 566 612
666 3 2 1 1 301 455 451 397
667 3 2 1 1 451 455 359 513
668 3 2 1 1 272 205 93 94
669 3 2 1 1 273 91 92 162
670 3 2 1 1 201 161 271 228
671 3 2 1 1 480 605 527 405
672 3 2 1 1 695 653 583 565
673 3 2 1 1 478 453 399 484
674 3 2 1 1 734 667 583 653
675 3 2 1 1 610 516 386 479
676 3 2 1 1 306 361 366 225
677 3 2 1 1 569 515 571 658
678 3 2 1 1 773 771 734 718
679 3 2 1 1 271 107 108 207
680 3 2 1 1 335 273 162 225
681 3 2 1 1 605 480 517 569
682 3 2 1 1 614 482 418 534
683 3 2 1 1 272 158 333 223
684 3 2 1 1 740 757 787 809
685 3 2 1 1 273 206 90 91
686 3 2 1 1 95 96 203 158
687 3 2 1 1 840 867 811 850
688 3 2 1 1 854 859 864 863
689 3 2 1 1 274 88 89 174
690 3 2 1 1 570 618 534 612
691 3 2 1 1 364 514 567 420
692 3 2 1 1 305 173 278 230
693 3 2 1 1 278 110 111 209
694 3 2 1 1 613 659 678 701
695 3 2 1 1 343 208 88 274
696 3 2 1 1 92 93 205 162
697 3 2 1 1 288 358 279 233
698 3 2 1 1 361 512 461 366
699 3 2 1 1 515 569 517 421
700 3 2 1 1 157 139 138 276
701 3 2 1 1 113 114 194 204
702 3 2 1 1 447 394 360 390
703 3 2 1 1 206 308 231 174
704 3 2 1 1 397 334 328 301
705 3 2 1 1 109 173 207 108
706 3 2 1 1 89 90 206 174
707 3 2 1 1 843 816 853 868
708 3 2 1 1 701 656 533 613
709 3 2 1 1 806 772 710 769
710 3 2 1 1 230 278 209 277
711 3 2 1 1 619 527 605 702
712 3 2 1 1 231 343 274 174
713 3 2 1 1 112 113 204 211
714 3 2 1 1 563 617 630 659
715 3 2 1 1 402 122 121 275
716 3 2 1 1 276 138 137 229
717 3 2 1 1 340 136 135 307
718 3 2 1 1 6 121 209 111
719 3 2 1 1 483 124 123 363
720 3 2 1 1 739 697 584 655
721 3 2 1 1 700 126 125 564
722 3 2 1 1 584 128 127 655
723 3 2 1 1 617 129 128 584
724 3 2 1 1 518 132 131 481
725 3 2 1 1 667 737 660 583
726 3 2 1 1 449 402 275 339
727 3 2 1 1 563 130 129 617
728 3 2 1 1 401 134 133 459
729 3 2 1 1 187 202 288 233
730 3 2 1 1 656 701 719 742
731 3 2 1 1 571 703 743 658
732 3 2 1 1 743 703 736 756
733 3 2 1 1 386 516 419 449
734 3 2 1 1 480 358 457 517
735 3 2 1 1 742 698 585 656
736 3 2 1 1 697 739 778 757
737 3 2 1 1 667 778 739 737
738 3 2 1 1 612 566 519 570
739 3 2 1 1 757 740 630 697
740 3 2 1 1 738 774 784 747
741 3 2 1 1 698 742 755 775
742 3 2 1 1 457 362 421 517
743 3 2 1 1 285 140 139 157
744 3 2 1 1 660 558 565 583
745 3 2 1 1 775 741 629 698
746 3 2 1 1 341 462 484 399
747 3 2 1 1 741 775 780 776
748 3 2 1 1 566 484 462 519
749 3 2 1 1 807 774 738 708
750 3 2 1 1 843 784 836 858
751 3 2 1 1 807 835 840 856
752 3 2 1 1 560 511 477 509
753 3 2 1 1 809 777 678 740
754 3 2 1 1 708 677 741 776
755 3 2 1 1 784 774 807 836
756 3 2 1 1 835 807 708 776
757 3 2 1 1 737 739 655 700
758 3 2 1 1 867 840 835 818
759 3 2 1 1 833 808 719 777
760 3 2 1 1 835 776 780 818
761 3 2 1 1 839 837 755 808
762 3 2 1 1 866 857 780 837
763 3 2 1 1 837 780 775 755
764 3 2 1 1 738 699 677 708
765 3 2 1 1 121 122 277 209
766 3 2 1 1 449 419 363 402
767 3 2 1 1 808 755 742 719
768 3 2 1 1 459 518 533 568
769 3 2 1 1 420 567 586 468
770 3 2 1 1 229 340 364 403
771 3 2 1 1 341 277 122 123
772 3 2 1 1 456 364 340 307
773 3 2 1 1 459 133 132 518
774 3 2 1 1 458 403 364 420
775 3 2 1 1 362 342 282 355
776 3 2 1 1 737 700 564 660
777 3 2 1 1 658 743 704 702
778 3 2 1 1 777 719 701 678
779 3 2 1 1 741 677 657 629
780 3 2 1 1 342 362 285 157
781 3 2 1 1 83 4 210 463
782 3 2 1 1 403 282 276 229
783 3 2 1 1 569 658 702 605
784 3 2 1 1 461 512 131 132
785 3 2 1 1 210 232 285 365
786 3 2 1 1 740 678 659 630
787 3 2 1 1 698 629 616 585
788 3 2 1 1 450 561 615 474
789 3 2 1 1 135 136 343 231
790 3 2 1 1 208 343 136 137
791 3 2 1 1 697 630 617 584
792 3 2 1 1 656 585 568 533
793 3 2 1 1 558 660 564 483
794 3 2 1 1 613 533 518 481
795 3 2 1 1 736 703 571 661
796 3 2 1 1 124 125 519 462
797 3 2 1 1 125 126 570 519
798 3 2 1 1 126 127 618 570
799 3 2 1 1 534 618 127 128
800 3 2 1 1 460 134 135 404
801 3 2 1 1 462 341 123 124
802 3 2 1 1 366 461 132 133
803 3 2 1 1 661 571 515 562
804 3 2 1 1 562 458 420 468
805 3 2 1 1 780 857 867 818
806 3 2 1 1 86 140 141 85
807 3 2 1 1 112 211 121 6
808 3 2 1 1 339 275 121 211
809 3 2 1 1 124 483 564 125
810 3 2 1 1 512 554 130 131
811 3 2 1 1 129 130 554 614
812 3 2 1 1 285 232 141 140
$EndElements
