$MeshFormat
2.2 0 8
$EndMeshFormat
$Nodes
561
1 0 0 0
2 0 0 500
3 0 0 1600
4 800 0 1600
5 800 0 500
6 800 0 0
7 450 0 500
8 350 0 500
9 350 0 450
10 450 0 450
11 450 0 550
12 350 0 550
13 0 0 50
14 0 0 100
15 0 0 150
16 0 0 200
17 0 0 250
18 0 0 300
19 0 0 350
20 0 0 400
21 0 0 450
22 0 0 550
23 0 0 600
24 0 0 650
25 0 0 700
26 0 0 750
27 0 0 800
28 0 0 850
29 0 0 900
30 0 0 950
31 0 0 1000
32 0 0 1050
33 0 0 1100
34 0 0 1150
35 0 0 1200
36 0 0 1250
37 0 0 1300
38 0 0 1350
39 0 0 1400
40 0 0 1450
41 0 0 1500
42 0 0 1550
43 50 0 1600
44 100 0 1600
45 150 0 1600
46 200 0 1600
47 250 0 1600
48 300 0 1600
49 350 0 1600
50 400 0 1600
51 450 0 1600
52 500 0 1600
53 550 0 1600
54 600 0 1600
55 650 0 1600
56 700 0 1600
57 750 0 1600
58 800 0 1550
59 800 0 1500
60 800 0 1450
61 800 0 1400
62 800 0 1350
63 800 0 1300
64 800 0 1250
65 800 0 1200
66 800 0 1150
67 800 0 1100
68 800 0 1050
69 800 0 1000
70 800 0 950
71 800 0 900
72 800 0 850
73 800 0 800
74 800 0 750
75 800 0 700
76 800 0 650
77 800 0 600
78 800 0 550
79 800 0 450
80 800 0 400
81 800 0 350
82 800 0 300
83 800 0 250
84 800 0 200
85 800 0 150
86 800 0 100
87 800 0 50
88 750 0 0
89 700 0 0
90 650 0 0
91 600 0 0
92 550 0 0
93 500 0 0
94 450 0 0
95 400 0 0
96 350 0 0
97 300 0 0
98 250 0 0
99 200 0 0
100 150 0 0
101 100 0 0
102 50 0 0
103 750 0 500
104 700 0 500
105 650 0 500
106 600 0 500
107 550 0 500
108 500 0 500
109 400 0 500
110 300 0 500
111 250 0 500
112 200 0 500
113 150 0 500
114 100 0 500
115 50 0 500
116 400 0 450
117 400 0 550
118 50 0 1000
119 750 0 1150
120 350 0 50
121 550 0 50
122 399.999721069992 0 599.999931881569
123 400 0 1550
124 750 0 800
125 350 0 400
126 50 0 800
127 50 0 1250
128 750 0 1300
129 750 0 250
130 50 0 250
131 200 0 1550
132 550 0 1550
133 750 0 1400
134 200 0 50
135 50 0 700
136 750 0 650
137 50 0 150
138 50 0 1450
139 650 0 1550
140 50 0 400
141 750 0 100
142 750 0 350
143 750 0 900
144 500 0 450
145 499.999926197508 0 549.999981976446
146 750 0 550
147 300 0 450
148 300 0 550
149 50 0 50
150 50 0 550
151 50 0 1550
152 750 0 1550
153 750 0 450
154 50 0 350
155 750 0 700
156 700 0 50
157 50 0 450
158 750 0 950
159 750 0 1000
160 750 0 150
161 750 0 50
162 400 0 400
163 50 0 650
164 50 0 950
165 50 0 1100
166 50 0 1200
167 50 0 1350
168 100 0 1550
169 250 0 1550
170 300 0 1550
171 450 0 1550
172 750 0 1450
173 750 0 1200
174 750 0 1050
175 650 0 50
176 500 0 50
177 450 0 50
178 300 0 50
179 150 0 50
180 50 0 900
181 700 0 950
182 700 0 1150
183 100 0 1000
184 400 0 1500
185 350 0 350
186 550 0 100
187 100 0 1250
188 350 0 100
189 699.9999858907 0 649.999996554321
190 100 0 700
191 200 0 1500
192 699.999997286673 0 549.999999337369
193 100 0 400
194 700 0 1400
195 200 0 100
196 750 0 850
197 749.999998948586 0 599.999999743231
198 50 0 300
199 750 0 750
200 700 0 100
201 750 0 1100
202 50 0 200
203 50 0 750
204 100 0 550
205 100 0 450
206 50 0 600
207 750 0 200
208 450 0 400
209 449.997552588091 0 599.999382803913
210 349.999965133749 0 599.999991485196
211 50 0 100
212 50 0 1050
213 50 0 1150
214 50 0 1300
215 50 0 1400
216 50 0 1500
217 150 0 1550
218 350 0 1550
219 500 0 1550
220 600 0 1550
221 700 0 1550
222 750 0 1500
223 750 0 1350
224 750 0 1250
225 750 0 400
226 750 0 300
227 600 0 50
228 400 0 50
229 250 0 50
230 100 0 50
231 700 0 450
232 550 0 450
233 549.999868064478 0 549.999967779584
234 250 0 450
235 250 0 550
236 300 0 400
237 700 0 1000
238 100 0 950
239 250 0 1500
240 500 0 100
241 50 0 850
242 650.001205640307 0 950.002734048768
243 149.999990466416 0 999.999991576325
244 399.942343023246 0 649.978035546532
245 700 0 250
246 300 0 350
247 550 0 150
248 100 0 300
249 200 0 1450
250 700 0 800
251 650 0 100
252 599.99988732062 0 549.999972482191
253 200 0 450
254 100 0 650
255 200 0 550
256 700 0 1100
257 600 0 450
258 500 0 1500
259 150 0 100
260 100 0 1450
261 700 0 1450
262 100 0 1150
263 300 0 1500
264 450 0 100
265 300 0 100
266 100 0 850
267 100 0 750
268 700 0 850
269 700.000075352519 0 900.000170878048
270 600 0 100
271 150 0 400
272 649.999952948155 0 549.999988509311
273 699.999988468361 0 699.99999718382
274 100 0 600
275 150 0 550
276 150 0 450
277 100 0 350
278 700 0 150
279 699.999985057028 0 599.999996350727
280 100 0 150
281 450 0 1500
282 700 0 1050
283 400 0 100
284 650 0 450
285 700 0 1350
286 700 0 1250
287 100 0 250
288 550 0 1500
289 600 0 1500
290 650 0 1500
291 700 0 350
292 500 0 400
293 499.994135572525 0 599.998489321122
294 299.999980387053 0 599.999985456947
295 400 0 350
296 99.999999404151 0 1049.99999947352
297 100 0 1200
298 100 0 1300
299 100 0 1400
300 100 0 1500
301 700 0 1200
302 150 0 1500
303 250 0 100
304 100 0 100
305 700 0 1500
306 700 0 400
307 250 0 400
308 350 0 1500
309 100 0 900
310 150 0 1200
311 650.000002118253 0 1100.00001268299
312 400 0 1450
313 400 0 150
314 300 0 150
315 649.998078888777 0 649.999637409609
316 300 0 300
317 149.99999988083 0 699.999999894704
318 500 0 1450
319 650 0 1350
320 150 0 300
321 600 0 150
322 149.999997780462 0 1049.99999803886
323 250 0 350
324 650 0 1200
325 149.999950425363 0 899.999956196892
326 650.003413236159 0 900.003351561426
327 649.999375104753 0 800.001439813174
328 699.999956789265 0 750.00008897367
329 200 0 400
330 650 0 150
331 149.999999985104 0 649.999999986838
332 249.999967039051 0 599.999971224714
333 100 0 800
334 350 0 300
335 700 0 200
336 450 0 350
337 349.955745948972 0 649.979389110863
338 500 0 150
339 649.999179844842 0 599.99983168297
340 700 0 1300
341 99.9999997867977 0 1099.99999981162
342 100 0 1350
343 150 0 1300
344 650 0 1400
345 150 0 150
346 250 0 150
347 100 0 200
348 700 0 300
349 550 0 400
350 549.99374622994 0 599.998387964759
351 650.000322283568 0 1000.00136907817
352 250 0 1450
353 150 0 1450
354 199.999980624285 0 599.999982923565
355 600 0 400
356 650 0 1450
357 150 0 350
358 149.999997576174 0 599.9999978638
359 650 0 400
360 550 0 1450
361 449.927696118586 0 649.976766814287
362 149.999959243928 0 949.999963988791
363 300 0 1450
364 600.036540074048 0 949.919308190755
365 200.000012476294 0 1049.99990501851
366 449.717920673289 0 699.825173268063
367 550 0 200
368 550 0 350
369 649.995918271058 0 750.001373559804
370 650 0 200
371 150 0 1350
372 149.999999986675 0 1149.99999998823
373 650 0 1250
374 150 0 250
375 300 0 250
376 500 0 1400
377 199.999846731905 0 949.998814297415
378 250 0 1400
379 250 0 300
380 649.995556661573 0 700.000198572686
381 650.003606660749 0 850.002347916215
382 599.996379968916 0 599.99911625068
383 399.741716539912 0 699.789479185545
384 450 0 150
385 149.999960435626 0 849.99996504175
386 149.9999854017 0 799.999987101248
387 149.999996968618 0 749.999997321535
388 450 0 1450
389 400 0 300
390 150.00000043677 0 1099.99999376059
391 650.000000264782 0 1150.00000158537
392 150 0 1250
393 350 0 150
394 200 0 150
395 650 0 250
396 150 0 1400
397 600 0 1450
398 650 0 300
399 650 0 350
400 500 0 350
401 299.979435442339 0 649.988586453923
402 350 0 1450
403 300 0 200
404 199.999051037821 0 699.998831994051
405 650 0 1300
406 600 0 1350
407 150 0 200
408 650.000061732762 0 1050.00029955003
409 499.932774760166 0 649.973290213357
410 199.999724190251 0 649.999715137488
411 200 0 300
412 200 0 350
413 600.000293721061 0 1099.99830405274
414 449.691934882606 0 749.243323625746
415 199.998367604876 0 849.996409640827
416 600.020217736714 0 799.923199830454
417 200 0 1250
418 600.000000016549 0 1200.00000009909
419 600.074548458262 0 899.859151075172
420 599.973618145028 0 699.987439884196
421 499.814864385934 0 699.862826777544
422 500 0 300
423 500 0 200
424 350 0 250
425 450 0 200
426 600.015323688529 0 999.950188087925
427 250 0 250
428 549.959418283815 0 649.981300091783
429 199.999173274912 0 899.99665982365
430 200.000007338041 0 1099.99996211769
431 199.999960168633 0 999.99966277686
432 199.999999999167 0 1199.99999999926
433 400 0 1400
434 599.982895839375 0 649.993501281374
435 450 0 300
436 450 0 1400
437 199.99737270462 0 799.99555237968
438 199.997411527525 0 749.996128322946
439 200 0 1400
440 400 0 200
441 600 0 200
442 349.846628655335 0 699.84276437573
443 200 0 1350
444 600 0 1400
445 250 0 200
446 600 0 350
447 550 0 1400
448 600 0 250
449 600.000000002069 0 1250.00000001239
450 350 0 200
451 200 0 200
452 249.985504828418 0 699.985677023619
453 600.000000000259 0 1300.00000000155
454 249.992567532531 0 649.994684513732
455 300 0 1400
456 200 0 250
457 550.191812876932 0 949.413366304802
458 250.006070274669 0 949.977930081995
459 249.999999999948 0 1249.99999999995
460 550.000002747606 0 1199.9999830306
461 450 0 1350
462 499.825563403544 0 749.516623859217
463 250.002705465775 0 849.938797876608
464 599.979595471851 0 749.957603665182
465 600.07864595473 0 849.837743476614
466 550 0 250
467 250.000766999031 0 1049.99736794725
468 550 0 300
469 200.00000152913 0 1149.99999236255
470 399.798549822999 0 749.194942145866
471 350 0 1400
472 600.004320156791 0 1049.98173950819
473 549.917812968098 0 699.919232701821
474 500 0 250
475 199.999999999997 0 1300
476 500 0 1350
477 250 0 1350
478 400 0 250
479 600.000081450413 0 1149.99951695041
480 600 0 300
481 299.935774927577 0 699.92639619145
482 550.000000000016 0 1350.0000000001
483 550.00000034476 0 1249.99999788666
484 249.991462339682 0 799.931857775729
485 249.978949533965 0 749.950097642079
486 500.252510694418 0 798.783493002815
487 550.36606719432 0 899.093219474865
488 300.080622659905 0 849.634611507697
489 550.015284209208 0 1049.92319645614
490 500.00003457504 0 1199.99979266663
491 299.933868084344 0 749.799540261779
492 550.138207976542 0 799.493765979127
493 250.013623300738 0 899.937511386707
494 250.000013502456 0 1149.99992976099
495 250.000134465129 0 1099.9994953948
496 450.39206226324 0 798.104571414968
497 250.003402743714 0 999.988805741147
498 250.000006655116 0 1199.99996386122
499 349.901945188345 0 749.478297064893
500 550.000200242773 0 1149.99878063276
501 450 0 250
502 550.075707695295 0 999.699199153864
503 400 0 1350
504 550.000000043259 0 1299.99999973681
505 249.999999999993 0 1299.99999999999
506 450.000000967283 0 1299.99999426378
507 549.962624790016 0 749.73655006671
508 300 0 1350
509 300.052743875343 0 949.836601669529
510 300.001087642359 0 1099.99489114695
511 500.41542333491 0 948.546502823488
512 300.000002364022 0 1249.99998648835
513 500.765173547617 0 847.990720409421
514 500.000644437565 0 1149.99621296734
515 400.000000604552 0 1299.99999641486
516 550.326841323994 0 849.124272983926
517 300.006380725607 0 1049.97472149866
518 300.100299483878 0 899.675169236829
519 300.000036006195 0 1199.9997975547
520 550.003936124211 0 1099.97940074227
521 400.36034763897 0 798.308200176788
522 350.000000037784 0 1349.99999977593
523 350.166267261879 0 799.059711108627
524 500.000000631508 0 1299.99999624989
525 500.000009515214 0 1249.99994323374
526 300.033832414702 0 799.630795770914
527 500.153893051976 0 999.365168381632
528 300.00000029786 0 1299.99999829704
529 450.485805975493 0 948.259413170158
530 350.005866499174 0 1099.97236833446
531 350.182944134483 0 949.415229785845
532 500.00675700774 0 1099.96276868788
533 400.781370321587 0 847.765372823772
534 450.002053296103 0 1149.98879003849
535 500.715548208142 0 897.94284284685
536 350.32589653532 0 848.904139636566
537 500.044813167604 0 1049.79521831278
538 450.860027028693 0 847.464860213652
539 300.02882631195 0 999.902349367955
540 300.000579845641 0 1149.99721659304
541 350.000010564172 0 1249.9999389494
542 400.00001637247 0 1249.99990388322
543 450.000430270162 0 1199.99763961472
544 450.000065379113 0 1249.99963636284
545 350.000002609077 0 1299.99998482788
546 450.053709556332 0 1049.75129996715
547 350.081874685539 0 999.699774896069
548 400.000435093247 0 1199.99764875969
549 450.740690632877 0 897.695749800206
550 350.029739919003 0 1049.87817270032
551 450.190927364532 0 999.246195527689
552 350.000249017446 0 1199.9986744528
553 350.001740714266 0 1149.99140799637
554 400.559409368232 0 898.301385847671
555 350.302030447297 0 899.069071997669
556 450.015529275135 0 1099.92529822058
557 400.334969154849 0 948.863301619019
558 400.15906495185 0 999.404214516893
559 400.058830753304 0 1049.75984359785
560 400.017763309513 0 1099.92131071014
561 400.004540005822 0 1149.97860160418
$EndNodes
$Elements
512
1 3 2 1 1 437 438 387 386
2 3 2 1 1 264 240 176 177
3 3 2 1 1 403 450 393 314
4 3 2 1 1 391 479 418 324
5 3 2 1 1 413 479 391 311
6 3 2 1 1 179 259 195 134
7 3 2 1 1 388 436 433 312
8 3 2 1 1 238 309 180 164
9 3 2 1 1 180 309 266 241
10 3 2 1 1 393 450 440 313
11 3 2 1 1 415 437 386 385
12 3 2 1 1 385 325 429 415
13 3 2 1 1 326 242 181 269
14 3 2 1 1 351 237 181 242
15 3 2 1 1 201 256 182 119
16 3 2 1 1 311 391 182 256
17 3 2 1 1 182 391 324 301
18 3 2 1 1 212 296 183 118
19 3 2 1 1 407 451 394 345
20 3 2 1 1 394 451 445 346
21 3 2 1 1 441 448 395 370
22 3 2 1 1 237 282 174 159
23 3 2 1 1 173 301 286 224
24 3 2 1 1 182 301 173 119
25 3 2 1 1 398 480 446 399
26 3 2 1 1 448 480 398 395
27 3 2 1 1 194 261 172 133
28 3 2 1 1 401 481 442 337
29 3 2 1 1 308 263 170 218
30 3 2 1 1 170 263 239 169
31 3 2 1 1 402 471 455 363
32 3 2 1 1 169 239 191 131
33 3 2 1 1 424 450 403 375
34 3 2 1 1 188 393 313 283
35 3 2 1 1 195 303 229 134
36 3 2 1 1 319 344 194 285
37 3 2 1 1 422 400 368 468
38 3 2 1 1 223 285 194 133
39 3 2 1 1 192 272 339 279
40 3 2 1 1 439 443 371 396
41 3 2 1 1 191 302 217 131
42 3 2 1 1 372 469 430 390
43 3 2 1 1 432 469 372 310
44 3 2 1 1 380 273 189 315
45 3 2 1 1 339 315 189 279
46 3 2 1 1 418 449 373 324
47 3 2 1 1 411 456 374 320
48 3 2 1 1 374 456 451 407
49 3 2 1 1 314 393 188 265
50 3 2 1 1 168 300 216 151
51 3 2 1 1 375 427 379 316
52 3 2 1 1 188 283 228 120
53 3 2 1 1 343 392 187 298
54 3 2 1 1 187 392 310 297
55 3 2 1 1 376 436 388 318
56 3 2 1 1 214 298 187 127
57 3 2 1 1 186 240 338 247
58 3 2 1 1 376 476 461 436
59 3 2 1 1 227 121 186 270
60 3 2 1 1 185 334 316 246
61 3 2 1 1 378 477 443 439
62 3 2 1 1 379 427 456 411
63 3 2 1 1 184 308 218 123
64 3 2 1 1 428 434 382 350
65 3 2 1 1 383 470 414 366
66 3 2 1 1 438 485 452 404
67 3 2 1 1 478 440 450 424
68 3 2 1 1 132 288 258 219
69 3 2 1 1 460 483 449 418
70 3 2 1 1 447 482 476 376
71 3 2 1 1 446 480 468 368
72 3 2 1 1 267 190 135 203
73 3 2 1 1 442 499 470 383
74 3 2 1 1 136 189 273 155
75 3 2 1 1 453 504 482 406
76 3 2 1 1 437 484 485 438
77 3 2 1 1 436 461 503 433
78 3 2 1 1 139 290 289 220
79 3 2 1 1 478 389 435 501
80 3 2 1 1 435 422 474 501
81 3 2 1 1 434 428 473 420
82 3 2 1 1 522 471 433 503
83 3 2 1 1 432 498 494 469
84 3 2 1 1 483 504 453 449
85 3 2 1 1 455 508 477 378
86 3 2 1 1 286 340 128 224
87 3 2 1 1 128 340 285 223
88 3 2 1 1 475 505 459 417
89 3 2 1 1 479 500 460 418
90 3 2 1 1 295 185 125 162
91 3 2 1 1 246 236 125 185
92 3 2 1 1 461 506 515 503
93 3 2 1 1 473 421 462 507
94 3 2 1 1 125 236 147 9
95 3 2 1 1 281 184 123 171
96 3 2 1 1 518 488 463 493
97 3 2 1 1 480 448 466 468
98 3 2 1 1 240 186 121 176
99 3 2 1 1 181 237 159 158
100 3 2 1 1 405 453 406 319
101 3 2 1 1 299 342 167 215
102 3 2 1 1 167 342 298 214
103 3 2 1 1 449 453 405 373
104 3 2 1 1 406 482 447 444
105 3 2 1 1 166 297 262 213
106 3 2 1 1 187 297 166 127
107 3 2 1 1 165 341 296 212
108 3 2 1 1 262 341 165 213
109 3 2 1 1 183 238 164 118
110 3 2 1 1 190 254 163 135
111 3 2 1 1 489 520 413 472
112 3 2 1 1 500 479 413 520
113 3 2 1 1 161 156 200 141
114 3 2 1 1 200 278 160 141
115 3 2 1 1 367 466 448 441
116 3 2 1 1 484 437 415 463
117 3 2 1 1 251 200 156 175
118 3 2 1 1 328 199 155 273
119 3 2 1 1 428 409 421 473
120 3 2 1 1 466 474 422 468
121 3 2 1 1 150 206 274 204
122 3 2 1 1 148 294 210 12
123 3 2 1 1 478 501 425 440
124 3 2 1 1 463 415 429 493
125 3 2 1 1 209 293 145 11
126 3 2 1 1 430 495 467 365
127 3 2 1 1 494 495 430 469
128 3 2 1 1 144 292 208 10
129 3 2 1 1 467 497 431 365
130 3 2 1 1 459 498 432 417
131 3 2 1 1 254 190 317 331
132 3 2 1 1 378 439 249 352
133 3 2 1 1 249 439 396 353
134 3 2 1 1 251 330 278 200
135 3 2 1 1 315 434 420 380
136 3 2 1 1 252 382 339 272
137 3 2 1 1 252 233 350 382
138 3 2 1 1 382 434 315 339
139 3 2 1 1 307 329 253 234
140 3 2 1 1 438 404 317 387
141 3 2 1 1 313 440 425 384
142 3 2 1 1 408 311 256 282
143 3 2 1 1 312 433 471 402
144 3 2 1 1 257 355 349 232
145 3 2 1 1 472 413 311 408
146 3 2 1 1 280 345 259 304
147 3 2 1 1 310 392 417 432
148 3 2 1 1 302 353 260 300
149 3 2 1 1 249 353 302 191
150 3 2 1 1 340 405 319 285
151 3 2 1 1 247 321 270 186
152 3 2 1 1 367 441 321 247
153 3 2 1 1 246 323 307 236
154 3 2 1 1 321 441 370 330
155 3 2 1 1 370 395 245 335
156 3 2 1 1 341 390 322 296
157 3 2 1 1 442 383 244 337
158 3 2 1 1 323 412 329 307
159 3 2 1 1 244 383 366 361
160 3 2 1 1 365 431 243 322
161 3 2 1 1 243 183 296 322
162 3 2 1 1 333 126 241 266
163 3 2 1 1 330 370 335 278
164 3 2 1 1 361 409 293 209
165 3 2 1 1 324 373 286 301
166 3 2 1 1 284 359 355 257
167 3 2 1 1 306 359 284 231
168 3 2 1 1 320 374 287 248
169 3 2 1 1 351 408 282 237
170 3 2 1 1 318 388 281 258
171 3 2 1 1 312 184 281 388
172 3 2 1 1 288 360 318 258
173 3 2 1 1 356 397 289 290
174 3 2 1 1 289 397 360 288
175 3 2 1 1 291 399 359 306
176 3 2 1 1 398 399 291 348
177 3 2 1 1 331 358 274 254
178 3 2 1 1 292 400 336 208
179 3 2 1 1 292 349 368 400
180 3 2 1 1 363 352 239 263
181 3 2 1 1 294 401 337 210
182 3 2 1 1 270 321 330 251
183 3 2 1 1 295 389 334 185
184 3 2 1 1 317 190 267 387
185 3 2 1 1 353 396 299 260
186 3 2 1 1 299 396 371 342
187 3 2 1 1 303 346 314 265
188 3 2 1 1 338 240 264 384
189 3 2 1 1 313 384 264 283
190 3 2 1 1 402 363 263 308
191 3 2 1 1 312 402 308 184
192 3 2 1 1 310 372 262 297
193 3 2 1 1 344 356 261 194
194 3 2 1 1 309 325 385 266
195 3 2 1 1 261 356 290 305
196 3 2 1 1 409 428 350 293
197 3 2 1 1 368 349 355 446
198 3 2 1 1 244 361 209 122
199 3 2 1 1 210 337 244 122
200 3 2 1 1 455 378 352 363
201 3 2 1 1 211 304 230 149
202 3 2 1 1 280 304 211 137
203 3 2 1 1 351 426 472 408
204 3 2 1 1 260 299 215 138
205 3 2 1 1 208 336 295 162
206 3 2 1 1 216 300 260 138
207 3 2 1 1 217 302 300 168
208 3 2 1 1 395 398 348 245
209 3 2 1 1 219 258 281 171
210 3 2 1 1 220 289 288 132
211 3 2 1 1 374 407 347 287
212 3 2 1 1 222 305 221 152
213 3 2 1 1 221 305 290 139
214 3 2 1 1 399 446 355 359
215 3 2 1 1 278 335 207 160
216 3 2 1 1 207 335 245 129
217 3 2 1 1 206 163 254 274
218 3 2 1 1 360 447 376 318
219 3 2 1 1 444 447 360 397
220 3 2 1 1 203 126 333 267
221 3 2 1 1 287 347 202 130
222 3 2 1 1 202 347 280 137
223 3 2 1 1 282 256 201 174
224 3 2 1 1 390 430 365 322
225 3 2 1 1 409 361 366 421
226 3 2 1 1 195 394 346 303
227 3 2 1 1 345 394 195 259
228 3 2 1 1 366 414 462 421
229 3 2 1 1 342 371 343 298
230 3 2 1 1 239 352 249 191
231 3 2 1 1 325 309 238 362
232 3 2 1 1 238 183 243 362
233 3 2 1 1 333 266 385 386
234 3 2 1 1 333 386 387 267
235 3 2 1 1 334 424 375 316
236 3 2 1 1 478 424 334 389
237 3 2 1 1 235 332 294 148
238 3 2 1 1 336 435 389 295
239 3 2 1 1 422 435 336 400
240 3 2 1 1 236 307 234 147
241 3 2 1 1 293 350 233 145
242 3 2 1 1 373 405 340 286
243 3 2 1 1 232 349 292 144
244 3 2 1 1 372 390 341 262
245 3 2 1 1 109 116 9 8
246 3 2 1 1 343 475 417 392
247 3 2 1 1 230 304 259 179
248 3 2 1 1 443 475 343 371
249 3 2 1 1 229 303 265 178
250 3 2 1 1 344 444 397 356
251 3 2 1 1 228 283 264 177
252 3 2 1 1 406 444 344 319
253 3 2 1 1 227 270 251 175
254 3 2 1 1 347 407 345 280
255 3 2 1 1 226 348 291 142
256 3 2 1 1 245 348 226 129
257 3 2 1 1 291 306 225 142
258 3 2 1 1 225 306 231 153
259 3 2 1 1 346 445 403 314
260 3 2 1 1 261 305 222 172
261 3 2 1 1 508 528 505 477
262 3 2 1 1 47 169 131 46
263 3 2 1 1 88 89 156 161
264 3 2 1 1 505 528 512 459
265 3 2 1 1 542 548 552 541
266 3 2 1 1 107 233 252 106
267 3 2 1 1 500 514 490 460
268 3 2 1 1 27 126 203 26
269 3 2 1 1 241 126 27 28
270 3 2 1 1 28 29 180 241
271 3 2 1 1 26 203 135 25
272 3 2 1 1 45 217 168 44
273 3 2 1 1 156 89 90 175
274 3 2 1 1 164 180 29 30
275 3 2 1 1 118 164 30 31
276 3 2 1 1 131 217 45 46
277 3 2 1 1 121 227 91 92
278 3 2 1 1 534 543 490 514
279 3 2 1 1 32 212 118 31
280 3 2 1 1 108 145 233 107
281 3 2 1 1 530 553 561 560
282 3 2 1 1 111 235 148 110
283 3 2 1 1 147 234 111 110
284 3 2 1 1 129 226 82 83
285 3 2 1 1 82 226 142 81
286 3 2 1 1 123 218 49 50
287 3 2 1 1 545 528 508 522
288 3 2 1 1 544 543 548 542
289 3 2 1 1 218 170 48 49
290 3 2 1 1 165 212 32 33
291 3 2 1 1 232 144 108 107
292 3 2 1 1 506 544 542 515
293 3 2 1 1 135 163 24 25
294 3 2 1 1 543 534 561 548
295 3 2 1 1 48 170 169 47
296 3 2 1 1 525 544 506 524
297 3 2 1 1 88 161 87 6
298 3 2 1 1 87 161 141 86
299 3 2 1 1 167 214 37 38
300 3 2 1 1 39 215 167 38
301 3 2 1 1 138 215 39 40
302 3 2 1 1 134 229 98 99
303 3 2 1 1 98 229 178 97
304 3 2 1 1 539 517 550 547
305 3 2 1 1 127 166 35 36
306 3 2 1 1 153 231 104 103
307 3 2 1 1 512 519 498 459
308 3 2 1 1 103 104 192 146
309 3 2 1 1 166 213 34 35
310 3 2 1 1 494 540 510 495
311 3 2 1 1 517 539 497 467
312 3 2 1 1 519 540 494 498
313 3 2 1 1 100 179 134 99
314 3 2 1 1 495 510 517 467
315 3 2 1 1 101 230 179 100
316 3 2 1 1 149 230 101 102
317 3 2 1 1 37 214 127 36
318 3 2 1 1 34 213 165 33
319 3 2 1 1 175 90 91 227
320 3 2 1 1 44 168 151 43
321 3 2 1 1 93 176 121 92
322 3 2 1 1 42 151 216 41
323 3 2 1 1 177 176 93 94
324 3 2 1 1 43 151 42 3
325 3 2 1 1 106 257 232 107
326 3 2 1 1 41 216 138 40
327 3 2 1 1 163 206 23 24
328 3 2 1 1 228 177 94 95
329 3 2 1 1 560 561 534 556
330 3 2 1 1 120 228 95 96
331 3 2 1 1 105 284 257 106
332 3 2 1 1 105 106 252 272
333 3 2 1 1 231 284 105 104
334 3 2 1 1 105 272 192 104
335 3 2 1 1 97 178 120 96
336 3 2 1 1 133 172 60 61
337 3 2 1 1 122 209 11 117
338 3 2 1 1 67 201 119 66
339 3 2 1 1 12 117 109 8
340 3 2 1 1 110 148 12 8
341 3 2 1 1 201 67 68 174
342 3 2 1 1 69 70 158 159
343 3 2 1 1 210 122 117 12
344 3 2 1 1 485 491 481 452
345 3 2 1 1 208 162 116 10
346 3 2 1 1 518 555 536 488
347 3 2 1 1 543 544 525 490
348 3 2 1 1 174 68 69 159
349 3 2 1 1 13 149 102 1
350 3 2 1 1 481 491 499 442
351 3 2 1 1 172 222 59 60
352 3 2 1 1 471 522 508 455
353 3 2 1 1 70 71 143 158
354 3 2 1 1 150 22 23 206
355 3 2 1 1 64 224 128 63
356 3 2 1 1 553 540 519 552
357 3 2 1 1 9 147 110 8
358 3 2 1 1 265 188 120 178
359 3 2 1 1 5 103 146 78
360 3 2 1 1 162 125 9 116
361 3 2 1 1 108 144 10 7
362 3 2 1 1 10 116 109 7
363 3 2 1 1 173 224 64 65
364 3 2 1 1 119 173 65 66
365 3 2 1 1 59 222 152 58
366 3 2 1 1 62 223 133 61
367 3 2 1 1 519 512 541 552
368 3 2 1 1 11 145 108 7
369 3 2 1 1 477 505 475 443
370 3 2 1 1 504 524 476 482
371 3 2 1 1 476 524 506 461
372 3 2 1 1 128 223 62 63
373 3 2 1 1 109 117 11 7
374 3 2 1 1 22 150 115 2
375 3 2 1 1 488 526 484 463
376 3 2 1 1 484 526 491 485
377 3 2 1 1 136 76 77 197
378 3 2 1 1 545 541 512 528
379 3 2 1 1 115 157 21 2
380 3 2 1 1 78 146 197 77
381 3 2 1 1 139 220 54 55
382 3 2 1 1 79 153 103 5
383 3 2 1 1 54 220 132 53
384 3 2 1 1 58 152 57 4
385 3 2 1 1 142 225 80 81
386 3 2 1 1 530 510 540 553
387 3 2 1 1 80 225 153 79
388 3 2 1 1 112 255 235 111
389 3 2 1 1 52 219 171 51
390 3 2 1 1 234 253 112 111
391 3 2 1 1 132 219 52 53
392 3 2 1 1 171 123 50 51
393 3 2 1 1 515 545 522 503
394 3 2 1 1 530 550 517 510
395 3 2 1 1 124 196 72 73
396 3 2 1 1 490 525 483 460
397 3 2 1 1 152 221 56 57
398 3 2 1 1 14 211 149 13
399 3 2 1 1 541 545 515 542
400 3 2 1 1 553 552 548 561
401 3 2 1 1 130 202 16 17
402 3 2 1 1 483 525 524 504
403 3 2 1 1 556 534 514 532
404 3 2 1 1 18 198 130 17
405 3 2 1 1 75 76 136 155
406 3 2 1 1 56 221 139 55
407 3 2 1 1 199 74 75 155
408 3 2 1 1 198 18 19 154
409 3 2 1 1 520 532 514 500
410 3 2 1 1 509 518 493 458
411 3 2 1 1 403 445 427 375
412 3 2 1 1 379 411 412 323
413 3 2 1 1 357 412 411 320
414 3 2 1 1 114 204 275 113
415 3 2 1 1 316 379 323 246
416 3 2 1 1 451 456 427 445
417 3 2 1 1 458 493 429 377
418 3 2 1 1 431 497 458 377
419 3 2 1 1 253 329 271 276
420 3 2 1 1 332 235 255 354
421 3 2 1 1 113 112 253 276
422 3 2 1 1 255 112 113 275
423 3 2 1 1 243 431 377 362
424 3 2 1 1 325 362 377 429
425 3 2 1 1 114 205 157 115
426 3 2 1 1 16 202 137 15
427 3 2 1 1 276 205 114 113
428 3 2 1 1 137 211 14 15
429 3 2 1 1 115 150 204 114
430 3 2 1 1 481 401 454 452
431 3 2 1 1 454 401 294 332
432 3 2 1 1 404 410 331 317
433 3 2 1 1 539 509 458 497
434 3 2 1 1 274 358 275 204
435 3 2 1 1 410 404 452 454
436 3 2 1 1 275 358 354 255
437 3 2 1 1 329 412 357 271
438 3 2 1 1 320 248 277 357
439 3 2 1 1 277 248 198 154
440 3 2 1 1 141 160 85 86
441 3 2 1 1 539 547 531 509
442 3 2 1 1 537 532 520 489
443 3 2 1 1 160 207 84 85
444 3 2 1 1 384 425 423 338
445 3 2 1 1 84 207 129 83
446 3 2 1 1 531 555 518 509
447 3 2 1 1 21 157 140 20
448 3 2 1 1 277 193 271 357
449 3 2 1 1 20 140 154 19
450 3 2 1 1 550 530 560 559
451 3 2 1 1 410 454 332 354
452 3 2 1 1 276 271 193 205
453 3 2 1 1 248 287 130 198
454 3 2 1 1 354 358 331 410
455 3 2 1 1 425 501 474 423
456 3 2 1 1 511 527 502 457
457 3 2 1 1 466 367 423 474
458 3 2 1 1 157 205 193 140
459 3 2 1 1 537 527 551 546
460 3 2 1 1 423 367 247 338
461 3 2 1 1 143 269 181 158
462 3 2 1 1 279 189 136 197
463 3 2 1 1 196 124 250 268
464 3 2 1 1 546 556 532 537
465 3 2 1 1 328 273 380 369
466 3 2 1 1 558 559 546 551
467 3 2 1 1 327 416 465 381
468 3 2 1 1 193 277 154 140
469 3 2 1 1 547 550 559 558
470 3 2 1 1 74 199 124 73
471 3 2 1 1 364 242 326 419
472 3 2 1 1 416 492 516 465
473 3 2 1 1 420 473 507 464
474 3 2 1 1 143 71 72 196
475 3 2 1 1 559 560 556 546
476 3 2 1 1 472 426 502 489
477 3 2 1 1 364 457 502 426
478 3 2 1 1 197 146 192 279
479 3 2 1 1 250 328 369 327
480 3 2 1 1 527 537 489 502
481 3 2 1 1 511 457 487 535
482 3 2 1 1 419 487 457 364
483 3 2 1 1 516 487 419 465
484 3 2 1 1 327 381 268 250
485 3 2 1 1 465 419 326 381
486 3 2 1 1 557 531 547 558
487 3 2 1 1 380 420 464 369
488 3 2 1 1 364 426 351 242
489 3 2 1 1 199 328 250 124
490 3 2 1 1 268 269 143 196
491 3 2 1 1 416 327 369 464
492 3 2 1 1 269 268 381 326
493 3 2 1 1 507 462 486 492
494 3 2 1 1 464 507 492 416
495 3 2 1 1 536 523 526 488
496 3 2 1 1 491 526 523 499
497 3 2 1 1 529 551 527 511
498 3 2 1 1 555 531 557 554
499 3 2 1 1 558 551 529 557
500 3 2 1 1 486 513 516 492
501 3 2 1 1 523 536 533 521
502 3 2 1 1 513 535 487 516
503 3 2 1 1 521 470 499 523
504 3 2 1 1 536 555 554 533
505 3 2 1 1 414 496 486 462
506 3 2 1 1 496 414 470 521
507 3 2 1 1 554 557 529 549
508 3 2 1 1 529 511 535 549
509 3 2 1 1 513 538 549 535
510 3 2 1 1 533 554 549 538
511 3 2 1 1 496 521 533 538
512 3 2 1 1 538 513 486 496
$EndElements
