$MeshFormat
2.2 0 8
$EndMeshFormat
$Nodes
861
1 0 0 0
2 0 200 0
3 0 200 50
4 0 200 100
5 0 0 100
6 0 0 50
7 0 5 0
8 0 10 0
9 0 15 0
10 0 20 0
11 0 25 0
12 0 30 0
13 0 35 0
14 0 40 0
15 0 45 0
16 0 50 0
17 0 55 0
18 0 60 0
19 0 65 0
20 0 70 0
21 0 75 0
22 0 80 0
23 0 85 0
24 0 90 0
25 0 95 0
26 0 100 0
27 0 105 0
28 0 110 0
29 0 115 0
30 0 120 0
31 0 125 0
32 0 130 0
33 0 135 0
34 0 140 0
35 0 145 0
36 0 150 0
37 0 155 0
38 0 160 0
39 0 165 0
40 0 170 0
41 0 175 0
42 0 180 0
43 0 185 0
44 0 190 0
45 0 195 0
46 0 200 5
47 0 200 10
48 0 200 15
49 0 200 20
50 0 200 25
51 0 200 30
52 0 200 35
53 0 200 40
54 0 200 45
55 0 200 55
56 0 200 60
57 0 200 65
58 0 200 70
59 0 200 75
60 0 200 80
61 0 200 85
62 0 200 90
63 0 200 95
64 0 195 100
65 0 190 100
66 0 185 100
67 0 180 100
68 0 175 100
69 0 170 100
70 0 165 100
71 0 160 100
72 0 155 100
73 0 150 100
74 0 145 100
75 0 140 100
76 0 135 100
77 0 130 100
78 0 125 100
79 0 120 100
80 0 115 100
81 0 110 100
82 0 105 100
83 0 100 100
84 0 95 100
85 0 90 100
86 0 85 100
87 0 80 100
88 0 75 100
89 0 70 100
90 0 65 100
91 0 60 100
92 0 55 100
93 0 50 100
94 0 45 100
95 0 40 100
96 0 35 100
97 0 30 100
98 0 25 100
99 0 20 100
100 0 15 100
101 0 10 100
102 0 4.99999999999997 100
103 0 0 95
104 0 0 90
105 0 0 85
106 0 0 80
107 0 0 75
108 0 0 70
109 0 0 65
110 0 0 60
111 0 0 55
112 0 0 45
113 0 0 40
114 0 0 35
115 0 0 30
116 0 0 25
117 0 0 20
118 0 0 15
119 0 0 10
120 0 0 5
121 0 5 50
122 0 10 50
123 0 15 50
124 0 20 50
125 0 25 50
126 0 30 50
127 0 35 50
128 0 40 50
129 0 45 50
130 0 50 50
131 0 55 50
132 0 60 50
133 0 65 50
134 0 70 50
135 0 75 50
136 0 80 50
137 0 85 50
138 0 90 50
139 0 95 50
140 0 100 50
141 0 105 50
142 0 110 50
143 0 115 50
144 0 120 50
145 0 125 50
146 0 130 50
147 0 135 50
148 0 140 50
149 0 145 50
150 0 150 50
151 0 155 50
152 0 160 50
153 0 165 50
154 0 170 50
155 0 175 50
156 0 180 50
157 0 185 50
158 0 190 50
159 0 195 50
160 0 145 4.99999999999999
161 0 170 4.99999999999999
162 0 55 95
163 0 30 95
164 0 85 5
165 0 120 5
166 0 175 95
167 0 155 95
168 0 115 95
169 0 80 95
170 0 60 5
171 0 30 5
172 0 100 5
173 0 140 95
174 0 100 95
175 0 195 25
176 0 5 75
177 0 5 20
178 0 195 75
179 0 180 5
180 0 20 95
181 0 195 15
182 0 10 5
183 0 5 85
184 0 195 40
185 0 5 35
186 0 195 65
187 0 195 90
188 0 5 60
189 0 70 5
190 0 130 95
191 0 40 5
192 0 130 5
193 0 70 95
194 0 155 5
195 0 45 95
196 0 195 5
197 0 195 55
198 0 5 95
199 0 5 40
200 0 160 4.99999999999999
201 0 40 95
202 0 195 45
203 0 105 5
204 0 135 5
205 0 95 95
206 0 65 95
207 0 75 5
208 0 195 35
209 0 5 10
210 0 15 5
211 0 20 5
212 0 50 5
213 0 90 5
214 0 110 5
215 0 185 5
216 0 195 85
217 0 185 95
218 0 170 95
219 0 125 95
220 0 110 95
221 0 90 95
222 0 15 95
223 0 5 65
224 0 5 5
225 0 195 95
226 0 165 95
227 0 5 55
228 0 5 45
229 0 5 25
230 0 150 95
231 0 155 9.99999999999998
232 0 45 90
233 0 70 90
234 0 85 10
235 0 130 9.99999999999999
236 0 170 90
237 0 130 90
238 0 155 90
239 0 95 90
240 0 115 90
241 0 105 10
242 0 10 20
243 0 180 9.99999999999999
244 0 20 90
245 0 190 40
246 0 10 35
247 0 10 60
248 0 15 10
249 0 165 4.99999999999999
250 0 35 95
251 0 140 5
252 0 60 95
253 0 80 5
254 0 150 4.99999999999999
255 0 120 95
256 0 50 95
257 0 65 5
258 0 125 5
259 0 190 5
260 0 195 10
261 0 75 95
262 0 10 95
263 0 5 90
264 0 115 5
265 0 175 5
266 0 195 60
267 0 85 95
268 0 25 95
269 0 190 55
270 0 190 45
271 0 135 95
272 0 55 5
273 0 195 20
274 0 5 15
275 0 25 5
276 0 35 5
277 0 45 5
278 0 195 30
279 0 195 70
280 0 195 80
281 0 180 95
282 0 5 80
283 0 5 70
284 0 10 10
285 0 10 45
286 0 95 5
287 0 190 95
288 0 160 95
289 0 105 95
290 0 5 30
291 0 190 90
292 0 10 55
293 0 145 95
294 0 65 10
295 0 30 10
296 0 45 10
297 0 190 75
298 0 145 9.99999999999997
299 0 55 90
300 0 65 90
301 0 135 9.99999999999999
302 0 120 9.99999999999999
303 0 125 90
304 0 80 90
305 0 170 9.99999999999999
306 0 160 9.99999999999998
307 0 190 25
308 0 10 75
309 0 30 90
310 0 40 90
311 0 185 10
312 0 15 90
313 0 110 10
314 0 90 90
315 0 190 35
316 0 165 90
317 0 10 25
318 0 150 9.99999999999998
319 0 50 90
320 0 80 10
321 0 125 9.99999999999999
322 0 120 90
323 0 75 90
324 0 100 10
325 0 100 90
326 0 190 15
327 0 190 10
328 0 10 90
329 0 60 10
330 0 140 90
331 0 150 90
332 0 175 9.99999999999999
333 0 185 45
334 0 25 90
335 0 175 90
336 0 10 80
337 0 190 85
338 0 135 90
339 0 15 45
340 0 15 55
341 0 190 70
342 0 35 10
343 0 20 10
344 0 50 10
345 0 185 90
346 0 10 65
347 0 160 90
348 0 10 15
349 0 190 65
350 0 185 55
351 0 10 40
352 0 90 9.99999999999999
353 0 10 30
354 0 190 60
355 0 110 90
356 0 150 14.9999999999999
357 0 50 85.0000000000001
358 0 85 15
359 0 120 15
360 0 70 85
361 0 120 85
362 0 170 85
363 0 155 85
364 0 65 15
365 0 95 85
366 0 105 15
367 0 30 15
368 0 50 15
369 0 140 85
370 0 170 15
371 0 30 85
372 0 15 75
373 0 185 75
374 0 15 30
375 0 20 85
376 0 70 10
377 0 185 85
378 0 130 15
379 0 15 40
380 0 60 90
381 0 165 9.99999999999998
382 0 35 90
383 0 140 9.99999999999998
384 0 180 45
385 0 115 85
386 0 95 10
387 0 105 90
388 0 80 85
389 0 15 85
390 0 180 55
391 0 75 10
392 0 185 15
393 0 185 40
394 0 115 10
395 0 85 90
396 0 190 20
397 0 145 90
398 0 10 70
399 0 130 85
400 0 190 30
401 0 165 85
402 0 20 55
403 0 40 10
404 0 15 15
405 0 15 20
406 0 175 15
407 0 15 60
408 0 25 10
409 0 190 80
410 0 180 90
411 0 185 70
412 0 20 45
413 0 185 60
414 0 155 14.9999999999999
415 0 10 85
416 0 55 10
417 0 45 85
418 0 150 19.9999999999999
419 0 50 80.0000000000001
420 0 115 80
421 0 180 40
422 0 170 80
423 0 170 20
424 0 185 30
425 0 20 60
426 0 115 15
427 0 160 14.9999999999999
428 0 40 85
429 0 90 85
430 0 180 60
431 0 185 20
432 0 15 70
433 0 180 75
434 0 150 85
435 0 180 85
436 0 20 15
437 0 55 15
438 0 20 40
439 0 90 15
440 0 100 15
441 0 165 15
442 0 110 15
443 0 60 85
444 0 55 85
445 0 145 14.9999999999999
446 0 135 15
447 0 180 15
448 0 35 85
449 0 85 85
450 0 110 85
451 0 100 85
452 0 75 15
453 0 20 80
454 0 175 55
455 0 80 15
456 0 175 45
457 0 15 65
458 0 70 15
459 0 25 85
460 0 185 35
461 0 175 85
462 0 145 85
463 0 185 65
464 0 125 85
465 0 135 85
466 0 35 15
467 0 45 15
468 0 15 35
469 0 15 25
470 0 125 15
471 0 60 15
472 0 15 80
473 0 160 85
474 0 25 15
475 0 185 80
476 0 25 55
477 0 25 45
478 0 65 85
479 0 75 85
480 0 85 20
481 0 120 20
482 0 60 80.0000000000001
483 0 80 80
484 0 65 20
485 0 150 80
486 0 105 20
487 0 130 80
488 0 50 20
489 0 95 80
490 0 35 80.0000000000001
491 0 25 40
492 0 175 40
493 0 25 60
494 0 175 60
495 0 30 20
496 0 110 80
497 0 145 19.9999999999999
498 0 25 80
499 0 180 20
500 0 20 25
501 0 130 19.9999999999999
502 0 45 80.0000000000001
503 0 55 80.0000000000001
504 0 75 20
505 0 20 70
506 0 180 35
507 0 115 20
508 0 140 15
509 0 160 19.9999999999999
510 0 155 19.9999999999999
511 0 170 45
512 0 20 75
513 0 85 80
514 0 20 65
515 0 185 25
516 0 175 80
517 0 160 80
518 0 165 80
519 0 175 20
520 0 140 80
521 0 180 80
522 0 170 55
523 0 20 35
524 0 40 15
525 0 30 55
526 0 30 45
527 0 120 80
528 0 95 15
529 0 20 20
530 0 180 70
531 0 180 65
532 0 60 20
533 0 75 80
534 0 105 85
535 0 70 80
536 0 165 19.9999999999999
537 0 150 24.9999999999999
538 0 50 75.0000000000001
539 0 120 24.9999999999999
540 0 75 75.0000000000001
541 0 115 75
542 0 65 25
543 0 160 24.9999999999999
544 0 30 60
545 0 170 60
546 0 30 40
547 0 175 35
548 0 170 75
549 0 170 25
550 0 135 19.9999999999999
551 0 105 80
552 0 180 25
553 0 140 19.9999999999999
554 0 55 75.0000000000001
555 0 80 20
556 0 30 80.0000000000001
557 0 25 70
558 0 25 65
559 0 180 30
560 0 165 45
561 0 100 80
562 0 175 70
563 0 70 20
564 0 25 75
565 0 175 65
566 0 80 75.0000000000001
567 0 145 80
568 0 155 80
569 0 175 75
570 0 165 75
571 0 20 30
572 0 35 20
573 0 25 20
574 0 25 35
575 0 35 55
576 0 90 80
577 0 55 20
578 0 100 20
579 0 35 45
580 0 90 20
581 0 110 20
582 0 125 80
583 0 45 20
584 0 125 20
585 0 135 80
586 0 40 80.0000000000001
587 0 170 40
588 0 65 80
589 0 165 55
590 0 140 24.9999999999999
591 0 85 24.9999999999999
592 0 125 75
593 0 150 75
594 0 140 75
595 0 105 25
596 0 105 75
597 0 95 75
598 0 50 25
599 0 50 70.0000000000001
600 0 75 70.0000000000001
601 0 165 40
602 0 35 75.0000000000001
603 0 35 60
604 0 165 60
605 0 30 35
606 0 30 25
607 0 45 75.0000000000001
608 0 175 30
609 0 145 24.9999999999999
610 0 80 24.9999999999999
611 0 70 25
612 0 30 65
613 0 125 24.9999999999999
614 0 155 24.9999999999999
615 0 110 75
616 0 175 25
617 0 30 75.0000000000001
618 0 170 65
619 0 170 70
620 0 160 75
621 0 25 30
622 0 60 25
623 0 40 20
624 0 130 75
625 0 25 25
626 0 40 45
627 0 85 75
628 0 40 55
629 0 60 75.0000000000001
630 0 70 75.0000000000001
631 0 120 75
632 0 95 20
633 0 35 40
634 0 160 45
635 0 115 25
636 0 160 55
637 0 130 24.9999999999999
638 0 165 24.9999999999999
639 0 170 35
640 0 150 29.9999999999999
641 0 85 29.9999999999999
642 0 125 29.9999999999999
643 0 120 70
644 0 65 30
645 0 110 70
646 0 160 60
647 0 35 35
648 0 160 40
649 0 160 29.9999999999999
650 0 40 60
651 0 45 70.0000000000001
652 0 165 70
653 0 70 70.0000000000001
654 0 170 30
655 0 165 35
656 0 145 29.9999999999999
657 0 30 70
658 0 165 65
659 0 155 75
660 0 75 25
661 0 30 30
662 0 55 25
663 0 135 75
664 0 35 25
665 0 40 75.0000000000001
666 0 45 55
667 0 120 29.9999999999999
668 0 55 70.0000000000001
669 0 35 65
670 0 80 70.0000000000001
671 0 100 25
672 0 45 45
673 0 40 40
674 0 155 45
675 0 145 75
676 0 90 75
677 0 155 55
678 0 100 75
679 0 110 25
680 0 135 24.9999999999999
681 0 90 25
682 0 125 70
683 0 45 25
684 0 65 75.0000000000001
685 0 90 70
686 0 110 30
687 0 140 70
688 0 125 34.9999999999999
689 0 75 65.0000000000001
690 0 120 65
691 0 155 60
692 0 50 30
693 0 150 34.9999999999999
694 0 150 45
695 0 50 65.0000000000001
696 0 90 30
697 0 155 70
698 0 45 40
699 0 65 70.0000000000001
700 0 155 40
701 0 160 35
702 0 45 60
703 0 35 70
704 0 40 65
705 0 160 65
706 0 40 70.0000000000001
707 0 155 29.9999999999999
708 0 130 29.9999999999999
709 0 115 70.0000000000001
710 0 165 30
711 0 150 55
712 0 75 29.9999999999999
713 0 80 29.9999999999999
714 0 35 30
715 0 60 30
716 0 50 45
717 0 60 70.0000000000001
718 0 95 70
719 0 40 35
720 0 50 55
721 0 105 30
722 0 70 29.9999999999999
723 0 130 70
724 0 85 70
725 0 95 25
726 0 160 70
727 0 150 70
728 0 105 70
729 0 140 29.9999999999999
730 0 115 30
731 0 40 25
732 0 85 34.9999999999999
733 0 130 34.9999999999999
734 0 60 65.0000000000001
735 0 75 34.9999999999999
736 0 85 65
737 0 65 35
738 0 115 35
739 0 110 65
740 0 150 60
741 0 95 30
742 0 50 40
743 0 150 40
744 0 155 35
745 0 50 60
746 0 155 65
747 0 45 65
748 0 100 30
749 0 115 65
750 0 135 70
751 0 45 35
752 0 55 55
753 0 55 30
754 0 40 30
755 0 145 45
756 0 90 65
757 0 145 55
758 0 65 65.0000000000001
759 0 145 34.9999999999999
760 0 125 65
761 0 45 30
762 0 55 45
763 0 100 70
764 0 110 35
765 0 70 65.0000000000001
766 0 145 70
767 0 80 65.0000000000001
768 0 135 29.9999999999999
769 0 120 34.9999999999999
770 0 55 65.0000000000001
771 0 95 35
772 0 130 39.9999999999999
773 0 140 45
774 0 120 39.9999999999999
775 0 75 60.0000000000001
776 0 115 60
777 0 85 60
778 0 145 60
779 0 55 40
780 0 105 35
781 0 145 40
782 0 55 60.0000000000001
783 0 140 65
784 0 90 35
785 0 150 65
786 0 60 35
787 0 80 34.9999999999999
788 0 60 55
789 0 60 60.0000000000001
790 0 50 35
791 0 60 45
792 0 130 65
793 0 115 40
794 0 105 65
795 0 140 34.9999999999999
796 0 135 34.9999999999999
797 0 120 60
798 0 95 65
799 0 65 60
800 0 70 35
801 0 140 55
802 0 85 40
803 0 75 40
804 0 135 55
805 0 65 45
806 0 135 39.9999999999999
807 0 140 40
808 0 120 45
809 0 135 45
810 0 65 55
811 0 115 55
812 0 90 40
813 0 65 40
814 0 110 60
815 0 140 60
816 0 145 65
817 0 135 65
818 0 55 35
819 0 90 60
820 0 70 60
821 0 80 60
822 0 60 40
823 0 100 35
824 0 125 60
825 0 100 65
826 0 110 40
827 0 125 39.9999999999999
828 0 130 45
829 0 85 45
830 0 130 60
831 0 75 55
832 0 80 55
833 0 70 45
834 0 115 45
835 0 120 55
836 0 85 55
837 0 110 55
838 0 130 55
839 0 70 55
840 0 135 60
841 0 80 40
842 0 95 60
843 0 95 40
844 0 125 45
845 0 105 40
846 0 105 60
847 0 70 40
848 0 80 45
849 0 90 45
850 0 125 55
851 0 75 45
852 0 90 55
853 0 110 45
854 0 105 55
855 0 100 60
856 0 100 40
857 0 95 45
858 0 95 55
859 0 105 45
860 0 100 55
861 0 100 45
$EndNodes
$Elements
800
1 3 2 1 1 743 781 759 693
2 3 2 1 1 693 744 700 743
3 3 2 1 1 549 616 608 654
4 3 2 1 1 710 655 701 649
5 3 2 1 1 806 807 773 809
6 3 2 1 1 701 744 707 649
7 3 2 1 1 752 788 789 782
8 3 2 1 1 706 703 669 704
9 3 2 1 1 829 848 841 802
10 3 2 1 1 828 809 147 146
11 3 2 1 1 695 747 702 745
12 3 2 1 1 788 810 799 789
13 3 2 1 1 508 553 550 446
14 3 2 1 1 608 616 552 559
15 3 2 1 1 444 503 482 443
16 3 2 1 1 839 134 135 831
17 3 2 1 1 135 136 832 831
18 3 2 1 1 808 144 143 834
19 3 2 1 1 691 746 785 740
20 3 2 1 1 849 829 802 812
21 3 2 1 1 838 850 145 146
22 3 2 1 1 832 136 137 836
23 3 2 1 1 669 703 657 612
24 3 2 1 1 249 381 306 200
25 3 2 1 1 250 382 310 201
26 3 2 1 1 510 414 427 509
27 3 2 1 1 813 847 833 805
28 3 2 1 1 427 306 381 441
29 3 2 1 1 811 837 142 143
30 3 2 1 1 707 640 537 614
31 3 2 1 1 705 726 697 746
32 3 2 1 1 851 848 136 135
33 3 2 1 1 318 356 445 298
34 3 2 1 1 812 843 857 849
35 3 2 1 1 657 557 558 612
36 3 2 1 1 637 708 642 613
37 3 2 1 1 298 160 254 318
38 3 2 1 1 251 383 301 204
39 3 2 1 1 443 380 299 444
40 3 2 1 1 556 617 602 490
41 3 2 1 1 383 508 446 301
42 3 2 1 1 299 162 256 319
43 3 2 1 1 252 380 300 206
44 3 2 1 1 602 617 657 703
45 3 2 1 1 509 543 614 510
46 3 2 1 1 836 137 138 852
47 3 2 1 1 319 357 444 299
48 3 2 1 1 382 448 428 310
49 3 2 1 1 395 449 429 314
50 3 2 1 1 356 418 497 445
51 3 2 1 1 439 358 234 352
52 3 2 1 1 618 619 652 658
53 3 2 1 1 807 806 796 795
54 3 2 1 1 746 691 646 705
55 3 2 1 1 707 744 693 640
56 3 2 1 1 814 776 749 739
57 3 2 1 1 852 138 139 858
58 3 2 1 1 834 143 142 853
59 3 2 1 1 453 512 564 498
60 3 2 1 1 557 657 617 564
61 3 2 1 1 726 620 659 697
62 3 2 1 1 255 322 303 219
63 3 2 1 1 829 849 138 137
64 3 2 1 1 452 504 563 458
65 3 2 1 1 519 406 447 499
66 3 2 1 1 830 838 804 840
67 3 2 1 1 853 142 141 859
68 3 2 1 1 569 562 530 433
69 3 2 1 1 564 512 505 557
70 3 2 1 1 599 538 607 651
71 3 2 1 1 619 618 565 562
72 3 2 1 1 778 816 783 815
73 3 2 1 1 814 846 854 837
74 3 2 1 1 859 141 140 861
75 3 2 1 1 565 531 530 562
76 3 2 1 1 786 822 779 818
77 3 2 1 1 565 494 430 531
78 3 2 1 1 484 563 611 542
79 3 2 1 1 696 681 725 741
80 3 2 1 1 828 146 145 844
81 3 2 1 1 490 448 371 556
82 3 2 1 1 492 587 639 547
83 3 2 1 1 839 810 133 134
84 3 2 1 1 641 591 681 696
85 3 2 1 1 735 712 713 787
86 3 2 1 1 837 854 141 142
87 3 2 1 1 447 392 431 499
88 3 2 1 1 496 450 534 551
89 3 2 1 1 557 505 514 558
90 3 2 1 1 498 564 617 556
91 3 2 1 1 601 655 639 587
92 3 2 1 1 662 753 692 598
93 3 2 1 1 781 807 795 759
94 3 2 1 1 858 139 140 860
95 3 2 1 1 854 860 140 141
96 3 2 1 1 787 841 803 735
97 3 2 1 1 829 137 136 848
98 3 2 1 1 252 162 299 380
99 3 2 1 1 321 302 165 258
100 3 2 1 1 389 312 328 415
101 3 2 1 1 426 442 313 394
102 3 2 1 1 548 570 652 619
103 3 2 1 1 744 701 648 700
104 3 2 1 1 848 851 803 841
105 3 2 1 1 36 37 194 254
106 3 2 1 1 159 158 270 202
107 3 2 1 1 334 268 180 244
108 3 2 1 1 215 259 327 311
109 3 2 1 1 222 262 328 312
110 3 2 1 1 370 441 381 305
111 3 2 1 1 406 519 423 370
112 3 2 1 1 514 505 432 457
113 3 2 1 1 555 504 452 455
114 3 2 1 1 714 754 719 647
115 3 2 1 1 818 779 742 790
116 3 2 1 1 441 370 423 536
117 3 2 1 1 93 94 195 256
118 3 2 1 1 567 462 369 520
119 3 2 1 1 391 452 458 376
120 3 2 1 1 497 553 508 445
121 3 2 1 1 814 837 811 776
122 3 2 1 1 323 304 169 261
123 3 2 1 1 259 196 260 327
124 3 2 1 1 262 198 263 328
125 3 2 1 1 835 850 824 797
126 3 2 1 1 45 196 259 44
127 3 2 1 1 102 198 262 101
128 3 2 1 1 249 161 305 381
129 3 2 1 1 266 354 269 197
130 3 2 1 1 447 406 332 243
131 3 2 1 1 388 449 395 304
132 3 2 1 1 333 384 421 393
133 3 2 1 1 421 506 460 393
134 3 2 1 1 577 532 622 662
135 3 2 1 1 600 540 630 653
136 3 2 1 1 608 547 639 654
137 3 2 1 1 692 790 751 761
138 3 2 1 1 833 847 803 851
139 3 2 1 1 39 40 161 249
140 3 2 1 1 260 196 46 47
141 3 2 1 1 3 159 202 54
142 3 2 1 1 55 56 266 197
143 3 2 1 1 263 198 103 104
144 3 2 1 1 153 154 522 589
145 3 2 1 1 159 197 269 158
146 3 2 1 1 305 161 265 332
147 3 2 1 1 250 163 309 382
148 3 2 1 1 329 170 257 294
149 3 2 1 1 455 358 480 555
150 3 2 1 1 389 472 453 375
151 3 2 1 1 567 675 593 485
152 3 2 1 1 586 490 602 665
153 3 2 1 1 661 621 625 606
154 3 2 1 1 684 629 717 699
155 3 2 1 1 768 796 733 708
156 3 2 1 1 34 35 160 251
157 3 2 1 1 96 97 163 250
158 3 2 1 1 150 694 674 151
159 3 2 1 1 155 156 390 454
160 3 2 1 1 329 416 272 170
161 3 2 1 1 264 394 313 214
162 3 2 1 1 457 432 398 346
163 3 2 1 1 487 585 465 399
164 3 2 1 1 659 620 517 568
165 3 2 1 1 709 643 631 541
166 3 2 1 1 816 766 687 783
167 3 2 1 1 155 456 384 156
168 3 2 1 1 309 163 268 334
169 3 2 1 1 267 395 314 221
170 3 2 1 1 440 366 486 578
171 3 2 1 1 551 534 451 561
172 3 2 1 1 663 750 687 594
173 3 2 1 1 745 782 770 695
174 3 2 1 1 192 258 31 32
175 3 2 1 1 88 89 193 261
176 3 2 1 1 91 92 162 252
177 3 2 1 1 148 773 755 149
178 3 2 1 1 150 151 677 711
179 3 2 1 1 320 253 164 234
180 3 2 1 1 202 270 245 184
181 3 2 1 1 376 189 207 391
182 3 2 1 1 359 426 394 302
183 3 2 1 1 416 437 368 344
184 3 2 1 1 296 344 368 467
185 3 2 1 1 352 386 528 439
186 3 2 1 1 430 413 463 531
187 3 2 1 1 552 515 424 559
188 3 2 1 1 515 552 499 431
189 3 2 1 1 567 485 434 462
190 3 2 1 1 424 460 506 559
191 3 2 1 1 565 618 545 494
192 3 2 1 1 668 599 695 770
193 3 2 1 1 622 715 753 662
194 3 2 1 1 857 843 856 861
195 3 2 1 1 200 194 37 38
196 3 2 1 1 249 200 38 39
197 3 2 1 1 2 46 196 45
198 3 2 1 1 3 55 197 159
199 3 2 1 1 5 103 198 102
200 3 2 1 1 148 149 757 801
201 3 2 1 1 153 560 511 154
202 3 2 1 1 451 365 489 561
203 3 2 1 1 435 521 475 377
204 3 2 1 1 372 512 453 472
205 3 2 1 1 692 753 818 790
206 3 2 1 1 41 42 179 265
207 3 2 1 1 201 195 94 95
208 3 2 1 1 250 201 95 96
209 3 2 1 1 98 99 180 268
210 3 2 1 1 851 135 134 833
211 3 2 1 1 811 143 144 835
212 3 2 1 1 364 294 376 458
213 3 2 1 1 568 363 434 485
214 3 2 1 1 331 397 462 434
215 3 2 1 1 537 609 497 418
216 3 2 1 1 644 715 622 542
217 3 2 1 1 683 598 692 761
218 3 2 1 1 709 749 690 643
219 3 2 1 1 749 709 645 739
220 3 2 1 1 653 699 758 765
221 3 2 1 1 754 761 751 719
222 3 2 1 1 785 727 766 816
223 3 2 1 1 765 758 799 820
224 3 2 1 1 396 326 181 273
225 3 2 1 1 396 431 392 326
226 3 2 1 1 390 350 413 430
227 3 2 1 1 257 170 18 19
228 3 2 1 1 22 23 164 253
229 3 2 1 1 213 24 25 286
230 3 2 1 1 29 30 165 264
231 3 2 1 1 204 192 32 33
232 3 2 1 1 251 204 33 34
233 3 2 1 1 50 51 278 175
234 3 2 1 1 220 81 82 289
235 3 2 1 1 86 87 169 267
236 3 2 1 1 206 193 89 90
237 3 2 1 1 252 206 90 91
238 3 2 1 1 634 152 151 674
239 3 2 1 1 156 157 350 390
240 3 2 1 1 219 303 237 190
241 3 2 1 1 203 214 313 241
242 3 2 1 1 323 233 360 479
243 3 2 1 1 168 240 322 255
244 3 2 1 1 334 244 375 459
245 3 2 1 1 431 396 307 515
246 3 2 1 1 424 515 307 400
247 3 2 1 1 472 336 308 372
248 3 2 1 1 398 432 372 308
249 3 2 1 1 460 424 400 315
250 3 2 1 1 386 324 440 528
251 3 2 1 1 311 327 326 392
252 3 2 1 1 294 364 471 329
253 3 2 1 1 389 415 336 472
254 3 2 1 1 401 518 422 362
255 3 2 1 1 422 516 461 362
256 3 2 1 1 512 372 432 505
257 3 2 1 1 411 373 433 530
258 3 2 1 1 468 374 571 523
259 3 2 1 1 298 445 508 383
260 3 2 1 1 450 496 420 385
261 3 2 1 1 355 387 534 450
262 3 2 1 1 531 463 411 530
263 3 2 1 1 516 422 548 569
264 3 2 1 1 518 570 548 422
265 3 2 1 1 358 439 580 480
266 3 2 1 1 369 465 585 520
267 3 2 1 1 593 659 568 485
268 3 2 1 1 585 487 624 663
269 3 2 1 1 620 570 518 517
270 3 2 1 1 663 594 520 585
271 3 2 1 1 484 542 622 532
272 3 2 1 1 612 544 603 669
273 3 2 1 1 522 545 604 589
274 3 2 1 1 562 569 548 619
275 3 2 1 1 620 726 652 570
276 3 2 1 1 675 594 687 766
277 3 2 1 1 650 704 669 603
278 3 2 1 1 543 649 707 614
279 3 2 1 1 747 704 650 702
280 3 2 1 1 704 747 651 706
281 3 2 1 1 658 652 726 705
282 3 2 1 1 741 725 671 748
283 3 2 1 1 769 688 827 774
284 3 2 1 1 644 737 786 715
285 3 2 1 1 782 745 720 752
286 3 2 1 1 687 750 817 783
287 3 2 1 1 723 792 817 750
288 3 2 1 1 844 808 774 827
289 3 2 1 1 815 783 817 840
290 3 2 1 1 810 839 820 799
291 3 2 1 1 860 855 842 858
292 3 2 1 1 189 257 19 20
293 3 2 1 1 59 60 280 178
294 3 2 1 1 79 80 168 255
295 3 2 1 1 107 108 283 176
296 3 2 1 1 117 118 274 177
297 3 2 1 1 636 677 151 152
298 3 2 1 1 155 154 511 456
299 3 2 1 1 333 157 156 384
300 3 2 1 1 270 158 157 333
301 3 2 1 1 286 172 324 386
302 3 2 1 1 242 177 274 348
303 3 2 1 1 172 203 241 324
304 3 2 1 1 192 204 301 235
305 3 2 1 1 164 213 352 234
306 3 2 1 1 205 221 314 239
307 3 2 1 1 442 366 241 313
308 3 2 1 1 440 324 241 366
309 3 2 1 1 393 460 315 245
310 3 2 1 1 175 307 396 273
311 3 2 1 1 175 278 400 307
312 3 2 1 1 216 337 409 280
313 3 2 1 1 236 316 401 362
314 3 2 1 1 387 325 451 534
315 3 2 1 1 237 399 465 338
316 3 2 1 1 563 484 364 458
317 3 2 1 1 442 581 486 366
318 3 2 1 1 521 435 461 516
319 3 2 1 1 379 468 523 438
320 3 2 1 1 578 632 528 440
321 3 2 1 1 401 473 517 518
322 3 2 1 1 612 558 493 544
323 3 2 1 1 571 500 625 621
324 3 2 1 1 433 521 516 569
325 3 2 1 1 675 567 520 594
326 3 2 1 1 538 599 668 554
327 3 2 1 1 648 701 655 601
328 3 2 1 1 706 665 602 703
329 3 2 1 1 702 666 720 745
330 3 2 1 1 839 831 775 820
331 3 2 1 1 832 821 775 831
332 3 2 1 1 813 805 791 822
333 3 2 1 1 18 170 272 17
334 3 2 1 1 27 28 214 203
335 3 2 1 1 84 85 221 205
336 3 2 1 1 132 131 762 791
337 3 2 1 1 289 174 325 387
338 3 2 1 1 174 205 239 325
339 3 2 1 1 278 208 315 400
340 3 2 1 1 416 344 212 272
341 3 2 1 1 362 461 335 236
342 3 2 1 1 237 303 464 399
343 3 2 1 1 335 461 435 410
344 3 2 1 1 558 514 425 493
345 3 2 1 1 632 580 439 528
346 3 2 1 1 493 476 525 544
347 3 2 1 1 481 539 635 507
348 3 2 1 1 571 621 574 523
349 3 2 1 1 609 656 729 590
350 3 2 1 1 615 596 728 645
351 3 2 1 1 650 628 666 702
352 3 2 1 1 674 700 648 634
353 3 2 1 1 715 786 818 753
354 3 2 1 1 798 842 855 825
355 3 2 1 1 12 13 276 171
356 3 2 1 1 17 272 212 16
357 3 2 1 1 207 189 20 21
358 3 2 1 1 253 207 21 22
359 3 2 1 1 52 208 278 51
360 3 2 1 1 127 575 525 126
361 3 2 1 1 126 526 579 127
362 3 2 1 1 132 788 752 131
363 3 2 1 1 805 833 134 133
364 3 2 1 1 336 282 176 308
365 3 2 1 1 398 308 176 283
366 3 2 1 1 215 311 243 179
367 3 2 1 1 222 312 244 180
368 3 2 1 1 327 260 181 326
369 3 2 1 1 415 328 263 183
370 3 2 1 1 415 183 282 336
371 3 2 1 1 237 338 271 190
372 3 2 1 1 193 206 300 233
373 3 2 1 1 386 352 213 286
374 3 2 1 1 389 375 244 312
375 3 2 1 1 270 333 393 245
376 3 2 1 1 165 302 394 264
377 3 2 1 1 173 271 338 330
378 3 2 1 1 409 475 373 297
379 3 2 1 1 239 314 429 365
380 3 2 1 1 302 321 470 359
381 3 2 1 1 239 365 451 325
382 3 2 1 1 465 369 330 338
383 3 2 1 1 305 332 406 370
384 3 2 1 1 411 463 349 341
385 3 2 1 1 295 342 466 367
386 3 2 1 1 429 576 489 365
387 3 2 1 1 466 572 495 367
388 3 2 1 1 309 371 448 382
389 3 2 1 1 421 384 456 492
390 3 2 1 1 487 399 464 582
391 3 2 1 1 425 514 457 407
392 3 2 1 1 614 537 418 510
393 3 2 1 1 638 536 423 549
394 3 2 1 1 402 476 493 425
395 3 2 1 1 373 475 521 433
396 3 2 1 1 368 437 577 488
397 3 2 1 1 524 623 572 466
398 3 2 1 1 524 467 583 623
399 3 2 1 1 367 495 573 474
400 3 2 1 1 491 546 526 477
401 3 2 1 1 546 491 574 605
402 3 2 1 1 519 499 552 616
403 3 2 1 1 611 563 504 660
404 3 2 1 1 603 544 525 575
405 3 2 1 1 656 609 537 640
406 3 2 1 1 667 539 613 642
407 3 2 1 1 654 710 638 549
408 3 2 1 1 495 572 664 606
409 3 2 1 1 495 606 625 573
410 3 2 1 1 605 574 621 661
411 3 2 1 1 725 681 580 632
412 3 2 1 1 535 588 684 630
413 3 2 1 1 685 718 597 676
414 3 2 1 1 545 618 658 604
415 3 2 1 1 714 647 605 661
416 3 2 1 1 661 606 664 714
417 3 2 1 1 554 668 717 629
418 3 2 1 1 708 733 688 642
419 3 2 1 1 690 760 682 643
420 3 2 1 1 756 685 724 736
421 3 2 1 1 785 746 697 727
422 3 2 1 1 656 759 795 729
423 3 2 1 1 807 781 755 773
424 3 2 1 1 791 762 779 822
425 3 2 1 1 840 804 801 815
426 3 2 1 1 8 9 210 182
427 3 2 1 1 9 10 211 210
428 3 2 1 1 12 171 275 11
429 3 2 1 1 10 11 275 211
430 3 2 1 1 14 191 276 13
431 3 2 1 1 16 212 277 15
432 3 2 1 1 264 214 28 29
433 3 2 1 1 215 179 42 43
434 3 2 1 1 259 215 43 44
435 3 2 1 1 48 181 260 47
436 3 2 1 1 273 181 48 49
437 3 2 1 1 49 50 175 273
438 3 2 1 1 53 184 208 52
439 3 2 1 1 202 184 53 54
440 3 2 1 1 56 57 186 266
441 3 2 1 1 59 178 279 58
442 3 2 1 1 68 166 281 67
443 3 2 1 1 68 69 218 166
444 3 2 1 1 173 75 76 271
445 3 2 1 1 77 190 271 76
446 3 2 1 1 219 190 77 78
447 3 2 1 1 255 219 78 79
448 3 2 1 1 267 221 85 86
449 3 2 1 1 222 180 99 100
450 3 2 1 1 262 222 100 101
451 3 2 1 1 107 176 282 106
452 3 2 1 1 113 114 185 199
453 3 2 1 1 119 209 274 118
454 3 2 1 1 122 123 340 292
455 3 2 1 1 124 402 340 123
456 3 2 1 1 123 339 412 124
457 3 2 1 1 125 476 402 124
458 3 2 1 1 124 412 477 125
459 3 2 1 1 126 525 476 125
460 3 2 1 1 126 125 477 526
461 3 2 1 1 575 127 128 628
462 3 2 1 1 127 579 626 128
463 3 2 1 1 129 666 628 128
464 3 2 1 1 130 720 666 129
465 3 2 1 1 131 130 716 762
466 3 2 1 1 131 752 720 130
467 3 2 1 1 791 805 133 132
468 3 2 1 1 861 140 139 857
469 3 2 1 1 773 148 147 809
470 3 2 1 1 146 147 804 838
471 3 2 1 1 147 148 801 804
472 3 2 1 1 560 153 152 634
473 3 2 1 1 589 636 152 153
474 3 2 1 1 335 166 218 236
475 3 2 1 1 229 177 242 317
476 3 2 1 1 409 297 178 280
477 3 2 1 1 210 248 284 182
478 3 2 1 1 279 341 349 186
479 3 2 1 1 223 188 247 346
480 3 2 1 1 257 189 376 294
481 3 2 1 1 277 296 403 191
482 3 2 1 1 276 191 403 342
483 3 2 1 1 253 320 391 207
484 3 2 1 1 184 245 315 208
485 3 2 1 1 210 211 343 248
486 3 2 1 1 344 296 277 212
487 3 2 1 1 168 220 355 240
488 3 2 1 1 387 355 220 289
489 3 2 1 1 283 223 346 398
490 3 2 1 1 218 226 316 236
491 3 2 1 1 414 356 318 231
492 3 2 1 1 446 378 235 301
493 3 2 1 1 361 322 240 385
494 3 2 1 1 450 385 240 355
495 3 2 1 1 348 404 405 242
496 3 2 1 1 468 379 351 246
497 3 2 1 1 346 247 407 457
498 3 2 1 1 284 248 404 348
499 3 2 1 1 160 298 383 251
500 3 2 1 1 169 304 395 267
501 3 2 1 1 209 284 348 274
502 3 2 1 1 171 295 408 275
503 3 2 1 1 211 275 408 343
504 3 2 1 1 171 276 342 295
505 3 2 1 1 178 297 341 279
506 3 2 1 1 166 335 410 281
507 3 2 1 1 217 281 410 345
508 3 2 1 1 226 288 347 316
509 3 2 1 1 524 403 296 467
510 3 2 1 1 411 341 297 373
511 3 2 1 1 380 443 478 300
512 3 2 1 1 322 361 464 303
513 3 2 1 1 231 306 427 414
514 3 2 1 1 459 371 309 334
515 3 2 1 1 473 401 316 347
516 3 2 1 1 242 405 469 317
517 3 2 1 1 452 391 320 455
518 3 2 1 1 291 345 377 337
519 3 2 1 1 475 409 337 377
520 3 2 1 1 379 438 412 339
521 3 2 1 1 402 425 407 340
522 3 2 1 1 524 466 342 403
523 3 2 1 1 248 343 436 404
524 3 2 1 1 463 413 354 349
525 3 2 1 1 385 420 527 361
526 3 2 1 1 568 517 473 363
527 3 2 1 1 295 367 474 408
528 3 2 1 1 330 369 462 397
529 3 2 1 1 469 500 571 374
530 3 2 1 1 345 410 435 377
531 3 2 1 1 513 449 388 483
532 3 2 1 1 430 494 454 390
533 3 2 1 1 404 436 529 405
534 3 2 1 1 469 405 529 500
535 3 2 1 1 343 408 474 436
536 3 2 1 1 356 414 510 418
537 3 2 1 1 428 586 502 417
538 3 2 1 1 554 503 419 538
539 3 2 1 1 506 421 492 547
540 3 2 1 1 616 549 423 519
541 3 2 1 1 448 490 586 428
542 3 2 1 1 449 513 576 429
543 3 2 1 1 412 438 491 477
544 3 2 1 1 426 507 581 442
545 3 2 1 1 588 478 443 482
546 3 2 1 1 378 446 550 501
547 3 2 1 1 368 488 583 467
548 3 2 1 1 359 470 584 481
549 3 2 1 1 436 474 573 529
550 3 2 1 1 539 481 584 613
551 3 2 1 1 503 554 629 482
552 3 2 1 1 566 483 533 540
553 3 2 1 1 662 598 488 577
554 3 2 1 1 438 523 574 491
555 3 2 1 1 529 573 625 500
556 3 2 1 1 555 610 660 504
557 3 2 1 1 559 506 547 608
558 3 2 1 1 483 566 627 513
559 3 2 1 1 526 546 633 579
560 3 2 1 1 553 590 680 550
561 3 2 1 1 501 550 680 637
562 3 2 1 1 507 635 679 581
563 3 2 1 1 636 589 604 646
564 3 2 1 1 766 727 593 675
565 3 2 1 1 659 593 727 697
566 3 2 1 1 747 695 599 651
567 3 2 1 1 560 634 648 601
568 3 2 1 1 705 646 604 658
569 3 2 1 1 546 605 647 633
570 3 2 1 1 712 660 610 713
571 3 2 1 1 542 611 722 644
572 3 2 1 1 660 712 722 611
573 3 2 1 1 583 683 731 623
574 3 2 1 1 579 633 673 626
575 3 2 1 1 566 670 724 627
576 3 2 1 1 653 630 684 699
577 3 2 1 1 677 636 646 691
578 3 2 1 1 633 647 719 673
579 3 2 1 1 642 688 769 667
580 3 2 1 1 700 674 694 743
581 3 2 1 1 627 724 685 676
582 3 2 1 1 596 678 763 728
583 3 2 1 1 637 680 768 708
584 3 2 1 1 761 754 731 683
585 3 2 1 1 641 696 784 732
586 3 2 1 1 771 784 696 741
587 3 2 1 1 790 742 698 751
588 3 2 1 1 717 734 758 699
589 3 2 1 1 742 779 762 716
590 3 2 1 1 685 756 798 718
591 3 2 1 1 812 802 732 784
592 3 2 1 1 789 734 770 782
593 3 2 1 1 800 847 813 737
594 3 2 1 1 741 748 823 771
595 3 2 1 1 736 777 819 756
596 3 2 1 1 819 842 798 756
597 3 2 1 1 734 789 799 758
598 3 2 1 1 784 771 843 812
599 3 2 1 1 732 802 841 787
600 3 2 1 1 777 836 852 819
601 3 2 1 1 771 823 856 843
602 3 2 1 1 838 830 824 850
603 3 2 1 1 855 860 854 846
604 3 2 1 1 203 172 26 27
605 3 2 1 1 226 218 69 70
606 3 2 1 1 205 174 83 84
607 3 2 1 1 263 104 105 183
608 3 2 1 1 282 183 105 106
609 3 2 1 1 6 121 227 111
610 3 2 1 1 6 112 228 121
611 3 2 1 1 122 121 228 285
612 3 2 1 1 121 122 292 227
613 3 2 1 1 123 122 285 339
614 3 2 1 1 130 129 672 716
615 3 2 1 1 133 810 788 132
616 3 2 1 1 138 849 857 139
617 3 2 1 1 157 158 269 350
618 3 2 1 1 330 397 293 173
619 3 2 1 1 284 209 224 182
620 3 2 1 1 266 186 349 354
621 3 2 1 1 261 193 233 323
622 3 2 1 1 473 347 238 363
623 3 2 1 1 340 407 247 292
624 3 2 1 1 413 350 269 354
625 3 2 1 1 339 285 351 379
626 3 2 1 1 229 317 353 290
627 3 2 1 1 507 426 359 481
628 3 2 1 1 492 456 511 587
629 3 2 1 1 596 615 496 551
630 3 2 1 1 628 650 603 575
631 3 2 1 1 748 671 595 721
632 3 2 1 1 763 678 597 718
633 3 2 1 1 698 742 716 672
634 3 2 1 1 751 698 673 719
635 3 2 1 1 691 740 711 677
636 3 2 1 1 730 738 764 686
637 3 2 1 1 820 775 689 765
638 3 2 1 1 821 767 689 775
639 3 2 1 1 740 778 757 711
640 3 2 1 1 825 763 718 798
641 3 2 1 1 748 721 780 823
642 3 2 1 1 847 800 735 803
643 3 2 1 1 777 736 767 821
644 3 2 1 1 793 738 769 774
645 3 2 1 1 830 792 760 824
646 3 2 1 1 690 797 824 760
647 3 2 1 1 738 793 826 764
648 3 2 1 1 845 859 861 856
649 3 2 1 1 1 7 224 120
650 3 2 1 1 8 182 224 7
651 3 2 1 1 277 191 14 15
652 3 2 1 1 213 164 23 24
653 3 2 1 1 286 25 26 172
654 3 2 1 1 258 165 30 31
655 3 2 1 1 254 160 35 36
656 3 2 1 1 265 161 40 41
657 3 2 1 1 279 186 57 58
658 3 2 1 1 280 60 61 216
659 3 2 1 1 62 187 216 61
660 3 2 1 1 4 64 225 63
661 3 2 1 1 62 63 225 187
662 3 2 1 1 66 217 287 65
663 3 2 1 1 64 65 287 225
664 3 2 1 1 281 217 66 67
665 3 2 1 1 72 167 288 71
666 3 2 1 1 70 71 288 226
667 3 2 1 1 72 73 230 167
668 3 2 1 1 74 293 230 73
669 3 2 1 1 75 173 293 74
670 3 2 1 1 220 168 80 81
671 3 2 1 1 289 82 83 174
672 3 2 1 1 261 169 87 88
673 3 2 1 1 268 163 97 98
674 3 2 1 1 283 108 109 223
675 3 2 1 1 109 110 188 223
676 3 2 1 1 111 227 188 110
677 3 2 1 1 112 113 199 228
678 3 2 1 1 114 115 290 185
679 3 2 1 1 116 229 290 115
680 3 2 1 1 117 177 229 116
681 3 2 1 1 119 120 224 209
682 3 2 1 1 672 129 128 626
683 3 2 1 1 347 288 167 238
684 3 2 1 1 243 332 265 179
685 3 2 1 1 337 216 187 291
686 3 2 1 1 225 287 291 187
687 3 2 1 1 185 246 351 199
688 3 2 1 1 228 199 351 285
689 3 2 1 1 345 291 287 217
690 3 2 1 1 188 227 292 247
691 3 2 1 1 167 230 331 238
692 3 2 1 1 397 331 230 293
693 3 2 1 1 428 417 232 310
694 3 2 1 1 300 478 360 233
695 3 2 1 1 185 290 353 246
696 3 2 1 1 468 246 353 374
697 3 2 1 1 469 374 353 317
698 3 2 1 1 234 358 455 320
699 3 2 1 1 235 378 470 321
700 3 2 1 1 304 323 479 388
701 3 2 1 1 238 331 434 363
702 3 2 1 1 502 419 357 417
703 3 2 1 1 503 444 357 419
704 3 2 1 1 427 441 536 509
705 3 2 1 1 361 527 582 464
706 3 2 1 1 378 501 584 470
707 3 2 1 1 610 555 480 591
708 3 2 1 1 681 591 480 580
709 3 2 1 1 671 578 486 595
710 3 2 1 1 595 486 581 679
711 3 2 1 1 582 592 624 487
712 3 2 1 1 454 494 545 522
713 3 2 1 1 420 496 615 541
714 3 2 1 1 590 553 497 609
715 3 2 1 1 613 584 501 637
716 3 2 1 1 419 502 607 538
717 3 2 1 1 551 561 678 596
718 3 2 1 1 540 600 670 566
719 3 2 1 1 513 627 676 576
720 3 2 1 1 527 631 592 582
721 3 2 1 1 502 586 665 607
722 3 2 1 1 768 680 590 729
723 3 2 1 1 631 643 682 592
724 3 2 1 1 721 595 679 686
725 3 2 1 1 541 615 645 709
726 3 2 1 1 592 682 723 624
727 3 2 1 1 698 672 626 673
728 3 2 1 1 539 667 730 635
729 3 2 1 1 710 654 639 655
730 3 2 1 1 794 739 645 728
731 3 2 1 1 600 653 765 689
732 3 2 1 1 640 693 759 656
733 3 2 1 1 738 730 667 769
734 3 2 1 1 600 689 767 670
735 3 2 1 1 736 724 670 767
736 3 2 1 1 635 730 686 679
737 3 2 1 1 733 772 827 688
738 3 2 1 1 743 694 755 781
739 3 2 1 1 668 770 734 717
740 3 2 1 1 686 764 780 721
741 3 2 1 1 682 760 792 723
742 3 2 1 1 796 768 729 795
743 3 2 1 1 806 772 733 796
744 3 2 1 1 728 763 825 794
745 3 2 1 1 845 780 764 826
746 3 2 1 1 809 828 772 806
747 3 2 1 1 844 827 772 828
748 3 2 1 1 835 797 776 811
749 3 2 1 1 821 832 836 777
750 3 2 1 1 856 823 780 845
751 3 2 1 1 840 817 792 830
752 3 2 1 1 739 794 846 814
753 3 2 1 1 855 846 794 825
754 3 2 1 1 852 858 842 819
755 3 2 1 1 793 834 853 826
756 3 2 1 1 256 162 92 93
757 3 2 1 1 850 835 144 145
758 3 2 1 1 808 844 145 144
759 3 2 1 1 258 192 235 321
760 3 2 1 1 319 232 417 357
761 3 2 1 1 478 588 535 360
762 3 2 1 1 483 388 479 533
763 3 2 1 1 364 484 532 471
764 3 2 1 1 678 561 489 597
765 3 2 1 1 536 638 543 509
766 3 2 1 1 420 541 631 527
767 3 2 1 1 630 540 533 535
768 3 2 1 1 623 731 664 572
769 3 2 1 1 632 578 671 725
770 3 2 1 1 651 607 665 706
771 3 2 1 1 591 641 713 610
772 3 2 1 1 750 663 624 723
773 3 2 1 1 822 786 737 813
774 3 2 1 1 815 801 757 778
775 3 2 1 1 774 808 834 793
776 3 2 1 1 826 853 859 845
777 3 2 1 1 392 447 243 311
778 3 2 1 1 437 416 329 471
779 3 2 1 1 577 437 471 532
780 3 2 1 1 371 459 498 556
781 3 2 1 1 683 583 488 598
782 3 2 1 1 597 489 576 676
783 3 2 1 1 710 649 543 638
784 3 2 1 1 482 629 684 588
785 3 2 1 1 714 664 731 754
786 3 2 1 1 749 776 797 690
787 3 2 1 1 641 732 787 713
788 3 2 1 1 712 735 800 722
789 3 2 1 1 644 722 800 737
790 3 2 1 1 816 778 740 785
791 3 2 1 1 149 150 711 757
792 3 2 1 1 454 522 154 155
793 3 2 1 1 254 194 231 318
794 3 2 1 1 194 200 306 231
795 3 2 1 1 479 360 535 533
796 3 2 1 1 694 150 149 755
797 3 2 1 1 459 375 453 498
798 3 2 1 1 256 195 232 319
799 3 2 1 1 195 201 310 232
800 3 2 1 1 601 587 511 560
$EndElements
