$MeshFormat
2.2 0 8
$EndMeshFormat
$Nodes
153
1 0 0 0
2 100 0 0
3 100 200 0
4 0 200 0
5 12.5 0 0
6 25 0 0
7 37.5 0 0
8 50 0 0
9 62.5 0 0
10 75 0 0
11 87.5 0 0
12 100 12.5 0
13 100 25 0
14 100 37.5 0
15 100 50 0
16 100 62.5 0
17 100 75 0
18 100 87.5 0
19 100 100 0
20 100 112.5 0
21 100 125 0
22 100 137.5 0
23 100 150 0
24 100 162.5 0
25 100 175 0
26 100 187.5 0
27 87.5 200 0
28 75 200 0
29 62.5 200 0
30 50 200 0
31 37.5 200 0
32 25 200 0
33 12.5 200 0
34 0 187.5 0
35 0 175 0
36 0 162.5 0
37 0 150 0
38 0 137.5 0
39 0 125 0
40 0 112.5 0
41 0 100 0
42 0 87.5 0
43 0 75 0
44 0 62.5 0
45 0 50 0
46 0 37.5 0
47 0 25 0
48 0 12.5 0
49 75 50 0
50 75 100 0
51 25 150 0
52 25 125 0
53 25 100 0
54 25 75 0
55 50 25 0
56 75 150 0
57 25 25 0
58 75 25 0
59 75 175 0
60 25 175 0
61 75 75 0
62 75 125 0
63 50 175 0
64 25 50 0
65 50 50 0
66 50 100 0
67 50 150 0
68 50 125 0
69 50 75 0
70 12.5 12.5 0
71 87.5 12.5 0
72 87.5 187.5 0
73 37.5 150 0
74 37.5 162.5 0
75 25 162.5 0
76 50 162.5 0
77 37.5 175 0
78 25 12.5 0
79 12.5 25 0
80 87.5 25 0
81 75 12.5 0
82 75 37.5 0
83 87.5 37.5 0
84 87.5 75 0
85 75 62.5 0
86 87.5 62.5 0
87 75 87.5 0
88 87.5 87.5 0
89 87.5 112.5 0
90 87.5 100 0
91 87.5 125 0
92 75 112.5 0
93 75 137.5 0
94 87.5 137.5 0
95 75 187.5 0
96 87.5 175 0
97 75 162.5 0
98 87.5 162.5 0
99 12.5 62.5 0
100 25 62.5 0
101 12.5 75 0
102 12.5 37.5 0
103 25 37.5 0
104 12.5 50 0
105 62.5 112.5 0
106 62.5 100 0
107 50 87.5 0
108 62.5 87.5 0
109 37.5 125 0
110 37.5 137.5 0
111 25 137.5 0
112 50 137.5 0
113 50 112.5 0
114 37.5 112.5 0
115 37.5 87.5 0
116 37.5 100 0
117 25 87.5 0
118 37.5 50 0
119 37.5 62.5 0
120 50 62.5 0
121 37.5 75 0
122 12.5 187.5 0
123 25 187.5 0
124 12.5 175 0
125 37.5 12.5 0
126 62.5 12.5 0
127 37.5 25 0
128 50 12.5 0
129 62.5 25 0
130 87.5 50 0
131 87.5 150 0
132 62.5 187.5 0
133 37.5 187.5 0
134 50 187.5 0
135 62.5 175 0
136 12.5 162.5 0
137 12.5 125 0
138 12.5 137.5 0
139 12.5 150 0
140 12.5 100 0
141 12.5 112.5 0
142 25 112.5 0
143 12.5 87.5 0
144 62.5 37.5 0
145 62.5 50 0
146 50 37.5 0
147 62.5 62.5 0
148 62.5 75 0
149 37.5 37.5 0
150 62.5 162.5 0
151 62.5 150 0
152 62.5 137.5 0
153 62.5 125 0
$EndNodes
$Elements
128
1 3 2 1 1 88 90 50 87
2 3 2 1 1 70 79 47 48
3 3 2 1 1 117 53 140 143
4 3 2 1 1 116 114 142 53
5 3 2 1 1 116 53 117 115
6 3 2 1 1 83 130 49 82
7 3 2 1 1 49 130 86 85
8 3 2 1 1 49 145 144 82
9 3 2 1 1 145 49 85 147
10 3 2 1 1 65 120 119 118
11 3 2 1 1 89 92 50 90
12 3 2 1 1 153 68 113 105
13 3 2 1 1 99 104 64 100
14 3 2 1 1 108 87 50 106
15 3 2 1 1 112 152 151 67
16 3 2 1 1 111 51 139 138
17 3 2 1 1 110 73 51 111
18 3 2 1 1 133 77 63 134
19 3 2 1 1 79 102 46 47
20 3 2 1 1 87 61 84 88
21 3 2 1 1 102 104 45 46
22 3 2 1 1 104 99 44 45
23 3 2 1 1 84 61 85 86
24 3 2 1 1 147 120 65 145
25 3 2 1 1 101 143 42 43
26 3 2 1 1 143 140 41 42
27 3 2 1 1 120 69 121 119
28 3 2 1 1 65 118 149 146
29 3 2 1 1 140 141 40 41
30 3 2 1 1 141 137 39 40
31 3 2 1 1 148 69 120 147
32 3 2 1 1 105 113 66 106
33 3 2 1 1 137 138 38 39
34 3 2 1 1 118 64 103 149
35 3 2 1 1 95 59 96 72
36 3 2 1 1 132 135 59 95
37 3 2 1 1 59 135 150 97
38 3 2 1 1 96 59 97 98
39 3 2 1 1 58 129 126 81
40 3 2 1 1 153 62 93 152
41 3 2 1 1 151 56 97 150
42 3 2 1 1 100 54 101 99
43 3 2 1 1 56 151 152 93
44 3 2 1 1 118 119 100 64
45 3 2 1 1 106 50 92 105
46 3 2 1 1 56 131 98 97
47 3 2 1 1 94 131 56 93
48 3 2 1 1 103 64 104 102
49 3 2 1 1 144 146 55 129
50 3 2 1 1 43 44 99 101
51 3 2 1 1 61 148 147 85
52 3 2 1 1 93 62 91 94
53 3 2 1 1 54 117 143 101
54 3 2 1 1 91 62 92 89
55 3 2 1 1 119 121 54 100
56 3 2 1 1 107 108 106 66
57 3 2 1 1 54 121 115 117
58 3 2 1 1 62 153 105 92
59 3 2 1 1 53 142 141 140
60 3 2 1 1 121 69 107 115
61 3 2 1 1 109 110 111 52
62 3 2 1 1 52 111 138 137
63 3 2 1 1 113 68 109 114
64 3 2 1 1 52 142 114 109
65 3 2 1 1 148 61 87 108
66 3 2 1 1 126 128 8 9
67 3 2 1 1 72 96 25 26
68 3 2 1 1 131 23 24 98
69 3 2 1 1 134 63 135 132
70 3 2 1 1 80 58 81 71
71 3 2 1 1 21 22 94 91
72 3 2 1 1 21 91 89 20
73 3 2 1 1 90 19 20 89
74 3 2 1 1 138 139 37 38
75 3 2 1 1 90 88 18 19
76 3 2 1 1 142 52 137 141
77 3 2 1 1 17 18 88 84
78 3 2 1 1 86 16 17 84
79 3 2 1 1 130 15 16 86
80 3 2 1 1 131 94 22 23
81 3 2 1 1 76 150 135 63
82 3 2 1 1 130 83 14 15
83 3 2 1 1 76 63 77 74
84 3 2 1 1 13 14 83 80
85 3 2 1 1 69 148 108 107
86 3 2 1 1 13 80 71 12
87 3 2 1 1 75 136 139 51
88 3 2 1 1 145 65 146 144
89 3 2 1 1 12 71 11 2
90 3 2 1 1 112 67 73 110
91 3 2 1 1 81 126 9 10
92 3 2 1 1 71 81 10 11
93 3 2 1 1 73 74 75 51
94 3 2 1 1 123 32 33 122
95 3 2 1 1 95 28 29 132
96 3 2 1 1 30 134 132 29
97 3 2 1 1 146 149 127 55
98 3 2 1 1 127 125 128 55
99 3 2 1 1 134 30 31 133
100 3 2 1 1 6 78 70 5
101 3 2 1 1 32 123 133 31
102 3 2 1 1 115 107 66 116
103 3 2 1 1 8 128 125 7
104 3 2 1 1 114 116 66 113
105 3 2 1 1 124 122 34 35
106 3 2 1 1 129 58 82 144
107 3 2 1 1 124 35 36 136
108 3 2 1 1 4 34 122 33
109 3 2 1 1 37 139 136 36
110 3 2 1 1 5 70 48 1
111 3 2 1 1 82 58 80 83
112 3 2 1 1 26 3 27 72
113 3 2 1 1 78 6 7 125
114 3 2 1 1 28 95 72 27
115 3 2 1 1 129 55 128 126
116 3 2 1 1 98 24 25 96
117 3 2 1 1 149 103 57 127
118 3 2 1 1 78 57 79 70
119 3 2 1 1 74 77 60 75
120 3 2 1 1 136 75 60 124
121 3 2 1 1 125 127 57 78
122 3 2 1 1 77 133 123 60
123 3 2 1 1 57 103 102 79
124 3 2 1 1 122 124 60 123
125 3 2 1 1 152 112 68 153
126 3 2 1 1 67 76 74 73
127 3 2 1 1 68 112 110 109
128 3 2 1 1 150 76 67 151
$EndElements
