$MeshFormat
2.2 0 8
$EndMeshFormat
$Nodes
1316
1 0 0 0
2 0 200 0
3 0 200 100
4 0 0 100
5 0 0 50
6 0 190 90
7 0 5 0
8 0 10 0
9 0 15 0
10 0 20 0
11 0 25 0
12 0 30 0
13 0 35 0
14 0 40 0
15 0 45 0
16 0 50 0
17 0 55 0
18 0 60 0
19 0 65 0
20 0 70 0
21 0 75 0
22 0 80 0
23 0 85 0
24 0 90 0
25 0 95 0
26 0 100 0
27 0 105 0
28 0 110 0
29 0 115 0
30 0 120 0
31 0 125 0
32 0 130 0
33 0 135 0
34 0 140 0
35 0 145 0
36 0 150 0
37 0 155 0
38 0 160 0
39 0 165 0
40 0 170 0
41 0 175 0
42 0 180 0
43 0 185 0
44 0 190 0
45 0 195 0
46 0 200 5
47 0 200 10
48 0 200 15
49 0 200 20
50 0 200 25
51 0 200 30
52 0 200 35
53 0 200 40
54 0 200 45
55 0 200 50
56 0 200 55
57 0 200 60
58 0 200 65
59 0 200 70
60 0 200 75
61 0 200 80
62 0 200 85
63 0 200 90
64 0 200 95
65 0 195 100
66 0 190 100
67 0 185 100
68 0 180 100
69 0 175 100
70 0 170 100
71 0 165 100
72 0 160 100
73 0 155 100
74 0 150 100
75 0 145 100
76 0 140 100
77 0 135 100
78 0 130 100
79 0 125 100
80 0 120 100
81 0 115 100
82 0 110 100
83 0 105 100
84 0 100 100
85 0 95 100
86 0 90 100
87 0 85 100
88 0 80 100
89 0 75 100
90 0 70 100
91 0 65 100
92 0 60 100
93 0 55 100
94 0 50 100
95 0 45 100
96 0 40 100
97 0 35 100
98 0 30 100
99 0 25 100
100 0 20 100
101 0 15 100
102 0 10 100
103 0 4.99999999999997 100
104 0 0 95
105 0 0 90
106 0 0 85
107 0 0 80
108 0 0 75
109 0 0 70
110 0 0 65
111 0 0 60
112 0 0 55
113 0 0 45
114 0 0 40
115 0 0 35
116 0 0 30
117 0 0 25
118 0 0 20
119 0 0 15
120 0 0 10
121 0 0 5
122 0 2.92307692307692 50.6153846153846
123 0 5.84615384615384 51.2307692307692
124 0 8.76923076923076 51.8461538461538
125 0 11.6923076923077 52.4615384615385
126 0 14.6153846153846 53.0769230769231
127 0 17.5384615384615 53.6923076923077
128 0 20.4615384615384 54.3076923076923
129 0 23.3846153846154 54.9230769230769
130 0 26.3076923076923 55.5384615384615
131 0 29.2307692307692 56.1538461538462
132 0 32.1538461538461 56.7692307692308
133 0 35.0769230769231 57.3846153846154
134 0 38 58
135 0 40.9230769230769 58.6153846153846
136 0 43.8461538461538 59.2307692307692
137 0 46.7692307692307 59.8461538461538
138 0 49.6923076923077 60.4615384615385
139 0 52.6153846153846 61.0769230769231
140 0 55.5384615384615 61.6923076923077
141 0 58.4615384615384 62.3076923076923
142 0 61.3846153846154 62.9230769230769
143 0 64.3076923076923 63.5384615384615
144 0 67.2307692307692 64.1538461538461
145 0 70.1538461538461 64.7692307692308
146 0 73.0769230769231 65.3846153846154
147 0 76 66
148 0 78.9230769230769 66.6153846153846
149 0 81.8461538461538 67.2307692307692
150 0 84.7692307692308 67.8461538461538
151 0 87.6923076923077 68.4615384615385
152 0 90.6153846153846 69.0769230769231
153 0 93.5384615384615 69.6923076923077
154 0 96.4615384615384 70.3076923076923
155 0 99.3846153846154 70.9230769230769
156 0 102.307692307692 71.5384615384615
157 0 105.230769230769 72.1538461538461
158 0 108.153846153846 72.7692307692308
159 0 111.076923076923 73.3846153846154
160 0 114 74
161 0 116.923076923077 74.6153846153846
162 0 119.846153846154 75.2307692307692
163 0 122.769230769231 75.8461538461538
164 0 125.692307692308 76.4615384615385
165 0 128.615384615385 77.0769230769231
166 0 131.538461538462 77.6923076923077
167 0 134.461538461538 78.3076923076923
168 0 137.384615384615 78.9230769230769
169 0 140.307692307692 79.5384615384615
170 0 143.230769230769 80.1538461538461
171 0 146.153846153846 80.7692307692308
172 0 149.076923076923 81.3846153846154
173 0 152 82
174 0 154.923076923077 82.6153846153846
175 0 157.846153846154 83.2307692307692
176 0 160.769230769231 83.8461538461538
177 0 163.692307692308 84.4615384615385
178 0 166.615384615385 85.0769230769231
179 0 169.538461538462 85.6923076923077
180 0 172.461538461538 86.3076923076923
181 0 175.384615384615 86.9230769230769
182 0 178.307692307692 87.5384615384615
183 0 181.230769230769 88.1538461538462
184 0 184.153846153846 88.7692307692308
185 0 187.076923076923 89.3846153846154
186 0 154.961002180402 4.87938321014689
187 0 130.03606878844 4.83899645965229
188 0 105.165472716426 4.85083775813192
189 0 80.0971881054467 4.81969952045509
190 0 60.1201106665278 4.79261526324005
191 0 40.0109791471936 4.80388779147074
192 0 25.1813709700902 95.1564729169031
193 0 195.27006205126 50.0268431478502
194 0 45.0038988384649 95.2829517534182
195 0 195.120663877184 34.9890771228423
196 0 64.7776353832636 95.3054313984755
197 0 5.17957978996348 25.3211491844236
198 0 79.8622568109043 95.1263946492248
199 0 170.016232565503 4.94668233097765
200 0 94.7871992774272 95.4036146849253
201 0 110.077463295155 94.0668697921147
202 0 195.217124168345 69.8500376647375
203 0 124.945112188976 95.4451044547612
204 0 6.0408785276642 68.8574493937412
205 0 4.92356984876854 79.8658747697066
206 0 14.9749244596248 4.96434875381861
207 0 140.302693235845 94.0542375147183
208 0 15.0954118141361 94.9934073743306
209 0 4.79811438494355 35.4657046757135
210 0 156.102506923563 95.1885097284282
211 0 195.032450739946 19.9908549027296
212 0 180.018532438653 4.98091025449654
213 0 169.92426834056 94.3838235775877
214 0 90.1253083475493 4.87174842191207
215 0 4.99455023735776 9.98950155604633
216 0 179.721960845845 95.5881696741183
217 0 195.625577314101 90.7264613474121
218 0 195.218943055609 95.2365192320086
219 0 189.586225884218 94.989926337202
220 0 194.877511738751 85.8677042013937
221 0 195.229014805323 80.0004036729029
222 0 150.885361316663 94.0940902770983
223 0 165.060112401826 95.4847312017232
224 0 4.7364769760147 40.5852797370867
225 0 4.28747792166168 59.6197770658548
226 0 134.586653016146 95.0769216166271
227 0 195.3050811267 64.8610476830621
228 0 120.183025352538 95.4424161477335
229 0 104.382510967589 95.0604079017424
230 0 195.327605435622 59.9319695877639
231 0 90.0100977602767 95.3798964284842
232 0 74.6498161361306 95.1858728803249
233 0 59.8885395131791 95.302911478485
234 0 54.9552907777165 95.300184688919
235 0 40.0415785392291 95.2730644708638
236 0 35.1040423071956 95.2592275287131
237 0 195.226461522104 45.0208925416596
238 0 29.9490847231149 4.84686254663566
239 0 45.0369206047181 4.80389901700274
240 0 50.0596989249991 4.80083757060498
241 0 65.1397288349921 4.79305053236096
242 0 70.1341445973123 4.79829576243299
243 0 95.1785786535218 4.88483233781965
244 0 110.104029959808 4.8465582635715
245 0 115.044841349628 4.84652324031695
246 0 120.021603485315 4.83785890471084
247 0 4.96427978743742 84.8877000516892
248 0 135.031187635935 4.85174673515333
249 0 140.00648569067 4.86157255844908
250 0 144.978293218351 4.8616169695496
251 0 159.979011270069 4.90000840711785
252 0 195.083001924864 29.9797433438009
253 0 5.02667053577687 15.0078244425268
254 0 195.019935294945 14.9952191771178
255 0 185.014112084517 4.99037144732308
256 0 19.9571422443057 4.93170513779087
257 0 4.9953009402508 4.99363136289887
258 0 195.004178434053 4.99941726186172
259 0 5.00050984019718 94.9831823537754
260 0 3.88519495447599 55.0870593464975
261 0 4.71335684693399 46.1991643968963
262 0 144.938734254634 9.67857813221347
263 0 120.076467679055 9.60667739938318
264 0 90.2192054858172 9.80757443248496
265 0 65.3112838539039 9.52272697636386
266 0 45.1718009827295 9.55527181931006
267 0 190.594806409017 50.0054418446739
268 0 35.2019378977233 90.6002882321879
269 0 54.6925648249386 90.6449959860985
270 0 79.7156980091069 89.6872986900372
271 0 190.282858853437 34.9216885866768
272 0 94.6022298829096 90.9928157023287
273 0 190.45075250579 69.4612129791771
274 0 107.430275971813 89.5095668989802
275 0 9.52452220588076 35.8424189762265
276 0 120.242425787495 91.0659707644483
277 0 137.784108020883 89.6260834123714
278 0 8.89105060400937 45.6764130972434
279 0 153.843798524339 89.6470876498759
280 0 154.894743183654 9.70939006350556
281 0 9.82459359610448 79.5072144820178
282 0 14.9457032039541 9.90629393956254
283 0 190.079199689257 19.9653728801207
284 0 180.051914854679 9.94873365762902
285 0 190.805828062885 83.8246340438993
286 0 167.796115692618 91.5148814345396
287 0 184.454323666846 95.6383994204044
288 0 175.082861213425 95.2697562043443
289 0 8.64084936965409 54.824927499806
290 0 160.651648387201 95.5582392564377
291 0 195.159199350132 74.8937174588975
292 0 4.58076492661206 63.9721604172694
293 0 145.57111220392 95.0162473242687
294 0 129.70753928759 95.3823115749158
295 0 115.452771784042 95.2479719433019
296 0 190.684499449648 64.6455275963391
297 0 99.5253081132228 95.3572896939172
298 0 59.534409735649 90.6820766521396
299 0 85.063532160632 95.2464839327479
300 0 44.8774709090098 90.6455382145717
301 0 69.6333516079488 95.2913259774864
302 0 5.14287803319587 74.7619008493196
303 0 195.314470932494 54.9878171954373
304 0 4.99370199860724 30.4450448339697
305 0 49.9567441519089 95.3041573494758
306 0 30.1657945511566 95.2281309156042
307 0 115.157677676777 9.60834303744852
308 0 105.49412984257 9.62791436028093
309 0 55.089907996175 4.79154381962037
310 0 139.979515698831 9.66823297008085
311 0 130.047083394629 9.60248635425923
312 0 75.1176908134882 4.80309423002034
313 0 85.0996277410977 4.84196456085076
314 0 20.1676139660483 95.0653856735858
315 0 100.211579251724 4.86695752044781
316 0 34.9717059519663 4.81114147549716
317 0 125.030025246933 4.82191885972012
318 0 149.959857147335 4.85850318399966
319 0 195.178543083926 39.9969717717293
320 0 24.9420708113334 4.88782022558207
321 0 165.000027692312 4.92156241649788
322 0 5.00361506232535 89.9340964125948
323 0 9.98198041464293 9.95989015592848
324 0 10.0451949468509 94.9624191750539
325 0 195.056035389796 24.9815082513851
326 0 175.022251634352 4.96280276186545
327 0 5.1538002338133 20.1304615411625
328 0 195.010927688518 9.99763520902949
329 0 190.009551409746 4.99607102684089
330 0 9.98734146438017 4.97936206806828
331 0 190.263229104897 87.1932495448256
332 0 187.814772629219 92.1775612350111
333 0 6.6046887826061 48.9924170146295
334 0 139.761241157866 14.389522289636
335 0 115.310626953063 14.2520942599872
336 0 58.9436804831295 86.098438048651
337 0 185.878473003065 68.8211868347977
338 0 9.90661020348746 64.8423356187732
339 0 142.905789699683 90.8295345619137
340 0 189.689617604006 74.8031265789458
341 0 98.9604319506722 90.9267383235197
342 0 85.6345333596304 90.7156357138285
343 0 190.685605046941 54.959312378357
344 0 34.9723741845285 9.6195920812066
345 0 20.543156262785 90.0817629495178
346 0 30.3806909912072 90.5307379180026
347 0 100.599053731724 9.76945212897037
348 0 190.393847159941 39.9379943165091
349 0 75.2103234457891 9.54800786310816
350 0 10.1042477783176 84.5619547678456
351 0 190.130055819336 24.9419594637873
352 0 157.549926702066 90.883803796039
353 0 164.988279602316 9.80892641932861
354 0 175.057551648321 9.90696635938372
355 0 10.3507920372085 20.0801438860394
356 0 9.78326978695019 31.1189392510249
357 0 190.047387034613 14.9794801800101
358 0 165.143846792447 91.6790411685951
359 0 148.93881282966 90.8930725955108
360 0 9.15140143649708 59.6006962271154
361 0 115.885354138977 90.9831408295738
362 0 190.874868699815 79.7611737988034
363 0 103.316524293081 90.5432848848656
364 0 11.8707858602288 49.4024471401663
365 0 90.2053952951021 90.9609448022367
366 0 190.733684066826 59.8304437653225
367 0 171.727751644979 90.044535019911
368 0 49.7349290651105 90.6530160985636
369 0 129.233865255414 90.9902341713383
370 0 124.722412754384 91.0744175155581
371 0 40.1014135431159 9.57835900081692
372 0 9.99204922315602 41.3071121842957
373 0 9.83754531710191 74.7330897332599
374 0 125.057075397792 9.58166163885831
375 0 95.4641573118472 9.91376648513231
376 0 69.0103337069041 90.7067308409061
377 0 64.275816844021 90.7310117917244
378 0 149.898406603105 9.67425448374603
379 0 85.1115108245547 9.64482564240441
380 0 190.502731385961 44.9723312289575
381 0 70.2725504252157 9.52658004741695
382 0 60.2889954617898 9.51954945467968
383 0 55.2502179707537 9.53214895027929
384 0 73.753216690409 90.5136179754253
385 0 40.0097369505288 90.6439319006026
386 0 133.631312680757 90.6370775317686
387 0 15.4031152842797 89.7989264775029
388 0 50.2319928974946 9.53930963538942
389 0 159.925268317077 9.75182726886417
390 0 190.201215281864 29.92098620843
391 0 110.331638191473 9.59266714917273
392 0 134.997211360732 9.62479731412601
393 0 15.0148502088467 14.8245496368225
394 0 24.8633838914197 9.74285355884216
395 0 10.16498688802 89.7842991765868
396 0 19.9052634164887 9.82011304525792
397 0 185.039462700233 9.97318719217051
398 0 10.0720930696862 14.9586898170231
399 0 13.0643951528517 55.8374455260154
400 0 190.025644483892 9.98816730223894
401 0 184.042919307438 91.3834867614264
402 0 8.88256468748509 48.9974864090808
403 0 175.280941063152 90.9257902947988
404 0 187.380870368368 82.9914822067007
405 0 187.264835602545 86.2843516268411
406 0 112.640560527451 90.7296080785685
407 0 192.391125094969 88.1529698895592
408 0 101.384557828101 14.5150472872513
409 0 70.3458247428069 14.1710907933554
410 0 55.6063531607253 14.1831300973681
411 0 40.4854577498268 14.4029095520243
412 0 185.809419473971 44.8939633552799
413 0 30.5741827767126 85.9870744204493
414 0 39.8045782724516 86.1472606356592
415 0 159.786447684215 14.5646354030726
416 0 72.4212485498415 86.1814036771268
417 0 13.9281008203265 36.0709347199167
418 0 83.9111637332807 86.3459692590036
419 0 98.4311160400967 86.785088913104
420 0 13.9790664906237 74.3358282558535
421 0 105.971462443404 85.94773813263
422 0 15.4303307803387 19.7284601460072
423 0 111.346236017194 87.2256545378485
424 0 185.352456534194 29.8229456835068
425 0 175.122208105557 14.8228067169789
426 0 178.311686739724 84.6214475988185
427 0 124.377776744976 86.8465819520633
428 0 185.137696150471 72.7961473912345
429 0 132.731436866362 86.6870102043786
430 0 186.130469272544 54.9246938072355
431 0 124.965511598719 14.2387181583261
432 0 21.3164643613801 85.2928508721861
433 0 136.427598070744 86.0734834844504
434 0 134.753585297163 14.3103541711762
435 0 141.716487627113 87.4900687661155
436 0 12.3640090272292 58.049975414754
437 0 63.6449585525723 86.2859302865567
438 0 187.273534017895 79.5599633276362
439 0 12.4733209974044 43.9283364918642
440 0 150.449789621354 87.7750942226588
441 0 49.1452960014568 86.0370069044991
442 0 11.2582024311302 25.9850960683088
443 0 53.9740226641177 85.9621545720412
444 0 120.095494584601 14.2391505326873
445 0 25.5269446734771 90.3763042638847
446 0 10.9362328973468 70.465953950097
447 0 60.58914621894 14.1598086330364
448 0 159.148915700365 87.1879833282816
449 0 149.743549359765 14.4006276442622
450 0 144.745547454601 14.3849414548487
451 0 185.659260755034 39.8203291392899
452 0 110.654257236844 14.216070119349
453 0 24.8614503289765 14.5271487086182
454 0 90.4665474102789 86.7796528308999
455 0 16.1111629206616 83.7341175311477
456 0 75.4993144515203 85.8922903593913
457 0 184.189704551137 85.6205601309494
458 0 29.9007449892806 9.67304502651844
459 0 19.9671735888035 14.6473451968095
460 0 80.1303705987285 9.56675216796923
461 0 179.236360015246 91.4062506847871
462 0 50.6577567919494 14.1951921964423
463 0 170.03538231741 9.85399060121506
464 0 185.081401744901 14.9468345229892
465 0 186.189847103239 64.3601881994275
466 0 185.237798659886 24.8659451973424
467 0 115.867967493632 87.0188796003024
468 0 95.8714515802992 15.7784136072303
469 0 84.7746785048038 14.3373321222954
470 0 14.8957620349692 49.9271354226552
471 0 16.1759261572941 56.4280075571859
472 0 168.646058928803 89.0368484990208
473 0 192.290321774702 91.2362591153372
474 0 161.461367194078 91.4995654395978
475 0 145.897515854584 91.0048611724215
476 0 7.77837453912092 63.0233235198917
477 0 149.490593517526 18.9084960921211
478 0 124.678134292582 18.7574461961925
479 0 98.8319945403621 19.1262779919431
480 0 56.2690366983565 18.7070961328969
481 0 160.923240167289 80.7438268611291
482 0 181.068088907058 44.8220293600878
483 0 181.612655238907 68.3199714407381
484 0 52.7883089585641 80.561116252304
485 0 71.3380885883098 82.1233752775601
486 0 112.212947222745 83.2241424552426
487 0 16.483867024223 24.4211404513017
488 0 79.9093822119496 14.2146150001408
489 0 164.933859948172 14.6513568322077
490 0 29.9486727412326 14.5338667698984
491 0 180.541811749998 29.6797285875307
492 0 172.830282396942 83.2514002016588
493 0 14.025973412256 31.9136478314773
494 0 14.5734445120034 59.0506941177446
495 0 13.8534805997663 71.3024382449104
496 0 132.163525145509 83.1625367723967
497 0 25.9509580448603 85.7703938231442
498 0 63.0095920306202 82.0417879353282
499 0 75.1078997497786 14.1711008672981
500 0 45.6775565662593 14.2482635129788
501 0 106.047161195525 14.2508828663044
502 0 185.961417402081 49.9580813165924
503 0 65.496754583476 14.1521923027613
504 0 19.0778779389374 80.6194106688927
505 0 44.4070389290087 86.1507003730272
506 0 35.1677821053876 86.1127287692584
507 0 155.878325794698 86.1992889686132
508 0 139.071641947842 85.3883919081587
509 0 186.240617499383 59.7134413513307
510 0 119.989966341413 86.9202470730605
511 0 20.3496067833529 19.3576704625163
512 0 170.065830627367 14.7327137851457
513 0 35.2344886564171 14.5671429563634
514 0 94.4603815037941 86.8459310924916
515 0 129.812490547452 14.2389507152306
516 0 14.3969453765796 40.3127339604708
517 0 79.4381001539345 84.6991761756179
518 0 185.507275180651 34.7979166613517
519 0 14.4638041015936 78.6283504134769
520 0 120.020722048461 18.7623327063871
521 0 110.988360785146 18.6868110565437
522 0 180.113726771755 14.8922273102846
523 0 185.149083670145 19.9070926940659
524 0 89.7829561968242 14.7216854090172
525 0 144.496126247235 18.9677432191456
526 0 134.182113783692 18.8497737384514
527 0 154.704461566561 14.455590182104
528 0 162.495630304585 87.8628880780059
529 0 169.854998446653 82.5277942660139
530 0 184.129510559474 82.4077909290449
531 0 18.4305260317619 50.3647674939211
532 0 175.608502854661 84.0498960474675
533 0 15.0446056782681 46.9446039431947
534 0 181.178348780079 85.0849870372957
535 0 145.956243154675 87.540364662721
536 0 19.1189620098043 57.1196372187127
537 0 165.690850179967 88.3625968342995
538 0 108.572269395491 85.237590964384
539 0 12.1022787918254 46.3185538869634
540 0 12.479256070995 61.7708805104325
541 0 68.1271210294269 86.3306457484307
542 0 128.715627094825 86.8824972323261
543 0 186.946043549965 76.9455245961045
544 0 102.347931053472 86.5081762361741
545 0 149.317835198554 22.2244132735611
546 0 124.319541434388 23.1451447728664
547 0 79.4054270895674 18.7051490686757
548 0 41.6066890656047 19.2220623510581
549 0 30.5910524037556 81.6350032802211
550 0 39.31767253922 81.8399646303983
551 0 17.9610644649694 36.4793955717324
552 0 82.9959023138009 82.2176489830235
553 0 94.3976521421631 82.9368164507884
554 0 175.932383161209 81.9560331335164
555 0 17.3639275597977 47.4721379170967
556 0 101.762827740505 82.7654248702037
557 0 21.2624688932397 23.9520964793596
558 0 51.4971198077294 18.7317318439053
559 0 65.7180617525 18.6776253912325
560 0 159.450982157103 19.3935643605164
561 0 181.180498998878 72.1013950395448
562 0 115.562653981784 83.3778119496699
563 0 181.892129489297 59.7417638492963
564 0 170.170773115995 19.5866408982906
565 0 180.214304076016 19.8241035521734
566 0 180.762772987547 34.6345034999365
567 0 15.6423561701993 63.213315337977
568 0 123.795191804327 82.2466230325396
569 0 163.86403130192 81.3482666545773
570 0 106.579102484259 18.6750594492123
571 0 35.8157434226813 20.3054413769393
572 0 25.2019994803338 19.1677490469211
573 0 129.351892738769 18.7502382510527
574 0 58.3809546958344 81.6427492739571
575 0 61.0441423086191 18.6723066720325
576 0 154.318320358279 19.1199684957469
577 0 135.82265866243 82.1851059833466
578 0 47.9793437782595 81.6198235855191
579 0 17.9810562993941 73.5277609753751
580 0 18.498024637859 77.6177155063075
581 0 181.885983985882 64.1742635355175
582 0 128.494730316673 83.1475091312836
583 0 20.7351822255851 52.2958064827526
584 0 75.1417435993737 81.9398959869161
585 0 180.360933467169 24.7479833704886
586 0 180.953232887234 39.6649121113241
587 0 70.3067023605269 18.6640340621427
588 0 93.1177259020373 20.3789706303073
589 0 83.9883950314059 18.8439771551518
590 0 139.27201697458 18.9706263850084
591 0 14.9507100231639 43.9632277155854
592 0 142.711760309036 83.5455591170733
593 0 181.600283860463 55.0570065496828
594 0 115.455583479771 18.7294417625141
595 0 13.2161500882673 66.7128748232045
596 0 157.988716256705 80.1215511519657
597 0 166.829617894755 81.931853751406
598 0 174.001883296021 79.8123246926296
599 0 17.5641048708971 60.0309990805085
600 0 180.999917713731 81.9843146596202
601 0 22.1414433008526 57.7893628339112
602 0 108.885690389284 82.7084263758217
603 0 67.2958182980311 82.1665979631364
604 0 145.930943131521 84.111378151344
605 0 152.682468795878 84.4552230523437
606 0 102.168626728129 18.8424225322973
607 0 181.226718796126 50.0508191794705
608 0 22.0997605240161 81.078172075413
609 0 14.4333205250872 28.930124955409
610 0 184.058767145216 79.2178212702278
611 0 146.27758034888 77.7235530720579
612 0 111.207084770222 23.0404705242184
613 0 83.1734786357977 23.1567946843865
614 0 65.9525376614144 23.031990988392
615 0 177.286616886186 55.6726709031096
616 0 161.122190876464 77.6079036662886
617 0 49.5654896847269 77.416156966512
618 0 177.658633989831 68.2293514064508
619 0 62.4652809258869 78.0513302001511
620 0 176.268520096984 39.4062201095371
621 0 74.41617191513 78.0886915262712
622 0 97.4675880060432 22.8088562112516
623 0 57.1339836321771 23.082335943334
624 0 21.3906149248329 49.1146318945186
625 0 177.550296549716 78.8409159357727
626 0 25.953949058659 23.621631839953
627 0 119.912391679183 23.1543737256118
628 0 19.1897289703117 64.2964655347918
629 0 112.777498889524 80.1842477799242
630 0 90.653826530371 82.8172418445961
631 0 17.62455971077 28.6427256249788
632 0 133.462966432651 23.2345115914962
633 0 46.6723557160336 18.8536081796545
634 0 176.247363154501 44.5779013177785
635 0 74.8393575929562 18.6557334647028
636 0 22.0838275935166 73.0679678392346
637 0 153.521663631193 24.0617496260285
638 0 34.9314850383721 81.7829826271415
639 0 180.828668998372 78.8481004207067
640 0 177.825498085423 64.260622441939
641 0 139.54526393585 82.8407213443821
642 0 58.2666690974042 77.6360489974746
643 0 30.1149115991518 19.2493944204825
644 0 119.171418937115 83.0262948155023
645 0 164.859821785456 19.4903534119558
646 0 175.736115279983 29.4868910384892
647 0 79.0115794942108 81.8785362970511
648 0 175.452824752473 24.5945083112043
649 0 88.6385170377879 19.2864041741775
650 0 23.1685248128937 51.9350188554695
651 0 66.5815418431712 78.2093959009081
652 0 22.2990990236153 77.1754212734536
653 0 138.532702757534 23.476421870342
654 0 144.773923828868 24.0471463341991
655 0 175.243728347811 19.7081723112054
656 0 17.1985609371482 68.9588623045295
657 0 43.6275870397917 81.8347174682154
658 0 18.3126797186084 40.6212476815496
659 0 143.362706660495 77.1024755102435
660 0 125.428632850535 79.1104656312235
661 0 155.055438264336 79.5078290767063
662 0 152.128441837936 78.9112133609149
663 0 170.198768418218 79.198386095475
664 0 105.435761939554 82.5220454424681
665 0 167.05504502345 78.7206230289307
666 0 20.7705994699522 60.8503835177958
667 0 98.1053056092351 82.9728450224985
668 0 25.2110476793022 58.4227340100248
669 0 86.8642701124273 82.6069458283124
670 0 184.373964872407 76.1516551834612
671 0 17.9684866030954 32.5729806194697
672 0 178.089058992351 81.8566059021218
673 0 26.2368764487502 81.4235164932184
674 0 106.890317860747 22.9807814442383
675 0 18.9414174123671 45.289154855157
676 0 128.82275977957 23.1405826991296
677 0 131.702095104911 80.2293361255421
678 0 148.420002457326 84.3737761302106
679 0 131.682525232454 74.6460589184405
680 0 124.089323409663 27.4351329131164
681 0 107.05609853868 27.2374617198236
682 0 146.439430807399 74.6378841445663
683 0 38.6207959892508 77.7206286286456
684 0 171.569466947442 43.9791887198367
685 0 149.352901095405 27.6886687156405
686 0 22.9707941461261 45.1973268840753
687 0 173.994828871657 64.5452856139505
688 0 170.385258232529 75.6986483237895
689 0 62.0032254985604 74.2776847606786
690 0 86.6583069086993 77.9109796449613
691 0 78.8528170483029 23.0393233361738
692 0 21.7597192760087 37.2350152298696
693 0 97.9752135936286 79.5511783164222
694 0 78.3116554193301 78.0280099233131
695 0 22.9700687597044 64.9684587065793
696 0 105.302647744775 78.4302518445919
697 0 155.257088351172 76.3724724713465
698 0 22.763960965888 29.1109467811546
699 0 46.5934700409702 77.6394703369421
700 0 132.878212015263 27.5579365022689
701 0 61.5788828713394 23.0378864150794
702 0 70.2386058663035 23.0020921649096
703 0 165.169831329447 24.2638497098227
704 0 33.643417740617 23.5125703641803
705 0 43.4068674256905 23.7608683173205
706 0 115.145760746663 80.8933781916474
707 0 170.891110256628 29.2373438159501
708 0 30.409271714124 23.4300504759381
709 0 26.1686374496096 73.1312353350992
710 0 30.393528015473 77.4353117997953
711 0 22.1000417188841 41.2284584383633
712 0 177.731719551078 60.0633582551055
713 0 158.458535042587 24.4383845687793
714 0 22.2091454272083 68.9635169454079
715 0 54.2514242137658 76.4166640079956
716 0 87.4536066548585 23.4592157419643
717 0 94.3020902599515 24.8636711174035
718 0 70.5366754805968 78.2191689071651
719 0 52.6107376162158 23.1255826056058
720 0 175.714529898015 50.5535646579666
721 0 121.086480363825 79.0168344081451
722 0 109.476783459395 79.4741314184815
723 0 24.3155170284116 48.9560378734872
724 0 25.5137919259097 52.3365378560053
725 0 170.441774806043 24.4141968797257
726 0 115.534823307279 23.1125638415432
727 0 176.032694405409 34.4074757783542
728 0 26.268642830495 77.2631594686651
729 0 102.506349189008 22.9977683794758
730 0 140.449673659692 76.4803832950742
731 0 128.75151682328 74.0223289973007
732 0 149.207138322464 78.3176393242327
733 0 123.140634710011 78.0126096880693
734 0 158.198021995723 76.983106299921
735 0 90.9471689800531 78.9014383527165
736 0 24.0920693452765 61.5264787624138
737 0 164.069429370188 78.1883130968638
738 0 28.2970308983746 59.0351855999179
739 0 180.883404228587 75.6066931343334
740 0 173.779272745083 75.6871733023323
741 0 86.7416309764073 86.7041822946931
742 0 128.519782643871 79.9086698380904
743 0 133.910983847375 80.1409998932849
744 0 66.013387854927 74.428717607706
745 0 131.858738124425 71.5613138742951
746 0 82.6515827946264 27.3415679463566
747 0 66.1230741035062 27.2332502679395
748 0 53.6674109282659 27.3658606997706
749 0 26.389091483159 45.643910291725
750 0 158.47049181337 73.8180060440999
751 0 49.8797461313078 73.9893144065713
752 0 69.8582883399176 74.501975194867
753 0 77.3805115950424 73.4518150690048
754 0 30.1425583716516 73.3805897587622
755 0 65.8731315294106 70.800857822658
756 0 171.342493193828 34.0943940293412
757 0 26.6858420447996 65.4527595036684
758 0 173.961006241841 68.3803486265403
759 0 122.904753386015 72.7832442758191
760 0 134.615151055793 75.2553864765788
761 0 149.380184630255 75.2197520759748
762 0 88.5155436686753 74.1969747967772
763 0 161.804843066251 28.5310325346408
764 0 98.4383756223327 27.4216855091506
765 0 25.3947806668189 38.0539344977737
766 0 31.2967857985993 27.2974313746838
767 0 173.467524538743 56.4918301648329
768 0 170.947714828881 48.7134331794219
769 0 173.852809612046 72.0461119767383
770 0 82.2654556627502 78.1896586421091
771 0 27.2062432630118 27.8068174939898
772 0 27.4189729118209 49.3287568055358
773 0 171.60761620484 39.006885501983
774 0 48.0220945354531 23.2900631606631
775 0 55.1554554180333 73.9604973244847
776 0 26.2606414568204 69.2124805800102
777 0 28.3953403346747 52.8121002335581
778 0 101.284852893072 79.3599479263945
779 0 154.18621692172 28.487168948676
780 0 137.575316087778 27.8514165963229
781 0 145.301887720053 29.5967107576922
782 0 34.5093348611059 77.6226803664886
783 0 91.4727867768233 24.1009677799118
784 0 119.849770049535 27.4460149387545
785 0 111.326441547824 27.3266471041719
786 0 137.536082835462 75.8642918504726
787 0 58.0813851575511 74.1064815931596
788 0 143.521859591405 74.011222239237
789 0 125.826089937694 73.3989540253431
790 0 94.5845698873678 79.3572761698883
791 0 107.275919602703 75.3246303774143
792 0 152.32660225585 75.7862259130202
793 0 27.4301622767881 62.1203775695387
794 0 167.250503694706 75.4317313746493
795 0 164.265511609484 75.0140397704884
796 0 39.0917273611159 24.937794575779
797 0 21.8778088795942 33.431315652964
798 0 31.377923212623 59.633971521367
799 0 102.688327088504 27.2265331254761
800 0 177.350813438028 75.5432980062945
801 0 110.280160807174 76.3496574165804
802 0 128.44744297626 27.4506508957247
803 0 42.6416098674328 77.7582939412523
804 0 173.827962705046 60.5074079736337
805 0 117.197602134887 78.9556421473969
806 0 25.6938292344084 41.8461727690916
807 0 111.220213349542 70.3297745909675
808 0 124.034502893307 31.6596982496928
809 0 149.531307573585 32.6874817162361
810 0 146.652292764031 71.5204085664632
811 0 98.6912672044008 31.4719653063723
812 0 29.7008342943181 46.2361532514043
813 0 166.742034695815 47.8930226324108
814 0 41.6887245660274 73.9035152925626
815 0 170.338640917656 64.8017512793347
816 0 53.1464152063876 71.0849429252599
817 0 78.4865360009832 27.2454010507176
818 0 30.2444338592908 65.9364974585278
819 0 34.0559294674611 73.6317001015557
820 0 45.1977569332374 27.9025010458668
821 0 167.320334656891 72.1020639360465
822 0 107.194793574211 31.430223301013
823 0 69.5069209303681 71.0413862440718
824 0 125.984427374041 70.3113237310895
825 0 25.7094220925326 31.8428206645963
826 0 132.55911846335 31.8354478758116
827 0 70.188797177205 27.2042189193883
828 0 98.2552046037003 76.6136389951196
829 0 62.0277686959494 27.261498430746
830 0 91.7316620963639 75.425930192182
831 0 167.104842920124 38.5374978680582
832 0 73.5158675577537 74.3592383651452
833 0 84.4304267192708 74.6455967079442
834 0 30.0717059241849 69.5596973807018
835 0 172.969445703042 53.4710573850663
836 0 49.3675127891521 27.5122051927454
837 0 30.5467860003872 49.8847259939096
838 0 31.3861436611803 53.3811348147259
839 0 35.2110271361247 26.4031205994358
840 0 86.7979586055056 27.5197254919486
841 0 115.595873111039 27.4013565775113
842 0 61.5457311907519 70.0983822837874
843 0 141.676225150859 28.3494686881904
844 0 105.104666396469 74.185950713782
845 0 158.118697606308 30.1615330138628
846 0 140.613759969011 73.3845837228002
847 0 134.791976091064 72.1675641159503
848 0 119.998279129019 72.1686636513683
849 0 108.280546894196 69.7017410315099
850 0 155.525241133255 73.1776394414495
851 0 25.4666249174504 34.4627349471841
852 0 94.5020472805949 27.7384489020496
853 0 128.922484294424 70.9314249167809
854 0 29.1787835020209 42.4891072099927
855 0 152.542029194802 72.6123513880821
856 0 166.750315329294 33.7366478329853
857 0 161.369099909213 74.4596971992676
858 0 30.7281652612368 62.6774140772464
859 0 34.4362207364622 60.1996168209752
860 0 45.4420956332431 73.9204830419671
861 0 166.044754682733 28.9103743354191
862 0 170.509778989745 72.1294418561659
863 0 28.3935690841842 31.5419077095486
864 0 170.067477353919 60.8094137791425
865 0 113.449473235027 77.263906767654
866 0 177.478767069241 71.970904718532
867 0 57.8563762142353 27.2978552876262
868 0 135.016633001824 69.0299012481122
869 0 111.386319576341 67.230359387622
870 0 82.4210493773794 31.4231151895225
871 0 66.211616958397 31.3092629922809
872 0 50.4369107750811 31.5199414797902
873 0 32.9953529735066 46.90814393175
874 0 155.808455633001 69.8400922271841
875 0 47.9494691055359 69.9820951570906
876 0 166.728802667365 65.0314842950411
877 0 33.7154917491954 66.3711900662403
878 0 94.5792345550614 31.5721432020014
879 0 114.159808510089 70.9428897755028
880 0 129.111125905182 67.797764066998
881 0 28.9177928130754 35.0709748044176
882 0 78.4574867982025 69.8047264075937
883 0 37.9168834604189 73.8199088105327
884 0 57.4671939860046 70.7871298157827
885 0 170.494958522082 68.5186421766945
886 0 66.3868639956789 67.3562431606859
887 0 167.077713566159 43.2803828540455
888 0 37.279899093983 30.9550246423777
889 0 33.7764129229015 69.8926994088109
890 0 102.447963563456 74.9404878688112
891 0 85.4323783709469 71.7224770959161
892 0 41.2392203051929 28.8444984666031
893 0 33.6751745979011 50.5187374510512
894 0 95.0818335684888 76.1251040391976
895 0 162.694588818928 38.103468319035
896 0 32.3059924572136 31.2607382396399
897 0 153.913875505377 32.9908620151477
898 0 111.457115196663 31.5227954285996
899 0 119.871155316025 31.6542791920615
900 0 34.3954350595094 53.9962668497843
901 0 90.751899135795 27.7575733286867
902 0 136.930110138917 32.0949033517509
903 0 145.282179212852 32.6812025695752
904 0 58.3859177787523 31.398708086333
905 0 102.921015325115 31.4030913110905
906 0 105.345879226068 69.073447754806
907 0 117.086433915771 71.5551004752594
908 0 123.076534912381 69.6934517745832
909 0 143.746165309912 70.8896133413463
910 0 169.880253841411 56.7855028432234
911 0 164.371904501218 71.9006903848089
912 0 161.657315640073 71.4279877569714
913 0 162.386524476397 33.5468663900438
914 0 149.582212117077 72.0845538272453
915 0 137.710037163334 72.767027629658
916 0 87.7219270278216 70.5117514113374
917 0 128.280963651633 31.7006631589146
918 0 29.0162062952518 38.7239438550192
919 0 33.9759658600178 63.1770524730364
920 0 74.32875671129 27.2021682294433
921 0 37.4760544396243 60.6706560541397
922 0 72.7970095608393 71.1134851725802
923 0 170.163752967699 52.8656770708516
924 0 32.7258554640372 43.1859867915903
925 0 90.7288719134247 66.024122108797
926 0 67.31745841561 61.1013057170286
927 0 149.495126274376 36.9671023097443
928 0 128.244452502185 35.8768187942383
929 0 98.8722306149953 35.485427940211
930 0 36.2232576702813 47.6734808623691
931 0 166.290035791747 52.2920176256387
932 0 146.979725680074 68.5088164566293
933 0 81.9368879923721 64.1364827284148
934 0 40.417305189548 32.9989659303583
935 0 162.700570559095 42.698196527235
936 0 107.345762978527 35.5223673264866
937 0 37.1588883486858 66.6742293036674
938 0 86.5200032210661 31.5222476717286
939 0 44.6159718143604 70.2559812277822
940 0 137.93547982073 69.6289075779029
941 0 57.1033265439213 67.7602972645425
942 0 46.5225971641943 31.7512561613615
943 0 63.2163032182626 66.5941547792421
944 0 78.3253382403549 31.3434552390739
945 0 115.682289644697 31.6017244244224
946 0 141.168609342693 32.4650319212934
947 0 36.7825062514393 51.1972590025036
948 0 37.401040594195 54.6327294990763
949 0 54.3936514225768 31.4349542133034
950 0 158.301751663819 37.7154465543742
951 0 124.088565270574 35.8151117880737
952 0 37.4262726869432 70.1351324601183
953 0 120.182875303882 69.0819852521219
954 0 114.34359183338 67.8510716364607
955 0 90.5681122247805 31.5951961594862
956 0 102.420953032044 68.4525191464452
957 0 87.7988630346483 65.3961301961963
958 0 166.21721361054 60.9571385683983
959 0 50.414491631109 69.3770035686705
960 0 108.429966331188 66.5882643140636
961 0 72.7032460477164 68.2325571333414
962 0 132.475694967983 36.028345147935
963 0 167.164602344633 68.6526946724095
964 0 37.2130376703048 63.5327311999582
965 0 32.7574201717018 35.3062259230698
966 0 126.159718769768 67.1842973437708
967 0 81.6884879892147 70.7400626136307
968 0 69.6765368477066 67.8455261252659
969 0 132.07838494053 68.4124213911626
970 0 158.175408132309 33.4190046377905
971 0 89.77276759657 71.4847272767861
972 0 164.112300161681 68.8699048403147
973 0 152.64145597088 69.3424299616586
974 0 32.7962980663061 39.318595460849
975 0 70.1859486294546 31.2866764304346
976 0 40.4905333266615 60.9378821990601
977 0 158.89324989041 70.6278065342402
978 0 140.849679220344 70.2489586490845
979 0 62.2819004357127 31.3385293628946
980 0 95.757352329848 73.1577331632391
981 0 75.1098964387842 70.9972883359394
982 0 75.5508433325043 68.8698034745304
983 0 74.5615860456279 22.9830285649238
984 0 98.8521151163296 73.8444047058536
985 0 36.1346347370667 44.128711906036
986 0 166.05999161017 56.6273934770764
987 0 138.265090837778 66.441904100252
988 0 114.581049831381 64.7044852769923
989 0 90.8779868508608 62.9233751763465
990 0 129.274637524883 64.6098333222253
991 0 78.2679640085119 35.3914145198573
992 0 58.7147770679061 35.351836004196
993 0 128.284100798134 39.9558455283552
994 0 39.3530480222452 48.4495417333885
995 0 161.977043052448 56.2657713601247
996 0 47.4511964897124 35.4537633061185
997 0 159.96057791055 67.0713737588053
998 0 158.249645159289 42.1739279741665
999 0 47.6379045479469 66.7608433842817
1000 0 86.4894173106098 35.4910712926962
1001 0 94.7068817105121 35.5245228814857
1002 0 76.0768390203589 62.8932188718152
1003 0 70.2430267142847 61.7191077620026
1004 0 53.9144995529578 67.4792055014923
1005 0 66.2848422825033 35.2720804808281
1006 0 96.5855984241658 67.2462681397184
1007 0 162.439334634445 47.2449158998227
1008 0 39.8568663871803 51.8805362622393
1009 0 103.099923182064 35.4655973025794
1010 0 153.878623569045 37.3266248016336
1011 0 40.3972247144088 55.2725929567425
1012 0 74.2442490110379 31.2965323699891
1013 0 136.734278363708 36.2538271332664
1014 0 145.188351131794 36.7281083393107
1015 0 54.9311406907731 35.3681960274799
1016 0 111.574615218879 35.6310162708055
1017 0 119.947275698506 35.7866973388392
1018 0 37.2327413916998 40.2191169440089
1019 0 36.8476994816925 35.5605435297096
1020 0 163.310260519939 65.6165007491425
1021 0 144.148877956463 67.7942606218998
1022 0 64.3832741689795 60.4609726349906
1023 0 123.262882586321 66.594426901437
1024 0 105.486379330182 65.9483350985616
1025 0 99.5048400434245 67.8424022271573
1026 0 93.6648150685827 66.6347332582013
1027 0 84.8709401942711 64.7647014316065
1028 0 79.006730277687 63.4967296047185
1029 0 111.595844691672 64.0559499970001
1030 0 135.311184792347 65.8266767137569
1031 0 40.5106315023883 63.5961275813624
1032 0 149.740798213294 69.031093568276
1033 0 117.279876033551 68.4637799218581
1034 0 156.170049179424 66.3789076108006
1035 0 42.8158290196875 60.9085624859187
1036 0 92.6816619282727 72.4340821311029
1037 0 161.998477654187 69.2072900483398
1038 0 41.0502795163138 70.2553946830449
1039 0 40.7155303870189 66.766902877976
1040 0 161.645027075874 61.3716241726318
1041 0 81.7019833640993 74.3198726858639
1042 0 100.672041834523 77.0577639536116
1043 0 82.0551900348855 60.9554854748705
1044 0 138.679656943164 63.1765392989668
1045 0 114.946080423995 61.4571413418771
1046 0 70.3956942685551 58.6195036612051
1047 0 99.0605907630186 39.453899614361
1048 0 55.3408748780242 39.208035882182
1049 0 42.4579814491452 49.1254632699024
1050 0 149.316450229335 41.200252070935
1051 0 107.34475843295 39.4829827413832
1052 0 74.1976049133314 35.3299538926065
1053 0 41.1060317740158 39.2722698485577
1054 0 157.678796461514 59.7655070614239
1055 0 99.6516916604924 64.7245396110191
1056 0 93.8178037446674 63.5411250715877
1057 0 149.734590849994 66.7431789375509
1058 0 117.536579444068 65.3445373760602
1059 0 38.8517660946337 45.1237119999672
1060 0 153.734052910411 41.6759747366912
1061 0 70.197807256529 35.275645522054
1062 0 42.919538608544 52.5352200454867
1063 0 43.3915265466347 55.9046561812151
1064 0 50.826167356593 67.0336110789722
1065 0 159.334443967998 63.8781500148442
1066 0 90.6044791643296 35.5223724835159
1067 0 140.971474207577 36.5038897294558
1068 0 115.776010543889 35.723272468368
1069 0 132.466214446317 40.1183659010392
1070 0 51.136414446681 35.3875160237963
1071 0 124.156874925479 39.8819926563165
1072 0 82.3970850811317 35.4393754994004
1073 0 162.165150174684 51.7458744879166
1074 0 67.4610899283651 57.9691754097762
1075 0 87.9456817429693 62.2786340079128
1076 0 73.1650005576664 62.3016906170068
1077 0 147.685393406861 65.7276586925227
1078 0 61.4340022547708 59.8267296215965
1079 0 108.612160908014 63.4052371493417
1080 0 126.25620987428 64.0559552616892
1081 0 79.1024982278466 60.2907642727151
1082 0 102.565189443284 65.3211730701273
1083 0 40.5611514551544 35.7298713832947
1084 0 44.2996802063466 66.7262797382063
1085 0 132.305506114925 65.2117434412281
1086 0 152.177780776499 65.340891820583
1087 0 120.413793422317 65.9884592228704
1088 0 44.4741764101342 62.8941769233421
1089 0 141.231878382247 67.089144575384
1090 0 57.5525323481695 65.0178563061331
1091 0 62.4789842307568 35.2939058721292
1092 0 43.9428375510653 35.6405960938677
1093 0 157.957343105981 46.7247197316117
1094 0 82.2191899183432 57.6294800051289
1095 0 94.0028886102801 60.4078739051351
1096 0 129.314217235134 61.3883294457178
1097 0 70.7439810006855 55.4978524835902
1098 0 78.2698115646228 39.5097632561551
1099 0 90.7971716105784 39.4373041208036
1100 0 128.331186230087 43.9103109501647
1101 0 66.3737104955235 39.107354266355
1102 0 45.620479036524 49.7257623781146
1103 0 148.863195107154 62.6954495893553
1104 0 157.788496555369 51.3852998378944
1105 0 42.1491217290749 45.8020069513496
1106 0 102.7288799564 62.135734169823
1107 0 73.2968630786467 59.182894355178
1108 0 44.5423450615018 39.16001228037
1109 0 51.6465218372698 39.1924961008327
1110 0 59.022466670942 39.1722885372541
1111 0 141.753295020276 63.8574543455212
1112 0 103.173579288824 39.4150756072884
1113 0 157.905519291797 55.8962024658128
1114 0 70.1610360243045 39.1638806555604
1115 0 46.0066374591373 53.1727868281459
1116 0 94.9336100194542 39.4663508520792
1117 0 46.3978183259101 56.5354495791842
1118 0 111.555759485329 39.6326838852868
1119 0 120.023002743523 39.8484276101069
1120 0 136.662369573248 40.3407213956829
1121 0 145.022102370314 40.8540965349513
1122 0 82.5153699631294 39.4850562889501
1123 0 48.3791652673431 63.5789448062349
1124 0 123.389141426236 63.5984422008715
1125 0 117.970923648872 62.2134943274212
1126 0 64.4666596220044 57.3090991850248
1127 0 156.866172748189 63.058633954942
1128 0 91.0693583490273 59.7753837800311
1129 0 58.4655739116627 59.1882247831346
1130 0 76.180139602221 59.7131139261051
1131 0 111.864617837484 60.8016289103582
1132 0 85.010965211037 61.6144474986113
1133 0 96.7449485144815 64.1318164820961
1134 0 105.656663340163 62.7541993614368
1135 0 51.5859096499716 64.0599962180306
1136 0 135.608035453905 62.5522178052546
1137 0 54.6479624546715 64.5460218739208
1138 0 39.4286556974063 42.771801566639
1139 0 42.9113243886584 32.3317451763404
1140 0 144.805943185825 64.6819537988095
1141 0 60.3587992138671 65.6918836391944
1142 0 142.330834635232 60.4510893507113
1143 0 119.12881121736 58.7866573177317
1144 0 99.2306719288905 43.3710513376755
1145 0 59.4736356161791 42.8843697766376
1146 0 78.2284685419126 44.3300236401997
1147 0 94.2117384301694 57.2528196407477
1148 0 70.0111633824665 42.8876258839669
1149 0 48.8850130067919 50.379372193938
1150 0 107.02735660942 43.267215313171
1151 0 154.234956966495 56.3866357194932
1152 0 148.865499005359 45.4961141988399
1153 0 45.3372709348266 46.2289834512151
1154 0 105.844173125423 59.4732818453559
1155 0 96.928458738018 60.9850865766864
1156 0 85.2053047650435 58.4092573156877
1157 0 91.1044357343953 43.2569514183913
1158 0 145.612904141628 61.3019525016708
1159 0 48.0293009583798 39.1714552798046
1160 0 155.137870525346 59.2332105654617
1161 0 132.443243179045 44.0946899443833
1162 0 115.803819139601 39.7659836843703
1163 0 49.1367185553265 53.8487564666966
1164 0 52.4539187025007 57.8585434116505
1165 0 140.833155677935 40.5843453371245
1166 0 86.7016437518264 39.4117005093556
1167 0 124.264834783766 43.8331765074554
1168 0 74.1193089729792 39.3603473355703
1169 0 52.0921046897836 43.0665732760767
1170 0 49.4196816721646 57.1811697007001
1171 0 79.1721037081889 56.9091951349734
1172 0 126.154264110819 60.955294457427
1173 0 67.7651313650901 54.72344175562
1174 0 152.56322337807 51.6420901046359
1175 0 55.4680632057446 58.5291303648416
1176 0 115.342122165244 58.1081536652883
1177 0 61.4434016789527 56.6747119663774
1178 0 132.469637670775 61.9512207280657
1179 0 108.839996494692 60.1322984891736
1180 0 139.092629133088 59.7700897884351
1181 0 99.8320070583653 61.5475454290068
1182 0 88.1420565352231 59.1112902541549
1183 0 41.7693800833072 42.63633269388
1184 0 73.4901048544022 56.1478553351665
1185 0 62.7027458455056 39.1131754497033
1186 0 153.812315763943 61.4887872032264
1187 0 120.725783439009 63.0324806209778
1188 0 153.321819167736 46.2402128753618
1189 0 59.5527245141975 67.7336567653398
1190 0 109.140861794363 56.8105500456122
1191 0 129.176226870766 58.1341272324207
1192 0 88.3528619092217 55.9566037114629
1193 0 82.5627892111256 54.3137909133436
1194 0 142.874989133367 56.8014779948982
1195 0 118.59881600187 54.9482016252535
1196 0 52.1836604149816 51.2755300617372
1197 0 73.7278198039789 53.9517770539725
1198 0 128.442783501713 47.7067835900816
1199 0 87.0993046082209 43.2542159925085
1200 0 148.011641986106 49.7719931072612
1201 0 66.4806609824565 42.7422418118302
1202 0 55.3716769505571 55.3548669446231
1203 0 121.104103283823 60.9172155271053
1204 0 73.7729625939673 43.28534228398
1205 0 82.9884831583741 43.5559858583682
1206 0 95.1684359856845 43.3930530508545
1207 0 103.094167817251 43.1912608618636
1208 0 48.7464845400194 46.7200786448809
1209 0 48.4755782883412 42.9365282517529
1210 0 111.286205498074 43.5477417143409
1211 0 120.109514235327 43.8498506505817
1212 0 52.2750030788253 54.5895040026576
1213 0 136.545817164208 44.3448101718071
1214 0 150.536216434965 58.3974735402376
1215 0 55.8421982289098 42.9970458904483
1216 0 140.598985024086 44.6207485761294
1217 0 144.650965064603 44.986006384556
1218 0 102.911453831377 58.8631855514436
1219 0 97.1344792341126 57.8220848883614
1220 0 71.7357538840258 52.151995424521
1221 0 58.4103915939828 56.041651157156
1222 0 64.5795579012294 53.9801870574443
1223 0 135.837546556331 59.172779226313
1224 0 63.0264077480972 42.778318749819
1225 0 112.188468181959 57.4927930299899
1226 0 91.2705355438786 56.6218119079226
1227 0 76.2179783605074 56.5380813168022
1228 0 149.827044917071 54.5094190976742
1229 0 123.199021854711 60.8021860357686
1230 0 45.0172022443242 42.7282034553044
1231 0 102.999884115966 46.0666949730836
1232 0 94.4763542208853 54.0848400712831
1233 0 58.2540895477484 52.9423598252547
1234 0 112.512655915121 54.2580994764758
1235 0 87.7769237289746 46.8183388453377
1236 0 122.603171084613 57.8996137479185
1237 0 80.1645397275274 48.1400060547644
1238 0 136.357835204194 48.2450453697325
1239 0 66.6415440068555 46.0130365995797
1240 0 144.089935020157 49.0489915225676
1241 0 110.791980909904 47.2294507158107
1242 0 91.4022676441549 46.8820620295592
1243 0 74.7025069420899 50.5957711699318
1244 0 95.1961044471536 47.2349623678677
1245 0 63.5791992370163 46.2588319925374
1246 0 56.6946544072373 46.6344975551445
1247 0 75.7907660559695 53.5010868866905
1248 0 132.413339693145 47.9294620602963
1249 0 125.829777401301 57.8530916200373
1250 0 52.9790683292866 47.5624874160064
1251 0 146.356099785541 57.5662366344591
1252 0 115.735220128773 43.7867049528344
1253 0 124.508102394461 47.6154415812561
1254 0 69.6448750275322 46.1647421370639
1255 0 106.11836692244 56.0574460963147
1256 0 132.516652629302 58.6203908017772
1257 0 85.4662890882349 55.2026233849472
1258 0 68.3095917692363 51.596180895593
1259 0 61.3442239443693 53.3952089211141
1260 0 139.462120583534 56.1916302615578
1261 0 115.485941714643 54.859296252368
1262 0 91.4575198682938 53.4586553710183
1263 0 100.020402566728 58.3389924350136
1264 0 79.1970827135542 52.8678237431559
1265 0 55.3037285853716 52.2630778297809
1266 0 117.731853166252 51.8187562356919
1267 0 132.483343322699 55.1919384239785
1268 0 125.376588553912 54.6065142901357
1269 0 85.7907022547976 52.1538646338821
1270 0 147.082398138573 53.753944437543
1271 0 84.0067594844172 47.8846046747621
1272 0 64.8882727581945 50.0180072025205
1273 0 83.1057659056278 51.2981718110798
1274 0 115.579030632293 48.2885161434122
1275 0 60.9601808919286 49.9629043615836
1276 0 120.449432204514 47.7310029581962
1277 0 60.2297411984737 46.4444765098773
1278 0 140.23095908981 48.5971425336035
1279 0 99.7728229419237 47.8093470519941
1280 0 132.429913212929 51.6286710063707
1281 0 94.8761183185452 50.7944892155118
1282 0 100.221829253412 55.1731514770923
1283 0 77.3892592204076 49.3780640190644
1284 0 57.7113224022714 49.8884274182469
1285 0 97.4328964572605 54.7190366421661
1286 0 73.1515176941383 47.3521082707977
1287 0 109.615348438249 53.5588973825085
1288 0 91.5397768357349 50.235092933537
1289 0 135.999187847306 55.6569779756443
1290 0 71.1459647865491 49.4521695038396
1291 0 88.5541586059636 52.8794786067178
1292 0 115.43995407607 52.4963288811687
1293 0 143.474362708016 53.0098548953482
1294 0 55.4289766103398 50.0216663966539
1295 0 128.662533452691 51.3292064825089
1296 0 103.101825089027 55.4955124901941
1297 0 66.9335999227758 48.2334512320801
1298 0 106.204545567633 47.5195289155264
1299 0 107.684526004372 50.3219324875182
1300 0 103.121833043863 51.4228292075054
1301 0 100.343524451624 52.724430397631
1302 0 139.839952187669 52.4601129511326
1303 0 121.916118751752 54.7336313437727
1304 0 112.875512612218 50.8693743942396
1305 0 136.162133733421 52.0042873793418
1306 0 128.922861810668 54.8095216990872
1307 0 106.770828553606 52.7250552467604
1308 0 124.917605631229 51.2158236365645
1309 0 88.5501747934708 49.7296489123024
1310 0 98.1445762254292 51.6719179046363
1311 0 86.2142198694206 50.0281818073235
1312 0 80.9706632436812 50.6534386877729
1313 0 69.0264577499063 48.8767909256466
1314 0 76.2403898642176 47.0969145257867
1315 0 110.232411156227 50.5253370641184
1316 0 121.175364723188 51.3558734788259
$EndNodes
$Elements
1258
1 2 2 1 1 401 183 184 
2 2 2 1 1 184 185 401 
3 2 2 1 1 605 172 173 
4 2 2 1 1 173 174 605 
5 2 2 1 1 289 123 124 
6 2 2 1 1 124 125 289 
7 3 2 1 1 1158 1142 1194 1251
8 3 2 1 1 1041 833 690 770
9 3 2 1 1 332 6 473 219
10 3 2 1 1 175 507 605 174
11 3 2 1 1 443 441 578 484
12 3 2 1 1 633 548 411 500
13 3 2 1 1 1059 985 1018 1138
14 3 2 1 1 1214 1228 1174 1151
15 3 2 1 1 144 886 943 143
16 3 2 1 1 923 768 720 835
17 3 2 1 1 6 332 401 185
18 3 2 1 1 1302 1278 1240 1293
19 3 2 1 1 1113 1151 1174 1104
20 3 2 1 1 1270 1200 1174 1228
21 3 2 1 1 1112 1047 929 1009
22 3 2 1 1 575 447 503 559
23 3 2 1 1 1208 1209 1169 1250
24 3 2 1 1 1174 1188 1093 1104
25 3 2 1 1 1310 1279 1300 1301
26 3 2 1 1 620 586 482 634
27 3 2 1 1 502 607 482 412
28 3 2 1 1 1237 1271 1273 1312
29 3 2 1 1 346 445 497 413
30 3 2 1 1 122 5 113 261
31 3 2 1 1 692 711 658 551
32 3 2 1 1 882 148 149 967
33 3 2 1 1 721 805 161 162
34 3 2 1 1 1104 1093 1007 1073
35 3 2 1 1 924 974 1018 985
36 3 2 1 1 890 696 778 1042
37 3 2 1 1 1047 1112 1207 1144
38 3 2 1 1 958 1040 995 986
39 3 2 1 1 577 168 169 641
40 3 2 1 1 1151 1160 1186 1214
41 3 2 1 1 757 818 834 776
42 3 2 1 1 930 873 924 985
43 3 2 1 1 818 877 889 834
44 3 2 1 1 686 675 658 711
45 3 2 1 1 805 721 568 644
46 3 2 1 1 725 703 645 564
47 3 2 1 1 176 448 507 175
48 3 2 1 1 882 967 1041 753
49 3 2 1 1 998 935 1007 1093
50 3 2 1 1 910 986 931 923
51 3 2 1 1 1105 1183 1230 1153
52 3 2 1 1 410 383 382 447
53 3 2 1 1 1209 1208 1153 1230
54 3 2 1 1 638 550 414 506
55 3 2 1 1 706 805 644 562
56 3 2 1 1 889 952 883 819
57 3 2 1 1 1295 1280 1267 1306
58 3 2 1 1 185 405 331 6
59 3 2 1 1 567 595 338 540
60 3 2 1 1 498 574 642 619
61 3 2 1 1 149 150 891 967
62 3 2 1 1 1250 1246 1284 1294
63 3 2 1 1 533 591 675 555
64 3 2 1 1 836 820 705 774
65 3 2 1 1 151 916 891 150
66 3 2 1 1 965 896 888 1019
67 3 2 1 1 169 170 592 641
68 3 2 1 1 289 260 122 123
69 3 2 1 1 217 218 219 473
70 3 2 1 1 885 963 876 815
71 3 2 1 1 689 744 651 619
72 3 2 1 1 1281 1244 1279 1310
73 3 2 1 1 185 184 457 405
74 3 2 1 1 757 776 714 695
75 3 2 1 1 261 333 123 122
76 3 2 1 1 749 812 837 772
77 3 2 1 1 548 633 774 705
78 3 2 1 1 225 111 112 260
79 3 2 1 1 695 714 656 628
80 3 2 1 1 713 560 645 703
81 3 2 1 1 888 839 796 892
82 3 2 1 1 893 837 812 873
83 3 2 1 1 182 183 401 461
84 3 2 1 1 162 163 733 721
85 3 2 1 1 644 568 427 510
86 3 2 1 1 1264 1283 1237 1312
87 3 2 1 1 1206 1157 1099 1116
88 3 2 1 1 342 365 231 299
89 3 2 1 1 713 703 861 763
90 3 2 1 1 931 813 768 923
91 3 2 1 1 1274 1276 1316 1266
92 3 2 1 1 472 367 213 286
93 3 2 1 1 528 177 178 537
94 3 2 1 1 575 559 614 701
95 3 2 1 1 1285 1232 1281 1310
96 3 2 1 1 723 772 777 724
97 3 2 1 1 604 592 170 171
98 3 2 1 1 877 937 952 889
99 3 2 1 1 755 823 752 744
100 3 2 1 1 451 348 380 412
101 3 2 1 1 994 1049 1062 1008
102 3 2 1 1 177 528 448 176
103 3 2 1 1 1137 1004 1064 1135
104 3 2 1 1 403 288 213 367
105 3 2 1 1 374 311 515 431
106 3 2 1 1 1135 139 140 1137
107 3 2 1 1 1148 1114 1168 1204
108 3 2 1 1 181 182 461 403
109 3 2 1 1 435 508 641 592
110 3 2 1 1 838 777 772 837
111 3 2 1 1 352 279 507 448
112 3 2 1 1 1010 927 809 897
113 3 2 1 1 1135 1064 999 1123
114 3 2 1 1 947 1008 1011 948
115 3 2 1 1 288 403 461 216
116 3 2 1 1 1159 1108 1092 996
117 3 2 1 1 1062 1115 1117 1063
118 3 2 1 1 1248 1161 1213 1238
119 3 2 1 1 1115 1062 1049 1102
120 3 2 1 1 850 874 977 750
121 3 2 1 1 837 893 900 838
122 3 2 1 1 484 578 699 617
123 3 2 1 1 418 517 647 552
124 3 2 1 1 814 883 952 1038
125 3 2 1 1 260 289 360 225
126 3 2 1 1 1214 1251 1270 1228
127 3 2 1 1 441 443 269 368
128 3 2 1 1 1161 1248 1198 1100
129 3 2 1 1 752 832 621 718
130 3 2 1 1 1063 1011 1008 1062
131 3 2 1 1 715 642 574 484
132 3 2 1 1 296 227 202 273
133 3 2 1 1 5 122 260 112
134 3 2 1 1 1265 1196 1250 1294
135 3 2 1 1 343 366 509 430
136 3 2 1 1 591 439 372 516
137 3 2 1 1 1170 1117 1115 1163
138 3 2 1 1 430 502 267 343
139 3 2 1 1 1088 1084 1039 1031
140 3 2 1 1 369 294 203 370
141 3 2 1 1 484 617 751 715
142 3 2 1 1 948 900 893 947
143 3 2 1 1 897 809 685 779
144 3 2 1 1 882 982 147 148
145 3 2 1 1 531 624 650 583
146 3 2 1 1 1305 1238 1278 1302
147 3 2 1 1 1102 1149 1163 1115
148 3 2 1 1 1052 1061 975 1012
149 3 2 1 1 1288 1242 1244 1281
150 3 2 1 1 368 305 194 300
151 3 2 1 1 542 429 386 369
152 3 2 1 1 832 752 823 922
153 3 2 1 1 1266 1292 1304 1274
154 3 2 1 1 758 769 862 885
155 3 2 1 1 675 624 531 555
156 3 2 1 1 801 722 696 791
157 3 2 1 1 756 727 620 773
158 3 2 1 1 1258 1313 1290 1220
159 3 2 1 1 1272 1275 1277 1245
160 3 2 1 1 823 755 886 968
161 3 2 1 1 1210 1150 1051 1118
162 3 2 1 1 771 766 896 863
163 3 2 1 1 1155 1219 1263 1181
164 3 2 1 1 1144 1206 1116 1047
165 3 2 1 1 1210 1252 1274 1241
166 3 2 1 1 766 771 626 708
167 3 2 1 1 499 488 547 635
168 3 2 1 1 886 144 145 968
169 3 2 1 1 1161 1100 993 1069
170 3 2 1 1 1088 137 138 1123
171 3 2 1 1 687 804 712 640
172 3 2 1 1 1212 1163 1149 1196
173 3 2 1 1 442 609 493 356
174 3 2 1 1 613 589 649 716
175 3 2 1 1 345 387 455 432
176 3 2 1 1 821 963 885 862
177 3 2 1 1 1205 1199 1235 1271
178 3 2 1 1 560 713 637 576
179 3 2 1 1 701 614 747 829
180 3 2 1 1 358 537 472 286
181 3 2 1 1 1041 770 694 753
182 3 2 1 1 382 383 309 190
183 3 2 1 1 684 634 720 768
184 3 2 1 1 708 704 839 766
185 3 2 1 1 304 356 275 209
186 3 2 1 1 429 433 277 386
187 3 2 1 1 724 650 624 723
188 3 2 1 1 816 884 787 775
189 3 2 1 1 641 508 433 577
190 3 2 1 1 1157 1206 1244 1242
191 3 2 1 1 1250 1169 1215 1246
192 3 2 1 1 474 352 448 528
193 3 2 1 1 1127 1054 1040 1065
194 3 2 1 1 820 836 872 942
195 3 2 1 1 568 582 542 427
196 3 2 1 1 907 879 954 1033
197 3 2 1 1 1163 1212 1164 1170
198 3 2 1 1 605 507 279 440
199 3 2 1 1 298 233 234 269
200 3 2 1 1 510 427 370 276
201 3 2 1 1 786 760 847 915
202 3 2 1 1 264 379 313 214
203 3 2 1 1 936 1016 1118 1051
204 3 2 1 1 381 242 312 349
205 3 2 1 1 683 782 819 883
206 3 2 1 1 728 652 636 709
207 3 2 1 1 634 684 773 620
208 3 2 1 1 1156 1257 1192 1182
209 3 2 1 1 1013 962 826 902
210 3 2 1 1 1006 1026 1056 1133
211 3 2 1 1 962 1013 1120 1069
212 3 2 1 1 475 339 435 535
213 3 2 1 1 376 301 196 377
214 3 2 1 1 218 217 63 64
215 3 2 1 1 287 219 66 67
216 3 2 1 1 220 62 63 217
217 3 2 1 1 387 345 314 208
218 3 2 1 1 291 340 273 202
219 3 2 1 1 613 716 840 746
220 3 2 1 1 636 579 656 714
221 3 2 1 1 1118 1162 1252 1210
222 3 2 1 1 372 439 539 278
223 3 2 1 1 873 930 947 893
224 3 2 1 1 1162 1118 1016 1068
225 3 2 1 1 822 898 1016 936
226 3 2 1 1 347 375 243 315
227 3 2 1 1 289 399 436 360
228 3 2 1 1 776 834 754 709
229 3 2 1 1 371 344 316 191
230 3 2 1 1 703 725 707 861
231 3 2 1 1 343 303 230 366
232 3 2 1 1 335 452 391 307
233 3 2 1 1 675 686 723 624
234 3 2 1 1 982 981 922 961
235 3 2 1 1 706 562 486 629
236 3 2 1 1 435 277 433 508
237 3 2 1 1 780 700 632 653
238 3 2 1 1 1069 1120 1213 1161
239 3 2 1 1 1030 1136 1044 987
240 3 2 1 1 1143 1236 1229 1203
241 3 2 1 1 711 806 749 686
242 3 2 1 1 482 607 720 634
243 3 2 1 1 1058 988 1045 1125
244 3 2 1 1 387 395 350 455
245 3 2 1 1 209 224 114 115
246 3 2 1 1 261 113 114 224
247 3 2 1 1 764 622 729 799
248 3 2 1 1 496 677 743 577
249 3 2 1 1 1051 1112 1009 936
250 3 2 1 1 936 1009 905 822
251 3 2 1 1 535 440 359 475
252 3 2 1 1 778 696 664 556
253 3 2 1 1 407 331 285 220
254 3 2 1 1 1199 1205 1122 1166
255 3 2 1 1 1132 1043 1094 1156
256 3 2 1 1 761 914 855 792
257 3 2 1 1 942 1139 892 820
258 3 2 1 1 480 558 462 410
259 3 2 1 1 550 638 782 683
260 3 2 1 1 477 449 527 576
261 3 2 1 1 446 495 420 373
262 3 2 1 1 890 844 791 696
263 3 2 1 1 414 385 268 506
264 3 2 1 1 1275 1284 1246 1277
265 3 2 1 1 770 690 669 552
266 3 2 1 1 288 216 68 69
267 3 2 1 1 1204 1168 1098 1146
268 3 2 1 1 580 504 455 519
269 3 2 1 1 643 708 626 572
270 3 2 1 1 216 287 67 68
271 3 2 1 1 716 783 901 840
272 3 2 1 1 628 656 595 567
273 3 2 1 1 1008 947 930 994
274 3 2 1 1 728 710 549 673
275 3 2 1 1 616 734 750 857
276 3 2 1 1 1093 1188 1060 998
277 3 2 1 1 1036 830 762 971
278 3 2 1 1 802 676 632 700
279 3 2 1 1 220 221 61 62
280 3 2 1 1 885 815 687 758
281 3 2 1 1 811 764 799 905
282 3 2 1 1 714 776 709 636
283 3 2 1 1 914 1032 973 855
284 3 2 1 1 1085 990 1096 1178
285 3 2 1 1 488 499 349 460
286 3 2 1 1 969 880 990 1085
287 3 2 1 1 1089 987 1044 1111
288 3 2 1 1 673 549 413 497
289 3 2 1 1 655 565 585 648
290 3 2 1 1 361 467 510 276
291 3 2 1 1 772 723 686 749
292 3 2 1 1 301 376 384 232
293 3 2 1 1 562 467 423 486
294 3 2 1 1 646 707 725 648
295 3 2 1 1 431 478 520 444
296 3 2 1 1 440 535 604 678
297 3 2 1 1 785 841 945 898
298 3 2 1 1 700 780 902 826
299 3 2 1 1 691 547 589 613
300 3 2 1 1 944 1012 920 817
301 3 2 1 1 194 235 385 300
302 3 2 1 1 222 279 352 210
303 3 2 1 1 1040 1020 997 1065
304 3 2 1 1 718 621 584 485
305 3 2 1 1 435 339 207 277
306 3 2 1 1 902 946 1067 1013
307 3 2 1 1 692 765 806 711
308 3 2 1 1 685 637 713 779
309 3 2 1 1 911 972 963 821
310 3 2 1 1 373 302 204 446
311 3 2 1 1 374 317 187 311
312 3 2 1 1 484 574 336 443
313 3 2 1 1 1136 1223 1180 1044
314 3 2 1 1 898 945 1068 1016
315 3 2 1 1 410 447 575 480
316 3 2 1 1 356 304 197 442
317 3 2 1 1 780 843 946 902
318 3 2 1 1 416 456 270 384
319 3 2 1 1 223 213 70 71
320 3 2 1 1 213 288 69 70
321 3 2 1 1 544 556 664 421
322 3 2 1 1 744 689 842 755
323 3 2 1 1 498 603 541 437
324 3 2 1 1 340 543 670 428
325 3 2 1 1 884 842 689 787
326 3 2 1 1 454 630 553 514
327 3 2 1 1 841 785 612 726
328 3 2 1 1 928 951 808 917
329 3 2 1 1 579 636 652 580
330 3 2 1 1 290 223 71 72
331 3 2 1 1 289 125 126 399
332 3 2 1 1 207 226 386 277
333 3 2 1 1 228 276 370 203
334 3 2 1 1 630 735 790 553
335 3 2 1 1 210 352 474 290
336 3 2 1 1 578 657 803 699
337 3 2 1 1 419 514 553 667
338 3 2 1 1 365 454 514 272
339 3 2 1 1 1013 1067 1165 1120
340 3 2 1 1 405 457 530 404
341 3 2 1 1 563 509 465 581
342 3 2 1 1 340 428 337 273
343 3 2 1 1 1235 1242 1288 1309
344 3 2 1 1 489 353 463 512
345 3 2 1 1 531 470 533 555
346 3 2 1 1 440 279 222 359
347 3 2 1 1 718 651 744 752
348 3 2 1 1 729 622 479 606
349 3 2 1 1 891 916 971 762
350 3 2 1 1 621 694 647 584
351 3 2 1 1 883 814 803 683
352 3 2 1 1 428 561 483 337
353 3 2 1 1 640 618 758 687
354 3 2 1 1 274 363 544 421
355 3 2 1 1 968 961 922 823
356 3 2 1 1 683 803 657 550
357 3 2 1 1 832 753 694 621
358 3 2 1 1 201 229 363 274
359 3 2 1 1 418 270 456 517
360 3 2 1 1 745 853 880 969
361 3 2 1 1 753 981 982 882
362 3 2 1 1 1114 1101 1005 1061
363 3 2 1 1 565 655 425 522
364 3 2 1 1 959 875 999 1064
365 3 2 1 1 210 290 72 73
366 3 2 1 1 222 210 73 74
367 3 2 1 1 1114 1148 1201 1101
368 3 2 1 1 1107 1184 1227 1130
369 3 2 1 1 582 742 677 496
370 3 2 1 1 221 291 60 61
371 3 2 1 1 297 200 272 341
372 3 2 1 1 295 361 276 228
373 3 2 1 1 378 318 186 280
374 3 2 1 1 225 292 110 111
375 3 2 1 1 722 801 865 629
376 3 2 1 1 985 1059 994 930
377 3 2 1 1 916 151 152 971
378 3 2 1 1 761 682 810 914
379 3 2 1 1 632 526 590 653
380 3 2 1 1 200 231 365 272
381 3 2 1 1 293 222 74 75
382 3 2 1 1 485 603 651 718
383 3 2 1 1 1178 1096 1191 1256
384 3 2 1 1 307 245 246 263
385 3 2 1 1 299 198 270 342
386 3 2 1 1 383 410 462 388
387 3 2 1 1 1213 1216 1278 1238
388 3 2 1 1 1143 1195 1303 1236
389 3 2 1 1 348 319 237 380
390 3 2 1 1 294 369 386 226
391 3 2 1 1 1099 1066 1001 1116
392 3 2 1 1 754 819 782 710
393 3 2 1 1 965 881 863 896
394 3 2 1 1 1036 971 152 153
395 3 2 1 1 309 383 388 240
396 3 2 1 1 778 693 828 1042
397 3 2 1 1 198 232 384 270
398 3 2 1 1 346 306 192 445
399 3 2 1 1 310 249 250 262
400 3 2 1 1 593 615 720 607
401 3 2 1 1 219 218 65 66
402 3 2 1 1 304 209 115 116
403 3 2 1 1 207 293 75 76
404 3 2 1 1 509 563 593 430
405 3 2 1 1 505 414 550 657
406 3 2 1 1 804 687 815 864
407 3 2 1 1 233 298 377 196
408 3 2 1 1 1119 1017 951 1071
409 3 2 1 1 751 860 939 875
410 3 2 1 1 558 633 500 462
411 3 2 1 1 442 355 422 487
412 3 2 1 1 413 549 638 506
413 3 2 1 1 1216 1217 1240 1278
414 3 2 1 1 656 495 446 595
415 3 2 1 1 579 580 519 420
416 3 2 1 1 1211 1119 1071 1167
417 3 2 1 1 914 810 932 1032
418 3 2 1 1 1276 1211 1167 1253
419 3 2 1 1 842 884 941 1189
420 3 2 1 1 1307 1299 1315 1287
421 3 2 1 1 455 504 608 432
422 3 2 1 1 207 76 77 226
423 3 2 1 1 294 226 77 78
424 3 2 1 1 384 376 541 416
425 3 2 1 1 1239 1245 1224 1201
426 3 2 1 1 708 643 571 704
427 3 2 1 1 408 347 308 501
428 3 2 1 1 875 939 1084 999
429 3 2 1 1 1004 1137 1090 941
430 3 2 1 1 884 816 1004 941
431 3 2 1 1 302 373 281 205
432 3 2 1 1 675 591 516 658
433 3 2 1 1 188 244 391 308
434 3 2 1 1 431 444 263 374
435 3 2 1 1 1150 1207 1112 1051
436 3 2 1 1 426 532 554 672
437 3 2 1 1 755 842 943 886
438 3 2 1 1 416 485 584 456
439 3 2 1 1 236 268 385 235
440 3 2 1 1 722 629 486 602
441 3 2 1 1 292 204 109 110
442 3 2 1 1 366 296 465 509
443 3 2 1 1 203 294 78 79
444 3 2 1 1 228 203 79 80
445 3 2 1 1 303 343 267 193
446 3 2 1 1 187 248 392 311
447 3 2 1 1 1009 929 811 905
448 3 2 1 1 690 833 891 762
449 3 2 1 1 549 710 782 638
450 3 2 1 1 163 164 660 733
451 3 2 1 1 1098 1168 1052 991
452 3 2 1 1 949 872 836 748
453 3 2 1 1 305 368 269 234
454 3 2 1 1 458 490 453 394
455 3 2 1 1 295 228 80 81
456 3 2 1 1 1277 1246 1215 1145
457 3 2 1 1 619 651 603 498
458 3 2 1 1 291 202 59 60
459 3 2 1 1 227 58 59 202
460 3 2 1 1 417 516 372 275
461 3 2 1 1 353 389 251 321
462 3 2 1 1 385 414 505 300
463 3 2 1 1 1052 1012 944 991
464 3 2 1 1 411 371 266 500
465 3 2 1 1 510 467 562 644
466 3 2 1 1 991 1072 1122 1098
467 3 2 1 1 1018 1019 1083 1053
468 3 2 1 1 942 872 1070 996
469 3 2 1 1 1201 1224 1185 1101
470 3 2 1 1 635 587 409 499
471 3 2 1 1 355 398 393 422
472 3 2 1 1 227 296 366 230
473 3 2 1 1 735 630 669 690
474 3 2 1 1 617 699 860 751
475 3 2 1 1 460 349 312 189
476 3 2 1 1 1155 1095 1147 1219
477 3 2 1 1 640 581 483 618
478 3 2 1 1 459 396 394 453
479 3 2 1 1 201 295 81 82
480 3 2 1 1 1015 949 904 992
481 3 2 1 1 871 747 827 975
482 3 2 1 1 709 754 710 728
483 3 2 1 1 1271 1237 1146 1205
484 3 2 1 1 1086 1103 1214 1186
485 3 2 1 1 1000 1072 870 938
486 3 2 1 1 887 935 895 831
487 3 2 1 1 1206 1144 1279 1244
488 3 2 1 1 394 320 238 458
489 3 2 1 1 773 831 856 756
490 3 2 1 1 201 82 83 229
491 3 2 1 1 297 229 83 84
492 3 2 1 1 1061 1052 1168 1114
493 3 2 1 1 1059 1105 1049 994
494 3 2 1 1 1272 1245 1239 1297
495 3 2 1 1 422 393 459 511
496 3 2 1 1 424 390 271 518
497 3 2 1 1 1224 1145 1110 1185
498 3 2 1 1 355 442 197 327
499 3 2 1 1 631 609 442 487
500 3 2 1 1 1120 1165 1216 1213
501 3 2 1 1 449 450 262 378
502 3 2 1 1 1184 1197 1247 1227
503 3 2 1 1 200 297 84 85
504 3 2 1 1 231 200 85 86
505 3 2 1 1 716 649 588 783
506 3 2 1 1 1072 991 944 870
507 3 2 1 1 306 346 268 236
508 3 2 1 1 719 623 867 748
509 3 2 1 1 1224 1245 1277 1145
510 3 2 1 1 1308 1316 1276 1253
511 3 2 1 1 299 231 86 87
512 3 2 1 1 1298 1300 1279 1231
513 3 2 1 1 649 589 469 524
514 3 2 1 1 774 719 748 836
515 3 2 1 1 490 458 344 513
516 3 2 1 1 227 230 57 58
517 3 2 1 1 1087 1058 1125 1187
518 3 2 1 1 1005 1101 1185 1091
519 3 2 1 1 656 579 420 495
520 3 2 1 1 514 419 341 272
521 3 2 1 1 239 240 388 266
522 3 2 1 1 1048 1110 1145 1215
523 3 2 1 1 395 322 247 350
524 3 2 1 1 867 904 949 748
525 3 2 1 1 923 835 767 910
526 3 2 1 1 198 299 87 88
527 3 2 1 1 232 198 88 89
528 3 2 1 1 190 241 265 382
529 3 2 1 1 207 339 475 293
530 3 2 1 1 614 702 827 747
531 3 2 1 1 917 808 680 802
532 3 2 1 1 741 342 270 418
533 3 2 1 1 790 735 830 894
534 3 2 1 1 388 462 500 266
535 3 2 1 1 301 232 89 90
536 3 2 1 1 929 1047 1116 1001
537 3 2 1 1 241 242 381 265
538 3 2 1 1 375 468 524 264
539 3 2 1 1 949 1015 1070 872
540 3 2 1 1 622 764 852 717
541 3 2 1 1 762 830 735 690
542 3 2 1 1 139 1135 1123 138
543 3 2 1 1 191 239 266 371
544 3 2 1 1 1217 1216 1165 1121
545 3 2 1 1 319 348 271 195
546 3 2 1 1 429 496 577 433
547 3 2 1 1 852 878 955 901
548 3 2 1 1 1010 950 998 1060
549 3 2 1 1 615 712 804 767
550 3 2 1 1 196 301 90 91
551 3 2 1 1 1156 1094 1193 1257
552 3 2 1 1 233 196 91 92
553 3 2 1 1 769 758 618 866
554 3 2 1 1 1166 1122 1072 1000
555 3 2 1 1 1001 878 811 929
556 3 2 1 1 622 588 468 479
557 3 2 1 1 213 223 358 286
558 3 2 1 1 676 573 526 632
559 3 2 1 1 204 302 108 109
560 3 2 1 1 559 587 702 614
561 3 2 1 1 214 243 375 264
562 3 2 1 1 915 847 868 940
563 3 2 1 1 809 927 1014 903
564 3 2 1 1 444 520 594 335
565 3 2 1 1 230 303 56 57
566 3 2 1 1 234 233 92 93
567 3 2 1 1 928 993 1071 951
568 3 2 1 1 993 1100 1167 1071
569 3 2 1 1 315 188 308 347
570 3 2 1 1 546 680 784 627
571 3 2 1 1 680 808 899 784
572 3 2 1 1 1100 1198 1253 1167
573 3 2 1 1 1276 1274 1252 1211
574 3 2 1 1 1198 1295 1308 1253
575 3 2 1 1 894 828 693 790
576 3 2 1 1 780 653 654 843
577 3 2 1 1 935 887 813 1007
578 3 2 1 1 895 950 970 913
579 3 2 1 1 574 498 437 336
580 3 2 1 1 313 379 460 189
581 3 2 1 1 305 234 93 94
582 3 2 1 1 1098 1122 1205 1146
583 3 2 1 1 395 387 208 324
584 3 2 1 1 201 406 361 295
585 3 2 1 1 347 408 468 375
586 3 2 1 1 245 307 391 244
587 3 2 1 1 197 304 116 117
588 3 2 1 1 592 604 535 435
589 3 2 1 1 518 566 491 424
590 3 2 1 1 351 325 252 390
591 3 2 1 1 1217 1121 1050 1152
592 3 2 1 1 1293 1240 1200 1270
593 3 2 1 1 391 452 501 308
594 3 2 1 1 503 447 382 265
595 3 2 1 1 502 412 380 267
596 3 2 1 1 1207 1231 1279 1144
597 3 2 1 1 538 421 664 602
598 3 2 1 1 566 518 451 586
599 3 2 1 1 194 305 94 95
600 3 2 1 1 235 194 95 96
601 3 2 1 1 727 756 707 646
602 3 2 1 1 1201 1148 1254 1239
603 3 2 1 1 808 951 1017 899
604 3 2 1 1 317 374 263 246
605 3 2 1 1 249 310 392 248
606 3 2 1 1 236 235 96 97
607 3 2 1 1 1033 954 988 1058
608 3 2 1 1 303 193 55 56
609 3 2 1 1 306 236 97 98
610 3 2 1 1 1104 1073 995 1113
611 3 2 1 1 637 685 654 545
612 3 2 1 1 489 512 564 645
613 3 2 1 1 373 420 519 281
614 3 2 1 1 572 453 490 643
615 3 2 1 1 576 527 415 560
616 3 2 1 1 511 557 487 422
617 3 2 1 1 1151 1113 1054 1160
618 3 2 1 1 193 267 380 237
619 3 2 1 1 192 306 98 99
620 3 2 1 1 314 192 99 100
621 3 2 1 1 927 1050 1121 1014
622 3 2 1 1 903 781 685 809
623 3 2 1 1 1148 1204 1286 1254
624 3 2 1 1 1183 1138 1018 1053
625 3 2 1 1 901 955 938 840
626 3 2 1 1 1038 939 860 814
627 3 2 1 1 565 523 466 585
628 3 2 1 1 453 572 511 459
629 3 2 1 1 517 456 584 647
630 3 2 1 1 353 489 415 389
631 3 2 1 1 674 729 606 570
632 3 2 1 1 392 310 334 434
633 3 2 1 1 765 851 881 918
634 3 2 1 1 307 263 444 335
635 3 2 1 1 209 275 372 224
636 3 2 1 1 337 483 581 465
637 3 2 1 1 676 802 680 546
638 3 2 1 1 450 525 590 334
639 3 2 1 1 625 639 600 672
640 3 2 1 1 393 282 396 459
641 3 2 1 1 1040 958 876 1020
642 3 2 1 1 478 546 627 520
643 3 2 1 1 635 983 702 587
644 3 2 1 1 204 292 476 338
645 3 2 1 1 318 378 262 250
646 3 2 1 1 519 455 350 281
647 3 2 1 1 1070 1015 1048 1109
648 3 2 1 1 831 773 684 887
649 3 2 1 1 1169 1209 1159 1109
650 3 2 1 1 397 400 357 464
651 3 2 1 1 648 725 564 655
652 3 2 1 1 1066 1099 1166 1000
653 3 2 1 1 390 424 466 351
654 3 2 1 1 377 298 336 437
655 3 2 1 1 252 195 271 390
656 3 2 1 1 551 671 797 692
657 3 2 1 1 193 237 54 55
658 3 2 1 1 239 191 14 15
659 3 2 1 1 648 585 491 646
660 3 2 1 1 314 345 445 192
661 3 2 1 1 802 700 826 917
662 3 2 1 1 569 481 616 737
663 3 2 1 1 240 239 15 16
664 3 2 1 1 316 344 458 238
665 3 2 1 1 898 822 681 785
666 3 2 1 1 480 623 719 558
667 3 2 1 1 309 240 16 17
668 3 2 1 1 320 394 396 256
669 3 2 1 1 1215 1169 1109 1048
670 3 2 1 1 607 502 430 593
671 3 2 1 1 986 910 864 958
672 3 2 1 1 190 309 17 18
673 3 2 1 1 645 560 415 489
674 3 2 1 1 241 190 18 19
675 3 2 1 1 310 262 450 334
676 3 2 1 1 463 353 321 199
677 3 2 1 1 1067 1014 1121 1165
678 3 2 1 1 242 241 19 20
679 3 2 1 1 1026 925 989 1056
680 3 2 1 1 905 799 681 822
681 3 2 1 1 552 647 694 770
682 3 2 1 1 312 242 20 21
683 3 2 1 1 417 493 671 551
684 3 2 1 1 879 807 869 954
685 3 2 1 1 746 840 938 870
686 3 2 1 1 843 781 903 946
687 3 2 1 1 946 903 1014 1067
688 3 2 1 1 1015 992 1110 1048
689 3 2 1 1 950 895 935 998
690 3 2 1 1 441 505 657 578
691 3 2 1 1 189 312 21 22
692 3 2 1 1 313 189 22 23
693 3 2 1 1 421 538 423 274
694 3 2 1 1 205 281 350 247
695 3 2 1 1 1242 1235 1199 1157
696 3 2 1 1 348 451 518 271
697 3 2 1 1 214 313 23 24
698 3 2 1 1 208 314 100 101
699 3 2 1 1 214 24 25 243
700 3 2 1 1 315 243 25 26
701 3 2 1 1 816 751 875 959
702 3 2 1 1 590 526 434 334
703 3 2 1 1 425 512 463 354
704 3 2 1 1 298 269 443 336
705 3 2 1 1 1066 1000 938 955
706 3 2 1 1 188 315 26 27
707 3 2 1 1 244 188 27 28
708 3 2 1 1 282 393 398 323
709 3 2 1 1 378 280 527 449
710 3 2 1 1 245 244 28 29
711 3 2 1 1 191 316 13 14
712 3 2 1 1 760 679 745 847
713 3 2 1 1 970 897 779 845
714 3 2 1 1 557 626 771 698
715 3 2 1 1 245 29 30 246
716 3 2 1 1 317 246 30 31
717 3 2 1 1 220 285 362 221
718 3 2 1 1 685 781 843 654
719 3 2 1 1 322 395 324 259
720 3 2 1 1 247 106 107 205
721 3 2 1 1 302 205 107 108
722 3 2 1 1 506 268 346 413
723 3 2 1 1 187 317 31 32
724 3 2 1 1 408 501 570 606
725 3 2 1 1 248 187 32 33
726 3 2 1 1 376 377 437 541
727 3 2 1 1 290 474 358 223
728 3 2 1 1 249 248 33 34
729 3 2 1 1 590 525 654 653
730 3 2 1 1 250 249 34 35
731 3 2 1 1 318 250 35 36
732 3 2 1 1 589 547 488 469
733 3 2 1 1 523 565 522 464
734 3 2 1 1 186 318 36 37
735 3 2 1 1 251 186 37 38
736 3 2 1 1 527 280 389 415
737 3 2 1 1 726 612 521 594
738 3 2 1 1 293 475 359 222
739 3 2 1 1 619 642 787 689
740 3 2 1 1 955 878 1001 1066
741 3 2 1 1 237 319 53 54
742 3 2 1 1 861 707 756 856
743 3 2 1 1 606 479 468 408
744 3 2 1 1 522 425 354 284
745 3 2 1 1 512 425 655 564
746 3 2 1 1 753 832 922 981
747 3 2 1 1 449 477 525 450
748 3 2 1 1 945 899 1017 1068
749 3 2 1 1 622 717 783 588
750 3 2 1 1 524 468 588 649
751 3 2 1 1 896 766 839 888
752 3 2 1 1 783 717 852 901
753 3 2 1 1 587 559 503 409
754 3 2 1 1 316 238 12 13
755 3 2 1 1 325 351 283 211
756 3 2 1 1 841 784 899 945
757 3 2 1 1 726 627 784 841
758 3 2 1 1 594 520 627 726
759 3 2 1 1 654 525 477 545
760 3 2 1 1 913 856 831 895
761 3 2 1 1 747 871 979 829
762 3 2 1 1 323 330 206 282
763 3 2 1 1 1162 1119 1211 1252
764 3 2 1 1 1107 1046 1097 1184
765 3 2 1 1 1068 1017 1119 1162
766 3 2 1 1 428 670 739 561
767 3 2 1 1 321 251 38 39
768 3 2 1 1 199 326 354 463
769 3 2 1 1 424 491 585 466
770 3 2 1 1 778 556 667 693
771 3 2 1 1 355 327 253 398
772 3 2 1 1 1133 1056 1095 1155
773 3 2 1 1 1280 1295 1198 1248
774 3 2 1 1 256 396 282 206
775 3 2 1 1 1064 1004 816 959
776 3 2 1 1 400 328 254 357
777 3 2 1 1 379 264 524 469
778 3 2 1 1 186 251 389 280
779 3 2 1 1 1152 1200 1240 1217
780 3 2 1 1 452 335 594 521
781 3 2 1 1 381 349 499 409
782 3 2 1 1 608 504 580 652
783 3 2 1 1 238 320 11 12
784 3 2 1 1 324 208 101 102
785 3 2 1 1 1069 993 928 962
786 3 2 1 1 464 522 284 397
787 3 2 1 1 326 212 284 354
788 3 2 1 1 351 466 523 283
789 3 2 1 1 603 485 416 541
790 3 2 1 1 779 713 763 845
791 3 2 1 1 646 491 566 727
792 3 2 1 1 1236 1249 1172 1229
793 3 2 1 1 856 913 763 861
794 3 2 1 1 199 321 39 40
795 3 2 1 1 400 397 255 329
796 3 2 1 1 253 215 323 398
797 3 2 1 1 871 1005 1091 979
798 3 2 1 1 876 958 864 815
799 3 2 1 1 796 705 820 892
800 3 2 1 1 252 51 52 195
801 3 2 1 1 319 195 52 53
802 3 2 1 1 283 357 254 211
803 3 2 1 1 513 571 643 490
804 3 2 1 1 586 620 727 566
805 3 2 1 1 273 337 465 296
806 3 2 1 1 715 775 787 642
807 3 2 1 1 523 464 357 283
808 3 2 1 1 247 322 105 106
809 3 2 1 1 1146 1314 1286 1204
810 3 2 1 1 1053 1083 1092 1108
811 3 2 1 1 633 558 719 774
812 3 2 1 1 320 256 10 11
813 3 2 1 1 255 397 284 212
814 3 2 1 1 790 693 667 553
815 3 2 1 1 330 323 215 257
816 3 2 1 1 275 356 493 417
817 3 2 1 1 326 199 40 41
818 3 2 1 1 975 827 920 1012
819 3 2 1 1 732 611 682 761
820 3 2 1 1 252 325 50 51
821 3 2 1 1 477 576 637 545
822 3 2 1 1 612 674 570 521
823 3 2 1 1 595 446 204 338
824 3 2 1 1 327 197 117 118
825 3 2 1 1 371 411 513 344
826 3 2 1 1 212 326 41 42
827 3 2 1 1 328 400 329 258
828 3 2 1 1 253 327 118 119
829 3 2 1 1 254 48 49 211
830 3 2 1 1 325 211 49 50
831 3 2 1 1 615 593 563 712
832 3 2 1 1 255 212 42 43
833 3 2 1 1 764 811 878 852
834 3 2 1 1 1141 943 842 1189
835 3 2 1 1 329 255 43 44
836 3 2 1 1 256 206 9 10
837 3 2 1 1 254 328 47 48
838 3 2 1 1 206 330 8 9
839 3 2 1 1 720 615 767 835
840 3 2 1 1 253 119 120 215
841 3 2 1 1 257 215 120 121
842 3 2 1 1 330 257 7 8
843 3 2 1 1 257 121 1 7
844 3 2 1 1 218 64 3 65
845 3 2 1 1 329 44 45 258
846 3 2 1 1 324 102 103 259
847 3 2 1 1 328 258 46 47
848 3 2 1 1 322 259 104 105
849 3 2 1 1 2 46 258 45
850 3 2 1 1 4 104 259 103
851 3 2 1 1 1053 1108 1230 1183
852 3 2 1 1 950 1010 897 970
853 3 2 1 1 1264 1247 1243 1283
854 3 2 1 1 1005 871 975 1061
855 3 2 1 1 557 511 572 626
856 3 2 1 1 768 813 887 684
857 3 2 1 1 265 381 409 503
858 3 2 1 1 986 995 1073 931
859 3 2 1 1 1040 1054 1113 995
860 3 2 1 1 691 613 746 817
861 3 2 1 1 962 928 917 826
862 3 2 1 1 581 640 712 563
863 3 2 1 1 904 867 829 979
864 3 2 1 1 1110 992 1091 1185
865 3 2 1 1 487 557 698 631
866 3 2 1 1 1186 1160 1054 1127
867 3 2 1 1 814 860 699 803
868 3 2 1 1 1196 1265 1202 1212
869 3 2 1 1 1140 1158 1103 1077
870 3 2 1 1 526 573 515 434
871 3 2 1 1 992 904 979 1091
872 3 2 1 1 763 913 970 845
873 3 2 1 1 1231 1207 1150 1298
874 3 2 1 1 817 920 983 691
875 3 2 1 1 630 454 741 669
876 3 2 1 1 311 392 434 515
877 3 2 1 1 864 910 767 804
878 3 2 1 1 800 625 598 740
879 3 2 1 1 412 482 586 451
880 3 2 1 1 1073 1007 813 931
881 3 2 1 1 833 1041 967 891
882 3 2 1 1 1289 1267 1280 1305
883 3 2 1 1 639 625 800 739
884 3 2 1 1 920 827 702 983
885 3 2 1 1 552 669 741 418
886 3 2 1 1 599 567 540 494
887 3 2 1 1 1092 1083 934 1139
888 3 2 1 1 996 1092 1139 942
889 3 2 1 1 997 1020 972 1037
890 3 2 1 1 854 918 974 924
891 3 2 1 1 873 812 854 924
892 3 2 1 1 1171 1227 1247 1264
893 3 2 1 1 143 142 1078 1022
894 3 2 1 1 1249 1236 1303 1268
895 3 2 1 1 870 944 817 746
896 3 2 1 1 457 534 600 530
897 3 2 1 1 739 670 610 639
898 3 2 1 1 404 530 610 438
899 3 2 1 1 292 225 360 476
900 3 2 1 1 786 730 169 168
901 3 2 1 1 789 731 165 164
902 3 2 1 1 907 848 162 161
903 3 2 1 1 1025 956 156 155
904 3 2 1 1 1251 1214 1103 1158
905 3 2 1 1 285 404 438 362
906 3 2 1 1 1227 1171 1081 1130
907 3 2 1 1 1187 1125 1143 1203
908 3 2 1 1 547 691 983 635
909 3 2 1 1 1028 933 149 148
910 3 2 1 1 1306 1267 1256 1191
911 3 2 1 1 1076 1002 147 146
912 3 2 1 1 1260 1289 1305 1302
913 3 2 1 1 1087 1023 908 953
914 3 2 1 1 530 600 639 610
915 3 2 1 1 1229 1172 1080 1124
916 3 2 1 1 853 745 679 731
917 3 2 1 1 1022 926 144 143
918 3 2 1 1 1271 1311 1269 1273
919 3 2 1 1 978 909 788 846
920 3 2 1 1 287 216 461 401
921 3 2 1 1 1082 1024 906 956
922 3 2 1 1 1175 1129 141 140
923 3 2 1 1 1170 1164 139 138
924 3 2 1 1 1182 1128 989 1075
925 3 2 1 1 154 153 1026 1006
926 3 2 1 1 1294 1284 1233 1265
927 3 2 1 1 1264 1193 1094 1171
928 3 2 1 1 1263 1219 1285 1282
929 3 2 1 1 127 471 399 126
930 3 2 1 1 674 681 799 729
931 3 2 1 1 1296 1255 1154 1218
932 3 2 1 1 151 150 1027 957
933 3 2 1 1 1140 1077 932 1021
934 3 2 1 1 666 628 567 599
935 3 2 1 1 460 379 469 488
936 3 2 1 1 551 658 516 417
937 3 2 1 1 1034 1086 1186 1127
938 3 2 1 1 1134 1079 960 1024
939 3 2 1 1 1249 1191 1096 1172
940 3 2 1 1 1226 1147 1095 1128
941 3 2 1 1 1210 1241 1298 1150
942 3 2 1 1 1039 1084 939 1038
943 3 2 1 1 173 172 732 662
944 3 2 1 1 1086 1057 1077 1103
945 3 2 1 1 792 697 661 662
946 3 2 1 1 834 889 819 754
947 3 2 1 1 501 452 521 570
948 3 2 1 1 1130 1081 1028 1002
949 3 2 1 1 734 616 481 596
950 3 2 1 1 696 722 602 664
951 3 2 1 1 128 536 471 127
952 3 2 1 1 1179 1131 1029 1079
953 3 2 1 1 736 695 628 666
954 3 2 1 1 1019 1018 974 965
955 3 2 1 1 1212 1202 1175 1164
956 3 2 1 1 597 529 179 178
957 3 2 1 1 171 170 659 611
958 3 2 1 1 1059 1138 1183 1105
959 3 2 1 1 170 169 730 659
960 3 2 1 1 759 848 953 908
961 3 2 1 1 166 165 731 679
962 3 2 1 1 1023 1087 1187 1124
963 3 2 1 1 1247 1197 1220 1243
964 3 2 1 1 1195 1261 1292 1266
965 3 2 1 1 1257 1193 1273 1269
966 3 2 1 1 164 163 759 789
967 3 2 1 1 966 1023 1124 1080
968 3 2 1 1 163 162 848 759
969 3 2 1 1 848 907 1033 953
970 3 2 1 1 423 538 602 486
971 3 2 1 1 1076 1003 1046 1107
972 3 2 1 1 1307 1287 1190 1255
973 3 2 1 1 940 868 1030 987
974 3 2 1 1 158 157 906 849
975 3 2 1 1 159 158 849 807
976 3 2 1 1 157 156 956 906
977 3 2 1 1 1027 933 1043 1132
978 3 2 1 1 1125 1045 1176 1143
979 3 2 1 1 399 471 494 436
980 3 2 1 1 155 154 1006 1025
981 3 2 1 1 568 660 742 582
982 3 2 1 1 1192 1257 1269 1291
983 3 2 1 1 1106 1181 1263 1218
984 3 2 1 1 957 1027 1132 1075
985 3 2 1 1 1043 1081 1171 1094
986 3 2 1 1 847 745 969 868
987 3 2 1 1 909 978 1089 1021
988 3 2 1 1 152 151 957 925
989 3 2 1 1 824 908 1023 966
990 3 2 1 1 1218 1263 1282 1296
991 3 2 1 1 990 1080 1172 1096
992 3 2 1 1 1147 1226 1262 1232
993 3 2 1 1 789 759 908 824
994 3 2 1 1 1003 926 1074 1046
995 3 2 1 1 954 869 1029 988
996 3 2 1 1 925 957 1075 989
997 3 2 1 1 933 1028 1081 1043
998 3 2 1 1 1225 1176 1045 1131
999 3 2 1 1 977 874 1034 997
1000 3 2 1 1 807 849 960 869
1001 3 2 1 1 1223 1256 1267 1289
1002 3 2 1 1 1056 989 1128 1095
1003 3 2 1 1 849 906 1024 960
1004 3 2 1 1 148 147 1002 1028
1005 3 2 1 1 1193 1264 1312 1273
1006 3 2 1 1 1083 1019 888 934
1007 3 2 1 1 1032 932 1077 1057
1008 3 2 1 1 1111 1044 1180 1142
1009 3 2 1 1 1046 1074 1173 1097
1010 3 2 1 1 926 1022 1126 1074
1011 3 2 1 1 201 274 423 406
1012 3 2 1 1 1316 1308 1268 1303
1013 3 2 1 1 697 792 855 850
1014 3 2 1 1 682 788 909 810
1015 3 2 1 1 1222 1259 1275 1272
1016 3 2 1 1 793 757 695 736
1017 3 2 1 1 730 786 915 846
1018 3 2 1 1 1022 1078 1177 1126
1019 3 2 1 1 142 141 1129 1078
1020 3 2 1 1 1181 1106 1082 1055
1021 3 2 1 1 1221 1177 1078 1129
1022 3 2 1 1 888 892 1139 934
1023 3 2 1 1 880 966 1080 990
1024 3 2 1 1 532 426 182 181
1025 3 2 1 1 869 960 1079 1029
1026 3 2 1 1 140 139 1164 1175
1027 3 2 1 1 659 730 846 788
1028 3 2 1 1 1261 1195 1143 1176
1029 3 2 1 1 810 909 1021 932
1030 3 2 1 1 853 824 966 880
1031 3 2 1 1 1074 1126 1222 1173
1032 3 2 1 1 1184 1097 1220 1197
1033 3 2 1 1 731 789 824 853
1034 3 2 1 1 1088 1031 976 1035
1035 3 2 1 1 129 601 536 128
1036 3 2 1 1 471 536 599 494
1037 3 2 1 1 956 1025 1055 1082
1038 3 2 1 1 1025 1006 1133 1055
1039 3 2 1 1 1259 1222 1126 1177
1040 3 2 1 1 988 1029 1131 1045
1041 3 2 1 1 174 173 662 661
1042 3 2 1 1 953 1033 1058 1087
1043 3 2 1 1 721 733 660 568
1044 3 2 1 1 1037 972 911 912
1045 3 2 1 1 846 915 940 978
1046 3 2 1 1 858 818 757 793
1047 3 2 1 1 973 1032 1057 1086
1048 3 2 1 1 611 659 788 682
1049 3 2 1 1 1097 1173 1258 1220
1050 3 2 1 1 868 969 1085 1030
1051 3 2 1 1 536 601 666 599
1052 3 2 1 1 631 671 493 609
1053 3 2 1 1 912 977 997 1037
1054 3 2 1 1 737 616 857 795
1055 3 2 1 1 672 554 598 625
1056 3 2 1 1 1272 1258 1173 1222
1057 3 2 1 1 1315 1304 1234 1287
1058 3 2 1 1 142 1141 1090 141
1059 3 2 1 1 1265 1233 1221 1202
1060 3 2 1 1 175 174 661 596
1061 3 2 1 1 1129 1175 1202 1221
1062 3 2 1 1 1166 1099 1157 1199
1063 3 2 1 1 601 668 736 666
1064 3 2 1 1 919 877 818 858
1065 3 2 1 1 857 750 977 912
1066 3 2 1 1 596 661 697 734
1067 3 2 1 1 129 128 583 650
1068 3 2 1 1 996 1070 1109 1159
1069 3 2 1 1 1218 1154 1134 1106
1070 3 2 1 1 176 175 596 481
1071 3 2 1 1 679 760 167 166
1072 3 2 1 1 529 597 665 663
1073 3 2 1 1 807 879 160 159
1074 3 2 1 1 1024 1082 1106 1134
1075 3 2 1 1 925 1026 153 152
1076 3 2 1 1 1174 1200 1152 1188
1077 3 2 1 1 794 795 911 821
1078 3 2 1 1 157 158 791 844
1079 3 2 1 1 933 1027 150 149
1080 3 2 1 1 130 668 601 129
1081 3 2 1 1 668 738 793 736
1082 3 2 1 1 131 130 724 777
1083 3 2 1 1 611 732 172 171
1084 3 2 1 1 965 974 918 881
1085 3 2 1 1 964 937 877 919
1086 3 2 1 1 926 1003 145 144
1087 3 2 1 1 1136 1178 1256 1223
1088 3 2 1 1 850 750 734 697
1089 3 2 1 1 165 166 677 742
1090 3 2 1 1 961 146 147 982
1091 3 2 1 1 597 569 737 665
1092 3 2 1 1 795 857 912 911
1093 3 2 1 1 1031 1039 937 964
1094 3 2 1 1 1075 1132 1156 1182
1095 3 2 1 1 795 794 665 737
1096 3 2 1 1 765 692 797 851
1097 3 2 1 1 738 798 858 793
1098 3 2 1 1 492 529 663 598
1099 3 2 1 1 127 126 470 531
1100 3 2 1 1 130 129 650 724
1101 3 2 1 1 577 743 167 168
1102 3 2 1 1 1191 1249 1268 1306
1103 3 2 1 1 1086 1034 874 973
1104 3 2 1 1 663 665 794 688
1105 3 2 1 1 1030 1085 1178 1136
1106 3 2 1 1 180 179 529 492
1107 3 2 1 1 1127 1065 997 1034
1108 3 2 1 1 798 859 919 858
1109 3 2 1 1 1289 1260 1180 1223
1110 3 2 1 1 806 854 812 749
1111 3 2 1 1 132 131 777 838
1112 3 2 1 1 136 135 1011 1063
1113 3 2 1 1 481 569 177 176
1114 3 2 1 1 1055 1133 1155 1181
1115 3 2 1 1 134 133 900 948
1116 3 2 1 1 153 154 980 1036
1117 3 2 1 1 968 145 146 961
1118 3 2 1 1 138 137 1117 1170
1119 3 2 1 1 859 921 964 919
1120 3 2 1 1 131 738 668 130
1121 3 2 1 1 137 136 1063 1117
1122 3 2 1 1 1177 1221 1233 1259
1123 3 2 1 1 921 976 1031 964
1124 3 2 1 1 181 180 492 532
1125 3 2 1 1 135 134 948 1011
1126 3 2 1 1 1255 1190 1179 1154
1127 3 2 1 1 688 794 821 862
1128 3 2 1 1 670 543 438 610
1129 3 2 1 1 1079 1134 1154 1179
1130 3 2 1 1 1284 1275 1259 1233
1131 3 2 1 1 133 132 838 900
1132 3 2 1 1 164 165 742 660
1133 3 2 1 1 1124 1187 1203 1229
1134 3 2 1 1 652 728 673 608
1135 3 2 1 1 532 492 598 554
1136 3 2 1 1 598 663 688 740
1137 3 2 1 1 1302 1293 1194 1260
1138 3 2 1 1 132 798 738 131
1139 3 2 1 1 154 155 984 980
1140 3 2 1 1 1195 1266 1316 1303
1141 3 2 1 1 851 797 698 825
1142 3 2 1 1 743 677 166 167
1143 3 2 1 1 133 859 798 132
1144 3 2 1 1 134 921 859 133
1145 3 2 1 1 805 865 160 161
1146 3 2 1 1 135 976 921 134
1147 3 2 1 1 136 1035 976 135
1148 3 2 1 1 137 1088 1035 136
1149 3 2 1 1 850 855 973 874
1150 3 2 1 1 863 825 698 771
1151 3 2 1 1 844 890 156 157
1152 3 2 1 1 1142 1180 1260 1194
1153 3 2 1 1 801 791 158 159
1154 3 2 1 1 582 496 429 542
1155 3 2 1 1 184 183 534 457
1156 3 2 1 1 426 534 183 182
1157 3 2 1 1 1287 1234 1225 1190
1158 3 2 1 1 168 167 760 786
1159 3 2 1 1 662 732 761 792
1160 3 2 1 1 155 156 890 984
1161 3 2 1 1 161 160 879 907
1162 3 2 1 1 1131 1179 1190 1225
1163 3 2 1 1 1196 1149 1208 1250
1164 3 2 1 1 128 127 531 583
1165 3 2 1 1 1288 1281 1232 1262
1166 3 2 1 1 146 145 1003 1076
1167 3 2 1 1 1308 1295 1306 1268
1168 3 2 1 1 1251 1194 1293 1270
1169 3 2 1 1 862 769 740 688
1170 3 2 1 1 1304 1292 1261 1234
1171 3 2 1 1 1311 1309 1291 1269
1172 3 2 1 1 1128 1182 1192 1226
1173 3 2 1 1 1021 1089 1111 1140
1174 3 2 1 1 1176 1225 1234 1261
1175 3 2 1 1 494 540 360 436
1176 3 2 1 1 470 364 539 533
1177 3 2 1 1 1002 1076 1107 1130
1178 3 2 1 1 830 1036 980 894
1179 3 2 1 1 1291 1262 1226 1192
1180 3 2 1 1 894 980 984 828
1181 3 2 1 1 440 678 172 605
1182 3 2 1 1 126 125 364 470
1183 3 2 1 1 785 681 674 612
1184 3 2 1 1 987 1089 978 940
1185 3 2 1 1 1262 1291 1309 1288
1186 3 2 1 1 1105 1153 1102 1049
1187 3 2 1 1 125 124 402 364
1188 3 2 1 1 881 851 825 863
1189 3 2 1 1 1038 952 937 1039
1190 3 2 1 1 1232 1285 1219 1147
1191 3 2 1 1 159 160 865 801
1192 3 2 1 1 483 561 866 618
1193 3 2 1 1 1315 1299 1298 1241
1194 3 2 1 1 123 333 402 124
1195 3 2 1 1 1298 1299 1307 1300
1196 3 2 1 1 171 172 678 604
1197 3 2 1 1 1282 1285 1310 1301
1198 3 2 1 1 866 800 740 769
1199 3 2 1 1 178 177 569 597
1200 3 2 1 1 278 539 364 402
1201 3 2 1 1 1297 1239 1254 1313
1202 3 2 1 1 331 407 473 6
1203 3 2 1 1 1149 1102 1153 1208
1204 3 2 1 1 179 472 537 178
1205 3 2 1 1 1020 876 963 972
1206 3 2 1 1 360 540 338 476
1207 3 2 1 1 739 800 866 561
1208 3 2 1 1 556 544 419 667
1209 3 2 1 1 698 797 671 631
1210 3 2 1 1 141 1090 1137 140
1211 3 2 1 1 467 361 406 423
1212 3 2 1 1 534 426 672 600
1213 3 2 1 1 1283 1243 1286 1314
1214 3 2 1 1 571 796 839 704
1215 3 2 1 1 1274 1304 1315 1241
1216 3 2 1 1 1146 1237 1283 1314
1217 3 2 1 1 918 854 806 765
1218 3 2 1 1 404 285 331 405
1219 3 2 1 1 890 1042 828 984
1220 3 2 1 1 1220 1290 1286 1243
1221 3 2 1 1 1271 1235 1309 1311
1222 3 2 1 1 591 533 539 439
1223 3 2 1 1 1272 1297 1313 1258
1224 3 2 1 1 1090 1141 1189 941
1225 3 2 1 1 219 287 401 332
1226 3 2 1 1 220 217 473 407
1227 3 2 1 1 528 537 358 474
1228 3 2 1 1 1286 1290 1313 1254
1229 3 2 1 1 629 865 805 706
1230 3 2 1 1 1141 142 143 943
1231 3 2 1 1 403 367 180 181
1232 3 2 1 1 179 180 367 472
1233 3 2 1 1 372 278 261 224
1234 3 2 1 1 261 278 402 333
1235 3 2 1 1 221 362 340 291
1236 3 2 1 1 229 297 341 363
1237 3 2 1 1 505 441 368 300
1238 3 2 1 1 438 543 340 362
1239 3 2 1 1 419 544 363 341
1240 3 2 1 1 454 365 342 741
1241 3 2 1 1 427 542 369 370
1242 3 2 1 1 513 411 548 571
1243 3 2 1 1 515 573 478 431
1244 3 2 1 1 345 432 497 445
1245 3 2 1 1 673 497 432 608
1246 3 2 1 1 546 478 573 676
1247 3 2 1 1 705 796 571 548
1248 3 2 1 1 480 575 701 623
1249 3 2 1 1 829 867 623 701
1250 3 2 1 1 715 751 816 775
1251 3 2 1 1 1084 1088 1123 999
1252 3 2 1 1 927 1010 1060 1050
1253 3 2 1 1 1152 1050 1060 1188
1254 3 2 1 1 1209 1230 1108 1159
1255 3 2 1 1 1111 1142 1158 1140
1256 3 2 1 1 1305 1280 1248 1238
1257 3 2 1 1 1282 1301 1300 1296
1258 3 2 1 1 1255 1296 1300 1307
$EndElements
