$MeshFormat
2.2 0 8
$EndMeshFormat
$Nodes
554
1 300 300 0
2 400 300 0
3 500 300 0
4 500 450 0
5 500 500 0
6 500 550 0
7 500 700 0
8 400 700 0
9 300 700 0
10 300 550 0
11 300 500 0
12 300 450 0
13 0 0 0
14 400 0 0
15 0 300 0
16 800 0 0
17 0 500 0
18 800 300 0
19 0 700 0
20 800 500 0
21 0 1600 0
22 800 700 0
23 400 1600 0
24 800 1600 0
25 350 300 0
26 450 300 0
27 500 350 0
28 500 400 0
29 500 600 0
30 500 650 0
31 450 700 0
32 350 700 0
33 300 650 0
34 300 600 0
35 300 400 0
36 300 350 0
37 50 0 0
38 100 0 0
39 150 0 0
40 200 0 0
41 250 0 0
42 300 0 0
43 350 0 0
44 0 250 0
45 0 200 0
46 0 150 0
47 0 100 0
48 0 50 0
49 450 0 0
50 500 0 0
51 550 0 0
52 600 0 0
53 650 0 0
54 700 0 0
55 750 0 0
56 0 450 0
57 0 400 0
58 0 350 0
59 800 50 0
60 800 100 0
61 800 150 0
62 800 200 0
63 800 250 0
64 0 650 0
65 0 600 0
66 0 550 0
67 800 350 0
68 800 400 0
69 800 450 0
70 0 1550 0
71 0 1500 0
72 0 1450 0
73 0 1400 0
74 0 1350 0
75 0 1300 0
76 0 1250 0
77 0 1200 0
78 0 1150 0
79 0 1100 0
80 0 1050 0
81 0 1000 0
82 0 950 0
83 0 900 0
84 0 850 0
85 0 800 0
86 0 750 0
87 800 550 0
88 800 600 0
89 800 650 0
90 350 1600 0
91 300 1600 0
92 250 1600 0
93 200 1600 0
94 150 1600 0
95 100 1600 0
96 50 1600 0
97 800 750 0
98 800 800 0
99 800 850 0
100 800 900 0
101 800 950 0
102 800 1000 0
103 800 1050 0
104 800 1100 0
105 800 1150 0
106 800 1200 0
107 800 1250 0
108 800 1300 0
109 800 1350 0
110 800 1400 0
111 800 1450 0
112 800 1500 0
113 800 1550 0
114 750 1600 0
115 700 1600 0
116 650 1600 0
117 600 1600 0
118 550 1600 0
119 500 1600 0
120 450 1600 0
121 50 500 0
122 100 500 0
123 150 500 0
124 200 500 0
125 250 500 0
126 550 500 0
127 600 500 0
128 650 500 0
129 700 500 0
130 750 500 0
131 42.8571428571428 678.571428571429 0
132 85.7142857142856 657.142857142857 0
133 128.571428571428 635.714285714286 0
134 171.428571428571 614.285714285714 0
135 214.285714285714 592.857142857143 0
136 257.142857142857 571.428571428571 0
137 542.857142857143 428.571428571429 0
138 585.714285714286 407.142857142857 0
139 628.571428571428 385.714285714286 0
140 671.428571428571 364.285714285714 0
141 714.285714285714 342.857142857143 0
142 757.142857142857 321.428571428571 0
143 42.8571428571428 321.428571428571 0
144 85.7142857142856 342.857142857143 0
145 128.571428571428 364.285714285714 0
146 171.428571428571 385.714285714286 0
147 214.285714285714 407.142857142857 0
148 257.142857142857 428.571428571429 0
149 542.857142857143 571.428571428571 0
150 585.714285714286 592.857142857143 0
151 628.571428571428 614.285714285714 0
152 671.428571428571 635.714285714286 0
153 714.285714285714 657.142857142857 0
154 757.142857142857 678.571428571429 0
155 400 50 0
156 400 100 0
157 400 150 0
158 400 200 0
159 400 250 0
160 400 750 0
161 400 800 0
162 400 850 0
163 400 900 0
164 400 950 0
165 400 1000 0
166 400 1050 0
167 400 1100 0
168 400 1150 0
169 400 1200 0
170 400 1250 0
171 400 1300 0
172 400 1350 0
173 400 1400 0
174 400 1450 0
175 400 1500 0
176 400 1550 0
177 50.0054418156084 949.854188421463 0
178 50 1400 0
179 49.9999999941896 1249.99999947513 0
180 750.188345291559 849.247642670306 0
181 749.996543270566 999.986109032533 0
182 749.999954878018 1149.99996059729 0
183 750 1300 0
184 250.024921767099 50.0887207261807 0
185 600.08374191991 50.1415791089023 0
186 50.4856971646398 851.324299677177 0
187 48.8198492168906 201.153830782354 0
188 149.970911878612 50.0537518364523 0
189 200 1550 0
190 600 1550 0
191 751.309786562743 149.025171313599 0
192 750 1400 0
193 49.9999978048377 1149.99980065014 0
194 249.469035468865 295.019545289798 0
195 255.355331894086 646.729391849222 0
196 544.59519333843 353.177551036146 0
197 541.313360013015 703.323895847047 0
198 49.5852575312151 150.292898116215 0
199 49.870762964012 100.066745168896 0
200 49.9648190271771 50.0093212339165 0
201 350.119524415682 249.938542316274 0
202 449.962838940834 250.31395671439 0
203 448.896833182966 749.356739158418 0
204 350.037232082262 749.684690262619 0
205 350.013084276586 50.0281237344319 0
206 500.004429166298 50.0739605044361 0
207 750.104930445351 49.9761377785521 0
208 48.4427321883035 450.669941917433 0
209 49.1869746263486 550.269445261458 0
210 752.571322124533 400.182900146009 0
211 750.401727098459 449.613945579231 0
212 50 1550 0
213 751.557267811696 549.330058082567 0
214 300 1550 0
215 750 1500 0
216 450 1550 0
217 50.0000482200646 1049.98205956659 0
218 749.997924943159 1049.99694793911 0
219 752.945926430722 195.547855390987 0
220 54.3972224820739 809.169209625211 0
221 450.000227668977 50.0339355835268 0
222 700.178030540473 50.0173844391355 0
223 50 1500 0
224 50.0000000114127 1349.99999958103 0
225 350 1550 0
226 100 1550 0
227 745.508678876653 736.524847691534 0
228 749.999994359752 1199.99999507466 0
229 750 1550 0
230 650 1550 0
231 500 1550 0
232 750.090525613892 899.720939735588 0
233 553.535972566939 617.756877213807 0
234 40.1694650255107 358.205477206205 0
235 40.600307042565 642.611385358815 0
236 759.830534974489 641.794522793795 0
237 246.604259930339 383.171202106733 0
238 539.619569553547 394.030175947309 0
239 260.36368011898 605.939565728126 0
240 758.793504390292 357.083693954077 0
241 46.6093214768439 728.009296102068 0
242 745.683686961096 281.92455290102 0
243 700.266437037295 848.163486867846 0
244 699.919681583553 999.921609291845 0
245 699.999826240455 1149.99934105799 0
246 100.000000001427 1399.99999994763 0
247 300.18167912543 747.745638087898 0
248 547.653619661823 306.423213333707 0
249 99.8665222690636 849.810274200844 0
250 702.064529830047 149.438682127839 0
251 98.3599558921538 203.047995831585 0
252 600 1500 0
253 100 1500 0
254 94.4404885485021 304.504174891332 0
255 700.615964261171 448.958563236243 0
256 97.7716486100236 450.521767954439 0
257 99.7483990437716 551.427703359739 0
258 702.228351389976 549.478232045561 0
259 749.418254530917 797.093031893657 0
260 252.252028902379 693.20591530789 0
261 545.606812156766 746.592712753391 0
262 255.474854930755 247.035835129647 0
263 99.3913906944745 151.087180016013 0
264 99.7994479091282 100.316889160009 0
265 99.9430579785443 50.0648070210057 0
266 200.003410741216 50.1046214841394 0
267 300.934281705587 249.335530371747 0
268 350.200576643867 200.038811997283 0
269 50.0613965784839 899.981085005875 0
270 750 1450 0
271 350 1500 0
272 50.0006031328969 999.92032846434 0
273 49.9999950960269 1099.99505230767 0
274 449.975328140002 200.43442575519 0
275 499.834664774439 252.078097657627 0
276 300.026189845967 50.0745144899894 0
277 550.032052107664 50.148126123404 0
278 650.176336428189 50.1179727773591 0
279 750.482070008328 99.8021675463698 0
280 50.0000000000891 1449.99999999673 0
281 50.0000000235256 1299.99999904409 0
282 49.9999993480814 1199.9999575869 0
283 250 1550 0
284 150 1550 0
285 749.999999294969 1249.99999938433 0
286 700 1550 0
287 550 1550 0
288 350.048008419168 100.098820744845 0
289 450.003860182676 100.142764136367 0
290 447.322801658516 797.947269748807 0
291 350.040016835785 799.407222314873 0
292 450 1500 0
293 749.999370142466 1099.99928901448 0
294 750.008165330614 949.895864006123 0
295 750 1350 0
296 497.283189486618 748.648843349734 0
297 47.2324576523526 254.978547695779 0
298 702.633080723654 700.245250181746 0
299 598.215742115468 455.972650826586 0
300 597.159755880367 542.937082879838 0
301 204.078015534231 544.157621230792 0
302 202.840244119633 457.062917120162 0
303 595.58325477526 647.627145666737 0
304 205.785662759354 354.124208714682 0
305 90.6705504789916 401.54471036464 0
306 92.3238706857167 600.308930815335 0
307 709.329449521008 598.45528963536 0
308 214.626411139287 639.579399900889 0
309 585.006647332761 359.746586530687 0
310 699.337822455016 397.322545599964 0
311 541.993298873234 660.877492765646 0
312 257.002573500604 340.999878856667 0
313 45.3195620084896 401.518086134611 0
314 46.051426552288 599.525630731868 0
315 754.68043799151 598.481913865389 0
316 92.2949825385253 714.577966290326 0
317 693.904853238082 302.520485365405 0
318 99.986730475666 949.122889628004 0
319 100.000151348068 1099.97309154639 0
320 100.000002148153 1249.99991281921 0
321 699.99999933066 1249.99999937512 0
322 300.015509712355 797.334582652126 0
323 550.367302764076 256.373462698685 0
324 600.382717087712 100.814830408655 0
325 250.103164337598 100.497148012978 0
326 204.825965401733 681.285021308521 0
327 594.034039678648 317.000804028604 0
328 584.291368272799 690.080503244815 0
329 219.26099255309 323.129263473433 0
330 149.501104388437 205.038737738912 0
331 251.619912253029 201.560226378569 0
332 149.87218891548 100.545691591008 0
333 699.84612181778 949.657107096819 0
334 200 1500 0
335 700 1400 0
336 650 1500 0
337 500 1500 0
338 699.966473175145 1049.97391833017 0
339 704.974529922468 196.838615513234 0
340 699.613667471357 795.610498720262 0
341 99.0989965827696 803.849100994483 0
342 647.410112514642 443.033718249911 0
343 639.020954705482 550.377151154951 0
344 160.979045294518 449.622848845049 0
345 167.731143828292 557.240453035411 0
346 249.614053607581 742.65238428063 0
347 700.765454243825 99.9804947684664 0
348 99.9517778310959 898.723842541303 0
349 300.099983716754 100.304823557362 0
350 300.900325894588 200.150613863727 0
351 350.148512768284 150.139310876323 0
352 446.984708577399 845.170555493515 0
353 500.104108208116 201.894069109695 0
354 495.889416415379 796.623989090505 0
355 350 1450 0
356 99.996947263286 999.585253053179 0
357 699.88131079535 899.005191359176 0
358 450.011670540419 150.380228767902 0
359 350.015554733846 849.346419529781 0
360 449.999999999922 1449.99999061641 0
361 699.999999844034 1299.99999985377 0
362 100.000020945649 1199.99900367695 0
363 550.170677974764 100.776958881088 0
364 500.05777840964 100.482063273972 0
365 250 1500 0
366 300 1500 0
367 700 1450 0
368 700 1500 0
369 100.000000051668 1349.99999809746 0
370 699.999963367748 1199.99964847139 0
371 100.000000000189 1449.99999999304 0
372 550 1500 0
373 150.000000000012 1499.99999999957 0
374 699.991799511942 1099.99353507045 0
375 712.44292885088 246.268384218957 0
376 96.7360372003286 759.992355392582 0
377 95.9224126806203 257.548311287279 0
378 159.343366243097 664.28492883927 0
379 636.78029761973 328.473440625243 0
380 665.114086507736 408.102264303901 0
381 630.161321204149 667.180357483492 0
382 171.628479614538 333.290514593845 0
383 124.077179164166 401.164811940459 0
384 675.922820835834 598.835188059541 0
385 126.219861314282 600.967582325361 0
386 127.697280423718 675.717394675676 0
387 666.735185812838 333.991373651952 0
388 664.418454672759 682.520532786583 0
389 135.232174518888 317.992525281982 0
390 149.955116158835 947.805063499046 0
391 649.177635133732 949.058051163803 0
392 649.974737091654 1099.81556277252 0
393 150.000020794966 1249.99912817123 0
394 649.999462358171 1199.96556036615 0
395 495.273438535579 844.184985639325 0
396 249.131925250639 793.805175266435 0
397 546.087492796773 795.206077317433 0
398 191.805259313016 735.652936799538 0
399 607.126689483379 262.376833952224 0
400 593.357489564784 742.71968346984 0
401 149.184337708428 846.392887944103 0
402 551.087461213213 204.113738800103 0
403 648.895857409877 793.666357161529 0
404 200.000000000155 1449.9999999914 0
405 549.999999999901 1449.99998812389 0
406 645.362607099199 731.751848610473 0
407 150.295649500762 265.725128593379 0
408 140.68936024115 755.097897885041 0
409 659.120078954715 245.87162793964 0
410 207.479958118362 258.330806166733 0
411 654.766723866499 200.916680580834 0
412 601.248413959005 152.149480964912 0
413 652.054178081726 150.830767000288 0
414 250.470296991946 151.217343571171 0
415 200.029325045374 100.650801021383 0
416 550.603558692733 152.03416273196 0
417 149.723561469816 151.986977165844 0
418 500.194406659331 151.182202104829 0
419 650.792734864902 100.436341817118 0
420 100.000100446875 1149.99192815605 0
421 350.010449555387 899.482195868518 0
422 299.937416320837 847.432587982201 0
423 350.000000000429 1399.999999961 0
424 449.99999999425 1399.99895341174 0
425 99.9996595393431 1049.85195884029 0
426 150.000000006895 1399.99999972308 0
427 599.999999999975 1449.9999970493 0
428 100.000001673 1299.99993070761 0
429 699.999999977681 1349.99999997876 0
430 649.999946956471 1249.98955588822 0
431 650.000000037751 1399.99996131216 0
432 650.000000004715 1449.99999464856 0
433 499.999999999453 1449.99991199064 0
434 300.000000000181 1449.99999998899 0
435 150.000000000996 1449.99999996011 0
436 649.584912513243 999.482194735815 0
437 648.972765653974 846.343999801018 0
438 300.389138852996 150.493222619625 0
439 695.987240058638 746.236992926581 0
440 452.134468455227 887.296596649004 0
441 753.571577673399 229.099899662749 0
442 53.2105229569186 769.174505483949 0
443 619.862845873032 694.653209760394 0
444 189.013273160986 302.259991876542 0
445 139.785935206372 706.700763754164 0
446 651.534803207211 288.764273947958 0
447 150.001116636344 1099.89313001158 0
448 599.996862113478 1199.74573400267 0
449 496.86637044272 891.257991213187 0
450 299.986572726967 897.957422643605 0
451 200.000000018679 1399.99999909303 0
452 598.097497356952 947.559532979447 0
453 249.617477104097 844.824154412864 0
454 150.000000324034 1349.99998663108 0
455 300.000000013878 1399.99999926939 0
456 650.000000380699 1349.99976378314 0
457 197.247938891031 793.572866937916 0
458 603.19046977268 204.011998558712 0
459 201.717993644289 204.226651581637 0
460 596.641940281341 793.480418290418 0
461 200.348617664546 151.929137370381 0
462 149.772288043843 896.650213554773 0
463 648.824732829058 897.912962494892 0
464 150.000139397079 1199.99375012246 0
465 350.000000043464 1349.99999670808 0
466 449.999998497169 1349.9786786974 0
467 649.992402726084 1149.858263641 0
468 649.999996557546 1299.99737898104 0
469 250.000000002385 1449.99999987806 0
470 150.000004414655 1299.99981426428 0
471 499.999999921443 1399.99673797668 0
472 550.000000071519 1399.99822818694 0
473 600.000000138719 1399.99938681233 0
474 350.006014077805 949.571875850492 0
475 649.854232654279 1049.64815834873 0
476 149.991393823055 999.005257105019 0
477 146.828623114107 798.495326054368 0
478 545.673980793788 844.886029770828 0
479 452.574016009045 930.869872381644 0
480 599.67246656993 1048.32740251142 0
481 200.000072383233 1249.99686730421 0
482 300.002418963494 948.659197828563 0
483 498.036587998773 939.136052498246 0
484 249.86838176534 896.053987858728 0
485 199.94126371424 947.162078510772 0
486 300.00000036235 1349.99998036952 0
487 597.104153047611 845.421731747471 0
488 597.271470877763 896.617134262606 0
489 199.042156239837 844.663748959795 0
490 599.071350048141 997.766868134966 0
491 350.00509374882 999.705743533066 0
492 150.000583986763 1149.96476674265 0
493 350.000004101505 1299.99975010777 0
494 449.999904898799 1299.84615477702 0
495 599.881389332563 1098.70065513799 0
496 149.999957300922 1049.607380318 0
497 599.99922671243 1249.90305287107 0
498 599.965687854411 1149.23635453909 0
499 200.000000928655 1349.99995844029 0
500 250.000000110964 1399.99999466173 0
501 599.999888330711 1299.9713148549 0
502 599.999984879394 1349.99211050643 0
503 499.999989711217 1349.96699498062 0
504 442.711013810556 981.960828457276 0
505 546.434510174059 894.490907783865 0
506 200.002907751764 1099.7843410328 0
507 549.926483038583 1148.14236624024 0
508 448.481491672672 1042.74369601534 0
509 497.957912386521 989.756688692403 0
510 300.007045337853 999.226971957461 0
511 300.000009665764 1299.99947142414 0
512 549.997835986569 1249.70080794563 0
513 547.683973143376 944.198168700473 0
514 199.703493991821 895.845238469643 0
515 548.63888471496 994.418248645174 0
516 249.956376370564 947.732902351854 0
517 350.003806721292 1049.81960723883 0
518 199.988372653079 998.650931142727 0
519 549.291245349319 1045.25202452753 0
520 200.001260755208 1149.92804553323 0
521 200.000418521008 1199.97953269388 0
522 350.000056042791 1249.99747369983 0
523 449.998398223628 1249.42992941879 0
524 200.000015041953 1299.99932883085 0
525 549.999986024961 1349.97836231572 0
526 250.000002302704 1349.99988757125 0
527 499.99961683255 1299.82457904581 0
528 300.006624180589 1049.58270782713 0
529 449.629205840484 1095.83440581426 0
530 250.001866812503 1149.9115247213 0
531 350.002228165368 1099.90430961386 0
532 449.986374319069 1198.67503044909 0
533 350.000317803204 1199.9874795706 0
534 300.000121037895 1249.99478037645 0
535 498.564499221157 1042.43476839588 0
536 249.994307118552 998.755501211704 0
537 549.681982827081 1096.69123523654 0
538 200.000683869184 1049.39355771918 0
539 549.979278257043 1199.11344211813 0
540 250.000022290696 1299.99897264257 0
541 250.000142444234 1249.99370467479 0
542 549.99954844837 1299.88216813331 0
543 499.994980591607 1249.41882339328 0
544 449.908537924866 1147.71456754378 0
545 300.003991238519 1099.80156425203 0
546 499.489424797834 1095.37106198259 0
547 250.003073154761 1049.38434370731 0
548 350.001022636227 1149.95675875913 0
549 250.003221386165 1099.73165941987 0
550 499.847386960883 1147.41745869681 0
551 250.000652316766 1199.97001175432 0
552 499.961317329286 1198.67106283273 0
553 300.000643436123 1199.97260726013 0
554 300.00176228862 1149.91323865369 0
$EndNodes
$Elements
510
1 2 2 1 1 139 380 342 
2 2 2 1 1 408 445 398 
3 2 2 1 1 409 446 399 
4 2 2 1 1 410 444 407 
5 2 2 1 1 85 442 220 
6 2 2 1 1 227 439 298 
7 2 2 1 1 126 299 127 
8 2 2 1 1 127 300 126 
9 2 2 1 1 125 301 124 
10 2 2 1 1 124 302 125 
11 2 2 1 1 194 410 262 
12 2 2 1 1 137 238 138 
13 2 2 1 1 136 239 135 
14 2 2 1 1 142 240 141 
15 2 2 1 1 150 233 149 
16 2 2 1 1 147 237 148 
17 2 2 1 1 144 234 143 
18 2 2 1 1 131 235 132 
19 2 2 1 1 153 236 154 
20 2 2 1 1 164 504 165 
21 2 2 1 1 440 479 163 
22 2 2 1 1 378 445 386 
23 2 2 1 1 143 254 144 
24 2 2 1 1 317 375 242 
25 2 2 1 1 311 328 197 
26 2 2 1 1 312 329 194 
27 2 2 1 1 134 378 133 
28 2 2 1 1 151 381 303 
29 2 2 1 1 146 382 304 
30 2 2 1 1 135 308 134 
31 2 2 1 1 138 309 139 
32 2 2 1 1 141 310 140 
33 3 2 1 1 455 486 465 423
34 3 2 1 1 467 498 495 392
35 3 2 1 1 527 503 466 494
36 3 2 1 1 357 232 294 333
37 3 2 1 1 466 503 471 424
38 3 2 1 1 464 521 481 393
39 3 2 1 1 100 232 180 99
40 3 2 1 1 183 361 321 285
41 3 2 1 1 294 232 100 101
42 3 2 1 1 181 294 101 102
43 3 2 1 1 456 502 501 468
44 3 2 1 1 473 502 456 431
45 3 2 1 1 102 103 218 181
46 3 2 1 1 469 500 455 434
47 3 2 1 1 182 293 104 105
48 3 2 1 1 104 293 218 103
49 3 2 1 1 468 501 497 430
50 3 2 1 1 335 429 295 192
51 3 2 1 1 106 228 182 105
52 3 2 1 1 295 429 361 183
53 3 2 1 1 183 285 107 108
54 3 2 1 1 107 285 228 106
55 3 2 1 1 451 500 469 404
56 3 2 1 1 109 295 183 108
57 3 2 1 1 192 295 109 110
58 3 2 1 1 454 499 451 426
59 3 2 1 1 192 110 111 270
60 3 2 1 1 215 270 111 112
61 3 2 1 1 333 294 181 244
62 3 2 1 1 114 229 113 24
63 3 2 1 1 113 229 215 112
64 3 2 1 1 512 539 448 497
65 3 2 1 1 282 362 320 179
66 3 2 1 1 178 280 72 73
67 3 2 1 1 72 280 223 71
68 3 2 1 1 500 526 486 455
69 3 2 1 1 74 224 178 73
70 3 2 1 1 486 511 493 465
71 3 2 1 1 179 281 75 76
72 3 2 1 1 75 281 224 74
73 3 2 1 1 77 282 179 76
74 3 2 1 1 193 282 77 78
75 3 2 1 1 277 185 324 363
76 3 2 1 1 193 78 79 273
77 3 2 1 1 79 80 217 273
78 3 2 1 1 481 541 540 524
79 3 2 1 1 320 428 281 179
80 3 2 1 1 281 428 369 224
81 3 2 1 1 448 539 507 498
82 3 2 1 1 284 373 334 189
83 3 2 1 1 336 368 286 230
84 3 2 1 1 337 372 287 231
85 3 2 1 1 293 374 338 218
86 3 2 1 1 90 225 176 23
87 3 2 1 1 503 525 472 471
88 3 2 1 1 91 214 225 90
89 3 2 1 1 189 283 92 93
90 3 2 1 1 92 283 214 91
91 3 2 1 1 472 525 502 473
92 3 2 1 1 470 524 499 454
93 3 2 1 1 94 284 189 93
94 3 2 1 1 226 284 94 95
95 3 2 1 1 481 524 470 393
96 3 2 1 1 212 226 95 96
97 3 2 1 1 392 495 480 475
98 3 2 1 1 170 171 493 522
99 3 2 1 1 168 169 533 548
100 3 2 1 1 333 391 463 357
101 3 2 1 1 336 432 367 368
102 3 2 1 1 427 432 336 252
103 3 2 1 1 360 433 337 292
104 3 2 1 1 337 433 405 372
105 3 2 1 1 421 163 164 474
106 3 2 1 1 392 475 338 374
107 3 2 1 1 163 421 359 162
108 3 2 1 1 291 161 162 359
109 3 2 1 1 204 160 161 291
110 3 2 1 1 160 203 290 161
111 3 2 1 1 158 157 358 274
112 3 2 1 1 393 470 428 320
113 3 2 1 1 494 171 170 523
114 3 2 1 1 157 156 289 358
115 3 2 1 1 366 434 355 271
116 3 2 1 1 289 156 155 221
117 3 2 1 1 288 205 155 156
118 3 2 1 1 437 243 357 463
119 3 2 1 1 373 435 404 334
120 3 2 1 1 426 435 371 246
121 3 2 1 1 361 468 430 321
122 3 2 1 1 456 468 361 429
123 3 2 1 1 371 435 373 253
124 3 2 1 1 362 464 393 320
125 3 2 1 1 404 469 365 334
126 3 2 1 1 365 469 434 366
127 3 2 1 1 367 432 431 335
128 3 2 1 1 369 454 426 246
129 3 2 1 1 434 455 423 355
130 3 2 1 1 115 286 229 114
131 3 2 1 1 230 286 115 116
132 3 2 1 1 448 498 467 394
133 3 2 1 1 190 230 116 117
134 3 2 1 1 118 287 190 117
135 3 2 1 1 231 287 118 119
136 3 2 1 1 430 497 448 394
137 3 2 1 1 216 231 119 120
138 3 2 1 1 431 456 429 335
139 3 2 1 1 428 470 454 369
140 3 2 1 1 472 473 427 405
141 3 2 1 1 427 473 431 432
142 3 2 1 1 292 216 176 175
143 3 2 1 1 424 471 433 360
144 3 2 1 1 271 175 176 225
145 3 2 1 1 334 365 283 189
146 3 2 1 1 360 292 175 174
147 3 2 1 1 496 447 319 425
148 3 2 1 1 321 430 394 370
149 3 2 1 1 424 360 174 173
150 3 2 1 1 174 355 423 173
151 3 2 1 1 322 291 359 422
152 3 2 1 1 271 355 174 175
153 3 2 1 1 493 171 172 465
154 3 2 1 1 424 173 172 466
155 3 2 1 1 172 173 423 465
156 3 2 1 1 171 494 466 172
157 3 2 1 1 533 169 170 522
158 3 2 1 1 471 472 405 433
159 3 2 1 1 426 451 404 435
160 3 2 1 1 291 322 247 204
161 3 2 1 1 289 221 206 364
162 3 2 1 1 244 436 391 333
163 3 2 1 1 31 203 160 8
164 3 2 1 1 534 553 533 522
165 3 2 1 1 475 436 244 338
166 3 2 1 1 245 374 293 182
167 3 2 1 1 245 467 392 374
168 3 2 1 1 394 467 245 370
169 3 2 1 1 246 371 280 178
170 3 2 1 1 524 540 526 499
171 3 2 1 1 523 543 527 494
172 3 2 1 1 521 551 541 481
173 3 2 1 1 187 45 46 198
174 3 2 1 1 206 277 363 364
175 3 2 1 1 198 46 47 199
176 3 2 1 1 49 221 155 14
177 3 2 1 1 50 206 221 49
178 3 2 1 1 185 277 51 52
179 3 2 1 1 51 277 206 50
180 3 2 1 1 527 543 512 542
181 3 2 1 1 526 540 511 486
182 3 2 1 1 53 278 185 52
183 3 2 1 1 222 278 53 54
184 3 2 1 1 511 534 522 493
185 3 2 1 1 207 222 54 55
186 3 2 1 1 59 207 55 16
187 3 2 1 1 543 552 539 512
188 3 2 1 1 365 366 214 283
189 3 2 1 1 286 368 215 229
190 3 2 1 1 3 26 202 275
191 3 2 1 1 214 366 271 225
192 3 2 1 1 215 368 367 270
193 3 2 1 1 216 292 337 231
194 3 2 1 1 217 425 319 273
195 3 2 1 1 203 31 7 296
196 3 2 1 1 539 552 550 507
197 3 2 1 1 218 338 244 181
198 3 2 1 1 8 160 204 32
199 3 2 1 1 204 247 9 32
200 3 2 1 1 527 542 525 503
201 3 2 1 1 222 207 279 347
202 3 2 1 1 14 155 205 43
203 3 2 1 1 223 253 226 212
204 3 2 1 1 224 369 246 178
205 3 2 1 1 228 370 245 182
206 3 2 1 1 321 370 228 285
207 3 2 1 1 23 176 216 120
208 3 2 1 1 252 336 230 190
209 3 2 1 1 267 201 25 1
210 3 2 1 1 551 553 534 541
211 3 2 1 1 540 541 534 511
212 3 2 1 1 232 357 243 180
213 3 2 1 1 121 209 66 17
214 3 2 1 1 499 526 500 451
215 3 2 1 1 70 212 96 21
216 3 2 1 1 501 542 512 497
217 3 2 1 1 525 542 501 502
218 3 2 1 1 60 279 207 59
219 3 2 1 1 495 498 507 537
220 3 2 1 1 362 282 193 420
221 3 2 1 1 253 373 284 226
222 3 2 1 1 280 371 253 223
223 3 2 1 1 405 427 252 372
224 3 2 1 1 287 372 252 190
225 3 2 1 1 519 480 495 537
226 3 2 1 1 270 367 335 192
227 3 2 1 1 71 223 212 70
228 3 2 1 1 274 202 159 158
229 3 2 1 1 464 362 420 492
230 3 2 1 1 492 520 521 464
231 3 2 1 1 48 13 37 200
232 3 2 1 1 159 201 268 158
233 3 2 1 1 530 551 521 520
234 3 2 1 1 202 26 2 159
235 3 2 1 1 2 25 201 159
236 3 2 1 1 199 47 48 200
237 3 2 1 1 356 425 217 272
238 3 2 1 1 273 319 420 193
239 3 2 1 1 447 492 420 319
240 3 2 1 1 177 272 81 82
241 3 2 1 1 217 80 81 272
242 3 2 1 1 506 520 492 447
243 3 2 1 1 425 356 476 496
244 3 2 1 1 84 186 269 83
245 3 2 1 1 177 82 83 269
246 3 2 1 1 476 518 538 496
247 3 2 1 1 506 447 496 538
248 3 2 1 1 518 476 390 485
249 3 2 1 1 436 475 480 490
250 3 2 1 1 517 491 165 166
251 3 2 1 1 42 276 184 41
252 3 2 1 1 164 165 491 474
253 3 2 1 1 391 436 490 452
254 3 2 1 1 205 276 42 43
255 3 2 1 1 167 168 548 531
256 3 2 1 1 531 517 166 167
257 3 2 1 1 480 519 515 490
258 3 2 1 1 188 39 40 266
259 3 2 1 1 40 41 184 266
260 3 2 1 1 200 37 38 265
261 3 2 1 1 482 450 421 474
262 3 2 1 1 491 517 528 510
263 3 2 1 1 288 156 157 351
264 3 2 1 1 517 531 545 528
265 3 2 1 1 510 482 474 491
266 3 2 1 1 554 545 531 548
267 3 2 1 1 548 533 553 554
268 3 2 1 1 553 551 530 554
269 3 2 1 1 554 530 549 545
270 3 2 1 1 520 506 549 530
271 3 2 1 1 359 421 450 422
272 3 2 1 1 184 325 415 266
273 3 2 1 1 265 38 39 188
274 3 2 1 1 351 157 158 268
275 3 2 1 1 272 177 318 356
276 3 2 1 1 318 390 476 356
277 3 2 1 1 462 390 318 348
278 3 2 1 1 349 276 205 288
279 3 2 1 1 60 61 191 279
280 3 2 1 1 324 185 278 419
281 3 2 1 1 418 353 274 358
282 3 2 1 1 358 289 364 418
283 3 2 1 1 354 290 203 296
284 3 2 1 1 349 288 351 438
285 3 2 1 1 264 199 200 265
286 3 2 1 1 546 529 508 535
287 3 2 1 1 188 266 415 332
288 3 2 1 1 202 274 353 275
289 3 2 1 1 184 276 349 325
290 3 2 1 1 265 188 332 264
291 3 2 1 1 268 350 438 351
292 3 2 1 1 419 278 222 347
293 3 2 1 1 350 268 201 267
294 3 2 1 1 199 264 263 198
295 3 2 1 1 364 363 416 418
296 3 2 1 1 264 332 417 263
297 3 2 1 1 347 279 191 250
298 3 2 1 1 186 249 348 269
299 3 2 1 1 318 177 269 348
300 3 2 1 1 296 261 397 354
301 3 2 1 1 263 417 330 251
302 3 2 1 1 267 262 331 350
303 3 2 1 1 198 263 251 187
304 3 2 1 1 414 325 349 438
305 3 2 1 1 414 438 350 331
306 3 2 1 1 412 416 363 324
307 3 2 1 1 417 332 415 461
308 3 2 1 1 401 462 348 249
309 3 2 1 1 323 248 3 275
310 3 2 1 1 353 418 416 402
311 3 2 1 1 412 324 419 413
312 3 2 1 1 346 260 9 247
313 3 2 1 1 402 323 275 353
314 3 2 1 1 130 129 255 211
315 3 2 1 1 396 346 247 322
316 3 2 1 1 461 415 325 414
317 3 2 1 1 453 396 322 422
318 3 2 1 1 413 419 347 250
319 3 2 1 1 516 484 450 482
320 3 2 1 1 484 453 422 450
321 3 2 1 1 536 516 482 510
322 3 2 1 1 547 536 510 528
323 3 2 1 1 528 545 549 547
324 3 2 1 1 536 518 485 516
325 3 2 1 1 547 538 518 536
326 3 2 1 1 549 506 538 547
327 3 2 1 1 69 20 130 211
328 3 2 1 1 297 44 45 187
329 3 2 1 1 65 66 209 314
330 3 2 1 1 98 99 180 259
331 3 2 1 1 452 490 515 513
332 3 2 1 1 169 532 523 170
333 3 2 1 1 552 543 523 532
334 3 2 1 1 180 243 340 259
335 3 2 1 1 407 377 251 330
336 3 2 1 1 391 452 488 463
337 3 2 1 1 56 208 121 17
338 3 2 1 1 87 213 130 20
339 3 2 1 1 209 121 122 257
340 3 2 1 1 210 68 69 211
341 3 2 1 1 186 84 85 220
342 3 2 1 1 191 61 62 219
343 3 2 1 1 33 9 260 195
344 3 2 1 1 27 3 248 196
345 3 2 1 1 262 267 1 194
346 3 2 1 1 261 296 7 197
347 3 2 1 1 477 401 249 341
348 3 2 1 1 339 250 191 219
349 3 2 1 1 403 340 243 437
350 3 2 1 1 97 98 259 227
351 3 2 1 1 339 375 409 411
352 3 2 1 1 344 123 122 256
353 3 2 1 1 343 128 129 258
354 3 2 1 1 250 339 411 413
355 3 2 1 1 187 251 377 297
356 3 2 1 1 488 505 478 487
357 3 2 1 1 403 437 487 460
358 3 2 1 1 537 507 550 546
359 3 2 1 1 437 463 488 487
360 3 2 1 1 546 535 519 537
361 3 2 1 1 532 169 168 544
362 3 2 1 1 167 529 544 168
363 3 2 1 1 166 508 529 167
364 3 2 1 1 550 552 532 544
365 3 2 1 1 544 529 546 550
366 3 2 1 1 515 519 535 509
367 3 2 1 1 459 331 262 410
368 3 2 1 1 124 123 344 302
369 3 2 1 1 127 128 343 300
370 3 2 1 1 461 414 331 459
371 3 2 1 1 508 504 509 535
372 3 2 1 1 330 417 461 459
373 3 2 1 1 341 220 442 376
374 3 2 1 1 488 452 513 505
375 3 2 1 1 460 400 406 403
376 3 2 1 1 460 397 261 400
377 3 2 1 1 407 330 459 410
378 3 2 1 1 402 416 412 458
379 3 2 1 1 412 413 411 458
380 3 2 1 1 127 299 342 128
381 3 2 1 1 408 376 316 445
382 3 2 1 1 509 483 513 515
383 3 2 1 1 396 453 489 457
384 3 2 1 1 248 323 399 327
385 3 2 1 1 489 401 477 457
386 3 2 1 1 346 396 457 398
387 3 2 1 1 260 346 398 326
388 3 2 1 1 323 402 458 399
389 3 2 1 1 124 301 345 123
390 3 2 1 1 453 484 514 489
391 3 2 1 1 484 516 485 514
392 3 2 1 1 504 479 483 509
393 3 2 1 1 339 219 441 375
394 3 2 1 1 317 242 142 141
395 3 2 1 1 316 241 131 132
396 3 2 1 1 144 254 389 145
397 3 2 1 1 254 377 407 389
398 3 2 1 1 457 477 408 398
399 3 2 1 1 514 462 401 489
400 3 2 1 1 485 390 462 514
401 3 2 1 1 458 411 409 399
402 3 2 1 1 255 129 128 342
403 3 2 1 1 409 375 317 446
404 3 2 1 1 210 211 255 310
405 3 2 1 1 235 314 306 132
406 3 2 1 1 257 122 123 345
407 3 2 1 1 298 439 406 388
408 3 2 1 1 238 196 309 138
409 3 2 1 1 239 195 308 135
410 3 2 1 1 258 213 315 307
411 3 2 1 1 256 208 313 305
412 3 2 1 1 408 477 341 376
413 3 2 1 1 153 298 388 152
414 3 2 1 1 479 440 449 483
415 3 2 1 1 314 209 257 306
416 3 2 1 1 147 302 344 146
417 3 2 1 1 150 300 343 151
418 3 2 1 1 342 299 138 139
419 3 2 1 1 220 341 249 186
420 3 2 1 1 345 301 135 134
421 3 2 1 1 445 378 326 398
422 3 2 1 1 259 340 439 227
423 3 2 1 1 240 210 310 141
424 3 2 1 1 297 143 15 44
425 3 2 1 1 4 137 126 5
426 3 2 1 1 10 136 125 11
427 3 2 1 1 125 148 12 11
428 3 2 1 1 227 154 22 97
429 3 2 1 1 126 149 6 5
430 3 2 1 1 18 142 242 63
431 3 2 1 1 19 131 241 86
432 3 2 1 1 303 328 311 233
433 3 2 1 1 304 329 312 237
434 3 2 1 1 446 379 327 399
435 3 2 1 1 240 67 68 210
436 3 2 1 1 236 315 88 89
437 3 2 1 1 234 313 57 58
438 3 2 1 1 233 311 30 29
439 3 2 1 1 237 312 36 35
440 3 2 1 1 505 513 483 449
441 3 2 1 1 395 352 290 354
442 3 2 1 1 478 395 354 397
443 3 2 1 1 379 139 309 327
444 3 2 1 1 378 134 308 326
445 3 2 1 1 479 504 164 163
446 3 2 1 1 397 460 487 478
447 3 2 1 1 165 504 508 166
448 3 2 1 1 449 395 478 505
449 3 2 1 1 162 352 440 163
450 3 2 1 1 315 213 87 88
451 3 2 1 1 313 208 56 57
452 3 2 1 1 149 233 29 6
453 3 2 1 1 148 237 35 12
454 3 2 1 1 143 234 58 15
455 3 2 1 1 154 236 89 22
456 3 2 1 1 67 240 142 18
457 3 2 1 1 352 162 161 290
458 3 2 1 1 64 235 131 19
459 3 2 1 1 403 406 439 340
460 3 2 1 1 381 443 328 303
461 3 2 1 1 381 151 152 388
462 3 2 1 1 122 121 208 256
463 3 2 1 1 129 130 213 258
464 3 2 1 1 86 241 442 85
465 3 2 1 1 234 144 305 313
466 3 2 1 1 236 153 307 315
467 3 2 1 1 34 239 136 10
468 3 2 1 1 28 238 137 4
469 3 2 1 1 382 444 329 304
470 3 2 1 1 7 30 311 197
471 3 2 1 1 1 36 312 194
472 3 2 1 1 62 63 441 219
473 3 2 1 1 304 237 147 146
474 3 2 1 1 303 233 150 151
475 3 2 1 1 382 146 145 389
476 3 2 1 1 140 310 380 139
477 3 2 1 1 410 194 329 444
478 3 2 1 1 235 64 65 314
479 3 2 1 1 395 449 440 352
480 3 2 1 1 152 384 307 153
481 3 2 1 1 145 383 305 144
482 3 2 1 1 154 227 298 153
483 3 2 1 1 254 143 297 377
484 3 2 1 1 327 309 196 248
485 3 2 1 1 326 308 195 260
486 3 2 1 1 238 28 27 196
487 3 2 1 1 239 34 33 195
488 3 2 1 1 306 385 133 132
489 3 2 1 1 441 63 242 375
490 3 2 1 1 197 328 400 261
491 3 2 1 1 133 378 386 132
492 3 2 1 1 140 139 379 387
493 3 2 1 1 241 316 376 442
494 3 2 1 1 148 125 302 147
495 3 2 1 1 149 126 300 150
496 3 2 1 1 301 125 136 135
497 3 2 1 1 299 126 137 138
498 3 2 1 1 444 382 389 407
499 3 2 1 1 134 133 385 345
500 3 2 1 1 443 381 388 406
501 3 2 1 1 384 343 258 307
502 3 2 1 1 383 344 256 305
503 3 2 1 1 383 145 146 344
504 3 2 1 1 384 152 151 343
505 3 2 1 1 400 328 443 406
506 3 2 1 1 387 317 141 140
507 3 2 1 1 387 379 446 317
508 3 2 1 1 316 132 386 445
509 3 2 1 1 380 310 255 342
510 3 2 1 1 385 306 257 345
$EndElements
