$MeshFormat
2.2 0 8
$EndMeshFormat
$Nodes
242
8 0 0 0
9 100 0 0
10 0 100 0
11 100 100 0
28 10 0 0
29 20 0 0
30 30 0 0
31 40 0 0
32 50 0 0
33 60 0 0
34 70 0 0
35 80 0 0
36 90 0 0
37 0 90 0
38 0 80 0
39 0 70 0
40 0 60 0
41 0 50 0
42 0 40 0
43 0 30 0
44 0 20 0
45 0 10 0
46 100 10 0
47 100 20 0
48 100 30 0
49 100 40 0
50 100 50 0
51 100 60 0
52 100 70 0
53 100 80 0
54 100 90 0
55 90 100 0
56 80 100 0
57 70 100 0
58 60 100 0
59 50 100 0
60 40 100 0
61 30 100 0
62 20 100 0
63 10 100 0
64 30 70 0
65 90 30 0
66 30 90 0
67 70 30 0
68 10 80 0
69 10 20 0
70 60 10 0
71 80 10 0
72 90 70 0
73 90 50 0
74 40 10 0
75 10 30 0
76 10 50 0
77 30 10 0
78 20 10 0
79 10 70 0
80 80 90 0
81 90 80 0
82 50 70 0
83 40 90 0
84 70 90 0
85 50 90 0
86 70 50 0
87 90 10 0
88 10 10 0
89 10 90 0
90 90 90 0
91 30 80 0
92 90 40 0
93 70 10 0
94 90 20 0
95 40 80 0
96 70 20 0
97 50 10 0
98 20 90 0
99 10 60 0
100 20 70 0
101 60 90 0
102 50 80 0
103 80 50 0
104 70 40 0
105 40 70 0
106 90 60 0
107 10 40 0
108 80 30 0
109 80 20 0
110 20 80 0
111 80 40 0
128 40.1014984393035 30.1562910056763 0
129 50.1268684533825 50.2066630526813 0
130 30.085864430323 50.0989705338064 0
131 30.0653784271103 30.0712525484566 0
132 50.0733629399502 30.1459255571119 0
133 40.1221876281103 50.173764128639 0
134 50.1096721019365 40.1913592301692 0
135 30.0935630636558 40.1058200579118 0
136 40.1249259868336 40.1741821709713 0
145 70.03125 70.03125 0
146 20 20 0
147 60 20 0
148 60 60 0
149 20 60 0
150 80 80 0
151 60 80 0
152 80 60 0
153 30 20 0
154 40 20 0
155 50 20 0
156 60 30 0
157 60 40 0
158 60 50 0
159 50 60 0
160 40 60 0
161 30 60 0
162 20 50 0
163 20 40 0
164 20 30 0
165 70 80 0
166 60 70 0
167 70 60 0
168 80 70 0
146 100 0 0
147 100 100 0
148 200 0 0
149 200 100 0
157 100 10 0
158 100 20 0
159 100 30 0
160 100 40 0
161 100 50 0
162 100 60 0
163 100 70 0
164 100 80 0
165 100 90 0
166 110 0 0
167 120 0 0
168 130 0 0
169 140 0 0
170 150 0 0
171 160 0 0
172 170 0 0
173 180 0 0
174 190 0 0
175 200 10 0
176 200 20 0
177 200 30 0
178 200 40 0
179 200 50 0
180 200 60 0
181 200 70 0
182 200 80 0
183 200 90 0
184 190 100 0
185 180 100 0
186 170 100 0
187 160 100 0
188 150 100 0
189 140 100 0
190 130 100 0
191 120 100 0
192 110 100 0
209 190 30 0
210 120 90 0
211 170 30 0
212 130 70 0
213 110 60 0
214 110 80 0
215 190 50 0
216 190 70 0
217 140 90 0
218 110 40 0
219 110 30 0
220 110 20 0
221 120 10 0
222 160 10 0
223 180 10 0
224 170 50 0
225 190 80 0
226 180 90 0
227 160 90 0
228 150 70 0
229 140 10 0
230 110 10 0
231 110 90 0
232 190 10 0
233 190 90 0
234 190 40 0
235 110 70 0
236 120 70 0
237 190 20 0
238 110 50 0
239 170 20 0
240 180 50 0
241 150 80 0
242 130 10 0
243 170 10 0
244 170 90 0
245 130 90 0
246 170 40 0
247 140 70 0
248 120 80 0
249 190 60 0
250 150 10 0
251 150 90 0
252 180 30 0
253 180 20 0
254 130 80 0
255 140 80 0
256 180 40 0
273 140.101498439304 30.1562910056763 0
274 150.126868453382 50.2066630526813 0
275 130.085864430323 50.0989705338064 0
276 130.06537842711 30.0712525484566 0
277 150.07336293995 30.1459255571119 0
278 140.12218762811 50.173764128639 0
279 150.109672101937 40.1913592301692 0
280 130.093563063656 40.1058200579118 0
281 140.124925986834 40.1741821709713 0
290 170.03125 70.03125 0
291 120 20 0
292 160 20 0
293 160 60 0
294 120 60 0
295 180 60 0
296 180 80 0
297 160 80 0
298 130 20 0
299 140 20 0
300 150 20 0
301 160 30 0
302 160 40 0
303 160 50 0
304 150 60 0
305 140 60 0
306 130 60 0
307 120 50 0
308 120 40 0
309 120 30 0
310 170 60 0
311 180 70 0
312 170 80 0
313 160 70 0
$EndNodes
$Elements
200
1 3 2 1 1 109 94 65 108
2 3 2 1 1 108 67 96 109
3 3 2 1 1 64 105 95 91
4 3 2 1 1 66 98 110 91
5 3 2 1 1 48 65 94 47
6 3 2 1 1 67 108 111 104
8 3 2 1 1 30 31 74 77
9 3 2 1 1 32 97 74 31
10 3 2 1 1 33 70 97 32
11 3 2 1 1 34 93 70 33
12 3 2 1 1 35 71 93 34
13 3 2 1 1 35 36 87 71
14 3 2 1 1 41 42 107 76
15 3 2 1 1 44 69 75 43
16 3 2 1 1 42 43 75 107
17 3 2 1 1 50 51 106 73
18 3 2 1 1 51 52 72 106
19 3 2 1 1 60 83 85 59
20 3 2 1 1 62 98 66 61
21 3 2 1 1 109 96 93 71
22 3 2 1 1 71 87 94 109
23 3 2 1 1 65 92 111 108
31 3 2 1 1 49 50 73 92
32 3 2 1 1 52 53 81 72
33 3 2 1 1 91 110 100 64
34 3 2 1 1 110 98 89 68
35 3 2 1 1 95 105 82 102
36 3 2 1 1 73 103 111 92
55 3 2 1 1 8 28 88 45
56 3 2 1 1 29 78 88 28
57 3 2 1 1 30 77 78 29
58 3 2 1 1 9 46 87 36
59 3 2 1 1 10 37 89 63
60 3 2 1 1 38 68 89 37
61 3 2 1 1 39 79 68 38
62 3 2 1 1 99 79 39 40
63 3 2 1 1 40 41 76 99
64 3 2 1 1 44 45 88 69
65 3 2 1 1 94 87 46 47
66 3 2 1 1 92 65 48 49
67 3 2 1 1 11 55 90 54
68 3 2 1 1 53 54 90 81
69 3 2 1 1 56 80 90 55
70 3 2 1 1 57 84 80 56
71 3 2 1 1 101 84 57 58
72 3 2 1 1 58 59 85 101
73 3 2 1 1 83 60 61 66
74 3 2 1 1 98 62 63 89
75 3 2 1 1 110 68 79 100
78 3 2 1 1 66 91 95 83
79 3 2 1 1 86 104 111 103
80 3 2 1 1 102 85 83 95
81 3 2 1 1 129 133 136 134
89 3 2 1 1 136 135 131 128
90 3 2 1 1 136 133 130 135
95 3 2 1 1 134 136 128 132
7 3 2 1 1 70 93 96 147
24 3 2 1 1 97 70 147 155
25 3 2 1 1 168 72 81 150
26 3 2 1 1 101 85 102 151
27 3 2 1 1 72 168 152 106
28 3 2 1 1 103 73 106 152
29 3 2 1 1 74 97 155 154
30 3 2 1 1 159 82 105 160
37 3 2 1 1 75 69 146 164
38 3 2 1 1 153 146 78 77
39 3 2 1 1 96 67 156 147
40 3 2 1 1 159 148 166 82
41 3 2 1 1 158 86 167 148
42 3 2 1 1 161 64 100 149
43 3 2 1 1 99 149 100 79
44 3 2 1 1 101 151 165 84
45 3 2 1 1 102 82 166 151
46 3 2 1 1 103 152 167 86
47 3 2 1 1 74 154 153 77
48 3 2 1 1 104 157 156 67
49 3 2 1 1 157 104 86 158
50 3 2 1 1 161 160 105 64
51 3 2 1 1 149 99 76 162
52 3 2 1 1 75 164 163 107
53 3 2 1 1 162 76 107 163
54 3 2 1 1 150 80 84 165
76 3 2 1 1 146 69 88 78
77 3 2 1 1 150 81 90 80
82 3 2 1 1 146 153 131 164
83 3 2 1 1 153 154 128 131
84 3 2 1 1 155 132 128 154
85 3 2 1 1 147 156 132 155
86 3 2 1 1 134 132 156 157
87 3 2 1 1 149 162 130 161
88 3 2 1 1 164 131 135 163
91 3 2 1 1 158 148 159 129
92 3 2 1 1 129 159 160 133
93 3 2 1 1 130 133 160 161
94 3 2 1 1 163 135 130 162
96 3 2 1 1 157 158 129 134
97 3 2 1 1 145 166 148 167
98 3 2 1 1 145 165 151 166
99 3 2 1 1 145 167 152 168
100 3 2 1 1 165 145 168 150
101 3 2 2 2 209 252 253 237
102 3 2 2 2 161 160 218 238
103 3 2 2 2 162 161 238 213
104 3 2 2 2 177 209 237 176
105 3 2 2 2 211 252 256 246
107 3 2 2 2 159 219 218 160
108 3 2 2 2 235 214 164 163
109 3 2 2 2 164 214 231 165
110 3 2 2 2 179 180 249 215
111 3 2 2 2 180 181 216 249
113 3 2 2 2 231 214 248 210
114 3 2 2 2 209 234 256 252
119 3 2 2 2 171 222 250 170
120 3 2 2 2 178 179 215 234
121 3 2 2 2 181 182 225 216
122 3 2 2 2 189 217 251 188
124 3 2 2 2 251 217 255 241
125 3 2 2 2 215 240 256 234
126 3 2 2 2 228 241 255 247
137 3 2 2 2 146 166 230 157
138 3 2 2 2 158 157 230 220
139 3 2 2 2 159 158 220 219
140 3 2 2 2 147 165 231 192
141 3 2 2 2 167 221 230 166
142 3 2 2 2 168 242 221 167
143 3 2 2 2 229 242 168 169
144 3 2 2 2 170 250 229 169
145 3 2 2 2 172 243 222 171
146 3 2 2 2 173 223 243 172
147 3 2 2 2 148 175 232 174
148 3 2 2 2 173 174 232 223
149 3 2 2 2 175 176 237 232
150 3 2 2 2 234 209 177 178
151 3 2 2 2 149 184 233 183
152 3 2 2 2 182 183 233 225
153 3 2 2 2 185 226 233 184
154 3 2 2 2 186 244 226 185
155 3 2 2 2 227 244 186 187
156 3 2 2 2 188 251 227 187
157 3 2 2 2 190 245 217 189
158 3 2 2 2 191 210 245 190
159 3 2 2 2 191 192 231 210
168 3 2 2 2 252 211 239 253
169 3 2 2 2 236 212 254 248
170 3 2 2 2 247 255 254 212
171 3 2 2 2 235 236 248 214
174 3 2 2 2 253 223 232 237
175 3 2 2 2 243 223 253 239
177 3 2 2 2 224 246 256 240
178 3 2 2 2 210 248 254 245
179 3 2 2 2 217 245 254 255
180 3 2 2 2 213 235 163 162
181 3 2 2 2 274 278 281 279
189 3 2 2 2 281 280 276 273
190 3 2 2 2 281 278 275 280
195 3 2 2 2 279 281 273 277
106 3 2 2 2 235 213 294 236
112 3 2 2 2 218 308 307 238
115 3 2 2 2 238 307 294 213
116 3 2 2 2 216 311 295 249
117 3 2 2 2 240 215 249 295
118 3 2 2 2 311 216 225 296
123 3 2 2 2 304 228 247 305
127 3 2 2 2 309 219 220 291
128 3 2 2 2 250 222 292 300
129 3 2 2 2 301 292 239 211
130 3 2 2 2 303 224 310 293
131 3 2 2 2 304 293 313 228
132 3 2 2 2 306 212 236 294
133 3 2 2 2 240 295 310 224
134 3 2 2 2 227 297 312 244
135 3 2 2 2 241 228 313 297
136 3 2 2 2 241 297 227 251
160 3 2 2 2 229 299 298 242
161 3 2 2 2 291 221 242 298
162 3 2 2 2 300 299 229 250
163 3 2 2 2 246 302 301 211
164 3 2 2 2 302 246 224 303
165 3 2 2 2 306 305 247 212
166 3 2 2 2 218 219 309 308
167 3 2 2 2 296 226 244 312
172 3 2 2 2 291 220 230 221
173 3 2 2 2 292 222 243 239
176 3 2 2 2 296 225 233 226
182 3 2 2 2 291 298 276 309
183 3 2 2 2 298 299 273 276
184 3 2 2 2 300 277 273 299
185 3 2 2 2 292 301 277 300
186 3 2 2 2 279 277 301 302
187 3 2 2 2 294 307 275 306
188 3 2 2 2 309 276 280 308
191 3 2 2 2 303 293 304 274
192 3 2 2 2 274 304 305 278
193 3 2 2 2 275 278 305 306
194 3 2 2 2 308 280 275 307
196 3 2 2 2 302 303 274 279
197 3 2 2 2 290 313 293 310
198 3 2 2 2 290 310 295 311
199 3 2 2 2 290 312 297 313
200 3 2 2 2 312 290 311 296
$EndElements
