$MeshFormat
2.2 0 8
$EndMeshFormat
$Nodes
35
1 400 400 0
2 600 400 0
3 600 600 0
4 400 600 0
5 0 0 0
6 1000 0 0
7 0 1000 0
8 1000 1000 0
9 250 0 0
10 500 0 0
11 750 0 0
12 0 750 0
13 0 500 0
14 0 250 0
15 1000 250 0
16 1000 500 0
17 1000 750 0
18 750 1000 0
19 500 1000 0
20 250 1000 0
21 409.974425523141 230.042822753314 0
22 206.291554650973 438.412921955314 0
23 767.653910286506 589.206771216997 0
24 541.690044636262 792.182865274387 0
25 768.018427023618 779.329207253566 0
26 780.569020036225 219.306014186323 0
27 306.67549409898 789.009980505126 0
28 220.067708649367 228.261230795105 0
29 593.152947303269 226.037899046712 0
30 212.545664403068 585.453461249882 0
31 773.562494818851 407.2178277924 0
32 400 400 0
33 600 400 0
34 600 600 0
35 400 600 0
$EndNodes
$Elements
23
1 2 2 1 1 23 31 16 
2 2 2 1 1 10 29 21 
3 3 2 1 1 17 8 18 25
4 3 2 1 1 14 5 9 28
5 3 2 1 1 27 20 7 12
6 3 2 1 1 19 20 27 24
7 3 2 1 1 2 1 21 29
8 3 2 1 1 18 19 24 25
9 3 2 1 1 26 31 2 29
10 3 2 1 1 22 1 4 30
11 3 2 1 1 6 15 26 11
12 3 2 1 1 2 31 23 3
13 3 2 1 1 1 22 28 21
14 3 2 1 1 25 24 3 23
15 3 2 1 1 23 16 17 25
16 3 2 1 1 9 10 21 28
17 3 2 1 1 22 13 14 28
18 3 2 1 1 29 10 11 26
19 3 2 1 1 24 27 4 3
20 3 2 1 1 13 22 30 12
21 3 2 1 1 15 16 31 26
22 3 2 1 1 30 4 27 12
23 3 2 1 1 2 3 4 1
$EndElements
