$MeshFormat
2.2 0 8
$EndMeshFormat
$Nodes
231
2 0 0 0
4 1000 0 0
5 0 2000 0
7 1000 2000 0
9 0 700 0
10 0 600 0
11 0 500 0
12 0 400 0
13 0 300 0
14 0 200 0
15 0 100 0
25 1000 100 0
26 1000 200 0
27 1000 300 0
28 1000 400 0
29 1000 500 0
30 1000 600 0
31 1000 700 0
32 100 0 0
33 200 0 0
34 300 0 0
35 400 0 0
36 500 0 0
37 600 0 0
38 700 0 0
39 800 0 0
40 900 0 0
41 0 1900 0
42 0 1800 0
43 0 1700 0
44 0 1600 0
45 900 2000 0
46 800 2000 0
47 700 2000 0
48 600 2000 0
49 500 2000 0
50 400 2000 0
51 300 2000 0
52 200 2000 0
53 100 2000 0
54 1000 1600 0
55 1000 1700 0
56 1000 1800 0
57 1000 1900 0
67 400 700 0
68 500 100 0
69 900 400 0
70 100 400 0
71 700 700 0
72 800 100 0
73 300 100 0
74 900 700 0
75 100 700 0
76 100 200 0
77 200 700 0
78 500 700 0
79 900 100 0
80 700 100 0
81 100 600 0
82 100 100 0
83 900 200 0
84 900 500 0
85 400 600 0
86 200 600 0
87 800 400 0
88 600 100 0
89 300 700 0
90 600 700 0
91 200 100 0
92 400 100 0
93 800 200 0
94 100 500 0
95 100 300 0
96 800 700 0
97 900 300 0
98 900 600 0
99 500 200 0
100 200 400 0
101 700 600 0
102 700 200 0
103 500 600 0
104 300 600 0
105 800 300 0
106 800 500 0
107 200 200 0
108 400 200 0
109 200 500 0
110 800 600 0
111 400 500 0
112 500 300 0
113 300 500 0
114 700 400 0
115 600 200 0
116 700 500 0
117 700 300 0
118 300 200 0
119 200 300 0
120 600 600 0
121 400 300 0
122 600 400 0
123 600 300 0
124 400 400 0
125 300 300 0
126 300 400 0
127 500 500 0
128 600 500 0
129 500 400 0
130 200 1900 0
131 700 1900 0
132 400 1900 0
133 300 1600 0
134 800 1600 0
135 600 1600 0
136 100 1700 0
137 800 1900 0
138 500 1600 0
139 200 1600 0
140 100 1900 0
141 100 1600 0
142 900 1600 0
143 900 1900 0
144 900 1700 0
145 500 1900 0
146 400 1800 0
147 200 1700 0
148 700 1800 0
149 200 1800 0
150 300 1900 0
151 400 1600 0
152 600 1700 0
153 100 1800 0
154 600 1900 0
155 900 1800 0
156 800 1700 0
157 700 1600 0
158 300 1700 0
159 300 1800 0
160 500 1700 0
161 500 1800 0
162 800 1800 0
163 600 1800 0
164 700 1700 0
165 400 1700 0
179 1000 900 0
180 1000 1000 0
181 1000 1100 0
191 0 1100 0
192 0 1000 0
193 0 900 0
194 200 1100 0
195 800 900 0
196 500 900 0
197 300 900 0
198 700 1100 0
199 400 1100 0
200 200 900 0
201 900 1000 0
202 100 1100 0
203 700 900 0
204 100 900 0
205 900 900 0
206 900 1100 0
207 500 1100 0
208 300 1000 0
209 300 1100 0
210 200 1000 0
211 800 1000 0
212 600 900 0
213 800 1100 0
214 400 900 0
215 100 1000 0
216 600 1100 0
217 400 1000 0
218 700 1000 0
219 500 1000 0
220 600 1000 0
234 0 1400 0
235 0 1300 0
245 1000 1300 0
246 1000 1400 0
247 798.48852233979 1298.79784495776 0
248 199.987892352015 1400.05805036769 0
249 399.71481445512 1300.46119364436 0
250 598.22197480371 1399.44355440648 0
251 798.464467685952 1398.79489693606 0
252 299.922853767738 1400.2086796899 0
253 99.9974390790502 1300.01291953989 0
254 399.695567109105 1400.35892667066 0
255 299.917431179901 1300.17609656979 0
256 99.9972138675514 1400.01395817721 0
257 899.458319824705 1299.54989849787 0
258 899.461688345392 1399.55741971458 0
259 698.233349189161 1298.91279352608 0
260 598.666127254046 1299.67023568937 0
261 199.979769918519 1300.0589099458 0
262 698.388244134572 1398.99250187196 0
263 499.320792089214 1300.25039853709 0
264 499.305702269172 1400.10115601612 0
265 0 800 0
266 1000 800 0
267 0 1500 0
268 1000 1500 0
269 100 800 0
270 200 800 0
271 300 800 0
272 400 800 0
273 500 800 0
274 600 800 0
275 700 800 0
276 800 800 0
277 900 800 0
278 900 1500 0
279 800 1500 0
280 700 1500 0
281 600 1500 0
282 500 1500 0
283 400 1500 0
284 300 1500 0
285 200 1500 0
286 100 1500 0
287 1000 1200 0
288 0 1200 0
289 900 1200 0
290 800 1200 0
291 700 1200 0
292 600 1200 0
293 500 1200 0
294 400 1200 0
295 300 1200 0
296 200 1200 0
297 100 1200 0
$EndNodes
$Elements
200
1 3 2 1 1 37 88 68 36
4 3 2 1 1 25 79 40 4
5 3 2 1 1 79 25 26 83
6 3 2 1 1 69 97 27 28
7 3 2 1 1 83 26 27 97
8 3 2 1 1 94 109 86 81
9 3 2 1 1 29 84 69 28
10 3 2 1 1 74 98 30 31
11 3 2 1 1 30 98 84 29
12 3 2 1 1 33 91 82 32
13 3 2 1 1 35 36 68 92
14 3 2 1 1 109 100 126 113
16 3 2 1 1 80 88 37 38
17 3 2 1 1 125 119 107 118
18 3 2 1 1 103 120 90 78
19 3 2 1 1 106 84 98 110
20 3 2 1 1 76 82 91 107
21 3 2 1 1 96 110 98 74
22 3 2 1 1 95 76 107 119
23 3 2 1 1 73 118 107 91
24 3 2 1 1 108 118 73 92
25 3 2 1 1 95 119 100 70
26 3 2 1 1 100 109 94 70
27 3 2 1 1 75 81 86 77
28 3 2 1 1 92 68 99 108
29 3 2 1 1 15 82 76 14
30 3 2 1 1 10 81 75 9
31 3 2 1 1 32 82 15 2
32 3 2 1 1 70 94 11 12
33 3 2 1 1 119 125 126 100
34 3 2 1 1 84 106 87 69
36 3 2 1 1 124 126 125 121
37 3 2 1 1 13 95 70 12
38 3 2 1 1 76 95 13 14
39 3 2 1 1 118 108 121 125
40 3 2 1 1 11 94 81 10
41 3 2 1 1 35 92 73 34
42 3 2 1 1 85 111 127 103
45 3 2 1 1 112 129 124 121
46 3 2 1 1 99 112 121 108
47 3 2 1 1 73 91 33 34
48 3 2 1 1 97 69 87 105
49 3 2 1 1 79 83 93 72
50 3 2 1 1 40 79 72 39
51 3 2 1 1 39 72 80 38
53 3 2 1 1 114 87 106 116
54 3 2 1 1 87 114 117 105
55 3 2 1 1 99 68 88 115
56 3 2 1 1 83 97 105 93
57 3 2 1 1 71 101 110 96
58 3 2 1 1 116 106 110 101
60 3 2 1 1 128 122 114 116
62 3 2 1 1 114 122 123 117
64 3 2 1 1 113 126 124 111
65 3 2 1 1 80 102 115 88
66 3 2 1 1 93 102 80 72
67 3 2 1 1 129 127 111 124
68 3 2 1 1 122 128 127 129
69 3 2 1 1 85 103 78 67
70 3 2 1 1 103 127 128 120
71 3 2 1 1 129 112 123 122
72 3 2 1 1 111 85 104 113
73 3 2 1 1 86 109 113 104
74 3 2 1 1 67 89 104 85
75 3 2 1 1 105 117 102 93
76 3 2 1 1 89 77 86 104
77 3 2 1 1 90 120 101 71
78 3 2 1 1 120 128 116 101
79 3 2 1 1 115 102 117 123
80 3 2 1 1 123 112 99 115
81 3 2 1 1 55 144 142 54
82 3 2 1 1 131 148 162 137
83 3 2 1 1 161 163 154 145
84 3 2 1 1 142 144 156 134
85 3 2 1 1 151 138 160 165
86 3 2 1 1 52 130 150 51
87 3 2 1 1 53 140 130 52
88 3 2 1 1 158 133 151 165
90 3 2 1 1 41 140 53 5
91 3 2 1 1 143 155 56 57
92 3 2 1 1 56 155 144 55
94 3 2 1 1 148 131 154 163
98 3 2 1 1 145 154 48 49
99 3 2 1 1 48 154 131 47
100 3 2 1 1 42 43 136 153
101 3 2 1 1 140 41 42 153
102 3 2 1 1 137 162 155 143
103 3 2 1 1 131 137 46 47
104 3 2 1 1 137 143 45 46
105 3 2 1 1 45 143 57 7
106 3 2 1 1 155 162 156 144
107 3 2 1 1 136 43 44 141
110 3 2 1 1 153 136 147 149
111 3 2 1 1 147 158 159 149
112 3 2 1 1 139 147 136 141
114 3 2 1 1 150 159 146 132
115 3 2 1 1 165 146 159 158
116 3 2 1 1 149 159 150 130
117 3 2 1 1 132 146 161 145
118 3 2 1 1 140 153 149 130
119 3 2 1 1 158 147 139 133
120 3 2 1 1 135 157 164 152
121 3 2 1 1 152 160 138 135
122 3 2 1 1 156 162 148 164
123 3 2 1 1 160 161 146 165
126 3 2 1 1 163 152 164 148
127 3 2 1 1 157 134 156 164
128 3 2 1 1 132 145 49 50
129 3 2 1 1 132 50 51 150
130 3 2 1 1 152 163 161 160
133 3 2 1 1 179 180 201 205
134 3 2 1 1 213 198 218 211
136 3 2 1 1 201 180 181 206
143 3 2 1 1 202 191 192 215
144 3 2 1 1 204 215 192 193
145 3 2 1 1 196 219 217 214
146 3 2 1 1 197 214 217 208
147 3 2 1 1 219 207 199 217
153 3 2 1 1 208 217 199 209
154 3 2 1 1 215 204 200 210
155 3 2 1 1 218 220 212 203
157 3 2 1 1 219 196 212 220
158 3 2 1 1 205 201 211 195
159 3 2 1 1 211 218 203 195
161 3 2 1 1 216 207 219 220
163 3 2 1 1 201 206 213 211
166 3 2 1 1 200 197 208 210
167 3 2 1 1 209 194 210 208
168 3 2 1 1 202 215 210 194
170 3 2 1 1 198 216 220 218
172 3 2 1 1 234 235 253 256
177 3 2 1 1 255 249 254 252
182 3 2 1 1 252 248 261 255
183 3 2 1 1 256 253 261 248
185 3 2 1 1 257 245 246 258
189 3 2 1 1 257 258 251 247
193 3 2 1 1 263 264 254 249
196 3 2 1 1 250 264 263 260
198 3 2 1 1 259 247 251 262
200 3 2 1 1 262 250 260 259
2 3 2 1 1 277 74 31 266
3 3 2 1 1 96 74 277 276
15 3 2 1 1 9 75 269 265
35 3 2 1 1 270 269 75 77
43 3 2 1 1 271 89 67 272
44 3 2 1 1 270 77 89 271
52 3 2 1 1 276 275 71 96
59 3 2 1 1 78 90 274 273
61 3 2 1 1 71 275 274 90
63 3 2 1 1 273 272 67 78
89 3 2 1 1 54 142 278 268
93 3 2 1 1 278 142 134 279
95 3 2 1 1 279 134 157 280
96 3 2 1 1 280 157 135 281
97 3 2 1 1 284 283 151 133
108 3 2 1 1 286 141 44 267
109 3 2 1 1 139 141 286 285
113 3 2 1 1 285 284 133 139
124 3 2 1 1 282 138 151 283
125 3 2 1 1 282 281 135 138
131 3 2 1 1 207 216 292 293
132 3 2 1 1 179 205 277 266
135 3 2 1 1 289 206 181 287
137 3 2 1 1 198 213 290 291
138 3 2 1 1 290 213 206 289
139 3 2 1 1 291 292 216 198
140 3 2 1 1 269 270 200 204
141 3 2 1 1 296 297 202 194
142 3 2 1 1 191 202 297 288
148 3 2 1 1 269 204 193 265
149 3 2 1 1 273 196 214 272
150 3 2 1 1 194 209 295 296
151 3 2 1 1 214 197 271 272
152 3 2 1 1 271 197 200 270
156 3 2 1 1 203 212 274 275
160 3 2 1 1 212 196 273 274
162 3 2 1 1 199 207 293 294
164 3 2 1 1 276 277 205 195
165 3 2 1 1 294 295 209 199
169 3 2 1 1 275 276 195 203
171 3 2 1 1 297 253 235 288
173 3 2 1 1 289 257 247 290
174 3 2 1 1 245 257 289 287
175 3 2 1 1 286 256 248 285
176 3 2 1 1 234 256 286 267
178 3 2 1 1 284 285 248 252
179 3 2 1 1 295 294 249 255
180 3 2 1 1 252 254 283 284
181 3 2 1 1 253 297 296 261
184 3 2 1 1 296 295 255 261
186 3 2 1 1 291 290 247 259
187 3 2 1 1 278 258 246 268
188 3 2 1 1 292 291 259 260
190 3 2 1 1 254 264 282 283
191 3 2 1 1 278 279 251 258
192 3 2 1 1 293 263 249 294
194 3 2 1 1 260 263 293 292
195 3 2 1 1 282 264 250 281
197 3 2 1 1 280 281 250 262
199 3 2 1 1 251 279 280 262
$EndElements
