$MeshFormat
2.2 0 8
$EndMeshFormat
$Nodes
81
5 0 0 0
6 80 0 0
7 0 80 0
8 80 80 0
21 10 0 0
22 20 0 0
23 30 0 0
24 40 0 0
25 50 0 0
26 60 0 0
27 70 0 0
28 0 70 0
29 0 60 0
30 0 50 0
31 0 40 0
32 0 30 0
33 0 20 0
34 0 10 0
35 80 10 0
36 80 20 0
37 80 30 0
38 80 40 0
39 80 50 0
40 80 60 0
41 80 70 0
42 70 80 0
43 60 80 0
44 50 80 0
45 40 80 0
46 30 80 0
47 20 80 0
48 10 80 0
49 20 10 0
50 10 20 0
51 50 10 0
52 70 30 0
53 70 10 0
54 70 60 0
55 60 70 0
56 30 70 0
57 10 50 0
58 10 70 0
59 30 10 0
60 70 50 0
61 50 70 0
62 10 30 0
63 10 10 0
64 70 70 0
65 60 10 0
66 70 20 0
67 10 60 0
68 20 70 0
69 40 10 0
70 70 40 0
71 40 70 0
72 10 40 0
89 40.1014984393035 30.1562910056763 0
90 50.1268684533825 50.2066630526813 0
91 30.085864430323 50.0989705338064 0
92 30.0653784271103 30.0712525484566 0
93 50.0733629399502 30.1459255571119 0
94 40.1221876281103 50.173764128639 0
95 50.1096721019365 40.1913592301692 0
96 30.0935630636558 40.1058200579118 0
97 40.1249259868336 40.1741821709713 0
98 20 20 0
99 60 20 0
100 60 60 0
101 20 60 0
102 30 20 0
103 40 20 0
104 50 20 0
105 60 30 0
106 60 40 0
107 60 50 0
108 50 60 0
109 40 60 0
110 30 60 0
111 20 50 0
112 20 40 0
113 20 30 0
$EndNodes
$Elements
64
1 3 2 1 1 24 25 51 69
5 3 2 1 1 41 64 54 40
7 3 2 1 1 42 64 41 8
8 3 2 1 1 40 54 60 39
10 3 2 1 1 21 63 34 5
11 3 2 1 1 49 63 21 22
12 3 2 1 1 39 60 70 38
13 3 2 1 1 59 49 22 23
14 3 2 1 1 69 59 23 24
15 3 2 1 1 55 64 42 43
16 3 2 1 1 52 37 38 70
17 3 2 1 1 26 65 51 25
18 3 2 1 1 53 65 26 27
19 3 2 1 1 66 36 37 52
20 3 2 1 1 35 53 27 6
21 3 2 1 1 28 58 48 7
22 3 2 1 1 29 67 58 28
23 3 2 1 1 36 66 53 35
24 3 2 1 1 67 29 30 57
25 3 2 1 1 57 30 31 72
26 3 2 1 1 34 63 50 33
27 3 2 1 1 33 50 62 32
28 3 2 1 1 32 62 72 31
40 3 2 1 1 58 68 47 48
43 3 2 1 1 61 55 43 44
44 3 2 1 1 47 68 56 46
46 3 2 1 1 45 46 56 71
48 3 2 1 1 71 61 44 45
55 3 2 1 1 96 92 89 97
58 3 2 1 1 94 91 96 97
62 3 2 1 1 97 89 93 95
63 3 2 1 1 94 97 95 90
2 3 2 1 1 108 61 71 109
3 3 2 1 1 56 110 109 71
4 3 2 1 1 68 101 110 56
6 3 2 1 1 112 111 57 72
9 3 2 1 1 72 62 113 112
29 3 2 1 1 70 60 107 106
30 3 2 1 1 98 49 59 102
31 3 2 1 1 62 50 98 113
32 3 2 1 1 99 66 52 105
33 3 2 1 1 53 66 99 65
34 3 2 1 1 54 64 55 100
35 3 2 1 1 60 54 100 107
36 3 2 1 1 100 55 61 108
37 3 2 1 1 101 67 57 111
38 3 2 1 1 101 68 58 67
39 3 2 1 1 50 63 49 98
41 3 2 1 1 102 59 69 103
42 3 2 1 1 51 104 103 69
45 3 2 1 1 65 99 104 51
47 3 2 1 1 106 105 52 70
49 3 2 1 1 102 92 113 98
50 3 2 1 1 111 91 110 101
51 3 2 1 1 105 93 104 99
52 3 2 1 1 103 89 92 102
53 3 2 1 1 93 89 103 104
54 3 2 1 1 96 91 111 112
56 3 2 1 1 94 109 110 91
57 3 2 1 1 92 96 112 113
59 3 2 1 1 108 109 94 90
60 3 2 1 1 107 90 95 106
61 3 2 1 1 93 105 106 95
64 3 2 1 1 100 108 90 107
$EndElements
