$MeshFormat
2.2 0 8
$EndMeshFormat
$Nodes
121
1 10 10 0
2 20 10 0
3 20 20 0
4 10 20 0
5 50 10 0
6 60 10 0
7 60 20 0
8 50 20 0
9 10 60 0
10 20 60 0
11 20 70 0
12 10 70 0
13 50 60 0
14 60 60 0
15 60 70 0
16 50 70 0
17 0 0 0
18 100 0 0
19 0 100 0
20 100 100 0
21 10 0 0
22 20 0 0
23 30 0 0
24 40 0 0
25 50 0 0
26 60 0 0
27 70 0 0
28 80 0 0
29 90 0 0
30 0 90 0
31 0 80 0
32 0 70 0
33 0 60 0
34 0 50 0
35 0 40 0
36 0 30 0
37 0 20 0
38 0 10 0
39 100 10 0
40 100 20 0
41 100 30 0
42 100 40 0
43 100 50 0
44 100 60 0
45 100 70 0
46 100 80 0
47 100 90 0
48 90 100 0
49 80 100 0
50 70 100 0
51 60 100 0
52 50 100 0
53 40 100 0
54 30 100 0
55 20 100 0
56 10 100 0
57 89.9638172077601 29.9916243627884 0
58 69.9641386893984 69.9756059758824 0
59 60.4150105990261 30.0667875310302 0
60 30.0127467788728 90.0020803888204 0
61 40.0140019395717 90.0016945229742 0
62 30.159308952805 70.0291452047311 0
63 10.0024142494249 90.0004013830034 0
64 89.9251380981386 59.9834081103514 0
65 50.7306969851231 50.205928636368 0
66 69.9946943478351 89.9884691147823 0
67 10.0827925637764 50.0122525736768 0
68 10.0524152191656 30.0092802052207 0
69 70.0135823211714 9.993577086243 0
70 30.0394463938248 10.003782244846 0
71 90.0016703846663 9.99661348809508 0
72 89.9835973498652 79.9865343287785 0
73 40.0482879125064 10.0046712958186 0
74 59.9973492585295 79.9893525432222 0
75 89.9271698259548 39.9930541919522 0
76 20.0217562510171 80.0038270816858 0
77 10.0040800868756 80.0007046215651 0
78 40.4329720002441 60.0903380359365 0
79 89.9949898837263 89.9938748238842 0
80 50.0083244111064 89.9987004845362 0
81 40.715329557824 50.1508383263418 0
82 20.2603316704885 50.0434437803739 0
83 50.5743890349615 30.0983897513721 0
84 80.0023523865311 30.0003157542593 0
85 69.9974179941597 60.0268560129649 0
86 20.1702754723039 30.0289682200679 0
87 30.1659561223193 20.0232806217254 0
88 89.9175905281236 49.9925693661435 0
89 30.0532848091407 80.0095174192104 0
90 70.0658068273295 19.9989715758192 0
91 40.0555170214749 80.0093713449047 0
92 89.9966645384486 19.9947498801516 0
93 80.0099718440772 9.99503377991371 0
94 10.0981313558665 40.0163376840808 0
95 60.0002768567504 89.9933619300327 0
96 20.0098316317782 90.0017012662728 0
97 40.220899839334 20.0317333909062 0
98 30.3257388715892 60.0605258137142 0
99 40.1484282592047 70.028639299777 0
100 50.0230915382806 80.0012608670478 0
101 89.9602325462938 69.9826470843939 0
102 79.9924548552338 89.9889775932869 0
103 69.983466867964 79.9802099603554 0
104 60.3943554179964 50.1485585397507 0
105 79.9728189299126 40.0211966876942 0
106 30.3700860177198 30.0625283870562 0
107 30.4859755011355 50.0916802092522 0
108 50.7723285936445 40.1716141979438 0
109 79.9282442044189 59.9959159181412 0
110 79.9575096572924 69.9807344158332 0
111 70.1607975473772 30.0373688415915 0
112 20.2643947060019 40.0462468853016 0
113 40.5046337691326 30.0888427990077 0
114 80.0218362149094 19.9968548349494 0
115 79.9785827204464 79.981853629486 0
116 70.1026531340717 50.0729346146428 0
117 40.677495895326 40.1371693327274 0
118 30.4661634625611 40.0869397681575 0
119 79.9611282384692 50.0194066721224 0
120 70.2049886332683 40.0781800964741 0
121 60.4837802378353 40.1295939257628 0
$EndNodes
$Elements
96
1 3 2 1 1 83 59 121 108
2 3 2 1 1 14 104 116 85
3 3 2 1 1 108 117 113 83
4 3 2 1 1 117 118 106 113
5 3 2 1 1 2 1 21 22
6 3 2 1 1 1 4 37 38
7 3 2 1 1 26 6 5 25
8 3 2 1 1 12 32 33 9
9 3 2 1 1 1 38 17 21
10 3 2 1 1 33 34 67 9
11 3 2 1 1 116 120 105 119
12 3 2 1 1 85 109 110 58
13 3 2 1 1 116 119 109 85
14 3 2 1 1 75 88 119 105
15 3 2 1 1 60 96 76 89
16 3 2 1 1 34 35 94 67
17 3 2 1 1 41 57 92 40
18 3 2 1 1 118 112 86 106
19 3 2 1 1 62 99 91 89
20 3 2 1 1 107 98 10 82
21 3 2 1 1 23 24 73 70
22 3 2 1 1 6 26 27 69
23 3 2 1 1 69 27 28 93
24 3 2 1 1 35 36 68 94
25 3 2 1 1 42 75 57 41
26 3 2 1 1 88 75 42 43
27 3 2 1 1 43 44 64 88
28 3 2 1 1 45 101 64 44
29 3 2 1 1 53 61 80 52
30 3 2 1 1 55 96 60 54
31 3 2 1 1 82 67 94 112
32 3 2 1 1 101 72 115 110
33 3 2 1 1 57 75 105 84
34 3 2 1 1 57 84 114 92
35 3 2 1 1 64 109 119 88
36 3 2 1 1 64 101 110 109
37 3 2 1 1 58 110 115 103
38 3 2 1 1 84 105 120 111
39 3 2 1 1 25 5 73 24
40 3 2 1 1 67 82 10 9
41 3 2 1 1 16 99 78 13
42 3 2 1 1 91 99 16 100
43 3 2 1 1 45 46 72 101
44 3 2 1 1 98 78 99 62
45 3 2 1 1 95 74 103 66
46 3 2 1 1 112 94 68 86
47 3 2 1 1 74 95 80 100
48 3 2 1 1 8 83 113 97
49 3 2 1 1 23 70 2 22
50 3 2 1 1 86 68 4 3
51 3 2 1 1 2 70 87 3
52 3 2 1 1 86 3 87 106
53 3 2 1 1 36 37 4 68
54 3 2 1 1 97 73 5 8
55 3 2 1 1 7 6 69 90
56 3 2 1 1 59 83 8 7
57 3 2 1 1 111 59 7 90
58 3 2 1 1 98 62 11 10
59 3 2 1 1 89 76 11 62
60 3 2 1 1 32 12 77 31
61 3 2 1 1 11 76 77 12
62 3 2 1 1 85 58 15 14
63 3 2 1 1 74 100 16 15
64 3 2 1 1 103 74 15 58
65 3 2 1 1 29 71 93 28
66 3 2 1 1 18 39 71 29
67 3 2 1 1 19 30 63 56
68 3 2 1 1 30 31 77 63
69 3 2 1 1 39 40 92 71
70 3 2 1 1 20 48 79 47
71 3 2 1 1 46 47 79 72
72 3 2 1 1 50 66 102 49
73 3 2 1 1 48 49 102 79
74 3 2 1 1 95 66 50 51
75 3 2 1 1 80 95 51 52
76 3 2 1 1 61 53 54 60
77 3 2 1 1 96 55 56 63
78 3 2 1 1 60 89 91 61
79 3 2 1 1 96 63 77 76
80 3 2 1 1 73 97 87 70
81 3 2 1 1 72 79 102 115
82 3 2 1 1 107 82 112 118
83 3 2 1 1 69 93 114 90
84 3 2 1 1 84 111 90 114
85 3 2 1 1 71 92 114 93
86 3 2 1 1 87 97 113 106
87 3 2 1 1 66 103 115 102
88 3 2 1 1 100 80 61 91
89 3 2 1 1 59 111 120 121
90 3 2 1 1 118 117 81 107
91 3 2 1 1 117 108 65 81
92 3 2 1 1 98 107 81 78
93 3 2 1 1 120 116 104 121
94 3 2 1 1 78 81 65 13
95 3 2 1 1 108 121 104 65
96 3 2 1 1 13 65 104 14
$EndElements
