$MeshFormat
2.2 0 8
$EndMeshFormat
$Nodes
236
1 0 0 0
2 0 200 0
3 0 200 100
4 0 0 100
5 0 20 40
6 0 160 80
7 0 10 0
8 0 20 0
9 0 30 0
10 0 40 0
11 0 50 0
12 0 60 0
13 0 70 0
14 0 80 0
15 0 90 0
16 0 100 0
17 0 110 0
18 0 120 0
19 0 130 0
20 0 140 0
21 0 150 0
22 0 160 0
23 0 170 0
24 0 180 0
25 0 190 0
26 0 200 10
27 0 200 20
28 0 200 30
29 0 200 40
30 0 200 50
31 0 200 60
32 0 200 70
33 0 200 80
34 0 200 90
35 0 190 100
36 0 180 100
37 0 170 100
38 0 160 100
39 0 150 100
40 0 140 100
41 0 130 100
42 0 120 100
43 0 110 100
44 0 100 100
45 0 90 100
46 0 80 100
47 0 70 100
48 0 60 100
49 0 50 100
50 0 40 100
51 0 30 100
52 0 20 100
53 0 10 100
54 0 0 90
55 0 0 80
56 0 0 70
57 0 0 60
58 0 0 50
59 0 0 40
60 0 0 30
61 0 0 20
62 0 0 10
63 0 29.3333333333333 42.6666666666667
64 0 38.6666666666666 45.3333333333333
65 0 47.9999999999999 48
66 0 57.3333333333333 50.6666666666667
67 0 66.6666666666666 53.3333333333333
68 0 75.9999999999999 56
69 0 85.3333333333332 58.6666666666666
70 0 94.6666666666666 61.3333333333333
71 0 104 64
72 0 113.333333333333 66.6666666666666
73 0 122.666666666667 69.3333333333333
74 0 132 72
75 0 141.333333333333 74.6666666666667
76 0 150.666666666667 77.3333333333333
77 0 150.029517556684 9.93317679267623
78 0 119.986697049409 9.95094245633694
79 0 89.757816587116 9.98795571477191
80 0 40.3568342560484 89.6119737472108
81 0 61.0450296320346 10.6171247214686
82 0 189.824726660113 40.1998685886755
83 0 70.0264736439827 90.6555737909426
84 0 29.9414683101825 10.1515647901019
85 0 189.781750560657 69.6802588555075
86 0 9.90768039961276 70.0975371099829
87 0 170.02043848194 9.97646288379324
88 0 99.3075197096448 89.4586108184369
89 0 190.003044034945 9.99880014183
90 0 129.593183801784 89.9813491790314
91 0 146.898097912597 86.5923033152837
92 0 9.95417543906521 30.243182267299
93 0 9.94496194912611 40.2001899745739
94 0 178.892056874538 92.645739129751
95 0 168.238192142556 88.0351268735907
96 0 9.91102145574428 50.2353102758463
97 0 119.859232446767 89.4664657726477
98 0 190.361843125369 59.9073875467557
99 0 40.0108647364003 10.1345539095013
100 0 89.6847328387018 90.2114236239784
101 0 60.2160126415665 90.6992775640986
102 0 192.741003147133 90.8131450906747
103 0 30.1046906801788 89.688832528536
104 0 9.98317344052248 89.9792552072358
105 0 99.7876905701171 10.153873475216
106 0 71.155034879679 10.0147093753314
107 0 130.004708213223 9.92867676354786
108 0 189.953711999577 30.0343843094818
109 0 9.98125925779324 10.1008841844848
110 0 120.026892465714 19.8241607239653
111 0 88.7007334338366 21.4365319399065
112 0 29.7229670954664 79.6639079450947
113 0 63.3905107629234 23.6988587489291
114 0 160.114191002277 69.7704429603225
115 0 70.0004875299792 79.6325142265677
116 0 30.1229870913087 20.2728744624795
117 0 179.670106546908 40.0447712747559
118 0 180.441692053024 66.6882294916784
119 0 90.0796083054825 80.0796197028591
120 0 20.1328458078258 30.7588697360392
121 0 155.662064611285 88.9046174125362
122 0 176.540227609903 76.5614654652513
123 0 136.432325016439 89.8462428939005
124 0 109.42570808883 89.1160259020751
125 0 9.88361817943192 60.2390100682747
126 0 9.98563257012577 20.216467006301
127 0 79.9738602236749 90.6551502214629
128 0 50.4340733989894 10.4729964364616
129 0 50.4967263036023 90.2202709728095
130 0 80.4225261117646 9.59103239457237
131 0 187.688011322769 82.3090573980088
132 0 109.938823153962 10.0090995442525
133 0 189.986933514765 50.3046026807483
134 0 140.02012690115 9.91818463212623
135 0 19.9845428525443 10.167904538492
136 0 9.94450492876086 80.014701814267
137 0 160.031460389699 9.95015031807086
138 0 19.9715106656759 89.9163369403512
139 0 189.995894537402 20.0027542032576
140 0 180.009733258825 9.99058108236134
141 0 19.6764739142613 50.9696623706979
142 0 130.485230910171 80.5811646457907
143 0 140.096782778388 19.7343211464047
144 0 142.392204733768 64.7237409082706
145 0 19.5939250668046 60.8156110390521
146 0 49.9388149712646 20.5181082506371
147 0 80.847980996907 16.7616424261248
148 0 109.975367404421 19.9222234774807
149 0 178.319855706197 51.6180409760571
150 0 160.080322640467 19.8357885573461
151 0 179.938351442759 29.9735760882504
152 0 97.33031280299 79.3356929744537
153 0 32.3673475547577 31.3922153151931
154 0 120.595015275407 79.1459762439048
155 0 80.1683716937373 83.5354364564167
156 0 20.1715017941494 20.4194216777571
157 0 165.548580501825 79.1916177855956
158 0 39.9263227608513 19.7181274706237
159 0 74.6389583638165 19.6596938345713
160 0 99.966026765904 20.2035348847828
161 0 183.054578788951 59.7651902354894
162 0 19.8317475801527 80.0021073957519
163 0 130.083048621459 19.7560812164977
164 0 53.113718911457 80.834684883436
165 0 41.1933025104153 77.3943253218532
166 0 60.6468152028804 83.6933230360131
167 0 180.004147982309 19.9776726312237
168 0 132.791979017263 61.8002048873618
169 0 151.313196152392 67.6919366884292
170 0 29.1056430133056 52.5796545433803
171 0 140.554229542689 80.6968014983812
172 0 151.372206145763 57.8682636806106
173 0 110.28278523485 29.6271057069086
174 0 130.429079944176 29.4438248962055
175 0 81.1323325749239 29.0489851474314
176 0 46.5125008917278 67.1505191720226
177 0 169.355733145084 60.9967831211808
178 0 46.8871384470654 28.9426921693731
179 0 28.7635343591896 61.8718502879711
180 0 59.6602335546198 70.3864615002794
181 0 82.064277179359 70.5542676629592
182 0 42.3037293725384 36.5934338573494
183 0 108.395802371686 76.6906509824322
184 0 19.6233115521187 70.3741363201387
185 0 169.997221634106 29.8008758681141
186 0 150.107496091908 19.744665877627
187 0 169.94314716421 70.4389308878295
188 0 100.505380862741 29.7903381814327
189 0 169.571736573977 47.0687149417086
190 0 170.031913305786 19.9049530628877
191 0 122.620519499635 59.4500597531359
192 0 144.953023993903 55.4001658115668
193 0 102.162637548725 69.8709072537774
194 0 38.3099760666422 54.9118500678618
195 0 35.6784421628434 70.3141060796082
196 0 40.0119948190818 26.4548474030125
197 0 148.405018435869 47.0549230449206
198 0 103.247660696308 55.6584805549437
199 0 140.375558242545 29.2956292095493
200 0 150.216585035996 29.3409912231238
201 0 110.997006208819 39.0855681329158
202 0 74.2682279158165 35.0112554391878
203 0 47.9183055457377 57.6026189435055
204 0 112.698685892592 57.5432264678156
205 0 120.42576558149 29.5553895781803
206 0 160.082355606555 29.5475353053616
207 0 56.8159654391739 33.171845932207
208 0 71.7068411330841 65.4453069355141
209 0 93.1615476241815 29.9445492734366
210 0 169.782678594054 39.5039631614185
211 0 134.6739591086 50.0529451826414
212 0 94.9817392999861 70.126345173689
213 0 160.37520192304 62.8471992724336
214 0 49.1420930659952 38.5240476080359
215 0 28.8637739851516 70.5578212845373
216 0 37.2106998554143 63.9076987056968
217 0 89.5620537240304 39.1828980230342
218 0 68.7234340433613 40.5292777615198
219 0 121.312207304426 39.3306327955891
220 0 140.86863866328 38.3524936177326
221 0 94.2863712865053 52.7430536404571
222 0 58.0158027013551 43.7345270789055
223 0 101.319596849695 38.8342007422765
224 0 122.308425806717 49.3429020910921
225 0 57.9662193311565 60.2703332010861
226 0 160.099554715212 50.187417651417
227 0 159.901689476713 39.1124572314399
228 0 111.99840181071 48.3501894912199
229 0 141.589580247248 44.9209532474739
230 0 131.543310392757 38.9840788833545
231 0 83.6450786017015 46.8182653858138
232 0 150.095101860169 38.5038509722162
233 0 65.1074835262074 59.4974225649403
234 0 102.499043347033 47.3537418825121
235 0 76.2745510460238 48.3998960433443
236 0 95.548056380693 46.7038564723912
$EndNodes
$Elements
206
1 2 2 1 1 36 37 94 
2 2 2 1 1 94 35 36 
3 3 2 1 1 229 211 230 220
4 3 2 1 1 72 183 193 71
5 3 2 1 1 72 73 154 183
6 3 2 1 1 66 65 214 222
7 3 2 1 1 183 154 97 124
8 3 2 1 1 214 207 218 222
9 3 2 1 1 181 69 70 212
10 3 2 1 1 74 142 154 73
11 3 2 1 1 207 214 182 178
12 3 2 1 1 65 64 182 214
13 3 2 1 1 183 152 212 193
14 3 2 1 1 181 212 152 119
15 3 2 1 1 114 169 172 213
16 3 2 1 1 204 198 234 228
17 3 2 1 1 153 120 156 116
18 3 2 1 1 178 182 153 196
19 3 2 1 1 211 224 219 230
20 3 2 1 1 119 155 115 181
21 3 2 1 1 203 225 180 176
22 3 2 1 1 219 205 174 230
23 3 2 1 1 153 116 158 196
24 3 2 1 1 196 158 146 178
25 3 2 1 1 64 63 153 182
26 3 2 1 1 187 122 95 157
27 3 2 1 1 91 171 75 76
28 3 2 1 1 177 118 122 187
29 3 2 1 1 188 160 148 173
30 3 2 1 1 76 6 121 91
31 3 2 1 1 184 215 112 162
32 3 2 1 1 6 157 95 121
33 3 2 1 1 118 177 149 161
34 3 2 1 1 180 164 165 176
35 3 2 1 1 232 220 199 200
36 3 2 1 1 171 123 90 142
37 3 2 1 1 226 227 210 189
38 3 2 1 1 122 118 85 131
39 3 2 1 1 5 93 92 120
40 3 2 1 1 5 141 96 93
41 3 2 1 1 146 158 99 128
42 3 2 1 1 154 142 90 97
43 3 2 1 1 171 91 40 123
44 3 2 1 1 200 199 143 186
45 3 2 1 1 147 159 106 130
46 3 2 1 1 155 127 83 115
47 3 2 1 1 156 135 84 116
48 3 2 1 1 148 160 105 132
49 3 2 1 1 183 124 88 152
50 3 2 1 1 162 112 103 138
51 3 2 1 1 163 107 134 143
52 3 2 1 1 177 187 114 213
53 3 2 1 1 131 94 95 122
54 3 2 1 1 190 167 151 185
55 3 2 1 1 99 158 116 84
56 3 2 1 1 156 126 109 135
57 3 2 1 1 129 164 166 101
58 3 2 1 1 138 104 136 162
59 3 2 1 1 164 129 80 165
60 3 2 1 1 106 159 113 81
61 3 2 1 1 149 133 98 161
62 3 2 1 1 105 160 111 79
63 3 2 1 1 217 175 111 209
64 3 2 1 1 216 176 165 195
65 3 2 1 1 100 119 152 88
66 3 2 1 1 63 5 120 153
67 3 2 1 1 207 178 146 113
68 3 2 1 1 80 103 112 165
69 3 2 1 1 107 163 110 78
70 3 2 1 1 217 209 188 223
71 3 2 1 1 164 180 115 166
72 3 2 1 1 96 58 59 93
73 3 2 1 1 93 59 60 92
74 3 2 1 1 126 92 60 61
75 3 2 1 1 95 38 39 121
76 3 2 1 1 86 125 145 184
77 3 2 1 1 225 233 208 180
78 3 2 1 1 175 202 113 159
79 3 2 1 1 159 147 111 175
80 3 2 1 1 121 39 40 91
81 3 2 1 1 181 115 180 208
82 3 2 1 1 185 206 150 190
83 3 2 1 1 127 155 119 100
84 3 2 1 1 128 81 113 146
85 3 2 1 1 226 189 149 177
86 3 2 1 1 83 101 166 115
87 3 2 1 1 218 207 113 202
88 3 2 1 1 90 123 40 41
89 3 2 1 1 94 37 38 95
90 3 2 1 1 205 173 148 110
91 3 2 1 1 228 234 223 201
92 3 2 1 1 130 79 111 147
93 3 2 1 1 97 90 41 42
94 3 2 1 1 160 188 209 111
95 3 2 1 1 186 143 134 77
96 3 2 1 1 124 97 42 43
97 3 2 1 1 133 149 117 82
98 3 2 1 1 132 78 110 148
99 3 2 1 1 165 112 215 195
100 3 2 1 1 167 139 108 151
101 3 2 1 1 108 82 117 151
102 3 2 1 1 85 118 161 98
103 3 2 1 1 88 124 43 44
104 3 2 1 1 110 163 174 205
105 3 2 1 1 230 174 199 220
106 3 2 1 1 210 227 206 185
107 3 2 1 1 131 102 35 94
108 3 2 1 1 100 88 44 45
109 3 2 1 1 206 200 186 150
110 3 2 1 1 96 125 57 58
111 3 2 1 1 77 137 150 186
112 3 2 1 1 127 100 45 46
113 3 2 1 1 139 167 140 89
114 3 2 1 1 98 31 32 85
115 3 2 1 1 131 85 32 33
116 3 2 1 1 83 127 46 47
117 3 2 1 1 99 84 9 10
118 3 2 1 1 200 206 227 232
119 3 2 1 1 163 143 199 174
120 3 2 1 1 215 184 145 179
121 3 2 1 1 128 99 10 11
122 3 2 1 1 137 87 190 150
123 3 2 1 1 184 162 136 86
124 3 2 1 1 83 47 48 101
125 3 2 1 1 129 101 48 49
126 3 2 1 1 81 128 11 12
127 3 2 1 1 80 129 49 50
128 3 2 1 1 106 81 12 13
129 3 2 1 1 173 201 223 188
130 3 2 1 1 130 106 13 14
131 3 2 1 1 103 80 50 51
132 3 2 1 1 79 130 14 15
133 3 2 1 1 102 131 33 34
134 3 2 1 1 105 79 15 16
135 3 2 1 1 132 105 16 17
136 3 2 1 1 78 132 17 18
137 3 2 1 1 98 133 30 31
138 3 2 1 1 107 78 18 19
139 3 2 1 1 125 86 56 57
140 3 2 1 1 149 189 210 117
141 3 2 1 1 140 167 190 87
142 3 2 1 1 134 107 19 20
143 3 2 1 1 77 134 20 21
144 3 2 1 1 176 216 194 203
145 3 2 1 1 137 77 21 22
146 3 2 1 1 138 103 51 52
147 3 2 1 1 210 185 151 117
148 3 2 1 1 84 135 8 9
149 3 2 1 1 205 219 201 173
150 3 2 1 1 133 82 29 30
151 3 2 1 1 175 217 231 202
152 3 2 1 1 86 136 55 56
153 3 2 1 1 87 137 22 23
154 3 2 1 1 104 138 52 53
155 3 2 1 1 82 108 28 29
156 3 2 1 1 198 204 72 71
157 3 2 1 1 140 87 23 24
158 3 2 1 1 108 139 27 28
159 3 2 1 1 136 104 54 55
160 3 2 1 1 125 96 141 145
161 3 2 1 1 89 140 24 25
162 3 2 1 1 139 89 26 27
163 3 2 1 1 126 156 120 92
164 3 2 1 1 89 25 2 26
165 3 2 1 1 102 34 3 35
166 3 2 1 1 104 53 4 54
167 3 2 1 1 135 109 7 8
168 3 2 1 1 1 7 109 62
169 3 2 1 1 126 61 62 109
170 3 2 1 1 141 170 179 145
171 3 2 1 1 170 194 216 179
172 3 2 1 1 224 228 201 219
173 3 2 1 1 5 63 170 141
174 3 2 1 1 228 224 191 204
175 3 2 1 1 67 68 208 233
176 3 2 1 1 187 157 6 114
177 3 2 1 1 204 191 73 72
178 3 2 1 1 224 211 168 191
179 3 2 1 1 169 114 6 76
180 3 2 1 1 220 232 197 229
181 3 2 1 1 177 213 172 226
182 3 2 1 1 75 74 168 144
183 3 2 1 1 74 73 191 168
184 3 2 1 1 63 64 194 170
185 3 2 1 1 76 75 144 169
186 3 2 1 1 195 215 179 216
187 3 2 1 1 144 168 211 192
188 3 2 1 1 69 68 235 231
189 3 2 1 1 211 229 197 192
190 3 2 1 1 226 197 232 227
191 3 2 1 1 192 197 226 172
192 3 2 1 1 225 203 65 66
193 3 2 1 1 192 172 169 144
194 3 2 1 1 233 225 66 67
195 3 2 1 1 64 65 203 194
196 3 2 1 1 181 208 68 69
197 3 2 1 1 231 221 70 69
198 3 2 1 1 142 74 75 171
199 3 2 1 1 218 202 231 235
200 3 2 1 1 71 70 221 198
201 3 2 1 1 71 193 212 70
202 3 2 1 1 217 223 234 236
203 3 2 1 1 198 221 236 234
204 3 2 1 1 217 236 221 231
205 3 2 1 1 66 222 218 67
206 3 2 1 1 68 67 218 235
$EndElements
