$MeshFormat
2.2 0 8
$EndMeshFormat
$Nodes
169
1 20 20 0
2 80 20 0
3 80 55 0
4 80 80 0
5 20 80 0
6 20 55 0
7 0 0 0
8 100 0 0
9 0 100 0
10 100 100 0
11 30 20 0
12 40 20 0
13 50 20 0
14 60 20 0
15 70 20 0
16 80 28.75 0
17 80 37.5 0
18 80 46.25 0
19 80 63.3333333333333 0
20 80 71.6666666666667 0
21 70 80 0
22 60 80 0
23 50 80 0
24 40 80 0
25 30 80 0
26 20 71.6666666666667 0
27 20 63.3333333333333 0
28 20 46.25 0
29 20 37.5 0
30 20 28.75 0
31 10 0 0
32 20 0 0
33 30 0 0
34 40 0 0
35 50 0 0
36 60 0 0
37 70 0 0
38 80 0 0
39 90 0 0
40 0 90 0
41 0 80 0
42 0 70 0
43 0 60 0
44 0 50 0
45 0 40 0
46 0 30 0
47 0 20 0
48 0 10 0
49 100 10 0
50 100 20 0
51 100 30 0
52 100 40 0
53 100 50 0
54 100 60 0
55 100 70 0
56 100 80 0
57 100 90 0
58 90 100 0
59 80 100 0
60 70 100 0
61 60 100 0
62 50 100 0
63 40 100 0
64 30 100 0
65 20 100 0
66 10 100 0
67 89.9212217542949 65.895361363261 0
68 11.4441122956443 75.1779796741009 0
69 87.8395339738274 81.2531409799849 0
70 10.0509806796876 57.1832853309907 0
71 89.95366989815 57.1756228831114 0
72 9.99538999023105 38.5727098898662 0
73 89.9236682308215 38.6200282106126 0
74 10.0276101822715 19.7219790608559 0
75 89.9228562512531 29.2850054635556 0
76 26.3928093860504 90.0849264847076 0
77 10.2438628529807 89.6847158278187 0
78 77.1375065141502 88.6154915207208 0
79 70.0211261537249 10.0401888716105 0
80 20.0364843218608 9.98972268535798 0
81 89.9661649726436 9.97334020660367 0
82 89.1969273930133 89.9728234208735 0
83 10.0188573952238 9.95260496997837 0
84 40.0165366086584 10.0130650054143 0
85 60.0101336735667 10.014289062905 0
86 45.3682002503011 89.9926138001824 0
87 65.5850253426952 89.7718351720057 0
88 19.8961861001332 89.7278374309902 0
89 79.9883757975594 9.99925957247049 0
90 13.5155968125683 82.3093124914523 0
91 89.9521472427359 19.7633291539225 0
92 35.3968098938651 90.0032015299207 0
93 50.0061662822003 10.0062351930116 0
94 55.2639718415763 89.9635767332174 0
95 30.018911365328 10.0089611753718 0
96 10.0100099737205 47.9783831578592 0
97 9.98918410405652 29.251263492711 0
98 89.9728542267719 47.9957968000267 0
99 89.8103580592154 72.168986207965 0
100 10.2359120128374 66.4227658576136 0
101 20 20 0
102 80 20 0
103 25 20 20
104 75 20 20
105 80 20 20
106 20 20 20
107 30 20 0
108 40 20 0
109 50 20 0
110 60 20 0
111 70 20 0
112 35 20 20
113 45 20 20
114 55 20 20
115 65 20 20
116 80 20 10
117 20 20 10
118 30.5642981241192 20 11.4402251423969
119 41.8258363318943 20 10.099440625552
120 50.6872199317439 20 8.96743038560446
121 59.4106840960712 20 8.90843825521453
122 68.2683924216136 20 9.82634223346549
123 80 20 0
124 80 55 0
125 80 80 0
126 80 20 20
127 80 80 20
128 80 28.75 0
129 80 37.5 0
130 80 46.25 0
131 80 63.3333333333333 0
132 80 71.6666666666667 0
133 80 20 10
134 80 80 10
135 80 70 20
136 80 60 20
137 80 50 20
138 80 40 20
139 80 30 20
140 80 54.2599686964142 8.79281863390731
141 80 62.0137694774927 9.72979534295663
142 80 29.2928091014109 9.91973791128992
143 80 38.4240721453733 9.79201721043412
144 80 70.9066661612567 9.92744941577626
145 80 46.3901002126053 8.84606680297439
146 35 20 30
147 65 20 30
148 50 20 50
149 40 20 50
150 25 20 20
151 75 20 20
152 35 20 60
153 55 20 60
154 45 20 30
155 55 20 30
156 60 20 36.6666666666667
157 55 20 43.3333333333333
158 37.5 20 40
159 35 20 20
160 45 20 20
161 55 20 20
162 65 20 20
163 32.5 20 50
164 30 20 40
165 27.5 20 30
166 70 20 30
167 65 20 40
168 60 20 50
169 45 20 60
$EndNodes
$Elements
109
1 2 2 1 1 4 78 21 
2 2 2 1 1 66 77 65 
3 2 2 1 1 9 40 66 
4 2 2 1 1 20 69 4 
5 3 2 1 1 71 54 55 67
6 3 2 1 1 100 68 41 42
7 3 2 1 1 96 70 43 44
8 3 2 1 1 68 90 77 41
9 3 2 1 1 98 53 54 71
10 3 2 1 1 67 55 56 99
11 3 2 1 1 70 100 42 43
12 3 2 1 1 97 72 45 46
13 3 2 1 1 91 50 51 75
14 3 2 1 1 75 51 52 73
15 3 2 1 1 72 96 44 45
16 3 2 1 1 73 52 53 98
17 3 2 1 1 74 97 46 47
18 3 2 1 1 88 76 64 65
19 3 2 1 1 95 80 32 33
20 3 2 1 1 89 79 37 38
21 3 2 1 1 65 77 90 88
22 3 2 1 1 82 78 4 69
23 3 2 1 1 33 34 84 95
24 3 2 1 1 5 25 92 76
25 3 2 1 1 83 80 1 74
26 3 2 1 1 86 92 25 24
27 3 2 1 1 41 77 66 40
28 3 2 1 1 69 56 57 82
29 3 2 1 1 78 82 58 59
30 3 2 1 1 89 38 39 81
31 3 2 1 1 91 81 49 50
32 3 2 1 1 80 83 31 32
33 3 2 1 1 74 47 48 83
34 3 2 1 1 84 12 11 95
35 3 2 1 1 81 91 2 89
36 3 2 1 1 3 18 98 71
37 3 2 1 1 76 92 63 64
38 3 2 1 1 83 48 7 31
39 3 2 1 1 81 39 8 49
40 3 2 1 1 82 57 10 58
41 3 2 1 1 79 85 36 37
42 3 2 1 1 92 86 62 63
43 3 2 1 1 78 59 60 87
44 3 2 1 1 14 13 93 85
45 3 2 1 1 79 15 14 85
46 3 2 1 1 84 34 35 93
47 3 2 1 1 36 85 93 35
48 3 2 1 1 84 93 13 12
49 3 2 1 1 78 87 22 21
50 3 2 1 1 87 94 23 22
51 3 2 1 1 24 23 94 86
52 3 2 1 1 94 87 60 61
53 3 2 1 1 61 62 86 94
54 3 2 1 1 1 80 95 11
55 3 2 1 1 6 70 96 28
56 3 2 1 1 15 79 89 2
57 3 2 1 1 56 69 20 99
58 3 2 1 1 90 5 76 88
59 3 2 1 1 97 30 29 72
60 3 2 1 1 97 74 1 30
61 3 2 1 1 91 75 16 2
62 3 2 1 1 98 18 17 73
63 3 2 1 1 29 28 96 72
64 3 2 1 1 99 20 19 67
65 3 2 1 1 90 68 26 5
66 3 2 1 1 100 27 26 68
67 3 2 1 1 100 70 6 27
68 3 2 1 1 19 3 71 67
69 3 2 1 1 17 16 75 73
70 2 2 2 2 103 118 112 
71 2 2 2 2 120 121 114 
72 2 2 2 2 105 104 116 
73 3 2 2 2 102 116 122 111
74 3 2 2 2 120 119 108 109
75 3 2 2 2 121 120 109 110
76 3 2 2 2 110 111 122 121
77 3 2 2 2 119 118 107 108
78 3 2 2 2 107 118 117 101
79 3 2 2 2 113 119 120 114
80 3 2 2 2 122 116 104 115
81 3 2 2 2 115 114 121 122
82 3 2 2 2 112 118 119 113
83 3 2 2 2 103 106 117 118
84 2 2 3 3 137 145 140 
85 3 2 3 3 131 141 140 124
86 3 2 3 3 141 131 132 144
87 3 2 3 3 130 145 143 129
88 3 2 3 3 129 143 142 128
89 3 2 3 3 144 132 125 134
90 3 2 3 3 134 127 135 144
91 3 2 3 3 140 145 130 124
92 3 2 3 3 123 128 142 133
93 3 2 3 3 139 126 133 142
94 3 2 3 3 135 136 141 144
95 3 2 3 3 143 138 139 142
96 3 2 3 3 136 137 140 141
97 3 2 3 3 145 137 138 143
98 3 2 4 4 162 147 155 161
99 3 2 4 4 146 165 150 159
100 3 2 4 4 163 149 169 152
101 3 2 4 4 149 148 153 169
102 3 2 4 4 153 148 157 168
103 3 2 4 4 161 155 154 160
104 3 2 4 4 146 159 160 154
105 3 2 4 4 158 164 165 146
106 3 2 4 4 151 166 147 162
107 3 2 4 4 156 147 166 167
108 3 2 4 4 168 157 156 167
109 3 2 4 4 149 163 164 158
$EndElements
