$MeshFormat
2.2 0 8
$EndMeshFormat
$Nodes
120
1 20 20 0
2 40 20 0
3 40 40 0
4 20 40 0
5 60 60 0
6 80 60 0
7 80 80 0
8 60 80 0
9 20 60 0
10 40 60 0
11 40 80 0
12 20 80 0
13 60 20 0
14 80 20 0
15 80 40 0
16 60 40 0
17 0 0 0
18 100 0 0
19 0 100 0
20 100 100 0
21 30 20 0
22 40 30 0
23 30 40 0
24 20 30 0
37 10 0 0
38 20 0 0
39 30 0 0
40 40 0 0
41 50 0 0
42 60 0 0
43 70 0 0
44 80 0 0
45 90 0 0
46 0 90 0
47 0 80 0
48 0 70 0
49 0 60 0
50 0 50 0
51 0 40 0
52 0 30 0
53 0 20 0
54 0 10 0
55 100 10 0
56 100 20 0
57 100 30 0
58 100 40 0
59 100 50 0
60 100 60 0
61 100 70 0
62 100 80 0
63 100 90 0
64 90 100 0
65 80 100 0
66 70 100 0
67 60 100 0
68 50 100 0
69 40 100 0
70 30 100 0
71 20 100 0
72 10 100 0
73 10 20 0
74 40 10 0
75 10 30 0
76 10 50 0
77 90 70 0
78 90 50 0
79 40 90 0
80 30 90 0
81 60 10 0
82 70 10 0
83 90 30 0
84 30 10 0
85 20 10 0
86 50 30 0
87 40 50 0
88 30 50 0
89 50 70 0
90 60 50 0
91 70 50 0
92 80 90 0
93 90 80 0
94 70 90 0
95 50 90 0
96 10 60 0
97 10 70 0
98 10 90 0
99 90 10 0
100 10 10 0
101 90 90 0
102 50 20 0
103 20 90 0
104 80 10 0
105 90 40 0
106 50 10 0
107 50 40 0
108 20 50 0
109 50 60 0
110 80 50 0
111 50 80 0
112 60 90 0
113 10 80 0
114 90 20 0
115 10 40 0
116 90 60 0
117 50 50 0
122 70 70 0
127 30 70 0
132 70 30 0
133 70 60 0
134 80 70 0
135 70 80 0
136 60 70 0
137 30 60 0
138 40 70 0
139 30 80 0
140 20 70 0
141 70 20 0
142 80 30 0
143 70 40 0
144 60 30 0
$EndNodes
$Elements
96
2 3 2 1 1 46 98 72 19
3 3 2 1 1 55 99 45 18
4 3 2 1 1 99 104 44 45
5 3 2 1 1 44 104 82 43
6 3 2 1 1 106 74 40 41
7 3 2 1 1 85 100 37 38
8 3 2 1 1 37 100 54 17
13 3 2 1 1 97 113 47 48
14 3 2 1 1 24 4 115 75
15 3 2 1 1 73 1 24 75
16 3 2 1 1 108 4 23 88
17 3 2 1 1 22 2 102 86
24 3 2 1 1 94 66 67 112
25 3 2 1 1 112 95 111 8
26 3 2 1 1 104 99 114 14
27 3 2 1 1 93 101 92 7
28 3 2 1 1 107 16 90 117
29 3 2 1 1 87 117 109 10
30 3 2 1 1 107 117 87 3
31 3 2 1 1 81 13 102 106
32 3 2 1 1 73 100 85 1
33 3 2 1 1 98 103 71 72
34 3 2 1 1 71 103 80 70
35 3 2 1 1 68 95 112 67
36 3 2 1 1 47 113 98 46
37 3 2 1 1 94 92 65 66
38 3 2 1 1 92 101 64 65
39 3 2 1 1 63 101 93 62
40 3 2 1 1 64 101 63 20
41 3 2 1 1 62 93 77 61
42 3 2 1 1 99 55 56 114
43 3 2 1 1 56 57 83 114
44 3 2 1 1 54 100 73 53
45 3 2 1 1 73 75 52 53
46 3 2 1 1 97 48 49 96
47 3 2 1 1 1 85 84 21
56 3 2 1 1 11 111 95 79
57 3 2 1 1 5 109 117 90
60 3 2 1 1 3 87 88 23
61 3 2 1 1 2 21 84 74
62 3 2 1 1 98 113 12 103
63 3 2 1 1 106 102 2 74
64 3 2 1 1 86 107 3 22
67 3 2 1 1 84 85 38 39
68 3 2 1 1 40 74 84 39
69 3 2 1 1 52 75 115 51
70 3 2 1 1 81 106 41 42
71 3 2 1 1 82 81 42 43
72 3 2 1 1 80 79 69 70
73 3 2 1 1 61 77 116 60
74 3 2 1 1 79 95 68 69
75 3 2 1 1 51 115 76 50
76 3 2 1 1 96 49 50 76
77 3 2 1 1 78 116 6 110
78 3 2 1 1 105 83 57 58
79 3 2 1 1 108 9 96 76
80 3 2 1 1 105 78 110 15
81 3 2 1 1 60 116 78 59
82 3 2 1 1 76 115 4 108
83 3 2 1 1 59 78 105 58
1 3 2 1 1 134 6 116 77
9 3 2 1 1 140 97 96 9
10 3 2 1 1 138 10 109 89
11 3 2 1 1 136 89 109 5
12 3 2 1 1 92 94 135 7
18 3 2 1 1 16 143 91 90
19 3 2 1 1 86 144 16 107
20 3 2 1 1 15 110 91 143
21 3 2 1 1 82 104 14 141
22 3 2 1 1 86 102 13 144
23 3 2 1 1 82 141 13 81
48 3 2 1 1 9 108 88 137
49 3 2 1 1 8 135 94 112
50 3 2 1 1 8 111 89 136
51 3 2 1 1 10 137 88 87
52 3 2 1 1 77 93 7 134
53 3 2 1 1 91 110 6 133
54 3 2 1 1 80 139 11 79
55 3 2 1 1 89 111 11 138
58 3 2 1 1 5 90 91 133
59 3 2 1 1 12 113 97 140
65 3 2 1 1 80 103 12 139
66 3 2 1 1 142 14 114 83
84 3 2 1 1 83 105 15 142
85 3 2 1 1 7 135 122 134
86 3 2 1 1 134 122 133 6
87 3 2 1 1 133 122 136 5
88 3 2 1 1 136 122 135 8
89 3 2 1 1 11 139 127 138
90 3 2 1 1 138 127 137 10
91 3 2 1 1 137 127 140 9
92 3 2 1 1 140 127 139 12
93 3 2 1 1 15 143 132 142
94 3 2 1 1 142 132 141 14
95 3 2 1 1 141 132 144 13
96 3 2 1 1 144 132 143 16
$EndElements
