$MeshFormat
2.2 0 8
$EndMeshFormat
$Nodes
441
9 0 0 0
10 100 0 0
11 0 100 0
12 100 100 0
53 5 0 0
54 10 0 0
55 15 0 0
56 20 0 0
57 25 0 0
58 30 0 0
59 35 0 0
60 40 0 0
61 45 0 0
62 50 0 0
63 55 0 0
64 60 0 0
65 65 0 0
66 70 0 0
67 75 0 0
68 80 0 0
69 85 0 0
70 90 0 0
71 95 0 0
72 0 95 0
73 0 90 0
74 0 85 0
75 0 80 0
76 0 75 0
77 0 70 0
78 0 65 0
79 0 60 0
80 0 55 0
81 0 50 0
82 0 45 0
83 0 40 0
84 0 35 0
85 0 30 0
86 0 25 0
87 0 20 0
88 0 15 0
89 0 10 0
90 0 5 0
91 100 5 0
92 100 10 0
93 100 15 0
94 100 20 0
95 100 25 0
96 100 30 0
97 100 35 0
98 100 40 0
99 100 45 0
100 100 50 0
101 100 55 0
102 100 60 0
103 100 65 0
104 100 70 0
105 100 75 0
106 100 80 0
107 100 85 0
108 100 90 0
109 100 95 0
110 95 100 0
111 90 100 0
112 85 100 0
113 80 100 0
114 75 100 0
115 70 100 0
116 65 100 0
117 60 100 0
118 55 100 0
119 50 100 0
120 45 100 0
121 40 100 0
122 35 100 0
123 30 100 0
124 25 100 0
125 20 100 0
126 15 100 0
127 10 100 0
128 5 100 0
129 80 5 0
130 35 75 0
131 5 80 0
132 95 60 0
133 95 80 0
134 95 30 0
135 75 45 0
136 75 60 0
137 75 75 0
138 25 55 0
139 5 70 0
140 95 40 0
141 20 95 0
142 5 15 0
143 65 5 0
144 5 40 0
145 20 5 0
146 15 25 0
147 30 15 0
148 60 25 0
149 50 15 0
150 5 60 0
151 95 15 0
152 35 85 0
153 85 95 0
154 15 45 0
155 35 5 0
156 5 30 0
157 5 25 0
158 20 15 0
159 5 50 0
160 65 35 0
161 75 90 0
162 35 55 0
163 50 5 0
164 10 5 0
165 35 95 0
166 95 5 0
167 5 95 0
168 95 90 0
169 40 95 0
170 70 95 0
171 65 95 0
172 60 95 0
173 55 95 0
174 50 95 0
175 95 70 0
176 5 10 0
177 95 50 0
178 10 95 0
179 15 30 0
180 75 70 0
181 45 5 0
182 40 15 0
183 90 5 0
184 95 20 0
185 15 35 0
186 30 5 0
187 60 35 0
188 75 55 0
189 35 65 0
190 5 5 0
191 60 5 0
192 75 5 0
193 5 90 0
194 75 95 0
195 25 95 0
196 95 95 0
197 75 85 0
198 70 35 0
199 80 10 0
200 80 60 0
201 60 20 0
202 80 75 0
203 20 55 0
204 65 10 0
205 10 90 0
206 55 15 0
207 90 15 0
208 15 50 0
209 20 90 0
210 95 75 0
211 5 20 0
212 90 10 0
213 85 5 0
214 15 95 0
215 90 90 0
216 95 45 0
217 35 90 0
218 5 55 0
219 95 10 0
220 95 55 0
221 10 25 0
222 15 20 0
223 15 40 0
224 45 15 0
225 45 95 0
226 15 5 0
227 40 5 0
228 55 5 0
229 70 5 0
230 5 85 0
231 5 65 0
232 5 45 0
233 5 35 0
234 95 25 0
235 95 35 0
236 95 65 0
237 90 95 0
238 35 10 0
239 10 30 0
240 75 50 0
241 10 15 0
242 75 40 0
243 60 30 0
244 30 55 0
245 25 15 0
246 75 65 0
247 35 80 0
248 35 70 0
249 35 60 0
250 25 5 0
251 95 85 0
252 80 95 0
253 30 95 0
254 50 10 0
255 80 90 0
256 35 15 0
257 75 80 0
258 5 75 0
259 10 10 0
260 30 70 0
261 90 25 0
262 10 75 0
263 90 45 0
264 75 35 0
265 90 60 0
266 10 85 0
267 90 80 0
268 80 65 0
269 90 70 0
270 70 10 0
271 80 50 0
272 25 60 0
273 65 25 0
274 15 55 0
275 25 90 0
276 80 80 0
277 15 15 0
278 10 20 0
279 10 40 0
280 15 90 0
281 90 50 0
282 90 35 0
283 85 90 0
284 60 15 0
285 10 70 0
286 20 10 0
287 30 10 0
288 10 50 0
289 80 70 0
290 40 10 0
291 90 20 0
292 60 10 0
293 85 10 0
294 10 35 0
295 80 45 0
296 30 75 0
297 10 60 0
298 30 85 0
299 65 30 0
300 45 10 0
301 80 55 0
302 30 60 0
303 75 10 0
304 80 85 0
305 55 10 0
306 30 90 0
307 15 10 0
308 90 85 0
309 15 75 0
310 85 20 0
311 65 20 0
312 20 60 0
313 80 40 0
314 25 70 0
315 10 80 0
316 90 65 0
317 85 70 0
318 90 40 0
319 85 65 0
320 85 60 0
321 85 50 0
322 65 15 0
323 10 45 0
324 85 80 0
325 85 15 0
326 15 85 0
327 10 65 0
328 90 30 0
329 90 55 0
330 85 85 0
331 30 65 0
332 70 30 0
333 80 15 0
334 20 85 0
335 90 75 0
336 10 55 0
337 30 80 0
338 75 15 0
339 25 85 0
340 25 10 0
341 80 35 0
342 25 75 0
343 15 70 0
344 85 55 0
345 15 80 0
346 85 25 0
347 85 40 0
348 85 30 0
349 85 45 0
350 75 30 0
351 70 15 0
352 70 25 0
353 15 60 0
354 80 20 0
355 20 80 0
356 25 80 0
357 25 65 0
358 85 75 0
359 85 35 0
360 80 30 0
361 20 70 0
362 20 75 0
363 70 20 0
364 15 65 0
365 20 65 0
366 75 20 0
367 80 25 0
368 75 25 0
379 45 45 0
380 50 45 0
407 25.035739670034 35.0030730836615 0
408 40.0310282845436 25.0474303184136 0
409 25.0043672255949 24.9992189829149 0
410 40.0873557951562 35.0920954570175 0
411 50.017734909262 30.0688211466241 0
412 35.0442309877401 45.0258484969833 0
413 25.0327940291961 45.0086679780234 0
414 35.0265043035381 25.0253772672834 0
415 50.0133208528002 25.0349870377838 0
416 50.0094048622612 35.0554408123236 0
417 35.1024749754541 35.0630226252189 0
418 40.0610319967279 30.0875039152887 0
419 25.0181543783715 30.0014528904815 0
420 30.0170128063138 25.0087167072125 0
421 25.0465023253441 40.0102767091355 0
422 30.053152062991 45.0218105740039 0
423 45.0376424707487 30.0920842140068 0
424 45.02153919079 25.0453139707049 0
425 45.0282914787987 35.0705032932153 0
426 35.0780154998288 40.0414816554618 0
427 30.0712886095762 35.0257537788695 0
428 35.0598788038587 30.0475633782695 0
429 30.0719172510025 40.0275238531287 0
430 30.0418436829823 30.0196516164425 0
463 65.0182857096879 65.0282148065597 0
464 45.0099714893054 75.0056420703819 0
465 60.0002177450721 50.0016039242354 0
466 55.0032574851051 55.0073764236083 0
467 65.018006736133 75.0181863250532 0
468 65.0016524623359 55.0062723795721 0
469 55.0024380638538 85.0017638292002 0
470 45.0121980237897 65.0072459463198 0
471 65.0017508347117 85.0014662438269 0
472 45.0006838208502 85.0003981236931 0
473 45.0058692895494 60.004106310959 0
474 60.00003563957 45.0002713242263 0
475 65.0000335395424 45.0002649179558 0
476 45.001703517241 55.0015398202654 0
477 65.007676791601 60.0162182820324 0
478 65.0076675583496 80.0067465596293 0
479 60.0032617204462 85.0025790629655 0
480 50.0018614327065 85.0012103361737 0
481 45.0040817900349 80.0024139569014 0
482 45.0154672055916 70.0088905372343 0
483 50.0032855322573 55.0044447872086 0
484 60.003441586244 55.0096800002045 0
485 50.0264626466976 65.0194276447756 0
486 65.0004850007817 50.0018911887198 0
487 65.024152145926 70.0280846431919 0
488 60.013797437346 60.0241937041831 0
489 60.0415545742179 70.0410447238581 0
490 55.0124870548535 80.0091126937496 0
491 50.0323218549679 70.0216221561172 0
492 55.0151050637899 60.0198568181227 0
493 50.0092986558824 80.0061417007903 0
494 60.0282691278921 75.0241267918731 0
495 50.0121009528682 60.011478515218 0
496 60.0126451315349 80.0103715395642 0
497 60.0295816308641 65.0355765342408 0
498 55.0393144536047 70.0316965711516 0
499 55.0286973610962 65.0278955108215 0
500 50.0201932740108 75.0136563330265 0
501 55.0264950910483 75.0206588018908 0
502 55 20 0
503 55 40 0
504 40 50 0
505 20 50 0
506 20 20 0
507 70 40 0
508 70 90 0
509 40 90 0
510 55 25 0
511 55 30 0
512 55 35 0
513 35 50 0
514 30 50 0
515 25 50 0
516 20 45 0
517 20 40 0
518 20 35 0
519 20 30 0
520 20 25 0
521 25 20 0
522 30 20 0
523 35 20 0
524 40 20 0
525 45 20 0
526 50 20 0
527 60 40 0
528 65 40 0
529 70 45 0
530 70 50 0
531 70 55 0
532 70 60 0
533 70 65 0
534 70 70 0
535 70 75 0
536 70 80 0
537 70 85 0
538 65 90 0
539 60 90 0
540 55 90 0
541 50 90 0
542 45 90 0
543 40 85 0
544 40 80 0
545 40 75 0
546 40 70 0
547 40 65 0
548 40 60 0
549 40 55 0
550 55 50 0
551 40 40 0
552 40 45 0
553 45 40 0
554 50 40 0
555 55 45 0
556 50 50 0
557 45 50 0
$EndNodes
$Elements
400
1 3 2 1 1 117 172 171 116
2 3 2 1 1 275 339 298 306
3 3 2 1 1 132 102 103 236
4 3 2 1 1 104 175 236 103
5 3 2 1 1 273 352 332 299
6 3 2 1 1 108 109 196 168
7 3 2 1 1 110 196 109 12
8 3 2 1 1 272 357 365 312
9 3 2 1 1 272 302 331 357
10 3 2 1 1 111 112 153 237
11 3 2 1 1 111 237 196 110
12 3 2 1 1 194 252 113 114
13 3 2 1 1 338 351 270 303
14 3 2 1 1 170 194 114 115
15 3 2 1 1 116 171 170 115
16 3 2 1 1 334 339 275 209
17 3 2 1 1 173 172 117 118
18 3 2 1 1 253 165 122 123
19 3 2 1 1 195 253 123 124
20 3 2 1 1 141 195 124 125
21 3 2 1 1 332 350 264 198
22 3 2 1 1 313 242 264 341
23 3 2 1 1 130 296 260 248
24 3 2 1 1 261 346 310 291
25 3 2 1 1 357 331 260 314
26 3 2 1 1 262 315 131 258
27 3 2 1 1 134 328 261 234
28 3 2 1 1 275 306 253 195
29 3 2 1 1 271 240 135 295
30 3 2 1 1 139 258 76 77
31 3 2 1 1 361 362 309 343
32 3 2 1 1 309 362 355 345
33 3 2 1 1 62 163 181 61
34 3 2 1 1 309 345 315 262
35 3 2 1 1 324 330 304 276
36 3 2 1 1 66 67 192 229
37 3 2 1 1 129 192 67 68
38 3 2 1 1 333 338 303 199
39 3 2 1 1 320 200 301 344
40 3 2 1 1 72 167 128 11
41 3 2 1 1 167 72 73 193
42 3 2 1 1 74 75 131 230
43 3 2 1 1 74 230 193 73
44 3 2 1 1 258 131 75 76
45 3 2 1 1 250 340 286 145
46 3 2 1 1 296 342 314 260
47 3 2 1 1 78 231 139 77
48 3 2 1 1 150 231 78 79
49 3 2 1 1 289 317 358 202
50 3 2 1 1 144 83 84 233
51 3 2 1 1 319 317 289 268
52 3 2 1 1 86 157 156 85
53 3 2 1 1 364 343 285 327
54 3 2 1 1 285 343 309 262
55 3 2 1 1 283 330 308 215
56 3 2 1 1 304 330 283 255
57 3 2 1 1 95 234 184 94
58 3 2 1 1 98 140 235 97
59 3 2 1 1 196 237 215 168
60 3 2 1 1 324 276 202 358
61 3 2 1 1 161 255 252 194
62 3 2 1 1 202 276 257 137
63 3 2 1 1 201 311 273 148
65 3 2 1 1 300 181 163 254
66 3 2 1 1 305 254 163 228
67 3 2 1 1 200 320 319 268
68 3 2 1 1 325 333 199 293
69 3 2 1 1 299 332 198 160
72 3 2 1 1 276 304 197 257
73 3 2 1 1 197 304 255 161
75 3 2 1 1 209 275 195 141
76 3 2 1 1 192 303 270 229
77 3 2 1 1 199 303 192 129
78 3 2 1 1 189 331 302 249
79 3 2 1 1 179 239 221 146
81 3 2 1 1 180 289 202 137
82 3 2 1 1 260 331 189 248
83 3 2 1 1 268 289 180 246
84 3 2 1 1 271 301 188 240
85 3 2 1 1 188 301 200 136
86 3 2 1 1 184 291 207 151
87 3 2 1 1 261 291 184 234
88 3 2 1 1 226 145 286 307
89 3 2 1 1 298 337 247 152
90 3 2 1 1 268 246 136 200
91 3 2 1 1 247 337 296 130
92 3 2 1 1 286 340 245 158
93 3 2 1 1 244 302 272 138
94 3 2 1 1 249 302 244 162
95 3 2 1 1 273 299 243 148
96 3 2 1 1 242 313 295 135
97 3 2 1 1 262 258 139 285
98 3 2 1 1 237 153 283 215
99 3 2 1 1 235 282 328 134
100 3 2 1 1 280 209 141 214
101 3 2 1 1 285 139 231 327
102 3 2 1 1 113 252 153 112
103 3 2 1 1 223 279 294 185
104 3 2 1 1 265 329 220 132
105 3 2 1 1 217 306 298 152
106 3 2 1 1 253 306 217 165
107 3 2 1 1 300 254 149 224
108 3 2 1 1 326 334 209 280
109 3 2 1 1 255 283 153 252
110 3 2 1 1 310 325 207 291
111 3 2 1 1 221 239 156 157
112 3 2 1 1 254 305 206 149
113 3 2 1 1 353 274 203 312
114 3 2 1 1 243 299 160 187
115 3 2 1 1 272 312 203 138
117 3 2 1 1 338 366 363 351
120 3 2 1 1 354 366 338 333
121 3 2 1 1 337 356 342 296
124 3 2 1 1 339 356 337 298
130 3 2 1 1 328 348 346 261
131 3 2 1 1 355 356 339 334
134 3 2 1 1 326 345 355 334
144 3 2 1 1 314 361 365 357
147 3 2 1 1 367 368 366 354
151 3 2 1 1 366 368 352 363
152 3 2 1 1 350 368 367 360
153 3 2 1 1 352 368 350 332
155 3 2 1 1 360 367 346 348
157 3 2 1 1 346 367 354 310
159 3 2 1 1 181 227 60 61
160 3 2 1 1 343 364 365 361
165 3 2 1 1 342 362 361 314
166 3 2 1 1 355 362 342 356
171 3 2 1 1 350 360 341 264
173 3 2 1 1 310 354 333 325
174 3 2 1 1 60 227 155 59
177 3 2 1 1 53 190 90 9
178 3 2 1 1 53 54 164 190
180 3 2 1 1 364 353 312 365
181 3 2 1 1 311 363 352 273
182 3 2 1 1 57 250 145 56
184 3 2 1 1 55 226 164 54
185 3 2 1 1 145 226 55 56
186 3 2 1 1 92 93 151 219
187 3 2 1 1 94 184 151 93
188 3 2 1 1 58 59 155 186
191 3 2 1 1 134 234 95 96
192 3 2 1 1 186 250 57 58
193 3 2 1 1 134 96 97 235
194 3 2 1 1 287 340 250 186
195 3 2 1 1 191 228 63 64
196 3 2 1 1 227 181 300 290
197 3 2 1 1 143 204 292 191
198 3 2 1 1 232 323 288 159
199 3 2 1 1 263 216 177 281
200 3 2 1 1 228 163 62 63
201 3 2 1 1 282 235 140 318
202 3 2 1 1 245 340 287 147
203 3 2 1 1 150 79 80 218
204 3 2 1 1 224 182 290 300
205 3 2 1 1 256 238 290 182
206 3 2 1 1 218 80 81 159
207 3 2 1 1 82 232 159 81
208 3 2 1 1 321 349 263 281
209 3 2 1 1 263 349 347 318
210 3 2 1 1 238 287 186 155
211 3 2 1 1 239 179 185 294
212 3 2 1 1 353 364 327 297
213 3 2 1 1 232 82 83 144
214 3 2 1 1 122 165 169 121
215 3 2 1 1 156 239 294 233
216 3 2 1 1 164 226 307 259
217 3 2 1 1 329 281 177 220
218 3 2 1 1 301 271 321 344
219 3 2 1 1 305 228 191 292
220 3 2 1 1 91 166 71 10
221 3 2 1 1 71 166 183 70
222 3 2 1 1 159 288 336 218
223 3 2 1 1 229 270 204 143
224 3 2 1 1 278 221 157 211
225 3 2 1 1 294 279 144 233
226 3 2 1 1 290 238 155 227
227 3 2 1 1 311 201 284 322
228 3 2 1 1 213 293 199 129
229 3 2 1 1 336 297 150 218
230 3 2 1 1 150 297 327 231
231 3 2 1 1 216 263 318 140
232 3 2 1 1 190 164 259 176
233 3 2 1 1 229 143 65 66
234 3 2 1 1 147 287 238 256
235 3 2 1 1 85 156 233 84
236 3 2 1 1 271 295 349 321
237 3 2 1 1 284 206 305 292
238 3 2 1 1 119 120 225 174
239 3 2 1 1 91 92 219 166
240 3 2 1 1 174 173 118 119
241 3 2 1 1 322 351 363 311
242 3 2 1 1 270 351 322 204
243 3 2 1 1 169 225 120 121
246 3 2 1 1 220 101 102 132
247 3 2 1 1 101 220 177 100
248 3 2 1 1 216 99 100 177
249 3 2 1 1 140 98 99 216
250 3 2 1 1 142 88 89 176
251 3 2 1 1 65 143 191 64
252 3 2 1 1 128 167 178 127
253 3 2 1 1 341 360 348 359
254 3 2 1 1 348 328 282 359
255 3 2 1 1 320 344 329 265
256 3 2 1 1 347 359 282 318
257 3 2 1 1 210 133 267 335
258 3 2 1 1 108 168 251 107
259 3 2 1 1 336 288 208 274
260 3 2 1 1 154 208 288 323
261 3 2 1 1 223 154 323 279
262 3 2 1 1 329 344 321 281
263 3 2 1 1 274 353 297 336
264 3 2 1 1 347 349 295 313
265 3 2 1 1 214 141 125 126
266 3 2 1 1 279 323 232 144
267 3 2 1 1 292 204 322 284
268 3 2 1 1 330 324 267 308
269 3 2 1 1 142 241 278 211
270 3 2 1 1 359 347 313 341
271 3 2 1 1 89 90 190 176
272 3 2 1 1 88 142 211 87
273 3 2 1 1 157 86 87 211
274 3 2 1 1 69 70 183 213
275 3 2 1 1 212 183 166 219
276 3 2 1 1 213 183 212 293
277 3 2 1 1 207 325 293 212
278 3 2 1 1 219 151 207 212
279 3 2 1 1 213 129 68 69
280 3 2 1 1 214 178 205 280
281 3 2 1 1 210 335 269 175
282 3 2 1 1 265 132 236 316
283 3 2 1 1 315 345 326 266
284 3 2 1 1 317 319 316 269
285 3 2 1 1 193 230 266 205
286 3 2 1 1 230 131 315 266
287 3 2 1 1 307 286 158 277
288 3 2 1 1 215 308 251 168
289 3 2 1 1 175 104 105 210
290 3 2 1 1 241 142 176 259
291 3 2 1 1 107 251 133 106
292 3 2 1 1 106 133 210 105
293 3 2 1 1 126 127 178 214
294 3 2 1 1 269 335 358 317
295 3 2 1 1 324 358 335 267
296 3 2 1 1 259 307 277 241
297 3 2 1 1 308 267 133 251
298 3 2 1 1 167 193 205 178
299 3 2 1 1 266 326 280 205
300 3 2 1 1 222 146 221 278
302 3 2 1 1 319 320 265 316
303 3 2 1 1 175 269 316 236
304 3 2 1 1 278 241 277 222
324 3 2 1 1 428 414 408 418
328 3 2 1 1 428 430 420 414
329 3 2 1 1 420 430 419 409
330 3 2 1 1 419 430 427 407
333 3 2 1 1 423 424 415 411
334 3 2 1 1 422 413 421 429
335 3 2 1 1 421 407 427 429
337 3 2 1 1 418 408 424 423
338 3 2 1 1 417 428 418 410
339 3 2 1 1 412 422 429 426
340 3 2 1 1 417 426 429 427
341 3 2 1 1 427 430 428 417
342 3 2 1 1 423 411 416 425
346 3 2 1 1 410 418 423 425
348 3 2 1 1 496 494 467 478
351 3 2 1 1 466 492 495 483
354 3 2 1 1 488 492 466 484
355 3 2 1 1 494 496 490 501
357 3 2 1 1 490 493 500 501
358 3 2 1 1 465 486 468 484
371 3 2 1 1 492 499 485 495
372 3 2 1 1 500 493 481 464
375 3 2 1 1 480 493 490 469
376 3 2 1 1 478 471 479 496
379 3 2 1 1 477 488 484 468
380 3 2 1 1 476 483 495 473
383 3 2 1 1 474 475 486 465
385 3 2 1 1 472 481 493 480
386 3 2 1 1 470 473 495 485
390 3 2 1 1 469 490 496 479
391 3 2 1 1 464 482 491 500
392 3 2 1 1 470 485 491 482
393 3 2 1 1 487 489 497 463
394 3 2 1 1 488 477 463 497
395 3 2 1 1 499 492 488 497
396 3 2 1 1 467 494 489 487
397 3 2 1 1 501 500 491 498
398 3 2 1 1 498 489 494 501
399 3 2 1 1 491 485 499 498
400 3 2 1 1 497 489 498 499
64 3 2 1 1 206 284 201 502
70 3 2 1 1 217 509 169 165
71 3 2 1 1 198 264 242 507
74 3 2 1 1 161 194 170 508
80 3 2 1 1 502 201 148 510
116 3 2 1 1 532 531 188 136
118 3 2 1 1 521 245 147 522
119 3 2 1 1 158 245 521 506
122 3 2 1 1 147 256 523 522
123 3 2 1 1 523 256 182 524
125 3 2 1 1 525 224 149 526
126 3 2 1 1 525 524 182 224
127 3 2 1 1 527 187 160 528
128 3 2 1 1 530 529 135 240
129 3 2 1 1 240 188 531 530
132 3 2 1 1 533 532 136 246
133 3 2 1 1 533 246 180 534
135 3 2 1 1 535 534 180 137
136 3 2 1 1 535 137 257 536
137 3 2 1 1 537 197 161 508
138 3 2 1 1 257 197 537 536
139 3 2 1 1 170 171 538 508
140 3 2 1 1 171 172 539 538
141 3 2 1 1 539 172 173 540
142 3 2 1 1 544 247 130 545
143 3 2 1 1 152 247 544 543
145 3 2 1 1 511 243 187 512
146 3 2 1 1 149 206 502 526
148 3 2 1 1 505 203 274 208
149 3 2 1 1 507 242 135 529
150 3 2 1 1 160 198 507 528
154 3 2 1 1 509 217 152 543
156 3 2 1 1 225 169 509 542
158 3 2 1 1 148 243 511 510
161 3 2 1 1 512 187 527 503
162 3 2 1 1 549 162 513 504
163 3 2 1 1 513 162 244 514
164 3 2 1 1 514 244 138 515
167 3 2 1 1 515 138 203 505
168 3 2 1 1 516 505 208 154
169 3 2 1 1 517 516 154 223
170 3 2 1 1 185 518 517 223
172 3 2 1 1 518 185 179 519
175 3 2 1 1 189 249 548 547
176 3 2 1 1 548 249 162 549
179 3 2 1 1 546 248 189 547
183 3 2 1 1 130 248 546 545
189 3 2 1 1 520 146 222 506
190 3 2 1 1 179 146 520 519
244 3 2 1 1 540 173 174 541
245 3 2 1 1 542 541 174 225
301 3 2 1 1 158 506 222 277
305 3 2 1 1 553 379 552 551
306 3 2 1 1 552 379 557 504
307 3 2 1 1 555 380 554 503
308 3 2 1 1 379 553 554 380
309 3 2 1 1 556 380 555 550
310 3 2 1 1 380 556 557 379
311 3 2 1 1 510 415 526 502
312 3 2 1 1 413 516 517 421
313 3 2 1 1 407 421 517 518
314 3 2 1 1 525 424 408 524
315 3 2 1 1 415 424 525 526
316 3 2 1 1 516 413 515 505
317 3 2 1 1 524 408 414 523
318 3 2 1 1 514 515 413 422
319 3 2 1 1 510 511 411 415
320 3 2 1 1 414 420 522 523
321 3 2 1 1 522 420 409 521
322 3 2 1 1 416 411 511 512
323 3 2 1 1 554 416 512 503
325 3 2 1 1 506 521 409 520
326 3 2 1 1 407 518 519 419
327 3 2 1 1 520 409 419 519
331 3 2 1 1 513 412 552 504
332 3 2 1 1 514 422 412 513
336 3 2 1 1 425 416 554 553
343 3 2 1 1 417 410 551 426
344 3 2 1 1 426 551 552 412
345 3 2 1 1 551 410 425 553
347 3 2 1 1 480 541 542 472
349 3 2 1 1 538 471 537 508
350 3 2 1 1 509 543 472 542
352 3 2 1 1 469 479 539 540
353 3 2 1 1 539 479 471 538
356 3 2 1 1 480 469 540 541
359 3 2 1 1 471 478 536 537
360 3 2 1 1 465 484 466 550
361 3 2 1 1 464 481 544 545
362 3 2 1 1 544 481 472 543
363 3 2 1 1 556 483 476 557
364 3 2 1 1 482 464 545 546
365 3 2 1 1 546 547 470 482
366 3 2 1 1 466 483 556 550
367 3 2 1 1 549 476 473 548
368 3 2 1 1 473 470 547 548
369 3 2 1 1 557 476 549 504
370 3 2 1 1 468 486 530 531
373 3 2 1 1 527 474 555 503
374 3 2 1 1 555 474 465 550
377 3 2 1 1 529 475 528 507
378 3 2 1 1 528 475 474 527
381 3 2 1 1 486 475 529 530
382 3 2 1 1 536 478 467 535
384 3 2 1 1 468 531 532 477
387 3 2 1 1 533 463 477 532
388 3 2 1 1 487 463 533 534
389 3 2 1 1 534 535 467 487
$EndElements
