$MeshFormat
2.2 0 8
$EndMeshFormat
$Nodes
121
5 0 0 0
6 100 0 0
7 0 100 0
8 100 100 0
21 10 0 0
22 20 0 0
23 30 0 0
24 40 0 0
25 50 0 0
26 60 0 0
27 70 0 0
28 80 0 0
29 90 0 0
30 0 90 0
31 0 80 0
32 0 70 0
33 0 60 0
34 0 50 0
35 0 40 0
36 0 30 0
37 0 20 0
38 0 10 0
39 100 10 0
40 100 20 0
41 100 30 0
42 100 40 0
43 100 50 0
44 100 60 0
45 100 70 0
46 100 80 0
47 100 90 0
48 90 100 0
49 80 100 0
50 70 100 0
51 60 100 0
52 50 100 0
53 40 100 0
54 30 100 0
55 20 100 0
56 10 100 0
57 89.7597025067639 49.6642196460899 0
58 89.8127037830492 69.7793588865283 0
59 39.8544902398503 69.8216470696026 0
60 89.9716856458655 19.9774451954629 0
61 59.8791868031479 89.8840377032317 0
62 29.9685291125359 89.9047763484276 0
63 69.9113411175266 29.9359694928329 0
64 69.482158158208 59.4621808139867 0
65 59.5873070641499 69.6547770836277 0
66 89.9674201556886 89.968851141968 0
67 59.9975808607957 9.9997897586904 0
68 79.9893275337522 9.99518520893026 0
69 39.9999856482565 10.0000072327613 0
70 10 30 0
71 9.99988128547727 49.999652308874 0
72 29.9999982060321 10.0000009040952 0
73 19.999999775754 10.0000001130119 0
74 9.99999998598463 20.0000000070632 0
75 9.99482629432267 79.983405987791 0
76 9.99538577058757 69.9866622568881 0
77 89.916326033348 29.9075231683924 0
78 69.88437552945 89.9015208412112 0
79 39.9338368565273 89.8630022768348 0
80 29.9462120509918 69.8973520251733 0
81 9.99999997021732 10.0000000150094 0
82 89.9915890588707 9.99483069627344 0
83 9.99653484479921 89.9877392384179 0
84 69.6905582812782 49.6418737591242 0
85 69.5578501012965 69.5793258946029 0
86 59.713211281805 79.7424342925296 0
87 79.5721193828512 59.4868029609653 0
88 89.8399133145064 39.7923310603214 0
89 29.937855413462 79.8635303038451 0
90 69.9915382512065 9.99733196326642 0
91 79.8783148606483 29.8845902027992 0
92 19.9865684942026 89.9601023149688 0
93 49.9996671101446 9.99998908945412 0
94 89.899922098857 79.8956646960197 0
95 69.9678244479233 19.9796977632392 0
96 9.9981604034255 59.9949823830134 0
97 19.9818613180502 69.9576266280262 0
98 69.8242408703696 39.8098010942262 0
99 89.776017812697 59.7105441297152 0
100 79.9160653585108 89.9244201957811 0
101 49.8956104253946 89.8597987611021 0
102 79.9541687989063 19.9638492091246 0
103 9.99998516068466 39.9999565386093 0
104 49.7823384726236 69.789951664323 0
105 79.672045040523 69.6537087442477 0
106 49.7960459252124 79.765647020083 0
107 69.7323837638169 79.7579501629554 0
108 79.8025296987203 79.8070681163817 0
109 19.9768576142885 79.9415185659808 0
110 79.6593487334019 49.5725786018784 0
111 39.8777782059168 79.8106024893515 0
112 79.7852895464711 39.7476962457604 0
129 40.1014984393035 30.1562910056763 0
130 50.1268684533825 50.2066630526813 0
131 30.085864430323 50.0989705338064 0
132 30.0653784271103 30.0712525484566 0
133 50.0733629399502 30.1459255571119 0
134 40.1221876281103 50.173764128639 0
135 50.1096721019365 40.1913592301692 0
136 30.0935630636558 40.1058200579118 0
137 40.1249259868336 40.1741821709713 0
138 20 20 0
139 60 20 0
140 60 60 0
141 20 60 0
142 30 20 0
143 40 20 0
144 50 20 0
145 60 30 0
146 60 40 0
147 60 50 0
148 50 60 0
149 40 60 0
150 30 60 0
151 20 50 0
152 20 40 0
153 20 30 0
$EndNodes
$Elements
100
1 3 2 1 1 95 102 91 63
3 3 2 1 1 21 81 38 5
4 3 2 1 1 73 81 21 22
5 3 2 1 1 93 69 24 25
6 3 2 1 1 68 90 27 28
7 3 2 1 1 39 82 29 6
8 3 2 1 1 29 82 68 28
9 3 2 1 1 30 83 56 7
10 3 2 1 1 75 83 30 31
11 3 2 1 1 105 58 94 108
12 3 2 1 1 76 75 31 32
13 3 2 1 1 100 108 94 66
14 3 2 1 1 37 74 70 36
15 3 2 1 1 38 81 74 37
16 3 2 1 1 60 82 39 40
18 3 2 1 1 77 60 40 41
19 3 2 1 1 102 95 90 68
20 3 2 1 1 45 58 99 44
21 3 2 1 1 46 94 58 45
22 3 2 1 1 46 47 66 94
23 3 2 1 1 48 66 47 8
24 3 2 1 1 49 100 66 48
25 3 2 1 1 78 100 49 50
26 3 2 1 1 92 62 54 55
27 3 2 1 1 83 92 55 56
28 3 2 1 1 82 60 102 68
29 3 2 1 1 108 100 78 107
30 3 2 1 1 97 109 75 76
31 3 2 1 1 92 83 75 109
39 3 2 1 1 24 69 72 23
40 3 2 1 1 72 73 22 23
41 3 2 1 1 91 102 60 77
42 3 2 1 1 92 109 89 62
43 3 2 1 1 61 51 52 101
44 3 2 1 1 26 27 90 67
45 3 2 1 1 78 50 51 61
46 3 2 1 1 61 101 106 86
47 3 2 1 1 79 101 52 53
48 3 2 1 1 53 54 62 79
49 3 2 1 1 36 70 103 35
50 3 2 1 1 67 93 25 26
51 3 2 1 1 86 107 78 61
53 3 2 1 1 35 103 71 34
55 3 2 1 1 34 71 96 33
56 3 2 1 1 88 77 41 42
57 3 2 1 1 44 99 57 43
58 3 2 1 1 43 57 88 42
59 3 2 1 1 76 32 33 96
61 3 2 1 1 109 97 80 89
64 3 2 1 1 88 112 91 77
67 3 2 1 1 80 59 111 89
68 3 2 1 1 89 111 79 62
69 3 2 1 1 106 101 79 111
70 3 2 1 1 87 110 57 99
71 3 2 1 1 110 112 88 57
72 3 2 1 1 106 104 65 86
73 3 2 1 1 85 107 86 65
74 3 2 1 1 98 112 110 84
76 3 2 1 1 63 91 112 98
77 3 2 1 1 111 59 104 106
78 3 2 1 1 85 64 87 105
79 3 2 1 1 99 58 105 87
80 3 2 1 1 105 108 107 85
82 3 2 1 1 87 64 84 110
91 3 2 1 1 136 132 129 137
94 3 2 1 1 134 131 136 137
98 3 2 1 1 137 129 133 135
99 3 2 1 1 134 137 135 130
2 3 2 1 1 153 152 103 70
17 3 2 1 1 138 73 72 142
32 3 2 1 1 74 81 73 138
33 3 2 1 1 143 142 72 69
34 3 2 1 1 93 144 143 69
35 3 2 1 1 67 139 144 93
36 3 2 1 1 139 95 63 145
37 3 2 1 1 90 95 139 67
38 3 2 1 1 70 74 138 153
52 3 2 1 1 71 103 152 151
54 3 2 1 1 96 71 151 141
60 3 2 1 1 141 97 76 96
62 3 2 1 1 80 97 141 150
63 3 2 1 1 80 150 149 59
65 3 2 1 1 146 145 63 98
66 3 2 1 1 98 84 147 146
75 3 2 1 1 104 59 149 148
81 3 2 1 1 65 104 148 140
83 3 2 1 1 85 65 140 64
84 3 2 1 1 147 84 64 140
85 3 2 1 1 142 132 153 138
86 3 2 1 1 151 131 150 141
87 3 2 1 1 145 133 144 139
88 3 2 1 1 143 129 132 142
89 3 2 1 1 133 129 143 144
90 3 2 1 1 136 131 151 152
92 3 2 1 1 134 149 150 131
93 3 2 1 1 132 136 152 153
95 3 2 1 1 148 149 134 130
96 3 2 1 1 147 130 135 146
97 3 2 1 1 133 145 146 135
100 3 2 1 1 140 148 130 147
$EndElements
