$MeshFormat
2.2 0 8
$EndMeshFormat
$Nodes
1173
1 20 20 0
2 55 20 0
3 80 20 0
4 80 55 0
5 80 80 0
6 70 80 0
7 20 80 0
8 20 55 0
9 20 30 0
10 -100 -100 0
11 200 -100 0
12 -100 200 0
13 200 200 0
14 55 5 0
15 0 0 0
16 150 150 0
17 0 150 0
18 150 0 0
19 28.75 20 0
20 37.5 20 0
21 46.25 20 0
22 63.3333333333333 20 0
23 71.6666666666667 20 0
24 80 28.75 0
25 80 37.5 0
26 80 46.25 0
27 80 63.3333333333333 0
28 80 71.6666666666667 0
29 60 80 0
30 50 80 0
31 40 80 0
32 30 80 0
33 20 71.6666666666667 0
34 20 63.3333333333333 0
35 20 46.6666666666667 0
36 20 38.3333333333333 0
37 -90 -100 0
38 -80 -100 0
39 -70 -100 0
40 -60 -100 0
41 -50 -100 0
42 -40 -100 0
43 -30 -100 0
44 -20 -100 0
45 -10 -100 0
46 0 -100 0
47 9.99999999999999 -100 0
48 20 -100 0
49 30 -100 0
50 40 -100 0
51 50 -100 0
52 60 -100 0
53 70 -100 0
54 80 -100 0
55 90 -100 0
56 100 -100 0
57 110 -100 0
58 120 -100 0
59 130 -100 0
60 140 -100 0
61 150 -100 0
62 160 -100 0
63 170 -100 0
64 180 -100 0
65 190 -100 0
66 -100 190 0
67 -100 180 0
68 -100 170 0
69 -100 160 0
70 -100 150 0
71 -100 140 0
72 -100 130 0
73 -100 120 0
74 -100 110 0
75 -100 100 0
76 -100 90 0
77 -100 80 0
78 -100 70 0
79 -100 60 0
80 -100 50 0
81 -100 40 0
82 -100 30 0
83 -100 20 0
84 -100 10 0
85 -100 0 0
86 -100 -10 0
87 -100 -20 0
88 -100 -30 0
89 -100 -40 0
90 -100 -50 0
91 -100 -60 0
92 -100 -70 0
93 -100 -80 0
94 -100 -90 0
95 200 -90 0
96 200 -80 0
97 200 -70 0
98 200 -60 0
99 200 -50 0
100 200 -40 0
101 200 -30 0
102 200 -20 0
103 200 -10 0
104 200 0 0
105 200 9.99999999999999 0
106 200 20 0
107 200 30 0
108 200 40 0
109 200 50 0
110 200 60 0
111 200 70 0
112 200 80 0
113 200 90 0
114 200 100 0
115 200 110 0
116 200 120 0
117 200 130 0
118 200 140 0
119 200 150 0
120 200 160 0
121 200 170 0
122 200 180 0
123 200 190 0
124 190 200 0
125 180 200 0
126 170 200 0
127 160 200 0
128 150 200 0
129 140 200 0
130 130 200 0
131 120 200 0
132 110 200 0
133 100 200 0
134 90 200 0
135 80 200 0
136 70 200 0
137 60 200 0
138 50 200 0
139 40 200 0
140 30 200 0
141 20 200 0
142 10 200 0
143 0 200 0
144 -10 200 0
145 -20 200 0
146 -30 200 0
147 -40 200 0
148 -50 200 0
149 -60 200 0
150 -70 200 0
151 -80 200 0
152 -90 200 0
153 11.388359622715 71.6805421399723 0
154 88.5729716987725 71.7605709796417 0
155 80.0157697553242 190.09301853465 0
156 -90.0878742119052 99.9281107341455 0
157 -90.1160102282471 69.8820638233476 0
158 190.125234102498 60.1195337524717 0
159 78.4384777180178 89.0604286745674 0
160 39.9977946662939 -90.0059288866081 0
161 80.0005618400737 -90.0175692501347 0
162 -90.0033368343176 -9.99959804006264 0
163 119.999959471837 -90.0040221613469 0
164 9.99956034747012 -90.0035003267628 0
165 -29.9993826271885 -90.0003311452923 0
166 -90.0578989483417 39.9546524556047 0
167 -90.0111419666255 149.999136526652 0
168 88.9164922928767 28.7631443938268 0
169 30.0532110921613 89.3785253951122 0
170 -90.0000162075799 -40.0000052801662 0
171 190.098586186927 90.0442725898363 0
172 -19.99998519229 190.000096742494 0
173 190.033731403008 120.005693919771 0
174 190.006099334255 0.000885708134006791 0
175 190.005835132576 140.001874103222 0
176 190.000633257907 160.000468043262 0
177 159.999398960074 190.001973810228 0
178 129.995906650221 190.028843062092 0
179 39.9942188139085 190.01771300496 0
180 9.99972151337411 190.000547348276 0
181 190.000115872483 -50.0000493733539 0
182 190.000217561738 -29.9999909558842 0
183 190.029526902088 20.0111354036295 0
184 159.999658292399 -90.0003796437349 0
185 -60.0003329772125 190.000264997827 0
186 11.1378606078878 29.4471786660162 0
187 -59.9999965623213 -90.0000016812435 0
188 -90.0002680390696 179.99983689511 0
189 -90.0000001773425 -60.0000000929237 0
190 190.000014254005 -80.0000111801452 0
191 19.5283314332172 11.0792298944181 0
192 59.5101320057522 89.3827556588535 0
193 100.020655286331 190.084774678771 0
194 -90.0222119791735 19.9881980134185 0
195 88.7773896674934 54.8231219781658 0
196 11.2472351586732 46.3368409462403 0
197 71.9886826060475 10.7693805176974 0
198 49.7945501105466 89.4752024911235 0
199 59.9908777277282 190.057185098707 0
200 190.08339130453 40.0733250704755 0
201 190.132649809518 70.1088066053637 0
202 -90.1074450003057 89.8917057059853 0
203 -90.0585778825666 119.998890993532 0
204 110.007790232556 190.06966484325 0
205 190.083379324437 100.026200405166 0
206 -90.1061886183848 59.903458493167 0
207 -79.9999999856469 -90.0000000072337 0
208 190.000010414543 190.000031875526 0
209 139.998164034019 -90.0017103375488 0
210 -40.0002085452037 190.00031351389 0
211 -90.0151229341299 9.99697678962794 0
212 0.0016554140740439 -90.0030744568203 0
213 110.0031955343 -90.0081131404288 0
214 -90.0011196799989 -20.0000050324249 0
215 190.000645233654 -19.9998195562402 0
216 -89.9999999967816 -90.0000000016387 0
217 -39.9998139476367 -90.0000942919214 0
218 -9.99751542627859 -90.0023168407995 0
219 29.996973007888 -90.0052062717951 0
220 59.9966209403145 -90.0137502112638 0
221 100.005592949368 -90.0138951242526 0
222 179.999999173823 -90.0000354501231 0
223 190.000002729232 -90.0000083966292 0
224 -90.0000537601598 189.999966531637 0
225 -90.0014572430912 169.999452630317 0
226 -90.0241559565648 140.001680066888 0
227 -90.0000000212865 -70.0000000128928 0
228 190.000045903945 -70.0000252135013 0
229 190.000212801437 170.000231321039 0
230 169.999904271146 190.000697554103 0
231 139.996927834423 190.015110986668 0
232 19.9989020751322 190.002104752345 0
233 -10.0000207492678 190.000105734744 0
234 -80.0001262862542 189.99999630343 0
235 88.8455745889479 46.2361107500149 0
236 11.3632702025617 54.7184920161613 0
237 28.484710085587 10.913866031992 0
238 37.348200317613 11.0135269279384 0
239 53.9568980032748 12.2378772512653 0
240 97.528311282751 54.964932469096 0
241 2.58963782446498 46.4281679282051 0
242 180.269557543916 90.1464953076762 0
243 -80.2318001999328 99.9207518411796 0
244 59.1409736136158 98.7103959309641 0
245 -80.3195532681949 69.8007921059282 0
246 39.9968223212498 -80.0145704011953 0
247 -80.0333996551959 150.003614433724 0
248 -80.0669570382831 19.9578208443711 0
249 -80.0104522132071 -10.0015615899558 0
250 120.001665101789 -80.0159012130102 0
251 9.99864910998028 -80.0082156751471 0
252 -29.9980787441232 -80.0016119960174 0
253 11.2913628644515 80.3863294795358 0
254 80.7457507658787 10.9842339668423 0
255 100.082413527587 180.213721109 0
256 -20.0005904556663 180.001042808992 0
257 180.001575226759 -30.0001035408571 0
258 180.002028742919 160.00208348778 0
259 130.003431247057 180.077555756205 0
260 9.99792621817413 180.003711218506 0
261 19.0196339944851 1.80625077855053 0
262 159.999444671365 180.006148558974 0
263 -80.0000041467926 -60.0000034420718 0
264 39.9497444370195 89.4603212104871 0
265 10.885787511383 20.3838106689784 0
266 69.0841547073181 89.2036319347973 0
267 88.2102048955986 80.3139039925725 0
268 190.126690590769 80.0836375267301 0
269 -90.1252942998229 79.8824886552745 0
270 88.8830532966343 37.5427719472722 0
271 90.0322854502081 190.100502086687 0
272 70.0039372211527 190.081651875331 0
273 190.116715323701 50.1116951401123 0
274 -90.0796997151085 109.976940177074 0
275 -90.0878186561311 49.9282803801401 0
276 190.061999090808 110.014245036603 0
277 -90.0426526076618 130.005178595346 0
278 49.992141807821 190.038278885916 0
279 190.057114852226 30.0358262160155 0
280 120.000426806275 190.052267399278 0
281 -90.0408527285768 29.969073831145 0
282 190.017189193765 130.004593539568 0
283 -90.0092736323072 -5.06209018809045E-05 0
284 190.002519514891 150.001314378743 0
285 149.998824631724 -90.0010550721128 0
286 -50.0003929657313 190.000406232038 0
287 19.9973813749784 -90.0047987198242 0
288 129.998382112757 -90.0033522743428 0
289 -90.0002783114205 -30.0000276637359 0
290 190.016005839217 10.0028683589859 0
291 -19.9981014534128 -90.0013501925764 0
292 90.0044205600983 -90.0188342061049 0
293 -90.0000039923919 -50.000001727679 0
294 190.002568423454 -9.99945405164815 0
295 -30.0001005197023 190.000275517936 0
296 -69.9999994520232 -90.0000002694405 0
297 -49.9999536707095 -90.0000231427581 0
298 49.9970469594124 -90.0105147228196 0
299 69.9967042132058 -90.0179930726259 0
300 169.99992844273 -90.0001605236482 0
301 -90.0057517891 159.999451284351 0
302 -89.9999999985757 -80.0000000038002 0
303 190.000095284752 -60.0000498800837 0
304 190.000250987431 -40.0000520333217 0
305 190.000067793643 180.000116138017 0
306 180.000011174016 190.000228699947 0
307 149.998219111958 190.007028759727 0
308 29.9964901005618 190.008073912262 0
309 -70.0002772072709 190.000140067869 0
310 -80.0011294411982 180.000084621007 0
311 180.000057439325 -80.0001368925873 0
312 0.00134783714577225 -80.0094235547883 0
313 -0.000213902215342898 190.000420052683 0
314 110.01316186229 -80.0293671735367 0
315 88.6926617071027 63.3320692300579 0
316 11.4051925687515 63.180281865425 0
317 89.1445538554561 19.9021568054152 0
318 20.4417351444193 89.3240817590327 0
319 11.1913981939337 38.0414972646409 0
320 46.0256136990908 11.5110506831723 0
321 27.9961869812973 1.65732077519075 0
322 62.4092902696321 9.6041736714993 0
323 2.70493083734818 71.8651045289796 0
324 180.316454493452 50.1855319559496 0
325 80.017538681033 -80.0645471998565 0
326 70.082843355782 180.215351202298 0
327 18.6191545595452 -7.43822256555297 0
328 120.019421356649 -70.0432935039611 0
329 87.4750915828043 89.0435182346039 0
330 11.2208939134153 89.3473651414857 0
331 89.700404630294 10.9022063932526 0
332 9.95940425661281 -69.9713395539277 0
333 97.9242651271109 28.8204679186562 0
334 30.1561636719491 98.8517624208529 0
335 159.999395804318 -80.0015113738245 0
336 180.150164730471 30.0401999808072 0
337 180.046150341857 130.020277798368 0
338 -60.0028555695771 180.00174368418 0
339 180.007213585311 -9.99969465636909 0
340 -80.2774416723888 89.8729514365535 0
341 110.046924905436 180.176117032286 0
342 -80.2461185579536 49.8325838649939 0
343 -80.1133057349317 29.9129941262643 0
344 -80.1070557917351 130.026403328047 0
345 -80.0243180918687 -0.00471646528670533 0
346 149.998276310389 180.017867215291 0
347 -80.0151320055644 160.001212743904 0
348 -80.0008516324162 -30.0002715518555 0
349 -19.9961315988512 -80.0050456000166 0
350 -59.999977812605 -80.0000153061647 0
351 -80.0000006553034 -70.0000006841802 0
352 29.9871516839614 180.026322857876 0
353 180.000554986016 -60.0005074311805 0
354 180.00069576153 170.001184552254 0
355 -10.0005791720649 180.001031047839 0
356 97.6728229040231 46.3731643369875 0
357 97.2668906747438 72.0238979166036 0
358 2.70002374679044 54.8559664005683 0
359 46.0399217642389 2.71145389744349 0
360 2.25893872815171 29.2914569135865 0
361 72.7690432777137 1.56362752305115 0
362 10.3343444273795 10.9305590069084 0
363 68.454157619433 98.4010671386242 0
364 -80.3177095582937 79.8445573332882 0
365 180.326837297478 80.2149426096552 0
366 90.1199759229393 180.24624547865 0
367 -80.1984932777115 109.98817425739 0
368 -80.3102676883995 59.8119936032524 0
369 120.022520188601 180.130372929817 0
370 180.160862373749 110.061010964772 0
371 180.228130355644 100.104859961303 0
372 49.9924899319192 180.108291056307 0
373 -80.0686964418165 140.014570033561 0
374 70.0101703544881 -80.0662775218075 0
375 -80.0447099871214 9.98134929382896 0
376 180.043744762427 10.0014659399446 0
377 19.9952898043467 -80.0047281768443 0
378 139.99983961092 180.043028102032 0
379 100.022370520028 -80.0467023018915 0
380 29.9984016092991 -80.0072093162082 0
381 49.6395165656604 98.931337016739 0
382 -80.0055857614357 170.000618128865 0
383 180.020532792323 140.010918993831 0
384 180.008046533669 150.005335649327 0
385 -50.003378725827 180.002402797724 0
386 -70.0025466558256 180.001011853503 0
387 129.99728334663 -80.0116127456293 0
388 149.99755436401 -80.0036977311426 0
389 -80.0040809566498 -20.0009601882656 0
390 -30.0014519816977 180.001704068969 0
391 180.003352443394 -20.0000763453977 0
392 -80.0002597391146 -40.0001075619315 0
393 -80.0000560824246 -50.0000302968732 0
394 -9.99695304872836 -80.0089428689466 0
395 49.9946464596856 -80.0321957669632 0
396 180.000915228351 -50.0005660094164 0
397 -69.9999966978369 -80.0000023378349 0
398 -79.9999996152451 -80.0000004403289 0
399 -39.9993257265283 -80.0005459849642 0
400 180.000298202763 -70.0003711205519 0
401 170.000062134836 180.002341165377 0
402 180.001410889935 -40.0003799505616 0
403 170.000006783668 -80.0006273642819 0
404 180.000171732073 180.000783615491 0
405 19.9935875901556 180.011744391163 0
406 -0.00117124776230781 180.002007391515 0
407 97.4042297476148 63.5267109410989 0
408 36.9996807683851 1.86823095478358 0
409 2.47064997230875 38.0212553063241 0
410 64.8603420437111 0.441366057548464 0
411 170.442227034649 100.240261834277 0
412 110.130427257596 170.339342098989 0
413 -70.3883941572976 110.077109786352 0
414 106.07149283848 72.4369316309021 0
415 -6.10433904937256 46.834747945605 0
416 -70.6144640382504 79.9704031385113 0
417 68.1817049710985 107.577934713807 0
418 73.473689268909 -7.66027152555999 0
419 50.0332070262595 -70.0598423683499 0
420 -70.0894178579532 9.94836877568415 0
421 -70.0091658485112 -20.00454526532 0
422 -20.0105162020606 -70.0158152169042 0
423 -70.0691954608756 150.017743441879 0
424 170.003699132126 -50.002335114042 0
425 -70.0011899031638 -40.0007004646968 0
426 -70.619724599792 59.8590622153083 0
427 180.36987379917 60.2350791722208 0
428 140.012437112093 170.082734259043 0
429 -60.0136340298484 170.006757994088 0
430 -0.0469042916652285 -69.9951517501117 0
431 170.102689441471 130.059344201105 0
432 130.00511594947 -70.029811190041 0
433 150.004869657799 170.037144706632 0
434 170.01696931153 150.013809072681 0
435 160.000625944128 -70.0040099962326 0
436 170.00109116145 170.004297688935 0
437 -20.0038500847466 170.005884367507 0
438 -10.0034626246091 170.004967151848 0
439 170.009905370154 -20.0009180648785 0
440 -0.00724004645157095 170.006386525389 0
441 19.9720059781849 170.028148225712 0
442 106.29616184237 55.2760905773855 0
443 36.8140688383636 -7.60538020721985 0
444 86.6674954592895 97.9174309446924 0
445 77.6414333674613 98.1380760357438 0
446 39.9284438877337 98.9658707197749 0
447 170.634242178423 80.3812200521856 0
448 96.3801235182821 89.2136250931763 0
449 80.1285981258155 180.251145675953 0
450 180.244803345559 40.092973865284 0
451 180.377665995201 70.2461597795002 0
452 2.50029030581609 80.6232099451993 0
453 -80.1847796513213 39.8666188982467 0
454 180.103040694883 120.042602777726 0
455 -70.212538514645 130.071642138054 0
456 90.025780151727 -80.0617264816782 0
457 39.982289746904 180.063479551187 0
458 90.2661613833909 170.486291560584 0
459 -70.5502231534047 90.0138120701759 0
460 60.0392775514543 180.172152268898 0
461 -80.1614817017771 120.02777065325 0
462 60.0032412464982 -80.0561925132092 0
463 9.89161186958079 1.38313780386547 0
464 29.9944119851685 -69.9358618531594 0
465 19.972177896556 -69.9353179454293 0
466 -70.2517636846628 29.8173657872831 0
467 180.090524259809 20.0086761547155 0
468 110.052778872382 -70.0695901604195 0
469 120.075711549261 170.253341418005 0
470 -70.0509574449385 -0.0259722796323771 0
471 -70.0308022831561 160.008753678232 0
472 -70.0117744216166 170.003906203886 0
473 180.021133377625 0.000422067719782149 0
474 139.996782793253 -80.007866816169 0
475 170.000671474928 -70.0015825376434 0
476 170.005886375729 -40.0013331868707 0
477 -40.0029682410163 180.002458922221 0
478 -70.0000642857955 -60.0000467091382 0
479 -59.9999912506585 -70.0000675427466 0
480 -70.0000068207092 -70.0000177707235 0
481 -30.0047143361006 -70.0080847115807 0
482 -49.9998063460289 -80.0001542240439 0
483 20.5389271836557 98.6803763825048 0
484 98.260962032011 19.859947706701 0
485 96.9432367201124 80.6087546706816 0
486 1.742005502049 20.0385524745828 0
487 58.9738641170863 108.0847735384 0
488 97.7979624605875 37.6509527738675 0
489 56.4681030502864 -5.19056079595642 0
490 81.5485301901435 1.79317779260094 0
491 2.73824123297722 63.3424990815024 0
492 27.6461718419941 -7.71679947120869 0
493 -6.31471005445561 38.1078437376854 0
494 -6.06467498755788 72.2292046666383 0
495 170.621510145917 50.1316748189592 0
496 2.22760666418554 89.535264385642 0
497 82.3565645864797 -7.43035719397716 0
498 70.2302869145642 170.44280657512 0
499 -60.1570643545285 9.85203682809079 0
500 120.099804026461 -60.0772704309781 0
501 -20.0899809546427 -60.036453261592 0
502 -61.0189191177275 80.3046879088026 0
503 -14.9489904037044 47.013963662907 0
504 68.1690241340373 116.815818220505 0
505 95.6702928657447 97.9930217807728 0
506 110.220873070488 160.588087227884 0
507 98.9224130927731 10.7666407667015 0
508 18.2622255356845 -16.9210575464097 0
509 106.995388888572 28.8189327743805 0
510 19.7729990040878 -59.6745489193491 0
511 30.2420961213146 108.491152048798 0
512 160.010934558351 -50.0084428845392 0
513 170.719596790004 70.3633844179193 0
514 -70.3877898430867 39.7694698680299 0
515 170.207564001719 120.112155196997 0
516 90.1041443855124 -70.1324348908743 0
517 49.9881750504054 170.225466777909 0
518 170.306549323379 29.9725177604575 0
519 29.9513472757193 170.065542542584 0
520 140.000299224379 -70.0188642133072 0
521 170.041133521582 -0.00557003511226384 0
522 -40.0018502211468 -70.003082757791 0
523 -60.0004750205032 -60.0003861609224 0
524 0.983567494330956 10.2789542320183 0
525 86.2202810584782 106.862176315466 0
526 80.2856204903606 170.505554517454 0
527 -70.3102812979626 120.096650173436 0
528 -70.659790517949 69.9587108822616 0
529 -70.5253823676493 49.8101825461818 0
530 170.334905137608 110.179551796527 0
531 170.549831289453 90.3207892549573 0
532 100.089209653552 -70.1033471975506 0
533 60.0888496560451 -70.1581760260588 0
534 -70.4798275828321 100.053460179356 0
535 100.202231230673 170.432356460443 0
536 170.185693852571 19.9734817187397 0
537 130.037854150131 170.164382001707 0
538 40.0105766129592 -69.95770390133 0
539 -70.1364623669726 140.041729471688 0
540 -60.0447497743042 160.019276423947 0
541 140.046762620024 160.144934275717 0
542 -10.0380938048959 -70.0155698980547 0
543 -0.24384678968098 -59.8997133700385 0
544 170.050008241843 140.032403621405 0
545 150.000448149314 -70.0101593904042 0
546 -70.1620844512945 19.8836201198193 0
547 160.004889099234 -60.0074928519799 0
548 170.019793659164 -10.003218298596 0
549 -70.0249885821626 -10.0126325072972 0
550 -50.0166483437879 170.010072412748 0
551 170.002447153641 -60.0028062362278 0
552 170.005900280615 160.007842583968 0
553 160.002220172162 170.014436868956 0
554 170.008250322006 -30.0003084682199 0
555 -40.0133978441845 170.010374918781 0
556 -30.0085293131607 170.009099686539 0
557 -20.0338170748415 160.016563091275 0
558 -10.0303813120883 160.008759575652 0
559 -70.0040256130949 -30.0022512771209 0
560 -50.0004922175898 -70.0009062555569 0
561 -70.0004874809512 -50.0003105500167 0
562 9.98203998902489 170.013918143061 0
563 49.5479567490419 108.488040943446 0
564 -6.00811233235811 63.7130417268766 0
565 46.2265249336835 -6.71833226675034 0
566 -6.05697316959816 55.2649523294718 0
567 11.178337193034 98.5674590904608 0
568 106.1672711075 63.895129829891 0
569 -6.74982287500681 28.9554834193923 0
570 90.5971691343907 1.69758407411941 0
571 106.530223029444 46.563212552458 0
572 77.279923830836 107.169741711095 0
573 65.3590793071158 -8.27512994695389 0
574 10.3848466776833 -7.15021363059987 0
575 105.335976445437 89.5996874761669 0
576 105.815722216134 81.0058896505438 0
577 27.5875125501761 -17.4171016872889 0
578 -60.6958621867361 110.243721466721 0
579 114.908835032658 72.9138353287156 0
580 160.755972015892 100.469953120989 0
581 95.2630857523647 106.921016699135 0
582 74.0426730273248 -16.9248085872148 0
583 2.00554020388595 98.6639737497116 0
584 91.492018588351 -7.64332153795235 0
585 90.2904508757204 -60.1881515785524 0
586 0.875190107089495 -10.8457600936201 0
587 -60.0425430900157 -10.0531017145552 0
588 161.11707415081 70.587663654791 0
589 -60.9513093327564 60.1776106043361 0
590 -60.6708255485855 39.7074268949262 0
591 80.3661967516025 160.915730209607 0
592 60.3375045601836 -60.3709490182961 0
593 -60.3805038511377 130.142811667546 0
594 -60.008749887776 -40.0060333039438 0
595 27.875219394284 -27.6068599712837 0
596 -8.44980236071061 9.6081995158895 0
597 100.289324815849 160.752487278065 0
598 -60.299900521392 19.7526483649297 0
599 130.102406658486 160.290036262568 0
600 160.53485205657 29.8634505034487 0
601 -60.1088962685279 150.044063280858 0
602 160.375227652914 120.24653056158 0
603 110.179961090428 -60.0898352325528 0
604 19.9152831773226 160.017267364445 0
605 160.026937053895 -30.0085293876221 0
606 115.136983903059 55.5566075539584 0
607 -7.48436751435394 19.4054065967145 0
608 -61.0229080148004 70.3297265706224 0
609 170.714933677728 60.2582370363489 0
610 39.9419506932124 108.627128567371 0
611 170.475560063181 40.0136786245357 0
612 161.022521010869 80.6369460059771 0
613 120.160317574541 160.447393899338 0
614 60.098210354965 170.34545004776 0
615 39.9498040230547 -59.6485830268214 0
616 29.7957374379363 -59.5922548568622 0
617 80.1354325771744 -70.1593925381427 0
618 70.148378984592 -70.1871259557389 0
619 160.212327567397 130.152543907125 0
620 39.9433056314842 170.133814302659 0
621 -10.1882243339159 -59.9984111626376 0
622 140.019663863464 -60.0359014641965 0
623 130.055052418797 -60.0578620776844 0
624 -60.935826223631 90.2845190794742 0
625 170.099512134974 9.98443713901008 0
626 150.017453529556 160.055198798024 0
627 9.70856581305367 -59.7421198506039 0
628 -60.0847003307255 -0.104153848812715 0
629 -50.053306611085 160.030162478156 0
630 160.100879755741 140.081800460844 0
631 150.028566006518 -50.0246752767864 0
632 160.008653812798 160.019352098713 0
633 160.068550410197 -0.0213112144655057 0
634 -40.0506694040612 160.032815503809 0
635 -30.0455192843013 160.027717356186 0
636 160.021571581853 -40.0096707305395 0
637 150.012029973827 -60.0190856760409 0
638 -20.2388655306441 149.977249027532 0
639 160.033149724145 -20.0140103395475 0
640 -60.027084044711 -20.031623402693 0
641 -0.0293328032030402 160.00149364301 0
642 -60.0036844907597 -50.0023754614834 0
643 -30.0467963690242 -60.022288599104 0
644 -50.0040258709705 -60.0027124441542 0
645 58.9386180684138 117.689613814806 0
646 55.0379657578057 -15.4278745173737 0
647 -6.33539080949983 80.9937602695644 0
648 107.531817722482 19.7614697895608 0
649 99.911769257301 1.46921189035685 0
650 20.6283429968167 108.25891854077 0
651 9.80530173285516 -15.9809368042777 0
652 -15.2323403908267 37.8877123679459 0
653 106.756773947133 37.7229930291849 0
654 104.720166706957 98.3927875433524 0
655 37.1481909820584 -17.432034867041 0
656 77.2687662462596 116.188855489492 0
657 114.338861751138 90.1544396767258 0
658 -14.8363475081941 55.6277161579036 0
659 -14.9014662865655 72.6189113012465 0
660 104.376719730885 107.32738137628 0
661 100.895718452562 -8.08785608817281 0
662 -15.1995027774628 81.4148582473163 0
663 150.627835015463 120.483104198774 0
664 150.098247611558 -20.0459107617341 0
665 -50.0719791781772 -10.1897362490616 0
666 115.960506416957 28.7963884169143 0
667 100.048501661889 151.241094464186 0
668 -16.6135309732407 19.0318110249308 0
669 60.0781368353787 160.524377855629 0
670 110.444584555177 -49.9628241107771 0
671 30.2910574928099 118.496432556448 0
672 -51.3057041999328 70.8120868932255 0
673 -1.95486031881153 -20.8893248680018 0
674 151.548456167293 71.1895430246582 0
675 -23.7135982328933 47.1408193539195 0
676 68.6606999229725 126.19878363989 0
677 -50.5471953925479 19.4824836110362 0
678 120.323015886579 150.704564142307 0
679 9.20243332055036 -49.2826257753882 0
680 -10.4882210540948 -49.9481528842682 0
681 7.15983849371986 -26.3248888857396 0
682 29.2517761290583 -48.9918606035485 0
683 37.7254233134869 -27.7323989997004 0
684 80.3668410145244 -60.2380944951844 0
685 160.176033375383 9.94541906290969 0
686 140.145473640448 150.260865456256 0
687 -15.6910299564858 28.5095808374274 0
688 161.081653734436 60.4251865776167 0
689 160.753655565232 39.9407825135235 0
690 70.2431609431994 160.772554870398 0
691 -60.8363744104445 100.271511981138 0
692 90.3151973929657 160.903891491907 0
693 70.3912397191293 -60.3495170127652 0
694 -60.8156316466876 49.9322869116709 0
695 160.589679210551 110.378287541367 0
696 -60.5010774565994 29.6693826301852 0
697 160.903687702847 90.5761040077922 0
698 160.349936540546 19.8947417628342 0
699 50.1808059203524 -59.9637701047037 0
700 49.9102377116651 160.308290890969 0
701 29.8710804287962 160.076023278704 0
702 -60.2281590113402 140.087842948708 0
703 -50.1493269028945 150.070685103286 0
704 100.253852537456 -60.1012557358162 0
705 150.383559849468 130.347049971399 0
706 140.072671528544 -50.0491654508378 0
707 -51.4718790646645 80.7124897387298 0
708 -60.5583961986173 120.200761500264 0
709 130.163388504897 -50.0613995501127 0
710 9.94836067745396 159.992462421384 0
711 -50.2498841468811 9.61064149206175 0
712 -30.2393466891746 150.03706163426 0
713 150.060253123164 -40.0307150930104 0
714 160.036166570197 150.036627406714 0
715 -10.1999709106853 149.901933061545 0
716 -60.0193045319619 -30.0176373075322 0
717 -20.2939399680154 -50.0449966244092 0
718 160.041027078372 -10.0175502729391 0
719 -50.0170364962533 -50.0091441372593 0
720 -40.0198783011536 -60.0104079068951 0
721 49.5227161609533 118.381272400596 0
722 108.462033667232 10.5498632551911 0
723 82.9447650880776 -16.6771958575181 0
724 46.6335183434823 -16.6078883875882 0
725 18.0955014776359 -27.2999980962183 0
726 11.142147584391 108.092947279711 0
727 -9.38678020231195 -0.475176320354187 0
728 115.412821456496 46.6849356727488 0
729 114.714287096299 81.5028652480533 0
730 114.994523704937 64.2745400080894 0
731 -6.69663953705368 89.9721781735239 0
732 64.1226253302023 -18.1892399317656 0
733 113.821522763892 99.0465048928414 0
734 86.3195045059128 115.884208325658 0
735 -14.8081003934391 64.0946686275685 0
736 -7.02223502329398 99.0772807828105 0
737 -51.3561259156749 100.411927242181 0
738 113.481668066307 107.987089654905 0
739 -30.8160079826968 139.990920377527 0
740 123.391635428154 90.7959375272065 0
741 151.404273495636 61.0456117258458 0
742 151.07357720007 39.9221460369973 0
743 75.0485028166356 -25.0405846692934 0
744 -10.61106853561 139.326075960457 0
745 29.828290092152 149.92119706954 0
746 -23.6966969252272 72.8534336404939 0
747 123.808554249592 73.1694955089561 0
748 123.819658027841 55.6255508933859 0
749 151.333819038024 90.9309072346759 0
750 140.879718458871 120.791656909668 0
751 -51.0656135438853 49.9585638756261 0
752 70.2651146807343 151.253408800741 0
753 48.4357942665831 -27.7496960569459 0
754 80.6291935330169 -50.3109542488834 0
755 -24.3420430986908 28.3575196833385 0
756 60.5447466771056 -51.6721816103274 0
757 -50.98818699778 120.247617629161 0
758 90.054272895312 151.567997496251 0
759 -41.6557743147675 71.5688807958828 0
760 150.92411788482 110.637469316027 0
761 -2.50438221583419 -30.1346259513975 0
762 -50.9092123785254 29.3692767901494 0
763 39.3966590874742 -48.9883827656603 0
764 100.479847869484 -49.8198435663539 0
765 -50.3623146905557 140.130374269799 0
766 9.95422724375487 149.792480772048 0
767 -30.1487196393354 -50.0447414031833 0
768 -23.4281348763082 55.9694062063613 0
769 -41.0555401587655 19.2849269111609 0
770 8.42454669015848 -38.5201953631572 0
771 28.5109894200045 -38.25855122016 0
772 -51.0416353240272 60.4890974760232 0
773 -24.040580875128 37.8239558086941 0
774 60.1449839397512 150.511115748714 0
775 -51.4721438045071 90.529419541955 0
776 39.9383886109045 118.638417194847 0
777 -10.9213929270149 -39.9529631628221 0
778 110.156736238667 150.918068595082 0
779 151.468717022851 81.1168271079408 0
780 160.933128154063 50.206445178672 0
781 19.1738903070506 -49.0766665888393 0
782 140.158031272584 -40.0433308683423 0
783 150.636351211581 19.7974181783714 0
784 -40.2261605144984 150.066855394869 0
785 140.364908003455 140.484428415291 0
786 39.8590067684308 160.15963609608 0
787 130.293699937434 150.524871626799 0
788 150.094160482973 -30.0382436613471 0
789 -50.0993364975856 -0.29340551998159 0
790 -0.706920544855244 -49.6207283343086 0
791 120.310099114853 -50.0237297143027 0
792 150.334399764574 9.91182270425658 0
793 150.090711857315 -10.03963885803 0
794 150.208032610802 140.225951395781 0
795 -40.0650036516931 -50.0264907495325 0
796 -50.0811587068252 -20.1238747891604 0
797 -50.045340154916 -40.0286903145359 0
798 109.586310873226 1.10299518889428 0
799 115.661996531028 37.7498644442758 0
800 20.6179071208254 118.275857335614 0
801 59.3667291171272 127.727554272453 0
802 95.4513466959182 115.961893747474 0
803 92.0218563445203 -17.2626958723228 0
804 1.80641188711624 108.067975197345 0
805 116.832439440368 19.8112106539475 0
806 -10.1304259249032 -10.5704421925041 0
807 -18.112569027996 9.36133847689828 0
808 -15.541529370661 90.479310110246 0
809 56.4264357367512 -23.2538749838483 0
810 86.9061642659296 124.900028361488 0
811 77.8429541812158 125.269704248888 0
812 110.550479181751 -8.63542359613917 0
813 -15.85067276588 99.6303579847368 0
814 109.910446473853 140.525489295826 0
815 110.812352771651 -39.5653928538854 0
816 140.179922980126 -9.96180033393087 0
817 -40.0979083192096 -10.3998786192821 0
818 124.586318002357 28.9922122925285 0
819 -42.1984647981668 90.6624188548691 0
820 123.006372514913 99.8989215384675 0
821 30.1510037861147 128.930335759336 0
822 141.824760879656 62.2861287180359 0
823 142.030245765697 81.6837543829091 0
824 130.34283111553 -39.9806080307189 0
825 130.676718137798 140.940411847706 0
826 39.7904840156085 150.006574316678 0
827 -40.1477080366881 60.5900050306237 0
828 -32.3859192686827 47.951119103367 0
829 88.0007187595075 133.765007458009 0
830 141.287618765022 110.783378150623 0
831 70.2567664987922 134.542373298794 0
832 -32.8121264002795 38.2137897672419 0
833 58.4891614524017 -32.1003408259828 0
834 141.21269991756 19.8980339179355 0
835 38.522748061588 -38.3147834700206 0
836 151.154238868276 50.5215449933938 0
837 -42.0934219939375 81.1122036660664 0
838 80.1752976997035 151.662699600647 0
839 151.166231582378 100.767381467584 0
840 70.192129344811 -49.5892622021866 0
841 -40.6103469740102 140.10401676805 0
842 -51.1025499603244 39.4842594840604 0
843 150.955953053128 29.7532371487945 0
844 49.9341770752607 150.078585671395 0
845 90.4179724469356 -49.9630488307356 0
846 140.621907339831 130.733433094675 0
847 50.6458441451406 -48.7629706762699 0
848 -50.7086100016694 130.18030283112 0
849 -20.9415622138021 139.61365388343 0
850 -40.2536114598225 9.54967108677148 0
851 -0.133309487034701 139.199724699474 0
852 19.9273875497275 149.792935975952 0
853 140.243056649842 -30.0193242269142 0
854 140.465229525443 10.1861984497342 0
855 -51.2286060652619 110.28896757949 0
856 -30.283592536668 -40.1024349899724 0
857 -20.5402789913964 -40.0903852958326 0
858 -40.1356973534226 -40.0689100411516 0
859 -50.0765431481394 -30.0719058500156 0
860 82.8363962039908 -25.7608718180724 0
861 18.4696035891817 -38.211585419874 0
862 118.327292943948 10.5200980326948 0
863 49.6963595843776 128.75156773931 0
864 104.616936929464 116.268500274267 0
865 124.00454191944 46.7896402174054 0
866 10.9174472546896 118.123952220385 0
867 101.42355610261 -18.0577394302212 0
868 -24.0482812300676 81.6337007247017 0
869 -19.3802068209614 -0.606818639693735 0
870 -10.8653291154366 -20.4758063944386 0
871 -24.6657537961235 19.8543346646111 0
872 -7.25931957374399 108.2510032356 0
873 123.803087421356 64.3502729752592 0
874 89.1894211320812 142.571888380194 0
875 67.4739154065804 -28.6355501301714 0
876 -1.37816583746144 -39.3383572340561 0
877 123.672876833452 81.9137470846194 0
878 96.0833704796054 124.827309364516 0
879 70.9254952771401 142.877560387936 0
880 -41.7003447162759 28.9820615513262 0
881 -23.4033113288335 64.4021084845751 0
882 -15.979519626434 108.754954518194 0
883 113.498658470837 116.65561554459 0
884 -42.0350453521799 110.143037872727 0
885 111.036249062295 -18.7305060920861 0
886 0.297117238256071 128.315233392153 0
887 -22.2643679460053 129.116382568493 0
888 20.3758563936383 128.749181077572 0
889 131.745460692482 110.251592480245 0
890 -41.2104813393703 130.103096993639 0
891 -30.3796364593518 -30.2171240760143 0
892 130.994401434322 131.501940722742 0
893 141.889900204676 91.2365177466591 0
894 130.49430804852 -29.8364091248926 0
895 140.45617259783 50.9550309758354 0
896 100.833804169653 -39.0931602840736 0
897 141.624298296897 39.4870679177177 0
898 74.7234609217764 -32.737883942948 0
899 61.2626651238463 139.077304985566 0
900 133.034024985751 20.8068760371715 0
901 91.6804466929717 -27.217881183153 0
902 1.1918104473877 117.892979019843 0
903 49.9836833457478 139.428099815504 0
904 -29.0793132462601 10.7386661825011 0
905 39.8649348419584 139.52957398393 0
906 29.9659065792753 139.458227306313 0
907 20.1013321238457 139.318367321101 0
908 141.660775115156 100.876226241216 0
909 132.845797728285 72.8429453751332 0
910 122.51716080664 109.031677552234 0
911 -32.463694171511 72.4503070482039 0
912 142.083145797929 72.0530254683067 0
913 141.742484654673 29.5980845979671 0
914 98.8789693073078 142.080943686474 0
915 -31.3037404650124 64.4708274123779 0
916 132.575091136039 91.1988934284493 0
917 132.617267761344 63.5883315563095 0
918 120.921761377624 141.2194787373 0
919 120.577631536024 -39.7968199670337 0
920 140.110822761456 0.179226690732079 0
921 10.1330232738542 139.213246620549 0
922 140.257071429741 -19.9710521765092 0
923 -39.9837338365549 -0.389318243511283 0
924 -40.1838277044375 -20.266700937276 0
925 -40.1907264876005 -30.154059808402 0
926 119.598132604947 0.773327569886689 0
927 -33.1685556597921 90.7554887764701 0
928 78.8806904173797 134.099414775739 0
929 124.281232792335 37.9366948003095 0
930 -11.1958474538785 -30.1817702594062 0
931 47.5218807125322 -38.2125797871394 0
932 -42.1791865546192 100.325899082947 0
933 39.9276327099277 128.975866182115 0
934 -20.1070464861115 -10.585274528358 0
935 -41.447034897578 49.1990628452266 0
936 -24.3192943343178 90.7434355019333 0
937 -31.2518342971068 56.316615601245 0
938 131.673679546245 55.3129887653092 0
939 97.2826635248939 133.375569917084 0
940 -41.788524969702 38.9265406623584 0
941 80.4801243188051 -41.6131443155491 0
942 105.084023924105 124.751750823253 0
943 79.7492619724187 142.789929494494 0
944 -32.9000995964531 28.7252037933233 0
945 65.7725064142672 -37.5993538287491 0
946 124.971135809932 20.8159890169617 0
947 -32.8393780151426 20.1998193009644 0
948 72.8767007416214 -40.0127005985769 0
949 120.340455254465 -9.18824360808028 0
950 -24.5045965732868 99.9917257593028 0
951 113.634194235656 124.742488721574 0
952 129.368135275933 11.7478669877087 0
953 101.236894397638 -28.4189188291168 0
954 111.01470063682 -29.0657061971449 0
955 130.479202105617 -19.6936199220824 0
956 10.4735768063036 128.584456952033 0
957 -31.8103827270016 129.780216035387 0
958 130.16277825453 120.947492832146 0
959 -29.6551147870762 -0.411575248230207 0
960 -11.2183598498288 127.106096860714 0
961 -7.37930952483094 116.973638181264 0
962 -41.7561331726528 120.069342933723 0
963 121.442120572774 116.98792130693 0
964 89.7139623744367 -38.3915328619969 0
965 120.752225545083 -29.4761266257487 0
966 129.852826422467 0.568459970874933 0
967 -30.0789251073432 -10.4871625241119 0
968 -30.31524478041 -20.3656820305708 0
969 132.265802787668 100.557717365128 0
970 -20.503701687414 -20.4087240860977 0
971 -20.6459186147844 -30.2246512457363 0
972 132.778373333608 81.9322116979752 0
973 -32.9567790546544 81.4778480839658 0
974 131.720343890269 46.9279500674841 0
975 -33.2520434948588 100.192800635671 0
976 105.542864797345 132.271176329241 0
977 121.693781225663 132.297516691577 0
978 132.716532518258 38.5886807876364 0
979 133.018077610812 29.4353273689798 0
980 55.8246658168633 -40.3910742875745 0
981 81.411958787775 -33.5409722026595 0
982 -24.5037426445156 109.368865604567 0
983 -15.6819445028392 117.358713562219 0
984 -32.677735210232 119.690847852106 0
985 130.233138400118 -9.59405914906634 0
986 120.679972259764 -19.2498620576932 0
987 -33.1253535882309 109.83961072792 0
988 113.643905147153 131.974250091351 0
989 121.248586035473 124.637546631522 0
990 62.5032335336661 -43.6823065806396 0
991 -23.6365574896743 118.915460759369 0
992 20 20 0
993 55 20 0
994 80 20 0
995 80 20 50
996 20 20 50
997 28.75 20 0
998 37.5 20 0
999 46.25 20 0
1000 63.3333333333333 20 0
1001 71.6666666666667 20 0
1002 80 20 10
1003 80 20 20
1004 80 20 30
1005 80 20 40
1006 70 20 50
1007 60 20 50
1008 50 20 50
1009 40 20 50
1010 30 20 50
1011 20 20 40
1012 20 20 30
1013 20 20 20
1014 20 20 10
1015 45.9373018045832 20 7.67660441204433
1016 50.4892314839686 20 39.8034217246513
1017 70.1707696634972 20 29.421922032808
1018 29.7717777586548 20 19.1961335931602
1019 29.2176328584471 20 9.43140233018993
1020 70.512164947759 20 19.2700106528859
1021 63.1651716063113 20 8.43243221707991
1022 40.4611012846694 20 39.7454670971107
1023 30.2093832228843 20 39.7715872122277
1024 70.0978816350173 20 39.6972868116022
1025 71.1649569436831 20 9.44736848782154
1026 59.8726516438911 20 18.6710841167217
1027 38.0606017247902 20 8.68119594380495
1028 41.5208556374802 20 28.2054968528057
1029 60.2937934615006 20 39.7418282349638
1030 30.2147464571616 20 29.3525182488523
1031 54.1236008546943 20 9.41170660383047
1032 47.2410950996497 20 15.4181024418664
1033 51.4823083705478 20 30.6788021575236
1034 60.4240667316816 20 29.7475237689593
1035 39.1182582404084 20 17.6573753240812
1036 50.3730165765587 20 22.0889129485824
1037 80 20 0
1038 80 55 0
1039 80 80 0
1040 80 20 50
1041 80 80 50
1042 80 28.75 0
1043 80 37.5 0
1044 80 46.25 0
1045 80 63.3333333333333 0
1046 80 71.6666666666667 0
1047 80 20 10
1048 80 20 20
1049 80 20 30
1050 80 20 40
1051 80 80 10
1052 80 80 20
1053 80 80 30
1054 80 80 40
1055 80 70 50
1056 80 60 50
1057 80 50 50
1058 80 40 50
1059 80 30 50
1060 80 46.3510372284672 8.30784096004781
1061 80 48.2678723411571 41.7986199617195
1062 80 70.124403374402 28.9730957129337
1063 80 29.9578892452819 40.3238989405671
1064 80 29.0290769085522 9.31038090692542
1065 80 70.8007800847716 18.9713690905903
1066 80 54.6000290900483 8.37213977343787
1067 80 62.8316733588714 8.80780744351865
1068 80 29.5092258752289 18.758229971128
1069 80 69.7306678213803 39.3781713349581
1070 80 71.3147516673997 9.41058375427102
1071 80 54.0485696019984 16.1674302170823
1072 80 58.0344212226197 38.4346690360109
1073 80 31.0889929977551 29.4679799157423
1074 80 39.5835680951892 41.142835946861
1075 80 37.8213009464386 8.66963019058005
1076 80 61.8005551733683 17.7880636436461
1077 80 46.3510913933592 15.8854445152646
1078 80 48.2900856328613 33.6086572298196
1079 80 40.4213256631023 33.2141534571029
1080 80 60.1783322193447 27.3045062474905
1081 80 38.6208822623759 17.3336103812226
1082 80 49.7459217439671 24.5034323852463
1083 80 40.2841944241608 25.1876238679651
1084 80 80 0
1085 70 80 0
1086 20 80 0
1087 80 80 50
1088 20 80 50
1089 60 80 0
1090 50 80 0
1091 40 80 0
1092 30 80 0
1093 80 80 10
1094 80 80 20
1095 80 80 30
1096 80 80 40
1097 20 80 10
1098 20 80 20
1099 20 80 30
1100 20 80 40
1101 30 80 50
1102 40 80 50
1103 50 80 50
1104 60 80 50
1105 70 80 50
1106 60.0378850901956 80 10.1228557733189
1107 30.1829694743068 80 30.2114907637789
1108 50.2589792128051 80 40.3736175988774
1109 70.0577838797338 80 30.1222286851649
1110 30.0896958477184 80 20.1664281527763
1111 30.1683413142299 80 40.1553885260853
1112 70.0421363983983 80 40.0900250573919
1113 70.0200143385236 80 10.0523535908068
1114 50.0535154120378 80 10.175326843996
1115 40.053357335459 80 10.1541239299677
1116 30.0338908081313 80 10.0822640110998
1117 40.2337137460047 80 40.2947564664883
1118 40.1528405143564 80 20.3382817670929
1119 70.0474372314729 80 20.114367749367
1120 60.1060714335649 80 20.2777215285144
1121 60.1515048949878 80 30.3363823715216
1122 60.1135891388559 80 40.2194613065594
1123 40.232136684595 80 30.4006938471496
1124 50.2120852612812 80 30.4290965607131
1125 50.1317775059812 80 20.3215486007274
1126 20 20 0
1127 20 80 0
1128 20 55 0
1129 20 30 0
1130 20 20 50
1131 20 80 50
1132 20 71.6666666666667 0
1133 20 63.3333333333333 0
1134 20 46.6666666666667 0
1135 20 38.3333333333333 0
1136 20 20 40
1137 20 20 30
1138 20 20 20
1139 20 20 10
1140 20 80 10
1141 20 80 20
1142 20 80 30
1143 20 80 40
1144 20 70 50
1145 20 60 50
1146 20 50 50
1147 20 40 50
1148 20 30 50
1149 20 45.8195279216809 8.8987120749462
1150 20 49.1798166428634 43.5985937598461
1151 20 69.8382579470764 29.4797808769443
1152 20 29.1239052738783 9.51422546163718
1153 20 29.8826754218226 40.1372736209241
1154 20 70.5813111259588 19.3838752818515
1155 20 62.4913667137606 9.24696405273263
1156 20 28.8974683686324 18.9953651545492
1157 20 69.4475175987695 39.7236577887538
1158 20 71.1743093672329 9.63085664914331
1159 20 61.478876965237 18.6686727282965
1160 20 56.9743101899441 39.1522058361766
1161 20 29.7959127450142 29.7959089930643
1162 20 37.6125621703347 9.08725006539033
1163 20 54.0255564194579 9.01512015332124
1164 20 41.1510637898779 39.7020062534349
1165 20 48.2115382991048 33.4884016561962
1166 20 60.0246226103091 28.1860025304567
1167 20 36.9241422358268 17.8877585596335
1168 20 37.9030030129986 32.2614390929963
1169 20 44.6419880523968 17.5949995452903
1170 20 52.8291326319089 17.9839648630627
1171 20 42.7021985670169 26.6512944240641
1172 20 51.8065820173808 26.203004018862
1173 20 36.676864952514 24.1879389665483
$EndNodes
$Elements
1063
1 2 2 1 1 847 980 931 
2 2 2 1 1 871 947 904 
3 2 2 1 1 827 937 915 
4 2 2 1 1 840 990 756 
5 2 2 1 1 958 989 963 
6 2 2 1 1 964 981 941 
7 2 2 1 1 946 952 900 
8 2 2 1 1 879 899 831 
9 2 2 1 1 489 573 410 
10 2 2 1 1 646 809 732 
11 2 2 1 1 673 761 681 
12 2 2 1 1 586 651 574 
13 2 2 1 1 875 898 743 
14 2 2 1 1 833 945 875 
15 2 2 1 1 753 833 809 
16 2 2 1 1 938 974 895 
17 2 2 1 1 976 988 814 
18 2 2 1 1 14 322 239 
19 2 2 1 1 960 983 961 
20 3 2 1 1 39 296 207 38
21 3 2 1 1 93 302 227 92
22 3 2 1 1 216 302 93 94
23 3 2 1 1 92 227 189 91
24 3 2 1 1 37 216 94 10
25 3 2 1 1 207 216 37 38
26 3 2 1 1 349 291 218 394
27 3 2 1 1 90 91 189 293
28 3 2 1 1 187 296 39 40
29 3 2 1 1 219 160 246 380
30 3 2 1 1 170 89 90 293
31 3 2 1 1 312 394 218 212
32 3 2 1 1 41 297 187 40
33 3 2 1 1 217 297 41 42
34 3 2 1 1 165 217 42 43
35 3 2 1 1 194 83 84 211
36 3 2 1 1 165 43 44 291
37 3 2 1 1 100 304 181 99
38 3 2 1 1 252 165 291 349
39 3 2 1 1 422 481 252 349
40 3 2 1 1 181 396 353 303
41 3 2 1 1 215 102 103 294
42 3 2 1 1 174 294 103 104
43 3 2 1 1 182 101 102 215
44 3 2 1 1 30 29 192 198
45 3 2 1 1 182 304 100 101
46 3 2 1 1 218 291 44 45
47 3 2 1 1 98 303 228 97
48 3 2 1 1 207 398 302 216
49 3 2 1 1 181 303 98 99
50 3 2 1 1 397 398 207 296
51 3 2 1 1 97 228 190 96
52 3 2 1 1 190 223 95 96
53 3 2 1 1 190 311 222 223
54 3 2 1 1 188 224 66 67
55 3 2 1 1 161 54 55 292
56 3 2 1 1 263 393 293 189
57 3 2 1 1 69 301 225 68
58 3 2 1 1 167 301 69 70
59 3 2 1 1 292 55 56 221
60 3 2 1 1 68 225 188 67
61 3 2 1 1 262 177 307 346
62 3 2 1 1 476 402 257 554
63 3 2 1 1 257 402 304 182
64 3 2 1 1 440 562 260 406
65 3 2 1 1 61 62 184 285
66 3 2 1 1 66 224 152 12
67 3 2 1 1 65 223 222 64
68 3 2 1 1 95 223 65 11
69 3 2 1 1 63 300 184 62
70 3 2 1 1 222 300 63 64
71 3 2 1 1 78 79 206 157
72 3 2 1 1 252 399 217 165
73 3 2 1 1 188 310 234 224
74 3 2 1 1 351 398 397 480
75 3 2 1 1 257 182 215 391
76 3 2 1 1 48 287 164 47
77 3 2 1 1 48 49 219 287
78 3 2 1 1 351 480 478 263
79 3 2 1 1 49 50 160 219
80 3 2 1 1 719 644 720 795
81 3 2 1 1 51 298 160 50
82 3 2 1 1 220 298 51 52
83 3 2 1 1 644 719 642 523
84 3 2 1 1 354 404 401 436
85 3 2 1 1 161 299 53 54
86 3 2 1 1 53 299 220 52
87 3 2 1 1 167 70 71 226
88 3 2 1 1 401 404 306 230
89 3 2 1 1 232 308 140 141
90 3 2 1 1 523 479 560 644
91 3 2 1 1 180 232 141 142
92 3 2 1 1 644 560 522 720
93 3 2 1 1 311 403 300 222
94 3 2 1 1 158 110 111 201
95 3 2 1 1 246 160 298 395
96 3 2 1 1 302 398 351 227
97 3 2 1 1 304 402 396 181
98 3 2 1 1 306 404 305 208
99 3 2 1 1 185 286 148 149
100 3 2 1 1 305 404 354 229
101 3 2 1 1 397 350 479 480
102 3 2 1 1 399 252 481 522
103 3 2 1 1 150 309 185 149
104 3 2 1 1 374 299 161 325
105 3 2 1 1 234 309 150 151
106 3 2 1 1 482 399 522 560
107 3 2 1 1 8 236 196 35
108 3 2 1 1 501 643 481 422
109 3 2 1 1 309 234 310 386
110 3 2 1 1 479 350 482 560
111 3 2 1 1 403 311 400 475
112 3 2 1 1 338 185 309 386
113 3 2 1 1 224 234 151 152
114 3 2 1 1 310 188 225 382
115 3 2 1 1 479 523 478 480
116 3 2 1 1 424 396 402 476
117 3 2 1 1 643 720 522 481
118 3 2 1 1 260 405 232 180
119 3 2 1 1 140 308 179 139
120 3 2 1 1 170 392 348 289
121 3 2 1 1 175 118 119 284
122 3 2 1 1 119 120 176 284
123 3 2 1 1 263 189 227 351
124 3 2 1 1 121 229 176 120
125 3 2 1 1 208 305 122 123
126 3 2 1 1 122 305 229 121
127 3 2 1 1 124 208 123 13
128 3 2 1 1 125 306 208 124
129 3 2 1 1 230 306 125 126
130 3 2 1 1 177 230 126 127
131 3 2 1 1 128 307 177 127
132 3 2 1 1 231 307 128 129
133 3 2 1 1 191 237 19 1
134 3 2 1 1 228 400 311 190
135 3 2 1 1 350 397 296 187
136 3 2 1 1 229 354 258 176
137 3 2 1 1 393 263 478 561
138 3 2 1 1 392 393 561 425
139 3 2 1 1 399 482 297 217
140 3 2 1 1 297 482 350 187
141 3 2 1 1 353 400 228 303
142 3 2 1 1 262 401 230 177
143 3 2 1 1 138 139 179 278
144 3 2 1 1 293 393 392 170
145 3 2 1 1 523 642 561 478
146 3 2 1 1 308 352 457 179
147 3 2 1 1 232 405 352 308
148 3 2 1 1 260 562 441 405
149 3 2 1 1 352 405 441 519
150 3 2 1 1 391 215 294 339
151 3 2 1 1 164 212 46 47
152 3 2 1 1 212 218 45 46
153 3 2 1 1 164 251 312 212
154 3 2 1 1 233 313 143 144
155 3 2 1 1 233 355 406 313
156 3 2 1 1 214 289 348 389
157 3 2 1 1 313 180 142 143
158 3 2 1 1 211 84 85 283
159 3 2 1 1 392 425 559 348
160 3 2 1 1 554 257 391 439
161 3 2 1 1 250 163 288 387
162 3 2 1 1 561 642 594 425
163 3 2 1 1 171 113 114 205
164 3 2 1 1 260 180 313 406
165 3 2 1 1 439 391 339 548
166 3 2 1 1 213 221 56 57
167 3 2 1 1 106 183 290 105
168 3 2 1 1 174 104 105 290
169 3 2 1 1 559 425 594 716
170 3 2 1 1 148 286 210 147
171 3 2 1 1 89 170 289 88
172 3 2 1 1 210 295 146 147
173 3 2 1 1 438 440 406 355
174 3 2 1 1 146 295 172 145
175 3 2 1 1 642 719 797 594
176 3 2 1 1 214 87 88 289
177 3 2 1 1 85 86 162 283
178 3 2 1 1 286 185 338 385
179 3 2 1 1 59 288 163 58
180 3 2 1 1 209 288 59 60
181 3 2 1 1 209 60 61 285
182 3 2 1 1 348 559 421 389
183 3 2 1 1 640 421 559 716
184 3 2 1 1 57 58 163 213
185 3 2 1 1 144 145 172 233
186 3 2 1 1 162 86 87 214
187 3 2 1 1 213 163 250 314
188 3 2 1 1 214 389 249 162
189 3 2 1 1 389 421 549 249
190 3 2 1 1 256 355 233 172
191 3 2 1 1 172 295 390 256
192 3 2 1 1 355 256 437 438
193 3 2 1 1 390 295 210 477
194 3 2 1 1 477 210 286 385
195 3 2 1 1 429 338 386 472
196 3 2 1 1 472 386 310 382
197 3 2 1 1 300 403 335 184
198 3 2 1 1 285 184 335 388
199 3 2 1 1 475 400 353 551
200 3 2 1 1 335 435 545 388
201 3 2 1 1 390 477 555 556
202 3 2 1 1 176 258 384 284
203 3 2 1 1 173 116 117 282
204 3 2 1 1 335 403 475 435
205 3 2 1 1 387 288 209 474
206 3 2 1 1 551 353 396 424
207 3 2 1 1 474 209 285 388
208 3 2 1 1 556 437 256 390
209 3 2 1 1 282 117 118 175
210 3 2 1 1 552 258 354 436
211 3 2 1 1 383 175 284 384
212 3 2 1 1 641 440 438 558
213 3 2 1 1 162 249 345 283
214 3 2 1 1 556 555 634 635
215 3 2 1 1 339 294 174 473
216 3 2 1 1 401 262 553 436
217 3 2 1 1 555 477 385 550
218 3 2 1 1 166 81 82 281
219 3 2 1 1 287 219 380 377
220 3 2 1 1 551 424 512 547
221 3 2 1 1 258 552 434 384
222 3 2 1 1 632 552 436 553
223 3 2 1 1 424 476 636 512
224 3 2 1 1 795 720 643 767
225 3 2 1 1 438 437 557 558
226 3 2 1 1 710 562 440 641
227 3 2 1 1 206 79 80 275
228 3 2 1 1 637 545 435 547
229 3 2 1 1 473 174 290 376
230 3 2 1 1 547 435 475 551
231 3 2 1 1 550 385 338 429
232 3 2 1 1 247 167 226 373
233 3 2 1 1 167 247 347 301
234 3 2 1 1 382 225 301 347
235 3 2 1 1 471 472 382 347
236 3 2 1 1 384 434 544 383
237 3 2 1 1 858 797 719 795
238 3 2 1 1 281 82 83 194
239 3 2 1 1 594 797 859 716
240 3 2 1 1 437 556 635 557
241 3 2 1 1 552 632 714 434
242 3 2 1 1 205 114 115 276
243 3 2 1 1 521 548 339 473
244 3 2 1 1 377 251 164 287
245 3 2 1 1 636 476 554 605
246 3 2 1 1 178 231 129 130
247 3 2 1 1 421 640 587 549
248 3 2 1 1 433 553 262 346
249 3 2 1 1 346 307 231 378
250 3 2 1 1 665 587 640 796
251 3 2 1 1 605 554 439 639
252 3 2 1 1 796 924 817 665
253 3 2 1 1 767 643 501 717
254 3 2 1 1 314 250 328 468
255 3 2 1 1 275 80 81 166
256 3 2 1 1 538 246 395 419
257 3 2 1 1 337 282 175 383
258 3 2 1 1 716 859 796 640
259 3 2 1 1 555 550 629 634
260 3 2 1 1 173 282 337 454
261 3 2 1 1 641 558 715 17
262 3 2 1 1 718 639 439 548
263 3 2 1 1 633 718 548 521
264 3 2 1 1 553 433 626 632
265 3 2 1 1 631 637 547 512
266 3 2 1 1 377 380 464 465
267 3 2 1 1 276 115 116 173
268 3 2 1 1 346 378 428 433
269 3 2 1 1 540 429 472 471
270 3 2 1 1 713 631 512 636
271 3 2 1 1 621 542 430 543
272 3 2 1 1 156 75 76 202
273 3 2 1 1 380 246 538 464
274 3 2 1 1 16 714 632 626
275 3 2 1 1 432 328 250 387
276 3 2 1 1 715 558 557 638
277 3 2 1 1 856 858 795 767
278 3 2 1 1 429 540 629 550
279 3 2 1 1 623 432 520 622
280 3 2 1 1 378 231 178 259
281 3 2 1 1 226 71 72 277
282 3 2 1 1 178 130 131 280
283 3 2 1 1 280 131 132 204
284 3 2 1 1 249 549 470 345
285 3 2 1 1 132 133 193 204
286 3 2 1 1 630 544 434 714
287 3 2 1 1 183 106 107 279
288 3 2 1 1 379 221 213 314
289 3 2 1 1 557 635 712 638
290 3 2 1 1 474 388 545 520
291 3 2 1 1 467 336 518 536
292 3 2 1 1 441 604 701 519
293 3 2 1 1 328 432 623 500
294 3 2 1 1 520 432 387 474
295 3 2 1 1 375 211 283 345
296 3 2 1 1 155 135 136 272
297 3 2 1 1 692 458 526 591
298 3 2 1 1 347 247 423 471
299 3 2 1 1 278 372 460 199
300 3 2 1 1 280 204 341 369
301 3 2 1 1 395 298 220 462
302 3 2 1 1 604 441 562 710
303 3 2 1 1 545 637 622 520
304 3 2 1 1 543 430 332 627
305 3 2 1 1 312 430 542 394
306 3 2 1 1 422 349 394 542
307 3 2 1 1 625 521 473 376
308 3 2 1 1 272 136 137 199
309 3 2 1 1 325 161 292 456
310 3 2 1 1 621 501 422 542
311 3 2 1 1 510 627 332 465
312 3 2 1 1 430 312 251 332
313 3 2 1 1 199 137 138 278
314 3 2 1 1 248 375 420 546
315 3 2 1 1 203 73 74 274
316 3 2 1 1 713 636 605 788
317 3 2 1 1 924 796 859 925
318 3 2 1 1 202 76 77 269
319 3 2 1 1 383 544 431 337
320 3 2 1 1 290 183 467 376
321 3 2 1 1 718 633 18 793
322 3 2 1 1 278 179 457 372
323 3 2 1 1 194 211 375 248
324 3 2 1 1 428 378 259 537
325 3 2 1 1 456 292 221 379
326 3 2 1 1 277 72 73 203
327 3 2 1 1 536 625 376 467
328 3 2 1 1 251 377 465 332
329 3 2 1 1 541 626 433 428
330 3 2 1 1 201 111 112 268
331 3 2 1 1 200 108 109 273
332 3 2 1 1 274 74 75 156
333 3 2 1 1 714 16 794 630
334 3 2 1 1 226 277 344 373
335 3 2 1 1 279 107 108 200
336 3 2 1 1 664 793 816 922
337 3 2 1 1 420 375 345 470
338 3 2 1 1 637 631 706 622
339 3 2 1 1 34 316 236 8
340 3 2 1 1 193 133 134 271
341 3 2 1 1 276 173 454 370
342 3 2 1 1 158 201 451 427
343 3 2 1 1 462 220 299 374
344 3 2 1 1 712 739 849 638
345 3 2 1 1 343 281 194 248
346 3 2 1 1 626 541 686 16
347 3 2 1 1 593 702 539 455
348 3 2 1 1 419 533 592 699
349 3 2 1 1 344 277 203 461
350 3 2 1 1 603 468 328 500
351 3 2 1 1 641 17 766 710
352 3 2 1 1 336 467 183 279
353 3 2 1 1 628 470 549 587
354 3 2 1 1 788 605 639 664
355 3 2 1 1 745 701 604 852
356 3 2 1 1 639 718 793 664
357 3 2 1 1 464 538 615 616
358 3 2 1 1 539 423 247 373
359 3 2 1 1 710 766 852 604
360 3 2 1 1 314 468 532 379
361 3 2 1 1 601 540 471 423
362 3 2 1 1 193 255 341 204
363 3 2 1 1 533 618 693 592
364 3 2 1 1 205 276 370 371
365 3 2 1 1 616 510 465 464
366 3 2 1 1 412 341 255 535
367 3 2 1 1 544 630 619 431
368 3 2 1 1 620 457 352 519
369 3 2 1 1 199 460 326 272
370 3 2 1 1 782 706 631 713
371 3 2 1 1 853 788 664 922
372 3 2 1 1 715 638 849 744
373 3 2 1 1 369 259 178 280
374 3 2 1 1 158 427 324 273
375 3 2 1 1 925 859 797 858
376 3 2 1 1 623 709 791 500
377 3 2 1 1 367 274 156 243
378 3 2 1 1 248 546 466 343
379 3 2 1 1 540 601 703 629
380 3 2 1 1 670 603 500 791
381 3 2 1 1 273 109 110 158
382 3 2 1 1 713 788 853 782
383 3 2 1 1 685 633 521 625
384 3 2 1 1 281 343 453 166
385 3 2 1 1 538 419 699 615
386 3 2 1 1 456 379 532 516
387 3 2 1 1 268 112 113 171
388 3 2 1 1 269 77 78 157
389 3 2 1 1 693 618 617 684
390 3 2 1 1 342 529 426 368
391 3 2 1 1 618 533 462 374
392 3 2 1 1 459 624 691 534
393 3 2 1 1 587 665 789 628
394 3 2 1 1 816 793 18 920
395 3 2 1 1 371 242 171 205
396 3 2 1 1 680 717 501 621
397 3 2 1 1 153 316 34 33
398 3 2 1 1 154 267 5 28
399 3 2 1 1 677 598 499 711
400 3 2 1 1 515 454 337 431
401 3 2 1 1 629 703 784 634
402 3 2 1 1 633 685 792 18
403 3 2 1 1 271 134 135 155
404 3 2 1 1 16 686 785 794
405 3 2 1 1 709 623 622 706
406 3 2 1 1 469 537 259 369
407 3 2 1 1 470 628 499 420
408 3 2 1 1 851 17 715 744
409 3 2 1 1 712 635 634 784
410 3 2 1 1 533 419 395 462
411 3 2 1 1 602 515 431 619
412 3 2 1 1 367 461 203 274
413 3 2 1 1 516 617 325 456
414 3 2 1 1 598 546 420 499
415 3 2 1 1 506 597 667 778
416 3 2 1 1 455 539 373 344
417 3 2 1 1 342 275 166 453
418 3 2 1 1 711 499 628 789
419 3 2 1 1 704 532 468 603
420 3 2 1 1 374 325 617 618
421 3 2 1 1 369 341 412 469
422 3 2 1 1 786 620 519 701
423 3 2 1 1 630 794 705 619
424 3 2 1 1 365 268 171 242
425 3 2 1 1 600 698 536 518
426 3 2 1 1 458 535 255 366
427 3 2 1 1 769 677 711 850
428 3 2 1 1 457 620 517 372
429 3 2 1 1 423 539 702 601
430 3 2 1 1 625 536 698 685
431 3 2 1 1 368 206 275 342
432 3 2 1 1 343 466 514 453
433 3 2 1 1 706 782 824 709
434 3 2 1 1 206 368 245 157
435 3 2 1 1 527 455 344 461
436 3 2 1 1 273 324 450 200
437 3 2 1 1 498 326 460 614
438 3 2 1 1 620 786 700 517
439 3 2 1 1 707 775 624 502
440 3 2 1 1 529 342 453 514
441 3 2 1 1 487 563 381 244
442 3 2 1 1 24 168 270 25
443 3 2 1 1 365 451 201 268
444 3 2 1 1 826 786 701 745
445 3 2 1 1 455 527 708 593
446 3 2 1 1 18 792 854 920
447 3 2 1 1 754 684 585 845
448 3 2 1 1 484 333 168 317
449 3 2 1 1 599 541 428 537
450 3 2 1 1 537 469 613 599
451 3 2 1 1 697 531 411 580
452 3 2 1 1 764 704 603 670
453 3 2 1 1 531 242 371 411
454 3 2 1 1 336 450 611 518
455 3 2 1 1 563 610 446 381
456 3 2 1 1 614 460 372 517
457 3 2 1 1 757 848 593 708
458 3 2 1 1 336 279 200 450
459 3 2 1 1 370 530 411 371
460 3 2 1 1 272 326 449 155
461 3 2 1 1 684 617 516 585
462 3 2 1 1 704 764 845 585
463 3 2 1 1 619 705 663 602
464 3 2 1 1 709 824 919 791
465 3 2 1 1 530 370 454 515
466 3 2 1 1 366 271 155 449
467 3 2 1 1 696 466 546 598
468 3 2 1 1 784 703 765 841
469 3 2 1 1 590 514 466 696
470 3 2 1 1 532 704 585 516
471 3 2 1 1 527 461 367 413
472 3 2 1 1 157 245 364 269
473 3 2 1 1 3 317 168 24
474 3 2 1 1 541 599 787 686
475 3 2 1 1 243 534 413 367
476 3 2 1 1 235 26 25 270
477 3 2 1 1 531 697 612 447
478 3 2 1 1 762 696 598 677
479 3 2 1 1 844 700 786 826
480 3 2 1 1 645 721 563 487
481 3 2 1 1 702 593 848 765
482 3 2 1 1 765 703 601 702
483 3 2 1 1 708 578 855 757
484 3 2 1 1 4 195 315 27
485 3 2 1 1 580 411 530 695
486 3 2 1 1 678 787 599 613
487 3 2 1 1 841 739 712 784
488 3 2 1 1 721 776 610 563
489 3 2 1 1 783 792 685 698
490 3 2 1 1 665 817 923 789
491 3 2 1 1 366 255 193 271
492 3 2 1 1 667 758 874 914
493 3 2 1 1 613 506 778 678
494 3 2 1 1 891 925 858 856
495 3 2 1 1 509 333 484 648
496 3 2 1 1 894 824 782 853
497 3 2 1 1 600 689 742 843
498 3 2 1 1 506 613 469 412
499 3 2 1 1 767 717 857 856
500 3 2 1 1 653 509 666 799
501 3 2 1 1 787 678 918 825
502 3 2 1 1 669 614 517 700
503 3 2 1 1 698 600 843 783
504 3 2 1 1 891 971 970 968
505 3 2 1 1 779 612 697 749
506 3 2 1 1 792 783 834 854
507 3 2 1 1 728 606 442 571
508 3 2 1 1 920 854 952 966
509 3 2 1 1 323 153 253 452
510 3 2 1 1 846 705 794 785
511 3 2 1 1 778 667 914 814
512 3 2 1 1 749 697 580 839
513 3 2 1 1 242 531 447 365
514 3 2 1 1 7 253 153 33
515 3 2 1 1 240 407 315 195
516 3 2 1 1 588 513 447 612
517 3 2 1 1 925 891 968 924
518 3 2 1 1 597 506 412 535
519 3 2 1 1 695 760 839 580
520 3 2 1 1 515 602 695 530
521 3 2 1 1 264 31 30 198
522 3 2 1 1 913 834 783 843
523 3 2 1 1 758 667 597 692
524 3 2 1 1 814 918 678 778
525 3 2 1 1 535 458 692 597
526 3 2 1 1 666 509 648 805
527 3 2 1 1 333 488 270 168
528 3 2 1 1 825 785 686 787
529 3 2 1 1 568 414 357 407
530 3 2 1 1 570 649 507 331
531 3 2 1 1 730 579 414 568
532 3 2 1 1 444 329 448 505
533 3 2 1 1 789 923 850 711
534 3 2 1 1 722 507 649 798
535 3 2 1 1 972 916 740 877
536 3 2 1 1 330 496 452 253
537 3 2 1 1 843 742 897 913
538 3 2 1 1 799 666 818 929
539 3 2 1 1 966 985 816 920
540 3 2 1 1 648 484 507 722
541 3 2 1 1 750 663 705 846
542 3 2 1 1 968 970 934 967
543 3 2 1 1 365 447 513 451
544 3 2 1 1 449 326 498 526
545 3 2 1 1 760 695 602 663
546 3 2 1 1 740 820 733 657
547 3 2 1 1 611 450 324 495
548 3 2 1 1 578 708 527 413
549 3 2 1 1 884 962 757 855
550 3 2 1 1 971 891 856 857
551 3 2 1 1 202 340 243 156
552 3 2 1 1 836 742 689 780
553 3 2 1 1 930 870 970 971
554 3 2 1 1 616 682 781 510
555 3 2 1 1 340 202 269 364
556 3 2 1 1 526 458 366 449
557 3 2 1 1 331 507 484 317
558 3 2 1 1 803 867 661 584
559 3 2 1 1 413 534 691 578
560 3 2 1 1 679 790 543 627
561 3 2 1 1 749 893 823 779
562 3 2 1 1 805 648 722 862
563 3 2 1 1 804 872 736 583
564 3 2 1 1 830 760 663 750
565 3 2 1 1 863 933 776 721
566 3 2 1 1 488 356 235 270
567 3 2 1 1 779 823 912 674
568 3 2 1 1 494 659 735 564
569 3 2 1 1 154 28 27 315
570 3 2 1 1 802 581 660 864
571 3 2 1 1 17 851 921 766
572 3 2 1 1 26 235 195 4
573 3 2 1 1 583 736 731 496
574 3 2 1 1 845 964 941 754
575 3 2 1 1 244 381 198 192
576 3 2 1 1 452 647 494 323
577 3 2 1 1 965 919 824 894
578 3 2 1 1 689 600 518 611
579 3 2 1 1 723 803 584 497
580 3 2 1 1 855 737 932 884
581 3 2 1 1 934 970 870 806
582 3 2 1 1 357 154 315 407
583 3 2 1 1 459 534 243 340
584 3 2 1 1 759 837 707 672
585 3 2 1 1 873 747 579 730
586 3 2 1 1 235 356 240 195
587 3 2 1 1 753 683 835 931
588 3 2 1 1 502 624 459 416
589 3 2 1 1 700 844 774 669
590 3 2 1 1 496 731 647 452
591 3 2 1 1 785 825 892 846
592 3 2 1 1 416 364 245 528
593 3 2 1 1 907 852 766 921
594 3 2 1 1 340 364 416 459
595 3 2 1 1 317 3 254 331
596 3 2 1 1 836 780 688 741
597 3 2 1 1 679 627 510 781
598 3 2 1 1 331 254 490 570
599 3 2 1 1 356 571 442 240
600 3 2 1 1 511 671 800 650
601 3 2 1 1 765 848 890 841
602 3 2 1 1 589 426 529 694
603 3 2 1 1 761 673 870 930
604 3 2 1 1 841 890 957 739
605 3 2 1 1 191 261 321 237
606 3 2 1 1 368 426 528 245
607 3 2 1 1 621 543 790 680
608 3 2 1 1 267 154 357 485
609 3 2 1 1 612 779 674 588
610 3 2 1 1 852 907 906 745
611 3 2 1 1 446 264 198 381
612 3 2 1 1 726 866 902 804
613 3 2 1 1 728 571 653 799
614 3 2 1 1 752 690 669 774
615 3 2 1 1 726 804 583 567
616 3 2 1 1 567 583 496 330
617 3 2 1 1 673 586 806 870
618 3 2 1 1 922 816 985 955
619 3 2 1 1 887 849 739 957
620 3 2 1 1 731 808 662 647
621 3 2 1 1 653 571 356 488
622 3 2 1 1 691 624 775 737
623 3 2 1 1 955 894 853 922
624 3 2 1 1 893 749 839 908
625 3 2 1 1 880 762 677 769
626 3 2 1 1 815 670 791 919
627 3 2 1 1 509 653 488 333
628 3 2 1 1 318 330 253 7
629 3 2 1 1 940 842 762 880
630 3 2 1 1 442 568 407 240
631 3 2 1 1 930 971 857 777
632 3 2 1 1 659 494 647 662
633 3 2 1 1 692 591 838 758
634 3 2 1 1 899 774 844 903
635 3 2 1 1 826 905 903 844
636 3 2 1 1 735 659 746 881
637 3 2 1 1 804 902 961 872
638 3 2 1 1 967 817 924 968
639 3 2 1 1 848 757 962 890
640 3 2 1 1 867 803 901 953
641 3 2 1 1 511 334 446 610
642 3 2 1 1 846 892 958 750
643 3 2 1 1 834 913 979 900
644 3 2 1 1 3 23 197 254
645 3 2 1 1 864 660 738 883
646 3 2 1 1 771 835 683 595
647 3 2 1 1 905 906 821 933
648 3 2 1 1 905 826 745 906
649 3 2 1 1 876 777 680 790
650 3 2 1 1 610 776 671 511
651 3 2 1 1 817 967 959 923
652 3 2 1 1 930 777 876 761
653 3 2 1 1 737 855 578 691
654 3 2 1 1 736 813 808 731
655 3 2 1 1 159 266 6 5
656 3 2 1 1 654 733 738 660
657 3 2 1 1 896 764 670 815
658 3 2 1 1 872 882 813 736
659 3 2 1 1 29 6 266 192
660 3 2 1 1 777 857 717 680
661 3 2 1 1 267 485 448 329
662 3 2 1 1 606 730 568 442
663 3 2 1 1 696 762 842 590
664 3 2 1 1 528 426 589 608
665 3 2 1 1 751 694 590 842
666 3 2 1 1 581 802 734 525
667 3 2 1 1 9 186 265 1
668 3 2 1 1 906 907 888 821
669 3 2 1 1 726 567 483 650
670 3 2 1 1 671 821 888 800
671 3 2 1 1 237 321 408 238
672 3 2 1 1 869 934 806 727
673 3 2 1 1 878 939 829 810
674 3 2 1 1 5 267 329 159
675 3 2 1 1 838 591 690 752
676 3 2 1 1 909 747 873 917
677 3 2 1 1 881 915 937 768
678 3 2 1 1 608 502 416 528
679 3 2 1 1 588 674 741 688
680 3 2 1 1 237 238 20 19
681 3 2 1 1 514 590 694 529
682 3 2 1 1 485 357 414 576
683 3 2 1 1 882 872 961 983
684 3 2 1 1 586 15 727 806
685 3 2 1 1 746 659 662 868
686 3 2 1 1 362 191 1 265
687 3 2 1 1 929 818 979 978
688 3 2 1 1 497 418 582 723
689 3 2 1 1 690 591 526 498
690 3 2 1 1 849 887 960 744
691 3 2 1 1 564 735 658 566
692 3 2 1 1 865 728 799 929
693 3 2 1 1 323 494 564 491
694 3 2 1 1 491 564 566 358
695 3 2 1 1 908 839 760 830
696 3 2 1 1 748 873 730 606
697 3 2 1 1 725 595 577 508
698 3 2 1 1 495 324 427 609
699 3 2 1 1 443 408 321 492
700 3 2 1 1 32 31 264 169
701 3 2 1 1 505 448 575 654
702 3 2 1 1 721 645 801 863
703 3 2 1 1 169 318 7 32
704 3 2 1 1 969 916 893 908
705 3 2 1 1 498 614 669 690
706 3 2 1 1 236 316 491 358
707 3 2 1 1 463 261 191 362
708 3 2 1 1 959 967 934 869
709 3 2 1 1 362 265 486 524
710 3 2 1 1 923 959 904 850
711 3 2 1 1 615 699 847 763
712 3 2 1 1 323 491 316 153
713 3 2 1 1 492 321 261 327
714 3 2 1 1 907 921 956 888
715 3 2 1 1 451 513 609 427
716 3 2 1 1 615 763 682 616
717 3 2 1 1 949 812 885 986
718 3 2 1 1 911 746 868 973
719 3 2 1 1 415 241 358 566
720 3 2 1 1 655 443 492 577
721 3 2 1 1 978 979 913 897
722 3 2 1 1 505 654 660 581
723 3 2 1 1 943 874 758 838
724 3 2 1 1 938 748 865 974
725 3 2 1 1 652 687 569 493
726 3 2 1 1 21 20 238 320
727 3 2 1 1 866 726 650 800
728 3 2 1 1 942 976 939 878
729 3 2 1 1 840 754 941 948
730 3 2 1 1 576 414 579 729
731 3 2 1 1 675 773 652 503
732 3 2 1 1 900 952 854 834
733 3 2 1 1 21 320 239 2
734 3 2 1 1 657 575 576 729
735 3 2 1 1 658 768 675 503
736 3 2 1 1 889 830 750 958
737 3 2 1 1 684 754 840 693
738 3 2 1 1 244 363 417 487
739 3 2 1 1 485 576 575 448
740 3 2 1 1 655 724 565 443
741 3 2 1 1 822 741 674 912
742 3 2 1 1 943 838 752 879
743 3 2 1 1 776 933 821 671
744 3 2 1 1 565 359 408 443
745 3 2 1 1 899 903 863 801
746 3 2 1 1 503 415 566 658
747 3 2 1 1 358 241 196 236
748 3 2 1 1 919 965 954 815
749 3 2 1 1 886 851 744 960
750 3 2 1 1 865 929 978 974
751 3 2 1 1 811 928 831 676
752 3 2 1 1 238 408 359 320
753 3 2 1 1 654 575 657 733
754 3 2 1 1 502 608 672 707
755 3 2 1 1 903 905 933 863
756 3 2 1 1 733 820 910 738
757 3 2 1 1 676 504 656 811
758 3 2 1 1 741 822 895 836
759 3 2 1 1 483 334 511 650
760 3 2 1 1 261 463 574 327
761 3 2 1 1 938 917 873 748
762 3 2 1 1 807 869 727 596
763 3 2 1 1 360 486 265 186
764 3 2 1 1 911 973 837 759
765 3 2 1 1 661 812 798 649
766 3 2 1 1 823 972 909 912
767 3 2 1 1 584 661 649 570
768 3 2 1 1 756 847 699 592
769 3 2 1 1 818 946 900 979
770 3 2 1 1 881 768 658 735
771 3 2 1 1 965 986 885 954
772 3 2 1 1 445 363 266 159
773 3 2 1 1 445 572 417 363
774 3 2 1 1 169 334 483 318
775 3 2 1 1 589 694 751 772
776 3 2 1 1 581 525 444 505
777 3 2 1 1 611 495 780 689
778 3 2 1 1 679 770 876 790
779 3 2 1 1 186 9 36 319
780 3 2 1 1 723 582 743 860
781 3 2 1 1 609 513 588 688
782 3 2 1 1 729 877 740 657
783 3 2 1 1 969 889 910 820
784 3 2 1 1 577 492 327 508
785 3 2 1 1 772 827 759 672
786 3 2 1 1 897 742 836 895
787 3 2 1 1 883 738 910 963
788 3 2 1 1 36 35 196 319
789 3 2 1 1 751 842 940 935
790 3 2 1 1 772 672 608 589
791 3 2 1 1 901 964 896 953
792 3 2 1 1 595 683 655 577
793 3 2 1 1 812 661 867 885
794 3 2 1 1 504 645 487 417
795 3 2 1 1 572 656 504 417
796 3 2 1 1 862 722 798 926
797 3 2 1 1 486 360 569 607
798 3 2 1 1 956 866 800 888
799 3 2 1 1 775 707 837 819
800 3 2 1 1 915 881 746 911
801 3 2 1 1 497 584 570 490
802 3 2 1 1 987 884 932 975
803 3 2 1 1 764 896 964 845
804 3 2 1 1 984 957 890 962
805 3 2 1 1 969 908 830 889
806 3 2 1 1 682 763 835 771
807 3 2 1 1 869 807 904 959
808 3 2 1 1 812 949 926 798
809 3 2 1 1 886 960 961 902
810 3 2 1 1 729 579 747 877
811 3 2 1 1 524 486 607 596
812 3 2 1 1 819 932 737 775
813 3 2 1 1 748 606 728 865
814 3 2 1 1 818 666 805 946
815 3 2 1 1 868 662 808 936
816 3 2 1 1 810 734 802 878
817 3 2 1 1 327 574 651 508
818 3 2 1 1 688 780 495 609
819 3 2 1 1 927 973 868 936
820 3 2 1 1 652 493 415 503
821 3 2 1 1 572 525 734 656
822 3 2 1 1 829 874 943 928
823 3 2 1 1 811 810 829 928
824 3 2 1 1 567 330 318 483
825 3 2 1 1 656 734 810 811
826 3 2 1 1 949 985 966 926
827 3 2 1 1 743 582 732 875
828 3 2 1 1 755 871 668 687
829 3 2 1 1 14 239 320 359
830 3 2 1 1 582 418 573 732
831 3 2 1 1 607 569 687 668
832 3 2 1 1 774 899 879 752
833 3 2 1 1 683 753 724 655
834 3 2 1 1 159 329 444 445
835 3 2 1 1 781 682 771 861
836 3 2 1 1 935 827 772 751
837 3 2 1 1 668 807 596 607
838 3 2 1 1 975 932 819 927
839 3 2 1 1 763 847 931 835
840 3 2 1 1 822 917 938 895
841 3 2 1 1 197 23 22 322
842 3 2 1 1 972 823 893 916
843 3 2 1 1 771 595 725 861
844 3 2 1 1 952 862 926 966
845 3 2 1 1 984 962 884 987
846 3 2 1 1 22 2 239 322
847 3 2 1 1 361 490 254 197
848 3 2 1 1 363 244 192 266
849 3 2 1 1 991 887 957 984
850 3 2 1 1 965 894 955 986
851 3 2 1 1 596 727 15 524
852 3 2 1 1 977 892 825 918
853 3 2 1 1 916 969 820 740
854 3 2 1 1 645 504 676 801
855 3 2 1 1 983 960 887 991
856 3 2 1 1 768 937 828 675
857 3 2 1 1 687 652 773 755
858 3 2 1 1 987 982 991 984
859 3 2 1 1 264 446 334 169
860 3 2 1 1 725 681 770 861
861 3 2 1 1 755 944 947 871
862 3 2 1 1 837 973 927 819
863 3 2 1 1 756 592 693 840
864 3 2 1 1 864 942 878 802
865 3 2 1 1 361 197 322 410
866 3 2 1 1 877 747 909 972
867 3 2 1 1 759 827 915 911
868 3 2 1 1 809 646 724 753
869 3 2 1 1 410 322 14 489
870 3 2 1 1 950 813 882 982
871 3 2 1 1 15 586 574 463
872 3 2 1 1 646 489 565 724
873 3 2 1 1 886 956 921 851
874 3 2 1 1 936 808 813 950
875 3 2 1 1 418 361 410 573
876 3 2 1 1 940 832 828 935
877 3 2 1 1 646 732 573 489
878 3 2 1 1 977 988 951 989
879 3 2 1 1 463 362 524 15
880 3 2 1 1 956 886 902 866
881 3 2 1 1 981 860 743 898
882 3 2 1 1 651 586 673 681
883 3 2 1 1 988 977 918 814
884 3 2 1 1 319 196 241 409
885 3 2 1 1 508 651 681 725
886 3 2 1 1 809 833 875 732
887 3 2 1 1 319 409 360 186
888 3 2 1 1 954 953 896 815
889 3 2 1 1 761 876 770 681
890 3 2 1 1 860 901 803 723
891 3 2 1 1 988 976 942 951
892 3 2 1 1 489 14 359 565
893 3 2 1 1 490 361 418 497
894 3 2 1 1 945 948 898 875
895 3 2 1 1 880 944 832 940
896 3 2 1 1 983 991 982 882
897 3 2 1 1 931 980 833 753
898 3 2 1 1 936 950 975 927
899 3 2 1 1 985 949 986 955
900 3 2 1 1 889 958 963 910
901 3 2 1 1 912 909 917 822
902 3 2 1 1 987 975 950 982
903 3 2 1 1 883 951 942 864
904 3 2 1 1 980 847 756 990
905 3 2 1 1 874 829 939 914
906 3 2 1 1 832 944 755 773
907 3 2 1 1 951 883 963 989
908 3 2 1 1 941 981 898 948
909 3 2 1 1 773 675 828 832
910 3 2 1 1 885 867 953 954
911 3 2 1 1 525 572 445 444
912 3 2 1 1 947 769 850 904
913 3 2 1 1 935 828 937 827
914 3 2 1 1 944 880 769 947
915 3 2 1 1 980 990 945 833
916 3 2 1 1 493 409 241 415
917 3 2 1 1 831 899 801 676
918 3 2 1 1 981 964 901 860
919 3 2 1 1 879 831 928 943
920 3 2 1 1 871 904 807 668
921 3 2 1 1 861 770 679 781
922 3 2 1 1 974 978 897 895
923 3 2 1 1 914 939 976 814
924 3 2 1 1 948 945 990 840
925 3 2 1 1 862 952 946 805
926 3 2 1 1 989 958 892 977
927 3 2 1 1 569 360 409 493
928 2 2 2 2 1028 1036 1033 
929 2 2 2 2 1026 1031 1021 
930 2 2 2 2 1031 1032 1015 
931 3 2 2 2 1016 1008 1009 1022
932 3 2 2 2 996 1011 1023 1010
933 3 2 2 2 1022 1009 1010 1023
934 3 2 2 2 1005 995 1006 1024
935 3 2 2 2 1004 1005 1024 1017
936 3 2 2 2 1023 1011 1012 1030
937 3 2 2 2 1028 1022 1023 1030
938 3 2 2 2 1030 1012 1013 1018
939 3 2 2 2 1003 1004 1017 1020
940 3 2 2 2 1025 1001 994 1002
941 3 2 2 2 1002 1003 1020 1025
942 3 2 2 2 1019 1027 1035 1018
943 3 2 2 2 1028 1030 1018 1035
944 3 2 2 2 992 997 1019 1014
945 3 2 2 2 1018 1013 1014 1019
946 3 2 2 2 1026 1021 1025 1020
947 3 2 2 2 1021 1000 1001 1025
948 3 2 2 2 1019 997 998 1027
949 3 2 2 2 999 1015 1027 998
950 3 2 2 2 1020 1017 1034 1026
951 3 2 2 2 1028 1033 1016 1022
952 3 2 2 2 1027 1015 1032 1035
953 3 2 2 2 993 1000 1021 1031
954 3 2 2 2 1024 1006 1007 1029
955 3 2 2 2 1017 1024 1029 1034
956 3 2 2 2 1007 1008 1016 1029
957 3 2 2 2 993 1031 1015 999
958 3 2 2 2 1026 1036 1032 1031
959 3 2 2 2 1035 1032 1036 1028
960 3 2 2 2 1036 1026 1034 1033
961 3 2 2 2 1029 1016 1033 1034
962 2 2 3 3 1061 1078 1072 
963 2 2 3 3 1071 1082 1077 
964 2 2 3 3 1073 1083 1079 
965 3 2 3 3 1068 1048 1047 1064
966 3 2 3 3 1040 1050 1063 1059
967 3 2 3 3 1054 1041 1055 1069
968 3 2 3 3 1053 1054 1069 1062
969 3 2 3 3 1074 1058 1059 1063
970 3 2 3 3 1070 1046 1039 1051
971 3 2 3 3 1063 1050 1049 1073
972 3 2 3 3 1052 1053 1062 1065
973 3 2 3 3 1051 1052 1065 1070
974 3 2 3 3 1067 1045 1046 1070
975 3 2 3 3 1042 1064 1047 1037
976 3 2 3 3 1073 1049 1048 1068
977 3 2 3 3 1069 1055 1056 1072
978 3 2 3 3 1072 1056 1057 1061
979 3 2 3 3 1044 1060 1075 1043
980 3 2 3 3 1042 1043 1075 1064
981 3 2 3 3 1062 1069 1072 1080
982 3 2 3 3 1045 1067 1066 1038
983 3 2 3 3 1038 1066 1060 1044
984 3 2 3 3 1076 1067 1070 1065
985 3 2 3 3 1061 1057 1058 1074
986 3 2 3 3 1083 1082 1078 1079
987 3 2 3 3 1065 1062 1080 1076
988 3 2 3 3 1078 1082 1080 1072
989 3 2 3 3 1060 1077 1081 1075
990 3 2 3 3 1060 1066 1071 1077
991 3 2 3 3 1078 1061 1074 1079
992 3 2 3 3 1064 1075 1081 1068
993 3 2 3 3 1068 1081 1083 1073
994 3 2 3 3 1076 1071 1066 1067
995 3 2 3 3 1083 1081 1077 1082
996 3 2 3 3 1080 1082 1071 1076
997 3 2 3 3 1079 1074 1063 1073
998 3 2 4 4 1124 1125 1118 1123
999 3 2 4 4 1090 1114 1106 1089
1000 3 2 4 4 1094 1119 1109 1095
1001 3 2 4 4 1100 1111 1107 1099
1002 3 2 4 4 1106 1114 1125 1120
1003 3 2 4 4 1124 1121 1120 1125
1004 3 2 4 4 1084 1085 1113 1093
1005 3 2 4 4 1089 1106 1113 1085
1006 3 2 4 4 1105 1087 1096 1112
1007 3 2 4 4 1091 1115 1114 1090
1008 3 2 4 4 1092 1116 1115 1091
1009 3 2 4 4 1086 1097 1116 1092
1010 3 2 4 4 1088 1101 1111 1100
1011 3 2 4 4 1123 1118 1110 1107
1012 3 2 4 4 1109 1121 1122 1112
1013 3 2 4 4 1093 1113 1119 1094
1014 3 2 4 4 1112 1096 1095 1109
1015 3 2 4 4 1099 1107 1110 1098
1016 3 2 4 4 1097 1098 1110 1116
1017 3 2 4 4 1117 1111 1101 1102
1018 3 2 4 4 1122 1108 1103 1104
1019 3 2 4 4 1122 1104 1105 1112
1020 3 2 4 4 1120 1119 1113 1106
1021 3 2 4 4 1117 1123 1107 1111
1022 3 2 4 4 1115 1116 1110 1118
1023 3 2 4 4 1125 1114 1115 1118
1024 3 2 4 4 1109 1119 1120 1121
1025 3 2 4 4 1123 1117 1108 1124
1026 3 2 4 4 1121 1124 1108 1122
1027 3 2 4 4 1102 1103 1108 1117
1028 2 2 5 5 1171 1172 1165 
1029 3 2 5 5 1143 1131 1144 1157
1030 3 2 5 5 1142 1143 1157 1151
1031 3 2 5 5 1130 1136 1153 1148
1032 3 2 5 5 1164 1147 1148 1153
1033 3 2 5 5 1153 1136 1137 1161
1034 3 2 5 5 1141 1142 1151 1154
1035 3 2 5 5 1161 1137 1138 1156
1036 3 2 5 5 1149 1162 1135 1134
1037 3 2 5 5 1156 1138 1139 1152
1038 3 2 5 5 1158 1132 1127 1140
1039 3 2 5 5 1140 1141 1154 1158
1040 3 2 5 5 1152 1139 1126 1129
1041 3 2 5 5 1129 1135 1162 1152
1042 3 2 5 5 1159 1155 1158 1154
1043 3 2 5 5 1149 1134 1128 1163
1044 3 2 5 5 1155 1133 1132 1158
1045 3 2 5 5 1154 1151 1166 1159
1046 3 2 5 5 1162 1149 1169 1167
1047 3 2 5 5 1172 1171 1169 1170
1048 3 2 5 5 1166 1160 1165 1172
1049 3 2 5 5 1152 1162 1167 1156
1050 3 2 5 5 1157 1144 1145 1160
1051 3 2 5 5 1160 1145 1146 1150
1052 3 2 5 5 1172 1170 1159 1166
1053 3 2 5 5 1157 1160 1166 1151
1054 3 2 5 5 1128 1133 1155 1163
1055 3 2 5 5 1167 1169 1171 1173
1056 3 2 5 5 1170 1169 1149 1163
1057 3 2 5 5 1165 1164 1168 1171
1058 3 2 5 5 1150 1146 1147 1164
1059 3 2 5 5 1168 1164 1153 1161
1060 3 2 5 5 1159 1170 1163 1155
1061 3 2 5 5 1168 1161 1173 1171
1062 3 2 5 5 1156 1167 1173 1161
1063 3 2 5 5 1150 1164 1165 1160
$EndElements
