$MeshFormat
2.2 0 8
$EndMeshFormat
$Nodes
462
1 0 0 0
2 100 0 0
3 100 200 0
4 0 200 0
5 10 0 0
6 20 0 0
7 30 0 0
8 40 0 0
9 50 0 0
10 60 0 0
11 70 0 0
12 80 0 0
13 90 0 0
14 100 10 0
15 100 20 0
16 100 30 0
17 100 40 0
18 100 50 0
19 100 60 0
20 100 70 0
21 100 80 0
22 100 90 0
23 100 100 0
24 100 110 0
25 100 120 0
26 100 130 0
27 100 140 0
28 100 150 0
29 100 160 0
30 100 170 0
31 100 180 0
32 100 190 0
33 90 200 0
34 80 200 0
35 70 200 0
36 60 200 0
37 50 200 0
38 40 200 0
39 30 200 0
40 20 200 0
41 10 200 0
42 0 190 0
43 0 180 0
44 0 170 0
45 0 160 0
46 0 150 0
47 0 140 0
48 0 130 0
49 0 120 0
50 0 110 0
51 0 100 0
52 0 90 0
53 0 80 0
54 0 70 0
55 0 60 0
56 0 50 0
57 0 40 0
58 0 30 0
59 0 20 0
60 0 10 0
61 10 80 0
62 90 120 0
63 90 60 0
64 10 150 0
65 10 120 0
66 60 10 0
67 10 50 0
68 90 150 0
69 30 190 0
70 40 10 0
71 60 190 0
72 90 170 0
73 9.99999999999999 30 0
74 90 20 0
75 90 80 0
76 10 180 0
77 20 10 0
78 90 190 0
79 10 100 0
80 10 20 0
81 90 100 0
82 80 10 0
83 90 30 0
84 90 40 0
85 70 190 0
86 40 190 0
87 10 70 0
88 90 130 0
89 10 10 0
90 90 10 0
91 10 190 0
92 10 170 0
93 10 140 0
94 20 80 0
95 80 120 0
96 20 150 0
97 30 180 0
98 60 180 0
99 80 30 0
100 90 160 0
101 10 40 0
102 90 90 0
103 10 110 0
104 90 70 0
105 90 110 0
106 10 90 0
107 20 180 0
108 30 10 0
109 70 10 0
110 90 50 0
111 90 180 0
112 80 190 0
113 20 190 0
114 10 130 0
115 80 20 0
116 90 140 0
117 10 160 0
118 10 60 0
119 20 30 0
120 50 10 0
121 50 190 0
122 20 20 0
123 80 60 0
124 80 80 0
125 20 120 0
126 80 170 0
127 50 20 0
128 20 60 0
129 20 40 0
130 20 160 0
131 50 180 0
132 80 140 0
133 70 180 0
134 80 160 0
135 20 90 0
136 80 100 0
137 70 20 0
138 80 40 0
139 20 140 0
140 80 110 0
141 40 20 0
142 30 30 0
143 20 70 0
144 80 180 0
145 20 110 0
146 20 170 0
147 80 130 0
148 30 20 0
149 40 180 0
150 30 80 0
151 70 120 0
152 30 150 0
153 30 110 0
154 30 40 0
155 40 170 0
156 20 50 0
157 50 30 0
158 40 30 0
159 80 70 0
160 30 70 0
161 60 170 0
162 70 170 0
163 80 90 0
164 20 130 0
165 80 50 0
166 30 170 0
167 70 30 0
168 70 110 0
169 60 20 0
170 80 150 0
171 20 100 0
172 70 130 0
173 40 80 0
174 70 60 0
175 70 80 0
176 60 120 0
177 30 60 0
178 30 100 0
179 30 50 0
180 70 40 0
181 60 30 0
182 30 140 0
183 30 120 0
184 50 170 0
185 70 140 0
186 30 90 0
187 30 160 0
188 50 40 0
189 60 160 0
190 70 100 0
191 70 160 0
192 40 40 0
193 40 110 0
194 40 150 0
195 60 40 0
196 50 160 0
197 70 50 0
198 40 90 0
199 40 160 0
200 70 70 0
201 60 150 0
202 40 60 0
203 40 70 0
204 30 130 0
205 70 90 0
206 60 110 0
207 60 130 0
208 40 50 0
209 70 150 0
210 50 80 0
211 50 70 0
212 40 130 0
213 60 50 0
214 60 80 0
215 60 60 0
216 50 120 0
217 50 60 0
218 50 150 0
219 60 140 0
220 40 120 0
221 40 140 0
222 40 100 0
223 50 50 0
224 60 100 0
225 50 90 0
226 50 100 0
227 50 110 0
228 50 130 0
229 60 90 0
230 60 70 0
231 50 140 0
232 500 500 0
233 600 500 0
234 600 700 0
235 500 700 0
236 510 500 0
237 520 500 0
238 530 500 0
239 540 500 0
240 550 500 0
241 560 500 0
242 570 500 0
243 580 500 0
244 590 500 0
245 600 510 0
246 600 520 0
247 600 530 0
248 600 540 0
249 600 550 0
250 600 560 0
251 600 570 0
252 600 580 0
253 600 590 0
254 600 600 0
255 600 610 0
256 600 620 0
257 600 630 0
258 600 640 0
259 600 650 0
260 600 660 0
261 600 670 0
262 600 680 0
263 600 690 0
264 590 700 0
265 580 700 0
266 570 700 0
267 560 700 0
268 550 700 0
269 540 700 0
270 530 700 0
271 520 700 0
272 510 700 0
273 500 690 0
274 500 680 0
275 500 670 0
276 500 660 0
277 500 650 0
278 500 640 0
279 500 630 0
280 500 620 0
281 500 610 0
282 500 600 0
283 500 590 0
284 500 580 0
285 500 570 0
286 500 560 0
287 500 550 0
288 500 540 0
289 500 530 0
290 500 520 0
291 500 510 0
292 590 550 0
293 590 580 0
294 590 610 0
295 590 640 0
296 510 650 0
297 510 620 0
298 510 590 0
299 510 560 0
300 550 510 0
301 550 690 0
302 590 660 0
303 510 540 0
304 530 510 0
305 570 690 0
306 580 510 0
307 520 690 0
308 520 510 0
309 590 690 0
310 510 510 0
311 590 510 0
312 590 520 0
313 590 530 0
314 590 560 0
315 590 590 0
316 510 690 0
317 510 680 0
318 510 670 0
319 510 640 0
320 510 610 0
321 570 510 0
322 530 690 0
323 590 620 0
324 510 580 0
325 590 670 0
326 510 530 0
327 580 550 0
328 580 580 0
329 520 620 0
330 580 610 0
331 520 590 0
332 580 660 0
333 520 540 0
334 590 650 0
335 510 550 0
336 590 600 0
337 510 600 0
338 560 510 0
339 590 570 0
340 540 690 0
341 510 630 0
342 590 630 0
343 510 570 0
344 540 510 0
345 590 540 0
346 590 680 0
347 580 690 0
348 560 690 0
349 510 660 0
350 510 520 0
351 530 520 0
352 580 520 0
353 520 680 0
354 540 680 0
355 560 520 0
356 580 630 0
357 520 570 0
358 580 560 0
359 520 660 0
360 580 670 0
361 580 590 0
362 520 610 0
363 580 530 0
364 580 620 0
365 520 580 0
366 550 680 0
367 520 640 0
368 580 570 0
369 580 640 0
370 520 560 0
371 550 520 0
372 570 680 0
373 520 520 0
374 520 670 0
375 520 530 0
376 540 520 0
377 580 680 0
378 570 520 0
379 530 680 0
380 520 630 0
381 580 600 0
382 580 540 0
383 520 600 0
384 580 650 0
385 520 550 0
386 570 550 0
387 530 580 0
388 570 620 0
389 570 640 0
390 570 570 0
391 530 620 0
392 530 550 0
393 570 590 0
394 550 530 0
395 540 670 0
396 570 530 0
397 530 590 0
398 570 600 0
399 520 650 0
400 570 670 0
401 570 650 0
402 530 540 0
403 560 680 0
404 530 530 0
405 530 570 0
406 530 670 0
407 530 610 0
408 530 640 0
409 540 580 0
410 540 620 0
411 560 640 0
412 560 670 0
413 560 590 0
414 530 650 0
415 570 610 0
416 530 600 0
417 560 530 0
418 570 560 0
419 540 530 0
420 540 550 0
421 570 660 0
422 570 630 0
423 530 660 0
424 570 580 0
425 550 670 0
426 530 630 0
427 570 540 0
428 530 560 0
429 560 550 0
430 560 610 0
431 560 620 0
432 560 570 0
433 540 590 0
434 560 650 0
435 540 610 0
436 540 650 0
437 540 570 0
438 560 600 0
439 560 540 0
440 560 580 0
441 550 540 0
442 540 660 0
443 540 540 0
444 560 630 0
445 560 660 0
446 540 640 0
447 540 630 0
448 540 560 0
449 540 600 0
450 550 560 0
451 550 550 0
452 550 570 0
453 550 590 0
454 550 610 0
455 550 630 0
456 550 650 0
457 550 660 0
458 560 560 0
459 550 580 0
460 550 640 0
461 550 600 0
462 550 620 0
$EndNodes
$Elements
400
1 3 2 1 1 223 188 195 213
2 3 2 1 1 210 214 229 225
3 3 2 1 1 217 215 230 211
4 3 2 1 1 220 216 228 212
5 3 2 1 1 225 229 224 226
6 3 2 1 1 226 224 206 227
7 3 2 1 1 214 210 211 230
8 3 2 1 1 215 217 223 213
9 3 2 1 1 126 144 133 162
10 3 2 1 1 94 143 160 150
11 3 2 1 1 101 73 119 129
12 3 2 1 1 156 179 177 128
13 3 2 1 1 198 186 150 173
14 3 2 1 1 211 210 173 203
15 3 2 1 1 111 144 126 72
16 3 2 1 1 213 197 174 215
17 3 2 1 1 80 122 119 73
18 3 2 1 1 75 102 163 124
19 3 2 1 1 188 157 181 195
20 3 2 1 1 123 159 200 174
21 3 2 1 1 230 215 174 200
22 3 2 1 1 196 199 194 218
23 3 2 1 1 51 52 106 79
24 3 2 1 1 23 24 105 81
25 3 2 1 1 29 30 72 100
26 3 2 1 1 57 58 73 101
27 3 2 1 1 67 101 129 156
28 3 2 1 1 63 123 165 110
29 3 2 1 1 197 180 138 165
30 3 2 1 1 218 194 221 231
31 3 2 1 1 228 207 219 231
32 3 2 1 1 201 218 231 219
33 3 2 1 1 59 60 89 80
34 3 2 1 1 81 105 140 136
35 3 2 1 1 139 164 204 182
36 3 2 1 1 181 167 180 195
37 3 2 1 1 53 61 106 52
38 3 2 1 1 159 123 63 104
39 3 2 1 1 144 112 85 133
40 3 2 1 1 6 7 108 77
41 3 2 1 1 10 11 109 66
42 3 2 1 1 104 63 19 20
43 3 2 1 1 25 62 105 24
44 3 2 1 1 88 26 27 116
45 3 2 1 1 31 32 78 111
46 3 2 1 1 86 38 39 69
47 3 2 1 1 87 54 55 118
48 3 2 1 1 135 106 61 94
49 3 2 1 1 86 69 97 149
50 3 2 1 1 134 100 72 126
51 3 2 1 1 80 89 77 122
52 3 2 1 1 108 148 122 77
53 3 2 1 1 111 78 112 144
54 3 2 1 1 164 139 93 114
55 3 2 1 1 62 95 140 105
56 3 2 1 1 187 130 96 152
57 3 2 1 1 182 152 96 139
58 3 2 1 1 184 161 98 131
59 3 2 1 1 159 124 175 200
60 3 2 1 1 167 181 169 137
61 3 2 1 1 129 154 179 156
62 3 2 1 1 202 203 160 177
63 3 2 1 1 89 5 6 77
64 3 2 1 1 1 5 89 60
65 3 2 1 1 7 8 70 108
66 3 2 1 1 9 120 70 8
67 3 2 1 1 12 82 109 11
68 3 2 1 1 15 16 83 74
69 3 2 1 1 16 17 84 83
70 3 2 1 1 19 63 110 18
71 3 2 1 1 17 18 110 84
72 3 2 1 1 20 21 75 104
73 3 2 1 1 22 23 81 102
74 3 2 1 1 3 33 78 32
75 3 2 1 1 33 34 112 78
76 3 2 1 1 38 86 121 37
77 3 2 1 1 39 40 113 69
78 3 2 1 1 120 66 169 127
79 3 2 1 1 109 137 169 66
80 3 2 1 1 156 128 118 67
81 3 2 1 1 116 68 170 132
82 3 2 1 1 100 134 170 68
83 3 2 1 1 97 69 113 107
84 3 2 1 1 148 108 70 141
85 3 2 1 1 120 127 141 70
86 3 2 1 1 85 71 98 133
87 3 2 1 1 115 82 90 74
88 3 2 1 1 83 99 115 74
89 3 2 1 1 104 75 124 159
90 3 2 1 1 92 146 107 76
91 3 2 1 1 102 81 136 163
92 3 2 1 1 137 109 82 115
93 3 2 1 1 83 84 138 99
94 3 2 1 1 165 138 84 110
95 3 2 1 1 121 86 149 131
96 3 2 1 1 61 87 143 94
97 3 2 1 1 62 88 147 95
98 3 2 1 1 166 155 149 97
99 3 2 1 1 162 133 98 161
100 3 2 1 1 137 115 99 167
101 3 2 1 1 180 167 99 138
102 3 2 1 1 65 103 145 125
103 3 2 1 1 97 107 146 166
104 3 2 1 1 88 116 132 147
105 3 2 1 1 165 123 174 197
106 3 2 1 1 158 141 127 157
107 3 2 1 1 157 127 169 181
108 3 2 1 1 149 155 184 131
109 3 2 1 1 147 132 185 172
110 3 2 1 1 141 158 142 148
111 3 2 1 1 194 199 187 152
112 3 2 1 1 142 158 192 154
113 3 2 1 1 196 184 155 199
114 3 2 1 1 166 187 199 155
115 3 2 1 1 157 188 192 158
116 3 2 1 1 150 160 203 173
117 3 2 1 1 184 196 189 161
118 3 2 1 1 124 163 205 175
119 3 2 1 1 219 207 172 185
120 3 2 1 1 152 182 221 194
121 3 2 1 1 204 212 221 182
122 3 2 1 1 212 204 183 220
123 3 2 1 1 216 220 193 227
124 3 2 1 1 173 210 225 198
125 3 2 1 1 10 66 120 9
126 3 2 1 1 102 75 21 22
127 3 2 1 1 35 85 112 34
128 3 2 1 1 79 103 50 51
129 3 2 1 1 113 91 76 107
130 3 2 1 1 168 140 95 151
131 3 2 1 1 178 171 135 186
132 3 2 1 1 171 178 153 145
133 3 2 1 1 178 222 193 153
134 3 2 1 1 161 189 191 162
135 3 2 1 1 154 192 208 179
136 3 2 1 1 177 179 208 202
137 3 2 1 1 197 213 195 180
138 3 2 1 1 153 193 220 183
139 3 2 1 1 203 202 217 211
140 3 2 1 1 82 12 13 90
141 3 2 1 1 2 14 90 13
142 3 2 1 1 15 74 90 14
143 3 2 1 1 88 62 25 26
144 3 2 1 1 116 27 28 68
145 3 2 1 1 100 68 28 29
146 3 2 1 1 71 85 35 36
147 3 2 1 1 37 121 71 36
148 3 2 1 1 113 40 41 91
149 3 2 1 1 4 42 91 41
150 3 2 1 1 43 76 91 42
151 3 2 1 1 43 44 92 76
152 3 2 1 1 46 64 117 45
153 3 2 1 1 44 45 117 92
154 3 2 1 1 47 93 64 46
155 3 2 1 1 93 47 48 114
156 3 2 1 1 49 65 114 48
157 3 2 1 1 103 65 49 50
158 3 2 1 1 87 61 53 54
159 3 2 1 1 118 55 56 67
160 3 2 1 1 101 67 56 57
161 3 2 1 1 96 64 93 139
162 3 2 1 1 125 164 114 65
163 3 2 1 1 131 98 71 121
164 3 2 1 1 106 135 171 79
165 3 2 1 1 128 143 87 118
166 3 2 1 1 172 151 95 147
167 3 2 1 1 64 96 130 117
168 3 2 1 1 92 117 130 146
169 3 2 1 1 145 153 183 125
170 3 2 1 1 164 125 183 204
171 3 2 1 1 143 128 177 160
172 3 2 1 1 170 209 185 132
173 3 2 1 1 209 170 134 191
174 3 2 1 1 94 150 186 135
175 3 2 1 1 205 163 136 190
176 3 2 1 1 140 168 190 136
177 3 2 1 1 207 176 151 172
178 3 2 1 1 151 176 206 168
179 3 2 1 1 190 168 206 224
180 3 2 1 1 230 200 175 214
181 3 2 1 1 227 206 176 216
182 3 2 1 1 186 198 222 178
183 3 2 1 1 201 219 185 209
184 3 2 1 1 223 208 192 188
185 3 2 1 1 218 201 189 196
186 3 2 1 1 227 193 222 226
187 3 2 1 1 175 205 229 214
188 3 2 1 1 190 224 229 205
189 3 2 1 1 202 208 223 217
190 3 2 1 1 231 221 212 228
191 3 2 1 1 198 225 226 222
192 3 2 1 1 79 171 145 103
193 3 2 1 1 187 166 146 130
194 3 2 1 1 189 201 209 191
195 3 2 1 1 111 72 30 31
196 3 2 1 1 80 73 58 59
197 3 2 1 1 148 142 119 122
198 3 2 1 1 154 129 119 142
199 3 2 1 1 126 162 191 134
200 3 2 1 1 228 216 176 207
201 3 2 2 2 435 449 461 454
202 3 2 2 2 454 461 438 430
203 3 2 2 2 386 429 439 427
204 3 2 2 2 398 415 430 438
205 3 2 2 2 365 387 397 331
206 3 2 2 2 240 241 338 300
207 3 2 2 2 254 255 294 336
208 3 2 2 2 268 269 340 301
209 3 2 2 2 282 283 298 337
210 3 2 2 2 339 368 358 314
211 3 2 2 2 337 383 362 320
212 3 2 2 2 364 323 342 356
213 3 2 2 2 324 343 357 365
214 3 2 2 2 378 396 417 355
215 3 2 2 2 405 387 365 357
216 3 2 2 2 390 418 358 368
217 3 2 2 2 416 397 433 449
218 3 2 2 2 449 435 407 416
219 3 2 2 2 391 410 447 426
220 3 2 2 2 396 427 439 417
221 3 2 2 2 390 432 458 418
222 3 2 2 2 409 459 453 433
223 3 2 2 2 446 447 455 460
224 3 2 2 2 240 300 344 239
225 3 2 2 2 336 315 253 254
226 3 2 2 2 268 301 348 267
227 3 2 2 2 337 320 281 282
228 3 2 2 2 338 355 371 300
229 3 2 2 2 340 354 366 301
230 3 2 2 2 294 330 381 336
231 3 2 2 2 415 398 381 330
232 3 2 2 2 298 331 383 337
233 3 2 2 2 416 383 331 397
234 3 2 2 2 301 366 403 348
235 3 2 2 2 417 394 371 355
236 3 2 2 2 407 362 383 416
237 3 2 2 2 328 424 390 368
238 3 2 2 2 351 376 419 404
239 3 2 2 2 397 387 409 433
240 3 2 2 2 398 438 413 393
241 3 2 2 2 424 393 413 440
242 3 2 2 2 443 419 394 441
243 3 2 2 2 417 439 441 394
244 3 2 2 2 387 405 437 409
245 3 2 2 2 435 454 462 410
246 3 2 2 2 447 410 462 455
247 3 2 2 2 389 411 444 422
248 3 2 2 2 438 461 453 413
249 3 2 2 2 423 414 436 442
250 3 2 2 2 408 446 436 414
251 3 2 2 2 388 431 430 415
252 3 2 2 2 386 418 458 429
253 3 2 2 2 443 441 451 420
254 3 2 2 2 395 442 457 425
255 3 2 2 2 433 453 461 449
256 3 2 2 2 429 458 450 451
257 3 2 2 2 232 236 310 291
258 3 2 2 2 237 308 310 236
259 3 2 2 2 238 304 308 237
260 3 2 2 2 238 239 344 304
261 3 2 2 2 338 241 242 321
262 3 2 2 2 242 243 306 321
263 3 2 2 2 233 245 311 244
264 3 2 2 2 243 244 311 306
265 3 2 2 2 245 246 312 311
266 3 2 2 2 246 247 313 312
267 3 2 2 2 249 292 345 248
268 3 2 2 2 247 248 345 313
269 3 2 2 2 250 314 292 249
270 3 2 2 2 314 250 251 339
271 3 2 2 2 252 293 339 251
272 3 2 2 2 253 315 293 252
273 3 2 2 2 256 323 294 255
274 3 2 2 2 323 256 257 342
275 3 2 2 2 258 295 342 257
276 3 2 2 2 334 295 258 259
277 3 2 2 2 261 325 302 260
278 3 2 2 2 259 260 302 334
279 3 2 2 2 262 346 325 261
280 3 2 2 2 263 309 346 262
281 3 2 2 2 234 264 309 263
282 3 2 2 2 266 305 347 265
283 3 2 2 2 264 265 347 309
284 3 2 2 2 266 267 348 305
285 3 2 2 2 340 269 270 322
286 3 2 2 2 270 271 307 322
287 3 2 2 2 235 273 316 272
288 3 2 2 2 271 272 316 307
289 3 2 2 2 273 274 317 316
290 3 2 2 2 274 275 318 317
291 3 2 2 2 277 296 349 276
292 3 2 2 2 275 276 349 318
293 3 2 2 2 278 319 296 277
294 3 2 2 2 319 278 279 341
295 3 2 2 2 280 297 341 279
296 3 2 2 2 281 320 297 280
297 3 2 2 2 284 324 298 283
298 3 2 2 2 324 284 285 343
299 3 2 2 2 286 299 343 285
300 3 2 2 2 335 299 286 287
301 3 2 2 2 289 326 303 288
302 3 2 2 2 287 288 303 335
303 3 2 2 2 290 350 326 289
304 3 2 2 2 291 310 350 290
305 3 2 2 2 314 358 327 292
306 3 2 2 2 328 293 315 361
307 3 2 2 2 323 364 330 294
308 3 2 2 2 369 356 342 295
309 3 2 2 2 349 296 399 359
310 3 2 2 2 319 367 399 296
311 3 2 2 2 320 362 329 297
312 3 2 2 2 331 298 324 365
313 3 2 2 2 370 357 343 299
314 3 2 2 2 344 300 371 376
315 3 2 2 2 325 360 332 302
316 3 2 2 2 326 375 333 303
317 3 2 2 2 376 351 304 344
318 3 2 2 2 311 312 352 306
319 3 2 2 2 316 317 353 307
320 3 2 2 2 310 308 373 350
321 3 2 2 2 304 351 373 308
322 3 2 2 2 312 313 363 352
323 3 2 2 2 345 382 363 313
324 3 2 2 2 336 381 361 315
325 3 2 2 2 317 318 374 353
326 3 2 2 2 349 359 374 318
327 3 2 2 2 306 352 378 321
328 3 2 2 2 307 353 379 322
329 3 2 2 2 350 373 375 326
330 3 2 2 2 292 327 382 345
331 3 2 2 2 418 386 327 358
332 3 2 2 2 293 328 368 339
333 3 2 2 2 424 328 361 393
334 3 2 2 2 297 329 380 341
335 3 2 2 2 426 380 329 391
336 3 2 2 2 362 407 391 329
337 3 2 2 2 302 332 384 334
338 3 2 2 2 360 400 421 332
339 3 2 2 2 384 332 421 401
340 3 2 2 2 303 333 385 335
341 3 2 2 2 385 333 402 392
342 3 2 2 2 295 334 384 369
343 3 2 2 2 299 335 385 370
344 3 2 2 2 321 378 355 338
345 3 2 2 2 322 379 354 340
346 3 2 2 2 319 341 380 367
347 3 2 2 2 309 347 377 346
348 3 2 2 2 325 346 377 360
349 3 2 2 2 305 372 377 347
350 3 2 2 2 305 348 403 372
351 3 2 2 2 373 351 404 375
352 3 2 2 2 363 396 378 352
353 3 2 2 2 425 366 354 395
354 3 2 2 2 364 356 422 388
355 3 2 2 2 369 389 422 356
356 3 2 2 2 370 428 405 357
357 3 2 2 2 374 359 423 406
358 3 2 2 2 399 414 423 359
359 3 2 2 2 377 372 400 360
360 3 2 2 2 393 361 381 398
361 3 2 2 2 330 364 388 415
362 3 2 2 2 380 426 408 367
363 3 2 2 2 384 401 389 369
364 3 2 2 2 385 392 428 370
365 3 2 2 2 394 419 376 371
366 3 2 2 2 412 400 372 403
367 3 2 2 2 353 374 406 379
368 3 2 2 2 333 375 404 402
369 3 2 2 2 354 379 406 395
370 3 2 2 2 327 386 427 382
371 3 2 2 2 431 388 422 444
372 3 2 2 2 411 389 401 434
373 3 2 2 2 432 390 424 440
374 3 2 2 2 410 391 407 435
375 3 2 2 2 420 392 402 443
376 3 2 2 2 420 448 428 392
377 3 2 2 2 442 395 406 423
378 3 2 2 2 367 408 414 399
379 3 2 2 2 412 445 421 400
380 3 2 2 2 419 443 402 404
381 3 2 2 2 366 425 412 403
382 3 2 2 2 446 408 426 447
383 3 2 2 2 459 409 437 452
384 3 2 2 2 425 457 445 412
385 3 2 2 2 459 440 413 453
386 3 2 2 2 451 450 448 420
387 3 2 2 2 401 421 445 434
388 3 2 2 2 405 428 448 437
389 3 2 2 2 439 429 451 441
390 3 2 2 2 430 431 462 454
391 3 2 2 2 440 459 452 432
392 3 2 2 2 445 457 456 434
393 3 2 2 2 411 434 456 460
394 3 2 2 2 457 442 436 456
395 3 2 2 2 448 450 452 437
396 3 2 2 2 411 460 455 444
397 3 2 2 2 431 444 455 462
398 3 2 2 2 458 432 452 450
399 3 2 2 2 460 456 436 446
400 3 2 2 2 427 396 363 382
$EndElements
