$MeshFormat
2.2 0 8
$EndMeshFormat
$Nodes
861
1 0 0 0
2 0 150 0
3 0 200 0
4 0 200 50
5 0 200 100
6 0 150 100
7 0 0 100
8 0 5 0
9 0 10 0
10 0 15 0
11 0 20 0
12 0 25 0
13 0 30 0
14 0 35 0
15 0 40 0
16 0 45 0
17 0 50 0
18 0 55 0
19 0 60 0
20 0 65 0
21 0 70 0
22 0 75 0
23 0 80 0
24 0 85 0
25 0 90 0
26 0 95 0
27 0 100 0
28 0 105 0
29 0 110 0
30 0 115 0
31 0 120 0
32 0 125 0
33 0 130 0
34 0 135 0
35 0 140 0
36 0 145 0
37 0 155 0
38 0 160 0
39 0 165 0
40 0 170 0
41 0 175 0
42 0 180 0
43 0 185 0
44 0 190 0
45 0 195 0
46 0 200 5
47 0 200 10
48 0 200 15
49 0 200 20
50 0 200 25
51 0 200 30
52 0 200 35
53 0 200 40
54 0 200 45
55 0 200 55
56 0 200 60
57 0 200 65
58 0 200 70
59 0 200 75
60 0 200 80
61 0 200 85
62 0 200 90
63 0 200 95
64 0 195 100
65 0 190 100
66 0 185 100
67 0 180 100
68 0 175 100
69 0 170 100
70 0 165 100
71 0 160 100
72 0 155 100
73 0 145 100
74 0 140 100
75 0 135 100
76 0 130 100
77 0 125 100
78 0 120 100
79 0 115 100
80 0 110 100
81 0 105 100
82 0 100 100
83 0 95 100
84 0 90 100
85 0 85 100
86 0 80 100
87 0 75 100
88 0 70 100
89 0 65 100
90 0 60 100
91 0 55 100
92 0 50 100
93 0 45 100
94 0 40 100
95 0 35 100
96 0 30 100
97 0 25 100
98 0 20 100
99 0 15 100
100 0 10 100
101 0 5 100
102 0 0 95
103 0 0 90
104 0 0 85
105 0 0 80
106 0 0 75
107 0 0 70
108 0 0 65
109 0 0 60
110 0 0 55
111 0 0 50
112 0 0 45
113 0 0 40
114 0 0 35
115 0 0 30
116 0 0 25
117 0 0 20
118 0 0 15
119 0 0 10
120 0 0 5
121 0 105 5
122 0 50 5
123 0 150 95
124 0 70 5
125 0 125 5
126 0 114.991081599633 95.0059156014831
127 0 94.8974533734849 95.2736761014418
128 0 60.0000034190795 94.9999893577872
129 0 145 5
130 0 5 55
131 0 195 40
132 0 195 65
133 0 40.0000000001749 94.9999999990618
134 0 5 70
135 0 165 5
136 0 5 30
137 0 195 25
138 0 180 95
139 0 20 5
140 0 25 95
141 0 5 80
142 0 180 5
143 0 5 10
144 0 195 15
145 0 85 5
146 0 195 80
147 0 134.999999803228 95.0000000698197
148 0 15 95
149 0 5 40
150 0 30 5
151 0 170 95
152 0 84.9930472231283 95.0587660623188
153 0 195 5
154 0 195 95
155 0 10 95
156 0 5 15
157 0 115 5
158 0 35.0000000000219 94.9999999998827
159 0 55 5
160 0 95 5
161 0 50.0000000427614 94.9999998250328
162 0 5 5
163 0 5 45
164 0 35 5
165 0 40 5
166 0 195 50
167 0 150 5
168 0 10 5
169 0 75 5
170 0 130 5
171 0 135 5
172 0 155 5
173 0 170 5
174 0 185 5
175 0 195 35
176 0 195 60
177 0 195 75
178 0 195 90
179 0 190 95
180 0 165 95
181 0 160 95
182 0 144.999999998854 95.0000000004067
183 0 129.999987951429 95.0000046479749
184 0 124.999778009962 95.0001155765114
185 0 109.963814874319 95.0351323735927
186 0 104.921684143147 95.1197324567071
187 0 80.0007780813118 95.0122907660191
188 0 75.0006271818177 95.0015718360121
189 0 70.0002047424475 94.9999247298711
190 0 5 95
191 0 5 85
192 0 5 60
193 0 5 20
194 0 60 5
195 0 109.969215323526 90.0680930083862
196 0 50 10
197 0 84.993271513731 90.1400823815269
198 0 145 10
199 0 70 10
200 0 149.999999999857 90.0000000000508
201 0 10 40
202 0 190 65
203 0 40.000000000474 89.9999999974575
204 0 30 10
205 0 190 40
206 0 165 10
207 0 170 90
208 0 190 80
209 0 10 55
210 0 134.999997732502 90.0000009250775
211 0 10 15
212 0 75.0011096995566 90.0033545768249
213 0 180 10
214 0 10 80
215 0 190 90
216 0 99.9072847629426 95.2267295070134
217 0 110 5
218 0 10 10
219 0 100 5
220 0 90 5
221 0 5 25
222 0 55.0000007196811 94.9999976527328
223 0 45 5
224 0 80 5
225 0 45.0000000066599 94.9999999710763
226 0 30.0000000000027 94.9999999999853
227 0 35 10
228 0 15 5
229 0 25 5
230 0 65 5
231 0 120 5
232 0 195 20
233 0 195 45
234 0 5 35
235 0 55 10
236 0 150 10
237 0 195 10
238 0 195 30
239 0 20 95
240 0 5 50
241 0 140 5
242 0 160 5
243 0 175 5
244 0 190 5
245 0 195 55
246 0 195 70
247 0 195 85
248 0 185 95
249 0 175 95
250 0 154.999999999991 95.0000000000032
251 0 139.999999831249 95.0000000674091
252 0 119.997941442938 95.0013989379114
253 0 65.0000474308793 94.9999385320447
254 0 5 90
255 0 5 75
256 0 5 65
257 0 15 90
258 0 165 90
259 0 129.999950259658 90.0000244184121
260 0 89.9631293970468 95.181072540136
261 0 105 10
262 0 50 15
263 0 145 15
264 0 134.999992360282 85.0000038422352
265 0 30 15
266 0 10 25
267 0 170 85
268 0 90 10
269 0 50.0000001945025 89.9999993620415
270 0 40 10
271 0 60 10
272 0 10 35
273 0 10 65
274 0 190 30
275 0 190 20
276 0 10 45
277 0 30.0000000000018 89.9999999999903
278 0 185 10
279 0 65.0000756042188 89.9998961866331
280 0 115 10
281 0 190 55
282 0 190 45
283 0 155 10
284 0 170 10
285 0 190 75
286 0 159.999999999999 90.0000000000002
287 0 144.999999984412 90.000000006002
288 0 89.96391758819 90.352614926102
289 0 99.9228707886894 90.4114223370817
290 0 100 10
291 0 45.0000000318498 89.9999998884675
292 0 15 10
293 0 10 20
294 0 45 10
295 0 65 10
296 0 75 10
297 0 60.0000168108509 89.9999717178097
298 0 80 10
299 0 120 10
300 0 20 10
301 0 20 90
302 0 190 15
303 0 80.0001117860892 90.0383727764312
304 0 70.0003669896517 90.0005115832503
305 0 10 60
306 0 25 10
307 0 10 50
308 0 10 75
309 0 35.0000000000968 89.9999999994807
310 0 190 35
311 0 180 90
312 0 10 90
313 0 135 10
314 0 124.999457463199 90.0004227994056
315 0 10 85
316 0 140 10
317 0 154.999999999981 90.0000000000068
318 0 190 70
319 0 160 10
320 0 175 90
321 0 190 85
322 0 139.999999194123 90.0000003727271
323 0 175 10
324 0 185 90
325 0 190 10
326 0 114.988735087067 90.0183983644283
327 0 190 60
328 0 104.944945711573 90.2094894621144
329 0 99.9644695077339 85.506902072134
330 0 70 15
331 0 105 15
332 0 65.000092346406 85.0000383711606
333 0 15 50
334 0 185 45
335 0 45.000000030946 84.9999998941819
336 0 165 15
337 0 185 65
338 0 15 20
339 0 154.999999999984 85.0000000000056
340 0 185 80
341 0 89.9827911914949 85.426716906598
342 0 115 15
343 0 130 10
344 0 15 60
345 0 80.0004541195716 85.0505860483797
346 0 15 75
347 0 175 15
348 0 185 35
349 0 35.000000000141 84.9999999992859
350 0 94.9340952072431 90.4580282161837
351 0 15 15
352 0 60 15
353 0 55 15
354 0 95 10
355 0 40 15
356 0 35 15
357 0 125 10
358 0 25.0000000000004 89.9999999999978
359 0 45 15
360 0 20 15
361 0 25 15
362 0 10 70
363 0 10 30
364 0 190 25
365 0 190 50
366 0 15 40
367 0 75.0006143550195 85.0117978805494
368 0 110 9.99999999999999
369 0 55.0000031004997 89.9999935556015
370 0 80 15
371 0 85 10
372 0 20 84.9999999999999
373 0 15 80
374 0 15 85
375 0 149.999999998642 85.0000000005112
376 0 180 15
377 0 185 20
378 0 150 15
379 0 165 85
380 0 129.999904371864 85.0000838693067
381 0 135 15
382 0 140 15
383 0 144.999999927376 85.0000000325929
384 0 139.999998652925 85.0000006520464
385 0 180 85
386 0 175 85
387 0 185 15
388 0 155 15
389 0 185 75
390 0 185 85
391 0 119.996701798211 90.0042559602168
392 0 185 60
393 0 109.982919438241 85.0939475102494
394 0 50 20
395 0 80.0003946630191 80.0522782695568
396 0 134.999986598475 80.000011130855
397 0 135 20
398 0 150 20
399 0 30 20
400 0 180 65
401 0 154.999999999887 80.000000000042
402 0 170 80
403 0 20 20
404 0 95 15
405 0 25.0000000000004 84.9999999999977
406 0 85 15
407 0 185 55
408 0 15 70
409 0 185 25
410 0 94.9710077917408 85.5500750007178
411 0 110 15
412 0 50.0000005057867 84.9999987758383
413 0 60 20
414 0 40 20
415 0 100 15
416 0 70.0003310693481 85.0021438564235
417 0 30.0000000000263 84.9999999998641
418 0 130 15
419 0 84.9945298797442 85.1870953250894
420 0 15 55
421 0 140 20
422 0 15 25
423 0 15 35
424 0 15 45
425 0 60.0000236776883 84.9999855677446
426 0 185 50
427 0 20 79.9999999999998
428 0 15 65
429 0 65 15
430 0 75 15
431 0 120 15
432 0 185 30
433 0 170 15
434 0 159.99999999999 85.0000000000038
435 0 124.999345359201 85.0008860225213
436 0 114.991995388048 85.0284394318201
437 0 185 70
438 0 160 15
439 0 180 80
440 0 180 20
441 0 149.999999993588 80.0000000028277
442 0 144.999999840548 80.0000000784303
443 0 185 40
444 0 40.0000000064227 84.9999999772029
445 0 104.970705773536 85.2646863668847
446 0 99.9876139679352 80.5049791046726
447 0 105.000000001208 20.000000001251
448 0 65.0000755294667 80.0002657490979
449 0 80 20
450 0 135 25
451 0 154.999999999456 75.0000000002395
452 0 20 50
453 0 45.0000000647118 79.9999998316929
454 0 180 45
455 0 165 20
456 0 20 65
457 0 35.0000000006444 79.9999999975913
458 0 180 35
459 0 115.000000001208 20.000000001251
460 0 20 25
461 0 75.0003697465325 80.0153028395344
462 0 20 74.9999999999999
463 0 159.999999999949 80.0000000000212
464 0 180 70
465 0 94.9894430734821 80.5535915599684
466 0 55.0000055069858 84.9999932941445
467 0 65 20
468 0 45 20
469 0 95 20
470 0 125 15
471 0 25 20
472 0 20 55
473 0 20 40
474 0 25.0000000000028 79.9999999999854
475 0 180 55
476 0 90 15
477 0 89.9935648185139 80.3798825117741
478 0 15 30
479 0 180 60
480 0 130 20
481 0 35 20
482 0 145 20
483 0 175 20
484 0 164.999999999993 80.000000000003
485 0 129.999886925883 80.0001772192657
486 0 139.999997345959 80.0000019012941
487 0 175 80
488 0 155 20
489 0 84.9974441348422 80.1822963635791
490 0 180 30
491 0 180 25
492 0 149.999999983645 75.0000000081728
493 0 70 20
494 0 55 20
495 0 180 75
496 0 119.997063021575 85.0070441937152
497 0 104.988016641804 80.2758858464381
498 0 114.996023720635 80.029754758077
499 0 99.9983811619623 75.4750245782162
500 0 50 25
501 0 65 25
502 0 84.9996628316655 75.1635923888832
503 0 134.999985005676 75.0000218082115
504 0 154.999999998564 70.0000000007753
505 0 150 25
506 0 25 50
507 0 175 65
508 0 30 25
509 0 130 25
510 0 20 30
511 0 85 20
512 0 25.0000000000025 74.9999999999878
513 0 120.000000000151 20.0000000001564
514 0 175 35
515 0 169.999999999999 75.0000000000002
516 0 119.998198621555 80.0082856354486
517 0 94.9986708977718 75.5195371344619
518 0 110.000000002719 20.0000000028147
519 0 60.0000232960319 80.000032034186
520 0 50.0000008188659 79.9999987882117
521 0 20 35
522 0 90 20
523 0 40 25
524 0 25 25
525 0 125.000000000019 20.0000000000195
526 0 70.0002126344218 80.0036280313323
527 0 30.0000000000995 79.9999999996045
528 0 20 45
529 0 20 60
530 0 80.0000379143921 75.0585681279011
531 0 20.0000000000002 69.9999999999992
532 0 60 25
533 0 140 25
534 0 180 50
535 0 75 20
536 0 175 60
537 0 100.000000000151 20.0000000001563
538 0 170 20
539 0 160 20
540 0 144.999999694639 75.0000002112966
541 0 159.999999999827 75.0000000000842
542 0 175 75
543 0 175 25
544 0 180 40
545 0 124.999371469229 80.0019138851783
546 0 40.0000000119883 79.9999999655462
547 0 109.991576999294 80.113649590842
548 0 105.000000128715 25.0000001332623
549 0 90.0000002154405 25.000000223052
550 0 65.0000448128084 75.0004027177502
551 0 119.999270993034 75.006343349714
552 0 85.0020669933941 70.1693417877167
553 0 60 30
554 0 130 30
555 0 45.0000001010369 74.9999998267662
556 0 25.0000000000011 59.9999999999965
557 0 170 65.0000000000002
558 0 95.0097095783599 70.5086591173086
559 0 25 35
560 0 25.000000000003 69.9999999999875
561 0 115.000000006157 25.0000000063748
562 0 80.0000000054563 25.0000000056491
563 0 160 25
564 0 159.999999999767 70.0000000001271
565 0 129.999908521446 75.0002555178142
566 0 35 25
567 0 30 30
568 0 100.000000327667 25.0000003392436
569 0 125.000000000061 25.0000000000635
570 0 25 45
571 0 55.0000063853284 80.0000012156868
572 0 35.0000000012768 74.9999999961819
573 0 25 30
574 0 30.0000000002193 74.9999999992924
575 0 135 30
576 0 70.0001176477509 75.0030187188808
577 0 75.0001857944872 75.0176760775994
578 0 25.0000000000004 54.9999999999989
579 0 170 25
580 0 175 70
581 0 175 55
582 0 175 50
583 0 145 25
584 0 164.99999999996 75.0000000000203
585 0 139.999996512078 75.0000040605413
586 0 155 25
587 0 175 30
588 0 149.999999968904 70.0000000213286
589 0 70 25
590 0 55 25
591 0 175 40
592 0 45 25
593 0 104.998137394713 75.2640407575725
594 0 114.998623729504 75.0323598557085
595 0 89.9993138474932 75.3554377874015
596 0 105.000006699251 30.0000142275559
597 0 65.0000228987513 70.0004230286384
598 0 130 35
599 0 154.999999997549 65.0000000020162
600 0 134.999988356023 70.000028666505
601 0 120.000066987079 70.006072736025
602 0 150 30
603 0 30.0000000000009 44.9999999999982
604 0 40 30
605 0 170.000000000001 55.0000000000001
606 0 30 35
607 0 30.0000000000112 54.9999999999751
608 0 170 40
609 0 90.0059316106672 70.3641874461058
610 0 50 30
611 0 55 30
612 0 95.0000004416478 25.0000004572512
613 0 35 30
614 0 125.000000000138 30.0000000001426
615 0 25.0000000000028 64.9999999999901
616 0 35.000000000949 69.9999999976391
617 0 60.0000178022597 75.000099862911
618 0 25.0000000000001 39.9999999999999
619 0 120.000000001377 25.0000000014258
620 0 75.000000000682 25.0000000007061
621 0 30.000000000234 69.9999999993495
622 0 80.0007204021559 70.0631895557057
623 0 140 30
624 0 170 60.0000000000002
625 0 165 25
626 0 85.0000000821755 25.0000000850788
627 0 170 30
628 0 169.999999999997 70.0000000000014
629 0 110.000000446418 25.0000009179164
630 0 144.999999603867 70.0000004383254
631 0 155 30
632 0 164.999999999955 70.0000000000245
633 0 175 45
634 0 65 30
635 0 70.0000687709239 70.0034628480751
636 0 50.0000009432104 74.9999998681266
637 0 124.999651483377 75.0021626569012
638 0 40.000000020328 74.9999999578771
639 0 100.012335105555 70.4270228211501
640 0 109.998156487483 75.1147121261968
641 0 90.0000049864261 30.0000394963386
642 0 90.014355766433 65.3930372699764
643 0 50.0000000000007 35.0000000000159
644 0 65.000014040129 65.0005158307613
645 0 150 35
646 0 125.000000002562 35.0000000026393
647 0 35.000000001097 64.999999998134
648 0 60.0000000000203 35.0000000005695
649 0 80.0000000882142 30.0000000913308
650 0 160 30
651 0 159.999999999611 65.000000000334
652 0 170.000000000001 50.0000000000002
653 0 45.0000001153205 69.9999999388539
654 0 129.999948854477 70.0002615443042
655 0 95.0246323242584 65.509882956923
656 0 110.000003502523 30.0000045946849
657 0 30.0000000000002 39.9999999999995
658 0 115.000001244696 30.0000014382047
659 0 30.0000000000837 59.9999999998467
660 0 35 34.9999999999999
661 0 75.0002419724278 70.0200705927306
662 0 30.0000000002437 64.9999999994978
663 0 30.0000000000059 49.9999999999876
664 0 75.0000000121351 30.0000000125638
665 0 135 35
666 0 145 30
667 0 70.0000000015595 30.0000000016146
668 0 60.0000104422818 70.0001284429816
669 0 164.99999999999 60.0000000000255
670 0 170 35
671 0 85.0058086386197 65.1884623544911
672 0 164.999999999934 65.000000000058
673 0 100.000012524274 30.0000627951911
674 0 139.999996752077 70.000006059051
675 0 149.999999960844 65.0000000428326
676 0 165 30
677 0 170.000000000001 45.0000000000001
678 0 45 30.000000000001
679 0 120.000000265455 30.000000293523
680 0 55.0000060186097 75.000022759658
681 0 40.0000000260375 69.9999999714107
682 0 105.010591072652 70.2473593733627
683 0 115.001810211587 70.0316366865255
684 0 124.999887421533 70.0017172169156
685 0 105.000086359013 35.0008910872949
686 0 90.0180955655437 60.3860164905434
687 0 125.000000011315 40.0000000112019
688 0 75.0000027157141 35.000104453684
689 0 134.999993366176 65.0000299949301
690 0 120.001011071424 65.0055610686854
691 0 154.9999999974 60.0000000039768
692 0 35.0000000001845 49.9999999999548
693 0 60.0000054418313 65.0001187194574
694 0 165.000000000012 45.0000000000018
695 0 35.0000000000007 39.9999999999986
696 0 45.0000000000003 35.0000000000017
697 0 35.000000001045 59.9999999989441
698 0 145 35
699 0 165.000000000022 55.0000000000086
700 0 110.000045052711 35.0002940348119
701 0 120.000001062588 35.0000012019339
702 0 40.0000000000002 34.9999999999999
703 0 95.0000132278542 30.0001001745701
704 0 70.0000849756655 65.0041862030205
705 0 55.0000000000083 35.0000000002356
706 0 80.001828590558 65.0710271153027
707 0 140 35
708 0 85.0000013264377 30.0000056650185
709 0 65.0000000001358 35.0000000010241
710 0 50.0000008244237 70.0000018825732
711 0 55.000004158083 70.0000338474055
712 0 100.028605008988 65.4101762538564
713 0 165.000000000003 40.0000000000003
714 0 144.999999631517 65.0000006484234
715 0 155 35
716 0 160.000000000001 35
717 0 159.999999999556 60.0000000007011
718 0 165.000000000001 35.0000000000001
719 0 130.000000002009 40.0000000023565
720 0 45.0000001019256 65.0000001512702
721 0 40.0000000259269 65.0000000092029
722 0 110.006255444095 70.1096978340371
723 0 129.999980786912 65.000219885142
724 0 105.000715696055 40.009478947054
725 0 90.0001027113786 35.0035630433748
726 0 50.0000000003259 40.0000000046279
727 0 60.0000000461557 40.0000014553857
728 0 140.000000000066 40.000000001415
729 0 60.0000024242836 60.0000717712679
730 0 125.000010890995 45.0000079691662
731 0 134.999997878533 60.0000276838064
732 0 150.000000000129 40.0000000002301
733 0 95.0287837423259 60.4786001501236
734 0 40.0000000000338 40.0000000001219
735 0 35.0000000000474 44.9999999999957
736 0 35.0000000006953 54.9999999996414
737 0 120.000017658529 40.0000671012114
738 0 50.0000005607816 65.0000030730786
739 0 65.0000166555314 60.0006651476883
740 0 45.0000000737414 60.0000003180914
741 0 40.0000000205785 60.0000000494984
742 0 75.0005175562553 65.0230579704677
743 0 135.000000000435 40.0000000018753
744 0 85.0073492812401 60.1903588000045
745 0 105.023863073983 65.2305882920336
746 0 55.0000023800396 65.0000333393767
747 0 80.0000201168547 35.0008193478173
748 0 70.0000003405076 35.000013058434
749 0 139.999997650403 65.000008512521
750 0 149.999999964331 60.0000000656818
751 0 159.999999999984 55.0000000004167
752 0 160.000000000109 45.0000000000391
753 0 160.000000000036 40.0000000000078
754 0 100.00017664116 35.0031069537593
755 0 165.000000000027 50.0000000000332
756 0 115.000015815603 35.0000655420751
757 0 115.005651674746 65.0282325110458
758 0 125.000168841047 65.0015820446378
759 0 90.0131235648921 55.3106905076577
760 0 75.000029574445 40.0010287939715
761 0 120.000131727336 45.0003888235582
762 0 100.001090358749 40.021902598872
763 0 60.0000022139819 55.0000800962909
764 0 115.007094655621 60.0215000702844
765 0 135.000000254326 45.0000003578101
766 0 55.0000012380387 60.0000268509359
767 0 115.000139919802 40.0007998614934
768 0 144.9999997415 60.0000007924549
769 0 40.0000000002305 45.000000000315
770 0 45.0000000001989 40.0000000016493
771 0 95.0002127441363 35.0055149779432
772 0 55.0000000077772 40.0000002452282
773 0 110.014494651638 65.1009251703929
774 0 45.0000000285177 55.0000001590922
775 0 40.0000000024639 50.0000000101586
776 0 40.0000000118514 55.0000000471031
777 0 50.0000004381265 60.0000062278896
778 0 125.000282212603 60.0010180194891
779 0 145.000000000137 40.0000000010191
780 0 70.0001361654761 60.0049739919206
781 0 80.0025573879218 60.0743800128976
782 0 85.0000680259188 35.0027199348052
783 0 154.999999997993 55.0000000057781
784 0 155.000000000104 40.0000000000562
785 0 130.000003480166 45.0000028147849
786 0 70.0000067528793 40.0002227802494
787 0 65.0000012440283 40.0000402528307
788 0 160.000000000034 50.0000000004919
789 0 110.000449805782 40.0041449664436
790 0 130.000045364665 60.0002806919813
791 0 139.999998875845 60.0000070872468
792 0 100.031642869513 60.3682739237493
793 0 105.003418563012 45.0420835605849
794 0 90.0008234904902 40.0265334287347
795 0 75.0001493203088 45.0045401797068
796 0 45.0000000112001 50.0000000852549
797 0 55.0000000396036 45.0000012690355
798 0 120.000617000788 50.0014633730956
799 0 125.000167375755 50.0003607829034
800 0 130.000025940982 50.0000552741183
801 0 55.0000006843815 55.0000198571001
802 0 139.999999700735 55.0000034581087
803 0 140.000000059067 45.0000001800783
804 0 150.000000000279 45.0000000071274
805 0 115.000813767234 45.0044555576847
806 0 149.999999975043 55.0000000815903
807 0 110.017162295625 60.0839102666433
808 0 95.0198274787709 55.3708744223589
809 0 50.000000014299 45.0000003607049
810 0 95.001224542824 40.032773662952
811 0 45.0000000047055 45.00000007089
812 0 135.000004950679 55.000030350567
813 0 125.000307942164 55.0007077714172
814 0 65.0000215057385 55.000739075806
815 0 50.0000002491624 55.0000052928553
816 0 120.002067695907 60.0067823527461
817 0 85.0062590772383 55.1574371057228
818 0 60.0000005036705 45.0000162797852
819 0 70.0000359676185 45.0010845400436
820 0 75.0007768360774 60.0250980248628
821 0 155.000000000384 45.0000000011449
822 0 154.999999998726 50.0000000068718
823 0 80.0001814299619 40.0062739748964
824 0 105.025475280835 60.2045620677045
825 0 95.0103877850362 50.2239433607351
826 0 105.018065883923 55.1585524436997
827 0 90.0071677548749 50.1765639979729
828 0 75.000396811265 50.0113811874279
829 0 80.0006819779241 45.020932341916
830 0 115.002555649019 50.0109445942186
831 0 100.00456497043 45.0809976159426
832 0 95.004466656111 45.1015439576659
833 0 50.0000000971548 50.0000024067923
834 0 115.005381293667 55.0208764628982
835 0 60.0000024174054 50.0000819100958
836 0 70.0001687950904 55.0052260843362
837 0 80.0024604095501 55.0663940306828
838 0 135.000004612405 50.0000133584182
839 0 65.000008259649 45.0002507188879
840 0 145.000000008899 45.0000000666683
841 0 85.0005673592065 40.01883363403
842 0 130.00007795073 55.0002305135348
843 0 149.999999995037 50.0000000369738
844 0 110.002319027506 45.019407518733
845 0 120.0019524543 55.0063870038245
846 0 144.999999847286 55.0000010624126
847 0 100.021146991952 55.2753660739423
848 0 100.01127992505 50.1704802485981
849 0 105.009407137162 50.0984917519188
850 0 110.011443054484 55.0708680935331
851 0 90.003302394476 45.0863136903689
852 0 85.0040268005528 50.1052087640591
853 0 65.0000225867296 50.0007015890439
854 0 55.0000006128703 50.0000201588235
855 0 70.0001263364244 50.0037189872249
856 0 140.000000869516 50.0000042452814
857 0 75.0008422980389 55.0241784139726
858 0 145.000000072206 50.0000009345085
859 0 110.00628260029 50.047445845964
860 0 85.0020083579283 45.05521803433
861 0 80.0018367834072 50.0494898419593
$EndNodes
$Elements
800
1 3 2 1 1 341 410 350 288
2 3 2 1 1 655 642 686 733
3 3 2 1 1 847 792 733 808
4 3 2 1 1 792 847 826 824
5 3 2 1 1 733 686 759 808
6 3 2 1 1 848 847 808 825
7 3 2 1 1 410 465 446 329
8 3 2 1 1 847 848 849 826
9 3 2 1 1 825 832 831 848
10 3 2 1 1 807 824 826 850
11 3 2 1 1 465 517 499 446
12 3 2 1 1 517 595 609 558
13 3 2 1 1 826 849 859 850
14 3 2 1 1 393 445 497 547
15 3 2 1 1 825 827 851 832
16 3 2 1 1 833 854 801 815
17 3 2 1 1 851 827 852 860
18 3 2 1 1 658 656 629 561
19 3 2 1 1 861 837 857 828
20 3 2 1 1 830 798 845 834
21 3 2 1 1 816 764 834 845
22 3 2 1 1 796 775 769 811
23 3 2 1 1 814 853 855 836
24 3 2 1 1 828 857 836 855
25 3 2 1 1 269 412 466 369
26 3 2 1 1 834 850 859 830
27 3 2 1 1 478 510 521 423
28 3 2 1 1 290 219 121 261
29 3 2 1 1 291 335 412 269
30 3 2 1 1 702 604 678 696
31 3 2 1 1 696 770 734 702
32 3 2 1 1 411 368 280 342
33 3 2 1 1 351 360 403 338
34 3 2 1 1 796 811 809 833
35 3 2 1 1 156 193 117 118
36 3 2 1 1 162 168 218 143
37 3 2 1 1 143 218 211 156
38 3 2 1 1 493 589 501 467
39 3 2 1 1 218 292 351 211
40 3 2 1 1 414 523 566 481
41 3 2 1 1 810 794 725 771
42 3 2 1 1 769 734 770 811
43 3 2 1 1 293 266 221 193
44 3 2 1 1 511 406 476 522
45 3 2 1 1 510 573 559 521
46 3 2 1 1 612 703 641 549
47 3 2 1 1 659 607 736 697
48 3 2 1 1 726 772 797 809
49 3 2 1 1 797 854 833 809
50 3 2 1 1 839 819 855 853
51 3 2 1 1 448 519 617 550
52 3 2 1 1 703 771 725 641
53 3 2 1 1 291 269 161 225
54 3 2 1 1 309 349 444 203
55 3 2 1 1 404 476 268 354
56 3 2 1 1 614 569 509 554
57 3 2 1 1 122 196 294 223
58 3 2 1 1 394 262 353 494
59 3 2 1 1 813 842 790 778
60 3 2 1 1 93 225 161 92
61 3 2 1 1 262 196 235 353
62 3 2 1 1 270 355 356 227
63 3 2 1 1 356 355 414 481
64 3 2 1 1 501 532 413 467
65 3 2 1 1 404 469 522 476
66 3 2 1 1 418 480 525 470
67 3 2 1 1 604 702 660 613
68 3 2 1 1 696 643 726 770
69 3 2 1 1 724 762 754 685
70 3 2 1 1 769 735 695 734
71 3 2 1 1 160 26 27 219
72 3 2 1 1 338 293 211 351
73 3 2 1 1 353 235 271 352
74 3 2 1 1 359 262 394 468
75 3 2 1 1 279 332 416 304
76 3 2 1 1 415 331 447 537
77 3 2 1 1 416 332 448 526
78 3 2 1 1 413 352 429 467
79 3 2 1 1 414 355 359 468
80 3 2 1 1 406 511 449 370
81 3 2 1 1 430 370 449 535
82 3 2 1 1 548 568 537 447
83 3 2 1 1 425 466 571 519
84 3 2 1 1 528 473 618 570
85 3 2 1 1 606 657 618 559
86 3 2 1 1 560 615 662 621
87 3 2 1 1 710 738 746 711
88 3 2 1 1 835 854 797 818
89 3 2 1 1 799 800 842 813
90 3 2 1 1 726 643 705 772
91 3 2 1 1 158 133 94 95
92 3 2 1 1 466 412 520 571
93 3 2 1 1 550 576 526 448
94 3 2 1 1 819 795 828 855
95 3 2 1 1 27 28 121 219
96 3 2 1 1 193 156 211 293
97 3 2 1 1 145 24 25 220
98 3 2 1 1 29 30 157 217
99 3 2 1 1 136 115 116 221
100 3 2 1 1 119 120 162 143
101 3 2 1 1 220 268 371 145
102 3 2 1 1 280 157 231 299
103 3 2 1 1 158 226 277 309
104 3 2 1 1 196 262 359 294
105 3 2 1 1 293 338 422 266
106 3 2 1 1 270 294 359 355
107 3 2 1 1 466 425 297 369
108 3 2 1 1 403 460 422 338
109 3 2 1 1 494 590 500 394
110 3 2 1 1 333 424 528 452
111 3 2 1 1 470 525 513 431
112 3 2 1 1 535 620 589 493
113 3 2 1 1 547 640 594 498
114 3 2 1 1 611 610 500 590
115 3 2 1 1 450 575 554 509
116 3 2 1 1 613 566 523 604
117 3 2 1 1 596 548 629 656
118 3 2 1 1 640 722 683 594
119 3 2 1 1 709 787 727 648
120 3 2 1 1 681 721 720 653
121 3 2 1 1 748 688 760 786
122 3 2 1 1 741 776 774 740
123 3 2 1 1 762 810 771 754
124 3 2 1 1 844 859 849 793
125 3 2 1 1 838 856 802 812
126 3 2 1 1 835 818 839 853
127 3 2 1 1 50 51 238 137
128 3 2 1 1 114 234 149 113
129 3 2 1 1 221 266 363 136
130 3 2 1 1 122 159 235 196
131 3 2 1 1 268 220 160 354
132 3 2 1 1 369 222 161 269
133 3 2 1 1 294 270 165 223
134 3 2 1 1 478 423 272 363
135 3 2 1 1 309 277 417 349
136 3 2 1 1 279 297 425 332
137 3 2 1 1 444 349 457 546
138 3 2 1 1 352 413 494 353
139 3 2 1 1 360 361 471 403
140 3 2 1 1 266 422 478 363
141 3 2 1 1 298 371 406 370
142 3 2 1 1 335 453 520 412
143 3 2 1 1 494 413 532 590
144 3 2 1 1 460 510 478 422
145 3 2 1 1 403 471 524 460
146 3 2 1 1 592 678 604 523
147 3 2 1 1 611 553 648 705
148 3 2 1 1 612 568 673 703
149 3 2 1 1 614 679 619 569
150 3 2 1 1 657 606 660 695
151 3 2 1 1 643 696 678 610
152 3 2 1 1 610 611 705 643
153 3 2 1 1 603 657 695 735
154 3 2 1 1 695 660 702 734
155 3 2 1 1 721 741 740 720
156 3 2 1 1 789 844 793 724
157 3 2 1 1 811 770 726 809
158 3 2 1 1 122 223 16 17
159 3 2 1 1 93 94 133 225
160 3 2 1 1 95 96 226 158
161 3 2 1 1 222 369 297 128
162 3 2 1 1 305 209 420 344
163 3 2 1 1 136 363 272 234
164 3 2 1 1 307 276 424 333
165 3 2 1 1 358 405 417 277
166 3 2 1 1 351 292 300 360
167 3 2 1 1 361 360 300 306
168 3 2 1 1 357 343 418 470
169 3 2 1 1 524 471 399 508
170 3 2 1 1 620 535 449 562
171 3 2 1 1 566 613 567 508
172 3 2 1 1 664 667 589 620
173 3 2 1 1 757 683 722 773
174 3 2 1 1 817 759 686 744
175 3 2 1 1 682 745 773 722
176 3 2 1 1 709 748 786 787
177 3 2 1 1 160 220 25 26
178 3 2 1 1 30 31 231 157
179 3 2 1 1 163 112 113 149
180 3 2 1 1 114 115 136 234
181 3 2 1 1 299 231 125 357
182 3 2 1 1 226 140 358 277
183 3 2 1 1 201 149 234 272
184 3 2 1 1 270 227 164 165
185 3 2 1 1 150 164 227 204
186 3 2 1 1 233 166 365 282
187 3 2 1 1 218 168 228 292
188 3 2 1 1 272 423 366 201
189 3 2 1 1 150 204 306 229
190 3 2 1 1 131 233 282 205
191 3 2 1 1 169 224 298 296
192 3 2 1 1 204 227 356 265
193 3 2 1 1 204 265 361 306
194 3 2 1 1 471 361 265 399
195 3 2 1 1 271 295 429 352
196 3 2 1 1 298 370 430 296
197 3 2 1 1 470 431 299 357
198 3 2 1 1 519 448 332 425
199 3 2 1 1 472 420 333 452
200 3 2 1 1 420 472 529 344
201 3 2 1 1 265 356 481 399
202 3 2 1 1 423 521 473 366
203 3 2 1 1 407 392 479 475
204 3 2 1 1 566 508 399 481
205 3 2 1 1 349 417 527 457
206 3 2 1 1 405 474 527 417
207 3 2 1 1 366 473 528 424
208 3 2 1 1 462 512 474 427
209 3 2 1 1 393 547 498 436
210 3 2 1 1 528 570 506 452
211 3 2 1 1 560 531 456 615
212 3 2 1 1 529 556 615 456
213 3 2 1 1 546 457 572 638
214 3 2 1 1 512 462 531 560
215 3 2 1 1 414 468 592 523
216 3 2 1 1 452 506 578 472
217 3 2 1 1 529 472 578 556
218 3 2 1 1 521 559 618 473
219 3 2 1 1 530 622 552 502
220 3 2 1 1 607 578 506 663
221 3 2 1 1 460 524 573 510
222 3 2 1 1 474 512 574 527
223 3 2 1 1 447 518 629 548
224 3 2 1 1 508 567 573 524
225 3 2 1 1 457 527 574 572
226 3 2 1 1 578 607 659 556
227 3 2 1 1 662 615 556 659
228 3 2 1 1 512 560 621 574
229 3 2 1 1 559 573 567 606
230 3 2 1 1 618 657 603 570
231 3 2 1 1 506 570 603 663
232 3 2 1 1 616 681 638 572
233 3 2 1 1 572 574 621 616
234 3 2 1 1 530 577 661 622
235 3 2 1 1 735 692 663 603
236 3 2 1 1 663 692 736 607
237 3 2 1 1 647 721 681 616
238 3 2 1 1 616 621 662 647
239 3 2 1 1 693 729 739 644
240 3 2 1 1 687 737 701 646
241 3 2 1 1 659 697 647 662
242 3 2 1 1 697 741 721 647
243 3 2 1 1 705 648 727 772
244 3 2 1 1 635 704 742 661
245 3 2 1 1 622 661 742 706
246 3 2 1 1 776 736 692 775
247 3 2 1 1 735 769 775 692
248 3 2 1 1 736 776 741 697
249 3 2 1 1 756 701 737 767
250 3 2 1 1 671 706 781 744
251 3 2 1 1 649 708 782 747
252 3 2 1 1 772 727 818 797
253 3 2 1 1 693 746 766 729
254 3 2 1 1 720 740 777 738
255 3 2 1 1 729 763 814 739
256 3 2 1 1 738 777 766 746
257 3 2 1 1 729 766 801 763
258 3 2 1 1 854 835 763 801
259 3 2 1 1 853 814 763 835
260 3 2 1 1 777 815 801 766
261 3 2 1 1 775 796 774 776
262 3 2 1 1 740 774 815 777
263 3 2 1 1 833 815 774 796
264 3 2 1 1 739 814 836 780
265 3 2 1 1 820 780 836 857
266 3 2 1 1 787 786 819 839
267 3 2 1 1 727 787 839 818
268 3 2 1 1 829 861 828 795
269 3 2 1 1 759 817 852 827
270 3 2 1 1 168 162 8 9
271 3 2 1 1 1 8 162 120
272 3 2 1 1 9 10 228 168
273 3 2 1 1 13 150 229 12
274 3 2 1 1 13 14 164 150
275 3 2 1 1 223 165 15 16
276 3 2 1 1 14 15 165 164
277 3 2 1 1 18 19 194 159
278 3 2 1 1 19 20 230 194
279 3 2 1 1 145 224 23 24
280 3 2 1 1 48 144 237 47
281 3 2 1 1 50 137 232 49
282 3 2 1 1 48 49 232 144
283 3 2 1 1 52 175 238 51
284 3 2 1 1 53 131 175 52
285 3 2 1 1 53 54 233 131
286 3 2 1 1 56 57 132 176
287 3 2 1 1 161 222 91 92
288 3 2 1 1 112 163 240 111
289 3 2 1 1 193 221 116 117
290 3 2 1 1 296 199 124 169
291 3 2 1 1 357 125 170 343
292 3 2 1 1 297 279 253 128
293 3 2 1 1 238 274 364 137
294 3 2 1 1 232 137 364 275
295 3 2 1 1 228 139 300 292
296 3 2 1 1 239 301 358 140
297 3 2 1 1 232 275 302 144
298 3 2 1 1 371 298 224 145
299 3 2 1 1 133 158 309 203
300 3 2 1 1 149 201 276 163
301 3 2 1 1 307 240 163 276
302 3 2 1 1 129 167 236 198
303 3 2 1 1 167 172 283 236
304 3 2 1 1 131 205 310 175
305 3 2 1 1 238 175 310 274
306 3 2 1 1 126 185 195 326
307 3 2 1 1 152 187 303 197
308 3 2 1 1 188 212 303 187
309 3 2 1 1 188 189 304 212
310 3 2 1 1 253 279 304 189
311 3 2 1 1 130 209 305 192
312 3 2 1 1 271 194 230 295
313 3 2 1 1 295 199 330 429
314 3 2 1 1 296 430 330 199
315 3 2 1 1 424 276 201 366
316 3 2 1 1 307 333 420 209
317 3 2 1 1 416 367 212 304
318 3 2 1 1 303 212 367 345
319 3 2 1 1 308 346 373 214
320 3 2 1 1 121 217 368 261
321 3 2 1 1 139 229 306 300
322 3 2 1 1 301 257 374 372
323 3 2 1 1 331 261 368 411
324 3 2 1 1 305 344 428 273
325 3 2 1 1 362 273 428 408
326 3 2 1 1 426 365 281 407
327 3 2 1 1 327 392 407 281
328 3 2 1 1 280 299 431 342
329 3 2 1 1 405 358 301 372
330 3 2 1 1 197 303 345 419
331 3 2 1 1 343 313 381 418
332 3 2 1 1 313 316 382 381
333 3 2 1 1 467 429 330 493
334 3 2 1 1 493 330 430 535
335 3 2 1 1 282 365 426 334
336 3 2 1 1 529 456 428 344
337 3 2 1 1 308 362 408 346
338 3 2 1 1 373 346 462 427
339 3 2 1 1 345 367 461 395
340 3 2 1 1 416 526 461 367
341 3 2 1 1 374 373 427 372
342 3 2 1 1 405 372 427 474
343 3 2 1 1 480 418 381 397
344 3 2 1 1 381 382 421 397
345 3 2 1 1 345 395 489 419
346 3 2 1 1 489 395 530 502
347 3 2 1 1 480 397 450 509
348 3 2 1 1 428 456 531 408
349 3 2 1 1 346 408 531 462
350 3 2 1 1 341 419 489 477
351 3 2 1 1 397 421 533 450
352 3 2 1 1 334 426 534 454
353 3 2 1 1 498 516 496 436
354 3 2 1 1 335 444 546 453
355 3 2 1 1 619 561 459 513
356 3 2 1 1 395 461 577 530
357 3 2 1 1 526 576 577 461
358 3 2 1 1 477 489 502 595
359 3 2 1 1 640 547 497 593
360 3 2 1 1 517 558 639 499
361 3 2 1 1 609 595 502 552
362 3 2 1 1 522 549 626 511
363 3 2 1 1 449 511 626 562
364 3 2 1 1 553 611 590 532
365 3 2 1 1 450 533 623 575
366 3 2 1 1 581 536 624 605
367 3 2 1 1 617 668 597 550
368 3 2 1 1 706 671 552 622
369 3 2 1 1 609 552 671 642
370 3 2 1 1 709 648 553 634
371 3 2 1 1 598 646 614 554
372 3 2 1 1 624 557 672 669
373 3 2 1 1 708 649 562 626
374 3 2 1 1 661 577 576 635
375 3 2 1 1 550 597 635 576
376 3 2 1 1 654 723 689 600
377 3 2 1 1 646 701 679 614
378 3 2 1 1 668 617 680 711
379 3 2 1 1 562 649 664 620
380 3 2 1 1 575 623 707 665
381 3 2 1 1 666 698 707 623
382 3 2 1 1 597 644 704 635
383 3 2 1 1 555 653 710 636
384 3 2 1 1 711 680 636 710
385 3 2 1 1 597 668 693 644
386 3 2 1 1 698 645 732 779
387 3 2 1 1 672 651 717 669
388 3 2 1 1 738 710 653 720
389 3 2 1 1 656 658 756 700
390 3 2 1 1 598 665 743 719
391 3 2 1 1 664 688 748 667
392 3 2 1 1 634 667 748 709
393 3 2 1 1 639 712 745 682
394 3 2 1 1 601 690 758 684
395 3 2 1 1 737 687 730 761
396 3 2 1 1 723 790 731 689
397 3 2 1 1 668 711 746 693
398 3 2 1 1 707 698 779 728
399 3 2 1 1 669 717 751 699
400 3 2 1 1 644 739 780 704
401 3 2 1 1 665 707 728 743
402 3 2 1 1 743 728 803 765
403 3 2 1 1 779 732 804 840
404 3 2 1 1 761 805 767 737
405 3 2 1 1 706 742 820 781
406 3 2 1 1 719 743 765 785
407 3 2 1 1 723 758 778 790
408 3 2 1 1 798 830 805 761
409 3 2 1 1 832 810 762 831
410 3 2 1 1 789 767 805 844
411 3 2 1 1 845 813 778 816
412 3 2 1 1 728 779 840 803
413 3 2 1 1 747 782 841 823
414 3 2 1 1 730 785 800 799
415 3 2 1 1 765 838 800 785
416 3 2 1 1 812 842 800 838
417 3 2 1 1 765 803 856 838
418 3 2 1 1 858 856 803 840
419 3 2 1 1 224 169 22 23
420 3 2 1 1 4 166 233 54
421 3 2 1 1 216 186 81 82
422 3 2 1 1 226 96 97 140
423 3 2 1 1 239 140 97 98
424 3 2 1 1 110 130 192 109
425 3 2 1 1 295 230 124 199
426 3 2 1 1 209 130 240 307
427 3 2 1 1 362 134 256 273
428 3 2 1 1 245 281 365 166
429 3 2 1 1 185 186 328 195
430 3 2 1 1 305 273 256 192
431 3 2 1 1 443 205 282 334
432 3 2 1 1 374 315 214 373
433 3 2 1 1 144 302 325 237
434 3 2 1 1 172 242 319 283
435 3 2 1 1 404 415 537 469
436 3 2 1 1 407 475 534 426
437 3 2 1 1 342 431 513 459
438 3 2 1 1 636 520 453 555
439 3 2 1 1 534 582 633 454
440 3 2 1 1 549 522 469 612
441 3 2 1 1 582 534 475 581
442 3 2 1 1 479 536 581 475
443 3 2 1 1 666 623 533 583
444 3 2 1 1 453 546 638 555
445 3 2 1 1 503 565 654 600
446 3 2 1 1 660 606 567 613
447 3 2 1 1 554 575 665 598
448 3 2 1 1 581 605 652 582
449 3 2 1 1 700 685 596 656
450 3 2 1 1 754 673 596 685
451 3 2 1 1 624 669 699 605
452 3 2 1 1 558 655 712 639
453 3 2 1 1 593 682 722 640
454 3 2 1 1 664 649 747 688
455 3 2 1 1 605 699 755 652
456 3 2 1 1 658 679 701 756
457 3 2 1 1 764 816 690 757
458 3 2 1 1 751 717 691 783
459 3 2 1 1 694 752 753 713
460 3 2 1 1 808 759 827 825
461 3 2 1 1 757 773 807 764
462 3 2 1 1 850 834 764 807
463 3 2 1 1 791 802 846 768
464 3 2 1 1 848 831 793 849
465 3 2 1 1 810 832 851 794
466 3 2 1 1 856 858 846 802
467 3 2 1 1 821 822 843 804
468 3 2 1 1 840 804 843 858
469 3 2 1 1 861 852 817 837
470 3 2 1 1 823 841 860 829
471 3 2 1 1 852 861 829 860
472 3 2 1 1 36 2 167 129
473 3 2 1 1 55 245 166 4
474 3 2 1 1 228 10 11 139
475 3 2 1 1 229 139 11 12
476 3 2 1 1 159 122 17 18
477 3 2 1 1 230 20 21 124
478 3 2 1 1 169 124 21 22
479 3 2 1 1 217 121 28 29
480 3 2 1 1 231 31 32 125
481 3 2 1 1 32 33 170 125
482 3 2 1 1 33 34 171 170
483 3 2 1 1 36 129 241 35
484 3 2 1 1 34 35 241 171
485 3 2 1 1 2 37 172 167
486 3 2 1 1 39 135 242 38
487 3 2 1 1 37 38 242 172
488 3 2 1 1 39 40 173 135
489 3 2 1 1 42 142 243 41
490 3 2 1 1 40 41 243 173
491 3 2 1 1 42 43 174 142
492 3 2 1 1 45 153 244 44
493 3 2 1 1 43 44 244 174
494 3 2 1 1 3 46 153 45
495 3 2 1 1 46 47 237 153
496 3 2 1 1 245 55 56 176
497 3 2 1 1 57 58 246 132
498 3 2 1 1 59 177 246 58
499 3 2 1 1 60 146 177 59
500 3 2 1 1 60 61 247 146
501 3 2 1 1 62 178 247 61
502 3 2 1 1 63 154 178 62
503 3 2 1 1 5 64 154 63
504 3 2 1 1 64 65 179 154
505 3 2 1 1 67 138 248 66
506 3 2 1 1 65 66 248 179
507 3 2 1 1 67 68 249 138
508 3 2 1 1 69 151 249 68
509 3 2 1 1 69 70 180 151
510 3 2 1 1 70 71 181 180
511 3 2 1 1 6 123 250 72
512 3 2 1 1 71 72 250 181
513 3 2 1 1 6 73 182 123
514 3 2 1 1 75 147 251 74
515 3 2 1 1 73 74 251 182
516 3 2 1 1 75 76 183 147
517 3 2 1 1 76 77 184 183
518 3 2 1 1 79 126 252 78
519 3 2 1 1 77 78 252 184
520 3 2 1 1 79 80 185 126
521 3 2 1 1 81 186 185 80
522 3 2 1 1 83 84 260 127
523 3 2 1 1 85 152 260 84
524 3 2 1 1 85 86 187 152
525 3 2 1 1 86 87 188 187
526 3 2 1 1 87 88 189 188
527 3 2 1 1 90 128 253 89
528 3 2 1 1 88 89 253 189
529 3 2 1 1 222 128 90 91
530 3 2 1 1 99 148 239 98
531 3 2 1 1 99 100 155 148
532 3 2 1 1 7 102 190 101
533 3 2 1 1 100 101 190 155
534 3 2 1 1 102 103 254 190
535 3 2 1 1 104 191 254 103
536 3 2 1 1 105 141 191 104
537 3 2 1 1 107 134 255 106
538 3 2 1 1 105 106 255 141
539 3 2 1 1 107 108 256 134
540 3 2 1 1 109 192 256 108
541 3 2 1 1 110 111 240 130
542 3 2 1 1 362 308 255 134
543 3 2 1 1 301 239 148 257
544 3 2 1 1 190 254 312 155
545 3 2 1 1 148 155 312 257
546 3 2 1 1 219 290 354 160
547 3 2 1 1 343 170 171 313
548 3 2 1 1 135 173 284 206
549 3 2 1 1 142 174 278 213
550 3 2 1 1 132 202 327 176
551 3 2 1 1 245 176 327 281
552 3 2 1 1 146 208 285 177
553 3 2 1 1 154 179 215 178
554 3 2 1 1 151 180 258 207
555 3 2 1 1 180 181 286 258
556 3 2 1 1 123 182 287 200
557 3 2 1 1 147 183 259 210
558 3 2 1 1 183 184 314 259
559 3 2 1 1 216 289 328 186
560 3 2 1 1 141 214 315 191
561 3 2 1 1 254 191 315 312
562 3 2 1 1 436 326 195 393
563 3 2 1 1 328 445 393 195
564 3 2 1 1 152 197 288 260
565 3 2 1 1 419 341 288 197
566 3 2 1 1 129 198 316 241
567 3 2 1 1 382 316 198 263
568 3 2 1 1 123 200 317 250
569 3 2 1 1 317 200 375 339
570 3 2 1 1 132 246 318 202
571 3 2 1 1 327 202 337 392
572 3 2 1 1 291 203 444 335
573 3 2 1 1 135 206 319 242
574 3 2 1 1 151 207 320 249
575 3 2 1 1 146 247 321 208
576 3 2 1 1 147 210 322 251
577 3 2 1 1 142 213 323 243
578 3 2 1 1 323 213 376 347
579 3 2 1 1 141 255 308 214
580 3 2 1 1 178 215 321 247
581 3 2 1 1 179 248 324 215
582 3 2 1 1 198 236 378 263
583 3 2 1 1 153 237 325 244
584 3 2 1 1 171 241 316 313
585 3 2 1 1 173 243 323 284
586 3 2 1 1 174 244 325 278
587 3 2 1 1 177 285 318 246
588 3 2 1 1 138 311 324 248
589 3 2 1 1 138 249 320 311
590 3 2 1 1 181 250 317 286
591 3 2 1 1 182 251 322 287
592 3 2 1 1 184 252 391 314
593 3 2 1 1 126 326 391 252
594 3 2 1 1 312 315 374 257
595 3 2 1 1 207 258 379 267
596 3 2 1 1 210 259 380 264
597 3 2 1 1 378 398 482 263
598 3 2 1 1 382 263 482 421
599 3 2 1 1 210 264 384 322
600 3 2 1 1 207 267 386 320
601 3 2 1 1 406 371 268 476
602 3 2 1 1 364 274 432 409
603 3 2 1 1 325 302 387 278
604 3 2 1 1 213 278 387 376
605 3 2 1 1 236 283 388 378
606 3 2 1 1 206 284 433 336
607 3 2 1 1 323 347 433 284
608 3 2 1 1 208 340 389 285
609 3 2 1 1 317 339 434 286
610 3 2 1 1 258 286 434 379
611 3 2 1 1 200 287 383 375
612 3 2 1 1 261 331 415 290
613 3 2 1 1 404 354 290 415
614 3 2 1 1 275 377 387 302
615 3 2 1 1 274 310 348 432
616 3 2 1 1 205 443 348 310
617 3 2 1 1 259 314 435 380
618 3 2 1 1 391 496 435 314
619 3 2 1 1 202 318 437 337
620 3 2 1 1 285 389 437 318
621 3 2 1 1 206 336 438 319
622 3 2 1 1 283 319 438 388
623 3 2 1 1 311 320 386 385
624 3 2 1 1 215 324 390 321
625 3 2 1 1 208 321 390 340
626 3 2 1 1 287 322 384 383
627 3 2 1 1 311 385 390 324
628 3 2 1 1 496 391 326 436
629 3 2 1 1 518 447 331 411
630 3 2 1 1 392 337 400 479
631 3 2 1 1 390 385 439 340
632 3 2 1 1 410 341 477 465
633 3 2 1 1 376 440 483 347
634 3 2 1 1 275 364 409 377
635 3 2 1 1 339 375 441 401
636 3 2 1 1 387 377 440 376
637 3 2 1 1 267 379 484 402
638 3 2 1 1 434 463 484 379
639 3 2 1 1 264 380 485 396
640 3 2 1 1 375 383 442 441
641 3 2 1 1 264 396 486 384
642 3 2 1 1 383 384 486 442
643 3 2 1 1 267 402 487 386
644 3 2 1 1 385 386 487 439
645 3 2 1 1 378 388 488 398
646 3 2 1 1 340 439 495 389
647 3 2 1 1 437 389 495 464
648 3 2 1 1 592 468 394 500
649 3 2 1 1 337 437 464 400
650 3 2 1 1 536 479 400 507
651 3 2 1 1 339 401 463 434
652 3 2 1 1 487 402 515 542
653 3 2 1 1 377 409 491 440
654 3 2 1 1 432 490 491 409
655 3 2 1 1 348 458 490 432
656 3 2 1 1 336 433 538 455
657 3 2 1 1 347 483 538 433
658 3 2 1 1 380 435 545 485
659 3 2 1 1 496 516 545 435
660 3 2 1 1 336 455 539 438
661 3 2 1 1 388 438 539 488
662 3 2 1 1 487 542 495 439
663 3 2 1 1 401 441 492 451
664 3 2 1 1 441 442 540 492
665 3 2 1 1 334 454 544 443
666 3 2 1 1 348 443 544 458
667 3 2 1 1 329 446 497 445
668 3 2 1 1 401 451 541 463
669 3 2 1 1 544 454 633 591
670 3 2 1 1 539 455 625 563
671 3 2 1 1 538 579 625 455
672 3 2 1 1 400 464 580 507
673 3 2 1 1 537 568 612 469
674 3 2 1 1 525 480 509 569
675 3 2 1 1 398 505 583 482
676 3 2 1 1 421 482 583 533
677 3 2 1 1 440 491 543 483
678 3 2 1 1 402 484 584 515
679 3 2 1 1 463 541 584 484
680 3 2 1 1 396 485 565 503
681 3 2 1 1 545 637 565 485
682 3 2 1 1 396 503 585 486
683 3 2 1 1 442 486 585 540
684 3 2 1 1 398 488 586 505
685 3 2 1 1 539 563 586 488
686 3 2 1 1 458 514 587 490
687 3 2 1 1 491 490 587 543
688 3 2 1 1 451 492 588 504
689 3 2 1 1 464 495 542 580
690 3 2 1 1 532 501 634 553
691 3 2 1 1 667 634 501 589
692 3 2 1 1 451 504 564 541
693 3 2 1 1 557 507 580 628
694 3 2 1 1 458 544 591 514
695 3 2 1 1 591 608 670 514
696 3 2 1 1 587 514 670 627
697 3 2 1 1 542 515 628 580
698 3 2 1 1 498 594 551 516
699 3 2 1 1 680 571 520 636
700 3 2 1 1 507 557 624 536
701 3 2 1 1 483 543 579 538
702 3 2 1 1 492 540 630 588
703 3 2 1 1 516 551 637 545
704 3 2 1 1 594 683 601 551
705 3 2 1 1 628 632 672 557
706 3 2 1 1 586 563 650 631
707 3 2 1 1 541 564 632 584
708 3 2 1 1 504 599 651 564
709 3 2 1 1 637 684 654 565
710 3 2 1 1 548 596 673 568
711 3 2 1 1 519 571 680 617
712 3 2 1 1 543 587 627 579
713 3 2 1 1 633 582 652 677
714 3 2 1 1 505 602 666 583
715 3 2 1 1 515 584 632 628
716 3 2 1 1 503 600 674 585
717 3 2 1 1 540 585 674 630
718 3 2 1 1 505 586 631 602
719 3 2 1 1 504 588 675 599
720 3 2 1 1 677 608 591 633
721 3 2 1 1 499 639 682 593
722 3 2 1 1 719 687 646 598
723 3 2 1 1 551 601 684 637
724 3 2 1 1 690 601 683 757
725 3 2 1 1 698 666 602 645
726 3 2 1 1 677 694 713 608
727 3 2 1 1 561 619 679 658
728 3 2 1 1 579 627 676 625
729 3 2 1 1 563 625 676 650
730 3 2 1 1 549 641 708 626
731 3 2 1 1 588 630 714 675
732 3 2 1 1 602 631 715 645
733 3 2 1 1 564 651 672 632
734 3 2 1 1 744 686 642 671
735 3 2 1 1 631 650 716 715
736 3 2 1 1 599 691 717 651
737 3 2 1 1 723 654 684 758
738 3 2 1 1 627 670 718 676
739 3 2 1 1 608 713 718 670
740 3 2 1 1 600 689 749 674
741 3 2 1 1 630 674 749 714
742 3 2 1 1 599 675 750 691
743 3 2 1 1 650 676 718 716
744 3 2 1 1 652 755 694 677
745 3 2 1 1 747 823 760 688
746 3 2 1 1 816 778 758 690
747 3 2 1 1 783 691 750 806
748 3 2 1 1 788 752 694 755
749 3 2 1 1 755 699 751 788
750 3 2 1 1 685 700 789 724
751 3 2 1 1 673 754 771 703
752 3 2 1 1 820 742 704 780
753 3 2 1 1 641 725 782 708
754 3 2 1 1 718 713 753 716
755 3 2 1 1 675 714 768 750
756 3 2 1 1 749 791 768 714
757 3 2 1 1 645 715 784 732
758 3 2 1 1 716 753 784 715
759 3 2 1 1 687 719 785 730
760 3 2 1 1 831 762 724 793
761 3 2 1 1 761 730 799 798
762 3 2 1 1 689 731 791 749
763 3 2 1 1 842 812 731 790
764 3 2 1 1 802 791 731 812
765 3 2 1 1 804 732 784 821
766 3 2 1 1 807 773 745 824
767 3 2 1 1 768 846 806 750
768 3 2 1 1 822 788 751 783
769 3 2 1 1 788 822 821 752
770 3 2 1 1 752 821 784 753
771 3 2 1 1 700 756 767 789
772 3 2 1 1 795 760 823 829
773 3 2 1 1 744 781 837 817
774 3 2 1 1 857 837 781 820
775 3 2 1 1 725 794 841 782
776 3 2 1 1 822 783 806 843
777 3 2 1 1 760 795 819 786
778 3 2 1 1 813 845 798 799
779 3 2 1 1 844 805 830 859
780 3 2 1 1 156 118 119 143
781 3 2 1 1 280 368 217 157
782 3 2 1 1 411 342 459 518
783 3 2 1 1 518 459 561 629
784 3 2 1 1 513 525 569 619
785 3 2 1 1 642 655 558 609
786 3 2 1 1 500 610 678 592
787 3 2 1 1 555 638 681 653
788 3 2 1 1 860 841 794 851
789 3 2 1 1 858 843 806 846
790 3 2 1 1 235 159 194 271
791 3 2 1 1 203 291 225 133
792 3 2 1 1 593 497 446 499
793 3 2 1 1 595 517 465 477
794 3 2 1 1 445 328 289 329
795 3 2 1 1 350 410 329 289
796 3 2 1 1 712 792 824 745
797 3 2 1 1 655 733 792 712
798 3 2 1 1 82 83 127 216
799 3 2 1 1 289 216 127 350
800 3 2 1 1 288 350 127 260
$EndElements
