$MeshFormat
2.2 0 8
$EndMeshFormat
$Nodes
80
7 0 0 0
8 100 0 0
9 0 50 0
10 100 50 0
11 0 100 0
12 100 100 0
15 20 0 0
16 40 0 0
17 60 0 0
18 80 0 0
19 0 33.3333333333333 0
20 0 16.6666666666667 0
21 100 16.6666666666667 0
22 100 33.3333333333333 0
23 0 83.3333333333333 0
24 0 66.6666666666667 0
25 100 66.6666666666667 0
26 100 83.3333333333333 0
27 80 100 0
28 60 100 0
29 40 100 0
30 20 100 0
31 62 50 0
32 81 50 0
33 61.2117456484238 83.2322869222253 0
34 81.6135287626877 33.2386440836181 0
35 80.778236691751 66.6361742562839 0
36 63.5271734565573 16.2420266495316 0
37 80.4823769845551 83.3044701568368 0
38 61.7226944085373 66.5827440549555 0
39 81.2325783535377 16.5692319913444 0
40 64.1563356429088 32.8666194088799 0
49 43 23 0
50 43 50 0
51 43 83 0
52 23 83 0
53 23 50 0
54 23 23 0
55 43 66.5 0
56 23 66.5 0
49 100 0 0
50 100 50 0
51 100 100 0
52 200 0 0
53 200 50 0
54 200 100 0
61 100 16.6666666666667 0
62 100 33.3333333333333 0
63 100 66.6666666666667 0
64 100 83.3333333333333 0
65 120 0 0
66 140 0 0
67 160 0 0
68 180 0 0
69 200 16.6666666666667 0
70 200 33.3333333333333 0
71 200 66.6666666666667 0
72 200 83.3333333333333 0
73 180 100 0
74 160 100 0
75 140 100 0
76 120 100 0
79 162 50 0
80 181 50 0
81 161.211745648424 83.2322869222253 0
82 181.613528762688 33.2386440836181 0
83 180.778236691751 66.6361742562839 0
84 163.527173456557 16.2420266495316 0
85 180.482376984555 83.3044701568368 0
86 161.722694408537 66.5827440549555 0
87 181.232578353538 16.5692319913444 0
88 164.156335642909 32.8666194088799 0
97 143 23 0
98 143 50 0
99 143 83 0
100 123 83 0
101 123 50 0
102 123 23 0
103 143 66.5 0
104 123 66.5 0
$EndNodes
$Elements
58
5 3 2 1 1 35 25 26 37
6 3 2 1 1 10 25 35 32
7 3 2 1 1 8 21 39 18
12 3 2 1 1 37 26 12 27
13 3 2 1 1 34 22 10 32
14 3 2 1 1 40 34 32 31
15 3 2 1 1 36 17 18 39
16 3 2 1 1 34 39 21 22
17 3 2 1 1 39 34 40 36
18 3 2 1 1 31 32 35 38
20 3 2 1 1 27 28 33 37
26 3 2 1 1 35 37 33 38
1 2 2 1 1 19 20 54 
2 2 2 1 1 36 40 49 
3 3 2 1 1 56 24 9 53
4 3 2 1 1 52 23 24 56
8 3 2 1 1 54 15 16 49
9 3 2 1 1 29 30 52 51
10 3 2 1 1 49 16 17 36
11 3 2 1 1 30 11 23 52
19 3 2 1 1 38 55 50 31
21 3 2 1 1 51 33 28 29
22 3 2 1 1 20 7 15 54
23 3 2 1 1 50 49 40 31
24 3 2 1 1 19 54 53 9
25 3 2 1 1 51 55 38 33
27 3 2 1 1 54 49 50 53
28 3 2 1 1 56 55 51 52
29 3 2 1 1 55 56 53 50
34 3 2 2 2 83 71 72 85
35 3 2 2 2 53 71 83 80
36 3 2 2 2 52 69 87 68
41 3 2 2 2 85 72 54 73
42 3 2 2 2 82 70 53 80
43 3 2 2 2 88 82 80 79
44 3 2 2 2 84 67 68 87
45 3 2 2 2 82 87 69 70
46 3 2 2 2 87 82 88 84
47 3 2 2 2 79 80 83 86
49 3 2 2 2 73 74 81 85
55 3 2 2 2 83 85 81 86
30 2 2 2 2 102 62 61 
31 2 2 2 2 84 88 97 
32 3 2 2 2 104 63 50 101
33 3 2 2 2 100 64 63 104
37 3 2 2 2 102 65 66 97
38 3 2 2 2 75 76 100 99
39 3 2 2 2 97 66 67 84
40 3 2 2 2 76 51 64 100
48 3 2 2 2 86 103 98 79
50 3 2 2 2 99 81 74 75
51 3 2 2 2 61 49 65 102
52 3 2 2 2 98 97 88 79
53 3 2 2 2 62 102 101 50
54 3 2 2 2 99 103 86 81
56 3 2 2 2 102 97 98 101
57 3 2 2 2 104 103 99 100
58 3 2 2 2 103 104 101 98
$EndElements
