$MeshFormat
2.2 0 8
$EndMeshFormat
$Nodes
1378
1 200 200 0
2 400 200 0
3 400 380 0
4 400 500 0
5 400 600 0
6 375 600 0
7 200 600 0
8 200 540 0
9 200 500 0
10 200 460 0
11 100 700 0
12 400 700 0
13 400 900 0
14 100 900 0
15 0 0 0
16 500 0 0
17 0 300 0
18 500 300 0
19 0 500 0
20 500 500 0
21 0 700 0
22 500 700 0
23 0 1000 0
24 500 1000 0
25 225 200 0
26 250 200 0
27 275 200 0
28 300 200 0
29 325 200 0
30 350 200 0
31 375 200 0
32 400 225.714285714286 0
33 400 251.428571428571 0
34 400 277.142857142857 0
35 400 302.857142857143 0
36 400 328.571428571429 0
37 400 354.285714285714 0
38 400 404 0
39 400 428 0
40 400 452 0
41 400 476 0
42 400 525 0
43 400 550 0
44 400 575 0
45 350 600 0
46 325 600 0
47 300 600 0
48 275 600 0
49 250 600 0
50 225 600 0
51 200 570 0
52 200 520 0
53 200 480 0
54 200 434 0
55 200 408 0
56 200 382 0
57 200 356 0
58 200 330 0
59 200 304 0
60 200 278 0
61 200 252 0
62 200 226 0
63 125 700 0
64 150 700 0
65 175 700 0
66 200 700 0
67 225 700 0
68 250 700 0
69 275 700 0
70 300 700 0
71 325 700 0
72 350 700 0
73 375 700 0
74 400 725 0
75 400 750 0
76 400 775 0
77 400 800 0
78 400 825 0
79 400 850 0
80 400 875 0
81 375 900 0
82 350 900 0
83 325 900 0
84 300 900 0
85 275 900 0
86 250 900 0
87 225 900 0
88 200 900 0
89 175 900 0
90 150 900 0
91 125 900 0
92 100 875 0
93 100 850 0
94 100 825 0
95 100 800 0
96 100 775 0
97 100 750 0
98 100 725 0
99 25 0 0
100 50 0 0
101 75 0 0
102 100 0 0
103 125 0 0
104 150 0 0
105 175 0 0
106 200 0 0
107 225 0 0
108 250 0 0
109 275 0 0
110 300 0 0
111 325 0 0
112 350 0 0
113 375 0 0
114 400 0 0
115 425 0 0
116 450 0 0
117 475 0 0
118 0 275 0
119 0 250 0
120 0 225 0
121 0 200 0
122 0 175 0
123 0 150 0
124 0 125 0
125 0 100 0
126 0 75 0
127 0 50 0
128 0 25 0
129 500 25 0
130 500 50 0
131 500 75 0
132 500 100 0
133 500 125 0
134 500 150 0
135 500 175 0
136 500 200 0
137 500 225 0
138 500 250 0
139 500 275 0
140 0 475 0
141 0 450 0
142 0 425 0
143 0 400 0
144 0 375 0
145 0 350 0
146 0 325 0
147 500 325 0
148 500 350 0
149 500 375 0
150 500 400 0
151 500 425 0
152 500 450 0
153 500 475 0
154 0 675 0
155 0 650 0
156 0 625 0
157 0 600 0
158 0 575 0
159 0 550 0
160 0 525 0
161 500 525 0
162 500 550 0
163 500 575 0
164 500 600 0
165 500 625 0
166 500 650 0
167 500 675 0
168 0 975 0
169 0 950 0
170 0 925 0
171 0 900 0
172 0 875 0
173 0 850 0
174 0 825 0
175 0 800 0
176 0 775 0
177 0 750 0
178 0 725 0
179 500 725 0
180 500 750 0
181 500 775 0
182 500 800 0
183 500 825 0
184 500 850 0
185 500 875 0
186 500 900 0
187 500 925 0
188 500 950 0
189 500 975 0
190 475 1000 0
191 450 1000 0
192 425 1000 0
193 400 1000 0
194 375 1000 0
195 350 1000 0
196 325 1000 0
197 300 1000 0
198 275 1000 0
199 250 1000 0
200 225 1000 0
201 200 1000 0
202 175 1000 0
203 150 1000 0
204 125 1000 0
205 100 1000 0
206 74.9999999999999 1000 0
207 50 1000 0
208 24.9999999999999 1000 0
209 25 500 0
210 50 500 0
211 75 500 0
212 100 500 0
213 125 500 0
214 150 500 0
215 175 500 0
216 425 500 0
217 450 500 0
218 475 500 0
219 20 684 0
220 40 668 0
221 60 652 0
222 80 636 0
223 100 620 0
224 120 604 0
225 140 588 0
226 160 572 0
227 180 556 0
228 420 364 0
229 440 348 0
230 460 332 0
231 480 316 0
232 20 316 0
233 40 332 0
234 60 348 0
235 80 364 0
236 100 380 0
237 120 396 0
238 140 412 0
239 160 428 0
240 180 444 0
241 395.833333333333 616.666666666667 0
242 416.666666666667 633.333333333333 0
243 437.5 650 0
244 458.333333333333 666.666666666667 0
245 479.166666666667 683.333333333333 0
246 324.999999969025 24.9999999842149 0
247 200.00001042259 25.0021856831549 0
248 25.0047429117003 150.028080354767 0
249 25.1121999643443 249.788954508381 0
250 375.004470169174 175.001710564074 0
251 274.999694235722 175.00176928398 0
252 399.999999261573 24.9999996513994 0
253 199.943123396234 175.231079210867 0
254 174.695399922294 200.829513151217 0
255 174.271523603566 252.480352551423 0
256 124.999948639502 25.0013316288184 0
257 475.001454812431 124.996826604993 0
258 25.0004293632954 100.000620171986 0
259 170.617430466773 309.149998195547 0
260 427.663993238213 598.010774507186 0
261 424.294909303464 435.287146926284 0
262 175 975 0
263 49.9999999995722 975.000000018407 0
264 124.999999999733 925.000000011505 0
265 250 925 0
266 475.032446345866 175.004909128445 0
267 225.024831142984 625.018778717668 0
268 142.656210887574 678.308964141744 0
269 424.999996315525 900.000000047155 0
270 399.999999769847 924.99999999081 0
271 74.9992195808735 875.000161108002 0
272 355.619615752216 630.393329690947 0
273 299.336484137508 624.833752689854 0
274 424.898448282361 751.565874748677 0
275 424.994535237288 825.004748438023 0
276 350.000000000004 924.999999999658 0
277 74.8082338782483 799.851542381971 0
278 82.9748735142279 722.800915709397 0
279 74.9999710202793 25.0001518759349 0
280 474.999991742622 49.9999950626557 0
281 475.108959866737 225.03629182406 0
282 475.317688931201 550.189903059625 0
283 475.952808776804 600.641922054108 0
284 418.303913185527 303.274601991274 0
285 18.9567891696833 416.076316239302 0
286 17.4751662270337 600.733505682902 0
287 174.318077811725 355.297962603415 0
288 483.313813312603 399.255610668506 0
289 200 925 0
290 124.999999999733 975.000000011505 0
291 200 975 0
292 275 975 0
293 200.683293851057 675.006352139043 0
294 225.144992570541 675.007145399321 0
295 274.973212924989 674.871715960749 0
296 299.878748617069 674.260440084734 0
297 348.583875567902 681.510097530983 0
298 300 924.999999999999 0
299 24.9999999522283 925.00000205538 0
300 24.9999428629898 900.000035665446 0
301 24.9994225431171 875.000456401948 0
302 24.9739382381291 825.026851375471 0
303 24.8854880642211 800.210045093567 0
304 25.2713825620443 758.90513169007 0
305 467.86182571755 726.838033070758 0
306 473.695449503838 750.575075289824 0
307 474.944056540987 800.049228519274 0
308 474.98819575003 825.010177555797 0
309 474.999887518259 875.000035370784 0
310 474.999982255151 900.000004483422 0
311 424.999999994362 974.999999995449 0
312 375.000000000007 974.999999999334 0
313 425.268933089275 225.50554926351 0
314 175.903226024976 485.855284927016 0
315 171.537171822182 529.860803137692 0
316 173.670097883963 373.641317258664 0
317 373.537591607582 621.081170894854 0
318 429.781884333541 280.63274965018 0
319 471.421574684941 418.200848646167 0
320 25.000016037096 50.0000142035752 0
321 425.338092190868 550.050008636113 0
322 26.2932833219157 475.029123520876 0
323 474.480234678365 474.987408669332 0
324 25.7423618796096 550.475634297979 0
325 474.999999994376 974.999999994189 0
326 74.9999999988235 975.000000050621 0
327 299.999999988923 24.9999999908221 0
328 449.999999161216 24.9999995442085 0
329 24.9999999999465 975.000000002301 0
330 474.999998777646 24.9999992880169 0
331 325 974.999999999992 0
332 249.999999330985 25.0004278941594 0
333 25.0102457988021 200.34309508667 0
334 175 925 0
335 49.9999946136807 25.0000469051395 0
336 25.0000017214674 25.0000107194402 0
337 175.00000879581 25.0030756219876 0
338 474.999950348639 74.9998858818701 0
339 368.152627834228 672.220507192369 0
340 425.155323461343 734.627622964692 0
341 224.988304135853 175.061915789758 0
342 299.999955396938 175.000291395163 0
343 325.000114904361 175.000090498063 0
344 425.110280994653 525.037769603178 0
345 424.967802108511 800.054025308771 0
346 424.999937647887 875.000000444121 0
347 74.9544792587888 824.983878925899 0
348 71.7890360525674 742.2733898255 0
349 475.109357937758 525.064998641057 0
350 474.999997322143 925.00000048915 0
351 225 975 0
352 374.99999941816 24.9999997251165 0
353 274.862361739714 624.92358189134 0
354 25.1797623888968 525.153574337958 0
355 102.636981826647 679.42891172403 0
356 22.0836345783659 388.473823025739 0
357 474.5222958423 249.350406608394 0
358 424.52141388377 475.842629667646 0
359 481.67810762419 707.334067478871 0
360 414.504447159335 349.80980402776 0
361 31.6296092337107 295.843367019398 0
362 468.604294417961 272.609531974577 0
363 477.654806574856 298.823884523318 0
364 24.178501023867 708.241926222383 0
365 424.259130053239 387.029923621294 0
366 184.861847638752 428.3503925451 0
367 23.0267333405969 364.588087218458 0
368 474.02595775938 352.631274957093 0
369 26.6887051248105 647.059194452413 0
370 477.383607013936 625.983987944632 0
371 185.123612146274 573.455846018794 0
372 169.678292828866 459.834155351355 0
373 22.4026050853599 340.481230495583 0
374 485.249261007685 330.047644555322 0
375 14.9038133212589 669.850290984893 0
376 479.16885700411 651.159455230969 0
377 174.857359706192 175.575894536052 0
378 325.000000623022 50.0000041351732 0
379 374.999997684653 49.9999942088428 0
380 199.999967831689 50.0168110737637 0
381 274.999562369007 150.003354293614 0
382 199.970483495329 150.241244655214 0
383 400.020564631178 175.014702932482 0
384 99.9999999770662 925.000000986728 0
385 74.9998454105851 900.000051502043 0
386 424.999999050604 924.99999996363 0
387 200.258956207358 624.987838593992 0
388 425.102202196462 200.175568276699 0
389 45.7658586255914 417.731368123541 0
390 51.019027557541 475.81301683598 0
391 146.513752587028 521.77056218581 0
392 403.884489312265 684.211415234554 0
393 452.049820024099 599.971820808556 0
394 75.0000127757718 700.000001565541 0
395 428.039762949904 709.025830915658 0
396 379.448286808882 650.893323478463 0
397 38.636584804528 394.666198812775 0
398 454.496608042232 302.125227345071 0
399 453.332931536555 701.788357023894 0
400 149.946554551198 358.490455518703 0
401 456.546561092764 393.248088743275 0
402 448.00204582597 370.591209991854 0
403 53.2532208960942 627.751305618837 0
404 449.309122481293 475.363025103927 0
405 426.009496598699 251.010567471541 0
406 475.604286258359 575.252560642812 0
407 25.7596431111922 267.391185291628 0
408 449.158087031214 751.434547425467 0
409 473.599938553901 448.913048322433 0
410 174.524635277801 226.520205061585 0
411 173.744385216631 278.801466719196 0
412 182.37343036658 331.202121973985 0
413 478.577743442913 381.380324750933 0
414 175 950 0
415 49.999999982827 950.000000738868 0
416 24.9999999869592 950.000000561081 0
417 149.999999999967 975.000000001438 0
418 349.999999760035 24.9999998329546 0
419 424.999999176103 24.99999960641 0
420 225 925 0
421 200 950 0
422 275 925 0
423 149.999999999967 925.000000001438 0
424 224.999999244067 25.0019924009834 0
425 25.0016798261541 125.006163151609 0
426 25.000123795897 75.000193781202 0
427 475.010928602229 149.996434051871 0
428 149.999989970425 25.0028230418501 0
429 350.000000000002 974.999999999783 0
430 99.9999999988569 975.000000049183 0
431 99.9999508979741 25.0007412165579 0
432 475.000080226407 99.9991414987397 0
433 250 975 0
434 50.0000325211025 50.0004240929475 0
435 449.999977848861 49.9999811922614 0
436 350.000968413358 175.000369481941 0
437 249.982286259381 624.983266288866 0
438 250.015926996261 674.974592886065 0
439 274.999999344344 25.000133631655 0
440 299.999926887324 150.000712098809 0
441 249.997425285034 175.015403601489 0
442 324.189327635898 626.64455259518 0
443 328.416047788921 671.462509517995 0
444 424.882643111816 775.384963349741 0
445 424.99865475857 850.001038211427 0
446 374.999999971243 924.999999997728 0
447 74.9910943311832 849.998985873612 0
448 74.1934706736077 773.681835191102 0
449 24.9939722289588 850.004978321893 0
450 24.7720533629312 776.399652604931 0
451 474.68833503201 775.24836487117 0
452 474.997754844789 850.001794070503 0
453 474.99999960792 950.000000040716 0
454 449.99999996278 974.999999995269 0
455 399.999999999314 974.999999997681 0
456 450.158508505492 525.070840045256 0
457 449.999671397585 875.000196711138 0
458 449.999943546274 900.000027381569 0
459 49.9997747237867 900.000106585908 0
460 298.920631556927 649.47753816746 0
461 449.921072477487 800.102374111784 0
462 49.9386408634206 825.013466589849 0
463 55.9124232202035 715.665429882074 0
464 325.000000000001 924.999999999949 0
465 300 974.999999999998 0
466 201.193706350089 650.071539434411 0
467 25.0081663129175 175.147213822787 0
468 450.244131627186 249.456487169102 0
469 50.5312406381857 550.478504981052 0
470 50.4247301749557 525.291963270425 0
471 32.458514934177 449.01403760471 0
472 175.048987470161 674.951001367969 0
473 475.068749057397 200.036538161916 0
474 25.0046370358913 225.571856300122 0
475 28.4926929060742 580.172247311375 0
476 121.405782255137 661.076226780153 0
477 22.90872145483 618.68257713099 0
478 424.070027535083 452.482371031726 0
479 52.613293634246 311.836978109516 0
480 150.033004987906 553.782800909673 0
481 425.874687189195 574.746511884625 0
482 68.0793380440782 675.243196111049 0
483 408.612202337008 611.298292052422 0
484 173.32113559239 597.741091256985 0
485 33.1326607107145 730.414197920699 0
486 432.771136234782 407.71771701776 0
487 46.8958774566333 691.799610065167 0
488 463.691284547317 650.160444373692 0
489 147.170258924021 442.40172051929 0
490 155.557961620051 476.244015700184 0
491 425.090465404323 327.947606410519 0
492 172.425697598165 403.007533344312 0
493 46.5089791836498 355.203411525112 0
494 174.941884754745 150.478984079519 0
495 49.9996661396867 150.102594420221 0
496 149.55604195394 201.273232235484 0
497 150.00011431478 50.0230521182197 0
498 375.003926044193 150.001740704043 0
499 274.99999073124 50.0005615784305 0
500 49.9562911641696 200.986163343881 0
501 149.427517510071 279.853521519128 0
502 274.999593815239 125.004589609985 0
503 450.003299540054 124.996410362939 0
504 127.898264654052 424.623449776121 0
505 450.018716681752 149.997744483962 0
506 224.999944209665 50.0086137538725 0
507 399.999988251642 49.9999861719995 0
508 249.997064062686 150.023076469431 0
509 49.8431569010309 569.992059500338 0
510 153.518823994419 648.283175571744 0
511 128.016062058909 483.663143452691 0
512 49.6597763873354 252.804106665081 0
513 44.2898926282639 276.194891634622 0
514 88.339142344455 343.290892972802 0
515 451.011562221507 574.989849316382 0
516 108.393887169643 641.958090827582 0
517 146.11961185969 385.278737996735 0
518 147.287550722808 614.522308997572 0
519 445.600477405832 423.390248280649 0
520 448.304578955873 450.410897401473 0
521 343.55555963549 647.781233011657 0
522 153.103089862688 331.960020149725 0
523 48.4332334374305 748.931818376186 0
524 149.292733418394 227.17543677311 0
525 449.681003654759 775.487159173822 0
526 124.999999997889 950.00000009081 0
527 350.000000980381 49.9999996821256 0
528 74.9999665680275 925.000014326978 0
529 74.9999958100428 950.000002262454 0
530 149.999999999694 950.000000013149 0
531 250 950 0
532 49.9999541382126 925.000021929278 0
533 225 950 0
534 424.999974961887 49.9999809310191 0
535 50.0001584848605 75.0031690009213 0
536 100.000028957576 50.0083104392876 0
537 449.999941318138 74.9997537534987 0
538 224.987673392198 150.091899183214 0
539 300 949.999999999994 0
540 299.999996977497 50.0001385131804 0
541 325.000207458205 150.000219950128 0
542 225.249908479506 650.011784041391 0
543 424.999999807194 949.999999976844 0
544 399.999999885578 949.99999999102 0
545 49.9843963038505 850.003512982284 0
546 49.9966774137366 875.000887183637 0
547 449.997202580497 850.002228165486 0
548 449.979732400508 825.02334676144 0
549 349.999999998207 949.999999999478 0
550 49.2771074328283 774.965065537012 0
551 49.7451070344902 800.020144837788 0
552 450.44521212971 550.087247194892 0
553 274.774509829306 649.81701081347 0
554 449.999990921107 925.000003724154 0
555 449.999998537326 950.000000485365 0
556 75.0000516734237 50.003581379303 0
557 49.9997334084137 125.036864128682 0
558 175.000067023514 50.0267209666623 0
559 425.045338895478 175.035033605548 0
560 75.3924402027432 476.075280944247 0
561 76.2339440815852 525.660337586414 0
562 56.6759364466096 453.410165833573 0
563 173.374335733385 625.801676342234 0
564 450.054081308963 175.031582165631 0
565 183.537553895115 649.998236792879 0
566 450.198909772368 225.099642682746 0
567 395.39097156529 639.977298274149 0
568 71.8551504148591 433.277867619965 0
569 316.430165926274 649.054897418937 0
570 448.688787700987 726.613137225585 0
571 43.9700111169825 603.737669628299 0
572 450.400291245477 267.742749261981 0
573 432.577445568368 676.659628925154 0
574 130.705161873101 543.268511801576 0
575 127.00343869819 515.884736590758 0
576 48.3730967418807 379.989660166961 0
577 452.310214867382 629.155710149538 0
578 432.892648613287 618.364031699026 0
579 70.6989102547402 327.874022110718 0
580 89.3315653075759 658.181340272416 0
581 414.357993650174 657.350145700186 0
582 135.030817503377 571.944383551918 0
583 77.7776409970463 610.525445467336 0
584 74.9733198478363 150.250238913837 0
585 174.980357812893 125.35527951037 0
586 325.000011453487 75.0000620309638 0
587 375.00006926481 74.9999786418654 0
588 124.566527290189 201.592047846633 0
589 73.7504244858083 256.141355009444 0
590 108.539221337933 575.304926763915 0
591 80.5932669525064 312.686337479057 0
592 224.999506175632 75.0258421594052 0
593 174.999573210632 75.0919382175182 0
594 400.010307290291 150.004781275153 0
595 199.986494051708 125.191880119917 0
596 75.5322512132445 551.17610280795 0
597 127.095935771978 343.455058603413 0
598 69.3560878107553 582.123784413005 0
599 105.535687361181 472.706229018344 0
600 106.417688255573 527.842578009674 0
601 150.377915319108 299.896341025816 0
602 149.225126870193 253.656399420733 0
603 149.790945731857 175.882021142923 0
604 49.8113983835192 226.919543725863 0
605 99.9999973823071 950.000001369704 0
606 249.999947874479 50.0038209487581 0
607 224.993222280261 125.082489900424 0
608 425.004626161332 124.999075304647 0
609 350.001233803909 150.000511226783 0
610 424.999983155355 74.9997883393626 0
611 275 949.999999999999 0
612 450.00075431146 99.9988303127904 0
613 249.997417868225 125.028301146465 0
614 299.999916314421 125.001229488623 0
615 299.99998270342 75.000449174756 0
616 374.999999967457 949.999999997216 0
617 324.999999999776 949.999999999888 0
618 250.002256576383 649.957718378297 0
619 75.0000488761721 75.0173900394668 0
620 50.0000385446972 100.015850556946 0
621 125.000091159614 50.0192921815024 0
622 425.018524856754 150.007295145215 0
623 49.9833562116806 175.407166998599 0
624 132.842890643637 645.811233379552 0
625 450.112952568787 200.104111574129 0
626 74.7677018566014 459.627305142818 0
627 66.4473661693636 392.59709015899 0
628 127.193067435904 627.682171893016 0
629 106.272781540912 357.787926185636 0
630 124.960512079303 371.080177015913 0
631 129.657333406018 456.106189162043 0
632 115.19287596745 410.228832824402 0
633 94.3725381029657 603.163901110568 0
634 398.442621210908 663.335885390929 0
635 325.000177844393 125.000341455705 0
636 375.00190363434 125.000632233597 0
637 249.999726354021 75.0098611967111 0
638 74.9899651860639 125.132643399189 0
639 124.784071190356 175.965051663205 0
640 74.9196973897985 175.666860404402 0
641 74.8063466337296 201.581176254541 0
642 124.321360505375 228.050336972708 0
643 124.414089133563 255.422021061909 0
644 132.764493995643 315.187767213466 0
645 74.5363939567531 228.226068409771 0
646 90.2780436616409 449.887811650867 0
647 70.5165858043817 289.339706349667 0
648 174.994508255675 100.210315028089 0
649 149.912857025304 150.649391253034 0
650 350.000050366226 75.0000142989202 0
651 325.000071145832 100.000255685737 0
652 274.999893253491 75.0029404628003 0
653 249.998796650671 100.020963704729 0
654 274.999550120001 100.006904140046 0
655 400.004177752335 125.001062917707 0
656 425.001205638979 99.9993358593627 0
657 400.000143697738 74.9998815786343 0
658 199.995062318773 100.124756658517 0
659 149.999309237964 75.1027485869066 0
660 99.999680247492 75.047519186301 0
661 199.998706127359 75.0634157365364 0
662 74.9973638034426 100.065091094945 0
663 95.5831750207775 550.929487413422 0
664 100.860003832498 319.662895430083 0
665 110.466825785274 436.735300464135 0
666 93.076270462437 410.583259832518 0
667 149.993332723698 100.256219424242 0
668 99.9310067978507 150.491214405885 0
669 125.91005259882 283.621860114664 0
670 149.969322052917 125.442250404366 0
671 375.00069557369 100.000128236659 0
672 350.000333539085 100.000143776827 0
673 299.999912769785 100.001746470035 0
674 224.996819772029 100.061635441073 0
675 400.00129644466 99.9999607839991 0
676 350.000883626515 125.000391417119 0
677 124.998895888377 75.0868193040722 0
678 99.9943746304511 100.14234316385 0
679 124.905318874726 150.635329380358 0
680 99.826248042428 175.893382628815 0
681 99.6540146721804 201.805644476233 0
682 99.215328551714 256.911274035148 0
683 100.335739708367 286.580911299158 0
684 112.533619161749 341.176183093596 0
685 124.965288587842 125.397786261556 0
686 124.989721276368 100.213666322957 0
687 99.972164005775 125.280924261106 0
688 99.4168976559336 228.644987112251 0
689 500 0 0
690 500 300 0
691 500 500 0
692 500 700 0
693 500 1000 0
694 1000 0 0
695 1000 300 0
696 1000 500 0
697 1000 700 0
698 1000 1000 0
699 700 200 0
700 900 200 0
701 900 380 0
702 900 500 0
703 900 600 0
704 875 600 0
705 700 600 0
706 700 540 0
707 700 500 0
708 700 460 0
709 600 700 0
710 900 700 0
711 900 900 0
712 600 900 0
713 500 25 0
714 500 50 0
715 500 75 0
716 500 100 0
717 500 125 0
718 500 150 0
719 500 175 0
720 500 200 0
721 500 225 0
722 500 250 0
723 500 275 0
724 500 325 0
725 500 350 0
726 500 375 0
727 500 400 0
728 500 425 0
729 500 450 0
730 500 475 0
731 500 525 0
732 500 550 0
733 500 575 0
734 500 600 0
735 500 625 0
736 500 650 0
737 500 675 0
738 500 725 0
739 500 750 0
740 500 775 0
741 500 800 0
742 500 825 0
743 500 850 0
744 500 875 0
745 500 900 0
746 500 925 0
747 500 950 0
748 500 975 0
749 525 0 0
750 550 0 0
751 575 0 0
752 600 0 0
753 625 0 0
754 650 0 0
755 675 0 0
756 700 0 0
757 725 0 0
758 750 0 0
759 775 0 0
760 800 0 0
761 825 0 0
762 850 0 0
763 875 0 0
764 900 0 0
765 925 0 0
766 950 0 0
767 975 0 0
768 1000 25 0
769 1000 50 0
770 1000 75 0
771 1000 100 0
772 1000 125 0
773 1000 150 0
774 1000 175 0
775 1000 200 0
776 1000 225 0
777 1000 250 0
778 1000 275 0
779 1000 325 0
780 1000 350 0
781 1000 375 0
782 1000 400 0
783 1000 425 0
784 1000 450 0
785 1000 475 0
786 1000 525 0
787 1000 550 0
788 1000 575 0
789 1000 600 0
790 1000 625 0
791 1000 650 0
792 1000 675 0
793 1000 725 0
794 1000 750 0
795 1000 775 0
796 1000 800 0
797 1000 825 0
798 1000 850 0
799 1000 875 0
800 1000 900 0
801 1000 925 0
802 1000 950 0
803 1000 975 0
804 975 1000 0
805 950 1000 0
806 925 1000 0
807 900 1000 0
808 875 1000 0
809 850 1000 0
810 825 1000 0
811 800 1000 0
812 775 1000 0
813 750 1000 0
814 725 1000 0
815 700 1000 0
816 675 1000 0
817 650 1000 0
818 625 1000 0
819 600 1000 0
820 575 1000 0
821 550 1000 0
822 525 1000 0
823 725 200 0
824 750 200 0
825 775 200 0
826 800 200 0
827 825 200 0
828 850 200 0
829 875 200 0
830 900 225.714285714286 0
831 900 251.428571428571 0
832 900 277.142857142857 0
833 900 302.857142857143 0
834 900 328.571428571429 0
835 900 354.285714285714 0
836 900 404 0
837 900 428 0
838 900 452 0
839 900 476 0
840 900 525 0
841 900 550 0
842 900 575 0
843 850 600 0
844 825 600 0
845 800 600 0
846 775 600 0
847 750 600 0
848 725 600 0
849 700 570 0
850 700 520 0
851 700 480 0
852 700 434 0
853 700 408 0
854 700 382 0
855 700 356 0
856 700 330 0
857 700 304 0
858 700 278 0
859 700 252 0
860 700 226 0
861 625 700 0
862 650 700 0
863 675 700 0
864 700 700 0
865 725 700 0
866 750 700 0
867 775 700 0
868 800 700 0
869 825 700 0
870 850 700 0
871 875 700 0
872 900 725 0
873 900 750 0
874 900 775 0
875 900 800 0
876 900 825 0
877 900 850 0
878 900 875 0
879 875 900 0
880 850 900 0
881 825 900 0
882 800 900 0
883 775 900 0
884 750 900 0
885 725 900 0
886 700 900 0
887 675 900 0
888 650 900 0
889 625 900 0
890 600 875 0
891 600 850 0
892 600 825 0
893 600 800 0
894 600 775 0
895 600 750 0
896 600 725 0
897 525 500 0
898 550 500 0
899 575 500 0
900 600 500 0
901 625 500 0
902 650 500 0
903 675 500 0
904 925 500 0
905 950 500 0
906 975 500 0
907 520 684 0
908 540 668 0
909 560 652 0
910 580 636 0
911 600 620 0
912 620 604 0
913 640 588 0
914 660 572 0
915 680 556 0
916 920 364 0
917 940 348 0
918 960 332 0
919 980 316 0
920 520 316 0
921 540 332 0
922 560 348 0
923 580 364 0
924 600 380 0
925 620 396 0
926 640 412 0
927 660 428 0
928 680 444 0
929 895.833333333333 616.666666666667 0
930 916.666666666667 633.333333333333 0
931 937.5 650 0
932 958.333333333333 666.666666666667 0
933 979.166666666667 683.333333333333 0
934 525.025540583348 174.95918574129 0
935 649.997843517382 25.0081604987203 0
936 875.001054758758 175.000440582987 0
937 750.000493806917 25.0011269494771 0
938 699.920312157332 175.235672042941 0
939 850.000051595618 24.9999910321081 0
940 749.995170100267 175.009980556435 0
941 674.722343513985 200.967825422169 0
942 674.20797154223 278.869333872884 0
943 974.996679628521 124.994098559222 0
944 924.999989248873 24.9999923715397 0
945 920.320945785437 596.698791650176 0
946 925.75357343036 428.684127526181 0
947 975.001765909569 174.982244301678 0
948 525.002786233659 99.99945633112 0
949 720.804823780593 623.74670514553 0
950 650.230262006218 675.493541986932 0
951 975.00006631832 900.000159038386 0
952 925.000000037334 975.000000231237 0
953 524.99993475984 899.999387716444 0
954 599.999999571505 974.999998285528 0
955 524.399492240074 750.641294692805 0
956 525.034208418462 825.138229052481 0
957 967.598032653008 732.852389177587 0
958 974.92050370803 776.582297604657 0
959 975.010434076521 825.044456962857 0
960 850.000000001517 975.000000008419 0
961 774.999999999999 975.000000000002 0
962 699.999999999924 974.999999999426 0
963 856.23627315022 630.991119134344 0
964 799.727467936605 623.728980379744 0
965 574.998975823781 25.0019849506278 0
966 975.154374759821 224.769789478734 0
967 672.123868761943 335.99627049554 0
968 978.351753366311 559.352792767245 0
969 971.925605389212 601.380392123011 0
970 574.437317491299 707.544076286689 0
971 917.182399605887 304.551608768855 0
972 525.960313561288 424.369953433392 0
973 516.599861543324 600.303986296811 0
974 969.753009412928 397.500668885519 0
975 916.468173562362 723.791238665283 0
976 925.000053639323 900.000102591481 0
977 900.000003480479 925.000007101806 0
978 624.999998671093 924.999995269922 0
979 574.996728087435 874.996500845937 0
980 974.999952923504 49.9999505467405 0
981 699.341922785547 676.813130094289 0
982 723.089277970212 675.971575623805 0
983 772.623044839635 673.015451162186 0
984 798.876964380501 673.006079048141 0
985 848.368682598491 681.443877376963 0
986 925.52527983486 773.94217902229 0
987 925.023248705332 824.996263077375 0
988 875.000000449288 925.000000958878 0
989 850.000000058722 925.000000132604 0
990 800.000000000055 925.000000000374 0
991 775.000000000006 925.000000000049 0
992 724.999999999998 924.999999999987 0
993 699.999999999941 924.999999999553 0
994 574.86932397913 825.016083107153 0
995 582.552816032247 749.91555769581 0
996 925.255148882366 225.597552050078 0
997 533.770458960606 269.322943034289 0
998 675.903143197583 485.855258279434 0
999 670.074226806694 530.38396268405 0
1000 674.109647665091 376.659530379348 0
1001 873.97190626328 621.380776417531 0
1002 928.825087523953 283.882765919299 0
1003 973.898249550151 426.12604538911 0
1004 674.549123554633 226.678408464053 0
1005 525.000199757256 50.0003988413533 0
1006 525.127262727963 475.196526815041 0
1007 525.727795403796 550.549700826466 0
1008 524.999999983177 974.999999873481 0
1009 974.699022682149 450.74928356075 0
1010 974.903484330026 475.337127140808 0
1011 975.000000030602 975.00000020851 0
1012 926.392399266558 550.125442668653 0
1013 800.000334210682 25.0000270828402 0
1014 649.999999954596 974.999999828725 0
1015 525.013509509409 149.995035215231 0
1016 525.216645694916 223.448895069736 0
1017 974.999711016897 74.9995933861904 0
1018 867.674558400062 671.627844320623 0
1019 524.999991837261 25.0002529381809 0
1020 525.846982317243 800.998853479567 0
1021 524.999492418154 874.99855814293 0
1022 524.99999819663 949.999989665997 0
1023 624.997379947736 25.0067797857668 0
1024 699.999439275934 25.0062594291625 0
1025 899.999993564504 24.9999933105434 0
1026 974.999990275576 24.9999911306093 0
1027 975.946232641709 518.742449077776 0
1028 975.003120186605 850.008617659081 0
1029 975.000010348055 925.000027860179 0
1030 875.000000006179 975.000000037469 0
1031 724.999999999989 974.999999999915 0
1032 774.999243762752 175.001472399665 0
1033 800.000062769028 175.000083395294 0
1034 825.000238044799 174.999983620651 0
1035 925.707196564707 525.939990955223 0
1036 925.000560971954 875.000595419138 0
1037 570.818708093577 770.523513191068 0
1038 781.527232356375 621.91364992583 0
1039 800.000000000002 975.000000000107 0
1040 674.999999994589 924.999999976324 0
1041 549.999999817349 974.999998964279 0
1042 525.222208834455 525.173508157916 0
1043 602.57361745593 676.138751939811 0
1044 529.244297202209 392.825506755644 0
1045 975.506942763527 248.371714942209 0
1046 924.968508086794 475.862732665581 0
1047 979.852457614722 715.136931716847 0
1048 914.60813396556 349.588355321178 0
1049 522.259580204732 708.891423240608 0
1050 968.750241540055 294.18084232388 0
1051 931.617065318882 406.189014380761 0
1052 922.200658460089 380.662200620836 0
1053 685.059984864729 428.911110021164 0
1054 518.298361204434 367.569552642704 0
1055 525.97725240427 647.18009946799 0
1056 974.152189328327 352.674115617222 0
1057 524.618160461556 291.687308853828 0
1058 974.911736595946 628.458300184594 0
1059 686.104297289852 573.312069846937 0
1060 669.210615365729 459.65733981786 0
1061 518.704583480072 338.949526296893 0
1062 514.72216206436 669.992589324222 0
1063 985.347688944638 329.947075224047 0
1064 969.850398832726 651.24053929996 0
1065 674.834762294624 175.601516263076 0
1066 649.99243639816 50.0283661930762 0
1067 749.993984734593 150.014996608782 0
1068 800.000573381965 149.999885385148 0
1069 550.034949087012 175.071401923093 0
1070 649.615610910392 201.437188534412 0
1071 900.003673059437 175.009059397566 0
1072 574.999459572116 899.999090065633 0
1073 599.999960519439 924.999921082102 0
1074 924.999892035986 49.9998856454683 0
1075 925.000009229687 925.000021547189 0
1076 549.999995026425 949.999975050671 0
1077 690.754306057063 631.196537021001 0
1078 925.065671362134 200.164149324096 0
1079 550.659324579763 426.800027992499 0
1080 550.306612076297 475.49390812583 0
1081 643.629459896722 521.73637811346 0
1082 898.005429200635 678.036288816029 0
1083 944.958080906894 598.356385465429 0
1084 546.892314127333 307.843958340867 0
1085 922.563441775836 707.174169702091 0
1086 879.559195438001 650.736330976235 0
1087 944.850667964793 377.568536349908 0
1088 550.195708254841 400.195704442673 0
1089 946.497866341524 309.61121653401 0
1090 949.805361577722 428.212245364384 0
1091 959.696738304482 700.100300202658 0
1092 949.841942715284 451.541488188333 0
1093 552.54546886791 627.668625821662 0
1094 926.214200922311 251.951336807877 0
1095 982.446275713881 586.474156332735 0
1096 577.353981114382 732.918182134219 0
1097 674.356335247376 252.702694239508 0
1098 949.920806446911 475.66255706292 0
1099 683.08706272091 356.639016163992 0
1100 674.115024861746 305.336988466894 0
1101 981.380645843405 375.334559800299 0
1102 574.999999347234 974.999996990175 0
1103 525.007158925049 124.998984780089 0
1104 974.995842753609 149.98903563353 0
1105 674.998339583279 25.0093039802814 0
1106 825.000000000469 975.000000002638 0
1107 649.99999978778 924.999999234306 0
1108 974.998824412668 99.9980775486466 0
1109 525.001049472134 75.0003770919965 0
1110 746.602306096703 617.31956061511 0
1111 746.83291736058 674.016892257732 0
1112 750 925.000000000003 0
1113 532.450245190398 777.856405940258 0
1114 524.99940128037 850.018886975149 0
1115 524.999982351283 924.999865119763 0
1116 549.999702099373 25.0009085596159 0
1117 599.997915405153 25.0044194604037 0
1118 775.000545829546 25.0003268344601 0
1119 825.000170751207 24.9999856108221 0
1120 875.000013662371 24.9999929882001 0
1121 949.999980958974 24.9999827975672 0
1122 974.19486011632 759.526064634436 0
1123 975.021757333157 800.293369458757 0
1124 975.000751094071 875.001702509874 0
1125 975.000001581712 950.00000478119 0
1126 950.000000168822 975.000000676687 0
1127 900.000000016521 975.000000116013 0
1128 749.999999999998 974.999999999988 0
1129 674.999999989562 974.999999959789 0
1130 624.999999693119 974.999998809062 0
1131 724.977743699385 175.060032002146 0
1132 850.000448134227 175.000078224895 0
1133 823.77313163877 627.414440580323 0
1134 827.327820214297 670.277466954941 0
1135 927.632623603436 743.213306659257 0
1136 925.120774524643 799.873446183928 0
1137 925.005003767732 850.001851903679 0
1138 574.973555116897 849.999667895523 0
1139 574.26966088473 799.976334103461 0
1140 955.469277952384 530.30532820494 0
1141 950.000188923181 900.000336088652 0
1142 549.999497037129 899.998797835283 0
1143 549.053942216251 749.767538522844 0
1144 549.969824112337 825.19551213273 0
1145 950.029411981428 825.035066132827 0
1146 875.000000292132 950.000000655802 0
1147 800.00000000008 950.000000000556 0
1148 699.999999998901 949.99999999519 0
1149 797.984160786378 647.329638974283 0
1150 949.999879940248 49.9998643815395 0
1151 825.000000007741 925.000000018759 0
1152 725.000067588374 25.0035920591934 0
1153 698.030253061829 659.754510647212 0
1154 550.280360223229 550.566471887705 0
1155 550.401999599713 525.355893248762 0
1156 525.337337593053 450.303732643783 0
1157 674.73762659298 675.946214037678 0
1158 525.058523517976 199.727582490605 0
1159 975.047269781996 199.966070988148 0
1160 527.864514197473 580.07004512462 0
1161 626.519358320794 676.061673678355 0
1162 526.068091772691 240.721898347956 0
1163 522.908720291613 618.682576369547 0
1164 925.051423217431 451.97412089458 0
1165 950.377995391121 225.095895363801 0
1166 574.397407625566 675.401064714169 0
1167 647.745069597039 555.710389036947 0
1168 932.525746962238 573.831142400548 0
1169 913.43343101318 610.746738287797 0
1170 677.58791748424 597.738956092261 0
1171 523.72599035869 733.251955590725 0
1172 975.486226880196 265.448814555515 0
1173 531.641934303786 352.790042314915 0
1174 545.667646092617 693.215643235865 0
1175 645.966132445099 442.073166633471 0
1176 655.557958211943 476.244016690318 0
1177 925.694071852884 326.664890268487 0
1178 672.952617673252 404.441369374438 0
1179 948.62982340306 634.422784434457 0
1180 875.000008133353 49.9999512229909 0
1181 674.897965482112 150.392532689702 0
1182 875.000505319763 150.0001751472 0
1183 750.001250080247 50.0033391624435 0
1184 825.000447108196 49.9999139897052 0
1185 550.013627967241 125.01556749624 0
1186 648.931544385141 253.402453717156 0
1187 549.94822652998 225.039502573508 0
1188 949.995679179439 124.992392359758 0
1189 599.99526818771 50.0131064840113 0
1190 649.903393320195 306.515981492649 0
1191 626.269974640151 423.923486389538 0
1192 586.595039822946 340.414947583593 0
1193 949.994982453714 149.988037676926 0
1194 549.146787741669 570.080021217866 0
1195 650.148513505439 647.751826487533 0
1196 628.064926688216 483.828605923673 0
1197 955.433455717429 569.714687924831 0
1198 609.921802064408 646.879324528353 0
1199 654.05915304466 611.296485402926 0
1200 648.177285541464 386.168795222523 0
1201 548.616160320106 719.448247137623 0
1202 957.476998378474 272.851936677828 0
1203 843.328953921406 648.254086309079 0
1204 649.340206479506 227.222901424338 0
1205 657.241112260002 361.200349386553 0
1206 944.378598140825 719.512960672979 0
1207 649.803532487669 175.900472588279 0
1208 949.99944320841 74.9992184712832 0
1209 774.999324393012 150.003078311653 0
1210 714.351446074662 653.754680422461 0
1211 925.000001686541 950.000004529423 0
1212 624.999996793968 949.999992282529 0
1213 574.999991817492 949.999969172243 0
1214 950.000018693998 750.000008616936 0
1215 950.251695103828 775.332062866921 0
1216 825.000000005391 950.000000014687 0
1217 850.000000074785 950.000000170507 0
1218 775.000000000013 950.000000000106 0
1219 550.001181794807 75.0033122440582 0
1220 945.639963493338 551.035593750519 0
1221 900.000001307921 950.000003068041 0
1222 549.995625660136 874.99893545463 0
1223 767.967003227951 640.867055524787 0
1224 724.999999999852 949.999999999317 0
1225 800.000989574749 49.9999810260459 0
1226 674.999999972391 949.99999989628 0
1227 550.203106303241 801.216614906339 0
1228 899.999922472777 49.9999042617716 0
1229 950.007871425471 850.009782548539 0
1230 950.00003470658 925.000068875822 0
1231 825.000511653718 149.999882795387 0
1232 950.001855253963 875.002490912566 0
1233 550.522342429791 783.154220982997 0
1234 574.999885667966 924.999755005741 0
1235 549.999875595645 924.999670471739 0
1236 549.982468614671 850.035364989346 0
1237 950.104968049433 800.127631950718 0
1238 950.000006116291 950.000013538022 0
1239 724.973918627494 150.074156471114 0
1240 724.999510296039 50.0104682262094 0
1241 925.011561216663 175.02109284313 0
1242 574.998139388288 50.0063312219009 0
1243 549.999808885465 50.0024557236168 0
1244 674.993687834986 50.0287961506777 0
1245 624.992632933872 50.0234831322279 0
1246 550.024475158578 150.050517749594 0
1247 575.807679853856 475.529043643403 0
1248 575.968949356713 525.805403611222 0
1249 550.013622017071 200.101692044386 0
1250 550.495167190083 451.281933784933 0
1251 663.905025056077 628.256166915031 0
1252 950.014676424082 175.006496563646 0
1253 674.960547509427 649.918572061795 0
1254 895.732321304777 640.152529847824 0
1255 950.10526459671 200.061549963177 0
1256 575.011709948237 430.7908577068 0
1257 951.789428014118 249.745309935158 0
1258 815.784232643103 648.391188723987 0
1259 543.170698093109 603.758143401304 0
1260 930.557297880775 681.822279949777 0
1261 949.55867843981 410.604615383719 0
1262 556.703868264355 284.611826622424 0
1263 628.948448980999 543.962822580903 0
1264 625.837755115013 515.897912049954 0
1265 567.244927755015 323.923389848414 0
1266 547.288379013449 368.592154763911 0
1267 956.559457576636 621.68098605483 0
1268 929.834952953838 619.913815610393 0
1269 913.91561861278 657.673043356788 0
1270 587.784068525992 651.674981550366 0
1271 633.884123613423 572.818883736532 0
1272 511.902439620366 351.919482962623 0
1273 577.777639416756 610.52544669958 0
1274 649.892968746556 150.528568222086 0
1275 599.992252658094 75.0337602361228 0
1276 649.981305738346 75.0728091746748 0
1277 749.99577816009 125.017196159918 0
1278 825.000763135015 74.9998163220802 0
1279 899.999670974539 74.9995321462515 0
1280 575.009611532052 125.080245646096 0
1281 624.848688873667 175.941680549683 0
1282 624.380481602844 227.543835639743 0
1283 607.624863482002 575.795076485271 0
1284 596.231167380346 315.401556189323 0
1285 900.000248572287 150.000471069421 0
1286 800.00122882198 124.999973192838 0
1287 750.001084228902 75.007489562418 0
1288 574.999867435773 175.391296619478 0
1289 574.895134602068 200.857940917805 0
1290 574.88109304718 551.414267177755 0
1291 568.631432951378 582.308168169328 0
1292 606.213622415743 473.016191017988 0
1293 605.545025732539 528.067493156793 0
1294 649.036139855597 280.075491223195 0
1295 651.76002496614 326.76527416728 0
1296 924.997293917603 124.995296926057 0
1297 949.99824794349 99.9971384303045 0
1298 924.999419711309 74.9991790172531 0
1299 850.000171882568 49.9999417058354 0
1300 599.999985613619 949.999966549436 0
1301 649.999999441943 949.99999846071 0
1302 736.668718497724 648.492739903526 0
1303 749.999999999982 949.999999999923 0
1304 775.001316089581 50.0010903194255 0
1305 850.000495454015 149.999983440318 0
1306 699.9372856514 150.208280023689 0
1307 550.004875928505 100.010640368578 0
1308 699.996290659853 50.0214254018708 0
1309 925.000311273827 149.999132578583 0
1310 574.99846781447 75.0153701177596 0
1311 545.138872859089 248.367687600149 0
1312 628.526787236754 657.670331334182 0
1313 575.374648385835 452.724945600378 0
1314 573.75498476483 413.839839991148 0
1315 633.243791443607 626.166799706347 0
1316 575.85571520912 299.732180922392 0
1317 628.627845817912 456.256981045815 0
1318 606.402921525682 356.09019788342 0
1319 626.927340120997 370.60106205829 0
1320 614.224561516174 409.262987755238 0
1321 594.372537384293 603.163901579767 0
1322 897.151088918934 662.654004629063 0
1323 567.439529586528 384.703462457706 0
1324 649.937154863351 125.28986232916 0
1325 874.999922429311 74.9997358870942 0
1326 874.999943992272 124.999497834861 0
1327 825.000738728214 124.999829444439 0
1328 800.001604413951 74.9999241435425 0
1329 624.926125602678 150.515600845602 0
1330 600.075126349756 282.027004030718 0
1331 574.197382394983 227.362894875415 0
1332 624.1191216859 254.11481802946 0
1333 634.319265463453 340.744523517498 0
1334 594.635021146269 453.871717075969 0
1335 624.663274377403 201.583868943699 0
1336 624.11425281843 281.686699108054 0
1337 899.999236675642 124.998529132867 0
1338 775.000239186583 125.00409575549 0
1339 850.00025944577 74.9998380437033 0
1340 924.998533886206 99.9976307241008 0
1341 775.001939786124 75.0018699557527 0
1342 724.996349421712 75.0236407675326 0
1343 674.983201478492 75.0684559027005 0
1344 674.940323281869 125.236665691558 0
1345 724.98130811613 125.062752320049 0
1346 575.010925046445 150.206691260547 0
1347 624.984921546456 75.0604501580693 0
1348 575.001261651072 100.038255055636 0
1349 599.913832509292 175.756640740442 0
1350 594.700026739572 551.284877520113 0
1351 583.25308416645 281.586968352693 0
1352 603.789638626365 435.723423690623 0
1353 612.274180211889 338.311971302777 0
1354 595.285864849963 407.72164492817 0
1355 624.957843741196 125.265514568462 0
1356 626.548552959519 309.615031797175 0
1357 599.98971820271 100.085064707232 0
1358 649.964387212111 100.154280842142 0
1359 699.959339718717 125.145910626935 0
1360 775.001385405188 100.003376443476 0
1361 800.00130391643 100.000652634406 0
1362 850.000316018277 99.9997568379889 0
1363 899.999249018685 99.9987106533055 0
1364 850.000388068028 124.999800709586 0
1365 749.997871642215 100.01574063833 0
1366 699.989046447686 75.048187192857 0
1367 571.997737007997 259.63708251579 0
1368 599.985959987306 125.192263338129 0
1369 599.964968819009 150.404556513129 0
1370 599.721934623504 201.453229695193 0
1371 599.357995088964 228.052929541864 0
1372 674.966426901776 100.135573271594 0
1373 825.000818075231 99.9999135335212 0
1374 874.999861046457 99.9994488960923 0
1375 724.988968817929 100.045531238607 0
1376 624.973960767543 100.138589160064 0
1377 599.752661538658 255.284894634747 0
1378 699.976404685475 100.092117098167 0
$EndNodes
$Elements
1180
1 2 2 1 1 245 167 22 
2 2 2 1 1 179 359 22 
3 2 2 1 1 268 65 64 
4 2 2 1 1 64 63 268 
5 2 2 1 1 142 143 285 
6 2 2 1 1 285 141 142 
7 2 2 1 1 11 394 355 
8 2 2 1 1 355 63 11 
9 2 2 1 1 493 233 234 
10 2 2 1 1 234 235 493 
11 3 2 1 1 394 482 580 355
12 3 2 1 1 403 221 220 369
13 3 2 1 1 402 229 230 368
14 3 2 1 1 518 225 226 484
15 3 2 1 1 239 238 517 492
16 3 2 1 1 577 243 242 578
17 3 2 1 1 590 598 596 663
18 3 2 1 1 646 568 666 665
19 3 2 1 1 463 487 482 394
20 3 2 1 1 361 479 233 232
21 3 2 1 1 630 237 236 629
22 3 2 1 1 600 574 590 663
23 3 2 1 1 599 646 665 631
24 3 2 1 1 491 284 318 398
25 3 2 1 1 486 365 402 401
26 3 2 1 1 632 666 236 237
27 3 2 1 1 365 228 229 402
28 3 2 1 1 597 400 517 630
29 3 2 1 1 406 515 552 282
30 3 2 1 1 319 519 486 401
31 3 2 1 1 401 402 368 413
32 3 2 1 1 518 510 624 628
33 3 2 1 1 5 44 481 260
34 3 2 1 1 590 633 583 598
35 3 2 1 1 598 583 403 571
36 3 2 1 1 510 518 484 563
37 3 2 1 1 224 590 582 225
38 3 2 1 1 369 477 571 403
39 3 2 1 1 599 631 490 511
40 3 2 1 1 647 591 579 479
41 3 2 1 1 225 518 628 224
42 3 2 1 1 221 403 583 222
43 3 2 1 1 579 591 664 514
44 3 2 1 1 682 688 642 643
45 3 2 1 1 400 316 492 517
46 3 2 1 1 519 319 409 520
47 3 2 1 1 630 517 238 237
48 3 2 1 1 409 323 404 520
49 3 2 1 1 683 682 643 669
50 3 2 1 1 681 680 639 588
51 3 2 1 1 489 504 238 239
52 3 2 1 1 339 297 443 521
53 3 2 1 1 367 145 146 373
54 3 2 1 1 215 314 53 9
55 3 2 1 1 685 686 667 670
56 3 2 1 1 600 575 391 574
57 3 2 1 1 515 481 321 552
58 3 2 1 1 118 407 513 361
59 3 2 1 1 318 405 468 572
60 3 2 1 1 413 288 319 401
61 3 2 1 1 393 283 370 577
62 3 2 1 1 215 9 52 315
63 3 2 1 1 468 405 313 566
64 3 2 1 1 393 515 406 283
65 3 2 1 1 232 17 118 361
66 3 2 1 1 485 463 348 523
67 3 2 1 1 164 165 370 283
68 3 2 1 1 1 62 410 254
69 3 2 1 1 643 642 524 602
70 3 2 1 1 524 496 254 410
71 3 2 1 1 519 520 478 261
72 3 2 1 1 604 645 589 512
73 3 2 1 1 667 648 585 670
74 3 2 1 1 645 641 681 688
75 3 2 1 1 357 468 566 281
76 3 2 1 1 523 304 177 485
77 3 2 1 1 405 318 34 33
78 3 2 1 1 284 35 34 318
79 3 2 1 1 669 643 602 501
80 3 2 1 1 410 255 602 524
81 3 2 1 1 283 406 163 164
82 3 2 1 1 284 491 36 35
83 3 2 1 1 287 522 259 412
84 3 2 1 1 560 390 562 626
85 3 2 1 1 411 501 602 255
86 3 2 1 1 147 148 368 374
87 3 2 1 1 154 155 369 375
88 3 2 1 1 255 410 62 61
89 3 2 1 1 513 407 249 512
90 3 2 1 1 319 288 150 151
91 3 2 1 1 501 411 259 601
92 3 2 1 1 249 474 604 512
93 3 2 1 1 522 287 316 400
94 3 2 1 1 179 180 306 305
95 3 2 1 1 395 399 305 570
96 3 2 1 1 33 32 313 405
97 3 2 1 1 348 463 394 278
98 3 2 1 1 559 564 625 388
99 3 2 1 1 32 2 388 313
100 3 2 1 1 409 319 151 152
101 3 2 1 1 45 6 241 317
102 3 2 1 1 305 306 408 570
103 3 2 1 1 316 56 55 492
104 3 2 1 1 644 601 259 522
105 3 2 1 1 400 597 644 522
106 3 2 1 1 489 631 665 504
107 3 2 1 1 361 513 647 479
108 3 2 1 1 501 601 644 669
109 3 2 1 1 576 627 389 397
110 3 2 1 1 388 2 383 559
111 3 2 1 1 668 680 640 584
112 3 2 1 1 287 57 56 316
113 3 2 1 1 411 255 61 60
114 3 2 1 1 666 632 504 665
115 3 2 1 1 266 564 505 427
116 3 2 1 1 259 411 60 59
117 3 2 1 1 287 412 58 57
118 3 2 1 1 412 259 59 58
119 3 2 1 1 570 408 274 340
120 3 2 1 1 288 413 149 150
121 3 2 1 1 358 478 520 404
122 3 2 1 1 645 604 500 641
123 3 2 1 1 600 561 211 212
124 3 2 1 1 511 213 212 599
125 3 2 1 1 649 603 639 679
126 3 2 1 1 585 494 649 670
127 3 2 1 1 681 641 640 680
128 3 2 1 1 685 687 678 686
129 3 2 1 1 621 677 660 536
130 3 2 1 1 408 525 444 274
131 3 2 1 1 687 685 679 668
132 3 2 1 1 677 659 667 686
133 3 2 1 1 594 655 608 622
134 3 2 1 1 536 660 619 556
135 3 2 1 1 505 564 559 622
136 3 2 1 1 408 306 451 525
137 3 2 1 1 650 672 651 586
138 3 2 1 1 526 264 423 530
139 3 2 1 1 246 418 527 378
140 3 2 1 1 671 636 676 672
141 3 2 1 1 112 418 246 111
142 3 2 1 1 203 417 262 202
143 3 2 1 1 414 262 417 530
144 3 2 1 1 430 326 529 605
145 3 2 1 1 329 416 415 263
146 3 2 1 1 201 202 262 291
147 3 2 1 1 414 334 289 421
148 3 2 1 1 527 379 587 650
149 3 2 1 1 415 532 528 529
150 3 2 1 1 110 111 246 327
151 3 2 1 1 330 280 435 328
152 3 2 1 1 416 299 532 415
153 3 2 1 1 115 419 252 114
154 3 2 1 1 117 330 328 116
155 3 2 1 1 208 329 263 207
156 3 2 1 1 421 289 420 533
157 3 2 1 1 203 204 290 417
158 3 2 1 1 651 635 614 673
159 3 2 1 1 87 420 289 88
160 3 2 1 1 252 419 534 507
161 3 2 1 1 606 499 652 637
162 3 2 1 1 112 113 352 418
163 3 2 1 1 432 257 503 612
164 3 2 1 1 530 417 290 526
165 3 2 1 1 605 526 290 430
166 3 2 1 1 671 675 655 636
167 3 2 1 1 115 116 328 419
168 3 2 1 1 290 204 205 430
169 3 2 1 1 650 586 378 527
170 3 2 1 1 247 424 506 380
171 3 2 1 1 208 23 168 329
172 3 2 1 1 265 86 85 422
173 3 2 1 1 103 104 428 256
174 3 2 1 1 194 195 429 312
175 3 2 1 1 206 326 430 205
176 3 2 1 1 351 291 421 533
177 3 2 1 1 246 378 540 327
178 3 2 1 1 527 418 352 379
179 3 2 1 1 312 429 549 616
180 3 2 1 1 378 586 615 540
181 3 2 1 1 117 16 129 330
182 3 2 1 1 86 265 420 87
183 3 2 1 1 90 89 334 423
184 3 2 1 1 90 423 264 91
185 3 2 1 1 106 247 337 105
186 3 2 1 1 424 247 106 107
187 3 2 1 1 110 327 439 109
188 3 2 1 1 124 425 248 123
189 3 2 1 1 126 127 320 426
190 3 2 1 1 134 427 257 133
191 3 2 1 1 473 266 135 136
192 3 2 1 1 134 135 266 427
193 3 2 1 1 201 291 351 200
194 3 2 1 1 526 605 384 264
195 3 2 1 1 422 611 531 265
196 3 2 1 1 618 553 295 438
197 3 2 1 1 439 327 540 499
198 3 2 1 1 506 424 332 606
199 3 2 1 1 439 499 606 332
200 3 2 1 1 414 530 423 334
201 3 2 1 1 440 381 502 614
202 3 2 1 1 529 528 384 605
203 3 2 1 1 265 531 533 420
204 3 2 1 1 351 533 531 433
205 3 2 1 1 250 436 609 498
206 3 2 1 1 615 652 499 540
207 3 2 1 1 614 502 654 673
208 3 2 1 1 606 637 592 506
209 3 2 1 1 672 650 587 671
210 3 2 1 1 674 653 613 607
211 3 2 1 1 498 609 676 636
212 3 2 1 1 502 613 653 654
213 3 2 1 1 586 651 673 615
214 3 2 1 1 652 615 673 654
215 3 2 1 1 592 637 653 674
216 3 2 1 1 637 652 654 653
217 3 2 1 1 49 437 267 50
218 3 2 1 1 334 89 88 289
219 3 2 1 1 427 505 503 257
220 3 2 1 1 611 422 298 539
221 3 2 1 1 538 508 441 341
222 3 2 1 1 328 435 534 419
223 3 2 1 1 379 507 657 587
224 3 2 1 1 534 610 657 507
225 3 2 1 1 538 607 613 508
226 3 2 1 1 435 537 610 534
227 3 2 1 1 440 614 635 541
228 3 2 1 1 610 656 675 657
229 3 2 1 1 587 657 675 671
230 3 2 1 1 101 279 335 100
231 3 2 1 1 101 102 431 279
232 3 2 1 1 337 428 104 105
233 3 2 1 1 332 424 107 108
234 3 2 1 1 332 108 109 439
235 3 2 1 1 113 114 252 352
236 3 2 1 1 124 125 258 425
237 3 2 1 1 126 426 258 125
238 3 2 1 1 127 128 336 320
239 3 2 1 1 133 257 432 132
240 3 2 1 1 168 169 416 329
241 3 2 1 1 352 252 507 379
242 3 2 1 1 611 539 465 292
243 3 2 1 1 433 531 611 292
244 3 2 1 1 434 320 336 335
245 3 2 1 1 280 338 537 435
246 3 2 1 1 251 381 440 342
247 3 2 1 1 342 440 541 343
248 3 2 1 1 502 381 508 613
249 3 2 1 1 250 498 594 383
250 3 2 1 1 338 432 612 537
251 3 2 1 1 343 541 609 436
252 3 2 1 1 655 594 498 636
253 3 2 1 1 622 608 503 505
254 3 2 1 1 635 676 609 541
255 3 2 1 1 503 608 656 612
256 3 2 1 1 537 612 656 610
257 3 2 1 1 608 655 675 656
258 3 2 1 1 384 14 91 264
259 3 2 1 1 528 385 14 384
260 3 2 1 1 27 251 342 28
261 3 2 1 1 67 294 438 68
262 3 2 1 1 298 422 85 84
263 3 2 1 1 431 102 103 256
264 3 2 1 1 129 130 280 330
265 3 2 1 1 432 338 131 132
266 3 2 1 1 471 322 140 141
267 3 2 1 1 465 197 198 292
268 3 2 1 1 351 433 199 200
269 3 2 1 1 263 415 529 326
270 3 2 1 1 618 437 353 553
271 3 2 1 1 273 460 553 353
272 3 2 1 1 532 459 385 528
273 3 2 1 1 651 672 676 635
274 3 2 1 1 25 1 253 341
275 3 2 1 1 383 2 31 250
276 3 2 1 1 92 14 385 271
277 3 2 1 1 140 322 209 19
278 3 2 1 1 26 25 341 441
279 3 2 1 1 27 26 441 251
280 3 2 1 1 343 29 28 342
281 3 2 1 1 436 30 29 343
282 3 2 1 1 436 250 31 30
283 3 2 1 1 4 216 344 42
284 3 2 1 1 43 42 344 321
285 3 2 1 1 481 44 43 321
286 3 2 1 1 317 272 46 45
287 3 2 1 1 47 46 442 273
288 3 2 1 1 48 47 273 353
289 3 2 1 1 353 437 49 48
290 3 2 1 1 295 69 68 438
291 3 2 1 1 69 295 296 70
292 3 2 1 1 70 296 443 71
293 3 2 1 1 71 443 297 72
294 3 2 1 1 340 274 75 74
295 3 2 1 1 75 274 444 76
296 3 2 1 1 77 76 444 345
297 3 2 1 1 78 77 345 275
298 3 2 1 1 78 275 445 79
299 3 2 1 1 80 79 445 346
300 3 2 1 1 13 80 346 269
301 3 2 1 1 13 270 446 81
302 3 2 1 1 82 81 446 276
303 3 2 1 1 82 276 464 83
304 3 2 1 1 83 464 298 84
305 3 2 1 1 92 271 447 93
306 3 2 1 1 94 93 447 347
307 3 2 1 1 95 94 347 277
308 3 2 1 1 95 277 448 96
309 3 2 1 1 97 96 448 348
310 3 2 1 1 98 97 348 278
311 3 2 1 1 336 99 100 335
312 3 2 1 1 15 99 336 128
313 3 2 1 1 130 131 338 280
314 3 2 1 1 409 152 153 323
315 3 2 1 1 20 218 323 153
316 3 2 1 1 20 161 349 218
317 3 2 1 1 162 282 349 161
318 3 2 1 1 406 282 162 163
319 3 2 1 1 416 169 170 299
320 3 2 1 1 170 171 300 299
321 3 2 1 1 171 172 301 300
322 3 2 1 1 172 173 449 301
323 3 2 1 1 174 302 449 173
324 3 2 1 1 174 175 303 302
325 3 2 1 1 175 176 450 303
326 3 2 1 1 177 304 450 176
327 3 2 1 1 180 181 451 306
328 3 2 1 1 182 307 451 181
329 3 2 1 1 182 183 308 307
330 3 2 1 1 183 184 452 308
331 3 2 1 1 185 309 452 184
332 3 2 1 1 185 186 310 309
333 3 2 1 1 186 187 350 310
334 3 2 1 1 189 325 453 188
335 3 2 1 1 187 188 453 350
336 3 2 1 1 24 190 325 189
337 3 2 1 1 192 311 454 191
338 3 2 1 1 190 191 454 325
339 3 2 1 1 192 193 455 311
340 3 2 1 1 194 312 455 193
341 3 2 1 1 195 196 331 429
342 3 2 1 1 196 197 465 331
343 3 2 1 1 433 292 198 199
344 3 2 1 1 404 323 218 217
345 3 2 1 1 216 217 456 344
346 3 2 1 1 218 349 456 217
347 3 2 1 1 381 251 441 508
348 3 2 1 1 341 253 382 538
349 3 2 1 1 437 618 542 267
350 3 2 1 1 13 269 386 270
351 3 2 1 1 346 457 458 269
352 3 2 1 1 386 543 544 270
353 3 2 1 1 385 459 546 271
354 3 2 1 1 447 271 546 545
355 3 2 1 1 46 272 521 442
356 3 2 1 1 345 461 548 275
357 3 2 1 1 445 275 548 547
358 3 2 1 1 347 462 551 277
359 3 2 1 1 448 277 551 550
360 3 2 1 1 349 282 552 456
361 3 2 1 1 438 294 542 618
362 3 2 1 1 460 296 295 553
363 3 2 1 1 532 299 300 459
364 3 2 1 1 300 301 546 459
365 3 2 1 1 449 545 546 301
366 3 2 1 1 302 303 551 462
367 3 2 1 1 450 550 551 303
368 3 2 1 1 523 550 450 304
369 3 2 1 1 525 451 307 461
370 3 2 1 1 307 308 548 461
371 3 2 1 1 452 547 548 308
372 3 2 1 1 309 310 458 457
373 3 2 1 1 455 312 616 544
374 3 2 1 1 344 456 552 321
375 3 2 1 1 525 461 345 444
376 3 2 1 1 523 348 448 550
377 3 2 1 1 310 350 554 458
378 3 2 1 1 269 458 554 386
379 3 2 1 1 331 617 549 429
380 3 2 1 1 273 442 569 460
381 3 2 1 1 443 569 442 521
382 3 2 1 1 296 460 569 443
383 3 2 1 1 346 445 547 457
384 3 2 1 1 270 544 616 446
385 3 2 1 1 276 446 616 549
386 3 2 1 1 347 447 545 462
387 3 2 1 1 302 462 545 449
388 3 2 1 1 309 457 547 452
389 3 2 1 1 325 454 555 453
390 3 2 1 1 350 453 555 554
391 3 2 1 1 311 543 555 454
392 3 2 1 1 311 455 544 543
393 3 2 1 1 298 464 617 539
394 3 2 1 1 276 549 617 464
395 3 2 1 1 331 465 539 617
396 3 2 1 1 386 554 555 543
397 3 2 1 1 326 206 207 263
398 3 2 1 1 262 414 421 291
399 3 2 1 1 559 383 594 622
400 3 2 1 1 497 659 677 621
401 3 2 1 1 658 595 585 648
402 3 2 1 1 335 279 556 434
403 3 2 1 1 426 320 434 535
404 3 2 1 1 426 535 620 258
405 3 2 1 1 638 557 620 662
406 3 2 1 1 621 536 431 256
407 3 2 1 1 619 535 434 556
408 3 2 1 1 662 620 535 619
409 3 2 1 1 337 247 380 558
410 3 2 1 1 389 471 141 285
411 3 2 1 1 431 536 556 279
412 3 2 1 1 425 258 620 557
413 3 2 1 1 658 661 592 674
414 3 2 1 1 506 592 661 380
415 3 2 1 1 678 662 619 660
416 3 2 1 1 659 497 558 593
417 3 2 1 1 686 678 660 677
418 3 2 1 1 638 584 495 557
419 3 2 1 1 658 674 607 595
420 3 2 1 1 607 538 382 595
421 3 2 1 1 621 256 428 497
422 3 2 1 1 593 558 380 661
423 3 2 1 1 595 382 494 585
424 3 2 1 1 248 425 557 495
425 3 2 1 1 428 337 558 497
426 3 2 1 1 662 678 687 638
427 3 2 1 1 648 593 661 658
428 3 2 1 1 648 667 659 593
429 3 2 1 1 50 267 387 7
430 3 2 1 1 466 387 267 542
431 3 2 1 1 638 687 668 584
432 3 2 1 1 681 588 642 688
433 3 2 1 1 254 377 253 1
434 3 2 1 1 510 472 65 268
435 3 2 1 1 495 584 640 623
436 3 2 1 1 466 542 294 293
437 3 2 1 1 294 67 66 293
438 3 2 1 1 472 293 66 65
439 3 2 1 1 494 377 603 649
440 3 2 1 1 679 685 670 649
441 3 2 1 1 382 253 377 494
442 3 2 1 1 123 248 467 122
443 3 2 1 1 356 397 389 285
444 3 2 1 1 19 209 354 160
445 3 2 1 1 623 467 248 495
446 3 2 1 1 210 211 561 470
447 3 2 1 1 268 63 355 476
448 3 2 1 1 496 603 377 254
449 3 2 1 1 333 500 604 474
450 3 2 1 1 209 210 470 354
451 3 2 1 1 121 333 474 120
452 3 2 1 1 362 357 138 139
453 3 2 1 1 641 500 623 640
454 3 2 1 1 496 524 642 588
455 3 2 1 1 588 639 603 496
456 3 2 1 1 560 211 210 390
457 3 2 1 1 209 322 390 210
458 3 2 1 1 500 333 467 623
459 3 2 1 1 396 634 392 339
460 3 2 1 1 639 680 668 679
461 3 2 1 1 293 472 565 466
462 3 2 1 1 211 560 599 212
463 3 2 1 1 624 510 268 476
464 3 2 1 1 121 122 467 333
465 3 2 1 1 159 160 354 324
466 3 2 1 1 159 324 475 158
467 3 2 1 1 664 684 629 514
468 3 2 1 1 688 682 589 645
469 3 2 1 1 562 568 646 626
470 3 2 1 1 562 390 322 471
471 3 2 1 1 407 118 119 249
472 3 2 1 1 119 120 474 249
473 3 2 1 1 354 470 469 324
474 3 2 1 1 568 562 471 389
475 3 2 1 1 7 387 563 484
476 3 2 1 1 512 589 647 513
477 3 2 1 1 98 278 394 11
478 3 2 1 1 466 565 563 387
479 3 2 1 1 217 216 358 404
480 3 2 1 1 473 136 137 281
481 3 2 1 1 596 469 470 561
482 3 2 1 1 598 509 469 596
483 3 2 1 1 477 156 157 286
484 3 2 1 1 509 475 324 469
485 3 2 1 1 600 663 596 561
486 3 2 1 1 157 158 475 286
487 3 2 1 1 482 221 222 580
488 3 2 1 1 514 629 236 235
489 3 2 1 1 177 178 364 485
490 3 2 1 1 473 281 566 625
491 3 2 1 1 644 597 684 664
492 3 2 1 1 137 138 357 281
493 3 2 1 1 683 647 589 682
494 3 2 1 1 389 627 666 568
495 3 2 1 1 144 356 285 143
496 3 2 1 1 646 599 560 626
497 3 2 1 1 6 5 483 241
498 3 2 1 1 72 297 339 73
499 3 2 1 1 39 38 365 486
500 3 2 1 1 51 7 484 371
501 3 2 1 1 598 571 475 509
502 3 2 1 1 313 388 625 566
503 3 2 1 1 476 516 628 624
504 3 2 1 1 315 480 574 391
505 3 2 1 1 570 340 74 395
506 3 2 1 1 564 266 473 625
507 3 2 1 1 413 368 148 149
508 3 2 1 1 477 369 155 156
509 3 2 1 1 504 632 237 238
510 3 2 1 1 39 261 478 40
511 3 2 1 1 145 367 356 144
512 3 2 1 1 73 339 392 12
513 3 2 1 1 399 395 392 573
514 3 2 1 1 74 12 392 395
515 3 2 1 1 476 355 580 516
516 3 2 1 1 647 683 664 591
517 3 2 1 1 477 286 475 571
518 3 2 1 1 397 356 367 576
519 3 2 1 1 272 317 567 396
520 3 2 1 1 472 510 563 565
521 3 2 1 1 479 579 234 233
522 3 2 1 1 516 223 224 628
523 3 2 1 1 178 21 219 364
524 3 2 1 1 139 18 231 363
525 3 2 1 1 399 245 22 359
526 3 2 1 1 216 4 41 358
527 3 2 1 1 37 36 491 360
528 3 2 1 1 318 572 362 398
529 3 2 1 1 38 3 228 365
530 3 2 1 1 41 40 478 358
531 3 2 1 1 373 493 576 367
532 3 2 1 1 396 567 581 634
533 3 2 1 1 597 630 629 684
534 3 2 1 1 222 583 633 223
535 3 2 1 1 490 372 53 314
536 3 2 1 1 54 366 492 55
537 3 2 1 1 590 224 223 633
538 3 2 1 1 244 573 581 243
539 3 2 1 1 362 572 468 357
540 3 2 1 1 339 521 272 396
541 3 2 1 1 669 644 664 683
542 3 2 1 1 573 392 634 581
543 3 2 1 1 567 242 243 581
544 3 2 1 1 364 219 220 487
545 3 2 1 1 39 486 519 261
546 3 2 1 1 487 220 221 482
547 3 2 1 1 480 226 225 582
548 3 2 1 1 579 514 235 234
549 3 2 1 1 315 227 226 480
550 3 2 1 1 212 213 575 600
551 3 2 1 1 53 372 240 10
552 3 2 1 1 8 51 371 227
553 3 2 1 1 214 215 315 391
554 3 2 1 1 18 147 374 231
555 3 2 1 1 21 154 375 219
556 3 2 1 1 139 363 398 362
557 3 2 1 1 5 260 578 483
558 3 2 1 1 179 305 399 359
559 3 2 1 1 213 214 391 575
560 3 2 1 1 317 241 242 567
561 3 2 1 1 484 226 227 371
562 3 2 1 1 166 167 245 376
563 3 2 1 1 3 37 360 228
564 3 2 1 1 10 240 366 54
565 3 2 1 1 577 488 244 243
566 3 2 1 1 213 511 490 214
567 3 2 1 1 214 490 314 215
568 3 2 1 1 232 233 493 373
569 3 2 1 1 372 489 239 240
570 3 2 1 1 492 366 240 239
571 3 2 1 1 480 582 590 574
572 3 2 1 1 488 376 245 244
573 3 2 1 1 241 483 578 242
574 3 2 1 1 228 360 491 229
575 3 2 1 1 223 516 580 222
576 3 2 1 1 219 375 369 220
577 3 2 1 1 231 374 368 230
578 3 2 1 1 52 8 227 315
579 3 2 1 1 17 232 373 146
580 3 2 1 1 165 166 376 370
581 3 2 1 1 363 231 230 398
582 3 2 1 1 229 491 398 230
583 3 2 1 1 666 627 235 236
584 3 2 1 1 493 235 627 576
585 3 2 1 1 573 244 245 399
586 3 2 1 1 515 393 260 481
587 3 2 1 1 577 578 260 393
588 3 2 1 1 485 364 487 463
589 3 2 1 1 577 370 376 488
590 3 2 1 1 631 489 372 490
591 2 2 2 2 792 697 933 
592 2 2 2 2 793 1047 697 
593 2 2 2 2 787 788 968 
594 2 2 2 2 968 786 787 
595 2 2 2 2 847 846 1110 
596 2 2 2 2 1110 848 847 
597 3 2 2 2 1093 909 908 1055
598 3 2 2 2 1087 917 918 1056
599 3 2 2 2 1199 913 914 1170
600 3 2 2 2 1251 1195 1315 1199
601 3 2 2 2 927 926 1200 1178
602 3 2 2 2 1179 931 930 1268
603 3 2 2 2 1283 1291 1290 1350
604 3 2 2 2 1166 970 1201 1174
605 3 2 2 2 792 933 932 1064
606 3 2 2 2 1050 919 918 1089
607 3 2 2 2 1056 1101 974 1087
608 3 2 2 2 1319 925 924 1318
609 3 2 2 2 1293 1263 1283 1350
610 3 2 2 2 1292 1334 1352 1317
611 3 2 2 2 1323 1266 922 923
612 3 2 2 2 1320 1354 924 925
613 3 2 2 2 921 920 1057 1084
614 3 2 2 2 1090 1261 974 1003
615 3 2 2 2 1206 1085 1260 1091
616 3 2 2 2 1003 1009 1092 1090
617 3 2 2 2 1283 1321 1273 1291
618 3 2 2 2 1291 1273 1093 1259
619 3 2 2 2 1143 1201 970 1096
620 3 2 2 2 912 1283 1271 913
621 3 2 2 2 1055 1163 1259 1093
622 3 2 2 2 1292 1317 1176 1196
623 3 2 2 2 913 1199 1315 912
624 3 2 2 2 909 1093 1273 910
625 3 2 2 2 1371 1370 1335 1282
626 3 2 2 2 1205 1000 1178 1200
627 3 2 2 2 1174 1201 1171 1049
628 3 2 2 2 1257 1202 1002 1094
629 3 2 2 2 1319 1200 926 925
630 3 2 2 2 1083 969 1058 1267
631 3 2 2 2 1201 1143 955 1171
632 3 2 2 2 1177 971 1002 1089
633 3 2 2 2 1168 1197 969 1083
634 3 2 2 2 1175 1191 926 927
635 3 2 2 2 1018 985 1134 1203
636 3 2 2 2 903 998 851 707
637 3 2 2 2 1084 1265 922 921
638 3 2 2 2 1293 1264 1081 1263
639 3 2 2 2 1197 1168 1012 1220
640 3 2 2 2 1354 1323 923 924
641 3 2 2 2 1058 791 792 1064
642 3 2 2 2 1186 1204 1004 1097
643 3 2 2 2 903 707 850 999
644 3 2 2 2 1284 1330 1336 1356
645 3 2 2 2 968 1095 969 1197
646 3 2 2 2 1336 1332 1186 1294
647 3 2 2 2 1095 789 790 969
648 3 2 2 2 699 860 1004 941
649 3 2 2 2 1064 1179 1267 1058
650 3 2 2 2 1202 1257 1045 1172
651 3 2 2 2 1358 1324 1355 1376
652 3 2 2 2 1096 970 709 896
653 3 2 2 2 1094 1002 832 831
654 3 2 2 2 971 833 832 1002
655 3 2 2 2 1294 1186 1097 942
656 3 2 2 2 778 1172 1045 777
657 3 2 2 2 968 788 789 1095
658 3 2 2 2 1252 947 1159 1255
659 3 2 2 2 1333 1356 1190 1295
660 3 2 2 2 1000 1205 967 1099
661 3 2 2 2 971 1177 834 833
662 3 2 2 2 1098 1092 1009 1010
663 3 2 2 2 1097 1004 860 859
664 3 2 2 2 1247 1080 1250 1313
665 3 2 2 2 737 736 1055 1062
666 3 2 2 2 779 780 1056 1063
667 3 2 2 2 1050 1089 1002 1202
668 3 2 2 2 1003 974 782 783
669 3 2 2 2 1094 996 1165 1257
670 3 2 2 2 724 1061 1272 725
671 3 2 2 2 831 830 996 1094
672 3 2 2 2 830 700 1078 996
673 3 2 2 2 1092 1098 1046 1164
674 3 2 2 2 1009 1003 783 784
675 3 2 2 2 942 1097 859 858
676 3 2 2 2 843 704 929 1001
677 3 2 2 2 942 1100 1190 1294
678 3 2 2 2 1000 854 853 1178
679 3 2 2 2 1358 1372 1344 1324
680 3 2 2 2 1289 1331 1187 1249
681 3 2 2 2 1295 1190 1100 967
682 3 2 2 2 1175 1317 1352 1191
683 3 2 2 2 1288 1289 1249 1069
684 3 2 2 2 1333 1295 967 1205
685 3 2 2 2 1010 1009 784 785
686 3 2 2 2 1313 1250 1079 1256
687 3 2 2 2 1256 1079 1088 1314
688 3 2 2 2 1078 700 1071 1241
689 3 2 2 2 1100 942 858 857
690 3 2 2 2 1294 1190 1356 1336
691 3 2 2 2 1000 1099 855 854
692 3 2 2 2 967 1100 857 856
693 3 2 2 2 1282 1335 1070 1204
694 3 2 2 2 1354 1320 1191 1352
695 3 2 2 2 1371 1282 1332 1377
696 3 2 2 2 941 1065 938 699
697 3 2 2 2 947 1252 1193 1104
698 3 2 2 2 1099 967 856 855
699 3 2 2 2 1368 1369 1346 1280
700 3 2 2 2 1098 1010 906 905
701 3 2 2 2 974 1101 781 782
702 3 2 2 2 1288 1346 1369 1349
703 3 2 2 2 1281 1329 1274 1207
704 3 2 2 2 1335 1281 1207 1070
705 3 2 2 2 1245 1347 1275 1189
706 3 2 2 2 1207 1274 1181 1065
707 3 2 2 2 1306 938 1065 1181
708 3 2 2 2 1329 1355 1324 1274
709 3 2 2 2 1293 1248 899 900
710 3 2 2 2 1274 1324 1344 1181
711 3 2 2 2 1277 1365 1360 1338
712 3 2 2 2 1378 1359 1344 1372
713 3 2 2 2 1375 1378 1366 1342
714 3 2 2 2 1196 901 900 1292
715 3 2 2 2 1359 1345 1239 1306
716 3 2 2 2 1359 1306 1181 1344
717 3 2 2 2 1183 1304 1341 1287
718 3 2 2 2 1285 1337 1296 1309
719 3 2 2 2 1070 1207 1065 941
720 3 2 2 2 1193 1252 1241 1309
721 3 2 2 2 1328 1361 1360 1341
722 3 2 2 2 1010 785 696 906
723 3 2 2 2 819 820 1102 954
724 3 2 2 2 1108 943 1188 1297
725 3 2 2 2 718 1015 934 719
726 3 2 2 2 753 754 935 1023
727 3 2 2 2 754 755 1105 935
728 3 2 2 2 808 809 960 1030
729 3 2 2 2 809 810 1106 960
730 3 2 2 2 886 885 992 993
731 3 2 2 2 888 1107 978 889
732 3 2 2 2 1129 1014 1301 1226
733 3 2 2 2 1337 1363 1340 1296
734 3 2 2 2 718 717 1103 1015
735 3 2 2 2 773 1104 943 772
736 3 2 2 2 1159 947 774 775
737 3 2 2 2 773 774 947 1104
738 3 2 2 2 1302 1223 983 1111
739 3 2 2 2 716 948 1103 717
740 3 2 2 2 1223 1302 949 1110
741 3 2 2 2 991 990 1147 1218
742 3 2 2 2 716 715 1109 948
743 3 2 2 2 772 943 1108 771
744 3 2 2 2 884 883 991 1112
745 3 2 2 2 1104 1193 1188 943
746 3 2 2 2 1303 1224 992 1112
747 3 2 2 2 1309 1296 1188 1193
748 3 2 2 2 1110 949 705 848
749 3 2 2 2 758 937 1152 757
750 3 2 2 2 760 1013 1118 759
751 3 2 2 2 1108 1017 770 771
752 3 2 2 2 825 1032 1033 826
753 3 2 2 2 865 982 1111 866
754 3 2 2 2 1303 1128 1031 1224
755 3 2 2 2 1033 1032 1209 1068
756 3 2 2 2 846 1038 1223 1110
757 3 2 2 2 964 1149 1223 1038
758 3 2 2 2 1017 1108 1297 1208
759 3 2 2 2 1013 1225 1304 1118
760 3 2 2 2 1067 1277 1338 1209
761 3 2 2 2 1068 1209 1338 1286
762 3 2 2 2 1360 1361 1286 1338
763 3 2 2 2 748 1008 822 693
764 3 2 2 2 767 694 768 1026
765 3 2 2 2 1131 823 699 938
766 3 2 2 2 829 936 1071 700
767 3 2 2 2 889 978 1073 712
768 3 2 2 2 890 712 1072 979
769 3 2 2 2 689 749 1019 713
770 3 2 2 2 714 713 1019 1005
771 3 2 2 2 714 1005 1109 715
772 3 2 2 2 1156 1006 730 729
773 3 2 2 2 691 730 1006 897
774 3 2 2 2 1171 955 740 739
775 3 2 2 2 741 740 1113 1020
776 3 2 2 2 742 741 1020 956
777 3 2 2 2 742 956 1114 743
778 3 2 2 2 744 743 1114 1021
779 3 2 2 2 745 744 1021 953
780 3 2 2 2 745 953 1115 746
781 3 2 2 2 747 746 1115 1022
782 3 2 2 2 748 747 1022 1008
783 3 2 2 2 751 965 1116 750
784 3 2 2 2 749 750 1116 1019
785 3 2 2 2 751 752 1117 965
786 3 2 2 2 753 1023 1117 752
787 3 2 2 2 756 1024 1105 755
788 3 2 2 2 756 757 1152 1024
789 3 2 2 2 759 1118 937 758
790 3 2 2 2 761 1119 1013 760
791 3 2 2 2 762 939 1119 761
792 3 2 2 2 763 1120 939 762
793 3 2 2 2 764 1025 1120 763
794 3 2 2 2 765 944 1025 764
795 3 2 2 2 766 1121 944 765
796 3 2 2 2 767 1026 1121 766
797 3 2 2 2 769 980 1026 768
798 3 2 2 2 769 770 1017 980
799 3 2 2 2 696 786 1027 906
800 3 2 2 2 1047 793 794 957
801 3 2 2 2 795 958 1122 794
802 3 2 2 2 795 796 1123 958
803 3 2 2 2 797 959 1123 796
804 3 2 2 2 797 798 1028 959
805 3 2 2 2 800 951 1124 799
806 3 2 2 2 798 799 1124 1028
807 3 2 2 2 800 801 1029 951
808 3 2 2 2 803 1011 1125 802
809 3 2 2 2 801 802 1125 1029
810 3 2 2 2 698 804 1011 803
811 3 2 2 2 806 952 1126 805
812 3 2 2 2 804 805 1126 1011
813 3 2 2 2 806 807 1127 952
814 3 2 2 2 808 1030 1127 807
815 3 2 2 2 811 1039 1106 810
816 3 2 2 2 811 812 961 1039
817 3 2 2 2 812 813 1128 961
818 3 2 2 2 815 962 1031 814
819 3 2 2 2 813 814 1031 1128
820 3 2 2 2 816 1129 962 815
821 3 2 2 2 817 1014 1129 816
822 3 2 2 2 818 1130 1014 817
823 3 2 2 2 819 954 1130 818
824 3 2 2 2 822 1008 1041 821
825 3 2 2 2 820 821 1041 1102
826 3 2 2 2 825 824 940 1032
827 3 2 2 2 823 1131 940 824
828 3 2 2 2 826 1033 1034 827
829 3 2 2 2 829 828 1132 936
830 3 2 2 2 827 1034 1132 828
831 3 2 2 2 702 904 1035 840
832 3 2 2 2 841 840 1035 1012
833 3 2 2 2 1168 842 841 1012
834 3 2 2 2 1001 963 844 843
835 3 2 2 2 845 844 1133 964
836 3 2 2 2 846 845 964 1038
837 3 2 2 2 983 867 866 1111
838 3 2 2 2 867 983 984 868
839 3 2 2 2 868 984 1134 869
840 3 2 2 2 869 1134 985 870
841 3 2 2 2 872 975 1135 873
842 3 2 2 2 874 873 1135 986
843 3 2 2 2 874 986 1136 875
844 3 2 2 2 876 875 1136 987
845 3 2 2 2 876 987 1137 877
846 3 2 2 2 878 877 1137 1036
847 3 2 2 2 711 878 1036 976
848 3 2 2 2 711 977 988 879
849 3 2 2 2 879 988 989 880
850 3 2 2 2 880 989 1151 881
851 3 2 2 2 990 991 883 882
852 3 2 2 2 881 1151 990 882
853 3 2 2 2 992 885 884 1112
854 3 2 2 2 887 886 993 1040
855 3 2 2 2 888 887 1040 1107
856 3 2 2 2 890 979 1138 891
857 3 2 2 2 892 891 1138 994
858 3 2 2 2 892 994 1139 893
859 3 2 2 2 894 893 1139 1037
860 3 2 2 2 895 894 1037 995
861 3 2 2 2 1096 896 895 995
862 3 2 2 2 906 1027 1140 905
863 3 2 2 2 904 905 1140 1035
864 3 2 2 2 1285 1071 936 1182
865 3 2 2 2 1120 1180 1299 939
866 3 2 2 2 1119 939 1299 1184
867 3 2 2 2 1032 940 1067 1209
868 3 2 2 2 1130 954 1300 1212
869 3 2 2 2 1102 1213 1300 954
870 3 2 2 2 740 955 1143 1113
871 3 2 2 2 794 1122 1214 957
872 3 2 2 2 1122 958 1215 1214
873 3 2 2 2 1030 960 1217 1146
874 3 2 2 2 1106 1216 1217 960
875 3 2 2 2 1147 1039 961 1218
876 3 2 2 2 1128 1303 1218 961
877 3 2 2 2 1031 962 1148 1224
878 3 2 2 2 1129 1226 1148 962
879 3 2 2 2 844 963 1203 1133
880 3 2 2 2 786 968 1140 1027
881 3 2 2 2 1197 1220 1140 968
882 3 2 2 2 1085 1206 1135 975
883 3 2 2 2 711 976 1075 977
884 3 2 2 2 988 977 1221 1146
885 3 2 2 2 1075 1211 1221 977
886 3 2 2 2 1107 1301 1212 978
887 3 2 2 2 1072 1142 1222 979
888 3 2 2 2 1026 980 1150 1121
889 3 2 2 2 1111 982 1210 1302
890 3 2 2 2 1149 984 983 1223
891 3 2 2 2 1135 1214 1215 986
892 3 2 2 2 988 1146 1217 989
893 3 2 2 2 1151 989 1217 1216
894 3 2 2 2 1112 991 1218 1303
895 3 2 2 2 992 1224 1148 993
896 3 2 2 2 1040 993 1148 1226
897 3 2 2 2 1096 995 1037 1143
898 3 2 2 2 1035 1140 1220 1012
899 3 2 2 2 1119 1184 1225 1013
900 3 2 2 2 1130 1212 1301 1014
901 3 2 2 2 980 1017 1208 1150
902 3 2 2 2 956 1020 1227 1144
903 3 2 2 2 953 1021 1222 1142
904 3 2 2 2 1008 1022 1076 1041
905 3 2 2 2 944 1074 1228 1025
906 3 2 2 2 1120 1025 1228 1180
907 3 2 2 2 959 1028 1229 1145
908 3 2 2 2 951 1029 1230 1141
909 3 2 2 2 1033 1068 1231 1034
910 3 2 2 2 976 1036 1232 1141
911 3 2 2 2 1137 1229 1232 1036
912 3 2 2 2 1139 1227 1233 1037
913 3 2 2 2 1301 1107 1040 1226
914 3 2 2 2 712 1073 1234 1072
915 3 2 2 2 978 1212 1300 1073
916 3 2 2 2 1234 1073 1300 1213
917 3 2 2 2 944 1121 1150 1074
918 3 2 2 2 1298 1074 1150 1208
919 3 2 2 2 1228 1074 1298 1279
920 3 2 2 2 976 1141 1230 1075
921 3 2 2 2 1041 1076 1213 1102
922 3 2 2 2 1022 1115 1235 1076
923 3 2 2 2 1213 1076 1235 1234
924 3 2 2 2 1039 1147 1216 1106
925 3 2 2 2 1037 1233 1113 1143
926 3 2 2 2 1020 1113 1233 1227
927 3 2 2 2 956 1144 1236 1114
928 3 2 2 2 1021 1114 1236 1222
929 3 2 2 2 953 1142 1235 1115
930 3 2 2 2 959 1145 1237 1123
931 3 2 2 2 958 1123 1237 1215
932 3 2 2 2 951 1141 1232 1124
933 3 2 2 2 1028 1124 1232 1229
934 3 2 2 2 1011 1126 1238 1125
935 3 2 2 2 1029 1125 1238 1230
936 3 2 2 2 952 1211 1238 1126
937 3 2 2 2 1030 1146 1221 1127
938 3 2 2 2 952 1127 1221 1211
939 3 2 2 2 936 1132 1305 1182
940 3 2 2 2 1034 1231 1305 1132
941 3 2 2 2 964 1133 1258 1149
942 3 2 2 2 1134 1258 1133 1203
943 3 2 2 2 984 1149 1258 1134
944 3 2 2 2 957 1214 1135 1206
945 3 2 2 2 987 1136 1237 1145
946 3 2 2 2 986 1215 1237 1136
947 3 2 2 2 987 1145 1229 1137
948 3 2 2 2 994 1138 1236 1144
949 3 2 2 2 979 1222 1236 1138
950 3 2 2 2 994 1144 1227 1139
951 3 2 2 2 1072 1234 1235 1142
952 3 2 2 2 990 1151 1216 1147
953 3 2 2 2 1228 1279 1325 1180
954 3 2 2 2 1075 1230 1238 1211
955 3 2 2 2 1184 1278 1328 1225
956 3 2 2 2 1304 1225 1328 1341
957 3 2 2 2 1068 1286 1327 1231
958 3 2 2 2 1184 1299 1339 1278
959 3 2 2 2 1328 1278 1373 1361
960 3 2 2 2 1339 1362 1373 1278
961 3 2 2 2 1298 1340 1363 1279
962 3 2 2 2 1182 1326 1337 1285
963 3 2 2 2 1188 1296 1340 1297
964 3 2 2 2 1208 1297 1340 1298
965 3 2 2 2 1180 1325 1339 1299
966 3 2 2 2 1182 1305 1364 1326
967 3 2 2 2 1231 1327 1364 1305
968 3 2 2 2 1339 1325 1374 1362
969 3 2 2 2 1279 1363 1374 1325
970 3 2 2 2 1364 1362 1374 1326
971 3 2 2 2 1337 1326 1374 1363
972 3 2 2 2 1286 1361 1373 1327
973 3 2 2 2 1364 1327 1373 1362
974 3 2 2 2 1304 1183 937 1118
975 3 2 2 2 1241 1071 1285 1309
976 3 2 2 2 1360 1365 1287 1341
977 3 2 2 2 1189 1275 1310 1242
978 3 2 2 2 1019 1116 1243 1005
979 3 2 2 2 1244 1105 1024 1308
980 3 2 2 2 965 1242 1243 1116
981 3 2 2 2 1109 1005 1243 1219
982 3 2 2 2 1152 937 1183 1240
983 3 2 2 2 1170 705 949 1077
984 3 2 2 2 1302 1210 1077 949
985 3 2 2 2 1109 1219 1307 948
986 3 2 2 2 1245 1189 1117 1023
987 3 2 2 2 1152 1240 1308 1024
988 3 2 2 2 1287 1342 1240 1183
989 3 2 2 2 1310 1219 1243 1242
990 3 2 2 2 1210 1153 1253 1077
991 3 2 2 2 1117 1189 1242 965
992 3 2 2 2 1165 966 1045 1257
993 3 2 2 2 1348 1307 1219 1310
994 3 2 2 2 1246 1015 1103 1185
995 3 2 2 2 1365 1375 1342 1287
996 3 2 2 2 1103 948 1307 1185
997 3 2 2 2 1343 1244 1308 1366
998 3 2 2 2 1359 1378 1375 1345
999 3 2 2 2 1185 1307 1348 1280
1000 3 2 2 2 1347 1245 1066 1276
1001 3 2 2 2 1153 1210 982 981
1002 3 2 2 2 982 865 864 981
1003 3 2 2 2 1157 981 864 863
1004 3 2 2 2 1343 1276 1066 1244
1005 3 2 2 2 1185 1280 1346 1246
1006 3 2 2 2 1366 1308 1240 1342
1007 3 2 2 2 1376 1347 1276 1358
1008 3 2 2 2 1357 1348 1310 1275
1009 3 2 2 2 1368 1280 1348 1357
1010 3 2 2 2 1372 1358 1276 1343
1011 3 2 2 2 1376 1357 1275 1347
1012 3 2 2 2 1372 1343 1366 1378
1013 3 2 2 2 1244 1066 935 1105
1014 3 2 2 2 1245 1023 935 1066
1015 3 2 2 2 1246 1069 934 1015
1016 3 2 2 2 1204 1186 1332 1282
1017 3 2 2 2 1306 1239 1131 938
1018 3 2 2 2 940 1131 1239 1067
1019 3 2 2 2 1345 1277 1067 1239
1020 3 2 2 2 1335 1370 1349 1281
1021 3 2 2 2 1281 1349 1369 1329
1022 3 2 2 2 1044 1088 1079 972
1023 3 2 2 2 691 897 1042 731
1024 3 2 2 2 898 899 1248 1155
1025 3 2 2 2 1069 1246 1346 1288
1026 3 2 2 2 1371 1331 1289 1370
1027 3 2 2 2 1365 1277 1345 1375
1028 3 2 2 2 897 898 1155 1042
1029 3 2 2 2 719 934 1158 720
1030 3 2 2 2 941 1004 1204 1070
1031 3 2 2 2 1288 1349 1370 1289
1032 3 2 2 2 969 790 791 1058
1033 3 2 2 2 1247 899 898 1080
1034 3 2 2 2 897 1006 1080 898
1035 3 2 2 2 1086 1322 1082 1018
1036 3 2 2 2 1249 1158 934 1069
1037 3 2 2 2 1016 1187 1311 1162
1038 3 2 2 2 981 1157 1253 1153
1039 3 2 2 2 899 1247 1292 900
1040 3 2 2 2 924 923 1192 1318
1041 3 2 2 2 1312 1195 950 1161
1042 3 2 2 2 732 731 1042 1007
1043 3 2 2 2 732 1007 1160 733
1044 3 2 2 2 1161 950 862 861
1045 3 2 2 2 1157 863 862 950
1046 3 2 2 2 1156 729 728 972
1047 3 2 2 2 1352 1334 1313 1256
1048 3 2 2 2 1367 1262 997 1311
1049 3 2 2 2 721 1016 1162 722
1050 3 2 2 2 1250 1080 1006 1156
1051 3 2 2 2 1367 1311 1187 1331
1052 3 2 2 2 1042 1155 1154 1007
1053 3 2 2 2 905 904 1046 1098
1054 3 2 2 2 950 1195 1253 1157
1055 3 2 2 2 972 1079 1250 1156
1056 3 2 2 2 970 1166 1043 709
1057 3 2 2 2 1199 1170 1077 1251
1058 3 2 2 2 1187 1016 1158 1249
1059 3 2 2 2 1159 775 776 966
1060 3 2 2 2 721 720 1158 1016
1061 3 2 2 2 1290 1154 1155 1248
1062 3 2 2 2 1291 1194 1154 1290
1063 3 2 2 2 1163 735 734 973
1064 3 2 2 2 1194 1160 1007 1154
1065 3 2 2 2 1318 1192 1284 1353
1066 3 2 2 2 1312 1161 1043 1198
1067 3 2 2 2 1293 1350 1290 1248
1068 3 2 2 2 1255 1165 996 1078
1069 3 2 2 2 1161 861 709 1043
1070 3 2 2 2 734 733 1160 973
1071 3 2 2 2 739 738 1049 1171
1072 3 2 2 2 1057 723 722 997
1073 3 2 2 2 1311 997 722 1162
1074 3 2 2 2 776 777 1045 966
1075 3 2 2 2 1061 1173 1054 1272
1076 3 2 2 2 1051 946 837 836
1077 3 2 2 2 1355 1368 1357 1376
1078 3 2 2 2 1255 1159 966 1165
1079 3 2 2 2 1352 1256 1314 1354
1080 3 2 2 2 1202 1172 778 1050
1081 3 2 2 2 728 727 1044 972
1082 3 2 2 2 1334 1292 1247 1313
1083 3 2 2 2 704 703 1169 929
1084 3 2 2 2 870 985 1018 871
1085 3 2 2 2 849 705 1170 1059
1086 3 2 2 2 1291 1259 1160 1194
1087 3 2 2 2 1195 1312 1198 1315
1088 3 2 2 2 1044 1054 1173 1266
1089 3 2 2 2 999 1167 1263 1081
1090 3 2 2 2 1367 1351 1316 1262
1091 3 2 2 2 1163 1055 736 735
1092 3 2 2 2 1101 1056 780 781
1093 3 2 2 2 1191 1320 925 926
1094 3 2 2 2 725 1272 1054 726
1095 3 2 2 2 837 946 1164 838
1096 3 2 2 2 1044 1266 1323 1088
1097 3 2 2 2 727 726 1054 1044
1098 3 2 2 2 1092 1164 946 1090
1099 3 2 2 2 872 710 1085 975
1100 3 2 2 2 871 1018 1082 710
1101 3 2 2 2 1331 1371 1377 1367
1102 3 2 2 2 1078 1241 1252 1255
1103 3 2 2 2 1265 1084 1262 1316
1104 3 2 2 2 1163 973 1160 1259
1105 3 2 2 2 1260 1085 710 1082
1106 3 2 2 2 1351 1367 1377 1330
1107 3 2 2 2 963 1001 1254 1086
1108 3 2 2 2 1077 1253 1195 1251
1109 3 2 2 2 1198 911 912 1315
1110 3 2 2 2 738 692 907 1049
1111 3 2 2 2 778 695 919 1050
1112 3 2 2 2 974 1261 1051 1087
1113 3 2 2 2 904 702 839 1046
1114 3 2 2 2 835 834 1177 1048
1115 3 2 2 2 1329 1369 1368 1355
1116 3 2 2 2 836 701 916 1052
1117 3 2 2 2 839 838 1164 1046
1118 3 2 2 2 842 945 1169 703
1119 3 2 2 2 1086 1254 1269 1322
1120 3 2 2 2 910 1273 1321 911
1121 3 2 2 2 1176 1060 851 998
1122 3 2 2 2 1091 933 697 1047
1123 3 2 2 2 852 1053 1178 853
1124 3 2 2 2 1283 912 911 1321
1125 3 2 2 2 932 1260 1269 931
1126 3 2 2 2 1018 1203 963 1086
1127 3 2 2 2 1051 1261 1090 946
1128 3 2 2 2 1198 1043 1166 1270
1129 3 2 2 2 723 1057 920 690
1130 3 2 2 2 1260 1082 1322 1269
1131 3 2 2 2 911 1198 1270 910
1132 3 2 2 2 1254 930 931 1269
1133 3 2 2 2 1049 907 908 1174
1134 3 2 2 2 1166 909 910 1270
1135 3 2 2 2 1167 914 913 1271
1136 3 2 2 2 1265 1192 923 922
1137 3 2 2 2 999 915 914 1167
1138 3 2 2 2 900 901 1264 1293
1139 3 2 2 2 851 1060 928 708
1140 3 2 2 2 706 849 1059 915
1141 3 2 2 2 902 903 999 1081
1142 3 2 2 2 692 737 1062 907
1143 3 2 2 2 695 779 1063 919
1144 3 2 2 2 1351 1330 1284 1316
1145 3 2 2 2 1200 1319 1333 1205
1146 3 2 2 2 1206 1091 1047 957
1147 3 2 2 2 901 902 1081 1264
1148 3 2 2 2 1001 929 930 1254
1149 3 2 2 2 1316 1284 1192 1265
1150 3 2 2 2 1170 914 915 1059
1151 3 2 2 2 690 920 1061 724
1152 3 2 2 2 701 835 1048 916
1153 3 2 2 2 708 928 1053 852
1154 3 2 2 2 836 1052 1087 1051
1155 3 2 2 2 1262 1084 1057 997
1156 3 2 2 2 1266 1173 921 922
1157 3 2 2 2 901 1196 1176 902
1158 3 2 2 2 902 1176 998 903
1159 3 2 2 2 1318 1353 1333 1319
1160 3 2 2 2 1064 932 931 1179
1161 3 2 2 2 1060 1175 927 928
1162 3 2 2 2 1178 1053 928 927
1163 3 2 2 2 1167 1271 1283 1263
1164 3 2 2 2 1173 1061 920 921
1165 3 2 2 2 1336 1330 1377 1332
1166 3 2 2 2 929 1169 1268 930
1167 3 2 2 2 916 1048 1177 917
1168 3 2 2 2 907 1062 1055 908
1169 3 2 2 2 919 1063 1056 918
1170 3 2 2 2 1179 1268 1083 1267
1171 3 2 2 2 1088 1323 1354 1314
1172 3 2 2 2 850 706 915 999
1173 3 2 2 2 909 1166 1174 908
1174 3 2 2 2 1052 916 917 1087
1175 3 2 2 2 917 1177 1089 918
1176 3 2 2 2 1260 932 933 1091
1177 3 2 2 2 842 1168 1083 945
1178 3 2 2 2 1169 945 1083 1268
1179 3 2 2 2 1317 1175 1060 1176
1180 3 2 2 2 1284 1356 1333 1353
$EndElements
