$MeshFormat
2.2 0 8
$EndMeshFormat
$Nodes
861
1 0 0 0
2 0 200 0
3 0 200 20
4 0 200 40
5 0 200 50
6 0 200 60
7 0 200 80
8 0 200 100
9 0 0 100
10 0 5 0
11 0 10 0
12 0 15 0
13 0 20 0
14 0 25 0
15 0 30 0
16 0 35 0
17 0 40 0
18 0 45 0
19 0 50 0
20 0 55 0
21 0 60 0
22 0 65 0
23 0 70 0
24 0 75 0
25 0 80 0
26 0 85 0
27 0 90 0
28 0 95 0
29 0 100 0
30 0 105 0
31 0 110 0
32 0 115 0
33 0 120 0
34 0 125 0
35 0 130 0
36 0 135 0
37 0 140 0
38 0 145 0
39 0 150 0
40 0 155 0
41 0 160 0
42 0 165 0
43 0 170 0
44 0 175 0
45 0 180 0
46 0 185 0
47 0 190 0
48 0 195 0
49 0 200 5
50 0 200 10
51 0 200 15
52 0 200 25
53 0 200 30
54 0 200 35
55 0 200 45
56 0 200 55
57 0 200 65
58 0 200 70
59 0 200 75
60 0 200 85
61 0 200 90
62 0 200 95
63 0 195 100
64 0 190 100
65 0 185 100
66 0 180 100
67 0 175 100
68 0 170 100
69 0 165 100
70 0 160 100
71 0 155 100
72 0 150 100
73 0 145 100
74 0 140 100
75 0 135 100
76 0 130 100
77 0 125 100
78 0 120 100
79 0 115 100
80 0 110 100
81 0 105 100
82 0 100 100
83 0 95 100
84 0 90 100
85 0 85 100
86 0 80 100
87 0 75 100
88 0 70 100
89 0 65 100
90 0 60 100
91 0 55 100
92 0 50 100
93 0 45 100
94 0 40 100
95 0 35 100
96 0 30 100
97 0 25 100
98 0 20 100
99 0 15 100
100 0 10 100
101 0 4.99999999999997 100
102 0 0 95
103 0 0 90
104 0 0 85
105 0 0 80
106 0 0 75
107 0 0 70
108 0 0 65
109 0 0 60
110 0 0 55
111 0 0 50
112 0 0 45
113 0 0 40
114 0 0 35
115 0 0 30
116 0 0 25
117 0 0 20
118 0 0 15
119 0 0 10
120 0 0 5
121 0 54.9999848510895 94.9999828359298
122 0 145 4.99999999999999
123 0 79.9593844268956 95.015036670037
124 0 114.929554267251 95.0107871676904
125 0 60 5
126 0 85 5
127 0 120 5
128 0 149.999999622865 95.0000000049029
129 0 5 40
130 0 5 60
131 0 195 40
132 0 195 65
133 0 170 5
134 0 29.9999999999526 94.999999999952
135 0 30 5
136 0 180 95
137 0 5 20
138 0 195 25
139 0 5 75
140 0 180 5
141 0 19.9999999999999 94.9999999999999
142 0 10 5
143 0 100 5
144 0 195 15
145 0 99.7383682564381 95.1352200467088
146 0 5 85
147 0 134.999644511493 95.0000111992932
148 0 195 85
149 0 70 5
150 0 40 5
151 0 130 5
152 0 69.9971063200827 94.9991581301828
153 0 169.999999999995 95.0000000000001
154 0 44.9999998377291 94.999999804502
155 0 155 5
156 0 195 5
157 0 5 95
158 0 195 95
159 0 160 5
160 0 39.9999999781621 94.999999973991
161 0 105 5
162 0 124.991992300243 95.0006518334865
163 0 94.7632413347258 95.1546234682768
164 0 5 10
165 0 135 5
166 0 64.9993622016694 94.9996442221019
167 0 110 5
168 0 89.8340809638909 95.1180478204171
169 0 50 5
170 0 75 5
171 0 5 45
172 0 195 50
173 0 15 5
174 0 20 5
175 0 90 5
176 0 185 5
177 0 195 35
178 0 109.861438009799 95.0359242124763
179 0 15 95
180 0 5 50
181 0 5 30
182 0 195 60
183 0 159.999999998806 95.0000000000126
184 0 195 80
185 0 5 5
186 0 195 75
187 0 190 95
188 0 5 65
189 0 144.999994684397 95.0000000668325
190 0 69.9961612812734 90.0002920461238
191 0 130 9.99999999999999
192 0 100 10
193 0 114.903561124441 90.0266380318008
194 0 70 9.99999999999999
195 0 94.6729427949597 90.3321863266477
196 0 149.999998224281 90.000000025517
197 0 10 45
198 0 44.9999996037321 89.9999994794604
199 0 190 65
200 0 155 10
201 0 10 60
202 0 190 40
203 0 190 80
204 0 15 10
205 0 180 10
206 0 19.999999999999 89.999999999999
207 0 59.9998618859472 94.9998922523158
208 0 140 4.99999999999999
209 0 165 5
210 0 34.9999999969689 94.9999999964432
211 0 80 5
212 0 119.973231987037 95.0041240504405
213 0 150 5
214 0 49.9999971697172 94.9999967070932
215 0 10 10
216 0 115 5
217 0 84.9099022520731 95.0607372134667
218 0 65 5
219 0 125 5
220 0 74.9869758528276 95.0026797007224
221 0 190 5
222 0 10 95
223 0 95 5
224 0 195 10
225 0 129.997729599171 95.0001576692949
226 0 104.800199296097 95.0828331611193
227 0 5 90
228 0 5 15
229 0 105 10
230 0 55 5
231 0 35 5
232 0 45 5
233 0 5 25
234 0 195 20
235 0 25 5
236 0 195 30
237 0 195 45
238 0 195 55
239 0 154.999999839402 95.0000000022338
240 0 5 80
241 0 5 70
242 0 5 55
243 0 5 35
244 0 195 70
245 0 195 90
246 0 185 95
247 0 174.999999999999 95
248 0 164.999999999822 95.0000000000019
249 0 139.99991818456 95.0000023762841
250 0 175 5
251 0 24.9999999999927 94.9999999999926
252 0 100 15
253 0 35 10
254 0 169.999999999969 90.0000000000003
255 0 129.996402855143 90.0003201373151
256 0 50 10
257 0 10 25
258 0 79.94864224962 90.0489204449914
259 0 120 9.99999999999999
260 0 54.9999685311215 89.9999626898203
261 0 64.9990038508903 89.9997477153319
262 0 145 9.99999999999999
263 0 135 9.99999999999999
264 0 110 9.99999999999999
265 0 10 55
266 0 190 25
267 0 10 70
268 0 185 10
269 0 14.9999999999998 89.9999999999998
270 0 190 55
271 0 190 45
272 0 185 90
273 0 190 75
274 0 170 10
275 0 29.9999999993598 89.9999999992019
276 0 99.6729851162481 90.2798459865837
277 0 90 10
278 0 74.9832042107128 90.0134577880813
279 0 125 9.99999999999999
280 0 119.960951587752 90.0084690443184
281 0 160 10
282 0 39.9999999121682 89.9999998842691
283 0 49.9999930654154 89.9999912368154
284 0 80 9.99999999999999
285 0 95 10
286 0 150 10
287 0 60 10
288 0 40 10
289 0 65 10
290 0 10 35
291 0 109.818069016672 90.0816107940101
292 0 10 50
293 0 159.999999987766 90.0000000001628
294 0 154.999999693171 90.000000004319
295 0 10 40
296 0 25 10
297 0 10 65
298 0 10 15
299 0 190 15
300 0 9.99999999999997 85
301 0 139.999863662789 90.0000046372682
302 0 144.999971580314 90.0000008314816
303 0 20 10
304 0 190 35
305 0 190 60
306 0 190 10
307 0 9.99999999999997 90
308 0 9.99999999999999 75
309 0 180 90
310 0 190 85
311 0 75 10
312 0 190 90
313 0 190 70
314 0 175 10
315 0 24.9999999999105 89.9999999998904
316 0 84.8767381392972 90.1458078582764
317 0 89.7866761120691 90.2640651080018
318 0 69.9984465541505 85.0041360822799
319 0 125 15
320 0 145 15
321 0 114.928696274061 85.0456035475194
322 0 75 15
323 0 139.999836734317 85.0000079779737
324 0 185 45
325 0 159.999999973011 85.0000000003686
326 0 49.9999943705263 84.9999909690449
327 0 15 45
328 0 14.9999999999999 59.9999999999999
329 0 35 15
330 0 29.9999999984303 84.9999999976814
331 0 185 65
332 0 14.9999999999988 69.9999999999983
333 0 170 15
334 0 79.9776453542264 85.0909603929259
335 0 20 15
336 0 65 15
337 0 185 80
338 0 104.744191844996 90.1760309222806
339 0 85 10
340 0 140 9.99999999999999
341 0 95 15
342 0 44.9999986417066 84.9999979370766
343 0 59.9997601471015 89.9998650721439
344 0 115 9.99999999999999
345 0 124.985986656953 90.0023606641376
346 0 55 10
347 0 175 15
348 0 24.9999999997388 84.9999999996317
349 0 45 10
350 0 15 50
351 0 190 30
352 0 30 10
353 0 190 50
354 0 15 35
355 0 10 20
356 0 130 15
357 0 185 15
358 0 14.9999999999997 84.9999999999997
359 0 10 30
360 0 154.999999692544 85.000000004603
361 0 190 20
362 0 9.99999999999997 80
363 0 185 60
364 0 185 75
365 0 164.999999996645 90.0000000000449
366 0 150 15
367 0 155 15
368 0 105 15
369 0 174.999999999995 90.0000000000001
370 0 185 85
371 0 185 40
372 0 134.999017222337 90.0000685017675
373 0 149.999995571413 85.000000112093
374 0 165 10
375 0 34.9999999836684 89.9999999785695
376 0 15 15
377 0 94.7767099539473 85.5086851188
378 0 89.8639593764696 85.3990788631944
379 0 94.9850007462354 80.6055814517774
380 0 125 19.9999999999999
381 0 145 20
382 0 95 20
383 0 154.999999411452 80.0000000137818
384 0 20 45
385 0 49.9999976955223 79.9999928766666
386 0 180 45
387 0 179.999999999999 65
388 0 170 20
389 0 185 30
390 0 29.9999999972875 79.9999999953834
391 0 129.996184122234 85.0005796612995
392 0 30 15
393 0 14.9999999999976 74.9999999999965
394 0 185 55
395 0 185 20
396 0 179.999999999999 80
397 0 39.9999997584206 84.9999996302403
398 0 160 15
399 0 104.805055649286 85.2737101495669
400 0 99.782487167216 85.4169703317159
401 0 74.9939351753404 85.0284619448562
402 0 85 15
403 0 120 15
404 0 110 15
405 0 90 15
406 0 59.9998859905663 84.9999265565826
407 0 54.9999620366632 84.9999631986797
408 0 140 15
409 0 150 20
410 0 134.998868875228 85.000124557928
411 0 25 15
412 0 70 15
413 0 185 35
414 0 15 30
415 0 180 15
416 0 19.9999999999596 84.9999999999448
417 0 169.99999999969 85.000000000004
418 0 15 20
419 0 185 50
420 0 164.999999994692 85.0000000000714
421 0 14.9999999999959 79.9999999999944
422 0 14.9999999999997 64.9999999999996
423 0 15 55
424 0 80 15
425 0 40 15
426 0 50 15
427 0 144.999958351605 85.0000016996549
428 0 185 70
429 0 119.967436977112 85.0145816909219
430 0 100 20
431 0 64.9995816947391 85.0007257545128
432 0 15 40
433 0 179.999999999999 85
434 0 135 15
435 0 60 15
436 0 34.9999999553145 84.9999999320407
437 0 165 15
438 0 109.876168427354 85.1326905085953
439 0 84.9399490041629 85.2285851132954
440 0 75.0198214712196 80.0378100791379
441 0 114.976811539804 80.0589071911321
442 0 75.000000012646 20.0000000113029
443 0 95.0006115097663 25.0006566636926
444 0 145 24.9999999999999
445 0 129.997656005226 80.0006862076701
446 0 35 20
447 0 19.9999999999949 59.9999999999908
448 0 20 30
449 0 169.999999999247 80.0000000000106
450 0 60.0001796088573 80.0001828175785
451 0 120.000000177354 20.0000001905382
452 0 180 35
453 0 65.0000000130179 20.0000000116353
454 0 20 40
455 0 159.999999891758 80.0000000022567
456 0 179.999999999999 75
457 0 19.9999999999738 69.9999999999585
458 0 19.9999999999999 49.9999999999999
459 0 180 20
460 0 139.999808133899 80.0000199434623
461 0 99.9535985247876 80.5117843616927
462 0 55.0000179006985 80.0000086878422
463 0 140 19.9999999999999
464 0 85 20
465 0 80.0476575282882 80.1238000276455
466 0 90.0000382193604 20.0000410414808
467 0 115.000000011085 15.0000000119086
468 0 30 20
469 0 20 20
470 0 15 25
471 0 55 15
472 0 180 40
473 0 19.9999999999653 79.9999999999513
474 0 180 50
475 0 179.999999999999 70
476 0 149.999993527414 80.0000002716298
477 0 185 25
478 0 44.9999990863469 79.9999978265267
479 0 124.986850738868 85.0041071911493
480 0 24.9999999994503 79.9999999991098
481 0 105.000001310697 20.0000014076847
482 0 175 20
483 0 130 19.9999999999999
484 0 180 60
485 0 155 20
486 0 174.99999999991 85.0000000000012
487 0 45 15
488 0 39.9999997403238 79.9999994654138
489 0 34.9999999404329 79.9999998889389
490 0 70.0065195567489 80.0109365757054
491 0 160 20
492 0 165 20
493 0 104.948783534735 80.3252095647484
494 0 90.0535844474677 80.4620421761663
495 0 55.0000430251812 75.0000185818931
496 0 75.0519345107723 75.0481394152874
497 0 120.00002702336 25.0000290250721
498 0 100.127006009891 75.4791738429075
499 0 24.9999999999995 44.9999999999989
500 0 175 45
501 0 154.999999215127 75.00000003008
502 0 160 24.9999999999999
503 0 174.999999999962 65.0000000000009
504 0 39.9999998805903 74.9999996430834
505 0 140 24.9999999999999
506 0 170 25
507 0 124.993129006807 80.0044377286468
508 0 35 25
509 0 50 20
510 0 180 30
511 0 40 20
512 0 95.2214644700032 75.504166239044
513 0 29.9999999941807 74.9999999888617
514 0 80.0000000045563 20.0000000040723
515 0 85.0001289996232 25.0001377680767
516 0 24.9999999989747 74.9999999981187
517 0 175 25
518 0 119.986072361092 80.0196526564923
519 0 70.0000000225489 20.0000000201541
520 0 115.00000337792 20.000003628134
521 0 20 25
522 0 175 40
523 0 19.9999999998191 74.9999999996818
524 0 19.999999999981 64.9999999999672
525 0 174.999999999936 75.0000000000009
526 0 180 25
527 0 180 55
528 0 20 35
529 0 135 19.9999999999999
530 0 50.0000066096612 75.0000005084639
531 0 150 24.9999999999999
532 0 164.999999982015 80.0000000003478
533 0 19.9999999999989 54.9999999999983
534 0 144.999950430887 80.0000038850324
535 0 100.000832412101 25.0008938826359
536 0 90.0004342908155 25.0004662249984
537 0 125.000006936085 25.0000074508067
538 0 174.99999999986 80.0000000000019
539 0 110.000003385518 20.0000036361293
540 0 134.999111357652 80.0001818120089
541 0 60.0000000053467 20.0000000047788
542 0 25 20
543 0 65.0017164527362 80.0025083149639
544 0 109.962464414172 80.1618656093934
545 0 85.0727965305532 80.2732011316705
546 0 115.022161040089 75.0615186704317
547 0 65.0000051590898 25.0000043601534
548 0 129.999345745909 75.0011120675817
549 0 55.0000627009864 70.0000238165316
550 0 120.000281310529 30.0003894706523
551 0 145.000000009811 30.0000000076728
552 0 95.0091604336719 30.0070862240353
553 0 169.999999999999 45
554 0 135 24.9999999999999
555 0 24.9999999999461 59.9999999998705
556 0 40.0000000000006 25.0000000000004
557 0 24.9999999999975 49.9999999999943
558 0 25 25
559 0 139.999865409091 75.0000334940902
560 0 149.99999306387 75.0000005215352
561 0 105.072641215769 75.3066208214194
562 0 90.2720903084145 75.4023056164912
563 0 130.000001221719 25.0000013124272
564 0 80.000051703952 25.0000526141697
565 0 115.000154737007 25.0001716348794
566 0 70.0169386361996 75.015637949184
567 0 120.006081976641 75.021189294002
568 0 75.0000292881264 25.0000265730441
569 0 55.0000000010403 20.0000000009298
570 0 29.9999999978907 69.9999999954771
571 0 25 35
572 0 159.999999825733 75.0000000058946
573 0 174.999999999989 55.0000000000004
574 0 170 30
575 0 175 35
576 0 174.999999999965 60.000000000001
577 0 169.999999998157 75.0000000000333
578 0 24.9999999999999 39.9999999999998
579 0 24.9999999991755 69.9999999983758
580 0 174.99999999985 70.0000000000027
581 0 105.000720657681 25.0007738782116
582 0 85.0034256963344 30.001967456933
583 0 174.999999999996 50.0000000000002
584 0 45.0000005659892 74.9999989309004
585 0 175 30
586 0 60.0006037599836 75.0004712537592
587 0 80.1287255916604 75.1332627682749
588 0 45 20
589 0 155 24.9999999999999
590 0 30 25
591 0 34.9999999564489 74.999999892531
592 0 165 24.9999999999999
593 0 75.0692803857085 70.0522463864288
594 0 115.048383934207 70.0592571094154
595 0 149.999996636955 70.0000005315812
596 0 30.0000000000645 45.0000000000028
597 0 169.999999998913 60.0000000000822
598 0 90.3957549342658 70.2710483160935
599 0 60.0008108892615 70.0005108145517
600 0 155.000000000187 30.0000000001443
601 0 35.0000000000098 30.0000000000062
602 0 45.0000008295234 69.9999995234893
603 0 130.000004144128 30.0000054622321
604 0 115.00134914047 30.0017317020507
605 0 170 35
606 0 55.0000001494192 25.0000001335501
607 0 45.0000000000013 25.0000000000008
608 0 169.999999999974 50.0000000000012
609 0 34.999999983186 69.999999941841
610 0 125.000059381538 30.0000826821533
611 0 80.0018549536642 30.0010351275465
612 0 29.9999999983373 64.9999999945821
613 0 170 40
614 0 30.0000000000012 30.0000000000008
615 0 70.0000193910978 25.0000165585378
616 0 60.0000012983547 25.0000011290858
617 0 24.9999999995189 64.9999999987515
618 0 25.0000000000002 30.0000000000001
619 0 169.999999998964 70.0000000000231
620 0 164.999999964942 75.0000000010626
621 0 144.999956907063 75.0000077273231
622 0 24.999999999979 54.9999999999457
623 0 30.0000000000036 35.0000000000019
624 0 154.999998907119 70.0000001162784
625 0 160.000000000023 30.000000000018
626 0 165.000000000003 30.0000000000022
627 0 140.000000066585 30.0000000768505
628 0 50.0000133334799 70.0000039627476
629 0 90.0077652649958 30.0050396205653
630 0 110.000523959164 25.0005810238289
631 0 134.999590827826 75.0002703467513
632 0 65.0046462763648 75.0042335338122
633 0 105.006985540073 30.0070951374141
634 0 100.010994254515 30.0096991623437
635 0 125.000344115622 75.006515556229
636 0 150.000000003114 30.0000000024193
637 0 85.2065258322448 75.2559888059384
638 0 110.042263246744 75.1627964483045
639 0 100.247567682285 70.3151660413275
640 0 65.0000604688651 30.0000485978823
641 0 130.000995086879 70.0013853942153
642 0 95.0514214049611 35.0311504047513
643 0 120.001189195618 35.0019217369437
644 0 55.0001262735533 65.0000695932619
645 0 145.000000250213 35.0000002549032
646 0 164.999999999749 50.0000000000176
647 0 155.00000000309 35.0000000021966
648 0 154.999999477219 65.0000000766471
649 0 85.2865891242172 70.19725040728
650 0 65.0054905077816 70.0041123160272
651 0 75.0009372429963 30.0005652922944
652 0 35.000000000085 35.0000000000498
653 0 164.999999975769 70.0000000008741
654 0 120.01844279139 70.0224312684747
655 0 165.000000000012 35.0000000000088
656 0 34.9999999979884 64.9999999741946
657 0 110.092054178251 70.1477200260951
658 0 80.1611373734252 70.1193720589469
659 0 70.0238950271992 70.0186980968356
660 0 125.000270492296 35.000463756349
661 0 29.9999999999916 54.9999999994416
662 0 29.9999999995578 59.9999999967176
663 0 110.004305443278 30.004900604316
664 0 60.000017788091 30.0000145649846
665 0 50.0000000383437 25.0000000342712
666 0 169.999999999407 55.0000000000492
667 0 159.999999739124 70.0000000228052
668 0 169.999999997296 65.0000000001225
669 0 144.999979450584 70.0000072097727
670 0 30.000000000079 49.9999999998445
671 0 40.0000000015999 30.0000000014099
672 0 164.99999999994 45.000000000013
673 0 135.000001021134 30.0000013432585
674 0 30.0000000000399 40.0000000000102
675 0 85.0236463364128 35.0105506688989
676 0 50.0000234535611 65.0000111198408
677 0 135.00008960585 70.0003425487381
678 0 40.0000001426488 69.9999997655959
679 0 105.033231332836 35.0317828426409
680 0 95.3364105363798 70.3059241703179
681 0 105.15437245003 70.2459990889858
682 0 85.2949072337082 65.1328890758669
683 0 105.200880376681 65.1953267677636
684 0 115.053650017681 65.0645984509548
685 0 65.0004042784321 35.0002930072992
686 0 70.0222732057986 65.0174725445269
687 0 130.001812293048 65.0013634536047
688 0 55.0001081402327 60.0000716598962
689 0 120.003356704232 40.0058598674989
690 0 40.0000000115936 35.0000000103343
691 0 35.0000000171454 50.000000011174
692 0 159.999999997793 50.0000000016629
693 0 110.017660359657 35.0203722098706
694 0 164.999999972627 65.0000000020882
695 0 164.999999996926 55.000000000422
696 0 40.0000001712375 64.9999998999804
697 0 90.387155899514 65.1415737339083
698 0 75.0699795443308 65.05067083486
699 0 70.0004118600073 30.0002722797887
700 0 35.0000000159857 59.9999999855996
701 0 115.006864761261 35.0093358299149
702 0 165.00000000001 40.000000000018
703 0 139.999966648169 70.0000786333029
704 0 50.0000001445572 30.0000001298904
705 0 55.0000038551918 30.0000032203345
706 0 35.0000000028425 40.0000000023131
707 0 159.999999809734 65.0000000222351
708 0 149.999997642324 65.0000011429711
709 0 60.0011879507735 65.000840645797
710 0 45.0000000354689 30.0000000317986
711 0 80.0121342778482 35.0058286363052
712 0 140.000001610085 35.0000020496578
713 0 130.000059699028 35.0001035539179
714 0 90.0448480653637 35.0217545427093
715 0 100.052728708805 35.0394661944513
716 0 125.005806191877 70.0074346988086
717 0 160.000000000516 35.0000000003622
718 0 45.0000043126402 65.0000015834373
719 0 150.000000049892 35.0000000453882
720 0 100.309117616403 65.1947800744895
721 0 95.1512201504955 40.074513125733
722 0 105.088855258922 40.0796421296045
723 0 80.0364427800807 40.0163087630597
724 0 55.0000115411074 35.0000098962844
725 0 145.000001697937 40.0000017121802
726 0 100.344446612923 60.1730996843902
727 0 90.383944394401 60.096778649564
728 0 75.0623099718974 60.0438668137035
729 0 60.0010562348031 60.0008300590254
730 0 115.015448129566 40.022320310289
731 0 70.0017500409922 35.0011218376514
732 0 160.000000000402 45.0000000008325
733 0 40.0000000475298 40.0000000417124
734 0 159.999999983866 55.0000000044541
735 0 120.022698783218 65.0249967875646
736 0 75.0064279591371 35.0033519532599
737 0 155.00000002803 40.0000000205713
738 0 149.999999737574 60.0000007525907
739 0 154.999999705434 60.0000001886656
740 0 159.999999893341 60.0000000338707
741 0 60.0001061585033 35.0000828873742
742 0 140.000042417729 65.000060416035
743 0 135.000445888422 65.0003977958002
744 0 35.0000000160461 45.0000000120564
745 0 164.999999968075 60.0000000063777
746 0 65.0072841548584 65.0056858203294
747 0 35.0000000163759 55.0000000031638
748 0 135.000013402685 35.0000220739923
749 0 145.000002674549 65.0000164858439
750 0 50.0000024308958 35.0000021307376
751 0 50.0000290072192 60.0000176479939
752 0 160.000000004104 40.000000003077
753 0 85.0802104797575 40.0302620443438
754 0 125.000978255041 40.0017544545065
755 0 45.0000004567793 35.0000004074169
756 0 125.008084248299 65.008270525386
757 0 40.0000004253707 60.0000001058818
758 0 80.1645809388719 65.0987767026972
759 0 110.112241774419 65.1375947879783
760 0 95.3775685909167 65.1726104960021
761 0 110.118888437007 60.1413261838896
762 0 120.021658227103 60.0266065989547
763 0 65.0014374132208 40.0010210325848
764 0 55.000051149812 40.0000446902031
765 0 130.002175325451 60.0019958278918
766 0 120.008744000759 45.0141096741146
767 0 80.0771721851203 45.0329050021054
768 0 55.000208977322 55.0001743806779
769 0 65.0061639311248 60.0051083283071
770 0 45.0000015275617 40.0000013918241
771 0 80.1534173427426 60.0806623259259
772 0 95.4013157061571 60.1312855124589
773 0 110.04553843831 40.0517503031495
774 0 75.0171533759611 40.0087503957147
775 0 40.0000004196157 55.0000002614852
776 0 155.000000057743 50.0000000505442
777 0 155.000000074256 45.0000000533463
778 0 150.000000726827 55.0000007068282
779 0 135.000597232233 60.000495855402
780 0 40.0000004077739 45.0000003534601
781 0 155.000000049356 55.0000001870698
782 0 70.0240167677434 60.0183734601631
783 0 130.0002724499 40.0004745900163
784 0 145.000012014877 60.0000117112863
785 0 140.000015930125 40.0000208393121
786 0 100.137484498476 40.0890350313882
787 0 90.1296993888483 40.0509079745584
788 0 45.0000064044962 60.0000034865345
789 0 150.000000386648 40.0000003511523
790 0 85.274752413589 60.1026291874178
791 0 105.224269139989 60.1928682983518
792 0 105.231710376889 55.1934137474109
793 0 75.0326148611842 45.0172203870925
794 0 130.001888536946 55.0021110225074
795 0 145.00001480272 55.0000109512082
796 0 95.2759043527128 45.1143344733857
797 0 90.3730374742751 55.0993965944672
798 0 105.156783502192 45.1310123718376
799 0 85.2543362769189 55.0858901269749
800 0 75.0587466864909 55.0359218421737
801 0 45.0000039827392 45.0000035802542
802 0 145.000008121134 45.000008060645
803 0 85.1589991402281 45.053091947035
804 0 45.0000052261394 55.0000035815757
805 0 150.000002321568 50.0000018183431
806 0 60.0003734778869 40.0002900020612
807 0 140.000143686387 60.0001198338839
808 0 40.0000011784102 50.0000009484318
809 0 135.000085319846 40.000134606179
810 0 115.030833480807 45.0424986483067
811 0 70.0070015038601 40.0040245982895
812 0 70.0226034584733 55.0159522721886
813 0 60.0014157363489 55.0012084984557
814 0 50.0000146939074 40.0000131317595
815 0 125.002788329923 45.0045906346798
816 0 125.008599656268 60.0097515451004
817 0 50.0000457743411 55.0000362566372
818 0 150.000001878625 45.000001668464
819 0 115.056846563378 60.0718612362195
820 0 100.35059802084 55.1799485396897
821 0 110.120347952414 55.1308373293406
822 0 65.0032731545219 45.0023778487107
823 0 55.0002708053755 50.0002354712712
824 0 140.000124987162 55.0001058646258
825 0 90.3231647735497 50.0932922183591
826 0 100.313260554201 50.1676274355162
827 0 80.1157115003271 50.0492714769289
828 0 120.015638537564 50.0230176013802
829 0 115.055458078656 55.0697838963114
830 0 120.022864780456 55.0300607594796
831 0 75.0518598138801 50.0276190917473
832 0 60.0009443628306 45.0007444186204
833 0 55.0002559969793 45.0002121145194
834 0 145.00002131244 50.0000189722406
835 0 50.0000758661052 50.0000645077514
836 0 100.227319223526 45.1305189332893
837 0 70.0136333463373 45.0080577996741
838 0 125.008406243325 55.0108000961268
839 0 135.000641222969 55.0006552806567
840 0 110.079791999919 45.0861003406673
841 0 90.2270628969609 45.0775604885123
842 0 65.007528621856 55.0057771026723
843 0 130.000917317651 45.001435550428
844 0 140.00005811827 45.0000713190557
845 0 50.0000682891428 45.0000581440666
846 0 45.000018899915 50.0000158221381
847 0 80.1434051003287 55.0635417019257
848 0 95.3903120374738 55.1290531759391
849 0 105.199761425625 50.155862691999
850 0 110.108969361354 50.1104471246139
851 0 125.006521863993 50.0093042766681
852 0 65.0063028087598 50.0046141731263
853 0 60.0020329045761 50.0015698346575
854 0 130.00221999871 50.0030286472084
855 0 135.000639321738 50.0008059140307
856 0 140.000172948346 50.0001965693055
857 0 135.00042022656 45.000592595816
858 0 70.0215531746584 50.0133337616501
859 0 115.050668779176 50.0609149792732
860 0 85.2140612337515 50.0708455630398
861 0 95.3372462290941 50.126779928827
$EndNodes
$Elements
800
1 3 2 1 1 697 727 772 760
2 3 2 1 1 861 848 797 825
3 3 2 1 1 861 825 841 796
4 3 2 1 1 512 562 598 680
5 3 2 1 1 826 861 796 836
6 3 2 1 1 727 790 799 797
7 3 2 1 1 379 512 498 461
8 3 2 1 1 848 772 727 797
9 3 2 1 1 461 400 377 379
10 3 2 1 1 826 836 798 849
11 3 2 1 1 825 860 803 841
12 3 2 1 1 316 439 378 317
13 3 2 1 1 598 562 637 649
14 3 2 1 1 657 681 683 759
15 3 2 1 1 849 798 840 850
16 3 2 1 1 829 821 850 859
17 3 2 1 1 684 759 761 819
18 3 2 1 1 546 638 657 594
19 3 2 1 1 762 819 829 830
20 3 2 1 1 829 859 828 830
21 3 2 1 1 830 828 851 838
22 3 2 1 1 793 831 858 837
23 3 2 1 1 823 833 832 853
24 3 2 1 1 823 835 845 833
25 3 2 1 1 854 843 857 855
26 3 2 1 1 845 835 846 801
27 3 2 1 1 844 856 855 857
28 3 2 1 1 853 832 822 852
29 3 2 1 1 858 852 822 837
30 3 2 1 1 450 406 407 462
31 3 2 1 1 805 818 777 776
32 3 2 1 1 320 381 463 408
33 3 2 1 1 465 334 401 440
34 3 2 1 1 451 497 565 520
35 3 2 1 1 846 808 780 801
36 3 2 1 1 650 659 566 632
37 3 2 1 1 208 340 263 165
38 3 2 1 1 207 343 261 166
39 3 2 1 1 564 568 442 514
40 3 2 1 1 334 258 278 401
41 3 2 1 1 402 405 466 464
42 3 2 1 1 279 319 403 259
43 3 2 1 1 605 613 702 655
44 3 2 1 1 282 397 342 198
45 3 2 1 1 281 398 367 200
46 3 2 1 1 252 341 285 192
47 3 2 1 1 215 298 228 164
48 3 2 1 1 408 340 262 320
49 3 2 1 1 392 329 446 468
50 3 2 1 1 699 640 547 615
51 3 2 1 1 818 789 737 777
52 3 2 1 1 209 133 274 374
53 3 2 1 1 210 134 275 375
54 3 2 1 1 851 854 794 838
55 3 2 1 1 600 647 719 636
56 3 2 1 1 615 547 453 519
57 3 2 1 1 689 730 701 643
58 3 2 1 1 279 259 127 219
59 3 2 1 1 278 258 123 220
60 3 2 1 1 284 211 126 339
61 3 2 1 1 406 343 260 407
62 3 2 1 1 558 590 614 618
63 3 2 1 1 740 734 695 745
64 3 2 1 1 764 724 741 806
65 3 2 1 1 260 121 214 283
66 3 2 1 1 388 492 437 333
67 3 2 1 1 519 453 336 412
68 3 2 1 1 451 520 467 403
69 3 2 1 1 565 497 550 604
70 3 2 1 1 705 704 665 606
71 3 2 1 1 732 777 737 752
72 3 2 1 1 286 262 122 213
73 3 2 1 1 125 287 346 230
74 3 2 1 1 344 467 404 264
75 3 2 1 1 509 569 606 665
76 3 2 1 1 208 122 262 340
77 3 2 1 1 216 344 264 167
78 3 2 1 1 471 569 509 426
79 3 2 1 1 346 471 426 256
80 3 2 1 1 390 489 436 330
81 3 2 1 1 495 462 385 530
82 3 2 1 1 549 599 586 495
83 3 2 1 1 253 329 392 352
84 3 2 1 1 492 388 506 592
85 3 2 1 1 529 463 505 554
86 3 2 1 1 583 573 666 608
87 3 2 1 1 314 250 140 205
88 3 2 1 1 315 251 141 206
89 3 2 1 1 625 502 592 626
90 3 2 1 1 694 653 667 707
91 3 2 1 1 282 198 154 160
92 3 2 1 1 281 200 155 159
93 3 2 1 1 439 334 465 545
94 3 2 1 1 489 390 513 591
95 3 2 1 1 434 408 463 529
96 3 2 1 1 521 469 542 558
97 3 2 1 1 572 667 653 620
98 3 2 1 1 834 805 778 795
99 3 2 1 1 614 623 571 618
100 3 2 1 1 752 702 672 732
101 3 2 1 1 175 27 28 223
102 3 2 1 1 42 43 133 209
103 3 2 1 1 48 156 221 47
104 3 2 1 1 95 96 134 210
105 3 2 1 1 101 157 222 100
106 3 2 1 1 289 287 125 218
107 3 2 1 1 221 156 224 306
108 3 2 1 1 222 157 227 307
109 3 2 1 1 143 161 229 192
110 3 2 1 1 351 304 413 389
111 3 2 1 1 463 381 444 505
112 3 2 1 1 482 517 506 388
113 3 2 1 1 669 621 559 703
114 3 2 1 1 775 747 691 808
115 3 2 1 1 39 40 155 213
116 3 2 1 1 49 50 224 156
117 3 2 1 1 178 80 81 226
118 3 2 1 1 92 93 154 214
119 3 2 1 1 102 103 227 157
120 3 2 1 1 169 256 349 232
121 3 2 1 1 382 466 405 341
122 3 2 1 1 323 410 540 460
123 3 2 1 1 570 609 591 513
124 3 2 1 1 636 719 645 551
125 3 2 1 1 694 668 619 653
126 3 2 1 1 734 740 739 781
127 3 2 1 1 793 837 811 774
128 3 2 1 1 90 91 121 207
129 3 2 1 1 274 133 250 314
130 3 2 1 1 275 134 251 315
131 3 2 1 1 321 193 291 438
132 3 2 1 1 441 518 429 321
133 3 2 1 1 524 457 332 422
134 3 2 1 1 632 586 599 650
135 3 2 1 1 37 38 122 208
136 3 2 1 1 285 277 175 223
137 3 2 1 1 391 410 372 255
138 3 2 1 1 513 390 480 516
139 3 2 1 1 523 473 421 393
140 3 2 1 1 437 492 491 398
141 3 2 1 1 615 568 651 699
142 3 2 1 1 579 617 612 570
143 3 2 1 1 741 685 763 806
144 3 2 1 1 696 757 788 718
145 3 2 1 1 775 804 788 757
146 3 2 1 1 806 832 833 764
147 3 2 1 1 839 855 856 824
148 3 2 1 1 30 31 167 161
149 3 2 1 1 151 219 34 35
150 3 2 1 1 83 84 168 163
151 3 2 1 1 152 220 87 88
152 3 2 1 1 280 212 124 193
153 3 2 1 1 338 291 178 226
154 3 2 1 1 242 180 292 265
155 3 2 1 1 336 289 194 412
156 3 2 1 1 414 359 257 470
157 3 2 1 1 355 418 470 257
158 3 2 1 1 419 394 527 474
159 3 2 1 1 383 501 572 455
160 3 2 1 1 696 678 609 656
161 3 2 1 1 625 626 655 717
162 3 2 1 1 717 752 737 647
163 3 2 1 1 719 647 737 789
164 3 2 1 1 757 700 747 775
165 3 2 1 1 705 724 750 704
166 3 2 1 1 2 49 156 48
167 3 2 1 1 9 102 157 101
168 3 2 1 1 298 355 137 228
169 3 2 1 1 425 511 446 329
170 3 2 1 1 487 588 511 425
171 3 2 1 1 509 588 487 426
172 3 2 1 1 508 446 511 556
173 3 2 1 1 626 592 506 574
174 3 2 1 1 606 569 541 616
175 3 2 1 1 622 557 670 661
176 3 2 1 1 609 570 612 656
177 3 2 1 1 700 656 612 662
178 3 2 1 1 687 743 677 641
179 3 2 1 1 597 668 694 745
180 3 2 1 1 742 703 677 743
181 3 2 1 1 693 701 730 773
182 3 2 1 1 733 780 744 706
183 3 2 1 1 804 775 808 846
184 3 2 1 1 776 781 778 805
185 3 2 1 1 118 228 137 117
186 3 2 1 1 316 217 123 258
187 3 2 1 1 171 129 295 197
188 3 2 1 1 241 188 297 267
189 3 2 1 1 346 287 435 471
190 3 2 1 1 295 290 354 432
191 3 2 1 1 267 297 422 332
192 3 2 1 1 383 455 325 360
193 3 2 1 1 420 325 455 532
194 3 2 1 1 488 397 436 489
195 3 2 1 1 540 445 548 631
196 3 2 1 1 575 605 574 585
197 3 2 1 1 555 662 612 617
198 3 2 1 1 699 731 685 640
199 3 2 1 1 661 670 691 747
200 3 2 1 1 774 723 767 793
201 3 2 1 1 218 125 21 22
202 3 2 1 1 189 128 72 73
203 3 2 1 1 130 242 265 201
204 3 2 1 1 168 217 316 317
205 3 2 1 1 524 617 579 457
206 3 2 1 1 457 579 516 523
207 3 2 1 1 662 555 622 661
208 3 2 1 1 703 559 631 677
209 3 2 1 1 687 641 716 756
210 3 2 1 1 750 755 710 704
211 3 2 1 1 25 26 126 211
212 3 2 1 1 161 143 29 30
213 3 2 1 1 32 33 127 216
214 3 2 1 1 165 151 35 36
215 3 2 1 1 208 165 36 37
216 3 2 1 1 159 155 40 41
217 3 2 1 1 147 75 76 225
218 3 2 1 1 78 79 124 212
219 3 2 1 1 163 145 82 83
220 3 2 1 1 85 86 123 217
221 3 2 1 1 166 152 88 89
222 3 2 1 1 207 166 89 90
223 3 2 1 1 160 154 93 94
224 3 2 1 1 291 193 124 178
225 3 2 1 1 255 225 162 345
226 3 2 1 1 151 165 263 191
227 3 2 1 1 152 166 261 190
228 3 2 1 1 346 256 169 230
229 3 2 1 1 150 232 349 288
230 3 2 1 1 402 339 277 405
231 3 2 1 1 285 341 405 277
232 3 2 1 1 374 437 398 281
233 3 2 1 1 375 436 397 282
234 3 2 1 1 338 399 438 291
235 3 2 1 1 421 362 308 393
236 3 2 1 1 274 314 347 333
237 3 2 1 1 275 315 348 330
238 3 2 1 1 301 372 410 323
239 3 2 1 1 363 331 387 484
240 3 2 1 1 288 349 487 425
241 3 2 1 1 256 426 487 349
242 3 2 1 1 413 452 510 389
243 3 2 1 1 332 457 523 393
244 3 2 1 1 456 396 538 525
245 3 2 1 1 347 415 459 482
246 3 2 1 1 348 416 473 480
247 3 2 1 1 328 447 524 422
248 3 2 1 1 323 460 534 427
249 3 2 1 1 617 524 447 555
250 3 2 1 1 622 555 447 533
251 3 2 1 1 585 510 452 575
252 3 2 1 1 472 522 575 452
253 3 2 1 1 533 458 557 622
254 3 2 1 1 482 459 526 517
255 3 2 1 1 523 516 480 473
256 3 2 1 1 534 621 560 476
257 3 2 1 1 556 511 588 607
258 3 2 1 1 510 585 517 526
259 3 2 1 1 500 553 613 522
260 3 2 1 1 605 575 522 613
261 3 2 1 1 577 619 580 525
262 3 2 1 1 672 553 608 646
263 3 2 1 1 508 556 671 601
264 3 2 1 1 499 596 670 557
265 3 2 1 1 568 564 611 651
266 3 2 1 1 578 571 623 674
267 3 2 1 1 499 578 674 596
268 3 2 1 1 508 601 614 590
269 3 2 1 1 560 621 669 595
270 3 2 1 1 691 670 596 744
271 3 2 1 1 674 706 744 596
272 3 2 1 1 623 614 601 652
273 3 2 1 1 666 695 646 608
274 3 2 1 1 652 706 674 623
275 3 2 1 1 692 646 695 734
276 3 2 1 1 738 739 648 708
277 3 2 1 1 706 652 690 733
278 3 2 1 1 731 811 763 685
279 3 2 1 1 728 771 758 698
280 3 2 1 1 780 733 770 801
281 3 2 1 1 20 230 169 19
282 3 2 1 1 230 20 21 125
283 3 2 1 1 149 218 22 23
284 3 2 1 1 143 223 28 29
285 3 2 1 1 216 167 31 32
286 3 2 1 1 209 159 41 42
287 3 2 1 1 217 168 84 85
288 3 2 1 1 210 160 94 95
289 3 2 1 1 114 243 129 113
290 3 2 1 1 288 253 231 150
291 3 2 1 1 301 302 189 249
292 3 2 1 1 314 205 415 347
293 3 2 1 1 315 206 416 348
294 3 2 1 1 159 209 374 281
295 3 2 1 1 160 210 375 282
296 3 2 1 1 190 261 431 318
297 3 2 1 1 343 406 431 261
298 3 2 1 1 351 389 477 266
299 3 2 1 1 190 318 401 278
300 3 2 1 1 253 288 425 329
301 3 2 1 1 301 323 427 302
302 3 2 1 1 327 384 458 350
303 3 2 1 1 423 350 458 533
304 3 2 1 1 416 358 421 473
305 3 2 1 1 324 386 472 371
306 3 2 1 1 452 413 371 472
307 3 2 1 1 557 458 384 499
308 3 2 1 1 454 578 499 384
309 3 2 1 1 522 472 386 500
310 3 2 1 1 510 526 477 389
311 3 2 1 1 328 423 533 447
312 3 2 1 1 373 427 534 476
313 3 2 1 1 528 571 578 454
314 3 2 1 1 446 508 590 468
315 3 2 1 1 383 476 560 501
316 3 2 1 1 553 500 583 608
317 3 2 1 1 539 520 565 630
318 3 2 1 1 604 663 630 565
319 3 2 1 1 502 625 600 589
320 3 2 1 1 695 666 597 745
321 3 2 1 1 663 693 679 633
322 3 2 1 1 662 661 747 700
323 3 2 1 1 805 834 802 818
324 3 2 1 1 211 170 24 25
325 3 2 1 1 145 226 81 82
326 3 2 1 1 241 139 106 107
327 3 2 1 1 352 135 231 253
328 3 2 1 1 225 255 372 147
329 3 2 1 1 213 155 200 286
330 3 2 1 1 302 427 373 196
331 3 2 1 1 423 328 201 265
332 3 2 1 1 422 297 201 328
333 3 2 1 1 413 304 202 371
334 3 2 1 1 191 263 434 356
335 3 2 1 1 340 408 434 263
336 3 2 1 1 292 350 423 265
337 3 2 1 1 393 308 267 332
338 3 2 1 1 202 271 324 371
339 3 2 1 1 459 415 357 395
340 3 2 1 1 500 386 474 583
341 3 2 1 1 459 395 477 526
342 3 2 1 1 392 468 542 411
343 3 2 1 1 406 450 543 431
344 3 2 1 1 571 528 448 618
345 3 2 1 1 527 573 583 474
346 3 2 1 1 506 517 585 574
347 3 2 1 1 448 521 558 618
348 3 2 1 1 576 597 666 573
349 3 2 1 1 754 815 766 689
350 3 2 1 1 724 764 814 750
351 3 2 1 1 834 795 824 856
352 3 2 1 1 16 231 135 15
353 3 2 1 1 170 149 23 24
354 3 2 1 1 44 45 140 250
355 3 2 1 1 162 225 76 77
356 3 2 1 1 212 162 77 78
357 3 2 1 1 97 98 141 251
358 3 2 1 1 112 171 180 111
359 3 2 1 1 171 112 113 129
360 3 2 1 1 295 129 243 290
361 3 2 1 1 188 130 201 297
362 3 2 1 1 237 271 202 131
363 3 2 1 1 177 131 202 304
364 3 2 1 1 235 135 352 296
365 3 2 1 1 241 267 308 139
366 3 2 1 1 171 197 292 180
367 3 2 1 1 233 257 359 181
368 3 2 1 1 243 181 359 290
369 3 2 1 1 238 182 305 270
370 3 2 1 1 128 189 302 196
371 3 2 1 1 350 292 197 327
372 3 2 1 1 342 326 283 198
373 3 2 1 1 367 366 286 200
374 3 2 1 1 415 205 268 357
375 3 2 1 1 416 206 269 358
376 3 2 1 1 419 353 270 394
377 3 2 1 1 353 419 324 271
378 3 2 1 1 260 283 326 407
379 3 2 1 1 354 290 359 414
380 3 2 1 1 197 295 432 327
381 3 2 1 1 303 296 411 335
382 3 2 1 1 392 411 296 352
383 3 2 1 1 258 334 439 316
384 3 2 1 1 403 319 380 451
385 3 2 1 1 356 483 380 319
386 3 2 1 1 385 462 407 326
387 3 2 1 1 384 327 432 454
388 3 2 1 1 376 335 469 418
389 3 2 1 1 454 432 354 528
390 3 2 1 1 414 448 528 354
391 3 2 1 1 383 360 373 476
392 3 2 1 1 266 477 395 361
393 3 2 1 1 451 380 537 497
394 3 2 1 1 324 419 474 386
395 3 2 1 1 335 411 542 469
396 3 2 1 1 322 442 519 412
397 3 2 1 1 470 521 448 414
398 3 2 1 1 521 470 418 469
399 3 2 1 1 356 434 529 483
400 3 2 1 1 462 495 586 450
401 3 2 1 1 440 496 587 465
402 3 2 1 1 387 475 580 503
403 3 2 1 1 488 504 584 478
404 3 2 1 1 554 563 483 529
405 3 2 1 1 573 527 484 576
406 3 2 1 1 566 659 593 496
407 3 2 1 1 624 667 572 501
408 3 2 1 1 597 576 503 668
409 3 2 1 1 450 586 632 543
410 3 2 1 1 664 616 547 640
411 3 2 1 1 672 702 613 553
412 3 2 1 1 616 664 705 606
413 3 2 1 1 582 675 711 611
414 3 2 1 1 672 646 692 732
415 3 2 1 1 711 675 753 723
416 3 2 1 1 801 770 814 845
417 3 2 1 1 807 824 795 784
418 3 2 1 1 237 131 4 55
419 3 2 1 1 11 12 173 142
420 3 2 1 1 12 13 174 173
421 3 2 1 1 15 135 235 14
422 3 2 1 1 13 14 235 174
423 3 2 1 1 150 231 16 17
424 3 2 1 1 232 150 17 18
425 3 2 1 1 232 18 19 169
426 3 2 1 1 45 46 176 140
427 3 2 1 1 54 177 236 53
428 3 2 1 1 4 131 177 54
429 3 2 1 1 189 73 74 249
430 3 2 1 1 147 249 74 75
431 3 2 1 1 98 99 179 141
432 3 2 1 1 107 108 188 241
433 3 2 1 1 242 130 109 110
434 3 2 1 1 108 109 130 188
435 3 2 1 1 110 111 180 242
436 3 2 1 1 114 115 181 243
437 3 2 1 1 119 120 185 164
438 3 2 1 1 196 294 239 128
439 3 2 1 1 257 233 137 355
440 3 2 1 1 351 266 138 236
441 3 2 1 1 215 142 173 204
442 3 2 1 1 164 185 142 215
443 3 2 1 1 149 170 311 194
444 3 2 1 1 271 237 172 353
445 3 2 1 1 238 270 353 172
446 3 2 1 1 173 174 303 204
447 3 2 1 1 235 296 303 174
448 3 2 1 1 140 176 268 205
449 3 2 1 1 304 351 236 177
450 3 2 1 1 141 179 269 206
451 3 2 1 1 294 293 183 239
452 3 2 1 1 363 305 199 331
453 3 2 1 1 428 331 199 313
454 3 2 1 1 215 204 376 298
455 3 2 1 1 303 335 376 204
456 3 2 1 1 127 259 344 216
457 3 2 1 1 176 221 306 268
458 3 2 1 1 179 222 307 269
459 3 2 1 1 144 299 306 224
460 3 2 1 1 146 300 307 227
461 3 2 1 1 138 266 361 234
462 3 2 1 1 144 234 361 299
463 3 2 1 1 146 240 362 300
464 3 2 1 1 139 308 362 240
465 3 2 1 1 306 299 357 268
466 3 2 1 1 307 300 358 269
467 3 2 1 1 305 363 394 270
468 3 2 1 1 339 402 424 284
469 3 2 1 1 289 336 435 287
470 3 2 1 1 325 420 365 293
471 3 2 1 1 293 294 360 325
472 3 2 1 1 196 373 360 294
473 3 2 1 1 357 299 361 395
474 3 2 1 1 358 300 362 421
475 3 2 1 1 409 381 320 366
476 3 2 1 1 514 442 322 424
477 3 2 1 1 428 475 387 331
478 3 2 1 1 326 342 478 385
479 3 2 1 1 259 403 467 344
480 3 2 1 1 255 345 479 391
481 3 2 1 1 527 394 363 484
482 3 2 1 1 475 428 364 456
483 3 2 1 1 535 443 382 430
484 3 2 1 1 576 484 387 503
485 3 2 1 1 479 507 445 391
486 3 2 1 1 464 514 424 402
487 3 2 1 1 368 404 539 481
488 3 2 1 1 467 520 539 404
489 3 2 1 1 381 409 531 444
490 3 2 1 1 391 445 540 410
491 3 2 1 1 507 479 429 518
492 3 2 1 1 336 453 541 435
493 3 2 1 1 567 518 441 546
494 3 2 1 1 382 443 536 466
495 3 2 1 1 636 551 444 531
496 3 2 1 1 507 635 548 445
497 3 2 1 1 572 620 532 455
498 3 2 1 1 464 466 536 515
499 3 2 1 1 435 541 569 471
500 3 2 1 1 456 525 580 475
501 3 2 1 1 385 478 584 530
502 3 2 1 1 430 481 581 535
503 3 2 1 1 491 502 589 485
504 3 2 1 1 488 489 591 504
505 3 2 1 1 580 619 668 503
506 3 2 1 1 444 551 627 505
507 3 2 1 1 629 582 515 536
508 3 2 1 1 513 516 579 570
509 3 2 1 1 495 530 628 549
510 3 2 1 1 449 532 620 577
511 3 2 1 1 581 633 634 535
512 3 2 1 1 443 552 629 536
513 3 2 1 1 481 539 630 581
514 3 2 1 1 453 547 616 541
515 3 2 1 1 660 643 550 610
516 3 2 1 1 563 554 673 603
517 3 2 1 1 505 627 673 554
518 3 2 1 1 655 626 574 605
519 3 2 1 1 619 577 620 653
520 3 2 1 1 663 633 581 630
521 3 2 1 1 496 593 658 587
522 3 2 1 1 649 637 587 658
523 3 2 1 1 504 591 609 678
524 3 2 1 1 686 698 593 659
525 3 2 1 1 549 644 709 599
526 3 2 1 1 610 603 713 660
527 3 2 1 1 665 704 710 607
528 3 2 1 1 600 625 717 647
529 3 2 1 1 551 645 712 627
530 3 2 1 1 549 628 676 644
531 3 2 1 1 548 641 677 631
532 3 2 1 1 659 650 746 686
533 3 2 1 1 599 709 746 650
534 3 2 1 1 731 699 651 736
535 3 2 1 1 601 671 690 652
536 3 2 1 1 702 752 717 655
537 3 2 1 1 700 757 696 656
538 3 2 1 1 649 658 758 682
539 3 2 1 1 593 698 758 658
540 3 2 1 1 627 712 748 673
541 3 2 1 1 603 673 748 713
542 3 2 1 1 773 722 679 693
543 3 2 1 1 698 686 782 728
544 3 2 1 1 779 743 687 765
545 3 2 1 1 644 688 729 709
546 3 2 1 1 671 710 755 690
547 3 2 1 1 744 780 808 691
548 3 2 1 1 777 732 692 776
549 3 2 1 1 781 776 692 734
550 3 2 1 1 707 740 745 694
551 3 2 1 1 749 784 738 708
552 3 2 1 1 660 713 783 754
553 3 2 1 1 654 735 756 716
554 3 2 1 1 798 836 786 722
555 3 2 1 1 709 729 769 746
556 3 2 1 1 689 766 810 730
557 3 2 1 1 736 774 811 731
558 3 2 1 1 690 755 770 733
559 3 2 1 1 781 739 738 778
560 3 2 1 1 784 749 742 807
561 3 2 1 1 743 779 807 742
562 3 2 1 1 686 746 769 782
563 3 2 1 1 713 748 809 783
564 3 2 1 1 750 814 770 755
565 3 2 1 1 722 773 840 798
566 3 2 1 1 738 784 795 778
567 3 2 1 1 765 794 839 779
568 3 2 1 1 855 839 794 854
569 3 2 1 1 856 844 802 834
570 3 2 1 1 766 828 859 810
571 3 2 1 1 850 840 810 859
572 3 2 1 1 764 833 845 814
573 3 2 1 1 234 3 52 138
574 3 2 1 1 172 237 55 5
575 3 2 1 1 172 5 56 238
576 3 2 1 1 221 176 46 47
577 3 2 1 1 236 138 52 53
578 3 2 1 1 239 71 72 128
579 3 2 1 1 222 179 99 100
580 3 2 1 1 240 105 106 139
581 3 2 1 1 181 115 116 233
582 3 2 1 1 365 248 183 293
583 3 2 1 1 356 319 279 191
584 3 2 1 1 481 430 252 368
585 3 2 1 1 341 252 430 382
586 3 2 1 1 478 342 397 488
587 3 2 1 1 615 519 442 568
588 3 2 1 1 525 538 449 577
589 3 2 1 1 558 542 468 590
590 3 2 1 1 491 492 592 502
591 3 2 1 1 518 567 635 507
592 3 2 1 1 607 588 509 665
593 3 2 1 1 443 535 634 552
594 3 2 1 1 530 584 602 628
595 3 2 1 1 740 707 648 739
596 3 2 1 1 703 742 749 669
597 3 2 1 1 762 735 684 819
598 3 2 1 1 712 785 809 748
599 3 2 1 1 838 816 762 830
600 3 2 1 1 832 806 763 822
601 3 2 1 1 837 822 763 811
602 3 2 1 1 794 765 816 838
603 3 2 1 1 824 807 779 839
604 3 2 1 1 754 783 843 815
605 3 2 1 1 846 835 817 804
606 3 2 1 1 766 815 851 828
607 3 2 1 1 234 144 51 3
608 3 2 1 1 238 56 6 182
609 3 2 1 1 57 132 182 6
610 3 2 1 1 60 148 184 7
611 3 2 1 1 1 10 185 120
612 3 2 1 1 11 142 185 10
613 3 2 1 1 175 126 26 27
614 3 2 1 1 219 127 33 34
615 3 2 1 1 213 122 38 39
616 3 2 1 1 51 144 224 50
617 3 2 1 1 57 58 244 132
618 3 2 1 1 59 186 244 58
619 3 2 1 1 7 184 186 59
620 3 2 1 1 60 61 245 148
621 3 2 1 1 62 158 245 61
622 3 2 1 1 8 63 158 62
623 3 2 1 1 63 64 187 158
624 3 2 1 1 66 136 246 65
625 3 2 1 1 64 65 246 187
626 3 2 1 1 66 67 247 136
627 3 2 1 1 68 153 247 67
628 3 2 1 1 68 69 248 153
629 3 2 1 1 70 183 248 69
630 3 2 1 1 239 183 70 71
631 3 2 1 1 178 124 79 80
632 3 2 1 1 220 123 86 87
633 3 2 1 1 214 121 91 92
634 3 2 1 1 104 146 227 103
635 3 2 1 1 240 146 104 105
636 3 2 1 1 233 116 117 137
637 3 2 1 1 305 182 132 199
638 3 2 1 1 246 136 309 272
639 3 2 1 1 223 143 192 285
640 3 2 1 1 184 148 310 203
641 3 2 1 1 218 149 194 289
642 3 2 1 1 212 280 345 162
643 3 2 1 1 161 167 264 229
644 3 2 1 1 126 175 277 339
645 3 2 1 1 184 203 273 186
646 3 2 1 1 158 187 312 245
647 3 2 1 1 246 272 312 187
648 3 2 1 1 412 194 311 322
649 3 2 1 1 132 244 313 199
650 3 2 1 1 121 260 343 207
651 3 2 1 1 192 229 368 252
652 3 2 1 1 404 368 229 264
653 3 2 1 1 186 273 313 244
654 3 2 1 1 148 245 312 310
655 3 2 1 1 153 254 369 247
656 3 2 1 1 136 247 369 309
657 3 2 1 1 153 248 365 254
658 3 2 1 1 312 272 370 310
659 3 2 1 1 428 313 273 364
660 3 2 1 1 203 337 364 273
661 3 2 1 1 193 321 429 280
662 3 2 1 1 429 479 345 280
663 3 2 1 1 272 309 433 370
664 3 2 1 1 203 310 370 337
665 3 2 1 1 438 544 441 321
666 3 2 1 1 337 396 456 364
667 3 2 1 1 254 365 420 417
668 3 2 1 1 366 367 485 409
669 3 2 1 1 398 491 485 367
670 3 2 1 1 254 417 486 369
671 3 2 1 1 309 369 486 433
672 3 2 1 1 337 370 433 396
673 3 2 1 1 563 537 380 483
674 3 2 1 1 433 486 538 396
675 3 2 1 1 532 449 417 420
676 3 2 1 1 496 440 490 566
677 3 2 1 1 417 449 538 486
678 3 2 1 1 621 534 460 559
679 3 2 1 1 540 631 559 460
680 3 2 1 1 514 464 515 564
681 3 2 1 1 409 485 589 531
682 3 2 1 1 678 602 584 504
683 3 2 1 1 564 515 582 611
684 3 2 1 1 490 543 632 566
685 3 2 1 1 465 587 637 545
686 3 2 1 1 701 604 550 643
687 3 2 1 1 710 671 556 607
688 3 2 1 1 546 594 654 567
689 3 2 1 1 749 708 595 669
690 3 2 1 1 628 602 718 676
691 3 2 1 1 696 718 602 678
692 3 2 1 1 693 663 604 701
693 3 2 1 1 552 642 714 629
694 3 2 1 1 582 629 714 675
695 3 2 1 1 552 634 715 642
696 3 2 1 1 633 679 715 634
697 3 2 1 1 624 648 707 667
698 3 2 1 1 594 684 735 654
699 3 2 1 1 643 660 754 689
700 3 2 1 1 644 676 751 688
701 3 2 1 1 788 751 676 718
702 3 2 1 1 774 736 711 723
703 3 2 1 1 645 725 785 712
704 3 2 1 1 642 721 787 714
705 3 2 1 1 675 714 787 753
706 3 2 1 1 642 715 786 721
707 3 2 1 1 679 722 786 715
708 3 2 1 1 836 796 721 786
709 3 2 1 1 753 803 767 723
710 3 2 1 1 688 768 813 729
711 3 2 1 1 840 773 730 810
712 3 2 1 1 688 751 817 768
713 3 2 1 1 803 753 787 841
714 3 2 1 1 735 762 816 756
715 3 2 1 1 831 793 767 827
716 3 2 1 1 860 827 767 803
717 3 2 1 1 835 823 768 817
718 3 2 1 1 782 769 842 812
719 3 2 1 1 729 813 842 769
720 3 2 1 1 728 800 847 771
721 3 2 1 1 728 782 812 800
722 3 2 1 1 725 802 844 785
723 3 2 1 1 721 796 841 787
724 3 2 1 1 827 847 800 831
725 3 2 1 1 783 809 857 843
726 3 2 1 1 800 812 858 831
727 3 2 1 1 852 858 812 842
728 3 2 1 1 768 823 853 813
729 3 2 1 1 852 842 813 853
730 3 2 1 1 854 851 815 843
731 3 2 1 1 198 283 214 154
732 3 2 1 1 147 372 301 249
733 3 2 1 1 355 298 376 418
734 3 2 1 1 610 550 497 537
735 3 2 1 1 603 610 537 563
736 3 2 1 1 531 589 600 636
737 3 2 1 1 648 624 595 708
738 3 2 1 1 789 725 645 719
739 3 2 1 1 611 711 736 651
740 3 2 1 1 804 817 751 788
741 3 2 1 1 785 844 857 809
742 3 2 1 1 228 118 119 164
743 3 2 1 1 219 151 191 279
744 3 2 1 1 220 152 190 278
745 3 2 1 1 211 284 311 170
746 3 2 1 1 322 311 284 424
747 3 2 1 1 560 595 624 501
748 3 2 1 1 716 635 567 654
749 3 2 1 1 640 685 741 664
750 3 2 1 1 724 705 664 741
751 3 2 1 1 765 687 756 816
752 3 2 1 1 818 802 725 789
753 3 2 1 1 401 318 490 440
754 3 2 1 1 333 347 482 388
755 3 2 1 1 318 431 543 490
756 3 2 1 1 262 286 366 320
757 3 2 1 1 275 330 436 375
758 3 2 1 1 274 333 437 374
759 3 2 1 1 641 548 635 716
760 3 2 1 1 330 348 480 390
761 3 2 1 1 250 133 43 44
762 3 2 1 1 251 134 96 97
763 3 2 1 1 792 849 850 821
764 3 2 1 1 684 594 657 759
765 3 2 1 1 829 819 761 821
766 3 2 1 1 637 562 494 545
767 3 2 1 1 546 441 544 638
768 3 2 1 1 544 438 399 493
769 3 2 1 1 400 461 493 399
770 3 2 1 1 493 561 638 544
771 3 2 1 1 657 638 561 681
772 3 2 1 1 760 680 598 697
773 3 2 1 1 682 697 598 649
774 3 2 1 1 761 759 683 791
775 3 2 1 1 545 494 378 439
776 3 2 1 1 697 682 790 727
777 3 2 1 1 771 790 682 758
778 3 2 1 1 726 772 848 820
779 3 2 1 1 847 799 790 771
780 3 2 1 1 827 860 799 847
781 3 2 1 1 378 377 195 317
782 3 2 1 1 797 799 860 825
783 3 2 1 1 821 761 791 792
784 3 2 1 1 726 820 792 791
785 3 2 1 1 849 792 820 826
786 3 2 1 1 561 493 461 498
787 3 2 1 1 195 377 400 276
788 3 2 1 1 399 338 276 400
789 3 2 1 1 760 720 639 680
790 3 2 1 1 226 145 276 338
791 3 2 1 1 498 639 681 561
792 3 2 1 1 639 720 683 681
793 3 2 1 1 512 680 639 498
794 3 2 1 1 720 760 772 726
795 3 2 1 1 163 168 317 195
796 3 2 1 1 791 683 720 726
797 3 2 1 1 562 512 379 494
798 3 2 1 1 145 163 195 276
799 3 2 1 1 494 379 377 378
800 3 2 1 1 820 848 861 826
$EndElements
