$MeshFormat
2.2 0 8
$EndMeshFormat
$Nodes
450
5 0 100 0
6 0 0 0
7 100 0 0
8 20 20 0
26 0 95 0
27 0 90 0
28 0 85 0
29 0 80 0
30 0 75 0
31 0 70 0
32 0 65 0
33 0 60 0
34 0 55 0
35 0 50 0
36 0 45 0
37 0 40 0
38 0 35 0
39 0 30 0
40 0 25 0
41 0 20 0
42 0 15 0
43 0 10 0
44 0 5 0
45 45 100 0
46 40 100 0
47 35 100 0
48 30 100 0
49 25 100 0
50 20 100 0
51 15 100 0
52 10 100 0
53 5 100 0
54 100 5 0
55 100 10 0
56 100 15 0
57 100 20 0
58 100 25 0
59 100 30 0
60 100 35 0
61 100 40 0
62 100 45 0
63 5 0 0
64 10 0 0
65 15 0 0
66 20 0 0
67 25 0 0
68 30 0 0
69 35 0 0
70 40 0 0
71 45 0 0
72 50 0 0
73 55 0 0
74 60 0 0
75 65 0 0
76 70 0 0
77 75 0 0
78 80 0 0
79 85 0 0
80 90 0 0
81 95 0 0
82 24 23.3333333333333 0
83 28 26.6666666666667 0
84 32 30 0
85 36 33.3333333333334 0
86 40 36.6666666666667 0
87 44 40 0
88 48 43.3333333333333 0
89 52 46.6666666666667 0
90 65.86145547853 45.1646385308789 0
91 44.9948552992588 69.9989799576468 0
92 65.001564203325 4.99561704591108 0
93 5.00057786071081 75.0015661066068 0
94 5.00785331935092 60.0141654420295 0
95 95.0092132183225 20.0274165678039 0
96 50.022654002021 5.01635731718347 0
97 5.02961561571525 45.0372379548962 0
98 24.9999985184881 95.0000322914072 0
99 40.0343926075947 5.02798479838776 0
100 44.9996817966886 80.0001553140561 0
101 5.03509490329938 35.0417784584358 0
102 95.0294860818682 30.0553863772949 0
103 75.5671476956719 45.0860175279577 0
104 85.3113300174075 45.0745413753693 0
105 90.0004298270683 4.99946818625773 0
106 80.0006620200273 4.99688825958119 0
107 34.9999976202453 95.0000277199926 0
108 5.02180597158029 15.0256833533473 0
109 20.0197771627491 5.03677879257791 0
110 44.9179710231872 50.7883273358313 0
111 5.00000519934866 90.0000243498702 0
112 5.00301617471403 5.00688307747282 0
113 95.0670075971092 40.0543079462536 0
114 90.1926739956815 45.0575857913397 0
115 60.0066613056588 5.00007725400209 0
116 95.0011648253826 10.0016537543804 0
117 95.0003085098029 5.00010275758913 0
118 75.0003124666094 4.99494849688288 0
119 44.9999940756522 90.0000221455887 0
120 15.0000008969396 95.0000187800395 0
121 44.9999989912756 95.0000044504307 0
122 44.996818573204 60.0151041461919 0
123 5.00000070060644 95.0000052430502 0
124 5.00005223091085 85.00017874108 0
125 5.00166691866472 70.0040033389716 0
126 5.01529468933837 55.0234653422581 0
127 35.0398918662528 5.03251190815104 0
128 30.0412664909691 5.03885964293028 0
129 5.03617582153686 30.0418124327772 0
130 5.03582291964805 25.0412106094307 0
131 15.0121617706035 5.02789297275368 0
132 95.0911993235276 45.0302067755148 0
133 56.9586089765 45.2341014035383 0
134 65.0217830154203 9.99345876112184 0
135 10.0017726959291 75.0054929440008 0
136 10.0209178828013 60.0430962024779 0
137 40.1281989698805 10.0466527655528 0
138 80.0071078227659 9.99479579211447 0
139 10.0985704032805 35.1319783413426 0
140 90.0029208760918 10.0015289112248 0
141 20.0764552701417 10.0883442868679 0
142 61.1772953642001 45.2498168361845 0
143 95.048097479585 35.0564627914372 0
144 95.0186979686873 25.0431816651169 0
145 70.0016114814271 4.99437276065522 0
146 95.0043853911849 15.0092508838372 0
147 85.0011987778949 4.99853524140588 0
148 5.00445915511848 65.0094110739063 0
149 20.0000008054041 95.0000348235126 0
150 10.0000007810346 95.0000114395699 0
151 10.0000204293654 90.0000965382545 0
152 44.9999290739012 85.0001019151258 0
153 44.9982199355284 75.000034302905 0
154 5.00027586611448 80.0008452514202 0
155 39.9999979956856 95.0000170473681 0
156 29.9999966208346 95.0000418158662 0
157 55.0156202676886 5.00805906753738 0
158 44.9915742842154 64.9995411239885 0
159 70.6994299001228 45.1109855772665 0
160 5.02419926612463 50.0333913001375 0
161 80.4367136501047 45.077547762458 0
162 10.0077265778651 5.01698769818069 0
163 45.0357581540204 5.0232922602542 0
164 5.03687569338808 40.0469313305061 0
165 5.01167327176419 10.016343741926 0
166 35.1592091776139 10.0535601329937 0
167 25.0367791673816 5.04297740429271 0
168 5.03140000155963 20.037083688023 0
169 10.0995607103772 30.1347770922152 0
170 90.1560392201557 40.0915059932554 0
171 45.0356294275595 55.1472080374323 0
172 52.8365119878789 41.3752121012284 0
173 45.8723727222458 46.7632694735169 0
174 61.2526867946274 40.5294231067345 0
175 39.9903497056614 70.00093570617 0
176 25.0000246110597 90.0003437482369 0
177 90.0477209863394 25.0680964682832 0
178 75.5593713456069 40.1472480388455 0
179 39.999102354644 80.0011965949747 0
180 40.3580455002636 15.0034299226859 0
181 40.4448230547566 50.1875437853839 0
182 15.2208500570024 35.293751553365 0
183 90.1147950098419 35.0950358564803 0
184 70.0140140726051 9.98699759891701 0
185 10.0001691186178 85.0006287912816 0
186 10.0043885907776 70.0121213023329 0
187 15.042657339128 10.0629937427738 0
188 30.1700942387421 10.0797740789554 0
189 50.0909051177463 10.0367448837236 0
190 10.0805574138271 45.1098100313194 0
191 75.0101852420928 9.98910854987797 0
192 85.0059223512858 9.99964947363643 0
193 90.0106859307818 15.0137980819534 0
194 60.0409128325403 10.0078328005366 0
195 15.000046005212 90.0002193821929 0
196 39.9999796690963 90.0001357243114 0
197 10.0007274512034 80.0024535581899 0
198 30.0000024736712 90.0004030274139 0
199 65.9174685097884 40.3048756573492 0
200 10.0101938339894 65.024784888013 0
201 40.0174024489378 60.0111597287386 0
202 10.0417215234359 55.071363054404 0
203 10.0873699862513 25.119683741063 0
204 10.0251389738541 10.0380159751695 0
205 10.0446226404706 15.0623786775785 0
206 45.1255002371038 10.0410727389312 0
207 10.0975915906849 40.1306725638803 0
208 25.142904458028 10.0982654267521 0
209 85.2682284295783 40.1155465942211 0
210 41.138140710894 44.6654537462641 0
211 56.8390605705134 40.9747701982673 0
212 48.8197006446581 37.1041108486632 0
213 56.5831479157652 36.3788641999438 0
214 70.0610539544074 14.9841490981081 0
215 35.4761042280787 49.7378307085986 0
216 15.0031885348794 75.0115200260321 0
217 15.0131323848084 65.0416929844824 0
218 15.0003404635569 85.0013382986848 0
219 25.0002250539417 85.0019696951243 0
220 85.2113789056764 35.1265183098397 0
221 15.2733443864146 30.2951357240325 0
222 30.528206262691 15.0919945616665 0
223 90.0809206801625 30.0818387274151 0
224 75.046401722806 14.9950154382373 0
225 85.0203038713048 15.0145548466955 0
226 70.7203034983866 40.1888817062795 0
227 90.0272570437368 20.0394714693374 0
228 60.1405078098811 15.0371480510908 0
229 34.9999830310115 90.0003326183933 0
230 20.000072714533 90.0004340982357 0
231 39.9997893634234 85.0006038776554 0
232 39.9961446680555 75.0018635019237 0
233 55.0730811741473 10.0243542759897 0
234 39.9912302507141 65.0019530639462 0
235 10.0653793529752 50.0965800454417 0
236 10.0657925389983 20.0919345299856 0
237 15.0330164534623 60.0750386682682 0
238 80.4037614585071 40.1298112516997 0
239 61.0679996824596 35.6969284320067 0
240 40.1331817231988 55.0833240979233 0
241 45.3179471160976 15.0293706084331 0
242 15.1422477042404 45.1892180445791 0
243 15.1613482830465 40.2450667823192 0
244 15.0660298320592 15.0897697768614 0
245 35.4765103298556 15.0030001275223 0
246 20.1977302765553 15.1177767683727 0
247 45.0013363860437 35.9420681896688 0
248 37.4896922140222 40.4267976287575 0
249 52.6055000054648 37.2026639559084 0
250 70.6797668520739 35.1993869021961 0
251 34.9889015464421 70.0075539325813 0
252 33.6803368814625 37.7586073547493 0
253 55.1721039837571 31.1886395403652 0
254 70.1743142628396 20.0130539644574 0
255 20.0086401861364 65.0472546197869 0
256 40.6845524831426 19.840428486614 0
257 20.1161093098504 45.1314006652376 0
258 30.0000091769093 85.0019798622995 0
259 55.2065570616261 15.0554259808274 0
260 15.0740612801491 55.1159060587705 0
261 20.215517722378 35.6278864377776 0
262 49.8644744407867 33.3065406908153 0
263 35.8237425025296 44.8525621856803 0
264 35.9476567559259 19.7493416465402 0
265 85.1566180208818 30.1160976334754 0
266 85.0527774827351 20.0499140687252 0
267 80.0355991240675 15.011232956963 0
268 65.1074090469213 15.0104243589268 0
269 34.9998058620753 85.0014316599577 0
270 20.0004082223599 85.0019847724634 0
271 34.9988027181084 80.0035311589458 0
272 15.0013422101145 80.0050056663334 0
273 65.8514405648305 35.353170020893 0
274 15.0065601689151 70.0232504228627 0
275 34.9914105474808 65.0058900982564 0
276 35.1886526291076 54.9383342155361 0
277 25.451015472906 15.1343784873458 0
278 15.2056528649952 25.2274616479136 0
279 15.1115551504039 50.1434976498564 0
280 50.2778390668893 15.0480997026919 0
281 15.1082199560667 20.133872013432 0
282 80.3477550179702 35.1507243703522 0
283 39.6802193777672 30.080107924054 0
284 52.3920916337078 34.0199181440716 0
285 60.3231068463991 20.1199208886126 0
286 65.6709670464319 30.2846657950134 0
287 80.2685353176103 30.1385160605589 0
288 30.3632640643634 49.5551648120721 0
289 80.0905464931571 20.0510475198204 0
290 29.9927328967561 70.0170886442478 0
291 29.999511144505 80.005711394891 0
292 20.9396613219157 30.4329047518254 0
293 30.5675608340189 43.0432574232419 0
294 31.275737481091 19.9980500840498 0
295 40.6821208466909 24.6550535290077 0
296 65.2487378577779 20.0580732849105 0
297 75.1367105326965 20.0360453372411 0
298 50.5124182041034 20.0710919150488 0
299 50.6989587953662 29.5029081840721 0
300 85.1053675206333 25.0881721579838 0
301 34.9955956757806 75.0061749071368 0
302 25.0006970879798 80.0069151499466 0
303 20.0014898269745 80.0069638361721 0
304 45.5717541247517 19.978199993097 0
305 20.0344961007068 60.0684077296122 0
306 20.1468405389772 50.0665114996241 0
307 20.0032016962796 75.0158656952753 0
308 20.0045674649152 70.0284793549704 0
309 60.7163509085076 30.5956538583579 0
310 35.04463202353 59.9947117751112 0
311 20.0188157003135 40.3286022990796 0
312 75.5034279860679 35.1576149987364 0
313 20.4134302129111 25.4246279811189 0
314 29.8636398173502 34.6713167687729 0
315 26.2227432991805 20.3367892158806 0
316 45.9031376486321 30.7725320512323 0
317 35.0788159883958 27.4293889080038 0
318 29.997178080839 65.0171646115303 0
319 30.1676333441333 54.8894702152099 0
320 70.5299979922837 30.1583994211255 0
321 55.5255182347487 25.3094822268996 0
322 60.4699274585331 25.3207357101854 0
323 65.4316988402578 25.1711464500226 0
324 70.350615288337 25.1023870584047 0
325 75.2639338153348 25.096847480158 0
326 24.3759277121767 36.2249872864098 0
327 24.9552141345125 44.6048309139803 0
328 80.1805499417302 25.097786828073 0
329 25.0006288831175 75.0152544009539 0
330 29.9973318317892 75.0113765925978 0
331 24.9991605670442 70.0250380068245 0
332 25.0023562804952 65.0329550774957 0
333 45.6608444256735 25.0307200620184 0
334 55.3994658517933 20.1274746963543 0
335 20.0937775958067 55.0645140130786 0
336 75.3950797640567 30.1386814294514 0
337 25.8390461719734 32.3000120377781 0
338 27.5970101586959 38.4603340240972 0
339 36.3555937605492 23.865041785552 0
340 23.548713369605 27.600944607788 0
341 32.3363601704195 24.2212965986842 0
342 25.192932495198 49.7389829711086 0
343 25.0389709701532 60.0217042573834 0
344 30.0541374367291 59.9879945500477 0
345 50.6104032976019 25.1392280733245 0
346 24.1425010796236 40.2778099162584 0
347 25.1267276214592 54.9400918590577 0
352 100 100 0
353 80 70 0
362 100 55 0
363 100 60 0
364 100 65 0
365 100 70 0
366 100 75 0
367 100 80 0
368 100 85 0
369 100 90 0
370 100 95 0
371 95 100 0
372 90 100 0
373 85 100 0
374 80 100 0
375 75 100 0
376 70 100 0
377 65 100 0
378 60 100 0
379 55 100 0
389 60 53.3333333333333 0
390 64 56.6666666666667 0
391 68 60 0
392 72 63.3333333333333 0
393 76 66.6666666666667 0
394 79.9723646866654 94.977994905727 0
395 55.0057692453105 84.9834135216264 0
396 54.996048255286 75.0390406721791 0
397 90.2496966700804 55.0052359191626 0
398 94.9813652987916 79.9403515066638 0
399 95.0921973918283 64.9702432668139 0
400 64.9825973433907 94.9780335444876 0
401 54.9987814872923 94.9960817114828 0
402 54.877361232148 65.2958827949381 0
403 80.329442203297 54.9948387816847 0
404 54.7136129392645 54.9329751120137 0
405 75.0511643581361 54.928748652195 0
406 94.9933209326452 94.9917563406189 0
407 84.9765720697744 94.9784383089876 0
408 95.0412343766553 69.9381643724224 0
409 94.9806865258721 84.9591471754002 0
410 69.9740132549085 94.9729419049178 0
411 95.119118025802 55.0037588089734 0
412 69.807770416857 54.4697265917239 0
413 65.2994003145426 53.5328116688697 0
414 64.9900811984143 89.9373213266267 0
415 89.9906127225587 79.9216704176914 0
416 79.9891965630356 89.9787198549825 0
417 90.2380257264848 64.9533519318955 0
418 63.4681417482115 61.5727334042861 0
419 80.4817339438056 60.1072946052708 0
420 55.4336167710899 59.9191069049683 0
421 59.5731675334411 57.9844758370624 0
422 90.2758357360711 59.9913992587137 0
423 59.9941526146754 94.9863023385932 0
424 94.9852737157059 89.9771502988457 0
425 89.9840417887186 94.9821559292891 0
426 54.9988942408494 89.9874305695835 0
427 74.9749868210605 94.9761554666605 0
428 55.0139389337619 79.9862081067036 0
429 95.0032139721239 74.9323263607901 0
430 54.9134134853574 70.1608315575371 0
431 95.1198300488191 59.9922316032008 0
432 85.3540296410827 55.0032269301661 0
433 74.9881687003228 60.2649135724152 0
434 71.1209334088863 69.7518945786165 0
435 60.0283282738563 74.9923226178875 0
436 89.9797161051215 84.9479536238016 0
437 69.999807626486 89.9404732077319 0
438 90.1252363650421 69.9162808904955 0
439 59.9974090621649 89.9611086599271 0
440 84.9811627899796 89.9721754567648 0
441 89.9801328711411 89.9686007095068 0
442 60.0236117261077 84.9268284385177 0
443 90.0407523305592 74.9228592463859 0
444 75.0136366692767 89.9708481103567 0
445 80.9069848127399 64.8735087861883 0
446 85.4275097443043 59.9933153650062 0
447 59.5972812690853 65.6614567171144 0
448 68.5946716952457 65.0781360084736 0
449 59.8470511865499 61.6500462476114 0
450 70.1171860215793 84.9416360691306 0
451 64.9391692426594 70.121492279139 0
452 60.0566884631587 79.9160183160719 0
453 80.0853439815559 85.0568320540401 0
454 59.8459140042683 70.2256823724192 0
455 85.0575874527185 80.0437484031094 0
456 85.024226659869 85.0079203430708 0
457 65.0714368327853 84.8995709817531 0
458 85.2187328648018 69.9762317856904 0
459 75.4554556185643 71.9450833648124 0
460 85.3969232344508 64.9639700251896 0
461 64.2892898823377 65.5657444754304 0
462 65.1572183306173 79.88782247345 0
463 80.1514108241627 80.1906023962192 0
464 80.1571536863754 75.3170195520955 0
465 75.1300586264815 85.0351912086257 0
466 65.2009516553734 74.9479396979101 0
467 85.0919226200764 75.0325114400858 0
468 70.392039817565 75.1637804020617 0
469 70.2386357421245 80.044296868264 0
470 75.2189910207126 80.1792803477894 0
471 75.3194635324508 75.4437053353039 0
472 100 50 0
473 50 100 0
474 50 50 0
475 56 50 0
476 60.8888888888889 50 0
477 65.7777777777778 50 0
478 70.6666666666667 50 0
479 75.5555555555556 50 0
480 80.4444444444444 50 0
481 85.3333333333333 50 0
482 90.2222222222222 50 0
483 95.1111111111111 50 0
484 50 95 0
485 50 90 0
486 50 85 0
487 50 80 0
488 50 75 0
489 50 70 0
490 50 65 0
491 50 60 0
492 50 55 0
$EndNodes
$Elements
421
1 2 2 1 1 262 316 299 
3 2 2 1 1 210 263 248 
4 2 2 1 1 82 313 8 
5 2 2 1 1 317 341 339 
6 2 2 1 1 86 247 87 
7 2 2 1 1 85 283 86 
8 2 2 1 1 313 340 292 
9 2 2 1 1 338 346 326 
11 2 2 1 1 88 172 89 
13 2 2 1 1 82 8 315 
14 2 2 1 1 315 83 82 
17 2 2 1 1 421 449 420 
18 2 2 1 1 393 445 353 
19 2 2 1 1 392 448 391 
20 2 2 1 1 391 418 390 
21 2 2 1 1 390 421 389 
22 2 2 1 1 389 413 390 
23 2 2 1 1 392 391 433 
24 2 2 1 1 433 393 392 
25 3 2 1 1 176 198 156 98
26 3 2 1 1 93 154 29 30
27 3 2 1 1 54 55 116 117
28 3 2 1 1 81 7 54 117
31 3 2 1 1 28 124 111 27
32 3 2 1 1 123 150 52 53
35 3 2 1 1 52 150 120 51
39 3 2 1 1 46 155 121 45
41 3 2 1 1 47 107 155 46
42 3 2 1 1 48 156 107 47
43 3 2 1 1 111 123 26 27
44 3 2 1 1 98 156 48 49
45 3 2 1 1 26 123 53 5
46 3 2 1 1 94 148 32 33
47 3 2 1 1 39 129 101 38
48 3 2 1 1 154 93 135 197
49 3 2 1 1 40 130 129 39
50 3 2 1 1 70 99 127 69
51 3 2 1 1 150 123 111 151
52 3 2 1 1 126 94 33 34
53 3 2 1 1 63 112 44 6
54 3 2 1 1 32 148 125 31
55 3 2 1 1 31 125 93 30
56 3 2 1 1 155 196 119 121
57 3 2 1 1 151 195 120 150
58 3 2 1 1 124 154 197 185
59 3 2 1 1 124 185 151 111
60 3 2 1 1 29 154 124 28
61 3 2 1 1 109 131 65 66
62 3 2 1 1 120 149 50 51
63 3 2 1 1 50 149 98 49
64 3 2 1 1 127 128 68 69
65 3 2 1 1 115 74 75 92
66 3 2 1 1 149 230 176 98
67 3 2 1 1 152 231 179 100
68 3 2 1 1 195 230 149 120
69 3 2 1 1 196 231 152 119
70 3 2 1 1 196 155 107 229
71 3 2 1 1 107 156 198 229
72 3 2 1 1 176 219 258 198
73 3 2 1 1 153 232 175 91
74 3 2 1 1 231 196 229 269
75 3 2 1 1 179 232 153 100
76 3 2 1 1 230 270 219 176
77 3 2 1 1 198 258 269 229
78 3 2 1 1 271 301 232 179
79 3 2 1 1 179 231 269 271
80 3 2 1 1 303 302 219 270
81 3 2 1 1 185 218 195 151
82 3 2 1 1 195 218 270 230
83 3 2 1 1 301 251 175 232
84 3 2 1 1 106 78 79 147
85 3 2 1 1 147 79 80 105
86 3 2 1 1 80 81 117 105
87 3 2 1 1 216 272 197 135
88 3 2 1 1 272 218 185 197
89 3 2 1 1 272 303 270 218
90 3 2 1 1 140 105 117 116
91 3 2 1 1 116 55 56 146
92 3 2 1 1 115 157 73 74
93 3 2 1 1 146 56 57 95
94 3 2 1 1 92 75 76 145
95 3 2 1 1 145 76 77 118
96 3 2 1 1 77 78 106 118
97 3 2 1 1 186 135 93 125
99 3 2 1 1 106 138 191 118
100 3 2 1 1 193 140 116 146
101 3 2 1 1 147 105 140 192
102 3 2 1 1 258 291 271 269
103 3 2 1 1 192 138 106 147
104 3 2 1 1 200 186 125 148
105 3 2 1 1 302 291 258 219
106 3 2 1 1 95 57 58 144
108 3 2 1 1 135 186 274 216
109 3 2 1 1 43 165 108 42
111 3 2 1 1 194 115 92 134
112 3 2 1 1 175 234 158 91
114 3 2 1 1 73 157 96 72
115 3 2 1 1 99 70 71 163
116 3 2 1 1 71 72 96 163
117 3 2 1 1 307 303 272 216
118 3 2 1 1 126 34 35 160
119 3 2 1 1 140 193 225 192
120 3 2 1 1 214 184 191 224
121 3 2 1 1 144 58 59 102
122 3 2 1 1 102 59 60 143
123 3 2 1 1 228 194 134 268
124 3 2 1 1 136 200 148 94
125 3 2 1 1 134 184 214 268
126 3 2 1 1 275 310 201 234
127 3 2 1 1 112 165 43 44
128 3 2 1 1 194 233 157 115
130 3 2 1 1 267 138 192 225
131 3 2 1 1 217 274 186 200
132 3 2 1 1 97 36 37 164
133 3 2 1 1 302 303 307 329
134 3 2 1 1 112 63 64 162
135 3 2 1 1 237 217 200 136
136 3 2 1 1 145 118 191 184
137 3 2 1 1 109 66 67 167
138 3 2 1 1 217 237 305 255
139 3 2 1 1 202 126 160 235
140 3 2 1 1 301 330 290 251
141 3 2 1 1 271 291 330 301
142 3 2 1 1 228 259 233 194
143 3 2 1 1 193 146 95 227
144 3 2 1 1 130 40 41 168
145 3 2 1 1 330 291 302 329
146 3 2 1 1 122 158 234 201
147 3 2 1 1 94 126 202 136
148 3 2 1 1 35 36 97 160
149 3 2 1 1 318 344 310 275
150 3 2 1 1 224 191 138 267
151 3 2 1 1 329 307 308 331
152 3 2 1 1 238 209 104 161
153 3 2 1 1 234 175 251 275
154 3 2 1 1 184 134 92 145
155 3 2 1 1 330 329 331 290
156 3 2 1 1 290 318 275 251
157 3 2 1 1 160 97 190 235
158 3 2 1 1 96 157 233 189
159 3 2 1 1 225 266 289 267
160 3 2 1 1 274 217 255 308
161 3 2 1 1 37 38 101 164
162 3 2 1 1 64 65 131 162
163 3 2 1 1 216 274 308 307
164 3 2 1 1 99 137 166 127
165 3 2 1 1 165 112 162 204
166 3 2 1 1 256 180 241 304
167 3 2 1 1 67 68 128 167
168 3 2 1 1 331 308 255 332
169 3 2 1 1 108 165 204 205
170 3 2 1 1 41 42 108 168
171 3 2 1 1 131 109 141 187
172 3 2 1 1 297 224 267 289
173 3 2 1 1 226 159 90 199
174 3 2 1 1 169 139 101 129
175 3 2 1 1 143 60 61 113
177 3 2 1 1 113 61 62 132
179 3 2 1 1 266 225 193 227
180 3 2 1 1 190 97 164 207
181 3 2 1 1 203 169 129 130
182 3 2 1 1 278 221 169 203
183 3 2 1 1 236 203 130 168
184 3 2 1 1 96 189 206 163
185 3 2 1 1 332 343 344 318
186 3 2 1 1 224 297 254 214
187 3 2 1 1 290 331 332 318
188 3 2 1 1 127 166 188 128
189 3 2 1 1 128 188 208 167
190 3 2 1 1 137 99 163 206
191 3 2 1 1 204 162 131 187
192 3 2 1 1 296 268 214 254
193 3 2 1 1 205 236 168 108
194 3 2 1 1 136 202 260 237
195 3 2 1 1 221 182 139 169
196 3 2 1 1 208 277 246 141
197 3 2 1 1 202 235 279 260
198 3 2 1 1 137 180 245 166
199 3 2 1 1 255 305 343 332
200 3 2 1 1 164 101 139 207
201 3 2 1 1 241 280 298 304
202 3 2 1 1 132 114 170 113
203 3 2 1 1 276 310 344 319
204 3 2 1 1 242 243 311 257
205 3 2 1 1 188 222 277 208
206 3 2 1 1 141 109 167 208
207 3 2 1 1 166 245 222 188
208 3 2 1 1 180 137 206 241
209 3 2 1 1 182 243 207 139
211 3 2 1 1 190 207 243 242
212 3 2 1 1 141 246 244 187
214 3 2 1 1 280 259 334 298
215 3 2 1 1 281 278 203 236
216 3 2 1 1 104 209 170 114
217 3 2 1 1 161 103 178 238
218 3 2 1 1 242 279 235 190
219 3 2 1 1 241 206 189 280
220 3 2 1 1 237 260 335 305
221 3 2 1 1 113 170 183 143
222 3 2 1 1 209 220 183 170
223 3 2 1 1 236 205 244 281
224 3 2 1 1 321 322 309 253
225 3 2 1 1 287 282 312 336
226 3 2 1 1 319 344 343 347
227 3 2 1 1 280 189 233 259
228 3 2 1 1 285 228 268 296
229 3 2 1 1 143 183 223 102
230 3 2 1 1 205 204 187 244
231 3 2 1 1 244 246 8 281
232 3 2 1 1 276 240 201 310
233 3 2 1 1 260 279 306 335
234 3 2 1 1 327 257 311 346
235 3 2 1 1 261 311 243 182
236 3 2 1 1 238 282 220 209
237 3 2 1 1 250 320 336 312
238 3 2 1 1 289 266 300 328
240 3 2 1 1 103 159 226 178
241 3 2 1 1 343 305 335 347
242 3 2 1 1 250 312 178 226
243 3 2 1 1 226 199 273 250
244 3 2 1 1 324 254 297 325
245 3 2 1 1 239 213 253 309
246 3 2 1 1 144 177 227 95
247 3 2 1 1 177 144 102 223
248 3 2 1 1 286 320 250 273
249 3 2 1 1 285 334 259 228
250 3 2 1 1 282 238 178 312
251 3 2 1 1 227 177 300 266
252 3 2 1 1 278 281 8 313
253 3 2 1 1 306 257 327 342
254 3 2 1 1 239 273 199 174
255 3 2 1 1 325 297 289 328
256 3 2 1 1 328 287 336 325
257 3 2 1 1 257 306 279 242
258 3 2 1 1 323 296 254 324
259 3 2 1 1 223 183 220 265
260 3 2 1 1 265 287 328 300
261 3 2 1 1 265 300 177 223
262 3 2 1 1 171 122 201 240
263 3 2 1 1 277 222 294 315
264 3 2 1 1 220 282 287 265
265 3 2 1 1 142 133 211 174
266 3 2 1 1 245 264 294 222
267 3 2 1 1 261 326 346 311
269 3 2 1 1 215 263 210 181
270 3 2 1 1 174 199 90 142
271 3 2 1 1 309 286 273 239
272 3 2 1 1 313 292 221 278
273 3 2 1 1 321 334 285 322
274 3 2 1 1 83 315 294 341
275 3 2 1 1 288 215 276 319
276 3 2 1 1 325 336 320 324
277 3 2 1 1 211 213 239 174
278 3 2 1 1 261 292 337 326
279 3 2 1 1 324 320 286 323
280 3 2 1 1 181 110 171 240
281 3 2 1 1 8 246 277 315
282 3 2 1 1 347 335 306 342
283 3 2 1 1 292 261 182 221
284 3 2 1 1 180 256 264 245
285 3 2 1 1 285 296 323 322
286 3 2 1 1 333 304 298 345
287 3 2 1 1 286 309 322 323
288 3 2 1 1 295 256 304 333
289 3 2 1 1 337 83 84 314
290 3 2 1 1 299 345 321 253
291 3 2 1 1 288 342 327 293
293 3 2 1 1 173 110 181 210
294 3 2 1 1 240 276 215 181
295 3 2 1 1 333 345 299 316
296 3 2 1 1 252 85 86 248
297 3 2 1 1 342 288 319 347
298 3 2 1 1 252 248 263 293
299 3 2 1 1 87 88 173 210
300 3 2 1 1 212 249 172 88
301 3 2 1 1 133 89 172 211
302 3 2 1 1 284 249 212 262
303 3 2 1 1 339 341 294 264
304 3 2 1 1 314 84 85 252
305 3 2 1 1 283 316 247 86
306 3 2 1 1 346 338 293 327
307 3 2 1 1 295 333 316 283
308 3 2 1 1 263 215 288 293
309 3 2 1 1 212 88 87 247
310 3 2 1 1 85 84 317 283
311 3 2 1 1 317 339 295 283
312 3 2 1 1 82 83 340 313
313 3 2 1 1 284 262 299 253
314 3 2 1 1 341 317 84 83
315 3 2 1 1 339 264 256 295
316 3 2 1 1 345 298 334 321
317 3 2 1 1 213 249 284 253
318 3 2 1 1 326 337 314 338
319 3 2 1 1 249 213 211 172
320 3 2 1 1 252 293 338 314
321 3 2 1 1 248 86 87 210
322 3 2 1 1 247 316 262 212
323 3 2 1 1 340 83 337 292
325 3 2 1 1 374 394 407 373
326 3 2 1 1 408 399 364 365
327 3 2 1 1 371 406 370 352
328 3 2 1 1 378 423 400 377
329 3 2 1 1 406 424 369 370
330 3 2 1 1 401 423 378 379
331 3 2 1 1 375 427 394 374
333 3 2 1 1 409 398 367 368
334 3 2 1 1 406 371 372 425
335 3 2 1 1 377 400 410 376
336 3 2 1 1 410 427 375 376
337 3 2 1 1 369 424 409 368
338 3 2 1 1 408 365 366 429
339 3 2 1 1 439 414 400 423
342 3 2 1 1 372 373 407 425
344 3 2 1 1 414 437 410 400
345 3 2 1 1 442 395 428 452
346 3 2 1 1 424 406 425 441
347 3 2 1 1 366 367 398 429
350 3 2 1 1 407 440 441 425
351 3 2 1 1 423 401 426 439
352 3 2 1 1 416 394 427 444
353 3 2 1 1 415 398 409 436
354 3 2 1 1 409 424 441 436
356 3 2 1 1 410 437 444 427
357 3 2 1 1 394 416 440 407
359 3 2 1 1 442 439 426 395
362 3 2 1 1 431 411 362 363
363 3 2 1 1 363 364 399 431
364 3 2 1 1 429 398 415 443
366 3 2 1 1 416 453 456 440
367 3 2 1 1 414 439 442 457
368 3 2 1 1 428 396 435 452
369 3 2 1 1 435 396 430 454
370 3 2 1 1 437 450 465 444
371 3 2 1 1 432 446 419 403
372 3 2 1 1 444 465 453 416
373 3 2 1 1 435 466 462 452
374 3 2 1 1 443 438 408 429
375 3 2 1 1 399 417 422 431
376 3 2 1 1 431 422 397 411
377 3 2 1 1 438 417 399 408
378 3 2 1 1 457 442 452 462
379 3 2 1 1 467 458 438 443
380 3 2 1 1 414 457 450 437
381 3 2 1 1 436 441 440 456
382 3 2 1 1 456 455 415 436
383 3 2 1 1 397 422 446 432
386 3 2 1 1 443 415 455 467
387 3 2 1 1 419 445 393 433
388 3 2 1 1 466 468 469 462
389 3 2 1 1 433 391 412 405
390 3 2 1 1 405 403 419 433
391 3 2 1 1 422 417 460 446
392 3 2 1 1 466 435 454 451
394 3 2 1 1 450 457 462 469
395 3 2 1 1 446 460 445 419
396 3 2 1 1 460 417 438 458
398 3 2 1 1 447 449 418 461
399 3 2 1 1 464 467 455 463
400 3 2 1 1 353 458 467 464
401 3 2 1 1 421 420 404 389
402 3 2 1 1 459 353 464 471
403 3 2 1 1 470 463 453 465
404 3 2 1 1 418 391 448 461
405 3 2 1 1 458 353 445 460
406 3 2 1 1 469 470 465 450
407 3 2 1 1 451 434 468 466
408 3 2 1 1 430 402 447 454
409 3 2 1 1 418 449 421 390
410 3 2 1 1 392 393 434 448
411 3 2 1 1 393 353 459 434
412 3 2 1 1 448 434 451 461
414 3 2 1 1 470 471 464 463
415 3 2 1 1 468 434 459 471
417 3 2 1 1 456 453 463 455
418 3 2 1 1 412 391 390 413
419 3 2 1 1 454 447 461 451
420 3 2 1 1 449 447 402 420
421 3 2 1 1 469 468 471 470
2 2 2 1 1 89 133 475 
10 2 2 1 1 110 173 474 
12 2 2 1 1 89 475 474 
15 2 2 1 1 389 404 475 
16 2 2 1 1 475 476 389 
29 3 2 1 1 45 121 484 473
30 3 2 1 1 484 121 119 485
33 3 2 1 1 485 119 152 486
34 3 2 1 1 486 152 100 487
36 3 2 1 1 481 104 114 482
37 3 2 1 1 487 100 153 488
38 3 2 1 1 488 153 91 489
40 3 2 1 1 91 158 490 489
98 3 2 1 1 158 122 491 490
107 3 2 1 1 103 479 478 159
110 3 2 1 1 104 481 480 161
113 3 2 1 1 478 477 90 159
129 3 2 1 1 480 479 103 161
176 3 2 1 1 472 483 132 62
178 3 2 1 1 483 482 114 132
210 3 2 1 1 133 142 476 475
213 3 2 1 1 142 90 477 476
239 3 2 1 1 122 171 492 491
268 3 2 1 1 89 474 173 88
292 3 2 1 1 492 171 110 474
324 3 2 1 1 484 401 379 473
332 3 2 1 1 401 484 485 426
340 3 2 1 1 485 486 395 426
341 3 2 1 1 395 486 487 428
343 3 2 1 1 396 488 489 430
348 3 2 1 1 481 482 397 432
349 3 2 1 1 403 480 481 432
355 3 2 1 1 487 488 396 428
358 3 2 1 1 489 490 402 430
360 3 2 1 1 411 483 472 362
361 3 2 1 1 397 482 483 411
365 3 2 1 1 403 405 479 480
384 3 2 1 1 492 404 420 491
385 3 2 1 1 402 490 491 420
393 3 2 1 1 404 492 474 475
397 3 2 1 1 478 479 405 412
413 3 2 1 1 477 478 412 413
416 3 2 1 1 413 389 476 477
$EndElements
