$MeshFormat
2.2 0 8
$EndMeshFormat
$Nodes
172
1 50 0 0
2 50 10 0
3 50 45 0
4 50 72 0
5 0 0 0
6 0 30 0
7 100 0 0
8 0 100 0
9 100 60 0
10 100 100 0
11 50 18.75 0
12 50 27.5 0
13 50 36.25 0
14 50 54 0
15 50 63 0
16 10 0 0
17 20 0 0
18 30 0 0
19 40 0 0
20 0 20 0
21 0 10 0
22 60 0 0
23 70 0 0
24 80 0 0
25 90 0 0
26 0 90 0
27 0 80 0
28 0 70 0
29 0 60 0
30 0 50 0
31 0 40 0
32 100 10 0
33 100 20 0
34 100 30 0
35 100 40 0
36 100 50 0
37 90 100 0
38 80 100 0
39 70 100 0
40 60 100 0
41 50 100 0
42 40 100 0
43 30 100 0
44 20 100 0
45 10 100 0
46 100 70 0
47 100 80 0
48 100 90 0
49 10 33 0
50 20 36 0
51 30 39 0
52 40 42 0
53 60 48 0
54 70 51 0
55 80 54 0
56 90 57 0
57 89.612563406591 20.1112064115733 0
58 10.0565977349849 69.9151405742654 0
59 69.7175819750425 90.1366263546046 0
60 30.6815132129706 9.61331666604084 0
61 88.1090991846016 68.0912481692988 0
62 20.1550933775654 89.8974297563808 0
63 11.9194846380472 21.8396548158853 0
64 40.4230319427172 90.1528916342938 0
65 50.2761161036248 90.5003820195154 0
66 20.7247840807408 9.95985503163334 0
67 40.0743403041688 51.50126951118 0
68 59.3887618583517 36.7391160632647 0
69 69.5374217718531 9.6351998700427 0
70 59.6760084714096 9.5487678142044 0
71 40.4906088363067 9.42025531242772 0
72 89.7376359670124 30.2948272259618 0
73 89.81477297538 9.99799125115051 0
74 9.7789483705005 59.9287892696798 0
75 10.0505934753068 89.9556446927118 0
76 79.7414874612183 89.9236962501282 0
77 89.8669586980344 89.9396923985558 0
78 10.5405442884204 10.2180161886996 0
79 8.74178857911557 41.8703748120525 0
80 90.9706263818134 39.4042605703509 0
81 91.1940809988425 48.3846803799459 0
82 59.8176825082902 56.9910233147989 0
83 40.4997948184915 33.2283469565276 0
84 81.2781825192938 43.3074690772001 0
85 19.8156343819189 59.4348978060761 0
86 40.1947487399233 61.0584875378608 0
87 59.1518157553876 27.6738724555768 0
88 78.3650290057013 62.058089306725 0
89 68.0807548090116 79.1165556046738 0
90 32.423787890869 20.2089809632873 0
91 18.3099133968391 47.6533610780967 0
92 79.1253609291902 79.6974462423191 0
93 59.3606129634634 18.7475735797746 0
94 41.7005609956705 17.6703196452678 0
95 70.5284671690812 43.5050024491108 0
96 79.6229575960112 9.86028627974011 0
97 69.442531640772 59.7428116458202 0
98 30.3016219820817 89.9310179216113 0
99 59.84514010003 90.492586654848 0
100 10.0808778667505 79.9011654249827 0
101 79.1057109397122 19.8363991732753 0
102 89.4091924712438 79.6908926768672 0
103 29.8074376148885 49.4175338893917 0
104 22.1769935754062 18.9919205455729 0
105 40.5386689309759 80.3789128156549 0
106 30.994806822792 30.1850571964 0
107 8.58443624577503 50.8440860601274 0
108 59.5289356094057 65.9092536642855 0
109 21.9563352436892 27.8048941006066 0
110 41.7605289480766 25.624615023851 0
111 30.415508017812 79.8830940974457 0
112 67.8620980305272 27.5865118931168 0
113 30.0179201642393 59.7538379695729 0
114 40.3478181768411 70.7518267236796 0
115 20.1393424385644 69.7023745431307 0
116 58.6282759927751 73.8092327834553 0
117 20.2124659174107 79.8209950353103 0
118 78.0354101533048 31.1577922588586 0
119 68.9760054156311 68.6717263628399 0
120 50.0816449153851 81.2590114685738 0
121 68.9848611548665 19.1475829086123 0
122 77.9431620189281 70.5549077552946 0
123 58.6507166894846 82.0265985927417 0
124 30.2717879954747 69.9646191767684 0
125 68.3479711725786 36.0922178374788 0
126 50 0 0
127 50 10 0
128 50 45 0
129 50 72 0
130 50 40 50
131 50 0 50
132 50 18.75 0
133 50 27.5 0
134 50 36.25 0
135 50 54 0
136 50 63 0
137 50 66.6666666666667 8.33333333333334
138 50 61.3333333333333 16.6666666666667
139 50 56 25
140 50 50.6666666666667 33.3333333333333
141 50 45.3333333333333 41.6666666666667
142 50 30 50
143 50 20 50
144 50 10 50
145 50 0 40
146 50 0 30
147 50 0 20
148 50 0 10
149 50 15 8.33333333333334
150 50 20 16.6666666666667
151 50 25 25
152 50 30 33.3333333333333
153 50 35 41.6666666666667
154 50 36.0169376589072 8.91256212677959
155 50 42.2465961337471 27.0739101446199
156 50 48.4458993626691 19.1094987773517
157 50 17.6383991074838 40.9687002094581
158 50 44.7225656032655 7.78897885906833
159 50 10.6790763124751 20.7493207781714
160 50 9.25917623994164 40.3796158459119
161 50 54.0958781737871 9.82435543766758
162 50 8.25761885455418 10.4139911025938
163 50 39.0708744562829 35.9747645262245
164 50 24.7166801770932 38.8240449943407
165 50 61.6052201027868 5.91243200492718
166 50 26.0123605008892 9.66969387240668
167 50 17.941125737957 31.002551084432
168 50 8.52763092301511 31.3181975154025
169 50 37.0025855657328 19.9812186148844
170 50 33.8446475116728 26.2230637065913
171 50 41.7791000298629 14.9016748332013
172 50 31.1913385554649 16.7566777699303
$EndNodes
$Elements
148
1 2 2 1 1 118 125 112 
2 2 2 1 1 94 110 90 
3 2 2 1 1 89 123 116 
4 2 2 1 1 61 122 88 
5 2 2 1 1 104 109 63 
6 2 2 1 1 91 107 79 
7 2 2 1 1 81 84 80 
8 2 2 1 1 53 95 54 
9 3 2 1 1 32 33 57 73
10 3 2 1 1 25 7 32 73
11 3 2 1 1 48 10 37 77
12 3 2 1 1 37 38 76 77
13 3 2 1 1 45 8 26 75
14 3 2 1 1 38 39 59 76
15 3 2 1 1 57 33 34 72
16 3 2 1 1 62 44 45 75
17 3 2 1 1 41 42 64 65
18 3 2 1 1 102 47 48 77
19 3 2 1 1 92 102 77 76
20 3 2 1 1 89 92 76 59
21 3 2 1 1 64 42 43 98
22 3 2 1 1 75 26 27 100
23 3 2 1 1 98 43 44 62
24 3 2 1 1 75 100 117 62
25 3 2 1 1 27 28 58 100
26 3 2 1 1 24 25 73 96
27 3 2 1 1 100 58 115 117
28 3 2 1 1 59 39 40 99
29 3 2 1 1 60 66 17 18
30 3 2 1 1 99 40 41 65
31 3 2 1 1 22 23 69 70
32 3 2 1 1 60 18 19 71
33 3 2 1 1 66 78 16 17
34 3 2 1 1 16 78 21 5
35 3 2 1 1 1 22 70 2
36 3 2 1 1 69 23 24 96
37 3 2 1 1 74 85 115 58
38 3 2 1 1 34 35 80 72
39 3 2 1 1 28 29 74 58
40 3 2 1 1 71 19 1 2
41 3 2 1 1 57 101 96 73
42 3 2 1 1 111 105 64 98
43 3 2 1 1 72 118 101 57
44 3 2 1 1 93 11 2 70
45 3 2 1 1 2 11 94 71
46 3 2 1 1 122 92 89 119
47 3 2 1 1 69 96 101 121
48 3 2 1 1 97 54 55 88
49 3 2 1 1 98 62 117 111
50 3 2 1 1 111 117 115 124
51 3 2 1 1 83 52 51 106
52 3 2 1 1 106 51 50 109
53 3 2 1 1 90 106 109 104
54 3 2 1 1 82 53 54 97
55 3 2 1 1 85 113 124 115
56 3 2 1 1 118 72 80 84
57 3 2 1 1 14 15 86 67
58 3 2 1 1 20 21 78 63
59 3 2 1 1 46 47 102 61
60 3 2 1 1 114 86 15 4
61 3 2 1 1 63 49 6 20
62 3 2 1 1 61 56 9 46
63 3 2 1 1 104 66 60 90
64 3 2 1 1 93 121 112 87
65 3 2 1 1 81 80 35 36
66 3 2 1 1 3 14 67 52
67 3 2 1 1 31 6 49 79
68 3 2 1 1 110 94 11 12
69 3 2 1 1 53 82 14 3
70 3 2 1 1 29 30 107 74
71 3 2 1 1 79 107 30 31
72 3 2 1 1 119 97 88 122
73 3 2 1 1 97 119 108 82
74 3 2 1 1 36 9 56 81
75 3 2 1 1 113 103 67 86
76 3 2 1 1 110 83 106 90
77 3 2 1 1 15 14 82 108
78 3 2 1 1 88 55 56 61
79 3 2 1 1 102 92 122 61
80 3 2 1 1 87 112 125 68
81 3 2 1 1 109 50 49 63
82 3 2 1 1 108 116 4 15
83 3 2 1 1 99 65 120 123
84 3 2 1 1 52 83 13 3
85 3 2 1 1 83 110 12 13
86 3 2 1 1 13 12 87 68
87 3 2 1 1 12 11 93 87
88 3 2 1 1 105 120 65 64
89 3 2 1 1 121 93 70 69
90 3 2 1 1 78 66 104 63
91 3 2 1 1 94 90 60 71
92 3 2 1 1 114 105 111 124
93 3 2 1 1 91 103 113 85
94 3 2 1 1 91 50 51 103
95 3 2 1 1 3 13 68 53
96 3 2 1 1 101 118 112 121
97 3 2 1 1 103 51 52 67
98 3 2 1 1 86 114 124 113
99 3 2 1 1 116 108 119 89
100 3 2 1 1 84 95 125 118
101 3 2 1 1 4 120 105 114
102 3 2 1 1 85 74 107 91
103 3 2 1 1 81 56 55 84
104 3 2 1 1 79 49 50 91
105 3 2 1 1 123 89 59 99
106 3 2 1 1 54 95 84 55
107 3 2 1 1 120 4 116 123
108 3 2 1 1 95 53 68 125
109 2 2 2 2 154 172 166 
110 2 2 2 2 155 170 169 
111 2 2 2 2 153 130 142 
112 2 2 2 2 167 168 159 
113 2 2 2 2 157 167 164 
114 2 2 2 2 152 163 153 
115 2 2 2 2 127 132 149 
116 2 2 2 2 149 162 127 
117 2 2 2 2 158 171 154 
118 2 2 2 2 151 170 152 
119 2 2 2 2 149 166 150 
120 3 2 2 2 144 131 145 160
121 3 2 2 2 160 145 146 168
122 3 2 2 2 154 134 128 158
123 3 2 2 2 143 144 160 157
124 3 2 2 2 168 146 147 159
125 3 2 2 2 167 157 160 168
126 3 2 2 2 138 139 156 161
127 3 2 2 2 158 128 135 161
128 3 2 2 2 167 159 150 151
129 3 2 2 2 139 140 155 156
130 3 2 2 2 133 134 154 166
131 3 2 2 2 149 150 159 162
132 3 2 2 2 147 148 162 159
133 3 2 2 2 166 149 132 133
134 3 2 2 2 143 157 164 142
135 3 2 2 2 152 164 167 151
136 3 2 2 2 162 148 126 127
137 3 2 2 2 163 152 170 155
138 3 2 2 2 158 161 156 171
139 3 2 2 2 140 141 163 155
140 3 2 2 2 153 163 141 130
141 3 2 2 2 169 171 156 155
142 3 2 2 2 172 151 150 166
143 3 2 2 2 137 165 136 129
144 3 2 2 2 153 142 164 152
145 3 2 2 2 169 172 154 171
146 3 2 2 2 172 169 170 151
147 3 2 2 2 135 136 165 161
148 3 2 2 2 138 161 165 137
$EndElements
