$MeshFormat
2.2 0 8
$EndMeshFormat
$Nodes
121
1 200 200 0
2 600 200 0
3 600 300 0
4 200 600 0
5 200 400 0
6 600 700 0
7 600 800 0
8 200 800 0
9 900 300 0
10 900 700 0
11 0 0 0
12 1000 0 0
13 0 1000 0
14 1000 1000 0
31 100 0 0
32 200 0 0
33 300 0 0
34 400 0 0
35 500 0 0
36 600 0 0
37 700 0 0
38 800 0 0
39 900 0 0
40 0 900 0
41 0 800 0
42 0 700 0
43 0 600 0
44 0 500 0
45 0 400 0
46 0 300 0
47 0 200 0
48 0 100 0
49 1000 100 0
50 1000 200 0
51 1000 300 0
52 1000 400 0
53 1000 500 0
54 1000 600 0
55 1000 700 0
56 1000 800 0
57 1000 900 0
58 900 1000 0
59 800 1000 0
60 700 1000 0
61 600 1000 0
62 500 1000 0
63 400 1000 0
64 300 1000 0
65 200 1000 0
66 100 1000 0
67 800 100 0
68 900 800 0
69 100 300 0
70 200 900 0
71 100 200 0
72 700 100 0
73 400 100 0
74 300 900 0
75 300 100 0
76 500 100 0
77 100 500 0
78 100 600 0
79 600 900 0
80 700 800 0
81 100 700 0
82 100 900 0
83 500 900 0
84 800 200 0
85 900 100 0
86 700 200 0
87 900 200 0
88 900 900 0
89 200 100 0
90 100 100 0
91 700 900 0
92 600 100 0
93 100 400 0
94 400 900 0
95 800 800 0
96 100 800 0
97 800 900 0
98 600 400 0
100 400 600 0
101 400 400 0
106 500 500 0
107 400 300 0
114 300 500 0
121 300 300 0
122 400 700 0
131 300 700 0
141 801.335196413822 402.462676062781 0
142 701.844979623789 602.050088247656 0
143 701.882421946279 502.681624246087 0
144 701.008907287737 401.663863959729 0
145 801.780609139899 502.518378925173 0
146 801.212656392763 601.451747027368 0
147 300 200 0
148 400 200 0
149 500 200 0
150 200 500 0
151 200 300 0
152 500 800 0
153 400 800 0
154 300 800 0
155 200 700 0
156 700 300 0
157 800 300 0
158 900 400 0
159 900 500 0
160 900 600 0
161 800 700 0
162 700 700 0
163 600 600 0
164 500 400 0
165 600 500 0
166 500 600 0
167 400 500 0
168 500 300 0
169 300 400 0
170 300 600 0
171 500 700 0
$EndNodes
$Elements
100
1 3 2 1 1 44 77 78 43
3 3 2 1 1 89 90 31 32
4 3 2 1 1 88 97 95 68
5 3 2 1 1 85 49 50 87
8 3 2 1 1 77 44 45 93
11 3 2 1 1 42 43 78 81
13 3 2 1 1 41 96 82 40
14 3 2 1 1 81 96 41 42
16 3 2 1 1 40 82 66 13
17 3 2 1 1 49 85 39 12
18 3 2 1 1 95 97 91 80
23 3 2 1 1 63 94 83 62
24 3 2 1 1 31 90 48 11
25 3 2 1 1 83 79 61 62
26 3 2 1 1 56 57 88 68
27 3 2 1 1 79 91 60 61
28 3 2 1 1 91 97 59 60
30 3 2 1 1 59 97 88 58
31 3 2 1 1 58 88 57 14
33 3 2 1 1 7 80 91 79
34 3 2 1 1 75 33 34 73
35 3 2 1 1 75 89 32 33
36 3 2 1 1 34 35 76 73
38 3 2 1 1 84 86 72 67
39 3 2 1 1 36 92 76 35
41 3 2 1 1 87 50 51 9
42 3 2 1 1 74 94 63 64
43 3 2 1 1 90 89 1 71
44 3 2 1 1 48 90 71 47
45 3 2 1 1 39 85 67 38
46 3 2 1 1 69 93 45 46
47 3 2 1 1 69 46 47 71
48 3 2 1 1 55 56 68 10
49 3 2 1 1 66 82 70 65
53 3 2 1 1 85 87 84 67
56 3 2 1 1 82 96 8 70
59 3 2 1 1 64 65 70 74
60 3 2 1 1 37 38 67 72
61 3 2 1 1 86 2 92 72
63 3 2 1 1 72 92 36 37
99 3 2 1 1 143 144 141 145
100 3 2 1 1 145 146 142 143
2 3 2 1 1 84 157 156 86
6 3 2 1 1 9 157 84 87
7 3 2 1 1 155 81 78 4
9 3 2 1 1 95 161 10 68
10 3 2 1 1 8 96 81 155
12 3 2 1 1 148 147 75 73
15 3 2 1 1 78 77 150 4
19 3 2 1 1 53 159 158 52
20 3 2 1 1 1 89 75 147
21 3 2 1 1 161 95 80 162
22 3 2 1 1 2 86 156 3
29 3 2 1 1 162 80 7 6
32 3 2 1 1 7 79 83 152
37 3 2 1 1 158 9 51 52
40 3 2 1 1 76 149 148 73
50 3 2 1 1 160 159 53 54
51 3 2 1 1 1 151 69 71
52 3 2 1 1 2 149 76 92
54 3 2 1 1 153 152 83 94
55 3 2 1 1 5 150 77 93
57 3 2 1 1 10 160 54 55
58 3 2 1 1 154 153 94 74
62 3 2 1 1 8 154 74 70
64 3 2 1 1 151 5 93 69
65 3 2 1 1 98 165 106 164
66 3 2 1 1 163 166 106 165
67 3 2 1 1 164 106 167 101
68 3 2 1 1 167 106 166 100
69 3 2 1 1 98 164 168 3
70 3 2 1 1 168 164 101 107
71 3 2 1 1 100 170 114 167
72 3 2 1 1 101 167 114 169
73 3 2 1 1 169 114 150 5
74 3 2 1 1 150 114 170 4
75 3 2 1 1 168 149 2 3
76 3 2 1 1 5 151 121 169
77 3 2 1 1 169 121 107 101
78 3 2 1 1 107 121 147 148
79 3 2 1 1 148 149 168 107
80 3 2 1 1 147 121 151 1
81 3 2 1 1 171 166 163 6
82 3 2 1 1 100 166 171 122
83 3 2 1 1 4 170 131 155
84 3 2 1 1 7 152 171 6
85 3 2 1 1 8 155 131 154
86 3 2 1 1 154 131 122 153
87 3 2 1 1 122 131 170 100
88 3 2 1 1 171 152 153 122
89 3 2 1 1 156 144 98 3
90 3 2 1 1 98 144 143 165
91 3 2 1 1 161 162 142 146
92 3 2 1 1 163 142 162 6
93 3 2 1 1 163 165 143 142
94 3 2 1 1 158 141 157 9
95 3 2 1 1 157 141 144 156
96 3 2 1 1 141 158 159 145
97 3 2 1 1 160 146 145 159
98 3 2 1 1 10 161 146 160
$EndElements
