$MeshFormat
2.2 0 8
$EndMeshFormat
$Nodes
231
1 0 800 0
2 0 0 0
3 1000 800 0
4 1000 0 0
5 0 2000 0
6 0 1500 0
7 1000 2000 0
8 1000 1500 0
9 0 700 0
10 0 600 0
11 0 500 0
12 0 400 0
13 0 300 0
14 0 200 0
15 0 100 0
25 1000 100 0
26 1000 200 0
27 1000 300 0
28 1000 400 0
29 1000 500 0
30 1000 600 0
31 1000 700 0
32 100 0 0
33 200 0 0
34 300 0 0
35 400 0 0
36 500 0 0
37 600 0 0
38 700 0 0
39 800 0 0
40 900 0 0
41 0 1900 0
42 0 1800 0
43 0 1700 0
44 0 1600 0
45 900 2000 0
46 800 2000 0
47 700 2000 0
48 600 2000 0
49 500 2000 0
50 400 2000 0
51 300 2000 0
52 200 2000 0
53 100 2000 0
54 1000 1600 0
55 1000 1700 0
56 1000 1800 0
57 1000 1900 0
67 400 700 0
68 500 100 0
69 900 400 0
70 100 400 0
71 700 700 0
72 800 100 0
73 300 100 0
74 900 700 0
75 100 700 0
76 100 200 0
77 200 700 0
78 500 700 0
79 900 100 0
80 700 100 0
81 100 600 0
82 100 100 0
83 900 200 0
84 900 500 0
85 400 600 0
86 200 600 0
87 800 400 0
88 600 100 0
89 300 700 0
90 600 700 0
91 200 100 0
92 400 100 0
93 800 200 0
94 100 500 0
95 100 300 0
96 800 700 0
97 900 300 0
98 900 600 0
99 500 200 0
100 200 400 0
101 700 600 0
102 700 200 0
103 500 600 0
104 300 600 0
105 800 300 0
106 800 500 0
107 200 200 0
108 400 200 0
109 200 500 0
110 800 600 0
111 400 500 0
112 500 300 0
113 300 500 0
114 700 400 0
115 600 200 0
116 700 500 0
117 700 300 0
118 300 200 0
119 200 300 0
120 600 600 0
121 400 300 0
122 600 400 0
123 600 300 0
124 400 400 0
125 300 300 0
126 300 400 0
127 500 500 0
128 600 500 0
129 500 400 0
130 200 1900 0
131 700 1900 0
132 400 1900 0
133 300 1600 0
134 800 1600 0
135 600 1600 0
136 100 1700 0
137 800 1900 0
138 500 1600 0
139 200 1600 0
140 100 1900 0
141 100 1600 0
142 900 1600 0
143 900 1900 0
144 900 1700 0
145 500 1900 0
146 400 1800 0
147 200 1700 0
148 700 1800 0
149 200 1800 0
150 300 1900 0
151 400 1600 0
152 600 1700 0
153 100 1800 0
154 600 1900 0
155 900 1800 0
156 800 1700 0
157 700 1600 0
158 300 1700 0
159 300 1800 0
160 500 1700 0
161 500 1800 0
162 800 1800 0
163 600 1800 0
164 700 1700 0
165 400 1700 0
166 1000 1200 0
167 0 1200 0
177 1000 900 0
178 1000 1000 0
179 1000 1100 0
189 0 1100 0
190 0 1000 0
191 0 900 0
192 200 1100 0
193 800 900 0
194 500 900 0
195 300 900 0
196 700 1100 0
197 400 1100 0
198 200 900 0
199 900 1000 0
200 100 1100 0
201 700 900 0
202 100 900 0
203 900 900 0
204 900 1100 0
205 500 1100 0
206 300 1000 0
207 300 1100 0
208 200 1000 0
209 800 1000 0
210 600 900 0
211 800 1100 0
212 400 900 0
213 100 1000 0
214 600 1100 0
215 400 1000 0
216 700 1000 0
217 500 1000 0
218 600 1000 0
228 0 1400 0
229 0 1300 0
239 1000 1300 0
240 1000 1400 0
241 798.48852233979 1298.79784495776 0
242 199.987892352015 1400.05805036769 0
243 399.71481445512 1300.46119364436 0
244 598.22197480371 1399.44355440648 0
245 798.464467685952 1398.79489693606 0
246 299.922853767738 1400.2086796899 0
247 99.9974390790502 1300.01291953989 0
248 399.695567109105 1400.35892667066 0
249 299.917431179901 1300.17609656979 0
250 99.9972138675514 1400.01395817721 0
251 899.458319824705 1299.54989849787 0
252 899.461688345392 1399.55741971458 0
253 698.233349189161 1298.91279352608 0
254 598.666127254046 1299.67023568937 0
255 199.979769918519 1300.0589099458 0
256 698.388244134572 1398.99250187196 0
257 499.320792089214 1300.25039853709 0
258 499.305702269172 1400.10115601612 0
259 100 800 0
260 200 800 0
261 300 800 0
262 400 800 0
263 500 800 0
264 600 800 0
265 700 800 0
266 800 800 0
267 900 800 0
268 900 1500 0
269 800 1500 0
270 700 1500 0
271 600 1500 0
272 500 1500 0
273 400 1500 0
274 300 1500 0
275 200 1500 0
276 100 1500 0
277 900 1200 0
278 800 1200 0
279 700 1200 0
280 600 1200 0
281 500 1200 0
282 400 1200 0
283 300 1200 0
284 200 1200 0
285 100 1200 0
$EndNodes
$Elements
200
1 3 2 1 1 83 26 27 97
2 3 2 1 1 95 76 107 119
4 3 2 1 1 96 110 98 74
5 3 2 1 1 118 108 121 125
6 3 2 1 1 106 84 98 110
9 3 2 1 1 25 79 40 4
10 3 2 1 1 79 25 26 83
11 3 2 1 1 69 97 27 28
12 3 2 1 1 75 81 86 77
13 3 2 1 1 29 84 69 28
14 3 2 1 1 74 98 30 31
15 3 2 1 1 30 98 84 29
16 3 2 1 1 125 119 107 118
17 3 2 1 1 33 91 82 32
18 3 2 1 1 94 109 86 81
19 3 2 1 1 35 36 68 92
20 3 2 1 1 80 88 37 38
21 3 2 1 1 109 100 126 113
22 3 2 1 1 37 88 68 36
23 3 2 1 1 119 125 126 100
24 3 2 1 1 124 126 125 121
25 3 2 1 1 84 106 87 69
26 3 2 1 1 13 95 70 12
27 3 2 1 1 76 95 13 14
28 3 2 1 1 11 94 81 10
29 3 2 1 1 92 68 99 108
30 3 2 1 1 70 94 11 12
31 3 2 1 1 76 82 91 107
32 3 2 1 1 32 82 15 2
33 3 2 1 1 15 82 76 14
34 3 2 1 1 100 109 94 70
35 3 2 1 1 108 118 73 92
36 3 2 1 1 103 120 90 78
38 3 2 1 1 10 81 75 9
39 3 2 1 1 73 118 107 91
40 3 2 1 1 95 119 100 70
41 3 2 1 1 103 127 128 120
42 3 2 1 1 35 92 73 34
43 3 2 1 1 99 112 121 108
45 3 2 1 1 112 129 124 121
47 3 2 1 1 73 91 33 34
48 3 2 1 1 93 102 80 72
49 3 2 1 1 80 102 115 88
50 3 2 1 1 39 72 80 38
51 3 2 1 1 40 79 72 39
52 3 2 1 1 79 83 93 72
53 3 2 1 1 114 87 106 116
54 3 2 1 1 97 69 87 105
55 3 2 1 1 87 114 117 105
56 3 2 1 1 99 68 88 115
57 3 2 1 1 71 101 110 96
58 3 2 1 1 83 97 105 93
60 3 2 1 1 120 128 116 101
64 3 2 1 1 114 122 123 117
65 3 2 1 1 85 111 127 103
66 3 2 1 1 113 126 124 111
67 3 2 1 1 116 106 110 101
68 3 2 1 1 85 103 78 67
69 3 2 1 1 129 127 111 124
70 3 2 1 1 129 112 123 122
71 3 2 1 1 90 120 101 71
72 3 2 1 1 67 89 104 85
73 3 2 1 1 122 128 127 129
74 3 2 1 1 111 85 104 113
75 3 2 1 1 128 122 114 116
76 3 2 1 1 89 77 86 104
77 3 2 1 1 105 117 102 93
78 3 2 1 1 86 109 113 104
79 3 2 1 1 115 102 117 123
80 3 2 1 1 123 112 99 115
81 3 2 1 1 55 144 142 54
82 3 2 1 1 131 148 162 137
83 3 2 1 1 161 163 154 145
84 3 2 1 1 142 144 156 134
85 3 2 1 1 151 138 160 165
86 3 2 1 1 52 130 150 51
87 3 2 1 1 53 140 130 52
88 3 2 1 1 158 133 151 165
90 3 2 1 1 41 140 53 5
91 3 2 1 1 143 155 56 57
92 3 2 1 1 56 155 144 55
94 3 2 1 1 148 131 154 163
98 3 2 1 1 145 154 48 49
99 3 2 1 1 48 154 131 47
100 3 2 1 1 42 43 136 153
101 3 2 1 1 140 41 42 153
102 3 2 1 1 137 162 155 143
103 3 2 1 1 131 137 46 47
104 3 2 1 1 137 143 45 46
105 3 2 1 1 45 143 57 7
106 3 2 1 1 155 162 156 144
107 3 2 1 1 136 43 44 141
110 3 2 1 1 153 136 147 149
111 3 2 1 1 147 158 159 149
112 3 2 1 1 139 147 136 141
114 3 2 1 1 150 159 146 132
115 3 2 1 1 165 146 159 158
116 3 2 1 1 149 159 150 130
117 3 2 1 1 132 146 161 145
118 3 2 1 1 140 153 149 130
119 3 2 1 1 158 147 139 133
120 3 2 1 1 135 157 164 152
121 3 2 1 1 152 160 138 135
122 3 2 1 1 156 162 148 164
123 3 2 1 1 160 161 146 165
126 3 2 1 1 163 152 164 148
127 3 2 1 1 157 134 156 164
128 3 2 1 1 132 145 49 50
129 3 2 1 1 132 50 51 150
130 3 2 1 1 152 163 161 160
133 3 2 1 1 177 178 199 203
134 3 2 1 1 211 196 216 209
136 3 2 1 1 199 178 179 204
143 3 2 1 1 200 189 190 213
144 3 2 1 1 202 213 190 191
145 3 2 1 1 194 217 215 212
146 3 2 1 1 195 212 215 206
147 3 2 1 1 217 205 197 215
153 3 2 1 1 206 215 197 207
154 3 2 1 1 213 202 198 208
155 3 2 1 1 216 218 210 201
157 3 2 1 1 217 194 210 218
158 3 2 1 1 203 199 209 193
159 3 2 1 1 209 216 201 193
161 3 2 1 1 214 205 217 218
163 3 2 1 1 199 204 211 209
166 3 2 1 1 198 195 206 208
167 3 2 1 1 207 192 208 206
168 3 2 1 1 200 213 208 192
170 3 2 1 1 196 214 218 216
172 3 2 1 1 228 229 247 250
177 3 2 1 1 249 243 248 246
182 3 2 1 1 246 242 255 249
183 3 2 1 1 250 247 255 242
185 3 2 1 1 251 239 240 252
189 3 2 1 1 251 252 245 241
193 3 2 1 1 257 258 248 243
196 3 2 1 1 244 258 257 254
198 3 2 1 1 253 241 245 256
200 3 2 1 1 256 244 254 253
3 3 2 1 1 9 75 259 1
7 3 2 1 1 267 74 31 3
8 3 2 1 1 96 74 267 266
37 3 2 1 1 260 259 75 77
44 3 2 1 1 260 77 89 261
46 3 2 1 1 261 89 67 262
59 3 2 1 1 78 90 264 263
61 3 2 1 1 266 265 71 96
62 3 2 1 1 71 265 264 90
63 3 2 1 1 263 262 67 78
89 3 2 1 1 54 142 268 8
93 3 2 1 1 268 142 134 269
95 3 2 1 1 269 134 157 270
96 3 2 1 1 270 157 135 271
97 3 2 1 1 274 273 151 133
108 3 2 1 1 276 141 44 6
109 3 2 1 1 139 141 276 275
113 3 2 1 1 275 274 133 139
124 3 2 1 1 272 138 151 273
125 3 2 1 1 272 271 135 138
131 3 2 1 1 205 214 280 281
132 3 2 1 1 177 203 267 3
135 3 2 1 1 277 204 179 166
137 3 2 1 1 196 211 278 279
138 3 2 1 1 278 211 204 277
139 3 2 1 1 279 280 214 196
140 3 2 1 1 259 260 198 202
141 3 2 1 1 284 285 200 192
142 3 2 1 1 189 200 285 167
148 3 2 1 1 259 202 191 1
149 3 2 1 1 263 194 212 262
150 3 2 1 1 192 207 283 284
151 3 2 1 1 212 195 261 262
152 3 2 1 1 261 195 198 260
156 3 2 1 1 201 210 264 265
160 3 2 1 1 210 194 263 264
162 3 2 1 1 197 205 281 282
164 3 2 1 1 266 267 203 193
165 3 2 1 1 282 283 207 197
169 3 2 1 1 265 266 193 201
171 3 2 1 1 285 247 229 167
173 3 2 1 1 277 251 241 278
174 3 2 1 1 239 251 277 166
175 3 2 1 1 276 250 242 275
176 3 2 1 1 228 250 276 6
178 3 2 1 1 274 275 242 246
179 3 2 1 1 283 282 243 249
180 3 2 1 1 246 248 273 274
181 3 2 1 1 247 285 284 255
184 3 2 1 1 284 283 249 255
186 3 2 1 1 279 278 241 253
187 3 2 1 1 268 252 240 8
188 3 2 1 1 280 279 253 254
190 3 2 1 1 248 258 272 273
191 3 2 1 1 268 269 245 252
192 3 2 1 1 281 257 243 282
194 3 2 1 1 254 257 281 280
195 3 2 1 1 272 258 244 271
197 3 2 1 1 270 271 244 256
199 3 2 1 1 245 269 270 256
$EndElements
