$MeshFormat
2.2 0 8
$EndMeshFormat
$Nodes
199
1 -4518.6000005 19849.7359315 0
2 25481.4051467 19849.7359315 0
3 25481.4051467 8849.7359315 0
4 25481.4051467 -2450.2640686 0
5 19481.4051467 -2450.2640686 0
6 7481.4051467 -2450.2640686 0
7 1481.4051467 -2450.2640686 0
8 -4518.6000005 -2450.2640686 0
9 1481.4051467 8849.7359315 0
10 19481.4051467 8849.7359315 0
11 -2518.59965735334 19849.7359315 0
12 -518.599314206673 19849.7359315 0
13 1481.40102893999 19849.7359315 0
14 3481.40137208665 19849.7359315 0
15 5481.40171523331 19849.7359315 0
16 7481.40205837997 19849.7359315 0
17 9481.40240152663 19849.7359315 0
18 11481.4027446733 19849.7359315 0
19 13481.40308782 19849.7359315 0
20 15481.4034309666 19849.7359315 0
21 17481.4037741133 19849.7359315 0
22 19481.40411726 19849.7359315 0
23 21481.4044604067 19849.7359315 0
24 23481.4048035533 19849.7359315 0
25 25481.4051467 18016.4025981667 0
26 25481.4051467 16183.0692648333 0
27 25481.4051467 14349.7359315 0
28 25481.4051467 12516.4025981667 0
29 25481.4051467 10683.0692648333 0
30 25481.4051467 6966.40259815 0
31 25481.4051467 5083.06926480001 0
32 25481.4051467 3199.73593145001 0
33 25481.4051467 1316.40259810001 0
34 25481.4051467 -566.930735249996 0
35 23481.4051467 -2450.2640686 0
36 21481.4051467 -2450.2640686 0
37 17481.4051467 -2450.2640686 0
38 15481.4051467 -2450.2640686 0
39 13481.4051467 -2450.2640686 0
40 11481.4051467 -2450.2640686 0
41 9481.4051467 -2450.2640686 0
42 5481.4051467 -2450.2640686 0
43 3481.4051467 -2450.2640686 0
44 -518.596569033333 -2450.2640686 0
45 -2518.59828476667 -2450.2640686 0
46 -4518.6000005 -422.991341318184 0
47 -4518.6000005 1604.28138596363 0
48 -4518.6000005 3631.55411324545 0
49 -4518.6000005 5658.82684052727 0
50 -4518.6000005 7686.09956780909 0
51 -4518.6000005 9713.37229509091 0
52 -4518.6000005 11740.6450223727 0
53 -4518.6000005 13767.9177496545 0
54 -4518.6000005 15795.1904769364 0
55 -4518.6000005 17822.4632042182 0
56 9478.86053007741 -449.324614840639 0
57 17536.6102343643 -466.632513802401 0
58 1479.75874391555 -452.574098722754 0
59 5514.67622861456 17869.0695223472 0
60 13481.2763507801 17876.1376975321 0
61 19468.1420209269 17907.070529928 0
62 23570.8973483139 3235.44032348299 0
63 23485.1925555622 16135.8633990464 0
64 23535.1875299484 12516.9828008758 0
65 23567.8507471691 8851.57413063278 0
66 -2509.80244601801 13758.1407098892 0
67 1489.4737423169 17839.246252306 0
68 -2505.61831142179 3594.47369526778 0
69 -2504.97970392773 7605.51196815482 0
70 -2512.40622994128 -428.427767725687 0
71 -2510.57899417984 15799.2283896869 0
72 21565.5188892646 -511.401407196715 0
73 23567.1582330502 1357.09492828839 0
74 -511.1976657988 17832.8235897618 0
75 -2509.4936332565 9633.41350248746 0
76 11516.5593955423 17905.96011116 0
77 9541.92991892107 17921.1588610537 0
78 17448.8390163968 17878.8830226121 0
79 5469.57156778808 -451.822502033711 0
80 11482.8482062862 -450.797307981733 0
81 13491.2572160286 -452.898896275859 0
82 -2514.2053543488 17826.9942624811 0
83 23553.0638798257 6971.28464976466 0
84 23529.345453479 -541.401280715242 0
85 23490.3877613299 17986.3483548063 0
86 9479.22432861213 1548.26448016846 0
87 9624.63203726087 15989.7970346593 0
88 19387.405351462 15980.6063521593 0
89 21605.0687880702 8855.39901467799 0
90 21447.8291128717 16056.4659523615 0
91 -508.087476923892 13720.4936728516 0
92 1500.03975805433 15796.5464344731 0
93 19560.3168070859 -487.752418067602 0
94 -2505.00275471363 5585.30073270925 0
95 -2509.33504163187 1584.49480685496 0
96 -2512.4085536832 11687.2934450323 0
97 15454.0768962833 17870.5709684031 0
98 7539.18480255257 17897.5832912684 0
99 7473.78226204111 -449.858660858651 0
100 3471.5321687846 -457.753410936604 0
101 15511.0722254652 -458.088865906944 0
102 11493.3781110798 1543.73535173524 0
103 3498.80373092261 17845.8874998521 0
104 23554.5210455912 5103.82680318015 0
105 -513.613724930201 -442.559579722243 0
106 -507.265945765549 15791.2398745742 0
107 23565.7403540451 10701.0625093904 0
108 -500.779891381664 7395.41984138413 0
109 23491.8675464782 14309.87706157 0
110 21475.6641921754 17950.9460871743 0
111 21630.9822672509 3291.6985086075 0
112 21610.1785133183 1403.13205535948 0
113 11574.8539326508 15963.802918423 0
114 9489.80031169877 3533.53257926968 0
115 9762.69648659372 14046.9525801688 0
116 15557.2362671743 1520.24866373763 0
117 1481.36751514365 1506.65361693748 0
118 1506.16000977984 13680.1261605584 0
119 21613.7513133009 5146.34248604083 0
120 -511.120189872349 11557.0023860529 0
121 7626.89142599759 15929.3599576961 0
122 21483.4942057581 14197.9661250756 0
123 21638.5428968356 10664.7700081962 0
124 -508.770774606123 9408.2352424783 0
125 -499.656243582209 5443.40787158979 0
126 17601.6445472548 1492.1833360888 0
127 19656.7527942159 3352.26338078581 0
128 3531.06331604181 15808.1594449427 0
129 15410.6130220029 15959.0393732381 0
130 17358.2551149376 15981.0520875784 0
131 13503.6283308966 15950.5032930126 0
132 13520.8310917659 1533.21801976806 0
133 5462.59363518669 1520.86608419927 0
134 7470.12299470921 1539.10165238035 0
135 -509.394667787657 1543.22894203917 0
136 19614.3133596306 1445.72165937252 0
137 21592.8406603967 6996.28690331129 0
138 7756.30488660085 13906.2064937863 0
139 13583.2378405051 3507.71257839726 0
140 15408.4527631108 14281.6474052047 0
141 3561.03250564757 13695.1718931018 0
142 17659.7157630062 3403.31530530026 0
143 19618.738135069 6999.47965569863 0
144 19687.3133100837 10584.1767026362 0
145 19189.7619538633 13911.0406508323 0
146 1505.9837019193 11437.3739255098 0
147 1489.32717824345 3421.58508465476 0
148 11531.5767331725 3529.57271981607 0
149 5583.44101311794 15850.8777652164 0
150 7475.11713534952 3508.89974110708 0
151 3469.94459512378 1495.53699296995 0
152 -505.144578619034 3501.54075293364 0
153 19665.3244779697 5186.9569956755 0
154 21593.1162862779 12406.7838946242 0
155 1502.02282515748 7217.42563573032 0
156 10016.951046875 12269.6593595952 0
157 13715.316970629 5505.91182764176 0
158 9476.78661048921 5497.44848230395 0
159 3539.99557541961 9288.71167856715 0
160 17848.106284683 6872.15086551692 0
161 5474.09116476727 3455.44827327172 0
162 13669.1498899223 14049.8504498983 0
163 17755.9888429605 10629.8435780029 0
164 3565.61432020171 11486.6624175524 0
165 5660.81296892198 13761.6154446849 0
166 15641.2652231284 3455.0036576739 0
167 3481.86877595607 3409.11810068872 0
168 17194.5026099019 14320.6560756187 0
169 17741.4122651942 5222.24196142991 0
170 1498.64215477683 5335.43879915391 0
171 19827.3114791474 12165.4940124824 0
172 8034.41497948925 11575.2448962642 0
173 5495.87585180944 5389.87471539704 0
174 5682.64117618268 11576.5964977397 0
175 14050.7697889024 11878.7461251222 0
176 16077.9847311691 7032.34394048261 0
177 11563.4986478588 5559.18014154662 0
178 3498.00504074545 5331.49527521001 0
179 3517.64045320541 7268.98855552057 0
180 17318.7173728941 8681.08715234968 0
181 7480.24634199438 5442.26115616688 0
182 15790.9888012677 5331.85257414809 0
183 11724.8916428476 14028.4548660217 0
184 18076.4269717406 12216.2343660882 0
185 9944.05011436782 10493.9806460423 0
186 7642.25575699224 9314.752054061 0
187 14069.3509932926 7749.80563492975 0
188 11377.0725460674 7897.96754838358 0
189 16290.570901188 12717.9224295024 0
190 9312.56005628882 7269.59748509987 0
191 7500.12402669025 7353.63190142253 0
192 5614.26623387254 9404.97836881582 0
193 15996.7849955433 10874.9654743987 0
194 15441.5376179626 9411.30510053971 0
195 11835.4726895172 12080.4272631139 0
196 5533.90910135734 7353.72478776353 0
197 13622.6383622322 9897.82306575488 0
198 11762.4592601736 10131.736994377 0
199 9446.41752399601 9006.45523299977 0
$EndNodes
$Elements
175
1 2 2 1 1 189 193 175 
2 2 2 1 1 187 197 194 
3 2 2 1 1 171 184 145 
4 2 2 1 1 190 199 188 
5 2 2 1 1 176 180 160 
6 2 2 1 1 156 185 172 
7 2 2 1 1 168 189 140 
8 3 2 1 1 38 101 57 37
9 3 2 1 1 43 7 58 100
10 3 2 1 1 81 101 38 39
11 3 2 1 1 5 37 57 93
12 3 2 1 1 72 36 5 93
13 3 2 1 1 6 99 56 41
14 3 2 1 1 6 42 79 99
15 3 2 1 1 81 132 116 101
16 3 2 1 1 79 42 43 100
17 3 2 1 1 80 81 39 40
18 3 2 1 1 79 133 134 99
19 3 2 1 1 81 80 102 132
20 3 2 1 1 56 99 134 86
21 3 2 1 1 40 41 56 80
22 3 2 1 1 56 86 102 80
23 3 2 1 1 67 74 12 13
24 3 2 1 1 18 19 60 76
25 3 2 1 1 148 139 132 102
26 3 2 1 1 102 86 114 148
27 3 2 1 1 59 15 16 98
28 3 2 1 1 103 67 13 14
29 3 2 1 1 60 19 20 97
30 3 2 1 1 103 14 15 59
31 3 2 1 1 97 20 21 78
32 3 2 1 1 60 131 113 76
33 3 2 1 1 97 78 130 129
34 3 2 1 1 129 131 60 97
35 3 2 1 1 177 148 114 158
36 3 2 1 1 150 181 158 114
37 3 2 1 1 114 86 134 150
38 3 2 1 1 75 51 52 96
39 3 2 1 1 69 50 51 75
40 3 2 1 1 68 48 49 94
41 3 2 1 1 70 46 47 95
42 3 2 1 1 57 101 116 126
43 3 2 1 1 66 53 54 71
44 3 2 1 1 96 52 53 66
45 3 2 1 1 94 49 50 69
46 3 2 1 1 95 47 48 68
47 3 2 1 1 1 11 82 55
48 3 2 1 1 71 54 55 82
49 3 2 1 1 11 12 74 82
50 3 2 1 1 67 103 128 92
51 3 2 1 1 117 58 105 135
52 3 2 1 1 82 74 106 71
53 3 2 1 1 46 70 45 8
54 3 2 1 1 3 65 107 29
55 3 2 1 1 69 108 125 94
56 3 2 1 1 64 28 29 107
57 3 2 1 1 116 132 139 166
58 3 2 1 1 106 92 118 91
59 3 2 1 1 7 44 105 58
60 3 2 1 1 70 105 44 45
61 3 2 1 1 106 74 67 92
62 3 2 1 1 135 105 70 95
63 3 2 1 1 91 66 71 106
64 3 2 1 1 66 91 120 96
65 3 2 1 1 159 179 155 9
66 3 2 1 1 118 92 128 141
67 3 2 1 1 30 83 65 3
68 3 2 1 1 35 36 72 84
69 3 2 1 1 84 34 4 35
70 3 2 1 1 98 16 17 77
71 3 2 1 1 2 25 85 24
72 3 2 1 1 21 22 61 78
73 3 2 1 1 100 58 117 151
74 3 2 1 1 181 173 196 191
75 3 2 1 1 157 139 148 177
76 3 2 1 1 75 124 108 69
77 3 2 1 1 146 164 159 9
78 3 2 1 1 162 183 113 131
79 3 2 1 1 124 75 96 120
80 3 2 1 1 77 17 18 76
81 3 2 1 1 158 181 191 190
82 3 2 1 1 88 130 78 61
83 3 2 1 1 73 62 32 33
84 3 2 1 1 147 167 151 117
85 3 2 1 1 133 79 100 151
86 3 2 1 1 94 125 152 68
87 3 2 1 1 83 30 31 104
88 3 2 1 1 135 95 68 152
89 3 2 1 1 118 141 164 146
90 3 2 1 1 31 32 62 104
91 3 2 1 1 155 179 178 170
92 3 2 1 1 73 33 34 84
93 3 2 1 1 90 88 61 110
94 3 2 1 1 167 147 170 178
95 3 2 1 1 61 22 23 110
96 3 2 1 1 103 59 149 128
97 3 2 1 1 150 161 173 181
98 3 2 1 1 25 26 63 85
99 3 2 1 1 188 177 158 190
100 3 2 1 1 129 140 162 131
101 3 2 1 1 182 169 142 166
102 3 2 1 1 111 119 104 62
103 3 2 1 1 133 161 150 134
104 3 2 1 1 24 85 110 23
105 3 2 1 1 166 139 157 182
106 3 2 1 1 93 57 126 136
107 3 2 1 1 153 127 142 169
108 3 2 1 1 153 143 137 119
109 3 2 1 1 85 63 90 110
110 3 2 1 1 89 65 83 137
111 3 2 1 1 121 149 59 98
112 3 2 1 1 91 118 146 120
113 3 2 1 1 184 163 193 189
114 3 2 1 1 121 98 77 87
115 3 2 1 1 126 116 166 142
116 3 2 1 1 142 127 136 126
117 3 2 1 1 191 196 192 186
118 3 2 1 1 141 165 174 164
119 3 2 1 1 165 138 172 174
120 3 2 1 1 112 73 84 72
121 3 2 1 1 136 127 111 112
122 3 2 1 1 167 161 133 151
123 3 2 1 1 145 168 130 88
124 3 2 1 1 112 111 62 73
125 3 2 1 1 104 119 137 83
126 3 2 1 1 136 112 72 93
127 3 2 1 1 27 28 64 109
128 3 2 1 1 147 117 135 152
129 3 2 1 1 119 111 127 153
130 3 2 1 1 123 154 64 107
131 3 2 1 1 198 195 175 197
132 3 2 1 1 107 65 89 123
133 3 2 1 1 153 169 160 143
134 3 2 1 1 196 179 159 192
135 3 2 1 1 157 177 188 187
136 3 2 1 1 141 128 149 165
137 3 2 1 1 179 196 173 178
138 3 2 1 1 165 149 121 138
139 3 2 1 1 182 176 160 169
140 3 2 1 1 195 183 162 175
141 3 2 1 1 63 26 27 109
142 3 2 1 1 10 143 160 180
143 3 2 1 1 187 176 182 157
144 3 2 1 1 195 198 185 156
145 3 2 1 1 164 174 192 159
146 3 2 1 1 161 167 178 173
147 3 2 1 1 125 108 155 170
148 3 2 1 1 170 147 152 125
149 3 2 1 1 168 140 129 130
150 3 2 1 1 185 199 186 172
151 3 2 1 1 144 123 89 10
152 3 2 1 1 193 194 197 175
153 3 2 1 1 184 171 144 163
154 3 2 1 1 89 137 143 10
155 3 2 1 1 115 87 113 183
156 3 2 1 1 90 63 109 122
157 3 2 1 1 199 190 191 186
158 3 2 1 1 171 145 122 154
159 3 2 1 1 186 192 174 172
160 3 2 1 1 138 115 156 172
161 3 2 1 1 188 198 197 187
162 3 2 1 1 9 155 108 124
163 3 2 1 1 123 144 171 154
164 3 2 1 1 122 145 88 90
165 3 2 1 1 76 113 87 77
166 3 2 1 1 146 9 124 120
167 3 2 1 1 199 185 198 188
168 3 2 1 1 193 163 180 194
169 3 2 1 1 115 138 121 87
170 3 2 1 1 184 189 168 145
171 3 2 1 1 109 64 154 122
172 3 2 1 1 176 187 194 180
173 3 2 1 1 183 195 156 115
174 3 2 1 1 163 144 10 180
175 3 2 1 1 175 162 140 189
$EndElements
