$MeshFormat
2.2 0 8
$EndMeshFormat
$Nodes
259
1 40 -40 0
2 40 40 0
3 -40 40 0
4 -40 -40 0
5 40 60 0
6 40 140 0
7 -40 140 0
8 -40 60 0
9 -100 -100 0
10 200 -100 0
11 -100 200 0
12 200 -90 0
13 200 200 0
14 200 -80 0
15 200 100 0
16 200 -40 0
17 200 80 0
18 200 -15 0
19 200 40 0
20 200 0 0
21 200 15 0
22 200 10 0
23 40 -20 0
24 40 0 0
25 40 20 0
26 20 40 0
27 0 40 0
28 -20 40 0
29 -40 20 0
30 -40 0 0
31 -40 -20 0
32 -20 -40 0
33 0 -40 0
34 20 -40 0
35 40 80 0
36 40 100 0
37 40 120 0
38 20 140 0
39 0 140 0
40 -20 140 0
41 -40 120 0
42 -40 100 0
43 -40 80 0
44 -20 60 0
45 0 60 0
46 20 60 0
47 -80 -100 0
48 -60 -100 0
49 -40 -100 0
50 -20 -100 0
51 0 -100 0
52 20 -100 0
53 40 -100 0
54 60 -100 0
55 80 -100 0
56 100 -100 0
57 120 -100 0
58 140 -100 0
59 160 -100 0
60 180 -100 0
61 -100 180 0
62 -100 160 0
63 -100 140 0
64 -100 120 0
65 -100 100 0
66 -100 80 0
67 -100 60 0
68 -100 40 0
69 -100 20 0
70 -100 0 0
71 -100 -20 0
72 -100 -40 0
73 -100 -60 0
74 -100 -80 0
75 180 200 0
76 160 200 0
77 140 200 0
78 120 200 0
79 100 200 0
80 80 200 0
81 60 200 0
82 40 200 0
83 20 200 0
84 0 200 0
85 -20 200 0
86 -40 200 0
87 -60 200 0
88 -80 200 0
89 200 120 0
90 200 140 0
91 200 160 0
92 200 180 0
93 200 -60 0
94 200 60 0
95 190.978446708009 2.6119857708814 0
96 59.4509651787284 39.9240787022872 0
97 59.918141599529 119.847281912232 0
98 180.669066750037 80.7315677555496 0
99 139.270512225245 -80.595495976288 0
100 59.4699824450103 -20.1737022675298 0
101 100.119377958661 -80.4376335441423 0
102 120.003066165275 180.001318563193 0
103 180.093320990892 120.089050907969 0
104 180.105166186704 -54.6133104856636 0
105 -79.9999996480825 -4.45475535570949E-07 0
106 -20.0000025844768 179.999972399091 0
107 19.984883804264 -60.0273648297375 0
108 59.9382973946562 -80.1839895286014 0
109 -59.9999999925282 39.9999999922155 0
110 -39.9999930461121 -60.0002584570225 0
111 -79.9999953491377 -40.0000071723782 0
112 39.9981304835157 159.989372767245 0
113 -60.0000000012789 119.999999984697 0
114 -80.0000000030924 159.99999996301 0
115 -60.0000000211036 179.999999747567 0
116 -59.9999999989354 59.9999999988964 0
117 -0.00302097799216483 -80.0065122401926 0
118 -80.0000000001522 99.9999999981405 0
119 179.344026472213 27.9351040666124 0
120 179.20419746222 -36.6494925798368 0
121 180.425742000916 43.9354663638962 0
122 178.041234026901 -76.6297649208292 0
123 -79.9999937798304 -80.0000111293873 0
124 160.003075640205 180.003454797047 0
125 -20.0000035389379 159.999962620635 0
126 -59.9999995797073 -5.46595408934536E-07 0
127 19.9997198771782 159.998138665094 0
128 -3.16372569102441E-05 179.999736108129 0
129 19.9998085680789 179.998592776713 0
130 -59.9999926878477 -40.000027726959 0
131 59.6612490558935 79.7618803605112 0
132 59.379394051616 19.9951516903526 0
133 -20.0005255088062 -60.0014918040603 0
134 -59.9999999998641 79.9999999997335 0
135 -40.0000467947371 -80.0003341577206 0
136 39.9618329174762 -80.0806779307484 0
137 -80.0000000042697 179.999999948928 0
138 -80.0000000029909 139.999999964223 0
139 -79.9999999999206 79.9999999996504 0
140 -79.9999999992 59.9999999991336 0
141 -79.9999999919862 39.9999999916453 0
142 180.001687341224 180.001891337986 0
143 79.9999428586411 179.992731653375 0
144 39.9994899078915 179.995828758572 0
145 180.027553694149 140.028068658367 0
146 186.261264867709 -90.3615837838321 0
147 189.225099569494 -10.4793587280754 0
148 164.275917377801 28.9209537149112 0
149 78.6577061009383 39.5651669476809 0
150 59.6531794667872 -40.2801045509272 0
151 160.193714727327 120.126515857365 0
152 177.392602040253 -5.42304866126268 0
153 161.375213846661 -48.9992089012321 0
154 181.031498970918 61.7299256650124 0
155 153.301302027418 -80.063471816862 0
156 120.133587418153 -80.5902573274204 0
157 79.9765910953634 -80.2852116323281 0
158 59.3709733659899 -0.0233330419587361 0
159 59.8260003177948 -60.2855780941121 0
160 39.9277732134397 -60.1082541352693 0
161 19.9854761879963 -80.0271297286109 0
162 -40.0000005849662 179.999993726563 0
163 -5.64685564086176E-05 159.999588707895 0
164 -79.9999983233043 -20.0000034681843 0
165 -40.0000007099965 159.999992423864 0
166 -79.9999999150784 19.9999998948453 0
167 -59.9999999035607 19.9999998788902 0
168 -59.9999980335948 -20.0000050993935 0
169 -60.0000001349729 159.999998545308 0
170 59.5076856508767 59.8079051241016 0
171 59.9715985797637 139.929598056428 0
172 -60.0000000644191 139.999999306704 0
173 180.328465807479 100.299119074987 0
174 -0.00384049481134241 -60.0075273671674 0
175 59.8024313508462 99.7954532938236 0
176 -60.0000000001938 99.9999999973487 0
177 -59.9999959452837 -80.0000770198889 0
178 -20.0007550436 -80.0018282789 0
179 -80.0000000047415 119.999999948086 0
180 -79.9999932481105 -60.0000169704147 0
181 140.004085627006 180.004151418242 0
182 100.00123566507 179.995793472208 0
183 59.9991970527015 179.992197640157 0
184 180.008332247289 160.009048139684 0
185 -59.9999930603817 -60.0000813087091 0
186 187.677601219108 -21.7963519569277 0
187 162.864522692056 62.7562508601945 0
188 78.6114169665037 0.14940368047251 0
189 79.8702488718048 119.782426804809 0
190 120.813374170024 -60.7045115330288 0
191 79.4503341553053 -40.2530374311957 0
192 160.70598187037 100.392701179995 0
193 120.007702479666 160.00099820571 0
194 160.061383725797 140.047327075651 0
195 140.53949883775 -61.7215247894555 0
196 78.5404694236321 19.9013358708338 0
197 79.8416598744096 -60.3457789250445 0
198 79.3090992715797 79.376260683659 0
199 78.9018922996033 59.279152640145 0
200 160.95081472615 -60.4186293999701 0
201 59.9925422606089 159.973011076633 0
202 140.016536012313 160.014702236456 0
203 160.018851214372 160.017059039633 0
204 79.9910423832733 159.965400093177 0
205 180.645677723014 10.9049839654491 0
206 177.362281896 -20.4560904338479 0
207 97.2188216457916 19.3487092001324 0
208 98.1664035188281 57.570379180727 0
209 140.931240613938 99.7589017472036 0
210 120.028540738094 139.973343707276 0
211 163.309607137885 -2.47151527931334 0
212 163.695362127002 45.4697016189142 0
213 122.813358386304 -37.6970009332457 0
214 193.94441809011 9.53632043853401 0
215 78.953992404819 -19.9363855363438 0
216 99.7316055435014 -39.5492506864244 0
217 143.155754573555 -44.6769925650576 0
218 79.673822910808 99.5672792991896 0
219 140.276800387651 119.972380399274 0
220 140.079429870892 140.011751516729 0
221 161.756814271659 81.1169757480168 0
222 100.267164140034 -60.1656506327906 0
223 79.9592348940792 139.900608107136 0
224 99.9974292143706 159.973853351396 0
225 164.116129639642 12.9723210301077 0
226 162.025247418681 -33.1482233963293 0
227 148.238675669307 14.7549494824719 0
228 147.536163582867 46.5630748127069 0
229 116.478339880031 -17.2486248462388 0
230 99.9436797490241 99.0719263820251 0
231 143.118587622416 80.1167050502824 0
232 145.722996072891 -29.8135568730694 0
233 97.3694984237923 0.377634922951451 0
234 97.3297166270901 38.0549043849653 0
235 98.3979070353511 -19.1485455091766 0
236 120.662763443776 98.8610012126855 0
237 162.426569605298 -17.7465895837664 0
238 120.197255173177 119.713563003457 0
239 100.005622032845 119.648674185954 0
240 99.9992573574247 139.884628959665 0
241 99.4600333705359 77.8796504118336 0
242 191.565539941311 17.1631589592314 0
243 115.184448746773 0.544299009090025 0
244 116.269420797162 53.6203408013938 0
245 114.97865134342 17.9945042790355 0
246 147.124344907626 -15.5890539914503 0
247 148.050801584457 30.6237699445182 0
248 122.69082884936 74.2273090443669 0
249 146.043634960506 62.6264307292248 0
250 147.692373622375 -0.69635674950672 0
251 134.03861913932 -26.9696346263859 0
252 189.303273079508 26.750670208556 0
253 131.749928103726 0.243855487071741 0
254 115.051533602736 35.5406676259135 0
255 131.763589376309 32.8545982702494 0
256 132.293650118369 49.2012778975331 0
257 132.377779582627 -15.4907732134165 0
258 134.165551501054 61.3971641474723 0
259 131.759714384628 16.4671698702077 0
$EndNodes
$Elements
213
1 3 2 1 1 122 14 93 104
2 3 2 1 1 95 147 18 20
3 3 2 1 1 119 252 19 121
4 3 2 1 1 195 190 156 99
5 3 2 1 1 244 248 241 208
6 3 2 1 1 206 120 16 186
7 3 2 1 1 213 216 222 190
8 3 2 1 1 213 229 235 216
9 3 2 1 1 232 251 213 217
10 3 2 1 1 120 206 237 226
11 3 2 1 1 256 228 249 258
12 3 2 1 1 95 214 242 205
13 3 2 1 1 121 154 187 212
14 3 2 1 1 259 245 243 253
15 3 2 1 1 227 247 255 259
16 3 2 1 1 248 231 209 236
17 3 2 1 1 208 199 149 234
18 3 2 1 1 190 195 217 213
19 3 2 1 1 148 212 228 247
20 3 2 1 1 20 22 214 95
21 3 2 1 1 230 236 238 239
22 3 2 1 1 208 234 254 244
23 3 2 1 1 121 19 94 154
24 3 2 1 1 153 200 122 104
25 3 2 1 1 244 254 255 256
26 3 2 1 1 196 132 158 188
27 3 2 1 1 155 99 58 59
28 3 2 1 1 99 155 200 195
29 3 2 1 1 154 98 221 187
30 3 2 1 1 159 108 157 197
31 3 2 1 1 259 255 254 245
32 3 2 1 1 188 233 207 196
33 3 2 1 1 231 249 187 221
34 3 2 1 1 59 122 200 155
35 3 2 1 1 196 207 234 149
36 3 2 1 1 197 191 150 159
37 3 2 1 1 191 197 222 216
38 3 2 1 1 221 192 209 231
39 3 2 1 1 250 253 257 246
40 3 2 1 1 216 235 215 191
41 3 2 1 1 99 156 57 58
42 3 2 1 1 149 96 132 196
43 3 2 1 1 248 244 256 258
44 3 2 1 1 215 188 158 100
45 3 2 1 1 192 221 98 173
46 3 2 1 1 245 254 234 207
47 3 2 1 1 191 215 100 150
48 3 2 1 1 149 199 170 96
49 3 2 1 1 153 217 195 200
50 3 2 1 1 192 151 219 209
51 3 2 1 1 120 104 93 16
52 3 2 1 1 230 218 198 241
53 3 2 1 1 245 207 233 243
54 3 2 1 1 199 198 131 170
55 3 2 1 1 101 222 197 157
56 3 2 1 1 249 228 212 187
57 3 2 1 1 238 210 240 239
58 3 2 1 1 218 230 239 189
59 3 2 1 1 156 101 56 57
60 3 2 1 1 219 220 210 238
61 3 2 1 1 150 1 160 159
62 3 2 1 1 146 122 59 60
63 3 2 1 1 248 258 249 231
64 3 2 1 1 198 218 175 131
65 3 2 1 1 101 157 55 56
66 3 2 1 1 238 236 209 219
67 3 2 1 1 160 136 108 159
68 3 2 1 1 100 23 1 150
69 3 2 1 1 100 158 24 23
70 3 2 1 1 220 219 151 194
71 3 2 1 1 240 223 189 239
72 3 2 1 1 220 202 193 210
73 3 2 1 1 25 132 96 2
74 3 2 1 1 158 132 25 24
75 3 2 1 1 157 108 54 55
76 3 2 1 1 210 193 224 240
77 3 2 1 1 160 107 161 136
78 3 2 1 1 108 136 53 54
79 3 2 1 1 232 246 257 251
80 3 2 1 1 156 190 222 101
81 3 2 1 1 136 161 52 53
82 3 2 1 1 2 5 46 26
83 3 2 1 1 3 28 44 8
84 3 2 1 1 26 46 45 27
85 3 2 1 1 27 45 44 28
86 3 2 1 1 125 163 128 106
87 3 2 1 1 86 162 106 85
88 3 2 1 1 105 164 168 126
89 3 2 1 1 127 129 128 163
90 3 2 1 1 128 129 83 84
91 3 2 1 1 40 125 165 7
92 3 2 1 1 163 39 38 127
93 3 2 1 1 70 105 166 69
94 3 2 1 1 141 166 167 109
95 3 2 1 1 162 115 169 165
96 3 2 1 1 106 162 165 125
97 3 2 1 1 105 126 167 166
98 3 2 1 1 160 1 34 107
99 3 2 1 1 2 96 170 5
100 3 2 1 1 37 97 171 6
101 3 2 1 1 38 6 112 127
102 3 2 1 1 17 15 173 98
103 3 2 1 1 168 31 30 126
104 3 2 1 1 5 170 131 35
105 3 2 1 1 35 131 175 36
106 3 2 1 1 36 175 97 37
107 3 2 1 1 125 40 39 163
108 3 2 1 1 43 42 176 134
109 3 2 1 1 166 141 68 69
110 3 2 1 1 71 72 111 164
111 3 2 1 1 80 143 182 79
112 3 2 1 1 82 144 183 81
113 3 2 1 1 168 164 111 130
114 3 2 1 1 129 127 112 144
115 3 2 1 1 6 171 201 112
116 3 2 1 1 144 112 201 183
117 3 2 1 1 182 143 204 224
118 3 2 1 1 167 29 3 109
119 3 2 1 1 8 116 109 3
120 3 2 1 1 41 7 172 113
121 3 2 1 1 165 169 172 7
122 3 2 1 1 43 134 116 8
123 3 2 1 1 89 103 173 15
124 3 2 1 1 154 94 17 98
125 3 2 1 1 126 30 29 167
126 3 2 1 1 4 31 168 130
127 3 2 1 1 4 110 133 32
128 3 2 1 1 34 33 174 107
129 3 2 1 1 32 133 174 33
130 3 2 1 1 41 113 176 42
131 3 2 1 1 9 47 123 74
132 3 2 1 1 47 48 177 123
133 3 2 1 1 49 135 177 48
134 3 2 1 1 51 117 178 50
135 3 2 1 1 49 50 178 135
136 3 2 1 1 161 117 51 52
137 3 2 1 1 11 61 137 88
138 3 2 1 1 62 114 137 61
139 3 2 1 1 62 63 138 114
140 3 2 1 1 65 118 179 64
141 3 2 1 1 63 64 179 138
142 3 2 1 1 66 139 118 65
143 3 2 1 1 67 140 139 66
144 3 2 1 1 68 141 140 67
145 3 2 1 1 72 73 180 111
146 3 2 1 1 74 123 180 73
147 3 2 1 1 13 75 142 92
148 3 2 1 1 76 124 142 75
149 3 2 1 1 78 102 181 77
150 3 2 1 1 76 77 181 124
151 3 2 1 1 78 79 182 102
152 3 2 1 1 80 81 183 143
153 3 2 1 1 129 144 82 83
154 3 2 1 1 128 84 85 106
155 3 2 1 1 162 86 87 115
156 3 2 1 1 87 88 137 115
157 3 2 1 1 89 90 145 103
158 3 2 1 1 92 142 184 91
159 3 2 1 1 90 91 184 145
160 3 2 1 1 223 171 97 189
161 3 2 1 1 218 189 97 175
162 3 2 1 1 192 173 103 151
163 3 2 1 1 161 107 174 117
164 3 2 1 1 4 130 185 110
165 3 2 1 1 135 110 185 177
166 3 2 1 1 176 113 179 118
167 3 2 1 1 172 138 179 113
168 3 2 1 1 137 114 169 115
169 3 2 1 1 109 116 140 141
170 3 2 1 1 174 133 178 117
171 3 2 1 1 134 176 118 139
172 3 2 1 1 142 124 203 184
173 3 2 1 1 181 202 203 124
174 3 2 1 1 111 180 185 130
175 3 2 1 1 110 135 178 133
176 3 2 1 1 116 134 139 140
177 3 2 1 1 114 138 172 169
178 3 2 1 1 183 201 204 143
179 3 2 1 1 103 145 194 151
180 3 2 1 1 123 177 185 180
181 3 2 1 1 102 193 202 181
182 3 2 1 1 102 182 224 193
183 3 2 1 1 145 184 203 194
184 3 2 1 1 220 194 203 202
185 3 2 1 1 171 223 204 201
186 3 2 1 1 240 224 204 223
187 3 2 1 1 164 105 70 71
188 3 2 1 1 148 225 205 119
189 3 2 1 1 256 255 247 228
190 3 2 1 1 199 208 241 198
191 3 2 1 1 236 230 241 248
192 3 2 1 1 152 205 225 211
193 3 2 1 1 253 250 227 259
194 3 2 1 1 246 232 226 237
195 3 2 1 1 247 227 225 148
196 3 2 1 1 213 251 257 229
197 3 2 1 1 152 211 237 206
198 3 2 1 1 147 95 205 152
199 3 2 1 1 250 211 225 227
200 3 2 1 1 246 237 211 250
201 3 2 1 1 186 147 152 206
202 3 2 1 1 217 153 226 232
203 3 2 1 1 243 229 257 253
204 3 2 1 1 60 10 12 146
205 3 2 1 1 122 146 12 14
206 3 2 1 1 242 214 22 21
207 3 2 1 1 252 119 205 242
208 3 2 1 1 147 186 16 18
209 3 2 1 1 242 21 19 252
210 3 2 1 1 226 153 104 120
211 3 2 1 1 212 148 119 121
212 3 2 1 1 215 235 233 188
213 3 2 1 1 243 233 235 229
$EndElements
