$MeshFormat
2.2 0 8
$EndMeshFormat
$Nodes
121
1 0 0 0
2 0 1000 0
3 1000 1000 0
4 1000 0 0
5 0 100 0
6 0 200 0
7 0 300 0
8 0 400 0
9 0 500 0
10 0 600 0
11 0 700 0
12 0 800 0
13 0 900 0
14 100 1000 0
15 200 1000 0
16 300 1000 0
17 400 1000 0
18 500 1000 0
19 600 1000 0
20 700 1000 0
21 800 1000 0
22 900 1000 0
23 1000 900 0
24 1000 800 0
25 1000 700 0
26 1000 600 0
27 1000 500 0
28 1000 400 0
29 1000 300 0
30 1000 200 0
31 1000 100 0
32 900 0 0
33 800 0 0
34 700 0 0
35 600 0 0
36 500 0 0
37 400 0 0
38 300 0 0
39 200 0 0
40 100 0 0
41 99.9998399807561 400.000164132205 0
42 400.094841155978 899.909489020937 0
43 899.875277807674 600.139365070283 0
44 499.999402035867 100.003590793858 0
45 899.974097085532 400.032360742668 0
46 100.003138002744 699.997493864607 0
47 799.850878679923 900.153110828069 0
48 200.000000039581 99.9999999604187 0
49 699.999909217456 100.000556214154 0
50 100.004953625449 899.995065429129 0
51 899.99965644929 200.000486218052 0
52 599.621130881339 900.400766420681 0
53 100.000000014244 99.9999999857562 0
54 100.000000637555 199.999999362445 0
55 99.9986077473215 500.002005579572 0
56 899.963859917816 900.037165229711 0
57 300.064234849599 899.937280198202 0
58 299.999783378772 100.00125463819 0
59 899.914294157976 800.089932032116 0
60 899.999957056161 100.000060777257 0
61 199.966018124532 400.139576837035 0
62 399.690665153859 800.458269390841 0
63 799.50827765807 800.523897297979 0
64 699.581120679342 900.437783560221 0
65 899.905871532205 500.109879666686 0
66 799.99787918718 200.00852996616 0
67 399.999319590849 100.004004989488 0
68 799.99969671068 100.001173758325 0
69 99.9978574487847 300.008742750433 0
70 99.9989479901998 600.002425058706 0
71 499.811550100958 900.214552428007 0
72 199.997838990406 200.011799763741 0
73 100.007123578669 799.993000008689 0
74 200.020005684167 899.980380235657 0
75 899.993151133953 300.009501173493 0
76 599.999587089508 100.002520746956 0
77 899.830925026379 700.182943415685 0
78 799.192762933549 601.01262628692 0
79 499.960361741803 200.21290316169 0
80 199.953322547642 700.108903412912 0
81 699.990311191817 200.052714256558 0
82 199.922233889952 500.250383956469 0
83 799.11421686396 701.014192115754 0
84 199.984392362048 300.074604421212 0
85 698.711638699841 801.417793193401 0
86 299.872686197926 800.209816828605 0
87 498.918355533368 801.323775852791 0
88 799.830449858712 400.316793157715 0
89 299.987617448337 200.068859985836 0
90 199.978960882984 800.048930843237 0
91 799.953093596461 300.11437674385 0
92 299.758675624773 400.958813203524 0
93 497.513477093795 703.594980228826 0
94 299.568469298005 700.797859497589 0
95 697.885671245604 702.581077141283 0
96 299.905973948367 300.432761684237 0
97 399.960599269448 200.209287912164 0
98 599.967030476413 200.179413591913 0
99 598.384285249578 801.899487355168 0
100 199.879795384475 600.303802322048 0
101 799.465294306525 500.800724669912 0
102 699.879668349042 300.425509368067 0
103 299.50976609438 501.53202226943 0
104 697.964869518915 602.994577544909 0
105 398.671782733426 702.221148614449 0
106 399.774771175529 301.027836925798 0
107 599.751939557469 301.018688209623 0
108 597.233766888773 703.774356888863 0
109 299.367263559859 601.531628850416 0
110 699.474387702301 401.356716275286 0
111 599.090797547775 402.799606705769 0
112 499.656799714937 301.428203483698 0
113 399.294385409047 402.595104136174 0
114 497.209482180159 605.317075433476 0
115 597.385736120697 604.580370279416 0
116 698.787887049599 502.380156459845 0
117 398.713706956362 503.669198972287 0
118 398.454396585475 603.345927737001 0
119 598.195853182429 504.220285965453 0
120 498.98457236838 403.321096157233 0
121 498.200691711208 504.526182295378 0
$EndNodes
$Elements
100
1 3 2 1 1 114 115 119 121
2 3 2 1 1 83 78 104 95
3 3 2 1 1 84 72 54 69
4 3 2 1 1 121 119 111 120
5 3 2 1 1 83 77 43 78
6 3 2 1 1 96 92 113 106
7 3 2 1 1 104 115 108 95
8 3 2 1 1 67 97 79 44
9 3 2 1 1 7 69 54 6
10 3 2 1 1 36 37 67 44
11 3 2 1 1 63 85 64 47
12 3 2 1 1 108 99 85 95
13 3 2 1 1 114 93 108 115
14 3 2 1 1 115 104 116 119
15 3 2 1 1 107 112 120 111
16 3 2 1 1 52 19 20 64
17 3 2 1 1 27 28 45 65
18 3 2 1 1 55 82 61 41
19 3 2 1 1 54 72 48 53
20 3 2 1 1 42 71 87 62
21 3 2 1 1 50 74 90 73
22 3 2 1 1 88 91 102 110
23 3 2 1 1 16 17 42 57
24 3 2 1 1 19 52 71 18
25 3 2 1 1 21 22 56 47
26 3 2 1 1 30 31 60 51
27 3 2 1 1 38 58 67 37
28 3 2 1 1 39 40 53 48
29 3 2 1 1 90 80 46 73
30 3 2 1 1 59 63 47 56
31 3 2 1 1 58 48 72 89
32 3 2 1 1 70 100 82 55
33 3 2 1 1 96 84 61 92
34 3 2 1 1 84 96 89 72
35 3 2 1 1 61 82 103 92
36 3 2 1 1 100 109 103 82
37 3 2 1 1 94 105 118 109
38 3 2 1 1 54 53 5 6
39 3 2 1 1 1 5 53 40
40 3 2 1 1 8 41 69 7
41 3 2 1 1 55 41 8 9
42 3 2 1 1 11 46 70 10
43 3 2 1 1 9 10 70 55
44 3 2 1 1 25 77 59 24
45 3 2 1 1 65 43 26 27
46 3 2 1 1 29 75 45 28
47 3 2 1 1 29 30 51 75
48 3 2 1 1 4 32 60 31
49 3 2 1 1 34 49 68 33
50 3 2 1 1 32 33 68 60
51 3 2 1 1 36 44 76 35
52 3 2 1 1 76 44 79 98
53 3 2 1 1 87 71 52 99
54 3 2 1 1 64 85 99 52
55 3 2 1 1 63 59 77 83
56 3 2 1 1 51 60 68 66
57 3 2 1 1 94 86 62 105
58 3 2 1 1 85 63 83 95
59 3 2 1 1 43 65 101 78
60 3 2 1 1 45 88 101 65
61 3 2 1 1 49 81 66 68
62 3 2 1 1 81 102 91 66
63 3 2 1 1 58 89 97 67
64 3 2 1 1 46 80 100 70
65 3 2 1 1 107 98 79 112
66 3 2 1 1 97 106 112 79
67 3 2 1 1 62 87 93 105
68 3 2 1 1 99 108 93 87
69 3 2 1 1 80 94 109 100
70 3 2 1 1 78 101 116 104
71 3 2 1 1 88 110 116 101
72 3 2 1 1 92 103 117 113
73 3 2 1 1 93 114 118 105
74 3 2 1 1 113 120 112 106
75 3 2 1 1 102 107 111 110
76 3 2 1 1 119 116 110 111
77 3 2 1 1 121 120 113 117
78 3 2 1 1 2 14 50 13
79 3 2 1 1 12 13 50 73
80 3 2 1 1 14 15 74 50
81 3 2 1 1 16 57 74 15
82 3 2 1 1 17 18 71 42
83 3 2 1 1 20 21 47 64
84 3 2 1 1 3 23 56 22
85 3 2 1 1 59 56 23 24
86 3 2 1 1 26 43 77 25
87 3 2 1 1 34 35 76 49
88 3 2 1 1 58 38 39 48
89 3 2 1 1 61 84 69 41
90 3 2 1 1 91 88 45 75
91 3 2 1 1 81 49 76 98
92 3 2 1 1 42 62 86 57
93 3 2 1 1 57 86 90 74
94 3 2 1 1 98 107 102 81
95 3 2 1 1 80 90 86 94
96 3 2 1 1 106 97 89 96
97 3 2 1 1 118 117 103 109
98 3 2 1 1 73 46 11 12
99 3 2 1 1 91 75 51 66
100 3 2 1 1 117 118 114 121
$EndElements
