$MeshFormat
2.2 0 8
$EndMeshFormat
$Nodes
66
1 0 800 0
2 0 0 0
3 1000 800 0
4 1000 0 0
5 0 2000 0
6 0 1400 0
7 1000 2000 0
8 1000 1400 0
9 0 600 0
10 0 400 0
11 0 200 0
16 1000 200 0
17 1000 400 0
18 1000 600 0
19 200 0 0
20 400 0 0
21 600 0 0
22 800 0 0
23 0 1800 0
24 0 1600 0
25 800 2000 0
26 600 2000 0
27 400 2000 0
28 200 2000 0
29 1000 1600 0
30 1000 1800 0
35 600 200 0
36 400 600 0
37 800 600 0
38 200 200 0
39 800 200 0
40 200 600 0
41 800 400 0
42 400 200 0
43 200 400 0
44 600 600 0
45 600 400 0
46 400 400 0
47 397.135061589543 1799.64702395095 0
48 796.33067129156 1599.65617112597 0
49 596.503984333304 1799.57683139212 0
50 397.046277006702 1599.66005662832 0
51 198.968650867024 1799.8792580082 0
52 198.963651314347 1599.88071364019 0
53 797.718612775944 1799.74971870044 0
54 596.823275371319 1599.63480748363 0
55 1000 1000 0
56 1000 1200 0
57 0 1200 0
58 0 1000 0
83 200 800 0
84 400 800 0
85 600 800 0
86 800 800 0
87 800 1400 0
88 600 1400 0
89 400 1400 0
90 200 1400 0
91 200 1000 0
92 400 1000 0
93 600 1000 0
94 800 1000 0
95 800 1200 0
96 600 1200 0
97 400 1200 0
98 200 1200 0
$EndNodes
$Elements
50
1 3 2 1 1 4 16 39 22
2 3 2 1 1 46 43 38 42
3 3 2 1 1 38 19 20 42
5 3 2 1 1 19 38 11 2
7 3 2 1 1 38 43 10 11
9 3 2 1 1 10 43 40 9
10 3 2 1 1 35 42 20 21
11 3 2 1 1 41 45 35 39
12 3 2 1 1 35 21 22 39
13 3 2 1 1 40 43 46 36
14 3 2 1 1 39 16 17 41
15 3 2 1 1 17 18 37 41
16 3 2 1 1 45 46 42 35
19 3 2 1 1 36 46 45 44
20 3 2 1 1 41 37 44 45
21 3 2 1 1 24 52 51 23
22 3 2 1 1 25 53 30 7
24 3 2 1 1 5 23 51 28
25 3 2 1 1 47 27 28 51
26 3 2 1 1 49 53 25 26
27 3 2 1 1 47 49 26 27
28 3 2 1 1 51 52 50 47
31 3 2 1 1 47 50 54 49
34 3 2 1 1 29 30 53 48
35 3 2 1 1 48 53 49 54
4 3 2 1 1 85 44 37 86
6 3 2 1 1 37 18 3 86
8 3 2 1 1 9 40 83 1
17 3 2 1 1 36 44 85 84
18 3 2 1 1 84 83 40 36
23 3 2 1 1 52 24 6 90
29 3 2 1 1 90 89 50 52
30 3 2 1 1 54 50 89 88
32 3 2 1 1 48 54 88 87
33 3 2 1 1 87 8 29 48
36 3 2 1 1 56 95 94 55
37 3 2 1 1 57 58 91 98
38 3 2 1 1 91 92 97 98
39 3 2 1 1 96 97 92 93
40 3 2 1 1 95 96 93 94
41 3 2 1 1 56 8 87 95
42 3 2 1 1 57 98 90 6
43 3 2 1 1 87 88 96 95
44 3 2 1 1 97 96 88 89
45 3 2 1 1 98 97 89 90
46 3 2 1 1 1 83 91 58
47 3 2 1 1 55 94 86 3
48 3 2 1 1 94 93 85 86
49 3 2 1 1 84 85 93 92
50 3 2 1 1 83 84 92 91
$EndElements
