$MeshFormat
2.2 0 8
$EndMeshFormat
$Nodes
452
1 0 0 0
2 0 1000 0
3 1000 1000 0
4 1000 0 0
5 500 500 0
6 0 50 0
7 0 100 0
8 0 150 0
9 0 200 0
10 0 250 0
11 0 300 0
12 0 350 0
13 0 400 0
14 0 450 0
15 0 500 0
16 0 550 0
17 0 600 0
18 0 650 0
19 0 700 0
20 0 750 0
21 0 800 0
22 0 850 0
23 0 900 0
24 0 950 0
25 50 1000 0
26 100 1000 0
27 150 1000 0
28 200 1000 0
29 250 1000 0
30 300 1000 0
31 350 1000 0
32 400 1000 0
33 450 1000 0
34 500 1000 0
35 550 1000 0
36 600 1000 0
37 650 1000 0
38 700 1000 0
39 750 1000 0
40 800 1000 0
41 850 1000 0
42 900 1000 0
43 950 1000 0
44 1000 950 0
45 1000 900 0
46 1000 850 0
47 1000 800 0
48 1000 750 0
49 1000 700 0
50 1000 650 0
51 1000 600 0
52 1000 550 0
53 1000 500 0
54 1000 450 0
55 1000 400 0
56 1000 350 0
57 1000 300 0
58 1000 250 0
59 1000 200 0
60 1000 150 0
61 1000 100 0
62 1000 49.9999999999999 0
63 950 0 0
64 900 0 0
65 850 0 0
66 800 0 0
67 750 0 0
68 700 0 0
69 650 0 0
70 600 0 0
71 550 0 0
72 500 0 0
73 450 0 0
74 400 0 0
75 350 0 0
76 300 0 0
77 250 0 0
78 200 0 0
79 150 0 0
80 100 0 0
81 49.9999999999999 0 0
82 35.7142857142857 35.7142857142857 0
83 71.4285714285714 71.4285714285714 0
84 107.142857142857 107.142857142857 0
85 142.857142857143 142.857142857143 0
86 178.571428571428 178.571428571428 0
87 214.285714285714 214.285714285714 0
88 250 250 0
89 285.714285714285 285.714285714285 0
90 321.428571428571 321.428571428571 0
91 357.142857142857 357.142857142857 0
92 392.857142857143 392.857142857143 0
93 428.571428571428 428.571428571428 0
94 464.285714285714 464.285714285714 0
95 535.714285714286 535.714285714286 0
96 571.428571428571 571.428571428571 0
97 607.142857142857 607.142857142857 0
98 642.857142857143 642.857142857143 0
99 678.571428571428 678.571428571428 0
100 714.285714285714 714.285714285714 0
101 750 750 0
102 785.714285714285 785.714285714285 0
103 821.428571428571 821.428571428571 0
104 857.142857142857 857.142857142857 0
105 892.857142857143 892.857142857143 0
106 928.571428571428 928.571428571428 0
107 964.285714285714 964.285714285714 0
108 964.285714285714 35.7142857142857 0
109 928.571428571429 71.4285714285714 0
110 892.857142857143 107.142857142857 0
111 857.142857142857 142.857142857143 0
112 821.428571428572 178.571428571428 0
113 785.714285714286 214.285714285714 0
114 750 250 0
115 714.285714285715 285.714285714285 0
116 678.571428571429 321.428571428571 0
117 642.857142857143 357.142857142857 0
118 607.142857142857 392.857142857143 0
119 571.428571428572 428.571428571428 0
120 535.714285714286 464.285714285714 0
121 464.285714285714 535.714285714286 0
122 428.571428571429 571.428571428571 0
123 392.857142857143 607.142857142857 0
124 357.142857142857 642.857142857143 0
125 321.428571428572 678.571428571428 0
126 285.714285714286 714.285714285714 0
127 250 750 0
128 214.285714285715 785.714285714285 0
129 178.571428571429 821.428571428571 0
130 142.857142857143 857.142857142857 0
131 107.142857142857 892.857142857143 0
132 71.4285714285716 928.571428571428 0
133 35.7142857142858 964.285714285714 0
134 549.109103940471 950.787016679445 0
135 950.086362172052 537.041737708661 0
136 50.2704552346969 500.203207981956 0
137 457.251633815763 43.51322851747 0
138 50.4223028893965 599.417853217239 0
139 401.822088855598 946.784378355027 0
140 949.278797214193 382.828877424511 0
141 51.980178833513 348.157611858612 0
142 598.212126253691 53.2344698671648 0
143 675.776803152499 950.463152930897 0
144 949.769888862664 691.58217054751 0
145 324.232678477941 49.54985425861 0
146 62.4695712618569 705.539737581334 0
147 301.713958533945 949.111721329399 0
148 948.963422854266 283.9568043169 0
149 698.286112032063 50.8883562507049 0
150 49.1209042448128 200.521061808035 0
151 32.2285184603742 816.701032205617 0
152 825.440286020042 949.336367476197 0
153 182.167440491809 966.398447462863 0
154 959.833403671097 851.770626021224 0
155 968.080020710854 206.664305155127 0
156 174.658780163527 50.9136427164025 0
157 817.832559508191 33.6015525371372 0
158 506.503885772148 965.242527774388 0
159 950.057146337927 484.391019873326 0
160 949.855610920108 640.849081599335 0
161 494.586537544749 33.8444929003382 0
162 49.3092117218592 246.780441503033 0
163 50.6964921158929 399.58348774188 0
164 950.937751059998 779.980952973996 0
165 628.93191467539 952.229937676849 0
166 371.068952943989 47.7716252524562 0
167 225.587335400431 50.3501923445011 0
168 774.46782897221 949.739351826095 0
169 38.0595294785379 91.3048542655437 0
170 944.123979273452 186.018771625411 0
171 870.497487765213 43.8952367909596 0
172 42.6200859793825 868.846090386543 0
173 129.502512234788 956.10476320904 0
174 962.738090322045 89.582210457175 0
175 64.1206385205339 27.5153050400315 0
176 918.544081891753 45.0042659379242 0
177 935.918772193512 972.70899209911 0
178 45.1043148430124 918.295133669197 0
179 81.4559181082467 954.995734062076 0
180 24.4036362525156 58.5253277596751 0
181 900.366787192842 524.118373890619 0
182 575.712306527842 920.185774053483 0
183 424.882234738555 79.4429981561892 0
184 103.601136647129 347.769798008036 0
185 698.971604982728 900.145846626007 0
186 899.570006315772 679.83388790057 0
187 301.048413464255 99.9755568056309 0
188 83.2741900989876 203.26077148304 0
189 50.2142060348871 550.088939232586 0
190 50.3572786610234 450.051992476003 0
191 949.826825718637 433.347375663271 0
192 466.637742211525 939.941098048538 0
193 533.987575978412 59.8459569991631 0
194 586.421676670164 954.054755933885 0
195 414.461757602953 45.2043539446416 0
196 950.012640006736 589.208408889205 0
197 52.4545515663574 648.513947266058 0
198 947.865061992101 332.878436892448 0
199 350.45767485258 949.334748803299 0
200 649.547310858978 50.6683604321016 0
201 52.4313995564796 295.849287179288 0
202 45.481566184635 749.920540824533 0
203 957.235814833739 239.17856064799 0
204 254.297124305048 939.511893981984 0
205 745.702884551627 60.4881159188575 0
206 724.713626057123 950.096644403419 0
207 275.31022378386 49.9494054857455 0
208 949.937255205346 740.770202832383 0
209 59.9623729490569 144.572042918205 0
210 86.1023690520867 837.513952269008 0
211 205.309492865434 922.283996063758 0
212 903.299623686556 163.17368347437 0
213 794.690508246323 77.7160052003115 0
214 846.301819514892 897.191055288462 0
215 884.407314232828 837.35120639036 0
216 153.800235025426 103.059016516579 0
217 155.777604643263 909.894265877501 0
218 844.222395495804 90.105734281066 0
219 939.501119097938 898.613535164342 0
220 937.350000120312 126.460305871132 0
221 116.923300893634 52.2635452824273 0
222 883.268334342767 948.68291515704 0
223 101.217813238467 501.239295720315 0
224 900.091700975867 419.419191637746 0
225 395.47062023436 896.820436367104 0
226 604.664623028257 103.194094608685 0
227 99.4760423640626 598.879050393132 0
228 102.245983943648 680.472387410901 0
229 897.109055931681 313.270037957147 0
230 899.513232787092 629.190825848679 0
231 649.892442266781 902.074388520016 0
232 350.132997868778 98.0821995369055 0
233 101.37253095458 400.204949322584 0
234 95.3426470932439 234.638771901118 0
235 66.1750142030637 786.211360131465 0
236 913.012306096365 222.161973328389 0
237 797.842177595261 899.089323304425 0
238 202.261167143652 101.138640762108 0
239 899.773481288028 800.245361021492 0
240 532.342287709009 904.613102136387 0
241 468.969133521686 95.2524747330809 0
242 899.550314791759 730.430853110639 0
243 301.337730571008 900.63832513563 0
244 698.663460436066 99.3626122117061 0
245 601.44726196624 902.60823146495 0
246 398.659451029831 97.5150871168781 0
247 899.854825958868 577.183950693826 0
248 748.545934414742 899.530480095991 0
249 251.505330770154 100.61079187631 0
250 115.415583781338 285.45955129483 0
251 735.636971807219 98.4793780149448 0
252 264.363234231548 901.520786933469 0
253 106.413822482834 176.841476372474 0
254 173.357252250547 873.086971432248 0
255 826.642747749453 126.913028567752 0
256 848.148340694962 566.942845315854 0
257 576.337496038833 867.728403311961 0
258 424.31728588542 133.277480137044 0
259 154.247170811488 352.752710123511 0
260 726.300282665387 849.070336960819 0
261 851.050721608329 714.713828723951 0
262 273.636096178736 151.083399165756 0
263 300.211031786909 855.06934483849 0
264 699.783000230448 144.921070481461 0
265 150.444354892581 300.300551009463 0
266 164.518948788488 775.884280952021 0
267 831.257122152354 237.974508941831 0
268 768.941620149818 146.14771775944 0
269 231.058378174866 853.852280875291 0
270 900.294063608204 471.42867660277 0
271 884.461415926749 271.585629154938 0
272 111.473257646067 747.872014962166 0
273 441.382978346231 880.46282874646 0
274 559.549491293529 119.672112958854 0
275 348.968027327233 901.192000293156 0
276 651.056175773179 98.8141099963188 0
277 100.74632058183 551.406759180793 0
278 100.389375239677 644.448149328061 0
279 100.717684571592 450.783241269009 0
280 676.910099260796 849.111582001149 0
281 322.833895879045 151.223792271999 0
282 900.17143468612 370.00000138996 0
283 850.061824770627 669.633872806201 0
284 137.527718746775 209.746892682014 0
285 849.448599955663 807.882956671633 0
286 814.731327889799 850.229616079724 0
287 185.345187274067 149.862507290354 0
288 126.843397735296 806.461866151059 0
289 867.425703638489 200.99710143437 0
290 151.469729579535 500.09578616515 0
291 383.980366298961 862.244883266565 0
292 616.214372139959 137.76336397484 0
293 850.54690565647 410.138051614866 0
294 136.580479227586 599.129049674473 0
295 152.187226160569 403.979013567587 0
296 207.097060947516 357.525816016778 0
297 816.020847712063 702.461569355845 0
298 710.168633686422 793.143383821867 0
299 289.813197901379 206.877158764408 0
300 489.887379549282 852.036986571698 0
301 513.024893238684 150.222628720862 0
302 133.599765809613 693.52078419953 0
303 167.98742308188 244.432512897751 0
304 849.982086147033 514.001666451726 0
305 626.067718202973 853.712741099181 0
306 373.914693485079 147.122988937003 0
307 845.208104445075 755.696566952617 0
308 773.263977029926 849.622388216637 0
309 226.782868263788 150.498392249864 0
310 847.019366152165 620.397199129889 0
311 860.129520175313 325.631378457957 0
312 348.384140413604 857.807669869558 0
313 651.673982514668 142.174933989281 0
314 732.914442485232 200.805482860668 0
315 267.085557484389 799.194517122458 0
316 793.065369544617 276.335330837872 0
317 195.638722943466 744.762368849858 0
318 795.701818035485 559.409376440362 0
319 542.559865751273 811.745985419576 0
320 459.796016928533 193.776455009669 0
321 406.514049486481 838.247979405174 0
322 594.338662790429 161.543965142403 0
323 659.180385382104 794.609201717986 0
324 339.244202751753 205.746281588267 0
325 802.927557867814 671.51244707973 0
326 211.246718457511 417.029053885644 0
327 227.205260066338 710.392820301497 0
328 755.467512261186 314.012584511412 0
329 850.561504703082 462.129635521635 0
330 153.955756357723 640.610994295545 0
331 204.882125726577 321.88092339471 0
332 159.581180052002 558.434808727702 0
333 853.535262765784 361.457025943148 0
334 149.445081803418 452.439347271919 0
335 204.858687097424 274.785112942216 0
336 300.469401910941 771.027950068783 0
337 301.938293366277 821.788106968835 0
338 699.054747975939 228.838414384315 0
339 698.006890389343 178.168879955757 0
340 241.429576918689 188.276516352318 0
341 758.583759458991 811.780811311554 0
342 791.202961578778 723.131232139039 0
343 150.998299821312 745.204772174442 0
344 197.507295472936 489.566381615579 0
345 498.595483559859 787.636354954653 0
346 517.682051801181 234.805304623687 0
347 802.273052406859 405.172692426937 0
348 271.039493091326 356.54955863799 0
349 199.153289262054 602.102661523306 0
350 660.656740714132 264.565565217291 0
351 336.906223450974 735.57126664307 0
352 650.746062839808 190.541669563464 0
353 349.080779015611 809.115857885078 0
354 799.530263691614 506.867410128047 0
355 606.678655562348 800.167386233866 0
356 391.97232109152 201.386042676551 0
357 782.166507529632 618.648623996473 0
358 447.891382238042 800.260539712786 0
359 557.67815383413 196.678701621236 0
360 185.74785745817 454.961462592028 0
361 261.248394848955 675.561891088679 0
362 719.904242018247 357.962977901977 0
363 758.441241914979 689.129200514907 0
364 692.352994476117 744.173791605648 0
365 306.691951956994 255.801053003633 0
366 251.214135762018 300.446029600169 0
367 833.486027056675 304.831213380899 0
368 168.788738972745 714.743010171515 0
369 245.758630058362 516.682809921291 0
370 539.276104829589 753.760942154889 0
371 452.172433730775 256.343930677235 0
372 745.92012655814 554.352426632467 0
373 258.316193353398 402.31601958901 0
374 740.800087568501 592.59699775457 0
375 646.425803285007 728.094686319063 0
376 349.586232737214 270.901413486201 0
377 371.306666265219 696.0436352395 0
378 388.592411540292 763.732624389448 0
379 624.291404302617 305.842957951609 0
380 607.735952168239 234.458799317622 0
381 727.276166615054 651.251936892711 0
382 801.671452355603 455.314063173464 0
383 212.936257709263 532.227294564356 0
384 501.961495699851 764.301483179058 0
385 490.338571094294 263.125718119822 0
386 196.939127393616 676.260897021923 0
387 796.344585446697 347.021496358958 0
388 759.056811543905 368.887509895681 0
389 231.435344785412 639.479852336025 0
390 323.00149248936 391.939277110232 0
391 674.108807427108 389.096396716266 0
392 296.901386719852 640.753956440325 0
393 635.954991524848 420.232092467449 0
394 335.269011789744 605.28258281447 0
395 565.200295185548 693.761337475258 0
396 450.891921283064 311.93599811731 0
397 272.849732798639 538.048096721061 0
398 559.934982513389 282.982243356235 0
399 421.620012194259 719.292232201672 0
400 290.901366227048 428.961235409505 0
401 700.160779918435 551.631313407387 0
402 607.485765519889 674.884741251333 0
403 386.136021461955 319.917035205379 0
404 750.035173838415 500.981253316109 0
405 469.759213618529 744.987111369447 0
406 251.177166403017 472.8250442076 0
407 586.534870760999 744.284694730649 0
408 403.486462968352 256.574333370113 0
409 727.123853828166 395.44622312761 0
410 268.250468934424 604.963531123943 0
411 364.968514992334 423.147091449789 0
412 403.808154606782 654.999033555173 0
413 592.383859998921 348.573320483086 0
414 758.506363112666 401.427493868409 0
415 237.617110886336 569.981193877153 0
416 692.600460461377 603.90587380739 0
417 337.188322011906 459.894405859164 0
418 543.997395704964 337.774643300904 0
419 450.308175455993 673.669359789808 0
420 702.603742462171 500.42744961165 0
421 701.346279278961 427.557777240546 0
422 501.291182932629 297.097510055045 0
423 506.810708766954 701.758644177666 0
424 754.417790962307 447.951916458413 0
425 305.515185254994 500.600188011185 0
426 306.419293540509 569.956239548843 0
427 575.117518540765 637.833194123883 0
428 644.230832407507 573.961703910568 0
429 382.079576476606 568.781070722961 0
430 600.309740336793 443.45368481061 0
431 420.131321340579 355.284084329969 0
432 411.060006013485 295.442403794713 0
433 398.109024683364 443.742432713943 0
434 435.777335080421 607.974011345651 0
435 562.163141438887 394.533582087861 0
436 520.65557684378 379.811635241147 0
437 476.009268120403 625.334211727758 0
438 400.62809420195 486.224385111855 0
439 485.027444514152 353.42683200436 0
440 549.881601146222 659.625345766087 0
441 667.840097258198 547.558277427004 0
442 349.954415618115 532.444122726772 0
443 648.065188286719 464.057485285683 0
444 594.10403555901 488.320738639876 0
445 493.484050364495 422.747447628336 0
446 456.427055489126 389.158350935578 0
447 615.926684185014 537.73671978323 0
448 505.141017942377 643.926696455706 0
449 509.894913504617 328.592279729378 0
450 504.145428157543 577.725478022883 0
451 658.775740406154 512.150593924927 0
452 540.285568210786 607.548529919562 0
$EndNodes
$Elements
425
1 2 2 1 1 4 108 62 
2 2 2 1 1 62 174 61 
3 2 2 1 1 178 133 132 
4 2 2 1 1 132 131 178 
5 2 2 1 1 109 108 176 
6 2 2 1 1 176 110 109 
7 2 2 1 1 132 133 179 
8 2 2 1 1 179 131 132 
9 2 2 1 1 219 105 106 
10 2 2 1 1 106 107 219 
11 2 2 1 1 287 85 86 
12 2 2 1 1 86 87 287 
13 2 2 1 1 286 104 103 
14 2 2 1 1 103 102 286 
15 2 2 1 1 429 123 122 
16 2 2 1 1 122 121 429 
17 2 2 1 1 21 22 151 
18 2 2 1 1 151 20 21 
19 2 2 1 1 28 29 153 
20 2 2 1 1 153 27 28 
21 2 2 1 1 66 67 157 
22 2 2 1 1 157 65 66 
23 2 2 1 1 46 47 154 
24 2 2 1 1 154 45 46 
25 2 2 1 1 122 123 434 
26 2 2 1 1 434 121 122 
27 2 2 1 1 119 118 435 
28 2 2 1 1 435 120 119 
29 3 2 1 1 377 125 126 351
30 3 2 1 1 379 116 115 350
31 3 2 1 1 348 90 89 366
32 3 2 1 1 430 119 120 444
33 3 2 1 1 316 114 115 328
34 3 2 1 1 315 128 129 269
35 3 2 1 1 314 113 112 268
36 3 2 1 1 343 272 288 266
37 3 2 1 1 121 438 442 429
38 3 2 1 1 434 437 450 121
39 3 2 1 1 435 436 445 120
40 3 2 1 1 446 445 436 439
41 3 2 1 1 410 392 394 426
42 3 2 1 1 452 450 437 448
43 3 2 1 1 99 100 363 381
44 3 2 1 1 90 376 365 89
45 3 2 1 1 99 375 364 100
46 3 2 1 1 303 87 86 284
47 3 2 1 1 307 102 103 285
48 3 2 1 1 397 426 442 425
49 3 2 1 1 391 117 118 393
50 3 2 1 1 443 444 447 451
51 3 2 1 1 214 222 106 105
52 3 2 1 1 176 108 4 63
53 3 2 1 1 179 133 2 25
54 3 2 1 1 178 24 2 133
55 3 2 1 1 174 220 60 61
56 3 2 1 1 267 271 236 289
57 3 2 1 1 80 221 156 79
58 3 2 1 1 438 94 93 433
59 3 2 1 1 444 95 96 447
60 3 2 1 1 376 403 432 408
61 3 2 1 1 179 173 217 131
62 3 2 1 1 176 171 218 110
63 3 2 1 1 178 131 210 172
64 3 2 1 1 209 84 83 169
65 3 2 1 1 253 284 86 85
66 3 2 1 1 377 399 419 412
67 3 2 1 1 379 398 418 413
68 3 2 1 1 215 285 103 104
69 3 2 1 1 390 400 417 411
70 3 2 1 1 351 378 399 377
71 3 2 1 1 350 380 398 379
72 3 2 1 1 412 419 437 434
73 3 2 1 1 413 418 436 435
74 3 2 1 1 348 390 91 90
75 3 2 1 1 348 373 400 390
76 3 2 1 1 221 80 81 175
77 3 2 1 1 375 99 98 402
78 3 2 1 1 381 416 98 99
79 3 2 1 1 411 417 438 433
80 3 2 1 1 172 23 24 178
81 3 2 1 1 171 176 63 64
82 3 2 1 1 173 179 25 26
83 3 2 1 1 127 126 361 327
84 3 2 1 1 451 447 428 441
85 3 2 1 1 397 415 410 426
86 3 2 1 1 6 7 169 180
87 3 2 1 1 265 259 296 331
88 3 2 1 1 332 383 344 290
89 3 2 1 1 313 292 322 352
90 3 2 1 1 312 291 321 353
91 3 2 1 1 357 318 372 374
92 3 2 1 1 278 330 294 227
93 3 2 1 1 307 261 297 342
94 3 2 1 1 87 340 309 287
95 3 2 1 1 102 341 308 286
96 3 2 1 1 125 377 412 124
97 3 2 1 1 116 379 413 117
98 3 2 1 1 334 290 344 360
99 3 2 1 1 276 226 292 313
100 3 2 1 1 275 225 291 312
101 3 2 1 1 42 222 152 41
102 3 2 1 1 277 332 290 223
103 3 2 1 1 250 184 259 265
104 3 2 1 1 204 147 243 252
105 3 2 1 1 205 149 244 251
106 3 2 1 1 333 311 367 387
107 3 2 1 1 416 381 357 374
108 3 2 1 1 197 278 227 138
109 3 2 1 1 274 322 292 226
110 3 2 1 1 273 321 291 225
111 3 2 1 1 358 345 384 405
112 3 2 1 1 385 371 396 422
113 3 2 1 1 295 334 360 326
114 3 2 1 1 189 277 223 136
115 3 2 1 1 238 309 262 249
116 3 2 1 1 237 308 260 248
117 3 2 1 1 391 393 443 421
118 3 2 1 1 271 267 316 367
119 3 2 1 1 368 343 266 317
120 3 2 1 1 192 273 225 139
121 3 2 1 1 193 274 226 142
122 3 2 1 1 145 232 246 166
123 3 2 1 1 143 231 245 165
124 3 2 1 1 387 328 362 388
125 3 2 1 1 386 327 361 389
126 3 2 1 1 345 319 370 384
127 3 2 1 1 346 320 371 385
128 3 2 1 1 201 250 234 162
129 3 2 1 1 444 443 393 430
130 3 2 1 1 426 394 429 442
131 3 2 1 1 231 305 257 245
132 3 2 1 1 232 306 258 246
133 3 2 1 1 134 240 192 158
134 3 2 1 1 137 241 193 161
135 3 2 1 1 190 279 233 163
136 3 2 1 1 280 260 298 323
137 3 2 1 1 281 262 299 324
138 3 2 1 1 283 325 297 261
139 3 2 1 1 200 276 244 149
140 3 2 1 1 199 275 243 147
141 3 2 1 1 370 423 405 384
142 3 2 1 1 279 334 295 233
143 3 2 1 1 325 283 310 357
144 3 2 1 1 196 247 230 160
145 3 2 1 1 421 420 404 424
146 3 2 1 1 305 231 185 280
147 3 2 1 1 306 232 187 281
148 3 2 1 1 128 315 336 127
149 3 2 1 1 113 314 338 114
150 3 2 1 1 250 265 335 303
151 3 2 1 1 357 381 363 325
152 3 2 1 1 281 324 356 306
153 3 2 1 1 280 323 355 305
154 3 2 1 1 259 295 326 296
155 3 2 1 1 344 406 326 360
156 3 2 1 1 244 276 313 264
157 3 2 1 1 243 275 312 263
158 3 2 1 1 354 404 372 318
159 3 2 1 1 366 335 265 331
160 3 2 1 1 140 198 229 282
161 3 2 1 1 148 203 236 271
162 3 2 1 1 146 202 235 272
163 3 2 1 1 358 300 319 345
164 3 2 1 1 359 301 320 346
165 3 2 1 1 159 191 224 270
166 3 2 1 1 332 277 227 294
167 3 2 1 1 208 242 239 164
168 3 2 1 1 300 273 192 240
169 3 2 1 1 301 274 193 241
170 3 2 1 1 358 321 273 300
171 3 2 1 1 359 322 274 301
172 3 2 1 1 278 197 146 228
173 3 2 1 1 271 229 198 148
174 3 2 1 1 163 233 184 141
175 3 2 1 1 160 230 186 144
176 3 2 1 1 424 404 354 382
177 3 2 1 1 448 423 395 440
178 3 2 1 1 166 246 183 195
179 3 2 1 1 165 245 182 194
180 3 2 1 1 389 361 392 410
181 3 2 1 1 421 409 362 391
182 3 2 1 1 230 247 256 310
183 3 2 1 1 416 428 97 98
184 3 2 1 1 406 369 397 425
185 3 2 1 1 402 98 97 427
186 3 2 1 1 390 411 92 91
187 3 2 1 1 277 189 138 227
188 3 2 1 1 240 257 319 300
189 3 2 1 1 241 258 320 301
190 3 2 1 1 162 234 188 150
191 3 2 1 1 420 401 372 404
192 3 2 1 1 334 279 223 290
193 3 2 1 1 424 382 347 414
194 3 2 1 1 382 354 304 329
195 3 2 1 1 270 181 135 159
196 3 2 1 1 279 190 136 223
197 3 2 1 1 189 136 15 16
198 3 2 1 1 190 14 15 136
199 3 2 1 1 329 304 181 270
200 3 2 1 1 407 355 323 375
201 3 2 1 1 408 356 324 376
202 3 2 1 1 282 224 191 140
203 3 2 1 1 373 348 296 326
204 3 2 1 1 329 270 224 293
205 3 2 1 1 355 319 257 305
206 3 2 1 1 356 320 258 306
207 3 2 1 1 167 249 187 207
208 3 2 1 1 168 248 185 206
209 3 2 1 1 194 134 35 36
210 3 2 1 1 195 137 73 74
211 3 2 1 1 196 51 52 135
212 3 2 1 1 240 134 194 182
213 3 2 1 1 241 137 195 183
214 3 2 1 1 247 196 135 181
215 3 2 1 1 357 310 256 318
216 3 2 1 1 304 354 318 256
217 3 2 1 1 407 370 319 355
218 3 2 1 1 408 371 320 356
219 3 2 1 1 191 159 53 54
220 3 2 1 1 192 33 34 158
221 3 2 1 1 193 71 72 161
222 3 2 1 1 239 242 261 307
223 3 2 1 1 382 329 293 347
224 3 2 1 1 124 123 429 394
225 3 2 1 1 241 183 246 258
226 3 2 1 1 240 182 245 257
227 3 2 1 1 369 383 415 397
228 3 2 1 1 189 16 17 138
229 3 2 1 1 197 138 17 18
230 3 2 1 1 191 54 55 140
231 3 2 1 1 192 139 32 33
232 3 2 1 1 200 69 70 142
233 3 2 1 1 193 142 70 71
234 3 2 1 1 199 31 32 139
235 3 2 1 1 198 140 55 56
236 3 2 1 1 295 259 184 233
237 3 2 1 1 190 163 13 14
238 3 2 1 1 269 252 243 263
239 3 2 1 1 268 251 244 264
240 3 2 1 1 275 199 139 225
241 3 2 1 1 276 200 142 226
242 3 2 1 1 330 278 228 302
243 3 2 1 1 333 282 229 311
244 3 2 1 1 201 11 12 141
245 3 2 1 1 333 293 224 282
246 3 2 1 1 351 126 127 336
247 3 2 1 1 350 115 114 338
248 3 2 1 1 196 160 50 51
249 3 2 1 1 194 36 37 165
250 3 2 1 1 195 74 75 166
251 3 2 1 1 358 378 353 321
252 3 2 1 1 359 380 352 322
253 3 2 1 1 302 368 386 330
254 3 2 1 1 197 18 19 146
255 3 2 1 1 202 146 19 20
256 3 2 1 1 198 56 57 148
257 3 2 1 1 199 147 30 31
258 3 2 1 1 204 29 30 147
259 3 2 1 1 205 67 68 149
260 3 2 1 1 200 149 68 69
261 3 2 1 1 203 148 57 58
262 3 2 1 1 298 364 375 323
263 3 2 1 1 299 365 376 324
264 3 2 1 1 264 313 352 339
265 3 2 1 1 263 312 353 337
266 3 2 1 1 387 347 293 333
267 3 2 1 1 206 143 38 39
268 3 2 1 1 207 145 76 77
269 3 2 1 1 208 48 49 144
270 3 2 1 1 393 118 119 430
271 3 2 1 1 247 181 304 256
272 3 2 1 1 250 201 141 184
273 3 2 1 1 335 366 89 88
274 3 2 1 1 186 230 310 283
275 3 2 1 1 449 422 396 439
276 3 2 1 1 441 401 420 451
277 3 2 1 1 314 339 352 338
278 3 2 1 1 315 337 353 336
279 3 2 1 1 211 153 29 204
280 3 2 1 1 213 157 67 205
281 3 2 1 1 332 294 330 349
282 3 2 1 1 253 188 234 284
283 3 2 1 1 20 151 235 202
284 3 2 1 1 366 331 296 348
285 3 2 1 1 201 162 10 11
286 3 2 1 1 232 145 207 187
287 3 2 1 1 231 143 206 185
288 3 2 1 1 242 208 144 186
289 3 2 1 1 330 386 389 349
290 3 2 1 1 414 347 387 388
291 3 2 1 1 34 35 134 158
292 3 2 1 1 53 159 135 52
293 3 2 1 1 72 73 137 161
294 3 2 1 1 146 272 302 228
295 3 2 1 1 325 363 342 297
296 3 2 1 1 367 311 229 271
297 3 2 1 1 203 58 59 155
298 3 2 1 1 332 349 415 383
299 3 2 1 1 283 261 242 186
300 3 2 1 1 281 187 249 262
301 3 2 1 1 280 185 248 260
302 3 2 1 1 272 343 368 302
303 3 2 1 1 209 8 9 150
304 3 2 1 1 336 353 378 351
305 3 2 1 1 338 352 380 350
306 3 2 1 1 341 298 260 308
307 3 2 1 1 340 299 262 309
308 3 2 1 1 250 303 284 234
309 3 2 1 1 13 163 141 12
310 3 2 1 1 207 77 78 167
311 3 2 1 1 206 39 40 168
312 3 2 1 1 208 164 47 48
313 3 2 1 1 44 45 154 219
314 3 2 1 1 248 168 152 237
315 3 2 1 1 249 167 156 238
316 3 2 1 1 203 155 170 236
317 3 2 1 1 37 38 143 165
318 3 2 1 1 75 76 145 166
319 3 2 1 1 50 160 144 49
320 3 2 1 1 268 264 339 314
321 3 2 1 1 269 263 337 315
322 3 2 1 1 432 396 371 408
323 3 2 1 1 423 370 407 395
324 3 2 1 1 205 251 268 213
325 3 2 1 1 204 252 269 211
326 3 2 1 1 307 285 215 239
327 3 2 1 1 308 237 214 286
328 3 2 1 1 309 238 216 287
329 3 2 1 1 222 214 237 152
330 3 2 1 1 239 215 219 154
331 3 2 1 1 151 172 210 235
332 3 2 1 1 238 156 221 216
333 3 2 1 1 9 10 162 150
334 3 2 1 1 209 169 7 8
335 3 2 1 1 406 344 383 369
336 3 2 1 1 60 220 212 170
337 3 2 1 1 23 172 151 22
338 3 2 1 1 26 27 153 173
339 3 2 1 1 59 60 170 155
340 3 2 1 1 64 65 157 171
341 3 2 1 1 327 317 128 127
342 3 2 1 1 267 113 114 316
343 3 2 1 1 79 156 167 78
344 3 2 1 1 41 152 168 40
345 3 2 1 1 239 154 47 164
346 3 2 1 1 358 405 399 378
347 3 2 1 1 359 346 398 380
348 3 2 1 1 188 253 209 150
349 3 2 1 1 303 335 88 87
350 3 2 1 1 307 342 101 102
351 3 2 1 1 272 235 210 288
352 3 2 1 1 170 212 289 236
353 3 2 1 1 213 218 171 157
354 3 2 1 1 211 217 173 153
355 3 2 1 1 326 406 400 373
356 3 2 1 1 317 327 386 368
357 3 2 1 1 328 115 116 362
358 3 2 1 1 396 431 446 439
359 3 2 1 1 439 436 418 449
360 3 2 1 1 423 448 437 419
361 3 2 1 1 421 443 451 420
362 3 2 1 1 316 328 387 367
363 3 2 1 1 342 363 100 101
364 3 2 1 1 299 88 89 365
365 3 2 1 1 298 101 100 364
366 3 2 1 1 362 409 414 388
367 3 2 1 1 126 125 392 361
368 3 2 1 1 394 392 125 124
369 3 2 1 1 362 116 117 391
370 3 2 1 1 298 341 102 101
371 3 2 1 1 299 340 87 88
372 3 2 1 1 43 177 222 42
373 3 2 1 1 209 253 85 84
374 3 2 1 1 255 111 110 218
375 3 2 1 1 254 130 131 217
376 3 2 1 1 217 211 269 254
377 3 2 1 1 218 213 268 255
378 3 2 1 1 269 129 130 254
379 3 2 1 1 268 112 111 255
380 3 2 1 1 174 109 110 220
381 3 2 1 1 216 221 83 84
382 3 2 1 1 266 288 130 129
383 3 2 1 1 212 111 112 289
384 3 2 1 1 124 412 434 123
385 3 2 1 1 117 413 435 118
386 3 2 1 1 289 112 113 267
387 3 2 1 1 317 266 129 128
388 3 2 1 1 411 433 93 92
389 3 2 1 1 428 447 96 97
390 3 2 1 1 376 90 91 403
391 3 2 1 1 403 91 92 431
392 3 2 1 1 427 97 96 452
393 3 2 1 1 431 92 93 446
394 3 2 1 1 452 96 95 450
395 3 2 1 1 446 93 94 445
396 3 2 1 1 1 6 180 82
397 3 2 1 1 410 415 349 389
398 3 2 1 1 1 82 175 81
399 3 2 1 1 3 107 177 43
400 3 2 1 1 424 414 409 421
401 3 2 1 1 396 432 403 431
402 3 2 1 1 288 210 131 130
403 3 2 1 1 220 110 111 212
404 3 2 1 1 286 214 105 104
405 3 2 1 1 219 215 104 105
406 3 2 1 1 287 216 84 85
407 3 2 1 1 221 175 82 83
408 3 2 1 1 222 177 107 106
409 3 2 1 1 62 108 109 174
410 3 2 1 1 448 440 427 452
411 3 2 1 1 82 180 169 83
412 3 2 1 1 3 44 219 107
413 3 2 1 1 5 120 445 94
414 3 2 1 1 5 94 438 121
415 3 2 1 1 5 95 444 120
416 3 2 1 1 5 121 450 95
417 3 2 1 1 372 401 416 374
418 3 2 1 1 375 402 395 407
419 3 2 1 1 440 395 402 427
420 3 2 1 1 385 422 398 346
421 3 2 1 1 449 418 398 422
422 3 2 1 1 405 423 419 399
423 3 2 1 1 406 425 417 400
424 3 2 1 1 441 428 416 401
425 3 2 1 1 425 442 438 417
$EndElements
