$MeshFormat
2.2 0 8
$EndMeshFormat
$Nodes
1122
1 0 0 0
2 0.54 0 0
3 0.85 0 0
4 1 0 0
5 1 1 0
6 0 1 0
7 0 0.3 0
8 0.0490909090909092 0 0
9 0.0981818181818183 0 0
10 0.147272727272727 0 0
11 0.196363636363637 0 0
12 0.245454545454546 0 0
13 0.294545454545455 0 0
14 0.343636363636364 0 0
15 0.392727272727273 0 0
16 0.441818181818182 0 0
17 0.490909090909091 0 0
18 0.591666666666667 0 0
19 0.643333333333334 0 0
20 0.695000000000001 0 0
21 0.746666666666667 0 0
22 0.798333333333333 0 0
23 0.9 0 0
24 0.95 0 0
25 1 0.05 0
26 1 0.1 0
27 1 0.15 0
28 1 0.2 0
29 1 0.25 0
30 1 0.3 0
31 1 0.35 0
32 1 0.4 0
33 1 0.45 0
34 1 0.5 0
35 1 0.55 0
36 1 0.6 0
37 1 0.65 0
38 1 0.7 0
39 1 0.75 0
40 1 0.8 0
41 1 0.85 0
42 1 0.9 0
43 1 0.95 0
44 0.95 1 0
45 0.9 1 0
46 0.85 1 0
47 0.8 1 0
48 0.75 1 0
49 0.7 1 0
50 0.65 1 0
51 0.6 1 0
52 0.55 1 0
53 0.5 1 0
54 0.45 1 0
55 0.4 1 0
56 0.35 1 0
57 0.3 1 0
58 0.25 1 0
59 0.2 1 0
60 0.15 1 0
61 0.1 1 0
62 0.0499999999999999 1 0
63 0 0.95 0
64 0 0.9 0
65 0 0.85 0
66 0 0.8 0
67 0 0.75 0
68 0 0.7 0
69 0 0.65 0
70 0 0.600000000000001 0
71 0 0.55 0
72 0 0.500000000000001 0
73 0 0.45 0
74 0 0.4 0
75 0 0.35 0
76 0 0.25 0
77 0 0.2 0
78 0 0.15 0
79 0 0.1 0
80 0 0.0500000000000001 0
81 0.0472222222222222 0.283333333333333 0
82 0.0944444444444443 0.266666666666667 0
83 0.141666666666667 0.25 0
84 0.188888888888889 0.233333333333333 0
85 0.236111111111111 0.216666666666667 0
86 0.283333333333333 0.2 0
87 0.330555555555555 0.183333333333333 0
88 0.377777777777778 0.166666666666667 0
89 0.425 0.15 0
90 0.472222222222222 0.133333333333333 0
91 0.519444444444444 0.116666666666667 0
92 0.566666666666667 0.1 0
93 0.613888888888889 0.0833333333333334 0
94 0.661111111111111 0.0666666666666667 0
95 0.708333333333333 0.05 0
96 0.755555555555556 0.0333333333333333 0
97 0.802777777777778 0.0166666666666667 0
98 0.500736601321205 0.950321476577237 0
99 0.950006354626765 0.500003137543473 0
100 0.0499969636876099 0.650047125278877 0
101 0.300061790395091 0.949968809751653 0
102 0.950111640581531 0.29984601446976 0
103 0.949998581668966 0.699999020913681 0
104 0.650117547814452 0.950022192825265 0
105 0.755163523313147 0.0756244203386892 0
106 0.950141330105187 0.14873164730071 0
107 0.0510091783724491 0.501251657303934 0
108 0.196720117128498 0.0496887633607977 0
109 0.800002727482982 0.94999278097419 0
110 0.0500001765428992 0.850000105161258 0
111 0.949999795499215 0.849999659088311 0
112 0.0493467069417148 0.150436784025425 0
113 0.3424997185298 0.0512413684497507 0
114 0.441785783515946 0.0480840753478473 0
115 0.900473906880304 0.048408433816708 0
116 0.150000140535914 0.949999809749385 0
117 0.950000001836176 0.94999990409528 0
118 0.54213177657433 0.0533343367365577 0
119 0.0493956941670345 0.334292470999837 0
120 0.0495552215945191 0.0999319816117638 0
121 0.147829088961316 0.0494319740656219 0
122 0.0986786123068439 0.0496178986327557 0
123 0.950225397826237 0.198783646805495 0
124 0.94998667711839 0.0494238721765441 0
125 0.0500000284248046 0.949999997702616 0
126 0.200002552834715 0.949997375172248 0
127 0.050000339944829 0.800000357215237 0
128 0.850000493966187 0.949997443120754 0
129 0.350245127769458 0.949952736302858 0
130 0.949999022972665 0.749999442134969 0
131 0.0500011877641597 0.750002405706309 0
132 0.700052432995813 0.949990329495432 0
133 0.0499167190908925 0.600196543269058 0
134 0.400571817866129 0.950030097070344 0
135 0.550536317335425 0.950270356236873 0
136 0.949998356656467 0.599997466945033 0
137 0.950037526905257 0.400031994669848 0
138 0.0635911241099128 0.445244460207839 0
139 0.293776959585829 0.051145397547762 0
140 0.0493579087041506 0.0498614169376821 0
141 0.707966978385911 0.112818092001416 0
142 0.0435314372032448 0.24587698524119 0
143 0.854189215652961 0.0479145158377297 0
144 0.597127423686069 0.0461471096148524 0
145 0.786909659460125 0.0549606745865702 0
146 0.5517940475397 0.900802729597899 0
147 0.0999941870746624 0.65012692917978 0
148 0.300193900724455 0.899887246111646 0
149 0.0981417375675367 0.504699184702736 0
150 0.753847480356457 0.115787984350947 0
151 0.100003098124049 0.750007117083451 0
152 0.89999688758131 0.699996982157886 0
153 0.56730621495153 0.149675290775101 0
154 0.15000119592083 0.899999022586658 0
155 0.900897126220752 0.144738498219516 0
156 0.196417324913472 0.0986398779748503 0
157 0.800012588965026 0.899956034177703 0
158 0.650568801532208 0.900029880870966 0
159 0.0985983548119588 0.149892816242397 0
160 0.33903014606047 0.10188623368472 0
161 0.855617083302753 0.0907348188039255 0
162 0.0966186472932047 0.20218762295155 0
163 0.0533262442653483 0.386081298410967 0
164 0.147854378623362 0.0984855980581265 0
165 0.950130539092467 0.0987713149454684 0
166 0.950188965550773 0.249267099892097 0
167 0.0477955205832626 0.201104376789086 0
168 0.100000134021401 0.949999907105328 0
169 0.0500001024631191 0.900000024229128 0
170 0.250024944123222 0.949984023155592 0
171 0.949999950053926 0.899999759210877 0
172 0.90000008880468 0.949999332204462 0
173 0.100001355677956 0.800002427374432 0
174 0.0500012106936791 0.700018374262269 0
175 0.949999449202296 0.799999509418986 0
176 0.750020982281127 0.94998199575388 0
177 0.35070274921084 0.89984774999525 0
178 0.600370487118136 0.950137359002396 0
179 0.949998151667059 0.649998023149954 0
180 0.450864443371126 0.950230018121091 0
181 0.950001210993303 0.549998600147866 0
182 0.950020580142151 0.450016651897515 0
183 0.049860467011465 0.550738751340521 0
184 0.950073403813382 0.350007304114387 0
185 0.245250598046504 0.0504255403539246 0
186 0.391811281041518 0.0506187730982443 0
187 0.487940043635698 0.0428892821370133 0
188 0.0988200415812134 0.0994129949827574 0
189 0.661004781489319 0.119517654956606 0
190 0.786264260237008 0.0782363747159763 0
191 0.811620198941647 0.0499725474374779 0
192 0.0983115338021431 0.317835528829285 0
193 0.90002771864155 0.500015697779225 0
194 0.300298693046774 0.849778017621414 0
195 0.900272479175513 0.299753038790557 0
196 0.15000367163959 0.800002976170541 0
197 0.103933466335213 0.368739171283991 0
198 0.850002497099748 0.899985977333273 0
199 0.700269061046738 0.899916820767088 0
200 0.200009243794936 0.899991337798311 0
201 0.0991051901707174 0.551548064631718 0
202 0.292142233989913 0.100526823645146 0
203 0.192578326367403 0.143104398657947 0
204 0.0992561253484547 0.471057572088762 0
205 0.802669042904567 0.119305702118797 0
206 0.901605931100047 0.0958739256661739 0
207 0.444580618200253 0.100910777502416 0
208 0.900118817524285 0.195585504158475 0
209 0.900116706956921 0.400116894547789 0
210 0.100000370840384 0.899999894575764 0
211 0.100000817348318 0.850000525762503 0
212 0.900000018761988 0.849995884643897 0
213 0.899997941054915 0.749996649137672 0
214 0.900000406585504 0.89999637925063 0
215 0.250063048849974 0.899954891496557 0
216 0.401538203596558 0.900133454490152 0
217 0.750093862046228 0.899901599302646 0
218 0.100005788017854 0.700037896934447 0
219 0.502377287803627 0.901086291066256 0
220 0.899999176178794 0.599995321979063 0
221 0.899997014781177 0.649995874433313 0
222 0.601228080784958 0.900339486617838 0
223 0.0997534823566121 0.60052567085552 0
224 0.38745744415473 0.102972205381817 0
225 0.244421256002606 0.099765335773903 0
226 0.706508318294425 0.163227073965497 0
227 0.147084881164486 0.147392419920784 0
228 0.145460139479084 0.197723018612492 0
229 0.520443529628808 0.16641708272525 0
230 0.61415295052089 0.133584614175295 0
231 0.818717036143818 0.0830110504091991 0
232 0.146695390514439 0.30091134405489 0
233 0.503878880740597 0.852141677732662 0
234 0.144264840936083 0.504443237993042 0
235 0.850005905437627 0.599995724034766 0
236 0.568211856908718 0.199334043457841 0
237 0.651323290948714 0.850032542768839 0
238 0.849998189797191 0.699987191399646 0
239 0.800032114651403 0.849886898395335 0
240 0.150013600786241 0.700050206564614 0
241 0.427167530346264 0.199913359298792 0
242 0.852725857342893 0.135669347168493 0
243 0.292343256232282 0.144457062673518 0
244 0.900003534733887 0.248077299298624 0
245 0.900203584480916 0.350121047732652 0
246 0.900067546891347 0.450062655130434 0
247 0.350958533150481 0.849745608915626 0
248 0.150003339903337 0.849998707229814 0
249 0.850006186037572 0.849967344511556 0
250 0.899999509814953 0.799994138654744 0
251 0.149975773669097 0.65017917941094 0
252 0.45217576616342 0.900691940651396 0
253 0.750176524692783 0.849765856688199 0
254 0.250088052515868 0.849921508940606 0
255 0.150006923176788 0.750017829936995 0
256 0.900010459380739 0.55000107728392 0
257 0.149567645579595 0.600592352878064 0
258 0.242489777321082 0.151853163971378 0
259 0.660515508356235 0.170135273015493 0
260 0.752504811826915 0.163838174227364 0
261 0.553332437839928 0.851460215193625 0
262 0.194430126171165 0.283966290567146 0
263 0.473729088552643 0.183180380249497 0
264 0.198844174980609 0.190858945715443 0
265 0.331144723330974 0.145342888977423 0
266 0.496954666567747 0.0827478266524701 0
267 0.116538450889743 0.416605496518494 0
268 0.152692507528449 0.350982581231327 0
269 0.503915669207302 0.803303275961888 0
270 0.850572755084213 0.350679187134772 0
271 0.19990354722798 0.650215098299146 0
272 0.200752764338385 0.333987604416515 0
273 0.300274974712414 0.799724649623829 0
274 0.84367749635916 0.191002870258457 0
275 0.850073155703302 0.500040479284002 0
276 0.850001189391858 0.749974012100646 0
277 0.334800287490289 0.23320821443493 0
278 0.475651298142292 0.233005147137311 0
279 0.241719856974882 0.26687164220191 0
280 0.795842712626215 0.166652498223407 0
281 0.849352972676138 0.249783158864842 0
282 0.850031631350107 0.550009222667771 0
283 0.850348773390531 0.400370777165887 0
284 0.700586819038421 0.849795348997065 0
285 0.40202875112546 0.850372013638252 0
286 0.452957799479682 0.851419931284235 0
287 0.84999990686328 0.649992358574135 0
288 0.602338291836845 0.850605850133757 0
289 0.148011492440675 0.551762574980668 0
290 0.200019323449006 0.799986987548358 0
291 0.850005318649332 0.799960026193983 0
292 0.200024841518787 0.849978515945016 0
293 0.8000470269506 0.799859250596562 0
294 0.200016299415237 0.750008091137706 0
295 0.701216138046476 0.207500680797455 0
296 0.381089339342722 0.216572818621479 0
297 0.52184499880539 0.216142279240945 0
298 0.614559946799323 0.183489995043507 0
299 0.133646169550586 0.460360613603508 0
300 0.160264540481434 0.397091930299479 0
301 0.288456588918217 0.249937129126559 0
302 0.523495366440853 0.265801347120234 0
303 0.80002453575518 0.600001722380112 0
304 0.801978322229832 0.351867905889614 0
305 0.651594004186442 0.800157440556737 0
306 0.188564586389591 0.445697925647965 0
307 0.339813567441133 0.282694318350894 0
308 0.745945782005976 0.219002006745657 0
309 0.247946613132944 0.316169401200377 0
310 0.212676228643658 0.386481966962219 0
311 0.452679950295707 0.802308688430486 0
312 0.850638577409558 0.300949524370775 0
313 0.80017657052727 0.500093029219022 0
314 0.850185154766922 0.450156167928127 0
315 0.800021445905654 0.699961039193911 0
316 0.750229130095996 0.799742552029785 0
317 0.35076824663587 0.79977533851889 0
318 0.199393502270766 0.600553298339755 0
319 0.800046750612487 0.749910209204713 0
320 0.250092986183569 0.799903258157918 0
321 0.199984223884196 0.700079033384838 0
322 0.430286422882097 0.24975806992481 0
323 0.193775188168196 0.501857987483901 0
324 0.659891145565806 0.218170805831276 0
325 0.553584872283591 0.802256357893411 0
326 0.615093932892169 0.232651020265522 0
327 0.794477442427967 0.212402013225098 0
328 0.294068128243606 0.298898502857975 0
329 0.344989429656888 0.330489136065769 0
330 0.249565112448511 0.650478108280868 0
331 0.660597059518867 0.265377916697411 0
332 0.242265397882379 0.454724667663609 0
333 0.800424374919535 0.450268458230938 0
334 0.250052500928856 0.749931831998419 0
335 0.80284898744569 0.303986837753665 0
336 0.258023086850181 0.359018444782937 0
337 0.401571431373726 0.800726879589719 0
338 0.800735625185867 0.256436240423056 0
339 0.801053250823465 0.400774444258083 0
340 0.800018472065481 0.649986972718405 0
341 0.800078498904694 0.550035410817747 0
342 0.700699071409676 0.799835185798009 0
343 0.197594875102779 0.551229546946109 0
344 0.300177948283853 0.749787094393618 0
345 0.750198563848496 0.749873780598056 0
346 0.478181830026666 0.282719978223766 0
347 0.502577801437755 0.754506670470393 0
348 0.569375000309368 0.248955368364928 0
349 0.300375503828734 0.345516346218934 0
350 0.602549544850597 0.801025306919921 0
351 0.385225103211424 0.266192393863113 0
352 0.702017617393877 0.251361395394849 0
353 0.525612775806598 0.315253397794292 0
354 0.750167269609696 0.550142986713372 0
355 0.752279802092348 0.401546399950704 0
356 0.601972123882435 0.751651108423026 0
357 0.713559645212897 0.298160026544666 0
358 0.700569532809279 0.750010376174424 0
359 0.389345372462862 0.315145919243518 0
360 0.349699951724827 0.373193757501902 0
361 0.451851933844631 0.753203801428766 0
362 0.35050973636653 0.749999829016303 0
363 0.307741985568218 0.38725374538105 0
364 0.750067143721524 0.600068372194273 0
365 0.750123275217903 0.699973530914105 0
366 0.249490784320134 0.600813674336813 0
367 0.245255100501891 0.50004732750997 0
368 0.75119131064757 0.450953981829381 0
369 0.249923683830513 0.700069322158638 0
370 0.615730479976771 0.281537498428607 0
371 0.552506201070273 0.753375708531106 0
372 0.757863912297137 0.26602609783601 0
373 0.760149472733844 0.309007193903707 0
374 0.264086128499864 0.407990516906089 0
375 0.433541160717656 0.299264153241122 0
376 0.704745573760759 0.404654196876267 0
377 0.700411931803653 0.550450151679247 0
378 0.551519966177161 0.70446251349574 0
379 0.700327964164462 0.700173692355499 0
380 0.391181020906872 0.363528310736171 0
381 0.299310778805729 0.650444270826529 0
382 0.336380453016848 0.424765616101948 0
383 0.288358404157016 0.448777641859059 0
384 0.707755335798381 0.355531748989141 0
385 0.501609439781352 0.705489932520101 0
386 0.750071164415574 0.650038813427611 0
387 0.480907109712331 0.332145086602411 0
388 0.750568739560482 0.500506218927613 0
389 0.299951383657035 0.70004085012006 0
390 0.248803456971755 0.550164584156875 0
391 0.651183812349764 0.750580002897638 0
392 0.755209384457632 0.353339215488575 0
393 0.401122525982422 0.751240624578702 0
394 0.570671369519005 0.298269678897723 0
395 0.661754684132426 0.31472897579799 0
396 0.391064799838033 0.412766971284107 0
397 0.500998614622388 0.656304302331148 0
398 0.571986414794002 0.347274382065093 0
399 0.700149444332363 0.650294138864526 0
400 0.701456592964949 0.501322256880981 0
401 0.650699436447135 0.700884667746047 0
402 0.345178507680869 0.477643100332782 0
403 0.700144385435107 0.600361491833281 0
404 0.703189035792363 0.453186650016541 0
405 0.350263320011657 0.700423888266506 0
406 0.296424992340031 0.603892993012558 0
407 0.52795922758118 0.364211003373969 0
408 0.601174374778133 0.702302990162065 0
409 0.451274871527971 0.703955978966821 0
410 0.616241390120002 0.330572991564807 0
411 0.296116291530188 0.492339744264174 0
412 0.660955106529209 0.364731700398117 0
413 0.436079222948175 0.34841496998446 0
414 0.393526584274715 0.461243964635226 0
415 0.450937007345596 0.655121085506048 0
416 0.653455689806268 0.501266247483909 0
417 0.573934767293275 0.395696817700324 0
418 0.438103969139123 0.397411013298445 0
419 0.659691683358101 0.41214891074366 0
420 0.356495811810858 0.521108451743472 0
421 0.600597250745586 0.65273657482802 0
422 0.650172324482432 0.601124325981821 0
423 0.308794127577321 0.547574117037975 0
424 0.650368165768068 0.651213489328724 0
425 0.400786109016716 0.701871549315779 0
426 0.34997386038757 0.650827441443056 0
427 0.550893726468109 0.654899198171084 0
428 0.616449846871684 0.379260060217277 0
429 0.483432530961823 0.380980148760663 0
430 0.440633079671745 0.445762108042616 0
431 0.350341778407895 0.596421720240337 0
432 0.400832576867761 0.652856132356516 0
433 0.65068367847872 0.550549860470879 0
434 0.531266438963802 0.41257386257381 0
435 0.501106238628928 0.607182254212952 0
436 0.550621314417164 0.605813984538468 0
437 0.600278905044553 0.603009293664213 0
438 0.657942639531259 0.456048102084446 0
439 0.400495988127836 0.50422842406751 0
440 0.612202178502981 0.426083261906172 0
441 0.486608742604037 0.429411160919167 0
442 0.537687524514338 0.460297365637092 0
443 0.444995911805549 0.493839668521924 0
444 0.450961312159398 0.605677627770996 0
445 0.549948359951057 0.557005100816937 0
446 0.403686666354095 0.60691428983674 0
447 0.600702377589025 0.491843726810208 0
448 0.600163889034014 0.551768917684474 0
449 0.394311537100443 0.554511714700911 0
450 0.580284474388969 0.442366179619083 0
451 0.625758847463457 0.456231291056435 0
452 0.492221977095622 0.477182789376498 0
453 0.501621635135756 0.519307804261469 0
454 0.505015573296289 0.562709139566839 0
455 0.455861920413736 0.548117778823518 0
456 0.546254183872209 0.507702764871857 0
457 0 0 0
458 0.54 0 0
459 0.85 0 0
460 1 0 0
461 1.5 0 0
462 1.5 0 1
463 0 0 1
464 0 0 0.6
465 0.0490909090909092 0 0
466 0.0981818181818183 0 0
467 0.147272727272727 0 0
468 0.196363636363637 0 0
469 0.245454545454546 0 0
470 0.294545454545455 0 0
471 0.343636363636364 0 0
472 0.392727272727273 0 0
473 0.441818181818182 0 0
474 0.490909090909091 0 0
475 0.591666666666667 0 0
476 0.643333333333334 0 0
477 0.695000000000001 0 0
478 0.746666666666667 0 0
479 0.798333333333333 0 0
480 0.9 0 0
481 0.95 0 0
482 1.05 0 0
483 1.1 0 0
484 1.15 0 0
485 1.2 0 0
486 1.25 0 0
487 1.3 0 0
488 1.35 0 0
489 1.4 0 0
490 1.45 0 0
491 1.5 0 0.05
492 1.5 0 0.1
493 1.5 0 0.15
494 1.5 0 0.2
495 1.5 0 0.25
496 1.5 0 0.3
497 1.5 0 0.35
498 1.5 0 0.4
499 1.5 0 0.45
500 1.5 0 0.5
501 1.5 0 0.55
502 1.5 0 0.6
503 1.5 0 0.65
504 1.5 0 0.7
505 1.5 0 0.75
506 1.5 0 0.8
507 1.5 0 0.85
508 1.5 0 0.9
509 1.5 0 0.95
510 1.45 0 1
511 1.4 0 1
512 1.35 0 1
513 1.3 0 1
514 1.25 0 1
515 1.2 0 1
516 1.15 0 1
517 1.1 0 1
518 1.05 0 1
519 1 0 1
520 0.95 0 1
521 0.9 0 1
522 0.85 0 1
523 0.8 0 1
524 0.75 0 1
525 0.7 0 1
526 0.65 0 1
527 0.6 0 1
528 0.55 0 1
529 0.5 0 1
530 0.45 0 1
531 0.4 0 1
532 0.35 0 1
533 0.3 0 1
534 0.25 0 1
535 0.2 0 1
536 0.15 0 1
537 0.1 0 1
538 0.05 0 1
539 0 0 0.95
540 0 0 0.9
541 0 0 0.85
542 0 0 0.8
543 0 0 0.75
544 0 0 0.7
545 0 0 0.65
546 0 0 0.55
547 0 0 0.5
548 0 0 0.45
549 0 0 0.4
550 0 0 0.35
551 0 0 0.3
552 0 0 0.25
553 0 0 0.2
554 0 0 0.15
555 0 0 0.1
556 0 0 0.05
557 0.03375 0 0.5625
558 0.0674999999999999 0 0.525
559 0.10125 0 0.4875
560 0.135 0 0.45
561 0.16875 0 0.4125
562 0.2025 0 0.375
563 0.23625 0 0.3375
564 0.27 0 0.3
565 0.30375 0 0.2625
566 0.3375 0 0.225
567 0.37125 0 0.1875
568 0.405 0 0.15
569 0.43875 0 0.1125
570 0.4725 0 0.0750000000000001
571 0.50625 0 0.0375000000000001
572 0.849050378162928 0 0.0502670916532209
573 1.00000140382538 0 0.949998884571638
574 0.800010766384563 0 0.949988930754947
575 0.60001435135719 0 0.949974343160552
576 1.44999999351975 0 0.499999992114414
577 0.400010362622447 0 0.949968241542825
578 1.10000013567078 0 0.0500006342777341
579 1.20000001986891 0 0.949999996132462
580 1.44999999648042 0 0.299999999802994
581 0.0482164394234578 0 0.701085302363909
582 1.4499999983227 0 0.700000000413004
583 1.25000002746206 0 0.0500000174013187
584 0.24999705617107 0 0.949984537851504
585 0.049809853759848 0 0.150117250224804
586 1.44999999909668 0 0.200000000206348
587 0.0498916636746697 0 0.799840402307384
588 0.644161080509409 0 0.0497504998783456
589 0.196797526785284 0 0.0500769342562168
590 0.0502886387182998 0 0.251100335257859
591 1.44999999987997 0 0.850000000106928
592 1.3500000021607 0 0.0500000018269064
593 0.150000989924544 0 0.94999161554149
594 0.29503001610168 0 0.0498211021280247
595 1.40000000012967 0 0.949999999944705
596 1.44999999999794 0 0.0500000000693918
597 0.949899732561706 0 0.0500306494083934
598 0.0499985120050188 0 0.899972155458071
599 0.0508368381704924 0 0.351603583687815
600 0.746589237447724 0 0.050643329247672
601 0.0503827346740824 0 0.40034868150877
602 0.0493398992967814 0 0.0498309646865157
603 1.45000000001347 0 0.949999999994428
604 1.15000008417882 0 0.949999980557807
605 0.950003354752358 0 0.949997233557347
606 1.44999999567693 0 0.599999996655946
607 1.44999999962521 0 0.150000000222664
608 1.30000000325113 0 0.94999999831562
609 0.750011094944839 0 0.949984847867293
610 1.44999999348823 0 0.399999996279078
611 1.44999999945253 0 0.800000000472149
612 0.9999738710216 0 0.0500095363906379
613 0.900006783089038 0 0.949994454364813
614 1.15000027035683 0 0.0500002377635585
615 1.10000033441035 0 0.949999854621697
616 0.100000763830413 0 0.949991432833278
617 0.0500002173352649 0 0.949993172938841
618 0.350000023534921 0 0.949971559224989
619 0.550019419363363 0 0.949972820694768
620 0.700011205908328 0 0.949979949994318
621 0.500023477320121 0 0.949969299401392
622 0.344066623084785 0 0.0494836050815421
623 0.0986073502309411 0 0.0497585477186472
624 0.0448163518716466 0 0.611928023760303
625 0.551896997290579 0 0.048664731346533
626 0.392640447160264 0 0.0499475549357601
627 0.0313596266230211 0 0.527404006581187
628 0.0498661253097766 0 0.446382277504723
629 0.443941983426907 0 0.0491413242074925
630 1.00000720885913 0 0.899995542392643
631 0.800038631208849 0 0.899966210078733
632 0.949717199503067 0 0.100081195125042
633 0.550063688287393 0 0.899927160293349
634 0.350002459389167 0 0.899928699437377
635 1.15000061777697 0 0.899999857194572
636 1.10000009358953 0 0.100003253633682
637 1.39999999843743 0 0.200000003262732
638 1.40000000370516 0 0.849999998239426
639 0.296710663910072 0 0.0998551747194765
640 0.101820897112566 0 0.402507644361539
641 0.49364632379224 0 0.127503212557857
642 0.797926923974159 0 0.0504746459058797
643 0.0989768874139491 0 0.0998033665942901
644 0.695130379124573 0 0.0504096819967968
645 0.345946938249953 0 0.0988645870421844
646 0.0457918496197367 0 0.653839671982692
647 1.40000000131946 0 0.899999999317437
648 1.04999463937963 0 0.0500033042348592
649 1.30000001133643 0 0.0500000075276436
650 1.40000000045793 0 0.0500000005634452
651 1.25000001000961 0 0.949999996374493
652 1.4499999988091 0 0.750000000788713
653 0.899621249097313 0 0.050113771878913
654 1.44999999993437 0 0.100000000221247
655 1.44999999406139 0 0.349999998284545
656 0.850011056537087 0 0.949990528696007
657 1.4499999933211 0 0.549999992107117
658 1.44999999642994 0 0.649999998866033
659 1.05000111844949 0 0.949999331570515
660 1.44999999227378 0 0.44999999283515
661 1.45000000038886 0 0.899999999815312
662 1.35000000164261 0 0.94999999918898
663 0.95001468400775 0 0.899990134042753
664 1.44999999774204 0 0.250000000506561
665 1.20000013266108 0 0.0500000885763288
666 0.149990977789585 0 0.899968045451669
667 0.0999932319525182 0 0.899957889669538
668 0.0495529679285367 0 0.0999207892670567
669 0.0499743274007585 0 0.849911371660446
670 0.199998853694774 0 0.94998796854296
671 0.700044947249168 0 0.899946853427586
672 0.650015151937169 0 0.949974374538647
673 0.299996497757708 0 0.949976594366707
674 0.0500471200157425 0 0.200647582496542
675 0.450021204506748 0 0.949965458387351
676 0.0494135070915729 0 0.750121531581333
677 0.0506366515346546 0 0.301636446706283
678 0.24597531178982 0 0.0501890395827228
679 0.147774293923675 0 0.0499190115105607
680 0.390949880151331 0 0.0973171282673402
681 0.594809399491156 0 0.048407477763257
682 0.0775825992062086 0 0.572792527804819
683 0.506452725305873 0 0.0869659912165615
684 0.0512852415751912 0 0.485719588330273
685 1.0000237971444 0 0.849988205852431
686 0.186193109563134 0 0.458678451135861
687 1.39999996750926 0 0.599999965813489
688 1.39999994566322 0 0.449999955394268
689 0.0963575216770403 0 0.700983514307099
690 0.694822503846614 0 0.100726840612271
691 0.100191069995276 0 0.200977270593086
692 1.20000066235916 0 0.100000436627742
693 0.848481346124839 0 0.100558294853272
694 1.35000000806553 0 0.100000006246579
695 1.40000001535009 0 0.749999996227629
696 1.25000007026793 0 0.89999996870151
697 0.999898980346715 0 0.100030449899494
698 1.10000187448711 0 0.899999351962262
699 0.900025030632207 0 0.8999823781256
700 0.600060995624664 0 0.899929679720522
701 0.540523478236072 0 0.137551046075526
702 0.593789833567662 0 0.0961426648691808
703 0.797470371065581 0 0.100962711590327
704 0.0992196745869774 0 0.150076834742453
705 0.150463264403621 0 0.35753579623358
706 0.102579615862327 0 0.354721768139132
707 0.899208555649266 0 0.100259829597817
708 0.0997420387284425 0 0.799878512657955
709 1.4000000006419 0 0.150000002786582
710 1.2000002571179 0 0.899999931979096
711 1.35000000751692 0 0.899999995499438
712 1.39999999470616 0 0.250000004549982
713 1.40000000160997 0 0.100000002040377
714 1.40000001202491 0 0.799999995880984
715 1.39999999073889 0 0.649999982382547
716 1.39999997054457 0 0.349999989512357
717 1.05000493889176 0 0.899997633451377
718 1.39999994612497 0 0.5499999427372
719 1.30000004918932 0 0.100000029889811
720 1.15000112775963 0 0.100001569447868
721 1.04997330183303 0 0.100011668614126
722 0.0999316619954227 0 0.849913179042142
723 0.850035230304739 0 0.89997321161581
724 0.750045112818317 0 0.89995498710741
725 0.249988379589164 0 0.899964571623879
726 0.199986660526244 0 0.899971451756733
727 0.400027710887781 0 0.899915283554084
728 0.101515262811289 0 0.252730625060874
729 0.650056562719348 0 0.899935064270286
730 0.500065885690077 0 0.89991853898281
731 0.299990702733359 0 0.899945219000347
732 0.197298185779546 0 0.10106637914417
733 0.247176463524933 0 0.101500618513847
734 0.147957944224216 0 0.100023776537367
735 0.0811544505209961 0 0.611255381257701
736 0.300037184580101 0 0.143932220519921
737 0.547377687489622 0 0.0912665246681766
738 0.346680129267244 0 0.149436565561119
739 0.0952132511164208 0 0.443105505055853
740 0.438173144059143 0 0.166774015606679
741 0.12021524846605 0 0.538727559766123
742 0.800094691035081 0 0.849929209360419
743 1.04992821236451 0 0.150023585486719
744 0.847875307569688 0 0.151077565137465
745 0.550141651687821 0 0.849855694328678
746 0.350047913604625 0 0.849867797922771
747 1.35000005981835 0 0.64999991704535
748 1.15000304361597 0 0.849999308442511
749 0.148413888729508 0 0.198142966441127
750 0.590339508381037 0 0.145404768312429
751 0.249973859211961 0 0.849945442030593
752 1.35000018979921 0 0.749999937630497
753 1.35000020183901 0 0.250000025356559
754 0.700118543802654 0 0.849894997437853
755 0.250771223643138 0 0.160718240185196
756 0.15316841976337 0 0.310446491874734
757 0.949348925520398 0 0.15017117635505
758 0.194968352123115 0 0.150895830609808
759 0.64356621567483 0 0.0991433535200568
760 0.0987661497744263 0 0.750179973768544
761 0.149919490543848 0 0.849944519603522
762 1.30000003215586 0 0.899999981933197
763 1.35000003301697 0 0.84999998177219
764 1.40000002724747 0 0.699999984916098
765 1.20000138739893 0 0.849999658137811
766 1.34999987088266 0 0.59999987681163
767 1.39999999688992 0 0.300000001533752
768 1.35000010267025 0 0.200000024187304
769 1.35000003695797 0 0.150000016132232
770 1.39999993239696 0 0.499999935564829
771 1.39999994990909 0 0.399999967811093
772 1.25000026105182 0 0.100000152564143
773 1.09998671789179 0 0.150011261494239
774 1.20000343512696 0 0.150001709336495
775 1.10000750772481 0 0.849997782190887
776 1.0500152812776 0 0.849993950635726
777 0.950041804749951 0 0.849976693667387
778 0.746273261338628 0 0.101096106138812
779 0.450052732563342 0 0.899911254224229
780 0.900063431141435 0 0.849961622021285
781 0.101924790437931 0 0.304364935282446
782 0.650136225205357 0 0.849877455351038
783 0.14730127477713 0 0.149426106958877
784 0.414307326560839 0 0.21361640752368
785 0.482194567361119 0 0.174757177953555
786 0.0906584443066898 0 0.652937632409519
787 0.225838885579897 0 0.434190591196233
788 0.151891242493234 0 0.483237886969468
789 0.199478802706146 0 0.318474340907419
790 0.121796778708534 0 0.592016147053883
791 0.316214951471403 0 0.179058525043825
792 1.00005826779504 0 0.799975789008197
793 0.700226919253837 0 0.799829544352798
794 1.09997790611323 0 0.200021085767891
795 0.242632852384117 0 0.482720650482483
796 1.30000069373413 0 0.649999810937661
797 1.34999961075935 0 0.449999816935548
798 1.15001022998461 0 0.7999978792131
799 0.472605640099104 0 0.224629556894643
800 0.148534273314876 0 0.750011933661706
801 1.30000014841318 0 0.849999931252431
802 1.34999969003664 0 0.549999850856946
803 1.300000932272 0 0.200000208744528
804 0.219590625321579 0 0.270366738636515
805 0.189510352381086 0 0.19310757111669
806 0.286395558765385 0 0.200873245994584
807 0.287402044255084 0 0.339753360506904
808 0.366092422441348 0 0.277575243895235
809 0.642715872669396 0 0.149564895692865
810 0.694916615434853 0 0.15124227127204
811 0.898663639046829 0 0.150514351858927
812 0.149575927175836 0 0.799962051067241
813 0.199921028308916 0 0.849961309414835
814 1.3500001230207 0 0.799999950139707
815 1.25000058165217 0 0.849999816332224
816 1.35000024880037 0 0.69999991577217
817 1.35000025689267 0 0.299999985063342
818 1.30000034595271 0 0.150000118244251
819 1.1500012472801 0 0.150005359695143
820 1.35000005055023 0 0.349999886020691
821 1.25000156411671 0 0.150000624425038
822 1.10002151172311 0 0.799994368120274
823 0.600146223823565 0 0.849863268940719
824 0.950091497054136 0 0.79995664773637
825 0.400092158002943 0 0.849839081860711
826 0.750110504578927 0 0.849910417135129
827 0.850083655313915 0 0.84994460675709
828 0.797008398746182 0 0.151792544346113
829 0.999709537805052 0 0.150070253134626
830 0.300019521441121 0 0.849907960282743
831 0.500134649309742 0 0.849841425288459
832 0.158922483646057 0 0.252789001783898
833 0.170153876751665 0 0.53386639027218
834 0.531602426080233 0 0.186281283162054
835 0.137283846857985 0 0.649119873697728
836 0.378364656532657 0 0.234671196533099
837 0.254305416828009 0 0.368086014777131
838 0.206236838472051 0 0.499439605632343
839 0.898086745417596 0 0.200884938744907
840 1.00011310317737 0 0.749959148453477
841 0.550090873294042 0 0.799818101693448
842 0.349962953853532 0 0.799846450188027
843 0.258770291357429 0 0.523504200005264
844 1.30000173863848 0 0.349999888028835
845 0.645240820728372 0 0.201066333058323
846 0.521999257471529 0 0.235126175544028
847 0.800185081078705 0 0.799880054404711
848 0.650229650267913 0 0.799816454698614
849 0.306522338923167 0 0.373597936363198
850 0.417999686242306 0 0.274118719405359
851 0.177631309333927 0 0.594723282400343
852 0.587653991562983 0 0.2026025268037
853 0.999445101277331 0 0.200113168372919
854 0.198523622528261 0 0.749874972041055
855 0.746147008156252 0 0.151964998588424
856 1.30000055543122 0 0.799999818185019
857 1.2000049950448 0 0.799998978158717
858 1.30000237745795 0 0.250000354709052
859 1.34999983703007 0 0.399999815561038
860 1.34999955140767 0 0.49999983408626
861 1.25000500287604 0 0.200001329849927
862 1.30000128989471 0 0.699999716104237
863 1.29999982336149 0 0.599999916193092
864 1.1500090360973 0 0.200010776389054
865 1.0500395494058 0 0.799986557837618
866 0.199572445999535 0 0.799956752248405
867 0.90012889338637 0 0.799932485212288
868 0.45012375658486 0 0.849830718209886
869 1.04980007558216 0 0.200050814615852
870 0.847420773687189 0 0.202010341679258
871 0.750210914565047 0 0.799852268382508
872 0.249748973123301 0 0.799957130437132
873 0.144734432543513 0 0.699904848222733
874 0.259967758654605 0 0.232637256801841
875 0.275047261140122 0 0.411178367953095
876 0.322801425540315 0 0.307242814818361
877 0.226605679676793 0 0.548953691105097
878 0.198908957869466 0 0.227273298501774
879 0.226745216680583 0 0.204454341212114
880 0.800316683494645 0 0.749819672568274
881 1.04968751462881 0 0.250070826786046
882 0.897860100868375 0 0.251310125862198
883 1.25000450626286 0 0.649999513248965
884 0.27100097450558 0 0.563911670088592
885 0.194331352085546 0 0.699514634851322
886 1.25001078818261 0 0.250002212542227
887 1.15002414092181 0 0.749995546845931
888 0.700358694614963 0 0.749749299220736
889 0.419013475312151 0 0.324835720260108
890 0.564883985998292 0 0.248144411155283
891 0.316730574571409 0 0.431699938684135
892 0.186449618224955 0 0.648319338331564
893 0.948841346164729 0 0.200374723902649
894 0.797168218726033 0 0.203048127456046
895 1.30000354869895 0 0.300000369341674
896 1.30000006152934 0 0.399999658779543
897 1.29999879983587 0 0.449999710886897
898 1.30000115648435 0 0.74999971058174
899 1.29999894133669 0 0.549999977782644
900 1.25000214920918 0 0.799999502242148
901 1.20001107597711 0 0.200004788321648
902 0.850164260481698 0 0.799905386810269
903 0.399932489672215 0 0.799767203233895
904 1.10004598218563 0 0.749989189353505
905 1.05007671241128 0 0.749976927977167
906 0.950168258945749 0 0.749930749752718
907 0.499971983377621 0 0.799792967655491
908 0.696895093851586 0 0.202282578329748
909 1.0999389537865 0 0.250036129994203
910 0.299857952431554 0 0.79994326224157
911 0.248312028596938 0 0.750138081718269
912 0.600161232606812 0 0.799827518774295
913 0.467364210432059 0 0.276199637111794
914 0.338559612710274 0 0.346458467397613
915 0.228737622306329 0 0.600585714733305
916 0.289105744303548 0 0.468160600543904
917 0.608384139780188 0 0.253720067087465
918 0.375839406948667 0 0.332652273949161
919 1.05012476453883 0 0.699965637611878
920 0.610074715084821 0 0.297874116363639
921 0.54933825855011 0 0.749960634822693
922 1.0999075603543 0 0.300045419596788
923 0.348230451893429 0 0.750090913345449
924 0.465556453206086 0 0.326566264946863
925 1.25000927022727 0 0.350002304520874
926 0.277565239960319 0 0.60547065065904
927 0.948463397438665 0 0.250524595154559
928 1.25000570752667 0 0.699999175719005
929 1.20002394956111 0 0.250007685383674
930 0.900227400774271 0 0.74989601043738
931 0.243878683075981 0 0.700563809560093
932 0.334690740439509 0 0.496407120183612
933 0.999139586728674 0 0.250199333759347
934 0.297926586097772 0 0.750359009466465
935 0.747327157778388 0 0.203103557625201
936 0.847961450459456 0 0.252650462308797
937 1.29999842207729 0 0.499999904374741
938 1.25000176577616 0 0.599999827667909
939 1.25000443212568 0 0.749999203436433
940 1.20001191222466 0 0.749998016382157
941 1.25001402341688 0 0.300003097243016
942 1.24999698338319 0 0.450000654468721
943 1.15000860805541 0 0.250018623281463
944 0.750350062076641 0 0.749779223219631
945 1.15004070970776 0 0.699992827532817
946 0.449872047455841 0 0.799757140134993
947 1.00018892025645 0 0.699938112276607
948 0.850281219166413 0 0.749857462482571
949 0.650249469703778 0 0.749756204248938
950 0.516011047556839 0 0.283923708972397
951 0.343211112859459 0 0.393752969290987
952 0.652229298234928 0 0.251977732837734
953 0.294053324532296 0 0.516607177742237
954 0.422122227210855 0 0.370453134640285
955 0.382803127273733 0 0.377415414143889
956 0.236432189728829 0 0.6507822902906
957 0.800508578801962 0 0.699742911505743
958 0.948263920295325 0 0.300592794754116
959 1.05018053452723 0 0.649949208116876
960 0.657897495600407 0 0.301220188353069
961 0.463942837614804 0 0.376033590921013
962 1.24999822106744 0 0.549999882117223
963 1.20002654940451 0 0.300010594100789
964 0.700636898952519 0 0.699603618464887
965 0.347117833688676 0 0.540234854598998
966 0.409861330524574 0 0.422950256882142
967 0.29289463359626 0 0.701636900805272
968 0.799010547908705 0 0.253551340690902
969 0.898187294500567 0 0.301377311301739
970 1.04953024913681 0 0.300092358277391
971 1.20001854525224 0 0.649997185206208
972 1.25000251791064 0 0.400001975053431
973 1.24999592303689 0 0.50000010525939
974 0.9502694791504 0 0.699900611097079
975 1.2000186713027 0 0.699997066468374
976 0.398099272864648 0 0.749767067512132
977 1.100078768707 0 0.699981601302021
978 0.498732376819862 0 0.749956779207402
979 0.599833322100253 0 0.749842094778724
980 1.15000256663908 0 0.300025030318912
981 0.900357138267942 0 0.699853807816696
982 0.701423625513368 0 0.252892298452087
983 0.513238328799912 0 0.332937597122788
984 0.563104310607786 0 0.29223569661066
985 0.35857671479475 0 0.445750574002168
986 0.285493900859582 0 0.653196311214463
987 0.309932479434533 0 0.554888652306606
988 0.463552079887347 0 0.426219869119085
989 0.948251331633128 0 0.350516926815666
990 0.950375148290537 0 0.64986873899394
991 0.547646999537403 0 0.699907028215486
992 0.372589634564583 0 0.573378103237279
993 0.61060091525297 0 0.345859017532405
994 1.19997739272773 0 0.450003921319161
995 1.09978838728104 0 0.350048474077044
996 1.15005113441979 0 0.649989061808452
997 1.20000865062634 0 0.350011769969078
998 0.511836609459232 0 0.382309349394668
999 0.706029408756251 0 0.302791719981555
1000 0.332570280704215 0 0.655554429359094
1001 0.421161143861559 0 0.47711692598096
1002 0.998936565870912 0 0.300248966624512
1003 0.750454072848292 0 0.253406563283721
1004 0.849256321475085 0 0.302213213536595
1005 1.20001309641767 0 0.599996180113573
1006 1.19999965481066 0 0.549995693986389
1007 0.850438585091741 0 0.699798884915092
1008 0.448218040399742 0 0.749783359715438
1009 1.10010677761683 0 0.649972233137822
1010 0.650410542682881 0 0.699499625862124
1011 1.00027164307351 0 0.649912414566577
1012 0.750608878310737 0 0.699677898300797
1013 0.342512052517791 0 0.700774243935772
1014 0.333281587422928 0 0.601779171331972
1015 0.382183875230176 0 0.489347814587508
1016 0.561665816595342 0 0.339967079685221
1017 0.800794267731956 0 0.64964426056084
1018 0.51223171412274 0 0.431905240761651
1019 1.05021193358921 0 0.599924889386082
1020 0.389580126520255 0 0.642067468274279
1021 0.998791265865565 0 0.350226094061987
1022 1.15004544012941 0 0.599983381995248
1023 0.701719683451897 0 0.649342248660566
1024 0.900487609820963 0 0.649808148754272
1025 0.801470570302366 0 0.302682417599408
1026 0.42810007565981 0 0.510420024508426
1027 0.445906936698884 0 0.700065261310617
1028 1.0493638099539 0 0.350098893175909
1029 0.898444766413868 0 0.35094182005818
1030 1.19998206573421 0 0.499997984764815
1031 1.1999857993839 0 0.400009834701693
1032 0.659606111577649 0 0.350236169911639
1033 0.394118229186737 0 0.699349526800741
1034 0.496586186216337 0 0.700919434481149
1035 0.599339695536519 0 0.699259987863547
1036 1.14994408516441 0 0.350027310354246
1037 1.0003177407239 0 0.599884921729146
1038 0.560717951336836 0 0.38895171417996
1039 0.466400900482605 0 0.475613943519018
1040 0.39725420880541 0 0.531663578398445
1041 0.753802840074913 0 0.30288539276634
1042 0.561217845707982 0 0.438468631891635
1043 0.544357371292604 0 0.644899021756588
1044 1.05011422648325 0 0.549909364416939
1045 0.948425527393088 0 0.40032736996532
1046 1.0996541886858 0 0.400030338883984
1047 0.464531784773183 0 0.524913325773797
1048 0.448441938446054 0 0.652137205155856
1049 1.15000861641913 0 0.549980369995524
1050 0.433212055478528 0 0.557815773624463
1051 0.802120938443192 0 0.351530924306533
1052 0.707584300481361 0 0.35224683502722
1053 0.998811050141612 0 0.400145760569672
1054 0.950425166239886 0 0.599843024615406
1055 1.14988227565906 0 0.450003664077229
1056 0.65145783796792 0 0.648532673748889
1057 1.10010398583264 0 0.599958699402643
1058 0.751266777820552 0 0.649554908893624
1059 1.14987739212896 0 0.400018571137885
1060 0.610096052734335 0 0.394902265613453
1061 0.850606354819526 0 0.649726748397758
1062 0.514162605187055 0 0.481320985580879
1063 0.849663478659977 0 0.351228609825375
1064 0.413667711828128 0 0.593442306622212
1065 0.801125480890393 0 0.59959050149113
1066 0.703957787473646 0 0.599183732083205
1067 0.801387934784606 0 0.400729296030913
1068 0.610445828516679 0 0.444428859548226
1069 0.513221251174581 0 0.526043793937324
1070 0.999157361572245 0 0.450033279772285
1071 1.00018072393604 0 0.549882698644939
1072 1.09968296684882 0 0.449990752097567
1073 0.49426196218461 0 0.657957187174693
1074 0.659016053826158 0 0.399472982475469
1075 0.898624043907674 0 0.400450873286581
1076 1.14993820057897 0 0.499985886662207
1077 0.599921162519433 0 0.647826359183764
1078 1.04928694775441 0 0.400060224095113
1079 1.10003210400639 0 0.549950465004978
1080 0.900530847716796 0 0.599772297292232
1081 0.754700497953535 0 0.35220949266852
1082 0.460223249830846 0 0.6084183976315
1083 0.563258904070002 0 0.488090383430338
1084 0.472703570004313 0 0.57035097237289
1085 0.658935409537906 0 0.448848844652537
1086 0.563090399904266 0 0.541034166934517
1087 0.706762999220581 0 0.401549683085283
1088 0.654592354737371 0 0.597127746244788
1089 0.555660346191 0 0.604119608620548
1090 1.04946488459335 0 0.449992048876309
1091 1.0498162706988 0 0.499937221648551
1092 0.752320901437152 0 0.599581617943316
1093 0.949062815729237 0 0.450125500186268
1094 0.950252424248321 0 0.54986455809479
1095 0.850692763176466 0 0.59967161659029
1096 1.09986986286471 0 0.499965627229566
1097 0.849605091026465 0 0.40050430725906
1098 0.612170583858068 0 0.493574253611313
1099 0.753916334938876 0 0.401537841676255
1100 0.502126432916329 0 0.61838435947023
1101 0.800947907608381 0 0.450355560153396
1102 0.850550544927196 0 0.54968986472557
1103 0.899201058362062 0 0.450131715204555
1104 0.75317624490066 0 0.549978464440676
1105 0.706336609738061 0 0.450884638208383
1106 0.705969052448579 0 0.549489372186125
1107 0.613924609348167 0 0.53967681782801
1108 0.999762001260339 0 0.499945081070174
1109 0.597093457224866 0 0.591527996394108
1110 0.900339774381903 0 0.549811181574419
1111 0.659662398561715 0 0.497530240565708
1112 0.520647659570289 0 0.577790208326944
1113 0.801312733414797 0 0.549758452762082
1114 0.849850658094699 0 0.450133990537472
1115 0.949763714566838 0 0.499963031463443
1116 0.899884953968737 0 0.499933338940973
1117 0.753369195000024 0 0.500511822981291
1118 0.753552134208628 0 0.450956526246334
1119 0.706507268366365 0 0.499849232256786
1120 0.657874168122138 0 0.546304689283905
1121 0.801350380547619 0 0.500049158200563
1122 0.850343488880657 0 0.499930341544494
$EndNodes
$Elements
1061
1 2 2 1 1 300 310 306 
2 2 2 1 1 96 105 95 
3 2 2 1 1 87 265 88 
4 2 2 1 1 360 382 363 
5 2 2 1 1 93 144 94 
6 2 2 1 1 86 258 243 
7 2 2 1 1 454 455 453 
8 2 2 1 1 190 231 205 
9 2 2 1 1 89 207 90 
10 2 2 1 1 118 266 187 
11 2 2 1 1 274 327 280 
12 2 2 1 1 336 374 310 
13 2 2 1 1 423 431 406 
14 2 2 1 1 431 449 446 
15 2 2 1 1 374 383 332 
16 2 2 1 1 308 352 295 
17 2 2 1 1 258 264 203 
18 2 2 1 1 439 449 420 
19 2 2 1 1 84 264 85 
20 2 2 1 1 81 142 82 
21 2 2 1 1 372 373 357 
22 2 2 1 1 3 97 22 
23 3 2 1 1 5 44 117 43
24 3 2 1 1 104 132 49 50
25 3 2 1 1 27 28 123 106
26 3 2 1 1 116 126 59 60
27 3 2 1 1 11 108 121 10
28 3 2 1 1 10 121 122 9
29 3 2 1 1 109 128 46 47
30 3 2 1 1 127 110 65 66
31 3 2 1 1 101 129 56 57
32 3 2 1 1 6 63 125 62
33 3 2 1 1 53 98 135 52
34 3 2 1 1 67 131 127 66
35 3 2 1 1 56 129 134 55
36 3 2 1 1 70 133 100 69
37 3 2 1 1 61 168 116 60
38 3 2 1 1 125 168 61 62
39 3 2 1 1 125 63 64 169
40 3 2 1 1 64 65 110 169
41 3 2 1 1 169 210 168 125
42 3 2 1 1 58 170 101 57
43 3 2 1 1 42 171 111 41
44 3 2 1 1 126 170 58 59
45 3 2 1 1 117 171 42 43
46 3 2 1 1 210 154 116 168
47 3 2 1 1 111 175 40 41
48 3 2 1 1 117 44 45 172
49 3 2 1 1 131 67 68 174
50 3 2 1 1 172 214 171 117
51 3 2 1 1 45 46 128 172
52 3 2 1 1 154 200 126 116
53 3 2 1 1 131 151 173 127
54 3 2 1 1 210 169 110 211
55 3 2 1 1 214 212 111 171
56 3 2 1 1 68 69 100 174
57 3 2 1 1 130 103 38 39
58 3 2 1 1 109 47 48 176
59 3 2 1 1 128 109 157 198
60 3 2 1 1 110 127 173 211
61 3 2 1 1 214 172 128 198
62 3 2 1 1 40 175 130 39
63 3 2 1 1 37 179 136 36
64 3 2 1 1 48 49 132 176
65 3 2 1 1 151 255 196 173
66 3 2 1 1 175 111 212 250
67 3 2 1 1 98 53 54 180
68 3 2 1 1 154 210 211 248
69 3 2 1 1 196 248 211 173
70 3 2 1 1 126 200 215 170
71 3 2 1 1 170 215 148 101
72 3 2 1 1 103 179 37 38
73 3 2 1 1 152 103 130 213
74 3 2 1 1 249 198 157 239
75 3 2 1 1 104 50 51 178
76 3 2 1 1 129 177 216 134
77 3 2 1 1 101 148 177 129
78 3 2 1 1 292 248 196 290
79 3 2 1 1 174 218 151 131
80 3 2 1 1 130 175 250 213
81 3 2 1 1 200 154 248 292
82 3 2 1 1 212 214 198 249
83 3 2 1 1 99 34 35 181
84 3 2 1 1 176 217 157 109
85 3 2 1 1 54 55 134 180
86 3 2 1 1 238 152 213 276
87 3 2 1 1 147 218 174 100
88 3 2 1 1 133 223 147 100
89 3 2 1 1 217 176 132 199
90 3 2 1 1 250 212 249 291
91 3 2 1 1 194 247 177 148
92 3 2 1 1 199 158 237 284
93 3 2 1 1 51 52 135 178
94 3 2 1 1 132 104 158 199
95 3 2 1 1 287 238 315 340
96 3 2 1 1 137 32 33 182
97 3 2 1 1 200 292 254 215
98 3 2 1 1 35 36 136 181
99 3 2 1 1 284 253 217 199
100 3 2 1 1 252 219 98 180
101 3 2 1 1 215 254 194 148
102 3 2 1 1 239 253 316 293
103 3 2 1 1 219 146 135 98
104 3 2 1 1 180 134 216 252
105 3 2 1 1 221 152 238 287
106 3 2 1 1 213 250 291 276
107 3 2 1 1 321 271 330 369
108 3 2 1 1 123 28 29 166
109 3 2 1 1 240 255 151 218
110 3 2 1 1 386 365 379 399
111 3 2 1 1 146 222 178 135
112 3 2 1 1 253 239 157 217
113 3 2 1 1 179 103 152 221
114 3 2 1 1 256 193 99 181
115 3 2 1 1 293 291 249 239
116 3 2 1 1 389 405 362 344
117 3 2 1 1 133 70 71 183
118 3 2 1 1 287 235 220 221
119 3 2 1 1 33 34 99 182
120 3 2 1 1 221 220 136 179
121 3 2 1 1 181 136 220 256
122 3 2 1 1 196 255 294 290
123 3 2 1 1 237 158 222 288
124 3 2 1 1 182 99 193 246
125 3 2 1 1 358 379 365 345
126 3 2 1 1 365 386 340 315
127 3 2 1 1 158 104 178 222
128 3 2 1 1 320 273 194 254
129 3 2 1 1 29 30 102 166
130 3 2 1 1 238 276 319 315
131 3 2 1 1 320 334 344 273
132 3 2 1 1 365 315 319 345
133 3 2 1 1 71 72 107 183
134 3 2 1 1 146 261 288 222
135 3 2 1 1 330 271 318 366
136 3 2 1 1 254 292 290 320
137 3 2 1 1 320 290 294 334
138 3 2 1 1 223 133 183 201
139 3 2 1 1 316 345 319 293
140 3 2 1 1 218 147 251 240
141 3 2 1 1 256 220 235 282
142 3 2 1 1 235 287 340 303
143 3 2 1 1 102 30 31 184
144 3 2 1 1 251 257 318 271
145 3 2 1 1 424 399 379 401
146 3 2 1 1 276 291 293 319
147 3 2 1 1 303 341 282 235
148 3 2 1 1 433 377 403 422
149 3 2 1 1 149 201 183 107
150 3 2 1 1 147 223 257 251
151 3 2 1 1 386 399 403 364
152 3 2 1 1 31 32 137 184
153 3 2 1 1 271 321 240 251
154 3 2 1 1 334 294 321 369
155 3 2 1 1 193 256 282 275
156 3 2 1 1 321 294 255 240
157 3 2 1 1 354 341 303 364
158 3 2 1 1 340 386 364 303
159 3 2 1 1 422 403 399 424
160 3 2 1 1 364 403 377 354
161 3 2 1 1 318 343 390 366
162 3 2 1 1 193 275 314 246
163 3 2 1 1 390 367 411 423
164 3 2 1 1 209 137 182 246
165 3 2 1 1 78 79 120 112
166 3 2 1 1 102 184 245 195
167 3 2 1 1 341 354 388 313
168 3 2 1 1 245 184 137 209
169 3 2 1 1 12 13 139 185
170 3 2 1 1 108 11 12 185
171 3 2 1 1 368 333 313 388
172 3 2 1 1 389 381 426 405
173 3 2 1 1 416 400 377 433
174 3 2 1 1 344 334 369 389
175 3 2 1 1 270 304 335 312
176 3 2 1 1 14 113 139 13
177 3 2 1 1 400 388 354 377
178 3 2 1 1 389 369 330 381
179 3 2 1 1 282 341 313 275
180 3 2 1 1 404 368 388 400
181 3 2 1 1 366 390 423 406
182 3 2 1 1 333 314 275 313
183 3 2 1 1 113 14 15 186
184 3 2 1 1 330 366 406 381
185 3 2 1 1 246 314 283 209
186 3 2 1 1 339 283 314 333
187 3 2 1 1 333 368 355 339
188 3 2 1 1 283 339 304 270
189 3 2 1 1 209 283 270 245
190 3 2 1 1 15 16 114 186
191 3 2 1 1 1 8 140 80
192 3 2 1 1 166 244 208 123
193 3 2 1 1 120 79 80 140
194 3 2 1 1 8 9 122 140
195 3 2 1 1 317 273 344 362
196 3 2 1 1 245 270 312 195
197 3 2 1 1 244 166 102 195
198 3 2 1 1 140 122 188 120
199 3 2 1 1 108 156 164 121
200 3 2 1 1 156 108 185 225
201 3 2 1 1 247 194 273 317
202 3 2 1 1 123 208 155 106
203 3 2 1 1 447 416 433 448
204 3 2 1 1 281 244 195 312
205 3 2 1 1 379 358 391 401
206 3 2 1 1 391 356 408 401
207 3 2 1 1 159 112 120 188
208 3 2 1 1 121 164 188 122
209 3 2 1 1 381 406 431 426
210 3 2 1 1 223 201 289 257
211 3 2 1 1 289 234 323 343
212 3 2 1 1 376 355 368 404
213 3 2 1 1 367 390 343 323
214 3 2 1 1 401 408 421 424
215 3 2 1 1 424 421 437 422
216 3 2 1 1 124 25 26 165
217 3 2 1 1 448 445 456 447
218 3 2 1 1 17 2 118 187
219 3 2 1 1 4 25 124 24
220 3 2 1 1 312 335 338 281
221 3 2 1 1 427 436 437 421
222 3 2 1 1 431 446 432 426
223 3 2 1 1 337 317 362 393
224 3 2 1 1 425 405 426 432
225 3 2 1 1 318 257 289 343
226 3 2 1 1 114 16 17 187
227 3 2 1 1 167 77 78 112
228 3 2 1 1 400 416 438 404
229 3 2 1 1 393 362 405 425
230 3 2 1 1 316 253 284 342
231 3 2 1 1 285 247 317 337
232 3 2 1 1 342 358 345 316
233 3 2 1 1 422 437 448 433
234 3 2 1 1 437 436 445 448
235 3 2 1 1 392 304 339 355
236 3 2 1 1 307 351 359 329
237 3 2 1 1 26 27 106 165
238 3 2 1 1 216 177 247 285
239 3 2 1 1 427 421 408 378
240 3 2 1 1 160 113 186 224
241 3 2 1 1 304 392 373 335
242 3 2 1 1 156 203 227 164
243 3 2 1 1 106 155 206 165
244 3 2 1 1 391 358 342 305
245 3 2 1 1 164 227 159 188
246 3 2 1 1 237 288 350 305
247 3 2 1 1 201 149 234 289
248 3 2 1 1 142 76 77 167
249 3 2 1 1 402 414 439 420
250 3 2 1 1 114 207 224 186
251 3 2 1 1 371 347 385 378
252 3 2 1 1 391 305 350 356
253 3 2 1 1 409 415 397 385
254 3 2 1 1 83 84 262 232
255 3 2 1 1 325 371 356 350
256 3 2 1 1 284 237 305 342
257 3 2 1 1 118 2 18 144
258 3 2 1 1 409 361 393 425
259 3 2 1 1 425 432 415 409
260 3 2 1 1 325 350 288 261
261 3 2 1 1 432 446 444 415
262 3 2 1 1 434 441 429 407
263 3 2 1 1 328 307 329 349
264 3 2 1 1 84 85 279 262
265 3 2 1 1 415 444 435 397
266 3 2 1 1 82 83 232 192
267 3 2 1 1 115 124 165 206
268 3 2 1 1 232 262 272 268
269 3 2 1 1 286 233 219 252
270 3 2 1 1 252 216 285 286
271 3 2 1 1 3 23 115 143
272 3 2 1 1 262 279 309 272
273 3 2 1 1 23 24 124 115
274 3 2 1 1 279 301 328 309
275 3 2 1 1 408 356 371 378
276 3 2 1 1 392 355 376 384
277 3 2 1 1 95 20 21 96
278 3 2 1 1 96 21 22 97
279 3 2 1 1 94 19 20 95
280 3 2 1 1 155 208 274 242
281 3 2 1 1 208 244 281 274
282 3 2 1 1 85 86 301 279
283 3 2 1 1 81 82 192 119
284 3 2 1 1 285 337 311 286
285 3 2 1 1 73 138 107 72
286 3 2 1 1 86 87 277 301
287 3 2 1 1 234 299 306 323
288 3 2 1 1 351 307 277 296
289 3 2 1 1 367 332 383 411
290 3 2 1 1 163 74 75 119
291 3 2 1 1 206 155 242 161
292 3 2 1 1 281 338 327 274
293 3 2 1 1 88 265 160 224
294 3 2 1 1 138 73 74 163
295 3 2 1 1 456 453 452 442
296 3 2 1 1 163 197 267 138
297 3 2 1 1 297 278 263 229
298 3 2 1 1 278 297 302 346
299 3 2 1 1 301 277 307 328
300 3 2 1 1 286 311 269 233
301 3 2 1 1 241 263 278 322
302 3 2 1 1 308 327 338 372
303 3 2 1 1 94 95 141 189
304 3 2 1 1 353 394 398 407
305 3 2 1 1 407 429 387 353
306 3 2 1 1 89 90 263 241
307 3 2 1 1 436 435 454 445
308 3 2 1 1 88 89 241 296
309 3 2 1 1 435 436 427 397
310 3 2 1 1 192 232 268 197
311 3 2 1 1 236 298 326 348
312 3 2 1 1 346 375 322 278
313 3 2 1 1 7 81 119 75
314 3 2 1 1 296 277 87 88
315 3 2 1 1 91 92 153 229
316 3 2 1 1 347 371 325 269
317 3 2 1 1 229 263 90 91
318 3 2 1 1 324 326 298 259
319 3 2 1 1 93 94 189 230
320 3 2 1 1 443 439 414 430
321 3 2 1 1 295 226 260 308
322 3 2 1 1 347 269 311 361
323 3 2 1 1 348 302 297 236
324 3 2 1 1 380 413 418 396
325 3 2 1 1 322 351 296 241
326 3 2 1 1 337 393 361 311
327 3 2 1 1 346 302 353 387
328 3 2 1 1 329 359 380 360
329 3 2 1 1 419 376 404 438
330 3 2 1 1 260 150 205 280
331 3 2 1 1 349 329 360 363
332 3 2 1 1 203 156 225 258
333 3 2 1 1 146 219 233 261
334 3 2 1 1 335 373 372 338
335 3 2 1 1 139 113 160 202
336 3 2 1 1 376 419 412 384
337 3 2 1 1 92 93 230 153
338 3 2 1 1 384 357 373 392
339 3 2 1 1 370 394 348 326
340 3 2 1 1 139 202 225 185
341 3 2 1 1 326 324 331 370
342 3 2 1 1 309 328 349 336
343 3 2 1 1 229 153 236 297
344 3 2 1 1 413 387 429 418
345 3 2 1 1 161 242 205 231
346 3 2 1 1 352 331 324 295
347 3 2 1 1 153 230 298 236
348 3 2 1 1 76 142 81 7
349 3 2 1 1 302 348 394 353
350 3 2 1 1 145 190 105 96
351 3 2 1 1 197 163 119 192
352 3 2 1 1 351 322 375 359
353 3 2 1 1 450 442 434 417
354 3 2 1 1 227 203 264 228
355 3 2 1 1 420 449 431 423
356 3 2 1 1 268 272 310 300
357 3 2 1 1 167 112 159 162
358 3 2 1 1 410 398 394 370
359 3 2 1 1 445 454 453 456
360 3 2 1 1 259 298 230 189
361 3 2 1 1 361 409 385 347
362 3 2 1 1 418 429 441 430
363 3 2 1 1 395 410 370 331
364 3 2 1 1 452 443 430 441
365 3 2 1 1 226 259 189 141
366 3 2 1 1 360 380 396 382
367 3 2 1 1 299 234 149 204
368 3 2 1 1 202 243 258 225
369 3 2 1 1 336 310 272 309
370 3 2 1 1 295 324 259 226
371 3 2 1 1 375 346 387 413
372 3 2 1 1 114 187 266 207
373 3 2 1 1 331 352 357 395
374 3 2 1 1 266 91 90 207
375 3 2 1 1 118 92 91 266
376 3 2 1 1 300 267 197 268
377 3 2 1 1 397 427 378 385
378 3 2 1 1 454 435 444 455
379 3 2 1 1 374 332 306 310
380 3 2 1 1 441 434 442 452
381 3 2 1 1 407 398 417 434
382 3 2 1 1 372 357 352 308
383 3 2 1 1 162 82 142 167
384 3 2 1 1 443 452 453 455
385 3 2 1 1 414 402 382 396
386 3 2 1 1 455 449 439 443
387 3 2 1 1 398 410 428 417
388 3 2 1 1 411 402 420 423
389 3 2 1 1 105 150 141 95
390 3 2 1 1 456 442 450 447
391 3 2 1 1 440 419 438 451
392 3 2 1 1 162 228 83 82
393 3 2 1 1 228 264 84 83
394 3 2 1 1 413 380 359 375
395 3 2 1 1 419 440 428 412
396 3 2 1 1 144 93 92 118
397 3 2 1 1 363 374 336 349
398 3 2 1 1 144 18 19 94
399 3 2 1 1 261 233 269 325
400 3 2 1 1 383 374 363 382
401 3 2 1 1 258 86 85 264
402 3 2 1 1 150 260 226 141
403 3 2 1 1 161 143 115 206
404 3 2 1 1 384 412 395 357
405 3 2 1 1 446 449 455 444
406 3 2 1 1 159 227 228 162
407 3 2 1 1 190 205 150 105
408 3 2 1 1 412 428 410 395
409 3 2 1 1 323 306 332 367
410 3 2 1 1 402 411 383 382
411 3 2 1 1 299 267 300 306
412 3 2 1 1 143 191 97 3
413 3 2 1 1 260 280 327 308
414 3 2 1 1 430 414 396 418
415 3 2 1 1 417 428 440 450
416 3 2 1 1 243 265 87 86
417 3 2 1 1 267 299 204 138
418 3 2 1 1 265 243 202 160
419 3 2 1 1 224 207 89 88
420 3 2 1 1 231 191 143 161
421 3 2 1 1 191 231 190 145
422 3 2 1 1 242 274 280 205
423 3 2 1 1 451 438 416 447
424 3 2 1 1 107 138 204 149
425 3 2 1 1 450 440 451 447
426 3 2 1 1 145 96 97 191
427 2 2 2 2 1014 1020 1000 
428 2 2 2 2 566 806 791 
429 2 2 2 2 1073 1100 1043 
430 2 2 2 2 738 791 736 
431 2 2 2 2 464 546 557 
432 2 2 2 2 1107 1109 1086 
433 2 2 2 2 571 474 458 
434 2 2 2 2 954 966 955 
435 2 2 2 2 561 705 562 
436 2 2 2 2 558 684 559 
437 2 2 2 2 568 680 569 
438 2 2 2 2 832 878 804 
439 2 2 2 2 569 740 568 
440 2 2 2 2 1086 1112 1069 
441 2 2 2 2 563 837 562 
442 2 2 2 2 562 789 563 
443 2 2 2 2 965 1040 992 
444 2 2 2 2 985 1015 932 
445 2 2 2 2 914 951 849 
446 2 2 2 2 951 985 891 
447 2 2 2 2 557 624 464 
448 2 2 2 2 852 917 890 
449 2 2 2 2 560 788 559 
450 2 2 2 2 458 625 571 
451 2 2 2 2 1047 1084 1050 
452 2 2 2 2 682 790 735 
453 2 2 2 2 567 738 568 
454 2 2 2 2 559 741 558 
455 2 2 2 2 566 836 808 
456 2 2 2 2 891 916 875 
457 2 2 2 2 558 682 557 
458 2 2 2 2 932 953 916 
459 2 2 2 2 843 884 877 
460 2 2 2 2 838 877 833 
461 2 2 2 2 571 683 570 
462 2 2 2 2 557 627 558 
463 2 2 2 2 559 739 560 
464 2 2 2 2 805 879 878 
465 2 2 2 2 629 571 570 
466 2 2 2 2 570 569 629 
467 3 2 2 2 549 601 628 548
468 3 2 2 2 573 659 518 519
469 3 2 2 2 615 517 518 659
470 3 2 2 2 471 622 594 470
471 3 2 2 2 608 513 514 651
472 3 2 2 2 696 762 608 651
473 3 2 2 2 638 714 611 591
474 3 2 2 2 665 485 486 583
475 3 2 2 2 591 611 506 507
476 3 2 2 2 481 460 612 597
477 3 2 2 2 617 538 463 539
478 3 2 2 2 500 501 657 576
479 3 2 2 2 524 609 574 523
480 3 2 2 2 574 656 522 523
481 3 2 2 2 606 657 501 502
482 3 2 2 2 664 712 637 586
483 3 2 2 2 493 494 586 607
484 3 2 2 2 495 664 586 494
485 3 2 2 2 637 709 607 586
486 3 2 2 2 607 654 492 493
487 3 2 2 2 491 596 490 461
488 3 2 2 2 529 621 619 528
489 3 2 2 2 635 710 579 604
490 3 2 2 2 713 654 607 709
491 3 2 2 2 603 661 508 509
492 3 2 2 2 515 579 651 514
493 3 2 2 2 572 459 480 653
494 3 2 2 2 540 598 617 539
495 3 2 2 2 579 515 516 604
496 3 2 2 2 517 615 604 516
497 3 2 2 2 599 601 549 550
498 3 2 2 2 613 521 522 656
499 3 2 2 2 651 579 710 696
500 3 2 2 2 698 635 604 615
501 3 2 2 2 504 582 658 503
502 3 2 2 2 647 661 603 595
503 3 2 2 2 762 711 662 608
504 3 2 2 2 504 505 652 582
505 3 2 2 2 525 620 609 524
506 3 2 2 2 491 492 654 596
507 3 2 2 2 649 487 488 592
508 3 2 2 2 717 659 573 630
509 3 2 2 2 583 486 487 649
510 3 2 2 2 537 616 593 536
511 3 2 2 2 510 603 509 462
512 3 2 2 2 507 508 661 591
513 3 2 2 2 506 611 652 505
514 3 2 2 2 647 711 763 638
515 3 2 2 2 502 503 658 606
516 3 2 2 2 647 638 591 661
517 3 2 2 2 662 595 511 512
518 3 2 2 2 605 663 630 573
519 3 2 2 2 573 519 520 605
520 3 2 2 2 460 482 648 612
521 3 2 2 2 648 482 483 578
522 3 2 2 2 481 597 653 480
523 3 2 2 2 617 616 537 538
524 3 2 2 2 521 613 605 520
525 3 2 2 2 769 694 713 709
526 3 2 2 2 768 769 709 637
527 3 2 2 2 485 665 614 484
528 3 2 2 2 748 765 710 635
529 3 2 2 2 532 618 577 531
530 3 2 2 2 662 711 647 595
531 3 2 2 2 662 512 513 608
532 3 2 2 2 717 698 615 659
533 3 2 2 2 484 614 578 483
534 3 2 2 2 603 510 511 595
535 3 2 2 2 654 713 650 596
536 3 2 2 2 650 713 694 592
537 3 2 2 2 694 719 649 592
538 3 2 2 2 490 596 650 489
539 3 2 2 2 489 650 592 488
540 3 2 2 2 762 801 763 711
541 3 2 2 2 715 658 582 764
542 3 2 2 2 763 814 714 638
543 3 2 2 2 576 660 499 500
544 3 2 2 2 695 764 582 652
545 3 2 2 2 611 714 695 652
546 3 2 2 2 580 664 495 496
547 3 2 2 2 497 655 580 496
548 3 2 2 2 610 655 497 498
549 3 2 2 2 715 687 606 658
550 3 2 2 2 856 898 752 814
551 3 2 2 2 801 762 696 815
552 3 2 2 2 814 752 695 714
553 3 2 2 2 814 763 801 856
554 3 2 2 2 499 660 610 498
555 3 2 2 2 715 747 766 687
556 3 2 2 2 606 687 718 657
557 3 2 2 2 696 710 765 815
558 3 2 2 2 748 635 698 775
559 3 2 2 2 576 770 688 660
560 3 2 2 2 712 664 580 767
561 3 2 2 2 695 752 816 764
562 3 2 2 2 747 715 764 816
563 3 2 2 2 718 770 576 657
564 3 2 2 2 716 655 610 771
565 3 2 2 2 580 655 716 767
566 3 2 2 2 583 772 692 665
567 3 2 2 2 766 802 718 687
568 3 2 2 2 712 753 768 637
569 3 2 2 2 768 803 818 769
570 3 2 2 2 610 660 688 771
571 3 2 2 2 719 772 583 649
572 3 2 2 2 860 797 688 770
573 3 2 2 2 820 817 767 716
574 3 2 2 2 767 817 753 712
575 3 2 2 2 719 694 769 818
576 3 2 2 2 803 768 753 858
577 3 2 2 2 820 716 771 859
578 3 2 2 2 802 860 770 718
579 3 2 2 2 614 665 692 720
580 3 2 2 2 771 688 797 859
581 3 2 2 2 858 753 817 895
582 3 2 2 2 820 844 895 817
583 3 2 2 2 774 819 720 692
584 3 2 2 2 636 578 614 720
585 3 2 2 2 636 721 648 578
586 3 2 2 2 861 901 774 821
587 3 2 2 2 897 896 859 797
588 3 2 2 2 612 648 721 697
589 3 2 2 2 821 818 803 861
590 3 2 2 2 821 772 719 818
591 3 2 2 2 772 821 774 692
592 3 2 2 2 752 898 862 816
593 3 2 2 2 844 820 859 896
594 3 2 2 2 844 925 941 895
595 3 2 2 2 861 803 858 886
596 3 2 2 2 895 941 886 858
597 3 2 2 2 773 636 720 819
598 3 2 2 2 632 707 653 597
599 3 2 2 2 632 597 612 697
600 3 2 2 2 829 697 721 743
601 3 2 2 2 743 721 636 773
602 3 2 2 2 863 899 802 766
603 3 2 2 2 886 929 901 861
604 3 2 2 2 796 747 816 862
605 3 2 2 2 766 747 796 863
606 3 2 2 2 937 897 797 860
607 3 2 2 2 801 815 900 856
608 3 2 2 2 857 900 815 765
609 3 2 2 2 899 937 860 802
610 3 2 2 2 864 819 774 901
611 3 2 2 2 819 864 794 773
612 3 2 2 2 765 748 798 857
613 3 2 2 2 857 798 887 940
614 3 2 2 2 900 939 898 856
615 3 2 2 2 938 962 899 863
616 3 2 2 2 863 796 883 938
617 3 2 2 2 939 900 857 940
618 3 2 2 2 971 1005 938 883
619 3 2 2 2 925 844 896 972
620 3 2 2 2 942 897 937 973
621 3 2 2 2 899 962 973 937
622 3 2 2 2 776 775 698 717
623 3 2 2 2 685 776 717 630
624 3 2 2 2 822 798 748 775
625 3 2 2 2 862 898 939 928
626 3 2 2 2 896 897 942 972
627 3 2 2 2 1031 997 925 972
628 3 2 2 2 630 663 777 685
629 3 2 2 2 613 699 663 605
630 3 2 2 2 973 1030 994 942
631 3 2 2 2 883 796 862 928
632 3 2 2 2 792 865 776 685
633 3 2 2 2 667 666 593 616
634 3 2 2 2 593 670 535 536
635 3 2 2 2 962 1006 1030 973
636 3 2 2 2 618 532 533 673
637 3 2 2 2 616 617 598 667
638 3 2 2 2 938 1005 1006 962
639 3 2 2 2 533 534 584 673
640 3 2 2 2 865 822 775 776
641 3 2 2 2 598 540 541 669
642 3 2 2 2 864 901 929 943
643 3 2 2 2 972 942 994 1031
644 3 2 2 2 1005 1022 1049 1006
645 3 2 2 2 535 670 584 534
646 3 2 2 2 959 1019 1057 1009
647 3 2 2 2 526 527 575 672
648 3 2 2 2 620 525 526 672
649 3 2 2 2 1030 1006 1049 1076
650 3 2 2 2 723 699 613 656
651 3 2 2 2 631 574 609 724
652 3 2 2 2 939 940 975 928
653 3 2 2 2 528 619 575 527
654 3 2 2 2 1076 1055 994 1030
655 3 2 2 2 541 542 587 669
656 3 2 2 2 945 975 940 887
657 3 2 2 2 621 529 530 675
658 3 2 2 2 674 553 554 585
659 3 2 2 2 945 996 971 975
660 3 2 2 2 656 574 631 723
661 3 2 2 2 883 928 975 971
662 3 2 2 2 609 620 671 724
663 3 2 2 2 666 726 670 593
664 3 2 2 2 725 726 813 751
665 3 2 2 2 904 887 798 822
666 3 2 2 2 666 667 722 761
667 3 2 2 2 977 945 887 904
668 3 2 2 2 919 977 904 905
669 3 2 2 2 726 725 584 670
670 3 2 2 2 907 831 868 946
671 3 2 2 2 827 780 699 723
672 3 2 2 2 779 730 621 675
673 3 2 2 2 587 542 543 676
674 3 2 2 2 777 780 867 824
675 3 2 2 2 813 726 666 761
676 3 2 2 2 905 904 822 865
677 3 2 2 2 590 552 553 674
678 3 2 2 2 530 531 577 675
679 3 2 2 2 575 619 633 700
680 3 2 2 2 826 742 631 724
681 3 2 2 2 599 550 551 677
682 3 2 2 2 663 699 780 777
683 3 2 2 2 667 598 669 722
684 3 2 2 2 685 777 824 792
685 3 2 2 2 792 824 906 840
686 3 2 2 2 697 829 757 632
687 3 2 2 2 929 886 941 963
688 3 2 2 2 577 618 634 727
689 3 2 2 2 971 996 1022 1005
690 3 2 2 2 1096 1079 1044 1091
691 3 2 2 2 669 587 708 722
692 3 2 2 2 947 919 905 840
693 3 2 2 2 730 633 619 621
694 3 2 2 2 727 779 675 577
695 3 2 2 2 868 831 730 779
696 3 2 2 2 997 963 941 925
697 3 2 2 2 840 905 865 792
698 3 2 2 2 727 634 746 825
699 3 2 2 2 575 700 729 672
700 3 2 2 2 869 743 773 794
701 3 2 2 2 976 1008 946 903
702 3 2 2 2 978 907 946 1008
703 3 2 2 2 853 893 757 829
704 3 2 2 2 1076 1049 1079 1096
705 3 2 2 2 903 946 868 825
706 3 2 2 2 780 827 902 867
707 3 2 2 2 742 827 723 631
708 3 2 2 2 728 781 677 590
709 3 2 2 2 881 869 794 909
710 3 2 2 2 543 544 581 676
711 3 2 2 2 827 742 847 902
712 3 2 2 2 825 746 842 903
713 3 2 2 2 970 881 909 922
714 3 2 2 2 728 590 674 691
715 3 2 2 2 959 1009 977 919
716 3 2 2 2 871 847 742 826
717 3 2 2 2 754 826 724 671
718 3 2 2 2 970 922 995 1028
719 3 2 2 2 551 552 590 677
720 3 2 2 2 903 842 923 976
721 3 2 2 2 909 794 864 943
722 3 2 2 2 945 977 1009 996
723 3 2 2 2 947 974 990 1011
724 3 2 2 2 824 867 930 906
725 3 2 2 2 994 1055 1059 1031
726 3 2 2 2 906 930 981 974
727 3 2 2 2 782 754 671 729
728 3 2 2 2 919 947 1011 959
729 3 2 2 2 1022 996 1009 1057
730 3 2 2 2 671 620 672 729
731 3 2 2 2 825 868 779 727
732 3 2 2 2 930 948 1007 981
733 3 2 2 2 840 906 974 947
734 3 2 2 2 793 871 826 754
735 3 2 2 2 831 745 633 730
736 3 2 2 2 584 725 731 673
737 3 2 2 2 867 902 948 930
738 3 2 2 2 1036 997 1031 1059
739 3 2 2 2 761 812 866 813
740 3 2 2 2 847 871 944 880
741 3 2 2 2 1071 1037 1054 1094
742 3 2 2 2 853 829 743 869
743 3 2 2 2 880 948 902 847
744 3 2 2 2 823 782 729 700
745 3 2 2 2 830 746 634 731
746 3 2 2 2 700 633 745 823
747 3 2 2 2 634 618 673 731
748 3 2 2 2 1056 1088 1066 1023
749 3 2 2 2 1076 1096 1072 1055
750 3 2 2 2 888 944 871 793
751 3 2 2 2 978 921 841 907
752 3 2 2 2 948 880 957 1007
753 3 2 2 2 1011 990 1054 1037
754 3 2 2 2 1008 1027 1034 978
755 3 2 2 2 1056 1010 1035 1077
756 3 2 2 2 1035 1010 949 979
757 3 2 2 2 1034 991 921 978
758 3 2 2 2 731 725 751 830
759 3 2 2 2 1036 995 922 980
760 3 2 2 2 959 1011 1037 1019
761 3 2 2 2 974 981 1024 990
762 3 2 2 2 872 910 830 751
763 3 2 2 2 467 468 589 679
764 3 2 2 2 623 466 467 679
765 3 2 2 2 964 1010 1056 1023
766 3 2 2 2 980 963 997 1036
767 3 2 2 2 921 979 912 841
768 3 2 2 2 949 888 793 848
769 3 2 2 2 995 1036 1059 1046
770 3 2 2 2 848 793 754 782
771 3 2 2 2 979 949 848 912
772 3 2 2 2 1017 1058 1092 1065
773 3 2 2 2 761 722 708 812
774 3 2 2 2 980 943 929 963
775 3 2 2 2 746 830 910 842
776 3 2 2 2 912 848 782 823
777 3 2 2 2 1046 1078 1028 995
778 3 2 2 2 943 980 922 909
779 3 2 2 2 823 745 841 912
780 3 2 2 2 907 841 745 831
781 3 2 2 2 880 944 1012 957
782 3 2 2 2 1045 1075 1029 989
783 3 2 2 2 866 872 751 813
784 3 2 2 2 989 1029 969 958
785 3 2 2 2 882 927 958 969
786 3 2 2 2 1046 1059 1055 1072
787 3 2 2 2 981 1007 1061 1024
788 3 2 2 2 888 949 1010 964
789 3 2 2 2 957 1012 1058 1017
790 3 2 2 2 1058 1023 1066 1092
791 3 2 2 2 1049 1022 1057 1079
792 3 2 2 2 991 1035 979 921
793 3 2 2 2 589 468 469 678
794 3 2 2 2 964 1012 944 888
795 3 2 2 2 1023 1058 1012 964
796 3 2 2 2 1017 1061 1007 957
797 3 2 2 2 1019 1037 1071 1044
798 3 2 2 2 990 1024 1080 1054
799 3 2 2 2 1044 1079 1057 1019
800 3 2 2 2 1024 1061 1095 1080
801 3 2 2 2 757 811 707 632
802 3 2 2 2 469 470 594 678
803 3 2 2 2 1065 1095 1061 1017
804 3 2 2 2 1095 1065 1113 1102
805 3 2 2 2 908 810 855 935
806 3 2 2 2 585 554 555 668
807 3 2 2 2 810 690 778 855
808 3 2 2 2 1093 1103 1075 1045
809 3 2 2 2 1091 1044 1071 1108
810 3 2 2 2 645 639 594 622
811 3 2 2 2 866 854 911 872
812 3 2 2 2 923 842 910 934
813 3 2 2 2 668 555 556 602
814 3 2 2 2 1094 1054 1080 1110
815 3 2 2 2 934 910 872 911
816 3 2 2 2 588 476 477 644
817 3 2 2 2 1103 1114 1097 1075
818 3 2 2 2 1110 1080 1095 1102
819 3 2 2 2 1094 1110 1116 1115
820 3 2 2 2 970 1002 933 881
821 3 2 2 2 933 853 869 881
822 3 2 2 2 933 1002 958 927
823 3 2 2 2 572 653 707 693
824 3 2 2 2 459 572 642 479
825 3 2 2 2 600 478 479 642
826 3 2 2 2 465 602 556 457
827 3 2 2 2 854 866 812 800
828 3 2 2 2 465 466 623 602
829 3 2 2 2 589 732 734 679
830 3 2 2 2 600 778 690 644
831 3 2 2 2 828 855 778 703
832 3 2 2 2 894 935 855 828
833 3 2 2 2 602 623 643 668
834 3 2 2 2 644 477 478 600
835 3 2 2 2 1071 1094 1115 1108
836 3 2 2 2 870 894 828 744
837 3 2 2 2 882 936 870 839
838 3 2 2 2 643 623 679 734
839 3 2 2 2 668 643 704 585
840 3 2 2 2 644 690 759 588
841 3 2 2 2 691 674 585 704
842 3 2 2 2 811 757 893 839
843 3 2 2 2 1110 1102 1122 1116
844 3 2 2 2 693 707 811 744
845 3 2 2 2 839 870 744 811
846 3 2 2 2 547 548 628 684
847 3 2 2 2 733 732 589 678
848 3 2 2 2 744 828 703 693
849 3 2 2 2 1033 1027 1008 976
850 3 2 2 2 1090 1070 1053 1078
851 3 2 2 2 1045 989 1021 1053
852 3 2 2 2 893 853 933 927
853 3 2 2 2 1002 970 1028 1021
854 3 2 2 2 681 475 476 588
855 3 2 2 2 642 572 693 703
856 3 2 2 2 927 882 839 893
857 3 2 2 2 1021 989 958 1002
858 3 2 2 2 703 778 600 642
859 3 2 2 2 952 845 908 982
860 3 2 2 2 1078 1046 1072 1090
861 3 2 2 2 1115 1093 1070 1108
862 3 2 2 2 1092 1104 1113 1065
863 3 2 2 2 1028 1078 1053 1021
864 3 2 2 2 976 923 1013 1033
865 3 2 2 2 1072 1096 1091 1090
866 3 2 2 2 969 1004 936 882
867 3 2 2 2 1018 998 1038 1042
868 3 2 2 2 885 931 911 854
869 3 2 2 2 1070 1093 1045 1053
870 3 2 2 2 1108 1070 1090 1091
871 3 2 2 2 639 733 678 594
872 3 2 2 2 1103 1116 1122 1114
873 3 2 2 2 1029 1063 1004 969
874 3 2 2 2 708 587 676 760
875 3 2 2 2 800 812 708 760
876 3 2 2 2 472 626 622 471
877 3 2 2 2 1093 1115 1116 1103
878 3 2 2 2 1088 1056 1077 1109
879 3 2 2 2 781 706 599 677
880 3 2 2 2 934 911 931 967
881 3 2 2 2 626 472 473 629
882 3 2 2 2 734 783 704 643
883 3 2 2 2 1104 1117 1121 1113
884 3 2 2 2 967 1013 923 934
885 3 2 2 2 760 676 581 689
886 3 2 2 2 983 950 984 1016
887 3 2 2 2 1035 991 1043 1077
888 3 2 2 2 885 873 835 892
889 3 2 2 2 873 800 760 689
890 3 2 2 2 706 640 601 599
891 3 2 2 2 873 885 854 800
892 3 2 2 2 680 645 622 626
893 3 2 2 2 628 601 640 739
894 3 2 2 2 1122 1102 1113 1121
895 3 2 2 2 1097 1067 1051 1063
896 3 2 2 2 588 759 702 681
897 3 2 2 2 993 920 960 1032
898 3 2 2 2 1075 1097 1063 1029
899 3 2 2 2 968 1003 935 894
900 3 2 2 2 924 889 850 913
901 3 2 2 2 1101 1067 1097 1114
902 3 2 2 2 628 739 559 684
903 3 2 2 2 993 1060 1038 1016
904 3 2 2 2 646 581 544 545
905 3 2 2 2 983 924 913 950
906 3 2 2 2 781 728 832 756
907 3 2 2 2 1104 1092 1066 1106
908 3 2 2 2 732 758 783 734
909 3 2 2 2 936 968 894 870
910 3 2 2 2 1004 1025 968 936
911 3 2 2 2 783 749 691 704
912 3 2 2 2 935 1003 982 908
913 3 2 2 2 913 799 846 950
914 3 2 2 2 846 834 852 890
915 3 2 2 2 706 781 756 705
916 3 2 2 2 569 680 626 629
917 3 2 2 2 736 639 645 738
918 3 2 2 2 624 646 545 464
919 3 2 2 2 759 690 810 809
920 3 2 2 2 749 832 728 691
921 3 2 2 2 736 755 733 639
922 3 2 2 2 810 908 845 809
923 3 2 2 2 1121 1117 1118 1101
924 3 2 2 2 1121 1101 1114 1122
925 3 2 2 2 843 795 916 953
926 3 2 2 2 984 890 917 920
927 3 2 2 2 735 786 646 624
928 3 2 2 2 786 689 581 646
929 3 2 2 2 884 843 953 987
930 3 2 2 2 758 755 879 805
931 3 2 2 2 1119 1105 1118 1117
932 3 2 2 2 1104 1106 1119 1117
933 3 2 2 2 1085 1068 1060 1074
934 3 2 2 2 804 789 756 832
935 3 2 2 2 1032 960 999 1052
936 3 2 2 2 1068 1042 1038 1060
937 3 2 2 2 961 924 983 998
938 3 2 2 2 737 625 681 702
939 3 2 2 2 1060 993 1032 1074
940 3 2 2 2 795 787 875 916
941 3 2 2 2 625 458 475 681
942 3 2 2 2 740 569 641 785
943 3 2 2 2 1018 988 961 998
944 3 2 2 2 926 884 987 1014
945 3 2 2 2 833 851 790 741
946 3 2 2 2 738 645 680 568
947 3 2 2 2 1089 1112 1086 1109
948 3 2 2 2 1088 1109 1107 1120
949 3 2 2 2 787 562 837 875
950 3 2 2 2 789 562 705 756
951 3 2 2 2 737 702 750 701
952 3 2 2 2 689 786 835 873
953 3 2 2 2 954 961 988 966
954 3 2 2 2 564 563 789 804
955 3 2 2 2 640 706 705 561
956 3 2 2 2 625 737 683 571
957 3 2 2 2 568 740 784 567
958 3 2 2 2 682 735 624 557
959 3 2 2 2 984 920 993 1016
960 3 2 2 2 1085 1111 1098 1068
961 3 2 2 2 999 1041 1081 1052
962 3 2 2 2 1083 1042 1068 1098
963 3 2 2 2 1119 1106 1120 1111
964 3 2 2 2 629 473 474 571
965 3 2 2 2 852 750 809 845
966 3 2 2 2 845 952 917 852
967 3 2 2 2 1105 1085 1074 1087
968 3 2 2 2 954 889 924 961
969 3 2 2 2 1014 1000 986 926
970 3 2 2 2 1107 1098 1111 1120
971 3 2 2 2 1084 1047 1069 1112
972 3 2 2 2 850 784 799 913
973 3 2 2 2 931 956 986 967
974 3 2 2 2 1062 1069 1047 1039
975 3 2 2 2 565 874 806 566
976 3 2 2 2 741 559 788 833
977 3 2 2 2 740 785 799 784
978 3 2 2 2 1098 1107 1086 1083
979 3 2 2 2 1105 1119 1111 1085
980 3 2 2 2 889 918 808 850
981 3 2 2 2 1043 991 1034 1073
982 3 2 2 2 1066 1088 1120 1106
983 3 2 2 2 1101 1118 1099 1067
984 3 2 2 2 736 791 806 755
985 3 2 2 2 982 999 960 952
986 3 2 2 2 701 641 683 737
987 3 2 2 2 785 834 846 799
988 3 2 2 2 809 750 702 759
989 3 2 2 2 1064 992 1040 1050
990 3 2 2 2 785 641 701 834
991 3 2 2 2 1018 1062 1039 988
992 3 2 2 2 1013 1000 1020 1033
993 3 2 2 2 1052 1081 1099 1087
994 3 2 2 2 988 1039 1001 966
995 3 2 2 2 1074 1032 1052 1087
996 3 2 2 2 565 566 808 876
997 3 2 2 2 985 966 1001 1015
998 3 2 2 2 806 874 879 755
999 3 2 2 2 758 732 733 755
1000 3 2 2 2 788 686 838 833
1001 3 2 2 2 920 917 952 960
1002 3 2 2 2 563 564 807 837
1003 3 2 2 2 564 565 876 807
1004 3 2 2 2 1073 1048 1082 1100
1005 3 2 2 2 953 932 965 987
1006 3 2 2 2 1050 1040 1026 1047
1007 3 2 2 2 807 876 914 849
1008 3 2 2 2 992 1064 1020 1014
1009 3 2 2 2 965 932 1015 1040
1010 3 2 2 2 1027 1048 1073 1034
1011 3 2 2 2 686 787 795 838
1012 3 2 2 2 1067 1099 1081 1051
1013 3 2 2 2 932 916 891 985
1014 3 2 2 2 741 790 682 558
1015 3 2 2 2 926 986 956 915
1016 3 2 2 2 1050 1084 1082 1064
1017 3 2 2 2 837 807 849 875
1018 3 2 2 2 884 926 915 877
1019 3 2 2 2 560 561 686 788
1020 3 2 2 2 891 875 849 951
1021 3 2 2 2 914 918 955 951
1022 3 2 2 2 1015 1001 1026 1040
1023 3 2 2 2 1083 1086 1069 1062
1024 3 2 2 2 838 795 843 877
1025 3 2 2 2 1039 1047 1026 1001
1026 3 2 2 2 561 562 787 686
1027 3 2 2 2 1100 1082 1084 1112
1028 3 2 2 2 987 965 992 1014
1029 3 2 2 2 851 892 835 790
1030 3 2 2 2 967 986 1000 1013
1031 3 2 2 2 955 918 889 954
1032 3 2 2 2 1064 1082 1048 1020
1033 3 2 2 2 641 569 570 683
1034 3 2 2 2 835 786 735 790
1035 3 2 2 2 966 985 951 955
1036 3 2 2 2 878 832 749 805
1037 3 2 2 2 1077 1043 1089 1109
1038 3 2 2 2 1042 1083 1062 1018
1039 3 2 2 2 1004 1063 1051 1025
1040 3 2 2 2 1048 1027 1033 1020
1041 3 2 2 2 878 879 874 804
1042 3 2 2 2 567 566 791 738
1043 3 2 2 2 877 915 851 833
1044 3 2 2 2 956 931 885 892
1045 3 2 2 2 874 565 564 804
1046 3 2 2 2 1016 1038 998 983
1047 3 2 2 2 1100 1112 1089 1043
1048 3 2 2 2 1087 1099 1118 1105
1049 3 2 2 2 834 701 750 852
1050 3 2 2 2 836 566 567 784
1051 3 2 2 2 915 956 892 851
1052 3 2 2 2 560 739 640 561
1053 3 2 2 2 1003 1041 999 982
1054 3 2 2 2 950 846 890 984
1055 3 2 2 2 684 558 627 547
1056 3 2 2 2 627 557 546 547
1057 3 2 2 2 1081 1041 1025 1051
1058 3 2 2 2 876 808 918 914
1059 3 2 2 2 1041 1003 968 1025
1060 3 2 2 2 836 784 850 808
1061 3 2 2 2 783 758 805 749
$EndElements
