$MeshFormat
2.2 0 8
$EndMeshFormat
$Nodes
127
1 -200 -100 0
2 0 -100 0
3 0 100 0
4 -200 100 0
5 -100 -50 0
6 -25 -50 0
7 -25 50 0
8 -100 50 0
9 -180 -100 0
10 -160 -100 0
11 -140 -100 0
12 -120 -100 0
13 -100 -100 0
14 -80 -100 0
15 -60 -100 0
16 -40 -100 0
17 -20 -100 0
18 0 -80 0
19 0 -60 0
20 0 -40 0
21 0 -20 0
22 0 0 0
23 0 20 0
24 0 40 0
25 0 60 0
26 0 80 0
27 -20 100 0
28 -40 100 0
29 -60 100 0
30 -80 100 0
31 -100 100 0
32 -120 100 0
33 -140 100 0
34 -160 100 0
35 -180 100 0
36 -200 80 0
37 -200 60 0
38 -200 40 0
39 -200 20 0
40 -200 0 0
41 -200 -20 0
42 -200 -40 0
43 -200 -60 0
44 -200 -80 0
45 -81.25 -50 0
46 -62.5 -50 0
47 -43.75 -50 0
48 -25 -30 0
49 -25 -10 0
50 -25 10 0
51 -25 30 0
52 -43.75 50 0
53 -62.5 50 0
54 -81.25 50 0
55 -100 30 0
56 -100 10 0
57 -100 -10 0
58 -100 -30 0
59 -119.228765083634 -38.5750942719239 0
60 -179.953623328999 59.6617228480018 0
61 -179.971697329809 19.0588593573103 0
62 -180.024655272671 -20.6740322540172 0
63 -119.621471820993 31.3225517994933 0
64 -43.7615313086385 -10.1147298989121 0
65 -94.3753384107659 -66.1067914310695 0
66 -49.4987350683823 -66.4944286739632 0
67 -22.0827524076949 63.9007139004851 0
68 -80.6209812062588 66.6557952355042 0
69 -139.213580093368 -81.3583141556873 0
70 -139.760173906539 80.949851127131 0
71 -61.1892949837487 -82.7172293493376 0
72 -119.676068447917 82.143057289343 0
73 -21.0451661807864 -87.9284967829555 0
74 -43.7889818678365 10.0182967240415 0
75 -43.772743936325 30.060377805036 0
76 -81.258160442348 30.0632293216199 0
77 -43.7360959779622 -30.1252463198909 0
78 -81.1965540373112 -30.1730048137891 0
79 -179.975990271095 79.9207920882203 0
80 -179.983248587138 -40.5122483744241 0
81 -159.77418878724 -80.5299805919512 0
82 -179.952019724855 -80.1776885759167 0
83 -60.7266568619021 83.0746101923098 0
84 -75.4116966658997 -78.721810758726 0
85 -99.7998482776318 82.9889871989604 0
86 -97.772289428505 -82.3177810965297 0
87 -20.8510714857884 81.4975233575369 0
88 -29.4919190468391 -69.672822276465 0
89 -159.944682932289 -21.5474522737506 0
90 -119.798290751402 -17.5618263601717 0
91 -119.717187672564 20.0202561992291 0
92 -81.2318589664933 9.96555744648998 0
93 -119.549778466567 50.5472378966955 0
94 -81.1909882586724 -10.1471899405289 0
95 -138.950812138519 -61.925844864176 0
96 -116.402545766129 -66.1067867287243 0
97 -159.684785327065 -60.9421961268601 0
98 -159.899146913449 80.0842385820738 0
99 -179.924294501849 -60.3827142636829 0
100 -179.931038501045 39.2125806154829 0
101 -179.996578600145 -0.944432600291233 0
102 -62.5272159813417 30.0400091483906 0
103 -62.4531964986079 -30.1630500935425 0
104 -42.3878689699922 65.8732642249764 0
105 -62.5018952636366 9.94842308257893 0
106 -118.323108101795 -82.3152409102414 0
107 -80.21491463724 83.2508790122842 0
108 -40.5297868669975 -81.171636668224 0
109 -41.0324836302745 82.5790804586833 0
110 -80.3348890236669 -67.6186222125373 0
111 -62.2284055264519 -65.7294368361577 0
112 -61.6040149860997 66.4632801526837 0
113 -100.033014675542 66.2735688698986 0
114 -139.484052222775 60.5284474148621 0
115 -159.579534407967 37.7226639201671 0
116 -159.924735607827 -2.03785061873186 0
117 -139.348374052408 -41.2959083185815 0
118 -138.144510851183 32.8471327853675 0
119 -119.87210962968 2.27648972340056 0
120 -159.66754459368 59.126884671164 0
121 -159.758473863298 -41.1511514181988 0
122 -62.4539146148121 -10.1438287073228 0
123 -119.584501414426 63.9551771196282 0
124 -139.761142543579 -20.8265086698438 0
125 -139.825334480417 -1.33571365154697 0
126 -159.70387255708 17.5315552717887 0
127 -139.510456464843 16.9708122627218 0
$EndNodes
$Elements
106
1 3 2 1 1 19 20 48 6
2 3 2 1 1 67 7 24 25
3 3 2 1 1 7 51 23 24
4 3 2 1 1 51 50 22 23
5 3 2 1 1 20 21 49 48
6 3 2 1 1 21 22 50 49
7 3 2 1 1 96 59 117 95
8 3 2 1 1 95 69 106 96
9 3 2 1 1 105 122 64 74
10 3 2 1 1 59 90 124 117
11 3 2 1 1 75 102 105 74
12 3 2 1 1 92 94 122 105
13 3 2 1 1 102 76 92 105
14 3 2 1 1 127 118 115 126
15 3 2 1 1 92 56 57 94
16 3 2 1 1 90 119 125 124
17 3 2 1 1 116 89 124 125
18 3 2 1 1 125 127 126 116
19 3 2 1 1 51 7 52 75
20 3 2 1 1 120 114 70 98
21 3 2 1 1 48 77 47 6
22 3 2 1 1 78 103 122 94
23 3 2 1 1 72 70 114 123
24 3 2 1 1 58 59 96 5
25 3 2 1 1 88 66 71 108
26 3 2 1 1 55 76 54 8
27 3 2 1 1 58 5 45 78
28 3 2 1 1 108 73 18 88
29 3 2 1 1 72 123 113 85
30 3 2 1 1 69 95 97 81
31 3 2 1 1 53 102 75 52
32 3 2 1 1 121 89 62 80
33 3 2 1 1 6 88 18 19
34 3 2 1 1 99 82 81 97
35 3 2 1 1 86 13 14 84
36 3 2 1 1 84 14 15 71
37 3 2 1 1 83 29 30 107
38 3 2 1 1 83 109 28 29
39 3 2 1 1 71 15 16 108
40 3 2 1 1 107 30 31 85
41 3 2 1 1 61 101 116 126
42 3 2 1 1 86 106 12 13
43 3 2 1 1 67 25 26 87
44 3 2 1 1 109 87 27 28
45 3 2 1 1 60 100 115 120
46 3 2 1 1 47 77 103 46
47 3 2 1 1 81 10 11 69
48 3 2 1 1 106 69 11 12
49 3 2 1 1 85 31 32 72
50 3 2 1 1 97 121 80 99
51 3 2 1 1 75 74 50 51
52 3 2 1 1 108 16 17 73
53 3 2 1 1 95 117 121 97
54 3 2 1 1 100 60 37 38
55 3 2 1 1 79 36 37 60
56 3 2 1 1 126 115 100 61
57 3 2 1 1 64 122 103 77
58 3 2 1 1 54 76 102 53
59 3 2 1 1 62 41 42 80
60 3 2 1 1 80 42 43 99
61 3 2 1 1 82 9 10 81
62 3 2 1 1 90 57 56 119
63 3 2 1 1 119 91 127 125
64 3 2 1 1 61 100 38 39
65 3 2 1 1 98 34 35 79
66 3 2 1 1 62 101 40 41
67 3 2 1 1 119 56 55 91
68 3 2 1 1 99 43 44 82
69 3 2 1 1 127 91 63 118
70 3 2 1 1 101 62 89 116
71 3 2 1 1 98 70 33 34
72 3 2 1 1 72 32 33 70
73 3 2 1 1 101 61 39 40
74 3 2 1 1 89 121 117 124
75 3 2 1 1 46 103 78 45
76 3 2 1 1 82 44 1 9
77 3 2 1 1 73 17 2 18
78 3 2 1 1 87 26 3 27
79 3 2 1 1 79 35 4 36
80 3 2 1 1 77 48 49 64
81 3 2 1 1 74 64 49 50
82 3 2 1 1 8 63 91 55
83 3 2 1 1 57 58 78 94
84 3 2 1 1 79 60 120 98
85 3 2 1 1 56 92 76 55
86 3 2 1 1 8 113 123 93
87 3 2 1 1 52 104 112 53
88 3 2 1 1 57 90 59 58
89 3 2 1 1 118 63 8 93
90 3 2 1 1 96 65 45 5
91 3 2 1 1 88 6 47 66
92 3 2 1 1 104 52 7 67
93 3 2 1 1 113 8 54 68
94 3 2 1 1 111 66 47 46
95 3 2 1 1 112 68 54 53
96 3 2 1 1 106 86 65 96
97 3 2 1 1 46 45 65 110
98 3 2 1 1 84 71 66 111
99 3 2 1 1 83 107 68 112
100 3 2 1 1 87 109 104 67
101 3 2 1 1 107 85 113 68
102 3 2 1 1 84 110 65 86
103 3 2 1 1 46 110 84 111
104 3 2 1 1 109 83 112 104
105 3 2 1 1 123 114 118 93
106 3 2 1 1 120 115 118 114
$EndElements
