$MeshFormat
2.2 0 8
$EndMeshFormat
$Nodes
121
1 0 0 0
2 0 400 0
3 0 1000 0
4 1000 1000 0
5 1000 0 0
6 200 200 0
7 189.830508474576 352.542372881356 0
8 160 800 0
9 800 200 0
10 0 100 0
11 0 200 0
12 0 300 0
13 0 500 0
14 0 600 0
15 0 700 0
16 0 800 0
17 0 900 0
18 100 1000 0
19 200 1000 0
20 300 1000 0
21 400 1000 0
22 500 1000 0
23 600 1000 0
24 700 1000 0
25 800 1000 0
26 900 1000 0
27 1000 900 0
28 1000 800 0
29 1000 700 0
30 1000 600 0
31 1000 500 0
32 1000 400 0
33 1000 300 0
34 1000 200 0
35 1000 100 0
36 900 0 0
37 800 0 0
38 700 0 0
39 600 0 0
40 500 0 0
41 400 0 0
42 300 0 0
43 200 0 0
44 100 0 0
45 194.915254237288 276.271186440678 0
46 182.372881355932 464.406779661017 0
47 174.915254237288 576.271186440678 0
48 167.457627118644 688.135593220339 0
49 698.305084745763 225.423728813559 0
50 596.610169491525 250.847457627119 0
51 494.915254237288 276.271186440678 0
52 393.220338983051 301.694915254237 0
53 291.525423728814 327.118644067797 0
54 94.9152542372881 376.271186440678 0
55 600.139519689438 899.261823111148 0
56 899.416256450095 800.092954940068 0
57 898.080517540805 600.780234065706 0
58 295.214416173132 94.5976394963171 0
59 393.258169749071 97.8914933042947 0
60 494.644518097026 105.518413244002 0
61 397.787509854858 897.648398787778 0
62 597.344600212983 112.851592817471 0
63 100.440200897289 99.8349804311474 0
64 98.0226413781431 288.044531635556 0
65 799.826094297586 899.940925456504 0
66 899.831527994238 899.996834498535 0
67 897.881615385099 501.04861219201 0
68 897.963971507306 401.282378993861 0
69 898.37261122064 301.250235184329 0
70 899.002439573462 200.818300244577 0
71 899.511522470894 100.557771125797 0
72 698.973693356845 110.986273151236 0
73 292.982132362432 897.739180578855 0
74 93.9089337785838 899.012710113231 0
75 91.6175042399927 483.035576741901 0
76 88.2146571825002 589.457126799279 0
77 85.4219825937261 694.718693890895 0
78 280.805263428882 255.654032016322 0
79 304.331058210761 451.720468361954 0
80 795.356775304849 603.225407837399 0
81 798.789030932545 800.295070529452 0
82 282.2979480224 687.014468206052 0
83 99.7433630364581 196.208153146242 0
84 198.204772093757 96.6952220305942 0
85 406.604305710535 397.420253617164 0
86 393.6239023129 794.331554355137 0
87 699.889671690689 899.785211426983 0
88 898.583596611705 700.53545813523 0
89 375.901870228188 204.005632122846 0
90 796.314711783382 406.966805907832 0
91 499.233756414646 898.393660158454 0
92 799.45401254036 103.929443971041 0
93 189.661542128899 898.608728289568 0
94 797.617005580703 308.158827089909 0
95 86.6974469992396 797.938786855868 0
96 281.695978054564 179.09734852157 0
97 483.208423378256 198.423199011707 0
98 287.157525193422 577.37662052187 0
99 512.761298334339 387.910333160903 0
100 390.745779980013 690.587569505866 0
101 284.237619561658 794.359782389175 0
102 598.269875731467 799.229569401047 0
103 795.563468579605 505.538690398692 0
104 698.246344122366 800.327124283172 0
105 796.821316602325 701.586486536666 0
106 496.647001956196 797.003141247363 0
107 697.750205027023 416.118399781717 0
108 699.451212229635 321.379289682744 0
109 406.080742500412 493.749780367749 0
110 499.110439303809 499.964110126543 0
111 594.639911305725 701.028329633401 0
112 493.723887774959 696.551934448111 0
113 609.328276723919 422.326264764937 0
114 693.628255479524 605.761106543155 0
115 695.679747616279 509.991654326036 0
116 695.733303561012 702.246360110941 0
117 610.548605551207 335.206881284669 0
118 393.824200729849 587.485487701075 0
119 593.847890459245 604.03251087979 0
120 494.879844890821 597.821210277177 0
121 598.448251198296 507.575713764439 0
$EndNodes
$Elements
102
1 2 2 1 1 89 96 78 
2 2 2 1 1 113 117 99 
3 2 2 1 1 79 109 85 
4 2 2 1 1 50 97 51 
5 3 2 1 1 27 66 26 4
6 3 2 1 1 56 66 27 28
7 3 2 1 1 26 66 65 25
8 3 2 1 1 31 67 57 30
9 3 2 1 1 32 68 67 31
10 3 2 1 1 24 87 55 23
11 3 2 1 1 65 87 24 25
12 3 2 1 1 56 81 65 66
13 3 2 1 1 59 60 40 41
14 3 2 1 1 56 28 29 88
15 3 2 1 1 55 91 22 23
16 3 2 1 1 69 68 32 33
17 3 2 1 1 81 104 87 65
18 3 2 1 1 34 70 69 33
19 3 2 1 1 29 30 57 88
20 3 2 1 1 103 80 57 67
21 3 2 1 1 80 105 88 57
22 3 2 1 1 22 91 61 21
23 3 2 1 1 21 61 73 20
24 3 2 1 1 81 56 88 105
25 3 2 1 1 104 81 105 116
26 3 2 1 1 104 102 55 87
27 3 2 1 1 62 72 38 39
28 3 2 1 1 101 73 61 86
29 3 2 1 1 106 91 55 102
30 3 2 1 1 91 106 86 61
31 3 2 1 1 74 18 19 93
32 3 2 1 1 71 36 37 92
33 3 2 1 1 36 71 35 5
34 3 2 1 1 35 71 70 34
35 3 2 1 1 40 60 62 39
36 3 2 1 1 104 116 111 102
37 3 2 1 1 68 90 103 67
38 3 2 1 1 9 70 71 92
39 3 2 1 1 69 70 9 94
40 3 2 1 1 38 72 92 37
41 3 2 1 1 74 95 16 17
42 3 2 1 1 19 20 73 93
43 3 2 1 1 13 14 76 75
44 3 2 1 1 100 82 101 86
45 3 2 1 1 103 90 107 115
46 3 2 1 1 58 42 43 84
47 3 2 1 1 106 102 111 112
48 3 2 1 1 82 48 8 101
49 3 2 1 1 58 59 41 42
50 3 2 1 1 18 74 17 3
51 3 2 1 1 90 68 69 94
52 3 2 1 1 90 94 108 107
53 3 2 1 1 97 60 59 89
54 3 2 1 1 47 48 82 98
55 3 2 1 1 120 118 100 112
56 3 2 1 1 78 53 52 89
57 3 2 1 1 75 54 2 13
58 3 2 1 1 89 52 51 97
59 3 2 1 1 50 117 108 49
60 3 2 1 1 98 79 46 47
61 3 2 1 1 100 118 98 82
62 3 2 1 1 62 50 49 72
63 3 2 1 1 9 92 72 49
64 3 2 1 1 12 2 54 64
65 3 2 1 1 54 75 46 7
66 3 2 1 1 7 45 64 54
67 3 2 1 1 79 53 7 46
68 3 2 1 1 111 116 114 119
69 3 2 1 1 51 99 117 50
70 3 2 1 1 15 77 76 14
71 3 2 1 1 117 113 107 108
72 3 2 1 1 115 107 113 121
73 3 2 1 1 116 105 80 114
74 3 2 1 1 44 1 10 63
75 3 2 1 1 99 51 52 85
76 3 2 1 1 47 46 75 76
77 3 2 1 1 86 106 112 100
78 3 2 1 1 115 114 80 103
79 3 2 1 1 94 9 49 108
80 3 2 1 1 6 84 63 83
81 3 2 1 1 53 79 85 52
82 3 2 1 1 84 43 44 63
83 3 2 1 1 85 109 110 99
84 3 2 1 1 11 12 64 83
85 3 2 1 1 53 78 45 7
86 3 2 1 1 16 95 77 15
87 3 2 1 1 110 109 118 120
88 3 2 1 1 96 58 84 6
89 3 2 1 1 74 93 8 95
90 3 2 1 1 96 89 59 58
91 3 2 1 1 97 50 62 60
92 3 2 1 1 45 6 83 64
93 3 2 1 1 110 121 113 99
94 3 2 1 1 120 119 121 110
95 3 2 1 1 121 119 114 115
96 3 2 1 1 78 96 6 45
97 3 2 1 1 77 95 8 48
98 3 2 1 1 63 10 11 83
99 3 2 1 1 76 77 48 47
100 3 2 1 1 119 120 112 111
101 3 2 1 1 93 73 101 8
102 3 2 1 1 109 79 98 118
$EndElements
