$MeshFormat
2.2 0 8
$EndMeshFormat
$Nodes
438
1 0 30 0
2 0 0 0
3 0 60 0
4 0 100 0
5 30 100 0
6 30 48 0
7 30 42 0
8 30 40 0
9 50 40 0
10 80 40 0
11 80 62 0
12 80 100 0
13 100 100 0
14 100 70 0
15 100 20 0
16 100 0 0
17 70 100 0
18 40 100 0
19 70 58 0
20 70 50 0
21 50 50 0
22 40 50 0
23 0 25 0
24 0 20 0
25 0 15 0
26 0 10 0
27 0 5 0
28 0 55 0
29 0 50 0
30 0 45 0
31 0 40 0
32 0 35 0
33 0 95 0
34 0 90 0
35 0 85 0
36 0 80 0
37 0 75 0
38 0 70 0
39 0 65 0
40 25 100 0
41 20 100 0
42 15 100 0
43 10 100 0
44 5 100 0
45 30 94.8 0
46 30 89.6 0
47 30 84.4 0
48 30 79.2 0
49 30 74 0
50 30 68.8 0
51 30 63.6 0
52 30 58.4 0
53 30 53.2 0
54 35 40 0
55 40 40 0
56 45 40 0
57 55 40 0
58 60 40 0
59 65 40 0
60 70 40 0
61 75 40 0
62 80 45.5 0
63 80 51 0
64 80 56.5 0
65 80 66.75 0
66 80 71.5 0
67 80 76.25 0
68 80 81 0
69 80 85.75 0
70 80 90.5 0
71 80 95.25 0
72 95 100 0
73 90 100 0
74 85 100 0
75 100 75 0
76 100 80 0
77 100 85 0
78 100 90 0
79 100 95 0
80 100 25 0
81 100 30 0
82 100 35 0
83 100 40 0
84 100 45 0
85 100 50 0
86 100 55 0
87 100 60 0
88 100 65 0
89 100 5 0
90 100 10 0
91 100 15 0
92 5 0 0
93 10 0 0
94 15 0 0
95 20 0 0
96 25 0 0
97 30 0 0
98 35 0 0
99 40 0 0
100 45 0 0
101 50 0 0
102 55 0 0
103 60 0 0
104 65 0 0
105 70 0 0
106 75 0 0
107 80 0 0
108 85 0 0
109 90 0 0
110 95 0 0
111 65 100 0
112 60 100 0
113 55 100 0
114 50 100 0
115 45 100 0
116 70 94.75 0
117 70 89.5 0
118 70 84.25 0
119 70 79 0
120 70 73.75 0
121 70 68.5 0
122 70 63.25 0
123 70 54 0
124 65 50 0
125 60 50 0
126 55 50 0
127 45 50 0
128 40 55 0
129 40 60 0
130 40 65 0
131 40 70 0
132 40 75 0
133 40 80 0
134 40 85 0
135 40 90 0
136 40 95 0
137 4.99999999999999 32 0
138 9.99999999999999 34 0
139 15 36 0
140 20 38 0
141 25 40 0
142 55 52 0
143 60 54 0
144 65 56 0
145 85 64 0
146 90 66 0
147 95 68 0
148 4.99999999999999 58 0
149 9.99999999999999 56 0
150 15 54 0
151 20 52 0
152 25 50 0
153 54.5454545454545 38.1818181818182 0
154 59.0909090909091 36.3636363636364 0
155 63.6363636363636 34.5454545454546 0
156 68.1818181818182 32.7272727272727 0
157 72.7272727272727 30.9090909090909 0
158 77.2727272727273 29.0909090909091 0
159 81.8181818181818 27.2727272727273 0
160 86.3636363636363 25.4545454545455 0
161 90.9090909090909 23.6363636363636 0
162 95.4545454545455 21.8181818181818 0
163 49.8669677237539 4.76076328358986 0
164 31.1412007178787 36.2369477087544 0
165 34.9847099446758 4.76967963332591 0
166 59.5650747348142 31.1313010337713 0
167 64.9065071317284 4.90484827879337 0
168 4.95217847728793 85.0353946953111 0
169 5.16177654320796 75.032776580815 0
170 79.9063912724796 4.94320985293634 0
171 24.8739440388163 84.5030203105237 0
172 24.9027847828866 68.8777339585715 0
173 84.811278288619 80.7703933784307 0
174 20.0185603854148 5.00683276245924 0
175 95.2981065950028 34.6822037126266 0
176 5.07322723206472 15.2509664649759 0
177 95.0109441712678 44.8263854685309 0
178 5.23210528980722 26.2147679491048 0
179 5.30873847289934 63.2269702243289 0
180 39.9403732720659 35.5041944346817 0
181 94.0408566746152 74.0589462841778 0
182 94.7049642820292 80.0833779280382 0
183 14.9416205141932 94.9640100960541 0
184 24.9139825908865 89.6950856928466 0
185 85.0427779016036 45.1073705897207 0
186 94.1203211049371 11.0849887955608 0
187 95.0290888473644 16.7311029382452 0
188 74.4308240014622 34.9316246253572 0
189 4.0902244954584 49.2652263508143 0
190 95.1637727526144 55.0713839543836 0
191 85.1284231065332 56.4525506471183 0
192 44.406130734352 34.6331911314192 0
193 19.9353695945211 94.9133881386712 0
194 44.8902983972641 4.73653396888747 0
195 84.9439665209658 95.1872133116458 0
196 30.0174166076359 4.83044416525203 0
197 59.8751262273873 4.83698576323565 0
198 94.8712332901383 85.1731468519326 0
199 74.9236091399443 4.96687810474099 0
200 89.7306243682355 5.0550437950478 0
201 94.7566136528312 5.16958142492159 0
202 25.6690928289139 59.0101234385269 0
203 24.8449050500822 74.084803016377 0
204 5.00401392054918 5.03359643570394 0
205 4.98688571297907 95.0031999337611 0
206 89.9242524527787 95.1219691736161 0
207 94.9547380306808 95.0587598951064 0
208 15.0136592096246 5.06485439741991 0
209 84.6391292036513 75.7778930523116 0
210 4.04847663114811 45.2576246439395 0
211 24.9593879792386 94.8546566745718 0
212 84.9041708761149 90.3920125232143 0
213 24.488342373638 45.4145949527421 0
214 95.9497502632116 25.9438158987112 0
215 51.2500309874006 36.1056838703029 0
216 25.6800020664714 54.3959342938024 0
217 4.7485168839795 36.6669676358672 0
218 95.748819807533 59.5715692801729 0
219 95.7561742910879 63.9273029567315 0
220 4.23875853179671 53.7040723168261 0
221 84.0991759789917 69.8526429733097 0
222 55.512336912739 34.6751074972837 0
223 34.9594793986656 9.53663998906868 0
224 49.7928555139359 9.52050777981619 0
225 43.3704143327244 30.7348348701023 0
226 64.6597192883867 9.80590359320975 0
227 67.9446202480611 28.1042943263421 0
228 79.752974243603 9.91220559567056 0
229 19.7532023460451 69.0846676701263 0
230 89.1321743252325 9.62531719150127 0
231 20.0344812903369 10.010170879406 0
232 85.1129756670148 39.6874490589805 0
233 19.4306814413007 42.2297047350552 0
234 55.9827433214222 31.5995609672421 0
235 24.8679455013348 34.3965385541471 0
236 5.20349319529328 20.6148255527715 0
237 6.4274233770462 69.1307393131856 0
238 79.9551131688084 33.7258842160341 0
239 35.4539794022215 35.927594477383 0
240 89.6350497723716 80.4305790740133 0
241 89.8811703724575 90.2605551922578 0
242 54.8624034817801 4.78509597667786 0
243 39.9314798961448 4.73175138708687 0
244 85.0473589516502 50.6264165926969 0
245 19.806046263646 84.6533417025677 0
246 14.8766243396754 89.9118052242341 0
247 69.9091389866218 4.9522322955513 0
248 25.0213675182732 4.91010307285841 0
249 94.9269673782826 90.1250844296314 0
250 24.8557925766749 79.3016343929501 0
251 84.8107408986812 4.9259072699187 0
252 5.02486190183041 10.1146019387968 0
253 10.0112731258393 5.07326762524752 0
254 9.96492719409073 94.9902708829581 0
255 4.96527515706827 90.0120018345009 0
256 25.132461174802 63.7085555064825 0
257 4.9729111373742 80.0417921694443 0
258 95.099326670622 39.7136575857392 0
259 84.8790943240595 85.5801814949729 0
260 53.4240897424046 34.2919219883966 0
261 95.0270469142138 50.0126782301252 0
262 19.8770675318716 89.7982097854322 0
263 72.4156825478426 26.2331426440284 0
264 89.0656837144295 70.8649378597864 0
265 8.82132079090335 50.1042501961403 0
266 9.27871798424646 37.8475137028308 0
267 20.9472985868569 57.7748902635142 0
268 63.6186913253722 29.8665086766367 0
269 90.2842697001517 55.7844325727261 0
270 91.3882522415819 61.3474281082383 0
271 91.3836236816753 28.8896551944223 0
272 27.3394014974829 36.2069200132801 0
273 95.9287686261985 30.2861648735921 0
274 19.7619242518815 46.8737512211322 0
275 4.13313131139434 40.8201710048626 0
276 90.2566885545429 18.6540098801647 0
277 10.3721160785429 61.184021547891 0
278 31.8020707893069 32.483231674921 0
279 55.6798851231479 27.8483093695617 0
280 63.4345592679767 25.3575187536466 0
281 54.7235939227709 9.55548224096822 0
282 39.9500513697014 9.48891918369664 0
283 10.4736320644168 20.9096574496236 0
284 85.6502872909999 20.6323158476264 0
285 69.6674286019201 9.96620002106978 0
286 29.9611603166692 9.61157356032947 0
287 39.7618130261155 31.3218675402112 0
288 19.6841947610385 74.3026471413693 0
289 15.051463894451 10.1802632568173 0
290 9.87911142588428 84.9728471835378 0
291 9.94176712706164 75.072890593829 0
292 16.0064773949099 31.0377101627416 0
293 11.1342003138675 65.6547778122757 0
294 85.5026021134614 34.5043061728677 0
295 44.9161180096597 9.4942877203592 0
296 59.6607787821943 9.65646354208263 0
297 20.1712911090146 63.8330106266958 0
298 49.8381472487043 32.638710347755 0
299 8.68938485641376 43.1710492185033 0
300 74.7255120434156 10.0042777516151 0
301 24.9878646629149 9.7611948891609 0
302 19.7612083060277 79.4920283465357 0
303 90.5078699726245 34.5128139593987 0
304 84.6064726940747 9.83986399787061 0
305 88.9903109948833 75.7519124560163 0
306 10.169666167944 15.4381557207906 0
307 10.0557558774688 10.2037934800648 0
308 20.2133473997344 31.5294264512599 0
309 9.92051064324185 89.9761410911747 0
310 86.0908159805593 29.8562073831485 0
311 90.0517014042361 44.8887694274512 0
312 76.8834758475022 24.4761427227311 0
313 67.3918340815233 24.0565161207604 0
314 14.8236610716096 84.823988256631 0
315 89.8233519683166 85.3676116441603 0
316 90.0782302921014 50.2997115049347 0
317 28.3719645445487 32.8943700434771 0
318 15.3708126813327 59.3181029443751 0
319 46.7084848063685 31.13464716555 0
320 14.5122732167517 42.6953531903758 0
321 14.5633670418666 48.3918702561603 0
322 82.7174636184501 30.1192981301941 0
323 53.1327791136023 32.1043687373061 0
324 59.4237504615825 26.8356804636996 0
325 89.25941250615 14.2292534173931 0
326 28.252848374902 29.6552220011163 0
327 43.5224258128545 27.2241226058274 0
328 55.5109679567914 24.2825227204262 0
329 29.6177325708826 14.1805345783097 0
330 40.0897304138762 14.3174479649824 0
331 54.5163509620109 14.175254204323 0
332 62.8720625152556 20.3120297161494 0
333 74.4269125378349 15.6612149215675 0
334 20.7578434426075 27.3411359108786 0
335 71.6855364687346 21.405193992038 0
336 59.1559217192144 14.424680282186 0
337 63.9523657176693 14.7729723715788 0
338 15.1816745251321 15.3070274670964 0
339 35.7266487172628 31.9102624757599 0
340 84.2844082034796 15.4212686464115 0
341 45.0799850361203 14.3181635780533 0
342 24.8614739718228 14.4738213203588 0
343 9.87662694690935 79.947635637888 0
344 90.1844035354756 39.6685961202489 0
345 11.2184344878504 27.4875516518895 0
346 51.5055988353686 28.4561866533843 0
347 14.7746575464196 79.7355122507998 0
348 58.7145003944903 23.2556126509396 0
349 47.817875898299 35.7987945370403 0
350 14.6696793276438 74.7422066695547 0
351 14.1318151646701 69.4622575902145 0
352 15.6434090193804 64.0708366737994 0
353 81.2023467534694 22.6509854841426 0
354 10.1800632913327 71.427918021861 0
355 24.3857576283382 30.7878829358771 0
356 39.7229751658607 27.3920627108317 0
357 29.2295703296033 18.51669952239 0
358 40.0821807422674 19.0429679569202 0
359 51.5549644170998 23.3428705377669 0
360 24.4114251578522 26.8120037748168 0
361 54.7731247047791 21.2190994508772 0
362 15.5774508408674 20.4304824467233 0
363 34.6253347689898 14.7284661731866 0
364 68.8564591687118 15.1028057856924 0
365 49.8859877680562 14.2238918955895 0
366 20.0727700144257 14.8814943931503 0
367 79.4511518835848 14.4519274722638 0
368 32.0007700677011 28.7202921610252 0
369 47.260127526909 27.5854779933959 0
370 57.9840117292286 19.0761206212195 0
371 76.4077621799713 20.2825171421315 0
372 16.8287144177085 25.5695655947138 0
373 67.6291658666289 19.7368026699861 0
374 80.048785644761 18.727139797164 0
375 35.8330510410683 27.9549301389183 0
376 28.1711443530555 25.9999576321628 0
377 47.3906039797568 23.8176707551833 0
378 35.0554440228554 19.5636151334259 0
379 24.6838360231704 18.8886447043654 0
380 35.7456768283025 23.9713148824948 0
381 43.6065028098779 23.7103584748354 0
382 45.3392198555709 19.5838439244149 0
383 20.2723621030636 19.5277472329034 0
384 50.3135484966348 18.7058437130906 0
385 20.820974418261 23.4091671043518 0
386 54.1687658318359 18.0552022468159 0
387 39.8502154240449 23.4796596985317 0
388 31.8635017048067 25.0034774697645 0
389 24.5355761964413 22.9155494365 0
390 28.0076620923271 22.6013662517852 0
391 31.3740782669838 21.6837553928495 0
392 32.3930697638369 17.6531127029821 0
393 44.939707510898 85.0177116696519 0
394 44.8644496507059 74.8196673194047 0
395 64.8549078095415 84.3875518982132 0
396 65.0732013384572 68.6154928709877 0
397 44.6572936303427 64.5234301835699 0
398 54.9279888428102 94.9620561049281 0
399 49.2564653289965 54.6032592561629 0
400 60.6750901846696 59.1950813294882 0
401 44.9846822481664 95.0039841522452 0
402 64.8957110072015 89.6274169457471 0
403 44.7431898061956 54.7839781375192 0
404 59.9200991417229 94.8992085891218 0
405 64.9246104506826 73.811966645498 0
406 64.9499965751599 94.8224888109307 0
407 52.2199992720818 54.813404169974 0
408 64.7918017934817 59.540462860046 0
409 60.1654419518937 68.457872670541 0
410 53.1805694363309 58.1614843637897 0
411 48.9358407358009 59.0501278409128 0
412 60.6070278450022 63.568048967121 0
413 59.780944423387 84.5745385202729 0
414 54.8512427368195 89.9034401586282 0
415 64.8696110243001 79.1092152726784 0
416 44.7543130231361 69.6105761396623 0
417 49.9575840521542 94.990834074555 0
418 44.958419696807 90.0113393909095 0
419 44.9099941117208 79.9399796384752 0
420 44.6042435513349 59.5887194638889 0
421 59.8530452597665 89.7604229221648 0
422 56.9931844126323 59.1900518928723 0
423 65.1650382342228 63.6896689122116 0
424 49.1221532537731 63.7746583327415 0
425 59.7837945455044 79.2681244785721 0
426 49.4909114905806 68.949930545497 0
427 49.745116590758 74.3799453035548 0
428 49.8554310087069 84.9338227702794 0
429 56.7734455230359 62.8480452652254 0
430 59.8640341997429 73.8364412017713 0
431 49.9043237265996 89.9699257089244 0
432 54.8040129515485 84.7567978255414 0
433 56.2944939147525 56.0048997738409 0
434 52.9928547653243 62.8513406368743 0
435 49.8204253325751 79.7247704169771 0
436 54.8082750633063 67.8106714638565 0
437 54.7824396211789 73.9743982135977 0
438 54.7883112767355 79.4578023133034 0
$EndNodes
$Elements
388
1 2 2 1 1 9 215 153 
2 2 2 1 1 157 188 156 
3 2 2 1 1 333 371 335 
4 2 2 1 1 298 346 323 
5 2 2 1 1 7 213 141 
6 2 2 1 1 192 349 56 
7 2 2 1 1 181 305 264 
8 2 2 1 1 141 233 140 
9 2 2 1 1 186 325 230 
10 2 2 1 1 65 221 66 
11 2 2 1 1 357 391 390 
12 2 2 1 1 381 382 377 
13 2 2 1 1 372 385 334 
14 2 2 1 1 313 373 335 
15 2 2 1 1 340 374 367 
16 2 2 1 1 225 319 192 
17 2 2 1 1 348 370 332 
18 2 2 1 1 378 392 363 
19 2 2 1 1 361 386 370 
20 2 2 1 1 359 361 328 
21 2 2 1 1 275 299 210 
22 2 2 1 1 189 265 220 
23 2 2 1 1 139 266 138 
24 2 2 1 1 214 273 271 
25 2 2 1 1 219 270 218 
26 2 2 1 1 235 317 272 
27 2 2 1 1 202 267 216 
28 2 2 1 1 345 372 292 
29 2 2 1 1 145 270 146 
30 2 2 1 1 215 349 298 
31 2 2 1 1 293 352 351 
32 2 2 1 1 153 222 154 
33 2 2 1 1 7 141 8 
34 2 2 1 1 9 153 57 
35 2 2 1 1 429 436 434 
36 2 2 1 1 144 123 19 
37 2 2 1 1 19 408 144 
38 2 2 1 1 410 433 422 
39 2 2 1 1 143 433 142 
40 2 2 1 1 21 126 142 
41 3 2 1 1 110 16 89 201
42 3 2 1 1 26 252 176 25
43 3 2 1 1 106 107 170 199
44 3 2 1 1 33 205 44 4
45 3 2 1 1 181 75 76 182
46 3 2 1 1 205 254 43 44
47 3 2 1 1 50 49 203 172
48 3 2 1 1 43 254 183 42
49 3 2 1 1 182 76 77 198
50 3 2 1 1 183 193 41 42
51 3 2 1 1 97 98 165 196
52 3 2 1 1 197 103 104 167
53 3 2 1 1 92 204 27 2
54 3 2 1 1 204 252 26 27
55 3 2 1 1 170 107 108 251
56 3 2 1 1 72 73 206 207
57 3 2 1 1 79 13 72 207
58 3 2 1 1 176 236 24 25
59 3 2 1 1 204 92 93 253
60 3 2 1 1 203 288 229 172
61 3 2 1 1 198 77 78 249
62 3 2 1 1 205 33 34 255
63 3 2 1 1 174 208 94 95
64 3 2 1 1 168 35 36 257
65 3 2 1 1 203 49 48 250
66 3 2 1 1 167 104 105 247
67 3 2 1 1 307 306 176 252
68 3 2 1 1 252 204 253 307
69 3 2 1 1 93 94 208 253
70 3 2 1 1 174 231 289 208
71 3 2 1 1 249 78 79 207
72 3 2 1 1 228 300 199 170
73 3 2 1 1 212 70 69 259
74 3 2 1 1 34 35 168 255
75 3 2 1 1 36 37 169 257
76 3 2 1 1 250 48 47 171
77 3 2 1 1 171 47 46 184
78 3 2 1 1 247 105 106 199
79 3 2 1 1 307 253 208 289
80 3 2 1 1 288 203 250 302
81 3 2 1 1 175 82 83 258
82 3 2 1 1 69 68 173 259
83 3 2 1 1 254 205 255 309
84 3 2 1 1 174 95 96 248
85 3 2 1 1 5 40 211 45
86 3 2 1 1 184 46 45 211
87 3 2 1 1 40 41 193 211
88 3 2 1 1 83 84 177 258
89 3 2 1 1 301 231 174 248
90 3 2 1 1 248 96 97 196
91 3 2 1 1 183 254 309 246
92 3 2 1 1 211 193 262 184
93 3 2 1 1 171 245 302 250
94 3 2 1 1 223 286 196 165
95 3 2 1 1 311 177 261 316
96 3 2 1 1 245 171 184 262
97 3 2 1 1 248 196 286 301
98 3 2 1 1 262 246 314 245
99 3 2 1 1 247 199 300 285
100 3 2 1 1 314 246 309 290
101 3 2 1 1 10 232 185 62
102 3 2 1 1 183 246 262 193
103 3 2 1 1 89 90 186 201
104 3 2 1 1 285 226 167 247
105 3 2 1 1 56 55 180 192
106 3 2 1 1 342 366 231 301
107 3 2 1 1 62 185 244 63
108 3 2 1 1 173 240 315 259
109 3 2 1 1 337 226 285 364
110 3 2 1 1 73 74 195 206
111 3 2 1 1 191 64 63 244
112 3 2 1 1 343 290 168 257
113 3 2 1 1 163 101 102 242
114 3 2 1 1 177 84 85 261
115 3 2 1 1 350 288 302 347
116 3 2 1 1 251 108 109 200
117 3 2 1 1 109 110 201 200
118 3 2 1 1 297 256 172 229
119 3 2 1 1 85 86 190 261
120 3 2 1 1 229 288 350 351
121 3 2 1 1 273 81 82 175
122 3 2 1 1 245 314 347 302
123 3 2 1 1 210 189 29 30
124 3 2 1 1 71 195 74 12
125 3 2 1 1 290 309 255 168
126 3 2 1 1 256 51 50 172
127 3 2 1 1 242 102 103 197
128 3 2 1 1 10 238 294 232
129 3 2 1 1 238 10 61 188
130 3 2 1 1 71 70 212 195
131 3 2 1 1 226 296 197 167
132 3 2 1 1 287 356 327 225
133 3 2 1 1 165 98 99 243
134 3 2 1 1 195 212 241 206
135 3 2 1 1 304 228 170 251
136 3 2 1 1 51 256 202 52
137 3 2 1 1 249 207 206 241
138 3 2 1 1 194 100 101 163
139 3 2 1 1 23 24 236 178
140 3 2 1 1 87 218 190 86
141 3 2 1 1 314 290 343 347
142 3 2 1 1 243 99 100 194
143 3 2 1 1 257 169 291 343
144 3 2 1 1 261 190 269 316
145 3 2 1 1 236 176 306 283
146 3 2 1 1 225 327 369 319
147 3 2 1 1 301 286 329 342
148 3 2 1 1 259 315 241 212
149 3 2 1 1 336 296 226 337
150 3 2 1 1 356 387 381 327
151 3 2 1 1 305 181 182 240
152 3 2 1 1 67 209 173 68
153 3 2 1 1 315 198 249 241
154 3 2 1 1 278 317 326 368
155 3 2 1 1 370 386 331 336
156 3 2 1 1 363 223 282 330
157 3 2 1 1 59 155 156 60
158 3 2 1 1 155 59 58 154
159 3 2 1 1 154 58 57 153
160 3 2 1 1 368 326 376 388
161 3 2 1 1 240 182 198 315
162 3 2 1 1 383 362 338 366
163 3 2 1 1 283 345 178 236
164 3 2 1 1 327 381 377 369
165 3 2 1 1 363 330 358 378
166 3 2 1 1 169 37 38 237
167 3 2 1 1 289 231 366 338
168 3 2 1 1 305 240 173 209
169 3 2 1 1 162 161 276 187
170 3 2 1 1 339 278 368 375
171 3 2 1 1 224 281 331 365
172 3 2 1 1 379 357 390 389
173 3 2 1 1 300 333 364 285
174 3 2 1 1 376 360 389 390
175 3 2 1 1 389 385 383 379
176 3 2 1 1 185 311 316 244
177 3 2 1 1 265 189 210 299
178 3 2 1 1 180 287 225 192
179 3 2 1 1 186 90 91 187
180 3 2 1 1 366 342 379 383
181 3 2 1 1 306 307 289 338
182 3 2 1 1 237 38 39 179
183 3 2 1 1 200 201 186 230
184 3 2 1 1 364 333 335 373
185 3 2 1 1 227 263 157 156
186 3 2 1 1 148 149 277 179
187 3 2 1 1 284 276 161 160
188 3 2 1 1 326 355 360 376
189 3 2 1 1 152 151 274 213
190 3 2 1 1 242 197 296 281
191 3 2 1 1 278 339 239 164
192 3 2 1 1 338 362 283 306
193 3 2 1 1 362 372 345 283
194 3 2 1 1 329 286 223 363
195 3 2 1 1 275 210 30 31
196 3 2 1 1 137 178 345 138
197 3 2 1 1 304 251 200 230
198 3 2 1 1 380 388 391 378
199 3 2 1 1 335 371 312 263
200 3 2 1 1 214 80 81 273
201 3 2 1 1 341 382 358 330
202 3 2 1 1 296 336 331 281
203 3 2 1 1 317 278 164 272
204 3 2 1 1 52 202 216 53
205 3 2 1 1 160 159 353 284
206 3 2 1 1 151 150 321 274
207 3 2 1 1 265 321 150 149
208 3 2 1 1 29 189 220 28
209 3 2 1 1 158 157 263 312
210 3 2 1 1 339 287 180 239
211 3 2 1 1 388 380 375 368
212 3 2 1 1 191 145 11 64
213 3 2 1 1 14 75 181 147
214 3 2 1 1 187 91 15 162
215 3 2 1 1 178 137 1 23
216 3 2 1 1 3 148 179 39
217 3 2 1 1 336 337 332 370
218 3 2 1 1 375 356 287 339
219 3 2 1 1 349 192 319 298
220 3 2 1 1 148 3 28 220
221 3 2 1 1 217 275 31 32
222 3 2 1 1 244 316 269 191
223 3 2 1 1 312 353 159 158
224 3 2 1 1 356 375 380 387
225 3 2 1 1 175 258 344 303
226 3 2 1 1 152 6 53 216
227 3 2 1 1 340 367 228 304
228 3 2 1 1 209 221 264 305
229 3 2 1 1 347 343 291 350
230 3 2 1 1 313 280 332 373
231 3 2 1 1 55 54 239 180
232 3 2 1 1 311 185 232 344
233 3 2 1 1 258 177 311 344
234 3 2 1 1 32 1 137 217
235 3 2 1 1 88 14 147 219
236 3 2 1 1 166 234 279 324
237 3 2 1 1 149 150 318 277
238 3 2 1 1 292 372 334 308
239 3 2 1 1 357 379 342 329
240 3 2 1 1 80 214 162 15
241 3 2 1 1 371 374 353 312
242 3 2 1 1 164 239 54 8
243 3 2 1 1 217 137 138 266
244 3 2 1 1 324 280 268 166
245 3 2 1 1 344 232 294 303
246 3 2 1 1 154 222 234 166
247 3 2 1 1 188 157 158 238
248 3 2 1 1 367 374 371 333
249 3 2 1 1 221 145 146 264
250 3 2 1 1 358 382 381 387
251 3 2 1 1 145 221 65 11
252 3 2 1 1 346 359 328 279
253 3 2 1 1 297 352 318 267
254 3 2 1 1 216 267 151 152
255 3 2 1 1 227 268 280 313
256 3 2 1 1 384 386 361 359
257 3 2 1 1 260 323 234 222
258 3 2 1 1 273 175 303 271
259 3 2 1 1 150 151 267 318
260 3 2 1 1 281 224 163 242
261 3 2 1 1 202 256 297 267
262 3 2 1 1 66 221 209 67
263 3 2 1 1 214 271 161 162
264 3 2 1 1 156 155 268 227
265 3 2 1 1 308 140 139 292
266 3 2 1 1 352 297 229 351
267 3 2 1 1 277 318 352 293
268 3 2 1 1 243 194 295 282
269 3 2 1 1 266 299 275 217
270 3 2 1 1 355 326 317 235
271 3 2 1 1 350 291 354 351
272 3 2 1 1 263 227 313 335
273 3 2 1 1 324 279 328 348
274 3 2 1 1 369 377 359 346
275 3 2 1 1 224 295 194 163
276 3 2 1 1 219 218 87 88
277 3 2 1 1 360 334 385 389
278 3 2 1 1 280 324 348 332
279 3 2 1 1 6 152 213 7
280 3 2 1 1 382 341 365 384
281 3 2 1 1 146 270 219 147
282 3 2 1 1 303 294 310 271
283 3 2 1 1 295 341 330 282
284 3 2 1 1 179 277 293 237
285 3 2 1 1 334 360 355 308
286 3 2 1 1 321 265 299 320
287 3 2 1 1 348 328 361 370
288 3 2 1 1 166 268 155 154
289 3 2 1 1 269 190 218 270
290 3 2 1 1 300 228 367 333
291 3 2 1 1 282 223 165 243
292 3 2 1 1 384 359 377 382
293 3 2 1 1 271 310 160 161
294 3 2 1 1 310 322 159 160
295 3 2 1 1 140 233 320 139
296 3 2 1 1 235 140 308 355
297 3 2 1 1 340 325 276 284
298 3 2 1 1 260 215 298 323
299 3 2 1 1 60 156 188 61
300 3 2 1 1 385 372 362 383
301 3 2 1 1 319 369 346 298
302 3 2 1 1 341 295 224 365
303 3 2 1 1 293 351 354 237
304 3 2 1 1 390 391 388 376
305 3 2 1 1 320 299 266 139
306 3 2 1 1 260 222 153 215
307 3 2 1 1 354 291 169 237
308 3 2 1 1 149 148 220 265
309 3 2 1 1 320 233 274 321
310 3 2 1 1 141 140 235 272
311 3 2 1 1 264 146 147 181
312 3 2 1 1 138 345 292 139
313 3 2 1 1 391 357 392 378
314 3 2 1 1 270 145 191 269
315 3 2 1 1 349 215 9 56
316 3 2 1 1 365 331 386 384
317 3 2 1 1 378 358 387 380
318 3 2 1 1 233 141 213 274
319 3 2 1 1 322 310 294 238
320 3 2 1 1 337 364 373 332
321 3 2 1 1 284 353 374 340
322 3 2 1 1 187 276 325 186
323 3 2 1 1 340 304 230 325
324 3 2 1 1 272 164 8 141
325 3 2 1 1 158 159 322 238
326 3 2 1 1 323 346 279 234
327 3 2 1 1 392 357 329 363
328 3 2 1 1 136 401 115 18
329 3 2 1 1 403 127 21 399
330 3 2 1 1 128 22 127 403
331 3 2 1 1 398 404 112 113
332 3 2 1 1 114 417 398 113
333 3 2 1 1 401 417 114 115
334 3 2 1 1 401 136 135 418
335 3 2 1 1 393 134 133 419
336 3 2 1 1 395 118 117 402
337 3 2 1 1 135 134 393 418
338 3 2 1 1 133 132 394 419
339 3 2 1 1 415 119 118 395
340 3 2 1 1 396 121 120 405
341 3 2 1 1 405 120 119 415
342 3 2 1 1 394 132 131 416
343 3 2 1 1 417 401 418 431
344 3 2 1 1 405 430 409 396
345 3 2 1 1 416 131 130 397
346 3 2 1 1 402 117 116 406
347 3 2 1 1 17 111 406 116
348 3 2 1 1 111 112 404 406
349 3 2 1 1 430 405 415 425
350 3 2 1 1 398 417 431 414
351 3 2 1 1 406 404 421 402
352 3 2 1 1 395 413 425 415
353 3 2 1 1 397 130 129 420
354 3 2 1 1 398 414 421 404
355 3 2 1 1 413 395 402 421
356 3 2 1 1 432 414 431 428
357 3 2 1 1 435 428 393 419
358 3 2 1 1 427 435 419 394
359 3 2 1 1 421 414 432 413
360 3 2 1 1 420 129 128 403
361 3 2 1 1 428 431 418 393
362 3 2 1 1 426 427 394 416
363 3 2 1 1 437 430 425 438
364 3 2 1 1 435 438 432 428
365 3 2 1 1 413 432 438 425
366 3 2 1 1 420 411 424 397
367 3 2 1 1 426 416 397 424
368 3 2 1 1 438 435 427 437
369 3 2 1 1 412 423 396 409
370 3 2 1 1 429 422 400 412
371 3 2 1 1 125 143 142 126
372 3 2 1 1 124 20 123 144
373 3 2 1 1 143 125 124 144
374 3 2 1 1 409 430 437 436
375 3 2 1 1 411 420 403 399
376 3 2 1 1 411 410 434 424
377 3 2 1 1 422 433 143 400
378 3 2 1 1 122 423 408 19
379 3 2 1 1 409 436 429 412
380 3 2 1 1 408 423 412 400
381 3 2 1 1 144 408 400 143
382 3 2 1 1 422 429 434 410
383 3 2 1 1 423 122 121 396
384 3 2 1 1 437 427 426 436
385 3 2 1 1 424 434 436 426
386 3 2 1 1 407 142 433 410
387 3 2 1 1 399 407 410 411
388 3 2 1 1 21 142 407 399
$EndElements
