$MeshFormat
2.2 0 8
$EndMeshFormat
$Nodes
158
1 -125 -125 0
2 125 -125 0
3 125 125 0
4 -125 125 0
5 -250 -250 0
6 250 -250 0
7 -250 250 0
8 250 250 0
9 -75 -125 0
10 -25 -125 0
11 25 -125 0
12 75 -125 0
13 125 -75 0
14 125 -25 0
15 125 25 0
16 125 75 0
17 75 125 0
18 25 125 0
19 -25 125 0
20 -75 125 0
21 -125 75 0
22 -125 25 0
23 -125 -25 0
24 -125 -75 0
25 -200 -250 0
26 -150 -250 0
27 -100 -250 0
28 -50 -250 0
29 0 -250 0
30 50.0000000000001 -250 0
31 100 -250 0
32 150 -250 0
33 200 -250 0
34 -250 200 0
35 -250 150 0
36 -250 100 0
37 -250 50 0
38 -250 0 0
39 -250 -50.0000000000001 0
40 -250 -100 0
41 -250 -150 0
42 -250 -200 0
43 250 -200 0
44 250 -150 0
45 250 -100 0
46 250 -50 0
47 250 0 0
48 250 50.0000000000001 0
49 250 100 0
50 250 150 0
51 250 200 0
52 200 250 0
53 150 250 0
54 100 250 0
55 50 250 0
56 0 250 0
57 -50.0000000000001 250 0
58 -100 250 0
59 -150 250 0
60 -200 250 0
61 -167.416831337284 -90.9073050394627 0
62 67.3030249103507 -164.705310166373 0
63 162.581848442234 126.772276930915 0
64 -65.8549142800971 165.793642538145 0
65 202.347367439893 -202.253182727111 0
66 -202.263843434916 202.392960335544 0
67 -38.1344624087468 -193.219724861907 0
68 206.420258681087 -106.374872296186 0
69 165.162402041825 81.5040000965233 0
70 41.1760986072247 207.742187093811 0
71 -206.104825821328 107.277873897223 0
72 -178.549105058529 -53.628084438708 0
73 -91.2455546561941 -199.516961383036 0
74 90.0182436783137 206.765997631031 0
75 166.07757802638 32.8306847692421 0
76 -164.216029028104 -6.31039478834742 0
77 -143.024669748655 -186.7516778685 0
78 189.170676755825 189.170784102417 0
79 -204.116393515231 -144.914362101455 0
80 -200.407669261525 -195.704175915477 0
81 154.697226377576 -204.402244944782 0
82 206.765262937326 90.0184416479985 0
83 -154.497122925601 204.652454963509 0
84 -10.9890764360699 -161.402466708199 0
85 32.8301635774916 166.079738498453 0
86 -195.39227587254 -21.4766484888689 0
87 165.773093023637 -65.8500857148882 0
88 -164.984728435591 68.4607371291395 0
89 106.8747225695 -206.011240149368 0
90 -106.384195675427 206.460018778885 0
91 58.9485515583302 -206.397789884064 0
92 -206.673793715415 60.1675453944963 0
93 207.512855432033 -57.5953935095915 0
94 -57.5996137178359 207.530820384796 0
95 -114.335352979252 -155.731021860068 0
96 126.772139321069 162.582133547701 0
97 207.901327553969 -8.2514171840784 0
98 -204.43469030592 154.8362090788 0
99 204.594723148048 -154.483607117875 0
100 159.584514299323 -159.266492230108 0
101 -159.302474033953 159.738172991725 0
102 -209.647487946133 -68.8121189996091 0
103 -208.460036322384 -99.8344739863958 0
104 203.359433538773 137.628536478621 0
105 163.735174743772 -113.611950270014 0
106 -163.376856873725 114.564020753382 0
107 207.74003930909 41.1766164013869 0
108 -160.609904041639 -135.118030223067 0
109 -52.1796593678914 -160.088858547974 0
110 21.4084862403901 -163.376303176438 0
111 11.729924886025 -204.341284433268 0
112 -16.581571148858 166.236259291982 0
113 -8.25291106647796 207.907660639476 0
114 158.11524161669 158.115405656982 0
115 137.628428820002 203.359699761437 0
116 114.158789558634 -163.281505765896 0
117 -113.629730961463 163.81091472118 0
118 166.22974061011 -16.5800338728179 0
119 -164.23054912301 24.5354521626791 0
120 -205.149499847469 15.7169202422844 0
121 -83.056688886064 -159.220423937782 0
122 81.5038007263234 165.163136973947 0
123 -125 -125 0
124 125 -125 0
125 125 125 0
126 -125 125 0
127 -75 -125 0
128 -25 -125 0
129 25 -125 0
130 75 -125 0
131 125 -75 0
132 125 -25 0
133 125 25 0
134 125 75 0
135 75 125 0
136 25 125 0
137 -25 125 0
138 -75 125 0
139 -125 75 0
140 -125 25 0
141 -125 -25 0
142 -125 -75 0
143 25.0004355326197 -74.9995946708693 0
144 -24.9995457061465 75.000422788259 0
145 75.0004232332131 25.000393881821 0
146 -74.9995392825097 25.0004287668155 0
147 -24.9995796715459 -74.9996088206742 0
148 -74.9997437337286 75.0002384941013 0
149 -74.999575342447 -24.9996047920522 0
150 -74.9997634238094 -74.9997798300324 0
151 75.0002491721253 -74.9997681076542 0
152 75.0002429825752 75.0002261314918 0
153 -24.9993451112368 25.0006094722629 0
154 -24.9993958344108 -24.9994377328328 0
155 75.0003821429962 -24.9996443584211 0
156 25.0005892884577 25.0005484212331 0
157 25.0003446362687 75.0003207355248 0
158 25.0005446093194 -24.9994931589704 0
$EndNodes
$Elements
117
1 3 2 1 1 50 51 78 104
2 3 2 1 1 11 10 84 110
3 3 2 1 1 19 18 85 112
4 3 2 1 1 91 30 31 89
5 3 2 1 1 6 43 65 33
6 3 2 1 1 66 34 35 98
7 3 2 1 1 7 34 66 60
8 3 2 1 1 65 43 44 99
9 3 2 1 1 94 57 58 90
10 3 2 1 1 85 122 74 70
11 3 2 1 1 23 76 86 72
12 3 2 1 1 24 61 108 1
13 3 2 1 1 12 62 116 2
14 3 2 1 1 20 64 117 4
15 3 2 1 1 3 16 69 63
16 3 2 1 1 67 73 27 28
17 3 2 1 1 37 92 71 36
18 3 2 1 1 35 36 71 98
19 3 2 1 1 120 92 37 38
20 3 2 1 1 41 42 80 79
21 3 2 1 1 46 93 68 45
22 3 2 1 1 44 45 68 99
23 3 2 1 1 97 93 46 47
24 3 2 1 1 70 74 54 55
25 3 2 1 1 107 75 118 97
26 3 2 1 1 77 108 79 80
27 3 2 1 1 71 106 101 98
28 3 2 1 1 68 105 100 99
29 3 2 1 1 15 14 118 75
30 3 2 1 1 23 22 119 76
31 3 2 1 1 5 25 80 42
32 3 2 1 1 27 73 77 26
33 3 2 1 1 28 29 111 67
34 3 2 1 1 30 91 111 29
35 3 2 1 1 38 39 86 120
36 3 2 1 1 39 40 103 102
37 3 2 1 1 40 41 79 103
38 3 2 1 1 49 82 107 48
39 3 2 1 1 47 48 107 97
40 3 2 1 1 55 56 113 70
41 3 2 1 1 57 94 113 56
42 3 2 1 1 102 103 61 72
43 3 2 1 1 91 89 116 62
44 3 2 1 1 78 114 63 104
45 3 2 1 1 94 90 117 64
46 3 2 1 1 10 109 67 84
47 3 2 1 1 73 67 109 121
48 3 2 1 1 75 107 82 69
49 3 2 1 1 122 96 115 74
50 3 2 1 1 86 76 119 120
51 3 2 1 1 67 111 110 84
52 3 2 1 1 70 113 112 85
53 3 2 1 1 97 118 87 93
54 3 2 1 1 120 119 88 92
55 3 2 1 1 77 95 1 108
56 3 2 1 1 9 1 95 121
57 3 2 1 1 87 13 2 105
58 3 2 1 1 63 114 96 3
59 3 2 1 1 88 21 4 106
60 3 2 1 1 87 118 14 13
61 3 2 1 1 3 96 122 17
62 3 2 1 1 88 119 22 21
63 3 2 1 1 80 25 26 77
64 3 2 1 1 33 65 81 32
65 3 2 1 1 8 52 78 51
66 3 2 1 1 54 74 115 53
67 3 2 1 1 52 53 115 78
68 3 2 1 1 60 66 83 59
69 3 2 1 1 111 91 62 110
70 3 2 1 1 113 94 64 112
71 3 2 1 1 78 115 96 114
72 3 2 1 1 62 12 11 110
73 3 2 1 1 75 69 16 15
74 3 2 1 1 64 20 19 112
75 3 2 1 1 61 24 23 72
76 3 2 1 1 89 31 32 81
77 3 2 1 1 72 86 39 102
78 3 2 1 1 90 58 59 83
79 3 2 1 1 99 100 81 65
80 3 2 1 1 98 101 83 66
81 3 2 1 1 50 104 82 49
82 3 2 1 1 108 61 103 79
83 3 2 1 1 89 81 100 116
84 3 2 1 1 90 83 101 117
85 3 2 1 1 93 87 105 68
86 3 2 1 1 92 88 106 71
87 3 2 1 1 69 82 104 63
88 3 2 1 1 77 73 121 95
89 3 2 1 1 116 100 105 2
90 3 2 1 1 117 101 106 4
91 3 2 1 1 10 9 121 109
92 3 2 1 1 122 85 18 17
93 3 2 2 2 154 158 156 153
94 3 2 2 2 153 156 157 144
95 3 2 2 2 144 148 146 153
96 3 2 2 2 148 139 140 146
97 3 2 2 2 140 141 149 146
98 3 2 2 2 156 158 155 145
99 3 2 2 2 133 145 155 132
100 3 2 2 2 155 158 143 151
101 3 2 2 2 147 154 149 150
102 3 2 2 2 138 126 139 148
103 3 2 2 2 150 127 128 147
104 3 2 2 2 143 129 130 151
105 3 2 2 2 155 151 131 132
106 3 2 2 2 133 134 152 145
107 3 2 2 2 144 137 138 148
108 3 2 2 2 141 142 150 149
109 3 2 2 2 154 147 143 158
110 3 2 2 2 153 146 149 154
111 3 2 2 2 142 123 127 150
112 3 2 2 2 130 124 131 151
113 3 2 2 2 134 125 135 152
114 3 2 2 2 129 143 147 128
115 3 2 2 2 136 157 152 135
116 3 2 2 2 137 144 157 136
117 3 2 2 2 145 152 157 156
$EndElements
