$MeshFormat
2.2 0 8
$EndMeshFormat
$Nodes
363
1 0 30 0
2 0 0 0
3 30 30 0
4 30 0 0
5 100 30 0
6 100 0 0
7 0 100 0
8 30 100 0
9 100 100 0
10 0 20 0
11 0 10 0
12 10 30 0
13 20 30 0
14 30 10 0
15 30 20 0
16 10 0 0
17 20 0 0
18 40 30 0
19 50 30 0
20 60 30 0
21 70 30 0
22 80 30 0
23 90 30 0
24 100 10 0
25 100 20 0
26 40 0 0
27 50 0 0
28 60 0 0
29 70 0 0
30 80 0 0
31 90 0 0
32 0 90 0
33 0 80 0
34 0 70 0
35 0 60 0
36 0 50 0
37 0 40 0
38 20 100 0
39 10 100 0
40 30 40 0
41 30 50 0
42 30 60 0
43 30 70 0
44 30 80 0
45 30 90 0
46 90 100 0
47 80 100 0
48 70 100 0
49 60 100 0
50 50 100 0
51 40 100 0
52 100 40 0
53 100 50 0
54 100 60 0
55 100 70 0
56 100 80 0
57 100 90 0
58 10 10 0
59 10 20 0
60 20 20 0
61 20 10 0
62 50 20 0
63 60 20 0
64 70 20 0
65 80 20 0
66 40 20 0
67 40 10 0
68 90 20 0
69 90 10 0
70 60 10 0
71 80 10 0
72 50 10 0
73 70 10 0
74 10 60 0
75 10 40 0
76 10 80 0
77 20 50 0
78 20 60 0
79 20 40 0
80 10 90 0
81 20 90 0
82 20 70 0
83 10 70 0
84 10 50 0
85 20 80 0
86 40 70 0
87 90 60 0
88 60 40 0
89 70 90 0
90 90 40 0
91 40 90 0
92 50 40 0
93 80 90 0
94 50 90 0
95 40 40 0
96 80 40 0
97 40 60 0
98 90 90 0
99 90 70 0
100 50 70 0
101 80 60 0
102 50 80 0
103 40 80 0
104 70 40 0
105 40 50 0
106 60 90 0
107 90 80 0
108 60 50 0
109 70 80 0
110 90 50 0
111 50 50 0
112 80 80 0
113 70 50 0
114 80 50 0
115 50 60 0
116 80 70 0
117 60 80 0
118 60 60 0
119 70 70 0
120 60 70 0
121 70 60 0
122 30 30 0
123 30 0 0
124 30 100 0
125 30 0 100
126 30 30 100
127 30 100 100
128 30 10 0
129 30 20 0
130 30 40 0
131 30 50 0
132 30 60 0
133 30 70 0
134 30 80 0
135 30 90 0
136 30 0 90
137 30 0 80
138 30 0 70
139 30 0 60
140 30 0 50
141 30 0 40
142 30 0 30
143 30 0 20
144 30 0 10
145 30 20 100
146 30 10 100
147 30 30 90
148 30 30 80
149 30 30 70
150 30 30 60
151 30 30 50
152 30 30 40
153 30 30 30
154 30 30 20
155 30 30 10
156 30 90 100
157 30 80 100
158 30 70 100
159 30 60 100
160 30 50 100
161 30 40 100
162 30 100 10
163 30 100 20
164 30 100 30
165 30 100 40
166 30 100 50
167 30 100 60
168 30 100 70
169 30 100 80
170 30 100 90
171 30 10 30
172 30 10 40
173 30 10 10
174 30 10 80
175 30 10 60
176 30 20 30
177 30 20 10
178 30 20 50
179 30 10 90
180 30 20 90
181 30 20 80
182 30 20 70
183 30 10 20
184 30 20 40
185 30 10 70
186 30 20 60
187 30 10 50
188 30 20 20
189 30 39.6624034983605 59.8058584517357
190 30 89.9612369927108 70.0142572153024
191 30 89.9977915553786 39.9983822437187
192 30 39.9976010640335 29.9749090997474
193 30 59.7926143551791 89.9471487098572
194 30 70.0004147797983 9.99899659201758
195 30 40.0006450168276 9.99845888017033
196 30 80.0001683096823 9.99955912580704
197 30 39.7014396643441 79.8296303855695
198 30 89.9828884780722 90.0063109120309
199 30 49.7826492723015 89.9020691632141
200 30 89.999529975407 29.9990932639754
201 30 89.9698731592626 60.0082681852333
202 30 39.8672817301309 89.9270398782513
203 30 50.0009912163159 9.99753607860902
204 30 90.0000457048206 9.99986880221739
205 30 39.9491723293305 39.9320765713658
206 30 79.9346409771494 90.0137924979308
207 30 79.9788603474041 39.9949351557437
208 30 49.9863671889551 29.964661365844
209 30 79.8204754968114 70.0439928425118
210 30 69.9997171012124 19.9947644247675
211 30 89.9551110684179 80.0143347418625
212 30 59.4989365401305 79.9154053935785
213 30 39.6070458667295 69.7963782525659
214 30 69.8538325852689 90.0006029135218
215 30 90.0000284804395 19.9995331709308
216 30 89.9838074691476 50.0012065897599
217 30 60.0008205820089 9.99754411315931
218 30 39.9999459738355 19.991741565599
219 30 39.8260557624811 49.8815888056344
220 30 49.5154632227585 79.8166770387931
221 30 49.7033979102812 49.8693519983159
222 30 79.9218093744007 50.0063939661735
223 30 69.672679451557 80.0200765737529
224 30 79.8472245706078 80.0286673922204
225 30 79.9943629092951 29.9954907028827
226 30 79.8422320597485 60.0298309187429
227 30 49.9993901402578 19.987614632803
228 30 59.9992410300509 19.9891784803921
229 30 49.366445225314 69.8050571813474
230 30 79.9988897162251 19.9974968131556
231 30 49.9018940213279 39.9277348886938
232 30 59.3851336555595 69.952292740617
233 30 69.9351166291795 39.981486024097
234 30 69.6474841844264 60.0259523424215
235 30 69.6059960500752 70.0233819306524
236 30 59.9780048588155 29.9728532417055
237 30 59.8940223153286 39.953054216905
238 30 69.9784099393291 29.9859810183479
239 30 49.501474987312 59.8486325046032
240 30 59.5285939805797 59.94673307375
241 30 59.7358486872873 49.9416848552554
242 30 69.8133714698522 49.9890992979514
243 0 30 0
244 30 30 0
245 100 30 0
246 30 30 100
247 0 30 100
248 100 30 100
249 10 30 0
250 20 30 0
251 40 30 0
252 50 30 0
253 60 30 0
254 70 30 0
255 80 30 0
256 90 30 0
257 30 30 90
258 30 30 80
259 30 30 70
260 30 30 60
261 30 30 50
262 30 30 40
263 30 30 30
264 30 30 20
265 30 30 10
266 0 30 90
267 0 30 80
268 0 30 70
269 0 30 60
270 0 30 50
271 0 30 40
272 0 30 30
273 0 30 20
274 0 30 10
275 20 30 100
276 10 30 100
277 90 30 100
278 80 30 100
279 70 30 100
280 60 30 100
281 50 30 100
282 40 30 100
283 100 30 10
284 100 30 20
285 100 30 30
286 100 30 40
287 100 30 50
288 100 30 60
289 100 30 70
290 100 30 80
291 100 30 90
292 10 30 30
293 20 30 50
294 10 30 10
295 20 30 90
296 20 30 80
297 20 30 70
298 20 30 30
299 20 30 10
300 10 30 40
301 10 30 80
302 10 30 90
303 10 30 60
304 20 30 40
305 10 30 20
306 20 30 60
307 10 30 70
308 20 30 20
309 10 30 50
310 40 30 60
311 90 30 70
312 90 30 40
313 40 30 30
314 60 30 90
315 70 30 10
316 40 30 10
317 90 30 10
318 40 30 90
319 90 30 90
320 90 30 30
321 90 30 60
322 40 30 70
323 50 30 10
324 40 30 40
325 80 30 90
326 80 30 40
327 50 30 60
328 80 30 70
329 50 30 30
330 90 30 80
331 70 30 90
332 50 30 90
333 90 30 50
334 60 30 10
335 80 30 10
336 40 30 80
337 40 30 20
338 90 30 20
339 40 30 50
340 60 30 80
341 80 30 50
342 50 30 40
343 50 30 70
344 80 30 80
345 60 30 20
346 80 30 60
347 50 30 20
348 50 30 50
349 80 30 30
350 70 30 20
351 50 30 80
352 80 30 20
353 70 30 40
354 60 30 70
355 70 30 60
356 60 30 50
357 70 30 70
358 60 30 40
359 70 30 80
360 60 30 30
361 70 30 30
362 60 30 60
363 70 30 50
$EndNodes
$Elements
300
1 3 2 1 1 1 10 59 12
2 3 2 1 1 11 58 59 10
3 3 2 1 1 2 16 58 11
4 3 2 1 1 3 13 60 15
5 3 2 1 1 12 59 60 13
6 3 2 1 1 4 14 61 17
7 3 2 1 1 15 60 61 14
8 3 2 1 1 16 17 61 58
9 3 2 1 1 59 58 61 60
10 3 2 1 1 64 63 70 73
11 3 2 1 1 4 26 67 14
12 3 2 1 1 3 15 66 18
13 3 2 1 1 14 67 66 15
14 3 2 1 1 20 19 62 63
15 3 2 1 1 18 66 62 19
16 3 2 1 1 63 64 21 20
17 3 2 1 1 21 64 65 22
18 3 2 1 1 5 23 68 25
19 3 2 1 1 22 65 68 23
20 3 2 1 1 6 24 69 31
21 3 2 1 1 25 68 69 24
22 3 2 1 1 72 67 26 27
23 3 2 1 1 73 70 28 29
24 3 2 1 1 27 28 70 72
25 3 2 1 1 31 69 71 30
26 3 2 1 1 29 30 71 73
27 3 2 1 1 72 62 66 67
28 3 2 1 1 62 72 70 63
29 3 2 1 1 68 65 71 69
30 3 2 1 1 64 73 71 65
31 3 2 1 1 37 75 84 36
32 3 2 1 1 34 35 74 83
33 3 2 1 1 42 43 82 78
34 3 2 1 1 74 84 77 78
35 3 2 1 1 74 78 82 83
36 3 2 1 1 1 12 75 37
37 3 2 1 1 13 79 75 12
38 3 2 1 1 3 40 79 13
39 3 2 1 1 42 78 77 41
40 3 2 1 1 7 32 80 39
41 3 2 1 1 33 76 80 32
42 3 2 1 1 83 76 33 34
43 3 2 1 1 84 74 35 36
44 3 2 1 1 8 38 81 45
45 3 2 1 1 39 80 81 38
46 3 2 1 1 40 41 77 79
47 3 2 1 1 45 81 85 44
48 3 2 1 1 43 44 85 82
49 3 2 1 1 84 75 79 77
50 3 2 1 1 80 76 85 81
51 3 2 1 1 83 82 85 76
52 3 2 1 1 8 45 91 51
53 3 2 1 1 51 91 94 50
54 3 2 1 1 102 103 86 100
55 3 2 1 1 103 102 94 91
56 3 2 1 1 117 106 94 102
57 3 2 1 1 102 100 120 117
58 3 2 1 1 3 18 95 40
59 3 2 1 1 18 19 92 95
60 3 2 1 1 19 20 88 92
61 3 2 1 1 20 21 104 88
62 3 2 1 1 5 52 90 23
63 3 2 1 1 22 23 90 96
64 3 2 1 1 40 95 105 41
65 3 2 1 1 42 97 86 43
66 3 2 1 1 54 55 99 87
67 3 2 1 1 97 115 100 86
68 3 2 1 1 108 111 92 88
69 3 2 1 1 111 105 95 92
70 3 2 1 1 105 111 115 97
71 3 2 1 1 118 120 100 115
72 3 2 1 1 111 108 118 115
73 3 2 1 1 113 121 118 108
74 3 2 1 1 96 104 21 22
75 3 2 1 1 97 42 41 105
76 3 2 1 1 86 103 44 43
77 3 2 1 1 91 45 44 103
78 3 2 1 1 9 46 98 57
79 3 2 1 1 47 93 98 46
80 3 2 1 1 48 89 93 47
81 3 2 1 1 49 106 89 48
82 3 2 1 1 106 49 50 94
83 3 2 1 1 53 110 90 52
84 3 2 1 1 110 53 54 87
85 3 2 1 1 57 98 107 56
86 3 2 1 1 55 56 107 99
87 3 2 1 1 110 87 101 114
88 3 2 1 1 108 88 104 113
89 3 2 1 1 117 109 89 106
90 3 2 1 1 114 96 90 110
91 3 2 1 1 98 93 112 107
92 3 2 1 1 89 109 112 93
93 3 2 1 1 114 113 104 96
94 3 2 1 1 87 99 116 101
95 3 2 1 1 107 112 116 99
96 3 2 1 1 113 114 101 121
97 3 2 1 1 119 121 101 116
98 3 2 1 1 109 119 116 112
99 3 2 1 1 119 120 118 121
100 3 2 1 1 120 119 109 117
101 3 2 2 2 176 184 172 171
102 3 2 2 2 171 183 188 176
103 3 2 2 2 177 188 183 173
104 3 2 2 2 122 155 177 129
105 3 2 2 2 141 172 187 140
106 3 2 2 2 171 142 143 183
107 3 2 2 2 153 152 184 176
108 3 2 2 2 151 178 184 152
109 3 2 2 2 155 154 188 177
110 3 2 2 2 184 178 187 172
111 3 2 2 2 186 182 185 175
112 3 2 2 2 186 150 149 182
113 3 2 2 2 177 173 128 129
114 3 2 2 2 123 128 173 144
115 3 2 2 2 125 136 179 146
116 3 2 2 2 137 174 179 136
117 3 2 2 2 138 185 174 137
118 3 2 2 2 175 185 138 139
119 3 2 2 2 140 187 175 139
120 3 2 2 2 172 141 142 171
121 3 2 2 2 183 143 144 173
122 3 2 2 2 126 145 180 147
123 3 2 2 2 146 179 180 145
124 3 2 2 2 147 180 181 148
125 3 2 2 2 149 148 181 182
126 3 2 2 2 150 186 178 151
127 3 2 2 2 153 176 188 154
128 3 2 2 2 179 174 181 180
129 3 2 2 2 181 174 185 182
130 3 2 2 2 175 187 178 186
131 3 2 2 2 232 240 234 235
132 3 2 2 2 239 221 241 240
133 3 2 2 2 232 229 239 240
134 3 2 2 2 232 235 223 212
135 3 2 2 2 240 241 242 234
136 3 2 2 2 233 242 241 237
137 3 2 2 2 224 206 214 223
138 3 2 2 2 190 211 224 209
139 3 2 2 2 229 220 197 213
140 3 2 2 2 233 237 236 238
141 3 2 2 2 235 234 226 209
142 3 2 2 2 228 210 238 236
143 3 2 2 2 197 148 149 213
144 3 2 2 2 191 216 222 207
145 3 2 2 2 208 227 228 236
146 3 2 2 2 126 147 202 161
147 3 2 2 2 147 148 197 202
148 3 2 2 2 152 205 219 151
149 3 2 2 2 154 155 195 218
150 3 2 2 2 193 214 158 159
151 3 2 2 2 160 161 202 199
152 3 2 2 2 164 200 215 163
153 3 2 2 2 164 165 191 200
154 3 2 2 2 166 216 191 165
155 3 2 2 2 167 201 216 166
156 3 2 2 2 190 168 169 211
157 3 2 2 2 212 223 214 193
158 3 2 2 2 193 199 220 212
159 3 2 2 2 191 207 225 200
160 3 2 2 2 222 216 201 226
161 3 2 2 2 228 227 203 217
162 3 2 2 2 189 213 149 150
163 3 2 2 2 219 189 150 151
164 3 2 2 2 205 152 153 192
165 3 2 2 2 218 192 153 154
166 3 2 2 2 208 192 218 227
167 3 2 2 2 217 194 210 228
168 3 2 2 2 203 227 218 195
169 3 2 2 2 224 211 198 206
170 3 2 2 2 197 220 199 202
171 3 2 2 2 200 225 230 215
172 3 2 2 2 155 122 130 195
173 3 2 2 2 131 203 195 130
174 3 2 2 2 132 217 203 131
175 3 2 2 2 217 132 133 194
176 3 2 2 2 133 134 196 194
177 3 2 2 2 124 162 204 135
178 3 2 2 2 134 135 204 196
179 3 2 2 2 127 156 198 170
180 3 2 2 2 214 206 157 158
181 3 2 2 2 156 157 206 198
182 3 2 2 2 199 193 159 160
183 3 2 2 2 162 163 215 204
184 3 2 2 2 201 167 168 190
185 3 2 2 2 211 169 170 198
186 3 2 2 2 194 196 230 210
187 3 2 2 2 204 215 230 196
188 3 2 2 2 190 209 226 201
189 3 2 2 2 192 208 231 205
190 3 2 2 2 219 205 231 221
191 3 2 2 2 238 225 207 233
192 3 2 2 2 236 237 231 208
193 3 2 2 2 223 235 209 224
194 3 2 2 2 230 225 238 210
195 3 2 2 2 231 237 241 221
196 3 2 2 2 207 222 242 233
197 3 2 2 2 226 234 242 222
198 3 2 2 2 221 239 189 219
199 3 2 2 2 229 232 212 220
200 3 2 2 2 213 189 239 229
201 3 2 3 3 298 304 300 292
202 3 2 3 3 292 305 308 298
203 3 2 3 3 261 293 304 262
204 3 2 3 3 299 308 305 294
205 3 2 3 3 244 265 299 250
206 3 2 3 3 265 264 308 299
207 3 2 3 3 271 300 309 270
208 3 2 3 3 292 272 273 305
209 3 2 3 3 304 293 309 300
210 3 2 3 3 306 297 307 303
211 3 2 3 3 306 260 259 297
212 3 2 3 3 299 294 249 250
213 3 2 3 3 243 249 294 274
214 3 2 3 3 246 275 295 257
215 3 2 3 3 257 295 296 258
216 3 2 3 3 259 258 296 297
217 3 2 3 3 260 306 293 261
218 3 2 3 3 262 304 298 263
219 3 2 3 3 263 298 308 264
220 3 2 3 3 247 266 302 276
221 3 2 3 3 267 301 302 266
222 3 2 3 3 268 307 301 267
223 3 2 3 3 303 307 268 269
224 3 2 3 3 270 309 303 269
225 3 2 3 3 300 271 272 292
226 3 2 3 3 305 273 274 294
227 3 2 3 3 275 276 302 295
228 3 2 3 3 296 295 302 301
229 3 2 3 3 296 301 307 297
230 3 2 3 3 293 306 303 309
231 3 2 3 3 362 356 363 355
232 3 2 3 3 354 362 355 357
233 3 2 3 3 353 363 356 358
234 3 2 3 3 344 325 331 359
235 3 2 3 3 311 330 344 328
236 3 2 3 3 314 340 359 331
237 3 2 3 3 353 358 360 361
238 3 2 3 3 282 318 332 281
239 3 2 3 3 312 333 341 326
240 3 2 3 3 361 360 345 350
241 3 2 3 3 343 354 340 351
242 3 2 3 3 342 358 356 348
243 3 2 3 3 259 322 336 258
244 3 2 3 3 262 324 339 261
245 3 2 3 3 264 265 316 337
246 3 2 3 3 314 331 279 280
247 3 2 3 3 285 286 312 320
248 3 2 3 3 287 333 312 286
249 3 2 3 3 288 321 333 287
250 3 2 3 3 311 289 290 330
251 3 2 3 3 312 326 349 320
252 3 2 3 3 341 333 321 346
253 3 2 3 3 310 327 343 322
254 3 2 3 3 351 336 322 343
255 3 2 3 3 348 339 324 342
256 3 2 3 3 359 357 328 344
257 3 2 3 3 355 346 328 357
258 3 2 3 3 314 332 351 340
259 3 2 3 3 357 359 340 354
260 3 2 3 3 318 257 258 336
261 3 2 3 3 246 257 318 282
262 3 2 3 3 310 322 259 260
263 3 2 3 3 339 310 260 261
264 3 2 3 3 324 262 263 313
265 3 2 3 3 337 313 263 264
266 3 2 3 3 329 313 337 347
267 3 2 3 3 336 351 332 318
268 3 2 3 3 344 330 319 325
269 3 2 3 3 347 323 334 345
270 3 2 3 3 362 327 348 356
271 3 2 3 3 265 244 251 316
272 3 2 3 3 252 323 316 251
273 3 2 3 3 253 334 323 252
274 3 2 3 3 334 253 254 315
275 3 2 3 3 254 255 335 315
276 3 2 3 3 256 317 335 255
277 3 2 3 3 245 283 317 256
278 3 2 3 3 248 277 319 291
279 3 2 3 3 331 325 278 279
280 3 2 3 3 277 278 325 319
281 3 2 3 3 332 314 280 281
282 3 2 3 3 283 284 338 317
283 3 2 3 3 285 320 338 284
284 3 2 3 3 321 288 289 311
285 3 2 3 3 330 290 291 319
286 3 2 3 3 327 310 339 348
287 3 2 3 3 334 315 350 345
288 3 2 3 3 347 337 316 323
289 3 2 3 3 311 328 346 321
290 3 2 3 3 313 329 342 324
291 3 2 3 3 363 353 326 341
292 3 2 3 3 361 349 326 353
293 3 2 3 3 360 358 342 329
294 3 2 3 3 345 360 329 347
295 3 2 3 3 317 338 352 335
296 3 2 3 3 315 335 352 350
297 3 2 3 3 320 349 352 338
298 3 2 3 3 346 355 363 341
299 3 2 3 3 327 362 354 343
300 3 2 3 3 352 349 361 350
$EndElements
