$MeshFormat
2.2 0 8
$EndMeshFormat
$Nodes
253
1 -30 -10 0
2 0 -10 0
3 -10 10 0
4 -20 10 0
5 -27 -10 0
6 -24 -10 0
7 -21 -10 0
8 -18 -10 0
9 -15 -10 0
10 -12 -10 0
11 -9 -10 0
12 -6 -10 0
13 -3 -10 0
14 -0.454545454545456 -9.09090909090909 0
15 -0.909090909090911 -8.18181818181818 0
16 -1.36363636363637 -7.27272727272727 0
17 -1.81818181818182 -6.36363636363636 0
18 -2.27272727272728 -5.45454545454545 0
19 -2.72727272727273 -4.54545454545454 0
20 -3.18181818181819 -3.63636363636362 0
21 -3.63636363636364 -2.72727272727271 0
22 -4.0909090909091 -1.8181818181818 0
23 -4.54545454545455 -0.909090909090894 0
24 -5.00000000000001 1.59872115546023E-14 0
25 -5.45454545454546 0.909090909090922 0
26 -5.90909090909091 1.81818181818183 0
27 -6.36363636363637 2.72727272727274 0
28 -6.81818181818182 3.63636363636365 0
29 -7.27272727272728 4.54545454545455 0
30 -7.72727272727273 5.45454545454546 0
31 -8.18181818181818 6.36363636363637 0
32 -8.63636363636364 7.27272727272727 0
33 -9.09090909090909 8.18181818181818 0
34 -9.54545454545454 9.09090909090909 0
35 -11 10 0
36 -12 10 0
37 -13 10 0
38 -14 10 0
39 -15 10 0
40 -16 10 0
41 -17 10 0
42 -18 10 0
43 -19 10 0
44 -20.4545454545455 9.09090909090909 0
45 -20.9090909090909 8.18181818181818 0
46 -21.3636363636364 7.27272727272727 0
47 -21.8181818181818 6.36363636363636 0
48 -22.2727272727273 5.45454545454545 0
49 -22.7272727272727 4.54545454545454 0
50 -23.1818181818182 3.63636363636362 0
51 -23.6363636363636 2.72727272727271 0
52 -24.0909090909091 1.8181818181818 0
53 -24.5454545454546 0.909090909090894 0
54 -25 -1.59872115546023E-14 0
55 -25.4545454545455 -0.909090909090922 0
56 -25.9090909090909 -1.81818181818183 0
57 -26.3636363636364 -2.72727272727274 0
58 -26.8181818181818 -3.63636363636365 0
59 -27.2727272727273 -4.54545454545455 0
60 -27.7272727272727 -5.45454545454546 0
61 -28.1818181818182 -6.36363636363637 0
62 -28.6363636363636 -7.27272727272727 0
63 -29.0909090909091 -8.18181818181818 0
64 -29.5454545454545 -9.09090909090909 0
65 -26.6363636363636 -9.09090909090909 0
66 -26.2727272727273 -8.18181818181818 0
67 -25.9090909090909 -7.27272727272727 0
68 -25.5454545454546 -6.36363636363637 0
69 -25.1818181818182 -5.45454545454546 0
70 -24.8181818181818 -4.54545454545455 0
71 -24.4545454545455 -3.63636363636364 0
72 -24.0909090909091 -2.72727272727274 0
73 -23.7272727272727 -1.81818181818183 0
74 -23.3636363636364 -0.90909090909092 0
75 -23 -1.28785870856518E-14 0
76 -22.6363636363636 0.909090909090896 0
77 -22.2727272727273 1.81818181818181 0
78 -21.9090909090909 2.72727272727272 0
79 -21.5454545454546 3.63636363636363 0
80 -21.1818181818182 4.54545454545454 0
81 -20.8181818181818 5.45454545454545 0
82 -20.4545454545455 6.36363636363636 0
83 -20.0909090909091 7.27272727272727 0
84 -19.7272727272727 8.18181818181818 0
85 -19.3636363636364 9.09090909090909 0
86 -23.7272727272727 -9.09090909090909 0
87 -23.4545454545455 -8.18181818181818 0
88 -23.1818181818182 -7.27272727272727 0
89 -22.9090909090909 -6.36363636363637 0
90 -22.6363636363636 -5.45454545454546 0
91 -22.3636363636364 -4.54545454545455 0
92 -22.0909090909091 -3.63636363636364 0
93 -21.8181818181818 -2.72727272727273 0
94 -21.5454545454546 -1.81818181818183 0
95 -21.2727272727273 -0.909090909090917 0
96 -21 -9.32587340685131E-15 0
97 -20.7272727272727 0.9090909090909 0
98 -20.4545454545455 1.81818181818181 0
99 -20.1818181818182 2.72727272727272 0
100 -19.9090909090909 3.63636363636363 0
101 -19.6363636363636 4.54545454545454 0
102 -19.3636363636364 5.45454545454545 0
103 -19.0909090909091 6.36363636363636 0
104 -18.8181818181818 7.27272727272727 0
105 -18.5454545454545 8.18181818181818 0
106 -18.2727272727273 9.09090909090909 0
107 -20.8181818181818 -9.09090909090909 0
108 -20.6363636363636 -8.18181818181818 0
109 -20.4545454545455 -7.27272727272727 0
110 -20.2727272727273 -6.36363636363637 0
111 -20.0909090909091 -5.45454545454546 0
112 -19.9090909090909 -4.54545454545455 0
113 -19.7272727272727 -3.63636363636364 0
114 -19.5454545454546 -2.72727272727273 0
115 -19.3636363636364 -1.81818181818182 0
116 -19.1818181818182 -0.909090909090914 0
117 -19 -6.21724893790088E-15 0
118 -18.8181818181818 0.909090909090903 0
119 -18.6363636363636 1.81818181818181 0
120 -18.4545454545455 2.72727272727272 0
121 -18.2727272727273 3.63636363636363 0
122 -18.0909090909091 4.54545454545454 0
123 -17.9090909090909 5.45454545454545 0
124 -17.7272727272727 6.36363636363636 0
125 -17.5454545454545 7.27272727272727 0
126 -17.3636363636364 8.18181818181818 0
127 -17.1818181818182 9.09090909090909 0
128 -17.9090909090909 -9.09090909090909 0
129 -17.8181818181818 -8.18181818181818 0
130 -17.7272727272727 -7.27272727272727 0
131 -17.6363636363636 -6.36363636363637 0
132 -17.5454545454545 -5.45454545454546 0
133 -17.4545454545455 -4.54545454545455 0
134 -17.3636363636364 -3.63636363636364 0
135 -17.2727272727273 -2.72727272727273 0
136 -17.1818181818182 -1.81818181818182 0
137 -17.0909090909091 -0.909090909090911 0
138 -17 -2.66453525910038E-15 0
139 -16.9090909090909 0.909090909090906 0
140 -16.8181818181818 1.81818181818181 0
141 -16.7272727272727 2.72727272727272 0
142 -16.6363636363636 3.63636363636363 0
143 -16.5454545454546 4.54545454545454 0
144 -16.4545454545455 5.45454545454545 0
145 -16.3636363636364 6.36363636363636 0
146 -16.2727272727273 7.27272727272727 0
147 -16.1818181818182 8.18181818181818 0
148 -16.0909090909091 9.09090909090909 0
149 -15 -9.09090909090909 0
150 -15 -8.18181818181818 0
151 -15 -7.27272727272727 0
152 -15 -6.36363636363636 0
153 -15 -5.45454545454545 0
154 -15 -4.54545454545454 0
155 -15 -3.63636363636363 0
156 -15 -2.72727272727273 0
157 -15 -1.81818181818182 0
158 -15 -0.909090909090909 0
159 -15 -4.44089209850063E-16 0
160 -15 0.909090909090909 0
161 -15 1.81818181818182 0
162 -15 2.72727272727272 0
163 -15 3.63636363636363 0
164 -15 4.54545454545454 0
165 -15 5.45454545454545 0
166 -15 6.36363636363636 0
167 -15 7.27272727272727 0
168 -15 8.18181818181818 0
169 -15 9.09090909090909 0
170 -12.0909090909091 -9.09090909090909 0
171 -12.1818181818182 -8.18181818181818 0
172 -12.2727272727273 -7.27272727272727 0
173 -12.3636363636364 -6.36363636363636 0
174 -12.4545454545455 -5.45454545454545 0
175 -12.5454545454545 -4.54545454545454 0
176 -12.6363636363636 -3.63636363636363 0
177 -12.7272727272727 -2.72727272727272 0
178 -12.8181818181818 -1.81818181818181 0
179 -12.9090909090909 -0.909090909090906 0
180 -13 1.77635683940025E-15 0
181 -13.0909090909091 0.909090909090911 0
182 -13.1818181818182 1.81818181818182 0
183 -13.2727272727273 2.72727272727273 0
184 -13.3636363636364 3.63636363636363 0
185 -13.4545454545455 4.54545454545454 0
186 -13.5454545454545 5.45454545454546 0
187 -13.6363636363636 6.36363636363637 0
188 -13.7272727272727 7.27272727272727 0
189 -13.8181818181818 8.18181818181818 0
190 -13.9090909090909 9.09090909090909 0
191 -9.18181818181818 -9.09090909090909 0
192 -9.36363636363636 -8.18181818181818 0
193 -9.54545454545455 -7.27272727272727 0
194 -9.72727272727273 -6.36363636363636 0
195 -9.90909090909091 -5.45454545454545 0
196 -10.0909090909091 -4.54545454545454 0
197 -10.2727272727273 -3.63636363636363 0
198 -10.4545454545455 -2.72727272727272 0
199 -10.6363636363636 -1.81818181818181 0
200 -10.8181818181818 -0.909090909090903 0
201 -11 5.32907051820075E-15 0
202 -11.1818181818182 0.909090909090913 0
203 -11.3636363636364 1.81818181818182 0
204 -11.5454545454546 2.72727272727273 0
205 -11.7272727272727 3.63636363636364 0
206 -11.9090909090909 4.54545454545455 0
207 -12.0909090909091 5.45454545454546 0
208 -12.2727272727273 6.36363636363637 0
209 -12.4545454545455 7.27272727272727 0
210 -12.6363636363636 8.18181818181818 0
211 -12.8181818181818 9.09090909090909 0
212 -6.27272727272727 -9.09090909090909 0
213 -6.54545454545454 -8.18181818181818 0
214 -6.81818181818182 -7.27272727272727 0
215 -7.09090909090909 -6.36363636363636 0
216 -7.36363636363637 -5.45454545454545 0
217 -7.63636363636364 -4.54545454545454 0
218 -7.90909090909091 -3.63636363636363 0
219 -8.18181818181819 -2.72727272727272 0
220 -8.45454545454546 -1.81818181818181 0
221 -8.72727272727273 -0.9090909090909 0
222 -9.00000000000001 8.88178419700125E-15 0
223 -9.27272727272728 0.909090909090916 0
224 -9.54545454545455 1.81818181818182 0
225 -9.81818181818182 2.72727272727273 0
226 -10.0909090909091 3.63636363636364 0
227 -10.3636363636364 4.54545454545455 0
228 -10.6363636363636 5.45454545454546 0
229 -10.9090909090909 6.36363636363637 0
230 -11.1818181818182 7.27272727272727 0
231 -11.4545454545455 8.18181818181818 0
232 -11.7272727272727 9.09090909090909 0
233 -3.36363636363637 -9.09090909090909 0
234 -3.72727272727273 -8.18181818181818 0
235 -4.09090909090909 -7.27272727272727 0
236 -4.45454545454546 -6.36363636363636 0
237 -4.81818181818182 -5.45454545454545 0
238 -5.18181818181819 -4.54545454545454 0
239 -5.54545454545455 -3.63636363636363 0
240 -5.90909090909092 -2.72727272727272 0
241 -6.27272727272728 -1.81818181818181 0
242 -6.63636363636364 -0.909090909090896 0
243 -7.00000000000001 1.33226762955019E-14 0
244 -7.36363636363637 0.90909090909092 0
245 -7.72727272727273 1.81818181818183 0
246 -8.0909090909091 2.72727272727274 0
247 -8.45454545454546 3.63636363636364 0
248 -8.81818181818182 4.54545454545455 0
249 -9.18181818181819 5.45454545454546 0
250 -9.54545454545455 6.36363636363637 0
251 -9.90909090909091 7.27272727272727 0
252 -10.2727272727273 8.18181818181818 0
253 -10.6363636363636 9.09090909090909 0
$EndNodes
$Elements
220
1 3 2 1 1 1 5 65 64
2 3 2 1 1 64 65 66 63
3 3 2 1 1 63 66 67 62
4 3 2 1 1 62 67 68 61
5 3 2 1 1 61 68 69 60
6 3 2 1 1 60 69 70 59
7 3 2 1 1 59 70 71 58
8 3 2 1 1 58 71 72 57
9 3 2 1 1 57 72 73 56
10 3 2 1 1 56 73 74 55
11 3 2 1 1 55 74 75 54
12 3 2 1 1 54 75 76 53
13 3 2 1 1 53 76 77 52
14 3 2 1 1 52 77 78 51
15 3 2 1 1 51 78 79 50
16 3 2 1 1 50 79 80 49
17 3 2 1 1 49 80 81 48
18 3 2 1 1 48 81 82 47
19 3 2 1 1 47 82 83 46
20 3 2 1 1 46 83 84 45
21 3 2 1 1 45 84 85 44
22 3 2 1 1 44 85 43 4
23 3 2 1 1 5 6 86 65
24 3 2 1 1 65 86 87 66
25 3 2 1 1 66 87 88 67
26 3 2 1 1 67 88 89 68
27 3 2 1 1 68 89 90 69
28 3 2 1 1 69 90 91 70
29 3 2 1 1 70 91 92 71
30 3 2 1 1 71 92 93 72
31 3 2 1 1 72 93 94 73
32 3 2 1 1 73 94 95 74
33 3 2 1 1 74 95 96 75
34 3 2 1 1 75 96 97 76
35 3 2 1 1 76 97 98 77
36 3 2 1 1 77 98 99 78
37 3 2 1 1 78 99 100 79
38 3 2 1 1 79 100 101 80
39 3 2 1 1 80 101 102 81
40 3 2 1 1 81 102 103 82
41 3 2 1 1 82 103 104 83
42 3 2 1 1 83 104 105 84
43 3 2 1 1 84 105 106 85
44 3 2 1 1 85 106 42 43
45 3 2 1 1 6 7 107 86
46 3 2 1 1 86 107 108 87
47 3 2 1 1 87 108 109 88
48 3 2 1 1 88 109 110 89
49 3 2 1 1 89 110 111 90
50 3 2 1 1 90 111 112 91
51 3 2 1 1 91 112 113 92
52 3 2 1 1 92 113 114 93
53 3 2 1 1 93 114 115 94
54 3 2 1 1 94 115 116 95
55 3 2 1 1 95 116 117 96
56 3 2 1 1 96 117 118 97
57 3 2 1 1 97 118 119 98
58 3 2 1 1 98 119 120 99
59 3 2 1 1 99 120 121 100
60 3 2 1 1 100 121 122 101
61 3 2 1 1 101 122 123 102
62 3 2 1 1 102 123 124 103
63 3 2 1 1 103 124 125 104
64 3 2 1 1 104 125 126 105
65 3 2 1 1 105 126 127 106
66 3 2 1 1 106 127 41 42
67 3 2 1 1 7 8 128 107
68 3 2 1 1 107 128 129 108
69 3 2 1 1 108 129 130 109
70 3 2 1 1 109 130 131 110
71 3 2 1 1 110 131 132 111
72 3 2 1 1 111 132 133 112
73 3 2 1 1 112 133 134 113
74 3 2 1 1 113 134 135 114
75 3 2 1 1 114 135 136 115
76 3 2 1 1 115 136 137 116
77 3 2 1 1 116 137 138 117
78 3 2 1 1 117 138 139 118
79 3 2 1 1 118 139 140 119
80 3 2 1 1 119 140 141 120
81 3 2 1 1 120 141 142 121
82 3 2 1 1 121 142 143 122
83 3 2 1 1 122 143 144 123
84 3 2 1 1 123 144 145 124
85 3 2 1 1 124 145 146 125
86 3 2 1 1 125 146 147 126
87 3 2 1 1 126 147 148 127
88 3 2 1 1 127 148 40 41
89 3 2 1 1 8 9 149 128
90 3 2 1 1 128 149 150 129
91 3 2 1 1 129 150 151 130
92 3 2 1 1 130 151 152 131
93 3 2 1 1 131 152 153 132
94 3 2 1 1 132 153 154 133
95 3 2 1 1 133 154 155 134
96 3 2 1 1 134 155 156 135
97 3 2 1 1 135 156 157 136
98 3 2 1 1 136 157 158 137
99 3 2 1 1 137 158 159 138
100 3 2 1 1 138 159 160 139
101 3 2 1 1 139 160 161 140
102 3 2 1 1 140 161 162 141
103 3 2 1 1 141 162 163 142
104 3 2 1 1 142 163 164 143
105 3 2 1 1 143 164 165 144
106 3 2 1 1 144 165 166 145
107 3 2 1 1 145 166 167 146
108 3 2 1 1 146 167 168 147
109 3 2 1 1 147 168 169 148
110 3 2 1 1 148 169 39 40
111 3 2 1 1 9 10 170 149
112 3 2 1 1 149 170 171 150
113 3 2 1 1 150 171 172 151
114 3 2 1 1 151 172 173 152
115 3 2 1 1 152 173 174 153
116 3 2 1 1 153 174 175 154
117 3 2 1 1 154 175 176 155
118 3 2 1 1 155 176 177 156
119 3 2 1 1 156 177 178 157
120 3 2 1 1 157 178 179 158
121 3 2 1 1 158 179 180 159
122 3 2 1 1 159 180 181 160
123 3 2 1 1 160 181 182 161
124 3 2 1 1 161 182 183 162
125 3 2 1 1 162 183 184 163
126 3 2 1 1 163 184 185 164
127 3 2 1 1 164 185 186 165
128 3 2 1 1 165 186 187 166
129 3 2 1 1 166 187 188 167
130 3 2 1 1 167 188 189 168
131 3 2 1 1 168 189 190 169
132 3 2 1 1 169 190 38 39
133 3 2 1 1 10 11 191 170
134 3 2 1 1 170 191 192 171
135 3 2 1 1 171 192 193 172
136 3 2 1 1 172 193 194 173
137 3 2 1 1 173 194 195 174
138 3 2 1 1 174 195 196 175
139 3 2 1 1 175 196 197 176
140 3 2 1 1 176 197 198 177
141 3 2 1 1 177 198 199 178
142 3 2 1 1 178 199 200 179
143 3 2 1 1 179 200 201 180
144 3 2 1 1 180 201 202 181
145 3 2 1 1 181 202 203 182
146 3 2 1 1 182 203 204 183
147 3 2 1 1 183 204 205 184
148 3 2 1 1 184 205 206 185
149 3 2 1 1 185 206 207 186
150 3 2 1 1 186 207 208 187
151 3 2 1 1 187 208 209 188
152 3 2 1 1 188 209 210 189
153 3 2 1 1 189 210 211 190
154 3 2 1 1 190 211 37 38
155 3 2 1 1 11 12 212 191
156 3 2 1 1 191 212 213 192
157 3 2 1 1 192 213 214 193
158 3 2 1 1 193 214 215 194
159 3 2 1 1 194 215 216 195
160 3 2 1 1 195 216 217 196
161 3 2 1 1 196 217 218 197
162 3 2 1 1 197 218 219 198
163 3 2 1 1 198 219 220 199
164 3 2 1 1 199 220 221 200
165 3 2 1 1 200 221 222 201
166 3 2 1 1 201 222 223 202
167 3 2 1 1 202 223 224 203
168 3 2 1 1 203 224 225 204
169 3 2 1 1 204 225 226 205
170 3 2 1 1 205 226 227 206
171 3 2 1 1 206 227 228 207
172 3 2 1 1 207 228 229 208
173 3 2 1 1 208 229 230 209
174 3 2 1 1 209 230 231 210
175 3 2 1 1 210 231 232 211
176 3 2 1 1 211 232 36 37
177 3 2 1 1 12 13 233 212
178 3 2 1 1 212 233 234 213
179 3 2 1 1 213 234 235 214
180 3 2 1 1 214 235 236 215
181 3 2 1 1 215 236 237 216
182 3 2 1 1 216 237 238 217
183 3 2 1 1 217 238 239 218
184 3 2 1 1 218 239 240 219
185 3 2 1 1 219 240 241 220
186 3 2 1 1 220 241 242 221
187 3 2 1 1 221 242 243 222
188 3 2 1 1 222 243 244 223
189 3 2 1 1 223 244 245 224
190 3 2 1 1 224 245 246 225
191 3 2 1 1 225 246 247 226
192 3 2 1 1 226 247 248 227
193 3 2 1 1 227 248 249 228
194 3 2 1 1 228 249 250 229
195 3 2 1 1 229 250 251 230
196 3 2 1 1 230 251 252 231
197 3 2 1 1 231 252 253 232
198 3 2 1 1 232 253 35 36
199 3 2 1 1 13 2 14 233
200 3 2 1 1 233 14 15 234
201 3 2 1 1 234 15 16 235
202 3 2 1 1 235 16 17 236
203 3 2 1 1 236 17 18 237
204 3 2 1 1 237 18 19 238
205 3 2 1 1 238 19 20 239
206 3 2 1 1 239 20 21 240
207 3 2 1 1 240 21 22 241
208 3 2 1 1 241 22 23 242
209 3 2 1 1 242 23 24 243
210 3 2 1 1 243 24 25 244
211 3 2 1 1 244 25 26 245
212 3 2 1 1 245 26 27 246
213 3 2 1 1 246 27 28 247
214 3 2 1 1 247 28 29 248
215 3 2 1 1 248 29 30 249
216 3 2 1 1 249 30 31 250
217 3 2 1 1 250 31 32 251
218 3 2 1 1 251 32 33 252
219 3 2 1 1 252 33 34 253
220 3 2 1 1 253 34 3 35
$EndElements
