$MeshFormat
2.2 0 8
$EndMeshFormat
$Nodes
231
1 -20 -10 0
2 0 -10 0
3 -10 10 0
4 -20 10 0
5 -18 -10 0
6 -16 -10 0
7 -14 -10 0
8 -12 -10 0
9 -10 -10 0
10 -8 -10 0
11 -6 -10 0
12 -4 -10 0
13 -2 -10 0
14 -0.500000000000001 -9 0
15 -1 -8 0
16 -1.5 -6.99999999999999 0
17 -2 -5.99999999999999 0
18 -2.5 -4.99999999999999 0
19 -3.00000000000001 -3.99999999999999 0
20 -3.50000000000001 -2.99999999999998 0
21 -4.00000000000001 -1.99999999999998 0
22 -4.50000000000001 -0.999999999999984 0
23 -5.00000000000001 1.59872115546023E-14 0
24 -5.50000000000001 1.00000000000001 0
25 -6.00000000000001 2.00000000000001 0
26 -6.50000000000001 3.00000000000001 0
27 -7 4.00000000000001 0
28 -7.5 5.00000000000001 0
29 -8 6.00000000000001 0
30 -8.5 7 0
31 -9 8 0
32 -9.5 9 0
33 -11 10 0
34 -12 10 0
35 -13 10 0
36 -14 10 0
37 -15 10 0
38 -16 10 0
39 -17 10 0
40 -18 10 0
41 -19 10 0
42 -20 9 0
43 -20 8 0
44 -20 7 0
45 -20 6 0
46 -20 5 0
47 -20 4 0
48 -20 3 0
49 -20 2 0
50 -20 1 0
51 -20 0 0
52 -20 -1 0
53 -20 -2 0
54 -20 -3 0
55 -20 -4 0
56 -20 -5 0
57 -20 -6 0
58 -20 -7 0
59 -20 -8 0
60 -20 -9 0
61 -18.05 -9 0
62 -18.1 -8 0
63 -18.15 -7 0
64 -18.2 -6 0
65 -18.25 -5 0
66 -18.3 -4 0
67 -18.35 -3 0
68 -18.4 -2 0
69 -18.45 -1 0
70 -18.5 4.44089209850063E-16 0
71 -18.55 1 0
72 -18.6 2 0
73 -18.65 3 0
74 -18.7 4 0
75 -18.75 5 0
76 -18.8 6 0
77 -18.85 7 0
78 -18.9 8 0
79 -18.95 9 0
80 -16.1 -9 0
81 -16.2 -8 0
82 -16.3 -7 0
83 -16.4 -6 0
84 -16.5 -5 0
85 -16.6 -4 0
86 -16.7 -3 0
87 -16.8 -2 0
88 -16.9 -0.999999999999998 0
89 -17 1.77635683940025E-15 0
90 -17.1 1 0
91 -17.2 2 0
92 -17.3 3 0
93 -17.4 4 0
94 -17.5 5 0
95 -17.6 6 0
96 -17.7 7.00000000000001 0
97 -17.8 8.00000000000001 0
98 -17.9 9.00000000000001 0
99 -14.15 -9 0
100 -14.3 -8 0
101 -14.45 -7 0
102 -14.6 -6 0
103 -14.75 -5 0
104 -14.9 -4 0
105 -15.05 -3 0
106 -15.2 -2 0
107 -15.35 -0.999999999999996 0
108 -15.5 3.5527136788005E-15 0
109 -15.65 1 0
110 -15.8 2 0
111 -15.95 3 0
112 -16.1 4 0
113 -16.25 5 0
114 -16.4 6.00000000000001 0
115 -16.55 7.00000000000001 0
116 -16.7 8.00000000000001 0
117 -16.85 9.00000000000001 0
118 -12.2 -9 0
119 -12.4 -8 0
120 -12.6 -7 0
121 -12.8 -6 0
122 -13 -5 0
123 -13.2 -4 0
124 -13.4 -3 0
125 -13.6 -2 0
126 -13.8 -0.999999999999995 0
127 -14 5.10702591327572E-15 0
128 -14.2 1.00000000000001 0
129 -14.4 2.00000000000001 0
130 -14.6 3 0
131 -14.8 4 0
132 -15 5.00000000000001 0
133 -15.2 6.00000000000001 0
134 -15.4 7.00000000000001 0
135 -15.6 8.00000000000001 0
136 -15.8 9.00000000000001 0
137 -10.25 -9 0
138 -10.5 -8 0
139 -10.75 -6.99999999999999 0
140 -11 -5.99999999999999 0
141 -11.25 -4.99999999999999 0
142 -11.5 -3.99999999999999 0
143 -11.75 -2.99999999999999 0
144 -12 -1.99999999999999 0
145 -12.25 -0.999999999999993 0
146 -12.5 6.66133814775094E-15 0
147 -12.75 1.00000000000001 0
148 -13 2.00000000000001 0
149 -13.25 3.00000000000001 0
150 -13.5 4.00000000000001 0
151 -13.75 5.00000000000001 0
152 -14 6.00000000000001 0
153 -14.25 7.00000000000001 0
154 -14.5 8.00000000000001 0
155 -14.75 9.00000000000001 0
156 -8.3 -9 0
157 -8.6 -8 0
158 -8.9 -6.99999999999999 0
159 -9.2 -5.99999999999999 0
160 -9.5 -4.99999999999999 0
161 -9.8 -3.99999999999999 0
162 -10.1 -2.99999999999999 0
163 -10.4 -1.99999999999999 0
164 -10.7 -0.999999999999992 0
165 -11 7.99360577730113E-15 0
166 -11.3 1.00000000000001 0
167 -11.6 2.00000000000001 0
168 -11.9 3.00000000000001 0
169 -12.2 4.00000000000001 0
170 -12.5 5.00000000000001 0
171 -12.8 6.00000000000001 0
172 -13.1 7.00000000000001 0
173 -13.4 8.00000000000001 0
174 -13.7 9.00000000000001 0
175 -6.35 -9 0
176 -6.7 -7.99999999999999 0
177 -7.05 -6.99999999999999 0
178 -7.4 -5.99999999999999 0
179 -7.75 -4.99999999999999 0
180 -8.1 -3.99999999999999 0
181 -8.45 -2.99999999999999 0
182 -8.8 -1.99999999999999 0
183 -9.15000000000001 -0.99999999999999 0
184 -9.50000000000001 9.76996261670138E-15 0
185 -9.85 1.00000000000001 0
186 -10.2 2.00000000000001 0
187 -10.55 3.00000000000001 0
188 -10.9 4.00000000000001 0
189 -11.25 5.00000000000001 0
190 -11.6 6.00000000000001 0
191 -11.95 7.00000000000001 0
192 -12.3 8.00000000000001 0
193 -12.65 9.00000000000001 0
194 -4.4 -9 0
195 -4.8 -7.99999999999999 0
196 -5.2 -6.99999999999999 0
197 -5.6 -5.99999999999999 0
198 -6 -4.99999999999999 0
199 -6.4 -3.99999999999999 0
200 -6.8 -2.99999999999999 0
201 -7.20000000000001 -1.99999999999999 0
202 -7.60000000000001 -0.999999999999988 0
203 -8.00000000000001 1.15463194561016E-14 0
204 -8.40000000000001 1.00000000000001 0
205 -8.8 2.00000000000001 0
206 -9.2 3.00000000000001 0
207 -9.6 4.00000000000001 0
208 -10 5.00000000000001 0
209 -10.4 6.00000000000001 0
210 -10.8 7.00000000000001 0
211 -11.2 8.00000000000001 0
212 -11.6 9.00000000000001 0
213 -2.45 -9 0
214 -2.9 -7.99999999999999 0
215 -3.35 -6.99999999999999 0
216 -3.8 -5.99999999999999 0
217 -4.25 -4.99999999999999 0
218 -4.70000000000001 -3.99999999999999 0
219 -5.15000000000001 -2.99999999999999 0
220 -5.60000000000001 -1.99999999999999 0
221 -6.05000000000001 -0.999999999999986 0
222 -6.50000000000001 1.37667655053519E-14 0
223 -6.95000000000001 1.00000000000001 0
224 -7.40000000000001 2.00000000000001 0
225 -7.85 3.00000000000001 0
226 -8.3 4.00000000000001 0
227 -8.75 5.00000000000001 0
228 -9.2 6.00000000000001 0
229 -9.65 7.00000000000001 0
230 -10.1 8.00000000000001 0
231 -10.55 9.00000000000001 0
$EndNodes
$Elements
200
1 3 2 1 1 1 5 61 60
2 3 2 1 1 60 61 62 59
3 3 2 1 1 59 62 63 58
4 3 2 1 1 58 63 64 57
5 3 2 1 1 57 64 65 56
6 3 2 1 1 56 65 66 55
7 3 2 1 1 55 66 67 54
8 3 2 1 1 54 67 68 53
9 3 2 1 1 53 68 69 52
10 3 2 1 1 52 69 70 51
11 3 2 1 1 51 70 71 50
12 3 2 1 1 50 71 72 49
13 3 2 1 1 49 72 73 48
14 3 2 1 1 48 73 74 47
15 3 2 1 1 47 74 75 46
16 3 2 1 1 46 75 76 45
17 3 2 1 1 45 76 77 44
18 3 2 1 1 44 77 78 43
19 3 2 1 1 43 78 79 42
20 3 2 1 1 42 79 41 4
21 3 2 1 1 5 6 80 61
22 3 2 1 1 61 80 81 62
23 3 2 1 1 62 81 82 63
24 3 2 1 1 63 82 83 64
25 3 2 1 1 64 83 84 65
26 3 2 1 1 65 84 85 66
27 3 2 1 1 66 85 86 67
28 3 2 1 1 67 86 87 68
29 3 2 1 1 68 87 88 69
30 3 2 1 1 69 88 89 70
31 3 2 1 1 70 89 90 71
32 3 2 1 1 71 90 91 72
33 3 2 1 1 72 91 92 73
34 3 2 1 1 73 92 93 74
35 3 2 1 1 74 93 94 75
36 3 2 1 1 75 94 95 76
37 3 2 1 1 76 95 96 77
38 3 2 1 1 77 96 97 78
39 3 2 1 1 78 97 98 79
40 3 2 1 1 79 98 40 41
41 3 2 1 1 6 7 99 80
42 3 2 1 1 80 99 100 81
43 3 2 1 1 81 100 101 82
44 3 2 1 1 82 101 102 83
45 3 2 1 1 83 102 103 84
46 3 2 1 1 84 103 104 85
47 3 2 1 1 85 104 105 86
48 3 2 1 1 86 105 106 87
49 3 2 1 1 87 106 107 88
50 3 2 1 1 88 107 108 89
51 3 2 1 1 89 108 109 90
52 3 2 1 1 90 109 110 91
53 3 2 1 1 91 110 111 92
54 3 2 1 1 92 111 112 93
55 3 2 1 1 93 112 113 94
56 3 2 1 1 94 113 114 95
57 3 2 1 1 95 114 115 96
58 3 2 1 1 96 115 116 97
59 3 2 1 1 97 116 117 98
60 3 2 1 1 98 117 39 40
61 3 2 1 1 7 8 118 99
62 3 2 1 1 99 118 119 100
63 3 2 1 1 100 119 120 101
64 3 2 1 1 101 120 121 102
65 3 2 1 1 102 121 122 103
66 3 2 1 1 103 122 123 104
67 3 2 1 1 104 123 124 105
68 3 2 1 1 105 124 125 106
69 3 2 1 1 106 125 126 107
70 3 2 1 1 107 126 127 108
71 3 2 1 1 108 127 128 109
72 3 2 1 1 109 128 129 110
73 3 2 1 1 110 129 130 111
74 3 2 1 1 111 130 131 112
75 3 2 1 1 112 131 132 113
76 3 2 1 1 113 132 133 114
77 3 2 1 1 114 133 134 115
78 3 2 1 1 115 134 135 116
79 3 2 1 1 116 135 136 117
80 3 2 1 1 117 136 38 39
81 3 2 1 1 8 9 137 118
82 3 2 1 1 118 137 138 119
83 3 2 1 1 119 138 139 120
84 3 2 1 1 120 139 140 121
85 3 2 1 1 121 140 141 122
86 3 2 1 1 122 141 142 123
87 3 2 1 1 123 142 143 124
88 3 2 1 1 124 143 144 125
89 3 2 1 1 125 144 145 126
90 3 2 1 1 126 145 146 127
91 3 2 1 1 127 146 147 128
92 3 2 1 1 128 147 148 129
93 3 2 1 1 129 148 149 130
94 3 2 1 1 130 149 150 131
95 3 2 1 1 131 150 151 132
96 3 2 1 1 132 151 152 133
97 3 2 1 1 133 152 153 134
98 3 2 1 1 134 153 154 135
99 3 2 1 1 135 154 155 136
100 3 2 1 1 136 155 37 38
101 3 2 1 1 9 10 156 137
102 3 2 1 1 137 156 157 138
103 3 2 1 1 138 157 158 139
104 3 2 1 1 139 158 159 140
105 3 2 1 1 140 159 160 141
106 3 2 1 1 141 160 161 142
107 3 2 1 1 142 161 162 143
108 3 2 1 1 143 162 163 144
109 3 2 1 1 144 163 164 145
110 3 2 1 1 145 164 165 146
111 3 2 1 1 146 165 166 147
112 3 2 1 1 147 166 167 148
113 3 2 1 1 148 167 168 149
114 3 2 1 1 149 168 169 150
115 3 2 1 1 150 169 170 151
116 3 2 1 1 151 170 171 152
117 3 2 1 1 152 171 172 153
118 3 2 1 1 153 172 173 154
119 3 2 1 1 154 173 174 155
120 3 2 1 1 155 174 36 37
121 3 2 1 1 10 11 175 156
122 3 2 1 1 156 175 176 157
123 3 2 1 1 157 176 177 158
124 3 2 1 1 158 177 178 159
125 3 2 1 1 159 178 179 160
126 3 2 1 1 160 179 180 161
127 3 2 1 1 161 180 181 162
128 3 2 1 1 162 181 182 163
129 3 2 1 1 163 182 183 164
130 3 2 1 1 164 183 184 165
131 3 2 1 1 165 184 185 166
132 3 2 1 1 166 185 186 167
133 3 2 1 1 167 186 187 168
134 3 2 1 1 168 187 188 169
135 3 2 1 1 169 188 189 170
136 3 2 1 1 170 189 190 171
137 3 2 1 1 171 190 191 172
138 3 2 1 1 172 191 192 173
139 3 2 1 1 173 192 193 174
140 3 2 1 1 174 193 35 36
141 3 2 1 1 11 12 194 175
142 3 2 1 1 175 194 195 176
143 3 2 1 1 176 195 196 177
144 3 2 1 1 177 196 197 178
145 3 2 1 1 178 197 198 179
146 3 2 1 1 179 198 199 180
147 3 2 1 1 180 199 200 181
148 3 2 1 1 181 200 201 182
149 3 2 1 1 182 201 202 183
150 3 2 1 1 183 202 203 184
151 3 2 1 1 184 203 204 185
152 3 2 1 1 185 204 205 186
153 3 2 1 1 186 205 206 187
154 3 2 1 1 187 206 207 188
155 3 2 1 1 188 207 208 189
156 3 2 1 1 189 208 209 190
157 3 2 1 1 190 209 210 191
158 3 2 1 1 191 210 211 192
159 3 2 1 1 192 211 212 193
160 3 2 1 1 193 212 34 35
161 3 2 1 1 12 13 213 194
162 3 2 1 1 194 213 214 195
163 3 2 1 1 195 214 215 196
164 3 2 1 1 196 215 216 197
165 3 2 1 1 197 216 217 198
166 3 2 1 1 198 217 218 199
167 3 2 1 1 199 218 219 200
168 3 2 1 1 200 219 220 201
169 3 2 1 1 201 220 221 202
170 3 2 1 1 202 221 222 203
171 3 2 1 1 203 222 223 204
172 3 2 1 1 204 223 224 205
173 3 2 1 1 205 224 225 206
174 3 2 1 1 206 225 226 207
175 3 2 1 1 207 226 227 208
176 3 2 1 1 208 227 228 209
177 3 2 1 1 209 228 229 210
178 3 2 1 1 210 229 230 211
179 3 2 1 1 211 230 231 212
180 3 2 1 1 212 231 33 34
181 3 2 1 1 13 2 14 213
182 3 2 1 1 213 14 15 214
183 3 2 1 1 214 15 16 215
184 3 2 1 1 215 16 17 216
185 3 2 1 1 216 17 18 217
186 3 2 1 1 217 18 19 218
187 3 2 1 1 218 19 20 219
188 3 2 1 1 219 20 21 220
189 3 2 1 1 220 21 22 221
190 3 2 1 1 221 22 23 222
191 3 2 1 1 222 23 24 223
192 3 2 1 1 223 24 25 224
193 3 2 1 1 224 25 26 225
194 3 2 1 1 225 26 27 226
195 3 2 1 1 226 27 28 227
196 3 2 1 1 227 28 29 228
197 3 2 1 1 228 29 30 229
198 3 2 1 1 229 30 31 230
199 3 2 1 1 230 31 32 231
200 3 2 1 1 231 32 3 33
$EndElements
