$MeshFormat
2.2 0 8
$EndMeshFormat
$Nodes
882
1 100 -100 0
2 100 100 0
3 0 -100 0
4 0 100 0
5 -100 -100 0
6 -100 100 0
7 58 58 0
8 -58 -58 0
9 100 -90 0
10 100 -80 0
11 100 -70 0
12 100 -60 0
13 100 -50 0
14 100 -40 0
15 100 -30 0
16 100 -20 0
17 100 -10 0
18 100 0 0
19 100 10 0
20 100 20 0
21 100 30 0
22 100 40 0
23 100 50 0
24 100 60 0
25 100 70 0
26 100 80 0
27 100 90 0
28 10 -100 0
29 20 -100 0
30 30 -100 0
31 40 -100 0
32 50 -100 0
33 60 -100 0
34 70 -100 0
35 80 -100 0
36 90 -100 0
37 0 90 0
38 0 80 0
39 0 70 0
40 0 60 0
41 0 50 0
42 0 40 0
43 0 30 0
44 0 20 0
45 0 10 0
46 0 0 0
47 0 -10 0
48 0 -20 0
49 0 -30 0
50 0 -40 0
51 0 -50 0
52 0 -60 0
53 0 -70 0
54 0 -80 0
55 0 -90 0
56 90 100 0
57 80 100 0
58 70 100 0
59 60 100 0
60 50 100 0
61 40 100 0
62 30 100 0
63 20 100 0
64 10 100 0
65 -90 -100 0
66 -80 -100 0
67 -70 -100 0
68 -60 -100 0
69 -50 -100 0
70 -40 -100 0
71 -30 -100 0
72 -20 -100 0
73 -10 -100 0
74 -100 90 0
75 -100 80 0
76 -100 70 0
77 -100 60 0
78 -100 50 0
79 -100 40 0
80 -100 30 0
81 -100 20 0
82 -100 10 0
83 -100 0 0
84 -100 -10 0
85 -100 -20 0
86 -100 -30 0
87 -100 -40 0
88 -100 -50 0
89 -100 -60 0
90 -100 -70 0
91 -100 -80 0
92 -100 -90 0
93 -10 100 0
94 -20 100 0
95 -30 100 0
96 -40 100 0
97 -50 100 0
98 -60 100 0
99 -70 100 0
100 -80 100 0
101 -90 100 0
102 9.99961651567067 -30.0002029376726 0
103 9.6757608597576 9.89789244781462 0
104 89.9999998368961 -39.9999999993472 0
105 89.9993863728584 -9.99999550814173 0
106 50 -90 0
107 9.83126147164402 39.9254522383646 0
108 9.9955742941572 69.9906637414064 0
109 10 -60 0
110 90 -70 0
111 89.9962194381692 69.9878390757591 0
112 89.9899847081809 20.002260992413 0
113 39.9894899475412 89.9633446593458 0
114 89.9857464378225 39.999711770446 0
115 60.0102845855208 89.982169670486 0
116 30 -90 0
117 80 -90 0
118 9.99923689253126 89.9972413339868 0
119 90.0014245331549 89.9987428478091 0
120 10 -80 0
121 9.97199598972505 -10.0101344767766 0
122 89.9969664215518 0.000153971095804062 0
123 90 -60 0
124 89.9999888681551 -29.9999999554484 0
125 19.9966673821997 89.9877880943118 0
126 9.99995206445883 -40.0000253672091 0
127 90 -90 0
128 89.9855627657304 49.9879521837266 0
129 10 -90 0
130 70 -90 0
131 9.98784354605242 59.9857291615051 0
132 9.619483924072 29.867485348808 0
133 70.008877275227 89.9872034347517 0
134 79.9999944431394 -40.000000134353 0
135 79.9963834121263 -9.99989463000851 0
136 19.9992909787908 -30.0003216241506 0
137 19.4452971843029 29.8683495127463 0
138 19.9668343470978 69.9509806355293 0
139 79.9498812096081 39.9673280818297 0
140 59.9130358262355 79.8724511586396 0
141 80 -70 0
142 89.9882053268233 59.9790638374536 0
143 9.88313084393774 -0.0352338922525396 0
144 9.99374571100939 -20.0023402413159 0
145 9.99999400805735 -50.0000031709011 0
146 20 -80 0
147 29.9890702468645 89.9695942201244 0
148 89.9999996323082 -50.0000000083155 0
149 89.992189868859 10.0008634905175 0
150 90.0004341380265 79.9933502085957 0
151 20 -90 0
152 9.94865287055548 49.9694768669887 0
153 10 -70 0
154 80.0041725780163 89.9924393062808 0
155 90 -80 0
156 89.9996741347826 -19.9999927603425 0
157 89.9847555582832 30.0006776968405 0
158 40 -90 0
159 60 -90 0
160 9.99562244986958 79.9903733290849 0
161 49.9893940971239 89.9612631458624 0
162 80 -80 0
163 9.56727345319176 19.8763460903354 0
164 19.8154354378718 -0.0398781262820586 0
165 19.9999959519824 -50.0000020893037 0
166 49.9999999997077 -80.0000000001037 0
167 79.9484529402703 69.9070763665211 0
168 79.9222927215333 49.8915997100851 0
169 30 -80 0
170 79.9999509504788 -29.999999766823 0
171 79.9999992364945 -50.0000000177417 0
172 79.9477243278205 20.0069625908957 0
173 69.9415257248991 79.9003979024513 0
174 19.9899595497354 -20.0031011328649 0
175 79.9999998803068 -60.0000000027323 0
176 19.9998466077753 -40.0000690541416 0
177 79.9992797193957 -19.9999850262449 0
178 29.9486066579966 79.9198597587169 0
179 49.8783785053599 79.8567534700512 0
180 79.9827045737031 0.000838765549330684 0
181 19.7557005774575 39.9279064112684 0
182 19.9454291806435 59.9496489176884 0
183 79.9773514380786 79.9515290437247 0
184 19.9786235545616 79.9626907280929 0
185 19.3588233693507 19.8834799443029 0
186 19.9999999962586 -70.000000001327 0
187 70 -80 0
188 79.9464737795602 30.0009341019179 0
189 29.33184938072 19.9491519951633 0
190 69.9999708953243 -40.0000013656591 0
191 69.9986001189939 -19.9999926641692 0
192 69.849431404176 20.0297174799109 0
193 29.9868260295068 -20.0025161125931 0
194 29.9997887131089 -40.0000691781676 0
195 29.9999999897111 -70.0000000036494 0
196 69.7093612944652 69.6528256869141 0
197 69.8903900897391 39.9409133351628 0
198 49.5753559451397 69.632523166263 0
199 19.5945019277729 9.92312729755435 0
200 79.8939864455061 59.8441916851406 0
201 39.9999999991743 -80.0000000002929 0
202 69.9881323337914 -9.99961208688036 0
203 69.9999997712857 -60.0000000297154 0
204 69.9999999638411 -70.0000000038881 0
205 19.9999990809767 -60.0000004730087 0
206 29.8851811014987 69.8889026323689 0
207 19.894086292146 49.95440742973 0
208 19.941088612592 -10.0137280787188 0
209 59.9999999975574 -80.0000000003078 0
210 39.8904795434942 79.8742922483823 0
211 79.958058405985 10.0043082507089 0
212 29.5105526578327 29.9826522623928 0
213 39.4343293046617 20.0473282937671 0
214 59.9943356027908 -20.0000788257785 0
215 29.9999596532476 -50.0000145998566 0
216 69.8872794913621 10.013480423611 0
217 69.5263401435057 59.4632873446822 0
218 29.7889295251824 -0.0234430632529319 0
219 29.560852622969 9.96180070706779 0
220 59.4625821257082 69.4608013174838 0
221 59.9999999698637 -70.0000000043751 0
222 39.9999999793536 -70.0000000054661 0
223 69.9993668602083 -30.0000057463217 0
224 29.9246986716075 -10.010400021848 0
225 29.996960478599 -30.000689853319 0
226 29.7462290460756 40.0165111989426 0
227 69.679475136404 49.6549982110368 0
228 29.8557542111126 59.9233796937081 0
229 39.7594293979378 69.8196991054502 0
230 69.8752130936677 30.0330881719694 0
231 69.9999951564627 -50.0000002903538 0
232 69.9493784438409 0.004132334831993 0
233 29.9999940943063 -60.0000021758466 0
234 39.9995739889386 -40.0000890774232 0
235 59.7166116468471 20.0771943256451 0
236 59.9998762387327 -40.0000086408629 0
237 39.9822946268473 -20.0017849952619 0
238 39.9999952609583 -60.0000016316251 0
239 39.7214276169477 59.8746862181644 0
240 39.5984637796319 10.0036427719402 0
241 49.9999996754911 -70.0000001072222 0
242 29.842339566003 49.9893108661383 0
243 39.8023738294922 -0.00604193949187726 0
244 59.9983756205453 -30.0000544726479 0
245 59.798265611856 30.1171954769871 0
246 39.7578618495934 40.1244145667728 0
247 59.9697900330721 -9.99932866720862 0
248 59.9999987930121 -60.0000002221572 0
249 59.8985409268116 0.00649709264280014 0
250 39.5857923364867 30.1075642061321 0
251 59.8193123481083 40.0112739029997 0
252 59.4753522789998 49.5732443504557 0
253 49.3871827424497 59.5287728313686 0
254 49.6080206879067 20.0919000195031 0
255 49.5757409039859 49.7909445310656 0
256 49.7035485428651 10.0283591642913 0
257 49.7012977709712 30.1473663642861 0
258 49.9996598902016 -40.0000407451466 0
259 49.996773191502 -30.0002386977373 0
260 49.9424373721523 -10.0002873040588 0
261 59.9999590168844 -50.0000041579076 0
262 49.9999951347488 -60.000000931427 0
263 39.7421178078625 49.9665152693897 0
264 39.9952150912269 -30.000595694589 0
265 39.9999030866604 -50.0000211062603 0
266 59.8027330673985 10.0292840786114 0
267 39.9201222063999 -10.0046716186017 0
268 49.999902903297 -50.0000151208438 0
269 49.7273117136379 40.0495833991556 0
270 49.9798704227684 -20.0007047444838 0
271 49.8379637113985 0.00610673335297973 0
272 -89.9999999997489 39.9999999997735 0
273 -9.99999999996373 -3.27167876124079E-11 0
274 -10 40 0
275 -89.999995547342 9.99999598404182 0
276 -60 90 0
277 -9.99972827148389 -39.9964276194493 0
278 -9.99941998558271 -69.9924850722553 0
279 -89.9905572007475 -69.9870598782886 0
280 -89.9953087072048 -20.0025845596559 0
281 -40.0065281867599 -89.8382309647421 0
282 -59.9884371263077 -89.8085096216696 0
283 -89.9841624634631 -40.000948823289 0
284 -10 60 0
285 -90 80 0
286 -30 90 0
287 -79.9960001967214 -89.9756180009401 0
288 -10.0001081193327 -89.997982774791 0
289 -10 90 0
290 -9.99999718058861 -19.9996286747913 0
291 -20.0008634732064 -89.9821691895771 0
292 -89.9953617273991 -79.9912766740759 0
293 -9.99899189793381 -59.9910385975422 0
294 -89.9998156189017 -4.13293184935437E-05 0
295 -9.99999999996373 19.9999999999673 0
296 -90 60 0
297 -89.9999999828618 29.9999999845427 0
298 -10 70 0
299 -89.9983193798678 -89.9943156904146 0
300 -90 90 0
301 -89.9812084285157 -49.9886469541429 0
302 -50 90 0
303 -80 90 0
304 -79.9999999971743 39.9999999974514 0
305 -79.9999653621362 10.0000325186813 0
306 -60 80 0
307 -19.9920281179249 -69.9232053780437 0
308 -79.9449351388218 -39.9270322155577 0
309 -20 60 0
310 -80 80 0
311 -89.9814951823727 -59.9785368766815 0
312 -9.99910551573258 -49.9920280726825 0
313 -19.9969694787444 -79.9458550976352 0
314 -30.0013243082377 -89.9184953563451 0
315 -9.99999999999547 29.9999999999959 0
316 -9.99999964756904 -9.999953584353 0
317 -9.99910121161631 -79.9850731739637 0
318 -69.9839346689216 -89.8956044968094 0
319 -89.999999999792 49.9999999998124 0
320 -89.9985373934662 -10.0007280351386 0
321 -9.99999999991839 9.99999999992639 0
322 -90 70 0
323 -79.9216582062857 -69.8721834492903 0
324 -10 80 0
325 -10 50 0
326 -9.99992882662761 -29.9980161730286 0
327 -49.9931403343755 -89.7593594553938 0
328 -89.9999972429487 20.000001498312 0
329 -89.9875161227245 -29.9990381361505 0
330 -20 90 0
331 -40 90 0
332 -70 90 0
333 -79.9627510849114 -79.9163995485844 0
334 -19.9999680915331 -19.9889536673408 0
335 -19.9999923782447 0.00059664575894558 0
336 -19.9999999992613 29.9999999993338 0
337 -19.9981189338474 -39.9453099632218 0
338 -39.9476039713371 -79.5504685286103 0
339 -79.9052587024651 -49.8425494717566 0
340 -19.9897791971806 -59.9047060798448 0
341 -79.9999997527599 30.0000000260684 0
342 -79.987433713438 -19.9951857305904 0
343 -40 80 0
344 -69.6737495794935 -69.4796317043407 0
345 -79.8718241301616 -59.7932870249914 0
346 -29.9796857030706 -79.7925612917985 0
347 -79.9999999999751 59.9999999999776 0
348 -79.9999999995625 49.9999999996054 0
349 -79.9993620894219 0.000352896110053624 0
350 -49.8765978544122 -79.369132037159 0
351 -19.999999997276 19.9999999975432 0
352 -79.9999945287446 20.0000035645217 0
353 -79.9999999999969 69.9999999999972 0
354 -19.9999999998296 39.9999999998464 0
355 -19.9999999999787 49.9999999999808 0
356 -20 80 0
357 -20 70 0
358 -50 80 0
359 -69.9999999999998 79.9999999999998 0
360 -69.8871067016246 -79.6990769744127 0
361 -79.9692354774393 -29.966848334828 0
362 -69.9813059619475 -19.94633813934 0
363 -69.9998915811721 10.000381802976 0
364 -69.9999999759132 39.9999999938418 0
365 -29.9999979224365 20.0000351887003 0
366 -29.9999999978196 39.9999999980335 0
367 -59.9999999999962 69.9999999999966 0
368 -69.4988464434871 -59.2808844329667 0
369 -69.8965414851666 -39.6537356896272 0
370 -39.8485784289481 -69.2773942273742 0
371 -59.4469885398795 -68.9855688150036 0
372 -29.9519302758234 -69.6784288396671 0
373 -19.9934019967683 -49.909227141554 0
374 -69.9999989052178 30.0000063332525 0
375 -19.9999687357964 -9.99512530006144 0
376 -69.9999999999215 59.9999999999292 0
377 -59.8245837035652 -79.4582050465229 0
378 -29.999999999609 49.9999999996474 0
379 -29.9999999999368 59.999999999943 0
380 -19.9999989137286 10.0000767766726 0
381 -49.9999999999929 69.9999999999936 0
382 -69.999999999987 69.9999999999883 0
383 -30 80 0
384 -79.9957277087464 -9.99555890239643 0
385 -19.9994736284459 -29.9642125424557 0
386 -29.9973943198695 -29.8544889349596 0
387 -29.9999232384256 0.00330969338177884 0
388 -59.9999998368687 40.000001313131 0
389 -39.999999915652 40.0000009247003 0
390 -69.9988393884147 0.00359017297361497 0
391 -49.5905563693075 -68.9548435399364 0
392 -39.8311141301871 -59.1774340499395 0
393 -29.9990322762096 -19.9307535607628 0
394 -69.9999999864578 50.0000000809982 0
395 -69.9999801230208 20.0000795380466 0
396 -29.9999997235741 30.0000044460464 0
397 -69.6660649864885 -49.3729250339671 0
398 -29.9728507532253 -49.6559014886175 0
399 -59.9999999990453 60.0000000049647 0
400 -39.9999999889338 50.0000001151161 0
401 -29.9999794880084 10.0006512879603 0
402 -29.9458033173991 -59.61247401957 0
403 -39.9999999999903 69.9999999999912 0
404 -29.9999999999896 69.9999999999906 0
405 -69.9557378155557 -29.8221076247936 0
406 -69.9936763979914 -9.98054729016281 0
407 -39.9886012139498 -29.6652653186755 0
408 -59.9997848123984 10.0016282229013 0
409 -59.9822054633783 -19.8556416857174 0
410 -39.8932384034868 -49.2175756121107 0
411 -39.9999890376923 20.0001830756015 0
412 -59.9999999759071 50.0000001741556 0
413 -29.9842882698812 -39.7254843409303 0
414 -49.9999997994938 40.0000021484014 0
415 -59.999996588698 30.0000277795587 0
416 -39.9999999985279 60.0000000143094 0
417 -49.9999999973994 60.0000000203988 0
418 -39.9999976574018 30.0000351892596 0
419 -39.9995446813063 0.00898446755603916 0
420 -59.9608656364424 -29.6287176098416 0
421 -29.9995373623779 -9.97581320245351 0
422 -59.9984268189955 0.0111091145153541 0
423 -49.4530782429951 -58.7514385187466 0
424 -59.8752950602632 -39.3004525825292 0
425 -59.4956782866214 -48.9246262114227 0
426 -39.9982969633149 -9.95236686126341 0
427 -49.6413563673564 -48.9211122481632 0
428 -49.9894700085873 -19.806510182038 0
429 -49.9690390801471 -29.5546784552653 0
430 -39.9422579452791 -39.4384652801607 0
431 -49.9997149549099 10.003162050501 0
432 -49.9999433032112 20.0006031322527 0
433 -49.99999995442 50.0000004481678 0
434 -39.9938815854054 -19.846303001256 0
435 -59.9932865542539 -9.94808774414738 0
436 -49.9999905503858 30.0001050451543 0
437 -59.9999354564027 20.0005456501761 0
438 -39.9998323443882 10.0027070837279 0
439 -49.9950743267387 -9.93003358980714 0
440 -49.998327219302 0.0209328618631353 0
441 -49.8691750762616 -39.2731458708446 0
442 0 -100 0
443 0 100 0
444 0 -100 100
445 0 100 100
446 0 -100 -100
447 0 100 -100
448 0 58 58
449 0 -58 -58
450 0 90 0
451 0 80 0
452 0 70 0
453 0 60 0
454 0 50 0
455 0 40 0
456 0 30 0
457 0 20 0
458 0 10 0
459 0 0 0
460 0 -10 0
461 0 -20 0
462 0 -30 0
463 0 -40 0
464 0 -50 0
465 0 -60 0
466 0 -70 0
467 0 -80 0
468 0 -90 0
469 0 -90 100
470 0 -80 100
471 0 -70 100
472 0 -60 100
473 0 -50 100
474 0 -40 100
475 0 -30 100
476 0 -20 100
477 0 -10 100
478 0 0 100
479 0 10 100
480 0 20 100
481 0 30 100
482 0 40 100
483 0 50 100
484 0 60 100
485 0 70 100
486 0 80 100
487 0 90 100
488 0 -100 10
489 0 -100 20
490 0 -100 30
491 0 -100 40
492 0 -100 50
493 0 -100 60
494 0 -100 70
495 0 -100 80
496 0 -100 90
497 0 100 90
498 0 100 80
499 0 100 70
500 0 100 60
501 0 100 50
502 0 100 40
503 0 100 30
504 0 100 20
505 0 100 10
506 0 -100 -90
507 0 -100 -80
508 0 -100 -70
509 0 -100 -60
510 0 -100 -50
511 0 -100 -40
512 0 -100 -30
513 0 -100 -20
514 0 -100 -10
515 0 90 -100
516 0 80 -100
517 0 70 -100
518 0 60 -100
519 0 50 -100
520 0 40 -100
521 0 30 -100
522 0 20 -100
523 0 10 -100
524 0 0 -100
525 0 -10 -100
526 0 -20 -100
527 0 -30 -100
528 0 -40 -100
529 0 -50 -100
530 0 -60 -100
531 0 -70 -100
532 0 -80 -100
533 0 -90 -100
534 0 100 -10
535 0 100 -20
536 0 100 -30
537 0 100 -40
538 0 100 -50
539 0 100 -60
540 0 100 -70
541 0 100 -80
542 0 100 -90
543 0 -19.9798813446506 9.89150013513219
544 0 -39.9999998638266 89.9999982961086
545 0 -9.99999577870937 89.9999958291468
546 0 -89.9999999856799 59.9999999906199
547 0 -49.9994886209443 9.99969642581013
548 0 30.0286925607503 9.96755389471276
549 0 70.0040195437097 9.99808688882507
550 0 -89.9999999824248 39.9999999991315
551 0 69.9883069327508 89.9896379029004
552 0 20.0021016674062 89.9945732793633
553 0 90.0003427918207 39.9812189081928
554 0 39.9994171336236 89.9822324062085
555 0 89.9910045668219 59.979599923181
556 0 -69.9999922316384 9.99999733836595
557 0 -79.9999999999947 90.0000000000073
558 0 90.0003415849771 9.99962154687023
559 0 9.9923308627219 9.65349595171215
560 0 89.9988985810095 89.9988263242689
561 0 -89.9999999693231 9.99999999848407
562 0 -29.9902778058229 9.96941162970773
563 0 50.0090135183153 9.9994272264103
564 0 0.000115726634241309 89.9997719906998
565 0 -0.00213579269047592 9.58819489438183
566 0 -59.9999999941841 90.0000000079802
567 0 -29.9999997377822 89.9999991401374
568 0 90.0015198038423 19.9976037671028
569 0 -89.9999999999993 90.0000000000009
570 0 49.9878640908003 89.9793646802409
571 0 -89.9999999509648 29.9999999975769
572 0 -89.9999999999992 80.000000000001
573 0 89.9902879117879 69.9845031111287
574 0 0.0675814589264685 19.3597929273044
575 0 -19.9664081202357 19.7730078510638
576 0 -9.99993542331664 79.9959123154584
577 0 39.9493397903685 79.9371466628953
578 0 79.9032901028032 59.8527788585295
579 0 -79.999998658206 39.9999992151463
580 0 -79.9999999999507 80.000000000054
581 0 59.9793959809312 89.9801675638485
582 0 -79.9999988167553 9.99999965680968
583 0 40.0159563343325 9.99432804811562
584 0 -89.9999998596927 19.9999999752716
585 0 90.0026136898374 29.9890138645188
586 0 -39.9969953044979 9.99330190099526
587 0 -59.9998859905815 9.99993664678737
588 0 -49.9999999349785 89.99999890778
589 0 10.0007455670251 89.9982532215246
590 0 79.9937978687272 89.9942059726477
591 0 89.9936131249854 79.9918724377958
592 0 -69.9999999987605 90.0000000016991
593 0 80.0021137261318 9.99834073043669
594 0 60.0083592931763 9.99823248125721
595 0 20.0344798617793 9.869613783136
596 0 -19.9999951439306 89.9997441722653
597 0 29.9993061673135 89.9856106192567
598 0 -89.9999999021935 49.999999944837
599 0 -89.9999999919788 69.9999999941877
600 0 89.9905696977705 49.9673281336873
601 0 -9.97888854707183 9.74234936197355
602 0 -49.9999997315897 79.9999945054507
603 0 30.050844206168 19.9619397472097
604 0 70.0227753524623 19.9848862624299
605 0 69.9089956781909 79.9173108537858
606 0 -69.999975582209 19.9999880521845
607 0 49.8739875254246 79.8991904259864
608 0 -39.9953718599101 19.9872415712985
609 0 20.0022454296898 79.9825803942367
610 0 10.0711514684534 19.5798919545712
611 0 -9.95085089222688 19.5218854964153
612 0 79.9112640608971 69.8930145258129
613 0 -79.9999973175864 29.9999986764329
614 0 -79.9999956792534 19.9999980453231
615 0 80.0154160874511 29.9620991220261
616 0 79.9387158445371 49.8496107134843
617 0 0.000570904127543589 79.9928301087016
618 0 -29.999996820879 79.99956256016
619 0 -19.9999842381371 79.9976420746736
620 0 -79.9999990849108 49.9999994116246
621 0 -49.99875088886 19.9972922058787
622 0 40.0393002024572 20.0005162541172
623 0 -69.9999999962685 79.9999999959428
624 0 79.9547537913649 79.952264904263
625 0 -79.9999999722709 69.9999999794302
626 0 -29.9856551861713 19.9263528739695
627 0 50.0420299050865 20.0019783966765
628 0 80.0103734588709 19.9869842969057
629 0 29.9861370420887 79.9622531770748
630 0 -9.94729998789313 29.4231259115396
631 0 -39.9954524521047 29.978116450021
632 0 20.0033003538534 69.9638083169961
633 0 -9.99922703138258 69.9637959404426
634 0 -69.9999867659081 49.9999738382258
635 0 30.0591909814764 29.9870274695207
636 0 70.0383012516095 29.936562833981
637 0 -69.9999717008878 29.9999691659455
638 0 -69.9999994229059 69.999999100182
639 0 69.6623172123432 69.6562518658671
640 0 39.8368229885734 69.8927809812446
641 0 69.7249795610304 49.5906878995915
642 0 0.0711856767022999 29.3404145347665
643 0 59.8364524540306 79.866934525465
644 0 -29.9998297481519 69.9941566102301
645 0 -59.9999999118883 79.9999991299519
646 0 -39.9999884399085 79.9995687066382
647 0 -79.9999989595117 59.9999981893752
648 0 -59.9997190776781 19.9995465689068
649 0 60.0393248771044 19.988298373457
650 0 40.0591251510489 30.024257535156
651 0 79.9851089944965 39.8999244721581
652 0 10.0016339068821 79.9882300922839
653 0 -19.9720934467927 29.7318306531991
654 0 20.0619504014404 19.8242952022037
655 0 0.0441372452581592 39.4420701951311
656 0 30.0419544232601 40.001163450444
657 0 -59.9997261144273 29.9994576284989
658 0 50.0661816870868 30.003363717031
659 0 0.00255506909131909 69.9484569356642
660 0 59.4344882746667 69.4938787989233
661 0 69.4884531223404 59.4318562240393
662 0 -69.9999570632279 39.9999141878357
663 0 -49.9999886142422 69.9998558240233
664 0 -39.9999148510412 69.9979508717326
665 0 -19.9995487388468 69.9790537591651
666 0 -49.9985651066921 29.9948362264386
667 0 -29.9867308995085 29.9007110346597
668 0 49.5628431641346 69.6674914169025
669 0 -69.9999956484657 59.9999928715078
670 0 -59.9999962719115 69.9999775561597
671 0 29.9585304732196 69.9491258255458
672 0 60.0538072384731 29.9532714887274
673 0 10.005904174514 69.9512909041282
674 0 69.9535251957843 39.8211281394867
675 0 -9.96901648870721 39.5638108876138
676 0 20.0677317041554 29.831045250445
677 0 10.0710727461554 29.5934283184842
678 0 -39.9966992474648 39.9749367141807
679 0 0.0204241673505969 49.6543506371283
680 0 -19.9972855213566 59.9271604739226
681 0 20.0513701497429 39.8556656823258
682 0 20.0152085798188 59.9350784189804
683 0 -19.9815220745234 39.7657381947136
684 0 -49.9998808358103 59.9989734842412
685 0 29.9599541684901 59.9610661785195
686 0 -59.9998892873945 49.9995177649424
687 0 49.9657514281873 39.9477627571665
688 0 -9.99495939815966 59.8644850132462
689 0 0.00936793916409574 59.8375600814762
690 0 10.0497494025194 39.6526025936731
691 0 -49.998853973896 39.9936046566228
692 0 -59.9999461399219 59.9996748185334
693 0 39.9946520029967 40.0056476102469
694 0 59.5027675487687 49.4710013082931
695 0 -59.9996568515651 39.9985335408881
696 0 -39.9994929785234 59.9925569125367
697 0 59.904284236586 39.824572083852
698 0 39.7874468738191 59.8990279497469
699 0 49.3929582928022 59.5214099385216
700 0 49.6210539486089 49.6823184531432
701 0 -9.98422750760958 49.7266346685257
702 0 10.0312379961239 49.7662278205201
703 0 20.0314497061701 49.8963968977947
704 0 -39.9982430247274 49.981595268636
705 0 39.8661526611968 49.9138236486486
706 0 -29.9983207465991 59.9670205792972
707 0 10.0149436374455 59.8717803129801
708 0 -49.9992640033662 49.994092789534
709 0 -29.9907185900782 39.9029169645625
710 0 -19.9900791512065 49.8408664338177
711 0 -29.9946793793515 49.9270593840831
712 0 29.9834400116452 49.9552917527657
713 0 39.9999999997735 -89.9999999997489
714 0 0.0717578138830743 -9.6607154656281
715 0 40.0001101247513 -9.99974286170369
716 0 9.99999598404182 -89.999995547342
717 0 90 -60
718 0 -39.8216168894191 -9.79453221002332
719 0 -69.9756733091897 -10.0003528154365
720 0 -69.9871771967439 -89.9904446358543
721 0 -20.003249545259 -89.9946243366888
722 0 -89.8373503985476 -40.0043579664408
723 0 -89.8077646305672 -59.9857303058516
724 0 -40.0025283894497 -89.9829319958198
725 0 60.0000000582106 -9.99999989062102
726 0 80 -90
727 0 90.0000000000898 -29.9999999998312
728 0 -89.9755473784315 -79.9957754678687
729 0 -89.9973142451228 -10.0001095521367
730 0 80.0000000007186 -9.99999999864964
731 0 -19.7701548305628 -9.31428854528634
732 0 -89.9812333504351 -20.0006430682147
733 0 -79.9912861928395 -89.9953312816266
734 0 -59.9480930485734 -9.99685567589515
735 0 -0.000136850005349465 -89.9995748563655
736 0 20.0067640904078 -9.97370264713632
737 0 60 -90
738 0 29.9999999845427 -89.9999999828618
739 0 90.0000000000898 -9.99999999983121
740 0 -89.9943076863782 -89.9982863182359
741 0 90 -90
742 0 -49.9900595525543 -89.9800883023092
743 0 90 -50
744 0 90 -80
745 0 40.0000038593423 -79.9999778644094
746 0 10.0001280243985 -79.9956626436517
747 0 80.0000000011454 -59.9999999978479
748 0 -69.9193014620901 -19.990346910894
749 0 -39.9503643320041 -79.9357054490642
750 0 80.0000000000225 -79.9999999999578
751 0 -29.8179862629568 -9.54001968818296
752 0 -59.9793039407748 -89.9808530841229
753 0 -49.9192784949332 -9.94828145703928
754 0 -79.9433586935177 -19.9956364965728
755 0 -89.9175072493893 -29.9999975611387
756 0 30.0014200701116 -9.99482387159157
757 0 -79.9814297622351 -9.99894938118353
758 0 -89.8951889772684 -69.9823965830721
759 0 50.0000002411806 -89.9999986164942
760 0 -10.0010958741372 -89.9978765564573
761 0 10.0248946664548 -9.87838330612392
762 0 70.0000000000014 -89.9999999999974
763 0 -69.8731953447591 -79.9202676524035
764 0 70.0000000145527 -9.99999997265525
765 0 50.0000201746876 -9.99995336696083
766 0 -89.7582168453276 -49.9894547124738
767 0 20.0000074674193 -89.9997283230434
768 0 -30.0016706892155 -89.9860037072998
769 0 90.0000000001123 -19.999999999789
770 0 90.0000000000561 -39.9999999998945
771 0 90.000000000073 -69.9999999998629
772 0 -79.9163017699909 -79.9618116924779
773 0 -9.88346494366036 -9.42157631944689
774 0 -9.87101671839949 -19.0262260983138
775 0 30.001991498221 -19.9921200544443
776 0 50.0000362577669 -19.9998933637185
777 0 -29.8490104675311 -19.2465325065323
778 0 80.0000000131347 -39.9999999648509
779 0 -79.5511023900628 -39.9331672958845
780 0 -49.8623136039119 -79.8987320387845
781 0 30.0000086460279 -79.9999359577665
782 0 -20.0043411425727 -79.9702569489794
783 0 -69.4807874833092 -69.6665872397932
784 0 -59.8027126457995 -79.8680033444456
785 0 -49.9170678807742 -19.9201603341855
786 0 -79.7933843582791 -29.972436875257
787 0 60.0000000269511 -79.9999998513317
788 0 50.0000005218333 -79.9999970104196
789 0 1.75903517600246E-05 -79.985999437116
790 0 -79.3686819112243 -49.8571523022233
791 0 20.0114404678377 -19.9443350322241
792 0 20.0000419416331 -79.9987573626141
793 0 70.0000000093442 -79.9999999502481
794 0 0.0812327376408403 -19.4606422848462
795 0 60.0000061308476 -19.999982709883
796 0 80.0000000082677 -19.9999999790719
797 0 -59.9032738686092 -19.9757048721434
798 0 80.0000000067717 -49.9999999834294
799 0 80.0000000009637 -69.9999999961771
800 0 -79.6984215178549 -69.8815026877958
801 0 -29.9890270087816 -79.9540467637971
802 0 -9.85653063680268 -28.8874363056889
803 0 20.0136830616032 -29.9270611585507
804 0 50.0000038717549 -69.9999790363489
805 0 -19.98718322727 -69.8677419660157
806 0 20.0005714042261 -69.9938894006019
807 0 50.0000679090665 -29.9997232856947
808 0 -49.7911679246921 -29.8943227522157
809 0 70.0000001228471 -59.9999994633945
810 0 -59.3080771016415 -69.4896227338579
811 0 -39.7633808800943 -69.8600969436207
812 0 -69.3076032058602 -39.8117285498155
813 0 -19.8365807496969 -18.9944031071967
814 0 -68.9935889077789 -59.421808136329
815 0 -69.7007750291502 -29.9360656855639
816 0 10.0023368774215 -69.9668058594913
817 0 -79.4585636780516 -59.8105937654712
818 0 70.0000000437506 -69.9999997869121
819 0 40.0004926715997 -19.998111824894
820 0 40.0000367021841 -69.9997992311508
821 0 10.0396990273927 -19.7744331949781
822 0 70.0000008230012 -19.9999976802314
823 0 70.0000004008515 -49.9999983567805
824 0 80.0000000690225 -29.9999998066655
825 0 -10.0002378152426 -79.9694856492381
826 0 -39.8808674540764 -19.676573919265
827 0 20.0037538028418 -59.9729528590518
828 0 50.0000332245367 -59.9998286860256
829 0 30.003781125774 -29.9810648998718
830 0 60.000013334996 -29.9999493435561
831 0 0.00559318901691488 -69.9086526290973
832 0 0.0976250648878723 -29.3567383049837
833 0 -19.8501498952639 -28.8899682890408
834 0 -39.8510908707432 -29.6562736536999
835 0 -68.9810497435434 -49.5487489391632
836 0 60.0000026607352 -69.9999861442694
837 0 60.0000057098261 -59.9999708824475
838 0 -59.2906780493765 -39.7750619987338
839 0 -49.4552934577987 -69.647376430493
840 0 40.0008862968995 -29.9958430801725
841 0 30.0003746582677 -69.9971064102683
842 0 70.0000013743691 -39.9999946755809
843 0 -59.6840497545433 -29.9112654566766
844 0 -29.9159175922272 -69.875904914427
845 0 70.0000025439104 -29.9999907876465
846 0 -9.99082115192854 -69.8529713675499
847 0 10.0475196045993 -29.7160830170162
848 0 -19.8494358401121 -39.0220745954733
849 0 -19.9364366162799 -59.6206242109735
850 0 0.0970003921206202 -39.3720881168721
851 0 30.0013132562583 -59.9915294615646
852 0 20.0147118765489 -39.9159563764789
853 0 30.0043820228701 -39.9760117858848
854 0 50.0001452484972 -39.9993116714425
855 0 40.0003301992746 -59.9980261009731
856 0 10.0122373624417 -59.8932594294042
857 0 60.0000141555347 -49.9999321415101
858 0 -29.8173828750819 -59.733503213172
859 0 60.0000276490034 -39.9998740194863
860 0 0.0269377101745586 -59.7372122448222
861 0 -39.6762886234752 -39.6924234120059
862 0 -49.4294952004497 -39.7794011132879
863 0 -29.8525822933627 -29.2667734642799
864 0 -58.8633609229704 -49.3948954806011
865 0 -39.5308366793233 -59.7728877681411
866 0 -49.0908120386785 -59.4503406451645
867 0 -19.875634265367 -49.316080476114
868 0 -39.5097339101308 -49.6877416473452
869 0 -29.8046118178398 -39.367267494396
870 0 10.0301297523294 -49.7963123723192
871 0 30.0032524009386 -49.9810382047109
872 0 -9.95459467373969 -59.6122425794115
873 0 50.0001192483507 -49.9993905718774
874 0 40.0012754345615 -39.9932489582308
875 0 10.0452479244383 -39.7156093088334
876 0 -9.86717575774179 -39.0885319222445
877 0 -49.1490584109468 -49.5346748128873
878 0 -9.90952939564473 -49.3566521790566
879 0 0.0609333850985811 -49.5654117584409
880 0 -29.7639694000297 -49.5292088602505
881 0 40.0010765814176 -49.9939384897214
882 0 20.0124150169069 -49.9199420522869
$EndNodes
$Elements
800
1 3 2 1 1 217 7 252 227
2 3 2 1 1 220 198 253 7
3 3 2 1 1 255 253 239 263
4 3 2 1 1 199 185 163 103
5 3 2 1 1 251 252 255 269
6 3 2 1 1 255 263 246 269
7 3 2 1 1 185 199 219 189
8 3 2 1 1 254 256 266 235
9 3 2 1 1 219 218 243 240
10 3 2 1 1 269 246 250 257
11 3 2 1 1 7 217 196 220
12 3 2 1 1 234 258 259 264
13 3 2 1 1 262 248 261 268
14 3 2 1 1 264 259 270 237
15 3 2 1 1 256 271 249 266
16 3 2 1 1 268 265 238 262
17 3 2 1 1 267 260 271 243
18 3 2 1 1 142 200 168 128
19 3 2 1 1 238 222 241 262
20 3 2 1 1 145 165 176 126
21 3 2 1 1 175 203 204 141
22 3 2 1 1 157 188 172 112
23 3 2 1 1 203 248 221 204
24 3 2 1 1 148 171 175 123
25 3 2 1 1 174 136 225 193
26 3 2 1 1 216 192 235 266
27 3 2 1 1 181 226 242 207
28 3 2 1 1 228 242 263 239
29 3 2 1 1 169 201 222 195
30 3 2 1 1 24 25 111 142
31 3 2 1 1 144 121 47 48
32 3 2 1 1 61 62 147 113
33 3 2 1 1 105 122 180 135
34 3 2 1 1 180 232 202 135
35 3 2 1 1 111 150 183 167
36 3 2 1 1 214 191 202 247
37 3 2 1 1 225 264 237 193
38 3 2 1 1 153 109 52 53
39 3 2 1 1 55 129 120 54
40 3 2 1 1 200 142 111 167
41 3 2 1 1 147 125 184 178
42 3 2 1 1 215 165 205 233
43 3 2 1 1 173 196 167 183
44 3 2 1 1 193 224 208 174
45 3 2 1 1 230 245 235 192
46 3 2 1 1 258 234 265 268
47 3 2 1 1 254 235 245 257
48 3 2 1 1 268 261 236 258
49 3 2 1 1 18 19 149 122
50 3 2 1 1 150 119 154 183
51 3 2 1 1 103 143 164 199
52 3 2 1 1 109 153 186 205
53 3 2 1 1 231 190 236 261
54 3 2 1 1 55 3 28 129
55 3 2 1 1 124 104 14 15
56 3 2 1 1 112 149 19 20
57 3 2 1 1 26 27 119 150
58 3 2 1 1 42 107 152 41
59 3 2 1 1 174 144 102 136
60 3 2 1 1 134 171 148 104
61 3 2 1 1 104 124 170 134
62 3 2 1 1 223 190 134 170
63 3 2 1 1 107 181 207 152
64 3 2 1 1 200 217 227 168
65 3 2 1 1 134 190 231 171
66 3 2 1 1 175 171 231 203
67 3 2 1 1 241 221 248 262
68 3 2 1 1 190 223 244 236
69 3 2 1 1 242 226 246 263
70 3 2 1 1 14 104 148 13
71 3 2 1 1 124 15 16 156
72 3 2 1 1 142 128 23 24
73 3 2 1 1 2 56 119 27
74 3 2 1 1 43 132 107 42
75 3 2 1 1 143 103 45 46
76 3 2 1 1 49 50 126 102
77 3 2 1 1 56 57 154 119
78 3 2 1 1 61 113 161 60
79 3 2 1 1 62 63 125 147
80 3 2 1 1 135 177 156 105
81 3 2 1 1 131 182 138 108
82 3 2 1 1 161 113 210 179
83 3 2 1 1 168 139 114 128
84 3 2 1 1 144 174 208 121
85 3 2 1 1 177 170 124 156
86 3 2 1 1 120 129 151 146
87 3 2 1 1 107 132 137 181
88 3 2 1 1 163 185 137 132
89 3 2 1 1 183 154 133 173
90 3 2 1 1 202 191 177 135
91 3 2 1 1 212 226 181 137
92 3 2 1 1 178 184 138 206
93 3 2 1 1 114 139 188 157
94 3 2 1 1 227 197 139 168
95 3 2 1 1 188 139 197 230
96 3 2 1 1 196 173 140 220
97 3 2 1 1 116 169 146 151
98 3 2 1 1 113 147 178 210
99 3 2 1 1 112 172 211 149
100 3 2 1 1 122 149 211 180
101 3 2 1 1 219 199 164 218
102 3 2 1 1 224 218 164 208
103 3 2 1 1 176 165 215 194
104 3 2 1 1 222 201 166 241
105 3 2 1 1 221 241 166 209
106 3 2 1 1 146 169 195 186
107 3 2 1 1 170 177 191 223
108 3 2 1 1 211 216 232 180
109 3 2 1 1 138 182 228 206
110 3 2 1 1 242 228 182 207
111 3 2 1 1 221 209 187 204
112 3 2 1 1 172 188 230 192
113 3 2 1 1 172 192 216 211
114 3 2 1 1 186 195 233 205
115 3 2 1 1 233 195 222 238
116 3 2 1 1 227 252 251 197
117 3 2 1 1 179 210 229 198
118 3 2 1 1 232 249 247 202
119 3 2 1 1 178 206 229 210
120 3 2 1 1 270 214 247 260
121 3 2 1 1 194 215 265 234
122 3 2 1 1 232 216 266 249
123 3 2 1 1 206 228 239 229
124 3 2 1 1 198 229 239 253
125 3 2 1 1 236 244 259 258
126 3 2 1 1 269 257 245 251
127 3 2 1 1 271 260 247 249
128 3 2 1 1 122 105 17 18
129 3 2 1 1 21 22 114 157
130 3 2 1 1 129 28 29 151
131 3 2 1 1 4 37 118 64
132 3 2 1 1 37 38 160 118
133 3 2 1 1 38 39 108 160
134 3 2 1 1 39 40 131 108
135 3 2 1 1 40 41 152 131
136 3 2 1 1 44 45 103 163
137 3 2 1 1 102 144 48 49
138 3 2 1 1 145 126 50 51
139 3 2 1 1 154 57 58 133
140 3 2 1 1 201 158 106 166
141 3 2 1 1 209 166 106 159
142 3 2 1 1 205 165 145 109
143 3 2 1 1 173 133 115 140
144 3 2 1 1 179 140 115 161
145 3 2 1 1 169 116 158 201
146 3 2 1 1 143 121 208 164
147 3 2 1 1 118 160 184 125
148 3 2 1 1 102 126 176 136
149 3 2 1 1 108 138 184 160
150 3 2 1 1 120 146 186 153
151 3 2 1 1 215 233 238 265
152 3 2 1 1 1 9 127 36
153 3 2 1 1 11 110 155 10
154 3 2 1 1 9 10 155 127
155 3 2 1 1 148 123 12 13
156 3 2 1 1 11 12 123 110
157 3 2 1 1 156 16 17 105
158 3 2 1 1 128 114 22 23
159 3 2 1 1 151 29 30 116
160 3 2 1 1 32 106 158 31
161 3 2 1 1 30 31 158 116
162 3 2 1 1 32 33 159 106
163 3 2 1 1 34 130 159 33
164 3 2 1 1 35 117 130 34
165 3 2 1 1 35 36 127 117
166 3 2 1 1 163 132 43 44
167 3 2 1 1 46 47 121 143
168 3 2 1 1 53 54 120 153
169 3 2 1 1 133 58 59 115
170 3 2 1 1 161 115 59 60
171 3 2 1 1 125 63 64 118
172 3 2 1 1 175 141 110 123
173 3 2 1 1 127 155 162 117
174 3 2 1 1 117 162 187 130
175 3 2 1 1 182 131 152 207
176 3 2 1 1 194 225 136 176
177 3 2 1 1 220 140 179 198
178 3 2 1 1 110 141 162 155
179 3 2 1 1 204 187 162 141
180 3 2 1 1 130 187 209 159
181 3 2 1 1 214 244 223 191
182 3 2 1 1 251 245 230 197
183 3 2 1 1 261 248 203 231
184 3 2 1 1 270 259 244 214
185 3 2 1 1 193 237 267 224
186 3 2 1 1 218 224 267 243
187 3 2 1 1 194 234 264 225
188 3 2 1 1 260 267 237 270
189 3 2 1 1 157 112 20 21
190 3 2 1 1 150 111 25 26
191 3 2 1 1 51 52 109 145
192 3 2 1 1 217 200 167 196
193 3 2 1 1 246 226 212 250
194 3 2 1 1 240 243 271 256
195 3 2 1 1 257 250 213 254
196 3 2 1 1 256 254 213 240
197 3 2 1 1 250 212 189 213
198 3 2 1 1 189 219 240 213
199 3 2 1 1 212 137 185 189
200 3 2 1 1 252 7 253 255
201 3 2 1 1 368 8 425 397
202 3 2 1 1 370 392 423 391
203 3 2 1 1 425 8 423 427
204 3 2 1 1 425 427 441 424
205 3 2 1 1 430 407 429 441
206 3 2 1 1 311 345 339 301
207 3 2 1 1 391 371 377 350
208 3 2 1 1 429 407 434 428
209 3 2 1 1 311 279 323 345
210 3 2 1 1 373 340 293 312
211 3 2 1 1 338 346 372 370
212 3 2 1 1 8 368 344 371
213 3 2 1 1 436 415 437 432
214 3 2 1 1 435 439 440 422
215 3 2 1 1 55 288 73 3
216 3 2 1 1 346 338 281 314
217 3 2 1 1 329 361 342 280
218 3 2 1 1 291 72 73 288
219 3 2 1 1 293 340 307 278
220 3 2 1 1 318 282 377 360
221 3 2 1 1 346 314 291 313
222 3 2 1 1 406 362 409 435
223 3 2 1 1 399 376 394 412
224 3 2 1 1 388 414 433 412
225 3 2 1 1 399 412 433 417
226 3 2 1 1 438 431 440 419
227 3 2 1 1 422 440 431 408
228 3 2 1 1 312 293 52 51
229 3 2 1 1 53 52 293 278
230 3 2 1 1 314 281 70 71
231 3 2 1 1 89 90 279 311
232 3 2 1 1 292 91 92 299
233 3 2 1 1 295 315 336 351
234 3 2 1 1 304 364 394 348
235 3 2 1 1 405 420 409 362
236 3 2 1 1 430 413 386 407
237 3 2 1 1 414 388 415 436
238 3 2 1 1 428 434 426 439
239 3 2 1 1 55 54 317 288
240 3 2 1 1 313 317 278 307
241 3 2 1 1 275 294 349 305
242 3 2 1 1 368 345 323 344
243 3 2 1 1 394 376 347 348
244 3 2 1 1 347 376 382 353
245 3 2 1 1 365 396 418 411
246 3 2 1 1 315 43 42 274
247 3 2 1 1 83 84 320 294
248 3 2 1 1 292 299 287 333
249 3 2 1 1 291 288 317 313
250 3 2 1 1 375 334 290 316
251 3 2 1 1 313 307 372 346
252 3 2 1 1 323 333 360 344
253 3 2 1 1 46 273 316 47
254 3 2 1 1 48 47 316 290
255 3 2 1 1 297 272 79 80
256 3 2 1 1 280 320 84 85
257 3 2 1 1 304 348 319 272
258 3 2 1 1 316 273 335 375
259 3 2 1 1 396 365 351 336
260 3 2 1 1 345 368 397 339
261 3 2 1 1 395 374 341 352
262 3 2 1 1 377 371 344 360
263 3 2 1 1 413 430 410 398
264 3 2 1 1 49 48 290 326
265 3 2 1 1 299 65 66 287
266 3 2 1 1 5 65 299 92
267 3 2 1 1 66 67 318 287
268 3 2 1 1 70 281 327 69
269 3 2 1 1 71 72 291 314
270 3 2 1 1 79 272 319 78
271 3 2 1 1 297 80 81 328
272 3 2 1 1 311 301 88 89
273 3 2 1 1 354 336 315 274
274 3 2 1 1 333 323 279 292
275 3 2 1 1 327 350 377 282
276 3 2 1 1 339 308 283 301
277 3 2 1 1 309 355 325 284
278 3 2 1 1 333 287 318 360
279 3 2 1 1 348 347 296 319
280 3 2 1 1 272 297 341 304
281 3 2 1 1 352 341 297 328
282 3 2 1 1 283 308 361 329
283 3 2 1 1 397 369 308 339
284 3 2 1 1 361 308 369 405
285 3 2 1 1 379 378 355 309
286 3 2 1 1 280 342 384 320
287 3 2 1 1 294 320 384 349
288 3 2 1 1 296 347 353 322
289 3 2 1 1 281 338 350 327
290 3 2 1 1 391 350 338 370
291 3 2 1 1 304 341 374 364
292 3 2 1 1 384 406 390 349
293 3 2 1 1 365 401 380 351
294 3 2 1 1 354 355 378 366
295 3 2 1 1 309 357 404 379
296 3 2 1 1 342 361 405 362
297 3 2 1 1 342 362 406 384
298 3 2 1 1 415 388 364 374
299 3 2 1 1 388 412 394 364
300 3 2 1 1 376 399 367 382
301 3 2 1 1 397 425 424 369
302 3 2 1 1 370 372 402 392
303 3 2 1 1 366 378 400 389
304 3 2 1 1 378 379 416 400
305 3 2 1 1 367 399 417 381
306 3 2 1 1 403 381 417 416
307 3 2 1 1 436 418 389 414
308 3 2 1 1 398 410 392 402
309 3 2 1 1 374 395 437 415
310 3 2 1 1 389 400 433 414
311 3 2 1 1 416 417 433 400
312 3 2 1 1 390 406 435 422
313 3 2 1 1 436 432 411 418
314 3 2 1 1 431 438 411 432
315 3 2 1 1 4 93 289 37
316 3 2 1 1 38 37 289 324
317 3 2 1 1 39 38 324 298
318 3 2 1 1 40 39 298 284
319 3 2 1 1 41 40 284 325
320 3 2 1 1 42 41 325 274
321 3 2 1 1 321 45 44 295
322 3 2 1 1 45 321 273 46
323 3 2 1 1 50 49 326 277
324 3 2 1 1 51 50 277 312
325 3 2 1 1 278 317 54 53
326 3 2 1 1 322 76 77 296
327 3 2 1 1 319 296 77 78
328 3 2 1 1 294 275 82 83
329 3 2 1 1 86 87 283 329
330 3 2 1 1 355 354 274 325
331 3 2 1 1 328 275 305 352
332 3 2 1 1 298 357 309 284
333 3 2 1 1 326 290 334 385
334 3 2 1 1 324 356 357 298
335 3 2 1 1 277 326 385 337
336 3 2 1 1 305 349 390 363
337 3 2 1 1 424 420 405 369
338 3 2 1 1 419 426 421 387
339 3 2 1 1 363 390 422 408
340 3 2 1 1 379 404 403 416
341 3 2 1 1 429 428 409 420
342 3 2 1 1 439 435 409 428
343 3 2 1 1 315 295 44 43
344 3 2 1 1 318 67 68 282
345 3 2 1 1 327 282 68 69
346 3 2 1 1 6 74 300 101
347 3 2 1 1 75 285 300 74
348 3 2 1 1 75 76 322 285
349 3 2 1 1 328 81 82 275
350 3 2 1 1 301 283 87 88
351 3 2 1 1 95 286 330 94
352 3 2 1 1 93 94 330 289
353 3 2 1 1 95 96 331 286
354 3 2 1 1 97 302 331 96
355 3 2 1 1 98 276 302 97
356 3 2 1 1 98 99 332 276
357 3 2 1 1 100 303 332 99
358 3 2 1 1 101 300 303 100
359 3 2 1 1 312 277 337 373
360 3 2 1 1 300 285 310 303
361 3 2 1 1 331 343 383 286
362 3 2 1 1 330 286 383 356
363 3 2 1 1 356 324 289 330
364 3 2 1 1 276 306 358 302
365 3 2 1 1 331 302 358 343
366 3 2 1 1 352 305 363 395
367 3 2 1 1 276 332 359 306
368 3 2 1 1 285 322 353 310
369 3 2 1 1 303 310 359 332
370 3 2 1 1 273 321 380 335
371 3 2 1 1 295 351 380 321
372 3 2 1 1 393 386 385 334
373 3 2 1 1 401 387 335 380
374 3 2 1 1 398 373 337 413
375 3 2 1 1 307 340 402 372
376 3 2 1 1 373 398 402 340
377 3 2 1 1 358 381 403 343
378 3 2 1 1 383 343 403 404
379 3 2 1 1 310 353 382 359
380 3 2 1 1 336 354 366 396
381 3 2 1 1 356 383 404 357
382 3 2 1 1 306 367 381 358
383 3 2 1 1 306 359 382 367
384 3 2 1 1 335 387 421 375
385 3 2 1 1 337 385 386 413
386 3 2 1 1 386 393 434 407
387 3 2 1 1 363 408 437 395
388 3 2 1 1 365 411 438 401
389 3 2 1 1 387 401 438 419
390 3 2 1 1 432 437 408 431
391 3 2 1 1 440 439 426 419
392 3 2 1 1 429 420 424 441
393 3 2 1 1 329 280 85 86
394 3 2 1 1 292 279 90 91
395 3 2 1 1 334 375 421 393
396 3 2 1 1 426 434 393 421
397 3 2 1 1 418 396 366 389
398 3 2 1 1 441 427 410 430
399 3 2 1 1 392 410 427 423
400 3 2 1 1 371 391 423 8
401 3 2 2 2 660 448 699 668
402 3 2 2 2 661 641 694 448
403 3 2 2 2 700 694 697 687
404 3 2 2 2 642 655 690 677
405 3 2 2 2 611 574 565 601
406 3 2 2 2 679 701 688 689
407 3 2 2 2 679 689 707 702
408 3 2 2 2 654 610 677 676
409 3 2 2 2 690 681 676 677
410 3 2 2 2 690 702 703 681
411 3 2 2 2 711 706 680 710
412 3 2 2 2 702 707 682 703
413 3 2 2 2 603 654 676 635
414 3 2 2 2 710 683 709 711
415 3 2 2 2 448 660 639 661
416 3 2 2 2 708 684 696 704
417 3 2 2 2 703 682 685 712
418 3 2 2 2 581 643 607 570
419 3 2 2 2 611 601 543 575
420 3 2 2 2 708 691 695 686
421 3 2 2 2 613 579 662 637
422 3 2 2 2 582 614 606 556
423 3 2 2 2 606 614 613 637
424 3 2 2 2 606 637 657 648
425 3 2 2 2 662 695 657 637
426 3 2 2 2 685 698 705 712
427 3 2 2 2 556 587 465 466
428 3 2 2 2 663 602 646 664
429 3 2 2 2 645 602 663 670
430 3 2 2 2 597 629 609 552
431 3 2 2 2 613 614 584 571
432 3 2 2 2 673 632 682 707
433 3 2 2 2 465 587 547 464
434 3 2 2 2 556 466 467 582
435 3 2 2 2 484 485 551 581
436 3 2 2 2 502 503 585 553
437 3 2 2 2 545 564 617 576
438 3 2 2 2 551 590 624 605
439 3 2 2 2 684 692 670 663
440 3 2 2 2 634 669 692 686
441 3 2 2 2 684 708 686 692
442 3 2 2 2 468 561 582 467
443 3 2 2 2 643 581 551 605
444 3 2 2 2 585 568 628 615
445 3 2 2 2 617 659 633 576
446 3 2 2 2 553 585 615 651
447 3 2 2 2 612 639 605 624
448 3 2 2 2 618 619 665 644
449 3 2 2 2 671 685 682 632
450 3 2 2 2 708 704 678 691
451 3 2 2 2 461 543 601 460
452 3 2 2 2 462 463 586 562
453 3 2 2 2 478 479 589 564
454 3 2 2 2 590 560 591 624
455 3 2 2 2 468 442 488 561
456 3 2 2 2 583 563 454 455
457 3 2 2 2 567 544 474 475
458 3 2 2 2 552 589 479 480
459 3 2 2 2 486 487 560 590
460 3 2 2 2 588 544 646 602
461 3 2 2 2 567 618 646 544
462 3 2 2 2 622 583 548 603
463 3 2 2 2 584 614 582 561
464 3 2 2 2 643 660 668 607
465 3 2 2 2 626 608 631 667
466 3 2 2 2 641 616 651 674
467 3 2 2 2 695 662 634 686
468 3 2 2 2 656 712 705 693
469 3 2 2 2 704 696 706 711
470 3 2 2 2 548 583 455 456
471 3 2 2 2 458 559 595 457
472 3 2 2 2 565 559 458 459
473 3 2 2 2 562 543 461 462
474 3 2 2 2 474 544 588 473
475 3 2 2 2 567 475 476 596
476 3 2 2 2 581 570 483 484
477 3 2 2 2 445 497 560 487
478 3 2 2 2 561 488 489 584
479 3 2 2 2 497 498 591 560
480 3 2 2 2 502 553 600 501
481 3 2 2 2 503 504 568 585
482 3 2 2 2 598 546 647 620
483 3 2 2 2 586 547 621 608
484 3 2 2 2 587 648 621 547
485 3 2 2 2 571 550 579 613
486 3 2 2 2 600 553 651 616
487 3 2 2 2 607 577 554 570
488 3 2 2 2 586 608 626 562
489 3 2 2 2 583 622 627 563
490 3 2 2 2 602 645 566 588
491 3 2 2 2 645 623 592 566
492 3 2 2 2 619 618 567 596
493 3 2 2 2 624 591 573 612
494 3 2 2 2 667 653 575 626
495 3 2 2 2 619 576 633 665
496 3 2 2 2 554 577 629 597
497 3 2 2 2 668 640 577 607
498 3 2 2 2 629 577 640 671
499 3 2 2 2 639 612 578 661
500 3 2 2 2 550 598 620 579
501 3 2 2 2 620 634 662 579
502 3 2 2 2 552 609 652 589
503 3 2 2 2 564 589 652 617
504 3 2 2 2 563 627 649 594
505 3 2 2 2 622 603 635 650
506 3 2 2 2 652 673 659 617
507 3 2 2 2 646 618 644 664
508 3 2 2 2 608 621 666 631
509 3 2 2 2 657 666 621 648
510 3 2 2 2 580 623 638 625
511 3 2 2 2 645 670 638 623
512 3 2 2 2 622 650 658 627
513 3 2 2 2 609 629 671 632
514 3 2 2 2 691 678 631 666
515 3 2 2 2 667 631 678 709
516 3 2 2 2 609 632 673 652
517 3 2 2 2 659 689 688 633
518 3 2 2 2 620 647 669 634
519 3 2 2 2 672 697 674 636
520 3 2 2 2 625 638 669 647
521 3 2 2 2 668 699 698 640
522 3 2 2 2 706 696 664 644
523 3 2 2 2 635 656 693 650
524 3 2 2 2 697 672 658 687
525 3 2 2 2 650 693 687 658
526 3 2 2 2 644 665 680 706
527 3 2 2 2 638 670 692 669
528 3 2 2 2 659 673 707 689
529 3 2 2 2 711 709 678 704
530 3 2 2 2 443 450 558 505
531 3 2 2 2 450 451 593 558
532 3 2 2 2 451 452 549 593
533 3 2 2 2 452 453 594 549
534 3 2 2 2 592 471 472 566
535 3 2 2 2 588 566 472 473
536 3 2 2 2 564 545 477 478
537 3 2 2 2 481 482 554 597
538 3 2 2 2 584 489 490 571
539 3 2 2 2 591 498 499 573
540 3 2 2 2 612 573 555 578
541 3 2 2 2 543 562 626 575
542 3 2 2 2 558 593 628 568
543 3 2 2 2 555 600 616 578
544 3 2 2 2 549 604 628 593
545 3 2 2 2 549 594 649 604
546 3 2 2 2 651 615 636 674
547 3 2 2 2 627 658 672 649
548 3 2 2 2 701 710 680 688
549 3 2 2 2 594 453 454 563
550 3 2 2 2 595 548 456 457
551 3 2 2 2 459 460 601 565
552 3 2 2 2 547 586 463 464
553 3 2 2 2 444 469 569 496
554 3 2 2 2 470 557 569 469
555 3 2 2 2 470 471 592 557
556 3 2 2 2 596 476 477 545
557 3 2 2 2 570 554 482 483
558 3 2 2 2 571 490 491 550
559 3 2 2 2 493 546 598 492
560 3 2 2 2 491 492 598 550
561 3 2 2 2 493 494 599 546
562 3 2 2 2 495 572 599 494
563 3 2 2 2 496 569 572 495
564 3 2 2 2 573 499 500 555
565 3 2 2 2 600 555 500 501
566 3 2 2 2 568 504 505 558
567 3 2 2 2 596 545 576 619
568 3 2 2 2 647 546 599 625
569 3 2 2 2 569 557 580 572
570 3 2 2 2 623 580 557 592
571 3 2 2 2 611 575 653 630
572 3 2 2 2 661 578 616 641
573 3 2 2 2 572 580 625 599
574 3 2 2 2 556 606 648 587
575 3 2 2 2 615 628 604 636
576 3 2 2 2 636 604 649 672
577 3 2 2 2 698 685 671 640
578 3 2 2 2 681 703 712 656
579 3 2 2 2 663 664 696 684
580 3 2 2 2 633 688 680 665
581 3 2 2 2 657 695 691 666
582 3 2 2 2 641 674 697 694
583 3 2 2 2 710 701 675 683
584 3 2 2 2 700 687 693 705
585 3 2 2 2 597 552 480 481
586 3 2 2 2 590 551 485 486
587 3 2 2 2 603 548 595 654
588 3 2 2 2 660 643 605 639
589 3 2 2 2 653 667 709 683
590 3 2 2 2 656 635 676 681
591 3 2 2 2 677 610 574 642
592 3 2 2 2 630 642 574 611
593 3 2 2 2 559 610 654 595
594 3 2 2 2 683 675 630 653
595 3 2 2 2 642 630 675 655
596 3 2 2 2 701 679 655 675
597 3 2 2 2 655 679 702 690
598 3 2 2 2 565 574 610 559
599 3 2 2 2 694 700 699 448
600 3 2 2 2 705 698 699 700
601 3 2 2 2 810 449 866 839
602 3 2 2 2 773 774 813 731
603 3 2 2 2 848 867 880 869
604 3 2 2 2 867 848 876 878
605 3 2 2 2 812 838 864 835
606 3 2 2 2 866 449 864 877
607 3 2 2 2 813 774 802 833
608 3 2 2 2 833 848 869 863
609 3 2 2 2 876 848 833 802
610 3 2 2 2 880 858 865 868
611 3 2 2 2 866 877 868 865
612 3 2 2 2 785 826 834 808
613 3 2 2 2 862 861 868 877
614 3 2 2 2 878 879 860 872
615 3 2 2 2 847 875 850 832
616 3 2 2 2 752 784 780 742
617 3 2 2 2 835 814 817 790
618 3 2 2 2 752 720 763 784
619 3 2 2 2 449 810 783 814
620 3 2 2 2 779 786 815 812
621 3 2 2 2 751 718 463 462
622 3 2 2 2 468 729 514 442
623 3 2 2 2 786 779 722 755
624 3 2 2 2 768 801 782 721
625 3 2 2 2 732 513 514 729
626 3 2 2 2 734 797 748 719
627 3 2 2 2 758 723 817 800
628 3 2 2 2 786 755 732 754
629 3 2 2 2 846 805 849 872
630 3 2 2 2 818 836 837 809
631 3 2 2 2 841 851 855 820
632 3 2 2 2 852 882 870 875
633 3 2 2 2 753 734 465 464
634 3 2 2 2 466 465 734 719
635 3 2 2 2 755 722 511 512
636 3 2 2 2 530 531 720 752
637 3 2 2 2 733 532 533 740
638 3 2 2 2 789 831 816 746
639 3 2 2 2 736 756 775 791
640 3 2 2 2 837 828 873 857
641 3 2 2 2 882 852 853 871
642 3 2 2 2 468 467 757 729
643 3 2 2 2 754 757 719 748
644 3 2 2 2 716 735 789 746
645 3 2 2 2 810 784 763 783
646 3 2 2 2 745 820 804 788
647 3 2 2 2 844 858 849 805
648 3 2 2 2 756 456 455 715
649 3 2 2 2 524 525 760 735
650 3 2 2 2 733 740 728 772
651 3 2 2 2 732 729 757 754
652 3 2 2 2 763 772 800 783
653 3 2 2 2 738 713 520 521
654 3 2 2 2 721 760 525 526
655 3 2 2 2 745 788 759 713
656 3 2 2 2 754 748 815 786
657 3 2 2 2 784 810 839 780
658 3 2 2 2 792 806 841 781
659 3 2 2 2 817 814 783 800
660 3 2 2 2 775 819 840 829
661 3 2 2 2 855 851 871 881
662 3 2 2 2 460 459 714 773
663 3 2 2 2 719 757 467 466
664 3 2 2 2 740 506 507 728
665 3 2 2 2 446 506 740 533
666 3 2 2 2 507 508 758 728
667 3 2 2 2 511 722 766 510
668 3 2 2 2 512 513 732 755
669 3 2 2 2 520 713 759 519
670 3 2 2 2 738 521 522 767
671 3 2 2 2 752 742 529 530
672 3 2 2 2 756 715 819 775
673 3 2 2 2 772 763 720 733
674 3 2 2 2 766 790 817 723
675 3 2 2 2 780 749 724 742
676 3 2 2 2 772 728 758 800
677 3 2 2 2 788 787 737 759
678 3 2 2 2 713 738 781 745
679 3 2 2 2 792 781 738 767
680 3 2 2 2 816 806 792 746
681 3 2 2 2 724 749 801 768
682 3 2 2 2 839 811 749 780
683 3 2 2 2 801 749 811 844
684 3 2 2 2 721 782 825 760
685 3 2 2 2 735 760 825 789
686 3 2 2 2 737 787 793 762
687 3 2 2 2 722 779 790 766
688 3 2 2 2 791 775 829 803
689 3 2 2 2 835 790 779 812
690 3 2 2 2 745 781 841 820
691 3 2 2 2 836 818 793 787
692 3 2 2 2 787 788 804 836
693 3 2 2 2 825 846 831 789
694 3 2 2 2 776 795 830 807
695 3 2 2 2 782 801 844 805
696 3 2 2 2 837 836 804 828
697 3 2 2 2 782 805 846 825
698 3 2 2 2 827 851 841 806
699 3 2 2 2 839 866 865 811
700 3 2 2 2 806 816 856 827
701 3 2 2 2 831 860 856 816
702 3 2 2 2 804 820 855 828
703 3 2 2 2 795 822 845 830
704 3 2 2 2 856 870 882 827
705 3 2 2 2 881 873 828 855
706 3 2 2 2 831 846 872 860
707 3 2 2 2 827 882 871 851
708 3 2 2 2 879 870 856 860
709 3 2 2 2 443 534 739 450
710 3 2 2 2 451 450 739 730
711 3 2 2 2 452 451 730 764
712 3 2 2 2 453 452 764 725
713 3 2 2 2 454 453 725 765
714 3 2 2 2 455 454 765 715
715 3 2 2 2 761 458 457 736
716 3 2 2 2 458 761 714 459
717 3 2 2 2 464 463 718 753
718 3 2 2 2 762 517 518 737
719 3 2 2 2 759 737 518 519
720 3 2 2 2 735 716 523 524
721 3 2 2 2 527 528 724 768
722 3 2 2 2 767 716 746 792
723 3 2 2 2 765 725 795 776
724 3 2 2 2 764 822 795 725
725 3 2 2 2 730 796 822 764
726 3 2 2 2 843 797 785 808
727 3 2 2 2 809 837 857 823
728 3 2 2 2 756 736 457 456
729 3 2 2 2 758 508 509 723
730 3 2 2 2 766 723 509 510
731 3 2 2 2 447 515 741 542
732 3 2 2 2 516 726 741 515
733 3 2 2 2 516 517 762 726
734 3 2 2 2 767 522 523 716
735 3 2 2 2 742 724 528 529
736 3 2 2 2 536 727 769 535
737 3 2 2 2 534 535 769 739
738 3 2 2 2 536 537 770 727
739 3 2 2 2 538 743 770 537
740 3 2 2 2 539 717 743 538
741 3 2 2 2 539 540 771 717
742 3 2 2 2 541 744 771 540
743 3 2 2 2 542 741 744 541
744 3 2 2 2 776 819 715 765
745 3 2 2 2 741 726 750 744
746 3 2 2 2 770 778 824 727
747 3 2 2 2 769 727 824 796
748 3 2 2 2 796 730 739 769
749 3 2 2 2 753 785 797 734
750 3 2 2 2 717 747 798 743
751 3 2 2 2 770 743 798 778
752 3 2 2 2 717 771 799 747
753 3 2 2 2 797 843 815 748
754 3 2 2 2 726 762 793 750
755 3 2 2 2 744 750 799 771
756 3 2 2 2 736 791 821 761
757 3 2 2 2 714 761 821 794
758 3 2 2 2 807 840 819 776
759 3 2 2 2 798 823 842 778
760 3 2 2 2 824 778 842 845
761 3 2 2 2 803 847 821 791
762 3 2 2 2 750 793 818 799
763 3 2 2 2 747 809 823 798
764 3 2 2 2 747 799 818 809
765 3 2 2 2 853 852 803 829
766 3 2 2 2 852 875 847 803
767 3 2 2 2 840 807 854 874
768 3 2 2 2 862 808 834 861
769 3 2 2 2 865 858 844 811
770 3 2 2 2 812 815 843 838
771 3 2 2 2 794 821 847 832
772 3 2 2 2 796 824 845 822
773 3 2 2 2 842 823 857 859
774 3 2 2 2 845 842 859 830
775 3 2 2 2 807 830 859 854
776 3 2 2 2 829 840 874 853
777 3 2 2 2 880 867 849 858
778 3 2 2 2 878 872 849 867
779 3 2 2 2 871 853 874 881
780 3 2 2 2 873 854 859 857
781 3 2 2 2 881 874 854 873
782 3 2 2 2 768 721 526 527
783 3 2 2 2 733 720 531 532
784 3 2 2 2 808 862 838 843
785 3 2 2 2 785 753 718 826
786 3 2 2 2 870 879 850 875
787 3 2 2 2 850 876 802 832
788 3 2 2 2 838 862 877 864
789 3 2 2 2 813 833 863 777
790 3 2 2 2 834 826 777 863
791 3 2 2 2 751 777 826 718
792 3 2 2 2 832 802 774 794
793 3 2 2 2 879 878 876 850
794 3 2 2 2 814 835 864 449
795 3 2 2 2 861 834 863 869
796 3 2 2 2 868 861 869 880
797 3 2 2 2 794 774 773 714
798 3 2 2 2 777 751 731 813
799 3 2 2 2 462 461 731 751
800 3 2 2 2 461 460 773 731
$EndElements
