$MeshFormat
2.2 0 8
$EndMeshFormat
$Nodes
882
1 100 100 0
2 0 100 0
3 0 82 0
4 0 0 0
5 100 0 0
6 50 82 0
7 95 100 0
8 90 100 0
9 85 100 0
10 80 100 0
11 75 100 0
12 70 100 0
13 65 100 0
14 60 100 0
15 55 100 0
16 50 100 0
17 45 100 0
18 40 100 0
19 35 100 0
20 30 100 0
21 25 100 0
22 20 100 0
23 15 100 0
24 10 100 0
25 5 100 0
26 0 95.5 0
27 0 91 0
28 0 86.5 0
29 0 76.875 0
30 0 71.75 0
31 0 66.625 0
32 0 61.5 0
33 0 56.375 0
34 0 51.25 0
35 0 46.125 0
36 0 41 0
37 0 35.875 0
38 0 30.75 0
39 0 25.625 0
40 0 20.5 0
41 0 15.375 0
42 0 10.25 0
43 0 5.125 0
44 5 0 0
45 10 0 0
46 15 0 0
47 20 0 0
48 25 0 0
49 30 0 0
50 35 0 0
51 40 0 0
52 45 0 0
53 50 0 0
54 55 0 0
55 60 0 0
56 65 0 0
57 70 0 0
58 75 0 0
59 80 0 0
60 85 0 0
61 90 0 0
62 95 0 0
63 100 5 0
64 100 10 0
65 100 15 0
66 100 20 0
67 100 25 0
68 100 30 0
69 100 35 0
70 100 40 0
71 100 45 0
72 100 50 0
73 100 55 0
74 100 60 0
75 100 65 0
76 100 70 0
77 100 75 0
78 100 80 0
79 100 85 0
80 100 90 0
81 100 95 0
82 45 82 0
83 40 82 0
84 35 82 0
85 30 82 0
86 25 82 0
87 20 82 0
88 15 82 0
89 10 82 0
90 5 82 0
91 60.0016158022936 5.00147906707912 0
92 94.9999755033794 59.9999839922408 0
93 5.10645449508997 46.1199654368139 0
94 35.0151176552718 5.01303218250269 0
95 94.9998467588304 29.9999365698601 0
96 5.10117051499621 30.7348046306377 0
97 79.9999953240991 5.00009141379807 0
98 69.9999438281317 95.0015277002439 0
99 94.9999946380284 74.9999973025475 0
100 80.0000037195031 95.0000207161061 0
101 5.08849492681667 66.6125151764864 0
102 5.08471205183371 20.4452262037264 0
103 20.0423686824001 5.03263167448925 0
104 94.9999991992283 84.9999996388222 0
105 94.9999934425809 10.0000088423393 0
106 9.85114110343758 95.4453440029435 0
107 34.9708657629239 95.2523095647579 0
108 54.9942356307732 95.0554454017938 0
109 19.9151451926392 95.3631331204363 0
110 50.0030491732919 5.00399026614391 0
111 94.9998520513829 39.9999404278486 0
112 89.9999999545789 94.9999998041341 0
113 4.90672204016255 95.4731631847436 0
114 5.04119201877754 76.86978997122 0
115 5.05021116121998 10.1954887792503 0
116 15.0474943371445 5.0468922972612 0
117 10.0420842687733 5.06820894971185 0
118 5.09613534406571 61.4880971930658 0
119 5.10036488356038 56.3643131240657 0
120 5.10628970192534 40.9982171703 0
121 89.9999951196417 5.00001633273904 0
122 94.9999997501585 89.9999998691658 0
123 94.9999209020433 49.9999623450559 0
124 44.9763612830907 95.1580948366722 0
125 70.000396173339 5.00038870513603 0
126 94.9999751294509 15.000009461558 0
127 94.9999362082515 19.9999946607937 0
128 24.9600497664989 95.3311772774152 0
129 94.9999999390742 94.9999999452992 0
130 59.9981146328813 95.025376419498 0
131 94.9999977631439 5.00000567147124 0
132 94.9999850794112 64.9999910934614 0
133 45.0052968926901 5.00640542092891 0
134 30.0243405992682 5.01869792678394 0
135 5.02433147886357 5.09573625022307 0
136 4.86032348171715 90.9639621763914 0
137 4.8960210561889 86.4753341844776 0
138 50.0079051212853 10.0097339597031 0
139 89.9998900032849 59.9999462259883 0
140 10.2045030042147 46.114297446999 0
141 35.0399473730015 10.0332380432021 0
142 10.162833929528 66.6113286557224 0
143 20.095548389603 10.0871324402726 0
144 89.9999122220513 15.0000567451281 0
145 9.83386776462902 86.4461131756109 0
146 19.8434304457893 90.8174726806637 0
147 54.9911222678024 90.2061985873536 0
148 5.06831328727213 71.7415066493259 0
149 10.1795720929583 61.483053447344 0
150 5.06805961756771 15.3131840733131 0
151 5.09336563979793 25.5899259778307 0
152 5.10295596018308 51.2413750320806 0
153 5.10397792631294 35.8707364191554 0
154 94.9999968369328 79.9999982894934 0
155 89.9999665880192 10.0000428436335 0
156 14.8684941729579 95.4192665100641 0
157 84.9999862658176 5.00004773091472 0
158 94.9998733094733 44.9999514064946 0
159 39.9721596424042 95.2194397739719 0
160 29.9750092484948 95.3091034995178 0
161 75.0001196421594 5.00021644496316 0
162 94.9998274247851 34.9999293530807 0
163 85.0000012428281 95.0000036982115 0
164 65.0009959178011 5.00084765277625 0
165 94.99987912777 24.9999656415525 0
166 94.9999449310295 54.9999695600818 0
167 74.9999991127396 95.0003205481718 0
168 64.9994996341983 95.0092733451579 0
169 49.9868414733414 95.1227270688768 0
170 94.9999898035215 69.9999945684802 0
171 89.9999967506703 84.9999962818815 0
172 89.9999992536568 89.9999988498908 0
173 55.0024523057908 5.00273048968347 0
174 40.010250848104 5.01004990403803 0
175 25.035139600454 5.02713522878582 0
176 10.0725249146161 76.8726153485975 0
177 10.082120257477 10.1514801171053 0
178 9.80205345431133 90.928984944181 0
179 89.9995099247745 34.9998922523942 0
180 65.0024180801569 10.002178630365 0
181 10.1744258878532 25.5556709985773 0
182 15.2156884113895 66.6317884819024 0
183 69.999951665452 90.0058820595652 0
184 10.1184127781939 15.2604100350789 0
185 10.1987644038986 51.2321635632847 0
186 79.9999533030668 10.0002729865213 0
187 89.999951963834 69.9999775578634 0
188 89.9999879015176 79.9999896190744 0
189 45.0144773119553 10.0152435658929 0
190 30.0609898890048 10.0503287548459 0
191 34.9660815200167 90.679358579884 0
192 24.9228016807691 90.7877636408979 0
193 39.9669120098514 90.6139258974175 0
194 44.9717936573815 90.5260986816002 0
195 14.8054889105025 90.8835942718895 0
196 10.1229868223024 71.7455912860209 0
197 10.1898380389882 56.3558185497407 0
198 10.2003840304085 35.8661762199745 0
199 10.2034753303217 40.9948534685762 0
200 84.9999999814124 84.9999870319511 0
201 89.999725699693 49.9999082299253 0
202 89.9997954964762 20.0000460782735 0
203 75.0000361759432 90.0012401614434 0
204 59.9969911117529 90.0944248440642 0
205 89.9999198258835 64.9999647645135 0
206 49.9822815404439 90.3982411780187 0
207 85.0000030918174 90.0000009734327 0
208 89.9996490093084 24.9999968880933 0
209 84.9999325631286 10.0001287538959 0
210 89.9998025190558 54.9999170027019 0
211 89.9995303844247 39.9999071182044 0
212 75.0002621106076 10.0006006675279 0
213 55.0055227905659 10.0064176989037 0
214 40.0263085205772 10.0233262361217 0
215 25.0820782045142 10.0712263175035 0
216 15.0909167136852 76.88895372101 0
217 15.0961864758026 10.1188396176892 0
218 14.8558612746614 86.4138344735835 0
219 55.0098924950718 15.0116854688751 0
220 15.2944626761121 40.9818206174212 0
221 84.9996230905462 59.9998583442312 0
222 84.9989009097063 35.0001305648572 0
223 35.0786798956831 15.0620902957687 0
224 70.0002551329792 85.012657157391 0
225 20.154874798129 15.1805749503652 0
226 15.2687309914481 56.3539359857273 0
227 84.999980378202 79.9999651736165 0
228 84.9995612717214 20.0002663190462 0
229 15.1599213802648 71.7686533690123 0
230 10.1476257153976 20.3995108990162 0
231 15.243928974428 61.4937641222261 0
232 10.1883384443742 30.7166056556741 0
233 15.2844485419023 51.2262440719086 0
234 89.9999685780808 74.9999803481894 0
235 80.0000424228998 85.0001630453328 0
236 54.9941131621789 85.5159192392778 0
237 64.9992162970075 90.0334650826441 0
238 29.9592698870643 90.7610872284904 0
239 80.0000226728747 90.000242048389 0
240 84.9997247957355 64.9998944202969 0
241 84.9992578754931 49.9998704618595 0
242 89.9995876634385 44.9999156570288 0
243 84.9997864495041 15.0002203512631 0
244 89.9995217500127 29.9999569703949 0
245 79.999787769895 15.0005582758387 0
246 70.0011519263633 10.0012512166387 0
247 45.0304396337889 15.026108355865 0
248 60.0040705693328 10.0041232008319 0
249 30.1114861749595 15.1013437582068 0
250 20.0961359564166 76.9125955267359 0
251 15.1449508984845 15.22296473576 0
252 19.8955424067165 86.3842809607213 0
253 34.9791667758753 86.2943029097126 0
254 39.9789770031855 86.2444124165244 0
255 44.982155475638 86.1640128880215 0
256 79.9994105224539 59.9987270787231 0
257 45.0391000621541 76.7753883603873 0
258 20.2926334155267 61.5299962219503 0
259 35.1304941841568 20.0918231657289 0
260 30.079176664426 76.9594213189025 0
261 79.9994476957567 20.0008558363765 0
262 15.2326384248689 25.5206044411486 0
263 20.1779023585711 71.8056404905568 0
264 15.2823244734595 35.8440256619364 0
265 59.998190214918 85.2084384402531 0
266 80.000038109201 80.0000714792213 0
267 84.9998240611925 69.9999183991772 0
268 84.9989032619757 40.0000980813346 0
269 84.9990120509566 30.0002517771441 0
270 65.0042166389293 15.0044731673133 0
271 20.2118232961756 20.3125031224516 0
272 20.3328869954791 56.3848426628993 0
273 15.2936851860908 46.1022204386768 0
274 75.0001562377532 85.0029004105112 0
275 64.9998305799311 85.0699969657373 0
276 84.9999185622907 74.9999491404973 0
277 84.9994264619587 54.9997690530014 0
278 75.0003546841618 15.0012781224991 0
279 84.999015444635 45.0000010788296 0
280 84.999267672701 25.0003324322683 0
281 50.0176264895522 15.0180907535483 0
282 35.0646886935986 76.9623520359924 0
283 25.1384440317293 15.1476483433597 0
284 60.0069804533741 15.0077601644331 0
285 15.1879641094681 20.3618290946782 0
286 40.0538190647998 15.0405561298874 0
287 25.0911681516487 76.9351847819455 0
288 24.9415427990179 86.3684731638534 0
289 29.9701491724097 86.3497393615037 0
290 49.9888826456012 85.9401372422812 0
291 55.0179856038932 20.0198610286949 0
292 79.9979903028818 45.0003122416217 0
293 79.9979907066221 35.0011991061527 0
294 60.0034263337324 80.3012825797681 0
295 20.3525987745022 35.7725389641974 0
296 25.3167894448416 61.6165553415167 0
297 20.2634741095966 25.4621311754218 0
298 30.1661947122151 71.8994237842105 0
299 79.9989427631692 54.9989036829727 0
300 75.0001279432053 20.0021100204423 0
301 50.032921045598 76.3771692589075 0
302 30.1730630583389 20.1629797707984 0
303 20.2394985698545 66.6787891954139 0
304 15.2573821187324 30.6811073468858 0
305 20.3719400867112 51.2384495747802 0
306 20.3825194510657 40.9209950994354 0
307 75.0003381863011 80.0028818899329 0
308 79.9999713228216 74.9999921028999 0
309 79.9997349066916 64.998665096718 0
310 70.0011605334562 80.0224292548727 0
311 70.0019082285157 15.0026244596036 0
312 55.0044777127255 80.800393817958 0
313 79.9990017637806 25.0011930230428 0
314 50.0325220611371 20.0290238859291 0
315 40.0528946244333 76.9168017427469 0
316 65.0059330600896 20.0079015780574 0
317 40.0911837039525 20.0566780058339 0
318 25.1764522729016 71.8493984194404 0
319 25.2009223368089 20.2457781435648 0
320 75.0019912764657 59.9932916234912 0
321 55.0327015734796 25.0375636848021 0
322 45.1021677567445 71.6341021720032 0
323 25.3959800764211 35.6180048124135 0
324 35.1911047117271 25.1245973309685 0
325 74.9995538767647 25.0030745775235 0
326 35.1434354227282 71.914554949778 0
327 25.2645751984549 25.3526465761653 0
328 20.3055041715227 30.6033422860971 0
329 30.2430269384006 66.8235458236595 0
330 25.3806441054161 56.4727751851254 0
331 20.3927644364178 46.0798038111987 0
332 79.9999089235275 69.9991562819489 0
333 75.0007916196809 75.0021984894124 0
334 79.9978086727505 40.0009559296123 0
335 65.0026886463133 80.1059016817906 0
336 79.9983772362733 49.9995266348003 0
337 79.9984870861953 30.0014186997943 0
338 60.0116855131185 20.0139142501652 0
339 55.0271707558725 75.807516871652 0
340 70.0023322597613 20.0045591024421 0
341 25.2469675518341 66.7432400918161 0
342 45.0583054082808 20.0405107162034 0
343 74.9970803399963 45.0019608674218 0
344 75.0017941503098 69.9977996949745 0
345 75.0004646944192 54.9953815886067 0
346 35.2187316150144 66.8668366652144 0
347 25.3236980050352 30.4639987617816 0
348 30.3095862207506 61.7319949412945 0
349 25.4496699517581 51.285500375467 0
350 25.4568729194593 40.8099295594754 0
351 74.9975332442938 35.0041956216177 0
352 75.0030098138783 64.9936702454059 0
353 60.0194713537083 75.3445223900697 0
354 70.0039544743215 75.0226144093576 0
355 50.0575617156203 25.0539578563477 0
356 40.138094960919 25.0840568612838 0
357 74.9986980750056 30.0040260245796 0
358 60.0185075933323 25.0249374392529 0
359 70.0022516886072 25.0069565771089 0
360 50.0870610216442 71.2085120008159 0
361 40.1222779351043 71.8393682296156 0
362 30.2356432404991 25.2254700605806 0
363 70.0147995982063 59.9927516122038 0
364 55.0571594370113 30.0883258618004 0
365 35.2875003780744 61.7996267067188 0
366 30.3827913948889 35.436132844598 0
367 45.1742400284008 66.5674349730498 0
368 35.2519780255569 30.1907689449194 0
369 30.3870748331157 56.5872897834471 0
370 25.476790397656 46.0489934049117 0
371 74.9971749118409 40.0039729612538 0
372 65.0111037304497 75.11674925143 0
373 74.9985031282837 49.9990008811157 0
374 70.0097176445557 70.0117693406289 0
375 70.0008769288583 35.0134397043691 0
376 70.0020511499765 30.0104893491021 0
377 55.0690324222544 70.7101451097091 0
378 65.0086833818522 25.0146251277225 0
379 45.0936058185478 25.0696359080327 0
380 40.1950883026309 66.7828134603621 0
381 30.3009193247857 30.3184113061583 0
382 35.351627670373 56.6527763850813 0
383 35.3149952959231 35.3388953465273 0
384 70.0042314212418 50.0102307766575 0
385 65.0257716335618 70.0901377883155 0
386 65.0155954485985 35.0422894044011 0
387 30.4557764884633 51.3382318741824 0
388 30.4507594132184 40.6954009605276 0
389 50.0916752095888 30.1261637677145 0
390 70.0159563293451 65.0018562137091 0
391 50.1471144953042 66.1372235331067 0
392 65.0126522290014 30.026817786379 0
393 70.011152101235 55.0040300627378 0
394 70.0024116882171 45.0170060402717 0
395 70.0025959246405 40.0192153467913 0
396 60.0480680972059 70.3225543940472 0
397 60.0319947498553 30.0557661013365 0
398 45.1335161972153 30.1450587207864 0
399 40.1881001018845 30.1661616895917 0
400 45.2307117170217 61.5185573656401 0
401 40.2575244845561 61.7167057066639 0
402 55.0899599186173 35.1973803025034 0
403 65.0291181476323 50.0813618308827 0
404 35.3833830270803 51.3661982620978 0
405 50.1894100935886 61.0952847349597 0
406 35.3594386235944 40.6245023397956 0
407 65.0221682071651 40.0674885904657 0
408 30.4635219687566 46.0184223481168 0
409 65.0445846997807 60.055900722055 0
410 65.0413321749321 65.0776304021229 0
411 60.0494087722738 35.1124517736925 0
412 50.131141200626 35.283601776984 0
413 45.2571834686373 56.4194366582986 0
414 40.2941993435293 56.5742225326508 0
415 60.0756127309555 65.2871065983099 0
416 45.1717405824039 35.3196316381132 0
417 40.2301626799682 35.3375082231015 0
418 55.1102495738827 65.6678088544148 0
419 55.1205626422165 40.3465426619054 0
420 50.2071941014743 56.0398676223825 0
421 60.0864663136008 60.2816661582129 0
422 65.0392486992963 55.0898185941882 0
423 50.1651254469727 40.5081493020288 0
424 40.2562342042629 40.6226882962267 0
425 65.0279828616613 45.0880378608175 0
426 45.2467866647405 51.2042832810052 0
427 60.0654923544605 40.1847295085617 0
428 55.1343296566288 60.6471708039848 0
429 40.2937451114268 51.3050805676927 0
430 35.3692137437225 45.9931729411898 0
431 50.2047918578022 50.9158254906667 0
432 60.0815543479292 50.2753639274188 0
433 55.1377073867386 45.4813914540056 0
434 45.2216085072701 45.8947214811187 0
435 55.1432913245786 55.6228646672037 0
436 60.0866997218923 55.3053439981136 0
437 40.2781883850468 45.9586715875509 0
438 60.076889426315 45.251633809174 0
439 45.2042712673187 40.589551903224 0
440 55.1446355275484 50.5810605678551 0
441 50.1867936244492 45.7137067082177 0
442 0 100 0
443 0 82 0
444 0 0 0
445 -100 100 0
446 -100 0 0
447 -50 82 0
448 0 95.5 0
449 0 91 0
450 0 86.5 0
451 0 76.875 0
452 0 71.75 0
453 0 66.625 0
454 0 61.5 0
455 0 56.375 0
456 0 51.25 0
457 0 46.125 0
458 0 41 0
459 0 35.875 0
460 0 30.75 0
461 0 25.625 0
462 0 20.5 0
463 0 15.375 0
464 0 10.25 0
465 0 5.125 0
466 -100 95 0
467 -100 90 0
468 -100 85 0
469 -100 80 0
470 -100 75 0
471 -100 70 0
472 -100 65 0
473 -100 60 0
474 -100 55 0
475 -100 50 0
476 -100 45 0
477 -100 40 0
478 -100 35 0
479 -100 30 0
480 -100 25 0
481 -100 20 0
482 -100 15 0
483 -100 10 0
484 -100 5 0
485 -95 0 0
486 -90 0 0
487 -85 0 0
488 -80 0 0
489 -75 0 0
490 -70 0 0
491 -65 0 0
492 -60 0 0
493 -55 0 0
494 -50 0 0
495 -45 0 0
496 -40 0 0
497 -35 0 0
498 -30 0 0
499 -25 0 0
500 -20 0 0
501 -15 0 0
502 -10 0 0
503 -5 0 0
504 -5 100 0
505 -10 100 0
506 -15 100 0
507 -20 100 0
508 -25 100 0
509 -30 100 0
510 -35 100 0
511 -40 100 0
512 -45 100 0
513 -50 100 0
514 -55 100 0
515 -60 100 0
516 -65 100 0
517 -70 100 0
518 -75 100 0
519 -80 100 0
520 -85 100 0
521 -90 100 0
522 -95 100 0
523 -5 82 0
524 -10 82 0
525 -15 82 0
526 -20 82 0
527 -25 82 0
528 -30 82 0
529 -35 82 0
530 -40 82 0
531 -45 82 0
532 -40.0074311093378 5.00449845135653 0
533 -94.9999724360621 45.000015468922 0
534 -94.9999940581162 75.0000020287975 0
535 -65.0001874240049 5.0000882551086 0
536 -5.10506886810061 41.0033565516032 0
537 -94.9999880661499 30.000000099219 0
538 -5.09699122569748 56.3788062726504 0
539 -5.08655119790023 20.4689377155246 0
540 -84.9999824568114 95.000004906061 0
541 -10.0435408657254 5.06905643550164 0
542 -20.0485368204833 5.03233124503855 0
543 -94.9999975082922 20.0000001384402 0
544 -69.9930389609229 95.0010000602751 0
545 -75.0000277744552 5.00001576686516 0
546 -85.0000003177395 5.000001636357 0
547 -34.806817662608 95.2194603556207 0
548 -59.9454096197636 95.0245897389084 0
549 -19.5890313495009 95.3627536465272 0
550 -49.8866093717252 95.125428665719 0
551 -5.08061644990941 66.6441391554137 0
552 -94.9999996779063 90.0000000031573 0
553 -94.9999853587791 65.0000073817854 0
554 -9.68451464834968 95.4493389061254 0
555 -4.75618182439767 90.976735586833 0
556 -5.06111107210008 71.7703127221149 0
557 -5.0331382398839 76.8880112898641 0
558 -5.09575578925792 25.6119430314737 0
559 -5.04883662280694 10.2031380953707 0
560 -5.10382327608239 46.1260115065938 0
561 -5.10039052781098 30.7486592118939 0
562 -94.9999998078398 10.0000001604474 0
563 -94.9999762807637 55.0000136155969 0
564 -94.9999998902644 95.0000000025527 0
565 -45.0028640299176 5.00201002885349 0
566 -30.0272532026458 5.01433101255137 0
567 -94.9999740793881 40.0000110995417 0
568 -50.0010183363271 5.00082173244126 0
569 -29.7136263559561 95.2461681051269 0
570 -44.8776172319636 95.1998135032863 0
571 -79.9997256850286 95.0000656820485 0
572 -94.9999989350894 85.0000001695159 0
573 -94.9999999516999 5.00000006803637 0
574 -55.0005247269056 5.00038347037089 0
575 -5.02413893164846 5.09757013598265 0
576 -4.8466662824438 95.4796960302103 0
577 -4.83115069980852 86.4890523942335 0
578 -45.0080767200012 10.0035350984223 0
579 -89.9998624120741 40.0000903938799 0
580 -10.1999818313893 41.0056453475905 0
581 -10.1545319917166 20.4276047033058 0
582 -10.0835990261464 10.1604529502064 0
583 -10.1467890219777 66.6620878519007 0
584 -84.999931818845 90.000018639024 0
585 -9.69165730839996 86.4696281396152 0
586 -34.7223340027565 90.6300211383391 0
587 -49.8009310932272 90.4004890700651 0
588 -10.0607421204321 76.9044795626533 0
589 -5.06636914633728 15.3295695071936 0
590 -5.08864062974727 61.5107556231723 0
591 -10.1734922136382 25.5875595592621 0
592 -5.10054490788199 51.2500967706775 0
593 -5.102327401841 35.8782730611764 0
594 -94.9999926405898 24.99999990504 0
595 -94.9999669523743 50.0000200696215 0
596 -89.999993374228 95.0000017828329 0
597 -89.9999987693175 10.0000013627954 0
598 -39.8649365162389 95.2468993347245 0
599 -54.9117943923935 95.0774265489263 0
600 -74.9980434494263 95.0003520001814 0
601 -50.0040235845963 10.0019362465753 0
602 -94.9999782026804 60.000011788694 0
603 -89.9999997667728 5.00000061673624 0
604 -60.000369375536 5.0002138750836 0
605 -14.6321100022887 95.4217729988669 0
606 -89.9999882453292 90.0000026768578 0
607 -94.9999880192174 70.0000051091856 0
608 -70.0001029849467 5.00004780561511 0
609 -94.999996465267 80.0000008612235 0
610 -94.9999740339796 35.0000086447548 0
611 -94.9999989303808 15.0000004029994 0
612 -80.0000072720435 5.00000666429016 0
613 -24.6492038859309 95.3110464924747 0
614 -64.9746104979418 95.008601140792 0
615 -35.0170018707921 5.00885361664157 0
616 -25.0404206042389 5.02286206358937 0
617 -15.0500114342936 5.05098386028095 0
618 -9.60156740005613 90.9476701722562 0
619 -45.02041489757 15.0022735218689 0
620 -89.999887936306 60.0000688207989 0
621 -65.0009017188843 10.0004449633133 0
622 -15.1951038722501 20.368521866018 0
623 -69.9831871938362 90.0066012086374 0
624 -75.0001212682803 10.0000775791287 0
625 -89.9999842178004 20.0000060617078 0
626 -30.0681140050514 10.0334405874223 0
627 -10.1950118457819 35.8802402895418 0
628 -10.1937038791104 51.2448994324116 0
629 -89.9999799281223 80.0000005298864 0
630 -84.9999991418473 10.0000071152548 0
631 -55.0025171176324 10.001318205169 0
632 -40.0217570195836 10.0079190281173 0
633 -14.629842548965 86.4359791401697 0
634 -29.6149921876012 90.6762967890981 0
635 -24.528921017838 90.758957429461 0
636 -39.7984590128988 90.646226754897 0
637 -10.1177479950981 15.281412155032 0
638 -10.1675433097317 61.5168421919477 0
639 -10.1850664490338 30.7396801405748 0
640 -10.1975778458234 46.123919621478 0
641 -10.1083423226486 71.7922279604655 0
642 -89.9999304446529 30.0000255073914 0
643 -89.9998824215375 35.0000618590004 0
644 -89.9998513938733 55.0001089839081 0
645 -44.8159844117239 90.583995698231 0
646 -84.9998903529302 85.0000304990167 0
647 -54.8353438308613 90.2350943474564 0
648 -89.999935626024 70.0000174926079 0
649 -79.9991227642922 90.0002880215044 0
650 -89.9998293166895 45.0001323753718 0
651 -89.9999744196077 85.0000048995594 0
652 -64.9482002368134 90.0310345238557 0
653 -89.9999936024891 15.000003932305 0
654 -20.1046418711059 10.0842437087139 0
655 -15.0772631046262 76.9202818901917 0
656 -15.1005758596109 10.1245260644949 0
657 -14.5206690973243 90.9023415463598 0
658 -84.9994966336136 40.0004198758221 0
659 -84.9995708001238 60.0003133934833 0
660 -15.2724300718365 51.2352939280334 0
661 -69.9758960285005 85.019327944771 0
662 -15.2283146486836 61.5185438431632 0
663 -15.1412880007924 71.8129135781659 0
664 -84.9998183168507 80.0000462845701 0
665 -79.9986578307671 85.0006325669661 0
666 -40.044032162359 15.0059810296102 0
667 -20.1599373698985 15.169148495102 0
668 -19.6475890995984 86.3902849572292 0
669 -10.1800519128804 56.3759903811251 0
670 -15.2504151947684 30.7125155054923 0
671 -15.2666335343383 35.8640315672136 0
672 -15.2222501701489 25.5362943481641 0
673 -15.2785014777923 46.1184420162091 0
674 -84.9996010277913 35.0002965514802 0
675 -89.9998925798572 65.0000525284518 0
676 -74.994278621013 90.0026690541014 0
677 -59.8939075175361 90.1087541524256 0
678 -89.9998180782827 50.0001457148489 0
679 -60.0017497465742 10.0009028107728 0
680 -89.9999429005508 75.0000097959785 0
681 -89.999957022178 25.0000159575567 0
682 -70.0004527506614 10.0002341304004 0
683 -50.012298780882 15.0028438626857 0
684 -80.0000267178618 10.0000296537482 0
685 -84.999948835872 20.0000373078404 0
686 -84.9999858273129 15.0000205322398 0
687 -25.0908305514395 10.0594128000213 0
688 -15.1467026012829 15.2322006073938 0
689 -35.0447056734098 10.0177018723029 0
690 -20.0788045388657 76.9322644732399 0
691 -19.536344136596 90.8464810812198 0
692 -34.8126896859317 86.2659101427513 0
693 -29.7540123735264 86.2973653470554 0
694 -54.8303082936576 85.5342576812083 0
695 -49.844677531139 85.9507708415164 0
696 -44.8698032456093 86.2004304824196 0
697 -20.3265399119968 51.2342252148722 0
698 -45.0431088815894 19.9973204680819 0
699 -79.9989070712992 40.0013304899151 0
700 -39.995600910003 76.9223013247911 0
701 -65.0028701433759 15.0014226934192 0
702 -20.2853241053386 30.6325732557653 0
703 -54.8987598870765 80.8093346738262 0
704 -20.2062627666131 20.2940507981377 0
705 -20.1494766777874 71.8308733443209 0
706 -79.9983619080493 80.0009891951305 0
707 -64.9355262709109 85.0777799816257 0
708 -84.9997389055642 30.0001760781418 0
709 -15.2498876966232 56.3697411022684 0
710 -15.1871989114265 66.6722351514468 0
711 -15.2751620968126 40.9962857458704 0
712 -84.9996742873419 70.0001347873231 0
713 -84.9995986743514 65.0002265493696 0
714 -84.9996364352257 75.0001502939082 0
715 -79.9999834129332 20.0001563470905 0
716 -84.9994149648975 50.0005416516196 0
717 -74.9919791794108 85.0054061222012 0
718 -59.8869000794478 85.2430445851624 0
719 -55.008270648078 15.0031193050931 0
720 -84.9998627604228 25.0001005383325 0
721 -75.0003271169828 15.0002495269252 0
722 -80.0000562340298 15.0000958435992 0
723 -84.9993840949959 45.000589139892 0
724 -84.9994354006905 55.0004964388198 0
725 -49.9717477343565 76.4100410314262 0
726 -35.011186173318 76.9567582291458 0
727 -35.0807250606503 15.0242322875262 0
728 -30.0388592471306 76.9547317762406 0
729 -25.0637311617823 76.94078626855 0
730 -30.1190679419075 15.0623738888015 0
731 -25.1454307474717 15.1171478373219 0
732 -24.7186828254516 86.3519590293848 0
733 -39.8673077415853 86.2735304582134 0
734 -54.9484817577094 75.8418846841659 0
735 -79.9988045846286 65.0009642831438 0
736 -35.0412474193453 71.8957319453716 0
737 -35.1204358381505 20.032093873415 0
738 -75.0006294451882 20.0005929461803 0
739 -79.9984969195716 50.0015449151091 0
740 -69.9760278533147 80.0348993573077 0
741 -25.1970652092444 20.2042806203042 0
742 -20.2442894613807 25.4504162858555 0
743 -20.294726551952 56.3765401707365 0
744 -20.2065932686098 66.6884577152178 0
745 -20.312722391323 35.7996024492586 0
746 -20.3343564165676 46.1030472078216 0
747 -79.9983320251842 75.0012162312563 0
748 -79.9996311559315 30.0006212206026 0
749 -59.9124790637032 80.3507932297425 0
750 -70.0013512799579 15.0007478187361 0
751 -60.0056157067752 15.0025227955068 0
752 -79.9999167300765 25.0003972913656 0
753 -74.9912986582129 80.0094245950556 0
754 -79.9987044664209 60.0011225930749 0
755 -79.9993131438927 35.0010587388412 0
756 -79.9985785873815 45.0016257694066 0
757 -50.0285429796933 20.0050772391123 0
758 -44.9904395877365 76.7769336892908 0
759 -40.0757956684866 20.0000436172096 0
760 -25.126684759156 71.8490602066516 0
761 -74.9970876726682 50.0041981911262 0
762 -45.0703329318224 25.0037140492807 0
763 -25.3456359238786 51.2618298174039 0
764 -74.9967970271966 65.0054164599822 0
765 -25.2882697596557 30.4788175791726 0
766 -74.999195211013 40.0039525199413 0
767 -65.0071019455877 20.0036215761892 0
768 -74.9930787948269 75.009607272291 0
769 -59.9478327488084 75.389115958792 0
770 -25.1885360777042 66.719578941639 0
771 -25.2405935642882 25.3220711270621 0
772 -20.2507373255799 61.5320692826953 0
773 -20.326841906431 40.9523961795426 0
774 -79.9982307279997 70.0018913416337 0
775 -75.0010844476696 30.0021147385922 0
776 -75.0011579553321 25.0013225104168 0
777 -70.0031408353308 20.0018532526468 0
778 -79.9985057941358 55.0014896458887 0
779 -64.9473392317215 80.1383018847125 0
780 -49.9824440611175 71.2506503247992 0
781 -40.013021007838 71.8374615801291 0
782 -55.0200776855867 20.0075837420447 0
783 -40.1091367257113 25.0023985799033 0
784 -30.0862798302629 71.8730043758998 0
785 -30.1647361350418 20.1111532772839 0
786 -45.09600771679 30.0672878573785 0
787 -35.0878957702532 66.8151690100468 0
788 -25.2440379948851 61.5776604699387 0
789 -74.9970051671446 60.0046134986814 0
790 -69.9814975200693 75.0451248319337 0
791 -30.2096666681716 25.1777371404605 0
792 -25.2962013612358 56.4318750088632 0
793 -25.3239558186283 35.6544836665825 0
794 -25.3604238724266 46.0704413396685 0
795 -55.0355543685074 25.0228036028063 0
796 -70.0053729382618 25.0038023012808 0
797 -74.9979494469721 45.0045502908071 0
798 -74.9947376270752 70.010066276714 0
799 -75.0007995095818 35.0033808933724 0
800 -74.9968910253444 55.0045323294517 0
801 -54.9738944164385 70.7690088209476 0
802 -50.050284376201 25.0246206923637 0
803 -64.9640111365554 75.1585197250117 0
804 -60.0136332453091 20.0066770710756 0
805 -44.9963265249424 71.6285667354961 0
806 -35.1603519626971 25.063620326938 0
807 -30.1416725754575 66.7712867476915 0
808 -69.994854594514 50.0193132847912 0
809 -30.345882177333 51.3098491147865 0
810 -69.9929268504353 65.0310671245649 0
811 -70.0017068937553 40.0147953185728 0
812 -59.9727650219068 70.3830198081707 0
813 -60.0241066438717 25.0168630011634 0
814 -30.2551662157462 30.2923257155275 0
815 -40.1483900239027 30.074038425475 0
816 -30.2028399549453 61.6627623528942 0
817 -25.3479770118269 40.8528774735452 0
818 -70.007024643335 30.0072401158783 0
819 -69.9877348269364 70.0471996724792 0
820 -69.9943488590056 60.0267376572457 0
821 -49.9963061272938 66.1734244837663 0
822 -40.0445955959994 66.7619561026874 0
823 -65.0136206910169 25.0096925830713 0
824 -55.0422962384743 30.068702568655 0
825 -50.0610996227716 30.0870429375548 0
826 -45.1172770759732 35.2495795328182 0
827 -60.0276270447594 30.0436949320098 0
828 -30.3558461254128 40.732451199332 0
829 -30.3736478719039 46.0324953066012 0
830 -30.3042548315608 35.4785107632569 0
831 -70.0060559512774 35.0122204268726 0
832 -54.9881803517469 65.7158275448733 0
833 -69.9943934368629 55.0252563370525 0
834 -69.9973460843435 45.0193276552991 0
835 -64.9787583004781 70.1595230543616 0
836 -64.9880946781296 65.134444367446 0
837 -65.0161102502624 30.0218211847602 0
838 -45.0157104765828 66.5432202871187 0
839 -55.0141474496725 35.1633134110907 0
840 -30.273968366716 56.5169172821043 0
841 -35.1501321584504 61.7223130247842 0
842 -35.206048157747 30.1594589987294 0
843 -35.3728086133857 46.0064443801505 0
844 -35.2371707777322 56.5808632219984 0
845 -50.0037208395088 61.1162666886428 0
846 -64.9846903822634 50.0885813770426 0
847 -64.9992730040092 40.0562547408946 0
848 -40.2070585441386 35.2792033983982 0
849 -50.0423202553389 35.2331902708007 0
850 -64.9906969952704 60.1160917850769 0
851 -65.0105942415349 35.0404419199023 0
852 -59.9854846701129 65.3647263766263 0
853 -45.0407457026537 61.4798317586368 0
854 -40.0965379520244 61.6637037689385 0
855 -60.0094243414856 35.0941991538688 0
856 -35.270855378034 35.3641970438183 0
857 -49.9920989585972 56.0382921487226 0
858 -54.9578586079957 40.299873529619 0
859 -59.9867050930327 60.332928488694 0
860 -40.1701873983651 56.5415069537147 0
861 -35.3342189991534 40.6610974684587 0
862 -35.320764961119 51.3258755428018 0
863 -45.1286773862723 40.5512622371001 0
864 -64.9867845880259 55.1173962380001 0
865 -64.9861786187734 45.0811100308211 0
866 -54.987951290548 60.6831075904411 0
867 -59.9785616133835 40.1592481558512 0
868 -54.9655589600987 55.6348167586602 0
869 -40.2417524467833 51.2992220438668 0
870 -50.0025925356478 40.4529107823388 0
871 -40.2617229276559 40.6139588729456 0
872 -59.9552865212941 50.2731283383961 0
873 -59.9527993518404 45.2308561282002 0
874 -59.9725535853062 55.3276862342525 0
875 -45.0697217369597 56.3444635490516 0
876 -49.9704325860413 50.8998183416593 0
877 -54.9295342643771 45.4485559664046 0
878 -45.122471856974 45.8771965769207 0
879 -54.944016486526 50.5665738888726 0
880 -45.1022354839432 51.1308766485754 0
881 -40.2679412613601 45.9493301866521 0
882 -49.9899447846368 45.6732014875323 0
$EndNodes
$Elements
800
1 3 2 1 1 441 434 439 423
2 3 2 1 1 297 327 347 328
3 3 2 1 1 348 329 341 296
4 3 2 1 1 113 136 178 106
5 3 2 1 1 86 85 289 288
6 3 2 1 1 195 218 252 146
7 3 2 1 1 195 178 145 218
8 3 2 1 1 262 181 230 285
9 3 2 1 1 229 216 176 196
10 3 2 1 1 414 401 365 382
11 3 2 1 1 177 115 135 117
12 3 2 1 1 341 303 258 296
13 3 2 1 1 176 114 148 196
14 3 2 1 1 297 328 304 262
15 3 2 1 1 272 258 231 226
16 3 2 1 1 90 137 28 3
17 3 2 1 1 90 114 176 89
18 3 2 1 1 303 341 318 263
19 3 2 1 1 264 198 232 304
20 3 2 1 1 434 437 424 439
21 3 2 1 1 263 229 182 303
22 3 2 1 1 3 29 114 90
23 3 2 1 1 271 285 251 225
24 3 2 1 1 439 424 417 416
25 3 2 1 1 398 399 356 379
26 3 2 1 1 230 181 151 102
27 3 2 1 1 185 197 119 152
28 3 2 1 1 229 263 250 216
29 3 2 1 1 348 365 346 329
30 3 2 1 1 149 142 101 118
31 3 2 1 1 296 330 369 348
32 3 2 1 1 302 319 283 249
33 3 2 1 1 43 4 44 135
34 3 2 1 1 387 369 330 349
35 3 2 1 1 258 272 330 296
36 3 2 1 1 251 184 177 217
37 3 2 1 1 381 366 323 347
38 3 2 1 1 400 367 380 401
39 3 2 1 1 272 305 349 330
40 3 2 1 1 342 317 286 247
41 3 2 1 1 305 272 226 233
42 3 2 1 1 412 416 398 389
43 3 2 1 1 370 349 305 331
44 3 2 1 1 225 251 217 143
45 3 2 1 1 414 429 426 413
46 3 2 1 1 349 370 408 387
47 3 2 1 1 148 101 142 196
48 3 2 1 1 148 114 29 30
49 3 2 1 1 226 231 149 197
50 3 2 1 1 198 153 96 232
51 3 2 1 1 215 190 249 283
52 3 2 1 1 427 419 402 411
53 3 2 1 1 361 380 367 322
54 3 2 1 1 408 430 404 387
55 3 2 1 1 437 429 404 430
56 3 2 1 1 419 423 412 402
57 3 2 1 1 153 198 199 120
58 3 2 1 1 196 142 182 229
59 3 2 1 1 101 148 30 31
60 3 2 1 1 233 273 331 305
61 3 2 1 1 259 302 249 223
62 3 2 1 1 197 185 233 226
63 3 2 1 1 273 233 185 140
64 3 2 1 1 287 318 298 260
65 3 2 1 1 175 134 190 215
66 3 2 1 1 389 398 379 355
67 3 2 1 1 118 119 197 149
68 3 2 1 1 152 93 140 185
69 3 2 1 1 402 412 389 364
70 3 2 1 1 118 101 31 32
71 3 2 1 1 291 338 358 321
72 3 2 1 1 304 328 295 264
73 3 2 1 1 93 120 199 140
74 3 2 1 1 306 220 264 295
75 3 2 1 1 119 118 32 33
76 3 2 1 1 151 181 232 96
77 3 2 1 1 273 220 306 331
78 3 2 1 1 295 323 350 306
79 3 2 1 1 181 262 304 232
80 3 2 1 1 150 102 40 41
81 3 2 1 1 115 150 41 42
82 3 2 1 1 135 115 42 43
83 3 2 1 1 199 220 273 140
84 3 2 1 1 198 264 220 199
85 3 2 1 1 152 119 33 34
86 3 2 1 1 142 149 231 182
87 3 2 1 1 189 214 174 133
88 3 2 1 1 350 323 366 388
89 3 2 1 1 231 258 303 182
90 3 2 1 1 89 176 216 88
91 3 2 1 1 102 151 39 40
92 3 2 1 1 323 295 328 347
93 3 2 1 1 93 152 34 35
94 3 2 1 1 117 116 217 177
95 3 2 1 1 151 96 38 39
96 3 2 1 1 96 153 37 38
97 3 2 1 1 153 120 36 37
98 3 2 1 1 120 93 35 36
99 3 2 1 1 190 141 223 249
100 3 2 1 1 420 413 426 431
101 3 2 1 1 421 428 435 436
102 3 2 1 1 284 219 213 248
103 3 2 1 1 251 285 230 184
104 3 2 1 1 331 306 350 370
105 3 2 1 1 415 396 377 418
106 3 2 1 1 88 216 250 87
107 3 2 1 1 370 350 388 408
108 3 2 1 1 364 321 358 397
109 3 2 1 1 353 396 385 372
110 3 2 1 1 335 372 354 310
111 3 2 1 1 213 138 110 173
112 3 2 1 1 284 270 316 338
113 3 2 1 1 248 213 173 91
114 3 2 1 1 270 284 248 180
115 3 2 1 1 417 399 398 416
116 3 2 1 1 422 436 432 403
117 3 2 1 1 425 403 432 438
118 3 2 1 1 371 343 394 395
119 3 2 1 1 87 250 287 86
120 3 2 1 1 441 423 419 433
121 3 2 1 1 407 425 438 427
122 3 2 1 1 376 375 386 392
123 3 2 1 1 400 413 420 405
124 3 2 1 1 337 293 351 357
125 3 2 1 1 334 371 351 293
126 3 2 1 1 223 286 317 259
127 3 2 1 1 339 377 396 353
128 3 2 1 1 360 391 418 377
129 3 2 1 1 333 307 310 354
130 3 2 1 1 357 351 375 376
131 3 2 1 1 279 241 336 292
132 3 2 1 1 268 279 292 334
133 3 2 1 1 352 344 374 390
134 3 2 1 1 94 174 214 141
135 3 2 1 1 268 211 242 279
136 3 2 1 1 86 287 260 85
137 3 2 1 1 294 353 372 335
138 3 2 1 1 154 104 171 188
139 3 2 1 1 23 156 109 22
140 3 2 1 1 195 146 109 156
141 3 2 1 1 159 107 191 193
142 3 2 1 1 78 79 104 154
143 3 2 1 1 113 106 24 25
144 3 2 1 1 60 157 97 59
145 3 2 1 1 122 80 81 129
146 3 2 1 1 18 19 107 159
147 3 2 1 1 121 61 62 131
148 3 2 1 1 72 73 166 123
149 3 2 1 1 99 154 188 234
150 3 2 1 1 124 17 18 159
151 3 2 1 1 107 19 20 160
152 3 2 1 1 91 55 56 164
153 3 2 1 1 56 57 125 164
154 3 2 1 1 162 95 68 69
155 3 2 1 1 92 166 73 74
156 3 2 1 1 122 129 112 172
157 3 2 1 1 92 132 205 139
158 3 2 1 1 107 160 238 191
159 3 2 1 1 128 192 238 160
160 3 2 1 1 129 7 8 112
161 3 2 1 1 1 7 129 81
162 3 2 1 1 8 9 163 112
163 3 2 1 1 21 128 160 20
164 3 2 1 1 64 65 126 105
165 3 2 1 1 65 66 127 126
166 3 2 1 1 68 95 165 67
167 3 2 1 1 66 67 165 127
168 3 2 1 1 158 111 70 71
169 3 2 1 1 69 70 111 162
170 3 2 1 1 71 72 123 158
171 3 2 1 1 75 76 170 132
172 3 2 1 1 84 83 254 253
173 3 2 1 1 84 253 289 85
174 3 2 1 1 234 187 170 99
175 3 2 1 1 155 105 126 144
176 3 2 1 1 121 131 105 155
177 3 2 1 1 192 128 109 146
178 3 2 1 1 172 112 163 207
179 3 2 1 1 187 205 132 170
180 3 2 1 1 171 172 207 200
181 3 2 1 1 191 253 254 193
182 3 2 1 1 15 108 130 14
183 3 2 1 1 17 124 169 16
184 3 2 1 1 128 21 22 109
185 3 2 1 1 125 57 58 161
186 3 2 1 1 159 193 194 124
187 3 2 1 1 124 194 206 169
188 3 2 1 1 254 255 194 193
189 3 2 1 1 194 255 290 206
190 3 2 1 1 255 82 6 290
191 3 2 1 1 163 9 10 100
192 3 2 1 1 12 98 167 11
193 3 2 1 1 10 11 167 100
194 3 2 1 1 12 13 168 98
195 3 2 1 1 14 130 168 13
196 3 2 1 1 15 16 169 108
197 3 2 1 1 161 58 59 97
198 3 2 1 1 5 63 131 62
199 3 2 1 1 64 105 131 63
200 3 2 1 1 170 76 77 99
201 3 2 1 1 154 99 77 78
202 3 2 1 1 172 171 104 122
203 3 2 1 1 206 147 108 169
204 3 2 1 1 108 147 204 130
205 3 2 1 1 98 183 203 167
206 3 2 1 1 98 168 237 183
207 3 2 1 1 130 204 237 168
208 3 2 1 1 132 92 74 75
209 3 2 1 1 157 60 61 121
210 3 2 1 1 122 104 79 80
211 3 2 1 1 82 255 254 83
212 3 2 1 1 288 289 238 192
213 3 2 1 1 24 106 156 23
214 3 2 1 1 253 191 238 289
215 3 2 1 1 167 203 239 100
216 3 2 1 1 207 163 100 239
217 3 2 1 1 147 206 290 236
218 3 2 1 1 274 235 239 203
219 3 2 1 1 200 207 239 235
220 3 2 1 1 171 200 227 188
221 3 2 1 1 275 237 204 265
222 3 2 1 1 147 236 265 204
223 3 2 1 1 314 281 219 291
224 3 2 1 1 200 235 266 227
225 3 2 1 1 274 203 183 224
226 3 2 1 1 275 224 183 237
227 3 2 1 1 267 187 234 276
228 3 2 1 1 188 227 276 234
229 3 2 1 1 245 278 212 186
230 3 2 1 1 267 240 205 187
231 3 2 1 1 121 155 209 157
232 3 2 1 1 139 205 240 221
233 3 2 1 1 92 139 210 166
234 3 2 1 1 126 127 202 144
235 3 2 1 1 277 210 139 221
236 3 2 1 1 211 268 222 179
237 3 2 1 1 155 144 243 209
238 3 2 1 1 332 309 240 267
239 3 2 1 1 309 332 344 352
240 3 2 1 1 123 201 242 158
241 3 2 1 1 202 208 280 228
242 3 2 1 1 228 243 144 202
243 3 2 1 1 157 209 186 97
244 3 2 1 1 240 309 256 221
245 3 2 1 1 266 308 276 227
246 3 2 1 1 244 208 165 95
247 3 2 1 1 269 280 208 244
248 3 2 1 1 332 267 276 308
249 3 2 1 1 326 346 380 361
250 3 2 1 1 166 210 201 123
251 3 2 1 1 221 256 299 277
252 3 2 1 1 245 186 209 243
253 3 2 1 1 210 277 241 201
254 3 2 1 1 269 244 179 222
255 3 2 1 1 337 313 280 269
256 3 2 1 1 127 165 208 202
257 3 2 1 1 313 261 228 280
258 3 2 1 1 111 158 242 211
259 3 2 1 1 279 242 201 241
260 3 2 1 1 245 261 300 278
261 3 2 1 1 244 95 162 179
262 3 2 1 1 161 212 246 125
263 3 2 1 1 336 241 277 299
264 3 2 1 1 235 274 307 266
265 3 2 1 1 308 333 344 332
266 3 2 1 1 97 186 212 161
267 3 2 1 1 311 246 212 278
268 3 2 1 1 301 360 377 339
269 3 2 1 1 333 308 266 307
270 3 2 1 1 337 269 222 293
271 3 2 1 1 299 345 373 336
272 3 2 1 1 222 268 334 293
273 3 2 1 1 111 211 179 162
274 3 2 1 1 261 313 325 300
275 3 2 1 1 357 325 313 337
276 3 2 1 1 335 310 224 275
277 3 2 1 1 270 311 340 316
278 3 2 1 1 164 125 246 180
279 3 2 1 1 352 320 256 309
280 3 2 1 1 278 300 340 311
281 3 2 1 1 325 357 376 359
282 3 2 1 1 371 334 292 343
283 3 2 1 1 246 311 270 180
284 3 2 1 1 291 219 284 338
285 3 2 1 1 373 345 393 384
286 3 2 1 1 345 299 256 320
287 3 2 1 1 261 245 243 228
288 3 2 1 1 274 224 310 307
289 3 2 1 1 414 413 400 401
290 3 2 1 1 164 180 248 91
291 3 2 1 1 393 422 403 384
292 3 2 1 1 386 407 427 411
293 3 2 1 1 359 340 300 325
294 3 2 1 1 409 421 436 422
295 3 2 1 1 394 425 407 395
296 3 2 1 1 374 385 410 390
297 3 2 1 1 392 378 359 376
298 3 2 1 1 336 373 343 292
299 3 2 1 1 335 275 265 294
300 3 2 1 1 402 364 397 411
301 3 2 1 1 393 345 320 363
302 3 2 1 1 55 91 173 54
303 3 2 1 1 282 326 361 315
304 3 2 1 1 374 344 333 354
305 3 2 1 1 395 375 351 371
306 3 2 1 1 290 6 312 236
307 3 2 1 1 358 338 316 378
308 3 2 1 1 407 386 375 395
309 3 2 1 1 320 352 390 363
310 3 2 1 1 343 373 384 394
311 3 2 1 1 378 316 340 359
312 3 2 1 1 390 410 409 363
313 3 2 1 1 103 175 215 143
314 3 2 1 1 422 393 363 409
315 3 2 1 1 412 423 439 416
316 3 2 1 1 425 394 384 403
317 3 2 1 1 138 189 133 110
318 3 2 1 1 282 260 298 326
319 3 2 1 1 397 358 378 392
320 3 2 1 1 353 294 312 339
321 3 2 1 1 321 364 389 355
322 3 2 1 1 213 219 281 138
323 3 2 1 1 134 94 141 190
324 3 2 1 1 265 236 312 294
325 3 2 1 1 291 321 355 314
326 3 2 1 1 399 368 324 356
327 3 2 1 1 391 360 322 367
328 3 2 1 1 281 314 342 247
329 3 2 1 1 415 410 385 396
330 3 2 1 1 379 342 314 355
331 3 2 1 1 102 150 184 230
332 3 2 1 1 360 301 257 322
333 3 2 1 1 356 324 259 317
334 3 2 1 1 53 54 173 110
335 3 2 1 1 174 51 52 133
336 3 2 1 1 433 419 427 438
337 3 2 1 1 417 383 368 399
338 3 2 1 1 405 391 367 400
339 3 2 1 1 116 103 143 217
340 3 2 1 1 362 302 259 324
341 3 2 1 1 361 322 257 315
342 3 2 1 1 6 301 339 312
343 3 2 1 1 214 286 223 141
344 3 2 1 1 301 6 82 257
345 3 2 1 1 315 257 82 83
346 3 2 1 1 174 94 50 51
347 3 2 1 1 52 53 110 133
348 3 2 1 1 138 281 247 189
349 3 2 1 1 401 380 346 365
350 3 2 1 1 315 83 84 282
351 3 2 1 1 356 317 342 379
352 3 2 1 1 175 48 49 134
353 3 2 1 1 437 430 406 424
354 3 2 1 1 385 374 354 372
355 3 2 1 1 143 215 283 225
356 3 2 1 1 286 214 189 247
357 3 2 1 1 327 297 271 319
358 3 2 1 1 327 319 302 362
359 3 2 1 1 411 397 392 386
360 3 2 1 1 319 271 225 283
361 3 2 1 1 362 324 368 381
362 3 2 1 1 150 115 177 184
363 3 2 1 1 175 103 47 48
364 3 2 1 1 346 326 298 329
365 3 2 1 1 421 415 418 428
366 3 2 1 1 85 260 282 84
367 3 2 1 1 50 94 134 49
368 3 2 1 1 408 388 406 430
369 3 2 1 1 440 432 436 435
370 3 2 1 1 318 341 329 298
371 3 2 1 1 318 287 250 263
372 3 2 1 1 440 435 420 431
373 3 2 1 1 135 44 45 117
374 3 2 1 1 383 417 424 406
375 3 2 1 1 391 405 428 418
376 3 2 1 1 441 431 426 434
377 3 2 1 1 47 103 116 46
378 3 2 1 1 421 409 410 415
379 3 2 1 1 437 434 426 429
380 3 2 1 1 382 404 429 414
381 3 2 1 1 405 420 435 428
382 3 2 1 1 46 116 117 45
383 3 2 1 1 262 285 271 297
384 3 2 1 1 88 218 145 89
385 3 2 1 1 387 404 382 369
386 3 2 1 1 87 252 218 88
387 3 2 1 1 192 146 252 288
388 3 2 1 1 89 145 137 90
389 3 2 1 1 86 288 252 87
390 3 2 1 1 440 433 438 432
391 3 2 1 1 388 366 383 406
392 3 2 1 1 25 2 26 113
393 3 2 1 1 137 136 27 28
394 3 2 1 1 431 441 433 440
395 3 2 1 1 145 178 136 137
396 3 2 1 1 369 382 365 348
397 3 2 1 1 347 327 362 381
398 3 2 1 1 366 381 368 383
399 3 2 1 1 26 27 136 113
400 3 2 1 1 156 106 178 195
401 3 2 2 2 861 843 881 871
402 3 2 2 2 771 765 814 791
403 3 2 2 2 693 732 635 634
404 3 2 2 2 691 635 732 668
405 3 2 2 2 877 882 876 879
406 3 2 2 2 622 688 637 581
407 3 2 2 2 788 792 743 772
408 3 2 2 2 743 709 662 772
409 3 2 2 2 451 443 523 557
410 3 2 2 2 524 525 655 588
411 3 2 2 2 704 622 672 742
412 3 2 2 2 709 669 638 662
413 3 2 2 2 554 618 555 576
414 3 2 2 2 710 662 638 583
415 3 2 2 2 504 576 448 442
416 3 2 2 2 523 443 450 577
417 3 2 2 2 876 880 875 857
418 3 2 2 2 882 878 880 876
419 3 2 2 2 671 670 639 627
420 3 2 2 2 583 638 590 551
421 3 2 2 2 559 582 541 575
422 3 2 2 2 861 828 829 843
423 3 2 2 2 655 663 641 588
424 3 2 2 2 588 557 523 524
425 3 2 2 2 640 560 592 628
426 3 2 2 2 637 589 539 581
427 3 2 2 2 785 730 731 741
428 3 2 2 2 622 704 667 688
429 3 2 2 2 627 639 561 593
430 3 2 2 2 783 759 737 806
431 3 2 2 2 465 575 503 444
432 3 2 2 2 771 742 702 765
433 3 2 2 2 793 765 702 745
434 3 2 2 2 730 626 687 731
435 3 2 2 2 759 666 727 737
436 3 2 2 2 591 581 539 558
437 3 2 2 2 656 688 667 654
438 3 2 2 2 744 705 760 770
439 3 2 2 2 670 671 745 702
440 3 2 2 2 773 745 671 711
441 3 2 2 2 745 773 817 793
442 3 2 2 2 786 762 783 815
443 3 2 2 2 875 860 854 853
444 3 2 2 2 663 710 583 641
445 3 2 2 2 857 875 853 845
446 3 2 2 2 853 854 822 838
447 3 2 2 2 737 727 730 785
448 3 2 2 2 557 556 452 451
449 3 2 2 2 669 628 592 538
450 3 2 2 2 851 837 827 855
451 3 2 2 2 762 698 759 783
452 3 2 2 2 589 559 464 463
453 3 2 2 2 575 465 464 559
454 3 2 2 2 839 824 825 849
455 3 2 2 2 551 556 641 583
456 3 2 2 2 828 817 794 829
457 3 2 2 2 845 853 838 821
458 3 2 2 2 628 660 673 640
459 3 2 2 2 711 671 627 580
460 3 2 2 2 617 656 654 542
461 3 2 2 2 615 689 632 532
462 3 2 2 2 590 638 669 538
463 3 2 2 2 672 591 639 670
464 3 2 2 2 770 788 772 744
465 3 2 2 2 556 551 453 452
466 3 2 2 2 539 589 463 462
467 3 2 2 2 729 728 784 760
468 3 2 2 2 536 560 640 580
469 3 2 2 2 558 561 639 591
470 3 2 2 2 784 736 787 807
471 3 2 2 2 824 795 802 825
472 3 2 2 2 593 536 580 627
473 3 2 2 2 817 828 830 793
474 3 2 2 2 551 590 454 453
475 3 2 2 2 640 673 711 580
476 3 2 2 2 763 697 743 792
477 3 2 2 2 874 868 866 859
478 3 2 2 2 669 709 660 628
479 3 2 2 2 581 591 672 622
480 3 2 2 2 558 539 462 461
481 3 2 2 2 697 763 794 746
482 3 2 2 2 792 840 809 763
483 3 2 2 2 590 538 455 454
484 3 2 2 2 561 558 461 460
485 3 2 2 2 660 697 746 673
486 3 2 2 2 862 843 829 809
487 3 2 2 2 794 763 809 829
488 3 2 2 2 697 660 709 743
489 3 2 2 2 538 592 456 455
490 3 2 2 2 593 561 460 459
491 3 2 2 2 672 670 702 742
492 3 2 2 2 690 729 760 705
493 3 2 2 2 592 560 457 456
494 3 2 2 2 536 458 457 560
495 3 2 2 2 536 593 459 458
496 3 2 2 2 765 793 830 814
497 3 2 2 2 865 873 872 846
498 3 2 2 2 827 813 795 824
499 3 2 2 2 855 827 824 839
500 3 2 2 2 711 673 746 773
501 3 2 2 2 773 746 794 817
502 3 2 2 2 744 710 663 705
503 3 2 2 2 833 864 850 820
504 3 2 2 2 864 846 872 874
505 3 2 2 2 526 527 729 690
506 3 2 2 2 751 804 767 701
507 3 2 2 2 797 834 808 761
508 3 2 2 2 779 740 790 803
509 3 2 2 2 719 782 804 751
510 3 2 2 2 782 795 813 804
511 3 2 2 2 862 869 881 843
512 3 2 2 2 557 588 641 556
513 3 2 2 2 756 797 761 739
514 3 2 2 2 826 863 870 849
515 3 2 2 2 683 757 782 719
516 3 2 2 2 871 863 826 848
517 3 2 2 2 800 833 820 789
518 3 2 2 2 870 858 839 849
519 3 2 2 2 710 744 772 662
520 3 2 2 2 778 800 789 754
521 3 2 2 2 781 700 758 805
522 3 2 2 2 762 786 825 802
523 3 2 2 2 749 779 803 769
524 3 2 2 2 595 678 644 563
525 3 2 2 2 540 571 519 520
526 3 2 2 2 636 645 696 733
527 3 2 2 2 529 692 733 530
528 3 2 2 2 540 520 521 596
529 3 2 2 2 571 540 584 649
530 3 2 2 2 568 565 578 601
531 3 2 2 2 597 630 686 653
532 3 2 2 2 445 466 564 522
533 3 2 2 2 480 481 543 594
534 3 2 2 2 481 482 611 543
535 3 2 2 2 562 483 484 573
536 3 2 2 2 615 532 496 497
537 3 2 2 2 514 599 550 513
538 3 2 2 2 732 693 528 527
539 3 2 2 2 713 712 648 675
540 3 2 2 2 495 565 568 494
541 3 2 2 2 565 495 496 532
542 3 2 2 2 516 614 548 515
543 3 2 2 2 567 579 650 533
544 3 2 2 2 533 650 678 595
545 3 2 2 2 544 600 676 623
546 3 2 2 2 712 714 680 648
547 3 2 2 2 602 620 675 553
548 3 2 2 2 601 631 574 568
549 3 2 2 2 470 471 607 534
550 3 2 2 2 477 567 533 476
551 3 2 2 2 475 476 533 595
552 3 2 2 2 489 490 608 545
553 3 2 2 2 569 509 510 547
554 3 2 2 2 510 511 598 547
555 3 2 2 2 679 621 535 604
556 3 2 2 2 644 620 602 563
557 3 2 2 2 547 586 634 569
558 3 2 2 2 600 571 649 676
559 3 2 2 2 562 573 603 597
560 3 2 2 2 567 610 643 579
561 3 2 2 2 674 658 579 643
562 3 2 2 2 659 713 675 620
563 3 2 2 2 586 692 693 634
564 3 2 2 2 696 695 447 531
565 3 2 2 2 695 694 703 447
566 3 2 2 2 595 563 474 475
567 3 2 2 2 473 474 563 602
568 3 2 2 2 482 483 562 611
569 3 2 2 2 446 485 573 484
570 3 2 2 2 485 486 603 573
571 3 2 2 2 568 574 493 494
572 3 2 2 2 507 549 605 506
573 3 2 2 2 507 508 613 549
574 3 2 2 2 509 569 613 508
575 3 2 2 2 515 548 599 514
576 3 2 2 2 544 517 518 600
577 3 2 2 2 516 517 544 614
578 3 2 2 2 519 571 600 518
579 3 2 2 2 521 522 564 596
580 3 2 2 2 642 643 610 537
581 3 2 2 2 597 603 546 630
582 3 2 2 2 598 636 586 547
583 3 2 2 2 614 652 677 548
584 3 2 2 2 691 549 613 635
585 3 2 2 2 599 647 587 550
586 3 2 2 2 564 552 606 596
587 3 2 2 2 675 648 607 553
588 3 2 2 2 636 598 570 645
589 3 2 2 2 552 572 651 606
590 3 2 2 2 631 679 604 574
591 3 2 2 2 540 596 606 584
592 3 2 2 2 562 597 653 611
593 3 2 2 2 548 677 647 599
594 3 2 2 2 584 606 651 646
595 3 2 2 2 535 621 682 608
596 3 2 2 2 569 634 635 613
597 3 2 2 2 544 623 652 614
598 3 2 2 2 652 623 661 707
599 3 2 2 2 676 717 661 623
600 3 2 2 2 646 651 629 664
601 3 2 2 2 664 629 680 714
602 3 2 2 2 643 642 708 674
603 3 2 2 2 584 646 665 649
604 3 2 2 2 677 718 694 647
605 3 2 2 2 717 676 649 665
606 3 2 2 2 718 677 652 707
607 3 2 2 2 646 664 706 665
608 3 2 2 2 642 681 720 708
609 3 2 2 2 564 466 467 552
610 3 2 2 2 572 552 467 468
611 3 2 2 2 607 471 472 553
612 3 2 2 2 602 553 472 473
613 3 2 2 2 478 479 537 610
614 3 2 2 2 574 604 492 493
615 3 2 2 2 605 554 505 506
616 3 2 2 2 598 511 512 570
617 3 2 2 2 680 534 607 648
618 3 2 2 2 696 645 587 695
619 3 2 2 2 647 694 695 587
620 3 2 2 2 537 594 681 642
621 3 2 2 2 470 534 609 469
622 3 2 2 2 468 469 609 572
623 3 2 2 2 594 537 479 480
624 3 2 2 2 603 486 487 546
625 3 2 2 2 489 545 612 488
626 3 2 2 2 487 488 612 546
627 3 2 2 2 608 490 491 535
628 3 2 2 2 604 535 491 492
629 3 2 2 2 576 504 505 554
630 3 2 2 2 512 513 550 570
631 3 2 2 2 733 696 531 530
632 3 2 2 2 680 629 609 534
633 3 2 2 2 611 653 625 543
634 3 2 2 2 587 645 570 550
635 3 2 2 2 651 572 609 629
636 3 2 2 2 692 586 636 733
637 3 2 2 2 543 625 681 594
638 3 2 2 2 578 619 683 601
639 3 2 2 2 545 608 682 624
640 3 2 2 2 545 624 684 612
641 3 2 2 2 546 612 684 630
642 3 2 2 2 686 685 625 653
643 3 2 2 2 720 681 625 685
644 3 2 2 2 610 567 477 478
645 3 2 2 2 529 528 693 692
646 3 2 2 2 686 630 684 722
647 3 2 2 2 750 721 624 682
648 3 2 2 2 601 683 719 631
649 3 2 2 2 686 722 715 685
650 3 2 2 2 624 721 722 684
651 3 2 2 2 631 719 751 679
652 3 2 2 2 722 721 738 715
653 3 2 2 2 703 749 769 734
654 3 2 2 2 750 682 621 701
655 3 2 2 2 579 658 723 650
656 3 2 2 2 620 644 724 659
657 3 2 2 2 621 679 751 701
658 3 2 2 2 774 747 714 712
659 3 2 2 2 664 714 747 706
660 3 2 2 2 685 715 752 720
661 3 2 2 2 721 750 777 738
662 3 2 2 2 665 706 753 717
663 3 2 2 2 566 626 689 615
664 3 2 2 2 800 778 739 761
665 3 2 2 2 715 738 776 752
666 3 2 2 2 796 818 775 776
667 3 2 2 2 755 674 708 748
668 3 2 2 2 798 768 747 774
669 3 2 2 2 768 753 706 747
670 3 2 2 2 796 776 738 777
671 3 2 2 2 789 764 735 754
672 3 2 2 2 678 650 723 716
673 3 2 2 2 678 716 724 644
674 3 2 2 2 774 712 713 735
675 3 2 2 2 778 754 659 724
676 3 2 2 2 708 720 752 748
677 3 2 2 2 756 739 716 723
678 3 2 2 2 778 724 716 739
679 3 2 2 2 845 866 868 857
680 3 2 2 2 701 767 777 750
681 3 2 2 2 753 768 790 740
682 3 2 2 2 661 717 753 740
683 3 2 2 2 760 784 807 770
684 3 2 2 2 661 740 779 707
685 3 2 2 2 713 659 754 735
686 3 2 2 2 752 776 775 748
687 3 2 2 2 735 764 798 774
688 3 2 2 2 755 799 766 699
689 3 2 2 2 810 836 835 819
690 3 2 2 2 820 850 836 810
691 3 2 2 2 768 798 819 790
692 3 2 2 2 755 699 658 674
693 3 2 2 2 799 755 748 775
694 3 2 2 2 858 867 855 839
695 3 2 2 2 756 723 658 699
696 3 2 2 2 833 800 761 808
697 3 2 2 2 847 867 873 865
698 3 2 2 2 703 694 718 749
699 3 2 2 2 655 690 705 663
700 3 2 2 2 797 756 699 766
701 3 2 2 2 879 876 857 868
702 3 2 2 2 831 799 775 818
703 3 2 2 2 818 837 851 831
704 3 2 2 2 718 707 779 749
705 3 2 2 2 834 797 766 811
706 3 2 2 2 835 803 790 819
707 3 2 2 2 789 820 810 764
708 3 2 2 2 850 864 874 859
709 3 2 2 2 527 528 728 729
710 3 2 2 2 812 769 803 835
711 3 2 2 2 882 870 863 878
712 3 2 2 2 799 831 811 766
713 3 2 2 2 798 764 810 819
714 3 2 2 2 823 796 777 767
715 3 2 2 2 872 873 877 879
716 3 2 2 2 859 852 836 850
717 3 2 2 2 802 795 782 757
718 3 2 2 2 864 833 808 846
719 3 2 2 2 837 818 796 823
720 3 2 2 2 582 637 688 656
721 3 2 2 2 865 846 808 834
722 3 2 2 2 700 781 736 726
723 3 2 2 2 866 845 821 832
724 3 2 2 2 734 725 447 703
725 3 2 2 2 865 834 811 847
726 3 2 2 2 831 851 847 811
727 3 2 2 2 813 823 767 804
728 3 2 2 2 812 852 832 801
729 3 2 2 2 786 815 848 826
730 3 2 2 2 849 825 786 826
731 3 2 2 2 447 725 758 531
732 3 2 2 2 812 801 734 769
733 3 2 2 2 541 582 656 617
734 3 2 2 2 730 727 689 626
735 3 2 2 2 687 626 566 616
736 3 2 2 2 525 526 690 655
737 3 2 2 2 866 832 852 859
738 3 2 2 2 854 841 787 822
739 3 2 2 2 827 837 823 813
740 3 2 2 2 780 801 832 821
741 3 2 2 2 532 632 578 565
742 3 2 2 2 666 619 578 632
743 3 2 2 2 877 873 867 858
744 3 2 2 2 822 781 805 838
745 3 2 2 2 822 787 736 781
746 3 2 2 2 759 698 619 666
747 3 2 2 2 860 844 841 854
748 3 2 2 2 757 683 619 698
749 3 2 2 2 802 757 698 762
750 3 2 2 2 882 877 858 870
751 3 2 2 2 869 862 844 860
752 3 2 2 2 785 741 771 791
753 3 2 2 2 805 758 725 780
754 3 2 2 2 725 734 801 780
755 3 2 2 2 838 805 780 821
756 3 2 2 2 788 816 840 792
757 3 2 2 2 530 531 758 700
758 3 2 2 2 742 771 741 704
759 3 2 2 2 616 566 498 499
760 3 2 2 2 615 497 498 566
761 3 2 2 2 881 878 863 871
762 3 2 2 2 784 728 726 736
763 3 2 2 2 687 616 542 654
764 3 2 2 2 816 807 787 841
765 3 2 2 2 791 806 737 785
766 3 2 2 2 816 788 770 807
767 3 2 2 2 727 666 632 689
768 3 2 2 2 806 842 815 783
769 3 2 2 2 529 530 700 726
770 3 2 2 2 741 731 667 704
771 3 2 2 2 617 542 500 501
772 3 2 2 2 575 541 502 503
773 3 2 2 2 616 499 500 542
774 3 2 2 2 617 501 502 541
775 3 2 2 2 867 847 851 855
776 3 2 2 2 528 529 726 728
777 3 2 2 2 731 687 654 667
778 3 2 2 2 589 637 582 559
779 3 2 2 2 852 812 835 836
780 3 2 2 2 871 848 856 861
781 3 2 2 2 828 861 856 830
782 3 2 2 2 525 524 585 633
783 3 2 2 2 526 525 633 668
784 3 2 2 2 527 526 668 732
785 3 2 2 2 524 523 577 585
786 3 2 2 2 848 815 842 856
787 3 2 2 2 879 868 874 872
788 3 2 2 2 830 856 842 814
789 3 2 2 2 668 633 657 691
790 3 2 2 2 549 691 657 605
791 3 2 2 2 576 555 449 448
792 3 2 2 2 577 450 449 555
793 3 2 2 2 869 860 875 880
794 3 2 2 2 585 577 555 618
795 3 2 2 2 809 840 844 862
796 3 2 2 2 840 816 841 844
797 3 2 2 2 814 842 806 791
798 3 2 2 2 605 657 618 554
799 3 2 2 2 881 869 880 878
800 3 2 2 2 633 585 618 657
$EndElements
