$MeshFormat
2.2 0 8
$EndMeshFormat
$Nodes
882
1 100 100 0
2 0 100 0
3 0 20 0
4 0 0 0
5 100 0 0
6 50 20 0
7 95 100 0
8 90 100 0
9 85 100 0
10 80 100 0
11 75 100 0
12 70 100 0
13 65 100 0
14 60 100 0
15 55 100 0
16 50 100 0
17 45 100 0
18 40 100 0
19 35 100 0
20 30 100 0
21 25 100 0
22 20 100 0
23 15 100 0
24 10 100 0
25 5 100 0
26 0 95 0
27 0 90 0
28 0 85 0
29 0 80 0
30 0 75 0
31 0 70 0
32 0 65 0
33 0 60 0
34 0 55 0
35 0 50 0
36 0 45 0
37 0 40 0
38 0 35 0
39 0 30 0
40 0 25 0
41 0 15 0
42 0 10 0
43 0 5 0
44 5 0 0
45 10 0 0
46 15 0 0
47 20 0 0
48 25 0 0
49 30 0 0
50 35 0 0
51 40 0 0
52 45 0 0
53 50 0 0
54 55 0 0
55 60 0 0
56 65 0 0
57 70 0 0
58 75 0 0
59 80 0 0
60 85 0 0
61 90 0 0
62 95 0 0
63 100 5 0
64 100 10 0
65 100 15 0
66 100 20 0
67 100 25 0
68 100 30 0
69 100 35 0
70 100 40 0
71 100 45 0
72 100 50 0
73 100 55 0
74 100 60 0
75 100 65 0
76 100 70 0
77 100 75 0
78 100 80 0
79 100 85 0
80 100 90 0
81 100 95 0
82 45 20 0
83 40 20 0
84 35 20 0
85 30 20 0
86 25 20 0
87 20 20 0
88 15 20 0
89 10 20 0
90 5 20 0
91 40 95 0
92 95 30 0
93 95 55 0
94 65 95 0
95 5 60 0
96 95 70 0
97 80 5 0
98 20 95 0
99 5 45 0
100 65 5 0
101 95 80 0
102 15 5 0
103 30 5 0
104 50 5 0
105 75 95 0
106 95 10 0
107 5 90 0
108 5 80 0
109 85 95 0
110 5 35 0
111 95 40 0
112 90 95 0
113 5 30 0
114 5 15 0
115 5 5 0
116 10 95 0
117 90 5 0
118 95 90 0
119 45 95 0
120 40 5 0
121 30 95 0
122 50 95 0
123 95 15 0
124 95 20 0
125 95 45 0
126 95 60 0
127 5 95 0
128 5 75 0
129 5 70 0
130 5 55 0
131 5 25 0
132 25 5 0
133 75 5 0
134 95 5 0
135 95 95 0
136 55 95 0
137 60 5 0
138 40 90 0
139 90 60 0
140 90 40 0
141 10 60 0
142 80 10 0
143 10 80 0
144 10 90 0
145 90 10 0
146 30 10 0
147 50 90 0
148 65 10 0
149 10 35 0
150 10 15 0
151 95 75 0
152 90 15 0
153 95 50 0
154 15 95 0
155 85 5 0
156 85 90 0
157 90 90 0
158 25 95 0
159 35 5 0
160 95 35 0
161 60 95 0
162 35 95 0
163 20 5 0
164 45 5 0
165 55 5 0
166 95 25 0
167 70 95 0
168 10 5 0
169 80 95 0
170 5 85 0
171 5 65 0
172 5 50 0
173 5 40 0
174 5 10 0
175 70 5 0
176 95 65 0
177 95 85 0
178 10 30 0
179 10 25 0
180 10 75 0
181 65 90 0
182 15 80 0
183 90 70 0
184 25 90 0
185 20 10 0
186 90 25 0
187 90 35 0
188 35 10 0
189 15 35 0
190 10 50 0
191 75 10 0
192 55 10 0
193 50 10 0
194 45 10 0
195 10 70 0
196 90 65 0
197 10 85 0
198 90 45 0
199 35 90 0
200 85 85 0
201 90 20 0
202 45 90 0
203 15 30 0
204 15 15 0
205 15 25 0
206 90 55 0
207 15 90 0
208 90 80 0
209 15 10 0
210 25 10 0
211 55 90 0
212 85 10 0
213 70 90 0
214 60 10 0
215 10 45 0
216 80 90 0
217 10 55 0
218 10 40 0
219 10 10 0
220 10 65 0
221 70 10 0
222 90 85 0
223 55 85 0
224 15 60 0
225 85 40 0
226 85 60 0
227 35 85 0
228 70 15 0
229 85 20 0
230 65 85 0
231 80 85 0
232 20 35 0
233 15 50 0
234 85 65 0
235 30 90 0
236 15 85 0
237 90 30 0
238 85 15 0
239 20 15 0
240 45 85 0
241 60 90 0
242 60 15 0
243 35 15 0
244 20 25 0
245 30 15 0
246 80 15 0
247 90 50 0
248 15 75 0
249 85 80 0
250 40 10 0
251 90 75 0
252 15 70 0
253 55 15 0
254 50 15 0
255 20 90 0
256 75 90 0
257 15 45 0
258 15 40 0
259 50 25 0
260 80 60 0
261 20 80 0
262 40 25 0
263 80 80 0
264 30 85 0
265 80 20 0
266 85 70 0
267 85 25 0
268 85 35 0
269 85 45 0
270 85 55 0
271 60 85 0
272 40 85 0
273 25 15 0
274 20 85 0
275 75 15 0
276 15 55 0
277 20 75 0
278 65 15 0
279 70 85 0
280 75 85 0
281 55 20 0
282 45 15 0
283 40 15 0
284 35 25 0
285 30 25 0
286 25 25 0
287 20 30 0
288 20 45 0
289 20 40 0
290 50 85 0
291 15 65 0
292 85 75 0
293 40.0000541590464 80.000036312641 0
294 80 45 0
295 55 25 0
296 55.0002648136401 80.0001865868443 0
297 65.0000346376928 80.0000322581199 0
298 40 30 0
299 25 40 0
300 80 55 0
301 80 25 0
302 75 80 0
303 70 20 0
304 20 65 0
305 25 80 0
306 75 20 0
307 25 85 0
308 20 60 0
309 65 20 0
310 60 20 0
311 35 30 0
312 45 25 0
313 80 40 0
314 35.0000067698808 80.0000045390801 0
315 30 30 0
316 25 35 0
317 20 50 0
318 80 65 0
319 85 30 0
320 45.0002369458281 80.0001588678046 0
321 85 50 0
322 20 70 0
323 25 30 0
324 80 70 0
325 80 75 0
326 75.0000579899231 45.00009405823 0
327 40.0042114151409 75.0002439654712 0
328 65 25 0
329 25.0000093085149 69.9999967603095 0
330 75.0003366423207 60.0004824841158 0
331 80 30 0
332 40 35 0
333 55 30 0
334 80.0000036243702 50.0000058786394 0
335 80 35 0
336 30.0000008462351 80.000000567385 0
337 75 25 0
338 70.0000043297116 80.000004032265 0
339 75.0000328429355 70.0000347761916 0
340 50.0004147537353 80.0002792139979 0
341 25.0000012164541 74.9999996305003 0
342 60 25 0
343 25.0000428883212 64.9999806384497 0
344 60.0001608658486 80.0001281845013 0
345 75.0000043759739 75.0000045990405 0
346 45 30 0
347 20 55 0
348 25 45 0
349 35 35 0
350 30 40 0
351 30 35 0
352 30.0000584324248 44.9999570256918 0
353 55.0138928898144 75.0078525503683 0
354 75.0005703036082 55.0008431793478 0
355 30.000150198975 74.9999482709002 0
356 45 35 0
357 75.0003877642464 50.0005726546032 0
358 35.0015713888226 74.9998523459253 0
359 75.0000010298361 30.0000029358389 0
360 70.0029617492731 70.0033414732515 0
361 65.0033961665495 75.0029504109466 0
362 30.0007885028961 69.9996793619066 0
363 25.000010192519 49.9999930685605 0
364 60 30 0
365 70.0012459302197 75.0012352587181 0
366 50 30 0
367 25.0000674255015 59.9999651401543 0
368 75.0000297310769 40.0000687236921 0
369 45.0111792784785 75.002693141478 0
370 40.0001446806966 40.0006188614121 0
371 35.0000487211167 40.0001673677878 0
372 70.0000000643648 25.0000001834899 0
373 75.0003367818452 65.0003995092148 0
374 70.0042431536661 50.0091627648927 0
375 45.0005468359891 40.0026400475317 0
376 70.0000021964472 30.0000062615939 0
377 40.02405383567 70.000940641139 0
378 65.0189933367136 70.0187600056231 0
379 30.0004970452386 49.9996728103019 0
380 60.0000572654489 35.0002099495892 0
381 70.0015603197882 45.0038975334058 0
382 65.0000048875053 30.0000168518556 0
383 35.0076501353101 69.9990408197226 0
384 50.0183801907473 75.0074054925493 0
385 50.0000554106743 35.0002687815061 0
386 25.0000769562918 54.9999533584346 0
387 35.0007115409023 45.0003395316661 0
388 30.0018755666583 64.9991670391512 0
389 70.0090969568653 60.0141870454321 0
390 75.0000142807527 35.0000387071801 0
391 60.0113050444454 75.0082210680123 0
392 70.009045136218 65.0116697278076 0
393 35.0041120308249 49.9998478407272 0
394 65.0060731409784 45.0163548774564 0
395 50.0014629972846 40.006957052628 0
396 55.0795453529769 70.0505167044064 0
397 65.0000611788831 35.0001843397494 0
398 45.0586487608742 70.0139993092338 0
399 60.0551912314069 70.0454439930008 0
400 70.0006549601773 40.0017351386445 0
401 35.0142610581973 64.997210295939 0
402 70.0001145631451 35.0003116007487 0
403 30.0026118150359 59.9988203173599 0
404 45.0084050273937 45.0195318867451 0
405 40.0043746409657 45.0062605248503 0
406 30.0019063353715 54.9990197772959 0
407 55.0001576853365 35.0007309150061 0
408 65.0536744275968 60.0781059635583 0
409 65.0484512673741 65.0564588036219 0
410 70.010768024857 55.0192745915981 0
411 50.0157110073972 45.0456639453128 0
412 35.0169357922267 59.9965716835994 0
413 65.0212770149333 50.0485112331858 0
414 65.001506493899 40.004507163983 0
415 35.0125290183806 54.9982368355059 0
416 55.1836484731081 65.1440319984022 0
417 40.054229060908 65.0040400437701 0
418 40.0175360861533 50.0125696292388 0
419 60.0022110802714 40.0081260892141 0
420 55.0032442184014 40.0124626104933 0
421 60.14292500079 60.1831022605714 0
422 50.0868319598232 70.0383572402255 0
423 60.1140748954225 65.113885712728 0
424 65.0441476149949 55.0808612208754 0
425 55.2115165509855 60.221221668778 0
426 50.1722206650132 65.0930190087935 0
427 40.0417026872684 55.0149839116403 0
428 60.015290370657 45.0442658473415 0
429 60.0971836911356 55.1701248316861 0
430 55.0208262841127 45.0624989877234 0
431 45.1157259403553 65.0398460870441 0
432 40.0601175337636 60.0133756724053 0
433 50.0620624179192 50.1211611691909 0
434 45.0425293355831 50.0567400739177 0
435 50.1884320373248 60.1535985053379 0
436 45.1174363165719 60.0676482882179 0
437 55.0700293266797 50.1493085188339 0
438 50.1277973683085 55.165213056092 0
439 55.1319370109099 55.1969616630684 0
440 45.0836747091628 55.0744817992724 0
441 60.049148272852 50.1002351871212 0
442 0 100 0
443 0 20 0
444 0 0 0
445 -100 100 0
446 -100 0 0
447 -50 20 0
448 0 95 0
449 0 90 0
450 0 85 0
451 0 80 0
452 0 75 0
453 0 70 0
454 0 65 0
455 0 60 0
456 0 55 0
457 0 50 0
458 0 45 0
459 0 40 0
460 0 35 0
461 0 30 0
462 0 25 0
463 0 15 0
464 0 10 0
465 0 5 0
466 -100 95 0
467 -100 90 0
468 -100 85 0
469 -100 80 0
470 -100 75 0
471 -100 70 0
472 -100 65 0
473 -100 60 0
474 -100 55 0
475 -100 50 0
476 -100 45 0
477 -100 40 0
478 -100 35 0
479 -100 30 0
480 -100 25 0
481 -100 20 0
482 -100 15 0
483 -100 10 0
484 -100 5 0
485 -95 0 0
486 -90 0 0
487 -85 0 0
488 -80 0 0
489 -75 0 0
490 -70 0 0
491 -65 0 0
492 -60 0 0
493 -55 0 0
494 -50 0 0
495 -45 0 0
496 -40 0 0
497 -35 0 0
498 -30 0 0
499 -25 0 0
500 -20 0 0
501 -15 0 0
502 -10 0 0
503 -5 0 0
504 -5 100 0
505 -10 100 0
506 -15 100 0
507 -20 100 0
508 -25 100 0
509 -30 100 0
510 -35 100 0
511 -40 100 0
512 -45 100 0
513 -50 100 0
514 -55 100 0
515 -60 100 0
516 -65 100 0
517 -70 100 0
518 -75 100 0
519 -80 100 0
520 -85 100 0
521 -90 100 0
522 -95 100 0
523 -5 20 0
524 -10 20 0
525 -15 20 0
526 -20 20 0
527 -25 20 0
528 -30 20 0
529 -35 20 0
530 -40 20 0
531 -45 20 0
532 -60 95 0
533 -95 40 0
534 -5 60 0
535 -95 75 0
536 -30 95 0
537 -5 80 0
538 -70 5 0
539 -95 25 0
540 -5 40 0
541 -85 95 0
542 -80 5 0
543 -10 5 0
544 -35 5 0
545 -20 5 0
546 -55 5 0
547 -95 15 0
548 -15 95 0
549 -95 60 0
550 -95 90 0
551 -50 95 0
552 -95 5 0
553 -5 90 0
554 -5 25 0
555 -5 10 0
556 -95 50 0
557 -95 95 0
558 -40 95 0
559 -45 5 0
560 -70 95 0
561 -80 95 0
562 -5 15 0
563 -5 5 0
564 -5 95 0
565 -5 70 0
566 -5 50 0
567 -5 30 0
568 -95 85 0
569 -95 70 0
570 -95 35 0
571 -85 5 0
572 -60 5 0
573 -25 5 0
574 -25 95 0
575 -90 40 0
576 -90 75 0
577 -30 90 0
578 -85 90 0
579 -10 10 0
580 -80 10 0
581 -20 10 0
582 -55 10 0
583 -10 15 0
584 -95 20 0
585 -15 5 0
586 -55 95 0
587 -75 95 0
588 -90 95 0
589 -95 55 0
590 -40 5 0
591 -45 95 0
592 -35 95 0
593 -95 65 0
594 -30 5 0
595 -65 95 0
596 -90 90 0
597 -95 45 0
598 -95 10 0
599 -90 5 0
600 -20 95 0
601 -95 80 0
602 -10 95 0
603 -10 25 0
604 -5 85 0
605 -5 75 0
606 -5 65 0
607 -5 55 0
608 -5 45 0
609 -5 35 0
610 -95 30 0
611 -75 5 0
612 -65 5 0
613 -50 5 0
614 -55 90 0
615 -10 55 0
616 -10 75 0
617 -75 90 0
618 -20 90 0
619 -90 15 0
620 -35 10 0
621 -85 85 0
622 -25 10 0
623 -40 10 0
624 -90 65 0
625 -65 10 0
626 -10 35 0
627 -50 10 0
628 -90 30 0
629 -85 10 0
630 -90 25 0
631 -65 90 0
632 -80 90 0
633 -15 10 0
634 -15 15 0
635 -90 80 0
636 -90 60 0
637 -90 50 0
638 -25 90 0
639 -15 25 0
640 -10 90 0
641 -50 90 0
642 -45 90 0
643 -35 90 0
644 -90 70 0
645 -90 10 0
646 -10 45 0
647 -90 45 0
648 -10 60 0
649 -10 80 0
650 -75 10 0
651 -10 65 0
652 -10 30 0
653 -90 85 0
654 -90 35 0
655 -60 10 0
656 -55 85 0
657 -15 55 0
658 -85 40 0
659 -85 65 0
660 -35 85 0
661 -85 30 0
662 -75 15 0
663 -85 15 0
664 -25 85 0
665 -60 15 0
666 -15 75 0
667 -75 85 0
668 -85 75 0
669 -35 15 0
670 -60 90 0
671 -85 80 0
672 -50 85 0
673 -80 85 0
674 -40 90 0
675 -70 90 0
676 -90 55 0
677 -20 25 0
678 -20 15 0
679 -15 90 0
680 -10 50 0
681 -30 10 0
682 -85 50 0
683 -50 15 0
684 -70 10 0
685 -10 70 0
686 -10 85 0
687 -15 30 0
688 -15 60 0
689 -10 40 0
690 -45 10 0
691 -90 20 0
692 -55 80 0
693 -45 25 0
694 -20 55 0
695 -20 30 0
696 -30 25 0
697 -85 60 0
698 -40 85 0
699 -20 85 0
700 -65 15 0
701 -15 65 0
702 -15 40 0
703 -85 25 0
704 -80 15 0
705 -65 85 0
706 -85 35 0
707 -70 85 0
708 -85 70 0
709 -60 85 0
710 -75 80 0
711 -85 55 0
712 -30 15 0
713 -30 85 0
714 -45 85 0
715 -35 25 0
716 -40 15 0
717 -15 85 0
718 -25 25 0
719 -15 45 0
720 -55 15 0
721 -25 15 0
722 -85 45 0
723 -15 80 0
724 -15 50 0
725 -70 15 0
726 -15 70 0
727 -15 35 0
728 -45 15 0
729 -80 80 0
730 -85 20 0
731 -80 40 0
732 -50 25 0
733 -80 65 0
734 -40 80 0
735 -65 20 0
736 -20 65 0
737 -80 30 0
738 -30 80 0
739 -30 30 0
740 -20 40 0
741 -20 50 0
742 -20 75 0
743 -75 20 0
744 -70 80 0
745 -75 75 0
746 -60 80 0
747 -80 20 0
748 -80 60 0
749 -25 80 0
750 -25 30 0
751 -20 80 0
752 -55 20 0
753 -80 75 0
754 -50 80 0
755 -80 55 0
756 -80 50 0
757 -20 60 0
758 -40 25 0
759 -20 35 0
760 -55 75 0
761 -45 30 0
762 -25 55 0
763 -75 50 0
764 -75 65 0
765 -70 75 0
766 -35 30 0
767 -55 25 0
768 -65 80 0
769 -75 70 0
770 -80 35 0
771 -35 80 0
772 -80 25 0
773 -45 80 0
774 -20 45 0
775 -30 35 0
776 -75 60 0
777 -60 20 0
778 -80 70 0
779 -80 45 0
780 -70 20 0
781 -20 70 0
782 -30 75 0
783 -25 75 0
784 -25 60 0
785 -25 35 0
786 -30 55 0
787 -45 75 0
788 -75 40 0
789 -70 65 0
790 -65 25 0
791 -60 75 0
792 -35 35 0
793 -25 65 0
794 -35 75 0
795 -65 75 0
796 -70 70 0
797 -75 45 0
798 -50 75 0
799 -50 30 0
800 -25 40 0
801 -75 55 0
802 -30 70 0
803 -25 50 0
804 -70 25 0
805 -75 35 0
806 -75 30 0
807 -60 25 0
808 -25 70 0
809 -40 30 0
810 -75 25 0
811 -70 50 0
812 -55 70 0
813 -30 50 0
814 -45 35 0
815 -65 70 0
816 -60 30 0
817 -70 40 0
818 -30 65 0
819 -65 30 0
820 -50 70 0
821 -40 35 0
822 -35 70 0
823 -55 30 0
824 -70 60 0
825 -70 30 0
826 -30 60 0
827 -25 45 0
828 -30 40 0
829 -40 75 0
830 -55 65 0
831 -35 50 0
832 -55 35 0
833 -45 40 0
834 -40 70 0
835 -60 70 0
836 -70 45 0
837 -35 55 0
838 -60 35 0
839 -35 65 0
840 -50 35 0
841 -30 45 0
842 -65 65 0
843 -35 40 0
844 -70 55 0
845 -45 70 0
846 -70 35 0
847 -65 50 0
848 -40 50 0
849 -55 40 0
850 -60 65 0
851 -65 40 0
852 -50 40 0
853 -35 60 0
854 -35 45 0
855 -50 65 0
856 -40 65 0
857 -40 40 0
858 -65 60 0
859 -65 35 0
860 -55 60 0
861 -55 45 0
862 -40 60 0
863 -60 60 0
864 -65 45 0
865 -40 55 0
866 -60 40 0
867 -45 45 0
868 -40 45 0
869 -65 55 0
870 -45 65 0
871 -45 60 0
872 -45 50 0
873 -60 55 0
874 -60 50 0
875 -50 45 0
876 -50 60 0
877 -60 45 0
878 -55 55 0
879 -55 50 0
880 -50 55 0
881 -50 50 0
882 -45 55 0
$EndNodes
$Elements
800
1 3 2 1 1 394 428 419 414
2 3 2 1 1 439 438 433 437
3 3 2 1 1 334 300 354 357
4 3 2 1 1 435 426 431 436
5 3 2 1 1 414 400 381 394
6 3 2 1 1 427 432 412 415
7 3 2 1 1 439 437 441 429
8 3 2 1 1 125 198 140 111
9 3 2 1 1 314 336 355 358
10 3 2 1 1 269 225 140 198
11 3 2 1 1 197 236 207 144
12 3 2 1 1 300 334 321 270
13 3 2 1 1 143 182 236 197
14 3 2 1 1 359 337 301 331
15 3 2 1 1 382 376 402 397
16 3 2 1 1 426 422 398 431
17 3 2 1 1 235 264 227 199
18 3 2 1 1 358 355 362 383
19 3 2 1 1 431 398 377 417
20 3 2 1 1 400 414 397 402
21 3 2 1 1 160 187 237 92
22 3 2 1 1 235 199 162 121
23 3 2 1 1 290 340 296 223
24 3 2 1 1 268 225 313 335
25 3 2 1 1 260 300 270 226
26 3 2 1 1 290 240 320 340
27 3 2 1 1 389 410 354 330
28 3 2 1 1 373 392 389 330
29 3 2 1 1 212 142 97 155
30 3 2 1 1 23 154 98 22
31 3 2 1 1 60 155 97 59
32 3 2 1 1 207 236 274 255
33 3 2 1 1 324 266 292 325
34 3 2 1 1 280 279 338 302
35 3 2 1 1 390 368 400 402
36 3 2 1 1 294 269 321 334
37 3 2 1 1 49 50 159 103
38 3 2 1 1 77 78 101 151
39 3 2 1 1 78 79 177 101
40 3 2 1 1 118 80 81 135
41 3 2 1 1 147 122 119 202
42 3 2 1 1 91 138 202 119
43 3 2 1 1 166 186 201 124
44 3 2 1 1 201 229 238 152
45 3 2 1 1 267 229 201 186
46 3 2 1 1 237 319 267 186
47 3 2 1 1 246 265 306 275
48 3 2 1 1 303 372 328 309
49 3 2 1 1 359 376 372 337
50 3 2 1 1 296 340 384 353
51 3 2 1 1 399 391 353 396
52 3 2 1 1 428 430 420 419
53 3 2 1 1 119 17 18 91
54 3 2 1 1 116 24 25 127
55 3 2 1 1 117 61 62 134
56 3 2 1 1 207 154 116 144
57 3 2 1 1 138 199 227 272
58 3 2 1 1 310 309 328 342
59 3 2 1 1 383 377 327 358
60 3 2 1 1 378 409 392 360
61 3 2 1 1 410 424 413 374
62 3 2 1 1 416 396 422 426
63 3 2 1 1 424 408 421 429
64 3 2 1 1 17 119 122 16
65 3 2 1 1 211 147 290 223
66 3 2 1 1 202 240 290 147
67 3 2 1 1 139 226 270 206
68 3 2 1 1 435 436 440 438
69 3 2 1 1 11 12 167 105
70 3 2 1 1 91 18 19 162
71 3 2 1 1 19 20 121 162
72 3 2 1 1 160 92 68 69
73 3 2 1 1 72 73 93 153
74 3 2 1 1 88 204 239 87
75 3 2 1 1 237 186 166 92
76 3 2 1 1 206 93 126 139
77 3 2 1 1 206 247 153 93
78 3 2 1 1 241 181 94 161
79 3 2 1 1 140 187 160 111
80 3 2 1 1 118 135 112 157
81 3 2 1 1 212 155 117 145
82 3 2 1 1 158 184 235 121
83 3 2 1 1 147 211 136 122
84 3 2 1 1 126 176 196 139
85 3 2 1 1 234 226 139 196
86 3 2 1 1 118 157 222 177
87 3 2 1 1 140 225 268 187
88 3 2 1 1 247 206 270 321
89 3 2 1 1 271 241 211 223
90 3 2 1 1 269 294 313 225
91 3 2 1 1 278 228 303 309
92 3 2 1 1 267 301 265 229
93 3 2 1 1 184 307 264 235
94 3 2 1 1 187 268 319 237
95 3 2 1 1 229 265 246 238
96 3 2 1 1 272 293 320 240
97 3 2 1 1 337 306 265 301
98 3 2 1 1 331 319 268 335
99 3 2 1 1 223 296 344 271
100 3 2 1 1 306 337 372 303
101 3 2 1 1 339 345 365 360
102 3 2 1 1 378 361 391 399
103 3 2 1 1 254 253 281 6
104 3 2 1 1 1 7 135 81
105 3 2 1 1 8 112 135 7
106 3 2 1 1 15 16 122 136
107 3 2 1 1 46 102 168 45
108 3 2 1 1 46 47 163 102
109 3 2 1 1 48 132 163 47
110 3 2 1 1 49 103 132 48
111 3 2 1 1 51 52 164 120
112 3 2 1 1 54 165 104 53
113 3 2 1 1 55 56 100 137
114 3 2 1 1 57 175 100 56
115 3 2 1 1 64 65 123 106
116 3 2 1 1 65 66 124 123
117 3 2 1 1 68 92 166 67
118 3 2 1 1 66 67 166 124
119 3 2 1 1 71 125 111 70
120 3 2 1 1 69 70 111 160
121 3 2 1 1 153 125 71 72
122 3 2 1 1 74 126 93 73
123 3 2 1 1 79 80 118 177
124 3 2 1 1 87 239 273 86
125 3 2 1 1 88 87 244 205
126 3 2 1 1 89 150 204 88
127 3 2 1 1 89 88 205 179
128 3 2 1 1 162 199 138 91
129 3 2 1 1 141 220 171 95
130 3 2 1 1 183 196 176 96
131 3 2 1 1 154 207 255 98
132 3 2 1 1 163 185 209 102
133 3 2 1 1 145 106 123 152
134 3 2 1 1 116 127 107 144
135 3 2 1 1 144 107 170 197
136 3 2 1 1 157 112 109 156
137 3 2 1 1 164 194 250 120
138 3 2 1 1 123 124 201 152
139 3 2 1 1 103 146 210 132
140 3 2 1 1 163 132 210 185
141 3 2 1 1 97 142 191 133
142 3 2 1 1 211 241 161 136
143 3 2 1 1 165 137 214 192
144 3 2 1 1 276 224 141 217
145 3 2 1 1 212 238 246 142
146 3 2 1 1 103 159 188 146
147 3 2 1 1 221 228 278 148
148 3 2 1 1 96 151 251 183
149 3 2 1 1 145 152 238 212
150 3 2 1 1 125 153 247 198
151 3 2 1 1 156 200 222 157
152 3 2 1 1 98 255 184 158
153 3 2 1 1 120 250 188 159
154 3 2 1 1 94 181 213 167
155 3 2 1 1 102 209 219 168
156 3 2 1 1 143 180 248 182
157 3 2 1 1 241 271 230 181
158 3 2 1 1 274 236 182 261
159 3 2 1 1 196 183 266 234
160 3 2 1 1 307 184 255 274
161 3 2 1 1 209 185 239 204
162 3 2 1 1 146 188 243 245
163 3 2 1 1 243 188 250 283
164 3 2 1 1 221 191 275 228
165 3 2 1 1 142 246 275 191
166 3 2 1 1 250 194 282 283
167 3 2 1 1 180 195 252 248
168 3 2 1 1 185 210 273 239
169 3 2 1 1 146 245 273 210
170 3 2 1 1 181 230 279 213
171 3 2 1 1 148 278 242 214
172 3 2 1 1 308 304 291 224
173 3 2 1 1 306 303 228 275
174 3 2 1 1 182 248 277 261
175 3 2 1 1 183 251 292 266
176 3 2 1 1 248 252 322 277
177 3 2 1 1 307 274 261 305
178 3 2 1 1 261 277 341 305
179 3 2 1 1 322 329 341 277
180 3 2 1 1 285 284 311 315
181 3 2 1 1 281 310 342 295
182 3 2 1 1 333 295 342 364
183 3 2 1 1 365 338 297 361
184 3 2 1 1 263 302 345 325
185 3 2 1 1 322 304 343 329
186 3 2 1 1 264 307 305 336
187 3 2 1 1 336 305 341 355
188 3 2 1 1 304 308 367 343
189 3 2 1 1 386 367 308 347
190 3 2 1 1 347 317 363 386
191 3 2 1 1 260 318 373 330
192 3 2 1 1 376 382 328 372
193 3 2 1 1 355 341 329 362
194 3 2 1 1 298 346 356 332
195 3 2 1 1 356 375 370 332
196 3 2 1 1 366 333 407 385
197 3 2 1 1 302 338 365 345
198 3 2 1 1 328 382 364 342
199 3 2 1 1 329 343 388 362
200 3 2 1 1 403 388 343 367
201 3 2 1 1 352 379 363 348
202 3 2 1 1 350 371 387 352
203 3 2 1 1 375 356 385 395
204 3 2 1 1 376 359 390 402
205 3 2 1 1 383 362 388 401
206 3 2 1 1 379 406 386 363
207 3 2 1 1 380 364 382 397
208 3 2 1 1 327 377 398 369
209 3 2 1 1 384 369 398 422
210 3 2 1 1 371 370 405 387
211 3 2 1 1 375 404 405 370
212 3 2 1 1 381 374 413 394
213 3 2 1 1 352 387 393 379
214 3 2 1 1 397 414 419 380
215 3 2 1 1 377 383 401 417
216 3 2 1 1 395 385 407 420
217 3 2 1 1 367 386 406 403
218 3 2 1 1 393 387 405 418
219 3 2 1 1 403 412 401 388
220 3 2 1 1 412 403 406 415
221 3 2 1 1 408 409 423 421
222 3 2 1 1 436 431 417 432
223 3 2 1 1 433 438 440 434
224 3 2 1 1 136 161 14 15
225 3 2 1 1 121 20 21 158
226 3 2 1 1 36 37 173 99
227 3 2 1 1 50 51 120 159
228 3 2 1 1 53 104 164 52
229 3 2 1 1 55 137 165 54
230 3 2 1 1 75 76 96 176
231 3 2 1 1 6 259 312 82
232 3 2 1 1 215 190 172 99
233 3 2 1 1 177 222 208 101
234 3 2 1 1 194 164 104 193
235 3 2 1 1 165 192 193 104
236 3 2 1 1 95 130 217 141
237 3 2 1 1 191 221 175 133
238 3 2 1 1 291 220 141 224
239 3 2 1 1 100 175 221 148
240 3 2 1 1 204 150 219 209
241 3 2 1 1 215 257 233 190
242 3 2 1 1 254 193 192 253
243 3 2 1 1 193 254 282 194
244 3 2 1 1 220 291 252 195
245 3 2 1 1 321 269 198 247
246 3 2 1 1 292 251 208 249
247 3 2 1 1 280 256 213 279
248 3 2 1 1 215 218 258 257
249 3 2 1 1 344 297 230 271
250 3 2 1 1 338 279 230 297
251 3 2 1 1 242 310 281 253
252 3 2 1 1 333 366 259 295
253 3 2 1 1 363 317 288 348
254 3 2 1 1 368 313 294 326
255 3 2 1 1 298 332 349 311
256 3 2 1 1 407 333 364 380
257 3 2 1 1 356 346 366 385
258 3 2 1 1 393 415 406 379
259 3 2 1 1 420 407 380 419
260 3 2 1 1 389 408 424 410
261 3 2 1 1 395 420 430 411
262 3 2 1 1 430 428 441 437
263 3 2 1 1 282 254 6 82
264 3 2 1 1 295 259 6 281
265 3 2 1 1 112 8 9 109
266 3 2 1 1 11 105 169 10
267 3 2 1 1 9 10 169 109
268 3 2 1 1 167 12 13 94
269 3 2 1 1 161 94 13 14
270 3 2 1 1 158 21 22 98
271 3 2 1 1 2 26 127 25
272 3 2 1 1 27 107 127 26
273 3 2 1 1 27 28 170 107
274 3 2 1 1 29 108 170 28
275 3 2 1 1 29 30 128 108
276 3 2 1 1 30 31 129 128
277 3 2 1 1 33 95 171 32
278 3 2 1 1 31 32 171 129
279 3 2 1 1 34 130 95 33
280 3 2 1 1 35 172 130 34
281 3 2 1 1 172 35 36 99
282 3 2 1 1 38 110 173 37
283 3 2 1 1 38 39 113 110
284 3 2 1 1 3 90 131 40
285 3 2 1 1 39 40 131 113
286 3 2 1 1 3 41 114 90
287 3 2 1 1 41 42 174 114
288 3 2 1 1 43 115 174 42
289 3 2 1 1 4 44 115 43
290 3 2 1 1 44 45 168 115
291 3 2 1 1 58 133 175 57
292 3 2 1 1 59 97 133 58
293 3 2 1 1 5 63 134 62
294 3 2 1 1 64 106 134 63
295 3 2 1 1 151 96 76 77
296 3 2 1 1 283 282 82 83
297 3 2 1 1 83 82 312 262
298 3 2 1 1 84 83 262 284
299 3 2 1 1 284 285 85 84
300 3 2 1 1 83 84 243 283
301 3 2 1 1 84 85 245 243
302 3 2 1 1 87 86 286 244
303 3 2 1 1 85 86 273 245
304 3 2 1 1 85 285 286 86
305 3 2 1 1 90 114 150 89
306 3 2 1 1 90 89 179 131
307 3 2 1 1 251 151 101 208
308 3 2 1 1 167 213 256 105
309 3 2 1 1 169 105 256 216
310 3 2 1 1 117 134 106 145
311 3 2 1 1 197 170 108 143
312 3 2 1 1 110 113 178 149
313 3 2 1 1 108 128 180 143
314 3 2 1 1 128 129 195 180
315 3 2 1 1 171 220 195 129
316 3 2 1 1 172 190 217 130
317 3 2 1 1 113 131 179 178
318 3 2 1 1 100 148 214 137
319 3 2 1 1 240 202 138 272
320 3 2 1 1 110 149 218 173
321 3 2 1 1 114 174 219 150
322 3 2 1 1 109 169 216 156
323 3 2 1 1 200 156 216 231
324 3 2 1 1 115 168 219 174
325 3 2 1 1 99 173 218 215
326 3 2 1 1 205 203 178 179
327 3 2 1 1 149 178 203 189
328 3 2 1 1 149 189 258 218
329 3 2 1 1 217 190 233 276
330 3 2 1 1 214 242 253 192
331 3 2 1 1 222 200 249 208
332 3 2 1 1 231 263 249 200
333 3 2 1 1 189 203 287 232
334 3 2 1 1 205 244 287 203
335 3 2 1 1 231 216 256 280
336 3 2 1 1 336 314 227 264
337 3 2 1 1 280 302 263 231
338 3 2 1 1 189 232 289 258
339 3 2 1 1 289 232 316 299
340 3 2 1 1 317 233 257 288
341 3 2 1 1 347 276 233 317
342 3 2 1 1 226 234 318 260
343 3 2 1 1 266 324 318 234
344 3 2 1 1 310 242 278 309
345 3 2 1 1 325 292 249 263
346 3 2 1 1 322 252 291 304
347 3 2 1 1 257 258 289 288
348 3 2 1 1 312 259 366 346
349 3 2 1 1 311 284 262 298
350 3 2 1 1 346 298 262 312
351 3 2 1 1 301 267 319 331
352 3 2 1 1 227 314 293 272
353 3 2 1 1 224 276 347 308
354 3 2 1 1 244 286 323 287
355 3 2 1 1 285 315 323 286
356 3 2 1 1 232 287 323 316
357 3 2 1 1 348 288 289 299
358 3 2 1 1 369 320 293 327
359 3 2 1 1 314 358 327 293
360 3 2 1 1 348 299 350 352
361 3 2 1 1 260 330 354 300
362 3 2 1 1 323 315 351 316
363 3 2 1 1 311 349 351 315
364 3 2 1 1 299 316 351 350
365 3 2 1 1 324 339 373 318
366 3 2 1 1 345 339 324 325
367 3 2 1 1 294 334 357 326
368 3 2 1 1 374 381 326 357
369 3 2 1 1 331 335 390 359
370 3 2 1 1 313 368 390 335
371 3 2 1 1 392 373 339 360
372 3 2 1 1 320 369 384 340
373 3 2 1 1 296 353 391 344
374 3 2 1 1 297 344 391 361
375 3 2 1 1 351 349 371 350
376 3 2 1 1 332 370 371 349
377 3 2 1 1 357 354 410 374
378 3 2 1 1 360 365 361 378
379 3 2 1 1 326 381 400 368
380 3 2 1 1 404 375 395 411
381 3 2 1 1 423 409 378 399
382 3 2 1 1 353 384 422 396
383 3 2 1 1 409 408 389 392
384 3 2 1 1 415 393 418 427
385 3 2 1 1 441 428 394 413
386 3 2 1 1 396 416 423 399
387 3 2 1 1 412 432 417 401
388 3 2 1 1 434 404 411 433
389 3 2 1 1 404 434 418 405
390 3 2 1 1 437 433 411 430
391 3 2 1 1 427 418 434 440
392 3 2 1 1 413 424 429 441
393 3 2 1 1 432 427 440 436
394 3 2 1 1 176 126 74 75
395 3 2 1 1 154 23 24 116
396 3 2 1 1 155 60 61 117
397 3 2 1 1 421 423 416 425
398 3 2 1 1 429 421 425 439
399 3 2 1 1 426 435 425 416
400 3 2 1 1 438 439 425 435
401 3 2 2 2 874 879 878 873
402 3 2 2 2 879 881 880 878
403 3 2 2 2 746 768 795 791
404 3 2 2 2 791 795 815 835
405 3 2 2 2 812 835 850 830
406 3 2 2 2 764 789 796 769
407 3 2 2 2 830 850 863 860
408 3 2 2 2 764 769 778 733
409 3 2 2 2 768 746 709 705
410 3 2 2 2 658 706 770 731
411 3 2 2 2 541 561 519 520
412 3 2 2 2 788 817 836 797
413 3 2 2 2 811 836 864 847
414 3 2 2 2 877 874 847 864
415 3 2 2 2 873 869 847 874
416 3 2 2 2 579 583 634 633
417 3 2 2 2 877 864 851 866
418 3 2 2 2 614 670 709 656
419 3 2 2 2 866 851 859 838
420 3 2 2 2 501 585 545 500
421 3 2 2 2 551 586 614 641
422 3 2 2 2 560 675 631 595
423 3 2 2 2 561 541 578 632
424 3 2 2 2 598 645 619 547
425 3 2 2 2 591 551 641 642
426 3 2 2 2 675 617 667 707
427 3 2 2 2 617 632 673 667
428 3 2 2 2 673 729 710 667
429 3 2 2 2 707 667 710 744
430 3 2 2 2 541 520 521 588
431 3 2 2 2 590 544 620 623
432 3 2 2 2 558 591 642 674
433 3 2 2 2 722 658 731 779
434 3 2 2 2 753 729 671 668
435 3 2 2 2 871 862 856 870
436 3 2 2 2 878 880 876 860
437 3 2 2 2 880 881 872 882
438 3 2 2 2 481 482 547 584
439 3 2 2 2 663 704 747 730
440 3 2 2 2 703 730 747 772
441 3 2 2 2 586 551 513 514
442 3 2 2 2 529 530 716 669
443 3 2 2 2 578 621 673 632
444 3 2 2 2 704 662 743 747
445 3 2 2 2 620 681 712 669
446 3 2 2 2 549 589 676 636
447 3 2 2 2 636 676 711 697
448 3 2 2 2 445 466 557 522
449 3 2 2 2 496 497 544 590
450 3 2 2 2 592 536 509 510
451 3 2 2 2 560 517 518 587
452 3 2 2 2 614 586 532 670
453 3 2 2 2 595 631 670 532
454 3 2 2 2 587 617 675 560
455 3 2 2 2 617 587 561 632
456 3 2 2 2 536 592 643 577
457 3 2 2 2 556 637 676 589
458 3 2 2 2 709 670 631 705
459 3 2 2 2 707 705 631 675
460 3 2 2 2 711 755 748 697
461 3 2 2 2 788 797 779 731
462 3 2 2 2 852 849 832 840
463 3 2 2 2 862 865 837 853
464 3 2 2 2 475 476 597 556
465 3 2 2 2 543 502 503 563
466 3 2 2 2 515 532 586 514
467 3 2 2 2 516 517 560 595
468 3 2 2 2 712 721 527 528
469 3 2 2 2 539 584 691 630
470 3 2 2 2 629 663 619 645
471 3 2 2 2 618 638 664 699
472 3 2 2 2 692 656 709 746
473 3 2 2 2 656 692 754 672
474 3 2 2 2 746 791 760 692
475 3 2 2 2 754 692 760 798
476 3 2 2 2 718 750 739 696
477 3 2 2 2 705 707 744 768
478 3 2 2 2 748 776 764 733
479 3 2 2 2 744 765 795 768
480 3 2 2 2 815 795 765 796
481 3 2 2 2 543 563 555 579
482 3 2 2 2 643 592 558 674
483 3 2 2 2 541 588 596 578
484 3 2 2 2 544 594 681 620
485 3 2 2 2 729 673 621 671
486 3 2 2 2 714 773 734 698
487 3 2 2 2 820 845 787 798
488 3 2 2 2 593 569 471 472
489 3 2 2 2 470 471 569 535
490 3 2 2 2 533 597 476 477
491 3 2 2 2 483 484 552 598
492 3 2 2 2 559 495 496 590
493 3 2 2 2 544 497 498 594
494 3 2 2 2 591 558 511 512
495 3 2 2 2 532 515 516 595
496 3 2 2 2 715 529 528 696
497 3 2 2 2 669 712 528 529
498 3 2 2 2 557 550 596 588
499 3 2 2 2 598 552 599 645
500 3 2 2 2 579 555 562 583
501 3 2 2 2 533 570 654 575
502 3 2 2 2 536 577 638 574
503 3 2 2 2 638 618 600 574
504 3 2 2 2 533 575 647 597
505 3 2 2 2 706 658 575 654
506 3 2 2 2 643 660 713 577
507 3 2 2 2 569 593 624 644
508 3 2 2 2 578 596 653 621
509 3 2 2 2 556 597 647 637
510 3 2 2 2 672 641 614 656
511 3 2 2 2 691 730 703 630
512 3 2 2 2 621 653 635 671
513 3 2 2 2 676 637 682 711
514 3 2 2 2 674 698 660 643
515 3 2 2 2 575 658 722 647
516 3 2 2 2 637 647 722 682
517 3 2 2 2 668 708 778 753
518 3 2 2 2 801 763 811 844
519 3 2 2 2 739 775 792 766
520 3 2 2 2 879 861 875 881
521 3 2 2 2 464 463 562 555
522 3 2 2 2 464 555 563 465
523 3 2 2 2 474 475 556 589
524 3 2 2 2 478 479 610 570
525 3 2 2 2 446 485 552 484
526 3 2 2 2 485 486 599 552
527 3 2 2 2 506 548 602 505
528 3 2 2 2 506 507 600 548
529 3 2 2 2 508 574 600 507
530 3 2 2 2 509 536 574 508
531 3 2 2 2 510 511 558 592
532 3 2 2 2 551 591 512 513
533 3 2 2 2 561 587 518 519
534 3 2 2 2 521 522 557 588
535 3 2 2 2 524 525 634 583
536 3 2 2 2 524 603 639 525
537 3 2 2 2 525 526 678 634
538 3 2 2 2 525 639 677 526
539 3 2 2 2 528 527 718 696
540 3 2 2 2 630 628 610 539
541 3 2 2 2 585 633 581 545
542 3 2 2 2 600 618 679 548
543 3 2 2 2 602 548 679 640
544 3 2 2 2 636 624 593 549
545 3 2 2 2 653 596 550 568
546 3 2 2 2 590 623 690 559
547 3 2 2 2 601 635 653 568
548 3 2 2 2 535 569 644 576
549 3 2 2 2 645 599 571 629
550 3 2 2 2 535 576 635 601
551 3 2 2 2 671 635 576 668
552 3 2 2 2 708 668 576 644
553 3 2 2 2 664 638 577 713
554 3 2 2 2 663 629 580 704
555 3 2 2 2 633 634 678 581
556 3 2 2 2 573 622 681 594
557 3 2 2 2 570 610 628 654
558 3 2 2 2 712 681 622 721
559 3 2 2 2 620 669 716 623
560 3 2 2 2 690 623 716 728
561 3 2 2 2 644 624 659 708
562 3 2 2 2 654 628 661 706
563 3 2 2 2 628 630 703 661
564 3 2 2 2 624 636 697 659
565 3 2 2 2 708 659 733 778
566 3 2 2 2 754 773 714 672
567 3 2 2 2 640 679 717 686
568 3 2 2 2 618 699 717 679
569 3 2 2 2 717 699 751 723
570 3 2 2 2 664 749 751 699
571 3 2 2 2 774 740 702 719
572 3 2 2 2 661 703 772 737
573 3 2 2 2 661 737 770 706
574 3 2 2 2 753 745 710 729
575 3 2 2 2 664 713 738 749
576 3 2 2 2 660 771 738 713
577 3 2 2 2 696 739 766 715
578 3 2 2 2 666 723 751 742
579 3 2 2 2 767 732 799 823
580 3 2 2 2 770 737 806 805
581 3 2 2 2 772 810 806 737
582 3 2 2 2 751 749 783 742
583 3 2 2 2 747 743 810 772
584 3 2 2 2 710 745 765 744
585 3 2 2 2 738 782 783 749
586 3 2 2 2 798 787 773 754
587 3 2 2 2 799 761 814 840
588 3 2 2 2 756 779 797 763
589 3 2 2 2 809 766 792 821
590 3 2 2 2 731 770 805 788
591 3 2 2 2 738 771 794 782
592 3 2 2 2 785 800 828 775
593 3 2 2 2 794 822 802 782
594 3 2 2 2 853 837 786 826
595 3 2 2 2 813 786 837 831
596 3 2 2 2 796 789 842 815
597 3 2 2 2 775 828 843 792
598 3 2 2 2 810 804 825 806
599 3 2 2 2 790 819 825 804
600 3 2 2 2 806 825 846 805
601 3 2 2 2 835 815 842 850
602 3 2 2 2 802 822 839 818
603 3 2 2 2 826 818 839 853
604 3 2 2 2 814 821 857 833
605 3 2 2 2 792 843 857 821
606 3 2 2 2 799 840 832 823
607 3 2 2 2 813 831 854 841
608 3 2 2 2 848 868 854 831
609 3 2 2 2 828 841 854 843
610 3 2 2 2 868 857 843 854
611 3 2 2 2 866 849 861 877
612 3 2 2 2 861 879 874 877
613 3 2 2 2 531 693 732 447
614 3 2 2 2 443 523 562 463
615 3 2 2 2 444 465 563 503
616 3 2 2 2 557 466 467 550
617 3 2 2 2 568 550 467 468
618 3 2 2 2 601 568 468 469
619 3 2 2 2 593 472 473 549
620 3 2 2 2 589 549 473 474
621 3 2 2 2 599 486 487 571
622 3 2 2 2 493 546 572 492
623 3 2 2 2 495 559 613 494
624 3 2 2 2 594 498 499 573
625 3 2 2 2 583 562 523 524
626 3 2 2 2 629 571 542 580
627 3 2 2 2 633 585 543 579
628 3 2 2 2 622 573 545 581
629 3 2 2 2 607 615 680 566
630 3 2 2 2 608 566 680 646
631 3 2 2 2 627 683 720 582
632 3 2 2 2 641 672 714 642
633 3 2 2 2 698 674 642 714
634 3 2 2 2 615 648 688 657
635 3 2 2 2 615 657 724 680
636 3 2 2 2 748 733 659 697
637 3 2 2 2 720 752 777 665
638 3 2 2 2 799 732 693 761
639 3 2 2 2 774 827 800 740
640 3 2 2 2 810 743 780 804
641 3 2 2 2 796 765 745 769
642 3 2 2 2 694 757 784 762
643 3 2 2 2 752 767 807 777
644 3 2 2 2 807 767 823 816
645 3 2 2 2 782 802 808 783
646 3 2 2 2 816 819 790 807
647 3 2 2 2 827 803 813 841
648 3 2 2 2 816 838 859 819
649 3 2 2 2 812 830 855 820
650 3 2 2 2 834 856 839 822
651 3 2 2 2 819 859 846 825
652 3 2 2 2 837 865 848 831
653 3 2 2 2 832 849 866 838
654 3 2 2 2 853 839 856 862
655 3 2 2 2 872 881 875 867
656 3 2 2 2 728 531 447 683
657 3 2 2 2 683 447 752 720
658 3 2 2 2 767 752 447 732
659 3 2 2 2 442 504 564 448
660 3 2 2 2 449 448 564 553
661 3 2 2 2 451 450 604 537
662 3 2 2 2 449 553 604 450
663 3 2 2 2 451 537 605 452
664 3 2 2 2 453 452 605 565
665 3 2 2 2 455 454 606 534
666 3 2 2 2 453 565 606 454
667 3 2 2 2 607 456 455 534
668 3 2 2 2 608 458 457 566
669 3 2 2 2 456 607 566 457
670 3 2 2 2 458 608 540 459
671 3 2 2 2 459 540 609 460
672 3 2 2 2 461 460 609 567
673 3 2 2 2 462 461 567 554
674 3 2 2 2 443 462 554 523
675 3 2 2 2 601 469 470 535
676 3 2 2 2 610 479 480 539
677 3 2 2 2 584 539 480 481
678 3 2 2 2 571 487 488 542
679 3 2 2 2 490 538 611 489
680 3 2 2 2 488 489 611 542
681 3 2 2 2 490 491 612 538
682 3 2 2 2 492 572 612 491
683 3 2 2 2 493 494 613 546
684 3 2 2 2 573 499 500 545
685 3 2 2 2 504 505 602 564
686 3 2 2 2 523 554 603 524
687 3 2 2 2 526 677 718 527
688 3 2 2 2 526 527 721 678
689 3 2 2 2 529 715 758 530
690 3 2 2 2 531 728 716 530
691 3 2 2 2 530 758 693 531
692 3 2 2 2 607 534 648 615
693 3 2 2 2 605 537 649 616
694 3 2 2 2 612 625 684 538
695 3 2 2 2 611 538 684 650
696 3 2 2 2 689 540 608 646
697 3 2 2 2 627 582 546 613
698 3 2 2 2 564 602 640 553
699 3 2 2 2 605 616 685 565
700 3 2 2 2 606 565 685 651
701 3 2 2 2 554 567 652 603
702 3 2 2 2 609 626 652 567
703 3 2 2 2 546 582 655 572
704 3 2 2 2 612 572 655 625
705 3 2 2 2 542 611 650 580
706 3 2 2 2 704 580 650 662
707 3 2 2 2 721 622 581 678
708 3 2 2 2 655 582 720 665
709 3 2 2 2 553 640 686 604
710 3 2 2 2 537 604 686 649
711 3 2 2 2 534 606 651 648
712 3 2 2 2 540 689 626 609
713 3 2 2 2 559 690 627 613
714 3 2 2 2 655 665 700 625
715 3 2 2 2 652 626 727 687
716 3 2 2 2 728 683 627 690
717 3 2 2 2 603 652 687 639
718 3 2 2 2 689 646 719 702
719 3 2 2 2 680 724 719 646
720 3 2 2 2 616 649 723 666
721 3 2 2 2 686 717 723 649
722 3 2 2 2 648 651 701 688
723 3 2 2 2 724 657 694 741
724 3 2 2 2 771 660 698 734
725 3 2 2 2 650 684 725 662
726 3 2 2 2 700 665 777 735
727 3 2 2 2 616 666 726 685
728 3 2 2 2 639 687 695 677
729 3 2 2 2 779 756 682 722
730 3 2 2 2 625 700 725 684
731 3 2 2 2 651 685 726 701
732 3 2 2 2 657 688 757 694
733 3 2 2 2 701 736 757 688
734 3 2 2 2 626 689 702 727
735 3 2 2 2 758 809 761 693
736 3 2 2 2 803 741 694 762
737 3 2 2 2 677 695 750 718
738 3 2 2 2 687 727 759 695
739 3 2 2 2 750 695 759 785
740 3 2 2 2 809 758 715 766
741 3 2 2 2 719 724 741 774
742 3 2 2 2 700 735 780 725
743 3 2 2 2 662 725 780 743
744 3 2 2 2 701 726 781 736
745 3 2 2 2 666 742 781 726
746 3 2 2 2 702 740 759 727
747 3 2 2 2 794 771 734 829
748 3 2 2 2 773 787 829 734
749 3 2 2 2 804 780 735 790
750 3 2 2 2 777 807 790 735
751 3 2 2 2 757 736 793 784
752 3 2 2 2 785 759 740 800
753 3 2 2 2 827 774 741 803
754 3 2 2 2 778 769 745 753
755 3 2 2 2 776 748 755 801
756 3 2 2 2 739 750 785 775
757 3 2 2 2 756 763 801 755
758 3 2 2 2 835 812 760 791
759 3 2 2 2 820 798 760 812
760 3 2 2 2 821 814 761 809
761 3 2 2 2 803 762 786 813
762 3 2 2 2 836 811 763 797
763 3 2 2 2 824 789 764 776
764 3 2 2 2 742 783 808 781
765 3 2 2 2 736 781 808 793
766 3 2 2 2 762 784 826 786
767 3 2 2 2 793 818 826 784
768 3 2 2 2 846 817 788 805
769 3 2 2 2 808 802 818 793
770 3 2 2 2 776 801 844 824
771 3 2 2 2 833 852 840 814
772 3 2 2 2 838 816 823 832
773 3 2 2 2 789 824 858 842
774 3 2 2 2 844 869 858 824
775 3 2 2 2 800 827 841 828
776 3 2 2 2 787 845 834 829
777 3 2 2 2 868 867 833 857
778 3 2 2 2 852 833 867 875
779 3 2 2 2 817 851 864 836
780 3 2 2 2 811 847 869 844
781 3 2 2 2 820 855 870 845
782 3 2 2 2 872 848 865 882
783 3 2 2 2 849 852 875 861
784 3 2 2 2 830 860 876 855
785 3 2 2 2 871 870 855 876
786 3 2 2 2 863 858 869 873
787 3 2 2 2 860 863 873 878
788 3 2 2 2 862 871 882 865
789 3 2 2 2 848 872 867 868
790 3 2 2 2 876 880 882 871
791 3 2 2 2 570 533 477 478
792 3 2 2 2 755 711 682 756
793 3 2 2 2 822 794 829 834
794 3 2 2 2 859 851 817 846
795 3 2 2 2 845 870 856 834
796 3 2 2 2 850 842 858 863
797 3 2 2 2 598 547 482 483
798 3 2 2 2 547 619 691 584
799 3 2 2 2 730 691 619 663
800 3 2 2 2 502 543 585 501
$EndElements
