$MeshFormat
2.2 0 8
$EndMeshFormat
$Nodes
885
1 90 90 0
2 -90 50 0
3 0 69.9999999666667 0
4 100 -100 0
5 100 100 0
6 0 -100 0
7 0 100 0
8 -100 -100 0
9 -100 100 0
10 100 -90 0
11 100 -80 0
12 100 -70 0
13 100 -60 0
14 100 -50 0
15 100 -40 0
16 100 -30 0
17 100 -20 0
18 100 -10 0
19 100 0 0
20 100 10 0
21 100 20 0
22 100 30 0
23 100 40 0
24 100 50 0
25 100 60 0
26 100 70 0
27 100 80 0
28 100 90 0
29 10 -100 0
30 20 -100 0
31 30 -100 0
32 40 -100 0
33 50 -100 0
34 60 -100 0
35 70 -100 0
36 80 -100 0
37 90 -100 0
38 0 89.9999999888889 0
39 0 79.9999999777778 0
40 0 59.9999999686274 0
41 0 49.9999999705882 0
42 0 39.999999972549 0
43 0 29.9999999745098 0
44 0 19.9999999764706 0
45 0 9.99999997843136 0
46 0 -1.96078508984954E-08 0
47 0 -10.0000000176471 0
48 0 -20.0000000156863 0
49 0 -30.0000000137255 0
50 0 -40.0000000117647 0
51 0 -50.0000000098039 0
52 0 -60.0000000078431 0
53 0 -70.0000000058823 0
54 0 -80.0000000039215 0
55 0 -90.0000000019608 0
56 90 100 0
57 80 100 0
58 70 100 0
59 60 100 0
60 50 100 0
61 40 100 0
62 30 100 0
63 20 100 0
64 10 100 0
65 -90 -100 0
66 -80 -100 0
67 -70 -100 0
68 -60 -100 0
69 -50 -100 0
70 -40 -100 0
71 -30 -100 0
72 -20 -100 0
73 -10 -100 0
74 -100 90 0
75 -100 80 0
76 -100 70 0
77 -100 60 0
78 -100 50 0
79 -100 40 0
80 -100 30 0
81 -100 20 0
82 -100 10 0
83 -100 0 0
84 -100 -10 0
85 -100 -20 0
86 -100 -30 0
87 -100 -40 0
88 -100 -50 0
89 -100 -60 0
90 -100 -70 0
91 -100 -80 0
92 -100 -90 0
93 -10 100 0
94 -20 100 0
95 -30 100 0
96 -40 100 0
97 -50 100 0
98 -60 100 0
99 -70 100 0
100 -80 100 0
101 -90 100 0
102 80 87.7777777740741 0
103 70 85.5555555481481 0
104 60 83.3333333222222 0
105 50 81.1111110962963 0
106 40.0000000000001 78.8888888703704 0
107 30.0000000000001 76.6666666444445 0
108 20 74.4444444185185 0
109 10 72.2222221925926 0
110 -10 67.7777777481481 0
111 -20 65.5555555296296 0
112 -30 63.3333333111111 0
113 -40 61.1111110925926 0
114 -50 58.8888888740741 0
115 -60 56.6666666555555 0
116 -70 54.444444437037 0
117 -80 52.2222222185185 0
118 10.0384823088268 -29.9903703634139 0
119 10.3365954638642 20.1383328446264 0
120 90.0238989935989 -40.0085727562362 0
121 90.418803556347 19.6473012402441 0
122 49.9991308594898 -90.0007265075266 0
123 10.0028591173133 -59.9995317791987 0
124 90.0010072187109 -70.0015030458487 0
125 29.9990569241949 -90.0003857693201 0
126 90.4272860977122 48.995150506897 0
127 11.0533008204182 50.1714673704638 0
128 90.083227198659 -20.0300986101086 0
129 79.9995457811578 -90.0006441488811 0
130 10.1729700436799 0.0633099209664105 0
131 9.48350726263051 90.685172475676 0
132 18.2783574910656 91.3180805668733 0
133 12.3606707645833 61.4085877837186 0
134 28.027347744293 88.1110931033493 0
135 19.9993226233025 -90.0002223891605 0
136 10.0004273800683 -70.0000094427672 0
137 9.99967119964222 -80.0001302105247 0
138 90.2197135155399 -0.109811438786638 0
139 90.0042453491047 -60.0026636889402 0
140 90.4889934211495 29.4429143181585 0
141 69.9993978109374 -90.0008057371373 0
142 89.9998026806828 -90.0003604257712 0
143 10.11382343722 -9.96350667828165 0
144 10.0200138732983 -39.9956051111783 0
145 9.99969964018386 -90.0000932179105 0
146 90.3237663006682 58.8405460233453 0
147 10.6239101554003 40.1432321386416 0
148 90.2108774048403 68.7950317782335 0
149 90.1031377951615 78.9796145175447 0
150 39.6347191853659 89.3839706890414 0
151 9.48350725610895 81.421820715801 0
152 49.780967360346 90.4149532896346 0
153 59.0510849746946 90.8835268560338 0
154 20.2297003654956 -9.93607952619374 0
155 80.9016920656515 19.3554848536012 0
156 50.4880492601466 71.7772748511637 0
157 21.0939077214755 40.3268637615502 0
158 80.6726395663423 57.5801452934788 0
159 22.1310510914248 66.6824213184788 0
160 80.0023567685129 -70.0026421027017 0
161 20.0781480860983 -29.9841102983991 0
162 20.0063702096357 -59.9994523229016 0
163 29.9994082714801 -80.0006616025948 0
164 70.3045745879395 75.6497304880107 0
165 20.0014967574106 -70.0001714905184 0
166 39.9992252298496 -90.0005565249011 0
167 90.1413890105673 -10.0576603309862 0
168 90.0473866379701 -30.0159383199404 0
169 90.3219876589643 9.79656848743364 0
170 90.0114745942003 -50.0047423447205 0
171 80.0001580250097 -80.00145705763 0
172 59.9993282209927 -90.0008238659695 0
173 90.0001975659896 -80.0008233687194 0
174 10.0714060192648 -19.9803681558749 0
175 10.2507160483143 10.1001769494883 0
176 10.0093982477701 -49.9982367630068 0
177 19.99977179454 -80.0003158232387 0
178 10.4473104632042 30.1590419545541 0
179 90.4944539473055 39.2106212079805 0
180 40.641989553685 69.9072691922512 0
181 80.4290295283458 67.4153588957658 0
182 80.2079977707939 77.48518486572 0
183 18.2783574827777 82.7422671751183 0
184 22.6037359797701 58.5406226440119 0
185 80.2762821091858 -10.0929577261225 0
186 50.9649551230853 62.3742465481685 0
187 80.0917115986424 -30.0259870939464 0
188 60.0000929676272 -80.0017662479051 0
189 39.9999376572599 -80.001060763618 0
190 20.5145219658871 10.1968545425381 0
191 20.0414664903011 -39.9929508188795 0
192 31.0240724173329 68.1774169544554 0
193 20.3592730035159 0.116897928050419 0
194 70.0036630975526 -70.0031488589218 0
195 80.0222095358027 -50.0079937950935 0
196 80.0094129035918 -60.0046003095217 0
197 70.0005375040598 -80.0017853401156 0
198 20.14185153862 -19.9668431525204 0
199 20.01948885847 -49.9973545159363 0
200 30.0103910588266 -60.0000557230165 0
201 30.0030310460738 -70.0006270490103 0
202 80.6606084502543 9.65224195959223 0
203 80.9247235771542 47.9245507504195 0
204 81.084870210486 28.9171038214325 0
205 20.8700794937693 30.3647761705085 0
206 21.5381250405749 50.0471026170342 0
207 60.3980796194103 73.7161273204749 0
208 71.037022830985 56.1390278838963 0
209 70.6429539171051 65.8251217384076 0
210 70.9962237099565 9.64357644351878 0
211 30.3446132061494 -9.92813324651952 0
212 30.1167374350637 -29.9840531058698 0
213 60.0046997814763 -70.002972355273 0
214 31.3196005983832 30.6759788404457 0
215 41.1421715870501 60.7857254189408 0
216 30.8044536950124 10.2692906742837 0
217 71.5332450311757 46.6983706273798 0
218 31.5311880938515 59.4798196235227 0
219 50.0005552484978 -80.0014725027891 0
220 70.0315216172502 -50.0088172918486 0
221 80.4453291806914 -0.179944294355862 0
222 80.1663090817865 -20.0487321970979 0
223 80.0492630785166 -40.0142477264705 0
224 70.0137970137939 -60.0052754961961 0
225 30.0285971371112 -49.9980885632523 0
226 40.0139825160956 -60.0013880780435 0
227 40.0046259548019 -70.0013792742036 0
228 31.448398051291 40.7244598460602 0
229 71.4941713665478 19.2280310948282 0
230 81.0978884240036 38.4016262317422 0
231 20.6967197343174 20.2945987636047 0
232 61.338524248123 54.5036416775119 0
233 60.8274247570493 64.1026439526521 0
234 70.39331237912 -10.0909858062129 0
235 61.2430924607638 9.81818289024414 0
236 62.1039111925279 45.0039071456015 0
237 40.0363439790731 -50.0004750906207 0
238 41.9942476273139 31.1387376799973 0
239 71.9370184381026 28.482533093397 0
240 50.0163309339547 -60.0031112147669 0
241 60.0383312866623 -50.0071606272144 0
242 70.130202632309 -30.0266064936804 0
243 70.069933151805 -40.0150898170792 0
244 60.0171575211415 -60.0046294856729 0
245 50.006181304662 -70.0022471141532 0
246 30.2101701572838 -19.9648362573814 0
247 30.0631701670538 -39.9934609263015 0
248 70.6444118490367 -0.176429684158885 0
249 31.5539183765301 50.3687872327963 0
250 30.5473565798335 0.141965774629291 0
251 31.1025599510538 20.4682763763015 0
252 71.9579479948506 37.5447211256369 0
253 51.4875370500952 52.8264913220685 0
254 40.4396869051584 -9.94860500187515 0
255 41.0966774950365 10.2538305266191 0
256 62.0337343028486 19.5912678647174 0
257 41.8663488618817 41.5132794305751 0
258 50.0414119326191 -50.0038787122999 0
259 60.0825167409508 -40.0111752107427 0
260 70.2356474278035 -20.0484945861785 0
261 40.1474290413411 -29.9913765047623 0
262 40.080057084102 -39.9976404506732 0
263 60.4704981655773 -10.0523645669434 0
264 60.7759883124271 -0.094692821407825 0
265 41.6387640042183 20.5954998208595 0
266 52.2310398727606 42.9987793174127 0
267 41.5166477275355 51.3803370172286 0
268 63.4496653528755 28.1961524352757 0
269 63.481021133155 36.6622287204257 0
270 60.1568617934688 -30.0180185560846 0
271 50.7987988920366 0.0232362210845339 0
272 51.2897612842834 10.082316152483 0
273 52.1057654994225 20.2964735769198 0
274 50.1634591168198 -30.0042741459108 0
275 40.2663224310076 -19.9774676968318 0
276 50.0899006677989 -40.0043231815403 0
277 60.2824500059152 -20.0301070428092 0
278 40.7163689002235 0.113804190475459 0
279 53.859725246513 31.806363204191 0
280 50.294469854168 -20.0022985953719 0
281 50.4976367519132 -9.9958146661725 0
282 -9.89804959589345 -30.0118168687938 0
283 -9.61803325742261 -0.0270821588230667 0
284 -89.785911767668 -20.0040895184687 0
285 -39.9898123112398 -90.0023350701562 0
286 -89.9730553051824 -60.0037291643122 0
287 -80.3914650086995 90.1527117414431 0
288 -88.8426257060188 20.852960099605 0
289 -60.6087065406757 89.9837382723806 0
290 -9.97615937829546 -60.0043681030388 0
291 -69.9909514510295 -90.0018493181914 0
292 -40.7649130633398 90.0948078007411 0
293 -8.75252296143637 29.2969173344515 0
294 -10.5376188938881 78.6857029283079 0
295 -20.8678235225542 89.4153906808062 0
296 -9.99681783084475 -90.0007838941935 0
297 -79.9932715351201 -90.0013193025828 0
298 -89.6081442043874 41.1099211240345 0
299 -19.9937756492799 -90.0014882639402 0
300 -49.9890894919241 -90.002407384694 0
301 -89.4097334018328 0.0944305385417836 0
302 -89.8699600764658 -30.0078047995285 0
303 -89.9212573349778 -40.0070460723476 0
304 -89.9846371267311 -70.0024518652863 0
305 -89.9917556873195 -80.001467946973 0
306 -89.9963611987998 -90.0006890259308 0
307 -9.4005023744603 9.93207945405546 0
308 -9.83987486071162 -20.0149452882464 0
309 -9.96005550796089 -50.0063604263887 0
310 -9.99245802516626 -80.0016982265708 0
311 -90.1926555506212 90.1100052925454 0
312 -90.359941553354 80.2758074750588 0
313 -8.78759023710736 38.6961840540231 0
314 -10.4309781730323 89.4656272950431 0
315 -90.2953053997919 60.6286618934651 0
316 -9.62738991342422 57.8931926003094 0
317 -18.9093598092073 9.95844086495107 0
318 -19.8021222362045 -30.0233667048815 0
319 -79.6056204029717 -20.0200038570305 0
320 -39.975789919646 -80.0050962741193 0
321 -80.8107157348552 80.4631397163736 0
322 -16.975455951486 28.7084612124433 0
323 -19.9223404724812 -50.0122415655415 0
324 -19.9853491821125 -80.0032232032356 0
325 -79.9705504318608 -70.0048068959498 0
326 -22.3611873564669 77.3853509935919 0
327 -29.9910254266656 -90.0020429462988 0
328 -59.9893441641123 -90.0022441899234 0
329 -89.9528755591611 -50.0053670485587 0
330 -79.9840060807579 -80.002876110531 0
331 -9.75130426346017 -10.0184702334546 0
332 -9.93407043971547 -40.0088710512971 0
333 -9.98576611535725 -70.0028606475302 0
334 -79.7563423591617 -30.0189589545876 0
335 -89.6423140602498 -9.9838563685084 0
336 -89.1306169832061 31.2235797187638 0
337 -79.3070943856802 42.8032015199392 0
338 -89.0402104013145 10.3645085264764 0
339 -70.5488847801941 90.0836869109692 0
340 -50.627605636022 89.9972204160092 0
341 -30.9670959609909 89.8721710927102 0
342 -90.4236208251522 70.4968246295827 0
343 -19.3350931684069 55.6722844716075 0
344 -9.06152953953739 19.7403772096589 0
345 -80.8109026286268 61.6554902040943 0
346 -9.18096649885139 48.1732641457862 0
347 -76.538244103699 21.8673028277679 0
348 -69.4838904735855 -20.0452346016938 0
349 -61.3043129838109 79.7817202147551 0
350 -19.9525708683423 -60.0083628917498 0
351 -41.2616328716283 80.3548909988673 0
352 -17.0388391531013 37.3951257807863 0
353 -78.3807091170832 33.043478836106 0
354 -69.177693887024 44.9035274062387 0
355 -18.2477821675999 19.8804716892676 0
356 -32.35921309139 80.8527390120639 0
357 -29.979205736304 -80.0044192309788 0
358 -59.9750993446397 -80.0048784369149 0
359 -49.9737851228847 -80.0052810575705 0
360 -69.959127080099 -70.0068732612583 0
361 -79.9475163766494 -60.0074322144016 0
362 -19.6914251468047 -20.0298363810994 0
363 -19.2874854747139 -0.036847954310039 0
364 -19.8728772340167 -40.0172753012148 0
365 -19.9720670339353 -70.0054503200869 0
366 -69.9777185056984 -80.0040922019136 0
367 -79.9105378532985 -50.0108154134476 0
368 -79.8500591772625 -40.0149429768167 0
369 -79.3533237452753 -10.0083039310431 0
370 -78.939958585615 0.0490361936782032 0
371 -71.2370217750462 80.2433299319672 0
372 -72.0641867177627 62.8496375443325 0
373 -29.1995851763098 53.3804939713898 0
374 -81.0766689863627 71.0172317571464 0
375 -32.0654630914304 71.9636461262663 0
376 -18.4637089918955 45.9170875450398 0
377 -29.8891619393818 -50.017108675859 0
378 -27.9130820758846 20.2718601183739 0
379 -69.8775004611877 -50.0158915058608 0
380 -29.7192636332384 -30.0342139963154 0
381 -28.2005291330205 43.2919535353608 0
382 -59.1906040213019 47.0320353145515 0
383 -29.960942791665 -70.0074774020656 0
384 -66.5890201831841 27.042652097294 0
385 -62.567607333937 68.1308150384801 0
386 -28.61133011374 10.0093354189278 0
387 -49.9508182702418 -70.0089862363175 0
388 -78.2066586554137 10.2814569240579 0
389 -59.9517161160226 -70.0083810347711 0
390 -69.6746754741443 -30.0323342906369 0
391 -69.926399790337 -60.0107579295432 0
392 -69.1779130353279 -10.0649780366371 0
393 -51.1104529764527 79.8365454837695 0
394 -19.5273374482782 -10.0349613852265 0
395 -39.1996400587114 51.1700273333681 0
396 -41.0093742399434 70.7178750829576 0
397 -72.4377450394084 71.4892971151419 0
398 -68.1567651703518 35.4125635550964 0
399 -38.4831674561793 9.92801627211974 0
400 -59.6336553746633 -30.0429914824526 0
401 -38.3821915676015 41.0487998214258 0
402 -26.3742893978878 31.971567149376 0
403 -29.0469580103555 -0.0503840086407122 0
404 -49.2185991408917 49.089210971405 0
405 -69.7960180629891 -40.0229616716535 0
406 -39.9530908851526 -70.0087267606727 0
407 -29.931891655935 -60.0115909020603 0
408 -49.9132685507498 -60.0141032566464 0
409 -59.9142861239373 -60.0131425829897 0
410 -59.4237067022055 -20.065701911115 0
411 -29.8191226342079 -40.024582223214 0
412 -68.7022488083412 -0.105984696568517 0
413 -66.5146473434942 18.4761250889133 0
414 -29.5674887824997 -20.0455208275875 0
415 -50.9949851667664 69.4218820356041 0
416 -58.3639779611941 37.5262661767245 0
417 -38.0197299963071 20.1579065329177 0
418 -39.478368995408 -20.0610643682782 0
419 -59.7672757057373 -40.0290842262677 0
420 -39.8647612778209 -50.0203280145226 0
421 -38.8907079011614 -0.102630386959621 0
422 -37.8746021335058 30.6326641558326 0
423 -49.6263626285841 -30.0467215559617 0
424 -39.9170683096586 -60.0136359314576 0
425 -49.8525874534168 -50.0213053002542 0
426 -59.8545495250632 -50.019773189786 0
427 -59.1159914373837 -10.1085030523247 0
428 -39.7795937673677 -40.0297830197148 0
429 -29.3468279293035 -10.0550724826267 0
430 -67.921737678506 9.74922014860363 0
431 -48.5137964381667 39.2684029046429 0
432 -57.7295175382457 28.217284058353 0
433 -48.360590534397 9.7036430077436 0
434 -58.6817644702991 -0.20766629861091 0
435 -58.1196426162072 9.51246976339145 0
436 -49.4225297129889 -20.070550295215 0
437 -57.6578919790755 18.9544892454286 0
438 -49.7588719958302 -40.0315949333544 0
439 -39.6518268381434 -30.0429645258302 0
440 -39.218765080601 -10.084008189656 0
441 -48.0446156443146 19.5635671157223 0
442 -48.0681656163465 29.4208627878739 0
443 -48.765557255343 -0.182262656267334 0
444 -49.1327180592921 -10.1106513825037 0
445 0 69.9999999666667 0
446 0 -100 0
447 0 100 0
448 0 -100 100
449 0 100 100
450 0 -100 -100
451 0 100 -100
452 0 89.9999999888889 0
453 0 79.9999999777778 0
454 0 59.9999999686274 0
455 0 49.9999999705882 0
456 0 39.999999972549 0
457 0 29.9999999745098 0
458 0 19.9999999764706 0
459 0 9.99999997843136 0
460 0 -1.96078508984954E-08 0
461 0 -10.0000000176471 0
462 0 -20.0000000156863 0
463 0 -30.0000000137255 0
464 0 -40.0000000117647 0
465 0 -50.0000000098039 0
466 0 -60.0000000078431 0
467 0 -70.0000000058823 0
468 0 -80.0000000039215 0
469 0 -90.0000000019608 0
470 0 -90 100
471 0 -80 100
472 0 -70 100
473 0 -60 100
474 0 -50 100
475 0 -40 100
476 0 -30 100
477 0 -20 100
478 0 -10 100
479 0 0 100
480 0 10 100
481 0 20 100
482 0 30 100
483 0 40 100
484 0 50 100
485 0 60 100
486 0 70 100
487 0 80 100
488 0 90 100
489 0 -100 10
490 0 -100 20
491 0 -100 30
492 0 -100 40
493 0 -100 50
494 0 -100 60
495 0 -100 70
496 0 -100 80
497 0 -100 90
498 0 100 90
499 0 100 80
500 0 100 70
501 0 100 60
502 0 100 50
503 0 100 40
504 0 100 30
505 0 100 20
506 0 100 10
507 0 -100 -90
508 0 -100 -80
509 0 -100 -70
510 0 -100 -60
511 0 -100 -50
512 0 -100 -40
513 0 -100 -30
514 0 -100 -20
515 0 -100 -10
516 0 90 -100
517 0 80 -100
518 0 70 -100
519 0 60 -100
520 0 50 -100
521 0 40 -100
522 0 30 -100
523 0 20 -100
524 0 10 -100
525 0 0 -100
526 0 -10 -100
527 0 -20 -100
528 0 -30 -100
529 0 -40 -100
530 0 -50 -100
531 0 -60 -100
532 0 -70 -100
533 0 -80 -100
534 0 -90 -100
535 0 100 -10
536 0 100 -20
537 0 100 -30
538 0 100 -40
539 0 100 -50
540 0 100 -60
541 0 100 -70
542 0 100 -80
543 0 100 -90
544 0 -29.9984140469634 9.97990410854302
545 0 20.0016040021968 9.98234291615139
546 0 -39.9988531579384 89.9842168544127
547 0 20.0013286279764 89.9843506177421
548 0 -89.9993647766754 49.9911290459175
549 0 60.0007433725332 9.99300514723497
550 0 50.0008038381765 89.9915529484327
551 0 -59.9990845128239 9.98782820730827
552 0 90.0004551489283 59.9959161194285
553 0 -69.9994373027528 89.9919539991191
554 0 90.0004224181933 29.9963405214348
555 0 70.0004436218808 89.9956794790956
556 0 -89.9994539247648 29.9925083193475
557 0 -19.9985778242948 89.9811925729777
558 0 90.0001385342217 89.9987222204789
559 0 -89.999651416927 79.9949937251111
560 0 0.00182584149679887 9.97854826684671
561 0 90.0001665319452 9.99857303480133
562 0 80.0003410850969 9.9970033421406
563 0 -89.9995976818051 19.9945168457416
564 0 -69.9993316912518 9.99102661996488
565 0 -79.9995676585649 9.99415492216997
566 0 90.0004824960872 39.9957630341288
567 0 0.0014838969244344 89.9813730995853
568 0 -59.9992387776924 89.989229508466
569 0 30.0011684851014 89.9867316200162
570 0 -89.9995118163968 69.9930503976083
571 0 90.000376066411 69.9965785432244
572 0 -89.9998198188117 89.9974030795848
573 0 40.0011955035169 9.98780021415608
574 0 -9.99819615492863 9.97819121877345
575 0 -39.9986280869067 9.98228074914428
576 0 -89.9997891917616 9.99713843822966
577 0 -9.99667243793714 19.9595856726431
578 0 -29.9970954362194 19.963044486309
579 0 20.0025170139254 79.9705303232449
580 0 80.00086162204 29.9923190075285
581 0 -69.9989259440367 79.9847623322831
582 0 80.0009301291608 59.9914225770449
583 0 -59.9983086589654 19.9774207268771
584 0 -79.9989059122977 29.9850552211725
585 0 -69.9987680851741 19.9833936908204
586 0 70.0005283841394 9.99519099120531
587 0 -89.9993840853197 39.9914864359597
588 0 -9.99853296079544 89.9810977949105
589 0 -29.9987072865258 89.9825658130728
590 0 10.0014098240269 89.9828521779975
591 0 40.0009852461863 89.9892270301782
592 0 90.000490269217 49.9956210251645
593 0 -49.9990469799772 89.9867042274429
594 0 -79.9992995836646 79.9900098039264
595 0 60.0006144903769 89.993784560097
596 0 -89.9994148338743 59.9917529512876
597 0 80.0002837282064 89.9973155673098
598 0 90.0002668451452 79.9975416714261
599 0 -79.9996384224264 89.9948261484495
600 0 10.0017155771064 9.98043922837205
601 0 30.0013926819977 9.98519257457994
602 0 -49.9988704649631 9.98517632274521
603 0 50.000955335279 9.99060961312545
604 0 -79.9992021120384 19.9891723213592
605 0 80.0006341392228 19.9943639079645
606 0 90.0003065903777 19.9973194664314
607 0 -19.9983248284448 9.97922424871021
608 0 -9.99720219129435 79.9641807786368
609 0 20.0029215735739 19.9676092469818
610 0 60.0013729720792 19.986946627155
611 0 80.000982432587 39.9911195096153
612 0 -29.9975312252697 79.9669210167581
613 0 40.0018847192485 79.9794861460771
614 0 -79.9988194829476 59.9834387602362
615 0 -79.9987612587723 39.982954344289
616 0 60.0011790544342 79.9881247070762
617 0 80.0007686123102 69.9928175719567
618 0 -39.9974964100924 19.9675326355953
619 0 0.00328972986208342 19.9611324222474
620 0 -19.9968785955954 19.9611245239259
621 0 70.0013274596856 29.9877109037136
622 0 70.0009752661807 19.9910055554604
623 0 80.0010007922856 49.9908274508712
624 0 10.0026948968064 79.9674124400072
625 0 30.0022038665649 79.9751030601651
626 0 -69.9985064684935 69.9790120436092
627 0 -49.9981749230431 79.9746975839831
628 0 80.0005460167624 79.9948446774229
629 0 -59.9985621381596 79.9798503593574
630 0 -79.9990275080848 69.9862621730567
631 0 40.0021877825172 19.9774758745472
632 0 -49.9979151491953 19.9725268428318
633 0 -59.9977588333985 29.9698966684787
634 0 -69.9983639377146 29.9778171381851
635 0 -19.9958286266809 29.947715040462
636 0 10.0037307786628 69.9552622063942
637 0 30.0030646260473 69.9656388322593
638 0 -69.9982193682037 59.9752355560713
639 0 60.0018269404004 29.982409916071
640 0 70.0015491742152 49.985332931276
641 0 -9.99568098858031 29.9471738907162
642 0 -79.9987444714119 49.9825856542347
643 0 -49.9974709802227 69.9652684758367
644 0 0.00275934706936094 79.9656540162511
645 0 -19.9973463018367 79.9652418004465
646 0 -39.9978549615886 79.9707873449271
647 0 -59.9980088906318 69.9723583443019
648 0 50.0015154018534 79.984116155591
649 0 70.001191092036 69.9885018884813
650 0 70.0008437475498 79.9917693606959
651 0 50.0017521779736 19.9825963275767
652 0 30.0025389676846 19.9727945566208
653 0 -49.997216209265 29.9631012475413
654 0 -59.9974648382657 39.9656963593016
655 0 -69.9981448392414 39.9746686120768
656 0 70.0015031951687 39.98587001329
657 0 -29.9962313415339 29.9517388379923
658 0 10.0031269840624 19.9641325607139
659 0 -19.9953462969308 39.9412067684343
660 0 10.0041714253962 29.9518129817167
661 0 40.0028868889686 29.9699663709151
662 0 -29.9965952858531 69.9548273162873
663 0 -49.9968482152209 39.9579245631881
664 0 50.0023284283582 29.9766365691347
665 0 -59.9974308113791 49.9649548073599
666 0 -49.9970057870781 59.9593124083371
667 0 60.0020648500099 39.9798443792401
668 0 -9.99616179307863 69.9513332662032
669 0 -39.9970414210332 69.9600857600119
670 0 0.00380642821828097 69.9530399306227
671 0 20.0034136558564 69.9603804725188
672 0 -59.9976401441786 59.9675677568369
673 0 40.002581076049 69.9720869858871
674 0 60.0016362478713 69.9835951683227
675 0 70.0014240104775 59.9863351026436
676 0 -69.9981242296604 49.9742016395385
677 0 -39.996739466045 29.9574842322374
678 0 20.0037975411613 29.9575163565516
679 0 0.00427967618183145 29.9490300812524
680 0 0.00485660604507765 39.9416793659487
681 0 20.0040646857622 59.9532393221507
682 0 0.00455235787135266 59.9443390537701
683 0 60.0019587504902 59.9804993638365
684 0 -29.995791177409 39.9457079325148
685 0 -29.9959664003646 59.9470224323662
686 0 -9.99521088080719 39.9409239079467
687 0 40.0032578809998 39.9657251765878
688 0 -49.9968214357983 49.9572511798692
689 0 -19.9963676405529 69.9528856551765
690 0 60.0021027304794 49.979231789196
691 0 -39.996508698571 59.9533689872757
692 0 30.003586858771 59.9601120434647
693 0 50.0026275545834 39.9733058025619
694 0 50.0020874246653 69.9782223592297
695 0 30.0033261435778 29.9640061070475
696 0 -39.9963413618123 39.951961241363
697 0 10.0046193948672 39.9461509266059
698 0 20.0042468659269 39.9520271715666
699 0 -19.995661655512 59.9442497916203
700 0 50.0026850257926 49.972434946461
701 0 -9.99514332560654 49.9395796537487
702 0 -19.9953955480388 49.9413654010558
703 0 0.00481952626281812 49.9416222325387
704 0 30.0037432997053 39.9590900239422
705 0 -29.9957951339821 49.9453526805549
706 0 20.0042933870115 49.9510090609417
707 0 -9.99558539533054 59.9446288682861
708 0 10.0042966106037 59.9489723914713
709 0 40.0030422947274 59.9673257507616
710 0 50.0024677474072 59.9744072646567
711 0 -39.9963176647539 49.9512946350443
712 0 40.00323863522 49.9654704313684
713 0 30.0037565375612 49.9585073836332
714 0 10.004565558392 49.9462570552057
715 0 -29.9988680243884 -9.96827371879359
716 0 10.0010727017119 -9.96860878678337
717 0 40.0006452935559 -9.98103937045845
718 0 -19.999353774654 -89.9687428411488
719 0 20.0005118179665 -89.9749709412487
720 0 -89.9994992069319 -39.9857620301378
721 0 90.0001959933896 -49.9932765566243
722 0 -59.9995824631208 -89.9820181575353
723 0 60.000372683377 -9.98921909326848
724 0 70.0001477104601 -89.9932221978457
725 0 90.0001851650631 -29.9944090623303
726 0 -59.9992530454628 -9.98046009047638
727 0 -89.9996744884818 -69.9883936984003
728 0 90.0000895781397 -79.9961985968542
729 0 80.000162335539 -9.99541425914187
730 0 90.0001415175752 -19.9958935699998
731 0 -89.9998041222816 -9.99517799428934
732 0 -89.9997818739806 -79.9916910730403
733 0 -89.9996476280761 -19.9909954251768
734 0 -89.9995193364283 -49.9852822073267
735 0 0.000620052831448725 -89.969719280898
736 0 -29.9993785123139 -89.9708021249037
737 0 40.0003595378758 -89.9827368205017
738 0 90.000133401762 -69.9947023545961
739 0 -39.9994274909328 -89.9739849375462
740 0 -69.9996792029954 -89.9866622531874
741 0 60.000211654706 -89.9901509828942
742 0 90.0000451126563 -89.9980096447706
743 0 -79.9997831179928 -89.9912296466682
744 0 -89.9998909797271 -89.9956902828492
745 0 -9.99880966862027 -9.96559747584166
746 0 20.0009332979114 -9.97247600867568
747 0 -49.9990994282502 -9.97582502978504
748 0 -79.9996204478246 -9.99042261372645
749 0 90.0000765340723 -9.99782733518396
750 0 10.0019076695284 -19.9421193122352
751 0 -19.9987013262582 -79.9413126329509
752 0 -79.9990244933288 -39.9717368424684
753 0 -49.9983867609338 -19.955188625353
754 0 -79.9993137922952 -19.9820826091861
755 0 70.0002984506481 -79.9870596204703
756 0 -69.9993573028288 -79.9746468716973
757 0 -19.9988372486581 -9.96666666829511
758 0 70.0002571567106 -9.99260611539143
759 0 -89.9995553799643 -29.9879659573656
760 0 90.0002022331517 -39.9935061138622
761 0 -29.9987553636108 -79.9453922268797
762 0 10.000574570541 -89.9721763929617
763 0 -9.99935647359389 -89.9692030369253
764 0 30.0004385781104 -89.978951662519
765 0 90.0001708693776 -59.9936845503309
766 0 80.0001886014455 -79.9919807016103
767 0 50.0002837644315 -89.9866913680453
768 0 -89.9995843180089 -59.9862598271316
769 0 -49.9994970652001 -89.9779276765644
770 0 -79.9995669148571 -79.9833965472776
771 0 80.0000949994517 -89.9958098594213
772 0 30.0007783936098 -9.97692125379239
773 0 50.0004949683945 -9.9854567133842
774 0 -39.9989949641474 -9.97217198062656
775 0 -69.9994489422726 -9.98571077516174
776 0 80.0002943829008 -19.9913588776483
777 0 0.00111710497988787 -9.96718090739384
778 0 -19.9978978072277 -19.9378093601757
779 0 40.0011527936259 -19.9648734865105
780 0 10.0011520093891 -79.9472642700299
781 0 30.0008784800435 -79.9601165082341
782 0 -19.9980821430315 -69.9202688325858
783 0 80.0004206821957 -39.9863555431964
784 0 0.00201833996436047 -19.9387936982011
785 0 20.0016552310656 -19.9493628511972
786 0 -59.9986937878881 -19.9643195376958
787 0 70.000469685331 -19.9860581039285
788 0 -79.9991234475935 -29.9759082325439
789 0 -9.99871103038119 -79.941776308368
790 0 80.0003560679243 -59.9867217247679
791 0 70.0004436865053 -69.9820360770498
792 0 -79.9991773727277 -59.9724472073566
793 0 -79.9990653786561 -49.9708992540327
794 0 -49.9989939848624 -79.958133357011
795 0 -59.9991671144021 -79.9665163459863
796 0 -69.9990536873469 -69.9652343103707
797 0 -39.9988577751896 -79.9514915049958
798 0 50.0005695395255 -79.9745973287618
799 0 60.0004276065079 -79.9813388045365
800 0 80.000279946242 -69.9888552346537
801 0 -79.9993646610002 -69.977194952097
802 0 60.0006700994381 -19.9798656842232
803 0 -39.9981834733387 -19.9481037792262
804 0 -69.9990145666367 -19.9734989957706
805 0 80.0003808590744 -29.9882602312762
806 0 10.0023916331525 -29.9235126458309
807 0 -49.9979804776198 -29.9408015385098
808 0 -39.9983145832677 -69.9332824279835
809 0 -9.9980924405331 -69.9200700916251
810 0 70.000566558477 -59.9786782075734
811 0 -59.9987736897388 -69.9539414255563
812 0 -69.9987245494316 -29.9641064525895
813 0 -9.9979403026179 -19.9378958872801
814 0 60.0008679244182 -29.9727245061761
815 0 70.0006653075534 -39.9781095470219
816 0 70.0006000565509 -29.9812211567226
817 0 -69.9986278401591 -49.956411258438
818 0 50.0008429287091 -69.9649770959524
819 0 20.0010238523384 -79.9536207130912
820 0 -69.9988084184033 -59.9593282604599
821 0 -29.9981759019312 -69.926334571746
822 0 60.0006315406 -69.9742561174061
823 0 0.00123472897932933 -79.944311163856
824 0 80.0004059265086 -49.9858947658846
825 0 40.0007223065561 -79.9677614941499
826 0 50.0008872639303 -19.9729714145384
827 0 30.0013861088251 -19.9574138205128
828 0 -29.9980359366426 -19.9425610764631
829 0 -19.9973448989171 -29.9173490832034
830 0 40.0014705659103 -29.9529452569929
831 0 10.0016969232884 -69.9282747679549
832 0 -9.99758205253509 -59.9064263257334
833 0 -29.9976833568013 -59.9134084035612
834 0 60.0009413293426 -39.9686193033567
835 0 0.00254208269647035 -29.9188966696057
836 0 50.0011390475917 -29.9636446858268
837 0 -69.9986107160477 -39.9585860334151
838 0 0.00181511672270934 -69.9240198474091
839 0 -59.9984540476738 -59.946021205971
840 0 20.0015046826313 -69.9367023696309
841 0 40.001067477153 -69.9554537360176
842 0 60.0008030081446 -59.9694771317665
843 0 -49.9985369626133 -69.943833824465
844 0 20.0020885229199 -29.9328285044117
845 0 -59.9983641105014 -29.9528068040716
846 0 70.0006419304108 -49.9774392093828
847 0 -29.997495091723 -29.9231861738015
848 0 -39.9977374616203 -29.9318640678929
849 0 10.0025367076798 -39.9137282441974
850 0 -19.9971494693134 -39.9057716212041
851 0 -29.9973172178799 -39.9126692783436
852 0 0.00230445410894775 -59.9104785172956
853 0 -59.998252503699 -49.9431936241074
854 0 -49.9981566188373 -59.9341895003685
855 0 -9.99741327178906 -29.9179983310962
856 0 40.0015915954419 -39.94608787196
857 0 -49.9978505468148 -39.9329596113978
858 0 60.0009097146356 -49.9676679544613
859 0 50.0012350568684 -39.9583115725006
860 0 10.0021274682849 -59.917145588037
861 0 -39.9979035907924 -59.9235472808799
862 0 40.0013523278531 -59.9475188639231
863 0 50.001060383402 -59.9593045502846
864 0 -19.9976086951666 -59.9090982902781
865 0 30.0012857635131 -69.9462988246387
866 0 30.0017568680829 -29.9433447554448
867 0 -59.9982443878843 -39.9462674362262
868 0 30.0019089692083 -39.9349291209192
869 0 0.00270787229341785 -39.9082185100233
870 0 30.001628149203 -59.9367259872272
871 0 -19.9972928418487 -49.904347486913
872 0 -29.9974305843225 -49.9108622550253
873 0 -9.99722955384223 -39.906871034113
874 0 20.0022125002772 -39.9244637325877
875 0 0.00258675934498498 -49.9064451671268
876 0 40.0015152171439 -49.9452463896688
877 0 -39.9976487710824 -49.9201179508871
878 0 -39.9976051265219 -39.9235147856676
879 0 20.0018839801008 -59.9267400249619
880 0 -49.9979664050504 -49.9322344730944
881 0 50.0011900892607 -49.9572870607319
882 0 -9.99734928665916 -49.9049804121899
883 0 10.0023780024731 -49.913728095477
884 0 20.0021113442175 -49.9233278759557
885 0 30.0018072397708 -49.9344526618049
$EndNodes
$Elements
807
1 2 2 1 1 132 183 134 
2 2 2 1 1 103 153 104 
3 2 2 1 1 133 184 159 
4 2 2 1 1 269 279 268 
5 2 2 1 1 356 375 326 
6 2 2 1 1 385 397 372 
7 2 2 1 1 352 402 322 
8 2 2 1 1 347 413 384 
9 3 2 1 1 5 56 1 28
10 3 2 1 1 129 36 37 142
11 3 2 1 1 124 12 13 139
12 3 2 1 1 10 142 37 4
13 3 2 1 1 50 144 118 49
14 3 2 1 1 53 136 123 52
15 3 2 1 1 142 10 11 173
16 3 2 1 1 122 33 34 172
17 3 2 1 1 173 11 12 124
18 3 2 1 1 35 36 129 141
19 3 2 1 1 172 34 35 141
20 3 2 1 1 129 171 197 141
21 3 2 1 1 125 31 32 166
22 3 2 1 1 171 129 142 173
23 3 2 1 1 143 47 48 174
24 3 2 1 1 139 13 14 170
25 3 2 1 1 138 19 20 169
26 3 2 1 1 120 15 16 168
27 3 2 1 1 128 17 18 167
28 3 2 1 1 173 124 160 171
29 3 2 1 1 194 197 171 160
30 3 2 1 1 172 141 197 188
31 3 2 1 1 166 32 33 122
32 3 2 1 1 187 223 120 168
33 3 2 1 1 144 50 51 176
34 3 2 1 1 188 219 122 172
35 3 2 1 1 48 49 118 174
36 3 2 1 1 185 234 260 222
37 3 2 1 1 168 128 222 187
38 3 2 1 1 170 14 15 120
39 3 2 1 1 168 16 17 128
40 3 2 1 1 167 18 19 138
41 3 2 1 1 161 118 144 191
42 3 2 1 1 167 138 221 185
43 3 2 1 1 196 160 124 139
44 3 2 1 1 170 120 223 195
45 3 2 1 1 51 52 123 176
46 3 2 1 1 199 191 144 176
47 3 2 1 1 195 196 139 170
48 3 2 1 1 202 221 138 169
49 3 2 1 1 185 222 128 167
50 3 2 1 1 160 196 224 194
51 3 2 1 1 246 211 154 198
52 3 2 1 1 187 222 260 242
53 3 2 1 1 196 195 220 224
54 3 2 1 1 118 161 198 174
55 3 2 1 1 224 220 241 244
56 3 2 1 1 30 31 125 135
57 3 2 1 1 240 226 227 245
58 3 2 1 1 194 224 244 213
59 3 2 1 1 223 187 242 243
60 3 2 1 1 197 194 213 188
61 3 2 1 1 243 220 195 223
62 3 2 1 1 154 143 174 198
63 3 2 1 1 54 137 136 53
64 3 2 1 1 29 30 135 145
65 3 2 1 1 145 137 54 55
66 3 2 1 1 29 145 55 6
67 3 2 1 1 220 243 259 241
68 3 2 1 1 212 246 198 161
69 3 2 1 1 275 254 211 246
70 3 2 1 1 162 199 176 123
71 3 2 1 1 270 259 243 242
72 3 2 1 1 240 245 213 244
73 3 2 1 1 177 137 145 135
74 3 2 1 1 166 122 219 189
75 3 2 1 1 189 163 125 166
76 3 2 1 1 165 162 123 136
77 3 2 1 1 135 125 163 177
78 3 2 1 1 200 201 227 226
79 3 2 1 1 200 225 199 162
80 3 2 1 1 201 200 162 165
81 3 2 1 1 177 165 136 137
82 3 2 1 1 225 247 191 199
83 3 2 1 1 247 212 161 191
84 3 2 1 1 246 212 261 275
85 3 2 1 1 163 201 165 177
86 3 2 1 1 226 237 225 200
87 3 2 1 1 227 201 163 189
88 3 2 1 1 276 274 261 262
89 3 2 1 1 259 270 274 276
90 3 2 1 1 237 262 247 225
91 3 2 1 1 262 261 212 247
92 3 2 1 1 245 227 189 219
93 3 2 1 1 219 188 213 245
94 3 2 1 1 258 241 259 276
95 3 2 1 1 276 262 237 258
96 3 2 1 1 237 226 240 258
97 3 2 1 1 244 241 258 240
98 3 2 1 1 211 250 193 154
99 3 2 1 1 277 270 242 260
100 3 2 1 1 254 278 250 211
101 3 2 1 1 274 270 277 280
102 3 2 1 1 275 261 274 280
103 3 2 1 1 263 264 271 281
104 3 2 1 1 260 234 263 277
105 3 2 1 1 277 263 281 280
106 3 2 1 1 23 24 126 179
107 3 2 1 1 203 230 179 126
108 3 2 1 1 275 280 281 254
109 3 2 1 1 185 221 248 234
110 3 2 1 1 254 281 271 278
111 3 2 1 1 234 248 264 263
112 3 2 1 1 221 202 210 248
113 3 2 1 1 25 146 126 24
114 3 2 1 1 235 264 248 210
115 3 2 1 1 229 210 202 155
116 3 2 1 1 47 143 130 46
117 3 2 1 1 63 132 134 62
118 3 2 1 1 22 140 121 21
119 3 2 1 1 140 22 23 179
120 3 2 1 1 202 169 121 155
121 3 2 1 1 154 193 130 143
122 3 2 1 1 147 127 41 42
123 3 2 1 1 230 203 217 252
124 3 2 1 1 28 1 149 27
125 3 2 1 1 238 257 228 214
126 3 2 1 1 27 149 148 26
127 3 2 1 1 43 178 147 42
128 3 2 1 1 210 229 256 235
129 3 2 1 1 169 20 21 121
130 3 2 1 1 131 64 7 38
131 3 2 1 1 206 127 147 157
132 3 2 1 1 265 238 214 251
133 3 2 1 1 228 249 206 157
134 3 2 1 1 218 184 206 249
135 3 2 1 1 119 178 43 44
136 3 2 1 1 204 230 252 239
137 3 2 1 1 157 205 214 228
138 3 2 1 1 1 56 57 102
139 3 2 1 1 58 103 102 57
140 3 2 1 1 151 131 38 39
141 3 2 1 1 157 147 178 205
142 3 2 1 1 229 239 268 256
143 3 2 1 1 267 249 228 257
144 3 2 1 1 238 265 273 279
145 3 2 1 1 279 266 257 238
146 3 2 1 1 205 231 251 214
147 3 2 1 1 131 132 63 64
148 3 2 1 1 146 158 203 126
149 3 2 1 1 152 153 59 60
150 3 2 1 1 216 251 231 190
151 3 2 1 1 121 140 204 155
152 3 2 1 1 119 44 45 175
153 3 2 1 1 130 193 190 175
154 3 2 1 1 232 233 186 253
155 3 2 1 1 178 119 231 205
156 3 2 1 1 207 233 209 164
157 3 2 1 1 26 148 146 25
158 3 2 1 1 208 209 233 232
159 3 2 1 1 233 207 156 186
160 3 2 1 1 40 41 127 133
161 3 2 1 1 149 1 102 182
162 3 2 1 1 164 103 104 207
163 3 2 1 1 251 216 255 265
164 3 2 1 1 207 104 105 156
165 3 2 1 1 267 257 266 253
166 3 2 1 1 253 266 236 232
167 3 2 1 1 133 109 3 40
168 3 2 1 1 140 179 230 204
169 3 2 1 1 215 267 253 186
170 3 2 1 1 232 236 217 208
171 3 2 1 1 182 102 103 164
172 3 2 1 1 204 239 229 155
173 3 2 1 1 193 250 216 190
174 3 2 1 1 255 216 250 278
175 3 2 1 1 235 256 273 272
176 3 2 1 1 150 152 60 61
177 3 2 1 1 134 150 61 62
178 3 2 1 1 186 156 180 215
179 3 2 1 1 39 3 109 151
180 3 2 1 1 252 217 236 269
181 3 2 1 1 278 271 272 255
182 3 2 1 1 271 264 235 272
183 3 2 1 1 158 181 209 208
184 3 2 1 1 218 215 180 192
185 3 2 1 1 182 181 148 149
186 3 2 1 1 265 255 272 273
187 3 2 1 1 109 133 159 108
188 3 2 1 1 266 279 269 236
189 3 2 1 1 208 217 203 158
190 3 2 1 1 190 231 119 175
191 3 2 1 1 273 256 268 279
192 3 2 1 1 152 105 104 153
193 3 2 1 1 151 109 108 183
194 3 2 1 1 156 105 106 180
195 3 2 1 1 239 252 269 268
196 3 2 1 1 218 192 159 184
197 3 2 1 1 148 181 158 146
198 3 2 1 1 46 130 175 45
199 3 2 1 1 106 150 134 107
200 3 2 1 1 105 152 150 106
201 3 2 1 1 249 267 215 218
202 3 2 1 1 180 106 107 192
203 3 2 1 1 132 131 151 183
204 3 2 1 1 181 182 164 209
205 3 2 1 1 153 103 58 59
206 3 2 1 1 108 159 192 107
207 3 2 1 1 127 206 184 133
208 3 2 1 1 183 108 107 134
209 3 2 1 1 2 315 77 78
210 3 2 1 1 65 306 92 8
211 3 2 1 1 65 66 297 306
212 3 2 1 1 66 67 291 297
213 3 2 1 1 74 311 101 9
214 3 2 1 1 72 73 296 299
215 3 2 1 1 302 86 87 303
216 3 2 1 1 284 85 86 302
217 3 2 1 1 309 290 52 51
218 3 2 1 1 298 2 78 79
219 3 2 1 1 69 70 285 300
220 3 2 1 1 286 89 90 304
221 3 2 1 1 304 90 91 305
222 3 2 1 1 91 92 306 305
223 3 2 1 1 306 297 330 305
224 3 2 1 1 303 87 88 329
225 3 2 1 1 304 325 361 286
226 3 2 1 1 329 88 89 286
227 3 2 1 1 297 291 366 330
228 3 2 1 1 304 305 330 325
229 3 2 1 1 67 68 328 291
230 3 2 1 1 330 366 360 325
231 3 2 1 1 50 49 282 332
232 3 2 1 1 309 51 50 332
233 3 2 1 1 308 48 47 331
234 3 2 1 1 84 335 301 83
235 3 2 1 1 361 367 329 286
236 3 2 1 1 48 308 282 49
237 3 2 1 1 328 68 69 300
238 3 2 1 1 335 84 85 284
239 3 2 1 1 320 359 300 285
240 3 2 1 1 333 310 54 53
241 3 2 1 1 302 334 319 284
242 3 2 1 1 358 366 291 328
243 3 2 1 1 328 300 359 358
244 3 2 1 1 285 70 71 327
245 3 2 1 1 309 323 350 290
246 3 2 1 1 53 52 290 333
247 3 2 1 1 327 71 72 299
248 3 2 1 1 365 383 357 324
249 3 2 1 1 282 318 364 332
250 3 2 1 1 323 309 332 364
251 3 2 1 1 357 320 285 327
252 3 2 1 1 55 54 310 296
253 3 2 1 1 55 296 73 6
254 3 2 1 1 296 310 324 299
255 3 2 1 1 357 327 299 324
256 3 2 1 1 290 350 365 333
257 3 2 1 1 333 365 324 310
258 3 2 1 1 320 406 387 359
259 3 2 1 1 383 406 320 357
260 3 2 1 1 407 383 365 350
261 3 2 1 1 358 359 387 389
262 3 2 1 1 387 408 409 389
263 3 2 1 1 360 366 358 389
264 3 2 1 1 361 325 360 391
265 3 2 1 1 407 424 406 383
266 3 2 1 1 391 360 389 409
267 3 2 1 1 406 424 408 387
268 3 2 1 1 303 329 367 368
269 3 2 1 1 390 334 368 405
270 3 2 1 1 405 368 367 379
271 3 2 1 1 405 419 400 390
272 3 2 1 1 420 424 407 377
273 3 2 1 1 350 323 377 407
274 3 2 1 1 428 420 377 411
275 3 2 1 1 408 425 426 409
276 3 2 1 1 334 302 303 368
277 3 2 1 1 379 367 361 391
278 3 2 1 1 379 391 409 426
279 3 2 1 1 411 377 323 364
280 3 2 1 1 380 411 364 318
281 3 2 1 1 408 424 420 425
282 3 2 1 1 405 379 426 419
283 3 2 1 1 419 426 425 438
284 3 2 1 1 425 420 428 438
285 3 2 1 1 348 390 400 410
286 3 2 1 1 319 334 390 348
287 3 2 1 1 423 436 410 400
288 3 2 1 1 335 284 319 369
289 3 2 1 1 400 419 438 423
290 3 2 1 1 288 81 82 338
291 3 2 1 1 439 418 436 423
292 3 2 1 1 439 428 411 380
293 3 2 1 1 348 392 369 319
294 3 2 1 1 439 423 438 428
295 3 2 1 1 301 335 369 370
296 3 2 1 1 410 427 392 348
297 3 2 1 1 370 388 338 301
298 3 2 1 1 301 338 82 83
299 3 2 1 1 298 79 80 336
300 3 2 1 1 292 96 97 340
301 3 2 1 1 444 443 434 427
302 3 2 1 1 80 81 288 336
303 3 2 1 1 444 427 410 436
304 3 2 1 1 97 98 289 340
305 3 2 1 1 440 444 436 418
306 3 2 1 1 421 443 444 440
307 3 2 1 1 362 318 282 308
308 3 2 1 1 318 362 414 380
309 3 2 1 1 403 421 440 429
310 3 2 1 1 429 414 362 394
311 3 2 1 1 412 430 388 370
312 3 2 1 1 394 362 308 331
313 3 2 1 1 414 418 439 380
314 3 2 1 1 427 434 412 392
315 3 2 1 1 95 96 292 341
316 3 2 1 1 418 414 429 440
317 3 2 1 1 44 43 293 344
318 3 2 1 1 101 311 287 100
319 3 2 1 1 370 369 392 412
320 3 2 1 1 287 311 312 321
321 3 2 1 1 312 75 76 342
322 3 2 1 1 435 430 412 434
323 3 2 1 1 289 98 99 339
324 3 2 1 1 47 46 283 331
325 3 2 1 1 388 347 288 338
326 3 2 1 1 340 289 349 393
327 3 2 1 1 99 100 287 339
328 3 2 1 1 76 77 315 342
329 3 2 1 1 339 371 349 289
330 3 2 1 1 94 295 314 93
331 3 2 1 1 437 413 430 435
332 3 2 1 1 388 430 413 347
333 3 2 1 1 394 363 403 429
334 3 2 1 1 75 312 311 74
335 3 2 1 1 295 94 95 341
336 3 2 1 1 331 283 363 394
337 3 2 1 1 401 395 404 431
338 3 2 1 1 40 3 110 316
339 3 2 1 1 316 110 111 343
340 3 2 1 1 42 313 293 43
341 3 2 1 1 316 346 41 40
342 3 2 1 1 373 112 113 395
343 3 2 1 1 395 401 381 373
344 3 2 1 1 116 354 382 115
345 3 2 1 1 117 337 354 116
346 3 2 1 1 353 337 298 336
347 3 2 1 1 343 376 346 316
348 3 2 1 1 283 46 45 307
349 3 2 1 1 339 287 321 371
350 3 2 1 1 336 288 347 353
351 3 2 1 1 395 113 114 404
352 3 2 1 1 115 382 404 114
353 3 2 1 1 343 111 112 373
354 3 2 1 1 39 38 314 294
355 3 2 1 1 337 117 2 298
356 3 2 1 1 93 314 38 7
357 3 2 1 1 415 393 349 385
358 3 2 1 1 393 351 292 340
359 3 2 1 1 113 396 415 114
360 3 2 1 1 371 321 374 397
361 3 2 1 1 344 355 317 307
362 3 2 1 1 422 417 378 402
363 3 2 1 1 396 113 112 375
364 3 2 1 1 376 343 373 381
365 3 2 1 1 341 292 351 356
366 3 2 1 1 385 115 114 415
367 3 2 1 1 344 293 322 355
368 3 2 1 1 326 111 110 294
369 3 2 1 1 431 404 382 416
370 3 2 1 1 416 382 354 398
371 3 2 1 1 346 313 42 41
372 3 2 1 1 403 386 399 421
373 3 2 1 1 402 381 401 422
374 3 2 1 1 352 376 381 402
375 3 2 1 1 422 442 441 417
376 3 2 1 1 352 322 293 313
377 3 2 1 1 398 354 337 353
378 3 2 1 1 294 110 3 39
379 3 2 1 1 374 321 312 342
380 3 2 1 1 435 434 443 433
381 3 2 1 1 396 351 393 415
382 3 2 1 1 314 295 326 294
383 3 2 1 1 349 371 397 385
384 3 2 1 1 421 399 433 443
385 3 2 1 1 386 403 363 317
386 3 2 1 1 315 2 117 345
387 3 2 1 1 441 437 435 433
388 3 2 1 1 345 374 342 315
389 3 2 1 1 378 417 399 386
390 3 2 1 1 416 432 442 431
391 3 2 1 1 397 374 345 372
392 3 2 1 1 317 363 283 307
393 3 2 1 1 422 401 431 442
394 3 2 1 1 432 384 413 437
395 3 2 1 1 433 399 417 441
396 3 2 1 1 378 355 322 402
397 3 2 1 1 351 396 375 356
398 3 2 1 1 432 416 398 384
399 3 2 1 1 437 441 442 432
400 3 2 1 1 345 117 116 372
401 3 2 1 1 111 326 375 112
402 3 2 1 1 307 45 44 344
403 3 2 1 1 376 352 313 346
404 3 2 1 1 356 326 295 341
405 3 2 1 1 386 317 355 378
406 3 2 1 1 372 116 115 385
407 3 2 1 1 384 398 353 347
408 3 2 2 2 470 572 497 448
409 3 2 2 2 559 496 497 572
410 3 2 2 2 498 558 488 449
411 3 2 2 2 553 472 473 568
412 3 2 2 2 547 481 482 569
413 3 2 2 2 503 504 554 566
414 3 2 2 2 464 575 544 463
415 3 2 2 2 467 564 551 466
416 3 2 2 2 555 486 487 597
417 3 2 2 2 558 498 499 598
418 3 2 2 2 597 487 488 558
419 3 2 2 2 572 470 471 599
420 3 2 2 2 598 499 500 571
421 3 2 2 2 550 484 485 595
422 3 2 2 2 500 501 552 571
423 3 2 2 2 548 493 494 596
424 3 2 2 2 599 471 472 553
425 3 2 2 2 495 496 559 570
426 3 2 2 2 596 494 495 570
427 3 2 2 2 595 485 486 555
428 3 2 2 2 555 597 628 650
429 3 2 2 2 559 594 630 570
430 3 2 2 2 628 597 558 598
431 3 2 2 2 555 650 616 595
432 3 2 2 2 556 491 492 587
433 3 2 2 2 569 482 483 591
434 3 2 2 2 594 559 572 599
435 3 2 2 2 545 458 459 600
436 3 2 2 2 573 456 457 601
437 3 2 2 2 568 473 474 593
438 3 2 2 2 567 479 480 590
439 3 2 2 2 546 475 476 589
440 3 2 2 2 557 477 478 588
441 3 2 2 2 599 553 581 594
442 3 2 2 2 552 501 502 592
443 3 2 2 2 617 571 552 582
444 3 2 2 2 626 630 594 581
445 3 2 2 2 549 454 455 603
446 3 2 2 2 596 570 630 614
447 3 2 2 2 587 492 493 548
448 3 2 2 2 591 483 484 550
449 3 2 2 2 575 464 465 602
450 3 2 2 2 614 642 548 596
451 3 2 2 2 569 591 613 625
452 3 2 2 2 462 463 544 607
453 3 2 2 2 625 579 547 569
454 3 2 2 2 590 480 481 547
455 3 2 2 2 457 458 545 601
456 3 2 2 2 593 474 475 546
457 3 2 2 2 589 476 477 557
458 3 2 2 2 588 478 479 567
459 3 2 2 2 598 571 617 628
460 3 2 2 2 629 581 553 568
461 3 2 2 2 592 502 503 566
462 3 2 2 2 455 456 573 603
463 3 2 2 2 624 590 547 579
464 3 2 2 2 589 557 645 612
465 3 2 2 2 593 546 646 627
466 3 2 2 2 588 567 644 608
467 3 2 2 2 613 591 550 648
468 3 2 2 2 627 629 568 593
469 3 2 2 2 595 616 648 550
470 3 2 2 2 465 466 551 602
471 3 2 2 2 640 675 582 623
472 3 2 2 2 549 586 445 454
473 3 2 2 2 612 646 546 589
474 3 2 2 2 608 645 557 588
475 3 2 2 2 624 644 567 590
476 3 2 2 2 673 613 648 694
477 3 2 2 2 618 578 544 575
478 3 2 2 2 649 650 628 617
479 3 2 2 2 617 582 675 649
480 3 2 2 2 581 629 647 626
481 3 2 2 2 674 616 650 649
482 3 2 2 2 647 643 666 672
483 3 2 2 2 632 618 575 602
484 3 2 2 2 490 491 556 563
485 3 2 2 2 629 627 643 647
486 3 2 2 2 694 648 616 674
487 3 2 2 2 601 545 609 652
488 3 2 2 2 665 654 655 676
489 3 2 2 2 626 647 672 638
490 3 2 2 2 613 673 637 625
491 3 2 2 2 623 582 552 592
492 3 2 2 2 652 609 678 695
493 3 2 2 2 630 626 638 614
494 3 2 2 2 646 612 662 669
495 3 2 2 2 671 579 625 637
496 3 2 2 2 669 643 627 646
497 3 2 2 2 580 611 566 554
498 3 2 2 2 683 674 649 675
499 3 2 2 2 662 612 645 689
500 3 2 2 2 674 683 710 694
501 3 2 2 2 709 673 694 710
502 3 2 2 2 636 624 579 671
503 3 2 2 2 592 566 611 623
504 3 2 2 2 468 565 564 467
505 3 2 2 2 668 608 644 670
506 3 2 2 2 489 490 563 576
507 3 2 2 2 576 565 468 469
508 3 2 2 2 489 576 469 446
509 3 2 2 2 608 668 689 645
510 3 2 2 2 624 636 670 644
511 3 2 2 2 643 669 691 666
512 3 2 2 2 675 640 690 683
513 3 2 2 2 682 670 636 708
514 3 2 2 2 671 681 708 636
515 3 2 2 2 682 707 668 670
516 3 2 2 2 652 631 573 601
517 3 2 2 2 673 709 692 637
518 3 2 2 2 665 676 638 672
519 3 2 2 2 700 710 683 690
520 3 2 2 2 583 632 602 551
521 3 2 2 2 685 691 669 662
522 3 2 2 2 604 565 576 563
523 3 2 2 2 681 671 637 692
524 3 2 2 2 587 548 642 615
525 3 2 2 2 615 584 556 587
526 3 2 2 2 677 657 578 618
527 3 2 2 2 653 677 618 632
528 3 2 2 2 585 583 551 564
529 3 2 2 2 633 653 632 583
530 3 2 2 2 655 654 633 634
531 3 2 2 2 563 556 584 604
532 3 2 2 2 634 633 583 585
533 3 2 2 2 604 585 564 565
534 3 2 2 2 689 668 707 699
535 3 2 2 2 699 685 662 689
536 3 2 2 2 713 692 709 712
537 3 2 2 2 584 634 585 604
538 3 2 2 2 654 663 653 633
539 3 2 2 2 655 634 584 615
540 3 2 2 2 712 687 704 713
541 3 2 2 2 691 685 705 711
542 3 2 2 2 676 655 615 642
543 3 2 2 2 642 614 638 676
544 3 2 2 2 688 666 691 711
545 3 2 2 2 445 586 562 453
546 3 2 2 2 452 453 562 561
547 3 2 2 2 709 710 700 712
548 3 2 2 2 603 573 631 651
549 3 2 2 2 700 690 667 693
550 3 2 2 2 663 654 665 688
551 3 2 2 2 690 640 656 667
552 3 2 2 2 706 681 692 713
553 3 2 2 2 693 687 712 700
554 3 2 2 2 672 666 688 665
555 3 2 2 2 656 640 623 611
556 3 2 2 2 611 580 621 656
557 3 2 2 2 452 561 506 447
558 3 2 2 2 651 610 549 603
559 3 2 2 2 695 661 631 652
560 3 2 2 2 504 505 606 554
561 3 2 2 2 561 606 505 506
562 3 2 2 2 651 631 661 664
563 3 2 2 2 664 639 610 651
564 3 2 2 2 639 664 693 667
565 3 2 2 2 667 656 621 639
566 3 2 2 2 687 693 664 661
567 3 2 2 2 605 606 561 562
568 3 2 2 2 586 549 610 622
569 3 2 2 2 580 554 606 605
570 3 2 2 2 562 586 622 605
571 3 2 2 2 706 713 704 698
572 3 2 2 2 621 580 605 622
573 3 2 2 2 639 621 622 610
574 3 2 2 2 695 678 698 704
575 3 2 2 2 704 687 661 695
576 3 2 2 2 663 696 677 653
577 3 2 2 2 711 696 663 688
578 3 2 2 2 684 657 677 696
579 3 2 2 2 711 705 684 696
580 3 2 2 2 708 681 706 714
581 3 2 2 2 698 697 714 706
582 3 2 2 2 678 660 697 698
583 3 2 2 2 682 708 714 703
584 3 2 2 2 697 680 703 714
585 3 2 2 2 705 685 699 702
586 3 2 2 2 684 705 702 659
587 3 2 2 2 659 635 657 684
588 3 2 2 2 658 660 678 609
589 3 2 2 2 545 600 658 609
590 3 2 2 2 607 544 578 620
591 3 2 2 2 578 657 635 620
592 3 2 2 2 679 680 697 660
593 3 2 2 2 459 460 560 600
594 3 2 2 2 619 679 660 658
595 3 2 2 2 619 658 600 560
596 3 2 2 2 560 460 461 574
597 3 2 2 2 702 699 707 701
598 3 2 2 2 707 682 703 701
599 3 2 2 2 607 620 577 574
600 3 2 2 2 686 680 679 641
601 3 2 2 2 701 703 680 686
602 3 2 2 2 701 686 659 702
603 3 2 2 2 635 659 686 641
604 3 2 2 2 641 577 620 635
605 3 2 2 2 619 577 641 679
606 3 2 2 2 574 461 462 607
607 3 2 2 2 577 619 560 574
608 3 2 2 2 516 742 543 451
609 3 2 2 2 724 518 519 741
610 3 2 2 2 507 744 534 450
611 3 2 2 2 541 542 728 738
612 3 2 2 2 728 542 543 742
613 3 2 2 2 514 515 731 733
614 3 2 2 2 736 528 529 739
615 3 2 2 2 458 746 716 459
616 3 2 2 2 747 726 466 465
617 3 2 2 2 718 527 528 736
618 3 2 2 2 722 531 532 740
619 3 2 2 2 740 532 533 743
620 3 2 2 2 533 534 744 743
621 3 2 2 2 742 516 517 771
622 3 2 2 2 739 529 530 769
623 3 2 2 2 539 540 765 721
624 3 2 2 2 771 517 518 724
625 3 2 2 2 740 743 770 756
626 3 2 2 2 738 728 766 800
627 3 2 2 2 769 530 531 722
628 3 2 2 2 741 799 755 724
629 3 2 2 2 740 756 795 722
630 3 2 2 2 741 519 520 767
631 3 2 2 2 765 540 541 738
632 3 2 2 2 766 728 742 771
633 3 2 2 2 768 510 511 734
634 3 2 2 2 725 537 538 760
635 3 2 2 2 764 522 523 719
636 3 2 2 2 747 465 464 774
637 3 2 2 2 735 525 526 763
638 3 2 2 2 737 521 522 764
639 3 2 2 2 746 458 457 772
640 3 2 2 2 769 722 795 794
641 3 2 2 2 719 523 524 762
642 3 2 2 2 511 512 720 734
643 3 2 2 2 741 767 798 799
644 3 2 2 2 767 520 521 737
645 3 2 2 2 739 769 794 797
646 3 2 2 2 771 724 755 766
647 3 2 2 2 765 738 800 790
648 3 2 2 2 798 767 737 825
649 3 2 2 2 858 881 859 834
650 3 2 2 2 797 761 736 739
651 3 2 2 2 760 538 539 721
652 3 2 2 2 457 456 717 772
653 3 2 2 2 773 717 456 455
654 3 2 2 2 464 463 715 774
655 3 2 2 2 763 526 527 718
656 3 2 2 2 780 762 735 823
657 3 2 2 2 827 785 746 772
658 3 2 2 2 750 716 746 785
659 3 2 2 2 762 524 525 735
660 3 2 2 2 775 748 468 467
661 3 2 2 2 751 718 736 761
662 3 2 2 2 790 824 721 765
663 3 2 2 2 720 752 793 734
664 3 2 2 2 789 763 718 751
665 3 2 2 2 455 454 723 773
666 3 2 2 2 807 753 803 848
667 3 2 2 2 791 800 766 755
668 3 2 2 2 755 799 822 791
669 3 2 2 2 772 717 779 827
670 3 2 2 2 781 825 737 764
671 3 2 2 2 720 512 513 759
672 3 2 2 2 781 764 719 819
673 3 2 2 2 747 753 786 726
674 3 2 2 2 789 823 735 763
675 3 2 2 2 826 779 717 773
676 3 2 2 2 762 780 819 719
677 3 2 2 2 467 466 726 775
678 3 2 2 2 842 810 791 822
679 3 2 2 2 786 753 807 845
680 3 2 2 2 800 791 810 790
681 3 2 2 2 841 818 798 825
682 3 2 2 2 759 513 514 733
683 3 2 2 2 818 822 799 798
684 3 2 2 2 819 780 831 840
685 3 2 2 2 827 779 830 866
686 3 2 2 2 773 723 802 826
687 3 2 2 2 840 865 781 819
688 3 2 2 2 874 849 806 844
689 3 2 2 2 774 803 753 747
690 3 2 2 2 876 881 863 862
691 3 2 2 2 866 844 785 827
692 3 2 2 2 860 879 840 831
693 3 2 2 2 804 786 845 812
694 3 2 2 2 818 841 862 863
695 3 2 2 2 844 806 750 785
696 3 2 2 2 789 809 838 823
697 3 2 2 2 831 780 823 838
698 3 2 2 2 831 838 852 860
699 3 2 2 2 825 781 865 841
700 3 2 2 2 788 752 720 759
701 3 2 2 2 817 837 867 853
702 3 2 2 2 469 468 748 731
703 3 2 2 2 469 731 515 446
704 3 2 2 2 881 858 842 863
705 3 2 2 2 835 806 849 869
706 3 2 2 2 863 842 822 818
707 3 2 2 2 870 862 841 865
708 3 2 2 2 731 748 754 733
709 3 2 2 2 788 759 733 754
710 3 2 2 2 862 870 885 876
711 3 2 2 2 726 786 804 775
712 3 2 2 2 837 752 788 812
713 3 2 2 2 775 804 754 748
714 3 2 2 2 754 804 812 788
715 3 2 2 2 817 793 752 837
716 3 2 2 2 865 840 879 870
717 3 2 2 2 725 730 536 537
718 3 2 2 2 536 730 749 535
719 3 2 2 2 535 749 452 447
720 3 2 2 2 721 824 783 760
721 3 2 2 2 845 867 837 812
722 3 2 2 2 870 879 884 885
723 3 2 2 2 859 881 876 856
724 3 2 2 2 854 839 853 880
725 3 2 2 2 856 876 885 868
726 3 2 2 2 883 860 852 875
727 3 2 2 2 884 879 860 883
728 3 2 2 2 749 730 776 729
729 3 2 2 2 814 834 859 836
730 3 2 2 2 729 453 452 749
731 3 2 2 2 453 729 758 445
732 3 2 2 2 816 805 783 815
733 3 2 2 2 776 730 725 805
734 3 2 2 2 723 454 445 758
735 3 2 2 2 824 846 815 783
736 3 2 2 2 790 810 846 824
737 3 2 2 2 807 857 867 845
738 3 2 2 2 805 725 760 783
739 3 2 2 2 776 805 816 787
740 3 2 2 2 846 810 842 858
741 3 2 2 2 858 834 815 846
742 3 2 2 2 867 857 880 853
743 3 2 2 2 874 844 866 868
744 3 2 2 2 849 883 875 869
745 3 2 2 2 830 779 826 836
746 3 2 2 2 883 849 874 884
747 3 2 2 2 868 885 884 874
748 3 2 2 2 830 856 868 866
749 3 2 2 2 802 723 758 787
750 3 2 2 2 834 814 816 815
751 3 2 2 2 836 859 856 830
752 3 2 2 2 802 814 836 826
753 3 2 2 2 787 758 729 776
754 3 2 2 2 787 816 814 802
755 3 2 2 2 878 857 807 848
756 3 2 2 2 880 857 878 877
757 3 2 2 2 507 508 732 744
758 3 2 2 2 508 509 727 732
759 3 2 2 2 744 732 770 743
760 3 2 2 2 509 510 768 727
761 3 2 2 2 768 734 793 792
762 3 2 2 2 853 839 820 817
763 3 2 2 2 732 727 801 770
764 3 2 2 2 792 801 727 768
765 3 2 2 2 792 793 817 820
766 3 2 2 2 770 801 796 756
767 3 2 2 2 820 796 801 792
768 3 2 2 2 811 795 756 796
769 3 2 2 2 796 820 839 811
770 3 2 2 2 795 811 843 794
771 3 2 2 2 872 833 861 877
772 3 2 2 2 811 839 854 843
773 3 2 2 2 877 861 854 880
774 3 2 2 2 872 877 878 851
775 3 2 2 2 848 847 851 878
776 3 2 2 2 808 797 794 843
777 3 2 2 2 861 808 843 854
778 3 2 2 2 821 761 797 808
779 3 2 2 2 808 861 833 821
780 3 2 2 2 761 821 782 751
781 3 2 2 2 828 847 848 803
782 3 2 2 2 774 715 828 803
783 3 2 2 2 864 782 821 833
784 3 2 2 2 751 782 809 789
785 3 2 2 2 864 833 872 871
786 3 2 2 2 829 847 828 778
787 3 2 2 2 832 809 782 864
788 3 2 2 2 784 750 806 835
789 3 2 2 2 460 459 716 777
790 3 2 2 2 847 829 850 851
791 3 2 2 2 851 850 871 872
792 3 2 2 2 777 716 750 784
793 3 2 2 2 809 832 852 838
794 3 2 2 2 461 745 757 462
795 3 2 2 2 715 463 462 757
796 3 2 2 2 778 828 715 757
797 3 2 2 2 873 850 829 855
798 3 2 2 2 882 871 850 873
799 3 2 2 2 855 829 778 813
800 3 2 2 2 835 869 873 855
801 3 2 2 2 832 864 871 882
802 3 2 2 2 875 852 832 882
803 3 2 2 2 869 875 882 873
804 3 2 2 2 813 745 777 784
805 3 2 2 2 855 813 784 835
806 3 2 2 2 757 745 813 778
807 3 2 2 2 745 461 460 777
$EndElements
