$MeshFormat
2.2 0 8
$EndMeshFormat
$Nodes
882
1 100 100 0
2 0 100 0
3 0 80 0
4 0 0 0
5 100 0 0
6 50 80 0
7 95 100 0
8 90 100 0
9 85 100 0
10 80 100 0
11 75 100 0
12 70 100 0
13 65 100 0
14 60 100 0
15 55 100 0
16 50 100 0
17 45 100 0
18 40 100 0
19 35 100 0
20 30 100 0
21 25 100 0
22 20 100 0
23 15 100 0
24 10 100 0
25 5 100 0
26 0 95 0
27 0 90 0
28 0 85 0
29 0 75 0
30 0 70 0
31 0 65 0
32 0 60 0
33 0 55 0
34 0 50 0
35 0 45 0
36 0 40 0
37 0 35 0
38 0 30 0
39 0 25 0
40 0 20 0
41 0 15 0
42 0 10 0
43 0 5 0
44 5 0 0
45 10 0 0
46 15 0 0
47 20 0 0
48 25 0 0
49 30 0 0
50 35 0 0
51 40 0 0
52 45 0 0
53 50 0 0
54 55 0 0
55 60 0 0
56 65 0 0
57 70 0 0
58 75 0 0
59 80 0 0
60 85 0 0
61 90 0 0
62 95 0 0
63 100 5 0
64 100 10 0
65 100 15 0
66 100 20 0
67 100 25 0
68 100 30 0
69 100 35 0
70 100 40 0
71 100 45 0
72 100 50 0
73 100 55 0
74 100 60 0
75 100 65 0
76 100 70 0
77 100 75 0
78 100 80 0
79 100 85 0
80 100 90 0
81 100 95 0
82 45 80 0
83 40 80 0
84 35 80 0
85 30 80 0
86 25 80 0
87 20 80 0
88 15 80 0
89 10 80 0
90 5 80 0
91 60 5 0
92 95 60 0
93 5 40 0
94 95 30 0
95 30 5 0
96 5 25 0
97 80 5 0
98 70 95 0
99 95 75 0
100 5 60 0
101 20 5 0
102 80 95 0
103 10 95 0
104 35 95 0
105 55 95 0
106 20 95 0
107 95 85 0
108 95 10 0
109 5 15 0
110 50 5 0
111 95 40 0
112 90 95 0
113 5 90 0
114 5 75 0
115 5 5 0
116 90 5 0
117 95 90 0
118 95 50 0
119 40 5 0
120 45 95 0
121 70 5 0
122 5 95 0
123 5 85 0
124 15 5 0
125 95 15 0
126 95 20 0
127 95 95 0
128 60 95 0
129 25 95 0
130 5 70 0
131 5 55 0
132 5 50 0
133 5 35 0
134 95 5 0
135 95 65 0
136 90 60 0
137 10 40 0
138 10 60 0
139 10 90 0
140 90 15 0
141 20 90 0
142 20 10 0
143 55 90 0
144 10 85 0
145 95 80 0
146 90 10 0
147 15 95 0
148 55 5 0
149 85 5 0
150 95 45 0
151 45 5 0
152 40 95 0
153 35 5 0
154 75 5 0
155 95 35 0
156 85 95 0
157 30 95 0
158 65 5 0
159 95 25 0
160 95 55 0
161 10 75 0
162 75 95 0
163 65 95 0
164 50 95 0
165 5 65 0
166 5 45 0
167 5 30 0
168 5 20 0
169 5 10 0
170 10 5 0
171 25 5 0
172 95 70 0
173 90 85 0
174 10 55 0
175 90 90 0
176 55 10 0
177 90 30 0
178 40 10 0
179 75 10 0
180 15 60 0
181 70 90 0
182 35 90 0
183 90 40 0
184 40 90 0
185 10 25 0
186 15 10 0
187 25 90 0
188 10 50 0
189 10 65 0
190 90 70 0
191 90 80 0
192 85 85 0
193 65 10 0
194 15 90 0
195 15 85 0
196 35 10 0
197 25 10 0
198 50 10 0
199 90 50 0
200 15 75 0
201 85 10 0
202 90 20 0
203 10 15 0
204 90 55 0
205 10 10 0
206 75 90 0
207 50 90 0
208 60 90 0
209 10 70 0
210 10 35 0
211 90 65 0
212 10 45 0
213 85 90 0
214 55 15 0
215 15 45 0
216 85 60 0
217 40 15 0
218 70 85 0
219 85 80 0
220 25 15 0
221 15 70 0
222 90 75 0
223 80 85 0
224 60 10 0
225 90 35 0
226 80 10 0
227 35 85 0
228 90 25 0
229 85 15 0
230 90 45 0
231 45 10 0
232 20 85 0
233 20 75 0
234 80 90 0
235 70 10 0
236 20 15 0
237 30 90 0
238 15 55 0
239 15 15 0
240 45 90 0
241 85 50 0
242 50 85 0
243 55 85 0
244 30 10 0
245 15 40 0
246 65 90 0
247 10 30 0
248 10 20 0
249 85 65 0
250 15 65 0
251 85 30 0
252 80 60 0
253 45 75 0
254 20 45 0
255 70 15 0
256 55 80 0
257 30 75 0
258 20 60 0
259 60 15 0
260 45 15 0
261 80 15 0
262 85 70 0
263 25 20 0
264 15 30 0
265 80 80 0
266 30 15 0
267 65 85 0
268 75 85 0
269 50 15 0
270 85 75 0
271 85 20 0
272 85 45 0
273 40 85 0
274 30 85 0
275 25 85 0
276 85 35 0
277 20 20 0
278 15 25 0
279 15 20 0
280 35 75 0
281 25 75 0
282 15 50 0
283 35 15 0
284 85 55 0
285 60 85 0
286 15 35 0
287 45 85 0
288 20 70 0
289 55 20 0
290 80 30 0
291 65 80 0
292 80 20 0
293 45 20 0
294 20 55 0
295 20 35 0
296 30 70 0
297 80 50 0
298 65 15 0
299 75 15 0
300 85 40 0
301 85 25 0
302 80 70 0
303 80 65 0
304 20 65 0
305 25 25 0
306 20 30 0
307 20 25 0
308 50 75 0
309 75 80 0
310 20 50 0
311 40 75 0
312 40 20 0
313 20 40 0
314 60 80 0
315 35 20 0
316 25 70 0
317 30 20 0
318 80 75 0
319 80 55 0
320 45 70 0
321 75 60 0
322 25 45 0
323 45 25 0
324 60 75 0
325 65 20 0
326 75 20 0
327 25 60 0
328 35 70 0
329 80 25 0
330 60 20 0
331 50 20 0
332 80 35 0
333 75 65 0
334 75 75 0
335 25 35 0
336 40 25 0
337 70 80 0
338 25 55 0
339 25 30 0
340 80 45 0
341 55 75 0
342 25 65 0
343 30 25 0
344 75 50 0
345 65 25 0
346 45 30 0
347 75 30 0
348 70 60 0
349 55 70 0
350 65 75 0
351 30 60 0
352 75 45 0
353 50 25 0
354 70 20 0
355 30 30 0
356 25 50 0
357 70 75 0
358 25 40 0
359 55 25 0
360 80 40 0
361 50 70 0
362 40 70 0
363 75 55 0
364 30 65 0
365 75 70 0
366 35 25 0
367 75 25 0
368 45 65 0
369 30 50 0
370 75 35 0
371 70 50 0
372 70 65 0
373 40 30 0
374 75 40 0
375 70 30 0
376 55 30 0
377 70 55 0
378 30 35 0
379 30 45 0
380 60 70 0
381 30 55 0
382 70 25 0
383 50 30 0
384 50 65 0
385 35 65 0
386 60 25 0
387 70 70 0
388 35 30 0
389 55 35 0
390 45 60 0
391 65 50 0
392 65 30 0
393 45 35 0
394 35 50 0
395 60 30 0
396 70 35 0
397 65 60 0
398 65 70 0
399 30 40 0
400 55 65 0
401 40 65 0
402 70 45 0
403 35 60 0
404 35 35 0
405 65 45 0
406 60 35 0
407 35 40 0
408 65 35 0
409 60 65 0
410 35 55 0
411 35 45 0
412 70 40 0
413 40 60 0
414 50 35 0
415 65 55 0
416 50 60 0
417 65 65 0
418 40 35 0
419 55 40 0
420 45 55 0
421 60 50 0
422 55 60 0
423 65 40 0
424 60 60 0
425 40 45 0
426 45 40 0
427 40 50 0
428 40 55 0
429 40 40 0
430 45 50 0
431 60 45 0
432 45 45 0
433 50 40 0
434 60 55 0
435 50 55 0
436 60 40 0
437 55 45 0
438 50 50 0
439 50 45 0
440 55 50 0
441 55 55 0
442 0 100 0
443 0 80 0
444 0 0 0
445 -100 100 0
446 -100 0 0
447 -50 80 0
448 0 95 0
449 0 90 0
450 0 85 0
451 0 75 0
452 0 70 0
453 0 65 0
454 0 60 0
455 0 55 0
456 0 50 0
457 0 45 0
458 0 40 0
459 0 35 0
460 0 30 0
461 0 25 0
462 0 20 0
463 0 15 0
464 0 10 0
465 0 5 0
466 -100 95 0
467 -100 90 0
468 -100 85 0
469 -100 80 0
470 -100 75 0
471 -100 70 0
472 -100 65 0
473 -100 60 0
474 -100 55 0
475 -100 50 0
476 -100 45 0
477 -100 40 0
478 -100 35 0
479 -100 30 0
480 -100 25 0
481 -100 20 0
482 -100 15 0
483 -100 10 0
484 -100 5 0
485 -95 0 0
486 -90 0 0
487 -85 0 0
488 -80 0 0
489 -75 0 0
490 -70 0 0
491 -65 0 0
492 -60 0 0
493 -55 0 0
494 -50 0 0
495 -45 0 0
496 -40 0 0
497 -35 0 0
498 -30 0 0
499 -25 0 0
500 -20 0 0
501 -15 0 0
502 -10 0 0
503 -5 0 0
504 -5 100 0
505 -10 100 0
506 -15 100 0
507 -20 100 0
508 -25 100 0
509 -30 100 0
510 -35 100 0
511 -40 100 0
512 -45 100 0
513 -50 100 0
514 -55 100 0
515 -60 100 0
516 -65 100 0
517 -70 100 0
518 -75 100 0
519 -80 100 0
520 -85 100 0
521 -90 100 0
522 -95 100 0
523 -5 80 0
524 -10 80 0
525 -15 80 0
526 -20 80 0
527 -25 80 0
528 -30 80 0
529 -35 80 0
530 -40 80 0
531 -45 80 0
532 -40 5 0
533 -94.9999999994342 45.0000000000279 0
534 -94.9999992421531 75.0000000368035 0
535 -65 5 0
536 -5 40 0
537 -95 30 0
538 -74.9996304019768 95.0000345975844 0
539 -4.99999951169976 54.9999996200694 0
540 -5 20 0
541 -64.9987268256695 95.0001963625811 0
542 -95 20 0
543 -34.9999999996979 95.000000000013 0
544 -20 95 0
545 -49.998818227143 95.0003430848108 0
546 -10 5 0
547 -75 5 0
548 -20 5 0
549 -85 5 0
550 -94.9999997381866 90.0000000130335 0
551 -4.99999950615243 64.9999996157361 0
552 -94.9999991699717 65.0000000211983 0
553 -95 10 0
554 -5 90 0
555 -4.99999987835803 69.9999999051672 0
556 -84.9999824192746 95.0000010093399 0
557 -94.9999999541689 55.0000000022603 0
558 -94.9999999030394 95.0000000043894 0
559 -45 5 0
560 -5 5 0
561 -30 5 0
562 -50 5 0
563 -15 95 0
564 -29.9999999999622 95.0000000000016 0
565 -44.9994233213914 95.0001822549922 0
566 -94.9999999999293 40.0000000000035 0
567 -5 95 0
568 -5 85 0
569 -4.99999997739833 74.9999999823681 0
570 -5 45 0
571 -5 30 0
572 -5 10 0
573 -94.9999994937744 85.0000000258293 0
574 -59.997974760513 95.0004148718391 0
575 -95 5 0
576 -55 5 0
577 -40 10 0
578 -90.0000000550725 39.9999999488623 0
579 -9.99999958645813 40.0000004831353 0
580 -64.9899756667444 90.0019747769309 0
581 -10 10 0
582 -34.9999767346345 90.0000080500777 0
583 -50 10 0
584 -19.9999999999999 90 0
585 -9.99997621124052 64.9999822400069 0
586 -49.9920041462032 90.0028202600598 0
587 -95 25 0
588 -15 5 0
589 -89.999995511932 95.0000002522252 0
590 -89.9999890181907 90.0000005970545 0
591 -94.9999999885422 50.0000000005651 0
592 -90 10 0
593 -25 5 0
594 -39.999837610364 95.0000534624619 0
595 -54.9974225494328 95.0006794048696 0
596 -5 15 0
597 -94.999999285324 80.0000000353356 0
598 -94.9999995376853 60.000000010486 0
599 -90 5 0
600 -60 5 0
601 -35 5 0
602 -69.9986851710239 95.0002008464976 0
603 -94.9999988233171 70.0000000454045 0
604 -70 5 0
605 -4.99999755639962 59.9999981459812 0
606 -4.99999989144045 49.9999999153866 0
607 -4.99999997415363 35.000000030196 0
608 -5 25 0
609 -95.0000000034332 34.9999999968043 0
610 -95 15 0
611 -80 5 0
612 -10 95 0
613 -24.9999999999953 95.0000000000002 0
614 -10 85 0
615 -9.99996646987312 69.9999729611232 0
616 -9.99996982118067 74.9999752287459 0
617 -79.9998538375441 95.0000121551429 0
618 -89.9999897553979 59.9999999199065 0
619 -65 10 0
620 -89.9999632039674 80.0000021059498 0
621 -20 10 0
622 -10 25 0
623 -75 10 0
624 -90 20 0
625 -10 15 0
626 -85 10 0
627 -55 10 0
628 -39.9995748247841 90.0001448468044 0
629 -79.9993975083505 90.0000622072175 0
630 -59.984471161965 90.0039981401769 0
631 -14.9997321953792 64.9998535835318 0
632 -9.99999777671994 49.9999996922708 0
633 -69.9941019496515 90.000955290273 0
634 -24.9999999999963 90.0000000000002 0
635 -90.0000000002146 29.9999999998003 0
636 -90.0000000073356 34.9999999931836 0
637 -89.9999976569993 54.9999988413879 0
638 -84.9998445556249 90.0000139629427 0
639 -35 10 0
640 -44.9968826028559 90.0011577947598 0
641 -15 10 0
642 -45 10 0
643 -25 10 0
644 -89.9999514233755 70.0000034579804 0
645 -15 85 0
646 -90.0000003238786 44.9999996878024 0
647 -15 90 0
648 -14.9996026206753 69.9997527526919 0
649 -14.9996604942321 74.9997826530232 0
650 -54.9842791484477 90.0049423399164 0
651 -9.99999087258186 54.9999949730504 0
652 -10 90 0
653 -29.9999970917993 90.000001006261 0
654 -9.99999857972571 45.0000009104392 0
655 -89.9999647665635 85.0000022561453 0
656 -9.99996588771455 59.9999801354284 0
657 -9.9999999983846 30.0000000018872 0
658 -9.99999994487455 35.0000000644023 0
659 -90 15 0
660 -50.0000000000453 15.0000000045442 0
661 -85.0000089171819 39.9999920959967 0
662 -85.0001706102559 59.9997800825444 0
663 -14.9999850572318 40.0000418334596 0
664 -64.9657534144132 85.0088203825342 0
665 -19.9999999764341 15.0000001011466 0
666 -14.9999998385747 25.0000011441563 0
667 -19.9981645795235 64.999918000154 0
668 -14.999946920353 50.0000474979915 0
669 -9.99999998991092 20.0000000715098 0
670 -85.0000017076178 34.9999984877346 0
671 -30 10 0
672 -34.9999238064829 85.0000262222059 0
673 -89.9999744966401 64.9999887746359 0
674 -14.9999999964237 15.0000000171127 0
675 -19.9999999999996 85 0
676 -19.9975713120483 69.99940796861 0
677 -19.9981301339707 74.999389791745 0
678 -29.9999886581973 85.0000039066883 0
679 -44.9959774646341 85.0015678047268 0
680 -60 10 0
681 -84.9996918146434 85.0000278963619 0
682 -59.9480328679265 85.0185127483002 0
683 -89.9999413053232 75.000003831138 0
684 -40.000000000044 15.0000000044144 0
685 -90.0000000000268 24.999999999975 0
686 -90.0000002945169 49.9999989293332 0
687 -70 10 0
688 -14.9999992529967 30.0000052757282 0
689 -54.9542373305245 85.0200759752788 0
690 -74.9973808675685 90.0003755933503 0
691 -80 10 0
692 -14.9998767969672 55.0000289129322 0
693 -14.9997109373352 59.9999689492772 0
694 -85.0000000000017 19.9999999999984 0
695 -85.0000000000002 14.9999999999998 0
696 -49.8212005944306 75.197695179971 0
697 -80.0000407937574 40.0000083987019 0
698 -65.0000000000002 15.0000000000162 0
699 -19.9999977242181 25.0000113864485 0
700 -84.9994405349662 75.0000365034653 0
701 -39.9066930949291 75.0874975545526 0
702 -24.9905405842805 65.0043801663501 0
703 -64.9366750739016 80.0232896598813 0
704 -84.9999407762761 64.9998238612117 0
705 -19.9990046542436 50.0017463261936 0
706 -85.0000002866056 29.9999997462915 0
707 -14.9999998344044 20.000000872072 0
708 -34.9999999610821 15.0000001519037 0
709 -24.9999999109886 15.0000003652498 0
710 -55.0000000000188 15.0000000018826 0
711 -80.0000000000002 19.9999999999998 0
712 -80.0000000000002 14.9999999999999 0
713 -29.9806523625861 75.0044807050403 0
714 -39.9991451603532 85.0003224247772 0
715 -85.0001240141831 49.9998888955831 0
716 -85.0000595301272 44.999949761563 0
717 -14.9999097031332 45.0001671802388 0
718 -70 15.000000000002 0
719 -69.9827748357033 85.004238717498 0
720 -24.9999984005113 85.0000005512274 0
721 -59.899712447313 80.0527026335512 0
722 -49.9794122200878 85.0098328289037 0
723 -84.9994537253898 80.0000489983771 0
724 -79.9981643294916 85.000258045644 0
725 -85.0002503426919 54.9997593283246 0
726 -45.0000000000784 15.0000000078713 0
727 -19.9980336777056 60.0011608422179 0
728 -24.9934229485721 75.0000883437955 0
729 -14.999993858875 35.0000230850882 0
730 -85.0000000431093 24.9999999618484 0
731 -49.999998759002 20.000001908853 0
732 -80.0011972005476 59.9989284230059 0
733 -64.9999999501428 20.0000003025282 0
734 -64.9244600515643 75.044261980498 0
735 -24.9888647260684 60.0103636645674 0
736 -19.9998977311913 35.0003279388283 0
737 -34.9999979076136 20.000007799017 0
738 -54.8325779712358 75.1644258801699 0
739 -84.999547624295 69.9999447255918 0
740 -80.0006742512964 49.9995181097333 0
741 -80.0002478649029 44.9998768143016 0
742 -59.9999999968879 15.0000000193077 0
743 -75.0000000010304 20.000000026406 0
744 -54.90731756147 80.0671204212603 0
745 -34.9549285446664 75.032485194292 0
746 -19.9999994792807 20.0000025015188 0
747 -29.9999997518012 15.0000009538558 0
748 -74.9929928810045 85.0013951605144 0
749 -29.9712120027272 70.0161899742377 0
750 -19.9996456380131 40.000907520794 0
751 -24.9892437913704 70.0034839271447 0
752 -19.9979549211477 55.0023869223263 0
753 -75.0000000001288 15.000000003301 0
754 -80.0000094157032 35.0000144509701 0
755 -80.0000000540542 25.0000003573973 0
756 -79.9967782659039 80.0005612369488 0
757 -69.9707787595711 80.009763436622 0
758 -39.9999969396901 20.0000079323345 0
759 -19.9991744696253 45.0017765386831 0
760 -19.9999620004155 30.0001281665606 0
761 -44.8697264884302 75.156525965456 0
762 -74.9990070213381 40.0003363763217 0
763 -24.9973772304324 40.0050511275855 0
764 -34.9999067810082 25.0002248680655 0
765 -69.9662062639103 75.0160763504497 0
766 -44.7965244121034 70.2930071959802 0
767 -54.9999997965627 20.0000007940881 0
768 -24.9999741909499 25.0000777724018 0
769 -79.996487029061 75.0006753367264 0
770 -79.9997977536544 64.9995415963044 0
771 -75.0000000066216 25.0000028400248 0
772 -34.9284420895733 70.069962436047 0
773 -59.8763997135778 75.1017938846447 0
774 -74.9970260125445 50.0007424778623 0
775 -59.9999998668491 20.0000007595281 0
776 -29.9999910106548 20.000025253142 0
777 -24.9999947971704 20.000016622784 0
778 -74.988038595405 80.0035205261104 0
779 -24.9916308780881 50.0130152854903 0
780 -69.9999999965449 20.0000002882759 0
781 -80.0010888273857 54.999069232033 0
782 -29.9642495414641 65.032176687295 0
783 -44.9999964359999 20.0000063580891 0
784 -24.9876271795596 55.0154540495189 0
785 -24.9998156335333 30.0004809246225 0
786 -80.0000018254046 30.0000059118652 0
787 -49.7679760912176 70.3320006368026 0
788 -49.6854505421957 65.397933852746 0
789 -49.9999270866323 25.0000662380824 0
790 -29.9655044337695 50.042220985114 0
791 -64.9999879572013 25.0000096717365 0
792 -64.924759833858 70.0674852432398 0
793 -74.9982319783419 60.0013255716917 0
794 -74.9999498811729 30.0000276288762 0
795 -34.9109324693292 65.1042244320976 0
796 -54.7947849675825 70.2526263215842 0
797 -74.9964733232804 55.0013764525144 0
798 -54.9999199526045 25.0000294741518 0
799 -29.9999157407863 25.0002219919249 0
800 -24.9933088520981 45.0108634491264 0
801 -74.9868222943744 75.0049635744425 0
802 -69.9999944464499 25.0000098725652 0
803 -24.9988679991294 35.002194559982 0
804 -79.9973123563019 70.0006049745291 0
805 -29.9562826581215 60.0477281347456 0
806 -74.9971482387475 45.0008169754726 0
807 -39.9998784982958 25.0002557173826 0
808 -74.9996083506811 35.0001409060775 0
809 -39.8650831823587 70.1727289056295 0
810 -49.9950686384713 29.9987705912447 0
811 -69.9648707439307 50.0081950843367 0
812 -54.7113647822881 65.2985353535697 0
813 -29.9963648289294 35.0045950358335 0
814 -69.9677102808134 70.0238989459397 0
815 -34.8949785563017 60.1196937401433 0
816 -29.9772969848489 45.0279861910045 0
817 -69.9907623270029 40.0008407765542 0
818 -64.9990835509978 29.9998922928044 0
819 -39.8292921469541 65.2312455373068 0
820 -74.9938222736968 65.0045276153219 0
821 -34.998431665936 30.0015599554357 0
822 -69.9660731635193 60.0214111104986 0
823 -69.9996078554408 30.0000337443274 0
824 -29.9989019813055 30.0014983999434 0
825 -74.9878229775293 70.0070663850596 0
826 -29.9531299361983 55.0533230555241 0
827 -59.9998880212771 25.0000064228397 0
828 -44.9995935432362 25.0001077127409 0
829 -59.8567281546985 70.1489393419751 0
830 -44.7410129724454 65.340358778711 0
831 -34.9392359579853 45.0381598605646 0
832 -59.8053324219183 65.1751346339794 0
833 -34.9901652727094 35.0055782129456 0
834 -44.9951327011379 29.9996079800181 0
835 -59.9971778573588 29.9992936078126 0
836 -64.9030537551518 65.0812002009362 0
837 -39.9960171330267 30.0010246114498 0
838 -69.9617717800578 65.029808135856 0
839 -29.9866856715763 40.0132654048373 0
840 -34.9055374889808 50.0698900431434 0
841 -34.8886159449849 55.1029391986937 0
842 -44.6742304831284 60.2968730977465 0
843 -54.9945267953906 29.9984007185788 0
844 -69.9547229600149 55.0172161724107 0
845 -69.974596999965 45.0035235174708 0
846 -64.9912729187801 34.9989558763491 0
847 -69.9961288748107 35.0000500358145 0
848 -39.7982779971735 60.2028724101978 0
849 -49.5698353871238 60.2999849579487 0
850 -49.961095670153 34.9875308966606 0
851 -64.8695210230116 50.0193044372809 0
852 -59.7124005667486 60.1555776596969 0
853 -39.9784980304527 35.0011132265657 0
854 -59.9775158788097 34.9944191017155 0
855 -39.8653974603506 45.0160220274999 0
856 -39.7818811094634 55.1355136960045 0
857 -54.5840781037458 60.2329936625152 0
858 -34.9654487719925 40.0148767089852 0
859 -64.9631722222593 39.997627204239 0
860 -64.8646397817493 60.0739155449057 0
861 -54.5243240930004 55.1123197702928 0
862 -59.9184367760483 39.9854030885358 0
863 -59.6910017681249 55.0812818338106 0
864 -39.8010576594452 50.0579734243286 0
865 -44.9633470520638 34.9918567837449 0
866 -39.9284703064507 40.0011553966272 0
867 -54.958963050494 34.9874273064935 0
868 -64.847647308163 55.0477642769115 0
869 -64.9114347293919 45.0019033993559 0
870 -44.6397999842476 55.1425315289568 0
871 -54.6041835320695 50.0054124557846 0
872 -44.6744412063941 50.0266655567644 0
873 -49.8630186808071 39.960868402262 0
874 -59.8221798560081 44.9881828963021 0
875 -59.7385838895575 50.0222890818497 0
876 -54.8693091041376 39.9677990431878 0
877 -44.8831274209712 39.9769209267485 0
878 -49.5543587886887 55.1368743062628 0
879 -49.7221120225872 44.9557396619882 0
880 -54.7482131193094 44.9717233183023 0
881 -44.78000860396 44.9863180254292 0
882 -49.621577596793 50.0224746069972 0
$EndNodes
$Elements
800
1 3 2 1 1 405 431 436 423
2 3 2 1 1 392 408 406 395
3 3 2 1 1 408 396 412 423
4 3 2 1 1 440 438 439 437
5 3 2 1 1 395 386 345 392
6 3 2 1 1 354 326 367 382
7 3 2 1 1 438 440 441 435
8 3 2 1 1 439 438 430 432
9 3 2 1 1 155 225 177 94
10 3 2 1 1 298 325 330 259
11 3 2 1 1 145 107 173 191
12 3 2 1 1 139 144 195 194
13 3 2 1 1 269 331 293 260
14 3 2 1 1 430 427 425 432
15 3 2 1 1 23 147 106 22
16 3 2 1 1 176 224 259 214
17 3 2 1 1 110 148 176 198
18 3 2 1 1 359 386 395 376
19 3 2 1 1 222 270 262 190
20 3 2 1 1 387 398 417 372
21 3 2 1 1 249 303 252 216
22 3 2 1 1 177 251 301 228
23 3 2 1 1 202 228 301 271
24 3 2 1 1 284 319 297 241
25 3 2 1 1 272 241 297 340
26 3 2 1 1 423 412 402 405
27 3 2 1 1 422 441 434 424
28 3 2 1 1 432 426 433 439
29 3 2 1 1 78 79 107 145
30 3 2 1 1 226 179 154 97
31 3 2 1 1 146 140 229 201
32 3 2 1 1 182 237 274 227
33 3 2 1 1 148 110 53 54
34 3 2 1 1 60 149 97 59
35 3 2 1 1 119 151 231 178
36 3 2 1 1 303 249 262 302
37 3 2 1 1 300 360 332 276
38 3 2 1 1 411 379 399 407
39 3 2 1 1 273 227 84 83
40 3 2 1 1 160 204 199 118
41 3 2 1 1 111 150 230 183
42 3 2 1 1 153 95 49 50
43 3 2 1 1 117 80 81 127
44 3 2 1 1 176 148 91 224
45 3 2 1 1 158 193 224 91
46 3 2 1 1 271 229 140 202
47 3 2 1 1 121 154 179 235
48 3 2 1 1 18 19 104 152
49 3 2 1 1 103 24 25 122
50 3 2 1 1 55 91 148 54
51 3 2 1 1 116 61 62 134
52 3 2 1 1 72 73 160 118
53 3 2 1 1 151 110 198 231
54 3 2 1 1 155 111 183 225
55 3 2 1 1 201 149 116 146
56 3 2 1 1 231 260 217 178
57 3 2 1 1 299 255 235 179
58 3 2 1 1 298 193 235 255
59 3 2 1 1 259 330 289 214
60 3 2 1 1 329 301 251 290
61 3 2 1 1 301 329 292 271
62 3 2 1 1 255 299 326 354
63 3 2 1 1 354 382 345 325
64 3 2 1 1 387 357 350 398
65 3 2 1 1 429 426 432 425
66 3 2 1 1 274 275 86 85
67 3 2 1 1 103 122 113 139
68 3 2 1 1 99 145 191 222
69 3 2 1 1 179 226 261 299
70 3 2 1 1 427 430 420 428
71 3 2 1 1 120 17 18 152
72 3 2 1 1 104 19 20 157
73 3 2 1 1 151 119 51 52
74 3 2 1 1 91 55 56 158
75 3 2 1 1 56 57 121 158
76 3 2 1 1 155 94 68 69
77 3 2 1 1 92 160 73 74
78 3 2 1 1 88 87 232 195
79 3 2 1 1 86 275 232 87
80 3 2 1 1 177 228 159 94
81 3 2 1 1 153 196 244 95
82 3 2 1 1 184 152 104 182
83 3 2 1 1 117 127 112 175
84 3 2 1 1 139 113 123 144
85 3 2 1 1 150 118 199 230
86 3 2 1 1 196 153 119 178
87 3 2 1 1 158 121 235 193
88 3 2 1 1 228 202 126 159
89 3 2 1 1 157 129 187 237
90 3 2 1 1 92 135 211 136
91 3 2 1 1 92 136 204 160
92 3 2 1 1 194 195 232 141
93 3 2 1 1 104 157 237 182
94 3 2 1 1 95 244 197 171
95 3 2 1 1 274 237 187 275
96 3 2 1 1 211 190 262 249
97 3 2 1 1 178 217 283 196
98 3 2 1 1 244 196 283 266
99 3 2 1 1 229 261 226 201
100 3 2 1 1 136 216 284 204
101 3 2 1 1 199 204 284 241
102 3 2 1 1 223 234 206 268
103 3 2 1 1 136 211 249 216
104 3 2 1 1 197 244 266 220
105 3 2 1 1 263 220 266 317
106 3 2 1 1 177 225 276 251
107 3 2 1 1 199 241 272 230
108 3 2 1 1 183 230 272 300
109 3 2 1 1 332 290 251 276
110 3 2 1 1 216 252 319 284
111 3 2 1 1 348 377 363 321
112 3 2 1 1 336 323 346 373
113 3 2 1 1 370 332 360 374
114 3 2 1 1 357 387 365 334
115 3 2 1 1 377 348 397 415
116 3 2 1 1 338 356 369 381
117 3 2 1 1 391 405 402 371
118 3 2 1 1 396 408 392 375
119 3 2 1 1 417 398 380 409
120 3 2 1 1 349 400 409 380
121 3 2 1 1 418 393 426 429
122 3 2 1 1 378 404 407 399
123 3 2 1 1 410 428 413 403
124 3 2 1 1 437 439 433 419
125 3 2 1 1 127 7 8 112
126 3 2 1 1 1 7 127 81
127 3 2 1 1 8 9 156 112
128 3 2 1 1 21 129 157 20
129 3 2 1 1 27 113 122 26
130 3 2 1 1 27 28 123 113
131 3 2 1 1 47 101 124 46
132 3 2 1 1 49 95 171 48
133 3 2 1 1 47 48 171 101
134 3 2 1 1 50 51 119 153
135 3 2 1 1 110 151 52 53
136 3 2 1 1 121 57 58 154
137 3 2 1 1 64 65 125 108
138 3 2 1 1 65 66 126 125
139 3 2 1 1 68 94 159 67
140 3 2 1 1 66 67 159 126
141 3 2 1 1 150 111 70 71
142 3 2 1 1 69 70 111 155
143 3 2 1 1 71 72 118 150
144 3 2 1 1 75 76 172 135
145 3 2 1 1 83 84 280 311
146 3 2 1 1 88 200 233 87
147 3 2 1 1 195 144 89 88
148 3 2 1 1 89 161 200 88
149 3 2 1 1 149 201 226 97
150 3 2 1 1 222 190 172 99
151 3 2 1 1 138 189 165 100
152 3 2 1 1 194 147 103 139
153 3 2 1 1 147 194 141 106
154 3 2 1 1 146 108 125 140
155 3 2 1 1 116 134 108 146
156 3 2 1 1 175 112 156 213
157 3 2 1 1 152 184 240 120
158 3 2 1 1 101 142 186 124
159 3 2 1 1 202 140 125 126
160 3 2 1 1 106 141 187 129
161 3 2 1 1 190 211 135 172
162 3 2 1 1 187 141 232 275
163 3 2 1 1 101 171 197 142
164 3 2 1 1 197 220 236 142
165 3 2 1 1 138 174 238 180
166 3 2 1 1 173 175 213 192
167 3 2 1 1 300 276 225 183
168 3 2 1 1 182 227 273 184
169 3 2 1 1 240 184 273 287
170 3 2 1 1 205 186 239 203
171 3 2 1 1 142 236 239 186
172 3 2 1 1 173 192 219 191
173 3 2 1 1 234 223 192 213
174 3 2 1 1 259 224 193 298
175 3 2 1 1 161 209 221 200
176 3 2 1 1 312 315 283 217
177 3 2 1 1 191 219 270 222
178 3 2 1 1 192 223 265 219
179 3 2 1 1 304 288 221 250
180 3 2 1 1 220 263 277 236
181 3 2 1 1 203 239 279 248
182 3 2 1 1 236 277 279 239
183 3 2 1 1 185 248 279 278
184 3 2 1 1 313 358 322 254
185 3 2 1 1 354 325 298 255
186 3 2 1 1 217 260 293 312
187 3 2 1 1 317 343 305 263
188 3 2 1 1 286 264 306 295
189 3 2 1 1 223 268 309 265
190 3 2 1 1 219 265 318 270
191 3 2 1 1 262 270 318 302
192 3 2 1 1 279 277 307 278
193 3 2 1 1 263 305 307 277
194 3 2 1 1 264 278 307 306
195 3 2 1 1 332 370 347 290
196 3 2 1 1 307 305 339 306
197 3 2 1 1 339 305 343 355
198 3 2 1 1 295 306 339 335
199 3 2 1 1 265 309 334 318
200 3 2 1 1 293 323 336 312
201 3 2 1 1 361 320 368 384
202 3 2 1 1 399 379 322 358
203 3 2 1 1 350 324 380 398
204 3 2 1 1 292 329 367 326
205 3 2 1 1 290 347 367 329
206 3 2 1 1 309 337 357 334
207 3 2 1 1 358 335 378 399
208 3 2 1 1 373 388 366 336
209 3 2 1 1 291 350 357 337
210 3 2 1 1 335 339 355 378
211 3 2 1 1 375 392 345 382
212 3 2 1 1 382 367 347 375
213 3 2 1 1 396 375 347 370
214 3 2 1 1 410 403 351 381
215 3 2 1 1 359 376 383 353
216 3 2 1 1 343 366 388 355
217 3 2 1 1 378 355 388 404
218 3 2 1 1 381 369 394 410
219 3 2 1 1 388 373 418 404
220 3 2 1 1 370 374 412 396
221 3 2 1 1 389 376 395 406
222 3 2 1 1 368 401 413 390
223 3 2 1 1 428 420 390 413
224 3 2 1 1 428 410 394 427
225 3 2 1 1 425 427 394 411
226 3 2 1 1 404 418 429 407
227 3 2 1 1 411 407 429 425
228 3 2 1 1 82 253 308 6
229 3 2 1 1 256 6 308 341
230 3 2 1 1 15 105 128 14
231 3 2 1 1 17 120 164 16
232 3 2 1 1 2 26 122 25
233 3 2 1 1 3 90 123 28
234 3 2 1 1 227 274 85 84
235 3 2 1 1 144 123 90 89
236 3 2 1 1 213 156 102 234
237 3 2 1 1 209 161 114 130
238 3 2 1 1 205 170 124 186
239 3 2 1 1 100 131 174 138
240 3 2 1 1 131 132 188 174
241 3 2 1 1 212 137 245 215
242 3 2 1 1 212 215 282 188
243 3 2 1 1 221 209 189 250
244 3 2 1 1 221 288 233 200
245 3 2 1 1 143 243 285 208
246 3 2 1 1 254 310 282 215
247 3 2 1 1 337 309 268 218
248 3 2 1 1 180 238 294 258
249 3 2 1 1 215 245 313 254
250 3 2 1 1 243 256 314 285
251 3 2 1 1 340 360 300 272
252 3 2 1 1 245 286 295 313
253 3 2 1 1 324 350 291 314
254 3 2 1 1 356 338 294 310
255 3 2 1 1 258 294 338 327
256 3 2 1 1 335 358 313 295
257 3 2 1 1 253 320 361 308
258 3 2 1 1 252 321 363 319
259 3 2 1 1 401 368 320 362
260 3 2 1 1 379 369 356 322
261 3 2 1 1 377 371 344 363
262 3 2 1 1 393 346 383 414
263 3 2 1 1 376 389 414 383
264 3 2 1 1 416 390 420 435
265 3 2 1 1 441 422 416 435
266 3 2 1 1 435 420 430 438
267 3 2 1 1 437 431 421 440
268 3 2 1 1 441 440 421 434
269 3 2 1 1 287 82 6 242
270 3 2 1 1 256 243 242 6
271 3 2 1 1 156 9 10 102
272 3 2 1 1 12 98 162 11
273 3 2 1 1 10 11 162 102
274 3 2 1 1 12 13 163 98
275 3 2 1 1 14 128 163 13
276 3 2 1 1 15 16 164 105
277 3 2 1 1 129 21 22 106
278 3 2 1 1 3 29 114 90
279 3 2 1 1 29 30 130 114
280 3 2 1 1 32 100 165 31
281 3 2 1 1 30 31 165 130
282 3 2 1 1 33 131 100 32
283 3 2 1 1 34 132 131 33
284 3 2 1 1 35 166 132 34
285 3 2 1 1 166 35 36 93
286 3 2 1 1 36 37 133 93
287 3 2 1 1 39 96 167 38
288 3 2 1 1 37 38 167 133
289 3 2 1 1 39 40 168 96
290 3 2 1 1 41 109 168 40
291 3 2 1 1 41 42 169 109
292 3 2 1 1 43 115 169 42
293 3 2 1 1 4 44 115 43
294 3 2 1 1 44 45 170 115
295 3 2 1 1 46 124 170 45
296 3 2 1 1 154 58 59 97
297 3 2 1 1 5 63 134 62
298 3 2 1 1 64 108 134 63
299 3 2 1 1 172 76 77 99
300 3 2 1 1 145 99 77 78
301 3 2 1 1 82 83 311 253
302 3 2 1 1 82 287 273 83
303 3 2 1 1 85 257 280 84
304 3 2 1 1 87 233 281 86
305 3 2 1 1 85 86 281 257
306 3 2 1 1 161 89 90 114
307 3 2 1 1 166 93 137 212
308 3 2 1 1 234 102 162 206
309 3 2 1 1 207 143 105 164
310 3 2 1 1 175 173 107 117
311 3 2 1 1 105 143 208 128
312 3 2 1 1 209 130 165 189
313 3 2 1 1 212 188 132 166
314 3 2 1 1 93 133 210 137
315 3 2 1 1 250 189 138 180
316 3 2 1 1 98 181 206 162
317 3 2 1 1 98 163 246 181
318 3 2 1 1 128 208 246 163
319 3 2 1 1 120 240 207 164
320 3 2 1 1 96 185 247 167
321 3 2 1 1 133 167 247 210
322 3 2 1 1 96 168 248 185
323 3 2 1 1 109 203 248 168
324 3 2 1 1 115 170 205 169
325 3 2 1 1 109 169 205 203
326 3 2 1 1 188 282 238 174
327 3 2 1 1 250 180 258 304
328 3 2 1 1 278 264 247 185
329 3 2 1 1 176 214 269 198
330 3 2 1 1 260 231 198 269
331 3 2 1 1 181 218 268 206
332 3 2 1 1 287 242 207 240
333 3 2 1 1 143 207 242 243
334 3 2 1 1 246 208 285 267
335 3 2 1 1 137 210 286 245
336 3 2 1 1 247 264 286 210
337 3 2 1 1 331 269 214 289
338 3 2 1 1 181 246 267 218
339 3 2 1 1 337 218 267 291
340 3 2 1 1 271 292 261 229
341 3 2 1 1 310 294 238 282
342 3 2 1 1 333 321 252 303
343 3 2 1 1 310 254 322 356
344 3 2 1 1 314 256 341 324
345 3 2 1 1 304 258 327 342
346 3 2 1 1 283 315 317 266
347 3 2 1 1 285 314 291 267
348 3 2 1 1 257 296 328 280
349 3 2 1 1 233 288 316 281
350 3 2 1 1 257 281 316 296
351 3 2 1 1 353 331 289 359
352 3 2 1 1 331 353 323 293
353 3 2 1 1 316 342 364 296
354 3 2 1 1 363 344 297 319
355 3 2 1 1 334 365 302 318
356 3 2 1 1 303 302 365 333
357 3 2 1 1 288 304 342 316
358 3 2 1 1 341 308 361 349
359 3 2 1 1 253 311 362 320
360 3 2 1 1 280 328 362 311
361 3 2 1 1 312 336 366 315
362 3 2 1 1 315 366 343 317
363 3 2 1 1 346 323 353 383
364 3 2 1 1 380 324 341 349
365 3 2 1 1 338 381 351 327
366 3 2 1 1 296 364 385 328
367 3 2 1 1 325 345 386 330
368 3 2 1 1 289 330 386 359
369 3 2 1 1 321 333 372 348
370 3 2 1 1 297 344 352 340
371 3 2 1 1 327 351 364 342
372 3 2 1 1 384 400 349 361
373 3 2 1 1 340 352 374 360
374 3 2 1 1 344 371 402 352
375 3 2 1 1 374 352 402 412
376 3 2 1 1 328 385 401 362
377 3 2 1 1 351 403 385 364
378 3 2 1 1 333 365 387 372
379 3 2 1 1 346 393 418 373
380 3 2 1 1 371 377 415 391
381 3 2 1 1 369 379 411 394
382 3 2 1 1 368 390 416 384
383 3 2 1 1 400 384 416 422
384 3 2 1 1 413 401 385 403
385 3 2 1 1 426 393 414 433
386 3 2 1 1 424 409 400 422
387 3 2 1 1 391 421 431 405
388 3 2 1 1 389 406 436 419
389 3 2 1 1 408 423 436 406
390 3 2 1 1 389 419 433 414
391 3 2 1 1 391 415 434 421
392 3 2 1 1 397 424 434 415
393 3 2 1 1 431 437 419 436
394 3 2 1 1 135 92 74 75
395 3 2 1 1 417 397 348 372
396 3 2 1 1 409 424 397 417
397 3 2 1 1 149 60 61 116
398 3 2 1 1 117 107 79 80
399 3 2 1 1 326 299 261 292
400 3 2 1 1 24 103 147 23
401 3 2 2 2 882 878 861 871
402 3 2 2 2 849 857 861 878
403 3 2 2 2 872 864 856 870
404 3 2 2 2 882 871 880 879
405 3 2 2 2 787 796 812 788
406 3 2 2 2 861 857 852 863
407 3 2 2 2 812 796 829 832
408 3 2 2 2 861 863 875 871
409 3 2 2 2 701 761 766 809
410 3 2 2 2 871 875 874 880
411 3 2 2 2 819 795 772 809
412 3 2 2 2 879 873 877 881
413 3 2 2 2 832 836 860 852
414 3 2 2 2 836 838 822 860
415 3 2 2 2 822 838 820 793
416 3 2 2 2 556 617 519 520
417 3 2 2 2 591 686 637 557
418 3 2 2 2 550 590 589 558
419 3 2 2 2 556 589 590 638
420 3 2 2 2 876 867 850 873
421 3 2 2 2 501 588 548 500
422 3 2 2 2 588 641 621 548
423 3 2 2 2 590 655 681 638
424 3 2 2 2 625 669 707 674
425 3 2 2 2 665 674 707 746
426 3 2 2 2 858 831 855 866
427 3 2 2 2 708 747 776 737
428 3 2 2 2 671 639 601 561
429 3 2 2 2 850 865 877 873
430 3 2 2 2 638 629 617 556
431 3 2 2 2 577 639 708 684
432 3 2 2 2 710 660 731 767
433 3 2 2 2 697 741 716 661
434 3 2 2 2 726 684 758 783
435 3 2 2 2 725 715 740 781
436 3 2 2 2 445 466 558 522
437 3 2 2 2 559 532 577 642
438 3 2 2 2 583 660 710 627
439 3 2 2 2 707 666 699 746
440 3 2 2 2 695 712 711 694
441 3 2 2 2 813 833 821 824
442 3 2 2 2 742 698 619 680
443 3 2 2 2 592 626 695 659
444 3 2 2 2 480 481 542 587
445 3 2 2 2 481 482 610 542
446 3 2 2 2 553 483 484 575
447 3 2 2 2 546 502 503 560
448 3 2 2 2 514 595 545 513
449 3 2 2 2 583 562 559 642
450 3 2 2 2 730 755 786 706
451 3 2 2 2 743 771 755 711
452 3 2 2 2 808 847 817 762
453 3 2 2 2 794 771 802 823
454 3 2 2 2 810 789 828 834
455 3 2 2 2 722 689 744 447
456 3 2 2 2 495 559 562 494
457 3 2 2 2 559 495 496 532
458 3 2 2 2 515 516 541 574
459 3 2 2 2 641 674 665 621
460 3 2 2 2 583 642 726 660
461 3 2 2 2 577 684 726 642
462 3 2 2 2 578 661 716 646
463 3 2 2 2 768 799 776 777
464 3 2 2 2 821 833 853 837
465 3 2 2 2 598 618 673 552
466 3 2 2 2 583 627 576 562
467 3 2 2 2 582 628 714 672
468 3 2 2 2 862 876 880 874
469 3 2 2 2 470 471 603 534
470 3 2 2 2 489 490 604 547
471 3 2 2 2 532 496 497 601
472 3 2 2 2 497 498 561 601
473 3 2 2 2 564 509 510 543
474 3 2 2 2 510 511 594 543
475 3 2 2 2 541 516 517 602
476 3 2 2 2 556 520 521 589
477 3 2 2 2 529 528 678 672
478 3 2 2 2 646 533 566 578
479 3 2 2 2 680 619 535 600
480 3 2 2 2 594 628 582 543
481 3 2 2 2 590 550 573 655
482 3 2 2 2 637 618 598 557
483 3 2 2 2 546 560 572 581
484 3 2 2 2 593 643 671 561
485 3 2 2 2 543 582 653 564
486 3 2 2 2 553 575 599 592
487 3 2 2 2 566 609 636 578
488 3 2 2 2 670 661 578 636
489 3 2 2 2 662 704 673 618
490 3 2 2 2 680 627 710 742
491 3 2 2 2 640 679 714 628
492 3 2 2 2 618 637 725 662
493 3 2 2 2 686 715 725 637
494 3 2 2 2 671 643 709 747
495 3 2 2 2 686 646 716 715
496 3 2 2 2 582 672 678 653
497 3 2 2 2 634 653 678 720
498 3 2 2 2 704 662 732 770
499 3 2 2 2 639 671 747 708
500 3 2 2 2 644 673 704 739
501 3 2 2 2 708 737 758 684
502 3 2 2 2 742 775 733 698
503 3 2 2 2 739 704 770 804
504 3 2 2 2 776 747 709 777
505 3 2 2 2 775 742 710 767
506 3 2 2 2 741 740 715 716
507 3 2 2 2 660 726 783 731
508 3 2 2 2 774 797 781 740
509 3 2 2 2 767 798 827 775
510 3 2 2 2 790 816 800 779
511 3 2 2 2 824 785 803 813
512 3 2 2 2 818 791 827 835
513 3 2 2 2 847 846 859 817
514 3 2 2 2 835 854 846 818
515 3 2 2 2 864 855 831 840
516 3 2 2 2 854 862 859 846
517 3 2 2 2 875 851 869 874
518 3 2 2 2 464 463 596 572
519 3 2 2 2 572 560 465 464
520 3 2 2 2 444 465 560 503
521 3 2 2 2 558 466 467 550
522 3 2 2 2 573 550 467 468
523 3 2 2 2 468 469 597 573
524 3 2 2 2 591 557 474 475
525 3 2 2 2 473 474 557 598
526 3 2 2 2 477 566 533 476
527 3 2 2 2 475 476 533 591
528 3 2 2 2 482 483 553 610
529 3 2 2 2 446 485 575 484
530 3 2 2 2 485 486 599 575
531 3 2 2 2 562 576 493 494
532 3 2 2 2 507 544 563 506
533 3 2 2 2 507 508 613 544
534 3 2 2 2 509 564 613 508
535 3 2 2 2 515 574 595 514
536 3 2 2 2 524 614 645 525
537 3 2 2 2 525 645 675 526
538 3 2 2 2 525 526 677 649
539 3 2 2 2 526 675 720 527
540 3 2 2 2 528 527 720 678
541 3 2 2 2 528 713 728 527
542 3 2 2 2 713 528 529 745
543 3 2 2 2 672 714 530 529
544 3 2 2 2 530 701 745 529
545 3 2 2 2 601 639 577 532
546 3 2 2 2 646 686 591 533
547 3 2 2 2 579 658 607 536
548 3 2 2 2 635 636 609 537
549 3 2 2 2 625 596 540 669
550 3 2 2 2 643 593 548 621
551 3 2 2 2 592 599 549 626
552 3 2 2 2 673 644 603 552
553 3 2 2 2 544 584 647 563
554 3 2 2 2 628 594 565 640
555 3 2 2 2 581 572 596 625
556 3 2 2 2 597 620 655 573
557 3 2 2 2 541 580 630 574
558 3 2 2 2 627 680 600 576
559 3 2 2 2 717 663 579 654
560 3 2 2 2 544 613 634 584
561 3 2 2 2 647 584 675 645
562 3 2 2 2 553 592 659 610
563 3 2 2 2 535 619 687 604
564 3 2 2 2 564 653 634 613
565 3 2 2 2 707 669 622 666
566 3 2 2 2 584 634 720 675
567 3 2 2 2 636 635 706 670
568 3 2 2 2 586 722 679 640
569 3 2 2 2 621 665 709 643
570 3 2 2 2 739 700 683 644
571 3 2 2 2 630 682 689 650
572 3 2 2 2 750 736 729 663
573 3 2 2 2 689 682 721 744
574 3 2 2 2 635 685 730 706
575 3 2 2 2 619 698 718 687
576 3 2 2 2 664 719 757 703
577 3 2 2 2 665 746 777 709
578 3 2 2 2 694 711 755 730
579 3 2 2 2 711 712 753 743
580 3 2 2 2 703 734 773 721
581 3 2 2 2 738 744 721 773
582 3 2 2 2 713 749 751 728
583 3 2 2 2 797 793 732 781
584 3 2 2 2 703 757 765 734
585 3 2 2 2 765 814 792 734
586 3 2 2 2 773 734 792 829
587 3 2 2 2 700 739 804 769
588 3 2 2 2 718 780 743 753
589 3 2 2 2 699 768 777 746
590 3 2 2 2 724 756 778 748
591 3 2 2 2 719 748 778 757
592 3 2 2 2 769 801 778 756
593 3 2 2 2 737 764 807 758
594 3 2 2 2 803 763 839 813
595 3 2 2 2 737 776 799 764
596 3 2 2 2 824 821 764 799
597 3 2 2 2 757 778 801 765
598 3 2 2 2 799 768 785 824
599 3 2 2 2 801 769 804 825
600 3 2 2 2 743 780 802 771
601 3 2 2 2 738 773 829 796
602 3 2 2 2 840 831 816 790
603 3 2 2 2 823 802 791 818
604 3 2 2 2 838 836 792 814
605 3 2 2 2 832 829 792 836
606 3 2 2 2 763 800 816 839
607 3 2 2 2 765 801 825 814
608 3 2 2 2 764 821 837 807
609 3 2 2 2 834 828 807 837
610 3 2 2 2 865 850 810 834
611 3 2 2 2 844 811 851 868
612 3 2 2 2 845 869 851 811
613 3 2 2 2 833 813 839 858
614 3 2 2 2 820 838 814 825
615 3 2 2 2 858 839 816 831
616 3 2 2 2 790 826 841 840
617 3 2 2 2 854 835 843 867
618 3 2 2 2 834 837 853 865
619 3 2 2 2 833 858 866 853
620 3 2 2 2 877 865 853 866
621 3 2 2 2 455 454 605 539
622 3 2 2 2 603 471 472 552
623 3 2 2 2 598 552 472 473
624 3 2 2 2 478 479 537 609
625 3 2 2 2 576 600 492 493
626 3 2 2 2 561 498 499 593
627 3 2 2 2 594 511 512 565
628 3 2 2 2 649 616 524 525
629 3 2 2 2 526 527 728 677
630 3 2 2 2 683 534 603 644
631 3 2 2 2 651 632 606 539
632 3 2 2 2 586 640 565 545
633 3 2 2 2 595 650 586 545
634 3 2 2 2 536 570 654 579
635 3 2 2 2 729 658 579 663
636 3 2 2 2 541 602 633 580
637 3 2 2 2 722 586 650 689
638 3 2 2 2 537 587 685 635
639 3 2 2 2 574 630 650 595
640 3 2 2 2 645 614 652 647
641 3 2 2 2 753 623 687 718
642 3 2 2 2 651 692 668 632
643 3 2 2 2 580 633 719 664
644 3 2 2 2 748 719 633 690
645 3 2 2 2 651 656 693 692
646 3 2 2 2 622 657 688 666
647 3 2 2 2 703 721 682 664
648 3 2 2 2 752 705 668 692
649 3 2 2 2 751 676 677 728
650 3 2 2 2 780 718 698 733
651 3 2 2 2 768 699 760 785
652 3 2 2 2 769 756 723 700
653 3 2 2 2 779 800 759 705
654 3 2 2 2 752 784 779 705
655 3 2 2 2 802 780 733 791
656 3 2 2 2 785 760 736 803
657 3 2 2 2 750 763 803 736
658 3 2 2 2 826 790 779 784
659 3 2 2 2 758 807 828 783
660 3 2 2 2 867 876 862 854
661 3 2 2 2 873 879 880 876
662 3 2 2 2 679 722 447 531
663 3 2 2 2 442 504 567 448
664 3 2 2 2 449 448 567 554
665 3 2 2 2 443 450 568 523
666 3 2 2 2 449 554 568 450
667 3 2 2 2 443 523 569 451
668 3 2 2 2 452 451 569 555
669 3 2 2 2 453 452 555 551
670 3 2 2 2 453 551 605 454
671 3 2 2 2 606 456 455 539
672 3 2 2 2 456 606 570 457
673 3 2 2 2 457 570 536 458
674 3 2 2 2 458 536 607 459
675 3 2 2 2 460 459 607 571
676 3 2 2 2 462 461 608 540
677 3 2 2 2 460 571 608 461
678 3 2 2 2 596 463 462 540
679 3 2 2 2 597 469 470 534
680 3 2 2 2 587 537 479 480
681 3 2 2 2 599 486 487 549
682 3 2 2 2 489 547 611 488
683 3 2 2 2 487 488 611 549
684 3 2 2 2 604 490 491 535
685 3 2 2 2 600 535 491 492
686 3 2 2 2 593 499 500 548
687 3 2 2 2 506 563 612 505
688 3 2 2 2 504 505 612 567
689 3 2 2 2 512 513 545 565
690 3 2 2 2 602 517 518 538
691 3 2 2 2 617 538 518 519
692 3 2 2 2 523 568 614 524
693 3 2 2 2 523 524 616 569
694 3 2 2 2 714 679 531 530
695 3 2 2 2 531 761 701 530
696 3 2 2 2 597 534 683 620
697 3 2 2 2 617 629 690 538
698 3 2 2 2 602 538 690 633
699 3 2 2 2 669 540 608 622
700 3 2 2 2 610 659 624 542
701 3 2 2 2 567 612 652 554
702 3 2 2 2 568 554 652 614
703 3 2 2 2 551 555 615 585
704 3 2 2 2 555 569 616 615
705 3 2 2 2 606 632 654 570
706 3 2 2 2 608 571 657 622
707 3 2 2 2 607 658 657 571
708 3 2 2 2 551 585 656 605
709 3 2 2 2 542 624 685 587
710 3 2 2 2 547 604 687 623
711 3 2 2 2 539 605 656 651
712 3 2 2 2 547 623 691 611
713 3 2 2 2 549 611 691 626
714 3 2 2 2 563 647 652 612
715 3 2 2 2 585 615 648 631
716 3 2 2 2 615 616 649 648
717 3 2 2 2 655 620 723 681
718 3 2 2 2 683 700 723 620
719 3 2 2 2 691 623 753 712
720 3 2 2 2 695 694 624 659
721 3 2 2 2 730 685 624 694
722 3 2 2 2 695 626 691 712
723 3 2 2 2 638 681 724 629
724 3 2 2 2 748 690 629 724
725 3 2 2 2 580 664 682 630
726 3 2 2 2 585 631 693 656
727 3 2 2 2 654 632 668 717
728 3 2 2 2 631 648 676 667
729 3 2 2 2 648 649 677 676
730 3 2 2 2 658 729 688 657
731 3 2 2 2 781 732 662 725
732 3 2 2 2 631 667 727 693
733 3 2 2 2 759 717 668 705
734 3 2 2 2 661 670 754 697
735 3 2 2 2 706 786 754 670
736 3 2 2 2 667 676 751 702
737 3 2 2 2 756 724 681 723
738 3 2 2 2 666 688 760 699
739 3 2 2 2 729 736 760 688
740 3 2 2 2 692 693 727 752
741 3 2 2 2 667 702 735 727
742 3 2 2 2 751 749 782 702
743 3 2 2 2 663 717 759 750
744 3 2 2 2 784 752 727 735
745 3 2 2 2 798 767 731 789
746 3 2 2 2 827 791 733 775
747 3 2 2 2 702 782 805 735
748 3 2 2 2 784 735 805 826
749 3 2 2 2 697 762 806 741
750 3 2 2 2 740 741 806 774
751 3 2 2 2 713 745 772 749
752 3 2 2 2 763 750 759 800
753 3 2 2 2 697 754 808 762
754 3 2 2 2 771 794 786 755
755 3 2 2 2 732 793 820 770
756 3 2 2 2 749 772 795 782
757 3 2 2 2 731 783 828 789
758 3 2 2 2 754 786 794 808
759 3 2 2 2 847 808 794 823
760 3 2 2 2 782 795 815 805
761 3 2 2 2 774 811 844 797
762 3 2 2 2 793 797 844 822
763 3 2 2 2 789 810 843 798
764 3 2 2 2 835 827 798 843
765 3 2 2 2 841 826 805 815
766 3 2 2 2 774 806 845 811
767 3 2 2 2 762 817 845 806
768 3 2 2 2 818 846 847 823
769 3 2 2 2 810 850 867 843
770 3 2 2 2 817 859 869 845
771 3 2 2 2 859 862 874 869
772 3 2 2 2 855 881 877 866
773 3 2 2 2 609 566 477 478
774 3 2 2 2 641 588 546 581
775 3 2 2 2 825 804 770 820
776 3 2 2 2 822 844 868 860
777 3 2 2 2 772 745 701 809
778 3 2 2 2 502 546 588 501
779 3 2 2 2 521 522 558 589
780 3 2 2 2 674 641 581 625
781 3 2 2 2 864 872 881 855
782 3 2 2 2 879 881 872 882
783 3 2 2 2 852 857 812 832
784 3 2 2 2 815 795 819 848
785 3 2 2 2 841 815 848 856
786 3 2 2 2 840 841 856 864
787 3 2 2 2 868 863 852 860
788 3 2 2 2 851 875 863 868
789 3 2 2 2 857 849 788 812
790 3 2 2 2 819 809 766 830
791 3 2 2 2 796 787 696 738
792 3 2 2 2 856 848 842 870
793 3 2 2 2 848 819 830 842
794 3 2 2 2 788 849 842 830
795 3 2 2 2 696 787 766 761
796 3 2 2 2 744 738 696 447
797 3 2 2 2 447 696 761 531
798 3 2 2 2 830 766 787 788
799 3 2 2 2 870 842 849 878
800 3 2 2 2 870 878 882 872
$EndElements
