$MeshFormat
2.2 0 8
$EndMeshFormat
$Nodes
882
1 100 -100 0
2 100 100 0
3 0 -100 0
8 0 100 0
11 -100 -100 0
12 -100 100 0
13 100 -90 0
14 100 -80 0
15 100 -70 0
16 100 -60 0
17 100 -50 0
18 100 -40 0
19 100 -30 0
20 100 -20 0
21 100 -10 0
22 100 0 0
23 100 10 0
24 100 20 0
25 100 30 0
26 100 40 0
27 100 50 0
28 100 60 0
29 100 70 0
30 100 80 0
31 100 90 0
32 10 -100 0
33 20 -100 0
34 30 -100 0
35 40 -100 0
36 50 -100 0
37 60 -100 0
38 70 -100 0
39 80 -100 0
40 90 -100 0
41 0 -60 0
42 0 -70 0
43 0 -80 0
44 0 -90 0
62 0 90 0
63 0 80 0
64 0 70 0
65 0 60 0
66 90 100 0
67 80 100 0
68 70 100 0
69 60 100 0
70 50 100 0
71 40 100 0
72 30 100 0
73 20 100 0
74 10 100 0
92 -90 -100 0
93 -80 -100 0
94 -70 -100 0
95 -60 -100 0
96 -50 -100 0
97 -40 -100 0
98 -30 -100 0
99 -20 -100 0
100 -10 -100 0
101 -100 90 0
102 -100 80 0
103 -100 70 0
104 -100 60 0
105 -100 50 0
106 -100 40 0
107 -100 30 0
108 -100 20 0
109 -100 10 0
110 -100 0 0
111 -100 -10 0
112 -100 -20 0
113 -100 -30 0
114 -100 -40 0
115 -100 -50 0
116 -100 -60 0
117 -100 -70 0
118 -100 -80 0
119 -100 -90 0
120 -10 100 0
121 -20 100 0
122 -30 100 0
123 -40 100 0
124 -50 100 0
125 -60 100 0
126 -70 100 0
127 -80 100 0
128 -90 100 0
129 90 60 0
130 90 20 0
131 90 -40 0
132 30 90 0
133 60 -10 0
134 90 -70 0
135 50 -90 0
136 60 90 0
137 20 -60 0
138 60 20 0
139 60 50 0
140 60 -40 0
141 50 60 0
142 90 -20 0
143 30 60 0
144 40 -60 0
145 30 -90 0
146 10 80 0
147 80 -90 0
148 90 80 0
149 20 60 0
150 20 -90 0
151 90 40 0
152 90 8.21565038222616E-15 0
153 90 -60 0
154 60 -20 0
155 60 10 0
156 60 40 0
157 40 90 0
158 90 -90 0
159 10 -90 0
160 70 -90 0
161 10 -60 0
162 10 -70 0
163 10 60 0
164 10 90 0
165 70 90 0
166 90 90 0
167 60 60 0
168 80 -70 0
169 50 -60 0
170 70 20 0
171 20 70 0
172 70 -10 0
173 70 50 0
174 30 80 0
175 60 80 0
176 20 -70 0
177 90 50 0
178 80 80 0
179 90 -10 0
180 90 10 0
181 90 -50 0
182 90 -30 0
183 90 30 0
184 60 30 0
185 80 90 0
186 20 90 0
187 90 70 0
188 60 -30 0
189 60 2.1094237467878E-15 0
190 60 -50 0
191 90 -80 0
192 40 -90 0
193 60 -90 0
194 10 -80 0
195 30 -60 0
196 40 60 0
197 10 70 0
198 30 -80 0
199 80 -80 0
200 50 90 0
201 70 60 0
202 70 10 0
203 70 30 0
204 80 -50 0
205 80 -40 0
206 40 -70 0
207 60 -80 0
208 60 -60 0
209 50 80 0
210 80 20 0
211 80 60 0
212 70 40 0
213 70 80 0
214 80 6.99440505513849E-15 0
215 70 -30 0
216 50 70 0
217 80 -30 0
218 30 70 0
219 20 80 0
220 80 40 0
221 70 -20 0
222 70 4.55191440096314E-15 0
223 80 -20 0
224 50 -80 0
225 70 -40 0
226 20 -80 0
227 80 -60 0
228 70 -80 0
229 30 -70 0
230 40 -80 0
231 40 80 0
232 80 70 0
233 80 10 0
234 80 30 0
235 80 -10 0
236 80 50 0
237 60 70 0
238 40 70 0
239 70 70 0
240 70 -50 0
241 70 -70 0
242 50 -70 0
243 60 -70 0
244 70 -60 0
245 -90 -60 0
246 -90 -20 0
247 -90 40 0
248 -30 -90 0
249 -60 10 0
250 -40 60 0
251 -90 70 0
252 -60 -90 0
253 -60 -20 0
254 -60 -50 0
255 -60 40 0
256 -50 -60 0
257 -30 -60 0
258 -90 20 0
259 -10 70 0
260 -40 90 0
261 -10 -80 0
262 -10 90 0
263 -70 90 0
264 -80 -90 0
265 -10 -70 0
266 -90 90 0
267 -90 -40 0
268 -90 -7.99360577730113E-15 0
269 -90 -80 0
270 -60 20 0
271 -60 -10 0
272 -60 -40 0
273 -20 -60 0
274 -40 -90 0
275 -90 60 0
276 -10 -60 0
277 -10 -90 0
278 -10 60 0
279 -20 60 0
280 -30 90 0
281 -60 90 0
282 -90 -90 0
283 -50 60 0
284 -80 70 0
285 -60 -60 0
286 -70 -20 0
287 -80 -80 0
288 -70 10 0
289 -30 -80 0
290 -70 -50 0
291 -40 80 0
292 -20 70 0
293 -90 -50 0
294 -90 10 0
295 -20 -80 0
296 -90 -10 0
297 -20 -70 0
298 -60 -30 0
299 -20 -90 0
300 -90 50 0
301 -90 30 0
302 -90 -30 0
303 -90 -70 0
304 -60 30 0
305 -60 -2.55351295663786E-15 0
306 -60 50 0
307 -10 80 0
308 -30 60 0
309 -40 -60 0
310 -70 -90 0
311 -90 80 0
312 -20 90 0
313 -50 90 0
314 -80 90 0
315 -70 80 0
316 -50 -90 0
317 -70 -60 0
318 -70 -10 0
319 -70 -30 0
320 -80 50 0
321 -80 40 0
322 -70 -80 0
323 -60 -70 0
324 -60 80 0
325 -60 60 0
326 -80 -20 0
327 -80 -60 0
328 -70 -40 0
329 -80 -6.55031584528842E-15 0
330 -70 30 0
331 -70 40 0
332 -50 -70 0
333 -30 -70 0
334 -80 30 0
335 -80 -40 0
336 -70 20 0
337 -40 -80 0
338 -70 -4.55191440096314E-15 0
339 -80 20 0
340 -80 60 0
341 -40 70 0
342 -50 -80 0
343 -30 80 0
344 -80 80 0
345 -50 80 0
346 -20 80 0
347 -30 70 0
348 -80 -70 0
349 -80 -10 0
350 -80 -30 0
351 -80 10 0
352 -80 -50 0
353 -70 50 0
354 -40 -70 0
355 -70 -70 0
356 -60 -80 0
357 -50 70 0
358 -70 70 0
359 -70 60 0
360 -60 70 0
401 40.0191038833932 -0.0278869299544137 0
402 -9.98352212115383 40.008433263701 0
403 -39.9968203291797 -0.000167703434149545 0
404 20.0000392048349 -40.0000305253473 0
405 10.0176062981547 40.026453242851 0
406 -9.99998244409162 -39.9999995650662 0
407 -39.9995548033584 -20.0000033977383 0
408 40.0155908664803 19.9743277256594 0
409 -39.9994910704709 29.9999140454943 0
410 40.0003383305589 -30.0001734438456 0
411 30.0025585375248 40.0043038993404 0
412 -39.9999989373265 -39.9999999073859 0
413 -29.9981993653586 40.0000932200756 0
414 -39.9980083419899 19.9997664256016 0
415 -19.9999910912488 -39.9999994080794 0
416 10.0000233101436 -40.0000184146338 0
417 40.0028045337982 -20.0025753531572 0
418 40.0000757398567 -40.0000357702572 0
419 40.0008357146791 39.9991712297911 0
420 -39.9996335406935 39.9999886744794 0
421 20.004146208927 -29.9994888113362 0
422 -9.99746157458153 -29.9993359360248 0
423 30.015044921938 -20.0018265998745 0
424 40.0121480715975 -10.0125855676537 0
425 20.0121712166594 40.0189416329881 0
426 -19.9903710424338 40.002133305071 0
427 -39.9959291739812 9.99967888372744 0
428 30.0003615488781 -40.0000153574524 0
429 -29.9895703554408 29.9999896297758 0
430 -39.999934533925 -29.9999995646568 0
431 -29.9999915935206 -39.9999996243393 0
432 0.000186223377101502 -39.9999652935515 0
433 30.029570802521 30.0014507882327 0
434 -39.9978874738692 -10.0000662867162 0
435 40.0268702287202 9.96393528808577 0
436 40.0095256926332 29.9912325529711 0
437 0.0276071945246612 40.0229946355103 0
438 -9.88581946579916 30.024770390277 0
439 30.1033264979427 -0.0261428042619414 0
440 -29.9673789561776 0.000222341124622827 0
441 -29.996034337483 -19.9998637206294 0
442 10.0064066292875 -29.9986689213959 0
443 30.0578372033437 -10.0071091974287 0
444 -29.9742488211642 19.9991743429434 0
445 -19.9987735722207 -29.9997498408214 0
446 0.00630303258189302 -29.9984375016523 0
447 -29.9991825393674 -29.9999301391184 0
448 10.149246150265 30.0866290461031 0
449 20.0965523853912 30.0487254715011 0
450 -19.9442395754663 30.0055519878003 0
451 30.091191950875 19.9874020170104 0
452 30.0039157962466 -30.0002784049261 0
453 20.2640548807011 0.0413069127666835 0
454 20.2463731718171 20.080918533539 0
455 -9.97124855902197 -19.9949468308044 0
456 20.0389228785143 -19.995267620823 0
457 -19.8765204763308 20.0063712216148 0
458 -19.9840916520596 -19.9983525493521 0
459 10.0538290023847 -19.9893770702647 0
460 -29.9797066513556 -9.99933306400775 0
461 30.1356344357953 9.98492645106876 0
462 -29.9555854288344 9.99984724755781 0
463 0.179897332643571 30.0667600517469 0
464 20.3334530754144 10.0863276288327 0
465 -9.87795080273071 -9.98293773547339 0
466 -19.8323909858276 10.0078612103363 0
467 -9.70859513574162 20.0407735789231 0
468 10.3950491383815 20.1473502391482 0
469 20.1333382359517 -9.9813632007581 0
470 0.0558387346928685 -19.9885205831157 0
471 -19.9320734767298 -9.99435515195002 0
472 0.184390803783875 -9.96394782183176 0
473 10.4931575916893 10.1411672200685 0
474 -9.6393780052333 10.0451736621662 0
475 10.3596404283968 0.0807506231575447 0
476 -9.73237973926987 0.0361627787389898 0
477 10.1809515456773 -9.96451756602096 0
478 0.382864100671609 20.0934246433845 0
479 -19.8697766545044 0.0115475986546953 0
480 0.450496225121392 10.0942647432501 0
481 0.328771603839616 0.0656957855114736 0
482 0 -50 0
483 50 -50 0
484 50 50 0
485 0 50 0
486 -50 50 0
487 -50 -50 0
488 10 -50 0
489 20 -50 0
490 30 -50 0
491 40 -50 0
492 50 -40 0
493 50 -30 0
494 50 -20 0
495 50 -10 0
496 50 0 0
497 50 10 0
498 50 20 0
499 50 30 0
500 50 40 0
501 40 50 0
502 30 50 0
503 20 50 0
504 10 50 0
505 -10 50 0
506 -20 50 0
507 -30 50 0
508 -40 50 0
509 -50 40 0
510 -50 30 0
511 -50 20 0
512 -50 10 0
513 -50 0 0
514 -50 -10 0
515 -50 -20 0
516 -50 -30 0
517 -50 -40 0
518 -40 -50 0
519 -30 -50 0
520 -20 -50 0
521 -10 -50 0
482 0 -100 0
483 0 -50 0
484 0 50 0
485 0 100 0
486 0 100 100
487 0 -100 100
488 0 100 -100
489 0 -100 -100
490 0 -60 0
491 0 -70 0
492 0 -80 0
493 0 -90 0
494 0 90 0
495 0 80 0
496 0 70 0
497 0 60 0
498 0 100 90
499 0 100 80
500 0 100 70
501 0 100 60
502 0 100 50
503 0 100 40
504 0 100 30
505 0 100 20
506 0 100 10
507 0 -90 100
508 0 -80 100
509 0 -70 100
510 0 -60 100
511 0 -50 100
512 0 -40 100
513 0 -30 100
514 0 -20 100
515 0 -10 100
516 0 0 100
517 0 10 100
518 0 20 100
519 0 30 100
520 0 40 100
521 0 50 100
522 0 60 100
523 0 70 100
524 0 80 100
525 0 90 100
526 0 100 -10
527 0 100 -20
528 0 100 -30
529 0 100 -40
530 0 100 -50
531 0 100 -60
532 0 100 -70
533 0 100 -80
534 0 100 -90
535 0 -100 10
536 0 -100 20
537 0 -100 30
538 0 -100 40
539 0 -100 50
540 0 -100 60
541 0 -100 70
542 0 -100 80
543 0 -100 90
544 0 90 -100
545 0 80 -100
546 0 70 -100
547 0 60 -100
548 0 50 -100
549 0 40 -100
550 0 30 -100
551 0 20 -100
552 0 10 -100
553 0 0 -100
554 0 -10 -100
555 0 -20 -100
556 0 -30 -100
557 0 -40 -100
558 0 -50 -100
559 0 -60 -100
560 0 -70 -100
561 0 -80 -100
562 0 -90 -100
563 0 -100 -90
564 0 -100 -80
565 0 -100 -70
566 0 -100 -60
567 0 -100 -50
568 0 -100 -40
569 0 -100 -30
570 0 -100 -20
571 0 -100 -10
572 0 -20 -90
573 0 20 90
574 0 -40 90
575 0 40 -90
576 0 90 -60
577 0 -90 60
578 0 -90 -40
579 0 -60 -90
580 0 90 40
581 0 60 90
582 0 -90 40
583 0 90 -40
584 0 -80 90
585 0 80 -90
586 0 90 70
587 0 -90 -70
588 0 -20 90
589 0 20 -90
590 0 90 80
591 0 -90 -90
592 0 -90 10
593 0 -90 -10
594 0 90 10
595 0 90 -10
596 0 40 90
597 0 -40 -90
598 0 80 90
599 0 1.33226762955019E-14 90
600 0 -1.36362275637847E-14 -90
601 0 90 20
602 0 -60 90
603 0 60 -90
604 0 -90 -20
605 0 -90 90
606 0 90 -30
607 0 90 -80
608 0 90 -90
609 0 -90 30
610 0 -90 80
611 0 90 90
612 0 -70 -90
613 0 90 50
614 0 -90 -50
615 0 -80.0000008073672 -39.9999921190604
616 0 80 40
617 0 -80.0000008195076 40.0000123151294
618 0 80 -40
619 0 80 -80
620 0 -80 80
621 0 -70 -80
622 0 50 90
623 0 -50 -90
624 0 -9.99999999999999 90
625 0 9.99999999999999 -90
626 0 80 70
627 0 80 80
628 0 -30 90
629 0 10 90
630 0 30 -90
631 0 90 30
632 0 -50 90
633 0 30 90
634 0 50 -90
635 0 -10 -90
636 0 -80 -90
637 0 -90 -80
638 0 -90.0000000504604 -29.9999995074413
639 0 -80 -10
640 0 80 10
641 0 -70 90
642 0 70 -90
643 0 -30 -90
644 0 -80 10
645 0 80 -10
646 0 90 60
647 0 70 90
648 0 90 -20
649 0 90 -50
650 0 90 -70
651 0 -90 20
652 0 -90.0000000512192 50.0000007696956
653 0 -90 70
654 0 -90 -60
655 0 -20 -80
656 0 -20 80
657 0 20 80
658 0 20 -80
659 0 -60 80
660 0 60 -80
661 0 40 80
662 0 -40 -80
663 0 80 -30
664 0 -80.0000017414536 30.00002616965
665 0 80 50
666 0 80 30
667 0 -80.0000017219628 -29.9999831914335
668 0 -40 80
669 0 -80 -60
670 0 40 -80
671 0 70 70
672 0 2.02060590481778E-14 80
673 0 -1.97260556413642E-14 -80
674 0 60 80
675 0 70 -80
676 0 -70 80
677 0 80 -70
678 0 -80.0000000009294 70.0000001113035
679 0 -70.000012917875 -9.99987390496601
680 0 -70.0000131121214 10.0001970420704
681 0 70 10
682 0 70 -10
683 0 80 -50
684 0 -80.0000001097702 50.0000017469066
685 0 80 20
686 0 -80.0000001009209 -49.9999990148825
687 0 80 60
688 0 -80.0000018566969 20.000027901465
689 0 80 -20
690 0 -80.0000018331335 -19.999982106265
691 0 -60 -80
692 0 -80 -80
693 0 70 80
694 0 70 40
695 0 -70.000000181332 50.000009562912
696 0 70 -50
697 0 -70.0000095638179 -39.9999101577918
698 0 70 60
699 0 -70.0000371362156 -19.999641015815
700 0 30 80
701 0 -70 -70
702 0 -30 -80
703 0 -30 80
704 0 30 -80
705 0 -50 80
706 0 50 -80
707 0 -9.99999999999998 80
708 0 9.99999999999998 -80
709 0 80 -60
710 0 -80.0000000302306 60.0000011006712
711 0 50 80
712 0 -70.0000000058393 70.0000005418318
713 0 70 -70
714 0 -60.0005394407333 -9.99479079270112
715 0 -60.0005384810615 10.0086042213043
716 0 60 10
717 0 60 -10
718 0 -70.0000095163732 40.0001860284818
719 0 70 -40
720 0 10 80
721 0 -10 -80
722 0 70 -20
723 0 -70.0000709543132 20.0011322615746
724 0 70 20
725 0 -70.0000012585528 -49.9999881540256
726 0 -50 -80
727 0 -80 -70
728 0 60 70
729 0 -20.0000000264704 -69.9999997625419
730 0 -20.0000089854207 70.0000035168078
731 0 19.9999998742403 70.0000000370043
732 0 20 -70
733 0 -50.0133391472143 -9.97139890007178
734 0 -50.0158514411354 10.0479991595426
735 0 50 10
736 0 50 -10
737 0 -60.0001534541798 50.0002551776326
738 0 60 -50
739 0 -60.0000393534203 -39.9996369470283
740 0 -40.0000000103974 -69.9999999063123
741 0 50 -70
742 0 60 60
743 0 -60.0000020275023 70.0000023685147
744 0 -60.0011878743876 -19.9948952475907
745 0 29.99999998428 70.0000000046255
746 0 50 70
747 0 -40.0000092576751 70.0000059797898
748 0 -70.0000001636267 -59.9999984576834
749 0 40 -70
750 0 60 -70
751 0 -60.0000000102267 -69.9999999036052
752 0 70 50
753 0 70 30
754 0 -70.0000097593664 60.000018531703
755 0 70 -60
756 0 -70.0001016174525 -29.9994229569056
757 0 -4.40158863649438E-06 70.0000012951492
758 0 9.99999999621811 -69.9999999661717
759 0 -1.65456821576981E-08 -69.9999998520011
760 0 -60.0013496271247 20.009645080354
761 0 60 20
762 0 60 -20
763 0 70 -30
764 0 -70.0001130684154 30.0011192626514
765 0 -40.0973510078657 0.0589120664298665
766 0 39.999934340399 1.00272755871877E-05
767 0 19.9999999992909 -59.9999999936572
768 0 29.999999975501 60.0000006060807
769 0 49.9999999909904 20.0000000069769
770 0 -50.0118998965066 20.0355409907485
771 0 50 -20
772 0 -60.0000001806643 -59.9999983135013
773 0 50 60
774 0 -50.0079623377269 -19.9855374422207
775 0 -60.0003270384901 40.0014087038236
776 0 60 -40
777 0 50 -60
778 0 -50.0000067195035 70.0000057152852
779 0 -50.0000000138695 -69.9999998708335
780 0 -30.0000000291852 -69.999999737403
781 0 29.9999999999557 -69.9999999996036
782 0 -30.000013968743 70.0000070027768
783 0 -60.0000063509807 -49.9999412337697
784 0 -60.0000413042197 60.0000524820393
785 0 60 -60
786 0 60 40
787 0 60 50
788 0 -10.0000082128793 70.0000025257163
789 0 -10.0000000299591 -69.9999997319338
790 0 9.99999994738215 -59.99999952934
791 0 9.99999817648472 70.0000005365618
792 0 -60.0007396036355 -29.9976410090697
793 0 59.9999999994369 30.0000000004361
794 0 -60.0011839136695 30.0057338553276
795 0 60 -30
796 0 39.9999999965038 70.0000000384582
797 0 -0.000111510271089355 60.000005654756
798 0 19.9999840959664 -49.999999962852
799 0 -20.0000077063347 -59.9999861147304
800 0 -20.0003805420931 60.0000922035353
801 0 -50.0010563565163 50.0009632276365
802 0 -50.0001364984544 -39.9990322628449
803 0 -40.0000011860813 -59.9999893108953
804 0 39.9999999999972 -59.9999999999752
805 0 -50.0070131873233 30.0163583836676
806 0 -50.0002297726257 60.0001865607981
807 0 29.9999990059034 -59.9999999968327
808 0 39.9999999955181 60.0000000808565
809 0 -40.0770708526986 -9.97863582218752
810 0 -40.053925178544 20.0470727201491
811 0 -40.0915111934068 10.0509151408756
812 0 39.9999644052596 10.0000154436225
813 0 39.9997592205045 -19.99999983397
814 0 39.999787784275 -9.99999488387332
815 0 49.9999964090749 -50.0000000112124
816 0 19.9999985502844 60.0000047839246
817 0 -40.0003767222898 60.0002073628317
818 0 -6.42688705188021E-06 -59.9999975936133
819 0 49.9999999616387 30.0000000297064
820 0 49.9999813603566 -30.000000000837
821 0 -50.0024865080444 -29.995257877919
822 0 49.9999999805744 50.0000000198795
823 0 -50.0000008901436 -59.9999918382145
824 0 -30.2596049548456 -0.0537933888559197
825 0 29.9865160408719 -9.93498520940328E-05
826 0 -40.0308488743868 30.018445286592
827 0 29.999998109575 50.0000085030271
828 0 39.9999865616702 -50.0000000415441
829 0 -40.0083228204035 -29.9960094656179
830 0 -40.0032093087149 50.0012732976882
831 0 39.9997891754772 -30.0000005366478
832 0 29.9999811259777 -50.0000000465369
833 0 -40.0001306553392 -49.9997696761902
834 0 -30.0000111441515 -59.9999657675449
835 0 -10.0000147388461 -59.9999920914377
836 0 39.9999995767322 50.0000012546331
837 0 -30.1261989037127 19.9831506518537
838 0 29.9939040243737 -20.0000740329375
839 0 39.9999734536561 20.0000135210919
840 0 -10.0003313416936 60.0000225056695
841 0 9.99989870240657 -50.0000121867311
842 0 49.9999999189866 40.0000001212689
843 0 9.99997771002738 60.0000143417356
844 0 -40.0377313612386 -19.9939281447169
845 0 -50.0048669012363 40.0053841535029
846 0 49.9999760229007 -40.000000060071
847 0 -30.0006369588312 60.0002453259972
848 0 -50.0000433709205 -49.9997594393493
849 0 -30.0876699903057 -20.0161040473862
850 0 -20.000521825192 -49.9999673108441
851 0 -0.00200075030982483 49.9989293932546
852 0 -30.0637935974348 29.9920773266528
853 0 29.9999125359325 40.0000350404624
854 0 19.9991868466521 -40.0000332985445
855 0 -20.0052094310934 49.999117769268
856 0 -0.000393564886295161 -50.0000607054232
857 0 39.9999819564452 30.0000088934475
858 0 -30.0058450671823 50.0003715398884
859 0 29.997223748504 -30.000048627312
860 0 -40.0022015029861 -39.9987221124674
861 0 29.9993414091944 -40.0000108805719
862 0 39.9999850871858 40.0000070926783
863 0 -30.2095546213496 9.94870246333263
864 0 29.9881027395955 9.99986425531861
865 0 29.9867754836922 -10.0000897520262
866 0 39.9996961977001 -40.0000045275786
867 0 19.9999244431699 49.9999932838237
868 0 -30.1974368563751 -10.0465096824763
869 0 -40.0144478722127 40.0051222914588
870 0 -30.0005372760109 -49.999781931671
871 0 -20.1765269727172 19.9115442673926
872 0 19.9325639720539 -10.0023814778523
873 0 -20.4083032056253 -0.152382344936989
874 0 29.9992733563714 30.0000541193916
875 0 -30.0272185568149 -30.0031197891923
876 0 19.9912089417459 -30.0004348507138
877 0 29.9944091109322 19.9999571241983
878 0 -20.0072858532139 -40.001079513316
879 0 -20.0273791041706 39.9900426164332
880 0 -10.0010746985364 -50.0001524205102
881 0 -10.0051869144667 49.9978627271588
882 0 -30.0068090301901 -40.0001526028561
883 0 19.9118139800943 -0.00415639354033762
884 0 9.99737579727546 -40.0002912363491
885 0 9.99917989780256 49.9995346545037
886 0 -30.0260481665257 39.9974697889624
887 0 19.9986387787986 39.9996182995938
888 0 -20.2910943173856 -10.0798283873051
889 0 -10.4366056464787 -0.123251008725407
890 0 9.82690283352826 -10.0155982348733
891 0 -20.0417231044894 -30.0087078528171
892 0 9.97941566052032 -30.0022345569529
893 0 -0.00646345196213172 -40.001119040964
894 0 -20.2866391478812 9.87958712257473
895 0 -10.0241986395455 39.9870460815316
896 0 9.99396140492729 39.9969699672546
897 0 -20.1364609775474 -20.0325477651088
898 0 19.9636879044561 -20.0021935629722
899 0 -20.0823490378026 29.963176892688
900 0 19.9738984981767 19.9969758076468
901 0 19.9325037767076 9.99474736142034
902 0 -10.010537341589 -40.0020879894939
903 0 19.9904064029748 29.998113447471
904 0 9.92293850916405 19.9812815097842
905 0 -0.0375916334676737 -30.0063711291388
906 0 -10.1804689105791 19.9148085071509
907 0 -10.3038423923495 -10.0721650360979
908 0 -10.3172248270135 9.89069110400725
909 0 9.77905564269739 -0.0239944375091123
910 0 -0.0162056659983679 39.9907653724847
911 0 9.91833200294831 -20.0091184170634
912 0 9.96870938820236 29.9887099724806
913 0 -10.1457743025812 -20.0320058837669
914 0 -10.0789929781751 29.9601679481985
915 0 -10.054248473263 -30.0112522625121
916 0 -0.32626085714084 -0.0617879283446825
917 0 -0.240763372653846 9.93719970628222
918 0 -0.0601433241346528 29.9727048637103
919 0 -0.129932265469177 -20.0220802213087
920 0 9.85074778571402 9.97351056478513
921 0 -0.241931676992839 -10.0442990138356
922 0 -0.13802901975266 19.9512274097114
$EndNodes
$Elements
800
2 3 2 1 1 63 146 164 62
3 3 2 1 1 62 164 74 8
8 3 2 1 1 190 240 225 140
9 3 2 1 1 192 230 198 145
10 3 2 1 1 224 230 192 135
12 3 2 1 1 216 238 196 141
14 3 2 1 1 67 68 165 185
16 3 2 1 1 44 159 194 43
17 3 2 1 1 43 194 162 42
19 3 2 1 1 40 158 147 39
20 3 2 1 1 147 160 38 39
21 3 2 1 1 160 193 37 38
22 3 2 1 1 37 193 135 36
23 3 2 1 1 224 242 206 230
24 3 2 1 1 35 192 145 34
25 3 2 1 1 135 192 35 36
26 3 2 1 1 167 237 216 141
27 3 2 1 1 191 199 147 158
29 3 2 1 1 150 226 194 159
30 3 2 1 1 198 226 150 145
31 3 2 1 1 153 227 168 134
32 3 2 1 1 204 227 153 181
33 3 2 1 1 156 212 173 139
34 3 2 1 1 199 228 160 147
35 3 2 1 1 160 228 207 193
37 3 2 1 1 165 136 175 213
38 3 2 1 1 173 201 167 139
40 3 2 1 1 207 224 135 193
41 3 2 1 1 168 199 191 134
42 3 2 1 1 168 241 228 199
44 3 2 1 1 206 242 169 144
45 3 2 1 1 200 209 175 136
46 3 2 1 1 216 237 175 209
47 3 2 1 1 73 74 164 186
48 3 2 1 1 70 200 136 69
49 3 2 1 1 68 69 136 165
50 3 2 1 1 67 185 166 66
51 3 2 1 1 66 166 31 2
52 3 2 1 1 20 142 182 19
53 3 2 1 1 241 244 208 243
54 3 2 1 1 153 16 17 181
55 3 2 1 1 16 153 134 15
56 3 2 1 1 242 243 208 169
57 3 2 1 1 14 191 158 13
58 3 2 1 1 134 191 14 15
59 3 2 1 1 240 244 227 204
60 3 2 1 1 13 158 40 1
61 3 2 1 1 208 244 240 190
62 3 2 1 1 227 244 241 168
63 3 2 1 1 207 243 242 224
64 3 2 1 1 145 150 33 34
65 3 2 1 1 241 243 207 228
66 3 2 1 1 64 65 163 197
68 3 2 1 1 198 229 176 226
69 3 2 1 1 64 197 146 63
70 3 2 1 1 72 73 186 132
72 3 2 1 1 33 150 159 32
73 3 2 1 1 176 229 195 137
74 3 2 1 1 137 161 162 176
75 3 2 1 1 162 194 226 176
76 3 2 1 1 140 225 215 188
77 3 2 1 1 215 221 154 188
78 3 2 1 1 229 206 144 195
79 3 2 1 1 146 219 186 164
80 3 2 1 1 230 206 229 198
81 3 2 1 1 219 146 197 171
82 3 2 1 1 42 162 161 41
83 3 2 1 1 196 238 218 143
84 3 2 1 1 32 159 44 3
85 3 2 1 1 203 184 138 170
86 3 2 1 1 204 181 131 205
87 3 2 1 1 131 18 19 182
88 3 2 1 1 222 189 133 172
89 3 2 1 1 182 217 205 131
90 3 2 1 1 157 200 70 71
92 3 2 1 1 71 72 132 157
94 3 2 1 1 217 215 225 205
95 3 2 1 1 225 240 204 205
96 3 2 1 1 131 181 17 18
97 3 2 1 1 202 155 189 222
98 3 2 1 1 171 197 163 149
100 3 2 1 1 26 151 183 25
102 3 2 1 1 142 20 21 179
103 3 2 1 1 221 215 217 223
104 3 2 1 1 217 182 142 223
106 3 2 1 1 154 221 172 133
107 3 2 1 1 180 233 214 152
109 3 2 1 1 149 143 218 171
110 3 2 1 1 132 186 219 174
111 3 2 1 1 231 209 200 157
112 3 2 1 1 211 236 177 129
113 3 2 1 1 219 171 218 174
114 3 2 1 1 231 238 216 209
115 3 2 1 1 166 185 178 148
116 3 2 1 1 179 21 22 152
117 3 2 1 1 210 233 180 130
118 3 2 1 1 23 180 152 22
119 3 2 1 1 238 231 174 218
120 3 2 1 1 212 156 184 203
121 3 2 1 1 185 165 213 178
122 3 2 1 1 180 23 24 130
123 3 2 1 1 130 24 25 183
124 3 2 1 1 174 231 157 132
126 3 2 1 1 30 148 187 29
127 3 2 1 1 223 142 179 235
128 3 2 1 1 155 202 170 138
129 3 2 1 1 152 214 235 179
130 3 2 1 1 234 210 130 183
131 3 2 1 1 237 167 201 239
132 3 2 1 1 178 232 187 148
133 3 2 1 1 30 31 166 148
134 3 2 1 1 213 239 232 178
135 3 2 1 1 234 183 151 220
136 3 2 1 1 177 236 220 151
137 3 2 1 1 234 203 170 210
138 3 2 1 1 214 233 202 222
139 3 2 1 1 235 214 222 172
140 3 2 1 1 172 221 223 235
141 3 2 1 1 213 175 237 239
142 3 2 1 1 201 173 236 211
143 3 2 1 1 29 187 129 28
144 3 2 1 1 170 202 233 210
145 3 2 1 1 220 236 173 212
146 3 2 1 1 151 26 27 177
147 3 2 1 1 232 211 129 187
148 3 2 1 1 177 27 28 129
149 3 2 1 1 212 203 234 220
150 3 2 1 1 211 232 239 201
151 3 2 1 1 252 310 94 95
152 3 2 1 1 290 317 285 254
153 3 2 1 1 108 258 301 107
154 3 2 1 1 313 345 291 260
155 3 2 1 1 275 104 105 300
156 3 2 1 1 104 275 251 103
157 3 2 1 1 102 311 266 101
158 3 2 1 1 251 311 102 103
159 3 2 1 1 101 266 128 12
160 3 2 1 1 96 316 252 95
161 3 2 1 1 94 310 264 93
162 3 2 1 1 284 358 315 344
163 3 2 1 1 306 353 331 255
164 3 2 1 1 92 93 264 282
165 3 2 1 1 92 282 119 11
166 3 2 1 1 332 354 309 256
169 3 2 1 1 311 344 314 266
171 3 2 1 1 324 345 313 281
172 3 2 1 1 281 313 124 125
174 3 2 1 1 323 332 256 285
176 3 2 1 1 272 328 290 254
177 3 2 1 1 266 314 127 128
178 3 2 1 1 127 314 263 126
179 3 2 1 1 275 340 284 251
180 3 2 1 1 320 340 275 300
181 3 2 1 1 263 281 125 126
182 3 2 1 1 295 299 277 261
184 3 2 1 1 124 313 260 123
185 3 2 1 1 292 279 278 259
186 3 2 1 1 291 343 280 260
187 3 2 1 1 260 280 122 123
188 3 2 1 1 280 312 121 122
189 3 2 1 1 315 324 281 263
191 3 2 1 1 341 357 283 250
192 3 2 1 1 284 344 311 251
193 3 2 1 1 353 359 340 320
197 3 2 1 1 324 360 357 345
198 3 2 1 1 358 360 324 315
199 3 2 1 1 345 357 341 291
200 3 2 1 1 325 359 353 306
201 3 2 1 1 340 359 358 284
202 3 2 1 1 314 344 315 263
204 3 2 1 1 42 265 261 43
205 3 2 1 1 64 259 278 65
206 3 2 1 1 357 360 325 283
207 3 2 1 1 43 261 277 44
208 3 2 1 1 325 360 358 359
209 3 2 1 1 63 307 259 64
210 3 2 1 1 62 262 307 63
211 3 2 1 1 317 355 323 285
212 3 2 1 1 333 297 273 257
213 3 2 1 1 307 262 312 346
214 3 2 1 1 292 347 308 279
216 3 2 1 1 307 346 292 259
217 3 2 1 1 347 343 291 341
220 3 2 1 1 330 336 270 304
221 3 2 1 1 309 354 333 257
223 3 2 1 1 265 42 41 276
225 3 2 1 1 347 341 250 308
227 3 2 1 1 44 277 100 3
228 3 2 1 1 120 262 62 8
229 3 2 1 1 280 343 346 312
230 3 2 1 1 121 312 262 120
231 3 2 1 1 265 297 295 261
232 3 2 1 1 98 99 299 248
233 3 2 1 1 99 100 277 299
234 3 2 1 1 273 297 265 276
235 3 2 1 1 255 331 330 304
236 3 2 1 1 343 347 292 346
237 3 2 1 1 319 298 253 286
238 3 2 1 1 301 334 321 247
240 3 2 1 1 274 316 96 97
241 3 2 1 1 321 334 330 331
242 3 2 1 1 114 267 302 113
243 3 2 1 1 97 98 248 274
245 3 2 1 1 318 271 305 338
246 3 2 1 1 252 316 342 356
247 3 2 1 1 338 305 249 288
248 3 2 1 1 247 300 105 106
249 3 2 1 1 331 353 320 321
250 3 2 1 1 320 300 247 321
251 3 2 1 1 342 332 323 356
252 3 2 1 1 247 106 107 301
253 3 2 1 1 334 301 258 339
255 3 2 1 1 248 299 295 289
257 3 2 1 1 336 330 334 339
258 3 2 1 1 258 108 109 294
259 3 2 1 1 270 336 288 249
260 3 2 1 1 296 349 329 268
261 3 2 1 1 337 354 332 342
262 3 2 1 1 356 323 355 322
263 3 2 1 1 264 310 322 287
265 3 2 1 1 289 337 274 248
266 3 2 1 1 354 337 289 333
267 3 2 1 1 337 342 316 274
268 3 2 1 1 310 252 356 322
269 3 2 1 1 328 272 298 319
270 3 2 1 1 326 349 296 246
271 3 2 1 1 295 297 333 289
272 3 2 1 1 294 109 110 268
273 3 2 1 1 111 296 268 110
274 3 2 1 1 296 111 112 246
275 3 2 1 1 246 112 113 302
276 3 2 1 1 282 264 287 269
277 3 2 1 1 118 269 303 117
278 3 2 1 1 327 352 293 245
279 3 2 1 1 271 318 286 253
280 3 2 1 1 268 329 351 294
281 3 2 1 1 350 326 246 302
282 3 2 1 1 339 258 294 351
283 3 2 1 1 303 348 327 245
284 3 2 1 1 348 287 322 355
285 3 2 1 1 287 348 303 269
286 3 2 1 1 118 119 282 269
287 3 2 1 1 350 319 286 326
288 3 2 1 1 350 302 267 335
289 3 2 1 1 293 352 335 267
290 3 2 1 1 288 336 339 351
291 3 2 1 1 329 349 318 338
292 3 2 1 1 351 329 338 288
293 3 2 1 1 286 318 349 326
294 3 2 1 1 117 303 245 116
295 3 2 1 1 293 115 116 245
296 3 2 1 1 267 114 115 293
297 3 2 1 1 327 348 355 317
298 3 2 1 1 290 328 335 352
299 3 2 1 1 328 319 350 335
300 3 2 1 1 317 290 352 327
311 3 2 1 1 412 431 447 430
312 3 2 1 1 452 428 418 410
313 3 2 1 1 419 411 433 436
317 3 2 1 1 438 463 437 402
319 3 2 1 1 431 415 445 447
320 3 2 1 1 426 450 438 402
321 3 2 1 1 433 451 408 436
324 3 2 1 1 449 433 411 425
325 3 2 1 1 451 461 435 408
326 3 2 1 1 424 443 423 417
327 3 2 1 1 429 450 426 413
330 3 2 1 1 479 466 462 440
331 3 2 1 1 467 478 463 438
332 3 2 1 1 420 409 429 413
337 3 2 1 1 432 446 422 406
339 3 2 1 1 444 429 409 414
342 3 2 1 1 459 470 446 442
343 3 2 1 1 457 467 438 450
344 3 2 1 1 403 434 460 440
345 3 2 1 1 434 407 441 460
346 3 2 1 1 432 416 442 446
348 3 2 1 1 441 407 430 447
349 3 2 1 1 427 403 440 462
350 3 2 1 1 448 449 425 405
351 3 2 1 1 428 452 421 404
353 3 2 1 1 476 479 471 465
354 3 2 1 1 422 445 415 406
355 3 2 1 1 471 479 440 460
356 3 2 1 1 437 463 448 405
357 3 2 1 1 454 451 433 449
360 3 2 1 1 446 470 455 422
361 3 2 1 1 444 462 466 457
362 3 2 1 1 443 469 456 423
363 3 2 1 1 401 435 461 439
364 3 2 1 1 470 472 465 455
365 3 2 1 1 457 450 429 444
366 3 2 1 1 427 462 444 414
369 3 2 1 1 424 401 439 443
371 3 2 1 1 447 445 458 441
373 3 2 1 1 458 471 460 441
377 3 2 1 1 421 442 416 404
378 3 2 1 1 472 470 459 477
379 3 2 1 1 456 469 477 459
380 3 2 1 1 423 452 410 417
381 3 2 1 1 442 421 456 459
382 3 2 1 1 452 423 456 421
383 3 2 1 1 453 469 443 439
384 3 2 1 1 445 422 455 458
385 3 2 1 1 465 471 458 455
386 3 2 1 1 476 465 472 481
387 3 2 1 1 474 466 479 476
388 3 2 1 1 474 467 457 466
389 3 2 1 1 475 477 469 453
390 3 2 1 1 468 454 449 448
391 3 2 1 1 477 475 481 472
392 3 2 1 1 463 478 468 448
393 3 2 1 1 461 451 454 464
394 3 2 1 1 464 453 439 461
395 3 2 1 1 468 478 480 473
396 3 2 1 1 474 476 481 480
397 3 2 1 1 478 467 474 480
398 3 2 1 1 475 453 464 473
399 3 2 1 1 480 481 475 473
400 3 2 1 1 454 468 473 464
1 3 2 1 1 137 195 490 489
4 3 2 1 1 504 163 65 485
5 3 2 1 1 501 196 143 502
6 3 2 1 1 141 196 501 484
7 3 2 1 1 139 484 500 156
11 3 2 1 1 493 492 140 188
13 3 2 1 1 490 195 144 491
15 3 2 1 1 161 137 489 488
18 3 2 1 1 41 161 488 482
28 3 2 1 1 483 190 140 492
36 3 2 1 1 139 167 141 484
39 3 2 1 1 144 169 483 491
43 3 2 1 1 169 208 190 483
67 3 2 1 1 493 188 154 494
71 3 2 1 1 156 500 499 184
91 3 2 1 1 504 503 149 163
93 3 2 1 1 502 143 149 503
99 3 2 1 1 138 184 499 498
101 3 2 1 1 133 189 496 495
105 3 2 1 1 133 495 494 154
108 3 2 1 1 496 189 155 497
125 3 2 1 1 155 138 498 497
167 3 2 1 1 518 309 257 519
168 3 2 1 1 256 309 518 487
170 3 2 1 1 254 487 517 272
173 3 2 1 1 256 487 254 285
175 3 2 1 1 250 283 486 508
183 3 2 1 1 486 306 255 509
190 3 2 1 1 283 325 306 486
194 3 2 1 1 510 509 255 304
195 3 2 1 1 279 308 507 506
196 3 2 1 1 507 308 250 508
203 3 2 1 1 521 276 41 482
215 3 2 1 1 278 279 506 505
218 3 2 1 1 521 520 273 276
219 3 2 1 1 519 257 273 520
222 3 2 1 1 510 304 270 511
224 3 2 1 1 65 278 505 485
226 3 2 1 1 272 517 516 298
239 3 2 1 1 253 298 516 515
244 3 2 1 1 249 305 513 512
254 3 2 1 1 249 512 511 270
256 3 2 1 1 513 305 271 514
264 3 2 1 1 271 253 515 514
301 3 2 1 1 509 420 508 486
302 3 2 1 1 516 517 412 430
303 3 2 1 1 518 412 517 487
304 3 2 1 1 412 518 519 431
305 3 2 1 1 432 406 521 482
306 3 2 1 1 490 491 418 428
307 3 2 1 1 492 418 491 483
308 3 2 1 1 492 493 410 418
309 3 2 1 1 499 500 419 436
310 3 2 1 1 409 420 509 510
314 3 2 1 1 501 419 500 484
315 3 2 1 1 411 419 501 502
316 3 2 1 1 503 425 411 502
318 3 2 1 1 504 405 425 503
322 3 2 1 1 499 436 408 498
323 3 2 1 1 498 408 435 497
328 3 2 1 1 521 406 415 520
329 3 2 1 1 415 431 519 520
333 3 2 1 1 515 407 434 514
334 3 2 1 1 516 430 407 515
335 3 2 1 1 508 420 413 507
336 3 2 1 1 413 426 506 507
338 3 2 1 1 417 410 493 494
340 3 2 1 1 424 417 494 495
341 3 2 1 1 414 409 510 511
347 3 2 1 1 504 485 437 405
352 3 2 1 1 489 490 428 404
358 3 2 1 1 416 432 482 488
359 3 2 1 1 513 403 427 512
367 3 2 1 1 402 437 485 505
368 3 2 1 1 514 434 403 513
370 3 2 1 1 505 506 426 402
372 3 2 1 1 427 414 511 512
374 3 2 1 1 496 401 424 495
375 3 2 1 1 497 435 401 496
376 3 2 1 1 488 489 404 416
401 3 2 2 2 666 753 694 616
402 3 2 2 2 673 759 758 708
403 3 2 2 2 646 687 626 586
404 3 2 2 2 744 792 756 699
405 3 2 2 2 721 789 759 673
406 3 2 2 2 739 783 725 697
407 3 2 2 2 725 748 669 686
408 3 2 2 2 667 756 697 615
409 3 2 2 2 818 856 841 790
410 3 2 2 2 864 877 839 812
411 3 2 2 2 694 752 665 616
412 3 2 2 2 614 654 566 567
413 3 2 2 2 566 654 587 565
414 3 2 2 2 591 563 564 637
415 3 2 2 2 606 648 527 528
416 3 2 2 2 564 565 587 637
417 3 2 2 2 583 606 528 529
418 3 2 2 2 820 846 866 831
419 3 2 2 2 653 610 620 678
420 3 2 2 2 738 776 719 696
421 3 2 2 2 576 650 677 709
422 3 2 2 2 576 709 683 649
423 3 2 2 2 620 584 641 676
424 3 2 2 2 650 607 619 677
425 3 2 2 2 619 585 642 675
426 3 2 2 2 577 653 678 710
427 3 2 2 2 577 710 684 652
428 3 2 2 2 602 510 511 632
429 3 2 2 2 696 719 618 683
430 3 2 2 2 676 712 678 620
431 3 2 2 2 737 775 718 695
432 3 2 2 2 509 510 602 641
433 3 2 2 2 509 641 584 508
434 3 2 2 2 577 652 539 540
435 3 2 2 2 845 869 826 805
436 3 2 2 2 603 547 548 634
437 3 2 2 2 736 814 766 484
438 3 2 2 2 762 771 736 717
439 3 2 2 2 546 547 603 642
440 3 2 2 2 546 642 585 545
441 3 2 2 2 754 784 737 695
442 3 2 2 2 585 608 544 545
443 3 2 2 2 828 866 846 815
444 3 2 2 2 605 610 542 543
445 3 2 2 2 610 653 541 542
446 3 2 2 2 541 653 577 540
447 3 2 2 2 665 687 646 613
448 3 2 2 2 738 696 755 785
449 3 2 2 2 539 652 582 538
450 3 2 2 2 675 713 677 619
451 3 2 2 2 582 609 537 538
452 3 2 2 2 756 792 739 697
453 3 2 2 2 609 651 536 537
454 3 2 2 2 660 675 642 603
455 3 2 2 2 659 676 641 602
456 3 2 2 2 790 767 732 758
457 3 2 2 2 534 608 607 533
458 3 2 2 2 544 608 534 488
459 3 2 2 2 563 591 562 489
460 3 2 2 2 607 650 532 533
461 3 2 2 2 532 650 576 531
462 3 2 2 2 719 763 663 618
463 3 2 2 2 530 649 583 529
464 3 2 2 2 576 649 530 531
465 3 2 2 2 718 764 664 617
466 3 2 2 2 771 820 831 813
467 3 2 2 2 496 682 717 497
468 3 2 2 2 585 619 607 608
469 3 2 2 2 617 664 609 582
470 3 2 2 2 495 645 682 496
471 3 2 2 2 697 725 686 615
472 3 2 2 2 618 663 606 583
473 3 2 2 2 494 595 645 495
474 3 2 2 2 669 727 587 654
475 3 2 2 2 790 841 798 767
476 3 2 2 2 493 592 644 492
477 3 2 2 2 493 593 571 482
478 3 2 2 2 771 813 814 736
479 3 2 2 2 492 644 680 491
480 3 2 2 2 764 723 688 664
481 3 2 2 2 763 722 689 663
482 3 2 2 2 649 683 618 583
483 3 2 2 2 491 680 715 490
484 3 2 2 2 601 685 666 631
485 3 2 2 2 809 844 774 733
486 3 2 2 2 490 715 734 483
487 3 2 2 2 801 845 775 737
488 3 2 2 2 783 739 802 848
489 3 2 2 2 679 491 490 714
490 3 2 2 2 484 766 812 735
491 3 2 2 2 710 754 695 684
492 3 2 2 2 730 782 703 656
493 3 2 2 2 815 846 776 738
494 3 2 2 2 483 765 809 733
495 3 2 2 2 709 755 696 683
496 3 2 2 2 699 679 714 744
497 3 2 2 2 713 755 709 677
498 3 2 2 2 722 762 717 682
499 3 2 2 2 584 605 507 508
500 3 2 2 2 507 605 543 487
501 3 2 2 2 818 790 758 759
502 3 2 2 2 695 718 617 684
503 3 2 2 2 652 684 617 582
504 3 2 2 2 688 723 680 644
505 3 2 2 2 805 826 810 770
506 3 2 2 2 614 686 669 654
507 3 2 2 2 766 825 864 812
508 3 2 2 2 613 646 501 502
509 3 2 2 2 501 646 586 500
510 3 2 2 2 723 760 715 680
511 3 2 2 2 584 620 610 605
512 3 2 2 2 499 500 586 590
513 3 2 2 2 590 611 498 499
514 3 2 2 2 497 716 681 496
515 3 2 2 2 498 611 525 486
516 3 2 2 2 712 754 710 678
517 3 2 2 2 497 717 736 484
518 3 2 2 2 689 722 682 645
519 3 2 2 2 775 845 805 794
520 3 2 2 2 872 883 825 865
521 3 2 2 2 594 640 685 601
522 3 2 2 2 735 812 839 769
523 3 2 2 2 825 883 901 864
524 3 2 2 2 764 794 760 723
525 3 2 2 2 909 883 872 890
526 3 2 2 2 763 795 762 722
527 3 2 2 2 606 663 689 648
528 3 2 2 2 826 852 837 810
529 3 2 2 2 839 857 819 769
530 3 2 2 2 776 846 820 795
531 3 2 2 2 604 593 639 690
532 3 2 2 2 770 760 794 805
533 3 2 2 2 570 571 593 604
534 3 2 2 2 774 821 792 744
535 3 2 2 2 645 595 648 689
536 3 2 2 2 644 592 651 688
537 3 2 2 2 570 604 638 569
538 3 2 2 2 609 664 688 651
539 3 2 2 2 825 766 814 865
540 3 2 2 2 761 793 753 724
541 3 2 2 2 770 810 811 734
542 3 2 2 2 690 667 638 604
543 3 2 2 2 813 838 865 814
544 3 2 2 2 821 802 739 792
545 3 2 2 2 771 762 795 820
546 3 2 2 2 483 733 714 490
547 3 2 2 2 719 776 795 763
548 3 2 2 2 718 775 794 764
549 3 2 2 2 724 681 716 761
550 3 2 2 2 505 601 631 504
551 3 2 2 2 505 506 594 601
552 3 2 2 2 527 648 595 526
553 3 2 2 2 496 681 640 495
554 3 2 2 2 733 774 744 714
555 3 2 2 2 536 651 592 535
556 3 2 2 2 594 494 495 640
557 3 2 2 2 526 595 494 485
558 3 2 2 2 535 592 493 482
559 3 2 2 2 593 493 492 639
560 3 2 2 2 491 679 639 492
561 3 2 2 2 760 770 734 715
562 3 2 2 2 793 786 694 753
563 3 2 2 2 594 506 485 494
564 3 2 2 2 735 769 761 716
565 3 2 2 2 734 811 765 483
566 3 2 2 2 484 735 716 497
567 3 2 2 2 841 884 854 798
568 3 2 2 2 681 724 685 640
569 3 2 2 2 575 549 550 630
570 3 2 2 2 781 807 804 749
571 3 2 2 2 809 868 849 844
572 3 2 2 2 893 884 841 856
573 3 2 2 2 897 849 868 888
574 3 2 2 2 574 632 511 512
575 3 2 2 2 574 512 513 628
576 3 2 2 2 514 588 628 513
577 3 2 2 2 748 725 783 772
578 3 2 2 2 573 518 519 633
579 3 2 2 2 690 699 756 667
580 3 2 2 2 631 666 616 580
581 3 2 2 2 638 667 615 578
582 3 2 2 2 615 686 614 578
583 3 2 2 2 616 665 613 580
584 3 2 2 2 869 845 801 830
585 3 2 2 2 781 732 767 807
586 3 2 2 2 875 829 844 849
587 3 2 2 2 891 915 902 878
588 3 2 2 2 753 666 685 724
589 3 2 2 2 769 819 793 761
590 3 2 2 2 842 786 793 819
591 3 2 2 2 782 847 817 747
592 3 2 2 2 687 665 752 698
593 3 2 2 2 774 844 829 821
594 3 2 2 2 575 634 548 549
595 3 2 2 2 866 861 859 831
596 3 2 2 2 860 802 821 829
597 3 2 2 2 639 679 699 690
598 3 2 2 2 661 711 746 796
599 3 2 2 2 831 859 838 813
600 3 2 2 2 887 896 885 867
601 3 2 2 2 551 589 630 550
602 3 2 2 2 747 817 806 778
603 3 2 2 2 835 818 759 789
604 3 2 2 2 919 921 890 911
605 3 2 2 2 742 728 671 698
606 3 2 2 2 882 878 850 870
607 3 2 2 2 720 672 599 629
608 3 2 2 2 729 799 835 789
609 3 2 2 2 554 635 600 553
610 3 2 2 2 635 721 673 600
611 3 2 2 2 852 826 869 886
612 3 2 2 2 757 788 707 672
613 3 2 2 2 517 629 599 516
614 3 2 2 2 572 555 556 643
615 3 2 2 2 882 870 833 860
616 3 2 2 2 660 750 713 675
617 3 2 2 2 903 912 896 887
618 3 2 2 2 637 587 727 692
619 3 2 2 2 848 802 860 833
620 3 2 2 2 796 808 768 745
621 3 2 2 2 731 816 843 791
622 3 2 2 2 740 803 834 780
623 3 2 2 2 730 800 847 782
624 3 2 2 2 589 551 552 625
625 3 2 2 2 791 843 797 757
626 3 2 2 2 708 758 732 658
627 3 2 2 2 553 600 625 552
628 3 2 2 2 788 840 800 730
629 3 2 2 2 886 869 830 858
630 3 2 2 2 773 808 796 746
631 3 2 2 2 589 658 704 630
632 3 2 2 2 706 741 750 660
633 3 2 2 2 590 586 626 627
634 3 2 2 2 635 554 555 572
635 3 2 2 2 591 637 692 636
636 3 2 2 2 657 720 629 573
637 3 2 2 2 671 693 627 626
638 3 2 2 2 626 687 698 671
639 3 2 2 2 670 575 630 704
640 3 2 2 2 860 829 875 882
641 3 2 2 2 629 517 518 573
642 3 2 2 2 673 708 625 600
643 3 2 2 2 625 708 658 589
644 3 2 2 2 750 785 755 713
645 3 2 2 2 624 515 516 599
646 3 2 2 2 851 881 840 797
647 3 2 2 2 588 514 515 624
648 3 2 2 2 840 881 855 800
649 3 2 2 2 729 789 721 655
650 3 2 2 2 867 885 843 816
651 3 2 2 2 834 870 850 799
652 3 2 2 2 580 613 502 503
653 3 2 2 2 611 590 627 598
654 3 2 2 2 843 885 851 797
655 3 2 2 2 834 799 729 780
656 3 2 2 2 757 797 840 788
657 3 2 2 2 504 631 580 503
658 3 2 2 2 524 598 647 523
659 3 2 2 2 842 819 857 862
660 3 2 2 2 578 614 567 568
661 3 2 2 2 880 856 818 835
662 3 2 2 2 655 721 635 572
663 3 2 2 2 569 638 578 568
664 3 2 2 2 720 791 757 672
665 3 2 2 2 599 672 707 624
666 3 2 2 2 905 919 911 892
667 3 2 2 2 704 781 749 670
668 3 2 2 2 787 742 698 752
669 3 2 2 2 885 896 910 851
670 3 2 2 2 659 602 632 705
671 3 2 2 2 706 670 749 741
672 3 2 2 2 752 694 786 787
673 3 2 2 2 658 732 781 704
674 3 2 2 2 660 603 634 706
675 3 2 2 2 751 779 726 691
676 3 2 2 2 574 668 705 632
677 3 2 2 2 520 596 633 519
678 3 2 2 2 783 848 823 772
679 3 2 2 2 575 670 706 634
680 3 2 2 2 872 865 838 898
681 3 2 2 2 796 745 700 661
682 3 2 2 2 859 876 898 838
683 3 2 2 2 902 893 856 880
684 3 2 2 2 731 791 720 657
685 3 2 2 2 807 767 798 832
686 3 2 2 2 557 597 643 556
687 3 2 2 2 899 852 886 879
688 3 2 2 2 850 880 835 799
689 3 2 2 2 588 656 703 628
690 3 2 2 2 612 560 561 636
691 3 2 2 2 692 621 612 636
692 3 2 2 2 784 754 712 743
693 3 2 2 2 891 878 882 875
694 3 2 2 2 524 525 611 598
695 3 2 2 2 712 676 659 743
696 3 2 2 2 823 848 833 803
697 3 2 2 2 822 842 862 836
698 3 2 2 2 785 750 741 777
699 3 2 2 2 562 591 636 561
700 3 2 2 2 743 778 806 784
701 3 2 2 2 668 574 628 703
702 3 2 2 2 627 693 647 598
703 3 2 2 2 749 804 777 741
704 3 2 2 2 702 780 729 655
705 3 2 2 2 707 788 730 656
706 3 2 2 2 898 876 892 911
707 3 2 2 2 773 822 836 808
708 3 2 2 2 740 780 702 662
709 3 2 2 2 703 782 747 668
710 3 2 2 2 701 751 691 621
711 3 2 2 2 895 914 899 879
712 3 2 2 2 875 849 897 891
713 3 2 2 2 884 893 905 892
714 3 2 2 2 911 890 872 898
715 3 2 2 2 878 902 880 850
716 3 2 2 2 827 867 816 768
717 3 2 2 2 905 915 913 919
718 3 2 2 2 786 842 822 787
719 3 2 2 2 833 870 834 803
720 3 2 2 2 907 921 919 913
721 3 2 2 2 743 659 705 778
722 3 2 2 2 787 822 773 742
723 3 2 2 2 897 888 907 913
724 3 2 2 2 913 915 891 897
725 3 2 2 2 853 887 867 827
726 3 2 2 2 671 728 674 693
727 3 2 2 2 668 747 778 705
728 3 2 2 2 854 884 892 876
729 3 2 2 2 560 612 579 559
730 3 2 2 2 674 711 622 581
731 3 2 2 2 523 647 581 522
732 3 2 2 2 727 669 748 701
733 3 2 2 2 701 621 692 727
734 3 2 2 2 559 579 623 558
735 3 2 2 2 779 823 803 740
736 3 2 2 2 655 572 643 702
737 3 2 2 2 874 903 887 853
738 3 2 2 2 815 738 785 777
739 3 2 2 2 828 815 777 804
740 3 2 2 2 808 836 827 768
741 3 2 2 2 745 731 657 700
742 3 2 2 2 804 807 832 828
743 3 2 2 2 522 581 622 521
744 3 2 2 2 624 707 656 588
745 3 2 2 2 740 662 726 779
746 3 2 2 2 693 674 581 647
747 3 2 2 2 861 866 828 832
748 3 2 2 2 847 800 855 858
749 3 2 2 2 573 633 700 657
750 3 2 2 2 855 881 895 879
751 3 2 2 2 579 612 621 691
752 3 2 2 2 893 902 915 905
753 3 2 2 2 746 728 742 773
754 3 2 2 2 597 662 702 643
755 3 2 2 2 853 827 836 862
756 3 2 2 2 817 847 858 830
757 3 2 2 2 801 737 784 806
758 3 2 2 2 597 557 558 623
759 3 2 2 2 596 520 521 622
760 3 2 2 2 830 801 806 817
761 3 2 2 2 772 823 779 751
762 3 2 2 2 623 579 691 726
763 3 2 2 2 748 772 751 701
764 3 2 2 2 728 746 711 674
765 3 2 2 2 881 851 910 895
766 3 2 2 2 832 798 854 861
767 3 2 2 2 596 661 700 633
768 3 2 2 2 876 859 861 854
769 3 2 2 2 622 711 661 596
770 3 2 2 2 623 726 662 597
771 3 2 2 2 900 903 874 877
772 3 2 2 2 857 839 877 874
773 3 2 2 2 874 853 862 857
774 3 2 2 2 877 864 901 900
775 3 2 2 2 912 903 900 904
776 3 2 2 2 879 886 858 855
777 3 2 2 2 768 816 731 745
778 3 2 2 2 910 918 914 895
779 3 2 2 2 910 896 912 918
780 3 2 2 2 901 920 904 900
781 3 2 2 2 909 920 901 883
782 3 2 2 2 922 918 912 904
783 3 2 2 2 917 922 904 920
784 3 2 2 2 906 922 917 908
785 3 2 2 2 914 918 922 906
786 3 2 2 2 899 914 906 871
787 3 2 2 2 871 837 852 899
788 3 2 2 2 810 837 863 811
789 3 2 2 2 894 871 906 908
790 3 2 2 2 765 824 868 809
791 3 2 2 2 824 765 811 863
792 3 2 2 2 917 920 909 916
793 3 2 2 2 909 890 921 916
794 3 2 2 2 871 894 863 837
795 3 2 2 2 907 889 916 921
796 3 2 2 2 888 873 889 907
797 3 2 2 2 916 889 908 917
798 3 2 2 2 824 863 894 873
799 3 2 2 2 894 908 889 873
800 3 2 2 2 873 888 868 824
$EndElements
