$MeshFormat
2.2 0 8
$EndMeshFormat
$Nodes
169
0 111.143364327158 100.734473613184 0
1 135.326741519665 112.862362031556 0
2 125.58690067829 123.626486780315 0
3 199.036945334439 19.6034280659121 0
4 196.157056080646 39.0180644032257 0
5 168.874000606192 36.429322619811 0
6 171.354017579633 19.8844997145456 0
7 191.388067146442 58.0569354508925 0
8 168.179919208474 60.0587323243687 0
9 184.775906502257 76.536686473018 0
10 165.029791113873 73.4946703984308 0
11 176.384252869671 94.2793473651995 0
12 159.711968760268 85.0769122717426 0
13 166.293922460509 111.11404660392 0
14 149.974610400667 100.209830899995 0
15 -46.4210253728028 -77.4488018543577 0
16 -69.7438438047294 -116.360573598152 0
17 -50.5337942441981 -141.232493596091 0
18 1.47097637698051 -117.414930198927 0
19 66.1142973265923 -164.42231381602 0
20 85.0272107405653 -159.074722717083 0
21 76.585266974149 -127.774798579071 0
22 50.533794244198 -141.23249359609 0
23 52.3594978485878 -172.606132448651 0
24 7.35488188490245 -149.71206009374 0
25 -24.011891056577 -161.839013497437 0
26 -17.6796388178338 -179.504385308851 0
27 -3.6806367814348E-14 -180.372930269033 0
28 -52.3594978485878 -172.606132448651 0
29 -35.1890130491783 -176.907114991066 0
30 -100.209830899995 -149.974610400667 0
31 -85.0272107405653 -159.074722717083 0
32 -100.734473613183 -111.143364327158 0
33 -113.841470870407 -135.815746884023 0
34 -109.628883283154 -51.850600213233 0
35 -134.365594210663 -80.0084339766965 0
36 -148.341496946252 -96.9072090687075 0
37 -139.43016060163 -114.427375607592 0
38 -148.789356855273 7.30955238152465 0
39 -180.372930269033 1.3311066329468E-14 0
40 -179.504385308851 -17.6796388178338 0
41 -148.377405025486 -22.0097089028329 0
42 -179.504385308851 17.6796388178339 0
43 -176.907114991066 35.1890130491783 0
44 -145.505598538477 36.4472550687194 0
45 -149.274892249562 70.823375168042 0
46 -166.642858494645 69.0257320611025 0
47 -172.606132448651 52.3594978485878 0
48 -160.569153503636 83.5845713735848 0
49 -138.128624582366 110.980583692485 0
50 -125.876389248044 92.7933028017807 0
51 -89.3554548512492 120.481883685519 0
52 -127.542922135721 127.542922135721 0
53 -58.0026774626804 122.636357757027 0
54 -36.4472550687193 145.505598538476 0
55 -49.6797339074731 170.110909792657 0
56 -69.0257320611025 166.642858494645 0
57 -35.1890130491782 176.907114991066 0
58 -17.6796388178339 179.504385308851 0
59 -8.03326994124606 163.413291307615 0
60 1.20135719059763E-15 180.372930269033 0
61 21.9938141215689 148.2702511141 0
62 17.6796388178339 179.504385308851 0
63 88.740608343692 119.652859139326 0
64 100.209830899995 149.974610400667 0
65 81.912143920705 157.150241074955 0
66 64.133665356523 135.599242534839 0
67 114.427375607592 139.43016060163 0
68 147.459220656861 72.323800423345 0
69 139.911822779438 27.0009330756695 0
70 52.3594978485878 172.606132448651 0
71 32.7627537978041 174.134456238062 0
72 -85.0272107405653 159.074722717083 0
73 -99.9810219508317 146.320172366186 0
74 -149.974610400667 100.209830899995 0
75 -176.907114991066 -35.1890130491783 0
76 -172.606132448651 -52.3594978485878 0
77 -155.497997544861 -55.8508431973049 0
78 -167.988689803213 -67.443559564869 0
79 -159.074722717083 -85.0272107405653 0
80 -127.542922135721 -127.542922135721 0
81 -90.1864651345164 4.43057692390289 0
82 -66.1142973265924 -164.42231381602 0
83 15.5368307499982 -176.507262672069 0
84 35.1890130491783 -176.907114991066 0
85 100.209830899995 -149.974610400667 0
86 176.384252869671 -94.2793473651996 0
87 184.775906502257 -76.5366864730181 0
88 162.613548345273 -73.3842592977867 0
89 157.79592328766 -86.1683111229553 0
90 191.388067146442 -58.0569354508925 0
91 165.025940820647 -52.046660723989 0
92 196.157056080646 -39.0180644032257 0
93 168.801612332785 -36.6715196018706 0
94 199.036945334439 -19.6034280659121 0
95 176.722914947893 -15.5474250669551 0
96 200 0 0
97 178.323507133252 -1.75038672660089 0
98 154.602090672547 126.878656832729 0
99 141.42135623731 141.421356237309 0
100 126.878656832729 154.602090672547 0
101 111.11404660392 166.293922460509 0
102 94.2793473651996 176.384252869671 0
103 76.536686473018 184.775906502257 0
104 69.0257320611025 166.642858494645 0
105 58.0569354508925 191.388067146442 0
106 39.0180644032257 196.157056080646 0
107 19.6034280659122 199.036945334439 0
108 1.22460635382238E-14 200 0
109 -19.6034280659121 199.036945334439 0
110 -39.0180644032256 196.157056080646 0
111 -58.0569354508924 191.388067146442 0
112 -76.536686473018 184.775906502257 0
113 -94.2793473651995 176.384252869671 0
114 -111.11404660392 166.293922460509 0
115 -126.878656832729 154.602090672547 0
116 -114.427375607592 139.43016060163 0
117 -141.421356237309 141.42135623731 0
118 -154.602090672547 126.878656832729 0
119 -166.293922460509 111.11404660392 0
120 -176.384252869671 94.2793473651996 0
121 -184.775906502257 76.536686473018 0
122 -191.388067146442 58.0569354508925 0
123 -196.157056080646 39.0180644032257 0
124 -199.036945334439 19.6034280659122 0
125 -200 2.44921270764475E-14 0
126 -199.036945334439 -19.6034280659121 0
127 -196.157056080646 -39.0180644032257 0
128 -191.388067146442 -58.0569354508924 0
129 -184.775906502257 -76.5366864730179 0
130 -176.384252869671 -94.2793473651995 0
131 -166.293922460509 -111.11404660392 0
132 -154.602090672547 -126.878656832729 0
133 -141.42135623731 -141.421356237309 0
134 -126.878656832729 -154.602090672547 0
135 -111.11404660392 -166.293922460509 0
136 -94.2793473651996 -176.384252869671 0
137 -76.5366864730181 -184.775906502257 0
138 -58.0569354508925 -191.388067146442 0
139 -39.0180644032257 -196.157056080646 0
140 -19.6034280659121 -199.036945334439 0
141 -3.67381906146713E-14 -200 0
142 19.603428065912 -199.036945334439 0
143 39.0180644032257 -196.157056080646 0
144 58.0569354508924 -191.388067146442 0
145 76.536686473018 -184.775906502257 0
146 94.2793473651995 -176.384252869671 0
147 111.11404660392 -166.293922460509 0
148 126.878656832729 -154.602090672547 0
149 113.841470870407 -135.815746884023 0
150 141.421356237309 -141.42135623731 0
151 127.542922135721 -127.542922135721 0
152 154.602090672547 -126.878656832729 0
153 139.43016060163 -114.427375607592 0
154 166.293922460509 -111.11404660392 0
155 151.028192609266 -97.7166381311205 0
156 141.15769932643 -79.2929996977146 0
157 100.734473613184 -111.143364327158 0
158 137.300535458087 -40.0739285454062 0
159 157.066728276266 -9.13376065728235 0
160 3.35970181745801 -0.251910071922667 0
161 46.4210253728031 -77.4488018543575 0
162 90.7487221352915 -58.1311153033038 0
163 95.1620558798347 -5.19616305575884 0
164 -38.6061853677621 81.6259208627256 0
165 -104.018742688252 62.3464350379336 0
166 53.7888055271916 72.5258085463095 0
167 12.9725689137604 116.70536431929 0
168 100.001512128406 48.7662630448509 0
$EndNodes
$Elements
157
0 2 2 1 1 0 1 2 
1 3 2 1 1 3 4 5 6
2 3 2 1 1 4 7 8 5
3 3 2 1 1 7 9 10 8
4 3 2 1 1 9 11 12 10
5 3 2 1 1 11 13 14 12
6 3 2 1 1 15 16 17 18
7 3 2 1 1 19 20 21 22
8 2 2 1 1 22 23 19 
9 3 2 1 1 24 25 26 27
10 3 2 1 1 17 28 29 25
11 2 2 1 1 16 30 31 
12 3 2 1 1 16 32 33 30
13 2 2 1 1 32 34 35 
14 3 2 1 1 36 37 32 35
15 3 2 1 1 38 39 40 41
16 2 2 1 1 38 42 39 
17 3 2 1 1 43 42 38 44
18 3 2 1 1 44 45 46 47
19 2 2 1 1 45 48 46 
20 3 2 1 1 49 50 51 52
21 3 2 1 1 53 54 55 56
22 2 2 1 1 54 57 55 
23 3 2 1 1 58 57 54 59
24 3 2 1 1 60 59 61 62
25 3 2 1 1 63 64 65 66
26 2 2 1 1 63 67 64 
27 3 2 1 1 2 67 63 0
28 3 2 1 1 1 0 68 14
29 2 2 1 1 68 10 12 
30 3 2 1 1 5 8 68 69
31 3 2 1 1 66 70 71 61
32 2 2 1 1 59 60 58 
33 2 2 1 1 53 56 72 
34 3 2 1 1 53 72 73 51
35 3 2 1 1 48 45 50 74
36 2 2 1 1 44 47 43 
37 3 2 1 1 41 75 76 77
38 3 2 1 1 35 77 78 79
39 2 2 1 1 32 80 33 
40 3 2 1 1 81 38 41 34
41 3 2 1 1 16 31 82 17
42 3 2 1 1 83 84 22 24
43 2 2 1 1 22 18 24 
44 2 2 1 1 21 20 85 
45 3 2 1 1 86 87 88 89
46 3 2 1 1 87 90 91 88
47 3 2 1 1 90 92 93 91
48 3 2 1 1 92 94 95 93
49 3 2 1 1 95 94 96 97
50 3 2 1 1 96 3 6 97
51 3 2 1 1 13 98 1 14
52 3 2 1 1 98 99 2 1
53 3 2 1 1 99 100 67 2
54 3 2 1 1 100 101 64 67
55 3 2 1 1 101 102 65 64
56 3 2 1 1 102 103 104 65
57 3 2 1 1 103 105 70 104
58 3 2 1 1 105 106 71 70
59 3 2 1 1 106 107 62 71
60 3 2 1 1 107 108 60 62
61 3 2 1 1 108 109 58 60
62 3 2 1 1 109 110 57 58
63 3 2 1 1 110 111 55 57
64 3 2 1 1 111 112 56 55
65 3 2 1 1 112 113 72 56
66 3 2 1 1 113 114 73 72
67 3 2 1 1 114 115 116 73
68 3 2 1 1 115 117 52 116
69 3 2 1 1 117 118 49 52
70 3 2 1 1 118 119 74 49
71 3 2 1 1 119 120 48 74
72 3 2 1 1 120 121 46 48
73 3 2 1 1 121 122 47 46
74 3 2 1 1 122 123 43 47
75 3 2 1 1 123 124 42 43
76 3 2 1 1 124 125 39 42
77 3 2 1 1 125 126 40 39
78 3 2 1 1 126 127 75 40
79 3 2 1 1 127 128 76 75
80 3 2 1 1 128 129 78 76
81 3 2 1 1 129 130 79 78
82 3 2 1 1 130 131 36 79
83 3 2 1 1 131 132 37 36
84 3 2 1 1 132 133 80 37
85 3 2 1 1 133 134 33 80
86 3 2 1 1 134 135 30 33
87 3 2 1 1 135 136 31 30
88 3 2 1 1 136 137 82 31
89 3 2 1 1 137 138 28 82
90 3 2 1 1 138 139 29 28
91 3 2 1 1 139 140 26 29
92 3 2 1 1 140 141 27 26
93 3 2 1 1 141 142 83 27
94 3 2 1 1 142 143 84 83
95 3 2 1 1 143 144 23 84
96 3 2 1 1 144 145 19 23
97 3 2 1 1 145 146 20 19
98 3 2 1 1 146 147 85 20
99 3 2 1 1 147 148 149 85
100 3 2 1 1 148 150 151 149
101 3 2 1 1 150 152 153 151
102 3 2 1 1 152 154 155 153
103 3 2 1 1 154 86 89 155
104 3 2 1 1 155 156 157 153
105 3 2 1 1 21 85 149 157
106 2 2 1 1 156 155 89 
107 3 2 1 1 156 88 91 158
108 2 2 1 1 158 91 93 
109 2 2 1 1 159 95 97 
110 2 2 1 1 69 6 5 
111 3 2 1 1 160 161 162 163
112 3 2 1 1 158 162 157 156
113 2 2 1 1 41 40 75 
114 3 2 1 1 160 164 165 81
115 2 2 1 1 17 82 28 
116 3 2 1 1 160 81 34 15
117 2 2 1 1 157 149 151 
118 3 2 1 1 160 15 18 161
119 2 2 1 1 51 73 116 
120 3 2 1 1 160 166 167 164
121 2 2 1 1 66 65 104 
122 3 2 1 1 81 165 44 38
123 3 2 1 1 53 51 165 164
124 2 2 1 1 35 79 36 
125 3 2 1 1 34 32 16 15
126 2 2 1 1 24 27 83 
127 3 2 1 1 18 22 21 161
128 3 2 1 1 95 159 158 93
129 3 2 1 1 161 21 157 162
130 3 2 1 1 164 167 54 53
131 3 2 1 1 63 66 167 166
132 3 2 1 1 166 168 0 63
133 2 2 1 1 68 8 10 
134 3 2 1 1 160 163 168 166
135 3 2 1 1 50 45 44 165
136 2 2 1 1 50 49 74 
137 2 2 1 1 32 37 80 
138 3 2 1 1 41 77 35 34
139 2 2 1 1 22 84 23 
140 3 2 1 1 17 25 24 18
141 2 2 1 1 157 151 153 
142 3 2 1 1 69 159 97 6
143 3 2 1 1 163 158 159 69
144 2 2 1 1 156 89 88 
145 3 2 1 1 61 59 54 167
146 2 2 1 1 51 116 52 
147 2 2 1 1 51 50 165 
148 2 2 1 1 61 71 62 
149 3 2 1 1 0 168 69 68
150 2 2 1 1 66 104 70 
151 2 2 1 1 66 61 167 
152 2 2 1 1 163 69 168 
153 2 2 1 1 68 12 14 
154 2 2 1 1 77 76 78 
155 2 2 1 1 25 29 26 
156 2 2 1 1 163 162 158 
$EndElements
