$MeshFormat
2.2 0 8
$EndMeshFormat
$Nodes
76
0 19.2476416424961 121.955719394406 0
1 53.2582461642351 148.947303141016 0
2 28.2105932309744 155.798908555722 0
3 196.157056080646 39.0180644032257 0
4 184.775906502257 76.536686473018 0
5 150.387847784541 53.6488042494647 0
6 159.240935511237 28.897184607896 0
7 166.293922460509 111.11404660392 0
8 127.976428751123 84.4644157770591 0
9 141.42135623731 141.421356237309 0
10 113.697922397491 113.697922397491 0
11 59.2976617294962 -92.640932919927 0
12 -0.247823612186671 -131.182790692346 0
13 31.369186215228 -157.703548695666 0
14 64.0298154057393 -142.457740050117 0
15 -24.8049119064371 -159.497313636039 0
16 1.57911267415106 -162.095913256013 0
17 -115.410610411791 -52.3053294064873 0
18 -62.2723052289946 -96.5680467554923 0
19 -7.21644966006352E-14 2.22044604925031E-14 0
20 -107.459371891793 10.7962739331025 0
21 -133.69461299298 -89.3318844067968 0
22 -107.110640746945 -113.672052853191 0
23 -150.056267921138 29.3653113627507 0
24 -153.580513817524 0.105840616893486 0
25 -143.028129894588 67.5410664977811 0
26 -103.389556483331 74.9175128567715 0
27 -43.3200326126848 105.919066860183 0
28 -82.8762224237989 132.384125626303 0
29 -113.697922397491 113.697922397491 0
30 -31.369186215228 157.703548695666 0
31 -61.5328721962472 148.55349458795 0
32 4.02226216456062 158.864544161448 0
33 81.5260223619516 59.3968898573598 0
34 89.3318844067968 133.69461299298 0
35 130.222733095113 18.5825048031898 0
36 -131.60238280898 91.8176370889911 0
37 -147.160440919134 -64.1656130355666 0
38 -89.3318844067968 -133.69461299298 0
39 -61.5328721962473 -148.55349458795 0
40 89.3318844067968 -133.69461299298 0
41 166.293922460509 -111.11404660392 0
42 184.775906502257 -76.5366864730181 0
43 141.224659348731 -63.2277634578637 0
44 130.259235598515 -85.3487170664723 0
45 196.157056080646 -39.0180644032257 0
46 150.043056486795 -37.6705146148875 0
47 200 0 0
48 160.196105084649 4.339364975704 0
49 111.11404660392 166.293922460509 0
50 76.536686473018 184.775906502257 0
51 39.0180644032257 196.157056080646 0
52 1.22460635382238E-14 200 0
53 -39.0180644032256 196.157056080646 0
54 -76.536686473018 184.775906502257 0
55 -111.11404660392 166.293922460509 0
56 -141.421356237309 141.42135623731 0
57 -166.293922460509 111.11404660392 0
58 -184.775906502257 76.536686473018 0
59 -196.157056080646 39.0180644032257 0
60 -200 2.44921270764475E-14 0
61 -196.157056080646 -39.0180644032257 0
62 -154.760633769509 -38.4885518559642 0
63 -184.775906502257 -76.5366864730179 0
64 -166.293922460509 -111.11404660392 0
65 -141.42135623731 -141.421356237309 0
66 -111.11404660392 -166.293922460509 0
67 -76.5366864730181 -184.775906502257 0
68 -39.0180644032257 -196.157056080646 0
69 -3.67381906146713E-14 -200 0
70 39.0180644032257 -196.157056080646 0
71 76.536686473018 -184.775906502257 0
72 111.11404660392 -166.293922460509 0
73 141.421356237309 -141.42135623731 0
74 113.697922397491 -113.697922397491 0
75 99.8204381873272 -53.3551358066141 0
$EndNodes
$Elements
70
0 2 2 1 1 0 1 2 
1 3 2 1 1 3 4 5 6
2 3 2 1 1 4 7 8 5
3 3 2 1 1 7 9 10 8
4 3 2 1 1 11 12 13 14
5 2 2 1 1 12 15 16 
6 3 2 1 1 17 18 19 20
7 3 2 1 1 18 17 21 22
8 2 2 1 1 20 23 24 
9 3 2 1 1 25 23 20 26
10 3 2 1 1 27 28 29 26
11 2 2 1 1 27 30 31 
12 3 2 1 1 32 30 27 0
13 3 2 1 1 33 34 1 0
14 2 2 1 1 33 8 10 
15 3 2 1 1 5 8 33 35
16 2 2 1 1 26 29 36 
17 2 2 1 1 17 37 21 
18 2 2 1 1 18 22 38 
19 2 2 1 1 18 38 39 
20 2 2 1 1 12 16 13 
21 2 2 1 1 11 14 40 
22 3 2 1 1 41 42 43 44
23 3 2 1 1 42 45 46 43
24 3 2 1 1 46 45 47 48
25 3 2 1 1 47 3 6 48
26 3 2 1 1 9 49 34 10
27 3 2 1 1 49 50 1 34
28 3 2 1 1 50 51 2 1
29 3 2 1 1 51 52 32 2
30 3 2 1 1 52 53 30 32
31 3 2 1 1 53 54 31 30
32 3 2 1 1 54 55 28 31
33 3 2 1 1 55 56 29 28
34 3 2 1 1 56 57 36 29
35 3 2 1 1 57 58 25 36
36 3 2 1 1 58 59 23 25
37 3 2 1 1 59 60 24 23
38 3 2 1 1 60 61 62 24
39 3 2 1 1 61 63 37 62
40 3 2 1 1 63 64 21 37
41 3 2 1 1 64 65 22 21
42 3 2 1 1 65 66 38 22
43 3 2 1 1 66 67 39 38
44 3 2 1 1 67 68 15 39
45 3 2 1 1 68 69 16 15
46 3 2 1 1 69 70 13 16
47 3 2 1 1 70 71 14 13
48 3 2 1 1 71 72 40 14
49 3 2 1 1 72 73 74 40
50 3 2 1 1 73 41 44 74
51 3 2 1 1 12 11 19 18
52 2 2 1 1 11 40 74 
53 2 2 1 1 75 44 43 
54 2 2 1 1 75 43 46 
55 3 2 1 1 35 75 46 48
56 2 2 1 1 35 48 6 
57 3 2 1 1 75 33 19 11
58 2 2 1 1 17 62 37 
59 3 2 1 1 62 17 20 24
60 3 2 1 1 19 27 26 20
61 3 2 1 1 15 12 18 39
62 3 2 1 1 44 75 11 74
63 2 2 1 1 27 31 28 
64 3 2 1 1 19 33 0 27
65 2 2 1 1 33 10 34 
66 2 2 1 1 26 36 25 
67 2 2 1 1 0 2 32 
68 2 2 1 1 35 6 5 
69 2 2 1 1 35 33 75 
$EndElements
