$MeshFormat
2.2 0 8
$EndMeshFormat
$Nodes
76
0 9.62382082124804 60.977859697203 0
1 26.6291230821175 74.4736515705081 0
2 14.1052966154872 77.8994542778609 0
3 98.0785280403231 19.5090322016128 0
4 92.3879532511287 38.268343236509 0
5 75.1939238922707 26.8244021247324 0
6 79.6204677556186 14.448592303948 0
7 83.1469612302545 55.5570233019602 0
8 63.9882143755617 42.2322078885295 0
9 70.7106781186548 70.7106781186547 0
10 56.8489611987456 56.8489611987456 0
11 29.6488308647481 -46.3204664599635 0
12 -0.123911806093335 -65.5913953461729 0
13 15.684593107614 -78.8517743478329 0
14 32.0149077028696 -71.2288700250586 0
15 -12.4024559532186 -79.7486568180196 0
16 0.789556337075528 -81.0479566280064 0
17 -57.7053052058957 -26.1526647032436 0
18 -31.1361526144973 -48.2840233777462 0
19 -3.60822483003176E-14 1.11022302462516E-14 0
20 -53.7296859458964 5.39813696655124 0
21 -66.8473064964898 -44.6659422033984 0
22 -53.5553203734726 -56.8360264265955 0
23 -75.0281339605688 14.6826556813754 0
24 -76.7902569087618 0.0529203084467432 0
25 -71.5140649472941 33.7705332488906 0
26 -51.6947782416653 37.4587564283858 0
27 -21.6600163063424 52.9595334300914 0
28 -41.4381112118995 66.1920628131515 0
29 -56.8489611987456 56.8489611987456 0
30 -15.684593107614 78.8517743478329 0
31 -30.7664360981236 74.2767472939751 0
32 2.01113108228031 79.4322720807242 0
33 40.7630111809758 29.6984449286799 0
34 44.6659422033984 66.8473064964898 0
35 65.1113665475565 9.29125240159489 0
36 -65.8011914044899 45.9088185444955 0
37 -73.5802204595671 -32.0828065177833 0
38 -44.6659422033984 -66.8473064964898 0
39 -30.7664360981237 -74.2767472939751 0
40 44.6659422033984 -66.8473064964898 0
41 83.1469612302545 -55.5570233019602 0
42 92.3879532511286 -38.268343236509 0
43 70.6123296743655 -31.6138817289318 0
44 65.1296177992573 -42.6743585332362 0
45 98.078528040323 -19.5090322016129 0
46 75.0215282433974 -18.8352573074438 0
47 100 0 0
48 80.0980525423243 2.169682487852 0
49 55.5570233019602 83.1469612302545 0
50 38.268343236509 92.3879532511287 0
51 19.5090322016128 98.0785280403231 0
52 6.12303176911189E-15 100 0
53 -19.5090322016128 98.0785280403231 0
54 -38.268343236509 92.3879532511287 0
55 -55.5570233019602 83.1469612302545 0
56 -70.7106781186547 70.7106781186548 0
57 -83.1469612302545 55.5570233019602 0
58 -92.3879532511287 38.268343236509 0
59 -98.0785280403231 19.5090322016129 0
60 -100 1.22460635382238E-14 0
61 -98.0785280403231 -19.5090322016128 0
62 -77.3803168847543 -19.2442759279821 0
63 -92.3879532511287 -38.268343236509 0
64 -83.1469612302545 -55.5570233019602 0
65 -70.7106781186548 -70.7106781186547 0
66 -55.5570233019602 -83.1469612302545 0
67 -38.268343236509 -92.3879532511286 0
68 -19.5090322016129 -98.078528040323 0
69 -1.83690953073357E-14 -100 0
70 19.5090322016128 -98.0785280403231 0
71 38.268343236509 -92.3879532511287 0
72 55.5570233019602 -83.1469612302545 0
73 70.7106781186547 -70.7106781186548 0
74 56.8489611987456 -56.8489611987456 0
75 49.9102190936636 -26.677567903307 0
$EndNodes
$Elements
70
0 2 2 1 1 0 1 2 
1 3 2 1 1 3 4 5 6
2 3 2 1 1 4 7 8 5
3 3 2 1 1 7 9 10 8
4 3 2 1 1 11 12 13 14
5 2 2 1 1 12 15 16 
6 3 2 1 1 17 18 19 20
7 3 2 1 1 18 17 21 22
8 2 2 1 1 20 23 24 
9 3 2 1 1 25 23 20 26
10 3 2 1 1 27 28 29 26
11 2 2 1 1 27 30 31 
12 3 2 1 1 32 30 27 0
13 3 2 1 1 33 34 1 0
14 2 2 1 1 33 8 10 
15 3 2 1 1 5 8 33 35
16 2 2 1 1 26 29 36 
17 2 2 1 1 17 37 21 
18 2 2 1 1 18 22 38 
19 2 2 1 1 18 38 39 
20 2 2 1 1 12 16 13 
21 2 2 1 1 11 14 40 
22 3 2 1 1 41 42 43 44
23 3 2 1 1 42 45 46 43
24 3 2 1 1 46 45 47 48
25 3 2 1 1 47 3 6 48
26 3 2 1 1 9 49 34 10
27 3 2 1 1 49 50 1 34
28 3 2 1 1 50 51 2 1
29 3 2 1 1 51 52 32 2
30 3 2 1 1 52 53 30 32
31 3 2 1 1 53 54 31 30
32 3 2 1 1 54 55 28 31
33 3 2 1 1 55 56 29 28
34 3 2 1 1 56 57 36 29
35 3 2 1 1 57 58 25 36
36 3 2 1 1 58 59 23 25
37 3 2 1 1 59 60 24 23
38 3 2 1 1 60 61 62 24
39 3 2 1 1 61 63 37 62
40 3 2 1 1 63 64 21 37
41 3 2 1 1 64 65 22 21
42 3 2 1 1 65 66 38 22
43 3 2 1 1 66 67 39 38
44 3 2 1 1 67 68 15 39
45 3 2 1 1 68 69 16 15
46 3 2 1 1 69 70 13 16
47 3 2 1 1 70 71 14 13
48 3 2 1 1 71 72 40 14
49 3 2 1 1 72 73 74 40
50 3 2 1 1 73 41 44 74
51 3 2 1 1 12 11 19 18
52 2 2 1 1 11 40 74 
53 2 2 1 1 75 44 43 
54 2 2 1 1 75 43 46 
55 3 2 1 1 35 75 46 48
56 2 2 1 1 35 48 6 
57 3 2 1 1 75 33 19 11
58 2 2 1 1 17 62 37 
59 3 2 1 1 62 17 20 24
60 3 2 1 1 19 27 26 20
61 3 2 1 1 15 12 18 39
62 3 2 1 1 44 75 11 74
63 2 2 1 1 27 31 28 
64 3 2 1 1 19 33 0 27
65 2 2 1 1 33 10 34 
66 2 2 1 1 26 36 25 
67 2 2 1 1 0 2 32 
68 2 2 1 1 35 6 5 
69 2 2 1 1 35 33 75 
$EndElements
