$MeshFormat
2.2 0 8
$EndMeshFormat
$Nodes
176
0 79.9831729052364 136.133433025728 0
1 97.7676796411649 150.313491065276 0
2 85.3937111700123 157.448940227868 0
3 199.036945334439 19.6034280659121 0
4 196.157056080646 39.0180644032257 0
5 173.89708561267 37.3836769540809 0
6 179.504385308851 17.6796388178338 0
7 191.388067146442 58.0569354508925 0
8 169.521179881424 51.697402910495 0
9 184.775906502257 76.536686473018 0
10 163.386839322735 69.6906044744465 0
11 176.384252869671 94.2793473651995 0
12 159.074722717083 85.0272107405653 0
13 166.293922460509 111.11404660392 0
14 149.975620756963 101.807019722309 0
15 109.017405163218 -109.049985974722 0
16 114.427375607592 -139.43016060163 0
17 127.542922135721 -127.542922135721 0
18 81.7523615505814 -136.038245132728 0
19 86.3168179692196 -157.259991724428 0
20 98.4026504328283 -149.755579979824 0
21 37.5930124153552 -175.374698756255 0
22 41.3148485917737 -153.231221186872 0
23 -0.583556227067071 -154.344710024572 0
24 17.6796388178337 -179.504385308851 0
25 -13.8439993355394 -177.665425154778 0
26 -3.6806367814348E-14 -180.372930269033 0
27 -48.8673665808788 -150.105729939832 0
28 -65.6976904107625 -166.640622901956 0
29 -52.3594978485878 -172.606132448651 0
30 -89.6924263482779 -136.971993890685 0
31 -87.224531202744 -157.787563874527 0
32 -111.080959054181 -142.272904274905 0
33 -100 -100 0
34 -122.98311897328 -124.530409029952 0
35 -138.144533270118 -111.084699229583 0
36 -131.302434823433 -94.0333882412983 0
37 -149.974610400667 -100.209830899995 0
38 -137.090595622948 -64.8390228356152 0
39 -159.074722717083 -85.0272107405653 0
40 -148.577642183459 -40.9138821224794 0
41 -173.252516541482 -37.209514931529 0
42 -169.704967998106 -51.2991440363481 0
43 -155.706483218187 -0.0711478258653554 0
44 -178.005868453181 13.6803233223063 0
45 -180.372930269033 1.3311066329468E-14 0
46 -176.907114991066 35.1890130491783 0
47 -147.320768612533 40.4775067466763 0
48 -172.606132448651 52.3594978485878 0
49 -166.642858494645 69.0257320611025 0
50 -137.090595622948 64.8390228356153 0
51 -107.13364753657 -51.1505809830394 0
52 -100 0 0
53 -132.466145578043 96.906299913901 0
54 -141.146442196745 112.884427445587 0
55 -149.974610400667 100.209830899995 0
56 -80.8525547403326 135.138438322479 0
57 -86.0918662666574 157.035040021865 0
58 -98.1214608046255 149.474390351621 0
59 -54.764067556069 109.612315840277 0
60 -101.652934448239 109.691919692032 0
61 -100 50 0
62 -50 50 0
63 0 150 0
64 -41.3148485917737 153.231221186872 0
65 0 100 0
66 -37.5930124153552 175.374698756255 0
67 -17.6796388178339 179.504385308851 0
68 36.7713008097683 136.771300809768 0
69 35.1890130491783 176.907114991066 0
70 17.6796388178339 179.504385308851 0
71 52.3594978485878 172.606132448651 0
72 69.0257320611025 166.642858494645 0
73 101.292110370254 107.615532052692 0
74 114.427375607592 139.43016060163 0
75 127.542922135721 127.542922135721 0
76 141.318734850672 113.408271752717 0
77 133.215104153144 97.6785554955344 0
78 1.20135719059763E-15 180.372930269033 0
79 -52.3594978485878 172.606132448651 0
80 -67.4310907840739 160.557347696425 0
81 -159.074722717083 85.0272107405653 0
82 -179.504385308851 -17.6796388178338 0
83 -166.642858494645 -69.0257320611024 0
84 -99.2286606867361 -151.153385835795 0
85 -35.1890130491783 -176.907114991066 0
86 67.6560424866361 -160.782299398987 0
87 136.038245132728 -81.7523615505814 0
88 150.209262727988 -98.0802486256648 0
89 157.318654806258 -85.7844224006371 0
90 176.384252869671 -94.2793473651996 0
91 184.775906502257 -76.5366864730181 0
92 160.457854216741 -67.4414512548313 0
93 191.388067146442 -58.0569354508925 0
94 172.60613244865 -52.3594978485879 0
95 196.157056080646 -39.0180644032257 0
96 174.95447650799 -37.4578722677449 0
97 199.036945334439 -19.6034280659121 0
98 179.504385308851 -17.6796388178338 0
99 200 0 0
100 180.372930269033 4.77240397736931E-16 0
101 154.602090672547 126.878656832729 0
102 141.42135623731 141.421356237309 0
103 126.878656832729 154.602090672547 0
104 111.11404660392 166.293922460509 0
105 94.2793473651996 176.384252869671 0
106 76.536686473018 184.775906502257 0
107 58.0569354508925 191.388067146442 0
108 39.0180644032257 196.157056080646 0
109 19.6034280659122 199.036945334439 0
110 1.22460635382238E-14 200 0
111 -19.6034280659121 199.036945334439 0
112 -39.0180644032256 196.157056080646 0
113 -58.0569354508924 191.388067146442 0
114 -76.536686473018 184.775906502257 0
115 -94.2793473651995 176.384252869671 0
116 -111.11404660392 166.293922460509 0
117 -126.878656832729 154.602090672547 0
118 -114.427375607592 139.43016060163 0
119 -141.421356237309 141.42135623731 0
120 -127.542922135721 127.542922135721 0
121 -154.602090672547 126.878656832729 0
122 -166.293922460509 111.11404660392 0
123 -176.384252869671 94.2793473651996 0
124 -184.775906502257 76.536686473018 0
125 -191.388067146442 58.0569354508925 0
126 -196.157056080646 39.0180644032257 0
127 -199.036945334439 19.6034280659122 0
128 -200 2.44921270764475E-14 0
129 -199.036945334439 -19.6034280659121 0
130 -196.157056080646 -39.0180644032257 0
131 -191.388067146442 -58.0569354508924 0
132 -184.775906502257 -76.5366864730179 0
133 -176.384252869671 -94.2793473651995 0
134 -166.293922460509 -111.11404660392 0
135 -154.602090672547 -126.878656832729 0
136 -141.42135623731 -141.421356237309 0
137 -126.878656832729 -154.602090672547 0
138 -111.11404660392 -166.293922460509 0
139 -94.2793473651996 -176.384252869671 0
140 -76.5366864730181 -184.775906502257 0
141 -58.0569354508925 -191.388067146442 0
142 -39.0180644032257 -196.157056080646 0
143 -19.6034280659121 -199.036945334439 0
144 -3.67381906146713E-14 -200 0
145 19.603428065912 -199.036945334439 0
146 39.0180644032257 -196.157056080646 0
147 58.0569354508924 -191.388067146442 0
148 52.3594978485878 -172.606132448651 0
149 76.536686473018 -184.775906502257 0
150 94.2793473651995 -176.384252869671 0
151 111.11404660392 -166.293922460509 0
152 126.878656832729 -154.602090672547 0
153 141.421356237309 -141.42135623731 0
154 154.602090672547 -126.878656832729 0
155 139.43016060163 -114.427375607592 0
156 166.293922460509 -111.11404660392 0
157 151.550332193811 -40.7742880013323 0
158 109.321196497952 -56.3153271053271 0
159 156.375466948846 -0.0494635424426691 0
160 149.412727443848 41.6583947625602 0
161 140.273950634687 67.8833984544194 0
162 -50 -50 0
163 -49.6994286233093 -96.5951189335107 0
164 -50 0 0
165 56.4169230611147 -109.663890458864 0
166 0 -100 0
167 0 -50 0
168 0 0 0
169 0 50 0
170 50 -50 0
171 50 0 0
172 50 50 0
173 46.6928252024421 96.6928252024421 0
174 100 0 0
175 108.195757689758 53.4314650539342 0
$EndNodes
$Elements
166
0 2 2 1 1 0 1 2 
1 3 2 1 1 3 4 5 6
2 3 2 1 1 4 7 8 5
3 3 2 1 1 7 9 10 8
4 3 2 1 1 9 11 12 10
5 3 2 1 1 11 13 14 12
6 2 2 1 1 15 16 17 
7 2 2 1 1 18 19 20 
8 3 2 1 1 21 22 23 24
9 2 2 1 1 23 25 26 
10 2 2 1 1 27 28 29 
11 3 2 1 1 30 31 28 27
12 3 2 1 1 32 30 33 34
13 3 2 1 1 35 34 33 36
14 3 2 1 1 37 36 38 39
15 2 2 1 1 40 41 42 
16 2 2 1 1 43 44 45 
17 3 2 1 1 46 44 43 47
18 2 2 1 1 47 48 46 
19 3 2 1 1 49 48 47 50
20 3 2 1 1 43 40 51 52
21 2 2 1 1 53 54 55 
22 2 2 1 1 56 57 58 
23 3 2 1 1 59 60 61 62
24 3 2 1 1 63 64 59 65
25 3 2 1 1 66 64 63 67
26 3 2 1 1 63 68 69 70
27 2 2 1 1 68 71 69 
28 2 2 1 1 68 72 71 
29 3 2 1 1 73 74 1 0
30 2 2 1 1 73 75 74 
31 3 2 1 1 76 75 73 77
32 3 2 1 1 68 0 2 72
33 2 2 1 1 63 70 78 
34 2 2 1 1 64 66 79 
35 2 2 1 1 64 79 80 
36 2 2 1 1 56 80 57 
37 2 2 1 1 56 60 59 
38 3 2 1 1 55 81 50 53
39 2 2 1 1 50 81 49 
40 3 2 1 1 61 47 43 52
41 3 2 1 1 41 40 43 82
42 2 2 1 1 38 83 39 
43 2 2 1 1 36 37 35 
44 2 2 1 1 30 32 84 
45 3 2 1 1 25 23 27 85
46 2 2 1 1 23 26 24 
47 2 2 1 1 18 86 19 
48 3 2 1 1 15 18 20 16
49 2 2 1 1 87 88 89 
50 3 2 1 1 90 91 92 89
51 3 2 1 1 91 93 94 92
52 3 2 1 1 93 95 96 94
53 3 2 1 1 95 97 98 96
54 3 2 1 1 98 97 99 100
55 3 2 1 1 99 3 6 100
56 3 2 1 1 13 101 76 14
57 3 2 1 1 101 102 75 76
58 3 2 1 1 102 103 74 75
59 3 2 1 1 103 104 1 74
60 3 2 1 1 104 105 2 1
61 3 2 1 1 105 106 72 2
62 3 2 1 1 106 107 71 72
63 3 2 1 1 107 108 69 71
64 3 2 1 1 108 109 70 69
65 3 2 1 1 109 110 78 70
66 3 2 1 1 110 111 67 78
67 3 2 1 1 111 112 66 67
68 3 2 1 1 112 113 79 66
69 3 2 1 1 113 114 80 79
70 3 2 1 1 114 115 57 80
71 3 2 1 1 115 116 58 57
72 3 2 1 1 116 117 118 58
73 3 2 1 1 117 119 120 118
74 3 2 1 1 119 121 54 120
75 3 2 1 1 121 122 55 54
76 3 2 1 1 122 123 81 55
77 3 2 1 1 123 124 49 81
78 3 2 1 1 124 125 48 49
79 3 2 1 1 125 126 46 48
80 3 2 1 1 126 127 44 46
81 3 2 1 1 127 128 45 44
82 3 2 1 1 128 129 82 45
83 3 2 1 1 129 130 41 82
84 3 2 1 1 130 131 42 41
85 3 2 1 1 131 132 83 42
86 3 2 1 1 132 133 39 83
87 3 2 1 1 133 134 37 39
88 3 2 1 1 134 135 35 37
89 3 2 1 1 135 136 34 35
90 3 2 1 1 136 137 32 34
91 3 2 1 1 137 138 84 32
92 3 2 1 1 138 139 31 84
93 3 2 1 1 139 140 28 31
94 3 2 1 1 140 141 29 28
95 3 2 1 1 141 142 85 29
96 3 2 1 1 142 143 25 85
97 3 2 1 1 143 144 26 25
98 3 2 1 1 144 145 24 26
99 3 2 1 1 145 146 21 24
100 3 2 1 1 146 147 148 21
101 3 2 1 1 147 149 86 148
102 3 2 1 1 149 150 19 86
103 3 2 1 1 150 151 20 19
104 3 2 1 1 151 152 16 20
105 3 2 1 1 152 153 17 16
106 3 2 1 1 153 154 155 17
107 3 2 1 1 154 156 88 155
108 3 2 1 1 156 90 89 88
109 2 2 1 1 157 92 94 
110 3 2 1 1 92 157 158 87
111 3 2 1 1 15 155 88 87
112 3 2 1 1 96 98 159 157
113 2 2 1 1 159 98 100 
114 3 2 1 1 5 160 159 6
115 2 2 1 1 160 5 8 
116 3 2 1 1 10 161 160 8
117 2 2 1 1 161 10 12 
118 3 2 1 1 161 12 14 77
119 2 2 1 1 43 45 82 
120 3 2 1 1 54 53 60 120
121 3 2 1 1 162 51 33 163
122 2 2 1 1 60 118 120 
123 3 2 1 1 164 52 51 162
124 3 2 1 1 60 56 58 118
125 3 2 1 1 62 61 52 164
126 3 2 1 1 86 18 165 22
127 3 2 1 1 163 27 23 166
128 3 2 1 1 167 162 163 166
129 3 2 1 1 168 164 162 167
130 3 2 1 1 80 56 59 64
131 3 2 1 1 169 62 164 168
132 2 2 1 1 22 21 148 
133 3 2 1 1 33 30 27 163
134 3 2 1 1 23 22 165 166
135 3 2 1 1 170 167 166 165
136 3 2 1 1 62 169 65 59
137 3 2 1 1 171 168 167 170
138 3 2 1 1 169 172 173 65
139 3 2 1 1 173 68 63 65
140 2 2 1 1 63 78 67 
141 2 2 1 1 15 17 155 
142 2 2 1 1 18 15 165 
143 3 2 1 1 168 171 172 169
144 3 2 1 1 170 158 174 171
145 3 2 1 1 171 174 175 172
146 3 2 1 1 172 175 73 173
147 3 2 1 1 165 15 158 170
148 3 2 1 1 159 160 175 174
149 2 2 1 1 161 175 160 
150 3 2 1 1 158 157 159 174
151 2 2 1 1 159 100 6 
152 3 2 1 1 73 0 68 173
153 2 2 1 1 27 29 85 
154 3 2 1 1 33 51 38 36
155 2 2 1 1 38 51 40 
156 3 2 1 1 83 38 40 42
157 3 2 1 1 50 61 60 53
158 2 2 1 1 77 14 76 
159 3 2 1 1 73 175 161 77
160 2 2 1 1 30 84 31 
161 2 2 1 1 87 89 92 
162 2 2 1 1 87 158 15 
163 2 2 1 1 157 94 96 
164 2 2 1 1 22 148 86 
165 2 2 1 1 50 47 61 
$EndElements
