$MeshFormat
2.2 0 8
$EndMeshFormat
$Nodes
289
0 -50 100 0
1 -50 75 0
2 -25 75 0
3 -25 100 0
4 0 75 0
5 -25 50 0
6 0 50 0
7 50 75 0
8 25 75 0
9 25 50 0
10 50 50 0
11 50 25 0
12 75 25 0
13 75 50 0
14 50 -25 0
15 75 -25 0
16 75 0 0
17 50 0 0
18 50 -50 0
19 75 -50 0
20 75 -75 0
21 100 -75 0
22 100 -50 0
23 75 -100 0
24 100 -100 0
25 25 100 0
26 50 100 0
27 75 75 0
28 75 100 0
29 0 100 0
30 -50 50 0
31 100 100 0
32 100 75 0
33 -75 0 0
34 -100 0 0
35 -100 -25 0
36 -75 -25 0
37 -75 75 0
38 -75 50 0
39 -75 100 0
40 -100 50 0
41 -100 75 0
42 -75 25 0
43 -100 25 0
44 -100 100 0
45 -100 -50 0
46 -75 -50 0
47 -50 -75 0
48 -75 -75 0
49 -75 -100 0
50 -50 -100 0
51 -100 -75 0
52 -100 -100 0
53 -25 -100 0
54 -25 -75 0
55 -50 -50 0
56 -50 -25 0
57 -50 0 0
58 -50 25 0
59 0 -100 0
60 0 -75 0
61 -25 -50 0
62 -25 -25 0
63 -25 0 0
64 -25 25 0
65 25 -100 0
66 25 -75 0
67 0 -50 0
68 0 -25 0
69 0 0 0
70 0 25 0
71 50 -100 0
72 50 -75 0
73 25 -50 0
74 25 -25 0
75 25 0 0
76 25 25 0
77 100 -25 0
78 100 0 0
79 100 25 0
80 100 50 0
81 -50 87.5 0
82 -37.5 75 0
83 -25 87.5 0
84 -37.5 100 0
85 -37.5 87.5 0
86 -12.5 75 0
87 -25 62.5 0
88 -12.5 50 0
89 0 62.5 0
90 -12.5 62.5 0
91 37.5 75 0
92 25 62.5 0
93 37.5 50 0
94 50 62.5 0
95 37.5 62.5 0
96 62.5 25 0
97 75 37.5 0
98 62.5 50 0
99 50 37.5 0
100 62.5 37.5 0
101 62.5 -25 0
102 75 -12.5 0
103 62.5 0 0
104 50 -12.5 0
105 62.5 -12.5 0
106 62.5 -50 0
107 75 -37.5 0
108 50 -37.5 0
109 62.5 -37.5 0
110 75 -62.5 0
111 87.5 -75 0
112 100 -62.5 0
113 87.5 -50 0
114 87.5 -62.5 0
115 75 -87.5 0
116 87.5 -100 0
117 100 -87.5 0
118 87.5 -87.5 0
119 12.5 75 0
120 12.5 50 0
121 12.5 62.5 0
122 25 87.5 0
123 50 87.5 0
124 37.5 100 0
125 37.5 87.5 0
126 62.5 75 0
127 75 87.5 0
128 62.5 100 0
129 62.5 87.5 0
130 0 87.5 0
131 -12.5 100 0
132 -12.5 87.5 0
133 -50 62.5 0
134 -37.5 50 0
135 -37.5 62.5 0
136 87.5 100 0
137 87.5 75 0
138 100 87.5 0
139 87.5 87.5 0
140 -87.5 0 0
141 -100 -12.5 0
142 -87.5 -25 0
143 -75 -12.5 0
144 -87.5 -12.5 0
145 -62.5 75 0
146 -75 62.5 0
147 -62.5 50 0
148 -62.5 62.5 0
149 -75 87.5 0
150 -62.5 100 0
151 -62.5 87.5 0
152 -87.5 50 0
153 -87.5 75 0
154 -100 62.5 0
155 -87.5 62.5 0
156 -87.5 25 0
157 -100 12.5 0
158 -75 12.5 0
159 -87.5 12.5 0
160 -100 87.5 0
161 -87.5 100 0
162 -87.5 87.5 0
163 12.5 100 0
164 12.5 87.5 0
165 -100 -37.5 0
166 -87.5 -50 0
167 -75 -37.5 0
168 -87.5 -37.5 0
169 -62.5 -75 0
170 -75 -87.5 0
171 -62.5 -100 0
172 -50 -87.5 0
173 -62.5 -87.5 0
174 -100 -62.5 0
175 -87.5 -75 0
176 -75 -62.5 0
177 -87.5 -62.5 0
178 -100 -87.5 0
179 -87.5 -100 0
180 -87.5 -87.5 0
181 -37.5 -100 0
182 -25 -87.5 0
183 -37.5 -75 0
184 -37.5 -87.5 0
185 -62.5 -50 0
186 -50 -62.5 0
187 -62.5 -62.5 0
188 -62.5 -25 0
189 -50 -37.5 0
190 -62.5 -37.5 0
191 -75 37.5 0
192 -100 37.5 0
193 -87.5 37.5 0
194 -62.5 0 0
195 -50 -12.5 0
196 -62.5 -12.5 0
197 -62.5 25 0
198 -50 12.5 0
199 -62.5 12.5 0
200 -12.5 -100 0
201 0 -87.5 0
202 -12.5 -75 0
203 -12.5 -87.5 0
204 75 12.5 0
205 50 12.5 0
206 62.5 12.5 0
207 -37.5 -50 0
208 -25 -62.5 0
209 -37.5 -62.5 0
210 -37.5 -25 0
211 -25 -37.5 0
212 -37.5 -37.5 0
213 -50 37.5 0
214 -62.5 37.5 0
215 -37.5 0 0
216 -25 -12.5 0
217 -37.5 -12.5 0
218 -37.5 25 0
219 -25 12.5 0
220 -37.5 12.5 0
221 12.5 -100 0
222 25 -87.5 0
223 12.5 -75 0
224 12.5 -87.5 0
225 -12.5 -50 0
226 0 -62.5 0
227 -12.5 -62.5 0
228 -12.5 -25 0
229 0 -37.5 0
230 -12.5 -37.5 0
231 -25 37.5 0
232 -37.5 37.5 0
233 -12.5 0 0
234 0 -12.5 0
235 -12.5 -12.5 0
236 -12.5 25 0
237 0 12.5 0
238 -12.5 12.5 0
239 37.5 -100 0
240 50 -87.5 0
241 37.5 -75 0
242 37.5 -87.5 0
243 12.5 -50 0
244 25 -62.5 0
245 12.5 -62.5 0
246 12.5 -25 0
247 25 -37.5 0
248 12.5 -37.5 0
249 0 37.5 0
250 -12.5 37.5 0
251 12.5 0 0
252 25 -12.5 0
253 12.5 -12.5 0
254 12.5 25 0
255 25 12.5 0
256 12.5 12.5 0
257 62.5 -100 0
258 62.5 -75 0
259 62.5 -87.5 0
260 50 -62.5 0
261 37.5 -50 0
262 37.5 -62.5 0
263 37.5 -25 0
264 37.5 -37.5 0
265 37.5 0 0
266 37.5 -12.5 0
267 25 37.5 0
268 12.5 37.5 0
269 37.5 25 0
270 37.5 12.5 0
271 37.5 37.5 0
272 62.5 -62.5 0
273 100 -37.5 0
274 87.5 -25 0
275 87.5 -37.5 0
276 100 -12.5 0
277 87.5 0 0
278 87.5 -12.5 0
279 100 12.5 0
280 87.5 25 0
281 87.5 12.5 0
282 100 37.5 0
283 87.5 50 0
284 87.5 37.5 0
285 75 62.5 0
286 100 62.5 0
287 87.5 62.5 0
288 62.5 62.5 0
$EndNodes
$Elements
256
0 3 2 1 1 0 81 85 84
1 3 2 1 1 81 1 82 85
2 3 2 1 1 85 82 2 83
3 3 2 1 1 84 85 83 3
4 3 2 1 1 4 86 90 89
5 3 2 1 1 86 2 87 90
6 3 2 1 1 90 87 5 88
7 3 2 1 1 89 90 88 6
8 3 2 1 1 7 91 95 94
9 3 2 1 1 91 8 92 95
10 3 2 1 1 95 92 9 93
11 3 2 1 1 94 95 93 10
12 3 2 1 1 11 96 100 99
13 3 2 1 1 96 12 97 100
14 3 2 1 1 100 97 13 98
15 3 2 1 1 99 100 98 10
16 3 2 1 1 14 101 105 104
17 3 2 1 1 101 15 102 105
18 3 2 1 1 105 102 16 103
19 3 2 1 1 104 105 103 17
20 3 2 1 1 18 106 109 108
21 3 2 1 1 106 19 107 109
22 3 2 1 1 109 107 15 101
23 3 2 1 1 108 109 101 14
24 3 2 1 1 19 110 114 113
25 3 2 1 1 110 20 111 114
26 3 2 1 1 114 111 21 112
27 3 2 1 1 113 114 112 22
28 3 2 1 1 20 115 118 111
29 3 2 1 1 115 23 116 118
30 3 2 1 1 118 116 24 117
31 3 2 1 1 111 118 117 21
32 3 2 1 1 8 119 121 92
33 3 2 1 1 119 4 89 121
34 3 2 1 1 121 89 6 120
35 3 2 1 1 92 121 120 9
36 3 2 1 1 25 122 125 124
37 3 2 1 1 122 8 91 125
38 3 2 1 1 125 91 7 123
39 3 2 1 1 124 125 123 26
40 3 2 1 1 26 123 129 128
41 3 2 1 1 123 7 126 129
42 3 2 1 1 129 126 27 127
43 3 2 1 1 128 129 127 28
44 3 2 1 1 3 83 132 131
45 3 2 1 1 83 2 86 132
46 3 2 1 1 132 86 4 130
47 3 2 1 1 131 132 130 29
48 3 2 1 1 2 82 135 87
49 3 2 1 1 82 1 133 135
50 3 2 1 1 135 133 30 134
51 3 2 1 1 87 135 134 5
52 3 2 1 1 31 136 139 138
53 3 2 1 1 136 28 127 139
54 3 2 1 1 139 127 27 137
55 3 2 1 1 138 139 137 32
56 3 2 1 1 33 140 144 143
57 3 2 1 1 140 34 141 144
58 3 2 1 1 144 141 35 142
59 3 2 1 1 143 144 142 36
60 3 2 1 1 1 145 148 133
61 3 2 1 1 145 37 146 148
62 3 2 1 1 148 146 38 147
63 3 2 1 1 133 148 147 30
64 3 2 1 1 39 149 151 150
65 3 2 1 1 149 37 145 151
66 3 2 1 1 151 145 1 81
67 3 2 1 1 150 151 81 0
68 3 2 1 1 40 152 155 154
69 3 2 1 1 152 38 146 155
70 3 2 1 1 155 146 37 153
71 3 2 1 1 154 155 153 41
72 3 2 1 1 42 156 159 158
73 3 2 1 1 156 43 157 159
74 3 2 1 1 159 157 34 140
75 3 2 1 1 158 159 140 33
76 3 2 1 1 44 160 162 161
77 3 2 1 1 160 41 153 162
78 3 2 1 1 162 153 37 149
79 3 2 1 1 161 162 149 39
80 3 2 1 1 29 130 164 163
81 3 2 1 1 130 4 119 164
82 3 2 1 1 164 119 8 122
83 3 2 1 1 163 164 122 25
84 3 2 1 1 36 142 168 167
85 3 2 1 1 142 35 165 168
86 3 2 1 1 168 165 45 166
87 3 2 1 1 167 168 166 46
88 3 2 1 1 47 169 173 172
89 3 2 1 1 169 48 170 173
90 3 2 1 1 173 170 49 171
91 3 2 1 1 172 173 171 50
92 3 2 1 1 46 166 177 176
93 3 2 1 1 166 45 174 177
94 3 2 1 1 177 174 51 175
95 3 2 1 1 176 177 175 48
96 3 2 1 1 48 175 180 170
97 3 2 1 1 175 51 178 180
98 3 2 1 1 180 178 52 179
99 3 2 1 1 170 180 179 49
100 3 2 1 1 50 181 184 172
101 3 2 1 1 181 53 182 184
102 3 2 1 1 184 182 54 183
103 3 2 1 1 172 184 183 47
104 3 2 1 1 55 185 187 186
105 3 2 1 1 185 46 176 187
106 3 2 1 1 187 176 48 169
107 3 2 1 1 186 187 169 47
108 3 2 1 1 56 188 190 189
109 3 2 1 1 188 36 167 190
110 3 2 1 1 190 167 46 185
111 3 2 1 1 189 190 185 55
112 3 2 1 1 43 156 193 192
113 3 2 1 1 156 42 191 193
114 3 2 1 1 193 191 38 152
115 3 2 1 1 192 193 152 40
116 3 2 1 1 57 194 196 195
117 3 2 1 1 194 33 143 196
118 3 2 1 1 196 143 36 188
119 3 2 1 1 195 196 188 56
120 3 2 1 1 58 197 199 198
121 3 2 1 1 197 42 158 199
122 3 2 1 1 199 158 33 194
123 3 2 1 1 198 199 194 57
124 3 2 1 1 53 200 203 182
125 3 2 1 1 200 59 201 203
126 3 2 1 1 203 201 60 202
127 3 2 1 1 182 203 202 54
128 3 2 1 1 17 103 206 205
129 3 2 1 1 103 16 204 206
130 3 2 1 1 206 204 12 96
131 3 2 1 1 205 206 96 11
132 3 2 1 1 61 207 209 208
133 3 2 1 1 207 55 186 209
134 3 2 1 1 209 186 47 183
135 3 2 1 1 208 209 183 54
136 3 2 1 1 62 210 212 211
137 3 2 1 1 210 56 189 212
138 3 2 1 1 212 189 55 207
139 3 2 1 1 211 212 207 61
140 3 2 1 1 42 197 214 191
141 3 2 1 1 197 58 213 214
142 3 2 1 1 214 213 30 147
143 3 2 1 1 191 214 147 38
144 3 2 1 1 63 215 217 216
145 3 2 1 1 215 57 195 217
146 3 2 1 1 217 195 56 210
147 3 2 1 1 216 217 210 62
148 3 2 1 1 64 218 220 219
149 3 2 1 1 218 58 198 220
150 3 2 1 1 220 198 57 215
151 3 2 1 1 219 220 215 63
152 3 2 1 1 59 221 224 201
153 3 2 1 1 221 65 222 224
154 3 2 1 1 224 222 66 223
155 3 2 1 1 201 224 223 60
156 3 2 1 1 67 225 227 226
157 3 2 1 1 225 61 208 227
158 3 2 1 1 227 208 54 202
159 3 2 1 1 226 227 202 60
160 3 2 1 1 68 228 230 229
161 3 2 1 1 228 62 211 230
162 3 2 1 1 230 211 61 225
163 3 2 1 1 229 230 225 67
164 3 2 1 1 58 218 232 213
165 3 2 1 1 218 64 231 232
166 3 2 1 1 232 231 5 134
167 3 2 1 1 213 232 134 30
168 3 2 1 1 69 233 235 234
169 3 2 1 1 233 63 216 235
170 3 2 1 1 235 216 62 228
171 3 2 1 1 234 235 228 68
172 3 2 1 1 70 236 238 237
173 3 2 1 1 236 64 219 238
174 3 2 1 1 238 219 63 233
175 3 2 1 1 237 238 233 69
176 3 2 1 1 65 239 242 222
177 3 2 1 1 239 71 240 242
178 3 2 1 1 242 240 72 241
179 3 2 1 1 222 242 241 66
180 3 2 1 1 73 243 245 244
181 3 2 1 1 243 67 226 245
182 3 2 1 1 245 226 60 223
183 3 2 1 1 244 245 223 66
184 3 2 1 1 74 246 248 247
185 3 2 1 1 246 68 229 248
186 3 2 1 1 248 229 67 243
187 3 2 1 1 247 248 243 73
188 3 2 1 1 64 236 250 231
189 3 2 1 1 236 70 249 250
190 3 2 1 1 250 249 6 88
191 3 2 1 1 231 250 88 5
192 3 2 1 1 75 251 253 252
193 3 2 1 1 251 69 234 253
194 3 2 1 1 253 234 68 246
195 3 2 1 1 252 253 246 74
196 3 2 1 1 76 254 256 255
197 3 2 1 1 254 70 237 256
198 3 2 1 1 256 237 69 251
199 3 2 1 1 255 256 251 75
200 3 2 1 1 71 257 259 240
201 3 2 1 1 257 23 115 259
202 3 2 1 1 259 115 20 258
203 3 2 1 1 240 259 258 72
204 3 2 1 1 66 241 262 244
205 3 2 1 1 241 72 260 262
206 3 2 1 1 262 260 18 261
207 3 2 1 1 244 262 261 73
208 3 2 1 1 73 261 264 247
209 3 2 1 1 261 18 108 264
210 3 2 1 1 264 108 14 263
211 3 2 1 1 247 264 263 74
212 3 2 1 1 74 263 266 252
213 3 2 1 1 263 14 104 266
214 3 2 1 1 266 104 17 265
215 3 2 1 1 252 266 265 75
216 3 2 1 1 70 254 268 249
217 3 2 1 1 254 76 267 268
218 3 2 1 1 268 267 9 120
219 3 2 1 1 249 268 120 6
220 3 2 1 1 75 265 270 255
221 3 2 1 1 265 17 205 270
222 3 2 1 1 270 205 11 269
223 3 2 1 1 255 270 269 76
224 3 2 1 1 76 269 271 267
225 3 2 1 1 269 11 99 271
226 3 2 1 1 271 99 10 93
227 3 2 1 1 267 271 93 9
228 3 2 1 1 72 258 272 260
229 3 2 1 1 258 20 110 272
230 3 2 1 1 272 110 19 106
231 3 2 1 1 260 272 106 18
232 3 2 1 1 15 107 275 274
233 3 2 1 1 107 19 113 275
234 3 2 1 1 275 113 22 273
235 3 2 1 1 274 275 273 77
236 3 2 1 1 16 102 278 277
237 3 2 1 1 102 15 274 278
238 3 2 1 1 278 274 77 276
239 3 2 1 1 277 278 276 78
240 3 2 1 1 12 204 281 280
241 3 2 1 1 204 16 277 281
242 3 2 1 1 281 277 78 279
243 3 2 1 1 280 281 279 79
244 3 2 1 1 13 97 284 283
245 3 2 1 1 97 12 280 284
246 3 2 1 1 284 280 79 282
247 3 2 1 1 283 284 282 80
248 3 2 1 1 27 285 287 137
249 3 2 1 1 285 13 283 287
250 3 2 1 1 287 283 80 286
251 3 2 1 1 137 287 286 32
252 3 2 1 1 10 98 288 94
253 3 2 1 1 98 13 285 288
254 3 2 1 1 288 285 27 126
255 3 2 1 1 94 288 126 7
$EndElements
