$MeshFormat
2.2 0 8
$EndMeshFormat
$Nodes
40
0 100 0 0
1 100 200 0
2 0 200 0
3 0 0 0
4 80 20 0
5 80 80 0
6 20 80 0
7 20 20 0
8 80 120 0
9 80 180 0
10 20 180 0
11 20 120 0
12 0 100 0
13 0 50 0
14 0 25 0
15 0 75 0
16 0 150 0
17 0 125 0
18 0 175 0
19 50 200 0
20 25 200 0
21 75 200 0
22 100 100 0
23 100 150 0
24 100 175 0
25 100 125 0
26 100 50 0
27 100 75 0
28 100 25 0
29 50 0 0
30 75 0 0
31 25 0 0
32 20 50 0
33 80 50 0
34 50 20 0
35 20 150 0
36 50 180 0
37 80 150 0
38 50 80 0
39 50 120 0
$EndNodes
$Elements
42
0 2 2 1 1 14 32 13 
1 2 2 1 1 13 32 15 
2 2 2 1 1 15 6 12 
3 2 2 1 1 12 11 17 
4 2 2 1 1 17 35 16 
5 2 2 1 1 16 35 18 
6 2 2 1 1 18 10 2 
7 2 2 1 1 6 15 32 
8 2 2 1 1 31 7 3 
9 2 2 1 1 7 14 3 
10 2 2 1 1 32 14 7 
11 2 2 1 1 11 12 6 
12 2 2 1 1 6 38 11 
13 2 2 1 1 35 17 11 
14 2 2 1 1 10 18 35 
15 2 2 1 1 10 36 20 
16 2 2 1 1 34 31 29 
17 2 2 1 1 31 34 7 
18 2 2 1 1 20 2 10 
19 2 2 1 1 30 34 29 
20 2 2 1 1 39 11 38 
21 2 2 1 1 38 5 39 
22 2 2 1 1 36 9 21 
23 2 2 1 1 36 21 19 
24 2 2 1 1 19 20 36 
25 2 2 1 1 4 28 33 
26 2 2 1 1 0 4 30 
27 2 2 1 1 4 34 30 
28 2 2 1 1 33 27 5 
29 2 2 1 1 8 39 5 
30 2 2 1 1 5 22 8 
31 2 2 1 1 8 25 37 
32 2 2 1 1 37 24 9 
33 2 2 1 1 24 37 23 
34 2 2 1 1 26 33 28 
35 2 2 1 1 28 4 0 
36 2 2 1 1 27 33 26 
37 2 2 1 1 22 5 27 
38 2 2 1 1 25 8 22 
39 2 2 1 1 9 1 21 
40 2 2 1 1 23 37 25 
41 2 2 1 1 1 9 24 
$EndElements
