$MeshFormat
2.2 0 8
$EndMeshFormat
$Nodes
19
0 100 0 0
1 100 20 0
2 60 20 0
3 60 80 0
4 40 80 0
5 40 20 0
6 0 20 0
7 0 0 0
8 50 0 0
9 25 0 0
10 75 0 0
11 80 20 0
12 60 50 0
13 60 35 0
14 60 65 0
15 40 50 0
16 40 65 0
17 40 35 0
18 20 20 0
$EndNodes
$Elements
17
0 2 2 1 1 9 5 18 
1 2 2 1 1 7 18 6 
2 2 2 1 1 9 18 7 
3 2 2 1 1 5 2 17 
4 2 2 1 1 8 5 9 
5 2 2 1 1 17 13 15 
6 2 2 1 1 15 12 16 
7 2 2 1 1 16 14 4 
8 2 2 1 1 13 17 2 
9 2 2 1 1 10 2 8 
10 2 2 1 1 2 5 8 
11 2 2 1 1 12 15 13 
12 2 2 1 1 14 16 12 
13 2 2 1 1 3 4 14 
14 2 2 1 1 0 11 10 
15 2 2 1 1 11 2 10 
16 2 2 1 1 1 11 0 
$EndElements
