$MeshFormat
2.2 0 8
$EndMeshFormat
$Nodes
106
0 100 0 0
1 100 100 0
2 0 100 0
3 0 0 0
4 80 20 0
5 80 80 0
6 20 80 0
7 20 20 0
8 0 50 0
9 0 25 0
10 0 75 0
11 50 100 0
12 25 100 0
13 75 100 0
14 100 50 0
15 100 75 0
16 100 25 0
17 50 0 0
18 75 0 0
19 25 0 0
20 20 50 0
21 50 80 0
22 80 50 0
23 50 20 0
24 12.5 0 0
25 6.25 0 0
26 18.75 0 0
27 37.5 0 0
28 31.25 0 0
29 43.75 0 0
30 62.5 0 0
31 56.25 0 0
32 68.75 0 0
33 87.5 0 0
34 81.25 0 0
35 93.75 0 0
36 100 12.5 0
37 100 6.25 0
38 100 18.75 0
39 100 37.5 0
40 100 31.25 0
41 100 43.75 0
42 100 62.5 0
43 100 56.25 0
44 100 68.75 0
45 100 87.5 0
46 100 81.25 0
47 100 93.75 0
48 87.5 100 0
49 93.75 100 0
50 81.25 100 0
51 62.5 100 0
52 68.75 100 0
53 56.25 100 0
54 37.5 100 0
55 43.75 100 0
56 31.25 100 0
57 12.5 100 0
58 18.75 100 0
59 6.25 100 0
60 0 87.5 0
61 0 93.75 0
62 0 81.25 0
63 0 62.5 0
64 0 68.75 0
65 0 56.25 0
66 0 37.5 0
67 0 43.75 0
68 0 31.25 0
69 0 12.5 0
70 0 18.75 0
71 0 6.25 0
72 35 20 0
73 27.5 20 0
74 42.5 20 0
75 65 20 0
76 57.5 20 0
77 72.5 20 0
78 80 35 0
79 80 27.5 0
80 80 42.5 0
81 80 65 0
82 80 57.5 0
83 80 72.5 0
84 65 80 0
85 72.5 80 0
86 57.5 80 0
87 35 80 0
88 42.5 80 0
89 27.5 80 0
90 20 65 0
91 20 72.5 0
92 20 57.5 0
93 20 35 0
94 20 42.5 0
95 20 27.5 0
96 10.234375 15.625 0
97 10.0667750343721 25.7157997250229 0
98 8.27256412436605 34.375 0
99 10.0735358336471 44.3015733383542 0
100 8.41627805992646 53.125 0
101 9.765625 71.875 0
102 10.0847623607242 81.9811977715877 0
103 16.8105549751404 89.8397221859463 0
104 9.40447259276081 62.4774374033742 0
105 26.9072078471257 90.0821509808908 0
$EndNodes
$Elements
116
0 2 2 1 1 71 96 69 
1 2 2 1 1 25 71 3 
2 2 2 1 1 70 97 9 
3 2 2 1 1 97 70 96 
4 2 2 1 1 68 98 66 
5 2 2 1 1 66 99 67 
6 2 2 1 1 99 66 98 
7 2 2 1 1 8 100 65 
8 2 2 1 1 101 10 64 
9 2 2 1 1 102 10 101 
10 2 2 1 1 102 60 62 
11 2 2 1 1 58 105 12 
12 2 2 1 1 57 103 58 
13 2 2 1 1 59 103 57 
14 2 2 1 1 61 103 59 
15 2 2 1 1 61 59 2 
16 2 2 1 1 64 104 101 
17 2 2 1 1 104 64 63 
18 2 2 1 1 96 71 25 
19 2 2 1 1 100 8 99 
20 2 2 1 1 96 26 7 
21 2 2 1 1 7 97 96 
22 2 2 1 1 19 7 26 
23 2 2 1 1 26 96 24 
24 2 2 1 1 95 98 97 
25 2 2 1 1 93 99 98 
26 2 2 1 1 99 94 20 
27 2 2 1 1 20 100 99 
28 2 2 1 1 92 104 100 
29 2 2 1 1 104 90 101 
30 2 2 1 1 6 101 91 
31 2 2 1 1 6 105 103 
32 2 2 1 1 105 58 103 
33 2 2 1 1 28 73 19 
34 2 2 1 1 73 7 19 
35 2 2 1 1 105 6 89 
36 2 2 1 1 87 105 89 
37 2 2 1 1 27 72 28 
38 2 2 1 1 72 73 28 
39 2 2 1 1 54 105 87 
40 2 2 1 1 87 88 54 
41 2 2 1 1 29 74 27 
42 2 2 1 1 74 72 27 
43 2 2 1 1 88 55 54 
44 2 2 1 1 88 21 55 
45 2 2 1 1 23 29 17 
46 2 2 1 1 29 23 74 
47 2 2 1 1 31 23 17 
48 2 2 1 1 21 11 55 
49 2 2 1 1 21 53 11 
50 2 2 1 1 21 86 53 
51 2 2 1 1 30 76 31 
52 2 2 1 1 76 23 31 
53 2 2 1 1 86 51 53 
54 2 2 1 1 86 84 51 
55 2 2 1 1 32 75 30 
56 2 2 1 1 75 76 30 
57 2 2 1 1 84 52 51 
58 2 2 1 1 84 85 52 
59 2 2 1 1 18 77 32 
60 2 2 1 1 77 75 32 
61 2 2 1 1 85 13 52 
62 2 2 1 1 85 5 13 
63 2 2 1 1 4 16 79 
64 2 2 1 1 34 4 18 
65 2 2 1 1 4 77 18 
66 2 2 1 1 79 40 78 
67 2 2 1 1 78 39 80 
68 2 2 1 1 80 41 22 
69 2 2 1 1 83 15 5 
70 2 2 1 1 5 45 48 
71 2 2 1 1 48 45 49 
72 2 2 1 1 5 48 50 
73 2 2 1 1 5 50 13 
74 2 2 1 1 81 44 83 
75 2 2 1 1 82 42 81 
76 2 2 1 1 33 4 34 
77 2 2 1 1 22 43 82 
78 2 2 1 1 33 36 4 
79 2 2 1 1 37 35 0 
80 2 2 1 1 37 33 35 
81 2 2 1 1 36 33 37 
82 2 2 1 1 38 4 36 
83 2 2 1 1 16 4 38 
84 2 2 1 1 40 79 16 
85 2 2 1 1 39 78 40 
86 2 2 1 1 41 80 39 
87 2 2 1 1 14 22 41 
88 2 2 1 1 43 22 14 
89 2 2 1 1 42 82 43 
90 2 2 1 1 44 81 42 
91 2 2 1 1 15 83 44 
92 2 2 1 1 46 5 15 
93 2 2 1 1 45 5 46 
94 2 2 1 1 47 49 45 
95 2 2 1 1 47 1 49 
96 2 2 1 1 96 25 24 
97 2 2 1 1 96 70 69 
98 2 2 1 1 97 68 9 
99 2 2 1 1 97 7 95 
100 2 2 1 1 98 95 93 
101 2 2 1 1 98 68 97 
102 2 2 1 1 99 93 94 
103 2 2 1 1 99 8 67 
104 2 2 1 1 65 104 63 
105 2 2 1 1 100 20 92 
106 2 2 1 1 10 102 62 
107 2 2 1 1 101 90 91 
108 2 2 1 1 60 103 61 
109 2 2 1 1 102 101 6 
110 2 2 1 1 103 102 6 
111 2 2 1 1 103 60 102 
112 2 2 1 1 104 92 90 
113 2 2 1 1 104 65 100 
114 2 2 1 1 105 56 12 
115 2 2 1 1 105 54 56 
$EndElements
