$MeshFormat
2.2 0 8
$EndMeshFormat
$Nodes
81
0 -50 100 0
1 -50 75 0
2 -25 75 0
3 -25 100 0
4 0 75 0
5 -25 50 0
6 0 50 0
7 50 75 0
8 25 75 0
9 25 50 0
10 50 50 0
11 50 25 0
12 75 25 0
13 75 50 0
14 50 -25 0
15 75 -25 0
16 75 0 0
17 50 0 0
18 50 -50 0
19 75 -50 0
20 75 -75 0
21 100 -75 0
22 100 -50 0
23 75 -100 0
24 100 -100 0
25 25 100 0
26 50 100 0
27 75 75 0
28 75 100 0
29 0 100 0
30 -50 50 0
31 100 100 0
32 100 75 0
33 -75 0 0
34 -100 0 0
35 -100 -25 0
36 -75 -25 0
37 -75 75 0
38 -75 50 0
39 -75 100 0
40 -100 50 0
41 -100 75 0
42 -75 25 0
43 -100 25 0
44 -100 100 0
45 -100 -50 0
46 -75 -50 0
47 -50 -75 0
48 -75 -75 0
49 -75 -100 0
50 -50 -100 0
51 -100 -75 0
52 -100 -100 0
53 -25 -100 0
54 -25 -75 0
55 -50 -50 0
56 -50 -25 0
57 -50 0 0
58 -50 25 0
59 0 -100 0
60 0 -75 0
61 -25 -50 0
62 -25 -25 0
63 -25 0 0
64 -25 25 0
65 25 -100 0
66 25 -75 0
67 0 -50 0
68 0 -25 0
69 0 0 0
70 0 25 0
71 50 -100 0
72 50 -75 0
73 25 -50 0
74 25 -25 0
75 25 0 0
76 25 25 0
77 100 -25 0
78 100 0 0
79 100 25 0
80 100 50 0
$EndNodes
$Elements
64
0 3 2 1 1 0 1 2 3
1 3 2 1 1 4 2 5 6
2 3 2 1 1 7 8 9 10
3 3 2 1 1 11 12 13 10
4 3 2 1 1 14 15 16 17
5 3 2 1 1 18 19 15 14
6 3 2 1 1 19 20 21 22
7 3 2 1 1 20 23 24 21
8 3 2 1 1 8 4 6 9
9 3 2 1 1 25 8 7 26
10 3 2 1 1 26 7 27 28
11 3 2 1 1 3 2 4 29
12 3 2 1 1 2 1 30 5
13 3 2 1 1 31 28 27 32
14 3 2 1 1 33 34 35 36
15 3 2 1 1 1 37 38 30
16 3 2 1 1 39 37 1 0
17 3 2 1 1 40 38 37 41
18 3 2 1 1 42 43 34 33
19 3 2 1 1 44 41 37 39
20 3 2 1 1 29 4 8 25
21 3 2 1 1 36 35 45 46
22 3 2 1 1 47 48 49 50
23 3 2 1 1 46 45 51 48
24 3 2 1 1 48 51 52 49
25 3 2 1 1 50 53 54 47
26 3 2 1 1 55 46 48 47
27 3 2 1 1 56 36 46 55
28 3 2 1 1 43 42 38 40
29 3 2 1 1 57 33 36 56
30 3 2 1 1 58 42 33 57
31 3 2 1 1 53 59 60 54
32 3 2 1 1 17 16 12 11
33 3 2 1 1 61 55 47 54
34 3 2 1 1 62 56 55 61
35 3 2 1 1 42 58 30 38
36 3 2 1 1 63 57 56 62
37 3 2 1 1 64 58 57 63
38 3 2 1 1 59 65 66 60
39 3 2 1 1 67 61 54 60
40 3 2 1 1 68 62 61 67
41 3 2 1 1 58 64 5 30
42 3 2 1 1 69 63 62 68
43 3 2 1 1 70 64 63 69
44 3 2 1 1 65 71 72 66
45 3 2 1 1 73 67 60 66
46 3 2 1 1 74 68 67 73
47 3 2 1 1 64 70 6 5
48 3 2 1 1 75 69 68 74
49 3 2 1 1 76 70 69 75
50 3 2 1 1 71 23 20 72
51 3 2 1 1 66 72 18 73
52 3 2 1 1 73 18 14 74
53 3 2 1 1 74 14 17 75
54 3 2 1 1 70 76 9 6
55 3 2 1 1 75 17 11 76
56 3 2 1 1 76 11 10 9
57 3 2 1 1 72 20 19 18
58 3 2 1 1 15 19 22 77
59 3 2 1 1 16 15 77 78
60 3 2 1 1 12 16 78 79
61 3 2 1 1 13 12 79 80
62 3 2 1 1 27 13 80 32
63 3 2 1 1 10 13 27 7
$EndElements
