$MeshFormat
2.2 0 8
$EndMeshFormat
$Nodes
28
0 100 0 0
1 100 20 0
2 60 20 0
3 60 80 0
4 100 80 0
5 100 100 0
6 0 100 0
7 0 80 0
8 40 80 0
9 40 20 0
10 0 20 0
11 0 0 0
12 50 100 0
13 50 0 0
14 25 0 0
15 75 0 0
16 80 20 0
17 60 50 0
18 60 35 0
19 60 65 0
20 80 80 0
21 75 100 0
22 25 100 0
23 20 80 0
24 40 50 0
25 40 65 0
26 40 35 0
27 20 20 0
$EndNodes
$Elements
26
0 2 2 1 1 11 27 10 
1 2 2 1 1 7 23 6 
2 2 2 1 1 14 27 11 
3 2 2 1 1 23 8 22 
4 2 2 1 1 9 2 26 
5 2 2 1 1 22 6 23 
6 2 2 1 1 13 9 14 
7 2 2 1 1 9 27 14 
8 2 2 1 1 26 18 24 
9 2 2 1 1 25 19 8 
10 2 2 1 1 8 3 12 
11 2 2 1 1 8 12 22 
12 2 2 1 1 24 17 25 
13 2 2 1 1 18 26 2 
14 2 2 1 1 15 2 13 
15 2 2 1 1 2 9 13 
16 2 2 1 1 17 24 18 
17 2 2 1 1 19 25 17 
18 2 2 1 1 3 8 19 
19 2 2 1 1 3 20 21 
20 2 2 1 1 3 21 12 
21 2 2 1 1 0 16 15 
22 2 2 1 1 16 2 15 
23 2 2 1 1 20 5 21 
24 2 2 1 1 1 16 0 
25 2 2 1 1 5 20 4 
$EndElements
