$MeshFormat
2.2 0 8
$EndMeshFormat
$Nodes
181
0 10 200 0
1 10 190 0
2 20 190 0
3 20 200 0
4 70 10 0
5 60 10 0
6 60 0 0
7 70 0 0
8 90 70 0
9 90 60 0
10 100 60 0
11 100 70 0
12 80 10 0
13 80 0 0
14 80 20 0
15 90 20 0
16 90 30 0
17 80 30 0
18 90 10 0
19 90 0 0
20 100 0 0
21 100 10 0
22 100 20 0
23 90 100 0
24 90 90 0
25 100 90 0
26 100 100 0
27 10 90 0
28 0 90 0
29 0 80 0
30 10 80 0
31 90 120 0
32 90 110 0
33 100 110 0
34 100 120 0
35 0 110 0
36 10 110 0
37 10 120 0
38 0 120 0
39 10 130 0
40 20 120 0
41 20 130 0
42 30 190 0
43 30 200 0
44 40 190 0
45 40 200 0
46 80 190 0
47 70 190 0
48 70 180 0
49 80 180 0
50 90 190 0
51 90 180 0
52 100 180 0
53 100 190 0
54 80 200 0
55 90 200 0
56 100 200 0
57 90 170 0
58 100 170 0
59 10 180 0
60 10 170 0
61 20 170 0
62 20 180 0
63 0 180 0
64 0 190 0
65 0 200 0
66 0 130 0
67 10 140 0
68 0 140 0
69 0 100 0
70 10 100 0
71 80 110 0
72 80 120 0
73 90 80 0
74 100 80 0
75 50 10 0
76 50 0 0
77 0 30 0
78 10 30 0
79 10 40 0
80 0 40 0
81 40 10 0
82 30 10 0
83 30 0 0
84 40 0 0
85 0 20 0
86 10 20 0
87 20 10 0
88 20 0 0
89 0 10 0
90 10 10 0
91 10 0 0
92 0 0 0
93 20 20 0
94 20 30 0
95 30 20 0
96 40 20 0
97 50 20 0
98 90 50 0
99 90 40 0
100 100 40 0
101 100 50 0
102 60 20 0
103 70 20 0
104 100 30 0
105 80 40 0
106 80 50 0
107 80 60 0
108 80 70 0
109 20 110 0
110 80 80 0
111 70 110 0
112 70 100 0
113 80 100 0
114 70 120 0
115 60 120 0
116 60 110 0
117 0 50 0
118 10 50 0
119 10 60 0
120 0 60 0
121 40 120 0
122 40 110 0
123 50 110 0
124 50 120 0
125 10 70 0
126 20 70 0
127 20 80 0
128 30 120 0
129 30 110 0
130 0 70 0
131 20 60 0
132 20 50 0
133 20 40 0
134 90 160 0
135 100 160 0
136 20 100 0
137 30 100 0
138 90 150 0
139 90 140 0
140 100 140 0
141 100 150 0
142 40 100 0
143 90 130 0
144 80 130 0
145 50 100 0
146 100 130 0
147 60 100 0
148 80 140 0
149 80 150 0
150 50 200 0
151 50 190 0
152 60 190 0
153 60 200 0
154 80 160 0
155 80 170 0
156 70 200 0
157 60 180 0
158 50 180 0
159 0 150 0
160 10 150 0
161 10 160 0
162 0 160 0
163 40 180 0
164 30 180 0
165 0 170 0
166 20 160 0
167 20 150 0
168 20 140 0
169 20 90 0
170 30 80 0
171 30 90 0
172 40 80 0
173 40 90 0
174 50 80 0
175 50 90 0
176 60 80 0
177 60 90 0
178 70 80 0
179 70 90 0
180 80 90 0
$EndNodes
$Elements
128
0 3 2 1 1 0 1 2 3
1 3 2 1 1 4 5 6 7
2 3 2 1 1 8 9 10 11
3 3 2 1 1 12 4 7 13
4 3 2 1 1 14 15 16 17
5 3 2 1 1 18 19 20 21
6 3 2 1 1 15 18 21 22
7 3 2 1 1 12 18 15 14
8 3 2 1 1 23 24 25 26
9 3 2 1 1 27 28 29 30
10 3 2 1 1 31 32 33 34
11 3 2 1 1 35 36 37 38
12 3 2 1 1 39 37 40 41
13 3 2 1 1 3 2 42 43
14 3 2 1 1 43 42 44 45
15 3 2 1 1 46 47 48 49
16 3 2 1 1 50 51 52 53
17 3 2 1 1 54 46 50 55
18 3 2 1 1 56 55 50 53
19 3 2 1 1 51 57 58 52
20 3 2 1 1 59 60 61 62
21 3 2 1 1 63 59 1 64
22 3 2 1 1 65 64 1 0
23 3 2 1 1 66 39 67 68
24 3 2 1 1 69 70 36 35
25 3 2 1 1 71 32 31 72
26 3 2 1 1 24 73 74 25
27 3 2 1 1 5 75 76 6
28 3 2 1 1 77 78 79 80
29 3 2 1 1 81 82 83 84
30 3 2 1 1 85 86 78 77
31 3 2 1 1 82 87 88 83
32 3 2 1 1 89 90 86 85
33 3 2 1 1 87 90 91 88
34 3 2 1 1 90 89 92 91
35 3 2 1 1 78 86 93 94
36 3 2 1 1 75 81 84 76
37 3 2 1 1 73 8 11 74
38 3 2 1 1 93 87 82 95
39 3 2 1 1 95 82 81 96
40 3 2 1 1 96 81 75 97
41 3 2 1 1 98 99 100 101
42 3 2 1 1 97 75 5 102
43 3 2 1 1 102 5 4 103
44 3 2 1 1 99 16 104 100
45 3 2 1 1 103 4 12 14
46 3 2 1 1 16 15 22 104
47 3 2 1 1 9 98 101 10
48 3 2 1 1 17 16 99 105
49 3 2 1 1 105 99 98 106
50 3 2 1 1 106 98 9 107
51 3 2 1 1 107 9 8 108
52 3 2 1 1 37 36 109 40
53 3 2 1 1 108 8 73 110
54 3 2 1 1 71 111 112 113
55 3 2 1 1 114 111 71 72
56 3 2 1 1 115 116 111 114
57 3 2 1 1 117 118 119 120
58 3 2 1 1 121 122 123 124
59 3 2 1 1 30 125 126 127
60 3 2 1 1 128 129 122 121
61 3 2 1 1 120 119 125 130
62 3 2 1 1 40 109 129 128
63 3 2 1 1 130 125 30 29
64 3 2 1 1 80 79 118 117
65 3 2 1 1 125 119 131 126
66 3 2 1 1 119 118 132 131
67 3 2 1 1 118 79 133 132
68 3 2 1 1 79 78 94 133
69 3 2 1 1 38 37 39 66
70 3 2 1 1 124 123 116 115
71 3 2 1 1 57 134 135 58
72 3 2 1 1 109 36 70 136
73 3 2 1 1 129 109 136 137
74 3 2 1 1 138 139 140 141
75 3 2 1 1 122 129 137 142
76 3 2 1 1 72 31 143 144
77 3 2 1 1 123 122 142 145
78 3 2 1 1 139 143 146 140
79 3 2 1 1 116 123 145 147
80 3 2 1 1 143 31 34 146
81 3 2 1 1 111 116 147 112
82 3 2 1 1 134 138 141 135
83 3 2 1 1 144 143 139 148
84 3 2 1 1 148 139 138 149
85 3 2 1 1 150 151 152 153
86 3 2 1 1 149 138 134 154
87 3 2 1 1 154 134 57 155
88 3 2 1 1 153 152 47 156
89 3 2 1 1 155 57 51 49
90 3 2 1 1 156 47 46 54
91 3 2 1 1 45 44 151 150
92 3 2 1 1 47 152 157 48
93 3 2 1 1 152 151 158 157
94 3 2 1 1 159 160 161 162
95 3 2 1 1 151 44 163 158
96 3 2 1 1 44 42 164 163
97 3 2 1 1 162 161 60 165
98 3 2 1 1 42 2 62 164
99 3 2 1 1 165 60 59 63
100 3 2 1 1 68 67 160 159
101 3 2 1 1 60 161 166 61
102 3 2 1 1 161 160 167 166
103 3 2 1 1 160 67 168 167
104 3 2 1 1 67 39 41 168
105 3 2 1 1 86 90 87 93
106 3 2 1 1 30 127 169 27
107 3 2 1 1 28 27 70 69
108 3 2 1 1 127 170 171 169
109 3 2 1 1 2 1 59 62
110 3 2 1 1 27 169 136 70
111 3 2 1 1 170 172 173 171
112 3 2 1 1 172 174 175 173
113 3 2 1 1 169 171 137 136
114 3 2 1 1 171 173 142 137
115 3 2 1 1 174 176 177 175
116 3 2 1 1 173 175 145 142
117 3 2 1 1 176 178 179 177
118 3 2 1 1 175 177 147 145
119 3 2 1 1 178 110 180 179
120 3 2 1 1 177 179 112 147
121 3 2 1 1 110 73 24 180
122 3 2 1 1 179 180 113 112
123 3 2 1 1 13 19 18 12
124 3 2 1 1 180 24 23 113
125 3 2 1 1 32 23 26 33
126 3 2 1 1 113 23 32 71
127 3 2 1 1 49 51 50 46
$EndElements
