$MeshFormat
2.2 0 8
$EndMeshFormat
$Nodes
19
0 1200 0 0
1 1200 550 0
2 325 550 0
3 325 3100 0
4 -325 3100 0
5 -325 550 0
6 -1200 550 0
7 -1200 0 0
8 0 0 0
9 -600 0 0
10 600 0 0
11 762.5 550 0
12 325 1825 0
13 325 1187.5 0
14 325 2462.5 0
15 -325 1825 0
16 -325 2462.5 0
17 -325 1187.5 0
18 -762.5 550 0
$EndNodes
$Elements
17
0 2 2 1 1 7 18 6 
1 2 2 1 1 9 5 18 
2 2 2 1 1 9 18 7 
3 2 2 1 1 5 2 17 
4 2 2 1 1 17 13 15 
5 2 2 1 1 8 5 9 
6 2 2 1 1 15 12 16 
7 2 2 1 1 16 14 4 
8 2 2 1 1 13 17 2 
9 2 2 1 1 10 2 8 
10 2 2 1 1 2 5 8 
11 2 2 1 1 12 15 13 
12 2 2 1 1 14 16 12 
13 2 2 1 1 3 4 14 
14 2 2 1 1 0 11 10 
15 2 2 1 1 11 2 10 
16 2 2 1 1 1 11 0 
$EndElements
