$MeshFormat
2.2 0 8
$EndMeshFormat
$Nodes
28
0 325 0 0
1 325 550 0
2 -325 550 0
3 0 0 0
4 762.5 0 0
5 762.5 550 0
6 1200 275 0
7 1200 550 0
8 1200 0 0
9 325 1825 0
10 -325 1825 0
11 -325 1400 0
12 325 1400 0
13 -325 975 0
14 325 975 0
15 -325 0 0
16 -762.5 550 0
17 -762.5 0 0
18 325 2250 0
19 -325 2250 0
20 325 2675 0
21 0 3100 0
22 -325 3100 0
23 -325 2675 0
24 325 3100 0
25 -1200 550 0
26 -1200 275 0
27 -1200 0 0
$EndNodes
$Elements
15
0 3 2 1 1 0 1 2 3
1 3 2 1 1 1 0 4 5
2 3 2 1 1 4 6 7 5
3 2 2 1 1 6 4 8 
4 3 2 1 1 9 10 11 12
5 3 2 1 1 13 14 12 11
6 3 2 1 1 14 13 2 1
7 3 2 1 1 15 2 16 17
8 3 2 1 1 18 19 10 9
9 3 2 1 1 20 21 22 23
10 2 2 1 1 21 20 24 
11 3 2 1 1 20 23 19 18
12 2 2 1 1 2 15 3 
13 3 2 1 1 17 16 25 26
14 2 2 1 1 26 27 17 
$EndElements
