$MeshFormat
2.2 0 8
$EndMeshFormat
$Nodes
27
0 800 0 0
1 800 550 0
2 200 550 0
3 200 4500 0
4 -200 4500 0
5 -200 550 0
6 -800 550 0
7 -800 0 0
8 0 0 0
9 -400 0 0
10 400 0 0
11 500 550 0
12 200 2525 0
13 200 1537.5 0
14 200 1043.75 0
15 200 2031.25 0
16 200 3512.5 0
17 200 3018.75 0
18 200 4006.25 0
19 -200 2525 0
20 -200 3512.5 0
21 -200 4006.25 0
22 -200 3018.75 0
23 -200 1537.5 0
24 -200 2031.25 0
25 -200 1043.75 0
26 -500 550 0
$EndNodes
$Elements
25
0 2 2 1 1 7 26 6 
1 2 2 1 1 9 5 26 
2 2 2 1 1 9 26 7 
3 2 2 1 1 5 2 25 
4 2 2 1 1 25 14 23 
5 2 2 1 1 8 5 9 
6 2 2 1 1 23 13 24 
7 2 2 1 1 24 15 19 
8 2 2 1 1 19 12 22 
9 2 2 1 1 22 17 20 
10 2 2 1 1 20 16 21 
11 2 2 1 1 21 18 4 
12 2 2 1 1 14 25 2 
13 2 2 1 1 10 2 8 
14 2 2 1 1 2 5 8 
15 2 2 1 1 13 23 14 
16 2 2 1 1 15 24 13 
17 2 2 1 1 12 19 15 
18 2 2 1 1 17 22 12 
19 2 2 1 1 16 20 17 
20 2 2 1 1 18 21 16 
21 2 2 1 1 18 3 4 
22 2 2 1 1 0 11 10 
23 2 2 1 1 11 2 10 
24 2 2 1 1 1 11 0 
$EndElements
