$MeshFormat
2.2 0 8
$EndMeshFormat
$Nodes
1275
0 0 0 0
1 10 0 0
2 20 0 0
3 30 0 0
4 40 0 0
5 0 10 0
6 10 10 0
7 20 10 0
8 30 10 0
9 40 10 0
10 0 20 0
11 10 20 0
12 20 20 0
13 30 20 0
14 40 20 0
15 0 30 0
16 10 30 0
17 20 30 0
18 30 30 0
19 40 30 0
20 0 40 0
21 10 40 0
22 20 40 0
23 30 40 0
24 40 40 0
25 0 0 0.333333333333333
26 10 0 0.333333333333333
27 10 10 0.333333333333333
28 0 10 0.333333333333333
29 20 0 0.333333333333333
30 20 10 0.333333333333333
31 30 0 0.333333333333333
32 30 10 0.333333333333333
33 40 0 0.333333333333333
34 40 10 0.333333333333333
35 10 20 0.333333333333333
36 0 20 0.333333333333333
37 20 20 0.333333333333333
38 30 20 0.333333333333333
39 40 20 0.333333333333333
40 10 30 0.333333333333333
41 0 30 0.333333333333333
42 20 30 0.333333333333333
43 30 30 0.333333333333333
44 40 30 0.333333333333333
45 10 40 0.333333333333333
46 0 40 0.333333333333333
47 20 40 0.333333333333333
48 30 40 0.333333333333333
49 40 40 0.333333333333333
50 0 0 0.666666666666667
51 10 0 0.666666666666667
52 10 10 0.666666666666667
53 0 10 0.666666666666667
54 20 0 0.666666666666667
55 20 10 0.666666666666667
56 30 0 0.666666666666667
57 30 10 0.666666666666667
58 40 0 0.666666666666667
59 40 10 0.666666666666667
60 10 20 0.666666666666667
61 0 20 0.666666666666667
62 20 20 0.666666666666667
63 30 20 0.666666666666667
64 40 20 0.666666666666667
65 10 30 0.666666666666667
66 0 30 0.666666666666667
67 20 30 0.666666666666667
68 30 30 0.666666666666667
69 40 30 0.666666666666667
70 10 40 0.666666666666667
71 0 40 0.666666666666667
72 20 40 0.666666666666667
73 30 40 0.666666666666667
74 40 40 0.666666666666667
75 0 0 1
76 10 0 1
77 10 10 1
78 0 10 1
79 20 0 1
80 20 10 1
81 30 0 1
82 30 10 1
83 40 0 1
84 40 10 1
85 10 20 1
86 0 20 1
87 20 20 1
88 30 20 1
89 40 20 1
90 10 30 1
91 0 30 1
92 20 30 1
93 30 30 1
94 40 30 1
95 10 40 1
96 0 40 1
97 20 40 1
98 30 40 1
99 40 40 1
100 0 0 1.33333333333333
101 10 0 1.33333333333333
102 10 10 1.33333333333333
103 0 10 1.33333333333333
104 20 0 1.33333333333333
105 20 10 1.33333333333333
106 30 0 1.33333333333333
107 30 10 1.33333333333333
108 40 0 1.33333333333333
109 40 10 1.33333333333333
110 10 20 1.33333333333333
111 0 20 1.33333333333333
112 20 20 1.33333333333333
113 30 20 1.33333333333333
114 40 20 1.33333333333333
115 10 30 1.33333333333333
116 0 30 1.33333333333333
117 20 30 1.33333333333333
118 30 30 1.33333333333333
119 40 30 1.33333333333333
120 10 40 1.33333333333333
121 0 40 1.33333333333333
122 20 40 1.33333333333333
123 30 40 1.33333333333333
124 40 40 1.33333333333333
125 0 0 1.66666666666667
126 10 0 1.66666666666667
127 10 10 1.66666666666667
128 0 10 1.66666666666667
129 20 0 1.66666666666667
130 20 10 1.66666666666667
131 30 0 1.66666666666667
132 30 10 1.66666666666667
133 40 0 1.66666666666667
134 40 10 1.66666666666667
135 10 20 1.66666666666667
136 0 20 1.66666666666667
137 20 20 1.66666666666667
138 30 20 1.66666666666667
139 40 20 1.66666666666667
140 10 30 1.66666666666667
141 0 30 1.66666666666667
142 20 30 1.66666666666667
143 30 30 1.66666666666667
144 40 30 1.66666666666667
145 10 40 1.66666666666667
146 0 40 1.66666666666667
147 20 40 1.66666666666667
148 30 40 1.66666666666667
149 40 40 1.66666666666667
150 0 0 2
151 10 0 2
152 10 10 2
153 0 10 2
154 20 0 2
155 20 10 2
156 30 0 2
157 30 10 2
158 40 0 2
159 40 10 2
160 10 20 2
161 0 20 2
162 20 20 2
163 30 20 2
164 40 20 2
165 10 30 2
166 0 30 2
167 20 30 2
168 30 30 2
169 40 30 2
170 10 40 2
171 0 40 2
172 20 40 2
173 30 40 2
174 40 40 2
175 0 0 2.33333333333333
176 10 0 2.33333333333333
177 10 10 2.33333333333333
178 0 10 2.33333333333333
179 20 0 2.33333333333333
180 20 10 2.33333333333333
181 30 0 2.33333333333333
182 30 10 2.33333333333333
183 40 0 2.33333333333333
184 40 10 2.33333333333333
185 10 20 2.33333333333333
186 0 20 2.33333333333333
187 20 20 2.33333333333333
188 30 20 2.33333333333333
189 40 20 2.33333333333333
190 10 30 2.33333333333333
191 0 30 2.33333333333333
192 20 30 2.33333333333333
193 30 30 2.33333333333333
194 40 30 2.33333333333333
195 10 40 2.33333333333333
196 0 40 2.33333333333333
197 20 40 2.33333333333333
198 30 40 2.33333333333333
199 40 40 2.33333333333333
200 0 0 2.66666666666667
201 10 0 2.66666666666667
202 10 10 2.66666666666667
203 0 10 2.66666666666667
204 20 0 2.66666666666667
205 20 10 2.66666666666667
206 30 0 2.66666666666667
207 30 10 2.66666666666667
208 40 0 2.66666666666667
209 40 10 2.66666666666667
210 10 20 2.66666666666667
211 0 20 2.66666666666667
212 20 20 2.66666666666667
213 30 20 2.66666666666667
214 40 20 2.66666666666667
215 10 30 2.66666666666667
216 0 30 2.66666666666667
217 20 30 2.66666666666667
218 30 30 2.66666666666667
219 40 30 2.66666666666667
220 10 40 2.66666666666667
221 0 40 2.66666666666667
222 20 40 2.66666666666667
223 30 40 2.66666666666667
224 40 40 2.66666666666667
225 0 0 3
226 10 0 3
227 10 10 3
228 0 10 3
229 20 0 3
230 20 10 3
231 30 0 3
232 30 10 3
233 40 0 3
234 40 10 3
235 10 20 3
236 0 20 3
237 20 20 3
238 30 20 3
239 40 20 3
240 10 30 3
241 0 30 3
242 20 30 3
243 30 30 3
244 40 30 3
245 10 40 3
246 0 40 3
247 20 40 3
248 30 40 3
249 40 40 3
250 0 0 3.33333333333333
251 10 0 3.33333333333333
252 10 10 3.33333333333333
253 0 10 3.33333333333333
254 20 0 3.33333333333333
255 20 10 3.33333333333333
256 30 0 3.33333333333333
257 30 10 3.33333333333333
258 40 0 3.33333333333333
259 40 10 3.33333333333333
260 10 20 3.33333333333333
261 0 20 3.33333333333333
262 20 20 3.33333333333333
263 30 20 3.33333333333333
264 40 20 3.33333333333333
265 10 30 3.33333333333333
266 0 30 3.33333333333333
267 20 30 3.33333333333333
268 30 30 3.33333333333333
269 40 30 3.33333333333333
270 10 40 3.33333333333333
271 0 40 3.33333333333333
272 20 40 3.33333333333333
273 30 40 3.33333333333333
274 40 40 3.33333333333333
275 0 0 3.66666666666667
276 10 0 3.66666666666667
277 10 10 3.66666666666667
278 0 10 3.66666666666667
279 20 0 3.66666666666667
280 20 10 3.66666666666667
281 30 0 3.66666666666667
282 30 10 3.66666666666667
283 40 0 3.66666666666667
284 40 10 3.66666666666667
285 10 20 3.66666666666667
286 0 20 3.66666666666667
287 20 20 3.66666666666667
288 30 20 3.66666666666667
289 40 20 3.66666666666667
290 10 30 3.66666666666667
291 0 30 3.66666666666667
292 20 30 3.66666666666667
293 30 30 3.66666666666667
294 40 30 3.66666666666667
295 10 40 3.66666666666667
296 0 40 3.66666666666667
297 20 40 3.66666666666667
298 30 40 3.66666666666667
299 40 40 3.66666666666667
300 0 0 4
301 10 0 4
302 10 10 4
303 0 10 4
304 20 0 4
305 20 10 4
306 30 0 4
307 30 10 4
308 40 0 4
309 40 10 4
310 10 20 4
311 0 20 4
312 20 20 4
313 30 20 4
314 40 20 4
315 10 30 4
316 0 30 4
317 20 30 4
318 30 30 4
319 40 30 4
320 10 40 4
321 0 40 4
322 20 40 4
323 30 40 4
324 40 40 4
325 0 0 4.33333333333333
326 10 0 4.33333333333333
327 10 10 4.33333333333333
328 0 10 4.33333333333333
329 20 0 4.33333333333333
330 20 10 4.33333333333333
331 30 0 4.33333333333333
332 30 10 4.33333333333333
333 40 0 4.33333333333333
334 40 10 4.33333333333333
335 10 20 4.33333333333333
336 0 20 4.33333333333333
337 20 20 4.33333333333333
338 30 20 4.33333333333333
339 40 20 4.33333333333333
340 10 30 4.33333333333333
341 0 30 4.33333333333333
342 20 30 4.33333333333333
343 30 30 4.33333333333333
344 40 30 4.33333333333333
345 10 40 4.33333333333333
346 0 40 4.33333333333333
347 20 40 4.33333333333333
348 30 40 4.33333333333333
349 40 40 4.33333333333333
350 0 0 4.66666666666667
351 10 0 4.66666666666667
352 10 10 4.66666666666667
353 0 10 4.66666666666667
354 20 0 4.66666666666667
355 20 10 4.66666666666667
356 30 0 4.66666666666667
357 30 10 4.66666666666667
358 40 0 4.66666666666667
359 40 10 4.66666666666667
360 10 20 4.66666666666667
361 0 20 4.66666666666667
362 20 20 4.66666666666667
363 30 20 4.66666666666667
364 40 20 4.66666666666667
365 10 30 4.66666666666667
366 0 30 4.66666666666667
367 20 30 4.66666666666667
368 30 30 4.66666666666667
369 40 30 4.66666666666667
370 10 40 4.66666666666667
371 0 40 4.66666666666667
372 20 40 4.66666666666667
373 30 40 4.66666666666667
374 40 40 4.66666666666667
375 0 0 5
376 10 0 5
377 10 10 5
378 0 10 5
379 20 0 5
380 20 10 5
381 30 0 5
382 30 10 5
383 40 0 5
384 40 10 5
385 10 20 5
386 0 20 5
387 20 20 5
388 30 20 5
389 40 20 5
390 10 30 5
391 0 30 5
392 20 30 5
393 30 30 5
394 40 30 5
395 10 40 5
396 0 40 5
397 20 40 5
398 30 40 5
399 40 40 5
400 0 0 5.33333333333333
401 10 0 5.33333333333333
402 10 10 5.33333333333333
403 0 10 5.33333333333333
404 20 0 5.33333333333333
405 20 10 5.33333333333333
406 30 0 5.33333333333333
407 30 10 5.33333333333333
408 40 0 5.33333333333333
409 40 10 5.33333333333333
410 10 20 5.33333333333333
411 0 20 5.33333333333333
412 20 20 5.33333333333333
413 30 20 5.33333333333333
414 40 20 5.33333333333333
415 10 30 5.33333333333333
416 0 30 5.33333333333333
417 20 30 5.33333333333333
418 30 30 5.33333333333333
419 40 30 5.33333333333333
420 10 40 5.33333333333333
421 0 40 5.33333333333333
422 20 40 5.33333333333333
423 30 40 5.33333333333333
424 40 40 5.33333333333333
425 0 0 5.66666666666667
426 10 0 5.66666666666667
427 10 10 5.66666666666667
428 0 10 5.66666666666667
429 20 0 5.66666666666667
430 20 10 5.66666666666667
431 30 0 5.66666666666667
432 30 10 5.66666666666667
433 40 0 5.66666666666667
434 40 10 5.66666666666667
435 10 20 5.66666666666667
436 0 20 5.66666666666667
437 20 20 5.66666666666667
438 30 20 5.66666666666667
439 40 20 5.66666666666667
440 10 30 5.66666666666667
441 0 30 5.66666666666667
442 20 30 5.66666666666667
443 30 30 5.66666666666667
444 40 30 5.66666666666667
445 10 40 5.66666666666667
446 0 40 5.66666666666667
447 20 40 5.66666666666667
448 30 40 5.66666666666667
449 40 40 5.66666666666667
450 0 0 6
451 10 0 6
452 10 10 6
453 0 10 6
454 20 0 6
455 20 10 6
456 30 0 6
457 30 10 6
458 40 0 6
459 40 10 6
460 10 20 6
461 0 20 6
462 20 20 6
463 30 20 6
464 40 20 6
465 10 30 6
466 0 30 6
467 20 30 6
468 30 30 6
469 40 30 6
470 10 40 6
471 0 40 6
472 20 40 6
473 30 40 6
474 40 40 6
475 0 0 6.33333333333333
476 10 0 6.33333333333333
477 10 10 6.33333333333333
478 0 10 6.33333333333333
479 20 0 6.33333333333333
480 20 10 6.33333333333333
481 30 0 6.33333333333333
482 30 10 6.33333333333333
483 40 0 6.33333333333333
484 40 10 6.33333333333333
485 10 20 6.33333333333333
486 0 20 6.33333333333333
487 20 20 6.33333333333333
488 30 20 6.33333333333333
489 40 20 6.33333333333333
490 10 30 6.33333333333333
491 0 30 6.33333333333333
492 20 30 6.33333333333333
493 30 30 6.33333333333333
494 40 30 6.33333333333333
495 10 40 6.33333333333333
496 0 40 6.33333333333333
497 20 40 6.33333333333333
498 30 40 6.33333333333333
499 40 40 6.33333333333333
500 0 0 6.66666666666666
501 10 0 6.66666666666666
502 10 10 6.66666666666666
503 0 10 6.66666666666666
504 20 0 6.66666666666666
505 20 10 6.66666666666666
506 30 0 6.66666666666666
507 30 10 6.66666666666666
508 40 0 6.66666666666666
509 40 10 6.66666666666666
510 10 20 6.66666666666666
511 0 20 6.66666666666666
512 20 20 6.66666666666666
513 30 20 6.66666666666666
514 40 20 6.66666666666666
515 10 30 6.66666666666666
516 0 30 6.66666666666666
517 20 30 6.66666666666666
518 30 30 6.66666666666666
519 40 30 6.66666666666666
520 10 40 6.66666666666666
521 0 40 6.66666666666666
522 20 40 6.66666666666666
523 30 40 6.66666666666666
524 40 40 6.66666666666666
525 0 0 7
526 10 0 7
527 10 10 7
528 0 10 7
529 20 0 7
530 20 10 7
531 30 0 7
532 30 10 7
533 40 0 7
534 40 10 7
535 10 20 7
536 0 20 7
537 20 20 7
538 30 20 7
539 40 20 7
540 10 30 7
541 0 30 7
542 20 30 7
543 30 30 7
544 40 30 7
545 10 40 7
546 0 40 7
547 20 40 7
548 30 40 7
549 40 40 7
550 0 0 7.33333333333333
551 10 0 7.33333333333333
552 10 10 7.33333333333333
553 0 10 7.33333333333333
554 20 0 7.33333333333333
555 20 10 7.33333333333333
556 30 0 7.33333333333333
557 30 10 7.33333333333333
558 40 0 7.33333333333333
559 40 10 7.33333333333333
560 10 20 7.33333333333333
561 0 20 7.33333333333333
562 20 20 7.33333333333333
563 30 20 7.33333333333333
564 40 20 7.33333333333333
565 10 30 7.33333333333333
566 0 30 7.33333333333333
567 20 30 7.33333333333333
568 30 30 7.33333333333333
569 40 30 7.33333333333333
570 10 40 7.33333333333333
571 0 40 7.33333333333333
572 20 40 7.33333333333333
573 30 40 7.33333333333333
574 40 40 7.33333333333333
575 0 0 7.66666666666666
576 10 0 7.66666666666666
577 10 10 7.66666666666666
578 0 10 7.66666666666666
579 20 0 7.66666666666666
580 20 10 7.66666666666666
581 30 0 7.66666666666666
582 30 10 7.66666666666666
583 40 0 7.66666666666666
584 40 10 7.66666666666666
585 10 20 7.66666666666666
586 0 20 7.66666666666666
587 20 20 7.66666666666666
588 30 20 7.66666666666666
589 40 20 7.66666666666666
590 10 30 7.66666666666666
591 0 30 7.66666666666666
592 20 30 7.66666666666666
593 30 30 7.66666666666666
594 40 30 7.66666666666666
595 10 40 7.66666666666666
596 0 40 7.66666666666666
597 20 40 7.66666666666666
598 30 40 7.66666666666666
599 40 40 7.66666666666666
600 0 0 8
601 10 0 8
602 10 10 8
603 0 10 8
604 20 0 8
605 20 10 8
606 30 0 8
607 30 10 8
608 40 0 8
609 40 10 8
610 10 20 8
611 0 20 8
612 20 20 8
613 30 20 8
614 40 20 8
615 10 30 8
616 0 30 8
617 20 30 8
618 30 30 8
619 40 30 8
620 10 40 8
621 0 40 8
622 20 40 8
623 30 40 8
624 40 40 8
625 0 0 8.33333333333333
626 10 0 8.33333333333333
627 10 10 8.33333333333333
628 0 10 8.33333333333333
629 20 0 8.33333333333333
630 20 10 8.33333333333333
631 30 0 8.33333333333333
632 30 10 8.33333333333333
633 40 0 8.33333333333333
634 40 10 8.33333333333333
635 10 20 8.33333333333333
636 0 20 8.33333333333333
637 20 20 8.33333333333333
638 30 20 8.33333333333333
639 40 20 8.33333333333333
640 10 30 8.33333333333333
641 0 30 8.33333333333333
642 20 30 8.33333333333333
643 30 30 8.33333333333333
644 40 30 8.33333333333333
645 10 40 8.33333333333333
646 0 40 8.33333333333333
647 20 40 8.33333333333333
648 30 40 8.33333333333333
649 40 40 8.33333333333333
650 0 0 8.66666666666666
651 10 0 8.66666666666666
652 10 10 8.66666666666666
653 0 10 8.66666666666666
654 20 0 8.66666666666666
655 20 10 8.66666666666666
656 30 0 8.66666666666666
657 30 10 8.66666666666666
658 40 0 8.66666666666666
659 40 10 8.66666666666666
660 10 20 8.66666666666666
661 0 20 8.66666666666666
662 20 20 8.66666666666666
663 30 20 8.66666666666666
664 40 20 8.66666666666666
665 10 30 8.66666666666666
666 0 30 8.66666666666666
667 20 30 8.66666666666666
668 30 30 8.66666666666666
669 40 30 8.66666666666666
670 10 40 8.66666666666666
671 0 40 8.66666666666666
672 20 40 8.66666666666666
673 30 40 8.66666666666666
674 40 40 8.66666666666666
675 0 0 9
676 10 0 9
677 10 10 9
678 0 10 9
679 20 0 9
680 20 10 9
681 30 0 9
682 30 10 9
683 40 0 9
684 40 10 9
685 10 20 9
686 0 20 9
687 20 20 9
688 30 20 9
689 40 20 9
690 10 30 9
691 0 30 9
692 20 30 9
693 30 30 9
694 40 30 9
695 10 40 9
696 0 40 9
697 20 40 9
698 30 40 9
699 40 40 9
700 0 0 9.33333333333333
701 10 0 9.33333333333333
702 10 10 9.33333333333333
703 0 10 9.33333333333333
704 20 0 9.33333333333333
705 20 10 9.33333333333333
706 30 0 9.33333333333333
707 30 10 9.33333333333333
708 40 0 9.33333333333333
709 40 10 9.33333333333333
710 10 20 9.33333333333333
711 0 20 9.33333333333333
712 20 20 9.33333333333333
713 30 20 9.33333333333333
714 40 20 9.33333333333333
715 10 30 9.33333333333333
716 0 30 9.33333333333333
717 20 30 9.33333333333333
718 30 30 9.33333333333333
719 40 30 9.33333333333333
720 10 40 9.33333333333333
721 0 40 9.33333333333333
722 20 40 9.33333333333333
723 30 40 9.33333333333333
724 40 40 9.33333333333333
725 0 0 9.66666666666667
726 10 0 9.66666666666667
727 10 10 9.66666666666667
728 0 10 9.66666666666667
729 20 0 9.66666666666667
730 20 10 9.66666666666667
731 30 0 9.66666666666667
732 30 10 9.66666666666667
733 40 0 9.66666666666667
734 40 10 9.66666666666667
735 10 20 9.66666666666667
736 0 20 9.66666666666667
737 20 20 9.66666666666667
738 30 20 9.66666666666667
739 40 20 9.66666666666667
740 10 30 9.66666666666667
741 0 30 9.66666666666667
742 20 30 9.66666666666667
743 30 30 9.66666666666667
744 40 30 9.66666666666667
745 10 40 9.66666666666667
746 0 40 9.66666666666667
747 20 40 9.66666666666667
748 30 40 9.66666666666667
749 40 40 9.66666666666667
750 0 0 10
751 10 0 10
752 10 10 10
753 0 10 10
754 20 0 10
755 20 10 10
756 30 0 10
757 30 10 10
758 40 0 10
759 40 10 10
760 10 20 10
761 0 20 10
762 20 20 10
763 30 20 10
764 40 20 10
765 10 30 10
766 0 30 10
767 20 30 10
768 30 30 10
769 40 30 10
770 10 40 10
771 0 40 10
772 20 40 10
773 30 40 10
774 40 40 10
775 0 0 10.3333333333333
776 10 0 10.3333333333333
777 10 10 10.3333333333333
778 0 10 10.3333333333333
779 20 0 10.3333333333333
780 20 10 10.3333333333333
781 30 0 10.3333333333333
782 30 10 10.3333333333333
783 40 0 10.3333333333333
784 40 10 10.3333333333333
785 10 20 10.3333333333333
786 0 20 10.3333333333333
787 20 20 10.3333333333333
788 30 20 10.3333333333333
789 40 20 10.3333333333333
790 10 30 10.3333333333333
791 0 30 10.3333333333333
792 20 30 10.3333333333333
793 30 30 10.3333333333333
794 40 30 10.3333333333333
795 10 40 10.3333333333333
796 0 40 10.3333333333333
797 20 40 10.3333333333333
798 30 40 10.3333333333333
799 40 40 10.3333333333333
800 0 0 10.6666666666667
801 10 0 10.6666666666667
802 10 10 10.6666666666667
803 0 10 10.6666666666667
804 20 0 10.6666666666667
805 20 10 10.6666666666667
806 30 0 10.6666666666667
807 30 10 10.6666666666667
808 40 0 10.6666666666667
809 40 10 10.6666666666667
810 10 20 10.6666666666667
811 0 20 10.6666666666667
812 20 20 10.6666666666667
813 30 20 10.6666666666667
814 40 20 10.6666666666667
815 10 30 10.6666666666667
816 0 30 10.6666666666667
817 20 30 10.6666666666667
818 30 30 10.6666666666667
819 40 30 10.6666666666667
820 10 40 10.6666666666667
821 0 40 10.6666666666667
822 20 40 10.6666666666667
823 30 40 10.6666666666667
824 40 40 10.6666666666667
825 0 0 11
826 10 0 11
827 10 10 11
828 0 10 11
829 20 0 11
830 20 10 11
831 30 0 11
832 30 10 11
833 40 0 11
834 40 10 11
835 10 20 11
836 0 20 11
837 20 20 11
838 30 20 11
839 40 20 11
840 10 30 11
841 0 30 11
842 20 30 11
843 30 30 11
844 40 30 11
845 10 40 11
846 0 40 11
847 20 40 11
848 30 40 11
849 40 40 11
850 0 0 11.3333333333333
851 10 0 11.3333333333333
852 10 10 11.3333333333333
853 0 10 11.3333333333333
854 20 0 11.3333333333333
855 20 10 11.3333333333333
856 30 0 11.3333333333333
857 30 10 11.3333333333333
858 40 0 11.3333333333333
859 40 10 11.3333333333333
860 10 20 11.3333333333333
861 0 20 11.3333333333333
862 20 20 11.3333333333333
863 30 20 11.3333333333333
864 40 20 11.3333333333333
865 10 30 11.3333333333333
866 0 30 11.3333333333333
867 20 30 11.3333333333333
868 30 30 11.3333333333333
869 40 30 11.3333333333333
870 10 40 11.3333333333333
871 0 40 11.3333333333333
872 20 40 11.3333333333333
873 30 40 11.3333333333333
874 40 40 11.3333333333333
875 0 0 11.6666666666667
876 10 0 11.6666666666667
877 10 10 11.6666666666667
878 0 10 11.6666666666667
879 20 0 11.6666666666667
880 20 10 11.6666666666667
881 30 0 11.6666666666667
882 30 10 11.6666666666667
883 40 0 11.6666666666667
884 40 10 11.6666666666667
885 10 20 11.6666666666667
886 0 20 11.6666666666667
887 20 20 11.6666666666667
888 30 20 11.6666666666667
889 40 20 11.6666666666667
890 10 30 11.6666666666667
891 0 30 11.6666666666667
892 20 30 11.6666666666667
893 30 30 11.6666666666667
894 40 30 11.6666666666667
895 10 40 11.6666666666667
896 0 40 11.6666666666667
897 20 40 11.6666666666667
898 30 40 11.6666666666667
899 40 40 11.6666666666667
900 0 0 12
901 10 0 12
902 10 10 12
903 0 10 12
904 20 0 12
905 20 10 12
906 30 0 12
907 30 10 12
908 40 0 12
909 40 10 12
910 10 20 12
911 0 20 12
912 20 20 12
913 30 20 12
914 40 20 12
915 10 30 12
916 0 30 12
917 20 30 12
918 30 30 12
919 40 30 12
920 10 40 12
921 0 40 12
922 20 40 12
923 30 40 12
924 40 40 12
925 0 0 12.3333333333333
926 10 0 12.3333333333333
927 10 10 12.3333333333333
928 0 10 12.3333333333333
929 20 0 12.3333333333333
930 20 10 12.3333333333333
931 30 0 12.3333333333333
932 30 10 12.3333333333333
933 40 0 12.3333333333333
934 40 10 12.3333333333333
935 10 20 12.3333333333333
936 0 20 12.3333333333333
937 20 20 12.3333333333333
938 30 20 12.3333333333333
939 40 20 12.3333333333333
940 10 30 12.3333333333333
941 0 30 12.3333333333333
942 20 30 12.3333333333333
943 30 30 12.3333333333333
944 40 30 12.3333333333333
945 10 40 12.3333333333333
946 0 40 12.3333333333333
947 20 40 12.3333333333333
948 30 40 12.3333333333333
949 40 40 12.3333333333333
950 0 0 12.6666666666667
951 10 0 12.6666666666667
952 10 10 12.6666666666667
953 0 10 12.6666666666667
954 20 0 12.6666666666667
955 20 10 12.6666666666667
956 30 0 12.6666666666667
957 30 10 12.6666666666667
958 40 0 12.6666666666667
959 40 10 12.6666666666667
960 10 20 12.6666666666667
961 0 20 12.6666666666667
962 20 20 12.6666666666667
963 30 20 12.6666666666667
964 40 20 12.6666666666667
965 10 30 12.6666666666667
966 0 30 12.6666666666667
967 20 30 12.6666666666667
968 30 30 12.6666666666667
969 40 30 12.6666666666667
970 10 40 12.6666666666667
971 0 40 12.6666666666667
972 20 40 12.6666666666667
973 30 40 12.6666666666667
974 40 40 12.6666666666667
975 0 0 13
976 10 0 13
977 10 10 13
978 0 10 13
979 20 0 13
980 20 10 13
981 30 0 13
982 30 10 13
983 40 0 13
984 40 10 13
985 10 20 13
986 0 20 13
987 20 20 13
988 30 20 13
989 40 20 13
990 10 30 13
991 0 30 13
992 20 30 13
993 30 30 13
994 40 30 13
995 10 40 13
996 0 40 13
997 20 40 13
998 30 40 13
999 40 40 13
1000 0 0 13.3333333333333
1001 10 0 13.3333333333333
1002 10 10 13.3333333333333
1003 0 10 13.3333333333333
1004 20 0 13.3333333333333
1005 20 10 13.3333333333333
1006 30 0 13.3333333333333
1007 30 10 13.3333333333333
1008 40 0 13.3333333333333
1009 40 10 13.3333333333333
1010 10 20 13.3333333333333
1011 0 20 13.3333333333333
1012 20 20 13.3333333333333
1013 30 20 13.3333333333333
1014 40 20 13.3333333333333
1015 10 30 13.3333333333333
1016 0 30 13.3333333333333
1017 20 30 13.3333333333333
1018 30 30 13.3333333333333
1019 40 30 13.3333333333333
1020 10 40 13.3333333333333
1021 0 40 13.3333333333333
1022 20 40 13.3333333333333
1023 30 40 13.3333333333333
1024 40 40 13.3333333333333
1025 0 0 13.6666666666667
1026 10 0 13.6666666666667
1027 10 10 13.6666666666667
1028 0 10 13.6666666666667
1029 20 0 13.6666666666667
1030 20 10 13.6666666666667
1031 30 0 13.6666666666667
1032 30 10 13.6666666666667
1033 40 0 13.6666666666667
1034 40 10 13.6666666666667
1035 10 20 13.6666666666667
1036 0 20 13.6666666666667
1037 20 20 13.6666666666667
1038 30 20 13.6666666666667
1039 40 20 13.6666666666667
1040 10 30 13.6666666666667
1041 0 30 13.6666666666667
1042 20 30 13.6666666666667
1043 30 30 13.6666666666667
1044 40 30 13.6666666666667
1045 10 40 13.6666666666667
1046 0 40 13.6666666666667
1047 20 40 13.6666666666667
1048 30 40 13.6666666666667
1049 40 40 13.6666666666667
1050 0 0 14
1051 10 0 14
1052 10 10 14
1053 0 10 14
1054 20 0 14
1055 20 10 14
1056 30 0 14
1057 30 10 14
1058 40 0 14
1059 40 10 14
1060 10 20 14
1061 0 20 14
1062 20 20 14
1063 30 20 14
1064 40 20 14
1065 10 30 14
1066 0 30 14
1067 20 30 14
1068 30 30 14
1069 40 30 14
1070 10 40 14
1071 0 40 14
1072 20 40 14
1073 30 40 14
1074 40 40 14
1075 0 0 14.3333333333333
1076 10 0 14.3333333333333
1077 10 10 14.3333333333333
1078 0 10 14.3333333333333
1079 20 0 14.3333333333333
1080 20 10 14.3333333333333
1081 30 0 14.3333333333333
1082 30 10 14.3333333333333
1083 40 0 14.3333333333333
1084 40 10 14.3333333333333
1085 10 20 14.3333333333333
1086 0 20 14.3333333333333
1087 20 20 14.3333333333333
1088 30 20 14.3333333333333
1089 40 20 14.3333333333333
1090 10 30 14.3333333333333
1091 0 30 14.3333333333333
1092 20 30 14.3333333333333
1093 30 30 14.3333333333333
1094 40 30 14.3333333333333
1095 10 40 14.3333333333333
1096 0 40 14.3333333333333
1097 20 40 14.3333333333333
1098 30 40 14.3333333333333
1099 40 40 14.3333333333333
1100 0 0 14.6666666666667
1101 10 0 14.6666666666667
1102 10 10 14.6666666666667
1103 0 10 14.6666666666667
1104 20 0 14.6666666666667
1105 20 10 14.6666666666667
1106 30 0 14.6666666666667
1107 30 10 14.6666666666667
1108 40 0 14.6666666666667
1109 40 10 14.6666666666667
1110 10 20 14.6666666666667
1111 0 20 14.6666666666667
1112 20 20 14.6666666666667
1113 30 20 14.6666666666667
1114 40 20 14.6666666666667
1115 10 30 14.6666666666667
1116 0 30 14.6666666666667
1117 20 30 14.6666666666667
1118 30 30 14.6666666666667
1119 40 30 14.6666666666667
1120 10 40 14.6666666666667
1121 0 40 14.6666666666667
1122 20 40 14.6666666666667
1123 30 40 14.6666666666667
1124 40 40 14.6666666666667
1125 0 0 15
1126 10 0 15
1127 10 10 15
1128 0 10 15
1129 20 0 15
1130 20 10 15
1131 30 0 15
1132 30 10 15
1133 40 0 15
1134 40 10 15
1135 10 20 15
1136 0 20 15
1137 20 20 15
1138 30 20 15
1139 40 20 15
1140 10 30 15
1141 0 30 15
1142 20 30 15
1143 30 30 15
1144 40 30 15
1145 10 40 15
1146 0 40 15
1147 20 40 15
1148 30 40 15
1149 40 40 15
1150 0 0 15.3333333333333
1151 10 0 15.3333333333333
1152 10 10 15.3333333333333
1153 0 10 15.3333333333333
1154 20 0 15.3333333333333
1155 20 10 15.3333333333333
1156 30 0 15.3333333333333
1157 30 10 15.3333333333333
1158 40 0 15.3333333333333
1159 40 10 15.3333333333333
1160 10 20 15.3333333333333
1161 0 20 15.3333333333333
1162 20 20 15.3333333333333
1163 30 20 15.3333333333333
1164 40 20 15.3333333333333
1165 10 30 15.3333333333333
1166 0 30 15.3333333333333
1167 20 30 15.3333333333333
1168 30 30 15.3333333333333
1169 40 30 15.3333333333333
1170 10 40 15.3333333333333
1171 0 40 15.3333333333333
1172 20 40 15.3333333333333
1173 30 40 15.3333333333333
1174 40 40 15.3333333333333
1175 0 0 15.6666666666667
1176 10 0 15.6666666666667
1177 10 10 15.6666666666667
1178 0 10 15.6666666666667
1179 20 0 15.6666666666667
1180 20 10 15.6666666666667
1181 30 0 15.6666666666667
1182 30 10 15.6666666666667
1183 40 0 15.6666666666667
1184 40 10 15.6666666666667
1185 10 20 15.6666666666667
1186 0 20 15.6666666666667
1187 20 20 15.6666666666667
1188 30 20 15.6666666666667
1189 40 20 15.6666666666667
1190 10 30 15.6666666666667
1191 0 30 15.6666666666667
1192 20 30 15.6666666666667
1193 30 30 15.6666666666667
1194 40 30 15.6666666666667
1195 10 40 15.6666666666667
1196 0 40 15.6666666666667
1197 20 40 15.6666666666667
1198 30 40 15.6666666666667
1199 40 40 15.6666666666667
1200 0 0 16
1201 10 0 16
1202 10 10 16
1203 0 10 16
1204 20 0 16
1205 20 10 16
1206 30 0 16
1207 30 10 16
1208 40 0 16
1209 40 10 16
1210 10 20 16
1211 0 20 16
1212 20 20 16
1213 30 20 16
1214 40 20 16
1215 10 30 16
1216 0 30 16
1217 20 30 16
1218 30 30 16
1219 40 30 16
1220 10 40 16
1221 0 40 16
1222 20 40 16
1223 30 40 16
1224 40 40 16
1225 0 0 16.3333333333333
1226 10 0 16.3333333333333
1227 10 10 16.3333333333333
1228 0 10 16.3333333333333
1229 20 0 16.3333333333333
1230 20 10 16.3333333333333
1231 30 0 16.3333333333333
1232 30 10 16.3333333333333
1233 40 0 16.3333333333333
1234 40 10 16.3333333333333
1235 10 20 16.3333333333333
1236 0 20 16.3333333333333
1237 20 20 16.3333333333333
1238 30 20 16.3333333333333
1239 40 20 16.3333333333333
1240 10 30 16.3333333333333
1241 0 30 16.3333333333333
1242 20 30 16.3333333333333
1243 30 30 16.3333333333333
1244 40 30 16.3333333333333
1245 10 40 16.3333333333333
1246 0 40 16.3333333333333
1247 20 40 16.3333333333333
1248 30 40 16.3333333333333
1249 40 40 16.3333333333333
1250 0 0 16.6666666666667
1251 10 0 16.6666666666667
1252 10 10 16.6666666666667
1253 0 10 16.6666666666667
1254 20 0 16.6666666666667
1255 20 10 16.6666666666667
1256 30 0 16.6666666666667
1257 30 10 16.6666666666667
1258 40 0 16.6666666666667
1259 40 10 16.6666666666667
1260 10 20 16.6666666666667
1261 0 20 16.6666666666667
1262 20 20 16.6666666666667
1263 30 20 16.6666666666667
1264 40 20 16.6666666666667
1265 10 30 16.6666666666667
1266 0 30 16.6666666666667
1267 20 30 16.6666666666667
1268 30 30 16.6666666666667
1269 40 30 16.6666666666667
1270 10 40 16.6666666666667
1271 0 40 16.6666666666667
1272 20 40 16.6666666666667
1273 30 40 16.6666666666667
1274 40 40 16.6666666666667
$EndNodes
$Elements
800
0 5 1 2 0 1 6 5 25 26 27 28
1 5 1 2 1 2 7 6 26 29 30 27
2 5 1 2 2 3 8 7 29 31 32 30
3 5 1 2 3 4 9 8 31 33 34 32
4 5 1 2 5 6 11 10 28 27 35 36
5 5 1 2 6 7 12 11 27 30 37 35
6 5 1 2 7 8 13 12 30 32 38 37
7 5 1 2 8 9 14 13 32 34 39 38
8 5 1 2 10 11 16 15 36 35 40 41
9 5 1 2 11 12 17 16 35 37 42 40
10 5 1 2 12 13 18 17 37 38 43 42
11 5 1 2 13 14 19 18 38 39 44 43
12 5 1 2 15 16 21 20 41 40 45 46
13 5 1 2 16 17 22 21 40 42 47 45
14 5 1 2 17 18 23 22 42 43 48 47
15 5 1 2 18 19 24 23 43 44 49 48
16 5 1 2 25 26 27 28 50 51 52 53
17 5 1 2 26 29 30 27 51 54 55 52
18 5 1 2 29 31 32 30 54 56 57 55
19 5 1 2 31 33 34 32 56 58 59 57
20 5 1 2 28 27 35 36 53 52 60 61
21 5 1 2 27 30 37 35 52 55 62 60
22 5 1 2 30 32 38 37 55 57 63 62
23 5 1 2 32 34 39 38 57 59 64 63
24 5 1 2 36 35 40 41 61 60 65 66
25 5 1 2 35 37 42 40 60 62 67 65
26 5 1 2 37 38 43 42 62 63 68 67
27 5 1 2 38 39 44 43 63 64 69 68
28 5 1 2 41 40 45 46 66 65 70 71
29 5 1 2 40 42 47 45 65 67 72 70
30 5 1 2 42 43 48 47 67 68 73 72
31 5 1 2 43 44 49 48 68 69 74 73
32 5 1 2 50 51 52 53 75 76 77 78
33 5 1 2 51 54 55 52 76 79 80 77
34 5 1 2 54 56 57 55 79 81 82 80
35 5 1 2 56 58 59 57 81 83 84 82
36 5 1 2 53 52 60 61 78 77 85 86
37 5 1 2 52 55 62 60 77 80 87 85
38 5 1 2 55 57 63 62 80 82 88 87
39 5 1 2 57 59 64 63 82 84 89 88
40 5 1 2 61 60 65 66 86 85 90 91
41 5 1 2 60 62 67 65 85 87 92 90
42 5 1 2 62 63 68 67 87 88 93 92
43 5 1 2 63 64 69 68 88 89 94 93
44 5 1 2 66 65 70 71 91 90 95 96
45 5 1 2 65 67 72 70 90 92 97 95
46 5 1 2 67 68 73 72 92 93 98 97
47 5 1 2 68 69 74 73 93 94 99 98
48 5 1 2 75 76 77 78 100 101 102 103
49 5 1 2 76 79 80 77 101 104 105 102
50 5 1 2 79 81 82 80 104 106 107 105
51 5 1 2 81 83 84 82 106 108 109 107
52 5 1 2 78 77 85 86 103 102 110 111
53 5 1 2 77 80 87 85 102 105 112 110
54 5 1 2 80 82 88 87 105 107 113 112
55 5 1 2 82 84 89 88 107 109 114 113
56 5 1 2 86 85 90 91 111 110 115 116
57 5 1 2 85 87 92 90 110 112 117 115
58 5 1 2 87 88 93 92 112 113 118 117
59 5 1 2 88 89 94 93 113 114 119 118
60 5 1 2 91 90 95 96 116 115 120 121
61 5 1 2 90 92 97 95 115 117 122 120
62 5 1 2 92 93 98 97 117 118 123 122
63 5 1 2 93 94 99 98 118 119 124 123
64 5 1 2 100 101 102 103 125 126 127 128
65 5 1 2 101 104 105 102 126 129 130 127
66 5 1 2 104 106 107 105 129 131 132 130
67 5 1 2 106 108 109 107 131 133 134 132
68 5 1 2 103 102 110 111 128 127 135 136
69 5 1 2 102 105 112 110 127 130 137 135
70 5 1 2 105 107 113 112 130 132 138 137
71 5 1 2 107 109 114 113 132 134 139 138
72 5 1 2 111 110 115 116 136 135 140 141
73 5 1 2 110 112 117 115 135 137 142 140
74 5 1 2 112 113 118 117 137 138 143 142
75 5 1 2 113 114 119 118 138 139 144 143
76 5 1 2 116 115 120 121 141 140 145 146
77 5 1 2 115 117 122 120 140 142 147 145
78 5 1 2 117 118 123 122 142 143 148 147
79 5 1 2 118 119 124 123 143 144 149 148
80 5 1 2 125 126 127 128 150 151 152 153
81 5 1 2 126 129 130 127 151 154 155 152
82 5 1 2 129 131 132 130 154 156 157 155
83 5 1 2 131 133 134 132 156 158 159 157
84 5 1 2 128 127 135 136 153 152 160 161
85 5 1 2 127 130 137 135 152 155 162 160
86 5 1 2 130 132 138 137 155 157 163 162
87 5 1 2 132 134 139 138 157 159 164 163
88 5 1 2 136 135 140 141 161 160 165 166
89 5 1 2 135 137 142 140 160 162 167 165
90 5 1 2 137 138 143 142 162 163 168 167
91 5 1 2 138 139 144 143 163 164 169 168
92 5 1 2 141 140 145 146 166 165 170 171
93 5 1 2 140 142 147 145 165 167 172 170
94 5 1 2 142 143 148 147 167 168 173 172
95 5 1 2 143 144 149 148 168 169 174 173
96 5 1 2 150 151 152 153 175 176 177 178
97 5 1 2 151 154 155 152 176 179 180 177
98 5 1 2 154 156 157 155 179 181 182 180
99 5 1 2 156 158 159 157 181 183 184 182
100 5 1 2 153 152 160 161 178 177 185 186
101 5 1 2 152 155 162 160 177 180 187 185
102 5 1 2 155 157 163 162 180 182 188 187
103 5 1 2 157 159 164 163 182 184 189 188
104 5 1 2 161 160 165 166 186 185 190 191
105 5 1 2 160 162 167 165 185 187 192 190
106 5 1 2 162 163 168 167 187 188 193 192
107 5 1 2 163 164 169 168 188 189 194 193
108 5 1 2 166 165 170 171 191 190 195 196
109 5 1 2 165 167 172 170 190 192 197 195
110 5 1 2 167 168 173 172 192 193 198 197
111 5 1 2 168 169 174 173 193 194 199 198
112 5 1 2 175 176 177 178 200 201 202 203
113 5 1 2 176 179 180 177 201 204 205 202
114 5 1 2 179 181 182 180 204 206 207 205
115 5 1 2 181 183 184 182 206 208 209 207
116 5 1 2 178 177 185 186 203 202 210 211
117 5 1 2 177 180 187 185 202 205 212 210
118 5 1 2 180 182 188 187 205 207 213 212
119 5 1 2 182 184 189 188 207 209 214 213
120 5 1 2 186 185 190 191 211 210 215 216
121 5 1 2 185 187 192 190 210 212 217 215
122 5 1 2 187 188 193 192 212 213 218 217
123 5 1 2 188 189 194 193 213 214 219 218
124 5 1 2 191 190 195 196 216 215 220 221
125 5 1 2 190 192 197 195 215 217 222 220
126 5 1 2 192 193 198 197 217 218 223 222
127 5 1 2 193 194 199 198 218 219 224 223
128 5 1 2 200 201 202 203 225 226 227 228
129 5 1 2 201 204 205 202 226 229 230 227
130 5 1 2 204 206 207 205 229 231 232 230
131 5 1 2 206 208 209 207 231 233 234 232
132 5 1 2 203 202 210 211 228 227 235 236
133 5 1 2 202 205 212 210 227 230 237 235
134 5 1 2 205 207 213 212 230 232 238 237
135 5 1 2 207 209 214 213 232 234 239 238
136 5 1 2 211 210 215 216 236 235 240 241
137 5 1 2 210 212 217 215 235 237 242 240
138 5 1 2 212 213 218 217 237 238 243 242
139 5 1 2 213 214 219 218 238 239 244 243
140 5 1 2 216 215 220 221 241 240 245 246
141 5 1 2 215 217 222 220 240 242 247 245
142 5 1 2 217 218 223 222 242 243 248 247
143 5 1 2 218 219 224 223 243 244 249 248
144 5 1 2 225 226 227 228 250 251 252 253
145 5 1 2 226 229 230 227 251 254 255 252
146 5 1 2 229 231 232 230 254 256 257 255
147 5 1 2 231 233 234 232 256 258 259 257
148 5 1 2 228 227 235 236 253 252 260 261
149 5 1 2 227 230 237 235 252 255 262 260
150 5 1 2 230 232 238 237 255 257 263 262
151 5 1 2 232 234 239 238 257 259 264 263
152 5 1 2 236 235 240 241 261 260 265 266
153 5 1 2 235 237 242 240 260 262 267 265
154 5 1 2 237 238 243 242 262 263 268 267
155 5 1 2 238 239 244 243 263 264 269 268
156 5 1 2 241 240 245 246 266 265 270 271
157 5 1 2 240 242 247 245 265 267 272 270
158 5 1 2 242 243 248 247 267 268 273 272
159 5 1 2 243 244 249 248 268 269 274 273
160 5 1 2 250 251 252 253 275 276 277 278
161 5 1 2 251 254 255 252 276 279 280 277
162 5 1 2 254 256 257 255 279 281 282 280
163 5 1 2 256 258 259 257 281 283 284 282
164 5 1 2 253 252 260 261 278 277 285 286
165 5 1 2 252 255 262 260 277 280 287 285
166 5 1 2 255 257 263 262 280 282 288 287
167 5 1 2 257 259 264 263 282 284 289 288
168 5 1 2 261 260 265 266 286 285 290 291
169 5 1 2 260 262 267 265 285 287 292 290
170 5 1 2 262 263 268 267 287 288 293 292
171 5 1 2 263 264 269 268 288 289 294 293
172 5 1 2 266 265 270 271 291 290 295 296
173 5 1 2 265 267 272 270 290 292 297 295
174 5 1 2 267 268 273 272 292 293 298 297
175 5 1 2 268 269 274 273 293 294 299 298
176 5 1 2 275 276 277 278 300 301 302 303
177 5 1 2 276 279 280 277 301 304 305 302
178 5 1 2 279 281 282 280 304 306 307 305
179 5 1 2 281 283 284 282 306 308 309 307
180 5 1 2 278 277 285 286 303 302 310 311
181 5 1 2 277 280 287 285 302 305 312 310
182 5 1 2 280 282 288 287 305 307 313 312
183 5 1 2 282 284 289 288 307 309 314 313
184 5 1 2 286 285 290 291 311 310 315 316
185 5 1 2 285 287 292 290 310 312 317 315
186 5 1 2 287 288 293 292 312 313 318 317
187 5 1 2 288 289 294 293 313 314 319 318
188 5 1 2 291 290 295 296 316 315 320 321
189 5 1 2 290 292 297 295 315 317 322 320
190 5 1 2 292 293 298 297 317 318 323 322
191 5 1 2 293 294 299 298 318 319 324 323
192 5 1 2 300 301 302 303 325 326 327 328
193 5 1 2 301 304 305 302 326 329 330 327
194 5 1 2 304 306 307 305 329 331 332 330
195 5 1 2 306 308 309 307 331 333 334 332
196 5 1 2 303 302 310 311 328 327 335 336
197 5 1 2 302 305 312 310 327 330 337 335
198 5 1 2 305 307 313 312 330 332 338 337
199 5 1 2 307 309 314 313 332 334 339 338
200 5 1 2 311 310 315 316 336 335 340 341
201 5 1 2 310 312 317 315 335 337 342 340
202 5 1 2 312 313 318 317 337 338 343 342
203 5 1 2 313 314 319 318 338 339 344 343
204 5 1 2 316 315 320 321 341 340 345 346
205 5 1 2 315 317 322 320 340 342 347 345
206 5 1 2 317 318 323 322 342 343 348 347
207 5 1 2 318 319 324 323 343 344 349 348
208 5 1 2 325 326 327 328 350 351 352 353
209 5 1 2 326 329 330 327 351 354 355 352
210 5 1 2 329 331 332 330 354 356 357 355
211 5 1 2 331 333 334 332 356 358 359 357
212 5 1 2 328 327 335 336 353 352 360 361
213 5 1 2 327 330 337 335 352 355 362 360
214 5 1 2 330 332 338 337 355 357 363 362
215 5 1 2 332 334 339 338 357 359 364 363
216 5 1 2 336 335 340 341 361 360 365 366
217 5 1 2 335 337 342 340 360 362 367 365
218 5 1 2 337 338 343 342 362 363 368 367
219 5 1 2 338 339 344 343 363 364 369 368
220 5 1 2 341 340 345 346 366 365 370 371
221 5 1 2 340 342 347 345 365 367 372 370
222 5 1 2 342 343 348 347 367 368 373 372
223 5 1 2 343 344 349 348 368 369 374 373
224 5 1 2 350 351 352 353 375 376 377 378
225 5 1 2 351 354 355 352 376 379 380 377
226 5 1 2 354 356 357 355 379 381 382 380
227 5 1 2 356 358 359 357 381 383 384 382
228 5 1 2 353 352 360 361 378 377 385 386
229 5 1 2 352 355 362 360 377 380 387 385
230 5 1 2 355 357 363 362 380 382 388 387
231 5 1 2 357 359 364 363 382 384 389 388
232 5 1 2 361 360 365 366 386 385 390 391
233 5 1 2 360 362 367 365 385 387 392 390
234 5 1 2 362 363 368 367 387 388 393 392
235 5 1 2 363 364 369 368 388 389 394 393
236 5 1 2 366 365 370 371 391 390 395 396
237 5 1 2 365 367 372 370 390 392 397 395
238 5 1 2 367 368 373 372 392 393 398 397
239 5 1 2 368 369 374 373 393 394 399 398
240 5 1 2 375 376 377 378 400 401 402 403
241 5 1 2 376 379 380 377 401 404 405 402
242 5 1 2 379 381 382 380 404 406 407 405
243 5 1 2 381 383 384 382 406 408 409 407
244 5 1 2 378 377 385 386 403 402 410 411
245 5 1 2 377 380 387 385 402 405 412 410
246 5 1 2 380 382 388 387 405 407 413 412
247 5 1 2 382 384 389 388 407 409 414 413
248 5 1 2 386 385 390 391 411 410 415 416
249 5 1 2 385 387 392 390 410 412 417 415
250 5 1 2 387 388 393 392 412 413 418 417
251 5 1 2 388 389 394 393 413 414 419 418
252 5 1 2 391 390 395 396 416 415 420 421
253 5 1 2 390 392 397 395 415 417 422 420
254 5 1 2 392 393 398 397 417 418 423 422
255 5 1 2 393 394 399 398 418 419 424 423
256 5 1 2 400 401 402 403 425 426 427 428
257 5 1 2 401 404 405 402 426 429 430 427
258 5 1 2 404 406 407 405 429 431 432 430
259 5 1 2 406 408 409 407 431 433 434 432
260 5 1 2 403 402 410 411 428 427 435 436
261 5 1 2 402 405 412 410 427 430 437 435
262 5 1 2 405 407 413 412 430 432 438 437
263 5 1 2 407 409 414 413 432 434 439 438
264 5 1 2 411 410 415 416 436 435 440 441
265 5 1 2 410 412 417 415 435 437 442 440
266 5 1 2 412 413 418 417 437 438 443 442
267 5 1 2 413 414 419 418 438 439 444 443
268 5 1 2 416 415 420 421 441 440 445 446
269 5 1 2 415 417 422 420 440 442 447 445
270 5 1 2 417 418 423 422 442 443 448 447
271 5 1 2 418 419 424 423 443 444 449 448
272 5 1 2 425 426 427 428 450 451 452 453
273 5 1 2 426 429 430 427 451 454 455 452
274 5 1 2 429 431 432 430 454 456 457 455
275 5 1 2 431 433 434 432 456 458 459 457
276 5 1 2 428 427 435 436 453 452 460 461
277 5 1 2 427 430 437 435 452 455 462 460
278 5 1 2 430 432 438 437 455 457 463 462
279 5 1 2 432 434 439 438 457 459 464 463
280 5 1 2 436 435 440 441 461 460 465 466
281 5 1 2 435 437 442 440 460 462 467 465
282 5 1 2 437 438 443 442 462 463 468 467
283 5 1 2 438 439 444 443 463 464 469 468
284 5 1 2 441 440 445 446 466 465 470 471
285 5 1 2 440 442 447 445 465 467 472 470
286 5 1 2 442 443 448 447 467 468 473 472
287 5 1 2 443 444 449 448 468 469 474 473
288 5 1 2 450 451 452 453 475 476 477 478
289 5 1 2 451 454 455 452 476 479 480 477
290 5 1 2 454 456 457 455 479 481 482 480
291 5 1 2 456 458 459 457 481 483 484 482
292 5 1 2 453 452 460 461 478 477 485 486
293 5 1 2 452 455 462 460 477 480 487 485
294 5 1 2 455 457 463 462 480 482 488 487
295 5 1 2 457 459 464 463 482 484 489 488
296 5 1 2 461 460 465 466 486 485 490 491
297 5 1 2 460 462 467 465 485 487 492 490
298 5 1 2 462 463 468 467 487 488 493 492
299 5 1 2 463 464 469 468 488 489 494 493
300 5 1 2 466 465 470 471 491 490 495 496
301 5 1 2 465 467 472 470 490 492 497 495
302 5 1 2 467 468 473 472 492 493 498 497
303 5 1 2 468 469 474 473 493 494 499 498
304 5 1 2 475 476 477 478 500 501 502 503
305 5 1 2 476 479 480 477 501 504 505 502
306 5 1 2 479 481 482 480 504 506 507 505
307 5 1 2 481 483 484 482 506 508 509 507
308 5 1 2 478 477 485 486 503 502 510 511
309 5 1 2 477 480 487 485 502 505 512 510
310 5 1 2 480 482 488 487 505 507 513 512
311 5 1 2 482 484 489 488 507 509 514 513
312 5 1 2 486 485 490 491 511 510 515 516
313 5 1 2 485 487 492 490 510 512 517 515
314 5 1 2 487 488 493 492 512 513 518 517
315 5 1 2 488 489 494 493 513 514 519 518
316 5 1 2 491 490 495 496 516 515 520 521
317 5 1 2 490 492 497 495 515 517 522 520
318 5 1 2 492 493 498 497 517 518 523 522
319 5 1 2 493 494 499 498 518 519 524 523
320 5 1 2 500 501 502 503 525 526 527 528
321 5 1 2 501 504 505 502 526 529 530 527
322 5 1 2 504 506 507 505 529 531 532 530
323 5 1 2 506 508 509 507 531 533 534 532
324 5 1 2 503 502 510 511 528 527 535 536
325 5 1 2 502 505 512 510 527 530 537 535
326 5 1 2 505 507 513 512 530 532 538 537
327 5 1 2 507 509 514 513 532 534 539 538
328 5 1 2 511 510 515 516 536 535 540 541
329 5 1 2 510 512 517 515 535 537 542 540
330 5 1 2 512 513 518 517 537 538 543 542
331 5 1 2 513 514 519 518 538 539 544 543
332 5 1 2 516 515 520 521 541 540 545 546
333 5 1 2 515 517 522 520 540 542 547 545
334 5 1 2 517 518 523 522 542 543 548 547
335 5 1 2 518 519 524 523 543 544 549 548
336 5 1 2 525 526 527 528 550 551 552 553
337 5 1 2 526 529 530 527 551 554 555 552
338 5 1 2 529 531 532 530 554 556 557 555
339 5 1 2 531 533 534 532 556 558 559 557
340 5 1 2 528 527 535 536 553 552 560 561
341 5 1 2 527 530 537 535 552 555 562 560
342 5 1 2 530 532 538 537 555 557 563 562
343 5 1 2 532 534 539 538 557 559 564 563
344 5 1 2 536 535 540 541 561 560 565 566
345 5 1 2 535 537 542 540 560 562 567 565
346 5 1 2 537 538 543 542 562 563 568 567
347 5 1 2 538 539 544 543 563 564 569 568
348 5 1 2 541 540 545 546 566 565 570 571
349 5 1 2 540 542 547 545 565 567 572 570
350 5 1 2 542 543 548 547 567 568 573 572
351 5 1 2 543 544 549 548 568 569 574 573
352 5 1 2 550 551 552 553 575 576 577 578
353 5 1 2 551 554 555 552 576 579 580 577
354 5 1 2 554 556 557 555 579 581 582 580
355 5 1 2 556 558 559 557 581 583 584 582
356 5 1 2 553 552 560 561 578 577 585 586
357 5 1 2 552 555 562 560 577 580 587 585
358 5 1 2 555 557 563 562 580 582 588 587
359 5 1 2 557 559 564 563 582 584 589 588
360 5 1 2 561 560 565 566 586 585 590 591
361 5 1 2 560 562 567 565 585 587 592 590
362 5 1 2 562 563 568 567 587 588 593 592
363 5 1 2 563 564 569 568 588 589 594 593
364 5 1 2 566 565 570 571 591 590 595 596
365 5 1 2 565 567 572 570 590 592 597 595
366 5 1 2 567 568 573 572 592 593 598 597
367 5 1 2 568 569 574 573 593 594 599 598
368 5 1 2 575 576 577 578 600 601 602 603
369 5 1 2 576 579 580 577 601 604 605 602
370 5 1 2 579 581 582 580 604 606 607 605
371 5 1 2 581 583 584 582 606 608 609 607
372 5 1 2 578 577 585 586 603 602 610 611
373 5 1 2 577 580 587 585 602 605 612 610
374 5 1 2 580 582 588 587 605 607 613 612
375 5 1 2 582 584 589 588 607 609 614 613
376 5 1 2 586 585 590 591 611 610 615 616
377 5 1 2 585 587 592 590 610 612 617 615
378 5 1 2 587 588 593 592 612 613 618 617
379 5 1 2 588 589 594 593 613 614 619 618
380 5 1 2 591 590 595 596 616 615 620 621
381 5 1 2 590 592 597 595 615 617 622 620
382 5 1 2 592 593 598 597 617 618 623 622
383 5 1 2 593 594 599 598 618 619 624 623
384 5 1 2 600 601 602 603 625 626 627 628
385 5 1 2 601 604 605 602 626 629 630 627
386 5 1 2 604 606 607 605 629 631 632 630
387 5 1 2 606 608 609 607 631 633 634 632
388 5 1 2 603 602 610 611 628 627 635 636
389 5 1 2 602 605 612 610 627 630 637 635
390 5 1 2 605 607 613 612 630 632 638 637
391 5 1 2 607 609 614 613 632 634 639 638
392 5 1 2 611 610 615 616 636 635 640 641
393 5 1 2 610 612 617 615 635 637 642 640
394 5 1 2 612 613 618 617 637 638 643 642
395 5 1 2 613 614 619 618 638 639 644 643
396 5 1 2 616 615 620 621 641 640 645 646
397 5 1 2 615 617 622 620 640 642 647 645
398 5 1 2 617 618 623 622 642 643 648 647
399 5 1 2 618 619 624 623 643 644 649 648
400 5 1 2 625 626 627 628 650 651 652 653
401 5 1 2 626 629 630 627 651 654 655 652
402 5 1 2 629 631 632 630 654 656 657 655
403 5 1 2 631 633 634 632 656 658 659 657
404 5 1 2 628 627 635 636 653 652 660 661
405 5 1 2 627 630 637 635 652 655 662 660
406 5 1 2 630 632 638 637 655 657 663 662
407 5 1 2 632 634 639 638 657 659 664 663
408 5 1 2 636 635 640 641 661 660 665 666
409 5 1 2 635 637 642 640 660 662 667 665
410 5 1 2 637 638 643 642 662 663 668 667
411 5 1 2 638 639 644 643 663 664 669 668
412 5 1 2 641 640 645 646 666 665 670 671
413 5 1 2 640 642 647 645 665 667 672 670
414 5 1 2 642 643 648 647 667 668 673 672
415 5 1 2 643 644 649 648 668 669 674 673
416 5 1 2 650 651 652 653 675 676 677 678
417 5 1 2 651 654 655 652 676 679 680 677
418 5 1 2 654 656 657 655 679 681 682 680
419 5 1 2 656 658 659 657 681 683 684 682
420 5 1 2 653 652 660 661 678 677 685 686
421 5 1 2 652 655 662 660 677 680 687 685
422 5 1 2 655 657 663 662 680 682 688 687
423 5 1 2 657 659 664 663 682 684 689 688
424 5 1 2 661 660 665 666 686 685 690 691
425 5 1 2 660 662 667 665 685 687 692 690
426 5 1 2 662 663 668 667 687 688 693 692
427 5 1 2 663 664 669 668 688 689 694 693
428 5 1 2 666 665 670 671 691 690 695 696
429 5 1 2 665 667 672 670 690 692 697 695
430 5 1 2 667 668 673 672 692 693 698 697
431 5 1 2 668 669 674 673 693 694 699 698
432 5 1 2 675 676 677 678 700 701 702 703
433 5 1 2 676 679 680 677 701 704 705 702
434 5 1 2 679 681 682 680 704 706 707 705
435 5 1 2 681 683 684 682 706 708 709 707
436 5 1 2 678 677 685 686 703 702 710 711
437 5 1 2 677 680 687 685 702 705 712 710
438 5 1 2 680 682 688 687 705 707 713 712
439 5 1 2 682 684 689 688 707 709 714 713
440 5 1 2 686 685 690 691 711 710 715 716
441 5 1 2 685 687 692 690 710 712 717 715
442 5 1 2 687 688 693 692 712 713 718 717
443 5 1 2 688 689 694 693 713 714 719 718
444 5 1 2 691 690 695 696 716 715 720 721
445 5 1 2 690 692 697 695 715 717 722 720
446 5 1 2 692 693 698 697 717 718 723 722
447 5 1 2 693 694 699 698 718 719 724 723
448 5 1 2 700 701 702 703 725 726 727 728
449 5 1 2 701 704 705 702 726 729 730 727
450 5 1 2 704 706 707 705 729 731 732 730
451 5 1 2 706 708 709 707 731 733 734 732
452 5 1 2 703 702 710 711 728 727 735 736
453 5 1 2 702 705 712 710 727 730 737 735
454 5 1 2 705 707 713 712 730 732 738 737
455 5 1 2 707 709 714 713 732 734 739 738
456 5 1 2 711 710 715 716 736 735 740 741
457 5 1 2 710 712 717 715 735 737 742 740
458 5 1 2 712 713 718 717 737 738 743 742
459 5 1 2 713 714 719 718 738 739 744 743
460 5 1 2 716 715 720 721 741 740 745 746
461 5 1 2 715 717 722 720 740 742 747 745
462 5 1 2 717 718 723 722 742 743 748 747
463 5 1 2 718 719 724 723 743 744 749 748
464 5 1 2 725 726 727 728 750 751 752 753
465 5 1 2 726 729 730 727 751 754 755 752
466 5 1 2 729 731 732 730 754 756 757 755
467 5 1 2 731 733 734 732 756 758 759 757
468 5 1 2 728 727 735 736 753 752 760 761
469 5 1 2 727 730 737 735 752 755 762 760
470 5 1 2 730 732 738 737 755 757 763 762
471 5 1 2 732 734 739 738 757 759 764 763
472 5 1 2 736 735 740 741 761 760 765 766
473 5 1 2 735 737 742 740 760 762 767 765
474 5 1 2 737 738 743 742 762 763 768 767
475 5 1 2 738 739 744 743 763 764 769 768
476 5 1 2 741 740 745 746 766 765 770 771
477 5 1 2 740 742 747 745 765 767 772 770
478 5 1 2 742 743 748 747 767 768 773 772
479 5 1 2 743 744 749 748 768 769 774 773
480 5 1 2 750 751 752 753 775 776 777 778
481 5 1 2 751 754 755 752 776 779 780 777
482 5 1 2 754 756 757 755 779 781 782 780
483 5 1 2 756 758 759 757 781 783 784 782
484 5 1 2 753 752 760 761 778 777 785 786
485 5 1 2 752 755 762 760 777 780 787 785
486 5 1 2 755 757 763 762 780 782 788 787
487 5 1 2 757 759 764 763 782 784 789 788
488 5 1 2 761 760 765 766 786 785 790 791
489 5 1 2 760 762 767 765 785 787 792 790
490 5 1 2 762 763 768 767 787 788 793 792
491 5 1 2 763 764 769 768 788 789 794 793
492 5 1 2 766 765 770 771 791 790 795 796
493 5 1 2 765 767 772 770 790 792 797 795
494 5 1 2 767 768 773 772 792 793 798 797
495 5 1 2 768 769 774 773 793 794 799 798
496 5 1 2 775 776 777 778 800 801 802 803
497 5 1 2 776 779 780 777 801 804 805 802
498 5 1 2 779 781 782 780 804 806 807 805
499 5 1 2 781 783 784 782 806 808 809 807
500 5 1 2 778 777 785 786 803 802 810 811
501 5 1 2 777 780 787 785 802 805 812 810
502 5 1 2 780 782 788 787 805 807 813 812
503 5 1 2 782 784 789 788 807 809 814 813
504 5 1 2 786 785 790 791 811 810 815 816
505 5 1 2 785 787 792 790 810 812 817 815
506 5 1 2 787 788 793 792 812 813 818 817
507 5 1 2 788 789 794 793 813 814 819 818
508 5 1 2 791 790 795 796 816 815 820 821
509 5 1 2 790 792 797 795 815 817 822 820
510 5 1 2 792 793 798 797 817 818 823 822
511 5 1 2 793 794 799 798 818 819 824 823
512 5 1 2 800 801 802 803 825 826 827 828
513 5 1 2 801 804 805 802 826 829 830 827
514 5 1 2 804 806 807 805 829 831 832 830
515 5 1 2 806 808 809 807 831 833 834 832
516 5 1 2 803 802 810 811 828 827 835 836
517 5 1 2 802 805 812 810 827 830 837 835
518 5 1 2 805 807 813 812 830 832 838 837
519 5 1 2 807 809 814 813 832 834 839 838
520 5 1 2 811 810 815 816 836 835 840 841
521 5 1 2 810 812 817 815 835 837 842 840
522 5 1 2 812 813 818 817 837 838 843 842
523 5 1 2 813 814 819 818 838 839 844 843
524 5 1 2 816 815 820 821 841 840 845 846
525 5 1 2 815 817 822 820 840 842 847 845
526 5 1 2 817 818 823 822 842 843 848 847
527 5 1 2 818 819 824 823 843 844 849 848
528 5 1 2 825 826 827 828 850 851 852 853
529 5 1 2 826 829 830 827 851 854 855 852
530 5 1 2 829 831 832 830 854 856 857 855
531 5 1 2 831 833 834 832 856 858 859 857
532 5 1 2 828 827 835 836 853 852 860 861
533 5 1 2 827 830 837 835 852 855 862 860
534 5 1 2 830 832 838 837 855 857 863 862
535 5 1 2 832 834 839 838 857 859 864 863
536 5 1 2 836 835 840 841 861 860 865 866
537 5 1 2 835 837 842 840 860 862 867 865
538 5 1 2 837 838 843 842 862 863 868 867
539 5 1 2 838 839 844 843 863 864 869 868
540 5 1 2 841 840 845 846 866 865 870 871
541 5 1 2 840 842 847 845 865 867 872 870
542 5 1 2 842 843 848 847 867 868 873 872
543 5 1 2 843 844 849 848 868 869 874 873
544 5 1 2 850 851 852 853 875 876 877 878
545 5 1 2 851 854 855 852 876 879 880 877
546 5 1 2 854 856 857 855 879 881 882 880
547 5 1 2 856 858 859 857 881 883 884 882
548 5 1 2 853 852 860 861 878 877 885 886
549 5 1 2 852 855 862 860 877 880 887 885
550 5 1 2 855 857 863 862 880 882 888 887
551 5 1 2 857 859 864 863 882 884 889 888
552 5 1 2 861 860 865 866 886 885 890 891
553 5 1 2 860 862 867 865 885 887 892 890
554 5 1 2 862 863 868 867 887 888 893 892
555 5 1 2 863 864 869 868 888 889 894 893
556 5 1 2 866 865 870 871 891 890 895 896
557 5 1 2 865 867 872 870 890 892 897 895
558 5 1 2 867 868 873 872 892 893 898 897
559 5 1 2 868 869 874 873 893 894 899 898
560 5 1 2 875 876 877 878 900 901 902 903
561 5 1 2 876 879 880 877 901 904 905 902
562 5 1 2 879 881 882 880 904 906 907 905
563 5 1 2 881 883 884 882 906 908 909 907
564 5 1 2 878 877 885 886 903 902 910 911
565 5 1 2 877 880 887 885 902 905 912 910
566 5 1 2 880 882 888 887 905 907 913 912
567 5 1 2 882 884 889 888 907 909 914 913
568 5 1 2 886 885 890 891 911 910 915 916
569 5 1 2 885 887 892 890 910 912 917 915
570 5 1 2 887 888 893 892 912 913 918 917
571 5 1 2 888 889 894 893 913 914 919 918
572 5 1 2 891 890 895 896 916 915 920 921
573 5 1 2 890 892 897 895 915 917 922 920
574 5 1 2 892 893 898 897 917 918 923 922
575 5 1 2 893 894 899 898 918 919 924 923
576 5 1 2 900 901 902 903 925 926 927 928
577 5 1 2 901 904 905 902 926 929 930 927
578 5 1 2 904 906 907 905 929 931 932 930
579 5 1 2 906 908 909 907 931 933 934 932
580 5 1 2 903 902 910 911 928 927 935 936
581 5 1 2 902 905 912 910 927 930 937 935
582 5 1 2 905 907 913 912 930 932 938 937
583 5 1 2 907 909 914 913 932 934 939 938
584 5 1 2 911 910 915 916 936 935 940 941
585 5 1 2 910 912 917 915 935 937 942 940
586 5 1 2 912 913 918 917 937 938 943 942
587 5 1 2 913 914 919 918 938 939 944 943
588 5 1 2 916 915 920 921 941 940 945 946
589 5 1 2 915 917 922 920 940 942 947 945
590 5 1 2 917 918 923 922 942 943 948 947
591 5 1 2 918 919 924 923 943 944 949 948
592 5 1 2 925 926 927 928 950 951 952 953
593 5 1 2 926 929 930 927 951 954 955 952
594 5 1 2 929 931 932 930 954 956 957 955
595 5 1 2 931 933 934 932 956 958 959 957
596 5 1 2 928 927 935 936 953 952 960 961
597 5 1 2 927 930 937 935 952 955 962 960
598 5 1 2 930 932 938 937 955 957 963 962
599 5 1 2 932 934 939 938 957 959 964 963
600 5 1 2 936 935 940 941 961 960 965 966
601 5 1 2 935 937 942 940 960 962 967 965
602 5 1 2 937 938 943 942 962 963 968 967
603 5 1 2 938 939 944 943 963 964 969 968
604 5 1 2 941 940 945 946 966 965 970 971
605 5 1 2 940 942 947 945 965 967 972 970
606 5 1 2 942 943 948 947 967 968 973 972
607 5 1 2 943 944 949 948 968 969 974 973
608 5 1 2 950 951 952 953 975 976 977 978
609 5 1 2 951 954 955 952 976 979 980 977
610 5 1 2 954 956 957 955 979 981 982 980
611 5 1 2 956 958 959 957 981 983 984 982
612 5 1 2 953 952 960 961 978 977 985 986
613 5 1 2 952 955 962 960 977 980 987 985
614 5 1 2 955 957 963 962 980 982 988 987
615 5 1 2 957 959 964 963 982 984 989 988
616 5 1 2 961 960 965 966 986 985 990 991
617 5 1 2 960 962 967 965 985 987 992 990
618 5 1 2 962 963 968 967 987 988 993 992
619 5 1 2 963 964 969 968 988 989 994 993
620 5 1 2 966 965 970 971 991 990 995 996
621 5 1 2 965 967 972 970 990 992 997 995
622 5 1 2 967 968 973 972 992 993 998 997
623 5 1 2 968 969 974 973 993 994 999 998
624 5 1 2 975 976 977 978 1000 1001 1002 1003
625 5 1 2 976 979 980 977 1001 1004 1005 1002
626 5 1 2 979 981 982 980 1004 1006 1007 1005
627 5 1 2 981 983 984 982 1006 1008 1009 1007
628 5 1 2 978 977 985 986 1003 1002 1010 1011
629 5 1 2 977 980 987 985 1002 1005 1012 1010
630 5 1 2 980 982 988 987 1005 1007 1013 1012
631 5 1 2 982 984 989 988 1007 1009 1014 1013
632 5 1 2 986 985 990 991 1011 1010 1015 1016
633 5 1 2 985 987 992 990 1010 1012 1017 1015
634 5 1 2 987 988 993 992 1012 1013 1018 1017
635 5 1 2 988 989 994 993 1013 1014 1019 1018
636 5 1 2 991 990 995 996 1016 1015 1020 1021
637 5 1 2 990 992 997 995 1015 1017 1022 1020
638 5 1 2 992 993 998 997 1017 1018 1023 1022
639 5 1 2 993 994 999 998 1018 1019 1024 1023
640 5 1 2 1000 1001 1002 1003 1025 1026 1027 1028
641 5 1 2 1001 1004 1005 1002 1026 1029 1030 1027
642 5 1 2 1004 1006 1007 1005 1029 1031 1032 1030
643 5 1 2 1006 1008 1009 1007 1031 1033 1034 1032
644 5 1 2 1003 1002 1010 1011 1028 1027 1035 1036
645 5 1 2 1002 1005 1012 1010 1027 1030 1037 1035
646 5 1 2 1005 1007 1013 1012 1030 1032 1038 1037
647 5 1 2 1007 1009 1014 1013 1032 1034 1039 1038
648 5 1 2 1011 1010 1015 1016 1036 1035 1040 1041
649 5 1 2 1010 1012 1017 1015 1035 1037 1042 1040
650 5 1 2 1012 1013 1018 1017 1037 1038 1043 1042
651 5 1 2 1013 1014 1019 1018 1038 1039 1044 1043
652 5 1 2 1016 1015 1020 1021 1041 1040 1045 1046
653 5 1 2 1015 1017 1022 1020 1040 1042 1047 1045
654 5 1 2 1017 1018 1023 1022 1042 1043 1048 1047
655 5 1 2 1018 1019 1024 1023 1043 1044 1049 1048
656 5 1 2 1025 1026 1027 1028 1050 1051 1052 1053
657 5 1 2 1026 1029 1030 1027 1051 1054 1055 1052
658 5 1 2 1029 1031 1032 1030 1054 1056 1057 1055
659 5 1 2 1031 1033 1034 1032 1056 1058 1059 1057
660 5 1 2 1028 1027 1035 1036 1053 1052 1060 1061
661 5 1 2 1027 1030 1037 1035 1052 1055 1062 1060
662 5 1 2 1030 1032 1038 1037 1055 1057 1063 1062
663 5 1 2 1032 1034 1039 1038 1057 1059 1064 1063
664 5 1 2 1036 1035 1040 1041 1061 1060 1065 1066
665 5 1 2 1035 1037 1042 1040 1060 1062 1067 1065
666 5 1 2 1037 1038 1043 1042 1062 1063 1068 1067
667 5 1 2 1038 1039 1044 1043 1063 1064 1069 1068
668 5 1 2 1041 1040 1045 1046 1066 1065 1070 1071
669 5 1 2 1040 1042 1047 1045 1065 1067 1072 1070
670 5 1 2 1042 1043 1048 1047 1067 1068 1073 1072
671 5 1 2 1043 1044 1049 1048 1068 1069 1074 1073
672 5 1 2 1050 1051 1052 1053 1075 1076 1077 1078
673 5 1 2 1051 1054 1055 1052 1076 1079 1080 1077
674 5 1 2 1054 1056 1057 1055 1079 1081 1082 1080
675 5 1 2 1056 1058 1059 1057 1081 1083 1084 1082
676 5 1 2 1053 1052 1060 1061 1078 1077 1085 1086
677 5 1 2 1052 1055 1062 1060 1077 1080 1087 1085
678 5 1 2 1055 1057 1063 1062 1080 1082 1088 1087
679 5 1 2 1057 1059 1064 1063 1082 1084 1089 1088
680 5 1 2 1061 1060 1065 1066 1086 1085 1090 1091
681 5 1 2 1060 1062 1067 1065 1085 1087 1092 1090
682 5 1 2 1062 1063 1068 1067 1087 1088 1093 1092
683 5 1 2 1063 1064 1069 1068 1088 1089 1094 1093
684 5 1 2 1066 1065 1070 1071 1091 1090 1095 1096
685 5 1 2 1065 1067 1072 1070 1090 1092 1097 1095
686 5 1 2 1067 1068 1073 1072 1092 1093 1098 1097
687 5 1 2 1068 1069 1074 1073 1093 1094 1099 1098
688 5 1 2 1075 1076 1077 1078 1100 1101 1102 1103
689 5 1 2 1076 1079 1080 1077 1101 1104 1105 1102
690 5 1 2 1079 1081 1082 1080 1104 1106 1107 1105
691 5 1 2 1081 1083 1084 1082 1106 1108 1109 1107
692 5 1 2 1078 1077 1085 1086 1103 1102 1110 1111
693 5 1 2 1077 1080 1087 1085 1102 1105 1112 1110
694 5 1 2 1080 1082 1088 1087 1105 1107 1113 1112
695 5 1 2 1082 1084 1089 1088 1107 1109 1114 1113
696 5 1 2 1086 1085 1090 1091 1111 1110 1115 1116
697 5 1 2 1085 1087 1092 1090 1110 1112 1117 1115
698 5 1 2 1087 1088 1093 1092 1112 1113 1118 1117
699 5 1 2 1088 1089 1094 1093 1113 1114 1119 1118
700 5 1 2 1091 1090 1095 1096 1116 1115 1120 1121
701 5 1 2 1090 1092 1097 1095 1115 1117 1122 1120
702 5 1 2 1092 1093 1098 1097 1117 1118 1123 1122
703 5 1 2 1093 1094 1099 1098 1118 1119 1124 1123
704 5 1 2 1100 1101 1102 1103 1125 1126 1127 1128
705 5 1 2 1101 1104 1105 1102 1126 1129 1130 1127
706 5 1 2 1104 1106 1107 1105 1129 1131 1132 1130
707 5 1 2 1106 1108 1109 1107 1131 1133 1134 1132
708 5 1 2 1103 1102 1110 1111 1128 1127 1135 1136
709 5 1 2 1102 1105 1112 1110 1127 1130 1137 1135
710 5 1 2 1105 1107 1113 1112 1130 1132 1138 1137
711 5 1 2 1107 1109 1114 1113 1132 1134 1139 1138
712 5 1 2 1111 1110 1115 1116 1136 1135 1140 1141
713 5 1 2 1110 1112 1117 1115 1135 1137 1142 1140
714 5 1 2 1112 1113 1118 1117 1137 1138 1143 1142
715 5 1 2 1113 1114 1119 1118 1138 1139 1144 1143
716 5 1 2 1116 1115 1120 1121 1141 1140 1145 1146
717 5 1 2 1115 1117 1122 1120 1140 1142 1147 1145
718 5 1 2 1117 1118 1123 1122 1142 1143 1148 1147
719 5 1 2 1118 1119 1124 1123 1143 1144 1149 1148
720 5 1 2 1125 1126 1127 1128 1150 1151 1152 1153
721 5 1 2 1126 1129 1130 1127 1151 1154 1155 1152
722 5 1 2 1129 1131 1132 1130 1154 1156 1157 1155
723 5 1 2 1131 1133 1134 1132 1156 1158 1159 1157
724 5 1 2 1128 1127 1135 1136 1153 1152 1160 1161
725 5 1 2 1127 1130 1137 1135 1152 1155 1162 1160
726 5 1 2 1130 1132 1138 1137 1155 1157 1163 1162
727 5 1 2 1132 1134 1139 1138 1157 1159 1164 1163
728 5 1 2 1136 1135 1140 1141 1161 1160 1165 1166
729 5 1 2 1135 1137 1142 1140 1160 1162 1167 1165
730 5 1 2 1137 1138 1143 1142 1162 1163 1168 1167
731 5 1 2 1138 1139 1144 1143 1163 1164 1169 1168
732 5 1 2 1141 1140 1145 1146 1166 1165 1170 1171
733 5 1 2 1140 1142 1147 1145 1165 1167 1172 1170
734 5 1 2 1142 1143 1148 1147 1167 1168 1173 1172
735 5 1 2 1143 1144 1149 1148 1168 1169 1174 1173
736 5 1 2 1150 1151 1152 1153 1175 1176 1177 1178
737 5 1 2 1151 1154 1155 1152 1176 1179 1180 1177
738 5 1 2 1154 1156 1157 1155 1179 1181 1182 1180
739 5 1 2 1156 1158 1159 1157 1181 1183 1184 1182
740 5 1 2 1153 1152 1160 1161 1178 1177 1185 1186
741 5 1 2 1152 1155 1162 1160 1177 1180 1187 1185
742 5 1 2 1155 1157 1163 1162 1180 1182 1188 1187
743 5 1 2 1157 1159 1164 1163 1182 1184 1189 1188
744 5 1 2 1161 1160 1165 1166 1186 1185 1190 1191
745 5 1 2 1160 1162 1167 1165 1185 1187 1192 1190
746 5 1 2 1162 1163 1168 1167 1187 1188 1193 1192
747 5 1 2 1163 1164 1169 1168 1188 1189 1194 1193
748 5 1 2 1166 1165 1170 1171 1191 1190 1195 1196
749 5 1 2 1165 1167 1172 1170 1190 1192 1197 1195
750 5 1 2 1167 1168 1173 1172 1192 1193 1198 1197
751 5 1 2 1168 1169 1174 1173 1193 1194 1199 1198
752 5 1 2 1175 1176 1177 1178 1200 1201 1202 1203
753 5 1 2 1176 1179 1180 1177 1201 1204 1205 1202
754 5 1 2 1179 1181 1182 1180 1204 1206 1207 1205
755 5 1 2 1181 1183 1184 1182 1206 1208 1209 1207
756 5 1 2 1178 1177 1185 1186 1203 1202 1210 1211
757 5 1 2 1177 1180 1187 1185 1202 1205 1212 1210
758 5 1 2 1180 1182 1188 1187 1205 1207 1213 1212
759 5 1 2 1182 1184 1189 1188 1207 1209 1214 1213
760 5 1 2 1186 1185 1190 1191 1211 1210 1215 1216
761 5 1 2 1185 1187 1192 1190 1210 1212 1217 1215
762 5 1 2 1187 1188 1193 1192 1212 1213 1218 1217
763 5 1 2 1188 1189 1194 1193 1213 1214 1219 1218
764 5 1 2 1191 1190 1195 1196 1216 1215 1220 1221
765 5 1 2 1190 1192 1197 1195 1215 1217 1222 1220
766 5 1 2 1192 1193 1198 1197 1217 1218 1223 1222
767 5 1 2 1193 1194 1199 1198 1218 1219 1224 1223
768 5 1 2 1200 1201 1202 1203 1225 1226 1227 1228
769 5 1 2 1201 1204 1205 1202 1226 1229 1230 1227
770 5 1 2 1204 1206 1207 1205 1229 1231 1232 1230
771 5 1 2 1206 1208 1209 1207 1231 1233 1234 1232
772 5 1 2 1203 1202 1210 1211 1228 1227 1235 1236
773 5 1 2 1202 1205 1212 1210 1227 1230 1237 1235
774 5 1 2 1205 1207 1213 1212 1230 1232 1238 1237
775 5 1 2 1207 1209 1214 1213 1232 1234 1239 1238
776 5 1 2 1211 1210 1215 1216 1236 1235 1240 1241
777 5 1 2 1210 1212 1217 1215 1235 1237 1242 1240
778 5 1 2 1212 1213 1218 1217 1237 1238 1243 1242
779 5 1 2 1213 1214 1219 1218 1238 1239 1244 1243
780 5 1 2 1216 1215 1220 1221 1241 1240 1245 1246
781 5 1 2 1215 1217 1222 1220 1240 1242 1247 1245
782 5 1 2 1217 1218 1223 1222 1242 1243 1248 1247
783 5 1 2 1218 1219 1224 1223 1243 1244 1249 1248
784 5 1 2 1225 1226 1227 1228 1250 1251 1252 1253
785 5 1 2 1226 1229 1230 1227 1251 1254 1255 1252
786 5 1 2 1229 1231 1232 1230 1254 1256 1257 1255
787 5 1 2 1231 1233 1234 1232 1256 1258 1259 1257
788 5 1 2 1228 1227 1235 1236 1253 1252 1260 1261
789 5 1 2 1227 1230 1237 1235 1252 1255 1262 1260
790 5 1 2 1230 1232 1238 1237 1255 1257 1263 1262
791 5 1 2 1232 1234 1239 1238 1257 1259 1264 1263
792 5 1 2 1236 1235 1240 1241 1261 1260 1265 1266
793 5 1 2 1235 1237 1242 1240 1260 1262 1267 1265
794 5 1 2 1237 1238 1243 1242 1262 1263 1268 1267
795 5 1 2 1238 1239 1244 1243 1263 1264 1269 1268
796 5 1 2 1241 1240 1245 1246 1266 1265 1270 1271
797 5 1 2 1240 1242 1247 1245 1265 1267 1272 1270
798 5 1 2 1242 1243 1248 1247 1267 1268 1273 1272
799 5 1 2 1243 1244 1249 1248 1268 1269 1274 1273
$EndElements
