$MeshFormat
2.2 0 8
$EndMeshFormat
$Nodes
242
0 0 0 50
1 100 0 50
2 100 100 50
3 0 100 50
4 10 0 50
5 20 0 50
6 30 0 50
7 40 0 50
8 50 0 50
9 60 0 50
10 70 0 50
11 80 0 50
12 90 0 50
13 100 10 50
14 100 20 50
15 100 30 50
16 100 40 50
17 100 50 50
18 100 60 50
19 100 70 50
20 100 80 50
21 100 90 50
22 90 100 50
23 80 100 50
24 70 100 50
25 60 100 50
26 50 100 50
27 40 100 50
28 30 100 50
29 20 100 50
30 10 100 50
31 0 90 50
32 0 80 50
33 0 70 50
34 0 60 50
35 0 50 50
36 0 40 50
37 0 30 50
38 0 20 50
39 0 10 50
40 9.99623353955619 50.0016288900706 50
41 59.9995763492506 10.0050021349127 50
42 90.0232683160956 50.0034538559758 50
43 29.9639059287021 90.0047389444154 50
44 39.9997044558029 10.0047667807073 50
45 59.9526072838453 90.0164093204068 50
46 90.0270998854336 70.0034279056004 50
47 9.99968620530169 30.0011254772561 50
48 89.9997178346935 20.0000615866999 50
49 90.0005102824952 90.0004754000377 50
50 9.99278071702009 80.000561499676 50
51 19.9999779826073 10.0005008727329 50
52 79.9999208291859 10.0004631428937 50
53 90.000304191085 30.0005133899488 50
54 69.9819169060522 90.0104387828001 50
55 39.9351475691615 90.0132623465839 50
56 9.99570033488771 90.0002681418031 50
57 9.99031229004166 70.0015255716074 50
58 9.99999558025756 10.0001005445333 50
59 89.9999548278775 10.0000657073874 50
60 59.9770600155371 80.0727808264272 50
61 29.9306593899191 80.0239488035724 50
62 9.9916063123904 60.002312596127 50
63 19.9697830995036 80.0067392943405 50
64 29.9998745501627 10.0026092853177 50
65 69.999725174655 10.0027549868481 50
66 90.0081778247114 40.0023010620583 50
67 19.9833292138155 90.0032210236972 50
68 79.9977049519517 20.0029438640731 50
69 90.0370061516635 60.0049353154914 50
70 90.0112952116677 80.0022107063795 50
71 19.9994009496715 20.0044661469767 50
72 79.9981888575803 90.0042278620198 50
73 9.99838654957473 40.0019024640359 50
74 9.99984644963489 20.0010169355279 50
75 49.9994118078299 10.0077744918866 50
76 49.9337541995925 90.0224763091754 50
77 59.98777853529 20.0381078700147 50
78 19.9867987742931 50.0237843021633 50
79 29.937299624698 70.0608661149495 50
80 80.0893093217141 60.0340547214212 50
81 80.0240648824407 80.0134727196361 50
82 39.9061870368229 80.0649208133425 50
83 79.9921128789413 30.0094161900222 50
84 39.9933497259105 20.0383129210962 50
85 29.9967339390294 20.0204638164822 50
86 70.0287010243107 80.0429356321849 50
87 69.9908591583316 20.018814468317 50
88 19.9971236154149 30.0150652788758 50
89 19.9676085260785 70.0170594295859 50
90 80.000496717719 40.0220498203038 50
91 49.9395275267747 80.0918768483587 50
92 50.0382623279991 70.2148806176309 50
93 29.9658182137676 60.0986480461768 50
94 39.9701621579384 30.1296249208152 50
95 60.1030871091928 70.1690778958344 50
96 69.9680879775615 30.0501006940937 50
97 39.9730232493769 70.158170890543 50
98 29.987456582849 30.0629935248947 50
99 80.0418415821497 50.0365338319133 50
100 80.0732030894842 70.0298048179068 50
101 19.9771491655566 60.0298577961517 50
102 19.9928246560516 40.0276458617221 50
103 49.9857042992163 20.0566181081832 50
104 50.0616547193788 60.3224592626532 50
105 29.9787797032288 50.1190962956557 50
106 49.9464366862579 30.1671714869068 50
107 70.1079276341955 60.120186777145 50
108 69.9608079006023 40.0937090855127 50
109 39.9878570422063 60.2272178482409 50
110 39.950783664059 40.2328956030738 50
111 70.0875671625679 70.0891837787293 50
112 59.9459630283711 30.1233901541423 50
113 29.9806764558797 40.1045308668028 50
114 49.9191634919736 40.2863876263913 50
115 49.9687085007822 50.321445476777 50
116 70.0163740171658 50.1279752665583 50
117 59.9324933855015 40.1925791636585 50
118 39.9758591074846 50.2307356684339 50
119 60.0711095479474 60.2257160584781 50
120 59.9864447485164 50.2301259380245 50
121 80 100 50
122 79.9981888575803 90.0042278620198 50
123 90.0005102824952 90.0004754000377 50
124 90 100 50
125 90.000304191085 30.0005133899488 50
126 89.9997178346935 20.0000615866999 50
127 100 20 50
128 100 30 50
129 10 0 50
130 9.99999558025756 10.0001005445333 50
131 0 10 50
132 0 0 50
133 59.9770600155371 80.0727808264272 50
134 59.9526072838453 90.0164093204068 50
135 49.9337541995925 90.0224763091754 50
136 49.9395275267747 80.0918768483587 50
137 19.9999779826073 10.0005008727329 50
138 19.9994009496715 20.0044661469767 50
139 9.99984644963489 20.0010169355279 50
140 39.9351475691615 90.0132623465839 50
141 39.9061870368229 80.0649208133425 50
142 100 80 50
143 90.0112952116677 80.0022107063795 50
144 90.0270998854336 70.0034279056004 50
145 100 70 50
146 100 90 50
147 80.0240648824407 80.0134727196361 50
148 69.9819169060522 90.0104387828001 50
149 70.0287010243107 80.0429356321849 50
150 100 100 50
151 89.9999548278775 10.0000657073874 50
152 79.9977049519517 20.0029438640731 50
153 79.9999208291859 10.0004631428937 50
154 70 100 50
155 60 100 50
156 50 100 50
157 0 20 50
158 9.99031229004166 70.0015255716074 50
159 9.99278071702009 80.000561499676 50
160 0 80 50
161 0 70 50
162 30 100 50
163 20 100 50
164 19.9833292138155 90.0032210236972 50
165 29.9639059287021 90.0047389444154 50
166 10 100 50
167 9.99570033488771 90.0002681418031 50
168 0 90 50
169 0 100 50
170 69.999725174655 10.0027549868481 50
171 69.9908591583316 20.018814468317 50
172 59.98777853529 20.0381078700147 50
173 59.9995763492506 10.0050021349127 50
174 20 0 50
175 30 0 50
176 29.9998745501627 10.0026092853177 50
177 40 0 50
178 39.9997044558029 10.0047667807073 50
179 70.0875671625679 70.0891837787293 50
180 80.0732030894842 70.0298048179068 50
181 49.9857042992163 20.0566181081832 50
182 49.9994118078299 10.0077744918866 50
183 70 0 50
184 80 0 50
185 90 0 50
186 100 10 50
187 100 0 50
188 19.9697830995036 80.0067392943405 50
189 19.9971236154149 30.0150652788758 50
190 19.9928246560516 40.0276458617221 50
191 9.99838654957473 40.0019024640359 50
192 9.99968620530169 30.0011254772561 50
193 29.9967339390294 20.0204638164822 50
194 0 30 50
195 0 40 50
196 29.9806764558797 40.1045308668028 50
197 29.987456582849 30.0629935248947 50
198 80.0893093217141 60.0340547214212 50
199 90.0370061516635 60.0049353154914 50
200 59.9459630283711 30.1233901541423 50
201 49.9464366862579 30.1671714869068 50
202 59.9324933855015 40.1925791636585 50
203 69.9680879775615 30.0501006940937 50
204 69.9608079006023 40.0937090855127 50
205 39.9933497259105 20.0383129210962 50
206 80.000496717719 40.0220498203038 50
207 80.0418415821497 50.0365338319133 50
208 70.0163740171658 50.1279752665583 50
209 90.0232683160956 50.0034538559758 50
210 9.9916063123904 60.002312596127 50
211 9.99623353955619 50.0016288900706 50
212 19.9867987742931 50.0237843021633 50
213 19.9771491655566 60.0298577961517 50
214 79.9921128789413 30.0094161900222 50
215 90.0081778247114 40.0023010620583 50
216 29.9306593899191 80.0239488035724 50
217 40 100 50
218 50 0 50
219 60 0 50
220 100 60 50
221 100 40 50
222 39.9701621579384 30.1296249208152 50
223 19.9676085260785 70.0170594295859 50
224 29.9787797032288 50.1190962956557 50
225 29.9658182137676 60.0986480461768 50
226 0 60 50
227 39.950783664059 40.2328956030738 50
228 39.9758591074846 50.2307356684339 50
229 100 50 50
230 0 50 50
231 29.937299624698 70.0608661149495 50
232 39.9878570422063 60.2272178482409 50
233 60.1030871091928 70.1690778958344 50
234 39.9730232493769 70.158170890543 50
235 70.1079276341955 60.120186777145 50
236 49.9191634919736 40.2863876263913 50
237 59.9864447485164 50.2301259380245 50
238 50.0382623279991 70.2148806176309 50
239 60.0711095479474 60.2257160584781 50
240 50.0616547193788 60.3224592626532 50
241 49.9687085007822 50.321445476777 50
$EndNodes
$Elements
100
0 5 1 2 23 72 49 22 121 122 123 124
1 5 1 2 53 48 14 15 125 126 127 128
2 5 1 2 4 58 39 0 129 130 131 132
3 5 1 2 60 45 76 91 133 134 135 136
4 5 1 2 58 51 71 74 130 137 138 139
5 5 1 2 55 82 91 76 140 141 136 135
6 5 1 2 20 70 46 19 142 143 144 145
7 5 1 2 20 21 49 70 142 146 123 143
8 5 1 2 81 72 54 86 147 122 148 149
9 5 1 2 22 49 21 2 124 123 146 150
10 5 1 2 60 86 54 45 133 149 148 134
11 5 1 2 59 48 68 52 151 126 152 153
12 5 1 2 54 72 23 24 148 122 121 154
13 5 1 2 54 24 25 45 148 154 155 134
14 5 1 2 76 45 25 26 135 134 155 156
15 5 1 2 38 39 58 74 157 131 130 139
16 5 1 2 57 50 32 33 158 159 160 161
17 5 1 2 28 29 67 43 162 163 164 165
18 5 1 2 29 30 56 67 163 166 167 164
19 5 1 2 31 32 50 56 168 160 159 167
20 5 1 2 31 56 30 3 168 167 166 169
21 5 1 2 65 87 77 41 170 171 172 173
22 5 1 2 51 58 4 5 137 130 129 174
23 5 1 2 6 64 51 5 175 176 137 174
24 5 1 2 7 44 64 6 177 178 176 175
25 5 1 2 111 100 81 86 179 180 147 149
26 5 1 2 77 103 75 41 172 181 182 173
27 5 1 2 70 81 100 46 143 147 180 144
28 5 1 2 52 65 10 11 153 170 183 184
29 5 1 2 72 81 70 49 122 147 143 123
30 5 1 2 68 87 65 52 152 171 170 153
31 5 1 2 12 59 52 11 185 151 153 184
32 5 1 2 13 59 12 1 186 151 185 187
33 5 1 2 48 59 13 14 126 151 186 127
34 5 1 2 63 67 56 50 188 164 167 159
35 5 1 2 88 102 73 47 189 190 191 192
36 5 1 2 85 71 51 64 193 138 137 176
37 5 1 2 37 47 73 36 194 192 191 195
38 5 1 2 71 88 47 74 138 189 192 139
39 5 1 2 38 74 47 37 157 139 192 194
40 5 1 2 113 102 88 98 196 190 189 197
41 5 1 2 46 100 80 69 144 180 198 199
42 5 1 2 112 106 103 77 200 201 181 172
43 5 1 2 117 112 96 108 202 200 203 204
44 5 1 2 64 44 84 85 176 178 205 193
45 5 1 2 90 99 116 108 206 207 208 204
46 5 1 2 80 99 42 69 198 207 209 199
47 5 1 2 62 40 78 101 210 211 212 213
48 5 1 2 83 68 48 53 214 152 126 125
49 5 1 2 96 112 77 87 203 200 172 171
50 5 1 2 66 90 83 53 215 206 214 125
51 5 1 2 61 43 67 63 216 165 164 188
52 5 1 2 99 90 66 42 207 206 215 209
53 5 1 2 61 82 55 43 216 141 140 165
54 5 1 2 55 76 26 27 140 135 156 217
55 5 1 2 41 75 8 9 173 182 218 219
56 5 1 2 7 8 75 44 177 218 182 178
57 5 1 2 9 10 65 41 219 183 170 173
58 5 1 2 69 18 19 46 199 220 145 144
59 5 1 2 66 53 15 16 215 125 128 221
60 5 1 2 27 28 43 55 217 162 165 140
61 5 1 2 75 103 84 44 182 181 205 178
62 5 1 2 98 88 71 85 197 189 138 193
63 5 1 2 94 84 103 106 222 205 181 201
64 5 1 2 40 73 102 78 211 191 190 212
65 5 1 2 94 98 85 84 222 197 193 205
66 5 1 2 96 87 68 83 203 171 152 214
67 5 1 2 83 90 108 96 214 206 204 203
68 5 1 2 63 50 57 89 188 159 158 223
69 5 1 2 62 101 89 57 210 213 223 158
70 5 1 2 105 93 101 78 224 225 213 212
71 5 1 2 57 33 34 62 158 161 226 210
72 5 1 2 113 110 118 105 196 227 228 224
73 5 1 2 18 69 42 17 220 199 209 229
74 5 1 2 36 73 40 35 195 191 211 230
75 5 1 2 35 40 62 34 230 211 210 226
76 5 1 2 17 42 66 16 229 209 215 221
77 5 1 2 110 113 98 94 227 196 197 222
78 5 1 2 89 101 93 79 223 213 225 231
79 5 1 2 78 102 113 105 212 190 196 224
80 5 1 2 63 89 79 61 188 223 231 216
81 5 1 2 109 93 105 118 232 225 224 228
82 5 1 2 111 86 60 95 179 149 133 233
83 5 1 2 93 109 97 79 225 232 234 231
84 5 1 2 97 82 61 79 234 141 216 231
85 5 1 2 107 116 99 80 235 208 207 198
86 5 1 2 100 111 107 80 180 179 235 198
87 5 1 2 106 114 110 94 201 236 227 222
88 5 1 2 106 112 117 114 201 200 202 236
89 5 1 2 117 108 116 120 202 204 208 237
90 5 1 2 91 92 95 60 136 238 233 133
91 5 1 2 92 91 82 97 238 136 141 234
92 5 1 2 120 119 104 115 237 239 240 241
93 5 1 2 118 110 114 115 228 227 236 241
94 5 1 2 116 107 119 120 208 235 239 237
95 5 1 2 119 107 111 95 239 235 179 233
96 5 1 2 114 117 120 115 236 202 237 241
97 5 1 2 92 97 109 104 238 234 232 240
98 5 1 2 104 119 95 92 240 239 233 238
99 5 1 2 109 118 115 104 232 228 241 240
$EndElements
