$MeshFormat
2.2 0 8
$EndMeshFormat
$Nodes
46
0 0 0 0
1 10 0 0
2 20 0 0
3 0 10 0
4 10 10 0
5 20 10 0
6 0 20 0
7 10 20 0
8 20 20 0
9 0 0 10
10 10 0 10
11 20 0 10
12 0 10 10
13 10 10 10
14 20 10 10
15 0 20 10
16 10 20 10
17 20 20 10
18 0 0 20
19 10 0 20
20 20 0 20
21 0 10 20
22 10 10 20
23 20 10 20
24 0 20 20
25 10 20 20
26 20 20 20
27 30 10 10
28 30 20 10
29 10 30 10
30 20 30 10
31 30 30 10
32 30 10 20
33 30 20 20
34 10 30 20
35 20 30 20
36 30 30 20
37 10 10 30
38 20 10 30
39 30 10 30
40 10 20 30
41 20 20 30
42 30 20 30
43 10 30 30
44 20 30 30
45 30 30 30
$EndNodes
$Elements
15
0 5 1 2 0 1 3 4 9 10 12 13
1 5 1 2 1 2 4 5 10 11 13 14
2 5 1 2 3 4 6 7 12 13 15 16
3 5 1 2 4 5 7 8 13 14 16 17
4 5 1 2 9 10 12 13 18 19 21 22
5 5 1 2 10 11 13 14 19 20 22 23
6 5 1 2 12 13 15 16 21 22 24 25
7 5 1 2 13 14 16 17 22 23 25 26
8 5 1 2 14 27 17 28 23 32 26 33
9 5 1 2 16 17 29 30 25 26 34 35
10 5 1 2 17 28 30 31 26 33 35 36
11 5 1 2 22 23 25 26 37 38 40 41
12 5 1 2 23 32 26 33 38 39 41 42
13 5 1 2 25 26 34 35 40 41 43 44
14 5 1 2 26 33 35 36 41 42 44 45
$EndElements
