$MeshFormat
2.2 0 8
$EndMeshFormat
$Nodes
1511
0 0 0 0
1 10 0 0
2 20 0 0
3 30 0 0
4 40 0 0
5 50 0 0
6 0 10 0
7 10 10 0
8 20 10 0
9 30 10 0
10 40 10 0
11 50 10 0
12 0 20 0
13 10 20 0
14 20 20 0
15 30 20 0
16 40 20 0
17 50 20 0
18 0 30 0
19 10 30 0
20 20 30 0
21 30 30 0
22 40 30 0
23 50 30 0
24 0 40 0
25 10 40 0
26 20 40 0
27 30 40 0
28 40 40 0
29 50 40 0
30 0 50 0
31 10 50 0
32 20 50 0
33 30 50 0
34 40 50 0
35 50 50 0
36 0 0 10
37 10 0 10
38 20 0 10
39 30 0 10
40 40 0 10
41 50 0 10
42 0 10 10
43 10 10 10
44 20 10 10
45 30 10 10
46 40 10 10
47 50 10 10
48 0 20 10
49 10 20 10
50 20 20 10
51 30 20 10
52 40 20 10
53 50 20 10
54 0 30 10
55 10 30 10
56 20 30 10
57 30 30 10
58 40 30 10
59 50 30 10
60 0 40 10
61 10 40 10
62 20 40 10
63 30 40 10
64 40 40 10
65 50 40 10
66 0 50 10
67 10 50 10
68 20 50 10
69 30 50 10
70 40 50 10
71 50 50 10
72 0 0 20
73 10 0 20
74 20 0 20
75 30 0 20
76 40 0 20
77 50 0 20
78 0 10 20
79 10 10 20
80 20 10 20
81 30 10 20
82 40 10 20
83 50 10 20
84 0 20 20
85 10 20 20
86 20 20 20
87 30 20 20
88 40 20 20
89 50 20 20
90 0 30 20
91 10 30 20
92 20 30 20
93 30 30 20
94 40 30 20
95 50 30 20
96 0 40 20
97 10 40 20
98 20 40 20
99 30 40 20
100 40 40 20
101 50 40 20
102 0 50 20
103 10 50 20
104 20 50 20
105 30 50 20
106 40 50 20
107 50 50 20
108 0 0 30
109 10 0 30
110 20 0 30
111 30 0 30
112 40 0 30
113 50 0 30
114 0 10 30
115 10 10 30
116 20 10 30
117 30 10 30
118 40 10 30
119 50 10 30
120 0 20 30
121 10 20 30
122 20 20 30
123 30 20 30
124 40 20 30
125 50 20 30
126 0 30 30
127 10 30 30
128 20 30 30
129 30 30 30
130 40 30 30
131 50 30 30
132 0 40 30
133 10 40 30
134 20 40 30
135 30 40 30
136 40 40 30
137 50 40 30
138 0 50 30
139 10 50 30
140 20 50 30
141 30 50 30
142 40 50 30
143 50 50 30
144 0 0 40
145 10 0 40
146 20 0 40
147 30 0 40
148 40 0 40
149 50 0 40
150 0 10 40
151 10 10 40
152 20 10 40
153 30 10 40
154 40 10 40
155 50 10 40
156 0 20 40
157 10 20 40
158 20 20 40
159 30 20 40
160 40 20 40
161 50 20 40
162 0 30 40
163 10 30 40
164 20 30 40
165 30 30 40
166 40 30 40
167 50 30 40
168 0 40 40
169 10 40 40
170 20 40 40
171 30 40 40
172 40 40 40
173 50 40 40
174 0 50 40
175 10 50 40
176 20 50 40
177 30 50 40
178 40 50 40
179 50 50 40
180 0 0 50
181 10 0 50
182 20 0 50
183 30 0 50
184 40 0 50
185 50 0 50
186 0 10 50
187 10 10 50
188 20 10 50
189 30 10 50
190 40 10 50
191 50 10 50
192 0 20 50
193 10 20 50
194 20 20 50
195 30 20 50
196 40 20 50
197 50 20 50
198 0 30 50
199 10 30 50
200 20 30 50
201 30 30 50
202 40 30 50
203 50 30 50
204 0 40 50
205 10 40 50
206 20 40 50
207 30 40 50
208 40 40 50
209 50 40 50
210 0 50 50
211 10 50 50
212 20 50 50
213 30 50 50
214 40 50 50
215 50 50 50
216 60 0 0
217 70 0 0
218 80 0 0
219 90 0 0
220 100 0 0
221 110 0 0
222 120 0 0
223 130 0 0
224 140 0 0
225 150 0 0
226 60 10 0
227 70 10 0
228 80 10 0
229 90 10 0
230 100 10 0
231 110 10 0
232 120 10 0
233 130 10 0
234 140 10 0
235 150 10 0
236 60 20 0
237 70 20 0
238 80 20 0
239 90 20 0
240 100 20 0
241 110 20 0
242 120 20 0
243 130 20 0
244 140 20 0
245 150 20 0
246 60 30 0
247 70 30 0
248 80 30 0
249 90 30 0
250 100 30 0
251 110 30 0
252 120 30 0
253 130 30 0
254 140 30 0
255 150 30 0
256 60 40 0
257 70 40 0
258 80 40 0
259 90 40 0
260 100 40 0
261 110 40 0
262 120 40 0
263 130 40 0
264 140 40 0
265 150 40 0
266 60 50 0
267 70 50 0
268 80 50 0
269 90 50 0
270 100 50 0
271 110 50 0
272 120 50 0
273 130 50 0
274 140 50 0
275 150 50 0
276 50 60 0
277 60 60 0
278 70 60 0
279 80 60 0
280 90 60 0
281 100 60 0
282 110 60 0
283 120 60 0
284 130 60 0
285 140 60 0
286 150 60 0
287 50 70 0
288 60 70 0
289 70 70 0
290 80 70 0
291 90 70 0
292 100 70 0
293 110 70 0
294 120 70 0
295 130 70 0
296 140 70 0
297 150 70 0
298 50 80 0
299 60 80 0
300 70 80 0
301 80 80 0
302 90 80 0
303 100 80 0
304 110 80 0
305 120 80 0
306 130 80 0
307 140 80 0
308 150 80 0
309 50 90 0
310 60 90 0
311 70 90 0
312 80 90 0
313 90 90 0
314 100 90 0
315 110 90 0
316 120 90 0
317 130 90 0
318 140 90 0
319 150 90 0
320 50 100 0
321 60 100 0
322 70 100 0
323 80 100 0
324 90 100 0
325 100 100 0
326 110 100 0
327 120 100 0
328 130 100 0
329 140 100 0
330 150 100 0
331 60 0 10
332 70 0 10
333 80 0 10
334 90 0 10
335 100 0 10
336 110 0 10
337 120 0 10
338 130 0 10
339 140 0 10
340 150 0 10
341 60 10 10
342 70 10 10
343 80 10 10
344 90 10 10
345 100 10 10
346 110 10 10
347 120 10 10
348 130 10 10
349 140 10 10
350 150 10 10
351 60 20 10
352 70 20 10
353 80 20 10
354 90 20 10
355 100 20 10
356 110 20 10
357 120 20 10
358 130 20 10
359 140 20 10
360 150 20 10
361 60 30 10
362 70 30 10
363 80 30 10
364 90 30 10
365 100 30 10
366 110 30 10
367 120 30 10
368 130 30 10
369 140 30 10
370 150 30 10
371 60 40 10
372 70 40 10
373 80 40 10
374 90 40 10
375 100 40 10
376 110 40 10
377 120 40 10
378 130 40 10
379 140 40 10
380 150 40 10
381 60 50 10
382 70 50 10
383 80 50 10
384 90 50 10
385 100 50 10
386 110 50 10
387 120 50 10
388 130 50 10
389 140 50 10
390 150 50 10
391 50 60 10
392 60 60 10
393 70 60 10
394 80 60 10
395 90 60 10
396 100 60 10
397 110 60 10
398 120 60 10
399 130 60 10
400 140 60 10
401 150 60 10
402 50 70 10
403 60 70 10
404 70 70 10
405 80 70 10
406 90 70 10
407 100 70 10
408 110 70 10
409 120 70 10
410 130 70 10
411 140 70 10
412 150 70 10
413 50 80 10
414 60 80 10
415 70 80 10
416 80 80 10
417 90 80 10
418 100 80 10
419 110 80 10
420 120 80 10
421 130 80 10
422 140 80 10
423 150 80 10
424 50 90 10
425 60 90 10
426 70 90 10
427 80 90 10
428 90 90 10
429 100 90 10
430 110 90 10
431 120 90 10
432 130 90 10
433 140 90 10
434 150 90 10
435 50 100 10
436 60 100 10
437 70 100 10
438 80 100 10
439 90 100 10
440 100 100 10
441 110 100 10
442 120 100 10
443 130 100 10
444 140 100 10
445 150 100 10
446 60 0 20
447 70 0 20
448 80 0 20
449 90 0 20
450 100 0 20
451 110 0 20
452 120 0 20
453 130 0 20
454 140 0 20
455 150 0 20
456 60 10 20
457 70 10 20
458 80 10 20
459 90 10 20
460 100 10 20
461 110 10 20
462 120 10 20
463 130 10 20
464 140 10 20
465 150 10 20
466 60 20 20
467 70 20 20
468 80 20 20
469 90 20 20
470 100 20 20
471 110 20 20
472 120 20 20
473 130 20 20
474 140 20 20
475 150 20 20
476 60 30 20
477 70 30 20
478 80 30 20
479 90 30 20
480 100 30 20
481 110 30 20
482 120 30 20
483 130 30 20
484 140 30 20
485 150 30 20
486 60 40 20
487 70 40 20
488 80 40 20
489 90 40 20
490 100 40 20
491 110 40 20
492 120 40 20
493 130 40 20
494 140 40 20
495 150 40 20
496 60 50 20
497 70 50 20
498 80 50 20
499 90 50 20
500 100 50 20
501 110 50 20
502 120 50 20
503 130 50 20
504 140 50 20
505 150 50 20
506 50 60 20
507 60 60 20
508 70 60 20
509 80 60 20
510 90 60 20
511 100 60 20
512 110 60 20
513 120 60 20
514 130 60 20
515 140 60 20
516 150 60 20
517 50 70 20
518 60 70 20
519 70 70 20
520 80 70 20
521 90 70 20
522 100 70 20
523 110 70 20
524 120 70 20
525 130 70 20
526 140 70 20
527 150 70 20
528 50 80 20
529 60 80 20
530 70 80 20
531 80 80 20
532 90 80 20
533 100 80 20
534 110 80 20
535 120 80 20
536 130 80 20
537 140 80 20
538 150 80 20
539 50 90 20
540 60 90 20
541 70 90 20
542 80 90 20
543 90 90 20
544 100 90 20
545 110 90 20
546 120 90 20
547 130 90 20
548 140 90 20
549 150 90 20
550 50 100 20
551 60 100 20
552 70 100 20
553 80 100 20
554 90 100 20
555 100 100 20
556 110 100 20
557 120 100 20
558 130 100 20
559 140 100 20
560 150 100 20
561 60 0 30
562 70 0 30
563 80 0 30
564 90 0 30
565 100 0 30
566 110 0 30
567 120 0 30
568 130 0 30
569 140 0 30
570 150 0 30
571 60 10 30
572 70 10 30
573 80 10 30
574 90 10 30
575 100 10 30
576 110 10 30
577 120 10 30
578 130 10 30
579 140 10 30
580 150 10 30
581 60 20 30
582 70 20 30
583 80 20 30
584 90 20 30
585 100 20 30
586 110 20 30
587 120 20 30
588 130 20 30
589 140 20 30
590 150 20 30
591 60 30 30
592 70 30 30
593 80 30 30
594 90 30 30
595 100 30 30
596 110 30 30
597 120 30 30
598 130 30 30
599 140 30 30
600 150 30 30
601 60 40 30
602 70 40 30
603 80 40 30
604 90 40 30
605 100 40 30
606 110 40 30
607 120 40 30
608 130 40 30
609 140 40 30
610 150 40 30
611 60 50 30
612 70 50 30
613 80 50 30
614 90 50 30
615 100 50 30
616 110 50 30
617 120 50 30
618 130 50 30
619 140 50 30
620 150 50 30
621 50 60 30
622 60 60 30
623 70 60 30
624 80 60 30
625 90 60 30
626 100 60 30
627 110 60 30
628 120 60 30
629 130 60 30
630 140 60 30
631 150 60 30
632 50 70 30
633 60 70 30
634 70 70 30
635 80 70 30
636 90 70 30
637 100 70 30
638 110 70 30
639 120 70 30
640 130 70 30
641 140 70 30
642 150 70 30
643 50 80 30
644 60 80 30
645 70 80 30
646 80 80 30
647 90 80 30
648 100 80 30
649 110 80 30
650 120 80 30
651 130 80 30
652 140 80 30
653 150 80 30
654 50 90 30
655 60 90 30
656 70 90 30
657 80 90 30
658 90 90 30
659 100 90 30
660 110 90 30
661 120 90 30
662 130 90 30
663 140 90 30
664 150 90 30
665 50 100 30
666 60 100 30
667 70 100 30
668 80 100 30
669 90 100 30
670 100 100 30
671 110 100 30
672 120 100 30
673 130 100 30
674 140 100 30
675 150 100 30
676 60 0 40
677 70 0 40
678 80 0 40
679 90 0 40
680 100 0 40
681 110 0 40
682 120 0 40
683 130 0 40
684 140 0 40
685 150 0 40
686 60 10 40
687 70 10 40
688 80 10 40
689 90 10 40
690 100 10 40
691 110 10 40
692 120 10 40
693 130 10 40
694 140 10 40
695 150 10 40
696 60 20 40
697 70 20 40
698 80 20 40
699 90 20 40
700 100 20 40
701 110 20 40
702 120 20 40
703 130 20 40
704 140 20 40
705 150 20 40
706 60 30 40
707 70 30 40
708 80 30 40
709 90 30 40
710 100 30 40
711 110 30 40
712 120 30 40
713 130 30 40
714 140 30 40
715 150 30 40
716 60 40 40
717 70 40 40
718 80 40 40
719 90 40 40
720 100 40 40
721 110 40 40
722 120 40 40
723 130 40 40
724 140 40 40
725 150 40 40
726 60 50 40
727 70 50 40
728 80 50 40
729 90 50 40
730 100 50 40
731 110 50 40
732 120 50 40
733 130 50 40
734 140 50 40
735 150 50 40
736 50 60 40
737 60 60 40
738 70 60 40
739 80 60 40
740 90 60 40
741 100 60 40
742 110 60 40
743 120 60 40
744 130 60 40
745 140 60 40
746 150 60 40
747 50 70 40
748 60 70 40
749 70 70 40
750 80 70 40
751 90 70 40
752 100 70 40
753 110 70 40
754 120 70 40
755 130 70 40
756 140 70 40
757 150 70 40
758 50 80 40
759 60 80 40
760 70 80 40
761 80 80 40
762 90 80 40
763 100 80 40
764 110 80 40
765 120 80 40
766 130 80 40
767 140 80 40
768 150 80 40
769 50 90 40
770 60 90 40
771 70 90 40
772 80 90 40
773 90 90 40
774 100 90 40
775 110 90 40
776 120 90 40
777 130 90 40
778 140 90 40
779 150 90 40
780 50 100 40
781 60 100 40
782 70 100 40
783 80 100 40
784 90 100 40
785 100 100 40
786 110 100 40
787 120 100 40
788 130 100 40
789 140 100 40
790 150 100 40
791 60 0 50
792 70 0 50
793 80 0 50
794 90 0 50
795 100 0 50
796 110 0 50
797 120 0 50
798 130 0 50
799 140 0 50
800 150 0 50
801 60 10 50
802 70 10 50
803 80 10 50
804 90 10 50
805 100 10 50
806 110 10 50
807 120 10 50
808 130 10 50
809 140 10 50
810 150 10 50
811 60 20 50
812 70 20 50
813 80 20 50
814 90 20 50
815 100 20 50
816 110 20 50
817 120 20 50
818 130 20 50
819 140 20 50
820 150 20 50
821 60 30 50
822 70 30 50
823 80 30 50
824 90 30 50
825 100 30 50
826 110 30 50
827 120 30 50
828 130 30 50
829 140 30 50
830 150 30 50
831 60 40 50
832 70 40 50
833 80 40 50
834 90 40 50
835 100 40 50
836 110 40 50
837 120 40 50
838 130 40 50
839 140 40 50
840 150 40 50
841 60 50 50
842 70 50 50
843 80 50 50
844 90 50 50
845 100 50 50
846 110 50 50
847 120 50 50
848 130 50 50
849 140 50 50
850 150 50 50
851 50 60 50
852 60 60 50
853 70 60 50
854 80 60 50
855 90 60 50
856 100 60 50
857 110 60 50
858 120 60 50
859 130 60 50
860 140 60 50
861 150 60 50
862 50 70 50
863 60 70 50
864 70 70 50
865 80 70 50
866 90 70 50
867 100 70 50
868 110 70 50
869 120 70 50
870 130 70 50
871 140 70 50
872 150 70 50
873 50 80 50
874 60 80 50
875 70 80 50
876 80 80 50
877 90 80 50
878 100 80 50
879 110 80 50
880 120 80 50
881 130 80 50
882 140 80 50
883 150 80 50
884 50 90 50
885 60 90 50
886 70 90 50
887 80 90 50
888 90 90 50
889 100 90 50
890 110 90 50
891 120 90 50
892 130 90 50
893 140 90 50
894 150 90 50
895 50 100 50
896 60 100 50
897 70 100 50
898 80 100 50
899 90 100 50
900 100 100 50
901 110 100 50
902 120 100 50
903 130 100 50
904 140 100 50
905 150 100 50
906 50 0 60
907 60 0 60
908 70 0 60
909 80 0 60
910 90 0 60
911 100 0 60
912 110 0 60
913 120 0 60
914 130 0 60
915 140 0 60
916 150 0 60
917 50 10 60
918 60 10 60
919 70 10 60
920 80 10 60
921 90 10 60
922 100 10 60
923 110 10 60
924 120 10 60
925 130 10 60
926 140 10 60
927 150 10 60
928 50 20 60
929 60 20 60
930 70 20 60
931 80 20 60
932 90 20 60
933 100 20 60
934 110 20 60
935 120 20 60
936 130 20 60
937 140 20 60
938 150 20 60
939 50 30 60
940 60 30 60
941 70 30 60
942 80 30 60
943 90 30 60
944 100 30 60
945 110 30 60
946 120 30 60
947 130 30 60
948 140 30 60
949 150 30 60
950 50 40 60
951 60 40 60
952 70 40 60
953 80 40 60
954 90 40 60
955 100 40 60
956 110 40 60
957 120 40 60
958 130 40 60
959 140 40 60
960 150 40 60
961 50 50 60
962 60 50 60
963 70 50 60
964 80 50 60
965 90 50 60
966 100 50 60
967 110 50 60
968 120 50 60
969 130 50 60
970 140 50 60
971 150 50 60
972 50 60 60
973 60 60 60
974 70 60 60
975 80 60 60
976 90 60 60
977 100 60 60
978 110 60 60
979 120 60 60
980 130 60 60
981 140 60 60
982 150 60 60
983 50 70 60
984 60 70 60
985 70 70 60
986 80 70 60
987 90 70 60
988 100 70 60
989 110 70 60
990 120 70 60
991 130 70 60
992 140 70 60
993 150 70 60
994 50 80 60
995 60 80 60
996 70 80 60
997 80 80 60
998 90 80 60
999 100 80 60
1000 110 80 60
1001 120 80 60
1002 130 80 60
1003 140 80 60
1004 150 80 60
1005 50 90 60
1006 60 90 60
1007 70 90 60
1008 80 90 60
1009 90 90 60
1010 100 90 60
1011 110 90 60
1012 120 90 60
1013 130 90 60
1014 140 90 60
1015 150 90 60
1016 50 100 60
1017 60 100 60
1018 70 100 60
1019 80 100 60
1020 90 100 60
1021 100 100 60
1022 110 100 60
1023 120 100 60
1024 130 100 60
1025 140 100 60
1026 150 100 60
1027 50 0 70
1028 60 0 70
1029 70 0 70
1030 80 0 70
1031 90 0 70
1032 100 0 70
1033 110 0 70
1034 120 0 70
1035 130 0 70
1036 140 0 70
1037 150 0 70
1038 50 10 70
1039 60 10 70
1040 70 10 70
1041 80 10 70
1042 90 10 70
1043 100 10 70
1044 110 10 70
1045 120 10 70
1046 130 10 70
1047 140 10 70
1048 150 10 70
1049 50 20 70
1050 60 20 70
1051 70 20 70
1052 80 20 70
1053 90 20 70
1054 100 20 70
1055 110 20 70
1056 120 20 70
1057 130 20 70
1058 140 20 70
1059 150 20 70
1060 50 30 70
1061 60 30 70
1062 70 30 70
1063 80 30 70
1064 90 30 70
1065 100 30 70
1066 110 30 70
1067 120 30 70
1068 130 30 70
1069 140 30 70
1070 150 30 70
1071 50 40 70
1072 60 40 70
1073 70 40 70
1074 80 40 70
1075 90 40 70
1076 100 40 70
1077 110 40 70
1078 120 40 70
1079 130 40 70
1080 140 40 70
1081 150 40 70
1082 50 50 70
1083 60 50 70
1084 70 50 70
1085 80 50 70
1086 90 50 70
1087 100 50 70
1088 110 50 70
1089 120 50 70
1090 130 50 70
1091 140 50 70
1092 150 50 70
1093 50 60 70
1094 60 60 70
1095 70 60 70
1096 80 60 70
1097 90 60 70
1098 100 60 70
1099 110 60 70
1100 120 60 70
1101 130 60 70
1102 140 60 70
1103 150 60 70
1104 50 70 70
1105 60 70 70
1106 70 70 70
1107 80 70 70
1108 90 70 70
1109 100 70 70
1110 110 70 70
1111 120 70 70
1112 130 70 70
1113 140 70 70
1114 150 70 70
1115 50 80 70
1116 60 80 70
1117 70 80 70
1118 80 80 70
1119 90 80 70
1120 100 80 70
1121 110 80 70
1122 120 80 70
1123 130 80 70
1124 140 80 70
1125 150 80 70
1126 50 90 70
1127 60 90 70
1128 70 90 70
1129 80 90 70
1130 90 90 70
1131 100 90 70
1132 110 90 70
1133 120 90 70
1134 130 90 70
1135 140 90 70
1136 150 90 70
1137 50 100 70
1138 60 100 70
1139 70 100 70
1140 80 100 70
1141 90 100 70
1142 100 100 70
1143 110 100 70
1144 120 100 70
1145 130 100 70
1146 140 100 70
1147 150 100 70
1148 50 0 80
1149 60 0 80
1150 70 0 80
1151 80 0 80
1152 90 0 80
1153 100 0 80
1154 110 0 80
1155 120 0 80
1156 130 0 80
1157 140 0 80
1158 150 0 80
1159 50 10 80
1160 60 10 80
1161 70 10 80
1162 80 10 80
1163 90 10 80
1164 100 10 80
1165 110 10 80
1166 120 10 80
1167 130 10 80
1168 140 10 80
1169 150 10 80
1170 50 20 80
1171 60 20 80
1172 70 20 80
1173 80 20 80
1174 90 20 80
1175 100 20 80
1176 110 20 80
1177 120 20 80
1178 130 20 80
1179 140 20 80
1180 150 20 80
1181 50 30 80
1182 60 30 80
1183 70 30 80
1184 80 30 80
1185 90 30 80
1186 100 30 80
1187 110 30 80
1188 120 30 80
1189 130 30 80
1190 140 30 80
1191 150 30 80
1192 50 40 80
1193 60 40 80
1194 70 40 80
1195 80 40 80
1196 90 40 80
1197 100 40 80
1198 110 40 80
1199 120 40 80
1200 130 40 80
1201 140 40 80
1202 150 40 80
1203 50 50 80
1204 60 50 80
1205 70 50 80
1206 80 50 80
1207 90 50 80
1208 100 50 80
1209 110 50 80
1210 120 50 80
1211 130 50 80
1212 140 50 80
1213 150 50 80
1214 50 60 80
1215 60 60 80
1216 70 60 80
1217 80 60 80
1218 90 60 80
1219 100 60 80
1220 110 60 80
1221 120 60 80
1222 130 60 80
1223 140 60 80
1224 150 60 80
1225 50 70 80
1226 60 70 80
1227 70 70 80
1228 80 70 80
1229 90 70 80
1230 100 70 80
1231 110 70 80
1232 120 70 80
1233 130 70 80
1234 140 70 80
1235 150 70 80
1236 50 80 80
1237 60 80 80
1238 70 80 80
1239 80 80 80
1240 90 80 80
1241 100 80 80
1242 110 80 80
1243 120 80 80
1244 130 80 80
1245 140 80 80
1246 150 80 80
1247 50 90 80
1248 60 90 80
1249 70 90 80
1250 80 90 80
1251 90 90 80
1252 100 90 80
1253 110 90 80
1254 120 90 80
1255 130 90 80
1256 140 90 80
1257 150 90 80
1258 50 100 80
1259 60 100 80
1260 70 100 80
1261 80 100 80
1262 90 100 80
1263 100 100 80
1264 110 100 80
1265 120 100 80
1266 130 100 80
1267 140 100 80
1268 150 100 80
1269 50 0 90
1270 60 0 90
1271 70 0 90
1272 80 0 90
1273 90 0 90
1274 100 0 90
1275 110 0 90
1276 120 0 90
1277 130 0 90
1278 140 0 90
1279 150 0 90
1280 50 10 90
1281 60 10 90
1282 70 10 90
1283 80 10 90
1284 90 10 90
1285 100 10 90
1286 110 10 90
1287 120 10 90
1288 130 10 90
1289 140 10 90
1290 150 10 90
1291 50 20 90
1292 60 20 90
1293 70 20 90
1294 80 20 90
1295 90 20 90
1296 100 20 90
1297 110 20 90
1298 120 20 90
1299 130 20 90
1300 140 20 90
1301 150 20 90
1302 50 30 90
1303 60 30 90
1304 70 30 90
1305 80 30 90
1306 90 30 90
1307 100 30 90
1308 110 30 90
1309 120 30 90
1310 130 30 90
1311 140 30 90
1312 150 30 90
1313 50 40 90
1314 60 40 90
1315 70 40 90
1316 80 40 90
1317 90 40 90
1318 100 40 90
1319 110 40 90
1320 120 40 90
1321 130 40 90
1322 140 40 90
1323 150 40 90
1324 50 50 90
1325 60 50 90
1326 70 50 90
1327 80 50 90
1328 90 50 90
1329 100 50 90
1330 110 50 90
1331 120 50 90
1332 130 50 90
1333 140 50 90
1334 150 50 90
1335 50 60 90
1336 60 60 90
1337 70 60 90
1338 80 60 90
1339 90 60 90
1340 100 60 90
1341 110 60 90
1342 120 60 90
1343 130 60 90
1344 140 60 90
1345 150 60 90
1346 50 70 90
1347 60 70 90
1348 70 70 90
1349 80 70 90
1350 90 70 90
1351 100 70 90
1352 110 70 90
1353 120 70 90
1354 130 70 90
1355 140 70 90
1356 150 70 90
1357 50 80 90
1358 60 80 90
1359 70 80 90
1360 80 80 90
1361 90 80 90
1362 100 80 90
1363 110 80 90
1364 120 80 90
1365 130 80 90
1366 140 80 90
1367 150 80 90
1368 50 90 90
1369 60 90 90
1370 70 90 90
1371 80 90 90
1372 90 90 90
1373 100 90 90
1374 110 90 90
1375 120 90 90
1376 130 90 90
1377 140 90 90
1378 150 90 90
1379 50 100 90
1380 60 100 90
1381 70 100 90
1382 80 100 90
1383 90 100 90
1384 100 100 90
1385 110 100 90
1386 120 100 90
1387 130 100 90
1388 140 100 90
1389 150 100 90
1390 50 0 100
1391 60 0 100
1392 70 0 100
1393 80 0 100
1394 90 0 100
1395 100 0 100
1396 110 0 100
1397 120 0 100
1398 130 0 100
1399 140 0 100
1400 150 0 100
1401 50 10 100
1402 60 10 100
1403 70 10 100
1404 80 10 100
1405 90 10 100
1406 100 10 100
1407 110 10 100
1408 120 10 100
1409 130 10 100
1410 140 10 100
1411 150 10 100
1412 50 20 100
1413 60 20 100
1414 70 20 100
1415 80 20 100
1416 90 20 100
1417 100 20 100
1418 110 20 100
1419 120 20 100
1420 130 20 100
1421 140 20 100
1422 150 20 100
1423 50 30 100
1424 60 30 100
1425 70 30 100
1426 80 30 100
1427 90 30 100
1428 100 30 100
1429 110 30 100
1430 120 30 100
1431 130 30 100
1432 140 30 100
1433 150 30 100
1434 50 40 100
1435 60 40 100
1436 70 40 100
1437 80 40 100
1438 90 40 100
1439 100 40 100
1440 110 40 100
1441 120 40 100
1442 130 40 100
1443 140 40 100
1444 150 40 100
1445 50 50 100
1446 60 50 100
1447 70 50 100
1448 80 50 100
1449 90 50 100
1450 100 50 100
1451 110 50 100
1452 120 50 100
1453 130 50 100
1454 140 50 100
1455 150 50 100
1456 50 60 100
1457 60 60 100
1458 70 60 100
1459 80 60 100
1460 90 60 100
1461 100 60 100
1462 110 60 100
1463 120 60 100
1464 130 60 100
1465 140 60 100
1466 150 60 100
1467 50 70 100
1468 60 70 100
1469 70 70 100
1470 80 70 100
1471 90 70 100
1472 100 70 100
1473 110 70 100
1474 120 70 100
1475 130 70 100
1476 140 70 100
1477 150 70 100
1478 50 80 100
1479 60 80 100
1480 70 80 100
1481 80 80 100
1482 90 80 100
1483 100 80 100
1484 110 80 100
1485 120 80 100
1486 130 80 100
1487 140 80 100
1488 150 80 100
1489 50 90 100
1490 60 90 100
1491 70 90 100
1492 80 90 100
1493 90 90 100
1494 100 90 100
1495 110 90 100
1496 120 90 100
1497 130 90 100
1498 140 90 100
1499 150 90 100
1500 50 100 100
1501 60 100 100
1502 70 100 100
1503 80 100 100
1504 90 100 100
1505 100 100 100
1506 110 100 100
1507 120 100 100
1508 130 100 100
1509 140 100 100
1510 150 100 100
$EndNodes
$Elements
1125
0 5 1 2 0 1 6 7 36 37 42 43
1 5 1 2 1 2 7 8 37 38 43 44
2 5 1 2 2 3 8 9 38 39 44 45
3 5 1 2 3 4 9 10 39 40 45 46
4 5 1 2 4 5 10 11 40 41 46 47
5 5 1 2 6 7 12 13 42 43 48 49
6 5 1 2 7 8 13 14 43 44 49 50
7 5 1 2 8 9 14 15 44 45 50 51
8 5 1 2 9 10 15 16 45 46 51 52
9 5 1 2 10 11 16 17 46 47 52 53
10 5 1 2 12 13 18 19 48 49 54 55
11 5 1 2 13 14 19 20 49 50 55 56
12 5 1 2 14 15 20 21 50 51 56 57
13 5 1 2 15 16 21 22 51 52 57 58
14 5 1 2 16 17 22 23 52 53 58 59
15 5 1 2 18 19 24 25 54 55 60 61
16 5 1 2 19 20 25 26 55 56 61 62
17 5 1 2 20 21 26 27 56 57 62 63
18 5 1 2 21 22 27 28 57 58 63 64
19 5 1 2 22 23 28 29 58 59 64 65
20 5 1 2 24 25 30 31 60 61 66 67
21 5 1 2 25 26 31 32 61 62 67 68
22 5 1 2 26 27 32 33 62 63 68 69
23 5 1 2 27 28 33 34 63 64 69 70
24 5 1 2 28 29 34 35 64 65 70 71
25 5 1 2 36 37 42 43 72 73 78 79
26 5 1 2 37 38 43 44 73 74 79 80
27 5 1 2 38 39 44 45 74 75 80 81
28 5 1 2 39 40 45 46 75 76 81 82
29 5 1 2 40 41 46 47 76 77 82 83
30 5 1 2 42 43 48 49 78 79 84 85
31 5 1 2 43 44 49 50 79 80 85 86
32 5 1 2 44 45 50 51 80 81 86 87
33 5 1 2 45 46 51 52 81 82 87 88
34 5 1 2 46 47 52 53 82 83 88 89
35 5 1 2 48 49 54 55 84 85 90 91
36 5 1 2 49 50 55 56 85 86 91 92
37 5 1 2 50 51 56 57 86 87 92 93
38 5 1 2 51 52 57 58 87 88 93 94
39 5 1 2 52 53 58 59 88 89 94 95
40 5 1 2 54 55 60 61 90 91 96 97
41 5 1 2 55 56 61 62 91 92 97 98
42 5 1 2 56 57 62 63 92 93 98 99
43 5 1 2 57 58 63 64 93 94 99 100
44 5 1 2 58 59 64 65 94 95 100 101
45 5 1 2 60 61 66 67 96 97 102 103
46 5 1 2 61 62 67 68 97 98 103 104
47 5 1 2 62 63 68 69 98 99 104 105
48 5 1 2 63 64 69 70 99 100 105 106
49 5 1 2 64 65 70 71 100 101 106 107
50 5 1 2 72 73 78 79 108 109 114 115
51 5 1 2 73 74 79 80 109 110 115 116
52 5 1 2 74 75 80 81 110 111 116 117
53 5 1 2 75 76 81 82 111 112 117 118
54 5 1 2 76 77 82 83 112 113 118 119
55 5 1 2 78 79 84 85 114 115 120 121
56 5 1 2 79 80 85 86 115 116 121 122
57 5 1 2 80 81 86 87 116 117 122 123
58 5 1 2 81 82 87 88 117 118 123 124
59 5 1 2 82 83 88 89 118 119 124 125
60 5 1 2 84 85 90 91 120 121 126 127
61 5 1 2 85 86 91 92 121 122 127 128
62 5 1 2 86 87 92 93 122 123 128 129
63 5 1 2 87 88 93 94 123 124 129 130
64 5 1 2 88 89 94 95 124 125 130 131
65 5 1 2 90 91 96 97 126 127 132 133
66 5 1 2 91 92 97 98 127 128 133 134
67 5 1 2 92 93 98 99 128 129 134 135
68 5 1 2 93 94 99 100 129 130 135 136
69 5 1 2 94 95 100 101 130 131 136 137
70 5 1 2 96 97 102 103 132 133 138 139
71 5 1 2 97 98 103 104 133 134 139 140
72 5 1 2 98 99 104 105 134 135 140 141
73 5 1 2 99 100 105 106 135 136 141 142
74 5 1 2 100 101 106 107 136 137 142 143
75 5 1 2 108 109 114 115 144 145 150 151
76 5 1 2 109 110 115 116 145 146 151 152
77 5 1 2 110 111 116 117 146 147 152 153
78 5 1 2 111 112 117 118 147 148 153 154
79 5 1 2 112 113 118 119 148 149 154 155
80 5 1 2 114 115 120 121 150 151 156 157
81 5 1 2 115 116 121 122 151 152 157 158
82 5 1 2 116 117 122 123 152 153 158 159
83 5 1 2 117 118 123 124 153 154 159 160
84 5 1 2 118 119 124 125 154 155 160 161
85 5 1 2 120 121 126 127 156 157 162 163
86 5 1 2 121 122 127 128 157 158 163 164
87 5 1 2 122 123 128 129 158 159 164 165
88 5 1 2 123 124 129 130 159 160 165 166
89 5 1 2 124 125 130 131 160 161 166 167
90 5 1 2 126 127 132 133 162 163 168 169
91 5 1 2 127 128 133 134 163 164 169 170
92 5 1 2 128 129 134 135 164 165 170 171
93 5 1 2 129 130 135 136 165 166 171 172
94 5 1 2 130 131 136 137 166 167 172 173
95 5 1 2 132 133 138 139 168 169 174 175
96 5 1 2 133 134 139 140 169 170 175 176
97 5 1 2 134 135 140 141 170 171 176 177
98 5 1 2 135 136 141 142 171 172 177 178
99 5 1 2 136 137 142 143 172 173 178 179
100 5 1 2 144 145 150 151 180 181 186 187
101 5 1 2 145 146 151 152 181 182 187 188
102 5 1 2 146 147 152 153 182 183 188 189
103 5 1 2 147 148 153 154 183 184 189 190
104 5 1 2 148 149 154 155 184 185 190 191
105 5 1 2 150 151 156 157 186 187 192 193
106 5 1 2 151 152 157 158 187 188 193 194
107 5 1 2 152 153 158 159 188 189 194 195
108 5 1 2 153 154 159 160 189 190 195 196
109 5 1 2 154 155 160 161 190 191 196 197
110 5 1 2 156 157 162 163 192 193 198 199
111 5 1 2 157 158 163 164 193 194 199 200
112 5 1 2 158 159 164 165 194 195 200 201
113 5 1 2 159 160 165 166 195 196 201 202
114 5 1 2 160 161 166 167 196 197 202 203
115 5 1 2 162 163 168 169 198 199 204 205
116 5 1 2 163 164 169 170 199 200 205 206
117 5 1 2 164 165 170 171 200 201 206 207
118 5 1 2 165 166 171 172 201 202 207 208
119 5 1 2 166 167 172 173 202 203 208 209
120 5 1 2 168 169 174 175 204 205 210 211
121 5 1 2 169 170 175 176 205 206 211 212
122 5 1 2 170 171 176 177 206 207 212 213
123 5 1 2 171 172 177 178 207 208 213 214
124 5 1 2 172 173 178 179 208 209 214 215
125 5 1 2 5 216 11 226 41 331 47 341
126 5 1 2 216 217 226 227 331 332 341 342
127 5 1 2 217 218 227 228 332 333 342 343
128 5 1 2 218 219 228 229 333 334 343 344
129 5 1 2 219 220 229 230 334 335 344 345
130 5 1 2 220 221 230 231 335 336 345 346
131 5 1 2 221 222 231 232 336 337 346 347
132 5 1 2 222 223 232 233 337 338 347 348
133 5 1 2 223 224 233 234 338 339 348 349
134 5 1 2 224 225 234 235 339 340 349 350
135 5 1 2 11 226 17 236 47 341 53 351
136 5 1 2 226 227 236 237 341 342 351 352
137 5 1 2 227 228 237 238 342 343 352 353
138 5 1 2 228 229 238 239 343 344 353 354
139 5 1 2 229 230 239 240 344 345 354 355
140 5 1 2 230 231 240 241 345 346 355 356
141 5 1 2 231 232 241 242 346 347 356 357
142 5 1 2 232 233 242 243 347 348 357 358
143 5 1 2 233 234 243 244 348 349 358 359
144 5 1 2 234 235 244 245 349 350 359 360
145 5 1 2 17 236 23 246 53 351 59 361
146 5 1 2 236 237 246 247 351 352 361 362
147 5 1 2 237 238 247 248 352 353 362 363
148 5 1 2 238 239 248 249 353 354 363 364
149 5 1 2 239 240 249 250 354 355 364 365
150 5 1 2 240 241 250 251 355 356 365 366
151 5 1 2 241 242 251 252 356 357 366 367
152 5 1 2 242 243 252 253 357 358 367 368
153 5 1 2 243 244 253 254 358 359 368 369
154 5 1 2 244 245 254 255 359 360 369 370
155 5 1 2 23 246 29 256 59 361 65 371
156 5 1 2 246 247 256 257 361 362 371 372
157 5 1 2 247 248 257 258 362 363 372 373
158 5 1 2 248 249 258 259 363 364 373 374
159 5 1 2 249 250 259 260 364 365 374 375
160 5 1 2 250 251 260 261 365 366 375 376
161 5 1 2 251 252 261 262 366 367 376 377
162 5 1 2 252 253 262 263 367 368 377 378
163 5 1 2 253 254 263 264 368 369 378 379
164 5 1 2 254 255 264 265 369 370 379 380
165 5 1 2 29 256 35 266 65 371 71 381
166 5 1 2 256 257 266 267 371 372 381 382
167 5 1 2 257 258 267 268 372 373 382 383
168 5 1 2 258 259 268 269 373 374 383 384
169 5 1 2 259 260 269 270 374 375 384 385
170 5 1 2 260 261 270 271 375 376 385 386
171 5 1 2 261 262 271 272 376 377 386 387
172 5 1 2 262 263 272 273 377 378 387 388
173 5 1 2 263 264 273 274 378 379 388 389
174 5 1 2 264 265 274 275 379 380 389 390
175 5 1 2 35 266 276 277 71 381 391 392
176 5 1 2 266 267 277 278 381 382 392 393
177 5 1 2 267 268 278 279 382 383 393 394
178 5 1 2 268 269 279 280 383 384 394 395
179 5 1 2 269 270 280 281 384 385 395 396
180 5 1 2 270 271 281 282 385 386 396 397
181 5 1 2 271 272 282 283 386 387 397 398
182 5 1 2 272 273 283 284 387 388 398 399
183 5 1 2 273 274 284 285 388 389 399 400
184 5 1 2 274 275 285 286 389 390 400 401
185 5 1 2 276 277 287 288 391 392 402 403
186 5 1 2 277 278 288 289 392 393 403 404
187 5 1 2 278 279 289 290 393 394 404 405
188 5 1 2 279 280 290 291 394 395 405 406
189 5 1 2 280 281 291 292 395 396 406 407
190 5 1 2 281 282 292 293 396 397 407 408
191 5 1 2 282 283 293 294 397 398 408 409
192 5 1 2 283 284 294 295 398 399 409 410
193 5 1 2 284 285 295 296 399 400 410 411
194 5 1 2 285 286 296 297 400 401 411 412
195 5 1 2 287 288 298 299 402 403 413 414
196 5 1 2 288 289 299 300 403 404 414 415
197 5 1 2 289 290 300 301 404 405 415 416
198 5 1 2 290 291 301 302 405 406 416 417
199 5 1 2 291 292 302 303 406 407 417 418
200 5 1 2 292 293 303 304 407 408 418 419
201 5 1 2 293 294 304 305 408 409 419 420
202 5 1 2 294 295 305 306 409 410 420 421
203 5 1 2 295 296 306 307 410 411 421 422
204 5 1 2 296 297 307 308 411 412 422 423
205 5 1 2 298 299 309 310 413 414 424 425
206 5 1 2 299 300 310 311 414 415 425 426
207 5 1 2 300 301 311 312 415 416 426 427
208 5 1 2 301 302 312 313 416 417 427 428
209 5 1 2 302 303 313 314 417 418 428 429
210 5 1 2 303 304 314 315 418 419 429 430
211 5 1 2 304 305 315 316 419 420 430 431
212 5 1 2 305 306 316 317 420 421 431 432
213 5 1 2 306 307 317 318 421 422 432 433
214 5 1 2 307 308 318 319 422 423 433 434
215 5 1 2 309 310 320 321 424 425 435 436
216 5 1 2 310 311 321 322 425 426 436 437
217 5 1 2 311 312 322 323 426 427 437 438
218 5 1 2 312 313 323 324 427 428 438 439
219 5 1 2 313 314 324 325 428 429 439 440
220 5 1 2 314 315 325 326 429 430 440 441
221 5 1 2 315 316 326 327 430 431 441 442
222 5 1 2 316 317 327 328 431 432 442 443
223 5 1 2 317 318 328 329 432 433 443 444
224 5 1 2 318 319 329 330 433 434 444 445
225 5 1 2 41 331 47 341 77 446 83 456
226 5 1 2 331 332 341 342 446 447 456 457
227 5 1 2 332 333 342 343 447 448 457 458
228 5 1 2 333 334 343 344 448 449 458 459
229 5 1 2 334 335 344 345 449 450 459 460
230 5 1 2 335 336 345 346 450 451 460 461
231 5 1 2 336 337 346 347 451 452 461 462
232 5 1 2 337 338 347 348 452 453 462 463
233 5 1 2 338 339 348 349 453 454 463 464
234 5 1 2 339 340 349 350 454 455 464 465
235 5 1 2 47 341 53 351 83 456 89 466
236 5 1 2 341 342 351 352 456 457 466 467
237 5 1 2 342 343 352 353 457 458 467 468
238 5 1 2 343 344 353 354 458 459 468 469
239 5 1 2 344 345 354 355 459 460 469 470
240 5 1 2 345 346 355 356 460 461 470 471
241 5 1 2 346 347 356 357 461 462 471 472
242 5 1 2 347 348 357 358 462 463 472 473
243 5 1 2 348 349 358 359 463 464 473 474
244 5 1 2 349 350 359 360 464 465 474 475
245 5 1 2 53 351 59 361 89 466 95 476
246 5 1 2 351 352 361 362 466 467 476 477
247 5 1 2 352 353 362 363 467 468 477 478
248 5 1 2 353 354 363 364 468 469 478 479
249 5 1 2 354 355 364 365 469 470 479 480
250 5 1 2 355 356 365 366 470 471 480 481
251 5 1 2 356 357 366 367 471 472 481 482
252 5 1 2 357 358 367 368 472 473 482 483
253 5 1 2 358 359 368 369 473 474 483 484
254 5 1 2 359 360 369 370 474 475 484 485
255 5 1 2 59 361 65 371 95 476 101 486
256 5 1 2 361 362 371 372 476 477 486 487
257 5 1 2 362 363 372 373 477 478 487 488
258 5 1 2 363 364 373 374 478 479 488 489
259 5 1 2 364 365 374 375 479 480 489 490
260 5 1 2 365 366 375 376 480 481 490 491
261 5 1 2 366 367 376 377 481 482 491 492
262 5 1 2 367 368 377 378 482 483 492 493
263 5 1 2 368 369 378 379 483 484 493 494
264 5 1 2 369 370 379 380 484 485 494 495
265 5 1 2 65 371 71 381 101 486 107 496
266 5 1 2 371 372 381 382 486 487 496 497
267 5 1 2 372 373 382 383 487 488 497 498
268 5 1 2 373 374 383 384 488 489 498 499
269 5 1 2 374 375 384 385 489 490 499 500
270 5 1 2 375 376 385 386 490 491 500 501
271 5 1 2 376 377 386 387 491 492 501 502
272 5 1 2 377 378 387 388 492 493 502 503
273 5 1 2 378 379 388 389 493 494 503 504
274 5 1 2 379 380 389 390 494 495 504 505
275 5 1 2 71 381 391 392 107 496 506 507
276 5 1 2 381 382 392 393 496 497 507 508
277 5 1 2 382 383 393 394 497 498 508 509
278 5 1 2 383 384 394 395 498 499 509 510
279 5 1 2 384 385 395 396 499 500 510 511
280 5 1 2 385 386 396 397 500 501 511 512
281 5 1 2 386 387 397 398 501 502 512 513
282 5 1 2 387 388 398 399 502 503 513 514
283 5 1 2 388 389 399 400 503 504 514 515
284 5 1 2 389 390 400 401 504 505 515 516
285 5 1 2 391 392 402 403 506 507 517 518
286 5 1 2 392 393 403 404 507 508 518 519
287 5 1 2 393 394 404 405 508 509 519 520
288 5 1 2 394 395 405 406 509 510 520 521
289 5 1 2 395 396 406 407 510 511 521 522
290 5 1 2 396 397 407 408 511 512 522 523
291 5 1 2 397 398 408 409 512 513 523 524
292 5 1 2 398 399 409 410 513 514 524 525
293 5 1 2 399 400 410 411 514 515 525 526
294 5 1 2 400 401 411 412 515 516 526 527
295 5 1 2 402 403 413 414 517 518 528 529
296 5 1 2 403 404 414 415 518 519 529 530
297 5 1 2 404 405 415 416 519 520 530 531
298 5 1 2 405 406 416 417 520 521 531 532
299 5 1 2 406 407 417 418 521 522 532 533
300 5 1 2 407 408 418 419 522 523 533 534
301 5 1 2 408 409 419 420 523 524 534 535
302 5 1 2 409 410 420 421 524 525 535 536
303 5 1 2 410 411 421 422 525 526 536 537
304 5 1 2 411 412 422 423 526 527 537 538
305 5 1 2 413 414 424 425 528 529 539 540
306 5 1 2 414 415 425 426 529 530 540 541
307 5 1 2 415 416 426 427 530 531 541 542
308 5 1 2 416 417 427 428 531 532 542 543
309 5 1 2 417 418 428 429 532 533 543 544
310 5 1 2 418 419 429 430 533 534 544 545
311 5 1 2 419 420 430 431 534 535 545 546
312 5 1 2 420 421 431 432 535 536 546 547
313 5 1 2 421 422 432 433 536 537 547 548
314 5 1 2 422 423 433 434 537 538 548 549
315 5 1 2 424 425 435 436 539 540 550 551
316 5 1 2 425 426 436 437 540 541 551 552
317 5 1 2 426 427 437 438 541 542 552 553
318 5 1 2 427 428 438 439 542 543 553 554
319 5 1 2 428 429 439 440 543 544 554 555
320 5 1 2 429 430 440 441 544 545 555 556
321 5 1 2 430 431 441 442 545 546 556 557
322 5 1 2 431 432 442 443 546 547 557 558
323 5 1 2 432 433 443 444 547 548 558 559
324 5 1 2 433 434 444 445 548 549 559 560
325 5 1 2 77 446 83 456 113 561 119 571
326 5 1 2 446 447 456 457 561 562 571 572
327 5 1 2 447 448 457 458 562 563 572 573
328 5 1 2 448 449 458 459 563 564 573 574
329 5 1 2 449 450 459 460 564 565 574 575
330 5 1 2 450 451 460 461 565 566 575 576
331 5 1 2 451 452 461 462 566 567 576 577
332 5 1 2 452 453 462 463 567 568 577 578
333 5 1 2 453 454 463 464 568 569 578 579
334 5 1 2 454 455 464 465 569 570 579 580
335 5 1 2 83 456 89 466 119 571 125 581
336 5 1 2 456 457 466 467 571 572 581 582
337 5 1 2 457 458 467 468 572 573 582 583
338 5 1 2 458 459 468 469 573 574 583 584
339 5 1 2 459 460 469 470 574 575 584 585
340 5 1 2 460 461 470 471 575 576 585 586
341 5 1 2 461 462 471 472 576 577 586 587
342 5 1 2 462 463 472 473 577 578 587 588
343 5 1 2 463 464 473 474 578 579 588 589
344 5 1 2 464 465 474 475 579 580 589 590
345 5 1 2 89 466 95 476 125 581 131 591
346 5 1 2 466 467 476 477 581 582 591 592
347 5 1 2 467 468 477 478 582 583 592 593
348 5 1 2 468 469 478 479 583 584 593 594
349 5 1 2 469 470 479 480 584 585 594 595
350 5 1 2 470 471 480 481 585 586 595 596
351 5 1 2 471 472 481 482 586 587 596 597
352 5 1 2 472 473 482 483 587 588 597 598
353 5 1 2 473 474 483 484 588 589 598 599
354 5 1 2 474 475 484 485 589 590 599 600
355 5 1 2 95 476 101 486 131 591 137 601
356 5 1 2 476 477 486 487 591 592 601 602
357 5 1 2 477 478 487 488 592 593 602 603
358 5 1 2 478 479 488 489 593 594 603 604
359 5 1 2 479 480 489 490 594 595 604 605
360 5 1 2 480 481 490 491 595 596 605 606
361 5 1 2 481 482 491 492 596 597 606 607
362 5 1 2 482 483 492 493 597 598 607 608
363 5 1 2 483 484 493 494 598 599 608 609
364 5 1 2 484 485 494 495 599 600 609 610
365 5 1 2 101 486 107 496 137 601 143 611
366 5 1 2 486 487 496 497 601 602 611 612
367 5 1 2 487 488 497 498 602 603 612 613
368 5 1 2 488 489 498 499 603 604 613 614
369 5 1 2 489 490 499 500 604 605 614 615
370 5 1 2 490 491 500 501 605 606 615 616
371 5 1 2 491 492 501 502 606 607 616 617
372 5 1 2 492 493 502 503 607 608 617 618
373 5 1 2 493 494 503 504 608 609 618 619
374 5 1 2 494 495 504 505 609 610 619 620
375 5 1 2 107 496 506 507 143 611 621 622
376 5 1 2 496 497 507 508 611 612 622 623
377 5 1 2 497 498 508 509 612 613 623 624
378 5 1 2 498 499 509 510 613 614 624 625
379 5 1 2 499 500 510 511 614 615 625 626
380 5 1 2 500 501 511 512 615 616 626 627
381 5 1 2 501 502 512 513 616 617 627 628
382 5 1 2 502 503 513 514 617 618 628 629
383 5 1 2 503 504 514 515 618 619 629 630
384 5 1 2 504 505 515 516 619 620 630 631
385 5 1 2 506 507 517 518 621 622 632 633
386 5 1 2 507 508 518 519 622 623 633 634
387 5 1 2 508 509 519 520 623 624 634 635
388 5 1 2 509 510 520 521 624 625 635 636
389 5 1 2 510 511 521 522 625 626 636 637
390 5 1 2 511 512 522 523 626 627 637 638
391 5 1 2 512 513 523 524 627 628 638 639
392 5 1 2 513 514 524 525 628 629 639 640
393 5 1 2 514 515 525 526 629 630 640 641
394 5 1 2 515 516 526 527 630 631 641 642
395 5 1 2 517 518 528 529 632 633 643 644
396 5 1 2 518 519 529 530 633 634 644 645
397 5 1 2 519 520 530 531 634 635 645 646
398 5 1 2 520 521 531 532 635 636 646 647
399 5 1 2 521 522 532 533 636 637 647 648
400 5 1 2 522 523 533 534 637 638 648 649
401 5 1 2 523 524 534 535 638 639 649 650
402 5 1 2 524 525 535 536 639 640 650 651
403 5 1 2 525 526 536 537 640 641 651 652
404 5 1 2 526 527 537 538 641 642 652 653
405 5 1 2 528 529 539 540 643 644 654 655
406 5 1 2 529 530 540 541 644 645 655 656
407 5 1 2 530 531 541 542 645 646 656 657
408 5 1 2 531 532 542 543 646 647 657 658
409 5 1 2 532 533 543 544 647 648 658 659
410 5 1 2 533 534 544 545 648 649 659 660
411 5 1 2 534 535 545 546 649 650 660 661
412 5 1 2 535 536 546 547 650 651 661 662
413 5 1 2 536 537 547 548 651 652 662 663
414 5 1 2 537 538 548 549 652 653 663 664
415 5 1 2 539 540 550 551 654 655 665 666
416 5 1 2 540 541 551 552 655 656 666 667
417 5 1 2 541 542 552 553 656 657 667 668
418 5 1 2 542 543 553 554 657 658 668 669
419 5 1 2 543 544 554 555 658 659 669 670
420 5 1 2 544 545 555 556 659 660 670 671
421 5 1 2 545 546 556 557 660 661 671 672
422 5 1 2 546 547 557 558 661 662 672 673
423 5 1 2 547 548 558 559 662 663 673 674
424 5 1 2 548 549 559 560 663 664 674 675
425 5 1 2 113 561 119 571 149 676 155 686
426 5 1 2 561 562 571 572 676 677 686 687
427 5 1 2 562 563 572 573 677 678 687 688
428 5 1 2 563 564 573 574 678 679 688 689
429 5 1 2 564 565 574 575 679 680 689 690
430 5 1 2 565 566 575 576 680 681 690 691
431 5 1 2 566 567 576 577 681 682 691 692
432 5 1 2 567 568 577 578 682 683 692 693
433 5 1 2 568 569 578 579 683 684 693 694
434 5 1 2 569 570 579 580 684 685 694 695
435 5 1 2 119 571 125 581 155 686 161 696
436 5 1 2 571 572 581 582 686 687 696 697
437 5 1 2 572 573 582 583 687 688 697 698
438 5 1 2 573 574 583 584 688 689 698 699
439 5 1 2 574 575 584 585 689 690 699 700
440 5 1 2 575 576 585 586 690 691 700 701
441 5 1 2 576 577 586 587 691 692 701 702
442 5 1 2 577 578 587 588 692 693 702 703
443 5 1 2 578 579 588 589 693 694 703 704
444 5 1 2 579 580 589 590 694 695 704 705
445 5 1 2 125 581 131 591 161 696 167 706
446 5 1 2 581 582 591 592 696 697 706 707
447 5 1 2 582 583 592 593 697 698 707 708
448 5 1 2 583 584 593 594 698 699 708 709
449 5 1 2 584 585 594 595 699 700 709 710
450 5 1 2 585 586 595 596 700 701 710 711
451 5 1 2 586 587 596 597 701 702 711 712
452 5 1 2 587 588 597 598 702 703 712 713
453 5 1 2 588 589 598 599 703 704 713 714
454 5 1 2 589 590 599 600 704 705 714 715
455 5 1 2 131 591 137 601 167 706 173 716
456 5 1 2 591 592 601 602 706 707 716 717
457 5 1 2 592 593 602 603 707 708 717 718
458 5 1 2 593 594 603 604 708 709 718 719
459 5 1 2 594 595 604 605 709 710 719 720
460 5 1 2 595 596 605 606 710 711 720 721
461 5 1 2 596 597 606 607 711 712 721 722
462 5 1 2 597 598 607 608 712 713 722 723
463 5 1 2 598 599 608 609 713 714 723 724
464 5 1 2 599 600 609 610 714 715 724 725
465 5 1 2 137 601 143 611 173 716 179 726
466 5 1 2 601 602 611 612 716 717 726 727
467 5 1 2 602 603 612 613 717 718 727 728
468 5 1 2 603 604 613 614 718 719 728 729
469 5 1 2 604 605 614 615 719 720 729 730
470 5 1 2 605 606 615 616 720 721 730 731
471 5 1 2 606 607 616 617 721 722 731 732
472 5 1 2 607 608 617 618 722 723 732 733
473 5 1 2 608 609 618 619 723 724 733 734
474 5 1 2 609 610 619 620 724 725 734 735
475 5 1 2 143 611 621 622 179 726 736 737
476 5 1 2 611 612 622 623 726 727 737 738
477 5 1 2 612 613 623 624 727 728 738 739
478 5 1 2 613 614 624 625 728 729 739 740
479 5 1 2 614 615 625 626 729 730 740 741
480 5 1 2 615 616 626 627 730 731 741 742
481 5 1 2 616 617 627 628 731 732 742 743
482 5 1 2 617 618 628 629 732 733 743 744
483 5 1 2 618 619 629 630 733 734 744 745
484 5 1 2 619 620 630 631 734 735 745 746
485 5 1 2 621 622 632 633 736 737 747 748
486 5 1 2 622 623 633 634 737 738 748 749
487 5 1 2 623 624 634 635 738 739 749 750
488 5 1 2 624 625 635 636 739 740 750 751
489 5 1 2 625 626 636 637 740 741 751 752
490 5 1 2 626 627 637 638 741 742 752 753
491 5 1 2 627 628 638 639 742 743 753 754
492 5 1 2 628 629 639 640 743 744 754 755
493 5 1 2 629 630 640 641 744 745 755 756
494 5 1 2 630 631 641 642 745 746 756 757
495 5 1 2 632 633 643 644 747 748 758 759
496 5 1 2 633 634 644 645 748 749 759 760
497 5 1 2 634 635 645 646 749 750 760 761
498 5 1 2 635 636 646 647 750 751 761 762
499 5 1 2 636 637 647 648 751 752 762 763
500 5 1 2 637 638 648 649 752 753 763 764
501 5 1 2 638 639 649 650 753 754 764 765
502 5 1 2 639 640 650 651 754 755 765 766
503 5 1 2 640 641 651 652 755 756 766 767
504 5 1 2 641 642 652 653 756 757 767 768
505 5 1 2 643 644 654 655 758 759 769 770
506 5 1 2 644 645 655 656 759 760 770 771
507 5 1 2 645 646 656 657 760 761 771 772
508 5 1 2 646 647 657 658 761 762 772 773
509 5 1 2 647 648 658 659 762 763 773 774
510 5 1 2 648 649 659 660 763 764 774 775
511 5 1 2 649 650 660 661 764 765 775 776
512 5 1 2 650 651 661 662 765 766 776 777
513 5 1 2 651 652 662 663 766 767 777 778
514 5 1 2 652 653 663 664 767 768 778 779
515 5 1 2 654 655 665 666 769 770 780 781
516 5 1 2 655 656 666 667 770 771 781 782
517 5 1 2 656 657 667 668 771 772 782 783
518 5 1 2 657 658 668 669 772 773 783 784
519 5 1 2 658 659 669 670 773 774 784 785
520 5 1 2 659 660 670 671 774 775 785 786
521 5 1 2 660 661 671 672 775 776 786 787
522 5 1 2 661 662 672 673 776 777 787 788
523 5 1 2 662 663 673 674 777 778 788 789
524 5 1 2 663 664 674 675 778 779 789 790
525 5 1 2 149 676 155 686 185 791 191 801
526 5 1 2 676 677 686 687 791 792 801 802
527 5 1 2 677 678 687 688 792 793 802 803
528 5 1 2 678 679 688 689 793 794 803 804
529 5 1 2 679 680 689 690 794 795 804 805
530 5 1 2 680 681 690 691 795 796 805 806
531 5 1 2 681 682 691 692 796 797 806 807
532 5 1 2 682 683 692 693 797 798 807 808
533 5 1 2 683 684 693 694 798 799 808 809
534 5 1 2 684 685 694 695 799 800 809 810
535 5 1 2 155 686 161 696 191 801 197 811
536 5 1 2 686 687 696 697 801 802 811 812
537 5 1 2 687 688 697 698 802 803 812 813
538 5 1 2 688 689 698 699 803 804 813 814
539 5 1 2 689 690 699 700 804 805 814 815
540 5 1 2 690 691 700 701 805 806 815 816
541 5 1 2 691 692 701 702 806 807 816 817
542 5 1 2 692 693 702 703 807 808 817 818
543 5 1 2 693 694 703 704 808 809 818 819
544 5 1 2 694 695 704 705 809 810 819 820
545 5 1 2 161 696 167 706 197 811 203 821
546 5 1 2 696 697 706 707 811 812 821 822
547 5 1 2 697 698 707 708 812 813 822 823
548 5 1 2 698 699 708 709 813 814 823 824
549 5 1 2 699 700 709 710 814 815 824 825
550 5 1 2 700 701 710 711 815 816 825 826
551 5 1 2 701 702 711 712 816 817 826 827
552 5 1 2 702 703 712 713 817 818 827 828
553 5 1 2 703 704 713 714 818 819 828 829
554 5 1 2 704 705 714 715 819 820 829 830
555 5 1 2 167 706 173 716 203 821 209 831
556 5 1 2 706 707 716 717 821 822 831 832
557 5 1 2 707 708 717 718 822 823 832 833
558 5 1 2 708 709 718 719 823 824 833 834
559 5 1 2 709 710 719 720 824 825 834 835
560 5 1 2 710 711 720 721 825 826 835 836
561 5 1 2 711 712 721 722 826 827 836 837
562 5 1 2 712 713 722 723 827 828 837 838
563 5 1 2 713 714 723 724 828 829 838 839
564 5 1 2 714 715 724 725 829 830 839 840
565 5 1 2 173 716 179 726 209 831 215 841
566 5 1 2 716 717 726 727 831 832 841 842
567 5 1 2 717 718 727 728 832 833 842 843
568 5 1 2 718 719 728 729 833 834 843 844
569 5 1 2 719 720 729 730 834 835 844 845
570 5 1 2 720 721 730 731 835 836 845 846
571 5 1 2 721 722 731 732 836 837 846 847
572 5 1 2 722 723 732 733 837 838 847 848
573 5 1 2 723 724 733 734 838 839 848 849
574 5 1 2 724 725 734 735 839 840 849 850
575 5 1 2 179 726 736 737 215 841 851 852
576 5 1 2 726 727 737 738 841 842 852 853
577 5 1 2 727 728 738 739 842 843 853 854
578 5 1 2 728 729 739 740 843 844 854 855
579 5 1 2 729 730 740 741 844 845 855 856
580 5 1 2 730 731 741 742 845 846 856 857
581 5 1 2 731 732 742 743 846 847 857 858
582 5 1 2 732 733 743 744 847 848 858 859
583 5 1 2 733 734 744 745 848 849 859 860
584 5 1 2 734 735 745 746 849 850 860 861
585 5 1 2 736 737 747 748 851 852 862 863
586 5 1 2 737 738 748 749 852 853 863 864
587 5 1 2 738 739 749 750 853 854 864 865
588 5 1 2 739 740 750 751 854 855 865 866
589 5 1 2 740 741 751 752 855 856 866 867
590 5 1 2 741 742 752 753 856 857 867 868
591 5 1 2 742 743 753 754 857 858 868 869
592 5 1 2 743 744 754 755 858 859 869 870
593 5 1 2 744 745 755 756 859 860 870 871
594 5 1 2 745 746 756 757 860 861 871 872
595 5 1 2 747 748 758 759 862 863 873 874
596 5 1 2 748 749 759 760 863 864 874 875
597 5 1 2 749 750 760 761 864 865 875 876
598 5 1 2 750 751 761 762 865 866 876 877
599 5 1 2 751 752 762 763 866 867 877 878
600 5 1 2 752 753 763 764 867 868 878 879
601 5 1 2 753 754 764 765 868 869 879 880
602 5 1 2 754 755 765 766 869 870 880 881
603 5 1 2 755 756 766 767 870 871 881 882
604 5 1 2 756 757 767 768 871 872 882 883
605 5 1 2 758 759 769 770 873 874 884 885
606 5 1 2 759 760 770 771 874 875 885 886
607 5 1 2 760 761 771 772 875 876 886 887
608 5 1 2 761 762 772 773 876 877 887 888
609 5 1 2 762 763 773 774 877 878 888 889
610 5 1 2 763 764 774 775 878 879 889 890
611 5 1 2 764 765 775 776 879 880 890 891
612 5 1 2 765 766 776 777 880 881 891 892
613 5 1 2 766 767 777 778 881 882 892 893
614 5 1 2 767 768 778 779 882 883 893 894
615 5 1 2 769 770 780 781 884 885 895 896
616 5 1 2 770 771 781 782 885 886 896 897
617 5 1 2 771 772 782 783 886 887 897 898
618 5 1 2 772 773 783 784 887 888 898 899
619 5 1 2 773 774 784 785 888 889 899 900
620 5 1 2 774 775 785 786 889 890 900 901
621 5 1 2 775 776 786 787 890 891 901 902
622 5 1 2 776 777 787 788 891 892 902 903
623 5 1 2 777 778 788 789 892 893 903 904
624 5 1 2 778 779 789 790 893 894 904 905
625 5 1 2 185 791 191 801 906 907 917 918
626 5 1 2 791 792 801 802 907 908 918 919
627 5 1 2 792 793 802 803 908 909 919 920
628 5 1 2 793 794 803 804 909 910 920 921
629 5 1 2 794 795 804 805 910 911 921 922
630 5 1 2 795 796 805 806 911 912 922 923
631 5 1 2 796 797 806 807 912 913 923 924
632 5 1 2 797 798 807 808 913 914 924 925
633 5 1 2 798 799 808 809 914 915 925 926
634 5 1 2 799 800 809 810 915 916 926 927
635 5 1 2 191 801 197 811 917 918 928 929
636 5 1 2 801 802 811 812 918 919 929 930
637 5 1 2 802 803 812 813 919 920 930 931
638 5 1 2 803 804 813 814 920 921 931 932
639 5 1 2 804 805 814 815 921 922 932 933
640 5 1 2 805 806 815 816 922 923 933 934
641 5 1 2 806 807 816 817 923 924 934 935
642 5 1 2 807 808 817 818 924 925 935 936
643 5 1 2 808 809 818 819 925 926 936 937
644 5 1 2 809 810 819 820 926 927 937 938
645 5 1 2 197 811 203 821 928 929 939 940
646 5 1 2 811 812 821 822 929 930 940 941
647 5 1 2 812 813 822 823 930 931 941 942
648 5 1 2 813 814 823 824 931 932 942 943
649 5 1 2 814 815 824 825 932 933 943 944
650 5 1 2 815 816 825 826 933 934 944 945
651 5 1 2 816 817 826 827 934 935 945 946
652 5 1 2 817 818 827 828 935 936 946 947
653 5 1 2 818 819 828 829 936 937 947 948
654 5 1 2 819 820 829 830 937 938 948 949
655 5 1 2 203 821 209 831 939 940 950 951
656 5 1 2 821 822 831 832 940 941 951 952
657 5 1 2 822 823 832 833 941 942 952 953
658 5 1 2 823 824 833 834 942 943 953 954
659 5 1 2 824 825 834 835 943 944 954 955
660 5 1 2 825 826 835 836 944 945 955 956
661 5 1 2 826 827 836 837 945 946 956 957
662 5 1 2 827 828 837 838 946 947 957 958
663 5 1 2 828 829 838 839 947 948 958 959
664 5 1 2 829 830 839 840 948 949 959 960
665 5 1 2 209 831 215 841 950 951 961 962
666 5 1 2 831 832 841 842 951 952 962 963
667 5 1 2 832 833 842 843 952 953 963 964
668 5 1 2 833 834 843 844 953 954 964 965
669 5 1 2 834 835 844 845 954 955 965 966
670 5 1 2 835 836 845 846 955 956 966 967
671 5 1 2 836 837 846 847 956 957 967 968
672 5 1 2 837 838 847 848 957 958 968 969
673 5 1 2 838 839 848 849 958 959 969 970
674 5 1 2 839 840 849 850 959 960 970 971
675 5 1 2 215 841 851 852 961 962 972 973
676 5 1 2 841 842 852 853 962 963 973 974
677 5 1 2 842 843 853 854 963 964 974 975
678 5 1 2 843 844 854 855 964 965 975 976
679 5 1 2 844 845 855 856 965 966 976 977
680 5 1 2 845 846 856 857 966 967 977 978
681 5 1 2 846 847 857 858 967 968 978 979
682 5 1 2 847 848 858 859 968 969 979 980
683 5 1 2 848 849 859 860 969 970 980 981
684 5 1 2 849 850 860 861 970 971 981 982
685 5 1 2 851 852 862 863 972 973 983 984
686 5 1 2 852 853 863 864 973 974 984 985
687 5 1 2 853 854 864 865 974 975 985 986
688 5 1 2 854 855 865 866 975 976 986 987
689 5 1 2 855 856 866 867 976 977 987 988
690 5 1 2 856 857 867 868 977 978 988 989
691 5 1 2 857 858 868 869 978 979 989 990
692 5 1 2 858 859 869 870 979 980 990 991
693 5 1 2 859 860 870 871 980 981 991 992
694 5 1 2 860 861 871 872 981 982 992 993
695 5 1 2 862 863 873 874 983 984 994 995
696 5 1 2 863 864 874 875 984 985 995 996
697 5 1 2 864 865 875 876 985 986 996 997
698 5 1 2 865 866 876 877 986 987 997 998
699 5 1 2 866 867 877 878 987 988 998 999
700 5 1 2 867 868 878 879 988 989 999 1000
701 5 1 2 868 869 879 880 989 990 1000 1001
702 5 1 2 869 870 880 881 990 991 1001 1002
703 5 1 2 870 871 881 882 991 992 1002 1003
704 5 1 2 871 872 882 883 992 993 1003 1004
705 5 1 2 873 874 884 885 994 995 1005 1006
706 5 1 2 874 875 885 886 995 996 1006 1007
707 5 1 2 875 876 886 887 996 997 1007 1008
708 5 1 2 876 877 887 888 997 998 1008 1009
709 5 1 2 877 878 888 889 998 999 1009 1010
710 5 1 2 878 879 889 890 999 1000 1010 1011
711 5 1 2 879 880 890 891 1000 1001 1011 1012
712 5 1 2 880 881 891 892 1001 1002 1012 1013
713 5 1 2 881 882 892 893 1002 1003 1013 1014
714 5 1 2 882 883 893 894 1003 1004 1014 1015
715 5 1 2 884 885 895 896 1005 1006 1016 1017
716 5 1 2 885 886 896 897 1006 1007 1017 1018
717 5 1 2 886 887 897 898 1007 1008 1018 1019
718 5 1 2 887 888 898 899 1008 1009 1019 1020
719 5 1 2 888 889 899 900 1009 1010 1020 1021
720 5 1 2 889 890 900 901 1010 1011 1021 1022
721 5 1 2 890 891 901 902 1011 1012 1022 1023
722 5 1 2 891 892 902 903 1012 1013 1023 1024
723 5 1 2 892 893 903 904 1013 1014 1024 1025
724 5 1 2 893 894 904 905 1014 1015 1025 1026
725 5 1 2 906 907 917 918 1027 1028 1038 1039
726 5 1 2 907 908 918 919 1028 1029 1039 1040
727 5 1 2 908 909 919 920 1029 1030 1040 1041
728 5 1 2 909 910 920 921 1030 1031 1041 1042
729 5 1 2 910 911 921 922 1031 1032 1042 1043
730 5 1 2 911 912 922 923 1032 1033 1043 1044
731 5 1 2 912 913 923 924 1033 1034 1044 1045
732 5 1 2 913 914 924 925 1034 1035 1045 1046
733 5 1 2 914 915 925 926 1035 1036 1046 1047
734 5 1 2 915 916 926 927 1036 1037 1047 1048
735 5 1 2 917 918 928 929 1038 1039 1049 1050
736 5 1 2 918 919 929 930 1039 1040 1050 1051
737 5 1 2 919 920 930 931 1040 1041 1051 1052
738 5 1 2 920 921 931 932 1041 1042 1052 1053
739 5 1 2 921 922 932 933 1042 1043 1053 1054
740 5 1 2 922 923 933 934 1043 1044 1054 1055
741 5 1 2 923 924 934 935 1044 1045 1055 1056
742 5 1 2 924 925 935 936 1045 1046 1056 1057
743 5 1 2 925 926 936 937 1046 1047 1057 1058
744 5 1 2 926 927 937 938 1047 1048 1058 1059
745 5 1 2 928 929 939 940 1049 1050 1060 1061
746 5 1 2 929 930 940 941 1050 1051 1061 1062
747 5 1 2 930 931 941 942 1051 1052 1062 1063
748 5 1 2 931 932 942 943 1052 1053 1063 1064
749 5 1 2 932 933 943 944 1053 1054 1064 1065
750 5 1 2 933 934 944 945 1054 1055 1065 1066
751 5 1 2 934 935 945 946 1055 1056 1066 1067
752 5 1 2 935 936 946 947 1056 1057 1067 1068
753 5 1 2 936 937 947 948 1057 1058 1068 1069
754 5 1 2 937 938 948 949 1058 1059 1069 1070
755 5 1 2 939 940 950 951 1060 1061 1071 1072
756 5 1 2 940 941 951 952 1061 1062 1072 1073
757 5 1 2 941 942 952 953 1062 1063 1073 1074
758 5 1 2 942 943 953 954 1063 1064 1074 1075
759 5 1 2 943 944 954 955 1064 1065 1075 1076
760 5 1 2 944 945 955 956 1065 1066 1076 1077
761 5 1 2 945 946 956 957 1066 1067 1077 1078
762 5 1 2 946 947 957 958 1067 1068 1078 1079
763 5 1 2 947 948 958 959 1068 1069 1079 1080
764 5 1 2 948 949 959 960 1069 1070 1080 1081
765 5 1 2 950 951 961 962 1071 1072 1082 1083
766 5 1 2 951 952 962 963 1072 1073 1083 1084
767 5 1 2 952 953 963 964 1073 1074 1084 1085
768 5 1 2 953 954 964 965 1074 1075 1085 1086
769 5 1 2 954 955 965 966 1075 1076 1086 1087
770 5 1 2 955 956 966 967 1076 1077 1087 1088
771 5 1 2 956 957 967 968 1077 1078 1088 1089
772 5 1 2 957 958 968 969 1078 1079 1089 1090
773 5 1 2 958 959 969 970 1079 1080 1090 1091
774 5 1 2 959 960 970 971 1080 1081 1091 1092
775 5 1 2 961 962 972 973 1082 1083 1093 1094
776 5 1 2 962 963 973 974 1083 1084 1094 1095
777 5 1 2 963 964 974 975 1084 1085 1095 1096
778 5 1 2 964 965 975 976 1085 1086 1096 1097
779 5 1 2 965 966 976 977 1086 1087 1097 1098
780 5 1 2 966 967 977 978 1087 1088 1098 1099
781 5 1 2 967 968 978 979 1088 1089 1099 1100
782 5 1 2 968 969 979 980 1089 1090 1100 1101
783 5 1 2 969 970 980 981 1090 1091 1101 1102
784 5 1 2 970 971 981 982 1091 1092 1102 1103
785 5 1 2 972 973 983 984 1093 1094 1104 1105
786 5 1 2 973 974 984 985 1094 1095 1105 1106
787 5 1 2 974 975 985 986 1095 1096 1106 1107
788 5 1 2 975 976 986 987 1096 1097 1107 1108
789 5 1 2 976 977 987 988 1097 1098 1108 1109
790 5 1 2 977 978 988 989 1098 1099 1109 1110
791 5 1 2 978 979 989 990 1099 1100 1110 1111
792 5 1 2 979 980 990 991 1100 1101 1111 1112
793 5 1 2 980 981 991 992 1101 1102 1112 1113
794 5 1 2 981 982 992 993 1102 1103 1113 1114
795 5 1 2 983 984 994 995 1104 1105 1115 1116
796 5 1 2 984 985 995 996 1105 1106 1116 1117
797 5 1 2 985 986 996 997 1106 1107 1117 1118
798 5 1 2 986 987 997 998 1107 1108 1118 1119
799 5 1 2 987 988 998 999 1108 1109 1119 1120
800 5 1 2 988 989 999 1000 1109 1110 1120 1121
801 5 1 2 989 990 1000 1001 1110 1111 1121 1122
802 5 1 2 990 991 1001 1002 1111 1112 1122 1123
803 5 1 2 991 992 1002 1003 1112 1113 1123 1124
804 5 1 2 992 993 1003 1004 1113 1114 1124 1125
805 5 1 2 994 995 1005 1006 1115 1116 1126 1127
806 5 1 2 995 996 1006 1007 1116 1117 1127 1128
807 5 1 2 996 997 1007 1008 1117 1118 1128 1129
808 5 1 2 997 998 1008 1009 1118 1119 1129 1130
809 5 1 2 998 999 1009 1010 1119 1120 1130 1131
810 5 1 2 999 1000 1010 1011 1120 1121 1131 1132
811 5 1 2 1000 1001 1011 1012 1121 1122 1132 1133
812 5 1 2 1001 1002 1012 1013 1122 1123 1133 1134
813 5 1 2 1002 1003 1013 1014 1123 1124 1134 1135
814 5 1 2 1003 1004 1014 1015 1124 1125 1135 1136
815 5 1 2 1005 1006 1016 1017 1126 1127 1137 1138
816 5 1 2 1006 1007 1017 1018 1127 1128 1138 1139
817 5 1 2 1007 1008 1018 1019 1128 1129 1139 1140
818 5 1 2 1008 1009 1019 1020 1129 1130 1140 1141
819 5 1 2 1009 1010 1020 1021 1130 1131 1141 1142
820 5 1 2 1010 1011 1021 1022 1131 1132 1142 1143
821 5 1 2 1011 1012 1022 1023 1132 1133 1143 1144
822 5 1 2 1012 1013 1023 1024 1133 1134 1144 1145
823 5 1 2 1013 1014 1024 1025 1134 1135 1145 1146
824 5 1 2 1014 1015 1025 1026 1135 1136 1146 1147
825 5 1 2 1027 1028 1038 1039 1148 1149 1159 1160
826 5 1 2 1028 1029 1039 1040 1149 1150 1160 1161
827 5 1 2 1029 1030 1040 1041 1150 1151 1161 1162
828 5 1 2 1030 1031 1041 1042 1151 1152 1162 1163
829 5 1 2 1031 1032 1042 1043 1152 1153 1163 1164
830 5 1 2 1032 1033 1043 1044 1153 1154 1164 1165
831 5 1 2 1033 1034 1044 1045 1154 1155 1165 1166
832 5 1 2 1034 1035 1045 1046 1155 1156 1166 1167
833 5 1 2 1035 1036 1046 1047 1156 1157 1167 1168
834 5 1 2 1036 1037 1047 1048 1157 1158 1168 1169
835 5 1 2 1038 1039 1049 1050 1159 1160 1170 1171
836 5 1 2 1039 1040 1050 1051 1160 1161 1171 1172
837 5 1 2 1040 1041 1051 1052 1161 1162 1172 1173
838 5 1 2 1041 1042 1052 1053 1162 1163 1173 1174
839 5 1 2 1042 1043 1053 1054 1163 1164 1174 1175
840 5 1 2 1043 1044 1054 1055 1164 1165 1175 1176
841 5 1 2 1044 1045 1055 1056 1165 1166 1176 1177
842 5 1 2 1045 1046 1056 1057 1166 1167 1177 1178
843 5 1 2 1046 1047 1057 1058 1167 1168 1178 1179
844 5 1 2 1047 1048 1058 1059 1168 1169 1179 1180
845 5 1 2 1049 1050 1060 1061 1170 1171 1181 1182
846 5 1 2 1050 1051 1061 1062 1171 1172 1182 1183
847 5 1 2 1051 1052 1062 1063 1172 1173 1183 1184
848 5 1 2 1052 1053 1063 1064 1173 1174 1184 1185
849 5 1 2 1053 1054 1064 1065 1174 1175 1185 1186
850 5 1 2 1054 1055 1065 1066 1175 1176 1186 1187
851 5 1 2 1055 1056 1066 1067 1176 1177 1187 1188
852 5 1 2 1056 1057 1067 1068 1177 1178 1188 1189
853 5 1 2 1057 1058 1068 1069 1178 1179 1189 1190
854 5 1 2 1058 1059 1069 1070 1179 1180 1190 1191
855 5 1 2 1060 1061 1071 1072 1181 1182 1192 1193
856 5 1 2 1061 1062 1072 1073 1182 1183 1193 1194
857 5 1 2 1062 1063 1073 1074 1183 1184 1194 1195
858 5 1 2 1063 1064 1074 1075 1184 1185 1195 1196
859 5 1 2 1064 1065 1075 1076 1185 1186 1196 1197
860 5 1 2 1065 1066 1076 1077 1186 1187 1197 1198
861 5 1 2 1066 1067 1077 1078 1187 1188 1198 1199
862 5 1 2 1067 1068 1078 1079 1188 1189 1199 1200
863 5 1 2 1068 1069 1079 1080 1189 1190 1200 1201
864 5 1 2 1069 1070 1080 1081 1190 1191 1201 1202
865 5 1 2 1071 1072 1082 1083 1192 1193 1203 1204
866 5 1 2 1072 1073 1083 1084 1193 1194 1204 1205
867 5 1 2 1073 1074 1084 1085 1194 1195 1205 1206
868 5 1 2 1074 1075 1085 1086 1195 1196 1206 1207
869 5 1 2 1075 1076 1086 1087 1196 1197 1207 1208
870 5 1 2 1076 1077 1087 1088 1197 1198 1208 1209
871 5 1 2 1077 1078 1088 1089 1198 1199 1209 1210
872 5 1 2 1078 1079 1089 1090 1199 1200 1210 1211
873 5 1 2 1079 1080 1090 1091 1200 1201 1211 1212
874 5 1 2 1080 1081 1091 1092 1201 1202 1212 1213
875 5 1 2 1082 1083 1093 1094 1203 1204 1214 1215
876 5 1 2 1083 1084 1094 1095 1204 1205 1215 1216
877 5 1 2 1084 1085 1095 1096 1205 1206 1216 1217
878 5 1 2 1085 1086 1096 1097 1206 1207 1217 1218
879 5 1 2 1086 1087 1097 1098 1207 1208 1218 1219
880 5 1 2 1087 1088 1098 1099 1208 1209 1219 1220
881 5 1 2 1088 1089 1099 1100 1209 1210 1220 1221
882 5 1 2 1089 1090 1100 1101 1210 1211 1221 1222
883 5 1 2 1090 1091 1101 1102 1211 1212 1222 1223
884 5 1 2 1091 1092 1102 1103 1212 1213 1223 1224
885 5 1 2 1093 1094 1104 1105 1214 1215 1225 1226
886 5 1 2 1094 1095 1105 1106 1215 1216 1226 1227
887 5 1 2 1095 1096 1106 1107 1216 1217 1227 1228
888 5 1 2 1096 1097 1107 1108 1217 1218 1228 1229
889 5 1 2 1097 1098 1108 1109 1218 1219 1229 1230
890 5 1 2 1098 1099 1109 1110 1219 1220 1230 1231
891 5 1 2 1099 1100 1110 1111 1220 1221 1231 1232
892 5 1 2 1100 1101 1111 1112 1221 1222 1232 1233
893 5 1 2 1101 1102 1112 1113 1222 1223 1233 1234
894 5 1 2 1102 1103 1113 1114 1223 1224 1234 1235
895 5 1 2 1104 1105 1115 1116 1225 1226 1236 1237
896 5 1 2 1105 1106 1116 1117 1226 1227 1237 1238
897 5 1 2 1106 1107 1117 1118 1227 1228 1238 1239
898 5 1 2 1107 1108 1118 1119 1228 1229 1239 1240
899 5 1 2 1108 1109 1119 1120 1229 1230 1240 1241
900 5 1 2 1109 1110 1120 1121 1230 1231 1241 1242
901 5 1 2 1110 1111 1121 1122 1231 1232 1242 1243
902 5 1 2 1111 1112 1122 1123 1232 1233 1243 1244
903 5 1 2 1112 1113 1123 1124 1233 1234 1244 1245
904 5 1 2 1113 1114 1124 1125 1234 1235 1245 1246
905 5 1 2 1115 1116 1126 1127 1236 1237 1247 1248
906 5 1 2 1116 1117 1127 1128 1237 1238 1248 1249
907 5 1 2 1117 1118 1128 1129 1238 1239 1249 1250
908 5 1 2 1118 1119 1129 1130 1239 1240 1250 1251
909 5 1 2 1119 1120 1130 1131 1240 1241 1251 1252
910 5 1 2 1120 1121 1131 1132 1241 1242 1252 1253
911 5 1 2 1121 1122 1132 1133 1242 1243 1253 1254
912 5 1 2 1122 1123 1133 1134 1243 1244 1254 1255
913 5 1 2 1123 1124 1134 1135 1244 1245 1255 1256
914 5 1 2 1124 1125 1135 1136 1245 1246 1256 1257
915 5 1 2 1126 1127 1137 1138 1247 1248 1258 1259
916 5 1 2 1127 1128 1138 1139 1248 1249 1259 1260
917 5 1 2 1128 1129 1139 1140 1249 1250 1260 1261
918 5 1 2 1129 1130 1140 1141 1250 1251 1261 1262
919 5 1 2 1130 1131 1141 1142 1251 1252 1262 1263
920 5 1 2 1131 1132 1142 1143 1252 1253 1263 1264
921 5 1 2 1132 1133 1143 1144 1253 1254 1264 1265
922 5 1 2 1133 1134 1144 1145 1254 1255 1265 1266
923 5 1 2 1134 1135 1145 1146 1255 1256 1266 1267
924 5 1 2 1135 1136 1146 1147 1256 1257 1267 1268
925 5 1 2 1148 1149 1159 1160 1269 1270 1280 1281
926 5 1 2 1149 1150 1160 1161 1270 1271 1281 1282
927 5 1 2 1150 1151 1161 1162 1271 1272 1282 1283
928 5 1 2 1151 1152 1162 1163 1272 1273 1283 1284
929 5 1 2 1152 1153 1163 1164 1273 1274 1284 1285
930 5 1 2 1153 1154 1164 1165 1274 1275 1285 1286
931 5 1 2 1154 1155 1165 1166 1275 1276 1286 1287
932 5 1 2 1155 1156 1166 1167 1276 1277 1287 1288
933 5 1 2 1156 1157 1167 1168 1277 1278 1288 1289
934 5 1 2 1157 1158 1168 1169 1278 1279 1289 1290
935 5 1 2 1159 1160 1170 1171 1280 1281 1291 1292
936 5 1 2 1160 1161 1171 1172 1281 1282 1292 1293
937 5 1 2 1161 1162 1172 1173 1282 1283 1293 1294
938 5 1 2 1162 1163 1173 1174 1283 1284 1294 1295
939 5 1 2 1163 1164 1174 1175 1284 1285 1295 1296
940 5 1 2 1164 1165 1175 1176 1285 1286 1296 1297
941 5 1 2 1165 1166 1176 1177 1286 1287 1297 1298
942 5 1 2 1166 1167 1177 1178 1287 1288 1298 1299
943 5 1 2 1167 1168 1178 1179 1288 1289 1299 1300
944 5 1 2 1168 1169 1179 1180 1289 1290 1300 1301
945 5 1 2 1170 1171 1181 1182 1291 1292 1302 1303
946 5 1 2 1171 1172 1182 1183 1292 1293 1303 1304
947 5 1 2 1172 1173 1183 1184 1293 1294 1304 1305
948 5 1 2 1173 1174 1184 1185 1294 1295 1305 1306
949 5 1 2 1174 1175 1185 1186 1295 1296 1306 1307
950 5 1 2 1175 1176 1186 1187 1296 1297 1307 1308
951 5 1 2 1176 1177 1187 1188 1297 1298 1308 1309
952 5 1 2 1177 1178 1188 1189 1298 1299 1309 1310
953 5 1 2 1178 1179 1189 1190 1299 1300 1310 1311
954 5 1 2 1179 1180 1190 1191 1300 1301 1311 1312
955 5 1 2 1181 1182 1192 1193 1302 1303 1313 1314
956 5 1 2 1182 1183 1193 1194 1303 1304 1314 1315
957 5 1 2 1183 1184 1194 1195 1304 1305 1315 1316
958 5 1 2 1184 1185 1195 1196 1305 1306 1316 1317
959 5 1 2 1185 1186 1196 1197 1306 1307 1317 1318
960 5 1 2 1186 1187 1197 1198 1307 1308 1318 1319
961 5 1 2 1187 1188 1198 1199 1308 1309 1319 1320
962 5 1 2 1188 1189 1199 1200 1309 1310 1320 1321
963 5 1 2 1189 1190 1200 1201 1310 1311 1321 1322
964 5 1 2 1190 1191 1201 1202 1311 1312 1322 1323
965 5 1 2 1192 1193 1203 1204 1313 1314 1324 1325
966 5 1 2 1193 1194 1204 1205 1314 1315 1325 1326
967 5 1 2 1194 1195 1205 1206 1315 1316 1326 1327
968 5 1 2 1195 1196 1206 1207 1316 1317 1327 1328
969 5 1 2 1196 1197 1207 1208 1317 1318 1328 1329
970 5 1 2 1197 1198 1208 1209 1318 1319 1329 1330
971 5 1 2 1198 1199 1209 1210 1319 1320 1330 1331
972 5 1 2 1199 1200 1210 1211 1320 1321 1331 1332
973 5 1 2 1200 1201 1211 1212 1321 1322 1332 1333
974 5 1 2 1201 1202 1212 1213 1322 1323 1333 1334
975 5 1 2 1203 1204 1214 1215 1324 1325 1335 1336
976 5 1 2 1204 1205 1215 1216 1325 1326 1336 1337
977 5 1 2 1205 1206 1216 1217 1326 1327 1337 1338
978 5 1 2 1206 1207 1217 1218 1327 1328 1338 1339
979 5 1 2 1207 1208 1218 1219 1328 1329 1339 1340
980 5 1 2 1208 1209 1219 1220 1329 1330 1340 1341
981 5 1 2 1209 1210 1220 1221 1330 1331 1341 1342
982 5 1 2 1210 1211 1221 1222 1331 1332 1342 1343
983 5 1 2 1211 1212 1222 1223 1332 1333 1343 1344
984 5 1 2 1212 1213 1223 1224 1333 1334 1344 1345
985 5 1 2 1214 1215 1225 1226 1335 1336 1346 1347
986 5 1 2 1215 1216 1226 1227 1336 1337 1347 1348
987 5 1 2 1216 1217 1227 1228 1337 1338 1348 1349
988 5 1 2 1217 1218 1228 1229 1338 1339 1349 1350
989 5 1 2 1218 1219 1229 1230 1339 1340 1350 1351
990 5 1 2 1219 1220 1230 1231 1340 1341 1351 1352
991 5 1 2 1220 1221 1231 1232 1341 1342 1352 1353
992 5 1 2 1221 1222 1232 1233 1342 1343 1353 1354
993 5 1 2 1222 1223 1233 1234 1343 1344 1354 1355
994 5 1 2 1223 1224 1234 1235 1344 1345 1355 1356
995 5 1 2 1225 1226 1236 1237 1346 1347 1357 1358
996 5 1 2 1226 1227 1237 1238 1347 1348 1358 1359
997 5 1 2 1227 1228 1238 1239 1348 1349 1359 1360
998 5 1 2 1228 1229 1239 1240 1349 1350 1360 1361
999 5 1 2 1229 1230 1240 1241 1350 1351 1361 1362
1000 5 1 2 1230 1231 1241 1242 1351 1352 1362 1363
1001 5 1 2 1231 1232 1242 1243 1352 1353 1363 1364
1002 5 1 2 1232 1233 1243 1244 1353 1354 1364 1365
1003 5 1 2 1233 1234 1244 1245 1354 1355 1365 1366
1004 5 1 2 1234 1235 1245 1246 1355 1356 1366 1367
1005 5 1 2 1236 1237 1247 1248 1357 1358 1368 1369
1006 5 1 2 1237 1238 1248 1249 1358 1359 1369 1370
1007 5 1 2 1238 1239 1249 1250 1359 1360 1370 1371
1008 5 1 2 1239 1240 1250 1251 1360 1361 1371 1372
1009 5 1 2 1240 1241 1251 1252 1361 1362 1372 1373
1010 5 1 2 1241 1242 1252 1253 1362 1363 1373 1374
1011 5 1 2 1242 1243 1253 1254 1363 1364 1374 1375
1012 5 1 2 1243 1244 1254 1255 1364 1365 1375 1376
1013 5 1 2 1244 1245 1255 1256 1365 1366 1376 1377
1014 5 1 2 1245 1246 1256 1257 1366 1367 1377 1378
1015 5 1 2 1247 1248 1258 1259 1368 1369 1379 1380
1016 5 1 2 1248 1249 1259 1260 1369 1370 1380 1381
1017 5 1 2 1249 1250 1260 1261 1370 1371 1381 1382
1018 5 1 2 1250 1251 1261 1262 1371 1372 1382 1383
1019 5 1 2 1251 1252 1262 1263 1372 1373 1383 1384
1020 5 1 2 1252 1253 1263 1264 1373 1374 1384 1385
1021 5 1 2 1253 1254 1264 1265 1374 1375 1385 1386
1022 5 1 2 1254 1255 1265 1266 1375 1376 1386 1387
1023 5 1 2 1255 1256 1266 1267 1376 1377 1387 1388
1024 5 1 2 1256 1257 1267 1268 1377 1378 1388 1389
1025 5 1 2 1269 1270 1280 1281 1390 1391 1401 1402
1026 5 1 2 1270 1271 1281 1282 1391 1392 1402 1403
1027 5 1 2 1271 1272 1282 1283 1392 1393 1403 1404
1028 5 1 2 1272 1273 1283 1284 1393 1394 1404 1405
1029 5 1 2 1273 1274 1284 1285 1394 1395 1405 1406
1030 5 1 2 1274 1275 1285 1286 1395 1396 1406 1407
1031 5 1 2 1275 1276 1286 1287 1396 1397 1407 1408
1032 5 1 2 1276 1277 1287 1288 1397 1398 1408 1409
1033 5 1 2 1277 1278 1288 1289 1398 1399 1409 1410
1034 5 1 2 1278 1279 1289 1290 1399 1400 1410 1411
1035 5 1 2 1280 1281 1291 1292 1401 1402 1412 1413
1036 5 1 2 1281 1282 1292 1293 1402 1403 1413 1414
1037 5 1 2 1282 1283 1293 1294 1403 1404 1414 1415
1038 5 1 2 1283 1284 1294 1295 1404 1405 1415 1416
1039 5 1 2 1284 1285 1295 1296 1405 1406 1416 1417
1040 5 1 2 1285 1286 1296 1297 1406 1407 1417 1418
1041 5 1 2 1286 1287 1297 1298 1407 1408 1418 1419
1042 5 1 2 1287 1288 1298 1299 1408 1409 1419 1420
1043 5 1 2 1288 1289 1299 1300 1409 1410 1420 1421
1044 5 1 2 1289 1290 1300 1301 1410 1411 1421 1422
1045 5 1 2 1291 1292 1302 1303 1412 1413 1423 1424
1046 5 1 2 1292 1293 1303 1304 1413 1414 1424 1425
1047 5 1 2 1293 1294 1304 1305 1414 1415 1425 1426
1048 5 1 2 1294 1295 1305 1306 1415 1416 1426 1427
1049 5 1 2 1295 1296 1306 1307 1416 1417 1427 1428
1050 5 1 2 1296 1297 1307 1308 1417 1418 1428 1429
1051 5 1 2 1297 1298 1308 1309 1418 1419 1429 1430
1052 5 1 2 1298 1299 1309 1310 1419 1420 1430 1431
1053 5 1 2 1299 1300 1310 1311 1420 1421 1431 1432
1054 5 1 2 1300 1301 1311 1312 1421 1422 1432 1433
1055 5 1 2 1302 1303 1313 1314 1423 1424 1434 1435
1056 5 1 2 1303 1304 1314 1315 1424 1425 1435 1436
1057 5 1 2 1304 1305 1315 1316 1425 1426 1436 1437
1058 5 1 2 1305 1306 1316 1317 1426 1427 1437 1438
1059 5 1 2 1306 1307 1317 1318 1427 1428 1438 1439
1060 5 1 2 1307 1308 1318 1319 1428 1429 1439 1440
1061 5 1 2 1308 1309 1319 1320 1429 1430 1440 1441
1062 5 1 2 1309 1310 1320 1321 1430 1431 1441 1442
1063 5 1 2 1310 1311 1321 1322 1431 1432 1442 1443
1064 5 1 2 1311 1312 1322 1323 1432 1433 1443 1444
1065 5 1 2 1313 1314 1324 1325 1434 1435 1445 1446
1066 5 1 2 1314 1315 1325 1326 1435 1436 1446 1447
1067 5 1 2 1315 1316 1326 1327 1436 1437 1447 1448
1068 5 1 2 1316 1317 1327 1328 1437 1438 1448 1449
1069 5 1 2 1317 1318 1328 1329 1438 1439 1449 1450
1070 5 1 2 1318 1319 1329 1330 1439 1440 1450 1451
1071 5 1 2 1319 1320 1330 1331 1440 1441 1451 1452
1072 5 1 2 1320 1321 1331 1332 1441 1442 1452 1453
1073 5 1 2 1321 1322 1332 1333 1442 1443 1453 1454
1074 5 1 2 1322 1323 1333 1334 1443 1444 1454 1455
1075 5 1 2 1324 1325 1335 1336 1445 1446 1456 1457
1076 5 1 2 1325 1326 1336 1337 1446 1447 1457 1458
1077 5 1 2 1326 1327 1337 1338 1447 1448 1458 1459
1078 5 1 2 1327 1328 1338 1339 1448 1449 1459 1460
1079 5 1 2 1328 1329 1339 1340 1449 1450 1460 1461
1080 5 1 2 1329 1330 1340 1341 1450 1451 1461 1462
1081 5 1 2 1330 1331 1341 1342 1451 1452 1462 1463
1082 5 1 2 1331 1332 1342 1343 1452 1453 1463 1464
1083 5 1 2 1332 1333 1343 1344 1453 1454 1464 1465
1084 5 1 2 1333 1334 1344 1345 1454 1455 1465 1466
1085 5 1 2 1335 1336 1346 1347 1456 1457 1467 1468
1086 5 1 2 1336 1337 1347 1348 1457 1458 1468 1469
1087 5 1 2 1337 1338 1348 1349 1458 1459 1469 1470
1088 5 1 2 1338 1339 1349 1350 1459 1460 1470 1471
1089 5 1 2 1339 1340 1350 1351 1460 1461 1471 1472
1090 5 1 2 1340 1341 1351 1352 1461 1462 1472 1473
1091 5 1 2 1341 1342 1352 1353 1462 1463 1473 1474
1092 5 1 2 1342 1343 1353 1354 1463 1464 1474 1475
1093 5 1 2 1343 1344 1354 1355 1464 1465 1475 1476
1094 5 1 2 1344 1345 1355 1356 1465 1466 1476 1477
1095 5 1 2 1346 1347 1357 1358 1467 1468 1478 1479
1096 5 1 2 1347 1348 1358 1359 1468 1469 1479 1480
1097 5 1 2 1348 1349 1359 1360 1469 1470 1480 1481
1098 5 1 2 1349 1350 1360 1361 1470 1471 1481 1482
1099 5 1 2 1350 1351 1361 1362 1471 1472 1482 1483
1100 5 1 2 1351 1352 1362 1363 1472 1473 1483 1484
1101 5 1 2 1352 1353 1363 1364 1473 1474 1484 1485
1102 5 1 2 1353 1354 1364 1365 1474 1475 1485 1486
1103 5 1 2 1354 1355 1365 1366 1475 1476 1486 1487
1104 5 1 2 1355 1356 1366 1367 1476 1477 1487 1488
1105 5 1 2 1357 1358 1368 1369 1478 1479 1489 1490
1106 5 1 2 1358 1359 1369 1370 1479 1480 1490 1491
1107 5 1 2 1359 1360 1370 1371 1480 1481 1491 1492
1108 5 1 2 1360 1361 1371 1372 1481 1482 1492 1493
1109 5 1 2 1361 1362 1372 1373 1482 1483 1493 1494
1110 5 1 2 1362 1363 1373 1374 1483 1484 1494 1495
1111 5 1 2 1363 1364 1374 1375 1484 1485 1495 1496
1112 5 1 2 1364 1365 1375 1376 1485 1486 1496 1497
1113 5 1 2 1365 1366 1376 1377 1486 1487 1497 1498
1114 5 1 2 1366 1367 1377 1378 1487 1488 1498 1499
1115 5 1 2 1368 1369 1379 1380 1489 1490 1500 1501
1116 5 1 2 1369 1370 1380 1381 1490 1491 1501 1502
1117 5 1 2 1370 1371 1381 1382 1491 1492 1502 1503
1118 5 1 2 1371 1372 1382 1383 1492 1493 1503 1504
1119 5 1 2 1372 1373 1383 1384 1493 1494 1504 1505
1120 5 1 2 1373 1374 1384 1385 1494 1495 1505 1506
1121 5 1 2 1374 1375 1385 1386 1495 1496 1506 1507
1122 5 1 2 1375 1376 1386 1387 1496 1497 1507 1508
1123 5 1 2 1376 1377 1387 1388 1497 1498 1508 1509
1124 5 1 2 1377 1378 1388 1389 1498 1499 1509 1510
$EndElements
