$MeshFormat
2.2 0 8
$EndMeshFormat
$Nodes
25
0 0 0 0
1 10 0 0
2 20 0 0
3 0 10 0
4 10 10 0
5 20 10 0
6 0 20 0
7 10 20 0
8 20 20 0
9 100 0 0
10 110 0 0
11 120 0 0
12 130 0 0
13 100 10 0
14 110 10 0
15 120 10 0
16 130 10 0
17 100 20 0
18 110 20 0
19 120 20 0
20 130 20 0
21 100 30 0
22 110 30 0
23 120 30 0
24 130 30 0
$EndNodes
$Elements
13
0 3 2 1 1 0 1 4 3
1 3 2 1 1 1 2 5 4
2 3 2 1 1 3 4 7 6
3 3 2 1 1 4 5 8 7
4 3 2 1 1 9 10 14 13
5 3 2 1 1 10 11 15 14
6 3 2 1 1 11 12 16 15
7 3 2 1 1 13 14 18 17
8 3 2 1 1 14 15 19 18
9 3 2 1 1 15 16 20 19
10 3 2 1 1 17 18 22 21
11 3 2 1 1 18 19 23 22
12 3 2 1 1 19 20 24 23
$EndElements
