$MeshFormat
2.2 0 8
$EndMeshFormat
$Nodes
368
0 0 0 0
1 10 0 0
2 20 0 0
3 30 0 0
4 40 0 0
5 50 0 0
6 0 10 0
7 10 10 0
8 20 10 0
9 30 10 0
10 40 10 0
11 50 10 0
12 0 20 0
13 10 20 0
14 20 20 0
15 30 20 0
16 40 20 0
17 50 20 0
18 0 30 0
19 10 30 0
20 20 30 0
21 30 30 0
22 40 30 0
23 50 30 0
24 0 40 0
25 10 40 0
26 20 40 0
27 30 40 0
28 40 40 0
29 50 40 0
30 0 50 0
31 10 50 0
32 20 50 0
33 30 50 0
34 40 50 0
35 50 50 0
36 0 0 10
37 10 0 10
38 20 0 10
39 30 0 10
40 40 0 10
41 50 0 10
42 0 10 10
43 10 10 10
44 20 10 10
45 30 10 10
46 40 10 10
47 50 10 10
48 0 20 10
49 10 20 10
50 20 20 10
51 30 20 10
52 40 20 10
53 50 20 10
54 0 30 10
55 10 30 10
56 20 30 10
57 30 30 10
58 40 30 10
59 50 30 10
60 0 40 10
61 10 40 10
62 20 40 10
63 30 40 10
64 40 40 10
65 50 40 10
66 0 50 10
67 10 50 10
68 20 50 10
69 30 50 10
70 40 50 10
71 50 50 10
72 0 0 20
73 10 0 20
74 20 0 20
75 30 0 20
76 40 0 20
77 50 0 20
78 0 10 20
79 10 10 20
80 20 10 20
81 30 10 20
82 40 10 20
83 50 10 20
84 0 20 20
85 10 20 20
86 20 20 20
87 30 20 20
88 40 20 20
89 50 20 20
90 0 30 20
91 10 30 20
92 20 30 20
93 30 30 20
94 40 30 20
95 50 30 20
96 0 40 20
97 10 40 20
98 20 40 20
99 30 40 20
100 40 40 20
101 50 40 20
102 0 50 20
103 10 50 20
104 20 50 20
105 30 50 20
106 40 50 20
107 50 50 20
108 0 0 30
109 10 0 30
110 20 0 30
111 30 0 30
112 40 0 30
113 50 0 30
114 0 10 30
115 10 10 30
116 20 10 30
117 30 10 30
118 40 10 30
119 50 10 30
120 0 20 30
121 10 20 30
122 20 20 30
123 30 20 30
124 40 20 30
125 50 20 30
126 0 30 30
127 10 30 30
128 20 30 30
129 30 30 30
130 40 30 30
131 50 30 30
132 0 40 30
133 10 40 30
134 20 40 30
135 30 40 30
136 40 40 30
137 50 40 30
138 0 50 30
139 10 50 30
140 20 50 30
141 30 50 30
142 40 50 30
143 50 50 30
144 0 0 40
145 10 0 40
146 20 0 40
147 30 0 40
148 40 0 40
149 50 0 40
150 0 10 40
151 10 10 40
152 20 10 40
153 30 10 40
154 40 10 40
155 50 10 40
156 0 20 40
157 10 20 40
158 20 20 40
159 30 20 40
160 40 20 40
161 50 20 40
162 0 30 40
163 10 30 40
164 20 30 40
165 30 30 40
166 40 30 40
167 50 30 40
168 0 40 40
169 10 40 40
170 20 40 40
171 30 40 40
172 40 40 40
173 50 40 40
174 0 50 40
175 10 50 40
176 20 50 40
177 30 50 40
178 40 50 40
179 50 50 40
180 0 0 50
181 10 0 50
182 20 0 50
183 30 0 50
184 40 0 50
185 50 0 50
186 0 10 50
187 10 10 50
188 20 10 50
189 30 10 50
190 40 10 50
191 50 10 50
192 0 20 50
193 10 20 50
194 20 20 50
195 30 20 50
196 40 20 50
197 50 20 50
198 0 30 50
199 10 30 50
200 20 30 50
201 30 30 50
202 40 30 50
203 50 30 50
204 0 40 50
205 10 40 50
206 20 40 50
207 30 40 50
208 40 40 50
209 50 40 50
210 0 50 50
211 10 50 50
212 20 50 50
213 30 50 50
214 40 50 50
215 50 50 50
216 60 20 20
217 70 20 20
218 60 30 20
219 70 30 20
220 60 40 20
221 70 40 20
222 60 50 20
223 70 50 20
224 20 60 20
225 30 60 20
226 40 60 20
227 50 60 20
228 60 60 20
229 70 60 20
230 20 70 20
231 30 70 20
232 40 70 20
233 50 70 20
234 60 70 20
235 70 70 20
236 60 20 30
237 70 20 30
238 60 30 30
239 70 30 30
240 60 40 30
241 70 40 30
242 60 50 30
243 70 50 30
244 20 60 30
245 30 60 30
246 40 60 30
247 50 60 30
248 60 60 30
249 70 60 30
250 20 70 30
251 30 70 30
252 40 70 30
253 50 70 30
254 60 70 30
255 70 70 30
256 60 20 40
257 70 20 40
258 60 30 40
259 70 30 40
260 60 40 40
261 70 40 40
262 60 50 40
263 70 50 40
264 20 60 40
265 30 60 40
266 40 60 40
267 50 60 40
268 60 60 40
269 70 60 40
270 20 70 40
271 30 70 40
272 40 70 40
273 50 70 40
274 60 70 40
275 70 70 40
276 60 20 50
277 70 20 50
278 60 30 50
279 70 30 50
280 60 40 50
281 70 40 50
282 60 50 50
283 70 50 50
284 20 60 50
285 30 60 50
286 40 60 50
287 50 60 50
288 60 60 50
289 70 60 50
290 20 70 50
291 30 70 50
292 40 70 50
293 50 70 50
294 60 70 50
295 70 70 50
296 20 20 60
297 30 20 60
298 40 20 60
299 50 20 60
300 60 20 60
301 70 20 60
302 20 30 60
303 30 30 60
304 40 30 60
305 50 30 60
306 60 30 60
307 70 30 60
308 20 40 60
309 30 40 60
310 40 40 60
311 50 40 60
312 60 40 60
313 70 40 60
314 20 50 60
315 30 50 60
316 40 50 60
317 50 50 60
318 60 50 60
319 70 50 60
320 20 60 60
321 30 60 60
322 40 60 60
323 50 60 60
324 60 60 60
325 70 60 60
326 20 70 60
327 30 70 60
328 40 70 60
329 50 70 60
330 60 70 60
331 70 70 60
332 20 20 70
333 30 20 70
334 40 20 70
335 50 20 70
336 60 20 70
337 70 20 70
338 20 30 70
339 30 30 70
340 40 30 70
341 50 30 70
342 60 30 70
343 70 30 70
344 20 40 70
345 30 40 70
346 40 40 70
347 50 40 70
348 60 40 70
349 70 40 70
350 20 50 70
351 30 50 70
352 40 50 70
353 50 50 70
354 60 50 70
355 70 50 70
356 20 60 70
357 30 60 70
358 40 60 70
359 50 60 70
360 60 60 70
361 70 60 70
362 20 70 70
363 30 70 70
364 40 70 70
365 50 70 70
366 60 70 70
367 70 70 70
$EndNodes
$Elements
223
0 5 1 2 0 1 6 7 36 37 42 43
1 5 1 2 1 2 7 8 37 38 43 44
2 5 1 2 2 3 8 9 38 39 44 45
3 5 1 2 3 4 9 10 39 40 45 46
4 5 1 2 4 5 10 11 40 41 46 47
5 5 1 2 6 7 12 13 42 43 48 49
6 5 1 2 7 8 13 14 43 44 49 50
7 5 1 2 8 9 14 15 44 45 50 51
8 5 1 2 9 10 15 16 45 46 51 52
9 5 1 2 10 11 16 17 46 47 52 53
10 5 1 2 12 13 18 19 48 49 54 55
11 5 1 2 13 14 19 20 49 50 55 56
12 5 1 2 14 15 20 21 50 51 56 57
13 5 1 2 15 16 21 22 51 52 57 58
14 5 1 2 16 17 22 23 52 53 58 59
15 5 1 2 18 19 24 25 54 55 60 61
16 5 1 2 19 20 25 26 55 56 61 62
17 5 1 2 20 21 26 27 56 57 62 63
18 5 1 2 21 22 27 28 57 58 63 64
19 5 1 2 22 23 28 29 58 59 64 65
20 5 1 2 24 25 30 31 60 61 66 67
21 5 1 2 25 26 31 32 61 62 67 68
22 5 1 2 26 27 32 33 62 63 68 69
23 5 1 2 27 28 33 34 63 64 69 70
24 5 1 2 28 29 34 35 64 65 70 71
25 5 1 2 36 37 42 43 72 73 78 79
26 5 1 2 37 38 43 44 73 74 79 80
27 5 1 2 38 39 44 45 74 75 80 81
28 5 1 2 39 40 45 46 75 76 81 82
29 5 1 2 40 41 46 47 76 77 82 83
30 5 1 2 42 43 48 49 78 79 84 85
31 5 1 2 43 44 49 50 79 80 85 86
32 5 1 2 44 45 50 51 80 81 86 87
33 5 1 2 45 46 51 52 81 82 87 88
34 5 1 2 46 47 52 53 82 83 88 89
35 5 1 2 48 49 54 55 84 85 90 91
36 5 1 2 49 50 55 56 85 86 91 92
37 5 1 2 50 51 56 57 86 87 92 93
38 5 1 2 51 52 57 58 87 88 93 94
39 5 1 2 52 53 58 59 88 89 94 95
40 5 1 2 54 55 60 61 90 91 96 97
41 5 1 2 55 56 61 62 91 92 97 98
42 5 1 2 56 57 62 63 92 93 98 99
43 5 1 2 57 58 63 64 93 94 99 100
44 5 1 2 58 59 64 65 94 95 100 101
45 5 1 2 60 61 66 67 96 97 102 103
46 5 1 2 61 62 67 68 97 98 103 104
47 5 1 2 62 63 68 69 98 99 104 105
48 5 1 2 63 64 69 70 99 100 105 106
49 5 1 2 64 65 70 71 100 101 106 107
50 5 1 2 72 73 78 79 108 109 114 115
51 5 1 2 73 74 79 80 109 110 115 116
52 5 1 2 74 75 80 81 110 111 116 117
53 5 1 2 75 76 81 82 111 112 117 118
54 5 1 2 76 77 82 83 112 113 118 119
55 5 1 2 78 79 84 85 114 115 120 121
56 5 1 2 79 80 85 86 115 116 121 122
57 5 1 2 80 81 86 87 116 117 122 123
58 5 1 2 81 82 87 88 117 118 123 124
59 5 1 2 82 83 88 89 118 119 124 125
60 5 1 2 84 85 90 91 120 121 126 127
61 5 1 2 85 86 91 92 121 122 127 128
62 5 1 2 86 87 92 93 122 123 128 129
63 5 1 2 87 88 93 94 123 124 129 130
64 5 1 2 88 89 94 95 124 125 130 131
65 5 1 2 90 91 96 97 126 127 132 133
66 5 1 2 91 92 97 98 127 128 133 134
67 5 1 2 92 93 98 99 128 129 134 135
68 5 1 2 93 94 99 100 129 130 135 136
69 5 1 2 94 95 100 101 130 131 136 137
70 5 1 2 96 97 102 103 132 133 138 139
71 5 1 2 97 98 103 104 133 134 139 140
72 5 1 2 98 99 104 105 134 135 140 141
73 5 1 2 99 100 105 106 135 136 141 142
74 5 1 2 100 101 106 107 136 137 142 143
75 5 1 2 108 109 114 115 144 145 150 151
76 5 1 2 109 110 115 116 145 146 151 152
77 5 1 2 110 111 116 117 146 147 152 153
78 5 1 2 111 112 117 118 147 148 153 154
79 5 1 2 112 113 118 119 148 149 154 155
80 5 1 2 114 115 120 121 150 151 156 157
81 5 1 2 115 116 121 122 151 152 157 158
82 5 1 2 116 117 122 123 152 153 158 159
83 5 1 2 117 118 123 124 153 154 159 160
84 5 1 2 118 119 124 125 154 155 160 161
85 5 1 2 120 121 126 127 156 157 162 163
86 5 1 2 121 122 127 128 157 158 163 164
87 5 1 2 122 123 128 129 158 159 164 165
88 5 1 2 123 124 129 130 159 160 165 166
89 5 1 2 124 125 130 131 160 161 166 167
90 5 1 2 126 127 132 133 162 163 168 169
91 5 1 2 127 128 133 134 163 164 169 170
92 5 1 2 128 129 134 135 164 165 170 171
93 5 1 2 129 130 135 136 165 166 171 172
94 5 1 2 130 131 136 137 166 167 172 173
95 5 1 2 132 133 138 139 168 169 174 175
96 5 1 2 133 134 139 140 169 170 175 176
97 5 1 2 134 135 140 141 170 171 176 177
98 5 1 2 135 136 141 142 171 172 177 178
99 5 1 2 136 137 142 143 172 173 178 179
100 5 1 2 144 145 150 151 180 181 186 187
101 5 1 2 145 146 151 152 181 182 187 188
102 5 1 2 146 147 152 153 182 183 188 189
103 5 1 2 147 148 153 154 183 184 189 190
104 5 1 2 148 149 154 155 184 185 190 191
105 5 1 2 150 151 156 157 186 187 192 193
106 5 1 2 151 152 157 158 187 188 193 194
107 5 1 2 152 153 158 159 188 189 194 195
108 5 1 2 153 154 159 160 189 190 195 196
109 5 1 2 154 155 160 161 190 191 196 197
110 5 1 2 156 157 162 163 192 193 198 199
111 5 1 2 157 158 163 164 193 194 199 200
112 5 1 2 158 159 164 165 194 195 200 201
113 5 1 2 159 160 165 166 195 196 201 202
114 5 1 2 160 161 166 167 196 197 202 203
115 5 1 2 162 163 168 169 198 199 204 205
116 5 1 2 163 164 169 170 199 200 205 206
117 5 1 2 164 165 170 171 200 201 206 207
118 5 1 2 165 166 171 172 201 202 207 208
119 5 1 2 166 167 172 173 202 203 208 209
120 5 1 2 168 169 174 175 204 205 210 211
121 5 1 2 169 170 175 176 205 206 211 212
122 5 1 2 170 171 176 177 206 207 212 213
123 5 1 2 171 172 177 178 207 208 213 214
124 5 1 2 172 173 178 179 208 209 214 215
125 5 1 2 89 216 95 218 125 236 131 238
126 5 1 2 216 217 218 219 236 237 238 239
127 5 1 2 95 218 101 220 131 238 137 240
128 5 1 2 218 219 220 221 238 239 240 241
129 5 1 2 101 220 107 222 137 240 143 242
130 5 1 2 220 221 222 223 240 241 242 243
131 5 1 2 104 105 224 225 140 141 244 245
132 5 1 2 105 106 225 226 141 142 245 246
133 5 1 2 106 107 226 227 142 143 246 247
134 5 1 2 107 222 227 228 143 242 247 248
135 5 1 2 222 223 228 229 242 243 248 249
136 5 1 2 224 225 230 231 244 245 250 251
137 5 1 2 225 226 231 232 245 246 251 252
138 5 1 2 226 227 232 233 246 247 252 253
139 5 1 2 227 228 233 234 247 248 253 254
140 5 1 2 228 229 234 235 248 249 254 255
141 5 1 2 125 236 131 238 161 256 167 258
142 5 1 2 236 237 238 239 256 257 258 259
143 5 1 2 131 238 137 240 167 258 173 260
144 5 1 2 238 239 240 241 258 259 260 261
145 5 1 2 137 240 143 242 173 260 179 262
146 5 1 2 240 241 242 243 260 261 262 263
147 5 1 2 140 141 244 245 176 177 264 265
148 5 1 2 141 142 245 246 177 178 265 266
149 5 1 2 142 143 246 247 178 179 266 267
150 5 1 2 143 242 247 248 179 262 267 268
151 5 1 2 242 243 248 249 262 263 268 269
152 5 1 2 244 245 250 251 264 265 270 271
153 5 1 2 245 246 251 252 265 266 271 272
154 5 1 2 246 247 252 253 266 267 272 273
155 5 1 2 247 248 253 254 267 268 273 274
156 5 1 2 248 249 254 255 268 269 274 275
157 5 1 2 161 256 167 258 197 276 203 278
158 5 1 2 256 257 258 259 276 277 278 279
159 5 1 2 167 258 173 260 203 278 209 280
160 5 1 2 258 259 260 261 278 279 280 281
161 5 1 2 173 260 179 262 209 280 215 282
162 5 1 2 260 261 262 263 280 281 282 283
163 5 1 2 176 177 264 265 212 213 284 285
164 5 1 2 177 178 265 266 213 214 285 286
165 5 1 2 178 179 266 267 214 215 286 287
166 5 1 2 179 262 267 268 215 282 287 288
167 5 1 2 262 263 268 269 282 283 288 289
168 5 1 2 264 265 270 271 284 285 290 291
169 5 1 2 265 266 271 272 285 286 291 292
170 5 1 2 266 267 272 273 286 287 292 293
171 5 1 2 267 268 273 274 287 288 293 294
172 5 1 2 268 269 274 275 288 289 294 295
173 5 1 2 194 195 200 201 296 297 302 303
174 5 1 2 195 196 201 202 297 298 303 304
175 5 1 2 196 197 202 203 298 299 304 305
176 5 1 2 197 276 203 278 299 300 305 306
177 5 1 2 276 277 278 279 300 301 306 307
178 5 1 2 200 201 206 207 302 303 308 309
179 5 1 2 201 202 207 208 303 304 309 310
180 5 1 2 202 203 208 209 304 305 310 311
181 5 1 2 203 278 209 280 305 306 311 312
182 5 1 2 278 279 280 281 306 307 312 313
183 5 1 2 206 207 212 213 308 309 314 315
184 5 1 2 207 208 213 214 309 310 315 316
185 5 1 2 208 209 214 215 310 311 316 317
186 5 1 2 209 280 215 282 311 312 317 318
187 5 1 2 280 281 282 283 312 313 318 319
188 5 1 2 212 213 284 285 314 315 320 321
189 5 1 2 213 214 285 286 315 316 321 322
190 5 1 2 214 215 286 287 316 317 322 323
191 5 1 2 215 282 287 288 317 318 323 324
192 5 1 2 282 283 288 289 318 319 324 325
193 5 1 2 284 285 290 291 320 321 326 327
194 5 1 2 285 286 291 292 321 322 327 328
195 5 1 2 286 287 292 293 322 323 328 329
196 5 1 2 287 288 293 294 323 324 329 330
197 5 1 2 288 289 294 295 324 325 330 331
198 5 1 2 296 297 302 303 332 333 338 339
199 5 1 2 297 298 303 304 333 334 339 340
200 5 1 2 298 299 304 305 334 335 340 341
201 5 1 2 299 300 305 306 335 336 341 342
202 5 1 2 300 301 306 307 336 337 342 343
203 5 1 2 302 303 308 309 338 339 344 345
204 5 1 2 303 304 309 310 339 340 345 346
205 5 1 2 304 305 310 311 340 341 346 347
206 5 1 2 305 306 311 312 341 342 347 348
207 5 1 2 306 307 312 313 342 343 348 349
208 5 1 2 308 309 314 315 344 345 350 351
209 5 1 2 309 310 315 316 345 346 351 352
210 5 1 2 310 311 316 317 346 347 352 353
211 5 1 2 311 312 317 318 347 348 353 354
212 5 1 2 312 313 318 319 348 349 354 355
213 5 1 2 314 315 320 321 350 351 356 357
214 5 1 2 315 316 321 322 351 352 357 358
215 5 1 2 316 317 322 323 352 353 358 359
216 5 1 2 317 318 323 324 353 354 359 360
217 5 1 2 318 319 324 325 354 355 360 361
218 5 1 2 320 321 326 327 356 357 362 363
219 5 1 2 321 322 327 328 357 358 363 364
220 5 1 2 322 323 328 329 358 359 364 365
221 5 1 2 323 324 329 330 359 360 365 366
222 5 1 2 324 325 330 331 360 361 366 367
$EndElements
