$MeshFormat
2.2 0 8
$EndMeshFormat
$Nodes
82
0 0 0 0
1 10 0 0
2 20 0 0
3 0 10 0
4 10 10 0
5 20 10 0
6 0 20 0
7 10 20 0
8 20 20 0
9 0 0 10
10 10 0 10
11 20 0 10
12 0 10 10
13 10 10 10
14 20 10 10
15 0 20 10
16 10 20 10
17 20 20 10
18 0 0 20
19 10 0 20
20 20 0 20
21 0 10 20
22 10 10 20
23 20 10 20
24 0 20 20
25 10 20 20
26 20 20 20
27 30 0 0
28 40 0 0
29 50 0 0
30 30 10 0
31 40 10 0
32 50 10 0
33 30 20 0
34 40 20 0
35 50 20 0
36 20 30 0
37 30 30 0
38 40 30 0
39 50 30 0
40 30 0 10
41 40 0 10
42 50 0 10
43 30 10 10
44 40 10 10
45 50 10 10
46 30 20 10
47 40 20 10
48 50 20 10
49 20 30 10
50 30 30 10
51 40 30 10
52 50 30 10
53 30 0 20
54 40 0 20
55 50 0 20
56 30 10 20
57 40 10 20
58 50 10 20
59 30 20 20
60 40 20 20
61 50 20 20
62 20 30 20
63 30 30 20
64 40 30 20
65 50 30 20
66 20 0 30
67 30 0 30
68 40 0 30
69 50 0 30
70 20 10 30
71 30 10 30
72 40 10 30
73 50 10 30
74 20 20 30
75 30 20 30
76 40 20 30
77 50 20 30
78 20 30 30
79 30 30 30
80 40 30 30
81 50 30 30
$EndNodes
$Elements
35
0 5 1 2 0 1 3 4 9 10 12 13
1 5 1 2 1 2 4 5 10 11 13 14
2 5 1 2 3 4 6 7 12 13 15 16
3 5 1 2 4 5 7 8 13 14 16 17
4 5 1 2 9 10 12 13 18 19 21 22
5 5 1 2 10 11 13 14 19 20 22 23
6 5 1 2 12 13 15 16 21 22 24 25
7 5 1 2 13 14 16 17 22 23 25 26
8 5 1 2 2 27 5 30 11 40 14 43
9 5 1 2 27 28 30 31 40 41 43 44
10 5 1 2 28 29 31 32 41 42 44 45
11 5 1 2 5 30 8 33 14 43 17 46
12 5 1 2 30 31 33 34 43 44 46 47
13 5 1 2 31 32 34 35 44 45 47 48
14 5 1 2 8 33 36 37 17 46 49 50
15 5 1 2 33 34 37 38 46 47 50 51
16 5 1 2 34 35 38 39 47 48 51 52
17 5 1 2 11 40 14 43 20 53 23 56
18 5 1 2 40 41 43 44 53 54 56 57
19 5 1 2 41 42 44 45 54 55 57 58
20 5 1 2 14 43 17 46 23 56 26 59
21 5 1 2 43 44 46 47 56 57 59 60
22 5 1 2 44 45 47 48 57 58 60 61
23 5 1 2 17 46 49 50 26 59 62 63
24 5 1 2 46 47 50 51 59 60 63 64
25 5 1 2 47 48 51 52 60 61 64 65
26 5 1 2 20 53 23 56 66 67 70 71
27 5 1 2 53 54 56 57 67 68 71 72
28 5 1 2 54 55 57 58 68 69 72 73
29 5 1 2 23 56 26 59 70 71 74 75
30 5 1 2 56 57 59 60 71 72 75 76
31 5 1 2 57 58 60 61 72 73 76 77
32 5 1 2 26 59 62 63 74 75 78 79
33 5 1 2 59 60 63 64 75 76 79 80
34 5 1 2 60 61 64 65 76 77 80 81
$EndElements
