$MeshFormat
2.2 0 8
$EndMeshFormat
$Nodes
50
0 0 0 0
1 10 0 0
2 20 0 0
3 0 10 0
4 10 10 0
5 20 10 0
6 0 20 0
7 10 20 0
8 20 20 0
9 0 0 10
10 10 0 10
11 20 0 10
12 0 10 10
13 10 10 10
14 20 10 10
15 0 20 10
16 10 20 10
17 20 20 10
18 0 0 20
19 10 0 20
20 20 0 20
21 0 10 20
22 10 10 20
23 20 10 20
24 0 20 20
25 10 20 20
26 20 20 20
27 30 10 20
28 30 20 20
29 10 30 20
30 20 30 20
31 30 30 20
32 10 10 30
33 20 10 30
34 30 10 30
35 10 20 30
36 20 20 30
37 30 20 30
38 10 30 30
39 20 30 30
40 30 30 30
41 10 10 40
42 20 10 40
43 30 10 40
44 10 20 40
45 20 20 40
46 30 20 40
47 10 30 40
48 20 30 40
49 30 30 40
$EndNodes
$Elements
16
0 5 1 2 0 1 3 4 9 10 12 13
1 5 1 2 1 2 4 5 10 11 13 14
2 5 1 2 3 4 6 7 12 13 15 16
3 5 1 2 4 5 7 8 13 14 16 17
4 5 1 2 9 10 12 13 18 19 21 22
5 5 1 2 10 11 13 14 19 20 22 23
6 5 1 2 12 13 15 16 21 22 24 25
7 5 1 2 13 14 16 17 22 23 25 26
8 5 1 2 22 23 25 26 32 33 35 36
9 5 1 2 23 27 26 28 33 34 36 37
10 5 1 2 25 26 29 30 35 36 38 39
11 5 1 2 26 28 30 31 36 37 39 40
12 5 1 2 32 33 35 36 41 42 44 45
13 5 1 2 33 34 36 37 42 43 45 46
14 5 1 2 35 36 38 39 44 45 47 48
15 5 1 2 36 37 39 40 45 46 48 49
$EndElements
