$MeshFormat
2.2 0 8
$EndMeshFormat
$Nodes
112
0 0 0 0
1 10 0 0
2 20 0 0
3 30 0 0
4 0 10 0
5 10 10 0
6 20 10 0
7 30 10 0
8 0 20 0
9 10 20 0
10 20 20 0
11 30 20 0
12 0 30 0
13 10 30 0
14 20 30 0
15 30 30 0
16 0 0 10
17 10 0 10
18 20 0 10
19 30 0 10
20 0 10 10
21 10 10 10
22 20 10 10
23 30 10 10
24 0 20 10
25 10 20 10
26 20 20 10
27 30 20 10
28 0 30 10
29 10 30 10
30 20 30 10
31 30 30 10
32 0 0 20
33 10 0 20
34 20 0 20
35 30 0 20
36 0 10 20
37 10 10 20
38 20 10 20
39 30 10 20
40 0 20 20
41 10 20 20
42 20 20 20
43 30 20 20
44 0 30 20
45 10 30 20
46 20 30 20
47 30 30 20
48 0 0 30
49 10 0 30
50 20 0 30
51 30 0 30
52 0 10 30
53 10 10 30
54 20 10 30
55 30 10 30
56 0 20 30
57 10 20 30
58 20 20 30
59 30 20 30
60 0 30 30
61 10 30 30
62 20 30 30
63 30 30 30
64 40 0 0
65 50 0 0
66 60 0 0
67 40 10 0
68 50 10 0
69 60 10 0
70 40 20 0
71 50 20 0
72 60 20 0
73 40 30 0
74 50 30 0
75 60 30 0
76 40 0 10
77 50 0 10
78 60 0 10
79 40 10 10
80 50 10 10
81 60 10 10
82 40 20 10
83 50 20 10
84 60 20 10
85 40 30 10
86 50 30 10
87 60 30 10
88 40 0 20
89 50 0 20
90 60 0 20
91 40 10 20
92 50 10 20
93 60 10 20
94 40 20 20
95 50 20 20
96 60 20 20
97 40 30 20
98 50 30 20
99 60 30 20
100 40 0 30
101 50 0 30
102 60 0 30
103 40 10 30
104 50 10 30
105 60 10 30
106 40 20 30
107 50 20 30
108 60 20 30
109 40 30 30
110 50 30 30
111 60 30 30
$EndNodes
$Elements
54
0 5 1 2 0 1 4 5 16 17 20 21
1 5 1 2 1 2 5 6 17 18 21 22
2 5 1 2 2 3 6 7 18 19 22 23
3 5 1 2 4 5 8 9 20 21 24 25
4 5 1 2 5 6 9 10 21 22 25 26
5 5 1 2 6 7 10 11 22 23 26 27
6 5 1 2 8 9 12 13 24 25 28 29
7 5 1 2 9 10 13 14 25 26 29 30
8 5 1 2 10 11 14 15 26 27 30 31
9 5 1 2 16 17 20 21 32 33 36 37
10 5 1 2 17 18 21 22 33 34 37 38
11 5 1 2 18 19 22 23 34 35 38 39
12 5 1 2 20 21 24 25 36 37 40 41
13 5 1 2 21 22 25 26 37 38 41 42
14 5 1 2 22 23 26 27 38 39 42 43
15 5 1 2 24 25 28 29 40 41 44 45
16 5 1 2 25 26 29 30 41 42 45 46
17 5 1 2 26 27 30 31 42 43 46 47
18 5 1 2 32 33 36 37 48 49 52 53
19 5 1 2 33 34 37 38 49 50 53 54
20 5 1 2 34 35 38 39 50 51 54 55
21 5 1 2 36 37 40 41 52 53 56 57
22 5 1 2 37 38 41 42 53 54 57 58
23 5 1 2 38 39 42 43 54 55 58 59
24 5 1 2 40 41 44 45 56 57 60 61
25 5 1 2 41 42 45 46 57 58 61 62
26 5 1 2 42 43 46 47 58 59 62 63
27 5 1 2 3 64 7 67 19 76 23 79
28 5 1 2 64 65 67 68 76 77 79 80
29 5 1 2 65 66 68 69 77 78 80 81
30 5 1 2 7 67 11 70 23 79 27 82
31 5 1 2 67 68 70 71 79 80 82 83
32 5 1 2 68 69 71 72 80 81 83 84
33 5 1 2 11 70 15 73 27 82 31 85
34 5 1 2 70 71 73 74 82 83 85 86
35 5 1 2 71 72 74 75 83 84 86 87
36 5 1 2 19 76 23 79 35 88 39 91
37 5 1 2 76 77 79 80 88 89 91 92
38 5 1 2 77 78 80 81 89 90 92 93
39 5 1 2 23 79 27 82 39 91 43 94
40 5 1 2 79 80 82 83 91 92 94 95
41 5 1 2 80 81 83 84 92 93 95 96
42 5 1 2 27 82 31 85 43 94 47 97
43 5 1 2 82 83 85 86 94 95 97 98
44 5 1 2 83 84 86 87 95 96 98 99
45 5 1 2 35 88 39 91 51 100 55 103
46 5 1 2 88 89 91 92 100 101 103 104
47 5 1 2 89 90 92 93 101 102 104 105
48 5 1 2 39 91 43 94 55 103 59 106
49 5 1 2 91 92 94 95 103 104 106 107
50 5 1 2 92 93 95 96 104 105 107 108
51 5 1 2 43 94 47 97 59 106 63 109
52 5 1 2 94 95 97 98 106 107 109 110
53 5 1 2 95 96 98 99 107 108 110 111
$EndElements
