$MeshFormat
2.2 0 8
$EndMeshFormat
$Nodes
42
0 0 0 0
1 10 0 0
2 20 0 0
3 0 10 0
4 10 10 0
5 20 10 0
6 0 20 0
7 10 20 0
8 20 20 0
9 0 0 10
10 10 0 10
11 20 0 10
12 0 10 10
13 10 10 10
14 20 10 10
15 0 20 10
16 10 20 10
17 20 20 10
18 0 0 20
19 10 0 20
20 20 0 20
21 0 10 20
22 10 10 20
23 20 10 20
24 0 20 20
25 10 20 20
26 20 20 20
27 30 10 0
28 30 20 0
29 10 30 0
30 20 30 0
31 30 30 0
32 30 10 10
33 30 20 10
34 10 30 10
35 20 30 10
36 30 30 10
37 30 10 20
38 30 20 20
39 10 30 20
40 20 30 20
41 30 30 20
$EndNodes
$Elements
14
0 5 1 2 0 1 3 4 9 10 12 13
1 5 1 2 1 2 4 5 10 11 13 14
2 5 1 2 3 4 6 7 12 13 15 16
3 5 1 2 4 5 7 8 13 14 16 17
4 5 1 2 9 10 12 13 18 19 21 22
5 5 1 2 10 11 13 14 19 20 22 23
6 5 1 2 12 13 15 16 21 22 24 25
7 5 1 2 13 14 16 17 22 23 25 26
8 5 1 2 5 27 8 28 14 32 17 33
9 5 1 2 7 8 29 30 16 17 34 35
10 5 1 2 8 28 30 31 17 33 35 36
11 5 1 2 14 32 17 33 23 37 26 38
12 5 1 2 16 17 34 35 25 26 39 40
13 5 1 2 17 33 35 36 26 38 40 41
$EndElements
