$MeshFormat
2.2 0 8
$EndMeshFormat
$Nodes
119
0 0 0 0
1 0 0 10
2 10 0 0
3 10 0 10
4 10 10 0
5 10 10 10
6 0 10 0
7 0 10 10
8 0 0 10
9 0 0 20
10 10 0 10
11 10 0 20
12 10 10 10
13 10 10 20
14 0 10 10
15 0 10 20
16 0 10 0
17 0 10 10
18 10 10 0
19 10 10 10
20 10 20 0
21 10 20 10
22 0 20 0
23 0 20 10
24 0 10 10
25 0 10 20
26 10 10 10
27 10 10 20
28 10 20 10
29 10 20 20
30 0 20 10
31 0 20 20
32 10 0 0
33 10 0 10
34 20 0 0
35 20 0 10
36 20 10 0
37 20 10 10
38 10 10 0
39 10 10 10
40 10 0 10
41 10 0 20
42 20 0 10
43 20 0 20
44 20 10 10
45 20 10 20
46 10 10 10
47 10 10 20
48 10 10 0
49 10 10 10
50 20 10 0
51 20 10 10
52 20 20 0
53 20 20 10
54 10 20 0
55 10 20 10
56 10 10 10
57 10 10 20
58 20 10 10
59 20 10 20
60 20 20 10
61 20 20 20
62 10 20 10
63 10 20 20
64 30 0 0
65 30 10 0
66 30 0 10
67 30 10 10
68 30 0 20
69 30 10 20
70 20 0 30
71 30 0 30
72 30 10 30
73 20 10 30
74 30 20 0
75 30 20 10
76 30 20 20
77 30 20 30
78 20 20 30
79 30 30 0
80 20 30 0
81 30 30 10
82 20 30 10
83 30 30 20
84 20 30 20
85 30 30 30
86 20 30 30
87 40 0 0
88 40 10 0
89 40 0 10
90 40 10 10
91 40 0 20
92 40 10 20
93 40 0 30
94 40 10 30
95 40 20 0
96 40 20 10
97 40 20 20
98 40 20 30
99 40 30 0
100 40 30 10
101 40 30 20
102 40 30 30
103 50 0 0
104 50 10 0
105 50 0 10
106 50 10 10
107 50 0 20
108 50 10 20
109 50 0 30
110 50 10 30
111 50 20 0
112 50 20 10
113 50 20 20
114 50 20 30
115 50 30 0
116 50 30 10
117 50 30 20
118 50 30 30
$EndNodes
$Elements
35
0 5 1 2 0 2 4 6 1 3 5 7
1 5 1 2 8 10 12 14 9 11 13 15
2 5 1 2 16 18 20 22 17 19 21 23
3 5 1 2 24 26 28 30 25 27 29 31
4 5 1 2 32 34 36 38 33 35 37 39
5 5 1 2 40 42 44 46 41 43 45 47
6 5 1 2 48 50 52 54 49 51 53 55
7 5 1 2 56 58 60 62 57 59 61 63
8 5 1 2 34 64 65 36 35 66 67 37
9 5 1 2 35 66 67 37 43 68 69 45
10 5 1 2 43 68 69 45 70 71 72 73
11 5 1 2 36 65 74 52 37 67 75 53
12 5 1 2 37 67 75 53 45 69 76 61
13 5 1 2 45 69 76 61 73 72 77 78
14 5 1 2 52 74 79 80 53 75 81 82
15 5 1 2 53 75 81 82 61 76 83 84
16 5 1 2 61 76 83 84 78 77 85 86
17 5 1 2 64 87 88 65 66 89 90 67
18 5 1 2 66 89 90 67 68 91 92 69
19 5 1 2 68 91 92 69 71 93 94 72
20 5 1 2 65 88 95 74 67 90 96 75
21 5 1 2 67 90 96 75 69 92 97 76
22 5 1 2 69 92 97 76 72 94 98 77
23 5 1 2 74 95 99 79 75 96 100 81
24 5 1 2 75 96 100 81 76 97 101 83
25 5 1 2 76 97 101 83 77 98 102 85
26 5 1 2 87 103 104 88 89 105 106 90
27 5 1 2 89 105 106 90 91 107 108 92
28 5 1 2 91 107 108 92 93 109 110 94
29 5 1 2 88 104 111 95 90 106 112 96
30 5 1 2 90 106 112 96 92 108 113 97
31 5 1 2 92 108 113 97 94 110 114 98
32 5 1 2 95 111 115 99 96 112 116 100
33 5 1 2 96 112 116 100 97 113 117 101
34 5 1 2 97 113 117 101 98 114 118 102
$EndElements
