$MeshFormat
2.2 0 8
$EndMeshFormat
$Nodes
22
0 0 0 0
1 10 0 0
2 20 0 0
3 0 10 0
4 10 10 0
5 20 10 0
6 0 20 0
7 10 20 0
8 20 20 0
9 30 0 0
10 40 0 0
11 50 0 0
12 30 10 0
13 40 10 0
14 50 10 0
15 30 20 0
16 40 20 0
17 50 20 0
18 20 30 0
19 30 30 0
20 40 30 0
21 50 30 0
$EndNodes
$Elements
13
0 3 2 1 1 0 1 4 3
1 3 2 1 1 1 2 5 4
2 3 2 1 1 3 4 7 6
3 3 2 1 1 4 5 8 7
4 3 2 1 1 2 9 12 5
5 3 2 1 1 9 10 13 12
6 3 2 1 1 10 11 14 13
7 3 2 1 1 5 12 15 8
8 3 2 1 1 12 13 16 15
9 3 2 1 1 13 14 17 16
10 3 2 1 1 8 15 19 18
11 3 2 1 1 15 16 20 19
12 3 2 1 1 16 17 21 20
$EndElements
