$MeshFormat
2.2 0 8
$EndMeshFormat
$Nodes
250
0 0 0 0
1 10 0 0
2 20 0 0
3 30 0 0
4 40 0 0
5 0 10 0
6 10 10 0
7 20 10 0
8 30 10 0
9 40 10 0
10 0 20 0
11 10 20 0
12 20 20 0
13 30 20 0
14 40 20 0
15 0 30 0
16 10 30 0
17 20 30 0
18 30 30 0
19 40 30 0
20 0 40 0
21 10 40 0
22 20 40 0
23 30 40 0
24 40 40 0
25 0 0 10
26 10 0 10
27 20 0 10
28 30 0 10
29 40 0 10
30 0 10 10
31 10 10 10
32 20 10 10
33 30 10 10
34 40 10 10
35 0 20 10
36 10 20 10
37 20 20 10
38 30 20 10
39 40 20 10
40 0 30 10
41 10 30 10
42 20 30 10
43 30 30 10
44 40 30 10
45 0 40 10
46 10 40 10
47 20 40 10
48 30 40 10
49 40 40 10
50 0 0 20
51 10 0 20
52 20 0 20
53 30 0 20
54 40 0 20
55 0 10 20
56 10 10 20
57 20 10 20
58 30 10 20
59 40 10 20
60 0 20 20
61 10 20 20
62 20 20 20
63 30 20 20
64 40 20 20
65 0 30 20
66 10 30 20
67 20 30 20
68 30 30 20
69 40 30 20
70 0 40 20
71 10 40 20
72 20 40 20
73 30 40 20
74 40 40 20
75 0 0 30
76 10 0 30
77 20 0 30
78 30 0 30
79 40 0 30
80 0 10 30
81 10 10 30
82 20 10 30
83 30 10 30
84 40 10 30
85 0 20 30
86 10 20 30
87 20 20 30
88 30 20 30
89 40 20 30
90 0 30 30
91 10 30 30
92 20 30 30
93 30 30 30
94 40 30 30
95 0 40 30
96 10 40 30
97 20 40 30
98 30 40 30
99 40 40 30
100 0 0 40
101 10 0 40
102 20 0 40
103 30 0 40
104 40 0 40
105 0 10 40
106 10 10 40
107 20 10 40
108 30 10 40
109 40 10 40
110 0 20 40
111 10 20 40
112 20 20 40
113 30 20 40
114 40 20 40
115 0 30 40
116 10 30 40
117 20 30 40
118 30 30 40
119 40 30 40
120 0 40 40
121 10 40 40
122 20 40 40
123 30 40 40
124 40 40 40
125 40 20 5
126 50 20 5
127 60 20 5
128 70 20 5
129 80 20 5
130 40 30 5
131 50 30 5
132 60 30 5
133 70 30 5
134 80 30 5
135 40 40 5
136 50 40 5
137 60 40 5
138 70 40 5
139 80 40 5
140 40 50 5
141 50 50 5
142 60 50 5
143 70 50 5
144 80 50 5
145 40 60 5
146 50 60 5
147 60 60 5
148 70 60 5
149 80 60 5
150 40 20 15
151 50 20 15
152 60 20 15
153 70 20 15
154 80 20 15
155 40 30 15
156 50 30 15
157 60 30 15
158 70 30 15
159 80 30 15
160 40 40 15
161 50 40 15
162 60 40 15
163 70 40 15
164 80 40 15
165 40 50 15
166 50 50 15
167 60 50 15
168 70 50 15
169 80 50 15
170 40 60 15
171 50 60 15
172 60 60 15
173 70 60 15
174 80 60 15
175 40 20 25
176 50 20 25
177 60 20 25
178 70 20 25
179 80 20 25
180 40 30 25
181 50 30 25
182 60 30 25
183 70 30 25
184 80 30 25
185 40 40 25
186 50 40 25
187 60 40 25
188 70 40 25
189 80 40 25
190 40 50 25
191 50 50 25
192 60 50 25
193 70 50 25
194 80 50 25
195 40 60 25
196 50 60 25
197 60 60 25
198 70 60 25
199 80 60 25
200 40 20 35
201 50 20 35
202 60 20 35
203 70 20 35
204 80 20 35
205 40 30 35
206 50 30 35
207 60 30 35
208 70 30 35
209 80 30 35
210 40 40 35
211 50 40 35
212 60 40 35
213 70 40 35
214 80 40 35
215 40 50 35
216 50 50 35
217 60 50 35
218 70 50 35
219 80 50 35
220 40 60 35
221 50 60 35
222 60 60 35
223 70 60 35
224 80 60 35
225 40 20 45
226 50 20 45
227 60 20 45
228 70 20 45
229 80 20 45
230 40 30 45
231 50 30 45
232 60 30 45
233 70 30 45
234 80 30 45
235 40 40 45
236 50 40 45
237 60 40 45
238 70 40 45
239 80 40 45
240 40 50 45
241 50 50 45
242 60 50 45
243 70 50 45
244 80 50 45
245 40 60 45
246 50 60 45
247 60 60 45
248 70 60 45
249 80 60 45
$EndNodes
$Elements
128
0 5 1 2 0 1 5 6 25 26 30 31
1 5 1 2 1 2 6 7 26 27 31 32
2 5 1 2 2 3 7 8 27 28 32 33
3 5 1 2 3 4 8 9 28 29 33 34
4 5 1 2 5 6 10 11 30 31 35 36
5 5 1 2 6 7 11 12 31 32 36 37
6 5 1 2 7 8 12 13 32 33 37 38
7 5 1 2 8 9 13 14 33 34 38 39
8 5 1 2 10 11 15 16 35 36 40 41
9 5 1 2 11 12 16 17 36 37 41 42
10 5 1 2 12 13 17 18 37 38 42 43
11 5 1 2 13 14 18 19 38 39 43 44
12 5 1 2 15 16 20 21 40 41 45 46
13 5 1 2 16 17 21 22 41 42 46 47
14 5 1 2 17 18 22 23 42 43 47 48
15 5 1 2 18 19 23 24 43 44 48 49
16 5 1 2 25 26 30 31 50 51 55 56
17 5 1 2 26 27 31 32 51 52 56 57
18 5 1 2 27 28 32 33 52 53 57 58
19 5 1 2 28 29 33 34 53 54 58 59
20 5 1 2 30 31 35 36 55 56 60 61
21 5 1 2 31 32 36 37 56 57 61 62
22 5 1 2 32 33 37 38 57 58 62 63
23 5 1 2 33 34 38 39 58 59 63 64
24 5 1 2 35 36 40 41 60 61 65 66
25 5 1 2 36 37 41 42 61 62 66 67
26 5 1 2 37 38 42 43 62 63 67 68
27 5 1 2 38 39 43 44 63 64 68 69
28 5 1 2 40 41 45 46 65 66 70 71
29 5 1 2 41 42 46 47 66 67 71 72
30 5 1 2 42 43 47 48 67 68 72 73
31 5 1 2 43 44 48 49 68 69 73 74
32 5 1 2 50 51 55 56 75 76 80 81
33 5 1 2 51 52 56 57 76 77 81 82
34 5 1 2 52 53 57 58 77 78 82 83
35 5 1 2 53 54 58 59 78 79 83 84
36 5 1 2 55 56 60 61 80 81 85 86
37 5 1 2 56 57 61 62 81 82 86 87
38 5 1 2 57 58 62 63 82 83 87 88
39 5 1 2 58 59 63 64 83 84 88 89
40 5 1 2 60 61 65 66 85 86 90 91
41 5 1 2 61 62 66 67 86 87 91 92
42 5 1 2 62 63 67 68 87 88 92 93
43 5 1 2 63 64 68 69 88 89 93 94
44 5 1 2 65 66 70 71 90 91 95 96
45 5 1 2 66 67 71 72 91 92 96 97
46 5 1 2 67 68 72 73 92 93 97 98
47 5 1 2 68 69 73 74 93 94 98 99
48 5 1 2 75 76 80 81 100 101 105 106
49 5 1 2 76 77 81 82 101 102 106 107
50 5 1 2 77 78 82 83 102 103 107 108
51 5 1 2 78 79 83 84 103 104 108 109
52 5 1 2 80 81 85 86 105 106 110 111
53 5 1 2 81 82 86 87 106 107 111 112
54 5 1 2 82 83 87 88 107 108 112 113
55 5 1 2 83 84 88 89 108 109 113 114
56 5 1 2 85 86 90 91 110 111 115 116
57 5 1 2 86 87 91 92 111 112 116 117
58 5 1 2 87 88 92 93 112 113 117 118
59 5 1 2 88 89 93 94 113 114 118 119
60 5 1 2 90 91 95 96 115 116 120 121
61 5 1 2 91 92 96 97 116 117 121 122
62 5 1 2 92 93 97 98 117 118 122 123
63 5 1 2 93 94 98 99 118 119 123 124
64 5 1 2 125 126 130 131 150 151 155 156
65 5 1 2 126 127 131 132 151 152 156 157
66 5 1 2 127 128 132 133 152 153 157 158
67 5 1 2 128 129 133 134 153 154 158 159
68 5 1 2 130 131 135 136 155 156 160 161
69 5 1 2 131 132 136 137 156 157 161 162
70 5 1 2 132 133 137 138 157 158 162 163
71 5 1 2 133 134 138 139 158 159 163 164
72 5 1 2 135 136 140 141 160 161 165 166
73 5 1 2 136 137 141 142 161 162 166 167
74 5 1 2 137 138 142 143 162 163 167 168
75 5 1 2 138 139 143 144 163 164 168 169
76 5 1 2 140 141 145 146 165 166 170 171
77 5 1 2 141 142 146 147 166 167 171 172
78 5 1 2 142 143 147 148 167 168 172 173
79 5 1 2 143 144 148 149 168 169 173 174
80 5 1 2 150 151 155 156 175 176 180 181
81 5 1 2 151 152 156 157 176 177 181 182
82 5 1 2 152 153 157 158 177 178 182 183
83 5 1 2 153 154 158 159 178 179 183 184
84 5 1 2 155 156 160 161 180 181 185 186
85 5 1 2 156 157 161 162 181 182 186 187
86 5 1 2 157 158 162 163 182 183 187 188
87 5 1 2 158 159 163 164 183 184 188 189
88 5 1 2 160 161 165 166 185 186 190 191
89 5 1 2 161 162 166 167 186 187 191 192
90 5 1 2 162 163 167 168 187 188 192 193
91 5 1 2 163 164 168 169 188 189 193 194
92 5 1 2 165 166 170 171 190 191 195 196
93 5 1 2 166 167 171 172 191 192 196 197
94 5 1 2 167 168 172 173 192 193 197 198
95 5 1 2 168 169 173 174 193 194 198 199
96 5 1 2 175 176 180 181 200 201 205 206
97 5 1 2 176 177 181 182 201 202 206 207
98 5 1 2 177 178 182 183 202 203 207 208
99 5 1 2 178 179 183 184 203 204 208 209
100 5 1 2 180 181 185 186 205 206 210 211
101 5 1 2 181 182 186 187 206 207 211 212
102 5 1 2 182 183 187 188 207 208 212 213
103 5 1 2 183 184 188 189 208 209 213 214
104 5 1 2 185 186 190 191 210 211 215 216
105 5 1 2 186 187 191 192 211 212 216 217
106 5 1 2 187 188 192 193 212 213 217 218
107 5 1 2 188 189 193 194 213 214 218 219
108 5 1 2 190 191 195 196 215 216 220 221
109 5 1 2 191 192 196 197 216 217 221 222
110 5 1 2 192 193 197 198 217 218 222 223
111 5 1 2 193 194 198 199 218 219 223 224
112 5 1 2 200 201 205 206 225 226 230 231
113 5 1 2 201 202 206 207 226 227 231 232
114 5 1 2 202 203 207 208 227 228 232 233
115 5 1 2 203 204 208 209 228 229 233 234
116 5 1 2 205 206 210 211 230 231 235 236
117 5 1 2 206 207 211 212 231 232 236 237
118 5 1 2 207 208 212 213 232 233 237 238
119 5 1 2 208 209 213 214 233 234 238 239
120 5 1 2 210 211 215 216 235 236 240 241
121 5 1 2 211 212 216 217 236 237 241 242
122 5 1 2 212 213 217 218 237 238 242 243
123 5 1 2 213 214 218 219 238 239 243 244
124 5 1 2 215 216 220 221 240 241 245 246
125 5 1 2 216 217 221 222 241 242 246 247
126 5 1 2 217 218 222 223 242 243 247 248
127 5 1 2 218 219 223 224 243 244 248 249
$EndElements
