$MeshFormat
2.2 0 8
$EndMeshFormat
$Nodes
27
0 0 0 0
1 10 0 0
2 20 0 0
3 0 10 0
4 10 10 0
5 20 10 0
6 0 20 0
7 10 20 0
8 20 20 0
9 0 0 10
10 10 0 10
11 20 0 10
12 0 10 10
13 10 10 10
14 20 10 10
15 0 20 10
16 10 20 10
17 20 20 10
18 0 0 20
19 10 0 20
20 20 0 20
21 0 10 20
22 10 10 20
23 20 10 20
24 0 20 20
25 10 20 20
26 20 20 20
$EndNodes
$Elements
8
0 5 1 2 0 1 3 4 9 10 12 13
1 5 1 2 1 2 4 5 10 11 13 14
2 5 1 2 3 4 6 7 12 13 15 16
3 5 1 2 4 5 7 8 13 14 16 17
4 5 1 2 9 10 12 13 18 19 21 22
5 5 1 2 10 11 13 14 19 20 22 23
6 5 1 2 12 13 15 16 21 22 24 25
7 5 1 2 13 14 16 17 22 23 25 26
$EndElements
